<svg width="24" height="24" viewBox="0 0 24 24" fill="none" xmlns="http://www.w3.org/2000/svg">
<g clip-path="url(#clip0_3197_6782)">
<rect width="24" height="24" fill="white"/>
<path d="M4.00049 2H10.2005V4.775C10.2005 4.925 10.2422 5.05 10.3255 5.15C10.4255 5.25 10.5505 5.3 10.7005 5.3H13.0505C13.2172 5.3 13.3588 5.24167 13.4755 5.125C13.5922 5.00833 13.6505 4.85833 13.6505 4.675V2H20.0005V22H4.00049V2ZM17.6755 19.725V4.25H15.9255V4.675C15.9255 5.475 15.6505 6.15833 15.1005 6.725C14.5505 7.29167 13.8672 7.575 13.0505 7.575H10.7005C9.91716 7.575 9.25049 7.3 8.70049 6.75C8.16716 6.2 7.90049 5.54167 7.90049 4.775V4.25H6.32549V19.725H17.6755Z" fill="black"/>
</g>
<defs>
<clipPath id="clip0_3197_6782">
<rect width="24" height="24" fill="white"/>
</clipPath>
</defs>
</svg>
