<svg width="24" height="24" viewBox="0 0 24 24" fill="none" xmlns="http://www.w3.org/2000/svg">
<g clip-path="url(#clip0_3354_2803)">
<rect width="24" height="24" fill="white"/>
<path d="M17.675 17H6.2V10H17.675V17ZM9.2 3.725H14.8L16.6 5.25C17.3333 5.86667 17.8833 6.5 18.25 7.15C18.6333 7.8 18.825 8.50833 18.825 9.275V20C18.825 20.6333 18.6833 21.1917 18.4 21.675C18.1167 22.175 17.7167 22.5583 17.2 22.825C16.6833 23.1083 16.1 23.25 15.45 23.25C14.8833 23.25 14.2667 23.1417 13.6 22.925C13.35 22.8583 13.0833 22.7917 12.8 22.725C12.5333 22.675 12.2667 22.65 12 22.65C11.75 22.65 11.4833 22.675 11.2 22.725C10.9167 22.7917 10.65 22.8583 10.4 22.925C9.73333 23.1417 9.11667 23.25 8.55 23.25C7.9 23.25 7.31667 23.1083 6.8 22.825C6.28333 22.5583 5.88333 22.175 5.6 21.675C5.31667 21.1917 5.175 20.6333 5.175 20V9.275C5.175 8.50833 5.35833 7.8 5.725 7.15C6.10833 6.5 6.66667 5.86667 7.4 5.25L9.2 3.725ZM7 7.675C6.71667 8.125 6.575 8.65833 6.575 9.275V20C6.575 20.55 6.75833 21 7.125 21.35C7.49167 21.7167 7.96667 21.9 8.55 21.9C8.81667 21.9 9.08333 21.8667 9.35 21.8C9.61667 21.75 9.88333 21.6917 10.15 21.625C10.4667 21.525 10.7667 21.4417 11.05 21.375C11.3333 21.325 11.65 21.3 12 21.3C12.35 21.3 12.6667 21.325 12.95 21.375C13.2333 21.4417 13.5333 21.525 13.85 21.625C14.1167 21.6917 14.3833 21.75 14.65 21.8C14.9333 21.8667 15.2 21.9 15.45 21.9C16.0333 21.9 16.5083 21.7167 16.875 21.35C17.2417 21 17.425 20.55 17.425 20V9.275C17.425 8.675 17.2833 8.15 17 7.7C16.7167 7.25 16.2833 6.775 15.7 6.275L14.25 5.025H9.75L8.275 6.25C7.70833 6.73333 7.28333 7.20833 7 7.675ZM9.15 4.325V0.499999H14.85V4.325H13.55H10.45H9.15Z" fill="black"/>
</g>
<defs>
<clipPath id="clip0_3354_2803">
<rect width="24" height="24" fill="white"/>
</clipPath>
</defs>
</svg>
