<svg width="24" height="24" viewBox="0 0 24 24" fill="none" xmlns="http://www.w3.org/2000/svg">
<g clip-path="url(#clip0_3390_9591)">
<rect width="24" height="24" fill="white"/>
<path d="M18.175 17H5.7V10H18.175V17ZM9.575 3.4H14.425L16.3 5C17.0167 5.6 17.5583 6.21667 17.925 6.85C18.3083 7.48333 18.5 8.14167 18.5 8.825V20.125C18.5 20.725 18.3667 21.2583 18.1 21.725C17.8333 22.2083 17.4583 22.5833 16.975 22.85C16.5083 23.1167 15.975 23.25 15.375 23.25C14.8083 23.25 14.2 23.1417 13.55 22.925C13.3167 22.8583 13.0667 22.7917 12.8 22.725C12.5333 22.675 12.2667 22.65 12 22.65C11.7333 22.65 11.4667 22.675 11.2 22.725C10.9333 22.7917 10.6833 22.8583 10.45 22.925C9.8 23.1417 9.19167 23.25 8.625 23.25C8.025 23.25 7.48333 23.1167 7 22.85C6.53333 22.5833 6.16667 22.2083 5.9 21.725C5.63333 21.2583 5.5 20.725 5.5 20.125V8.825C5.5 8.14167 5.68333 7.48333 6.05 6.85C6.43333 6.21667 6.98333 5.6 7.7 5L9.575 3.4ZM6.525 7.025C6.175 7.59167 6 8.19167 6 8.825V20.125C6 20.9083 6.24167 21.5417 6.725 22.025C7.225 22.525 7.85833 22.775 8.625 22.775C8.89167 22.775 9.15833 22.7417 9.425 22.675C9.69167 22.625 9.94167 22.5667 10.175 22.5C10.4917 22.4 10.7917 22.3167 11.075 22.25C11.3583 22.2 11.6667 22.175 12 22.175C12.35 22.175 12.6583 22.2 12.925 22.25C13.2083 22.3167 13.5083 22.4 13.825 22.5C14.0583 22.5667 14.3083 22.625 14.575 22.675C14.8417 22.7417 15.1083 22.775 15.375 22.775C16.1417 22.775 16.7667 22.525 17.25 22.025C17.75 21.5417 18 20.9083 18 20.125V8.825C18 8.20833 17.8167 7.61667 17.45 7.05C17.1 6.48333 16.5917 5.90833 15.925 5.325L14.225 3.85L9.75 3.875L8.05 5.325C7.38333 5.875 6.875 6.44167 6.525 7.025ZM9.475 3.65V0.499999H14.525V3.65H14.025H9.975H9.475Z" fill="black"/>
</g>
<defs>
<clipPath id="clip0_3390_9591">
<rect width="24" height="24" fill="white"/>
</clipPath>
</defs>
</svg>
