<svg width="24" height="24" viewBox="0 0 24 24" fill="none" xmlns="http://www.w3.org/2000/svg">
<g clip-path="url(#clip0_3197_6628)">
<rect width="24" height="24" fill="white"/>
<path d="M2.50049 17.325V6.675L12.0005 1.1L21.5005 6.675V17.325L12.0005 22.725L2.50049 17.325ZM10.6505 13.025H13.3505V20.9H10.6505V13.025ZM18.7505 15.8L18.8005 8.15L12.0005 4.125L5.22549 8.1V15.8L12.0005 19.625L18.7505 15.8ZM3.55049 10.2V7.175L12.0005 12.025L19.6755 7.625L20.9005 9.95L12.0005 15.05L3.55049 10.2ZM6.15049 6.15L8.22549 4.45L18.3005 10.3L15.5755 11.7L6.15049 6.15Z" fill="black"/>
</g>
<defs>
<clipPath id="clip0_3197_6628">
<rect width="24" height="24" fill="white"/>
</clipPath>
</defs>
</svg>
