<svg width="24" height="24" viewBox="0 0 24 24" fill="none" xmlns="http://www.w3.org/2000/svg">
<g clip-path="url(#clip0_3197_6744)">
<rect width="24" height="24" fill="white"/>
<path d="M20 22H4V2H7.75V4.5C7.75 5.06667 7.94167 5.54167 8.325 5.925C8.70833 6.30833 9.18333 6.5 9.75 6.5H14.25C14.8167 6.5 15.2917 6.30833 15.675 5.925C16.0583 5.54167 16.25 5.06667 16.25 4.5V2H20V22ZM9.5 9.625L7.875 11.25L10.4 13.75L7.875 16.25L9.5 17.875L12 15.35L14.5 17.875L16.125 16.25L13.6 13.75L16.125 11.25L14.5 9.625L12 12.15L9.5 9.625Z" fill="black"/>
</g>
<defs>
<clipPath id="clip0_3197_6744">
<rect width="24" height="24" fill="white"/>
</clipPath>
</defs>
</svg>
