<svg width="24" height="24" viewBox="0 0 24 24" fill="none" xmlns="http://www.w3.org/2000/svg">
<g clip-path="url(#clip0_3197_6726)">
<rect width="24" height="24" fill="white"/>
<path d="M9.67549 10.5L12.0005 12.875L14.3255 10.5L15.2005 11.4L12.8505 13.725L15.2005 16.05L14.3255 16.95L12.0005 14.575L9.67549 16.95L8.77549 16.05L11.1255 13.725L8.77549 11.4L9.67549 10.5ZM4.00049 2H8.92549V4.825C8.92549 5.19167 9.05049 5.50833 9.30049 5.775C9.56716 6.04167 9.88382 6.175 10.2505 6.175H13.7505C14.1338 6.175 14.4505 6.04167 14.7005 5.775C14.9505 5.50833 15.0755 5.19167 15.0755 4.825V2H20.0005V22H4.00049V2ZM18.6005 20.65V3.3H16.4255V4.825C16.4255 5.59167 16.1672 6.23333 15.6505 6.75C15.1338 7.26667 14.5005 7.525 13.7505 7.525H10.2505C9.50049 7.525 8.86716 7.26667 8.35049 6.75C7.83382 6.23333 7.57549 5.59167 7.57549 4.825V3.3H5.40049V20.65H18.6005Z" fill="black"/>
</g>
<defs>
<clipPath id="clip0_3197_6726">
<rect width="24" height="24" fill="white"/>
</clipPath>
</defs>
</svg>
