<svg width="24" height="24" viewBox="0 0 24 24" fill="none" xmlns="http://www.w3.org/2000/svg">
<g clip-path="url(#clip0_3373_4845)">
<rect width="24" height="24" fill="white"/>
<path d="M20 22H4V2H7.75V4.5C7.75 5.06667 7.94167 5.54167 8.325 5.925C8.70833 6.30833 9.18333 6.5 9.75 6.5H14.25C14.8167 6.5 15.2917 6.30833 15.675 5.925C16.0583 5.54167 16.25 5.06667 16.25 4.5V2H20V22ZM8.65 10.05L8.3 10.4L11.65 13.75L8.3 17.1L8.65 17.45L12 14.1L15.35 17.45L15.7 17.1L12.35 13.75L15.7 10.4L15.35 10.05L12 13.4L8.65 10.05Z" fill="black"/>
</g>
<defs>
<clipPath id="clip0_3373_4845">
<rect width="24" height="24" fill="white"/>
</clipPath>
</defs>
</svg>
