<svg width="24" height="24" viewBox="0 0 24 24" fill="none" xmlns="http://www.w3.org/2000/svg">
<g clip-path="url(#clip0_3197_6730)">
<rect width="24" height="24" fill="white"/>
<path d="M10.1255 10.225L12.0005 12.175L13.8755 10.2L15.3255 11.7L13.3755 13.55L15.3255 15.425L13.8755 16.9L12.0005 14.95L10.1255 16.9L8.65049 15.425L10.6005 13.55L8.65049 11.7L10.1255 10.225ZM4.00049 2H10.1755V4.75C10.1755 4.9 10.2255 5.03333 10.3255 5.15C10.4422 5.26667 10.5755 5.325 10.7255 5.325H13.0255C13.1922 5.325 13.3338 5.25833 13.4505 5.125C13.5838 4.99167 13.6505 4.84167 13.6505 4.675V2H20.0005V22H4.00049V2ZM17.7255 19.775V4.2H15.9255V4.675C15.9255 5.475 15.6422 6.15833 15.0755 6.725C14.5255 7.29167 13.8422 7.575 13.0255 7.575H10.7255C9.94216 7.575 9.27549 7.3 8.72549 6.75C8.19216 6.2 7.92549 5.53333 7.92549 4.75V4.2H6.27549V19.775H17.7255Z" fill="black"/>
</g>
<defs>
<clipPath id="clip0_3197_6730">
<rect width="24" height="24" fill="white"/>
</clipPath>
</defs>
</svg>
