<svg width="24" height="24" viewBox="0 0 24 24" fill="none" xmlns="http://www.w3.org/2000/svg">
<g clip-path="url(#clip0_3197_6724)">
<rect width="24" height="24" fill="white"/>
<path d="M9.40049 10.525L12.0005 13.125L14.5755 10.525L15.2005 11.15L12.6005 13.725L15.2005 16.3L14.5755 16.925L12.0005 14.325L9.40049 16.925L8.80049 16.3L11.4005 13.725L8.80049 11.15L9.40049 10.525ZM4.00049 2H8.32549V4.675C8.32549 5.14167 8.48382 5.53333 8.80049 5.85C9.13382 6.16667 9.53382 6.325 10.0005 6.325H14.0005C14.4672 6.325 14.8588 6.16667 15.1755 5.85C15.5088 5.53333 15.6755 5.14167 15.6755 4.675V2H20.0005V22H4.00049V2ZM19.0505 21.075V2.875H16.5755V4.675C16.5755 5.39167 16.3255 6 15.8255 6.5C15.3255 7 14.7172 7.25 14.0005 7.25H10.0005C9.28382 7.25 8.67549 7 8.17549 6.5C7.67549 6 7.42549 5.39167 7.42549 4.675V2.875H4.95049V21.075H19.0505Z" fill="black"/>
</g>
<defs>
<clipPath id="clip0_3197_6724">
<rect width="24" height="24" fill="white"/>
</clipPath>
</defs>
</svg>
