<svg width="24" height="24" viewBox="0 0 24 24" fill="none" xmlns="http://www.w3.org/2000/svg">
<g clip-path="url(#clip0_3336_10477)">
<rect width="24" height="24" fill="white"/>
<path d="M17.4255 9V10.8H6.45049V9H17.4255ZM17.4255 16V17.8H6.45049V16H17.4255ZM16.7505 5.375C17.4838 5.99167 18.0422 6.63333 18.4255 7.3C18.8088 7.96667 19.0005 8.7 19.0005 9.5V19.95C19.0005 20.5833 18.8505 21.15 18.5505 21.65C18.2505 22.15 17.8338 22.5417 17.3005 22.825C16.7672 23.1083 16.1672 23.25 15.5005 23.25C14.9338 23.25 14.3088 23.1417 13.6255 22.925C13.3588 22.8583 13.0838 22.7917 12.8005 22.725C12.5338 22.675 12.2672 22.65 12.0005 22.65C11.7505 22.65 11.4838 22.675 11.2005 22.725C10.9172 22.7917 10.6422 22.8583 10.3755 22.925C9.69216 23.1417 9.06716 23.25 8.50049 23.25C7.83382 23.25 7.23382 23.1083 6.70049 22.825C6.16716 22.5417 5.75049 22.15 5.45049 21.65C5.15049 21.15 5.00049 20.5833 5.00049 19.95V9.5C5.00049 8.7 5.19216 7.96667 5.57549 7.3C5.95882 6.63333 6.51716 5.99167 7.25049 5.375L9.00049 3.9H15.0005L16.7505 5.375ZM6.85049 19.95C6.85049 20.3667 7.00049 20.7167 7.30049 21C7.61716 21.3 8.01716 21.45 8.50049 21.45C8.76716 21.45 9.03382 21.4167 9.30049 21.35C9.58382 21.3 9.85882 21.2417 10.1255 21.175C10.4588 21.075 10.7672 21 11.0505 20.95C11.3338 20.8833 11.6505 20.85 12.0005 20.85C12.3505 20.85 12.6672 20.8833 12.9505 20.95C13.2338 21 13.5422 21.075 13.8755 21.175C14.1422 21.2417 14.4172 21.3 14.7005 21.35C14.9838 21.4167 15.2505 21.45 15.5005 21.45C15.9838 21.45 16.3755 21.3 16.6755 21C16.9922 20.7167 17.1505 20.3667 17.1505 19.95V9.5C17.1505 8.91667 17.0255 8.425 16.7755 8.025C16.5255 7.625 16.1338 7.2 15.6005 6.75L14.2505 5.6H9.75049L8.40049 6.725C7.86716 7.175 7.47549 7.6 7.22549 8C6.97549 8.4 6.85049 8.9 6.85049 9.5V19.95ZM13.3005 2.175H10.7005V4.65H8.97549V0.499999H15.0255V4.65H13.3005V2.175Z" fill="black"/>
</g>
<defs>
<clipPath id="clip0_3336_10477">
<rect width="24" height="24" fill="white"/>
</clipPath>
</defs>
</svg>
