<svg width="24" height="24" viewBox="0 0 24 24" fill="none" xmlns="http://www.w3.org/2000/svg">
<g clip-path="url(#clip0_3336_10493)">
<rect width="24" height="24" fill="white"/>
<path d="M17.425 17H6.45V10H17.425V17ZM9.025 3.725H14.975L16.825 5.35C17.5083 5.93333 18.0417 6.58333 18.425 7.3C18.8083 8.01667 19 8.75 19 9.5V19.825C19 20.4583 18.8333 21.0333 18.5 21.55C18.1833 22.0833 17.7417 22.5 17.175 22.8C16.625 23.1 16.0083 23.25 15.325 23.25C14.7583 23.25 14.1 23.1667 13.35 23C13.1333 22.9333 12.9083 22.875 12.675 22.825C12.4417 22.7917 12.2167 22.775 12 22.775C11.7833 22.775 11.5583 22.7917 11.325 22.825C11.0917 22.875 10.8667 22.9333 10.65 23C9.9 23.1667 9.24167 23.25 8.675 23.25C7.99167 23.25 7.36667 23.1 6.8 22.8C6.25 22.5 5.80833 22.0833 5.475 21.55C5.15833 21.0333 5 20.4583 5 19.825V9.5C5 8.75 5.19167 8.01667 5.575 7.3C5.95833 6.58333 6.49167 5.93333 7.175 5.35L9.025 3.725ZM7.6 8.175C7.35 8.60833 7.225 9.05 7.225 9.5V19.825C7.225 20.175 7.35833 20.475 7.625 20.725C7.90833 20.9583 8.25833 21.075 8.675 21.075C8.94167 21.075 9.20833 21.05 9.475 21C9.74167 20.9667 10 20.9167 10.25 20.85C10.5167 20.7833 10.7917 20.7333 11.075 20.7C11.375 20.65 11.6833 20.625 12 20.625C12.3167 20.625 12.6167 20.65 12.9 20.7C13.2 20.7333 13.4833 20.7833 13.75 20.85C14 20.9167 14.2583 20.9667 14.525 21C14.8083 21.05 15.075 21.075 15.325 21.075C15.7417 21.075 16.0833 20.9583 16.35 20.725C16.6333 20.475 16.775 20.175 16.775 19.825V9.5C16.775 9.03333 16.65 8.59167 16.4 8.175C16.1667 7.74167 15.825 7.325 15.375 6.925L14.075 5.8H9.925L8.65 6.925C8.2 7.325 7.85 7.74167 7.6 8.175ZM8.975 4.65V0.499999H15.025V4.65H13.3H10.7H8.975Z" fill="black"/>
</g>
<defs>
<clipPath id="clip0_3336_10493">
<rect width="24" height="24" fill="white"/>
</clipPath>
</defs>
</svg>
