<svg width="24" height="24" viewBox="0 0 24 24" fill="none" xmlns="http://www.w3.org/2000/svg">
<g clip-path="url(#clip0_3336_10483)">
<rect width="24" height="24" fill="white"/>
<path d="M18.4255 8.1L17.9255 11.45H5.95049L5.45049 8.1H18.4255ZM17.9255 14.15V17.5H5.95049V14.15H17.9255ZM17.0005 4.425C17.7172 5.00833 18.2672 5.66667 18.6505 6.4C19.0505 7.11667 19.2505 7.9 19.2505 8.75V19.1C19.2505 19.8667 19.0672 20.5667 18.7005 21.2C18.3505 21.8333 17.8672 22.3333 17.2505 22.7C16.6338 23.0667 15.9505 23.25 15.2005 23.25C14.5838 23.25 13.9255 23.1833 13.2255 23.05C13.0255 23.0167 12.8172 22.9833 12.6005 22.95C12.3838 22.9167 12.1838 22.9 12.0005 22.9C11.8172 22.9 11.6172 22.9167 11.4005 22.95C11.1838 22.9833 10.9755 23.0167 10.7755 23.05C10.0755 23.1833 9.42549 23.25 8.82549 23.25C8.07549 23.25 7.38382 23.0667 6.75049 22.7C6.13382 22.3333 5.64216 21.8333 5.27549 21.2C4.92549 20.5667 4.75049 19.8667 4.75049 19.1V8.75C4.75049 7.88333 4.94216 7.09167 5.32549 6.375C5.72549 5.64167 6.29216 4.98333 7.02549 4.4L9.27549 2.575H14.7255L17.0005 4.425ZM8.15049 19.1C8.15049 19.2833 8.23382 19.4667 8.40049 19.65C8.56716 19.8167 8.74216 19.9 8.92549 19.9C9.20882 19.9 9.46716 19.8833 9.70049 19.85C9.95049 19.8167 10.1922 19.775 10.4255 19.725C10.6588 19.6917 10.9088 19.6583 11.1755 19.625C11.4422 19.575 11.7172 19.55 12.0005 19.55C12.2838 19.55 12.5588 19.575 12.8255 19.625C13.0922 19.6583 13.3422 19.6917 13.5755 19.725C13.8088 19.775 14.0505 19.8167 14.3005 19.85C14.5505 19.8833 14.8172 19.9 15.1005 19.9C15.2838 19.9 15.4505 19.8167 15.6005 19.65C15.7672 19.4667 15.8505 19.2833 15.8505 19.1V8.7C15.8505 8.33333 15.7672 8.01667 15.6005 7.75C15.4338 7.48333 15.1755 7.20833 14.8255 6.925L13.1505 5.55H10.8505L9.22549 6.9C8.85882 7.18333 8.58382 7.45833 8.40049 7.725C8.23382 7.99167 8.15049 8.31667 8.15049 8.7V19.1ZM11.5255 3.65H10.3755H10.7255H9.22549V0.499999H14.7755V3.65H12.7755H11.5255Z" fill="black"/>
</g>
<defs>
<clipPath id="clip0_3336_10483">
<rect width="24" height="24" fill="white"/>
</clipPath>
</defs>
</svg>
