<svg width="24" height="24" viewBox="0 0 24 24" fill="none" xmlns="http://www.w3.org/2000/svg">
<g clip-path="url(#clip0_3390_9345)">
<rect width="24" height="24" fill="white"/>
<path d="M9.17549 21.475C7.30882 21.475 5.73382 20.95 4.45049 19.9C3.16716 18.8333 2.39216 17.4833 2.12549 15.85C1.85882 14.2167 2.19216 12.5917 3.12549 10.975L4.02549 9.375L6.07549 9.4L7.07549 11.15L6.22549 12.65C5.70882 13.55 5.50882 14.4167 5.62549 15.25C5.74216 16.0833 6.11716 16.7583 6.75049 17.275C7.40049 17.775 8.20882 18.025 9.17549 18.025H10.8005V21.475H9.17549ZM5.12549 7.525L5.92549 6.175C6.87549 4.54167 8.13382 3.43333 9.70049 2.85C11.2672 2.25 12.8255 2.25 14.3755 2.85C15.9255 3.43333 17.1672 4.54167 18.1005 6.175L18.9755 7.7L17.9755 9.45L15.9255 9.475L15.0255 7.9C14.5088 7 13.8672 6.4 13.1005 6.1C12.3505 5.78333 11.6005 5.79167 10.8505 6.125C10.1005 6.44167 9.47549 7.04167 8.97549 7.925L8.20049 9.275L5.12549 7.525ZM12.0255 19.75L12.9755 18.025H14.8255C15.8088 18.025 16.6172 17.775 17.2505 17.275C17.8838 16.7583 18.2505 16.0917 18.3505 15.275C18.4672 14.4583 18.2755 13.6 17.7755 12.7L17.0005 11.35L20.0505 9.575L20.8505 10.975C21.7838 12.6083 22.1088 14.25 21.8255 15.9C21.5588 17.5333 20.7838 18.875 19.5005 19.925C18.2338 20.975 16.6755 21.5 14.8255 21.5H12.9755L12.0255 19.75ZM8.70049 14.275L12.1505 12.1L12.3255 11.975C12.4922 11.8583 12.6172 11.7333 12.7005 11.6C12.8005 11.45 12.8505 11.3 12.8505 11.15C12.8505 10.9667 12.7505 10.8083 12.5505 10.675C12.3505 10.5417 12.1005 10.475 11.8005 10.475C11.4838 10.475 11.1922 10.5583 10.9255 10.725C10.6588 10.8917 10.4005 11.1333 10.1505 11.45L8.17549 10C8.62549 9.31667 9.16716 8.80833 9.80049 8.475C10.4338 8.14167 11.1505 7.975 11.9505 7.975C13.1005 7.975 14.0088 8.275 14.6755 8.875C15.3588 9.45833 15.7005 10.1917 15.7005 11.075C15.7005 11.525 15.5755 11.975 15.3255 12.425C15.0755 12.8583 14.6172 13.2917 13.9505 13.725L13.5255 13.975L12.7005 14.425H15.8255V16.9H8.70049V14.275Z" fill="black"/>
</g>
<defs>
<clipPath id="clip0_3390_9345">
<rect width="24" height="24" fill="white"/>
</clipPath>
</defs>
</svg>
