<svg width="24" height="24" viewBox="0 0 24 24" fill="none" xmlns="http://www.w3.org/2000/svg">
<g clip-path="url(#clip0_3390_9556)">
<rect width="24" height="24" fill="white"/>
<path d="M9.30049 21.725C7.31716 21.725 5.65882 21.1667 4.32549 20.05C3.00882 18.9333 2.20882 17.5167 1.92549 15.8C1.65882 14.0667 2.00049 12.35 2.95049 10.65L3.77549 9.2L5.92549 9.25L7.00049 11.075L6.22549 12.45C5.69216 13.4167 5.48382 14.3417 5.60049 15.225C5.71716 16.0917 6.10882 16.7917 6.77549 17.325C7.44216 17.8417 8.28382 18.1 9.30049 18.1H10.7755V21.725H9.30049ZM4.90049 7.35L5.57549 6.2C6.59216 4.43333 7.92549 3.24167 9.57549 2.625C11.2255 2.00833 12.8672 2.01667 14.5005 2.65C16.1338 3.28333 17.4338 4.45 18.4005 6.15L19.2005 7.55L18.1255 9.375L15.9755 9.425L15.1505 7.975C14.6172 7.025 13.9588 6.39167 13.1755 6.075C12.3922 5.75833 11.6088 5.76667 10.8255 6.1C10.0422 6.43333 9.38382 7.05833 8.85049 7.975L8.12549 9.2L4.90049 7.35ZM11.9755 19.9L12.9505 18.1H14.6505C15.6838 18.1 16.5338 17.8333 17.2005 17.3C17.8672 16.7667 18.2588 16.075 18.3755 15.225C18.4922 14.3583 18.2755 13.45 17.7255 12.5L17.0505 11.3L20.2755 9.425L21.0005 10.675C21.9838 12.425 22.3255 14.1667 22.0255 15.9C21.7422 17.6167 20.9255 19.025 19.5755 20.125C18.2422 21.2083 16.6005 21.75 14.6505 21.75H12.9505L11.9755 19.9ZM11.2005 10.975L9.70049 11.675L8.65049 9.4L11.3005 8.2H14.1505V16.975H11.2005V10.975Z" fill="black"/>
</g>
<defs>
<clipPath id="clip0_3390_9556">
<rect width="24" height="24" fill="white"/>
</clipPath>
</defs>
</svg>
