<svg width="24" height="24" viewBox="0 0 24 24" fill="none" xmlns="http://www.w3.org/2000/svg">
<g clip-path="url(#clip0_3197_6598)">
<rect width="24" height="24" fill="white"/>
<path d="M13.7255 19.7H18.1755C18.7588 19.7 19.2672 19.5167 19.7005 19.15C20.1338 18.7667 20.4005 18.3 20.5005 17.75C20.6172 17.1833 20.5338 16.6417 20.2505 16.125L18.5755 13.2L20.1755 12.275L21.8255 15.175C22.3422 16.0917 22.5005 17.05 22.3005 18.05C22.1172 19.0333 21.6422 19.8583 20.8755 20.525C20.1255 21.175 19.2255 21.5 18.1755 21.5H13.7255V19.7ZM5.85049 21.5C4.80049 21.5 3.89216 21.175 3.12549 20.525C2.35882 19.8583 1.87549 19.0333 1.67549 18.05C1.49215 17.05 1.66716 16.0917 2.20049 15.175L4.42549 11.325L6.02549 12.25L3.80049 16.1C3.50049 16.6 3.40049 17.1333 3.50049 17.7C3.60049 18.25 3.85882 18.7167 4.27549 19.1C4.70882 19.4667 5.21716 19.65 5.80049 19.65H9.17549V21.5H5.85049ZM14.0505 5.45C13.7505 4.95 13.3338 4.60833 12.8005 4.425C12.2672 4.225 11.7338 4.20833 11.2005 4.375C10.6672 4.54167 10.2588 4.88333 9.97549 5.4L8.27549 8.325L6.67549 7.4L8.35049 4.525C8.88382 3.60833 9.62549 2.98333 10.5755 2.65C11.5255 2.31667 12.4755 2.31667 13.4255 2.65C14.3755 2.98333 15.1172 3.60833 15.6505 4.525L17.8755 8.375L16.2755 9.3L14.0505 5.45ZM11.1005 20.6L14.3505 17.35V20.15V20.575V21.025V23.85L11.1005 20.6ZM6.55049 9.475L7.75049 13.925L5.32549 12.525L4.95049 12.325L4.57549 12.1L2.12549 10.675L6.55049 9.475ZM18.4005 11.125L13.9505 9.925L16.4005 8.525L16.7505 8.3L17.1255 8.1L19.5755 6.675L18.4005 11.125Z" fill="black"/>
</g>
<defs>
<clipPath id="clip0_3197_6598">
<rect width="24" height="24" fill="white"/>
</clipPath>
</defs>
</svg>
