<svg width="24" height="24" viewBox="0 0 24 24" fill="none" xmlns="http://www.w3.org/2000/svg">
<g clip-path="url(#clip0_3197_6808)">
<rect width="24" height="24" fill="white"/>
<path d="M7.05049 21.5C5.71716 21.5 4.57549 21.1 3.62549 20.3C2.67549 19.5 2.08382 18.5 1.85049 17.3C1.63382 16.0833 1.86716 14.8833 2.55049 13.7L4.35049 10.6L5.87549 10.375L6.45049 11.8L4.67549 14.875C4.29216 15.5417 4.15049 16.2083 4.25049 16.875C4.36715 17.525 4.67549 18.0583 5.17549 18.475C5.69216 18.8917 6.30049 19.1 7.00049 19.1H10.7505V21.5H7.05049ZM5.65049 8.25L7.50049 5.1C8.18382 3.93333 9.10882 3.14167 10.2755 2.725C11.4422 2.29167 12.6088 2.28333 13.7755 2.7C14.9422 3.11667 15.8588 3.91667 16.5255 5.1L18.3505 8.3L17.7755 9.725L16.2505 9.525L14.4005 6.3C14.0338 5.65 13.5422 5.21667 12.9255 5C12.3088 4.76667 11.6922 4.76667 11.0755 5C10.4755 5.21667 9.99216 5.64167 9.62549 6.275L7.77549 9.45L5.65049 8.25ZM12.4505 20.3L13.3755 19.1H17.0005C17.7338 19.1 18.3505 18.8917 18.8505 18.475C19.3505 18.0417 19.6505 17.5 19.7505 16.85C19.8505 16.1833 19.7255 15.5333 19.3755 14.9L17.5755 11.725L19.7005 10.5L21.4755 13.65C22.1422 14.8333 22.3588 16.0417 22.1255 17.275C21.9088 18.4917 21.3338 19.5 20.4005 20.3C19.4672 21.1 18.3338 21.5 17.0005 21.5H13.3755L12.4505 20.3ZM12.1255 15.675H7.72549V13.85L11.2505 8.775H14.1255V13.95H15.3005V15.675H14.1255V17.375H12.1255V15.675ZM12.1255 13.95V10.75L9.82549 13.95H12.1255Z" fill="black"/>
</g>
<defs>
<clipPath id="clip0_3197_6808">
<rect width="24" height="24" fill="white"/>
</clipPath>
</defs>
</svg>
