<svg width="24" height="24" viewBox="0 0 24 24" fill="none" xmlns="http://www.w3.org/2000/svg">
<g clip-path="url(#clip0_3197_6910)">
<rect width="24" height="24" fill="white"/>
<path d="M5.97549 21.5C4.90882 21.5 3.98382 21.1667 3.20049 20.5C2.41716 19.8333 1.92549 19 1.72549 18C1.52549 17 1.70049 16.0167 2.25049 15.05L4.50049 11.2L5.77549 10.875L6.15049 12.125L3.90049 15.975C3.58382 16.525 3.47549 17.0917 3.57549 17.675C3.69216 18.2417 3.96716 18.7167 4.40049 19.1C4.85049 19.4667 5.35882 19.65 5.92549 19.65H10.7255V21.5H5.97549ZM5.92549 8.6L8.30049 4.55C8.83382 3.63333 9.58382 3.00833 10.5505 2.675C11.5338 2.325 12.5088 2.31667 13.4755 2.65C14.4422 2.96667 15.2005 3.60833 15.7505 4.575L18.0505 8.6L17.6755 9.85L16.4005 9.55L14.1005 5.5C13.8005 4.98333 13.3755 4.63333 12.8255 4.45C12.2922 4.25 11.7505 4.24167 11.2005 4.425C10.6672 4.60833 10.2505 4.95 9.95049 5.45L7.57549 9.55L5.92549 8.6ZM12.6505 20.575L13.5755 19.65H18.0755C18.6922 19.65 19.2172 19.4583 19.6505 19.075C20.0838 18.675 20.3505 18.1917 20.4505 17.625C20.5505 17.0417 20.4588 16.5 20.1755 16L17.8755 11.925L19.5255 10.975L21.7755 15C22.3088 15.95 22.4755 16.9333 22.2755 17.95C22.0922 18.9667 21.6172 19.8167 20.8505 20.5C20.0838 21.1667 19.1588 21.5 18.0755 21.5H13.5755L12.6505 20.575ZM13.2505 10.95H9.05049V9.375H15.1005V10.7L11.6755 17.875H9.87549L13.2505 10.95Z" fill="black"/>
</g>
<defs>
<clipPath id="clip0_3197_6910">
<rect width="24" height="24" fill="white"/>
</clipPath>
</defs>
</svg>
