<svg width="24" height="24" viewBox="0 0 24 24" fill="none" xmlns="http://www.w3.org/2000/svg">
<g clip-path="url(#clip0_3197_6888)">
<rect width="24" height="24" fill="white"/>
<path d="M8.10049 21.475C6.50049 21.475 5.14216 21.0167 4.02549 20.1C2.90882 19.1667 2.22549 17.9917 1.97549 16.575C1.74216 15.1417 2.02549 13.725 2.82549 12.325L4.17549 9.975L5.97549 9.9L6.77549 11.475L5.45049 13.75C5.00049 14.5333 4.83382 15.3 4.95049 16.05C5.06716 16.8 5.40882 17.4083 5.97549 17.875C6.55882 18.3417 7.26716 18.575 8.10049 18.575H10.7755V21.475H8.10049ZM5.40049 7.875L6.72549 5.625C7.52549 4.24167 8.60882 3.3 9.97549 2.8C11.3588 2.28333 12.7255 2.275 14.0755 2.775C15.4255 3.275 16.5088 4.23333 17.3255 5.65L18.6755 8L17.8755 9.575L16.0755 9.5L14.7255 7.1C14.2755 6.33333 13.7088 5.81667 13.0255 5.55C12.3422 5.26667 11.6588 5.26667 10.9755 5.55C10.2922 5.83333 9.73382 6.35 9.30049 7.1L8.00049 9.375L5.40049 7.875ZM12.2255 20.025L13.1755 18.575H15.9005C16.7672 18.575 17.4838 18.3417 18.0505 17.875C18.6172 17.3917 18.9505 16.7833 19.0505 16.05C19.1672 15.3167 19.0088 14.5667 18.5755 13.8L17.3005 11.55L19.8755 10.05L21.1505 12.325C21.9505 13.725 22.2255 15.1417 21.9755 16.575C21.7422 18.0083 21.0672 19.1917 19.9505 20.125C18.8505 21.0417 17.5005 21.5 15.9005 21.5H13.1755L12.2255 20.025ZM11.9755 17.425C10.7922 17.425 9.85049 17.0333 9.15049 16.25C8.46716 15.45 8.12549 14.3417 8.12549 12.925C8.12549 11.5083 8.47549 10.4083 9.17549 9.625C9.87549 8.84167 10.8755 8.45 12.1755 8.45C12.7422 8.45 13.2838 8.51667 13.8005 8.65C14.3338 8.78333 14.8005 8.98333 15.2005 9.25L14.4255 11.175C14.1088 10.975 13.7588 10.8417 13.3755 10.775C13.0088 10.6917 12.6172 10.65 12.2005 10.65C11.8005 10.65 11.4422 10.775 11.1255 11.025C10.8088 11.2583 10.6172 11.6833 10.5505 12.3C10.7838 12.0833 11.0588 11.925 11.3755 11.825C11.6922 11.725 12.0172 11.675 12.3505 11.675C13.2838 11.675 14.0255 11.9333 14.5755 12.45C15.1255 12.9667 15.4005 13.6583 15.4005 14.525C15.4005 15.3917 15.0755 16.0917 14.4255 16.625C13.7922 17.1583 12.9755 17.425 11.9755 17.425ZM11.9505 15.35C12.2672 15.35 12.5422 15.275 12.7755 15.125C13.0088 14.9583 13.1255 14.75 13.1255 14.5C13.1255 14.2 13.0088 13.975 12.7755 13.825C12.5422 13.6583 12.2588 13.575 11.9255 13.575C11.5755 13.575 11.2922 13.6583 11.0755 13.825C10.8588 13.975 10.7505 14.2 10.7505 14.5C10.7505 14.75 10.8672 14.9583 11.1005 15.125C11.3505 15.275 11.6338 15.35 11.9505 15.35Z" fill="black"/>
</g>
<defs>
<clipPath id="clip0_3197_6888">
<rect width="24" height="24" fill="white"/>
</clipPath>
</defs>
</svg>
