<svg width="24" height="24" viewBox="0 0 24 24" fill="none" xmlns="http://www.w3.org/2000/svg">
<g clip-path="url(#clip0_3197_6702)">
<rect width="24" height="24" fill="white"/>
<path d="M5.97549 21.5C4.90882 21.5 3.98382 21.1667 3.20049 20.5C2.41716 19.8333 1.92549 19 1.72549 18C1.52549 17 1.70049 16.0167 2.25049 15.05L4.50049 11.2L5.77549 10.875L6.15049 12.125L3.90049 15.975C3.58382 16.525 3.47549 17.0917 3.57549 17.675C3.69216 18.2417 3.96716 18.7167 4.40049 19.1C4.85049 19.4667 5.35882 19.65 5.92549 19.65H10.7255V21.5H5.97549ZM5.92549 8.6L8.30049 4.55C8.83382 3.63333 9.58382 3.00833 10.5505 2.675C11.5338 2.325 12.5088 2.31667 13.4755 2.65C14.4422 2.96667 15.2005 3.60833 15.7505 4.575L18.0505 8.6L17.6755 9.85L16.4005 9.55L14.1005 5.5C13.8005 4.98333 13.3755 4.63333 12.8255 4.45C12.2922 4.25 11.7505 4.24167 11.2005 4.425C10.6672 4.60833 10.2505 4.95 9.95049 5.45L7.57549 9.55L5.92549 8.6ZM12.6505 20.575L13.5755 19.65H18.0755C18.6922 19.65 19.2172 19.4583 19.6505 19.075C20.0838 18.675 20.3505 18.1917 20.4505 17.625C20.5505 17.0417 20.4588 16.5 20.1755 16L17.8755 11.925L19.5255 10.975L21.7755 15C22.3088 15.95 22.4755 16.9333 22.2755 17.95C22.0922 18.9667 21.6172 19.8167 20.8505 20.5C20.0838 21.1667 19.1588 21.5 18.0755 21.5H13.5755L12.6505 20.575ZM9.05049 16.1L12.2755 13.325L12.5255 13.1C12.8255 12.8333 13.0505 12.5833 13.2005 12.35C13.3672 12.1167 13.4505 11.85 13.4505 11.55C13.4505 11.1667 13.3172 10.85 13.0505 10.6C12.7838 10.35 12.4255 10.225 11.9755 10.225C11.5588 10.225 11.2088 10.3417 10.9255 10.575C10.6588 10.8083 10.4755 11.1417 10.3755 11.575L8.90049 11.275C9.05049 10.4917 9.39216 9.88333 9.92549 9.45C10.4755 9 11.1755 8.775 12.0255 8.775C12.9255 8.775 13.6588 9.04167 14.2255 9.575C14.7922 10.0917 15.0755 10.725 15.0755 11.475C15.0755 12.0417 14.9338 12.55 14.6505 13C14.3838 13.4333 13.9672 13.8833 13.4005 14.35L13.1255 14.575L11.3755 15.975H15.2255V17.425H9.05049V16.1Z" fill="black"/>
</g>
<defs>
<clipPath id="clip0_3197_6702">
<rect width="24" height="24" fill="white"/>
</clipPath>
</defs>
</svg>
