<svg width="24" height="24" viewBox="0 0 24 24" fill="none" xmlns="http://www.w3.org/2000/svg">
<g clip-path="url(#clip0_3197_6864)">
<rect width="24" height="24" fill="white"/>
<path d="M9.17549 21.475C7.30882 21.475 5.73382 20.95 4.45049 19.9C3.16716 18.8333 2.39216 17.4833 2.12549 15.85C1.85882 14.2167 2.19216 12.5917 3.12549 10.975L4.02549 9.375L6.07549 9.4L7.07549 11.15L6.22549 12.65C5.70882 13.55 5.50882 14.4167 5.62549 15.25C5.74216 16.0833 6.11716 16.7583 6.75049 17.275C7.40049 17.775 8.20882 18.025 9.17549 18.025H10.8005V21.475H9.17549ZM5.12549 7.525L5.92549 6.175C6.87549 4.54167 8.13382 3.43333 9.70049 2.85C11.2672 2.25 12.8255 2.25 14.3755 2.85C15.9255 3.43333 17.1672 4.54167 18.1005 6.175L18.9755 7.7L17.9755 9.45L15.9255 9.475L15.0255 7.9C14.5088 7 13.8672 6.4 13.1005 6.1C12.3505 5.78333 11.6005 5.79167 10.8505 6.125C10.1005 6.44167 9.47549 7.04167 8.97549 7.925L8.20049 9.275L5.12549 7.525ZM12.0255 19.75L12.9755 18.025H14.8255C15.8088 18.025 16.6172 17.775 17.2505 17.275C17.8838 16.7583 18.2505 16.0917 18.3505 15.275C18.4672 14.4583 18.2755 13.6 17.7755 12.7L17.0005 11.35L20.0505 9.575L20.8505 10.975C21.7838 12.6083 22.1088 14.25 21.8255 15.9C21.5588 17.5333 20.7838 18.875 19.5005 19.925C18.2338 20.975 16.6755 21.5 14.8255 21.5H12.9755L12.0255 19.75ZM11.7255 17.5C11.0755 17.5 10.4755 17.425 9.92549 17.275C9.37549 17.1083 8.80049 16.8083 8.20049 16.375L9.47549 14.4C9.90882 14.6 10.2755 14.75 10.5755 14.85C10.8755 14.95 11.1838 15 11.5005 15C11.8672 15 12.1422 14.95 12.3255 14.85C12.5255 14.75 12.6255 14.6 12.6255 14.4C12.6255 14.2333 12.5422 14.1 12.3755 14C12.2255 13.8833 12.0088 13.825 11.7255 13.825C11.5422 13.825 11.3672 13.85 11.2005 13.9C11.0505 13.9333 10.9088 13.9833 10.7755 14.05L8.57549 13.45L8.80049 8.575H15.1755V11H11.3505L11.2755 11.9C11.6255 11.75 12.0422 11.675 12.5255 11.675C13.0588 11.675 13.5505 11.8083 14.0005 12.075C14.4505 12.325 14.8005 12.6667 15.0505 13.1C15.3172 13.5167 15.4505 13.9583 15.4505 14.425C15.4505 15.3583 15.0922 16.1083 14.3755 16.675C13.6755 17.225 12.7922 17.5 11.7255 17.5Z" fill="black"/>
</g>
<defs>
<clipPath id="clip0_3197_6864">
<rect width="24" height="24" fill="white"/>
</clipPath>
</defs>
</svg>
