<svg width="24" height="24" viewBox="0 0 24 24" fill="none" xmlns="http://www.w3.org/2000/svg">
<g clip-path="url(#clip0_3197_6686)">
<rect width="24" height="24" fill="white"/>
<path d="M4 2H7.75V5C7.75 5.41667 7.89167 5.775 8.175 6.075C8.475 6.35833 8.83333 6.5 9.25 6.5H14.75C15.1667 6.5 15.5167 6.35833 15.8 6.075C16.1 5.775 16.25 5.41667 16.25 5V2H20V22H4V2ZM11.5 18.3L11.775 17.825L11.5 17.35H8.8C8.63333 17.35 8.49167 17.3 8.375 17.2C8.25833 17.0833 8.18333 16.95 8.15 16.8C8.11667 16.6333 8.13333 16.475 8.2 16.325L9.275 14.5L8.45 14.05L7.35 15.95C7.16667 16.2833 7.10833 16.6333 7.175 17C7.24167 17.3667 7.41667 17.675 7.7 17.925C8 18.175 8.33333 18.3 8.7 18.3H11.5ZM15.125 18.3C15.5083 18.3 15.8417 18.1833 16.125 17.95C16.425 17.7 16.6083 17.3917 16.675 17.025C16.7583 16.6417 16.7 16.2833 16.5 15.95L15.075 13.525H14.525L14.25 13.975L15.625 16.325C15.7083 16.475 15.7333 16.6333 15.7 16.8C15.6667 16.95 15.5833 17.0833 15.45 17.2C15.3167 17.3 15.175 17.35 15.025 17.35H12.9V18.3H15.125ZM9.975 13.3L11.325 10.95C11.4083 10.8167 11.525 10.725 11.675 10.675C11.8417 10.6083 12 10.6 12.15 10.65C12.3 10.7 12.4167 10.8 12.5 10.95L13.575 12.775L14.375 12.3L13.275 10.4C13.075 10.0667 12.7917 9.83333 12.425 9.7C12.075 9.56667 11.725 9.56667 11.375 9.7C11.025 9.83333 10.75 10.0667 10.55 10.4L9.175 12.8L9.45 13.3H9.975ZM18.55 5.025C18.5333 5.025 18.5167 5.025 18.5 5.025C18.5 5.025 18.4917 5.025 18.475 5.025C18.475 5.025 18.4667 5.025 18.45 5.025H18.4C18.4167 5.025 18.425 5.025 18.425 5.025H18.575C18.5917 5.025 18.6 5.025 18.6 5.025H18.55Z" fill="black"/>
</g>
<defs>
<clipPath id="clip0_3197_6686">
<rect width="24" height="24" fill="white"/>
</clipPath>
</defs>
</svg>
