<svg width="24" height="24" viewBox="0 0 24 24" fill="none" xmlns="http://www.w3.org/2000/svg">
<g clip-path="url(#clip0_3390_9421)">
<rect width="24" height="24" fill="white"/>
<path d="M8.20049 21.65C6.51716 21.65 5.10049 21.1667 3.95049 20.2C2.81716 19.2333 2.12549 18.0083 1.87549 16.525C1.62549 15.0417 1.90882 13.575 2.72549 12.125L4.02549 9.875L5.87549 9.8L6.72549 11.425L5.45049 13.625C4.98382 14.4583 4.80882 15.2667 4.92549 16.05C5.04216 16.8167 5.39216 17.4417 5.97549 17.925C6.57549 18.3917 7.30882 18.625 8.17549 18.625H10.7505V21.65H8.20049ZM5.25049 7.775L6.47549 5.65C7.34216 4.16667 8.48382 3.16667 9.90049 2.65C11.3338 2.11667 12.7505 2.11667 14.1505 2.65C15.5672 3.18333 16.6922 4.175 17.5255 5.625L18.8255 7.9L17.9755 9.525L16.1255 9.475L14.8005 7.15C14.3505 6.35 13.7672 5.81667 13.0505 5.55C12.3505 5.26667 11.6505 5.26667 10.9505 5.55C10.2505 5.83333 9.67549 6.35833 9.22549 7.125L7.95049 9.325L5.25049 7.775ZM12.2005 20.125L13.1505 18.625H15.8005C16.6838 18.625 17.4172 18.3833 18.0005 17.9C18.6005 17.4 18.9505 16.775 19.0505 16.025C19.1672 15.2583 19.0005 14.475 18.5505 13.675L17.3255 11.5L20.0255 9.95L21.2505 12.125C22.0838 13.6083 22.3672 15.0917 22.1005 16.575C21.8505 18.0583 21.1505 19.2833 20.0005 20.25C18.8505 21.2 17.4505 21.675 15.8005 21.675H13.1505L12.2005 20.125ZM11.7505 17.65C11.1005 17.65 10.5005 17.55 9.95049 17.35C9.40049 17.1333 8.89216 16.7833 8.42549 16.3L9.75049 14.825C10.1005 15.0583 10.4172 15.2333 10.7005 15.35C10.9838 15.4667 11.2838 15.525 11.6005 15.525C12.0005 15.525 12.3172 15.45 12.5505 15.3C12.7838 15.1333 12.9005 14.9083 12.9005 14.625C12.9005 14.3583 12.8005 14.1417 12.6005 13.975C12.4005 13.8083 12.1255 13.725 11.7755 13.725C11.5588 13.725 11.3505 13.7583 11.1505 13.825C10.9672 13.8917 10.8088 13.975 10.6755 14.075L8.72549 13.575L8.97549 8.825H15.0755V10.9H11.1505L11.0505 12.15C11.4338 11.95 11.8922 11.85 12.4255 11.85C12.9588 11.85 13.4505 11.9833 13.9005 12.25C14.3505 12.5 14.7005 12.8417 14.9505 13.275C15.2172 13.6917 15.3505 14.1417 15.3505 14.625C15.3505 15.5417 15.0088 16.275 14.3255 16.825C13.6422 17.375 12.7838 17.65 11.7505 17.65Z" fill="black"/>
</g>
<defs>
<clipPath id="clip0_3390_9421">
<rect width="24" height="24" fill="white"/>
</clipPath>
</defs>
</svg>
