<svg width="24" height="24" viewBox="0 0 24 24" fill="none" xmlns="http://www.w3.org/2000/svg">
<g clip-path="url(#clip0_3197_6600)">
<rect width="24" height="24" fill="white"/>
<path d="M13.4755 19.15H18.0505C18.5172 19.15 18.9255 19 19.2755 18.7C19.6422 18.3833 19.8672 18 19.9505 17.55C20.0338 17.1 19.9588 16.6667 19.7255 16.25L18.1505 13.45L20.2005 12.25L21.8005 15.05C22.3338 15.9833 22.5005 16.9583 22.3005 17.975C22.1005 18.975 21.6088 19.8167 20.8255 20.5C20.0588 21.1667 19.1338 21.5 18.0505 21.5H13.5005L13.4755 19.15ZM5.97549 21.5C4.89216 21.5 3.95882 21.1667 3.17549 20.5C2.39216 19.8167 1.90049 18.975 1.70049 17.975C1.51716 16.9583 1.69216 15.9833 2.22549 15.05L4.52549 11.1L6.57549 12.275L4.30049 16.25C4.05049 16.65 3.96716 17.075 4.05049 17.525C4.15049 17.975 4.36716 18.3583 4.70049 18.675C5.05049 18.975 5.46716 19.125 5.95049 19.125H9.15049L9.17549 21.5H5.97549ZM13.6755 5.775C13.4422 5.375 13.1088 5.1 12.6755 4.95C12.2422 4.78333 11.8005 4.775 11.3505 4.925C10.9172 5.05833 10.5838 5.33333 10.3505 5.75L8.72549 8.525L6.67549 7.35L8.27549 4.575C8.82549 3.64167 9.58382 3.00833 10.5505 2.675C11.5172 2.325 12.4838 2.325 13.4505 2.675C14.4338 3.00833 15.1922 3.64167 15.7255 4.575L18.0255 8.525L15.9755 9.75L13.6755 5.775ZM10.9005 20.3L14.4755 16.775V19.125V20.3V21.475V23.85L10.9005 20.3ZM6.87549 9.4L8.17549 14.275L6.12549 13.1L5.10049 12.525L4.07549 11.925L2.02549 10.725L6.87549 9.4ZM18.2755 11.375L13.4255 10.05L15.4755 8.875L16.4755 8.3L17.5005 7.7L19.5505 6.525L18.2755 11.375Z" fill="black"/>
</g>
<defs>
<clipPath id="clip0_3197_6600">
<rect width="24" height="24" fill="white"/>
</clipPath>
</defs>
</svg>
