<svg width="24" height="24" viewBox="0 0 24 24" fill="none" xmlns="http://www.w3.org/2000/svg">
<g clip-path="url(#clip0_3256_20439)">
<rect width="24" height="24" fill="white"/>
<path d="M6.27549 9.5L7.17549 12.9L5.72549 12.05L5.12549 11.725L4.27549 11.225L2.90049 10.425L6.27549 9.5ZM18.5255 10.875L15.1505 9.95L16.6005 9.125L17.2005 8.775L18.0505 8.275L19.4255 7.475L18.5255 10.875ZM11.2505 20.825L13.7255 18.325V20.025V20.7V21.7V23.275L11.2505 20.825ZM13.1505 20.15H18.1755C18.8755 20.15 19.4755 19.925 19.9755 19.475C20.4922 19.025 20.8172 18.4667 20.9505 17.8C21.0838 17.1333 20.9755 16.5 20.6255 15.9L18.9755 12.975L20.1755 12.275L21.8255 15.175C22.3422 16.0917 22.5005 17.05 22.3005 18.05C22.1172 19.0333 21.6422 19.8583 20.8755 20.525C20.1255 21.175 19.2255 21.5 18.1755 21.5H13.1505V20.15ZM5.85049 21.5C4.80049 21.5 3.89216 21.175 3.12549 20.525C2.37549 19.8583 1.90049 19.0333 1.70049 18.05C1.50049 17.05 1.66716 16.0917 2.20049 15.175L4.70049 10.825L5.90049 11.525L3.40049 15.875C3.05049 16.475 2.93382 17.1083 3.05049 17.775C3.18382 18.4417 3.50049 19 4.00049 19.45C4.51716 19.9 5.12549 20.125 5.82549 20.125H9.17549V21.5H5.85049ZM14.4505 5.225C14.1005 4.60833 13.6088 4.19167 12.9755 3.975C12.3422 3.74167 11.7005 3.73333 11.0505 3.95C10.4172 4.16667 9.92549 4.575 9.57549 5.175L7.90049 8.1L6.70049 7.425L8.37549 4.525C8.90882 3.60833 9.65049 2.99167 10.6005 2.675C11.5505 2.34167 12.5005 2.34167 13.4505 2.675C14.4005 2.99167 15.1422 3.60833 15.6755 4.525L18.1755 8.875L16.9505 9.575L14.4505 5.225Z" fill="black"/>
</g>
<defs>
<clipPath id="clip0_3256_20439">
<rect width="24" height="24" fill="white"/>
</clipPath>
</defs>
</svg>
