<svg width="24" height="24" viewBox="0 0 24 24" fill="none" xmlns="http://www.w3.org/2000/svg">
<g clip-path="url(#clip0_3197_6908)">
<rect width="24" height="24" fill="white"/>
<path d="M5.92549 21.5C4.87549 21.5 3.95882 21.1667 3.17549 20.5C2.39216 19.8333 1.90049 19 1.70049 18C1.51716 17 1.69216 16.0333 2.22549 15.1L4.55049 11.125L5.52549 10.875L5.80049 11.825L3.47549 15.8C3.10882 16.4333 2.99216 17.0917 3.12549 17.775C3.25882 18.4417 3.58382 19 4.10049 19.45C4.61716 19.8833 5.21716 20.1 5.90049 20.1H10.6755V21.5H5.92549ZM5.95049 8.575L8.32549 4.525C8.85882 3.60833 9.60882 2.98333 10.5755 2.65C11.5422 2.31667 12.5005 2.31667 13.4505 2.65C14.4172 2.96667 15.1755 3.6 15.7255 4.55L18.1005 8.65L17.8005 9.6L16.8505 9.375L14.4755 5.25C14.1255 4.63333 13.6255 4.21667 12.9755 4C12.3422 3.76667 11.7005 3.75833 11.0505 3.975C10.4172 4.19167 9.91716 4.60833 9.55049 5.225L7.17549 9.3L5.95049 8.575ZM12.7755 20.8L13.4755 20.1H18.1005C18.8172 20.1 19.4338 19.875 19.9505 19.425C20.4672 18.975 20.7838 18.4167 20.9005 17.75C21.0172 17.0667 20.9088 16.4167 20.5755 15.8L18.2755 11.725L19.5255 11.025L21.7755 15.05C22.3088 16 22.4755 16.9833 22.2755 18C22.0922 19 21.6172 19.8333 20.8505 20.5C20.1005 21.1667 19.1838 21.5 18.1005 21.5H13.4755L12.7755 20.8ZM13.7005 10.425H9.05049V9.225H15.1005V10.25L11.4005 17.975H10.0005L13.7005 10.425Z" fill="black"/>
</g>
<defs>
<clipPath id="clip0_3197_6908">
<rect width="24" height="24" fill="white"/>
</clipPath>
</defs>
</svg>
