<svg width="24" height="24" viewBox="0 0 24 24" fill="none" xmlns="http://www.w3.org/2000/svg">
<g clip-path="url(#clip0_3197_6680)">
<rect width="24" height="24" fill="white"/>
<path d="M4.00049 2H6.82549V3.575C6.82549 4.04167 6.98382 4.44167 7.30049 4.775C7.63382 5.09167 8.03382 5.25 8.50049 5.25H15.5005C15.9672 5.25 16.3588 5.09167 16.6755 4.775C17.0088 4.44167 17.1755 4.04167 17.1755 3.575V2H20.0005V22H4.00049V2ZM17.1755 19.225V8.025H15.7255H14.9755C14.5255 8.025 14.1922 8.025 13.9755 8.025C13.7588 8.025 13.4338 8.025 13.0005 8.025H10.7505C10.3005 8.025 9.96716 8.025 9.75049 8.025C9.55049 8.025 9.23382 8.025 8.80049 8.025H8.10049H6.82549V19.225H17.1755ZM15.5255 20.9C15.5255 20.9 15.5172 20.9 15.5005 20.9H15.5255H15.5505H15.5755H15.5505H15.5755H15.5255ZM15.6005 20.9H15.6505H15.6255H15.6755C15.6922 20.9 15.6922 20.9 15.6755 20.9C15.6755 20.9 15.6672 20.9 15.6505 20.9H15.6255H15.6005ZM15.6005 20.9H15.5755H15.5505H15.5755C15.5922 20.9 15.6005 20.9 15.6005 20.9C15.6005 20.9 15.6088 20.9 15.6255 20.9H15.6755H15.6505H15.6255H15.6005ZM10.2505 15.875C9.95049 15.875 9.69216 15.7833 9.47549 15.6C9.27549 15.4167 9.14216 15.1917 9.07549 14.925C9.02549 14.6417 9.07549 14.375 9.22549 14.125L10.9755 11.1C11.1255 10.8333 11.3338 10.6583 11.6005 10.575C11.8672 10.4917 12.1338 10.4917 12.4005 10.575C12.6672 10.6583 12.8755 10.8333 13.0255 11.1L14.7755 14.125C14.9255 14.375 14.9672 14.6417 14.9005 14.925C14.8505 15.1917 14.7172 15.4167 14.5005 15.6C14.3005 15.7833 14.0505 15.875 13.7505 15.875H10.2505Z" fill="black"/>
</g>
<defs>
<clipPath id="clip0_3197_6680">
<rect width="24" height="24" fill="white"/>
</clipPath>
</defs>
</svg>
