<svg width="24" height="24" viewBox="0 0 24 24" fill="none" xmlns="http://www.w3.org/2000/svg">
<g clip-path="url(#clip0_3390_9341)">
<rect width="24" height="24" fill="white"/>
<path d="M7.07549 21.575C5.70882 21.575 4.54216 21.1667 3.57549 20.35C2.60882 19.5333 2.00882 18.5083 1.77549 17.275C1.55882 16.025 1.79216 14.7917 2.47549 13.575L4.25049 10.525L5.82549 10.325L6.42549 11.775L4.67549 14.8C4.29216 15.4833 4.15049 16.1667 4.25049 16.85C4.36715 17.5167 4.68382 18.0667 5.20049 18.5C5.71716 18.9167 6.33382 19.125 7.05049 19.125H10.7505V21.575H7.07549ZM5.57549 8.175L7.40049 5.1C8.08382 3.9 9.02549 3.08333 10.2255 2.65C11.4255 2.21667 12.6172 2.21667 13.8005 2.65C15.0005 3.06667 15.9422 3.88333 16.6255 5.1L18.4255 8.25L17.8255 9.7L16.2505 9.5L14.4505 6.325C14.0672 5.65833 13.5672 5.20833 12.9505 4.975C12.3338 4.74167 11.7088 4.74167 11.0755 4.975C10.4588 5.20833 9.95882 5.65 9.57549 6.3L7.75049 9.425L5.57549 8.175ZM12.4255 20.35L13.3755 19.125H16.9255C17.6922 19.125 18.3255 18.9083 18.8255 18.475C19.3422 18.0417 19.6505 17.4917 19.7505 16.825C19.8672 16.1417 19.7338 15.475 19.3505 14.825L17.6005 11.725L19.7755 10.45L21.5255 13.55C22.2088 14.7667 22.4338 16.0083 22.2005 17.275C21.9838 18.525 21.3922 19.5583 20.4255 20.375C19.4755 21.175 18.3088 21.575 16.9255 21.575H13.3755L12.4255 20.35ZM8.95049 15.5L12.2505 12.9L12.4505 12.725C12.7172 12.5083 12.9172 12.3 13.0505 12.1C13.1838 11.8833 13.2505 11.6583 13.2505 11.425C13.2505 11.0917 13.1255 10.825 12.8755 10.625C12.6422 10.4083 12.3255 10.3 11.9255 10.3C11.5422 10.3 11.2088 10.4083 10.9255 10.625C10.6588 10.8417 10.4505 11.1417 10.3005 11.525L8.67549 10.85C8.92549 10.1 9.33382 9.525 9.90049 9.125C10.4672 8.70833 11.1672 8.5 12.0005 8.5C12.9838 8.5 13.7755 8.775 14.3755 9.325C14.9922 9.875 15.3005 10.5417 15.3005 11.325C15.3005 11.8583 15.1672 12.35 14.9005 12.8C14.6338 13.2333 14.2005 13.6833 13.6005 14.15L13.2755 14.375L11.8255 15.45H15.4255V17.25H8.95049V15.5Z" fill="black"/>
</g>
<defs>
<clipPath id="clip0_3390_9341">
<rect width="24" height="24" fill="white"/>
</clipPath>
</defs>
</svg>
