<svg width="24" height="24" viewBox="0 0 24 24" fill="none" xmlns="http://www.w3.org/2000/svg">
<g clip-path="url(#clip0_3197_6856)">
<rect width="24" height="24" fill="white"/>
<path d="M5.92549 21.5C4.87549 21.5 3.95882 21.1667 3.17549 20.5C2.39216 19.8333 1.90049 19 1.70049 18C1.51716 17 1.69216 16.0333 2.22549 15.1L4.55049 11.125L5.52549 10.875L5.80049 11.825L3.47549 15.8C3.10882 16.4333 2.99216 17.0917 3.12549 17.775C3.25882 18.4417 3.58382 19 4.10049 19.45C4.61716 19.8833 5.21716 20.1 5.90049 20.1H10.6755V21.5H5.92549ZM5.95049 8.575L8.32549 4.525C8.85882 3.60833 9.60882 2.98333 10.5755 2.65C11.5422 2.31667 12.5005 2.31667 13.4505 2.65C14.4172 2.96667 15.1755 3.6 15.7255 4.55L18.1005 8.65L17.8005 9.6L16.8505 9.375L14.4755 5.25C14.1255 4.63333 13.6255 4.21667 12.9755 4C12.3422 3.76667 11.7005 3.75833 11.0505 3.975C10.4172 4.19167 9.91716 4.60833 9.55049 5.225L7.17549 9.3L5.95049 8.575ZM12.7755 20.8L13.4755 20.1H18.1005C18.8172 20.1 19.4338 19.875 19.9505 19.425C20.4672 18.975 20.7838 18.4167 20.9005 17.75C21.0172 17.0667 20.9088 16.4167 20.5755 15.8L18.2755 11.725L19.5255 11.025L21.7755 15.05C22.3088 16 22.4755 16.9833 22.2755 18C22.0922 19 21.6172 19.8333 20.8505 20.5C20.1005 21.1667 19.1838 21.5 18.1005 21.5H13.4755L12.7755 20.8ZM11.8505 18C11.1672 18 10.5505 17.8417 10.0005 17.525C9.45049 17.1917 9.07549 16.725 8.87549 16.125L9.95049 15.75C10.0838 16.1 10.3172 16.375 10.6505 16.575C11.0005 16.775 11.3922 16.875 11.8255 16.875C12.4088 16.875 12.8922 16.7 13.2755 16.35C13.6755 16 13.8755 15.5583 13.8755 15.025C13.8755 14.5083 13.6838 14.075 13.3005 13.725C12.9338 13.375 12.4588 13.2 11.8755 13.2C11.5088 13.2 11.1672 13.275 10.8505 13.425C10.5505 13.5583 10.3088 13.75 10.1255 14L9.05049 13.725L9.30049 9.1H14.8755V10.2H10.4005L10.2255 12.775C10.7588 12.3583 11.3922 12.15 12.1255 12.15C12.6922 12.15 13.2005 12.275 13.6505 12.525C14.1005 12.7583 14.4588 13.1 14.7255 13.55C14.9922 13.9833 15.1255 14.475 15.1255 15.025C15.1255 15.875 14.8088 16.5833 14.1755 17.15C13.5588 17.7167 12.7838 18 11.8505 18Z" fill="black"/>
</g>
<defs>
<clipPath id="clip0_3197_6856">
<rect width="24" height="24" fill="white"/>
</clipPath>
</defs>
</svg>
