<svg width="24" height="24" viewBox="0 0 24 24" fill="none" xmlns="http://www.w3.org/2000/svg">
<g clip-path="url(#clip0_3256_20447)">
<rect width="24" height="24" fill="white"/>
<path d="M7.00049 8.575L8.50049 14.275L8.32549 14.175L1.62549 10.3L1.50049 10.225L1.35049 10.15L7.00049 8.575ZM18.4755 11.2L12.8005 9.625L12.9755 9.525L19.6755 5.675L19.8005 5.6L19.9505 5.5L18.4755 11.2ZM10.5255 19.8L14.7005 15.675V15.875V23.6V23.75V23.925L10.5255 19.8ZM12.9255 18.1H15.9005C16.7005 18.1 17.3422 17.9167 17.8255 17.55C18.3255 17.1667 18.6088 16.675 18.6755 16.075C18.7588 15.4583 18.6005 14.8083 18.2005 14.125L17.8755 13.575L20.8005 11.8L21.1505 12.4C21.9838 13.8167 22.2838 15.2333 22.0505 16.65C21.8338 18.0667 21.1672 19.2333 20.0505 20.15C18.9338 21.05 17.5505 21.5 15.9005 21.5H12.9255V18.1ZM8.12549 21.5C6.47549 21.5 5.09216 21.05 3.97549 20.15C2.85882 19.25 2.18382 18.0917 1.95049 16.675C1.73382 15.2583 2.03382 13.8417 2.85049 12.425L4.35049 9.825L7.30049 11.525L5.80049 14.125C5.40049 14.8083 5.23382 15.4583 5.30049 16.075C5.38382 16.6917 5.66716 17.1833 6.15049 17.55C6.65049 17.9167 7.30049 18.1 8.10049 18.1H8.80049V21.5H8.12549ZM14.3005 7.375C13.9005 6.69167 13.4172 6.23333 12.8505 6C12.2838 5.75 11.7172 5.75 11.1505 6C10.5838 6.23333 10.1005 6.69167 9.70049 7.375L9.35049 7.975L6.40049 6.275L6.75049 5.7C7.56716 4.26667 8.64216 3.29167 9.97549 2.775C11.3088 2.25833 12.6422 2.25833 13.9755 2.775C15.3255 3.29167 16.4088 4.25833 17.2255 5.675L18.7255 8.275L15.8005 9.975L14.3005 7.375Z" fill="black"/>
</g>
<defs>
<clipPath id="clip0_3256_20447">
<rect width="24" height="24" fill="white"/>
</clipPath>
</defs>
</svg>
