<svg width="24" height="24" viewBox="0 0 24 24" fill="none" xmlns="http://www.w3.org/2000/svg">
<g clip-path="url(#clip0_3256_20447)">
<rect width="24" height="24" fill="white"/>
<path d="M12.9505 18.05H17.8255C18.0588 18.05 18.2672 17.9667 18.4505 17.8C18.6505 17.6333 18.7755 17.4333 18.8255 17.2C18.8755 16.95 18.8338 16.7167 18.7005 16.5L17.2755 13.95L20.2255 12.175L21.7255 14.775C22.2922 15.7417 22.4672 16.7583 22.2505 17.825C22.0505 18.875 21.5422 19.75 20.7255 20.45C19.9255 21.15 18.9588 21.5 17.8255 21.5H13.0255L12.9505 18.05ZM6.20049 21.5C5.06716 21.5 4.09216 21.15 3.27549 20.45C2.47549 19.75 1.96716 18.875 1.75049 17.825C1.55049 16.7583 1.73382 15.7417 2.30049 14.775L4.70049 10.625L7.70049 12.3L5.27549 16.525C5.15882 16.725 5.12549 16.95 5.17549 17.2C5.24216 17.4333 5.36716 17.6333 5.55049 17.8C5.75049 17.9667 5.97549 18.05 6.22549 18.05H9.12549L9.15049 21.5H6.20049ZM12.9255 6.425C12.8088 6.225 12.6338 6.08333 12.4005 6C12.1672 5.91667 11.9255 5.91667 11.6755 6C11.4422 6.06667 11.2588 6.20833 11.1255 6.425L9.62549 8.95L6.65049 7.225L8.12549 4.675C8.69216 3.69167 9.47549 3.025 10.4755 2.675C11.4922 2.30833 12.5088 2.30833 13.5255 2.675C14.5422 3.025 15.3338 3.68333 15.9005 4.65L18.3005 8.8L15.4005 10.625L12.9255 6.425ZM10.5255 19.725L14.7005 15.6V17.1V19.725V22.4V23.85L10.5255 19.725ZM7.50049 9.275L9.00049 14.975L7.70049 14.225L5.42549 12.9L3.10049 11.575L1.85049 10.85L7.50049 9.275ZM18.0255 11.9L12.3505 10.325L13.6505 9.575L15.9255 8.275L18.2505 6.925L19.5005 6.2L18.0255 11.9Z" fill="black"/>
</g>
<defs>
<clipPath id="clip0_3256_20447">
<rect width="24" height="24" fill="white"/>
</clipPath>
</defs>
</svg>
