<svg width="24" height="24" viewBox="0 0 24 24" fill="none" xmlns="http://www.w3.org/2000/svg">
<g clip-path="url(#clip0_3197_6690)">
<rect width="24" height="24" fill="white"/>
<path d="M4 2H7.75V5C7.75 5.41667 7.89167 5.775 8.175 6.075C8.475 6.35833 8.83333 6.5 9.25 6.5H14.75C15.1667 6.5 15.5167 6.35833 15.8 6.075C16.1 5.775 16.25 5.41667 16.25 5V2H20V22H4V2ZM11.25 18.5L11.75 17.575L11.275 16.65H8.875C8.85833 16.65 8.84167 16.65 8.825 16.65C8.825 16.6333 8.825 16.6167 8.825 16.6C8.825 16.5833 8.825 16.5667 8.825 16.55L9.825 14.85L8.2 13.975L7.1 15.9C6.9 16.25 6.84167 16.6333 6.925 17.05C7.00833 17.4667 7.2 17.8167 7.5 18.1C7.81667 18.3667 8.19167 18.5 8.625 18.5H11.25ZM15.225 18.5C15.6417 18.5 16.0083 18.3667 16.325 18.1C16.6417 17.8333 16.8417 17.5 16.925 17.1C17.025 16.6833 16.9667 16.2833 16.75 15.9L15.4 13.6L14.275 13.55L13.775 14.5L14.975 16.55C14.975 16.5667 14.975 16.5833 14.975 16.6C14.975 16.6167 14.9667 16.6333 14.95 16.65C14.9333 16.65 14.9167 16.65 14.9 16.65H12.925V18.5H15.225ZM10.65 13.425L11.85 11.4C11.85 11.3833 11.8583 11.375 11.875 11.375C11.8917 11.3583 11.9083 11.3583 11.925 11.375C11.9417 11.375 11.95 11.3833 11.95 11.4L12.95 13.075L14.55 12.1L13.425 10.2C13.1917 9.81667 12.875 9.55833 12.475 9.425C12.0917 9.275 11.7 9.275 11.3 9.425C10.9167 9.55833 10.6083 9.81667 10.375 10.2L9.1 12.475L9.625 13.425H10.65ZM18.55 5.025C18.5333 5.025 18.5167 5.025 18.5 5.025C18.5 5.025 18.4917 5.025 18.475 5.025C18.475 5.025 18.4667 5.025 18.45 5.025H18.4C18.4167 5.025 18.425 5.025 18.425 5.025H18.575C18.5917 5.025 18.6 5.025 18.6 5.025H18.55Z" fill="black"/>
</g>
<defs>
<clipPath id="clip0_3197_6690">
<rect width="24" height="24" fill="white"/>
</clipPath>
</defs>
</svg>
