<svg width="24" height="24" viewBox="0 0 24 24" fill="none" xmlns="http://www.w3.org/2000/svg">
<g clip-path="url(#clip0_3197_6692)">
<rect width="24" height="24" fill="white"/>
<path d="M4 2H7.75V5C7.75 5.41667 7.89167 5.775 8.175 6.075C8.475 6.35833 8.83333 6.5 9.25 6.5H14.75C15.1667 6.5 15.5167 6.35833 15.8 6.075C16.1 5.775 16.25 5.41667 16.25 5V2H20V22H4V2ZM11.05 18.775L11.85 17.65L11.15 16.65H9.125C9.10833 16.65 9.1 16.6417 9.1 16.625C9.1 16.6083 9.1 16.5917 9.1 16.575C9.1 16.5583 9.1 16.5417 9.1 16.525L10 14.975L8.2 13.8L6.875 16.025C6.64167 16.4083 6.56667 16.8167 6.65 17.25C6.75 17.6833 6.96667 18.05 7.3 18.35C7.63333 18.6333 8.03333 18.775 8.5 18.775H11.05ZM15.45 18.775C15.9 18.775 16.2917 18.6333 16.625 18.35C16.9583 18.0667 17.1667 17.7083 17.25 17.275C17.35 16.8417 17.2833 16.425 17.05 16.025L15.775 13.8L14.35 13.675L13.825 14.875L14.8 16.525C14.8 16.5417 14.8 16.5583 14.8 16.575C14.8 16.5917 14.8 16.6083 14.8 16.625C14.8 16.6417 14.7917 16.65 14.775 16.65H12.9L12.85 18.775H15.45ZM10.825 13.45L11.9 11.725C11.9 11.7083 11.9083 11.7 11.925 11.7C11.9417 11.6833 11.9583 11.6833 11.975 11.7C11.9917 11.7 12 11.7083 12 11.725L12.925 13.325L14.875 12.225L13.55 10C13.3167 9.6 12.9917 9.33333 12.575 9.2C12.1583 9.05 11.7417 9.05 11.325 9.2C10.9083 9.33333 10.5833 9.6 10.35 10L9.075 12.25L9.65 13.5L10.825 13.45ZM18.55 5.025C18.5333 5.025 18.5167 5.025 18.5 5.025C18.5 5.025 18.4917 5.025 18.475 5.025C18.475 5.025 18.4667 5.025 18.45 5.025H18.4C18.4167 5.025 18.425 5.025 18.425 5.025H18.575C18.5917 5.025 18.6 5.025 18.6 5.025H18.55Z" fill="black"/>
</g>
<defs>
<clipPath id="clip0_3197_6692">
<rect width="24" height="24" fill="white"/>
</clipPath>
</defs>
</svg>
