<svg width="24" height="24" viewBox="0 0 24 24" fill="none" xmlns="http://www.w3.org/2000/svg">
<g clip-path="url(#clip0_3354_2840)">
<rect width="24" height="24" fill="white"/>
<path d="M4.5 19C3.8 19 3.20833 18.7583 2.725 18.275C2.24167 17.7917 2 17.2 2 16.5V11C2 10.4333 2.19167 9.95833 2.575 9.575C2.95833 9.19167 3.43333 9 4 9C4.56667 9 5.04167 9.19167 5.425 9.575C5.80833 9.95833 6 10.4333 6 11V14H18V11C18 10.4333 18.1917 9.95833 18.575 9.575C18.9583 9.19167 19.4333 9 20 9C20.5667 9 21.0417 9.19167 21.425 9.575C21.8083 9.95833 22 10.4333 22 11V16.5C22 17.2 21.7583 17.7917 21.275 18.275C20.7917 18.7583 20.2 19 19.5 19H4.5ZM4 18.725H6V21H4V18.725ZM18 18.725H20V21H18V18.725ZM8 11C8 10.2667 7.825 9.59167 7.475 8.975C7.125 8.35833 6.64167 7.875 6.025 7.525C5.40833 7.175 4.73333 7 4 7V5.5C4 4.8 4.24167 4.20833 4.725 3.725C5.20833 3.24167 5.8 3 6.5 3H17.5C18.2 3 18.7917 3.24167 19.275 3.725C19.7583 4.20833 20 4.8 20 5.5V7C19.2667 7 18.5917 7.175 17.975 7.525C17.3583 7.875 16.875 8.35833 16.525 8.975C16.175 9.59167 16 10.2667 16 11V12H8V11Z" fill="black"/>
</g>
<defs>
<clipPath id="clip0_3354_2840">
<rect width="24" height="24" fill="white"/>
</clipPath>
</defs>
</svg>
