<svg width="24" height="24" viewBox="0 0 24 24" fill="none" xmlns="http://www.w3.org/2000/svg">
<g clip-path="url(#clip0_3390_9958)">
<rect width="24" height="24" fill="white"/>
<path d="M4.92549 15.7H19.0755V14.05H4.92549V15.7ZM22.0005 20H19.0755V18.575H4.92549V20H2.00049V11.175H22.0005V20ZM17.7505 7.325C17.7505 7.19167 17.7088 7.08333 17.6255 7C17.5422 6.91667 17.4422 6.875 17.3255 6.875H6.52549C6.40882 6.875 6.30049 6.91667 6.20049 7C6.11716 7.08333 6.07549 7.19167 6.07549 7.325V11.35H3.17549V7.3C3.17549 6.7 3.31716 6.15 3.60049 5.65C3.90049 5.13333 4.30049 4.73333 4.80049 4.45C5.30049 4.15 5.85882 4 6.47549 4H17.3755C17.9755 4 18.5255 4.15 19.0255 4.45C19.5255 4.73333 19.9255 5.13333 20.2255 5.65C20.5255 6.15 20.6755 6.7 20.6755 7.3V11.35H17.7505V7.325ZM12.8255 9.425H16.2505V12.025H15.0755L14.8755 11.55H14.1005L13.8255 12.025H12.8255V9.425ZM7.57549 9.425H11.1755V12.025H10.0755L9.87549 11.55H9.10049L8.82549 12.025H7.57549V9.425Z" fill="black"/>
</g>
<defs>
<clipPath id="clip0_3390_9958">
<rect width="24" height="24" fill="white"/>
</clipPath>
</defs>
</svg>
