<svg width="24" height="24" viewBox="0 0 24 24" fill="none" xmlns="http://www.w3.org/2000/svg">
<g clip-path="url(#clip0_3390_9954)">
<rect width="24" height="24" fill="white"/>
<path d="M3.85049 16.2H20.1505V13.85H3.85049V16.2ZM22.0005 20H20.1505V18H3.85049V20H2.00049V12H22.0005V20ZM18.6505 7C18.6505 6.66667 18.5338 6.38333 18.3005 6.15C18.0838 5.91667 17.8172 5.8 17.5005 5.8H6.50049C6.18382 5.8 5.90882 5.91667 5.67549 6.15C5.45882 6.38333 5.35049 6.66667 5.35049 7V12.175H3.50049V7C3.50049 6.45 3.63382 5.95 3.90049 5.5C4.16716 5.03333 4.52549 4.66667 4.97549 4.4C5.44216 4.13333 5.95049 4 6.50049 4H17.5005C18.0505 4 18.5505 4.13333 19.0005 4.4C19.4672 4.66667 19.8338 5.03333 20.1005 5.5C20.3672 5.95 20.5005 6.45 20.5005 7V12.175H18.6505V7ZM13.0005 10.25H16.7505V12.85H15.4005L15.2005 12.375H14.2755L14.0005 12.85H13.0005V10.25ZM7.25049 10.25H11.0005V12.85H9.90049L9.70049 12.375H8.77549L8.50049 12.85H7.25049V10.25Z" fill="black"/>
</g>
<defs>
<clipPath id="clip0_3390_9954">
<rect width="24" height="24" fill="white"/>
</clipPath>
</defs>
</svg>
