<svg width="24" height="24" viewBox="0 0 24 24" fill="none" xmlns="http://www.w3.org/2000/svg">
<g clip-path="url(#clip0_3192_993)">
<rect width="24" height="24" fill="white"/>
<path d="M4.40049 15.925H19.6005V13.975H4.40049V15.925ZM22.0005 20H19.6005V18.275H4.40049V20H2.00049V11.575H22.0005V20ZM18.1755 7.175C18.1755 6.94167 18.1005 6.75 17.9505 6.6C17.8005 6.43333 17.6172 6.35 17.4005 6.35H6.52549C6.30882 6.35 6.11716 6.43333 5.95049 6.6C5.80049 6.75 5.72549 6.94167 5.72549 7.175V11.75H3.32549V7.175C3.32549 6.24167 3.61716 5.48333 4.20049 4.9C4.80049 4.3 5.56716 4 6.50049 4H17.4255C18.3588 4 19.1172 4.3 19.7005 4.9C20.2838 5.48333 20.5755 6.24167 20.5755 7.175V11.75H18.1755V7.175ZM12.9255 9.825H16.5005V12.425H15.2255L15.0255 11.95H14.2005L13.9255 12.425H12.9255V9.825ZM7.42549 9.825H11.0755V12.425H9.97549L9.77549 11.95H8.95049L8.67549 12.425H7.42549V9.825Z" fill="black"/>
</g>
<defs>
<clipPath id="clip0_3192_993">
<rect width="24" height="24" fill="white"/>
</clipPath>
</defs>
</svg>
