<svg width="24" height="24" viewBox="0 0 24 24" fill="none" xmlns="http://www.w3.org/2000/svg">
<g clip-path="url(#clip0_3390_9952)">
<rect width="24" height="24" fill="white"/>
<path d="M3.45049 16.1H20.5505V13.425H3.45049V16.1ZM22.0005 20H20.5505V17.5H3.45049V20H2.00049V12H22.0005V20ZM19.0505 6.825C19.0505 6.425 18.9172 6.09167 18.6505 5.825C18.3838 5.54167 18.0588 5.4 17.6755 5.4H6.17549C5.79216 5.4 5.45882 5.54167 5.17549 5.825C4.90882 6.09167 4.77549 6.425 4.77549 6.825V12.1H3.32549V6.825C3.32549 6.30833 3.45049 5.83333 3.70049 5.4C3.95049 4.96667 4.29216 4.625 4.72549 4.375C5.15882 4.125 5.64216 4 6.17549 4H17.6755C18.1922 4 18.6672 4.125 19.1005 4.375C19.5338 4.625 19.8755 4.96667 20.1255 5.4C20.3755 5.83333 20.5005 6.30833 20.5005 6.825V12.1H19.0505V6.825ZM12.9255 10.425H16.8255V12.85H15.8255L15.6255 12.375H14.0255L13.7505 12.85H12.9255V10.425ZM7.00049 10.425H10.9255V12.85H9.97549L9.77549 12.375H8.20049L7.92549 12.85H7.00049V10.425Z" fill="black"/>
</g>
<defs>
<clipPath id="clip0_3390_9952">
<rect width="24" height="24" fill="white"/>
</clipPath>
</defs>
</svg>
