<svg width="24" height="24" viewBox="0 0 24 24" fill="none" xmlns="http://www.w3.org/2000/svg">
<g clip-path="url(#clip0_3354_2983)">
<rect width="24" height="24" fill="white"/>
<path d="M3 21V3H6.5V21H3ZM21 3V21H17.5V3H21ZM18.225 16.15V19.5H5.775V16.15H18.225ZM18.225 8V11.35H5.775V8H18.225ZM8.025 6.525C8.75833 6.025 9.59167 5.775 10.525 5.775C11.475 5.775 12.3083 6.025 13.025 6.525V8.8H11.525H10.6C10.4 8.8 10.25 8.8 10.15 8.8C10.0667 8.8 9.93333 8.8 9.75 8.8H9.275H8.025V6.525ZM8.025 14.65C8.75833 14.15 9.59167 13.9 10.525 13.9C11.475 13.9 12.3083 14.15 13.025 14.65V16.675H11.525H10.6C10.4 16.675 10.25 16.675 10.15 16.675C10.0667 16.675 9.93333 16.675 9.75 16.675H9.275H8.025V14.65Z" fill="black"/>
</g>
<defs>
<clipPath id="clip0_3354_2983">
<rect width="24" height="24" fill="white"/>
</clipPath>
</defs>
</svg>
