<svg width="24" height="24" viewBox="0 0 24 24" fill="none" xmlns="http://www.w3.org/2000/svg">
<g clip-path="url(#clip0_3192_967)">
<rect width="24" height="24" fill="white"/>
<path d="M9.10049 15.425C8.10049 15.425 7.26716 15.125 6.60049 14.525C5.93382 13.925 5.52549 13.1667 5.37549 12.25L3.55049 1.175H9.35049L11.9755 8.55H17.2255C17.8588 8.55 18.4338 8.7 18.9505 9C19.4838 9.3 19.9005 9.71667 20.2005 10.25C20.5172 10.7833 20.6755 11.3667 20.6755 12C20.6755 12.6167 20.5172 13.1917 20.2005 13.725C19.9005 14.2583 19.4838 14.675 18.9505 14.975C18.4338 15.275 17.8588 15.425 17.2255 15.425H9.10049ZM7.72549 11.775C7.79216 12.1583 7.93382 12.475 8.15049 12.725C8.38382 12.9583 8.72549 13.075 9.17549 13.075H17.2255C17.5088 13.075 17.7505 12.975 17.9505 12.775C18.1505 12.5583 18.2505 12.3 18.2505 12C18.2505 11.6833 18.1505 11.425 17.9505 11.225C17.7505 11.0083 17.5088 10.9 17.2255 10.9H10.2505L7.65049 3.525H6.40049L7.72549 11.775ZM7.97549 13.275H17.7505L19.3755 22.825H16.9255L15.5755 14.85H10.1505L8.80049 22.825H6.35049L7.97549 13.275Z" fill="black"/>
</g>
<defs>
<clipPath id="clip0_3192_967">
<rect width="24" height="24" fill="white"/>
</clipPath>
</defs>
</svg>
