<svg width="24" height="24" viewBox="0 0 24 24" fill="none" xmlns="http://www.w3.org/2000/svg">
<g clip-path="url(#clip0_3192_963)">
<rect width="24" height="24" fill="white"/>
<path d="M8.37549 14.425C7.57549 14.425 6.92549 14.2 6.42549 13.75C5.94216 13.3 5.64216 12.725 5.52549 12.025L3.67549 1H7.62549L10.6005 9.475H18.0505C18.5005 9.475 18.9088 9.58333 19.2755 9.8C19.6588 10.0167 19.9588 10.3167 20.1755 10.7C20.3922 11.0667 20.5005 11.4833 20.5005 11.95C20.5005 12.4 20.3922 12.8167 20.1755 13.2C19.9588 13.5667 19.6588 13.8667 19.2755 14.1C18.9088 14.3167 18.5005 14.425 18.0505 14.425H8.37549ZM6.87549 11.725C6.92549 12.0917 7.07549 12.4083 7.32549 12.675C7.57549 12.925 7.92549 13.05 8.37549 13.05H18.0505C18.3338 13.05 18.5755 12.9417 18.7755 12.725C18.9922 12.5083 19.1005 12.25 19.1005 11.95C19.1005 11.6333 18.9922 11.3667 18.7755 11.15C18.5755 10.9333 18.3338 10.825 18.0505 10.825H9.57549L6.65049 2.35H5.35049L6.87549 11.725ZM8.00049 13.1H17.5505L19.2255 23H17.8005L16.3005 14.075H9.25049L7.75049 23H6.32549L8.00049 13.1Z" fill="black"/>
</g>
<defs>
<clipPath id="clip0_3192_963">
<rect width="24" height="24" fill="white"/>
</clipPath>
</defs>
</svg>
