<svg width="24" height="24" viewBox="0 0 24 24" fill="none" xmlns="http://www.w3.org/2000/svg">
<g clip-path="url(#clip0_3192_967)">
<rect width="24" height="24" fill="white"/>
<path d="M9.10049 15.425C8.10049 15.425 7.26716 15.125 6.60049 14.525C5.93382 13.925 5.52549 13.1667 5.37549 12.25L3.55049 1.175H9.35049L11.9505 8.55H17.2255C17.8588 8.55 18.4338 8.70833 18.9505 9.025C19.4838 9.325 19.9005 9.74167 20.2005 10.275C20.5172 10.7917 20.6755 11.3667 20.6755 12C20.6755 12.6167 20.5172 13.1917 20.2005 13.725C19.9005 14.2417 19.4838 14.6583 18.9505 14.975C18.4338 15.275 17.8588 15.425 17.2255 15.425H9.10049ZM7.70049 11.775C7.76716 12.1417 7.91716 12.45 8.15049 12.7C8.38382 12.95 8.72549 13.075 9.17549 13.075H17.2255C17.5088 13.075 17.7505 12.975 17.9505 12.775C18.1672 12.5583 18.2755 12.3 18.2755 12C18.2755 11.6833 18.1672 11.425 17.9505 11.225C17.7505 11.0083 17.5088 10.9 17.2255 10.9H10.2505L7.67549 3.525H6.37549L7.70049 11.775ZM7.97549 13.275H17.7505L19.3755 22.825H16.9505L15.6005 14.85H10.1255L8.77549 22.825H6.35049L7.97549 13.275Z" fill="black"/>
</g>
<defs>
<clipPath id="clip0_3192_967">
<rect width="24" height="24" fill="white"/>
</clipPath>
</defs>
</svg>
