<svg width="24" height="24" viewBox="0 0 24 24" fill="none" xmlns="http://www.w3.org/2000/svg">
<g clip-path="url(#clip0_3192_45)">
<rect width="24" height="24" fill="white"/>
<path d="M22.5005 11.25C22.5005 10.7667 22.3255 10.3583 21.9755 10.025C21.6422 9.675 21.2338 9.5 20.7505 9.5C20.2672 9.5 19.8505 9.675 19.5005 10.025C19.1672 10.3583 19.0005 10.7667 19.0005 11.25V14H5.00049V11.25C5.00049 10.7667 4.82549 10.3583 4.47549 10.025C4.14216 9.675 3.73382 9.5 3.25049 9.5C2.76716 9.5 2.35049 9.675 2.00049 10.025C1.66716 10.3583 1.50049 10.7667 1.50049 11.25V15.5C1.50049 16.0667 1.69216 16.55 2.07549 16.95C2.45882 17.3333 2.93382 17.525 3.50049 17.525H20.5005C21.0672 17.525 21.5422 17.3333 21.9255 16.95C22.3088 16.55 22.5005 16.0667 22.5005 15.5V11.25ZM20.5005 6.5C20.5005 5.93333 20.3088 5.45833 19.9255 5.075C19.5422 4.675 19.0672 4.475 18.5005 4.475H5.50049C4.93382 4.475 4.45882 4.675 4.07549 5.075C3.69215 5.45833 3.50049 5.93333 3.50049 6.5V9.4H3.00049V6.5C3.00049 6.05 3.10882 5.63333 3.32549 5.25C3.55882 4.86667 3.85882 4.56667 4.22549 4.35C4.60882 4.11667 5.03382 4 5.50049 4H18.5005C18.9505 4 19.3672 4.11667 19.7505 4.35C20.1338 4.56667 20.4338 4.86667 20.6505 5.25C20.8838 5.63333 21.0005 6.05 21.0005 6.5V9.4H20.5005V6.5ZM3.50049 18C3.03382 18 2.60882 17.8917 2.22549 17.675C1.85882 17.4417 1.55882 17.1417 1.32549 16.775C1.10882 16.3917 1.00049 15.9667 1.00049 15.5V11.25C1.00049 10.8333 1.10049 10.4583 1.30049 10.125C1.50049 9.79167 1.76716 9.525 2.10049 9.325C2.45049 9.125 2.83382 9.025 3.25049 9.025C3.66716 9.025 4.04216 9.125 4.37549 9.325C4.72549 9.525 5.00049 9.79167 5.20049 10.125C5.40049 10.4583 5.50049 10.8333 5.50049 11.25V13.525H18.5005V11.25C18.5005 10.8333 18.6005 10.4583 18.8005 10.125C19.0005 9.79167 19.2672 9.525 19.6005 9.325C19.9505 9.125 20.3338 9.025 20.7505 9.025C21.1672 9.025 21.5422 9.125 21.8755 9.325C22.2255 9.525 22.5005 9.79167 22.7005 10.125C22.9005 10.4583 23.0005 10.8333 23.0005 11.25V15.5C23.0005 15.9667 22.8838 16.3917 22.6505 16.775C22.4338 17.1417 22.1338 17.4417 21.7505 17.675C21.3672 17.8917 20.9505 18 20.5005 18H3.50049ZM3.50049 20H3.00049V17.725H3.50049V20ZM21.0005 20H20.5005V17.725H21.0005V20Z" fill="black"/>
</g>
<defs>
<clipPath id="clip0_3192_45">
<rect width="24" height="24" fill="white"/>
</clipPath>
</defs>
</svg>
