<svg width="24" height="24" viewBox="0 0 24 24" fill="none" xmlns="http://www.w3.org/2000/svg">
<g clip-path="url(#clip0_3192_293)">
<rect width="24" height="24" fill="white"/>
<path d="M20.1255 12.225C20.1255 11.9417 20.0255 11.7083 19.8255 11.525C19.6422 11.325 19.4172 11.225 19.1505 11.225C18.8672 11.225 18.6338 11.325 18.4505 11.525C18.2672 11.7083 18.1755 11.9417 18.1755 12.225V13.8H5.82549V12.225C5.82549 11.9417 5.73382 11.7083 5.55049 11.525C5.36716 11.325 5.13382 11.225 4.85049 11.225C4.58382 11.225 4.35049 11.325 4.15049 11.525C3.96716 11.7083 3.87549 11.9417 3.87549 12.225V15.125C3.87549 15.275 3.91716 15.4 4.00049 15.5C4.10049 15.5833 4.21716 15.625 4.35049 15.625H19.6505C19.7838 15.625 19.8922 15.5833 19.9755 15.5C20.0755 15.4 20.1255 15.275 20.1255 15.125V12.225ZM18.1255 7.325C18.1255 7.19167 18.0755 7.075 17.9755 6.975C17.8922 6.875 17.7838 6.825 17.6505 6.825H6.35049C6.21716 6.825 6.10049 6.875 6.00049 6.975C5.91716 7.075 5.87549 7.19167 5.87549 7.325V9.975H3.00049V7.325C3.00049 6.70833 3.14216 6.15 3.42549 5.65C3.72549 5.13333 4.12549 4.73333 4.62549 4.45C5.14216 4.15 5.70882 4 6.32549 4H17.6755C18.2922 4 18.8505 4.15 19.3505 4.45C19.8672 4.73333 20.2672 5.13333 20.5505 5.65C20.8505 6.15 21.0005 6.70833 21.0005 7.325V9.975H18.1255V7.325ZM4.32549 18.475C3.70882 18.475 3.14216 18.325 2.62549 18.025C2.12549 17.725 1.72549 17.325 1.42549 16.825C1.14216 16.325 1.00049 15.775 1.00049 15.175V12.225C1.00049 11.525 1.16716 10.8833 1.50049 10.3C1.85049 9.71667 2.31715 9.25833 2.90049 8.925C3.50049 8.59167 4.15049 8.425 4.85049 8.425C5.55049 8.425 6.19216 8.59167 6.77549 8.925C7.37549 9.25833 7.85049 9.71667 8.20049 10.3C8.55049 10.8833 8.72549 11.525 8.72549 12.225L7.62549 10.95H16.3755L15.2755 12.225C15.2755 11.5083 15.4422 10.8583 15.7755 10.275C16.1255 9.69167 16.5922 9.23333 17.1755 8.9C17.7755 8.55 18.4338 8.375 19.1505 8.375C19.8505 8.375 20.4922 8.55 21.0755 8.9C21.6755 9.23333 22.1422 9.69167 22.4755 10.275C22.8255 10.8583 23.0005 11.5083 23.0005 12.225V15.175C23.0005 15.775 22.8505 16.325 22.5505 16.825C22.2672 17.325 21.8672 17.725 21.3505 18.025C20.8505 18.325 20.2922 18.475 19.6755 18.475H4.32549ZM5.85049 20H3.00049V17.3H5.85049V20ZM21.0005 20H18.1505V17.3H21.0005V20Z" fill="black"/>
</g>
<defs>
<clipPath id="clip0_3192_293">
<rect width="24" height="24" fill="white"/>
</clipPath>
</defs>
</svg>
