<svg width="24" height="24" viewBox="0 0 24 24" fill="none" xmlns="http://www.w3.org/2000/svg">
<g clip-path="url(#clip0_3192_587)">
<rect width="24" height="24" fill="white"/>
<path d="M19.575 11.4H3.825V10H21V21H19.575V11.4ZM14.075 18.275V10.825H15.5V18.275H14.075ZM4.9 3.875C4.58333 4.19167 4.425 4.56667 4.425 5V21H3V5C3 4.16667 3.29167 3.45833 3.875 2.875C4.475 2.29167 5.18333 2 6 2H10V3.4H6C5.58333 3.4 5.21667 3.55833 4.9 3.875ZM3.825 15.775H20.175V19H3.825V15.775ZM7.3 6.625C7.51667 6.84167 7.775 6.95 8.075 6.95C8.35833 6.95 8.60833 6.84167 8.825 6.625C9.04167 6.40833 9.15 6.15833 9.15 5.875C9.15 5.575 9.04167 5.31667 8.825 5.1C8.60833 4.88333 8.35833 4.775 8.075 4.775C7.775 4.775 7.51667 4.88333 7.3 5.1C7.08333 5.31667 6.975 5.575 6.975 5.875C6.975 6.15833 7.08333 6.40833 7.3 6.625ZM11.175 6.625C11.3917 6.84167 11.6417 6.95 11.925 6.95C12.225 6.95 12.4833 6.84167 12.7 6.625C12.9167 6.40833 13.025 6.15833 13.025 5.875C13.025 5.575 12.9167 5.31667 12.7 5.1C12.4833 4.88333 12.225 4.775 11.925 4.775C11.6417 4.775 11.3917 4.88333 11.175 5.1C10.9583 5.31667 10.85 5.575 10.85 5.875C10.85 6.15833 10.9583 6.40833 11.175 6.625ZM8.5 18.275V10.825H9.925V18.275H8.5Z" fill="black"/>
</g>
<defs>
<clipPath id="clip0_3192_587">
<rect width="24" height="24" fill="white"/>
</clipPath>
</defs>
</svg>
