<svg width="24" height="24" viewBox="0 0 24 24" fill="none" xmlns="http://www.w3.org/2000/svg">
<g clip-path="url(#clip0_3192_575)">
<rect width="24" height="24" fill="white"/>
<path d="M19.1505 11.8H4.10049V10H21.0005V21H19.1505V11.8ZM13.7755 18.05V11.1H15.6255V18.05H13.7755ZM5.17549 4.15C4.95882 4.38333 4.85049 4.66667 4.85049 5V21H3.00049V5C3.00049 4.16667 3.29216 3.45833 3.87549 2.875C4.45882 2.29167 5.16716 2 6.00049 2H12.1255V3.8H6.00049C5.68382 3.8 5.40882 3.91667 5.17549 4.15ZM4.10049 17.2H19.9005V19H4.10049V17.2ZM6.90049 7.375C7.18382 7.64167 7.50882 7.775 7.87549 7.775C8.24216 7.775 8.55882 7.64167 8.82549 7.375C9.10882 7.09167 9.25049 6.76667 9.25049 6.4C9.25049 6.03333 9.10882 5.71667 8.82549 5.45C8.55882 5.16667 8.24216 5.025 7.87549 5.025C7.50882 5.025 7.18382 5.16667 6.90049 5.45C6.63382 5.71667 6.50049 6.03333 6.50049 6.4C6.50049 6.76667 6.63382 7.09167 6.90049 7.375ZM11.1505 7.375C11.4338 7.64167 11.7588 7.775 12.1255 7.775C12.4922 7.775 12.8088 7.64167 13.0755 7.375C13.3588 7.09167 13.5005 6.76667 13.5005 6.4C13.5005 6.03333 13.3588 5.71667 13.0755 5.45C12.8088 5.16667 12.4922 5.025 12.1255 5.025C11.7588 5.025 11.4338 5.16667 11.1505 5.45C10.8838 5.71667 10.7505 6.03333 10.7505 6.4C10.7505 6.76667 10.8838 7.09167 11.1505 7.375ZM8.37549 18.05V11.1H10.2255V18.05H8.37549Z" fill="black"/>
</g>
<defs>
<clipPath id="clip0_3192_575">
<rect width="24" height="24" fill="white"/>
</clipPath>
</defs>
</svg>
