<svg width="24" height="24" viewBox="0 0 24 24" fill="none" xmlns="http://www.w3.org/2000/svg">
<g clip-path="url(#clip0_3192_577)">
<rect width="24" height="24" fill="white"/>
<path d="M18.6755 12.425H4.10049V10.175H21.0005V21H18.6755V12.425ZM13.4755 18.05V11.275H15.7505V18.05H13.4755ZM5.52549 4.525C5.37549 4.675 5.30049 4.85833 5.30049 5.075V21H3.00049V5.05C3.00049 4.2 3.29216 3.48333 3.87549 2.9C4.47549 2.3 5.20882 2 6.07549 2H12.6755V4.275H6.10049C5.88382 4.275 5.69216 4.35833 5.52549 4.525ZM4.10049 16.9H19.9005V19.175H4.10049V16.9ZM7.25049 7.925C7.56716 8.225 7.93382 8.375 8.35049 8.375C8.75049 8.375 9.10882 8.225 9.42549 7.925C9.74216 7.60833 9.90049 7.24167 9.90049 6.825C9.90049 6.425 9.74216 6.075 9.42549 5.775C9.10882 5.45833 8.75049 5.3 8.35049 5.3C7.93382 5.3 7.56716 5.45833 7.25049 5.775C6.95049 6.075 6.80049 6.425 6.80049 6.825C6.80049 7.24167 6.95049 7.60833 7.25049 7.925ZM11.5755 7.925C11.8922 8.225 12.2588 8.375 12.6755 8.375C13.0922 8.375 13.4505 8.225 13.7505 7.925C14.0505 7.60833 14.2005 7.24167 14.2005 6.825C14.2005 6.425 14.0422 6.075 13.7255 5.775C13.4255 5.45833 13.0755 5.3 12.6755 5.3C12.2588 5.3 11.8922 5.45833 11.5755 5.775C11.2755 6.075 11.1255 6.425 11.1255 6.825C11.1255 7.24167 11.2755 7.60833 11.5755 7.925ZM8.22549 18.05V11.275H10.5255V18.05H8.22549Z" fill="black"/>
</g>
<defs>
<clipPath id="clip0_3192_577">
<rect width="24" height="24" fill="white"/>
</clipPath>
</defs>
</svg>
