<svg width="24" height="24" viewBox="0 0 24 24" fill="none" xmlns="http://www.w3.org/2000/svg">
<g clip-path="url(#clip0_3192_579)">
<rect width="24" height="24" fill="white"/>
<path d="M18.2255 13.075H4.10049V10.325H21.0005V21H18.2255V13.075ZM13.1755 18.05V11.425H15.9005V18.05H13.1755ZM5.87549 4.85C5.80882 4.93333 5.77549 5.04167 5.77549 5.175V21H3.00049V5.1C3.00049 4.23333 3.30049 3.5 3.90049 2.9C4.51716 2.3 5.25882 2 6.12549 2H13.2255V4.725H6.17549C6.05882 4.725 5.95882 4.76667 5.87549 4.85ZM4.10049 16.6H19.9005V19.325H4.10049V16.6ZM7.62549 8.5C7.95882 8.83333 8.35049 9 8.80049 9C9.26716 9 9.66716 8.83333 10.0005 8.5C10.3505 8.15 10.5255 7.74167 10.5255 7.275C10.5255 6.825 10.3505 6.43333 10.0005 6.1C9.66716 5.75 9.26716 5.575 8.80049 5.575C8.35049 5.575 7.95882 5.75 7.62549 6.1C7.29216 6.43333 7.12549 6.825 7.12549 7.275C7.12549 7.74167 7.29216 8.15 7.62549 8.5ZM12.0005 8.5C12.3505 8.83333 12.7588 9 13.2255 9C13.6755 9 14.0672 8.83333 14.4005 8.5C14.7505 8.15 14.9255 7.74167 14.9255 7.275C14.9255 6.825 14.7505 6.43333 14.4005 6.1C14.0672 5.75 13.6755 5.575 13.2255 5.575C12.7588 5.575 12.3505 5.75 12.0005 6.1C11.6672 6.43333 11.5005 6.825 11.5005 7.275C11.5005 7.74167 11.6672 8.15 12.0005 8.5ZM8.10049 18.05V11.425H10.8005V18.05H8.10049Z" fill="black"/>
</g>
<defs>
<clipPath id="clip0_3192_579">
<rect width="24" height="24" fill="white"/>
</clipPath>
</defs>
</svg>
