<svg width="24" height="24" viewBox="0 0 24 24" fill="none" xmlns="http://www.w3.org/2000/svg">
<g clip-path="url(#clip0_3192_581)">
<rect width="24" height="24" fill="white"/>
<path d="M17.7505 13.7H4.10049V10.5H21.0005V21H17.7505V13.7ZM12.8755 18.05V11.6H16.0255V18.05H12.8755ZM6.22549 5.225C6.22549 5.225 6.22549 5.23333 6.22549 5.25V21H3.00049V5.15C3.00049 4.26667 3.30882 3.525 3.92549 2.925C4.54216 2.30833 5.30049 2 6.20049 2H13.7755V5.2H6.27549C6.25882 5.2 6.24216 5.20833 6.22549 5.225ZM4.10049 16.3H19.9005V19.5H4.10049V16.3ZM7.97549 9.05C8.34216 9.41667 8.77549 9.6 9.27549 9.6C9.77549 9.6 10.2172 9.41667 10.6005 9.05C10.9838 8.66667 11.1755 8.21667 11.1755 7.7C11.1755 7.21667 10.9838 6.79167 10.6005 6.425C10.2172 6.04167 9.77549 5.85 9.27549 5.85C8.77549 5.85 8.34216 6.04167 7.97549 6.425C7.60882 6.79167 7.42549 7.21667 7.42549 7.7C7.42549 8.21667 7.60882 8.66667 7.97549 9.05ZM12.4255 9.05C12.8088 9.41667 13.2588 9.6 13.7755 9.6C14.2755 9.6 14.7088 9.41667 15.0755 9.05C15.4422 8.66667 15.6255 8.21667 15.6255 7.7C15.6255 7.21667 15.4338 6.79167 15.0505 6.425C14.6838 6.04167 14.2588 5.85 13.7755 5.85C13.2588 5.85 12.8088 6.04167 12.4255 6.425C12.0588 6.79167 11.8755 7.21667 11.8755 7.7C11.8755 8.21667 12.0588 8.66667 12.4255 9.05ZM7.95049 18.05V11.6H11.1005V18.05H7.95049Z" fill="black"/>
</g>
<defs>
<clipPath id="clip0_3192_581">
<rect width="24" height="24" fill="white"/>
</clipPath>
</defs>
</svg>
