<svg width="24" height="24" viewBox="0 0 24 24" fill="none" xmlns="http://www.w3.org/2000/svg">
<g clip-path="url(#clip0_3192_1045)">
<rect width="24" height="24" fill="white"/>
<path d="M10.8505 9.025H6.00049V6.775H18.0005V9.025H13.1505V19H10.8505V9.025ZM1.00049 5H3.32549V11H7.25049C7.73382 11 8.14216 11.1667 8.47549 11.5C8.80882 11.8333 8.97549 12.2417 8.97549 12.725V19H6.65049V13.325C6.65049 13.3083 6.64216 13.3 6.62549 13.3C6.62549 13.2833 6.61716 13.275 6.60049 13.275H3.32549V19H1.00049V5ZM15.0255 12.725C15.0255 12.2417 15.1922 11.8333 15.5255 11.5C15.8588 11.1667 16.2672 11 16.7505 11H20.6755V5H23.0005V19H20.6755V13.275H17.3755C17.3588 13.275 17.3422 13.2833 17.3255 13.3C17.3255 13.3 17.3255 13.3083 17.3255 13.325V19H15.0255V12.725Z" fill="black"/>
</g>
<defs>
<clipPath id="clip0_3192_1045">
<rect width="24" height="24" fill="white"/>
</clipPath>
</defs>
</svg>
