<svg width="24" height="24" viewBox="0 0 24 24" fill="none" xmlns="http://www.w3.org/2000/svg">
<g clip-path="url(#clip0_3192_1047)">
<rect width="24" height="24" fill="white"/>
<path d="M10.6005 9.275H6.00049V6.525H18.0005V9.275H13.4005V19H10.6005V9.275ZM1.00049 5H3.77549V11H7.32549C7.77549 11 8.15882 11.1583 8.47549 11.475C8.79216 11.7917 8.95049 12.175 8.95049 12.625V19H6.17549V13.775C6.17549 13.7583 6.16716 13.75 6.15049 13.75C6.15049 13.7333 6.14216 13.725 6.12549 13.725H3.77549V19H1.00049V5ZM15.0255 12.625C15.0255 12.175 15.1838 11.7917 15.5005 11.475C15.8172 11.1583 16.2005 11 16.6505 11H20.2255V5H23.0005V19H20.2255V13.725H17.8755C17.8588 13.725 17.8422 13.7333 17.8255 13.75C17.8255 13.75 17.8255 13.7583 17.8255 13.775V19H15.0255V12.625Z" fill="black"/>
</g>
<defs>
<clipPath id="clip0_3192_1047">
<rect width="24" height="24" fill="white"/>
</clipPath>
</defs>
</svg>
