<svg width="24" height="24" viewBox="0 0 24 24" fill="none" xmlns="http://www.w3.org/2000/svg">
<g clip-path="url(#clip0_3192_1045)">
<rect width="24" height="24" fill="white"/>
<path d="M10.8005 9.425H6.50049V7.1H17.5005V9.425H13.2005V18.5H10.8005V9.425ZM0.000488281 5.5H2.40049V11.325H6.45049C6.93382 11.325 7.34216 11.5 7.67549 11.85C8.00882 12.1833 8.17549 12.5917 8.17549 13.075V18.5H5.80049V13.725C5.80049 13.7083 5.79216 13.7 5.77549 13.7C5.77549 13.6833 5.76716 13.675 5.75049 13.675H2.37549V18.5H0.000488281V5.5ZM15.8005 13.075C15.8005 12.5917 15.9672 12.1833 16.3005 11.85C16.6505 11.5 17.0672 11.325 17.5505 11.325H21.6005V5.5H24.0005V18.5H21.6255V13.65H18.2505C18.2338 13.65 18.2172 13.6583 18.2005 13.675C18.2005 13.675 18.2005 13.6833 18.2005 13.7V18.5H15.8005V13.075Z" fill="black"/>
</g>
<defs>
<clipPath id="clip0_3192_1045">
<rect width="24" height="24" fill="white"/>
</clipPath>
</defs>
</svg>
