<svg width="24" height="24" viewBox="0 0 24 24" fill="none" xmlns="http://www.w3.org/2000/svg">
<g clip-path="url(#clip0_3192_477)">
<rect width="24" height="24" fill="white"/>
<path d="M16.2505 1C17.1672 1 17.9338 1.31667 18.5505 1.95C19.1838 2.56667 19.5005 3.33333 19.5005 4.25V19.75C19.5005 20.6667 19.1838 21.4333 18.5505 22.05C17.9338 22.6833 17.1672 23 16.2505 23H7.75049C6.83382 23 6.05882 22.6833 5.42549 22.05C4.80882 21.4333 4.50049 20.6667 4.50049 19.75V4.25C4.50049 3.33333 4.80882 2.56667 5.42549 1.95C6.05882 1.31667 6.83382 1 7.75049 1H16.2505ZM15.8255 19.45C15.8422 19.45 15.8588 19.4417 15.8755 19.425C15.8922 19.4083 15.9005 19.3917 15.9005 19.375V4.625C15.9005 4.60833 15.8922 4.59167 15.8755 4.575C15.8588 4.55833 15.8422 4.55 15.8255 4.55H8.17549C8.15882 4.55 8.14216 4.55833 8.12549 4.575C8.10882 4.59167 8.10049 4.60833 8.10049 4.625V19.375C8.10049 19.3917 8.10882 19.4083 8.12549 19.425C8.14216 19.4417 8.15882 19.45 8.17549 19.45H15.8255ZM17.0005 12.2H7.00049V8.7H17.0005V12.2ZM10.7505 22.1H10.5005H10.7505ZM10.7505 1.6H10.5005H10.7505Z" fill="black"/>
</g>
<defs>
<clipPath id="clip0_3192_477">
<rect width="24" height="24" fill="white"/>
</clipPath>
</defs>
</svg>
