<svg width="24" height="24" viewBox="0 0 24 24" fill="none" xmlns="http://www.w3.org/2000/svg">
<g clip-path="url(#clip0_3192_529)">
<rect width="24" height="24" fill="white"/>
<path d="M6.02549 16.525H17.7255H17.9755H6.02549ZM21.0005 21H17.4255V17.825H6.57549V21H3.00049V14.3H21.0005V21ZM21.0005 6.525H18.5005V8.225C18.5005 8.99167 18.3172 9.69167 17.9505 10.325C17.5838 10.9417 17.0755 11.4333 16.4255 11.8C15.7922 12.1667 15.1005 12.35 14.3505 12.35C14.1005 12.35 13.9172 12.35 13.8005 12.35C13.6838 12.35 13.5088 12.35 13.2755 12.35H12.8755V8.95H13.6255C13.7922 8.95 13.9088 8.95 13.9755 8.95C14.0588 8.95 14.1838 8.95 14.3505 8.95C14.5505 8.95 14.7088 8.88333 14.8255 8.75C14.9588 8.6 15.0255 8.425 15.0255 8.225V6.525H10.8755V8.225C10.8755 8.99167 10.6922 9.69167 10.3255 10.325C9.95882 10.9417 9.45049 11.4333 8.80049 11.8C8.16716 12.1667 7.47549 12.35 6.72549 12.35C6.50882 12.35 6.34216 12.35 6.22549 12.35C6.12549 12.35 5.96716 12.35 5.75049 12.35H5.25049V8.95H5.75049C5.96716 8.95 6.12549 8.95 6.22549 8.95C6.34216 8.95 6.50882 8.95 6.72549 8.95C6.92549 8.95 7.08382 8.88333 7.20049 8.75C7.33382 8.6 7.40049 8.425 7.40049 8.225V6.525H3.00049V3H21.0005V6.525Z" fill="black"/>
</g>
<defs>
<clipPath id="clip0_3192_529">
<rect width="24" height="24" fill="white"/>
</clipPath>
</defs>
</svg>
