<svg width="24" height="24" viewBox="0 0 24 24" fill="none" xmlns="http://www.w3.org/2000/svg">
<g clip-path="url(#clip0_3192_541)">
<rect width="24" height="24" fill="white"/>
<path d="M21 21H18.175V17.475H5.825V21H3V14.075H21V21ZM21 5.775H18.325V7.525C18.325 8.175 18.1667 8.76667 17.85 9.3C17.55 9.81667 17.125 10.2333 16.575 10.55C16.0417 10.85 15.45 11 14.8 11C14.6333 11 14.5083 11 14.425 11C14.3583 11 14.2417 11 14.075 11H13.325V8.25H14.075C14.2417 8.25 14.3583 8.25 14.425 8.25C14.5083 8.25 14.6333 8.25 14.8 8.25C15 8.25 15.1667 8.18333 15.3 8.05C15.45 7.9 15.525 7.725 15.525 7.525V5.775H10.425V7.525C10.425 8.175 10.2667 8.76667 9.95 9.3C9.65 9.81667 9.225 10.2333 8.675 10.55C8.125 10.85 7.53333 11 6.9 11C6.68333 11 6.51667 11 6.4 11C6.3 11 6.14167 11 5.925 11H5.425V8.25H5.925C6.14167 8.25 6.3 8.25 6.4 8.25C6.51667 8.25 6.68333 8.25 6.9 8.25C7.1 8.25 7.26667 8.18333 7.4 8.05C7.55 7.9 7.625 7.725 7.625 7.525V5.775H3V3H21V5.775Z" fill="black"/>
</g>
<defs>
<clipPath id="clip0_3192_541">
<rect width="24" height="24" fill="white"/>
</clipPath>
</defs>
</svg>
