<svg width="24" height="24" viewBox="0 0 24 24" fill="none" xmlns="http://www.w3.org/2000/svg">
<g clip-path="url(#clip0_3192_533)">
<rect width="24" height="24" fill="white"/>
<path d="M21 21H20V17.025H4V21H3V13.675H21V21ZM21 5.575H17.775V8.65C17.775 9.08333 17.6667 9.475 17.45 9.825C17.25 10.175 16.975 10.45 16.625 10.65C16.275 10.85 15.8833 10.95 15.45 10.95C14.8 10.95 14.25 10.7333 13.8 10.3C13.35 9.85 13.125 9.3 13.125 8.65V8.125H14.075V8.65C14.075 9.03333 14.2083 9.36667 14.475 9.65C14.7417 9.91667 15.0667 10.05 15.45 10.05C15.8333 10.05 16.1583 9.91667 16.425 9.65C16.6917 9.36667 16.825 9.03333 16.825 8.65V5.575H9.775V8.65C9.775 9.08333 9.66667 9.475 9.45 9.825C9.25 10.175 8.975 10.45 8.625 10.65C8.275 10.85 7.88333 10.95 7.45 10.95C6.8 10.95 6.25 10.7333 5.8 10.3C5.35 9.85 5.125 9.3 5.125 8.65V8.125H6.075V8.65C6.075 9.03333 6.20833 9.36667 6.475 9.65C6.74167 9.91667 7.06667 10.05 7.45 10.05C7.83333 10.05 8.15833 9.91667 8.425 9.65C8.69167 9.36667 8.825 9.03333 8.825 8.65V5.575H3V3H21V5.575Z" fill="black"/>
</g>
<defs>
<clipPath id="clip0_3192_533">
<rect width="24" height="24" fill="white"/>
</clipPath>
</defs>
</svg>
