<svg width="24" height="24" viewBox="0 0 24 24" fill="none" xmlns="http://www.w3.org/2000/svg">
<g clip-path="url(#clip0_3192_543)">
<rect width="24" height="24" fill="white"/>
<path d="M21 21H17.5V17.7H6.5V21H3V14.25H21V21ZM21 6.4H18.5V8.2C18.5 8.95 18.3167 9.64167 17.95 10.275C17.5833 10.8917 17.0833 11.3833 16.45 11.75C15.8167 12.1 15.125 12.275 14.375 12.275C14.1417 12.275 13.9667 12.275 13.85 12.275C13.75 12.275 13.5833 12.275 13.35 12.275H12.9V8.925H13.65C13.8167 8.925 13.9333 8.925 14 8.925C14.0833 8.925 14.2083 8.925 14.375 8.925C14.575 8.925 14.7417 8.85833 14.875 8.725C15.025 8.575 15.1 8.4 15.1 8.2V6.4H10.85V8.2C10.85 8.95 10.6667 9.64167 10.3 10.275C9.95 10.8917 9.45833 11.3833 8.825 11.75C8.19167 12.1 7.49167 12.275 6.725 12.275C6.50833 12.275 6.34167 12.275 6.225 12.275C6.125 12.275 5.96667 12.275 5.75 12.275H5.25V8.925H5.75C5.96667 8.925 6.125 8.925 6.225 8.925C6.34167 8.925 6.50833 8.925 6.725 8.925C6.925 8.925 7.09167 8.85833 7.225 8.725C7.375 8.575 7.45 8.4 7.45 8.2V6.4H3V3H21V6.4Z" fill="black"/>
</g>
<defs>
<clipPath id="clip0_3192_543">
<rect width="24" height="24" fill="white"/>
</clipPath>
</defs>
</svg>
