<svg width="24" height="24" viewBox="0 0 24 24" fill="none" xmlns="http://www.w3.org/2000/svg">
<g clip-path="url(#clip0_3390_9920)">
<rect width="24" height="24" fill="white"/>
<path d="M3.00049 7.25L12.0005 2.05L21.0005 7.25V21H3.00049V7.25ZM19.1005 19.15V8.3L12.0005 4.175L4.90049 8.3V19.15H19.1005ZM16.4005 12.95C15.8172 12.3667 15.1505 11.9083 14.4005 11.575C13.6505 11.2417 12.8505 11.075 12.0005 11.075C11.1505 11.075 10.3505 11.2417 9.60049 11.575C8.85049 11.9083 8.18382 12.3667 7.60049 12.95L6.35049 11.725C7.08382 10.975 7.93382 10.3917 8.90049 9.975C9.88382 9.54167 10.9172 9.325 12.0005 9.325C13.0838 9.325 14.1088 9.54167 15.0755 9.975C16.0588 10.3917 16.9172 10.975 17.6505 11.725L16.4005 12.95ZM13.6005 15.775C13.1505 15.325 12.6172 15.1 12.0005 15.1C11.3838 15.1 10.8505 15.325 10.4005 15.775L9.17549 14.55C9.54216 14.1667 9.96716 13.875 10.4505 13.675C10.9338 13.4583 11.4505 13.35 12.0005 13.35C12.5505 13.35 13.0672 13.4583 13.5505 13.675C14.0338 13.875 14.4588 14.1667 14.8255 14.55L13.6005 15.775Z" fill="black"/>
</g>
<defs>
<clipPath id="clip0_3390_9920">
<rect width="24" height="24" fill="white"/>
</clipPath>
</defs>
</svg>
