<svg width="24" height="24" viewBox="0 0 24 24" fill="none" xmlns="http://www.w3.org/2000/svg">
<g clip-path="url(#clip0_3192_403)">
<rect width="24" height="24" fill="white"/>
<path d="M21 21H3V7.25L12 2.05L21 7.25V21ZM8.825 10.325C7.825 10.7583 6.95 11.35 6.2 12.1L6.875 12.75C7.54167 12.0833 8.31667 11.5583 9.2 11.175C10.0833 10.775 11.0167 10.575 12 10.575C12.9833 10.575 13.9167 10.775 14.8 11.175C15.6833 11.5583 16.4583 12.0833 17.125 12.75L17.8 12.1C17.05 11.35 16.175 10.7583 15.175 10.325C14.175 9.875 13.1167 9.65 12 9.65C10.8833 9.65 9.825 9.875 8.825 10.325ZM10.575 14.55C10.125 14.7333 9.73333 15 9.4 15.35L10.05 16C10.3167 15.7333 10.6167 15.5333 10.95 15.4C11.2833 15.25 11.6333 15.175 12 15.175C12.3667 15.175 12.7167 15.25 13.05 15.4C13.3833 15.5333 13.6833 15.7333 13.95 16L14.6 15.35C14.2667 15 13.875 14.7333 13.425 14.55C12.975 14.35 12.5 14.25 12 14.25C11.5 14.25 11.025 14.35 10.575 14.55Z" fill="black"/>
</g>
<defs>
<clipPath id="clip0_3192_403">
<rect width="24" height="24" fill="white"/>
</clipPath>
</defs>
</svg>
