<svg width="24" height="24" viewBox="0 0 24 24" fill="none" xmlns="http://www.w3.org/2000/svg">
<g clip-path="url(#clip0_3390_9922)">
<rect width="24" height="24" fill="white"/>
<path d="M3.00049 7.25L12.0005 2.05L21.0005 7.25V21H3.00049V7.25ZM18.5255 18.575V8.625L12.0005 4.85L5.47549 8.625V18.575H18.5255ZM16.4005 13.075C15.8172 12.4917 15.1505 12.0333 14.4005 11.7C13.6505 11.3667 12.8505 11.2 12.0005 11.2C11.1505 11.2 10.3505 11.3667 9.60049 11.7C8.85049 12.0333 8.18382 12.4917 7.60049 13.075L6.22549 11.725C6.97549 10.975 7.85049 10.3833 8.85049 9.95C9.85049 9.5 10.9005 9.275 12.0005 9.275C13.1005 9.275 14.1505 9.5 15.1505 9.95C16.1505 10.3833 17.0255 10.975 17.7755 11.725L16.4005 13.075ZM13.6005 15.9C13.1505 15.45 12.6172 15.225 12.0005 15.225C11.3838 15.225 10.8505 15.45 10.4005 15.9L9.05049 14.55C9.43382 14.15 9.87549 13.8417 10.3755 13.625C10.8922 13.4083 11.4338 13.3 12.0005 13.3C12.5672 13.3 13.1005 13.4083 13.6005 13.625C14.1172 13.8417 14.5672 14.15 14.9505 14.55L13.6005 15.9Z" fill="black"/>
</g>
<defs>
<clipPath id="clip0_3390_9922">
<rect width="24" height="24" fill="white"/>
</clipPath>
</defs>
</svg>
