<svg width="24" height="24" viewBox="0 0 24 24" fill="none" xmlns="http://www.w3.org/2000/svg">
<g clip-path="url(#clip0_3390_9924)">
<rect width="24" height="24" fill="white"/>
<path d="M3.00049 7.25L12.0005 2.05L21.0005 7.25V21H3.00049V7.25ZM18.0255 18.075V8.9L12.0005 5.425L5.97549 8.9V18.075H18.0255ZM13.4755 14C13.1755 14.2833 12.9255 14.525 12.7255 14.725C12.5255 14.9083 12.2838 15.1333 12.0005 15.4C11.6172 15.0167 11.3255 14.7333 11.1255 14.55C10.9422 14.3667 10.6672 14.0833 10.3005 13.7L8.32549 11.725C8.79216 11.225 9.34216 10.8417 9.97549 10.575C10.6088 10.2917 11.2838 10.15 12.0005 10.15C12.7172 10.15 13.3922 10.2917 14.0255 10.575C14.6588 10.8417 15.2088 11.225 15.6755 11.725L13.4755 14ZM13.2005 11.975C12.8005 11.975 12.4005 11.975 12.0005 11.975C11.6005 11.975 11.2005 11.975 10.8005 11.975H10.2505C10.6505 11.975 10.9422 11.975 11.1255 11.975C11.3255 11.975 11.6172 11.975 12.0005 11.975C12.4005 11.975 12.6922 11.975 12.8755 11.975C13.0755 11.975 13.3672 11.975 13.7505 11.975H13.2005Z" fill="black"/>
</g>
<defs>
<clipPath id="clip0_3390_9924">
<rect width="24" height="24" fill="white"/>
</clipPath>
</defs>
</svg>
