<svg width="24" height="24" viewBox="0 0 24 24" fill="none" xmlns="http://www.w3.org/2000/svg">
<g clip-path="url(#clip0_3390_9859)">
<rect width="24" height="24" fill="white"/>
<path d="M7.80049 22C6.91716 22 6.16716 21.7333 5.55049 21.2C4.95049 20.6833 4.60882 20.0083 4.52549 19.175L4.00049 13H20.0005L19.4755 19.175C19.3922 20.0083 19.0422 20.6833 18.4255 21.2C17.8255 21.7333 17.0838 22 16.2005 22H7.80049ZM16.0505 18.7C16.0838 18.7 16.1088 18.6917 16.1255 18.675C16.1588 18.6417 16.1755 18.6083 16.1755 18.575L16.5005 14.2L19.0755 16.3H4.92549L7.50049 14.2L7.82549 18.575C7.82549 18.6083 7.83382 18.6417 7.85049 18.675C7.88382 18.6917 7.91716 18.7 7.95049 18.7H16.0505ZM8.95049 10.425C8.03382 10.425 7.20049 10.2167 6.45049 9.8C5.70049 9.36667 5.10049 8.78333 4.65049 8.05C4.21716 7.31667 4.00049 6.50833 4.00049 5.625V1.5H8.70049C9.48382 1.5 10.2005 1.71667 10.8505 2.15C11.5005 2.56667 12.0088 3.14167 12.3755 3.875C12.7588 4.60833 12.9505 5.41667 12.9505 6.3L12.9005 10.425H8.95049ZM7.10049 5.6C7.10049 5.91667 7.18382 6.21667 7.35049 6.5C7.53382 6.76667 7.76716 6.98333 8.05049 7.15C8.33382 7.3 8.63382 7.375 8.95049 7.375H10.5005V6.325C10.5005 6.00833 10.4088 5.71667 10.2255 5.45C10.0588 5.16667 9.83382 4.95 9.55049 4.8C9.26716 4.63333 8.96716 4.55 8.65049 4.55H7.10049V5.6ZM11.0505 7.8C11.0505 6.91667 11.2338 6.10833 11.6005 5.375C11.9838 4.64167 12.5005 4.06667 13.1505 3.65C13.8005 3.21667 14.5172 3 15.3005 3H20.0005V7.125C20.0005 8.00833 19.7755 8.81667 19.3255 9.55C18.8922 10.2833 18.3005 10.8667 17.5505 11.3C16.8005 11.7167 15.9672 11.925 15.0505 11.925H11.1005L11.0505 7.8ZM15.3505 6.05C15.0338 6.05 14.7338 6.13333 14.4505 6.3C14.1672 6.45 13.9338 6.66667 13.7505 6.95C13.5838 7.21667 13.5005 7.50833 13.5005 7.825V8.875H15.0505C15.3672 8.875 15.6672 8.8 15.9505 8.65C16.2338 8.48333 16.4588 8.26667 16.6255 8C16.8088 7.71667 16.9005 7.41667 16.9005 7.1V6.05H15.3505ZM13.5005 9.6L13.6005 14.6H10.4505V9.6H13.5005Z" fill="black"/>
</g>
<defs>
<clipPath id="clip0_3390_9859">
<rect width="24" height="24" fill="white"/>
</clipPath>
</defs>
</svg>
