<svg width="24" height="24" viewBox="0 0 24 24" fill="none" xmlns="http://www.w3.org/2000/svg">
<g clip-path="url(#clip0_3390_9853)">
<rect width="24" height="24" fill="white"/>
<path d="M7.72549 22C6.85882 22 6.12549 21.725 5.52549 21.175C4.94216 20.625 4.60882 19.9167 4.52549 19.05L4.00049 13H20.0005L19.4755 19.05C19.3922 19.9167 19.0505 20.625 18.4505 21.175C17.8672 21.725 17.1422 22 16.2755 22H7.72549ZM16.2755 20.2C16.6422 20.2 16.9505 20.075 17.2005 19.825C17.4505 19.5583 17.5922 19.2417 17.6255 18.875L18.0755 13.75L19.0755 14.8H4.92549L5.92549 13.75L6.37549 18.875C6.40882 19.2417 6.55049 19.5583 6.80049 19.825C7.05049 20.075 7.35882 20.2 7.72549 20.2H16.2755ZM9.07549 10C8.14216 10 7.28382 9.775 6.50049 9.325C5.73382 8.875 5.12549 8.25833 4.67549 7.475C4.22549 6.69167 4.00049 5.825 4.00049 4.875V1.5H7.82549C8.72549 1.5 9.54216 1.73333 10.2755 2.2C11.0255 2.66667 11.6088 3.3 12.0255 4.1C12.4588 4.9 12.6672 5.78333 12.6505 6.75L12.6005 10H9.07549ZM5.80049 4.875C5.80049 5.50833 5.94216 6.08333 6.22549 6.6C6.52549 7.11667 6.91716 7.525 7.40049 7.825C7.90049 8.10833 8.45882 8.25 9.07549 8.25H11.1505V6.75C11.1505 6.1 11.0005 5.50833 10.7005 4.975C10.4172 4.44167 10.0172 4.025 9.50049 3.725C9.00049 3.40833 8.44216 3.25 7.82549 3.25H5.80049V4.875ZM11.3505 8.175C11.3338 7.225 11.5338 6.35833 11.9505 5.575C12.3838 4.775 12.9672 4.15 13.7005 3.7C14.4505 3.23333 15.2755 3 16.1755 3H20.0005V6C20.0005 6.95 19.7755 7.80833 19.3255 8.575C18.8755 9.325 18.2588 9.91667 17.4755 10.35C16.7088 10.7833 15.8588 11 14.9255 11H11.4005L11.3505 8.175ZM16.1755 4.75C15.5588 4.75 14.9922 4.9 14.4755 5.2C13.9755 5.5 13.5755 5.91667 13.2755 6.45C12.9922 6.96667 12.8505 7.54167 12.8505 8.175V9.25H14.9255C15.5422 9.25 16.1005 9.11667 16.6005 8.85C17.1005 8.56667 17.4922 8.18333 17.7755 7.7C18.0588 7.2 18.2005 6.63333 18.2005 6V4.75H16.1755ZM12.9255 10.075V14.15H11.0755V8.6L12.9255 10.075Z" fill="black"/>
</g>
<defs>
<clipPath id="clip0_3390_9853">
<rect width="24" height="24" fill="white"/>
</clipPath>
</defs>
</svg>
