<svg width="24" height="24" viewBox="0 0 24 24" fill="none" xmlns="http://www.w3.org/2000/svg">
<g clip-path="url(#clip0_3192_757)">
<rect width="24" height="24" fill="white"/>
<path d="M12.0005 7.9L9.25049 5.15V3.7H6.75049V5.15L4.00049 7.9L3.72549 7.3H12.2755L12.0005 7.9ZM3.00049 9V6.5L5.00049 4.5V2H11.0005V4.5L13.0005 6.5V9H3.00049ZM12.8755 15.675H19.2505V13.7H12.8755V15.675ZM12.8755 19.3H19.2505V17.325H12.8755V19.3ZM4.75049 19.3H11.1255V13.7H4.75049V19.3ZM18.0005 5C18.5838 5 19.1005 5.13333 19.5505 5.4C20.0005 5.65 20.3505 6 20.6005 6.45C20.8672 6.9 21.0005 7.41667 21.0005 8V21H3.00049V12H19.2505V8C19.2505 7.61667 19.1338 7.30833 18.9005 7.075C18.6672 6.825 18.3672 6.7 18.0005 6.7C17.6338 6.7 17.3338 6.825 17.1005 7.075C16.8672 7.30833 16.7505 7.61667 16.7505 8V9H15.0005V8C15.0005 7.41667 15.1255 6.9 15.3755 6.45C15.6422 6 16.0005 5.65 16.4505 5.4C16.9005 5.13333 17.4172 5 18.0005 5Z" fill="black"/>
</g>
<defs>
<clipPath id="clip0_3192_757">
<rect width="24" height="24" fill="white"/>
</clipPath>
</defs>
</svg>
