<svg width="24" height="24" viewBox="0 0 24 24" fill="none" xmlns="http://www.w3.org/2000/svg">
<g clip-path="url(#clip0_3192_35)">
<rect width="24" height="24" fill="white"/>
<path d="M6.50049 13C6.50049 12.0167 6.74216 11.1 7.22549 10.25C7.72549 9.4 8.40049 8.73333 9.25049 8.25C10.1005 7.75 11.0172 7.5 12.0005 7.5C12.9838 7.5 13.9005 7.75 14.7505 8.25C15.6005 8.73333 16.2672 9.4 16.7505 10.25C17.2505 11.1 17.5005 12.0167 17.5005 13C17.5005 13.9833 17.2505 14.9 16.7505 15.75C16.2672 16.6 15.6005 17.275 14.7505 17.775C13.9005 18.2583 12.9838 18.5 12.0005 18.5C11.0172 18.5 10.1005 18.2583 9.25049 17.775C8.40049 17.275 7.72549 16.6 7.22549 15.75C6.74216 14.9 6.50049 13.9833 6.50049 13ZM4.50049 21.525H19.5005V2.475H4.50049V21.525ZM20.0005 2V22H4.00049V2H20.0005ZM7.00049 13C7.00049 13.9 7.22549 14.7417 7.67549 15.525C8.12549 16.2917 8.73382 16.9 9.50049 17.35C10.2672 17.8 11.1005 18.025 12.0005 18.025C12.9005 18.025 13.7338 17.8 14.5005 17.35C15.2672 16.9 15.8755 16.2917 16.3255 15.525C16.7755 14.7417 17.0005 13.9 17.0005 13C17.0005 12.1 16.7755 11.2667 16.3255 10.5C15.8755 9.71667 15.2672 9.1 14.5005 8.65C13.7338 8.2 12.9005 7.975 12.0005 7.975C11.1005 7.975 10.2672 8.2 9.50049 8.65C8.73382 9.1 8.12549 9.71667 7.67549 10.5C7.22549 11.2667 7.00049 12.1 7.00049 13ZM17.2755 13.225H14.3005C14.2172 13.225 14.1505 13.2083 14.1005 13.175C14.0672 13.125 14.0505 13.0667 14.0505 13C14.0505 12.9167 14.0755 12.8583 14.1255 12.825C14.1755 12.775 14.2338 12.75 14.3005 12.75H17.2755V13.225ZM7.00049 5.5C6.86716 5.5 6.75049 5.45 6.65049 5.35C6.55049 5.25 6.50049 5.13333 6.50049 5C6.50049 4.86667 6.55049 4.75 6.65049 4.65C6.75049 4.55 6.86716 4.5 7.00049 4.5C7.13382 4.5 7.25049 4.55 7.35049 4.65C7.45049 4.75 7.50049 4.86667 7.50049 5C7.50049 5.13333 7.45049 5.25 7.35049 5.35C7.25049 5.45 7.13382 5.5 7.00049 5.5Z" fill="black"/>
</g>
<defs>
<clipPath id="clip0_3192_35">
<rect width="24" height="24" fill="white"/>
</clipPath>
</defs>
</svg>
