<svg width="24" height="24" viewBox="0 0 24 24" fill="none" xmlns="http://www.w3.org/2000/svg">
<g clip-path="url(#clip0_3192_165)">
<rect width="24" height="24" fill="white"/>
<path d="M8.25049 14C8.25049 13.3 8.40882 12.6667 8.72549 12.1C9.05882 11.5167 9.50882 11.0667 10.0755 10.75C10.6588 10.4167 11.3005 10.25 12.0005 10.25C12.7005 10.25 13.3338 10.4167 13.9005 10.75C14.4838 11.0667 14.9338 11.5167 15.2505 12.1C15.5838 12.6667 15.7505 13.3 15.7505 14C15.7505 14.7 15.5838 15.3417 15.2505 15.925C14.9338 16.4917 14.4838 16.9417 13.9005 17.275C13.3338 17.5917 12.7005 17.75 12.0005 17.75C11.3005 17.75 10.6588 17.5917 10.0755 17.275C9.50882 16.9417 9.05882 16.4917 8.72549 15.925C8.40882 15.3417 8.25049 14.7 8.25049 14ZM7.50049 18.55H16.5005V5.45H7.50049V18.55ZM20.0005 2V22H4.00049V2H20.0005ZM10.8755 14C10.8755 14.2167 10.9255 14.4083 11.0255 14.575C11.1255 14.7417 11.2588 14.875 11.4255 14.975C11.6088 15.075 11.8005 15.125 12.0005 15.125C12.2172 15.125 12.4088 15.075 12.5755 14.975C12.7422 14.875 12.8755 14.7417 12.9755 14.575C13.0755 14.3917 13.1255 14.2 13.1255 14C13.1255 13.7833 13.0755 13.5917 12.9755 13.425C12.8755 13.2417 12.7422 13.1 12.5755 13C12.4088 12.9 12.2172 12.85 12.0005 12.85C11.8005 12.85 11.6088 12.9 11.4255 13C11.2588 13.1 11.1255 13.2417 11.0255 13.425C10.9255 13.5917 10.8755 13.7833 10.8755 14ZM14.5255 15.2C14.5255 14.9333 14.5255 14.7333 14.5255 14.6C14.5255 14.4667 14.5255 14.2667 14.5255 14C14.5255 13.7333 14.5255 13.5333 14.5255 13.4C14.5255 13.2667 14.5255 13.0667 14.5255 12.8V15.2ZM10.0505 9.6C9.61716 9.6 9.24216 9.44167 8.92549 9.125C8.60882 8.80833 8.45049 8.43333 8.45049 8C8.45049 7.56667 8.60882 7.19167 8.92549 6.875C9.24216 6.55833 9.61716 6.4 10.0505 6.4C10.4838 6.4 10.8588 6.55833 11.1755 6.875C11.4922 7.19167 11.6505 7.56667 11.6505 8C11.6505 8.43333 11.4922 8.80833 11.1755 9.125C10.8588 9.44167 10.4838 9.6 10.0505 9.6Z" fill="black"/>
</g>
<defs>
<clipPath id="clip0_3192_165">
<rect width="24" height="24" fill="white"/>
</clipPath>
</defs>
</svg>
