<svg width="24" height="24" viewBox="0 0 24 24" fill="none" xmlns="http://www.w3.org/2000/svg">
<g clip-path="url(#clip0_3192_691)">
<rect width="24" height="24" fill="white"/>
<path d="M12 4.925C10.25 4.925 8.73333 5.09167 7.45 5.425C6.16667 5.75833 5.175 6.23333 4.475 6.85C3.775 7.46667 3.425 8.18333 3.425 9H20.575C20.575 8.18333 20.225 7.46667 19.525 6.85C18.825 6.23333 17.8333 5.75833 16.55 5.425C15.2667 5.09167 13.75 4.925 12 4.925ZM23.5 10.4H22V20H2V10.4H0.5V9H2C2 7.88333 2.4 6.91667 3.2 6.1C4.01667 5.26667 5.175 4.63333 6.675 4.2C8.19167 3.75 9.96667 3.525 12 3.525C14.0333 3.525 15.8 3.75 17.3 4.2C18.8167 4.63333 19.975 5.26667 20.775 6.1C21.5917 6.91667 22 7.88333 22 9H23.5V10.4ZM11.225 2.75C11.225 2.53333 11.2917 2.35833 11.425 2.225C11.575 2.075 11.7583 2 11.975 2C12.1917 2 12.3667 2.075 12.5 2.225C12.65 2.35833 12.725 2.53333 12.725 2.75V4.25H11.225V2.75Z" fill="black"/>
</g>
<defs>
<clipPath id="clip0_3192_691">
<rect width="24" height="24" fill="white"/>
</clipPath>
</defs>
</svg>
