<svg width="24" height="24" viewBox="0 0 24 24" fill="none" xmlns="http://www.w3.org/2000/svg">
<g clip-path="url(#clip0_3390_9784)">
<rect width="24" height="24" fill="white"/>
<path d="M2.00049 9.25C2.61716 8.16667 3.42549 7.175 4.42549 6.275C5.44216 5.375 6.60049 4.65 7.90049 4.1C9.21716 3.55 10.6005 3.275 12.0505 3.275C13.5172 3.275 14.8922 3.55 16.1755 4.1C17.4755 4.63333 18.6172 5.35 19.6005 6.25C20.5838 7.15 21.3838 8.15 22.0005 9.25V11H2.00049V9.25ZM12.0505 4.6C10.7505 4.6 9.51716 4.85 8.35049 5.35C7.18382 5.85 6.14215 6.525 5.22549 7.375C4.32549 8.225 3.58382 9.16667 3.00049 10.2L2.80049 9.675H21.2005L20.9755 10.15C20.3922 9.11667 19.6588 8.18333 18.7755 7.35C17.8922 6.51667 16.8755 5.85 15.7255 5.35C14.5755 4.85 13.3505 4.6 12.0505 4.6ZM12.7255 1.5V3.675H11.3755V1.5H12.7255ZM20.0005 13L21.4005 21H20.0255L18.6255 13H20.0005ZM5.37549 13L3.97549 21H2.60049L4.00049 13H5.37549ZM10.2505 13L9.77549 21H8.40049L8.87549 13H10.2505ZM15.1255 13L15.6005 21H14.2255L13.7505 13H15.1255Z" fill="black"/>
</g>
<defs>
<clipPath id="clip0_3390_9784">
<rect width="24" height="24" fill="white"/>
</clipPath>
</defs>
</svg>
