<svg width="24" height="24" viewBox="0 0 24 24" fill="none" xmlns="http://www.w3.org/2000/svg">
<g clip-path="url(#clip0_3390_9800)">
<rect width="24" height="24" fill="white"/>
<path d="M2 9.35C2.71667 8.15 3.56667 7.1 4.55 6.2C5.55 5.28333 6.68333 4.56667 7.95 4.05C9.21667 3.53333 10.5833 3.275 12.05 3.275C13.55 3.275 14.9167 3.53333 16.15 4.05C17.4 4.55 18.5 5.25833 19.45 6.175C20.4167 7.075 21.2667 8.13333 22 9.35V11H2V9.35ZM20 13L21.4 21H19.575L18.175 13H20ZM5.825 13L4.425 21H2.6L4 13H5.825ZM10.55 13L10.075 21H8.275L8.75 13H10.55ZM15.25 13L15.725 21H13.925L13.45 13H15.25ZM12.95 1.5V3.75H11.15V1.5H12.95Z" fill="black"/>
</g>
<defs>
<clipPath id="clip0_3390_9800">
<rect width="24" height="24" fill="white"/>
</clipPath>
</defs>
</svg>
