<svg width="24" height="24" viewBox="0 0 24 24" fill="none" xmlns="http://www.w3.org/2000/svg">
<g clip-path="url(#clip0_3390_9788)">
<rect width="24" height="24" fill="white"/>
<path d="M2.00049 8.4C2.73382 7.43333 3.60882 6.56667 4.62549 5.8C5.65882 5.03333 6.80882 4.425 8.07549 3.975C9.34216 3.50833 10.6672 3.275 12.0505 3.275C13.4672 3.275 14.8005 3.5 16.0505 3.95C17.3005 4.4 18.4172 5.01667 19.4005 5.8C20.4005 6.56667 21.2672 7.43333 22.0005 8.4V11.55H2.00049V8.4ZM12.0505 5.6C10.9505 5.6 9.89216 5.78333 8.87549 6.15C7.85882 6.51667 6.91716 7.025 6.05049 7.675C5.18382 8.325 4.41716 9.08333 3.75049 9.95L3.70049 9.225H20.3005L20.2505 9.925C19.5672 9.075 18.8005 8.325 17.9505 7.675C17.1172 7.025 16.2005 6.51667 15.2005 6.15C14.2005 5.78333 13.1505 5.6 12.0505 5.6ZM13.2255 1.5V3.675H10.8755V1.5H13.2255ZM20.5005 13.55L21.7755 21H19.3505L18.1005 13.55H20.5005ZM5.90049 13.55L4.65049 21H2.22549L3.50049 13.55H5.90049ZM10.7755 13.55L10.3255 21H7.95049L8.37549 13.55H10.7755ZM15.6255 13.55L16.0505 21H13.6755L13.2255 13.55H15.6255Z" fill="black"/>
</g>
<defs>
<clipPath id="clip0_3390_9788">
<rect width="24" height="24" fill="white"/>
</clipPath>
</defs>
</svg>
