<svg width="24" height="24" viewBox="0 0 24 24" fill="none" xmlns="http://www.w3.org/2000/svg">
<g clip-path="url(#clip0_3192_79)">
<rect width="24" height="24" fill="white"/>
<path d="M2.00049 10.525C2.36716 9.225 3.03382 8.025 4.00049 6.925C4.96716 5.80833 6.14216 4.925 7.52549 4.275C8.92549 3.60833 10.4338 3.275 12.0505 3.275C13.6672 3.275 15.1588 3.60833 16.5255 4.275C17.9088 4.925 19.0755 5.8 20.0255 6.9C20.9755 8 21.6338 9.20833 22.0005 10.525V11H2.00049V10.525ZM12.0505 3.75C10.5172 3.75 9.08382 4.06667 7.75049 4.7C6.43382 5.31667 5.30882 6.15833 4.37549 7.225C3.45882 8.29167 2.80882 9.475 2.42549 10.775L2.12549 10.525H21.8755L21.5505 10.7C21.1672 9.4 20.5172 8.225 19.6005 7.175C18.7005 6.125 17.6005 5.29167 16.3005 4.675C15.0005 4.05833 13.5838 3.75 12.0505 3.75ZM12.3005 1.5V3.5H11.8005V1.5H12.3005ZM20.0005 13L21.4005 21H20.9005L19.5005 13H20.0005ZM4.50049 13L3.10049 21H2.60049L4.00049 13H4.50049ZM9.65049 13L9.15049 21H8.65049L9.15049 13H9.65049ZM14.8505 13L15.3505 21H14.8505L14.3505 13H14.8505Z" fill="black"/>
</g>
<defs>
<clipPath id="clip0_3192_79">
<rect width="24" height="24" fill="white"/>
</clipPath>
</defs>
</svg>
