<svg width="24" height="24" viewBox="0 0 24 24" fill="none" xmlns="http://www.w3.org/2000/svg">
<g clip-path="url(#clip0_3192_747)">
<rect width="24" height="24" fill="white"/>
<path d="M2 9.2C2.71667 8 3.575 6.95833 4.575 6.075C5.575 5.19167 6.70833 4.50833 7.975 4.025C9.24167 3.525 10.6 3.275 12.05 3.275C13.5333 3.275 14.8917 3.51667 16.125 4C17.375 4.48333 18.4833 5.16667 19.45 6.05C20.4333 6.93333 21.2833 7.98333 22 9.2V11.375H2V9.2ZM20.5 13.375L21.775 21H19.425L18.175 13.375H20.5ZM5.825 13.375L4.575 21H2.225L3.5 13.375H5.825ZM10.725 13.375L10.3 21H7.975L8.425 13.375H10.725ZM15.575 13.375L16.025 21H13.7L13.275 13.375H15.575ZM13.2 1.5V3.675H10.9V1.5H13.2Z" fill="black"/>
</g>
<defs>
<clipPath id="clip0_3192_747">
<rect width="24" height="24" fill="white"/>
</clipPath>
</defs>
</svg>
