<svg width="24" height="24" viewBox="0 0 24 24" fill="none" xmlns="http://www.w3.org/2000/svg">
<g clip-path="url(#clip0_3192_553)">
<rect width="24" height="24" fill="white"/>
<path d="M3.00049 7.25L12.0005 2.05L21.0005 7.25V21H3.00049V7.25ZM18.0255 18.075V8.9L12.0005 5.425L5.97549 8.9V18.075H18.0255ZM13.2005 12.3C12.9338 12.3 12.7338 12.3 12.6005 12.3C12.4672 12.3 12.2672 12.3 12.0005 12.3C11.7338 12.3 11.5338 12.3 11.4005 12.3C11.2672 12.3 11.0672 12.3 10.8005 12.3C11.0672 12.3 11.2672 12.3 11.4005 12.3C11.5338 12.3 11.7338 12.3 12.0005 12.3C12.2672 12.3 12.4672 12.3 12.6005 12.3C12.7338 12.3 12.9338 12.3 13.2005 12.3ZM15.8255 12.3C14.0255 13.0667 12.7505 14.3417 12.0005 16.125C11.2338 14.3417 9.95882 13.0667 8.17549 12.3C9.95882 11.55 11.2338 10.275 12.0005 8.475C12.7672 10.2583 14.0422 11.5333 15.8255 12.3Z" fill="black"/>
</g>
<defs>
<clipPath id="clip0_3192_553">
<rect width="24" height="24" fill="white"/>
</clipPath>
</defs>
</svg>
