<svg width="24" height="24" viewBox="0 0 24 24" fill="none" xmlns="http://www.w3.org/2000/svg">
<g clip-path="url(#clip0_3192_549)">
<rect width="24" height="24" fill="white"/>
<path d="M3.00049 7.25L12.0005 2.05L21.0005 7.25V21H3.00049V7.25ZM19.1005 19.15V8.3L12.0005 4.175L4.90049 8.3V19.15H19.1005ZM14.0005 12.3C13.6005 12.0333 13.2422 11.7417 12.9255 11.425C12.6088 11.1083 12.3005 10.75 12.0005 10.35C11.7005 10.75 11.3922 11.1083 11.0755 11.425C10.7588 11.7417 10.4005 12.0333 10.0005 12.3C10.4005 12.5667 10.7588 12.8583 11.0755 13.175C11.3922 13.4917 11.7005 13.85 12.0005 14.25C12.3005 13.85 12.6088 13.4917 12.9255 13.175C13.2422 12.8583 13.6005 12.5667 14.0005 12.3ZM17.0005 12.3C14.6672 13.3 13.0005 14.9667 12.0005 17.3C11.0005 14.9667 9.33382 13.3 7.00049 12.3C9.33382 11.3 11.0005 9.63333 12.0005 7.3C13.0005 9.63333 14.6672 11.3 17.0005 12.3Z" fill="black"/>
</g>
<defs>
<clipPath id="clip0_3192_549">
<rect width="24" height="24" fill="white"/>
</clipPath>
</defs>
</svg>
