<svg width="24" height="24" viewBox="0 0 24 24" fill="none" xmlns="http://www.w3.org/2000/svg">
<g clip-path="url(#clip0_3192_629)">
<rect width="24" height="24" fill="white"/>
<path d="M6.42549 4.35C6.40882 4.35 6.40049 4.35 6.40049 4.35C6.40049 4.35 6.40049 4.35833 6.40049 4.375V6.675H17.6005V4.375C17.6005 4.35833 17.6005 4.35 17.6005 4.35C17.6005 4.35 17.5922 4.35 17.5755 4.35H6.42549ZM3.50049 22L6.20049 7.1H8.62549L5.95049 22H3.50049ZM4.00049 3.8C4.00049 3.28333 4.17549 2.85833 4.52549 2.525C4.87549 2.175 5.30882 2 5.82549 2H18.1755C18.6922 2 19.1255 2.175 19.4755 2.525C19.8255 2.85833 20.0005 3.28333 20.0005 3.8V9.025H4.00049V3.8ZM17.8005 7.1L20.5005 22H18.0755L15.3755 7.1H17.8005ZM6.60049 15.175V12.825H17.4005V15.175H6.60049Z" fill="black"/>
</g>
<defs>
<clipPath id="clip0_3192_629">
<rect width="24" height="24" fill="white"/>
</clipPath>
</defs>
</svg>
