<svg width="24" height="24" viewBox="0 0 24 24" fill="none" xmlns="http://www.w3.org/2000/svg">
<g clip-path="url(#clip0_3192_623)">
<rect width="24" height="24" fill="white"/>
<path d="M4.97549 2.925C4.97549 2.925 4.96716 2.925 4.95049 2.925C4.95049 2.925 4.95049 2.93333 4.95049 2.95V6.425H19.0505V2.95C19.0505 2.93333 19.0422 2.925 19.0255 2.925H4.97549ZM3.42549 22L6.20049 6.6H7.15049L4.37549 22H3.42549ZM4.00049 2.925C4.00049 2.65833 4.09216 2.44167 4.27549 2.275C4.45882 2.09167 4.68382 2 4.95049 2H19.0505C19.3172 2 19.5422 2.09167 19.7255 2.275C19.9088 2.44167 20.0005 2.65833 20.0005 2.925V7.325H4.00049V2.925ZM17.8005 6.6L20.5755 22H19.6255L16.8505 6.6H17.8005ZM6.00049 11.575V10.675H18.0005V11.575H6.00049Z" fill="black"/>
</g>
<defs>
<clipPath id="clip0_3192_623">
<rect width="24" height="24" fill="white"/>
</clipPath>
</defs>
</svg>
