<svg width="24" height="24" viewBox="0 0 24 24" fill="none" xmlns="http://www.w3.org/2000/svg">
<g clip-path="url(#clip0_3192_627)">
<rect width="24" height="24" fill="white"/>
<path d="M5.87549 3.8C5.85882 3.8 5.85049 3.8 5.85049 3.8C5.85049 3.8 5.85049 3.80833 5.85049 3.825V6.2H18.1505V3.825C18.1505 3.80833 18.1505 3.8 18.1505 3.8C18.1505 3.8 18.1422 3.8 18.1255 3.8H5.87549ZM3.42549 22L6.20049 6.6H8.07549L5.30049 22H3.42549ZM4.00049 3.8C4.00049 3.28333 4.17549 2.85833 4.52549 2.525C4.87549 2.175 5.31716 2 5.85049 2H18.1505C18.6838 2 19.1255 2.175 19.4755 2.525C19.8255 2.85833 20.0005 3.28333 20.0005 3.8V8H4.00049V3.8ZM17.8005 6.6L20.5755 22H18.7255L15.9255 6.6H17.8005ZM6.42549 13.8V12H17.5755V13.8H6.42549Z" fill="black"/>
</g>
<defs>
<clipPath id="clip0_3192_627">
<rect width="24" height="24" fill="white"/>
</clipPath>
</defs>
</svg>
