<svg width="24" height="24" viewBox="0 0 24 24" fill="none" xmlns="http://www.w3.org/2000/svg">
<g clip-path="url(#clip0_3192_71)">
<rect width="24" height="24" fill="white"/>
<path d="M4.52549 2.475C4.52549 2.475 4.51716 2.48333 4.50049 2.5V6.525H19.5005V2.5C19.5005 2.5 19.4922 2.5 19.4755 2.5C19.4755 2.48333 19.4755 2.475 19.4755 2.475H4.52549ZM3.42549 22L6.20049 6.6H6.70049L3.92549 22H3.42549ZM4.00049 2.475C4.00049 2.34167 4.05049 2.23333 4.15049 2.15C4.25049 2.05 4.36716 2 4.50049 2H19.5005C19.6338 2 19.7505 2.05 19.8505 2.15C19.9505 2.23333 20.0005 2.34167 20.0005 2.475V7H4.00049V2.475ZM17.8005 6.6L20.5755 22H20.0755L17.3005 6.6H17.8005ZM5.80049 10.475V10H18.2005V10.475H5.80049Z" fill="black"/>
</g>
<defs>
<clipPath id="clip0_3192_71">
<rect width="24" height="24" fill="white"/>
</clipPath>
</defs>
</svg>
