<svg width="24" height="24" viewBox="0 0 24 24" fill="none" xmlns="http://www.w3.org/2000/svg">
<g clip-path="url(#clip0_3192_269)">
<rect width="24" height="24" fill="white"/>
<path d="M14.5505 14.575C14.2672 14.575 14.0505 14.575 13.9005 14.575C13.7672 14.575 13.5588 14.575 13.2755 14.575C13.5588 14.575 13.7755 14.575 13.9255 14.575C14.0755 14.575 14.2922 14.575 14.5755 14.575C14.8755 14.575 15.0922 14.575 15.2255 14.575C15.3755 14.575 15.5922 14.575 15.8755 14.575C15.5755 14.575 15.3505 14.575 15.2005 14.575C15.0672 14.575 14.8505 14.575 14.5505 14.575ZM14.5755 16.7C13.9922 16.7 13.4922 16.4917 13.0755 16.075C12.6588 15.6583 12.4505 15.1583 12.4505 14.575C12.4505 13.9917 12.6588 13.4917 13.0755 13.075C13.4922 12.6583 13.9922 12.45 14.5755 12.45C15.1588 12.45 15.6588 12.6583 16.0755 13.075C16.4922 13.4917 16.7005 13.9917 16.7005 14.575C16.7005 15.1583 16.4922 15.6583 16.0755 16.075C15.6588 16.4917 15.1588 16.7 14.5755 16.7ZM9.40049 14.575C9.11716 14.575 8.90049 14.575 8.75049 14.575C8.61716 14.575 8.40882 14.575 8.12549 14.575C8.40882 14.575 8.62549 14.575 8.77549 14.575C8.92549 14.575 9.14216 14.575 9.42549 14.575C9.72549 14.575 9.94216 14.575 10.0755 14.575C10.2255 14.575 10.4422 14.575 10.7255 14.575C10.4255 14.575 10.2005 14.575 10.0505 14.575C9.91716 14.575 9.70049 14.575 9.40049 14.575ZM9.42549 16.7C8.84216 16.7 8.34216 16.4917 7.92549 16.075C7.50882 15.6583 7.30049 15.1583 7.30049 14.575C7.30049 13.9917 7.50882 13.4917 7.92549 13.075C8.34216 12.6583 8.84216 12.45 9.42549 12.45C10.0088 12.45 10.5088 12.6583 10.9255 13.075C11.3422 13.4917 11.5505 13.9917 11.5505 14.575C11.5505 15.1583 11.3422 15.6583 10.9255 16.075C10.5088 16.4917 10.0088 16.7 9.42549 16.7ZM9.40049 9.425C9.11716 9.425 8.90049 9.425 8.75049 9.425C8.61716 9.425 8.40882 9.425 8.12549 9.425C8.40882 9.425 8.62549 9.425 8.77549 9.425C8.92549 9.425 9.14216 9.425 9.42549 9.425C9.72549 9.425 9.94216 9.425 10.0755 9.425C10.2255 9.425 10.4422 9.425 10.7255 9.425C10.4255 9.425 10.2005 9.425 10.0505 9.425C9.91716 9.425 9.70049 9.425 9.40049 9.425ZM9.42549 11.55C8.84216 11.55 8.34216 11.3417 7.92549 10.925C7.50882 10.5083 7.30049 10.0083 7.30049 9.425C7.30049 8.84167 7.50882 8.34167 7.92549 7.925C8.34216 7.50833 8.84216 7.3 9.42549 7.3C10.0088 7.3 10.5088 7.50833 10.9255 7.925C11.3422 8.34167 11.5505 8.84167 11.5505 9.425C11.5505 10.0083 11.3422 10.5083 10.9255 10.925C10.5088 11.3417 10.0088 11.55 9.42549 11.55ZM14.5505 9.425C14.2672 9.425 14.0505 9.425 13.9005 9.425C13.7672 9.425 13.5588 9.425 13.2755 9.425C13.5588 9.425 13.7755 9.425 13.9255 9.425C14.0755 9.425 14.2922 9.425 14.5755 9.425C14.8755 9.425 15.0922 9.425 15.2255 9.425C15.3755 9.425 15.5922 9.425 15.8755 9.425C15.5755 9.425 15.3505 9.425 15.2005 9.425C15.0672 9.425 14.8505 9.425 14.5505 9.425ZM14.5755 11.55C13.9922 11.55 13.4922 11.3417 13.0755 10.925C12.6588 10.5083 12.4505 10.0083 12.4505 9.425C12.4505 8.84167 12.6588 8.34167 13.0755 7.925C13.4922 7.50833 13.9922 7.3 14.5755 7.3C15.1588 7.3 15.6588 7.50833 16.0755 7.925C16.4922 8.34167 16.7005 8.84167 16.7005 9.425C16.7005 10.0083 16.4922 10.5083 16.0755 10.925C15.6588 11.3417 15.1588 11.55 14.5755 11.55ZM6.55049 17.5H17.4505V6.5H6.55049V17.5ZM21.0005 3V21H3.00049V3H21.0005Z" fill="black"/>
</g>
<defs>
<clipPath id="clip0_3192_269">
<rect width="24" height="24" fill="white"/>
</clipPath>
</defs>
</svg>
