<svg width="24" height="24" viewBox="0 0 24 24" fill="none" xmlns="http://www.w3.org/2000/svg">
<g clip-path="url(#clip0_3192_261)">
<rect width="24" height="24" fill="white"/>
<path d="M15.1505 15.15C14.9838 15.15 14.8588 15.15 14.7755 15.15C14.6922 15.15 14.5672 15.15 14.4005 15.15C14.5672 15.15 14.6922 15.15 14.7755 15.15C14.8588 15.15 14.9838 15.15 15.1505 15.15C15.3005 15.15 15.4172 15.15 15.5005 15.15C15.5838 15.15 15.7088 15.15 15.8755 15.15C15.7088 15.15 15.5838 15.15 15.5005 15.15C15.4172 15.15 15.3005 15.15 15.1505 15.15ZM15.1505 16.275C14.8505 16.275 14.5838 16.1667 14.3505 15.95C14.1338 15.7167 14.0255 15.45 14.0255 15.15C14.0255 14.8333 14.1338 14.5667 14.3505 14.35C14.5838 14.1333 14.8505 14.025 15.1505 14.025C15.4672 14.025 15.7338 14.1333 15.9505 14.35C16.1672 14.5667 16.2755 14.8333 16.2755 15.15C16.2755 15.45 16.1588 15.7167 15.9255 15.95C15.7088 16.1667 15.4505 16.275 15.1505 16.275ZM8.85049 15.15C8.70049 15.15 8.58382 15.15 8.50049 15.15C8.41716 15.15 8.29216 15.15 8.12549 15.15C8.29216 15.15 8.41716 15.15 8.50049 15.15C8.58382 15.15 8.70049 15.15 8.85049 15.15C9.01716 15.15 9.14216 15.15 9.22549 15.15C9.30882 15.15 9.43382 15.15 9.60049 15.15C9.43382 15.15 9.30882 15.15 9.22549 15.15C9.14216 15.15 9.01716 15.15 8.85049 15.15ZM8.85049 16.275C8.55049 16.275 8.28382 16.1667 8.05049 15.95C7.83382 15.7167 7.72549 15.45 7.72549 15.15C7.72549 14.8333 7.83382 14.5667 8.05049 14.35C8.28382 14.1333 8.55049 14.025 8.85049 14.025C9.16716 14.025 9.43382 14.1333 9.65049 14.35C9.86716 14.5667 9.97549 14.8333 9.97549 15.15C9.97549 15.45 9.86716 15.7167 9.65049 15.95C9.43382 16.1667 9.16716 16.275 8.85049 16.275ZM8.85049 8.85C8.70049 8.85 8.58382 8.85 8.50049 8.85C8.41716 8.85 8.29216 8.85 8.12549 8.85C8.29216 8.85 8.41716 8.85 8.50049 8.85C8.58382 8.85 8.70049 8.85 8.85049 8.85C9.01716 8.85 9.14216 8.85 9.22549 8.85C9.30882 8.85 9.43382 8.85 9.60049 8.85C9.43382 8.85 9.30882 8.85 9.22549 8.85C9.14216 8.85 9.01716 8.85 8.85049 8.85ZM8.85049 9.975C8.55049 9.975 8.28382 9.86667 8.05049 9.65C7.83382 9.41667 7.72549 9.15 7.72549 8.85C7.72549 8.53333 7.83382 8.26667 8.05049 8.05C8.28382 7.83333 8.55049 7.725 8.85049 7.725C9.16716 7.725 9.43382 7.84167 9.65049 8.075C9.86716 8.29167 9.97549 8.55 9.97549 8.85C9.97549 9.15 9.86716 9.41667 9.65049 9.65C9.43382 9.86667 9.16716 9.975 8.85049 9.975ZM15.1505 8.85C14.9838 8.85 14.8588 8.85 14.7755 8.85C14.6922 8.85 14.5672 8.85 14.4005 8.85C14.5672 8.85 14.6922 8.85 14.7755 8.85C14.8588 8.85 14.9838 8.85 15.1505 8.85C15.3005 8.85 15.4172 8.85 15.5005 8.85C15.5838 8.85 15.7088 8.85 15.8755 8.85C15.7088 8.85 15.5838 8.85 15.5005 8.85C15.4172 8.85 15.3005 8.85 15.1505 8.85ZM15.1505 9.975C14.8505 9.975 14.5838 9.86667 14.3505 9.65C14.1338 9.41667 14.0255 9.15 14.0255 8.85C14.0255 8.53333 14.1338 8.26667 14.3505 8.05C14.5838 7.83333 14.8505 7.725 15.1505 7.725C15.4672 7.725 15.7338 7.84167 15.9505 8.075C16.1672 8.29167 16.2755 8.55 16.2755 8.85C16.2755 9.15 16.1588 9.41667 15.9255 9.65C15.7088 9.86667 15.4505 9.975 15.1505 9.975ZM4.42549 19.6H19.5755V4.375H4.42549V19.6ZM21.0005 3V21H3.00049V3H21.0005Z" fill="black"/>
</g>
<defs>
<clipPath id="clip0_3192_261">
<rect width="24" height="24" fill="white"/>
</clipPath>
</defs>
</svg>
