<svg width="24" height="24" viewBox="0 0 24 24" fill="none" xmlns="http://www.w3.org/2000/svg">
<g clip-path="url(#clip0_3192_265)">
<rect width="24" height="24" fill="white"/>
<path d="M14.8505 14.85C14.6172 14.85 14.4422 14.85 14.3255 14.85C14.2088 14.85 14.0338 14.85 13.8005 14.85C14.0338 14.85 14.2088 14.85 14.3255 14.85C14.4422 14.85 14.6172 14.85 14.8505 14.85C15.0838 14.85 15.2505 14.85 15.3505 14.85C15.4672 14.85 15.6422 14.85 15.8755 14.85C15.6422 14.85 15.4672 14.85 15.3505 14.85C15.2338 14.85 15.0672 14.85 14.8505 14.85ZM14.8505 16.475C14.4005 16.475 14.0172 16.3167 13.7005 16C13.3838 15.6667 13.2255 15.2833 13.2255 14.85C13.2255 14.4 13.3838 14.0167 13.7005 13.7C14.0172 13.3833 14.4005 13.225 14.8505 13.225C15.3005 13.225 15.6838 13.3833 16.0005 13.7C16.3172 14.0167 16.4755 14.4 16.4755 14.85C16.4755 15.2833 16.3172 15.6667 16.0005 16C15.6838 16.3167 15.3005 16.475 14.8505 16.475ZM9.15049 14.85C8.91716 14.85 8.74216 14.85 8.62549 14.85C8.52549 14.85 8.35882 14.85 8.12549 14.85C8.35882 14.85 8.53382 14.85 8.65049 14.85C8.76716 14.85 8.93382 14.85 9.15049 14.85C9.38382 14.85 9.55882 14.85 9.67549 14.85C9.79216 14.85 9.96716 14.85 10.2005 14.85C9.96716 14.85 9.79216 14.85 9.67549 14.85C9.55882 14.85 9.38382 14.85 9.15049 14.85ZM9.15049 16.475C8.71716 16.475 8.33382 16.3167 8.00049 16C7.68382 15.6667 7.52549 15.2833 7.52549 14.85C7.52549 14.4 7.68382 14.0167 8.00049 13.7C8.33382 13.3833 8.71716 13.225 9.15049 13.225C9.60049 13.225 9.98382 13.3833 10.3005 13.7C10.6172 14.0167 10.7755 14.4 10.7755 14.85C10.7755 15.2833 10.6172 15.6667 10.3005 16C9.98382 16.3167 9.60049 16.475 9.15049 16.475ZM9.15049 9.15C8.91716 9.15 8.74216 9.15 8.62549 9.15C8.52549 9.15 8.35882 9.15 8.12549 9.15C8.35882 9.15 8.53382 9.15 8.65049 9.15C8.76716 9.15 8.93382 9.15 9.15049 9.15C9.38382 9.15 9.55882 9.15 9.67549 9.15C9.79216 9.15 9.96716 9.15 10.2005 9.15C9.96716 9.15 9.79216 9.15 9.67549 9.15C9.55882 9.15 9.38382 9.15 9.15049 9.15ZM9.15049 10.775C8.71716 10.775 8.33382 10.6167 8.00049 10.3C7.68382 9.98333 7.52549 9.6 7.52549 9.15C7.52549 8.7 7.68382 8.31667 8.00049 8C8.33382 7.68333 8.71716 7.525 9.15049 7.525C9.60049 7.525 9.98382 7.68333 10.3005 8C10.6172 8.31667 10.7755 8.7 10.7755 9.15C10.7755 9.6 10.6172 9.98333 10.3005 10.3C9.98382 10.6167 9.60049 10.775 9.15049 10.775ZM14.8505 9.15C14.6172 9.15 14.4422 9.15 14.3255 9.15C14.2088 9.15 14.0338 9.15 13.8005 9.15C14.0338 9.15 14.2088 9.15 14.3255 9.15C14.4422 9.15 14.6172 9.15 14.8505 9.15C15.0838 9.15 15.2505 9.15 15.3505 9.15C15.4672 9.15 15.6422 9.15 15.8755 9.15C15.6422 9.15 15.4672 9.15 15.3505 9.15C15.2338 9.15 15.0672 9.15 14.8505 9.15ZM14.8505 10.775C14.4005 10.775 14.0172 10.6167 13.7005 10.3C13.3838 9.98333 13.2255 9.6 13.2255 9.15C13.2255 8.7 13.3838 8.31667 13.7005 8C14.0172 7.68333 14.4005 7.525 14.8505 7.525C15.3005 7.525 15.6838 7.68333 16.0005 8C16.3172 8.31667 16.4755 8.7 16.4755 9.15C16.4755 9.6 16.3172 9.98333 16.0005 10.3C15.6838 10.6167 15.3005 10.775 14.8505 10.775ZM5.42549 18.625H18.5755V5.375H5.42549V18.625ZM21.0005 3V21H3.00049V3H21.0005Z" fill="black"/>
</g>
<defs>
<clipPath id="clip0_3192_265">
<rect width="24" height="24" fill="white"/>
</clipPath>
</defs>
</svg>
