<svg width="24" height="24" viewBox="0 0 24 24" fill="none" xmlns="http://www.w3.org/2000/svg">
<g clip-path="url(#clip0_3192_259)">
<rect width="24" height="24" fill="white"/>
<path d="M15.6255 14.025C15.1922 14.025 14.8172 14.1833 14.5005 14.5C14.1838 14.8 14.0255 15.175 14.0255 15.625C14.0255 16.0583 14.1838 16.4333 14.5005 16.75C14.8172 17.0667 15.1922 17.225 15.6255 17.225C16.0755 17.225 16.4505 17.0667 16.7505 16.75C17.0672 16.4333 17.2255 16.0583 17.2255 15.625C17.2255 15.175 17.0672 14.8 16.7505 14.5C16.4505 14.1833 16.0755 14.025 15.6255 14.025ZM15.6255 18.125C14.9422 18.125 14.3505 17.8833 13.8505 17.4C13.3672 16.9 13.1255 16.3083 13.1255 15.625C13.1255 14.9417 13.3672 14.3583 13.8505 13.875C14.3505 13.375 14.9422 13.125 15.6255 13.125C16.3088 13.125 16.8922 13.375 17.3755 13.875C17.8755 14.3583 18.1255 14.9417 18.1255 15.625C18.1255 16.3083 17.8755 16.9 17.3755 17.4C16.8922 17.8833 16.3088 18.125 15.6255 18.125ZM8.37549 14.025C7.94216 14.025 7.56716 14.1833 7.25049 14.5C6.93382 14.8 6.77549 15.175 6.77549 15.625C6.77549 16.0583 6.93382 16.4333 7.25049 16.75C7.56716 17.0667 7.94216 17.225 8.37549 17.225C8.82549 17.225 9.20049 17.0667 9.50049 16.75C9.81716 16.4333 9.97549 16.0583 9.97549 15.625C9.97549 15.175 9.81716 14.8 9.50049 14.5C9.20049 14.1833 8.82549 14.025 8.37549 14.025ZM8.37549 18.125C7.69216 18.125 7.10049 17.8833 6.60049 17.4C6.11716 16.9 5.87549 16.3083 5.87549 15.625C5.87549 14.9417 6.11716 14.3583 6.60049 13.875C7.10049 13.375 7.69216 13.125 8.37549 13.125C9.05882 13.125 9.64216 13.375 10.1255 13.875C10.6255 14.3583 10.8755 14.9417 10.8755 15.625C10.8755 16.3083 10.6255 16.9 10.1255 17.4C9.64216 17.8833 9.05882 18.125 8.37549 18.125ZM8.37549 6.775C7.94216 6.775 7.56716 6.93333 7.25049 7.25C6.93382 7.55 6.77549 7.925 6.77549 8.375C6.77549 8.80833 6.93382 9.18333 7.25049 9.5C7.56716 9.81667 7.94216 9.975 8.37549 9.975C8.82549 9.975 9.20049 9.81667 9.50049 9.5C9.81716 9.18333 9.97549 8.80833 9.97549 8.375C9.97549 7.925 9.81716 7.55 9.50049 7.25C9.20049 6.93333 8.82549 6.775 8.37549 6.775ZM8.37549 10.875C7.69216 10.875 7.10049 10.6333 6.60049 10.15C6.11716 9.65 5.87549 9.05833 5.87549 8.375C5.87549 7.69167 6.11716 7.10833 6.60049 6.625C7.10049 6.125 7.69216 5.875 8.37549 5.875C9.05882 5.875 9.64216 6.125 10.1255 6.625C10.6255 7.10833 10.8755 7.69167 10.8755 8.375C10.8755 9.05833 10.6255 9.65 10.1255 10.15C9.64216 10.6333 9.05882 10.875 8.37549 10.875ZM15.6255 6.775C15.1922 6.775 14.8172 6.93333 14.5005 7.25C14.1838 7.55 14.0255 7.925 14.0255 8.375C14.0255 8.80833 14.1838 9.18333 14.5005 9.5C14.8172 9.81667 15.1922 9.975 15.6255 9.975C16.0755 9.975 16.4505 9.81667 16.7505 9.5C17.0672 9.18333 17.2255 8.80833 17.2255 8.375C17.2255 7.925 17.0672 7.55 16.7505 7.25C16.4505 6.93333 16.0755 6.775 15.6255 6.775ZM15.6255 10.875C14.9422 10.875 14.3505 10.6333 13.8505 10.15C13.3672 9.65 13.1255 9.05833 13.1255 8.375C13.1255 7.69167 13.3672 7.10833 13.8505 6.625C14.3505 6.125 14.9422 5.875 15.6255 5.875C16.3088 5.875 16.8922 6.125 17.3755 6.625C17.8755 7.10833 18.1255 7.69167 18.1255 8.375C18.1255 9.05833 17.8755 9.65 17.3755 10.15C16.8922 10.6333 16.3088 10.875 15.6255 10.875ZM3.97549 20.075H20.0255V3.925H3.97549V20.075ZM21.0005 3V21H3.00049V3H21.0005Z" fill="black"/>
</g>
<defs>
<clipPath id="clip0_3192_259">
<rect width="24" height="24" fill="white"/>
</clipPath>
</defs>
</svg>
