<svg width="24" height="24" viewBox="0 0 24 24" fill="none" xmlns="http://www.w3.org/2000/svg">
<g clip-path="url(#clip0_3390_9680)">
<rect width="24" height="24" fill="white"/>
<path d="M4.67549 21C4.17549 21 3.71716 20.8833 3.30049 20.65C2.90049 20.4167 2.58382 20.1 2.35049 19.7C2.11716 19.2833 2.00049 18.825 2.00049 18.325V12H22.0005V18.325C22.0005 18.825 21.8838 19.2833 21.6505 19.7C21.4172 20.1 21.0922 20.4167 20.6755 20.65C20.2755 20.8833 19.8255 21 19.3255 21H4.67549ZM19.3255 20.075C19.8088 20.075 20.2172 19.9083 20.5505 19.575C20.8838 19.225 21.0505 18.8083 21.0505 18.325V12.925H2.95049V18.325C2.95049 18.8083 3.11716 19.225 3.45049 19.575C3.78382 19.9083 4.19216 20.075 4.67549 20.075H19.3255ZM10.9005 11.3C10.9005 10.7 10.6672 10.2083 10.2005 9.825C9.75049 9.44167 9.15882 9.25 8.42549 9.25C7.69216 9.25 7.09216 9.44167 6.62549 9.825C6.15882 10.2083 5.92549 10.7 5.92549 11.3V12.525H4.97549V11.3C4.97549 10.4167 5.29216 9.70833 5.92549 9.175C6.57549 8.625 7.40882 8.35 8.42549 8.35C9.42549 8.35 10.2422 8.625 10.8755 9.175C11.5255 9.70833 11.8505 10.4167 11.8505 11.3V12.525H10.9005V11.3ZM8.37549 7.325C7.75882 7.325 7.22549 7.10833 6.77549 6.675C6.34216 6.24167 6.12549 5.70833 6.12549 5.075C6.12549 4.475 6.34216 3.95833 6.77549 3.525C7.22549 3.09167 7.75882 2.875 8.37549 2.875C8.99216 2.875 9.51716 3.09167 9.95049 3.525C10.4005 3.95833 10.6255 4.48333 10.6255 5.1C10.6255 5.71667 10.4005 6.24167 9.95049 6.675C9.51716 7.10833 8.99216 7.325 8.37549 7.325ZM8.37549 6.5C8.77549 6.5 9.10882 6.36667 9.37549 6.1C9.64216 5.83333 9.77549 5.5 9.77549 5.1C9.77549 4.7 9.64216 4.36667 9.37549 4.1C9.10882 3.83333 8.77549 3.7 8.37549 3.7C7.97549 3.7 7.64216 3.83333 7.37549 4.1C7.10882 4.36667 6.97549 4.7 6.97549 5.1C6.97549 5.5 7.10882 5.83333 7.37549 6.1C7.64216 6.36667 7.97549 6.5 8.37549 6.5ZM18.8505 10C18.4005 9.43333 18.1672 8.79167 18.1505 8.075C18.1338 7.35833 18.3255 6.68333 18.7255 6.05C19.1088 5.46667 19.2755 4.875 19.2255 4.275C19.1755 3.65833 18.9088 3.06667 18.4255 2.5H19.4505C19.9172 3.06667 20.1588 3.7 20.1755 4.4C20.1922 5.1 19.9922 5.78333 19.5755 6.45C19.2088 7 19.0505 7.59167 19.1005 8.225C19.1505 8.85833 19.4088 9.45 19.8755 10H18.8505ZM14.7005 10C14.2672 9.43333 14.0422 8.79167 14.0255 8.075C14.0088 7.35833 14.1922 6.68333 14.5755 6.05C14.9588 5.46667 15.1255 4.875 15.0755 4.275C15.0422 3.65833 14.7755 3.06667 14.2755 2.5H15.3255C15.7922 3.06667 16.0255 3.7 16.0255 4.4C16.0422 5.1 15.8505 5.78333 15.4505 6.45C15.1005 7.01667 14.9422 7.61667 14.9755 8.25C15.0088 8.86667 15.2672 9.45 15.7505 10H14.7005Z" fill="black"/>
</g>
<defs>
<clipPath id="clip0_3390_9680">
<rect width="24" height="24" fill="white"/>
</clipPath>
</defs>
</svg>
