<svg width="24" height="24" viewBox="0 0 24 24" fill="none" xmlns="http://www.w3.org/2000/svg">
<g clip-path="url(#clip0_3192_223)">
<rect width="24" height="24" fill="white"/>
<path d="M5 21C4.16667 21 3.45833 20.7083 2.875 20.125C2.29167 19.5417 2 18.8333 2 18V12.675H22V18C22 18.8333 21.7083 19.5417 21.125 20.125C20.5417 20.7083 19.8333 21 19 21H5ZM4.725 10.625C4.725 9.84167 5.01667 9.225 5.6 8.775C6.18333 8.325 6.96667 8.1 7.95 8.1C8.95 8.1 9.74167 8.325 10.325 8.775C10.9083 9.225 11.2 9.84167 11.2 10.625V11.175H4.725V10.625ZM7.925 6.925C7.35833 6.925 6.875 6.73333 6.475 6.35C6.09167 5.95 5.9 5.45833 5.9 4.875C5.9 4.325 6.1 3.85833 6.5 3.475C6.9 3.075 7.375 2.875 7.925 2.875C8.50833 2.875 9 3.075 9.4 3.475C9.8 3.85833 10 4.325 10 4.875C10 5.45833 9.8 5.95 9.4 6.35C9 6.73333 8.50833 6.925 7.925 6.925ZM19.15 9.8C18.55 9.16667 18.2083 8.55833 18.125 7.975C18.0583 7.375 18.175 6.775 18.475 6.175C18.6583 5.825 18.775 5.525 18.825 5.275C18.8917 5.00833 18.875 4.73333 18.775 4.45C18.675 4.15 18.4667 3.81667 18.15 3.45L19.175 2.7C19.7417 3.3 20.0667 3.90833 20.15 4.525C20.25 5.14167 20.15 5.75 19.85 6.35C19.6667 6.73333 19.5417 7.04167 19.475 7.275C19.425 7.50833 19.45 7.76667 19.55 8.05C19.65 8.33333 19.8667 8.66667 20.2 9.05L19.15 9.8ZM15.2 9.8C14.6 9.16667 14.2583 8.55833 14.175 7.975C14.1083 7.375 14.225 6.775 14.525 6.175C14.7083 5.825 14.825 5.525 14.875 5.275C14.9417 5.00833 14.925 4.73333 14.825 4.45C14.725 4.15 14.5167 3.81667 14.2 3.45L15.225 2.7C15.7917 3.3 16.1167 3.90833 16.2 4.525C16.3 5.14167 16.2 5.75 15.9 6.35C15.7167 6.73333 15.5917 7.04167 15.525 7.275C15.475 7.50833 15.5 7.76667 15.6 8.05C15.7 8.33333 15.9167 8.66667 16.25 9.05L15.2 9.8Z" fill="black"/>
</g>
<defs>
<clipPath id="clip0_3192_223">
<rect width="24" height="24" fill="white"/>
</clipPath>
</defs>
</svg>
