<svg width="24" height="24" viewBox="0 0 24 24" fill="none" xmlns="http://www.w3.org/2000/svg">
<g clip-path="url(#clip0_3192_227)">
<rect width="24" height="24" fill="white"/>
<path d="M5 21C4.16667 21 3.45833 20.7083 2.875 20.125C2.29167 19.5417 2 18.8333 2 18V13H22V18C22 18.8333 21.7083 19.5417 21.125 20.125C20.5417 20.7083 19.8333 21 19 21H5ZM4.65 10.65C4.65 9.85 4.95833 9.225 5.575 8.775C6.19167 8.30833 7 8.075 8 8.075C9 8.075 9.80833 8.30833 10.425 8.775C11.0417 9.225 11.35 9.85 11.35 10.65V11.075H4.65V10.65ZM7.975 6.975C7.39167 6.975 6.9 6.775 6.5 6.375C6.11667 5.975 5.925 5.48333 5.925 4.9C5.925 4.33333 6.125 3.85833 6.525 3.475C6.925 3.075 7.40833 2.875 7.975 2.875C8.55833 2.875 9.05 3.075 9.45 3.475C9.86667 3.85833 10.075 4.33333 10.075 4.9C10.075 5.48333 9.86667 5.975 9.45 6.375C9.05 6.775 8.55833 6.975 7.975 6.975ZM18.675 9.9C18.075 9.28333 17.7167 8.65 17.6 8C17.5 7.35 17.6083 6.725 17.925 6.125C18.0917 5.79167 18.1917 5.50833 18.225 5.275C18.275 5.025 18.25 4.775 18.15 4.525C18.05 4.275 17.8583 3.99167 17.575 3.675L19.3 2.6C19.85 3.16667 20.1833 3.8 20.3 4.5C20.4333 5.18333 20.35 5.825 20.05 6.425C19.8667 6.775 19.75 7.05833 19.7 7.275C19.6667 7.475 19.6917 7.7 19.775 7.95C19.875 8.18333 20.0833 8.475 20.4 8.825L18.675 9.9ZM14.85 9.9C14.25 9.28333 13.9 8.65 13.8 8C13.7 7.35 13.8 6.725 14.1 6.125C14.2667 5.79167 14.3667 5.50833 14.4 5.275C14.45 5.025 14.425 4.775 14.325 4.525C14.225 4.275 14.0333 3.99167 13.75 3.675L15.475 2.6C16.025 3.16667 16.3583 3.8 16.475 4.5C16.6083 5.18333 16.525 5.825 16.225 6.425C16.0583 6.775 15.95 7.05833 15.9 7.275C15.85 7.475 15.875 7.7 15.975 7.95C16.075 8.18333 16.275 8.475 16.575 8.825L14.85 9.9Z" fill="black"/>
</g>
<defs>
<clipPath id="clip0_3192_227">
<rect width="24" height="24" fill="white"/>
</clipPath>
</defs>
</svg>
