<svg width="24" height="24" viewBox="0 0 24 24" fill="none" xmlns="http://www.w3.org/2000/svg">
<g clip-path="url(#clip0_3390_9736)">
<rect width="24" height="24" fill="white"/>
<path d="M5 21C4.16667 21 3.45833 20.7083 2.875 20.125C2.29167 19.5417 2 18.8333 2 18V13H22V18C22 18.8333 21.7083 19.5417 21.125 20.125C20.5417 20.7083 19.8333 21 19 21H5ZM4.4 10.65C4.4 9.86667 4.74167 9.24167 5.425 8.775C6.10833 8.30833 6.96667 8.075 8 8.075C9.03333 8.075 9.89167 8.30833 10.575 8.775C11.2583 9.24167 11.6 9.86667 11.6 10.65V11.325H4.4V10.65ZM7.975 7.15C7.375 7.15 6.86667 6.94167 6.45 6.525C6.05 6.10833 5.85 5.59167 5.85 4.975C5.85 4.39167 6.05 3.9 6.45 3.5C6.86667 3.08333 7.375 2.875 7.975 2.875C8.575 2.875 9.08333 3.08333 9.5 3.5C9.93333 3.9 10.15 4.39167 10.15 4.975C10.15 5.59167 9.94167 6.10833 9.525 6.525C9.10833 6.94167 8.59167 7.15 7.975 7.15ZM18.55 2.55L18.425 4.55L20.075 3.45L21.2 5.375L19.425 6.25L21.2 7.125L20.075 9.05L18.425 7.95L18.6 9.95H16.25L16.45 7.95L14.775 9.05L13.65 7.125L15.425 6.25L13.65 5.375L14.775 3.45L16.45 4.55L16.3 2.55H18.55Z" fill="black"/>
</g>
<defs>
<clipPath id="clip0_3390_9736">
<rect width="24" height="24" fill="white"/>
</clipPath>
</defs>
</svg>
