<svg width="24" height="24" viewBox="0 0 24 24" fill="none" xmlns="http://www.w3.org/2000/svg">
<g clip-path="url(#clip0_3192_115)">
<rect width="24" height="24" fill="white"/>
<path d="M5 21C4.16667 21 3.45833 20.7083 2.875 20.125C2.29167 19.5417 2 18.8333 2 18V12H22V18C22 18.8333 21.7083 19.5417 21.125 20.125C20.5417 20.7083 19.8333 21 19 21H5ZM4.725 10.6C4.725 9.83333 5.00833 9.23333 5.575 8.8C6.14167 8.35 6.90833 8.125 7.875 8.125C8.84167 8.125 9.60833 8.35 10.175 8.8C10.7417 9.23333 11.025 9.83333 11.025 10.6V11.5H4.725V10.6ZM7.85 6.825C7.3 6.825 6.83333 6.63333 6.45 6.25C6.06667 5.86667 5.875 5.39167 5.875 4.825C5.875 4.29167 6.06667 3.83333 6.45 3.45C6.83333 3.06667 7.3 2.875 7.85 2.875C8.41667 2.875 8.89167 3.06667 9.275 3.45C9.675 3.83333 9.875 4.29167 9.875 4.825C9.875 5.39167 9.675 5.86667 9.275 6.25C8.89167 6.63333 8.41667 6.825 7.85 6.825ZM17.675 2.5L17.65 5.9L20.575 4.175L20.8 4.575L17.85 6.25L20.8 7.925L20.575 8.325L17.65 6.6L17.675 10H17.225L17.25 6.6L14.325 8.325L14.1 7.925L17.05 6.25L14.1 4.575L14.325 4.175L17.25 5.9L17.225 2.5H17.675Z" fill="black"/>
</g>
<defs>
<clipPath id="clip0_3192_115">
<rect width="24" height="24" fill="white"/>
</clipPath>
</defs>
</svg>
