<svg width="24" height="24" viewBox="0 0 24 24" fill="none" xmlns="http://www.w3.org/2000/svg">
<g clip-path="url(#clip0_3390_9690)">
<rect width="24" height="24" fill="white"/>
<path d="M5.50049 21C4.95049 21 4.40049 20.825 3.85049 20.475C3.31716 20.125 2.87549 19.6833 2.52549 19.15C2.17549 18.6 2.00049 18.05 2.00049 17.5V11.5H22.0005V17.5C22.0005 18.05 21.8255 18.6 21.4755 19.15C21.1255 19.6833 20.6755 20.125 20.1255 20.475C19.5922 20.825 19.0505 21 18.5005 21H5.50049ZM18.3255 17.45C18.3422 17.45 18.3588 17.4417 18.3755 17.425C18.3922 17.4083 18.4005 17.3917 18.4005 17.375V15.05H5.60049V17.375C5.60049 17.3917 5.60882 17.4083 5.62549 17.425C5.64216 17.4417 5.65882 17.45 5.67549 17.45H18.3255ZM8.97549 12.625C8.67549 12.625 8.45049 12.625 8.30049 12.625C8.15049 12.625 7.92549 12.625 7.62549 12.625C7.32549 12.625 7.10049 12.625 6.95049 12.625C6.80049 12.625 6.57549 12.625 6.27549 12.625H6.10049H5.50049V10.35C5.50049 9.83333 5.69216 9.41667 6.07549 9.1C6.47549 8.78333 6.99216 8.625 7.62549 8.625C8.25882 8.625 8.76716 8.78333 9.15049 9.1C9.55049 9.41667 9.75049 9.83333 9.75049 10.35V12.625H9.15049H8.97549ZM7.62549 7.625C6.95882 7.625 6.39216 7.4 5.92549 6.95C5.47549 6.48333 5.25049 5.91667 5.25049 5.25C5.25049 4.58333 5.47549 4.025 5.92549 3.575C6.39216 3.10833 6.95882 2.875 7.62549 2.875C8.29216 2.875 8.85049 3.10833 9.30049 3.575C9.76716 4.025 10.0005 4.58333 10.0005 5.25C10.0005 5.91667 9.76716 6.48333 9.30049 6.95C8.85049 7.4 8.29216 7.625 7.62549 7.625ZM7.62549 4.4C7.82549 4.4 7.96716 4.4 8.05049 4.4C8.15049 4.4 8.29216 4.4 8.47549 4.4C8.27549 4.4 8.12549 4.4 8.02549 4.4C7.94216 4.4 7.80882 4.4 7.62549 4.4C7.42549 4.4 7.27549 4.4 7.17549 4.4C7.09216 4.4 6.95882 4.4 6.77549 4.4C6.97549 4.4 7.11716 4.4 7.20049 4.4C7.30049 4.4 7.44216 4.4 7.62549 4.4ZM15.8005 10C15.2338 9.38333 14.9338 8.68333 14.9005 7.9C14.8672 7.1 15.0255 6.41667 15.3755 5.85C15.6755 5.35 15.8005 4.81667 15.7505 4.25C15.7005 3.68333 15.4338 3.1 14.9505 2.5H18.3255C18.8922 3.11667 19.1922 3.825 19.2255 4.625C19.2588 5.40833 19.1005 6.08333 18.7505 6.65C18.4672 7.13333 18.3588 7.675 18.4255 8.275C18.4922 8.875 18.7422 9.45 19.1755 10H15.8005ZM16.9255 6.65C16.8755 6.58333 16.8422 6.50833 16.8255 6.425C16.8255 6.34167 16.8422 6.26667 16.8755 6.2C16.9088 6.15 16.9255 6.1 16.9255 6.05C16.9255 5.98333 16.8922 5.91667 16.8255 5.85H17.2005C17.2672 5.91667 17.3005 5.99167 17.3005 6.075C17.3172 6.15833 17.3005 6.23333 17.2505 6.3C17.2172 6.35 17.2088 6.40833 17.2255 6.475C17.2422 6.525 17.2755 6.58333 17.3255 6.65H16.9255Z" fill="black"/>
</g>
<defs>
<clipPath id="clip0_3390_9690">
<rect width="24" height="24" fill="white"/>
</clipPath>
</defs>
</svg>
