<svg width="24" height="24" viewBox="0 0 24 24" fill="none" xmlns="http://www.w3.org/2000/svg">
<g clip-path="url(#clip0_3192_77)">
<rect width="24" height="24" fill="white"/>
<path d="M7.07549 3L7.05049 6.4L9.97549 4.675L10.2005 5.075L7.25049 6.75L10.2005 8.425L9.97549 8.825L7.05049 7.1L7.07549 10.5H6.62549L6.65049 7.1L3.72549 8.825L3.50049 8.425L6.45049 6.75L3.50049 5.075L3.72549 4.675L6.65049 6.4L6.62549 3H7.07549ZM17.4755 10.85C16.8422 10.85 16.2588 10.7 15.7255 10.4C15.2088 10.1 14.7922 9.69167 14.4755 9.175C14.1755 8.64167 14.0255 8.05833 14.0255 7.425C14.0255 6.525 14.3172 5.65833 14.9005 4.825C15.5005 3.975 16.3588 3.075 17.4755 2.125C18.5922 3.075 19.4422 3.975 20.0255 4.825C20.6255 5.65833 20.9255 6.525 20.9255 7.425C20.9255 8.05833 20.7672 8.64167 20.4505 9.175C20.1505 9.69167 19.7338 10.1 19.2005 10.4C18.6838 10.7 18.1088 10.85 17.4755 10.85ZM17.4755 10.375C18.3088 10.375 19.0088 10.0917 19.5755 9.525C20.1422 8.94167 20.4255 8.24167 20.4255 7.425C20.4255 6.60833 20.1672 5.83333 19.6505 5.1C19.1338 4.35 18.3422 3.5 17.2755 2.55H17.6755C16.6088 3.5 15.8172 4.35 15.3005 5.1C14.7838 5.83333 14.5255 6.60833 14.5255 7.425C14.5255 8.24167 14.8088 8.94167 15.3755 9.525C15.9588 10.0917 16.6588 10.375 17.4755 10.375ZM14.0005 14H21.0005V21H14.0005V14ZM20.5005 20.525V14.475H14.5005V20.525H20.5005ZM6.62549 21.25C5.90882 21.25 5.25049 21.0833 4.65049 20.75C4.06716 20.4 3.60049 19.9333 3.25049 19.35C2.91716 18.75 2.75049 18.1 2.75049 17.4C2.75049 16.7 2.91716 16.0583 3.25049 15.475C3.60049 14.875 4.06716 14.4083 4.65049 14.075C5.25049 13.725 5.90882 13.55 6.62549 13.55C7.34216 13.55 7.99216 13.725 8.57549 14.075C9.17549 14.4083 9.64216 14.875 9.97549 15.475C10.3255 16.0583 10.5005 16.7 10.5005 17.4C10.5005 18.1 10.3255 18.75 9.97549 19.35C9.64216 19.9333 9.17549 20.4 8.57549 20.75C7.99216 21.0833 7.34216 21.25 6.62549 21.25ZM6.62549 20.775C7.57549 20.775 8.37549 20.45 9.02549 19.8C9.67549 19.15 10.0005 18.35 10.0005 17.4C10.0005 16.45 9.67549 15.65 9.02549 15C8.37549 14.35 7.57549 14.025 6.62549 14.025C5.67549 14.025 4.87549 14.35 4.22549 15C3.57549 15.65 3.25049 16.45 3.25049 17.4C3.25049 18.35 3.57549 19.15 4.22549 19.8C4.87549 20.45 5.67549 20.775 6.62549 20.775Z" fill="black"/>
</g>
<defs>
<clipPath id="clip0_3192_77">
<rect width="24" height="24" fill="white"/>
</clipPath>
</defs>
</svg>
