<svg width="24" height="24" viewBox="0 0 24 24" fill="none" xmlns="http://www.w3.org/2000/svg">
<g clip-path="url(#clip0_3390_9654)">
<rect width="24" height="24" fill="white"/>
<path d="M8.32549 2.625L8.15049 5.025L10.1005 3.675L11.3755 5.9L9.27549 6.925L11.3755 7.95L10.1005 10.15L8.15049 8.825L8.32549 11.2H5.72549L5.92549 8.825L3.95049 10.15L2.67549 7.95L4.77549 6.925L2.67549 5.9L3.95049 3.675L5.92549 5.025L5.72549 2.625H8.32549ZM17.0755 11.75C16.3588 11.75 15.7005 11.5833 15.1005 11.25C14.5005 10.9 14.0255 10.4333 13.6755 9.85C13.3255 9.25 13.1505 8.59167 13.1505 7.875C13.1505 6.90833 13.4838 5.975 14.1505 5.075C14.8172 4.15833 15.7922 3.15833 17.0755 2.075C18.3755 3.15833 19.3505 4.15833 20.0005 5.075C20.6672 5.975 21.0005 6.90833 21.0005 7.875C21.0005 8.59167 20.8255 9.25 20.4755 9.85C20.1422 10.4333 19.6755 10.9 19.0755 11.25C18.4755 11.5833 17.8088 11.75 17.0755 11.75ZM17.0755 9.05C17.4255 9.05 17.7172 8.93333 17.9505 8.7C18.2005 8.45 18.3255 8.15833 18.3255 7.825C18.3255 7.45833 18.2005 7.08333 17.9505 6.7C17.7005 6.3 17.3505 5.875 16.9005 5.425H17.2755C16.8255 5.875 16.4755 6.3 16.2255 6.7C15.9755 7.08333 15.8505 7.45833 15.8505 7.825C15.8505 8.15833 15.9672 8.45 16.2005 8.7C16.4505 8.93333 16.7422 9.05 17.0755 9.05ZM13.1755 13.175H21.0005V21H13.1755V13.175ZM18.3505 18.375V15.775H15.8255V18.375H18.3505ZM7.05049 21.325C6.25049 21.325 5.51716 21.1333 4.85049 20.75C4.20049 20.3667 3.68382 19.85 3.30049 19.2C2.93382 18.55 2.75049 17.8333 2.75049 17.05C2.75049 16.2667 2.93382 15.55 3.30049 14.9C3.68382 14.25 4.20049 13.7333 4.85049 13.35C5.51716 12.9667 6.25049 12.775 7.05049 12.775C7.83382 12.775 8.55049 12.9667 9.20049 13.35C9.86716 13.7333 10.3838 14.25 10.7505 14.9C11.1338 15.55 11.3255 16.2667 11.3255 17.05C11.3255 17.8333 11.1338 18.55 10.7505 19.2C10.3838 19.85 9.86716 20.3667 9.20049 20.75C8.55049 21.1333 7.83382 21.325 7.05049 21.325ZM7.05049 18.525C7.46716 18.525 7.81716 18.3833 8.10049 18.1C8.38382 17.8167 8.52549 17.4667 8.52549 17.05C8.52549 16.6333 8.38382 16.2833 8.10049 16C7.81716 15.7167 7.46716 15.575 7.05049 15.575C6.61716 15.575 6.25882 15.7167 5.97549 16C5.70882 16.2833 5.57549 16.6333 5.57549 17.05C5.57549 17.4667 5.70882 17.8167 5.97549 18.1C6.25882 18.3833 6.61716 18.525 7.05049 18.525Z" fill="black"/>
</g>
<defs>
<clipPath id="clip0_3390_9654">
<rect width="24" height="24" fill="white"/>
</clipPath>
</defs>
</svg>
