<svg width="24" height="24" viewBox="0 0 24 24" fill="none" xmlns="http://www.w3.org/2000/svg">
<g clip-path="url(#clip0_3390_9652)">
<rect width="24" height="24" fill="white"/>
<path d="M7.97549 2.625L7.72549 5.3L9.90049 3.75L10.9755 5.65L8.57549 6.75L10.9755 7.85L9.90049 9.75L7.72549 8.225L7.97549 10.875H5.75049L6.02549 8.225L3.85049 9.75L2.75049 7.85L5.15049 6.75L2.77549 5.675L3.82549 3.775L6.02549 5.3L5.75049 2.625H7.97549ZM17.3255 11.175C16.6422 11.175 16.0172 11.0167 15.4505 10.7C14.9005 10.3667 14.4588 9.925 14.1255 9.375C13.8088 8.825 13.6505 8.21667 13.6505 7.55C13.6505 6.65 13.9672 5.75 14.6005 4.85C15.2338 3.95 16.1422 3.00833 17.3255 2.025C18.5088 3.00833 19.4172 3.95 20.0505 4.85C20.6838 5.75 21.0005 6.65 21.0005 7.55C21.0005 8.21667 20.8338 8.825 20.5005 9.375C20.1838 9.925 19.7422 10.3667 19.1755 10.7C18.6255 11.0167 18.0088 11.175 17.3255 11.175ZM17.3255 9.125C17.7755 9.125 18.1505 8.975 18.4505 8.675C18.7672 8.35833 18.9255 7.975 18.9255 7.525C18.9255 7.075 18.7672 6.61667 18.4505 6.15C18.1338 5.68333 17.6755 5.14167 17.0755 4.525H17.5755C16.9755 5.14167 16.5172 5.68333 16.2005 6.15C15.8838 6.61667 15.7255 7.075 15.7255 7.525C15.7255 7.975 15.8755 8.35833 16.1755 8.675C16.4922 8.975 16.8755 9.125 17.3255 9.125ZM13.6755 13.675H21.0005V21H13.6755V13.675ZM18.9505 19V15.675H15.7255V19H18.9505ZM6.87549 21.275C6.12549 21.275 5.44216 21.1 4.82549 20.75C4.20882 20.3833 3.71716 19.9 3.35049 19.3C3.00049 18.6833 2.82549 18.0083 2.82549 17.275C2.82549 16.5417 3.00049 15.8667 3.35049 15.25C3.71716 14.6333 4.20882 14.15 4.82549 13.8C5.44216 13.4333 6.12549 13.25 6.87549 13.25C7.60882 13.25 8.28382 13.4333 8.90049 13.8C9.51716 14.15 10.0005 14.6333 10.3505 15.25C10.7172 15.8667 10.9005 16.5417 10.9005 17.275C10.9005 18.0083 10.7172 18.6833 10.3505 19.3C10.0005 19.9 9.51716 20.3833 8.90049 20.75C8.28382 21.1 7.60882 21.275 6.87549 21.275ZM6.87549 19.175C7.40882 19.175 7.85882 18.9917 8.22549 18.625C8.59216 18.2583 8.77549 17.8083 8.77549 17.275C8.77549 16.7417 8.59216 16.2917 8.22549 15.925C7.85882 15.5417 7.40882 15.35 6.87549 15.35C6.34216 15.35 5.88382 15.5417 5.50049 15.925C5.13382 16.2917 4.95049 16.7417 4.95049 17.275C4.95049 17.8083 5.13382 18.2583 5.50049 18.625C5.88382 18.9917 6.34216 19.175 6.87549 19.175Z" fill="black"/>
</g>
<defs>
<clipPath id="clip0_3390_9652">
<rect width="24" height="24" fill="white"/>
</clipPath>
</defs>
</svg>
