<svg width="24" height="24" viewBox="0 0 24 24" fill="none" xmlns="http://www.w3.org/2000/svg">
<g clip-path="url(#clip0_3190_33663)">
<rect width="24" height="24" fill="white"/>
<path d="M12 4.2C10.5667 4.2 9.25833 4.55 8.075 5.25C6.89167 5.93333 5.95833 6.875 5.275 8.075C4.59167 9.25833 4.25 10.5667 4.25 12C4.25 13.1667 4.48333 14.2583 4.95 15.275C5.43333 16.2917 6.08333 17.1583 6.9 17.875L5.45 19.55C4.36667 18.6333 3.51667 17.525 2.9 16.225C2.3 14.9083 2 13.5 2 12C2 10.1667 2.44167 8.48333 3.325 6.95C4.20833 5.41667 5.41667 4.20833 6.95 3.325C8.48333 2.44167 10.1667 2 12 2C13.8333 2 15.5167 2.44167 17.05 3.325C18.5833 4.20833 19.7917 5.41667 20.675 6.95C21.5583 8.48333 22 10.1667 22 12C22 13.5 21.6917 14.9083 21.075 16.225C20.475 17.525 19.6333 18.6333 18.55 19.55L17.1 17.875C17.9333 17.1583 18.5833 16.3 19.05 15.3C19.5333 14.2833 19.775 13.1833 19.775 12C19.775 10.5667 19.425 9.25833 18.725 8.075C18.0417 6.875 17.1083 5.93333 15.925 5.25C14.7417 4.55 13.4333 4.2 12 4.2ZM12 8.725C11.4 8.725 10.85 8.875 10.35 9.175C9.86667 9.45833 9.475 9.85 9.175 10.35C8.89167 10.85 8.75 11.4 8.75 12C8.75 12.5 8.85 12.9667 9.05 13.4C9.26667 13.8333 9.55833 14.1917 9.925 14.475L8.475 16.175C7.85833 15.6583 7.375 15.0417 7.025 14.325C6.69167 13.6083 6.525 12.8333 6.525 12C6.525 10.9833 6.76667 10.0583 7.25 9.225C7.73333 8.39167 8.39167 7.73333 9.225 7.25C10.0583 6.76667 10.9833 6.525 12 6.525C13.0167 6.525 13.9417 6.76667 14.775 7.25C15.6083 7.73333 16.2667 8.39167 16.75 9.225C17.2333 10.0583 17.475 10.9833 17.475 12C17.475 12.8333 17.3 13.6083 16.95 14.325C16.6167 15.0417 16.1417 15.6583 15.525 16.175L14.075 14.475C14.4417 14.1917 14.725 13.8333 14.925 13.4C15.1417 12.9667 15.25 12.5 15.25 12C15.25 11.4 15.1 10.85 14.8 10.35C14.5167 9.85 14.125 9.45833 13.625 9.175C13.1417 8.875 12.6 8.725 12 8.725ZM17.35 21H6.65L12 15.15L17.35 21Z" fill="black"/>
</g>
<defs>
<clipPath id="clip0_3190_33663">
<rect width="24" height="24" fill="white"/>
</clipPath>
</defs>
</svg>
