<svg width="24" height="24" viewBox="0 0 24 24" fill="none" xmlns="http://www.w3.org/2000/svg">
<g clip-path="url(#clip0_3190_33653)">
<rect width="24" height="24" fill="white"/>
<path d="M16.1005 21H7.90049L12.0005 15.125L16.1005 21ZM10.8755 18.25H13.1255H12.0005H10.8755ZM12.0005 5.225C10.7672 5.225 9.63382 5.525 8.60049 6.125C7.58382 6.725 6.77549 7.55 6.17549 8.6C5.57549 9.63333 5.27549 10.7667 5.27549 12C5.27549 13.1 5.50882 14.125 5.97549 15.075C6.44216 16.025 7.10049 16.825 7.95049 17.475L6.10049 20.15C4.83382 19.2167 3.83382 18.0417 3.10049 16.625C2.36716 15.2083 2.00049 13.6667 2.00049 12C2.00049 10.1667 2.44216 8.48333 3.32549 6.95C4.20882 5.41667 5.41716 4.20833 6.95049 3.325C8.48382 2.44167 10.1672 2 12.0005 2C13.8338 2 15.5172 2.44167 17.0505 3.325C18.5838 4.20833 19.7922 5.41667 20.6755 6.95C21.5588 8.48333 22.0005 10.1667 22.0005 12C22.0005 13.6667 21.6338 15.2083 20.9005 16.625C20.1838 18.0417 19.1922 19.2167 17.9255 20.15L16.0505 17.475C16.9005 16.8417 17.5588 16.05 18.0255 15.1C18.5088 14.15 18.7505 13.1167 18.7505 12C18.7505 10.7667 18.4505 9.63333 17.8505 8.6C17.2505 7.55 16.4338 6.725 15.4005 6.125C14.3672 5.525 13.2338 5.225 12.0005 5.225ZM12.0005 9.75C11.5838 9.75 11.2088 9.85 10.8755 10.05C10.5422 10.25 10.2755 10.525 10.0755 10.875C9.87549 11.2083 9.77549 11.5833 9.77549 12C9.77549 12.3333 9.84216 12.6583 9.97549 12.975C10.1088 13.275 10.2922 13.5333 10.5255 13.75L8.70049 16.4C8.03382 15.9 7.50882 15.2667 7.12549 14.5C6.74216 13.7167 6.55049 12.8833 6.55049 12C6.55049 11 6.79216 10.0833 7.27549 9.25C7.75882 8.41667 8.41716 7.75833 9.25049 7.275C10.0838 6.79167 11.0005 6.55 12.0005 6.55C13.0005 6.55 13.9172 6.79167 14.7505 7.275C15.5838 7.75833 16.2422 8.41667 16.7255 9.25C17.2088 10.0833 17.4505 11 17.4505 12C17.4505 12.8833 17.2588 13.7083 16.8755 14.475C16.4922 15.2417 15.9672 15.8833 15.3005 16.4L13.4505 13.75C13.7005 13.5333 13.8922 13.275 14.0255 12.975C14.1588 12.6583 14.2255 12.3333 14.2255 12C14.2255 11.5833 14.1255 11.2083 13.9255 10.875C13.7255 10.525 13.4588 10.25 13.1255 10.05C12.7922 9.85 12.4172 9.75 12.0005 9.75Z" fill="black"/>
</g>
<defs>
<clipPath id="clip0_3190_33653">
<rect width="24" height="24" fill="white"/>
</clipPath>
</defs>
</svg>
