<svg width="24" height="24" viewBox="0 0 24 24" fill="none" xmlns="http://www.w3.org/2000/svg">
<g clip-path="url(#clip0_3190_33623)">
<rect width="24" height="24" fill="white"/>
<path d="M5.17549 20C4.59216 20 4.05882 19.8583 3.57549 19.575C3.09216 19.2917 2.70882 18.9083 2.42549 18.425C2.14216 17.9417 2.00049 17.4083 2.00049 16.825V7.175C2.00049 6.59167 2.14216 6.05833 2.42549 5.575C2.70882 5.09167 3.09216 4.70833 3.57549 4.425C4.05882 4.14167 4.59216 4 5.17549 4H18.8255C19.4088 4 19.9422 4.14167 20.4255 4.425C20.9088 4.70833 21.2922 5.09167 21.5755 5.575C21.8588 6.05833 22.0005 6.59167 22.0005 7.175V16.825C22.0005 17.4083 21.8588 17.9417 21.5755 18.425C21.2922 18.9083 20.9088 19.2917 20.4255 19.575C19.9422 19.8583 19.4088 20 18.8255 20H5.17549ZM18.8005 17.65C19.0172 17.65 19.2005 17.575 19.3505 17.425C19.5172 17.2583 19.6005 17.0583 19.6005 16.825V7.175C19.6005 6.94167 19.5172 6.75 19.3505 6.6C19.2005 6.43333 19.0172 6.35 18.8005 6.35H5.20049C4.98382 6.35 4.79216 6.43333 4.62549 6.6C4.47549 6.75 4.40049 6.94167 4.40049 7.175V16.825C4.40049 17.0583 4.47549 17.2583 4.62549 17.425C4.79216 17.575 4.98382 17.65 5.20049 17.65H18.8005ZM8.80049 15.95C7.78382 15.95 6.97549 15.6 6.37549 14.9C5.79216 14.2 5.50049 13.2417 5.50049 12.025C5.50049 10.7917 5.80049 9.825 6.40049 9.125C7.01716 8.425 7.81716 8.075 8.80049 8.075C9.51716 8.075 10.1255 8.25833 10.6255 8.625C11.1422 8.99167 11.5005 9.5 11.7005 10.15L10.0255 10.925C9.90882 10.5917 9.75049 10.35 9.55049 10.2C9.36716 10.05 9.14216 9.975 8.87549 9.975C8.44216 9.975 8.10049 10.1583 7.85049 10.525C7.61716 10.8917 7.50049 11.3917 7.50049 12.025C7.50049 12.6417 7.61716 13.1333 7.85049 13.5C8.10049 13.8667 8.44216 14.05 8.87549 14.05C9.12549 14.05 9.35049 13.975 9.55049 13.825C9.75049 13.6583 9.90049 13.4083 10.0005 13.075L11.7005 13.85C11.4838 14.5 11.1172 15.0167 10.6005 15.4C10.1005 15.7667 9.50049 15.95 8.80049 15.95ZM15.5505 15.95C14.5338 15.95 13.7255 15.6 13.1255 14.9C12.5422 14.2 12.2505 13.2417 12.2505 12.025C12.2505 10.7917 12.5505 9.825 13.1505 9.125C13.7505 8.425 14.5505 8.075 15.5505 8.075C16.2505 8.075 16.8505 8.25833 17.3505 8.625C17.8672 8.99167 18.2338 9.5 18.4505 10.15L16.7505 10.925C16.6505 10.5917 16.5005 10.35 16.3005 10.2C16.1005 10.05 15.8672 9.975 15.6005 9.975C15.1838 9.975 14.8505 10.1583 14.6005 10.525C14.3672 10.8917 14.2505 11.3917 14.2505 12.025C14.2505 12.6417 14.3672 13.1333 14.6005 13.5C14.8505 13.8667 15.1838 14.05 15.6005 14.05C15.8505 14.05 16.0755 13.975 16.2755 13.825C16.4755 13.6583 16.6255 13.4083 16.7255 13.075L18.4255 13.85C18.2255 14.5 17.8672 15.0167 17.3505 15.4C16.8338 15.7667 16.2338 15.95 15.5505 15.95Z" fill="black"/>
</g>
<defs>
<clipPath id="clip0_3190_33623">
<rect width="24" height="24" fill="white"/>
</clipPath>
</defs>
</svg>
