<svg width="24" height="24" viewBox="0 0 24 24" fill="none" xmlns="http://www.w3.org/2000/svg">
<g clip-path="url(#clip0_3190_33633)">
<rect width="24" height="24" fill="white"/>
<path d="M21.275 19.275C20.7917 19.7583 20.2 20 19.5 20H4.5C3.8 20 3.20833 19.7583 2.725 19.275C2.24167 18.7917 2 18.2 2 17.5V6.5C2 5.8 2.24167 5.20833 2.725 4.725C3.20833 4.24167 3.8 4 4.5 4H19.5C20.2 4 20.7917 4.24167 21.275 4.725C21.7583 5.20833 22 5.8 22 6.5V17.5C22 18.2 21.7583 18.7917 21.275 19.275ZM5.875 14.95C6.49167 15.6667 7.325 16.025 8.375 16.025C9.10833 16.025 9.725 15.8417 10.225 15.475C10.7417 15.0917 11.1083 14.5833 11.325 13.95L10.2 13.45C10.05 13.8833 9.81667 14.225 9.5 14.475C9.18333 14.7083 8.81667 14.825 8.4 14.825C7.76667 14.825 7.25833 14.575 6.875 14.075C6.49167 13.5583 6.3 12.875 6.3 12.025C6.3 11.1583 6.49167 10.475 6.875 9.975C7.25833 9.475 7.76667 9.225 8.4 9.225C8.83333 9.225 9.2 9.33333 9.5 9.55C9.81667 9.76667 10.05 10.1 10.2 10.55L11.35 10.05C11.1333 9.41667 10.7667 8.91667 10.25 8.55C9.73333 8.18333 9.10833 8 8.375 8C7.34167 8 6.50833 8.36667 5.875 9.1C5.25833 9.81667 4.95 10.7917 4.95 12.025C4.95 13.2583 5.25833 14.2333 5.875 14.95ZM13.425 14.95C14.0417 15.6667 14.875 16.025 15.925 16.025C16.6583 16.025 17.275 15.8417 17.775 15.475C18.2917 15.0917 18.6583 14.5833 18.875 13.95L17.75 13.45C17.6167 13.8833 17.3917 14.225 17.075 14.475C16.7583 14.7083 16.3917 14.825 15.975 14.825C15.325 14.825 14.8083 14.575 14.425 14.075C14.0417 13.5583 13.85 12.875 13.85 12.025C13.85 11.1583 14.0417 10.475 14.425 9.975C14.8083 9.475 15.325 9.225 15.975 9.225C16.3917 9.225 16.7583 9.33333 17.075 9.55C17.3917 9.76667 17.625 10.1 17.775 10.55L18.9 10.05C18.6833 9.41667 18.3167 8.91667 17.8 8.55C17.2833 8.18333 16.6583 8 15.925 8C14.9083 8 14.0833 8.36667 13.45 9.1C12.8167 9.81667 12.5 10.7917 12.5 12.025C12.5 13.2583 12.8083 14.2333 13.425 14.95Z" fill="black"/>
</g>
<defs>
<clipPath id="clip0_3190_33633">
<rect width="24" height="24" fill="white"/>
</clipPath>
</defs>
</svg>
