<svg width="24" height="24" viewBox="0 0 24 24" fill="none" xmlns="http://www.w3.org/2000/svg">
<g clip-path="url(#clip0_3190_33631)">
<rect width="24" height="24" fill="white"/>
<path d="M21.275 19.275C20.7917 19.7583 20.2 20 19.5 20H4.5C3.8 20 3.20833 19.7583 2.725 19.275C2.24167 18.7917 2 18.2 2 17.5V6.5C2 5.8 2.24167 5.20833 2.725 4.725C3.20833 4.24167 3.8 4 4.5 4H19.5C20.2 4 20.7917 4.24167 21.275 4.725C21.7583 5.20833 22 5.8 22 6.5V17.5C22 18.2 21.7583 18.7917 21.275 19.275ZM5.8 14.95C6.43333 15.65 7.275 16 8.325 16C9.04167 16 9.65833 15.825 10.175 15.475C10.6917 15.1083 11.0583 14.6167 11.275 14L10.5 13.65C10.35 14.1333 10.0833 14.5083 9.7 14.775C9.31667 15.0417 8.86667 15.175 8.35 15.175C7.56667 15.175 6.94167 14.8917 6.475 14.325C6.025 13.7583 5.8 12.9917 5.8 12.025C5.8 11.075 6.025 10.3167 6.475 9.75C6.94167 9.16667 7.56667 8.875 8.35 8.875C8.86667 8.875 9.31667 9.00833 9.7 9.275C10.0833 9.525 10.3583 9.9 10.525 10.4L11.3 10.075C11.0833 9.45833 10.7167 8.96667 10.2 8.6C9.68333 8.23333 9.05833 8.05 8.325 8.05C7.29167 8.05 6.45833 8.40833 5.825 9.125C5.19167 9.84167 4.875 10.8083 4.875 12.025C4.875 13.2583 5.18333 14.2333 5.8 14.95ZM13.45 14.95C14.0833 15.65 14.925 16 15.975 16C16.6917 16 17.3083 15.825 17.825 15.475C18.3417 15.1083 18.7083 14.6167 18.925 14L18.15 13.65C17.9833 14.1333 17.7083 14.5083 17.325 14.775C16.9417 15.0417 16.4917 15.175 15.975 15.175C15.2083 15.175 14.5917 14.8917 14.125 14.325C13.675 13.7583 13.45 12.9917 13.45 12.025C13.45 11.075 13.675 10.3167 14.125 9.75C14.5917 9.16667 15.2083 8.875 15.975 8.875C16.5083 8.875 16.9583 9.00833 17.325 9.275C17.7083 9.525 17.9833 9.9 18.15 10.4L18.95 10.075C18.7333 9.45833 18.3667 8.96667 17.85 8.6C17.3333 8.23333 16.7083 8.05 15.975 8.05C14.925 8.05 14.0833 8.40833 13.45 9.125C12.8333 9.84167 12.525 10.8083 12.525 12.025C12.525 13.2583 12.8333 14.2333 13.45 14.95Z" fill="black"/>
</g>
<defs>
<clipPath id="clip0_3190_33631">
<rect width="24" height="24" fill="white"/>
</clipPath>
</defs>
</svg>
