<svg width="24" height="24" viewBox="0 0 24 24" fill="none" xmlns="http://www.w3.org/2000/svg">
<g clip-path="url(#clip0_3354_2695)">
<rect width="24" height="24" fill="white"/>
<path d="M5.50049 20C4.86716 20 4.27549 19.85 3.72549 19.55C3.19216 19.2333 2.76716 18.8083 2.45049 18.275C2.15049 17.725 2.00049 17.1333 2.00049 16.5V7.5C2.00049 6.86667 2.15049 6.28333 2.45049 5.75C2.76716 5.2 3.19216 4.775 3.72549 4.475C4.27549 4.15833 4.86716 4 5.50049 4H18.5005C19.1338 4 19.7172 4.15833 20.2505 4.475C20.8005 4.775 21.2255 5.2 21.5255 5.75C21.8422 6.28333 22.0005 6.86667 22.0005 7.5V16.5C22.0005 17.1333 21.8422 17.725 21.5255 18.275C21.2255 18.8083 20.8005 19.2333 20.2505 19.55C19.7172 19.85 19.1338 20 18.5005 20H5.50049ZM18.3255 16.475C18.3422 16.475 18.3588 16.4667 18.3755 16.45C18.3922 16.4333 18.4005 16.4167 18.4005 16.4V7.625C18.4005 7.60833 18.3922 7.59167 18.3755 7.575C18.3588 7.55833 18.3422 7.55 18.3255 7.55H5.67549C5.65882 7.55 5.64216 7.55833 5.62549 7.575C5.60882 7.59167 5.60049 7.60833 5.60049 7.625V16.4C5.60049 16.4167 5.60882 16.4333 5.62549 16.45C5.64216 16.4667 5.65882 16.475 5.67549 16.475H18.3255ZM9.92549 15.8C8.82549 15.8 7.95882 15.475 7.32549 14.825C6.70882 14.175 6.40049 13.25 6.40049 12.05C6.40049 10.8667 6.70882 9.95 7.32549 9.3C7.95882 8.63333 8.82549 8.3 9.92549 8.3C10.3588 8.3 10.7088 8.34167 10.9755 8.425C11.2422 8.49167 11.5672 8.61667 11.9505 8.8L11.1505 10.95C10.9505 10.8167 10.7588 10.725 10.5755 10.675C10.4088 10.625 10.2172 10.6 10.0005 10.6C9.66716 10.6 9.40049 10.7417 9.20049 11.025C9.01716 11.3083 8.92549 11.65 8.92549 12.05C8.92549 12.45 9.01716 12.7917 9.20049 13.075C9.40049 13.3417 9.66716 13.475 10.0005 13.475C10.1838 13.475 10.3588 13.4417 10.5255 13.375C10.7088 13.3083 10.9172 13.2083 11.1505 13.075L11.9505 15.25C11.5338 15.45 11.1922 15.5917 10.9255 15.675C10.6755 15.7583 10.3422 15.8 9.92549 15.8ZM15.6005 15.8C14.5005 15.8 13.6338 15.475 13.0005 14.825C12.3838 14.175 12.0755 13.25 12.0755 12.05C12.0755 10.8667 12.3838 9.95 13.0005 9.3C13.6338 8.63333 14.5005 8.3 15.6005 8.3C16.0338 8.3 16.3838 8.34167 16.6505 8.425C16.9172 8.49167 17.2422 8.61667 17.6255 8.8L16.8255 10.95C16.6255 10.8167 16.4338 10.725 16.2505 10.675C16.0838 10.625 15.8922 10.6 15.6755 10.6C15.3422 10.6 15.0755 10.7417 14.8755 11.025C14.6922 11.3083 14.6005 11.65 14.6005 12.05C14.6005 12.45 14.6922 12.7917 14.8755 13.075C15.0755 13.3417 15.3422 13.475 15.6755 13.475C15.8588 13.475 16.0338 13.4417 16.2005 13.375C16.3838 13.3083 16.5922 13.2083 16.8255 13.075L17.6255 15.25C17.2088 15.45 16.8672 15.5917 16.6005 15.675C16.3505 15.7583 16.0172 15.8 15.6005 15.8Z" fill="black"/>
</g>
<defs>
<clipPath id="clip0_3354_2695">
<rect width="24" height="24" fill="white"/>
</clipPath>
</defs>
</svg>
