<svg width="24" height="24" viewBox="0 0 24 24" fill="none" xmlns="http://www.w3.org/2000/svg">
<g clip-path="url(#clip0_3354_2703)">
<rect width="24" height="24" fill="white"/>
<path d="M21.275 19.275C20.7917 19.7583 20.2 20 19.5 20H4.5C3.8 20 3.20833 19.7583 2.725 19.275C2.24167 18.7917 2 18.2 2 17.5V6.5C2 5.8 2.24167 5.20833 2.725 4.725C3.20833 4.24167 3.8 4 4.5 4H19.5C20.2 4 20.7917 4.24167 21.275 4.725C21.7583 5.20833 22 5.8 22 6.5V17.5C22 18.2 21.7583 18.7917 21.275 19.275ZM5.925 14.95C6.54167 15.6667 7.375 16.025 8.425 16.025C9.15833 16.025 9.775 15.8333 10.275 15.45C10.7917 15.0667 11.1583 14.5583 11.375 13.925L9.875 13.25C9.75833 13.65 9.575 13.95 9.325 14.15C9.075 14.35 8.79167 14.45 8.475 14.45C7.95833 14.45 7.55 14.2333 7.25 13.8C6.95 13.35 6.8 12.75 6.8 12C6.8 11.25 6.95 10.6583 7.25 10.225C7.55 9.775 7.95833 9.55 8.475 9.55C8.80833 9.55 9.09167 9.64167 9.325 9.825C9.575 10.0083 9.76667 10.3 9.9 10.7L11.4 10.05C11.1833 9.4 10.8167 8.89167 10.3 8.525C9.78333 8.14167 9.15833 7.95 8.425 7.95C7.40833 7.95 6.58333 8.31667 5.95 9.05C5.33333 9.76667 5.025 10.75 5.025 12C5.025 13.25 5.325 14.2333 5.925 14.95ZM13.4 14.95C14.0167 15.6667 14.85 16.025 15.9 16.025C16.6333 16.025 17.25 15.8333 17.75 15.45C18.2667 15.0667 18.6333 14.5583 18.85 13.925L17.35 13.25C17.2333 13.65 17.05 13.95 16.8 14.15C16.55 14.35 16.2667 14.45 15.95 14.45C15.4333 14.45 15.025 14.2333 14.725 13.8C14.425 13.35 14.275 12.75 14.275 12C14.275 11.25 14.425 10.6583 14.725 10.225C15.025 9.775 15.4333 9.55 15.95 9.55C16.2833 9.55 16.5667 9.64167 16.8 9.825C17.05 10.0083 17.2417 10.3 17.375 10.7L18.875 10.05C18.6583 9.4 18.2917 8.89167 17.775 8.525C17.2583 8.14167 16.6333 7.95 15.9 7.95C14.8833 7.95 14.0583 8.31667 13.425 9.05C12.8083 9.76667 12.5 10.75 12.5 12C12.5 13.25 12.8 14.2333 13.4 14.95Z" fill="black"/>
</g>
<defs>
<clipPath id="clip0_3354_2703">
<rect width="24" height="24" fill="white"/>
</clipPath>
</defs>
</svg>
