<svg width="24" height="24" viewBox="0 0 24 24" fill="none" xmlns="http://www.w3.org/2000/svg">
<g clip-path="url(#clip0_3190_34287)">
<rect width="24" height="24" fill="white"/>
<path d="M12 22C10.1667 22 8.48333 21.5583 6.95 20.675C5.41667 19.7917 4.20833 18.5833 3.325 17.05C2.44167 15.5167 2 13.8333 2 12C2 10.1667 2.44167 8.48333 3.325 6.95C4.20833 5.41667 5.41667 4.20833 6.95 3.325C8.48333 2.44167 10.1667 2 12 2C13.8333 2 15.5167 2.44167 17.05 3.325C18.5833 4.20833 19.7917 5.41667 20.675 6.95C21.5583 8.48333 22 10.1667 22 12C22 13.8333 21.5583 15.5167 20.675 17.05C19.7917 18.5833 18.5833 19.7917 17.05 20.675C15.5167 21.5583 13.8333 22 12 22ZM12 13.7C12.4833 13.7 12.8833 13.5417 13.2 13.225C13.5333 12.8917 13.7 12.4833 13.7 12C13.7 11.5167 13.5333 11.1167 13.2 10.8C12.8833 10.4667 12.4833 10.3 12 10.3C11.5167 10.3 11.1083 10.4667 10.775 10.8C10.4583 11.1167 10.3 11.5167 10.3 12C10.3 12.4833 10.4583 12.8917 10.775 13.225C11.1083 13.5417 11.5167 13.7 12 13.7ZM12 18.95C12.4667 18.95 12.9417 18.9 13.425 18.8C13.925 18.6833 14.375 18.5333 14.775 18.35L13.825 16.275C13.575 16.3917 13.2833 16.4833 12.95 16.55C12.6167 16.6167 12.3 16.65 12 16.65C11.1333 16.65 10.3417 16.4417 9.625 16.025C8.90833 15.5917 8.34167 15.0083 7.925 14.275C7.525 13.5417 7.33333 12.7417 7.35 11.875H5.05C5.03333 13.1417 5.33333 14.325 5.95 15.425C6.56667 16.5083 7.40833 17.3667 8.475 18C9.55833 18.6333 10.7333 18.95 12 18.95ZM18.95 12.125C18.9667 10.8417 18.6667 9.65833 18.05 8.575C17.4333 7.49167 16.5917 6.63333 15.525 6C14.4583 5.36667 13.2833 5.05 12 5.05C11.5333 5.05 11.0583 5.10833 10.575 5.225C10.0917 5.325 9.64167 5.46667 9.225 5.65L10.175 7.725C10.425 7.60833 10.7167 7.51667 11.05 7.45C11.3833 7.38333 11.7 7.35 12 7.35C12.8667 7.35 13.6583 7.56667 14.375 8C15.1083 8.41667 15.675 8.99167 16.075 9.725C16.4917 10.4583 16.6833 11.2583 16.65 12.125H18.95Z" fill="black"/>
</g>
<defs>
<clipPath id="clip0_3190_34287">
<rect width="24" height="24" fill="white"/>
</clipPath>
</defs>
</svg>
