<svg width="24" height="24" viewBox="0 0 24 24" fill="none" xmlns="http://www.w3.org/2000/svg">
<g clip-path="url(#clip0_3354_2744)">
<rect width="24" height="24" fill="white"/>
<path d="M12 22C10.1667 22 8.48333 21.5583 6.95 20.675C5.41667 19.7917 4.20833 18.5833 3.325 17.05C2.44167 15.5167 2 13.8333 2 12C2 10.1667 2.44167 8.48333 3.325 6.95C4.20833 5.41667 5.41667 4.20833 6.95 3.325C8.48333 2.44167 10.1667 2 12 2C13.8333 2 15.5167 2.44167 17.05 3.325C18.5833 4.20833 19.7917 5.41667 20.675 6.95C21.5583 8.48333 22 10.1667 22 12C22 13.8333 21.5583 15.5167 20.675 17.05C19.7917 18.5833 18.5833 19.7917 17.05 20.675C15.5167 21.5583 13.8333 22 12 22ZM12 14.125C12.6 14.125 13.1 13.925 13.5 13.525C13.9167 13.1083 14.125 12.6 14.125 12C14.125 11.4 13.9167 10.9 13.5 10.5C13.1 10.0833 12.6 9.875 12 9.875C11.4 9.875 10.8917 10.0833 10.475 10.5C10.075 10.9 9.875 11.4 9.875 12C9.875 12.6 10.075 13.1083 10.475 13.525C10.8917 13.925 11.4 14.125 12 14.125ZM12 19.4C12.55 19.4 13.1167 19.3333 13.7 19.2C14.2833 19.0667 14.7833 18.8917 15.2 18.675L13.95 16.1C13.7 16.2333 13.3917 16.3417 13.025 16.425C12.6583 16.4917 12.3167 16.525 12 16.525C11.1333 16.525 10.3417 16.3083 9.625 15.875C8.90833 15.425 8.35833 14.825 7.975 14.075C7.59167 13.3083 7.43333 12.4833 7.5 11.6H4.625C4.55833 13 4.84167 14.3 5.475 15.5C6.125 16.7 7.025 17.65 8.175 18.35C9.34167 19.05 10.6167 19.4 12 19.4ZM19.375 12.4C19.4417 11 19.15 9.7 18.5 8.5C17.8667 7.3 16.975 6.35 15.825 5.65C14.675 4.95 13.4 4.6 12 4.6C11.4333 4.6 10.8667 4.66667 10.3 4.8C9.75 4.93333 9.25833 5.10833 8.825 5.325L10.05 7.9C10.3 7.76667 10.6083 7.66667 10.975 7.6C11.3417 7.51667 11.6833 7.475 12 7.475C12.8833 7.475 13.6833 7.7 14.4 8.15C15.1167 8.58333 15.6667 9.175 16.05 9.925C16.4333 10.675 16.5917 11.5 16.525 12.4H19.375Z" fill="black"/>
</g>
<defs>
<clipPath id="clip0_3354_2744">
<rect width="24" height="24" fill="white"/>
</clipPath>
</defs>
</svg>
