<svg width="24" height="24" viewBox="0 0 24 24" fill="none" xmlns="http://www.w3.org/2000/svg">
<g clip-path="url(#clip0_3190_34597)">
<rect width="24" height="24" fill="white"/>
<path d="M21.275 19.275C20.7917 19.7583 20.2 20 19.5 20H4.5C3.8 20 3.20833 19.7583 2.725 19.275C2.24167 18.7917 2 18.2 2 17.5V6.5C2 5.8 2.24167 5.20833 2.725 4.725C3.20833 4.24167 3.8 4 4.5 4H19.5C20.2 4 20.7917 4.24167 21.275 4.725C21.7583 5.20833 22 5.8 22 6.5V17.5C22 18.2 21.7583 18.7917 21.275 19.275ZM5.225 8.25V16.025H6.975V12.85H9.575V16.025H11.325V8.25H9.575V11.3H6.975V8.25H5.225ZM13.075 8.175V15.95H16.075C16.7417 15.95 17.325 15.8 17.825 15.5C18.325 15.1833 18.7083 14.7333 18.975 14.15C19.2417 13.5667 19.375 12.875 19.375 12.075C19.375 11.275 19.2333 10.5833 18.95 10C18.6833 9.41667 18.3 8.96667 17.8 8.65C17.3167 8.33333 16.7417 8.175 16.075 8.175H13.075ZM17.175 13.8C16.9083 14.1833 16.5333 14.375 16.05 14.375H14.825V9.75H16.05C16.5333 9.75 16.9083 9.95 17.175 10.35C17.4417 10.75 17.575 11.325 17.575 12.075C17.575 12.825 17.4417 13.4 17.175 13.8Z" fill="black"/>
</g>
<defs>
<clipPath id="clip0_3190_34597">
<rect width="24" height="24" fill="white"/>
</clipPath>
</defs>
</svg>
