<svg width="24" height="24" viewBox="0 0 24 24" fill="none" xmlns="http://www.w3.org/2000/svg">
<g clip-path="url(#clip0_3190_34591)">
<rect width="24" height="24" fill="white"/>
<path d="M21.275 19.275C20.7917 19.7583 20.2 20 19.5 20H4.5C3.8 20 3.20833 19.7583 2.725 19.275C2.24167 18.7917 2 18.2 2 17.5V6.5C2 5.8 2.24167 5.20833 2.725 4.725C3.20833 4.24167 3.8 4 4.5 4H19.5C20.2 4 20.7917 4.24167 21.275 4.725C21.7583 5.20833 22 5.8 22 6.5V17.5C22 18.2 21.7583 18.7917 21.275 19.275ZM5.4 8.25V16.025H5.9V12.25H10.225V16.025H10.725V8.25H10.225V11.775H5.9V8.25H5.4ZM13.3 8.175V15.95H15.55C16.6167 15.95 17.4417 15.6167 18.025 14.95C18.6083 14.2667 18.9 13.3083 18.9 12.075C18.9 10.825 18.6083 9.86667 18.025 9.2C17.4417 8.51667 16.6167 8.175 15.55 8.175H13.3ZM17.65 14.6C17.1667 15.1833 16.4667 15.475 15.55 15.475H13.8V8.65H15.55C16.4833 8.65 17.1917 8.94167 17.675 9.525C18.1583 10.1083 18.4 10.9583 18.4 12.075C18.4 13.175 18.15 14.0167 17.65 14.6Z" fill="black"/>
</g>
<defs>
<clipPath id="clip0_3190_34591">
<rect width="24" height="24" fill="white"/>
</clipPath>
</defs>
</svg>
