<svg width="24" height="24" viewBox="0 0 24 24" fill="none" xmlns="http://www.w3.org/2000/svg">
<g clip-path="url(#clip0_3190_34601)">
<rect width="24" height="24" fill="white"/>
<path d="M21.275 19.275C20.7917 19.7583 20.2 20 19.5 20H4.5C3.8 20 3.20833 19.7583 2.725 19.275C2.24167 18.7917 2 18.2 2 17.5V6.5C2 5.8 2.24167 5.20833 2.725 4.725C3.20833 4.24167 3.8 4 4.5 4H19.5C20.2 4 20.7917 4.24167 21.275 4.725C21.7583 5.20833 22 5.8 22 6.5V17.5C22 18.2 21.7583 18.7917 21.275 19.275ZM4.95 8.3V15.95H7.4V13.15H8.925V15.95H11.375V8.3H8.925V11.025H7.4V8.3H4.95ZM12.9 8.225V15.875H16.35C16.9833 15.875 17.55 15.7167 18.05 15.4C18.55 15.0833 18.9417 14.6333 19.225 14.05C19.525 13.4667 19.675 12.8083 19.675 12.075C19.675 11.3083 19.525 10.6333 19.225 10.05C18.925 9.46667 18.525 9.01667 18.025 8.7C17.525 8.38333 16.9667 8.225 16.35 8.225H12.9ZM16.875 13.3C16.6917 13.5833 16.45 13.725 16.15 13.725H15.4V10.375H16.15C16.45 10.375 16.6917 10.525 16.875 10.825C17.0583 11.1083 17.15 11.525 17.15 12.075C17.15 12.5917 17.0583 13 16.875 13.3Z" fill="black"/>
</g>
<defs>
<clipPath id="clip0_3190_34601">
<rect width="24" height="24" fill="white"/>
</clipPath>
</defs>
</svg>
