<svg width="24" height="24" viewBox="0 0 24 24" fill="none" xmlns="http://www.w3.org/2000/svg">
<g clip-path="url(#clip0_3190_34579)">
<rect width="24" height="24" fill="white"/>
<path d="M4.67549 20C4.17549 20 3.71716 19.8833 3.30049 19.65C2.90049 19.4167 2.58382 19.1 2.35049 18.7C2.11716 18.2833 2.00049 17.825 2.00049 17.325V6.675C2.00049 6.175 2.11716 5.725 2.35049 5.325C2.58382 4.90833 2.90049 4.58333 3.30049 4.35C3.71716 4.11667 4.17549 4 4.67549 4H19.3255C19.8255 4 20.2755 4.11667 20.6755 4.35C21.0922 4.58333 21.4172 4.90833 21.6505 5.325C21.8838 5.725 22.0005 6.175 22.0005 6.675V17.325C22.0005 17.825 21.8838 18.2833 21.6505 18.7C21.4172 19.1 21.0922 19.4167 20.6755 19.65C20.2755 19.8833 19.8255 20 19.3255 20H4.67549ZM19.3255 19.075C19.8088 19.075 20.2172 18.9083 20.5505 18.575C20.8838 18.225 21.0505 17.8083 21.0505 17.325V6.675C21.0505 6.175 20.8838 5.75833 20.5505 5.425C20.2172 5.09167 19.8088 4.925 19.3255 4.925H4.67549C4.19216 4.925 3.78382 5.09167 3.45049 5.425C3.11716 5.75833 2.95049 6.175 2.95049 6.675V17.325C2.95049 17.8083 3.11716 18.225 3.45049 18.575C3.78382 18.9083 4.19216 19.075 4.67549 19.075H19.3255ZM5.47549 8.125H6.37549V11.5H10.1255V8.125H11.0505V15.9H10.1255V12.325H6.37549V15.9H5.47549V8.125ZM13.0505 8.05H15.5505C16.2505 8.05 16.8422 8.20833 17.3255 8.525C17.8255 8.825 18.2088 9.26667 18.4755 9.85C18.7422 10.4333 18.8755 11.1333 18.8755 11.95C18.8755 12.7667 18.7422 13.4667 18.4755 14.05C18.2255 14.6333 17.8505 15.075 17.3505 15.375C16.8505 15.675 16.2505 15.825 15.5505 15.825H13.0505V8.05ZM15.5255 14.975C16.3088 14.975 16.9088 14.7167 17.3255 14.2C17.7422 13.6833 17.9505 12.9333 17.9505 11.95C17.9505 10.95 17.7422 10.1917 17.3255 9.675C16.9088 9.15833 16.3088 8.9 15.5255 8.9H13.9505V14.975H15.5255Z" fill="black"/>
</g>
<defs>
<clipPath id="clip0_3190_34579">
<rect width="24" height="24" fill="white"/>
</clipPath>
</defs>
</svg>
