<svg width="24" height="24" viewBox="0 0 24 24" fill="none" xmlns="http://www.w3.org/2000/svg">
<g clip-path="url(#clip0_3190_34587)">
<rect width="24" height="24" fill="white"/>
<path d="M5.32549 20C4.72549 20 4.16716 19.85 3.65049 19.55C3.15049 19.25 2.75049 18.85 2.45049 18.35C2.15049 17.8333 2.00049 17.275 2.00049 16.675V7.325C2.00049 6.725 2.15049 6.175 2.45049 5.675C2.75049 5.15833 3.15049 4.75 3.65049 4.45C4.16716 4.15 4.72549 4 5.32549 4H18.6755C19.2755 4 19.8255 4.15 20.3255 4.45C20.8422 4.75 21.2505 5.15833 21.5505 5.675C21.8505 6.175 22.0005 6.725 22.0005 7.325V16.675C22.0005 17.275 21.8505 17.8333 21.5505 18.35C21.2505 18.85 20.8422 19.25 20.3255 19.55C19.8255 19.85 19.2755 20 18.6755 20H5.32549ZM18.5505 17.05C18.6672 17.05 18.7672 17.0083 18.8505 16.925C18.9338 16.825 18.9755 16.7167 18.9755 16.6V7.425C18.9755 7.29167 18.9338 7.18333 18.8505 7.1C18.7672 7.01667 18.6672 6.975 18.5505 6.975H5.45049C5.33382 6.975 5.23382 7.01667 5.15049 7.1C5.06716 7.18333 5.02549 7.29167 5.02549 7.425V16.6C5.02549 16.7167 5.06716 16.825 5.15049 16.925C5.23382 17.0083 5.33382 17.05 5.45049 17.05H18.5505ZM5.95049 8.35H8.07549V10.95H9.47549V8.35H11.6005V15.65H9.47549V12.975H8.07549V15.65H5.95049V8.35ZM12.4005 8.3H15.4255C15.9755 8.3 16.4672 8.45833 16.9005 8.775C17.3505 9.075 17.7005 9.5 17.9505 10.05C18.2172 10.6 18.3505 11.2417 18.3505 11.975C18.3505 12.675 18.2255 13.3 17.9755 13.85C17.7255 14.4 17.3755 14.8333 16.9255 15.15C16.4755 15.45 15.9755 15.6 15.4255 15.6H12.4005V8.3ZM15.2505 13.55C15.5172 13.55 15.7338 13.4167 15.9005 13.15C16.0672 12.8667 16.1505 12.475 16.1505 11.975C16.1505 11.4417 16.0672 11.0417 15.9005 10.775C15.7338 10.4917 15.5172 10.35 15.2505 10.35H14.5505V13.55H15.2505Z" fill="black"/>
</g>
<defs>
<clipPath id="clip0_3190_34587">
<rect width="24" height="24" fill="white"/>
</clipPath>
</defs>
</svg>
