<svg width="24" height="24" viewBox="0 0 24 24" fill="none" xmlns="http://www.w3.org/2000/svg">
<g clip-path="url(#clip0_3190_33528)">
<rect width="24" height="24" fill="white"/>
<path d="M4.50049 20C4.03382 20 3.60882 19.8917 3.22549 19.675C2.85882 19.4417 2.55882 19.1417 2.32549 18.775C2.10882 18.3917 2.00049 17.9667 2.00049 17.5V6.5C2.00049 6.05 2.10882 5.63333 2.32549 5.25C2.55882 4.86667 2.85882 4.56667 3.22549 4.35C3.60882 4.11667 4.03382 4 4.50049 4H19.5005C19.9505 4 20.3672 4.11667 20.7505 4.35C21.1338 4.56667 21.4338 4.86667 21.6505 5.25C21.8838 5.63333 22.0005 6.05 22.0005 6.5V17.5C22.0005 17.9667 21.8838 18.3917 21.6505 18.775C21.4338 19.1417 21.1338 19.4417 20.7505 19.675C20.3672 19.8917 19.9505 20 19.5005 20H4.50049ZM19.5005 19.525C20.0672 19.525 20.5422 19.3333 20.9255 18.95C21.3088 18.55 21.5005 18.0667 21.5005 17.5V6.5C21.5005 5.93333 21.3088 5.45833 20.9255 5.075C20.5422 4.675 20.0672 4.475 19.5005 4.475H4.50049C3.93382 4.475 3.45882 4.675 3.07549 5.075C2.69216 5.45833 2.50049 5.93333 2.50049 6.5V17.5C2.50049 18.0667 2.69216 18.55 3.07549 18.95C3.45882 19.3333 3.93382 19.525 4.50049 19.525H19.5005ZM5.52549 8.125H6.02549V11.65H10.3505V8.125H10.8505V15.9H10.3505V12.125H6.02549V15.9H5.52549V8.125ZM13.1755 8.05H15.4255C16.4922 8.05 17.3172 8.39167 17.9005 9.075C18.4838 9.74167 18.7755 10.6917 18.7755 11.925C18.7755 13.175 18.4838 14.1417 17.9005 14.825C17.3172 15.4917 16.4922 15.825 15.4255 15.825H13.1755V8.05ZM15.4255 15.35C16.3422 15.35 17.0422 15.0583 17.5255 14.475C18.0255 13.8917 18.2755 13.05 18.2755 11.95C18.2755 10.8333 18.0338 9.98333 17.5505 9.4C17.0672 8.81667 16.3588 8.525 15.4255 8.525H13.6755V15.35H15.4255Z" fill="black"/>
</g>
<defs>
<clipPath id="clip0_3190_33528">
<rect width="24" height="24" fill="white"/>
</clipPath>
</defs>
</svg>
