<svg width="24" height="24" viewBox="0 0 24 24" fill="none" xmlns="http://www.w3.org/2000/svg">
<g clip-path="url(#clip0_3190_34591)">
<rect width="24" height="24" fill="white"/>
<path d="M21.275 19.275C20.7917 19.7583 20.2 20 19.5 20H4.5C3.8 20 3.20833 19.7583 2.725 19.275C2.24167 18.7917 2 18.2 2 17.5V6.5C2 5.8 2.24167 5.20833 2.725 4.725C3.20833 4.24167 3.8 4 4.5 4H19.5C20.2 4 20.7917 4.24167 21.275 4.725C21.7583 5.20833 22 5.8 22 6.5V17.5C22 18.2 21.7583 18.7917 21.275 19.275ZM5.4 8.25V16.025H5.9V12.25H10.225V16.025H10.725V8.25H10.225V11.775H5.9V8.25H5.4ZM13.3 8.175V15.95H15.55C16.2667 15.95 16.875 15.8 17.375 15.5C17.875 15.2 18.25 14.7583 18.5 14.175C18.7667 13.5917 18.9 12.8917 18.9 12.075C18.9 11.2417 18.7667 10.5333 18.5 9.95C18.25 9.36667 17.875 8.925 17.375 8.625C16.875 8.325 16.2667 8.175 15.55 8.175H13.3ZM17.65 14.6C17.1667 15.1833 16.4667 15.475 15.55 15.475H13.8V8.65H15.55C16.4833 8.65 17.1917 8.94167 17.675 9.525C18.1583 10.1083 18.4 10.9583 18.4 12.075C18.4 13.175 18.15 14.0167 17.65 14.6Z" fill="black"/>
</g>
<defs>
<clipPath id="clip0_3190_34591">
<rect width="24" height="24" fill="white"/>
</clipPath>
</defs>
</svg>
