<svg width="24" height="24" viewBox="0 0 24 24" fill="none" xmlns="http://www.w3.org/2000/svg">
<g clip-path="url(#clip0_3190_34455)">
<rect width="24" height="24" fill="white"/>
<path d="M5.17549 20C4.59216 20 4.05882 19.8583 3.57549 19.575C3.09216 19.2917 2.70882 18.9083 2.42549 18.425C2.14216 17.9417 2.00049 17.4083 2.00049 16.825V7.175C2.00049 6.59167 2.14216 6.05833 2.42549 5.575C2.70882 5.09167 3.09216 4.70833 3.57549 4.425C4.05882 4.14167 4.59216 4 5.17549 4H18.8255C19.4088 4 19.9422 4.14167 20.4255 4.425C20.9088 4.70833 21.2922 5.09167 21.5755 5.575C21.8588 6.05833 22.0005 6.59167 22.0005 7.175V16.825C22.0005 17.4083 21.8588 17.9417 21.5755 18.425C21.2922 18.9083 20.9088 19.2917 20.4255 19.575C19.9422 19.8583 19.4088 20 18.8255 20H5.17549ZM18.8005 17.65C19.0172 17.65 19.2005 17.575 19.3505 17.425C19.5172 17.2583 19.6005 17.0583 19.6005 16.825V7.175C19.6005 6.94167 19.5172 6.75 19.3505 6.6C19.2005 6.43333 19.0172 6.35 18.8005 6.35H5.20049C4.98382 6.35 4.79216 6.43333 4.62549 6.6C4.47549 6.75 4.40049 6.94167 4.40049 7.175V16.825C4.40049 17.0583 4.47549 17.2583 4.62549 17.425C4.79216 17.575 4.98382 17.65 5.20049 17.65H18.8005ZM5.55049 8.25H7.50049V11.1H9.50049V8.25H11.4255V15.775H9.50049V12.85H7.50049V15.775H5.55049V8.25ZM16.4005 15.75C16.0672 15.85 15.7422 15.9 15.4255 15.9C14.4422 15.9 13.6588 15.55 13.0755 14.85C12.4922 14.15 12.2005 13.2083 12.2005 12.025C12.2005 10.825 12.4922 9.875 13.0755 9.175C13.6588 8.475 14.4422 8.125 15.4255 8.125C16.4088 8.125 17.1922 8.475 17.7755 9.175C18.3755 9.875 18.6755 10.825 18.6755 12.025C18.6755 12.6583 18.5838 13.225 18.4005 13.725C18.2338 14.225 17.9755 14.6333 17.6255 14.95L18.4755 16.6H16.8255L16.4005 15.75ZM15.4255 14.1C15.4755 14.1 15.5255 14.1 15.5755 14.1L14.7755 12.525H16.1005L16.4755 13.225C16.5422 13.0583 16.6005 12.875 16.6505 12.675C16.7005 12.475 16.7255 12.2583 16.7255 12.025C16.7255 11.325 16.6172 10.8 16.4005 10.45C16.1838 10.1 15.8588 9.925 15.4255 9.925C14.9922 9.925 14.6672 10.1 14.4505 10.45C14.2505 10.8 14.1505 11.325 14.1505 12.025C14.1505 12.725 14.2505 13.25 14.4505 13.6C14.6672 13.9333 14.9922 14.1 15.4255 14.1Z" fill="black"/>
</g>
<defs>
<clipPath id="clip0_3190_34455">
<rect width="24" height="24" fill="white"/>
</clipPath>
</defs>
</svg>
