<svg width="24" height="24" viewBox="0 0 24 24" fill="none" xmlns="http://www.w3.org/2000/svg">
<g clip-path="url(#clip0_3190_34097)">
<rect width="24" height="24" fill="white"/>
<path d="M3 5.5H21V21H3V5.5ZM19 3V3.475H5V3H19ZM7.4 15.025C7.11667 15.2917 6.975 15.6333 6.975 16.05C6.975 16.4833 7.11667 16.8333 7.4 17.1C7.7 17.3667 8.11667 17.5 8.65 17.5C9.25 17.5 9.73333 17.3333 10.1 17C10.4667 16.6667 10.65 16.2667 10.65 15.8V11.225H15.075V15.375C14.7917 14.875 14.2917 14.625 13.575 14.625C13.075 14.625 12.6667 14.775 12.35 15.075C12.05 15.3583 11.9 15.6833 11.9 16.05C11.9 16.4333 12.05 16.775 12.35 17.075C12.6667 17.3583 13.075 17.5 13.575 17.5C14.175 17.5 14.6583 17.3333 15.025 17C15.3917 16.6667 15.575 16.2667 15.575 15.8V9.625H10.15V15.4C9.86667 14.8833 9.36667 14.625 8.65 14.625C8.11667 14.625 7.7 14.7583 7.4 15.025Z" fill="black"/>
</g>
<defs>
<clipPath id="clip0_3190_34097">
<rect width="24" height="24" fill="white"/>
</clipPath>
</defs>
</svg>
