<svg width="24" height="24" viewBox="0 0 24 24" fill="none" xmlns="http://www.w3.org/2000/svg">
<g clip-path="url(#clip0_3190_34085)">
<rect width="24" height="24" fill="white"/>
<path d="M3.95049 6.925V20.075H20.0505V6.925H3.95049ZM21.0005 21H3.00049V6H21.0005V21ZM5.00049 3.925V3H19.0005V3.925H5.00049ZM14.3755 10.225L15.1255 10.975H10.5505L10.0255 10.125H15.2755V15.725C15.2755 16.1417 15.1172 16.4833 14.8005 16.75C14.5005 17 14.1088 17.125 13.6255 17.125C13.1422 17.125 12.7505 17 12.4505 16.75C12.1505 16.4833 12.0005 16.15 12.0005 15.75C12.0005 15.3333 12.1505 15 12.4505 14.75C12.7505 14.4833 13.1422 14.35 13.6255 14.35C14.0922 14.35 14.4672 14.4833 14.7505 14.75C15.0505 15 15.2005 15.3333 15.2005 15.75L14.3755 15.125V10.225ZM13.6255 16.375C13.8755 16.375 14.0838 16.3167 14.2505 16.2C14.4172 16.0833 14.5005 15.9333 14.5005 15.75C14.5005 15.55 14.4172 15.3917 14.2505 15.275C14.0838 15.1583 13.8755 15.1 13.6255 15.1C13.3922 15.1 13.1922 15.1583 13.0255 15.275C12.8588 15.3917 12.7755 15.55 12.7755 15.75C12.7755 15.9333 12.8505 16.0833 13.0005 16.2C13.1672 16.3167 13.3755 16.375 13.6255 16.375ZM9.92549 10.125L10.8255 10.35V15.725C10.8255 16.1417 10.6672 16.4833 10.3505 16.75C10.0505 17 9.65882 17.125 9.17549 17.125C8.69216 17.125 8.30049 17 8.00049 16.75C7.70049 16.4833 7.55049 16.15 7.55049 15.75C7.55049 15.3333 7.70049 15 8.00049 14.75C8.30049 14.4833 8.69216 14.35 9.17549 14.35C9.64216 14.35 10.0172 14.4833 10.3005 14.75C10.6005 15 10.7505 15.3333 10.7505 15.75L9.92549 15.125V10.125ZM9.17549 16.375C9.42549 16.375 9.63382 16.3167 9.80049 16.2C9.96716 16.0833 10.0505 15.9333 10.0505 15.75C10.0505 15.55 9.96716 15.3917 9.80049 15.275C9.63382 15.1583 9.42549 15.1 9.17549 15.1C8.94216 15.1 8.74216 15.1583 8.57549 15.275C8.40882 15.3917 8.32549 15.55 8.32549 15.75C8.32549 15.9333 8.40049 16.0833 8.55049 16.2C8.71716 16.3167 8.92549 16.375 9.17549 16.375Z" fill="black"/>
</g>
<defs>
<clipPath id="clip0_3190_34085">
<rect width="24" height="24" fill="white"/>
</clipPath>
</defs>
</svg>
