<svg width="24" height="24" viewBox="0 0 24 24" fill="none" xmlns="http://www.w3.org/2000/svg">
<g clip-path="url(#clip0_3190_33490)">
<rect width="24" height="24" fill="white"/>
<path d="M3.50049 5.975V20.525H20.5005V5.975H3.50049ZM21.0005 21H3.00049V5.5H21.0005V21ZM5.00049 3.475V3H19.0005V3.475H5.00049ZM14.7505 10.05L15.0755 10.4H10.2005L10.0005 9.95H15.2255V15.625C15.2255 16.025 15.0838 16.35 14.8005 16.6C14.5172 16.8333 14.1588 16.95 13.7255 16.95C13.2922 16.95 12.9338 16.8333 12.6505 16.6C12.3838 16.3667 12.2505 16.0667 12.2505 15.7C12.2505 15.3333 12.3838 15.0333 12.6505 14.8C12.9338 14.5667 13.2922 14.45 13.7255 14.45C14.1422 14.45 14.4838 14.5667 14.7505 14.8C15.0172 15.0333 15.1505 15.3333 15.1505 15.7L14.7505 15.075V10.05ZM13.7255 16.5C14.0255 16.5 14.2672 16.425 14.4505 16.275C14.6505 16.125 14.7505 15.9333 14.7505 15.7C14.7505 15.4667 14.6505 15.275 14.4505 15.125C14.2672 14.975 14.0255 14.9 13.7255 14.9C13.4422 14.9 13.2005 14.975 13.0005 15.125C12.8172 15.275 12.7255 15.4667 12.7255 15.7C12.7255 15.9333 12.8172 16.125 13.0005 16.275C13.2005 16.425 13.4422 16.5 13.7255 16.5ZM10.0005 9.95L10.4755 10.175V15.625C10.4755 16.025 10.3338 16.35 10.0505 16.6C9.76716 16.8333 9.40882 16.95 8.97549 16.95C8.54216 16.95 8.18382 16.8333 7.90049 16.6C7.63382 16.3667 7.50049 16.0667 7.50049 15.7C7.50049 15.3333 7.63382 15.0333 7.90049 14.8C8.18382 14.5667 8.54216 14.45 8.97549 14.45C9.39216 14.45 9.73382 14.5667 10.0005 14.8C10.2672 15.0333 10.4005 15.3333 10.4005 15.7L10.0005 15.075V9.95ZM8.97549 16.5C9.27549 16.5 9.51716 16.425 9.70049 16.275C9.90049 16.125 10.0005 15.9333 10.0005 15.7C10.0005 15.4667 9.90049 15.275 9.70049 15.125C9.51716 14.975 9.27549 14.9 8.97549 14.9C8.69216 14.9 8.45049 14.975 8.25049 15.125C8.06716 15.275 7.97549 15.4667 7.97549 15.7C7.97549 15.9333 8.06716 16.125 8.25049 16.275C8.45049 16.425 8.69216 16.5 8.97549 16.5Z" fill="black"/>
</g>
<defs>
<clipPath id="clip0_3190_33490">
<rect width="24" height="24" fill="white"/>
</clipPath>
</defs>
</svg>
