<svg width="24" height="24" viewBox="0 0 24 24" fill="none" xmlns="http://www.w3.org/2000/svg">
<g clip-path="url(#clip0_3190_34107)">
<rect width="24" height="24" fill="white"/>
<path d="M3 7.675H21V21H3V7.675ZM19 3V5.65H5V3H19ZM7.6 16.05C7.36667 16.2833 7.25 16.6167 7.25 17.05C7.25 17.4667 7.39167 17.8 7.675 18.05C7.975 18.3 8.40833 18.425 8.975 18.425C9.59167 18.425 10.1 18.2833 10.5 18C10.9 17.7 11.1 17.3 11.1 16.8V12.65H13.85V15.7C13.7667 15.7 13.65 15.7 13.5 15.7C13.0833 15.7 12.75 15.8167 12.5 16.05C12.2667 16.2833 12.15 16.6167 12.15 17.05C12.15 17.4667 12.2917 17.8 12.575 18.05C12.8583 18.3 13.275 18.425 13.825 18.425C14.5083 18.425 15.0417 18.2833 15.425 18C15.8083 17.7167 16 17.3167 16 16.8V10.55H8.95V15.725C8.83333 15.7083 8.71667 15.7 8.6 15.7C8.18333 15.7 7.85 15.8167 7.6 16.05Z" fill="black"/>
</g>
<defs>
<clipPath id="clip0_3190_34107">
<rect width="24" height="24" fill="white"/>
</clipPath>
</defs>
</svg>
