<svg width="24" height="24" viewBox="0 0 24 24" fill="none" xmlns="http://www.w3.org/2000/svg">
<g clip-path="url(#clip0_3190_34091)">
<rect width="24" height="24" fill="white"/>
<path d="M5.17549 9.125V18.875H18.8255V9.125H5.17549ZM21.0005 21H3.00049V7H21.0005V21ZM5.00049 5.125V3H19.0005V5.125H5.00049ZM13.4755 10.25L15.3255 12.125H10.9005L9.22549 10.15H15.4755V15.575C15.4755 16.0583 15.2838 16.4583 14.9005 16.775C14.5172 17.0917 14.0255 17.25 13.4255 17.25C12.9755 17.25 12.6005 17.1167 12.3005 16.85C12.0005 16.5667 11.8505 16.2333 11.8505 15.85C11.8505 15.4833 11.9922 15.175 12.2755 14.925C12.5588 14.675 12.9005 14.55 13.3005 14.55C13.8505 14.55 14.2588 14.6833 14.5255 14.95C14.7922 15.2 14.9255 15.5333 14.9255 15.95L13.4755 15.325V10.25ZM13.1005 16C13.2672 16 13.3922 16 13.4755 16C13.5588 16 13.6838 16 13.8505 16C13.6838 16 13.5588 16 13.4755 16C13.3922 16 13.2672 16 13.1005 16C12.9338 16 12.8088 16 12.7255 16C12.6588 16 12.5422 16 12.3755 16C12.5422 16 12.6588 16 12.7255 16C12.8088 16 12.9338 16 13.1005 16ZM9.15049 10.15L11.1755 10.375V15.575C11.1755 16.0583 10.9838 16.4583 10.6005 16.775C10.2172 17.0917 9.72549 17.25 9.12549 17.25C8.65882 17.25 8.27549 17.1167 7.97549 16.85C7.67549 16.5833 7.52549 16.25 7.52549 15.85C7.52549 15.4833 7.66716 15.175 7.95049 14.925C8.23382 14.675 8.57549 14.55 8.97549 14.55C9.44216 14.55 9.82549 14.6917 10.1255 14.975C10.4255 15.2417 10.5755 15.5667 10.5755 15.95L9.15049 15.325V10.15ZM8.72549 16C8.89216 16 9.01716 16 9.10049 16C9.18382 16 9.30882 16 9.47549 16C9.30882 16 9.18382 16 9.10049 16C9.01716 16 8.89216 16 8.72549 16C8.55882 16 8.43382 16 8.35049 16C8.26716 16 8.14216 16 7.97549 16C8.14216 16 8.26716 16 8.35049 16C8.43382 16 8.55882 16 8.72549 16Z" fill="black"/>
</g>
<defs>
<clipPath id="clip0_3190_34091">
<rect width="24" height="24" fill="white"/>
</clipPath>
</defs>
</svg>
