<svg width="24" height="24" viewBox="0 0 24 24" fill="none" xmlns="http://www.w3.org/2000/svg">
<g clip-path="url(#clip0_3190_34103)">
<rect width="24" height="24" fill="white"/>
<path d="M3 7H21V21H3V7ZM19 3V4.95H5V3H19ZM7.4 15.625C7.1 15.875 6.95 16.2 6.95 16.6C6.95 17.0167 7.10833 17.3583 7.425 17.625C7.75833 17.875 8.18333 18 8.7 18C9.3 18 9.79167 17.85 10.175 17.55C10.5583 17.2333 10.75 16.8333 10.75 16.35V11.725H14.15V15.25C14.05 15.2333 13.8667 15.225 13.6 15.225C13.1333 15.225 12.75 15.3583 12.45 15.625C12.15 15.875 12 16.2 12 16.6C12 17.0167 12.1583 17.3583 12.475 17.625C12.8083 17.875 13.2333 18 13.75 18C14.35 18 14.8417 17.85 15.225 17.55C15.6083 17.2333 15.8 16.8333 15.8 16.35V10.125H9.1V15.275C8.9 15.2417 8.71667 15.225 8.55 15.225C8.08333 15.225 7.7 15.3583 7.4 15.625Z" fill="black"/>
</g>
<defs>
<clipPath id="clip0_3190_34103">
<rect width="24" height="24" fill="white"/>
</clipPath>
</defs>
</svg>
