<svg width="24" height="24" viewBox="0 0 24 24" fill="none" xmlns="http://www.w3.org/2000/svg">
<g clip-path="url(#clip0_3190_33873)">
<rect width="24" height="24" fill="white"/>
<path d="M18.225 3.775L20.65 8H8.675V3H21V17.925C21 18.9583 20.625 19.775 19.875 20.375C19.125 20.9583 18.1417 21.25 16.925 21.25C15.7083 21.25 14.7417 20.975 14.025 20.425C13.325 19.8583 12.975 19.05 12.975 18C12.975 17.4167 13.1333 16.8917 13.45 16.425C13.7667 15.9417 14.2167 15.5583 14.8 15.275C15.3833 14.9917 16.0333 14.85 16.75 14.85C17.4833 14.85 18.1583 15 18.775 15.3C19.4083 15.6 19.9083 16 20.275 16.5C20.6417 16.9833 20.825 17.4833 20.825 18H18.225V3.775ZM6.725 3H9.525V17.925C9.525 18.9583 9.15 19.775 8.4 20.375C7.66667 20.9583 6.7 21.25 5.5 21.25C4.3 21.25 3.34167 20.9583 2.625 20.375C1.90833 19.7917 1.55 19.025 1.55 18.075C1.55 17.1083 1.89167 16.3333 2.575 15.75C3.275 15.15 4.19167 14.85 5.325 14.85C6.05833 14.85 6.73333 15 7.35 15.3C7.98333 15.6 8.48333 16 8.85 16.5C9.21667 16.9833 9.4 17.4833 9.4 18H6.725V3Z" fill="black"/>
</g>
<defs>
<clipPath id="clip0_3190_33873">
<rect width="24" height="24" fill="white"/>
</clipPath>
</defs>
</svg>
