<svg width="24" height="24" viewBox="0 0 24 24" fill="none" xmlns="http://www.w3.org/2000/svg">
<g clip-path="url(#clip0_3190_33859)">
<rect width="24" height="24" fill="white"/>
<path d="M17.7005 17.6C17.7005 17.2667 17.5672 17 17.3005 16.8C17.0338 16.6 16.6838 16.5 16.2505 16.5C15.8338 16.5 15.5005 16.6 15.2505 16.8C15.0005 17 14.8755 17.2667 14.8755 17.6C14.8755 17.95 15.0005 18.225 15.2505 18.425C15.5005 18.625 15.8338 18.725 16.2505 18.725C16.7172 18.725 17.0755 18.625 17.3255 18.425C17.5922 18.225 17.7172 17.95 17.7005 17.6L17.6505 14.525V4.05L20.0005 5.8H7.57549V3H20.5005V17.6C20.5005 18.6833 20.1172 19.5667 19.3505 20.25C18.5838 20.9167 17.5838 21.25 16.3505 21.25C15.5505 21.25 14.8338 21.1 14.2005 20.8C13.5838 20.4833 13.0922 20.05 12.7255 19.5C12.3588 18.95 12.1755 18.3167 12.1755 17.6C12.1755 16.9167 12.3505 16.3 12.7005 15.75C13.0505 15.1833 13.5255 14.75 14.1255 14.45C14.7255 14.1333 15.3922 13.975 16.1255 13.975C16.9255 13.975 17.6422 14.15 18.2755 14.5C18.9088 14.85 19.3922 15.3083 19.7255 15.875C20.0755 16.425 20.2505 17 20.2505 17.6H17.7005ZM18.9255 7.675L18.7505 10.475H7.57549V7.675H18.9255ZM6.50049 17.6C6.50049 17.2833 6.36716 17.025 6.10049 16.825C5.85049 16.6083 5.51716 16.5 5.10049 16.5C4.66716 16.5 4.31716 16.6 4.05049 16.8C3.80049 17 3.67549 17.2667 3.67549 17.6C3.67549 17.95 3.80049 18.225 4.05049 18.425C4.31716 18.625 4.66716 18.725 5.10049 18.725C5.53382 18.725 5.87549 18.625 6.12549 18.425C6.37549 18.2083 6.50049 17.9333 6.50049 17.6L6.47549 14.45V3H9.32549V17.6C9.32549 18.6833 8.94216 19.5667 8.17549 20.25C7.42549 20.9167 6.42549 21.25 5.17549 21.25C4.39216 21.25 3.68382 21.1 3.05049 20.8C2.41716 20.4833 1.91716 20.05 1.55049 19.5C1.20049 18.95 1.02549 18.3167 1.02549 17.6C1.02549 16.9167 1.19216 16.3 1.52549 15.75C1.87549 15.1833 2.35049 14.75 2.95049 14.45C3.56716 14.1333 4.23382 13.975 4.95049 13.975C5.76716 13.975 6.48382 14.15 7.10049 14.5C7.73382 14.85 8.22549 15.3083 8.57549 15.875C8.92549 16.425 9.10049 17 9.10049 17.6H6.50049Z" fill="black"/>
</g>
<defs>
<clipPath id="clip0_3190_33859">
<rect width="24" height="24" fill="white"/>
</clipPath>
</defs>
</svg>
