<svg width="24" height="24" viewBox="0 0 24 24" fill="none" xmlns="http://www.w3.org/2000/svg">
<g clip-path="url(#clip0_3190_33857)">
<rect width="24" height="24" fill="white"/>
<path d="M18.1505 17.875C18.1505 17.5083 18.0005 17.2083 17.7005 16.975C17.4005 16.7417 17.0088 16.625 16.5255 16.625C16.0588 16.625 15.6755 16.7417 15.3755 16.975C15.0922 17.1917 14.9505 17.4917 14.9505 17.875C14.9505 18.2417 15.0922 18.5417 15.3755 18.775C15.6755 18.9917 16.0588 19.1 16.5255 19.1C17.0422 19.1 17.4422 18.9917 17.7255 18.775C18.0255 18.5583 18.1672 18.2583 18.1505 17.875L18.1005 15.2V3.925L20.0755 5.325H7.52549V3H20.5005V17.875C20.5005 18.875 20.1338 19.6917 19.4005 20.325C18.6838 20.9417 17.7422 21.25 16.5755 21.25C15.8255 21.25 15.1505 21.1083 14.5505 20.825C13.9672 20.525 13.5005 20.125 13.1505 19.625C12.8172 19.1083 12.6505 18.525 12.6505 17.875C12.6505 17.225 12.8172 16.6417 13.1505 16.125C13.4838 15.6083 13.9338 15.2083 14.5005 14.925C15.0672 14.625 15.7005 14.475 16.4005 14.475C17.1338 14.475 17.8005 14.6417 18.4005 14.975C19.0005 15.2917 19.4672 15.7083 19.8005 16.225C20.1338 16.7417 20.3005 17.2917 20.3005 17.875H18.1505ZM19.1255 7.375L18.9755 9.7H7.52549V7.375H19.1255ZM6.50049 17.875C6.50049 17.5083 6.35049 17.2083 6.05049 16.975C5.76716 16.7417 5.39216 16.625 4.92549 16.625C4.44216 16.625 4.05049 16.7417 3.75049 16.975C3.46716 17.1917 3.32549 17.4917 3.32549 17.875C3.32549 18.2417 3.46716 18.5417 3.75049 18.775C4.05049 18.9917 4.44216 19.1 4.92549 19.1C5.40882 19.1 5.79216 18.9917 6.07549 18.775C6.35882 18.5417 6.50049 18.2417 6.50049 17.875L6.45049 15.1V3H8.85049V17.875C8.85049 18.875 8.49216 19.6917 7.77549 20.325C7.07549 20.9417 6.13382 21.25 4.95049 21.25C4.20049 21.25 3.52549 21.1083 2.92549 20.825C2.34216 20.525 1.87549 20.125 1.52549 19.625C1.19216 19.1083 1.02549 18.525 1.02549 17.875C1.02549 17.225 1.19216 16.6417 1.52549 16.125C1.85882 15.6083 2.30882 15.2083 2.87549 14.925C3.45882 14.625 4.09216 14.475 4.77549 14.475C5.52549 14.475 6.19216 14.6417 6.77549 14.975C7.37549 15.2917 7.84216 15.7083 8.17549 16.225C8.50882 16.7417 8.67549 17.2917 8.67549 17.875H6.50049Z" fill="black"/>
</g>
<defs>
<clipPath id="clip0_3190_33857">
<rect width="24" height="24" fill="white"/>
</clipPath>
</defs>
</svg>
