<svg width="24" height="24" viewBox="0 0 24 24" fill="none" xmlns="http://www.w3.org/2000/svg">
<g clip-path="url(#clip0_3190_33865)">
<rect width="24" height="24" fill="white"/>
<path d="M20.05 3.4L20.825 8H8V3H21V18.325C21 19.175 20.6667 19.875 20 20.425C19.35 20.975 18.5 21.25 17.45 21.25C16.4 21.25 15.5417 20.975 14.875 20.425C14.2083 19.875 13.875 19.175 13.875 18.325C13.875 17.7417 14.025 17.225 14.325 16.775C14.6417 16.325 15.0583 15.975 15.575 15.725C16.1083 15.475 16.7167 15.35 17.4 15.35C18.0833 15.35 18.6917 15.4833 19.225 15.75C19.7583 16 20.175 16.35 20.475 16.8C20.775 17.25 20.925 17.7583 20.925 18.325H20.05V3.4ZM7.675 3H8.625V18.325C8.625 19.175 8.29167 19.875 7.625 20.425C6.975 20.975 6.125 21.25 5.075 21.25C4.025 21.25 3.16667 20.975 2.5 20.425C1.85 19.875 1.525 19.175 1.525 18.325C1.525 17.4583 1.85 16.75 2.5 16.2C3.16667 15.6333 4.00833 15.35 5.025 15.35C5.70833 15.35 6.31667 15.4833 6.85 15.75C7.38333 16 7.8 16.35 8.1 16.8C8.4 17.25 8.55 17.7583 8.55 18.325H7.675V3Z" fill="black"/>
</g>
<defs>
<clipPath id="clip0_3190_33865">
<rect width="24" height="24" fill="white"/>
</clipPath>
</defs>
</svg>
