<svg width="24" height="24" viewBox="0 0 24 24" fill="none" xmlns="http://www.w3.org/2000/svg">
<g clip-path="url(#clip0_3354_2776)">
<rect width="24" height="24" fill="white"/>
<path d="M17.55 8.075L19.575 10.2L21.6 8.05L23.5 9.975L21.375 12L23.5 14.025L21.6 15.925L19.575 13.8L17.55 15.925L15.65 14.025L17.775 12L15.65 9.975L17.55 8.075ZM11.675 22L6.775 17.325H3.85C3.33333 17.325 2.89167 17.15 2.525 16.8C2.175 16.4333 2 15.9917 2 15.475V8.525C2 8.00833 2.175 7.575 2.525 7.225C2.89167 6.85833 3.33333 6.675 3.85 6.675H6.775L11.675 2H14.5V22H11.675Z" fill="black"/>
</g>
<defs>
<clipPath id="clip0_3354_2776">
<rect width="24" height="24" fill="white"/>
</clipPath>
</defs>
</svg>
