<svg width="24" height="24" viewBox="0 0 24 24" fill="none" xmlns="http://www.w3.org/2000/svg">
<g clip-path="url(#clip0_3354_2770)">
<rect width="24" height="24" fill="white"/>
<path d="M16.75 8.275L19.575 11.1L22.4 8.275L23.3 9.175L20.475 12L23.3 14.825L22.4 15.725L19.575 12.9L16.75 15.725L15.85 14.825L18.675 12L15.85 9.175L16.75 8.275ZM13 22L7.55 17H3.85C3.33333 17 2.89167 16.825 2.525 16.475C2.175 16.1083 2 15.6667 2 15.15V8.85C2 8.33333 2.175 7.9 2.525 7.55C2.89167 7.18333 3.33333 7 3.85 7H7.55L13 2H14.5V22H13Z" fill="black"/>
</g>
<defs>
<clipPath id="clip0_3354_2770">
<rect width="24" height="24" fill="white"/>
</clipPath>
</defs>
</svg>
