<svg width="24" height="24" viewBox="0 0 24 24" fill="none" xmlns="http://www.w3.org/2000/svg">
<g clip-path="url(#clip0_3354_2762)">
<rect width="24" height="24" fill="white"/>
<path d="M17.3755 8.075L19.4005 10.2L21.4005 8.05L23.3255 9.975L21.1755 12L23.3255 14.025L21.4005 15.925L19.4005 13.8L17.3755 15.925L15.4505 14.025L17.5755 12L15.4505 9.975L17.3755 8.075ZM11.3005 22L6.87549 18H5.17549C4.59216 18 4.05049 17.8583 3.55049 17.575C3.06716 17.2917 2.68382 16.9083 2.40049 16.425C2.13382 15.9417 2.00049 15.4083 2.00049 14.825V9.175C2.00049 8.59167 2.13382 8.05833 2.40049 7.575C2.68382 7.09167 3.06716 6.70833 3.55049 6.425C4.05049 6.14167 4.59216 6 5.17549 6H6.87549L11.3005 2H14.5005V22H11.3005ZM5.40049 8.95C5.28382 8.95 5.18382 8.99167 5.10049 9.075C5.03382 9.15833 5.00049 9.25833 5.00049 9.375V14.625C5.00049 14.7417 5.03382 14.8417 5.10049 14.925C5.18382 15.0083 5.28382 15.05 5.40049 15.05H8.05049L12.3505 18.875L11.5005 19.325V4.675L12.3505 5.125L8.05049 8.95H5.40049Z" fill="black"/>
</g>
<defs>
<clipPath id="clip0_3354_2762">
<rect width="24" height="24" fill="white"/>
</clipPath>
</defs>
</svg>
