<svg width="24" height="24" viewBox="0 0 24 24" fill="none" xmlns="http://www.w3.org/2000/svg">
<g clip-path="url(#clip0_3190_33450)">
<rect width="24" height="24" fill="white"/>
<path d="M11.2505 20.525V21H3.00049V20.525H11.2505ZM21.0005 11.75V12.225H3.00049V11.75H21.0005ZM21.0005 3V3.475H3.00049V3H21.0005ZM15.6505 19.375L13.3005 17.2L16.4005 16.975L17.6755 14.025L18.9505 16.975L22.0505 17.2L19.7005 19.375L20.3755 22.375L17.6755 20.825L14.9755 22.375L15.6505 19.375ZM17.6755 20.3L19.7005 21.475L19.2005 19.225L20.9755 17.575L18.6505 17.4L17.6755 15.15L16.7005 17.4L14.3755 17.575L16.1505 19.225L15.6505 21.475L17.6755 20.3Z" fill="black"/>
</g>
<defs>
<clipPath id="clip0_3190_33450">
<rect width="24" height="24" fill="white"/>
</clipPath>
</defs>
</svg>
