<svg width="24" height="24" viewBox="0 0 24 24" fill="none" xmlns="http://www.w3.org/2000/svg">
<g clip-path="url(#clip0_3190_34607)">
<rect width="24" height="24" fill="white"/>
<path d="M12.0005 2C13.8338 2 15.5172 2.44167 17.0505 3.325C18.5838 4.20833 19.7922 5.41667 20.6755 6.95C21.5588 8.48333 22.0005 10.1667 22.0005 12C22.0005 13.8333 21.5588 15.5167 20.6755 17.05C19.7922 18.5833 18.5838 19.7917 17.0505 20.675C15.5172 21.5583 13.8338 22 12.0005 22C10.1672 22 8.48382 21.5583 6.95049 20.675C5.41716 19.7917 4.20882 18.5833 3.32549 17.05C2.44216 15.5167 2.00049 13.8333 2.00049 12C2.00049 10.1667 2.44216 8.48333 3.32549 6.95C4.20882 5.41667 5.41716 4.20833 6.95049 3.325C8.48382 2.44167 10.1672 2 12.0005 2ZM12.0005 3.4C10.4172 3.4 8.96716 3.78333 7.65049 4.55C6.35049 5.3 5.31716 6.33333 4.55049 7.65C3.80049 8.95 3.42549 10.4 3.42549 12C3.42549 13.6 3.80049 15.0583 4.55049 16.375C5.31716 17.6917 6.35049 18.7333 7.65049 19.5C8.96716 20.25 10.4172 20.625 12.0005 20.625C13.5838 20.625 15.0255 20.2417 16.3255 19.475C17.6255 18.7083 18.6588 17.675 19.4255 16.375C20.1922 15.0583 20.5755 13.6 20.5755 12C20.5755 10.4167 20.1922 8.96667 19.4255 7.65C18.6755 6.33333 17.6422 5.3 16.3255 4.55C15.0255 3.78333 13.5838 3.4 12.0005 3.4ZM11.9255 12L15.4505 8.725V15.275L11.9255 12ZM12.7505 12H14.0505H12.7505ZM8.55049 8.825H9.82549V15.175H8.55049V8.825Z" fill="black"/>
</g>
<defs>
<clipPath id="clip0_3190_34607">
<rect width="24" height="24" fill="white"/>
</clipPath>
</defs>
</svg>
