<svg width="24" height="24" viewBox="0 0 24 24" fill="none" xmlns="http://www.w3.org/2000/svg">
<g clip-path="url(#clip0_3390_9107)">
<rect width="24" height="24" fill="white"/>
<path d="M12.0005 22C10.1672 22 8.48382 21.5583 6.95049 20.675C5.41716 19.7917 4.20882 18.5833 3.32549 17.05C2.44216 15.5167 2.00049 13.8333 2.00049 12C2.00049 10.1667 2.44216 8.48333 3.32549 6.95C4.20882 5.41667 5.41716 4.20833 6.95049 3.325C8.48382 2.44167 10.1672 2 12.0005 2C13.8338 2 15.5172 2.44167 17.0505 3.325C18.5838 4.20833 19.7922 5.41667 20.6755 6.95C21.5588 8.48333 22.0005 10.1667 22.0005 12C22.0005 13.8333 21.5588 15.5167 20.6755 17.05C19.7922 18.5833 18.5838 19.7917 17.0505 20.675C15.5172 21.5583 13.8338 22 12.0005 22ZM12.0005 20.6C13.5672 20.6 15.0088 20.225 16.3255 19.475C17.6422 18.7083 18.6755 17.6667 19.4255 16.35C20.1922 15.0333 20.5755 13.5833 20.5755 12C20.5755 10.4167 20.1922 8.96667 19.4255 7.65C18.6755 6.33333 17.6422 5.3 16.3255 4.55C15.0088 3.78333 13.5672 3.4 12.0005 3.4C10.4338 3.4 8.99216 3.78333 7.67549 4.55C6.35882 5.3 5.31716 6.33333 4.55049 7.65C3.80049 8.96667 3.42549 10.4167 3.42549 12C3.42549 13.5833 3.80049 15.0333 4.55049 16.35C5.31716 17.6667 6.35882 18.7083 7.67549 19.475C8.99216 20.225 10.4338 20.6 12.0005 20.6ZM12.0005 18.325C10.8338 18.325 9.76716 18.05 8.80049 17.5C7.83382 16.9333 7.06716 16.1667 6.50049 15.2C5.95049 14.2333 5.67549 13.1667 5.67549 12C5.67549 10.8333 5.95049 9.76667 6.50049 8.8C7.06716 7.83333 7.83382 7.075 8.80049 6.525C9.76716 5.95833 10.8338 5.675 12.0005 5.675C13.1672 5.675 14.2338 5.95833 15.2005 6.525C16.1672 7.075 16.9255 7.83333 17.4755 8.8C18.0422 9.76667 18.3255 10.8333 18.3255 12C18.3255 13.1667 18.0422 14.2333 17.4755 15.2C16.9255 16.1667 16.1672 16.9333 15.2005 17.5C14.2338 18.05 13.1672 18.325 12.0005 18.325ZM12.0005 16.95C12.9005 16.95 13.7255 16.7333 14.4755 16.3C15.2255 15.85 15.8172 15.25 16.2505 14.5C16.6838 13.7333 16.9005 12.9 16.9005 12C16.9005 11.1 16.6838 10.275 16.2505 9.525C15.8172 8.75833 15.2255 8.15833 14.4755 7.725C13.7255 7.275 12.9005 7.05 12.0005 7.05C11.1005 7.05 10.2755 7.275 9.52549 7.725C8.77549 8.15833 8.18382 8.75833 7.75049 9.525C7.33382 10.275 7.12549 11.1 7.12549 12C7.12549 12.9 7.33382 13.7333 7.75049 14.5C8.18382 15.25 8.77549 15.85 9.52549 16.3C10.2755 16.7333 11.1005 16.95 12.0005 16.95Z" fill="black"/>
</g>
<defs>
<clipPath id="clip0_3390_9107">
<rect width="24" height="24" fill="white"/>
</clipPath>
</defs>
</svg>
