<svg width="24" height="24" viewBox="0 0 24 24" fill="none" xmlns="http://www.w3.org/2000/svg">
<g clip-path="url(#clip0_3390_9115)">
<rect width="24" height="24" fill="white"/>
<path d="M12.0005 22C10.1672 22 8.48382 21.5583 6.95049 20.675C5.41716 19.7917 4.20882 18.5833 3.32549 17.05C2.44216 15.5167 2.00049 13.8333 2.00049 12C2.00049 10.1667 2.44216 8.48333 3.32549 6.95C4.20882 5.41667 5.41716 4.20833 6.95049 3.325C8.48382 2.44167 10.1672 2 12.0005 2C13.8338 2 15.5172 2.44167 17.0505 3.325C18.5838 4.20833 19.7922 5.41667 20.6755 6.95C21.5588 8.48333 22.0005 10.1667 22.0005 12C22.0005 13.8333 21.5588 15.5167 20.6755 17.05C19.7922 18.5833 18.5838 19.7917 17.0505 20.675C15.5172 21.5583 13.8338 22 12.0005 22ZM12.0005 18.75C13.2338 18.75 14.3672 18.45 15.4005 17.85C16.4338 17.25 17.2505 16.4333 17.8505 15.4C18.4505 14.3667 18.7505 13.2333 18.7505 12C18.7505 10.7667 18.4505 9.63333 17.8505 8.6C17.2505 7.56667 16.4338 6.75 15.4005 6.15C14.3672 5.55 13.2338 5.25 12.0005 5.25C10.7672 5.25 9.63382 5.55 8.60049 6.15C7.56716 6.75 6.75049 7.56667 6.15049 8.6C5.55049 9.63333 5.25049 10.7667 5.25049 12C5.25049 13.2333 5.55049 14.3667 6.15049 15.4C6.75049 16.4333 7.56716 17.25 8.60049 17.85C9.63382 18.45 10.7672 18.75 12.0005 18.75ZM12.0005 17.25C11.0338 17.25 10.1505 17.0167 9.35049 16.55C8.55049 16.0833 7.91716 15.45 7.45049 14.65C6.98382 13.85 6.75049 12.9667 6.75049 12C6.75049 11.0333 6.98382 10.15 7.45049 9.35C7.91716 8.55 8.55049 7.91667 9.35049 7.45C10.1505 6.98333 11.0338 6.75 12.0005 6.75C12.9672 6.75 13.8505 6.98333 14.6505 7.45C15.4505 7.91667 16.0838 8.55 16.5505 9.35C17.0172 10.15 17.2505 11.0333 17.2505 12C17.2505 12.9667 17.0172 13.85 16.5505 14.65C16.0838 15.45 15.4505 16.0833 14.6505 16.55C13.8505 17.0167 12.9672 17.25 12.0005 17.25ZM12.0005 14.075C12.3838 14.075 12.7255 13.9833 13.0255 13.8C13.3422 13.6167 13.5922 13.3667 13.7755 13.05C13.9588 12.7333 14.0505 12.3833 14.0505 12C14.0505 11.6167 13.9588 11.2667 13.7755 10.95C13.5922 10.6333 13.3422 10.3833 13.0255 10.2C12.7255 10.0167 12.3838 9.925 12.0005 9.925C11.6172 9.925 11.2672 10.0167 10.9505 10.2C10.6505 10.3833 10.4088 10.6333 10.2255 10.95C10.0422 11.2667 9.95049 11.6167 9.95049 12C9.95049 12.3833 10.0422 12.7333 10.2255 13.05C10.4088 13.3667 10.6505 13.6167 10.9505 13.8C11.2672 13.9833 11.6172 14.075 12.0005 14.075Z" fill="black"/>
</g>
<defs>
<clipPath id="clip0_3390_9115">
<rect width="24" height="24" fill="white"/>
</clipPath>
</defs>
</svg>
