<svg width="24" height="24" viewBox="0 0 24 24" fill="none" xmlns="http://www.w3.org/2000/svg">
<g clip-path="url(#clip0_3190_34669)">
<rect width="24" height="24" fill="white"/>
<path d="M12 22C10.1667 22 8.48333 21.5583 6.95 20.675C5.41667 19.7917 4.20833 18.5833 3.325 17.05C2.44167 15.5167 2 13.8333 2 12C2 10.1667 2.44167 8.48333 3.325 6.95C4.20833 5.41667 5.41667 4.20833 6.95 3.325C8.48333 2.44167 10.1667 2 12 2C13.8333 2 15.5167 2.44167 17.05 3.325C18.5833 4.20833 19.7917 5.41667 20.675 6.95C21.5583 8.48333 22 10.1667 22 12C22 13.8333 21.5583 15.5167 20.675 17.05C19.7917 18.5833 18.5833 19.7917 17.05 20.675C15.5167 21.5583 13.8333 22 12 22ZM12 21.525C13.75 21.525 15.35 21.1083 16.8 20.275C18.25 19.425 19.3917 18.275 20.225 16.825C21.075 15.3583 21.5 13.75 21.5 12C21.5 10.25 21.075 8.65 20.225 7.2C19.3917 5.73333 18.25 4.58333 16.8 3.75C15.35 2.9 13.75 2.475 12 2.475C10.25 2.475 8.65 2.9 7.2 3.75C5.75 4.58333 4.6 5.73333 3.75 7.2C2.91667 8.65 2.5 10.25 2.5 12C2.5 13.75 2.91667 15.3583 3.75 16.825C4.6 18.275 5.75 19.425 7.2 20.275C8.65 21.1083 10.25 21.525 12 21.525ZM12 19C10.7167 19 9.53333 18.6917 8.45 18.075C7.38333 17.4583 6.54167 16.6167 5.925 15.55C5.30833 14.4667 5 13.2833 5 12C5 10.7167 5.30833 9.54167 5.925 8.475C6.54167 7.39167 7.38333 6.54167 8.45 5.925C9.53333 5.30833 10.7167 5 12 5C13.2833 5 14.4583 5.30833 15.525 5.925C16.6083 6.54167 17.4583 7.39167 18.075 8.475C18.6917 9.54167 19 10.7167 19 12C19 13.2833 18.6917 14.4667 18.075 15.55C17.4583 16.6167 16.6083 17.4583 15.525 18.075C14.4583 18.6917 13.2833 19 12 19Z" fill="black"/>
</g>
<defs>
<clipPath id="clip0_3190_34669">
<rect width="24" height="24" fill="white"/>
</clipPath>
</defs>
</svg>
