<svg width="24" height="24" viewBox="0 0 24 24" fill="none" xmlns="http://www.w3.org/2000/svg">
<g clip-path="url(#clip0_3190_35433)">
<rect width="24" height="24" fill="white"/>
<path d="M22.1005 5.925C22.5172 7.04167 22.7922 8.33333 22.9255 9.8C23.0755 11.2667 23.0755 12.7333 22.9255 14.2C22.7922 15.6667 22.5172 16.9583 22.1005 18.075L19.1505 16.975C19.4838 16.0917 19.7005 15.0417 19.8005 13.825C19.9172 12.6083 19.9172 11.3917 19.8005 10.175C19.7005 8.95833 19.4838 7.90833 19.1505 7.025L22.1005 5.925ZM17.9005 7.85C18.2005 8.61667 18.4005 9.5 18.5005 10.5C18.6005 11.4833 18.6005 12.475 18.5005 13.475C18.4005 14.4583 18.2005 15.3333 17.9005 16.1L14.9505 14.95C15.1505 14.4333 15.2838 13.8083 15.3505 13.075C15.4172 12.3417 15.4172 11.6083 15.3505 10.875C15.2838 10.1417 15.1505 9.51667 14.9505 9L17.9005 7.85ZM10.5005 22L6.25049 18H5.25049C4.65049 18 4.10049 17.8583 3.60049 17.575C3.10049 17.2917 2.70882 16.9 2.42549 16.4C2.14216 15.9 2.00049 15.35 2.00049 14.75V9.25C2.00049 8.65 2.14216 8.1 2.42549 7.6C2.70882 7.1 3.10049 6.70833 3.60049 6.425C4.10049 6.14167 4.65049 6 5.25049 6H6.25049L10.5005 2H14.0005V22H10.5005ZM5.67549 9.575C5.65882 9.575 5.64216 9.58333 5.62549 9.6C5.62549 9.6 5.62549 9.60833 5.62549 9.625V14.375C5.62549 14.3917 5.62549 14.4083 5.62549 14.425C5.64216 14.425 5.65882 14.425 5.67549 14.425H7.65049L11.2255 17.75L10.3755 18.525V5.475L11.2255 6.25L7.65049 9.575H5.67549Z" fill="black"/>
</g>
<defs>
<clipPath id="clip0_3190_35433">
<rect width="24" height="24" fill="white"/>
</clipPath>
</defs>
</svg>
