<svg width="24" height="24" viewBox="0 0 24 24" fill="none" xmlns="http://www.w3.org/2000/svg">
<g clip-path="url(#clip0_3190_35445)">
<rect width="24" height="24" fill="white"/>
<path d="M11.325 22L6.425 17.325H3.85C3.33333 17.325 2.89167 17.15 2.525 16.8C2.175 16.4333 2 15.9917 2 15.475V8.525C2 8.00833 2.175 7.575 2.525 7.225C2.89167 6.85833 3.33333 6.675 3.85 6.675H6.425L11.325 2H14.175V22H11.325ZM21.55 5.925C22.1833 7.04167 22.6083 8.33333 22.825 9.8C23.0583 11.2667 23.0583 12.7333 22.825 14.2C22.6083 15.6667 22.1833 16.9583 21.55 18.075L19.175 16.95C19.6917 16.0667 20.0333 15.025 20.2 13.825C20.3833 12.6083 20.3833 11.4 20.2 10.2C20.0333 8.98333 19.6917 7.93333 19.175 7.05L21.55 5.925ZM17.775 8.05C18.175 8.76667 18.4417 9.6 18.575 10.55C18.725 11.5 18.725 12.45 18.575 13.4C18.4417 14.35 18.175 15.1833 17.775 15.9L15.4 14.725C15.6667 14.2417 15.85 13.6667 15.95 13C16.05 12.3167 16.05 11.6417 15.95 10.975C15.85 10.2917 15.6667 9.70833 15.4 9.225L17.775 8.05Z" fill="black"/>
</g>
<defs>
<clipPath id="clip0_3190_35445">
<rect width="24" height="24" fill="white"/>
</clipPath>
</defs>
</svg>
