<svg width="24" height="24" viewBox="0 0 24 24" fill="none" xmlns="http://www.w3.org/2000/svg">
<g clip-path="url(#clip0_3190_35394)">
<rect width="24" height="24" fill="white"/>
<path d="M19.4505 5.85C20.5338 6.96667 21.2672 8.275 21.6505 9.775C22.0338 11.2583 22.0338 12.75 21.6505 14.25C21.2672 15.7333 20.5338 17.0333 19.4505 18.15L18.1505 16.85C19.0172 15.9667 19.6005 14.9417 19.9005 13.775C20.2005 12.5917 20.2005 11.4167 19.9005 10.25C19.6005 9.06667 19.0172 8.03333 18.1505 7.15L19.4505 5.85ZM11.8755 22L7.12549 18H5.00049C4.45049 18 3.94216 17.8667 3.47549 17.6C3.02549 17.3167 2.66716 16.95 2.40049 16.5C2.13382 16.0333 2.00049 15.5333 2.00049 15V9C2.00049 8.46667 2.13382 7.975 2.40049 7.525C2.66716 7.05833 3.02549 6.69167 3.47549 6.425C3.94216 6.14167 4.45049 6 5.00049 6H7.12549L11.8755 2H14.5005V22H11.8755ZM5.00049 7.85C4.70049 7.85 4.44216 7.96667 4.22549 8.2C4.00882 8.43333 3.90049 8.7 3.90049 9V15C3.90049 15.3 4.00882 15.5667 4.22549 15.8C4.44216 16.0333 4.70049 16.15 5.00049 16.15H7.80049L13.5255 20.975L12.6005 21V2.975L13.5255 3.025L7.80049 7.85H5.00049Z" fill="black"/>
</g>
<defs>
<clipPath id="clip0_3190_35394">
<rect width="24" height="24" fill="white"/>
</clipPath>
</defs>
</svg>
