<svg width="24" height="24" viewBox="0 0 24 24" fill="none" xmlns="http://www.w3.org/2000/svg">
<g clip-path="url(#clip0_3190_35425)">
<rect width="24" height="24" fill="white"/>
<path d="M20.5255 5.875C21.6088 6.99167 22.3422 8.29167 22.7255 9.775C23.1088 11.2583 23.1088 12.7417 22.7255 14.225C22.3422 15.7083 21.6088 17.0083 20.5255 18.125L19.5505 17.15C20.4672 16.2167 21.0838 15.125 21.4005 13.875C21.7172 12.625 21.7172 11.375 21.4005 10.125C21.0838 8.875 20.4672 7.78333 19.5505 6.85L20.5255 5.875ZM17.6505 8.5C18.2672 9.11667 18.6838 9.85833 18.9005 10.725C19.1172 11.575 19.1172 12.425 18.9005 13.275C18.6838 14.125 18.2672 14.8583 17.6505 15.475L16.6755 14.475C17.1088 14.0417 17.4005 13.5167 17.5505 12.9C17.7005 12.2833 17.7005 11.675 17.5505 11.075C17.4005 10.4583 17.1088 9.925 16.6755 9.475L17.6505 8.5ZM12.5755 22L7.42549 17.675H4.62549C4.14216 17.675 3.70049 17.5583 3.30049 17.325C2.90049 17.075 2.58382 16.75 2.35049 16.35C2.11716 15.95 2.00049 15.5167 2.00049 15.05V8.95C2.00049 8.48333 2.11716 8.05 2.35049 7.65C2.58382 7.25 2.90049 6.93333 3.30049 6.7C3.70049 6.45 4.14216 6.325 4.62549 6.325H7.42549L12.5755 2H14.5005V22H12.5755ZM4.62549 7.725C4.29216 7.725 4.00882 7.85 3.77549 8.1C3.54216 8.33333 3.42549 8.61667 3.42549 8.95V15.05C3.42549 15.3833 3.54216 15.675 3.77549 15.925C4.00882 16.1583 4.29216 16.275 4.62549 16.275H7.95049L13.8005 21.2L13.0755 21.225V2.75L13.8005 2.8L7.95049 7.725H4.62549Z" fill="black"/>
</g>
<defs>
<clipPath id="clip0_3190_35425">
<rect width="24" height="24" fill="white"/>
</clipPath>
</defs>
</svg>
