<svg width="24" height="24" viewBox="0 0 24 24" fill="none" xmlns="http://www.w3.org/2000/svg">
<g clip-path="url(#clip0_3190_35336)">
<rect width="24" height="24" fill="white"/>
<path d="M16.8005 22.5L10.6005 18.175H6.65049C5.76716 18.175 5.01716 17.875 4.40049 17.275C3.80049 16.6583 3.50049 15.9 3.50049 15V9C3.50049 8.11667 3.80049 7.36667 4.40049 6.75C5.01716 6.13333 5.77549 5.825 6.67549 5.825H10.6005L16.7505 1.5H20.0005V22.5H16.8005ZM7.00049 8.9C6.88382 8.9 6.79216 8.94167 6.72549 9.025C6.65882 9.09167 6.62549 9.18333 6.62549 9.3V14.7C6.62549 14.8167 6.65882 14.9167 6.72549 15C6.79216 15.0667 6.88382 15.1 7.00049 15.1H11.5505L17.6005 19.35L16.8755 19.9V4.1L17.6005 4.625L11.5505 8.9H7.00049Z" fill="black"/>
</g>
<defs>
<clipPath id="clip0_3190_35336">
<rect width="24" height="24" fill="white"/>
</clipPath>
</defs>
</svg>
