<svg width="24" height="24" viewBox="0 0 24 24" fill="none" xmlns="http://www.w3.org/2000/svg">
<g clip-path="url(#clip0_3190_35429)">
<rect width="24" height="24" fill="white"/>
<path d="M21.0505 5.875C21.9172 6.99167 22.5005 8.29167 22.8005 9.775C23.1005 11.2583 23.1005 12.7417 22.8005 14.225C22.5005 15.7083 21.9172 17.0083 21.0505 18.125L19.2005 16.9C19.8838 16.0167 20.3422 14.9833 20.5755 13.8C20.8255 12.6 20.8255 11.4083 20.5755 10.225C20.3422 9.025 19.8838 7.98333 19.2005 7.1L21.0505 5.875ZM17.7005 8.225C18.2172 8.90833 18.5672 9.70833 18.7505 10.625C18.9338 11.5417 18.9338 12.4583 18.7505 13.375C18.5672 14.275 18.2172 15.0583 17.7005 15.725L15.8505 14.475C16.1838 14.0417 16.4005 13.5167 16.5005 12.9C16.6172 12.2833 16.6172 11.675 16.5005 11.075C16.4005 10.4583 16.1838 9.925 15.8505 9.475L17.7005 8.225ZM11.4255 22L6.82549 18H5.07549C4.50882 18 3.99216 17.8667 3.52549 17.6C3.05882 17.3167 2.68382 16.9417 2.40049 16.475C2.13382 15.9917 2.00049 15.475 2.00049 14.925V9.075C2.00049 8.525 2.13382 8.01667 2.40049 7.55C2.68382 7.06667 3.05882 6.69167 3.52549 6.425C3.99216 6.14167 4.50882 6 5.07549 6H6.82549L11.4255 2H14.3255V22H11.4255ZM5.20049 8.4C5.00049 8.4 4.82549 8.48333 4.67549 8.65C4.52549 8.8 4.45049 8.975 4.45049 9.175V14.825C4.45049 15.025 4.52549 15.2083 4.67549 15.375C4.82549 15.525 5.00049 15.6 5.20049 15.6H7.75049L12.7755 19.925L11.8755 20.175V3.8L12.7755 4.075L7.75049 8.4H5.20049Z" fill="black"/>
</g>
<defs>
<clipPath id="clip0_3190_35429">
<rect width="24" height="24" fill="white"/>
</clipPath>
</defs>
</svg>
