<svg width="24" height="24" viewBox="0 0 24 24" fill="none" xmlns="http://www.w3.org/2000/svg">
<g clip-path="url(#clip0_3190_35435)">
<rect width="24" height="24" fill="white"/>
<path d="M14 22L8.05 17H3.85C3.33333 17 2.89167 16.825 2.525 16.475C2.175 16.1083 2 15.6667 2 15.15V8.85C2 8.33333 2.175 7.9 2.525 7.55C2.89167 7.18333 3.33333 7 3.85 7H8.05L14 2H14.5V22H14ZM20.5 5.925C21.5833 7.025 22.3083 8.31667 22.675 9.8C23.0583 11.2667 23.0583 12.7417 22.675 14.225C22.3083 15.6917 21.5833 16.975 20.5 18.075L20.15 17.725C21.1667 16.6917 21.85 15.4833 22.2 14.1C22.5667 12.7 22.5667 11.3083 22.2 9.925C21.85 8.525 21.1667 7.30833 20.15 6.275L20.5 5.925ZM17.7 8.65C18.3 9.25 18.7 9.95833 18.9 10.775C19.1167 11.575 19.1167 12.3833 18.9 13.2C18.7 14.0167 18.3 14.7167 17.7 15.3L17.35 14.95C17.8833 14.4333 18.2417 13.8083 18.425 13.075C18.6083 12.3417 18.6083 11.6167 18.425 10.9C18.2417 10.1667 17.8833 9.53333 17.35 9L17.7 8.65Z" fill="black"/>
</g>
<defs>
<clipPath id="clip0_3190_35435">
<rect width="24" height="24" fill="white"/>
</clipPath>
</defs>
</svg>
