<svg width="24" height="24" viewBox="0 0 24 24" fill="none" xmlns="http://www.w3.org/2000/svg">
<g clip-path="url(#clip0_3190_35439)">
<rect width="24" height="24" fill="white"/>
<path d="M13 22L7.55 17H3.85C3.33333 17 2.89167 16.825 2.525 16.475C2.175 16.1083 2 15.6667 2 15.15V8.85C2 8.33333 2.175 7.9 2.525 7.55C2.89167 7.18333 3.33333 7 3.85 7H7.55L13 2H14.5V22H13ZM20.5 5.875C21.5833 6.99167 22.3167 8.29167 22.7 9.775C23.0833 11.2583 23.0833 12.7417 22.7 14.225C22.3167 15.7083 21.5833 17.0083 20.5 18.125L19.525 17.15C20.4417 16.2167 21.0583 15.125 21.375 13.875C21.6917 12.625 21.6917 11.375 21.375 10.125C21.0583 8.875 20.4417 7.78333 19.525 6.85L20.5 5.875ZM17.625 8.5C18.225 9.11667 18.6333 9.85833 18.85 10.725C19.0833 11.575 19.0833 12.425 18.85 13.275C18.6333 14.125 18.225 14.8583 17.625 15.475L16.625 14.475C17.075 14.0417 17.375 13.5167 17.525 12.9C17.675 12.2833 17.675 11.675 17.525 11.075C17.375 10.4583 17.075 9.925 16.625 9.475L17.625 8.5Z" fill="black"/>
</g>
<defs>
<clipPath id="clip0_3190_35439">
<rect width="24" height="24" fill="white"/>
</clipPath>
</defs>
</svg>
