<svg width="24" height="24" viewBox="0 0 24 24" fill="none" xmlns="http://www.w3.org/2000/svg">
<g clip-path="url(#clip0_3190_35396)">
<rect width="24" height="24" fill="white"/>
<path d="M19.4005 5.7C20.5005 6.85 21.2505 8.19167 21.6505 9.725C22.0505 11.2417 22.0505 12.7667 21.6505 14.3C21.2505 15.8167 20.5005 17.15 19.4005 18.3L17.7005 16.6C18.5172 15.7667 19.0672 14.7917 19.3505 13.675C19.6338 12.5583 19.6338 11.4417 19.3505 10.325C19.0672 9.20833 18.5172 8.23333 17.7005 7.4L19.4005 5.7ZM11.5755 22L7.00049 18H5.07549C4.50882 18 3.99216 17.8667 3.52549 17.6C3.05882 17.3167 2.68382 16.9417 2.40049 16.475C2.13382 15.9917 2.00049 15.475 2.00049 14.925V9.075C2.00049 8.525 2.13382 8.01667 2.40049 7.55C2.68382 7.06667 3.05882 6.69167 3.52549 6.425C3.99216 6.14167 4.50882 6 5.07549 6H7.00049L11.5755 2H14.5005V22H11.5755ZM5.22549 8.425C5.00882 8.425 4.82549 8.50833 4.67549 8.675C4.54216 8.825 4.47549 9 4.47549 9.2V14.8C4.47549 15 4.54216 15.1833 4.67549 15.35C4.82549 15.5 5.00882 15.575 5.22549 15.575H7.92549L12.9255 19.9L12.0255 20.175V3.8L12.9255 4.1L7.92549 8.425H5.22549Z" fill="black"/>
</g>
<defs>
<clipPath id="clip0_3190_35396">
<rect width="24" height="24" fill="white"/>
</clipPath>
</defs>
</svg>
