<svg width="24" height="24" viewBox="0 0 24 24" fill="none" xmlns="http://www.w3.org/2000/svg">
<g clip-path="url(#clip0_3190_35414)">
<rect width="24" height="24" fill="white"/>
<path d="M19.325 5.525C20.475 6.70833 21.25 8.08333 21.65 9.65C22.05 11.2167 22.05 12.7833 21.65 14.35C21.25 15.9167 20.475 17.2917 19.325 18.475L16.975 16.225C17.725 15.4583 18.2333 14.5667 18.5 13.55C18.7667 12.5167 18.7667 11.4917 18.5 10.475C18.2333 9.44167 17.725 8.54167 16.975 7.775L19.325 5.525ZM11.25 22L6.5 17.5H3.85C3.33333 17.5 2.89167 17.325 2.525 16.975C2.175 16.6083 2 16.1667 2 15.65V8.35C2 7.83333 2.175 7.4 2.525 7.05C2.89167 6.68333 3.33333 6.5 3.85 6.5H6.5L11.25 2H14.5V22H11.25Z" fill="black"/>
</g>
<defs>
<clipPath id="clip0_3190_35414">
<rect width="24" height="24" fill="white"/>
</clipPath>
</defs>
</svg>
