<svg width="24" height="24" viewBox="0 0 24 24" fill="none" xmlns="http://www.w3.org/2000/svg">
<g clip-path="url(#clip0_3190_35398)">
<rect width="24" height="24" fill="white"/>
<path d="M19.3255 5.575C20.4755 6.74167 21.2505 8.10833 21.6505 9.675C22.0505 11.225 22.0505 12.7833 21.6505 14.35C21.2505 15.9 20.4755 17.2583 19.3255 18.425L17.2255 16.375C18.0088 15.575 18.5338 14.65 18.8005 13.6C19.0672 12.5333 19.0672 11.475 18.8005 10.425C18.5338 9.35833 18.0088 8.425 17.2255 7.625L19.3255 5.575ZM11.3005 22L6.87549 18H5.17549C4.59216 18 4.05049 17.8583 3.55049 17.575C3.06716 17.2917 2.68382 16.9083 2.40049 16.425C2.13382 15.9417 2.00049 15.4083 2.00049 14.825V9.175C2.00049 8.59167 2.13382 8.05833 2.40049 7.575C2.68382 7.09167 3.06716 6.70833 3.55049 6.425C4.05049 6.14167 4.59216 6 5.17549 6H6.87549L11.3005 2H14.5005V22H11.3005ZM5.40049 8.95C5.28382 8.95 5.18382 8.99167 5.10049 9.075C5.03382 9.15833 5.00049 9.25833 5.00049 9.375V14.625C5.00049 14.7417 5.03382 14.8417 5.10049 14.925C5.18382 15.0083 5.28382 15.05 5.40049 15.05H8.05049L12.3505 18.875L11.5005 19.35V4.65L12.3505 5.125L8.05049 8.95H5.40049Z" fill="black"/>
</g>
<defs>
<clipPath id="clip0_3190_35398">
<rect width="24" height="24" fill="white"/>
</clipPath>
</defs>
</svg>
