<svg width="24" height="24" viewBox="0 0 24 24" fill="none" xmlns="http://www.w3.org/2000/svg">
<g clip-path="url(#clip0_3190_35431)">
<rect width="24" height="24" fill="white"/>
<path d="M21.5755 5.9C22.2088 7.01667 22.6338 8.31667 22.8505 9.8C23.0838 11.2667 23.0838 12.7417 22.8505 14.225C22.6338 15.6917 22.2088 16.9833 21.5755 18.1L19.1755 16.925C19.6922 16.0417 20.0338 15 20.2005 13.8C20.3672 12.6 20.3672 11.4 20.2005 10.2C20.0338 9 19.6922 7.95833 19.1755 7.075L21.5755 5.9ZM17.8005 8.05C18.2005 8.76667 18.4672 9.6 18.6005 10.55C18.7505 11.5 18.7505 12.45 18.6005 13.4C18.4672 14.35 18.2005 15.1917 17.8005 15.925L15.4005 14.725C15.6672 14.2417 15.8422 13.6667 15.9255 13C16.0255 12.3167 16.0255 11.6417 15.9255 10.975C15.8422 10.2917 15.6672 9.71667 15.4005 9.25L17.8005 8.05ZM10.9505 22L6.55049 18H5.17549C4.59216 18 4.05049 17.8583 3.55049 17.575C3.06716 17.2917 2.68382 16.9083 2.40049 16.425C2.13382 15.9417 2.00049 15.4083 2.00049 14.825V9.175C2.00049 8.59167 2.13382 8.05833 2.40049 7.575C2.68382 7.09167 3.06716 6.70833 3.55049 6.425C4.05049 6.14167 4.59216 6 5.17549 6H6.55049L10.9505 2H14.1755V22H10.9505ZM5.40049 8.95C5.28382 8.95 5.18382 8.99167 5.10049 9.075C5.03382 9.15833 5.00049 9.25833 5.00049 9.375V14.625C5.00049 14.7417 5.03382 14.8417 5.10049 14.925C5.18382 15.0083 5.28382 15.05 5.40049 15.05H7.72549L12.0005 18.875L11.1755 19.35V4.65L12.0005 5.125L7.72549 8.95H5.40049Z" fill="black"/>
</g>
<defs>
<clipPath id="clip0_3190_35431">
<rect width="24" height="24" fill="white"/>
</clipPath>
</defs>
</svg>
