<svg width="24" height="24" viewBox="0 0 24 24" fill="none" xmlns="http://www.w3.org/2000/svg">
<g clip-path="url(#clip0_3203_8826)">
<rect width="24" height="24" fill="white"/>
<path d="M5.32549 21C4.72549 21 4.16716 20.85 3.65049 20.55C3.15049 20.25 2.75049 19.85 2.45049 19.35C2.15049 18.8333 2.00049 18.275 2.00049 17.675V10C2.00049 9.38333 2.15049 8.825 2.45049 8.325C2.75049 7.80833 3.15049 7.40833 3.65049 7.125C4.16716 6.825 4.72549 6.675 5.32549 6.675H18.6755C19.2755 6.675 19.8255 6.825 20.3255 7.125C20.8422 7.40833 21.2505 7.80833 21.5505 8.325C21.8505 8.825 22.0005 9.38333 22.0005 10V17.675C22.0005 18.275 21.8505 18.8333 21.5505 19.35C21.2505 19.85 20.8422 20.25 20.3255 20.55C19.8255 20.85 19.2755 21 18.6755 21H5.32549ZM18.5755 18.025C18.6922 18.025 18.7838 17.9917 18.8505 17.925C18.9338 17.8417 18.9755 17.7417 18.9755 17.625V10.05C18.9755 9.93333 18.9338 9.83333 18.8505 9.75C18.7838 9.66667 18.6922 9.625 18.5755 9.625H5.42549C5.30882 9.625 5.20882 9.66667 5.12549 9.75C5.05882 9.83333 5.02549 9.93333 5.02549 10.05V17.625C5.02549 17.7417 5.05882 17.8417 5.12549 17.925C5.20882 17.9917 5.30882 18.025 5.42549 18.025H18.5755ZM13.8505 5.25C13.8505 5.23333 13.8422 5.225 13.8255 5.225C13.8255 5.20833 13.8172 5.2 13.8005 5.2H10.2005C10.1838 5.2 10.1672 5.20833 10.1505 5.225C10.1505 5.225 10.1505 5.23333 10.1505 5.25V7.15H7.32549V4.675C7.32549 4.05833 7.53382 3.54167 7.95049 3.125C8.38382 2.70833 8.90882 2.5 9.52549 2.5H14.4755C15.0922 2.5 15.6088 2.70833 16.0255 3.125C16.4588 3.54167 16.6755 4.05833 16.6755 4.675V7.15H13.8505V5.25Z" fill="black"/>
</g>
<defs>
<clipPath id="clip0_3203_8826">
<rect width="24" height="24" fill="white"/>
</clipPath>
</defs>
</svg>
