<svg width="24" height="24" viewBox="0 0 24 24" fill="none" xmlns="http://www.w3.org/2000/svg">
<g clip-path="url(#clip0_3203_8834)">
<rect width="24" height="24" fill="white"/>
<path d="M4.5 21C3.8 21 3.20833 20.7583 2.725 20.275C2.24167 19.7917 2 19.2 2 18.5V8.5C2 7.8 2.24167 7.20833 2.725 6.725C3.20833 6.24167 3.8 6 4.5 6H19.5C20.2 6 20.7917 6.24167 21.275 6.725C21.7583 7.20833 22 7.8 22 8.5V18.5C22 19.2 21.7583 19.7917 21.275 20.275C20.7917 20.7583 20.2 21 19.5 21H4.5ZM14.625 4.2C14.625 4.08333 14.5917 3.99167 14.525 3.925C14.4583 3.85833 14.375 3.825 14.275 3.825H9.725C9.625 3.825 9.54167 3.85833 9.475 3.925C9.40833 3.99167 9.375 4.08333 9.375 4.2V6.65H8V4.25C8 3.75 8.16667 3.33333 8.5 3C8.83333 2.66667 9.24167 2.5 9.725 2.5H14.275C14.7583 2.5 15.1667 2.66667 15.5 3C15.8333 3.33333 16 3.75 16 4.25V6.65H14.625V4.2Z" fill="black"/>
</g>
<defs>
<clipPath id="clip0_3203_8834">
<rect width="24" height="24" fill="white"/>
</clipPath>
</defs>
</svg>
