<svg width="24" height="24" viewBox="0 0 24 24" fill="none" xmlns="http://www.w3.org/2000/svg">
<g clip-path="url(#clip0_3203_8840)">
<rect width="24" height="24" fill="white"/>
<path d="M4.5 21C3.8 21 3.20833 20.7583 2.725 20.275C2.24167 19.7917 2 19.2 2 18.5V9.175C2 8.475 2.24167 7.88333 2.725 7.4C3.20833 6.91667 3.8 6.675 4.5 6.675H19.5C20.2 6.675 20.7917 6.91667 21.275 7.4C21.7583 7.88333 22 8.475 22 9.175V18.5C22 19.2 21.7583 19.7917 21.275 20.275C20.7917 20.7583 20.2 21 19.5 21H4.5ZM13.825 5.3C13.825 5.28333 13.8167 5.26667 13.8 5.25C13.7833 5.23333 13.775 5.225 13.775 5.225H10.225C10.225 5.225 10.2167 5.23333 10.2 5.25C10.1833 5.26667 10.175 5.275 10.175 5.275V7.15H7.325V4.675C7.325 4.05833 7.53333 3.54167 7.95 3.125C8.38333 2.70833 8.90833 2.5 9.525 2.5H14.475C15.0917 2.5 15.6083 2.70833 16.025 3.125C16.4583 3.54167 16.675 4.05833 16.675 4.675V7.15H13.825V5.3Z" fill="black"/>
</g>
<defs>
<clipPath id="clip0_3203_8840">
<rect width="24" height="24" fill="white"/>
</clipPath>
</defs>
</svg>
