<svg width="24" height="24" viewBox="0 0 24 24" fill="none" xmlns="http://www.w3.org/2000/svg">
<g clip-path="url(#clip0_3203_8900)">
<rect width="24" height="24" fill="white"/>
<path d="M6.00049 17C5.45049 17 4.94216 16.8667 4.47549 16.6C4.02549 16.3333 3.66716 15.975 3.40049 15.525C3.13382 15.0583 3.00049 14.55 3.00049 14V9C3.00049 8.45 3.13382 7.95 3.40049 7.5C3.66716 7.03333 4.02549 6.66667 4.47549 6.4C4.94216 6.13333 5.45049 6 6.00049 6H18.0005C18.5505 6 19.0505 6.13333 19.5005 6.4C19.9672 6.66667 20.3338 7.03333 20.6005 7.5C20.8672 7.95 21.0005 8.45 21.0005 9V14C21.0005 14.55 20.8672 15.0583 20.6005 15.525C20.3338 15.975 19.9672 16.3333 19.5005 16.6C19.0505 16.8667 18.5505 17 18.0005 17H6.00049ZM3.87549 21.25C3.49215 21.25 3.16715 21.1167 2.90049 20.85C2.63382 20.5833 2.50049 20.2583 2.50049 19.875C2.50049 19.4917 2.63382 19.1667 2.90049 18.9C3.16715 18.6333 3.49215 18.5 3.87549 18.5C4.25882 18.5 4.58382 18.6333 4.85049 18.9C5.11716 19.1667 5.25049 19.4917 5.25049 19.875C5.25049 20.2583 5.11716 20.5833 4.85049 20.85C4.58382 21.1167 4.25882 21.25 3.87549 21.25ZM9.30049 21.25C8.91716 21.25 8.59216 21.1167 8.32549 20.85C8.05882 20.5833 7.92549 20.2583 7.92549 19.875C7.92549 19.4917 8.05882 19.1667 8.32549 18.9C8.59216 18.6333 8.91716 18.5 9.30049 18.5C9.68382 18.5 10.0088 18.6333 10.2755 18.9C10.5422 19.1667 10.6755 19.4917 10.6755 19.875C10.6755 20.2583 10.5422 20.5833 10.2755 20.85C10.0088 21.1167 9.68382 21.25 9.30049 21.25ZM14.7005 21.25C14.3172 21.25 13.9922 21.1167 13.7255 20.85C13.4588 20.5833 13.3255 20.2583 13.3255 19.875C13.3255 19.4917 13.4588 19.1667 13.7255 18.9C13.9922 18.6333 14.3172 18.5 14.7005 18.5C15.0838 18.5 15.4088 18.6333 15.6755 18.9C15.9422 19.1667 16.0755 19.4917 16.0755 19.875C16.0755 20.2583 15.9422 20.5833 15.6755 20.85C15.4088 21.1167 15.0838 21.25 14.7005 21.25ZM20.1255 21.25C19.7422 21.25 19.4172 21.1167 19.1505 20.85C18.8838 20.5833 18.7505 20.2583 18.7505 19.875C18.7505 19.4917 18.8838 19.1667 19.1505 18.9C19.4172 18.6333 19.7422 18.5 20.1255 18.5C20.5088 18.5 20.8338 18.6333 21.1005 18.9C21.3672 19.1667 21.5005 19.4917 21.5005 19.875C21.5005 20.2583 21.3672 20.5833 21.1005 20.85C20.8338 21.1167 20.5088 21.25 20.1255 21.25ZM18.0005 15.15C18.3172 15.15 18.5755 15.0417 18.7755 14.825C18.9922 14.6083 19.1005 14.3333 19.1005 14V9C19.1005 8.66667 18.9922 8.39167 18.7755 8.175C18.5755 7.95833 18.3172 7.85 18.0005 7.85H6.00049C5.68382 7.85 5.41716 7.95833 5.20049 8.175C5.00049 8.39167 4.90049 8.66667 4.90049 9V14C4.90049 14.3333 5.00049 14.6083 5.20049 14.825C5.41716 15.0417 5.68382 15.15 6.00049 15.15H18.0005ZM14.1255 4.35C14.1255 4.33333 14.1255 4.325 14.1255 4.325C14.1255 4.325 14.1172 4.325 14.1005 4.325H9.90049C9.88382 4.325 9.87549 4.325 9.87549 4.325C9.87549 4.325 9.87549 4.33333 9.87549 4.35V6.875H8.00049V4.35C8.00049 3.83333 8.18382 3.4 8.55049 3.05C8.91716 2.68333 9.36716 2.5 9.90049 2.5H14.1005C14.6338 2.5 15.0838 2.68333 15.4505 3.05C15.8172 3.4 16.0005 3.83333 16.0005 4.35V6.875H14.1255V4.35Z" fill="black"/>
</g>
<defs>
<clipPath id="clip0_3203_8900">
<rect width="24" height="24" fill="white"/>
</clipPath>
</defs>
</svg>
