<svg width="24" height="24" viewBox="0 0 24 24" fill="none" xmlns="http://www.w3.org/2000/svg">
<g clip-path="url(#clip0_3203_8902)">
<rect width="24" height="24" fill="white"/>
<path d="M6.00049 17C5.45049 17 4.94216 16.8667 4.47549 16.6C4.02549 16.3333 3.66716 15.975 3.40049 15.525C3.13382 15.0583 3.00049 14.55 3.00049 14V8.675C3.00049 8.125 3.13382 7.625 3.40049 7.175C3.66716 6.70833 4.02549 6.34167 4.47549 6.075C4.94216 5.80833 5.45049 5.675 6.00049 5.675H18.0005C18.5505 5.675 19.0505 5.80833 19.5005 6.075C19.9672 6.34167 20.3338 6.70833 20.6005 7.175C20.8672 7.625 21.0005 8.125 21.0005 8.675V14C21.0005 14.55 20.8672 15.0583 20.6005 15.525C20.3338 15.975 19.9672 16.3333 19.5005 16.6C19.0505 16.8667 18.5505 17 18.0005 17H6.00049ZM4.05049 21.425C3.60049 21.425 3.22549 21.2833 2.92549 21C2.64216 20.7 2.50049 20.3333 2.50049 19.9C2.50049 19.45 2.64216 19.0833 2.92549 18.8C3.22549 18.5 3.60049 18.35 4.05049 18.35C4.48382 18.35 4.84216 18.5 5.12549 18.8C5.42549 19.0833 5.57549 19.45 5.57549 19.9C5.57549 20.3333 5.42549 20.7 5.12549 21C4.84216 21.2833 4.48382 21.425 4.05049 21.425ZM9.35049 21.425C8.91716 21.425 8.55049 21.2833 8.25049 21C7.95049 20.7 7.80049 20.3333 7.80049 19.9C7.80049 19.45 7.95049 19.0833 8.25049 18.8C8.55049 18.5 8.91716 18.35 9.35049 18.35C9.78382 18.35 10.1505 18.5 10.4505 18.8C10.7505 19.0833 10.9005 19.45 10.9005 19.9C10.9005 20.3333 10.7505 20.7 10.4505 21C10.1505 21.2833 9.78382 21.425 9.35049 21.425ZM14.6505 21.425C14.2172 21.425 13.8505 21.2833 13.5505 21C13.2505 20.7 13.1005 20.3333 13.1005 19.9C13.1005 19.45 13.2505 19.0833 13.5505 18.8C13.8505 18.5 14.2172 18.35 14.6505 18.35C15.0838 18.35 15.4505 18.5 15.7505 18.8C16.0505 19.0833 16.2005 19.45 16.2005 19.9C16.2005 20.3333 16.0505 20.7 15.7505 21C15.4505 21.2833 15.0838 21.425 14.6505 21.425ZM19.9505 21.425C19.5172 21.425 19.1505 21.2833 18.8505 21C18.5672 20.7 18.4255 20.3333 18.4255 19.9C18.4255 19.45 18.5672 19.0833 18.8505 18.8C19.1505 18.5 19.5172 18.35 19.9505 18.35C20.4005 18.35 20.7672 18.5 21.0505 18.8C21.3505 19.0833 21.5005 19.45 21.5005 19.9C21.5005 20.3333 21.3505 20.7 21.0505 21C20.7672 21.2833 20.4005 21.425 19.9505 21.425ZM18.0005 14.825C18.2172 14.825 18.4005 14.75 18.5505 14.6C18.7005 14.4333 18.7755 14.2333 18.7755 14V8.675C18.7755 8.425 18.7005 8.225 18.5505 8.075C18.4005 7.925 18.2172 7.85 18.0005 7.85H6.00049C5.78382 7.85 5.60049 7.925 5.45049 8.075C5.30049 8.225 5.22549 8.425 5.22549 8.675V14C5.22549 14.2333 5.30049 14.4333 5.45049 14.6C5.60049 14.75 5.78382 14.825 6.00049 14.825H18.0005ZM13.7005 4.625C13.7005 4.60833 13.7005 4.6 13.7005 4.6C13.7005 4.6 13.6922 4.6 13.6755 4.6H10.3255C10.3088 4.6 10.3005 4.6 10.3005 4.6C10.3005 4.6 10.3005 4.60833 10.3005 4.625V6.55H8.17549V4.35C8.17549 3.83333 8.35049 3.4 8.70049 3.05C9.06716 2.68333 9.50882 2.5 10.0255 2.5H13.9755C14.4922 2.5 14.9255 2.68333 15.2755 3.05C15.6422 3.4 15.8255 3.83333 15.8255 4.35V6.55H13.7005V4.625Z" fill="black"/>
</g>
<defs>
<clipPath id="clip0_3203_8902">
<rect width="24" height="24" fill="white"/>
</clipPath>
</defs>
</svg>
