<svg width="24" height="24" viewBox="0 0 24 24" fill="none" xmlns="http://www.w3.org/2000/svg">
<g clip-path="url(#clip0_3203_8912)">
<rect width="24" height="24" fill="white"/>
<path d="M3.675 21.35C3.375 21.35 3.11667 21.2417 2.9 21.025C2.7 20.8083 2.6 20.55 2.6 20.25C2.6 19.95 2.7 19.7 2.9 19.5C3.11667 19.2833 3.375 19.175 3.675 19.175C3.975 19.175 4.23333 19.2833 4.45 19.5C4.66667 19.7 4.775 19.95 4.775 20.25C4.775 20.55 4.66667 20.8083 4.45 21.025C4.23333 21.2417 3.975 21.35 3.675 21.35ZM9.225 21.35C8.925 21.35 8.66667 21.2417 8.45 21.025C8.25 20.8083 8.15 20.55 8.15 20.25C8.15 19.95 8.25 19.7 8.45 19.5C8.66667 19.2833 8.925 19.175 9.225 19.175C9.525 19.175 9.78333 19.2833 10 19.5C10.2167 19.7 10.325 19.95 10.325 20.25C10.325 20.55 10.2167 20.8083 10 21.025C9.78333 21.2417 9.525 21.35 9.225 21.35ZM14.775 21.35C14.475 21.35 14.2167 21.2417 14 21.025C13.7833 20.8083 13.675 20.55 13.675 20.25C13.675 19.95 13.7833 19.7 14 19.5C14.2167 19.2833 14.475 19.175 14.775 19.175C15.075 19.175 15.325 19.2833 15.525 19.5C15.7417 19.7 15.85 19.95 15.85 20.25C15.85 20.55 15.7417 20.8083 15.525 21.025C15.325 21.2417 15.075 21.35 14.775 21.35ZM20.325 21.35C20.025 21.35 19.7667 21.2417 19.55 21.025C19.3333 20.8083 19.225 20.55 19.225 20.25C19.225 19.95 19.3333 19.7 19.55 19.5C19.7667 19.2833 20.025 19.175 20.325 19.175C20.625 19.175 20.875 19.2833 21.075 19.5C21.2917 19.7 21.4 19.95 21.4 20.25C21.4 20.55 21.2917 20.8083 21.075 21.025C20.875 21.2417 20.625 21.35 20.325 21.35ZM5.5 17.325C4.8 17.325 4.20833 17.0833 3.725 16.6C3.24167 16.1167 3 15.525 3 14.825V8.325C3 7.625 3.24167 7.03333 3.725 6.55C4.20833 6.06667 4.8 5.825 5.5 5.825H18.5C19.2 5.825 19.7917 6.06667 20.275 6.55C20.7583 7.03333 21 7.625 21 8.325V14.825C21 15.525 20.7583 16.1167 20.275 16.6C19.7917 17.0833 19.2 17.325 18.5 17.325H5.5ZM14.425 4.225C14.425 4.125 14.3917 4.04167 14.325 3.975C14.2583 3.90833 14.175 3.875 14.075 3.875H9.925C9.825 3.875 9.74167 3.90833 9.675 3.975C9.60833 4.04167 9.575 4.125 9.575 4.225V6.525H8.175V4.225C8.175 3.74167 8.34167 3.33333 8.675 3C9.025 2.66667 9.44167 2.5 9.925 2.5H14.075C14.575 2.5 14.9917 2.66667 15.325 3C15.6583 3.33333 15.825 3.74167 15.825 4.225V6.525H14.425V4.225Z" fill="black"/>
</g>
<defs>
<clipPath id="clip0_3203_8912">
<rect width="24" height="24" fill="white"/>
</clipPath>
</defs>
</svg>
