<svg width="24" height="24" viewBox="0 0 24 24" fill="none" xmlns="http://www.w3.org/2000/svg">
<g clip-path="url(#clip0_3203_8906)">
<rect width="24" height="24" fill="white"/>
<path d="M6.50049 16.525C5.86716 16.525 5.27549 16.375 4.72549 16.075C4.19216 15.7583 3.76716 15.3333 3.45049 14.8C3.15049 14.25 3.00049 13.6583 3.00049 13.025V8C3.00049 7.35 3.15049 6.75833 3.45049 6.225C3.76716 5.69167 4.19216 5.275 4.72549 4.975C5.27549 4.65833 5.86716 4.5 6.50049 4.5H17.5005C18.1505 4.5 18.7422 4.65833 19.2755 4.975C19.8088 5.275 20.2255 5.69167 20.5255 6.225C20.8422 6.75833 21.0005 7.35 21.0005 8V13.025C21.0005 13.6583 20.8422 14.25 20.5255 14.8C20.2255 15.3333 19.8088 15.7583 19.2755 16.075C18.7422 16.375 18.1505 16.525 17.5005 16.525H6.50049ZM4.50049 21.525C3.93382 21.525 3.45882 21.3333 3.07549 20.95C2.69216 20.5667 2.50049 20.0917 2.50049 19.525C2.50049 18.9583 2.69216 18.4833 3.07549 18.1C3.45882 17.7167 3.93382 17.525 4.50049 17.525C5.06716 17.525 5.54216 17.7167 5.92549 18.1C6.30882 18.4833 6.50049 18.9583 6.50049 19.525C6.50049 20.0917 6.30882 20.5667 5.92549 20.95C5.54216 21.3333 5.06716 21.525 4.50049 21.525ZM9.50049 21.525C8.93382 21.525 8.45882 21.3333 8.07549 20.95C7.69216 20.5667 7.50049 20.0917 7.50049 19.525C7.50049 18.9583 7.69216 18.4833 8.07549 18.1C8.45882 17.7167 8.93382 17.525 9.50049 17.525C10.0672 17.525 10.5422 17.7167 10.9255 18.1C11.3088 18.4833 11.5005 18.9583 11.5005 19.525C11.5005 20.0917 11.3088 20.5667 10.9255 20.95C10.5422 21.3333 10.0672 21.525 9.50049 21.525ZM14.5005 21.525C13.9338 21.525 13.4588 21.3333 13.0755 20.95C12.6922 20.5667 12.5005 20.0917 12.5005 19.525C12.5005 18.9583 12.6922 18.4833 13.0755 18.1C13.4588 17.7167 13.9338 17.525 14.5005 17.525C15.0672 17.525 15.5422 17.7167 15.9255 18.1C16.3088 18.4833 16.5005 18.9583 16.5005 19.525C16.5005 20.0917 16.3088 20.5667 15.9255 20.95C15.5422 21.3333 15.0672 21.525 14.5005 21.525ZM19.5005 21.525C18.9338 21.525 18.4588 21.3333 18.0755 20.95C17.6922 20.5667 17.5005 20.0917 17.5005 19.525C17.5005 18.9583 17.6922 18.4833 18.0755 18.1C18.4588 17.7167 18.9338 17.525 19.5005 17.525C20.0672 17.525 20.5422 17.7167 20.9255 18.1C21.3088 18.4833 21.5005 18.9583 21.5005 19.525C21.5005 20.0917 21.3088 20.5667 20.9255 20.95C20.5422 21.3333 20.0672 21.525 19.5005 21.525ZM17.4255 13.075C17.4422 13.075 17.4588 13.0667 17.4755 13.05C17.4922 13.0333 17.5005 13.0167 17.5005 13V8.025C17.5005 8.00833 17.4922 7.99167 17.4755 7.975C17.4588 7.95833 17.4422 7.95 17.4255 7.95H6.57549C6.55882 7.95 6.54216 7.95833 6.52549 7.975C6.50882 7.99167 6.50049 8.00833 6.50049 8.025V13C6.50049 13.0167 6.50882 13.0333 6.52549 13.05C6.54216 13.0667 6.55882 13.075 6.57549 13.075H17.4255ZM13.1255 5.35C13.1088 5.35 13.0922 5.35 13.0755 5.35C13.0755 5.35 13.0672 5.35 13.0505 5.35H10.7005C10.6838 5.35 10.6672 5.35 10.6505 5.35C10.6505 5.35 10.6422 5.35 10.6255 5.35H9.62549H9.00049V3.75C9.00049 3.4 9.12549 3.10833 9.37549 2.875C9.62549 2.625 9.91716 2.5 10.2505 2.5H13.7505C14.1005 2.5 14.3922 2.625 14.6255 2.875C14.8755 3.10833 15.0005 3.4 15.0005 3.75V5.35H14.3755H13.1255Z" fill="black"/>
</g>
<defs>
<clipPath id="clip0_3203_8906">
<rect width="24" height="24" fill="white"/>
</clipPath>
</defs>
</svg>
