<svg width="24" height="24" viewBox="0 0 24 24" fill="none" xmlns="http://www.w3.org/2000/svg">
<g clip-path="url(#clip0_3203_9180)">
<rect width="24" height="24" fill="white"/>
<path d="M21.125 21H13.375L12.625 11.75H21.875L21.125 21ZM15.15 11.7C15.15 11.0833 15.3417 10.5833 15.725 10.2C16.125 9.8 16.6333 9.6 17.25 9.6C17.8667 9.6 18.3667 9.8 18.75 10.2C19.15 10.5833 19.35 11.0833 19.35 11.7V12.675H18.1H17.75C17.6333 12.675 17.55 12.675 17.5 12.675C17.45 12.675 17.3667 12.675 17.25 12.675C17.1333 12.675 17.05 12.675 17 12.675C16.95 12.675 16.8667 12.675 16.75 12.675H16.4H15.15V11.7ZM9.75 15C10.3833 15 10.9167 15.2167 11.35 15.65C11.7833 16.0833 12 16.6167 12 17.25V21H2V17.25C2 16.6167 2.21667 16.0833 2.65 15.65C3.1 15.2167 3.63333 15 4.25 15H9.75ZM8.875 2V16.7H5.125V2H8.875Z" fill="black"/>
</g>
<defs>
<clipPath id="clip0_3203_9180">
<rect width="24" height="24" fill="white"/>
</clipPath>
</defs>
</svg>
