<svg width="24" height="24" viewBox="0 0 24 24" fill="none" xmlns="http://www.w3.org/2000/svg">
<g clip-path="url(#clip0_3203_9156)">
<rect width="24" height="24" fill="white"/>
<path d="M13.6505 12.65L14.2505 20.1H20.2505L20.8505 12.65H13.6505ZM21.1005 21H13.4005L12.6255 11.75H21.8755L21.1005 21ZM14.2505 11.25C14.2505 10.4167 14.5422 9.71667 15.1255 9.15C15.7088 8.56667 16.4172 8.275 17.2505 8.275C18.0838 8.275 18.7922 8.56667 19.3755 9.15C19.9588 9.71667 20.2505 10.4167 20.2505 11.25V12.25H19.3505V11.25C19.3505 10.65 19.1422 10.15 18.7255 9.75C18.3255 9.33333 17.8338 9.125 17.2505 9.125C16.6672 9.125 16.1672 9.33333 15.7505 9.75C15.3505 10.15 15.1505 10.65 15.1505 11.25V12.25H14.2505V11.25ZM10.0755 17.5C10.0755 17.05 9.91716 16.675 9.60049 16.375C9.30049 16.0583 8.92549 15.9 8.47549 15.9H4.52549C4.07549 15.9 3.69216 16.0583 3.37549 16.375C3.07549 16.675 2.92549 17.05 2.92549 17.5V20.1H10.0755V17.5ZM8.47549 15C9.19216 15 9.79216 15.2417 10.2755 15.725C10.7588 16.2083 11.0005 16.8 11.0005 17.5V21H2.00049V17.5C2.00049 16.8 2.24216 16.2083 2.72549 15.725C3.20882 15.2417 3.80882 15 4.52549 15H8.47549ZM6.97549 2V15.375H6.02549V2H6.97549Z" fill="black"/>
</g>
<defs>
<clipPath id="clip0_3203_9156">
<rect width="24" height="24" fill="white"/>
</clipPath>
</defs>
</svg>
