<svg width="24" height="24" viewBox="0 0 24 24" fill="none" xmlns="http://www.w3.org/2000/svg">
<g clip-path="url(#clip0_3202_8143)">
<rect width="24" height="24" fill="white"/>
<path d="M13.1755 12.225L13.8255 20.525H20.6755L21.3255 12.225H13.1755ZM21.1255 21H13.3755L12.6255 11.75H21.8755L21.1255 21ZM14.2505 11.275C14.2505 10.4417 14.5422 9.73333 15.1255 9.15C15.7088 8.56667 16.4172 8.275 17.2505 8.275C18.0838 8.275 18.7922 8.56667 19.3755 9.15C19.9588 9.73333 20.2505 10.4417 20.2505 11.275V12H19.7505V11.275C19.7505 10.5583 19.5088 9.95833 19.0255 9.475C18.5422 8.99167 17.9505 8.75 17.2505 8.75C16.5505 8.75 15.9588 8.99167 15.4755 9.475C14.9922 9.95833 14.7505 10.5583 14.7505 11.275V12H14.2505V11.275ZM10.5005 17.5C10.5005 16.9333 10.3005 16.4583 9.90049 16.075C9.51716 15.675 9.04216 15.475 8.47549 15.475H4.52549C3.95882 15.475 3.47549 15.675 3.07549 16.075C2.69216 16.4583 2.50049 16.9333 2.50049 17.5V20.525H10.5005V17.5ZM8.47549 15C9.19216 15 9.79216 15.2417 10.2755 15.725C10.7588 16.2083 11.0005 16.8 11.0005 17.5V21H2.00049V17.5C2.00049 16.8 2.24216 16.2083 2.72549 15.725C3.20882 15.2417 3.80882 15 4.52549 15H8.47549ZM6.75049 2V15.2H6.25049V2H6.75049Z" fill="black"/>
</g>
<defs>
<clipPath id="clip0_3202_8143">
<rect width="24" height="24" fill="white"/>
</clipPath>
</defs>
</svg>
