<svg width="24" height="24" viewBox="0 0 24 24" fill="none" xmlns="http://www.w3.org/2000/svg">
<g clip-path="url(#clip0_3203_9164)">
<rect width="24" height="24" fill="white"/>
<path d="M15.5505 14.4L15.8755 18.35H18.6255L18.9505 14.4H15.5505ZM21.1255 21H13.3755L12.6255 11.75H21.8755L21.1255 21ZM15.1505 11.7C15.1505 11.0833 15.3422 10.5833 15.7255 10.2C16.1255 9.8 16.6338 9.6 17.2505 9.6C17.8672 9.6 18.3672 9.8 18.7505 10.2C19.1505 10.5833 19.3505 11.0833 19.3505 11.7V12.675H18.1005H17.7505C17.6338 12.675 17.5505 12.675 17.5005 12.675C17.4505 12.675 17.3672 12.675 17.2505 12.675C17.1338 12.675 17.0505 12.675 17.0005 12.675C16.9505 12.675 16.8672 12.675 16.7505 12.675H16.4005H15.1505V11.7ZM8.80049 16.575C8.80049 16.4917 8.77549 16.425 8.72549 16.375C8.67549 16.3083 8.61716 16.275 8.55049 16.275H4.95049C4.88382 16.275 4.82549 16.3083 4.77549 16.375C4.72549 16.425 4.70049 16.4917 4.70049 16.575V18.375H8.80049V16.575ZM9.00049 13.675C9.71716 13.675 10.3088 13.9167 10.7755 14.4C11.2588 14.8667 11.5005 15.4583 11.5005 16.175V21H2.00049V16.175C2.00049 15.4583 2.24216 14.8667 2.72549 14.4C3.20882 13.9167 3.80049 13.675 4.50049 13.675H9.00049ZM8.20049 2V14.725H5.30049V2H8.20049Z" fill="black"/>
</g>
<defs>
<clipPath id="clip0_3203_9164">
<rect width="24" height="24" fill="white"/>
</clipPath>
</defs>
</svg>
