<svg width="24" height="24" viewBox="0 0 24 24" fill="none" xmlns="http://www.w3.org/2000/svg">
<g clip-path="url(#clip0_3203_9168)">
<rect width="24" height="24" fill="white"/>
<path d="M21.125 21H13.375L12.625 11.75H21.875L21.125 21ZM14.25 11.275C14.25 10.4417 14.5417 9.73333 15.125 9.15C15.7083 8.56667 16.4167 8.275 17.25 8.275C18.0833 8.275 18.7917 8.56667 19.375 9.15C19.9583 9.73333 20.25 10.4417 20.25 11.275V12H19.75V11.275C19.75 10.5583 19.5083 9.95833 19.025 9.475C18.5417 8.99167 17.95 8.75 17.25 8.75C16.55 8.75 15.9583 8.99167 15.475 9.475C14.9917 9.95833 14.75 10.5583 14.75 11.275V12H14.25V11.275ZM8.75 15C9.38333 15 9.91667 15.2167 10.35 15.65C10.7833 16.0833 11 16.6167 11 17.25V21H2V17.25C2 16.6167 2.21667 16.0833 2.65 15.65C3.1 15.2167 3.63333 15 4.25 15H8.75ZM6.75 2V15.2H6.25V2H6.75Z" fill="black"/>
</g>
<defs>
<clipPath id="clip0_3203_9168">
<rect width="24" height="24" fill="white"/>
</clipPath>
</defs>
</svg>
