<svg width="24" height="24" viewBox="0 0 24 24" fill="none" xmlns="http://www.w3.org/2000/svg">
<g clip-path="url(#clip0_3203_8942)">
<rect width="24" height="24" fill="white"/>
<path d="M8.8 7.575C8.8 7.14167 9.00833 6.78333 9.425 6.5C9.84167 6.2 10.3667 6.05 11 6.05C11.6333 6.05 12.1583 6.2 12.575 6.5C12.9917 6.78333 13.2 7.14167 13.2 7.575V8.8L8.8 11.725V7.575ZM11 4.9C10.4833 4.9 10.05 4.725 9.7 4.375C9.35 4.025 9.175 3.59167 9.175 3.075C9.175 2.575 9.35 2.15 9.7 1.8C10.05 1.45 10.4833 1.275 11 1.275C11.5167 1.275 11.95 1.45 12.3 1.8C12.65 2.15 12.825 2.575 12.825 3.075C12.825 3.59167 12.65 4.025 12.3 4.375C11.95 4.725 11.5167 4.9 11 4.9ZM4 22C3.16667 22 2.45833 21.7083 1.875 21.125C1.29167 20.5417 1 19.8333 1 19C1 18.1667 1.29167 17.4583 1.875 16.875C2.45833 16.2917 3.16667 16 4 16H5.85L16.425 9H20C20.8333 9 21.5417 9.29167 22.125 9.875C22.7083 10.4417 23 11.1417 23 11.975C23 12.825 22.7083 13.5417 22.125 14.125C21.5417 14.7083 20.8333 15 20 15H18.15L7.575 22H4Z" fill="black"/>
</g>
<defs>
<clipPath id="clip0_3203_8942">
<rect width="24" height="24" fill="white"/>
</clipPath>
</defs>
</svg>
