<svg width="24" height="24" viewBox="0 0 24 24" fill="none" xmlns="http://www.w3.org/2000/svg">
<g clip-path="url(#clip0_3203_8984)">
<rect width="24" height="24" fill="white"/>
<path d="M6.25049 21C5.46716 21 4.75049 20.8167 4.10049 20.45C3.45049 20.0667 2.93382 19.55 2.55049 18.9C2.18382 18.25 2.00049 17.5333 2.00049 16.75C2.00049 15.9667 2.18382 15.25 2.55049 14.6C2.93382 13.95 3.45049 13.4417 4.10049 13.075C4.75049 12.6917 5.46716 12.5 6.25049 12.5H7.22549L13.7005 7.5H17.7505C18.5338 7.5 19.2505 7.69167 19.9005 8.075C20.5505 8.44167 21.0588 8.95 21.4255 9.6C21.8088 10.25 22.0005 10.9667 22.0005 11.75C22.0005 12.5333 21.8088 13.25 21.4255 13.9C21.0588 14.55 20.5505 15.0667 19.9005 15.45C19.2505 15.8167 18.5338 16 17.7505 16H16.7755L10.3005 21H6.25049ZM9.15049 17.6L15.6005 12.6H17.7505C17.9672 12.6 18.1505 12.5167 18.3005 12.35C18.4672 12.1833 18.5505 11.9833 18.5505 11.75C18.5505 11.5167 18.4672 11.3167 18.3005 11.15C18.1505 10.9833 17.9672 10.9 17.7505 10.9H14.8505L8.37549 15.9H6.25049C6.03382 15.9 5.84216 15.9833 5.67549 16.15C5.52549 16.3167 5.45049 16.5167 5.45049 16.75C5.45049 16.9833 5.52549 17.1833 5.67549 17.35C5.84216 17.5167 6.03382 17.6 6.25049 17.6H9.15049ZM8.97549 5.85L4.30049 10.525L2.00049 8.225L6.67549 3.55L8.97549 5.85ZM9.55049 3V10.075L8.20049 8.7L6.02549 6.525L3.80049 4.3L2.47549 3H9.55049Z" fill="black"/>
</g>
<defs>
<clipPath id="clip0_3203_8984">
<rect width="24" height="24" fill="white"/>
</clipPath>
</defs>
</svg>
