<svg width="24" height="24" viewBox="0 0 24 24" fill="none" xmlns="http://www.w3.org/2000/svg">
<g clip-path="url(#clip0_3203_8990)">
<rect width="24" height="24" fill="white"/>
<path d="M5 21C4.16667 21 3.45833 20.7083 2.875 20.125C2.29167 19.5417 2 18.8333 2 18C2 17.1667 2.29167 16.4583 2.875 15.875C3.45833 15.2917 4.16667 15 5 15H7.275L14.775 7.5H19C19.8333 7.5 20.5417 7.79167 21.125 8.375C21.7083 8.94167 22 9.64167 22 10.475C22 11.325 21.7083 12.0417 21.125 12.625C20.5417 13.2083 19.8333 13.5 19 13.5H16.725L9.225 21H5ZM9.125 4.575L3.35 10.325L2.375 9.375L8.15 3.6L9.125 4.575ZM9.775 3V6.775L8.5 5.475L7.975 4.975L7.225 4.225L6 3H9.775Z" fill="black"/>
</g>
<defs>
<clipPath id="clip0_3203_8990">
<rect width="24" height="24" fill="white"/>
</clipPath>
</defs>
</svg>
