<svg width="24" height="24" viewBox="0 0 24 24" fill="none" xmlns="http://www.w3.org/2000/svg">
<g clip-path="url(#clip0_3203_8930)">
<rect width="24" height="24" fill="white"/>
<path d="M9.57549 7.275C9.57549 6.925 9.70882 6.65 9.97549 6.45C10.2422 6.25 10.5838 6.15 11.0005 6.15C11.4172 6.15 11.7588 6.25 12.0255 6.45C12.2922 6.65 12.4255 6.925 12.4255 7.275V12L9.57549 14.525V7.275ZM11.0005 4.925C10.5005 4.925 10.0672 4.75 9.70049 4.4C9.35049 4.03333 9.17549 3.6 9.17549 3.1C9.17549 2.58333 9.35049 2.15 9.70049 1.8C10.0505 1.45 10.4838 1.275 11.0005 1.275C11.5005 1.275 11.9255 1.45 12.2755 1.8C12.6422 2.15 12.8255 2.58333 12.8255 3.1C12.8255 3.6 12.6505 4.03333 12.3005 4.4C11.9505 4.75 11.5172 4.925 11.0005 4.925ZM11.0005 3.1C11.1172 3.1 11.2005 3.1 11.2505 3.1C11.3005 3.1 11.3838 3.1 11.5005 3.1C11.3838 3.1 11.3005 3.1 11.2505 3.1C11.2005 3.1 11.1172 3.1 11.0005 3.1C10.8838 3.1 10.8005 3.1 10.7505 3.1C10.7005 3.1 10.6172 3.1 10.5005 3.1C10.6172 3.1 10.7005 3.1 10.7505 3.1C10.8005 3.1 10.8838 3.1 11.0005 3.1ZM11.4755 8.875C11.3755 8.875 11.2922 8.875 11.2255 8.875C11.1755 8.875 11.1005 8.875 11.0005 8.875C10.8838 8.875 10.8005 8.875 10.7505 8.875C10.7005 8.875 10.6255 8.875 10.5255 8.875H11.4755ZM4.77549 22C4.09216 22 3.45882 21.8333 2.87549 21.5C2.29216 21.1667 1.83382 20.7167 1.50049 20.15C1.16716 19.5667 1.00049 18.9333 1.00049 18.25C1.00049 17.5667 1.16716 16.9417 1.50049 16.375C1.83382 15.7917 2.29216 15.3333 2.87549 15C3.45882 14.6667 4.09216 14.5 4.77549 14.5H6.02549L16.0505 8.675H19.2255C19.9088 8.675 20.5422 8.84167 21.1255 9.175C21.7088 9.49167 22.1672 9.94167 22.5005 10.525C22.8338 11.0917 23.0005 11.7167 23.0005 12.4C23.0005 13.0833 22.8338 13.7167 22.5005 14.3C22.1672 14.8833 21.7088 15.3417 21.1255 15.675C20.5422 16.0083 19.9088 16.175 19.2255 16.175H17.9505L8.00049 22H4.77549ZM7.32549 19.35L17.3005 13.5H19.2255C19.5255 13.5 19.7755 13.3917 19.9755 13.175C20.1922 12.9583 20.3005 12.7 20.3005 12.4C20.3005 12.1 20.1922 11.85 19.9755 11.65C19.7755 11.4333 19.5255 11.325 19.2255 11.325H16.7255L6.70049 17.15H4.77549C4.47549 17.15 4.21716 17.2583 4.00049 17.475C3.80049 17.6917 3.70049 17.95 3.70049 18.25C3.70049 18.55 3.80049 18.8083 4.00049 19.025C4.21716 19.2417 4.47549 19.35 4.77549 19.35H7.32549Z" fill="black"/>
</g>
<defs>
<clipPath id="clip0_3203_8930">
<rect width="24" height="24" fill="white"/>
</clipPath>
</defs>
</svg>
