<svg width="24" height="24" viewBox="0 0 24 24" fill="none" xmlns="http://www.w3.org/2000/svg">
<g clip-path="url(#clip0_3202_8129)">
<rect width="24" height="24" fill="white"/>
<path d="M5.50049 21C4.86716 21 4.27549 20.85 3.72549 20.55C3.19216 20.2333 2.76716 19.8083 2.45049 19.275C2.15049 18.725 2.00049 18.1333 2.00049 17.5C2.00049 16.8667 2.15049 16.2833 2.45049 15.75C2.76716 15.2 3.19216 14.775 3.72549 14.475C4.27549 14.1583 4.86716 14 5.50049 14H7.77549L14.7755 7H18.5005C19.1338 7 19.7172 7.15833 20.2505 7.475C20.8005 7.775 21.2255 8.19167 21.5255 8.725C21.8422 9.25833 22.0005 9.84167 22.0005 10.475C22.0005 11.125 21.8422 11.725 21.5255 12.275C21.2255 12.8083 20.8005 13.2333 20.2505 13.55C19.7172 13.85 19.1338 14 18.5005 14H16.2255L9.22549 21H5.50049ZM9.02549 20.525L16.0255 13.525H18.5005C19.3338 13.525 20.0422 13.2333 20.6255 12.65C21.2088 12.05 21.5005 11.325 21.5005 10.475C21.5005 9.64167 21.2088 8.93333 20.6255 8.35C20.0422 7.76667 19.3338 7.475 18.5005 7.475H14.9755L7.97549 14.475H5.50049C4.66716 14.475 3.95882 14.775 3.37549 15.375C2.79216 15.9583 2.50049 16.6667 2.50049 17.5C2.50049 18.3333 2.79216 19.05 3.37549 19.65C3.95882 20.2333 4.66716 20.525 5.50049 20.525H9.02549ZM8.85049 3.575L2.35049 10.05L2.00049 9.7L8.47549 3.225L8.85049 3.575ZM9.07549 3V7.6H8.57549L8.60049 3.475L4.47549 3.5V3H9.07549Z" fill="black"/>
</g>
<defs>
<clipPath id="clip0_3202_8129">
<rect width="24" height="24" fill="white"/>
</clipPath>
</defs>
</svg>
