<svg width="24" height="24" viewBox="0 0 24 24" fill="none" xmlns="http://www.w3.org/2000/svg">
<g clip-path="url(#clip0_3203_9124)">
<rect width="24" height="24" fill="white"/>
<path d="M16.05 7.25H11.2V2.675H16.05V7.25ZM19.325 4.225H9.35C8.66667 4.225 8.04167 4.39167 7.475 4.725C6.925 5.05833 6.48333 5.51667 6.15 6.1C5.83333 6.66667 5.675 7.29167 5.675 7.975V15.175H3.375V7.975C3.375 6.875 3.64167 5.875 4.175 4.975C4.70833 4.05833 5.425 3.33333 6.325 2.8C7.24167 2.26667 8.25 2 9.35 2H19.325V4.225ZM13.625 6.175C15.5583 6.175 17.1 6.65833 18.25 7.625C19.4167 8.575 20 9.96667 20 11.8V22H7.25V11.8C7.25 9.96667 7.825 8.575 8.975 7.625C10.1417 6.65833 11.6917 6.175 13.625 6.175Z" fill="black"/>
</g>
<defs>
<clipPath id="clip0_3203_9124">
<rect width="24" height="24" fill="white"/>
</clipPath>
</defs>
</svg>
