<svg width="24" height="24" viewBox="0 0 24 24" fill="none" xmlns="http://www.w3.org/2000/svg">
<g clip-path="url(#clip0_3203_9118)">
<rect width="24" height="24" fill="white"/>
<path d="M16 6.925H11V2.5H16V6.925ZM19 2.925H9.075C8.20833 2.925 7.40833 3.13333 6.675 3.55C5.95833 3.96667 5.39167 4.54167 4.975 5.275C4.55833 5.99167 4.35 6.79167 4.35 7.675V15H3.4V7.675C3.4 6.625 3.65 5.675 4.15 4.825C4.65 3.95833 5.33333 3.275 6.2 2.775C7.06667 2.25833 8.025 2 9.075 2H19V2.925ZM13.5 6C15.4667 6 17.0417 6.49167 18.225 7.475C19.4083 8.45833 20 9.88333 20 11.75V22H7V11.75C7 9.88333 7.59167 8.45833 8.775 7.475C9.95833 6.49167 11.5333 6 13.5 6Z" fill="black"/>
</g>
<defs>
<clipPath id="clip0_3203_9118">
<rect width="24" height="24" fill="white"/>
</clipPath>
</defs>
</svg>
