<svg width="24" height="24" viewBox="0 0 24 24" fill="none" xmlns="http://www.w3.org/2000/svg">
<g clip-path="url(#clip0_3202_8131)">
<rect width="24" height="24" fill="white"/>
<path d="M3.00049 18H21.0005V21H3.00049V18ZM20.5005 20.525V18.475H3.50049V20.525H20.5005ZM17.0005 18.225H17.5005V20.7H17.0005V18.225ZM20.5005 14.525C20.5005 13.3417 20.3338 12.425 20.0005 11.775C19.6672 11.1083 19.2422 10.6333 18.7255 10.35C18.2255 10.0667 17.5672 9.80833 16.7505 9.575C15.9338 9.34167 15.2505 9.05833 14.7005 8.725C14.1672 8.39167 13.7172 7.875 13.3505 7.175C13.0005 6.45833 12.8255 5.48333 12.8255 4.25V3H13.3255V4.25C13.3255 5.43333 13.4922 6.35833 13.8255 7.025C14.1588 7.675 14.5755 8.14167 15.0755 8.425C15.5922 8.70833 16.2505 8.95833 17.0505 9.175C17.9005 9.425 18.5922 9.70833 19.1255 10.025C19.6588 10.325 20.1005 10.8333 20.4505 11.55C20.8172 12.2667 21.0005 13.2583 21.0005 14.525V16H20.5005V14.525ZM3.45049 2.95L6.80049 6.3L10.1505 2.95L10.5005 3.3L7.15049 6.65L10.5005 10L10.1505 10.35L6.80049 7L3.45049 10.35L3.10049 10L6.45049 6.65L3.10049 3.3L3.45049 2.95Z" fill="black"/>
</g>
<defs>
<clipPath id="clip0_3202_8131">
<rect width="24" height="24" fill="white"/>
</clipPath>
</defs>
</svg>
