<svg width="24" height="24" viewBox="0 0 24 24" fill="none" xmlns="http://www.w3.org/2000/svg">
<g clip-path="url(#clip0_3203_9010)">
<rect width="24" height="24" fill="white"/>
<path d="M3.00049 13H21.0005V21H3.00049V13ZM17.7755 17.825V16.175H6.22549V17.825H17.7755ZM12.5505 14.9H15.7255V20.275H12.5505V14.9ZM17.4005 10.5C17.4005 10.1333 17.3505 9.81667 17.2505 9.55C17.1672 9.28333 17.0422 9.08333 16.8755 8.95C16.7088 8.8 16.5088 8.70833 16.2755 8.675C15.4088 8.59167 14.6672 8.325 14.0505 7.875C13.4505 7.425 12.9838 6.83333 12.6505 6.1C12.3338 5.35 12.1755 4.48333 12.1755 3.5V3H15.7755V3.5C15.7755 3.86667 15.8172 4.175 15.9005 4.425C16.0005 4.65833 16.1338 4.84167 16.3005 4.975C16.4672 5.09167 16.6672 5.16667 16.9005 5.2C17.7505 5.28333 18.4838 5.55833 19.1005 6.025C19.7172 6.49167 20.1838 7.10833 20.5005 7.875C20.8338 8.64167 21.0005 9.51667 21.0005 10.5V11H17.4005V10.5ZM5.05049 2.875L6.80049 4.75L8.55049 2.85L10.8255 5.125L8.92549 6.9L10.8255 8.675L8.55049 10.925L6.80049 9.05L5.05049 10.925L2.77549 8.65L4.65049 6.9L2.77549 5.15L5.05049 2.875Z" fill="black"/>
</g>
<defs>
<clipPath id="clip0_3203_9010">
<rect width="24" height="24" fill="white"/>
</clipPath>
</defs>
</svg>
