<svg width="24" height="24" viewBox="0 0 24 24" fill="none" xmlns="http://www.w3.org/2000/svg">
<g clip-path="url(#clip0_3378_7202)">
<rect width="24" height="24" fill="white"/>
<path d="M0 19.525H24V20H0V19.525ZM2 14.8C2 12.9667 2.44167 11.2833 3.325 9.75C4.20833 8.21667 5.41667 7.00833 6.95 6.125C8.48333 5.24167 10.1667 4.8 12 4.8C13.8333 4.8 15.5167 5.24167 17.05 6.125C18.5833 7.00833 19.7917 8.21667 20.675 9.75C21.5583 11.2833 22 12.9667 22 14.8V17.5H2V14.8ZM12 3.875C11.5833 3.875 11.225 3.73333 10.925 3.45C10.6417 3.15 10.5 2.79167 10.5 2.375C10.5 1.95833 10.6417 1.60833 10.925 1.325C11.225 1.025 11.5833 0.874998 12 0.874998C12.4167 0.874998 12.7667 1.025 13.05 1.325C13.35 1.60833 13.5 1.95833 13.5 2.375C13.5 2.79167 13.35 3.15 13.05 3.45C12.7667 3.73333 12.4167 3.875 12 3.875Z" fill="black"/>
</g>
<defs>
<clipPath id="clip0_3378_7202">
<rect width="24" height="24" fill="white"/>
</clipPath>
</defs>
</svg>
