<svg width="24" height="24" viewBox="0 0 24 24" fill="none" xmlns="http://www.w3.org/2000/svg">
<g clip-path="url(#clip0_3378_7192)">
<rect width="24" height="24" fill="white"/>
<path d="M3.00049 15.675C3.00049 13.4417 3.36716 11.4833 4.10049 9.8C4.85049 8.11667 5.90049 6.81667 7.25049 5.9C8.61716 4.98333 10.2005 4.525 12.0005 4.525C13.8005 4.525 15.3755 4.98333 16.7255 5.9C18.0922 6.81667 19.1422 8.11667 19.8755 9.8C20.6255 11.4833 21.0005 13.4417 21.0005 15.675V16.325H3.00049V15.675ZM3.45049 14.9H20.5505L19.5255 15.675C19.5088 13.6917 19.1922 11.975 18.5755 10.525C17.9588 9.05833 17.0838 7.93333 15.9505 7.15C14.8338 6.35 13.5172 5.95 12.0005 5.95C10.4838 5.95 9.15882 6.35 8.02549 7.15C6.90882 7.93333 6.04216 9.05833 5.42549 10.525C4.80882 11.975 4.49216 13.6917 4.47549 15.675L3.45049 14.9ZM1.00049 18.575H23.0005V20H1.00049V18.575ZM12.0005 3.25C11.6838 3.25 11.4088 3.13333 11.1755 2.9C10.9588 2.66667 10.8505 2.39167 10.8505 2.075C10.8505 1.75833 10.9588 1.49167 11.1755 1.275C11.4088 1.04167 11.6838 0.924999 12.0005 0.924999C12.3172 0.924999 12.5838 1.04167 12.8005 1.275C13.0338 1.49167 13.1505 1.75833 13.1505 2.075C13.1505 2.39167 13.0422 2.66667 12.8255 2.9C12.6088 3.13333 12.3338 3.25 12.0005 3.25ZM12.0005 2.075C12.0338 2.075 12.0505 2.075 12.0505 2.075C12.0672 2.075 12.0922 2.075 12.1255 2.075C12.0922 2.075 12.0672 2.075 12.0505 2.075C12.0505 2.075 12.0338 2.075 12.0005 2.075C11.9672 2.075 11.9422 2.075 11.9255 2.075C11.9255 2.075 11.9088 2.075 11.8755 2.075C11.9088 2.075 11.9255 2.075 11.9255 2.075C11.9422 2.075 11.9672 2.075 12.0005 2.075Z" fill="black"/>
</g>
<defs>
<clipPath id="clip0_3378_7192">
<rect width="24" height="24" fill="white"/>
</clipPath>
</defs>
</svg>
