<svg width="24" height="24" viewBox="0 0 24 24" fill="none" xmlns="http://www.w3.org/2000/svg">
<g clip-path="url(#clip0_3202_8135)">
<rect width="24" height="24" fill="white"/>
<path d="M2.00049 16.1C2.00049 14.35 2.42549 12.75 3.27549 11.3C4.12549 9.83333 5.30882 8.68333 6.82549 7.85C8.35882 7 10.0838 6.575 12.0005 6.575C13.9172 6.575 15.6338 7 17.1505 7.85C18.6838 8.68333 19.8755 9.83333 20.7255 11.3C21.5755 12.75 22.0005 14.35 22.0005 16.1V16.5H2.00049V16.1ZM2.22549 16.025H21.7755L21.5005 16.1C21.4838 14.4333 21.0588 12.9083 20.2255 11.525C19.4088 10.1417 18.2838 9.05 16.8505 8.25C15.4172 7.45 13.8005 7.05 12.0005 7.05C10.2005 7.05 8.58382 7.45 7.15049 8.25C5.71716 9.05 4.58382 10.1417 3.75049 11.525C2.93382 12.9083 2.51716 14.4333 2.50049 16.1L2.22549 16.025ZM0.000488281 18.525H24.0005V19H0.000488281V18.525ZM12.0005 5.325C11.4338 5.325 10.9588 5.13333 10.5755 4.75C10.1922 4.36667 10.0005 3.9 10.0005 3.35C10.0005 2.8 10.1922 2.33333 10.5755 1.95C10.9588 1.56667 11.4338 1.375 12.0005 1.375C12.5672 1.375 13.0422 1.56667 13.4255 1.95C13.8088 2.33333 14.0005 2.8 14.0005 3.35C14.0005 3.9 13.8088 4.36667 13.4255 4.75C13.0422 5.13333 12.5672 5.325 12.0005 5.325ZM12.0005 4.875C12.4338 4.875 12.7922 4.725 13.0755 4.425C13.3755 4.125 13.5255 3.76667 13.5255 3.35C13.5255 2.91667 13.3755 2.55833 13.0755 2.275C12.7922 1.975 12.4338 1.825 12.0005 1.825C11.5838 1.825 11.2255 1.975 10.9255 2.275C10.6255 2.55833 10.4755 2.91667 10.4755 3.35C10.4755 3.76667 10.6255 4.125 10.9255 4.425C11.2255 4.725 11.5838 4.875 12.0005 4.875Z" fill="black"/>
</g>
<defs>
<clipPath id="clip0_3202_8135">
<rect width="24" height="24" fill="white"/>
</clipPath>
</defs>
</svg>
