<svg width="24" height="24" viewBox="0 0 24 24" fill="none" xmlns="http://www.w3.org/2000/svg">
<g clip-path="url(#clip0_3203_8970)">
<rect width="24" height="24" fill="white"/>
<path d="M3 21V17.575H16.5V21H3ZM21 17.575V21H18.175V17.575H21ZM18.225 13.6C18.225 12.9167 18.1 12.3417 17.85 11.875C17.6167 11.3917 17.2917 11.0083 16.875 10.725C16.475 10.425 15.9833 10.1667 15.4 9.95C14.6833 9.73333 14.025 9.4 13.425 8.95C12.825 8.5 12.325 7.9 11.925 7.15C11.525 6.38333 11.325 5.46667 11.325 4.4V3H14.1V4.4C14.1 5.08333 14.225 5.65833 14.475 6.125C14.725 6.575 15.0583 6.925 15.475 7.175C15.8917 7.425 16.4083 7.64167 17.025 7.825C17.7083 8.10833 18.35 8.49167 18.95 8.975C19.55 9.44167 20.0417 10.0667 20.425 10.85C20.8083 11.6167 21 12.5333 21 13.6V15.075H18.225V13.6Z" fill="black"/>
</g>
<defs>
<clipPath id="clip0_3203_8970">
<rect width="24" height="24" fill="white"/>
</clipPath>
</defs>
</svg>
