<svg width="24" height="24" viewBox="0 0 24 24" fill="none" xmlns="http://www.w3.org/2000/svg">
<g clip-path="url(#clip0_3203_8966)">
<rect width="24" height="24" fill="white"/>
<path d="M3 21V17.75H17V21H3ZM21 17.75V21H19V17.75H21ZM19.2 13.6C19.2 12.7333 19.0333 12.05 18.7 11.55C18.3833 11.0333 17.9917 10.6583 17.525 10.425C17.075 10.175 16.5083 9.95 15.825 9.75C15.175 9.55 14.55 9.23333 13.95 8.8C13.35 8.36667 12.8417 7.78333 12.425 7.05C12.025 6.31667 11.825 5.44167 11.825 4.425V3H13.625V4.425C13.625 5.275 13.7833 5.95833 14.1 6.475C14.4333 6.975 14.8167 7.34167 15.25 7.575C15.7 7.80833 16.275 8.03333 16.975 8.25C17.6417 8.46667 18.275 8.79167 18.875 9.225C19.475 9.64167 19.975 10.225 20.375 10.975C20.7917 11.7083 21 12.5833 21 13.6V15.25H19.2V13.6Z" fill="black"/>
</g>
<defs>
<clipPath id="clip0_3203_8966">
<rect width="24" height="24" fill="white"/>
</clipPath>
</defs>
</svg>
