<svg width="24" height="24" viewBox="0 0 24 24" fill="none" xmlns="http://www.w3.org/2000/svg">
<g clip-path="url(#clip0_3203_8952)">
<rect width="24" height="24" fill="white"/>
<path d="M3.00049 15H21.0005V21H3.00049V15ZM19.2005 19.3V16.7H4.80049V19.3H19.2005ZM15.3005 15.65H17.1005V20.275H15.3005V15.65ZM19.1505 12C19.1505 11.2167 19.0088 10.6 18.7255 10.15C18.4588 9.7 18.0838 9.375 17.6005 9.175C17.1338 8.95833 16.5088 8.75833 15.7255 8.575C14.9588 8.44167 14.2755 8.18333 13.6755 7.8C13.0922 7.4 12.6255 6.86667 12.2755 6.2C11.9422 5.53333 11.7755 4.73333 11.7755 3.8V3H13.6255V3.8C13.6255 4.58333 13.7588 5.19167 14.0255 5.625C14.3088 6.05833 14.6838 6.375 15.1505 6.575C15.6172 6.775 16.2422 6.95 17.0255 7.1C17.7922 7.28333 18.4755 7.575 19.0755 7.975C19.6755 8.375 20.1422 8.91667 20.4755 9.6C20.8255 10.2667 21.0005 11.0667 21.0005 12V13H19.1505V12Z" fill="black"/>
</g>
<defs>
<clipPath id="clip0_3203_8952">
<rect width="24" height="24" fill="white"/>
</clipPath>
</defs>
</svg>
