<svg width="24" height="24" viewBox="0 0 24 24" fill="none" xmlns="http://www.w3.org/2000/svg">
<g clip-path="url(#clip0_3203_8964)">
<rect width="24" height="24" fill="white"/>
<path d="M3 21V17.825H17.5V21H3ZM21 17.825V21H19.5V17.825H21ZM19.625 13.9C19.625 12.9333 19.4583 12.175 19.125 11.625C18.8083 11.0583 18.4 10.65 17.9 10.4C17.4167 10.1333 16.8 9.89167 16.05 9.675C15.3167 9.475 14.65 9.175 14.05 8.775C13.4667 8.375 12.975 7.81667 12.575 7.1C12.1917 6.36667 12 5.45833 12 4.375V3H13.35V4.375C13.35 5.325 13.5167 6.08333 13.85 6.65C14.1833 7.2 14.5833 7.6 15.05 7.85C15.5333 8.1 16.1583 8.33333 16.925 8.55C17.675 8.76667 18.3417 9.075 18.925 9.475C19.525 9.85833 20.0167 10.4167 20.4 11.15C20.8 11.8833 21 12.8 21 13.9V15.325H19.625V13.9Z" fill="black"/>
</g>
<defs>
<clipPath id="clip0_3203_8964">
<rect width="24" height="24" fill="white"/>
</clipPath>
</defs>
</svg>
