<svg width="24" height="24" viewBox="0 0 24 24" fill="none" xmlns="http://www.w3.org/2000/svg">
<g clip-path="url(#clip0_3203_8954)">
<rect width="24" height="24" fill="white"/>
<path d="M3.00049 14.325H21.0005V21H3.00049V14.325ZM18.7255 18.8V16.525H5.27549V18.8H18.7255ZM14.4255 15.4H16.6505V20.275H14.4255V15.4ZM18.5755 11.55C18.5755 10.9 18.4588 10.3833 18.2255 10C18.0088 9.61667 17.7005 9.34167 17.3005 9.175C16.9172 8.99167 16.4088 8.83333 15.7755 8.7C14.9588 8.58333 14.2422 8.31667 13.6255 7.9C13.0088 7.48333 12.5255 6.925 12.1755 6.225C11.8255 5.525 11.6505 4.7 11.6505 3.75V3H14.1005V3.75C14.1005 4.38333 14.2088 4.89167 14.4255 5.275C14.6422 5.64167 14.9422 5.91667 15.3255 6.1C15.7255 6.26667 16.2338 6.40833 16.8505 6.525C17.6838 6.675 18.4088 6.95833 19.0255 7.375C19.6422 7.79167 20.1255 8.35833 20.4755 9.075C20.8255 9.775 21.0005 10.6 21.0005 11.55V12.425H18.5755V11.55Z" fill="black"/>
</g>
<defs>
<clipPath id="clip0_3203_8954">
<rect width="24" height="24" fill="white"/>
</clipPath>
</defs>
</svg>
