<svg width="24" height="24" viewBox="0 0 24 24" fill="none" xmlns="http://www.w3.org/2000/svg">
<g clip-path="url(#clip0_3203_8958)">
<rect width="24" height="24" fill="white"/>
<path d="M3.00049 13H21.0005V21H3.00049V13ZM17.7505 17.8V16.2H6.25049V17.8H17.7505ZM12.5505 14.9H15.7505V20.275H12.5505V14.9ZM17.4005 10.625C17.4005 10.2583 17.3422 9.95833 17.2255 9.725C17.1088 9.475 16.9338 9.29167 16.7005 9.175C16.4838 9.04167 16.2172 8.95833 15.9005 8.925C14.9672 8.85833 14.1588 8.59167 13.4755 8.125C12.8088 7.65833 12.3005 7.04167 11.9505 6.275C11.6005 5.49167 11.4255 4.60833 11.4255 3.625V3H15.0255V3.625C15.0255 3.99167 15.0838 4.3 15.2005 4.55C15.3172 4.78333 15.4838 4.96667 15.7005 5.1C15.9338 5.23333 16.2088 5.31667 16.5255 5.35C17.4588 5.43333 18.2588 5.70833 18.9255 6.175C19.5922 6.625 20.1005 7.23333 20.4505 8C20.8172 8.76667 21.0005 9.64167 21.0005 10.625V11.25H17.4005V10.625Z" fill="black"/>
</g>
<defs>
<clipPath id="clip0_3203_8958">
<rect width="24" height="24" fill="white"/>
</clipPath>
</defs>
</svg>
