<svg width="24" height="24" viewBox="0 0 24 24" fill="none" xmlns="http://www.w3.org/2000/svg">
<g clip-path="url(#clip0_3203_8878)">
<rect width="24" height="24" fill="white"/>
<path d="M20.0633 17.2C18.5133 17.2 17.2799 16.7417 16.3633 15.825C15.4633 14.8917 15.0133 13.5917 15.0133 11.925C15.0133 10.2917 15.4716 9.00833 16.3883 8.075C17.3049 7.125 18.5299 6.65 20.0633 6.65C21.1466 6.65 22.0716 6.9 22.8383 7.4C23.6049 7.9 24.1549 8.58333 24.4883 9.45L22.0133 10.5C21.8466 10.0667 21.5966 9.75 21.2633 9.55C20.9466 9.33333 20.5716 9.225 20.1383 9.225C19.4383 9.225 18.8883 9.475 18.4883 9.975C18.0883 10.4583 17.8883 11.1083 17.8883 11.925C17.8883 12.7583 18.0799 13.4167 18.4633 13.9C18.8633 14.3833 19.4216 14.625 20.1383 14.625C20.5716 14.625 20.9466 14.5167 21.2633 14.3C21.5966 14.0833 21.8383 13.7667 21.9883 13.35L24.4633 14.425C24.1466 15.2917 23.5966 15.975 22.8133 16.475C22.0466 16.9583 21.1299 17.2 20.0633 17.2ZM0.513281 6.775H3.43828L4.31328 11.85C4.46328 12.7667 4.62161 13.8167 4.78828 15L5.01328 16.575H4.21328C4.31328 15.975 4.40495 15.375 4.48828 14.775C4.70495 13.275 4.83828 12.3083 4.88828 11.875L5.66328 6.775H9.31328L10.1633 11.9C10.2799 12.7667 10.4633 13.975 10.7133 15.525C10.7633 15.8583 10.8216 16.2 10.8883 16.55L10.0883 16.575C10.1883 15.725 10.2966 14.8833 10.4133 14.05C10.5299 13.2667 10.6299 12.5583 10.7133 11.925L11.5383 6.775H14.4383L12.5133 16.975H8.56328L7.78828 12.125C7.72162 11.5917 7.66328 11.1667 7.61328 10.85C7.57995 10.5333 7.52995 10.1083 7.46328 9.575L7.18828 7.175H7.81328L7.61328 8.625C7.41328 10.2417 7.26328 11.4167 7.16328 12.15L6.48828 16.975H2.53828L0.513281 6.775Z" fill="black"/>
</g>
<defs>
<clipPath id="clip0_3203_8878">
<rect width="24" height="24" fill="white"/>
</clipPath>
</defs>
</svg>
