<svg width="24" height="24" viewBox="0 0 24 24" fill="none" xmlns="http://www.w3.org/2000/svg">
<g clip-path="url(#clip0_3203_8872)">
<rect width="24" height="24" fill="white"/>
<path d="M19.6255 17.2C18.1588 17.2 16.9922 16.7333 16.1255 15.8C15.2588 14.85 14.8255 13.5667 14.8255 11.95C14.8255 10.3167 15.2588 9.025 16.1255 8.075C17.0088 7.125 18.1755 6.65 19.6255 6.65C20.6588 6.65 21.5255 6.89167 22.2255 7.375C22.9422 7.85833 23.4505 8.50833 23.7505 9.325L22.5255 9.825C22.2922 9.225 21.9172 8.775 21.4005 8.475C20.9005 8.15833 20.3172 8 19.6505 8C18.6172 8 17.7922 8.35 17.1755 9.05C16.5588 9.75 16.2505 10.7167 16.2505 11.95C16.2505 13.15 16.5505 14.1 17.1505 14.8C17.7672 15.5 18.6005 15.85 19.6505 15.85C20.3338 15.85 20.9255 15.6917 21.4255 15.375C21.9255 15.0583 22.2922 14.6083 22.5255 14.025L23.7255 14.525C23.4255 15.3417 22.9172 15.9917 22.2005 16.475C21.5005 16.9583 20.6422 17.2 19.6255 17.2ZM0.250488 6.775H1.75049L3.45049 14.2C3.53382 14.5667 3.65882 15.1917 3.82549 16.075L3.92549 16.65H3.50049C3.56716 16.3333 3.62549 16.05 3.67549 15.8C3.80882 15.0833 3.91716 14.55 4.00049 14.2L5.82549 6.775H7.75049L9.65049 14.125C9.78382 14.6083 9.89216 15.1 9.97549 15.6C10.0755 16 10.1588 16.3583 10.2255 16.675H9.82549C9.87549 16.375 9.92549 16.075 9.97549 15.775C10.0922 15.0917 10.1922 14.55 10.2755 14.15L11.8505 6.775H13.3005L11.0505 16.975H9.02549L7.10049 9.725C7.03382 9.425 6.96716 9.14167 6.90049 8.875C6.85049 8.60833 6.80049 8.325 6.75049 8.025L6.55049 7.125H7.02549L6.90049 7.625C6.73382 8.50833 6.58382 9.21667 6.45049 9.75L4.67549 16.975H2.67549L0.250488 6.775Z" fill="black"/>
</g>
<defs>
<clipPath id="clip0_3203_8872">
<rect width="24" height="24" fill="white"/>
</clipPath>
</defs>
</svg>
