<svg width="24" height="24" viewBox="0 0 24 24" fill="none" xmlns="http://www.w3.org/2000/svg">
<g clip-path="url(#clip0_3182_30116)">
<rect width="24" height="24" fill="white"/>
<path d="M19.7255 12C17.8922 11.1667 16.3505 10.1333 15.1005 8.9C13.8672 7.66667 12.8338 6.14167 12.0005 4.325C11.1672 6.14167 10.1255 7.66667 8.87549 8.9C7.64216 10.1333 6.10882 11.1667 4.27549 12C6.10882 12.8333 7.64216 13.8667 8.87549 15.1C10.1255 16.3333 11.1672 17.8583 12.0005 19.675C12.8338 17.8583 13.8672 16.3333 15.1005 15.1C16.3505 13.8667 17.8922 12.8333 19.7255 12ZM23.0005 12C21.0672 12.65 19.4005 13.4667 18.0005 14.45C16.6005 15.4167 15.4088 16.6 14.4255 18C13.4588 19.4 12.6505 21.0667 12.0005 23C11.3505 21.0667 10.5338 19.4 9.55049 18C8.58382 16.6 7.40049 15.4167 6.00049 14.45C4.60049 13.4667 2.93382 12.65 1.00049 12C2.93382 11.35 4.60049 10.5417 6.00049 9.575C7.40049 8.59167 8.58382 7.4 9.55049 6C10.5338 4.6 11.3505 2.93333 12.0005 1C12.6505 2.93333 13.4588 4.6 14.4255 6C15.4088 7.4 16.6005 8.59167 18.0005 9.575C19.4005 10.5417 21.0672 11.35 23.0005 12Z" fill="black"/>
</g>
<defs>
<clipPath id="clip0_3182_30116">
<rect width="24" height="24" fill="white"/>
</clipPath>
</defs>
</svg>
