<svg width="24" height="24" viewBox="0 0 24 24" fill="none" xmlns="http://www.w3.org/2000/svg">
<g clip-path="url(#clip0_3182_30120)">
<rect width="24" height="24" fill="white"/>
<path d="M18.2005 12C16.8338 11.2333 15.6505 10.35 14.6505 9.35C13.6505 8.35 12.7672 7.175 12.0005 5.825C11.2338 7.175 10.3505 8.35 9.35049 9.35C8.35049 10.35 7.16716 11.2333 5.80049 12C7.16716 12.7667 8.35049 13.65 9.35049 14.65C10.3505 15.65 11.2338 16.825 12.0005 18.175C12.7672 16.825 13.6505 15.65 14.6505 14.65C15.6505 13.65 16.8338 12.7667 18.2005 12ZM23.2505 12C21.3672 12.7 19.7172 13.575 18.3005 14.625C16.8838 15.6583 15.6505 16.8917 14.6005 18.325C13.5672 19.7417 12.7005 21.3833 12.0005 23.25C11.3005 21.3667 10.4255 19.7167 9.37549 18.3C8.34216 16.8833 7.10882 15.6583 5.67549 14.625C4.25882 13.575 2.61716 12.7 0.750488 12C2.63382 11.3 4.28382 10.4333 5.70049 9.4C7.11716 8.35 8.34216 7.11667 9.37549 5.7C10.4255 4.26667 11.3005 2.61667 12.0005 0.749998C12.7005 2.63333 13.5672 4.28333 14.6005 5.7C15.6505 7.11667 16.8838 8.35 18.3005 9.4C19.7338 10.4333 21.3838 11.3 23.2505 12Z" fill="black"/>
</g>
<defs>
<clipPath id="clip0_3182_30120">
<rect width="24" height="24" fill="white"/>
</clipPath>
</defs>
</svg>
