<svg width="24" height="24" viewBox="0 0 24 24" fill="none" xmlns="http://www.w3.org/2000/svg">
<g clip-path="url(#clip0_3182_30114)">
<rect width="24" height="24" fill="white"/>
<path d="M20.6255 12C18.4755 11.1333 16.7172 10.025 15.3505 8.675C13.9838 7.30833 12.8672 5.55833 12.0005 3.425C11.1338 5.55833 10.0172 7.30833 8.65049 8.675C7.28382 10.025 5.52549 11.1333 3.37549 12C5.52549 12.8667 7.28382 13.9833 8.65049 15.35C10.0172 16.7 11.1338 18.4417 12.0005 20.575C12.8672 18.4417 13.9838 16.7 15.3505 15.35C16.7172 13.9833 18.4755 12.8667 20.6255 12ZM23.0005 12C21.0005 12.6333 19.3005 13.4333 17.9005 14.4C16.5172 15.35 15.3422 16.525 14.3755 17.925C13.4255 19.3083 12.6338 21 12.0005 23C11.3672 21 10.5672 19.3083 9.60049 17.925C8.65049 16.525 7.47549 15.35 6.07549 14.4C4.69216 13.4333 3.00049 12.6333 1.00049 12C3.00049 11.3667 4.69216 10.575 6.07549 9.625C7.47549 8.65833 8.65049 7.48333 9.60049 6.1C10.5672 4.7 11.3672 3 12.0005 1C12.6338 3 13.4255 4.7 14.3755 6.1C15.3422 7.48333 16.5172 8.65833 17.9005 9.625C19.3005 10.575 21.0005 11.3667 23.0005 12Z" fill="black"/>
</g>
<defs>
<clipPath id="clip0_3182_30114">
<rect width="24" height="24" fill="white"/>
</clipPath>
</defs>
</svg>
