<svg width="24" height="24" viewBox="0 0 24 24" fill="none" xmlns="http://www.w3.org/2000/svg">
<g clip-path="url(#clip0_3182_30118)">
<rect width="24" height="24" fill="white"/>
<path d="M18.8505 12C17.3005 11.1833 15.9755 10.225 14.8755 9.125C13.7755 8.025 12.8172 6.71667 12.0005 5.2C11.1838 6.71667 10.2255 8.025 9.12549 9.125C8.02549 10.225 6.70049 11.1833 5.15049 12C6.70049 12.8167 8.02549 13.775 9.12549 14.875C10.2255 15.975 11.1838 17.2833 12.0005 18.8C12.8172 17.2833 13.7755 15.975 14.8755 14.875C15.9755 13.775 17.3005 12.8167 18.8505 12ZM23.0005 12C21.1172 12.6667 19.4755 13.5 18.0755 14.5C16.6922 15.5 15.5005 16.7 14.5005 18.1C13.5005 19.4833 12.6672 21.1167 12.0005 23C11.3338 21.1167 10.5005 19.4833 9.50049 18.1C8.50049 16.7 7.30049 15.5 5.90049 14.5C4.51716 13.5 2.88382 12.6667 1.00049 12C2.88382 11.3333 4.51716 10.5 5.90049 9.5C7.30049 8.5 8.50049 7.30833 9.50049 5.925C10.5005 4.525 11.3338 2.88333 12.0005 1C12.6672 2.88333 13.5005 4.525 14.5005 5.925C15.5005 7.30833 16.6922 8.5 18.0755 9.5C19.4755 10.5 21.1172 11.3333 23.0005 12Z" fill="black"/>
</g>
<defs>
<clipPath id="clip0_3182_30118">
<rect width="24" height="24" fill="white"/>
</clipPath>
</defs>
</svg>
