<svg width="24" height="24" viewBox="0 0 24 24" fill="none" xmlns="http://www.w3.org/2000/svg">
<g clip-path="url(#clip0_3396_13631)">
<rect width="24" height="24" fill="white"/>
<path d="M4.50049 20C4.05049 20 3.63382 19.8917 3.25049 19.675C2.86716 19.4417 2.55882 19.1333 2.32549 18.75C2.10882 18.3667 2.00049 17.95 2.00049 17.5V6.5C2.00049 6.05 2.10882 5.63333 2.32549 5.25C2.55882 4.86667 2.86716 4.56667 3.25049 4.35C3.63382 4.11667 4.05049 4 4.50049 4H19.5005C19.9505 4 20.3672 4.11667 20.7505 4.35C21.1338 4.56667 21.4338 4.86667 21.6505 5.25C21.8838 5.63333 22.0005 6.05 22.0005 6.5V17.5C22.0005 17.95 21.8838 18.3667 21.6505 18.75C21.4338 19.1333 21.1338 19.4417 20.7505 19.675C20.3672 19.8917 19.9505 20 19.5005 20H4.50049ZM19.5005 19.525C20.0505 19.525 20.5172 19.325 20.9005 18.925C21.3005 18.525 21.5005 18.05 21.5005 17.5V6.5C21.5005 5.95 21.3005 5.475 20.9005 5.075C20.5172 4.675 20.0505 4.475 19.5005 4.475H4.50049C3.95049 4.475 3.47549 4.675 3.07549 5.075C2.69216 5.475 2.50049 5.95 2.50049 6.5V17.5C2.50049 18.05 2.69216 18.525 3.07549 18.925C3.47549 19.325 3.95049 19.525 4.50049 19.525H19.5005ZM2.27549 10.75H21.7255V11.225H2.27549V10.75ZM2.27549 7.5H21.7255V7.975H2.27549V7.5ZM5.00049 16.525H9.00049V17H5.00049V16.525Z" fill="black"/>
</g>
<defs>
<clipPath id="clip0_3396_13631">
<rect width="24" height="24" fill="white"/>
</clipPath>
</defs>
</svg>
