<svg width="24" height="24" viewBox="0 0 24 24" fill="none" xmlns="http://www.w3.org/2000/svg">
<g clip-path="url(#clip0_3182_28569)">
<rect width="24" height="24" fill="white"/>
<path d="M5.17549 20C4.59216 20 4.05882 19.8583 3.57549 19.575C3.09216 19.2917 2.70882 18.9083 2.42549 18.425C2.14216 17.9417 2.00049 17.4083 2.00049 16.825V7.175C2.00049 6.59167 2.14216 6.05833 2.42549 5.575C2.70882 5.09167 3.09216 4.70833 3.57549 4.425C4.05882 4.14167 4.59216 4 5.17549 4H18.8255C19.4088 4 19.9422 4.14167 20.4255 4.425C20.9088 4.70833 21.2922 5.09167 21.5755 5.575C21.8588 6.05833 22.0005 6.59167 22.0005 7.175V16.825C22.0005 17.4083 21.8588 17.9417 21.5755 18.425C21.2922 18.9083 20.9088 19.2917 20.4255 19.575C19.9422 19.8583 19.4088 20 18.8255 20H5.17549ZM18.7505 17.225C18.8838 17.225 18.9838 17.1833 19.0505 17.1C19.1338 17.0167 19.1755 16.9083 19.1755 16.775V7.225C19.1755 7.09167 19.1338 6.98333 19.0505 6.9C18.9838 6.81667 18.8838 6.775 18.7505 6.775H5.25049C5.11716 6.775 5.00882 6.81667 4.92549 6.9C4.85882 6.98333 4.82549 7.09167 4.82549 7.225V16.775C4.82549 16.9083 4.85882 17.0167 4.92549 17.1C5.00882 17.1833 5.11716 17.225 5.25049 17.225H18.7505ZM3.52549 9.25H20.4755V12.025H3.52549V9.25ZM11.8755 4.9H12.1255H11.8755ZM7.87549 18.325H8.12549H7.87549Z" fill="black"/>
</g>
<defs>
<clipPath id="clip0_3182_28569">
<rect width="24" height="24" fill="white"/>
</clipPath>
</defs>
</svg>
