<svg width="24" height="24" viewBox="0 0 24 24" fill="none" xmlns="http://www.w3.org/2000/svg">
<g clip-path="url(#clip0_3182_30202)">
<rect width="24" height="24" fill="white"/>
<path d="M3.00049 14.025C3.73382 13.0417 4.25049 12.1083 4.55049 11.225C4.85049 10.325 5.00049 9.41667 5.00049 8.5C5.00049 7.08333 5.29216 5.85 5.87549 4.8C6.47549 3.73333 7.30049 2.91667 8.35049 2.35C9.41716 1.78333 10.6338 1.5 12.0005 1.5C13.3672 1.5 14.5755 1.78333 15.6255 2.35C16.6922 2.91667 17.5172 3.73333 18.1005 4.8C18.7005 5.85 19.0005 7.08333 19.0005 8.5C19.0005 9.41667 19.1505 10.325 19.4505 11.225C19.7505 12.1083 20.2672 13.0417 21.0005 14.025V19.5H3.00049V14.025ZM12.0255 22.25C11.5422 22.25 11.0922 22.1417 10.6755 21.925C10.2588 21.7083 9.93382 21.4083 9.70049 21.025C9.46716 20.6417 9.35049 20.225 9.35049 19.775V18.9H10.4255H10.8005C11.0838 18.9 11.2922 18.9 11.4255 18.9C11.5588 18.9 11.7588 18.9 12.0255 18.9C12.3088 18.9 12.5172 18.9 12.6505 18.9C12.7838 18.9 12.9838 18.9 13.2505 18.9H13.6255H14.7005V19.775C14.7005 20.225 14.5838 20.6417 14.3505 21.025C14.1172 21.4083 13.7922 21.7083 13.3755 21.925C12.9588 22.1417 12.5088 22.25 12.0255 22.25ZM17.3005 15.9V15.025C16.6005 13.9583 16.0922 12.875 15.7755 11.775C15.4588 10.6583 15.3005 9.56667 15.3005 8.5C15.3005 7.78333 15.1672 7.175 14.9005 6.675C14.6505 6.175 14.2755 5.8 13.7755 5.55C13.2922 5.28333 12.7005 5.15 12.0005 5.15C11.3005 5.15 10.7005 5.28333 10.2005 5.55C9.71716 5.8 9.34216 6.175 9.07549 6.675C8.82549 7.175 8.70049 7.78333 8.70049 8.5C8.70049 9.56667 8.54216 10.6583 8.22549 11.775C7.90882 12.875 7.40049 13.9583 6.70049 15.025V15.9H17.3005Z" fill="black"/>
</g>
<defs>
<clipPath id="clip0_3182_30202">
<rect width="24" height="24" fill="white"/>
</clipPath>
</defs>
</svg>
