<svg width="24" height="24" viewBox="0 0 24 24" fill="none" xmlns="http://www.w3.org/2000/svg">
<g clip-path="url(#clip0_3182_30144)">
<rect width="24" height="24" fill="white"/>
<path d="M12.0005 11.25C11.6172 11.25 11.2922 11.1167 11.0255 10.85C10.7588 10.5833 10.6255 10.2583 10.6255 9.875C10.6255 9.49167 10.7588 9.16667 11.0255 8.9C11.2922 8.63333 11.6172 8.5 12.0005 8.5C12.3838 8.5 12.7088 8.63333 12.9755 8.9C13.2422 9.16667 13.3755 9.49167 13.3755 9.875C13.3755 10.2583 13.2422 10.5833 12.9755 10.85C12.7088 11.1167 12.3838 11.25 12.0005 11.25ZM12.0005 15.975C11.6172 15.975 11.2922 15.8417 11.0255 15.575C10.7588 15.3083 10.6255 14.9833 10.6255 14.6C10.6255 14.2167 10.7588 13.8917 11.0255 13.625C11.2922 13.3583 11.6172 13.225 12.0005 13.225C12.3838 13.225 12.7088 13.3583 12.9755 13.625C13.2422 13.8917 13.3755 14.2167 13.3755 14.6C13.3755 14.9833 13.2422 15.3083 12.9755 15.575C12.7088 15.8417 12.3838 15.975 12.0005 15.975ZM16.5255 11.25C16.1422 11.25 15.8172 11.1167 15.5505 10.85C15.2838 10.5833 15.1505 10.2583 15.1505 9.875C15.1505 9.49167 15.2838 9.16667 15.5505 8.9C15.8172 8.63333 16.1422 8.5 16.5255 8.5C16.9088 8.5 17.2338 8.63333 17.5005 8.9C17.7672 9.16667 17.9005 9.49167 17.9005 9.875C17.9005 10.2583 17.7672 10.5833 17.5005 10.85C17.2338 11.1167 16.9088 11.25 16.5255 11.25ZM16.5255 15.975C16.1422 15.975 15.8172 15.8417 15.5505 15.575C15.2838 15.3083 15.1505 14.9833 15.1505 14.6C15.1505 14.2167 15.2838 13.8917 15.5505 13.625C15.8172 13.3583 16.1422 13.225 16.5255 13.225C16.9088 13.225 17.2338 13.3583 17.5005 13.625C17.7672 13.8917 17.9005 14.2167 17.9005 14.6C17.9005 14.9833 17.7672 15.3083 17.5005 15.575C17.2338 15.8417 16.9088 15.975 16.5255 15.975ZM7.47549 11.25C7.09216 11.25 6.76716 11.1167 6.50049 10.85C6.23382 10.5833 6.10049 10.2583 6.10049 9.875C6.10049 9.49167 6.23382 9.16667 6.50049 8.9C6.76716 8.63333 7.09216 8.5 7.47549 8.5C7.85882 8.5 8.18382 8.63333 8.45049 8.9C8.71716 9.16667 8.85049 9.49167 8.85049 9.875C8.85049 10.2583 8.71716 10.5833 8.45049 10.85C8.18382 11.1167 7.85882 11.25 7.47549 11.25ZM7.47549 15.975C7.09216 15.975 6.76716 15.8417 6.50049 15.575C6.23382 15.3083 6.10049 14.9833 6.10049 14.6C6.10049 14.2167 6.23382 13.8917 6.50049 13.625C6.76716 13.3583 7.09216 13.225 7.47549 13.225C7.85882 13.225 8.18382 13.3583 8.45049 13.625C8.71716 13.8917 8.85049 14.2167 8.85049 14.6C8.85049 14.9833 8.71716 15.3083 8.45049 15.575C8.18382 15.8417 7.85882 15.975 7.47549 15.975ZM7.47549 9.875C7.29216 9.875 7.15049 9.875 7.05049 9.875C6.96716 9.875 6.83382 9.875 6.65049 9.875C6.83382 9.875 6.96716 9.875 7.05049 9.875C7.15049 9.875 7.29216 9.875 7.47549 9.875C7.65882 9.875 7.79216 9.875 7.87549 9.875C7.97549 9.875 8.11716 9.875 8.30049 9.875C8.11716 9.875 7.97549 9.875 7.87549 9.875C7.79216 9.875 7.65882 9.875 7.47549 9.875ZM12.0005 9.875C11.8505 9.875 11.7422 9.875 11.6755 9.875C11.6088 9.875 11.5005 9.875 11.3505 9.875C11.5005 9.875 11.6088 9.875 11.6755 9.875C11.7422 9.875 11.8505 9.875 12.0005 9.875C12.1505 9.875 12.2588 9.875 12.3255 9.875C12.3922 9.875 12.5005 9.875 12.6505 9.875C12.5005 9.875 12.3922 9.875 12.3255 9.875C12.2588 9.875 12.1505 9.875 12.0005 9.875ZM16.5255 9.875C16.3755 9.875 16.2588 9.875 16.1755 9.875C16.1088 9.875 16.0005 9.875 15.8505 9.875C16.0005 9.875 16.1088 9.875 16.1755 9.875C16.2588 9.875 16.3755 9.875 16.5255 9.875C16.6755 9.875 16.7838 9.875 16.8505 9.875C16.9338 9.875 17.0505 9.875 17.2005 9.875C17.0505 9.875 16.9338 9.875 16.8505 9.875C16.7838 9.875 16.6755 9.875 16.5255 9.875ZM16.5255 14.6C16.3922 14.6 16.2922 14.6 16.2255 14.6C16.1588 14.6 16.0588 14.6 15.9255 14.6C16.0588 14.6 16.1588 14.6 16.2255 14.6C16.2922 14.6 16.3922 14.6 16.5255 14.6C16.6588 14.6 16.7588 14.6 16.8255 14.6C16.8922 14.6 16.9922 14.6 17.1255 14.6C16.9922 14.6 16.8922 14.6 16.8255 14.6C16.7588 14.6 16.6588 14.6 16.5255 14.6ZM12.0005 14.6C11.9005 14.6 11.8172 14.6 11.7505 14.6C11.7005 14.6 11.6255 14.6 11.5255 14.6C11.6255 14.6 11.7005 14.6 11.7505 14.6C11.8172 14.6 11.9005 14.6 12.0005 14.6C12.1005 14.6 12.1755 14.6 12.2255 14.6C12.2922 14.6 12.3755 14.6 12.4755 14.6C12.3755 14.6 12.2922 14.6 12.2255 14.6C12.1755 14.6 12.1005 14.6 12.0005 14.6ZM7.47549 14.6C7.35882 14.6 7.26716 14.6 7.20049 14.6C7.15049 14.6 7.06716 14.6 6.95049 14.6C7.06716 14.6 7.15049 14.6 7.20049 14.6C7.26716 14.6 7.35882 14.6 7.47549 14.6C7.59216 14.6 7.67549 14.6 7.72549 14.6C7.79216 14.6 7.88382 14.6 8.00049 14.6C7.88382 14.6 7.79216 14.6 7.72549 14.6C7.67549 14.6 7.59216 14.6 7.47549 14.6ZM2.00049 4H22.0005V20.5H2.00049V4ZM20.1505 18.7V5.8H3.85049V18.7H20.1505ZM6.00049 2.425C6.00049 2.15833 6.08382 1.94167 6.25049 1.775C6.43382 1.59167 6.65882 1.5 6.92549 1.5C7.19216 1.5 7.40882 1.59167 7.57549 1.775C7.75882 1.94167 7.85049 2.15833 7.85049 2.425V5H6.00049V2.425ZM16.1505 2.425C16.1505 2.15833 16.2338 1.94167 16.4005 1.775C16.5838 1.59167 16.8088 1.5 17.0755 1.5C17.3422 1.5 17.5588 1.59167 17.7255 1.775C17.9088 1.94167 18.0005 2.15833 18.0005 2.425V5H16.1505V2.425Z" fill="black"/>
</g>
<defs>
<clipPath id="clip0_3182_30144">
<rect width="24" height="24" fill="white"/>
</clipPath>
</defs>
</svg>
