<svg width="24" height="24" viewBox="0 0 24 24" fill="none" xmlns="http://www.w3.org/2000/svg">
<g clip-path="url(#clip0_3396_13668)">
<rect width="24" height="24" fill="white"/>
<path d="M15.9005 22.025C14.1672 21.6917 12.5505 21.1083 11.0505 20.275C9.55049 19.4417 8.15882 18.3833 6.87549 17.1C5.59216 15.8167 4.52549 14.425 3.67549 12.925C2.84215 11.4083 2.25882 9.8 1.92549 8.1C1.77549 7.31667 1.80882 6.55 2.02549 5.8C2.25882 5.03333 2.64216 4.375 3.17549 3.825C3.70882 3.275 4.35882 2.88333 5.12549 2.65L8.62549 1.7L11.5505 7.975L9.70049 9.825C10.1505 10.7417 10.7755 11.6 11.5755 12.4C12.3755 13.2 13.2338 13.825 14.1505 14.275L16.0005 12.425L22.2755 15.35L21.3005 18.825C21.0838 19.6083 20.7005 20.2667 20.1505 20.8C19.6005 21.3333 18.9505 21.7083 18.2005 21.925C17.4505 22.1417 16.6838 22.175 15.9005 22.025ZM16.3255 19.65C16.6755 19.7333 17.0338 19.725 17.4005 19.625C17.7672 19.525 18.0922 19.3417 18.3755 19.075C18.6755 18.7917 18.8838 18.4417 19.0005 18.025L19.4005 16.625L16.4755 15.25L14.6005 17.125C13.5672 16.6917 12.6838 16.2333 11.9505 15.75C11.2172 15.2667 10.5338 14.7083 9.90049 14.075C9.25049 13.425 8.68382 12.7417 8.20049 12.025C7.73382 11.2917 7.27549 10.4 6.82549 9.35L8.70049 7.475L7.32549 4.55L5.92549 4.95C5.50882 5.06667 5.15882 5.26667 4.87549 5.55C4.59216 5.83333 4.40049 6.16667 4.30049 6.55C4.21716 6.91667 4.22549 7.3 4.32549 7.7C4.59216 9.13333 5.09216 10.5083 5.82549 11.825C6.57549 13.125 7.49216 14.3167 8.57549 15.4C9.69216 16.5167 10.9005 17.4333 12.2005 18.15C13.5005 18.8667 14.8755 19.3667 16.3255 19.65Z" fill="black"/>
</g>
<defs>
<clipPath id="clip0_3396_13668">
<rect width="24" height="24" fill="white"/>
</clipPath>
</defs>
</svg>
