<svg width="24" height="24" viewBox="0 0 24 24" fill="none" xmlns="http://www.w3.org/2000/svg">
<g clip-path="url(#clip0_3156_568)">
<rect width="24" height="24" fill="white"/>
<path d="M2.00049 6.5C2.00049 5.81667 2.24216 5.23333 2.72549 4.75C3.22549 4.25 3.81716 4 4.50049 4H19.5005C20.1838 4 20.7672 4.25 21.2505 4.75C21.7505 5.23333 22.0005 5.81667 22.0005 6.5V7.5H2.00049V6.5ZM22.0005 17.5C22.0005 18.1833 21.7505 18.775 21.2505 19.275C20.7672 19.7583 20.1838 20 19.5005 20H4.50049C3.81716 20 3.22549 19.7583 2.72549 19.275C2.24216 18.775 2.00049 18.1833 2.00049 17.5V10.5H22.0005V17.5ZM9.00049 17V15.6H5.00049V17H9.00049Z" fill="black"/>
</g>
<defs>
<clipPath id="clip0_3156_568">
<rect width="24" height="24" fill="white"/>
</clipPath>
</defs>
</svg>
