<svg width="24" height="24" viewBox="0 0 24 24" fill="none" xmlns="http://www.w3.org/2000/svg">
<g clip-path="url(#clip0_3156_326)">
<rect width="24" height="24" fill="white"/>
<path d="M2.00049 7.175C2.00049 6.59167 2.13382 6.05833 2.40049 5.575C2.68382 5.075 3.06716 4.69167 3.55049 4.425C4.05049 4.14167 4.59216 4 5.17549 4H18.8255C19.4088 4 19.9422 4.14167 20.4255 4.425C20.9255 4.69167 21.3088 5.075 21.5755 5.575C21.8588 6.05833 22.0005 6.59167 22.0005 7.175V16.825C22.0005 17.4083 21.8588 17.95 21.5755 18.45C21.3088 18.9333 20.9255 19.3167 20.4255 19.6C19.9422 19.8667 19.4088 20 18.8255 20H6.80049L2.00049 24.025V7.175ZM2.62549 20.5L6.02549 17.725H18.8255C19.0755 17.725 19.2755 17.6417 19.4255 17.475C19.5922 17.3083 19.6755 17.0917 19.6755 16.825V7.175C19.6755 6.90833 19.5922 6.69167 19.4255 6.525C19.2755 6.35833 19.0755 6.275 18.8255 6.275H5.17549C4.92549 6.275 4.71716 6.35833 4.55049 6.525C4.40049 6.69167 4.32549 6.90833 4.32549 7.175V21.275L2.62549 20.5Z" fill="black"/>
</g>
<defs>
<clipPath id="clip0_3156_326">
<rect width="24" height="24" fill="white"/>
</clipPath>
</defs>
</svg>
