<svg width="24" height="24" viewBox="0 0 24 24" fill="none" xmlns="http://www.w3.org/2000/svg">
<g clip-path="url(#clip0_3182_28920)">
<rect width="24" height="24" fill="white"/>
<path d="M9.15049 19.2C9.08382 18.6833 8.85882 18.3167 8.47549 18.1C8.10882 17.8833 7.68382 17.875 7.20049 18.075L4.10049 19.325L1.72549 15.175L4.35049 13.125C4.75049 12.8083 4.95049 12.4333 4.95049 12C4.95049 11.5667 4.75049 11.1917 4.35049 10.875L1.72549 8.825L4.10049 4.675L7.20049 5.925C7.66716 6.10833 8.09216 6.1 8.47549 5.9C8.85882 5.68333 9.08382 5.31667 9.15049 4.8L9.62549 1.5H14.3755L14.8505 4.8C14.9172 5.31667 15.1338 5.68333 15.5005 5.9C15.8838 6.11667 16.3172 6.125 16.8005 5.925L19.9005 4.675L22.2755 8.825L19.6505 10.875C19.2505 11.1917 19.0505 11.5667 19.0505 12C19.0505 12.4333 19.2505 12.8083 19.6505 13.125L22.2755 15.175L19.9005 19.325L16.8005 18.075C16.3172 17.875 15.8838 17.8833 15.5005 18.1C15.1338 18.3167 14.9172 18.6833 14.8505 19.2L14.3755 22.5H9.62549L9.15049 19.2ZM13.9505 22.025L14.3505 19.15C14.4172 18.7 14.5755 18.3333 14.8255 18.05C15.0922 17.75 15.4172 17.5667 15.8005 17.5C16.1838 17.4167 16.5838 17.4583 17.0005 17.625L19.6755 18.725L21.6505 15.3L19.3505 13.5C19.0005 13.2333 18.7672 12.9167 18.6505 12.55C18.5338 12.1833 18.5338 11.8167 18.6505 11.45C18.7672 11.0833 19.0005 10.7667 19.3505 10.5L21.6505 8.7L19.6755 5.275L17.0005 6.375C16.5838 6.54167 16.1838 6.59167 15.8005 6.525C15.4172 6.44167 15.0922 6.25833 14.8255 5.975C14.5755 5.675 14.4172 5.3 14.3505 4.85L13.9505 1.975H10.0505L9.65049 4.875C9.60049 5.30833 9.43382 5.66667 9.15049 5.95C8.88382 6.23333 8.55882 6.40833 8.17549 6.475C7.79216 6.54167 7.40049 6.5 7.00049 6.35L4.32549 5.275L2.35049 8.7L4.65049 10.5C5.00049 10.7667 5.23382 11.0833 5.35049 11.45C5.46716 11.8167 5.46716 12.1833 5.35049 12.55C5.23382 12.9167 5.00049 13.2333 4.65049 13.5L2.35049 15.3L4.32549 18.725L7.00049 17.625C7.41716 17.4583 7.81716 17.4167 8.20049 17.5C8.58382 17.5667 8.90049 17.75 9.15049 18.05C9.41716 18.3333 9.58382 18.7 9.65049 19.15L10.0505 22.025H13.9505ZM12.0005 15.5C11.3672 15.5 10.7755 15.35 10.2255 15.05C9.69216 14.7333 9.26716 14.3083 8.95049 13.775C8.65049 13.225 8.50049 12.6333 8.50049 12C8.50049 11.3667 8.65049 10.7833 8.95049 10.25C9.26716 9.7 9.69216 9.275 10.2255 8.975C10.7755 8.65833 11.3672 8.5 12.0005 8.5C12.6338 8.5 13.2172 8.65833 13.7505 8.975C14.3005 9.275 14.7255 9.7 15.0255 10.25C15.3422 10.7833 15.5005 11.3667 15.5005 12C15.5005 12.6333 15.3422 13.225 15.0255 13.775C14.7255 14.3083 14.3005 14.7333 13.7505 15.05C13.2172 15.35 12.6338 15.5 12.0005 15.5ZM12.0005 15.025C12.8338 15.025 13.5422 14.7333 14.1255 14.15C14.7088 13.5667 15.0005 12.85 15.0005 12C15.0005 11.15 14.7088 10.4333 14.1255 9.85C13.5422 9.26667 12.8338 8.975 12.0005 8.975C11.1672 8.975 10.4588 9.26667 9.87549 9.85C9.29216 10.4333 9.00049 11.15 9.00049 12C9.00049 12.85 9.29216 13.5667 9.87549 14.15C10.4588 14.7333 11.1672 15.025 12.0005 15.025Z" fill="black"/>
</g>
<defs>
<clipPath id="clip0_3182_28920">
<rect width="24" height="24" fill="white"/>
</clipPath>
</defs>
</svg>
