<svg width="24" height="24" viewBox="0 0 24 24" fill="none" xmlns="http://www.w3.org/2000/svg">
<g clip-path="url(#clip0_3182_30064)">
<rect width="24" height="24" fill="white"/>
<path d="M10.5505 21.15H13.4505L13.6505 19.45C13.7005 19 13.8422 18.5917 14.0755 18.225C14.3255 17.8583 14.6505 17.5583 15.0505 17.325C15.4338 17.1083 15.8588 16.9917 16.3255 16.975C16.7922 16.9417 17.2172 17.0083 17.6005 17.175L19.1505 17.85L20.6255 15.275L19.2505 14.225C18.8838 13.9583 18.6005 13.6333 18.4005 13.25C18.2005 12.8667 18.1005 12.45 18.1005 12C18.1005 11.55 18.2005 11.1333 18.4005 10.75C18.6005 10.3667 18.8838 10.0417 19.2505 9.775L20.6255 8.725L19.1505 6.15L17.6255 6.8C17.2255 6.98333 16.7922 7.06667 16.3255 7.05C15.8755 7.01667 15.4588 6.89167 15.0755 6.675C14.6755 6.44167 14.3505 6.15 14.1005 5.8C13.8505 5.43333 13.7005 5.01667 13.6505 4.55L13.4505 2.85H10.5505L10.3505 4.55C10.2838 5.01667 10.1338 5.43333 9.90049 5.8C9.66716 6.15 9.35049 6.44167 8.95049 6.675C8.56716 6.90833 8.14216 7.03333 7.67549 7.05C7.22549 7.06667 6.79216 6.98333 6.37549 6.8L4.85049 6.15L3.37549 8.725L4.72549 9.75C5.09216 10.0167 5.37549 10.35 5.57549 10.75C5.79216 11.1333 5.90049 11.55 5.90049 12C5.90049 12.45 5.80049 12.8667 5.60049 13.25C5.40049 13.6333 5.11716 13.9583 4.75049 14.225L3.37549 15.275L4.85049 17.85L6.37549 17.2C6.77549 17.0167 7.20049 16.9417 7.65049 16.975C8.11716 16.9917 8.54216 17.1083 8.92549 17.325C9.32549 17.5583 9.65049 17.8583 9.90049 18.225C10.1505 18.575 10.3005 18.9833 10.3505 19.45L10.5505 21.15ZM8.95049 19.575C8.90049 19.1083 8.66716 18.75 8.25049 18.5C7.83382 18.2667 7.40882 18.2417 6.97549 18.425L4.27549 19.6L1.55049 14.9L3.92549 13.15C4.10882 13.0167 4.25049 12.85 4.35049 12.65C4.45049 12.4333 4.50049 12.2167 4.50049 12C4.50049 11.7667 4.45049 11.55 4.35049 11.35C4.25049 11.15 4.10882 10.9833 3.92549 10.85L1.55049 9.1L4.27549 4.4L6.97549 5.575C7.19216 5.65833 7.40882 5.7 7.62549 5.7C7.85882 5.68333 8.06716 5.61667 8.25049 5.5C8.45049 5.38333 8.60882 5.23333 8.72549 5.05C8.84216 4.85 8.91716 4.64167 8.95049 4.425L9.30049 1.5H14.7005L15.0505 4.425C15.0838 4.64167 15.1588 4.85 15.2755 5.05C15.3922 5.23333 15.5505 5.38333 15.7505 5.5C15.9505 5.61667 16.1588 5.68333 16.3755 5.7C16.6088 5.7 16.8255 5.65833 17.0255 5.575L19.7255 4.4L22.4505 9.1L20.0755 10.85C19.8922 10.9833 19.7505 11.1583 19.6505 11.375C19.5505 11.575 19.5005 11.7833 19.5005 12C19.5005 12.2167 19.5505 12.4333 19.6505 12.65C19.7505 12.85 19.8922 13.0167 20.0755 13.15L22.4505 14.9L19.7255 19.6L17.0255 18.425C16.8255 18.3417 16.6172 18.3083 16.4005 18.325C16.1838 18.325 15.9672 18.375 15.7505 18.475C15.3338 18.7417 15.1005 19.1083 15.0505 19.575L14.7005 22.5H9.30049L8.95049 19.575ZM12.0005 15.65C11.3338 15.65 10.7172 15.4917 10.1505 15.175C9.58382 14.8417 9.13382 14.4 8.80049 13.85C8.48382 13.2833 8.32549 12.6667 8.32549 12C8.32549 11.3333 8.48382 10.725 8.80049 10.175C9.13382 9.60833 9.58382 9.16667 10.1505 8.85C10.7172 8.51667 11.3338 8.35 12.0005 8.35C12.6672 8.35 13.2838 8.51667 13.8505 8.85C14.4172 9.16667 14.8588 9.60833 15.1755 10.175C15.5088 10.725 15.6755 11.3333 15.6755 12C15.6755 12.6667 15.5088 13.2833 15.1755 13.85C14.8588 14.4 14.4172 14.8417 13.8505 15.175C13.2838 15.4917 12.6672 15.65 12.0005 15.65ZM12.0005 14.3C12.6338 14.3 13.1672 14.075 13.6005 13.625C14.0505 13.175 14.2755 12.6333 14.2755 12C14.2755 11.3667 14.0505 10.825 13.6005 10.375C13.1672 9.925 12.6338 9.7 12.0005 9.7C11.3672 9.7 10.8255 9.925 10.3755 10.375C9.94216 10.825 9.72549 11.3667 9.72549 12C9.72549 12.6333 9.94216 13.175 10.3755 13.625C10.8255 14.075 11.3672 14.3 12.0005 14.3Z" fill="black"/>
</g>
<defs>
<clipPath id="clip0_3182_30064">
<rect width="24" height="24" fill="white"/>
</clipPath>
</defs>
</svg>
