<svg width="24" height="24" viewBox="0 0 24 24" fill="none" xmlns="http://www.w3.org/2000/svg">
<g clip-path="url(#clip0_3182_30066)">
<rect width="24" height="24" fill="white"/>
<path d="M10.8005 20.7H13.2005L13.3005 19.6C13.3672 19.0667 13.5338 18.5917 13.8005 18.175C14.0838 17.7417 14.4588 17.3833 14.9255 17.1C15.3755 16.8667 15.8672 16.7333 16.4005 16.7C16.9505 16.6667 17.4505 16.75 17.9005 16.95L18.8755 17.4L20.1255 15.275L19.2005 14.6C18.7672 14.2833 18.4338 13.9 18.2005 13.45C17.9672 13 17.8505 12.5167 17.8505 12C17.8505 11.4833 17.9672 11 18.2005 10.55C18.4338 10.1 18.7672 9.71667 19.2005 9.4L20.1255 8.725L18.8755 6.6L17.9255 7.025C17.4588 7.24167 16.9588 7.34167 16.4255 7.325C15.8922 7.29167 15.4005 7.15 14.9505 6.9C14.4838 6.63333 14.1088 6.29167 13.8255 5.875C13.5422 5.44167 13.3672 4.95 13.3005 4.4L13.2005 3.3H10.8005L10.7005 4.4C10.6338 4.95 10.4588 5.44167 10.1755 5.875C9.89216 6.29167 9.51716 6.63333 9.05049 6.9C8.60049 7.15 8.10882 7.29167 7.57549 7.325C7.04216 7.34167 6.54216 7.24167 6.07549 7.025L5.12549 6.6L3.90049 8.725L4.77549 9.375C5.20882 9.69167 5.54216 10.0833 5.77549 10.55C6.02549 11 6.15049 11.4833 6.15049 12C6.15049 12.5167 6.03382 13 5.80049 13.45C5.56716 13.9 5.23382 14.2833 4.80049 14.6L3.87549 15.275L5.12549 17.4L6.07549 16.975C6.54216 16.7583 7.04216 16.6667 7.57549 16.7C8.10882 16.7167 8.60049 16.85 9.05049 17.1C9.51716 17.3667 9.89216 17.7167 10.1755 18.15C10.4588 18.5667 10.6338 19.05 10.7005 19.6L10.8005 20.7ZM8.85049 19.775C8.80049 19.275 8.56716 18.9083 8.15049 18.675C7.73382 18.4417 7.30049 18.4167 6.85049 18.6L4.35049 19.725L1.47549 14.775L3.70049 13.15C3.88382 13.0167 4.02549 12.85 4.12549 12.65C4.24216 12.4333 4.30049 12.2167 4.30049 12C4.30049 11.7667 4.24216 11.55 4.12549 11.35C4.02549 11.1333 3.88382 10.9583 3.70049 10.825L1.47549 9.225L4.35049 4.275L6.85049 5.4C7.06716 5.48333 7.28382 5.525 7.50049 5.525C7.73382 5.50833 7.95049 5.44167 8.15049 5.325C8.35049 5.20833 8.50882 5.05833 8.62549 4.875C8.74216 4.675 8.81716 4.45833 8.85049 4.225L9.12549 1.5H14.8755L15.1505 4.225C15.1838 4.45833 15.2588 4.675 15.3755 4.875C15.4922 5.05833 15.6505 5.20833 15.8505 5.325C16.0505 5.44167 16.2588 5.50833 16.4755 5.525C16.7088 5.525 16.9338 5.48333 17.1505 5.4L19.6505 4.275L22.5255 9.225L20.3005 10.85C20.1172 10.9833 19.9672 11.1583 19.8505 11.375C19.7505 11.575 19.7005 11.7833 19.7005 12C19.7005 12.2167 19.7505 12.4333 19.8505 12.65C19.9672 12.85 20.1172 13.0167 20.3005 13.15L22.5255 14.775L19.6505 19.725L17.1505 18.6C16.9505 18.5167 16.7338 18.4833 16.5005 18.5C16.2838 18.5 16.0672 18.55 15.8505 18.65C15.4338 18.9167 15.2005 19.2917 15.1505 19.775L14.8755 22.5H9.12549L8.85049 19.775ZM12.0005 15.725C11.3172 15.725 10.6838 15.5583 10.1005 15.225C9.53382 14.8917 9.08382 14.4417 8.75049 13.875C8.41716 13.3083 8.25049 12.6833 8.25049 12C8.25049 11.3167 8.41716 10.6917 8.75049 10.125C9.08382 9.55833 9.53382 9.10833 10.1005 8.775C10.6838 8.44167 11.3172 8.275 12.0005 8.275C12.6838 8.275 13.3088 8.44167 13.8755 8.775C14.4588 9.10833 14.9172 9.55833 15.2505 10.125C15.5838 10.6917 15.7505 11.3167 15.7505 12C15.7505 12.6833 15.5838 13.3083 15.2505 13.875C14.9172 14.4417 14.4588 14.8917 13.8755 15.225C13.3088 15.5583 12.6838 15.725 12.0005 15.725ZM12.0005 13.925C12.5338 13.925 12.9838 13.7417 13.3505 13.375C13.7338 12.9917 13.9255 12.5333 13.9255 12C13.9255 11.4667 13.7338 11.0167 13.3505 10.65C12.9838 10.2667 12.5338 10.075 12.0005 10.075C11.4672 10.075 11.0088 10.2667 10.6255 10.65C10.2588 11.0167 10.0755 11.4667 10.0755 12C10.0755 12.5333 10.2588 12.9917 10.6255 13.375C11.0088 13.7417 11.4672 13.925 12.0005 13.925Z" fill="black"/>
</g>
<defs>
<clipPath id="clip0_3182_30066">
<rect width="24" height="24" fill="white"/>
</clipPath>
</defs>
</svg>
