<svg width="24" height="24" viewBox="0 0 24 24" fill="none" xmlns="http://www.w3.org/2000/svg">
<g clip-path="url(#clip0_3182_30168)">
<rect width="24" height="24" fill="white"/>
<path d="M12.0005 22C10.1672 22 8.48382 21.5583 6.95049 20.675C5.41716 19.7917 4.20882 18.5833 3.32549 17.05C2.44216 15.5167 2.00049 13.8333 2.00049 12C2.00049 10.1667 2.44216 8.48333 3.32549 6.95C4.20882 5.41667 5.41716 4.20833 6.95049 3.325C8.48382 2.44167 10.1672 2 12.0005 2C13.8338 2 15.5172 2.44167 17.0505 3.325C18.5838 4.20833 19.7922 5.41667 20.6755 6.95C21.5588 8.48333 22.0005 10.1667 22.0005 12C22.0005 13.8333 21.5588 15.5167 20.6755 17.05C19.7922 18.5833 18.5838 19.7917 17.0505 20.675C15.5172 21.5583 13.8338 22 12.0005 22ZM12.0005 20.75C13.6005 20.75 15.0672 20.3667 16.4005 19.6C17.7338 18.8167 18.7838 17.7583 19.5505 16.425C20.3172 15.075 20.7005 13.6 20.7005 12C20.7005 10.4 20.3172 8.93333 19.5505 7.6C18.7838 6.25 17.7338 5.19167 16.4005 4.425C15.0672 3.64167 13.6005 3.25 12.0005 3.25C10.4005 3.25 8.93382 3.64167 7.60049 4.425C6.26716 5.19167 5.21716 6.25 4.45049 7.6C3.68382 8.93333 3.30049 10.4 3.30049 12C3.30049 13.6 3.68382 15.075 4.45049 16.425C5.21716 17.7583 6.26716 18.8167 7.60049 19.6C8.93382 20.3667 10.4005 20.75 12.0005 20.75ZM12.0005 21.65C11.0672 21.65 10.2672 21.25 9.60049 20.45C8.95049 19.65 8.45049 18.525 8.10049 17.075C7.76716 15.6083 7.60049 13.9167 7.60049 12C7.60049 10.0833 7.76716 8.4 8.10049 6.95C8.45049 5.5 8.95049 4.375 9.60049 3.575C10.2672 2.775 11.0672 2.375 12.0005 2.375C12.9338 2.375 13.7255 2.78333 14.3755 3.6C15.0422 4.4 15.5422 5.525 15.8755 6.975C16.2255 8.40833 16.4005 10.0833 16.4005 12C16.4005 13.9167 16.2255 15.6083 15.8755 17.075C15.5422 18.525 15.0422 19.65 14.3755 20.45C13.7255 21.25 12.9338 21.65 12.0005 21.65ZM12.0005 20.75C12.6505 20.75 13.2088 20.3917 13.6755 19.675C14.1422 18.9417 14.5005 17.9167 14.7505 16.6C15.0005 15.2833 15.1255 13.75 15.1255 12C15.1255 10.2667 15.0005 8.74167 14.7505 7.425C14.5005 6.10833 14.1422 5.08333 13.6755 4.35C13.2088 3.61667 12.6505 3.25 12.0005 3.25C11.3505 3.25 10.7922 3.61667 10.3255 4.35C9.85882 5.08333 9.50049 6.10833 9.25049 7.425C9.00049 8.74167 8.87549 10.2667 8.87549 12C8.87549 13.75 9.00049 15.2833 9.25049 16.6C9.50049 17.9167 9.85882 18.9417 10.3255 19.675C10.7922 20.3917 11.3505 20.75 12.0005 20.75ZM2.92549 14.25H21.0755V15.525H2.92549V14.25ZM2.92549 8.5H21.0755V9.75H2.92549V8.5Z" fill="black"/>
</g>
<defs>
<clipPath id="clip0_3182_30168">
<rect width="24" height="24" fill="white"/>
</clipPath>
</defs>
</svg>
