<svg width="24" height="24" viewBox="0 0 24 24" fill="none" xmlns="http://www.w3.org/2000/svg">
<g clip-path="url(#clip0_3182_28954)">
<rect width="24" height="24" fill="white"/>
<path d="M11.9755 21.725C10.0922 20.4083 8.36716 19.0667 6.80049 17.7C5.25049 16.3333 3.95882 14.8833 2.92549 13.35C1.89216 11.8167 1.37549 10.3167 1.37549 8.85C1.37549 7.7 1.61716 6.68333 2.10049 5.8C2.58382 4.91667 3.24216 4.23333 4.07549 3.75C4.90882 3.25 5.82549 3 6.82549 3C7.85882 3 8.82549 3.23333 9.72549 3.7C10.6255 4.15 11.3505 4.88333 11.9005 5.9L12.0755 6.225H11.9255L12.1005 5.9C12.6505 4.88333 13.3672 4.15 14.2505 3.7C15.1338 3.23333 16.0672 3 17.0505 3C18.0672 3 19.0005 3.25 19.8505 3.75C20.7005 4.23333 21.3755 4.91667 21.8755 5.8C22.3755 6.68333 22.6255 7.7 22.6255 8.85C22.6255 10.3167 22.1005 11.8167 21.0505 13.35C20.0172 14.8833 18.7172 16.3333 17.1505 17.7C15.6005 19.0667 13.8755 20.4083 11.9755 21.725ZM11.9755 21.15C14.8422 19.15 17.2505 17.1 19.2005 15C21.1505 12.9 22.1255 10.85 22.1255 8.85C22.1255 7.8 21.9005 6.86667 21.4505 6.05C21.0005 5.23333 20.3922 4.6 19.6255 4.15C18.8588 3.7 18.0005 3.475 17.0505 3.475C16.1505 3.475 15.3005 3.675 14.5005 4.075C13.7005 4.475 13.0505 5.13333 12.5505 6.05L12.2505 6.6H11.7505L11.4505 6.05C10.9505 5.13333 10.2922 4.475 9.47549 4.075C8.65882 3.675 7.77549 3.475 6.82549 3.475C5.90882 3.475 5.06716 3.7 4.30049 4.15C3.55049 4.6 2.95882 5.23333 2.52549 6.05C2.09216 6.86667 1.87549 7.8 1.87549 8.85C1.87549 10.85 2.84216 12.9083 4.77549 15.025C6.72549 17.125 9.12549 19.1667 11.9755 21.15Z" fill="black"/>
</g>
<defs>
<clipPath id="clip0_3182_28954">
<rect width="24" height="24" fill="white"/>
</clipPath>
</defs>
</svg>
