<svg width="24" height="24" viewBox="0 0 24 24" fill="none" xmlns="http://www.w3.org/2000/svg">
<g clip-path="url(#clip0_3182_28950)">
<rect width="24" height="24" fill="white"/>
<path d="M12.0005 1.475C10.5005 1.475 9.14216 1.825 7.92549 2.525C6.70882 3.225 5.75049 4.19167 5.05049 5.425C4.35049 6.64167 4.00049 8 4.00049 9.5C4.00049 11.1333 4.37549 12.6833 5.12549 14.15C5.89216 15.6167 6.81716 16.9417 7.90049 18.125C9.00049 19.3083 10.4172 20.6917 12.1505 22.275H11.8505C13.5838 20.6917 14.9922 19.3083 16.0755 18.125C17.1755 16.9417 18.1005 15.6167 18.8505 14.15C19.6172 12.6667 20.0005 11.1083 20.0005 9.475C20.0005 7.975 19.6505 6.61667 18.9505 5.4C18.2505 4.18333 17.2922 3.225 16.0755 2.525C14.8588 1.825 13.5005 1.475 12.0005 1.475ZM12.0005 22.775C10.2005 21.1417 8.73382 19.725 7.60049 18.525C6.48382 17.3083 5.51716 15.9333 4.70049 14.4C3.90049 12.8667 3.50049 11.2333 3.50049 9.5C3.50049 7.93333 3.87549 6.50833 4.62549 5.225C5.39216 3.925 6.41716 2.9 7.70049 2.15C9.00049 1.38333 10.4338 1 12.0005 1C13.5672 1 14.9922 1.375 16.2755 2.125C17.5755 2.875 18.6005 3.9 19.3505 5.2C20.1172 6.48333 20.5005 7.90833 20.5005 9.475C20.5005 11.2083 20.0922 12.85 19.2755 14.4C18.4755 15.9333 17.5088 17.3083 16.3755 18.525C15.2422 19.7417 13.7838 21.1583 12.0005 22.775ZM12.0005 13C11.3672 13 10.7755 12.85 10.2255 12.55C9.69216 12.2333 9.26716 11.8083 8.95049 11.275C8.65049 10.725 8.50049 10.1333 8.50049 9.5C8.50049 8.86667 8.65049 8.28333 8.95049 7.75C9.26716 7.2 9.69216 6.775 10.2255 6.475C10.7755 6.15833 11.3672 6 12.0005 6C12.6338 6 13.2172 6.15833 13.7505 6.475C14.3005 6.775 14.7255 7.2 15.0255 7.75C15.3422 8.28333 15.5005 8.86667 15.5005 9.5C15.5005 10.1333 15.3422 10.725 15.0255 11.275C14.7255 11.8083 14.3005 12.2333 13.7505 12.55C13.2172 12.85 12.6338 13 12.0005 13ZM12.0005 12.525C12.8338 12.525 13.5422 12.2333 14.1255 11.65C14.7088 11.0667 15.0005 10.35 15.0005 9.5C15.0005 8.65 14.7088 7.93333 14.1255 7.35C13.5422 6.76667 12.8338 6.475 12.0005 6.475C11.1672 6.475 10.4588 6.76667 9.87549 7.35C9.29216 7.93333 9.00049 8.65 9.00049 9.5C9.00049 10.35 9.29216 11.0667 9.87549 11.65C10.4588 12.2333 11.1672 12.525 12.0005 12.525Z" fill="black"/>
</g>
<defs>
<clipPath id="clip0_3182_28950">
<rect width="24" height="24" fill="white"/>
</clipPath>
</defs>
</svg>
