<svg width="24" height="24" viewBox="0 0 24 24" fill="none" xmlns="http://www.w3.org/2000/svg">
<g clip-path="url(#clip0_3396_13588)">
<rect width="24" height="24" fill="white"/>
<path d="M2.00049 6.825C2.00049 6.30833 2.12549 5.83333 2.37549 5.4C2.62549 4.96667 2.96716 4.625 3.40049 4.375C3.83382 4.125 4.30882 4 4.82549 4H19.1755C19.6922 4 20.1672 4.125 20.6005 4.375C21.0338 4.625 21.3755 4.96667 21.6255 5.4C21.8755 5.83333 22.0005 6.30833 22.0005 6.825V17.175C22.0005 17.6917 21.8755 18.1667 21.6255 18.6C21.3755 19.0333 21.0338 19.375 20.6005 19.625C20.1672 19.875 19.6922 20 19.1755 20H6.80049L2.00049 24.025V6.825ZM2.55049 21.7L6.25049 18.55H19.1755C19.5422 18.55 19.8505 18.4167 20.1005 18.15C20.3672 17.8833 20.5005 17.5583 20.5005 17.175V6.825C20.5005 6.44167 20.3672 6.11667 20.1005 5.85C19.8505 5.58333 19.5422 5.45 19.1755 5.45H4.82549C4.45882 5.45 4.14216 5.58333 3.87549 5.85C3.62549 6.11667 3.50049 6.44167 3.50049 6.825V21.925L2.55049 21.7Z" fill="black"/>
</g>
<defs>
<clipPath id="clip0_3396_13588">
<rect width="24" height="24" fill="white"/>
</clipPath>
</defs>
</svg>
