<svg width="24" height="24" viewBox="0 0 24 24" fill="none" xmlns="http://www.w3.org/2000/svg">
<g clip-path="url(#clip0_3156_491)">
<rect width="24" height="24" fill="white"/>
<path d="M16.2755 14.875H7.77549V16.325H16.2755V14.875ZM17.0505 20.675C15.5172 21.5583 13.8338 22 12.0005 22C10.1672 22 8.48382 21.5583 6.95049 20.675C5.41716 19.7917 4.20882 18.5833 3.32549 17.05C2.44216 15.5167 2.00049 13.8333 2.00049 12C2.00049 10.1667 2.44216 8.48333 3.32549 6.95C4.20882 5.41667 5.41716 4.20833 6.95049 3.325C8.48382 2.44167 10.1672 2 12.0005 2C13.8338 2 15.5172 2.44167 17.0505 3.325C18.5838 4.20833 19.7922 5.41667 20.6755 6.95C21.5588 8.48333 22.0005 10.1667 22.0005 12C22.0005 13.8333 21.5588 15.5167 20.6755 17.05C19.7922 18.5833 18.5838 19.7917 17.0505 20.675ZM7.62549 10.125C7.85882 10.3417 8.13382 10.45 8.45049 10.45C8.76716 10.45 9.04216 10.3417 9.27549 10.125C9.50882 9.89167 9.62549 9.61667 9.62549 9.3C9.62549 8.96667 9.50882 8.69167 9.27549 8.475C9.04216 8.24167 8.76716 8.125 8.45049 8.125C8.13382 8.125 7.85882 8.24167 7.62549 8.475C7.39216 8.69167 7.27549 8.96667 7.27549 9.3C7.27549 9.61667 7.39216 9.89167 7.62549 10.125ZM14.7255 10.125C14.9588 10.3417 15.2338 10.45 15.5505 10.45C15.8672 10.45 16.1422 10.3417 16.3755 10.125C16.6088 9.89167 16.7255 9.61667 16.7255 9.3C16.7255 8.96667 16.6088 8.69167 16.3755 8.475C16.1422 8.24167 15.8672 8.125 15.5505 8.125C15.2338 8.125 14.9588 8.24167 14.7255 8.475C14.4922 8.69167 14.3755 8.96667 14.3755 9.3C14.3755 9.61667 14.4922 9.89167 14.7255 10.125Z" fill="black"/>
</g>
<defs>
<clipPath id="clip0_3156_491">
<rect width="24" height="24" fill="white"/>
</clipPath>
</defs>
</svg>
