<svg width="24" height="24" viewBox="0 0 24 24" fill="none" xmlns="http://www.w3.org/2000/svg">
<g clip-path="url(#clip0_3396_13744)">
<rect width="24" height="24" fill="white"/>
<path d="M20.4755 5.25C20.9255 5.68333 21.1505 6.20833 21.1505 6.825C21.1505 7.425 20.9255 7.95 20.4755 8.4L8.85049 20L3.00049 21L4.00049 15.15L15.6005 3.525C16.0505 3.075 16.5755 2.85 17.1755 2.85C17.7922 2.85 18.3172 3.075 18.7505 3.525L20.4755 5.25ZM17.8005 4.5C17.6172 4.33333 17.4088 4.25 17.1755 4.25C16.9422 4.25 16.7422 4.33333 16.5755 4.5L5.27549 15.8L4.65049 19.35L8.17549 18.725L19.5005 7.425C19.6672 7.25833 19.7505 7.05833 19.7505 6.825C19.7505 6.59167 19.6672 6.38333 19.5005 6.2L17.8005 4.5ZM14.6255 5.675L18.2505 9.3L17.3005 10.275L13.6505 6.625L14.6255 5.675Z" fill="black"/>
</g>
<defs>
<clipPath id="clip0_3396_13744">
<rect width="24" height="24" fill="white"/>
</clipPath>
</defs>
</svg>
