<svg width="24" height="24" viewBox="0 0 24 24" fill="none" xmlns="http://www.w3.org/2000/svg">
<g clip-path="url(#clip0_3396_13748)">
<rect width="24" height="24" fill="white"/>
<path d="M20.4255 4.925C21.0422 5.54167 21.3505 6.26667 21.3505 7.1C21.3505 7.91667 21.0422 8.63333 20.4255 9.25L8.65049 21H3.00049V15.325L14.7505 3.575C15.3672 2.95833 16.0922 2.65 16.9255 2.65C17.7588 2.65 18.4838 2.95833 19.1005 3.575L20.4255 4.925ZM17.4755 5.2C17.3255 5.05 17.1422 4.975 16.9255 4.975C16.7088 4.975 16.5172 5.05833 16.3505 5.225L5.35049 16.225V18.7H7.72549L18.7755 7.65C18.9422 7.48333 19.0255 7.29167 19.0255 7.075C19.0255 6.85833 18.9505 6.675 18.8005 6.525L17.4755 5.2ZM14.2005 5.55L18.4005 9.75L16.8005 11.375L12.5505 7.125L14.2005 5.55Z" fill="black"/>
</g>
<defs>
<clipPath id="clip0_3396_13748">
<rect width="24" height="24" fill="white"/>
</clipPath>
</defs>
</svg>
