<svg width="24" height="24" viewBox="0 0 24 24" fill="none" xmlns="http://www.w3.org/2000/svg">
<g clip-path="url(#clip0_3182_28639)">
<rect width="24" height="24" fill="white"/>
<path d="M16.1755 21.85C14.4755 21.4833 12.8588 20.8833 11.3255 20.05C9.79216 19.2167 8.38382 18.1583 7.10049 16.875C5.81716 15.5917 4.75049 14.1833 3.90049 12.65C3.06716 11.1 2.46716 9.475 2.10049 7.775C1.93382 7.04167 1.95882 6.31667 2.17549 5.6C2.39216 4.88333 2.75049 4.25833 3.25049 3.725C3.76716 3.175 4.40049 2.80833 5.15049 2.625L7.80049 1.925L10.4505 7.625L8.05049 10.025C8.65049 11.2583 9.47549 12.4 10.5255 13.45C11.5588 14.4833 12.7005 15.3083 13.9505 15.925L16.3505 13.525L22.0505 16.175L21.3255 18.8C21.1422 19.55 20.7755 20.1833 20.2255 20.7C19.6922 21.2 19.0672 21.5583 18.3505 21.775C17.6338 21.9917 16.9088 22.0167 16.1755 21.85ZM16.3755 20.95C16.9255 21.0667 17.4838 21.05 18.0505 20.9C18.6338 20.7333 19.1255 20.45 19.5255 20.05C19.9422 19.6333 20.2422 19.1167 20.4255 18.5L20.9255 16.7L16.5505 14.625L14.1255 17.05C13.2588 16.65 12.4838 16.2083 11.8005 15.725C11.1172 15.2417 10.4755 14.7 9.87549 14.1C9.25882 13.4833 8.70882 12.8333 8.22549 12.15C7.74216 11.4667 7.30049 10.6917 6.90049 9.825L9.32549 7.4L7.25049 3.025L5.45049 3.525C4.83382 3.70833 4.31716 4.00833 3.90049 4.425C3.50049 4.825 3.21716 5.31667 3.05049 5.9C2.90049 6.46667 2.88382 7.025 3.00049 7.575C3.36716 9.20833 3.95049 10.7583 4.75049 12.225C5.55049 13.6917 6.55049 15.025 7.75049 16.225C8.95049 17.425 10.2755 18.425 11.7255 19.225C13.1922 20.0083 14.7422 20.5833 16.3755 20.95Z" fill="black"/>
</g>
<defs>
<clipPath id="clip0_3182_28639">
<rect width="24" height="24" fill="white"/>
</clipPath>
</defs>
</svg>
