<svg width="24" height="24" viewBox="0 0 24 24" fill="none" xmlns="http://www.w3.org/2000/svg">
<g clip-path="url(#clip0_3245_16758)">
<rect width="24" height="24" fill="white"/>
<path d="M12.0005 22C10.1672 22 8.48382 21.5583 6.95049 20.675C5.41716 19.7917 4.20882 18.5833 3.32549 17.05C2.44216 15.5167 2.00049 13.8333 2.00049 12C2.00049 10.1667 2.44216 8.48333 3.32549 6.95C4.20882 5.41667 5.41716 4.20833 6.95049 3.325C8.48382 2.44167 10.1672 2 12.0005 2C13.8338 2 15.5172 2.44167 17.0505 3.325C18.5838 4.20833 19.7922 5.41667 20.6755 6.95C21.5588 8.48333 22.0005 10.1667 22.0005 12C22.0005 13.8333 21.5588 15.5167 20.6755 17.05C19.7922 18.5833 18.5838 19.7917 17.0505 20.675C15.5172 21.5583 13.8338 22 12.0005 22ZM12.0005 21.075C13.6672 21.075 15.1838 20.675 16.5505 19.875C17.9338 19.075 19.0255 17.9833 19.8255 16.6C20.6255 15.2 21.0255 13.6667 21.0255 12C21.0255 10.3333 20.6255 8.80833 19.8255 7.425C19.0255 6.025 17.9338 4.925 16.5505 4.125C15.1838 3.325 13.6672 2.925 12.0005 2.925C10.3338 2.925 8.80882 3.325 7.42549 4.125C6.05882 4.925 4.97549 6.025 4.17549 7.425C3.37549 8.80833 2.97549 10.3333 2.97549 12C2.97549 13.6667 3.37549 15.2 4.17549 16.6C4.97549 17.9833 6.05882 19.075 7.42549 19.875C8.80882 20.675 10.3338 21.075 12.0005 21.075ZM11.4005 13.625C11.4005 13.125 11.5005 12.675 11.7005 12.275C11.9005 11.875 12.2255 11.5417 12.6755 11.275C13.1588 10.975 13.5338 10.6917 13.8005 10.425C14.0672 10.1417 14.2005 9.80833 14.2005 9.425C14.2005 8.90833 14.0005 8.50833 13.6005 8.225C13.2005 7.925 12.6505 7.775 11.9505 7.775C11.3338 7.775 10.8255 7.91667 10.4255 8.2C10.0255 8.48333 9.78382 8.89167 9.70049 9.425L8.82549 9.275C8.95882 8.50833 9.30049 7.925 9.85049 7.525C10.4005 7.10833 11.1172 6.9 12.0005 6.9C12.9672 6.9 13.7338 7.14167 14.3005 7.625C14.8672 8.09167 15.1505 8.70833 15.1505 9.475C15.1505 9.99167 14.9838 10.4333 14.6505 10.8C14.3338 11.1667 13.9005 11.5167 13.3505 11.85C12.9505 12.1 12.6838 12.3667 12.5505 12.65C12.4172 12.9333 12.3505 13.2667 12.3505 13.65V14.225H11.4005V13.625ZM11.9005 17.15C11.6838 17.15 11.5088 17.0833 11.3755 16.95C11.2588 16.8167 11.2005 16.6417 11.2005 16.425C11.2005 16.225 11.2672 16.0583 11.4005 15.925C11.5338 15.7917 11.7005 15.725 11.9005 15.725C12.1172 15.725 12.2922 15.7917 12.4255 15.925C12.5588 16.0583 12.6255 16.225 12.6255 16.425C12.6255 16.6417 12.5588 16.8167 12.4255 16.95C12.2922 17.0833 12.1172 17.15 11.9005 17.15Z" fill="black"/>
</g>
<defs>
<clipPath id="clip0_3245_16758">
<rect width="24" height="24" fill="white"/>
</clipPath>
</defs>
</svg>
