<svg width="24" height="24" viewBox="0 0 24 24" fill="none" xmlns="http://www.w3.org/2000/svg">
<g clip-path="url(#clip0_3322_9924)">
<rect width="24" height="24" fill="white"/>
<path d="M17.05 20.675C15.5333 21.5583 13.85 22 12 22C10.15 22 8.45833 21.5583 6.925 20.675C5.40833 19.7917 4.20833 18.5917 3.325 17.075C2.44167 15.5417 2 13.85 2 12C2 10.15 2.44167 8.46667 3.325 6.95C4.20833 5.41667 5.40833 4.20833 6.925 3.325C8.45833 2.44167 10.15 2 12 2C13.85 2 15.5333 2.44167 17.05 3.325C18.5833 4.20833 19.7917 5.41667 20.675 6.95C21.5583 8.46667 22 10.15 22 12C22 13.85 21.5583 15.5417 20.675 17.075C19.7917 18.5917 18.5833 19.7917 17.05 20.675ZM11.45 12.025C11.25 12.4083 11.15 12.8417 11.15 13.325V13.85H12.575V13.375V13.25C12.5917 13 12.6583 12.7667 12.775 12.55C12.8917 12.3333 13.1167 12.125 13.45 11.925C14.0333 11.5917 14.475 11.25 14.775 10.9C15.075 10.55 15.225 10.1167 15.225 9.6C15.225 8.8 14.9333 8.15 14.35 7.65C13.7667 7.13333 12.975 6.875 11.975 6.875C11.0917 6.875 10.3583 7.09167 9.775 7.525C9.20833 7.95833 8.85 8.56667 8.7 9.35L9.975 9.6C10.0417 9.13333 10.25 8.775 10.6 8.525C10.95 8.275 11.4 8.15 11.95 8.15C12.5167 8.15 12.975 8.275 13.325 8.525C13.675 8.75833 13.85 9.08333 13.85 9.5C13.85 9.83333 13.725 10.125 13.475 10.375C13.2417 10.6083 12.9 10.85 12.45 11.1C12 11.3333 11.6667 11.6417 11.45 12.025ZM11.225 16.85C11.4083 17.0333 11.6417 17.125 11.925 17.125C12.2083 17.125 12.4417 17.0333 12.625 16.85C12.8083 16.6667 12.9 16.425 12.9 16.125C12.9 15.8583 12.8083 15.6333 12.625 15.45C12.4417 15.2667 12.2083 15.175 11.925 15.175C11.6417 15.175 11.4083 15.2667 11.225 15.45C11.0417 15.6333 10.95 15.8583 10.95 16.125C10.95 16.425 11.0417 16.6667 11.225 16.85Z" fill="black"/>
</g>
<defs>
<clipPath id="clip0_3322_9924">
<rect width="24" height="24" fill="white"/>
</clipPath>
</defs>
</svg>
