<svg width="24" height="24" viewBox="0 0 24 24" fill="none" xmlns="http://www.w3.org/2000/svg">
<g clip-path="url(#clip0_3181_23827)">
<rect width="24" height="24" fill="white"/>
<path d="M15.2505 5.4V4.925V4.475V1.45L18.7505 4.95L15.2505 8.45V5.4ZM5.25049 19.05L8.75049 15.55V18.575V19.025V19.5V22.55L5.25049 19.05ZM7.72549 18.1H13.7505C15.0005 18.1 16.1172 17.8417 17.1005 17.325C18.1005 16.7917 18.8838 16.0667 19.4505 15.15C20.0172 14.2167 20.3005 13.1667 20.3005 12C20.3005 11.3 20.1838 10.625 19.9505 9.975C19.7338 9.325 19.4172 8.74167 19.0005 8.225L20.4255 6.8C21.0255 7.51667 21.4755 8.31667 21.7755 9.2C22.0922 10.0833 22.2505 11.0167 22.2505 12C22.2505 13.5333 21.8838 14.9083 21.1505 16.125C20.4338 17.3417 19.4255 18.2917 18.1255 18.975C16.8422 19.6583 15.3838 20 13.7505 20H7.70049L7.72549 18.1ZM16.2755 5.9H10.2505C9.00049 5.9 7.87549 6.16667 6.87549 6.7C5.89216 7.21667 5.11716 7.94167 4.55049 8.875C3.98382 9.79167 3.70049 10.8333 3.70049 12C3.70049 12.7 3.80882 13.375 4.02549 14.025C4.25882 14.675 4.58382 15.2583 5.00049 15.775L3.57549 17.2C2.97549 16.4833 2.51716 15.6833 2.20049 14.8C1.90049 13.9167 1.75049 12.9833 1.75049 12C1.75049 10.4667 2.10882 9.09167 2.82549 7.875C3.55882 6.65833 4.56716 5.70833 5.85049 5.025C7.15049 4.34167 8.61716 4 10.2505 4H16.3005L16.2755 5.9Z" fill="black"/>
</g>
<defs>
<clipPath id="clip0_3181_23827">
<rect width="24" height="24" fill="white"/>
</clipPath>
</defs>
</svg>
