<svg width="24" height="24" viewBox="0 0 24 24" fill="none" xmlns="http://www.w3.org/2000/svg">
<g clip-path="url(#clip0_3182_28553)">
<rect width="24" height="24" fill="white"/>
<path d="M17.05 20.675C15.5167 21.5583 13.8333 22 12 22C10.1667 22 8.48333 21.5583 6.95 20.675C5.41667 19.7917 4.20833 18.5833 3.325 17.05C2.44167 15.5167 2 13.8333 2 12C2 10.1667 2.44167 8.48333 3.325 6.95C4.20833 5.41667 5.41667 4.20833 6.95 3.325C8.48333 2.44167 10.1667 2 12 2C13.8333 2 15.5167 2.44167 17.05 3.325C18.5833 4.20833 19.7917 5.41667 20.675 6.95C21.5583 8.48333 22 10.1667 22 12C22 13.8333 21.5583 15.5167 20.675 17.05C19.7917 18.5833 18.5833 19.7917 17.05 20.675ZM14.425 13.9C13.6583 13.5833 12.85 13.425 12 13.425C11.15 13.425 10.3417 13.5833 9.575 13.9C8.80833 14.2167 8.11667 14.675 7.5 15.275L8.65 16.75C9.06667 16.3333 9.56667 16.0083 10.15 15.775C10.75 15.525 11.3667 15.4 12 15.4C12.6333 15.4 13.25 15.5167 13.85 15.75C14.45 15.9833 14.95 16.3167 15.35 16.75L16.5 15.275C15.8833 14.675 15.1917 14.2167 14.425 13.9ZM7.425 10.4C7.725 10.6833 8.08333 10.825 8.5 10.825C8.91667 10.825 9.26667 10.6833 9.55 10.4C9.85 10.1 10 9.74167 10 9.325C10 8.90833 9.85 8.55833 9.55 8.275C9.26667 7.975 8.91667 7.825 8.5 7.825C8.08333 7.825 7.725 7.975 7.425 8.275C7.14167 8.55833 7 8.90833 7 9.325C7 9.74167 7.14167 10.1 7.425 10.4ZM14.425 10.4C14.725 10.6833 15.0833 10.825 15.5 10.825C15.9167 10.825 16.2667 10.6833 16.55 10.4C16.85 10.1 17 9.74167 17 9.325C17 8.90833 16.85 8.55833 16.55 8.275C16.2667 7.975 15.9167 7.825 15.5 7.825C15.0833 7.825 14.725 7.975 14.425 8.275C14.1417 8.55833 14 8.90833 14 9.325C14 9.74167 14.1417 10.1 14.425 10.4Z" fill="black"/>
</g>
<defs>
<clipPath id="clip0_3182_28553">
<rect width="24" height="24" fill="white"/>
</clipPath>
</defs>
</svg>
