<svg width="24" height="24" viewBox="0 0 24 24" fill="none" xmlns="http://www.w3.org/2000/svg">
<g clip-path="url(#clip0_3182_29776)">
<rect width="24" height="24" fill="white"/>
<path d="M9.67549 17.325C8.25882 17.325 6.95882 16.9833 5.77549 16.3C4.60882 15.6167 3.68382 14.6917 3.00049 13.525C2.33382 12.3583 2.00049 11.075 2.00049 9.675C2.00049 8.25833 2.33382 6.96667 3.00049 5.8C3.68382 4.63333 4.60882 3.70833 5.77549 3.025C6.95882 2.34167 8.25882 2 9.67549 2C11.0755 2 12.3588 2.34167 13.5255 3.025C14.7088 3.70833 15.6338 4.63333 16.3005 5.8C16.9838 6.96667 17.3255 8.25833 17.3255 9.675C17.3255 11.075 16.9838 12.3667 16.3005 13.55C15.6338 14.7167 14.7088 15.6417 13.5255 16.325C12.3588 16.9917 11.0755 17.325 9.67549 17.325ZM9.67549 16.375C10.9088 16.375 12.0338 16.0833 13.0505 15.5C14.0672 14.9 14.8672 14.0917 15.4505 13.075C16.0505 12.0417 16.3505 10.9083 16.3505 9.675C16.3505 8.44167 16.0505 7.31667 15.4505 6.3C14.8672 5.26667 14.0588 4.45 13.0255 3.85C12.0088 3.25 10.8922 2.95 9.67549 2.95C8.44216 2.95 7.30882 3.25 6.27549 3.85C5.25882 4.45 4.45049 5.26667 3.85049 6.3C3.26716 7.31667 2.97549 8.44167 2.97549 9.675C2.97549 10.9083 3.26716 12.0333 3.85049 13.05C4.45049 14.0667 5.25882 14.875 6.27549 15.475C7.30882 16.075 8.44216 16.375 9.67549 16.375ZM14.3755 15.025L15.0505 14.35L21.6755 20.975L21.0005 21.65L14.3755 15.025Z" fill="black"/>
</g>
<defs>
<clipPath id="clip0_3182_29776">
<rect width="24" height="24" fill="white"/>
</clipPath>
</defs>
</svg>
