<svg width="24" height="24" viewBox="0 0 24 24" fill="none" xmlns="http://www.w3.org/2000/svg">
<g clip-path="url(#clip0_3182_29794)">
<rect width="24" height="24" fill="white"/>
<path d="M10 17.975C8.53333 17.975 7.18333 17.625 5.95 16.925C4.73333 16.2083 3.76667 15.2417 3.05 14.025C2.35 12.8083 2 11.4667 2 10C2 8.53333 2.35 7.19167 3.05 5.975C3.76667 4.75833 4.73333 3.8 5.95 3.1C7.18333 2.38333 8.53333 2.025 10 2.025C11.4667 2.025 12.8083 2.38333 14.025 3.1C15.2583 3.8 16.225 4.75833 16.925 5.975C17.6417 7.19167 18 8.53333 18 10C18 11.4667 17.6417 12.8083 16.925 14.025C16.225 15.2417 15.2583 16.2083 14.025 16.925C12.8083 17.625 11.4667 17.975 10 17.975ZM10 16.075C11.1167 16.075 12.1333 15.8083 13.05 15.275C13.9833 14.725 14.7167 13.9917 15.25 13.075C15.7833 12.1417 16.05 11.1167 16.05 10C16.05 8.88333 15.7833 7.86667 15.25 6.95C14.7167 6.01667 13.9833 5.28333 13.05 4.75C12.1333 4.2 11.1167 3.925 10 3.925C8.88333 3.925 7.85833 4.2 6.925 4.75C6.00833 5.28333 5.28333 6.01667 4.75 6.95C4.21667 7.86667 3.95 8.88333 3.95 10C3.95 11.1167 4.21667 12.1417 4.75 13.075C5.28333 13.9917 6.00833 14.725 6.925 15.275C7.85833 15.8083 8.88333 16.075 10 16.075ZM14.325 15.65L15.675 14.3L21.675 20.3L20.325 21.65L14.325 15.65Z" fill="black"/>
</g>
<defs>
<clipPath id="clip0_3182_29794">
<rect width="24" height="24" fill="white"/>
</clipPath>
</defs>
</svg>
