<svg width="24" height="24" viewBox="0 0 24 24" fill="none" xmlns="http://www.w3.org/2000/svg">
<g clip-path="url(#clip0_3182_29792)">
<rect width="24" height="24" fill="white"/>
<path d="M9.825 17.65C8.39167 17.65 7.075 17.3083 5.875 16.625C4.675 15.925 3.725 14.9833 3.025 13.8C2.34167 12.6 2 11.275 2 9.825C2 8.39167 2.34167 7.08333 3.025 5.9C3.725 4.7 4.675 3.75833 5.875 3.075C7.075 2.375 8.39167 2.025 9.825 2.025C11.275 2.025 12.5917 2.375 13.775 3.075C14.975 3.75833 15.925 4.7 16.625 5.9C17.325 7.08333 17.675 8.39167 17.675 9.825C17.675 11.275 17.325 12.6 16.625 13.8C15.925 14.9833 14.975 15.925 13.775 16.625C12.5917 17.3083 11.275 17.65 9.825 17.65ZM9.825 16.225C11.0083 16.225 12.0833 15.9417 13.05 15.375C14.0333 14.8083 14.8 14.0417 15.35 13.075C15.9167 12.0917 16.2 11.0083 16.2 9.825C16.2 8.65833 15.9167 7.59167 15.35 6.625C14.8 5.64167 14.0333 4.86667 13.05 4.3C12.0833 3.73333 11.0083 3.45 9.825 3.45C8.65833 3.45 7.58333 3.73333 6.6 4.3C5.63333 4.86667 4.86667 5.64167 4.3 6.625C3.75 7.59167 3.475 8.65833 3.475 9.825C3.475 11.0083 3.75 12.0917 4.3 13.075C4.86667 14.0417 5.63333 14.8083 6.6 15.375C7.58333 15.9417 8.65833 16.225 9.825 16.225ZM14.35 15.35L15.375 14.325L21.675 20.625L20.65 21.65L14.35 15.35Z" fill="black"/>
</g>
<defs>
<clipPath id="clip0_3182_29792">
<rect width="24" height="24" fill="white"/>
</clipPath>
</defs>
</svg>
