<svg width="24" height="24" viewBox="0 0 24 24" fill="none" xmlns="http://www.w3.org/2000/svg">
<g clip-path="url(#clip0_3182_29798)">
<rect width="24" height="24" fill="white"/>
<path d="M10.175 18.325C8.675 18.325 7.3 17.9667 6.05 17.25C4.8 16.5167 3.80833 15.5333 3.075 14.3C2.35833 13.05 2 11.675 2 10.175C2 8.675 2.35833 7.3 3.075 6.05C3.80833 4.8 4.8 3.81667 6.05 3.1C7.3 2.36667 8.675 2 10.175 2C11.675 2 13.0417 2.36667 14.275 3.1C15.525 3.81667 16.5083 4.8 17.225 6.05C17.9583 7.3 18.325 8.675 18.325 10.175C18.325 11.675 17.9583 13.05 17.225 14.3C16.5083 15.5333 15.525 16.5167 14.275 17.25C13.0417 17.9667 11.675 18.325 10.175 18.325ZM10.175 15.225C11.1083 15.225 11.95 15 12.7 14.55C13.4667 14.1 14.0667 13.4917 14.5 12.725C14.95 11.9583 15.175 11.1083 15.175 10.175C15.175 9.24167 14.95 8.39167 14.5 7.625C14.0667 6.84167 13.4667 6.225 12.7 5.775C11.95 5.325 11.1083 5.1 10.175 5.1C9.25833 5.1 8.40833 5.325 7.625 5.775C6.85833 6.225 6.25 6.84167 5.8 7.625C5.36667 8.39167 5.15 9.24167 5.15 10.175C5.15 11.1083 5.36667 11.9583 5.8 12.725C6.25 13.4917 6.85833 14.1 7.625 14.55C8.40833 15 9.25833 15.225 10.175 15.225ZM13.825 15.95L15.975 13.8L21.675 19.425L19.45 21.65L13.825 15.95Z" fill="black"/>
</g>
<defs>
<clipPath id="clip0_3182_29798">
<rect width="24" height="24" fill="white"/>
</clipPath>
</defs>
</svg>
