<svg width="24" height="24" viewBox="0 0 24 24" fill="none" xmlns="http://www.w3.org/2000/svg">
<g clip-path="url(#clip0_3182_29784)">
<rect width="24" height="24" fill="white"/>
<path d="M10.1755 18.325C8.67549 18.325 7.30049 17.9667 6.05049 17.25C4.80049 16.5167 3.80882 15.5333 3.07549 14.3C2.35882 13.05 2.00049 11.675 2.00049 10.175C2.00049 8.675 2.35882 7.3 3.07549 6.05C3.80882 4.8 4.80049 3.81667 6.05049 3.1C7.30049 2.36667 8.67549 2 10.1755 2C11.6755 2 13.0422 2.36667 14.2755 3.1C15.5255 3.81667 16.5088 4.8 17.2255 6.05C17.9588 7.3 18.3255 8.675 18.3255 10.175C18.3255 11.675 17.9588 13.05 17.2255 14.3C16.5088 15.5333 15.5255 16.5167 14.2755 17.25C13.0422 17.9667 11.6755 18.325 10.1755 18.325ZM10.1755 15.275C11.1088 15.275 11.9588 15.05 12.7255 14.6C13.5088 14.15 14.1172 13.5333 14.5505 12.75C15.0005 11.9667 15.2255 11.1083 15.2255 10.175C15.2255 9.225 15.0005 8.36667 14.5505 7.6C14.1172 6.81667 13.5088 6.2 12.7255 5.75C11.9588 5.28333 11.1088 5.05 10.1755 5.05C9.24216 5.05 8.38382 5.28333 7.60049 5.75C6.83382 6.2 6.22549 6.81667 5.77549 7.6C5.32549 8.36667 5.10049 9.225 5.10049 10.175C5.10049 11.1083 5.32549 11.9667 5.77549 12.75C6.22549 13.5333 6.83382 14.15 7.60049 14.6C8.38382 15.05 9.24216 15.275 10.1755 15.275ZM13.8505 15.925L15.9505 13.825L21.6505 19.45L19.4755 21.625L13.8505 15.925Z" fill="black"/>
</g>
<defs>
<clipPath id="clip0_3182_29784">
<rect width="24" height="24" fill="white"/>
</clipPath>
</defs>
</svg>
