<svg width="24" height="24" viewBox="0 0 24 24" fill="none" xmlns="http://www.w3.org/2000/svg">
<g clip-path="url(#clip0_3182_28623)">
<rect width="24" height="24" fill="white"/>
<path d="M8.80049 20.85C4.93382 18.6167 3.00049 15.8 3.00049 12.4V4.275L12.0005 1L21.0005 4.275V12.4C21.0005 15.8 19.0672 18.6167 15.2005 20.85L12.0005 22.7L8.80049 20.85ZM13.4505 17.825C14.8338 17.025 15.8422 16.1833 16.4755 15.3C17.1255 14.4167 17.4505 13.45 17.4505 12.4V6.7L12.0005 4.725L6.55049 6.7V12.4C6.55049 13.45 6.86716 14.4167 7.50049 15.3C8.15049 16.1833 9.16716 17.025 10.5505 17.825L12.0005 18.65L13.4505 17.825ZM6.70049 11.275L9.20049 8.875L11.2755 11.05L14.8505 7.375L17.2755 9.85L11.3005 15.85L6.70049 11.275Z" fill="black"/>
</g>
<defs>
<clipPath id="clip0_3182_28623">
<rect width="24" height="24" fill="white"/>
</clipPath>
</defs>
</svg>
