<svg width="24" height="24" viewBox="0 0 24 24" fill="none" xmlns="http://www.w3.org/2000/svg">
<g clip-path="url(#clip0_3182_30238)">
<rect width="24" height="24" fill="white"/>
<path d="M6.625 21C6.19167 21 5.81667 20.8417 5.5 20.525C5.2 20.2083 5.05 19.8417 5.05 19.425C5.05 18.975 5.2 18.6 5.5 18.3C5.81667 17.9833 6.19167 17.825 6.625 17.825C7.05833 17.825 7.425 17.9833 7.725 18.3C8.04167 18.6 8.2 18.975 8.2 19.425C8.2 19.8417 8.04167 20.2083 7.725 20.525C7.425 20.8417 7.05833 21 6.625 21ZM18.3 21C17.8667 21 17.4917 20.8417 17.175 20.525C16.8583 20.2083 16.7 19.8417 16.7 19.425C16.7 18.975 16.8583 18.6 17.175 18.3C17.4917 17.9833 17.8667 17.825 18.3 17.825C18.7333 17.825 19.1 17.9833 19.4 18.3C19.7167 18.6 19.875 18.975 19.875 19.425C19.875 19.8417 19.7167 20.2083 19.4 20.525C19.1 20.8417 18.7333 21 18.3 21ZM1.425 4.85C1.09167 4.85 0.808333 4.74167 0.575 4.525C0.358333 4.29167 0.25 4.00833 0.25 3.675C0.25 3.34167 0.358333 3.06667 0.575 2.85C0.808333 2.61667 1.09167 2.5 1.425 2.5H5.175L5.6 5H21.5L19.525 16H5.075L3.125 4.85H1.425Z" fill="black"/>
</g>
<defs>
<clipPath id="clip0_3182_30238">
<rect width="24" height="24" fill="white"/>
</clipPath>
</defs>
</svg>
