<svg width="24" height="24" viewBox="0 0 24 24" fill="none" xmlns="http://www.w3.org/2000/svg">
<g clip-path="url(#clip0_3182_30218)">
<rect width="24" height="24" fill="white"/>
<path d="M6.62549 21C6.05882 21 5.56716 20.8 5.15049 20.4C4.75049 19.9833 4.55049 19.4917 4.55049 18.925C4.55049 18.3417 4.75049 17.85 5.15049 17.45C5.56716 17.0333 6.05882 16.825 6.62549 16.825C7.20882 16.825 7.70049 17.0333 8.10049 17.45C8.50049 17.85 8.70049 18.3417 8.70049 18.925C8.70049 19.4917 8.50049 19.9833 8.10049 20.4C7.70049 20.8 7.20882 21 6.62549 21ZM6.62549 20.175C6.97549 20.175 7.26716 20.0583 7.50049 19.825C7.75049 19.575 7.87549 19.275 7.87549 18.925C7.87549 18.5583 7.75049 18.2583 7.50049 18.025C7.26716 17.775 6.97549 17.65 6.62549 17.65C6.27549 17.65 5.97549 17.775 5.72549 18.025C5.49216 18.2583 5.37549 18.5583 5.37549 18.925C5.37549 19.275 5.49216 19.575 5.72549 19.825C5.97549 20.0583 6.27549 20.175 6.62549 20.175ZM18.1505 21C17.5838 21 17.0922 20.8 16.6755 20.4C16.2755 19.9833 16.0755 19.4917 16.0755 18.925C16.0755 18.3417 16.2755 17.85 16.6755 17.45C17.0922 17.0333 17.5838 16.825 18.1505 16.825C18.7338 16.825 19.2255 17.0333 19.6255 17.45C20.0255 17.85 20.2255 18.3417 20.2255 18.925C20.2255 19.4917 20.0255 19.9833 19.6255 20.4C19.2255 20.8 18.7338 21 18.1505 21ZM18.1505 20.175C18.5005 20.175 18.7922 20.0583 19.0255 19.825C19.2755 19.575 19.4005 19.275 19.4005 18.925C19.4005 18.5583 19.2755 18.2583 19.0255 18.025C18.7922 17.775 18.5005 17.65 18.1505 17.65C17.8005 17.65 17.5005 17.775 17.2505 18.025C17.0172 18.2583 16.9005 18.5583 16.9005 18.925C16.9005 19.275 17.0172 19.575 17.2505 19.825C17.5005 20.0583 17.8005 20.175 18.1505 20.175ZM0.900488 3.45C0.767155 3.45 0.650488 3.40833 0.550488 3.325C0.467155 3.225 0.425488 3.10833 0.425488 2.975C0.425488 2.84167 0.467155 2.73333 0.550488 2.65C0.650488 2.55 0.767155 2.5 0.900488 2.5H3.55049L4.00049 5H21.5005L19.6005 15.675H4.85049L2.70049 3.45H0.900488ZM5.70049 14.7H18.7505L20.3255 5.95H4.17549L5.70049 14.7Z" fill="black"/>
</g>
<defs>
<clipPath id="clip0_3182_30218">
<rect width="24" height="24" fill="white"/>
</clipPath>
</defs>
</svg>
