<svg width="24" height="24" viewBox="0 0 24 24" fill="none" xmlns="http://www.w3.org/2000/svg">
<g clip-path="url(#clip0_3182_28411)">
<rect width="24" height="24" fill="white"/>
<path d="M17.5005 7.275V5.9V4.575V1.925L21.5005 5.925L17.5005 9.925V7.275ZM17.5005 19.425V18.05V16.725V14.075L21.5005 18.075L17.5005 22.075V19.425ZM3.00049 16.9H5.02549C5.84215 16.9 6.51715 16.4333 7.05049 15.5L11.6755 7.375C12.6922 5.625 14.0588 4.75 15.7755 4.75H19.2505V7.1H15.7755C14.9755 7.1 14.3005 7.575 13.7505 8.525L9.12549 16.625C8.60882 17.4917 8.00882 18.15 7.32549 18.6C6.65882 19.0333 5.89216 19.25 5.02549 19.25H3.00049V16.9ZM7.05049 8.5C6.80049 8.05 6.50049 7.70833 6.15049 7.475C5.80049 7.225 5.42549 7.1 5.02549 7.1H3.00049V4.75H5.02549C5.85882 4.75 6.58382 4.95 7.20049 5.35C7.83382 5.73333 8.41716 6.30833 8.95049 7.075L9.07549 7.25L7.70049 9.65L7.05049 8.5ZM13.7505 15.475C14.0172 15.925 14.3172 16.2833 14.6505 16.55C15.0005 16.8 15.3755 16.925 15.7755 16.925H19.2505V19.25H15.7755C14.9255 19.25 14.1838 19.05 13.5505 18.65C12.9172 18.25 12.3588 17.6667 11.8755 16.9L11.7505 16.7L13.1005 14.35L13.7505 15.475Z" fill="black"/>
</g>
<defs>
<clipPath id="clip0_3182_28411">
<rect width="24" height="24" fill="white"/>
</clipPath>
</defs>
</svg>
