<svg width="24" height="24" viewBox="0 0 24 24" fill="none" xmlns="http://www.w3.org/2000/svg">
<g clip-path="url(#clip0_3156_460)">
<rect width="24" height="24" fill="white"/>
<path d="M17.0505 20.675C15.5172 21.5583 13.8338 22 12.0005 22C10.1672 22 8.48382 21.5583 6.95049 20.675C5.41716 19.7917 4.20882 18.5833 3.32549 17.05C2.44216 15.5167 2.00049 13.8333 2.00049 12C2.00049 10.1667 2.44216 8.48333 3.32549 6.95C4.20882 5.41667 5.41716 4.20833 6.95049 3.325C8.48382 2.44167 10.1672 2 12.0005 2C13.8338 2 15.5172 2.44167 17.0505 3.325C18.5838 4.20833 19.7922 5.41667 20.6755 6.95C21.5588 8.48333 22.0005 10.1667 22.0005 12C22.0005 13.8333 21.5588 15.5167 20.6755 17.05C19.7922 18.5833 18.5838 19.7917 17.0505 20.675ZM7.42549 10.4C7.72549 10.6833 8.08382 10.825 8.50049 10.825C8.91716 10.825 9.26716 10.6833 9.55049 10.4C9.85049 10.1 10.0005 9.74167 10.0005 9.325C10.0005 8.90833 9.85049 8.55833 9.55049 8.275C9.26716 7.975 8.91716 7.825 8.50049 7.825C8.08382 7.825 7.72549 7.975 7.42549 8.275C7.14216 8.55833 7.00049 8.90833 7.00049 9.325C7.00049 9.74167 7.14216 10.1 7.42549 10.4ZM14.4255 10.4C14.7255 10.6833 15.0838 10.825 15.5005 10.825C15.9172 10.825 16.2672 10.6833 16.5505 10.4C16.8505 10.1 17.0005 9.74167 17.0005 9.325C17.0005 8.90833 16.8505 8.55833 16.5505 8.275C16.2672 7.975 15.9172 7.825 15.5005 7.825C15.0838 7.825 14.7255 7.975 14.4255 8.275C14.1422 8.55833 14.0005 8.90833 14.0005 9.325C14.0005 9.74167 14.1422 10.1 14.4255 10.4ZM9.57549 17.025C10.3422 17.3417 11.1505 17.5 12.0005 17.5C12.8505 17.5 13.6588 17.3417 14.4255 17.025C15.1922 16.7083 15.8838 16.25 16.5005 15.65L15.3505 14.175C14.9338 14.5917 14.4255 14.925 13.8255 15.175C13.2422 15.4083 12.6338 15.525 12.0005 15.525C11.3672 15.525 10.7505 15.4083 10.1505 15.175C9.55049 14.9417 9.05049 14.6083 8.65049 14.175L7.50049 15.65C8.11716 16.25 8.80882 16.7083 9.57549 17.025Z" fill="black"/>
</g>
<defs>
<clipPath id="clip0_3156_460">
<rect width="24" height="24" fill="white"/>
</clipPath>
</defs>
</svg>
