<svg width="24" height="24" viewBox="0 0 24 24" fill="none" xmlns="http://www.w3.org/2000/svg">
<g clip-path="url(#clip0_3396_13532)">
<rect width="24" height="24" fill="white"/>
<path d="M3.00049 18C3.00049 16.7667 3.37549 15.7 4.12549 14.8C4.89216 13.8833 5.95049 13.1917 7.30049 12.725C8.66716 12.2417 10.2338 12 12.0005 12C13.7672 12 15.3255 12.2417 16.6755 12.725C18.0422 13.1917 19.1005 13.8833 19.8505 14.8C20.6172 15.7 21.0005 16.7667 21.0005 18V21H3.00049V18ZM19.1005 19.15V18C19.1005 17.1333 18.8088 16.3917 18.2255 15.775C17.6422 15.1417 16.8088 14.6667 15.7255 14.35C14.6588 14.0167 13.4172 13.85 12.0005 13.85C10.5838 13.85 9.33382 14.0167 8.25049 14.35C7.18382 14.6667 6.35882 15.1417 5.77549 15.775C5.19216 16.3917 4.90049 17.1333 4.90049 18V19.15H19.1005ZM12.0005 10.225C11.2172 10.225 10.5005 10.0417 9.85049 9.675C9.20049 9.29167 8.68382 8.78333 8.30049 8.15C7.93382 7.5 7.75049 6.78333 7.75049 6C7.75049 5.21667 7.93382 4.50833 8.30049 3.875C8.68382 3.225 9.20049 2.71667 9.85049 2.35C10.5005 1.96667 11.2172 1.775 12.0005 1.775C12.7838 1.775 13.5005 1.96667 14.1505 2.35C14.8005 2.71667 15.3088 3.225 15.6755 3.875C16.0588 4.50833 16.2505 5.21667 16.2505 6C16.2505 6.78333 16.0588 7.5 15.6755 8.15C15.3088 8.78333 14.8005 9.29167 14.1505 9.675C13.5005 10.0417 12.7838 10.225 12.0005 10.225ZM12.0005 8.45C12.4505 8.45 12.8588 8.34167 13.2255 8.125C13.5922 7.90833 13.8838 7.61667 14.1005 7.25C14.3172 6.86667 14.4255 6.45 14.4255 6C14.4255 5.55 14.3172 5.14167 14.1005 4.775C13.8838 4.39167 13.5922 4.09167 13.2255 3.875C12.8588 3.65833 12.4505 3.55 12.0005 3.55C11.5505 3.55 11.1422 3.65833 10.7755 3.875C10.4088 4.09167 10.1172 4.39167 9.90049 4.775C9.68382 5.14167 9.57549 5.55 9.57549 6C9.57549 6.45 9.68382 6.86667 9.90049 7.25C10.1172 7.61667 10.4088 7.90833 10.7755 8.125C11.1422 8.34167 11.5505 8.45 12.0005 8.45Z" fill="black"/>
</g>
<defs>
<clipPath id="clip0_3396_13532">
<rect width="24" height="24" fill="white"/>
</clipPath>
</defs>
</svg>
