<svg width="24" height="24" viewBox="0 0 24 24" fill="none" xmlns="http://www.w3.org/2000/svg">
<g clip-path="url(#clip0_3396_13534)">
<rect width="24" height="24" fill="white"/>
<path d="M3.00049 17.7C3.00049 16.4833 3.37549 15.4333 4.12549 14.55C4.89216 13.6667 5.95049 12.9917 7.30049 12.525C8.66716 12.0583 10.2338 11.825 12.0005 11.825C13.7672 11.825 15.3255 12.0583 16.6755 12.525C18.0422 12.9917 19.1005 13.6667 19.8505 14.55C20.6172 15.4333 21.0005 16.4833 21.0005 17.7V21H3.00049V17.7ZM18.5755 18.625V17.725C18.5755 17.0083 18.3088 16.3833 17.7755 15.85C17.2588 15.3167 16.5005 14.9083 15.5005 14.625C14.5172 14.3417 13.3505 14.2 12.0005 14.2C10.6672 14.2 9.50049 14.3417 8.50049 14.625C7.50049 14.9083 6.73382 15.3167 6.20049 15.85C5.68382 16.3833 5.42549 17 5.42549 17.7V18.625H18.5755ZM12.0005 10.325C11.2005 10.325 10.4755 10.1417 9.82549 9.775C9.17549 9.39167 8.65882 8.875 8.27549 8.225C7.89216 7.575 7.70049 6.85 7.70049 6.05C7.70049 5.25 7.89216 4.525 8.27549 3.875C8.65882 3.225 9.17549 2.71667 9.82549 2.35C10.4755 1.96667 11.2005 1.775 12.0005 1.775C12.8005 1.775 13.5255 1.96667 14.1755 2.35C14.8255 2.71667 15.3422 3.225 15.7255 3.875C16.1088 4.525 16.3005 5.25 16.3005 6.05C16.3005 6.85 16.1088 7.575 15.7255 8.225C15.3422 8.875 14.8255 9.39167 14.1755 9.775C13.5255 10.1417 12.8005 10.325 12.0005 10.325ZM12.0005 8.15C12.3838 8.15 12.7338 8.05833 13.0505 7.875C13.3672 7.69167 13.6172 7.44167 13.8005 7.125C13.9838 6.79167 14.0755 6.43333 14.0755 6.05C14.0755 5.66667 13.9838 5.31667 13.8005 5C13.6172 4.68333 13.3672 4.43333 13.0505 4.25C12.7338 4.06667 12.3838 3.975 12.0005 3.975C11.6172 3.975 11.2672 4.06667 10.9505 4.25C10.6338 4.43333 10.3838 4.68333 10.2005 5C10.0172 5.31667 9.92549 5.66667 9.92549 6.05C9.92549 6.43333 10.0172 6.79167 10.2005 7.125C10.3838 7.44167 10.6338 7.69167 10.9505 7.875C11.2672 8.05833 11.6172 8.15 12.0005 8.15Z" fill="black"/>
</g>
<defs>
<clipPath id="clip0_3396_13534">
<rect width="24" height="24" fill="white"/>
</clipPath>
</defs>
</svg>
