<svg width="24" height="24" viewBox="0 0 24 24" fill="none" xmlns="http://www.w3.org/2000/svg">
<g clip-path="url(#clip0_3396_13536)">
<rect width="24" height="24" fill="white"/>
<path d="M3.00049 17.425C3.00049 16.225 3.37549 15.1917 4.12549 14.325C4.87549 13.4417 5.92549 12.775 7.27549 12.325C8.64216 11.875 10.2172 11.65 12.0005 11.65C13.7838 11.65 15.3505 11.875 16.7005 12.325C18.0672 12.775 19.1255 13.4417 19.8755 14.325C20.6255 15.1917 21.0005 16.225 21.0005 17.425V21H3.00049V17.425ZM18.0005 18.05V17.425C18.0005 16.8917 17.7672 16.4083 17.3005 15.975C16.8338 15.5417 16.1422 15.2083 15.2255 14.975C14.3255 14.725 13.2505 14.6 12.0005 14.6C10.7505 14.6 9.66716 14.725 8.75049 14.975C7.85049 15.2083 7.16716 15.5417 6.70049 15.975C6.23382 16.3917 6.00049 16.875 6.00049 17.425V18.05H18.0005ZM12.0005 10.425C11.2005 10.425 10.4672 10.2333 9.80049 9.85C9.13382 9.46667 8.60882 8.95 8.22549 8.3C7.85882 7.63333 7.67549 6.9 7.67549 6.1C7.67549 5.3 7.85882 4.575 8.22549 3.925C8.60882 3.25833 9.13382 2.73333 9.80049 2.35C10.4672 1.96667 11.2005 1.775 12.0005 1.775C12.8005 1.775 13.5338 1.96667 14.2005 2.35C14.8672 2.73333 15.3838 3.25833 15.7505 3.925C16.1338 4.575 16.3255 5.3 16.3255 6.1C16.3255 6.9 16.1338 7.63333 15.7505 8.3C15.3838 8.95 14.8672 9.46667 14.2005 9.85C13.5338 10.2333 12.8005 10.425 12.0005 10.425ZM12.0005 7.775C12.3172 7.775 12.6005 7.7 12.8505 7.55C13.1005 7.4 13.2922 7.2 13.4255 6.95C13.5755 6.7 13.6505 6.41667 13.6505 6.1C13.6505 5.78333 13.5755 5.5 13.4255 5.25C13.2922 5 13.1005 4.80833 12.8505 4.675C12.6005 4.525 12.3172 4.45 12.0005 4.45C11.6838 4.45 11.4005 4.525 11.1505 4.675C10.9005 4.80833 10.7005 5 10.5505 5.25C10.4172 5.5 10.3505 5.78333 10.3505 6.1C10.3505 6.41667 10.4172 6.7 10.5505 6.95C10.7005 7.2 10.9005 7.4 11.1505 7.55C11.4005 7.7 11.6838 7.775 12.0005 7.775Z" fill="black"/>
</g>
<defs>
<clipPath id="clip0_3396_13536">
<rect width="24" height="24" fill="white"/>
</clipPath>
</defs>
</svg>
