<svg width="24" height="24" viewBox="0 0 24 24" fill="none" xmlns="http://www.w3.org/2000/svg">
<g clip-path="url(#clip0_3396_13534)">
<rect width="24" height="24" fill="white"/>
<path d="M3.00049 17.7C3.00049 16.4833 3.37549 15.4333 4.12549 14.55C4.89216 13.6667 5.95049 12.9917 7.30049 12.525C8.66716 12.0583 10.2338 11.825 12.0005 11.825C13.7672 11.825 15.3255 12.0583 16.6755 12.525C18.0422 12.9917 19.1005 13.6667 19.8505 14.55C20.6172 15.4333 21.0005 16.4833 21.0005 17.7V21H3.00049V17.7ZM18.5505 18.6V17.725C18.5505 17.0083 18.2838 16.3917 17.7505 15.875C17.2338 15.3417 16.4755 14.9333 15.4755 14.65C14.4922 14.3667 13.3338 14.225 12.0005 14.225C10.6672 14.225 9.50049 14.3667 8.50049 14.65C7.51716 14.9333 6.75882 15.3417 6.22549 15.875C5.70882 16.3917 5.45049 17 5.45049 17.7V18.6H18.5505ZM12.0005 10.325C11.2005 10.325 10.4755 10.1417 9.82549 9.775C9.17549 9.39167 8.65882 8.875 8.27549 8.225C7.89216 7.575 7.70049 6.85 7.70049 6.05C7.70049 5.25 7.89216 4.525 8.27549 3.875C8.65882 3.225 9.17549 2.71667 9.82549 2.35C10.4755 1.96667 11.2005 1.775 12.0005 1.775C12.8005 1.775 13.5255 1.96667 14.1755 2.35C14.8255 2.71667 15.3422 3.225 15.7255 3.875C16.1088 4.525 16.3005 5.25 16.3005 6.05C16.3005 6.85 16.1088 7.575 15.7255 8.225C15.3422 8.875 14.8255 9.39167 14.1755 9.775C13.5255 10.1417 12.8005 10.325 12.0005 10.325ZM12.0005 8.1C12.3838 8.1 12.7255 8.01667 13.0255 7.85C13.3422 7.66667 13.5838 7.41667 13.7505 7.1C13.9338 6.78333 14.0255 6.43333 14.0255 6.05C14.0255 5.66667 13.9338 5.31667 13.7505 5C13.5838 4.68333 13.3422 4.44167 13.0255 4.275C12.7255 4.09167 12.3838 4 12.0005 4C11.6172 4 11.2672 4.09167 10.9505 4.275C10.6505 4.44167 10.4088 4.68333 10.2255 5C10.0588 5.31667 9.97549 5.66667 9.97549 6.05C9.97549 6.43333 10.0588 6.78333 10.2255 7.1C10.4088 7.41667 10.6505 7.66667 10.9505 7.85C11.2672 8.01667 11.6172 8.1 12.0005 8.1Z" fill="black"/>
</g>
<defs>
<clipPath id="clip0_3396_13534">
<rect width="24" height="24" fill="white"/>
</clipPath>
</defs>
</svg>
