<svg width="24" height="24" viewBox="0 0 24 24" fill="none" xmlns="http://www.w3.org/2000/svg">
<g clip-path="url(#clip0_3156_588)">
<rect width="24" height="24" fill="white"/>
<path d="M3.75049 20C3.43382 20 3.14216 19.925 2.87549 19.775C2.60882 19.6083 2.39216 19.3917 2.22549 19.125C2.07549 18.8583 2.00049 18.5667 2.00049 18.25V5.75C2.00049 5.43333 2.07549 5.14167 2.22549 4.875C2.39216 4.60833 2.60882 4.4 2.87549 4.25C3.14216 4.08333 3.43382 4 3.75049 4H22.0005V20H3.75049ZM21.5005 19.525V4.475H3.75049C3.40049 4.475 3.10049 4.6 2.85049 4.85C2.61716 5.08333 2.50049 5.38333 2.50049 5.75V18.25C2.50049 18.6167 2.61716 18.925 2.85049 19.175C3.10049 19.4083 3.40049 19.525 3.75049 19.525H21.5005ZM18.1255 13.95C17.9922 13.95 17.8755 13.9 17.7755 13.8C17.6755 13.7 17.6255 13.5833 17.6255 13.45C17.6255 13.3167 17.6755 13.2 17.7755 13.1C17.8755 13 17.9922 12.95 18.1255 12.95C18.2588 12.95 18.3755 13 18.4755 13.1C18.5755 13.2 18.6255 13.3167 18.6255 13.45C18.6255 13.5833 18.5755 13.7 18.4755 13.8C18.3755 13.9 18.2588 13.95 18.1255 13.95ZM3.75049 7.5C3.43382 7.5 3.14216 7.425 2.87549 7.275C2.60882 7.10833 2.39216 6.89167 2.22549 6.625C2.07549 6.35833 2.00049 6.06667 2.00049 5.75H2.50049C2.50049 6.11667 2.61716 6.425 2.85049 6.675C3.10049 6.90833 3.40049 7.025 3.75049 7.025H21.7005V7.5H3.75049Z" fill="black"/>
</g>
<defs>
<clipPath id="clip0_3156_588">
<rect width="24" height="24" fill="white"/>
</clipPath>
</defs>
</svg>
