<svg width="24" height="24" viewBox="0 0 24 24" fill="none" xmlns="http://www.w3.org/2000/svg">
<g clip-path="url(#clip0_3181_24031)">
<rect width="24" height="24" fill="white"/>
<path d="M4.17549 20C3.77549 20 3.40882 19.9083 3.07549 19.725C2.74216 19.525 2.47549 19.2583 2.27549 18.925C2.09216 18.5917 2.00049 18.225 2.00049 17.825V6.175C2.00049 5.775 2.09216 5.40833 2.27549 5.075C2.47549 4.74167 2.74216 4.48333 3.07549 4.3C3.40882 4.1 3.77549 4 4.17549 4H22.0005V20H4.17549ZM21.0505 19.075V4.925H4.17549C3.82549 4.925 3.53382 5.04167 3.30049 5.275C3.08382 5.50833 2.97549 5.80833 2.97549 6.175V17.825C2.97549 18.1917 3.08382 18.4917 3.30049 18.725C3.53382 18.9583 3.82549 19.075 4.17549 19.075H21.0505ZM17.8255 14.45C17.6088 14.45 17.4255 14.375 17.2755 14.225C17.1255 14.075 17.0505 13.8833 17.0505 13.65C17.0505 13.4333 17.1255 13.25 17.2755 13.1C17.4255 12.95 17.6088 12.875 17.8255 12.875C18.0588 12.875 18.2505 12.95 18.4005 13.1C18.5505 13.25 18.6255 13.4333 18.6255 13.65C18.6255 13.8833 18.5505 14.075 18.4005 14.225C18.2505 14.375 18.0588 14.45 17.8255 14.45ZM4.17549 8.325C3.77549 8.325 3.40882 8.23333 3.07549 8.05C2.74216 7.85 2.47549 7.59167 2.27549 7.275C2.09216 6.94167 2.00049 6.575 2.00049 6.175H2.97549C2.97549 6.525 3.08382 6.81667 3.30049 7.05C3.53382 7.28333 3.82549 7.4 4.17549 7.4H21.5255V8.325H4.17549Z" fill="black"/>
</g>
<defs>
<clipPath id="clip0_3181_24031">
<rect width="24" height="24" fill="white"/>
</clipPath>
</defs>
</svg>
