<svg width="24" height="24" viewBox="0 0 24 24" fill="none" xmlns="http://www.w3.org/2000/svg">
<g clip-path="url(#clip0_3181_24039)">
<rect width="24" height="24" fill="white"/>
<path d="M5.82549 20C5.12549 20 4.48382 19.8333 3.90049 19.5C3.31716 19.15 2.85049 18.6833 2.50049 18.1C2.16716 17.5167 2.00049 16.875 2.00049 16.175V7.825C2.00049 7.125 2.16716 6.48333 2.50049 5.9C2.85049 5.31667 3.31716 4.85833 3.90049 4.525C4.48382 4.175 5.12549 4 5.82549 4H22.0005V20H5.82549ZM19.2505 17.3V6.7H5.82549C5.52549 6.7 5.26716 6.80833 5.05049 7.025C4.85049 7.24167 4.75049 7.50833 4.75049 7.825V16.175C4.75049 16.4917 4.85049 16.7583 5.05049 16.975C5.26716 17.1917 5.52549 17.3 5.82549 17.3H19.2505ZM15.9255 19.5C15.8922 19.5 15.8672 19.5 15.8505 19.5C15.8505 19.5 15.8338 19.5 15.8005 19.5C15.8338 19.5 15.8505 19.5 15.8505 19.5C15.8672 19.5 15.8922 19.5 15.9255 19.5C15.9588 19.5 15.9755 19.5 15.9755 19.5C15.9922 19.5 16.0172 19.5 16.0505 19.5C16.0172 19.5 15.9922 19.5 15.9755 19.5C15.9755 19.5 15.9588 19.5 15.9255 19.5ZM5.82549 11.675C5.12549 11.675 4.48382 11.5083 3.90049 11.175C3.31716 10.825 2.85049 10.3583 2.50049 9.775C2.16716 9.19167 2.00049 8.54167 2.00049 7.825H4.75049C4.75049 8.15833 4.85049 8.43333 5.05049 8.65C5.26716 8.86667 5.52549 8.975 5.82549 8.975H20.6255V11.675H5.82549Z" fill="black"/>
</g>
<defs>
<clipPath id="clip0_3181_24039">
<rect width="24" height="24" fill="white"/>
</clipPath>
</defs>
</svg>
