<svg width="24" height="24" viewBox="0 0 24 24" fill="none" xmlns="http://www.w3.org/2000/svg">
<g clip-path="url(#clip0_3182_28591)">
<rect width="24" height="24" fill="white"/>
<path d="M6.00049 21C5.45049 21 4.94216 20.8667 4.47549 20.6C4.02549 20.3333 3.66716 19.975 3.40049 19.525C3.13382 19.0583 3.00049 18.55 3.00049 18V6C3.00049 5.45 3.13382 4.95 3.40049 4.5C3.66716 4.03333 4.02549 3.66667 4.47549 3.4C4.94216 3.13333 5.45049 3 6.00049 3H21.0005V21H6.00049ZM19.1505 19.15V4.85H6.00049C5.68382 4.85 5.41716 4.95833 5.20049 5.175C5.00049 5.39167 4.90049 5.66667 4.90049 6V18C4.90049 18.3333 5.00049 18.6083 5.20049 18.825C5.41716 19.0417 5.68382 19.15 6.00049 19.15H19.1505ZM6.00049 9C5.45049 9 4.94216 8.86667 4.47549 8.6C4.02549 8.33333 3.66716 7.975 3.40049 7.525C3.13382 7.05833 3.00049 6.55 3.00049 6H4.90049C4.90049 6.33333 5.00049 6.60833 5.20049 6.825C5.41716 7.04167 5.68382 7.15 6.00049 7.15H20.2005V9H6.00049ZM15.7755 15.45C15.3922 15.45 15.0672 15.3167 14.8005 15.05C14.5338 14.7833 14.4005 14.4583 14.4005 14.075C14.4005 13.6917 14.5338 13.3667 14.8005 13.1C15.0672 12.8333 15.3922 12.7 15.7755 12.7C16.1588 12.7 16.4838 12.8333 16.7505 13.1C17.0172 13.3667 17.1505 13.6917 17.1505 14.075C17.1505 14.4583 17.0172 14.7833 16.7505 15.05C16.4838 15.3167 16.1588 15.45 15.7755 15.45Z" fill="black"/>
</g>
<defs>
<clipPath id="clip0_3182_28591">
<rect width="24" height="24" fill="white"/>
</clipPath>
</defs>
</svg>
