<svg width="24" height="24" viewBox="0 0 24 24" fill="none" xmlns="http://www.w3.org/2000/svg">
<g clip-path="url(#clip0_3156_596)">
<rect width="24" height="24" fill="white"/>
<path d="M5.00049 20C4.45049 20 3.94216 19.8667 3.47549 19.6C3.02549 19.3333 2.66716 18.975 2.40049 18.525C2.13382 18.0583 2.00049 17.55 2.00049 17V7C2.00049 6.45 2.13382 5.95 2.40049 5.5C2.66716 5.03333 3.02549 4.66667 3.47549 4.4C3.94216 4.13333 4.45049 4 5.00049 4H22.0005V20H5.00049ZM19.7755 17.825V6.175H5.00049C4.78382 6.175 4.60049 6.25833 4.45049 6.425C4.30049 6.575 4.22549 6.76667 4.22549 7V17C4.22549 17.2333 4.30049 17.4333 4.45049 17.6C4.60049 17.75 4.78382 17.825 5.00049 17.825H19.7755ZM16.4755 15.575C16.0088 15.575 15.6088 15.4167 15.2755 15.1C14.9588 14.7667 14.8005 14.3667 14.8005 13.9C14.8005 13.45 14.9588 13.0667 15.2755 12.75C15.6088 12.4167 16.0005 12.25 16.4505 12.25C16.9172 12.25 17.3088 12.4083 17.6255 12.725C17.9588 13.0417 18.1255 13.4333 18.1255 13.9C18.1255 14.3667 17.9588 14.7667 17.6255 15.1C17.3088 15.4167 16.9255 15.575 16.4755 15.575ZM5.00049 10C4.45049 10 3.94216 9.86667 3.47549 9.6C3.02549 9.33333 2.66716 8.975 2.40049 8.525C2.13382 8.05833 2.00049 7.55 2.00049 7H4.22549C4.22549 7.23333 4.30049 7.43333 4.45049 7.6C4.60049 7.75 4.78382 7.825 5.00049 7.825H21.2005V10H5.00049Z" fill="black"/>
</g>
<defs>
<clipPath id="clip0_3156_596">
<rect width="24" height="24" fill="white"/>
</clipPath>
</defs>
</svg>
