<svg width="24" height="24" viewBox="0 0 24 24" fill="none" xmlns="http://www.w3.org/2000/svg">
<g clip-path="url(#clip0_3139_1931)">
<rect width="24" height="24" fill="white"/>
<path d="M22.9755 13.025C22.7922 13.6917 22.4338 14.2917 21.9005 14.825L14.8255 21.9C14.3088 22.4167 13.7088 22.7667 13.0255 22.95C12.3422 23.1333 11.6588 23.1333 10.9755 22.95C10.2922 22.7667 9.69216 22.4167 9.17549 21.9L2.10049 14.825C1.58382 14.3083 1.23382 13.7083 1.05049 13.025C0.867155 12.3417 0.867155 11.6583 1.05049 10.975C1.23382 10.2917 1.58382 9.69167 2.10049 9.175L9.17549 2.1C9.70882 1.56667 10.3088 1.20833 10.9755 1.025C11.6588 0.841665 12.3338 0.841665 13.0005 1.025C13.6838 1.20833 14.2922 1.56667 14.8255 2.1L21.9005 9.175C22.4338 9.70833 22.7922 10.3167 22.9755 11C23.1588 11.6667 23.1588 12.3417 22.9755 13.025ZM13.0505 6.55H10.9505L11.1505 13.55H12.8505L13.0505 6.55ZM12.9005 15.325C12.6672 15.075 12.3672 14.95 12.0005 14.95C11.6338 14.95 11.3338 15.075 11.1005 15.325C10.8672 15.5583 10.7505 15.8583 10.7505 16.225C10.7505 16.5917 10.8672 16.8917 11.1005 17.125C11.3338 17.3417 11.6338 17.45 12.0005 17.45C12.3672 17.45 12.6672 17.3417 12.9005 17.125C13.1338 16.8917 13.2505 16.5917 13.2505 16.225C13.2505 15.8583 13.1338 15.5583 12.9005 15.325Z" fill="black"/>
</g>
<defs>
<clipPath id="clip0_3139_1931">
<rect width="24" height="24" fill="white"/>
</clipPath>
</defs>
</svg>
