<svg width="24" height="24" viewBox="0 0 24 24" fill="none" xmlns="http://www.w3.org/2000/svg">
<g clip-path="url(#clip0_3139_1937)">
<rect width="24" height="24" fill="white"/>
<path d="M15.0505 21.675C14.5005 22.225 13.8505 22.6 13.1005 22.8C12.3672 23 11.6255 23 10.8755 22.8C10.1422 22.6 9.50049 22.225 8.95049 21.675L2.32549 15.05C1.77549 14.5 1.40049 13.8583 1.20049 13.125C1.00049 12.375 1.00049 11.6333 1.20049 10.9C1.40049 10.15 1.77549 9.5 2.32549 8.95L8.82549 2.45C9.40882 1.86667 10.0755 1.46667 10.8255 1.25C11.5922 1.03333 12.3422 1.01667 13.0755 1.2C13.8255 1.38333 14.4838 1.75833 15.0505 2.325L21.6755 8.95C22.2422 9.51667 22.6172 10.1667 22.8005 10.9C23.0005 11.6333 23.0005 12.3667 22.8005 13.1C22.6172 13.8333 22.2422 14.4833 21.6755 15.05L15.0505 21.675ZM19.6005 13C19.7838 12.8333 19.9005 12.6333 19.9505 12.4C20.0172 12.15 20.0172 11.9083 19.9505 11.675C19.8838 11.4417 19.7588 11.2333 19.5755 11.05L12.9505 4.425C12.7672 4.24167 12.5588 4.11667 12.3255 4.05C12.0922 3.98333 11.8505 3.98333 11.6005 4.05C11.3672 4.1 11.1672 4.21667 11.0005 4.4L4.40049 11C4.21716 11.1667 4.09216 11.375 4.02549 11.625C3.97549 11.8583 3.98382 12.0917 4.05049 12.325C4.11716 12.5583 4.24216 12.7667 4.42549 12.95L11.0505 19.575C11.2338 19.7583 11.4422 19.8833 11.6755 19.95C11.9088 20 12.1422 20 12.3755 19.95C12.6255 19.8833 12.8338 19.7667 13.0005 19.6L19.6005 13ZM13.6255 6.975L13.3255 12.825H10.6505L10.3755 6.975H13.6255ZM12.0005 14.025C12.5005 14.025 12.9005 14.1833 13.2005 14.5C13.5172 14.8 13.6755 15.2 13.6755 15.7C13.6755 16.2 13.5172 16.6 13.2005 16.9C12.8838 17.2 12.4838 17.35 12.0005 17.35C11.5172 17.35 11.1172 17.2 10.8005 16.9C10.4838 16.6 10.3255 16.2 10.3255 15.7C10.3255 15.2 10.4838 14.8 10.8005 14.5C11.1172 14.1833 11.5172 14.025 12.0005 14.025Z" fill="black"/>
</g>
<defs>
<clipPath id="clip0_3139_1937">
<rect width="24" height="24" fill="white"/>
</clipPath>
</defs>
</svg>
