<svg width="24" height="24" viewBox="0 0 24 24" fill="none" xmlns="http://www.w3.org/2000/svg">
<g clip-path="url(#clip0_3139_1927)">
<rect width="24" height="24" fill="white"/>
<path d="M22.9755 13.025C22.7922 13.6917 22.4338 14.2917 21.9005 14.825L14.8255 21.9C14.3088 22.4167 13.7088 22.7667 13.0255 22.95C12.3422 23.1333 11.6588 23.1333 10.9755 22.95C10.2922 22.7667 9.69216 22.4167 9.17549 21.9L2.10049 14.825C1.58382 14.3083 1.23382 13.7083 1.05049 13.025C0.867155 12.3417 0.867155 11.6583 1.05049 10.975C1.23382 10.2917 1.58382 9.69167 2.10049 9.175L9.17549 2.1C9.70882 1.56667 10.3088 1.20833 10.9755 1.025C11.6588 0.841665 12.3338 0.841665 13.0005 1.025C13.6838 1.20833 14.2922 1.56667 14.8255 2.1L21.9005 9.175C22.4338 9.70833 22.7922 10.3167 22.9755 11C23.1588 11.6667 23.1588 12.3417 22.9755 13.025ZM12.8005 6.55H11.2005L11.3505 13.775H12.6505L12.8005 6.55ZM12.7005 15.75C12.5172 15.55 12.2838 15.45 12.0005 15.45C11.7005 15.45 11.4588 15.55 11.2755 15.75C11.0922 15.9333 11.0005 16.175 11.0005 16.475C11.0005 16.7583 11.0922 16.9917 11.2755 17.175C11.4588 17.3583 11.7005 17.45 12.0005 17.45C12.2838 17.45 12.5172 17.3583 12.7005 17.175C12.9005 16.9917 13.0005 16.7583 13.0005 16.475C13.0005 16.175 12.9005 15.9333 12.7005 15.75Z" fill="black"/>
</g>
<defs>
<clipPath id="clip0_3139_1927">
<rect width="24" height="24" fill="white"/>
</clipPath>
</defs>
</svg>
