<svg width="24" height="24" viewBox="0 0 24 24" fill="none" xmlns="http://www.w3.org/2000/svg">
<g clip-path="url(#clip0_3375_6164)">
<rect width="24" height="24" fill="white"/>
<path d="M12.0005 22C10.1672 22 8.48382 21.5583 6.95049 20.675C5.41716 19.7917 4.20882 18.5833 3.32549 17.05C2.44216 15.5167 2.00049 13.8333 2.00049 12C2.00049 10.1667 2.44216 8.48333 3.32549 6.95C4.20882 5.41667 5.41716 4.20833 6.95049 3.325C8.48382 2.44167 10.1672 2 12.0005 2C13.8338 2 15.5172 2.44167 17.0505 3.325C18.5838 4.20833 19.7922 5.41667 20.6755 6.95C21.5588 8.48333 22.0005 10.1667 22.0005 12C22.0005 13.8333 21.5588 15.5167 20.6755 17.05C19.7922 18.5833 18.5838 19.7917 17.0505 20.675C15.5172 21.5583 13.8338 22 12.0005 22ZM12.0005 19.075C13.3005 19.075 14.4838 18.7667 15.5505 18.15C16.6338 17.5167 17.4838 16.6583 18.1005 15.575C18.7172 14.4917 19.0255 13.3 19.0255 12C19.0255 10.7 18.7172 9.50833 18.1005 8.425C17.4838 7.34167 16.6338 6.49167 15.5505 5.875C14.4838 5.24167 13.3005 4.925 12.0005 4.925C10.7005 4.925 9.50882 5.24167 8.42549 5.875C7.35882 6.49167 6.51716 7.34167 5.90049 8.425C5.28382 9.50833 4.97549 10.7 4.97549 12C4.97549 13.3 5.28382 14.4917 5.90049 15.575C6.51716 16.6583 7.35882 17.5167 8.42549 18.15C9.50882 18.7667 10.7005 19.075 12.0005 19.075ZM12.0255 17C10.6922 17 9.65049 16.575 8.90049 15.725C8.15049 14.875 7.77549 13.6167 7.77549 11.95C7.77549 10.3 8.15049 9.05 8.90049 8.2C9.66716 7.35 10.7088 6.925 12.0255 6.925C13.3422 6.925 14.3672 7.35 15.1005 8.2C15.8338 9.05 16.2005 10.3 16.2005 11.95C16.2005 13.6167 15.8255 14.875 15.0755 15.725C14.3422 16.575 13.3255 17 12.0255 17ZM12.0255 14.575C12.5088 14.575 12.8672 14.3833 13.1005 14C13.3505 13.6 13.4755 12.9167 13.4755 11.95C13.4755 11 13.3505 10.325 13.1005 9.925C12.8505 9.525 12.4922 9.325 12.0255 9.325C11.5255 9.325 11.1422 9.525 10.8755 9.925C10.6255 10.325 10.5005 11 10.5005 11.95C10.5005 12.9167 10.6255 13.6 10.8755 14C11.1255 14.3833 11.5088 14.575 12.0255 14.575Z" fill="black"/>
</g>
<defs>
<clipPath id="clip0_3375_6164">
<rect width="24" height="24" fill="white"/>
</clipPath>
</defs>
</svg>
