<svg width="24" height="24" viewBox="0 0 24 24" fill="none" xmlns="http://www.w3.org/2000/svg">
<g clip-path="url(#clip0_3233_6347)">
<rect width="24" height="24" fill="white"/>
<path d="M6.50049 21C5.86716 21 5.27549 20.85 4.72549 20.55C4.19216 20.2333 3.76716 19.8083 3.45049 19.275C3.15049 18.725 3.00049 18.1333 3.00049 17.5V6.5C3.00049 5.85 3.15049 5.25833 3.45049 4.725C3.76716 4.19167 4.19216 3.775 4.72549 3.475C5.27549 3.15833 5.86716 3 6.50049 3H17.5005C18.1505 3 18.7422 3.15833 19.2755 3.475C19.8088 3.775 20.2255 4.19167 20.5255 4.725C20.8422 5.25833 21.0005 5.85 21.0005 6.5V17.5C21.0005 18.1333 20.8422 18.725 20.5255 19.275C20.2255 19.8083 19.8088 20.2333 19.2755 20.55C18.7422 20.85 18.1505 21 17.5005 21H6.50049ZM17.5005 20.525C18.3338 20.525 19.0422 20.2333 19.6255 19.65C20.2088 19.0667 20.5005 18.35 20.5005 17.5V6.5C20.5005 5.65 20.2088 4.93333 19.6255 4.35C19.0422 3.76667 18.3338 3.475 17.5005 3.475H6.50049C5.66716 3.475 4.95882 3.76667 4.37549 4.35C3.79216 4.93333 3.50049 5.65 3.50049 6.5V17.5C3.50049 18.35 3.79216 19.0667 4.37549 19.65C4.95882 20.2333 5.66716 20.525 6.50049 20.525H17.5005ZM11.9755 17C10.8422 17 9.95882 16.5667 9.32549 15.7C8.70882 14.8333 8.40049 13.5917 8.40049 11.975C8.40049 10.375 8.70882 9.13333 9.32549 8.25C9.95882 7.36667 10.8422 6.925 11.9755 6.925C13.0922 6.925 13.9672 7.36667 14.6005 8.25C15.2338 9.13333 15.5505 10.375 15.5505 11.975C15.5505 13.575 15.2338 14.8167 14.6005 15.7C13.9672 16.5667 13.0922 17 11.9755 17ZM11.9755 16.525C12.9588 16.525 13.7172 16.1333 14.2505 15.35C14.7838 14.55 15.0505 13.425 15.0505 11.975C15.0505 10.525 14.7755 9.4 14.2255 8.6C13.6922 7.8 12.9422 7.4 11.9755 7.4C10.9922 7.4 10.2338 7.80833 9.70049 8.625C9.16716 9.425 8.90049 10.5417 8.90049 11.975C8.90049 13.4417 9.15882 14.5667 9.67549 15.35C10.2088 16.1333 10.9755 16.525 11.9755 16.525Z" fill="black"/>
</g>
<defs>
<clipPath id="clip0_3233_6347">
<rect width="24" height="24" fill="white"/>
</clipPath>
</defs>
</svg>
