<svg width="24" height="24" viewBox="0 0 24 24" fill="none" xmlns="http://www.w3.org/2000/svg">
<g clip-path="url(#clip0_3254_20227)">
<rect width="24" height="24" fill="white"/>
<path d="M6.67549 21C5.99216 21 5.36716 20.8417 4.80049 20.525C4.25049 20.1917 3.80882 19.75 3.47549 19.2C3.15882 18.6333 3.00049 18.0083 3.00049 17.325V6.675C3.00049 5.99167 3.15882 5.36667 3.47549 4.8C3.80882 4.23333 4.25049 3.79167 4.80049 3.475C5.36716 3.15833 5.99216 3 6.67549 3H17.3255C18.0088 3 18.6338 3.15833 19.2005 3.475C19.7672 3.79167 20.2088 4.23333 20.5255 4.8C20.8422 5.36667 21.0005 5.99167 21.0005 6.675V17.325C21.0005 18.0083 20.8422 18.6333 20.5255 19.2C20.2088 19.75 19.7672 20.1917 19.2005 20.525C18.6338 20.8417 18.0088 21 17.3255 21H6.67549ZM17.3255 20.075C18.0755 20.075 18.7088 19.8083 19.2255 19.275C19.7588 18.7417 20.0255 18.0917 20.0255 17.325V6.675C20.0255 5.90833 19.7588 5.25833 19.2255 4.725C18.7088 4.19167 18.0755 3.925 17.3255 3.925H6.67549C5.92549 3.925 5.28382 4.19167 4.75049 4.725C4.23382 5.25833 3.97549 5.90833 3.97549 6.675V17.325C3.97549 18.0917 4.23382 18.7417 4.75049 19.275C5.28382 19.8083 5.92549 20.075 6.67549 20.075H17.3255ZM11.9755 17C10.8088 17 9.90049 16.5667 9.25049 15.7C8.60049 14.8167 8.27549 13.5667 8.27549 11.95C8.27549 10.35 8.60049 9.11667 9.25049 8.25C9.90049 7.36667 10.8088 6.925 11.9755 6.925C13.1422 6.925 14.0505 7.36667 14.7005 8.25C15.3505 9.11667 15.6755 10.35 15.6755 11.95C15.6755 13.5667 15.3505 14.8167 14.7005 15.7C14.0505 16.5667 13.1422 17 11.9755 17ZM11.9755 16.125C12.8588 16.125 13.5338 15.7667 14.0005 15.05C14.4838 14.3333 14.7255 13.3 14.7255 11.95C14.7255 10.6167 14.4838 9.59167 14.0005 8.875C13.5172 8.15833 12.8422 7.8 11.9755 7.8C11.1088 7.8 10.4338 8.16667 9.95049 8.9C9.48382 9.61667 9.25049 10.6333 9.25049 11.95C9.25049 13.3167 9.48382 14.3583 9.95049 15.075C10.4172 15.775 11.0922 16.125 11.9755 16.125Z" fill="black"/>
</g>
<defs>
<clipPath id="clip0_3254_20227">
<rect width="24" height="24" fill="white"/>
</clipPath>
</defs>
</svg>
