<svg width="24" height="24" viewBox="0 0 24 24" fill="none" xmlns="http://www.w3.org/2000/svg">
<g clip-path="url(#clip0_3375_6166)">
<rect width="24" height="24" fill="white"/>
<path d="M12.0005 22C10.1672 22 8.48382 21.5583 6.95049 20.675C5.41716 19.7917 4.20882 18.5833 3.32549 17.05C2.44216 15.5167 2.00049 13.8333 2.00049 12C2.00049 10.1667 2.44216 8.48333 3.32549 6.95C4.20882 5.41667 5.41716 4.20833 6.95049 3.325C8.48382 2.44167 10.1672 2 12.0005 2C13.8338 2 15.5172 2.44167 17.0505 3.325C18.5838 4.20833 19.7922 5.41667 20.6755 6.95C21.5588 8.48333 22.0005 10.1667 22.0005 12C22.0005 13.8333 21.5588 15.5167 20.6755 17.05C19.7922 18.5833 18.5838 19.7917 17.0505 20.675C15.5172 21.5583 13.8338 22 12.0005 22ZM12.0005 18.55C13.2005 18.55 14.2922 18.2583 15.2755 17.675C16.2755 17.0917 17.0588 16.3 17.6255 15.3C18.2088 14.3 18.5005 13.2 18.5005 12C18.5005 10.8 18.2088 9.7 17.6255 8.7C17.0588 7.7 16.2755 6.90833 15.2755 6.325C14.2922 5.74167 13.2005 5.45 12.0005 5.45C10.8005 5.45 9.70049 5.74167 8.70049 6.325C7.71716 6.90833 6.93382 7.7 6.35049 8.7C5.78382 9.7 5.50049 10.8 5.50049 12C5.50049 13.2 5.78382 14.3 6.35049 15.3C6.93382 16.3 7.71716 17.0917 8.70049 17.675C9.70049 18.2583 10.8005 18.55 12.0005 18.55ZM12.0505 17C10.6672 17 9.58382 16.5833 8.80049 15.75C8.03382 14.9167 7.65049 13.6583 7.65049 11.975C7.65049 10.3083 8.04216 9.05 8.82549 8.2C9.60882 7.35 10.6838 6.925 12.0505 6.925C13.4005 6.925 14.4505 7.35 15.2005 8.2C15.9672 9.03333 16.3505 10.2917 16.3505 11.975C16.3505 13.6583 15.9672 14.9167 15.2005 15.75C14.4338 16.5833 13.3838 17 12.0505 17ZM12.0505 14.225C12.4338 14.225 12.7172 14.0667 12.9005 13.75C13.1005 13.4333 13.2005 12.8417 13.2005 11.975C13.2005 11.1083 13.1005 10.5167 12.9005 10.2C12.7005 9.86667 12.4172 9.7 12.0505 9.7C11.6338 9.7 11.3172 9.86667 11.1005 10.2C10.9005 10.5167 10.8005 11.1083 10.8005 11.975C10.8005 12.8583 10.9005 13.4583 11.1005 13.775C11.3005 14.075 11.6172 14.225 12.0505 14.225Z" fill="black"/>
</g>
<defs>
<clipPath id="clip0_3375_6166">
<rect width="24" height="24" fill="white"/>
</clipPath>
</defs>
</svg>
