<svg width="24" height="24" viewBox="0 0 24 24" fill="none" xmlns="http://www.w3.org/2000/svg">
<g clip-path="url(#clip0_3375_6197)">
<rect width="24" height="24" fill="white"/>
<path d="M7.37549 21C6.57549 21 5.84216 20.8083 5.17549 20.425C4.50882 20.025 3.97549 19.4917 3.57549 18.825C3.19216 18.1583 3.00049 17.425 3.00049 16.625V7.375C3.00049 6.575 3.19216 5.84167 3.57549 5.175C3.97549 4.50833 4.50882 3.98333 5.17549 3.6C5.84216 3.2 6.57549 3 7.37549 3H16.4255C17.2755 3 18.0505 3.2 18.7505 3.6C19.4505 3.98333 20.0005 4.50833 20.4005 5.175C20.8005 5.84167 21.0005 6.575 21.0005 7.375V16.625C21.0005 17.425 20.8005 18.1583 20.4005 18.825C20.0172 19.4917 19.4922 20.025 18.8255 20.425C18.1588 20.8083 17.4255 21 16.6255 21H7.37549ZM16.6255 18.05C17.0088 18.05 17.3338 17.9167 17.6005 17.65C17.8672 17.3667 18.0005 17.025 18.0005 16.625V7.375C18.0005 6.975 17.8672 6.64167 17.6005 6.375C17.3338 6.09167 17.0088 5.95 16.6255 5.95H7.37549C6.99216 5.95 6.65882 6.09167 6.37549 6.375C6.10882 6.64167 5.97549 6.975 5.97549 7.375V16.625C5.97549 17.025 6.10882 17.3667 6.37549 17.65C6.65882 17.9167 6.99216 18.05 7.37549 18.05H16.6255ZM12.0255 17C10.6922 17 9.65049 16.575 8.90049 15.725C8.15049 14.875 7.77549 13.6167 7.77549 11.95C7.77549 10.3 8.15049 9.05 8.90049 8.2C9.66716 7.33333 10.7088 6.9 12.0255 6.9C13.3422 6.9 14.3672 7.33333 15.1005 8.2C15.8338 9.05 16.2005 10.3 16.2005 11.95C16.2005 13.6167 15.8255 14.875 15.0755 15.725C14.3422 16.575 13.3255 17 12.0255 17ZM12.0255 14.575C12.5088 14.575 12.8672 14.3833 13.1005 14C13.3505 13.6 13.4755 12.9167 13.4755 11.95C13.4755 11 13.3505 10.325 13.1005 9.925C12.8505 9.50833 12.4922 9.3 12.0255 9.3C11.5255 9.3 11.1422 9.50833 10.8755 9.925C10.6255 10.325 10.5005 11 10.5005 11.95C10.5005 12.9167 10.6255 13.6 10.8755 14C11.1255 14.3833 11.5088 14.575 12.0255 14.575Z" fill="black"/>
</g>
<defs>
<clipPath id="clip0_3375_6197">
<rect width="24" height="24" fill="white"/>
</clipPath>
</defs>
</svg>
