<svg width="24" height="24" viewBox="0 0 24 24" fill="none" xmlns="http://www.w3.org/2000/svg">
<g clip-path="url(#clip0_3375_6211)">
<rect width="24" height="24" fill="white"/>
<path d="M8.82549 15.875C9.60882 16.7417 10.6922 17.175 12.0755 17.175C13.4088 17.175 14.4588 16.7417 15.2255 15.875C16.0088 14.9917 16.4005 13.6917 16.4005 11.975C16.4005 10.2583 16.0172 8.95833 15.2505 8.075C14.4838 7.19167 13.4172 6.75 12.0505 6.75C10.7005 6.75 9.63382 7.19167 8.85049 8.075C8.06716 8.95833 7.67549 10.2583 7.67549 11.975C7.67549 13.6917 8.05882 14.9917 8.82549 15.875ZM13.1755 14.075C12.9255 14.475 12.5588 14.675 12.0755 14.675C11.5588 14.675 11.1672 14.475 10.9005 14.075C10.6338 13.675 10.5005 12.975 10.5005 11.975C10.5005 10.9917 10.6338 10.2917 10.9005 9.875C11.1672 9.45833 11.5588 9.25 12.0755 9.25C12.5588 9.25 12.9255 9.45833 13.1755 9.875C13.4422 10.2917 13.5755 10.9833 13.5755 11.95C13.5755 12.95 13.4422 13.6583 13.1755 14.075ZM19.2505 20.55C18.7172 20.85 18.1338 21 17.5005 21H6.50049C5.86716 21 5.27549 20.85 4.72549 20.55C4.19216 20.2333 3.76716 19.8083 3.45049 19.275C3.15049 18.725 3.00049 18.1333 3.00049 17.5V6.5C3.00049 5.86667 3.15049 5.28333 3.45049 4.75C3.76716 4.2 4.19216 3.775 4.72549 3.475C5.27549 3.15833 5.86716 3 6.50049 3H17.5005C18.1338 3 18.7172 3.15833 19.2505 3.475C19.8005 3.775 20.2255 4.2 20.5255 4.75C20.8422 5.28333 21.0005 5.86667 21.0005 6.5V17.5C21.0005 18.1333 20.8422 18.725 20.5255 19.275C20.2255 19.8083 19.8005 20.2333 19.2505 20.55Z" fill="black"/>
</g>
<defs>
<clipPath id="clip0_3375_6211">
<rect width="24" height="24" fill="white"/>
</clipPath>
</defs>
</svg>
