<svg width="24" height="24" viewBox="0 0 24 24" fill="none" xmlns="http://www.w3.org/2000/svg">
<g clip-path="url(#clip0_3233_6347)">
<rect width="24" height="24" fill="white"/>
<path d="M6.50049 21C5.86716 21 5.27549 20.85 4.72549 20.55C4.19216 20.2333 3.76716 19.8083 3.45049 19.275C3.15049 18.725 3.00049 18.1333 3.00049 17.5V6.5C3.00049 5.85 3.15049 5.25833 3.45049 4.725C3.76716 4.19167 4.19216 3.775 4.72549 3.475C5.27549 3.15833 5.86716 3 6.50049 3H17.5005C18.1505 3 18.7422 3.15833 19.2755 3.475C19.8088 3.775 20.2255 4.19167 20.5255 4.725C20.8422 5.25833 21.0005 5.85 21.0005 6.5V17.5C21.0005 18.1333 20.8422 18.725 20.5255 19.275C20.2255 19.8083 19.8088 20.2333 19.2755 20.55C18.7422 20.85 18.1505 21 17.5005 21H6.50049ZM17.5005 20.525C18.3338 20.525 19.0422 20.2333 19.6255 19.65C20.2088 19.0667 20.5005 18.35 20.5005 17.5V6.5C20.5005 5.65 20.2088 4.93333 19.6255 4.35C19.0422 3.76667 18.3338 3.475 17.5005 3.475H6.50049C5.66716 3.475 4.95882 3.76667 4.37549 4.35C3.79216 4.93333 3.50049 5.65 3.50049 6.5V17.5C3.50049 18.35 3.79216 19.0667 4.37549 19.65C4.95882 20.2333 5.66716 20.525 6.50049 20.525H17.5005ZM11.9755 16.975C10.6588 16.975 9.60049 16.525 8.80049 15.625C8.01716 14.725 7.62549 13.5083 7.62549 11.975C7.62549 10.4583 8.01716 9.25 8.80049 8.35C9.60049 7.43333 10.6588 6.975 11.9755 6.975C13.2922 6.975 14.3505 7.43333 15.1505 8.35C15.9505 9.25 16.3505 10.4667 16.3505 12C16.3505 13.5333 15.9505 14.75 15.1505 15.65C14.3505 16.5333 13.2922 16.975 11.9755 16.975ZM12.0005 16.5C13.1672 16.5 14.1005 16.1 14.8005 15.3C15.5005 14.4833 15.8505 13.3833 15.8505 12C15.8505 10.6 15.5005 9.49167 14.8005 8.675C14.1005 7.85833 13.1588 7.45 11.9755 7.45C10.7922 7.45 9.85049 7.85833 9.15049 8.675C8.46716 9.49167 8.12549 10.6 8.12549 12C8.12549 13.3833 8.47549 14.4833 9.17549 15.3C9.87549 16.1 10.8172 16.5 12.0005 16.5Z" fill="black"/>
</g>
<defs>
<clipPath id="clip0_3233_6347">
<rect width="24" height="24" fill="white"/>
</clipPath>
</defs>
</svg>
