<svg width="24" height="24" viewBox="0 0 24 24" fill="none" xmlns="http://www.w3.org/2000/svg">
<g clip-path="url(#clip0_3234_11068)">
<rect width="24" height="24" fill="white"/>
<path d="M12.0005 22C10.1672 22 8.48382 21.5583 6.95049 20.675C5.41716 19.7917 4.20882 18.5833 3.32549 17.05C2.44216 15.5167 2.00049 13.8333 2.00049 12C2.00049 10.1667 2.44216 8.48333 3.32549 6.95C4.20882 5.41667 5.41716 4.20833 6.95049 3.325C8.48382 2.44167 10.1672 2 12.0005 2C13.8338 2 15.5172 2.44167 17.0505 3.325C18.5838 4.20833 19.7922 5.41667 20.6755 6.95C21.5588 8.48333 22.0005 10.1667 22.0005 12C22.0005 13.8333 21.5588 15.5167 20.6755 17.05C19.7922 18.5833 18.5838 19.7917 17.0505 20.675C15.5172 21.5583 13.8338 22 12.0005 22ZM12.0005 18.55C13.2005 18.55 14.2922 18.2583 15.2755 17.675C16.2755 17.0917 17.0588 16.3 17.6255 15.3C18.2088 14.3 18.5005 13.2 18.5005 12C18.5005 10.8 18.2088 9.7 17.6255 8.7C17.0588 7.7 16.2755 6.90833 15.2755 6.325C14.2922 5.74167 13.2005 5.45 12.0005 5.45C10.8005 5.45 9.70049 5.74167 8.70049 6.325C7.71716 6.90833 6.93382 7.7 6.35049 8.7C5.78382 9.7 5.50049 10.8 5.50049 12C5.50049 13.2 5.78382 14.3 6.35049 15.3C6.93382 16.3 7.71716 17.0917 8.70049 17.675C9.70049 18.2583 10.8005 18.55 12.0005 18.55ZM8.22549 13.5L12.0505 11.1L12.2255 10.975C12.4255 10.825 12.5755 10.675 12.6755 10.525C12.7922 10.375 12.8505 10.2167 12.8505 10.05C12.8505 9.83333 12.7422 9.65833 12.5255 9.525C12.3088 9.375 12.0255 9.3 11.6755 9.3C11.3088 9.3 10.9755 9.4 10.6755 9.6C10.3755 9.78333 10.1005 10.0417 9.85049 10.375L7.65049 8.75C8.15049 8 8.75049 7.44167 9.45049 7.075C10.1505 6.69167 10.9505 6.5 11.8505 6.5C13.1172 6.5 14.1255 6.83333 14.8755 7.5C15.6255 8.15 16.0005 8.96667 16.0005 9.95C16.0005 10.3 15.9338 10.65 15.8005 11C15.6672 11.35 15.4255 11.7167 15.0755 12.1C14.7255 12.4667 14.2255 12.825 13.5755 13.175L12.6755 13.675H16.1505V16.425H8.22549V13.5Z" fill="black"/>
</g>
<defs>
<clipPath id="clip0_3234_11068">
<rect width="24" height="24" fill="white"/>
</clipPath>
</defs>
</svg>
