<svg width="24" height="24" viewBox="0 0 24 24" fill="none" xmlns="http://www.w3.org/2000/svg">
<g clip-path="url(#clip0_3254_19502)">
<rect width="24" height="24" fill="white"/>
<path d="M7.17549 21C6.40882 21 5.70049 20.8167 5.05049 20.45C4.41716 20.0833 3.91716 19.5833 3.55049 18.95C3.18382 18.3 3.00049 17.5917 3.00049 16.825V7.175C3.00049 6.40833 3.18382 5.70833 3.55049 5.075C3.91716 4.425 4.41716 3.91667 5.05049 3.55C5.70049 3.18333 6.40882 3 7.17549 3H16.7505C17.5338 3 18.2505 3.18333 18.9005 3.55C19.5505 3.91667 20.0588 4.425 20.4255 5.075C20.8088 5.70833 21.0005 6.40833 21.0005 7.175V16.825C21.0005 17.5917 20.8172 18.3 20.4505 18.95C20.0838 19.5833 19.5755 20.0833 18.9255 20.45C18.2922 20.8167 17.5922 21 16.8255 21H7.17549ZM16.8255 18.625C17.3255 18.625 17.7422 18.4583 18.0755 18.125C18.4088 17.775 18.5755 17.3417 18.5755 16.825V7.15C18.5755 6.65 18.4088 6.23333 18.0755 5.9C17.7422 5.55 17.3255 5.375 16.8255 5.375H7.17549C6.67549 5.375 6.25882 5.55 5.92549 5.9C5.59216 6.23333 5.42549 6.65833 5.42549 7.175V16.825C5.42549 17.3417 5.59216 17.775 5.92549 18.125C6.25882 18.4583 6.67549 18.625 7.17549 18.625H16.8255ZM8.37549 14.725L12.1005 11.825L12.3505 11.6C12.6505 11.35 12.8838 11.1083 13.0505 10.875C13.2172 10.6417 13.3005 10.3833 13.3005 10.1C13.3005 9.73333 13.1588 9.43333 12.8755 9.2C12.5922 8.95 12.2255 8.825 11.7755 8.825C11.3255 8.825 10.9422 8.95 10.6255 9.2C10.3255 9.43333 10.0922 9.775 9.92549 10.225L8.07549 9.45C8.35882 8.6 8.82549 7.95 9.47549 7.5C10.1255 7.03333 10.9172 6.8 11.8505 6.8C12.9672 6.8 13.8672 7.10833 14.5505 7.725C15.2338 8.34167 15.5755 9.10833 15.5755 10.025C15.5755 10.4417 15.4922 10.8417 15.3255 11.225C15.1755 11.6083 14.9338 11.9833 14.6005 12.35C14.2672 12.7167 13.8255 13.0833 13.2755 13.45L11.6255 14.7H15.7505V16.725H8.37549V14.725Z" fill="black"/>
</g>
<defs>
<clipPath id="clip0_3254_19502">
<rect width="24" height="24" fill="white"/>
</clipPath>
</defs>
</svg>
