<svg width="24" height="24" viewBox="0 0 24 24" fill="none" xmlns="http://www.w3.org/2000/svg">
<g clip-path="url(#clip0_3233_6351)">
<rect width="24" height="24" fill="white"/>
<path d="M6.50049 21C5.86716 21 5.27549 20.85 4.72549 20.55C4.19216 20.2333 3.76716 19.8083 3.45049 19.275C3.15049 18.725 3.00049 18.1333 3.00049 17.5V6.5C3.00049 5.85 3.15049 5.25833 3.45049 4.725C3.76716 4.19167 4.19216 3.775 4.72549 3.475C5.27549 3.15833 5.86716 3 6.50049 3H17.5005C18.1505 3 18.7422 3.15833 19.2755 3.475C19.8088 3.775 20.2255 4.19167 20.5255 4.725C20.8422 5.25833 21.0005 5.85 21.0005 6.5V17.5C21.0005 18.1333 20.8422 18.725 20.5255 19.275C20.2255 19.8083 19.8088 20.2333 19.2755 20.55C18.7422 20.85 18.1505 21 17.5005 21H6.50049ZM17.5005 20.525C18.3338 20.525 19.0422 20.2333 19.6255 19.65C20.2088 19.0667 20.5005 18.35 20.5005 17.5V6.5C20.5005 5.65 20.2088 4.93333 19.6255 4.35C19.0422 3.76667 18.3338 3.475 17.5005 3.475H6.50049C5.66716 3.475 4.95882 3.76667 4.37549 4.35C3.79216 4.93333 3.50049 5.65 3.50049 6.5V17.5C3.50049 18.35 3.79216 19.0667 4.37549 19.65C4.95882 20.2333 5.66716 20.525 6.50049 20.525H17.5005ZM8.92549 16.25L12.4005 12.95L12.8005 12.575C13.4005 12.0083 13.8588 11.5083 14.1755 11.075C14.4922 10.6417 14.6505 10.15 14.6505 9.6C14.6505 8.93333 14.4005 8.375 13.9005 7.925C13.4005 7.475 12.7672 7.25 12.0005 7.25C11.3172 7.25 10.7338 7.44167 10.2505 7.825C9.78382 8.19167 9.47549 8.75 9.32549 9.5L8.87549 9.4C9.02549 8.55 9.37549 7.9 9.92549 7.45C10.4922 7 11.1922 6.775 12.0255 6.775C12.9255 6.775 13.6672 7.04167 14.2505 7.575C14.8505 8.10833 15.1505 8.78333 15.1505 9.6C15.1505 10.0667 15.0338 10.5167 14.8005 10.95C14.5672 11.3667 14.3088 11.725 14.0255 12.025C13.7422 12.325 13.2838 12.775 12.6505 13.375L9.62549 16.225H15.3005V16.7H8.92549V16.25Z" fill="black"/>
</g>
<defs>
<clipPath id="clip0_3233_6351">
<rect width="24" height="24" fill="white"/>
</clipPath>
</defs>
</svg>
