<svg width="24" height="24" viewBox="0 0 24 24" fill="none" xmlns="http://www.w3.org/2000/svg">
<g clip-path="url(#clip0_3254_18488)">
<rect width="24" height="24" fill="white"/>
<path d="M12.0005 22C10.1672 22 8.48382 21.5583 6.95049 20.675C5.41716 19.7917 4.20882 18.5833 3.32549 17.05C2.44216 15.5167 2.00049 13.8333 2.00049 12C2.00049 10.1667 2.44216 8.48333 3.32549 6.95C4.20882 5.41667 5.41716 4.20833 6.95049 3.325C8.48382 2.44167 10.1672 2 12.0005 2C13.8338 2 15.5172 2.44167 17.0505 3.325C18.5838 4.20833 19.7922 5.41667 20.6755 6.95C21.5588 8.48333 22.0005 10.1667 22.0005 12C22.0005 13.8333 21.5588 15.5167 20.6755 17.05C19.7922 18.5833 18.5838 19.7917 17.0505 20.675C15.5172 21.5583 13.8338 22 12.0005 22ZM12.0005 19.575C13.4005 19.575 14.6672 19.2417 15.8005 18.575C16.9505 17.9083 17.8588 17 18.5255 15.85C19.1922 14.6833 19.5255 13.4 19.5255 12C19.5255 10.6 19.1922 9.325 18.5255 8.175C17.8588 7.00833 16.9505 6.09167 15.8005 5.425C14.6672 4.75833 13.4005 4.425 12.0005 4.425C10.6005 4.425 9.32549 4.75833 8.17549 5.425C7.04216 6.09167 6.14216 7.00833 5.47549 8.175C4.80882 9.325 4.47549 10.6 4.47549 12C4.47549 13.4 4.80882 14.6833 5.47549 15.85C6.14216 17 7.04216 17.9083 8.17549 18.575C9.32549 19.2417 10.6005 19.575 12.0005 19.575ZM8.45049 14.525L12.1755 11.6L12.4255 11.4C12.7088 11.15 12.9338 10.9083 13.1005 10.675C13.2672 10.425 13.3505 10.1667 13.3505 9.9C13.3505 9.53333 13.2088 9.23333 12.9255 9C12.6422 8.75 12.2838 8.625 11.8505 8.625C11.4005 8.625 11.0172 8.75 10.7005 9C10.4005 9.23333 10.1672 9.575 10.0005 10.025L8.15049 9.25C8.43382 8.4 8.90049 7.75 9.55049 7.3C10.2005 6.83333 10.9922 6.6 11.9255 6.6C13.0422 6.6 13.9422 6.90833 14.6255 7.525C15.3088 8.14167 15.6505 8.9 15.6505 9.8C15.6505 10.2333 15.5672 10.6417 15.4005 11.025C15.2505 11.4083 15.0088 11.7833 14.6755 12.15C14.3422 12.5167 13.9005 12.8833 13.3505 13.25L11.7005 14.5H15.8255V16.525H8.45049V14.525Z" fill="black"/>
</g>
<defs>
<clipPath id="clip0_3254_18488">
<rect width="24" height="24" fill="white"/>
</clipPath>
</defs>
</svg>
