<svg width="24" height="24" viewBox="0 0 24 24" fill="none" xmlns="http://www.w3.org/2000/svg">
<g clip-path="url(#clip0_3375_6271)">
<rect width="24" height="24" fill="white"/>
<path d="M8.75 15.4V16.575H15.6V15.3H10.75L13.1 13.275C13.65 12.825 14.075 12.4333 14.375 12.1C14.6917 11.75 14.9417 11.375 15.125 10.975C15.325 10.5583 15.425 10.1167 15.425 9.65C15.425 8.8 15.1083 8.09167 14.475 7.525C13.8417 6.94167 13.0333 6.65 12.05 6.65C11.1333 6.65 10.3667 6.89167 9.75 7.375C9.15 7.85833 8.775 8.54167 8.625 9.425L9.875 9.7C10.0083 9.11667 10.2583 8.675 10.625 8.375C10.9917 8.05833 11.45 7.9 12 7.9C12.6 7.9 13.0833 8.075 13.45 8.425C13.8333 8.775 14.025 9.2 14.025 9.7C14.025 10.1167 13.9083 10.4917 13.675 10.825C13.4417 11.1417 13.1083 11.5 12.675 11.9L12.35 12.2L8.75 15.4ZM19.25 20.55C18.7167 20.85 18.1333 21 17.5 21H6.5C5.86667 21 5.275 20.85 4.725 20.55C4.19167 20.2333 3.76667 19.8083 3.45 19.275C3.15 18.725 3 18.1333 3 17.5V6.5C3 5.86667 3.15 5.28333 3.45 4.75C3.76667 4.2 4.19167 3.775 4.725 3.475C5.275 3.15833 5.86667 3 6.5 3H17.5C18.1333 3 18.7167 3.15833 19.25 3.475C19.8 3.775 20.225 4.2 20.525 4.75C20.8417 5.28333 21 5.86667 21 6.5V17.5C21 18.1333 20.8417 18.725 20.525 19.275C20.225 19.8083 19.8 20.2333 19.25 20.55Z" fill="black"/>
</g>
<defs>
<clipPath id="clip0_3375_6271">
<rect width="24" height="24" fill="white"/>
</clipPath>
</defs>
</svg>
