<svg width="24" height="24" viewBox="0 0 24 24" fill="none" xmlns="http://www.w3.org/2000/svg">
<g clip-path="url(#clip0_3375_6277)">
<rect width="24" height="24" fill="white"/>
<path d="M8.225 14.175V16.75H16.15V14.25H12.225L13.55 13.375C14.15 12.9917 14.6333 12.6167 15 12.25C15.3667 11.8667 15.6167 11.4833 15.75 11.1C15.9 10.7167 15.975 10.325 15.975 9.925C15.975 8.94167 15.6 8.125 14.85 7.475C14.1167 6.80833 13.1333 6.475 11.9 6.475C10.95 6.475 10.125 6.69167 9.425 7.125C8.725 7.55833 8.175 8.19167 7.775 9.025L9.875 10.275C10.0917 9.875 10.3583 9.56667 10.675 9.35C10.9917 9.11667 11.3583 9 11.775 9C12.175 9 12.5 9.1 12.75 9.3C13.0167 9.48333 13.15 9.725 13.15 10.025C13.15 10.2583 13.0833 10.475 12.95 10.675C12.8167 10.875 12.625 11.075 12.375 11.275L12.15 11.45L8.225 14.175ZM19.25 20.55C18.7167 20.85 18.1333 21 17.5 21H6.5C5.86667 21 5.275 20.85 4.725 20.55C4.19167 20.2333 3.76667 19.8083 3.45 19.275C3.15 18.725 3 18.1333 3 17.5V6.5C3 5.86667 3.15 5.28333 3.45 4.75C3.76667 4.2 4.19167 3.775 4.725 3.475C5.275 3.15833 5.86667 3 6.5 3H17.5C18.1333 3 18.7167 3.15833 19.25 3.475C19.8 3.775 20.225 4.2 20.525 4.75C20.8417 5.28333 21 5.86667 21 6.5V17.5C21 18.1333 20.8417 18.725 20.525 19.275C20.225 19.8083 19.8 20.2333 19.25 20.55Z" fill="black"/>
</g>
<defs>
<clipPath id="clip0_3375_6277">
<rect width="24" height="24" fill="white"/>
</clipPath>
</defs>
</svg>
