<svg width="24" height="24" viewBox="0 0 24 24" fill="none" xmlns="http://www.w3.org/2000/svg">
<g clip-path="url(#clip0_3375_6273)">
<rect width="24" height="24" fill="white"/>
<path d="M8.7 15.05V16.575H15.775V14.9H11.35L13.375 13.3C13.875 12.9167 14.2833 12.55 14.6 12.2C14.9167 11.8333 15.1583 11.45 15.325 11.05C15.5083 10.65 15.6 10.2167 15.6 9.75C15.6 8.88333 15.275 8.15 14.625 7.55C13.975 6.95 13.1333 6.65 12.1 6.65C11.1333 6.65 10.3333 6.9 9.7 7.4C9.08333 7.9 8.69167 8.6 8.525 9.5L10.2 9.85C10.3167 9.35 10.5333 8.96667 10.85 8.7C11.1667 8.43333 11.5667 8.3 12.05 8.3C12.55 8.3 12.9583 8.45 13.275 8.75C13.5917 9.03333 13.75 9.39167 13.75 9.825C13.75 10.1583 13.65 10.4667 13.45 10.75C13.2667 11.0167 13 11.3083 12.65 11.625L12.375 11.875L8.7 15.05ZM19.25 20.55C18.7167 20.85 18.1333 21 17.5 21H6.5C5.86667 21 5.275 20.85 4.725 20.55C4.19167 20.2333 3.76667 19.8083 3.45 19.275C3.15 18.725 3 18.1333 3 17.5V6.5C3 5.86667 3.15 5.28333 3.45 4.75C3.76667 4.2 4.19167 3.775 4.725 3.475C5.275 3.15833 5.86667 3 6.5 3H17.5C18.1333 3 18.7167 3.15833 19.25 3.475C19.8 3.775 20.225 4.2 20.525 4.75C20.8417 5.28333 21 5.86667 21 6.5V17.5C21 18.1333 20.8417 18.725 20.525 19.275C20.225 19.8083 19.8 20.2333 19.25 20.55Z" fill="black"/>
</g>
<defs>
<clipPath id="clip0_3375_6273">
<rect width="24" height="24" fill="white"/>
</clipPath>
</defs>
</svg>
