<svg width="24" height="24" viewBox="0 0 24 24" fill="none" xmlns="http://www.w3.org/2000/svg">
<g clip-path="url(#clip0_3375_6263)">
<rect width="24" height="24" fill="white"/>
<path d="M7.37549 21C6.57549 21 5.84216 20.8083 5.17549 20.425C4.50882 20.025 3.97549 19.4917 3.57549 18.825C3.19216 18.1583 3.00049 17.425 3.00049 16.625V7.375C3.00049 6.575 3.19216 5.84167 3.57549 5.175C3.97549 4.50833 4.50882 3.98333 5.17549 3.6C5.84216 3.2 6.57549 3 7.37549 3H16.4255C17.2755 3 18.0505 3.2 18.7505 3.6C19.4505 3.98333 20.0005 4.50833 20.4005 5.175C20.8005 5.84167 21.0005 6.575 21.0005 7.375V16.625C21.0005 17.425 20.8005 18.1583 20.4005 18.825C20.0172 19.4917 19.4922 20.025 18.8255 20.425C18.1588 20.8083 17.4255 21 16.6255 21H7.37549ZM16.6255 18.05C17.0088 18.05 17.3338 17.9167 17.6005 17.65C17.8672 17.3667 18.0005 17.025 18.0005 16.625V7.375C18.0005 6.975 17.8672 6.64167 17.6005 6.375C17.3338 6.09167 17.0088 5.95 16.6255 5.95H7.37549C6.99216 5.95 6.65882 6.09167 6.37549 6.375C6.10882 6.64167 5.97549 6.975 5.97549 7.375V16.625C5.97549 17.025 6.10882 17.3667 6.37549 17.65C6.65882 17.9167 6.99216 18.05 7.37549 18.05H16.6255ZM8.25049 14.275L12.0255 11.6L12.2255 11.425C12.4588 11.225 12.6422 11.0333 12.7755 10.85C12.9088 10.65 12.9755 10.4333 12.9755 10.2C12.9755 9.91667 12.8505 9.68333 12.6005 9.5C12.3505 9.3 12.0338 9.2 11.6505 9.2C11.2505 9.2 10.8922 9.30833 10.5755 9.525C10.2755 9.74167 10.0255 10.0417 9.82549 10.425L7.80049 9.225C8.18382 8.425 8.70882 7.81667 9.37549 7.4C10.0588 6.98333 10.8672 6.775 11.8005 6.775C12.9838 6.775 13.9338 7.1 14.6505 7.75C15.3672 8.38333 15.7255 9.175 15.7255 10.125C15.7255 10.5083 15.6505 10.8833 15.5005 11.25C15.3505 11.6167 15.1088 11.9833 14.7755 12.35C14.4422 12.7167 13.9755 13.0917 13.3755 13.475L12.1005 14.325H15.8755V16.725H8.25049V14.275Z" fill="black"/>
</g>
<defs>
<clipPath id="clip0_3375_6263">
<rect width="24" height="24" fill="white"/>
</clipPath>
</defs>
</svg>
