<svg width="24" height="24" viewBox="0 0 24 24" fill="none" xmlns="http://www.w3.org/2000/svg">
<g clip-path="url(#clip0_3231_391)">
<rect width="24" height="24" fill="white"/>
<path d="M12.0005 22C10.1672 22 8.48382 21.5583 6.95049 20.675C5.41716 19.7917 4.20882 18.5833 3.32549 17.05C2.44216 15.5167 2.00049 13.8333 2.00049 12C2.00049 10.1667 2.44216 8.48333 3.32549 6.95C4.20882 5.41667 5.41716 4.20833 6.95049 3.325C8.48382 2.44167 10.1672 2 12.0005 2C13.8338 2 15.5172 2.44167 17.0505 3.325C18.5838 4.20833 19.7922 5.41667 20.6755 6.95C21.5588 8.48333 22.0005 10.1667 22.0005 12C22.0005 13.8333 21.5588 15.5167 20.6755 17.05C19.7922 18.5833 18.5838 19.7917 17.0505 20.675C15.5172 21.5583 13.8338 22 12.0005 22ZM12.0005 21.525C13.7505 21.525 15.3505 21.1083 16.8005 20.275C18.2505 19.425 19.3922 18.275 20.2255 16.825C21.0755 15.3583 21.5005 13.75 21.5005 12C21.5005 10.25 21.0755 8.65 20.2255 7.2C19.3922 5.73333 18.2505 4.58333 16.8005 3.75C15.3505 2.9 13.7505 2.475 12.0005 2.475C10.2505 2.475 8.65049 2.9 7.20049 3.75C5.75049 4.58333 4.60049 5.73333 3.75049 7.2C2.91716 8.65 2.50049 10.25 2.50049 12C2.50049 13.75 2.91716 15.3583 3.75049 16.825C4.60049 18.275 5.75049 19.425 7.20049 20.275C8.65049 21.1083 10.2505 21.525 12.0005 21.525ZM8.92549 16.125L12.4005 12.825L12.8005 12.45C13.4005 11.8833 13.8588 11.3833 14.1755 10.95C14.4922 10.5167 14.6505 10.025 14.6505 9.475C14.6505 8.80833 14.4005 8.25 13.9005 7.8C13.4005 7.35 12.7672 7.125 12.0005 7.125C11.3172 7.125 10.7338 7.31667 10.2505 7.7C9.78382 8.06667 9.47549 8.625 9.32549 9.375L8.87549 9.275C9.02549 8.425 9.37549 7.775 9.92549 7.325C10.4922 6.875 11.1922 6.65 12.0255 6.65C12.9255 6.65 13.6672 6.91667 14.2505 7.45C14.8505 7.98333 15.1505 8.65833 15.1505 9.475C15.1505 9.94167 15.0338 10.3917 14.8005 10.825C14.5672 11.2417 14.3088 11.6 14.0255 11.9C13.7422 12.2 13.2838 12.65 12.6505 13.25L9.62549 16.1H15.3005V16.575H8.92549V16.125Z" fill="black"/>
</g>
<defs>
<clipPath id="clip0_3231_391">
<rect width="24" height="24" fill="white"/>
</clipPath>
</defs>
</svg>
