<svg width="24" height="24" viewBox="0 0 24 24" fill="none" xmlns="http://www.w3.org/2000/svg">
<g clip-path="url(#clip0_3254_18490)">
<rect width="24" height="24" fill="white"/>
<path d="M12.0005 22C10.1672 22 8.48382 21.5583 6.95049 20.675C5.41716 19.7917 4.20882 18.5833 3.32549 17.05C2.44216 15.5167 2.00049 13.8333 2.00049 12C2.00049 10.1667 2.44216 8.48333 3.32549 6.95C4.20882 5.41667 5.41716 4.20833 6.95049 3.325C8.48382 2.44167 10.1672 2 12.0005 2C13.8338 2 15.5172 2.44167 17.0505 3.325C18.5838 4.20833 19.7922 5.41667 20.6755 6.95C21.5588 8.48333 22.0005 10.1667 22.0005 12C22.0005 13.8333 21.5588 15.5167 20.6755 17.05C19.7922 18.5833 18.5838 19.7917 17.0505 20.675C15.5172 21.5583 13.8338 22 12.0005 22ZM12.0005 19.075C13.3005 19.075 14.4838 18.7667 15.5505 18.15C16.6338 17.5167 17.4838 16.6583 18.1005 15.575C18.7172 14.4917 19.0255 13.3 19.0255 12C19.0255 10.7 18.7172 9.50833 18.1005 8.425C17.4838 7.34167 16.6338 6.49167 15.5505 5.875C14.4838 5.24167 13.3005 4.925 12.0005 4.925C10.7005 4.925 9.50882 5.24167 8.42549 5.875C7.35882 6.49167 6.51716 7.34167 5.90049 8.425C5.28382 9.50833 4.97549 10.7 4.97549 12C4.97549 13.3 5.28382 14.4917 5.90049 15.575C6.51716 16.6583 7.35882 17.5167 8.42549 18.15C9.50882 18.7667 10.7005 19.075 12.0005 19.075ZM8.35049 14.025L12.1255 11.35L12.3255 11.2C12.5755 10.9833 12.7672 10.7833 12.9005 10.6C13.0338 10.4 13.1005 10.1917 13.1005 9.975C13.1005 9.69167 12.9755 9.45833 12.7255 9.275C12.4755 9.075 12.1505 8.975 11.7505 8.975C11.3505 8.975 10.9922 9.08333 10.6755 9.3C10.3755 9.51667 10.1255 9.81667 9.92549 10.2L7.90049 9C8.28382 8.2 8.80882 7.59167 9.47549 7.175C10.1588 6.75833 10.9672 6.55 11.9005 6.55C13.0838 6.55 14.0338 6.875 14.7505 7.525C15.4672 8.15833 15.8255 8.94167 15.8255 9.875C15.8255 10.275 15.7505 10.6583 15.6005 11.025C15.4505 11.3917 15.2088 11.7583 14.8755 12.125C14.5422 12.4917 14.0755 12.8583 13.4755 13.225L12.2005 14.075H15.9755V16.475H8.35049V14.025Z" fill="black"/>
</g>
<defs>
<clipPath id="clip0_3254_18490">
<rect width="24" height="24" fill="white"/>
</clipPath>
</defs>
</svg>
