<svg width="24" height="24" viewBox="0 0 24 24" fill="none" xmlns="http://www.w3.org/2000/svg">
<g clip-path="url(#clip0_3234_12072)">
<rect width="24" height="24" fill="white"/>
<path d="M6.67549 21C5.99216 21 5.36716 20.8417 4.80049 20.525C4.25049 20.1917 3.80882 19.75 3.47549 19.2C3.15882 18.6333 3.00049 18.0083 3.00049 17.325V6.675C3.00049 5.99167 3.15882 5.36667 3.47549 4.8C3.80882 4.23333 4.25049 3.79167 4.80049 3.475C5.36716 3.15833 5.99216 3 6.67549 3H17.3255C18.0088 3 18.6338 3.15833 19.2005 3.475C19.7672 3.79167 20.2088 4.23333 20.5255 4.8C20.8422 5.36667 21.0005 5.99167 21.0005 6.675V17.325C21.0005 18.0083 20.8422 18.6333 20.5255 19.2C20.2088 19.75 19.7672 20.1917 19.2005 20.525C18.6338 20.8417 18.0088 21 17.3255 21H6.67549ZM17.3255 20.075C18.0755 20.075 18.7088 19.8083 19.2255 19.275C19.7588 18.7417 20.0255 18.0917 20.0255 17.325V6.675C20.0255 5.90833 19.7588 5.25833 19.2255 4.725C18.7088 4.19167 18.0755 3.925 17.3255 3.925H6.67549C5.92549 3.925 5.28382 4.19167 4.75049 4.725C4.23382 5.25833 3.97549 5.90833 3.97549 6.675V17.325C3.97549 18.0917 4.23382 18.7417 4.75049 19.275C5.28382 19.8083 5.92549 20.075 6.67549 20.075H17.3255ZM8.80049 15.9L12.3255 12.625L12.7005 12.3C13.2172 11.8167 13.6088 11.3833 13.8755 11C14.1588 10.6167 14.3005 10.1917 14.3005 9.725C14.3005 9.125 14.0755 8.63333 13.6255 8.25C13.1922 7.85 12.6338 7.65 11.9505 7.65C11.3338 7.65 10.8172 7.81667 10.4005 8.15C9.98382 8.48333 9.70049 8.98333 9.55049 9.65L8.70049 9.475C8.85049 8.60833 9.21716 7.94167 9.80049 7.475C10.3838 7.00833 11.1172 6.775 12.0005 6.775C12.9338 6.775 13.7088 7.05833 14.3255 7.625C14.9422 8.175 15.2505 8.86667 15.2505 9.7C15.2505 10.1667 15.1422 10.6083 14.9255 11.025C14.7088 11.4417 14.4505 11.8083 14.1505 12.125C13.8672 12.4417 13.4255 12.8667 12.8255 13.4L10.1505 15.825H15.4005V16.7H8.80049V15.9Z" fill="black"/>
</g>
<defs>
<clipPath id="clip0_3234_12072">
<rect width="24" height="24" fill="white"/>
</clipPath>
</defs>
</svg>
