<svg width="24" height="24" viewBox="0 0 24 24" fill="none" xmlns="http://www.w3.org/2000/svg">
<g clip-path="url(#clip0_3234_11130)">
<rect width="24" height="24" fill="white"/>
<path d="M9.4 16.575C10.0167 16.9083 10.7917 17.075 11.725 17.075C12.975 17.075 13.95 16.7917 14.65 16.225C15.3667 15.6583 15.725 14.9417 15.725 14.075C15.725 13.5583 15.5917 13.1167 15.325 12.75C15.0583 12.3667 14.6667 12.05 14.15 11.8C14.6167 11.5833 14.9667 11.3083 15.2 10.975C15.45 10.625 15.575 10.2083 15.575 9.725C15.575 9.20833 15.4167 8.73333 15.1 8.3C14.7833 7.85 14.3333 7.5 13.75 7.25C13.1667 6.98333 12.4833 6.85 11.7 6.85C10.8167 6.85 10.05 7.01667 9.4 7.35C8.76667 7.66667 8.28333 8.16667 7.95 8.85L9.675 9.875C9.825 9.55833 10.0583 9.31667 10.375 9.15C10.7083 8.98333 11.1083 8.9 11.575 8.9C12.075 8.9 12.475 8.99167 12.775 9.175C13.0917 9.35833 13.25 9.60833 13.25 9.925C13.25 10.2417 13.1167 10.5083 12.85 10.725C12.5833 10.925 12.2583 11.025 11.875 11.025H10.55V12.775H11.875C12.2917 12.775 12.6417 12.8833 12.925 13.1C13.2083 13.3 13.35 13.575 13.35 13.925C13.35 14.275 13.1917 14.55 12.875 14.75C12.5583 14.9333 12.15 15.025 11.65 15.025C11.2167 15.025 10.8167 14.9417 10.45 14.775C10.1 14.6083 9.825 14.35 9.625 14L7.95 15.075C8.3 15.725 8.78333 16.225 9.4 16.575ZM17.05 20.675C15.5167 21.5583 13.8333 22 12 22C10.1667 22 8.48333 21.5583 6.95 20.675C5.41667 19.7917 4.20833 18.5833 3.325 17.05C2.44167 15.5167 2 13.8333 2 12C2 10.1667 2.44167 8.48333 3.325 6.95C4.20833 5.41667 5.41667 4.20833 6.95 3.325C8.48333 2.44167 10.1667 2 12 2C13.8333 2 15.5167 2.44167 17.05 3.325C18.5833 4.20833 19.7917 5.41667 20.675 6.95C21.5583 8.48333 22 10.1667 22 12C22 13.8333 21.5583 15.5167 20.675 17.05C19.7917 18.5833 18.5833 19.7917 17.05 20.675Z" fill="black"/>
</g>
<defs>
<clipPath id="clip0_3234_11130">
<rect width="24" height="24" fill="white"/>
</clipPath>
</defs>
</svg>
