<svg width="24" height="24" viewBox="0 0 24 24" fill="none" xmlns="http://www.w3.org/2000/svg">
<g clip-path="url(#clip0_3234_11122)">
<rect width="24" height="24" fill="white"/>
<path d="M9.875 16.425C10.4583 16.8083 11.15 17 11.95 17C12.8833 17 13.6667 16.75 14.3 16.25C14.95 15.75 15.275 15.0917 15.275 14.275C15.275 13.6417 15.0833 13.1167 14.7 12.7C14.3333 12.2833 13.8 11.9917 13.1 11.825C13.7167 11.6583 14.1917 11.3667 14.525 10.95C14.875 10.5333 15.05 10.05 15.05 9.5C15.05 8.98333 14.9083 8.53333 14.625 8.15C14.3583 7.75 13.9833 7.45 13.5 7.25C13.0167 7.03333 12.475 6.925 11.875 6.925C11.0917 6.925 10.4167 7.11667 9.85 7.5C9.3 7.88333 8.94167 8.41667 8.775 9.1L9.25 9.225C9.38333 8.64167 9.68333 8.19167 10.15 7.875C10.6333 7.55833 11.2167 7.4 11.9 7.4C12.6667 7.4 13.3 7.59167 13.8 7.975C14.3 8.35833 14.55 8.85833 14.55 9.475C14.55 10.1083 14.3083 10.625 13.825 11.025C13.3583 11.4083 12.725 11.6 11.925 11.6H10.975V12.075H11.95C12.8 12.075 13.4833 12.2833 14 12.7C14.5167 13.1167 14.775 13.65 14.775 14.3C14.775 14.9667 14.5 15.5083 13.95 15.925C13.4167 16.325 12.75 16.525 11.95 16.525C11.2667 16.525 10.6833 16.3667 10.2 16.05C9.71667 15.7167 9.38333 15.2417 9.2 14.625L8.725 14.75C8.925 15.4833 9.30833 16.0417 9.875 16.425ZM17.05 20.675C15.5167 21.5583 13.8333 22 12 22C10.1667 22 8.48333 21.5583 6.95 20.675C5.41667 19.7917 4.20833 18.5833 3.325 17.05C2.44167 15.5167 2 13.8333 2 12C2 10.1667 2.44167 8.48333 3.325 6.95C4.20833 5.41667 5.41667 4.20833 6.95 3.325C8.48333 2.44167 10.1667 2 12 2C13.8333 2 15.5167 2.44167 17.05 3.325C18.5833 4.20833 19.7917 5.41667 20.675 6.95C21.5583 8.48333 22 10.1667 22 12C22 13.8333 21.5583 15.5167 20.675 17.05C19.7917 18.5833 18.5833 19.7917 17.05 20.675Z" fill="black"/>
</g>
<defs>
<clipPath id="clip0_3234_11122">
<rect width="24" height="24" fill="white"/>
</clipPath>
</defs>
</svg>
