<svg width="24" height="24" viewBox="0 0 24 24" fill="none" xmlns="http://www.w3.org/2000/svg">
<g clip-path="url(#clip0_3234_11134)">
<rect width="24" height="24" fill="white"/>
<path d="M9.525 16.975C10.175 17.1583 10.9167 17.25 11.75 17.25C13.3167 17.25 14.4667 16.9417 15.2 16.325C15.9333 15.7083 16.3 14.9333 16.3 14C16.3 13.5167 16.1833 13.1 15.95 12.75C15.7167 12.3833 15.3583 12.075 14.875 11.825C15.3083 11.6083 15.6417 11.3417 15.875 11.025C16.1083 10.6917 16.225 10.2833 16.225 9.8C16.225 9.25 16.0583 8.74167 15.725 8.275C15.3917 7.79167 14.8833 7.40833 14.2 7.125C13.5333 6.825 12.7083 6.675 11.725 6.675C10.8083 6.675 10.0167 6.78333 9.35 7C8.7 7.21667 8.10833 7.575 7.575 8.075L9.575 10.05C9.80833 9.86667 10.0833 9.74167 10.4 9.675C10.7167 9.59167 11.125 9.55 11.625 9.55C12.0583 9.55 12.3833 9.6 12.6 9.7C12.8167 9.78333 12.925 9.925 12.925 10.125C12.925 10.2917 12.8417 10.4333 12.675 10.55C12.5083 10.65 12.3167 10.7 12.1 10.7H10.225V13.15H12.1C12.35 13.15 12.5583 13.2083 12.725 13.325C12.8917 13.425 12.975 13.5833 12.975 13.8C12.975 14.0167 12.8583 14.175 12.625 14.275C12.3917 14.3583 12.0583 14.4 11.625 14.4C11.225 14.4 10.8417 14.35 10.475 14.25C10.125 14.15 9.79167 14.025 9.475 13.875L7.675 16C8.25833 16.45 8.875 16.775 9.525 16.975ZM17.05 20.675C15.5167 21.5583 13.8333 22 12 22C10.1667 22 8.48333 21.5583 6.95 20.675C5.41667 19.7917 4.20833 18.5833 3.325 17.05C2.44167 15.5167 2 13.8333 2 12C2 10.1667 2.44167 8.48333 3.325 6.95C4.20833 5.41667 5.41667 4.20833 6.95 3.325C8.48333 2.44167 10.1667 2 12 2C13.8333 2 15.5167 2.44167 17.05 3.325C18.5833 4.20833 19.7917 5.41667 20.675 6.95C21.5583 8.48333 22 10.1667 22 12C22 13.8333 21.5583 15.5167 20.675 17.05C19.7917 18.5833 18.5833 19.7917 17.05 20.675Z" fill="black"/>
</g>
<defs>
<clipPath id="clip0_3234_11134">
<rect width="24" height="24" fill="white"/>
</clipPath>
</defs>
</svg>
