<svg width="24" height="24" viewBox="0 0 24 24" fill="none" xmlns="http://www.w3.org/2000/svg">
<g clip-path="url(#clip0_3375_6294)">
<rect width="24" height="24" fill="white"/>
<path d="M7.20049 21C6.43382 21 5.72549 20.8167 5.07549 20.45C4.42549 20.0833 3.91716 19.575 3.55049 18.925C3.18382 18.275 3.00049 17.5667 3.00049 16.8V7.2C3.00049 6.43333 3.18382 5.725 3.55049 5.075C3.91716 4.425 4.42549 3.91667 5.07549 3.55C5.72549 3.18333 6.43382 3 7.20049 3H16.7255C17.5088 3 18.2255 3.18333 18.8755 3.55C19.5422 3.91667 20.0588 4.425 20.4255 5.075C20.8088 5.725 21.0005 6.43333 21.0005 7.2V16.8C21.0005 17.5667 20.8172 18.275 20.4505 18.925C20.0838 19.575 19.5755 20.0833 18.9255 20.45C18.2755 20.8167 17.5672 21 16.8005 21H7.20049ZM16.8005 18.6C17.2838 18.6 17.6922 18.425 18.0255 18.075C18.3755 17.725 18.5505 17.3 18.5505 16.8V7.175C18.5505 6.675 18.3755 6.25833 18.0255 5.925C17.6922 5.575 17.2838 5.4 16.8005 5.4H7.20049C6.71716 5.4 6.30049 5.575 5.95049 5.925C5.61716 6.275 5.45049 6.7 5.45049 7.2V16.8C5.45049 17.3 5.61716 17.725 5.95049 18.075C6.30049 18.425 6.71716 18.6 7.20049 18.6H16.8005ZM11.7255 17C10.8255 17 10.0755 16.8333 9.47549 16.5C8.87549 16.15 8.42549 15.6667 8.12549 15.05L9.70049 13.975C9.90049 14.3083 10.1755 14.5583 10.5255 14.725C10.8755 14.8917 11.2588 14.975 11.6755 14.975C12.1588 14.975 12.5505 14.875 12.8505 14.675C13.1672 14.475 13.3255 14.2083 13.3255 13.875C13.3255 13.5417 13.1838 13.275 12.9005 13.075C12.6338 12.8583 12.3088 12.75 11.9255 12.75H10.6005V11.025H11.9255C12.2755 11.025 12.5755 10.925 12.8255 10.725C13.0755 10.525 13.2005 10.2667 13.2005 9.95C13.2005 9.65 13.0505 9.40833 12.7505 9.225C12.4672 9.04167 12.0838 8.95 11.6005 8.95C11.1672 8.95 10.7922 9.03333 10.4755 9.2C10.1588 9.36667 9.91716 9.6 9.75049 9.9L8.22549 8.775C8.50882 8.15833 8.95882 7.7 9.57549 7.4C10.1922 7.08333 10.9088 6.925 11.7255 6.925C12.8922 6.925 13.8172 7.2 14.5005 7.75C15.2005 8.28333 15.5505 8.95833 15.5505 9.775C15.5505 10.225 15.4255 10.625 15.1755 10.975C14.9422 11.3083 14.6005 11.5833 14.1505 11.8C14.6505 12.0333 15.0338 12.3417 15.3005 12.725C15.5672 13.0917 15.7005 13.525 15.7005 14.025C15.7005 14.875 15.3505 15.5833 14.6505 16.15C13.9505 16.7167 12.9755 17 11.7255 17Z" fill="black"/>
</g>
<defs>
<clipPath id="clip0_3375_6294">
<rect width="24" height="24" fill="white"/>
</clipPath>
</defs>
</svg>
