<svg width="24" height="24" viewBox="0 0 24 24" fill="none" xmlns="http://www.w3.org/2000/svg">
<g clip-path="url(#clip0_3254_18536)">
<rect width="24" height="24" fill="white"/>
<path d="M12.0005 22C10.1672 22 8.48382 21.5583 6.95049 20.675C5.41716 19.7917 4.20882 18.5833 3.32549 17.05C2.44216 15.5167 2.00049 13.8333 2.00049 12C2.00049 10.1667 2.44216 8.48333 3.32549 6.95C4.20882 5.41667 5.41716 4.20833 6.95049 3.325C8.48382 2.44167 10.1672 2 12.0005 2C13.8338 2 15.5172 2.44167 17.0505 3.325C18.5838 4.20833 19.7922 5.41667 20.6755 6.95C21.5588 8.48333 22.0005 10.1667 22.0005 12C22.0005 13.8333 21.5588 15.5167 20.6755 17.05C19.7922 18.5833 18.5838 19.7917 17.0505 20.675C15.5172 21.5583 13.8338 22 12.0005 22ZM12.0005 20.6C13.5838 20.6 15.0255 20.225 16.3255 19.475C17.6422 18.7083 18.6755 17.675 19.4255 16.375C20.1922 15.0583 20.5755 13.6 20.5755 12C20.5755 10.4 20.1922 8.95 19.4255 7.65C18.6755 6.33333 17.6422 5.3 16.3255 4.55C15.0255 3.78333 13.5838 3.4 12.0005 3.4C10.4172 3.4 8.96716 3.78333 7.65049 4.55C6.35049 5.3 5.31716 6.33333 4.55049 7.65C3.80049 8.95 3.42549 10.4 3.42549 12C3.42549 13.6 3.80049 15.0583 4.55049 16.375C5.31716 17.675 6.35049 18.7083 7.65049 19.475C8.96716 20.225 10.4172 20.6 12.0005 20.6ZM11.9255 17C11.0255 17 10.2755 16.8 9.67549 16.4C9.09216 15.9833 8.68382 15.4083 8.45049 14.675L9.67549 14.25C9.82549 14.75 10.1005 15.125 10.5005 15.375C10.9005 15.625 11.3672 15.75 11.9005 15.75C12.5338 15.75 13.0588 15.6 13.4755 15.3C13.8922 14.9833 14.1005 14.575 14.1005 14.075C14.1005 13.5917 13.9005 13.1917 13.5005 12.875C13.1005 12.5583 12.5922 12.4 11.9755 12.4H10.9505V11.325H11.9755C12.5588 11.325 13.0255 11.175 13.3755 10.875C13.7422 10.575 13.9255 10.1833 13.9255 9.7C13.9255 9.25 13.7255 8.88333 13.3255 8.6C12.9255 8.31667 12.4255 8.175 11.8255 8.175C11.2922 8.175 10.8338 8.3 10.4505 8.55C10.0838 8.8 9.84216 9.15 9.72549 9.6L8.50049 9.175C8.71716 8.44167 9.12549 7.88333 9.72549 7.5C10.3422 7.11667 11.0672 6.925 11.9005 6.925C12.9005 6.925 13.7172 7.18333 14.3505 7.7C15.0005 8.2 15.3255 8.84167 15.3255 9.625C15.3255 10.125 15.1838 10.5667 14.9005 10.95C14.6338 11.3167 14.2422 11.6 13.7255 11.8C14.3088 12.0167 14.7588 12.325 15.0755 12.725C15.3922 13.1083 15.5505 13.5833 15.5505 14.15C15.5505 14.9833 15.2088 15.6667 14.5255 16.2C13.8422 16.7333 12.9755 17 11.9255 17Z" fill="black"/>
</g>
<defs>
<clipPath id="clip0_3254_18536">
<rect width="24" height="24" fill="white"/>
</clipPath>
</defs>
</svg>
