<svg width="24" height="24" viewBox="0 0 24 24" fill="none" xmlns="http://www.w3.org/2000/svg">
<g clip-path="url(#clip0_3254_18558)">
<rect width="24" height="24" fill="white"/>
<path d="M9.425 17C10.0417 17.1667 10.7667 17.25 11.6 17.25C13.2 17.25 14.375 16.9417 15.125 16.325C15.875 15.6917 16.25 14.9083 16.25 13.975C16.25 13.4917 16.125 13.075 15.875 12.725C15.6417 12.375 15.2917 12.075 14.825 11.825C15.2417 11.6083 15.5667 11.3417 15.8 11.025C16.05 10.6917 16.175 10.2833 16.175 9.8C16.175 9.25 16.0083 8.73333 15.675 8.25C15.3417 7.76667 14.8333 7.38333 14.15 7.1C13.4667 6.8 12.625 6.65 11.625 6.65C10.8583 6.65 10.1667 6.74167 9.55 6.925C8.95 7.09167 8.425 7.35 7.975 7.7L9.525 10.05C9.775 9.88333 10.05 9.76667 10.35 9.7C10.6667 9.63333 11.0583 9.6 11.525 9.6C11.8917 9.6 12.175 9.65 12.375 9.75C12.575 9.83333 12.675 9.95833 12.675 10.125C12.675 10.275 12.6 10.4 12.45 10.5C12.3167 10.6 12.175 10.65 12.025 10.65H10.1V13.2H12.025C12.2083 13.2 12.3667 13.25 12.5 13.35C12.65 13.45 12.725 13.5917 12.725 13.775C12.725 13.9583 12.6167 14.1 12.4 14.2C12.1833 14.2833 11.8917 14.325 11.525 14.325C11.175 14.325 10.825 14.2833 10.475 14.2C10.125 14.1167 9.75833 14 9.375 13.85L7.825 16.075C8.29167 16.5083 8.825 16.8167 9.425 17ZM17.05 20.675C15.5167 21.5583 13.8333 22 12 22C10.1667 22 8.48333 21.5583 6.95 20.675C5.41667 19.7917 4.20833 18.5833 3.325 17.05C2.44167 15.5167 2 13.8333 2 12C2 10.1667 2.44167 8.48333 3.325 6.95C4.20833 5.41667 5.41667 4.20833 6.95 3.325C8.48333 2.44167 10.1667 2 12 2C13.8333 2 15.5167 2.44167 17.05 3.325C18.5833 4.20833 19.7917 5.41667 20.675 6.95C21.5583 8.48333 22 10.1667 22 12C22 13.8333 21.5583 15.5167 20.675 17.05C19.7917 18.5833 18.5833 19.7917 17.05 20.675Z" fill="black"/>
</g>
<defs>
<clipPath id="clip0_3254_18558">
<rect width="24" height="24" fill="white"/>
</clipPath>
</defs>
</svg>
