<svg width="24" height="24" viewBox="0 0 24 24" fill="none" xmlns="http://www.w3.org/2000/svg">
<g clip-path="url(#clip0_3375_6288)">
<rect width="24" height="24" fill="white"/>
<path d="M6.67549 21C5.99216 21 5.36716 20.8417 4.80049 20.525C4.25049 20.1917 3.80882 19.75 3.47549 19.2C3.15882 18.6333 3.00049 18.0083 3.00049 17.325V6.675C3.00049 5.99167 3.15882 5.36667 3.47549 4.8C3.80882 4.23333 4.25049 3.79167 4.80049 3.475C5.36716 3.15833 5.99216 3 6.67549 3H17.3255C18.0088 3 18.6338 3.15833 19.2005 3.475C19.7672 3.79167 20.2088 4.23333 20.5255 4.8C20.8422 5.36667 21.0005 5.99167 21.0005 6.675V17.325C21.0005 18.0083 20.8422 18.6333 20.5255 19.2C20.2088 19.75 19.7672 20.1917 19.2005 20.525C18.6338 20.8417 18.0088 21 17.3255 21H6.67549ZM17.3255 20.075C18.0755 20.075 18.7088 19.8083 19.2255 19.275C19.7588 18.7417 20.0255 18.0917 20.0255 17.325V6.675C20.0255 5.90833 19.7588 5.25833 19.2255 4.725C18.7088 4.19167 18.0755 3.925 17.3255 3.925H6.67549C5.92549 3.925 5.28382 4.19167 4.75049 4.725C4.23382 5.25833 3.97549 5.90833 3.97549 6.675V17.325C3.97549 18.0917 4.23382 18.7417 4.75049 19.275C5.28382 19.8083 5.92549 20.075 6.67549 20.075H17.3255ZM11.9255 17C11.0588 17 10.3338 16.8 9.75049 16.4C9.16716 16 8.76716 15.4333 8.55049 14.7L9.42549 14.45C9.59216 15 9.89216 15.4167 10.3255 15.7C10.7755 15.9833 11.3005 16.125 11.9005 16.125C12.6172 16.125 13.2172 15.95 13.7005 15.6C14.1838 15.25 14.4255 14.7833 14.4255 14.2C14.4255 13.6333 14.1922 13.1667 13.7255 12.8C13.2755 12.4333 12.6838 12.25 11.9505 12.25H10.9505V11.45H11.9255C12.6088 11.45 13.1588 11.2833 13.5755 10.95C14.0088 10.6 14.2255 10.15 14.2255 9.6C14.2255 9.06667 14.0005 8.63333 13.5505 8.3C13.1005 7.96667 12.5255 7.8 11.8255 7.8C11.2255 7.8 10.7088 7.94167 10.2755 8.225C9.85882 8.50833 9.58382 8.9 9.45049 9.4L8.62549 9.15C8.80882 8.43333 9.19216 7.88333 9.77549 7.5C10.3588 7.11667 11.0505 6.925 11.8505 6.925C12.8172 6.925 13.6088 7.175 14.2255 7.675C14.8588 8.15833 15.1755 8.79167 15.1755 9.575C15.1755 10.0917 15.0172 10.55 14.7005 10.95C14.3838 11.35 13.9422 11.6417 13.3755 11.825C14.0255 12.0083 14.5172 12.3083 14.8505 12.725C15.2005 13.125 15.3755 13.625 15.3755 14.225C15.3755 15.0417 15.0422 15.7083 14.3755 16.225C13.7255 16.7417 12.9088 17 11.9255 17Z" fill="black"/>
</g>
<defs>
<clipPath id="clip0_3375_6288">
<rect width="24" height="24" fill="white"/>
</clipPath>
</defs>
</svg>
