<svg width="24" height="24" viewBox="0 0 24 24" fill="none" xmlns="http://www.w3.org/2000/svg">
<g clip-path="url(#clip0_3375_6310)">
<rect width="24" height="24" fill="white"/>
<path d="M9.475 16.8C10.0917 17.05 10.8417 17.175 11.725 17.175C13.1583 17.175 14.2417 16.875 14.975 16.275C15.7083 15.675 16.075 14.925 16.075 14.025C16.075 13.525 15.9417 13.0917 15.675 12.725C15.425 12.3583 15.0583 12.0583 14.575 11.825C15.0083 11.6083 15.3417 11.3333 15.575 11C15.825 10.65 15.95 10.2417 15.95 9.775C15.95 9.225 15.7833 8.725 15.45 8.275C15.1333 7.80833 14.6583 7.44167 14.025 7.175C13.3917 6.89167 12.625 6.75 11.725 6.75C10.925 6.75 10.2167 6.875 9.6 7.125C8.98333 7.35833 8.49167 7.71667 8.125 8.2L9.675 9.95C9.875 9.71667 10.1333 9.54167 10.45 9.425C10.7667 9.30833 11.1583 9.25 11.625 9.25C12.0417 9.25 12.375 9.325 12.625 9.475C12.875 9.60833 13 9.79167 13 10.025C13 10.2583 12.9 10.45 12.7 10.6C12.5 10.75 12.275 10.825 12.025 10.825H10.4V13H12.025C12.3083 13 12.55 13.075 12.75 13.225C12.9667 13.375 13.075 13.5833 13.075 13.85C13.075 14.1 12.9417 14.3 12.675 14.45C12.425 14.6 12.0833 14.675 11.65 14.675C11.2667 14.675 10.9 14.6167 10.55 14.5C10.2 14.3667 9.875 14.175 9.575 13.925L8 15.6C8.38333 16.1333 8.875 16.5333 9.475 16.8ZM19.25 20.55C18.7167 20.85 18.1333 21 17.5 21H6.5C5.86667 21 5.275 20.85 4.725 20.55C4.19167 20.2333 3.76667 19.8083 3.45 19.275C3.15 18.725 3 18.1333 3 17.5V6.5C3 5.86667 3.15 5.28333 3.45 4.75C3.76667 4.2 4.19167 3.775 4.725 3.475C5.275 3.15833 5.86667 3 6.5 3H17.5C18.1333 3 18.7167 3.15833 19.25 3.475C19.8 3.775 20.225 4.2 20.525 4.75C20.8417 5.28333 21 5.86667 21 6.5V17.5C21 18.1333 20.8417 18.725 20.525 19.275C20.225 19.8083 19.8 20.2333 19.25 20.55Z" fill="black"/>
</g>
<defs>
<clipPath id="clip0_3375_6310">
<rect width="24" height="24" fill="white"/>
</clipPath>
</defs>
</svg>
