<svg width="24" height="24" viewBox="0 0 24 24" fill="none" xmlns="http://www.w3.org/2000/svg">
<g clip-path="url(#clip0_3254_18534)">
<rect width="24" height="24" fill="white"/>
<path d="M12.0005 22C10.1672 22 8.48382 21.5583 6.95049 20.675C5.41716 19.7917 4.20882 18.5833 3.32549 17.05C2.44216 15.5167 2.00049 13.8333 2.00049 12C2.00049 10.1667 2.44216 8.48333 3.32549 6.95C4.20882 5.41667 5.41716 4.20833 6.95049 3.325C8.48382 2.44167 10.1672 2 12.0005 2C13.8338 2 15.5172 2.44167 17.0505 3.325C18.5838 4.20833 19.7922 5.41667 20.6755 6.95C21.5588 8.48333 22.0005 10.1667 22.0005 12C22.0005 13.8333 21.5588 15.5167 20.6755 17.05C19.7922 18.5833 18.5838 19.7917 17.0505 20.675C15.5172 21.5583 13.8338 22 12.0005 22ZM12.0005 21.075C13.6672 21.075 15.1838 20.675 16.5505 19.875C17.9338 19.075 19.0255 17.9833 19.8255 16.6C20.6255 15.2 21.0255 13.6667 21.0255 12C21.0255 10.3333 20.6255 8.80833 19.8255 7.425C19.0255 6.025 17.9338 4.925 16.5505 4.125C15.1838 3.325 13.6672 2.925 12.0005 2.925C10.3338 2.925 8.80882 3.325 7.42549 4.125C6.05882 4.925 4.97549 6.025 4.17549 7.425C3.37549 8.80833 2.97549 10.3333 2.97549 12C2.97549 13.6667 3.37549 15.2 4.17549 16.6C4.97549 17.9833 6.05882 19.075 7.42549 19.875C8.80882 20.675 10.3338 21.075 12.0005 21.075ZM11.9255 17C11.0588 17 10.3338 16.8 9.75049 16.4C9.16716 16 8.76716 15.4333 8.55049 14.7L9.42549 14.45C9.59216 15 9.89216 15.4167 10.3255 15.7C10.7755 15.9833 11.3005 16.125 11.9005 16.125C12.6172 16.125 13.2172 15.95 13.7005 15.6C14.1838 15.25 14.4255 14.7833 14.4255 14.2C14.4255 13.6333 14.1922 13.1667 13.7255 12.8C13.2755 12.4333 12.6838 12.25 11.9505 12.25H10.9505V11.45H11.9255C12.6088 11.45 13.1588 11.2833 13.5755 10.95C14.0088 10.6 14.2255 10.15 14.2255 9.6C14.2255 9.06667 14.0005 8.63333 13.5505 8.3C13.1005 7.96667 12.5255 7.8 11.8255 7.8C11.2255 7.8 10.7088 7.94167 10.2755 8.225C9.85882 8.50833 9.58382 8.9 9.45049 9.4L8.62549 9.15C8.80882 8.43333 9.19216 7.88333 9.77549 7.5C10.3588 7.11667 11.0505 6.925 11.8505 6.925C12.8172 6.925 13.6088 7.175 14.2255 7.675C14.8588 8.15833 15.1755 8.79167 15.1755 9.575C15.1755 10.0917 15.0172 10.55 14.7005 10.95C14.3838 11.35 13.9422 11.6417 13.3755 11.825C14.0255 12.0083 14.5172 12.3083 14.8505 12.725C15.2005 13.125 15.3755 13.625 15.3755 14.225C15.3755 15.0417 15.0422 15.7083 14.3755 16.225C13.7255 16.7417 12.9088 17 11.9255 17Z" fill="black"/>
</g>
<defs>
<clipPath id="clip0_3254_18534">
<rect width="24" height="24" fill="white"/>
</clipPath>
</defs>
</svg>
