<svg width="24" height="24" viewBox="0 0 24 24" fill="none" xmlns="http://www.w3.org/2000/svg">
<g clip-path="url(#clip0_3375_6292)">
<rect width="24" height="24" fill="white"/>
<path d="M7.00049 21C6.26716 21 5.59216 20.825 4.97549 20.475C4.35882 20.125 3.87549 19.6417 3.52549 19.025C3.17549 18.4083 3.00049 17.7333 3.00049 17V7C3.00049 6.26667 3.17549 5.59167 3.52549 4.975C3.87549 4.35833 4.35882 3.875 4.97549 3.525C5.59216 3.175 6.26716 3 7.00049 3H17.0005C17.7338 3 18.4088 3.175 19.0255 3.525C19.6422 3.875 20.1255 4.35833 20.4755 4.975C20.8255 5.59167 21.0005 6.26667 21.0005 7V17C21.0005 17.7333 20.8255 18.4083 20.4755 19.025C20.1255 19.6417 19.6422 20.125 19.0255 20.475C18.4088 20.825 17.7338 21 17.0005 21H7.00049ZM17.0005 19.15C17.5838 19.15 18.0755 18.9417 18.4755 18.525C18.8922 18.1083 19.1005 17.6 19.1005 17V7C19.1005 6.4 18.8922 5.89167 18.4755 5.475C18.0755 5.05833 17.5838 4.85 17.0005 4.85H7.00049C6.41716 4.85 5.91716 5.05833 5.50049 5.475C5.10049 5.89167 4.90049 6.4 4.90049 7V17C4.90049 17.6 5.10049 18.1083 5.50049 18.525C5.91716 18.9417 6.41716 19.15 7.00049 19.15H17.0005ZM11.8755 17C10.9088 17 10.1255 16.7917 9.52549 16.375C8.92549 15.9417 8.50049 15.3583 8.25049 14.625L9.87549 14.075C10.0088 14.5083 10.2505 14.8333 10.6005 15.05C10.9672 15.25 11.3755 15.35 11.8255 15.35C12.3755 15.35 12.8255 15.225 13.1755 14.975C13.5422 14.725 13.7255 14.3917 13.7255 13.975C13.7255 13.575 13.5505 13.2417 13.2005 12.975C12.8672 12.7083 12.4505 12.575 11.9505 12.575H10.9005V11.175H11.9505C12.4172 11.175 12.8005 11.05 13.1005 10.8C13.4172 10.55 13.5755 10.225 13.5755 9.825C13.5755 9.45833 13.4005 9.15833 13.0505 8.925C12.7005 8.69167 12.2588 8.575 11.7255 8.575C11.2755 8.575 10.8838 8.68333 10.5505 8.9C10.2338 9.11667 10.0172 9.40833 9.90049 9.775L8.32549 9.225C8.55882 8.45833 8.99216 7.88333 9.62549 7.5C10.2588 7.11667 11.0005 6.925 11.8505 6.925C12.9005 6.925 13.7588 7.19167 14.4255 7.725C15.0922 8.24167 15.4255 8.9 15.4255 9.7C15.4255 10.1667 15.3005 10.5833 15.0505 10.95C14.8005 11.3 14.4422 11.5833 13.9755 11.8C14.5088 12.0333 14.9172 12.3417 15.2005 12.725C15.4838 13.1083 15.6255 13.5667 15.6255 14.1C15.6255 14.9333 15.2755 15.625 14.5755 16.175C13.8755 16.725 12.9755 17 11.8755 17Z" fill="black"/>
</g>
<defs>
<clipPath id="clip0_3375_6292">
<rect width="24" height="24" fill="white"/>
</clipPath>
</defs>
</svg>
