<svg width="24" height="24" viewBox="0 0 24 24" fill="none" xmlns="http://www.w3.org/2000/svg">
<g clip-path="url(#clip0_3234_12114)">
<rect width="24" height="24" fill="white"/>
<path d="M9.55 16.4C10.15 16.8 10.9083 17 11.825 17C12.8583 17 13.7167 16.7333 14.4 16.2C15.0833 15.6667 15.425 14.9833 15.425 14.15C15.425 13.5833 15.2667 13.1083 14.95 12.725C14.6333 12.325 14.1833 12.0167 13.6 11.8C14.1167 11.6 14.5167 11.3167 14.8 10.95C15.0833 10.5667 15.225 10.125 15.225 9.625C15.225 9.10833 15.075 8.65 14.775 8.25C14.475 7.83333 14.0583 7.50833 13.525 7.275C13.0083 7.04167 12.425 6.925 11.775 6.925C10.9417 6.925 10.2167 7.11667 9.6 7.5C9 7.88333 8.6 8.44167 8.4 9.175L9.6 9.6C9.71667 9.15 9.95833 8.8 10.325 8.55C10.7083 8.3 11.1667 8.175 11.7 8.175C12.3167 8.175 12.825 8.31667 13.225 8.6C13.625 8.88333 13.825 9.25 13.825 9.7C13.825 10.1833 13.6417 10.575 13.275 10.875C12.9083 11.175 12.4333 11.325 11.85 11.325H10.85V12.4H11.875C12.4917 12.4 13 12.5583 13.4 12.875C13.8 13.1917 14 13.5917 14 14.075C14 14.575 13.7833 14.9833 13.35 15.3C12.9333 15.6 12.4083 15.75 11.775 15.75C11.2583 15.75 10.8 15.625 10.4 15.375C10 15.125 9.725 14.75 9.575 14.25L8.325 14.675C8.55833 15.4083 8.96667 15.9833 9.55 16.4ZM19.25 20.55C18.7167 20.85 18.1333 21 17.5 21H6.5C5.86667 21 5.275 20.85 4.725 20.55C4.19167 20.2333 3.76667 19.8083 3.45 19.275C3.15 18.725 3 18.1333 3 17.5V6.5C3 5.86667 3.15 5.28333 3.45 4.75C3.76667 4.2 4.19167 3.775 4.725 3.475C5.275 3.15833 5.86667 3 6.5 3H17.5C18.1333 3 18.7167 3.15833 19.25 3.475C19.8 3.775 20.225 4.2 20.525 4.75C20.8417 5.28333 21 5.86667 21 6.5V17.5C21 18.1333 20.8417 18.725 20.525 19.275C20.225 19.8083 19.8 20.2333 19.25 20.55Z" fill="black"/>
</g>
<defs>
<clipPath id="clip0_3234_12114">
<rect width="24" height="24" fill="white"/>
</clipPath>
</defs>
</svg>
