<svg width="24" height="24" viewBox="0 0 24 24" fill="none" xmlns="http://www.w3.org/2000/svg">
<g clip-path="url(#clip0_3375_6320)">
<rect width="24" height="24" fill="white"/>
<path d="M7.20049 21C6.43382 21 5.72549 20.8167 5.07549 20.45C4.42549 20.0833 3.91716 19.575 3.55049 18.925C3.18382 18.275 3.00049 17.5667 3.00049 16.8V7.2C3.00049 6.43333 3.18382 5.725 3.55049 5.075C3.91716 4.425 4.42549 3.91667 5.07549 3.55C5.72549 3.18333 6.43382 3 7.20049 3H16.7255C17.5088 3 18.2255 3.18333 18.8755 3.55C19.5422 3.91667 20.0588 4.425 20.4255 5.075C20.8088 5.725 21.0005 6.43333 21.0005 7.2V16.8C21.0005 17.5667 20.8172 18.275 20.4505 18.925C20.0838 19.575 19.5755 20.0833 18.9255 20.45C18.2755 20.8167 17.5672 21 16.8005 21H7.20049ZM16.8005 18.6C17.2838 18.6 17.6922 18.425 18.0255 18.075C18.3755 17.725 18.5505 17.3 18.5505 16.8V7.175C18.5505 6.675 18.3755 6.25833 18.0255 5.925C17.6922 5.575 17.2838 5.4 16.8005 5.4H7.20049C6.71716 5.4 6.30049 5.575 5.95049 5.925C5.61716 6.275 5.45049 6.7 5.45049 7.2V16.8C5.45049 17.3 5.61716 17.725 5.95049 18.075C6.30049 18.425 6.71716 18.6 7.20049 18.6H16.8005ZM12.6005 14.875H7.57549V12.85L11.6255 7.075H14.8505V12.95H16.2005V14.875H14.8505V16.825H12.6005V14.875ZM12.6005 12.95V9.3L10.0005 12.95H12.6005Z" fill="black"/>
</g>
<defs>
<clipPath id="clip0_3375_6320">
<rect width="24" height="24" fill="white"/>
</clipPath>
</defs>
</svg>
