<svg width="24" height="24" viewBox="0 0 24 24" fill="none" xmlns="http://www.w3.org/2000/svg">
<g clip-path="url(#clip0_3234_11230)">
<rect width="24" height="24" fill="white"/>
<path d="M9.75 16.55C10.3667 16.9167 11.0583 17.1 11.825 17.1C12.875 17.1 13.7417 16.7917 14.425 16.175C15.125 15.5417 15.475 14.7417 15.475 13.775C15.475 13.175 15.325 12.6333 15.025 12.15C14.7417 11.65 14.3417 11.2667 13.825 11C13.325 10.7167 12.7667 10.575 12.15 10.575C11.3167 10.575 10.6167 10.8083 10.05 11.275L10.225 8.425H15.2V7.175H8.975L8.7 12.35L9.95 12.65C10.15 12.3667 10.4167 12.15 10.75 12C11.0833 11.8333 11.4583 11.75 11.875 11.75C12.5083 11.75 13.025 11.95 13.425 12.35C13.8417 12.7333 14.05 13.2167 14.05 13.8C14.05 14.3833 13.8333 14.875 13.4 15.275C12.9667 15.6583 12.4333 15.85 11.8 15.85C11.3333 15.85 10.9083 15.7333 10.525 15.5C10.1583 15.2667 9.89167 14.9667 9.725 14.6L8.5 15C8.73333 15.6667 9.15 16.1833 9.75 16.55ZM17.05 20.675C15.5167 21.5583 13.8333 22 12 22C10.1667 22 8.48333 21.5583 6.95 20.675C5.41667 19.7917 4.20833 18.5833 3.325 17.05C2.44167 15.5167 2 13.8333 2 12C2 10.1667 2.44167 8.48333 3.325 6.95C4.20833 5.41667 5.41667 4.20833 6.95 3.325C8.48333 2.44167 10.1667 2 12 2C13.8333 2 15.5167 2.44167 17.05 3.325C18.5833 4.20833 19.7917 5.41667 20.675 6.95C21.5583 8.48333 22 10.1667 22 12C22 13.8333 21.5583 15.5167 20.675 17.05C19.7917 18.5833 18.5833 19.7917 17.05 20.675Z" fill="black"/>
</g>
<defs>
<clipPath id="clip0_3234_11230">
<rect width="24" height="24" fill="white"/>
</clipPath>
</defs>
</svg>
