<svg width="24" height="24" viewBox="0 0 24 24" fill="none" xmlns="http://www.w3.org/2000/svg">
<g clip-path="url(#clip0_3254_18658)">
<rect width="24" height="24" fill="white"/>
<path d="M9.675 16.775C10.325 17.075 11.0333 17.225 11.8 17.225C12.9333 17.225 13.875 16.9083 14.625 16.275C15.375 15.625 15.75 14.7917 15.75 13.775C15.75 13.1917 15.6 12.65 15.3 12.15C15.0167 11.65 14.6167 11.2583 14.1 10.975C13.5833 10.6917 13.0167 10.55 12.4 10.55C11.7333 10.55 11.1583 10.6917 10.675 10.975L10.8 9.175H15.45V7.125H8.725L8.425 12.475L10.375 12.975C10.5417 12.7917 10.7417 12.65 10.975 12.55C11.225 12.45 11.5083 12.4 11.825 12.4C12.2917 12.4 12.6667 12.5333 12.95 12.8C13.25 13.05 13.4 13.375 13.4 13.775C13.4 14.1917 13.2417 14.5333 12.925 14.8C12.6083 15.05 12.1917 15.175 11.675 15.175C11.3083 15.175 10.9583 15.0917 10.625 14.925C10.2917 14.7583 9.99167 14.5333 9.725 14.25L8.15 15.375C8.53333 15.9917 9.04167 16.4583 9.675 16.775ZM17.05 20.675C15.5167 21.5583 13.8333 22 12 22C10.1667 22 8.48333 21.5583 6.95 20.675C5.41667 19.7917 4.20833 18.5833 3.325 17.05C2.44167 15.5167 2 13.8333 2 12C2 10.1667 2.44167 8.48333 3.325 6.95C4.20833 5.41667 5.41667 4.20833 6.95 3.325C8.48333 2.44167 10.1667 2 12 2C13.8333 2 15.5167 2.44167 17.05 3.325C18.5833 4.20833 19.7917 5.41667 20.675 6.95C21.5583 8.48333 22 10.1667 22 12C22 13.8333 21.5583 15.5167 20.675 17.05C19.7917 18.5833 18.5833 19.7917 17.05 20.675Z" fill="black"/>
</g>
<defs>
<clipPath id="clip0_3254_18658">
<rect width="24" height="24" fill="white"/>
</clipPath>
</defs>
</svg>
