<svg width="24" height="24" viewBox="0 0 24 24" fill="none" xmlns="http://www.w3.org/2000/svg">
<g clip-path="url(#clip0_3254_18646)">
<rect width="24" height="24" fill="white"/>
<path d="M12.0005 22C10.1672 22 8.48382 21.5583 6.95049 20.675C5.41716 19.7917 4.20882 18.5833 3.32549 17.05C2.44216 15.5167 2.00049 13.8333 2.00049 12C2.00049 10.1667 2.44216 8.48333 3.32549 6.95C4.20882 5.41667 5.41716 4.20833 6.95049 3.325C8.48382 2.44167 10.1672 2 12.0005 2C13.8338 2 15.5172 2.44167 17.0505 3.325C18.5838 4.20833 19.7922 5.41667 20.6755 6.95C21.5588 8.48333 22.0005 10.1667 22.0005 12C22.0005 13.8333 21.5588 15.5167 20.6755 17.05C19.7922 18.5833 18.5838 19.7917 17.0505 20.675C15.5172 21.5583 13.8338 22 12.0005 22ZM12.0005 19.075C13.3005 19.075 14.4838 18.7667 15.5505 18.15C16.6338 17.5167 17.4838 16.6583 18.1005 15.575C18.7172 14.4917 19.0255 13.3 19.0255 12C19.0255 10.7 18.7172 9.50833 18.1005 8.425C17.4838 7.34167 16.6338 6.49167 15.5505 5.875C14.4838 5.24167 13.3005 4.925 12.0005 4.925C10.7005 4.925 9.50882 5.24167 8.42549 5.875C7.35882 6.49167 6.51716 7.34167 5.90049 8.425C5.28382 9.50833 4.97549 10.7 4.97549 12C4.97549 13.3 5.28382 14.4917 5.90049 15.575C6.51716 16.6583 7.35882 17.5167 8.42549 18.15C9.50882 18.7667 10.7005 19.075 12.0005 19.075ZM11.7755 17.15C11.0422 17.15 10.3588 17.0333 9.72549 16.8C9.10882 16.55 8.54216 16.15 8.02549 15.6L9.50049 13.95C9.88382 14.2167 10.2338 14.4167 10.5505 14.55C10.8838 14.6833 11.2255 14.75 11.5755 14.75C12.0422 14.75 12.4088 14.6583 12.6755 14.475C12.9422 14.2917 13.0755 14.0417 13.0755 13.725C13.0755 13.4417 12.9588 13.2083 12.7255 13.025C12.4922 12.8417 12.1755 12.75 11.7755 12.75C11.5255 12.75 11.2922 12.7833 11.0755 12.85C10.8755 12.9167 10.6922 13.0083 10.5255 13.125L8.37549 12.55L8.62549 7.225H15.4755V9.575H11.0505L10.9505 10.975C11.3672 10.7417 11.8838 10.625 12.5005 10.625C13.1005 10.625 13.6505 10.7667 14.1505 11.05C14.6505 11.3333 15.0422 11.7167 15.3255 12.2C15.6255 12.6833 15.7755 13.2 15.7755 13.75C15.7755 14.7667 15.3922 15.5917 14.6255 16.225C13.8755 16.8417 12.9255 17.15 11.7755 17.15Z" fill="black"/>
</g>
<defs>
<clipPath id="clip0_3254_18646">
<rect width="24" height="24" fill="white"/>
</clipPath>
</defs>
</svg>
