<svg width="24" height="24" viewBox="0 0 24 24" fill="none" xmlns="http://www.w3.org/2000/svg">
<g clip-path="url(#clip0_3234_11286)">
<rect width="24" height="24" fill="white"/>
<path d="M9.1 15.75C9.85 16.6333 10.8833 17.075 12.2 17.075C13.3 17.075 14.2083 16.775 14.925 16.175C15.6417 15.5583 16 14.7583 16 13.775C16 12.7917 15.675 12 15.025 11.4C14.375 10.8 13.5417 10.5 12.525 10.5C12.075 10.5 11.6583 10.575 11.275 10.725C10.8917 10.875 10.5583 11.1 10.275 11.4C10.325 10.5 10.5417 9.86667 10.925 9.5C11.325 9.13333 11.8083 8.95 12.375 8.95C12.8417 8.95 13.2583 9.01667 13.625 9.15C14.0083 9.26667 14.3417 9.475 14.625 9.775L15.775 8.225C15.3917 7.75833 14.8917 7.41667 14.275 7.2C13.675 6.96667 13.0333 6.85 12.35 6.85C10.9667 6.85 9.89167 7.29167 9.125 8.175C8.35833 9.05833 7.975 10.3167 7.975 11.95C7.975 13.5833 8.35 14.85 9.1 15.75ZM13.3 14.7C12.9833 14.95 12.6083 15.075 12.175 15.075C11.7083 15.075 11.3167 14.9583 11 14.725C10.6833 14.475 10.525 14.15 10.525 13.75C10.525 13.3333 10.675 13 10.975 12.75C11.275 12.5 11.6667 12.375 12.15 12.375C12.6 12.375 12.9833 12.5 13.3 12.75C13.6167 13 13.775 13.3333 13.775 13.75C13.775 14.1333 13.6167 14.45 13.3 14.7ZM17.05 20.675C15.5167 21.5583 13.8333 22 12 22C10.1667 22 8.48333 21.5583 6.95 20.675C5.41667 19.7917 4.20833 18.5833 3.325 17.05C2.44167 15.5167 2 13.8333 2 12C2 10.1667 2.44167 8.48333 3.325 6.95C4.20833 5.41667 5.41667 4.20833 6.95 3.325C8.48333 2.44167 10.1667 2 12 2C13.8333 2 15.5167 2.44167 17.05 3.325C18.5833 4.20833 19.7917 5.41667 20.675 6.95C21.5583 8.48333 22 10.1667 22 12C22 13.8333 21.5583 15.5167 20.675 17.05C19.7917 18.5833 18.5833 19.7917 17.05 20.675Z" fill="black"/>
</g>
<defs>
<clipPath id="clip0_3234_11286">
<rect width="24" height="24" fill="white"/>
</clipPath>
</defs>
</svg>
