<svg width="24" height="24" viewBox="0 0 24 24" fill="none" xmlns="http://www.w3.org/2000/svg">
<g clip-path="url(#clip0_3234_11266)">
<rect width="24" height="24" fill="white"/>
<path d="M12.0005 22C10.1672 22 8.48382 21.5583 6.95049 20.675C5.41716 19.7917 4.20882 18.5833 3.32549 17.05C2.44216 15.5167 2.00049 13.8333 2.00049 12C2.00049 10.1667 2.44216 8.48333 3.32549 6.95C4.20882 5.41667 5.41716 4.20833 6.95049 3.325C8.48382 2.44167 10.1672 2 12.0005 2C13.8338 2 15.5172 2.44167 17.0505 3.325C18.5838 4.20833 19.7922 5.41667 20.6755 6.95C21.5588 8.48333 22.0005 10.1667 22.0005 12C22.0005 13.8333 21.5588 15.5167 20.6755 17.05C19.7922 18.5833 18.5838 19.7917 17.0505 20.675C15.5172 21.5583 13.8338 22 12.0005 22ZM12.0005 21.075C13.6672 21.075 15.1838 20.675 16.5505 19.875C17.9338 19.075 19.0255 17.9833 19.8255 16.6C20.6255 15.2 21.0255 13.6667 21.0255 12C21.0255 10.3333 20.6255 8.80833 19.8255 7.425C19.0255 6.025 17.9338 4.925 16.5505 4.125C15.1838 3.325 13.6672 2.925 12.0005 2.925C10.3338 2.925 8.80882 3.325 7.42549 4.125C6.05882 4.925 4.97549 6.025 4.17549 7.425C3.37549 8.80833 2.97549 10.3333 2.97549 12C2.97549 13.6667 3.37549 15.2 4.17549 16.6C4.97549 17.9833 6.05882 19.075 7.42549 19.875C8.80882 20.675 10.3338 21.075 12.0005 21.075ZM11.9505 17C10.7505 17 9.83382 16.575 9.20049 15.725C8.58382 14.875 8.27549 13.6333 8.27549 12C8.27549 10.3 8.60882 9.03333 9.27549 8.2C9.94216 7.35 10.8672 6.925 12.0505 6.925C12.7172 6.925 13.3338 7.075 13.9005 7.375C14.4672 7.65833 14.9005 8.10833 15.2005 8.725L14.4505 9.175C14.2172 8.70833 13.8922 8.36667 13.4755 8.15C13.0755 7.91667 12.6088 7.8 12.0755 7.8C10.9922 7.8 10.2338 8.225 9.80049 9.075C9.36716 9.925 9.17549 11.075 9.22549 12.525C9.42549 11.9417 9.76716 11.4917 10.2505 11.175C10.7505 10.8417 11.3588 10.675 12.0755 10.675C13.0255 10.675 13.8172 10.9667 14.4505 11.55C15.0838 12.1167 15.4005 12.8583 15.4005 13.775C15.4005 14.725 15.0755 15.5 14.4255 16.1C13.7922 16.7 12.9672 17 11.9505 17ZM11.9505 16.15C12.7005 16.15 13.3088 15.9333 13.7755 15.5C14.2422 15.05 14.4755 14.4833 14.4755 13.8C14.4755 13.1167 14.2422 12.5667 13.7755 12.15C13.3255 11.7167 12.7172 11.5 11.9505 11.5C11.2172 11.5 10.6172 11.7167 10.1505 12.15C9.70049 12.5667 9.47549 13.1167 9.47549 13.8C9.47549 14.4667 9.69216 15.025 10.1255 15.475C10.5755 15.925 11.1838 16.15 11.9505 16.15Z" fill="black"/>
</g>
<defs>
<clipPath id="clip0_3234_11266">
<rect width="24" height="24" fill="white"/>
</clipPath>
</defs>
</svg>
