<svg width="24" height="24" viewBox="0 0 24 24" fill="none" xmlns="http://www.w3.org/2000/svg">
<g clip-path="url(#clip0_3254_18708)">
<rect width="24" height="24" fill="white"/>
<path d="M9.375 15.7C10.075 16.5667 11.0583 17 12.325 17C13.3583 17 14.2167 16.7 14.9 16.1C15.5833 15.4833 15.925 14.7 15.925 13.75C15.925 12.7833 15.6 12 14.95 11.4C14.3 10.8 13.5 10.5 12.55 10.5C12.0333 10.5 11.5667 10.5917 11.15 10.775C10.7333 10.9583 10.3833 11.2333 10.1 11.6C10.15 10.5 10.3833 9.725 10.8 9.275C11.2167 8.80833 11.75 8.575 12.4 8.575C12.8333 8.575 13.2083 8.65833 13.525 8.825C13.8583 8.99167 14.125 9.26667 14.325 9.65L15.75 8.775C15.4167 8.14167 14.9417 7.675 14.325 7.375C13.725 7.075 13.075 6.925 12.375 6.925C11.1083 6.925 10.1167 7.35833 9.4 8.225C8.68333 9.09167 8.325 10.3333 8.325 11.95C8.325 13.5667 8.675 14.8167 9.375 15.7ZM13.6 14.925C13.25 15.2417 12.8083 15.4 12.275 15.4C11.7417 15.4 11.2917 15.25 10.925 14.95C10.575 14.6333 10.4 14.2333 10.4 13.75C10.4 13.2333 10.575 12.825 10.925 12.525C11.275 12.2083 11.725 12.05 12.275 12.05C12.8083 12.05 13.25 12.2083 13.6 12.525C13.9667 12.8417 14.15 13.25 14.15 13.75C14.15 14.2167 13.9667 14.6083 13.6 14.925ZM17.05 20.675C15.5167 21.5583 13.8333 22 12 22C10.1667 22 8.48333 21.5583 6.95 20.675C5.41667 19.7917 4.20833 18.5833 3.325 17.05C2.44167 15.5167 2 13.8333 2 12C2 10.1667 2.44167 8.48333 3.325 6.95C4.20833 5.41667 5.41667 4.20833 6.95 3.325C8.48333 2.44167 10.1667 2 12 2C13.8333 2 15.5167 2.44167 17.05 3.325C18.5833 4.20833 19.7917 5.41667 20.675 6.95C21.5583 8.48333 22 10.1667 22 12C22 13.8333 21.5583 15.5167 20.675 17.05C19.7917 18.5833 18.5833 19.7917 17.05 20.675Z" fill="black"/>
</g>
<defs>
<clipPath id="clip0_3254_18708">
<rect width="24" height="24" fill="white"/>
</clipPath>
</defs>
</svg>
