<svg width="24" height="24" viewBox="0 0 24 24" fill="none" xmlns="http://www.w3.org/2000/svg">
<g clip-path="url(#clip0_3375_6386)">
<rect width="24" height="24" fill="white"/>
<path d="M9.175 15.75C9.925 16.6333 10.9583 17.075 12.275 17.075C13.375 17.075 14.2833 16.775 15 16.175C15.7167 15.5583 16.075 14.7583 16.075 13.775C16.075 12.7917 15.75 12 15.1 11.4C14.45 10.8 13.6167 10.5 12.6 10.5C12.15 10.5 11.7333 10.575 11.35 10.725C10.9667 10.875 10.6333 11.1 10.35 11.4C10.4 10.5 10.6167 9.86667 11 9.5C11.4 9.13333 11.8833 8.95 12.45 8.95C12.9167 8.95 13.3333 9.01667 13.7 9.15C14.0833 9.26667 14.4167 9.475 14.7 9.775L15.85 8.225C15.4667 7.75833 14.9667 7.41667 14.35 7.2C13.75 6.96667 13.1083 6.85 12.425 6.85C11.0417 6.85 9.96667 7.29167 9.2 8.175C8.43333 9.05833 8.05 10.3167 8.05 11.95C8.05 13.5833 8.425 14.85 9.175 15.75ZM13.375 14.7C13.0583 14.95 12.6833 15.075 12.25 15.075C11.7833 15.075 11.3917 14.9583 11.075 14.725C10.7583 14.475 10.6 14.15 10.6 13.75C10.6 13.3333 10.75 13 11.05 12.75C11.35 12.5 11.7417 12.375 12.225 12.375C12.675 12.375 13.0583 12.5 13.375 12.75C13.6917 13 13.85 13.3333 13.85 13.75C13.85 14.1333 13.6917 14.45 13.375 14.7ZM19.25 20.55C18.7167 20.85 18.1333 21 17.5 21H6.5C5.86667 21 5.275 20.85 4.725 20.55C4.19167 20.2333 3.76667 19.8083 3.45 19.275C3.15 18.725 3 18.1333 3 17.5V6.5C3 5.86667 3.15 5.28333 3.45 4.75C3.76667 4.2 4.19167 3.775 4.725 3.475C5.275 3.15833 5.86667 3 6.5 3H17.5C18.1333 3 18.7167 3.15833 19.25 3.475C19.8 3.775 20.225 4.2 20.525 4.75C20.8417 5.28333 21 5.86667 21 6.5V17.5C21 18.1333 20.8417 18.725 20.525 19.275C20.225 19.8083 19.8 20.2333 19.25 20.55Z" fill="black"/>
</g>
<defs>
<clipPath id="clip0_3375_6386">
<rect width="24" height="24" fill="white"/>
</clipPath>
</defs>
</svg>
