<svg width="24" height="24" viewBox="0 0 24 24" fill="none" xmlns="http://www.w3.org/2000/svg">
<g clip-path="url(#clip0_3254_19600)">
<rect width="24" height="24" fill="white"/>
<path d="M6.67549 21C5.99216 21 5.36716 20.8417 4.80049 20.525C4.25049 20.1917 3.80882 19.75 3.47549 19.2C3.15882 18.6333 3.00049 18.0083 3.00049 17.325V6.675C3.00049 5.99167 3.15882 5.36667 3.47549 4.8C3.80882 4.23333 4.25049 3.79167 4.80049 3.475C5.36716 3.15833 5.99216 3 6.67549 3H17.3255C18.0088 3 18.6338 3.15833 19.2005 3.475C19.7672 3.79167 20.2088 4.23333 20.5255 4.8C20.8422 5.36667 21.0005 5.99167 21.0005 6.675V17.325C21.0005 18.0083 20.8422 18.6333 20.5255 19.2C20.2088 19.75 19.7672 20.1917 19.2005 20.525C18.6338 20.8417 18.0088 21 17.3255 21H6.67549ZM17.3255 20.075C18.0755 20.075 18.7088 19.8083 19.2255 19.275C19.7588 18.7417 20.0255 18.0917 20.0255 17.325V6.675C20.0255 5.90833 19.7588 5.25833 19.2255 4.725C18.7088 4.19167 18.0755 3.925 17.3255 3.925H6.67549C5.92549 3.925 5.28382 4.19167 4.75049 4.725C4.23382 5.25833 3.97549 5.90833 3.97549 6.675V17.325C3.97549 18.0917 4.23382 18.7417 4.75049 19.275C5.28382 19.8083 5.92549 20.075 6.67549 20.075H17.3255ZM11.9505 17C10.7505 17 9.83382 16.575 9.20049 15.725C8.58382 14.875 8.27549 13.6333 8.27549 12C8.27549 10.3 8.60882 9.03333 9.27549 8.2C9.94216 7.35 10.8672 6.925 12.0505 6.925C12.7172 6.925 13.3338 7.075 13.9005 7.375C14.4672 7.65833 14.9005 8.10833 15.2005 8.725L14.4505 9.175C14.2172 8.70833 13.8922 8.36667 13.4755 8.15C13.0755 7.91667 12.6088 7.8 12.0755 7.8C10.9922 7.8 10.2338 8.225 9.80049 9.075C9.36716 9.925 9.17549 11.075 9.22549 12.525C9.42549 11.9417 9.76716 11.4917 10.2505 11.175C10.7505 10.8417 11.3588 10.675 12.0755 10.675C13.0255 10.675 13.8172 10.9667 14.4505 11.55C15.0838 12.1167 15.4005 12.8583 15.4005 13.775C15.4005 14.725 15.0755 15.5 14.4255 16.1C13.7922 16.7 12.9672 17 11.9505 17ZM11.9505 16.15C12.7005 16.15 13.3088 15.9333 13.7755 15.5C14.2422 15.05 14.4755 14.4833 14.4755 13.8C14.4755 13.1167 14.2422 12.5667 13.7755 12.15C13.3255 11.7167 12.7172 11.5 11.9505 11.5C11.2172 11.5 10.6172 11.7167 10.1505 12.15C9.70049 12.5667 9.47549 13.1167 9.47549 13.8C9.47549 14.4667 9.69216 15.025 10.1255 15.475C10.5755 15.925 11.1838 16.15 11.9505 16.15Z" fill="black"/>
</g>
<defs>
<clipPath id="clip0_3254_19600">
<rect width="24" height="24" fill="white"/>
</clipPath>
</defs>
</svg>
