<svg width="24" height="24" viewBox="0 0 24 24" fill="none" xmlns="http://www.w3.org/2000/svg">
<g clip-path="url(#clip0_3375_6374)">
<rect width="24" height="24" fill="white"/>
<path d="M7.37549 21C6.57549 21 5.84216 20.8083 5.17549 20.425C4.50882 20.025 3.97549 19.4917 3.57549 18.825C3.19216 18.1583 3.00049 17.425 3.00049 16.625V7.375C3.00049 6.575 3.19216 5.84167 3.57549 5.175C3.97549 4.50833 4.50882 3.98333 5.17549 3.6C5.84216 3.2 6.57549 3 7.37549 3H16.4255C17.2755 3 18.0505 3.2 18.7505 3.6C19.4505 3.98333 20.0005 4.50833 20.4005 5.175C20.8005 5.84167 21.0005 6.575 21.0005 7.375V16.625C21.0005 17.425 20.8005 18.1583 20.4005 18.825C20.0172 19.4917 19.4922 20.025 18.8255 20.425C18.1588 20.8083 17.4255 21 16.6255 21H7.37549ZM16.6255 18.05C17.0088 18.05 17.3338 17.9167 17.6005 17.65C17.8672 17.3667 18.0005 17.025 18.0005 16.625V7.375C18.0005 6.975 17.8672 6.64167 17.6005 6.375C17.3338 6.09167 17.0088 5.95 16.6255 5.95H7.37549C6.99216 5.95 6.65882 6.09167 6.37549 6.375C6.10882 6.64167 5.97549 6.975 5.97549 7.375V16.625C5.97549 17.025 6.10882 17.3667 6.37549 17.65C6.65882 17.9167 6.99216 18.05 7.37549 18.05H16.6255ZM12.1005 17.025C10.7672 17.025 9.70882 16.5833 8.92549 15.7C8.15882 14.8 7.77549 13.55 7.77549 11.95C7.77549 10.3667 8.16716 9.13333 8.95049 8.25C9.75049 7.36667 10.8672 6.925 12.3005 6.925C12.9505 6.925 13.5672 7 14.1505 7.15C14.7338 7.3 15.2505 7.525 15.7005 7.825L14.8255 9.975C14.4922 9.75833 14.1088 9.60833 13.6755 9.525C13.2588 9.425 12.8172 9.375 12.3505 9.375C11.9005 9.375 11.4922 9.51667 11.1255 9.8C10.7755 10.0833 10.5588 10.575 10.4755 11.275C10.7588 11.025 11.0755 10.85 11.4255 10.75C11.7755 10.6333 12.1422 10.575 12.5255 10.575C13.5588 10.575 14.3838 10.8667 15.0005 11.45C15.6338 12.0167 15.9505 12.7917 15.9505 13.775C15.9505 14.725 15.5922 15.5083 14.8755 16.125C14.1588 16.725 13.2338 17.025 12.1005 17.025ZM12.0505 14.725C12.4338 14.725 12.7505 14.6333 13.0005 14.45C13.2505 14.25 13.3755 14.0083 13.3755 13.725C13.3755 13.3917 13.2505 13.125 13.0005 12.925C12.7505 12.725 12.4338 12.625 12.0505 12.625C11.6505 12.625 11.3255 12.725 11.0755 12.925C10.8255 13.125 10.7005 13.3917 10.7005 13.725C10.7005 14.0083 10.8255 14.25 11.0755 14.45C11.3255 14.6333 11.6505 14.725 12.0505 14.725Z" fill="black"/>
</g>
<defs>
<clipPath id="clip0_3375_6374">
<rect width="24" height="24" fill="white"/>
</clipPath>
</defs>
</svg>
