<svg width="24" height="24" viewBox="0 0 24 24" fill="none" xmlns="http://www.w3.org/2000/svg">
<g clip-path="url(#clip0_3375_6560)">
<rect width="24" height="24" fill="white"/>
<path d="M12.0005 22C10.1672 22 8.48382 21.5583 6.95049 20.675C5.41716 19.7917 4.20882 18.5833 3.32549 17.05C2.44216 15.5167 2.00049 13.8333 2.00049 12C2.00049 10.1667 2.44216 8.48333 3.32549 6.95C4.20882 5.41667 5.41716 4.20833 6.95049 3.325C8.48382 2.44167 10.1672 2 12.0005 2C13.8338 2 15.5172 2.44167 17.0505 3.325C18.5838 4.20833 19.7922 5.41667 20.6755 6.95C21.5588 8.48333 22.0005 10.1667 22.0005 12C22.0005 13.8333 21.5588 15.5167 20.6755 17.05C19.7922 18.5833 18.5838 19.7917 17.0505 20.675C15.5172 21.5583 13.8338 22 12.0005 22ZM12.0005 19.075C13.3005 19.075 14.4838 18.7667 15.5505 18.15C16.6338 17.5167 17.4838 16.6583 18.1005 15.575C18.7172 14.4917 19.0255 13.3 19.0255 12C19.0255 10.7 18.7172 9.50833 18.1005 8.425C17.4838 7.34167 16.6338 6.49167 15.5505 5.875C14.4838 5.24167 13.3005 4.925 12.0005 4.925C10.7005 4.925 9.50882 5.24167 8.42549 5.875C7.35882 6.49167 6.51716 7.34167 5.90049 8.425C5.28382 9.50833 4.97549 10.7 4.97549 12C4.97549 13.3 5.28382 14.4917 5.90049 15.575C6.51716 16.6583 7.35882 17.5167 8.42549 18.15C9.50882 18.7667 10.7005 19.075 12.0005 19.075ZM12.0255 17.025C10.7755 17.025 9.78382 16.7583 9.05049 16.225C8.31716 15.6917 7.95049 14.975 7.95049 14.075C7.95049 13.5583 8.08382 13.1167 8.35049 12.75C8.61716 12.3833 8.96716 12.0917 9.40049 11.875C9.01716 11.6417 8.71716 11.3583 8.50049 11.025C8.28382 10.675 8.17549 10.275 8.17549 9.825C8.17549 8.94167 8.51716 8.24167 9.20049 7.725C9.90049 7.20833 10.8422 6.95 12.0255 6.95C13.1922 6.95 14.1172 7.21667 14.8005 7.75C15.5005 8.26667 15.8505 8.95833 15.8505 9.825C15.8505 10.2917 15.7422 10.6917 15.5255 11.025C15.3255 11.3583 15.0338 11.6333 14.6505 11.85C15.1005 12.0833 15.4505 12.3833 15.7005 12.75C15.9505 13.1167 16.0755 13.5583 16.0755 14.075C16.0755 14.9917 15.7172 15.7167 15.0005 16.25C14.2838 16.7667 13.2922 17.025 12.0255 17.025ZM12.0255 14.825C12.4755 14.825 12.8172 14.7417 13.0505 14.575C13.2838 14.3917 13.4005 14.15 13.4005 13.85C13.4005 13.5167 13.2838 13.2667 13.0505 13.1C12.8338 12.9333 12.4922 12.85 12.0255 12.85C11.5922 12.85 11.2422 12.9333 10.9755 13.1C10.7255 13.2667 10.6005 13.5167 10.6005 13.85C10.6005 14.1333 10.7255 14.3667 10.9755 14.55C11.2422 14.7333 11.5922 14.825 12.0255 14.825ZM12.0255 10.95C12.3922 10.95 12.6755 10.8667 12.8755 10.7C13.0755 10.5333 13.1755 10.3083 13.1755 10.025C13.1755 9.775 13.0755 9.575 12.8755 9.425C12.6755 9.25833 12.3922 9.175 12.0255 9.175C11.6588 9.175 11.3672 9.25833 11.1505 9.425C10.9338 9.575 10.8255 9.775 10.8255 10.025C10.8255 10.3083 10.9255 10.5333 11.1255 10.7C11.3422 10.8667 11.6422 10.95 12.0255 10.95Z" fill="black"/>
</g>
<defs>
<clipPath id="clip0_3375_6560">
<rect width="24" height="24" fill="white"/>
</clipPath>
</defs>
</svg>
