<svg width="24" height="24" viewBox="0 0 24 24" fill="none" xmlns="http://www.w3.org/2000/svg">
<g clip-path="url(#clip0_3375_6422)">
<rect width="24" height="24" fill="white"/>
<path d="M7.00049 21C6.26716 21 5.59216 20.825 4.97549 20.475C4.35882 20.125 3.87549 19.6417 3.52549 19.025C3.17549 18.4083 3.00049 17.7333 3.00049 17V7C3.00049 6.26667 3.17549 5.59167 3.52549 4.975C3.87549 4.35833 4.35882 3.875 4.97549 3.525C5.59216 3.175 6.26716 3 7.00049 3H17.0005C17.7338 3 18.4088 3.175 19.0255 3.525C19.6422 3.875 20.1255 4.35833 20.4755 4.975C20.8255 5.59167 21.0005 6.26667 21.0005 7V17C21.0005 17.7333 20.8255 18.4083 20.4755 19.025C20.1255 19.6417 19.6422 20.125 19.0255 20.475C18.4088 20.825 17.7338 21 17.0005 21H7.00049ZM17.0005 19.15C17.5838 19.15 18.0755 18.9417 18.4755 18.525C18.8922 18.1083 19.1005 17.6 19.1005 17V7C19.1005 6.4 18.8922 5.89167 18.4755 5.475C18.0755 5.05833 17.5838 4.85 17.0005 4.85H7.00049C6.41716 4.85 5.91716 5.05833 5.50049 5.475C5.10049 5.89167 4.90049 6.4 4.90049 7V17C4.90049 17.6 5.10049 18.1083 5.50049 18.525C5.91716 18.9417 6.41716 19.15 7.00049 19.15H17.0005ZM12.0005 17C10.8505 17 9.92549 16.7417 9.22549 16.225C8.54216 15.6917 8.20049 14.9917 8.20049 14.125C8.20049 13.575 8.35049 13.1083 8.65049 12.725C8.95049 12.3417 9.35049 12.0417 9.85049 11.825C9.40049 11.5917 9.05049 11.3 8.80049 10.95C8.55049 10.6 8.42549 10.175 8.42549 9.675C8.42549 8.84167 8.75049 8.175 9.40049 7.675C10.0672 7.175 10.9338 6.925 12.0005 6.925C13.0672 6.925 13.9255 7.175 14.5755 7.675C15.2422 8.175 15.5755 8.84167 15.5755 9.675C15.5755 10.175 15.4505 10.6 15.2005 10.95C14.9505 11.3 14.6088 11.5833 14.1755 11.8C14.6755 12.0333 15.0672 12.3417 15.3505 12.725C15.6505 13.1083 15.8005 13.575 15.8005 14.125C15.8005 14.9917 15.4505 15.6917 14.7505 16.225C14.0672 16.7417 13.1505 17 12.0005 17ZM12.0005 15.425C12.6005 15.425 13.0838 15.3 13.4505 15.05C13.8172 14.7833 14.0005 14.4333 14.0005 14C14.0005 13.55 13.8172 13.1917 13.4505 12.925C13.1005 12.6417 12.6172 12.5 12.0005 12.5C11.4172 12.5 10.9338 12.6417 10.5505 12.925C10.1838 13.1917 10.0005 13.55 10.0005 14C10.0005 14.4167 10.1838 14.7583 10.5505 15.025C10.9338 15.2917 11.4172 15.425 12.0005 15.425ZM12.0005 11.2C12.5338 11.2 12.9588 11.075 13.2755 10.825C13.6088 10.5583 13.7755 10.2167 13.7755 9.8C13.7755 9.41667 13.6088 9.10833 13.2755 8.875C12.9588 8.625 12.5338 8.5 12.0005 8.5C11.4672 8.5 11.0338 8.625 10.7005 8.875C10.3838 9.10833 10.2255 9.41667 10.2255 9.8C10.2255 10.2167 10.3838 10.5583 10.7005 10.825C11.0338 11.075 11.4672 11.2 12.0005 11.2Z" fill="black"/>
</g>
<defs>
<clipPath id="clip0_3375_6422">
<rect width="24" height="24" fill="white"/>
</clipPath>
</defs>
</svg>
