<svg width="24" height="24" viewBox="0 0 24 24" fill="none" xmlns="http://www.w3.org/2000/svg">
<g clip-path="url(#clip0_3375_6440)">
<rect width="24" height="24" fill="white"/>
<path d="M8.925 16.35C9.69167 16.9 10.725 17.175 12.025 17.175C13.325 17.175 14.3417 16.9083 15.075 16.375C15.825 15.825 16.2 15.0667 16.2 14.1C16.2 13.5833 16.0667 13.1417 15.8 12.775C15.55 12.3917 15.2 12.075 14.75 11.825C15.1333 11.5917 15.4333 11.3083 15.65 10.975C15.8667 10.625 15.975 10.2167 15.975 9.75C15.975 8.85 15.6167 8.125 14.9 7.575C14.1833 7.025 13.225 6.75 12.025 6.75C10.7917 6.75 9.81667 7.01667 9.1 7.55C8.38333 8.08333 8.025 8.81667 8.025 9.75C8.025 10.2167 8.13333 10.625 8.35 10.975C8.58333 11.3083 8.9 11.6 9.3 11.85C8.85 12.0833 8.48333 12.3917 8.2 12.775C7.91667 13.1417 7.775 13.5833 7.775 14.1C7.775 15.05 8.15833 15.8 8.925 16.35ZM13.05 14.625C12.8167 14.8083 12.475 14.9 12.025 14.9C11.575 14.9 11.2167 14.8083 10.95 14.625C10.7 14.4417 10.575 14.2 10.575 13.9C10.575 13.5667 10.7 13.3083 10.95 13.125C11.2167 12.9417 11.575 12.85 12.025 12.85C12.4917 12.85 12.8417 12.9417 13.075 13.125C13.3083 13.2917 13.425 13.55 13.425 13.9C13.425 14.2 13.3 14.4417 13.05 14.625ZM12.875 10.65C12.675 10.8167 12.3917 10.9 12.025 10.9C11.625 10.9 11.3167 10.8167 11.1 10.65C10.9 10.4667 10.8 10.225 10.8 9.925C10.8 9.675 10.9083 9.475 11.125 9.325C11.3583 9.15833 11.6583 9.075 12.025 9.075C12.3917 9.075 12.675 9.15833 12.875 9.325C13.0917 9.475 13.2 9.675 13.2 9.925C13.2 10.225 13.0917 10.4667 12.875 10.65ZM19.25 20.55C18.7167 20.85 18.1333 21 17.5 21H6.5C5.86667 21 5.275 20.85 4.725 20.55C4.19167 20.2333 3.76667 19.8083 3.45 19.275C3.15 18.725 3 18.1333 3 17.5V6.5C3 5.86667 3.15 5.28333 3.45 4.75C3.76667 4.2 4.19167 3.775 4.725 3.475C5.275 3.15833 5.86667 3 6.5 3H17.5C18.1333 3 18.7167 3.15833 19.25 3.475C19.8 3.775 20.225 4.2 20.525 4.75C20.8417 5.28333 21 5.86667 21 6.5V17.5C21 18.1333 20.8417 18.725 20.525 19.275C20.225 19.8083 19.8 20.2333 19.25 20.55Z" fill="black"/>
</g>
<defs>
<clipPath id="clip0_3375_6440">
<rect width="24" height="24" fill="white"/>
</clipPath>
</defs>
</svg>
