<svg width="24" height="24" viewBox="0 0 24 24" fill="none" xmlns="http://www.w3.org/2000/svg">
<g clip-path="url(#clip0_3375_6576)">
<rect width="24" height="24" fill="white"/>
<path d="M8.775 16.45C9.575 17 10.6583 17.275 12.025 17.275C13.4083 17.275 14.4833 17 15.25 16.45C16.0167 15.9 16.4 15.125 16.4 14.125C16.4 13.625 16.275 13.1833 16.025 12.8C15.7917 12.4167 15.4583 12.1 15.025 11.85C15.3917 11.6 15.675 11.3083 15.875 10.975C16.075 10.625 16.175 10.225 16.175 9.775C16.175 8.84167 15.8 8.09167 15.05 7.525C14.3167 6.95833 13.3083 6.675 12.025 6.675C10.725 6.675 9.7 6.95 8.95 7.5C8.2 8.05 7.825 8.80833 7.825 9.775C7.825 10.225 7.925 10.625 8.125 10.975C8.34167 11.3083 8.64167 11.6 9.025 11.85C8.59167 12.1 8.24167 12.4167 7.975 12.8C7.70833 13.1833 7.575 13.625 7.575 14.125C7.575 15.1083 7.975 15.8833 8.775 16.45ZM12.875 14.5C12.6583 14.6333 12.3667 14.7 12 14.7C11.6167 14.7 11.3167 14.6333 11.1 14.5C10.9 14.35 10.8 14.1417 10.8 13.875C10.8 13.6083 10.9083 13.4 11.125 13.25C11.3417 13.0833 11.6333 13 12 13C12.3667 13 12.6583 13.0833 12.875 13.25C13.0917 13.4 13.2 13.6083 13.2 13.875C13.2 14.1417 13.0917 14.35 12.875 14.5ZM12.7 10.575C12.5333 10.725 12.3 10.8 12 10.8C11.7 10.8 11.4583 10.725 11.275 10.575C11.1083 10.425 11.025 10.2333 11.025 10C11.025 9.78333 11.1083 9.61667 11.275 9.5C11.4583 9.36667 11.7 9.3 12 9.3C12.3 9.3 12.5333 9.36667 12.7 9.5C12.8833 9.61667 12.975 9.78333 12.975 10C12.975 10.2333 12.8833 10.425 12.7 10.575ZM17.05 20.675C15.5167 21.5583 13.8333 22 12 22C10.1667 22 8.48333 21.5583 6.95 20.675C5.41667 19.7917 4.20833 18.5833 3.325 17.05C2.44167 15.5167 2 13.8333 2 12C2 10.1667 2.44167 8.48333 3.325 6.95C4.20833 5.41667 5.41667 4.20833 6.95 3.325C8.48333 2.44167 10.1667 2 12 2C13.8333 2 15.5167 2.44167 17.05 3.325C18.5833 4.20833 19.7917 5.41667 20.675 6.95C21.5583 8.48333 22 10.1667 22 12C22 13.8333 21.5583 15.5167 20.675 17.05C19.7917 18.5833 18.5833 19.7917 17.05 20.675Z" fill="black"/>
</g>
<defs>
<clipPath id="clip0_3375_6576">
<rect width="24" height="24" fill="white"/>
</clipPath>
</defs>
</svg>
