<svg width="24" height="24" viewBox="0 0 24 24" fill="none" xmlns="http://www.w3.org/2000/svg">
<g clip-path="url(#clip0_3375_6570)">
<rect width="24" height="24" fill="white"/>
<path d="M9.225 16.25C9.925 16.7667 10.85 17.025 12 17.025C13.15 17.025 14.0667 16.7667 14.75 16.25C15.45 15.7167 15.8 15.0167 15.8 14.15C15.8 13.6 15.65 13.1333 15.35 12.75C15.0667 12.3667 14.675 12.0583 14.175 11.825C14.6083 11.6083 14.95 11.325 15.2 10.975C15.45 10.625 15.575 10.2 15.575 9.7C15.575 8.86667 15.2417 8.2 14.575 7.7C13.925 7.2 13.0667 6.95 12 6.95C10.9333 6.95 10.0667 7.2 9.4 7.7C8.75 8.2 8.425 8.86667 8.425 9.7C8.425 10.2 8.55 10.625 8.8 10.975C9.05 11.325 9.4 11.6167 9.85 11.85C9.35 12.0667 8.95 12.3667 8.65 12.75C8.35 13.1333 8.2 13.6 8.2 14.15C8.2 15.0167 8.54167 15.7167 9.225 16.25ZM13.45 15.075C13.0833 15.325 12.6 15.45 12 15.45C11.4167 15.45 10.9333 15.3167 10.55 15.05C10.1833 14.7833 10 14.4417 10 14.025C10 13.575 10.1833 13.2167 10.55 12.95C10.9333 12.6667 11.4167 12.525 12 12.525C12.6167 12.525 13.1 12.6667 13.45 12.95C13.8167 13.2167 14 13.575 14 14.025C14 14.4583 13.8167 14.8083 13.45 15.075ZM13.275 10.85C12.9583 11.1 12.5333 11.225 12 11.225C11.4667 11.225 11.0333 11.1 10.7 10.85C10.3833 10.5833 10.225 10.2417 10.225 9.825C10.225 9.44167 10.3833 9.13333 10.7 8.9C11.0333 8.65 11.4667 8.525 12 8.525C12.5333 8.525 12.9583 8.65 13.275 8.9C13.6083 9.13333 13.775 9.44167 13.775 9.825C13.775 10.2417 13.6083 10.5833 13.275 10.85ZM17.05 20.675C15.5167 21.5583 13.8333 22 12 22C10.1667 22 8.48333 21.5583 6.95 20.675C5.41667 19.7917 4.20833 18.5833 3.325 17.05C2.44167 15.5167 2 13.8333 2 12C2 10.1667 2.44167 8.48333 3.325 6.95C4.20833 5.41667 5.41667 4.20833 6.95 3.325C8.48333 2.44167 10.1667 2 12 2C13.8333 2 15.5167 2.44167 17.05 3.325C18.5833 4.20833 19.7917 5.41667 20.675 6.95C21.5583 8.48333 22 10.1667 22 12C22 13.8333 21.5583 15.5167 20.675 17.05C19.7917 18.5833 18.5833 19.7917 17.05 20.675Z" fill="black"/>
</g>
<defs>
<clipPath id="clip0_3375_6570">
<rect width="24" height="24" fill="white"/>
</clipPath>
</defs>
</svg>
