<svg width="24" height="24" viewBox="0 0 24 24" fill="none" xmlns="http://www.w3.org/2000/svg">
<g clip-path="url(#clip0_3254_19654)">
<rect width="24" height="24" fill="white"/>
<path d="M6.82549 21C6.12549 21 5.47549 20.8333 4.87549 20.5C4.29216 20.1667 3.83382 19.7083 3.50049 19.125C3.16716 18.525 3.00049 17.875 3.00049 17.175V6.825C3.00049 6.125 3.16716 5.48333 3.50049 4.9C3.83382 4.3 4.29216 3.83333 4.87549 3.5C5.47549 3.16667 6.12549 3 6.82549 3H17.1755C17.8755 3 18.5172 3.16667 19.1005 3.5C19.7005 3.83333 20.1672 4.3 20.5005 4.9C20.8338 5.48333 21.0005 6.125 21.0005 6.825V17.175C21.0005 17.875 20.8338 18.525 20.5005 19.125C20.1672 19.7083 19.7005 20.1667 19.1005 20.5C18.5172 20.8333 17.8755 21 17.1755 21H6.82549ZM17.1755 19.6C17.8422 19.6 18.4088 19.3667 18.8755 18.9C19.3422 18.4333 19.5755 17.8583 19.5755 17.175V6.825C19.5755 6.14167 19.3422 5.56667 18.8755 5.1C18.4088 4.63333 17.8422 4.4 17.1755 4.4H6.82549C6.15882 4.4 5.59216 4.63333 5.12549 5.1C4.65882 5.56667 4.42549 6.14167 4.42549 6.825V17.175C4.42549 17.8583 4.65882 18.4333 5.12549 18.9C5.59216 19.3667 6.15882 19.6 6.82549 19.6H17.1755ZM12.0005 17C10.9005 17 10.0088 16.7417 9.32549 16.225C8.65882 15.7083 8.32549 15.025 8.32549 14.175C8.32549 13.6083 8.48382 13.125 8.80049 12.725C9.13382 12.325 9.57549 12.0167 10.1255 11.8C9.62549 11.6 9.23382 11.3167 8.95049 10.95C8.68382 10.5833 8.55049 10.1333 8.55049 9.6C8.55049 8.8 8.86716 8.15833 9.50049 7.675C10.1505 7.175 10.9838 6.925 12.0005 6.925C13.0338 6.925 13.8672 7.16667 14.5005 7.65C15.1338 8.13333 15.4505 8.78333 15.4505 9.6C15.4505 10.1333 15.3088 10.5833 15.0255 10.95C14.7588 11.3167 14.3922 11.6 13.9255 11.8C14.4588 12.0167 14.8838 12.325 15.2005 12.725C15.5172 13.125 15.6755 13.6083 15.6755 14.175C15.6755 15.025 15.3338 15.7083 14.6505 16.225C13.9838 16.7417 13.1005 17 12.0005 17ZM12.0005 15.8C12.6838 15.8 13.2422 15.6417 13.6755 15.325C14.1088 15.0083 14.3255 14.5917 14.3255 14.075C14.3255 13.5583 14.1088 13.1417 13.6755 12.825C13.2588 12.5083 12.7005 12.35 12.0005 12.35C11.3172 12.35 10.7588 12.5083 10.3255 12.825C9.90882 13.1417 9.70049 13.5583 9.70049 14.075C9.70049 14.575 9.91716 14.9917 10.3505 15.325C10.7838 15.6417 11.3338 15.8 12.0005 15.8ZM12.0255 11.325C12.6422 11.325 13.1422 11.175 13.5255 10.875C13.9088 10.575 14.1005 10.1833 14.1005 9.7C14.1005 9.23333 13.9088 8.85833 13.5255 8.575C13.1422 8.275 12.6422 8.125 12.0255 8.125C11.3922 8.125 10.8838 8.275 10.5005 8.575C10.1172 8.85833 9.92549 9.23333 9.92549 9.7C9.92549 10.1833 10.1172 10.575 10.5005 10.875C10.8838 11.175 11.3922 11.325 12.0255 11.325Z" fill="black"/>
</g>
<defs>
<clipPath id="clip0_3254_19654">
<rect width="24" height="24" fill="white"/>
</clipPath>
</defs>
</svg>
