<svg width="24" height="24" viewBox="0 0 24 24" fill="none" xmlns="http://www.w3.org/2000/svg">
<g clip-path="url(#clip0_3254_19676)">
<rect width="24" height="24" fill="white"/>
<path d="M8.775 16.425C9.575 16.975 10.6583 17.25 12.025 17.25C13.4083 17.25 14.4833 16.975 15.25 16.425C16.0167 15.875 16.4 15.1 16.4 14.1C16.4 13.6 16.275 13.1667 16.025 12.8C15.7917 12.4167 15.4583 12.1 15.025 11.85C15.3917 11.6 15.675 11.3083 15.875 10.975C16.075 10.625 16.175 10.225 16.175 9.775C16.175 8.84167 15.8 8.09167 15.05 7.525C14.3167 6.95833 13.3083 6.675 12.025 6.675C10.725 6.675 9.7 6.95 8.95 7.5C8.2 8.05 7.825 8.80833 7.825 9.775C7.825 10.225 7.925 10.625 8.125 10.975C8.34167 11.3083 8.64167 11.6 9.025 11.85C8.59167 12.1 8.24167 12.4167 7.975 12.8C7.70833 13.1667 7.575 13.6 7.575 14.1C7.575 15.0833 7.975 15.8583 8.775 16.425ZM12.875 14.425C12.6917 14.5583 12.4083 14.625 12.025 14.625C11.6417 14.625 11.35 14.5583 11.15 14.425C10.95 14.275 10.85 14.0833 10.85 13.85C10.85 13.5667 10.95 13.3583 11.15 13.225C11.35 13.0917 11.6417 13.025 12.025 13.025C12.425 13.025 12.7083 13.0917 12.875 13.225C13.0583 13.3417 13.15 13.55 13.15 13.85C13.15 14.0833 13.0583 14.275 12.875 14.425ZM12.7 10.55C12.55 10.6833 12.325 10.75 12.025 10.75C11.7083 10.75 11.4667 10.6833 11.3 10.55C11.15 10.4167 11.075 10.2333 11.075 10C11.075 9.81667 11.1583 9.66667 11.325 9.55C11.5083 9.41667 11.7417 9.35 12.025 9.35C12.325 9.35 12.55 9.41667 12.7 9.55C12.85 9.66667 12.925 9.81667 12.925 10C12.925 10.2333 12.85 10.4167 12.7 10.55ZM19.25 20.55C18.7167 20.85 18.1333 21 17.5 21H6.5C5.86667 21 5.275 20.85 4.725 20.55C4.19167 20.2333 3.76667 19.8083 3.45 19.275C3.15 18.725 3 18.1333 3 17.5V6.5C3 5.86667 3.15 5.28333 3.45 4.75C3.76667 4.2 4.19167 3.775 4.725 3.475C5.275 3.15833 5.86667 3 6.5 3H17.5C18.1333 3 18.7167 3.15833 19.25 3.475C19.8 3.775 20.225 4.2 20.525 4.75C20.8417 5.28333 21 5.86667 21 6.5V17.5C21 18.1333 20.8417 18.725 20.525 19.275C20.225 19.8083 19.8 20.2333 19.25 20.55Z" fill="black"/>
</g>
<defs>
<clipPath id="clip0_3254_19676">
<rect width="24" height="24" fill="white"/>
</clipPath>
</defs>
</svg>
