<svg width="24" height="24" viewBox="0 0 24 24" fill="none" xmlns="http://www.w3.org/2000/svg">
<g clip-path="url(#clip0_3375_6560)">
<rect width="24" height="24" fill="white"/>
<path d="M12.0005 22C10.1672 22 8.48382 21.5583 6.95049 20.675C5.41716 19.7917 4.20882 18.5833 3.32549 17.05C2.44216 15.5167 2.00049 13.8333 2.00049 12C2.00049 10.1667 2.44216 8.48333 3.32549 6.95C4.20882 5.41667 5.41716 4.20833 6.95049 3.325C8.48382 2.44167 10.1672 2 12.0005 2C13.8338 2 15.5172 2.44167 17.0505 3.325C18.5838 4.20833 19.7922 5.41667 20.6755 6.95C21.5588 8.48333 22.0005 10.1667 22.0005 12C22.0005 13.8333 21.5588 15.5167 20.6755 17.05C19.7922 18.5833 18.5838 19.7917 17.0505 20.675C15.5172 21.5583 13.8338 22 12.0005 22ZM12.0005 19.025C13.2838 19.025 14.4588 18.7167 15.5255 18.1C16.5922 17.4667 17.4338 16.6167 18.0505 15.55C18.6672 14.4833 18.9755 13.3 18.9755 12C18.9755 10.7 18.6672 9.51667 18.0505 8.45C17.4338 7.38333 16.5922 6.54167 15.5255 5.925C14.4588 5.29167 13.2838 4.975 12.0005 4.975C10.7172 4.975 9.54216 5.29167 8.47549 5.925C7.40882 6.54167 6.56716 7.38333 5.95049 8.45C5.33382 9.51667 5.02549 10.7 5.02549 12C5.02549 13.3 5.33382 14.4833 5.95049 15.55C6.56716 16.6167 7.40882 17.4667 8.47549 18.1C9.54216 18.7167 10.7172 19.025 12.0005 19.025ZM12.0255 17.025C10.7755 17.025 9.78382 16.7583 9.05049 16.225C8.31716 15.6917 7.95049 14.975 7.95049 14.075C7.95049 13.5583 8.08382 13.1167 8.35049 12.75C8.61716 12.3833 8.96716 12.0833 9.40049 11.85C9.01716 11.6167 8.71716 11.3333 8.50049 11C8.28382 10.65 8.17549 10.2583 8.17549 9.825C8.17549 8.925 8.51716 8.21667 9.20049 7.7C9.90049 7.18333 10.8422 6.925 12.0255 6.925C13.1922 6.925 14.1172 7.19167 14.8005 7.725C15.5005 8.25833 15.8505 8.95833 15.8505 9.825C15.8505 10.275 15.7422 10.6667 15.5255 11C15.3255 11.3333 15.0338 11.6167 14.6505 11.85C15.1005 12.0833 15.4505 12.3833 15.7005 12.75C15.9505 13.1167 16.0755 13.5583 16.0755 14.075C16.0755 14.9917 15.7172 15.7167 15.0005 16.25C14.2838 16.7667 13.2922 17.025 12.0255 17.025ZM12.0005 14.875C12.4338 14.875 12.7838 14.7833 13.0505 14.6C13.3172 14.4167 13.4505 14.1667 13.4505 13.85C13.4505 13.5333 13.3172 13.2833 13.0505 13.1C12.8005 12.9 12.4505 12.8 12.0005 12.8C11.5838 12.8 11.2422 12.9 10.9755 13.1C10.7088 13.2833 10.5755 13.5333 10.5755 13.85C10.5755 14.1667 10.7088 14.4167 10.9755 14.6C11.2422 14.7833 11.5838 14.875 12.0005 14.875ZM12.0005 10.975C12.3672 10.975 12.6588 10.8917 12.8755 10.725C13.1088 10.5417 13.2255 10.3 13.2255 10C13.2255 9.73333 13.1088 9.525 12.8755 9.375C12.6588 9.20833 12.3672 9.125 12.0005 9.125C11.6338 9.125 11.3422 9.20833 11.1255 9.375C10.9088 9.525 10.8005 9.73333 10.8005 10C10.8005 10.3 10.9088 10.5417 11.1255 10.725C11.3422 10.8917 11.6338 10.975 12.0005 10.975Z" fill="black"/>
</g>
<defs>
<clipPath id="clip0_3375_6560">
<rect width="24" height="24" fill="white"/>
</clipPath>
</defs>
</svg>
