<svg width="24" height="24" viewBox="0 0 24 24" fill="none" xmlns="http://www.w3.org/2000/svg">
<g clip-path="url(#clip0_3375_6426)">
<rect width="24" height="24" fill="white"/>
<path d="M7.37549 21C6.57549 21 5.84216 20.8083 5.17549 20.425C4.50882 20.025 3.97549 19.4917 3.57549 18.825C3.19216 18.1583 3.00049 17.425 3.00049 16.625V7.375C3.00049 6.575 3.19216 5.84167 3.57549 5.175C3.97549 4.50833 4.50882 3.98333 5.17549 3.6C5.84216 3.2 6.57549 3 7.37549 3H16.4255C17.2755 3 18.0505 3.2 18.7505 3.6C19.4505 3.98333 20.0005 4.50833 20.4005 5.175C20.8005 5.84167 21.0005 6.575 21.0005 7.375V16.625C21.0005 17.425 20.8005 18.1583 20.4005 18.825C20.0172 19.4917 19.4922 20.025 18.8255 20.425C18.1588 20.8083 17.4255 21 16.6255 21H7.37549ZM16.6255 18.05C17.0088 18.05 17.3338 17.9167 17.6005 17.65C17.8672 17.3667 18.0005 17.025 18.0005 16.625V7.375C18.0005 6.975 17.8672 6.64167 17.6005 6.375C17.3338 6.09167 17.0088 5.95 16.6255 5.95H7.37549C6.99216 5.95 6.65882 6.09167 6.37549 6.375C6.10882 6.64167 5.97549 6.975 5.97549 7.375V16.625C5.97549 17.025 6.10882 17.3667 6.37549 17.65C6.65882 17.9167 6.99216 18.05 7.37549 18.05H16.6255ZM12.0255 17.025C10.7755 17.025 9.78382 16.7583 9.05049 16.225C8.31716 15.6917 7.95049 14.975 7.95049 14.075C7.95049 13.5583 8.08382 13.1167 8.35049 12.75C8.61716 12.3833 8.96716 12.0833 9.40049 11.85C9.01716 11.6167 8.71716 11.3333 8.50049 11C8.28382 10.65 8.17549 10.2583 8.17549 9.825C8.17549 8.925 8.51716 8.21667 9.20049 7.7C9.90049 7.18333 10.8422 6.925 12.0255 6.925C13.1922 6.925 14.1172 7.19167 14.8005 7.725C15.5005 8.25833 15.8505 8.95833 15.8505 9.825C15.8505 10.275 15.7422 10.6667 15.5255 11C15.3255 11.3333 15.0338 11.6167 14.6505 11.85C15.1005 12.0833 15.4505 12.3833 15.7005 12.75C15.9505 13.1167 16.0755 13.5583 16.0755 14.075C16.0755 14.9917 15.7172 15.7167 15.0005 16.25C14.2838 16.7667 13.2922 17.025 12.0255 17.025ZM12.0005 14.875C12.4338 14.875 12.7838 14.7833 13.0505 14.6C13.3172 14.4167 13.4505 14.1667 13.4505 13.85C13.4505 13.5333 13.3172 13.2833 13.0505 13.1C12.8005 12.9 12.4505 12.8 12.0005 12.8C11.5838 12.8 11.2422 12.9 10.9755 13.1C10.7088 13.2833 10.5755 13.5333 10.5755 13.85C10.5755 14.1667 10.7088 14.4167 10.9755 14.6C11.2422 14.7833 11.5838 14.875 12.0005 14.875ZM12.0005 10.975C12.3672 10.975 12.6588 10.8917 12.8755 10.725C13.1088 10.5417 13.2255 10.3 13.2255 10C13.2255 9.73333 13.1088 9.525 12.8755 9.375C12.6588 9.20833 12.3672 9.125 12.0005 9.125C11.6338 9.125 11.3422 9.20833 11.1255 9.375C10.9088 9.525 10.8005 9.73333 10.8005 10C10.8005 10.3 10.9088 10.5417 11.1255 10.725C11.3422 10.8917 11.6338 10.975 12.0005 10.975Z" fill="black"/>
</g>
<defs>
<clipPath id="clip0_3375_6426">
<rect width="24" height="24" fill="white"/>
</clipPath>
</defs>
</svg>
