<svg width="24" height="24" viewBox="0 0 24 24" fill="none" xmlns="http://www.w3.org/2000/svg">
<g clip-path="url(#clip0_3375_6601)">
<rect width="24" height="24" fill="white"/>
<path d="M10.05 16.525C10.6333 16.8417 11.2833 17 12 17C13.2333 17 14.1917 16.5667 14.875 15.7C15.575 14.8333 15.925 13.5667 15.925 11.9C15.925 10.3 15.5917 9.075 14.925 8.225C14.2583 7.35833 13.3167 6.925 12.1 6.925C11.0667 6.925 10.2167 7.23333 9.55 7.85C8.9 8.45 8.575 9.20833 8.575 10.125C8.575 10.7417 8.71667 11.2917 9 11.775C9.28333 12.2417 9.675 12.6083 10.175 12.875C10.6917 13.1417 11.275 13.275 11.925 13.275C12.525 13.275 13.05 13.15 13.5 12.9C13.9667 12.65 14.325 12.3 14.575 11.85C14.575 13.1333 14.3583 14.1083 13.925 14.775C13.5083 15.425 12.8583 15.75 11.975 15.75C11.4917 15.75 11.0667 15.65 10.7 15.45C10.3333 15.2333 10.0417 14.9167 9.825 14.5L8.75 15.15C9.05 15.75 9.48333 16.2083 10.05 16.525ZM13.675 11.55C13.275 11.9167 12.7417 12.1 12.075 12.1C11.4583 12.1 10.9417 11.9167 10.525 11.55C10.125 11.1833 9.925 10.7083 9.925 10.125C9.925 9.55833 10.125 9.09167 10.525 8.725C10.9417 8.34167 11.475 8.15 12.125 8.15C12.7583 8.15 13.275 8.34167 13.675 8.725C14.0917 9.10833 14.3 9.575 14.3 10.125C14.3 10.7083 14.0917 11.1833 13.675 11.55ZM17.05 20.675C15.5167 21.5583 13.8333 22 12 22C10.1667 22 8.48333 21.5583 6.95 20.675C5.41667 19.7917 4.20833 18.5833 3.325 17.05C2.44167 15.5167 2 13.8333 2 12C2 10.1667 2.44167 8.48333 3.325 6.95C4.20833 5.41667 5.41667 4.20833 6.95 3.325C8.48333 2.44167 10.1667 2 12 2C13.8333 2 15.5167 2.44167 17.05 3.325C18.5833 4.20833 19.7917 5.41667 20.675 6.95C21.5583 8.48333 22 10.1667 22 12C22 13.8333 21.5583 15.5167 20.675 17.05C19.7917 18.5833 18.5833 19.7917 17.05 20.675Z" fill="black"/>
</g>
<defs>
<clipPath id="clip0_3375_6601">
<rect width="24" height="24" fill="white"/>
</clipPath>
</defs>
</svg>
