<svg width="24" height="24" viewBox="0 0 24 24" fill="none" xmlns="http://www.w3.org/2000/svg">
<g clip-path="url(#clip0_3254_19682)">
<rect width="24" height="24" fill="white"/>
<path d="M7.00049 21C6.26716 21 5.59216 20.825 4.97549 20.475C4.35882 20.125 3.87549 19.6417 3.52549 19.025C3.17549 18.4083 3.00049 17.7333 3.00049 17V7C3.00049 6.26667 3.17549 5.59167 3.52549 4.975C3.87549 4.35833 4.35882 3.875 4.97549 3.525C5.59216 3.175 6.26716 3 7.00049 3H17.0005C17.7338 3 18.4088 3.175 19.0255 3.525C19.6422 3.875 20.1255 4.35833 20.4755 4.975C20.8255 5.59167 21.0005 6.26667 21.0005 7V17C21.0005 17.7333 20.8255 18.4083 20.4755 19.025C20.1255 19.6417 19.6422 20.125 19.0255 20.475C18.4088 20.825 17.7338 21 17.0005 21H7.00049ZM17.0005 19.15C17.5838 19.15 18.0755 18.9417 18.4755 18.525C18.8922 18.1083 19.1005 17.6 19.1005 17V7C19.1005 6.4 18.8922 5.89167 18.4755 5.475C18.0755 5.05833 17.5838 4.85 17.0005 4.85H7.00049C6.41716 4.85 5.91716 5.05833 5.50049 5.475C5.10049 5.89167 4.90049 6.4 4.90049 7V17C4.90049 17.6 5.10049 18.1083 5.50049 18.525C5.91716 18.9417 6.41716 19.15 7.00049 19.15H17.0005ZM11.7505 17C11.0172 17 10.3505 16.8417 9.75049 16.525C9.15049 16.2083 8.70049 15.75 8.40049 15.15L9.80049 14.275C10.0005 14.6417 10.2588 14.9167 10.5755 15.1C10.9088 15.2667 11.2922 15.35 11.7255 15.35C12.4088 15.35 12.9505 15.1167 13.3505 14.65C13.7672 14.1833 14.0005 13.3833 14.0505 12.25C13.7672 12.6 13.4088 12.8667 12.9755 13.05C12.5588 13.2333 12.1005 13.325 11.6005 13.325C10.6172 13.325 9.80882 13.0333 9.17549 12.45C8.54216 11.8667 8.22549 11.1 8.22549 10.15C8.22549 9.21667 8.55882 8.45 9.22549 7.85C9.90882 7.23333 10.7755 6.925 11.8255 6.925C13.0755 6.925 14.0505 7.35833 14.7505 8.225C15.4672 9.09167 15.8255 10.3167 15.8255 11.9C15.8255 13.55 15.4588 14.8167 14.7255 15.7C14.0088 16.5667 13.0172 17 11.7505 17ZM11.8255 11.8C12.3922 11.8 12.8505 11.65 13.2005 11.35C13.5672 11.0333 13.7505 10.6333 13.7505 10.15C13.7505 9.68333 13.5672 9.3 13.2005 9C12.8505 8.68333 12.4088 8.525 11.8755 8.525C11.3422 8.525 10.8922 8.68333 10.5255 9C10.1755 9.3 10.0005 9.68333 10.0005 10.15C10.0005 10.6333 10.1755 11.0333 10.5255 11.35C10.8755 11.65 11.3088 11.8 11.8255 11.8Z" fill="black"/>
</g>
<defs>
<clipPath id="clip0_3254_19682">
<rect width="24" height="24" fill="white"/>
</clipPath>
</defs>
</svg>
