<svg width="24" height="24" viewBox="0 0 24 24" fill="none" xmlns="http://www.w3.org/2000/svg">
<g clip-path="url(#clip0_3375_6591)">
<rect width="24" height="24" fill="white"/>
<path d="M12.0005 22C10.1672 22 8.48382 21.5583 6.95049 20.675C5.41716 19.7917 4.20882 18.5833 3.32549 17.05C2.44216 15.5167 2.00049 13.8333 2.00049 12C2.00049 10.1667 2.44216 8.48333 3.32549 6.95C4.20882 5.41667 5.41716 4.20833 6.95049 3.325C8.48382 2.44167 10.1672 2 12.0005 2C13.8338 2 15.5172 2.44167 17.0505 3.325C18.5838 4.20833 19.7922 5.41667 20.6755 6.95C21.5588 8.48333 22.0005 10.1667 22.0005 12C22.0005 13.8333 21.5588 15.5167 20.6755 17.05C19.7922 18.5833 18.5838 19.7917 17.0505 20.675C15.5172 21.5583 13.8338 22 12.0005 22ZM12.0005 19.575C13.4005 19.575 14.6672 19.2417 15.8005 18.575C16.9505 17.9083 17.8588 17 18.5255 15.85C19.1922 14.6833 19.5255 13.4 19.5255 12C19.5255 10.6 19.1922 9.325 18.5255 8.175C17.8588 7.00833 16.9505 6.09167 15.8005 5.425C14.6672 4.75833 13.4005 4.425 12.0005 4.425C10.6005 4.425 9.32549 4.75833 8.17549 5.425C7.04216 6.09167 6.14216 7.00833 5.47549 8.175C4.80882 9.325 4.47549 10.6 4.47549 12C4.47549 13.4 4.80882 14.6833 5.47549 15.85C6.14216 17 7.04216 17.9083 8.17549 18.575C9.32549 19.2417 10.6005 19.575 12.0005 19.575ZM11.7005 17C11.0005 17 10.3672 16.875 9.80049 16.625C9.23382 16.375 8.76716 16.0167 8.40049 15.55L9.57549 14.125C9.84216 14.425 10.1422 14.6417 10.4755 14.775C10.8255 14.9083 11.2255 14.975 11.6755 14.975C12.2588 14.975 12.7422 14.7917 13.1255 14.425C13.5088 14.0417 13.7338 13.3833 13.8005 12.45C13.5172 12.75 13.1755 12.975 12.7755 13.125C12.3922 13.2583 11.9838 13.325 11.5505 13.325C10.5672 13.325 9.75049 13.0333 9.10049 12.45C8.46716 11.8667 8.15049 11.1 8.15049 10.15C8.15049 9.2 8.49216 8.425 9.17549 7.825C9.87549 7.225 10.7755 6.925 11.8755 6.925C13.1588 6.925 14.1672 7.36667 14.9005 8.25C15.6505 9.11667 16.0255 10.35 16.0255 11.95C16.0255 13.5667 15.6422 14.8167 14.8755 15.7C14.1088 16.5667 13.0505 17 11.7005 17ZM11.9005 11.55C12.3838 11.55 12.7755 11.425 13.0755 11.175C13.3755 10.925 13.5255 10.6 13.5255 10.2C13.5255 9.81667 13.3672 9.5 13.0505 9.25C12.7505 9 12.3672 8.875 11.9005 8.875C11.4505 8.875 11.0755 9 10.7755 9.25C10.4755 9.5 10.3255 9.81667 10.3255 10.2C10.3255 10.6 10.4755 10.925 10.7755 11.175C11.0755 11.425 11.4505 11.55 11.9005 11.55Z" fill="black"/>
</g>
<defs>
<clipPath id="clip0_3375_6591">
<rect width="24" height="24" fill="white"/>
</clipPath>
</defs>
</svg>
