<svg width="24" height="24" viewBox="0 0 24 24" fill="none" xmlns="http://www.w3.org/2000/svg">
<g clip-path="url(#clip0_3375_6456)">
<rect width="24" height="24" fill="white"/>
<path d="M9.9 16.55C10.4333 16.85 11.05 17 11.75 17C12.9 17 13.7917 16.5833 14.425 15.75C15.075 14.9 15.4 13.6083 15.4 11.875C15.4 10.2417 15.1 9.00833 14.5 8.175C13.9167 7.34167 13.05 6.925 11.9 6.925C10.9 6.925 10.0833 7.225 9.45 7.825C8.83333 8.425 8.525 9.18333 8.525 10.1C8.525 10.7 8.65833 11.2333 8.925 11.7C9.20833 12.15 9.6 12.5083 10.1 12.775C10.6 13.025 11.175 13.15 11.825 13.15C12.6083 13.15 13.2667 12.9667 13.8 12.6C14.3333 12.2167 14.6917 11.7 14.875 11.05C14.9583 12.6167 14.775 13.925 14.325 14.975C13.875 16.0083 13.0167 16.525 11.75 16.525C11.1667 16.525 10.65 16.3917 10.2 16.125C9.75 15.8583 9.4 15.475 9.15 14.975L8.725 15.175C8.99167 15.775 9.38333 16.2333 9.9 16.55ZM13.875 11.95C13.3583 12.4333 12.6833 12.675 11.85 12.675C11 12.675 10.3167 12.4417 9.8 11.975C9.28333 11.4917 9.025 10.8667 9.025 10.1C9.025 9.31667 9.28333 8.675 9.8 8.175C10.3167 7.675 11.0167 7.41667 11.9 7.4C12.7333 7.4 13.4 7.66667 13.9 8.2C14.4 8.71667 14.65 9.35 14.65 10.1C14.65 10.85 14.3917 11.4667 13.875 11.95ZM19.25 20.55C18.7167 20.85 18.1333 21 17.5 21H6.5C5.86667 21 5.275 20.85 4.725 20.55C4.19167 20.2333 3.76667 19.8083 3.45 19.275C3.15 18.725 3 18.1333 3 17.5V6.5C3 5.86667 3.15 5.28333 3.45 4.75C3.76667 4.2 4.19167 3.775 4.725 3.475C5.275 3.15833 5.86667 3 6.5 3H17.5C18.1333 3 18.7167 3.15833 19.25 3.475C19.8 3.775 20.225 4.2 20.525 4.75C20.8417 5.28333 21 5.86667 21 6.5V17.5C21 18.1333 20.8417 18.725 20.525 19.275C20.225 19.8083 19.8 20.2333 19.25 20.55Z" fill="black"/>
</g>
<defs>
<clipPath id="clip0_3375_6456">
<rect width="24" height="24" fill="white"/>
</clipPath>
</defs>
</svg>
