<svg width="24" height="24" viewBox="0 0 24 24" fill="none" xmlns="http://www.w3.org/2000/svg">
<g clip-path="url(#clip0_3233_6299)">
<rect width="24" height="24" fill="white"/>
<path d="M12.0005 22C10.1672 22 8.48382 21.5583 6.95049 20.675C5.41716 19.7917 4.20882 18.5833 3.32549 17.05C2.44216 15.5167 2.00049 13.8333 2.00049 12C2.00049 10.1667 2.44216 8.48333 3.32549 6.95C4.20882 5.41667 5.41716 4.20833 6.95049 3.325C8.48382 2.44167 10.1672 2 12.0005 2C13.8338 2 15.5172 2.44167 17.0505 3.325C18.5838 4.20833 19.7922 5.41667 20.6755 6.95C21.5588 8.48333 22.0005 10.1667 22.0005 12C22.0005 13.8333 21.5588 15.5167 20.6755 17.05C19.7922 18.5833 18.5838 19.7917 17.0505 20.675C15.5172 21.5583 13.8338 22 12.0005 22ZM12.0005 21.525C13.7505 21.525 15.3505 21.1083 16.8005 20.275C18.2505 19.425 19.3922 18.275 20.2255 16.825C21.0755 15.3583 21.5005 13.75 21.5005 12C21.5005 10.25 21.0755 8.65 20.2255 7.2C19.3922 5.73333 18.2505 4.58333 16.8005 3.75C15.3505 2.9 13.7505 2.475 12.0005 2.475C10.2505 2.475 8.65049 2.9 7.20049 3.75C5.75049 4.58333 4.60049 5.73333 3.75049 7.2C2.91716 8.65 2.50049 10.25 2.50049 12C2.50049 13.75 2.91716 15.3583 3.75049 16.825C4.60049 18.275 5.75049 19.425 7.20049 20.275C8.65049 21.1083 10.2505 21.525 12.0005 21.525ZM11.7505 17C11.0505 17 10.4338 16.85 9.90049 16.55C9.38382 16.2333 8.99216 15.775 8.72549 15.175L9.15049 14.975C9.40049 15.475 9.75049 15.8583 10.2005 16.125C10.6505 16.3917 11.1672 16.525 11.7505 16.525C13.0172 16.525 13.8755 16.0083 14.3255 14.975C14.7755 13.925 14.9588 12.6167 14.8755 11.05C14.6922 11.7 14.3338 12.2167 13.8005 12.6C13.2672 12.9667 12.6088 13.15 11.8255 13.15C10.8588 13.15 10.0672 12.8667 9.45049 12.3C8.83382 11.7333 8.52549 11 8.52549 10.1C8.52549 9.18333 8.83382 8.425 9.45049 7.825C10.0838 7.225 10.9005 6.925 11.9005 6.925C13.0505 6.925 13.9172 7.34167 14.5005 8.175C15.1005 9.00833 15.4005 10.2417 15.4005 11.875C15.4005 13.6083 15.0755 14.9 14.4255 15.75C13.7922 16.5833 12.9005 17 11.7505 17ZM11.8505 12.675C12.6838 12.675 13.3588 12.4333 13.8755 11.95C14.3922 11.4667 14.6505 10.85 14.6505 10.1C14.6505 9.35 14.4005 8.71667 13.9005 8.2C13.4005 7.66667 12.7338 7.4 11.9005 7.4C11.0172 7.41667 10.3172 7.675 9.80049 8.175C9.28382 8.675 9.02549 9.31667 9.02549 10.1C9.02549 10.8667 9.28382 11.4917 9.80049 11.975C10.3172 12.4417 11.0005 12.675 11.8505 12.675Z" fill="black"/>
</g>
<defs>
<clipPath id="clip0_3233_6299">
<rect width="24" height="24" fill="white"/>
</clipPath>
</defs>
</svg>
