<svg width="24" height="24" viewBox="0 0 24 24" fill="none" xmlns="http://www.w3.org/2000/svg">
<g clip-path="url(#clip0_3233_6365)">
<rect width="24" height="24" fill="white"/>
<path d="M6.50049 21C5.86716 21 5.27549 20.85 4.72549 20.55C4.19216 20.2333 3.76716 19.8083 3.45049 19.275C3.15049 18.725 3.00049 18.1333 3.00049 17.5V6.5C3.00049 5.85 3.15049 5.25833 3.45049 4.725C3.76716 4.19167 4.19216 3.775 4.72549 3.475C5.27549 3.15833 5.86716 3 6.50049 3H17.5005C18.1505 3 18.7422 3.15833 19.2755 3.475C19.8088 3.775 20.2255 4.19167 20.5255 4.725C20.8422 5.25833 21.0005 5.85 21.0005 6.5V17.5C21.0005 18.1333 20.8422 18.725 20.5255 19.275C20.2255 19.8083 19.8088 20.2333 19.2755 20.55C18.7422 20.85 18.1505 21 17.5005 21H6.50049ZM17.5005 20.525C18.3338 20.525 19.0422 20.2333 19.6255 19.65C20.2088 19.0667 20.5005 18.35 20.5005 17.5V6.5C20.5005 5.65 20.2088 4.93333 19.6255 4.35C19.0422 3.76667 18.3338 3.475 17.5005 3.475H6.50049C5.66716 3.475 4.95882 3.76667 4.37549 4.35C3.79216 4.93333 3.50049 5.65 3.50049 6.5V17.5C3.50049 18.35 3.79216 19.0667 4.37549 19.65C4.95882 20.2333 5.66716 20.525 6.50049 20.525H17.5005ZM11.7505 17C11.0505 17 10.4338 16.85 9.90049 16.55C9.38382 16.2333 8.99216 15.775 8.72549 15.175L9.15049 14.975C9.40049 15.475 9.75049 15.8583 10.2005 16.125C10.6505 16.3917 11.1672 16.525 11.7505 16.525C13.0172 16.525 13.8755 16.0083 14.3255 14.975C14.7755 13.925 14.9588 12.6167 14.8755 11.05C14.6922 11.7 14.3338 12.2167 13.8005 12.6C13.2672 12.9667 12.6088 13.15 11.8255 13.15C10.8588 13.15 10.0672 12.8667 9.45049 12.3C8.83382 11.7333 8.52549 11 8.52549 10.1C8.52549 9.18333 8.83382 8.425 9.45049 7.825C10.0838 7.225 10.9005 6.925 11.9005 6.925C13.0505 6.925 13.9172 7.34167 14.5005 8.175C15.1005 9.00833 15.4005 10.2417 15.4005 11.875C15.4005 13.6083 15.0755 14.9 14.4255 15.75C13.7922 16.5833 12.9005 17 11.7505 17ZM11.8505 12.675C12.6838 12.675 13.3588 12.4333 13.8755 11.95C14.3922 11.4667 14.6505 10.85 14.6505 10.1C14.6505 9.35 14.4005 8.71667 13.9005 8.2C13.4005 7.66667 12.7338 7.4 11.9005 7.4C11.0172 7.41667 10.3172 7.675 9.80049 8.175C9.28382 8.675 9.02549 9.31667 9.02549 10.1C9.02549 10.8667 9.28382 11.4917 9.80049 11.975C10.3172 12.4417 11.0005 12.675 11.8505 12.675Z" fill="black"/>
</g>
<defs>
<clipPath id="clip0_3233_6365">
<rect width="24" height="24" fill="white"/>
</clipPath>
</defs>
</svg>
