<svg width="24" height="24" viewBox="0 0 24 24" fill="none" xmlns="http://www.w3.org/2000/svg">
<g clip-path="url(#clip0_3375_6452)">
<rect width="24" height="24" fill="white"/>
<path d="M7.37549 21C6.57549 21 5.84216 20.8083 5.17549 20.425C4.50882 20.025 3.97549 19.4917 3.57549 18.825C3.19216 18.1583 3.00049 17.425 3.00049 16.625V7.375C3.00049 6.575 3.19216 5.84167 3.57549 5.175C3.97549 4.50833 4.50882 3.98333 5.17549 3.6C5.84216 3.2 6.57549 3 7.37549 3H16.4255C17.2755 3 18.0505 3.2 18.7505 3.6C19.4505 3.98333 20.0005 4.50833 20.4005 5.175C20.8005 5.84167 21.0005 6.575 21.0005 7.375V16.625C21.0005 17.425 20.8005 18.1583 20.4005 18.825C20.0172 19.4917 19.4922 20.025 18.8255 20.425C18.1588 20.8083 17.4255 21 16.6255 21H7.37549ZM16.6255 18.05C17.0088 18.05 17.3338 17.9167 17.6005 17.65C17.8672 17.3667 18.0005 17.025 18.0005 16.625V7.375C18.0005 6.975 17.8672 6.64167 17.6005 6.375C17.3338 6.09167 17.0088 5.95 16.6255 5.95H7.37549C6.99216 5.95 6.65882 6.09167 6.37549 6.375C6.10882 6.64167 5.97549 6.975 5.97549 7.375V16.625C5.97549 17.025 6.10882 17.3667 6.37549 17.65C6.65882 17.9167 6.99216 18.05 7.37549 18.05H16.6255ZM11.5255 17C10.8755 17 10.2755 16.9167 9.72549 16.75C9.17549 16.5667 8.68382 16.2917 8.25049 15.925L9.22549 13.95C9.57549 14.1833 9.92549 14.35 10.2755 14.45C10.6422 14.5333 11.0422 14.575 11.4755 14.575C11.9588 14.575 12.3838 14.4417 12.7505 14.175C13.1172 13.9083 13.3338 13.4083 13.4005 12.675C13.1338 12.9083 12.8255 13.0833 12.4755 13.2C12.1255 13.3 11.7505 13.35 11.3505 13.35C10.4005 13.35 9.59216 13.0583 8.92549 12.475C8.25882 11.875 7.92549 11.1 7.92549 10.15C7.92549 9.2 8.28382 8.425 9.00049 7.825C9.73382 7.20833 10.6588 6.9 11.7755 6.9C13.1255 6.9 14.1838 7.35 14.9505 8.25C15.7338 9.13333 16.1255 10.3833 16.1255 12C16.1255 13.5667 15.7172 14.7917 14.9005 15.675C14.0838 16.5583 12.9588 17 11.5255 17ZM11.8505 11.275C12.2505 11.275 12.5672 11.1833 12.8005 11C13.0505 10.8 13.1755 10.5417 13.1755 10.225C13.1755 9.925 13.0505 9.68333 12.8005 9.5C12.5505 9.3 12.2255 9.2 11.8255 9.2C11.4255 9.2 11.1005 9.3 10.8505 9.5C10.6172 9.68333 10.5005 9.925 10.5005 10.225C10.5005 10.5417 10.6255 10.8 10.8755 11C11.1255 11.1833 11.4505 11.275 11.8505 11.275Z" fill="black"/>
</g>
<defs>
<clipPath id="clip0_3375_6452">
<rect width="24" height="24" fill="white"/>
</clipPath>
</defs>
</svg>
