<svg width="24" height="24" viewBox="0 0 24 24" fill="none" xmlns="http://www.w3.org/2000/svg">
<g clip-path="url(#clip0_3375_6450)">
<rect width="24" height="24" fill="white"/>
<path d="M7.17549 21C6.40882 21 5.70049 20.8167 5.05049 20.45C4.41716 20.0833 3.91716 19.5833 3.55049 18.95C3.18382 18.3 3.00049 17.5917 3.00049 16.825V7.175C3.00049 6.40833 3.18382 5.70833 3.55049 5.075C3.91716 4.425 4.41716 3.91667 5.05049 3.55C5.70049 3.18333 6.40882 3 7.17549 3H16.7505C17.5338 3 18.2505 3.18333 18.9005 3.55C19.5505 3.91667 20.0588 4.425 20.4255 5.075C20.8088 5.70833 21.0005 6.40833 21.0005 7.175V16.825C21.0005 17.5917 20.8172 18.3 20.4505 18.95C20.0838 19.5833 19.5755 20.0833 18.9255 20.45C18.2922 20.8167 17.5922 21 16.8255 21H7.17549ZM16.8255 18.625C17.3255 18.625 17.7422 18.4583 18.0755 18.125C18.4088 17.775 18.5755 17.3417 18.5755 16.825V7.15C18.5755 6.65 18.4088 6.23333 18.0755 5.9C17.7422 5.55 17.3255 5.375 16.8255 5.375H7.17549C6.67549 5.375 6.25882 5.55 5.92549 5.9C5.59216 6.23333 5.42549 6.65833 5.42549 7.175V16.825C5.42549 17.3417 5.59216 17.775 5.92549 18.125C6.25882 18.4583 6.67549 18.625 7.17549 18.625H16.8255ZM11.6505 17C10.9505 17 10.3172 16.875 9.75049 16.625C9.18382 16.375 8.71716 16.0167 8.35049 15.55L9.52549 14.1C9.79216 14.4 10.0922 14.6167 10.4255 14.75C10.7755 14.8833 11.1755 14.95 11.6255 14.95C12.2088 14.95 12.6922 14.7667 13.0755 14.4C13.4588 14.0333 13.6838 13.3833 13.7505 12.45C13.4672 12.75 13.1255 12.975 12.7255 13.125C12.3422 13.2583 11.9338 13.325 11.5005 13.325C10.5172 13.325 9.70049 13.0333 9.05049 12.45C8.41716 11.8667 8.10049 11.1 8.10049 10.15C8.10049 9.21667 8.44216 8.45 9.12549 7.85C9.82549 7.23333 10.7255 6.925 11.8255 6.925C13.1088 6.925 14.1172 7.36667 14.8505 8.25C15.6005 9.11667 15.9755 10.35 15.9755 11.95C15.9755 13.5667 15.5922 14.8167 14.8255 15.7C14.0588 16.5667 13.0005 17 11.6505 17ZM11.8505 11.525C12.3338 11.525 12.7255 11.4083 13.0255 11.175C13.3255 10.925 13.4755 10.6 13.4755 10.2C13.4755 9.81667 13.3172 9.50833 13.0005 9.275C12.6838 9.025 12.3005 8.9 11.8505 8.9C11.4172 8.9 11.0422 9.025 10.7255 9.275C10.4255 9.50833 10.2755 9.81667 10.2755 10.2C10.2755 10.6 10.4255 10.925 10.7255 11.175C11.0422 11.4083 11.4172 11.525 11.8505 11.525Z" fill="black"/>
</g>
<defs>
<clipPath id="clip0_3375_6450">
<rect width="24" height="24" fill="white"/>
</clipPath>
</defs>
</svg>
