<svg width="24" height="24" viewBox="0 0 24 24" fill="none" xmlns="http://www.w3.org/2000/svg">
<g clip-path="url(#clip0_3375_6446)">
<rect width="24" height="24" fill="white"/>
<path d="M6.82549 21C6.12549 21 5.47549 20.8333 4.87549 20.5C4.29216 20.1667 3.83382 19.7083 3.50049 19.125C3.16716 18.525 3.00049 17.875 3.00049 17.175V6.825C3.00049 6.125 3.16716 5.48333 3.50049 4.9C3.83382 4.3 4.29216 3.83333 4.87549 3.5C5.47549 3.16667 6.12549 3 6.82549 3H17.1755C17.8755 3 18.5172 3.16667 19.1005 3.5C19.7005 3.83333 20.1672 4.3 20.5005 4.9C20.8338 5.48333 21.0005 6.125 21.0005 6.825V17.175C21.0005 17.875 20.8338 18.525 20.5005 19.125C20.1672 19.7083 19.7005 20.1667 19.1005 20.5C18.5172 20.8333 17.8755 21 17.1755 21H6.82549ZM17.1755 19.6C17.8422 19.6 18.4088 19.3667 18.8755 18.9C19.3422 18.4333 19.5755 17.8583 19.5755 17.175V6.825C19.5755 6.14167 19.3422 5.56667 18.8755 5.1C18.4088 4.63333 17.8422 4.4 17.1755 4.4H6.82549C6.15882 4.4 5.59216 4.63333 5.12549 5.1C4.65882 5.56667 4.42549 6.14167 4.42549 6.825V17.175C4.42549 17.8583 4.65882 18.4333 5.12549 18.9C5.59216 19.3667 6.15882 19.6 6.82549 19.6H17.1755ZM11.7505 17C11.0338 17 10.3838 16.8417 9.80049 16.525C9.23382 16.2083 8.80049 15.75 8.50049 15.15L9.57549 14.5C9.79216 14.9167 10.0838 15.2333 10.4505 15.45C10.8172 15.65 11.2422 15.75 11.7255 15.75C12.6088 15.75 13.2588 15.425 13.6755 14.775C14.1088 14.1083 14.3255 13.1333 14.3255 11.85C14.0755 12.3 13.7172 12.65 13.2505 12.9C12.8005 13.15 12.2755 13.275 11.6755 13.275C10.6922 13.275 9.88382 12.9833 9.25049 12.4C8.63382 11.8167 8.32549 11.0583 8.32549 10.125C8.32549 9.20833 8.65049 8.45 9.30049 7.85C9.96716 7.23333 10.8172 6.925 11.8505 6.925C13.0672 6.925 14.0088 7.35833 14.6755 8.225C15.3422 9.075 15.6755 10.3 15.6755 11.9C15.6755 13.5667 15.3255 14.8333 14.6255 15.7C13.9422 16.5667 12.9838 17 11.7505 17ZM11.8255 12.1C12.4922 12.1 13.0255 11.9167 13.4255 11.55C13.8422 11.1833 14.0505 10.7083 14.0505 10.125C14.0505 9.575 13.8422 9.10833 13.4255 8.725C13.0255 8.34167 12.5088 8.15 11.8755 8.15C11.2255 8.15 10.6922 8.34167 10.2755 8.725C9.87549 9.09167 9.67549 9.55833 9.67549 10.125C9.67549 10.7083 9.87549 11.1833 10.2755 11.55C10.6922 11.9167 11.2088 12.1 11.8255 12.1Z" fill="black"/>
</g>
<defs>
<clipPath id="clip0_3375_6446">
<rect width="24" height="24" fill="white"/>
</clipPath>
</defs>
</svg>
