<svg width="24" height="24" viewBox="0 0 24 24" fill="none" xmlns="http://www.w3.org/2000/svg">
<g clip-path="url(#clip0_3234_9388)">
<rect width="24" height="24" fill="white"/>
<path d="M16.2554 11.325C16.672 11.325 17.0137 11.1833 17.2804 10.9C17.5637 10.6167 17.7054 10.275 17.7054 9.875C17.7054 9.45833 17.5637 9.11667 17.2804 8.85C17.0137 8.56667 16.672 8.425 16.2554 8.425C15.8387 8.425 15.4887 8.56667 15.2054 8.85C14.922 9.11667 14.7804 9.45833 14.7804 9.875C14.7804 10.275 14.922 10.6167 15.2054 10.9C15.4887 11.1833 15.8387 11.325 16.2554 11.325ZM4.50537 17.375C4.2387 17.375 4.0137 17.2833 3.83037 17.1C3.64704 16.9 3.55537 16.6667 3.55537 16.4C3.55537 16.1333 3.64704 15.9083 3.83037 15.725C4.0137 15.5417 4.2387 15.45 4.50537 15.45C4.77204 15.45 4.99704 15.5417 5.18037 15.725C5.3637 15.9083 5.45537 16.1417 5.45537 16.425C5.45537 16.675 5.3637 16.9 5.18037 17.1C4.99704 17.2833 4.77204 17.375 4.50537 17.375ZM8.75537 19.675C8.40537 19.675 8.1137 19.5583 7.88037 19.325C7.64704 19.0917 7.53037 18.8083 7.53037 18.475C7.53037 18.1417 7.64704 17.8583 7.88037 17.625C8.1137 17.3917 8.40537 17.275 8.75537 17.275C9.0887 17.275 9.37204 17.3917 9.60537 17.625C9.8387 17.8583 9.95537 18.1417 9.95537 18.475C9.95537 18.8083 9.8387 19.0917 9.60537 19.325C9.37204 19.5583 9.0887 19.675 8.75537 19.675ZM12.5054 22C12.2387 22 12.0054 21.9083 11.8054 21.725C11.622 21.5417 11.5304 21.3167 11.5304 21.05C11.5304 20.7667 11.622 20.5333 11.8054 20.35C12.0054 20.1667 12.2387 20.075 12.5054 20.075C12.772 20.075 12.997 20.1667 13.1804 20.35C13.3637 20.5333 13.4554 20.7667 13.4554 21.05C13.4554 21.3167 13.3637 21.5417 13.1804 21.725C12.997 21.9083 12.772 22 12.5054 22ZM5.03037 13.2C4.68037 13.2 4.3887 13.0833 4.15537 12.85C3.92204 12.6167 3.80537 12.3333 3.80537 12C3.80537 11.6667 3.92204 11.3833 4.15537 11.15C4.3887 10.9167 4.68037 10.8 5.03037 10.8C5.3637 10.8 5.64704 10.9167 5.88037 11.15C6.1137 11.3833 6.23037 11.6667 6.23037 12C6.23037 12.3333 6.1137 12.6167 5.88037 12.85C5.64704 13.0833 5.3637 13.2 5.03037 13.2ZM8.75537 15.575C8.3387 15.575 7.9887 15.4333 7.70537 15.15C7.42204 14.8667 7.28037 14.525 7.28037 14.125C7.28037 13.7083 7.42204 13.3667 7.70537 13.1C7.9887 12.8167 8.3387 12.675 8.75537 12.675C9.17204 12.675 9.5137 12.8167 9.78037 13.1C10.0637 13.3667 10.2054 13.7083 10.2054 14.125C10.2054 14.525 10.0637 14.8667 9.78037 15.15C9.5137 15.4333 9.17204 15.575 8.75537 15.575ZM12.5054 17.675C12.0887 17.675 11.7387 17.5333 11.4554 17.25C11.172 16.9667 11.0304 16.625 11.0304 16.225C11.0304 15.8083 11.172 15.4667 11.4554 15.2C11.7387 14.9167 12.0887 14.775 12.5054 14.775C12.922 14.775 13.2637 14.9167 13.5304 15.2C13.8137 15.4667 13.9554 15.8083 13.9554 16.225C13.9554 16.625 13.8137 16.9667 13.5304 17.25C13.2637 17.5333 12.922 17.675 12.5054 17.675ZM4.50537 8.55C4.2387 8.55 4.0137 8.45833 3.83037 8.275C3.64704 8.075 3.55537 7.84167 3.55537 7.575C3.55537 7.30833 3.64704 7.08333 3.83037 6.9C4.0137 6.71667 4.2387 6.625 4.50537 6.625C4.77204 6.625 4.99704 6.71667 5.18037 6.9C5.3637 7.08333 5.45537 7.30833 5.45537 7.575C5.45537 7.84167 5.3637 8.075 5.18037 8.275C4.99704 8.45833 4.77204 8.55 4.50537 8.55ZM16.2554 19.675C15.9054 19.675 15.6137 19.5583 15.3804 19.325C15.147 19.0917 15.0304 18.8083 15.0304 18.475C15.0304 18.1417 15.147 17.8583 15.3804 17.625C15.6137 17.3917 15.9054 17.275 16.2554 17.275C16.5887 17.275 16.872 17.3917 17.1054 17.625C17.3387 17.8583 17.4554 18.1417 17.4554 18.475C17.4554 18.8083 17.3387 19.0917 17.1054 19.325C16.872 19.5583 16.5887 19.675 16.2554 19.675ZM8.75537 11.325C8.3387 11.325 7.9887 11.1833 7.70537 10.9C7.42204 10.6167 7.28037 10.275 7.28037 9.875C7.28037 9.45833 7.42204 9.11667 7.70537 8.85C7.9887 8.56667 8.3387 8.425 8.75537 8.425C9.17204 8.425 9.5137 8.56667 9.78037 8.85C10.0637 9.11667 10.2054 9.45833 10.2054 9.875C10.2054 10.275 10.0637 10.6167 9.78037 10.9C9.5137 11.1833 9.17204 11.325 8.75537 11.325ZM16.2554 15.575C15.8387 15.575 15.4887 15.4333 15.2054 15.15C14.922 14.8667 14.7804 14.525 14.7804 14.125C14.7804 13.7083 14.922 13.3667 15.2054 13.1C15.4887 12.8167 15.8387 12.675 16.2554 12.675C16.672 12.675 17.0137 12.8167 17.2804 13.1C17.5637 13.3667 17.7054 13.7083 17.7054 14.125C17.7054 14.525 17.5637 14.8667 17.2804 15.15C17.0137 15.4333 16.672 15.575 16.2554 15.575ZM8.75537 6.725C8.40537 6.725 8.1137 6.60833 7.88037 6.375C7.64704 6.14167 7.53037 5.85833 7.53037 5.525C7.53037 5.19167 7.64704 4.90833 7.88037 4.675C8.1137 4.44167 8.40537 4.325 8.75537 4.325C9.0887 4.325 9.37204 4.44167 9.60537 4.675C9.8387 4.90833 9.95537 5.19167 9.95537 5.525C9.95537 5.85833 9.8387 6.14167 9.60537 6.375C9.37204 6.60833 9.0887 6.725 8.75537 6.725ZM20.4804 17.375C20.2304 17.375 20.0054 17.2833 19.8054 17.1C19.622 16.9 19.5304 16.6667 19.5304 16.4C19.5304 16.1333 19.622 15.9083 19.8054 15.725C20.0054 15.5417 20.2387 15.45 20.5054 15.45C20.772 15.45 20.997 15.5417 21.1804 15.725C21.3637 15.9083 21.4554 16.1417 21.4554 16.425C21.4554 16.675 21.3637 16.9 21.1804 17.1C20.997 17.2833 20.7637 17.375 20.4804 17.375ZM12.5054 9.225C12.0887 9.225 11.7387 9.08333 11.4554 8.8C11.172 8.51667 11.0304 8.175 11.0304 7.775C11.0304 7.35833 11.172 7.01667 11.4554 6.75C11.7387 6.46667 12.0887 6.325 12.5054 6.325C12.922 6.325 13.2637 6.46667 13.5304 6.75C13.8137 7.01667 13.9554 7.35833 13.9554 7.775C13.9554 8.175 13.8137 8.51667 13.5304 8.8C13.2637 9.08333 12.922 9.225 12.5054 9.225ZM19.9804 13.2C19.6304 13.2 19.3387 13.0833 19.1054 12.85C18.872 12.6167 18.7554 12.3333 18.7554 12C18.7554 11.6667 18.872 11.3833 19.1054 11.15C19.3387 10.9167 19.6304 10.8 19.9804 10.8C20.3137 10.8 20.597 10.9167 20.8304 11.15C21.0637 11.3833 21.1804 11.6667 21.1804 12C21.1804 12.3333 21.0637 12.6167 20.8304 12.85C20.597 13.0833 20.3137 13.2 19.9804 13.2ZM12.5054 3.925C12.2387 3.925 12.0054 3.83333 11.8054 3.65C11.622 3.45 11.5304 3.21667 11.5304 2.95C11.5304 2.68333 11.622 2.45833 11.8054 2.275C12.0054 2.09167 12.2387 2 12.5054 2C12.772 2 12.997 2.09167 13.1804 2.275C13.3637 2.45833 13.4554 2.68333 13.4554 2.95C13.4554 3.21667 13.3637 3.45 13.1804 3.65C12.997 3.83333 12.772 3.925 12.5054 3.925ZM16.2554 6.725C15.9054 6.725 15.6137 6.60833 15.3804 6.375C15.147 6.14167 15.0304 5.85833 15.0304 5.525C15.0304 5.19167 15.147 4.90833 15.3804 4.675C15.6137 4.44167 15.9054 4.325 16.2554 4.325C16.5887 4.325 16.872 4.44167 17.1054 4.675C17.3387 4.90833 17.4554 5.19167 17.4554 5.525C17.4554 5.85833 17.3387 6.14167 17.1054 6.375C16.872 6.60833 16.5887 6.725 16.2554 6.725ZM20.4804 8.55C20.2304 8.55 20.0054 8.45833 19.8054 8.275C19.622 8.075 19.5304 7.84167 19.5304 7.575C19.5304 7.30833 19.622 7.08333 19.8054 6.9C20.0054 6.71667 20.2387 6.625 20.5054 6.625C20.772 6.625 20.997 6.71667 21.1804 6.9C21.3637 7.08333 21.4554 7.30833 21.4554 7.575C21.4554 7.84167 21.3637 8.075 21.1804 8.275C20.997 8.45833 20.7637 8.55 20.4804 8.55Z" fill="black"/>
</g>
<defs>
<clipPath id="clip0_3234_9388">
<rect width="24" height="24" fill="white"/>
</clipPath>
</defs>
</svg>
