<svg width="24" height="24" viewBox="0 0 24 24" fill="none" xmlns="http://www.w3.org/2000/svg">
<g clip-path="url(#clip0_3234_9386)">
<rect width="24" height="24" fill="white"/>
<path d="M16.2449 11.25C16.6283 11.25 16.9533 11.1167 17.2199 10.85C17.4866 10.5833 17.6199 10.2583 17.6199 9.875C17.6199 9.49167 17.4866 9.16667 17.2199 8.9C16.9533 8.63333 16.6283 8.5 16.2449 8.5C15.8616 8.5 15.5366 8.63333 15.2699 8.9C15.0033 9.16667 14.8699 9.49167 14.8699 9.875C14.8699 10.2583 15.0033 10.5833 15.2699 10.85C15.5366 11.1167 15.8616 11.25 16.2449 11.25ZM4.41992 17.375C4.16992 17.375 3.96159 17.2917 3.79492 17.125C3.62826 16.9583 3.54492 16.75 3.54492 16.5C3.54492 16.25 3.62826 16.0417 3.79492 15.875C3.96159 15.7083 4.16992 15.625 4.41992 15.625C4.66992 15.625 4.87826 15.7083 5.04492 15.875C5.21159 16.0417 5.29492 16.25 5.29492 16.5C5.29492 16.75 5.21159 16.9583 5.04492 17.125C4.87826 17.2917 4.66992 17.375 4.41992 17.375ZM8.74492 19.6C8.42826 19.6 8.16159 19.4917 7.94492 19.275C7.72826 19.0583 7.61992 18.7917 7.61992 18.475C7.61992 18.1583 7.72826 17.8917 7.94492 17.675C8.16159 17.4583 8.42826 17.35 8.74492 17.35C9.06159 17.35 9.32826 17.4583 9.54492 17.675C9.76159 17.8917 9.86992 18.1583 9.86992 18.475C9.86992 18.7917 9.76159 19.0583 9.54492 19.275C9.32826 19.4917 9.06159 19.6 8.74492 19.6ZM12.4949 22C12.2449 22 12.0366 21.9167 11.8699 21.75C11.7033 21.5833 11.6199 21.375 11.6199 21.125C11.6199 20.875 11.7033 20.6667 11.8699 20.5C12.0366 20.3333 12.2449 20.25 12.4949 20.25C12.7449 20.25 12.9533 20.3333 13.1199 20.5C13.2866 20.6667 13.3699 20.875 13.3699 21.125C13.3699 21.375 13.2866 21.5833 13.1199 21.75C12.9533 21.9167 12.7449 22 12.4949 22ZM5.01992 13.125C4.70326 13.125 4.43659 13.0167 4.21992 12.8C4.00326 12.5833 3.89492 12.3167 3.89492 12C3.89492 11.6833 4.00326 11.4167 4.21992 11.2C4.43659 10.9833 4.70326 10.875 5.01992 10.875C5.33659 10.875 5.60326 10.9833 5.81992 11.2C6.03659 11.4167 6.14492 11.6833 6.14492 12C6.14492 12.3167 6.03659 12.5833 5.81992 12.8C5.60326 13.0167 5.33659 13.125 5.01992 13.125ZM8.74492 15.5C8.36159 15.5 8.03659 15.3667 7.76992 15.1C7.50326 14.8333 7.36992 14.5083 7.36992 14.125C7.36992 13.7417 7.50326 13.4167 7.76992 13.15C8.03659 12.8833 8.36159 12.75 8.74492 12.75C9.12826 12.75 9.45326 12.8833 9.71992 13.15C9.98659 13.4167 10.1199 13.7417 10.1199 14.125C10.1199 14.5083 9.98659 14.8333 9.71992 15.1C9.45326 15.3667 9.12826 15.5 8.74492 15.5ZM12.4949 17.6C12.1116 17.6 11.7866 17.4667 11.5199 17.2C11.2533 16.9333 11.1199 16.6083 11.1199 16.225C11.1199 15.8417 11.2533 15.5167 11.5199 15.25C11.7866 14.9833 12.1116 14.85 12.4949 14.85C12.8783 14.85 13.2033 14.9833 13.4699 15.25C13.7366 15.5167 13.8699 15.8417 13.8699 16.225C13.8699 16.6083 13.7366 16.9333 13.4699 17.2C13.2033 17.4667 12.8783 17.6 12.4949 17.6ZM4.41992 8.375C4.16992 8.375 3.96159 8.29167 3.79492 8.125C3.62826 7.95833 3.54492 7.75 3.54492 7.5C3.54492 7.25 3.62826 7.04167 3.79492 6.875C3.96159 6.70833 4.16992 6.625 4.41992 6.625C4.66992 6.625 4.87826 6.70833 5.04492 6.875C5.21159 7.04167 5.29492 7.25 5.29492 7.5C5.29492 7.75 5.21159 7.95833 5.04492 8.125C4.87826 8.29167 4.66992 8.375 4.41992 8.375ZM16.2449 19.6C15.9283 19.6 15.6616 19.4917 15.4449 19.275C15.2283 19.0583 15.1199 18.7917 15.1199 18.475C15.1199 18.1583 15.2283 17.8917 15.4449 17.675C15.6616 17.4583 15.9283 17.35 16.2449 17.35C16.5616 17.35 16.8283 17.4583 17.0449 17.675C17.2616 17.8917 17.3699 18.1583 17.3699 18.475C17.3699 18.7917 17.2616 19.0583 17.0449 19.275C16.8283 19.4917 16.5616 19.6 16.2449 19.6ZM8.74492 11.25C8.36159 11.25 8.03659 11.1167 7.76992 10.85C7.50326 10.5833 7.36992 10.2583 7.36992 9.875C7.36992 9.49167 7.50326 9.16667 7.76992 8.9C8.03659 8.63333 8.36159 8.5 8.74492 8.5C9.12826 8.5 9.45326 8.63333 9.71992 8.9C9.98659 9.16667 10.1199 9.49167 10.1199 9.875C10.1199 10.2583 9.98659 10.5833 9.71992 10.85C9.45326 11.1167 9.12826 11.25 8.74492 11.25ZM16.2449 15.5C15.8616 15.5 15.5366 15.3667 15.2699 15.1C15.0033 14.8333 14.8699 14.5083 14.8699 14.125C14.8699 13.7417 15.0033 13.4167 15.2699 13.15C15.5366 12.8833 15.8616 12.75 16.2449 12.75C16.6283 12.75 16.9533 12.8833 17.2199 13.15C17.4866 13.4167 17.6199 13.7417 17.6199 14.125C17.6199 14.5083 17.4866 14.8333 17.2199 15.1C16.9533 15.3667 16.6283 15.5 16.2449 15.5ZM8.74492 6.65C8.42826 6.65 8.16159 6.54167 7.94492 6.325C7.72826 6.10833 7.61992 5.84167 7.61992 5.525C7.61992 5.20833 7.72826 4.94167 7.94492 4.725C8.16159 4.50833 8.42826 4.4 8.74492 4.4C9.06159 4.4 9.32826 4.50833 9.54492 4.725C9.76159 4.94167 9.86992 5.20833 9.86992 5.525C9.86992 5.84167 9.76159 6.10833 9.54492 6.325C9.32826 6.54167 9.06159 6.65 8.74492 6.65ZM20.5699 17.375C20.3199 17.375 20.1116 17.2917 19.9449 17.125C19.7783 16.9583 19.6949 16.75 19.6949 16.5C19.6949 16.25 19.7783 16.0417 19.9449 15.875C20.1116 15.7083 20.3199 15.625 20.5699 15.625C20.8199 15.625 21.0283 15.7083 21.1949 15.875C21.3616 16.0417 21.4449 16.25 21.4449 16.5C21.4449 16.75 21.3616 16.9583 21.1949 17.125C21.0283 17.2917 20.8199 17.375 20.5699 17.375ZM12.4949 9.15C12.1116 9.15 11.7866 9.01667 11.5199 8.75C11.2533 8.48333 11.1199 8.15833 11.1199 7.775C11.1199 7.39167 11.2533 7.06667 11.5199 6.8C11.7866 6.53333 12.1116 6.4 12.4949 6.4C12.8783 6.4 13.2033 6.53333 13.4699 6.8C13.7366 7.06667 13.8699 7.39167 13.8699 7.775C13.8699 8.15833 13.7366 8.48333 13.4699 8.75C13.2033 9.01667 12.8783 9.15 12.4949 9.15ZM19.9699 13.125C19.6533 13.125 19.3866 13.0167 19.1699 12.8C18.9533 12.5833 18.8449 12.3167 18.8449 12C18.8449 11.6833 18.9533 11.4167 19.1699 11.2C19.3866 10.9833 19.6533 10.875 19.9699 10.875C20.2866 10.875 20.5533 10.9833 20.7699 11.2C20.9866 11.4167 21.0949 11.6833 21.0949 12C21.0949 12.3167 20.9866 12.5833 20.7699 12.8C20.5533 13.0167 20.2866 13.125 19.9699 13.125ZM12.4949 3.75C12.2449 3.75 12.0366 3.66667 11.8699 3.5C11.7033 3.33333 11.6199 3.125 11.6199 2.875C11.6199 2.625 11.7033 2.41667 11.8699 2.25C12.0366 2.08333 12.2449 2 12.4949 2C12.7449 2 12.9533 2.08333 13.1199 2.25C13.2866 2.41667 13.3699 2.625 13.3699 2.875C13.3699 3.125 13.2866 3.33333 13.1199 3.5C12.9533 3.66667 12.7449 3.75 12.4949 3.75ZM16.2449 6.65C15.9283 6.65 15.6616 6.54167 15.4449 6.325C15.2283 6.10833 15.1199 5.84167 15.1199 5.525C15.1199 5.20833 15.2283 4.94167 15.4449 4.725C15.6616 4.50833 15.9283 4.4 16.2449 4.4C16.5616 4.4 16.8283 4.50833 17.0449 4.725C17.2616 4.94167 17.3699 5.20833 17.3699 5.525C17.3699 5.84167 17.2616 6.10833 17.0449 6.325C16.8283 6.54167 16.5616 6.65 16.2449 6.65ZM20.5699 8.375C20.3199 8.375 20.1116 8.29167 19.9449 8.125C19.7783 7.95833 19.6949 7.75 19.6949 7.5C19.6949 7.25 19.7783 7.04167 19.9449 6.875C20.1116 6.70833 20.3199 6.625 20.5699 6.625C20.8199 6.625 21.0283 6.70833 21.1949 6.875C21.3616 7.04167 21.4449 7.25 21.4449 7.5C21.4449 7.75 21.3616 7.95833 21.1949 8.125C21.0283 8.29167 20.8199 8.375 20.5699 8.375Z" fill="black"/>
</g>
<defs>
<clipPath id="clip0_3234_9386">
<rect width="24" height="24" fill="white"/>
</clipPath>
</defs>
</svg>
