<svg width="24" height="24" viewBox="0 0 24 24" fill="none" xmlns="http://www.w3.org/2000/svg">
<g clip-path="url(#clip0_3234_10265)">
<rect width="24" height="24" fill="white"/>
<path d="M10.773 21.3C9.62305 21.3 8.62305 21.075 7.77305 20.625C6.93971 20.175 6.30638 19.5917 5.87305 18.875C5.45638 18.1417 5.24805 17.3583 5.24805 16.525C5.24805 15.6417 5.47305 14.8917 5.92305 14.275C6.37305 13.6583 6.92305 13.15 7.57305 12.75C8.22305 12.35 9.08138 11.9 10.148 11.4C11.198 10.9 12.0314 10.4667 12.648 10.1C13.2647 9.71667 13.7814 9.24167 14.198 8.675C14.6314 8.09167 14.848 7.4 14.848 6.6C14.848 5.56667 14.498 4.74167 13.798 4.125C13.1147 3.49167 12.1897 3.175 11.023 3.175C9.82305 3.175 8.87305 3.5 8.17305 4.15C7.48971 4.78333 7.14805 5.61667 7.14805 6.65C7.14805 7.18333 7.24805 7.675 7.44805 8.125C7.64805 8.55833 7.91471 8.98333 8.24805 9.4C8.59805 9.8 9.13138 10.3667 9.84805 11.1L10.598 11.875L19.373 21H18.698L10.248 12.2L9.44805 11.375C8.73138 10.6417 8.18971 10.0667 7.82305 9.65C7.47305 9.21667 7.18971 8.75833 6.97305 8.275C6.75638 7.775 6.64805 7.23333 6.64805 6.65C6.64805 5.86667 6.83138 5.175 7.19805 4.575C7.56471 3.975 8.07305 3.51667 8.72305 3.2C9.38971 2.86667 10.1564 2.7 11.023 2.7C11.873 2.7 12.623 2.85833 13.273 3.175C13.9397 3.49167 14.448 3.95 14.798 4.55C15.1647 5.13333 15.348 5.81667 15.348 6.6C15.348 7.48333 15.123 8.24167 14.673 8.875C14.223 9.49167 13.673 10 13.023 10.4C12.3897 10.8 11.523 11.2667 10.423 11.8C9.38971 12.2833 8.55638 12.7167 7.92305 13.1C7.30638 13.4667 6.78971 13.9333 6.37305 14.5C5.95638 15.0667 5.74805 15.75 5.74805 16.55C5.74805 17.3 5.93971 18 6.32305 18.65C6.70638 19.3 7.28138 19.825 8.04805 20.225C8.81471 20.625 9.73138 20.825 10.798 20.825C12.1647 20.825 13.3897 20.4917 14.473 19.825C15.5564 19.1417 16.4064 18.1583 17.023 16.875C17.6564 15.5917 17.973 14.075 17.973 12.325H18.473C18.473 14.1583 18.1397 15.7583 17.473 17.125C16.8064 18.475 15.8897 19.5083 14.723 20.225C13.5564 20.9417 12.2397 21.3 10.773 21.3Z" fill="black"/>
</g>
<defs>
<clipPath id="clip0_3234_10265">
<rect width="24" height="24" fill="white"/>
</clipPath>
</defs>
</svg>
