<svg width="24" height="24" viewBox="0 0 24 24" fill="none" xmlns="http://www.w3.org/2000/svg">
<g clip-path="url(#clip0_3234_10279)">
<rect width="24" height="24" fill="white"/>
<path d="M10.6889 21.325C9.3722 21.325 8.23053 21.1 7.26387 20.65C6.2972 20.1833 5.56387 19.55 5.06387 18.75C4.58053 17.95 4.33887 17.0583 4.33887 16.075C4.33887 15.0917 4.5722 14.2667 5.03887 13.6C5.5222 12.9167 6.0972 12.375 6.76387 11.975C7.4472 11.5583 8.3222 11.1 9.38887 10.6C10.2222 10.2167 10.8805 9.89167 11.3639 9.625C11.8639 9.34167 12.2722 9.00833 12.5889 8.625C12.9055 8.225 13.0639 7.76667 13.0639 7.25C13.0639 6.66667 12.8639 6.20833 12.4639 5.875C12.0805 5.525 11.5555 5.35 10.8889 5.35C10.2055 5.35 9.66387 5.525 9.26387 5.875C8.86387 6.20833 8.66387 6.68333 8.66387 7.3C8.66387 7.65 8.73053 7.975 8.86387 8.275C9.01387 8.575 9.2222 8.88333 9.48887 9.2C9.7722 9.51667 10.2055 9.99167 10.7889 10.625L11.3389 11.225L20.4889 21H16.6889L8.76387 12.5L8.21387 11.925C7.51387 11.1917 6.9972 10.6167 6.66387 10.2C6.33053 9.78333 6.06387 9.35 5.86387 8.9C5.68053 8.43333 5.58887 7.90833 5.58887 7.325C5.58887 6.40833 5.81387 5.6 6.26387 4.9C6.71387 4.18333 7.33887 3.63333 8.13887 3.25C8.93887 2.86667 9.86387 2.675 10.9139 2.675C11.9305 2.675 12.8305 2.86667 13.6139 3.25C14.4139 3.61667 15.0389 4.15 15.4889 4.85C15.9389 5.53333 16.1639 6.325 16.1639 7.225C16.1639 8.15833 15.9305 8.95833 15.4639 9.625C14.9972 10.275 14.4305 10.8083 13.7639 11.225C13.0972 11.6417 12.2389 12.0917 11.1889 12.575C10.3389 12.975 9.66387 13.325 9.16387 13.625C8.68053 13.925 8.26387 14.275 7.91387 14.675C7.58053 15.075 7.41387 15.55 7.41387 16.1C7.41387 16.5833 7.5472 17.0167 7.81387 17.4C8.08053 17.7667 8.46387 18.0583 8.96387 18.275C9.46387 18.4917 10.0555 18.6 10.7389 18.6C11.7722 18.6 12.7055 18.3583 13.5389 17.875C14.3722 17.375 15.0305 16.65 15.5139 15.7C15.9972 14.75 16.2389 13.625 16.2389 12.325H19.2139C19.2139 14.075 18.8639 15.6333 18.1639 17C17.4639 18.35 16.4639 19.4083 15.1639 20.175C13.8805 20.9417 12.3889 21.325 10.6889 21.325Z" fill="black"/>
</g>
<defs>
<clipPath id="clip0_3234_10279">
<rect width="24" height="24" fill="white"/>
</clipPath>
</defs>
</svg>
