<svg width="24" height="24" viewBox="0 0 24 24" fill="none" xmlns="http://www.w3.org/2000/svg">
<g clip-path="url(#clip0_3234_10281)">
<rect width="24" height="24" fill="white"/>
<path d="M11.2191 21.35C9.81914 21.35 8.61914 21.1083 7.61914 20.625C6.61914 20.125 5.86914 19.4667 5.36914 18.65C4.86914 17.8167 4.61914 16.9083 4.61914 15.925C4.61914 14.9417 4.85247 14.1167 5.31914 13.45C5.80247 12.7833 6.37747 12.25 7.04414 11.85C7.72747 11.4333 8.60247 10.9917 9.66914 10.525C10.4691 10.1583 11.1025 9.85 11.5691 9.6C12.0358 9.33333 12.4191 9.025 12.7191 8.675C13.0358 8.30833 13.1941 7.88333 13.1941 7.4C13.1941 6.9 13.0275 6.50833 12.6941 6.225C12.3775 5.925 11.9275 5.775 11.3441 5.775C10.7441 5.775 10.2775 5.91667 9.94414 6.2C9.62747 6.48333 9.46914 6.9 9.46914 7.45C9.46914 7.78333 9.53581 8.09167 9.66914 8.375C9.80247 8.65833 10.0025 8.95833 10.2691 9.275C10.5525 9.59167 11.0025 10.075 11.6191 10.725L12.2191 11.375L21.2191 21H16.7941L8.99414 12.65L8.44414 12.075C7.72747 11.3083 7.20247 10.7167 6.86914 10.3C6.53581 9.88333 6.26914 9.45833 6.06914 9.025C5.88581 8.575 5.79414 8.06667 5.79414 7.5C5.79414 6.56667 6.02747 5.73333 6.49414 5C6.97747 4.25 7.63581 3.675 8.46914 3.275C9.31914 2.85833 10.2941 2.65 11.3941 2.65C12.4608 2.65 13.4025 2.85 14.2191 3.25C15.0525 3.65 15.7025 4.20833 16.1691 4.925C16.6358 5.64167 16.8691 6.46667 16.8691 7.4C16.8691 8.33333 16.6358 9.13333 16.1691 9.8C15.7025 10.45 15.1358 10.9833 14.4691 11.4C13.8025 11.8 12.9441 12.2417 11.8941 12.725C11.0941 13.0917 10.4525 13.4167 9.96914 13.7C9.50247 13.9667 9.10247 14.2833 8.76914 14.65C8.45247 15.0167 8.29414 15.45 8.29414 15.95C8.27747 16.3833 8.38581 16.7667 8.61914 17.1C8.86914 17.4167 9.21914 17.675 9.66914 17.875C10.1191 18.0583 10.6525 18.15 11.2691 18.15C12.2191 18.15 13.0775 17.925 13.8441 17.475C14.6108 17.025 15.2191 16.3667 15.6691 15.5C16.1191 14.6167 16.3441 13.5583 16.3441 12.325H19.8441C19.8441 14.0417 19.4941 15.5833 18.7941 16.95C18.1108 18.3167 17.1108 19.3917 15.7941 20.175C14.4941 20.9583 12.9691 21.35 11.2191 21.35Z" fill="black"/>
</g>
<defs>
<clipPath id="clip0_3234_10281">
<rect width="24" height="24" fill="white"/>
</clipPath>
</defs>
</svg>
