<svg width="24" height="24" viewBox="0 0 24 24" fill="none" xmlns="http://www.w3.org/2000/svg">
<g clip-path="url(#clip0_3234_9156)">
<rect width="24" height="24" fill="white"/>
<path d="M1.07305 12.1187C1.07305 10.0687 1.53971 8.23542 2.47305 6.61875C3.40638 4.98542 4.69805 3.71875 6.34805 2.81875C7.99805 1.90208 9.87305 1.44375 11.973 1.44375C14.0897 1.44375 15.973 1.89375 17.623 2.79375C19.2897 3.67708 20.5897 4.91042 21.523 6.49375C22.4564 8.07708 22.923 9.87708 22.923 11.8937C22.923 12.9771 22.7064 13.9354 22.273 14.7687C21.8564 15.5854 21.2647 16.2271 20.498 16.6938C19.748 17.1604 18.8814 17.3937 17.898 17.3937C16.948 17.3937 16.1314 17.1937 15.448 16.7937C14.7814 16.3937 14.323 15.7854 14.073 14.9687L14.773 15.2188C14.4064 15.9187 13.898 16.4604 13.248 16.8437C12.6147 17.2104 11.9064 17.3937 11.123 17.3937C10.3064 17.3937 9.54805 17.1937 8.84805 16.7937C8.14805 16.3771 7.58971 15.7771 7.17305 14.9937C6.77305 14.2104 6.57305 13.2687 6.57305 12.1687C6.57305 11.1521 6.75638 10.2521 7.12305 9.46875C7.48971 8.66875 7.98971 8.05208 8.62305 7.61875C9.27305 7.18542 9.99805 6.96875 10.798 6.96875C11.5147 6.96875 12.148 7.14375 12.698 7.49375C13.2647 7.84375 13.723 8.36042 14.073 9.04375L13.623 9.46875V7.21875H16.598V13.2187C16.598 13.6687 16.723 14.0187 16.973 14.2687C17.2397 14.5187 17.5897 14.6437 18.023 14.6437C18.3897 14.6437 18.7147 14.5271 18.998 14.2937C19.298 14.0604 19.5314 13.7354 19.698 13.3187C19.8647 12.8854 19.948 12.4104 19.948 11.8937C19.948 10.4271 19.6064 9.11875 18.923 7.96875C18.2564 6.80208 17.3147 5.89375 16.098 5.24375C14.898 4.57708 13.523 4.24375 11.973 4.24375C10.4397 4.24375 9.07305 4.58542 7.87305 5.26875C6.68971 5.93542 5.75638 6.86875 5.07305 8.06875C4.40638 9.25208 4.07305 10.6021 4.07305 12.1187C4.07305 13.6187 4.40638 14.9687 5.07305 16.1687C5.75638 17.3687 6.68971 18.3021 7.87305 18.9688C9.07305 19.6354 10.4397 19.9688 11.973 19.9688V22.7938C9.87305 22.7938 7.99805 22.3354 6.34805 21.4188C4.69805 20.5188 3.40638 19.2604 2.47305 17.6437C1.53971 16.0104 1.07305 14.1687 1.07305 12.1187ZM9.57305 12.1437C9.57305 12.6771 9.64805 13.1354 9.79805 13.5187C9.96471 13.8854 10.198 14.1687 10.498 14.3687C10.8147 14.5521 11.1897 14.6437 11.623 14.6437C12.0397 14.6437 12.398 14.5521 12.698 14.3687C12.998 14.1687 13.223 13.8854 13.373 13.5187C13.5397 13.1354 13.623 12.6771 13.623 12.1437C13.623 11.6271 13.548 11.1854 13.398 10.8187C13.248 10.4521 13.0147 10.1771 12.698 9.99375C12.398 9.79375 12.0397 9.69375 11.623 9.69375C11.173 9.69375 10.798 9.79375 10.498 9.99375C10.198 10.1937 9.96471 10.4771 9.79805 10.8437C9.64805 11.2104 9.57305 11.6437 9.57305 12.1437Z" fill="black"/>
</g>
<defs>
<clipPath id="clip0_3234_9156">
<rect width="24" height="24" fill="white"/>
</clipPath>
</defs>
</svg>
