<svg width="24" height="24" viewBox="0 0 24 24" fill="none" xmlns="http://www.w3.org/2000/svg">
<g clip-path="url(#clip0_3233_9150)">
<rect width="24" height="24" fill="white"/>
<path d="M1.49805 12.1187C1.49805 10.2021 1.95638 8.46042 2.87305 6.89375C3.78971 5.32708 5.03971 4.10208 6.62305 3.21875C8.22305 2.31875 10.0064 1.86875 11.973 1.86875C13.9397 1.86875 15.723 2.31875 17.323 3.21875C18.9397 4.10208 20.2064 5.32708 21.123 6.89375C22.0564 8.46042 22.523 10.2021 22.523 12.1187C22.523 13.1521 22.323 14.0771 21.923 14.8937C21.5397 15.6937 21.0147 16.3187 20.348 16.7687C19.6814 17.2187 18.9564 17.4437 18.173 17.4437C17.2564 17.4437 16.5314 17.1771 15.998 16.6437C15.4647 16.0937 15.1647 15.2854 15.098 14.2187L15.623 14.4187C15.323 15.3521 14.7897 16.0937 14.023 16.6437C13.273 17.1771 12.4147 17.4437 11.448 17.4437C10.548 17.4437 9.73971 17.2271 9.02305 16.7937C8.32305 16.3604 7.77305 15.7437 7.37305 14.9437C6.98971 14.1437 6.79805 13.2271 6.79805 12.1937C6.79805 11.1604 6.98971 10.2604 7.37305 9.49375C7.77305 8.71042 8.32305 8.11042 9.02305 7.69375C9.72305 7.26042 10.5064 7.04375 11.373 7.04375C12.3064 7.04375 13.1147 7.28542 13.798 7.76875C14.498 8.25208 14.998 8.93542 15.298 9.81875L14.923 10.1687V7.29375H16.348V13.8687C16.348 14.6021 16.498 15.1604 16.798 15.5437C17.098 15.9104 17.5647 16.0937 18.198 16.0937C18.7147 16.0937 19.1897 15.9354 19.623 15.6187C20.073 15.2854 20.4314 14.8187 20.698 14.2187C20.9647 13.6021 21.098 12.9021 21.098 12.1187C21.098 10.4354 20.698 8.91875 19.898 7.56875C19.1147 6.20208 18.023 5.13542 16.623 4.36875C15.2397 3.58542 13.6897 3.19375 11.973 3.19375C10.273 3.19375 8.73138 3.58542 7.34805 4.36875C5.98138 5.13542 4.89805 6.20208 4.09805 7.56875C3.31471 8.91875 2.92305 10.4354 2.92305 12.1187C2.92305 13.7854 3.31471 15.3021 4.09805 16.6687C4.89805 18.0187 5.98138 19.0771 7.34805 19.8438C8.73138 20.6271 10.273 21.0188 11.973 21.0188V22.3688C10.0064 22.3688 8.22305 21.9188 6.62305 21.0188C5.03971 20.1354 3.78971 18.9104 2.87305 17.3437C1.95638 15.7771 1.49805 14.0354 1.49805 12.1187ZM8.22305 12.1937C8.22305 13.0104 8.36471 13.7104 8.64805 14.2937C8.93138 14.8771 9.32305 15.3271 9.82305 15.6437C10.3397 15.9437 10.9314 16.0937 11.598 16.0937C12.2647 16.0937 12.848 15.9354 13.348 15.6187C13.848 15.3021 14.2314 14.8521 14.498 14.2687C14.7814 13.6854 14.923 13.0021 14.923 12.2187C14.923 11.4354 14.7814 10.7604 14.498 10.1937C14.2147 9.61042 13.823 9.16875 13.323 8.86875C12.823 8.55208 12.2397 8.39375 11.573 8.39375C10.8897 8.39375 10.298 8.54375 9.79805 8.84375C9.29805 9.12708 8.90638 9.56042 8.62305 10.1437C8.35638 10.7104 8.22305 11.3937 8.22305 12.1937Z" fill="black"/>
</g>
<defs>
<clipPath id="clip0_3233_9150">
<rect width="24" height="24" fill="white"/>
</clipPath>
</defs>
</svg>
