<svg width="24" height="24" viewBox="0 0 24 24" fill="none" xmlns="http://www.w3.org/2000/svg">
<g clip-path="url(#clip0_3233_9152)">
<rect width="24" height="24" fill="white"/>
<path d="M1.49805 12.1187C1.49805 10.2021 1.95638 8.46042 2.87305 6.89375C3.78971 5.32708 5.03971 4.10208 6.62305 3.21875C8.22305 2.31875 10.0064 1.86875 11.973 1.86875C13.9397 1.86875 15.723 2.31875 17.323 3.21875C18.9397 4.10208 20.2064 5.32708 21.123 6.89375C22.0564 8.46042 22.523 10.2021 22.523 12.1187C22.523 13.1687 22.3147 14.1021 21.898 14.9187C21.4814 15.7187 20.923 16.3437 20.223 16.7937C19.5397 17.2271 18.8064 17.4437 18.023 17.4437C17.123 17.4437 16.398 17.2104 15.848 16.7437C15.298 16.2771 14.948 15.5937 14.798 14.6937L15.498 14.8437C15.148 15.6604 14.598 16.3021 13.848 16.7687C13.1147 17.2187 12.298 17.4437 11.398 17.4437C10.498 17.4437 9.68971 17.2271 8.97305 16.7937C8.27305 16.3604 7.72305 15.7521 7.32305 14.9687C6.93971 14.1687 6.74805 13.2521 6.74805 12.2187C6.74805 11.1854 6.94805 10.2771 7.34805 9.49375C7.74805 8.71042 8.29805 8.11042 8.99805 7.69375C9.69805 7.26042 10.4814 7.04375 11.348 7.04375C12.1814 7.04375 12.9147 7.23542 13.548 7.61875C14.198 8.00208 14.698 8.55208 15.048 9.26875L14.598 9.74375V7.29375H16.473V13.9187C16.473 14.4687 16.598 14.9021 16.848 15.2188C17.1147 15.5187 17.523 15.6687 18.073 15.6687C18.5064 15.6687 18.9147 15.5271 19.298 15.2437C19.698 14.9604 20.0147 14.5521 20.248 14.0187C20.498 13.4687 20.623 12.8354 20.623 12.1187C20.623 10.5187 20.248 9.07708 19.498 7.79375C18.748 6.49375 17.7147 5.47708 16.398 4.74375C15.0814 3.99375 13.6064 3.61875 11.973 3.61875C10.3564 3.61875 8.89805 3.99375 7.59805 4.74375C6.29805 5.47708 5.27305 6.49375 4.52305 7.79375C3.77305 9.07708 3.39805 10.5187 3.39805 12.1187C3.39805 13.7021 3.77305 15.1437 4.52305 16.4437C5.27305 17.7271 6.29805 18.7354 7.59805 19.4688C8.89805 20.2188 10.3564 20.5938 11.973 20.5938V22.3688C10.0064 22.3688 8.22305 21.9188 6.62305 21.0188C5.03971 20.1354 3.78971 18.9104 2.87305 17.3437C1.95638 15.7771 1.49805 14.0354 1.49805 12.1187ZM8.64805 12.2187C8.64805 12.9521 8.76471 13.5771 8.99805 14.0937C9.24805 14.6104 9.59805 15.0021 10.048 15.2687C10.498 15.5354 11.0314 15.6687 11.648 15.6687C12.2314 15.6687 12.7397 15.5354 13.173 15.2687C13.623 14.9854 13.973 14.5854 14.223 14.0687C14.473 13.5521 14.598 12.9354 14.598 12.2187C14.598 11.5021 14.473 10.8937 14.223 10.3937C13.973 9.87708 13.623 9.48542 13.173 9.21875C12.7397 8.95208 12.2314 8.81875 11.648 8.81875C11.0147 8.81875 10.473 8.95208 10.023 9.21875C9.58971 9.46875 9.24805 9.85208 8.99805 10.3687C8.76471 10.8687 8.64805 11.4854 8.64805 12.2187Z" fill="black"/>
</g>
<defs>
<clipPath id="clip0_3233_9152">
<rect width="24" height="24" fill="white"/>
</clipPath>
</defs>
</svg>
