<svg width="24" height="24" viewBox="0 0 24 24" fill="none" xmlns="http://www.w3.org/2000/svg">
<g clip-path="url(#clip0_3234_10450)">
<rect width="24" height="24" fill="white"/>
<path d="M15.125 7.8C14.6083 7.35 13.8667 7.125 12.9 7.125H8.575V16.85H13.075C14.075 16.85 14.85 16.6167 15.4 16.15C15.9667 15.6833 16.25 15.0333 16.25 14.2C16.25 13.6 16.0917 13.1083 15.775 12.725C15.475 12.325 15.0333 12.0333 14.45 11.85C14.9167 11.6667 15.275 11.3917 15.525 11.025C15.7917 10.6417 15.925 10.1833 15.925 9.65C15.925 8.86667 15.6583 8.25 15.125 7.8ZM14.325 15.2C14.025 15.4667 13.6083 15.6 13.075 15.6H10V12.55H13.025C13.575 12.55 14.0083 12.6833 14.325 12.95C14.6417 13.2167 14.8 13.5917 14.8 14.075C14.8 14.5583 14.6417 14.9333 14.325 15.2ZM14.025 11C13.7417 11.25 13.3333 11.375 12.8 11.375H10V8.375H12.875C13.375 8.375 13.7667 8.50833 14.05 8.775C14.3333 9.04167 14.475 9.40833 14.475 9.875C14.475 10.3583 14.325 10.7333 14.025 11ZM17.05 20.675C15.5167 21.5583 13.8333 22 12 22C10.1667 22 8.48333 21.5583 6.95 20.675C5.41667 19.7917 4.20833 18.5833 3.325 17.05C2.44167 15.5167 2 13.8333 2 12C2 10.1667 2.44167 8.48333 3.325 6.95C4.20833 5.41667 5.41667 4.20833 6.95 3.325C8.48333 2.44167 10.1667 2 12 2C13.8333 2 15.5167 2.44167 17.05 3.325C18.5833 4.20833 19.7917 5.41667 20.675 6.95C21.5583 8.48333 22 10.1667 22 12C22 13.8333 21.5583 15.5167 20.675 17.05C19.7917 18.5833 18.5833 19.7917 17.05 20.675Z" fill="black"/>
</g>
<defs>
<clipPath id="clip0_3234_10450">
<rect width="24" height="24" fill="white"/>
</clipPath>
</defs>
</svg>
