<svg width="24" height="24" viewBox="0 0 24 24" fill="none" xmlns="http://www.w3.org/2000/svg">
<g clip-path="url(#clip0_3254_17884)">
<rect width="24" height="24" fill="white"/>
<path d="M12.0005 22C10.1672 22 8.48382 21.5583 6.95049 20.675C5.41716 19.7917 4.20882 18.5833 3.32549 17.05C2.44216 15.5167 2.00049 13.8333 2.00049 12C2.00049 10.1667 2.44216 8.48333 3.32549 6.95C4.20882 5.41667 5.41716 4.20833 6.95049 3.325C8.48382 2.44167 10.1672 2 12.0005 2C13.8338 2 15.5172 2.44167 17.0505 3.325C18.5838 4.20833 19.7922 5.41667 20.6755 6.95C21.5588 8.48333 22.0005 10.1667 22.0005 12C22.0005 13.8333 21.5588 15.5167 20.6755 17.05C19.7922 18.5833 18.5838 19.7917 17.0505 20.675C15.5172 21.5583 13.8338 22 12.0005 22ZM12.0005 21.075C13.6672 21.075 15.1838 20.675 16.5505 19.875C17.9338 19.075 19.0255 17.9833 19.8255 16.6C20.6255 15.2 21.0255 13.6667 21.0255 12C21.0255 10.3333 20.6255 8.80833 19.8255 7.425C19.0255 6.025 17.9338 4.925 16.5505 4.125C15.1838 3.325 13.6672 2.925 12.0005 2.925C10.3338 2.925 8.80882 3.325 7.42549 4.125C6.05882 4.925 4.97549 6.025 4.17549 7.425C3.37549 8.80833 2.97549 10.3333 2.97549 12C2.97549 13.6667 3.37549 15.2 4.17549 16.6C4.97549 17.9833 6.05882 19.075 7.42549 19.875C8.80882 20.675 10.3338 21.075 12.0005 21.075ZM12.7505 7.1C13.6672 7.1 14.3755 7.33333 14.8755 7.8C15.3755 8.25 15.6255 8.85833 15.6255 9.625C15.6255 10.175 15.4922 10.6417 15.2255 11.025C14.9588 11.3917 14.5838 11.6583 14.1005 11.825C14.7005 11.9917 15.1588 12.2833 15.4755 12.7C15.7922 13.1 15.9505 13.6083 15.9505 14.225C15.9505 15.025 15.6838 15.6583 15.1505 16.125C14.6338 16.5917 13.9005 16.825 12.9505 16.825H8.60049V7.1H12.7505ZM12.9255 15.975C13.5755 15.975 14.0755 15.8167 14.4255 15.5C14.7922 15.1667 14.9755 14.7167 14.9755 14.15C14.9755 13.5667 14.7922 13.125 14.4255 12.825C14.0588 12.5083 13.5505 12.35 12.9005 12.35H9.57549V15.975H12.9255ZM12.6755 11.525C13.2755 11.525 13.7505 11.3667 14.1005 11.05C14.4672 10.7333 14.6505 10.2917 14.6505 9.725C14.6505 9.19167 14.4755 8.76667 14.1255 8.45C13.7922 8.11667 13.3255 7.95 12.7255 7.95H9.57549V11.525H12.6755Z" fill="black"/>
</g>
<defs>
<clipPath id="clip0_3254_17884">
<rect width="24" height="24" fill="white"/>
</clipPath>
</defs>
</svg>
