<svg width="24" height="24" viewBox="0 0 24 24" fill="none" xmlns="http://www.w3.org/2000/svg">
<g clip-path="url(#clip0_3254_17892)">
<rect width="24" height="24" fill="white"/>
<path d="M12.0005 22C10.1672 22 8.48382 21.5583 6.95049 20.675C5.41716 19.7917 4.20882 18.5833 3.32549 17.05C2.44216 15.5167 2.00049 13.8333 2.00049 12C2.00049 10.1667 2.44216 8.48333 3.32549 6.95C4.20882 5.41667 5.41716 4.20833 6.95049 3.325C8.48382 2.44167 10.1672 2 12.0005 2C13.8338 2 15.5172 2.44167 17.0505 3.325C18.5838 4.20833 19.7922 5.41667 20.6755 6.95C21.5588 8.48333 22.0005 10.1667 22.0005 12C22.0005 13.8333 21.5588 15.5167 20.6755 17.05C19.7922 18.5833 18.5838 19.7917 17.0505 20.675C15.5172 21.5583 13.8338 22 12.0005 22ZM12.0005 19.025C13.2838 19.025 14.4588 18.7167 15.5255 18.1C16.5922 17.4667 17.4338 16.6167 18.0505 15.55C18.6672 14.4833 18.9755 13.3 18.9755 12C18.9755 10.7 18.6672 9.51667 18.0505 8.45C17.4338 7.38333 16.5922 6.54167 15.5255 5.925C14.4588 5.29167 13.2838 4.975 12.0005 4.975C10.7172 4.975 9.54216 5.29167 8.47549 5.925C7.40882 6.54167 6.56716 7.38333 5.95049 8.45C5.33382 9.51667 5.02549 10.7 5.02549 12C5.02549 13.3 5.33382 14.4833 5.95049 15.55C6.56716 16.6167 7.40882 17.4667 8.47549 18.1C9.54216 18.7167 10.7172 19.025 12.0005 19.025ZM12.9255 7.25C13.9422 7.25 14.7422 7.46667 15.3255 7.9C15.9255 8.33333 16.2255 8.93333 16.2255 9.7C16.2255 10.2 16.1088 10.625 15.8755 10.975C15.6422 11.325 15.3088 11.5917 14.8755 11.775C15.3922 11.9917 15.7838 12.2917 16.0505 12.675C16.3172 13.0417 16.4505 13.5 16.4505 14.05C16.4505 14.8667 16.1505 15.5083 15.5505 15.975C14.9672 16.4417 14.1505 16.675 13.1005 16.675H8.25049V7.25H12.9255ZM12.9255 14.55C13.1755 14.55 13.3755 14.4833 13.5255 14.35C13.6922 14.2 13.7755 14.0083 13.7755 13.775C13.7755 13.5083 13.6922 13.3083 13.5255 13.175C13.3755 13.025 13.1588 12.95 12.8755 12.95H10.8755V14.55H12.9255ZM12.7255 10.975C12.9755 10.975 13.1755 10.9083 13.3255 10.775C13.4755 10.625 13.5505 10.425 13.5505 10.175C13.5505 9.925 13.4755 9.73333 13.3255 9.6C13.1755 9.45 12.9755 9.375 12.7255 9.375H10.8755V10.975H12.7255Z" fill="black"/>
</g>
<defs>
<clipPath id="clip0_3254_17892">
<rect width="24" height="24" fill="white"/>
</clipPath>
</defs>
</svg>
