<svg width="24" height="24" viewBox="0 0 24 24" fill="none" xmlns="http://www.w3.org/2000/svg">
<g clip-path="url(#clip0_3254_17890)">
<rect width="24" height="24" fill="white"/>
<path d="M12.0005 22C10.1672 22 8.48382 21.5583 6.95049 20.675C5.41716 19.7917 4.20882 18.5833 3.32549 17.05C2.44216 15.5167 2.00049 13.8333 2.00049 12C2.00049 10.1667 2.44216 8.48333 3.32549 6.95C4.20882 5.41667 5.41716 4.20833 6.95049 3.325C8.48382 2.44167 10.1672 2 12.0005 2C13.8338 2 15.5172 2.44167 17.0505 3.325C18.5838 4.20833 19.7922 5.41667 20.6755 6.95C21.5588 8.48333 22.0005 10.1667 22.0005 12C22.0005 13.8333 21.5588 15.5167 20.6755 17.05C19.7922 18.5833 18.5838 19.7917 17.0505 20.675C15.5172 21.5583 13.8338 22 12.0005 22ZM12.0005 19.575C13.4005 19.575 14.6672 19.2417 15.8005 18.575C16.9505 17.9083 17.8588 17 18.5255 15.85C19.1922 14.6833 19.5255 13.4 19.5255 12C19.5255 10.6 19.1922 9.325 18.5255 8.175C17.8588 7.00833 16.9505 6.09167 15.8005 5.425C14.6672 4.75833 13.4005 4.425 12.0005 4.425C10.6005 4.425 9.32549 4.75833 8.17549 5.425C7.04216 6.09167 6.14216 7.00833 5.47549 8.175C4.80882 9.325 4.47549 10.6 4.47549 12C4.47549 13.4 4.80882 14.6833 5.47549 15.85C6.14216 17 7.04216 17.9083 8.17549 18.575C9.32549 19.2417 10.6005 19.575 12.0005 19.575ZM12.8505 7.175C13.8838 7.175 14.6838 7.4 15.2505 7.85C15.8172 8.28333 16.1005 8.89167 16.1005 9.675C16.1005 10.1917 15.9755 10.6333 15.7255 11C15.4922 11.35 15.1588 11.6167 14.7255 11.8C15.2588 12 15.6672 12.2917 15.9505 12.675C16.2338 13.0583 16.3755 13.5333 16.3755 14.1C16.3755 14.9333 16.0838 15.5833 15.5005 16.05C14.9172 16.5167 14.0922 16.75 13.0255 16.75H8.25049V7.175H12.8505ZM12.9255 14.875C13.2922 14.875 13.5755 14.7833 13.7755 14.6C13.9755 14.4167 14.0755 14.1667 14.0755 13.85C14.0755 13.5333 13.9672 13.2833 13.7505 13.1C13.5505 12.9167 13.2672 12.825 12.9005 12.825H10.5255V14.875H12.9255ZM12.7005 11.075C13.0505 11.075 13.3172 10.9917 13.5005 10.825C13.7005 10.6417 13.8005 10.3833 13.8005 10.05C13.8005 9.75 13.7088 9.50833 13.5255 9.325C13.3422 9.14167 13.0755 9.05 12.7255 9.05H10.5255V11.075H12.7005Z" fill="black"/>
</g>
<defs>
<clipPath id="clip0_3254_17890">
<rect width="24" height="24" fill="white"/>
</clipPath>
</defs>
</svg>
