<svg width="24" height="24" viewBox="0 0 24 24" fill="none" xmlns="http://www.w3.org/2000/svg">
<g clip-path="url(#clip0_3254_18752)">
<rect width="24" height="24" fill="white"/>
<path d="M7.50049 21C6.66716 21 5.90882 20.8 5.22549 20.4C4.54216 20 4.00049 19.4583 3.60049 18.775C3.20049 18.0917 3.00049 17.3333 3.00049 16.5V7.5C3.00049 6.66667 3.20049 5.90833 3.60049 5.225C4.00049 4.54167 4.54216 4 5.22549 3.6C5.90882 3.2 6.66716 3 7.50049 3H16.2505C17.1172 3 17.9088 3.2 18.6255 3.6C19.3588 4 19.9338 4.54167 20.3505 5.225C20.7838 5.90833 21.0005 6.66667 21.0005 7.5V16.5C21.0005 17.3333 20.8005 18.0917 20.4005 18.775C20.0005 19.4583 19.4588 20 18.7755 20.4C18.0922 20.8 17.3338 21 16.5005 21H7.50049ZM16.5005 17.6C16.8005 17.6 17.0505 17.5 17.2505 17.3C17.4505 17.0833 17.5505 16.8167 17.5505 16.5V7.475C17.5505 7.175 17.4505 6.925 17.2505 6.725C17.0505 6.50833 16.8005 6.4 16.5005 6.4H7.50049C7.20049 6.4 6.95049 6.50833 6.75049 6.725C6.55049 6.925 6.45049 7.18333 6.45049 7.5V16.5C6.45049 16.8167 6.55049 17.0833 6.75049 17.3C6.95049 17.5 7.20049 17.6 7.50049 17.6H16.5005ZM12.8255 7.325C13.8588 7.325 14.6755 7.54167 15.2755 7.975C15.8755 8.39167 16.1755 8.98333 16.1755 9.75C16.1755 10.2333 16.0588 10.65 15.8255 11C15.6088 11.3333 15.2922 11.5917 14.8755 11.775C15.3588 11.9917 15.7255 12.2833 15.9755 12.65C16.2422 13.0167 16.3755 13.4667 16.3755 14C16.3755 14.8167 16.0755 15.4583 15.4755 15.925C14.8922 16.375 14.0672 16.6 13.0005 16.6H8.07549V7.325H12.8255ZM12.9255 14.325C13.0922 14.325 13.2255 14.2667 13.3255 14.15C13.4255 14.0333 13.4755 13.8833 13.4755 13.7C13.4755 13.5 13.4255 13.3417 13.3255 13.225C13.2255 13.1083 13.0838 13.05 12.9005 13.05H10.9005V14.325H12.9255ZM12.7505 10.875C12.9172 10.875 13.0505 10.825 13.1505 10.725C13.2505 10.6083 13.3005 10.45 13.3005 10.25C13.3005 10.05 13.2505 9.9 13.1505 9.8C13.0505 9.68333 12.9088 9.625 12.7255 9.625H10.9005V10.875H12.7505Z" fill="black"/>
</g>
<defs>
<clipPath id="clip0_3254_18752">
<rect width="24" height="24" fill="white"/>
</clipPath>
</defs>
</svg>
