<svg width="24" height="24" viewBox="0 0 24 24" fill="none" xmlns="http://www.w3.org/2000/svg">
<g clip-path="url(#clip0_3254_17886)">
<rect width="24" height="24" fill="white"/>
<path d="M12.0005 22C10.1672 22 8.48382 21.5583 6.95049 20.675C5.41716 19.7917 4.20882 18.5833 3.32549 17.05C2.44216 15.5167 2.00049 13.8333 2.00049 12C2.00049 10.1667 2.44216 8.48333 3.32549 6.95C4.20882 5.41667 5.41716 4.20833 6.95049 3.325C8.48382 2.44167 10.1672 2 12.0005 2C13.8338 2 15.5172 2.44167 17.0505 3.325C18.5838 4.20833 19.7922 5.41667 20.6755 6.95C21.5588 8.48333 22.0005 10.1667 22.0005 12C22.0005 13.8333 21.5588 15.5167 20.6755 17.05C19.7922 18.5833 18.5838 19.7917 17.0505 20.675C15.5172 21.5583 13.8338 22 12.0005 22ZM12.0005 20.6C13.5838 20.6 15.0255 20.225 16.3255 19.475C17.6422 18.7083 18.6755 17.675 19.4255 16.375C20.1922 15.0583 20.5755 13.6 20.5755 12C20.5755 10.4 20.1922 8.95 19.4255 7.65C18.6755 6.33333 17.6422 5.3 16.3255 4.55C15.0255 3.78333 13.5838 3.4 12.0005 3.4C10.4172 3.4 8.96716 3.78333 7.65049 4.55C6.35049 5.3 5.31716 6.33333 4.55049 7.65C3.80049 8.95 3.42549 10.4 3.42549 12C3.42549 13.6 3.80049 15.0583 4.55049 16.375C5.31716 17.675 6.35049 18.7083 7.65049 19.475C8.96716 20.225 10.4172 20.6 12.0005 20.6ZM12.7755 7.1C13.7422 7.1 14.4838 7.325 15.0005 7.775C15.5338 8.225 15.8005 8.84167 15.8005 9.625C15.8005 10.1583 15.6672 10.6167 15.4005 11C15.1505 11.3667 14.7922 11.6417 14.3255 11.825C14.9088 12.0083 15.3505 12.3 15.6505 12.7C15.9672 13.0833 16.1255 13.575 16.1255 14.175C16.1255 15.0083 15.8422 15.6583 15.2755 16.125C14.7255 16.5917 13.9505 16.825 12.9505 16.825H8.45049V7.1H12.7755ZM12.9505 15.575C13.4838 15.575 13.9005 15.4417 14.2005 15.175C14.5172 14.9083 14.6755 14.5333 14.6755 14.05C14.6755 13.5667 14.5172 13.1917 14.2005 12.925C13.8838 12.6583 13.4505 12.525 12.9005 12.525H9.87549V15.575H12.9505ZM12.6755 11.35C13.2088 11.35 13.6172 11.225 13.9005 10.975C14.2005 10.7083 14.3505 10.3333 14.3505 9.85C14.3505 9.38333 14.2088 9.01667 13.9255 8.75C13.6422 8.48333 13.2505 8.35 12.7505 8.35H9.87549V11.35H12.6755Z" fill="black"/>
</g>
<defs>
<clipPath id="clip0_3254_17886">
<rect width="24" height="24" fill="white"/>
</clipPath>
</defs>
</svg>
