<svg width="24" height="24" viewBox="0 0 24 24" fill="none" xmlns="http://www.w3.org/2000/svg">
<g clip-path="url(#clip0_3254_18742)">
<rect width="24" height="24" fill="white"/>
<path d="M6.67549 21C5.99216 21 5.36716 20.8417 4.80049 20.525C4.25049 20.1917 3.80882 19.75 3.47549 19.2C3.15882 18.6333 3.00049 18.0083 3.00049 17.325V6.675C3.00049 5.99167 3.15882 5.36667 3.47549 4.8C3.80882 4.23333 4.25049 3.79167 4.80049 3.475C5.36716 3.15833 5.99216 3 6.67549 3H17.3255C18.0088 3 18.6338 3.15833 19.2005 3.475C19.7672 3.79167 20.2088 4.23333 20.5255 4.8C20.8422 5.36667 21.0005 5.99167 21.0005 6.675V17.325C21.0005 18.0083 20.8422 18.6333 20.5255 19.2C20.2088 19.75 19.7672 20.1917 19.2005 20.525C18.6338 20.8417 18.0088 21 17.3255 21H6.67549ZM17.3255 20.075C18.0755 20.075 18.7088 19.8083 19.2255 19.275C19.7588 18.7417 20.0255 18.0917 20.0255 17.325V6.675C20.0255 5.90833 19.7588 5.25833 19.2255 4.725C18.7088 4.19167 18.0755 3.925 17.3255 3.925H6.67549C5.92549 3.925 5.28382 4.19167 4.75049 4.725C4.23382 5.25833 3.97549 5.90833 3.97549 6.675V17.325C3.97549 18.0917 4.23382 18.7417 4.75049 19.275C5.28382 19.8083 5.92549 20.075 6.67549 20.075H17.3255ZM12.7505 7.1C13.6672 7.1 14.3755 7.33333 14.8755 7.8C15.3755 8.25 15.6255 8.85833 15.6255 9.625C15.6255 10.175 15.4922 10.6417 15.2255 11.025C14.9588 11.3917 14.5838 11.6583 14.1005 11.825C14.7005 11.9917 15.1588 12.2833 15.4755 12.7C15.7922 13.1 15.9505 13.6083 15.9505 14.225C15.9505 15.025 15.6838 15.6583 15.1505 16.125C14.6338 16.5917 13.9005 16.825 12.9505 16.825H8.60049V7.1H12.7505ZM12.9255 15.975C13.5755 15.975 14.0755 15.8167 14.4255 15.5C14.7922 15.1667 14.9755 14.7167 14.9755 14.15C14.9755 13.5667 14.7922 13.125 14.4255 12.825C14.0588 12.5083 13.5505 12.35 12.9005 12.35H9.57549V15.975H12.9255ZM12.6755 11.525C13.2755 11.525 13.7505 11.3667 14.1005 11.05C14.4672 10.7333 14.6505 10.2917 14.6505 9.725C14.6505 9.19167 14.4755 8.76667 14.1255 8.45C13.7922 8.11667 13.3255 7.95 12.7255 7.95H9.57549V11.525H12.6755Z" fill="black"/>
</g>
<defs>
<clipPath id="clip0_3254_18742">
<rect width="24" height="24" fill="white"/>
</clipPath>
</defs>
</svg>
