<svg width="24" height="24" viewBox="0 0 24 24" fill="none" xmlns="http://www.w3.org/2000/svg">
<g clip-path="url(#clip0_3254_18748)">
<rect width="24" height="24" fill="white"/>
<path d="M7.20049 21C6.43382 21 5.72549 20.8167 5.07549 20.45C4.42549 20.0833 3.91716 19.575 3.55049 18.925C3.18382 18.275 3.00049 17.5667 3.00049 16.8V7.2C3.00049 6.43333 3.18382 5.725 3.55049 5.075C3.91716 4.425 4.42549 3.91667 5.07549 3.55C5.72549 3.18333 6.43382 3 7.20049 3H16.7255C17.5088 3 18.2255 3.18333 18.8755 3.55C19.5422 3.91667 20.0588 4.425 20.4255 5.075C20.8088 5.725 21.0005 6.43333 21.0005 7.2V16.8C21.0005 17.5667 20.8172 18.275 20.4505 18.925C20.0838 19.575 19.5755 20.0833 18.9255 20.45C18.2755 20.8167 17.5672 21 16.8005 21H7.20049ZM16.8005 18.6C17.2838 18.6 17.6922 18.425 18.0255 18.075C18.3755 17.725 18.5505 17.3 18.5505 16.8V7.175C18.5505 6.675 18.3755 6.25833 18.0255 5.925C17.6922 5.575 17.2838 5.4 16.8005 5.4H7.20049C6.71716 5.4 6.30049 5.575 5.95049 5.925C5.61716 6.275 5.45049 6.7 5.45049 7.2V16.8C5.45049 17.3 5.61716 17.725 5.95049 18.075C6.30049 18.425 6.71716 18.6 7.20049 18.6H16.8005ZM12.8005 7.175C13.8338 7.175 14.6338 7.4 15.2005 7.85C15.7672 8.28333 16.0505 8.89167 16.0505 9.675C16.0505 10.1917 15.9255 10.6333 15.6755 11C15.4422 11.35 15.1088 11.6167 14.6755 11.8C15.2088 12 15.6172 12.2917 15.9005 12.675C16.1838 13.0583 16.3255 13.5333 16.3255 14.1C16.3255 14.9333 16.0338 15.5833 15.4505 16.05C14.8672 16.5167 14.0422 16.75 12.9755 16.75H8.20049V7.175H12.8005ZM12.8755 14.875C13.2422 14.875 13.5255 14.7833 13.7255 14.6C13.9255 14.4167 14.0255 14.1667 14.0255 13.85C14.0255 13.5333 13.9172 13.2833 13.7005 13.1C13.5005 12.9167 13.2172 12.825 12.8505 12.825H10.4755V14.875H12.8755ZM12.6505 11.075C13.0005 11.075 13.2672 10.9917 13.4505 10.825C13.6505 10.6417 13.7505 10.3833 13.7505 10.05C13.7505 9.75 13.6588 9.50833 13.4755 9.325C13.2922 9.14167 13.0255 9.05 12.6755 9.05H10.4755V11.075H12.6505Z" fill="black"/>
</g>
<defs>
<clipPath id="clip0_3254_18748">
<rect width="24" height="24" fill="white"/>
</clipPath>
</defs>
</svg>
