<svg width="24" height="24" viewBox="0 0 24 24" fill="none" xmlns="http://www.w3.org/2000/svg">
<g clip-path="url(#clip0_3254_17906)">
<rect width="24" height="24" fill="white"/>
<path d="M15.425 7.625C14.8083 7.175 13.95 6.95 12.85 6.95H7.825V17H13.025C14.1583 17 15.0417 16.7583 15.675 16.275C16.3083 15.775 16.625 15.0833 16.625 14.2C16.625 13.6167 16.4833 13.125 16.2 12.725C15.9167 12.325 15.5 12.0083 14.95 11.775C15.4 11.575 15.7417 11.2917 15.975 10.925C16.225 10.5583 16.35 10.1083 16.35 9.575C16.35 8.725 16.0417 8.075 15.425 7.625ZM13.475 14.5C13.325 14.6333 13.1083 14.7 12.825 14.7H10.675V13.025H12.8C13.1 13.025 13.325 13.1 13.475 13.25C13.6417 13.4 13.725 13.6167 13.725 13.9C13.725 14.15 13.6417 14.35 13.475 14.5ZM13.25 10.7C13.1 10.85 12.8917 10.925 12.625 10.925H10.675V9.225H12.625C12.8917 9.225 13.1 9.3 13.25 9.45C13.4 9.6 13.475 9.80833 13.475 10.075C13.475 10.325 13.4 10.5333 13.25 10.7ZM17.05 20.675C15.5167 21.5583 13.8333 22 12 22C10.1667 22 8.48333 21.5583 6.95 20.675C5.41667 19.7917 4.20833 18.5833 3.325 17.05C2.44167 15.5167 2 13.8333 2 12C2 10.1667 2.44167 8.48333 3.325 6.95C4.20833 5.41667 5.41667 4.20833 6.95 3.325C8.48333 2.44167 10.1667 2 12 2C13.8333 2 15.5167 2.44167 17.05 3.325C18.5833 4.20833 19.7917 5.41667 20.675 6.95C21.5583 8.48333 22 10.1667 22 12C22 13.8333 21.5583 15.5167 20.675 17.05C19.7917 18.5833 18.5833 19.7917 17.05 20.675Z" fill="black"/>
</g>
<defs>
<clipPath id="clip0_3254_17906">
<rect width="24" height="24" fill="white"/>
</clipPath>
</defs>
</svg>
