<svg width="24" height="24" viewBox="0 0 24 24" fill="none" xmlns="http://www.w3.org/2000/svg">
<g clip-path="url(#clip0_3234_11336)">
<rect width="24" height="24" fill="white"/>
<path d="M15.225 7.8C14.675 7.35 13.8917 7.125 12.875 7.125H8.35V16.85H13.05C14.1 16.85 14.9167 16.6167 15.5 16.15C16.0833 15.6667 16.375 15.0083 16.375 14.175C16.375 13.5917 16.225 13.1083 15.925 12.725C15.6417 12.325 15.2167 12.025 14.65 11.825C15.1 11.6417 15.45 11.3667 15.7 11C15.95 10.6333 16.075 10.1917 16.075 9.675C16.075 8.875 15.7917 8.25 15.225 7.8ZM14.075 14.9C13.825 15.1167 13.475 15.225 13.025 15.225H10.25V12.75H12.975C13.4417 12.75 13.8 12.8583 14.05 13.075C14.3167 13.275 14.45 13.575 14.45 13.975C14.45 14.375 14.325 14.6833 14.075 14.9ZM13.775 10.9C13.5417 11.1 13.2083 11.2 12.775 11.2H10.25V8.75H12.825C13.2417 8.75 13.5667 8.85833 13.8 9.075C14.0333 9.29167 14.15 9.59167 14.15 9.975C14.15 10.375 14.025 10.6833 13.775 10.9ZM19.25 20.55C18.7167 20.85 18.1333 21 17.5 21H6.5C5.86667 21 5.275 20.85 4.725 20.55C4.19167 20.2333 3.76667 19.8083 3.45 19.275C3.15 18.725 3 18.1333 3 17.5V6.5C3 5.86667 3.15 5.28333 3.45 4.75C3.76667 4.2 4.19167 3.775 4.725 3.475C5.275 3.15833 5.86667 3 6.5 3H17.5C18.1333 3 18.7167 3.15833 19.25 3.475C19.8 3.775 20.225 4.2 20.525 4.75C20.8417 5.28333 21 5.86667 21 6.5V17.5C21 18.1333 20.8417 18.725 20.525 19.275C20.225 19.8083 19.8 20.2333 19.25 20.55Z" fill="black"/>
</g>
<defs>
<clipPath id="clip0_3234_11336">
<rect width="24" height="24" fill="white"/>
</clipPath>
</defs>
</svg>
