<svg width="24" height="24" viewBox="0 0 24 24" fill="none" xmlns="http://www.w3.org/2000/svg">
<g clip-path="url(#clip0_3234_11324)">
<rect width="24" height="24" fill="white"/>
<path d="M7.17549 21C6.40882 21 5.70049 20.8167 5.05049 20.45C4.41716 20.0833 3.91716 19.5833 3.55049 18.95C3.18382 18.3 3.00049 17.5917 3.00049 16.825V7.175C3.00049 6.40833 3.18382 5.70833 3.55049 5.075C3.91716 4.425 4.41716 3.91667 5.05049 3.55C5.70049 3.18333 6.40882 3 7.17549 3H16.7505C17.5338 3 18.2505 3.18333 18.9005 3.55C19.5505 3.91667 20.0588 4.425 20.4255 5.075C20.8088 5.70833 21.0005 6.40833 21.0005 7.175V16.825C21.0005 17.5917 20.8172 18.3 20.4505 18.95C20.0838 19.5833 19.5755 20.0833 18.9255 20.45C18.2922 20.8167 17.5922 21 16.8255 21H7.17549ZM16.8255 18.625C17.3255 18.625 17.7422 18.4583 18.0755 18.125C18.4088 17.775 18.5755 17.3417 18.5755 16.825V7.15C18.5755 6.65 18.4088 6.23333 18.0755 5.9C17.7422 5.55 17.3255 5.375 16.8255 5.375H7.17549C6.67549 5.375 6.25882 5.55 5.92549 5.9C5.59216 6.23333 5.42549 6.65833 5.42549 7.175V16.825C5.42549 17.3417 5.59216 17.775 5.92549 18.125C6.25882 18.4583 6.67549 18.625 7.17549 18.625H16.8255ZM12.8005 7.175C13.8338 7.175 14.6338 7.4 15.2005 7.85C15.7672 8.28333 16.0505 8.89167 16.0505 9.675C16.0505 10.1917 15.9255 10.6333 15.6755 11C15.4422 11.35 15.1088 11.6167 14.6755 11.8C15.2088 12 15.6172 12.2917 15.9005 12.675C16.1838 13.0583 16.3255 13.5333 16.3255 14.1C16.3255 14.9333 16.0338 15.5833 15.4505 16.05C14.8672 16.5167 14.0422 16.75 12.9755 16.75H8.20049V7.175H12.8005ZM12.9505 14.9C13.3005 14.9 13.5755 14.8083 13.7755 14.625C13.9755 14.4417 14.0755 14.1917 14.0755 13.875C14.0755 13.5417 13.9672 13.2833 13.7505 13.1C13.5505 12.9167 13.2672 12.825 12.9005 12.825H10.4255V14.9H12.9505ZM12.7255 11.075C13.0588 11.075 13.3255 10.9917 13.5255 10.825C13.7255 10.6417 13.8255 10.3833 13.8255 10.05C13.8255 9.73333 13.7255 9.48333 13.5255 9.3C13.3422 9.11667 13.0838 9.025 12.7505 9.025H10.4255V11.075H12.7255Z" fill="black"/>
</g>
<defs>
<clipPath id="clip0_3234_11324">
<rect width="24" height="24" fill="white"/>
</clipPath>
</defs>
</svg>
