<svg width="24" height="24" viewBox="0 0 24 24" fill="none" xmlns="http://www.w3.org/2000/svg">
<g clip-path="url(#clip0_3234_10378)">
<rect width="24" height="24" fill="white"/>
<path d="M7.00488 5.1125C7.00488 3.6125 7.47988 2.4125 8.42988 1.5125C9.39655 0.595832 10.6882 0.137499 12.3049 0.137499C13.3882 0.137499 14.3215 0.345832 15.1049 0.7625C15.9049 1.1625 16.5132 1.72917 16.9299 2.4625C17.3632 3.17917 17.5799 4.0125 17.5799 4.9625C17.5799 5.94583 17.3466 6.79583 16.8799 7.5125C16.4299 8.22917 15.8049 8.77083 15.0049 9.1375C14.2049 9.50417 13.3049 9.6875 12.3049 9.6875L12.9549 8.5875C14.1382 8.5875 15.1632 8.79583 16.0299 9.2125C16.9132 9.6125 17.5882 10.1875 18.0549 10.9375C18.5215 11.6875 18.7549 12.5542 18.7549 13.5375C18.7549 14.5375 18.5215 15.4292 18.0549 16.2125C17.6049 16.9958 16.9549 17.6125 16.1049 18.0625C15.2716 18.4958 14.3215 18.7125 13.2549 18.7125C12.2882 18.7125 11.4799 18.5708 10.8299 18.2875C10.1799 18.0042 9.70488 17.7125 9.40488 17.4125C9.12155 17.0958 8.77988 16.6792 8.37988 16.1625L9.00488 13.2875C9.00488 13.9875 9.15488 14.6042 9.45488 15.1375C9.77155 15.6708 10.2215 16.0875 10.8049 16.3875C11.3882 16.6708 12.0799 16.8125 12.8799 16.8125C14.0965 16.8125 15.0465 16.5125 15.7299 15.9125C16.4132 15.2958 16.7549 14.4708 16.7549 13.4375C16.7549 12.7542 16.6049 12.1625 16.3049 11.6625C16.0049 11.1625 15.5715 10.7875 15.0049 10.5375C14.4382 10.2708 13.7549 10.1375 12.9549 10.1375H11.3549V8.2875H12.3049C13.3549 8.2875 14.1632 8.0125 14.7299 7.4625C15.2965 6.89583 15.5799 6.12083 15.5799 5.1375C15.5799 4.1875 15.2965 3.4375 14.7299 2.8875C14.1632 2.32083 13.3549 2.0375 12.3049 2.0375C11.2715 2.0375 10.4632 2.32083 9.87988 2.8875C9.29655 3.45417 9.00488 4.19583 9.00488 5.1125V23.9375H7.00488V5.1125Z" fill="black"/>
</g>
<defs>
<clipPath id="clip0_3234_10378">
<rect width="24" height="24" fill="white"/>
</clipPath>
</defs>
</svg>
