<svg width="24" height="24" viewBox="0 0 24 24" fill="none" xmlns="http://www.w3.org/2000/svg">
<g clip-path="url(#clip0_3234_10376)">
<rect width="24" height="24" fill="white"/>
<path d="M6.65313 5.0125C6.65313 3.54583 7.11979 2.37083 8.05313 1.4875C8.98646 0.587499 10.2365 0.137499 11.8031 0.137499C12.8365 0.137499 13.7365 0.337499 14.5031 0.7375C15.2865 1.1375 15.8865 1.69583 16.3031 2.4125C16.7198 3.12917 16.9281 3.95417 16.9281 4.8875C16.9281 5.85417 16.7031 6.69583 16.2531 7.4125C15.8198 8.1125 15.2115 8.65417 14.4281 9.0375C13.6615 9.40417 12.7948 9.5875 11.8281 9.5875L12.3531 8.7375C13.5031 8.7375 14.5115 8.94583 15.3781 9.3625C16.2448 9.77917 16.9115 10.3625 17.3781 11.1125C17.8448 11.8458 18.0781 12.6792 18.0781 13.6125C18.0781 14.6292 17.8448 15.5208 17.3781 16.2875C16.9281 17.0542 16.2865 17.6542 15.4531 18.0875C14.6365 18.5042 13.6948 18.7125 12.6281 18.7125C11.6615 18.7125 10.8198 18.5542 10.1031 18.2375C9.40313 17.9208 8.87813 17.5458 8.52813 17.1125C8.17813 16.6625 7.86979 16.1125 7.60313 15.4625L8.15313 13.5375C8.15313 14.2708 8.32813 14.9208 8.67813 15.4875C9.02813 16.0542 9.51979 16.4958 10.1531 16.8125C10.8031 17.1292 11.5448 17.2875 12.3781 17.2875C13.6781 17.2875 14.7031 16.9542 15.4531 16.2875C16.2031 15.6042 16.5781 14.6958 16.5781 13.5625C16.5781 12.8458 16.4031 12.2125 16.0531 11.6625C15.7198 11.0958 15.2365 10.6625 14.6031 10.3625C13.9698 10.0625 13.2198 9.9125 12.3531 9.9125H10.7281V8.5125H11.8281C12.9448 8.5125 13.8198 8.20417 14.4531 7.5875C15.1031 6.95417 15.4281 6.09583 15.4281 5.0125C15.4281 3.97917 15.1031 3.14583 14.4531 2.5125C13.8198 1.87917 12.9365 1.5625 11.8031 1.5625C10.6698 1.5625 9.77813 1.87917 9.12813 2.5125C8.47813 3.14583 8.15313 3.97917 8.15313 5.0125V23.9375H6.65313V5.0125Z" fill="black"/>
</g>
<defs>
<clipPath id="clip0_3234_10376">
<rect width="24" height="24" fill="white"/>
</clipPath>
</defs>
</svg>
