<svg width="24" height="24" viewBox="0 0 24 24" fill="none" xmlns="http://www.w3.org/2000/svg">
<g clip-path="url(#clip0_3234_9492)">
<rect width="24" height="24" fill="white"/>
<path d="M13.1405 0.499999H15.2655V3.925H13.1405V0.499999ZM8.76553 20.425H10.8905V23.5H8.76553V20.425ZM13.1405 20.425H15.2655V23.5H13.1405V20.425ZM8.76553 0.499999H10.8905V3.925H8.76553V0.499999ZM13.5405 3C15.3739 3 16.7739 3.41667 17.7405 4.25C18.7239 5.08333 19.2155 6.23333 19.2155 7.7C19.2155 9.23333 18.6655 10.3833 17.5655 11.15C16.4822 11.9167 14.9239 12.3 12.8905 12.3L13.3405 11.15C15.4072 11.15 16.9989 11.575 18.1155 12.425C19.2322 13.275 19.7905 14.4833 19.7905 16.05C19.7905 17.6333 19.2739 18.8583 18.2405 19.725C17.2239 20.575 15.7822 21 13.9155 21H5.79053V3H13.5405ZM6.76553 10.725H13.3655C14.3489 10.725 15.1239 10.4917 15.6905 10.025C16.2572 9.55833 16.5405 8.89167 16.5405 8.025C16.5405 7.19167 16.2739 6.55 15.7405 6.1C15.2239 5.63333 14.4822 5.4 13.5155 5.4H8.46553V18.55H13.8655C14.9322 18.55 15.7322 18.325 16.2655 17.875C16.8155 17.4083 17.0905 16.725 17.0905 15.825C17.0905 14.9083 16.7989 14.225 16.2155 13.775C15.6322 13.3083 14.8155 13.075 13.7655 13.075H6.76553V10.725Z" fill="black"/>
</g>
<defs>
<clipPath id="clip0_3234_9492">
<rect width="24" height="24" fill="white"/>
</clipPath>
</defs>
</svg>
