<svg width="24" height="24" viewBox="0 0 24 24" fill="none" xmlns="http://www.w3.org/2000/svg">
<g clip-path="url(#clip0_3234_9488)">
<rect width="24" height="24" fill="white"/>
<path d="M13.448 0.499999H14.773V3.525H13.448V0.499999ZM9.24805 20.4H10.573V23.5H9.24805V20.4ZM13.448 20.4H14.773V23.5H13.448V20.4ZM9.24805 0.499999H10.573V3.525H9.24805V0.499999ZM13.548 3C15.2314 3 16.523 3.425 17.423 4.275C18.3397 5.10833 18.798 6.23333 18.798 7.65C18.798 9.13333 18.298 10.2667 17.298 11.05C16.3147 11.8167 14.898 12.2 13.048 12.2L13.523 11.35C15.4064 11.35 16.8564 11.775 17.873 12.625C18.9064 13.4583 19.423 14.6333 19.423 16.15C19.423 17.6833 18.9397 18.875 17.973 19.725C17.0064 20.575 15.648 21 13.898 21H6.17305V3H13.548ZM6.64805 11.175H13.373C14.5897 11.175 15.5397 10.8833 16.223 10.3C16.923 9.7 17.273 8.85833 17.273 7.775C17.273 6.725 16.948 5.9 16.298 5.3C15.6647 4.7 14.748 4.4 13.548 4.4H7.67305V19.55H13.898C15.198 19.55 16.1897 19.25 16.873 18.65C17.5564 18.0333 17.898 17.175 17.898 16.075C17.898 14.9417 17.5314 14.075 16.798 13.475C16.0814 12.875 15.0897 12.575 13.823 12.575H6.64805V11.175Z" fill="black"/>
</g>
<defs>
<clipPath id="clip0_3234_9488">
<rect width="24" height="24" fill="white"/>
</clipPath>
</defs>
</svg>
