<svg width="24" height="24" viewBox="0 0 24 24" fill="none" xmlns="http://www.w3.org/2000/svg">
<g clip-path="url(#clip0_3234_9884)">
<rect width="24" height="24" fill="white"/>
<path d="M14.9665 18L18.6665 15.825V11.55L21.4915 9.9V17.475L14.9665 21.25V18ZM2.4915 17.475V9.9L5.3415 11.55V15.825L9.0415 17.9V21.25L2.4915 17.475ZM2.9665 14.75V13.25L4.2665 14V15.5L2.9665 14.75ZM10.5415 22.1V11.65H13.4665V22.1L11.9915 22.95L10.5415 22.1ZM2.4915 8.175V6.525L3.9915 5.675L13.1665 10.975L11.6665 13.45L2.4915 8.175ZM19.4665 14L20.7665 13.25V14.75L19.4665 15.5V14ZM11.7415 2.25L11.9915 2.1L12.2415 2.25L11.9915 2.375L11.7415 2.25ZM10.8165 10.95L20.0165 5.65L21.4915 6.525V8.175L12.3165 13.45L10.8165 10.95ZM5.4915 4.8L11.9915 1.05L18.5165 4.775L15.6665 6.425L12.0165 4.3L8.2915 6.425L5.4915 4.8Z" fill="black"/>
</g>
<defs>
<clipPath id="clip0_3234_9884">
<rect width="24" height="24" fill="white"/>
</clipPath>
</defs>
</svg>
