<svg width="24" height="24" viewBox="0 0 24 24" fill="none" xmlns="http://www.w3.org/2000/svg">
<g clip-path="url(#clip0_3234_10464)">
<rect width="24" height="24" fill="white"/>
<path d="M12.0005 22C10.1672 22 8.48382 21.5583 6.95049 20.675C5.41716 19.7917 4.20882 18.5833 3.32549 17.05C2.44216 15.5167 2.00049 13.8333 2.00049 12C2.00049 10.1667 2.44216 8.48333 3.32549 6.95C4.20882 5.41667 5.41716 4.20833 6.95049 3.325C8.48382 2.44167 10.1672 2 12.0005 2C13.8338 2 15.5172 2.44167 17.0505 3.325C18.5838 4.20833 19.7922 5.41667 20.6755 6.95C21.5588 8.48333 22.0005 10.1667 22.0005 12C22.0005 13.8333 21.5588 15.5167 20.6755 17.05C19.7922 18.5833 18.5838 19.7917 17.0505 20.675C15.5172 21.5583 13.8338 22 12.0005 22ZM12.0005 20.15C13.5005 20.15 14.8672 19.7917 16.1005 19.075C17.3338 18.3583 18.3088 17.3833 19.0255 16.15C19.7422 14.9 20.1005 13.5167 20.1005 12C20.1005 10.4833 19.7422 9.10833 19.0255 7.875C18.3088 6.625 17.3338 5.64167 16.1005 4.925C14.8672 4.20833 13.5005 3.85 12.0005 3.85C10.5005 3.85 9.13382 4.20833 7.90049 4.925C6.66716 5.64167 5.69216 6.625 4.97549 7.875C4.25882 9.10833 3.90049 10.4833 3.90049 12C3.90049 13.5167 4.25882 14.9 4.97549 16.15C5.69216 17.3833 6.66716 18.3583 7.90049 19.075C9.13382 19.7917 10.5005 20.15 12.0005 20.15ZM12.0505 16.975C10.6005 16.975 9.45049 16.5333 8.60049 15.65C7.75049 14.7667 7.32549 13.55 7.32549 12C7.32549 10.4667 7.75882 9.25 8.62549 8.35C9.49216 7.43333 10.6338 6.975 12.0505 6.975C13.0505 6.975 13.9005 7.20833 14.6005 7.675C15.3172 8.125 15.8338 8.75833 16.1505 9.575L14.5255 10.275C14.3088 9.74167 13.9838 9.34167 13.5505 9.075C13.1338 8.80833 12.6505 8.675 12.1005 8.675C11.2172 8.675 10.5172 8.975 10.0005 9.575C9.50049 10.175 9.25049 10.9833 9.25049 12C9.25049 13 9.50049 13.8 10.0005 14.4C10.5172 15 11.2172 15.3 12.1005 15.3C12.6672 15.3 13.1588 15.1667 13.5755 14.9C13.9922 14.6167 14.3005 14.2167 14.5005 13.7L16.1255 14.4C15.8255 15.1833 15.3255 15.8083 14.6255 16.275C13.9255 16.7417 13.0672 16.975 12.0505 16.975Z" fill="black"/>
</g>
<defs>
<clipPath id="clip0_3234_10464">
<rect width="24" height="24" fill="white"/>
</clipPath>
</defs>
</svg>
