<svg width="24" height="24" viewBox="0 0 24 24" fill="none" xmlns="http://www.w3.org/2000/svg">
<g clip-path="url(#clip0_3234_10470)">
<rect width="24" height="24" fill="white"/>
<path d="M12.0005 22C10.1672 22 8.48382 21.5583 6.95049 20.675C5.41716 19.7917 4.20882 18.5833 3.32549 17.05C2.44216 15.5167 2.00049 13.8333 2.00049 12C2.00049 10.1667 2.44216 8.48333 3.32549 6.95C4.20882 5.41667 5.41716 4.20833 6.95049 3.325C8.48382 2.44167 10.1672 2 12.0005 2C13.8338 2 15.5172 2.44167 17.0505 3.325C18.5838 4.20833 19.7922 5.41667 20.6755 6.95C21.5588 8.48333 22.0005 10.1667 22.0005 12C22.0005 13.8333 21.5588 15.5167 20.6755 17.05C19.7922 18.5833 18.5838 19.7917 17.0505 20.675C15.5172 21.5583 13.8338 22 12.0005 22ZM12.0005 18.55C13.2005 18.55 14.2922 18.2583 15.2755 17.675C16.2755 17.0917 17.0588 16.3 17.6255 15.3C18.2088 14.3 18.5005 13.2 18.5005 12C18.5005 10.8 18.2088 9.7 17.6255 8.7C17.0588 7.7 16.2755 6.90833 15.2755 6.325C14.2922 5.74167 13.2005 5.45 12.0005 5.45C10.8005 5.45 9.70049 5.74167 8.70049 6.325C7.71716 6.90833 6.93382 7.7 6.35049 8.7C5.78382 9.7 5.50049 10.8 5.50049 12C5.50049 13.2 5.78382 14.3 6.35049 15.3C6.93382 16.3 7.71716 17.0917 8.70049 17.675C9.70049 18.2583 10.8005 18.55 12.0005 18.55ZM12.0755 16.725C10.6422 16.725 9.50049 16.3083 8.65049 15.475C7.80049 14.6417 7.37549 13.4833 7.37549 12C7.37549 10.5167 7.80049 9.35 8.65049 8.5C9.51716 7.65 10.6588 7.225 12.0755 7.225C13.1088 7.225 13.9838 7.45833 14.7005 7.925C15.4172 8.39167 15.9172 9.00833 16.2005 9.775L13.7005 10.85C13.5505 10.5333 13.3422 10.2917 13.0755 10.125C12.8255 9.95833 12.5255 9.875 12.1755 9.875C11.5922 9.875 11.1422 10.0583 10.8255 10.425C10.5088 10.7917 10.3505 11.3167 10.3505 12C10.3505 12.6333 10.5088 13.1417 10.8255 13.525C11.1422 13.8917 11.5922 14.075 12.1755 14.075C12.5088 14.075 12.8088 13.9917 13.0755 13.825C13.3422 13.6583 13.5422 13.4167 13.6755 13.1L16.1755 14.2C15.9088 15 15.4088 15.625 14.6755 16.075C13.9422 16.5083 13.0755 16.725 12.0755 16.725Z" fill="black"/>
</g>
<defs>
<clipPath id="clip0_3234_10470">
<rect width="24" height="24" fill="white"/>
</clipPath>
</defs>
</svg>
