<svg width="24" height="24" viewBox="0 0 24 24" fill="none" xmlns="http://www.w3.org/2000/svg">
<g clip-path="url(#clip0_3254_18802)">
<rect width="24" height="24" fill="white"/>
<path d="M7.32549 21C6.52549 21 5.79216 20.8083 5.12549 20.425C4.47549 20.0417 3.95882 19.525 3.57549 18.875C3.19216 18.2083 3.00049 17.475 3.00049 16.675V7.325C3.00049 6.525 3.19216 5.8 3.57549 5.15C3.95882 4.48333 4.47549 3.95833 5.12549 3.575C5.79216 3.19167 6.52549 3 7.32549 3H16.5005C17.3172 3 18.0672 3.19167 18.7505 3.575C19.4505 3.95833 20.0005 4.48333 20.4005 5.15C20.8005 5.8 21.0005 6.525 21.0005 7.325V16.675C21.0005 17.475 20.8088 18.2083 20.4255 18.875C20.0422 19.525 19.5172 20.0417 18.8505 20.425C18.2005 20.8083 17.4755 21 16.6755 21H7.32549ZM16.6755 18.125C17.0588 18.125 17.3838 17.9833 17.6505 17.7C17.9338 17.4167 18.0755 17.075 18.0755 16.675V7.325C18.0755 6.925 17.9338 6.58333 17.6505 6.3C17.3838 6.01667 17.0588 5.875 16.6755 5.875H7.32549C6.94216 5.875 6.60882 6.01667 6.32549 6.3C6.05882 6.58333 5.92549 6.925 5.92549 7.325V16.675C5.92549 17.075 6.05882 17.4167 6.32549 17.7C6.60882 17.9833 6.94216 18.125 7.32549 18.125H16.6755ZM12.1755 16.8C10.7422 16.8 9.60049 16.375 8.75049 15.525C7.90049 14.675 7.47549 13.5 7.47549 12C7.47549 10.5 7.90049 9.31667 8.75049 8.45C9.61716 7.58333 10.7588 7.15 12.1755 7.15C13.1922 7.15 14.0588 7.38333 14.7755 7.85C15.4922 8.3 16.0005 8.91667 16.3005 9.7L14.0755 10.65C13.9088 10.2667 13.6672 9.975 13.3505 9.775C13.0338 9.575 12.6672 9.475 12.2505 9.475C11.5672 9.475 11.0338 9.7 10.6505 10.15C10.2838 10.5833 10.1005 11.2 10.1005 12C10.1005 12.75 10.2838 13.35 10.6505 13.8C11.0338 14.25 11.5672 14.475 12.2505 14.475C12.6672 14.475 13.0338 14.375 13.3505 14.175C13.6672 13.975 13.9005 13.6833 14.0505 13.3L16.2755 14.275C15.9922 15.0583 15.4838 15.675 14.7505 16.125C14.0338 16.575 13.1755 16.8 12.1755 16.8Z" fill="black"/>
</g>
<defs>
<clipPath id="clip0_3254_18802">
<rect width="24" height="24" fill="white"/>
</clipPath>
</defs>
</svg>
