<svg width="24" height="24" viewBox="0 0 24 24" fill="none" xmlns="http://www.w3.org/2000/svg">
<g clip-path="url(#clip0_3254_17930)">
<rect width="24" height="24" fill="white"/>
<path d="M8.625 15.725C9.50833 16.625 10.6917 17.075 12.175 17.075C13.225 17.075 14.1167 16.8417 14.85 16.375C15.5833 15.8917 16.1 15.2417 16.4 14.425L14.4 13.55C14.2167 14.0167 13.9333 14.375 13.55 14.625C13.1833 14.8583 12.75 14.975 12.25 14.975C11.4833 14.975 10.8667 14.7083 10.4 14.175C9.95 13.625 9.725 12.9 9.725 12C9.725 11.0667 9.95 10.3333 10.4 9.8C10.85 9.25 11.4667 8.975 12.25 8.975C12.75 8.975 13.1833 9.1 13.55 9.35C13.9333 9.58333 14.225 9.93333 14.425 10.4L16.45 9.55C16.1167 8.71667 15.5833 8.06667 14.85 7.6C14.1167 7.11667 13.225 6.875 12.175 6.875C10.7083 6.875 9.525 7.34167 8.625 8.275C7.74167 9.19167 7.3 10.4333 7.3 12C7.3 13.5833 7.74167 14.825 8.625 15.725ZM17.05 20.675C15.5333 21.5583 13.85 22 12 22C10.15 22 8.45833 21.5583 6.925 20.675C5.40833 19.7917 4.20833 18.5917 3.325 17.075C2.44167 15.5417 2 13.85 2 12C2 10.15 2.44167 8.46667 3.325 6.95C4.20833 5.41667 5.40833 4.20833 6.925 3.325C8.45833 2.44167 10.15 2 12 2C13.85 2 15.5333 2.44167 17.05 3.325C18.5833 4.20833 19.7917 5.41667 20.675 6.95C21.5583 8.46667 22 10.15 22 12C22 13.85 21.5583 15.5417 20.675 17.075C19.7917 18.5917 18.5833 19.7917 17.05 20.675Z" fill="black"/>
</g>
<defs>
<clipPath id="clip0_3254_17930">
<rect width="24" height="24" fill="white"/>
</clipPath>
</defs>
</svg>
