<svg width="24" height="24" viewBox="0 0 24 24" fill="none" xmlns="http://www.w3.org/2000/svg">
<g clip-path="url(#clip0_3234_11392)">
<rect width="24" height="24" fill="white"/>
<path d="M8.525 15.775C9.44167 16.675 10.6667 17.125 12.2 17.125C13.2833 17.125 14.2083 16.8833 14.975 16.4C15.7417 15.9167 16.275 15.2583 16.575 14.425L14.2 13.375C14.0333 13.775 13.7833 14.0833 13.45 14.3C13.1167 14.5167 12.7333 14.625 12.3 14.625C11.5833 14.625 11.0167 14.3917 10.6 13.925C10.2 13.4417 10 12.8 10 12C10 11.1667 10.2 10.5167 10.6 10.05C11.0167 9.58333 11.5833 9.35 12.3 9.35C12.75 9.35 13.1333 9.45833 13.45 9.675C13.7833 9.875 14.0417 10.1833 14.225 10.6L16.625 9.55C16.2917 8.7 15.7417 8.03333 14.975 7.55C14.225 7.05 13.3 6.8 12.2 6.8C10.7 6.8 9.48333 7.26667 8.55 8.2C7.63333 9.13333 7.175 10.4 7.175 12C7.175 13.6 7.625 14.8583 8.525 15.775ZM19.25 20.55C18.7167 20.85 18.1333 21 17.5 21H6.5C5.86667 21 5.275 20.85 4.725 20.55C4.19167 20.2333 3.76667 19.8083 3.45 19.275C3.15 18.725 3 18.1333 3 17.5V6.5C3 5.86667 3.15 5.28333 3.45 4.75C3.76667 4.2 4.19167 3.775 4.725 3.475C5.275 3.15833 5.86667 3 6.5 3H17.5C18.1333 3 18.7167 3.15833 19.25 3.475C19.8 3.775 20.225 4.2 20.525 4.75C20.8417 5.28333 21 5.86667 21 6.5V17.5C21 18.1333 20.8417 18.725 20.525 19.275C20.225 19.8083 19.8 20.2333 19.25 20.55Z" fill="black"/>
</g>
<defs>
<clipPath id="clip0_3234_11392">
<rect width="24" height="24" fill="white"/>
</clipPath>
</defs>
</svg>
