<svg width="24" height="24" viewBox="0 0 24 24" fill="none" xmlns="http://www.w3.org/2000/svg">
<g clip-path="url(#clip0_3234_11372)">
<rect width="24" height="24" fill="white"/>
<path d="M6.82549 21C6.12549 21 5.47549 20.8333 4.87549 20.5C4.29216 20.1667 3.83382 19.7083 3.50049 19.125C3.16716 18.525 3.00049 17.875 3.00049 17.175V6.825C3.00049 6.125 3.16716 5.48333 3.50049 4.9C3.83382 4.3 4.29216 3.83333 4.87549 3.5C5.47549 3.16667 6.12549 3 6.82549 3H17.1755C17.8755 3 18.5172 3.16667 19.1005 3.5C19.7005 3.83333 20.1672 4.3 20.5005 4.9C20.8338 5.48333 21.0005 6.125 21.0005 6.825V17.175C21.0005 17.875 20.8338 18.525 20.5005 19.125C20.1672 19.7083 19.7005 20.1667 19.1005 20.5C18.5172 20.8333 17.8755 21 17.1755 21H6.82549ZM17.1755 19.6C17.8422 19.6 18.4088 19.3667 18.8755 18.9C19.3422 18.4333 19.5755 17.8583 19.5755 17.175V6.825C19.5755 6.14167 19.3422 5.56667 18.8755 5.1C18.4088 4.63333 17.8422 4.4 17.1755 4.4H6.82549C6.15882 4.4 5.59216 4.63333 5.12549 5.1C4.65882 5.56667 4.42549 6.14167 4.42549 6.825V17.175C4.42549 17.8583 4.65882 18.4333 5.12549 18.9C5.59216 19.3667 6.15882 19.6 6.82549 19.6H17.1755ZM12.1755 16.975C10.7755 16.975 9.65049 16.5333 8.80049 15.65C7.96716 14.7667 7.55049 13.55 7.55049 12C7.55049 10.4667 7.97549 9.25 8.82549 8.35C9.67549 7.43333 10.7922 6.975 12.1755 6.975C13.1588 6.975 13.9922 7.2 14.6755 7.65C15.3755 8.1 15.8755 8.73333 16.1755 9.55L14.9505 10.075C14.7338 9.49167 14.3838 9.05 13.9005 8.75C13.4172 8.43333 12.8588 8.275 12.2255 8.275C11.2255 8.275 10.4338 8.60833 9.85049 9.275C9.28382 9.94167 9.00049 10.85 9.00049 12C9.00049 13.1167 9.29216 14.0167 9.87549 14.7C10.4588 15.3667 11.2422 15.7 12.2255 15.7C12.8588 15.7 13.4172 15.5417 13.9005 15.225C14.3838 14.9083 14.7255 14.4667 14.9255 13.9L16.1505 14.425C15.8672 15.2083 15.3838 15.8333 14.7005 16.3C14.0172 16.75 13.1755 16.975 12.1755 16.975Z" fill="black"/>
</g>
<defs>
<clipPath id="clip0_3234_11372">
<rect width="24" height="24" fill="white"/>
</clipPath>
</defs>
</svg>
