<svg width="24" height="24" viewBox="0 0 24 24" fill="none" xmlns="http://www.w3.org/2000/svg">
<g clip-path="url(#clip0_3234_11394)">
<rect width="24" height="24" fill="white"/>
<path d="M8.45 15.825C9.38333 16.7417 10.6417 17.2 12.225 17.2C13.325 17.2 14.275 16.9583 15.075 16.475C15.875 15.975 16.4333 15.2917 16.75 14.425L13.975 13.225C13.8417 13.5583 13.625 13.825 13.325 14.025C13.0417 14.2083 12.7083 14.3 12.325 14.3C11.6917 14.3 11.2 14.0917 10.85 13.675C10.5 13.2583 10.325 12.7 10.325 12C10.325 11.2667 10.5 10.7 10.85 10.3C11.2 9.88333 11.6917 9.675 12.325 9.675C12.725 9.675 13.0667 9.76667 13.35 9.95C13.6333 10.1333 13.8583 10.4 14.025 10.75L16.8 9.55C16.4667 8.68333 15.9 8 15.1 7.5C14.3167 6.98333 13.3583 6.725 12.225 6.725C10.675 6.725 9.425 7.2 8.475 8.15C7.525 9.08333 7.05 10.3667 7.05 12C7.05 13.6333 7.51667 14.9083 8.45 15.825ZM19.25 20.55C18.7167 20.85 18.1333 21 17.5 21H6.5C5.86667 21 5.275 20.85 4.725 20.55C4.19167 20.2333 3.76667 19.8083 3.45 19.275C3.15 18.725 3 18.1333 3 17.5V6.5C3 5.86667 3.15 5.28333 3.45 4.75C3.76667 4.2 4.19167 3.775 4.725 3.475C5.275 3.15833 5.86667 3 6.5 3H17.5C18.1333 3 18.7167 3.15833 19.25 3.475C19.8 3.775 20.225 4.2 20.525 4.75C20.8417 5.28333 21 5.86667 21 6.5V17.5C21 18.1333 20.8417 18.725 20.525 19.275C20.225 19.8083 19.8 20.2333 19.25 20.55Z" fill="black"/>
</g>
<defs>
<clipPath id="clip0_3234_11394">
<rect width="24" height="24" fill="white"/>
</clipPath>
</defs>
</svg>
