<svg width="24" height="24" viewBox="0 0 24 24" fill="none" xmlns="http://www.w3.org/2000/svg">
<g clip-path="url(#clip0_3234_10498)">
<rect width="24" height="24" fill="white"/>
<path d="M8.625 7.125V16.85H11.925C12.9417 16.85 13.8083 16.6667 14.525 16.3C15.2417 15.9167 15.7833 15.3667 16.15 14.65C16.5167 13.9167 16.7 13.0333 16.7 12C16.7 10.9667 16.5167 10.0833 16.15 9.35C15.7833 8.61667 15.2417 8.06667 14.525 7.7C13.8083 7.31667 12.9417 7.125 11.925 7.125H8.625ZM15.1 15.25C14.3667 16 13.3083 16.375 11.925 16.375H9.125V7.6H11.925C13.3083 7.6 14.3667 7.98333 15.1 8.75C15.8333 9.5 16.2 10.5833 16.2 12C16.2 13.4 15.8333 14.4833 15.1 15.25ZM17.05 20.675C15.5333 21.5583 13.85 22 12 22C10.15 22 8.45833 21.5583 6.925 20.675C5.40833 19.7917 4.20833 18.5917 3.325 17.075C2.44167 15.5417 2 13.85 2 12C2 10.15 2.44167 8.46667 3.325 6.95C4.20833 5.41667 5.40833 4.20833 6.925 3.325C8.45833 2.44167 10.15 2 12 2C13.85 2 15.5333 2.44167 17.05 3.325C18.5833 4.20833 19.7917 5.41667 20.675 6.95C21.5583 8.46667 22 10.15 22 12C22 13.85 21.5583 15.5417 20.675 17.075C19.7917 18.5917 18.5833 19.7917 17.05 20.675Z" fill="black"/>
</g>
<defs>
<clipPath id="clip0_3234_10498">
<rect width="24" height="24" fill="white"/>
</clipPath>
</defs>
</svg>
