<svg width="24" height="24" viewBox="0 0 24 24" fill="none" xmlns="http://www.w3.org/2000/svg">
<g clip-path="url(#clip0_3254_18858)">
<rect width="24" height="24" fill="white"/>
<path d="M8.35 7.1V16.825H11.65C12.6667 16.825 13.5333 16.6417 14.25 16.275C14.9667 15.8917 15.5083 15.3417 15.875 14.625C16.2417 13.8917 16.425 13.0083 16.425 11.975C16.425 10.9417 16.2417 10.0583 15.875 9.325C15.5083 8.59167 14.9667 8.04167 14.25 7.675C13.5333 7.29167 12.6667 7.1 11.65 7.1H8.35ZM14.825 15.225C14.0917 15.975 13.0333 16.35 11.65 16.35H8.85V7.575H11.65C13.0333 7.575 14.0917 7.95833 14.825 8.725C15.5583 9.475 15.925 10.5583 15.925 11.975C15.925 13.375 15.5583 14.4583 14.825 15.225ZM19.25 20.55C18.7167 20.85 18.1333 21 17.5 21H6.5C5.86667 21 5.275 20.85 4.725 20.55C4.19167 20.2333 3.76667 19.8083 3.45 19.275C3.15 18.725 3 18.1333 3 17.5V6.5C3 5.86667 3.15 5.28333 3.45 4.75C3.76667 4.2 4.19167 3.775 4.725 3.475C5.275 3.15833 5.86667 3 6.5 3H17.5C18.1333 3 18.7167 3.15833 19.25 3.475C19.8 3.775 20.225 4.2 20.525 4.75C20.8417 5.28333 21 5.86667 21 6.5V17.5C21 18.1333 20.8417 18.725 20.525 19.275C20.225 19.8083 19.8 20.2333 19.25 20.55Z" fill="black"/>
</g>
<defs>
<clipPath id="clip0_3254_18858">
<rect width="24" height="24" fill="white"/>
</clipPath>
</defs>
</svg>
