<svg width="24" height="24" viewBox="0 0 24 24" fill="none" xmlns="http://www.w3.org/2000/svg">
<g clip-path="url(#clip0_3254_18870)">
<rect width="24" height="24" fill="white"/>
<path d="M7.575 6.875V17.075H12.55C13.4667 17.075 14.2833 16.8667 15 16.45C15.7167 16.0167 16.275 15.4167 16.675 14.65C17.075 13.8833 17.275 13 17.275 12C17.275 10.9667 17.075 10.0667 16.675 9.3C16.275 8.53333 15.7167 7.94167 15 7.525C14.2833 7.09167 13.4667 6.875 12.55 6.875H7.575ZM13.45 13.6C13.2167 13.9667 12.8833 14.15 12.45 14.15H10.975V9.8H12.45C12.8833 9.8 13.2167 9.98333 13.45 10.35C13.7 10.7167 13.825 11.2667 13.825 12C13.825 12.7 13.7 13.2333 13.45 13.6ZM19.25 20.55C18.7167 20.85 18.1333 21 17.5 21H6.5C5.86667 21 5.275 20.85 4.725 20.55C4.19167 20.2333 3.76667 19.8083 3.45 19.275C3.15 18.725 3 18.1333 3 17.5V6.5C3 5.86667 3.15 5.28333 3.45 4.75C3.76667 4.2 4.19167 3.775 4.725 3.475C5.275 3.15833 5.86667 3 6.5 3H17.5C18.1333 3 18.7167 3.15833 19.25 3.475C19.8 3.775 20.225 4.2 20.525 4.75C20.8417 5.28333 21 5.86667 21 6.5V17.5C21 18.1333 20.8417 18.725 20.525 19.275C20.225 19.8083 19.8 20.2333 19.25 20.55Z" fill="black"/>
</g>
<defs>
<clipPath id="clip0_3254_18870">
<rect width="24" height="24" fill="white"/>
</clipPath>
</defs>
</svg>
