<svg width="24" height="24" viewBox="0 0 24 24" fill="none" xmlns="http://www.w3.org/2000/svg">
<g clip-path="url(#clip0_3254_17958)">
<rect width="24" height="24" fill="white"/>
<path d="M8 6.975V17.025H12.675C13.6083 17.025 14.4333 16.8167 15.15 16.4C15.8833 15.9833 16.4417 15.4 16.825 14.65C17.225 13.9 17.425 13.025 17.425 12.025C17.425 10.9917 17.225 10.1 16.825 9.35C16.4417 8.58333 15.8833 8 15.15 7.6C14.4333 7.18333 13.6083 6.975 12.675 6.975H8ZM14 13.875C13.6667 14.2917 13.2 14.5 12.6 14.5H10.9V9.5H12.6C13.2 9.5 13.6667 9.71667 14 10.15C14.3333 10.5667 14.5 11.1917 14.5 12.025C14.5 12.825 14.3333 13.4417 14 13.875ZM17.05 20.675C15.5333 21.5583 13.85 22 12 22C10.15 22 8.45833 21.5583 6.925 20.675C5.40833 19.7917 4.20833 18.5917 3.325 17.075C2.44167 15.5417 2 13.85 2 12C2 10.15 2.44167 8.46667 3.325 6.95C4.20833 5.41667 5.40833 4.20833 6.925 3.325C8.45833 2.44167 10.15 2 12 2C13.85 2 15.5333 2.44167 17.05 3.325C18.5833 4.20833 19.7917 5.41667 20.675 6.95C21.5583 8.46667 22 10.15 22 12C22 13.85 21.5583 15.5417 20.675 17.075C19.7917 18.5917 18.5833 19.7917 17.05 20.675Z" fill="black"/>
</g>
<defs>
<clipPath id="clip0_3254_17958">
<rect width="24" height="24" fill="white"/>
</clipPath>
</defs>
</svg>
