<svg width="24" height="24" viewBox="0 0 24 24" fill="none" xmlns="http://www.w3.org/2000/svg">
<g clip-path="url(#clip0_3254_17940)">
<rect width="24" height="24" fill="white"/>
<path d="M12.0005 22C10.1672 22 8.48382 21.5583 6.95049 20.675C5.41716 19.7917 4.20882 18.5833 3.32549 17.05C2.44216 15.5167 2.00049 13.8333 2.00049 12C2.00049 10.1667 2.44216 8.48333 3.32549 6.95C4.20882 5.41667 5.41716 4.20833 6.95049 3.325C8.48382 2.44167 10.1672 2 12.0005 2C13.8338 2 15.5172 2.44167 17.0505 3.325C18.5838 4.20833 19.7922 5.41667 20.6755 6.95C21.5588 8.48333 22.0005 10.1667 22.0005 12C22.0005 13.8333 21.5588 15.5167 20.6755 17.05C19.7922 18.5833 18.5838 19.7917 17.0505 20.675C15.5172 21.5583 13.8338 22 12.0005 22ZM12.0005 20.15C13.5005 20.15 14.8672 19.7917 16.1005 19.075C17.3338 18.3583 18.3088 17.3833 19.0255 16.15C19.7422 14.9 20.1005 13.5167 20.1005 12C20.1005 10.4833 19.7422 9.10833 19.0255 7.875C18.3088 6.625 17.3338 5.64167 16.1005 4.925C14.8672 4.20833 13.5005 3.85 12.0005 3.85C10.5005 3.85 9.13382 4.20833 7.90049 4.925C6.66716 5.64167 5.69216 6.625 4.97549 7.875C4.25882 9.10833 3.90049 10.4833 3.90049 12C3.90049 13.5167 4.25882 14.9 4.97549 16.15C5.69216 17.3833 6.66716 18.3583 7.90049 19.075C9.13382 19.7917 10.5005 20.15 12.0005 20.15ZM8.22549 7.1H12.2505C13.7672 7.1 14.9505 7.53333 15.8005 8.4C16.6672 9.25 17.1005 10.4417 17.1005 11.975C17.1005 13.5083 16.6672 14.7 15.8005 15.55C14.9505 16.4 13.7672 16.825 12.2505 16.825H8.22549V7.1ZM12.2255 15.125C13.1755 15.125 13.9088 14.8583 14.4255 14.325C14.9422 13.7917 15.2005 13.0083 15.2005 11.975C15.2005 10.9417 14.9422 10.1583 14.4255 9.625C13.9088 9.075 13.1755 8.8 12.2255 8.8H10.1255V15.125H12.2255Z" fill="black"/>
</g>
<defs>
<clipPath id="clip0_3254_17940">
<rect width="24" height="24" fill="white"/>
</clipPath>
</defs>
</svg>
