<svg width="24" height="24" viewBox="0 0 24 24" fill="none" xmlns="http://www.w3.org/2000/svg">
<g clip-path="url(#clip0_3254_18850)">
<rect width="24" height="24" fill="white"/>
<path d="M7.00049 21C6.26716 21 5.59216 20.825 4.97549 20.475C4.35882 20.125 3.87549 19.6417 3.52549 19.025C3.17549 18.4083 3.00049 17.7333 3.00049 17V7C3.00049 6.26667 3.17549 5.59167 3.52549 4.975C3.87549 4.35833 4.35882 3.875 4.97549 3.525C5.59216 3.175 6.26716 3 7.00049 3H17.0005C17.7338 3 18.4088 3.175 19.0255 3.525C19.6422 3.875 20.1255 4.35833 20.4755 4.975C20.8255 5.59167 21.0005 6.26667 21.0005 7V17C21.0005 17.7333 20.8255 18.4083 20.4755 19.025C20.1255 19.6417 19.6422 20.125 19.0255 20.475C18.4088 20.825 17.7338 21 17.0005 21H7.00049ZM17.0005 19.15C17.5838 19.15 18.0755 18.9417 18.4755 18.525C18.8922 18.1083 19.1005 17.6 19.1005 17V7C19.1005 6.4 18.8922 5.89167 18.4755 5.475C18.0755 5.05833 17.5838 4.85 17.0005 4.85H7.00049C6.41716 4.85 5.91716 5.05833 5.50049 5.475C5.10049 5.89167 4.90049 6.4 4.90049 7V17C4.90049 17.6 5.10049 18.1083 5.50049 18.525C5.91716 18.9417 6.41716 19.15 7.00049 19.15H17.0005ZM7.92549 7.1H11.9505C13.4672 7.1 14.6505 7.53333 15.5005 8.4C16.3672 9.25 16.8005 10.4417 16.8005 11.975C16.8005 13.5083 16.3672 14.7 15.5005 15.55C14.6505 16.4 13.4672 16.825 11.9505 16.825H7.92549V7.1ZM11.9255 15.125C12.8755 15.125 13.6088 14.8583 14.1255 14.325C14.6422 13.7917 14.9005 13.0083 14.9005 11.975C14.9005 10.9417 14.6422 10.1583 14.1255 9.625C13.6088 9.075 12.8755 8.8 11.9255 8.8H9.82549V15.125H11.9255Z" fill="black"/>
</g>
<defs>
<clipPath id="clip0_3254_18850">
<rect width="24" height="24" fill="white"/>
</clipPath>
</defs>
</svg>
