<svg width="24" height="24" viewBox="0 0 24 24" fill="none" xmlns="http://www.w3.org/2000/svg">
<g clip-path="url(#clip0_3254_18860)">
<rect width="24" height="24" fill="white"/>
<path d="M8.225 7.1V16.825H11.775C12.775 16.825 13.6333 16.6417 14.35 16.275C15.0833 15.8917 15.6333 15.3417 16 14.625C16.3833 13.8917 16.575 13.0083 16.575 11.975C16.575 10.9417 16.3833 10.0583 16 9.325C15.6333 8.59167 15.0833 8.04167 14.35 7.675C13.6333 7.29167 12.775 7.1 11.775 7.1H8.225ZM14.6 14.925C13.95 15.6083 13 15.95 11.75 15.95H9.2V7.975H11.75C13 7.975 13.95 8.325 14.6 9.025C15.2667 9.70833 15.6 10.6917 15.6 11.975C15.6 13.2583 15.2667 14.2417 14.6 14.925ZM19.25 20.55C18.7167 20.85 18.1333 21 17.5 21H6.5C5.86667 21 5.275 20.85 4.725 20.55C4.19167 20.2333 3.76667 19.8083 3.45 19.275C3.15 18.725 3 18.1333 3 17.5V6.5C3 5.86667 3.15 5.28333 3.45 4.75C3.76667 4.2 4.19167 3.775 4.725 3.475C5.275 3.15833 5.86667 3 6.5 3H17.5C18.1333 3 18.7167 3.15833 19.25 3.475C19.8 3.775 20.225 4.2 20.525 4.75C20.8417 5.28333 21 5.86667 21 6.5V17.5C21 18.1333 20.8417 18.725 20.525 19.275C20.225 19.8083 19.8 20.2333 19.25 20.55Z" fill="black"/>
</g>
<defs>
<clipPath id="clip0_3254_18860">
<rect width="24" height="24" fill="white"/>
</clipPath>
</defs>
</svg>
