<svg width="24" height="24" viewBox="0 0 24 24" fill="none" xmlns="http://www.w3.org/2000/svg">
<g clip-path="url(#clip0_3234_11440)">
<rect width="24" height="24" fill="white"/>
<path d="M7.925 7.1V16.825H11.95C12.95 16.825 13.8167 16.6333 14.55 16.25C15.2833 15.8667 15.8417 15.3167 16.225 14.6C16.6083 13.8667 16.8 12.9917 16.8 11.975C16.8 10.9583 16.6 10.0833 16.2 9.35C15.8167 8.61667 15.2583 8.05833 14.525 7.675C13.8083 7.29167 12.95 7.1 11.95 7.1H7.925ZM14.125 14.325C13.6083 14.8583 12.875 15.125 11.925 15.125H9.825V8.8H11.925C12.875 8.8 13.6083 9.075 14.125 9.625C14.6417 10.1583 14.9 10.9417 14.9 11.975C14.9 13.0083 14.6417 13.7917 14.125 14.325ZM19.25 20.55C18.7167 20.85 18.1333 21 17.5 21H6.5C5.86667 21 5.275 20.85 4.725 20.55C4.19167 20.2333 3.76667 19.8083 3.45 19.275C3.15 18.725 3 18.1333 3 17.5V6.5C3 5.86667 3.15 5.28333 3.45 4.75C3.76667 4.2 4.19167 3.775 4.725 3.475C5.275 3.15833 5.86667 3 6.5 3H17.5C18.1333 3 18.7167 3.15833 19.25 3.475C19.8 3.775 20.225 4.2 20.525 4.75C20.8417 5.28333 21 5.86667 21 6.5V17.5C21 18.1333 20.8417 18.725 20.525 19.275C20.225 19.8083 19.8 20.2333 19.25 20.55Z" fill="black"/>
</g>
<defs>
<clipPath id="clip0_3234_11440">
<rect width="24" height="24" fill="white"/>
</clipPath>
</defs>
</svg>
