<svg width="24" height="24" viewBox="0 0 24 24" fill="none" xmlns="http://www.w3.org/2000/svg">
<g clip-path="url(#clip0_3234_11422)">
<rect width="24" height="24" fill="white"/>
<path d="M6.67549 21C5.99216 21 5.36716 20.8417 4.80049 20.525C4.25049 20.1917 3.80882 19.75 3.47549 19.2C3.15882 18.6333 3.00049 18.0083 3.00049 17.325V6.675C3.00049 5.99167 3.15882 5.36667 3.47549 4.8C3.80882 4.23333 4.25049 3.79167 4.80049 3.475C5.36716 3.15833 5.99216 3 6.67549 3H17.3255C18.0088 3 18.6338 3.15833 19.2005 3.475C19.7672 3.79167 20.2088 4.23333 20.5255 4.8C20.8422 5.36667 21.0005 5.99167 21.0005 6.675V17.325C21.0005 18.0083 20.8422 18.6333 20.5255 19.2C20.2088 19.75 19.7672 20.1917 19.2005 20.525C18.6338 20.8417 18.0088 21 17.3255 21H6.67549ZM17.3255 20.075C18.0755 20.075 18.7088 19.8083 19.2255 19.275C19.7588 18.7417 20.0255 18.0917 20.0255 17.325V6.675C20.0255 5.90833 19.7588 5.25833 19.2255 4.725C18.7088 4.19167 18.0755 3.925 17.3255 3.925H6.67549C5.92549 3.925 5.28382 4.19167 4.75049 4.725C4.23382 5.25833 3.97549 5.90833 3.97549 6.675V17.325C3.97549 18.0917 4.23382 18.7417 4.75049 19.275C5.28382 19.8083 5.92549 20.075 6.67549 20.075H17.3255ZM8.20049 7.1H11.7505C12.7672 7.1 13.6338 7.29167 14.3505 7.675C15.0672 8.04167 15.6088 8.59167 15.9755 9.325C16.3588 10.0583 16.5505 10.9417 16.5505 11.975C16.5505 13.525 16.1338 14.725 15.3005 15.575C14.4672 16.4083 13.2838 16.825 11.7505 16.825H8.20049V7.1ZM11.7505 15.95C12.9838 15.95 13.9255 15.6083 14.5755 14.925C15.2422 14.2417 15.5755 13.2583 15.5755 11.975C15.5755 10.6917 15.2422 9.70833 14.5755 9.025C13.9255 8.325 12.9838 7.975 11.7505 7.975H9.17549V15.95H11.7505Z" fill="black"/>
</g>
<defs>
<clipPath id="clip0_3234_11422">
<rect width="24" height="24" fill="white"/>
</clipPath>
</defs>
</svg>
