<svg width="24" height="24" viewBox="0 0 24 24" fill="none" xmlns="http://www.w3.org/2000/svg">
<g clip-path="url(#clip0_3234_9460)">
<rect width="24" height="24" fill="white"/>
<path d="M4.05 13.275H13.65V14.15H4.05V13.275ZM4.05 9.85H13.65V10.75H4.05V9.85ZM20.45 15.975C19.9833 17.6583 19.1417 18.9667 17.925 19.9C16.7083 20.8333 15.2667 21.3 13.6 21.3C12.05 21.3 10.7 20.925 9.55 20.175C8.4 19.425 7.51667 18.35 6.9 16.95C6.28333 15.55 5.975 13.9 5.975 12C5.975 10.1 6.28333 8.45 6.9 7.05C7.51667 5.65 8.4 4.575 9.55 3.825C10.7 3.075 12.05 2.7 13.6 2.7C15.2667 2.7 16.7083 3.175 17.925 4.125C19.1583 5.05833 20 6.35833 20.45 8.025L19.525 8.325C19.1083 6.825 18.3667 5.675 17.3 4.875C16.2333 4.05833 15 3.65 13.6 3.65C12.2333 3.65 11.05 3.99167 10.05 4.675C9.06667 5.34167 8.30833 6.30833 7.775 7.575C7.25833 8.825 7 10.3 7 12C7 13.7167 7.25833 15.2 7.775 16.45C8.30833 17.7 9.06667 18.6667 10.05 19.35C11.05 20.0167 12.2333 20.35 13.6 20.35C15 20.35 16.2333 19.95 17.3 19.15C18.3667 18.35 19.1083 17.2 19.525 15.7L20.45 15.975Z" fill="black"/>
</g>
<defs>
<clipPath id="clip0_3234_9460">
<rect width="24" height="24" fill="white"/>
</clipPath>
</defs>
</svg>
