<svg width="24" height="24" viewBox="0 0 24 24" fill="none" xmlns="http://www.w3.org/2000/svg">
<g clip-path="url(#clip0_3234_10582)">
<rect width="24" height="24" fill="white"/>
<path d="M8.55 15.65C9.4 16.5333 10.5583 16.975 12.025 16.975C13.475 16.975 14.575 16.5333 15.325 15.65C16.075 14.7667 16.4083 13.4583 16.325 11.725H11.925V13.275H14.5C14.4333 13.9417 14.1833 14.45 13.75 14.8C13.3333 15.1333 12.7667 15.3 12.05 15.3C11.1167 15.3 10.4083 15.0083 9.925 14.425C9.44167 13.825 9.2 13.0167 9.2 12C9.2 10.9667 9.45 10.1583 9.95 9.575C10.4667 8.975 11.1667 8.675 12.05 8.675C12.6167 8.675 13.1083 8.80833 13.525 9.075C13.9583 9.34167 14.2833 9.74167 14.5 10.275L16.15 9.575C15.8333 8.75833 15.3083 8.125 14.575 7.675C13.8583 7.20833 13 6.975 12 6.975C10.5667 6.975 9.41667 7.425 8.55 8.325C7.7 9.225 7.275 10.45 7.275 12C7.275 13.5333 7.7 14.75 8.55 15.65ZM17.05 20.675C15.5333 21.5583 13.85 22 12 22C10.15 22 8.45833 21.5583 6.925 20.675C5.40833 19.7917 4.20833 18.5917 3.325 17.075C2.44167 15.5417 2 13.85 2 12C2 10.15 2.44167 8.46667 3.325 6.95C4.20833 5.41667 5.40833 4.20833 6.925 3.325C8.45833 2.44167 10.15 2 12 2C13.85 2 15.5333 2.44167 17.05 3.325C18.5833 4.20833 19.7917 5.41667 20.675 6.95C21.5583 8.46667 22 10.15 22 12C22 13.85 21.5583 15.5417 20.675 17.075C19.7917 18.5917 18.5833 19.7917 17.05 20.675Z" fill="black"/>
</g>
<defs>
<clipPath id="clip0_3234_10582">
<rect width="24" height="24" fill="white"/>
</clipPath>
</defs>
</svg>
