<svg width="24" height="24" viewBox="0 0 24 24" fill="none" xmlns="http://www.w3.org/2000/svg">
<g clip-path="url(#clip0_3234_10584)">
<rect width="24" height="24" fill="white"/>
<path d="M8.5 15.7C9.38333 16.6 10.575 17.05 12.075 17.05C13.575 17.05 14.7083 16.5833 15.475 15.65C16.2583 14.7167 16.6083 13.35 16.525 11.55H12.075V13.3H14.2C14.15 13.8167 13.9333 14.225 13.55 14.525C13.1833 14.8083 12.7083 14.95 12.125 14.95C11.2583 14.95 10.6167 14.6833 10.2 14.15C9.78333 13.6167 9.575 12.9 9.575 12C9.575 11.0833 9.8 10.3583 10.25 9.825C10.7 9.29167 11.325 9.025 12.125 9.025C12.5917 9.025 13 9.14167 13.35 9.375C13.7167 9.59167 13.9917 9.91667 14.175 10.35L16.25 9.425C15.9 8.625 15.3583 8.00833 14.625 7.575C13.9083 7.125 13.05 6.9 12.05 6.9C10.5833 6.9 9.4 7.35833 8.5 8.275C7.61667 9.19167 7.175 10.4333 7.175 12C7.175 13.55 7.61667 14.7833 8.5 15.7ZM17.05 20.675C15.5333 21.5583 13.85 22 12 22C10.15 22 8.45833 21.5583 6.925 20.675C5.40833 19.7917 4.20833 18.5917 3.325 17.075C2.44167 15.5417 2 13.85 2 12C2 10.15 2.44167 8.46667 3.325 6.95C4.20833 5.41667 5.40833 4.20833 6.925 3.325C8.45833 2.44167 10.15 2 12 2C13.85 2 15.5333 2.44167 17.05 3.325C18.5833 4.20833 19.7917 5.41667 20.675 6.95C21.5583 8.46667 22 10.15 22 12C22 13.85 21.5583 15.5417 20.675 17.075C19.7917 18.5917 18.5833 19.7917 17.05 20.675Z" fill="black"/>
</g>
<defs>
<clipPath id="clip0_3234_10584">
<rect width="24" height="24" fill="white"/>
</clipPath>
</defs>
</svg>
