<svg width="24" height="24" viewBox="0 0 24 24" fill="none" xmlns="http://www.w3.org/2000/svg">
<g clip-path="url(#clip0_3254_19014)">
<rect width="24" height="24" fill="white"/>
<path d="M8.825 15.65C9.625 16.5333 10.7083 16.975 12.075 16.975C13.375 16.975 14.375 16.5583 15.075 15.725C15.7917 14.8917 16.1 13.7083 16 12.175H12V12.65H15.5C15.55 13.8167 15.275 14.75 14.675 15.45C14.075 16.15 13.2083 16.5 12.075 16.5C10.8583 16.5 9.9 16.1 9.2 15.3C8.5 14.4833 8.15 13.3833 8.15 12C8.15 10.6 8.5 9.49167 9.2 8.675C9.91667 7.85833 10.875 7.45 12.075 7.45C12.875 7.45 13.5667 7.65 14.15 8.05C14.75 8.43333 15.175 8.96667 15.425 9.65L15.85 9.475C15.5667 8.69167 15.0917 8.08333 14.425 7.65C13.7583 7.2 12.9667 6.975 12.05 6.975C10.7333 6.975 9.66667 7.43333 8.85 8.35C8.05 9.25 7.65 10.4667 7.65 12C7.65 13.5333 8.04167 14.75 8.825 15.65ZM19.25 20.55C18.7167 20.85 18.1333 21 17.5 21H6.5C5.86667 21 5.275 20.85 4.725 20.55C4.19167 20.2333 3.76667 19.8083 3.45 19.275C3.15 18.725 3 18.1333 3 17.5V6.5C3 5.86667 3.15 5.28333 3.45 4.75C3.76667 4.2 4.19167 3.775 4.725 3.475C5.275 3.15833 5.86667 3 6.5 3H17.5C18.1333 3 18.7167 3.15833 19.25 3.475C19.8 3.775 20.225 4.2 20.525 4.75C20.8417 5.28333 21 5.86667 21 6.5V17.5C21 18.1333 20.8417 18.725 20.525 19.275C20.225 19.8083 19.8 20.2333 19.25 20.55Z" fill="black"/>
</g>
<defs>
<clipPath id="clip0_3254_19014">
<rect width="24" height="24" fill="white"/>
</clipPath>
</defs>
</svg>
