<svg width="24" height="24" viewBox="0 0 24 24" fill="none" xmlns="http://www.w3.org/2000/svg">
<g clip-path="url(#clip0_3254_20208)">
<rect width="24" height="24" fill="white"/>
<path d="M8.725 15.65C9.54167 16.5333 10.65 16.975 12.05 16.975C13.4 16.975 14.4333 16.55 15.15 15.7C15.8833 14.85 16.2 13.625 16.1 12.025H11.975V12.85H15.175C15.175 13.85 14.9 14.6417 14.35 15.225C13.8167 15.8083 13.0583 16.1 12.075 16.1C10.9417 16.1 10.0583 15.7333 9.425 15C8.80833 14.2667 8.5 13.2667 8.5 12C8.5 10.7167 8.81667 9.70833 9.45 8.975C10.1 8.225 10.975 7.85 12.075 7.85C12.7917 7.85 13.4167 8.025 13.95 8.375C14.4833 8.725 14.875 9.21667 15.125 9.85L15.95 9.5C15.65 8.71667 15.1583 8.1 14.475 7.65C13.7917 7.2 12.975 6.975 12.025 6.975C10.675 6.975 9.58333 7.43333 8.75 8.35C7.93333 9.25 7.525 10.4667 7.525 12C7.525 13.5333 7.925 14.75 8.725 15.65ZM17.05 20.675C15.5333 21.5583 13.85 22 12 22C10.15 22 8.45833 21.5583 6.925 20.675C5.40833 19.7917 4.20833 18.5917 3.325 17.075C2.44167 15.5417 2 13.85 2 12C2 10.15 2.44167 8.46667 3.325 6.95C4.20833 5.41667 5.40833 4.20833 6.925 3.325C8.45833 2.44167 10.15 2 12 2C13.85 2 15.5333 2.44167 17.05 3.325C18.5833 4.20833 19.7917 5.41667 20.675 6.95C21.5583 8.46667 22 10.15 22 12C22 13.85 21.5583 15.5417 20.675 17.075C19.7917 18.5917 18.5833 19.7917 17.05 20.675Z" fill="black"/>
</g>
<defs>
<clipPath id="clip0_3254_20208">
<rect width="24" height="24" fill="white"/>
</clipPath>
</defs>
</svg>
