<svg width="24" height="24" viewBox="0 0 24 24" fill="none" xmlns="http://www.w3.org/2000/svg">
<g clip-path="url(#clip0_3254_20204)">
<rect width="24" height="24" fill="white"/>
<path d="M12.0005 22C10.1672 22 8.48382 21.5583 6.95049 20.675C5.41716 19.7917 4.20882 18.5833 3.32549 17.05C2.44216 15.5167 2.00049 13.8333 2.00049 12C2.00049 10.1667 2.44216 8.48333 3.32549 6.95C4.20882 5.41667 5.41716 4.20833 6.95049 3.325C8.48382 2.44167 10.1672 2 12.0005 2C13.8338 2 15.5172 2.44167 17.0505 3.325C18.5838 4.20833 19.7922 5.41667 20.6755 6.95C21.5588 8.48333 22.0005 10.1667 22.0005 12C22.0005 13.8333 21.5588 15.5167 20.6755 17.05C19.7922 18.5833 18.5838 19.7917 17.0505 20.675C15.5172 21.5583 13.8338 22 12.0005 22ZM12.0005 18.45C13.1838 18.45 14.2588 18.1667 15.2255 17.6C16.2088 17.0333 16.9838 16.2583 17.5505 15.275C18.1172 14.275 18.4005 13.1833 18.4005 12C18.4005 10.8167 18.1172 9.73333 17.5505 8.75C16.9838 7.75 16.2088 6.96667 15.2255 6.4C14.2588 5.83333 13.1838 5.55 12.0005 5.55C10.8172 5.55 9.73382 5.83333 8.75049 6.4C7.78382 6.96667 7.01716 7.75 6.45049 8.75C5.88382 9.73333 5.60049 10.8167 5.60049 12C5.60049 13.1833 5.88382 14.275 6.45049 15.275C7.01716 16.2583 7.78382 17.0333 8.75049 17.6C9.73382 18.1667 10.8172 18.45 12.0005 18.45ZM12.1755 16.775C10.7422 16.775 9.60049 16.35 8.75049 15.5C7.90049 14.6333 7.47549 13.4667 7.47549 12C7.47549 10.5 7.90049 9.325 8.75049 8.475C9.61716 7.60833 10.7505 7.175 12.1505 7.175C13.0505 7.175 13.8338 7.35833 14.5005 7.725C15.1672 8.09167 15.6922 8.63333 16.0755 9.35L13.4255 10.6C13.2922 10.35 13.1255 10.1583 12.9255 10.025C12.7255 9.89167 12.5005 9.825 12.2505 9.825C11.6838 9.825 11.2588 10.025 10.9755 10.425C10.7088 10.825 10.5755 11.35 10.5755 12C10.5755 12.65 10.6922 13.1667 10.9255 13.55C11.1755 13.9167 11.6255 14.1 12.2755 14.1C12.5755 14.1 12.8505 14.0167 13.1005 13.85C13.3505 13.6667 13.4672 13.475 13.4505 13.275H12.1255V11.2H16.5005C16.5505 13.0167 16.2088 14.4 15.4755 15.35C14.7422 16.3 13.6422 16.775 12.1755 16.775Z" fill="black"/>
</g>
<defs>
<clipPath id="clip0_3254_20204">
<rect width="24" height="24" fill="white"/>
</clipPath>
</defs>
</svg>
