<svg width="24" height="24" viewBox="0 0 24 24" fill="none" xmlns="http://www.w3.org/2000/svg">
<g clip-path="url(#clip0_3254_20214)">
<rect width="24" height="24" fill="white"/>
<path d="M8.5 15.725C9.38333 16.625 10.575 17.075 12.075 17.075C13.575 17.075 14.7083 16.6083 15.475 15.675C16.2583 14.725 16.6083 13.3417 16.525 11.525H12V13.325H14.2C14.15 13.8417 13.9333 14.25 13.55 14.55C13.1833 14.8333 12.7083 14.975 12.125 14.975C11.275 14.975 10.6417 14.7083 10.225 14.175C9.80833 13.6417 9.6 12.9167 9.6 12C9.6 11.0667 9.81667 10.3333 10.25 9.8C10.7 9.25 11.325 8.975 12.125 8.975C12.5917 8.975 13 9.09167 13.35 9.325C13.7167 9.55833 13.9917 9.89167 14.175 10.325L16.25 9.425C15.9 8.60833 15.3583 7.98333 14.625 7.55C13.9083 7.1 13.05 6.875 12.05 6.875C10.5833 6.875 9.4 7.33333 8.5 8.25C7.61667 9.16667 7.175 10.4167 7.175 12C7.175 13.5667 7.61667 14.8083 8.5 15.725ZM17.05 20.675C15.5333 21.5583 13.85 22 12 22C10.15 22 8.45833 21.5583 6.925 20.675C5.40833 19.7917 4.20833 18.5917 3.325 17.075C2.44167 15.5417 2 13.85 2 12C2 10.15 2.44167 8.46667 3.325 6.95C4.20833 5.41667 5.40833 4.20833 6.925 3.325C8.45833 2.44167 10.15 2 12 2C13.85 2 15.5333 2.44167 17.05 3.325C18.5833 4.20833 19.7917 5.41667 20.675 6.95C21.5583 8.46667 22 10.15 22 12C22 13.85 21.5583 15.5417 20.675 17.075C19.7917 18.5917 18.5833 19.7917 17.05 20.675Z" fill="black"/>
</g>
<defs>
<clipPath id="clip0_3254_20214">
<rect width="24" height="24" fill="white"/>
</clipPath>
</defs>
</svg>
