<svg width="24" height="24" viewBox="0 0 24 24" fill="none" xmlns="http://www.w3.org/2000/svg">
<g clip-path="url(#clip0_3233_6313)">
<rect width="24" height="24" fill="white"/>
<path d="M6.50049 21C5.86716 21 5.27549 20.85 4.72549 20.55C4.19216 20.2333 3.76716 19.8083 3.45049 19.275C3.15049 18.725 3.00049 18.1333 3.00049 17.5V6.5C3.00049 5.85 3.15049 5.25833 3.45049 4.725C3.76716 4.19167 4.19216 3.775 4.72549 3.475C5.27549 3.15833 5.86716 3 6.50049 3H17.5005C18.1505 3 18.7422 3.15833 19.2755 3.475C19.8088 3.775 20.2255 4.19167 20.5255 4.725C20.8422 5.25833 21.0005 5.85 21.0005 6.5V17.5C21.0005 18.1333 20.8422 18.725 20.5255 19.275C20.2255 19.8083 19.8088 20.2333 19.2755 20.55C18.7422 20.85 18.1505 21 17.5005 21H6.50049ZM17.5005 20.525C18.3338 20.525 19.0422 20.2333 19.6255 19.65C20.2088 19.0667 20.5005 18.35 20.5005 17.5V6.5C20.5005 5.65 20.2088 4.93333 19.6255 4.35C19.0422 3.76667 18.3338 3.475 17.5005 3.475H6.50049C5.66716 3.475 4.95882 3.76667 4.37549 4.35C3.79216 4.93333 3.50049 5.65 3.50049 6.5V17.5C3.50049 18.35 3.79216 19.0667 4.37549 19.65C4.95882 20.2333 5.66716 20.525 6.50049 20.525H17.5005ZM12.0755 16.975C10.7088 16.975 9.62549 16.5333 8.82549 15.65C8.04216 14.75 7.65049 13.5333 7.65049 12C7.65049 10.4667 8.05049 9.25 8.85049 8.35C9.66716 7.43333 10.7338 6.975 12.0505 6.975C12.9672 6.975 13.7588 7.2 14.4255 7.65C15.0922 8.08333 15.5672 8.69167 15.8505 9.475L15.4255 9.65C15.1755 8.96667 14.7505 8.43333 14.1505 8.05C13.5672 7.65 12.8755 7.45 12.0755 7.45C10.8755 7.45 9.91716 7.85833 9.20049 8.675C8.50049 9.49167 8.15049 10.6 8.15049 12C8.15049 13.3833 8.50049 14.4833 9.20049 15.3C9.90049 16.1 10.8588 16.5 12.0755 16.5C13.2088 16.5 14.0755 16.15 14.6755 15.45C15.2755 14.75 15.5505 13.8167 15.5005 12.65H12.0005V12.175H16.0005C16.1005 13.7083 15.7922 14.8917 15.0755 15.725C14.3755 16.5583 13.3755 16.975 12.0755 16.975Z" fill="black"/>
</g>
<defs>
<clipPath id="clip0_3233_6313">
<rect width="24" height="24" fill="white"/>
</clipPath>
</defs>
</svg>
