<svg width="24" height="24" viewBox="0 0 24 24" fill="none" xmlns="http://www.w3.org/2000/svg">
<g clip-path="url(#clip0_3254_20216)">
<rect width="24" height="24" fill="white"/>
<path d="M8.425 15.775C9.34167 16.6917 10.575 17.15 12.125 17.15C13.675 17.15 14.8417 16.6583 15.625 15.675C16.425 14.675 16.7917 13.225 16.725 11.325H12.05V13.35H13.875C13.875 13.7333 13.7083 14.05 13.375 14.3C13.0583 14.5333 12.6667 14.65 12.2 14.65C11.4167 14.65 10.85 14.4167 10.5 13.95C10.1667 13.4667 10 12.8167 10 12C10 11.1833 10.1833 10.5333 10.55 10.05C10.9167 9.55 11.4583 9.3 12.175 9.3C12.5583 9.3 12.8917 9.39167 13.175 9.575C13.475 9.75833 13.7083 10.0333 13.875 10.4L16.35 9.25C15.9667 8.46667 15.4083 7.85833 14.675 7.425C13.9417 6.99167 13.0833 6.775 12.1 6.775C10.5833 6.775 9.36667 7.24167 8.45 8.175C7.53333 9.10833 7.075 10.3833 7.075 12C7.075 13.5833 7.525 14.8417 8.425 15.775ZM17.05 20.675C15.5333 21.5583 13.85 22 12 22C10.15 22 8.45833 21.5583 6.925 20.675C5.40833 19.7917 4.20833 18.5917 3.325 17.075C2.44167 15.5417 2 13.85 2 12C2 10.15 2.44167 8.46667 3.325 6.95C4.20833 5.41667 5.40833 4.20833 6.925 3.325C8.45833 2.44167 10.15 2 12 2C13.85 2 15.5333 2.44167 17.05 3.325C18.5833 4.20833 19.7917 5.41667 20.675 6.95C21.5583 8.46667 22 10.15 22 12C22 13.85 21.5583 15.5417 20.675 17.075C19.7917 18.5917 18.5833 19.7917 17.05 20.675Z" fill="black"/>
</g>
<defs>
<clipPath id="clip0_3254_20216">
<rect width="24" height="24" fill="white"/>
</clipPath>
</defs>
</svg>
