<svg width="24" height="24" viewBox="0 0 24 24" fill="none" xmlns="http://www.w3.org/2000/svg">
<g clip-path="url(#clip0_3254_19008)">
<rect width="24" height="24" fill="white"/>
<path d="M7.17549 21C6.40882 21 5.70049 20.8167 5.05049 20.45C4.41716 20.0833 3.91716 19.5833 3.55049 18.95C3.18382 18.3 3.00049 17.5917 3.00049 16.825V7.175C3.00049 6.40833 3.18382 5.70833 3.55049 5.075C3.91716 4.425 4.41716 3.91667 5.05049 3.55C5.70049 3.18333 6.40882 3 7.17549 3H16.7505C17.5338 3 18.2505 3.18333 18.9005 3.55C19.5505 3.91667 20.0588 4.425 20.4255 5.075C20.8088 5.70833 21.0005 6.40833 21.0005 7.175V16.825C21.0005 17.5917 20.8172 18.3 20.4505 18.95C20.0838 19.5833 19.5755 20.0833 18.9255 20.45C18.2922 20.8167 17.5922 21 16.8255 21H7.17549ZM16.8255 18.625C17.3255 18.625 17.7422 18.4583 18.0755 18.125C18.4088 17.775 18.5755 17.3417 18.5755 16.825V7.15C18.5755 6.65 18.4088 6.23333 18.0755 5.9C17.7422 5.55 17.3255 5.375 16.8255 5.375H7.17549C6.67549 5.375 6.25882 5.55 5.92549 5.9C5.59216 6.23333 5.42549 6.65833 5.42549 7.175V16.825C5.42549 17.3417 5.59216 17.775 5.92549 18.125C6.25882 18.4583 6.67549 18.625 7.17549 18.625H16.8255ZM12.1505 16.9C10.7005 16.9 9.55049 16.4583 8.70049 15.575C7.85049 14.6917 7.42549 13.5 7.42549 12C7.42549 10.4833 7.85049 9.28333 8.70049 8.4C9.56716 7.5 10.7088 7.05 12.1255 7.05C13.0922 7.05 13.9255 7.26667 14.6255 7.7C15.3422 8.13333 15.8672 8.74167 16.2005 9.525L14.2255 10.4C14.0422 9.96667 13.7755 9.64167 13.4255 9.425C13.0755 9.20833 12.6672 9.1 12.2005 9.1C11.4172 9.1 10.8088 9.35833 10.3755 9.875C9.94216 10.3917 9.72549 11.1 9.72549 12C9.72549 12.8833 9.92549 13.5833 10.3255 14.1C10.7422 14.6167 11.3672 14.875 12.2005 14.875C12.7838 14.875 13.2588 14.7333 13.6255 14.45C13.9922 14.1667 14.1922 13.7667 14.2255 13.25H12.1505V11.575H16.4755C16.5422 13.325 16.2005 14.65 15.4505 15.55C14.7172 16.45 13.6172 16.9 12.1505 16.9Z" fill="black"/>
</g>
<defs>
<clipPath id="clip0_3254_19008">
<rect width="24" height="24" fill="white"/>
</clipPath>
</defs>
</svg>
