<svg width="24" height="24" viewBox="0 0 24 24" fill="none" xmlns="http://www.w3.org/2000/svg">
<g clip-path="url(#clip0_3231_353)">
<rect width="24" height="24" fill="white"/>
<path d="M12.0005 22C10.1672 22 8.48382 21.5583 6.95049 20.675C5.41716 19.7917 4.20882 18.5833 3.32549 17.05C2.44216 15.5167 2.00049 13.8333 2.00049 12C2.00049 10.1667 2.44216 8.48333 3.32549 6.95C4.20882 5.41667 5.41716 4.20833 6.95049 3.325C8.48382 2.44167 10.1672 2 12.0005 2C13.8338 2 15.5172 2.44167 17.0505 3.325C18.5838 4.20833 19.7922 5.41667 20.6755 6.95C21.5588 8.48333 22.0005 10.1667 22.0005 12C22.0005 13.8333 21.5588 15.5167 20.6755 17.05C19.7922 18.5833 18.5838 19.7917 17.0505 20.675C15.5172 21.5583 13.8338 22 12.0005 22ZM12.0005 21.525C13.7505 21.525 15.3505 21.1083 16.8005 20.275C18.2505 19.425 19.3922 18.275 20.2255 16.825C21.0755 15.3583 21.5005 13.75 21.5005 12C21.5005 10.25 21.0755 8.65 20.2255 7.2C19.3922 5.73333 18.2505 4.58333 16.8005 3.75C15.3505 2.9 13.7505 2.475 12.0005 2.475C10.2505 2.475 8.65049 2.9 7.20049 3.75C5.75049 4.58333 4.60049 5.73333 3.75049 7.2C2.91716 8.65 2.50049 10.25 2.50049 12C2.50049 13.75 2.91716 15.3583 3.75049 16.825C4.60049 18.275 5.75049 19.425 7.20049 20.275C8.65049 21.1083 10.2505 21.525 12.0005 21.525ZM12.0755 16.975C10.7088 16.975 9.62549 16.5333 8.82549 15.65C8.04216 14.75 7.65049 13.5333 7.65049 12C7.65049 10.4667 8.05049 9.25 8.85049 8.35C9.66716 7.43333 10.7338 6.975 12.0505 6.975C12.9672 6.975 13.7588 7.2 14.4255 7.65C15.0922 8.08333 15.5672 8.69167 15.8505 9.475L15.4255 9.65C15.1755 8.96667 14.7505 8.43333 14.1505 8.05C13.5672 7.65 12.8755 7.45 12.0755 7.45C10.8755 7.45 9.91716 7.85833 9.20049 8.675C8.50049 9.49167 8.15049 10.6 8.15049 12C8.15049 13.3833 8.50049 14.4833 9.20049 15.3C9.90049 16.1 10.8588 16.5 12.0755 16.5C13.2088 16.5 14.0755 16.15 14.6755 15.45C15.2755 14.75 15.5505 13.8167 15.5005 12.65H12.0005V12.175H16.0005C16.1005 13.7083 15.7922 14.8917 15.0755 15.725C14.3755 16.5583 13.3755 16.975 12.0755 16.975Z" fill="black"/>
</g>
<defs>
<clipPath id="clip0_3231_353">
<rect width="24" height="24" fill="white"/>
</clipPath>
</defs>
</svg>
