<svg width="24" height="24" viewBox="0 0 24 24" fill="none" xmlns="http://www.w3.org/2000/svg">
<g clip-path="url(#clip0_3254_18874)">
<rect width="24" height="24" fill="white"/>
<path d="M11.2755 7.1H12.7255V16.825H11.2755V7.1ZM6.82549 21C6.12549 21 5.47549 20.8333 4.87549 20.5C4.29216 20.1667 3.83382 19.7083 3.50049 19.125C3.16716 18.525 3.00049 17.875 3.00049 17.175V6.825C3.00049 6.125 3.16716 5.48333 3.50049 4.9C3.83382 4.3 4.29216 3.83333 4.87549 3.5C5.47549 3.16667 6.12549 3 6.82549 3H17.1755C17.8755 3 18.5172 3.16667 19.1005 3.5C19.7005 3.83333 20.1672 4.3 20.5005 4.9C20.8338 5.48333 21.0005 6.125 21.0005 6.825V17.175C21.0005 17.875 20.8338 18.525 20.5005 19.125C20.1672 19.7083 19.7005 20.1667 19.1005 20.5C18.5172 20.8333 17.8755 21 17.1755 21H6.82549ZM17.1755 19.575C17.8255 19.575 18.3755 19.3417 18.8255 18.875C19.2922 18.4083 19.5255 17.8417 19.5255 17.175V6.825C19.5255 6.15833 19.2922 5.59167 18.8255 5.125C18.3755 4.65833 17.8255 4.425 17.1755 4.425H6.82549C6.17549 4.425 5.61716 4.65833 5.15049 5.125C4.70049 5.59167 4.47549 6.15833 4.47549 6.825V17.175C4.47549 17.8417 4.70049 18.4083 5.15049 18.875C5.61716 19.3417 6.17549 19.575 6.82549 19.575H17.1755Z" fill="black"/>
</g>
<defs>
<clipPath id="clip0_3254_18874">
<rect width="24" height="24" fill="white"/>
</clipPath>
</defs>
</svg>
