<svg width="24" height="24" viewBox="0 0 24 24" fill="none" xmlns="http://www.w3.org/2000/svg">
<g clip-path="url(#clip0_3254_18086)">
<rect width="24" height="24" fill="white"/>
<path d="M10.225 14.6C9.975 14.4333 9.75 14.1917 9.55 13.875L8.025 15.25C8.425 15.8833 8.88333 16.3417 9.4 16.625C9.91667 16.8917 10.5417 17.025 11.275 17.025C12.4083 17.025 13.3167 16.7167 14 16.1C14.7 15.4667 15.05 14.6167 15.05 13.55V7.025H12.575V13.45C12.575 13.9 12.45 14.25 12.2 14.5C11.95 14.7333 11.6083 14.85 11.175 14.85C10.8083 14.85 10.4917 14.7667 10.225 14.6ZM17.05 20.675C15.5333 21.5583 13.85 22 12 22C10.15 22 8.45833 21.5583 6.925 20.675C5.40833 19.7917 4.20833 18.5917 3.325 17.075C2.44167 15.5417 2 13.85 2 12C2 10.15 2.44167 8.46667 3.325 6.95C4.20833 5.41667 5.40833 4.20833 6.925 3.325C8.45833 2.44167 10.15 2 12 2C13.85 2 15.5333 2.44167 17.05 3.325C18.5833 4.20833 19.7917 5.41667 20.675 6.95C21.5583 8.46667 22 10.15 22 12C22 13.85 21.5583 15.5417 20.675 17.075C19.7917 18.5917 18.5833 19.7917 17.05 20.675Z" fill="black"/>
</g>
<defs>
<clipPath id="clip0_3254_18086">
<rect width="24" height="24" fill="white"/>
</clipPath>
</defs>
</svg>
