<svg width="24" height="24" viewBox="0 0 24 24" fill="none" xmlns="http://www.w3.org/2000/svg">
<g clip-path="url(#clip0_3254_18088)">
<rect width="24" height="24" fill="white"/>
<path d="M10.15 14.225C9.9 14.0917 9.64167 13.8917 9.375 13.625L7.775 15.6C8.25833 16.1167 8.775 16.4917 9.325 16.725C9.875 16.9583 10.4917 17.075 11.175 17.075C12.4417 17.075 13.4583 16.7417 14.225 16.075C14.9917 15.3917 15.375 14.5 15.375 13.4V6.9H12.375V13.25C12.375 13.6 12.25 13.8833 12 14.1C11.75 14.3167 11.4333 14.425 11.05 14.425C10.7167 14.425 10.4167 14.3583 10.15 14.225ZM17.05 20.675C15.5333 21.5583 13.85 22 12 22C10.15 22 8.45833 21.5583 6.925 20.675C5.40833 19.7917 4.20833 18.5917 3.325 17.075C2.44167 15.5417 2 13.85 2 12C2 10.15 2.44167 8.46667 3.325 6.95C4.20833 5.41667 5.40833 4.20833 6.925 3.325C8.45833 2.44167 10.15 2 12 2C13.85 2 15.5333 2.44167 17.05 3.325C18.5833 4.20833 19.7917 5.41667 20.675 6.95C21.5583 8.46667 22 10.15 22 12C22 13.85 21.5583 15.5417 20.675 17.075C19.7917 18.5917 18.5833 19.7917 17.05 20.675Z" fill="black"/>
</g>
<defs>
<clipPath id="clip0_3254_18088">
<rect width="24" height="24" fill="white"/>
</clipPath>
</defs>
</svg>
