<svg width="24" height="24" viewBox="0 0 24 24" fill="none" xmlns="http://www.w3.org/2000/svg">
<g clip-path="url(#clip0_3254_18948)">
<rect width="24" height="24" fill="white"/>
<path d="M10.075 13.825C9.80833 13.7083 9.51667 13.5417 9.2 13.325L7.525 15.9C8.10833 16.3333 8.68333 16.6417 9.25 16.825C9.83333 17.0083 10.45 17.1 11.1 17.1C12.4833 17.1 13.6 16.7417 14.45 16.025C15.3 15.2917 15.725 14.35 15.725 13.2V6.775H12.15V13C12.15 13.2833 12.0333 13.5167 11.8 13.7C11.5667 13.8833 11.275 13.975 10.925 13.975C10.625 13.975 10.3417 13.925 10.075 13.825ZM19.25 20.55C18.7167 20.85 18.1333 21 17.5 21H6.5C5.86667 21 5.275 20.85 4.725 20.55C4.19167 20.2333 3.76667 19.8083 3.45 19.275C3.15 18.725 3 18.1333 3 17.5V6.5C3 5.86667 3.15 5.28333 3.45 4.75C3.76667 4.2 4.19167 3.775 4.725 3.475C5.275 3.15833 5.86667 3 6.5 3H17.5C18.1333 3 18.7167 3.15833 19.25 3.475C19.8 3.775 20.225 4.2 20.525 4.75C20.8417 5.28333 21 5.86667 21 6.5V17.5C21 18.1333 20.8417 18.725 20.525 19.275C20.225 19.8083 19.8 20.2333 19.25 20.55Z" fill="black"/>
</g>
<defs>
<clipPath id="clip0_3254_18948">
<rect width="24" height="24" fill="white"/>
</clipPath>
</defs>
</svg>
