<svg width="24" height="24" viewBox="0 0 24 24" fill="none" xmlns="http://www.w3.org/2000/svg">
<g clip-path="url(#clip0_3254_18938)">
<rect width="24" height="24" fill="white"/>
<path d="M11.225 16.025C10.2917 16.025 9.65 15.6 9.3 14.75L8.525 15.125C8.775 15.7083 9.11667 16.15 9.55 16.45C10 16.75 10.5583 16.9 11.225 16.9C12.125 16.9 12.8417 16.6333 13.375 16.1C13.9083 15.5667 14.175 14.8083 14.175 13.825V7.05H13.225V13.8C13.225 14.5333 13.0417 15.0917 12.675 15.475C12.325 15.8417 11.8417 16.025 11.225 16.025ZM19.25 20.55C18.7167 20.85 18.1333 21 17.5 21H6.5C5.86667 21 5.275 20.85 4.725 20.55C4.19167 20.2333 3.76667 19.8083 3.45 19.275C3.15 18.725 3 18.1333 3 17.5V6.5C3 5.86667 3.15 5.28333 3.45 4.75C3.76667 4.2 4.19167 3.775 4.725 3.475C5.275 3.15833 5.86667 3 6.5 3H17.5C18.1333 3 18.7167 3.15833 19.25 3.475C19.8 3.775 20.225 4.2 20.525 4.75C20.8417 5.28333 21 5.86667 21 6.5V17.5C21 18.1333 20.8417 18.725 20.525 19.275C20.225 19.8083 19.8 20.2333 19.25 20.55Z" fill="black"/>
</g>
<defs>
<clipPath id="clip0_3254_18938">
<rect width="24" height="24" fill="white"/>
</clipPath>
</defs>
</svg>
