<svg width="24" height="24" viewBox="0 0 24 24" fill="none" xmlns="http://www.w3.org/2000/svg">
<g clip-path="url(#clip0_3254_18088)">
<rect width="24" height="24" fill="white"/>
<path d="M11.025 14.5C10.4083 14.5 9.81667 14.2333 9.25 13.7L7.775 15.625C8.25833 16.1583 8.775 16.5417 9.325 16.775C9.875 16.9917 10.4917 17.1 11.175 17.1C12.4417 17.1 13.4583 16.7667 14.225 16.1C14.9917 15.4167 15.375 14.525 15.375 13.425V6.9H12.4V13.1C12.4 13.4833 12.2583 13.8167 11.975 14.1C11.7083 14.3667 11.3917 14.5 11.025 14.5ZM17.05 20.675C15.5333 21.5583 13.85 22 12 22C10.15 22 8.45833 21.5583 6.925 20.675C5.40833 19.7917 4.20833 18.5917 3.325 17.075C2.44167 15.5417 2 13.85 2 12C2 10.15 2.44167 8.46667 3.325 6.95C4.20833 5.41667 5.40833 4.20833 6.925 3.325C8.45833 2.44167 10.15 2 12 2C13.85 2 15.5333 2.44167 17.05 3.325C18.5833 4.20833 19.7917 5.41667 20.675 6.95C21.5583 8.46667 22 10.15 22 12C22 13.85 21.5583 15.5417 20.675 17.075C19.7917 18.5917 18.5833 19.7917 17.05 20.675Z" fill="black"/>
</g>
<defs>
<clipPath id="clip0_3254_18088">
<rect width="24" height="24" fill="white"/>
</clipPath>
</defs>
</svg>
