<svg width="24" height="24" viewBox="0 0 24 24" fill="none" xmlns="http://www.w3.org/2000/svg">
<g clip-path="url(#clip0_3233_8869)">
<rect width="24" height="24" fill="white"/>
<path d="M19.7081 10.85C19.7081 9.13333 19.4164 7.70833 18.8331 6.575C18.2664 5.425 17.4498 4.56667 16.3831 4C15.3164 3.43333 14.0414 3.15 12.5581 3.15C11.0414 3.15 9.74144 3.45 8.65811 4.05C7.59144 4.65 6.76644 5.55833 6.18311 6.775C5.59977 7.99167 5.30811 9.50833 5.30811 11.325C5.30811 13.175 5.65811 14.8 6.35811 16.2C7.07477 17.5833 8.09144 18.65 9.40811 19.4C10.7248 20.15 12.2581 20.525 14.0081 20.525H18.5081V21H5.00811V20.525H12.0081L14.0081 20.9C12.1748 20.9 10.5581 20.5167 9.15811 19.75C7.77477 18.9667 6.69977 17.8583 5.93311 16.425C5.18311 14.975 4.80811 13.275 4.80811 11.325C4.80811 8.49167 5.49144 6.35 6.85811 4.9C8.22477 3.43333 10.1248 2.7 12.5581 2.7C14.9581 2.7 16.8248 3.39167 18.1581 4.775C19.5081 6.14167 20.1831 8.16667 20.1831 10.85H19.7081ZM14.4831 0.499999H14.9331V7.325H14.4831V0.499999ZM10.2331 0.499999H10.6831V7.325H10.2331V0.499999Z" fill="black"/>
</g>
<defs>
<clipPath id="clip0_3233_8869">
<rect width="24" height="24" fill="white"/>
</clipPath>
</defs>
</svg>
