<svg width="24" height="24" viewBox="0 0 24 24" fill="none" xmlns="http://www.w3.org/2000/svg">
<g clip-path="url(#clip0_3234_10730)">
<rect width="24" height="24" fill="white"/>
<path d="M7.32549 7.625H11.0755L12.6255 14.725H11.5005L12.9505 7.625H16.6755V16.35H14.2255V9.375H14.6005L14.0755 12.075L13.8755 13L13.2505 16.35H10.8255L10.1505 12.925L9.90049 11.7C9.63382 10.3833 9.48382 9.64167 9.45049 9.475H9.77549V16.35H7.32549V7.625ZM12.0005 22C10.1672 22 8.48382 21.5583 6.95049 20.675C5.41716 19.7917 4.20882 18.5833 3.32549 17.05C2.44216 15.5167 2.00049 13.8333 2.00049 12C2.00049 10.1667 2.44216 8.48333 3.32549 6.95C4.20882 5.41667 5.41716 4.20833 6.95049 3.325C8.48382 2.44167 10.1672 2 12.0005 2C13.8338 2 15.5172 2.44167 17.0505 3.325C18.5838 4.20833 19.7922 5.41667 20.6755 6.95C21.5588 8.48333 22.0005 10.1667 22.0005 12C22.0005 13.8333 21.5588 15.5167 20.6755 17.05C19.7922 18.5833 18.5838 19.7917 17.0505 20.675C15.5172 21.5583 13.8338 22 12.0005 22ZM12.0005 18.6C13.2005 18.6 14.3005 18.3083 15.3005 17.725C16.3005 17.1417 17.0922 16.35 17.6755 15.35C18.2588 14.3333 18.5505 13.2167 18.5505 12C18.5505 10.7833 18.2588 9.675 17.6755 8.675C17.0922 7.65833 16.3005 6.85833 15.3005 6.275C14.3005 5.69167 13.2005 5.4 12.0005 5.4C10.8005 5.4 9.70049 5.69167 8.70049 6.275C7.70049 6.85833 6.90882 7.65833 6.32549 8.675C5.74216 9.675 5.45049 10.7833 5.45049 12C5.45049 13.2167 5.74216 14.3333 6.32549 15.35C6.90882 16.35 7.70049 17.1417 8.70049 17.725C9.70049 18.3083 10.8005 18.6 12.0005 18.6Z" fill="black"/>
</g>
<defs>
<clipPath id="clip0_3234_10730">
<rect width="24" height="24" fill="white"/>
</clipPath>
</defs>
</svg>
