<svg width="24" height="24" viewBox="0 0 24 24" fill="none" xmlns="http://www.w3.org/2000/svg">
<g clip-path="url(#clip0_3234_9778)">
<rect width="24" height="24" fill="white"/>
<path d="M18.2565 14.825C18.2565 13.5917 18.0399 12.5417 17.6065 11.675C17.1732 10.7917 16.5232 10.125 15.6565 9.675C14.8065 9.225 13.7482 9 12.4815 9C11.2315 9 10.1732 9.225 9.30654 9.675C8.45654 10.125 7.81488 10.7917 7.38154 11.675C6.94821 12.5417 6.73154 13.5917 6.73154 14.825V21H4.08154V14.825C4.08154 13.1083 4.41488 11.625 5.08154 10.375C5.74821 9.125 6.70654 8.175 7.95654 7.525C9.22321 6.85833 10.7315 6.525 12.4815 6.525C14.2482 6.525 15.7565 6.85833 17.0065 7.525C18.2732 8.175 19.2399 9.125 19.9065 10.375C20.5732 11.625 20.9065 13.1083 20.9065 14.825V21H18.2565V14.825ZM11.1815 3H13.8065V21H11.1815V3Z" fill="black"/>
</g>
<defs>
<clipPath id="clip0_3234_9778">
<rect width="24" height="24" fill="white"/>
</clipPath>
</defs>
</svg>
