<svg width="24" height="24" viewBox="0 0 24 24" fill="none" xmlns="http://www.w3.org/2000/svg">
<g clip-path="url(#clip0_3234_9304)">
<rect width="24" height="24" fill="white"/>
<path d="M11.1799 16.3C9.77988 16.3 8.69655 15.8667 7.92988 15C7.17988 14.1167 6.80488 12.8083 6.80488 11.075L7.42988 10.975C7.42988 12.425 7.76322 13.5167 8.42988 14.25C9.11322 14.9667 10.0549 15.325 11.2549 15.325C12.1382 15.325 12.9132 15.1417 13.5799 14.775C14.2632 14.3917 14.7965 13.8417 15.1799 13.125C15.5632 12.4083 15.7549 11.5417 15.7549 10.525L16.0049 12.775C15.7215 13.8417 15.1466 14.7 14.2799 15.35C13.4299 15.9833 12.3965 16.3 11.1799 16.3ZM7.42988 3.5V13.225V13.475V21.5H6.42988V3.5H7.42988ZM17.8549 16C17.3715 16 16.9715 15.9083 16.6549 15.725C16.3549 15.525 16.1299 15.225 15.9799 14.825C15.8299 14.4083 15.7549 13.8833 15.7549 13.25V3.5H16.7549V13.2C16.7549 13.85 16.8549 14.325 17.0549 14.625C17.2716 14.9083 17.6216 15.05 18.1049 15.05H18.7549V16H17.8549Z" fill="black"/>
</g>
<defs>
<clipPath id="clip0_3234_9304">
<rect width="24" height="24" fill="white"/>
</clipPath>
</defs>
</svg>
