<svg width="24" height="24" viewBox="0 0 24 24" fill="none" xmlns="http://www.w3.org/2000/svg">
<g clip-path="url(#clip0_3254_18192)">
<rect width="24" height="24" fill="white"/>
<path d="M7.35 6.95V17H10.25L10.225 11.175C10.6917 12.2417 11.125 13.15 11.525 13.9L13.2 17H16.625V6.95H13.75L13.725 12.775C13.2083 11.625 12.7083 10.5667 12.225 9.6L10.8 6.95H7.35ZM17.05 20.675C15.5333 21.5583 13.85 22 12 22C10.15 22 8.45833 21.5583 6.925 20.675C5.40833 19.7917 4.20833 18.5917 3.325 17.075C2.44167 15.5417 2 13.85 2 12C2 10.15 2.44167 8.46667 3.325 6.95C4.20833 5.41667 5.40833 4.20833 6.925 3.325C8.45833 2.44167 10.15 2 12 2C13.85 2 15.5333 2.44167 17.05 3.325C18.5833 4.20833 19.7917 5.41667 20.675 6.95C21.5583 8.46667 22 10.15 22 12C22 13.85 21.5583 15.5417 20.675 17.075C19.7917 18.5917 18.5833 19.7917 17.05 20.675Z" fill="black"/>
</g>
<defs>
<clipPath id="clip0_3254_18192">
<rect width="24" height="24" fill="white"/>
</clipPath>
</defs>
</svg>
