<svg width="24" height="24" viewBox="0 0 24 24" fill="none" xmlns="http://www.w3.org/2000/svg">
<g clip-path="url(#clip0_3254_19108)">
<rect width="24" height="24" fill="white"/>
<path d="M6.82549 21C6.12549 21 5.47549 20.8333 4.87549 20.5C4.29216 20.1667 3.83382 19.7083 3.50049 19.125C3.16716 18.525 3.00049 17.875 3.00049 17.175V6.825C3.00049 6.125 3.16716 5.48333 3.50049 4.9C3.83382 4.3 4.29216 3.83333 4.87549 3.5C5.47549 3.16667 6.12549 3 6.82549 3H17.1755C17.8755 3 18.5172 3.16667 19.1005 3.5C19.7005 3.83333 20.1672 4.3 20.5005 4.9C20.8338 5.48333 21.0005 6.125 21.0005 6.825V17.175C21.0005 17.875 20.8338 18.525 20.5005 19.125C20.1672 19.7083 19.7005 20.1667 19.1005 20.5C18.5172 20.8333 17.8755 21 17.1755 21H6.82549ZM17.1755 19.6C17.8422 19.6 18.4088 19.3667 18.8755 18.9C19.3422 18.4333 19.5755 17.8583 19.5755 17.175V6.825C19.5755 6.14167 19.3422 5.56667 18.8755 5.1C18.4088 4.63333 17.8422 4.4 17.1755 4.4H6.82549C6.15882 4.4 5.59216 4.63333 5.12549 5.1C4.65882 5.56667 4.42549 6.14167 4.42549 6.825V17.175C4.42549 17.8583 4.65882 18.4333 5.12549 18.9C5.59216 19.3667 6.15882 19.6 6.82549 19.6H17.1755ZM7.95049 7.1H9.75049L13.5255 13.1C13.7088 13.4167 13.8422 13.65 13.9255 13.8C14.0255 13.95 14.1755 14.1833 14.3755 14.5C14.4255 14.5667 14.4672 14.6417 14.5005 14.725C14.5338 14.7917 14.5755 14.8583 14.6255 14.925V7.1H16.0505V16.825H14.2505L10.3505 10.6C10.2005 10.3333 10.0755 10.125 9.97549 9.975C9.89216 9.825 9.77549 9.625 9.62549 9.375C9.54216 9.225 9.45049 9.075 9.35049 8.925L9.37549 16.825H7.95049V7.1Z" fill="black"/>
</g>
<defs>
<clipPath id="clip0_3254_19108">
<rect width="24" height="24" fill="white"/>
</clipPath>
</defs>
</svg>
