<svg width="24" height="24" viewBox="0 0 24 24" fill="none" xmlns="http://www.w3.org/2000/svg">
<g clip-path="url(#clip0_3233_6321)">
<rect width="24" height="24" fill="white"/>
<path d="M6.50049 21C5.86716 21 5.27549 20.85 4.72549 20.55C4.19216 20.2333 3.76716 19.8083 3.45049 19.275C3.15049 18.725 3.00049 18.1333 3.00049 17.5V6.5C3.00049 5.85 3.15049 5.25833 3.45049 4.725C3.76716 4.19167 4.19216 3.775 4.72549 3.475C5.27549 3.15833 5.86716 3 6.50049 3H17.5005C18.1505 3 18.7422 3.15833 19.2755 3.475C19.8088 3.775 20.2255 4.19167 20.5255 4.725C20.8422 5.25833 21.0005 5.85 21.0005 6.5V17.5C21.0005 18.1333 20.8422 18.725 20.5255 19.275C20.2255 19.8083 19.8088 20.2333 19.2755 20.55C18.7422 20.85 18.1505 21 17.5005 21H6.50049ZM17.5005 20.525C18.3338 20.525 19.0422 20.2333 19.6255 19.65C20.2088 19.0667 20.5005 18.35 20.5005 17.5V6.5C20.5005 5.65 20.2088 4.93333 19.6255 4.35C19.0422 3.76667 18.3338 3.475 17.5005 3.475H6.50049C5.66716 3.475 4.95882 3.76667 4.37549 4.35C3.79216 4.93333 3.50049 5.65 3.50049 6.5V17.5C3.50049 18.35 3.79216 19.0667 4.37549 19.65C4.95882 20.2333 5.66716 20.525 6.50049 20.525H17.5005ZM8.27549 7.1H9.00049L14.3505 14.975C14.5005 15.1917 14.6088 15.35 14.6755 15.45C14.7422 15.55 14.8505 15.7083 15.0005 15.925C15.0505 15.9917 15.0838 16.05 15.1005 16.1C15.1338 16.1333 15.1755 16.1833 15.2255 16.25V7.1H15.7255V16.825H15.0255L9.52549 8.725C9.44216 8.59167 9.35049 8.45833 9.25049 8.325C9.16716 8.19167 9.07549 8.06667 8.97549 7.95C8.90882 7.85 8.84216 7.75 8.77549 7.65V16.825H8.27549V7.1Z" fill="black"/>
</g>
<defs>
<clipPath id="clip0_3233_6321">
<rect width="24" height="24" fill="white"/>
</clipPath>
</defs>
</svg>
