<svg width="24" height="24" viewBox="0 0 24 24" fill="none" xmlns="http://www.w3.org/2000/svg">
<g clip-path="url(#clip0_3234_9410)">
<rect width="24" height="24" fill="white"/>
<path d="M11.5701 0.499999H12.9701V23.5H11.5701V0.499999ZM7.32012 19.6H13.7451C15.0285 19.6 16.0201 19.2917 16.7201 18.675C17.4201 18.0583 17.7701 17.2 17.7701 16.1C17.7701 14.9667 17.3951 14.1083 16.6451 13.525C15.9118 12.925 14.9118 12.625 13.6451 12.625H7.32012V11.25H13.2951C14.5118 11.25 15.4785 10.95 16.1951 10.35C16.9118 9.73333 17.2701 8.88333 17.2701 7.8C17.2701 6.76667 16.9368 5.94167 16.2701 5.325C15.6035 4.70833 14.6785 4.4 13.4951 4.4H7.32012V3H13.4951C15.1785 3 16.4785 3.425 17.3951 4.275C18.3285 5.10833 18.7951 6.23333 18.7951 7.65C18.7951 9.15 18.2868 10.3 17.2701 11.1C16.2535 11.8833 14.8201 12.275 12.9701 12.275L13.3201 11.45C15.2201 11.45 16.6868 11.8667 17.7201 12.7C18.7701 13.5167 19.2951 14.675 19.2951 16.175C19.2951 17.6917 18.8035 18.875 17.8201 19.725C16.8368 20.575 15.4785 21 13.7451 21H7.32012V19.6ZM6.54512 3H8.04512V21H6.54512V3Z" fill="black"/>
</g>
<defs>
<clipPath id="clip0_3234_9410">
<rect width="24" height="24" fill="white"/>
</clipPath>
</defs>
</svg>
