<svg width="24" height="24" viewBox="0 0 24 24" fill="none" xmlns="http://www.w3.org/2000/svg">
<g clip-path="url(#clip0_3234_10784)">
<rect width="24" height="24" fill="white"/>
<path d="M8.825 15.625C9.625 16.525 10.6833 16.975 12 16.975C13.3167 16.975 14.375 16.5333 15.175 15.65C15.975 14.75 16.375 13.5333 16.375 12C16.375 10.4667 15.975 9.25 15.175 8.35C14.375 7.43333 13.3167 6.975 12 6.975C10.6833 6.975 9.625 7.43333 8.825 8.35C8.04167 9.25 7.65 10.4667 7.65 12C7.65 13.5167 8.04167 14.725 8.825 15.625ZM14.825 15.3C14.125 16.1 13.1833 16.5 12 16.5C10.8333 16.5 9.9 16.1 9.2 15.3C8.5 14.4833 8.15 13.3833 8.15 12C8.15 10.6 8.49167 9.49167 9.175 8.675C9.875 7.85833 10.8167 7.45 12 7.45C13.1833 7.45 14.125 7.85833 14.825 8.675C15.525 9.49167 15.875 10.6 15.875 12C15.875 13.3833 15.525 14.4833 14.825 15.3ZM17.05 20.675C15.5333 21.5583 13.85 22 12 22C10.15 22 8.45833 21.5583 6.925 20.675C5.40833 19.7917 4.20833 18.5917 3.325 17.075C2.44167 15.5417 2 13.85 2 12C2 10.15 2.44167 8.46667 3.325 6.95C4.20833 5.41667 5.40833 4.20833 6.925 3.325C8.45833 2.44167 10.15 2 12 2C13.85 2 15.5333 2.44167 17.05 3.325C18.5833 4.20833 19.7917 5.41667 20.675 6.95C21.5583 8.46667 22 10.15 22 12C22 13.85 21.5583 15.5417 20.675 17.075C19.7917 18.5917 18.5833 19.7917 17.05 20.675Z" fill="black"/>
</g>
<defs>
<clipPath id="clip0_3234_10784">
<rect width="24" height="24" fill="white"/>
</clipPath>
</defs>
</svg>
