<svg width="24" height="24" viewBox="0 0 24 24" fill="none" xmlns="http://www.w3.org/2000/svg">
<g clip-path="url(#clip0_3234_10778)">
<rect width="24" height="24" fill="white"/>
<path d="M12.0005 22C10.1672 22 8.48382 21.5583 6.95049 20.675C5.41716 19.7917 4.20882 18.5833 3.32549 17.05C2.44216 15.5167 2.00049 13.8333 2.00049 12C2.00049 10.1667 2.44216 8.48333 3.32549 6.95C4.20882 5.41667 5.41716 4.20833 6.95049 3.325C8.48382 2.44167 10.1672 2 12.0005 2C13.8338 2 15.5172 2.44167 17.0505 3.325C18.5838 4.20833 19.7922 5.41667 20.6755 6.95C21.5588 8.48333 22.0005 10.1667 22.0005 12C22.0005 13.8333 21.5588 15.5167 20.6755 17.05C19.7922 18.5833 18.5838 19.7917 17.0505 20.675C15.5172 21.5583 13.8338 22 12.0005 22ZM12.0005 19.625C13.4005 19.625 14.6755 19.2917 15.8255 18.625C16.9755 17.9417 17.8838 17.025 18.5505 15.875C19.2338 14.7083 19.5755 13.4167 19.5755 12C19.5755 10.5833 19.2338 9.3 18.5505 8.15C17.8838 6.98333 16.9755 6.06667 15.8255 5.4C14.6755 4.71667 13.4005 4.375 12.0005 4.375C10.6005 4.375 9.32549 4.71667 8.17549 5.4C7.02549 6.06667 6.10882 6.98333 5.42549 8.15C4.75882 9.3 4.42549 10.5833 4.42549 12C4.42549 13.4167 4.75882 14.7083 5.42549 15.875C6.10882 17.025 7.02549 17.9417 8.17549 18.625C9.32549 19.2917 10.6005 19.625 12.0005 19.625ZM11.9755 16.9C10.5755 16.9 9.45049 16.4583 8.60049 15.575C7.76716 14.6917 7.35049 13.5 7.35049 12C7.35049 10.5 7.76716 9.3 8.60049 8.4C9.45049 7.5 10.5755 7.05 11.9755 7.05C13.3755 7.05 14.5005 7.5 15.3505 8.4C16.2005 9.28333 16.6255 10.4833 16.6255 12C16.6255 13.5 16.2005 14.6917 15.3505 15.575C14.5005 16.4583 13.3755 16.9 11.9755 16.9ZM11.9755 14.875C12.7255 14.875 13.3005 14.6333 13.7005 14.15C14.1005 13.65 14.3005 12.9333 14.3005 12C14.3005 11.0667 14.1005 10.35 13.7005 9.85C13.3005 9.35 12.7255 9.1 11.9755 9.1C11.2255 9.1 10.6505 9.35 10.2505 9.85C9.86716 10.3333 9.67549 11.05 9.67549 12C9.67549 12.9333 9.86716 13.65 10.2505 14.15C10.6505 14.6333 11.2255 14.875 11.9755 14.875Z" fill="black"/>
</g>
<defs>
<clipPath id="clip0_3234_10778">
<rect width="24" height="24" fill="white"/>
</clipPath>
</defs>
</svg>
