<svg width="24" height="24" viewBox="0 0 24 24" fill="none" xmlns="http://www.w3.org/2000/svg">
<g clip-path="url(#clip0_3254_19140)">
<rect width="24" height="24" fill="white"/>
<path d="M7.37549 21C6.57549 21 5.84216 20.8083 5.17549 20.425C4.50882 20.025 3.97549 19.4917 3.57549 18.825C3.19216 18.1583 3.00049 17.425 3.00049 16.625V7.375C3.00049 6.575 3.19216 5.84167 3.57549 5.175C3.97549 4.50833 4.50882 3.98333 5.17549 3.6C5.84216 3.2 6.57549 3 7.37549 3H16.4255C17.2755 3 18.0505 3.2 18.7505 3.6C19.4505 3.98333 20.0005 4.50833 20.4005 5.175C20.8005 5.84167 21.0005 6.575 21.0005 7.375V16.625C21.0005 17.425 20.8005 18.1583 20.4005 18.825C20.0172 19.4917 19.4922 20.025 18.8255 20.425C18.1588 20.8083 17.4255 21 16.6255 21H7.37549ZM16.6255 18.05C17.0088 18.05 17.3338 17.9167 17.6005 17.65C17.8672 17.3667 18.0005 17.025 18.0005 16.625V7.375C18.0005 6.975 17.8672 6.64167 17.6005 6.375C17.3338 6.09167 17.0088 5.95 16.6255 5.95H7.37549C6.99216 5.95 6.65882 6.09167 6.37549 6.375C6.10882 6.64167 5.97549 6.975 5.97549 7.375V16.625C5.97549 17.025 6.10882 17.3667 6.37549 17.65C6.65882 17.9167 6.99216 18.05 7.37549 18.05H16.6255ZM11.9755 16.85C10.5922 16.85 9.47549 16.4167 8.62549 15.55C7.79216 14.6667 7.37549 13.4833 7.37549 12C7.37549 10.5 7.79216 9.30833 8.62549 8.425C9.45882 7.54167 10.5755 7.1 11.9755 7.1C13.3755 7.1 14.5005 7.54167 15.3505 8.425C16.2005 9.30833 16.6255 10.5 16.6255 12C16.6255 13.4833 16.2005 14.6667 15.3505 15.55C14.5005 16.4167 13.3755 16.85 11.9755 16.85ZM11.9755 14.475C12.6088 14.475 13.0838 14.275 13.4005 13.875C13.7338 13.4583 13.9005 12.8333 13.9005 12C13.9005 11.1333 13.7338 10.4917 13.4005 10.075C13.0838 9.65833 12.6172 9.45 12.0005 9.45C11.3672 9.45 10.8922 9.66667 10.5755 10.1C10.2588 10.5167 10.1005 11.15 10.1005 12C10.1005 12.8333 10.2505 13.4583 10.5505 13.875C10.8672 14.275 11.3422 14.475 11.9755 14.475Z" fill="black"/>
</g>
<defs>
<clipPath id="clip0_3254_19140">
<rect width="24" height="24" fill="white"/>
</clipPath>
</defs>
</svg>
