<svg width="24" height="24" viewBox="0 0 24 24" fill="none" xmlns="http://www.w3.org/2000/svg">
<g clip-path="url(#clip0_3254_19138)">
<rect width="24" height="24" fill="white"/>
<path d="M7.20049 21C6.43382 21 5.72549 20.8167 5.07549 20.45C4.42549 20.0833 3.91716 19.575 3.55049 18.925C3.18382 18.275 3.00049 17.5667 3.00049 16.8V7.2C3.00049 6.43333 3.18382 5.725 3.55049 5.075C3.91716 4.425 4.42549 3.91667 5.07549 3.55C5.72549 3.18333 6.43382 3 7.20049 3H16.7255C17.5088 3 18.2255 3.18333 18.8755 3.55C19.5422 3.91667 20.0588 4.425 20.4255 5.075C20.8088 5.725 21.0005 6.43333 21.0005 7.2V16.8C21.0005 17.5667 20.8172 18.275 20.4505 18.925C20.0838 19.575 19.5755 20.0833 18.9255 20.45C18.2755 20.8167 17.5672 21 16.8005 21H7.20049ZM16.8005 18.6C17.2838 18.6 17.6922 18.425 18.0255 18.075C18.3755 17.725 18.5505 17.3 18.5505 16.8V7.175C18.5505 6.675 18.3755 6.25833 18.0255 5.925C17.6922 5.575 17.2838 5.4 16.8005 5.4H7.20049C6.71716 5.4 6.30049 5.575 5.95049 5.925C5.61716 6.275 5.45049 6.7 5.45049 7.2V16.8C5.45049 17.3 5.61716 17.725 5.95049 18.075C6.30049 18.425 6.71716 18.6 7.20049 18.6H16.8005ZM12.0005 16.9C10.5838 16.9 9.45049 16.4667 8.60049 15.6C7.76716 14.7167 7.35049 13.5167 7.35049 12C7.35049 10.4833 7.77549 9.28333 8.62549 8.4C9.47549 7.5 10.6005 7.05 12.0005 7.05C13.4005 7.05 14.5255 7.5 15.3755 8.4C16.2255 9.28333 16.6505 10.4833 16.6505 12C16.6505 13.5167 16.2255 14.7167 15.3755 15.6C14.5255 16.4667 13.4005 16.9 12.0005 16.9ZM12.0005 14.9C12.7505 14.9 13.3255 14.6583 13.7255 14.175C14.1255 13.675 14.3255 12.95 14.3255 12C14.3255 11.05 14.1255 10.325 13.7255 9.825C13.3255 9.30833 12.7505 9.05 12.0005 9.05C11.2505 9.05 10.6755 9.3 10.2755 9.8C9.87549 10.3 9.67549 11.0333 9.67549 12C9.67549 12.9333 9.87549 13.65 10.2755 14.15C10.6755 14.65 11.2505 14.9 12.0005 14.9Z" fill="black"/>
</g>
<defs>
<clipPath id="clip0_3254_19138">
<rect width="24" height="24" fill="white"/>
</clipPath>
</defs>
</svg>
