<svg width="24" height="24" viewBox="0 0 24 24" fill="none" xmlns="http://www.w3.org/2000/svg">
<g clip-path="url(#clip0_3254_19146)">
<rect width="24" height="24" fill="white"/>
<path d="M8.75 15.625C9.56667 16.525 10.65 16.975 12 16.975C13.35 16.975 14.4333 16.5333 15.25 15.65C16.0667 14.75 16.475 13.5333 16.475 12C16.475 10.4667 16.0667 9.25 15.25 8.35C14.4333 7.43333 13.35 6.975 12 6.975C10.65 6.975 9.56667 7.43333 8.75 8.35C7.95 9.25 7.55 10.4667 7.55 12C7.55 13.5167 7.95 14.725 8.75 15.625ZM14.55 15C13.9333 15.7333 13.0833 16.1 12 16.1C10.9333 16.1 10.0833 15.7333 9.45 15C8.83333 14.2667 8.525 13.2667 8.525 12C8.525 10.7167 8.83333 9.70833 9.45 8.975C10.0667 8.225 10.9167 7.85 12 7.85C13.0833 7.85 13.9333 8.225 14.55 8.975C15.1833 9.70833 15.5 10.7167 15.5 12C15.5 13.2667 15.1833 14.2667 14.55 15ZM19.25 20.55C18.7167 20.85 18.1333 21 17.5 21H6.5C5.86667 21 5.275 20.85 4.725 20.55C4.19167 20.2333 3.76667 19.8083 3.45 19.275C3.15 18.725 3 18.1333 3 17.5V6.5C3 5.86667 3.15 5.28333 3.45 4.75C3.76667 4.2 4.19167 3.775 4.725 3.475C5.275 3.15833 5.86667 3 6.5 3H17.5C18.1333 3 18.7167 3.15833 19.25 3.475C19.8 3.775 20.225 4.2 20.525 4.75C20.8417 5.28333 21 5.86667 21 6.5V17.5C21 18.1333 20.8417 18.725 20.525 19.275C20.225 19.8083 19.8 20.2333 19.25 20.55Z" fill="black"/>
</g>
<defs>
<clipPath id="clip0_3254_19146">
<rect width="24" height="24" fill="white"/>
</clipPath>
</defs>
</svg>
