<svg width="24" height="24" viewBox="0 0 24 24" fill="none" xmlns="http://www.w3.org/2000/svg">
<g clip-path="url(#clip0_3254_19142)">
<rect width="24" height="24" fill="white"/>
<path d="M7.50049 21C6.66716 21 5.90882 20.8 5.22549 20.4C4.54216 20 4.00049 19.4583 3.60049 18.775C3.20049 18.0917 3.00049 17.3333 3.00049 16.5V7.5C3.00049 6.66667 3.20049 5.90833 3.60049 5.225C4.00049 4.54167 4.54216 4 5.22549 3.6C5.90882 3.2 6.66716 3 7.50049 3H16.2505C17.1172 3 17.9088 3.2 18.6255 3.6C19.3588 4 19.9338 4.54167 20.3505 5.225C20.7838 5.90833 21.0005 6.66667 21.0005 7.5V16.5C21.0005 17.3333 20.8005 18.0917 20.4005 18.775C20.0005 19.4583 19.4588 20 18.7755 20.4C18.0922 20.8 17.3338 21 16.5005 21H7.50049ZM16.5005 17.6C16.8005 17.6 17.0505 17.5 17.2505 17.3C17.4505 17.0833 17.5505 16.8167 17.5505 16.5V7.475C17.5505 7.175 17.4505 6.925 17.2505 6.725C17.0505 6.50833 16.8005 6.4 16.5005 6.4H7.50049C7.20049 6.4 6.95049 6.50833 6.75049 6.725C6.55049 6.925 6.45049 7.18333 6.45049 7.5V16.5C6.45049 16.8167 6.55049 17.0833 6.75049 17.3C6.95049 17.5 7.20049 17.6 7.50049 17.6H16.5005ZM11.9755 16.725C10.5922 16.725 9.47549 16.3 8.62549 15.45C7.79216 14.6 7.37549 13.45 7.37549 12C7.37549 10.55 7.79216 9.39167 8.62549 8.525C9.45882 7.65833 10.5755 7.225 11.9755 7.225C13.3588 7.225 14.4755 7.65833 15.3255 8.525C16.1755 9.375 16.6005 10.5333 16.6005 12C16.6005 13.45 16.1755 14.6 15.3255 15.45C14.4755 16.3 13.3588 16.725 11.9755 16.725ZM11.9755 14C12.4755 14 12.8422 13.8417 13.0755 13.525C13.3255 13.2083 13.4505 12.7 13.4505 12C13.4505 11.2833 13.3255 10.7583 13.0755 10.425C12.8422 10.0917 12.4755 9.925 11.9755 9.925C11.4755 9.925 11.1088 10.0917 10.8755 10.425C10.6422 10.7583 10.5255 11.2833 10.5255 12C10.5255 12.7 10.6338 13.2083 10.8505 13.525C11.0672 13.8417 11.4422 14 11.9755 14Z" fill="black"/>
</g>
<defs>
<clipPath id="clip0_3254_19142">
<rect width="24" height="24" fill="white"/>
</clipPath>
</defs>
</svg>
