<svg width="24" height="24" viewBox="0 0 24 24" fill="none" xmlns="http://www.w3.org/2000/svg">
<g clip-path="url(#clip0_3254_19148)">
<rect width="24" height="24" fill="white"/>
<path d="M8.675 15.65C9.50833 16.5333 10.6167 16.975 12 16.975C13.3833 16.975 14.4917 16.5333 15.325 15.65C16.1583 14.75 16.575 13.5333 16.575 12C16.575 10.4667 16.1583 9.25 15.325 8.35C14.4917 7.43333 13.3833 6.975 12 6.975C10.6333 6.975 9.53333 7.43333 8.7 8.35C7.86667 9.25 7.45 10.4667 7.45 12C7.45 13.5333 7.85833 14.75 8.675 15.65ZM14.275 14.725C13.725 15.375 12.9667 15.7 12 15.7C11.0333 15.7 10.275 15.375 9.725 14.725C9.175 14.075 8.9 13.1667 8.9 12C8.9 10.8167 9.175 9.9 9.725 9.25C10.275 8.6 11.0333 8.275 12 8.275C12.9667 8.275 13.725 8.60833 14.275 9.275C14.8417 9.925 15.125 10.8333 15.125 12C15.125 13.1667 14.8417 14.075 14.275 14.725ZM19.25 20.55C18.7167 20.85 18.1333 21 17.5 21H6.5C5.86667 21 5.275 20.85 4.725 20.55C4.19167 20.2333 3.76667 19.8083 3.45 19.275C3.15 18.725 3 18.1333 3 17.5V6.5C3 5.86667 3.15 5.28333 3.45 4.75C3.76667 4.2 4.19167 3.775 4.725 3.475C5.275 3.15833 5.86667 3 6.5 3H17.5C18.1333 3 18.7167 3.15833 19.25 3.475C19.8 3.775 20.225 4.2 20.525 4.75C20.8417 5.28333 21 5.86667 21 6.5V17.5C21 18.1333 20.8417 18.725 20.525 19.275C20.225 19.8083 19.8 20.2333 19.25 20.55Z" fill="black"/>
</g>
<defs>
<clipPath id="clip0_3254_19148">
<rect width="24" height="24" fill="white"/>
</clipPath>
</defs>
</svg>
