<svg width="24" height="24" viewBox="0 0 24 24" fill="none" xmlns="http://www.w3.org/2000/svg">
<g clip-path="url(#clip0_3254_19140)">
<rect width="24" height="24" fill="white"/>
<path d="M7.32549 21C6.52549 21 5.79216 20.8083 5.12549 20.425C4.47549 20.0417 3.95882 19.525 3.57549 18.875C3.19216 18.2083 3.00049 17.475 3.00049 16.675V7.325C3.00049 6.525 3.19216 5.8 3.57549 5.15C3.95882 4.48333 4.47549 3.95833 5.12549 3.575C5.79216 3.19167 6.52549 3 7.32549 3H16.5005C17.3172 3 18.0672 3.19167 18.7505 3.575C19.4505 3.95833 20.0005 4.48333 20.4005 5.15C20.8005 5.8 21.0005 6.525 21.0005 7.325V16.675C21.0005 17.475 20.8088 18.2083 20.4255 18.875C20.0422 19.525 19.5172 20.0417 18.8505 20.425C18.2005 20.8083 17.4755 21 16.6755 21H7.32549ZM16.6755 18.125C17.0588 18.125 17.3838 17.9833 17.6505 17.7C17.9338 17.4167 18.0755 17.075 18.0755 16.675V7.325C18.0755 6.925 17.9338 6.58333 17.6505 6.3C17.3838 6.01667 17.0588 5.875 16.6755 5.875H7.32549C6.94216 5.875 6.60882 6.01667 6.32549 6.3C6.05882 6.58333 5.92549 6.925 5.92549 7.325V16.675C5.92549 17.075 6.05882 17.4167 6.32549 17.7C6.60882 17.9833 6.94216 18.125 7.32549 18.125H16.6755ZM11.9755 16.8C10.5922 16.8 9.47549 16.375 8.62549 15.525C7.79216 14.6583 7.37549 13.4833 7.37549 12C7.37549 10.5167 7.79216 9.34167 8.62549 8.475C9.45882 7.59167 10.5755 7.15 11.9755 7.15C13.3755 7.15 14.5005 7.59167 15.3505 8.475C16.2005 9.34167 16.6255 10.5167 16.6255 12C16.6255 13.4833 16.2005 14.6583 15.3505 15.525C14.5005 16.375 13.3755 16.8 11.9755 16.8ZM11.9755 14.425C12.6088 14.425 13.0838 14.225 13.4005 13.825C13.7172 13.425 13.8755 12.8167 13.8755 12C13.8755 11.1667 13.7172 10.5417 13.4005 10.125C13.0838 9.70833 12.6088 9.5 11.9755 9.5C11.3588 9.5 10.8922 9.70833 10.5755 10.125C10.2588 10.5417 10.1005 11.1667 10.1005 12C10.1005 12.8167 10.2505 13.425 10.5505 13.825C10.8672 14.225 11.3422 14.425 11.9755 14.425Z" fill="black"/>
</g>
<defs>
<clipPath id="clip0_3254_19140">
<rect width="24" height="24" fill="white"/>
</clipPath>
</defs>
</svg>
