<svg width="24" height="24" viewBox="0 0 24 24" fill="none" xmlns="http://www.w3.org/2000/svg">
<g clip-path="url(#clip0_3254_19160)">
<rect width="24" height="24" fill="white"/>
<path d="M6.82549 21C6.12549 21 5.47549 20.8333 4.87549 20.5C4.29216 20.1667 3.83382 19.7083 3.50049 19.125C3.16716 18.525 3.00049 17.875 3.00049 17.175V6.825C3.00049 6.125 3.16716 5.48333 3.50049 4.9C3.83382 4.3 4.29216 3.83333 4.87549 3.5C5.47549 3.16667 6.12549 3 6.82549 3H17.1755C17.8755 3 18.5172 3.16667 19.1005 3.5C19.7005 3.83333 20.1672 4.3 20.5005 4.9C20.8338 5.48333 21.0005 6.125 21.0005 6.825V17.175C21.0005 17.875 20.8338 18.525 20.5005 19.125C20.1672 19.7083 19.7005 20.1667 19.1005 20.5C18.5172 20.8333 17.8755 21 17.1755 21H6.82549ZM17.1755 19.6C17.8422 19.6 18.4088 19.3667 18.8755 18.9C19.3422 18.4333 19.5755 17.8583 19.5755 17.175V6.825C19.5755 6.14167 19.3422 5.56667 18.8755 5.1C18.4088 4.63333 17.8422 4.4 17.1755 4.4H6.82549C6.15882 4.4 5.59216 4.63333 5.12549 5.1C4.65882 5.56667 4.42549 6.14167 4.42549 6.825V17.175C4.42549 17.8583 4.65882 18.4333 5.12549 18.9C5.59216 19.3667 6.15882 19.6 6.82549 19.6H17.1755ZM10.1505 8.45V12.275H12.5005C13.1505 12.275 13.6505 12.1083 14.0005 11.775C14.3505 11.4417 14.5255 10.975 14.5255 10.375C14.5255 9.74167 14.3505 9.26667 14.0005 8.95C13.6672 8.61667 13.1672 8.45 12.5005 8.45H10.1505ZM8.70049 7.15H12.5505C13.6338 7.15 14.4755 7.44167 15.0755 8.025C15.6755 8.59167 15.9755 9.36667 15.9755 10.35C15.9755 11.3333 15.6755 12.1167 15.0755 12.7C14.4755 13.2667 13.6338 13.55 12.5505 13.55H10.1505V16.875H8.70049V7.15Z" fill="black"/>
</g>
<defs>
<clipPath id="clip0_3254_19160">
<rect width="24" height="24" fill="white"/>
</clipPath>
</defs>
</svg>
