<svg width="24" height="24" viewBox="0 0 24 24" fill="none" xmlns="http://www.w3.org/2000/svg">
<g clip-path="url(#clip0_3254_19166)">
<rect width="24" height="24" fill="white"/>
<path d="M7.32549 21C6.52549 21 5.79216 20.8083 5.12549 20.425C4.47549 20.0417 3.95882 19.525 3.57549 18.875C3.19216 18.2083 3.00049 17.475 3.00049 16.675V7.325C3.00049 6.525 3.19216 5.8 3.57549 5.15C3.95882 4.48333 4.47549 3.95833 5.12549 3.575C5.79216 3.19167 6.52549 3 7.32549 3H16.5005C17.3172 3 18.0672 3.19167 18.7505 3.575C19.4505 3.95833 20.0005 4.48333 20.4005 5.15C20.8005 5.8 21.0005 6.525 21.0005 7.325V16.675C21.0005 17.475 20.8088 18.2083 20.4255 18.875C20.0422 19.525 19.5172 20.0417 18.8505 20.425C18.2005 20.8083 17.4755 21 16.6755 21H7.32549ZM16.6755 18.125C17.0588 18.125 17.3838 17.9833 17.6505 17.7C17.9338 17.4167 18.0755 17.075 18.0755 16.675V7.325C18.0755 6.925 17.9338 6.58333 17.6505 6.3C17.3838 6.01667 17.0588 5.875 16.6755 5.875H7.32549C6.94216 5.875 6.60882 6.01667 6.32549 6.3C6.05882 6.58333 5.92549 6.925 5.92549 7.325V16.675C5.92549 17.075 6.05882 17.4167 6.32549 17.7C6.60882 17.9833 6.94216 18.125 7.32549 18.125H16.6755ZM11.1005 9.675V11.825H12.4005C12.7172 11.825 12.9672 11.7333 13.1505 11.55C13.3505 11.35 13.4505 11.0833 13.4505 10.75C13.4505 10.4167 13.3588 10.1583 13.1755 9.975C12.9922 9.775 12.7338 9.675 12.4005 9.675H11.1005ZM8.40049 7.275H12.5505C13.7172 7.275 14.6255 7.59167 15.2755 8.225C15.9255 8.85833 16.2505 9.69167 16.2505 10.725C16.2505 11.775 15.9255 12.6167 15.2755 13.25C14.6255 13.8667 13.7172 14.175 12.5505 14.175H11.1005V16.7H8.40049V7.275Z" fill="black"/>
</g>
<defs>
<clipPath id="clip0_3254_19166">
<rect width="24" height="24" fill="white"/>
</clipPath>
</defs>
</svg>
