<svg width="24" height="24" viewBox="0 0 24 24" fill="none" xmlns="http://www.w3.org/2000/svg">
<g clip-path="url(#clip0_3254_19182)">
<rect width="24" height="24" fill="white"/>
<path d="M11.45 9.85H12.55C12.7833 9.85 12.9667 9.93333 13.1 10.1C13.2333 10.25 13.3 10.4667 13.3 10.75C13.3 11.0167 13.225 11.2333 13.075 11.4C12.9417 11.55 12.7583 11.625 12.525 11.625H11.45V9.85ZM8.05 6.85V17.05H11.45V14.55H12.725C14.025 14.55 15.0417 14.2 15.775 13.5C16.525 12.8 16.9 11.875 16.9 10.725C16.9 9.55833 16.5333 8.625 15.8 7.925C15.0667 7.20833 14.0417 6.85 12.725 6.85H8.05ZM19.25 20.55C18.7167 20.85 18.1333 21 17.5 21H6.5C5.86667 21 5.275 20.85 4.725 20.55C4.19167 20.2333 3.76667 19.8083 3.45 19.275C3.15 18.725 3 18.1333 3 17.5V6.5C3 5.86667 3.15 5.28333 3.45 4.75C3.76667 4.2 4.19167 3.775 4.725 3.475C5.275 3.15833 5.86667 3 6.5 3H17.5C18.1333 3 18.7167 3.15833 19.25 3.475C19.8 3.775 20.225 4.2 20.525 4.75C20.8417 5.28333 21 5.86667 21 6.5V17.5C21 18.1333 20.8417 18.725 20.525 19.275C20.225 19.8083 19.8 20.2333 19.25 20.55Z" fill="black"/>
</g>
<defs>
<clipPath id="clip0_3254_19182">
<rect width="24" height="24" fill="white"/>
</clipPath>
</defs>
</svg>
