<svg width="24" height="24" viewBox="0 0 24 24" fill="none" xmlns="http://www.w3.org/2000/svg">
<g clip-path="url(#clip0_3234_11744)">
<rect width="24" height="24" fill="white"/>
<path d="M7.50049 21C6.66716 21 5.90882 20.8 5.22549 20.4C4.54216 20 4.00049 19.4583 3.60049 18.775C3.20049 18.0917 3.00049 17.3333 3.00049 16.5V7.5C3.00049 6.66667 3.20049 5.90833 3.60049 5.225C4.00049 4.54167 4.54216 4 5.22549 3.6C5.90882 3.2 6.66716 3 7.50049 3H16.2505C17.1172 3 17.9088 3.2 18.6255 3.6C19.3588 4 19.9338 4.54167 20.3505 5.225C20.7838 5.90833 21.0005 6.66667 21.0005 7.5V16.5C21.0005 17.3333 20.8005 18.0917 20.4005 18.775C20.0005 19.4583 19.4588 20 18.7755 20.4C18.0922 20.8 17.3338 21 16.5005 21H7.50049ZM16.5005 17.6C16.8005 17.6 17.0505 17.5 17.2505 17.3C17.4505 17.0833 17.5505 16.8167 17.5505 16.5V7.475C17.5505 7.175 17.4505 6.925 17.2505 6.725C17.0505 6.50833 16.8005 6.4 16.5005 6.4H7.50049C7.20049 6.4 6.95049 6.50833 6.75049 6.725C6.55049 6.925 6.45049 7.18333 6.45049 7.5V16.5C6.45049 16.8167 6.55049 17.0833 6.75049 17.3C6.95049 17.5 7.20049 17.6 7.50049 17.6H16.5005ZM11.4005 10.1V11.7H12.3505C12.5672 11.7 12.7422 11.625 12.8755 11.475C13.0088 11.325 13.0755 11.1333 13.0755 10.9C13.0755 10.65 13.0088 10.4583 12.8755 10.325C12.7588 10.175 12.5922 10.1 12.3755 10.1H11.4005ZM8.30049 7.35H12.5505C13.7338 7.35 14.6588 7.675 15.3255 8.325C15.9922 8.975 16.3255 9.825 16.3255 10.875C16.3255 11.925 15.9922 12.775 15.3255 13.425C14.6588 14.0583 13.7338 14.375 12.5505 14.375H11.4005V16.625H8.30049V7.35Z" fill="black"/>
</g>
<defs>
<clipPath id="clip0_3234_11744">
<rect width="24" height="24" fill="white"/>
</clipPath>
</defs>
</svg>
