<svg width="24" height="24" viewBox="0 0 24 24" fill="none" xmlns="http://www.w3.org/2000/svg">
<g clip-path="url(#clip0_3234_10331)">
<rect width="24" height="24" fill="white"/>
<path d="M16.5451 3H19.7201L8.42012 21H5.27012L16.5451 3ZM6.67012 11.15C5.85345 11.15 5.11178 10.9667 4.44512 10.6C3.79512 10.2333 3.27845 9.725 2.89512 9.075C2.52845 8.425 2.34512 7.7 2.34512 6.9C2.34512 6.11667 2.52845 5.4 2.89512 4.75C3.27845 4.1 3.79512 3.59167 4.44512 3.225C5.11178 2.85833 5.85345 2.675 6.67012 2.675C7.47012 2.675 8.20345 2.85833 8.87012 3.225C9.53678 3.59167 10.0535 4.1 10.4201 4.75C10.8035 5.38333 10.9951 6.1 10.9951 6.9C10.9951 7.7 10.8035 8.425 10.4201 9.075C10.0535 9.725 9.53678 10.2333 8.87012 10.6C8.20345 10.9667 7.47012 11.15 6.67012 11.15ZM6.67012 8.825C7.23678 8.825 7.68678 8.65 8.02012 8.3C8.37012 7.93333 8.54512 7.46667 8.54512 6.9C8.54512 6.33333 8.37012 5.875 8.02012 5.525C7.68678 5.175 7.23678 5 6.67012 5C6.10345 5 5.64512 5.175 5.29512 5.525C4.94512 5.875 4.77012 6.33333 4.77012 6.9C4.77012 7.48333 4.94512 7.95 5.29512 8.3C5.64512 8.65 6.10345 8.825 6.67012 8.825ZM18.3201 21.325C17.5201 21.325 16.7868 21.1417 16.1201 20.775C15.4535 20.4083 14.9285 19.9083 14.5451 19.275C14.1785 18.625 13.9951 17.9 13.9951 17.1C13.9951 16.3 14.1785 15.575 14.5451 14.925C14.9285 14.275 15.4535 13.7667 16.1201 13.4C16.7868 13.0333 17.5201 12.85 18.3201 12.85C19.1368 12.85 19.8701 13.0333 20.5201 13.4C21.1868 13.7667 21.7035 14.275 22.0701 14.925C22.4535 15.575 22.6451 16.3 22.6451 17.1C22.6451 17.8833 22.4535 18.6 22.0701 19.25C21.7035 19.9 21.1868 20.4083 20.5201 20.775C19.8701 21.1417 19.1368 21.325 18.3201 21.325ZM18.3201 19C18.8868 19 19.3451 18.825 19.6951 18.475C20.0451 18.125 20.2201 17.6667 20.2201 17.1C20.2201 16.5167 20.0451 16.05 19.6951 15.7C19.3451 15.35 18.8868 15.175 18.3201 15.175C17.7701 15.175 17.3201 15.3583 16.9701 15.725C16.6201 16.075 16.4451 16.5333 16.4451 17.1C16.4451 17.6667 16.6201 18.125 16.9701 18.475C17.3201 18.825 17.7701 19 18.3201 19Z" fill="black"/>
</g>
<defs>
<clipPath id="clip0_3234_10331">
<rect width="24" height="24" fill="white"/>
</clipPath>
</defs>
</svg>
