<svg width="24" height="24" viewBox="0 0 24 24" fill="none" xmlns="http://www.w3.org/2000/svg">
<g clip-path="url(#clip0_3234_10824)">
<rect width="24" height="24" fill="white"/>
<path d="M12.0005 22C10.1672 22 8.48382 21.5583 6.95049 20.675C5.41716 19.7917 4.20882 18.5833 3.32549 17.05C2.44216 15.5167 2.00049 13.8333 2.00049 12C2.00049 10.1667 2.44216 8.48333 3.32549 6.95C4.20882 5.41667 5.41716 4.20833 6.95049 3.325C8.48382 2.44167 10.1672 2 12.0005 2C13.8338 2 15.5172 2.44167 17.0505 3.325C18.5838 4.20833 19.7922 5.41667 20.6755 6.95C21.5588 8.48333 22.0005 10.1667 22.0005 12C22.0005 13.8333 21.5588 15.5167 20.6755 17.05C19.7922 18.5833 18.5838 19.7917 17.0505 20.675C15.5172 21.5583 13.8338 22 12.0005 22ZM12.0005 21.075C13.6672 21.075 15.1838 20.675 16.5505 19.875C17.9338 19.075 19.0255 17.9833 19.8255 16.6C20.6255 15.2 21.0255 13.6667 21.0255 12C21.0255 10.3333 20.6255 8.80833 19.8255 7.425C19.0255 6.025 17.9338 4.925 16.5505 4.125C15.1838 3.325 13.6672 2.925 12.0005 2.925C10.3338 2.925 8.80882 3.325 7.42549 4.125C6.05882 4.925 4.97549 6.025 4.17549 7.425C3.37549 8.80833 2.97549 10.3333 2.97549 12C2.97549 13.6667 3.37549 15.2 4.17549 16.6C4.97549 17.9833 6.05882 19.075 7.42549 19.875C8.80882 20.675 10.3338 21.075 12.0005 21.075ZM11.4505 13.05H12.3755L15.2755 17.5H14.3255L11.4505 13.05ZM11.8755 16.45C10.6088 16.45 9.58382 16.025 8.80049 15.175C8.03382 14.3083 7.65049 13.15 7.65049 11.7C7.65049 10.2333 8.03382 9.075 8.80049 8.225C9.58382 7.35833 10.6088 6.925 11.8755 6.925C13.1422 6.925 14.1672 7.35833 14.9505 8.225C15.7338 9.09167 16.1255 10.25 16.1255 11.7C16.1255 13.15 15.7338 14.3083 14.9505 15.175C14.1672 16.025 13.1422 16.45 11.8755 16.45ZM11.8755 15.625C12.5422 15.625 13.1255 15.475 13.6255 15.175C14.1422 14.8583 14.5338 14.4 14.8005 13.8C15.0672 13.2 15.2005 12.5 15.2005 11.7C15.2005 10.4833 14.9005 9.525 14.3005 8.825C13.7005 8.10833 12.8922 7.75 11.8755 7.75C10.8588 7.75 10.0505 8.1 9.45049 8.8C8.86716 9.5 8.57549 10.4667 8.57549 11.7C8.57549 12.9167 8.86716 13.875 9.45049 14.575C10.0505 15.275 10.8588 15.625 11.8755 15.625Z" fill="black"/>
</g>
<defs>
<clipPath id="clip0_3234_10824">
<rect width="24" height="24" fill="white"/>
</clipPath>
</defs>
</svg>
