<svg width="24" height="24" viewBox="0 0 24 24" fill="none" xmlns="http://www.w3.org/2000/svg">
<g clip-path="url(#clip0_3231_373)">
<rect width="24" height="24" fill="white"/>
<path d="M12.0005 22C10.1672 22 8.48382 21.5583 6.95049 20.675C5.41716 19.7917 4.20882 18.5833 3.32549 17.05C2.44216 15.5167 2.00049 13.8333 2.00049 12C2.00049 10.1667 2.44216 8.48333 3.32549 6.95C4.20882 5.41667 5.41716 4.20833 6.95049 3.325C8.48382 2.44167 10.1672 2 12.0005 2C13.8338 2 15.5172 2.44167 17.0505 3.325C18.5838 4.20833 19.7922 5.41667 20.6755 6.95C21.5588 8.48333 22.0005 10.1667 22.0005 12C22.0005 13.8333 21.5588 15.5167 20.6755 17.05C19.7922 18.5833 18.5838 19.7917 17.0505 20.675C15.5172 21.5583 13.8338 22 12.0005 22ZM12.0005 21.525C13.7505 21.525 15.3505 21.1083 16.8005 20.275C18.2505 19.425 19.3922 18.275 20.2255 16.825C21.0755 15.3583 21.5005 13.75 21.5005 12C21.5005 10.25 21.0755 8.65 20.2255 7.2C19.3922 5.73333 18.2505 4.58333 16.8005 3.75C15.3505 2.9 13.7505 2.475 12.0005 2.475C10.2505 2.475 8.65049 2.9 7.20049 3.75C5.75049 4.58333 4.60049 5.73333 3.75049 7.2C2.91716 8.65 2.50049 10.25 2.50049 12C2.50049 13.75 2.91716 15.3583 3.75049 16.825C4.60049 18.275 5.75049 19.425 7.20049 20.275C8.65049 21.1083 10.2505 21.525 12.0005 21.525ZM11.7005 13.275H12.2255L15.1005 17.5H14.5755L11.7005 13.275ZM11.8755 16.45C10.6255 16.45 9.62549 16.025 8.87549 15.175C8.12549 14.3083 7.75049 13.15 7.75049 11.7C7.75049 10.2333 8.12549 9.075 8.87549 8.225C9.62549 7.35833 10.6255 6.925 11.8755 6.925C13.1255 6.925 14.1255 7.35833 14.8755 8.225C15.6422 9.09167 16.0255 10.25 16.0255 11.7C16.0255 13.15 15.6422 14.3083 14.8755 15.175C14.1255 16.025 13.1255 16.45 11.8755 16.45ZM11.8755 16.025C12.6088 16.025 13.2505 15.85 13.8005 15.5C14.3672 15.15 14.8005 14.65 15.1005 14C15.4005 13.3333 15.5505 12.5667 15.5505 11.7C15.5505 10.3833 15.2172 9.33333 14.5505 8.55C13.8838 7.75 12.9922 7.35 11.8755 7.35C10.7588 7.35 9.86716 7.74167 9.20049 8.525C8.55049 9.30833 8.22549 10.3583 8.22549 11.675C8.22549 13.0083 8.55882 14.0667 9.22549 14.85C9.89216 15.6333 10.7755 16.025 11.8755 16.025Z" fill="black"/>
</g>
<defs>
<clipPath id="clip0_3231_373">
<rect width="24" height="24" fill="white"/>
</clipPath>
</defs>
</svg>
