<svg width="24" height="24" viewBox="0 0 24 24" fill="none" xmlns="http://www.w3.org/2000/svg">
<g clip-path="url(#clip0_3254_18254)">
<rect width="24" height="24" fill="white"/>
<path d="M12.0005 22C10.1672 22 8.48382 21.5583 6.95049 20.675C5.41716 19.7917 4.20882 18.5833 3.32549 17.05C2.44216 15.5167 2.00049 13.8333 2.00049 12C2.00049 10.1667 2.44216 8.48333 3.32549 6.95C4.20882 5.41667 5.41716 4.20833 6.95049 3.325C8.48382 2.44167 10.1672 2 12.0005 2C13.8338 2 15.5172 2.44167 17.0505 3.325C18.5838 4.20833 19.7922 5.41667 20.6755 6.95C21.5588 8.48333 22.0005 10.1667 22.0005 12C22.0005 13.8333 21.5588 15.5167 20.6755 17.05C19.7922 18.5833 18.5838 19.7917 17.0505 20.675C15.5172 21.5583 13.8338 22 12.0005 22ZM12.0005 19.575C13.4005 19.575 14.6672 19.2417 15.8005 18.575C16.9505 17.9083 17.8588 17 18.5255 15.85C19.1922 14.6833 19.5255 13.4 19.5255 12C19.5255 10.6 19.1922 9.325 18.5255 8.175C17.8588 7.00833 16.9505 6.09167 15.8005 5.425C14.6672 4.75833 13.4005 4.425 12.0005 4.425C10.6005 4.425 9.32549 4.75833 8.17549 5.425C7.04216 6.09167 6.14216 7.00833 5.47549 8.175C4.80882 9.325 4.47549 10.6 4.47549 12C4.47549 13.4 4.80882 14.6833 5.47549 15.85C6.14216 17 7.04216 17.9083 8.17549 18.575C9.32549 19.2417 10.6005 19.575 12.0005 19.575ZM10.9005 12.5H12.9005L15.8005 17.3H13.8005L10.9005 12.5ZM11.9005 16.525C10.5338 16.525 9.43382 16.1 8.60049 15.25C7.78382 14.3833 7.37549 13.2167 7.37549 11.75C7.37549 10.2667 7.78382 9.1 8.60049 8.25C9.43382 7.38333 10.5338 6.95 11.9005 6.95C13.2672 6.95 14.3588 7.38333 15.1755 8.25C16.0088 9.11667 16.4255 10.2833 16.4255 11.75C16.4255 13.2167 16.0088 14.3833 15.1755 15.25C14.3588 16.1 13.2672 16.525 11.9005 16.525ZM11.9005 14.625C12.4338 14.625 12.8672 14.525 13.2005 14.325C13.5505 14.1083 13.8088 13.7917 13.9755 13.375C14.1588 12.9417 14.2505 12.4 14.2505 11.75C14.2505 10.8167 14.0422 10.1083 13.6255 9.625C13.2255 9.125 12.6505 8.875 11.9005 8.875C11.1338 8.875 10.5505 9.125 10.1505 9.625C9.76716 10.1083 9.57549 10.8167 9.57549 11.75C9.57549 12.6833 9.76716 13.4 10.1505 13.9C10.5505 14.3833 11.1338 14.625 11.9005 14.625Z" fill="black"/>
</g>
<defs>
<clipPath id="clip0_3254_18254">
<rect width="24" height="24" fill="white"/>
</clipPath>
</defs>
</svg>
