<svg width="24" height="24" viewBox="0 0 24 24" fill="none" xmlns="http://www.w3.org/2000/svg">
<g clip-path="url(#clip0_3234_11766)">
<rect width="24" height="24" fill="white"/>
<path d="M7.17549 21C6.40882 21 5.70049 20.8167 5.05049 20.45C4.41716 20.0833 3.91716 19.5833 3.55049 18.95C3.18382 18.3 3.00049 17.5917 3.00049 16.825V7.175C3.00049 6.40833 3.18382 5.70833 3.55049 5.075C3.91716 4.425 4.41716 3.91667 5.05049 3.55C5.70049 3.18333 6.40882 3 7.17549 3H16.7505C17.5338 3 18.2505 3.18333 18.9005 3.55C19.5505 3.91667 20.0588 4.425 20.4255 5.075C20.8088 5.70833 21.0005 6.40833 21.0005 7.175V16.825C21.0005 17.5917 20.8172 18.3 20.4505 18.95C20.0838 19.5833 19.5755 20.0833 18.9255 20.45C18.2922 20.8167 17.5922 21 16.8255 21H7.17549ZM16.8255 18.625C17.3255 18.625 17.7422 18.4583 18.0755 18.125C18.4088 17.775 18.5755 17.3417 18.5755 16.825V7.15C18.5755 6.65 18.4088 6.23333 18.0755 5.9C17.7422 5.55 17.3255 5.375 16.8255 5.375H7.17549C6.67549 5.375 6.25882 5.55 5.92549 5.9C5.59216 6.23333 5.42549 6.65833 5.42549 7.175V16.825C5.42549 17.3417 5.59216 17.775 5.92549 18.125C6.25882 18.4583 6.67549 18.625 7.17549 18.625H16.8255ZM10.9005 12.5H12.8005L15.8005 17.375H13.8755L10.9005 12.5ZM11.9005 16.525C10.5338 16.525 9.43382 16.1 8.60049 15.25C7.78382 14.3833 7.37549 13.2167 7.37549 11.75C7.37549 10.2667 7.78382 9.1 8.60049 8.25C9.43382 7.38333 10.5338 6.95 11.9005 6.95C13.2672 6.95 14.3588 7.38333 15.1755 8.25C16.0088 9.11667 16.4255 10.2833 16.4255 11.75C16.4255 13.2167 16.0088 14.3833 15.1755 15.25C14.3588 16.1 13.2672 16.525 11.9005 16.525ZM11.9005 14.625C12.6505 14.625 13.2255 14.3833 13.6255 13.9C14.0422 13.4 14.2505 12.6833 14.2505 11.75C14.2505 10.8167 14.0422 10.1 13.6255 9.6C13.2255 9.1 12.6505 8.85 11.9005 8.85C11.1338 8.85 10.5505 9.1 10.1505 9.6C9.75049 10.1 9.55049 10.8167 9.55049 11.75C9.55049 12.6833 9.75049 13.4 10.1505 13.9C10.5505 14.3833 11.1338 14.625 11.9005 14.625Z" fill="black"/>
</g>
<defs>
<clipPath id="clip0_3234_11766">
<rect width="24" height="24" fill="white"/>
</clipPath>
</defs>
</svg>
