<svg width="24" height="24" viewBox="0 0 24 24" fill="none" xmlns="http://www.w3.org/2000/svg">
<g clip-path="url(#clip0_3234_11782)">
<rect width="24" height="24" fill="white"/>
<path d="M11.9 17C12.3833 17 12.875 16.9417 13.375 16.825L13.925 17.7H16.25L15.15 15.95C15.7 15.5167 16.1167 14.9583 16.4 14.275C16.7 13.575 16.85 12.7833 16.85 11.9C16.85 10.3167 16.4 9.06667 15.5 8.15C14.6 7.21667 13.4 6.75 11.9 6.75C10.4167 6.75 9.225 7.20833 8.325 8.125C7.44167 9.04167 7 10.3 7 11.9C7 13.4667 7.44167 14.7083 8.325 15.625C9.225 16.5417 10.4167 17 11.9 17ZM10.225 13.95C9.875 13.4833 9.7 12.8 9.7 11.9C9.7 10.9667 9.88333 10.275 10.25 9.825C10.6167 9.35833 11.1667 9.125 11.9 9.125C12.6333 9.125 13.1917 9.35833 13.575 9.825C13.9583 10.275 14.15 10.9667 14.15 11.9C14.15 12.2833 14.1083 12.625 14.025 12.925C13.9583 13.225 13.8417 13.4833 13.675 13.7L12.95 12.55H10.65L11.975 14.625C11.925 14.625 11.875 14.625 11.825 14.625C11.1083 14.625 10.575 14.4 10.225 13.95ZM19.25 20.55C18.7167 20.85 18.1333 21 17.5 21H6.5C5.86667 21 5.275 20.85 4.725 20.55C4.19167 20.2333 3.76667 19.8083 3.45 19.275C3.15 18.725 3 18.1333 3 17.5V6.5C3 5.86667 3.15 5.28333 3.45 4.75C3.76667 4.2 4.19167 3.775 4.725 3.475C5.275 3.15833 5.86667 3 6.5 3H17.5C18.1333 3 18.7167 3.15833 19.25 3.475C19.8 3.775 20.225 4.2 20.525 4.75C20.8417 5.28333 21 5.86667 21 6.5V17.5C21 18.1333 20.8417 18.725 20.525 19.275C20.225 19.8083 19.8 20.2333 19.25 20.55Z" fill="black"/>
</g>
<defs>
<clipPath id="clip0_3234_11782">
<rect width="24" height="24" fill="white"/>
</clipPath>
</defs>
</svg>
