<svg width="24" height="24" viewBox="0 0 24 24" fill="none" xmlns="http://www.w3.org/2000/svg">
<g clip-path="url(#clip0_3234_10856)">
<rect width="24" height="24" fill="white"/>
<path d="M12.0005 22C10.1672 22 8.48382 21.5583 6.95049 20.675C5.41716 19.7917 4.20882 18.5833 3.32549 17.05C2.44216 15.5167 2.00049 13.8333 2.00049 12C2.00049 10.1667 2.44216 8.48333 3.32549 6.95C4.20882 5.41667 5.41716 4.20833 6.95049 3.325C8.48382 2.44167 10.1672 2 12.0005 2C13.8338 2 15.5172 2.44167 17.0505 3.325C18.5838 4.20833 19.7922 5.41667 20.6755 6.95C21.5588 8.48333 22.0005 10.1667 22.0005 12C22.0005 13.8333 21.5588 15.5167 20.6755 17.05C19.7922 18.5833 18.5838 19.7917 17.0505 20.675C15.5172 21.5583 13.8338 22 12.0005 22ZM12.0005 19.625C13.4005 19.625 14.6755 19.2917 15.8255 18.625C16.9755 17.9417 17.8838 17.025 18.5505 15.875C19.2338 14.7083 19.5755 13.4167 19.5755 12C19.5755 10.5833 19.2338 9.3 18.5505 8.15C17.8838 6.98333 16.9755 6.06667 15.8255 5.4C14.6755 4.71667 13.4005 4.375 12.0005 4.375C10.6005 4.375 9.32549 4.71667 8.17549 5.4C7.02549 6.06667 6.10882 6.98333 5.42549 8.15C4.75882 9.3 4.42549 10.5833 4.42549 12C4.42549 13.4167 4.75882 14.7083 5.42549 15.875C6.10882 17.025 7.02549 17.9417 8.17549 18.625C9.32549 19.2917 10.6005 19.625 12.0005 19.625ZM8.30049 7.15H12.8005C13.8505 7.15 14.6838 7.44167 15.3005 8.025C15.9338 8.60833 16.2505 9.38333 16.2505 10.35C16.2505 11.0333 16.0922 11.625 15.7755 12.125C15.4588 12.6083 15.0088 12.9667 14.4255 13.2L16.4755 16.725H13.8005L12.0755 13.5H10.5755V16.725H8.30049V7.15ZM12.6255 11.65C13.0422 11.65 13.3672 11.5417 13.6005 11.325C13.8505 11.0917 13.9755 10.775 13.9755 10.375C13.9755 10.0083 13.8505 9.71667 13.6005 9.5C13.3672 9.26667 13.0505 9.15 12.6505 9.15H10.5755V11.65H12.6255Z" fill="black"/>
</g>
<defs>
<clipPath id="clip0_3234_10856">
<rect width="24" height="24" fill="white"/>
</clipPath>
</defs>
</svg>
