<svg width="24" height="24" viewBox="0 0 24 24" fill="none" xmlns="http://www.w3.org/2000/svg">
<g clip-path="url(#clip0_3254_18298)">
<rect width="24" height="24" fill="white"/>
<path d="M7.675 6.85V17.05H11.075V13.975H11.675L13.05 17.05H17.025L15.175 13.475C15.7083 13.225 16.1083 12.8417 16.375 12.325C16.6583 11.7917 16.8 11.175 16.8 10.475C16.8 9.40833 16.4583 8.54167 15.775 7.875C15.1083 7.19167 14.2167 6.85 13.1 6.85H7.675ZM13.15 11.125C13.0333 11.275 12.875 11.35 12.675 11.35H11.075V9.775H12.725C12.8917 9.775 13.0333 9.85 13.15 10C13.2667 10.1333 13.325 10.3083 13.325 10.525C13.325 10.775 13.2667 10.975 13.15 11.125ZM17.05 20.675C15.5333 21.5583 13.85 22 12 22C10.15 22 8.45833 21.5583 6.925 20.675C5.40833 19.7917 4.20833 18.5917 3.325 17.075C2.44167 15.5417 2 13.85 2 12C2 10.15 2.44167 8.46667 3.325 6.95C4.20833 5.41667 5.40833 4.20833 6.925 3.325C8.45833 2.44167 10.15 2 12 2C13.85 2 15.5333 2.44167 17.05 3.325C18.5833 4.20833 19.7917 5.41667 20.675 6.95C21.5583 8.46667 22 10.15 22 12C22 13.85 21.5583 15.5417 20.675 17.075C19.7917 18.5917 18.5833 19.7917 17.05 20.675Z" fill="black"/>
</g>
<defs>
<clipPath id="clip0_3254_18298">
<rect width="24" height="24" fill="white"/>
</clipPath>
</defs>
</svg>
