<svg width="24" height="24" viewBox="0 0 24 24" fill="none" xmlns="http://www.w3.org/2000/svg">
<g clip-path="url(#clip0_3254_19218)">
<rect width="24" height="24" fill="white"/>
<path d="M7.37549 21C6.57549 21 5.84216 20.8083 5.17549 20.425C4.50882 20.025 3.97549 19.4917 3.57549 18.825C3.19216 18.1583 3.00049 17.425 3.00049 16.625V7.375C3.00049 6.575 3.19216 5.84167 3.57549 5.175C3.97549 4.50833 4.50882 3.98333 5.17549 3.6C5.84216 3.2 6.57549 3 7.37549 3H16.4255C17.2755 3 18.0505 3.2 18.7505 3.6C19.4505 3.98333 20.0005 4.50833 20.4005 5.175C20.8005 5.84167 21.0005 6.575 21.0005 7.375V16.625C21.0005 17.425 20.8005 18.1583 20.4005 18.825C20.0172 19.4917 19.4922 20.025 18.8255 20.425C18.1588 20.8083 17.4255 21 16.6255 21H7.37549ZM16.6255 18.05C17.0088 18.05 17.3338 17.9167 17.6005 17.65C17.8672 17.3667 18.0005 17.025 18.0005 16.625V7.375C18.0005 6.975 17.8672 6.64167 17.6005 6.375C17.3338 6.09167 17.0088 5.95 16.6255 5.95H7.37549C6.99216 5.95 6.65882 6.09167 6.37549 6.375C6.10882 6.64167 5.97549 6.975 5.97549 7.375V16.625C5.97549 17.025 6.10882 17.3667 6.37549 17.65C6.65882 17.9167 6.99216 18.05 7.37549 18.05H16.6255ZM8.02549 7.225H12.7255C13.7588 7.225 14.5838 7.53333 15.2005 8.15C15.8172 8.75 16.1255 9.53333 16.1255 10.5C16.1255 11.15 15.9838 11.7167 15.7005 12.2C15.4172 12.6833 15.0088 13.0417 14.4755 13.275L16.3505 16.65H13.2005L11.7255 13.65H10.7005V16.65H8.02549V7.225ZM12.4255 11.525C12.7255 11.525 12.9588 11.4417 13.1255 11.275C13.3088 11.0917 13.4005 10.8417 13.4005 10.525C13.4005 10.2417 13.3088 10.0167 13.1255 9.85C12.9588 9.66667 12.7422 9.575 12.4755 9.575H10.7005V11.525H12.4255Z" fill="black"/>
</g>
<defs>
<clipPath id="clip0_3254_19218">
<rect width="24" height="24" fill="white"/>
</clipPath>
</defs>
</svg>
