<svg width="24" height="24" viewBox="0 0 24 24" fill="none" xmlns="http://www.w3.org/2000/svg">
<g clip-path="url(#clip0_3234_11800)">
<rect width="24" height="24" fill="white"/>
<path d="M8.6 7.125V16.85H9.575V13.025H12.425L14.8 16.85H15.95L13.425 12.925C14.1583 12.775 14.725 12.4583 15.125 11.975C15.525 11.475 15.725 10.8417 15.725 10.075C15.725 9.15833 15.4333 8.44167 14.85 7.925C14.2833 7.39167 13.4833 7.125 12.45 7.125H8.6ZM14.125 11.625C13.725 11.9917 13.1667 12.175 12.45 12.175H9.575V8H12.4C13.15 8 13.725 8.19167 14.125 8.575C14.5417 8.94167 14.75 9.45 14.75 10.1C14.75 10.75 14.5417 11.2583 14.125 11.625ZM19.25 20.55C18.7167 20.85 18.1333 21 17.5 21H6.5C5.86667 21 5.275 20.85 4.725 20.55C4.19167 20.2333 3.76667 19.8083 3.45 19.275C3.15 18.725 3 18.1333 3 17.5V6.5C3 5.86667 3.15 5.28333 3.45 4.75C3.76667 4.2 4.19167 3.775 4.725 3.475C5.275 3.15833 5.86667 3 6.5 3H17.5C18.1333 3 18.7167 3.15833 19.25 3.475C19.8 3.775 20.225 4.2 20.525 4.75C20.8417 5.28333 21 5.86667 21 6.5V17.5C21 18.1333 20.8417 18.725 20.525 19.275C20.225 19.8083 19.8 20.2333 19.25 20.55Z" fill="black"/>
</g>
<defs>
<clipPath id="clip0_3234_11800">
<rect width="24" height="24" fill="white"/>
</clipPath>
</defs>
</svg>
