<svg width="24" height="24" viewBox="0 0 24 24" fill="none" xmlns="http://www.w3.org/2000/svg">
<g clip-path="url(#clip0_3234_9332)">
<rect width="24" height="24" fill="white"/>
<path d="M5.37598 12.425H14.201C15.551 12.425 16.6093 12.075 17.376 11.375C18.1426 10.675 18.526 9.68333 18.526 8.4C18.526 7.13333 18.1343 6.15 17.351 5.45C16.5843 4.75 15.5343 4.4 14.201 4.4H8.25098V3H14.201C15.351 3 16.3676 3.225 17.251 3.675C18.1343 4.10833 18.8176 4.73333 19.301 5.55C19.801 6.35 20.051 7.3 20.051 8.4C20.051 10.1 19.5176 11.4333 18.451 12.4C17.401 13.3667 15.9843 13.85 14.201 13.85H5.37598V12.425ZM7.45098 3H8.95098V21H7.45098V3ZM5.37598 16.225H15.126V17.55H5.37598V16.225Z" fill="black"/>
</g>
<defs>
<clipPath id="clip0_3234_9332">
<rect width="24" height="24" fill="white"/>
</clipPath>
</defs>
</svg>
