<svg width="24" height="24" viewBox="0 0 24 24" fill="none" xmlns="http://www.w3.org/2000/svg">
<g clip-path="url(#clip0_3234_10197)">
<rect width="24" height="24" fill="white"/>
<path d="M5.66309 13.5V12.65H10.7881C12.3214 12.65 13.5048 12.275 14.3381 11.525C15.1881 10.7583 15.6131 9.68333 15.6131 8.3C15.6131 6.91667 15.1881 5.84167 14.3381 5.075C13.4881 4.30833 12.2798 3.925 10.7131 3.925H5.83809V3H18.5631V3.9H13.1131L13.2381 3.65C13.9881 3.86667 14.6131 4.19167 15.1131 4.625C15.6131 5.05833 15.9881 5.58333 16.2381 6.2C16.5048 6.81667 16.6381 7.51667 16.6381 8.3C16.6381 9.4 16.4048 10.35 15.9381 11.15C15.4714 11.9333 14.7964 12.5333 13.9131 12.95C13.0464 13.3667 12.0048 13.575 10.7881 13.575H6.46309L6.71309 13.15L16.6381 21H15.0631L5.66309 13.5ZM5.83809 7.9H18.5631V8.775H5.83809V7.9Z" fill="black"/>
</g>
<defs>
<clipPath id="clip0_3234_10197">
<rect width="24" height="24" fill="white"/>
</clipPath>
</defs>
</svg>
