<svg width="24" height="24" viewBox="0 0 24 24" fill="none" xmlns="http://www.w3.org/2000/svg">
<g clip-path="url(#clip0_3234_10902)">
<rect width="24" height="24" fill="white"/>
<path d="M12.0005 22C10.1672 22 8.48382 21.5583 6.95049 20.675C5.41716 19.7917 4.20882 18.5833 3.32549 17.05C2.44216 15.5167 2.00049 13.8333 2.00049 12C2.00049 10.1667 2.44216 8.48333 3.32549 6.95C4.20882 5.41667 5.41716 4.20833 6.95049 3.325C8.48382 2.44167 10.1672 2 12.0005 2C13.8338 2 15.5172 2.44167 17.0505 3.325C18.5838 4.20833 19.7922 5.41667 20.6755 6.95C21.5588 8.48333 22.0005 10.1667 22.0005 12C22.0005 13.8333 21.5588 15.5167 20.6755 17.05C19.7922 18.5833 18.5838 19.7917 17.0505 20.675C15.5172 21.5583 13.8338 22 12.0005 22ZM12.0005 21.075C13.6672 21.075 15.1838 20.675 16.5505 19.875C17.9338 19.075 19.0255 17.9833 19.8255 16.6C20.6255 15.2 21.0255 13.6667 21.0255 12C21.0255 10.3333 20.6255 8.80833 19.8255 7.425C19.0255 6.025 17.9338 4.925 16.5505 4.125C15.1838 3.325 13.6672 2.925 12.0005 2.925C10.3338 2.925 8.80882 3.325 7.42549 4.125C6.05882 4.925 4.97549 6.025 4.17549 7.425C3.37549 8.80833 2.97549 10.3333 2.97549 12C2.97549 13.6667 3.37549 15.2 4.17549 16.6C4.97549 17.9833 6.05882 19.075 7.42549 19.875C8.80882 20.675 10.3338 21.075 12.0005 21.075ZM11.9255 16.975C11.0588 16.975 10.3005 16.7917 9.65049 16.425C9.01716 16.0583 8.56716 15.5167 8.30049 14.8L9.07549 14.425C9.29216 14.9917 9.64216 15.4167 10.1255 15.7C10.6255 15.9833 11.2255 16.125 11.9255 16.125C12.7422 16.125 13.3922 15.9583 13.8755 15.625C14.3588 15.275 14.6005 14.8 14.6005 14.2C14.6005 13.7 14.4172 13.3083 14.0505 13.025C13.7005 12.725 13.1838 12.5333 12.5005 12.45L11.2505 12.3C10.3672 12.2 9.69216 11.925 9.22549 11.475C8.77549 11.025 8.55049 10.4333 8.55049 9.7C8.55049 8.8 8.87549 8.125 9.52549 7.675C10.1755 7.20833 10.9838 6.975 11.9505 6.975C12.8005 6.975 13.5422 7.16667 14.1755 7.55C14.8255 7.91667 15.2838 8.44167 15.5505 9.125L14.7505 9.475C14.5338 8.94167 14.1838 8.54167 13.7005 8.275C13.2172 7.99167 12.6338 7.85 11.9505 7.85C11.2172 7.85 10.6255 8 10.1755 8.3C9.72549 8.6 9.50049 9.05833 9.50049 9.675C9.50049 10.175 9.66716 10.575 10.0005 10.875C10.3338 11.175 10.8338 11.3667 11.5005 11.45L12.7255 11.6C13.5922 11.7 14.2755 11.9667 14.7755 12.4C15.2922 12.8333 15.5505 13.425 15.5505 14.175C15.5505 15.0583 15.2088 15.75 14.5255 16.25C13.8422 16.7333 12.9755 16.975 11.9255 16.975Z" fill="black"/>
</g>
<defs>
<clipPath id="clip0_3234_10902">
<rect width="24" height="24" fill="white"/>
</clipPath>
</defs>
</svg>
