<svg width="24" height="24" viewBox="0 0 24 24" fill="none" xmlns="http://www.w3.org/2000/svg">
<g clip-path="url(#clip0_3254_19244)">
<rect width="24" height="24" fill="white"/>
<path d="M7.37549 21C6.57549 21 5.84216 20.8083 5.17549 20.425C4.50882 20.025 3.97549 19.4917 3.57549 18.825C3.19216 18.1583 3.00049 17.425 3.00049 16.625V7.375C3.00049 6.575 3.19216 5.84167 3.57549 5.175C3.97549 4.50833 4.50882 3.98333 5.17549 3.6C5.84216 3.2 6.57549 3 7.37549 3H16.4255C17.2755 3 18.0505 3.2 18.7505 3.6C19.4505 3.98333 20.0005 4.50833 20.4005 5.175C20.8005 5.84167 21.0005 6.575 21.0005 7.375V16.625C21.0005 17.425 20.8005 18.1583 20.4005 18.825C20.0172 19.4917 19.4922 20.025 18.8255 20.425C18.1588 20.8083 17.4255 21 16.6255 21H7.37549ZM16.6255 18.05C17.0088 18.05 17.3338 17.9167 17.6005 17.65C17.8672 17.3667 18.0005 17.025 18.0005 16.625V7.375C18.0005 6.975 17.8672 6.64167 17.6005 6.375C17.3338 6.09167 17.0088 5.95 16.6255 5.95H7.37549C6.99216 5.95 6.65882 6.09167 6.37549 6.375C6.10882 6.64167 5.97549 6.975 5.97549 7.375V16.625C5.97549 17.025 6.10882 17.3667 6.37549 17.65C6.65882 17.9167 6.99216 18.05 7.37549 18.05H16.6255ZM11.9505 16.85C11.1005 16.85 10.3672 16.7333 9.75049 16.5C9.13382 16.2667 8.51716 15.9083 7.90049 15.425L9.22549 13.65C9.62549 13.9667 10.0422 14.2 10.4755 14.35C10.9255 14.5 11.4088 14.575 11.9255 14.575C12.3755 14.575 12.7088 14.5083 12.9255 14.375C13.1588 14.2417 13.2755 14.0417 13.2755 13.775C13.2755 13.575 13.1922 13.425 13.0255 13.325C12.8588 13.225 12.6088 13.15 12.2755 13.1L10.9255 12.95C10.0755 12.85 9.39216 12.575 8.87549 12.125C8.35882 11.6583 8.10049 11.025 8.10049 10.225C8.10049 9.24167 8.48382 8.475 9.25049 7.925C10.0338 7.375 10.9672 7.1 12.0505 7.1C12.7838 7.1 13.4588 7.225 14.0755 7.475C14.7088 7.70833 15.2838 8.05 15.8005 8.5L14.4755 10.25C14.1088 9.96667 13.7172 9.75 13.3005 9.6C12.8838 9.45 12.4672 9.375 12.0505 9.375C11.6172 9.375 11.3005 9.44167 11.1005 9.575C10.9005 9.69167 10.8005 9.875 10.8005 10.125C10.8005 10.325 10.8755 10.475 11.0255 10.575C11.1755 10.6583 11.4172 10.725 11.7505 10.775L13.0255 10.9C13.8922 10.9833 14.6005 11.25 15.1505 11.7C15.7005 12.15 15.9755 12.8083 15.9755 13.675C15.9755 14.6917 15.5838 15.475 14.8005 16.025C14.0338 16.575 13.0838 16.85 11.9505 16.85Z" fill="black"/>
</g>
<defs>
<clipPath id="clip0_3254_19244">
<rect width="24" height="24" fill="white"/>
</clipPath>
</defs>
</svg>
