<svg width="24" height="24" viewBox="0 0 24 24" fill="none" xmlns="http://www.w3.org/2000/svg">
<g clip-path="url(#clip0_3254_18350)">
<rect width="24" height="24" fill="white"/>
<path d="M9.725 17C10.3917 17.1667 11.175 17.25 12.075 17.25C13.325 17.25 14.375 16.95 15.225 16.35C16.0917 15.7333 16.525 14.8583 16.525 13.725C16.525 12.7417 16.225 12.0083 15.625 11.525C15.025 11.0417 14.2583 10.7417 13.325 10.625L11.925 10.475C11.6417 10.4417 11.4417 10.4083 11.325 10.375C11.2083 10.325 11.15 10.225 11.15 10.075C11.15 9.875 11.225 9.73333 11.375 9.65C11.5417 9.55 11.8083 9.5 12.175 9.5C12.6083 9.5 13.0583 9.575 13.525 9.725C13.9917 9.85833 14.4667 10.05 14.95 10.3L16.35 7.8C15.6667 7.43333 14.9917 7.15833 14.325 6.975C13.6583 6.775 12.9417 6.675 12.175 6.675C11.3917 6.675 10.6583 6.81667 9.975 7.1C9.30833 7.36667 8.76667 7.76667 8.35 8.3C7.93333 8.83333 7.725 9.46667 7.725 10.2C7.725 11.0833 8.01667 11.7833 8.6 12.3C9.18333 12.8 9.93333 13.1 10.85 13.2L12.35 13.375C12.6 13.4083 12.7917 13.4583 12.925 13.525C13.0583 13.575 13.125 13.675 13.125 13.825C13.125 14.0417 13.0417 14.2 12.875 14.3C12.7083 14.3833 12.425 14.425 12.025 14.425C11.4917 14.425 10.9667 14.3583 10.45 14.225C9.93333 14.0917 9.425 13.8917 8.925 13.625L7.525 16.1C8.325 16.5167 9.05833 16.8167 9.725 17ZM17.05 20.675C15.5333 21.5583 13.85 22 12 22C10.15 22 8.45833 21.5583 6.925 20.675C5.40833 19.7917 4.20833 18.5917 3.325 17.075C2.44167 15.5417 2 13.85 2 12C2 10.15 2.44167 8.46667 3.325 6.95C4.20833 5.41667 5.40833 4.20833 6.925 3.325C8.45833 2.44167 10.15 2 12 2C13.85 2 15.5333 2.44167 17.05 3.325C18.5833 4.20833 19.7917 5.41667 20.675 6.95C21.5583 8.46667 22 10.15 22 12C22 13.85 21.5583 15.5417 20.675 17.075C19.7917 18.5917 18.5833 19.7917 17.05 20.675Z" fill="black"/>
</g>
<defs>
<clipPath id="clip0_3254_18350">
<rect width="24" height="24" fill="white"/>
</clipPath>
</defs>
</svg>
