<svg width="24" height="24" viewBox="0 0 24 24" fill="none" xmlns="http://www.w3.org/2000/svg">
<g clip-path="url(#clip0_3254_18342)">
<rect width="24" height="24" fill="white"/>
<path d="M9.625 16.425C10.275 16.775 11.0417 16.95 11.925 16.95C13.025 16.95 13.925 16.7 14.625 16.2C15.3417 15.6833 15.7 14.9667 15.7 14.05C15.7 13.2667 15.4333 12.65 14.9 12.2C14.3833 11.75 13.6917 11.475 12.825 11.375L11.575 11.225C10.9917 11.1583 10.55 11.0083 10.25 10.775C9.96667 10.525 9.825 10.1917 9.825 9.775C9.825 9.25833 10.0167 8.875 10.4 8.625C10.8 8.35833 11.325 8.225 11.975 8.225C12.5917 8.225 13.1167 8.35 13.55 8.6C14 8.83333 14.3333 9.18333 14.55 9.65L15.7 9.075C15.4 8.39167 14.9167 7.86667 14.25 7.5C13.5833 7.13333 12.825 6.95 11.975 6.95C11.3417 6.95 10.75 7.05833 10.2 7.275C9.66667 7.49167 9.23333 7.81667 8.9 8.25C8.58333 8.66667 8.425 9.18333 8.425 9.8C8.425 10.55 8.65833 11.1583 9.125 11.625C9.60833 12.0917 10.2917 12.375 11.175 12.475L12.45 12.625C13.0667 12.6917 13.525 12.85 13.825 13.1C14.1417 13.3333 14.3 13.6667 14.3 14.1C14.3 14.6 14.0833 15 13.65 15.3C13.2333 15.5833 12.6667 15.725 11.95 15.725C11.3 15.725 10.75 15.6 10.3 15.35C9.85 15.1 9.51667 14.7167 9.3 14.2L8.175 14.8C8.49167 15.5167 8.975 16.0583 9.625 16.425ZM17.05 20.675C15.5333 21.5583 13.85 22 12 22C10.15 22 8.45833 21.5583 6.925 20.675C5.40833 19.7917 4.20833 18.5917 3.325 17.075C2.44167 15.5417 2 13.85 2 12C2 10.15 2.44167 8.46667 3.325 6.95C4.20833 5.41667 5.40833 4.20833 6.925 3.325C8.45833 2.44167 10.15 2 12 2C13.85 2 15.5333 2.44167 17.05 3.325C18.5833 4.20833 19.7917 5.41667 20.675 6.95C21.5583 8.46667 22 10.15 22 12C22 13.85 21.5583 15.5417 20.675 17.075C19.7917 18.5917 18.5833 19.7917 17.05 20.675Z" fill="black"/>
</g>
<defs>
<clipPath id="clip0_3254_18342">
<rect width="24" height="24" fill="white"/>
</clipPath>
</defs>
</svg>
