<svg width="24" height="24" viewBox="0 0 24 24" fill="none" xmlns="http://www.w3.org/2000/svg">
<g clip-path="url(#clip0_3254_18344)">
<rect width="24" height="24" fill="white"/>
<path d="M9.525 16.425C10.1917 16.775 10.9833 16.95 11.9 16.95C13.0333 16.95 13.9667 16.6917 14.7 16.175C15.45 15.6417 15.825 14.8917 15.825 13.925C15.825 13.1083 15.55 12.4667 15 12C14.4667 11.5333 13.7583 11.25 12.875 11.15L11.6 11.025C11.1 10.975 10.725 10.8583 10.475 10.675C10.2417 10.475 10.125 10.2083 10.125 9.875C10.125 9.45833 10.2917 9.15 10.625 8.95C10.9583 8.73333 11.4083 8.625 11.975 8.625C12.525 8.625 13 8.725 13.4 8.925C13.8 9.125 14.1 9.425 14.3 9.825L15.8 9.05C15.4667 8.36667 14.9583 7.85 14.275 7.5C13.5917 7.13333 12.825 6.95 11.975 6.95C11.3083 6.95 10.6917 7.06667 10.125 7.3C9.55833 7.51667 9.1 7.85 8.75 8.3C8.41667 8.75 8.25 9.29167 8.25 9.925C8.25 10.6917 8.49167 11.3167 8.975 11.8C9.475 12.2667 10.1667 12.55 11.05 12.65L12.375 12.8C12.9083 12.8667 13.3083 13 13.575 13.2C13.8417 13.3833 13.975 13.65 13.975 14C13.975 14.4167 13.7917 14.7417 13.425 14.975C13.0583 15.2083 12.5583 15.325 11.925 15.325C11.325 15.325 10.825 15.2167 10.425 15C10.025 14.7833 9.70833 14.45 9.475 14L8 14.825C8.36667 15.525 8.875 16.0583 9.525 16.425ZM17.05 20.675C15.5333 21.5583 13.85 22 12 22C10.15 22 8.45833 21.5583 6.925 20.675C5.40833 19.7917 4.20833 18.5917 3.325 17.075C2.44167 15.5417 2 13.85 2 12C2 10.15 2.44167 8.46667 3.325 6.95C4.20833 5.41667 5.40833 4.20833 6.925 3.325C8.45833 2.44167 10.15 2 12 2C13.85 2 15.5333 2.44167 17.05 3.325C18.5833 4.20833 19.7917 5.41667 20.675 6.95C21.5583 8.46667 22 10.15 22 12C22 13.85 21.5583 15.5417 20.675 17.075C19.7917 18.5917 18.5833 19.7917 17.05 20.675Z" fill="black"/>
</g>
<defs>
<clipPath id="clip0_3254_18344">
<rect width="24" height="24" fill="white"/>
</clipPath>
</defs>
</svg>
