<svg width="24" height="24" viewBox="0 0 24 24" fill="none" xmlns="http://www.w3.org/2000/svg">
<g clip-path="url(#clip0_3254_19260)">
<rect width="24" height="24" fill="white"/>
<path d="M9.75 17.075C10.4167 17.2417 11.2 17.325 12.1 17.325C13.35 17.325 14.4 17.025 15.25 16.425C16.1167 15.8083 16.55 14.95 16.55 13.85C16.55 12.8667 16.25 12.1333 15.65 11.65C15.05 11.1667 14.2833 10.8667 13.35 10.75L11.95 10.6C11.6667 10.5667 11.4667 10.5333 11.35 10.5C11.2333 10.45 11.175 10.35 11.175 10.2C11.175 10.0333 11.25 9.90833 11.4 9.825C11.5667 9.725 11.8333 9.675 12.2 9.675C12.6333 9.675 13.0833 9.75 13.55 9.9C14.0167 10.0333 14.4917 10.225 14.975 10.475L16.375 7.975C15.6917 7.60833 15.0167 7.33333 14.35 7.15C13.6833 6.95 12.9667 6.85 12.2 6.85C11.4167 6.85 10.6833 6.99167 10 7.275C9.33333 7.54167 8.79167 7.94167 8.375 8.475C7.95833 8.99167 7.75 9.60833 7.75 10.325C7.75 11.2083 8.04167 11.9083 8.625 12.425C9.20833 12.925 9.95833 13.225 10.875 13.325L12.375 13.5C12.625 13.5333 12.8167 13.5833 12.95 13.65C13.0833 13.7 13.15 13.8 13.15 13.95C13.15 14.15 13.0583 14.2917 12.875 14.375C12.7083 14.4583 12.4333 14.5 12.05 14.5C11.5167 14.5 10.9917 14.4333 10.475 14.3C9.95833 14.1667 9.45 13.9667 8.95 13.7L7.55 16.175C8.35 16.5917 9.08333 16.8917 9.75 17.075ZM19.25 20.55C18.7167 20.85 18.1333 21 17.5 21H6.5C5.86667 21 5.275 20.85 4.725 20.55C4.19167 20.2333 3.76667 19.8083 3.45 19.275C3.15 18.725 3 18.1333 3 17.5V6.5C3 5.86667 3.15 5.28333 3.45 4.75C3.76667 4.2 4.19167 3.775 4.725 3.475C5.275 3.15833 5.86667 3 6.5 3H17.5C18.1333 3 18.7167 3.15833 19.25 3.475C19.8 3.775 20.225 4.2 20.525 4.75C20.8417 5.28333 21 5.86667 21 6.5V17.5C21 18.1333 20.8417 18.725 20.525 19.275C20.225 19.8083 19.8 20.2333 19.25 20.55Z" fill="black"/>
</g>
<defs>
<clipPath id="clip0_3254_19260">
<rect width="24" height="24" fill="white"/>
</clipPath>
</defs>
</svg>
