<svg width="24" height="24" viewBox="0 0 24 24" fill="none" xmlns="http://www.w3.org/2000/svg">
<g clip-path="url(#clip0_3254_18338)">
<rect width="24" height="24" fill="white"/>
<path d="M9.8 16.425C10.4333 16.7917 11.1667 16.975 12 16.975C13.0167 16.975 13.85 16.7417 14.5 16.275C15.15 15.7917 15.475 15.1333 15.475 14.3C15.475 13.5833 15.225 13.0167 14.725 12.6C14.2417 12.1667 13.575 11.9 12.725 11.8L11.475 11.65C10.7083 11.55 10.1333 11.325 9.75 10.975C9.38333 10.6083 9.2 10.1333 9.2 9.55C9.2 8.85 9.45 8.325 9.95 7.975C10.4667 7.625 11.1333 7.45 11.95 7.45C12.6333 7.45 13.2333 7.60833 13.75 7.925C14.2667 8.225 14.6333 8.65833 14.85 9.225L15.3 9.075C15.0833 8.425 14.6667 7.91667 14.05 7.55C13.4333 7.16667 12.7333 6.975 11.95 6.975C11.35 6.975 10.8 7.06667 10.3 7.25C9.81667 7.43333 9.425 7.725 9.125 8.125C8.84167 8.50833 8.7 8.99167 8.7 9.575C8.7 10.2917 8.925 10.8667 9.375 11.3C9.825 11.7333 10.4917 12.0083 11.375 12.125L12.625 12.275C13.375 12.3583 13.95 12.575 14.35 12.925C14.7667 13.2583 14.975 13.7167 14.975 14.3C14.975 14.9833 14.7 15.525 14.15 15.925C13.6167 16.3083 12.9 16.5 12 16.5C11.25 16.5 10.6 16.3417 10.05 16.025C9.51667 15.7083 9.15 15.2417 8.95 14.625L8.5 14.775C8.73333 15.5083 9.16667 16.0583 9.8 16.425ZM17.05 20.675C15.5333 21.5583 13.85 22 12 22C10.15 22 8.45833 21.5583 6.925 20.675C5.40833 19.7917 4.20833 18.5917 3.325 17.075C2.44167 15.5417 2 13.85 2 12C2 10.15 2.44167 8.46667 3.325 6.95C4.20833 5.41667 5.40833 4.20833 6.925 3.325C8.45833 2.44167 10.15 2 12 2C13.85 2 15.5333 2.44167 17.05 3.325C18.5833 4.20833 19.7917 5.41667 20.675 6.95C21.5583 8.46667 22 10.15 22 12C22 13.85 21.5583 15.5417 20.675 17.075C19.7917 18.5917 18.5833 19.7917 17.05 20.675Z" fill="black"/>
</g>
<defs>
<clipPath id="clip0_3254_18338">
<rect width="24" height="24" fill="white"/>
</clipPath>
</defs>
</svg>
