<svg width="24" height="24" viewBox="0 0 24 24" fill="none" xmlns="http://www.w3.org/2000/svg">
<g clip-path="url(#clip0_3254_18342)">
<rect width="24" height="24" fill="white"/>
<path d="M9.625 16.425C10.275 16.775 11.0417 16.95 11.925 16.95C13.025 16.95 13.925 16.7 14.625 16.2C15.3417 15.6833 15.7 14.9667 15.7 14.05C15.7 13.2667 15.4333 12.65 14.9 12.2C14.3833 11.7333 13.6917 11.4583 12.825 11.375L11.55 11.225C10.95 11.1583 10.5083 11.0083 10.225 10.775C9.94167 10.525 9.8 10.1917 9.8 9.775C9.8 9.25833 9.99167 8.875 10.375 8.625C10.775 8.35833 11.3 8.225 11.95 8.225C12.5167 8.225 13.0167 8.35 13.45 8.6C13.8833 8.83333 14.2 9.175 14.4 9.625L15.55 9.05C15.25 8.38333 14.775 7.86667 14.125 7.5C13.475 7.13333 12.75 6.95 11.95 6.95C11.3 6.95 10.7 7.05833 10.15 7.275C9.61667 7.49167 9.18333 7.81667 8.85 8.25C8.53333 8.66667 8.375 9.18333 8.375 9.8C8.375 10.55 8.61667 11.1583 9.1 11.625C9.58333 12.0917 10.2667 12.375 11.15 12.475L12.45 12.625C13.0667 12.6917 13.525 12.85 13.825 13.1C14.1417 13.3333 14.3 13.6667 14.3 14.1C14.3 14.6 14.0833 15 13.65 15.3C13.2333 15.5833 12.6667 15.725 11.95 15.725C11.3 15.725 10.75 15.6 10.3 15.35C9.85 15.1 9.51667 14.7167 9.3 14.2L8.175 14.8C8.49167 15.5167 8.975 16.0583 9.625 16.425ZM17.05 20.675C15.5333 21.5583 13.85 22 12 22C10.15 22 8.45833 21.5583 6.925 20.675C5.40833 19.7917 4.20833 18.5917 3.325 17.075C2.44167 15.5417 2 13.85 2 12C2 10.15 2.44167 8.46667 3.325 6.95C4.20833 5.41667 5.40833 4.20833 6.925 3.325C8.45833 2.44167 10.15 2 12 2C13.85 2 15.5333 2.44167 17.05 3.325C18.5833 4.20833 19.7917 5.41667 20.675 6.95C21.5583 8.46667 22 10.15 22 12C22 13.85 21.5583 15.5417 20.675 17.075C19.7917 18.5917 18.5833 19.7917 17.05 20.675Z" fill="black"/>
</g>
<defs>
<clipPath id="clip0_3254_18342">
<rect width="24" height="24" fill="white"/>
</clipPath>
</defs>
</svg>
