<svg width="24" height="24" viewBox="0 0 24 24" fill="none" xmlns="http://www.w3.org/2000/svg">
<g clip-path="url(#clip0_3254_18340)">
<rect width="24" height="24" fill="white"/>
<path d="M9.7 16.425C10.35 16.7917 11.1083 16.975 11.975 16.975C13.025 16.975 13.8917 16.7333 14.575 16.25C15.2583 15.75 15.6 15.0583 15.6 14.175C15.6 13.425 15.3417 12.8333 14.825 12.4C14.325 11.95 13.6417 11.675 12.775 11.575L11.5 11.45C10.8333 11.3667 10.3333 11.175 10 10.875C9.66667 10.5583 9.5 10.15 9.5 9.65C9.5 9.05 9.725 8.6 10.175 8.3C10.625 8 11.2167 7.85 11.95 7.85C12.5667 7.85 13.1083 7.98333 13.575 8.25C14.0583 8.51667 14.4083 8.90833 14.625 9.425L15.425 9.075C15.175 8.40833 14.725 7.89167 14.075 7.525C13.4417 7.15833 12.7333 6.975 11.95 6.975C11.3333 6.975 10.7667 7.075 10.25 7.275C9.73333 7.45833 9.31667 7.75833 9 8.175C8.7 8.59167 8.55 9.1 8.55 9.7C8.55 10.4333 8.775 11.025 9.225 11.475C9.69167 11.9083 10.3667 12.1833 11.25 12.3L12.55 12.45C13.2167 12.5333 13.7333 12.725 14.1 13.025C14.4667 13.3083 14.65 13.7 14.65 14.2C14.65 14.8 14.4083 15.2667 13.925 15.6C13.4417 15.9333 12.7917 16.1 11.975 16.1C11.275 16.1 10.675 15.9583 10.175 15.675C9.69167 15.3917 9.34167 14.975 9.125 14.425L8.325 14.8C8.60833 15.5167 9.06667 16.0583 9.7 16.425ZM17.05 20.675C15.5333 21.5583 13.85 22 12 22C10.15 22 8.45833 21.5583 6.925 20.675C5.40833 19.7917 4.20833 18.5917 3.325 17.075C2.44167 15.5417 2 13.85 2 12C2 10.15 2.44167 8.46667 3.325 6.95C4.20833 5.41667 5.40833 4.20833 6.925 3.325C8.45833 2.44167 10.15 2 12 2C13.85 2 15.5333 2.44167 17.05 3.325C18.5833 4.20833 19.7917 5.41667 20.675 6.95C21.5583 8.46667 22 10.15 22 12C22 13.85 21.5583 15.5417 20.675 17.075C19.7917 18.5917 18.5833 19.7917 17.05 20.675Z" fill="black"/>
</g>
<defs>
<clipPath id="clip0_3254_18340">
<rect width="24" height="24" fill="white"/>
</clipPath>
</defs>
</svg>
