<svg width="24" height="24" viewBox="0 0 24 24" fill="none" xmlns="http://www.w3.org/2000/svg">
<g clip-path="url(#clip0_3254_19246)">
<rect width="24" height="24" fill="white"/>
<path d="M7.57549 21C6.74216 21 5.97549 20.8 5.27549 20.4C4.57549 19.9833 4.01716 19.425 3.60049 18.725C3.20049 18.025 3.00049 17.2583 3.00049 16.425V7.575C3.00049 6.74167 3.20049 5.975 3.60049 5.275C4.01716 4.575 4.57549 4.025 5.27549 3.625C5.97549 3.20833 6.74216 3 7.57549 3H16.1505C17.0505 3 17.8672 3.20833 18.6005 3.625C19.3505 4.025 19.9338 4.575 20.3505 5.275C20.7838 5.975 21.0005 6.74167 21.0005 7.575V16.425C21.0005 17.2583 20.7922 18.025 20.3755 18.725C19.9755 19.425 19.4255 19.9833 18.7255 20.4C18.0255 20.8 17.2588 21 16.4255 21H7.57549ZM16.4255 17.5C16.7088 17.5 16.9505 17.4 17.1505 17.2C17.3505 16.9833 17.4505 16.725 17.4505 16.425V7.55C17.4505 7.25 17.3505 7 17.1505 6.8C16.9505 6.6 16.7088 6.5 16.4255 6.5H7.57549C7.27549 6.5 7.02549 6.60833 6.82549 6.825C6.62549 7.025 6.52549 7.275 6.52549 7.575V16.425C6.52549 16.725 6.62549 16.9833 6.82549 17.2C7.02549 17.4 7.27549 17.5 7.57549 17.5H16.4255ZM12.0005 16.775C11.1838 16.775 10.4755 16.6917 9.87549 16.525C9.27549 16.3583 8.60882 16.0917 7.87549 15.725L9.12549 13.475C9.59216 13.7083 10.0588 13.8917 10.5255 14.025C10.9922 14.1417 11.4672 14.2 11.9505 14.2C12.3005 14.2 12.5505 14.1583 12.7005 14.075C12.8672 13.9917 12.9505 13.85 12.9505 13.65C12.9505 13.5167 12.8922 13.425 12.7755 13.375C12.6588 13.325 12.4838 13.2833 12.2505 13.25L10.9005 13.075C10.0672 12.975 9.38382 12.7 8.85049 12.25C8.31716 11.8 8.05049 11.1667 8.05049 10.35C8.05049 9.36667 8.45049 8.59167 9.25049 8.025C10.0505 7.45833 11.0005 7.175 12.1005 7.175C12.8005 7.175 13.4505 7.26667 14.0505 7.45C14.6505 7.61667 15.2588 7.86667 15.8755 8.2L14.6255 10.45C14.1755 10.2167 13.7338 10.0417 13.3005 9.925C12.8838 9.79167 12.4838 9.725 12.1005 9.725C11.7505 9.725 11.5005 9.76667 11.3505 9.85C11.2172 9.93333 11.1505 10.0667 11.1505 10.25C11.1505 10.3833 11.2005 10.475 11.3005 10.525C11.4172 10.5583 11.6005 10.5917 11.8505 10.625L13.1255 10.75C13.9755 10.85 14.6755 11.1167 15.2255 11.55C15.7755 11.9833 16.0505 12.65 16.0505 13.55C16.0505 14.5833 15.6588 15.3833 14.8755 15.95C14.0922 16.5 13.1338 16.775 12.0005 16.775Z" fill="black"/>
</g>
<defs>
<clipPath id="clip0_3254_19246">
<rect width="24" height="24" fill="white"/>
</clipPath>
</defs>
</svg>
