<svg width="24" height="24" viewBox="0 0 24 24" fill="none" xmlns="http://www.w3.org/2000/svg">
<g clip-path="url(#clip0_3234_11824)">
<rect width="24" height="24" fill="white"/>
<path d="M9.8 16.425C10.4333 16.7917 11.1667 16.975 12 16.975C13.0167 16.975 13.85 16.7417 14.5 16.275C15.15 15.7917 15.475 15.1333 15.475 14.3C15.475 13.5833 15.225 13.0167 14.725 12.6C14.2417 12.1667 13.575 11.9 12.725 11.8L11.525 11.65C10.7583 11.55 10.1833 11.325 9.8 10.975C9.43333 10.6083 9.25 10.1333 9.25 9.55C9.25 8.85 9.5 8.325 10 7.975C10.5167 7.625 11.1833 7.45 12 7.45C12.75 7.45 13.3833 7.60833 13.9 7.925C14.4333 8.24167 14.8083 8.7 15.025 9.3L15.475 9.15C15.2583 8.46667 14.8333 7.93333 14.2 7.55C13.5833 7.16667 12.85 6.975 12 6.975C11.4 6.975 10.85 7.06667 10.35 7.25C9.86667 7.43333 9.475 7.725 9.175 8.125C8.89167 8.50833 8.75 8.99167 8.75 9.575C8.75 10.2917 8.975 10.8667 9.425 11.3C9.875 11.7333 10.5417 12.0083 11.425 12.125L12.625 12.275C13.375 12.3583 13.95 12.575 14.35 12.925C14.7667 13.2583 14.975 13.7167 14.975 14.3C14.975 14.9833 14.7 15.525 14.15 15.925C13.6167 16.3083 12.9 16.5 12 16.5C11.25 16.5 10.6 16.3417 10.05 16.025C9.51667 15.7083 9.15 15.2417 8.95 14.625L8.5 14.775C8.73333 15.5083 9.16667 16.0583 9.8 16.425ZM19.25 20.55C18.7167 20.85 18.1333 21 17.5 21H6.5C5.86667 21 5.275 20.85 4.725 20.55C4.19167 20.2333 3.76667 19.8083 3.45 19.275C3.15 18.725 3 18.1333 3 17.5V6.5C3 5.86667 3.15 5.28333 3.45 4.75C3.76667 4.2 4.19167 3.775 4.725 3.475C5.275 3.15833 5.86667 3 6.5 3H17.5C18.1333 3 18.7167 3.15833 19.25 3.475C19.8 3.775 20.225 4.2 20.525 4.75C20.8417 5.28333 21 5.86667 21 6.5V17.5C21 18.1333 20.8417 18.725 20.525 19.275C20.225 19.8083 19.8 20.2333 19.25 20.55Z" fill="black"/>
</g>
<defs>
<clipPath id="clip0_3234_11824">
<rect width="24" height="24" fill="white"/>
</clipPath>
</defs>
</svg>
