<svg width="24" height="24" viewBox="0 0 24 24" fill="none" xmlns="http://www.w3.org/2000/svg">
<g clip-path="url(#clip0_3234_9444)">
<rect width="24" height="24" fill="white"/>
<path d="M5.50439 17.7L6.87939 17.35H19.0044V21H5.50439V17.7ZM5.50439 11H15.5044V13.85H5.50439V11ZM15.1794 8.15C15.0794 7.51667 14.7961 7.03333 14.3294 6.7C13.8627 6.35 13.2711 6.175 12.5544 6.175C12.0711 6.175 11.6544 6.26667 11.3044 6.45C10.9544 6.61667 10.6877 6.85833 10.5044 7.175C10.3377 7.49167 10.2544 7.875 10.2544 8.325C10.2544 8.675 10.2961 9.025 10.3794 9.375C10.4794 9.725 10.6377 10.2333 10.8544 10.9C11.1044 11.6333 11.2877 12.2417 11.4044 12.725C11.5211 13.1917 11.5794 13.675 11.5794 14.175C11.5794 14.875 11.4377 15.5167 11.1544 16.1C10.8877 16.6667 10.5461 17.175 10.1294 17.625C9.71273 18.0583 9.14606 18.6 8.42939 19.25L5.50439 17.7C6.25439 17.1333 6.78773 16.6 7.10439 16.1C7.42106 15.5833 7.57939 14.9417 7.57939 14.175C7.57939 13.6917 7.52106 13.25 7.40439 12.85C7.30439 12.45 7.15439 11.975 6.95439 11.425C6.72106 10.8417 6.54606 10.325 6.42939 9.875C6.31273 9.40833 6.25439 8.89167 6.25439 8.325C6.25439 7.20833 6.50439 6.225 7.00439 5.375C7.52106 4.50833 8.24606 3.84167 9.17939 3.375C10.1127 2.89167 11.2044 2.65 12.4544 2.65C13.6211 2.65 14.6711 2.85 15.6044 3.25C16.5377 3.65 17.2961 4.21667 17.8794 4.95C18.4794 5.66667 18.8627 6.50833 19.0294 7.475L15.1794 8.15Z" fill="black"/>
</g>
<defs>
<clipPath id="clip0_3234_9444">
<rect width="24" height="24" fill="white"/>
</clipPath>
</defs>
</svg>
