<svg width="24" height="24" viewBox="0 0 24 24" fill="none" xmlns="http://www.w3.org/2000/svg">
<g clip-path="url(#clip0_3234_9438)">
<rect width="24" height="24" fill="white"/>
<path d="M5.74854 19.2L7.12354 19.125H18.7485V21H5.74854V19.2ZM5.74854 11.5H15.2485V13.225H5.74854V11.5ZM16.7735 7.775C16.6069 6.80833 16.1319 6.03333 15.3485 5.45C14.5819 4.86667 13.5985 4.575 12.3985 4.575C11.5819 4.575 10.8819 4.71667 10.2985 5C9.7152 5.28333 9.27354 5.68333 8.97354 6.2C8.67354 6.7 8.52354 7.28333 8.52354 7.95C8.52354 8.36667 8.57354 8.825 8.67354 9.325C8.7902 9.80833 8.94854 10.425 9.14854 11.175C9.3652 11.9583 9.53187 12.6417 9.64854 13.225C9.78187 13.7917 9.84854 14.325 9.84854 14.825C9.84854 15.525 9.7152 16.225 9.44854 16.925C9.19854 17.6083 8.84854 18.2417 8.39854 18.825C7.9652 19.3917 7.4652 19.8667 6.89854 20.25L5.74854 19.2C6.4652 18.5333 6.9902 17.875 7.32354 17.225C7.65687 16.5583 7.82354 15.7833 7.82354 14.9C7.82354 14.3333 7.7652 13.8 7.64854 13.3C7.54854 12.8 7.38187 12.125 7.14854 11.275C6.93187 10.5417 6.7652 9.93333 6.64854 9.45C6.54854 8.95 6.49854 8.45 6.49854 7.95C6.49854 7 6.73187 6.125 7.19854 5.325C7.6652 4.525 8.34854 3.89167 9.24854 3.425C10.1485 2.94167 11.2069 2.7 12.4235 2.7C13.5902 2.7 14.6235 2.91667 15.5235 3.35C16.4402 3.76667 17.1735 4.34167 17.7235 5.075C18.2735 5.80833 18.6319 6.63333 18.7985 7.55L16.7735 7.775Z" fill="black"/>
</g>
<defs>
<clipPath id="clip0_3234_9438">
<rect width="24" height="24" fill="white"/>
</clipPath>
</defs>
</svg>
