<svg width="24" height="24" viewBox="0 0 24 24" fill="none" xmlns="http://www.w3.org/2000/svg">
<g clip-path="url(#clip0_3233_8855)">
<rect width="24" height="24" fill="white"/>
<path d="M11.7534 3.475H5.00342V3H19.0034V3.475H12.2534V12.275H11.7534V3.475ZM12.0034 13.9C13.3534 13.9 14.5618 13.8167 15.6284 13.65C16.6951 13.4833 17.5201 13.2583 18.1034 12.975C18.7034 12.675 19.0034 12.3333 19.0034 11.95C19.0034 11.5833 18.7034 11.2583 18.1034 10.975C17.5201 10.6917 16.6951 10.475 15.6284 10.325C14.5618 10.1583 13.3534 10.075 12.0034 10.075C10.6534 10.075 9.44508 10.1583 8.37842 10.325C7.31175 10.475 6.47842 10.6917 5.87842 10.975C5.29508 11.2583 5.00342 11.5833 5.00342 11.95C5.00342 12.3333 5.29508 12.675 5.87842 12.975C6.47842 13.2583 7.31175 13.4833 8.37842 13.65C9.44508 13.8167 10.6534 13.9 12.0034 13.9ZM12.0034 14.375C9.78675 14.375 7.97842 14.1667 6.57842 13.75C5.19508 13.3333 4.50342 12.7333 4.50342 11.95C4.50342 11.1833 5.19508 10.6 6.57842 10.2C7.97842 9.8 9.78675 9.6 12.0034 9.6C14.2201 9.6 16.0201 9.8 17.4034 10.2C18.8034 10.6 19.5034 11.1833 19.5034 11.95C19.5034 12.7333 18.8034 13.3333 17.4034 13.75C16.0201 14.1667 14.2201 14.375 12.0034 14.375ZM11.7534 14.2H12.2534V21H11.7534V14.2Z" fill="black"/>
</g>
<defs>
<clipPath id="clip0_3233_8855">
<rect width="24" height="24" fill="white"/>
</clipPath>
</defs>
</svg>
