<svg width="24" height="24" viewBox="0 0 24 24" fill="none" xmlns="http://www.w3.org/2000/svg">
<g clip-path="url(#clip0_3234_9720)">
<rect width="24" height="24" fill="white"/>
<path d="M12.0069 3.925H5.40693V3H19.5819V3.925H12.9819V12.475H12.0069V3.925ZM12.5069 14.125C13.8236 14.125 14.9986 14.0417 16.0319 13.875C17.0819 13.7083 17.8903 13.4833 18.4569 13.2C19.0403 12.9 19.3319 12.55 19.3319 12.15C19.3319 11.7833 19.0403 11.4583 18.4569 11.175C17.8736 10.8917 17.0653 10.6667 16.0319 10.5C14.9986 10.3333 13.8236 10.25 12.5069 10.25C11.1736 10.25 9.99027 10.3333 8.95693 10.5C7.9236 10.6667 7.11527 10.8917 6.53193 11.175C5.9486 11.4583 5.65693 11.7833 5.65693 12.15C5.65693 12.55 5.9486 12.9 6.53193 13.2C7.11527 13.4833 7.9236 13.7083 8.95693 13.875C9.99027 14.0417 11.1736 14.125 12.5069 14.125ZM12.5069 15C10.1736 15 8.2986 14.7583 6.88193 14.275C5.48193 13.775 4.78193 13.0667 4.78193 12.15C4.78193 11.2667 5.48193 10.5917 6.88193 10.125C8.2986 9.64167 10.1736 9.4 12.5069 9.4C14.8236 9.4 16.6903 9.64167 18.1069 10.125C19.5236 10.5917 20.2319 11.2667 20.2319 12.15C20.2319 13.0667 19.5236 13.775 18.1069 14.275C16.6903 14.7583 14.8236 15 12.5069 15ZM12.0069 14.75H12.9819V21H12.0069V14.75Z" fill="black"/>
</g>
<defs>
<clipPath id="clip0_3234_9720">
<rect width="24" height="24" fill="white"/>
</clipPath>
</defs>
</svg>
