<svg width="24" height="24" viewBox="0 0 24 24" fill="none" xmlns="http://www.w3.org/2000/svg">
<g clip-path="url(#clip0_3254_19310)">
<rect width="24" height="24" fill="white"/>
<path d="M8.7 16.4C9.45 17.0667 10.5583 17.4 12.025 17.4C13.4583 17.4 14.55 17.0667 15.3 16.4C16.05 15.7167 16.425 14.7 16.425 13.35V7.2H13.55V13.3C13.55 13.75 13.4167 14.1083 13.15 14.375C12.9 14.6417 12.525 14.775 12.025 14.775C11.5083 14.775 11.1167 14.6417 10.85 14.375C10.5833 14.1083 10.45 13.75 10.45 13.3V7.2H7.575V13.375C7.575 14.7083 7.95 15.7167 8.7 16.4ZM19.25 20.55C18.7167 20.85 18.1333 21 17.5 21H6.5C5.86667 21 5.275 20.85 4.725 20.55C4.19167 20.2333 3.76667 19.8083 3.45 19.275C3.15 18.725 3 18.1333 3 17.5V6.5C3 5.86667 3.15 5.28333 3.45 4.75C3.76667 4.2 4.19167 3.775 4.725 3.475C5.275 3.15833 5.86667 3 6.5 3H17.5C18.1333 3 18.7167 3.15833 19.25 3.475C19.8 3.775 20.225 4.2 20.525 4.75C20.8417 5.28333 21 5.86667 21 6.5V17.5C21 18.1333 20.8417 18.725 20.525 19.275C20.225 19.8083 19.8 20.2333 19.25 20.55Z" fill="black"/>
</g>
<defs>
<clipPath id="clip0_3254_19310">
<rect width="24" height="24" fill="white"/>
</clipPath>
</defs>
</svg>
