<svg width="24" height="24" viewBox="0 0 24 24" fill="none" xmlns="http://www.w3.org/2000/svg">
<g clip-path="url(#clip0_3254_19312)">
<rect width="24" height="24" fill="white"/>
<path d="M8.575 16.475C9.35833 17.1583 10.5083 17.5 12.025 17.5C13.525 17.5 14.6583 17.1583 15.425 16.475C16.1917 15.775 16.575 14.7333 16.575 13.35V7.125H13.225V13.3C13.225 13.6167 13.125 13.8833 12.925 14.1C12.725 14.3 12.425 14.4 12.025 14.4C11.6083 14.4 11.2917 14.3 11.075 14.1C10.875 13.8833 10.775 13.6167 10.775 13.3V7.125H7.425V13.375C7.425 14.7417 7.80833 15.775 8.575 16.475ZM19.25 20.55C18.7167 20.85 18.1333 21 17.5 21H6.5C5.86667 21 5.275 20.85 4.725 20.55C4.19167 20.2333 3.76667 19.8083 3.45 19.275C3.15 18.725 3 18.1333 3 17.5V6.5C3 5.86667 3.15 5.28333 3.45 4.75C3.76667 4.2 4.19167 3.775 4.725 3.475C5.275 3.15833 5.86667 3 6.5 3H17.5C18.1333 3 18.7167 3.15833 19.25 3.475C19.8 3.775 20.225 4.2 20.525 4.75C20.8417 5.28333 21 5.86667 21 6.5V17.5C21 18.1333 20.8417 18.725 20.525 19.275C20.225 19.8083 19.8 20.2333 19.25 20.55Z" fill="black"/>
</g>
<defs>
<clipPath id="clip0_3254_19312">
<rect width="24" height="24" fill="white"/>
</clipPath>
</defs>
</svg>
