<svg width="24" height="24" viewBox="0 0 24 24" fill="none" xmlns="http://www.w3.org/2000/svg">
<g clip-path="url(#clip0_3254_18478)">
<rect width="24" height="24" fill="white"/>
<path d="M8.7 16.4C9.45 17.0833 10.5583 17.425 12.025 17.425C13.4583 17.425 14.55 17.0833 15.3 16.4C16.05 15.7167 16.425 14.7 16.425 13.35V7.225H13.55V13.325C13.55 13.775 13.4167 14.1333 13.15 14.4C12.9 14.65 12.525 14.775 12.025 14.775C11.5083 14.775 11.1167 14.6417 10.85 14.375C10.5833 14.1083 10.45 13.75 10.45 13.3V7.225H7.575V13.375C7.575 14.7083 7.95 15.7167 8.7 16.4ZM17.05 20.675C15.5333 21.5583 13.85 22 12 22C10.15 22 8.45833 21.5583 6.925 20.675C5.40833 19.7917 4.20833 18.5917 3.325 17.075C2.44167 15.5417 2 13.85 2 12C2 10.15 2.44167 8.46667 3.325 6.95C4.20833 5.41667 5.40833 4.20833 6.925 3.325C8.45833 2.44167 10.15 2 12 2C13.85 2 15.5333 2.44167 17.05 3.325C18.5833 4.20833 19.7917 5.41667 20.675 6.95C21.5583 8.46667 22 10.15 22 12C22 13.85 21.5583 15.5417 20.675 17.075C19.7917 18.5917 18.5833 19.7917 17.05 20.675Z" fill="black"/>
</g>
<defs>
<clipPath id="clip0_3254_18478">
<rect width="24" height="24" fill="white"/>
</clipPath>
</defs>
</svg>
