<svg width="24" height="24" viewBox="0 0 24 24" fill="none" xmlns="http://www.w3.org/2000/svg">
<g clip-path="url(#clip0_3234_11150)">
<rect width="24" height="24" fill="white"/>
<path d="M12 22C10.15 22 8.45833 21.5583 6.925 20.675C5.40833 19.7917 4.20833 18.5917 3.325 17.075C2.44167 15.5417 2 13.85 2 12C2 10.15 2.44167 8.46667 3.325 6.95C4.20833 5.41667 5.40833 4.20833 6.925 3.325C8.45833 2.44167 10.15 2 12 2C13.85 2 15.5333 2.44167 17.05 3.325C18.5833 4.20833 19.7917 5.41667 20.675 6.95C21.5583 8.46667 22 10.15 22 12C22 13.85 21.5583 15.5417 20.675 17.075C19.7917 18.5917 18.5833 19.7917 17.05 20.675C15.5333 21.5583 13.85 22 12 22ZM9.625 17.25L11.7 9.725C11.7833 9.45833 11.85 9.19167 11.9 8.925C11.9333 8.825 11.9667 8.7 12 8.55C12.1167 9 12.2167 9.39167 12.3 9.725L14.45 17.25H15.825L18.15 7.525H17.175L15.375 15.1C15.275 15.5667 15.1917 15.975 15.125 16.325L15 15.85C14.9333 15.55 14.8667 15.2917 14.8 15.075L12.65 7.525H11.375L9.25 15.2C9.18333 15.45 9.11667 15.6833 9.05 15.9L8.975 16.275L8.875 15.8C8.84167 15.6 8.8 15.4083 8.75 15.225L6.875 7.525H5.85L8.275 17.25H9.625Z" fill="black"/>
</g>
<defs>
<clipPath id="clip0_3234_11150">
<rect width="24" height="24" fill="white"/>
</clipPath>
</defs>
</svg>
