<svg width="24" height="24" viewBox="0 0 24 24" fill="none" xmlns="http://www.w3.org/2000/svg">
<g clip-path="url(#clip0_3254_19348)">
<rect width="24" height="24" fill="white"/>
<path d="M7.37549 21C6.57549 21 5.83382 20.8083 5.15049 20.425C4.48382 20.0417 3.95882 19.5167 3.57549 18.85C3.19216 18.1667 3.00049 17.425 3.00049 16.625V7.375C3.00049 6.575 3.19216 5.84167 3.57549 5.175C3.95882 4.49167 4.48382 3.95833 5.15049 3.575C5.83382 3.19167 6.57549 3 7.37549 3H16.4255C17.2588 3 18.0255 3.19167 18.7255 3.575C19.4255 3.95833 19.9755 4.49167 20.3755 5.175C20.7922 5.84167 21.0005 6.575 21.0005 7.375V16.625C21.0005 17.425 20.8088 18.1667 20.4255 18.85C20.0422 19.5167 19.5088 20.0417 18.8255 20.425C18.1588 20.8083 17.4255 21 16.6255 21H7.37549ZM16.6255 18.05C17.0088 18.05 17.3338 17.9167 17.6005 17.65C17.8672 17.3667 18.0005 17.025 18.0005 16.625V7.375C18.0005 6.975 17.8672 6.64167 17.6005 6.375C17.3338 6.09167 17.0088 5.95 16.6255 5.95H7.37549C6.99216 5.95 6.66716 6.09167 6.40049 6.375C6.13382 6.64167 6.00049 6.975 6.00049 7.375V16.625C6.00049 17.025 6.13382 17.3667 6.40049 17.65C6.66716 17.9167 6.99216 18.05 7.37549 18.05H16.6255ZM6.50049 7.35H9.00049L9.45049 10.375C9.51716 10.9583 9.58382 11.5333 9.65049 12.1C9.86716 13.9 10.0088 15.3167 10.0755 16.35H9.60049C9.61716 15.6167 9.65049 14.9083 9.70049 14.225C9.76716 13.525 9.85049 12.6417 9.95049 11.575L10.1255 10.375L10.6755 7.35H13.3255L13.9005 10.375C13.9838 10.9083 14.0838 11.575 14.2005 12.375C14.3338 13.2583 14.4255 13.9917 14.4755 14.575C14.5422 15.1417 14.5922 15.7333 14.6255 16.35H14.1505C14.2005 15.3667 14.2422 14.5917 14.2755 14.025C14.3422 12.8083 14.4422 11.6 14.5755 10.4L15.0005 7.35H17.4755L16.0755 16.725H12.9755L12.4005 13.85C12.2172 12.55 12.0755 11.3917 11.9755 10.375C11.9088 9.40833 11.8672 8.625 11.8505 8.025H12.2505C12.2338 8.925 12.1755 9.86667 12.0755 10.85C11.9922 11.8167 11.8672 12.825 11.7005 13.875L11.1755 16.725H8.10049L6.50049 7.35Z" fill="black"/>
</g>
<defs>
<clipPath id="clip0_3254_19348">
<rect width="24" height="24" fill="white"/>
</clipPath>
</defs>
</svg>
