<svg width="24" height="24" viewBox="0 0 24 24" fill="none" xmlns="http://www.w3.org/2000/svg">
<g clip-path="url(#clip0_3321_9862)">
<rect width="24" height="24" fill="white"/>
<path d="M12 22C10.15 22 8.45833 21.5583 6.925 20.675C5.40833 19.7917 4.20833 18.5917 3.325 17.075C2.44167 15.5417 2 13.85 2 12C2 10.15 2.44167 8.46667 3.325 6.95C4.20833 5.41667 5.40833 4.20833 6.925 3.325C8.45833 2.44167 10.15 2 12 2C13.85 2 15.5333 2.44167 17.05 3.325C18.5833 4.20833 19.7917 5.41667 20.675 6.95C21.5583 8.46667 22 10.15 22 12C22 13.85 21.5583 15.5417 20.675 17.075C19.7917 18.5917 18.5833 19.7917 17.05 20.675C15.5333 21.5583 13.85 22 12 22ZM11.275 17.475L11.675 13.15C11.725 12.6833 11.8 12.1917 11.9 11.675C11.95 11.425 11.9917 11.1833 12.025 10.95C12.1417 11.6667 12.25 12.3917 12.35 13.125L12.875 17.475H17.175L19 7.3H15.775L15.2 11.9C15.1 12.6833 15 13.4667 14.9 14.25L14.75 13.425C14.6833 12.9083 14.6083 12.3917 14.525 11.875L14 7.3H10L9.55 11.825C9.51667 12.175 9.45 12.6917 9.35 13.375L9.225 14.35L9.05 13.225C8.95 12.7417 8.875 12.2667 8.825 11.8L8.225 7.3H4.975L6.9 17.475H11.275Z" fill="black"/>
</g>
<defs>
<clipPath id="clip0_3321_9862">
<rect width="24" height="24" fill="white"/>
</clipPath>
</defs>
</svg>
