<svg width="24" height="24" viewBox="0 0 24 24" fill="none" xmlns="http://www.w3.org/2000/svg">
<g clip-path="url(#clip0_3254_19348)">
<rect width="24" height="24" fill="white"/>
<path d="M7.32549 21C6.52549 21 5.79216 20.8083 5.12549 20.425C4.47549 20.0417 3.95882 19.525 3.57549 18.875C3.19216 18.2083 3.00049 17.475 3.00049 16.675V7.325C3.00049 6.525 3.19216 5.8 3.57549 5.15C3.95882 4.48333 4.47549 3.95833 5.12549 3.575C5.79216 3.19167 6.52549 3 7.32549 3H16.5005C17.3172 3 18.0672 3.19167 18.7505 3.575C19.4505 3.95833 20.0005 4.48333 20.4005 5.15C20.8005 5.8 21.0005 6.525 21.0005 7.325V16.675C21.0005 17.475 20.8088 18.2083 20.4255 18.875C20.0422 19.525 19.5172 20.0417 18.8505 20.425C18.2005 20.8083 17.4755 21 16.6755 21H7.32549ZM16.6755 18.125C17.0588 18.125 17.3838 17.9833 17.6505 17.7C17.9338 17.4167 18.0755 17.075 18.0755 16.675V7.325C18.0755 6.925 17.9338 6.58333 17.6505 6.3C17.3838 6.01667 17.0588 5.875 16.6755 5.875H7.32549C6.94216 5.875 6.60882 6.01667 6.32549 6.3C6.05882 6.58333 5.92549 6.925 5.92549 7.325V16.675C5.92549 17.075 6.05882 17.4167 6.32549 17.7C6.60882 17.9833 6.94216 18.125 7.32549 18.125H16.6755ZM6.40049 7.35H8.90049L9.37549 10.375C9.69216 12.475 9.90882 14.4667 10.0255 16.35H9.55049C9.56716 15.8833 9.60049 15.2333 9.65049 14.4C9.75049 13.1833 9.89216 11.8417 10.0755 10.375L10.6005 7.35H13.3755L13.9505 10.375C14.0672 11.1417 14.1755 11.8417 14.2755 12.475C14.3922 13.325 14.4838 14.0333 14.5505 14.6C14.6172 15.1667 14.6672 15.75 14.7005 16.35H14.2255L14.3255 14.85C14.3755 13.0167 14.4755 11.5333 14.6255 10.4L15.1005 7.35H17.5755L16.1505 16.725H13.0255L12.4755 13.85C12.3755 13.2167 12.2838 12.6167 12.2005 12.05C12.1338 11.4667 12.0755 10.9083 12.0255 10.375C11.9255 9.60833 11.8672 8.825 11.8505 8.025H12.2255C12.2255 8.95833 12.1755 9.91667 12.0755 10.9C11.9922 11.8833 11.8755 12.875 11.7255 13.875L11.2005 16.725H8.05049L6.40049 7.35Z" fill="black"/>
</g>
<defs>
<clipPath id="clip0_3254_19348">
<rect width="24" height="24" fill="white"/>
</clipPath>
</defs>
</svg>
