<svg width="24" height="24" viewBox="0 0 24 24" fill="none" xmlns="http://www.w3.org/2000/svg">
<g clip-path="url(#clip0_3254_19350)">
<rect width="24" height="24" fill="white"/>
<path d="M7.57549 21C6.72549 21 5.95049 20.8 5.25049 20.4C4.55049 20 4.00049 19.45 3.60049 18.75C3.20049 18.05 3.00049 17.275 3.00049 16.425V7.575C3.00049 6.725 3.20049 5.95 3.60049 5.25C4.00049 4.55 4.55049 4 5.25049 3.6C5.95049 3.2 6.72549 3 7.57549 3H16.1505C17.0338 3 17.8422 3.2 18.5755 3.6C19.3255 4 19.9172 4.55 20.3505 5.25C20.7838 5.95 21.0005 6.725 21.0005 7.575V16.425C21.0005 17.275 20.8005 18.05 20.4005 18.75C20.0005 19.45 19.4505 20 18.7505 20.4C18.0505 20.8 17.2755 21 16.4255 21H7.57549ZM16.4255 17.5C16.7088 17.5 16.9505 17.4 17.1505 17.2C17.3505 16.9833 17.4505 16.725 17.4505 16.425V7.55C17.4505 7.25 17.3505 7 17.1505 6.8C16.9505 6.6 16.7088 6.5 16.4255 6.5H7.57549C7.29216 6.5 7.05049 6.60833 6.85049 6.825C6.65049 7.025 6.55049 7.275 6.55049 7.575V16.425C6.55049 16.725 6.65049 16.9833 6.85049 17.2C7.05049 17.4 7.29216 17.5 7.57549 17.5H16.4255ZM6.75049 7.4H9.57549L9.72549 8.825C9.80882 9.54167 9.88382 10.2583 9.95049 10.975C10.2172 13.3083 10.3755 15.0583 10.4255 16.225H9.90049C9.91716 15.2417 9.95882 14.2583 10.0255 13.275C10.1088 12.275 10.2255 11.0333 10.3755 9.55L10.4505 8.825L10.6005 7.4H13.4255L13.6005 8.85C13.6505 9.21667 13.7422 9.9 13.8755 10.9C14.0422 12.0833 14.1672 13.075 14.2505 13.875C14.3338 14.6583 14.3838 15.4417 14.4005 16.225H13.9005C13.9338 14.9583 13.9672 14 14.0005 13.35C14.0505 11.85 14.1505 10.35 14.3005 8.85L14.4505 7.4H17.2505L16.0255 16.625H12.6255L12.4505 15.35C12.2338 13.7167 12.0838 12.3083 12.0005 11.125C11.9338 9.89167 11.9005 8.93333 11.9005 8.25H12.2755C12.2755 9.46667 12.2338 10.625 12.1505 11.725C12.0672 12.825 11.9338 14.0333 11.7505 15.35L11.5755 16.625H8.25049L6.75049 7.4Z" fill="black"/>
</g>
<defs>
<clipPath id="clip0_3254_19350">
<rect width="24" height="24" fill="white"/>
</clipPath>
</defs>
</svg>
