<svg width="24" height="24" viewBox="0 0 24 24" fill="none" xmlns="http://www.w3.org/2000/svg">
<g clip-path="url(#clip0_3321_9844)">
<rect width="24" height="24" fill="white"/>
<path d="M6.05049 7.8H8.32549L9.07549 12.475C9.15882 13.025 9.25882 13.725 9.37549 14.575C9.47549 15.4583 9.55049 16.2083 9.60049 16.825H9.12549C9.15882 16.5583 9.19216 16.2833 9.22549 16C9.35882 14.8 9.51716 13.625 9.70049 12.475L10.6755 7.8H13.3255L14.3505 12.45C14.4338 12.85 14.5005 13.2333 14.5505 13.6C14.6172 13.9667 14.6838 14.3667 14.7505 14.8C14.8672 15.5667 14.9588 16.2417 15.0255 16.825H14.5505C14.6005 16.425 14.6505 15.9833 14.7005 15.5C14.7338 14.9833 14.7672 14.4667 14.8005 13.95C14.8505 13.4333 14.9005 12.9417 14.9505 12.475L15.6755 7.8H17.9255L16.3505 17.2H13.3755L12.3505 12.725C12.2172 11.825 12.0755 10.95 11.9255 10.1C11.8588 9.55 11.7922 8.95833 11.7255 8.325H12.3005C12.2838 8.60833 12.2588 8.95833 12.2255 9.375C12.0588 10.6083 11.8838 11.7333 11.7005 12.75L10.7505 17.2H7.77549L6.05049 7.8ZM12.0005 22C10.1672 22 8.48382 21.5583 6.95049 20.675C5.41716 19.7917 4.20882 18.5833 3.32549 17.05C2.44216 15.5167 2.00049 13.8333 2.00049 12C2.00049 10.1667 2.44216 8.48333 3.32549 6.95C4.20882 5.41667 5.41716 4.20833 6.95049 3.325C8.48382 2.44167 10.1672 2 12.0005 2C13.8338 2 15.5172 2.44167 17.0505 3.325C18.5838 4.20833 19.7922 5.41667 20.6755 6.95C21.5588 8.48333 22.0005 10.1667 22.0005 12C22.0005 13.8333 21.5588 15.5167 20.6755 17.05C19.7922 18.5833 18.5838 19.7917 17.0505 20.675C15.5172 21.5583 13.8338 22 12.0005 22ZM12.0005 19.625C13.4005 19.625 14.6755 19.2917 15.8255 18.625C16.9922 17.9417 17.9088 17.025 18.5755 15.875C19.2422 14.7083 19.5755 13.4167 19.5755 12C19.5755 10.5833 19.2422 9.3 18.5755 8.15C17.9088 6.98333 16.9922 6.06667 15.8255 5.4C14.6755 4.71667 13.4005 4.375 12.0005 4.375C10.6005 4.375 9.31716 4.71667 8.15049 5.4C7.00049 6.06667 6.09215 6.98333 5.42549 8.15C4.75882 9.3 4.42549 10.5833 4.42549 12C4.42549 13.4167 4.75882 14.7083 5.42549 15.875C6.09215 17.025 7.00049 17.9417 8.15049 18.625C9.31716 19.2917 10.6005 19.625 12.0005 19.625Z" fill="black"/>
</g>
<defs>
<clipPath id="clip0_3321_9844">
<rect width="24" height="24" fill="white"/>
</clipPath>
</defs>
</svg>
