<svg width="24" height="24" viewBox="0 0 24 24" fill="none" xmlns="http://www.w3.org/2000/svg">
<g clip-path="url(#clip0_3233_6339)">
<rect width="24" height="24" fill="white"/>
<path d="M6.50049 21C5.86716 21 5.27549 20.85 4.72549 20.55C4.19216 20.2333 3.76716 19.8083 3.45049 19.275C3.15049 18.725 3.00049 18.1333 3.00049 17.5V6.5C3.00049 5.86667 3.15049 5.28333 3.45049 4.75C3.76716 4.2 4.19216 3.775 4.72549 3.475C5.27549 3.15833 5.86716 3 6.50049 3H17.5005C18.1338 3 18.7172 3.15833 19.2505 3.475C19.8005 3.775 20.2255 4.2 20.5255 4.75C20.8422 5.28333 21.0005 5.86667 21.0005 6.5V17.5C21.0005 18.1333 20.8422 18.725 20.5255 19.275C20.2255 19.8083 19.8005 20.2333 19.2505 20.55C18.7172 20.85 18.1338 21 17.5005 21H6.50049ZM17.5005 20.525C18.3338 20.525 19.0422 20.2333 19.6255 19.65C20.2088 19.0667 20.5005 18.35 20.5005 17.5V6.5C20.5005 5.65 20.2088 4.93333 19.6255 4.35C19.0422 3.76667 18.3338 3.475 17.5005 3.475H6.50049C5.66716 3.475 4.95882 3.76667 4.37549 4.35C3.79216 4.93333 3.50049 5.65 3.50049 6.5V17.5C3.50049 18.35 3.79216 19.0667 4.37549 19.65C4.95882 20.2333 5.66716 20.525 6.50049 20.525H17.5005ZM6.02549 7.225H6.55049L8.72549 15.625C8.82549 15.9917 8.91716 16.3667 9.00049 16.75H8.82549C8.85882 16.6167 8.89216 16.4917 8.92549 16.375C9.00882 16.1083 9.08382 15.85 9.15049 15.6L11.6505 7.225H12.3505L14.8505 15.45C14.9005 15.6 14.9505 15.7583 15.0005 15.925C15.0505 16.125 15.0922 16.275 15.1255 16.375C15.1588 16.4583 15.2005 16.5917 15.2505 16.775H15.0755L15.1255 16.525C15.2255 16.175 15.3172 15.825 15.4005 15.475L17.4755 7.225H17.9755L15.5255 16.95H14.8005L12.2755 8.7C12.2422 8.58333 12.2088 8.46667 12.1755 8.35C12.1422 8.21667 12.1088 8.09167 12.0755 7.975C12.0255 7.825 11.9755 7.675 11.9255 7.525H12.0755C11.9922 7.79167 11.9338 7.99167 11.9005 8.125C11.8672 8.24167 11.8088 8.43333 11.7255 8.7L9.25049 16.95H8.55049L6.02549 7.225Z" fill="black"/>
</g>
<defs>
<clipPath id="clip0_3233_6339">
<rect width="24" height="24" fill="white"/>
</clipPath>
</defs>
</svg>
