<svg width="24" height="24" viewBox="0 0 24 24" fill="none" xmlns="http://www.w3.org/2000/svg">
<g clip-path="url(#clip0_3321_9848)">
<rect width="24" height="24" fill="white"/>
<path d="M6.65049 8.175H9.47549L9.60049 9.65C9.68382 10.4833 9.75882 11.325 9.82549 12.175C9.99216 13.7917 10.1088 15.2333 10.1755 16.5H9.72549C9.75882 16.0333 9.78382 15.575 9.80049 15.125C9.90049 13.5583 10.0588 11.7333 10.2755 9.65L10.4505 8.175H13.5505L13.7505 9.675C13.8172 10.2083 13.8588 10.6 13.8755 10.85C13.9088 11.1 13.9588 11.4833 14.0255 12C14.2755 13.7833 14.4338 15.2833 14.5005 16.5H14.0755C14.0922 16.2 14.1005 15.775 14.1005 15.225C14.1338 14.3083 14.1672 13.3667 14.2005 12.4C14.2505 11.4167 14.3088 10.5083 14.3755 9.675L14.5005 8.175H17.3005L16.2505 16.9H12.6255L12.4255 15.65C12.1588 13.6333 12.0005 12.325 11.9505 11.725C11.8838 10.975 11.8505 10.075 11.8505 9.025H12.3005C12.3005 9.54167 12.2838 10.2333 12.2505 11.1C12.1838 12.3667 12.0255 13.8833 11.7755 15.65L11.6005 16.9H7.95049L6.65049 8.175ZM12.0005 22C10.1672 22 8.48382 21.5583 6.95049 20.675C5.41716 19.7917 4.20882 18.5833 3.32549 17.05C2.44216 15.5167 2.00049 13.8333 2.00049 12C2.00049 10.1667 2.44216 8.48333 3.32549 6.95C4.20882 5.41667 5.41716 4.20833 6.95049 3.325C8.48382 2.44167 10.1672 2 12.0005 2C13.8338 2 15.5172 2.44167 17.0505 3.325C18.5838 4.20833 19.7922 5.41667 20.6755 6.95C21.5588 8.48333 22.0005 10.1667 22.0005 12C22.0005 13.8333 21.5588 15.5167 20.6755 17.05C19.7922 18.5833 18.5838 19.7917 17.0505 20.675C15.5172 21.5583 13.8338 22 12.0005 22ZM12.0005 18.5C13.1838 18.5 14.2672 18.2167 15.2505 17.65C16.2505 17.0667 17.0338 16.2833 17.6005 15.3C18.1672 14.3 18.4505 13.2 18.4505 12C18.4505 10.8 18.1672 9.70833 17.6005 8.725C17.0338 7.725 16.2505 6.94167 15.2505 6.375C14.2672 5.79167 13.1838 5.5 12.0005 5.5C10.8172 5.5 9.72549 5.79167 8.72549 6.375C7.74216 6.94167 6.96716 7.725 6.40049 8.725C5.83382 9.70833 5.55049 10.8 5.55049 12C5.55049 13.2 5.83382 14.3 6.40049 15.3C6.96716 16.2833 7.74216 17.0667 8.72549 17.65C9.72549 18.2167 10.8172 18.5 12.0005 18.5Z" fill="black"/>
</g>
<defs>
<clipPath id="clip0_3321_9848">
<rect width="24" height="24" fill="white"/>
</clipPath>
</defs>
</svg>
