<svg width="24" height="24" viewBox="0 0 24 24" fill="none" xmlns="http://www.w3.org/2000/svg">
<g clip-path="url(#clip0_3254_19342)">
<rect width="24" height="24" fill="white"/>
<path d="M6.82549 21C6.12549 21 5.47549 20.8333 4.87549 20.5C4.29216 20.1667 3.83382 19.7083 3.50049 19.125C3.16716 18.525 3.00049 17.875 3.00049 17.175V6.825C3.00049 6.125 3.16716 5.48333 3.50049 4.9C3.83382 4.3 4.29216 3.83333 4.87549 3.5C5.47549 3.16667 6.12549 3 6.82549 3H17.1755C17.8755 3 18.5172 3.16667 19.1005 3.5C19.7005 3.83333 20.1672 4.3 20.5005 4.9C20.8338 5.48333 21.0005 6.125 21.0005 6.825V17.175C21.0005 17.875 20.8338 18.525 20.5005 19.125C20.1672 19.7083 19.7005 20.1667 19.1005 20.5C18.5172 20.8333 17.8755 21 17.1755 21H6.82549ZM17.1755 19.6C17.8422 19.6 18.4088 19.3667 18.8755 18.9C19.3422 18.4333 19.5755 17.8583 19.5755 17.175V6.825C19.5755 6.14167 19.3422 5.56667 18.8755 5.1C18.4088 4.63333 17.8422 4.4 17.1755 4.4H6.82549C6.15882 4.4 5.59216 4.63333 5.12549 5.1C4.65882 5.56667 4.42549 6.14167 4.42549 6.825V17.175C4.42549 17.8583 4.65882 18.4333 5.12549 18.9C5.59216 19.3667 6.15882 19.6 6.82549 19.6H17.1755ZM6.00049 7.225H7.42549L8.82549 14.2C8.87549 14.4167 8.91716 14.6417 8.95049 14.875C9.06716 15.4583 9.17549 16.05 9.27549 16.65H8.92549C8.95882 16.45 8.98382 16.3083 9.00049 16.225C9.01716 16.125 9.04216 15.9833 9.07549 15.8L9.37549 14.2L11.0755 7.225H12.8755L14.6255 14.125C14.7422 14.725 14.8338 15.2 14.9005 15.55C14.9505 15.8 14.9838 15.9833 15.0005 16.1C15.0338 16.2167 15.0755 16.4 15.1255 16.65H14.8005C14.8505 16.3333 14.9005 16.025 14.9505 15.725C15.0338 15.175 15.1255 14.65 15.2255 14.15L16.5755 7.225H17.9505L15.9755 16.95H14.0255L12.3005 10.15C12.1838 9.58333 12.0838 9.06667 12.0005 8.6C11.9338 8.25 11.8672 7.9 11.8005 7.55H12.1505C12.1005 7.81667 12.0338 8.21667 11.9505 8.75C11.8672 9.26667 11.7672 9.74167 11.6505 10.175L10.0005 16.95H8.07549L6.00049 7.225Z" fill="black"/>
</g>
<defs>
<clipPath id="clip0_3254_19342">
<rect width="24" height="24" fill="white"/>
</clipPath>
</defs>
</svg>
