<svg width="24" height="24" viewBox="0 0 24 24" fill="none" xmlns="http://www.w3.org/2000/svg">
<g clip-path="url(#clip0_3234_9358)">
<rect width="24" height="24" fill="white"/>
<path d="M1.23076 3H2.75576L6.48076 17.825C6.6141 18.375 6.7391 18.925 6.85576 19.475C6.92243 19.7083 6.9641 19.8833 6.98076 20C7.0141 20.1 7.05576 20.2583 7.10576 20.475L6.63076 20.5C6.7141 20.1833 6.79743 19.8667 6.88076 19.55C7.03076 19 7.1891 18.4167 7.35576 17.8L11.4308 3H13.4558L17.7558 17.55C17.8891 17.9333 18.0474 18.45 18.2308 19.1L18.6058 20.525L18.2058 20.5L18.3808 19.65C18.5641 18.9167 18.7224 18.225 18.8558 17.575L22.2808 2.975L23.7808 3L19.5058 21H17.2808L13.0058 6.55C12.8558 6.08333 12.7474 5.73333 12.6808 5.5C12.6308 5.26667 12.5308 4.91667 12.3808 4.45C12.2974 4.15 12.2141 3.85833 12.1308 3.575H12.7308C12.6308 3.925 12.5308 4.28333 12.4308 4.65C12.2474 5.33333 12.0724 5.96667 11.9058 6.55L7.90576 21H5.75576L1.23076 3ZM0.705762 11.025H24.3058V12.275H0.705762V11.025Z" fill="black"/>
</g>
<defs>
<clipPath id="clip0_3234_9358">
<rect width="24" height="24" fill="white"/>
</clipPath>
</defs>
</svg>
