<svg width="24" height="24" viewBox="0 0 24 24" fill="none" xmlns="http://www.w3.org/2000/svg">
<g clip-path="url(#clip0_3181_24828)">
<rect width="24" height="24" fill="white"/>
<path d="M1.00049 6.45V3H23.0005V6.45H1.00049ZM4.90049 12.125V11.875V12.125ZM12.7505 19.325H9.30049V5.025H12.7505V19.325ZM20.0005 17.5C20.0005 18.1333 19.8422 18.725 19.5255 19.275C19.2255 19.8083 18.8088 20.2333 18.2755 20.55C17.7422 20.85 17.1505 21 16.5005 21H7.50049C6.86716 21 6.27549 20.85 5.72549 20.55C5.19216 20.2333 4.76716 19.8083 4.45049 19.275C4.15049 18.725 4.00049 18.1333 4.00049 17.5V5.025H7.50049V17.425C7.50049 17.4417 7.50049 17.45 7.50049 17.45C7.50049 17.4833 7.50049 17.5083 7.50049 17.525C7.50049 17.5417 7.50882 17.55 7.52549 17.55H16.4755C16.4922 17.55 16.5005 17.5417 16.5005 17.525C16.5005 17.5083 16.5005 17.4833 16.5005 17.45C16.5005 17.45 16.5005 17.4417 16.5005 17.425V5.025H20.0005V17.5Z" fill="black"/>
</g>
<defs>
<clipPath id="clip0_3181_24828">
<rect width="24" height="24" fill="white"/>
</clipPath>
</defs>
</svg>
