<svg width="24" height="24" viewBox="0 0 24 24" fill="none" xmlns="http://www.w3.org/2000/svg">
<g clip-path="url(#clip0_3181_24854)">
<rect width="24" height="24" fill="white"/>
<path d="M1.00049 6.45V3H23.0005V6.45H1.00049ZM20.0005 21H4.00049V4.1H7.50049V17.55H16.5005V4.1H20.0005V21ZM12.0005 12.875C11.5505 12.875 11.1422 12.775 10.7755 12.575C10.4255 12.3583 10.1422 12.0667 9.92549 11.7C9.72549 11.3333 9.62549 10.9333 9.62549 10.5C9.62549 10.0667 9.72549 9.66667 9.92549 9.3C10.1422 8.93333 10.4255 8.65 10.7755 8.45C11.1422 8.23333 11.5505 8.125 12.0005 8.125C12.4505 8.125 12.8505 8.23333 13.2005 8.45C13.5672 8.65 13.8505 8.93333 14.0505 9.3C14.2672 9.66667 14.3755 10.0667 14.3755 10.5C14.3755 10.9333 14.2672 11.3333 14.0505 11.7C13.8505 12.0667 13.5672 12.3583 13.2005 12.575C12.8505 12.775 12.4505 12.875 12.0005 12.875ZM12.0005 10.5C12.2505 10.5 12.4338 10.5 12.5505 10.5C12.6672 10.5 12.8505 10.5 13.1005 10.5C12.8505 10.5 12.6672 10.5 12.5505 10.5C12.4338 10.5 12.2505 10.5 12.0005 10.5C11.7505 10.5 11.5672 10.5 11.4505 10.5C11.3338 10.5 11.1505 10.5 10.9005 10.5C11.1505 10.5 11.3338 10.5 11.4505 10.5C11.5672 10.5 11.7505 10.5 12.0005 10.5Z" fill="black"/>
</g>
<defs>
<clipPath id="clip0_3181_24854">
<rect width="24" height="24" fill="white"/>
</clipPath>
</defs>
</svg>
