<svg width="24" height="24" viewBox="0 0 24 24" fill="none" xmlns="http://www.w3.org/2000/svg">
<g clip-path="url(#clip0_3181_24852)">
<rect width="24" height="24" fill="white"/>
<path d="M1.00049 5.925V3H23.0005V5.925H1.00049ZM20.0005 21H4.00049V4.1H6.97549V18.075H17.0255V4.1H20.0005V21ZM12.0005 12.525C11.6338 12.525 11.3005 12.4417 11.0005 12.275C10.7172 12.1083 10.4838 11.875 10.3005 11.575C10.1338 11.275 10.0505 10.9417 10.0505 10.575C10.0505 10.225 10.1338 9.9 10.3005 9.6C10.4838 9.3 10.7172 9.06667 11.0005 8.9C11.3005 8.73333 11.6338 8.65 12.0005 8.65C12.3672 8.65 12.6922 8.73333 12.9755 8.9C13.2755 9.06667 13.5088 9.3 13.6755 9.6C13.8588 9.9 13.9505 10.225 13.9505 10.575C13.9505 10.9417 13.8588 11.275 13.6755 11.575C13.5088 11.875 13.2755 12.1083 12.9755 12.275C12.6922 12.4417 12.3672 12.525 12.0005 12.525ZM12.0005 10.575C12.1838 10.575 12.3172 10.575 12.4005 10.575C12.4838 10.575 12.6172 10.575 12.8005 10.575C12.6172 10.575 12.4838 10.575 12.4005 10.575C12.3172 10.575 12.1838 10.575 12.0005 10.575C11.8172 10.575 11.6838 10.575 11.6005 10.575C11.5172 10.575 11.3838 10.575 11.2005 10.575C11.3838 10.575 11.5172 10.575 11.6005 10.575C11.6838 10.575 11.8172 10.575 12.0005 10.575Z" fill="black"/>
</g>
<defs>
<clipPath id="clip0_3181_24852">
<rect width="24" height="24" fill="white"/>
</clipPath>
</defs>
</svg>
