<svg width="24" height="24" viewBox="0 0 24 24" fill="none" xmlns="http://www.w3.org/2000/svg">
<g clip-path="url(#clip0_3176_15465)">
<rect width="24" height="24" fill="white"/>
<path d="M1.00049 3.925V3H23.0005V3.925H1.00049ZM20.0005 21H4.00049V3.6H4.97549V20.075H19.0255V3.6H20.0005V21ZM12.0005 14C11.3505 14 10.7505 13.8417 10.2005 13.525C9.65049 13.2083 9.21716 12.775 8.90049 12.225C8.58382 11.675 8.42549 11.075 8.42549 10.425C8.42549 9.775 8.58382 9.175 8.90049 8.625C9.21716 8.075 9.65049 7.64167 10.2005 7.325C10.7505 7.00833 11.3505 6.85 12.0005 6.85C12.6505 6.85 13.2505 7.00833 13.8005 7.325C14.3505 7.64167 14.7838 8.075 15.1005 8.625C15.4172 9.175 15.5755 9.775 15.5755 10.425C15.5755 11.075 15.4172 11.675 15.1005 12.225C14.7838 12.775 14.3505 13.2083 13.8005 13.525C13.2505 13.8417 12.6505 14 12.0005 14ZM12.0005 13.075C12.7338 13.075 13.3588 12.8167 13.8755 12.3C14.3922 11.7833 14.6505 11.1583 14.6505 10.425C14.6505 9.675 14.3922 9.04167 13.8755 8.525C13.3588 8.00833 12.7338 7.75 12.0005 7.75C11.2672 7.75 10.6422 8.00833 10.1255 8.525C9.60882 9.04167 9.35049 9.675 9.35049 10.425C9.35049 11.1583 9.60882 11.7833 10.1255 12.3C10.6422 12.8167 11.2672 13.075 12.0005 13.075Z" fill="black"/>
</g>
<defs>
<clipPath id="clip0_3176_15465">
<rect width="24" height="24" fill="white"/>
</clipPath>
</defs>
</svg>
