<svg width="24" height="24" viewBox="0 0 24 24" fill="none" xmlns="http://www.w3.org/2000/svg">
<g clip-path="url(#clip0_3176_15487)">
<rect width="24" height="24" fill="white"/>
<path d="M1 6.125V3H23V6.125H1ZM20 21H4V4.85H20V21ZM12 15.275C12.7167 15.275 13.3667 15.1083 13.95 14.775C14.55 14.425 15.0167 13.9583 15.35 13.375C15.7 12.775 15.875 12.125 15.875 11.425C15.875 10.725 15.7 10.0833 15.35 9.5C15.0167 8.9 14.55 8.43333 13.95 8.1C13.3667 7.75 12.7167 7.575 12 7.575C11.2833 7.575 10.625 7.75 10.025 8.1C9.44167 8.43333 8.975 8.9 8.625 9.5C8.29167 10.0833 8.125 10.725 8.125 11.425C8.125 12.125 8.29167 12.775 8.625 13.375C8.975 13.9583 9.44167 14.425 10.025 14.775C10.625 15.1083 11.2833 15.275 12 15.275Z" fill="black"/>
</g>
<defs>
<clipPath id="clip0_3176_15487">
<rect width="24" height="24" fill="white"/>
</clipPath>
</defs>
</svg>
