<svg width="24" height="24" viewBox="0 0 24 24" fill="none" xmlns="http://www.w3.org/2000/svg">
<g clip-path="url(#clip0_3176_15489)">
<rect width="24" height="24" fill="white"/>
<path d="M1 6.75V3H23V6.75H1ZM20 21H4V5.225H20V21ZM12 15.6C12.7167 15.6 13.3667 15.4333 13.95 15.1C14.55 14.75 15.0167 14.2833 15.35 13.7C15.7 13.1 15.875 12.45 15.875 11.75C15.875 11.05 15.7 10.4083 15.35 9.825C15.0167 9.225 14.55 8.75833 13.95 8.425C13.3667 8.075 12.7167 7.9 12 7.9C11.2833 7.9 10.625 8.075 10.025 8.425C9.44167 8.75833 8.975 9.225 8.625 9.825C8.29167 10.4083 8.125 11.05 8.125 11.75C8.125 12.45 8.29167 13.1 8.625 13.7C8.975 14.2833 9.44167 14.75 10.025 15.1C10.625 15.4333 11.2833 15.6 12 15.6Z" fill="black"/>
</g>
<defs>
<clipPath id="clip0_3176_15489">
<rect width="24" height="24" fill="white"/>
</clipPath>
</defs>
</svg>
