<svg width="24" height="24" viewBox="0 0 24 24" fill="none" xmlns="http://www.w3.org/2000/svg">
<g clip-path="url(#clip0_3176_15438)">
<rect width="24" height="24" fill="white"/>
<path d="M1.00049 5.375V3H23.0005V5.375H1.00049ZM4.90049 11.45V11.2V11.45ZM11.4755 19.475H9.10049V4.4H11.4755V19.475ZM20.0005 17.825C20.0005 18.4083 19.8588 18.9417 19.5755 19.425C19.2922 19.9083 18.9088 20.2917 18.4255 20.575C17.9422 20.8583 17.4088 21 16.8255 21H7.17549C6.59216 21 6.05882 20.8583 5.57549 20.575C5.09216 20.2917 4.70882 19.9083 4.42549 19.425C4.14216 18.9417 4.00049 18.4083 4.00049 17.825V4.4H6.42549V17.8C6.42549 17.8667 6.42549 17.925 6.42549 17.975C6.44216 18.025 6.45882 18.075 6.47549 18.125C6.54216 18.275 6.63382 18.4 6.75049 18.5C6.86716 18.5833 7.00882 18.625 7.17549 18.625H16.8255C16.9922 18.625 17.1338 18.5833 17.2505 18.5C17.3672 18.4 17.4588 18.275 17.5255 18.125C17.5422 18.075 17.5505 18.025 17.5505 17.975C17.5672 17.925 17.5755 17.8667 17.5755 17.8V4.4H20.0005V17.825Z" fill="black"/>
</g>
<defs>
<clipPath id="clip0_3176_15438">
<rect width="24" height="24" fill="white"/>
</clipPath>
</defs>
</svg>
