<svg width="24" height="24" viewBox="0 0 24 24" fill="none" xmlns="http://www.w3.org/2000/svg">
<g clip-path="url(#clip0_3257_21374)">
<rect width="24" height="24" fill="white"/>
<path d="M10.7951 0.499999H12.6451V23.5H10.7951V0.499999ZM6.92012 19.15H13.0701C14.2868 19.15 15.2201 18.8833 15.8701 18.35C16.5201 17.8 16.8451 17.0167 16.8451 16C16.8451 14.95 16.4951 14.1667 15.7951 13.65C15.0951 13.1167 14.1535 12.85 12.9701 12.85H6.92012V11.025H12.5951C13.7451 11.025 14.6535 10.75 15.3201 10.2C16.0035 9.65 16.3451 8.88333 16.3451 7.9C16.3451 6.95 16.0285 6.20833 15.3951 5.675C14.7785 5.125 13.9118 4.85 12.7951 4.85H6.92012V3H12.7951C14.5785 3 15.9535 3.425 16.9201 4.275C17.8868 5.10833 18.3701 6.24167 18.3701 7.675C18.3701 9.20833 17.8285 10.375 16.7451 11.175C15.6618 11.9583 14.1201 12.35 12.1201 12.35L12.4951 11.3C14.5451 11.3 16.1201 11.7167 17.2201 12.55C18.3201 13.3833 18.8701 14.575 18.8701 16.125C18.8701 17.675 18.3618 18.875 17.3451 19.725C16.3285 20.575 14.9035 21 13.0701 21H6.92012V19.15ZM5.87012 3H7.87012V21H5.87012V3Z" fill="black"/>
</g>
<defs>
<clipPath id="clip0_3257_21374">
<rect width="24" height="24" fill="white"/>
</clipPath>
</defs>
</svg>
