<svg width="24" height="24" viewBox="0 0 24 24" fill="none" xmlns="http://www.w3.org/2000/svg">
<g clip-path="url(#clip0_3257_21380)">
<rect width="24" height="24" fill="white"/>
<path d="M10.1755 0.499999H12.9005V23.5H10.1755V0.499999ZM6.62549 17.65H13.0755C13.8088 17.65 14.3672 17.475 14.7505 17.125C15.1505 16.7583 15.3505 16.2417 15.3505 15.575C15.3505 14.925 15.1338 14.4333 14.7005 14.1C14.2838 13.75 13.6422 13.575 12.7755 13.575H6.62549V10.375H12.4255C13.2588 10.375 13.8672 10.2167 14.2505 9.9C14.6505 9.56667 14.8505 9.05833 14.8505 8.375C14.8505 7.725 14.6672 7.225 14.3005 6.875C13.9338 6.525 13.4088 6.35 12.7255 6.35H6.62549V3H12.8255C14.7422 3 16.2255 3.41667 17.2755 4.25C18.3422 5.06667 18.8755 6.23333 18.8755 7.75C18.8755 9.3 18.2838 10.4667 17.1005 11.25C15.9172 12.0333 14.2922 12.425 12.2255 12.425L12.6005 11.15C14.7505 11.15 16.4172 11.5583 17.6005 12.375C18.7838 13.1917 19.3755 14.3917 19.3755 15.975C19.3755 17.575 18.8338 18.8167 17.7505 19.7C16.6672 20.5667 15.1422 21 13.1755 21H6.62549V17.65ZM4.62549 3H8.62549V21H4.62549V3Z" fill="black"/>
</g>
<defs>
<clipPath id="clip0_3257_21380">
<rect width="24" height="24" fill="white"/>
</clipPath>
</defs>
</svg>
