<svg width="24" height="24" viewBox="0 0 24 24" fill="none" xmlns="http://www.w3.org/2000/svg">
<g clip-path="url(#clip0_3257_21376)">
<rect width="24" height="24" fill="white"/>
<path d="M10.751 0.499999H12.901V23.5H10.751V0.499999ZM7.00098 18.65H13.251C14.301 18.65 15.1093 18.4083 15.676 17.925C16.2426 17.4417 16.526 16.75 16.526 15.85C16.526 14.9333 16.2176 14.25 15.601 13.8C15.001 13.3333 14.1593 13.1 13.076 13.1H7.00098V10.8H12.701C13.751 10.8 14.5676 10.5667 15.151 10.1C15.7343 9.61667 16.026 8.93333 16.026 8.05C16.026 7.2 15.751 6.54167 15.201 6.075C14.6676 5.59167 13.9176 5.35 12.951 5.35H7.00098V3H12.976C14.8093 3 16.2176 3.41667 17.201 4.25C18.201 5.08333 18.701 6.23333 18.701 7.7C18.701 9.23333 18.1426 10.4 17.026 11.2C15.9093 11.9833 14.3426 12.375 12.326 12.375L12.701 11.25C14.7843 11.25 16.3843 11.6667 17.501 12.5C18.6343 13.3167 19.201 14.5083 19.201 16.075C19.201 17.6417 18.6843 18.8583 17.651 19.725C16.6176 20.575 15.1593 21 13.276 21H7.00098V18.65ZM5.62598 3H8.30098V21H5.62598V3Z" fill="black"/>
</g>
<defs>
<clipPath id="clip0_3257_21376">
<rect width="24" height="24" fill="white"/>
</clipPath>
</defs>
</svg>
