<svg width="24" height="24" viewBox="0 0 24 24" fill="none" xmlns="http://www.w3.org/2000/svg">
<g clip-path="url(#clip0_3257_20981)">
<rect width="24" height="24" fill="white"/>
<path d="M11.6451 0.499999H12.1451V23.5H11.6451V0.499999ZM6.64512 20.5H13.5951C14.9951 20.5 16.0951 20.1167 16.8951 19.35C17.7118 18.5833 18.1201 17.5583 18.1201 16.275C18.1201 14.975 17.7035 13.9667 16.8701 13.25C16.0535 12.5333 14.9201 12.175 13.4701 12.175H6.64512V11.675H13.1701C14.5535 11.675 15.6368 11.325 16.4201 10.625C17.2201 9.90833 17.6201 8.90833 17.6201 7.625C17.6201 6.39167 17.2451 5.4 16.4951 4.65C15.7451 3.88333 14.7118 3.5 13.3951 3.5H6.64512V3H13.3951C14.8618 3 16.0118 3.425 16.8451 4.275C17.6951 5.125 18.1201 6.24167 18.1201 7.625C18.1201 9.025 17.6785 10.125 16.7951 10.925C15.9118 11.7083 14.7035 12.1 13.1701 12.1L13.4701 11.75C15.0868 11.75 16.3451 12.15 17.2451 12.95C18.1618 13.75 18.6201 14.8583 18.6201 16.275C18.6201 17.7083 18.1701 18.8583 17.2701 19.725C16.3701 20.575 15.1451 21 13.5951 21H6.64512V20.5ZM6.37012 3H6.87012V21H6.37012V3Z" fill="black"/>
</g>
<defs>
<clipPath id="clip0_3257_20981">
<rect width="24" height="24" fill="white"/>
</clipPath>
</defs>
</svg>
