<svg width="24" height="24" viewBox="0 0 24 24" fill="none" xmlns="http://www.w3.org/2000/svg">
<g clip-path="url(#clip0_3257_21372)">
<rect width="24" height="24" fill="white"/>
<path d="M11.0701 0.499999H12.4701V23.5H11.0701V0.499999ZM6.82012 19.6H13.2451C14.5285 19.6 15.5201 19.2917 16.2201 18.675C16.9201 18.0583 17.2701 17.2 17.2701 16.1C17.2701 14.9667 16.8951 14.1083 16.1451 13.525C15.4118 12.925 14.4118 12.625 13.1451 12.625H6.82012V11.25H12.7951C14.0118 11.25 14.9785 10.95 15.6951 10.35C16.4118 9.73333 16.7701 8.88333 16.7701 7.8C16.7701 6.76667 16.4368 5.94167 15.7701 5.325C15.1035 4.70833 14.1785 4.4 12.9951 4.4H6.82012V3H12.9951C14.6785 3 15.9785 3.425 16.8951 4.275C17.8285 5.10833 18.2951 6.23333 18.2951 7.65C18.2951 9.15 17.7868 10.3 16.7701 11.1C15.7535 11.8833 14.3201 12.275 12.4701 12.275L12.8201 11.45C14.7201 11.45 16.1868 11.8667 17.2201 12.7C18.2701 13.5167 18.7951 14.675 18.7951 16.175C18.7951 17.6917 18.3035 18.875 17.3201 19.725C16.3368 20.575 14.9785 21 13.2451 21H6.82012V19.6ZM6.04512 3H7.54512V21H6.04512V3Z" fill="black"/>
</g>
<defs>
<clipPath id="clip0_3257_21372">
<rect width="24" height="24" fill="white"/>
</clipPath>
</defs>
</svg>
