<svg width="24" height="24" viewBox="0 0 24 24" fill="none" xmlns="http://www.w3.org/2000/svg">
<g clip-path="url(#clip0_3390_10633)">
<rect width="24" height="24" fill="white"/>
<path d="M5.50049 20C4.86716 20 4.27549 19.85 3.72549 19.55C3.19216 19.2333 2.76716 18.8083 2.45049 18.275C2.15049 17.725 2.00049 17.1333 2.00049 16.5V7.5C2.00049 6.85 2.15049 6.25833 2.45049 5.725C2.76716 5.19167 3.19216 4.775 3.72549 4.475C4.27549 4.15833 4.86716 4 5.50049 4H18.5005C19.1505 4 19.7422 4.15833 20.2755 4.475C20.8088 4.775 21.2255 5.19167 21.5255 5.725C21.8422 6.25833 22.0005 6.85 22.0005 7.5V16.5C22.0005 17.1333 21.8422 17.725 21.5255 18.275C21.2255 18.8083 20.8088 19.2333 20.2755 19.55C19.7422 19.85 19.1505 20 18.5005 20H5.50049ZM18.2755 16.4C18.2922 16.4 18.3088 16.3917 18.3255 16.375C18.3422 16.3583 18.3505 16.3417 18.3505 16.325V7.675C18.3505 7.65833 18.3422 7.64167 18.3255 7.625C18.3088 7.60833 18.2922 7.6 18.2755 7.6H5.72549C5.70882 7.6 5.69216 7.60833 5.67549 7.625C5.65882 7.64167 5.65049 7.65833 5.65049 7.675V16.325C5.65049 16.3417 5.65882 16.3583 5.67549 16.375C5.69216 16.3917 5.70882 16.4 5.72549 16.4H18.2755ZM3.67549 9.25H20.3255V12.85H3.67549V9.25ZM11.8755 4.9H12.1255H11.8755ZM7.87549 18.325H8.12549H7.87549Z" fill="black"/>
</g>
<defs>
<clipPath id="clip0_3390_10633">
<rect width="24" height="24" fill="white"/>
</clipPath>
</defs>
</svg>
