<svg width="24" height="24" viewBox="0 0 24 24" fill="none" xmlns="http://www.w3.org/2000/svg">
<g clip-path="url(#clip0_3181_24932)">
<rect width="24" height="24" fill="white"/>
<path d="M5.50049 20C4.86716 20 4.27549 19.85 3.72549 19.55C3.19216 19.2333 2.76716 18.8083 2.45049 18.275C2.15049 17.725 2.00049 17.1333 2.00049 16.5V7.5C2.00049 6.85 2.15049 6.25833 2.45049 5.725C2.76716 5.19167 3.19216 4.775 3.72549 4.475C4.27549 4.15833 4.86716 4 5.50049 4H18.5005C19.1505 4 19.7422 4.15833 20.2755 4.475C20.8088 4.775 21.2255 5.19167 21.5255 5.725C21.8422 6.25833 22.0005 6.85 22.0005 7.5V16.5C22.0005 17.1333 21.8422 17.725 21.5255 18.275C21.2255 18.8083 20.8088 19.2333 20.2755 19.55C19.7422 19.85 19.1505 20 18.5005 20H5.50049ZM18.4255 16.55C18.4422 16.55 18.4588 16.5417 18.4755 16.525C18.4922 16.5083 18.5005 16.4917 18.5005 16.475V7.525C18.5005 7.50833 18.4922 7.49167 18.4755 7.475C18.4588 7.45833 18.4422 7.45 18.4255 7.45H5.57549C5.55882 7.45 5.54216 7.45833 5.52549 7.475C5.50882 7.49167 5.50049 7.50833 5.50049 7.525V16.475C5.50049 16.4917 5.50882 16.5083 5.52549 16.525C5.54216 16.5417 5.55882 16.55 5.57549 16.55H18.4255ZM8.35049 15.45C8.00049 15.4 7.64216 15.3417 7.27549 15.275C6.90882 15.1917 6.55882 15.0917 6.22549 14.975L6.85049 13.075C7.60049 13.325 8.40049 13.45 9.25049 13.45C9.41716 13.45 9.54216 13.4333 9.62549 13.4C9.72549 13.3667 9.77549 13.2917 9.77549 13.175C9.77549 13.1083 9.74216 13.0667 9.67549 13.05C9.62549 13.0167 9.56716 12.9917 9.50049 12.975C9.48382 12.975 9.47549 12.975 9.47549 12.975C9.47549 12.975 9.46716 12.975 9.45049 12.975L8.35049 12.85C7.70049 12.7833 7.19216 12.55 6.82549 12.15C6.45882 11.75 6.27549 11.25 6.27549 10.65C6.27549 10.0667 6.46716 9.575 6.85049 9.175C7.23382 8.775 7.74216 8.54167 8.37549 8.475V7.85H10.3755V8.45C10.6755 8.46667 10.9838 8.5 11.3005 8.55C11.6338 8.6 11.9338 8.65833 12.2005 8.725L11.5755 10.675C10.8422 10.5083 10.1005 10.425 9.35049 10.425C9.18382 10.425 9.05882 10.45 8.97549 10.5C8.89216 10.55 8.85049 10.5917 8.85049 10.625C8.85049 10.7083 8.87549 10.775 8.92549 10.825C8.97549 10.8583 9.05049 10.8833 9.15049 10.9L10.1005 11C10.8338 11.0833 11.3922 11.3 11.7755 11.65C12.1588 11.9833 12.3505 12.4583 12.3505 13.075C12.3505 13.6583 12.1755 14.1583 11.8255 14.575C11.4755 14.9917 10.9838 15.2583 10.3505 15.375V16.05H8.35049V15.45ZM13.0005 8.475H17.6505V11.925H13.0005V8.475ZM15.3755 10.1H15.5505H15.3755Z" fill="black"/>
</g>
<defs>
<clipPath id="clip0_3181_24932">
<rect width="24" height="24" fill="white"/>
</clipPath>
</defs>
</svg>
