<svg width="24" height="24" viewBox="0 0 24 24" fill="none" xmlns="http://www.w3.org/2000/svg">
<g clip-path="url(#clip0_3181_24928)">
<rect width="24" height="24" fill="white"/>
<path d="M5.20049 20C4.61716 20 4.07549 19.8667 3.57549 19.6C3.09216 19.3167 2.70882 18.9333 2.42549 18.45C2.15882 17.95 2.02549 17.4083 2.02549 16.825V7.175C2.02549 6.59167 2.15882 6.05833 2.42549 5.575C2.70882 5.075 3.09216 4.69167 3.57549 4.425C4.07549 4.14167 4.61716 4 5.20049 4H18.8505C19.4338 4 19.9672 4.14167 20.4505 4.425C20.9505 4.69167 21.3338 5.075 21.6005 5.575C21.8838 6.05833 22.0255 6.59167 22.0255 7.175V16.825C22.0255 17.4083 21.8838 17.95 21.6005 18.45C21.3338 18.9333 20.9505 19.3167 20.4505 19.6C19.9672 19.8667 19.4338 20 18.8505 20H5.20049ZM18.8005 17.625C19.0172 17.625 19.2005 17.55 19.3505 17.4C19.5172 17.2333 19.6005 17.0333 19.6005 16.8V7.2C19.6005 6.96667 19.5172 6.775 19.3505 6.625C19.2005 6.45833 19.0172 6.375 18.8005 6.375H5.25049C5.03382 6.375 4.84216 6.45833 4.67549 6.625C4.52549 6.775 4.45049 6.96667 4.45049 7.2V16.8C4.45049 17.0333 4.52549 17.2333 4.67549 17.4C4.84216 17.55 5.03382 17.625 5.25049 17.625H18.8005ZM7.95049 15.45C7.53382 15.3833 7.15049 15.2667 6.80049 15.1C6.45049 14.9167 6.13382 14.675 5.85049 14.375L6.80049 13.2C7.31716 13.6833 7.95049 13.925 8.70049 13.925C8.98382 13.925 9.21716 13.875 9.40049 13.775C9.58382 13.675 9.67549 13.525 9.67549 13.325C9.67549 13.075 9.50882 12.9167 9.17549 12.85C9.14216 12.85 9.10882 12.85 9.07549 12.85C9.05882 12.8333 9.03382 12.825 9.00049 12.825L7.95049 12.7C7.31716 12.6167 6.81716 12.3917 6.45049 12.025C6.10049 11.6583 5.92549 11.1917 5.92549 10.625C5.92549 10.0583 6.11716 9.6 6.50049 9.25C6.88382 8.88333 7.36716 8.65833 7.95049 8.575V7.7H9.60049V8.55C9.98382 8.61667 10.3338 8.73333 10.6505 8.9C10.9838 9.05 11.2672 9.25 11.5005 9.5L10.5505 10.675C10.1005 10.2917 9.50882 10.1 8.77549 10.1C8.47549 10.1 8.25049 10.1417 8.10049 10.225C7.95049 10.3083 7.87549 10.4333 7.87549 10.6C7.87549 10.7667 7.92549 10.8833 8.02549 10.95C8.14216 11.0167 8.31716 11.0667 8.55049 11.1L9.42549 11.225C10.1088 11.325 10.6422 11.5417 11.0255 11.875C11.4088 12.2083 11.6005 12.675 11.6005 13.275C11.6005 13.8417 11.4172 14.3083 11.0505 14.675C10.7005 15.0417 10.2172 15.2917 9.60049 15.425V16.325H7.95049V15.45ZM13.0005 11.175H16.7505V13.05H13.0005V11.175ZM13.0005 8H18.2505V9.875H13.0005V8Z" fill="black"/>
</g>
<defs>
<clipPath id="clip0_3181_24928">
<rect width="24" height="24" fill="white"/>
</clipPath>
</defs>
</svg>
