<svg width="24" height="24" viewBox="0 0 24 24" fill="none" xmlns="http://www.w3.org/2000/svg">
<g clip-path="url(#clip0_3176_15520)">
<rect width="24" height="24" fill="white"/>
<path d="M21.275 19.275C20.7917 19.7583 20.2 20 19.5 20H4.5C3.8 20 3.20833 19.7583 2.725 19.275C2.24167 18.7917 2 18.2 2 17.5V6.5C2 5.8 2.24167 5.20833 2.725 4.725C3.20833 4.24167 3.8 4 4.5 4H19.5C20.2 4 20.7917 4.24167 21.275 4.725C21.7583 5.20833 22 5.8 22 6.5V17.5C22 18.2 21.7583 18.7917 21.275 19.275ZM5.55 15.775C5.96667 15.9583 6.39167 16.0917 6.825 16.175V17.2H9.05V16.125C9.78333 15.9583 10.3583 15.6417 10.775 15.175C11.2083 14.7083 11.425 14.1333 11.425 13.45C11.425 12.75 11.2 12.2 10.75 11.8C10.3 11.4 9.65833 11.15 8.825 11.05L7.65 10.9C7.38333 10.8667 7.19167 10.8 7.075 10.7C6.95833 10.6 6.9 10.4667 6.9 10.3C6.9 10.1333 6.98333 10 7.15 9.9C7.33333 9.78333 7.59167 9.725 7.925 9.725C8.325 9.725 8.71667 9.78333 9.1 9.9C9.48333 10 9.85 10.1583 10.2 10.375L11.25 8.8C10.9 8.55 10.5417 8.34167 10.175 8.175C9.825 7.99167 9.45 7.86667 9.05 7.8V6.75H6.825V7.8C6.10833 7.95 5.53333 8.25 5.1 8.7C4.66667 9.13333 4.45 9.68333 4.45 10.35C4.45 11.0667 4.675 11.6333 5.125 12.05C5.575 12.4667 6.19167 12.725 6.975 12.825L8.15 12.975C8.41667 13.0083 8.61667 13.075 8.75 13.175C8.9 13.2583 8.975 13.3833 8.975 13.55C8.975 13.7667 8.86667 13.9333 8.65 14.05C8.45 14.1667 8.18333 14.225 7.85 14.225C7.4 14.225 6.96667 14.1583 6.55 14.025C6.15 13.875 5.775 13.675 5.425 13.425L4.35 15C4.75 15.3167 5.15 15.575 5.55 15.775ZM13.25 7.5V10.15H19.425V7.5H13.25ZM13.25 12.075V14.725H17.5V12.075H13.25Z" fill="black"/>
</g>
<defs>
<clipPath id="clip0_3176_15520">
<rect width="24" height="24" fill="white"/>
</clipPath>
</defs>
</svg>
