<svg width="24" height="24" viewBox="0 0 24 24" fill="none" xmlns="http://www.w3.org/2000/svg">
<g clip-path="url(#clip0_3181_24922)">
<rect width="24" height="24" fill="white"/>
<path d="M4.67549 20C4.17549 20 3.72549 19.8833 3.32549 19.65C2.92549 19.4 2.60049 19.075 2.35049 18.675C2.11716 18.275 2.00049 17.825 2.00049 17.325V6.675C2.00049 6.175 2.11716 5.725 2.35049 5.325C2.60049 4.925 2.92549 4.60833 3.32549 4.375C3.72549 4.125 4.17549 4 4.67549 4H19.3505C19.8338 4 20.2755 4.125 20.6755 4.375C21.0922 4.60833 21.4172 4.925 21.6505 5.325C21.8838 5.725 22.0005 6.175 22.0005 6.675V17.325C22.0005 17.825 21.8838 18.275 21.6505 18.675C21.4172 19.075 21.0922 19.4 20.6755 19.65C20.2755 19.8833 19.8338 20 19.3505 20H4.67549ZM19.3505 19.075C19.8338 19.075 20.2338 18.9083 20.5505 18.575C20.8838 18.2417 21.0505 17.825 21.0505 17.325V6.675C21.0505 6.175 20.8838 5.75833 20.5505 5.425C20.2338 5.09167 19.8338 4.925 19.3505 4.925H4.67549C4.19216 4.925 3.78382 5.09167 3.45049 5.425C3.11716 5.75833 2.95049 6.175 2.95049 6.675V17.325C2.95049 17.825 3.11716 18.2417 3.45049 18.575C3.78382 18.9083 4.19216 19.075 4.67549 19.075H19.3505ZM7.75049 15.475C7.18382 15.425 6.70049 15.275 6.30049 15.025C5.90049 14.775 5.60049 14.4167 5.40049 13.95L6.10049 13.575C6.40049 14.3417 7.06716 14.725 8.10049 14.725C8.68382 14.725 9.14216 14.6167 9.47549 14.4C9.80882 14.1833 9.97549 13.875 9.97549 13.475C9.97549 12.925 9.63382 12.5667 8.95049 12.4C8.88382 12.3833 8.81716 12.375 8.75049 12.375C8.68382 12.3583 8.61716 12.3417 8.55049 12.325L7.45049 12.175C6.83382 12.0917 6.36716 11.8917 6.05049 11.575C5.73382 11.2417 5.57549 10.8167 5.57549 10.3C5.57549 9.71667 5.77549 9.26667 6.17549 8.95C6.57549 8.61667 7.10049 8.425 7.75049 8.375V7.325H8.55049V8.375C9.11716 8.425 9.59216 8.575 9.97549 8.825C10.3588 9.075 10.6338 9.40833 10.8005 9.825L10.1005 10.2C9.83382 9.48333 9.17549 9.125 8.12549 9.125C7.60882 9.125 7.20049 9.225 6.90049 9.425C6.60049 9.60833 6.45049 9.89167 6.45049 10.275C6.45049 10.6083 6.55882 10.8667 6.77549 11.05C6.99216 11.2333 7.33382 11.35 7.80049 11.4L8.87549 11.55C9.47549 11.6333 9.95049 11.8417 10.3005 12.175C10.6672 12.5083 10.8505 12.9333 10.8505 13.45C10.8505 14.0333 10.6422 14.5 10.2255 14.85C9.80882 15.2 9.25049 15.4083 8.55049 15.475V16.55H7.75049V15.475ZM13.0005 11.3H17.2755V12.2H13.0005V11.3ZM13.0005 8H18.7255V8.9H13.0005V8Z" fill="black"/>
</g>
<defs>
<clipPath id="clip0_3181_24922">
<rect width="24" height="24" fill="white"/>
</clipPath>
</defs>
</svg>
