<svg width="24" height="24" viewBox="0 0 24 24" fill="none" xmlns="http://www.w3.org/2000/svg">
<g clip-path="url(#clip0_3181_24930)">
<rect width="24" height="24" fill="white"/>
<path d="M5.35049 20C4.75049 20 4.19215 19.85 3.67549 19.55C3.15882 19.25 2.75049 18.85 2.45049 18.35C2.16715 17.8333 2.02549 17.275 2.02549 16.675V7.325C2.02549 6.725 2.16715 6.175 2.45049 5.675C2.75049 5.15833 3.15049 4.75 3.65049 4.45C4.16716 4.15 4.73382 4 5.35049 4H18.6755C19.2922 4 19.8588 4.15 20.3755 4.45C20.8922 4.73333 21.2922 5.13333 21.5755 5.65C21.8755 6.15 22.0255 6.70833 22.0255 7.325V16.675C22.0255 17.275 21.8755 17.8333 21.5755 18.35C21.2755 18.85 20.8672 19.25 20.3505 19.55C19.8505 19.85 19.2922 20 18.6755 20H5.35049ZM18.5755 17.05C18.6922 17.05 18.7922 17.0083 18.8755 16.925C18.9588 16.8417 19.0005 16.7333 19.0005 16.6V7.4C19.0005 7.28333 18.9588 7.18333 18.8755 7.1C18.7922 7.01667 18.6922 6.975 18.5755 6.975H5.47549C5.35882 6.975 5.25049 7.01667 5.15049 7.1C5.06716 7.18333 5.02549 7.28333 5.02549 7.4V16.6C5.02549 16.7167 5.06716 16.825 5.15049 16.925C5.25049 17.0083 5.35882 17.05 5.47549 17.05H18.5755ZM8.12549 15.475C7.74216 15.4083 7.36716 15.3167 7.00049 15.2C6.65049 15.0667 6.31716 14.9 6.00049 14.7L6.80049 13.15C7.41716 13.5 8.13382 13.675 8.95049 13.675C9.16716 13.675 9.34216 13.6417 9.47549 13.575C9.62549 13.5083 9.70049 13.4 9.70049 13.25C9.70049 13.0833 9.57549 12.975 9.32549 12.925C9.29216 12.925 9.26716 12.925 9.25049 12.925C9.25049 12.9083 9.23382 12.9 9.20049 12.9L8.12549 12.775C7.47549 12.6917 6.96716 12.4667 6.60049 12.1C6.25049 11.7167 6.07549 11.2333 6.07549 10.65C6.07549 10.0833 6.26716 9.60833 6.65049 9.225C7.03382 8.84167 7.53382 8.60833 8.15049 8.525V7.775H9.97549V8.525C10.3255 8.55833 10.6588 8.625 10.9755 8.725C11.2922 8.825 11.5755 8.95833 11.8255 9.125L11.0505 10.7C10.4505 10.4167 9.77549 10.275 9.02549 10.275C8.80882 10.275 8.63382 10.3083 8.50049 10.375C8.38382 10.4417 8.32549 10.525 8.32549 10.625C8.32549 10.7417 8.36716 10.8333 8.45049 10.9C8.53382 10.95 8.65882 10.9917 8.82549 11.025L9.75049 11.125C10.4505 11.2083 10.9922 11.425 11.3755 11.775C11.7588 12.1083 11.9505 12.575 11.9505 13.175C11.9505 13.7417 11.7672 14.225 11.4005 14.625C11.0505 15.025 10.5672 15.2833 9.95049 15.4V16.175H8.12549V15.475ZM13.0005 8.8H17.6505V11.625H13.0005V8.8ZM15.3755 10.125H15.5505H15.3755Z" fill="black"/>
</g>
<defs>
<clipPath id="clip0_3181_24930">
<rect width="24" height="24" fill="white"/>
</clipPath>
</defs>
</svg>
