<svg width="24" height="24" viewBox="0 0 24 24" fill="none" xmlns="http://www.w3.org/2000/svg">
<g clip-path="url(#clip0_3181_24924)">
<rect width="24" height="24" fill="white"/>
<path d="M4.85049 20C4.33382 20 3.85882 19.875 3.42549 19.625C2.99216 19.375 2.65049 19.0333 2.40049 18.6C2.15049 18.1667 2.02549 17.6917 2.02549 17.175V6.825C2.02549 6.30833 2.15049 5.83333 2.40049 5.4C2.65049 4.96667 2.99216 4.625 3.42549 4.375C3.85882 4.125 4.33382 4 4.85049 4H19.1755C19.7088 4 20.1838 4.125 20.6005 4.375C21.0338 4.625 21.3755 4.96667 21.6255 5.4C21.8922 5.83333 22.0255 6.30833 22.0255 6.825V17.175C22.0255 17.6917 21.8922 18.1667 21.6255 18.6C21.3755 19.0333 21.0338 19.375 20.6005 19.625C20.1838 19.875 19.7088 20 19.1755 20H4.85049ZM19.1755 18.65C19.5755 18.65 19.9172 18.5083 20.2005 18.225C20.4838 17.925 20.6255 17.575 20.6255 17.175V6.825C20.6255 6.425 20.4838 6.08333 20.2005 5.8C19.9172 5.5 19.5755 5.35 19.1755 5.35H4.85049C4.45049 5.35 4.10882 5.5 3.82549 5.8C3.55882 6.08333 3.42549 6.425 3.42549 6.825V17.175C3.42549 17.575 3.55882 17.925 3.82549 18.225C4.10882 18.5083 4.45049 18.65 4.85049 18.65H19.1755ZM7.77549 15.45C7.27549 15.3833 6.83382 15.2333 6.45049 15C6.08382 14.75 5.79216 14.4167 5.57549 14L6.47549 13.4C6.80882 14.0667 7.42549 14.4 8.32549 14.4C8.77549 14.4 9.13382 14.3167 9.40049 14.15C9.68382 13.9667 9.82549 13.7167 9.82549 13.4C9.82549 12.9833 9.55049 12.7167 9.00049 12.6C8.96716 12.5833 8.91716 12.5667 8.85049 12.55C8.80049 12.5333 8.75049 12.525 8.70049 12.525L7.65049 12.375C7.03382 12.2917 6.55049 12.0833 6.20049 11.75C5.86716 11.4 5.70049 10.9583 5.70049 10.425C5.70049 9.875 5.89216 9.43333 6.27549 9.1C6.67549 8.76667 7.17549 8.55833 7.77549 8.475V7.45H8.95049V8.475C9.41716 8.54167 9.83382 8.69167 10.2005 8.925C10.5672 9.15833 10.8422 9.46667 11.0255 9.85L10.1255 10.425C9.82549 9.825 9.23382 9.525 8.35049 9.525C7.91716 9.525 7.57549 9.6 7.32549 9.75C7.07549 9.88333 6.95049 10.1083 6.95049 10.425C6.95049 10.6917 7.04216 10.8917 7.22549 11.025C7.40882 11.1583 7.69216 11.25 8.07549 11.3L9.02549 11.425C9.65882 11.525 10.1588 11.7417 10.5255 12.075C10.8922 12.3917 11.0755 12.8333 11.0755 13.4C11.0755 13.9667 10.8755 14.425 10.4755 14.775C10.0922 15.125 9.58382 15.3417 8.95049 15.425V16.475H7.77549V15.45ZM13.0005 11.275H17.0255V12.625H13.0005V11.275ZM13.0005 8H18.4755V9.35H13.0005V8Z" fill="black"/>
</g>
<defs>
<clipPath id="clip0_3181_24924">
<rect width="24" height="24" fill="white"/>
</clipPath>
</defs>
</svg>
