<svg width="24" height="24" viewBox="0 0 24 24" fill="none" xmlns="http://www.w3.org/2000/svg">
<g clip-path="url(#clip0_3181_24938)">
<rect width="24" height="24" fill="white"/>
<path d="M21.275 19.275C20.7917 19.7583 20.2 20 19.5 20H4.5C3.8 20 3.20833 19.7583 2.725 19.275C2.24167 18.7917 2 18.2 2 17.5V6.5C2 5.8 2.24167 5.20833 2.725 4.725C3.20833 4.24167 3.8 4 4.5 4H19.5C20.2 4 20.7917 4.24167 21.275 4.725C21.7583 5.20833 22 5.8 22 6.5V17.5C22 18.2 21.7583 18.7917 21.275 19.275ZM5.125 15.45C5.55833 15.75 6.08333 15.9333 6.7 16V17.2H7.95V16C8.7 15.9 9.3 15.65 9.75 15.25C10.2 14.8333 10.425 14.2917 10.425 13.625C10.425 12.9917 10.2083 12.4917 9.775 12.125C9.35833 11.7583 8.79167 11.525 8.075 11.425L6.975 11.275C6.525 11.2083 6.19167 11.0917 5.975 10.925C5.75833 10.7417 5.65 10.4917 5.65 10.175C5.65 9.80833 5.8 9.53333 6.1 9.35C6.4 9.16667 6.80833 9.075 7.325 9.075C7.80833 9.075 8.225 9.175 8.575 9.375C8.925 9.55833 9.175 9.84167 9.325 10.225L10.4 9.65C10.2 9.2 9.88333 8.825 9.45 8.525C9.01667 8.225 8.51667 8.03333 7.95 7.95V6.775H6.7V7.95C6 8.05 5.425 8.29167 4.975 8.675C4.54167 9.05833 4.325 9.575 4.325 10.225C4.325 10.8583 4.525 11.3583 4.925 11.725C5.325 12.075 5.88333 12.3 6.6 12.4L7.675 12.575C8.14167 12.6417 8.49167 12.7667 8.725 12.95C8.975 13.1333 9.1 13.375 9.1 13.675C9.1 14.0583 8.93333 14.3583 8.6 14.575C8.28333 14.7917 7.84167 14.9 7.275 14.9C6.775 14.9 6.34167 14.8 5.975 14.6C5.625 14.3833 5.375 14.075 5.225 13.675L4.125 14.25C4.35833 14.75 4.69167 15.15 5.125 15.45ZM12.75 7.575V9.025H19.75V7.575H12.75ZM12.75 11.8V13.25H17.8V11.8H12.75Z" fill="black"/>
</g>
<defs>
<clipPath id="clip0_3181_24938">
<rect width="24" height="24" fill="white"/>
</clipPath>
</defs>
</svg>
