<svg width="24" height="24" viewBox="0 0 24 24" fill="none" xmlns="http://www.w3.org/2000/svg">
<g clip-path="url(#clip0_3181_24926)">
<rect width="24" height="24" fill="white"/>
<path d="M5.02549 20C4.47549 20 3.96716 19.8667 3.50049 19.6C3.05049 19.3333 2.69216 18.975 2.42549 18.525C2.15882 18.0583 2.02549 17.55 2.02549 17V7C2.02549 6.45 2.15882 5.95 2.42549 5.5C2.69216 5.03333 3.05049 4.66667 3.50049 4.4C3.96716 4.13333 4.47549 4 5.02549 4H19.0255C19.5755 4 20.0755 4.13333 20.5255 4.4C20.9922 4.66667 21.3588 5.03333 21.6255 5.5C21.8922 5.95 22.0255 6.45 22.0255 7V17C22.0255 17.55 21.8922 18.0583 21.6255 18.525C21.3588 18.975 20.9922 19.3333 20.5255 19.6C20.0755 19.8667 19.5755 20 19.0255 20H5.02549ZM19.0255 18.2C19.3422 18.2 19.6088 18.0833 19.8255 17.85C20.0588 17.6167 20.1755 17.3333 20.1755 17V7C20.1755 6.66667 20.0588 6.38333 19.8255 6.15C19.6088 5.91667 19.3422 5.8 19.0255 5.8H5.02549C4.70882 5.8 4.43382 5.91667 4.20049 6.15C3.98382 6.38333 3.87549 6.66667 3.87549 7V17C3.87549 17.3333 3.98382 17.6167 4.20049 17.85C4.43382 18.0833 4.70882 18.2 5.02549 18.2H19.0255ZM7.82549 15.425C7.37549 15.3417 6.97549 15.1917 6.62549 14.975C6.27549 14.7417 5.97549 14.4333 5.72549 14.05L6.85049 13.225C7.21716 13.8083 7.77549 14.1 8.52549 14.1C8.87549 14.1 9.15882 14.0333 9.37549 13.9C9.59216 13.7667 9.70049 13.5833 9.70049 13.35C9.70049 13.1833 9.64216 13.0583 9.52549 12.975C9.42549 12.875 9.27549 12.8083 9.07549 12.775C9.04216 12.7583 9.00049 12.75 8.95049 12.75C8.91716 12.7333 8.88382 12.725 8.85049 12.725L7.82549 12.575C7.20882 12.4917 6.72549 12.275 6.37549 11.925C6.02549 11.575 5.85049 11.125 5.85049 10.575C5.85049 10.025 6.03382 9.58333 6.40049 9.25C6.76716 8.9 7.24216 8.675 7.82549 8.575V7.575H9.32549V8.575C9.72549 8.65833 10.0922 8.80833 10.4255 9.025C10.7588 9.225 11.0338 9.5 11.2505 9.85L10.1255 10.65C9.80882 10.15 9.29216 9.9 8.57549 9.9C8.22549 9.9 7.95049 9.95833 7.75049 10.075C7.56716 10.175 7.47549 10.3333 7.47549 10.55C7.47549 10.75 7.54216 10.9 7.67549 11C7.82549 11.0833 8.04216 11.1417 8.32549 11.175L9.20049 11.3C9.85049 11.4 10.3672 11.6167 10.7505 11.95C11.1338 12.2833 11.3255 12.7417 11.3255 13.325C11.3255 13.875 11.1422 14.3333 10.7755 14.7C10.4088 15.05 9.92549 15.2833 9.32549 15.4V16.4H7.82549V15.425ZM13.0005 11.275H16.7505V13.05H13.0005V11.275ZM13.0005 8H18.2505V9.775H13.0005V8Z" fill="black"/>
</g>
<defs>
<clipPath id="clip0_3181_24926">
<rect width="24" height="24" fill="white"/>
</clipPath>
</defs>
</svg>
