<svg width="24" height="24" viewBox="0 0 24 24" fill="none" xmlns="http://www.w3.org/2000/svg">
<g clip-path="url(#clip0_3257_21059)">
<rect width="24" height="24" fill="white"/>
<path d="M12.6405 0.499999H14.7655V3.925H12.6405V0.499999ZM8.26553 20.425H10.3905V23.5H8.26553V20.425ZM12.6405 20.425H14.7655V23.5H12.6405V20.425ZM8.26553 0.499999H10.3905V3.925H8.26553V0.499999ZM13.0405 3C14.8739 3 16.2739 3.41667 17.2405 4.25C18.2239 5.08333 18.7155 6.23333 18.7155 7.7C18.7155 9.23333 18.1655 10.3833 17.0655 11.15C15.9822 11.9167 14.4239 12.3 12.3905 12.3L12.8405 11.15C14.9072 11.15 16.4989 11.575 17.6155 12.425C18.7322 13.275 19.2905 14.4833 19.2905 16.05C19.2905 17.6333 18.7739 18.8583 17.7405 19.725C16.7239 20.575 15.2822 21 13.4155 21H5.29053V3H13.0405ZM6.26553 10.725H12.8655C13.8489 10.725 14.6239 10.4917 15.1905 10.025C15.7572 9.55833 16.0405 8.89167 16.0405 8.025C16.0405 7.19167 15.7739 6.55 15.2405 6.1C14.7239 5.63333 13.9822 5.4 13.0155 5.4H7.96553V18.55H13.3655C14.4322 18.55 15.2322 18.325 15.7655 17.875C16.3155 17.4083 16.5905 16.725 16.5905 15.825C16.5905 14.9083 16.2989 14.225 15.7155 13.775C15.1322 13.3083 14.3155 13.075 13.2655 13.075H6.26553V10.725Z" fill="black"/>
</g>
<defs>
<clipPath id="clip0_3257_21059">
<rect width="24" height="24" fill="white"/>
</clipPath>
</defs>
</svg>
