<svg width="24" height="24" viewBox="0 0 24 24" fill="none" xmlns="http://www.w3.org/2000/svg">
<g clip-path="url(#clip0_3181_25496)">
<rect width="24" height="24" fill="white"/>
<path d="M2.00049 6H22.0005V21H2.00049V6ZM20.6005 19.65V10.65L21.5505 9.2C21.5505 9.71667 21.4422 10.1917 21.2255 10.625C21.0255 11.0583 20.7338 11.4 20.3505 11.65C19.9838 11.9 19.5755 12.025 19.1255 12.025H4.87549C4.42549 12.025 4.00882 11.9 3.62549 11.65C3.25882 11.4 2.96716 11.0583 2.75049 10.625C2.55049 10.1917 2.45049 9.71667 2.45049 9.2L3.40049 10.65V19.65H20.6005ZM19.1255 10.675C19.5422 10.675 19.8922 10.5333 20.1755 10.25C20.4588 9.96667 20.6005 9.61667 20.6005 9.2V7.35H3.40049V9.2C3.40049 9.61667 3.54216 9.96667 3.82549 10.25C4.10882 10.5333 4.45882 10.675 4.87549 10.675H19.1255ZM14.6255 4.2C14.6255 4.08333 14.5922 3.99167 14.5255 3.925C14.4755 3.85833 14.3922 3.825 14.2755 3.825H9.72549C9.60882 3.825 9.51716 3.85833 9.45049 3.925C9.40049 3.99167 9.37549 4.08333 9.37549 4.2V6.325H8.00049V4.2C8.00049 3.7 8.15882 3.29167 8.47549 2.975C8.80882 2.65833 9.22549 2.5 9.72549 2.5H14.2755C14.7755 2.5 15.1838 2.65833 15.5005 2.975C15.8338 3.29167 16.0005 3.7 16.0005 4.2V6.325H14.6255V4.2Z" fill="black"/>
</g>
<defs>
<clipPath id="clip0_3181_25496">
<rect width="24" height="24" fill="white"/>
</clipPath>
</defs>
</svg>
