<svg width="24" height="24" viewBox="0 0 24 24" fill="none" xmlns="http://www.w3.org/2000/svg">
<g clip-path="url(#clip0_3181_25516)">
<rect width="24" height="24" fill="white"/>
<path d="M4 10.675C3.45 10.675 2.975 10.4833 2.575 10.1C2.19167 9.7 2 9.225 2 8.675V6.675H22V8.675C22 9.225 21.8 9.7 21.4 10.1C21.0167 10.4833 20.55 10.675 20 10.675H4ZM2 12.125C2.3 12.3083 2.61667 12.45 2.95 12.55C3.3 12.6333 3.65 12.675 4 12.675H20C20.35 12.675 20.6917 12.6333 21.025 12.55C21.375 12.45 21.7 12.3083 22 12.125V21H2V12.125ZM13.8 5.3C13.8 5.3 13.7917 5.29167 13.775 5.275C13.775 5.25833 13.7583 5.25 13.725 5.25H10.25C10.25 5.25 10.2417 5.25833 10.225 5.275C10.2083 5.275 10.2 5.29167 10.2 5.325V7.15H7.325V4.675C7.325 4.05833 7.53333 3.54167 7.95 3.125C8.36667 2.70833 8.88333 2.5 9.5 2.5H14.5C15.1167 2.5 15.6333 2.70833 16.05 3.125C16.4667 3.54167 16.675 4.05833 16.675 4.675V7.15H13.8V5.3Z" fill="black"/>
</g>
<defs>
<clipPath id="clip0_3181_25516">
<rect width="24" height="24" fill="white"/>
</clipPath>
</defs>
</svg>
