<svg width="24" height="24" viewBox="0 0 24 24" fill="none" xmlns="http://www.w3.org/2000/svg">
<g clip-path="url(#clip0_3181_25500)">
<rect width="24" height="24" fill="white"/>
<path d="M2.00049 6.325H22.0005V21H2.00049V6.325ZM19.6255 18.675V11.75L21.2255 9.725C21.2255 10.3583 21.1005 10.9417 20.8505 11.475C20.6172 12.0083 20.2922 12.4333 19.8755 12.75C19.4588 13.05 18.9922 13.2 18.4755 13.2H5.52549C5.00882 13.2 4.54216 13.05 4.12549 12.75C3.70882 12.4333 3.37549 12.0083 3.12549 11.475C2.89216 10.9417 2.77549 10.3583 2.77549 9.725L4.37549 11.75V18.675H19.6255ZM18.4755 10.925C18.7922 10.925 19.0588 10.8167 19.2755 10.6C19.5088 10.3833 19.6255 10.1167 19.6255 9.8V8.65H4.37549V9.8C4.37549 10.1167 4.48382 10.3833 4.70049 10.6C4.93382 10.8167 5.20882 10.925 5.52549 10.925H18.4755ZM14.0255 4.775C14.0255 4.75833 14.0172 4.75 14.0005 4.75C14.0005 4.73333 13.9922 4.725 13.9755 4.725H10.0255C10.0088 4.725 9.99216 4.73333 9.97549 4.75C9.97549 4.75 9.97549 4.75833 9.97549 4.775V6.65H7.67549V4.45C7.67549 3.9 7.85882 3.44167 8.22549 3.075C8.60882 2.69167 9.09216 2.5 9.67549 2.5H14.3255C14.9088 2.5 15.3838 2.69167 15.7505 3.075C16.1338 3.44167 16.3255 3.9 16.3255 4.45V6.65H14.0255V4.775Z" fill="black"/>
</g>
<defs>
<clipPath id="clip0_3181_25500">
<rect width="24" height="24" fill="white"/>
</clipPath>
</defs>
</svg>
