<svg width="24" height="24" viewBox="0 0 24 24" fill="none" xmlns="http://www.w3.org/2000/svg">
<g clip-path="url(#clip0_3181_25512)">
<rect width="24" height="24" fill="white"/>
<path d="M4 10C3.45 10 2.975 9.80833 2.575 9.425C2.19167 9.025 2 8.55 2 8V6H22V8C22 8.55 21.8 9.025 21.4 9.425C21.0167 9.80833 20.55 10 20 10H4ZM2 11.45C2.3 11.6333 2.61667 11.775 2.95 11.875C3.3 11.9583 3.65 12 4 12H20C20.35 12 20.6917 11.9583 21.025 11.875C21.375 11.775 21.7 11.6333 22 11.45V21H2V11.45ZM14.15 4.35C14.15 4.33333 14.1417 4.325 14.125 4.325C14.125 4.30833 14.1167 4.3 14.1 4.3H9.9C9.88333 4.3 9.86667 4.30833 9.85 4.325C9.85 4.325 9.85 4.33333 9.85 4.35V6.825H8V4.3C8 3.8 8.175 3.375 8.525 3.025C8.875 2.675 9.3 2.5 9.8 2.5H14.2C14.7 2.5 15.125 2.675 15.475 3.025C15.825 3.375 16 3.8 16 4.3V6.825H14.15V4.35Z" fill="black"/>
</g>
<defs>
<clipPath id="clip0_3181_25512">
<rect width="24" height="24" fill="white"/>
</clipPath>
</defs>
</svg>
