<svg width="24" height="24" viewBox="0 0 24 24" fill="none" xmlns="http://www.w3.org/2000/svg">
<g clip-path="url(#clip0_3321_9666)">
<rect width="24" height="24" fill="white"/>
<path d="M7.8 8H2V6.5C2 5.81667 2.24167 5.23333 2.725 4.75C3.225 4.25 3.81667 4 4.5 4H19.5C20.1833 4 20.7667 4.25 21.25 4.75C21.75 5.23333 22 5.81667 22 6.5V17.5C22 18.1833 21.75 18.775 21.25 19.275C20.7667 19.7583 20.1833 20 19.5 20H4.5C3.81667 20 3.225 19.7583 2.725 19.275C2.24167 18.775 2 18.1833 2 17.5V11.25H7.8V8ZM11.75 13.4C11.1 13.85 10.775 14.425 10.775 15.125V15.975H18.225V15.125C18.225 14.4083 17.8833 13.825 17.2 13.375C16.5167 12.925 15.6 12.7 14.45 12.7C13.3167 12.7 12.4167 12.9333 11.75 13.4ZM13.05 10.925C13.4333 11.325 13.9 11.525 14.45 11.525C15 11.525 15.4667 11.325 15.85 10.925C16.25 10.5083 16.45 10.0167 16.45 9.45C16.45 8.9 16.25 8.43333 15.85 8.05C15.4667 7.66667 15 7.475 14.45 7.475C13.9 7.475 13.4333 7.66667 13.05 8.05C12.6667 8.43333 12.475 8.9 12.475 9.45C12.475 10.0167 12.6667 10.5083 13.05 10.925Z" fill="black"/>
</g>
<defs>
<clipPath id="clip0_3321_9666">
<rect width="24" height="24" fill="white"/>
</clipPath>
</defs>
</svg>
