<svg width="24" height="24" viewBox="0 0 24 24" fill="none" xmlns="http://www.w3.org/2000/svg">
<g clip-path="url(#clip0_3177_15663)">
<rect width="24" height="24" fill="white"/>
<path d="M4.67549 20C4.17549 20 3.71716 19.8833 3.30049 19.65C2.90049 19.4167 2.58382 19.1 2.35049 18.7C2.11716 18.2833 2.00049 17.825 2.00049 17.325V6.675C2.00049 6.175 2.11716 5.725 2.35049 5.325C2.58382 4.90833 2.90049 4.58333 3.30049 4.35C3.71716 4.11667 4.17549 4 4.67549 4H19.3255C19.8255 4 20.2755 4.11667 20.6755 4.35C21.0922 4.58333 21.4172 4.90833 21.6505 5.325C21.8838 5.725 22.0005 6.175 22.0005 6.675V17.325C22.0005 17.825 21.8838 18.2833 21.6505 18.7C21.4172 19.1 21.0922 19.4167 20.6755 19.65C20.2755 19.8833 19.8255 20 19.3255 20H4.67549ZM19.3255 19.1C19.8255 19.1 20.2338 18.9333 20.5505 18.6C20.8838 18.25 21.0505 17.825 21.0505 17.325V6.675C21.0505 6.175 20.8838 5.75833 20.5505 5.425C20.2338 5.075 19.8255 4.9 19.3255 4.9H4.67549C4.17549 4.9 3.75882 5.075 3.42549 5.425C3.10882 5.75833 2.95049 6.175 2.95049 6.675V17.325C2.95049 17.825 3.10882 18.25 3.42549 18.6C3.75882 18.9333 4.17549 19.1 4.67549 19.1H19.3255ZM2.27549 11H9.87549V11.9H2.27549V11ZM2.27549 8H9.87549V8.9H2.27549V8ZM15.0005 15.425C14.4338 15.375 13.9505 15.225 13.5505 14.975C13.1505 14.725 12.8588 14.3667 12.6755 13.9L13.3255 13.525C13.6255 14.3083 14.3005 14.7 15.3505 14.7C15.9172 14.7 16.3672 14.5917 16.7005 14.375C17.0505 14.1417 17.2255 13.825 17.2255 13.425C17.2255 13.1417 17.1338 12.9167 16.9505 12.75C16.7838 12.5667 16.5255 12.4333 16.1755 12.35C16.1088 12.3333 16.0505 12.325 16.0005 12.325C15.9505 12.3083 15.8838 12.2917 15.8005 12.275L14.7005 12.125C14.0838 12.0417 13.6172 11.8417 13.3005 11.525C12.9838 11.1917 12.8255 10.7667 12.8255 10.25C12.8255 9.66667 13.0255 9.21667 13.4255 8.9C13.8255 8.56667 14.3505 8.375 15.0005 8.325V7.275H15.8005V8.325C16.3672 8.375 16.8422 8.525 17.2255 8.775C17.6088 9.025 17.8838 9.35833 18.0505 9.775L17.3755 10.15C17.0922 9.41667 16.4255 9.05 15.3755 9.05C14.8588 9.05 14.4422 9.15 14.1255 9.35C13.8255 9.53333 13.6755 9.825 13.6755 10.225C13.6755 10.5583 13.7838 10.825 14.0005 11.025C14.2338 11.2083 14.5838 11.325 15.0505 11.375L16.1255 11.525C16.7255 11.6083 17.2005 11.8167 17.5505 12.15C17.9005 12.4667 18.0755 12.8917 18.0755 13.425C18.0755 13.9917 17.8672 14.45 17.4505 14.8C17.0505 15.15 16.5005 15.3583 15.8005 15.425V16.5H15.0005V15.425Z" fill="black"/>
</g>
<defs>
<clipPath id="clip0_3177_15663">
<rect width="24" height="24" fill="white"/>
</clipPath>
</defs>
</svg>
