<svg width="24" height="24" viewBox="0 0 24 24" fill="none" xmlns="http://www.w3.org/2000/svg">
<g clip-path="url(#clip0_3390_10561)">
<rect width="24" height="24" fill="white"/>
<path d="M5.17549 20C4.60882 20 4.07549 19.8583 3.57549 19.575C3.09216 19.2917 2.70882 18.9083 2.42549 18.425C2.15882 17.9417 2.02549 17.4083 2.02549 16.825V7.175C2.02549 6.59167 2.15882 6.05833 2.42549 5.575C2.70882 5.09167 3.09216 4.70833 3.57549 4.425C4.07549 4.14167 4.60882 4 5.17549 4H18.8505C19.4338 4 19.9672 4.14167 20.4505 4.425C20.9338 4.70833 21.3172 5.09167 21.6005 5.575C21.8838 6.05833 22.0255 6.59167 22.0255 7.175V16.825C22.0255 17.4083 21.8838 17.9417 21.6005 18.425C21.3172 18.9083 20.9338 19.2917 20.4505 19.575C19.9672 19.8583 19.4338 20 18.8505 20H5.17549ZM18.8005 17.625C19.0172 17.625 19.2005 17.55 19.3505 17.4C19.5005 17.2333 19.5755 17.0333 19.5755 16.8V7.2C19.5755 6.98333 19.5005 6.79167 19.3505 6.625C19.2005 6.45833 19.0172 6.375 18.8005 6.375H5.25049C5.03382 6.375 4.84216 6.45833 4.67549 6.625C4.52549 6.79167 4.45049 6.98333 4.45049 7.2V16.8C4.45049 17.0333 4.52549 17.2333 4.67549 17.4C4.84216 17.55 5.03382 17.625 5.25049 17.625H18.8005ZM3.52549 8.75H9.67549V11.125H3.52549V8.75ZM11.7005 5.15H11.9505H11.7005ZM11.2755 10.975H13.6755V8.575H15.8005V10.975H18.2005V13H15.8005V15.425H13.6755V13H11.2755V10.975Z" fill="black"/>
</g>
<defs>
<clipPath id="clip0_3390_10561">
<rect width="24" height="24" fill="white"/>
</clipPath>
</defs>
</svg>
