<svg width="24" height="24" viewBox="0 0 24 24" fill="none" xmlns="http://www.w3.org/2000/svg">
<g clip-path="url(#clip0_3177_15711)">
<rect width="24" height="24" fill="white"/>
<path d="M7.8 8H2V6.5C2 5.81667 2.24167 5.23333 2.725 4.75C3.225 4.25 3.81667 4 4.5 4H19.5C20.1833 4 20.7667 4.25 21.25 4.75C21.75 5.23333 22 5.81667 22 6.5V17.5C22 18.1833 21.75 18.775 21.25 19.275C20.7667 19.7583 20.1833 20 19.5 20H4.5C3.81667 20 3.225 19.7583 2.725 19.275C2.24167 18.775 2 18.1833 2 17.5V11.25H7.8V8ZM11.75 13.375C11.1 13.825 10.775 14.4 10.775 15.1V15.975H18.225V15.1C18.225 14.3833 17.8833 13.8083 17.2 13.375C16.5333 12.925 15.6167 12.7 14.45 12.7C13.3167 12.7 12.4167 12.925 11.75 13.375ZM13.025 10.975C13.425 11.3917 13.9 11.6 14.45 11.6C15 11.6 15.475 11.4 15.875 11C16.275 10.5833 16.475 10.075 16.475 9.475C16.475 8.925 16.275 8.45833 15.875 8.075C15.475 7.675 15 7.475 14.45 7.475C13.9 7.475 13.425 7.675 13.025 8.075C12.6417 8.45833 12.45 8.925 12.45 9.475C12.45 10.0583 12.6417 10.5583 13.025 10.975Z" fill="black"/>
</g>
<defs>
<clipPath id="clip0_3177_15711">
<rect width="24" height="24" fill="white"/>
</clipPath>
</defs>
</svg>
