<svg width="24" height="24" viewBox="0 0 24 24" fill="none" xmlns="http://www.w3.org/2000/svg">
<g clip-path="url(#clip0_3177_15681)">
<rect width="24" height="24" fill="white"/>
<path d="M7.8 8H2V6.5C2 5.81667 2.24167 5.23333 2.725 4.75C3.225 4.25 3.81667 4 4.5 4H19.5C20.1833 4 20.7667 4.25 21.25 4.75C21.75 5.23333 22 5.81667 22 6.5V17.5C22 18.1833 21.75 18.775 21.25 19.275C20.7667 19.7583 20.1833 20 19.5 20H4.5C3.81667 20 3.225 19.7583 2.725 19.275C2.24167 18.775 2 18.1833 2 17.5V11.25H7.8V8ZM12.525 15.45C12.9417 15.7333 13.4333 15.925 14 16.025V17.2H15.65V16C16.35 15.8667 16.9167 15.5917 17.35 15.175C17.7833 14.7583 18 14.2167 18 13.55C18 12.8833 17.7833 12.3667 17.35 12C16.9167 11.6167 16.3333 11.3667 15.6 11.25L14.525 11.1C14.175 11.05 13.9083 10.9583 13.725 10.825C13.5583 10.6917 13.475 10.5083 13.475 10.275C13.475 9.99167 13.5917 9.78333 13.825 9.65C14.075 9.5 14.4083 9.425 14.825 9.425C15.2417 9.425 15.6 9.50833 15.9 9.675C16.2 9.84167 16.425 10.0917 16.575 10.425L17.975 9.65C17.7583 9.21667 17.4417 8.85833 17.025 8.575C16.6083 8.275 16.15 8.075 15.65 7.975V6.775H14V7.975C13.3167 8.10833 12.7667 8.375 12.35 8.775C11.9333 9.15833 11.725 9.675 11.725 10.325C11.725 10.9917 11.9333 11.5167 12.35 11.9C12.7667 12.2667 13.3333 12.5 14.05 12.6L15.125 12.775C15.4917 12.825 15.7667 12.9167 15.95 13.05C16.15 13.1833 16.25 13.375 16.25 13.625C16.25 13.9083 16.1167 14.1417 15.85 14.325C15.5833 14.4917 15.225 14.575 14.775 14.575C14.325 14.575 13.9417 14.4833 13.625 14.3C13.325 14.1 13.0917 13.825 12.925 13.475L11.525 14.275C11.775 14.7583 12.1083 15.15 12.525 15.45Z" fill="black"/>
</g>
<defs>
<clipPath id="clip0_3177_15681">
<rect width="24" height="24" fill="white"/>
</clipPath>
</defs>
</svg>
