<svg width="24" height="24" viewBox="0 0 24 24" fill="none" xmlns="http://www.w3.org/2000/svg">
<g clip-path="url(#clip0_3355_3074)">
<rect width="24" height="24" fill="white"/>
<path d="M15.7449 11.25C16.1283 11.25 16.4533 11.1167 16.7199 10.85C16.9866 10.5833 17.1199 10.2583 17.1199 9.875C17.1199 9.49167 16.9866 9.16667 16.7199 8.9C16.4533 8.63333 16.1283 8.5 15.7449 8.5C15.3616 8.5 15.0366 8.63333 14.7699 8.9C14.5033 9.16667 14.3699 9.49167 14.3699 9.875C14.3699 10.2583 14.5033 10.5833 14.7699 10.85C15.0366 11.1167 15.3616 11.25 15.7449 11.25ZM3.91992 17.375C3.66992 17.375 3.46159 17.2917 3.29492 17.125C3.12826 16.9583 3.04492 16.75 3.04492 16.5C3.04492 16.25 3.12826 16.0417 3.29492 15.875C3.46159 15.7083 3.66992 15.625 3.91992 15.625C4.16992 15.625 4.37826 15.7083 4.54492 15.875C4.71159 16.0417 4.79492 16.25 4.79492 16.5C4.79492 16.75 4.71159 16.9583 4.54492 17.125C4.37826 17.2917 4.16992 17.375 3.91992 17.375ZM8.24492 19.6C7.92826 19.6 7.66159 19.4917 7.44492 19.275C7.22826 19.0583 7.11992 18.7917 7.11992 18.475C7.11992 18.1583 7.22826 17.8917 7.44492 17.675C7.66159 17.4583 7.92826 17.35 8.24492 17.35C8.56159 17.35 8.82826 17.4583 9.04492 17.675C9.26159 17.8917 9.36992 18.1583 9.36992 18.475C9.36992 18.7917 9.26159 19.0583 9.04492 19.275C8.82826 19.4917 8.56159 19.6 8.24492 19.6ZM11.9949 22C11.7449 22 11.5366 21.9167 11.3699 21.75C11.2033 21.5833 11.1199 21.375 11.1199 21.125C11.1199 20.875 11.2033 20.6667 11.3699 20.5C11.5366 20.3333 11.7449 20.25 11.9949 20.25C12.2449 20.25 12.4533 20.3333 12.6199 20.5C12.7866 20.6667 12.8699 20.875 12.8699 21.125C12.8699 21.375 12.7866 21.5833 12.6199 21.75C12.4533 21.9167 12.2449 22 11.9949 22ZM4.51992 13.125C4.20326 13.125 3.93659 13.0167 3.71992 12.8C3.50326 12.5833 3.39492 12.3167 3.39492 12C3.39492 11.6833 3.50326 11.4167 3.71992 11.2C3.93659 10.9833 4.20326 10.875 4.51992 10.875C4.83659 10.875 5.10326 10.9833 5.31992 11.2C5.53659 11.4167 5.64492 11.6833 5.64492 12C5.64492 12.3167 5.53659 12.5833 5.31992 12.8C5.10326 13.0167 4.83659 13.125 4.51992 13.125ZM8.24492 15.5C7.86159 15.5 7.53659 15.3667 7.26992 15.1C7.00326 14.8333 6.86992 14.5083 6.86992 14.125C6.86992 13.7417 7.00326 13.4167 7.26992 13.15C7.53659 12.8833 7.86159 12.75 8.24492 12.75C8.62826 12.75 8.95326 12.8833 9.21992 13.15C9.48659 13.4167 9.61992 13.7417 9.61992 14.125C9.61992 14.5083 9.48659 14.8333 9.21992 15.1C8.95326 15.3667 8.62826 15.5 8.24492 15.5ZM11.9949 17.6C11.6116 17.6 11.2866 17.4667 11.0199 17.2C10.7533 16.9333 10.6199 16.6083 10.6199 16.225C10.6199 15.8417 10.7533 15.5167 11.0199 15.25C11.2866 14.9833 11.6116 14.85 11.9949 14.85C12.3783 14.85 12.7033 14.9833 12.9699 15.25C13.2366 15.5167 13.3699 15.8417 13.3699 16.225C13.3699 16.6083 13.2366 16.9333 12.9699 17.2C12.7033 17.4667 12.3783 17.6 11.9949 17.6ZM3.91992 8.375C3.66992 8.375 3.46159 8.29167 3.29492 8.125C3.12826 7.95833 3.04492 7.75 3.04492 7.5C3.04492 7.25 3.12826 7.04167 3.29492 6.875C3.46159 6.70833 3.66992 6.625 3.91992 6.625C4.16992 6.625 4.37826 6.70833 4.54492 6.875C4.71159 7.04167 4.79492 7.25 4.79492 7.5C4.79492 7.75 4.71159 7.95833 4.54492 8.125C4.37826 8.29167 4.16992 8.375 3.91992 8.375ZM15.7449 19.6C15.4283 19.6 15.1616 19.4917 14.9449 19.275C14.7283 19.0583 14.6199 18.7917 14.6199 18.475C14.6199 18.1583 14.7283 17.8917 14.9449 17.675C15.1616 17.4583 15.4283 17.35 15.7449 17.35C16.0616 17.35 16.3283 17.4583 16.5449 17.675C16.7616 17.8917 16.8699 18.1583 16.8699 18.475C16.8699 18.7917 16.7616 19.0583 16.5449 19.275C16.3283 19.4917 16.0616 19.6 15.7449 19.6ZM8.24492 11.25C7.86159 11.25 7.53659 11.1167 7.26992 10.85C7.00326 10.5833 6.86992 10.2583 6.86992 9.875C6.86992 9.49167 7.00326 9.16667 7.26992 8.9C7.53659 8.63333 7.86159 8.5 8.24492 8.5C8.62826 8.5 8.95326 8.63333 9.21992 8.9C9.48659 9.16667 9.61992 9.49167 9.61992 9.875C9.61992 10.2583 9.48659 10.5833 9.21992 10.85C8.95326 11.1167 8.62826 11.25 8.24492 11.25ZM15.7449 15.5C15.3616 15.5 15.0366 15.3667 14.7699 15.1C14.5033 14.8333 14.3699 14.5083 14.3699 14.125C14.3699 13.7417 14.5033 13.4167 14.7699 13.15C15.0366 12.8833 15.3616 12.75 15.7449 12.75C16.1283 12.75 16.4533 12.8833 16.7199 13.15C16.9866 13.4167 17.1199 13.7417 17.1199 14.125C17.1199 14.5083 16.9866 14.8333 16.7199 15.1C16.4533 15.3667 16.1283 15.5 15.7449 15.5ZM8.24492 6.65C7.92826 6.65 7.66159 6.54167 7.44492 6.325C7.22826 6.10833 7.11992 5.84167 7.11992 5.525C7.11992 5.20833 7.22826 4.94167 7.44492 4.725C7.66159 4.50833 7.92826 4.4 8.24492 4.4C8.56159 4.4 8.82826 4.50833 9.04492 4.725C9.26159 4.94167 9.36992 5.20833 9.36992 5.525C9.36992 5.84167 9.26159 6.10833 9.04492 6.325C8.82826 6.54167 8.56159 6.65 8.24492 6.65ZM20.0699 17.375C19.8199 17.375 19.6116 17.2917 19.4449 17.125C19.2783 16.9583 19.1949 16.75 19.1949 16.5C19.1949 16.25 19.2783 16.0417 19.4449 15.875C19.6116 15.7083 19.8199 15.625 20.0699 15.625C20.3199 15.625 20.5283 15.7083 20.6949 15.875C20.8616 16.0417 20.9449 16.25 20.9449 16.5C20.9449 16.75 20.8616 16.9583 20.6949 17.125C20.5283 17.2917 20.3199 17.375 20.0699 17.375ZM11.9949 9.15C11.6116 9.15 11.2866 9.01667 11.0199 8.75C10.7533 8.48333 10.6199 8.15833 10.6199 7.775C10.6199 7.39167 10.7533 7.06667 11.0199 6.8C11.2866 6.53333 11.6116 6.4 11.9949 6.4C12.3783 6.4 12.7033 6.53333 12.9699 6.8C13.2366 7.06667 13.3699 7.39167 13.3699 7.775C13.3699 8.15833 13.2366 8.48333 12.9699 8.75C12.7033 9.01667 12.3783 9.15 11.9949 9.15ZM19.4699 13.125C19.1533 13.125 18.8866 13.0167 18.6699 12.8C18.4533 12.5833 18.3449 12.3167 18.3449 12C18.3449 11.6833 18.4533 11.4167 18.6699 11.2C18.8866 10.9833 19.1533 10.875 19.4699 10.875C19.7866 10.875 20.0533 10.9833 20.2699 11.2C20.4866 11.4167 20.5949 11.6833 20.5949 12C20.5949 12.3167 20.4866 12.5833 20.2699 12.8C20.0533 13.0167 19.7866 13.125 19.4699 13.125ZM11.9949 3.75C11.7449 3.75 11.5366 3.66667 11.3699 3.5C11.2033 3.33333 11.1199 3.125 11.1199 2.875C11.1199 2.625 11.2033 2.41667 11.3699 2.25C11.5366 2.08333 11.7449 2 11.9949 2C12.2449 2 12.4533 2.08333 12.6199 2.25C12.7866 2.41667 12.8699 2.625 12.8699 2.875C12.8699 3.125 12.7866 3.33333 12.6199 3.5C12.4533 3.66667 12.2449 3.75 11.9949 3.75ZM15.7449 6.65C15.4283 6.65 15.1616 6.54167 14.9449 6.325C14.7283 6.10833 14.6199 5.84167 14.6199 5.525C14.6199 5.20833 14.7283 4.94167 14.9449 4.725C15.1616 4.50833 15.4283 4.4 15.7449 4.4C16.0616 4.4 16.3283 4.50833 16.5449 4.725C16.7616 4.94167 16.8699 5.20833 16.8699 5.525C16.8699 5.84167 16.7616 6.10833 16.5449 6.325C16.3283 6.54167 16.0616 6.65 15.7449 6.65ZM20.0699 8.375C19.8199 8.375 19.6116 8.29167 19.4449 8.125C19.2783 7.95833 19.1949 7.75 19.1949 7.5C19.1949 7.25 19.2783 7.04167 19.4449 6.875C19.6116 6.70833 19.8199 6.625 20.0699 6.625C20.3199 6.625 20.5283 6.70833 20.6949 6.875C20.8616 7.04167 20.9449 7.25 20.9449 7.5C20.9449 7.75 20.8616 7.95833 20.6949 8.125C20.5283 8.29167 20.3199 8.375 20.0699 8.375Z" fill="black"/>
</g>
<defs>
<clipPath id="clip0_3355_3074">
<rect width="24" height="24" fill="white"/>
</clipPath>
</defs>
</svg>
