<svg width="24" height="24" viewBox="0 0 24 24" fill="none" xmlns="http://www.w3.org/2000/svg">
<g clip-path="url(#clip0_3321_9652)">
<rect width="24" height="24" fill="white"/>
<path d="M5.17549 20C4.60882 20 4.07549 19.8583 3.57549 19.575C3.09216 19.2917 2.70882 18.9083 2.42549 18.425C2.15882 17.9417 2.02549 17.4083 2.02549 16.825V7.175C2.02549 6.59167 2.15882 6.05833 2.42549 5.575C2.70882 5.09167 3.09216 4.70833 3.57549 4.425C4.07549 4.14167 4.60882 4 5.17549 4H18.8505C19.4338 4 19.9672 4.14167 20.4505 4.425C20.9338 4.70833 21.3172 5.09167 21.6005 5.575C21.8838 6.05833 22.0255 6.59167 22.0255 7.175V16.825C22.0255 17.4083 21.8838 17.9417 21.6005 18.425C21.3172 18.9083 20.9338 19.2917 20.4505 19.575C19.9672 19.8583 19.4338 20 18.8505 20H5.17549ZM18.8005 17.625C19.0172 17.625 19.2005 17.55 19.3505 17.4C19.5005 17.2333 19.5755 17.0333 19.5755 16.8V7.2C19.5755 6.98333 19.5005 6.79167 19.3505 6.625C19.2005 6.45833 19.0172 6.375 18.8005 6.375H5.25049C5.03382 6.375 4.84216 6.45833 4.67549 6.625C4.52549 6.79167 4.45049 6.98333 4.45049 7.2V16.8C4.45049 17.0333 4.52549 17.2333 4.67549 17.4C4.84216 17.55 5.03382 17.625 5.25049 17.625H18.8005ZM3.52549 8.75H10.6505V11.125H3.52549V8.75ZM11.8755 5.15H12.1255H11.8755ZM12.1255 14.25C12.1255 13.6167 12.3672 13.1333 12.8505 12.8C13.3505 12.45 14.0422 12.275 14.9255 12.275C15.8255 12.275 16.5338 12.45 17.0505 12.8C17.5672 13.1333 17.8255 13.6167 17.8255 14.25V15.175H12.1255V14.25ZM16.6755 13.825C16.2755 13.825 15.9755 13.825 15.7755 13.825C15.5922 13.825 15.3088 13.825 14.9255 13.825C14.5588 13.825 14.2838 13.825 14.1005 13.825C13.9172 13.825 13.6422 13.825 13.2755 13.825H16.6755ZM14.9255 11.425C14.5088 11.425 14.1588 11.2833 13.8755 11C13.5922 10.7 13.4505 10.3417 13.4505 9.925C13.4505 9.525 13.5922 9.175 13.8755 8.875C14.1588 8.575 14.5088 8.425 14.9255 8.425C15.3422 8.425 15.7005 8.575 16.0005 8.875C16.3005 9.175 16.4505 9.525 16.4505 9.925C16.4505 10.3417 16.3005 10.7 16.0005 11C15.7005 11.2833 15.3422 11.425 14.9255 11.425ZM14.9255 9.95C15.0588 9.95 15.1505 9.95 15.2005 9.95C15.2672 9.95 15.3588 9.95 15.4755 9.95C15.3588 9.95 15.2672 9.95 15.2005 9.95C15.1338 9.95 15.0422 9.95 14.9255 9.95C14.8088 9.95 14.7172 9.95 14.6505 9.95C14.5838 9.95 14.4922 9.95 14.3755 9.95C14.4922 9.95 14.5838 9.95 14.6505 9.95C14.7172 9.95 14.8088 9.95 14.9255 9.95Z" fill="black"/>
</g>
<defs>
<clipPath id="clip0_3321_9652">
<rect width="24" height="24" fill="white"/>
</clipPath>
</defs>
</svg>
