<svg width="24" height="24" viewBox="0 0 24 24" fill="none" xmlns="http://www.w3.org/2000/svg">
<g clip-path="url(#clip0_3181_24998)">
<rect width="24" height="24" fill="white"/>
<path d="M7.8 8H2V6.5C2 5.81667 2.24167 5.23333 2.725 4.75C3.225 4.25 3.81667 4 4.5 4H19.5C20.1833 4 20.7667 4.25 21.25 4.75C21.75 5.23333 22 5.81667 22 6.5V17.5C22 18.1833 21.75 18.775 21.25 19.275C20.7667 19.7583 20.1833 20 19.5 20H4.5C3.81667 20 3.225 19.7583 2.725 19.275C2.24167 18.775 2 18.1833 2 17.5V11.25H7.8V8ZM12.325 15.95C12.725 16.0833 13.1167 16.1833 13.5 16.25V17.2H16V16.2C16.75 16.0167 17.3333 15.6833 17.75 15.2C18.1667 14.7 18.375 14.1 18.375 13.4C18.375 12.6833 18.1417 12.125 17.675 11.725C17.225 11.3083 16.5667 11.05 15.7 10.95L14.475 10.8C14.2417 10.7833 14.0833 10.7333 14 10.65C13.9167 10.5667 13.875 10.4583 13.875 10.325C13.875 10.2083 13.9417 10.1083 14.075 10.025C14.2083 9.925 14.425 9.875 14.725 9.875C15.125 9.875 15.5333 9.91667 15.95 10C16.3667 10.0667 16.8 10.1833 17.25 10.35L18.125 8.375C17.725 8.20833 17.3583 8.075 17.025 7.975C16.6917 7.85833 16.35 7.775 16 7.725V6.75H13.5V7.725C12.7667 7.875 12.175 8.18333 11.725 8.65C11.2917 9.11667 11.075 9.68333 11.075 10.35C11.075 11.1 11.3 11.7 11.75 12.15C12.2167 12.5833 12.8667 12.85 13.7 12.95L14.925 13.075C15.125 13.1083 15.2833 13.1583 15.4 13.225C15.5167 13.2917 15.575 13.3917 15.575 13.525C15.575 13.6917 15.4833 13.825 15.3 13.925C15.1333 14.0083 14.9167 14.05 14.65 14.05C14.1833 14.05 13.7167 13.9917 13.25 13.875C12.8 13.7583 12.3583 13.6 11.925 13.4L11.025 15.375C11.4917 15.6083 11.925 15.8 12.325 15.95Z" fill="black"/>
</g>
<defs>
<clipPath id="clip0_3181_24998">
<rect width="24" height="24" fill="white"/>
</clipPath>
</defs>
</svg>
