<svg width="24" height="24" viewBox="0 0 24 24" fill="none" xmlns="http://www.w3.org/2000/svg">
<g clip-path="url(#clip0_3181_24954)">
<rect width="24" height="24" fill="white"/>
<path d="M5.17549 20C4.60882 20 4.07549 19.8583 3.57549 19.575C3.09216 19.2917 2.70882 18.9083 2.42549 18.425C2.15882 17.9417 2.02549 17.4083 2.02549 16.825V7.175C2.02549 6.59167 2.15882 6.05833 2.42549 5.575C2.70882 5.09167 3.09216 4.70833 3.57549 4.425C4.07549 4.14167 4.60882 4 5.17549 4H18.8505C19.4338 4 19.9672 4.14167 20.4505 4.425C20.9338 4.70833 21.3172 5.09167 21.6005 5.575C21.8838 6.05833 22.0255 6.59167 22.0255 7.175V16.825C22.0255 17.4083 21.8838 17.9417 21.6005 18.425C21.3172 18.9083 20.9338 19.2917 20.4505 19.575C19.9672 19.8583 19.4338 20 18.8505 20H5.17549ZM18.8255 17.65C19.0422 17.65 19.2255 17.575 19.3755 17.425C19.5422 17.2583 19.6255 17.0583 19.6255 16.825V7.175C19.6255 6.94167 19.5422 6.75 19.3755 6.6C19.2255 6.43333 19.0422 6.35 18.8255 6.35H5.20049C4.98382 6.35 4.80049 6.43333 4.65049 6.6C4.50049 6.75 4.42549 6.94167 4.42549 7.175V16.825C4.42549 17.0583 4.50049 17.2583 4.65049 17.425C4.80049 17.575 4.98382 17.65 5.20049 17.65H18.8255ZM3.52549 9H9.55049V11.375H3.52549V9ZM11.8755 5.15H12.1255H11.8755ZM12.2505 11.075C11.8505 11.075 11.5255 10.95 11.2755 10.7C11.0255 10.4333 10.9005 10.1 10.9005 9.7C10.9005 9.3 11.0255 8.975 11.2755 8.725C11.5255 8.45833 11.8505 8.325 12.2505 8.325C12.6338 8.325 12.9505 8.45833 13.2005 8.725C13.4672 8.975 13.6005 9.3 13.6005 9.7C13.6005 10.1 13.4672 10.4333 13.2005 10.7C12.9505 10.95 12.6338 11.075 12.2505 11.075ZM17.0505 15.675C16.6505 15.675 16.3255 15.55 16.0755 15.3C15.8255 15.0333 15.7005 14.7 15.7005 14.3C15.7005 13.9 15.8255 13.575 16.0755 13.325C16.3422 13.0583 16.6672 12.925 17.0505 12.925C17.4338 12.925 17.7505 13.0583 18.0005 13.325C18.2672 13.575 18.4005 13.9 18.4005 14.3C18.4005 14.7 18.2672 15.0333 18.0005 15.3C17.7505 15.55 17.4338 15.675 17.0505 15.675ZM12.2505 9.775C12.4172 9.775 12.5422 9.775 12.6255 9.775C12.7088 9.775 12.8338 9.775 13.0005 9.775C12.8338 9.775 12.7088 9.775 12.6255 9.775C12.5422 9.775 12.4172 9.775 12.2505 9.775C12.0672 9.775 11.9338 9.775 11.8505 9.775C11.7838 9.775 11.6588 9.775 11.4755 9.775C11.6588 9.775 11.7922 9.775 11.8755 9.775C11.9588 9.775 12.0838 9.775 12.2505 9.775ZM17.0505 14.225C17.2172 14.225 17.3422 14.225 17.4255 14.225C17.5088 14.225 17.6338 14.225 17.8005 14.225C17.6338 14.225 17.5088 14.225 17.4255 14.225C17.3422 14.225 17.2172 14.225 17.0505 14.225C16.8838 14.225 16.7588 14.225 16.6755 14.225C16.5922 14.225 16.4672 14.225 16.3005 14.225C16.4672 14.225 16.5922 14.225 16.6755 14.225C16.7588 14.225 16.8838 14.225 17.0505 14.225ZM15.7505 8.4H17.9505L13.5505 15.575H11.3755L15.7505 8.4Z" fill="black"/>
</g>
<defs>
<clipPath id="clip0_3181_24954">
<rect width="24" height="24" fill="white"/>
</clipPath>
</defs>
</svg>
