<svg width="24" height="24" viewBox="0 0 24 24" fill="none" xmlns="http://www.w3.org/2000/svg">
<g clip-path="url(#clip0_3181_24974)">
<rect width="24" height="24" fill="white"/>
<path d="M4.67549 20C4.17549 20 3.71716 19.8833 3.30049 19.65C2.90049 19.4167 2.58382 19.1 2.35049 18.7C2.11716 18.2833 2.00049 17.825 2.00049 17.325V6.675C2.00049 6.175 2.11716 5.725 2.35049 5.325C2.58382 4.90833 2.90049 4.58333 3.30049 4.35C3.71716 4.11667 4.17549 4 4.67549 4H19.3255C19.8255 4 20.2755 4.11667 20.6755 4.35C21.0922 4.58333 21.4172 4.90833 21.6505 5.325C21.8838 5.725 22.0005 6.175 22.0005 6.675V17.325C22.0005 17.825 21.8838 18.2833 21.6505 18.7C21.4172 19.1 21.0922 19.4167 20.6755 19.65C20.2755 19.8833 19.8255 20 19.3255 20H4.67549ZM19.3255 19.1C19.8255 19.1 20.2338 18.9333 20.5505 18.6C20.8838 18.25 21.0505 17.825 21.0505 17.325V6.675C21.0505 6.175 20.8838 5.75833 20.5505 5.425C20.2338 5.075 19.8255 4.9 19.3255 4.9H4.67549C4.17549 4.9 3.75882 5.075 3.42549 5.425C3.10882 5.75833 2.95049 6.175 2.95049 6.675V17.325C2.95049 17.825 3.10882 18.25 3.42549 18.6C3.75882 18.9333 4.17549 19.1 4.67549 19.1H19.3255ZM2.27549 10.75H9.87549V11.65H2.27549V10.75ZM2.27549 7.5H9.87549V8.4H2.27549V7.5ZM15.0755 15.425C14.5088 15.375 14.0255 15.225 13.6255 14.975C13.2255 14.725 12.9255 14.3667 12.7255 13.9L13.4005 13.525C13.7005 14.2917 14.3755 14.675 15.4255 14.675C16.0088 14.675 16.4588 14.5667 16.7755 14.35C17.1088 14.1333 17.2755 13.825 17.2755 13.425C17.2755 12.875 16.9338 12.5167 16.2505 12.35C16.1838 12.3333 16.1255 12.325 16.0755 12.325C16.0255 12.3083 15.9588 12.2917 15.8755 12.275L14.7755 12.125C14.1588 12.0417 13.6922 11.8417 13.3755 11.525C13.0588 11.1917 12.9005 10.7667 12.9005 10.25C12.9005 9.66667 13.1005 9.21667 13.5005 8.9C13.9005 8.56667 14.4255 8.375 15.0755 8.325V7.275H15.8755V8.325C16.4255 8.375 16.8922 8.525 17.2755 8.775C17.6755 9.025 17.9505 9.35833 18.1005 9.775L17.4255 10.15C17.1588 9.43333 16.4922 9.075 15.4255 9.075C14.9255 9.075 14.5172 9.16667 14.2005 9.35C13.9005 9.53333 13.7505 9.825 13.7505 10.225C13.7505 10.5583 13.8588 10.8167 14.0755 11C14.3088 11.1833 14.6588 11.3083 15.1255 11.375L16.1755 11.5C16.7922 11.5833 17.2755 11.7917 17.6255 12.125C17.9755 12.4583 18.1505 12.8917 18.1505 13.425C18.1505 13.9917 17.9422 14.45 17.5255 14.8C17.1088 15.15 16.5588 15.3583 15.8755 15.425V16.5H15.0755V15.425Z" fill="black"/>
</g>
<defs>
<clipPath id="clip0_3181_24974">
<rect width="24" height="24" fill="white"/>
</clipPath>
</defs>
</svg>
