<svg width="24" height="24" viewBox="0 0 24 24" fill="none" xmlns="http://www.w3.org/2000/svg">
<g clip-path="url(#clip0_3181_24962)">
<rect width="24" height="24" fill="white"/>
<path d="M7.8 8H2V6.5C2 5.81667 2.24167 5.23333 2.725 4.75C3.225 4.25 3.81667 4 4.5 4H19.5C20.1833 4 20.7667 4.25 21.25 4.75C21.75 5.23333 22 5.81667 22 6.5V17.5C22 18.1833 21.75 18.775 21.25 19.275C20.7667 19.7583 20.1833 20 19.5 20H4.5C3.81667 20 3.225 19.7583 2.725 19.275C2.24167 18.775 2 18.1833 2 17.5V11.25H7.8V8ZM17.275 8.075L11.375 15.95H12.525L18.425 8.075H17.275ZM10.8 11.1C11.15 11.45 11.5833 11.625 12.1 11.625C12.6167 11.625 13.0417 11.45 13.375 11.1C13.725 10.75 13.9 10.3167 13.9 9.8C13.9 9.3 13.725 8.875 13.375 8.525C13.0417 8.175 12.6167 8 12.1 8C11.5833 8 11.15 8.175 10.8 8.525C10.4667 8.875 10.3 9.3 10.3 9.8C10.3 10.3167 10.4667 10.75 10.8 11.1ZM16.4 15.5C16.75 15.85 17.175 16.025 17.675 16.025C18.1917 16.025 18.625 15.85 18.975 15.5C19.325 15.1333 19.5 14.7 19.5 14.2C19.5 13.6833 19.325 13.2583 18.975 12.925C18.625 12.575 18.1917 12.4 17.675 12.4C17.175 12.4 16.75 12.575 16.4 12.925C16.05 13.2583 15.875 13.6833 15.875 14.2C15.875 14.7 16.05 15.1333 16.4 15.5ZM12.775 10.5C12.5917 10.6833 12.3583 10.775 12.075 10.775C11.8083 10.775 11.575 10.6833 11.375 10.5C11.1917 10.3 11.1 10.0667 11.1 9.8C11.1 9.51667 11.1917 9.28333 11.375 9.1C11.575 8.9 11.8083 8.8 12.075 8.8C12.3583 8.8 12.5917 8.9 12.775 9.1C12.975 9.28333 13.075 9.51667 13.075 9.8C13.075 10.0667 12.975 10.3 12.775 10.5ZM18.375 14.9C18.1917 15.0833 17.9583 15.175 17.675 15.175C17.3917 15.175 17.15 15.0833 16.95 14.9C16.7667 14.7 16.675 14.4583 16.675 14.175C16.675 13.8917 16.7667 13.6583 16.95 13.475C17.15 13.2917 17.3917 13.2 17.675 13.2C17.9583 13.2 18.1917 13.2917 18.375 13.475C18.5583 13.6583 18.65 13.8917 18.65 14.175C18.65 14.4583 18.5583 14.7 18.375 14.9Z" fill="black"/>
</g>
<defs>
<clipPath id="clip0_3181_24962">
<rect width="24" height="24" fill="white"/>
</clipPath>
</defs>
</svg>
