<svg width="24" height="24" viewBox="0 0 24 24" fill="none" xmlns="http://www.w3.org/2000/svg">
<g clip-path="url(#clip0_3177_15652)">
<rect width="24" height="24" fill="white"/>
<path d="M7.8 8H2V6.5C2 5.81667 2.24167 5.23333 2.725 4.75C3.225 4.25 3.81667 4 4.5 4H19.5C20.1833 4 20.7667 4.25 21.25 4.75C21.75 5.23333 22 5.81667 22 6.5V17.5C22 18.1833 21.75 18.775 21.25 19.275C20.7667 19.7583 20.1833 20 19.5 20H4.5C3.81667 20 3.225 19.7583 2.725 19.275C2.24167 18.775 2 18.1833 2 17.5V11.25H7.8V8ZM16.05 7.9L11.2 16.125H13.8L18.625 7.9H16.05ZM10.575 10.65C10.875 10.95 11.2583 11.1 11.725 11.1C12.2083 11.1 12.5917 10.95 12.875 10.65C13.175 10.35 13.325 9.95833 13.325 9.475C13.325 8.975 13.175 8.575 12.875 8.275C12.5917 7.975 12.2083 7.825 11.725 7.825C11.2583 7.825 10.875 7.975 10.575 8.275C10.275 8.575 10.125 8.975 10.125 9.475C10.125 9.95833 10.275 10.35 10.575 10.65ZM16.925 15.75C17.225 16.05 17.6167 16.2 18.1 16.2C18.5833 16.2 18.9667 16.05 19.25 15.75C19.55 15.4333 19.7 15.0333 19.7 14.55C19.7 14.0667 19.55 13.675 19.25 13.375C18.9667 13.075 18.5833 12.925 18.1 12.925C17.6167 12.925 17.225 13.075 16.925 13.375C16.6417 13.675 16.5 14.0667 16.5 14.55C16.5 15.0333 16.6417 15.4333 16.925 15.75ZM13.025 8.35C12.9583 8.35 12.85 8.35 12.7 8.35C12.55 8.35 12.4417 8.35 12.375 8.35C12.3083 8.35 12.2 8.35 12.05 8.35C12.2 8.35 12.3083 8.35 12.375 8.35C12.4417 8.35 12.55 8.35 12.7 8.35C12.85 8.35 12.9583 8.35 13.025 8.35C13.0917 8.35 13.2 8.35 13.35 8.35C13.2167 8.35 13.1083 8.35 13.025 8.35ZM18.95 12.975C18.8833 12.975 18.775 12.975 18.625 12.975C18.4917 12.975 18.3833 12.975 18.3 12.975C18.2333 12.975 18.125 12.975 17.975 12.975C18.125 12.975 18.2333 12.975 18.3 12.975C18.3667 12.975 18.475 12.975 18.625 12.975C18.775 12.975 18.8833 12.975 18.95 12.975C19.0167 12.975 19.125 12.975 19.275 12.975C19.125 12.975 19.0167 12.975 18.95 12.975Z" fill="black"/>
</g>
<defs>
<clipPath id="clip0_3177_15652">
<rect width="24" height="24" fill="white"/>
</clipPath>
</defs>
</svg>
