<svg width="24" height="24" viewBox="0 0 24 24" fill="none" xmlns="http://www.w3.org/2000/svg">
<g clip-path="url(#clip0_3181_24954)">
<rect width="24" height="24" fill="white"/>
<path d="M5.17549 20C4.60882 20 4.07549 19.8583 3.57549 19.575C3.09216 19.2917 2.70882 18.9083 2.42549 18.425C2.15882 17.9417 2.02549 17.4083 2.02549 16.825V7.175C2.02549 6.59167 2.15882 6.05833 2.42549 5.575C2.70882 5.09167 3.09216 4.70833 3.57549 4.425C4.07549 4.14167 4.60882 4 5.17549 4H18.8505C19.4338 4 19.9672 4.14167 20.4505 4.425C20.9338 4.70833 21.3172 5.09167 21.6005 5.575C21.8838 6.05833 22.0255 6.59167 22.0255 7.175V16.825C22.0255 17.4083 21.8838 17.9417 21.6005 18.425C21.3172 18.9083 20.9338 19.2917 20.4505 19.575C19.9672 19.8583 19.4338 20 18.8505 20H5.17549ZM18.8005 17.625C19.0172 17.625 19.2005 17.55 19.3505 17.4C19.5005 17.2333 19.5755 17.0333 19.5755 16.8V7.2C19.5755 6.98333 19.5005 6.79167 19.3505 6.625C19.2005 6.45833 19.0172 6.375 18.8005 6.375H5.25049C5.03382 6.375 4.84216 6.45833 4.67549 6.625C4.52549 6.79167 4.45049 6.98333 4.45049 7.2V16.8C4.45049 17.0333 4.52549 17.2333 4.67549 17.4C4.84216 17.55 5.03382 17.625 5.25049 17.625H18.8005ZM3.52549 8.75H9.22549V11.125H3.52549V8.75ZM11.8755 5.15H12.1255H11.8755ZM11.9505 11.075C11.5338 11.075 11.1922 10.95 10.9255 10.7C10.6755 10.4333 10.5505 10.1 10.5505 9.7C10.5505 9.3 10.6755 8.975 10.9255 8.725C11.1922 8.45833 11.5338 8.325 11.9505 8.325C12.3505 8.325 12.6755 8.45833 12.9255 8.725C13.1922 8.975 13.3255 9.3 13.3255 9.7C13.3255 10.1 13.1922 10.4333 12.9255 10.7C12.6755 10.95 12.3505 11.075 11.9505 11.075ZM16.9755 15.675C16.5755 15.675 16.2422 15.55 15.9755 15.3C15.7255 15.0333 15.6005 14.7 15.6005 14.3C15.6005 13.9 15.7255 13.575 15.9755 13.325C16.2422 13.0583 16.5755 12.925 16.9755 12.925C17.3755 12.925 17.7088 13.0583 17.9755 13.325C18.2422 13.575 18.3755 13.9 18.3755 14.3C18.3755 14.7 18.2422 15.0333 17.9755 15.3C17.7088 15.55 17.3755 15.675 16.9755 15.675ZM11.9505 9.775C12.1172 9.775 12.2422 9.775 12.3255 9.775C12.4088 9.775 12.5338 9.775 12.7005 9.775C12.5338 9.775 12.4088 9.775 12.3255 9.775C12.2422 9.775 12.1172 9.775 11.9505 9.775C11.7672 9.775 11.6338 9.775 11.5505 9.775C11.4672 9.775 11.3422 9.775 11.1755 9.775C11.3588 9.775 11.4838 9.775 11.5505 9.775C11.6338 9.775 11.7672 9.775 11.9505 9.775ZM16.9755 14.225C17.1588 14.225 17.2838 14.225 17.3505 14.225C17.4338 14.225 17.5588 14.225 17.7255 14.225C17.5588 14.225 17.4338 14.225 17.3505 14.225C17.2838 14.225 17.1588 14.225 16.9755 14.225C16.8088 14.225 16.6838 14.225 16.6005 14.225C16.5172 14.225 16.3922 14.225 16.2255 14.225C16.3922 14.225 16.5172 14.225 16.6005 14.225C16.6838 14.225 16.8088 14.225 16.9755 14.225ZM15.5005 8.4H17.7755L13.4255 15.575H11.1505L15.5005 8.4Z" fill="black"/>
</g>
<defs>
<clipPath id="clip0_3181_24954">
<rect width="24" height="24" fill="white"/>
</clipPath>
</defs>
</svg>
