<svg width="24" height="24" viewBox="0 0 24 24" fill="none" xmlns="http://www.w3.org/2000/svg">
<g clip-path="url(#clip0_3181_24994)">
<rect width="24" height="24" fill="white"/>
<path d="M7.8 8H2V6.5C2 5.81667 2.24167 5.23333 2.725 4.75C3.225 4.25 3.81667 4 4.5 4H19.5C20.1833 4 20.7667 4.25 21.25 4.75C21.75 5.23333 22 5.81667 22 6.5V17.5C22 18.1833 21.75 18.775 21.25 19.275C20.7667 19.7583 20.1833 20 19.5 20H4.5C3.81667 20 3.225 19.7583 2.725 19.275C2.24167 18.775 2 18.1833 2 17.5V11.25H7.8V8ZM12.45 15.625C12.8667 15.8583 13.325 16.0167 13.825 16.1V17.2H15.775V16.075C16.4917 15.925 17.0583 15.6333 17.475 15.2C17.9083 14.75 18.125 14.1833 18.125 13.5C18.125 12.8167 17.9 12.2833 17.45 11.9C17.0167 11.5167 16.4083 11.2667 15.625 11.15L14.5 11C14.2 10.9667 13.975 10.8917 13.825 10.775C13.675 10.6583 13.6 10.5 13.6 10.3C13.6 10.0667 13.7 9.89167 13.9 9.775C14.1167 9.64167 14.4167 9.575 14.8 9.575C15.2 9.575 15.5667 9.64167 15.9 9.775C16.25 9.90833 16.55 10.1167 16.8 10.4L18.025 9.225C17.7417 8.875 17.4083 8.59167 17.025 8.375C16.6417 8.14167 16.225 7.98333 15.775 7.9V6.775H13.825V7.9C13.125 8.03333 12.5583 8.30833 12.125 8.725C11.7083 9.14167 11.5 9.675 11.5 10.325C11.5 11.025 11.7167 11.575 12.15 11.975C12.5833 12.375 13.175 12.625 13.925 12.725L15.05 12.875C15.3667 12.925 15.6083 13.0083 15.775 13.125C15.9417 13.225 16.025 13.3833 16.025 13.6C16.025 13.8333 15.9083 14.025 15.675 14.175C15.4417 14.325 15.125 14.4 14.725 14.4C14.275 14.4 13.8667 14.3167 13.5 14.15C13.15 13.9833 12.85 13.75 12.6 13.45L11.35 14.65C11.6833 15.05 12.05 15.375 12.45 15.625Z" fill="black"/>
</g>
<defs>
<clipPath id="clip0_3181_24994">
<rect width="24" height="24" fill="white"/>
</clipPath>
</defs>
</svg>
