<svg width="24" height="24" viewBox="0 0 24 24" fill="none" xmlns="http://www.w3.org/2000/svg">
<g clip-path="url(#clip0_3177_15632)">
<rect width="24" height="24" fill="white"/>
<path d="M4.85049 20C4.31716 20 3.83382 19.875 3.40049 19.625C2.98382 19.375 2.64216 19.0333 2.37549 18.6C2.12549 18.1667 2.00049 17.6917 2.00049 17.175V6.825C2.00049 6.30833 2.12549 5.83333 2.37549 5.4C2.64216 4.96667 2.98382 4.625 3.40049 4.375C3.83382 4.125 4.31716 4 4.85049 4H19.1755C19.7088 4 20.1838 4.125 20.6005 4.375C21.0338 4.625 21.3755 4.96667 21.6255 5.4C21.8755 5.83333 22.0005 6.30833 22.0005 6.825V17.175C22.0005 17.6917 21.8755 18.1667 21.6255 18.6C21.3755 19.0333 21.0338 19.375 20.6005 19.625C20.1672 19.875 19.6922 20 19.1755 20H4.85049ZM19.1755 18.625C19.5755 18.625 19.9088 18.4833 20.1755 18.2C20.4588 17.9167 20.6005 17.575 20.6005 17.175V6.825C20.6005 6.425 20.4588 6.08333 20.1755 5.8C19.9088 5.5 19.5755 5.35 19.1755 5.35H4.85049C4.45049 5.35 4.10882 5.5 3.82549 5.8C3.54216 6.08333 3.40049 6.425 3.40049 6.825V17.175C3.40049 17.575 3.54216 17.9167 3.82549 18.2C4.10882 18.4833 4.45049 18.625 4.85049 18.625H19.1755ZM2.67549 9H9.80049V10.375H2.67549V9ZM11.8755 4.525H12.1255H11.8755ZM12.8005 10.6C12.4838 10.6 12.2088 10.4917 11.9755 10.275C11.7588 10.0417 11.6505 9.76667 11.6505 9.45C11.6505 9.13333 11.7588 8.86667 11.9755 8.65C12.2088 8.43333 12.4838 8.325 12.8005 8.325C13.1172 8.325 13.3838 8.43333 13.6005 8.65C13.8172 8.86667 13.9255 9.13333 13.9255 9.45C13.9255 9.76667 13.8172 10.0417 13.6005 10.275C13.3838 10.4917 13.1172 10.6 12.8005 10.6ZM18.0505 15.675C17.7338 15.675 17.4672 15.5667 17.2505 15.35C17.0338 15.1333 16.9255 14.8667 16.9255 14.55C16.9255 14.2333 17.0338 13.9667 17.2505 13.75C17.4672 13.5167 17.7338 13.4 18.0505 13.4C18.3672 13.4 18.6338 13.5167 18.8505 13.75C19.0838 13.9667 19.2005 14.2333 19.2005 14.55C19.2005 14.8667 19.0838 15.1333 18.8505 15.35C18.6338 15.5667 18.3672 15.675 18.0505 15.675ZM12.8005 9.5C12.9338 9.5 13.0338 9.5 13.1005 9.5C13.1672 9.5 13.2755 9.5 13.4255 9.5C13.2755 9.5 13.1672 9.5 13.1005 9.5C13.0338 9.5 12.9338 9.5 12.8005 9.5C12.6505 9.5 12.5422 9.5 12.4755 9.5C12.4088 9.5 12.3088 9.5 12.1755 9.5C12.3088 9.5 12.4088 9.5 12.4755 9.5C12.5422 9.5 12.6505 9.5 12.8005 9.5ZM18.0505 14.5C18.2005 14.5 18.3088 14.5 18.3755 14.5C18.4422 14.5 18.5422 14.5 18.6755 14.5C18.5422 14.5 18.4422 14.5 18.3755 14.5C18.3088 14.5 18.2005 14.5 18.0505 14.5C17.9172 14.5 17.8172 14.5 17.7505 14.5C17.6838 14.5 17.5755 14.5 17.4255 14.5C17.5755 14.5 17.6838 14.5 17.7505 14.5C17.8172 14.5 17.9172 14.5 18.0505 14.5ZM17.1505 8.375H18.7505L13.7005 15.625H12.1005L17.1505 8.375Z" fill="black"/>
</g>
<defs>
<clipPath id="clip0_3177_15632">
<rect width="24" height="24" fill="white"/>
</clipPath>
</defs>
</svg>
