<svg width="24" height="24" viewBox="0 0 24 24" fill="none" xmlns="http://www.w3.org/2000/svg">
<g clip-path="url(#clip0_3181_24978)">
<rect width="24" height="24" fill="white"/>
<path d="M5.02549 20C4.47549 20 3.96716 19.8667 3.50049 19.6C3.05049 19.3333 2.69216 18.975 2.42549 18.525C2.15882 18.0583 2.02549 17.55 2.02549 17V7C2.02549 6.45 2.15882 5.95 2.42549 5.5C2.69216 5.03333 3.05049 4.66667 3.50049 4.4C3.96716 4.13333 4.47549 4 5.02549 4H19.0255C19.5755 4 20.0755 4.13333 20.5255 4.4C20.9922 4.66667 21.3588 5.03333 21.6255 5.5C21.8922 5.95 22.0255 6.45 22.0255 7V17C22.0255 17.55 21.8922 18.0583 21.6255 18.525C21.3588 18.975 20.9922 19.3333 20.5255 19.6C20.0755 19.8667 19.5755 20 19.0255 20H5.02549ZM19.0255 18.2C19.3422 18.2 19.6088 18.0833 19.8255 17.85C20.0588 17.6167 20.1755 17.3333 20.1755 17V7C20.1755 6.66667 20.0588 6.38333 19.8255 6.15C19.6088 5.91667 19.3422 5.8 19.0255 5.8H5.02549C4.70882 5.8 4.43382 5.91667 4.20049 6.15C3.98382 6.38333 3.87549 6.66667 3.87549 7V17C3.87549 17.3333 3.98382 17.6167 4.20049 17.85C4.43382 18.0833 4.70882 18.2 5.02549 18.2H19.0255ZM3.45049 8.5H9.80049V10.3H3.45049V8.5ZM11.8755 4.9H12.1255H11.8755ZM14.1505 15.325C13.7005 15.2417 13.3005 15.0917 12.9505 14.875C12.6005 14.6417 12.3005 14.3333 12.0505 13.95L13.1755 13.125C13.5422 13.7083 14.1005 14 14.8505 14C15.2005 14 15.4838 13.9333 15.7005 13.8C15.9172 13.6667 16.0255 13.4833 16.0255 13.25C16.0255 12.95 15.8172 12.7583 15.4005 12.675C15.3672 12.6583 15.3255 12.65 15.2755 12.65C15.2422 12.6333 15.2088 12.625 15.1755 12.625L14.1505 12.475C13.5338 12.3917 13.0505 12.175 12.7005 11.825C12.3505 11.475 12.1755 11.025 12.1755 10.475C12.1755 9.925 12.3588 9.48333 12.7255 9.15C13.0922 8.8 13.5672 8.575 14.1505 8.475V7.475H15.6505V8.475C16.0505 8.55833 16.4172 8.70833 16.7505 8.925C17.0838 9.125 17.3588 9.4 17.5755 9.75L16.4505 10.55C16.1338 10.05 15.6172 9.8 14.9005 9.8C14.5505 9.8 14.2755 9.85833 14.0755 9.975C13.8922 10.075 13.8005 10.2333 13.8005 10.45C13.8005 10.65 13.8672 10.8 14.0005 10.9C14.1505 10.9833 14.3672 11.0417 14.6505 11.075L15.5255 11.2C16.1755 11.3 16.6922 11.5167 17.0755 11.85C17.4588 12.1833 17.6505 12.6417 17.6505 13.225C17.6505 13.775 17.4672 14.2333 17.1005 14.6C16.7338 14.95 16.2505 15.1833 15.6505 15.3V16.3H14.1505V15.325Z" fill="black"/>
</g>
<defs>
<clipPath id="clip0_3181_24978">
<rect width="24" height="24" fill="white"/>
</clipPath>
</defs>
</svg>
