<svg width="24" height="24" viewBox="0 0 24 24" fill="none" xmlns="http://www.w3.org/2000/svg">
<g clip-path="url(#clip0_3177_15630)">
<rect width="24" height="24" fill="white"/>
<path d="M4.67549 20C4.17549 20 3.71716 19.8833 3.30049 19.65C2.90049 19.4167 2.58382 19.1 2.35049 18.7C2.11716 18.2833 2.00049 17.825 2.00049 17.325V6.675C2.00049 6.175 2.11716 5.725 2.35049 5.325C2.58382 4.90833 2.90049 4.58333 3.30049 4.35C3.71716 4.11667 4.17549 4 4.67549 4H19.3255C19.8255 4 20.2755 4.11667 20.6755 4.35C21.0922 4.58333 21.4172 4.90833 21.6505 5.325C21.8838 5.725 22.0005 6.175 22.0005 6.675V17.325C22.0005 17.825 21.8838 18.2833 21.6505 18.7C21.4172 19.1 21.0922 19.4167 20.6755 19.65C20.2755 19.8833 19.8255 20 19.3255 20H4.67549ZM19.3255 19.1C19.8255 19.1 20.2338 18.9333 20.5505 18.6C20.8838 18.25 21.0505 17.825 21.0505 17.325V6.675C21.0505 6.175 20.8838 5.75833 20.5505 5.425C20.2338 5.075 19.8255 4.9 19.3255 4.9H4.67549C4.17549 4.9 3.75882 5.075 3.42549 5.425C3.10882 5.75833 2.95049 6.175 2.95049 6.675V17.325C2.95049 17.825 3.10882 18.25 3.42549 18.6C3.75882 18.9333 4.17549 19.1 4.67549 19.1H19.3255ZM2.27549 11H9.72549V11.9H2.27549V11ZM2.27549 8H9.72549V8.9H2.27549V8ZM12.8505 11.65C12.3505 11.65 11.9255 11.4833 11.5755 11.15C11.2422 10.8 11.0755 10.375 11.0755 9.875C11.0755 9.39167 11.2422 8.98333 11.5755 8.65C11.9255 8.31667 12.3505 8.15 12.8505 8.15C13.3505 8.15 13.7672 8.31667 14.1005 8.65C14.4338 8.98333 14.6005 9.39167 14.6005 9.875C14.6005 10.375 14.4255 10.8 14.0755 11.15C13.7422 11.4833 13.3338 11.65 12.8505 11.65ZM18.0505 15.8C17.5505 15.8 17.1338 15.6333 16.8005 15.3C16.4672 14.95 16.3005 14.525 16.3005 14.025C16.3005 13.5583 16.4672 13.1583 16.8005 12.825C17.1338 12.4917 17.5505 12.325 18.0505 12.325C18.5505 12.325 18.9672 12.4917 19.3005 12.825C19.6505 13.1583 19.8255 13.5583 19.8255 14.025C19.8255 14.525 19.6505 14.95 19.3005 15.3C18.9672 15.6333 18.5505 15.8 18.0505 15.8ZM12.8505 10.875C13.1172 10.875 13.3422 10.7833 13.5255 10.6C13.7255 10.4 13.8255 10.1583 13.8255 9.875C13.8255 9.60833 13.7255 9.38333 13.5255 9.2C13.3422 9.01667 13.1172 8.925 12.8505 8.925C12.5672 8.925 12.3255 9.01667 12.1255 9.2C11.9422 9.38333 11.8505 9.60833 11.8505 9.875C11.8505 10.1583 11.9422 10.4 12.1255 10.6C12.3255 10.7833 12.5672 10.875 12.8505 10.875ZM18.0505 15.05C18.3338 15.05 18.5672 14.9583 18.7505 14.775C18.9505 14.575 19.0505 14.325 19.0505 14.025C19.0505 13.7583 18.9505 13.5333 18.7505 13.35C18.5672 13.1667 18.3338 13.075 18.0505 13.075C17.7838 13.075 17.5505 13.1667 17.3505 13.35C17.1672 13.5333 17.0755 13.7583 17.0755 14.025C17.0755 14.325 17.1672 14.575 17.3505 14.775C17.5505 14.9583 17.7838 15.05 18.0505 15.05ZM17.4255 8.375H18.4755L13.4005 15.625H12.3505L17.4255 8.375Z" fill="black"/>
</g>
<defs>
<clipPath id="clip0_3177_15630">
<rect width="24" height="24" fill="white"/>
</clipPath>
</defs>
</svg>
