<svg width="24" height="24" viewBox="0 0 24 24" fill="none" xmlns="http://www.w3.org/2000/svg">
<g clip-path="url(#clip0_3181_24958)">
<rect width="24" height="24" fill="white"/>
<path d="M5.50049 20C4.86716 20 4.27549 19.85 3.72549 19.55C3.19216 19.2333 2.76716 18.8083 2.45049 18.275C2.15049 17.725 2.00049 17.1333 2.00049 16.5V7.5C2.00049 6.85 2.15049 6.25833 2.45049 5.725C2.76716 5.19167 3.19216 4.775 3.72549 4.475C4.27549 4.15833 4.86716 4 5.50049 4H18.5005C19.1505 4 19.7422 4.15833 20.2755 4.475C20.8088 4.775 21.2255 5.19167 21.5255 5.725C21.8422 6.25833 22.0005 6.85 22.0005 7.5V16.5C22.0005 17.1333 21.8422 17.725 21.5255 18.275C21.2255 18.8083 20.8088 19.2333 20.2755 19.55C19.7422 19.85 19.1505 20 18.5005 20H5.50049ZM18.3255 16.475C18.3422 16.475 18.3588 16.4667 18.3755 16.45C18.3922 16.4333 18.4005 16.4167 18.4005 16.4V7.625C18.4005 7.60833 18.3922 7.59167 18.3755 7.575C18.3588 7.55833 18.3422 7.55 18.3255 7.55H5.67549C5.65882 7.55 5.64216 7.55833 5.62549 7.575C5.60882 7.59167 5.60049 7.60833 5.60049 7.625V16.4C5.60049 16.4167 5.60882 16.4333 5.62549 16.45C5.64216 16.4667 5.65882 16.475 5.67549 16.475H18.3255ZM3.67549 9.25H8.05049V12.8H3.67549V9.25ZM11.8755 5.625H12.1255H11.8755ZM10.4755 11.675C9.95882 11.675 9.55049 11.5333 9.25049 11.25C8.95049 10.95 8.80049 10.55 8.80049 10.05C8.80049 9.53333 8.95049 9.13333 9.25049 8.85C9.55049 8.55 9.95882 8.4 10.4755 8.4C10.9922 8.4 11.3922 8.55 11.6755 8.85C11.9755 9.13333 12.1255 9.53333 12.1255 10.05C12.1255 10.55 11.9755 10.95 11.6755 11.25C11.3922 11.5333 10.9922 11.675 10.4755 11.675ZM15.9755 15.575C15.4755 15.575 15.0755 15.4333 14.7755 15.15C14.4755 14.85 14.3255 14.4417 14.3255 13.925C14.3255 13.4417 14.4755 13.0583 14.7755 12.775C15.0755 12.475 15.4755 12.325 15.9755 12.325C16.4922 12.325 16.9005 12.475 17.2005 12.775C17.5005 13.0583 17.6505 13.4417 17.6505 13.925C17.6505 14.4417 17.5005 14.85 17.2005 15.15C16.9005 15.4333 16.4922 15.575 15.9755 15.575ZM10.4755 10.05C10.6588 10.05 10.7922 10.05 10.8755 10.05C10.9755 10.05 11.1172 10.05 11.3005 10.05C11.1172 10.05 10.9755 10.05 10.8755 10.05C10.7922 10.05 10.6588 10.05 10.4755 10.05C10.2755 10.05 10.1255 10.05 10.0255 10.05C9.94216 10.05 9.80882 10.05 9.62549 10.05C9.82549 10.05 9.96716 10.05 10.0505 10.05C10.1505 10.05 10.2922 10.05 10.4755 10.05ZM16.0005 13.925C16.1838 13.925 16.3172 13.925 16.4005 13.925C16.4838 13.925 16.6172 13.925 16.8005 13.925C16.6172 13.925 16.4838 13.925 16.4005 13.925C16.3172 13.925 16.1838 13.925 16.0005 13.925C15.8172 13.925 15.6755 13.925 15.5755 13.925C15.4922 13.925 15.3588 13.925 15.1755 13.925C15.3588 13.925 15.4922 13.925 15.5755 13.925C15.6755 13.925 15.8172 13.925 16.0005 13.925ZM13.7255 8.475H16.6505L12.7505 15.5H9.82549L13.7255 8.475Z" fill="black"/>
</g>
<defs>
<clipPath id="clip0_3181_24958">
<rect width="24" height="24" fill="white"/>
</clipPath>
</defs>
</svg>
