<svg width="24" height="24" viewBox="0 0 24 24" fill="none" xmlns="http://www.w3.org/2000/svg">
<g clip-path="url(#clip0_3355_3078)">
<rect width="24" height="24" fill="white"/>
<path d="M14.716 11.325C15.2993 11.325 15.7827 11.1333 16.166 10.75C16.566 10.35 16.766 9.85833 16.766 9.275C16.766 8.69167 16.566 8.20833 16.166 7.825C15.7827 7.44167 15.2993 7.25 14.716 7.25C14.1327 7.25 13.641 7.45 13.241 7.85C12.8577 8.23333 12.666 8.70833 12.666 9.275C12.666 9.84167 12.866 10.325 13.266 10.725C13.666 11.125 14.1493 11.325 14.716 11.325ZM3.81602 13.15C3.69935 13.15 3.58268 13.1 3.46602 13C3.36602 12.9 3.31602 12.7917 3.31602 12.675C3.31602 12.5417 3.36602 12.425 3.46602 12.325C3.58268 12.225 3.69935 12.175 3.81602 12.175C3.94935 12.175 4.06602 12.225 4.16602 12.325C4.26602 12.425 4.31602 12.5417 4.31602 12.675C4.31602 12.7917 4.26602 12.9 4.16602 13C4.06602 13.1 3.94935 13.15 3.81602 13.15ZM5.84102 19.5C5.45768 19.5 5.13268 19.375 4.86602 19.125C4.59935 18.8583 4.46602 18.525 4.46602 18.125C4.46602 17.7417 4.59935 17.4167 4.86602 17.15C5.13268 16.8833 5.45768 16.75 5.84102 16.75C6.22435 16.75 6.54935 16.8833 6.81602 17.15C7.08268 17.4167 7.21602 17.7417 7.21602 18.125C7.21602 18.5083 7.08268 18.8333 6.81602 19.1C6.54935 19.3667 6.22435 19.5 5.84102 19.5ZM11.991 22C11.5077 22 11.091 21.825 10.741 21.475C10.4077 21.1417 10.241 20.7333 10.241 20.25C10.241 19.7667 10.4077 19.3583 10.741 19.025C11.091 18.675 11.5077 18.5 11.991 18.5C12.4743 18.5 12.8827 18.675 13.216 19.025C13.566 19.3583 13.741 19.7667 13.741 20.25C13.741 20.7333 13.566 21.1417 13.216 21.475C12.8827 21.825 12.4743 22 11.991 22ZM3.74102 13.75C3.25768 13.75 2.84102 13.5833 2.49102 13.25C2.15768 12.9167 1.99102 12.5 1.99102 12C1.99102 11.5 2.15768 11.0833 2.49102 10.75C2.84102 10.4167 3.25768 10.25 3.74102 10.25C4.24102 10.25 4.65768 10.4167 4.99102 10.75C5.32435 11.0833 5.49102 11.5 5.49102 12C5.49102 12.5 5.32435 12.9167 4.99102 13.25C4.65768 13.5833 4.24102 13.75 3.74102 13.75ZM9.29102 16.75C8.72435 16.75 8.24102 16.5583 7.84102 16.175C7.44102 15.775 7.24102 15.2833 7.24102 14.7C7.24102 14.1333 7.43268 13.6583 7.81602 13.275C8.21602 12.875 8.70768 12.675 9.29102 12.675C9.87435 12.675 10.3577 12.875 10.741 13.275C11.1243 13.6583 11.316 14.1333 11.316 14.7C11.316 15.2833 11.116 15.775 10.716 16.175C10.3327 16.5583 9.85768 16.75 9.29102 16.75ZM9.21602 15.5C8.94935 15.5 8.72435 15.4083 8.54102 15.225C8.37435 15.0417 8.29102 14.8167 8.29102 14.55C8.29102 14.3 8.37435 14.0833 8.54102 13.9C8.72435 13.7167 8.94935 13.625 9.21602 13.625C9.48268 13.625 9.69935 13.7167 9.86602 13.9C10.0493 14.0833 10.141 14.3 10.141 14.55C10.141 14.8167 10.0493 15.0417 9.86602 15.225C9.69935 15.4083 9.48268 15.5 9.21602 15.5ZM3.46602 11.825C3.31602 11.825 3.18268 11.7667 3.06602 11.65C2.94935 11.5333 2.89102 11.3917 2.89102 11.225C2.89102 11.075 2.94102 10.9417 3.04102 10.825C3.15768 10.6917 3.29935 10.625 3.46602 10.625C3.61602 10.625 3.74935 10.6917 3.86602 10.825C3.99935 10.9417 4.06602 11.075 4.06602 11.225C4.06602 11.3917 3.99935 11.5333 3.86602 11.65C3.74935 11.7667 3.61602 11.825 3.46602 11.825ZM18.166 19.5C17.7827 19.5 17.4577 19.375 17.191 19.125C16.9243 18.8583 16.791 18.525 16.791 18.125C16.791 17.7417 16.916 17.4167 17.166 17.15C17.4327 16.8833 17.766 16.75 18.166 16.75C18.5494 16.75 18.8744 16.8833 19.141 17.15C19.4077 17.4167 19.541 17.7417 19.541 18.125C19.541 18.5083 19.4077 18.8333 19.141 19.1C18.8744 19.3667 18.5494 19.5 18.166 19.5ZM9.29102 11.325C8.72435 11.325 8.24102 11.125 7.84102 10.725C7.44102 10.325 7.24102 9.84167 7.24102 9.275C7.24102 8.69167 7.43268 8.20833 7.81602 7.825C8.21602 7.44167 8.70768 7.25 9.29102 7.25C9.87435 7.25 10.3577 7.44167 10.741 7.825C11.1243 8.20833 11.316 8.69167 11.316 9.275C11.316 9.85833 11.116 10.35 10.716 10.75C10.3327 11.1333 9.85768 11.325 9.29102 11.325ZM14.716 16.75C14.1493 16.75 13.666 16.5583 13.266 16.175C12.866 15.775 12.666 15.2833 12.666 14.7C12.666 14.1333 12.8577 13.6583 13.241 13.275C13.641 12.875 14.1327 12.675 14.716 12.675C15.2993 12.675 15.7827 12.875 16.166 13.275C16.566 13.6583 16.766 14.1333 16.766 14.7C16.766 15.2833 16.566 15.775 16.166 16.175C15.7827 16.5583 15.2993 16.75 14.716 16.75ZM5.84102 7.25C5.45768 7.25 5.13268 7.11667 4.86602 6.85C4.59935 6.58333 4.46602 6.25833 4.46602 5.875C4.46602 5.49167 4.59935 5.16667 4.86602 4.9C5.13268 4.63333 5.45768 4.5 5.84102 4.5C6.22435 4.5 6.54935 4.63333 6.81602 4.9C7.08268 5.15 7.21602 5.475 7.21602 5.875C7.21602 6.25833 7.08268 6.58333 6.81602 6.85C6.54935 7.11667 6.22435 7.25 5.84102 7.25ZM20.316 13.225C20.1994 13.225 20.0994 13.1917 20.016 13.125C19.9327 13.0417 19.891 12.9333 19.891 12.8C19.891 12.6833 19.9327 12.5833 20.016 12.5C20.0994 12.4167 20.1994 12.375 20.316 12.375C20.4493 12.375 20.5494 12.4167 20.616 12.5C20.6994 12.5833 20.741 12.6833 20.741 12.8C20.741 12.9333 20.6994 13.0417 20.616 13.125C20.5494 13.1917 20.4493 13.225 20.316 13.225ZM9.11602 9.875C8.91602 9.875 8.74102 9.80833 8.59102 9.675C8.44102 9.525 8.36602 9.35 8.36602 9.15C8.36602 8.95 8.44102 8.775 8.59102 8.625C8.74102 8.475 8.91602 8.4 9.11602 8.4C9.31602 8.4 9.48268 8.475 9.61602 8.625C9.76602 8.775 9.84102 8.95 9.84102 9.15C9.84102 9.35 9.76602 9.525 9.61602 9.675C9.48268 9.80833 9.31602 9.875 9.11602 9.875ZM20.241 13.75C19.7577 13.75 19.341 13.5833 18.991 13.25C18.6577 12.9167 18.491 12.5 18.491 12C18.491 11.5 18.6577 11.0833 18.991 10.75C19.341 10.4167 19.7577 10.25 20.241 10.25C20.741 10.25 21.1577 10.4167 21.491 10.75C21.8243 11.0833 21.991 11.5 21.991 12C21.991 12.5 21.8243 12.9167 21.491 13.25C21.1577 13.5833 20.741 13.75 20.241 13.75ZM11.991 5.5C11.5077 5.5 11.091 5.33333 10.741 5C10.4077 4.65 10.241 4.23333 10.241 3.75C10.241 3.26667 10.4077 2.85833 10.741 2.525C11.091 2.175 11.5077 2 11.991 2C12.4743 2 12.8827 2.175 13.216 2.525C13.566 2.85833 13.741 3.26667 13.741 3.75C13.741 4.23333 13.566 4.65 13.216 5C12.8827 5.33333 12.4743 5.5 11.991 5.5ZM18.166 7.25C17.7827 7.25 17.4577 7.11667 17.191 6.85C16.9243 6.58333 16.791 6.25833 16.791 5.875C16.791 5.49167 16.916 5.16667 17.166 4.9C17.4327 4.63333 17.766 4.5 18.166 4.5C18.5494 4.5 18.8744 4.63333 19.141 4.9C19.4077 5.15 19.541 5.475 19.541 5.875C19.541 6.25833 19.4077 6.58333 19.141 6.85C18.8744 7.11667 18.5494 7.25 18.166 7.25ZM20.091 11.475C20.0077 11.475 19.9493 11.4583 19.916 11.425C19.8827 11.3917 19.866 11.3333 19.866 11.25C19.866 11.1833 19.8827 11.1333 19.916 11.1C19.9493 11.0667 20.0077 11.05 20.091 11.05C20.1577 11.05 20.2077 11.075 20.241 11.125C20.2744 11.1583 20.291 11.2083 20.291 11.275C20.291 11.3417 20.2744 11.3917 20.241 11.425C20.2077 11.4583 20.1577 11.475 20.091 11.475Z" fill="black"/>
</g>
<defs>
<clipPath id="clip0_3355_3078">
<rect width="24" height="24" fill="white"/>
</clipPath>
</defs>
</svg>
