<svg width="24" height="24" viewBox="0 0 24 24" fill="none" xmlns="http://www.w3.org/2000/svg">
<g clip-path="url(#clip0_3390_10557)">
<rect width="24" height="24" fill="white"/>
<path d="M4.85049 20C4.31716 20 3.83382 19.875 3.40049 19.625C2.98382 19.375 2.64216 19.0333 2.37549 18.6C2.12549 18.1667 2.00049 17.6917 2.00049 17.175V6.825C2.00049 6.30833 2.12549 5.83333 2.37549 5.4C2.64216 4.96667 2.98382 4.625 3.40049 4.375C3.83382 4.125 4.31716 4 4.85049 4H19.1755C19.7088 4 20.1838 4.125 20.6005 4.375C21.0338 4.625 21.3755 4.96667 21.6255 5.4C21.8755 5.83333 22.0005 6.30833 22.0005 6.825V17.175C22.0005 17.6917 21.8755 18.1667 21.6255 18.6C21.3755 19.0333 21.0338 19.375 20.6005 19.625C20.1672 19.875 19.6922 20 19.1755 20H4.85049ZM19.1755 18.625C19.5755 18.625 19.9088 18.4833 20.1755 18.2C20.4588 17.9167 20.6005 17.575 20.6005 17.175V6.825C20.6005 6.425 20.4588 6.08333 20.1755 5.8C19.9088 5.5 19.5755 5.35 19.1755 5.35H4.85049C4.45049 5.35 4.10882 5.5 3.82549 5.8C3.54216 6.08333 3.40049 6.425 3.40049 6.825V17.175C3.40049 17.575 3.54216 17.9167 3.82549 18.2C4.10882 18.4833 4.45049 18.625 4.85049 18.625H19.1755ZM2.67549 9H9.80049V10.425H2.67549V9ZM11.8755 4.525H12.1255H11.8755ZM11.6755 11.35H14.5255V8.525H15.8255V11.35H18.6755V12.625H15.8255V15.475H14.5255V12.625H11.6755V11.35Z" fill="black"/>
</g>
<defs>
<clipPath id="clip0_3390_10557">
<rect width="24" height="24" fill="white"/>
</clipPath>
</defs>
</svg>
