<svg width="24" height="24" viewBox="0 0 24 24" fill="none" xmlns="http://www.w3.org/2000/svg">
<g clip-path="url(#clip0_3176_15228)">
<rect width="24" height="24" fill="white"/>
<path d="M1.00049 3.475V3H23.0005V3.475H1.00049ZM20.0005 16.75H4.00049V3.35H4.50049V16.275H19.5005V3.35H20.0005V16.75ZM12.0005 11.425C11.1672 11.425 10.4588 11.1417 9.87549 10.575C9.29216 9.99167 9.00049 9.28333 9.00049 8.45C9.00049 7.61667 9.29216 6.91667 9.87549 6.35C10.4588 5.76667 11.1672 5.475 12.0005 5.475C12.8338 5.475 13.5422 5.76667 14.1255 6.35C14.7088 6.91667 15.0005 7.61667 15.0005 8.45C15.0005 9.28333 14.7088 9.99167 14.1255 10.575C13.5422 11.1417 12.8338 11.425 12.0005 11.425ZM12.0005 10.975C12.7172 10.975 13.3172 10.7333 13.8005 10.25C14.2838 9.76667 14.5255 9.16667 14.5255 8.45C14.5255 7.73333 14.2838 7.13333 13.8005 6.65C13.3172 6.16667 12.7172 5.925 12.0005 5.925C11.2838 5.925 10.6838 6.16667 10.2005 6.65C9.71716 7.13333 9.47549 7.73333 9.47549 8.45C9.47549 9.16667 9.71716 9.76667 10.2005 10.25C10.6838 10.7333 11.2838 10.975 12.0005 10.975ZM12.0005 21.425L14.9255 18.5L15.2755 18.85L12.0005 22.125L8.72549 18.85L9.07549 18.5L12.0005 21.425Z" fill="black"/>
</g>
<defs>
<clipPath id="clip0_3176_15228">
<rect width="24" height="24" fill="white"/>
</clipPath>
</defs>
</svg>
