<svg width="24" height="24" viewBox="0 0 24 24" fill="none" xmlns="http://www.w3.org/2000/svg">
<g clip-path="url(#clip0_3177_15837)">
<rect width="24" height="24" fill="white"/>
<path d="M23 19H1V5H23V19ZM13.725 7.9L8.25 16.125H10.275L15.75 7.9H13.725ZM8.3 10.125C8.56667 10.375 8.88333 10.5 9.25 10.5C9.61667 10.5 9.925 10.375 10.175 10.125C10.4417 9.85833 10.575 9.54167 10.575 9.175C10.575 8.80833 10.4417 8.5 10.175 8.25C9.925 7.98333 9.61667 7.85 9.25 7.85C8.88333 7.85 8.56667 7.98333 8.3 8.25C8.05 8.5 7.925 8.80833 7.925 9.175C7.925 9.54167 8.05 9.85833 8.3 10.125ZM13.8 15.8C14.0667 16.05 14.3833 16.175 14.75 16.175C15.1167 16.175 15.425 16.05 15.675 15.8C15.9417 15.5333 16.075 15.2167 16.075 14.85C16.075 14.4833 15.9417 14.175 15.675 13.925C15.425 13.6583 15.1167 13.525 14.75 13.525C14.3833 13.525 14.0667 13.6583 13.8 13.925C13.55 14.175 13.425 14.4833 13.425 14.85C13.425 15.2167 13.55 15.5333 13.8 15.8ZM6.8 9.175C6.8 9.175 6.78333 9.175 6.75 9.175C6.71667 9.175 6.69167 9.175 6.675 9.175C6.675 9.175 6.65833 9.175 6.625 9.175C6.65833 9.175 6.675 9.175 6.675 9.175C6.69167 9.175 6.71667 9.175 6.75 9.175C6.78333 9.175 6.8 9.175 6.8 9.175C6.81667 9.175 6.84167 9.175 6.875 9.175C6.84167 9.175 6.81667 9.175 6.8 9.175ZM17.3 14.85C17.3 14.85 17.2833 14.85 17.25 14.85C17.2167 14.85 17.1917 14.85 17.175 14.85C17.175 14.85 17.1583 14.85 17.125 14.85C17.1583 14.85 17.175 14.85 17.175 14.85C17.1917 14.85 17.2167 14.85 17.25 14.85C17.2833 14.85 17.3 14.85 17.3 14.85C17.3167 14.85 17.3417 14.85 17.375 14.85C17.3417 14.85 17.3167 14.85 17.3 14.85Z" fill="black"/>
</g>
<defs>
<clipPath id="clip0_3177_15837">
<rect width="24" height="24" fill="white"/>
</clipPath>
</defs>
</svg>
