<svg width="24" height="24" viewBox="0 0 24 24" fill="none" xmlns="http://www.w3.org/2000/svg">
<g clip-path="url(#clip0_3181_25140)">
<rect width="24" height="24" fill="white"/>
<path d="M1.00049 4.25H23.0005V19.75H1.00049V4.25ZM19.5005 16.3V7.7H4.50049V16.3H19.5005ZM9.62549 11.675C9.14216 11.675 8.75882 11.5333 8.47549 11.25C8.20882 10.95 8.07549 10.55 8.07549 10.05C8.07549 9.53333 8.20882 9.13333 8.47549 8.85C8.75882 8.55 9.14216 8.4 9.62549 8.4C10.0922 8.4 10.4588 8.55 10.7255 8.85C11.0088 9.13333 11.1505 9.53333 11.1505 10.05C11.1505 10.55 11.0088 10.95 10.7255 11.25C10.4588 11.5333 10.0922 11.675 9.62549 11.675ZM14.4255 15.575C13.9422 15.575 13.5588 15.4333 13.2755 15.15C13.0088 14.85 12.8755 14.4417 12.8755 13.925C12.8755 13.4417 13.0172 13.0583 13.3005 12.775C13.5838 12.475 13.9588 12.325 14.4255 12.325C14.8922 12.325 15.2588 12.475 15.5255 12.775C15.8088 13.0583 15.9505 13.4417 15.9505 13.925C15.9505 14.4417 15.8088 14.85 15.5255 15.15C15.2588 15.4333 14.8922 15.575 14.4255 15.575ZM9.62549 10.05C9.80882 10.05 9.94216 10.05 10.0255 10.05C10.1255 10.05 10.2672 10.05 10.4505 10.05C10.2672 10.05 10.1255 10.05 10.0255 10.05C9.94216 10.05 9.80882 10.05 9.62549 10.05C9.42549 10.05 9.27549 10.05 9.17549 10.05C9.09216 10.05 8.95882 10.05 8.77549 10.05C8.97549 10.05 9.11716 10.05 9.20049 10.05C9.30049 10.05 9.44216 10.05 9.62549 10.05ZM14.4255 13.925C14.6088 13.925 14.7422 13.925 14.8255 13.925C14.9088 13.925 15.0422 13.925 15.2255 13.925C15.0422 13.925 14.9088 13.925 14.8255 13.925C14.7422 13.925 14.6088 13.925 14.4255 13.925C14.2422 13.925 14.1005 13.925 14.0005 13.925C13.9172 13.925 13.7838 13.925 13.6005 13.925C13.7838 13.925 13.9172 13.925 14.0005 13.925C14.1005 13.925 14.2422 13.925 14.4255 13.925ZM12.7255 8.475H15.3505L11.3505 15.5H8.72549L12.7255 8.475Z" fill="black"/>
</g>
<defs>
<clipPath id="clip0_3181_25140">
<rect width="24" height="24" fill="white"/>
</clipPath>
</defs>
</svg>
