<svg width="24" height="24" viewBox="0 0 24 24" fill="none" xmlns="http://www.w3.org/2000/svg">
<g clip-path="url(#clip0_3181_25364)">
<rect width="24" height="24" fill="white"/>
<path d="M1.00049 5H23.0005V19H1.00049V5ZM22.0505 18.075V5.925H1.95049V18.075H22.0505ZM12.0005 15.575C11.3505 15.575 10.7505 15.4167 10.2005 15.1C9.65049 14.7833 9.21716 14.35 8.90049 13.8C8.58382 13.25 8.42549 12.65 8.42549 12C8.42549 11.35 8.58382 10.75 8.90049 10.2C9.21716 9.65 9.65049 9.21667 10.2005 8.9C10.7505 8.58333 11.3505 8.425 12.0005 8.425C12.6505 8.425 13.2505 8.58333 13.8005 8.9C14.3505 9.21667 14.7838 9.65 15.1005 10.2C15.4172 10.75 15.5755 11.35 15.5755 12C15.5755 12.65 15.4172 13.25 15.1005 13.8C14.7838 14.35 14.3505 14.7833 13.8005 15.1C13.2505 15.4167 12.6505 15.575 12.0005 15.575ZM12.0005 14.65C12.7338 14.65 13.3588 14.4 13.8755 13.9C14.3922 13.3833 14.6505 12.75 14.6505 12C14.6505 11.25 14.3922 10.625 13.8755 10.125C13.3588 9.60833 12.7338 9.35 12.0005 9.35C11.2672 9.35 10.6422 9.60833 10.1255 10.125C9.60882 10.625 9.35049 11.25 9.35049 12C9.35049 12.75 9.60882 13.3833 10.1255 13.9C10.6422 14.4 11.2672 14.65 12.0005 14.65Z" fill="black"/>
</g>
<defs>
<clipPath id="clip0_3181_25364">
<rect width="24" height="24" fill="white"/>
</clipPath>
</defs>
</svg>
