<svg width="24" height="24" viewBox="0 0 24 24" fill="none" xmlns="http://www.w3.org/2000/svg">
<g clip-path="url(#clip0_3177_15821)">
<rect width="24" height="24" fill="white"/>
<path d="M1.00049 5H23.0005V19H1.00049V5ZM21.6005 17.65V6.35H2.40049V17.65H21.6005ZM9.37549 10.6C9.05882 10.6 8.78382 10.4917 8.55049 10.275C8.33382 10.0417 8.22549 9.76667 8.22549 9.45C8.22549 9.13333 8.33382 8.86667 8.55049 8.65C8.78382 8.43333 9.05882 8.325 9.37549 8.325C9.69216 8.325 9.95882 8.43333 10.1755 8.65C10.3922 8.86667 10.5005 9.13333 10.5005 9.45C10.5005 9.76667 10.3922 10.0417 10.1755 10.275C9.95882 10.4917 9.69216 10.6 9.37549 10.6ZM14.6255 15.675C14.3088 15.675 14.0422 15.5667 13.8255 15.35C13.6088 15.1333 13.5005 14.8667 13.5005 14.55C13.5005 14.2333 13.6088 13.9667 13.8255 13.75C14.0422 13.5167 14.3088 13.4 14.6255 13.4C14.9422 13.4 15.2088 13.5167 15.4255 13.75C15.6588 13.9667 15.7755 14.2333 15.7755 14.55C15.7755 14.8667 15.6588 15.1333 15.4255 15.35C15.2088 15.5667 14.9422 15.675 14.6255 15.675ZM9.37549 9.5C9.50882 9.5 9.60882 9.5 9.67549 9.5C9.74216 9.5 9.85049 9.5 10.0005 9.5C9.85049 9.5 9.74216 9.5 9.67549 9.5C9.60882 9.5 9.50882 9.5 9.37549 9.5C9.22549 9.5 9.11716 9.5 9.05049 9.5C8.98382 9.5 8.88382 9.5 8.75049 9.5C8.88382 9.5 8.98382 9.5 9.05049 9.5C9.11716 9.5 9.22549 9.5 9.37549 9.5ZM14.6255 14.5C14.7755 14.5 14.8838 14.5 14.9505 14.5C15.0172 14.5 15.1172 14.5 15.2505 14.5C15.1172 14.5 15.0172 14.5 14.9505 14.5C14.8838 14.5 14.7755 14.5 14.6255 14.5C14.4922 14.5 14.3922 14.5 14.3255 14.5C14.2588 14.5 14.1505 14.5 14.0005 14.5C14.1505 14.5 14.2588 14.5 14.3255 14.5C14.3922 14.5 14.4922 14.5 14.6255 14.5ZM13.7255 8.375H15.3255L10.2755 15.625H8.67549L13.7255 8.375Z" fill="black"/>
</g>
<defs>
<clipPath id="clip0_3177_15821">
<rect width="24" height="24" fill="white"/>
</clipPath>
</defs>
</svg>
