<svg width="24" height="24" viewBox="0 0 24 24" fill="none" xmlns="http://www.w3.org/2000/svg">
<g clip-path="url(#clip0_3181_24896)">
<rect width="24" height="24" fill="white"/>
<path d="M1.00049 3.9V3H23.0005V3.9H1.00049ZM20.0005 16.825H4.00049V3.6H4.95049V15.925H19.0505V3.6H20.0005V16.825ZM12.0005 11.75C11.1672 11.75 10.4588 11.4667 9.87549 10.9C9.29216 10.3167 9.00049 9.60833 9.00049 8.775C9.00049 7.94167 9.29216 7.24167 9.87549 6.675C10.4588 6.09167 11.1672 5.8 12.0005 5.8C12.8338 5.8 13.5422 6.09167 14.1255 6.675C14.7088 7.24167 15.0005 7.94167 15.0005 8.775C15.0005 9.60833 14.7088 10.3167 14.1255 10.9C13.5422 11.4667 12.8338 11.75 12.0005 11.75ZM12.0005 10.9C12.6005 10.9 13.1005 10.7 13.5005 10.3C13.9172 9.88333 14.1255 9.375 14.1255 8.775C14.1255 8.175 13.9172 7.675 13.5005 7.275C13.1005 6.875 12.6005 6.675 12.0005 6.675C11.4005 6.675 10.8922 6.875 10.4755 7.275C10.0755 7.675 9.87549 8.175 9.87549 8.775C9.87549 9.375 10.0755 9.88333 10.4755 10.3C10.8922 10.7 11.4005 10.9 12.0005 10.9ZM12.0005 20.85L14.5755 18.175L15.2505 18.875L12.0005 22.125L8.75049 18.875L9.42549 18.175L12.0005 20.85Z" fill="black"/>
</g>
<defs>
<clipPath id="clip0_3181_24896">
<rect width="24" height="24" fill="white"/>
</clipPath>
</defs>
</svg>
