<svg width="24" height="24" viewBox="0 0 24 24" fill="none" xmlns="http://www.w3.org/2000/svg">
<g clip-path="url(#clip0_3177_15586)">
<rect width="24" height="24" fill="white"/>
<path d="M1 6.125V3H23V6.125H1ZM20 16.675H4V4.75H20V16.675ZM12 13.175C12.6 13.175 13.15 13.0333 13.65 12.75C14.1667 12.45 14.5667 12.05 14.85 11.55C15.15 11.05 15.3 10.5 15.3 9.9C15.3 9.3 15.15 8.75 14.85 8.25C14.5667 7.75 14.1667 7.35833 13.65 7.075C13.15 6.775 12.6 6.625 12 6.625C11.4 6.625 10.8417 6.775 10.325 7.075C9.825 7.35833 9.425 7.75 9.125 8.25C8.84167 8.75 8.7 9.3 8.7 9.9C8.7 10.5 8.84167 11.05 9.125 11.55C9.425 12.05 9.825 12.45 10.325 12.75C10.8417 13.0333 11.4 13.175 12 13.175ZM12 18L15.925 21.925H14.45H11.95H9.775H8.075L12 18Z" fill="black"/>
</g>
<defs>
<clipPath id="clip0_3177_15586">
<rect width="24" height="24" fill="white"/>
</clipPath>
</defs>
</svg>
