<svg width="24" height="24" viewBox="0 0 24 24" fill="none" xmlns="http://www.w3.org/2000/svg">
<g clip-path="url(#clip0_3181_25140)">
<rect width="24" height="24" fill="white"/>
<path d="M1.00049 4.25H23.0005V19.75H1.00049V4.25ZM19.4005 16.2V7.8H4.60049V16.2H19.4005ZM9.25049 11.675C8.73382 11.675 8.32549 11.5333 8.02549 11.25C7.72549 10.95 7.57549 10.55 7.57549 10.05C7.57549 9.53333 7.72549 9.13333 8.02549 8.85C8.32549 8.55 8.73382 8.4 9.25049 8.4C9.76716 8.4 10.1672 8.55 10.4505 8.85C10.7505 9.13333 10.9005 9.53333 10.9005 10.05C10.9005 10.55 10.7505 10.95 10.4505 11.25C10.1672 11.5333 9.76716 11.675 9.25049 11.675ZM14.7505 15.575C14.2505 15.575 13.8505 15.4333 13.5505 15.15C13.2505 14.85 13.1005 14.4417 13.1005 13.925C13.1005 13.4417 13.2505 13.0583 13.5505 12.775C13.8505 12.475 14.2505 12.325 14.7505 12.325C15.2672 12.325 15.6755 12.475 15.9755 12.775C16.2755 13.0583 16.4255 13.4417 16.4255 13.925C16.4255 14.4417 16.2755 14.85 15.9755 15.15C15.6755 15.4333 15.2672 15.575 14.7505 15.575ZM9.25049 10.05C9.43382 10.05 9.56716 10.05 9.65049 10.05C9.75049 10.05 9.89216 10.05 10.0755 10.05C9.89216 10.05 9.75049 10.05 9.65049 10.05C9.56716 10.05 9.43382 10.05 9.25049 10.05C9.05049 10.05 8.90049 10.05 8.80049 10.05C8.71716 10.05 8.58382 10.05 8.40049 10.05C8.60049 10.05 8.74216 10.05 8.82549 10.05C8.92549 10.05 9.06716 10.05 9.25049 10.05ZM14.7755 13.925C14.9588 13.925 15.0922 13.925 15.1755 13.925C15.2588 13.925 15.3922 13.925 15.5755 13.925C15.3922 13.925 15.2588 13.925 15.1755 13.925C15.0922 13.925 14.9588 13.925 14.7755 13.925C14.5922 13.925 14.4505 13.925 14.3505 13.925C14.2672 13.925 14.1338 13.925 13.9505 13.925C14.1338 13.925 14.2672 13.925 14.3505 13.925C14.4505 13.925 14.5922 13.925 14.7755 13.925ZM12.5005 8.475H15.4255L11.5255 15.5H8.60049L12.5005 8.475Z" fill="black"/>
</g>
<defs>
<clipPath id="clip0_3181_25140">
<rect width="24" height="24" fill="white"/>
</clipPath>
</defs>
</svg>
