<svg width="24" height="24" viewBox="0 0 24 24" fill="none" xmlns="http://www.w3.org/2000/svg">
<g clip-path="url(#clip0_3181_25152)">
<rect width="24" height="24" fill="white"/>
<path d="M23 19H1V5H23V19ZM13.125 7.925L8.275 16.15H10.875L15.7 7.925H13.125ZM7.65 10.675C7.95 10.975 8.34167 11.125 8.825 11.125C9.29167 11.125 9.66667 10.975 9.95 10.675C10.25 10.375 10.4 9.98333 10.4 9.5C10.4 9 10.25 8.6 9.95 8.3C9.66667 7.98333 9.29167 7.825 8.825 7.825C8.34167 7.825 7.95 7.98333 7.65 8.3C7.35 8.6 7.2 9 7.2 9.5C7.2 9.98333 7.35 10.375 7.65 10.675ZM14.025 15.75C14.325 16.05 14.7083 16.2 15.175 16.2C15.6583 16.2 16.0417 16.05 16.325 15.75C16.625 15.45 16.775 15.0583 16.775 14.575C16.775 14.075 16.625 13.6833 16.325 13.4C16.0417 13.1 15.6583 12.95 15.175 12.95C14.7083 12.95 14.325 13.1 14.025 13.4C13.725 13.6833 13.575 14.075 13.575 14.575C13.575 15.0583 13.725 15.45 14.025 15.75ZM10.125 8.35C10.0583 8.35 9.94167 8.35 9.775 8.35C9.64167 8.35 9.53333 8.35 9.45 8.35C9.38333 8.35 9.28333 8.35 9.15 8.35C9.28333 8.35 9.38333 8.35 9.45 8.35C9.53333 8.35 9.64167 8.35 9.775 8.35C9.925 8.35 10.0333 8.35 10.1 8.35C10.1667 8.35 10.2833 8.35 10.45 8.35C10.3 8.35 10.1917 8.35 10.125 8.35ZM16.025 13C15.9583 13 15.8583 13 15.725 13C15.575 13 15.4667 13 15.4 13C15.3333 13 15.2167 13 15.05 13C15.2 13 15.3083 13 15.375 13C15.4417 13 15.5583 13 15.725 13C15.8583 13 15.9583 13 16.025 13C16.1083 13 16.2167 13 16.35 13C16.2167 13 16.1083 13 16.025 13Z" fill="black"/>
</g>
<defs>
<clipPath id="clip0_3181_25152">
<rect width="24" height="24" fill="white"/>
</clipPath>
</defs>
</svg>
