<svg width="24" height="24" viewBox="0 0 24 24" fill="none" xmlns="http://www.w3.org/2000/svg">
<g clip-path="url(#clip0_3177_15747)">
<rect width="24" height="24" fill="white"/>
<path d="M1.00049 4.75H23.0005V19.25H1.00049V4.75ZM20.6005 16.9V7.1H3.40049V16.9H20.6005ZM11.5755 9.575L11.8755 9.075C12.0755 8.74167 12.3588 8.46667 12.7255 8.25C13.0922 8.03333 13.5255 7.925 14.0255 7.925C14.9588 7.925 15.6588 8.21667 16.1255 8.8C16.5922 9.38333 16.8255 10.0417 16.8255 10.775C16.8255 11.7083 16.4005 12.6417 15.5505 13.575C14.7172 14.4917 13.5422 15.3833 12.0255 16.25C10.6922 15.5 9.55049 14.6583 8.60049 13.725C7.66716 12.775 7.20049 11.7917 7.20049 10.775C7.20049 10.025 7.42549 9.36667 7.87549 8.8C8.34216 8.21667 9.04216 7.925 9.97549 7.925C10.4588 7.925 10.8922 8.03333 11.2755 8.25C11.6588 8.46667 11.9505 8.74167 12.1505 9.075L12.4505 9.575H11.5755ZM11.3255 10.85L11.2005 10.55C11.0505 10.3 10.8838 10.1083 10.7005 9.975C10.5172 9.825 10.2838 9.75 10.0005 9.75C9.71716 9.75 9.48382 9.85 9.30049 10.05C9.13382 10.2333 9.05049 10.4833 9.05049 10.8C9.05049 11.35 9.30882 11.9083 9.82549 12.475C10.3422 13.025 11.0755 13.6083 12.0255 14.225C12.9588 13.6083 13.6838 13.0167 14.2005 12.45C14.7172 11.8833 14.9755 11.3333 14.9755 10.8C14.9755 10.4833 14.8838 10.2333 14.7005 10.05C14.5172 9.85 14.2838 9.75 14.0005 9.75C13.7172 9.75 13.4838 9.825 13.3005 9.975C13.1172 10.1083 12.9505 10.3083 12.8005 10.575L12.6755 10.85H11.3255Z" fill="black"/>
</g>
<defs>
<clipPath id="clip0_3177_15747">
<rect width="24" height="24" fill="white"/>
</clipPath>
</defs>
</svg>
