<svg width="24" height="24" viewBox="0 0 24 24" fill="none" xmlns="http://www.w3.org/2000/svg">
<g clip-path="url(#clip0_3181_24712)">
<rect width="24" height="24" fill="white"/>
<path d="M15.975 16.925L12.475 11.275H15.95L17.525 14.175L19.125 11.275H22.6L19.025 16.9V21H15.975V16.925ZM4.95 13.2H8.025V14.75H4.95V13.2ZM6.4 13.55C5.56667 13.55 4.83333 13.4833 4.2 13.35C3.58333 13.2167 2.90833 12.95 2.175 12.55L3.425 10.2C3.875 10.4167 4.36667 10.6 4.9 10.75C5.43333 10.8833 5.95 10.95 6.45 10.95C6.85 10.95 7.15 10.9083 7.35 10.825C7.55 10.7417 7.65 10.6083 7.65 10.425C7.65 10.2417 7.575 10.1 7.425 10C7.29167 9.9 7.08333 9.83333 6.8 9.8L5.35 9.625C4.51667 9.525 3.825 9.23333 3.275 8.75C2.725 8.25 2.45 7.56667 2.45 6.7C2.45 5.68333 2.85 4.88333 3.65 4.3C4.46667 3.71667 5.43333 3.425 6.55 3.425C7.31667 3.425 8.075 3.50833 8.825 3.675C9.59167 3.84167 10.2083 4.05833 10.675 4.325L9.525 6.7C9.10833 6.51667 8.60833 6.35833 8.025 6.225C7.45833 6.09167 6.96667 6.025 6.55 6.025C6.18333 6.025 5.90833 6.075 5.725 6.175C5.55833 6.25833 5.475 6.4 5.475 6.6C5.475 6.76667 5.54167 6.88333 5.675 6.95C5.80833 7 6.00833 7.04167 6.275 7.075L7.625 7.225C8.525 7.325 9.25833 7.625 9.825 8.125C10.3917 8.60833 10.675 9.30833 10.675 10.225C10.675 11.2917 10.2667 12.1167 9.45 12.7C8.65 13.2667 7.63333 13.55 6.4 13.55ZM13.025 16.25H22.075V18.95H13.025V16.25ZM14.425 17.275H20.675V17.675H14.425V17.275ZM4.95 2.25H8.025V4.225H4.95V2.25ZM15.15 3H17.375H20.2H21.75L17.5 7.25L13.25 3H15.15ZM6.5 16.75L10.75 21H9.2H6.375H4.15H2.25L6.5 16.75Z" fill="black"/>
</g>
<defs>
<clipPath id="clip0_3181_24712">
<rect width="24" height="24" fill="white"/>
</clipPath>
</defs>
</svg>
