<svg width="24" height="24" viewBox="0 0 24 24" fill="none" xmlns="http://www.w3.org/2000/svg">
<g clip-path="url(#clip0_3181_24700)">
<rect width="24" height="24" fill="white"/>
<path d="M17.325 16.45L13.475 11.275H14.1L17.55 16.025L20.875 11.275H21.5L17.775 16.425V21H17.325V16.45ZM6.225 13.275H6.725V14.75H6.225V13.275ZM6.45 13.5C5.58333 13.5 4.84167 13.3167 4.225 12.95C3.60833 12.5833 3.19167 12.0333 2.975 11.3L3.425 11.15C3.60833 11.7667 3.96667 12.2417 4.5 12.575C5.03333 12.8917 5.68333 13.05 6.45 13.05C7.35 13.05 8.075 12.85 8.625 12.45C9.175 12.05 9.45 11.5083 9.45 10.825C9.45 10.2417 9.24167 9.76667 8.825 9.4C8.40833 9.03333 7.825 8.80833 7.075 8.725L5.875 8.575C4.99167 8.45833 4.325 8.19167 3.875 7.775C3.425 7.34167 3.2 6.775 3.2 6.075C3.2 5.20833 3.50833 4.55833 4.125 4.125C4.74167 3.69167 5.51667 3.475 6.45 3.475C7.31667 3.475 8.05833 3.66667 8.675 4.05C9.29167 4.43333 9.7 4.96667 9.9 5.65L9.45 5.8C9.26667 5.2 8.90833 4.74167 8.375 4.425C7.85833 4.10833 7.21667 3.95 6.45 3.95C5.63333 3.95 4.96667 4.125 4.45 4.475C3.95 4.825 3.7 5.35 3.7 6.05C3.7 6.61667 3.88333 7.075 4.25 7.425C4.63333 7.775 5.20833 8 5.975 8.1L7.175 8.25C8.025 8.35 8.69167 8.625 9.175 9.075C9.675 9.525 9.925 10.1083 9.925 10.825C9.925 11.6583 9.6 12.3167 8.95 12.8C8.3 13.2667 7.46667 13.5 6.45 13.5ZM13.775 18.45H21.325V18.9H13.775V18.45ZM13.775 16.425H21.325V16.875H13.775V16.425ZM6.225 2.25H6.725V3.675H6.225V2.25ZM17.5 5.675L20.425 2.75L20.775 3.1L17.5 6.375L14.225 3.1L14.575 2.75L17.5 5.675ZM3.225 20.9L6.5 17.625L9.775 20.9L9.425 21.25L6.5 18.325L3.575 21.25L3.225 20.9Z" fill="black"/>
</g>
<defs>
<clipPath id="clip0_3181_24700">
<rect width="24" height="24" fill="white"/>
</clipPath>
</defs>
</svg>
