<svg width="24" height="24" viewBox="0 0 24 24" fill="none" xmlns="http://www.w3.org/2000/svg">
<g clip-path="url(#clip0_3181_24696)">
<rect width="24" height="24" fill="white"/>
<path d="M16.2005 16.75L12.6255 11.275H15.7505L17.5255 14.4L19.3255 11.275H22.4505L18.8255 16.725V21H16.2005V16.75ZM5.17549 13.15H7.80049V14.75H5.17549V13.15ZM6.40049 13.55C5.55049 13.55 4.80049 13.45 4.15049 13.25C3.51716 13.0333 2.90049 12.6667 2.30049 12.15L3.62549 10.325C3.99216 10.6083 4.41716 10.8333 4.90049 11C5.40049 11.1667 5.91716 11.25 6.45049 11.25C6.93382 11.25 7.30049 11.1833 7.55049 11.05C7.81716 10.9167 7.95049 10.725 7.95049 10.475C7.95049 10.225 7.85049 10.0333 7.65049 9.9C7.46716 9.76667 7.19216 9.68333 6.82549 9.65L5.42549 9.475C4.57549 9.375 3.88382 9.08333 3.35049 8.6C2.81716 8.1 2.55049 7.43333 2.55049 6.6C2.55049 5.61667 2.94216 4.84167 3.72549 4.275C4.50882 3.70833 5.44216 3.425 6.52549 3.425C7.32549 3.425 8.09216 3.54167 8.82549 3.775C9.55882 4.00833 10.1338 4.325 10.5505 4.725L9.30049 6.575C8.95049 6.325 8.51716 6.125 8.00049 5.975C7.48382 5.80833 6.99216 5.725 6.52549 5.725C6.09216 5.725 5.75882 5.79167 5.52549 5.925C5.30882 6.05833 5.20049 6.25833 5.20049 6.525C5.20049 6.74167 5.28382 6.90833 5.45049 7.025C5.61716 7.125 5.87549 7.19167 6.22549 7.225L7.55049 7.375C8.45049 7.475 9.17549 7.76667 9.72549 8.25C10.2922 8.73333 10.5755 9.41667 10.5755 10.3C10.5755 11.3333 10.1755 12.1333 9.37549 12.7C8.59216 13.2667 7.60049 13.55 6.40049 13.55ZM13.1005 16.225H22.0005V18.575H13.1005V16.225ZM14.5755 17.15H20.5255V17.5H14.5755V17.15ZM5.17549 2.25H7.80049V4.275H5.17549V2.25ZM15.2755 3H17.4505H19.9505H21.4255L17.5005 6.925L13.5755 3H15.2755ZM6.50049 17.075L10.4255 21H8.95049H6.45049H4.27549H2.57549L6.50049 17.075Z" fill="black"/>
</g>
<defs>
<clipPath id="clip0_3181_24696">
<rect width="24" height="24" fill="white"/>
</clipPath>
</defs>
</svg>
