<svg width="24" height="24" viewBox="0 0 24 24" fill="none" xmlns="http://www.w3.org/2000/svg">
<g clip-path="url(#clip0_3177_16092)">
<rect width="24" height="24" fill="white"/>
<path d="M17.0505 16.725L13.2005 11.275H14.4505L17.5505 15.75L20.5755 11.275H21.8255L18.0505 16.7V21H17.0505V16.725ZM6.02549 13.1H6.95049V14.75H6.02549V13.1ZM6.42549 13.525C5.52549 13.525 4.75049 13.35 4.10049 13C3.46716 12.6333 2.99216 12.0917 2.67549 11.375L3.57549 10.95C3.80882 11.4833 4.16716 11.8917 4.65049 12.175C5.13382 12.4417 5.73382 12.575 6.45049 12.575C7.30049 12.575 7.97549 12.4083 8.47549 12.075C8.97549 11.7417 9.22549 11.2833 9.22549 10.7C9.22549 10.2 9.03382 9.80833 8.65049 9.525C8.26716 9.24167 7.68382 9.05833 6.90049 8.975L5.70049 8.85C4.83382 8.75 4.15049 8.475 3.65049 8.025C3.16716 7.55833 2.92549 6.95833 2.92549 6.225C2.92549 5.34167 3.25882 4.66667 3.92549 4.2C4.59216 3.71667 5.42549 3.475 6.42549 3.475C7.29216 3.475 8.05882 3.65833 8.72549 4.025C9.39216 4.375 9.87549 4.9 10.1755 5.6L9.27549 6C9.04216 5.48333 8.68382 5.09167 8.20049 4.825C7.71716 4.55833 7.12549 4.425 6.42549 4.425C5.62549 4.425 5.00882 4.58333 4.57549 4.9C4.14216 5.21667 3.92549 5.65833 3.92549 6.225C3.92549 6.70833 4.10049 7.09167 4.45049 7.375C4.80049 7.64167 5.34216 7.81667 6.07549 7.9L7.27549 8.025C8.15882 8.125 8.86716 8.4 9.40049 8.85C9.93382 9.28333 10.2005 9.88333 10.2005 10.65C10.2005 11.55 9.84216 12.2583 9.12549 12.775C8.42549 13.275 7.52549 13.525 6.42549 13.525ZM13.7755 18.25H21.3255V19.175H13.7755V18.25ZM13.7755 16H21.3255V16.9H13.7755V16ZM6.02549 2.25H6.95049V3.825H6.02549V2.25ZM17.5005 5.425L20.0755 2.75L20.7505 3.425L17.5005 6.7L14.2505 3.425L14.9255 2.75L17.5005 5.425ZM3.25049 20.575L6.50049 17.3L9.75049 20.575L9.07549 21.25L6.50049 18.575L3.92549 21.25L3.25049 20.575Z" fill="black"/>
</g>
<defs>
<clipPath id="clip0_3177_16092">
<rect width="24" height="24" fill="white"/>
</clipPath>
</defs>
</svg>
