<svg width="24" height="24" viewBox="0 0 24 24" fill="none" xmlns="http://www.w3.org/2000/svg">
<g clip-path="url(#clip0_3254_17833)">
<rect width="24" height="24" fill="white"/>
<path d="M12.0005 8.45C12.3172 8.45 12.6005 8.375 12.8505 8.225C13.1172 8.075 13.3255 7.86667 13.4755 7.6C13.6422 7.33333 13.7255 7.04167 13.7255 6.725C13.7255 6.40833 13.6422 6.125 13.4755 5.875C13.3255 5.60833 13.1172 5.4 12.8505 5.25C12.6005 5.08333 12.3172 5 12.0005 5C11.6838 5 11.3922 5.08333 11.1255 5.25C10.8588 5.4 10.6505 5.60833 10.5005 5.875C10.3505 6.125 10.2755 6.40833 10.2755 6.725C10.2755 7.04167 10.3505 7.33333 10.5005 7.6C10.6505 7.86667 10.8588 8.075 11.1255 8.225C11.3922 8.375 11.6838 8.45 12.0005 8.45ZM12.0005 11.65C11.0838 11.65 10.2422 11.4333 9.47549 11C8.72549 10.55 8.12549 9.95 7.67549 9.2C7.24216 8.45 7.02549 7.625 7.02549 6.725C7.02549 5.825 7.24216 5 7.67549 4.25C8.12549 3.5 8.72549 2.90833 9.47549 2.475C10.2422 2.025 11.0838 1.8 12.0005 1.8C12.9005 1.8 13.7338 2.025 14.5005 2.475C15.2672 2.90833 15.8672 3.5 16.3005 4.25C16.7505 5 16.9755 5.825 16.9755 6.725C16.9755 7.625 16.7505 8.45 16.3005 9.2C15.8672 9.95 15.2672 10.55 14.5005 11C13.7338 11.4333 12.9005 11.65 12.0005 11.65ZM6.32549 18.275C6.64216 18.275 6.93382 18.2 7.20049 18.05C7.46716 17.9 7.67549 17.6917 7.82549 17.425C7.99216 17.1583 8.07549 16.8667 8.07549 16.55C8.07549 16.2333 7.99216 15.95 7.82549 15.7C7.67549 15.4333 7.46716 15.225 7.20049 15.075C6.93382 14.925 6.64216 14.85 6.32549 14.85C6.00882 14.85 5.71716 14.925 5.45049 15.075C5.18382 15.225 4.97549 15.4333 4.82549 15.7C4.67549 15.95 4.60049 16.2333 4.60049 16.55C4.60049 16.8667 4.67549 17.1583 4.82549 17.425C4.97549 17.6917 5.18382 17.9 5.45049 18.05C5.71716 18.2 6.00882 18.275 6.32549 18.275ZM6.32549 21.475C5.40882 21.475 4.56716 21.2583 3.80049 20.825C3.05049 20.3917 2.45049 19.8 2.00049 19.05C1.56716 18.3 1.35049 17.4667 1.35049 16.55C1.35049 15.6667 1.56716 14.85 2.00049 14.1C2.45049 13.35 3.05049 12.7583 3.80049 12.325C4.56716 11.875 5.40882 11.65 6.32549 11.65C7.22549 11.65 8.05882 11.875 8.82549 12.325C9.59216 12.7583 10.2005 13.35 10.6505 14.1C11.1005 14.85 11.3255 15.6667 11.3255 16.55C11.3255 17.4667 11.1005 18.3 10.6505 19.05C10.2005 19.8 9.59216 20.3917 8.82549 20.825C8.05882 21.2583 7.22549 21.475 6.32549 21.475ZM11.5005 10.675L9.37549 14.525L6.47549 12.975L8.62549 9.15L11.5005 10.675ZM17.6755 18.275C17.9922 18.275 18.2755 18.2 18.5255 18.05C18.7922 17.9 19.0005 17.6917 19.1505 17.425C19.3172 17.1583 19.4005 16.8667 19.4005 16.55C19.4005 16.2333 19.3172 15.95 19.1505 15.7C19.0005 15.4333 18.7922 15.225 18.5255 15.075C18.2755 14.925 17.9922 14.85 17.6755 14.85C17.3588 14.85 17.0672 14.925 16.8005 15.075C16.5338 15.225 16.3172 15.4333 16.1505 15.7C16.0005 15.95 15.9255 16.2333 15.9255 16.55C15.9255 16.8667 16.0005 17.1583 16.1505 17.425C16.3172 17.6917 16.5338 17.9 16.8005 18.05C17.0672 18.2 17.3588 18.275 17.6755 18.275ZM17.6755 21.475C16.7588 21.475 15.9172 21.2583 15.1505 20.825C14.3838 20.3917 13.7755 19.8 13.3255 19.05C12.8922 18.3 12.6755 17.4667 12.6755 16.55C12.6755 15.6667 12.9005 14.85 13.3505 14.1C13.8005 13.35 14.4005 12.7583 15.1505 12.325C15.9172 11.875 16.7588 11.65 17.6755 11.65C18.5755 11.65 19.4005 11.875 20.1505 12.325C20.9172 12.7583 21.5255 13.35 21.9755 14.1C22.4255 14.85 22.6505 15.6667 22.6505 16.55C22.6505 17.4667 22.4255 18.3 21.9755 19.05C21.5422 19.8 20.9422 20.3917 20.1755 20.825C19.4088 21.2583 18.5755 21.475 17.6755 21.475ZM15.3755 9.15L17.5255 12.975L14.6255 14.525L12.5005 10.675L15.3755 9.15ZM14.0005 18.4H9.70049V15.15H14.0005V18.4Z" fill="black"/>
</g>
<defs>
<clipPath id="clip0_3254_17833">
<rect width="24" height="24" fill="white"/>
</clipPath>
</defs>
</svg>
