<svg width="24" height="24" viewBox="0 0 24 24" fill="none" xmlns="http://www.w3.org/2000/svg">
<g clip-path="url(#clip0_3177_15873)">
<rect width="24" height="24" fill="white"/>
<path d="M12.0005 9.575C12.5838 9.575 13.1172 9.43333 13.6005 9.15C14.1005 8.85 14.4922 8.45 14.7755 7.95C15.0588 7.45 15.2005 6.90833 15.2005 6.325C15.2005 5.75833 15.0588 5.23333 14.7755 4.75C14.4922 4.25 14.1005 3.85833 13.6005 3.575C13.1172 3.275 12.5838 3.125 12.0005 3.125C11.4172 3.125 10.8755 3.275 10.3755 3.575C9.87549 3.85833 9.48382 4.25 9.20049 4.75C8.91716 5.23333 8.77549 5.75833 8.77549 6.325C8.77549 6.925 8.91716 7.475 9.20049 7.975C9.48382 8.45833 9.87549 8.85 10.3755 9.15C10.8755 9.43333 11.4172 9.575 12.0005 9.575ZM12.0005 10.875C11.1672 10.875 10.4005 10.675 9.70049 10.275C9.00049 9.85833 8.44216 9.30833 8.02549 8.625C7.60882 7.925 7.40049 7.15833 7.40049 6.325C7.40049 5.50833 7.60882 4.75833 8.02549 4.075C8.44216 3.375 9.00049 2.825 9.70049 2.425C10.4005 2.00833 11.1672 1.8 12.0005 1.8C12.8172 1.8 13.5755 2.00833 14.2755 2.425C14.9755 2.825 15.5338 3.375 15.9505 4.075C16.3672 4.75833 16.5755 5.51667 16.5755 6.35C16.5755 7.16667 16.3672 7.925 15.9505 8.625C15.5338 9.30833 14.9755 9.85833 14.2755 10.275C13.5755 10.675 12.8172 10.875 12.0005 10.875ZM5.95049 20.15C6.51716 20.15 7.04216 20.0083 7.52549 19.725C8.02549 19.4417 8.41716 19.05 8.70049 18.55C9.00049 18.05 9.15049 17.5083 9.15049 16.925C9.15049 16.3417 9.00049 15.8083 8.70049 15.325C8.41716 14.825 8.02549 14.4333 7.52549 14.15C7.04216 13.85 6.51716 13.7 5.95049 13.7C5.36716 13.7 4.82549 13.85 4.32549 14.15C3.82549 14.4333 3.43382 14.825 3.15049 15.325C2.86716 15.8083 2.72549 16.3417 2.72549 16.925C2.72549 17.5083 2.86716 18.05 3.15049 18.55C3.43382 19.05 3.82549 19.4417 4.32549 19.725C4.82549 20.0083 5.36716 20.15 5.95049 20.15ZM5.95049 21.475C5.10049 21.475 4.32549 21.275 3.62549 20.875C2.92549 20.4583 2.36716 19.9083 1.95049 19.225C1.55049 18.525 1.35049 17.7583 1.35049 16.925C1.35049 16.1083 1.55049 15.3583 1.95049 14.675C2.36716 13.975 2.92549 13.425 3.62549 13.025C4.32549 12.6083 5.10049 12.4 5.95049 12.4C6.75049 12.4 7.50049 12.6083 8.20049 13.025C8.90049 13.425 9.45882 13.975 9.87549 14.675C10.2922 15.3583 10.5005 16.1083 10.5005 16.925C10.5005 17.7417 10.2922 18.5 9.87549 19.2C9.47549 19.9 8.92549 20.4583 8.22549 20.875C7.52549 21.275 6.76716 21.475 5.95049 21.475ZM10.5755 10.15L8.32549 14.125L7.17549 13.45L9.45049 9.475L10.5755 10.15ZM18.0505 20.15C18.6338 20.15 19.1672 20.0083 19.6505 19.725C20.1505 19.4417 20.5422 19.05 20.8255 18.55C21.1255 18.05 21.2755 17.5083 21.2755 16.925C21.2755 16.3417 21.1255 15.8083 20.8255 15.325C20.5422 14.825 20.1505 14.4333 19.6505 14.15C19.1672 13.85 18.6338 13.7 18.0505 13.7C17.4672 13.7 16.9255 13.85 16.4255 14.15C15.9422 14.4333 15.5588 14.825 15.2755 15.325C14.9922 15.8083 14.8505 16.3417 14.8505 16.925C14.8505 17.5083 14.9922 18.05 15.2755 18.55C15.5588 19.05 15.9422 19.4417 16.4255 19.725C16.9255 20.0083 17.4672 20.15 18.0505 20.15ZM18.0505 21.475C17.2338 21.475 16.4755 21.275 15.7755 20.875C15.0755 20.4583 14.5172 19.9083 14.1005 19.225C13.6838 18.525 13.4755 17.7583 13.4755 16.925C13.4755 16.1083 13.6838 15.3583 14.1005 14.675C14.5172 13.975 15.0755 13.425 15.7755 13.025C16.4755 12.6083 17.2338 12.4 18.0505 12.4C18.8672 12.4 19.6255 12.6083 20.3255 13.025C21.0422 13.425 21.6088 13.975 22.0255 14.675C22.4422 15.3583 22.6505 16.1083 22.6505 16.925C22.6505 17.7583 22.4422 18.525 22.0255 19.225C21.6088 19.9083 21.0422 20.4583 20.3255 20.875C19.6255 21.275 18.8672 21.475 18.0505 21.475ZM14.5505 9.475L16.8005 13.425L15.6505 14.125L13.4255 10.125L14.5505 9.475ZM14.1005 17.55H9.67549V16.25H14.1005V17.55Z" fill="black"/>
</g>
<defs>
<clipPath id="clip0_3177_15873">
<rect width="24" height="24" fill="white"/>
</clipPath>
</defs>
</svg>
