<svg width="24" height="24" viewBox="0 0 24 24" fill="none" xmlns="http://www.w3.org/2000/svg">
<g clip-path="url(#clip0_3181_25196)">
<rect width="24" height="24" fill="white"/>
<path d="M12 10.575C11.2 10.575 10.4583 10.3833 9.775 10C9.09167 9.6 8.55 9.06667 8.15 8.4C7.76667 7.71667 7.575 6.98333 7.575 6.2C7.575 5.41667 7.76667 4.68333 8.15 4C8.55 3.31667 9.09167 2.78333 9.775 2.4C10.4583 2 11.2 1.8 12 1.8C12.8 1.8 13.5333 2 14.2 2.4C14.8833 2.78333 15.425 3.31667 15.825 4C16.225 4.68333 16.425 5.41667 16.425 6.2C16.425 6.98333 16.225 7.71667 15.825 8.4C15.425 9.06667 14.8833 9.6 14.2 10C13.5333 10.3833 12.8 10.575 12 10.575ZM5.775 21.475C4.975 21.475 4.23333 21.2833 3.55 20.9C2.86667 20.5 2.325 19.9667 1.925 19.3C1.54167 18.6167 1.35 17.875 1.35 17.075C1.35 16.2917 1.55 15.5667 1.95 14.9C2.35 14.2167 2.88333 13.6833 3.55 13.3C4.23333 12.9 4.975 12.7 5.775 12.7C6.55833 12.7 7.28333 12.9 7.95 13.3C8.63333 13.6833 9.175 14.2167 9.575 14.9C9.99167 15.5667 10.2 16.2917 10.2 17.075C10.2 17.875 10 18.6167 9.6 19.3C9.2 19.9667 8.65833 20.5 7.975 20.9C7.30833 21.2833 6.575 21.475 5.775 21.475ZM10.325 9.925L7.975 14.075L7.2 13.6L9.55 9.475L10.325 9.925ZM18.2 21.475C17.4 21.475 16.6583 21.2833 15.975 20.9C15.3083 20.5 14.775 19.9667 14.375 19.3C13.9917 18.6167 13.8 17.875 13.8 17.075C13.8 16.2917 13.9917 15.5667 14.375 14.9C14.775 14.2167 15.3083 13.6833 15.975 13.3C16.6583 12.9 17.4 12.7 18.2 12.7C19 12.7 19.7417 12.9 20.425 13.3C21.1083 13.6833 21.65 14.2167 22.05 14.9C22.45 15.5667 22.65 16.2917 22.65 17.075C22.65 17.875 22.45 18.6167 22.05 19.3C21.65 19.9667 21.1083 20.5 20.425 20.9C19.7417 21.2833 19 21.475 18.2 21.475ZM14.45 9.45L16.775 13.6L16 14.05L13.675 9.925L14.45 9.45ZM14.2 17.5H9.7V16.625H14.2V17.5Z" fill="black"/>
</g>
<defs>
<clipPath id="clip0_3181_25196">
<rect width="24" height="24" fill="white"/>
</clipPath>
</defs>
</svg>
