<svg width="24" height="24" viewBox="0 0 24 24" fill="none" xmlns="http://www.w3.org/2000/svg">
<g clip-path="url(#clip0_3257_21199)">
<rect width="24" height="24" fill="white"/>
<path d="M4.36992 20.025H12.3949C14.9616 20.025 16.9199 19.3417 18.2699 17.975C19.6199 16.5917 20.2949 14.6 20.2949 12C20.2949 9.4 19.6199 7.41667 18.2699 6.05C16.9199 4.66667 14.9616 3.975 12.3949 3.975H4.36992V3H12.3949C14.2949 3 15.9116 3.35 17.2449 4.05C18.5783 4.75 19.5866 5.775 20.2699 7.125C20.9533 8.45833 21.2949 10.0833 21.2949 12C21.2949 13.9167 20.9533 15.55 20.2699 16.9C19.5866 18.2333 18.5783 19.25 17.2449 19.95C15.9116 20.65 14.2949 21 12.3949 21H4.36992V20.025ZM7.09492 3.575H8.09492V20.4H7.09492V3.575Z" fill="black"/>
</g>
<defs>
<clipPath id="clip0_3257_21199">
<rect width="24" height="24" fill="white"/>
</clipPath>
</defs>
</svg>
