<svg width="24" height="24" viewBox="0 0 24 24" fill="none" xmlns="http://www.w3.org/2000/svg">
<g clip-path="url(#clip0_3181_24802)">
<rect width="24" height="24" fill="white"/>
<path d="M1.75049 3.5H22.2505V20.5H1.75049V3.5ZM18.7505 17.05V6.95H5.25049V17.05H18.7505ZM10.8255 15.875C10.4088 15.8083 9.98382 15.7333 9.55049 15.65C9.11716 15.5667 8.70882 15.4667 8.32549 15.35L9.05049 13.25C9.98382 13.5333 10.9338 13.675 11.9005 13.675C12.1005 13.675 12.2505 13.6583 12.3505 13.625C12.4672 13.575 12.5255 13.4833 12.5255 13.35C12.5255 13.2833 12.4922 13.2417 12.4255 13.225C12.3588 13.1917 12.2838 13.1667 12.2005 13.15C12.1838 13.15 12.1588 13.15 12.1255 13.15L10.8255 13C10.0588 12.9167 9.45882 12.6583 9.02549 12.225C8.59216 11.7917 8.37549 11.2417 8.37549 10.575C8.37549 9.925 8.60049 9.38333 9.05049 8.95C9.50049 8.5 10.1005 8.24167 10.8505 8.175V7.475H13.2255V8.15C13.5755 8.16667 13.9422 8.2 14.3255 8.25C14.7255 8.3 15.0755 8.36667 15.3755 8.45L14.6505 10.6C13.8005 10.4167 12.9172 10.325 12.0005 10.325C11.8005 10.325 11.6505 10.35 11.5505 10.4C11.4672 10.45 11.4255 10.5 11.4255 10.55C11.4255 10.65 11.4505 10.725 11.5005 10.775C11.5672 10.8083 11.6588 10.8333 11.7755 10.85L12.9005 10.95C13.7672 11.0333 14.4255 11.2667 14.8755 11.65C15.3255 12.0333 15.5505 12.5667 15.5505 13.25C15.5505 13.9 15.3422 14.4583 14.9255 14.925C14.5088 15.375 13.9338 15.6667 13.2005 15.8V16.525H10.8255V15.875Z" fill="black"/>
</g>
<defs>
<clipPath id="clip0_3181_24802">
<rect width="24" height="24" fill="white"/>
</clipPath>
</defs>
</svg>
