<svg width="24" height="24" viewBox="0 0 24 24" fill="none" xmlns="http://www.w3.org/2000/svg">
<g clip-path="url(#clip0_3177_15553)">
<rect width="24" height="24" fill="white"/>
<path d="M9.625 15.775C10.0417 15.9583 10.475 16.0917 10.925 16.175V17.2H13.125V16.125C13.8583 15.9583 14.4333 15.6417 14.85 15.175C15.2833 14.7083 15.5 14.1333 15.5 13.45C15.5 12.75 15.275 12.2 14.825 11.8C14.375 11.4 13.7417 11.15 12.925 11.05L11.75 10.9C11.4667 10.8667 11.2667 10.8 11.15 10.7C11.05 10.6 11 10.4667 11 10.3C11 10.1333 11.0833 10 11.25 9.9C11.4167 9.78333 11.6667 9.725 12 9.725C12.4167 9.725 12.8083 9.78333 13.175 9.9C13.5583 10 13.925 10.1583 14.275 10.375L15.325 8.8C14.9917 8.55 14.6417 8.34167 14.275 8.175C13.9083 7.99167 13.525 7.86667 13.125 7.8V6.75H10.925V7.8C10.2083 7.95 9.63333 8.25 9.2 8.7C8.76667 9.13333 8.55 9.68333 8.55 10.35C8.55 11.0667 8.76667 11.6333 9.2 12.05C9.65 12.4667 10.275 12.725 11.075 12.825L12.25 12.975C12.5 13.0083 12.6917 13.075 12.825 13.175C12.975 13.2583 13.05 13.3833 13.05 13.55C13.05 13.7667 12.9417 13.9333 12.725 14.05C12.525 14.1667 12.2667 14.225 11.95 14.225C11.4833 14.225 11.0417 14.1583 10.625 14.025C10.225 13.875 9.85 13.675 9.5 13.425L8.45 15C8.83333 15.3167 9.225 15.575 9.625 15.775ZM23 19H1V5H23V19Z" fill="black"/>
</g>
<defs>
<clipPath id="clip0_3177_15553">
<rect width="24" height="24" fill="white"/>
</clipPath>
</defs>
</svg>
