<svg width="24" height="24" viewBox="0 0 24 24" fill="none" xmlns="http://www.w3.org/2000/svg">
<g clip-path="url(#clip0_3257_21147)">
<rect width="24" height="24" fill="white"/>
<path d="M10.6044 19.7H13.4044V23.5H10.6044V19.7ZM10.6044 0.499999H13.4044V4.2H10.6044V0.499999ZM11.9544 21.325C10.3544 21.325 8.94606 20.9917 7.72939 20.325C6.52939 19.6417 5.59606 18.6167 4.92939 17.25L7.52939 15.85C7.94606 16.6667 8.52939 17.2917 9.27939 17.725C10.0294 18.1583 10.9294 18.375 11.9794 18.375C12.7127 18.375 13.3544 18.2667 13.9044 18.05C14.4711 17.8167 14.9044 17.5 15.2044 17.1C15.5044 16.7 15.6544 16.2417 15.6544 15.725C15.6544 15.0583 15.3961 14.55 14.8794 14.2C14.3794 13.8333 13.6461 13.5833 12.6794 13.45L10.5544 13.175C8.93773 12.9583 7.67939 12.4083 6.77939 11.525C5.87939 10.6417 5.42939 9.48333 5.42939 8.05C5.42939 6.9 5.72939 5.91667 6.32939 5.1C6.94606 4.28333 7.74606 3.675 8.72939 3.275C9.72939 2.875 10.8127 2.675 11.9794 2.675C13.4794 2.675 14.8377 3.01667 16.0544 3.7C17.2711 4.36667 18.1711 5.34167 18.7544 6.625L16.1294 7.975C15.7627 7.225 15.2211 6.65833 14.5044 6.275C13.7877 5.875 12.9544 5.675 12.0044 5.675C11.3544 5.675 10.7794 5.75833 10.2794 5.925C9.79606 6.09167 9.41273 6.35 9.12939 6.7C8.84606 7.05 8.70439 7.46667 8.70439 7.95C8.70439 8.58333 8.92106 9.09167 9.35439 9.475C9.80439 9.84167 10.5127 10.0833 11.4794 10.2L13.5544 10.45C15.1877 10.65 16.4877 11.1833 17.4544 12.05C18.4211 12.9167 18.9044 14.1083 18.9044 15.625C18.9044 16.8083 18.5961 17.8333 17.9794 18.7C17.3627 19.55 16.5211 20.2 15.4544 20.65C14.4044 21.1 13.2377 21.325 11.9544 21.325Z" fill="black"/>
</g>
<defs>
<clipPath id="clip0_3257_21147">
<rect width="24" height="24" fill="white"/>
</clipPath>
</defs>
</svg>
