<svg width="24" height="24" viewBox="0 0 24 24" fill="none" xmlns="http://www.w3.org/2000/svg">
<g clip-path="url(#clip0_3181_24806)">
<rect width="24" height="24" fill="white"/>
<path d="M9.925 15.475C10.3917 15.7583 10.9583 15.9333 11.625 16V17.2H12.475V15.975C13.2583 15.9083 13.8833 15.6833 14.35 15.3C14.8333 14.9167 15.075 14.3917 15.075 13.725C15.075 13.125 14.8667 12.6417 14.45 12.275C14.0333 11.9083 13.475 11.675 12.775 11.575L11.65 11.425C11.1 11.3583 10.6917 11.2167 10.425 11C10.175 10.7667 10.05 10.4667 10.05 10.1C10.05 9.63333 10.225 9.29167 10.575 9.075C10.9417 8.84167 11.425 8.725 12.025 8.725C12.5917 8.725 13.0667 8.83333 13.45 9.05C13.85 9.25 14.125 9.56667 14.275 10L15.05 9.65C14.8667 9.16667 14.55 8.775 14.1 8.475C13.65 8.175 13.1083 8 12.475 7.95V6.75H11.625V7.95C10.8917 8.01667 10.2917 8.23333 9.825 8.6C9.375 8.95 9.15 9.45833 9.15 10.125C9.15 10.725 9.33333 11.2 9.7 11.55C10.0833 11.9 10.6417 12.125 11.375 12.225L12.45 12.375C13 12.4417 13.425 12.5917 13.725 12.825C14.025 13.0583 14.175 13.3667 14.175 13.75C14.175 14.2 13.975 14.5583 13.575 14.825C13.1917 15.075 12.6667 15.2 12 15.2C11.45 15.2 10.9667 15.0917 10.55 14.875C10.15 14.6417 9.875 14.3 9.725 13.85L8.95 14.225C9.15 14.7583 9.475 15.175 9.925 15.475ZM23 19H1V5H23V19Z" fill="black"/>
</g>
<defs>
<clipPath id="clip0_3181_24806">
<rect width="24" height="24" fill="white"/>
</clipPath>
</defs>
</svg>
