<svg width="24" height="24" viewBox="0 0 24 24" fill="none" xmlns="http://www.w3.org/2000/svg">
<g clip-path="url(#clip0_3181_24800)">
<rect width="24" height="24" fill="white"/>
<path d="M1.50049 4H22.5005V20H1.50049V4ZM19.5505 17.1V6.9H4.45049V17.1H19.5505ZM10.9755 15.7C10.5588 15.6167 10.1422 15.5167 9.72549 15.4C9.32549 15.2667 8.95882 15.0917 8.62549 14.875L9.47549 13.2C10.2255 13.5833 11.0422 13.775 11.9255 13.775C12.1755 13.775 12.3755 13.7417 12.5255 13.675C12.6755 13.6083 12.7505 13.4917 12.7505 13.325C12.7505 13.225 12.7088 13.15 12.6255 13.1C12.5422 13.05 12.4422 13.0167 12.3255 13C12.2755 12.9833 12.2338 12.975 12.2005 12.975L10.9755 12.825C10.2588 12.7417 9.70049 12.5 9.30049 12.1C8.90049 11.6833 8.70049 11.1667 8.70049 10.55C8.70049 9.93333 8.90882 9.425 9.32549 9.025C9.74216 8.60833 10.3005 8.35833 11.0005 8.275V7.475H13.0755V8.25C13.4422 8.3 13.8088 8.375 14.1755 8.475C14.5588 8.575 14.8838 8.70833 15.1505 8.875L14.3005 10.575C13.6338 10.2917 12.8755 10.15 12.0255 10.15C11.7755 10.15 11.5838 10.1833 11.4505 10.25C11.3338 10.3167 11.2755 10.4083 11.2755 10.525C11.2755 10.6583 11.3172 10.7583 11.4005 10.825C11.4838 10.875 11.6088 10.9083 11.7755 10.925L12.8255 11.025C13.6255 11.125 14.2338 11.3583 14.6505 11.725C15.0838 12.0917 15.3005 12.6 15.3005 13.25C15.3005 13.8667 15.1005 14.3917 14.7005 14.825C14.3005 15.2417 13.7588 15.5083 13.0755 15.625V16.45H10.9755V15.7Z" fill="black"/>
</g>
<defs>
<clipPath id="clip0_3181_24800">
<rect width="24" height="24" fill="white"/>
</clipPath>
</defs>
</svg>
