<svg width="24" height="24" viewBox="0 0 24 24" fill="none" xmlns="http://www.w3.org/2000/svg">
<g clip-path="url(#clip0_3390_10293)">
<rect width="24" height="24" fill="white"/>
<path d="M11.434 20.65H12.384V23.5H11.434V20.65ZM11.434 0.499999H12.384V3.05H11.434V0.499999ZM11.984 21.3C10.4007 21.3 9.05065 20.9333 7.93398 20.2C6.83398 19.45 6.07565 18.4 5.65898 17.05L6.53398 16.725C6.90065 17.875 7.55898 18.7667 8.50898 19.4C9.45898 20.0333 10.6173 20.35 11.984 20.35C13.0007 20.35 13.9007 20.1833 14.684 19.85C15.484 19.5 16.1007 19.0167 16.534 18.4C16.9673 17.7667 17.184 17.0333 17.184 16.2C17.184 15.1167 16.8257 14.2667 16.109 13.65C15.3923 13.0333 14.334 12.625 12.934 12.425L11.059 12.15C9.42565 11.9167 8.20065 11.4083 7.38398 10.625C6.56732 9.825 6.15898 8.775 6.15898 7.475C6.15898 6.44167 6.42565 5.56667 6.95898 4.85C7.49232 4.13333 8.19232 3.6 9.05898 3.25C9.92565 2.88333 10.8757 2.7 11.909 2.7C13.3757 2.7 14.6507 3.06667 15.734 3.8C16.834 4.53333 17.584 5.55 17.984 6.85L17.084 7.175C16.7507 6.05833 16.1173 5.19167 15.184 4.575C14.2507 3.95833 13.159 3.65 11.909 3.65C11.0257 3.65 10.2257 3.8 9.50898 4.1C8.79232 4.38333 8.21732 4.80833 7.78398 5.375C7.36732 5.94167 7.15898 6.63333 7.15898 7.45C7.15898 8.5 7.49232 9.34167 8.15898 9.975C8.84232 10.5917 9.87565 10.9917 11.259 11.175L13.159 11.45C14.7423 11.6667 15.9757 12.175 16.859 12.975C17.759 13.7583 18.209 14.8333 18.209 16.2C18.209 17.2333 17.934 18.1417 17.384 18.925C16.834 19.6917 16.084 20.2833 15.134 20.7C14.2007 21.1 13.1507 21.3 11.984 21.3Z" fill="black"/>
</g>
<defs>
<clipPath id="clip0_3390_10293">
<rect width="24" height="24" fill="white"/>
</clipPath>
</defs>
</svg>
