<svg width="24" height="24" viewBox="0 0 24 24" fill="none" xmlns="http://www.w3.org/2000/svg">
<g clip-path="url(#clip0_3177_15549)">
<rect width="24" height="24" fill="white"/>
<path d="M9.775 15.45C10.1917 15.7333 10.6833 15.925 11.25 16.025V17.2H12.9V16C13.6 15.8667 14.1667 15.5917 14.6 15.175C15.0333 14.7583 15.25 14.2167 15.25 13.55C15.25 12.8833 15.0333 12.3667 14.6 12C14.1667 11.6167 13.5833 11.3667 12.85 11.25L11.775 11.1C11.425 11.05 11.1583 10.9583 10.975 10.825C10.8083 10.6917 10.725 10.5083 10.725 10.275C10.725 9.99167 10.8417 9.78333 11.075 9.65C11.325 9.5 11.6583 9.425 12.075 9.425C12.4917 9.425 12.85 9.50833 13.15 9.675C13.45 9.84167 13.675 10.0917 13.825 10.425L15.225 9.65C15.0083 9.21667 14.6917 8.85833 14.275 8.575C13.8583 8.275 13.4 8.075 12.9 7.975V6.775H11.25V7.975C10.5667 8.10833 10.0167 8.375 9.6 8.775C9.18333 9.15833 8.975 9.675 8.975 10.325C8.975 10.9917 9.18333 11.5167 9.6 11.9C10.0167 12.2667 10.5833 12.5 11.3 12.6L12.375 12.775C12.7417 12.825 13.0167 12.9167 13.2 13.05C13.4 13.1833 13.5 13.375 13.5 13.625C13.5 13.9083 13.3667 14.1417 13.1 14.325C12.8333 14.4917 12.475 14.575 12.025 14.575C11.575 14.575 11.1917 14.4833 10.875 14.3C10.575 14.1 10.3417 13.825 10.175 13.475L8.775 14.275C9.025 14.7583 9.35833 15.15 9.775 15.45ZM23 19H1V5H23V19Z" fill="black"/>
</g>
<defs>
<clipPath id="clip0_3177_15549">
<rect width="24" height="24" fill="white"/>
</clipPath>
</defs>
</svg>
