<svg width="24" height="24" viewBox="0 0 24 24" fill="none" xmlns="http://www.w3.org/2000/svg">
<g clip-path="url(#clip0_3177_15547)">
<rect width="24" height="24" fill="white"/>
<path d="M9.85 15.45C10.3 15.75 10.825 15.9333 11.425 16V17.2H12.7V16C13.4333 15.9 14.025 15.65 14.475 15.25C14.925 14.8333 15.15 14.2917 15.15 13.625C15.15 12.9917 14.9417 12.4917 14.525 12.125C14.1083 11.7583 13.5417 11.525 12.825 11.425L11.725 11.275C11.275 11.2083 10.9417 11.0917 10.725 10.925C10.5083 10.7417 10.4 10.4917 10.4 10.175C10.4 9.80833 10.55 9.53333 10.85 9.35C11.15 9.16667 11.55 9.075 12.05 9.075C12.55 9.075 12.9667 9.175 13.3 9.375C13.65 9.55833 13.9 9.84167 14.05 10.225L15.125 9.65C14.9417 9.2 14.6333 8.825 14.2 8.525C13.7667 8.225 13.2667 8.03333 12.7 7.95V6.775H11.425V7.95C10.725 8.05 10.1583 8.29167 9.725 8.675C9.29167 9.05833 9.075 9.575 9.075 10.225C9.075 10.8583 9.26667 11.3583 9.65 11.725C10.05 12.075 10.6083 12.3 11.325 12.4L12.425 12.575C12.875 12.6417 13.2167 12.7667 13.45 12.95C13.7 13.1333 13.825 13.375 13.825 13.675C13.825 14.0583 13.6583 14.3583 13.325 14.575C13.0083 14.7917 12.575 14.9 12.025 14.9C11.5083 14.9 11.075 14.8 10.725 14.6C10.375 14.3833 10.1167 14.075 9.95 13.675L8.875 14.25C9.09167 14.75 9.41667 15.15 9.85 15.45ZM23 19H1V5H23V19Z" fill="black"/>
</g>
<defs>
<clipPath id="clip0_3177_15547">
<rect width="24" height="24" fill="white"/>
</clipPath>
</defs>
</svg>
