<svg width="24" height="24" viewBox="0 0 24 24" fill="none" xmlns="http://www.w3.org/2000/svg">
<g clip-path="url(#clip0_3390_10241)">
<rect width="24" height="24" fill="white"/>
<path d="M4.64814 8.8C4.64814 7.53333 4.88148 6.44167 5.34814 5.525C5.83148 4.60833 6.50648 3.90833 7.37314 3.425C8.25648 2.94167 9.29814 2.7 10.4981 2.7C11.7315 2.7 12.7981 2.94167 13.6981 3.425C14.5981 3.90833 15.2898 4.60833 15.7731 5.525C16.2731 6.44167 16.5231 7.53333 16.5231 8.8V21H15.5231V8.8C15.5231 7.16667 15.0731 5.9 14.1731 5C13.2731 4.1 12.0481 3.65 10.4981 3.65C8.99814 3.65 7.81481 4.1 6.94814 5C6.09814 5.9 5.67314 7.16667 5.67314 8.8H4.64814ZM9.24814 14.6H18.6731V15.475H9.24814V14.6ZM9.24814 11.2H18.6731V12.075H9.24814V11.2Z" fill="black"/>
</g>
<defs>
<clipPath id="clip0_3390_10241">
<rect width="24" height="24" fill="white"/>
</clipPath>
</defs>
</svg>
