<svg width="24" height="24" viewBox="0 0 24 24" fill="none" xmlns="http://www.w3.org/2000/svg">
<g clip-path="url(#clip0_3257_20997)">
<rect width="24" height="24" fill="white"/>
<path d="M4.80859 8.625C4.80859 7.39167 5.03359 6.33333 5.48359 5.45C5.93359 4.55 6.57526 3.86667 7.40859 3.4C8.24193 2.93333 9.24193 2.7 10.4086 2.7C11.6086 2.7 12.6419 2.93333 13.5086 3.4C14.3753 3.86667 15.0336 4.55 15.4836 5.45C15.9503 6.33333 16.1836 7.39167 16.1836 8.625V21H15.6836V8.625C15.6836 6.90833 15.2169 5.575 14.2836 4.625C13.3503 3.65833 12.0586 3.175 10.4086 3.175C8.80859 3.175 7.55859 3.65833 6.65859 4.625C5.77526 5.575 5.33359 6.90833 5.33359 8.625H4.80859ZM9.15859 14.6H18.4336V15.075H9.15859V14.6ZM9.15859 11.475H18.4336V11.95H9.15859V11.475Z" fill="black"/>
</g>
<defs>
<clipPath id="clip0_3257_20997">
<rect width="24" height="24" fill="white"/>
</clipPath>
</defs>
</svg>
