<svg width="24" height="24" viewBox="0 0 24 24" fill="none" xmlns="http://www.w3.org/2000/svg">
<g clip-path="url(#clip0_3257_21051)">
<rect width="24" height="24" fill="white"/>
<path d="M2.75762 12.9H13.2326L13.2076 15.45H2.73262L2.75762 12.9ZM2.75762 8.7H13.2326V11.25H2.75762V8.7ZM20.6576 16.4C20.1076 17.9833 19.1493 19.2083 17.7826 20.075C16.416 20.925 14.8826 21.35 13.1826 21.35C11.4826 21.35 9.99928 20.975 8.73262 20.225C7.46595 19.475 6.48262 18.4 5.78262 17C5.08262 15.5833 4.73262 13.9167 4.73262 12C4.73262 10.0833 5.08262 8.425 5.78262 7.025C6.48262 5.60833 7.46595 4.525 8.73262 3.775C9.99928 3.025 11.4826 2.65 13.1826 2.65C14.8993 2.65 16.441 3.09167 17.8076 3.975C19.191 4.84167 20.1493 6.08333 20.6826 7.7L16.8826 8.775C16.5993 7.925 16.116 7.28333 15.4326 6.85C14.766 6.41667 14.016 6.2 13.1826 6.2C12.2326 6.2 11.4243 6.425 10.7576 6.875C10.1076 7.30833 9.60762 7.95833 9.25762 8.825C8.92428 9.69167 8.75762 10.7583 8.75762 12.025C8.75762 13.275 8.92428 14.3333 9.25762 15.2C9.60762 16.05 10.116 16.7 10.7826 17.15C11.4493 17.5833 12.2576 17.8 13.2076 17.8C14.041 17.8 14.791 17.5833 15.4576 17.15C16.1243 16.7167 16.5993 16.075 16.8826 15.225L20.6576 16.4Z" fill="black"/>
</g>
<defs>
<clipPath id="clip0_3257_21051">
<rect width="24" height="24" fill="white"/>
</clipPath>
</defs>
</svg>
