<svg width="24" height="24" viewBox="0 0 24 24" fill="none" xmlns="http://www.w3.org/2000/svg">
<g clip-path="url(#clip0_3257_21045)">
<rect width="24" height="24" fill="white"/>
<path d="M3.55586 13.15H13.2809V14.85H3.55586V13.15ZM3.55586 9.175H13.2809V10.875H3.55586V9.175ZM20.3809 16.125C19.9142 17.6917 19.0475 18.95 17.7809 19.9C16.5142 20.8333 15.0142 21.3 13.2809 21.3C11.6975 21.3 10.3059 20.9333 9.10586 20.2C7.90586 19.45 6.97253 18.375 6.30586 16.975C5.63919 15.575 5.30586 13.9167 5.30586 12C5.30586 10.0833 5.63919 8.425 6.30586 7.025C6.97253 5.625 7.90586 4.55833 9.10586 3.825C10.3059 3.075 11.6975 2.7 13.2809 2.7C15.0142 2.7 16.5142 3.175 17.7809 4.125C19.0642 5.075 19.9309 6.33333 20.3809 7.9L18.5309 8.5C18.1642 7.2 17.4975 6.225 16.5309 5.575C15.5642 4.90833 14.4809 4.575 13.2809 4.575C12.0809 4.575 11.0309 4.86667 10.1309 5.45C9.24753 6.03333 8.55586 6.88333 8.05586 8C7.57253 9.11667 7.33086 10.45 7.33086 12C7.33086 13.55 7.57253 14.8833 8.05586 16C8.55586 17.1167 9.24753 17.9667 10.1309 18.55C11.0309 19.1333 12.0809 19.425 13.2809 19.425C14.4809 19.425 15.5642 19.1 16.5309 18.45C17.4975 17.7833 18.1642 16.8083 18.5309 15.525L20.3809 16.125Z" fill="black"/>
</g>
<defs>
<clipPath id="clip0_3257_21045">
<rect width="24" height="24" fill="white"/>
</clipPath>
</defs>
</svg>
