<svg width="24" height="24" viewBox="0 0 24 24" fill="none" xmlns="http://www.w3.org/2000/svg">
<g clip-path="url(#clip0_3379_7235)">
<rect width="24" height="24" fill="white"/>
<path d="M0.875 14.775C0.875 12.8583 1.33333 11.1167 2.25 9.55C3.16667 7.98333 4.41667 6.75833 6 5.875C7.6 4.975 9.38333 4.525 11.35 4.525C13.3167 4.525 15.1 4.975 16.7 5.875C18.3167 6.75833 19.5833 7.98333 20.5 9.55C21.4333 11.1167 21.9 12.8583 21.9 14.775C21.9 15.7917 21.725 16.7083 21.375 17.525C21.0417 18.325 20.5667 18.9583 19.95 19.425C19.3333 19.875 18.625 20.1 17.825 20.1C16.875 20.1 16.1583 19.75 15.675 19.05C15.1917 18.35 14.9833 17.3083 15.05 15.925L15.25 16.225C15.0333 17.4083 14.5333 18.35 13.75 19.05C12.9833 19.75 12.0333 20.1 10.9 20.1C10.0167 20.1 9.21667 19.8833 8.5 19.45C7.8 19 7.25 18.375 6.85 17.575C6.45 16.775 6.25 15.8583 6.25 14.825C6.25 13.7917 6.44167 12.8917 6.825 12.125C7.225 11.3417 7.775 10.7417 8.475 10.325C9.175 9.90833 9.95833 9.7 10.825 9.7C11.9583 9.7 12.9083 10.05 13.675 10.75C14.4583 11.4333 14.9583 12.3667 15.175 13.55L14.975 13.675V9.95H15.475V16.45C15.475 17.5167 15.6667 18.3167 16.05 18.85C16.45 19.3667 17.0417 19.625 17.825 19.625C18.525 19.625 19.1417 19.4167 19.675 19C20.225 18.5833 20.65 18.0083 20.95 17.275C21.25 16.5417 21.4 15.7083 21.4 14.775C21.4 12.9417 20.9583 11.2833 20.075 9.8C19.2083 8.3 18.0083 7.125 16.475 6.275C14.9417 5.425 13.2333 5 11.35 5C9.48333 5 7.79167 5.425 6.275 6.275C4.75833 7.125 3.55833 8.3 2.675 9.8C1.80833 11.2833 1.375 12.9417 1.375 14.775C1.375 16.6083 1.80833 18.275 2.675 19.775C3.55833 21.2583 4.75833 22.425 6.275 23.275C7.79167 24.125 9.48333 24.55 11.35 24.55V25.025C9.38333 25.025 7.6 24.575 6 23.675C4.41667 22.7917 3.16667 21.5667 2.25 20C1.33333 18.4333 0.875 16.6917 0.875 14.775ZM6.75 14.825C6.75 15.7917 6.925 16.6417 7.275 17.375C7.64167 18.0917 8.14167 18.65 8.775 19.05C9.40833 19.4333 10.1167 19.625 10.9 19.625C11.7 19.625 12.4083 19.425 13.025 19.025C13.6417 18.625 14.1167 18.0667 14.45 17.35C14.8 16.6333 14.975 15.8083 14.975 14.875C14.975 13.975 14.7917 13.1667 14.425 12.45C14.075 11.7333 13.5833 11.175 12.95 10.775C12.3333 10.375 11.625 10.175 10.825 10.175C10.0417 10.175 9.34167 10.3667 8.725 10.75C8.10833 11.1167 7.625 11.6583 7.275 12.375C6.925 13.075 6.75 13.8917 6.75 14.825ZM29.5348 21.3C28.4514 21.3 27.4681 21.0417 26.5848 20.525C25.7181 20.0083 25.0264 19.2583 24.5098 18.275C24.0098 17.275 23.7598 16.0833 23.7598 14.7C23.7598 13.3667 24.0014 12.2167 24.4848 11.25C24.9681 10.2667 25.6348 9.51667 26.4848 9C27.3348 8.46667 28.3014 8.2 29.3848 8.2C30.4681 8.2 31.4181 8.46667 32.2348 9C33.0681 9.51667 33.7014 10.2583 34.1348 11.225C34.5848 12.1917 34.7931 13.3333 34.7598 14.65H24.0348V14.175H34.5348L34.2598 14.55C34.2764 12.7667 33.8431 11.3417 32.9598 10.275C32.0931 9.20833 30.9014 8.675 29.3848 8.675C28.3681 8.675 27.4681 8.925 26.6848 9.425C25.9181 9.925 25.3181 10.6167 24.8848 11.5C24.4681 12.3833 24.2598 13.4 24.2598 14.55V14.675C24.2598 15.9583 24.4848 17.0667 24.9348 18C25.4014 18.9167 26.0264 19.6167 26.8098 20.1C27.6098 20.5833 28.5181 20.825 29.5348 20.825C30.4681 20.825 31.3348 20.625 32.1348 20.225C32.9514 19.8083 33.5764 19.2417 34.0098 18.525L34.4098 18.775C33.9431 19.5417 33.2681 20.1583 32.3848 20.625C31.5181 21.075 30.5681 21.3 29.5348 21.3ZM41.5225 14.8L41.4475 14.7L36.6225 8.5H37.2475L41.7725 14.325L41.8475 14.4L46.9475 21H46.3225L41.5225 14.8ZM41.4725 14.4L41.5225 14.325L46.0475 8.5H46.6725L41.8475 14.725L41.7725 14.825L36.9725 21H36.3475L41.4725 14.4ZM49.7783 8.5H50.2783V12.6H50.1033C50.3533 11.3167 50.92 10.2667 51.8033 9.45C52.7033 8.61667 53.8367 8.2 55.2033 8.2C56.2867 8.2 57.2283 8.46667 58.0283 9C58.8283 9.53333 59.445 10.2917 59.8783 11.275C60.3117 12.2583 60.5283 13.4167 60.5283 14.75C60.5283 16.0833 60.3117 17.2417 59.8783 18.225C59.445 19.2083 58.8283 19.9667 58.0283 20.5C57.2283 21.0333 56.2867 21.3 55.2033 21.3C53.8367 21.3 52.7033 20.8917 51.8033 20.075C50.92 19.2417 50.3533 18.1833 50.1033 16.9H50.2783V26.5H49.7783V8.5ZM55.2033 20.825C56.6867 20.825 57.8617 20.2833 58.7283 19.2C59.595 18.1 60.0283 16.6167 60.0283 14.75C60.0283 12.8833 59.595 11.4083 58.7283 10.325C57.8617 9.225 56.6867 8.675 55.2033 8.675C53.7367 8.675 52.545 9.20833 51.6283 10.275C50.7283 11.325 50.2783 12.8167 50.2783 14.75C50.2783 16.0333 50.4867 17.1333 50.9033 18.05C51.3367 18.9667 51.9283 19.6583 52.6783 20.125C53.4283 20.5917 54.27 20.825 55.2033 20.825ZM68.7926 21.3C67.7092 21.3 66.7259 21.0417 65.8426 20.525C64.9759 20.0083 64.2842 19.2583 63.7676 18.275C63.2676 17.275 63.0176 16.0833 63.0176 14.7C63.0176 13.3667 63.2592 12.2167 63.7426 11.25C64.2259 10.2667 64.8926 9.51667 65.7426 9C66.5926 8.46667 67.5592 8.2 68.6426 8.2C69.7259 8.2 70.6759 8.46667 71.4926 9C72.3259 9.51667 72.9592 10.2583 73.3926 11.225C73.8426 12.1917 74.0509 13.3333 74.0176 14.65H63.2926V14.175H73.7926L73.5176 14.55C73.5342 12.7667 73.1009 11.3417 72.2176 10.275C71.3509 9.20833 70.1592 8.675 68.6426 8.675C67.6259 8.675 66.7259 8.925 65.9426 9.425C65.1759 9.925 64.5759 10.6167 64.1426 11.5C63.7259 12.3833 63.5176 13.4 63.5176 14.55V14.675C63.5176 15.9583 63.7426 17.0667 64.1926 18C64.6592 18.9167 65.2842 19.6167 66.0676 20.1C66.8676 20.5833 67.7759 20.825 68.7926 20.825C69.7259 20.825 70.5926 20.625 71.3926 20.225C72.2092 19.8083 72.8342 19.2417 73.2676 18.525L73.6676 18.775C73.2009 19.5417 72.5259 20.1583 71.6426 20.625C70.7759 21.075 69.8259 21.3 68.7926 21.3ZM77.2686 8.5H77.7686V12.075L77.5436 12.15C77.7602 10.9667 78.3019 10.0167 79.1686 9.3C80.0519 8.56667 81.1602 8.2 82.4936 8.2C83.9269 8.2 85.0769 8.64167 85.9436 9.525C86.8269 10.4083 87.2686 11.6917 87.2686 13.375V21H86.7686V13.375C86.7686 11.825 86.3852 10.6583 85.6186 9.875C84.8519 9.075 83.8019 8.675 82.4686 8.675C81.0019 8.675 79.8519 9.13333 79.0186 10.05C78.1852 10.9667 77.7686 12.1917 77.7686 13.725V21H77.2686V8.5ZM95.8387 21.3C94.7387 21.3 93.7637 21.0417 92.9137 20.525C92.0803 19.9917 91.4303 19.2333 90.9637 18.25C90.497 17.25 90.2637 16.0833 90.2637 14.75C90.2637 13.4167 90.497 12.2583 90.9637 11.275C91.4303 10.2917 92.0803 9.53333 92.9137 9C93.7637 8.46667 94.7387 8.2 95.8387 8.2C96.972 8.2 97.9637 8.48333 98.8137 9.05C99.6803 9.61667 100.322 10.4167 100.739 11.45L100.289 11.625C99.9053 10.675 99.322 9.95 98.5387 9.45C97.772 8.93333 96.872 8.675 95.8387 8.675C94.8387 8.675 93.9553 8.925 93.1887 9.425C92.422 9.90833 91.822 10.6083 91.3887 11.525C90.972 12.4417 90.7637 13.5167 90.7637 14.75C90.7637 15.9833 90.972 17.0583 91.3887 17.975C91.822 18.8917 92.422 19.6 93.1887 20.1C93.9553 20.5833 94.8387 20.825 95.8387 20.825C96.872 20.825 97.772 20.575 98.5387 20.075C99.322 19.5583 99.9053 18.825 100.289 17.875L100.739 18.05C100.322 19.0833 99.6803 19.8833 98.8137 20.45C97.9637 21.0167 96.972 21.3 95.8387 21.3ZM108.88 21.3C107.797 21.3 106.814 21.0417 105.93 20.525C105.064 20.0083 104.372 19.2583 103.855 18.275C103.355 17.275 103.105 16.0833 103.105 14.7C103.105 13.3667 103.347 12.2167 103.83 11.25C104.314 10.2667 104.98 9.51667 105.83 9C106.68 8.46667 107.647 8.2 108.73 8.2C109.814 8.2 110.764 8.46667 111.58 9C112.414 9.51667 113.047 10.2583 113.48 11.225C113.93 12.1917 114.139 13.3333 114.105 14.65H103.38V14.175H113.88L113.605 14.55C113.622 12.7667 113.189 11.3417 112.305 10.275C111.439 9.20833 110.247 8.675 108.73 8.675C107.714 8.675 106.814 8.925 106.03 9.425C105.264 9.925 104.664 10.6167 104.23 11.5C103.814 12.3833 103.605 13.4 103.605 14.55V14.675C103.605 15.9583 103.83 17.0667 104.28 18C104.747 18.9167 105.372 19.6167 106.155 20.1C106.955 20.5833 107.864 20.825 108.88 20.825C109.814 20.825 110.68 20.625 111.48 20.225C112.297 19.8083 112.922 19.2417 113.355 18.525L113.755 18.775C113.289 19.5417 112.614 20.1583 111.73 20.625C110.864 21.075 109.914 21.3 108.88 21.3ZM121.256 21.3C120.073 21.3 119.073 21.0167 118.256 20.45C117.456 19.8833 116.906 19.1083 116.606 18.125L117.056 17.975C117.323 18.8583 117.815 19.5583 118.531 20.075C119.265 20.575 120.181 20.825 121.281 20.825C122.415 20.825 123.365 20.5417 124.131 19.975C124.898 19.4083 125.281 18.6333 125.281 17.65C125.281 16.9 125.023 16.3083 124.506 15.875C123.99 15.4417 123.173 15.1417 122.056 14.975L120.456 14.75C119.256 14.5833 118.365 14.2333 117.781 13.7C117.198 13.1667 116.906 12.4667 116.906 11.6C116.906 10.8667 117.098 10.25 117.481 9.75C117.865 9.23333 118.373 8.85 119.006 8.6C119.656 8.33333 120.356 8.2 121.106 8.2C122.173 8.2 123.098 8.45833 123.881 8.975C124.681 9.49167 125.231 10.2 125.531 11.1L125.106 11.275C124.823 10.4417 124.323 9.8 123.606 9.35C122.906 8.9 122.073 8.675 121.106 8.675C120.056 8.675 119.173 8.93333 118.456 9.45C117.756 9.95 117.406 10.6667 117.406 11.6C117.406 13.0667 118.448 13.95 120.531 14.25L122.131 14.475C123.315 14.6417 124.215 14.9833 124.831 15.5C125.465 16.0167 125.781 16.7333 125.781 17.65C125.781 18.4 125.573 19.0583 125.156 19.625C124.756 20.175 124.215 20.5917 123.531 20.875C122.848 21.1583 122.09 21.3 121.256 21.3Z" fill="black"/>
</g>
<defs>
<clipPath id="clip0_3379_7235">
<rect width="24" height="24" fill="white"/>
</clipPath>
</defs>
</svg>
