<svg width="24" height="24" viewBox="0 0 24 24" fill="none" xmlns="http://www.w3.org/2000/svg">
<g clip-path="url(#clip0_3379_7247)">
<rect width="24" height="24" fill="white"/>
<path d="M0.25 14.775C0.25 12.6583 0.716667 10.775 1.65 9.125C2.58333 7.475 3.89167 6.19167 5.575 5.275C7.25833 4.35833 9.18333 3.9 11.35 3.9C13.5333 3.9 15.4667 4.35 17.15 5.25C18.85 6.13333 20.1667 7.375 21.1 8.975C22.0333 10.5583 22.5 12.3833 22.5 14.45C22.5 15.5333 22.2833 16.5 21.85 17.35C21.4333 18.1833 20.825 18.8417 20.025 19.325C19.225 19.7917 18.2917 20.025 17.225 20.025C16.2417 20.025 15.375 19.8417 14.625 19.475C13.8917 19.1083 13.375 18.5333 13.075 17.75L13.8 18.075C13.4167 18.7083 12.925 19.1917 12.325 19.525C11.7417 19.8583 11.0917 20.025 10.375 20.025C9.59167 20.025 8.85 19.8333 8.15 19.45C7.46667 19.05 6.91667 18.4583 6.5 17.675C6.08333 16.8917 5.875 15.9333 5.875 14.8C5.875 13.7833 6.05 12.8833 6.4 12.1C6.75 11.3 7.225 10.6833 7.825 10.25C8.44167 9.8 9.13333 9.575 9.9 9.575C10.55 9.575 11.1333 9.74167 11.65 10.075C12.1833 10.4083 12.625 10.9167 12.975 11.6L12.525 12V9.825H16.025V15.525C16.025 15.925 16.1583 16.2417 16.425 16.475C16.6917 16.6917 17.0083 16.8 17.375 16.8C17.7083 16.8 17.9917 16.6917 18.225 16.475C18.475 16.2583 18.6667 15.9667 18.8 15.6C18.9333 15.2333 19 14.85 19 14.45C19 13.0333 18.675 11.7833 18.025 10.7C17.3917 9.6 16.4917 8.75 15.325 8.15C14.175 7.53333 12.85 7.225 11.35 7.225C9.86667 7.225 8.55 7.54167 7.4 8.175C6.26667 8.80833 5.375 9.7 4.725 10.85C4.09167 12 3.775 13.3083 3.775 14.775C3.775 16.2417 4.09167 17.55 4.725 18.7C5.375 19.85 6.26667 20.7417 7.4 21.375C8.55 22.0083 9.86667 22.325 11.35 22.325V25.65C9.18333 25.65 7.25833 25.1917 5.575 24.275C3.89167 23.3583 2.58333 22.075 1.65 20.425C0.716667 18.775 0.25 16.8917 0.25 14.775ZM9.4 14.775C9.4 15.1917 9.45833 15.5583 9.575 15.875C9.70833 16.175 9.89167 16.4083 10.125 16.575C10.3583 16.725 10.6417 16.8 10.975 16.8C11.325 16.8 11.6083 16.725 11.825 16.575C12.0583 16.4083 12.2333 16.175 12.35 15.875C12.4667 15.575 12.525 15.2083 12.525 14.775C12.525 14.3417 12.4667 13.9833 12.35 13.7C12.25 13.4 12.0833 13.175 11.85 13.025C11.6167 12.875 11.325 12.8 10.975 12.8C10.625 12.8 10.3333 12.8833 10.1 13.05C9.86667 13.2167 9.69167 13.45 9.575 13.75C9.45833 14.0333 9.4 14.375 9.4 14.775ZM29.6848 21.35C28.3681 21.35 27.2098 21.075 26.2098 20.525C25.2264 19.9583 24.4598 19.1583 23.9098 18.125C23.3764 17.0917 23.1098 15.8833 23.1098 14.5C23.1098 13.1167 23.3681 11.9083 23.8848 10.875C24.4181 9.84167 25.1681 9.05 26.1348 8.5C27.1014 7.93333 28.2264 7.65 29.5098 7.65C30.8264 7.65 31.9598 7.95 32.9098 8.55C33.8764 9.15 34.6014 10.0417 35.0848 11.225C35.5681 12.4083 35.7681 13.8417 35.6848 15.525H24.8348V12.975H33.0098L32.0098 13.525C32.0264 12.575 31.8014 11.8667 31.3348 11.4C30.8681 10.9333 30.2431 10.7 29.4598 10.7C28.9264 10.7 28.4598 10.8167 28.0598 11.05C27.6598 11.2667 27.3514 11.5917 27.1348 12.025C26.9348 12.4417 26.8348 12.9417 26.8348 13.525V14.7C26.8348 15.4167 26.9514 16.025 27.1848 16.525C27.4181 17.025 27.7598 17.4083 28.2098 17.675C28.6764 17.925 29.2264 18.05 29.8598 18.05C30.4764 18.05 31.0181 17.925 31.4848 17.675C31.9681 17.4083 32.3681 17.0333 32.6848 16.55L35.4598 18.325C34.8431 19.2917 34.0348 20.0417 33.0348 20.575C32.0348 21.0917 30.9181 21.35 29.6848 21.35ZM41.8904 15.775L41.4904 15.55L36.0904 8H40.6154L43.7904 12.75L44.3154 13.175L49.8404 21H45.3404L41.8904 15.775ZM41.7154 13.025L42.2654 12.625L45.3154 8H49.7654L44.4154 15.5L43.7654 16.075L40.4904 21H36.0404L41.7154 13.025ZM51.3232 8H55.1732V10.475L54.3482 10.5C54.7982 9.56667 55.4066 8.85833 56.1732 8.375C56.9399 7.89167 57.8482 7.65 58.8982 7.65C59.9649 7.65 60.9232 7.91667 61.7732 8.45C62.6399 8.98333 63.3232 9.76667 63.8232 10.8C64.3232 11.8333 64.5732 13.0667 64.5732 14.5C64.5732 15.9333 64.3232 17.1667 63.8232 18.2C63.3232 19.2333 62.6399 20.0167 61.7732 20.55C60.9232 21.0833 59.9649 21.35 58.8982 21.35C57.8482 21.35 56.9399 21.1083 56.1732 20.625C55.4232 20.125 54.8982 19.4833 54.5982 18.7L55.2982 18.65V26H51.3232V8ZM57.9482 17.975C58.8149 17.975 59.4649 17.6833 59.8982 17.1C60.3482 16.5167 60.5732 15.65 60.5732 14.5C60.5732 13.35 60.3482 12.4833 59.8982 11.9C59.4649 11.3167 58.8149 11.025 57.9482 11.025C57.0649 11.025 56.3982 11.325 55.9482 11.925C55.4982 12.5083 55.2732 13.3667 55.2732 14.5C55.2732 15.25 55.3732 15.8833 55.5732 16.4C55.7732 16.9167 56.0732 17.3083 56.4732 17.575C56.8732 17.8417 57.3649 17.975 57.9482 17.975ZM72.3605 21.35C71.0439 21.35 69.8855 21.075 68.8855 20.525C67.9022 19.9583 67.1355 19.1583 66.5855 18.125C66.0522 17.0917 65.7855 15.8833 65.7855 14.5C65.7855 13.1167 66.0439 11.9083 66.5605 10.875C67.0939 9.84167 67.8439 9.05 68.8105 8.5C69.7772 7.93333 70.9022 7.65 72.1855 7.65C73.5022 7.65 74.6355 7.95 75.5855 8.55C76.5522 9.15 77.2772 10.0417 77.7605 11.225C78.2439 12.4083 78.4439 13.8417 78.3605 15.525H67.5105V12.975H75.6855L74.6855 13.525C74.7022 12.575 74.4772 11.8667 74.0105 11.4C73.5439 10.9333 72.9189 10.7 72.1355 10.7C71.6022 10.7 71.1355 10.8167 70.7355 11.05C70.3355 11.2667 70.0272 11.5917 69.8105 12.025C69.6105 12.4417 69.5105 12.9417 69.5105 13.525V14.7C69.5105 15.4167 69.6272 16.025 69.8605 16.525C70.0939 17.025 70.4355 17.4083 70.8855 17.675C71.3522 17.925 71.9022 18.05 72.5355 18.05C73.1522 18.05 73.6939 17.925 74.1605 17.675C74.6439 17.4083 75.0439 17.0333 75.3605 16.55L78.1355 18.325C77.5189 19.2917 76.7105 20.0417 75.7105 20.575C74.7105 21.0917 73.5939 21.35 72.3605 21.35ZM80.2295 8H84.0795V10.65L83.6045 10.2C84.0378 9.35 84.6128 8.71667 85.3295 8.3C86.0628 7.86667 86.9878 7.65 88.1045 7.65C89.4545 7.65 90.5628 8.06667 91.4295 8.9C92.2962 9.73333 92.7295 11 92.7295 12.7V21H88.7295V13.25C88.7295 12.55 88.5295 12.0167 88.1295 11.65C87.7462 11.2833 87.2212 11.1 86.5545 11.1C85.7878 11.1 85.2045 11.3 84.8045 11.7C84.4212 12.0833 84.2295 12.7167 84.2295 13.6V21H80.2295V8ZM101.026 21.35C99.6923 21.35 98.5173 21.0833 97.5006 20.55C96.5006 20 95.7173 19.2083 95.1506 18.175C94.6006 17.1417 94.3256 15.9167 94.3256 14.5C94.3256 13.1 94.6089 11.8833 95.1756 10.85C95.7423 9.81667 96.5256 9.025 97.5256 8.475C98.5423 7.925 99.7089 7.65 101.026 7.65C102.326 7.65 103.467 7.925 104.451 8.475C105.451 9.00833 106.234 9.79167 106.801 10.825L103.851 12.525C103.584 12.0417 103.226 11.675 102.776 11.425C102.326 11.1583 101.809 11.025 101.226 11.025C100.626 11.025 100.109 11.1667 99.6756 11.45C99.2423 11.7167 98.9089 12.1083 98.6756 12.625C98.4423 13.1417 98.3256 13.7667 98.3256 14.5C98.3256 15.2167 98.4423 15.8417 98.6756 16.375C98.9089 16.8917 99.2423 17.2917 99.6756 17.575C100.126 17.8417 100.642 17.975 101.226 17.975C101.792 17.975 102.292 17.85 102.726 17.6C103.176 17.3333 103.551 16.9583 103.851 16.475L106.801 18.175C106.234 19.2083 105.451 20 104.451 20.55C103.467 21.0833 102.326 21.35 101.026 21.35ZM114.475 21.35C113.158 21.35 112 21.075 111 20.525C110.016 19.9583 109.25 19.1583 108.7 18.125C108.166 17.0917 107.9 15.8833 107.9 14.5C107.9 13.1167 108.158 11.9083 108.675 10.875C109.208 9.84167 109.958 9.05 110.925 8.5C111.891 7.93333 113.016 7.65 114.3 7.65C115.616 7.65 116.75 7.95 117.7 8.55C118.666 9.15 119.391 10.0417 119.875 11.225C120.358 12.4083 120.558 13.8417 120.475 15.525H109.625V12.975H117.8L116.8 13.525C116.816 12.575 116.591 11.8667 116.125 11.4C115.658 10.9333 115.033 10.7 114.25 10.7C113.716 10.7 113.25 10.8167 112.85 11.05C112.45 11.2667 112.141 11.5917 111.925 12.025C111.725 12.4417 111.625 12.9417 111.625 13.525V14.7C111.625 15.4167 111.741 16.025 111.975 16.525C112.208 17.025 112.55 17.4083 113 17.675C113.466 17.925 114.016 18.05 114.65 18.05C115.266 18.05 115.808 17.925 116.275 17.675C116.758 17.4083 117.158 17.0333 117.475 16.55L120.25 18.325C119.633 19.2917 118.825 20.0417 117.825 20.575C116.825 21.0917 115.708 21.35 114.475 21.35ZM127.544 21.35C126.26 21.35 125.119 21.1 124.119 20.6C123.119 20.0833 122.31 19.3917 121.694 18.525L124.044 16.625C124.427 17.0917 124.902 17.475 125.469 17.775C126.035 18.0583 126.694 18.2 127.444 18.2C128.127 18.2 128.635 18.0917 128.969 17.875C129.319 17.6583 129.494 17.375 129.494 17.025C129.494 16.7583 129.385 16.5417 129.169 16.375C128.952 16.1917 128.635 16.075 128.219 16.025L126.419 15.825C125.152 15.6917 124.102 15.3083 123.269 14.675C122.452 14.025 122.044 13.1167 122.044 11.95C122.044 11.0333 122.302 10.25 122.819 9.6C123.335 8.95 124.027 8.46667 124.894 8.15C125.76 7.81667 126.702 7.65 127.719 7.65C128.869 7.65 129.919 7.86667 130.869 8.3C131.819 8.73333 132.61 9.33333 133.244 10.1L131.019 12.175C130.652 11.7583 130.185 11.425 129.619 11.175C129.069 10.9083 128.444 10.775 127.744 10.775C127.077 10.775 126.577 10.8667 126.244 11.05C125.927 11.2333 125.769 11.4917 125.769 11.825C125.769 12.375 126.21 12.7 127.094 12.8L128.919 13C130.135 13.1333 131.152 13.5167 131.969 14.15C132.802 14.7667 133.219 15.6917 133.219 16.925C133.219 17.8583 132.96 18.6583 132.444 19.325C131.944 19.9917 131.26 20.5 130.394 20.85C129.544 21.1833 128.594 21.35 127.544 21.35Z" fill="black"/>
</g>
<defs>
<clipPath id="clip0_3379_7247">
<rect width="24" height="24" fill="white"/>
</clipPath>
</defs>
</svg>
