<svg width="24" height="24" viewBox="0 0 24 24" fill="none" xmlns="http://www.w3.org/2000/svg">
<g clip-path="url(#clip0_3379_7245)">
<rect width="24" height="24" fill="white"/>
<path d="M0.45 14.775C0.45 12.725 0.916667 10.8917 1.85 9.275C2.78333 7.64167 4.075 6.375 5.725 5.475C7.375 4.55833 9.25 4.1 11.35 4.1C13.4667 4.1 15.35 4.55 17 5.45C18.6667 6.33333 19.9667 7.56667 20.9 9.15C21.8333 10.7333 22.3 12.5333 22.3 14.55C22.3 15.6333 22.0833 16.5917 21.65 17.425C21.2333 18.2417 20.6417 18.8833 19.875 19.35C19.125 19.8167 18.2583 20.05 17.275 20.05C16.325 20.05 15.5083 19.85 14.825 19.45C14.1583 19.05 13.7 18.4417 13.45 17.625L14.15 17.875C13.7833 18.575 13.275 19.1167 12.625 19.5C11.9917 19.8667 11.2833 20.05 10.5 20.05C9.68333 20.05 8.925 19.85 8.225 19.45C7.525 19.0333 6.96667 18.4333 6.55 17.65C6.15 16.8667 5.95 15.925 5.95 14.825C5.95 13.8083 6.13333 12.9083 6.5 12.125C6.86667 11.325 7.36667 10.7083 8 10.275C8.65 9.84167 9.375 9.625 10.175 9.625C10.8917 9.625 11.525 9.8 12.075 10.15C12.6417 10.5 13.1 11.0167 13.45 11.7L13 12.125V9.875H15.975V15.875C15.975 16.325 16.1 16.675 16.35 16.925C16.6167 17.175 16.9667 17.3 17.4 17.3C17.7667 17.3 18.0917 17.1833 18.375 16.95C18.675 16.7167 18.9083 16.3917 19.075 15.975C19.2417 15.5417 19.325 15.0667 19.325 14.55C19.325 13.0833 18.9833 11.775 18.3 10.625C17.6333 9.45833 16.6917 8.55 15.475 7.9C14.275 7.23333 12.9 6.9 11.35 6.9C9.81667 6.9 8.45 7.24167 7.25 7.925C6.06667 8.59167 5.13333 9.525 4.45 10.725C3.78333 11.9083 3.45 13.2583 3.45 14.775C3.45 16.275 3.78333 17.625 4.45 18.825C5.13333 20.025 6.06667 20.9583 7.25 21.625C8.45 22.2917 9.81667 22.625 11.35 22.625V25.45C9.25 25.45 7.375 24.9917 5.725 24.075C4.075 23.175 2.78333 21.9167 1.85 20.3C0.916667 18.6667 0.45 16.825 0.45 14.775ZM8.95 14.8C8.95 15.3333 9.025 15.7917 9.175 16.175C9.34167 16.5417 9.575 16.825 9.875 17.025C10.1917 17.2083 10.5667 17.3 11 17.3C11.4167 17.3 11.775 17.2083 12.075 17.025C12.375 16.825 12.6 16.5417 12.75 16.175C12.9167 15.7917 13 15.3333 13 14.8C13 14.2833 12.925 13.8417 12.775 13.475C12.625 13.1083 12.3917 12.8333 12.075 12.65C11.775 12.45 11.4167 12.35 11 12.35C10.55 12.35 10.175 12.45 9.875 12.65C9.575 12.85 9.34167 13.1333 9.175 13.5C9.025 13.8667 8.95 14.3 8.95 14.8ZM29.7348 21.325C28.4681 21.325 27.3431 21.0583 26.3598 20.525C25.3931 19.975 24.6348 19.1917 24.0848 18.175C23.5514 17.1583 23.2848 15.9583 23.2848 14.575C23.2848 13.2083 23.5431 12.0167 24.0598 11C24.5764 9.98333 25.3014 9.2 26.2348 8.65C27.1848 8.1 28.2764 7.825 29.5098 7.825C30.7598 7.825 31.8514 8.11667 32.7848 8.7C33.7181 9.26667 34.4264 10.125 34.9098 11.275C35.3931 12.425 35.5848 13.825 35.4848 15.475H24.8098V13.175H33.3848L32.3848 13.775C32.4014 12.675 32.1431 11.85 31.6098 11.3C31.0764 10.75 30.3598 10.475 29.4598 10.475C28.8431 10.475 28.3014 10.6083 27.8348 10.875C27.3848 11.1417 27.0348 11.525 26.7848 12.025C26.5514 12.5083 26.4348 13.0917 26.4348 13.775V14.725C26.4348 15.525 26.5681 16.2083 26.8348 16.775C27.1181 17.3417 27.5181 17.775 28.0348 18.075C28.5681 18.3583 29.1764 18.5 29.8598 18.5C30.5264 18.5 31.1098 18.3667 31.6098 18.1C32.1264 17.8333 32.5598 17.45 32.9098 16.95L35.2598 18.475C34.6764 19.3917 33.9014 20.1 32.9348 20.6C31.9681 21.0833 30.9014 21.325 29.7348 21.325ZM41.7404 15.7L41.4154 15.475L36.1404 8.175H39.9654L43.3404 13.05L43.7654 13.425L49.1654 21H45.3654L41.7404 15.7ZM41.5904 13.325L42.0154 12.975L45.3154 8.175H49.0404L43.8404 15.375L43.3154 15.9L39.7904 21H36.0654L41.5904 13.325ZM50.8146 8.175H54.0396V10.775L53.3646 10.7C53.798 9.76667 54.398 9.05833 55.1646 8.575C55.948 8.075 56.873 7.825 57.9396 7.825C59.0063 7.825 59.9646 8.1 60.8146 8.65C61.6813 9.18333 62.3563 9.95833 62.8396 10.975C63.3396 11.9917 63.5896 13.1917 63.5896 14.575C63.5896 15.975 63.3396 17.1833 62.8396 18.2C62.3563 19.2167 61.6813 19.9917 60.8146 20.525C59.9646 21.0583 59.0063 21.325 57.9396 21.325C56.8896 21.325 55.973 21.0833 55.1896 20.6C54.423 20.1167 53.8646 19.4667 53.5146 18.65L54.1146 18.475V26.175H50.8146V8.175ZM57.1896 18.45C58.1563 18.45 58.9063 18.1167 59.4396 17.45C59.973 16.7833 60.2396 15.825 60.2396 14.575C60.2396 13.325 59.973 12.375 59.4396 11.725C58.9063 11.0583 58.1563 10.725 57.1896 10.725C56.223 10.725 55.4646 11.0583 54.9146 11.725C54.3813 12.3917 54.1146 13.3417 54.1146 14.575C54.1146 15.4083 54.2313 16.1167 54.4646 16.7C54.7146 17.2833 55.073 17.725 55.5396 18.025C56.0063 18.3083 56.5563 18.45 57.1896 18.45ZM71.6049 21.325C70.3382 21.325 69.2132 21.0583 68.2299 20.525C67.2632 19.975 66.5049 19.1917 65.9549 18.175C65.4215 17.1583 65.1549 15.9583 65.1549 14.575C65.1549 13.2083 65.4132 12.0167 65.9299 11C66.4465 9.98333 67.1715 9.2 68.1049 8.65C69.0549 8.1 70.1465 7.825 71.3799 7.825C72.6299 7.825 73.7215 8.11667 74.6549 8.7C75.5882 9.26667 76.2965 10.125 76.7799 11.275C77.2632 12.425 77.4549 13.825 77.3549 15.475H66.6799V13.175H75.2549L74.2549 13.775C74.2716 12.675 74.0132 11.85 73.4799 11.3C72.9465 10.75 72.2299 10.475 71.3299 10.475C70.7132 10.475 70.1715 10.6083 69.7049 10.875C69.2549 11.1417 68.9049 11.525 68.6549 12.025C68.4215 12.5083 68.3049 13.0917 68.3049 13.775V14.725C68.3049 15.525 68.4382 16.2083 68.7049 16.775C68.9882 17.3417 69.3882 17.775 69.9049 18.075C70.4382 18.3583 71.0465 18.5 71.7299 18.5C72.3965 18.5 72.9799 18.3667 73.4799 18.1C73.9965 17.8333 74.4299 17.45 74.7799 16.95L77.1299 18.475C76.5466 19.3917 75.7716 20.1 74.8049 20.6C73.8382 21.0833 72.7715 21.325 71.6049 21.325ZM79.5988 8.175H82.8238V10.85L82.3988 10.375C82.7988 9.54167 83.3572 8.90833 84.0738 8.475C84.8072 8.04167 85.7238 7.825 86.8238 7.825C88.2405 7.825 89.3905 8.25833 90.2738 9.125C91.1572 9.975 91.5988 11.2333 91.5988 12.9V21H88.2488V13.4C88.2488 12.5333 88.0155 11.8833 87.5488 11.45C87.0988 11 86.4738 10.775 85.6738 10.775C84.7905 10.775 84.1072 11.0167 83.6238 11.5C83.1572 11.9667 82.9238 12.7167 82.9238 13.75V21H79.5988V8.175ZM100.023 21.325C98.7401 21.325 97.6068 21.0583 96.6234 20.525C95.6568 19.9917 94.8984 19.2167 94.3484 18.2C93.8151 17.1667 93.5484 15.9583 93.5484 14.575C93.5484 13.2083 93.8234 12.0167 94.3734 11C94.9234 9.98333 95.6901 9.2 96.6734 8.65C97.6568 8.1 98.7818 7.825 100.048 7.825C101.315 7.825 102.432 8.1 103.398 8.65C104.382 9.2 105.132 9.99167 105.648 11.025L103.123 12.425C102.84 11.875 102.448 11.4583 101.948 11.175C101.448 10.875 100.865 10.725 100.198 10.725C99.5151 10.725 98.9234 10.8833 98.4234 11.2C97.9234 11.5 97.5401 11.9417 97.2734 12.525C97.0234 13.0917 96.8984 13.775 96.8984 14.575C96.8984 15.375 97.0234 16.0667 97.2734 16.65C97.5401 17.2333 97.9234 17.6833 98.4234 18C98.9234 18.3 99.5068 18.45 100.173 18.45C100.84 18.45 101.415 18.3083 101.898 18.025C102.398 17.725 102.798 17.3 103.098 16.75L105.673 18.125C105.14 19.1583 104.382 19.95 103.398 20.5C102.415 21.05 101.29 21.325 100.023 21.325ZM113.548 21.325C112.282 21.325 111.157 21.0583 110.173 20.525C109.207 19.975 108.448 19.1917 107.898 18.175C107.365 17.1583 107.098 15.9583 107.098 14.575C107.098 13.2083 107.357 12.0167 107.873 11C108.39 9.98333 109.115 9.2 110.048 8.65C110.998 8.1 112.09 7.825 113.323 7.825C114.573 7.825 115.665 8.11667 116.598 8.7C117.532 9.26667 118.24 10.125 118.723 11.275C119.207 12.425 119.398 13.825 119.298 15.475H108.623V13.175H117.198L116.198 13.775C116.215 12.675 115.957 11.85 115.423 11.3C114.89 10.75 114.173 10.475 113.273 10.475C112.657 10.475 112.115 10.6083 111.648 10.875C111.198 11.1417 110.848 11.525 110.598 12.025C110.365 12.5083 110.248 13.0917 110.248 13.775V14.725C110.248 15.525 110.382 16.2083 110.648 16.775C110.932 17.3417 111.332 17.775 111.848 18.075C112.382 18.3583 112.99 18.5 113.673 18.5C114.34 18.5 114.923 18.3667 115.423 18.1C115.94 17.8333 116.373 17.45 116.723 16.95L119.073 18.475C118.49 19.3917 117.715 20.1 116.748 20.6C115.782 21.0833 114.715 21.325 113.548 21.325ZM126.542 21.325C125.292 21.325 124.176 21.075 123.192 20.575C122.226 20.0583 121.459 19.3583 120.892 18.475L122.992 16.9C123.376 17.4333 123.851 17.8583 124.417 18.175C125.001 18.475 125.692 18.625 126.492 18.625C127.242 18.625 127.809 18.4917 128.192 18.225C128.592 17.9583 128.792 17.6167 128.792 17.2C128.792 16.85 128.659 16.5667 128.392 16.35C128.126 16.1333 127.692 15.9833 127.092 15.9L125.442 15.725C124.159 15.575 123.142 15.175 122.392 14.525C121.642 13.875 121.267 13.0167 121.267 11.95C121.267 11.0833 121.509 10.3417 121.992 9.725C122.476 9.09167 123.117 8.61667 123.917 8.3C124.734 7.98333 125.617 7.825 126.567 7.825C127.701 7.825 128.726 8.05833 129.642 8.525C130.559 8.99167 131.301 9.625 131.867 10.425L129.842 12.1C129.492 11.6167 129.042 11.2333 128.492 10.95C127.959 10.65 127.317 10.5 126.567 10.5C125.867 10.5 125.334 10.625 124.967 10.875C124.601 11.1083 124.417 11.4333 124.417 11.85C124.417 12.55 124.967 12.9667 126.067 13.1L127.717 13.275C128.967 13.425 129.984 13.8167 130.767 14.45C131.551 15.0667 131.942 15.95 131.942 17.1C131.942 17.9833 131.701 18.75 131.217 19.4C130.734 20.0333 130.084 20.5167 129.267 20.85C128.451 21.1667 127.542 21.325 126.542 21.325Z" fill="black"/>
</g>
<defs>
<clipPath id="clip0_3379_7245">
<rect width="24" height="24" fill="white"/>
</clipPath>
</defs>
</svg>
