<svg width="24" height="24" viewBox="0 0 24 24" fill="none" xmlns="http://www.w3.org/2000/svg">
<g clip-path="url(#clip0_3181_25250)">
<rect width="24" height="24" fill="white"/>
<path d="M4.5 21C3.8 21 3.20833 20.7583 2.725 20.275C2.24167 19.7917 2 19.2 2 18.5V10.5C2 9.8 2.24167 9.20833 2.725 8.725C3.20833 8.24167 3.8 8 4.5 8H7.925L8.25 8.6C7.31667 8.43333 6.5 8.16667 5.8 7.8C5.11667 7.43333 4.59167 7.00833 4.225 6.525C3.85833 6.025 3.675 5.49167 3.675 4.925C3.675 4.425 3.79167 3.975 4.025 3.575C4.275 3.175 4.61667 2.86667 5.05 2.65C5.5 2.41667 5.99167 2.3 6.525 2.3C7.34167 2.3 8.06667 2.55 8.7 3.05C9.33333 3.55 9.81667 4.275 10.15 5.225C10.5 6.15833 10.675 7.26667 10.675 8.55H9.5C9.5 7.26667 9.66667 6.15833 10 5.225C10.35 4.275 10.8333 3.55 11.45 3.05C12.0833 2.55 12.8083 2.3 13.625 2.3C14.175 2.3 14.6667 2.41667 15.1 2.65C15.5333 2.86667 15.875 3.175 16.125 3.575C16.375 3.975 16.5 4.425 16.5 4.925C16.5 5.50833 16.3083 6.05 15.925 6.55C15.5583 7.03333 15.025 7.45833 14.325 7.825C13.6417 8.19167 12.8333 8.45833 11.9 8.625L12.325 8H19.5C20.2 8 20.7917 8.24167 21.275 8.725C21.7583 9.20833 22 9.8 22 10.5V18.5C22 19.2 21.7583 19.7917 21.275 20.275C20.7917 20.7583 20.2 21 19.5 21H10.825V9.825H9.325V21H4.5ZM9.45 8.55C9.43333 6.95 9.18333 5.70833 8.7 4.825C8.21667 3.94167 7.525 3.5 6.625 3.5C6.15833 3.5 5.76667 3.64167 5.45 3.925C5.15 4.19167 5 4.55 5 5C5 5.46667 5.2 5.9 5.6 6.3C6 6.7 6.58333 7.05 7.35 7.35C8.13333 7.65 9.06667 7.875 10.15 8.025L9.45 8.55ZM10.025 8.025C11.1083 7.875 12.0333 7.65833 12.8 7.375C13.5833 7.075 14.175 6.725 14.575 6.325C14.975 5.925 15.175 5.48333 15.175 5C15.175 4.58333 15.025 4.25 14.725 4C14.425 3.73333 14.05 3.6 13.6 3.6C12.7 3.6 11.9917 4.03333 11.475 4.9C10.975 5.76667 10.725 6.98333 10.725 8.55L10.025 8.025Z" fill="black"/>
</g>
<defs>
<clipPath id="clip0_3181_25250">
<rect width="24" height="24" fill="white"/>
</clipPath>
</defs>
</svg>
