<svg width="24" height="24" viewBox="0 0 24 24" fill="none" xmlns="http://www.w3.org/2000/svg">
<g clip-path="url(#clip0_3177_15931)">
<rect width="24" height="24" fill="white"/>
<path d="M4.72549 21C3.95882 21 3.30882 20.7417 2.77549 20.225C2.25882 19.6917 2.00049 19.05 2.00049 18.3V11.375C2.00049 10.6083 2.25882 9.96667 2.77549 9.45C3.30882 8.93333 3.95882 8.675 4.72549 8.675H7.57549L7.42549 9.95C6.60882 9.8 5.87549 9.49167 5.22549 9.025C4.57549 8.55833 4.06715 8.03333 3.70049 7.45C3.33382 6.85 3.15049 6.29167 3.15049 5.775C3.15049 4.775 3.48382 3.95 4.15049 3.3C4.81716 2.63333 5.66716 2.3 6.70049 2.3C7.61716 2.3 8.41716 2.58333 9.10049 3.15C9.78382 3.7 10.3005 4.48333 10.6505 5.5C11.0172 6.5 11.2005 7.66667 11.2005 9H9.07549C9.07549 7.66667 9.25882 6.5 9.62549 5.5C9.99216 4.48333 10.5088 3.7 11.1755 3.15C11.8588 2.58333 12.6588 2.3 13.5755 2.3C14.6088 2.3 15.4588 2.63333 16.1255 3.3C16.8088 3.95 17.1505 4.775 17.1505 5.775C17.1505 6.29167 16.9588 6.85 16.5755 7.45C16.2088 8.05 15.7005 8.58333 15.0505 9.05C14.4005 9.51667 13.6672 9.825 12.8505 9.975L12.7255 8.675H19.2755C20.0422 8.675 20.6838 8.93333 21.2005 9.45C21.7338 9.96667 22.0005 10.6083 22.0005 11.375V18.3C22.0005 19.05 21.7338 19.6917 21.2005 20.225C20.6838 20.7417 20.0422 21 19.2755 21H4.72549ZM4.95049 17.65C4.95049 17.7667 4.99216 17.875 5.07549 17.975C5.15882 18.0583 5.25882 18.1 5.37549 18.1H8.75049V11.525H5.37549C5.25882 11.525 5.15882 11.575 5.07549 11.675C4.99216 11.7583 4.95049 11.8583 4.95049 11.975V17.65ZM18.6255 18.1C18.7422 18.1 18.8422 18.0583 18.9255 17.975C19.0088 17.875 19.0505 17.7667 19.0505 17.65V11.975C19.0505 11.8583 19.0088 11.7583 18.9255 11.675C18.8422 11.575 18.7422 11.525 18.6255 11.525H11.6255V18.1H18.6255ZM8.95049 9C8.95049 7.7 8.76716 6.66667 8.40049 5.9C8.05049 5.13333 7.56716 4.75 6.95049 4.75C6.65049 4.75 6.39216 4.85833 6.17549 5.075C5.97549 5.275 5.87549 5.525 5.87549 5.825C5.87549 6.19167 6.04216 6.56667 6.37549 6.95C6.70882 7.33333 7.21716 7.68333 7.90049 8C8.58382 8.3 9.40882 8.51667 10.3755 8.65L8.95049 9ZM9.90049 8.65C10.8838 8.51667 11.7172 8.3 12.4005 8C13.0838 7.68333 13.5922 7.33333 13.9255 6.95C14.2588 6.56667 14.4255 6.19167 14.4255 5.825C14.4255 5.54167 14.3338 5.31667 14.1505 5.15C13.9672 4.96667 13.7338 4.875 13.4505 4.875C12.8172 4.875 12.3005 5.25 11.9005 6C11.5172 6.75 11.3255 7.75 11.3255 9L9.90049 8.65Z" fill="black"/>
</g>
<defs>
<clipPath id="clip0_3177_15931">
<rect width="24" height="24" fill="white"/>
</clipPath>
</defs>
</svg>
