<svg width="24" height="24" viewBox="0 0 24 24" fill="none" xmlns="http://www.w3.org/2000/svg">
<g clip-path="url(#clip0_3321_9681)">
<rect width="24" height="24" fill="white"/>
<path d="M12.5585 21.4C11.4418 21.4 10.4502 21.2167 9.5835 20.85C8.71683 20.4833 8.0335 19.9667 7.5335 19.3C7.05016 18.6167 6.8085 17.825 6.8085 16.925C6.8085 16.0417 7.05016 15.3 7.5335 14.7C8.01683 14.0833 8.7585 13.5667 9.7585 13.15L11.1585 13.775C10.2252 14.0417 9.51683 14.425 9.0335 14.925C8.56683 15.425 8.3335 16.0583 8.3335 16.825C8.3335 17.825 8.72516 18.6083 9.5085 19.175C10.3085 19.725 11.3418 20 12.6085 20C13.8752 20 14.8835 19.7417 15.6335 19.225C16.4002 18.6917 16.9335 17.925 17.2335 16.925L18.5335 17.45C18.1335 18.7167 17.4252 19.6917 16.4085 20.375C15.4085 21.0583 14.1252 21.4 12.5585 21.4ZM5.3335 12.95H19.6585V14.225H5.3335V12.95ZM5.3335 9.775H19.6585V11.05H5.3335V9.775ZM13.9335 10.325C14.8502 10.0417 15.5418 9.65 16.0085 9.15C16.4752 8.65 16.7085 8.025 16.7085 7.275C16.7085 6.275 16.3168 5.5 15.5335 4.95C14.7668 4.38333 13.7668 4.1 12.5335 4.1C11.3168 4.1 10.3335 4.36667 9.5835 4.9C8.8335 5.43333 8.3085 6.19167 8.0085 7.175L6.7085 6.65C7.1085 5.38333 7.80016 4.40833 8.7835 3.725C9.7835 3.04167 11.0502 2.7 12.5835 2.7C13.6668 2.7 14.6335 2.88333 15.4835 3.25C16.3502 3.61667 17.0252 4.14167 17.5085 4.825C17.9918 5.49167 18.2335 6.275 18.2335 7.175C18.2335 8.05833 17.9918 8.8 17.5085 9.4C17.0418 10 16.3168 10.5083 15.3335 10.925L13.9335 10.325Z" fill="black"/>
</g>
<defs>
<clipPath id="clip0_3321_9681">
<rect width="24" height="24" fill="white"/>
</clipPath>
</defs>
</svg>
