<svg width="24" height="24" viewBox="0 0 24 24" fill="none" xmlns="http://www.w3.org/2000/svg">
<g clip-path="url(#clip0_3177_15769)">
<rect width="24" height="24" fill="white"/>
<path d="M2.50049 8.175H21.5005V21H2.50049V8.175ZM20.0505 19.575V9.575H3.95049V19.575H20.0505ZM10.3005 2.75H12.0755H13.6755H14.7505L12.0005 5.5L9.25049 2.75H10.3005ZM12.0005 17.55C11.1672 17.55 10.4588 17.2667 9.87549 16.7C9.29216 16.1167 9.00049 15.4083 9.00049 14.575C9.00049 13.7417 9.29216 13.0417 9.87549 12.475C10.4588 11.8917 11.1672 11.6 12.0005 11.6C12.8338 11.6 13.5422 11.8917 14.1255 12.475C14.7088 13.0417 15.0005 13.7417 15.0005 14.575C15.0005 15.4083 14.7088 16.1167 14.1255 16.7C13.5422 17.2667 12.8338 17.55 12.0005 17.55ZM12.0005 16.275C12.5005 16.275 12.9088 16.1167 13.2255 15.8C13.5588 15.4667 13.7255 15.0667 13.7255 14.6C13.7255 14.1 13.5588 13.6917 13.2255 13.375C12.9088 13.0417 12.5005 12.875 12.0005 12.875C11.5172 12.875 11.1088 13.0417 10.7755 13.375C10.4588 13.6917 10.3005 14.1 10.3005 14.6C10.3005 15.0667 10.4588 15.4667 10.7755 15.8C11.1088 16.1167 11.5172 16.275 12.0005 16.275Z" fill="black"/>
</g>
<defs>
<clipPath id="clip0_3177_15769">
<rect width="24" height="24" fill="white"/>
</clipPath>
</defs>
</svg>
