<svg width="24" height="24" viewBox="0 0 24 24" fill="none" xmlns="http://www.w3.org/2000/svg">
<g clip-path="url(#clip0_3181_25400)">
<rect width="24" height="24" fill="white"/>
<path d="M20.0005 15.4C19.3338 16.0833 18.5922 16.6167 17.7755 17C16.9755 17.3667 16.1672 17.6 15.3505 17.7C14.5505 17.7833 13.7672 17.75 13.0005 17.6L9.60049 21.025H5.10049L0.825488 16.725L6.50049 11.05C6.35049 10.3167 6.31716 9.55 6.40049 8.75C6.50049 7.93333 6.74216 7.125 7.12549 6.325C7.50882 5.50833 8.03382 4.76667 8.70049 4.1C9.73382 3.05 10.9338 2.35 12.3005 2C13.6672 1.63333 15.0338 1.63333 16.4005 2C17.7672 2.35 18.9672 3.05 20.0005 4.1C21.0505 5.13333 21.7505 6.33333 22.1005 7.7C22.4672 9.06667 22.4672 10.4333 22.1005 11.8C21.7505 13.1667 21.0505 14.3667 20.0005 15.4ZM17.6005 13C18.2005 12.4 18.6005 11.7083 18.8005 10.925C19.0172 10.1417 19.0172 9.35833 18.8005 8.575C18.6005 7.79167 18.2005 7.1 17.6005 6.5C17.0005 5.9 16.3088 5.5 15.5255 5.3C14.7422 5.08333 13.9588 5.08333 13.1755 5.3C12.3922 5.5 11.7005 5.9 11.1005 6.5C10.3505 7.25 9.90882 8.11667 9.77549 9.1C9.64216 10.0833 9.83382 11.05 10.3505 12L5.60049 16.725L6.52549 17.65H8.17549L12.1005 13.75C13.0672 14.2667 14.0338 14.4583 15.0005 14.325C15.9838 14.1917 16.8505 13.75 17.6005 13ZM15.0255 11.375C14.3422 11.375 13.7672 11.15 13.3005 10.7C12.8505 10.2333 12.6255 9.66667 12.6255 9C12.6255 8.33333 12.8505 7.775 13.3005 7.325C13.7672 6.85833 14.3422 6.625 15.0255 6.625C15.6922 6.625 16.2505 6.85833 16.7005 7.325C17.1505 7.775 17.3755 8.33333 17.3755 9C17.3755 9.66667 17.1505 10.2333 16.7005 10.7C16.2505 11.15 15.6922 11.375 15.0255 11.375ZM15.0005 9C14.7838 9 14.6255 9 14.5255 9C14.4255 9 14.2755 9 14.0755 9C14.2922 9 14.4505 9 14.5505 9C14.6505 9 14.8005 9 15.0005 9C15.2172 9 15.3755 9 15.4755 9C15.5755 9 15.7255 9 15.9255 9C15.7088 9 15.5505 9 15.4505 9C15.3505 9 15.2005 9 15.0005 9Z" fill="black"/>
</g>
<defs>
<clipPath id="clip0_3181_25400">
<rect width="24" height="24" fill="white"/>
</clipPath>
</defs>
</svg>
