<svg width="24" height="24" viewBox="0 0 24 24" fill="none" xmlns="http://www.w3.org/2000/svg">
<g clip-path="url(#clip0_3181_24764)">
<rect width="24" height="24" fill="white"/>
<path d="M12 22C10.1667 22 8.48333 21.5583 6.95 20.675C5.41667 19.7917 4.20833 18.5833 3.325 17.05C2.44167 15.5167 2 13.8333 2 12C2 10.1667 2.44167 8.48333 3.325 6.95C4.20833 5.41667 5.41667 4.20833 6.95 3.325C8.48333 2.44167 10.1667 2 12 2C13.8333 2 15.5167 2.44167 17.05 3.325C18.5833 4.20833 19.7917 5.41667 20.675 6.95C21.5583 8.48333 22 10.1667 22 12C22 13.8333 21.5583 15.5167 20.675 17.05C19.7917 18.5833 18.5833 19.7917 17.05 20.675C15.5167 21.5583 13.8333 22 12 22ZM7.975 10.9C8.55833 10.9 9.05833 10.7 9.475 10.3C9.89167 9.88333 10.1 9.38333 10.1 8.8C10.1 8.21667 9.89167 7.725 9.475 7.325C9.05833 6.925 8.55833 6.725 7.975 6.725C7.39167 6.725 6.89167 6.925 6.475 7.325C6.05833 7.725 5.85 8.21667 5.85 8.8C5.85 9.38333 6.05833 9.88333 6.475 10.3C6.89167 10.7 7.39167 10.9 7.975 10.9ZM5.3 11.3C5.16667 11.3 5.05833 11.3 4.975 11.3C4.90833 11.3 4.80833 11.3 4.675 11.3C4.825 11.3 4.93333 11.3 5 11.3C5.06667 11.3 5.16667 11.3 5.3 11.3C5.45 11.3 5.55833 11.3 5.625 11.3C5.69167 11.3 5.8 11.3 5.95 11.3C5.8 11.3 5.69167 11.3 5.625 11.3C5.55833 11.3 5.45 11.3 5.3 11.3ZM10.5 17.175L16.925 6.825H13.4L6.975 17.175H10.5ZM15.95 17.275C16.5333 17.275 17.0333 17.075 17.45 16.675C17.8667 16.275 18.075 15.7833 18.075 15.2C18.075 14.6167 17.8667 14.125 17.45 13.725C17.0333 13.3083 16.5333 13.1 15.95 13.1C15.3667 13.1 14.8667 13.3083 14.45 13.725C14.0333 14.125 13.825 14.6167 13.825 15.2C13.825 15.7833 14.0333 16.275 14.45 16.675C14.8667 17.075 15.3667 17.275 15.95 17.275ZM18.6 17.7C18.4667 17.7 18.3583 17.7 18.275 17.7C18.2083 17.7 18.1083 17.7 17.975 17.7C18.125 17.7 18.2333 17.7 18.3 17.7C18.3667 17.7 18.4667 17.7 18.6 17.7C18.75 17.7 18.8583 17.7 18.925 17.7C18.9917 17.7 19.1 17.7 19.25 17.7C19.1 17.7 18.9917 17.7 18.925 17.7C18.8583 17.7 18.75 17.7 18.6 17.7Z" fill="black"/>
</g>
<defs>
<clipPath id="clip0_3181_24764">
<rect width="24" height="24" fill="white"/>
</clipPath>
</defs>
</svg>
