<svg width="24" height="24" viewBox="0 0 24 24" fill="none" xmlns="http://www.w3.org/2000/svg">
<g clip-path="url(#clip0_3181_24760)">
<rect width="24" height="24" fill="white"/>
<path d="M12 22C10.1667 22 8.48333 21.5583 6.95 20.675C5.41667 19.7917 4.20833 18.5833 3.325 17.05C2.44167 15.5167 2 13.8333 2 12C2 10.1667 2.44167 8.48333 3.325 6.95C4.20833 5.41667 5.41667 4.20833 6.95 3.325C8.48333 2.44167 10.1667 2 12 2C13.8333 2 15.5167 2.44167 17.05 3.325C18.5833 4.20833 19.7917 5.41667 20.675 6.95C21.5583 8.48333 22 10.1667 22 12C22 13.8333 21.5583 15.5167 20.675 17.05C19.7917 18.5833 18.5833 19.7917 17.05 20.675C15.5167 21.5583 13.8333 22 12 22ZM7.975 11.875C8.725 11.875 9.35 11.625 9.85 11.125C10.3667 10.625 10.625 10.0167 10.625 9.3C10.625 8.58333 10.3667 7.975 9.85 7.475C9.35 6.975 8.73333 6.725 8 6.725C7.26667 6.725 6.64167 6.975 6.125 7.475C5.60833 7.975 5.35 8.58333 5.35 9.3C5.35 10.0167 5.6 10.625 6.1 11.125C6.61667 11.625 7.24167 11.875 7.975 11.875ZM8 10.2C7.71667 10.2 7.48333 10.1167 7.3 9.95C7.13333 9.78333 7.05 9.56667 7.05 9.3C7.05 9.03333 7.13333 8.81667 7.3 8.65C7.48333 8.48333 7.71667 8.4 8 8.4C8.26667 8.4 8.48333 8.48333 8.65 8.65C8.83333 8.81667 8.925 9.03333 8.925 9.3C8.925 9.56667 8.83333 9.78333 8.65 9.95C8.48333 10.1167 8.26667 10.2 8 10.2ZM10 17.175L16.35 6.825H13.9L7.55 17.175H10ZM15.9 17.275C16.6333 17.275 17.2583 17.0333 17.775 16.55C18.2917 16.05 18.55 15.4333 18.55 14.7C18.55 13.9833 18.2917 13.375 17.775 12.875C17.275 12.375 16.6583 12.125 15.925 12.125C15.175 12.125 14.5417 12.375 14.025 12.875C13.525 13.375 13.275 13.9833 13.275 14.7C13.275 15.4333 13.525 16.05 14.025 16.55C14.5417 17.0333 15.1667 17.275 15.9 17.275ZM15.9 15.6C15.6333 15.6 15.4083 15.5167 15.225 15.35C15.0583 15.1833 14.975 14.9667 14.975 14.7C14.975 14.4333 15.0583 14.2167 15.225 14.05C15.4083 13.8833 15.6333 13.8 15.9 13.8C16.1833 13.8 16.4083 13.8833 16.575 14.05C16.7583 14.2167 16.85 14.4333 16.85 14.7C16.85 14.9667 16.7583 15.1833 16.575 15.35C16.4083 15.5167 16.1833 15.6 15.9 15.6Z" fill="black"/>
</g>
<defs>
<clipPath id="clip0_3181_24760">
<rect width="24" height="24" fill="white"/>
</clipPath>
</defs>
</svg>
