<svg width="24" height="24" viewBox="0 0 24 24" fill="none" xmlns="http://www.w3.org/2000/svg">
<g clip-path="url(#clip0_3181_24740)">
<rect width="24" height="24" fill="white"/>
<path d="M14.7255 7.375H15.9005L9.27549 16.625H8.07549L14.7255 7.375ZM8.95049 11.3C8.38382 11.3 7.90882 11.1083 7.52549 10.725C7.14216 10.3417 6.95049 9.875 6.95049 9.325C6.95049 8.75833 7.14216 8.28333 7.52549 7.9C7.90882 7.51667 8.38382 7.325 8.95049 7.325C9.50049 7.325 9.96716 7.51667 10.3505 7.9C10.7338 8.28333 10.9255 8.75833 10.9255 9.325C10.9255 9.875 10.7338 10.3417 10.3505 10.725C9.96716 11.1083 9.50049 11.3 8.95049 11.3ZM8.95049 10.475C9.26716 10.475 9.53382 10.3667 9.75049 10.15C9.96716 9.91667 10.0755 9.64167 10.0755 9.325C10.0755 8.99167 9.96716 8.71667 9.75049 8.5C9.53382 8.28333 9.26716 8.175 8.95049 8.175C8.61716 8.175 8.34216 8.28333 8.12549 8.5C7.90882 8.71667 7.80049 8.99167 7.80049 9.325C7.80049 9.64167 7.90882 9.91667 8.12549 10.15C8.34216 10.3667 8.61716 10.475 8.95049 10.475ZM15.0505 16.675C14.5005 16.675 14.0338 16.4833 13.6505 16.1C13.2672 15.7167 13.0755 15.2417 13.0755 14.675C13.0755 14.125 13.2672 13.6583 13.6505 13.275C14.0338 12.8917 14.5005 12.7 15.0505 12.7C15.6172 12.7 16.0922 12.8917 16.4755 13.275C16.8588 13.6583 17.0505 14.125 17.0505 14.675C17.0505 15.2417 16.8588 15.7167 16.4755 16.1C16.0922 16.4833 15.6172 16.675 15.0505 16.675ZM15.0505 15.825C15.3838 15.825 15.6588 15.7167 15.8755 15.5C16.0922 15.2833 16.2005 15.0083 16.2005 14.675C16.2005 14.3583 16.0922 14.0917 15.8755 13.875C15.6588 13.6417 15.3838 13.525 15.0505 13.525C14.7338 13.525 14.4672 13.6417 14.2505 13.875C14.0338 14.0917 13.9255 14.3583 13.9255 14.675C13.9255 15.0083 14.0338 15.2833 14.2505 15.5C14.4672 15.7167 14.7338 15.825 15.0505 15.825ZM12.0005 22C10.1672 22 8.48382 21.5583 6.95049 20.675C5.41716 19.7917 4.20882 18.5833 3.32549 17.05C2.44216 15.5167 2.00049 13.8333 2.00049 12C2.00049 10.1667 2.44216 8.48333 3.32549 6.95C4.20882 5.41667 5.41716 4.20833 6.95049 3.325C8.48382 2.44167 10.1672 2 12.0005 2C13.8338 2 15.5172 2.44167 17.0505 3.325C18.5838 4.20833 19.7922 5.41667 20.6755 6.95C21.5588 8.48333 22.0005 10.1667 22.0005 12C22.0005 13.8333 21.5588 15.5167 20.6755 17.05C19.7922 18.5833 18.5838 19.7917 17.0505 20.675C15.5172 21.5583 13.8338 22 12.0005 22ZM12.0005 21.05C13.6672 21.05 15.1922 20.65 16.5755 19.85C17.9588 19.05 19.0422 17.9583 19.8255 16.575C20.6255 15.1917 21.0255 13.6667 21.0255 12C21.0255 10.3333 20.6255 8.80833 19.8255 7.425C19.0422 6.025 17.9588 4.925 16.5755 4.125C15.1922 3.325 13.6672 2.925 12.0005 2.925C10.3338 2.925 8.80882 3.325 7.42549 4.125C6.05882 4.925 4.97549 6.025 4.17549 7.425C3.37549 8.80833 2.97549 10.3333 2.97549 12C2.97549 13.6667 3.37549 15.1917 4.17549 16.575C4.97549 17.9583 6.05882 19.05 7.42549 19.85C8.80882 20.65 10.3338 21.05 12.0005 21.05Z" fill="black"/>
</g>
<defs>
<clipPath id="clip0_3181_24740">
<rect width="24" height="24" fill="white"/>
</clipPath>
</defs>
</svg>
