<svg width="24" height="24" viewBox="0 0 24 24" fill="none" xmlns="http://www.w3.org/2000/svg">
<g clip-path="url(#clip0_3181_24754)">
<rect width="24" height="24" fill="white"/>
<path d="M12 22C10.1667 22 8.48333 21.5583 6.95 20.675C5.41667 19.7917 4.20833 18.5833 3.325 17.05C2.44167 15.5167 2 13.8333 2 12C2 10.1667 2.44167 8.48333 3.325 6.95C4.20833 5.41667 5.41667 4.20833 6.95 3.325C8.48333 2.44167 10.1667 2 12 2C13.8333 2 15.5167 2.44167 17.05 3.325C18.5833 4.20833 19.7917 5.41667 20.675 6.95C21.5583 8.48333 22 10.1667 22 12C22 13.8333 21.5583 15.5167 20.675 17.05C19.7917 18.5833 18.5833 19.7917 17.05 20.675C15.5167 21.5583 13.8333 22 12 22ZM8.475 11.2C9.10833 11.2 9.64167 10.9833 10.075 10.55C10.5083 10.1167 10.725 9.59167 10.725 8.975C10.725 8.34167 10.5083 7.80833 10.075 7.375C9.64167 6.94167 9.10833 6.725 8.475 6.725C7.84167 6.725 7.30833 6.94167 6.875 7.375C6.44167 7.80833 6.225 8.34167 6.225 8.975C6.225 9.59167 6.44167 10.1167 6.875 10.55C7.30833 10.9833 7.84167 11.2 8.475 11.2ZM8.475 10.4C8.05833 10.4 7.70833 10.2667 7.425 10C7.15833 9.71667 7.025 9.375 7.025 8.975C7.025 8.55833 7.15833 8.21667 7.425 7.95C7.70833 7.66667 8.05833 7.525 8.475 7.525C8.89167 7.525 9.23333 7.66667 9.5 7.95C9.78333 8.21667 9.925 8.55833 9.925 8.975C9.925 9.375 9.78333 9.71667 9.5 10C9.23333 10.2667 8.89167 10.4 8.475 10.4ZM9.2 17.175L15.825 6.825H14.7L8.075 17.175H9.2ZM15.6 17.275C16.2333 17.275 16.7667 17.0583 17.2 16.625C17.65 16.1917 17.875 15.6583 17.875 15.025C17.875 14.4083 17.65 13.8833 17.2 13.45C16.7667 13.0167 16.2333 12.8 15.6 12.8C14.9667 12.8 14.4333 13.0167 14 13.45C13.5667 13.8833 13.35 14.4083 13.35 15.025C13.35 15.6583 13.5667 16.1917 14 16.625C14.4333 17.0583 14.9667 17.275 15.6 17.275ZM15.6 16.475C15.2 16.475 14.8583 16.3417 14.575 16.075C14.2917 15.7917 14.15 15.4417 14.15 15.025C14.15 14.625 14.2917 14.2917 14.575 14.025C14.8583 13.7417 15.2 13.6 15.6 13.6C16.0167 13.6 16.3583 13.7417 16.625 14.025C16.9083 14.2917 17.05 14.625 17.05 15.025C17.05 15.4417 16.9083 15.7917 16.625 16.075C16.3583 16.3417 16.0167 16.475 15.6 16.475Z" fill="black"/>
</g>
<defs>
<clipPath id="clip0_3181_24754">
<rect width="24" height="24" fill="white"/>
</clipPath>
</defs>
</svg>
