<svg width="24" height="24" viewBox="0 0 24 24" fill="none" xmlns="http://www.w3.org/2000/svg">
<g clip-path="url(#clip0_3181_24752)">
<rect width="24" height="24" fill="white"/>
<path d="M12 22C10.1667 22 8.48333 21.5583 6.95 20.675C5.41667 19.7917 4.20833 18.5833 3.325 17.05C2.44167 15.5167 2 13.8333 2 12C2 10.1667 2.44167 8.48333 3.325 6.95C4.20833 5.41667 5.41667 4.20833 6.95 3.325C8.48333 2.44167 10.1667 2 12 2C13.8333 2 15.5167 2.44167 17.05 3.325C18.5833 4.20833 19.7917 5.41667 20.675 6.95C21.5583 8.48333 22 10.1667 22 12C22 13.8333 21.5583 15.5167 20.675 17.05C19.7917 18.5833 18.5833 19.7917 17.05 20.675C15.5167 21.5583 13.8333 22 12 22ZM8.525 11.125C9.14167 11.125 9.65833 10.9167 10.075 10.5C10.5083 10.0667 10.725 9.54167 10.725 8.925C10.725 8.30833 10.5083 7.79167 10.075 7.375C9.65833 6.94167 9.14167 6.725 8.525 6.725C7.90833 6.725 7.38333 6.94167 6.95 7.375C6.53333 7.79167 6.325 8.30833 6.325 8.925C6.325 9.54167 6.53333 10.0667 6.95 10.5C7.38333 10.9167 7.90833 11.125 8.525 11.125ZM8.525 10.65C8.04167 10.65 7.63333 10.4833 7.3 10.15C6.96667 9.81667 6.8 9.40833 6.8 8.925C6.8 8.44167 6.96667 8.03333 7.3 7.7C7.63333 7.36667 8.04167 7.2 8.525 7.2C9.00833 7.2 9.41667 7.36667 9.75 7.7C10.0833 8.03333 10.25 8.44167 10.25 8.925C10.25 9.40833 10.0833 9.81667 9.75 10.15C9.41667 10.4833 9.00833 10.65 8.525 10.65ZM8.825 17.175L15.675 6.825H15.075L8.225 17.175H8.825ZM15.65 17.275C16.2667 17.275 16.7833 17.0667 17.2 16.65C17.6333 16.2167 17.85 15.6917 17.85 15.075C17.85 14.4583 17.6333 13.9417 17.2 13.525C16.7833 13.0917 16.2667 12.875 15.65 12.875C15.0333 12.875 14.5083 13.0917 14.075 13.525C13.6583 13.9417 13.45 14.4583 13.45 15.075C13.45 15.6917 13.6583 16.2167 14.075 16.65C14.5083 17.0667 15.0333 17.275 15.65 17.275ZM15.65 16.8C15.1667 16.8 14.7583 16.6333 14.425 16.3C14.0917 15.9667 13.925 15.5583 13.925 15.075C13.925 14.5917 14.0917 14.1833 14.425 13.85C14.7583 13.5167 15.1667 13.35 15.65 13.35C16.1333 13.35 16.5417 13.5167 16.875 13.85C17.2083 14.1833 17.375 14.5917 17.375 15.075C17.375 15.5583 17.2083 15.9667 16.875 16.3C16.5417 16.6333 16.1333 16.8 15.65 16.8Z" fill="black"/>
</g>
<defs>
<clipPath id="clip0_3181_24752">
<rect width="24" height="24" fill="white"/>
</clipPath>
</defs>
</svg>
