<svg width="24" height="24" viewBox="0 0 24 24" fill="none" xmlns="http://www.w3.org/2000/svg">
<g clip-path="url(#clip0_3257_21159)">
<rect width="24" height="24" fill="white"/>
<path d="M17.2856 14.675C17.2856 13.5583 17.0856 12.6083 16.6856 11.825C16.3023 11.025 15.7106 10.4167 14.9106 10C14.1106 9.58333 13.1356 9.375 11.9856 9.375C10.819 9.375 9.83565 9.59167 9.03564 10.025C8.25231 10.4417 7.66898 11.0417 7.28564 11.825C6.90231 12.6083 6.71064 13.5583 6.71064 14.675V21H3.41064V14.675C3.41064 12.9583 3.74398 11.4833 4.41064 10.25C5.09398 9 6.07731 8.03333 7.36064 7.35C8.64398 6.66667 10.1856 6.325 11.9856 6.325C13.769 6.325 15.3023 6.66667 16.5856 7.35C17.8856 8.03333 18.8773 9 19.5606 10.25C20.244 11.5 20.5856 12.975 20.5856 14.675V21H17.2856V14.675ZM10.3606 3H13.6356V21H10.3606V3Z" fill="black"/>
</g>
<defs>
<clipPath id="clip0_3257_21159">
<rect width="24" height="24" fill="white"/>
</clipPath>
</defs>
</svg>
