<svg width="24" height="24" viewBox="0 0 24 24" fill="none" xmlns="http://www.w3.org/2000/svg">
<g clip-path="url(#clip0_3257_21157)">
<rect width="24" height="24" fill="white"/>
<path d="M17.7565 14.825C17.7565 13.5917 17.5399 12.5417 17.1065 11.675C16.6732 10.7917 16.0232 10.125 15.1565 9.675C14.3065 9.225 13.2482 9 11.9815 9C10.7315 9 9.67321 9.225 8.80654 9.675C7.95654 10.125 7.31488 10.7917 6.88154 11.675C6.44821 12.5417 6.23154 13.5917 6.23154 14.825V21H3.58154V14.825C3.58154 13.1083 3.91488 11.625 4.58154 10.375C5.24821 9.125 6.20654 8.175 7.45654 7.525C8.72321 6.85833 10.2315 6.525 11.9815 6.525C13.7482 6.525 15.2565 6.85833 16.5065 7.525C17.7732 8.175 18.7399 9.125 19.4065 10.375C20.0732 11.625 20.4065 13.1083 20.4065 14.825V21H17.7565V14.825ZM10.6815 3H13.3065V21H10.6815V3Z" fill="black"/>
</g>
<defs>
<clipPath id="clip0_3257_21157">
<rect width="24" height="24" fill="white"/>
</clipPath>
</defs>
</svg>
