<svg width="24" height="24" viewBox="0 0 24 24" fill="none" xmlns="http://www.w3.org/2000/svg">
<g clip-path="url(#clip0_3181_25428)">
<rect width="24" height="24" fill="white"/>
<path d="M3 9H11.25L11.375 9.25C9.60833 9.01667 8.18333 8.525 7.1 7.775C6.03333 7.025 5.5 6.075 5.5 4.925C5.5 4.39167 5.61667 3.93333 5.85 3.55C6.08333 3.15 6.4 2.84167 6.8 2.625C7.2 2.40833 7.65 2.3 8.15 2.3C8.8 2.3 9.425 2.5 10.025 2.9C10.625 3.28333 11.1333 4 11.55 5.05C11.9667 6.08333 12.175 7.5 12.175 9.3H11.825C11.825 7.5 12.0333 6.08333 12.45 5.05C12.8667 4 13.375 3.28333 13.975 2.9C14.575 2.5 15.2 2.3 15.85 2.3C16.35 2.3 16.8 2.40833 17.2 2.625C17.6 2.84167 17.9167 3.15 18.15 3.55C18.3833 3.93333 18.5 4.39167 18.5 4.925C18.5 6.05833 17.9583 7.00833 16.875 7.775C15.8083 8.525 14.3917 9.01667 12.625 9.25L12.75 9H21V21H12.25V9.5H11.75V21H3V9ZM11.75 9.3C11.75 7.63333 11.5583 6.31667 11.175 5.35C10.7917 4.38333 10.3333 3.71667 9.8 3.35C9.26667 2.96667 8.71667 2.775 8.15 2.775C7.53333 2.775 7.01667 2.975 6.6 3.375C6.2 3.75833 6 4.275 6 4.925C6 5.625 6.23333 6.25 6.7 6.8C7.18333 7.35 7.88333 7.80833 8.8 8.175C9.71667 8.54167 10.8333 8.825 12.15 9.025L11.75 9.3ZM11.85 9.025C13.1667 8.825 14.2833 8.54167 15.2 8.175C16.1167 7.80833 16.8083 7.35 17.275 6.8C17.7583 6.25 18 5.625 18 4.925C18 4.275 17.7917 3.75833 17.375 3.375C16.975 2.975 16.4667 2.775 15.85 2.775C15.2833 2.775 14.7333 2.96667 14.2 3.35C13.6667 3.71667 13.2083 4.38333 12.825 5.35C12.4417 6.31667 12.25 7.63333 12.25 9.3L11.85 9.025Z" fill="black"/>
</g>
<defs>
<clipPath id="clip0_3181_25428">
<rect width="24" height="24" fill="white"/>
</clipPath>
</defs>
</svg>
