<svg width="24" height="24" viewBox="0 0 24 24" fill="none" xmlns="http://www.w3.org/2000/svg">
<g clip-path="url(#clip0_3181_25440)">
<rect width="24" height="24" fill="white"/>
<path d="M3 9H8.175L7.825 10.1C6.675 9.48333 5.85 8.825 5.35 8.125C4.86667 7.40833 4.625 6.6 4.625 5.7C4.625 5.1 4.78333 4.54167 5.1 4.025C5.43333 3.49167 5.875 3.075 6.425 2.775C6.975 2.45833 7.58333 2.3 8.25 2.3C9.26667 2.3 10.125 2.51667 10.825 2.95C11.5417 3.36667 12.0917 4.1 12.475 5.15C12.875 6.2 13.075 7.625 13.075 9.425H10.925C10.925 7.625 11.1167 6.2 11.5 5.15C11.9 4.1 12.45 3.36667 13.15 2.95C13.8667 2.51667 14.7333 2.3 15.75 2.3C16.4 2.3 17 2.45833 17.55 2.775C18.1167 3.075 18.5583 3.49167 18.875 4.025C19.2083 4.54167 19.375 5.1 19.375 5.7C19.375 6.6 19.125 7.40833 18.625 8.125C18.1417 8.825 17.325 9.48333 16.175 10.1L15.825 9H21V21H13V11H11V21H3V9ZM10.5 9.225C10.5 8.19167 10.4167 7.39167 10.25 6.825C10.1 6.24167 9.89167 5.84167 9.625 5.625C9.35833 5.39167 9.04167 5.275 8.675 5.275C8.40833 5.275 8.2 5.34167 8.05 5.475C7.91667 5.60833 7.85 5.81667 7.85 6.1C7.85 6.43333 7.96667 6.76667 8.2 7.1C8.45 7.43333 8.83333 7.75 9.35 8.05C9.86667 8.33333 10.5333 8.55 11.35 8.7L10.5 9.225ZM12.65 8.7C13.4667 8.55 14.1333 8.33333 14.65 8.05C15.1667 7.75 15.5417 7.43333 15.775 7.1C16.025 6.76667 16.15 6.43333 16.15 6.1C16.15 5.81667 16.075 5.60833 15.925 5.475C15.7917 5.34167 15.5917 5.275 15.325 5.275C14.9583 5.275 14.6417 5.39167 14.375 5.625C14.1083 5.84167 13.8917 6.24167 13.725 6.825C13.575 7.39167 13.5 8.19167 13.5 9.225L12.65 8.7Z" fill="black"/>
</g>
<defs>
<clipPath id="clip0_3181_25440">
<rect width="24" height="24" fill="white"/>
</clipPath>
</defs>
</svg>
