<svg width="24" height="24" viewBox="0 0 24 24" fill="none" xmlns="http://www.w3.org/2000/svg">
<g clip-path="url(#clip0_3181_25426)">
<rect width="24" height="24" fill="white"/>
<path d="M3.00049 9H8.17549L7.90049 10.075C6.70049 9.45833 5.85049 8.8 5.35049 8.1C4.86716 7.38333 4.62549 6.575 4.62549 5.675C4.62549 5.075 4.79216 4.51667 5.12549 4C5.45882 3.48333 5.90049 3.075 6.45049 2.775C7.01716 2.45833 7.62549 2.3 8.27549 2.3C9.82549 2.3 11.0088 2.83333 11.8255 3.9C12.6422 4.95 13.0505 6.8 13.0505 9.45H10.9505C10.9505 6.8 11.3588 4.95 12.1755 3.9C12.9922 2.83333 14.1755 2.3 15.7255 2.3C16.3755 2.3 16.9755 2.45833 17.5255 2.775C18.0922 3.075 18.5422 3.48333 18.8755 4C19.2088 4.51667 19.3755 5.075 19.3755 5.675C19.3755 6.55833 19.1255 7.35833 18.6255 8.075C18.1422 8.79167 17.3005 9.45833 16.1005 10.075L15.8255 9H21.0005V21H3.00049V9ZM10.3755 17.65V12.35H6.40049V17.65H10.3755ZM17.6005 17.65V12.35H13.6255V17.65H17.6005ZM10.5505 9.25C10.5505 8.2 10.4672 7.38333 10.3005 6.8C10.1338 6.21667 9.90882 5.81667 9.62549 5.6C9.34216 5.38333 9.00882 5.275 8.62549 5.275C8.34216 5.275 8.12549 5.35 7.97549 5.5C7.82549 5.63333 7.75049 5.85 7.75049 6.15C7.75049 6.48333 7.87549 6.825 8.12549 7.175C8.39216 7.50833 8.79216 7.81667 9.32549 8.1C9.87549 8.36667 10.5672 8.575 11.4005 8.725L10.5505 9.25ZM12.6005 8.725C13.4338 8.575 14.1172 8.36667 14.6505 8.1C15.2005 7.81667 15.6005 7.50833 15.8505 7.175C16.1172 6.825 16.2505 6.48333 16.2505 6.15C16.2505 5.85 16.1755 5.63333 16.0255 5.5C15.8755 5.35 15.6588 5.275 15.3755 5.275C14.9922 5.275 14.6588 5.38333 14.3755 5.6C14.0922 5.81667 13.8672 6.21667 13.7005 6.8C13.5338 7.38333 13.4505 8.2 13.4505 9.25L12.6005 8.725Z" fill="black"/>
</g>
<defs>
<clipPath id="clip0_3181_25426">
<rect width="24" height="24" fill="white"/>
</clipPath>
</defs>
</svg>
