<svg width="24" height="24" viewBox="0 0 24 24" fill="none" xmlns="http://www.w3.org/2000/svg">
<g clip-path="url(#clip0_3181_25438)">
<rect width="24" height="24" fill="white"/>
<path d="M3 9H8.175L8.25 9.95C6.86667 9.36667 5.925 8.70833 5.425 7.975C4.925 7.24167 4.675 6.45 4.675 5.6C4.675 5 4.83333 4.45 5.15 3.95C5.46667 3.43333 5.89167 3.03333 6.425 2.75C6.95833 2.45 7.55 2.3 8.2 2.3C9.15 2.3 9.975 2.525 10.675 2.975C11.375 3.40833 11.925 4.15833 12.325 5.225C12.7417 6.29167 12.95 7.71667 12.95 9.5H11.05C11.05 7.71667 11.25 6.29167 11.65 5.225C12.0667 4.15833 12.625 3.40833 13.325 2.975C14.025 2.525 14.85 2.3 15.8 2.3C16.4333 2.3 17.0167 2.45 17.55 2.75C18.1 3.03333 18.5333 3.43333 18.85 3.95C19.1667 4.45 19.325 5 19.325 5.6C19.325 6.45 19.075 7.25 18.575 8C18.075 8.73333 17.1333 9.38333 15.75 9.95L15.825 9H21V21H13V11H11V21H3V9ZM10.75 9.375C10.75 8.24167 10.6417 7.34167 10.425 6.675C10.2083 6.00833 9.93333 5.54167 9.6 5.275C9.26667 5.00833 8.89167 4.875 8.475 4.875C8.14167 4.875 7.88333 4.96667 7.7 5.15C7.51667 5.31667 7.425 5.56667 7.425 5.9C7.425 6.26667 7.56667 6.64167 7.85 7.025C8.15 7.39167 8.60833 7.74167 9.225 8.075C9.85833 8.40833 10.6583 8.65 11.625 8.8L10.75 9.375ZM12.375 8.8C13.3417 8.65 14.1333 8.40833 14.75 8.075C15.3833 7.74167 15.8417 7.39167 16.125 7.025C16.425 6.64167 16.575 6.26667 16.575 5.9C16.575 5.56667 16.4833 5.31667 16.3 5.15C16.1167 4.96667 15.8583 4.875 15.525 4.875C15.1083 4.875 14.7333 5.00833 14.4 5.275C14.0667 5.54167 13.7917 6.00833 13.575 6.675C13.3583 7.34167 13.25 8.24167 13.25 9.375L12.375 8.8Z" fill="black"/>
</g>
<defs>
<clipPath id="clip0_3181_25438">
<rect width="24" height="24" fill="white"/>
</clipPath>
</defs>
</svg>
