<svg width="24" height="24" viewBox="0 0 24 24" fill="none" xmlns="http://www.w3.org/2000/svg">
<g clip-path="url(#clip0_3181_25476)">
<rect width="24" height="24" fill="white"/>
<path d="M4.00049 2H5.67549C6.00882 2 6.31716 2.04167 6.60049 2.125C6.88382 2.19167 7.20049 2.29167 7.55049 2.425C7.80049 2.525 8.02549 2.60833 8.22549 2.675C8.44216 2.725 8.65049 2.75 8.85049 2.75C9.03382 2.75 9.22549 2.725 9.42549 2.675C9.64216 2.60833 9.87549 2.525 10.1255 2.425C10.4755 2.29167 10.7922 2.19167 11.0755 2.125C11.3588 2.04167 11.6672 2 12.0005 2C12.3338 2 12.6422 2.04167 12.9255 2.125C13.2088 2.19167 13.5255 2.29167 13.8755 2.425C14.1255 2.525 14.3505 2.60833 14.5505 2.675C14.7672 2.725 14.9672 2.75 15.1505 2.75C15.3505 2.75 15.5505 2.725 15.7505 2.675C15.9672 2.60833 16.2005 2.525 16.4505 2.425C16.8005 2.29167 17.1172 2.19167 17.4005 2.125C17.6838 2.04167 17.9922 2 18.3255 2H20.0005V22H18.3255C17.9922 22 17.6838 21.9583 17.4005 21.875C17.1172 21.8083 16.8005 21.7083 16.4505 21.575C16.2005 21.475 15.9672 21.3917 15.7505 21.325C15.5505 21.275 15.3505 21.25 15.1505 21.25C14.9672 21.25 14.7672 21.275 14.5505 21.325C14.3505 21.3917 14.1255 21.475 13.8755 21.575C13.5255 21.7083 13.2088 21.8083 12.9255 21.875C12.6422 21.9583 12.3338 22 12.0005 22C11.6672 22 11.3588 21.9583 11.0755 21.875C10.7922 21.8083 10.4755 21.7083 10.1255 21.575C9.87549 21.475 9.64216 21.3917 9.42549 21.325C9.22549 21.275 9.03382 21.25 8.85049 21.25C8.65049 21.25 8.44216 21.275 8.22549 21.325C8.02549 21.3917 7.80049 21.475 7.55049 21.575C7.20049 21.7083 6.88382 21.8083 6.60049 21.875C6.31716 21.9583 6.00882 22 5.67549 22H4.00049V2ZM5.67549 19.2C5.85882 19.2 6.04216 19.175 6.22549 19.125C6.42549 19.075 6.63382 19 6.85049 18.9C7.20049 18.75 7.51716 18.6417 7.80049 18.575C8.10049 18.4917 8.45049 18.45 8.85049 18.45C9.16716 18.45 9.46716 18.4917 9.75049 18.575C10.0505 18.6417 10.3755 18.7417 10.7255 18.875C10.9588 18.975 11.1838 19.0583 11.4005 19.125C11.6172 19.175 11.8172 19.2 12.0005 19.2C12.1338 19.2 12.2922 19.175 12.4755 19.125C12.6588 19.0583 12.8505 18.9917 13.0505 18.925C13.4338 18.775 13.7838 18.6583 14.1005 18.575C14.4172 18.4917 14.7672 18.45 15.1505 18.45C15.5505 18.45 15.8922 18.4917 16.1755 18.575C16.4755 18.6417 16.8005 18.75 17.1505 18.9C17.3672 19 17.5672 19.075 17.7505 19.125C17.9505 19.175 18.1422 19.2 18.3255 19.2L17.1505 21.325V2.675L18.3255 4.8C18.1422 4.8 17.9505 4.825 17.7505 4.875C17.5672 4.925 17.3672 5 17.1505 5.1C16.8005 5.25 16.4755 5.36667 16.1755 5.45C15.8922 5.51667 15.5505 5.55 15.1505 5.55C14.8338 5.55 14.5255 5.51667 14.2255 5.45C13.9422 5.36667 13.6255 5.25833 13.2755 5.125C13.0422 5.025 12.8172 4.95 12.6005 4.9C12.3838 4.83333 12.1838 4.8 12.0005 4.8C11.8172 4.8 11.6172 4.83333 11.4005 4.9C11.1838 4.95 10.9588 5.025 10.7255 5.125C10.3755 5.25833 10.0505 5.36667 9.75049 5.45C9.46716 5.51667 9.16716 5.55 8.85049 5.55C8.45049 5.55 8.10049 5.51667 7.80049 5.45C7.51716 5.36667 7.20049 5.25 6.85049 5.1C6.63382 5 6.42549 4.925 6.22549 4.875C6.04216 4.825 5.85882 4.8 5.67549 4.8L6.85049 2.675V21.325L5.67549 19.2ZM11.6755 13.15H15.4255V15.975H11.6755V13.15ZM10.7255 3.675H15.6005H13.2755H8.40049H10.7255ZM8.57549 8.075H15.4255V10.875H8.57549V8.075Z" fill="black"/>
</g>
<defs>
<clipPath id="clip0_3181_25476">
<rect width="24" height="24" fill="white"/>
</clipPath>
</defs>
</svg>
