<svg width="24" height="24" viewBox="0 0 24 24" fill="none" xmlns="http://www.w3.org/2000/svg">
<g clip-path="url(#clip0_3181_25474)">
<rect width="24" height="24" fill="white"/>
<path d="M4.00049 2H5.60049C5.93382 2 6.23382 2.04167 6.50049 2.125C6.78382 2.19167 7.10049 2.29167 7.45049 2.425C7.71716 2.525 7.95049 2.60833 8.15049 2.675C8.36716 2.725 8.58382 2.75 8.80049 2.75C9.01716 2.75 9.22549 2.725 9.42549 2.675C9.64216 2.60833 9.88382 2.525 10.1505 2.425C10.5005 2.29167 10.8088 2.19167 11.0755 2.125C11.3588 2.04167 11.6672 2 12.0005 2C12.3338 2 12.6338 2.04167 12.9005 2.125C13.1838 2.19167 13.5005 2.29167 13.8505 2.425C14.1172 2.525 14.3505 2.60833 14.5505 2.675C14.7672 2.725 14.9838 2.75 15.2005 2.75C15.4172 2.75 15.6255 2.725 15.8255 2.675C16.0422 2.60833 16.2838 2.525 16.5505 2.425C16.9005 2.29167 17.2088 2.19167 17.4755 2.125C17.7588 2.04167 18.0672 2 18.4005 2H20.0005V22H18.4005C18.0672 22 17.7588 21.9583 17.4755 21.875C17.2088 21.8083 16.9005 21.7083 16.5505 21.575C16.2838 21.475 16.0422 21.3917 15.8255 21.325C15.6255 21.275 15.4172 21.25 15.2005 21.25C14.9838 21.25 14.7672 21.275 14.5505 21.325C14.3505 21.3917 14.1172 21.475 13.8505 21.575C13.5005 21.7083 13.1838 21.8083 12.9005 21.875C12.6338 21.9583 12.3338 22 12.0005 22C11.6672 22 11.3588 21.9583 11.0755 21.875C10.8088 21.8083 10.5005 21.7083 10.1505 21.575C9.88382 21.475 9.64216 21.3917 9.42549 21.325C9.22549 21.275 9.01716 21.25 8.80049 21.25C8.58382 21.25 8.36716 21.275 8.15049 21.325C7.95049 21.3917 7.71716 21.475 7.45049 21.575C7.10049 21.7083 6.78382 21.8083 6.50049 21.875C6.23382 21.9583 5.93382 22 5.60049 22H4.00049V2ZM5.60049 19.775C5.80049 19.775 6.00049 19.75 6.20049 19.7C6.40049 19.6333 6.61716 19.55 6.85049 19.45C7.16716 19.3167 7.46716 19.2167 7.75049 19.15C8.05049 19.0667 8.40049 19.025 8.80049 19.025C9.13382 19.025 9.43382 19.0583 9.70049 19.125C9.98382 19.1917 10.3005 19.2917 10.6505 19.425C10.9172 19.5417 11.1505 19.6333 11.3505 19.7C11.5672 19.75 11.7838 19.775 12.0005 19.775C12.1838 19.775 12.3672 19.75 12.5505 19.7C12.7505 19.6333 12.9672 19.5583 13.2005 19.475C13.5505 19.325 13.8755 19.2167 14.1755 19.15C14.4922 19.0667 14.8338 19.025 15.2005 19.025C15.6005 19.025 15.9422 19.0667 16.2255 19.15C16.5255 19.2167 16.8338 19.3167 17.1505 19.45C17.3838 19.55 17.6005 19.6333 17.8005 19.7C18.0005 19.75 18.2005 19.775 18.4005 19.775L17.7255 21.325V2.675L18.4005 4.225C18.2005 4.225 18.0005 4.25833 17.8005 4.325C17.6005 4.375 17.3838 4.45 17.1505 4.55C16.8338 4.68333 16.5255 4.79167 16.2255 4.875C15.9422 4.94167 15.6005 4.975 15.2005 4.975C14.8672 4.975 14.5588 4.94167 14.2755 4.875C14.0088 4.80833 13.7005 4.70833 13.3505 4.575C13.0838 4.45833 12.8422 4.375 12.6255 4.325C12.4255 4.25833 12.2172 4.225 12.0005 4.225C11.7838 4.225 11.5672 4.25833 11.3505 4.325C11.1505 4.375 10.9172 4.45833 10.6505 4.575C10.3005 4.70833 9.98382 4.80833 9.70049 4.875C9.43382 4.94167 9.13382 4.975 8.80049 4.975C8.40049 4.975 8.05049 4.94167 7.75049 4.875C7.46716 4.79167 7.16716 4.68333 6.85049 4.55C6.61716 4.45 6.40049 4.375 6.20049 4.325C6.00049 4.25833 5.80049 4.225 5.60049 4.225L6.27549 2.675V21.325L5.60049 19.775ZM12.0005 15.075H15.7755V17.175H12.0005V15.075ZM8.22549 11.025H15.7755V13.125H8.22549V11.025ZM8.22549 6.95H15.7755V9.05H8.22549V6.95Z" fill="black"/>
</g>
<defs>
<clipPath id="clip0_3181_25474">
<rect width="24" height="24" fill="white"/>
</clipPath>
</defs>
</svg>
