<svg width="24" height="24" viewBox="0 0 24 24" fill="none" xmlns="http://www.w3.org/2000/svg">
<g clip-path="url(#clip0_3181_25478)">
<rect width="24" height="24" fill="white"/>
<path d="M4.00049 2H5.85049C6.16716 2 6.46716 2.04167 6.75049 2.125C7.05049 2.19167 7.37549 2.29167 7.72549 2.425C7.92549 2.50833 8.13382 2.58333 8.35049 2.65C8.56716 2.71667 8.75882 2.75 8.92549 2.75C9.09216 2.75 9.28382 2.71667 9.50049 2.65C9.71716 2.58333 9.92549 2.50833 10.1255 2.425C10.4755 2.29167 10.7922 2.19167 11.0755 2.125C11.3755 2.04167 11.6838 2 12.0005 2C12.3172 2 12.6172 2.04167 12.9005 2.125C13.2005 2.19167 13.5255 2.29167 13.8755 2.425C14.0755 2.50833 14.2838 2.58333 14.5005 2.65C14.7172 2.71667 14.9088 2.75 15.0755 2.75C15.2422 2.75 15.4338 2.71667 15.6505 2.65C15.8672 2.58333 16.0755 2.50833 16.2755 2.425C16.6255 2.29167 16.9422 2.19167 17.2255 2.125C17.5255 2.04167 17.8338 2 18.1505 2H20.0005V22H18.1505C17.8338 22 17.5255 21.9583 17.2255 21.875C16.9422 21.8083 16.6255 21.7083 16.2755 21.575C16.0755 21.4917 15.8672 21.4167 15.6505 21.35C15.4338 21.2833 15.2422 21.25 15.0755 21.25C14.9088 21.25 14.7172 21.2833 14.5005 21.35C14.2838 21.4167 14.0755 21.4917 13.8755 21.575C13.5255 21.7083 13.2005 21.8083 12.9005 21.875C12.6172 21.9583 12.3172 22 12.0005 22C11.6838 22 11.3755 21.9583 11.0755 21.875C10.7922 21.8083 10.4755 21.7083 10.1255 21.575C9.92549 21.4917 9.71716 21.4167 9.50049 21.35C9.28382 21.2833 9.09216 21.25 8.92549 21.25C8.75882 21.25 8.56716 21.2833 8.35049 21.35C8.13382 21.4167 7.92549 21.4917 7.72549 21.575C7.37549 21.7083 7.05049 21.8083 6.75049 21.875C6.46716 21.9583 6.16716 22 5.85049 22H4.00049V2ZM5.85049 18.525C6.01716 18.525 6.18382 18.5 6.35049 18.45C6.51715 18.4 6.70882 18.325 6.92549 18.225C7.32549 18.075 7.65882 17.9667 7.92549 17.9C8.20882 17.8167 8.54216 17.775 8.92549 17.775C9.24216 17.775 9.54216 17.8167 9.82549 17.9C10.1255 17.9667 10.4505 18.0667 10.8005 18.2C11.0005 18.2833 11.2088 18.3583 11.4255 18.425C11.6422 18.4917 11.8338 18.525 12.0005 18.525C12.1172 18.525 12.2588 18.5 12.4255 18.45C12.5922 18.3833 12.7672 18.3167 12.9505 18.25C13.3838 18.1 13.7505 17.9833 14.0505 17.9C14.3505 17.8167 14.6922 17.775 15.0755 17.775C15.4588 17.775 15.7838 17.8167 16.0505 17.9C16.3338 17.9667 16.6755 18.075 17.0755 18.225C17.2922 18.325 17.4838 18.4 17.6505 18.45C17.8172 18.5 17.9838 18.525 18.1505 18.525L16.4755 21.325V2.675L18.1505 5.475C17.9838 5.475 17.8172 5.5 17.6505 5.55C17.4838 5.6 17.2922 5.675 17.0755 5.775C16.6755 5.925 16.3338 6.04167 16.0505 6.125C15.7838 6.19167 15.4588 6.225 15.0755 6.225C14.7588 6.225 14.4505 6.19167 14.1505 6.125C13.8672 6.04167 13.5505 5.93333 13.2005 5.8C13.0005 5.71667 12.7922 5.64167 12.5755 5.575C12.3588 5.50833 12.1672 5.475 12.0005 5.475C11.8338 5.475 11.6422 5.50833 11.4255 5.575C11.2088 5.64167 11.0005 5.71667 10.8005 5.8C10.4505 5.93333 10.1255 6.04167 9.82549 6.125C9.54216 6.19167 9.24216 6.225 8.92549 6.225C8.54216 6.225 8.20882 6.19167 7.92549 6.125C7.65882 6.04167 7.32549 5.925 6.92549 5.775C6.70882 5.675 6.51715 5.6 6.35049 5.55C6.18382 5.5 6.01716 5.475 5.85049 5.475L7.52549 2.675V21.325L5.85049 18.525ZM11.0005 12.6H15.0005V16.05H11.0005V12.6ZM15.5005 3.675H8.50049H15.5005ZM9.00049 7.95H15.0005V11.4H9.00049V7.95Z" fill="black"/>
</g>
<defs>
<clipPath id="clip0_3181_25478">
<rect width="24" height="24" fill="white"/>
</clipPath>
</defs>
</svg>
