<svg width="24" height="24" viewBox="0 0 24 24" fill="none" xmlns="http://www.w3.org/2000/svg">
<g clip-path="url(#clip0_3257_21315)">
<rect width="24" height="24" fill="white"/>
<path d="M6.49434 3L10.6693 7.65C11.0527 8.06667 11.4943 8.275 11.9943 8.275C12.511 8.275 12.961 8.06667 13.3443 7.65L17.4693 3H21.7693L15.8693 9.475C15.1527 10.275 14.3277 10.8167 13.3943 11.1C12.461 11.3667 11.5277 11.3667 10.5943 11.1C9.67767 10.8167 8.861 10.275 8.14434 9.475L2.24434 3H6.49434ZM8.14434 14.4C8.861 13.6 9.67767 13.0667 10.5943 12.8C11.5277 12.5167 12.4527 12.5167 13.3693 12.8C14.3027 13.0667 15.136 13.6 15.8693 14.4L21.8943 21H17.6443L13.3443 16.225C12.961 15.825 12.511 15.625 11.9943 15.625C11.4777 15.625 11.036 15.8333 10.6693 16.25L6.36934 21H2.09434L8.14434 14.4Z" fill="black"/>
</g>
<defs>
<clipPath id="clip0_3257_21315">
<rect width="24" height="24" fill="white"/>
</clipPath>
</defs>
</svg>
