<svg width="24" height="24" viewBox="0 0 24 24" fill="none" xmlns="http://www.w3.org/2000/svg">
<g clip-path="url(#clip0_3257_20991)">
<rect width="24" height="24" fill="white"/>
<path d="M5.07422 3L10.2242 9.275C10.8076 9.99167 11.3992 10.35 11.9992 10.35C12.5992 10.35 13.1909 9.99167 13.7742 9.275L18.9242 3H19.5742L14.1492 9.575C13.6992 10.125 13.2242 10.5 12.7242 10.7C12.2409 10.8833 11.7492 10.875 11.2492 10.675C10.7492 10.475 10.2659 10.0917 9.79922 9.525L4.42422 3H5.07422ZM9.79922 14.275C10.2659 13.7083 10.7492 13.3333 11.2492 13.15C11.7492 12.95 12.2409 12.9417 12.7242 13.125C13.2242 13.3083 13.6992 13.675 14.1492 14.225L19.6492 21H18.9992L13.7742 14.525C13.2076 13.8083 12.6159 13.45 11.9992 13.45C11.3992 13.45 10.8076 13.8083 10.2242 14.525L4.99922 21H4.34922L9.79922 14.275Z" fill="black"/>
</g>
<defs>
<clipPath id="clip0_3257_20991">
<rect width="24" height="24" fill="white"/>
</clipPath>
</defs>
</svg>
