<svg width="24" height="24" viewBox="0 0 24 24" fill="none" xmlns="http://www.w3.org/2000/svg">
<g clip-path="url(#clip0_3355_3182)">
<rect width="24" height="24" fill="white"/>
<path d="M12.9861 3H16.6611V14.375L15.0111 12.75H20.0861V16.1H12.9861V3ZM12.9861 17.775H20.0861V21H12.9861V17.775ZM3.91113 6.9H20.0861V10.25H3.91113V6.9ZM11.0111 3V17.5C11.0111 18.1833 10.8611 18.7917 10.5611 19.325C10.2611 19.8583 9.8278 20.275 9.26113 20.575C8.71113 20.8583 8.06947 21 7.33613 21H3.91113V17.65H7.03613C7.08613 17.65 7.13613 17.6417 7.18613 17.625C7.23613 17.5917 7.26947 17.5583 7.28613 17.525C7.31947 17.475 7.33613 17.425 7.33613 17.375V3H11.0111Z" fill="black"/>
</g>
<defs>
<clipPath id="clip0_3355_3182">
<rect width="24" height="24" fill="white"/>
</clipPath>
</defs>
</svg>
