<svg width="24" height="24" viewBox="0 0 24 24" fill="none" xmlns="http://www.w3.org/2000/svg">
<g clip-path="url(#clip0_3355_3172)">
<rect width="24" height="24" fill="white"/>
<path d="M13.6204 3H14.5954V16.95L14.0704 16.4H19.6204V17.325H13.6204V3ZM13.6204 20.125H19.6204V21H13.6204V20.125ZM4.37041 10.625H19.6204V11.5H4.37041V10.625ZM10.3704 3V17.975C10.3704 18.5417 10.2204 19.0583 9.92041 19.525C9.63708 19.975 9.25374 20.3333 8.77041 20.6C8.28708 20.8667 7.77874 21 7.24541 21H4.37041V20.075H7.24541C7.59541 20.075 7.93708 19.9833 8.27041 19.8C8.60374 19.6 8.87874 19.3417 9.09541 19.025C9.31208 18.6917 9.42041 18.3417 9.42041 17.975V3H10.3704Z" fill="black"/>
</g>
<defs>
<clipPath id="clip0_3355_3172">
<rect width="24" height="24" fill="white"/>
</clipPath>
</defs>
</svg>
