<svg width="24" height="24" viewBox="0 0 24 24" fill="none" xmlns="http://www.w3.org/2000/svg">
<g clip-path="url(#clip0_3355_3178)">
<rect width="24" height="24" fill="white"/>
<path d="M13.0663 3H15.5663V15.85L14.3413 14.575H19.7663V16.925H13.0663V3ZM13.0663 18.8H19.7663V21H13.0663V18.8ZM4.21631 8.85H19.7663V11.075H4.21631V8.85ZM10.9163 3V17.825C10.9163 18.4583 10.783 19.0167 10.5163 19.5C10.2496 19.9667 9.86631 20.3333 9.36631 20.6C8.88298 20.8667 8.30798 21 7.64131 21H4.21631V18.65H7.54131C7.70798 18.65 7.85798 18.6083 7.99131 18.525C8.12464 18.4417 8.22464 18.3417 8.29131 18.225C8.37464 18.0917 8.41631 17.9417 8.41631 17.775V3H10.9163Z" fill="black"/>
</g>
<defs>
<clipPath id="clip0_3355_3178">
<rect width="24" height="24" fill="white"/>
</clipPath>
</defs>
</svg>
