<svg width="24" height="24" viewBox="0 0 24 24" fill="none" xmlns="http://www.w3.org/2000/svg">
<g clip-path="url(#clip0_3321_9829)">
<rect width="24" height="24" fill="white"/>
<path d="M4.75391 12.025H13.8039C15.0372 12.025 15.9956 11.7083 16.6789 11.075C17.3789 10.4417 17.7289 9.55833 17.7289 8.425C17.7289 7.29167 17.3706 6.41667 16.6539 5.8C15.9539 5.18333 15.0039 4.875 13.8039 4.875H7.80391V3H13.8039C14.9539 3 15.9789 3.225 16.8789 3.675C17.7789 4.10833 18.4789 4.73333 18.9789 5.55C19.4956 6.36667 19.7539 7.325 19.7539 8.425C19.7539 10.125 19.2122 11.4667 18.1289 12.45C17.0456 13.4167 15.6039 13.9 13.8039 13.9H4.75391V12.025ZM6.75391 3H8.75391V21H6.75391V3ZM4.75391 16.15H14.7539V17.875H4.75391V16.15Z" fill="black"/>
</g>
<defs>
<clipPath id="clip0_3321_9829">
<rect width="24" height="24" fill="white"/>
</clipPath>
</defs>
</svg>
