<svg width="24" height="24" viewBox="0 0 24 24" fill="none" xmlns="http://www.w3.org/2000/svg">
<g clip-path="url(#clip0_3390_10431)">
<rect width="24" height="24" fill="white"/>
<path d="M3.99346 11.35H13.0435C14.0768 11.35 14.8518 11.125 15.3685 10.675C15.8851 10.225 16.1435 9.56667 16.1435 8.7C16.1435 7.85 15.8851 7.2 15.3685 6.75C14.8518 6.28333 14.0768 6.05 13.0435 6.05H7.69346V3H13.1435C14.4601 3 15.5935 3.21667 16.5435 3.65C17.4935 4.08333 18.2185 4.71667 18.7185 5.55C19.2351 6.38333 19.4935 7.39167 19.4935 8.575C19.4935 10.3583 18.9351 11.7333 17.8185 12.7C16.7185 13.65 15.1601 14.125 13.1435 14.125H3.99346V11.35ZM5.99346 3H9.34346V21H5.99346V3ZM3.99346 15.975H14.4935V18.3H3.99346V15.975Z" fill="black"/>
</g>
<defs>
<clipPath id="clip0_3390_10431">
<rect width="24" height="24" fill="white"/>
</clipPath>
</defs>
</svg>
