<svg width="24" height="24" viewBox="0 0 24 24" fill="none" xmlns="http://www.w3.org/2000/svg">
<g clip-path="url(#clip0_3257_21215)">
<rect width="24" height="24" fill="white"/>
<path d="M5.50439 13.75V12.175H10.5044C11.8711 12.175 12.9211 11.8667 13.6544 11.25C14.4044 10.6167 14.7794 9.70833 14.7794 8.525C14.7794 7.30833 14.4044 6.38333 13.6544 5.75C12.9044 5.11667 11.8294 4.8 10.4294 4.8H5.50439V3H18.7544V4.775H14.4294L14.3044 4.325C14.9211 4.64167 15.4127 5.00833 15.7794 5.425C16.1461 5.825 16.4044 6.28333 16.5544 6.8C16.7211 7.3 16.8044 7.86667 16.8044 8.5C16.8044 9.66667 16.5544 10.6583 16.0544 11.475C15.5711 12.2917 14.8544 12.9167 13.9044 13.35C12.9711 13.7833 11.8377 14 10.5044 14H7.32939L7.70439 13.175L16.8044 21H13.7794L5.50439 13.75ZM5.50439 7.675H18.7544V9.4H5.50439V7.675Z" fill="black"/>
</g>
<defs>
<clipPath id="clip0_3257_21215">
<rect width="24" height="24" fill="white"/>
</clipPath>
</defs>
</svg>
