<svg width="24" height="24" viewBox="0 0 24 24" fill="none" xmlns="http://www.w3.org/2000/svg">
<g clip-path="url(#clip0_3177_15987)">
<rect width="24" height="24" fill="white"/>
<path d="M3 3H21V16H3V3ZM21 20.525V21H3V20.525H21ZM21 18.025V18.5H3V18.025H21ZM10.3 11.175C10.7667 11.625 11.3333 11.85 12 11.85C12.6667 11.85 13.225 11.625 13.675 11.175C14.1417 10.7083 14.375 10.15 14.375 9.5C14.375 8.85 14.1417 8.3 13.675 7.85C13.225 7.38333 12.6667 7.15 12 7.15C11.3333 7.15 10.7667 7.38333 10.3 7.85C9.85 8.3 9.625 8.85 9.625 9.5C9.625 10.15 9.85 10.7083 10.3 11.175Z" fill="black"/>
</g>
<defs>
<clipPath id="clip0_3177_15987">
<rect width="24" height="24" fill="white"/>
</clipPath>
</defs>
</svg>
