<svg width="24" height="24" viewBox="0 0 24 24" fill="none" xmlns="http://www.w3.org/2000/svg">
<g clip-path="url(#clip0_3177_15983)">
<rect width="24" height="24" fill="white"/>
<path d="M5.72549 5.625V13.525H18.2755V5.625H5.72549ZM21.0005 16.175H3.00049V3H21.0005V16.175ZM3.00049 21V18.25H21.0005V21H3.00049ZM11.8755 19.325H12.1255H11.8755ZM12.0255 11.575C11.4755 11.575 11.0005 11.3833 10.6005 11C10.2172 10.6167 10.0255 10.15 10.0255 9.6C10.0255 9.03333 10.2172 8.56667 10.6005 8.2C11.0005 7.81667 11.4755 7.625 12.0255 7.625C12.5755 7.625 13.0338 7.81667 13.4005 8.2C13.7838 8.56667 13.9755 9.03333 13.9755 9.6C13.9755 10.15 13.7838 10.6167 13.4005 11C13.0338 11.3833 12.5755 11.575 12.0255 11.575ZM12.0005 9.6C11.8005 9.6 11.6588 9.6 11.5755 9.6C11.4922 9.6 11.3672 9.6 11.2005 9.6C11.3838 9.6 11.5172 9.6 11.6005 9.6C11.6838 9.6 11.8172 9.6 12.0005 9.6C12.2005 9.6 12.3422 9.6 12.4255 9.6C12.5088 9.6 12.6422 9.6 12.8255 9.6C12.6255 9.6 12.4838 9.6 12.4005 9.6C12.3172 9.6 12.1838 9.6 12.0005 9.6Z" fill="black"/>
</g>
<defs>
<clipPath id="clip0_3177_15983">
<rect width="24" height="24" fill="white"/>
</clipPath>
</defs>
</svg>
