<svg width="24" height="24" viewBox="0 0 24 24" fill="none" xmlns="http://www.w3.org/2000/svg">
<g clip-path="url(#clip0_3181_25310)">
<rect width="24" height="24" fill="white"/>
<path d="M3 3H21V15.55H3V3ZM21 17.55V21H3V17.55H21ZM12.125 19.325H11.875H12.125ZM10.3 10.925C10.7667 11.375 11.3333 11.6 12 11.6C12.6667 11.6 13.225 11.375 13.675 10.925C14.1417 10.4583 14.375 9.9 14.375 9.25C14.375 8.6 14.1417 8.05 13.675 7.6C13.225 7.13333 12.6667 6.9 12 6.9C11.3333 6.9 10.7667 7.13333 10.3 7.6C9.85 8.05 9.625 8.6 9.625 9.25C9.625 9.9 9.85 10.4583 10.3 10.925Z" fill="black"/>
</g>
<defs>
<clipPath id="clip0_3181_25310">
<rect width="24" height="24" fill="white"/>
</clipPath>
</defs>
</svg>
