<svg width="24" height="24" viewBox="0 0 24 24" fill="none" xmlns="http://www.w3.org/2000/svg">
<g clip-path="url(#clip0_3177_15997)">
<rect width="24" height="24" fill="white"/>
<path d="M3 3H21V15.875H3V3ZM21 18.225V21H3V18.225H21ZM12.125 19.325H11.875H12.125ZM10.3 11.1C10.7667 11.55 11.3333 11.775 12 11.775C12.6667 11.775 13.225 11.55 13.675 11.1C14.1417 10.6333 14.375 10.075 14.375 9.425C14.375 8.775 14.1417 8.225 13.675 7.775C13.225 7.30833 12.6667 7.075 12 7.075C11.3333 7.075 10.7667 7.30833 10.3 7.775C9.85 8.225 9.625 8.775 9.625 9.425C9.625 10.075 9.85 10.6333 10.3 11.1Z" fill="black"/>
</g>
<defs>
<clipPath id="clip0_3177_15997">
<rect width="24" height="24" fill="white"/>
</clipPath>
</defs>
</svg>
