<svg width="24" height="24" viewBox="0 0 24 24" fill="none" xmlns="http://www.w3.org/2000/svg">
<g clip-path="url(#clip0_3181_25292)">
<rect width="24" height="24" fill="white"/>
<path d="M5.17549 5.1V10.975H18.8255V5.1H5.17549ZM21.0005 13.075H3.00049V3H21.0005V13.075ZM3.00049 21V18.775H21.0005V21H3.00049ZM3.00049 17.025V14.825H21.0005V17.025H3.00049ZM12.0005 9.725C11.5338 9.725 11.1338 9.55833 10.8005 9.225C10.4672 8.89167 10.3005 8.48333 10.3005 8C10.3005 7.53333 10.4672 7.13333 10.8005 6.8C11.1338 6.46667 11.5338 6.3 12.0005 6.3C12.4838 6.3 12.8838 6.46667 13.2005 6.8C13.5338 7.13333 13.7005 7.53333 13.7005 8C13.7005 8.48333 13.5338 8.89167 13.2005 9.225C12.8838 9.55833 12.4838 9.725 12.0005 9.725ZM12.0005 8.025C11.8172 8.025 11.6838 8.025 11.6005 8.025C11.5338 8.025 11.4255 8.025 11.2755 8.025C11.4422 8.025 11.5588 8.025 11.6255 8.025C11.7088 8.025 11.8338 8.025 12.0005 8.025C12.1838 8.025 12.3088 8.025 12.3755 8.025C12.4588 8.025 12.5755 8.025 12.7255 8.025C12.5588 8.025 12.4338 8.025 12.3505 8.025C12.2838 8.025 12.1672 8.025 12.0005 8.025Z" fill="black"/>
</g>
<defs>
<clipPath id="clip0_3181_25292">
<rect width="24" height="24" fill="white"/>
</clipPath>
</defs>
</svg>
