<svg width="24" height="24" viewBox="0 0 24 24" fill="none" xmlns="http://www.w3.org/2000/svg">
<g clip-path="url(#clip0_3390_10193)">
<rect width="24" height="24" fill="white"/>
<path d="M5.24854 19.2L6.62354 19.125H18.2485V21H5.24854V19.2ZM5.24854 11.5H14.7485V13.225H5.24854V11.5ZM16.2735 7.775C16.1069 6.80833 15.6319 6.03333 14.8485 5.45C14.0819 4.86667 13.0985 4.575 11.8985 4.575C11.0819 4.575 10.3819 4.71667 9.79854 5C9.2152 5.28333 8.77354 5.68333 8.47354 6.2C8.17354 6.7 8.02354 7.28333 8.02354 7.95C8.02354 8.36667 8.07354 8.825 8.17354 9.325C8.2902 9.80833 8.44854 10.425 8.64854 11.175C8.8652 11.9583 9.03187 12.6417 9.14854 13.225C9.28187 13.7917 9.34854 14.325 9.34854 14.825C9.34854 15.525 9.2152 16.225 8.94854 16.925C8.69854 17.6083 8.34854 18.2417 7.89854 18.825C7.4652 19.3917 6.9652 19.8667 6.39854 20.25L5.24854 19.2C5.9652 18.5333 6.4902 17.875 6.82354 17.225C7.15687 16.5583 7.32354 15.7833 7.32354 14.9C7.32354 14.3333 7.2652 13.8 7.14854 13.3C7.04854 12.8 6.88187 12.125 6.64854 11.275C6.43187 10.5417 6.2652 9.93333 6.14854 9.45C6.04854 8.95 5.99854 8.45 5.99854 7.95C5.99854 7 6.23187 6.125 6.69854 5.325C7.1652 4.525 7.84854 3.89167 8.74854 3.425C9.64854 2.94167 10.7069 2.7 11.9235 2.7C13.0902 2.7 14.1235 2.91667 15.0235 3.35C15.9402 3.76667 16.6735 4.34167 17.2235 5.075C17.7735 5.80833 18.1319 6.63333 18.2985 7.55L16.2735 7.775Z" fill="black"/>
</g>
<defs>
<clipPath id="clip0_3390_10193">
<rect width="24" height="24" fill="white"/>
</clipPath>
</defs>
</svg>
