<svg width="24" height="24" viewBox="0 0 24 24" fill="none" xmlns="http://www.w3.org/2000/svg">
<g clip-path="url(#clip0_3257_21135)">
<rect width="24" height="24" fill="white"/>
<path d="M10.5064 5.875H4.40645V3H19.5814V5.875H13.4814V13.45H10.5064V5.875ZM12.0064 14.875C13.1398 14.875 14.1481 14.8 15.0314 14.65C15.9148 14.4833 16.5981 14.2583 17.0814 13.975C17.5814 13.6917 17.8314 13.3667 17.8314 13C17.8314 12.65 17.5814 12.3417 17.0814 12.075C16.5981 11.8083 15.9148 11.6 15.0314 11.45C14.1481 11.3 13.1398 11.225 12.0064 11.225C10.8731 11.225 9.86478 11.3 8.98145 11.45C8.09811 11.6 7.40645 11.8083 6.90645 12.075C6.40645 12.3417 6.15645 12.65 6.15645 13C6.15645 13.3667 6.40645 13.6917 6.90645 13.975C7.40645 14.2583 8.08978 14.4833 8.95645 14.65C9.83978 14.8 10.8564 14.875 12.0064 14.875ZM12.0064 17.5C9.28978 17.5 7.18145 17.1083 5.68145 16.325C4.18145 15.525 3.43145 14.4167 3.43145 13C3.43145 11.6 4.18145 10.5167 5.68145 9.75C7.18145 8.96667 9.28978 8.575 12.0064 8.575C14.7064 8.575 16.8064 8.96667 18.3064 9.75C19.8064 10.5167 20.5564 11.6 20.5564 13C20.5564 14.4167 19.8064 15.525 18.3064 16.325C16.8064 17.1083 14.7064 17.5 12.0064 17.5ZM10.5064 16.075H13.4814V21H10.5064V16.075Z" fill="black"/>
</g>
<defs>
<clipPath id="clip0_3257_21135">
<rect width="24" height="24" fill="white"/>
</clipPath>
</defs>
</svg>
