<svg width="24" height="24" viewBox="0 0 24 24" fill="none" xmlns="http://www.w3.org/2000/svg">
<g clip-path="url(#clip0_3257_21131)">
<rect width="24" height="24" fill="white"/>
<path d="M11.0512 4.85H4.75117V3H19.2512V4.85H12.9512V12.9H11.0512V4.85ZM12.0012 14.6C13.2678 14.6 14.3928 14.5167 15.3762 14.35C16.3595 14.1833 17.1262 13.95 17.6762 13.65C18.2262 13.3333 18.5012 12.975 18.5012 12.575C18.5012 12.1917 18.2262 11.8583 17.6762 11.575C17.1262 11.275 16.3595 11.0417 15.3762 10.875C14.3928 10.7083 13.2678 10.625 12.0012 10.625C10.7345 10.625 9.60951 10.7083 8.62617 10.875C7.64284 11.0417 6.87617 11.275 6.32617 11.575C5.77617 11.8583 5.50117 12.1917 5.50117 12.575C5.50117 12.975 5.77617 13.3333 6.32617 13.65C6.87617 13.95 7.64284 14.1833 8.62617 14.35C9.60951 14.5167 10.7345 14.6 12.0012 14.6ZM12.0012 16.225C9.45117 16.225 7.45117 15.9083 6.00117 15.275C4.55117 14.6417 3.82617 13.7417 3.82617 12.575C3.82617 11.425 4.55117 10.5417 6.00117 9.925C7.45117 9.30833 9.45117 9 12.0012 9C14.5512 9 16.5512 9.30833 18.0012 9.925C19.4512 10.5417 20.1762 11.425 20.1762 12.575C20.1762 13.7417 19.4512 14.6417 18.0012 15.275C16.5512 15.9083 14.5512 16.225 12.0012 16.225ZM11.0512 15.825H12.9512V21H11.0512V15.825Z" fill="black"/>
</g>
<defs>
<clipPath id="clip0_3257_21131">
<rect width="24" height="24" fill="white"/>
</clipPath>
</defs>
</svg>
