<svg width="24" height="24" viewBox="0 0 24 24" fill="none" xmlns="http://www.w3.org/2000/svg">
<g clip-path="url(#clip0_3257_21185)">
<rect width="24" height="24" fill="white"/>
<path d="M12.5289 21.35C11.1622 21.35 10.0122 21.175 9.07891 20.825C8.14557 20.475 7.44557 19.975 6.97891 19.325C6.51224 18.675 6.27891 17.9 6.27891 17C6.27891 16.0167 6.52057 15.225 7.00391 14.625C7.50391 14.025 8.27057 13.45 9.30391 12.9L12.5789 14.25C11.6122 14.5833 10.9539 14.9 10.6039 15.2C10.2539 15.5 10.0789 15.8917 10.0789 16.375C10.0789 16.9417 10.2872 17.3667 10.7039 17.65C11.1206 17.9333 11.7956 18.075 12.7289 18.075C13.5789 18.075 14.3039 17.925 14.9039 17.625C15.5039 17.325 15.9789 16.925 16.3289 16.425L18.9039 18.55C18.1539 19.4667 17.2539 20.1667 16.2039 20.65C15.1539 21.1167 13.9289 21.35 12.5289 21.35ZM4.75391 12.6H20.2539V15.1H4.75391V12.6ZM4.75391 8.85H20.1289L20.1789 11.35H4.75391V8.85ZM12.3539 9.75C13.2539 9.41667 13.8622 9.1 14.1789 8.8C14.5122 8.5 14.6789 8.10833 14.6789 7.625C14.6789 7.075 14.4789 6.65833 14.0789 6.375C13.6789 6.075 13.0539 5.925 12.2039 5.925C11.4539 5.925 10.7872 6.075 10.2039 6.375C9.62057 6.675 9.16224 7.075 8.82891 7.575L6.25391 5.45C7.00391 4.53333 7.88724 3.84167 8.90391 3.375C9.93724 2.89167 11.1039 2.65 12.4039 2.65C13.7206 2.65 14.8289 2.825 15.7289 3.175C16.6289 3.525 17.3122 4.025 17.7789 4.675C18.2456 5.325 18.4789 6.1 18.4789 7C18.4789 7.98333 18.2289 8.775 17.7289 9.375C17.2289 9.975 16.4456 10.55 15.3789 11.1L12.3539 9.75Z" fill="black"/>
</g>
<defs>
<clipPath id="clip0_3257_21185">
<rect width="24" height="24" fill="white"/>
</clipPath>
</defs>
</svg>
