<svg width="24" height="24" viewBox="0 0 24 24" fill="none" xmlns="http://www.w3.org/2000/svg">
<g clip-path="url(#clip0_3257_20989)">
<rect width="24" height="24" fill="white"/>
<path d="M11.7016 16.625H12.1766V18.45H11.7016V16.625ZM11.7016 5.45H12.1766V7.175H11.7016V5.45ZM14.7266 21.15C16.0432 20.7667 17.2182 20.1333 18.2516 19.25C19.2849 18.35 20.0849 17.275 20.6516 16.025C21.2349 14.775 21.5266 13.4333 21.5266 12C21.5266 10.5667 21.2349 9.225 20.6516 7.975C20.0849 6.725 19.2849 5.65833 18.2516 4.775C17.2182 3.875 16.0432 3.23333 14.7266 2.85L14.8766 2.4C16.2599 2.8 17.4932 3.46667 18.5766 4.4C19.6599 5.33333 20.5016 6.45833 21.1016 7.775C21.7182 9.09167 22.0266 10.5 22.0266 12C22.0266 13.5167 21.7182 14.9333 21.1016 16.25C20.5016 17.55 19.6599 18.6667 18.5766 19.6C17.4932 20.5333 16.2516 21.2 14.8516 21.6L14.7266 21.15ZM9.15156 21.6C7.75156 21.2 6.5099 20.5333 5.42656 19.6C4.34323 18.6667 3.49323 17.55 2.87656 16.25C2.27656 14.9333 1.97656 13.5167 1.97656 12C1.97656 10.5 2.27656 9.09167 2.87656 7.775C3.49323 6.45833 4.34323 5.33333 5.42656 4.4C6.5099 3.46667 7.74323 2.8 9.12656 2.4L9.27656 2.85C7.9599 3.23333 6.7849 3.875 5.75156 4.775C4.71823 5.65833 3.9099 6.725 3.32656 7.975C2.7599 9.225 2.47656 10.5667 2.47656 12C2.47656 13.4333 2.7599 14.775 3.32656 16.025C3.9099 17.275 4.71823 18.35 5.75156 19.25C6.7849 20.1333 7.9599 20.7667 9.27656 21.15L9.15156 21.6ZM11.9266 16.975C11.0932 16.975 10.3599 16.7917 9.72656 16.425C9.09323 16.0583 8.6599 15.5083 8.42656 14.775L8.87656 14.625C9.07656 15.2417 9.44323 15.7083 9.97656 16.025C10.5266 16.3417 11.1766 16.5 11.9266 16.5C12.8266 16.5 13.5432 16.3083 14.0766 15.925C14.6266 15.525 14.9016 14.9833 14.9016 14.3C14.9016 13.7167 14.6932 13.2583 14.2766 12.925C13.8766 12.575 13.3016 12.3583 12.5516 12.275L11.3516 12.125C10.4682 12.0083 9.80156 11.7333 9.35156 11.3C8.90156 10.8667 8.67656 10.2917 8.67656 9.575C8.67656 8.99167 8.81823 8.50833 9.10156 8.125C9.40156 7.725 9.79323 7.43333 10.2766 7.25C10.7766 7.06667 11.3266 6.975 11.9266 6.975C12.7766 6.975 13.5099 7.16667 14.1266 7.55C14.7599 7.93333 15.1849 8.46667 15.4016 9.15L14.9516 9.3C14.7349 8.7 14.3599 8.24167 13.8266 7.925C13.3099 7.60833 12.6766 7.45 11.9266 7.45C11.1099 7.45 10.4432 7.625 9.92656 7.975C9.42656 8.325 9.17656 8.85 9.17656 9.55C9.17656 10.1333 9.3599 10.6083 9.72656 10.975C10.1099 11.325 10.6849 11.55 11.4516 11.65L12.6516 11.8C13.5016 11.9 14.1682 12.1667 14.6516 12.6C15.1516 13.0167 15.4016 13.5833 15.4016 14.3C15.4016 15.1333 15.0766 15.7917 14.4266 16.275C13.7766 16.7417 12.9432 16.975 11.9266 16.975Z" fill="black"/>
</g>
<defs>
<clipPath id="clip0_3257_20989">
<rect width="24" height="24" fill="white"/>
</clipPath>
</defs>
</svg>
