<svg width="24" height="24" viewBox="0 0 24 24" fill="none" xmlns="http://www.w3.org/2000/svg">
<g clip-path="url(#clip0_3181_25344)">
<rect width="24" height="24" fill="white"/>
<path d="M6.42549 21C5.79216 21 5.20882 20.85 4.67549 20.55C4.15882 20.25 3.75049 19.8417 3.45049 19.325C3.15049 18.7917 3.00049 18.2083 3.00049 17.575V6.425C3.00049 5.79167 3.15049 5.21667 3.45049 4.7C3.75049 4.16667 4.15882 3.75 4.67549 3.45C5.20882 3.15 5.79216 3 6.42549 3H21.0005V21H6.42549ZM18.6005 18.6V5.4H6.42549C6.14216 5.4 5.90882 5.5 5.72549 5.7C5.54216 5.88333 5.45049 6.125 5.45049 6.425V17.575C5.45049 17.875 5.54216 18.125 5.72549 18.325C5.90882 18.5083 6.13382 18.6 6.40049 18.6H18.6005ZM6.42549 9.825C5.79216 9.825 5.20882 9.675 4.67549 9.375C4.15882 9.075 3.75049 8.66667 3.45049 8.15C3.15049 7.61667 3.00049 7.04167 3.00049 6.425H5.45049C5.45049 6.70833 5.54216 6.95 5.72549 7.15C5.90882 7.35 6.14216 7.45 6.42549 7.45H19.8755V9.825H6.42549ZM15.3505 15.875C14.8838 15.875 14.4838 15.7167 14.1505 15.4C13.8338 15.0667 13.6755 14.675 13.6755 14.225C13.6755 13.7583 13.8338 13.3667 14.1505 13.05C14.4838 12.7167 14.8838 12.55 15.3505 12.55C15.8172 12.55 16.2088 12.7167 16.5255 13.05C16.8422 13.3667 17.0005 13.7583 17.0005 14.225C17.0005 14.675 16.8422 15.0667 16.5255 15.4C16.2088 15.7167 15.8172 15.875 15.3505 15.875Z" fill="black"/>
</g>
<defs>
<clipPath id="clip0_3181_25344">
<rect width="24" height="24" fill="white"/>
</clipPath>
</defs>
</svg>
