<svg width="24" height="24" viewBox="0 0 24 24" fill="none" xmlns="http://www.w3.org/2000/svg">
<g clip-path="url(#clip0_3181_25348)">
<rect width="24" height="24" fill="white"/>
<path d="M7.25049 21C6.46716 21 5.75049 20.8167 5.10049 20.45C4.45049 20.0667 3.93382 19.55 3.55049 18.9C3.18382 18.25 3.00049 17.5333 3.00049 16.75V7.25C3.00049 6.46667 3.18382 5.75 3.55049 5.1C3.93382 4.45 4.45049 3.94167 5.10049 3.575C5.75049 3.19167 6.46716 3 7.25049 3H21.0005V21H7.25049ZM17.4755 17.525V6.475H7.25049C7.05049 6.475 6.87549 6.55 6.72549 6.7C6.59216 6.85 6.52549 7.03333 6.52549 7.25V16.75C6.52549 16.9667 6.59216 17.15 6.72549 17.3C6.85882 17.45 7.01716 17.525 7.20049 17.525H17.4755ZM7.25049 11.5C6.46716 11.5 5.75049 11.3167 5.10049 10.95C4.45049 10.5667 3.93382 10.05 3.55049 9.4C3.18382 8.75 3.00049 8.03333 3.00049 7.25H6.52549C6.52549 7.46667 6.59216 7.65 6.72549 7.8C6.87549 7.95 7.05049 8.025 7.25049 8.025H19.2505V11.5H7.25049ZM14.4755 16.75C13.8588 16.75 13.3255 16.5333 12.8755 16.1C12.4422 15.65 12.2255 15.1167 12.2255 14.5C12.2255 13.8667 12.4422 13.3333 12.8755 12.9C13.3255 12.4667 13.8588 12.25 14.4755 12.25C15.1088 12.25 15.6422 12.4667 16.0755 12.9C16.5088 13.3333 16.7255 13.8667 16.7255 14.5C16.7255 15.1167 16.5088 15.65 16.0755 16.1C15.6422 16.5333 15.1088 16.75 14.4755 16.75Z" fill="black"/>
</g>
<defs>
<clipPath id="clip0_3181_25348">
<rect width="24" height="24" fill="white"/>
</clipPath>
</defs>
</svg>
