<svg width="24" height="24" viewBox="0 0 24 24" fill="none" xmlns="http://www.w3.org/2000/svg">
<g clip-path="url(#clip0_3181_25340)">
<rect width="24" height="24" fill="white"/>
<path d="M5.75049 21C5.25049 21 4.78382 20.8833 4.35049 20.65C3.93382 20.4 3.60049 20.0667 3.35049 19.65C3.11716 19.2167 3.00049 18.75 3.00049 18.25V5.75C3.00049 5.25 3.11716 4.79167 3.35049 4.375C3.60049 3.94167 3.93382 3.60833 4.35049 3.375C4.78382 3.125 5.25049 3 5.75049 3H21.0005V21H5.75049ZM19.6005 19.6V4.4H5.75049C5.38382 4.4 5.06716 4.53333 4.80049 4.8C4.55049 5.05 4.42549 5.36667 4.42549 5.75V18.25C4.42549 18.6333 4.55049 18.9583 4.80049 19.225C5.06716 19.475 5.38382 19.6 5.75049 19.6H19.6005ZM5.75049 8.5C5.25049 8.5 4.78382 8.38333 4.35049 8.15C3.93382 7.9 3.60049 7.56667 3.35049 7.15C3.11716 6.71667 3.00049 6.25 3.00049 5.75H4.42549C4.42549 6.13333 4.55049 6.45833 4.80049 6.725C5.06716 6.975 5.38382 7.1 5.75049 7.1H20.3755V8.5H5.75049ZM16.1505 15.15C15.8505 15.15 15.5922 15.0417 15.3755 14.825C15.1588 14.6083 15.0505 14.35 15.0505 14.05C15.0505 13.75 15.1588 13.5 15.3755 13.3C15.5922 13.0833 15.8505 12.975 16.1505 12.975C16.4505 12.975 16.7005 13.0833 16.9005 13.3C17.1172 13.5 17.2255 13.75 17.2255 14.05C17.2255 14.35 17.1172 14.6083 16.9005 14.825C16.7005 15.0417 16.4505 15.15 16.1505 15.15Z" fill="black"/>
</g>
<defs>
<clipPath id="clip0_3181_25340">
<rect width="24" height="24" fill="white"/>
</clipPath>
</defs>
</svg>
