<svg width="24" height="24" viewBox="0 0 24 24" fill="none" xmlns="http://www.w3.org/2000/svg">
<g clip-path="url(#clip0_3390_10173)">
<rect width="24" height="24" fill="white"/>
<path d="M-0.688184 3H3.43682L5.56182 13.8C5.76182 14.7833 6.00348 16.1667 6.28682 17.95C6.35348 18.35 6.41182 18.75 6.46182 19.15C6.52848 19.55 6.59515 19.95 6.66182 20.35H5.68682C5.83682 19.45 5.95348 18.7167 6.03682 18.15C6.33682 16.2167 6.59515 14.7667 6.81182 13.8L9.06182 3H13.9368L16.3368 13.75C16.5702 14.7833 16.8452 16.25 17.1618 18.15L17.5368 20.35H16.6368L16.9368 18.15C17.2035 16.2167 17.4285 14.7667 17.6118 13.8L19.6118 3H23.7118L19.9618 21H14.4118L12.1618 10.525C12.0118 9.84167 11.8535 9.06667 11.6868 8.2C11.5202 7.31667 11.3618 6.475 11.2118 5.675C11.1452 5.225 11.0285 4.55 10.8618 3.65H12.1368C11.9368 4.75 11.7952 5.575 11.7118 6.125C11.3785 8.09167 11.1035 9.56667 10.8868 10.55L8.78682 21H3.26182L-0.688184 3ZM-1.81318 10.425H24.8618V13.125H-1.81318V10.425Z" fill="black"/>
</g>
<defs>
<clipPath id="clip0_3390_10173">
<rect width="24" height="24" fill="white"/>
</clipPath>
</defs>
</svg>
