<svg width="24" height="24" viewBox="0 0 24 24" fill="none" xmlns="http://www.w3.org/2000/svg">
<g clip-path="url(#clip0_3390_10167)">
<rect width="24" height="24" fill="white"/>
<path d="M0.545313 3H2.59531L5.99531 17.225C6.14531 17.8917 6.29531 18.5583 6.44531 19.225C6.51198 19.4917 6.55365 19.6917 6.57031 19.825C6.60365 19.9417 6.65365 20.125 6.72031 20.375H6.09531C6.19531 20.0083 6.28698 19.65 6.37031 19.3C6.55365 18.5833 6.73698 17.875 6.92031 17.175L10.5703 3H13.2703L17.2203 16.975C17.337 17.3417 17.4953 17.9083 17.6953 18.675L18.1453 20.375H17.6203L17.8453 19.35C18.012 18.5667 18.1786 17.7833 18.3453 17L21.4453 3H23.4453L19.3453 21H16.3953L12.4953 7.3C12.3286 6.71667 12.2036 6.28333 12.1203 6C12.0536 5.7 11.937 5.26667 11.7703 4.7C11.6703 4.33333 11.5703 3.975 11.4703 3.625H12.3203C12.2036 4.05833 12.087 4.49167 11.9703 4.925C11.7703 5.70833 11.562 6.49167 11.3453 7.275L7.79531 21H4.92031L0.545313 3ZM-0.0046875 10.85H23.9953V12.5H-0.0046875V10.85Z" fill="black"/>
</g>
<defs>
<clipPath id="clip0_3390_10167">
<rect width="24" height="24" fill="white"/>
</clipPath>
</defs>
</svg>
