<svg width="24" height="24" viewBox="0 0 24 24" fill="none" xmlns="http://www.w3.org/2000/svg">
<g clip-path="url(#clip0_3257_21029)">
<rect width="24" height="24" fill="white"/>
<path d="M0.904004 3H1.929L5.929 18.45C6.04567 18.8833 6.16234 19.3167 6.279 19.75C6.329 19.95 6.36234 20.1 6.379 20.2C6.39567 20.2833 6.43734 20.4167 6.504 20.6H6.154C6.23734 20.3333 6.31234 20.075 6.379 19.825C6.51234 19.4083 6.654 18.9417 6.804 18.425L11.279 3H12.654L17.304 18.125C17.454 18.5083 17.5957 18.9667 17.729 19.5L18.079 20.675L17.754 20.65L17.929 19.95C18.0957 19.25 18.229 18.6417 18.329 18.125L22.104 2.975L23.104 3L18.629 21H17.179L12.479 5.825C12.379 5.45833 12.2957 5.18333 12.229 5C12.179 4.81667 12.104 4.55 12.004 4.2C11.9373 3.98333 11.8707 3.76667 11.804 3.55H12.104C12.0373 3.81667 11.9623 4.08333 11.879 4.35C11.6957 4.96667 11.554 5.45 11.454 5.8L7.029 21H5.604L0.904004 3ZM0.429004 11.225H23.579V12.075H0.429004V11.225Z" fill="black"/>
</g>
<defs>
<clipPath id="clip0_3257_21029">
<rect width="24" height="24" fill="white"/>
</clipPath>
</defs>
</svg>
