<svg width="24" height="24" viewBox="0 0 24 24" fill="none" xmlns="http://www.w3.org/2000/svg">
<g clip-path="url(#clip0_3390_10171)">
<rect width="24" height="24" fill="white"/>
<path d="M0.911941 3H4.09411L6.46331 14.95C6.63364 15.8167 6.8272 16.9583 7.04399 18.375C7.10593 18.725 7.16013 19.0583 7.20659 19.375C7.25304 19.675 7.30724 20 7.36918 20.35H6.57944C6.70332 19.6333 6.80398 19.025 6.8814 18.525C7.11368 17.0083 7.33047 15.8083 7.53177 14.925L10.0403 3H13.8961L16.6137 14.825C16.7995 15.6417 17.0163 16.8083 17.2641 18.325L17.6357 20.35H16.9157L17.1712 18.55C17.388 17 17.5815 15.775 17.7519 14.875L19.9585 3H23.1174L19.5171 21H15.1736L12.5721 9.45C12.4173 8.8 12.2779 8.13333 12.154 7.45C12.0302 6.76667 11.8985 6.06667 11.7592 5.35C11.6817 4.93333 11.5734 4.36667 11.434 3.65H12.5024C12.3321 4.51667 12.2082 5.20833 12.1308 5.725C11.8521 7.29167 11.6121 8.53333 11.4108 9.45L9.01833 21H4.69802L0.911941 3ZM0.0292969 10.575H24V12.925H0.0292969V10.575Z" fill="black"/>
</g>
<defs>
<clipPath id="clip0_3390_10171">
<rect width="24" height="24" fill="white"/>
</clipPath>
</defs>
</svg>
