<svg width="24" height="24" viewBox="0 0 24 24" fill="none" xmlns="http://www.w3.org/2000/svg">
<g clip-path="url(#clip0_3232_2777)">
<rect width="24" height="24" fill="white"/>
<path d="M3.875 17.275L5.375 18.775L6.7 20.1L7.6 21H3V16.4L3.875 17.275ZM20.125 6.725L18.625 5.225L17.3 3.9L16.4 3H21V7.6L20.125 6.725ZM3 3H7.6L6.7 3.9L5.375 5.225L3.875 6.725L3 7.6V3ZM21 21H16.4L17.3 20.1L18.625 18.775L20.125 17.275L21 16.4V21ZM12 18.75C10.7667 18.75 9.63333 18.4583 8.6 17.875C7.56667 17.275 6.75 16.4583 6.15 15.425C5.55 14.3917 5.25 13.2583 5.25 12.025C5.25 10.7917 5.55 9.65833 6.15 8.625C6.75 7.59167 7.56667 6.78333 8.6 6.2C9.63333 5.6 10.7667 5.3 12 5.3C13.2333 5.3 14.3667 5.6 15.4 6.2C16.4333 6.78333 17.25 7.59167 17.85 8.625C18.45 9.65833 18.75 10.7917 18.75 12.025C18.75 13.2583 18.45 14.3917 17.85 15.425C17.25 16.4583 16.4333 17.275 15.4 17.875C14.3667 18.4583 13.2333 18.75 12 18.75Z" fill="black"/>
</g>
<defs>
<clipPath id="clip0_3232_2777">
<rect width="24" height="24" fill="white"/>
</clipPath>
</defs>
</svg>
