<svg width="24" height="24" viewBox="0 0 24 24" fill="none" xmlns="http://www.w3.org/2000/svg">
<g clip-path="url(#clip0_3232_3565)">
<rect width="24" height="24" fill="white"/>
<path d="M16.0255 22.325L9.67549 15.975L10.3505 15.3L15.8755 20.95L15.5255 21.125V9.2C15.5255 8.15 15.2672 7.19167 14.7505 6.325C14.2505 5.44167 13.5588 4.74167 12.6755 4.225C11.7922 3.70833 10.8255 3.45 9.77549 3.45C8.70882 3.45 7.73382 3.70833 6.85049 4.225C5.96716 4.74167 5.26716 5.44167 4.75049 6.325C4.23382 7.20833 3.97549 8.18333 3.97549 9.25V12H3.00049V9.25C3.00049 8.01667 3.30049 6.88333 3.90049 5.85C4.50049 4.81667 5.31716 4 6.35049 3.4C7.38382 2.8 8.52549 2.5 9.77549 2.5C11.0088 2.5 12.1422 2.8 13.1755 3.4C14.2088 3.98333 15.0255 4.79167 15.6255 5.825C16.2255 6.84167 16.5255 7.96667 16.5255 9.2V21.125L16.1755 20.95L21.7005 15.3L22.3755 15.975L16.0255 22.325Z" fill="black"/>
</g>
<defs>
<clipPath id="clip0_3232_3565">
<rect width="24" height="24" fill="white"/>
</clipPath>
</defs>
</svg>
