<svg width="24" height="24" viewBox="0 0 24 24" fill="none" xmlns="http://www.w3.org/2000/svg">
<g clip-path="url(#clip0_3232_3825)">
<rect width="24" height="24" fill="white"/>
<path d="M2.30049 15.3L7.82549 20.95L7.47549 21.125V9.2C7.47549 7.96667 7.77549 6.84167 8.37549 5.825C8.97549 4.79167 9.79216 3.98333 10.8255 3.4C11.8588 2.8 12.9922 2.5 14.2255 2.5C15.4755 2.5 16.6172 2.8 17.6505 3.4C18.6838 4 19.5005 4.81667 20.1005 5.85C20.7005 6.88333 21.0005 8.01667 21.0005 9.25V12H20.0255V9.25C20.0255 8.18333 19.7672 7.20833 19.2505 6.325C18.7338 5.44167 18.0338 4.74167 17.1505 4.225C16.2672 3.70833 15.2922 3.45 14.2255 3.45C13.1755 3.45 12.2088 3.70833 11.3255 4.225C10.4422 4.74167 9.74216 5.44167 9.22549 6.325C8.72549 7.19167 8.47549 8.15 8.47549 9.2V21.125L8.12549 20.95L13.6505 15.3L14.3255 15.975L7.97549 22.325L1.62549 15.975L2.30049 15.3Z" fill="black"/>
</g>
<defs>
<clipPath id="clip0_3232_3825">
<rect width="24" height="24" fill="white"/>
</clipPath>
</defs>
</svg>
