<svg width="24" height="24" viewBox="0 0 24 24" fill="none" xmlns="http://www.w3.org/2000/svg">
<g clip-path="url(#clip0_3232_4553)">
<rect width="24" height="24" fill="white"/>
<path d="M22.3255 7.975L15.9755 14.325L15.3005 13.65L20.9505 8.125L21.1005 8.45H9.20049C8.15049 8.45 7.18382 8.70833 6.30049 9.225C5.43382 9.74167 4.74216 10.4417 4.22549 11.325C3.72549 12.2083 3.47549 13.175 3.47549 14.225C3.47549 15.2917 3.73382 16.275 4.25049 17.175C4.76716 18.0583 5.46716 18.7583 6.35049 19.275C7.23382 19.7917 8.20049 20.05 9.25049 20.05H12.0005V21H9.25049C8.01716 21 6.88382 20.7 5.85049 20.1C4.81716 19.5 4.00049 18.6833 3.40049 17.65C2.80049 16.6167 2.50049 15.475 2.50049 14.225C2.50049 12.9917 2.79216 11.8667 3.37549 10.85C3.97549 9.81667 4.78382 9 5.80049 8.4C6.83382 7.8 7.96716 7.5 9.20049 7.5H21.1005L20.9505 7.825L15.3005 2.3L15.9755 1.625L22.3255 7.975Z" fill="black"/>
</g>
<defs>
<clipPath id="clip0_3232_4553">
<rect width="24" height="24" fill="white"/>
</clipPath>
</defs>
</svg>
