<svg width="24" height="24" viewBox="0 0 24 24" fill="none" xmlns="http://www.w3.org/2000/svg">
<g clip-path="url(#clip0_3232_3263)">
<rect width="24" height="24" fill="white"/>
<path d="M7.97549 1.675L13.7255 7.425H11.7755H8.52549L9.80049 6.9V14.025C9.80049 14.725 9.96716 15.3667 10.3005 15.95C10.6338 16.5167 11.0838 16.9667 11.6505 17.3C12.2172 17.6333 12.8422 17.8 13.5255 17.8C14.2088 17.8 14.8338 17.6333 15.4005 17.3C15.9672 16.9667 16.4172 16.5167 16.7505 15.95C17.0838 15.3667 17.2505 14.725 17.2505 14.025V12H21.0005V14.025C21.0005 15.3917 20.6672 16.65 20.0005 17.8C19.3338 18.9333 18.4255 19.8333 17.2755 20.5C16.1422 21.1667 14.8922 21.5 13.5255 21.5C12.1588 21.5 10.9005 21.1667 9.75049 20.5C8.61716 19.8333 7.71716 18.9333 7.05049 17.8C6.38382 16.65 6.05049 15.3917 6.05049 14.025V6.9L7.45049 7.425H4.22549H2.22549L7.97549 1.675Z" fill="black"/>
</g>
<defs>
<clipPath id="clip0_3232_3263">
<rect width="24" height="24" fill="white"/>
</clipPath>
</defs>
</svg>
