<svg width="24" height="24" viewBox="0 0 24 24" fill="none" xmlns="http://www.w3.org/2000/svg">
<g clip-path="url(#clip0_3234_13973)">
<rect width="24" height="24" fill="white"/>
<path d="M1.67549 16.025L7.42549 10.275V12.225V15.475L6.90049 14.225H14.0255C14.7088 14.225 15.3338 14.0583 15.9005 13.725C16.4838 13.3917 16.9338 12.9417 17.2505 12.375C17.5838 11.7917 17.7505 11.1583 17.7505 10.475C17.7505 9.775 17.5838 9.14167 17.2505 8.575C16.9338 7.99167 16.4838 7.53333 15.9005 7.2C15.3338 6.86667 14.7088 6.7 14.0255 6.7H12.0005V3H14.0255C15.4088 3 16.6672 3.33333 17.8005 4C18.9505 4.66667 19.8505 5.575 20.5005 6.725C21.1672 7.85833 21.5005 9.10833 21.5005 10.475C21.5005 11.8417 21.1672 13.1 20.5005 14.25C19.8505 15.3833 18.9505 16.2833 17.8005 16.95C16.6672 17.6 15.4088 17.925 14.0255 17.925H6.90049L7.42549 16.55V19.75V21.775L1.67549 16.025Z" fill="black"/>
</g>
<defs>
<clipPath id="clip0_3234_13973">
<rect width="24" height="24" fill="white"/>
</clipPath>
</defs>
</svg>
