<svg width="24" height="24" viewBox="0 0 24 24" fill="none" xmlns="http://www.w3.org/2000/svg">
<g clip-path="url(#clip0_3232_1799)">
<rect width="24" height="24" fill="white"/>
<path d="M4.00049 5.025L5.02549 4.025L19.9755 18.975L18.9755 19.975L4.00049 5.025ZM3.50049 16.75L4.42549 17.675L5.30049 18.575L6.07549 19.3L7.25049 20.5H3.50049V16.75ZM3.95049 19.025L18.9005 4.075L19.9255 5.075L4.97549 20.025L3.95049 19.025ZM3.50049 3.5H7.25049L6.07549 4.7L5.30049 5.425L4.42549 6.325L3.50049 7.25V3.5ZM17.9255 19.3L18.7005 18.575L19.5755 17.675L20.5005 16.75V20.5H16.7505L17.9255 19.3ZM19.5755 6.325L18.7005 5.425L17.9255 4.7L16.7505 3.5H20.5005V7.25L19.5755 6.325Z" fill="black"/>
</g>
<defs>
<clipPath id="clip0_3232_1799">
<rect width="24" height="24" fill="white"/>
</clipPath>
</defs>
</svg>
