<svg width="24" height="24" viewBox="0 0 24 24" fill="none" xmlns="http://www.w3.org/2000/svg">
<g clip-path="url(#clip0_3155_513)">
<rect width="24" height="24" fill="white"/>
<path d="M12.0005 22C10.1505 22 8.45882 21.5583 6.92549 20.675C5.40882 19.7917 4.20882 18.5917 3.32549 17.075C2.44216 15.5417 2.00049 13.85 2.00049 12C2.00049 10.15 2.44216 8.46667 3.32549 6.95C4.20882 5.41667 5.40882 4.20833 6.92549 3.325C8.45882 2.44167 10.1505 2 12.0005 2C13.8505 2 15.5338 2.44167 17.0505 3.325C18.5838 4.20833 19.7922 5.41667 20.6755 6.95C21.5588 8.46667 22.0005 10.15 22.0005 12C22.0005 13.85 21.5588 15.5417 20.6755 17.075C19.7922 18.5917 18.5838 19.7917 17.0505 20.675C15.5338 21.5583 13.8505 22 12.0005 22ZM17.9005 12L12.8755 6.95L12.2005 7.625L16.1255 11.525H6.47549V12.475H16.1255L12.2505 16.425L12.8755 17.05L17.9005 12Z" fill="black"/>
</g>
<defs>
<clipPath id="clip0_3155_513">
<rect width="24" height="24" fill="white"/>
</clipPath>
</defs>
</svg>
