<svg width="24" height="24" viewBox="0 0 24 24" fill="none" xmlns="http://www.w3.org/2000/svg">
<g clip-path="url(#clip0_3155_559)">
<rect width="24" height="24" fill="white"/>
<path d="M19.0755 4.925C20.3755 6.225 21.2505 7.73333 21.7005 9.45C22.1672 11.15 22.1672 12.8583 21.7005 14.575C21.2505 16.275 20.3755 17.775 19.0755 19.075C17.7755 20.375 16.2672 21.25 14.5505 21.7C12.8505 22.1667 11.1422 22.1667 9.42549 21.7C7.72549 21.25 6.22549 20.375 4.92549 19.075C3.62549 17.775 2.74216 16.275 2.27549 14.575C1.82549 12.8583 1.82549 11.15 2.27549 9.45C2.74216 7.73333 3.62549 6.225 4.92549 4.925C6.22549 3.625 7.72549 2.75 9.42549 2.3C11.1422 1.83333 12.8505 1.83333 14.5505 2.3C16.2672 2.75 17.7755 3.625 19.0755 4.925ZM14.8505 8.775L14.8255 13.8L8.60049 7.6L7.60049 8.6L13.8005 14.825L8.75049 14.8V16.175H16.1755V8.75L14.8505 8.775Z" fill="black"/>
</g>
<defs>
<clipPath id="clip0_3155_559">
<rect width="24" height="24" fill="white"/>
</clipPath>
</defs>
</svg>
