<svg width="24" height="24" viewBox="0 0 24 24" fill="none" xmlns="http://www.w3.org/2000/svg">
<g clip-path="url(#clip0_3232_4555)">
<rect width="24" height="24" fill="white"/>
<path d="M22.3255 7.975L15.9755 14.325L14.9505 13.3L20.3755 8.175L20.4505 8.675H9.35049C8.36716 8.675 7.45882 8.91667 6.62549 9.4C5.80882 9.88333 5.15882 10.5417 4.67549 11.375C4.20882 12.2083 3.97549 13.125 3.97549 14.125C3.97549 15.125 4.20882 16.0417 4.67549 16.875C5.15882 17.7083 5.81716 18.3667 6.65049 18.85C7.48382 19.3333 8.40049 19.575 9.40049 19.575H12.0005V21H9.40049C8.13382 21 6.97549 20.7 5.92549 20.1C4.87549 19.4833 4.04216 18.65 3.42549 17.6C2.80882 16.5333 2.50049 15.375 2.50049 14.125C2.50049 12.8583 2.80049 11.7 3.40049 10.65C4.01716 9.6 4.85049 8.775 5.90049 8.175C6.95049 7.55833 8.10049 7.25 9.35049 7.25H20.4755L20.4005 7.775L14.9505 2.65L15.9755 1.625L22.3255 7.975Z" fill="black"/>
</g>
<defs>
<clipPath id="clip0_3232_4555">
<rect width="24" height="24" fill="white"/>
</clipPath>
</defs>
</svg>
