<svg width="24" height="24" viewBox="0 0 24 24" fill="none" xmlns="http://www.w3.org/2000/svg">
<g clip-path="url(#clip0_3232_1807)">
<rect width="24" height="24" fill="white"/>
<path d="M4.22549 6.725L6.72549 4.25L19.7255 17.2L17.2255 19.675L4.22549 6.725ZM3.50049 14L4.90049 15.375L6.57549 17.075L8.65049 19.15L10.0005 20.5H3.50049V14ZM4.22549 17.2L17.2255 4.25L19.7255 6.725L6.72549 19.675L4.22549 17.2ZM3.50049 3.5H10.0005L8.42549 5.075L6.75049 6.725L5.00049 8.5L3.50049 10V3.5ZM15.1505 19.35L17.2005 17.3L19.1255 15.35L20.5005 14V20.5H14.0005L15.1505 19.35ZM18.9255 8.425L17.0755 6.575L15.1755 4.7L14.0005 3.5H20.5005V10L18.9255 8.425Z" fill="black"/>
</g>
<defs>
<clipPath id="clip0_3232_1807">
<rect width="24" height="24" fill="white"/>
</clipPath>
</defs>
</svg>
