<svg width="24" height="24" viewBox="0 0 24 24" fill="none" xmlns="http://www.w3.org/2000/svg">
<g clip-path="url(#clip0_3232_634)">
<rect width="24" height="24" fill="white"/>
<path d="M7.97549 1.675L14.3255 8.025L13.9755 8.375L8.10049 2.45L8.22549 2.275V14.975C8.22549 16.075 8.49216 17.0917 9.02549 18.025C9.57549 18.9417 10.3172 19.675 11.2505 20.225C12.2005 20.7583 13.2338 21.025 14.3505 21.025C15.4838 21.025 16.5172 20.75 17.4505 20.2C18.4005 19.65 19.1422 18.9083 19.6755 17.975C20.2255 17.0417 20.5005 16.0083 20.5005 14.875V12H21.0005V14.875C21.0005 16.0917 20.7005 17.2083 20.1005 18.225C19.5172 19.225 18.7172 20.025 17.7005 20.625C16.6838 21.2083 15.5672 21.5 14.3505 21.5C13.1338 21.5 12.0172 21.2167 11.0005 20.65C10.0005 20.0667 9.20049 19.275 8.60049 18.275C8.01716 17.275 7.72549 16.175 7.72549 14.975V2.275L7.85049 2.45L1.97549 8.375L1.62549 8.025L7.97549 1.675Z" fill="black"/>
</g>
<defs>
<clipPath id="clip0_3232_634">
<rect width="24" height="24" fill="white"/>
</clipPath>
</defs>
</svg>
