<svg width="24" height="24" viewBox="0 0 24 24" fill="none" xmlns="http://www.w3.org/2000/svg">
<g clip-path="url(#clip0_3232_4849)">
<rect width="24" height="24" fill="white"/>
<path d="M7.42549 4.25V7.45L6.90049 6.075H14.0255C15.4088 6.075 16.6672 6.40833 17.8005 7.075C18.9505 7.725 19.8505 8.625 20.5005 9.775C21.1672 10.9083 21.5005 12.1583 21.5005 13.525C21.5005 14.8917 21.1672 16.15 20.5005 17.3C19.8505 18.4333 18.9505 19.3333 17.8005 20C16.6672 20.6667 15.4088 21 14.0255 21H12.0005V17.3H14.0255C14.7088 17.3 15.3338 17.1333 15.9005 16.8C16.4838 16.4667 16.9338 16.0167 17.2505 15.45C17.5838 14.8667 17.7505 14.225 17.7505 13.525C17.7505 12.8417 17.5838 12.2167 17.2505 11.65C16.9338 11.0667 16.4838 10.6083 15.9005 10.275C15.3338 9.94167 14.7088 9.775 14.0255 9.775H6.90049L7.42549 8.525V11.775V13.725L1.67549 7.975L7.42549 2.225V4.25Z" fill="black"/>
</g>
<defs>
<clipPath id="clip0_3232_4849">
<rect width="24" height="24" fill="white"/>
</clipPath>
</defs>
</svg>
