<svg width="24" height="24" viewBox="0 0 24 24" fill="none" xmlns="http://www.w3.org/2000/svg">
<g clip-path="url(#clip0_3232_3253)">
<rect width="24" height="24" fill="white"/>
<path d="M7.97549 1.675L14.3255 8.025L13.6505 8.7L8.12549 3.05L8.47549 2.875V14.8C8.47549 15.85 8.72549 16.8167 9.22549 17.7C9.74216 18.5667 10.4422 19.2583 11.3255 19.775C12.2088 20.2917 13.1755 20.55 14.2255 20.55C15.2922 20.55 16.2672 20.2917 17.1505 19.775C18.0338 19.2583 18.7338 18.5583 19.2505 17.675C19.7672 16.7917 20.0255 15.8167 20.0255 14.75V12H21.0005V14.75C21.0005 15.9833 20.7005 17.1167 20.1005 18.15C19.5005 19.1833 18.6838 20 17.6505 20.6C16.6172 21.2 15.4755 21.5 14.2255 21.5C12.9922 21.5 11.8588 21.2083 10.8255 20.625C9.79216 20.025 8.97549 19.2167 8.37549 18.2C7.77549 17.1667 7.47549 16.0333 7.47549 14.8V2.875L7.82549 3.05L2.30049 8.7L1.62549 8.025L7.97549 1.675Z" fill="black"/>
</g>
<defs>
<clipPath id="clip0_3232_3253">
<rect width="24" height="24" fill="white"/>
</clipPath>
</defs>
</svg>
