<svg width="24" height="24" viewBox="0 0 24 24" fill="none" xmlns="http://www.w3.org/2000/svg">
<g clip-path="url(#clip0_3232_791)">
<rect width="24" height="24" fill="white"/>
<path d="M12.0005 21.575C10.2505 21.575 8.65049 21.1583 7.20049 20.325C5.75049 19.475 4.60049 18.325 3.75049 16.875C2.91716 15.425 2.50049 13.825 2.50049 12.075C2.50049 10.6917 2.75882 9.41667 3.27549 8.25C3.79216 7.08333 4.49215 6.075 5.37549 5.225L7.45049 7.275C6.83382 7.875 6.35049 8.59167 6.00049 9.425C5.65049 10.2417 5.47549 11.125 5.47549 12.075C5.47549 13.2917 5.75882 14.4 6.32549 15.4C6.90882 16.4 7.70049 17.2 8.70049 17.8C9.70049 18.3833 10.8005 18.675 12.0005 18.675C13.1838 18.675 14.2755 18.3833 15.2755 17.8C16.2755 17.2167 17.0672 16.425 17.6505 15.425C18.2338 14.4083 18.5255 13.2917 18.5255 12.075C18.5255 10.875 18.2338 9.775 17.6505 8.775C17.0672 7.75833 16.2755 6.95833 15.2755 6.375C14.2755 5.79167 13.1838 5.5 12.0005 5.5C11.4172 5.5 10.9255 5.54167 10.5255 5.625L9.80049 2.775C10.5505 2.64167 11.2838 2.575 12.0005 2.575C13.7505 2.575 15.3505 3 16.8005 3.85C18.2505 4.68333 19.3922 5.825 20.2255 7.275C21.0755 8.725 21.5005 10.325 21.5005 12.075C21.5005 13.825 21.0755 15.425 20.2255 16.875C19.3922 18.325 18.2505 19.475 16.8005 20.325C15.3505 21.1583 13.7505 21.575 12.0005 21.575ZM7.27549 4.1L11.3255 0.124999V1.25V6.7V6.95V8.05L7.27549 4.1ZM12.0005 14.025C11.6338 14.025 11.3005 13.9417 11.0005 13.775C10.7172 13.6083 10.4838 13.375 10.3005 13.075C10.1338 12.775 10.0505 12.4417 10.0505 12.075C10.0505 11.725 10.1338 11.4 10.3005 11.1C10.4838 10.8 10.7172 10.5667 11.0005 10.4C11.3005 10.2333 11.6338 10.15 12.0005 10.15C12.3672 10.15 12.6922 10.2333 12.9755 10.4C13.2755 10.5667 13.5088 10.8 13.6755 11.1C13.8588 11.4 13.9505 11.725 13.9505 12.075C13.9505 12.4417 13.8588 12.775 13.6755 13.075C13.5088 13.375 13.2755 13.6083 12.9755 13.775C12.6922 13.9417 12.3672 14.025 12.0005 14.025ZM12.0005 12.075C12.1838 12.075 12.3172 12.075 12.4005 12.075C12.4838 12.075 12.6172 12.075 12.8005 12.075C12.6172 12.075 12.4838 12.075 12.4005 12.075C12.3172 12.075 12.1838 12.075 12.0005 12.075C11.8172 12.075 11.6838 12.075 11.6005 12.075C11.5172 12.075 11.3838 12.075 11.2005 12.075C11.3838 12.075 11.5172 12.075 11.6005 12.075C11.6838 12.075 11.8172 12.075 12.0005 12.075Z" fill="black"/>
</g>
<defs>
<clipPath id="clip0_3232_791">
<rect width="24" height="24" fill="white"/>
</clipPath>
</defs>
</svg>
