<svg width="24" height="24" viewBox="0 0 24 24" fill="none" xmlns="http://www.w3.org/2000/svg">
<g clip-path="url(#clip0_3232_787)">
<rect width="24" height="24" fill="white"/>
<path d="M12.0005 21.75C10.2505 21.75 8.65049 21.3333 7.20049 20.5C5.75049 19.65 4.60049 18.5 3.75049 17.05C2.91716 15.6 2.50049 14 2.50049 12.25C2.50049 10.7667 2.80049 9.39167 3.40049 8.125C4.01716 6.84167 4.89216 5.73333 6.02549 4.8L7.35049 6.125C6.41716 6.875 5.69216 7.79167 5.17549 8.875C4.65882 9.94167 4.40049 11.0667 4.40049 12.25C4.40049 13.65 4.73382 14.9333 5.40049 16.1C6.08382 17.2667 7.00882 18.1917 8.17549 18.875C9.34216 19.5583 10.6172 19.9 12.0005 19.9C13.3838 19.9 14.6588 19.5583 15.8255 18.875C16.9922 18.1917 17.9088 17.2667 18.5755 16.1C19.2588 14.9333 19.6005 13.65 19.6005 12.25C19.6005 10.85 19.2588 9.56667 18.5755 8.4C17.9088 7.23333 16.9922 6.30833 15.8255 5.625C14.6588 4.94167 13.3838 4.6 12.0005 4.6C11.4338 4.6 10.8672 4.65 10.3005 4.75L9.80049 2.95C10.5505 2.81667 11.2838 2.75 12.0005 2.75C13.7505 2.75 15.3505 3.175 16.8005 4.025C18.2505 4.85833 19.3922 6 20.2255 7.45C21.0755 8.9 21.5005 10.5 21.5005 12.25C21.5005 14 21.0755 15.6 20.2255 17.05C19.3922 18.5 18.2505 19.65 16.8005 20.5C15.3505 21.3333 13.7505 21.75 12.0005 21.75ZM8.32549 3.625L11.5755 0.374999V3.175V3.6V4.05V6.875L8.32549 3.625ZM12.0005 15.975C11.3172 15.975 10.6838 15.8083 10.1005 15.475C9.53382 15.1417 9.08382 14.6917 8.75049 14.125C8.41716 13.5583 8.25049 12.9333 8.25049 12.25C8.25049 11.5667 8.41716 10.9417 8.75049 10.375C9.08382 9.80833 9.53382 9.35833 10.1005 9.025C10.6838 8.69167 11.3172 8.525 12.0005 8.525C12.6838 8.525 13.3088 8.69167 13.8755 9.025C14.4588 9.35833 14.9172 9.80833 15.2505 10.375C15.5838 10.9417 15.7505 11.5667 15.7505 12.25C15.7505 12.9333 15.5838 13.5583 15.2505 14.125C14.9172 14.6917 14.4588 15.1417 13.8755 15.475C13.3088 15.8083 12.6838 15.975 12.0005 15.975ZM12.0005 14.175C12.5338 14.175 12.9838 13.9917 13.3505 13.625C13.7338 13.2417 13.9255 12.7833 13.9255 12.25C13.9255 11.7167 13.7338 11.2667 13.3505 10.9C12.9838 10.5167 12.5338 10.325 12.0005 10.325C11.4672 10.325 11.0088 10.5167 10.6255 10.9C10.2588 11.2667 10.0755 11.7167 10.0755 12.25C10.0755 12.7833 10.2588 13.2417 10.6255 13.625C11.0088 13.9917 11.4672 14.175 12.0005 14.175Z" fill="black"/>
</g>
<defs>
<clipPath id="clip0_3232_787">
<rect width="24" height="24" fill="white"/>
</clipPath>
</defs>
</svg>
