<svg width="24" height="24" viewBox="0 0 24 24" fill="none" xmlns="http://www.w3.org/2000/svg">
<g clip-path="url(#clip0_3232_785)">
<rect width="24" height="24" fill="white"/>
<path d="M12.0005 21.675C10.2505 21.675 8.65049 21.2583 7.20049 20.425C5.75049 19.575 4.60049 18.425 3.75049 16.975C2.91716 15.525 2.50049 13.925 2.50049 12.175C2.50049 10.6417 2.83382 9.21667 3.50049 7.9C4.16716 6.56667 5.08382 5.46667 6.25049 4.6L7.15049 5.675C6.13382 6.39167 5.34216 7.325 4.77549 8.475C4.20882 9.60833 3.92549 10.8417 3.92549 12.175C3.92549 13.6583 4.28382 15.0167 5.00049 16.25C5.71716 17.4833 6.69216 18.4667 7.92549 19.2C9.15882 19.9167 10.5172 20.275 12.0005 20.275C13.4838 20.275 14.8422 19.9167 16.0755 19.2C17.3088 18.4667 18.2838 17.4833 19.0005 16.25C19.7172 15.0167 20.0755 13.6583 20.0755 12.175C20.0755 10.6917 19.7172 9.33333 19.0005 8.1C18.2838 6.85 17.3088 5.86667 16.0755 5.15C14.8422 4.41667 13.4838 4.05 12.0005 4.05C11.3505 4.05 10.7505 4.1 10.2005 4.2L9.80049 2.875C10.5505 2.74167 11.2838 2.675 12.0005 2.675C13.7505 2.675 15.3505 3.1 16.8005 3.95C18.2505 4.78333 19.3922 5.925 20.2255 7.375C21.0755 8.825 21.5005 10.425 21.5005 12.175C21.5005 13.925 21.0755 15.525 20.2255 16.975C19.3922 18.425 18.2505 19.575 16.8005 20.425C15.3505 21.2583 13.7505 21.675 12.0005 21.675ZM8.45049 3.475L11.7255 0.174998L11.8505 2.325L11.0005 3.45L11.8505 4.625L11.7255 6.775L8.45049 3.475ZM12.0005 15.825C11.3338 15.825 10.7172 15.6667 10.1505 15.35C9.58382 15.0167 9.13382 14.575 8.80049 14.025C8.48382 13.4583 8.32549 12.8417 8.32549 12.175C8.32549 11.5083 8.48382 10.9 8.80049 10.35C9.13382 9.78333 9.58382 9.34167 10.1505 9.025C10.7172 8.69167 11.3338 8.525 12.0005 8.525C12.6672 8.525 13.2838 8.69167 13.8505 9.025C14.4172 9.34167 14.8588 9.78333 15.1755 10.35C15.5088 10.9 15.6755 11.5083 15.6755 12.175C15.6755 12.8417 15.5088 13.4583 15.1755 14.025C14.8588 14.575 14.4172 15.0167 13.8505 15.35C13.2838 15.6667 12.6672 15.825 12.0005 15.825ZM12.0005 14.45C12.6338 14.45 13.1672 14.2333 13.6005 13.8C14.0505 13.35 14.2755 12.8083 14.2755 12.175C14.2755 11.525 14.0505 10.9833 13.6005 10.55C13.1672 10.1 12.6338 9.875 12.0005 9.875C11.3672 9.875 10.8255 10.1 10.3755 10.55C9.94216 10.9833 9.72549 11.525 9.72549 12.175C9.72549 12.8083 9.94216 13.35 10.3755 13.8C10.8255 14.2333 11.3672 14.45 12.0005 14.45Z" fill="black"/>
</g>
<defs>
<clipPath id="clip0_3232_785">
<rect width="24" height="24" fill="white"/>
</clipPath>
</defs>
</svg>
