<svg width="24" height="24" viewBox="0 0 24 24" fill="none" xmlns="http://www.w3.org/2000/svg">
<g clip-path="url(#clip0_3232_807)">
<rect width="24" height="24" fill="white"/>
<path d="M12 21.5C10.25 21.5 8.65 21.0833 7.2 20.25C5.75 19.4 4.6 18.25 3.75 16.8C2.91667 15.35 2.5 13.75 2.5 12C2.5 10.65 2.73333 9.425 3.2 8.325C3.68333 7.225 4.3 6.26667 5.05 5.45L7.525 7.85C7.04167 8.38333 6.66667 9 6.4 9.7C6.13333 10.4 6 11.1667 6 12C6 13.1167 6.26667 14.1417 6.8 15.075C7.33333 15.9917 8.05833 16.7167 8.975 17.25C9.89167 17.7833 10.9 18.05 12 18.05C13.1 18.05 14.1083 17.7833 15.025 17.25C15.9417 16.7167 16.6667 15.9917 17.2 15.075C17.7333 14.1417 18 13.1167 18 12C18 10.8833 17.7333 9.86667 17.2 8.95C16.6667 8.01667 15.9417 7.28333 15.025 6.75C14.1083 6.21667 13.1 5.95 12 5.95C11.4667 5.95 11.0167 5.99167 10.65 6.075L9.8 2.7C10.55 2.56667 11.2833 2.5 12 2.5C13.75 2.5 15.35 2.925 16.8 3.775C18.25 4.60833 19.3917 5.75 20.225 7.2C21.075 8.65 21.5 10.25 21.5 12C21.5 13.75 21.075 15.35 20.225 16.8C19.3917 18.25 18.25 19.4 16.8 20.25C15.35 21.0833 13.75 21.5 12 21.5ZM6.75 4.325L11.25 -8.34465e-07V0.224999V8.325V8.45V8.65L6.75 4.325ZM12 14.375C11.3333 14.375 10.7667 14.15 10.3 13.7C9.85 13.2333 9.625 12.6667 9.625 12C9.625 11.3333 9.85 10.775 10.3 10.325C10.7667 9.85833 11.3333 9.625 12 9.625C12.6667 9.625 13.225 9.85833 13.675 10.325C14.1417 10.775 14.375 11.3333 14.375 12C14.375 12.6667 14.1417 13.2333 13.675 13.7C13.225 14.15 12.6667 14.375 12 14.375Z" fill="black"/>
</g>
<defs>
<clipPath id="clip0_3232_807">
<rect width="24" height="24" fill="white"/>
</clipPath>
</defs>
</svg>
