<svg width="24" height="24" viewBox="0 0 24 24" fill="none" xmlns="http://www.w3.org/2000/svg">
<g clip-path="url(#clip0_3232_789)">
<rect width="24" height="24" fill="white"/>
<path d="M12.0005 21.675C10.2505 21.675 8.65049 21.2583 7.20049 20.425C5.75049 19.575 4.60049 18.425 3.75049 16.975C2.91716 15.525 2.50049 13.925 2.50049 12.175C2.50049 10.725 2.78382 9.39167 3.35049 8.175C3.91716 6.95833 4.70049 5.90833 5.70049 5.025L7.40049 6.7C6.61716 7.38333 6.00882 8.2 5.57549 9.15C5.14216 10.0833 4.92549 11.0917 4.92549 12.175C4.92549 13.475 5.24216 14.6667 5.87549 15.75C6.50882 16.8333 7.35882 17.6917 8.42549 18.325C9.50882 18.9583 10.7005 19.275 12.0005 19.275C13.3005 19.275 14.4838 18.9583 15.5505 18.325C16.6338 17.6917 17.4922 16.8333 18.1255 15.75C18.7588 14.6667 19.0755 13.475 19.0755 12.175C19.0755 10.875 18.7588 9.68333 18.1255 8.6C17.4922 7.5 16.6338 6.63333 15.5505 6C14.4838 5.36667 13.3005 5.05 12.0005 5.05C11.4172 5.05 10.8922 5.09167 10.4255 5.175L9.80049 2.875C10.5505 2.74167 11.2838 2.675 12.0005 2.675C13.7505 2.675 15.3505 3.1 16.8005 3.95C18.2505 4.78333 19.3922 5.925 20.2255 7.375C21.0755 8.825 21.5005 10.425 21.5005 12.175C21.5005 13.925 21.0755 15.525 20.2255 16.975C19.3922 18.425 18.2505 19.575 16.8005 20.425C15.3505 21.2583 13.7505 21.675 12.0005 21.675ZM7.80049 3.85L11.4505 0.249999V2.225V5.15V5.475V7.45L7.80049 3.85ZM12.0005 15.65C11.3672 15.65 10.7755 15.4917 10.2255 15.175C9.69216 14.8583 9.26716 14.4417 8.95049 13.925C8.65049 13.3917 8.50049 12.8083 8.50049 12.175C8.50049 11.525 8.65049 10.9417 8.95049 10.425C9.26716 9.89167 9.69216 9.475 10.2255 9.175C10.7755 8.85833 11.3672 8.7 12.0005 8.7C12.6338 8.7 13.2172 8.85833 13.7505 9.175C14.3005 9.475 14.7255 9.89167 15.0255 10.425C15.3422 10.9417 15.5005 11.525 15.5005 12.175C15.5005 12.8083 15.3422 13.3917 15.0255 13.925C14.7255 14.4417 14.3005 14.8583 13.7505 15.175C13.2172 15.4917 12.6338 15.65 12.0005 15.65ZM12.0005 13.65C12.4172 13.65 12.7672 13.5083 13.0505 13.225C13.3338 12.925 13.4755 12.5667 13.4755 12.15C13.4755 11.75 13.3255 11.4083 13.0255 11.125C12.7422 10.8417 12.4005 10.7 12.0005 10.7C11.6005 10.7 11.2505 10.8417 10.9505 11.125C10.6672 11.4083 10.5255 11.7583 10.5255 12.175C10.5255 12.575 10.6672 12.925 10.9505 13.225C11.2505 13.5083 11.6005 13.65 12.0005 13.65Z" fill="black"/>
</g>
<defs>
<clipPath id="clip0_3232_789">
<rect width="24" height="24" fill="white"/>
</clipPath>
</defs>
</svg>
