<svg width="24" height="24" viewBox="0 0 24 24" fill="none" xmlns="http://www.w3.org/2000/svg">
<g clip-path="url(#clip0_3232_805)">
<rect width="24" height="24" fill="white"/>
<path d="M12 21.5C10.25 21.5 8.65 21.0833 7.2 20.25C5.75 19.4 4.6 18.25 3.75 16.8C2.91667 15.35 2.5 13.75 2.5 12C2.5 10.6 2.75833 9.325 3.275 8.175C3.79167 7.00833 4.49167 6 5.375 5.15L7.475 7.2C6.84167 7.8 6.35 8.51667 6 9.35C5.65 10.1667 5.475 11.05 5.475 12C5.475 13.2167 5.75833 14.325 6.325 15.325C6.90833 16.325 7.7 17.1167 8.7 17.7C9.7 18.2833 10.8 18.575 12 18.575C13.2 18.575 14.3 18.2833 15.3 17.7C16.3 17.1167 17.0833 16.325 17.65 15.325C18.2333 14.325 18.525 13.2167 18.525 12C18.525 10.7833 18.2333 9.675 17.65 8.675C17.0833 7.675 16.3 6.88333 15.3 6.3C14.3 5.71667 13.2 5.425 12 5.425C11.45 5.425 10.9583 5.46667 10.525 5.55L9.8 2.7C10.55 2.56667 11.2833 2.5 12 2.5C13.75 2.5 15.35 2.925 16.8 3.775C18.25 4.60833 19.3917 5.75 20.225 7.2C21.075 8.65 21.5 10.25 21.5 12C21.5 13.75 21.075 15.35 20.225 16.8C19.3917 18.25 18.25 19.4 16.8 20.25C15.35 21.0833 13.75 21.5 12 21.5ZM7.275 4L11.35 0.0499985V1.125V6.675V6.9V7.975L7.275 4ZM12 14.375C11.3333 14.375 10.7667 14.15 10.3 13.7C9.85 13.2333 9.625 12.6667 9.625 12C9.625 11.3333 9.85 10.775 10.3 10.325C10.7667 9.85833 11.3333 9.625 12 9.625C12.6667 9.625 13.225 9.85833 13.675 10.325C14.1417 10.775 14.375 11.3333 14.375 12C14.375 12.6667 14.1417 13.2333 13.675 13.7C13.225 14.15 12.6667 14.375 12 14.375Z" fill="black"/>
</g>
<defs>
<clipPath id="clip0_3232_805">
<rect width="24" height="24" fill="white"/>
</clipPath>
</defs>
</svg>
