<svg width="24" height="24" viewBox="0 0 24 24" fill="none" xmlns="http://www.w3.org/2000/svg">
<g clip-path="url(#clip0_3232_3743)">
<rect width="24" height="24" fill="white"/>
<path d="M21.7 14.575C21.25 16.275 20.375 17.775 19.075 19.075C17.775 20.375 16.2667 21.25 14.55 21.7C12.85 22.15 11.1417 22.15 9.425 21.7C7.725 21.25 6.225 20.375 4.925 19.075C3.625 17.775 2.75 16.275 2.3 14.575C1.85 12.8583 1.85 11.15 2.3 9.45C2.75 7.73333 3.625 6.225 4.925 4.925C6.225 3.625 7.725 2.75 9.425 2.3C11.1417 1.85 12.85 1.85 14.55 2.3C16.2667 2.75 17.775 3.625 19.075 4.925C20.375 6.225 21.25 7.73333 21.7 9.45C22.15 11.15 22.15 12.8583 21.7 14.575ZM15.25 15.25V7.075L12.45 7.05L12.575 12.575L7.05 12.45L7.075 15.25H15.25Z" fill="black"/>
</g>
<defs>
<clipPath id="clip0_3232_3743">
<rect width="24" height="24" fill="white"/>
</clipPath>
</defs>
</svg>
