<svg width="24" height="24" viewBox="0 0 24 24" fill="none" xmlns="http://www.w3.org/2000/svg">
<g clip-path="url(#clip0_3232_4457)">
<rect width="24" height="24" fill="white"/>
<path d="M12.4883 22C10.6549 22 8.97161 21.5583 7.43828 20.675C5.90495 19.7917 4.69661 18.5833 3.81328 17.05C2.92995 15.5167 2.48828 13.8333 2.48828 12C2.48828 10.1667 2.92995 8.48333 3.81328 6.95C4.69661 5.41667 5.90495 4.20833 7.43828 3.325C8.97161 2.44167 10.6549 2 12.4883 2C14.3216 2 16.0049 2.44167 17.5383 3.325C19.0716 4.20833 20.2799 5.41667 21.1633 6.95C22.0466 8.48333 22.4883 10.1667 22.4883 12C22.4883 13.8333 22.0466 15.5167 21.1633 17.05C20.2799 18.5833 19.0716 19.7917 17.5383 20.675C16.0049 21.5583 14.3216 22 12.4883 22ZM12.4883 19.075C13.7883 19.075 14.9716 18.7667 16.0383 18.15C17.1216 17.5167 17.9716 16.6583 18.5883 15.575C19.2049 14.4917 19.5133 13.3 19.5133 12C19.5133 10.7 19.2049 9.50833 18.5883 8.425C17.9716 7.34167 17.1216 6.49167 16.0383 5.875C14.9716 5.24167 13.7883 4.925 12.4883 4.925C11.1883 4.925 9.99661 5.24167 8.91328 5.875C7.84661 6.49167 7.00495 7.34167 6.38828 8.425C5.77161 9.50833 5.46328 10.7 5.46328 12C5.46328 13.3 5.77161 14.4917 6.38828 15.575C7.00495 16.6583 7.84661 17.5167 8.91328 18.15C9.99661 18.7667 11.1883 19.075 12.4883 19.075ZM13.4383 9.25V12.55V14.475V16.425L9.03828 12.025L13.4383 7.625V9.25Z" fill="black"/>
</g>
<defs>
<clipPath id="clip0_3232_4457">
<rect width="24" height="24" fill="white"/>
</clipPath>
</defs>
</svg>
