<svg width="24" height="24" viewBox="0 0 24 24" fill="none" xmlns="http://www.w3.org/2000/svg">
<g clip-path="url(#clip0_3232_4035)">
<rect width="24" height="24" fill="white"/>
<path d="M12.0005 22C10.1672 22 8.48382 21.5583 6.95049 20.675C5.41716 19.7917 4.20882 18.5833 3.32549 17.05C2.44216 15.5167 2.00049 13.8333 2.00049 12C2.00049 10.1667 2.44216 8.48333 3.32549 6.95C4.20882 5.41667 5.41716 4.20833 6.95049 3.325C8.48382 2.44167 10.1672 2 12.0005 2C13.8338 2 15.5172 2.44167 17.0505 3.325C18.5838 4.20833 19.7922 5.41667 20.6755 6.95C21.5588 8.48333 22.0005 10.1667 22.0005 12C22.0005 13.8333 21.5588 15.5167 20.6755 17.05C19.7922 18.5833 18.5838 19.7917 17.0505 20.675C15.5172 21.5583 13.8338 22 12.0005 22ZM12.0005 20.6C13.5838 20.6 15.0255 20.225 16.3255 19.475C17.6422 18.7083 18.6755 17.675 19.4255 16.375C20.1922 15.0583 20.5755 13.6 20.5755 12C20.5755 10.4 20.1922 8.95 19.4255 7.65C18.6755 6.33333 17.6422 5.3 16.3255 4.55C15.0255 3.78333 13.5838 3.4 12.0005 3.4C10.4172 3.4 8.96716 3.78333 7.65049 4.55C6.35049 5.3 5.31716 6.33333 4.55049 7.65C3.80049 8.95 3.42549 10.4 3.42549 12C3.42549 13.6 3.80049 15.0583 4.55049 16.375C5.31716 17.675 6.35049 18.7083 7.65049 19.475C8.96716 20.225 10.4172 20.6 12.0005 20.6ZM8.02549 9.775L12.0005 13.8L15.9755 9.775L17.0005 10.8L12.0005 15.8L7.00049 10.8L8.02549 9.775Z" fill="black"/>
</g>
<defs>
<clipPath id="clip0_3232_4035">
<rect width="24" height="24" fill="white"/>
</clipPath>
</defs>
</svg>
