<svg width="24" height="24" viewBox="0 0 24 24" fill="none" xmlns="http://www.w3.org/2000/svg">
<g clip-path="url(#clip0_3232_4291)">
<rect width="24" height="24" fill="white"/>
<path d="M9.425 21.675C7.725 21.225 6.225 20.35 4.925 19.05C3.64167 17.7667 2.76667 16.275 2.3 14.575C1.85 12.8583 1.85 11.15 2.3 9.45C2.76667 7.73333 3.65 6.225 4.95 4.925C6.23333 3.64167 7.725 2.775 9.425 2.325C11.1417 1.85833 12.85 1.85833 14.55 2.325C16.2667 2.775 17.7667 3.64167 19.05 4.925C20.35 6.225 21.225 7.73333 21.675 9.45C22.1417 11.15 22.1417 12.8583 21.675 14.575C21.225 16.275 20.3583 17.7667 19.075 19.05C17.775 20.35 16.2667 21.225 14.55 21.675C12.85 22.1417 11.1417 22.1417 9.425 21.675ZM11.85 6.975L8.575 7V15.4L17 15.425L17.025 12.15L11.7 12.275L11.85 6.975Z" fill="black"/>
</g>
<defs>
<clipPath id="clip0_3232_4291">
<rect width="24" height="24" fill="white"/>
</clipPath>
</defs>
</svg>
