<svg width="24" height="24" viewBox="0 0 24 24" fill="none" xmlns="http://www.w3.org/2000/svg">
<g clip-path="url(#clip0_3232_4455)">
<rect width="24" height="24" fill="white"/>
<path d="M12.4883 22C10.6549 22 8.97161 21.5583 7.43828 20.675C5.90495 19.7917 4.69661 18.5833 3.81328 17.05C2.92995 15.5167 2.48828 13.8333 2.48828 12C2.48828 10.1667 2.92995 8.48333 3.81328 6.95C4.69661 5.41667 5.90495 4.20833 7.43828 3.325C8.97161 2.44167 10.6549 2 12.4883 2C14.3216 2 16.0049 2.44167 17.5383 3.325C19.0716 4.20833 20.2799 5.41667 21.1633 6.95C22.0466 8.48333 22.4883 10.1667 22.4883 12C22.4883 13.8333 22.0466 15.5167 21.1633 17.05C20.2799 18.5833 19.0716 19.7917 17.5383 20.675C16.0049 21.5583 14.3216 22 12.4883 22ZM12.4883 19.625C13.8883 19.625 15.1633 19.2917 16.3133 18.625C17.4633 17.9417 18.3716 17.025 19.0383 15.875C19.7216 14.7083 20.0633 13.4167 20.0633 12C20.0633 10.5833 19.7216 9.3 19.0383 8.15C18.3716 6.98333 17.4633 6.06667 16.3133 5.4C15.1633 4.71667 13.8883 4.375 12.4883 4.375C11.0883 4.375 9.81328 4.71667 8.66328 5.4C7.51328 6.06667 6.59661 6.98333 5.91328 8.15C5.24661 9.3 4.91328 10.5833 4.91328 12C4.91328 13.4167 5.24661 14.7083 5.91328 15.875C6.59661 17.025 7.51328 17.9417 8.66328 18.625C9.81328 19.2917 11.0883 19.625 12.4883 19.625ZM15.0883 8.425L11.2633 12.025L15.0883 15.625L13.5633 17.15L8.46328 12.025L13.5633 6.9L15.0883 8.425Z" fill="black"/>
</g>
<defs>
<clipPath id="clip0_3232_4455">
<rect width="24" height="24" fill="white"/>
</clipPath>
</defs>
</svg>
