<svg width="24" height="24" viewBox="0 0 24 24" fill="none" xmlns="http://www.w3.org/2000/svg">
<g clip-path="url(#clip0_3232_4453)">
<rect width="24" height="24" fill="white"/>
<path d="M12.4883 22C10.6549 22 8.97161 21.5583 7.43828 20.675C5.90495 19.7917 4.69661 18.5833 3.81328 17.05C2.92995 15.5167 2.48828 13.8333 2.48828 12C2.48828 10.1667 2.92995 8.48333 3.81328 6.95C4.69661 5.41667 5.90495 4.20833 7.43828 3.325C8.97161 2.44167 10.6549 2 12.4883 2C14.3216 2 16.0049 2.44167 17.5383 3.325C19.0716 4.20833 20.2799 5.41667 21.1633 6.95C22.0466 8.48333 22.4883 10.1667 22.4883 12C22.4883 13.8333 22.0466 15.5167 21.1633 17.05C20.2799 18.5833 19.0716 19.7917 17.5383 20.675C16.0049 21.5583 14.3216 22 12.4883 22ZM12.4883 20.15C13.9883 20.15 15.3549 19.7917 16.5883 19.075C17.8216 18.3583 18.7966 17.3833 19.5133 16.15C20.2299 14.9 20.5883 13.5167 20.5883 12C20.5883 10.4833 20.2299 9.10833 19.5133 7.875C18.7966 6.625 17.8216 5.64167 16.5883 4.925C15.3549 4.20833 13.9883 3.85 12.4883 3.85C10.9883 3.85 9.62161 4.20833 8.38828 4.925C7.15495 5.64167 6.17995 6.625 5.46328 7.875C4.74661 9.10833 4.38828 10.4833 4.38828 12C4.38828 13.5167 4.74661 14.9 5.46328 16.15C6.17995 17.3833 7.15495 18.3583 8.38828 19.075C9.62161 19.7917 10.9883 20.15 12.4883 20.15ZM14.8133 8.425L11.1383 12.025L14.8133 15.625L13.4383 16.975L8.48828 12.025L13.4383 7.075L14.8133 8.425Z" fill="black"/>
</g>
<defs>
<clipPath id="clip0_3232_4453">
<rect width="24" height="24" fill="white"/>
</clipPath>
</defs>
</svg>
