<svg width="24" height="24" viewBox="0 0 24 24" fill="none" xmlns="http://www.w3.org/2000/svg">
<g clip-path="url(#clip0_3232_1901)">
<rect width="24" height="24" fill="white"/>
<path d="M12.0005 21.575C10.2672 21.575 8.67549 21.15 7.22549 20.3C5.77549 19.45 4.62549 18.3 3.77549 16.85C2.92549 15.4 2.50049 13.8083 2.50049 12.075C2.50049 10.3417 2.92549 8.75 3.77549 7.3C4.62549 5.85 5.77549 4.7 7.22549 3.85C8.67549 3 10.2672 2.575 12.0005 2.575C12.7172 2.575 13.4505 2.64167 14.2005 2.775L13.8755 3.7C13.3088 3.58333 12.6838 3.525 12.0005 3.525C10.4505 3.525 9.01716 3.90833 7.70049 4.675C6.40049 5.44167 5.36716 6.48333 4.60049 7.8C3.85049 9.1 3.47549 10.525 3.47549 12.075C3.47549 13.625 3.85049 15.0583 4.60049 16.375C5.36716 17.675 6.40049 18.7083 7.70049 19.475C9.01716 20.2417 10.4505 20.625 12.0005 20.625C13.5505 20.625 14.9755 20.2417 16.2755 19.475C17.5922 18.7083 18.6255 17.675 19.3755 16.375C20.1422 15.0583 20.5255 13.625 20.5255 12.075H21.5005C21.5005 13.8083 21.0755 15.4 20.2255 16.85C19.3755 18.3 18.2255 19.45 16.7755 20.3C15.3255 21.15 13.7338 21.575 12.0005 21.575ZM11.8505 6.225L11.1755 5.55L13.8005 3.15L11.1755 0.749998L11.8505 0.0749997L14.9255 3.15L11.8505 6.225ZM8.42549 8.5H15.5755V15.65H8.42549V8.5ZM14.6505 14.75V9.4H9.35049V14.75H14.6505Z" fill="black"/>
</g>
<defs>
<clipPath id="clip0_3232_1901">
<rect width="24" height="24" fill="white"/>
</clipPath>
</defs>
</svg>
