<svg width="24" height="24" viewBox="0 0 24 24" fill="none" xmlns="http://www.w3.org/2000/svg">
<g clip-path="url(#clip0_3359_3623)">
<rect width="24" height="24" fill="white"/>
<path d="M2.52549 14.2C2.42549 13.6333 2.37549 12.9 2.37549 12C2.37549 10.5667 2.64216 9.275 3.17549 8.125C3.72549 6.95833 4.40882 5.96667 5.22549 5.15L7.67549 7.6C7.14216 8.13333 6.70882 8.76667 6.37549 9.5C6.04216 10.2333 5.87549 11.0667 5.87549 12C5.87549 12.6833 5.90049 13.1333 5.95049 13.35L2.52549 14.2ZM17.0255 19.875L12.9005 23.975V23.775V16.1V15.975V15.775L17.0255 19.875ZM16.3255 16.4C16.8588 15.8667 17.2922 15.2333 17.6255 14.5C17.9588 13.7667 18.1255 12.9333 18.1255 12C18.1255 11.3167 18.1005 10.8667 18.0505 10.65L21.4755 9.8C21.5755 10.3667 21.6255 11.1 21.6255 12C21.6255 13.4333 21.3505 14.7333 20.8005 15.9C20.2672 17.05 19.5922 18.0333 18.7755 18.85L16.3255 16.4ZM19.8755 6.975L23.9755 11.1H23.7755H16.1005H15.9755H15.7755L19.8755 6.975ZM12.0005 21.625C10.5672 21.625 9.26716 21.3583 8.10049 20.825C6.95049 20.275 5.96716 19.5917 5.15049 18.775L7.60049 16.325C8.13382 16.8583 8.76716 17.2917 9.50049 17.625C10.2338 17.9583 11.0672 18.125 12.0005 18.125C12.6838 18.125 13.1338 18.1 13.3505 18.05L14.2005 21.475C13.6338 21.575 12.9005 21.625 12.0005 21.625ZM16.4005 7.675C15.8672 7.14167 15.2338 6.70833 14.5005 6.375C13.7672 6.04167 12.9338 5.875 12.0005 5.875C11.3172 5.875 10.8672 5.9 10.6505 5.95L9.80049 2.525C10.3672 2.425 11.1005 2.375 12.0005 2.375C13.4338 2.375 14.7255 2.65 15.8755 3.2C17.0422 3.73333 18.0338 4.40833 18.8505 5.225L16.4005 7.675ZM4.12549 17.025L0.0254883 12.9H0.225488H7.90049H8.02549H8.22549L4.12549 17.025ZM6.97549 4.125L11.1005 0.0249988V0.224999V7.9V8.025V8.225L6.97549 4.125Z" fill="black"/>
</g>
<defs>
<clipPath id="clip0_3359_3623">
<rect width="24" height="24" fill="white"/>
</clipPath>
</defs>
</svg>
