<svg width="24" height="24" viewBox="0 0 24 24" fill="none" xmlns="http://www.w3.org/2000/svg">
<g clip-path="url(#clip0_3359_3656)">
<rect width="24" height="24" fill="white"/>
<path d="M2.57549 10.05C2.92549 8.5 3.58382 7.14167 4.55049 5.975C5.51716 4.80833 6.65882 3.91667 7.97549 3.3C9.29216 2.66667 10.6338 2.35833 12.0005 2.375C12.5338 2.375 13.2672 2.44167 14.2005 2.575L13.3255 6.025C12.8922 5.95833 12.4422 5.925 11.9755 5.925C11.0588 5.90833 10.1838 6.09167 9.35049 6.475C8.53382 6.84167 7.82549 7.39167 7.22549 8.125C6.64216 8.84167 6.25049 9.70833 6.05049 10.725L2.57549 10.05ZM18.4005 4.825C19.5672 5.89167 20.4172 7.14167 20.9505 8.575C21.4838 9.99167 21.6838 11.425 21.5505 12.875C21.4338 14.3083 21.0255 15.6167 20.3255 16.8C20.0422 17.3 19.6172 17.9083 19.0505 18.625L16.4755 16.125C16.6755 15.925 16.9338 15.5583 17.2505 15.025C17.7172 14.2417 17.9922 13.4 18.0755 12.5C18.1755 11.6 18.0505 10.7167 17.7005 9.85C17.3672 8.96667 16.8088 8.18333 16.0255 7.5L18.4005 4.825ZM15.0255 21.125C13.5088 21.6083 12.0005 21.725 10.5005 21.475C9.00049 21.225 7.65049 20.6833 6.45049 19.85C5.26716 19.0167 4.34216 18 3.67549 16.8C3.35882 16.2667 3.05049 15.6 2.75049 14.8L6.15049 13.825C6.26716 14.1917 6.45882 14.5917 6.72549 15.025C7.17549 15.825 7.76716 16.4917 8.50049 17.025C9.23382 17.5583 10.0672 17.9 11.0005 18.05C11.9338 18.1833 12.8922 18.0833 13.8755 17.75L15.0255 21.125ZM12.5005 6.75V4.275V1.85V0.449999L16.5005 4.275L12.5005 8.1V6.75ZM16.2755 15.075L18.4255 16.325L20.5255 17.525L21.7255 18.225L16.4255 19.775L15.1255 14.4L16.2755 15.075ZM7.17549 14.2L5.05049 15.425L2.95049 16.65L1.72549 17.35L3.05049 11.975L8.35049 13.525L7.17549 14.2Z" fill="black"/>
</g>
<defs>
<clipPath id="clip0_3359_3656">
<rect width="24" height="24" fill="white"/>
</clipPath>
</defs>
</svg>
