<svg width="24" height="24" viewBox="0 0 24 24" fill="none" xmlns="http://www.w3.org/2000/svg">
<g clip-path="url(#clip0_3359_3662)">
<rect width="24" height="24" fill="white"/>
<path d="M2.4 11.35C2.5 9.71667 2.99167 8.21667 3.875 6.85C4.75833 5.46667 5.91667 4.375 7.35 3.575C8.78333 2.775 10.3333 2.375 12 2.375C12.5833 2.375 13.25 2.44167 14 2.575L13.6 3.95C13 3.85 12.4667 3.8 12 3.8C10.5667 3.8 9.24167 4.14167 8.025 4.825C6.825 5.50833 5.85 6.44167 5.1 7.625C4.35 8.79167 3.93333 10.0833 3.85 11.5L2.4 11.35ZM17.35 4.025C18.7333 4.925 19.8 6.1 20.55 7.55C21.3 9 21.6583 10.5417 21.625 12.175C21.5917 13.8083 21.1583 15.35 20.325 16.8C19.975 17.4167 19.5833 17.9667 19.15 18.45L18.175 17.425C18.5083 17.0417 18.825 16.6 19.125 16.1C19.825 14.8667 20.1833 13.5583 20.2 12.175C20.2167 10.775 19.9 9.45833 19.25 8.225C18.6 6.975 17.6833 5.96667 16.5 5.2L17.35 4.025ZM16.25 20.625C14.7667 21.3583 13.2083 21.6833 11.575 21.6C9.94167 21.5333 8.425 21.0833 7.025 20.25C5.625 19.4 4.50833 18.25 3.675 16.8C3.35833 16.2667 3.08333 15.6583 2.85 14.975L4.225 14.65C4.40833 15.1667 4.625 15.65 4.875 16.1C5.60833 17.3333 6.575 18.3083 7.775 19.025C8.975 19.7417 10.2667 20.125 11.65 20.175C13.05 20.225 14.3833 19.9333 15.65 19.3L16.25 20.625ZM12.575 3.975V3V2.3V0.624999L15.05 3.1L12.575 5.575V3.975ZM18.65 16.525L19.5 17L20.1 17.375L21.55 18.2L18.175 19.125L17.275 15.725L18.65 16.525ZM4.775 15.5L3.925 16L3.325 16.325L1.85 17.175L2.775 13.775L6.15 14.7L4.775 15.5Z" fill="black"/>
</g>
<defs>
<clipPath id="clip0_3359_3662">
<rect width="24" height="24" fill="white"/>
</clipPath>
</defs>
</svg>
