<svg width="24" height="24" viewBox="0 0 24 24" fill="none" xmlns="http://www.w3.org/2000/svg">
<g clip-path="url(#clip0_3359_3660)">
<rect width="24" height="24" fill="white"/>
<path d="M2.4 11.675C2.43333 9.99167 2.89167 8.44167 3.775 7.025C4.65833 5.59167 5.825 4.45833 7.275 3.625C8.725 2.79167 10.3 2.375 12 2.375C12.65 2.375 13.35 2.44167 14.1 2.575L13.8 3.5C13.1833 3.38333 12.5833 3.325 12 3.325C10.4667 3.325 9.04167 3.7 7.725 4.45C6.425 5.2 5.38333 6.225 4.6 7.525C3.81667 8.80833 3.4 10.2167 3.35 11.75L2.4 11.675ZM17.1 3.85C18.5333 4.73333 19.6417 5.90833 20.425 7.375C21.225 8.84167 21.6167 10.4083 21.6 12.075C21.6 13.7417 21.175 15.3167 20.325 16.8C19.9417 17.45 19.5333 18.0333 19.1 18.55L18.475 17.825C18.8417 17.4083 19.1917 16.9167 19.525 16.35C20.2917 15.0167 20.675 13.6 20.675 12.1C20.675 10.5833 20.3083 9.16667 19.575 7.85C18.8583 6.51667 17.85 5.45 16.55 4.65L17.1 3.85ZM16.55 20.475C15.0333 21.275 13.4417 21.65 11.775 21.6C10.1083 21.5667 8.55 21.1333 7.1 20.3C5.66667 19.45 4.525 18.2833 3.675 16.8C3.325 16.2 3.03333 15.5583 2.8 14.875L3.725 14.7C3.94167 15.2833 4.19167 15.8333 4.475 16.35C5.25833 17.6833 6.3 18.725 7.6 19.475C8.91667 20.225 10.325 20.6167 11.825 20.65C13.3417 20.6833 14.7667 20.3333 16.1 19.6L16.55 20.475ZM11.5 5.075L13.825 2.95L11.5 0.799999L12.125 0.2L14.85 2.95L12.125 5.675L11.5 5.075ZM18.25 15.05L18.95 18.125L21.95 17.2L22.175 18.025L18.425 19.025L17.4 15.275L18.25 15.05ZM6.225 15.875L3.225 14.925L2.55 18L1.725 17.8L2.725 14.025L6.475 15.05L6.225 15.875Z" fill="black"/>
</g>
<defs>
<clipPath id="clip0_3359_3660">
<rect width="24" height="24" fill="white"/>
</clipPath>
</defs>
</svg>
