<svg width="24" height="24" viewBox="0 0 24 24" fill="none" xmlns="http://www.w3.org/2000/svg">
<g clip-path="url(#clip0_3232_1231)">
<rect width="24" height="24" fill="white"/>
<path d="M7.65049 6.325C6.76716 6.99167 6.06716 7.81667 5.55049 8.8C5.05049 9.76667 4.80049 10.8333 4.80049 12C4.80049 12.3833 4.85882 12.8417 4.97549 13.375L2.60049 14C2.45049 13.1833 2.37549 12.5167 2.37549 12C2.37549 10.4833 2.70049 9.06667 3.35049 7.75C4.01716 6.43333 4.93382 5.31667 6.10049 4.4L7.65049 6.325ZM6.32549 16.35C6.99216 17.2333 7.81716 17.9333 8.80049 18.45C9.78382 18.95 10.8505 19.2 12.0005 19.2C12.3838 19.2 12.8422 19.1417 13.3755 19.025L14.0005 21.4C13.1838 21.55 12.5172 21.625 12.0005 21.625C10.4838 21.625 9.06716 21.3 7.75049 20.65C6.43382 19.9833 5.31716 19.0667 4.40049 17.9L6.32549 16.35ZM16.3505 17.675C17.2338 17.0083 17.9255 16.1917 18.4255 15.225C18.9422 14.2417 19.2005 13.1667 19.2005 12C19.2005 11.6167 19.1422 11.1583 19.0255 10.625L21.4005 10C21.5505 10.8167 21.6255 11.4833 21.6255 12C21.6255 13.5167 21.2922 14.9333 20.6255 16.25C19.9755 17.5667 19.0672 18.6833 17.9005 19.6L16.3505 17.675ZM17.6755 7.65C17.0088 6.76667 16.1838 6.075 15.2005 5.575C14.2172 5.05833 13.1505 4.8 12.0005 4.8C11.6172 4.8 11.1588 4.85833 10.6255 4.975L10.0005 2.6C10.8172 2.45 11.4838 2.375 12.0005 2.375C13.5172 2.375 14.9338 2.70833 16.2505 3.375C17.5672 4.025 18.6838 4.93333 19.6005 6.1L17.6755 7.65ZM3.60049 15.675L0.150488 12.175H2.47549H3.57549H4.70049H7.02549L3.60049 15.675ZM15.6755 20.4L12.1755 23.85V21.525V20.425V19.3V16.975L15.6755 20.4ZM20.4005 8.325L23.8505 11.825H21.5255H20.4255H19.3005H16.9755L20.4005 8.325ZM8.32549 3.6L11.8255 0.149999V2.475V3.575V4.7V7.025L8.32549 3.6Z" fill="black"/>
</g>
<defs>
<clipPath id="clip0_3232_1231">
<rect width="24" height="24" fill="white"/>
</clipPath>
</defs>
</svg>
