<svg width="24" height="24" viewBox="0 0 24 24" fill="none" xmlns="http://www.w3.org/2000/svg">
<g clip-path="url(#clip0_3359_3664)">
<rect width="24" height="24" fill="white"/>
<path d="M2.425 11.025C2.575 9.425 3.09167 7.96667 3.975 6.65C4.875 5.31667 6.025 4.275 7.425 3.525C8.84167 2.75833 10.3667 2.375 12 2.375C12.5167 2.375 13.15 2.44167 13.9 2.575L13.4 4.425C12.8333 4.325 12.3667 4.275 12 4.275C10.6833 4.275 9.45833 4.58333 8.325 5.2C7.20833 5.81667 6.29167 6.65833 5.575 7.725C4.875 8.775 4.46667 9.95 4.35 11.25L2.425 11.025ZM17.625 4.2C18.9417 5.13333 19.95 6.31667 20.65 7.75C21.35 9.16667 21.675 10.675 21.625 12.275C21.575 13.875 21.1417 15.3833 20.325 16.8C19.9917 17.3667 19.6167 17.8833 19.2 18.35L17.85 17C18.1833 16.65 18.4667 16.2667 18.7 15.85C19.35 14.7167 19.6833 13.5083 19.7 12.225C19.7333 10.9417 19.4667 9.73333 18.9 8.6C18.3333 7.45 17.525 6.5 16.475 5.75L17.625 4.2ZM15.95 20.775C14.4833 21.4417 12.95 21.7167 11.35 21.6C9.76667 21.5 8.29167 21.0333 6.925 20.2C5.575 19.3667 4.49167 18.2333 3.675 16.8C3.39167 16.3333 3.13333 15.7583 2.9 15.075L4.75 14.575C4.88333 15.0083 5.06667 15.4333 5.3 15.85C5.96667 17 6.84167 17.9083 7.925 18.575C9.025 19.2417 10.2083 19.6167 11.475 19.7C12.7583 19.7833 13.9917 19.55 15.175 19L15.95 20.775ZM12 3.7V3.25V2.825V0.0249988L15.25 3.275L12 6.525V3.7ZM19.2 16.175L19.575 16.375L19.925 16.6L22.375 18L17.925 19.2L16.75 14.75L19.2 16.175ZM4.8 16.15L4.425 16.375L4.05 16.575L1.625 17.975L2.825 13.525L7.25 14.725L4.8 16.15Z" fill="black"/>
</g>
<defs>
<clipPath id="clip0_3359_3664">
<rect width="24" height="24" fill="white"/>
</clipPath>
</defs>
</svg>
