<svg width="24" height="24" viewBox="0 0 24 24" fill="none" xmlns="http://www.w3.org/2000/svg">
<g clip-path="url(#clip0_3359_3650)">
<rect width="24" height="24" fill="white"/>
<path d="M15.4755 20.975C14.0255 21.5417 12.5422 21.7417 11.0255 21.575C9.50882 21.4083 8.10049 20.9167 6.80049 20.1C5.50049 19.2667 4.45882 18.1583 3.67549 16.775C3.49216 16.4583 3.34216 16.175 3.22549 15.925C3.12549 15.675 3.01716 15.375 2.90049 15.025L4.75049 14.55C4.81716 14.7667 4.89216 14.9833 4.97549 15.2C5.07549 15.4 5.19216 15.6167 5.32549 15.85C5.97549 16.9667 6.83382 17.8583 7.90049 18.525C8.96716 19.175 10.1255 19.55 11.3755 19.65C12.6255 19.75 13.8255 19.5583 14.9755 19.075L15.4755 20.975ZM4.67549 15.75L4.30049 15.975L3.92549 16.175L1.50049 17.575L2.70049 13.125L7.12549 14.325L4.67549 15.75ZM2.47549 10.475C2.70882 8.94167 3.27549 7.55833 4.17549 6.325C5.07549 5.09167 6.20882 4.125 7.57549 3.425C8.94216 2.725 10.4172 2.375 12.0005 2.375C12.3672 2.375 12.6838 2.39167 12.9505 2.425C13.2338 2.44167 13.5505 2.49167 13.9005 2.575L13.4005 4.4C13.1838 4.35 12.9588 4.31667 12.7255 4.3C12.4922 4.26667 12.2422 4.25 11.9755 4.25C10.6922 4.25 9.49216 4.55 8.37549 5.15C7.27549 5.75 6.36716 6.56667 5.65049 7.6C4.93382 8.61667 4.50049 9.75 4.35049 11L2.47549 10.475ZM18.9005 16.475L19.2755 16.675L19.6255 16.9L22.0755 18.3L17.6255 19.5L16.4505 15.05L18.9005 16.475ZM17.8255 17C17.9755 16.8333 18.1172 16.6583 18.2505 16.475C18.4005 16.2917 18.5422 16.0833 18.6755 15.85C19.3255 14.7333 19.6672 13.55 19.7005 12.3C19.7338 11.0333 19.4838 9.84167 18.9505 8.725C18.4172 7.59167 17.6505 6.64167 16.6505 5.875L18.0255 4.5C19.2255 5.46667 20.1338 6.65 20.7505 8.05C21.3838 9.43333 21.6672 10.9 21.6005 12.45C21.5338 13.9833 21.1005 15.4333 20.3005 16.8C20.1172 17.1167 19.9422 17.3917 19.7755 17.625C19.6088 17.8417 19.4088 18.0833 19.1755 18.35L17.8255 17ZM12.4255 3.8V3.35V2.925V0.124999L15.6755 3.375L12.4255 6.625V3.8Z" fill="black"/>
</g>
<defs>
<clipPath id="clip0_3359_3650">
<rect width="24" height="24" fill="white"/>
</clipPath>
</defs>
</svg>
