<svg width="24" height="24" viewBox="0 0 24 24" fill="none" xmlns="http://www.w3.org/2000/svg">
<g clip-path="url(#clip0_3359_3584)">
<rect width="24" height="24" fill="white"/>
<path d="M19.5755 13.4C19.6755 12.8333 19.7255 12.3667 19.7255 12C19.7255 10.7667 19.4505 9.61667 18.9005 8.55C18.3672 7.48333 17.6255 6.59167 16.6755 5.875L18.0505 4.5C19.1672 5.4 20.0422 6.5 20.6755 7.8C21.3088 9.1 21.6255 10.5 21.6255 12C21.6255 12.5167 21.5588 13.15 21.4255 13.9L19.5755 13.4ZM11.5005 20.2V20.65V21.075V23.875L8.25049 20.625L11.5005 17.375V20.2ZM5.87549 19.5C4.75882 18.6 3.88382 17.5 3.25049 16.2C2.61716 14.9 2.30049 13.5 2.30049 12C2.30049 11.4833 2.36716 10.85 2.50049 10.1L4.35049 10.6C4.25049 11.1667 4.20049 11.6333 4.20049 12C4.20049 13.2333 4.46716 14.3833 5.00049 15.45C5.55049 16.5167 6.30049 17.4083 7.25049 18.125L5.87549 19.5ZM3.72549 11.5H3.27549H2.85049H0.0504883L3.30049 8.25L6.55049 11.5H3.72549ZM12.0005 21.625C11.4838 21.625 10.8505 21.5583 10.1005 21.425L10.6005 19.575C11.1672 19.675 11.6338 19.725 12.0005 19.725C13.2338 19.725 14.3838 19.4583 15.4505 18.925C16.5172 18.375 17.4088 17.625 18.1255 16.675L19.5005 18.05C18.6005 19.1667 17.5005 20.0417 16.2005 20.675C14.9005 21.3083 13.5005 21.625 12.0005 21.625ZM4.42549 5.95C5.32549 4.83333 6.42549 3.95833 7.72549 3.325C9.02549 2.69167 10.4255 2.375 11.9255 2.375C12.4422 2.375 13.0755 2.44167 13.8255 2.575L13.3255 4.425C12.7588 4.325 12.2922 4.275 11.9255 4.275C10.6922 4.275 9.54216 4.55 8.47549 5.1C7.40882 5.63333 6.51716 6.375 5.80049 7.325L4.42549 5.95ZM20.2005 12.5H20.6505H21.0755H23.8755L20.6255 15.75L17.3755 12.5H20.2005ZM12.4255 3.8V3.35V2.925V0.124999L15.6755 3.375L12.4255 6.625V3.8Z" fill="black"/>
</g>
<defs>
<clipPath id="clip0_3359_3584">
<rect width="24" height="24" fill="white"/>
</clipPath>
</defs>
</svg>
