<svg width="24" height="24" viewBox="0 0 24 24" fill="none" xmlns="http://www.w3.org/2000/svg">
<g clip-path="url(#clip0_3232_913)">
<rect width="24" height="24" fill="white"/>
<path d="M17.1755 3.875C18.5422 4.75833 19.6255 5.91667 20.4255 7.35C21.2255 8.76667 21.6255 10.3167 21.6255 12C21.6255 12.65 21.5588 13.35 21.4255 14.1L20.5005 13.8C20.6172 13.1833 20.6755 12.5833 20.6755 12C20.6755 10.4833 20.3088 9.08333 19.5755 7.8C18.8422 6.5 17.8588 5.46667 16.6255 4.7L17.1755 3.875ZM20.1255 17.175C19.2422 18.5417 18.0838 19.625 16.6505 20.425C15.2338 21.225 13.6838 21.625 12.0005 21.625C11.3505 21.625 10.6505 21.5583 9.90049 21.425L10.2005 20.5C10.8172 20.6167 11.4172 20.675 12.0005 20.675C13.5172 20.675 14.9172 20.3083 16.2005 19.575C17.5005 18.8417 18.5338 17.8583 19.3005 16.625L20.1255 17.175ZM6.82549 20.125C5.45882 19.2417 4.37549 18.0917 3.57549 16.675C2.77549 15.2417 2.37549 13.6833 2.37549 12C2.37549 11.35 2.44216 10.65 2.57549 9.9L3.50049 10.2C3.38382 10.8167 3.32549 11.4167 3.32549 12C3.32549 13.5167 3.69215 14.925 4.42549 16.225C5.15882 17.5083 6.14216 18.5333 7.37549 19.3L6.82549 20.125ZM3.87549 6.825C4.75882 5.45833 5.90882 4.375 7.32549 3.575C8.75882 2.775 10.3172 2.375 12.0005 2.375C12.6505 2.375 13.3505 2.44167 14.1005 2.575L13.8005 3.5C13.1838 3.38333 12.5838 3.325 12.0005 3.325C10.4838 3.325 9.07549 3.69167 7.77549 4.425C6.49216 5.15833 5.46716 6.14167 4.70049 7.375L3.87549 6.825ZM18.9505 11.45L21.0755 13.775L23.2255 11.45L23.8255 12.05L21.0755 14.8L18.3505 12.05L18.9505 11.45ZM12.5505 18.95L10.2255 21.075L12.5505 23.225L11.9505 23.825L9.20049 21.075L11.9505 18.35L12.5505 18.95ZM5.05049 12.55L2.92549 10.225L0.775488 12.55L0.175488 11.95L2.92549 9.2L5.65049 11.95L5.05049 12.55ZM11.4505 5.05L13.7755 2.925L11.4505 0.775L12.0505 0.174998L14.8005 2.925L12.0505 5.65L11.4505 5.05Z" fill="black"/>
</g>
<defs>
<clipPath id="clip0_3232_913">
<rect width="24" height="24" fill="white"/>
</clipPath>
</defs>
</svg>
