<svg width="24" height="24" viewBox="0 0 24 24" fill="none" xmlns="http://www.w3.org/2000/svg">
<g clip-path="url(#clip0_3359_3654)">
<rect width="24" height="24" fill="white"/>
<path d="M14.8505 21.2C13.9005 21.5167 12.9088 21.65 11.8755 21.6C10.8422 21.5667 9.81716 21.35 8.80049 20.95C7.78382 20.5333 6.85882 19.9333 6.02549 19.15C5.19216 18.6 4.50049 17.9417 3.95049 17.175C3.40049 16.4083 3.00882 15.5667 2.77549 14.65L5.60049 13.875C5.75049 14.475 6.00882 15.025 6.37549 15.525C6.74216 16.025 7.20049 16.4583 7.75049 16.825C8.33382 17.4083 8.98382 17.8583 9.70049 18.175C10.4338 18.475 11.1755 18.6333 11.9255 18.65C12.6755 18.6667 13.4005 18.5583 14.1005 18.325L14.8505 21.2ZM6.97549 14.075L6.77549 14.175L2.22549 16.8L1.30049 17.35L2.67549 12.1L7.90049 13.525L6.97549 14.075ZM2.60049 9.85C2.81716 8.86667 3.19216 7.94167 3.72549 7.075C4.27549 6.19167 4.98382 5.41667 5.85049 4.75C6.71716 4.06667 7.70049 3.56667 8.80049 3.25C9.68382 2.8 10.5922 2.525 11.5255 2.425C12.4755 2.325 13.4088 2.40833 14.3255 2.675L13.5755 5.5C12.9922 5.33333 12.3838 5.28333 11.7505 5.35C11.1338 5.41667 10.5338 5.59167 9.95049 5.875C9.15049 6.09167 8.43382 6.44167 7.80049 6.925C7.16716 7.40833 6.65049 7.96667 6.25049 8.6C5.86716 9.23333 5.60882 9.90833 5.47549 10.625L2.60049 9.85ZM16.2755 15.325L16.5005 15.45L21.0505 18.075L21.9755 18.6L16.7505 20.025L15.3755 14.8L16.2755 15.325ZM16.8255 16.6C17.2588 16.1833 17.6005 15.6917 17.8505 15.125C18.1172 14.5583 18.2672 13.9417 18.3005 13.275C18.5172 12.475 18.5755 11.6833 18.4755 10.9C18.3755 10.1167 18.1505 9.4 17.8005 8.75C17.4505 8.08333 16.9922 7.50833 16.4255 7.025L18.5255 4.925C19.2755 5.59167 19.8922 6.38333 20.3755 7.3C20.8755 8.21667 21.2005 9.21667 21.3505 10.3C21.5005 11.3833 21.4422 12.4833 21.1755 13.6C21.1255 14.5833 20.9005 15.5083 20.5005 16.375C20.1172 17.225 19.5838 17.9917 18.9005 18.675L16.8255 16.6ZM12.7505 6.625V6.375V1.125V0.0499985L16.5755 3.875L12.7505 7.7V6.625Z" fill="black"/>
</g>
<defs>
<clipPath id="clip0_3359_3654">
<rect width="24" height="24" fill="white"/>
</clipPath>
</defs>
</svg>
