<svg width="24" height="24" viewBox="0 0 24 24" fill="none" xmlns="http://www.w3.org/2000/svg">
<g clip-path="url(#clip0_3359_3615)">
<rect width="24" height="24" fill="white"/>
<path d="M2.57549 14.025C2.44216 13.275 2.37549 12.6 2.37549 12C2.37549 10.45 2.72549 9 3.42549 7.65C4.14216 6.28333 5.10049 5.15833 6.30049 4.275L7.32549 5.3C6.24216 6.05 5.38382 7.01667 4.75049 8.2C4.11716 9.36667 3.80049 10.6333 3.80049 12C3.80049 12.4833 3.85049 13.025 3.95049 13.625L2.57549 14.025ZM15.3255 20.85L12.8755 23.325V21.65V20.95V19.975V18.375L15.3255 20.85ZM16.7255 18.7C17.8088 17.95 18.6672 16.9917 19.3005 15.825C19.9338 14.6417 20.2505 13.3667 20.2505 12C20.2505 11.45 20.2005 10.9083 20.1005 10.375L21.4755 9.975C21.6088 10.725 21.6755 11.4 21.6755 12C21.6755 13.5667 21.3255 15.025 20.6255 16.375C19.9255 17.725 18.9672 18.8417 17.7505 19.725L16.7255 18.7ZM20.8755 8.675L23.3755 11.125H21.6755H21.0005H20.0005H18.4255L20.8755 8.675ZM12.0005 21.625C10.4505 21.625 8.99216 21.275 7.62549 20.575C6.27549 19.8583 5.15882 18.9 4.27549 17.7L5.30049 16.675C6.05049 17.7583 7.00882 18.6167 8.17549 19.25C9.35882 19.8833 10.6338 20.2 12.0005 20.2C12.4838 20.2 13.0255 20.15 13.6255 20.05L14.0255 21.425C13.2755 21.5583 12.6005 21.625 12.0005 21.625ZM18.7255 7.325C17.9755 6.24167 17.0172 5.38333 15.8505 4.75C14.6838 4.11667 13.4172 3.8 12.0505 3.8C11.5838 3.8 11.0505 3.85 10.4505 3.95L10.0505 2.575C10.8005 2.44167 11.4672 2.375 12.0505 2.375C13.6172 2.375 15.0755 2.73333 16.4255 3.45C17.7755 4.15 18.8922 5.1 19.7755 6.3L18.7255 7.325ZM3.15049 15.325L0.675488 12.875H2.35049H3.05049H4.02549H5.62549L3.15049 15.325ZM8.70049 3.15L11.1755 0.674999V2.35V3.05V4.025V5.625L8.70049 3.15Z" fill="black"/>
</g>
<defs>
<clipPath id="clip0_3359_3615">
<rect width="24" height="24" fill="white"/>
</clipPath>
</defs>
</svg>
