<svg width="24" height="24" viewBox="0 0 24 24" fill="none" xmlns="http://www.w3.org/2000/svg">
<g clip-path="url(#clip0_3340_11222)">
<rect width="24" height="24" fill="white"/>
<path d="M19.6505 11.25C19.5338 9.95 19.1172 8.775 18.4005 7.725C17.7005 6.65833 16.7838 5.81667 15.6505 5.2C14.5338 4.58333 13.3172 4.275 12.0005 4.275C11.6338 4.275 11.1672 4.325 10.6005 4.425L10.1005 2.575C10.8505 2.44167 11.4838 2.375 12.0005 2.375C13.6338 2.375 15.1505 2.75833 16.5505 3.525C17.9672 4.275 19.1172 5.31667 20.0005 6.65C20.9005 7.96667 21.4255 9.425 21.5755 11.025L19.6505 11.25ZM7.52549 5.75C6.47549 6.5 5.66716 7.45 5.10049 8.6C4.53382 9.73333 4.25882 10.9417 4.27549 12.225C4.30882 13.5083 4.65049 14.7167 5.30049 15.85C5.53382 16.2667 5.81716 16.65 6.15049 17L4.80049 18.35C4.38382 17.8833 4.00882 17.3667 3.67549 16.8C2.85882 15.3833 2.42549 13.875 2.37549 12.275C2.32549 10.675 2.65049 9.16667 3.35049 7.75C4.05049 6.31667 5.05882 5.13333 6.37549 4.2L7.52549 5.75ZM8.82549 19C10.0088 19.55 11.2338 19.7833 12.5005 19.7C13.7838 19.6167 14.9672 19.2417 16.0505 18.575C17.1505 17.9083 18.0338 17 18.7005 15.85C18.9338 15.4333 19.1172 15.0083 19.2505 14.575L21.1005 15.075C20.8672 15.7583 20.6088 16.3333 20.3255 16.8C19.5088 18.2333 18.4172 19.3667 17.0505 20.2C15.7005 21.0333 14.2255 21.5 12.6255 21.6C11.0422 21.7167 9.51716 21.4417 8.05049 20.775L8.82549 19ZM8.75049 3.275L12.0005 0.0249988V2.825V3.25V3.7V6.525L8.75049 3.275ZM6.07549 19.2L1.62549 18L4.07549 16.6L4.42549 16.375L4.80049 16.175L7.25049 14.75L6.07549 19.2ZM21.1755 13.525L22.3755 17.975L19.9505 16.575L19.5755 16.375L19.2005 16.15L16.7505 14.725L21.1755 13.525Z" fill="black"/>
</g>
<defs>
<clipPath id="clip0_3340_11222">
<rect width="24" height="24" fill="white"/>
</clipPath>
</defs>
</svg>
