<svg width="24" height="24" viewBox="0 0 24 24" fill="none" xmlns="http://www.w3.org/2000/svg">
<g clip-path="url(#clip0_3359_3668)">
<rect width="24" height="24" fill="white"/>
<path d="M2.525 10.375C2.80833 8.80833 3.41667 7.41667 4.35 6.2C5.3 4.98333 6.45 4.04167 7.8 3.375C9.15 2.69167 10.55 2.35833 12 2.375C12.5333 2.375 13.2333 2.44167 14.1 2.575L13.35 5.5C12.8667 5.41667 12.4083 5.375 11.975 5.375C10.925 5.35833 9.93333 5.58333 9 6.05C8.08333 6.5 7.30833 7.14167 6.675 7.975C6.05833 8.80833 5.65833 9.78333 5.475 10.9L2.525 10.375ZM18.15 4.625C19.3667 5.64167 20.2667 6.86667 20.85 8.3C21.4333 9.71667 21.675 11.175 21.575 12.675C21.475 14.1583 21.0583 15.5333 20.325 16.8C20.025 17.3167 19.6167 17.8917 19.1 18.525L16.925 16.425C17.175 16.175 17.4417 15.8 17.725 15.3C18.2583 14.4 18.5583 13.4417 18.625 12.425C18.6917 11.3917 18.5167 10.3917 18.1 9.425C17.6833 8.45833 17.0417 7.625 16.175 6.925L18.15 4.625ZM15.325 21C13.825 21.55 12.3083 21.725 10.775 21.525C9.25833 21.325 7.875 20.8083 6.625 19.975C5.375 19.1417 4.39167 18.0833 3.675 16.8C3.375 16.2833 3.08333 15.65 2.8 14.9L5.675 14.075C5.80833 14.4583 6 14.8667 6.25 15.3C6.76667 16.2167 7.45 16.9667 8.3 17.55C9.16667 18.1167 10.1167 18.4667 11.15 18.6C12.2 18.7167 13.25 18.575 14.3 18.175L15.325 21ZM12.325 5.725V3.925V2.175V0.299998L16.075 3.95L12.325 7.575V5.725ZM17.25 15.45L18.8 16.35L20.325 17.225L21.95 18.15L16.925 19.575L15.675 14.525L17.25 15.45ZM6.375 14.85L4.85 15.75L3.325 16.625L1.7 17.55L2.975 12.5L7.975 13.925L6.375 14.85Z" fill="black"/>
</g>
<defs>
<clipPath id="clip0_3359_3668">
<rect width="24" height="24" fill="white"/>
</clipPath>
</defs>
</svg>
