<svg width="24" height="24" viewBox="0 0 24 24" fill="none" xmlns="http://www.w3.org/2000/svg">
<g clip-path="url(#clip0_3232_1879)">
<rect width="24" height="24" fill="white"/>
<path d="M19.7505 9.35H9.97549C9.04216 9.35 8.18382 9.575 7.40049 10.025C6.63382 10.475 6.02549 11.0917 5.57549 11.875C5.12549 12.6583 4.90049 13.5167 4.90049 14.45V21H3.00049V14.45C3.00049 13.1667 3.30882 12 3.92549 10.95C4.54216 9.88333 5.38382 9.04167 6.45049 8.425C7.51716 7.80833 8.69216 7.5 9.97549 7.5H19.7505V9.35ZM14.0005 13.875L19.7505 8.5L14.0005 3.125L15.3505 1.775L22.0755 8.5L15.3505 15.225L14.0005 13.875Z" fill="black"/>
</g>
<defs>
<clipPath id="clip0_3232_1879">
<rect width="24" height="24" fill="white"/>
</clipPath>
</defs>
</svg>
