<svg width="24" height="24" viewBox="0 0 24 24" fill="none" xmlns="http://www.w3.org/2000/svg">
<g clip-path="url(#clip0_3254_17773)">
<rect width="24" height="24" fill="white"/>
<path d="M17.05 20.675C15.5167 21.5583 13.8333 22 12 22C10.1667 22 8.48333 21.5583 6.95 20.675C5.41667 19.7917 4.20833 18.5833 3.325 17.05C2.44167 15.5167 2 13.8333 2 12C2 10.1667 2.44167 8.48333 3.325 6.95C4.20833 5.41667 5.41667 4.20833 6.95 3.325C8.48333 2.44167 10.1667 2 12 2C13.8333 2 15.5167 2.44167 17.05 3.325C18.5833 4.20833 19.7917 5.41667 20.675 6.95C21.5583 8.48333 22 10.1667 22 12C22 13.8333 21.5583 15.5167 20.675 17.05C19.7917 18.5833 18.5833 19.7917 17.05 20.675ZM8.225 12.25H6.95C6.95 13.1833 7.175 14.0333 7.625 14.8C8.075 15.5667 8.68333 16.175 9.45 16.625C10.2167 17.0583 11.0667 17.275 12 17.275C12.9333 17.275 13.7833 17.0583 14.55 16.625C15.3167 16.175 15.925 15.5667 16.375 14.8C16.825 14.0333 17.05 13.1833 17.05 12.25C17.05 11.3167 16.825 10.4667 16.375 9.7C15.925 8.93333 15.3167 8.33333 14.55 7.9C13.7833 7.45 12.9333 7.225 12 7.225H11.625V6.625V5.475L9.1 7.85L11.625 10.2V9.225V8.475H12C12.6833 8.475 13.3167 8.64167 13.9 8.975C14.4833 9.30833 14.9417 9.76667 15.275 10.35C15.6083 10.9333 15.775 11.5667 15.775 12.25C15.775 12.9333 15.6083 13.5667 15.275 14.15C14.9417 14.7333 14.4833 15.1917 13.9 15.525C13.3167 15.8583 12.6833 16.025 12 16.025C11.3167 16.025 10.6833 15.8583 10.1 15.525C9.51667 15.1917 9.05833 14.7333 8.725 14.15C8.39167 13.5667 8.225 12.9333 8.225 12.25Z" fill="black"/>
</g>
<defs>
<clipPath id="clip0_3254_17773">
<rect width="24" height="24" fill="white"/>
</clipPath>
</defs>
</svg>
