<svg width="24" height="24" viewBox="0 0 24 24" fill="none" xmlns="http://www.w3.org/2000/svg">
<g clip-path="url(#clip0_3232_5065)">
<rect width="24" height="24" fill="white"/>
<path d="M17.05 20.675C15.5167 21.5583 13.8333 22 12 22C10.1667 22 8.48333 21.5583 6.95 20.675C5.41667 19.7917 4.20833 18.5833 3.325 17.05C2.44167 15.5167 2 13.8333 2 12C2 10.1667 2.44167 8.48333 3.325 6.95C4.20833 5.41667 5.41667 4.20833 6.95 3.325C8.48333 2.44167 10.1667 2 12 2C13.8333 2 15.5167 2.44167 17.05 3.325C18.5833 4.20833 19.7917 5.41667 20.675 6.95C21.5583 8.48333 22 10.1667 22 12C22 13.8333 21.5583 15.5167 20.675 17.05C19.7917 18.5833 18.5833 19.7917 17.05 20.675ZM8.7 12.25H6.95C6.95 13.1833 7.175 14.0333 7.625 14.8C8.075 15.5667 8.68333 16.175 9.45 16.625C10.2167 17.0583 11.0667 17.275 12 17.275C12.9333 17.275 13.7833 17.0583 14.55 16.625C15.3167 16.175 15.925 15.5667 16.375 14.8C16.825 14.0333 17.05 13.1833 17.05 12.25C17.05 11.3167 16.825 10.4667 16.375 9.7C15.925 8.93333 15.3167 8.33333 14.55 7.9C13.7833 7.45 12.9333 7.225 12 7.225H11.875V6.525V5.2L8.775 8.075L11.875 10.975V9.8V8.95H12C12.6 8.95 13.15 9.1 13.65 9.4C14.1667 9.68333 14.5667 10.0833 14.85 10.6C15.15 11.1 15.3 11.65 15.3 12.25C15.3 12.85 15.15 13.4083 14.85 13.925C14.5667 14.425 14.1667 14.825 13.65 15.125C13.15 15.4083 12.6 15.55 12 15.55C11.4 15.55 10.8417 15.4083 10.325 15.125C9.825 14.825 9.425 14.425 9.125 13.925C8.84167 13.4083 8.7 12.85 8.7 12.25Z" fill="black"/>
</g>
<defs>
<clipPath id="clip0_3232_5065">
<rect width="24" height="24" fill="white"/>
</clipPath>
</defs>
</svg>
