<svg width="24" height="24" viewBox="0 0 24 24" fill="none" xmlns="http://www.w3.org/2000/svg">
<g clip-path="url(#clip0_3232_2171)">
<rect width="24" height="24" fill="white"/>
<path d="M12.0005 21.5C10.2505 21.5 8.65049 21.0833 7.20049 20.25C5.75049 19.4 4.60049 18.25 3.75049 16.8C2.91716 15.35 2.50049 13.75 2.50049 12C2.50049 10.65 2.73382 9.425 3.20049 8.325C3.68382 7.225 4.30049 6.26667 5.05049 5.45L7.52549 7.85C7.04216 8.38333 6.66716 9 6.40049 9.7C6.13382 10.4 6.00049 11.1667 6.00049 12C6.00049 13.1167 6.26716 14.1417 6.80049 15.075C7.33382 15.9917 8.05882 16.7167 8.97549 17.25C9.89216 17.7833 10.9005 18.05 12.0005 18.05C13.1005 18.05 14.1088 17.7833 15.0255 17.25C15.9422 16.7167 16.6672 15.9917 17.2005 15.075C17.7338 14.1417 18.0005 13.1167 18.0005 12C18.0005 10.8833 17.7338 9.86667 17.2005 8.95C16.6672 8.01667 15.9422 7.28333 15.0255 6.75C14.1088 6.21667 13.1005 5.95 12.0005 5.95C11.4672 5.95 11.0172 5.99167 10.6505 6.075L9.80049 2.7C10.5505 2.56667 11.2838 2.5 12.0005 2.5C13.7505 2.5 15.3505 2.925 16.8005 3.775C18.2505 4.60833 19.3922 5.75 20.2255 7.2C21.0755 8.65 21.5005 10.25 21.5005 12C21.5005 13.75 21.0755 15.35 20.2255 16.8C19.3922 18.25 18.2505 19.4 16.8005 20.25C15.3505 21.0833 13.7505 21.5 12.0005 21.5ZM6.75049 4.325L11.2505 -8.34465e-07V0.224999V8.325V8.45V8.65L6.75049 4.325Z" fill="black"/>
</g>
<defs>
<clipPath id="clip0_3232_2171">
<rect width="24" height="24" fill="white"/>
</clipPath>
</defs>
</svg>
