<svg width="24" height="24" viewBox="0 0 24 24" fill="none" xmlns="http://www.w3.org/2000/svg">
<g clip-path="url(#clip0_3232_1309)">
<rect width="24" height="24" fill="white"/>
<path d="M10.4005 12.075C10.4005 12.4917 10.5255 12.825 10.7755 13.075C11.0255 13.325 11.3588 13.45 11.7755 13.45H16.8255V11.1H12.7755V6.825H10.4005V12.075ZM12.0005 2.5C13.7505 2.5 15.3505 2.925 16.8005 3.775C18.2505 4.60833 19.3922 5.75 20.2255 7.2C21.0755 8.65 21.5005 10.25 21.5005 12C21.5005 13.4333 21.2172 14.7583 20.6505 15.975C20.1005 17.1917 19.3422 18.2333 18.3755 19.1L16.7755 17.3C17.4922 16.6833 18.0505 15.9 18.4505 14.95C18.8672 14 19.0755 13.0167 19.0755 12C19.0755 10.7 18.7588 9.50833 18.1255 8.425C17.4922 7.34167 16.6338 6.48333 15.5505 5.85C14.4838 5.21667 13.3005 4.9 12.0005 4.9C10.7005 4.9 9.50882 5.21667 8.42549 5.85C7.35882 6.48333 6.50882 7.34167 5.87549 8.425C5.24216 9.50833 4.92549 10.7 4.92549 12C4.92549 13.3 5.24216 14.4917 5.87549 15.575C6.50882 16.6583 7.35882 17.5167 8.42549 18.15C9.50882 18.7833 10.7005 19.1 12.0005 19.1C12.5838 19.1 13.1088 19.0583 13.5755 18.975L14.2005 21.3C13.4505 21.4333 12.7172 21.5 12.0005 21.5C10.2505 21.5 8.65049 21.0833 7.20049 20.25C5.75049 19.4 4.60049 18.25 3.75049 16.8C2.91716 15.35 2.50049 13.75 2.50049 12C2.50049 10.25 2.91716 8.65 3.75049 7.2C4.60049 5.75 5.75049 4.60833 7.20049 3.775C8.65049 2.925 10.2505 2.5 12.0005 2.5ZM16.3255 20.225L12.5005 23.975V21.45V20.25V19.025V16.475L16.3255 20.225Z" fill="black"/>
</g>
<defs>
<clipPath id="clip0_3232_1309">
<rect width="24" height="24" fill="white"/>
</clipPath>
</defs>
</svg>
