<svg width="24" height="24" viewBox="0 0 24 24" fill="none" xmlns="http://www.w3.org/2000/svg">
<g clip-path="url(#clip0_3234_13895)">
<rect width="24" height="24" fill="white"/>
<path d="M16.5755 19.75V16.55L17.1005 17.925H9.97549C8.59216 17.925 7.32549 17.6 6.17549 16.95C5.04216 16.2833 4.14216 15.3833 3.47549 14.25C2.82549 13.1 2.50049 11.8417 2.50049 10.475C2.50049 9.10833 2.82549 7.85833 3.47549 6.725C4.14216 5.575 5.04216 4.66667 6.17549 4C7.32549 3.33333 8.59216 3 9.97549 3H12.0005V6.7H9.97549C9.29216 6.7 8.65882 6.86667 8.07549 7.2C7.50882 7.53333 7.05882 7.99167 6.72549 8.575C6.40882 9.14167 6.25049 9.775 6.25049 10.475C6.25049 11.1583 6.40882 11.7917 6.72549 12.375C7.05882 12.9417 7.50882 13.3917 8.07549 13.725C8.65882 14.0583 9.29216 14.225 9.97549 14.225H17.1005L16.5755 15.475V12.225V10.275L22.3255 16.025L16.5755 21.775V19.75Z" fill="black"/>
</g>
<defs>
<clipPath id="clip0_3234_13895">
<rect width="24" height="24" fill="white"/>
</clipPath>
</defs>
</svg>
