<svg width="24" height="24" viewBox="0 0 24 24" fill="none" xmlns="http://www.w3.org/2000/svg">
<g clip-path="url(#clip0_3232_1599)">
<rect width="24" height="24" fill="white"/>
<path d="M12.0005 21.5C10.2505 21.5 8.65049 21.0833 7.20049 20.25C5.75049 19.4 4.60049 18.25 3.75049 16.8C2.91716 15.35 2.50049 13.75 2.50049 12C2.50049 10.2833 2.92549 8.7 3.77549 7.25C4.64216 5.8 5.80049 4.65 7.25049 3.8C8.70049 2.93333 10.2838 2.5 12.0005 2.5C12.7172 2.5 13.4505 2.56667 14.2005 2.7L13.3505 6.075C13.0172 5.99167 12.5672 5.95 12.0005 5.95C10.9005 5.95 9.89216 6.225 8.97549 6.775C8.05882 7.30833 7.33382 8.04167 6.80049 8.975C6.26716 9.89167 6.00049 10.9 6.00049 12C6.00049 13.1 6.26716 14.1167 6.80049 15.05C7.33382 15.9667 8.05882 16.7 8.97549 17.25C9.89216 17.7833 10.9005 18.05 12.0005 18.05C13.1005 18.05 14.1088 17.7833 15.0255 17.25C15.9422 16.7 16.6672 15.9667 17.2005 15.05C17.7338 14.1167 18.0005 13.1 18.0005 12H21.5005C21.5005 13.75 21.0755 15.35 20.2255 16.8C19.3922 18.25 18.2505 19.4 16.8005 20.25C15.3505 21.0833 13.7505 21.5 12.0005 21.5ZM12.2505 8.45V7.1V4.45V2.15V-8.34465e-07L16.8505 4.225L12.2505 8.45ZM12.0005 8.9L14.6255 10.5V13.5L12.0005 15.1L9.37549 13.5V10.5L12.0005 8.9ZM10.7755 12H12.0005H13.2255H12.0005H10.7755Z" fill="black"/>
</g>
<defs>
<clipPath id="clip0_3232_1599">
<rect width="24" height="24" fill="white"/>
</clipPath>
</defs>
</svg>
