<svg width="24" height="24" viewBox="0 0 24 24" fill="none" xmlns="http://www.w3.org/2000/svg">
<g clip-path="url(#clip0_3232_1597)">
<rect width="24" height="24" fill="white"/>
<path d="M12.0005 21.5C10.2505 21.5 8.65049 21.0833 7.20049 20.25C5.75049 19.4 4.60049 18.25 3.75049 16.8C2.91716 15.35 2.50049 13.75 2.50049 12C2.50049 10.2667 2.92549 8.675 3.77549 7.225C4.62549 5.775 5.77549 4.625 7.22549 3.775C8.67549 2.925 10.2672 2.5 12.0005 2.5C12.7172 2.5 13.4505 2.56667 14.2005 2.7L13.4755 5.525C13.0588 5.44167 12.5672 5.4 12.0005 5.4C10.8005 5.4 9.70049 5.7 8.70049 6.3C7.70049 6.88333 6.90882 7.68333 6.32549 8.7C5.74216 9.7 5.45049 10.8 5.45049 12C5.45049 13.2 5.74216 14.3083 6.32549 15.325C6.90882 16.325 7.70049 17.125 8.70049 17.725C9.70049 18.3083 10.8005 18.6 12.0005 18.6C13.2005 18.6 14.3005 18.3083 15.3005 17.725C16.3005 17.125 17.0922 16.325 17.6755 15.325C18.2588 14.3083 18.5505 13.2 18.5505 12H21.5005C21.5005 13.75 21.0755 15.35 20.2255 16.8C19.3922 18.25 18.2505 19.4 16.8005 20.25C15.3505 21.0833 13.7505 21.5 12.0005 21.5ZM12.2505 7.975V6.625V4.15V1.95V-8.34465e-07L16.4755 4L12.2505 7.975ZM12.0005 8.9L14.7005 10.55V13.6L12.0005 15.25L9.30049 13.6V10.55L12.0005 8.9ZM10.7505 12.075H12.0005H13.2505H12.0005H10.7505Z" fill="black"/>
</g>
<defs>
<clipPath id="clip0_3232_1597">
<rect width="24" height="24" fill="white"/>
</clipPath>
</defs>
</svg>
