<svg width="24" height="24" viewBox="0 0 24 24" fill="none" xmlns="http://www.w3.org/2000/svg">
<g clip-path="url(#clip0_3392_10998)">
<rect width="24" height="24" fill="white"/>
<path d="M17.05 20.675C15.5167 21.5583 13.8333 22 12 22C10.1667 22 8.48333 21.5583 6.95 20.675C5.41667 19.7917 4.20833 18.5833 3.325 17.05C2.44167 15.5167 2 13.8333 2 12C2 10.1667 2.44167 8.48333 3.325 6.95C4.20833 5.41667 5.41667 4.20833 6.95 3.325C8.48333 2.44167 10.1667 2 12 2C13.8333 2 15.5167 2.44167 17.05 3.325C18.5833 4.20833 19.7917 5.41667 20.675 6.95C21.5583 8.48333 22 10.1667 22 12C22 13.8333 21.5583 15.5167 20.675 17.05C19.7917 18.5833 18.5833 19.7917 17.05 20.675ZM14.075 12.075L14.425 12.425L17.175 9.675L14.425 6.925L14.075 7.275L16.275 9.45H10.85C10.3 9.45 9.8 9.575 9.35 9.825C8.91667 10.0583 8.56667 10.3833 8.3 10.8C8.05 11.2167 7.925 11.6833 7.925 12.2V16.75H8.425V12.2C8.425 11.5667 8.65833 11.0333 9.125 10.6C9.59167 10.15 10.1667 9.925 10.85 9.925H16.25L14.075 12.075Z" fill="black"/>
</g>
<defs>
<clipPath id="clip0_3392_10998">
<rect width="24" height="24" fill="white"/>
</clipPath>
</defs>
</svg>
