<svg width="24" height="24" viewBox="0 0 24 24" fill="none" xmlns="http://www.w3.org/2000/svg">
<g clip-path="url(#clip0_3245_16637)">
<rect width="24" height="24" fill="white"/>
<path d="M8.32549 3.375L11.5755 0.124999V2.925V3.35V3.8V6.625L8.32549 3.375ZM15.6755 20.625L12.4255 23.875V21.075V20.65V20.2V17.375L15.6755 20.625ZM7.35049 5.875C6.33382 6.675 5.57549 7.60833 5.07549 8.675C4.57549 9.725 4.32549 10.8333 4.32549 12C4.32549 13.4 4.66716 14.6917 5.35049 15.875C6.03382 17.0583 6.95882 18 8.12549 18.7C9.30882 19.3833 10.6005 19.725 12.0005 19.725C12.3672 19.725 12.8338 19.675 13.4005 19.575L13.9005 21.425C13.1505 21.5583 12.5172 21.625 12.0005 21.625C10.2505 21.625 8.63382 21.2 7.15049 20.35C5.68382 19.4833 4.51716 18.3167 3.65049 16.85C2.80049 15.3667 2.37549 13.75 2.37549 12C2.37549 10.5667 2.67549 9.2 3.27549 7.9C3.89216 6.58333 4.79216 5.45 5.97549 4.5L7.35049 5.875ZM16.6505 18.125C17.6672 17.325 18.4255 16.4 18.9255 15.35C19.4255 14.2833 19.6755 13.1667 19.6755 12C19.6755 10.6 19.3338 9.30833 18.6505 8.125C17.9672 6.94167 17.0338 6.00833 15.8505 5.325C14.6838 4.625 13.4005 4.275 12.0005 4.275C11.6338 4.275 11.1672 4.325 10.6005 4.425L10.1005 2.575C10.8505 2.44167 11.4838 2.375 12.0005 2.375C13.7505 2.375 15.3588 2.80833 16.8255 3.675C18.3088 4.525 19.4755 5.69167 20.3255 7.175C21.1922 8.64167 21.6255 10.25 21.6255 12C21.6255 13.4333 21.3172 14.8083 20.7005 16.125C20.1005 17.425 19.2088 18.55 18.0255 19.5L16.6505 18.125Z" fill="black"/>
</g>
<defs>
<clipPath id="clip0_3245_16637">
<rect width="24" height="24" fill="white"/>
</clipPath>
</defs>
</svg>
