<svg width="24" height="24" viewBox="0 0 24 24" fill="none" xmlns="http://www.w3.org/2000/svg">
<g clip-path="url(#clip0_3392_10934)">
<rect width="24" height="24" fill="white"/>
<path d="M12.8755 7.775V7.65V0.499999V0.299998L16.7505 4.125L12.8755 7.95V7.775ZM11.1005 16.225V16.35V23.5V23.7L7.22549 19.875L11.1005 16.05V16.225ZM18.7755 5.15C19.5922 5.96667 20.2672 6.95833 20.8005 8.125C21.3505 9.275 21.6255 10.5667 21.6255 12C21.6255 13.75 21.1922 15.3667 20.3255 16.85C19.4755 18.3167 18.3088 19.4833 16.8255 20.35C15.3588 21.2 13.7505 21.625 12.0005 21.625C11.2672 21.625 10.5255 21.5583 9.77549 21.425L10.6255 18.15C10.9922 18.2333 11.4505 18.275 12.0005 18.275C13.1338 18.275 14.1755 18 15.1255 17.45C16.0922 16.8833 16.8505 16.125 17.4005 15.175C17.9505 14.2083 18.2255 13.15 18.2255 12C18.2255 11.0667 18.0505 10.2333 17.7005 9.5C17.3672 8.75 16.9338 8.09167 16.4005 7.525L18.7755 5.15ZM5.22549 18.85C4.40882 18.0333 3.72549 17.05 3.17549 15.9C2.64216 14.7333 2.37549 13.4333 2.37549 12C2.37549 10.25 2.80049 8.64167 3.65049 7.175C4.51716 5.69167 5.68382 4.525 7.15049 3.675C8.63382 2.80833 10.2505 2.375 12.0005 2.375C12.7338 2.375 13.4755 2.44167 14.2255 2.575L13.3755 5.85C13.0088 5.76667 12.5505 5.725 12.0005 5.725C10.8672 5.725 9.81716 6.00833 8.85049 6.575C7.90049 7.125 7.15049 7.88333 6.60049 8.85C6.05049 9.8 5.77549 10.85 5.77549 12C5.77549 12.9333 5.95049 13.7833 6.30049 14.55C6.65049 15.3 7.08382 15.9417 7.60049 16.475L5.22549 18.85ZM10.2505 7.975L12.0005 9.85L13.7505 7.95L16.0255 10.225L14.1255 12L16.0255 13.775L13.7505 16.025L12.0005 14.15L10.2505 16.025L7.97549 13.75L9.85049 12L7.97549 10.25L10.2505 7.975Z" fill="black"/>
</g>
<defs>
<clipPath id="clip0_3392_10934">
<rect width="24" height="24" fill="white"/>
</clipPath>
</defs>
</svg>
