<svg width="24" height="24" viewBox="0 0 24 24" fill="none" xmlns="http://www.w3.org/2000/svg">
<g clip-path="url(#clip0_3232_1547)">
<rect width="24" height="24" fill="white"/>
<path d="M12.9005 8.025V7.9V0.224999V0.0249988L17.0255 4.125L12.9005 8.225V8.025ZM11.1005 15.975V16.1V23.775V23.975L6.97549 19.875L11.1005 15.775V15.975ZM18.7755 5.15C19.5922 5.96667 20.2672 6.95833 20.8005 8.125C21.3505 9.275 21.6255 10.5667 21.6255 12C21.6255 13.75 21.1922 15.3667 20.3255 16.85C19.4755 18.3167 18.3088 19.4833 16.8255 20.35C15.3588 21.2 13.7505 21.625 12.0005 21.625C11.2672 21.625 10.5255 21.5583 9.77549 21.425L10.6505 18.05C11.0172 18.1333 11.4672 18.175 12.0005 18.175C13.1172 18.175 14.1422 17.9 15.0755 17.35C16.0255 16.8 16.7672 16.0583 17.3005 15.125C17.8505 14.175 18.1255 13.1333 18.1255 12C18.1255 11.0667 17.9588 10.2333 17.6255 9.5C17.2922 8.76667 16.8588 8.13333 16.3255 7.6L18.7755 5.15ZM5.22549 18.85C4.40882 18.0333 3.72549 17.05 3.17549 15.9C2.64216 14.7333 2.37549 13.4333 2.37549 12C2.37549 10.25 2.80049 8.64167 3.65049 7.175C4.51716 5.69167 5.68382 4.525 7.15049 3.675C8.63382 2.80833 10.2505 2.375 12.0005 2.375C12.7338 2.375 13.4755 2.44167 14.2255 2.575L13.3505 5.95C12.9838 5.86667 12.5338 5.825 12.0005 5.825C10.8838 5.825 9.85049 6.1 8.90049 6.65C7.96716 7.2 7.22549 7.95 6.67549 8.9C6.14216 9.83333 5.87549 10.8667 5.87549 12C5.87549 12.9333 6.04216 13.7667 6.37549 14.5C6.70882 15.2333 7.14216 15.8667 7.67549 16.4L5.22549 18.85Z" fill="black"/>
</g>
<defs>
<clipPath id="clip0_3232_1547">
<rect width="24" height="24" fill="white"/>
</clipPath>
</defs>
</svg>
