<svg width="24" height="24" viewBox="0 0 24 24" fill="none" xmlns="http://www.w3.org/2000/svg">
<g clip-path="url(#clip0_3374_5183)">
<rect width="24" height="24" fill="white"/>
<path d="M2.37549 12C2.37549 10.2833 2.80882 8.69167 3.67549 7.225C4.55882 5.74167 5.73382 4.56667 7.20049 3.7C8.68382 2.81667 10.2838 2.375 12.0005 2.375C12.7338 2.375 13.4755 2.44167 14.2255 2.575L13.4005 5.7C13.0338 5.61667 12.5672 5.575 12.0005 5.575C10.8505 5.575 9.78382 5.86667 8.80049 6.45C7.83382 7.03333 7.05882 7.81667 6.47549 8.8C5.90882 9.78333 5.62549 10.85 5.62549 12C5.62549 13.0333 5.82549 13.9417 6.22549 14.725C6.64216 15.4917 7.15049 16.1583 7.75049 16.725L5.60049 19.125C4.68382 18.275 3.91716 17.2583 3.30049 16.075C2.68382 14.875 2.37549 13.5167 2.37549 12ZM12.5005 6.5V4.025V1.6V0.2L16.5005 4.025L12.5005 7.85V6.5ZM21.6255 12C21.6255 13.7167 21.1838 15.3167 20.3005 16.8C19.4338 18.2667 18.2588 19.4417 16.7755 20.325C15.3088 21.1917 13.7172 21.625 12.0005 21.625C11.2672 21.625 10.5255 21.5583 9.77549 21.425L10.6005 18.3C10.9672 18.3833 11.4338 18.425 12.0005 18.425C13.1505 18.425 14.2088 18.1333 15.1755 17.55C16.1588 16.9667 16.9338 16.1833 17.5005 15.2C18.0838 14.2167 18.3755 13.15 18.3755 12C18.3755 10.9667 18.1672 10.0667 17.7505 9.3C17.3505 8.51667 16.8505 7.84167 16.2505 7.275L18.4005 4.875C19.3172 5.725 20.0838 6.75 20.7005 7.95C21.3172 9.13333 21.6255 10.4833 21.6255 12ZM11.5005 17.5V19.975V22.4V23.8L7.50049 19.975L11.5005 16.15V17.5ZM7.32549 11.75L9.72549 9.35L11.4005 11.175L14.2255 8.2L16.6255 10.6L11.4255 15.825L7.32549 11.75Z" fill="black"/>
</g>
<defs>
<clipPath id="clip0_3374_5183">
<rect width="24" height="24" fill="white"/>
</clipPath>
</defs>
</svg>
