<svg width="24" height="24" viewBox="0 0 24 24" fill="none" xmlns="http://www.w3.org/2000/svg">
<g clip-path="url(#clip0_3232_559)">
<rect width="24" height="24" fill="white"/>
<path d="M2.37549 12C2.37549 10.2667 2.80882 8.66667 3.67549 7.2C4.54216 5.71667 5.70882 4.54167 7.17549 3.675C8.65882 2.80833 10.2672 2.375 12.0005 2.375C12.7338 2.375 13.4755 2.44167 14.2255 2.575L14.0255 3.025C13.4255 2.90833 12.7505 2.85 12.0005 2.85C10.3672 2.85 8.85049 3.26667 7.45049 4.1C6.05049 4.91667 4.93382 6.03333 4.10049 7.45C3.28382 8.85 2.87549 10.3667 2.87549 12C2.87549 13.6167 3.28382 15.1333 4.10049 16.55C4.93382 17.9667 6.03382 19.075 7.40049 19.875L7.15049 20.3C5.71716 19.4667 4.55882 18.3083 3.67549 16.825C2.80882 15.325 2.37549 13.7167 2.37549 12ZM11.6755 5.1L14.0505 2.75L11.6755 0.399998L12.0005 0.0749997L14.6755 2.75L12.0005 5.425L11.6755 5.1ZM21.6255 12C21.6255 13.7333 21.1922 15.3417 20.3255 16.825C19.4588 18.2917 18.2838 19.4583 16.8005 20.325C15.3338 21.1917 13.7338 21.625 12.0005 21.625C11.2672 21.625 10.5255 21.5583 9.77549 21.425L9.97549 20.975C10.5755 21.0917 11.2505 21.15 12.0005 21.15C13.6338 21.15 15.1505 20.7417 16.5505 19.925C17.9505 19.0917 19.0588 17.975 19.8755 16.575C20.7088 15.1583 21.1255 13.6333 21.1255 12C21.1255 10.3833 20.7088 8.86667 19.8755 7.45C19.0588 6.03333 17.9672 4.925 16.6005 4.125L16.8505 3.7C18.2838 4.53333 19.4338 5.7 20.3005 7.2C21.1838 8.68333 21.6255 10.2833 21.6255 12ZM12.3255 18.9L9.95049 21.25L12.3255 23.6L12.0005 23.925L9.32549 21.25L12.0005 18.575L12.3255 18.9ZM12.3005 7.8L12.2255 13.5H11.7755L11.7005 7.8H12.3005ZM12.0005 15.175C12.1338 15.175 12.2505 15.225 12.3505 15.325C12.4505 15.425 12.5005 15.55 12.5005 15.7C12.5005 15.8333 12.4505 15.95 12.3505 16.05C12.2505 16.1333 12.1338 16.175 12.0005 16.175C11.8505 16.175 11.7255 16.1333 11.6255 16.05C11.5422 15.95 11.5005 15.8333 11.5005 15.7C11.5005 15.55 11.5422 15.425 11.6255 15.325C11.7255 15.225 11.8505 15.175 12.0005 15.175Z" fill="black"/>
</g>
<defs>
<clipPath id="clip0_3232_559">
<rect width="24" height="24" fill="white"/>
</clipPath>
</defs>
</svg>
