<svg width="24" height="24" viewBox="0 0 24 24" fill="none" xmlns="http://www.w3.org/2000/svg">
<g clip-path="url(#clip0_3232_491)">
<rect width="24" height="24" fill="white"/>
<path d="M12.0005 21.5C10.2505 21.5 8.65049 21.0833 7.20049 20.25C5.75049 19.4 4.60049 18.25 3.75049 16.8C2.91716 15.35 2.50049 13.75 2.50049 12C2.50049 10.25 2.91716 8.65 3.75049 7.2C4.60049 5.75 5.75049 4.60833 7.20049 3.775C8.65049 2.925 10.2505 2.5 12.0005 2.5C12.7172 2.5 13.4505 2.56667 14.2005 2.7L14.0005 3.15C13.4005 3.03333 12.7338 2.975 12.0005 2.975C10.3505 2.975 8.83382 3.375 7.45049 4.175C6.08382 4.975 5.00049 6.06667 4.20049 7.45C3.40049 8.83333 3.00049 10.35 3.00049 12C3.00049 13.65 3.40049 15.1667 4.20049 16.55C5.00049 17.9333 6.08382 19.025 7.45049 19.825C8.83382 20.625 10.3505 21.025 12.0005 21.025C13.6505 21.025 15.1588 20.625 16.5255 19.825C17.9088 19.025 19.0005 17.9333 19.8005 16.55C20.6005 15.1667 21.0005 13.65 21.0005 12C21.0005 10.3833 20.5922 8.88333 19.7755 7.5C18.9755 6.11667 17.8922 5.025 16.5255 4.225L16.7755 3.8C18.2088 4.63333 19.3505 5.78333 20.2005 7.25C21.0672 8.7 21.5005 10.2833 21.5005 12C21.5005 13.75 21.0755 15.35 20.2255 16.8C19.3922 18.25 18.2505 19.4 16.8005 20.25C15.3505 21.0833 13.7505 21.5 12.0005 21.5ZM11.4505 5.4L14.0005 2.875L11.4505 0.349999L11.8005 -8.34465e-07L14.6755 2.875L11.8005 5.75L11.4505 5.4Z" fill="black"/>
</g>
<defs>
<clipPath id="clip0_3232_491">
<rect width="24" height="24" fill="white"/>
</clipPath>
</defs>
</svg>
