<svg width="24" height="24" viewBox="0 0 24 24" fill="none" xmlns="http://www.w3.org/2000/svg">
<g clip-path="url(#clip0_3232_491)">
<rect width="24" height="24" fill="white"/>
<path d="M12.0255 21.5C10.2922 21.5 8.69216 21.075 7.22549 20.225C5.77549 19.375 4.62549 18.225 3.77549 16.775C2.92549 15.3083 2.50049 13.7083 2.50049 11.975C2.50049 10.275 2.92549 8.7 3.77549 7.25C4.62549 5.78333 5.77549 4.625 7.22549 3.775C8.69216 2.925 10.2922 2.5 12.0255 2.5C12.7255 2.5 13.4088 2.575 14.0755 2.725L13.8255 3.15C13.1255 3.03333 12.5255 2.975 12.0255 2.975C10.3922 2.975 8.88382 3.38333 7.50049 4.2C6.11716 5 5.01716 6.09167 4.20049 7.475C3.40049 8.85833 3.00049 10.3583 3.00049 11.975C3.00049 13.6083 3.40049 15.125 4.20049 16.525C5.01716 17.9083 6.11716 19.0083 7.50049 19.825C8.88382 20.625 10.3922 21.025 12.0255 21.025C13.6422 21.025 15.1338 20.625 16.5005 19.825C17.8838 19.0083 18.9755 17.9083 19.7755 16.525C20.5922 15.125 21.0005 13.6083 21.0005 11.975C21.0005 10.3583 20.6005 8.86667 19.8005 7.5C19.0005 6.13333 17.9338 5.05 16.6005 4.25L16.9505 3.9C18.3338 4.75 19.4338 5.89167 20.2505 7.325C21.0838 8.75833 21.5005 10.3083 21.5005 11.975C21.5005 13.7083 21.0755 15.3083 20.2255 16.775C19.3755 18.225 18.2172 19.375 16.7505 20.225C15.3005 21.075 13.7255 21.5 12.0255 21.5ZM11.2005 5.4L13.7505 2.875L11.2005 0.349999L11.5505 -8.34465e-07L14.4255 2.875L11.5505 5.75L11.2005 5.4Z" fill="black"/>
</g>
<defs>
<clipPath id="clip0_3232_491">
<rect width="24" height="24" fill="white"/>
</clipPath>
</defs>
</svg>
