<svg width="24" height="24" viewBox="0 0 24 24" fill="none" xmlns="http://www.w3.org/2000/svg">
<g clip-path="url(#clip0_3190_38058)">
<rect width="24" height="24" fill="white"/>
<path d="M13 7.75H18C18.35 7.75 18.6333 7.65 18.85 7.45C19.0833 7.23333 19.2 6.96667 19.2 6.65V3H21V6.65C21 7.45 20.7083 8.125 20.125 8.675C19.5583 9.225 18.85 9.5 18 9.5V15C18 15.9667 17.7833 16.875 17.35 17.725C16.9167 18.575 16.3167 19.2833 15.55 19.85C14.8 20.4167 13.95 20.775 13 20.925V7.75ZM11 20.925C10.05 20.775 9.19167 20.4167 8.425 19.85C7.675 19.2833 7.08333 18.575 6.65 17.725C6.21667 16.875 6 15.9667 6 15V9.5C5.15 9.5 4.43333 9.225 3.85 8.675C3.28333 8.125 3 7.45 3 6.65V3H4.8V6.65C4.8 6.96667 4.90833 7.23333 5.125 7.45C5.35833 7.65 5.65 7.75 6 7.75H11V20.925ZM1.5 11.375H7V13.125H1.5V11.375ZM17.2 11.375H22.5V13.125H17.2V11.375ZM8.275 5.75C8.275 5.06667 8.44167 4.44167 8.775 3.875C9.10833 3.29167 9.55833 2.83333 10.125 2.5C10.6917 2.16667 11.3167 2 12 2C12.6833 2 13.3083 2.16667 13.875 2.5C14.4417 2.83333 14.8833 3.29167 15.2 3.875C15.5333 4.44167 15.7 5.06667 15.7 5.75H8.275ZM18 15.125C18.55 15.125 19.05 15.2583 19.5 15.525C19.9667 15.7917 20.3333 16.1583 20.6 16.625C20.8667 17.075 21 17.575 21 18.125V21H19.2V18.125C19.2 17.775 19.0833 17.4833 18.85 17.25C18.6167 17 18.3333 16.875 18 16.875H17.3V15.125H18ZM6 16.875C5.66667 16.875 5.38333 17 5.15 17.25C4.91667 17.4833 4.8 17.775 4.8 18.125V21H3V18.125C3 17.575 3.13333 17.075 3.4 16.625C3.66667 16.1583 4.025 15.7917 4.475 15.525C4.94167 15.2583 5.45 15.125 6 15.125H6.9V16.875H6Z" fill="black"/>
</g>
<defs>
<clipPath id="clip0_3190_38058">
<rect width="24" height="24" fill="white"/>
</clipPath>
</defs>
</svg>
