<svg width="24" height="24" viewBox="0 0 24 24" fill="none" xmlns="http://www.w3.org/2000/svg">
<g clip-path="url(#clip0_3190_38062)">
<rect width="24" height="24" fill="white"/>
<path d="M13 7.75H17.825C18.0083 7.75 18.15 7.7 18.25 7.6C18.35 7.5 18.4 7.375 18.4 7.225V3H21.175V7.225C21.175 8.15833 20.875 8.94167 20.275 9.575C19.675 10.1917 18.9167 10.5 18 10.5V15.175C18 16.1417 17.7833 17.0417 17.35 17.875C16.9167 18.6917 16.3167 19.3667 15.55 19.9C14.8 20.4333 13.95 20.775 13 20.925V7.75ZM11 20.925C10.05 20.775 9.19167 20.4333 8.425 19.9C7.675 19.3667 7.08333 18.6917 6.65 17.875C6.21667 17.0417 6 16.1417 6 15.175V10.5C5.08333 10.5 4.325 10.1917 3.725 9.575C3.125 8.94167 2.825 8.15833 2.825 7.225V3H5.6V7.225C5.6 7.375 5.65 7.5 5.75 7.6C5.86667 7.7 6.00833 7.75 6.175 7.75H11V20.925ZM1.5 11.35H7V14.05H1.5V11.35ZM17.2 11.35H22.5V14.05H17.2V11.35ZM8.275 5.75C8.275 5.06667 8.44167 4.44167 8.775 3.875C9.10833 3.29167 9.55833 2.83333 10.125 2.5C10.6917 2.16667 11.3167 2 12 2C12.6833 2 13.3083 2.16667 13.875 2.5C14.4417 2.83333 14.8833 3.29167 15.2 3.875C15.5333 4.44167 15.7 5.06667 15.7 5.75H8.275ZM17.825 14.95C18.4417 14.95 19 15.1 19.5 15.4C20.0167 15.7 20.425 16.1083 20.725 16.625C21.025 17.125 21.175 17.6833 21.175 18.3V21H18.4V18.3C18.4 18.1167 18.3417 17.975 18.225 17.875C18.125 17.7583 17.9917 17.7 17.825 17.7H16.825V14.95H17.825ZM6.175 17.7C6.00833 17.7 5.86667 17.7583 5.75 17.875C5.65 17.975 5.6 18.1167 5.6 18.3V21H2.825V18.3C2.825 17.6833 2.975 17.125 3.275 16.625C3.575 16.1083 3.975 15.7 4.475 15.4C4.99167 15.1 5.55833 14.95 6.175 14.95H7.375V17.7H6.175Z" fill="black"/>
</g>
<defs>
<clipPath id="clip0_3190_38062">
<rect width="24" height="24" fill="white"/>
</clipPath>
</defs>
</svg>
