<svg width="24" height="24" viewBox="0 0 24 24" fill="none" xmlns="http://www.w3.org/2000/svg">
<g clip-path="url(#clip0_3190_38042)">
<rect width="24" height="24" fill="white"/>
<path d="M11.3255 7.375H12.6755V19.95H11.3255V7.375ZM18.1755 6.375C18.6088 6.375 18.9672 6.23333 19.2505 5.95C19.5338 5.65 19.6755 5.28333 19.6755 4.85V3H21.0005V4.85C21.0005 5.38333 20.8755 5.86667 20.6255 6.3C20.3755 6.71667 20.0338 7.05 19.6005 7.3C19.1838 7.53333 18.7088 7.65 18.1755 7.65H5.82549C5.29216 7.65 4.80882 7.53333 4.37549 7.3C3.95882 7.05 3.62549 6.71667 3.37549 6.3C3.12549 5.86667 3.00049 5.38333 3.00049 4.85V3H4.32549V4.85C4.32549 5.28333 4.46716 5.65 4.75049 5.95C5.05049 6.23333 5.40882 6.375 5.82549 6.375H18.1755ZM22.5005 10.9V12.175H17.3755V10.9H22.5005ZM1.50049 12.175V10.9H6.72549V12.175H1.50049ZM18.1755 15.35C18.6922 15.35 19.1672 15.475 19.6005 15.725C20.0338 15.975 20.3755 16.3167 20.6255 16.75C20.8755 17.1833 21.0005 17.6583 21.0005 18.175V21H19.6755V18.175C19.6755 17.7417 19.5255 17.3833 19.2255 17.1C18.9422 16.8 18.5922 16.65 18.1755 16.65H17.4755V15.35H18.1755ZM14.8505 6.175C14.8505 5.64167 14.7172 5.15833 14.4505 4.725C14.2005 4.275 13.8588 3.925 13.4255 3.675C12.9922 3.425 12.5172 3.3 12.0005 3.3C11.4838 3.3 11.0088 3.425 10.5755 3.675C10.1422 3.925 9.79216 4.275 9.52549 4.725C9.27549 5.15833 9.15049 5.64167 9.15049 6.175V6.95H7.82549V6.175C7.82549 5.40833 8.00882 4.70833 8.37549 4.075C8.74216 3.425 9.24216 2.91667 9.87549 2.55C10.5255 2.18333 11.2338 2 12.0005 2C12.7672 2 13.4672 2.18333 14.1005 2.55C14.7505 2.91667 15.2588 3.425 15.6255 4.075C15.9922 4.70833 16.1755 5.40833 16.1755 6.175V6.95H14.8505V6.175ZM5.82549 16.65C5.40882 16.65 5.05049 16.8 4.75049 17.1C4.46716 17.3833 4.32549 17.7417 4.32549 18.175V21H3.00049V18.175C3.00049 17.6583 3.12549 17.1833 3.37549 16.75C3.62549 16.3167 3.96716 15.975 4.40049 15.725C4.83382 15.475 5.30882 15.35 5.82549 15.35H6.62549V16.65H5.82549ZM6.00049 7.4H7.32549V15C7.32549 15.8667 7.53382 16.6583 7.95049 17.375C8.36716 18.0917 8.92549 18.6583 9.62549 19.075C10.3422 19.4917 11.1338 19.7 12.0005 19.7C12.8672 19.7 13.6505 19.4917 14.3505 19.075C15.0672 18.6583 15.6338 18.0917 16.0505 17.375C16.4672 16.6583 16.6755 15.8667 16.6755 15V7.4H18.0005V15C18.0005 16.1 17.7338 17.1083 17.2005 18.025C16.6672 18.9417 15.9422 19.6667 15.0255 20.2C14.1088 20.7333 13.1005 21 12.0005 21C10.9005 21 9.89216 20.7333 8.97549 20.2C8.05882 19.6667 7.33382 18.9417 6.80049 18.025C6.26716 17.1083 6.00049 16.1 6.00049 15V7.4Z" fill="black"/>
</g>
<defs>
<clipPath id="clip0_3190_38042">
<rect width="24" height="24" fill="white"/>
</clipPath>
</defs>
</svg>
