<svg width="24" height="24" viewBox="0 0 24 24" fill="none" xmlns="http://www.w3.org/2000/svg">
<g clip-path="url(#clip0_3190_38048)">
<rect width="24" height="24" fill="white"/>
<path d="M10.7755 19.5H13.2255H10.7755ZM18.1005 6.1C18.2172 6.1 18.3088 6.05833 18.3755 5.975C18.4588 5.89167 18.5005 5.78333 18.5005 5.65V3H21.2505V5.65C21.2505 6.23333 21.1088 6.76667 20.8255 7.25C20.5588 7.73333 20.1838 8.11667 19.7005 8.4C19.2172 8.68333 18.6838 8.825 18.1005 8.825H5.90049C5.31716 8.825 4.78382 8.68333 4.30049 8.4C3.83382 8.11667 3.45882 7.73333 3.17549 7.25C2.89216 6.76667 2.75049 6.23333 2.75049 5.65V3H5.50049V5.65C5.50049 5.78333 5.54216 5.89167 5.62549 5.975C5.70882 6.05833 5.80882 6.1 5.92549 6.1H18.1005ZM22.1505 10.6V13.325H17.2005V10.6H22.1505ZM1.85049 13.325V10.6H7.00049V13.325H1.85049ZM18.1005 15.05C18.6838 15.05 19.2172 15.1917 19.7005 15.475C20.1838 15.7417 20.5588 16.125 20.8255 16.625C21.1088 17.1083 21.2505 17.6333 21.2505 18.2V21H18.5005V18.2C18.5005 18.0667 18.4588 17.9583 18.3755 17.875C18.3088 17.7917 18.2172 17.75 18.1005 17.75H17.1005V15.05H18.1005ZM13.5755 6.2C13.5755 5.9 13.5005 5.63333 13.3505 5.4C13.2172 5.15 13.0338 4.95833 12.8005 4.825C12.5672 4.675 12.3005 4.6 12.0005 4.6C11.7005 4.6 11.4338 4.675 11.2005 4.825C10.9672 4.95833 10.7838 5.15 10.6505 5.4C10.5172 5.63333 10.4505 5.9 10.4505 6.2V6.9H7.82549V6.2C7.82549 5.41667 8.00882 4.70833 8.37549 4.075C8.74216 3.425 9.24216 2.925 9.87549 2.575C10.5088 2.20833 11.2172 2.025 12.0005 2.025C12.7838 2.025 13.4922 2.20833 14.1255 2.575C14.7588 2.925 15.2588 3.425 15.6255 4.075C15.9922 4.70833 16.1755 5.41667 16.1755 6.2V6.9H13.5755V6.2ZM5.92549 17.75C5.80882 17.75 5.70882 17.8 5.62549 17.9C5.54216 17.9833 5.50049 18.0833 5.50049 18.2V21H2.75049V18.2C2.75049 17.6333 2.89216 17.1083 3.17549 16.625C3.45882 16.125 3.84216 15.7417 4.32549 15.475C4.80882 15.1917 5.33382 15.05 5.90049 15.05H7.12549V17.75H5.92549ZM6.00049 7.55H8.77549V15C8.77549 15.6 8.91716 16.15 9.20049 16.65C9.48382 17.15 9.87549 17.5417 10.3755 17.825C10.8755 18.1083 11.4172 18.25 12.0005 18.25C12.5838 18.25 13.1255 18.1083 13.6255 17.825C14.1255 17.5417 14.5172 17.15 14.8005 16.65C15.0838 16.15 15.2255 15.6 15.2255 15V7.55H18.0005V15C18.0005 16.1 17.7338 17.1083 17.2005 18.025C16.6672 18.9417 15.9422 19.6667 15.0255 20.2C14.1088 20.7333 13.1005 21 12.0005 21C10.9005 21 9.89216 20.7333 8.97549 20.2C8.05882 19.6667 7.33382 18.9417 6.80049 18.025C6.26716 17.1083 6.00049 16.1 6.00049 15V7.55Z" fill="black"/>
</g>
<defs>
<clipPath id="clip0_3190_38048">
<rect width="24" height="24" fill="white"/>
</clipPath>
</defs>
</svg>
