<svg width="24" height="24" viewBox="0 0 24 24" fill="none" xmlns="http://www.w3.org/2000/svg">
<g clip-path="url(#clip0_3207_15373)">
<rect width="24" height="24" fill="white"/>
<path d="M11.9255 4.95C11.9088 4.31667 12.0588 3.725 12.3755 3.175C12.6922 2.625 13.1255 2.18333 13.6755 1.85C14.2422 1.5 14.8422 1.31667 15.4755 1.3C16.1922 1.26667 16.8338 1.40833 17.4005 1.725C17.9672 2.025 18.4172 2.46667 18.7505 3.05C19.0838 3.61667 19.2422 4.25833 19.2255 4.975L18.7755 5.15L18.9755 4.775C19.6922 4.75833 20.3255 4.90833 20.8755 5.225C21.4255 5.525 21.8588 5.94167 22.1755 6.475C22.4922 6.99167 22.6672 7.575 22.7005 8.225C22.7338 8.90833 22.5838 9.55 22.2505 10.15C21.9172 10.7333 21.4588 11.2083 20.8755 11.575C20.3088 11.925 19.6755 12.0833 18.9755 12.05L16.9755 11.925L11.9005 17.025L12.0255 19C12.0422 19.6667 11.8838 20.2917 11.5505 20.875C11.2172 21.4417 10.7588 21.8917 10.1755 22.225C9.60882 22.575 8.99216 22.75 8.32549 22.75C7.64216 22.75 7.02549 22.5833 6.47549 22.25C5.94216 21.9333 5.51716 21.4917 5.20049 20.925C4.90049 20.3417 4.75049 19.7 4.75049 19H5.10049L4.97549 19.225C4.22549 19.2583 3.56716 19.1167 3.00049 18.8C2.45049 18.4833 2.01716 18.05 1.70049 17.5C1.40049 16.95 1.25049 16.3417 1.25049 15.675C1.25049 15.0083 1.41715 14.3917 1.75049 13.825C2.08382 13.2417 2.53382 12.7833 3.10049 12.45C3.66716 12.1 4.28382 11.9333 4.95049 11.95L6.95049 12.05L12.0255 7L11.9255 4.95ZM14.4255 7.9L7.87549 14.45L4.92549 14.325C4.57549 14.3083 4.26716 14.4333 4.00049 14.7C3.73382 14.95 3.60049 15.2667 3.60049 15.65C3.60049 16.0167 3.72549 16.3333 3.97549 16.6C4.24216 16.85 4.56716 16.9833 4.95049 17L6.90049 17.05L6.97549 19.05C6.99216 19.4167 7.12549 19.7333 7.37549 20C7.64216 20.2667 7.95882 20.4 8.32549 20.4C8.70882 20.4 9.02549 20.2667 9.27549 20C9.54216 19.7167 9.66716 19.4 9.65049 19.05L9.50049 16.1L16.0505 9.525L19.0005 9.7C19.3505 9.71667 19.6588 9.59167 19.9255 9.325C20.2088 9.05833 20.3505 8.73333 20.3505 8.35C20.3505 7.98333 20.2172 7.675 19.9505 7.425C19.6838 7.175 19.3672 7.03333 19.0005 7L17.0255 6.925L16.9255 4.975C16.8922 4.59167 16.7505 4.275 16.5005 4.025C16.2672 3.75833 15.9588 3.63333 15.5755 3.65C15.2255 3.65 14.9172 3.78333 14.6505 4.05C14.4005 4.3 14.2838 4.6 14.3005 4.95L14.4255 7.9Z" fill="black"/>
</g>
<defs>
<clipPath id="clip0_3207_15373">
<rect width="24" height="24" fill="white"/>
</clipPath>
</defs>
</svg>
