<svg width="24" height="24" viewBox="0 0 24 24" fill="none" xmlns="http://www.w3.org/2000/svg">
<g clip-path="url(#clip0_3207_15369)">
<rect width="24" height="24" fill="white"/>
<path d="M12.8255 4.3C12.7922 3.78333 12.9088 3.3 13.1755 2.85C13.4422 2.38333 13.8005 2.00833 14.2505 1.725C14.7005 1.44167 15.1838 1.29167 15.7005 1.275C16.2838 1.25833 16.8088 1.375 17.2755 1.625C17.7422 1.875 18.1172 2.23333 18.4005 2.7C18.6838 3.16667 18.8338 3.69167 18.8505 4.275V5.075H19.6755C20.2588 5.075 20.7755 5.20833 21.2255 5.475C21.6755 5.74167 22.0255 6.09167 22.2755 6.525C22.5422 6.95833 22.6922 7.44167 22.7255 7.975C22.7588 8.54167 22.6338 9.08333 22.3505 9.6C22.0838 10.1 21.7088 10.5 21.2255 10.8C20.7422 11.1 20.2088 11.2333 19.6255 11.2L16.9505 11.075L11.0505 17L11.1505 19.675C11.1838 20.225 11.0588 20.7333 10.7755 21.2C10.4922 21.6667 10.1088 22.0417 9.62549 22.325C9.15882 22.6083 8.64216 22.75 8.07549 22.75C7.50882 22.75 7.00049 22.6167 6.55049 22.35C6.10049 22.0833 5.74216 21.7167 5.47549 21.25C5.20882 20.7833 5.06716 20.2583 5.05049 19.675L5.02549 18.95H4.27549C3.67549 18.95 3.14216 18.8167 2.67549 18.55C2.22549 18.2667 1.87549 17.9 1.62549 17.45C1.37549 16.9833 1.24215 16.475 1.22549 15.925C1.22549 15.375 1.36715 14.8583 1.65049 14.375C1.93382 13.8917 2.30882 13.5083 2.77549 13.225C3.24216 12.9417 3.74216 12.8083 4.27549 12.825L6.97549 12.925L12.9255 7L12.8255 4.3ZM14.3505 7.525L7.50049 14.375L4.27549 14.25C3.84216 14.2167 3.45882 14.3667 3.12549 14.7C2.79216 15.0167 2.62549 15.4083 2.62549 15.875C2.62549 16.3417 2.78382 16.7333 3.10049 17.05C3.43382 17.3667 3.83382 17.5333 4.30049 17.55L6.37549 17.6L6.45049 19.675C6.45049 20.1417 6.60882 20.5417 6.92549 20.875C7.25882 21.1917 7.65049 21.35 8.10049 21.35C8.56716 21.35 8.95882 21.1833 9.27549 20.85C9.60882 20.5167 9.76716 20.1333 9.75049 19.7L9.60049 16.475L16.4505 9.625L19.6505 9.8C20.1005 9.81667 20.4922 9.66667 20.8255 9.35C21.1588 9.01667 21.3255 8.61667 21.3255 8.15C21.3255 7.68333 21.1588 7.29167 20.8255 6.975C20.5088 6.65833 20.1172 6.49167 19.6505 6.475L17.5505 6.375L17.4505 4.325C17.4172 3.85833 17.2505 3.46667 16.9505 3.15C16.6505 2.81667 16.2672 2.65833 15.8005 2.675C15.3672 2.675 14.9922 2.84167 14.6755 3.175C14.3588 3.49167 14.2088 3.86667 14.2255 4.3L14.3505 7.525Z" fill="black"/>
</g>
<defs>
<clipPath id="clip0_3207_15369">
<rect width="24" height="24" fill="white"/>
</clipPath>
</defs>
</svg>
