<svg width="24" height="24" viewBox="0 0 24 24" fill="none" xmlns="http://www.w3.org/2000/svg">
<g clip-path="url(#clip0_3207_15385)">
<rect width="24" height="24" fill="white"/>
<path d="M13.7 3.7C13.7 3.05 13.925 2.475 14.375 1.975C14.8417 1.475 15.4 1.225 16.05 1.225C16.7667 1.225 17.35 1.45833 17.8 1.925C18.25 2.39167 18.4917 2.98333 18.525 3.7L18.575 5.4L20.3 5.375C20.9667 5.35833 21.5417 5.59167 22.025 6.075C22.525 6.55833 22.7833 7.15 22.8 7.85C22.8 8.53333 22.55 9.125 22.05 9.625C21.55 10.125 20.9583 10.375 20.275 10.375H17.125L10.375 17.1V20.275C10.375 20.9583 10.1333 21.5417 9.65 22.025C9.16667 22.5083 8.58333 22.75 7.9 22.75C7.2 22.75 6.60833 22.5167 6.125 22.05C5.65833 21.5833 5.425 20.9917 5.425 20.275V18.6H3.725C3.04167 18.6 2.45833 18.3583 1.975 17.875C1.49167 17.3917 1.25 16.8083 1.25 16.125C1.25 15.425 1.49167 14.8417 1.975 14.375C2.475 13.8917 3.05833 13.65 3.725 13.65H6.9L13.7 6.875V3.7Z" fill="black"/>
</g>
<defs>
<clipPath id="clip0_3207_15385">
<rect width="24" height="24" fill="white"/>
</clipPath>
</defs>
</svg>
