<svg width="24" height="24" viewBox="0 0 24 24" fill="none" xmlns="http://www.w3.org/2000/svg">
<g clip-path="url(#clip0_3190_37832)">
<rect width="24" height="24" fill="white"/>
<path d="M21.0005 12.275C21.0005 14.0917 20.6338 15.675 19.9005 17.025C19.1672 18.375 18.1255 19.4167 16.7755 20.15C15.4255 20.8833 13.8338 21.25 12.0005 21.25C10.1672 21.25 8.56716 20.8833 7.20049 20.15C5.85049 19.4167 4.80882 18.3833 4.07549 17.05C3.35882 15.7 3.00049 14.1083 3.00049 12.275V3.8C3.00049 3.41667 3.14216 3.1 3.42549 2.85C3.70882 2.58333 4.04216 2.44167 4.42549 2.425C4.82549 2.40833 5.18382 2.54167 5.50049 2.825L9.10049 6.05H14.9255L18.5505 2.825C18.8672 2.54167 19.2172 2.40833 19.6005 2.425C19.9838 2.44167 20.3088 2.58333 20.5755 2.85C20.8588 3.1 21.0005 3.41667 21.0005 3.8V12.275ZM20.0505 3.825C20.0505 3.69167 20.0005 3.58333 19.9005 3.5C19.8005 3.41667 19.6755 3.38333 19.5255 3.4C19.3755 3.4 19.2422 3.45 19.1255 3.55L15.3005 6.975H8.72549L4.87549 3.5C4.77549 3.4 4.65049 3.35 4.50049 3.35C4.35049 3.33333 4.21716 3.375 4.10049 3.475C4.00049 3.55833 3.95049 3.66667 3.95049 3.8V12.275C3.95049 13.9083 4.27549 15.3333 4.92549 16.55C5.57549 17.7667 6.50049 18.7 7.70049 19.35C8.91716 20 10.3505 20.325 12.0005 20.325C13.6338 20.325 15.0505 20 16.2505 19.35C17.4672 18.7 18.4005 17.7667 19.0505 16.55C19.7172 15.3333 20.0505 13.9083 20.0505 12.275V3.825ZM23.1255 13.325V14.225H20.1255V13.325H23.1255ZM22.1005 17.975L21.6505 18.75L19.2755 17.375L19.7255 16.6L22.1005 17.975ZM3.82549 14.225H0.875488V13.325H3.82549V14.225ZM4.67549 17.4L2.30049 18.75L1.85049 17.975L4.22549 16.625L4.67549 17.4ZM15.5255 13.075C15.3088 13.075 15.1255 13 14.9755 12.85C14.8255 12.6833 14.7505 12.4917 14.7505 12.275C14.7505 12.0583 14.8255 11.875 14.9755 11.725C15.1255 11.5583 15.3088 11.475 15.5255 11.475C15.7422 11.475 15.9255 11.5583 16.0755 11.725C16.2422 11.875 16.3255 12.0583 16.3255 12.275C16.3255 12.4917 16.2422 12.6833 16.0755 12.85C15.9255 13 15.7422 13.075 15.5255 13.075ZM8.42549 13.075C8.20882 13.075 8.01716 13 7.85049 12.85C7.70049 12.6833 7.62549 12.4917 7.62549 12.275C7.62549 12.0583 7.70049 11.875 7.85049 11.725C8.01716 11.5583 8.20882 11.475 8.42549 11.475C8.64216 11.475 8.82549 11.5583 8.97549 11.725C9.12549 11.875 9.20049 12.0583 9.20049 12.275C9.20049 12.4917 9.12549 12.6833 8.97549 12.85C8.82549 13 8.64216 13.075 8.42549 13.075Z" fill="black"/>
</g>
<defs>
<clipPath id="clip0_3190_37832">
<rect width="24" height="24" fill="white"/>
</clipPath>
</defs>
</svg>
