<svg width="24" height="24" viewBox="0 0 24 24" fill="none" xmlns="http://www.w3.org/2000/svg">
<g clip-path="url(#clip0_3190_37834)">
<rect width="24" height="24" fill="white"/>
<path d="M21.0005 12.3C21.0005 14.1167 20.6338 15.7 19.9005 17.05C19.1672 18.4 18.1172 19.4417 16.7505 20.175C15.4005 20.8917 13.8172 21.25 12.0005 21.25C10.1672 21.25 8.56716 20.8917 7.20049 20.175C5.85049 19.4417 4.80882 18.4 4.07549 17.05C3.35882 15.7 3.00049 14.1167 3.00049 12.3V4.125C3.00049 3.69167 3.15049 3.325 3.45049 3.025C3.75049 2.70833 4.11716 2.54167 4.55049 2.525C4.98382 2.49167 5.39216 2.63333 5.77549 2.95L9.20049 5.95H14.8005L18.2755 2.95C18.6588 2.63333 19.0588 2.49167 19.4755 2.525C19.9088 2.54167 20.2672 2.70833 20.5505 3.025C20.8505 3.325 21.0005 3.69167 21.0005 4.125V12.3ZM19.6005 4.175C19.6005 4.09167 19.5672 4.03333 19.5005 4C19.4505 3.95 19.3838 3.93333 19.3005 3.95C19.2338 3.95 19.1672 3.975 19.1005 4.025L15.3005 7.3H8.70049L4.87549 3.975C4.80882 3.925 4.73382 3.9 4.65049 3.9C4.58382 3.88333 4.52549 3.9 4.47549 3.95C4.42549 3.98333 4.40049 4.03333 4.40049 4.1V12.3C4.40049 13.85 4.70882 15.2 5.32549 16.35C5.94216 17.4833 6.81716 18.3583 7.95049 18.975C9.10049 19.5917 10.4505 19.9 12.0005 19.9C13.5338 19.9 14.8755 19.5917 16.0255 18.975C17.1755 18.3417 18.0588 17.4583 18.6755 16.325C19.2922 15.1917 19.6005 13.85 19.6005 12.3V4.175ZM23.1255 13.15V14.475H19.7755V13.15H23.1255ZM22.2005 17.825L21.5255 18.975L18.9005 17.425L19.5755 16.3L22.2005 17.825ZM4.12549 14.475H0.875488V13.15H4.12549V14.475ZM5.00049 17.425L2.37549 18.975L1.70049 17.825L4.32549 16.3L5.00049 17.425ZM15.3505 13.275C15.0505 13.275 14.7922 13.175 14.5755 12.975C14.3588 12.7583 14.2505 12.5 14.2505 12.2C14.2505 11.9 14.3588 11.6417 14.5755 11.425C14.7922 11.2083 15.0505 11.1 15.3505 11.1C15.6505 11.1 15.9005 11.2083 16.1005 11.425C16.3172 11.6417 16.4255 11.9 16.4255 12.2C16.4255 12.5 16.3172 12.7583 16.1005 12.975C15.9005 13.175 15.6505 13.275 15.3505 13.275ZM8.55049 13.275C8.25049 13.275 7.99216 13.175 7.77549 12.975C7.57549 12.7583 7.47549 12.5 7.47549 12.2C7.47549 11.9 7.57549 11.6417 7.77549 11.425C7.99216 11.2083 8.25049 11.1 8.55049 11.1C8.85049 11.1 9.10882 11.2083 9.32549 11.425C9.54216 11.6417 9.65049 11.9 9.65049 12.2C9.65049 12.5 9.54216 12.7583 9.32549 12.975C9.10882 13.175 8.85049 13.275 8.55049 13.275Z" fill="black"/>
</g>
<defs>
<clipPath id="clip0_3190_37834">
<rect width="24" height="24" fill="white"/>
</clipPath>
</defs>
</svg>
