<svg width="24" height="24" viewBox="0 0 24 24" fill="none" xmlns="http://www.w3.org/2000/svg">
<g clip-path="url(#clip0_3190_37856)">
<rect width="24" height="24" fill="white"/>
<path d="M21 12.325C21 14.125 20.625 15.7 19.875 17.05C19.1417 18.4 18.0917 19.4417 16.725 20.175C15.3583 20.8917 13.7583 21.25 11.925 21.25C10.1083 21.25 8.525 20.8917 7.175 20.175C5.825 19.4417 4.79167 18.4083 4.075 17.075C3.35833 15.725 3 14.1417 3 12.325V4.2C3 3.71667 3.16667 3.3 3.5 2.95C3.83333 2.58333 4.24167 2.38333 4.725 2.35C5.225 2.3 5.69167 2.45833 6.125 2.825L9.4 5.6H14.725L18 2.825C18.4333 2.45833 18.8833 2.3 19.35 2.35C19.8167 2.38333 20.2083 2.58333 20.525 2.95C20.8417 3.3 21 3.71667 21 4.2V12.325ZM15.725 13.525C16.275 13.525 16.7417 13.3333 17.125 12.95C17.525 12.55 17.725 12.075 17.725 11.525C17.725 10.9917 17.525 10.525 17.125 10.125C16.725 9.725 16.2583 9.525 15.725 9.525C15.175 9.525 14.7 9.725 14.3 10.125C13.9167 10.5083 13.725 10.975 13.725 11.525C13.725 12.0917 13.9167 12.5667 14.3 12.95C14.6833 13.3333 15.1583 13.525 15.725 13.525ZM8.275 13.525C8.825 13.525 9.29167 13.3333 9.675 12.95C10.075 12.55 10.275 12.075 10.275 11.525C10.275 10.9917 10.075 10.525 9.675 10.125C9.275 9.725 8.80833 9.525 8.275 9.525C7.725 9.525 7.25 9.725 6.85 10.125C6.46667 10.5083 6.275 10.975 6.275 11.525C6.275 12.0917 6.46667 12.5667 6.85 12.95C7.23333 13.3333 7.70833 13.525 8.275 13.525ZM23.125 12.1V14.9H18.725V12.1H23.125ZM22.225 17.525L20.95 19.85L18.1 18.175L19.375 15.875L22.225 17.525ZM5.275 14.9H0.875V12.1H5.275V14.9ZM5.9 18.175L3.05 19.85L1.775 17.525L4.625 15.875L5.9 18.175Z" fill="black"/>
</g>
<defs>
<clipPath id="clip0_3190_37856">
<rect width="24" height="24" fill="white"/>
</clipPath>
</defs>
</svg>
