<svg width="24" height="24" viewBox="0 0 24 24" fill="none" xmlns="http://www.w3.org/2000/svg">
<g clip-path="url(#clip0_3190_37688)">
<rect width="24" height="24" fill="white"/>
<path d="M22.875 8.25L22.175 10H18.6L16 15.575V21H13.5L12.7 15.5H5.5V21H3L1.675 12.125C1.575 11.375 1.65833 10.7083 1.925 10.125C2.19167 9.54167 2.61667 9.09167 3.2 8.775C3.8 8.44167 4.50833 8.275 5.325 8.275H14.15L15.325 5.775H19.6L22.875 8.25ZM15.525 6.075C14.7917 6.075 14.1667 5.83333 13.65 5.35C13.15 4.85 12.9 4.24167 12.9 3.525V3H13.375V3.525C13.375 4.10833 13.5833 4.6 14 5C14.4167 5.4 14.925 5.6 15.525 5.6H19.9C20.5 5.6 21 5.4 21.4 5C21.8167 4.6 22.025 4.10833 22.025 3.525V3H22.5V3.525C22.5 4.24167 22.25 4.85 21.75 5.35C21.25 5.83333 20.6333 6.075 19.9 6.075H15.525Z" fill="black"/>
</g>
<defs>
<clipPath id="clip0_3190_37688">
<rect width="24" height="24" fill="white"/>
</clipPath>
</defs>
</svg>
