<svg width="24" height="24" viewBox="0 0 24 24" fill="none" xmlns="http://www.w3.org/2000/svg">
<g clip-path="url(#clip0_3190_37686)">
<rect width="24" height="24" fill="white"/>
<path d="M22.9005 8.35L20.5755 13.35H19.7755H18.9005V21H11.4505L10.8505 16.925H10.0005V21H2.45049L1.65049 13.05C1.55049 12.0667 1.67549 11.175 2.02549 10.375C2.39216 9.575 2.95049 8.95 3.70049 8.5C4.45049 8.05 5.35882 7.825 6.42549 7.825H11.4005L12.5755 5.175H16.1005L13.4505 11.05H6.42549C6.07549 11.05 5.77549 11.1333 5.52549 11.3C5.29216 11.4667 5.12549 11.6833 5.02549 11.95C4.92549 12.2167 4.89216 12.5083 4.92549 12.825L5.47549 17.85H6.75049V13.8H13.8005L14.3505 17.85H15.6255V10.175H16.8005H18.5255L19.0755 9L17.1005 6.95L19.2505 4.75L22.9005 8.35ZM13.4005 7.175C12.7005 7.175 12.0588 7.01667 11.4755 6.7C10.8922 6.36667 10.4338 5.925 10.1005 5.375C9.76716 4.825 9.60049 4.21667 9.60049 3.55V3H12.8255V3.55C12.8255 3.68333 12.8672 3.79167 12.9505 3.875C13.0505 3.95833 13.1672 4 13.3005 4H18.9005C19.0338 4 19.1422 3.95833 19.2255 3.875C19.3088 3.775 19.3505 3.66667 19.3505 3.55V3H22.6005V3.55C22.6005 4.21667 22.4338 4.825 22.1005 5.375C21.7672 5.925 21.3088 6.36667 20.7255 6.7C20.1422 7.01667 19.5005 7.175 18.8005 7.175H13.4005Z" fill="black"/>
</g>
<defs>
<clipPath id="clip0_3190_37686">
<rect width="24" height="24" fill="white"/>
</clipPath>
</defs>
</svg>
