<svg width="24" height="24" viewBox="0 0 24 24" fill="none" xmlns="http://www.w3.org/2000/svg">
<g clip-path="url(#clip0_3190_37686)">
<rect width="24" height="24" fill="white"/>
<path d="M22.9005 8.375L21.1005 12.275C20.8005 12.8917 20.3172 13.2 19.6505 13.2H19.1005H18.9005V21H11.3755L10.7755 16.975H10.0755V21H2.45049L1.65049 13.1C1.55049 12.1 1.67549 11.2083 2.02549 10.425C2.39216 9.625 2.95049 9 3.70049 8.55C4.46716 8.08333 5.38382 7.85 6.45049 7.85H11.3005L12.5005 5.125H16.1005L13.4005 11.125H6.45049C6.13382 11.125 5.85882 11.2 5.62549 11.35C5.39216 11.5 5.21716 11.7 5.10049 11.95C4.98382 12.2 4.94216 12.475 4.97549 12.775L5.52549 17.8H6.77549V13.775H13.7755L14.3255 17.8H15.5755V9.95H16.7505H18.5255C18.5588 9.93333 18.5838 9.91667 18.6005 9.9L19.0005 9.025L17.1005 7.025L19.2005 4.725L22.9005 8.375ZM13.3505 7.225C12.6338 7.225 11.9755 7.06667 11.3755 6.75C10.7922 6.41667 10.3255 5.975 9.97549 5.425C9.64216 4.85833 9.47549 4.23333 9.47549 3.55V3H12.7755V3.55C12.7755 3.66667 12.8172 3.76667 12.9005 3.85C12.9838 3.93333 13.0838 3.975 13.2005 3.975H18.8755C18.9922 3.975 19.0922 3.93333 19.1755 3.85C19.2588 3.76667 19.3005 3.66667 19.3005 3.55V3H22.6005V3.55C22.6005 4.23333 22.4255 4.85833 22.0755 5.425C21.7422 5.975 21.2755 6.41667 20.6755 6.75C20.0922 7.06667 19.4422 7.225 18.7255 7.225H13.3505Z" fill="black"/>
</g>
<defs>
<clipPath id="clip0_3190_37686">
<rect width="24" height="24" fill="white"/>
</clipPath>
</defs>
</svg>
