<svg width="24" height="24" viewBox="0 0 24 24" fill="none" xmlns="http://www.w3.org/2000/svg">
<g clip-path="url(#clip0_3190_37678)">
<rect width="24" height="24" fill="white"/>
<path d="M22.8755 8.075L21.7505 10.525H19.3755L17.2255 15.3V21H12.9005L12.3005 15.75H6.97549V21H2.65049L1.62549 11.875C1.52549 11.125 1.62549 10.4083 1.92549 9.725C2.24216 9.04167 2.71715 8.49167 3.35049 8.075C3.98382 7.65833 4.70882 7.45 5.52549 7.45H14.8505L15.6505 5.75H17.1255L15.7005 8.8H5.52549C5.02549 8.8 4.56716 8.93333 4.15049 9.2C3.75049 9.45 3.44216 9.80833 3.22549 10.275C3.00882 10.725 2.93382 11.2167 3.00049 11.75L3.90049 19.65H5.57549V14.4H13.5755L14.1505 19.65H15.8255V14.95L18.4755 9.175H20.9005L21.2255 8.4L18.6505 5.85L20.4255 5.65L22.8755 8.075ZM15.6005 6.075C15.1005 6.075 14.6422 5.95833 14.2255 5.725C13.8255 5.49167 13.5005 5.175 13.2505 4.775C13.0172 4.375 12.9005 3.93333 12.9005 3.45V3H14.2505V3.45C14.2505 3.81667 14.3838 4.125 14.6505 4.375C14.9172 4.625 15.2338 4.75 15.6005 4.75H19.8255C20.1922 4.75 20.5005 4.625 20.7505 4.375C21.0172 4.125 21.1505 3.81667 21.1505 3.45V3H22.5005V3.45C22.5005 3.91667 22.3755 4.35833 22.1255 4.775C21.8922 5.175 21.5755 5.49167 21.1755 5.725C20.7755 5.95833 20.3255 6.075 19.8255 6.075H15.6005Z" fill="black"/>
</g>
<defs>
<clipPath id="clip0_3190_37678">
<rect width="24" height="24" fill="white"/>
</clipPath>
</defs>
</svg>
