<svg width="24" height="24" viewBox="0 0 24 24" fill="none" xmlns="http://www.w3.org/2000/svg">
<g clip-path="url(#clip0_3190_37700)">
<rect width="24" height="24" fill="white"/>
<path d="M22.875 8.25L22.1 10.175C21.8833 10.6917 21.4917 10.95 20.925 10.95H18.175L15.975 16.125V21H12.4L11.6 15.175H6.575V21H3L1.65 12.125C1.53333 11.3917 1.60833 10.7333 1.875 10.15C2.15833 9.55 2.59167 9.09167 3.175 8.775C3.775 8.44167 4.48333 8.275 5.3 8.275H14.35L15.325 5.775H19.6L22.875 8.25ZM14.95 7C13.9167 7 13.0667 6.675 12.4 6.025C11.7333 5.375 11.4 4.54167 11.4 3.525V3H14.45V3.525C14.45 3.74167 14.5167 3.91667 14.65 4.05C14.8 4.18333 14.9833 4.25 15.2 4.25H18.725C18.9417 4.25 19.1167 4.18333 19.25 4.05C19.3833 3.91667 19.45 3.74167 19.45 3.525V3H22.5V3.525C22.5 4.54167 22.1667 5.375 21.5 6.025C20.85 6.675 20.0083 7 18.975 7H14.95Z" fill="black"/>
</g>
<defs>
<clipPath id="clip0_3190_37700">
<rect width="24" height="24" fill="white"/>
</clipPath>
</defs>
</svg>
