<svg width="24" height="24" viewBox="0 0 24 24" fill="none" xmlns="http://www.w3.org/2000/svg">
<g clip-path="url(#clip0_3190_37612)">
<rect width="24" height="24" fill="white"/>
<path d="M22.375 8.25L21.675 10H18.1L16 14.5V22H13.5L12.625 16H6V22H3.5L2.15 12.625C1.98333 11.4917 2.2 10.6083 2.8 9.975C3.4 9.325 4.31667 9 5.55 9H13.825L15.425 5.55H18.225L22.375 8.25ZM15.175 5.75C14.425 5.75 13.7917 5.5 13.275 5C12.7583 4.48333 12.5 3.85833 12.5 3.125V2H13.425V3.125C13.425 3.60833 13.5917 4.01667 13.925 4.35C14.2583 4.68333 14.675 4.85 15.175 4.85H20.375C20.8583 4.85 21.2667 4.68333 21.6 4.35C21.9333 4.01667 22.1 3.60833 22.1 3.125V2H23V3.125C23 3.85833 22.7417 4.48333 22.225 5C21.725 5.5 21.1083 5.75 20.375 5.75H15.175ZM11.325 5.75C10.575 5.75 9.94167 5.5 9.425 5C8.90833 4.48333 8.65 3.85833 8.65 3.125V2H9.55V3.125C9.55 3.60833 9.71667 4.01667 10.05 4.35C10.4 4.68333 10.8167 4.85 11.3 4.85H16.475C16.9583 4.85 17.3667 4.68333 17.7 4.35C18.0333 4.01667 18.2 3.60833 18.2 3.125V2H19.1V3.125C19.1 3.85833 18.8417 4.48333 18.325 5C17.825 5.5 17.2083 5.75 16.475 5.75H11.325Z" fill="black"/>
</g>
<defs>
<clipPath id="clip0_3190_37612">
<rect width="24" height="24" fill="white"/>
</clipPath>
</defs>
</svg>
