<svg width="24" height="24" viewBox="0 0 24 24" fill="none" xmlns="http://www.w3.org/2000/svg">
<g clip-path="url(#clip0_3190_37784)">
<rect width="24" height="24" fill="white"/>
<path d="M2.35049 9.025C2.35049 8.09167 2.47549 7.29167 2.72549 6.625C2.97549 5.95833 3.45049 5.25 4.15049 4.5L5.50049 5.775C5.10049 6.20833 4.78382 6.70833 4.55049 7.275C4.31716 7.825 4.20049 8.4 4.20049 9H12.5255L14.0505 4.9C14.2672 4.31667 14.6172 3.85833 15.1005 3.525C15.6005 3.175 16.1672 3 16.8005 3H19.1005L19.7755 5H22.5005V7.375C22.5005 8.09167 22.2505 8.75 21.7505 9.35C21.2672 9.93333 20.6672 10.3 19.9505 10.45L19.2255 10.6L18.5005 14.75V22H13.6505L12.7255 16.7L8.20049 16.4L7.22549 22H2.35049V9.025ZM5.65049 20.2L6.65049 14.5L14.3255 15L15.2005 20.2H16.6505V14.575L17.6255 9.025L19.6005 8.675C19.9005 8.625 20.1505 8.475 20.3505 8.225C20.5505 7.975 20.6505 7.69167 20.6505 7.375V6.8H18.4005L17.8255 4.8H16.8005C16.5672 4.8 16.3588 4.86667 16.1755 5C15.9922 5.11667 15.8588 5.28333 15.7755 5.5L13.9255 10.8H4.20049V20.2H5.65049ZM12.8755 10.475L13.4755 8.8L18.2255 10.5L17.6255 12.175L12.8755 10.475Z" fill="black"/>
</g>
<defs>
<clipPath id="clip0_3190_37784">
<rect width="24" height="24" fill="white"/>
</clipPath>
</defs>
</svg>
