<svg width="24" height="24" viewBox="0 0 24 24" fill="none" xmlns="http://www.w3.org/2000/svg">
<g clip-path="url(#clip0_3190_37782)">
<rect width="24" height="24" fill="white"/>
<path d="M2.35049 9.3C2.35049 8.31667 2.49216 7.46667 2.77549 6.75C3.05882 6.03333 3.55049 5.30833 4.25049 4.575L5.25049 5.525C4.76716 6.04167 4.39216 6.61667 4.12549 7.25C3.87549 7.86667 3.75049 8.54167 3.75049 9.275H12.7255L14.4005 4.75C14.6005 4.2 14.9255 3.775 15.3755 3.475C15.8255 3.15833 16.3422 3 16.9255 3H19.0255L19.7005 5H22.5005V7.05C22.5005 7.71667 22.2838 8.30833 21.8505 8.825C21.4338 9.325 20.9255 9.65 20.3255 9.8L19.1755 10.1L18.4005 14.75V22H14.0255L13.0755 16.575L7.70049 16.2L6.72549 22H2.35049V9.3ZM5.55049 20.65L6.52549 14.775L14.2755 15.275L15.2005 20.65H17.0005V14.625L17.9755 8.9L20.0255 8.475C20.3088 8.425 20.5588 8.26667 20.7755 8C20.9922 7.73333 21.1005 7.41667 21.1005 7.05V6.35H18.6505L18.0505 4.35H16.9255C16.6422 4.35 16.3922 4.425 16.1755 4.575C15.9588 4.725 15.8005 4.93333 15.7005 5.2L13.7505 10.625H3.75049V20.65H5.55049ZM12.9505 10.375L13.4005 9.125L18.2755 10.975L17.8255 12.25L12.9505 10.375Z" fill="black"/>
</g>
<defs>
<clipPath id="clip0_3190_37782">
<rect width="24" height="24" fill="white"/>
</clipPath>
</defs>
</svg>
