<svg width="24" height="24" viewBox="0 0 24 24" fill="none" xmlns="http://www.w3.org/2000/svg">
<g clip-path="url(#clip0_3190_37920)">
<rect width="24" height="24" fill="white"/>
<path d="M11.7005 20.5L13.9505 15.45H17.0005C17.5672 15.45 18.0422 15.2583 18.4255 14.875C18.8088 14.475 19.0005 13.9833 19.0005 13.4V9.95H14.8755L13.1505 6.45H8.62549C8.19216 6.45 7.77549 6.55833 7.37549 6.775C6.99216 6.99167 6.66716 7.3 6.40049 7.7C6.13382 8.08333 5.96716 8.54167 5.90049 9.075L5.02549 15.575C4.97549 15.9083 5.00882 16.2083 5.12549 16.475C5.24216 16.7417 5.41716 16.95 5.65049 17.1C5.90049 17.2333 6.18382 17.3 6.50049 17.3C6.76716 17.3 7.00882 17.2333 7.22549 17.1C7.44216 16.9667 7.61716 16.7917 7.75049 16.575C7.88382 16.3417 7.95049 16.0833 7.95049 15.8V15.45H11.4505V15.8C11.4505 16.7 11.2255 17.5333 10.7755 18.3C10.3255 19.05 9.71716 19.65 8.95049 20.1C8.20049 20.5333 7.38382 20.75 6.50049 20.75C5.48382 20.75 4.56716 20.4917 3.75049 19.975C2.95049 19.4583 2.35049 18.7667 1.95049 17.9C1.55049 17.0333 1.41715 16.1 1.55049 15.1L2.42549 8.6C2.57549 7.51667 2.94216 6.55 3.52549 5.7C4.12549 4.85 4.86716 4.19167 5.75049 3.725C6.65049 3.24167 7.60882 3 8.62549 3H15.3505L17.0755 6.5H22.5005V13.4C22.5005 14.4167 22.2505 15.3417 21.7505 16.175C21.2672 17.0083 20.6088 17.675 19.7755 18.175C18.9422 18.6583 18.0172 18.9 17.0005 18.9H16.2255L15.5255 20.5H11.7005ZM11.2255 13.075C10.6088 13.075 10.0755 12.8583 9.62549 12.425C9.19216 11.975 8.97549 11.4417 8.97549 10.825C8.97549 10.2083 9.19216 9.68333 9.62549 9.25C10.0755 8.8 10.6088 8.575 11.2255 8.575C11.8588 8.575 12.3922 8.79167 12.8255 9.225C13.2588 9.65833 13.4755 10.1917 13.4755 10.825C13.4755 11.4417 13.2505 11.975 12.8005 12.425C12.3672 12.8583 11.8422 13.075 11.2255 13.075Z" fill="black"/>
</g>
<defs>
<clipPath id="clip0_3190_37920">
<rect width="24" height="24" fill="white"/>
</clipPath>
</defs>
</svg>
