<svg width="24" height="24" viewBox="0 0 24 24" fill="none" xmlns="http://www.w3.org/2000/svg">
<g clip-path="url(#clip0_3190_37916)">
<rect width="24" height="24" fill="white"/>
<path d="M12.5255 20.5L14.3255 16.525H17.3255C18.1088 16.525 18.7588 16.2583 19.2755 15.725C19.8088 15.1917 20.0755 14.525 20.0755 13.725V9.2H15.9255L14.0005 5.375H8.62549C8.02549 5.375 7.45049 5.525 6.90049 5.825C6.35049 6.125 5.88382 6.55 5.50049 7.1C5.13382 7.63333 4.90882 8.24167 4.82549 8.925L3.92549 15.65C3.85882 16.1833 3.89216 16.6583 4.02549 17.075C4.15882 17.475 4.39216 17.7917 4.72549 18.025C5.05882 18.2583 5.46716 18.375 5.95049 18.375C6.35049 18.375 6.70882 18.2833 7.02549 18.1C7.35882 17.9 7.60882 17.6333 7.77549 17.3C7.95882 16.95 8.05049 16.5583 8.05049 16.125V14.15H10.4755V16.125C10.4755 16.9917 10.2755 17.775 9.87549 18.475C9.49216 19.175 8.95049 19.7333 8.25049 20.15C7.56716 20.55 6.80049 20.75 5.95049 20.75C4.98382 20.75 4.13382 20.5083 3.40049 20.025C2.68382 19.5417 2.15882 18.8917 1.82549 18.075C1.49216 17.2417 1.39216 16.325 1.52549 15.325L2.42549 8.6C2.57549 7.51667 2.94216 6.55 3.52549 5.7C4.12549 4.85 4.86716 4.19167 5.75049 3.725C6.65049 3.24167 7.60882 3 8.62549 3H15.5255L17.4255 6.825H22.5005V13.725C22.5005 14.675 22.2672 15.55 21.8005 16.35C21.3505 17.1333 20.7255 17.7583 19.9255 18.225C19.1422 18.675 18.2755 18.9 17.3255 18.9H15.9005L15.1755 20.5H12.5255ZM12.1755 11.975C11.7255 11.975 11.3338 11.8083 11.0005 11.475C10.6672 11.1417 10.5005 10.75 10.5005 10.3C10.5005 9.85 10.6588 9.46667 10.9755 9.15C11.3088 8.81667 11.7088 8.65 12.1755 8.65C12.6422 8.65 13.0338 8.80833 13.3505 9.125C13.6838 9.44167 13.8505 9.83333 13.8505 10.3C13.8505 10.7667 13.6838 11.1667 13.3505 11.5C13.0338 11.8167 12.6422 11.975 12.1755 11.975Z" fill="black"/>
</g>
<defs>
<clipPath id="clip0_3190_37916">
<rect width="24" height="24" fill="white"/>
</clipPath>
</defs>
</svg>
