<svg width="24" height="24" viewBox="0 0 24 24" fill="none" xmlns="http://www.w3.org/2000/svg">
<g clip-path="url(#clip0_3190_37706)">
<rect width="24" height="24" fill="white"/>
<path d="M12.0005 22C10.1672 22 8.48382 21.5583 6.95049 20.675C5.41716 19.7917 4.20882 18.5833 3.32549 17.05C2.44216 15.5167 2.00049 13.8333 2.00049 12C2.00049 10.1667 2.44216 8.48333 3.32549 6.95C4.20882 5.41667 5.41716 4.20833 6.95049 3.325C8.48382 2.44167 10.1672 2 12.0005 2C13.8338 2 15.5172 2.44167 17.0505 3.325C18.5838 4.20833 19.7922 5.41667 20.6755 6.95C21.5588 8.48333 22.0005 10.1667 22.0005 12C22.0005 13.8333 21.5588 15.5167 20.6755 17.05C19.7922 18.5833 18.5838 19.7917 17.0505 20.675C15.5172 21.5583 13.8338 22 12.0005 22ZM12.0005 20.25C13.5172 20.25 14.9005 19.8833 16.1505 19.15C17.4005 18.4167 18.3838 17.425 19.1005 16.175C19.8338 14.9083 20.2005 13.5167 20.2005 12C20.2005 10.4833 19.8338 9.1 19.1005 7.85C18.3838 6.58333 17.4005 5.58333 16.1505 4.85C14.9005 4.11667 13.5172 3.75 12.0005 3.75C10.4838 3.75 9.10049 4.11667 7.85049 4.85C6.60049 5.58333 5.60882 6.58333 4.87549 7.85C4.15882 9.1 3.80049 10.4833 3.80049 12C3.80049 13.5167 4.15882 14.9083 4.87549 16.175C5.60882 17.425 6.60049 18.4167 7.85049 19.15C9.10049 19.8833 10.4838 20.25 12.0005 20.25ZM8.07549 6C8.72549 6 9.28382 6.16667 9.75049 6.5C10.2338 6.83333 10.5588 7.275 10.7255 7.825C10.9088 8.35833 10.8922 8.91667 10.6755 9.5L9.40049 12.875C9.26716 13.2417 9.05882 13.525 8.77549 13.725C8.50882 13.9083 8.17549 14 7.77549 14H3.00049V12.35H7.77549C7.79216 12.35 7.80049 12.35 7.80049 12.35C7.80049 12.3333 7.80049 12.325 7.80049 12.325L9.05049 9.025C9.11716 8.80833 9.14216 8.61667 9.12549 8.45C9.10882 8.28333 9.04216 8.13333 8.92549 8C8.74216 7.76667 8.45882 7.65 8.07549 7.65H4.45049V6H8.07549ZM15.5005 11.5C15.9838 11.5 16.3922 11.6667 16.7255 12C17.0588 12.3167 17.2255 12.7083 17.2255 13.175V16.325C17.2255 16.7917 17.0588 17.1917 16.7255 17.525C16.3922 17.8417 15.9838 18 15.5005 18H12.8255L12.4005 16.75H11.6005C11.1505 16.75 10.7755 16.65 10.4755 16.45C10.1755 16.25 9.97549 15.975 9.87549 15.625C9.79216 15.2583 9.83382 14.8667 10.0005 14.45L10.7005 12.6C10.8338 12.25 11.0338 11.9833 11.3005 11.8C11.5672 11.6 11.9005 11.5 12.3005 11.5H15.5005ZM11.5755 15.05C11.5755 15.0667 11.5755 15.0833 11.5755 15.1C11.5755 15.1 11.5838 15.1 11.6005 15.1H13.5505L14.0255 16.35H15.5005C15.5172 16.35 15.5255 16.35 15.5255 16.35C15.5255 16.35 15.5255 16.3417 15.5255 16.325V13.175C15.5255 13.1583 15.5255 13.15 15.5255 13.15C15.5255 13.15 15.5172 13.15 15.5005 13.15H12.3005C12.3005 13.1667 12.2922 13.175 12.2755 13.175C12.2755 13.175 12.2755 13.1833 12.2755 13.2L11.5755 15.05Z" fill="black"/>
</g>
<defs>
<clipPath id="clip0_3190_37706">
<rect width="24" height="24" fill="white"/>
</clipPath>
</defs>
</svg>
