<svg width="24" height="24" viewBox="0 0 24 24" fill="none" xmlns="http://www.w3.org/2000/svg">
<g clip-path="url(#clip0_3389_9012)">
<rect width="24" height="24" fill="white"/>
<path d="M12.0005 22C10.1672 22 8.48382 21.5583 6.95049 20.675C5.41716 19.7917 4.20882 18.5833 3.32549 17.05C2.44216 15.5167 2.00049 13.8333 2.00049 12C2.00049 10.1667 2.44216 8.48333 3.32549 6.95C4.20882 5.41667 5.41716 4.20833 6.95049 3.325C8.48382 2.44167 10.1672 2 12.0005 2C13.8338 2 15.5172 2.44167 17.0505 3.325C18.5838 4.20833 19.7922 5.41667 20.6755 6.95C21.5588 8.48333 22.0005 10.1667 22.0005 12C22.0005 13.8333 21.5588 15.5167 20.6755 17.05C19.7922 18.5833 18.5838 19.7917 17.0505 20.675C15.5172 21.5583 13.8338 22 12.0005 22ZM12.0005 18.55C13.2005 18.55 14.2922 18.2583 15.2755 17.675C16.2755 17.0917 17.0588 16.3 17.6255 15.3C18.2088 14.3 18.5005 13.2 18.5005 12C18.5005 10.8 18.2088 9.7 17.6255 8.7C17.0588 7.7 16.2755 6.90833 15.2755 6.325C14.2922 5.74167 13.2005 5.45 12.0005 5.45C10.8005 5.45 9.70049 5.74167 8.70049 6.325C7.71716 6.90833 6.93382 7.7 6.35049 8.7C5.78382 9.7 5.50049 10.8 5.50049 12C5.50049 13.2 5.78382 14.3 6.35049 15.3C6.93382 16.3 7.71716 17.0917 8.70049 17.675C9.70049 18.2583 10.8005 18.55 12.0005 18.55ZM19.3005 8.875C19.3005 8.89167 19.3005 8.89167 19.3005 8.875C19.3172 8.85833 19.3255 8.83333 19.3255 8.8C19.3422 8.75 19.3588 8.71667 19.3755 8.7C19.4088 8.66667 19.4255 8.69167 19.4255 8.775V9.325C19.4255 9.44167 19.4255 9.53333 19.4255 9.6C19.4255 9.66667 19.4255 9.75833 19.4255 9.875V12.1V14.325L18.6005 15.5L16.0005 13.2H14.7255V15.5C14.7255 15.8833 14.5922 16.2083 14.3255 16.475C14.0755 16.725 13.7672 16.85 13.4005 16.85H12.3255L10.6255 15.15C10.3588 14.8833 10.1505 14.6167 10.0005 14.35C9.86716 14.0667 9.80049 13.7667 9.80049 13.45C9.80049 13.0833 9.95049 12.775 10.2505 12.525C10.5505 12.275 10.9172 12.15 11.3505 12.15H13.4005V10.975H10.6755C10.3255 10.975 10.0338 10.9 9.80049 10.75C9.56716 10.5833 9.40882 10.3667 9.32549 10.1C9.25882 9.83333 9.27549 9.54167 9.37549 9.225L9.60049 8.525C9.71716 8.175 9.90882 7.9 10.1755 7.7C10.4588 7.5 10.7755 7.4 11.1255 7.4H19.3005V8.7V8.875ZM4.75049 16.675H4.82549C4.84216 16.675 4.85049 16.675 4.85049 16.675C4.85049 16.675 4.85882 16.675 4.87549 16.675H4.67549C4.65882 16.675 4.65049 16.675 4.65049 16.675C4.65049 16.675 4.64216 16.675 4.62549 16.675C4.64216 16.675 4.65049 16.675 4.65049 16.675H4.75049Z" fill="black"/>
</g>
<defs>
<clipPath id="clip0_3389_9012">
<rect width="24" height="24" fill="white"/>
</clipPath>
</defs>
</svg>
