<svg width="24" height="24" viewBox="0 0 24 24" fill="none" xmlns="http://www.w3.org/2000/svg">
<g clip-path="url(#clip0_3190_37534)">
<rect width="24" height="24" fill="white"/>
<path d="M12 22C10.1667 22 8.48333 21.5583 6.95 20.675C5.41667 19.7917 4.20833 18.5833 3.325 17.05C2.44167 15.5167 2 13.8333 2 12C2 10.1667 2.44167 8.48333 3.325 6.95C4.20833 5.41667 5.41667 4.20833 6.95 3.325C8.48333 2.44167 10.1667 2 12 2C13.8333 2 15.5167 2.44167 17.05 3.325C18.5833 4.20833 19.7917 5.41667 20.675 6.95C21.5583 8.48333 22 10.1667 22 12C22 13.8333 21.5583 15.5167 20.675 17.05C19.7917 18.5833 18.5833 19.7917 17.05 20.675C15.5167 21.5583 13.8333 22 12 22ZM12 21.1C13.6667 21.1 15.1917 20.7 16.575 19.9C17.9583 19.0833 19.05 17.9833 19.85 16.6C20.6667 15.2 21.075 13.6667 21.075 12C21.075 10.3333 20.6667 8.80833 19.85 7.425C19.05 6.025 17.9583 4.925 16.575 4.125C15.1917 3.30833 13.6667 2.9 12 2.9C10.3333 2.9 8.80833 3.30833 7.425 4.125C6.04167 4.925 4.94167 6.025 4.125 7.425C3.325 8.80833 2.925 10.3333 2.925 12C2.925 13.6667 3.325 15.2 4.125 16.6C4.94167 17.9833 6.04167 19.0833 7.425 19.9C8.80833 20.7 10.3333 21.1 12 21.1ZM15.3 2.85L17.7 4.15L18.8 5H10.75C10.3333 5 9.95833 5.10833 9.625 5.325C9.30833 5.525 9.08333 5.8 8.95 6.15L8.025 8.7C7.89167 9.1 7.875 9.475 7.975 9.825C8.09167 10.175 8.3 10.4583 8.6 10.675C8.9 10.8917 9.26667 11 9.7 11H14V13H9.5C9.08333 13 8.725 13.1417 8.425 13.425C8.14167 13.7083 8 14.0667 8 14.5C8 14.9333 8.08333 15.3583 8.25 15.775C8.41667 16.1917 8.675 16.6167 9.025 17.05L11.175 19.675H12.75C13.1333 19.675 13.4333 19.5583 13.65 19.325C13.8833 19.0917 14 18.7917 14 18.425V15H17.075L19.675 17.6L18.625 19.05L16.725 20.375L14.25 21.425L10.525 21.625L6.475 19.975L4.1 17.575L2.6 14.625L2.575 9.95L4.575 5.65L7.9 3.225L12.25 2.375L15.3 2.85Z" fill="black"/>
</g>
<defs>
<clipPath id="clip0_3190_37534">
<rect width="24" height="24" fill="white"/>
</clipPath>
</defs>
</svg>
