<svg width="24" height="24" viewBox="0 0 24 24" fill="none" xmlns="http://www.w3.org/2000/svg">
<g clip-path="url(#clip0_3389_9010)">
<rect width="24" height="24" fill="white"/>
<path d="M12.0005 22C10.1672 22 8.48382 21.5583 6.95049 20.675C5.41716 19.7917 4.20882 18.5833 3.32549 17.05C2.44216 15.5167 2.00049 13.8333 2.00049 12C2.00049 10.1667 2.44216 8.48333 3.32549 6.95C4.20882 5.41667 5.41716 4.20833 6.95049 3.325C8.48382 2.44167 10.1672 2 12.0005 2C13.8338 2 15.5172 2.44167 17.0505 3.325C18.5838 4.20833 19.7922 5.41667 20.6755 6.95C21.5588 8.48333 22.0005 10.1667 22.0005 12C22.0005 13.8333 21.5588 15.5167 20.6755 17.05C19.7922 18.5833 18.5838 19.7917 17.0505 20.675C15.5172 21.5583 13.8338 22 12.0005 22ZM12.0005 19.05C13.3005 19.05 14.4838 18.7417 15.5505 18.125C16.6172 17.4917 17.4588 16.6417 18.0755 15.575C18.6922 14.4917 19.0005 13.3 19.0005 12C19.0005 10.7 18.6922 9.51667 18.0755 8.45C17.4588 7.36667 16.6172 6.51667 15.5505 5.9C14.4838 5.26667 13.3005 4.95 12.0005 4.95C10.7005 4.95 9.51716 5.26667 8.45049 5.9C7.38382 6.51667 6.54216 7.36667 5.92549 8.45C5.30882 9.51667 5.00049 10.7 5.00049 12C5.00049 13.3 5.30882 14.4917 5.92549 15.575C6.54216 16.6417 7.38382 17.4917 8.45049 18.125C9.51716 18.7417 10.7005 19.05 12.0005 19.05ZM19.7255 8.65C19.7255 8.66667 19.7255 8.68333 19.7255 8.7C19.7255 8.73333 19.7255 8.75833 19.7255 8.775C19.7422 8.775 19.7505 8.80833 19.7505 8.875V9.4C19.7505 9.51667 19.7505 9.60833 19.7505 9.675C19.7505 9.74167 19.7505 9.83333 19.7505 9.95V12.1V14.25L18.8005 15.375L16.2755 13.175H14.8755V15.55C14.8755 15.9167 14.7505 16.225 14.5005 16.475C14.2505 16.725 13.9505 16.85 13.6005 16.85H12.2005L10.4505 15.1C10.1672 14.8167 9.95882 14.5417 9.82549 14.275C9.69216 13.9917 9.62549 13.7 9.62549 13.4C9.62549 13 9.76716 12.6667 10.0505 12.4C10.3338 12.1167 10.6922 11.975 11.1255 11.975H13.9255V11H11.2755C10.9422 11 10.6588 10.925 10.4255 10.775C10.1922 10.625 10.0422 10.425 9.97549 10.175C9.90882 9.90833 9.92549 9.61667 10.0255 9.3L10.3505 8.3C10.4838 7.96667 10.6755 7.70833 10.9255 7.525C11.1922 7.325 11.4922 7.225 11.8255 7.225H19.7255V8.475V8.65ZM4.75049 16.675H4.82549C4.84216 16.675 4.85049 16.675 4.85049 16.675C4.85049 16.675 4.85882 16.675 4.87549 16.675H4.67549C4.65882 16.675 4.65049 16.675 4.65049 16.675C4.65049 16.675 4.64216 16.675 4.62549 16.675C4.62549 16.675 4.63382 16.675 4.65049 16.675H4.75049Z" fill="black"/>
</g>
<defs>
<clipPath id="clip0_3389_9010">
<rect width="24" height="24" fill="white"/>
</clipPath>
</defs>
</svg>
