<svg width="24" height="24" viewBox="0 0 24 24" fill="none" xmlns="http://www.w3.org/2000/svg">
<g clip-path="url(#clip0_3190_37724)">
<rect width="24" height="24" fill="white"/>
<path d="M12 22C10.1667 22 8.48333 21.5583 6.95 20.675C5.41667 19.7917 4.20833 18.5833 3.325 17.05C2.44167 15.5167 2 13.8333 2 12C2 10.1667 2.44167 8.48333 3.325 6.95C4.20833 5.41667 5.41667 4.20833 6.95 3.325C8.48333 2.44167 10.1667 2 12 2C13.8333 2 15.5167 2.44167 17.05 3.325C18.5833 4.20833 19.7917 5.41667 20.675 6.95C21.5583 8.48333 22 10.1667 22 12C22 13.8333 21.5583 15.5167 20.675 17.05C19.7917 18.5833 18.5833 19.7917 17.05 20.675C15.5167 21.5583 13.8333 22 12 22ZM12 19.125C13.3 19.125 14.4917 18.8083 15.575 18.175C16.6583 17.5417 17.5083 16.6833 18.125 15.6C18.7583 14.5167 19.075 13.3167 19.075 12C19.075 10.7 18.7583 9.50833 18.125 8.425C17.5083 7.325 16.6583 6.45833 15.575 5.825C14.4917 5.19167 13.3 4.875 12 4.875C10.7 4.875 9.50833 5.19167 8.425 5.825C7.34167 6.45833 6.48333 7.31667 5.85 8.4C5.23333 9.48333 4.925 10.6833 4.925 12C4.925 13.3 5.23333 14.5 5.85 15.6C6.48333 16.6833 7.34167 17.5417 8.425 18.175C9.50833 18.8083 10.7 19.125 12 19.125ZM6.8 3.575L10.525 2.175L15.85 2.75L19.725 5.725L21.875 10.725L21.1 16.15L18.7 19.375L15.075 21.45L12.275 21.8L9.15 21.45L6 19.9L3.75 17.525L2.375 14H7.95C8.38333 14 8.75833 13.8917 9.075 13.675C9.39167 13.4583 9.61667 13.15 9.75 12.75L11.2 8.6C11.4 8.05 11.3583 7.59167 11.075 7.225C10.7917 6.85833 10.3583 6.675 9.775 6.675H4.225L6.8 3.575ZM13.375 12C12.9417 12 12.5583 12.1 12.225 12.3C11.9083 12.5 11.6917 12.775 11.575 13.125L11.125 14.45C10.9417 14.9667 10.975 15.4083 11.225 15.775C11.4917 16.1417 11.9 16.325 12.45 16.325H13.85L14.25 17.325H15.5C15.9333 17.325 16.2917 17.1833 16.575 16.9C16.8583 16.6 17 16.2417 17 15.825V13.5C17 13.0667 16.8583 12.7083 16.575 12.425C16.2917 12.1417 15.9333 12 15.5 12H13.375Z" fill="black"/>
</g>
<defs>
<clipPath id="clip0_3190_37724">
<rect width="24" height="24" fill="white"/>
</clipPath>
</defs>
</svg>
