<svg width="24" height="24" viewBox="0 0 24 24" fill="none" xmlns="http://www.w3.org/2000/svg">
<g clip-path="url(#clip0_3190_37630)">
<rect width="24" height="24" fill="white"/>
<path d="M12.0005 22C10.1672 22 8.48382 21.5583 6.95049 20.675C5.41716 19.7917 4.20882 18.5833 3.32549 17.05C2.44216 15.5167 2.00049 13.8333 2.00049 12C2.00049 10.1667 2.44216 8.48333 3.32549 6.95C4.20882 5.41667 5.41716 4.20833 6.95049 3.325C8.48382 2.44167 10.1672 2 12.0005 2C13.8338 2 15.5172 2.44167 17.0505 3.325C18.5838 4.20833 19.7922 5.41667 20.6755 6.95C21.5588 8.48333 22.0005 10.1667 22.0005 12C22.0005 13.8333 21.5588 15.5167 20.6755 17.05C19.7922 18.5833 18.5838 19.7917 17.0505 20.675C15.5172 21.5583 13.8338 22 12.0005 22ZM12.0005 19.65C13.4005 19.65 14.6838 19.3167 15.8505 18.65C17.0172 17.9667 17.9338 17.0417 18.6005 15.875C19.2672 14.6917 19.6005 13.4 19.6005 12C19.6005 10.6 19.2672 9.31667 18.6005 8.15C17.9338 6.96667 17.0172 6.04167 15.8505 5.375C14.6838 4.69167 13.4005 4.35 12.0005 4.35C10.6005 4.35 9.31716 4.69167 8.15049 5.375C6.98382 6.04167 6.06716 6.96667 5.40049 8.15C4.73382 9.31667 4.40049 10.6 4.40049 12C4.40049 13.4 4.73382 14.6917 5.40049 15.875C6.06716 17.0417 6.98382 17.9667 8.15049 18.65C9.31716 19.3167 10.6005 19.65 12.0005 19.65ZM14.6755 6C15.1922 6 15.6255 6.13333 15.9755 6.4C16.3422 6.66667 16.5838 7.01667 16.7005 7.45C16.8172 7.88333 16.7922 8.31667 16.6255 8.75L16.0005 10.3C15.8505 10.7 15.5922 11.0167 15.2255 11.25C14.8755 11.4667 14.4755 11.575 14.0255 11.575H12.0255V12.7H14.1255C14.6588 12.7 15.1088 12.825 15.4755 13.075C15.8588 13.325 16.1172 13.6583 16.2505 14.075C16.3838 14.4917 16.3672 14.9417 16.2005 15.425L15.6505 16.925C15.4672 17.475 15.1422 17.9083 14.6755 18.225C14.2255 18.525 13.7088 18.675 13.1255 18.675H10.1505V14.55H9.07549C8.45882 14.55 7.92549 14.3333 7.47549 13.9C7.04216 13.4667 6.82549 12.9333 6.82549 12.3V8.575C6.82549 7.85833 7.07549 7.25 7.57549 6.75C8.07549 6.25 8.69216 6 9.42549 6H14.6755ZM8.72549 12.3C8.72549 12.4167 8.75882 12.5167 8.82549 12.6C8.89216 12.6667 8.97549 12.7 9.07549 12.7H10.1505V9.75H14.0755C14.1422 9.75 14.2005 9.74167 14.2505 9.725C14.3005 9.69167 14.3255 9.64167 14.3255 9.575L14.9005 8.15C14.9338 8.05 14.9255 7.975 14.8755 7.925C14.8422 7.875 14.7755 7.85 14.6755 7.85H9.42549C9.22549 7.85 9.05882 7.91667 8.92549 8.05C8.79216 8.18333 8.72549 8.35833 8.72549 8.575V12.3ZM13.1255 16.825C13.3088 16.825 13.4672 16.775 13.6005 16.675C13.7505 16.575 13.8588 16.4333 13.9255 16.25L14.4005 14.85C14.4338 14.7667 14.4255 14.6917 14.3755 14.625C14.3422 14.5583 14.2672 14.525 14.1505 14.525H12.0255V16.825H13.1255Z" fill="black"/>
</g>
<defs>
<clipPath id="clip0_3190_37630">
<rect width="24" height="24" fill="white"/>
</clipPath>
</defs>
</svg>
