<svg width="24" height="24" viewBox="0 0 24 24" fill="none" xmlns="http://www.w3.org/2000/svg">
<g clip-path="url(#clip0_3190_37644)">
<rect width="24" height="24" fill="white"/>
<path d="M17.05 20.675C15.5167 21.5583 13.8333 22 12 22C10.1667 22 8.48333 21.5583 6.95 20.675C5.41667 19.7917 4.20833 18.5833 3.325 17.05C2.44167 15.5167 2 13.8333 2 12C2 10.1667 2.44167 8.48333 3.325 6.95C4.20833 5.41667 5.41667 4.20833 6.95 3.325C8.48333 2.44167 10.1667 2 12 2C13.8333 2 15.5167 2.44167 17.05 3.325C18.5833 4.20833 19.7917 5.41667 20.675 6.95C21.5583 8.48333 22 10.1667 22 12C22 13.8333 21.5583 15.5167 20.675 17.05C19.7917 18.5833 18.5833 19.7917 17.05 20.675ZM16.55 5.925C16.2833 5.525 15.8917 5.325 15.375 5.325H8.5C8.08333 5.325 7.725 5.46667 7.425 5.75C7.14167 6.03333 7 6.39167 7 6.825V11.5C7 11.9167 7.14167 12.275 7.425 12.575C7.725 12.8583 8.08333 13 8.5 13H10V19H13.625C13.925 19 14.2333 18.8917 14.55 18.675C14.8667 18.4583 15.0667 18.2 15.15 17.9L15.95 14.95C16.0833 14.4667 16.0083 14.025 15.725 13.625C15.4417 13.2083 15.0583 13 14.575 13H12V11H14.175C14.5583 11 14.9 10.8833 15.2 10.65C15.5 10.4167 15.7167 10.1 15.85 9.7L16.7 7.275C16.8833 6.775 16.8333 6.325 16.55 5.925Z" fill="black"/>
</g>
<defs>
<clipPath id="clip0_3190_37644">
<rect width="24" height="24" fill="white"/>
</clipPath>
</defs>
</svg>
