<svg width="24" height="24" viewBox="0 0 24 24" fill="none" xmlns="http://www.w3.org/2000/svg">
<g clip-path="url(#clip0_3190_37712)">
<rect width="24" height="24" fill="white"/>
<path d="M12.0005 22C10.1672 22 8.48382 21.5583 6.95049 20.675C5.41716 19.7917 4.20882 18.5833 3.32549 17.05C2.44216 15.5167 2.00049 13.8333 2.00049 12C2.00049 10.1667 2.44216 8.48333 3.32549 6.95C4.20882 5.41667 5.41716 4.20833 6.95049 3.325C8.48382 2.44167 10.1672 2 12.0005 2C13.8338 2 15.5172 2.44167 17.0505 3.325C18.5838 4.20833 19.7922 5.41667 20.6755 6.95C21.5588 8.48333 22.0005 10.1667 22.0005 12C22.0005 13.8333 21.5588 15.5167 20.6755 17.05C19.7922 18.5833 18.5838 19.7917 17.0505 20.675C15.5172 21.5583 13.8338 22 12.0005 22ZM12.0005 18.55C13.2005 18.55 14.2922 18.2583 15.2755 17.675C16.2755 17.0917 17.0588 16.3 17.6255 15.3C18.2088 14.3 18.5005 13.2 18.5005 12C18.5005 10.8 18.2088 9.7 17.6255 8.7C17.0588 7.7 16.2755 6.90833 15.2755 6.325C14.2922 5.74167 13.2005 5.45 12.0005 5.45C10.8005 5.45 9.70049 5.74167 8.70049 6.325C7.71716 6.90833 6.93382 7.7 6.35049 8.7C5.78382 9.7 5.50049 10.8 5.50049 12C5.50049 13.2 5.78382 14.3 6.35049 15.3C6.93382 16.3 7.71716 17.0917 8.70049 17.675C9.70049 18.2583 10.8005 18.55 12.0005 18.55ZM9.52549 7.15C9.89216 7.15 10.1922 7.23333 10.4255 7.4C10.6755 7.55 10.8338 7.75833 10.9005 8.025C10.9838 8.29167 10.9672 8.59167 10.8505 8.925L9.77549 11.825C9.65882 12.1417 9.46716 12.3917 9.20049 12.575C8.93382 12.7583 8.62549 12.85 8.27549 12.85H4.22549V11.675H4.45049C4.65049 11.675 4.75882 11.6083 4.77549 11.475C4.79216 11.3417 4.77549 11.175 4.72549 10.975C4.70882 10.925 4.70049 10.8917 4.70049 10.875C4.70049 10.8417 4.69216 10.8 4.67549 10.75L4.90049 9.325C4.91716 9.25833 4.93382 9.20833 4.95049 9.175C4.96716 9.125 4.98382 9.09167 5.00049 9.075C5.03382 9.00833 5.05882 8.94167 5.07549 8.875L5.25049 8.325V7.15H9.52549ZM14.5255 12C14.8922 12 15.1922 12.125 15.4255 12.375C15.6755 12.625 15.8005 12.9333 15.8005 13.3V15.25C15.8005 15.6 15.6755 15.9 15.4255 16.15C15.1922 16.3833 14.8922 16.5 14.5255 16.5H13.1755L12.8255 15.625H11.6255C11.3588 15.625 11.1338 15.575 10.9505 15.475C10.7672 15.3583 10.6505 15.2083 10.6005 15.025C10.5505 14.825 10.5672 14.6083 10.6505 14.375L11.2755 12.775C11.3588 12.5417 11.4922 12.3583 11.6755 12.225C11.8755 12.075 12.1005 12 12.3505 12H14.5255ZM13.4755 19.75C13.4922 19.75 13.5005 19.75 13.5005 19.75C13.5005 19.75 13.5088 19.75 13.5255 19.75H13.6255H13.6505H13.7005C13.7172 19.75 13.7255 19.75 13.7255 19.75C13.7088 19.75 13.7005 19.75 13.7005 19.75C13.7005 19.75 13.6922 19.75 13.6755 19.75H13.5505C13.5338 19.75 13.5255 19.75 13.5255 19.75C13.5255 19.75 13.5172 19.75 13.5005 19.75H13.4755Z" fill="black"/>
</g>
<defs>
<clipPath id="clip0_3190_37712">
<rect width="24" height="24" fill="white"/>
</clipPath>
</defs>
</svg>
