<svg width="24" height="24" viewBox="0 0 24 24" fill="none" xmlns="http://www.w3.org/2000/svg">
<g clip-path="url(#clip0_3190_37522)">
<rect width="24" height="24" fill="white"/>
<path d="M12.0005 22C10.1672 22 8.48382 21.5583 6.95049 20.675C5.41716 19.7917 4.20882 18.5833 3.32549 17.05C2.44216 15.5167 2.00049 13.8333 2.00049 12C2.00049 10.1667 2.44216 8.48333 3.32549 6.95C4.20882 5.41667 5.41716 4.20833 6.95049 3.325C8.48382 2.44167 10.1672 2 12.0005 2C13.8338 2 15.5172 2.44167 17.0505 3.325C18.5838 4.20833 19.7922 5.41667 20.6755 6.95C21.5588 8.48333 22.0005 10.1667 22.0005 12C22.0005 13.8333 21.5588 15.5167 20.6755 17.05C19.7922 18.5833 18.5838 19.7917 17.0505 20.675C15.5172 21.5583 13.8338 22 12.0005 22ZM12.0005 20.675C13.6005 20.675 15.0588 20.2917 16.3755 19.525C17.6922 18.7583 18.7255 17.7167 19.4755 16.4C20.2422 15.0667 20.6255 13.6 20.6255 12C20.6255 10.4 20.2422 8.94167 19.4755 7.625C18.7255 6.29167 17.6922 5.24167 16.3755 4.475C15.0588 3.70833 13.6005 3.325 12.0005 3.325C10.4005 3.325 8.94216 3.70833 7.62549 4.475C6.30882 5.24167 5.26716 6.29167 4.50049 7.625C3.75049 8.94167 3.37549 10.4 3.37549 12C3.37549 13.6 3.75049 15.0667 4.50049 16.4C5.26716 17.7167 6.30882 18.7583 7.62549 19.525C8.94216 20.2917 10.4005 20.675 12.0005 20.675ZM10.5005 6.6C10.4672 6.6 10.4255 6.60833 10.3755 6.625C10.3422 6.625 10.3088 6.625 10.2755 6.625C10.2255 6.675 10.1755 6.725 10.1255 6.775C10.0922 6.80833 10.0588 6.85833 10.0255 6.925L9.32549 8.9C9.27549 9.05 9.29216 9.175 9.37549 9.275C9.45882 9.35833 9.59216 9.4 9.77549 9.4H14.7755V11.95H16.7255L20.5505 15.575L19.9255 16.725L16.2255 13.225H14.7755V16.85C14.7755 17.35 14.5922 17.7833 14.2255 18.15C13.8755 18.5 13.4505 18.675 12.9505 18.675H11.1755L9.27549 16.575C8.92549 16.175 8.65882 15.7917 8.47549 15.425C8.30882 15.0417 8.22549 14.6417 8.22549 14.225C8.22549 13.575 8.44216 13.0333 8.87549 12.6C9.32549 12.1667 9.88382 11.95 10.5505 11.95H13.4755V10.675H9.80049C9.36716 10.675 8.99216 10.5833 8.67549 10.4C8.35882 10.2167 8.14216 9.96667 8.02549 9.65C7.92549 9.31667 7.94216 8.95 8.07549 8.55L8.80049 6.575C8.93382 6.19167 9.15049 5.89167 9.45049 5.675C9.76716 5.44167 10.1338 5.325 10.5505 5.325H19.4255V6.6H10.5005ZM11.7255 17.4H12.9755C13.1255 17.4 13.2422 17.35 13.3255 17.25C13.4255 17.15 13.4755 17.0167 13.4755 16.85V13.225H10.5505C10.2505 13.225 9.99216 13.325 9.77549 13.525C9.57549 13.7083 9.47549 13.9417 9.47549 14.225C9.47549 14.4917 9.53382 14.7417 9.65049 14.975C9.76716 15.2083 9.95049 15.4583 10.2005 15.725L11.7255 17.4Z" fill="black"/>
</g>
<defs>
<clipPath id="clip0_3190_37522">
<rect width="24" height="24" fill="white"/>
</clipPath>
</defs>
</svg>
