<svg width="24" height="24" viewBox="0 0 24 24" fill="none" xmlns="http://www.w3.org/2000/svg">
<g clip-path="url(#clip0_3190_37544)">
<rect width="24" height="24" fill="white"/>
<path d="M12 22C10.1667 22 8.48333 21.5583 6.95 20.675C5.41667 19.7917 4.20833 18.5833 3.325 17.05C2.44167 15.5167 2 13.8333 2 12C2 10.1667 2.44167 8.48333 3.325 6.95C4.20833 5.41667 5.41667 4.20833 6.95 3.325C8.48333 2.44167 10.1667 2 12 2C13.8333 2 15.5167 2.44167 17.05 3.325C18.5833 4.20833 19.7917 5.41667 20.675 6.95C21.5583 8.48333 22 10.1667 22 12C22 13.8333 21.5583 15.5167 20.675 17.05C19.7917 18.5833 18.5833 19.7917 17.05 20.675C15.5167 21.5583 13.8333 22 12 22ZM12 18.55C13.2 18.55 14.2917 18.2583 15.275 17.675C16.275 17.0917 17.0583 16.3 17.625 15.3C18.2083 14.3 18.5 13.2 18.5 12C18.5 10.8 18.2083 9.7 17.625 8.7C17.0583 7.7 16.275 6.90833 15.275 6.325C14.2917 5.74167 13.2 5.45 12 5.45C10.8 5.45 9.7 5.74167 8.7 6.325C7.71667 6.90833 6.93333 7.7 6.35 8.7C5.78333 9.7 5.5 10.8 5.5 12C5.5 13.2 5.78333 14.3 6.35 15.3C6.93333 16.3 7.71667 17.0917 8.7 17.675C9.7 18.2583 10.8 18.55 12 18.55ZM14.525 4.55L16.475 5.6L17.525 6H10.875C10.5083 6 10.1833 6.09167 9.9 6.275C9.63333 6.44167 9.45833 6.675 9.375 6.975L8.675 9.25C8.575 9.56667 8.56667 9.85833 8.65 10.125C8.75 10.3917 8.925 10.6083 9.175 10.775C9.44167 10.925 9.75833 11 10.125 11H14V13H10.125C9.64167 13 9.26667 13.1167 9 13.35C8.75 13.5833 8.625 13.9667 8.625 14.5C8.625 14.8333 8.725 15.1583 8.925 15.475C9.14167 15.7917 9.45 16.1667 9.85 16.6L11.1 18H12.5C12.9667 18 13.3333 17.8583 13.6 17.575C13.8667 17.2917 14 16.9333 14 16.5V15.4H15.875L18.1 17.625L17.25 17.725L15.675 18.825L13.675 19.675L10.65 19.85L7.325 18.5L5.4 16.525L4.175 14.15L4.15 10.325L5.8 6.825L8.475 4.85L12.05 4.15L14.525 4.55Z" fill="black"/>
</g>
<defs>
<clipPath id="clip0_3190_37544">
<rect width="24" height="24" fill="white"/>
</clipPath>
</defs>
</svg>
