<svg width="24" height="24" viewBox="0 0 24 24" fill="none" xmlns="http://www.w3.org/2000/svg">
<g clip-path="url(#clip0_3190_37626)">
<rect width="24" height="24" fill="white"/>
<path d="M12.0005 22C10.1672 22 8.48382 21.5583 6.95049 20.675C5.41716 19.7917 4.20882 18.5833 3.32549 17.05C2.44216 15.5167 2.00049 13.8333 2.00049 12C2.00049 10.1667 2.44216 8.48333 3.32549 6.95C4.20882 5.41667 5.41716 4.20833 6.95049 3.325C8.48382 2.44167 10.1672 2 12.0005 2C13.8338 2 15.5172 2.44167 17.0505 3.325C18.5838 4.20833 19.7922 5.41667 20.6755 6.95C21.5588 8.48333 22.0005 10.1667 22.0005 12C22.0005 13.8333 21.5588 15.5167 20.6755 17.05C19.7922 18.5833 18.5838 19.7917 17.0505 20.675C15.5172 21.5583 13.8338 22 12.0005 22ZM12.0005 20.675C13.6005 20.675 15.0588 20.2917 16.3755 19.525C17.6922 18.7583 18.7255 17.7167 19.4755 16.4C20.2422 15.0667 20.6255 13.6 20.6255 12C20.6255 10.4 20.2422 8.94167 19.4755 7.625C18.7255 6.29167 17.6922 5.24167 16.3755 4.475C15.0588 3.70833 13.6005 3.325 12.0005 3.325C10.4005 3.325 8.94216 3.70833 7.62549 4.475C6.30882 5.24167 5.26716 6.29167 4.50049 7.625C3.75049 8.94167 3.37549 10.4 3.37549 12C3.37549 13.6 3.75049 15.0667 4.50049 16.4C5.26716 17.7167 6.30882 18.7583 7.62549 19.525C8.94216 20.2917 10.4005 20.675 12.0005 20.675ZM15.3505 5.825C15.7838 5.825 16.1422 5.925 16.4255 6.125C16.7255 6.325 16.9088 6.59167 16.9755 6.925C17.0588 7.24167 17.0255 7.59167 16.8755 7.975L16.0505 10.1C15.9172 10.4667 15.7005 10.7583 15.4005 10.975C15.1172 11.1917 14.7922 11.3 14.4255 11.3H11.2755V12.85H14.7755C15.2088 12.85 15.5755 12.95 15.8755 13.15C16.1755 13.3333 16.3755 13.6 16.4755 13.95C16.5922 14.2833 16.5838 14.6417 16.4505 15.025L15.7505 17.125C15.5672 17.7083 15.2422 18.1667 14.7755 18.5C14.3088 18.8333 13.7838 19 13.2005 19H10.0255V14.1H8.52549C8.00882 14.1 7.56716 13.925 7.20049 13.575C6.85049 13.225 6.67549 12.7917 6.67549 12.275V8.375C6.67549 7.65833 6.91716 7.05833 7.40049 6.575C7.90049 6.075 8.50049 5.825 9.20049 5.825H15.3505ZM7.95049 12.275C7.95049 12.4417 8.00049 12.5833 8.10049 12.7C8.21716 12.8 8.35882 12.85 8.52549 12.85H10.0255V10.05H14.5255C14.6422 10.05 14.7422 10.025 14.8255 9.975C14.9088 9.90833 14.9672 9.825 15.0005 9.725L15.8005 7.675C15.8672 7.49167 15.8505 7.35 15.7505 7.25C15.6672 7.13333 15.5338 7.075 15.3505 7.075H9.20049C8.85049 7.075 8.55049 7.2 8.30049 7.45C8.06716 7.7 7.95049 8.00833 7.95049 8.375V12.275ZM13.2005 17.775C13.5005 17.775 13.7755 17.675 14.0255 17.475C14.2922 17.2583 14.4755 16.9833 14.5755 16.65L15.2255 14.7C15.2588 14.5167 15.2338 14.3667 15.1505 14.25C15.0838 14.1333 14.9588 14.075 14.7755 14.075H11.2755V17.775H13.2005Z" fill="black"/>
</g>
<defs>
<clipPath id="clip0_3190_37626">
<rect width="24" height="24" fill="white"/>
</clipPath>
</defs>
</svg>
