<svg width="24" height="24" viewBox="0 0 24 24" fill="none" xmlns="http://www.w3.org/2000/svg">
<g clip-path="url(#clip0_3375_5936)">
<rect width="24" height="24" fill="white"/>
<path d="M5.075 12.75C5.29167 12.9667 5.54167 13.075 5.825 13.075C6.125 13.075 6.38333 12.975 6.6 12.775C6.81667 12.5583 6.925 12.3 6.925 12C6.925 11.7 6.81667 11.45 6.6 11.25C6.38333 11.0333 6.125 10.925 5.825 10.925C5.525 10.925 5.26667 11.0333 5.05 11.25C4.85 11.45 4.75 11.7 4.75 12C4.75 12.2833 4.85833 12.5333 5.075 12.75ZM17.5 8.6L18.025 9.125L23 6.2V17.8L18.025 14.9L17.525 15.425C16.7417 16.225 16.0167 16.9 15.35 17.45C14.6833 18 13.85 18.4833 12.85 18.9C11.8667 19.3 10.75 19.5 9.5 19.5C8.15 19.5 6.85833 19.175 5.625 18.525C4.39167 17.875 3.29167 16.9833 2.325 15.85C1.375 14.7167 0.625 13.4333 0.075 12C0.625 10.5667 1.375 9.28333 2.325 8.15C3.275 7.01667 4.36667 6.125 5.6 5.475C6.85 4.825 8.15 4.5 9.5 4.5C10.75 4.5 11.8667 4.70833 12.85 5.125C13.8333 5.525 14.6583 6.00833 15.325 6.575C16.0083 7.125 16.7333 7.8 17.5 8.6Z" fill="black"/>
</g>
<defs>
<clipPath id="clip0_3375_5936">
<rect width="24" height="24" fill="white"/>
</clipPath>
</defs>
</svg>
