<svg width="24" height="24" viewBox="0 0 24 24" fill="none" xmlns="http://www.w3.org/2000/svg">
<g clip-path="url(#clip0_3190_38281)">
<rect width="24" height="24" fill="white"/>
<path d="M4.80049 18.75C3.70049 17.6333 2.97549 16.3833 2.62549 15C2.27549 13.6 2.32549 12.1917 2.77549 10.775C3.22549 9.35833 4.04216 8.05 5.22549 6.85C6.29216 5.78333 7.56716 4.95 9.05049 4.35C10.5505 3.73333 12.2505 3.3 14.1505 3.05C16.0672 2.8 18.3005 2.675 20.8505 2.675C20.8505 5.24167 20.7255 7.475 20.4755 9.375C20.2422 11.275 19.8172 12.975 19.2005 14.475C18.6005 15.9583 17.7672 17.2417 16.7005 18.325C15.5005 19.5083 14.1922 20.325 12.7755 20.775C11.3588 21.225 9.95049 21.275 8.55049 20.925C7.16716 20.575 5.91716 19.85 4.80049 18.75ZM5.85049 17.7C6.76716 18.6167 7.80049 19.225 8.95049 19.525C10.1172 19.8083 11.2838 19.7667 12.4505 19.4C13.6338 19.0167 14.7255 18.3333 15.7255 17.35C17.0588 16.0167 18.0088 14.2417 18.5755 12.025C19.1588 9.79167 19.4505 7.13333 19.4505 4.05C16.3838 4.05 13.7422 4.34167 11.5255 4.925C9.32549 5.50833 7.55049 6.475 6.20049 7.825C5.21716 8.825 4.53382 9.91667 4.15049 11.1C3.78382 12.2667 3.74216 13.4333 4.02549 14.6C4.32549 15.75 4.93382 16.7833 5.85049 17.7ZM1.82549 20.7L14.3255 8.225L15.2755 9.2L2.80049 21.675L1.82549 20.7Z" fill="black"/>
</g>
<defs>
<clipPath id="clip0_3190_38281">
<rect width="24" height="24" fill="white"/>
</clipPath>
</defs>
</svg>
