<svg width="24" height="24" viewBox="0 0 24 24" fill="none" xmlns="http://www.w3.org/2000/svg">
<g clip-path="url(#clip0_3190_38295)">
<rect width="24" height="24" fill="white"/>
<path d="M4.8 18.75C4.6 18.5333 4.44167 18.3583 4.325 18.225L15.075 7.575L14.475 6.95L3.375 16.9C2.79167 15.9 2.45833 14.8167 2.375 13.65C2.30833 12.4667 2.51667 11.2917 3 10.125C3.48333 8.95833 4.225 7.86667 5.225 6.85C6.29167 5.78333 7.56667 4.95 9.05 4.35C10.55 3.73333 12.25 3.3 14.15 3.05C16.0667 2.8 18.3 2.675 20.85 2.675C20.85 5.24167 20.725 7.475 20.475 9.375C20.2417 11.275 19.8167 12.975 19.2 14.475C18.6 15.9583 17.7667 17.2417 16.7 18.325C15.5 19.5083 14.1917 20.325 12.775 20.775C11.3583 21.225 9.95 21.275 8.55 20.925C7.16667 20.575 5.91667 19.85 4.8 18.75ZM1.825 20.7L15.075 7.575L16.025 8.525L2.8 21.675L1.825 20.7Z" fill="black"/>
</g>
<defs>
<clipPath id="clip0_3190_38295">
<rect width="24" height="24" fill="white"/>
</clipPath>
</defs>
</svg>
