<svg width="24" height="24" viewBox="0 0 24 24" fill="none" xmlns="http://www.w3.org/2000/svg">
<g clip-path="url(#clip0_3190_38297)">
<rect width="24" height="24" fill="white"/>
<path d="M4.8 18.75C4.51667 18.4667 4.30833 18.2417 4.175 18.075L14.675 7.575L13.925 6.8L2.95 16.275C2.51667 15.325 2.30833 14.3 2.325 13.2C2.34167 12.1 2.59167 11.0083 3.075 9.925C3.575 8.825 4.29167 7.8 5.225 6.85C6.29167 5.78333 7.56667 4.95 9.05 4.35C10.55 3.73333 12.25 3.3 14.15 3.05C16.0667 2.8 18.3 2.675 20.85 2.675C20.85 5.24167 20.725 7.475 20.475 9.375C20.2417 11.275 19.8167 12.975 19.2 14.475C18.6 15.9583 17.7667 17.2417 16.7 18.325C15.5 19.5083 14.1917 20.325 12.775 20.775C11.3583 21.225 9.95 21.275 8.55 20.925C7.16667 20.575 5.91667 19.85 4.8 18.75ZM1.675 20.55L14.675 7.575L15.925 8.85L2.95 21.825L1.675 20.55Z" fill="black"/>
</g>
<defs>
<clipPath id="clip0_3190_38297">
<rect width="24" height="24" fill="white"/>
</clipPath>
</defs>
</svg>
