<svg width="24" height="24" viewBox="0 0 24 24" fill="none" xmlns="http://www.w3.org/2000/svg">
<g clip-path="url(#clip0_3190_38281)">
<rect width="24" height="24" fill="white"/>
<path d="M5.30049 18.75C4.20049 17.6333 3.47549 16.3833 3.12549 15C2.77549 13.6 2.82549 12.1917 3.27549 10.775C3.72549 9.35833 4.54216 8.05 5.72549 6.85C6.79216 5.78333 8.06716 4.95 9.55049 4.35C11.0505 3.73333 12.7505 3.3 14.6505 3.05C16.5672 2.8 18.8005 2.675 21.3505 2.675C21.3505 5.24167 21.2255 7.475 20.9755 9.375C20.7422 11.275 20.3172 12.975 19.7005 14.475C19.1005 15.9583 18.2672 17.2417 17.2005 18.325C16.0005 19.5083 14.6922 20.325 13.2755 20.775C11.8588 21.225 10.4505 21.275 9.05049 20.925C7.66716 20.575 6.41716 19.85 5.30049 18.75ZM6.35049 17.7C7.26716 18.6167 8.30049 19.225 9.45049 19.525C10.6172 19.8083 11.7838 19.7667 12.9505 19.4C14.1338 19.0167 15.2255 18.3333 16.2255 17.35C17.5588 16.0167 18.5088 14.2417 19.0755 12.025C19.6588 9.79167 19.9505 7.13333 19.9505 4.05C16.8838 4.05 14.2422 4.34167 12.0255 4.925C9.82549 5.50833 8.05049 6.475 6.70049 7.825C5.71716 8.825 5.03382 9.91667 4.65049 11.1C4.28382 12.2667 4.24216 13.4333 4.52549 14.6C4.82549 15.75 5.43382 16.7833 6.35049 17.7ZM2.32549 20.7L14.8255 8.225L15.7755 9.2L3.30049 21.675L2.32549 20.7Z" fill="black"/>
</g>
<defs>
<clipPath id="clip0_3190_38281">
<rect width="24" height="24" fill="white"/>
</clipPath>
</defs>
</svg>
