<svg width="24" height="24" viewBox="0 0 24 24" fill="none" xmlns="http://www.w3.org/2000/svg">
<g clip-path="url(#clip0_3190_37810)">
<rect width="24" height="24" fill="white"/>
<path d="M12.7505 15.25L20.1255 7.725L21.3505 8.95L12.7005 17.625L12.7505 15.25ZM2.00049 11.225L9.45049 11.35V12.975H2.00049V11.225ZM3.17549 7.075L4.40049 5.85L11.2505 12.825L11.3005 15.2L3.17549 7.075ZM11.1005 2H12.9005V22H11.1005V2ZM6.87549 3.9L8.10049 2.675L11.2505 5.95L11.3005 8.325L6.87549 3.9ZM12.7505 8.1L17.4255 3.325L18.6505 4.55L12.7005 10.475L12.7505 8.1ZM14.9755 13.325L21.5755 13.225V14.975H14.9755V13.325Z" fill="black"/>
</g>
<defs>
<clipPath id="clip0_3190_37810">
<rect width="24" height="24" fill="white"/>
</clipPath>
</defs>
</svg>
