<svg width="24" height="24" viewBox="0 0 24 24" fill="none" xmlns="http://www.w3.org/2000/svg">
<g clip-path="url(#clip0_3190_37658)">
<rect width="24" height="24" fill="white"/>
<path d="M10.4255 16.9H13.5755V22H10.4255V16.9ZM8.42549 18.625C7.22549 18.625 6.11716 18.3333 5.10049 17.75C4.10049 17.15 3.30049 16.3417 2.70049 15.325C2.11716 14.3083 1.82549 13.2 1.82549 12C1.82549 11.1 1.99216 10.25 2.32549 9.45C2.65882 8.63333 3.12549 7.93333 3.72549 7.35C4.34216 6.75 5.05049 6.28333 5.85049 5.95C6.18382 5.13333 6.65882 4.425 7.27549 3.825C7.89216 3.20833 8.60049 2.725 9.40049 2.375C10.2172 2.025 11.0838 1.85 12.0005 1.85C12.9172 1.85 13.7755 2.025 14.5755 2.375C15.3922 2.725 16.1088 3.20833 16.7255 3.825C17.3422 4.425 17.8172 5.13333 18.1505 5.95C18.9505 6.28333 19.6505 6.75 20.2505 7.35C20.8672 7.93333 21.3422 8.63333 21.6755 9.45C22.0088 10.25 22.1755 11.1 22.1755 12C22.1755 13.2 21.8755 14.3083 21.2755 15.325C20.6922 16.3417 19.8922 17.15 18.8755 17.75C17.8755 18.3333 16.7755 18.625 15.5755 18.625H8.42549ZM15.5755 15.525C16.2088 15.525 16.7922 15.3667 17.3255 15.05C17.8588 14.7333 18.2755 14.3083 18.5755 13.775C18.8755 13.225 19.0255 12.6333 19.0255 12C19.0255 11.35 18.8672 10.7583 18.5505 10.225C18.2505 9.69167 17.8255 9.275 17.2755 8.975C16.7422 8.65833 16.1588 8.5 15.5255 8.5C15.5255 7.85 15.3672 7.25833 15.0505 6.725C14.7505 6.175 14.3255 5.74167 13.7755 5.425C13.2255 5.10833 12.6338 4.95 12.0005 4.95C11.3672 4.95 10.7755 5.10833 10.2255 5.425C9.67549 5.74167 9.24216 6.175 8.92549 6.725C8.62549 7.25833 8.47549 7.85 8.47549 8.5C7.84216 8.5 7.25049 8.65833 6.70049 8.975C6.16716 9.275 5.74216 9.69167 5.42549 10.225C5.12549 10.7583 4.97549 11.35 4.97549 12C4.97549 12.6333 5.12549 13.225 5.42549 13.775C5.72549 14.3083 6.14216 14.7333 6.67549 15.05C7.20882 15.3667 7.79216 15.525 8.42549 15.525H15.5755Z" fill="black"/>
</g>
<defs>
<clipPath id="clip0_3190_37658">
<rect width="24" height="24" fill="white"/>
</clipPath>
</defs>
</svg>
