<svg width="24" height="24" viewBox="0 0 24 24" fill="none" xmlns="http://www.w3.org/2000/svg">
<g clip-path="url(#clip0_3190_37742)">
<rect width="24" height="24" fill="white"/>
<path d="M10.925 8.825C11.225 9.10833 11.5833 9.25 12 9.25C12.4167 9.25 12.7667 9.10833 13.05 8.825C13.35 8.525 13.5 8.16667 13.5 7.75C13.5 7.33333 13.35 6.98333 13.05 6.7C12.7667 6.4 12.4167 6.25 12 6.25C11.5833 6.25 11.225 6.4 10.925 6.7C10.6417 6.98333 10.5 7.33333 10.5 7.75C10.5 8.16667 10.6417 8.525 10.925 8.825ZM14.675 13.075C14.975 13.3583 15.3333 13.5 15.75 13.5C16.1667 13.5 16.5167 13.3583 16.8 13.075C17.1 12.775 17.25 12.4167 17.25 12C17.25 11.5833 17.1 11.2333 16.8 10.95C16.5167 10.65 16.1667 10.5 15.75 10.5C15.3333 10.5 14.975 10.65 14.675 10.95C14.3917 11.2333 14.25 11.5833 14.25 12C14.25 12.4167 14.3917 12.775 14.675 13.075ZM7.175 13.075C7.475 13.3583 7.83333 13.5 8.25 13.5C8.66667 13.5 9.01667 13.3583 9.3 13.075C9.6 12.775 9.75 12.4167 9.75 12C9.75 11.5833 9.6 11.2333 9.3 10.95C9.01667 10.65 8.66667 10.5 8.25 10.5C7.83333 10.5 7.475 10.65 7.175 10.95C6.89167 11.2333 6.75 11.5833 6.75 12C6.75 12.4167 6.89167 12.775 7.175 13.075ZM19.7 16.475C18.95 16.925 18.125 17.15 17.225 17.15H6.775C5.875 17.15 5.04167 16.925 4.275 16.475C3.525 16.0083 2.925 15.3833 2.475 14.6C2.04167 13.8167 1.825 12.95 1.825 12C1.825 11.05 2.05 10.1917 2.5 9.425C2.95 8.64167 3.55833 8.025 4.325 7.575C5.09167 7.125 5.93333 6.9 6.85 6.9C6.85 5.96667 7.075 5.11667 7.525 4.35C7.99167 3.56667 8.61667 2.95 9.4 2.5C10.1833 2.05 11.05 1.825 12 1.825C12.95 1.825 13.8167 2.05 14.6 2.5C15.3833 2.95 16 3.56667 16.45 4.35C16.9167 5.11667 17.15 5.96667 17.15 6.9C18.0667 6.9 18.9083 7.125 19.675 7.575C20.4417 8.025 21.05 8.64167 21.5 9.425C21.95 10.1917 22.175 11.05 22.175 12C22.175 12.95 21.95 13.8167 21.5 14.6C21.0667 15.3833 20.4667 16.0083 19.7 16.475ZM12.5 22H11.5V16.9H12.5V22Z" fill="black"/>
</g>
<defs>
<clipPath id="clip0_3190_37742">
<rect width="24" height="24" fill="white"/>
</clipPath>
</defs>
</svg>
