<svg width="24" height="24" viewBox="0 0 24 24" fill="none" xmlns="http://www.w3.org/2000/svg">
<g clip-path="url(#clip0_3190_37734)">
<rect width="24" height="24" fill="white"/>
<path d="M8.90049 13.775C8.45049 13.775 8.06716 13.6167 7.75049 13.3C7.45049 12.9833 7.30049 12.6 7.30049 12.15C7.30049 11.7 7.45049 11.325 7.75049 11.025C8.06716 10.7083 8.45049 10.55 8.90049 10.55C9.35049 10.55 9.73382 10.7083 10.0505 11.025C10.3672 11.325 10.5255 11.7 10.5255 12.15C10.5255 12.6 10.3672 12.9833 10.0505 13.3C9.73382 13.6167 9.35049 13.775 8.90049 13.775ZM15.1005 13.775C14.6505 13.775 14.2672 13.6167 13.9505 13.3C13.6338 12.9833 13.4755 12.6 13.4755 12.15C13.4755 11.7 13.6338 11.325 13.9505 11.025C14.2672 10.7083 14.6505 10.55 15.1005 10.55C15.5505 10.55 15.9255 10.7083 16.2255 11.025C16.5422 11.325 16.7005 11.7 16.7005 12.15C16.7005 12.6 16.5422 12.9833 16.2255 13.3C15.9255 13.6167 15.5505 13.775 15.1005 13.775ZM12.0005 9.75C11.5505 9.75 11.1672 9.59167 10.8505 9.275C10.5338 8.95833 10.3755 8.575 10.3755 8.125C10.3755 7.675 10.5338 7.3 10.8505 7C11.1672 6.68333 11.5505 6.525 12.0005 6.525C12.4505 6.525 12.8338 6.68333 13.1505 7C13.4672 7.3 13.6255 7.675 13.6255 8.125C13.6255 8.575 13.4672 8.95833 13.1505 9.275C12.8338 9.59167 12.4505 9.75 12.0005 9.75ZM10.7755 16.9H13.2255V22H10.7755V16.9ZM8.05049 18.25C6.91716 18.25 5.87549 17.975 4.92549 17.425C3.97549 16.8583 3.21716 16.1 2.65049 15.15C2.10049 14.1833 1.82549 13.125 1.82549 11.975C1.82549 11.075 2.00049 10.2333 2.35049 9.45C2.70049 8.65 3.19216 7.95833 3.82549 7.375C4.45882 6.79167 5.18382 6.35833 6.00049 6.075C6.28382 5.25833 6.71716 4.53333 7.30049 3.9C7.90049 3.25 8.60049 2.75 9.40049 2.4C10.2172 2.03333 11.0838 1.85 12.0005 1.85C12.9172 1.85 13.7755 2.03333 14.5755 2.4C15.3922 2.75 16.0922 3.25 16.6755 3.9C17.2755 4.53333 17.7172 5.25833 18.0005 6.075C18.8172 6.35833 19.5422 6.79167 20.1755 7.375C20.8088 7.95833 21.3005 8.65 21.6505 9.45C22.0005 10.2333 22.1755 11.075 22.1755 11.975C22.1755 13.125 21.8922 14.1833 21.3255 15.15C20.7755 16.1 20.0255 16.8583 19.0755 17.425C18.1255 17.975 17.0838 18.25 15.9505 18.25H8.05049ZM15.9505 15.875C16.6505 15.875 17.2838 15.7 17.8505 15.35C18.4338 15 18.8922 14.5333 19.2255 13.95C19.5755 13.35 19.7505 12.6917 19.7505 11.975C19.7505 11.275 19.5755 10.6333 19.2255 10.05C18.8922 9.45 18.4338 8.975 17.8505 8.625C17.2838 8.25833 16.6588 8.06667 15.9755 8.05C15.9422 7.35 15.7422 6.70833 15.3755 6.125C15.0255 5.54167 14.5505 5.08333 13.9505 4.75C13.3505 4.4 12.7005 4.225 12.0005 4.225C11.3005 4.225 10.6505 4.4 10.0505 4.75C9.45049 5.08333 8.96716 5.54167 8.60049 6.125C8.25049 6.70833 8.05882 7.35 8.02549 8.05C7.34216 8.06667 6.70882 8.25833 6.12549 8.625C5.55882 8.975 5.10049 9.45 4.75049 10.05C4.41716 10.6333 4.25049 11.275 4.25049 11.975C4.25049 12.6917 4.41716 13.35 4.75049 13.95C5.10049 14.5333 5.55882 15 6.12549 15.35C6.70882 15.7 7.35049 15.875 8.05049 15.875H15.9505Z" fill="black"/>
</g>
<defs>
<clipPath id="clip0_3190_37734">
<rect width="24" height="24" fill="white"/>
</clipPath>
</defs>
</svg>
