<svg width="24" height="24" viewBox="0 0 24 24" fill="none" xmlns="http://www.w3.org/2000/svg">
<g clip-path="url(#clip0_3190_37830)">
<rect width="24" height="24" fill="white"/>
<path d="M11.875 15.175L19.625 7.25L21.925 9.525L11.875 19.25V15.175ZM2 10.975L9.425 11.225V14.2H2V10.975ZM2.375 7.875L4.675 5.6L11.875 12.975V17.025L2.375 7.875ZM10.375 2H13.625V22H10.375V2ZM5.8 4.95L8.1 2.675L11.875 6.625V10.7L5.8 4.95ZM12.125 8.575L17.35 3.225L19.625 5.5L12.125 12.65V8.575ZM14.45 13.075L21.575 12.825V16.05H14.45V13.075Z" fill="black"/>
</g>
<defs>
<clipPath id="clip0_3190_37830">
<rect width="24" height="24" fill="white"/>
</clipPath>
</defs>
</svg>
