<svg width="24" height="24" viewBox="0 0 24 24" fill="none" xmlns="http://www.w3.org/2000/svg">
<g clip-path="url(#clip0_3190_37812)">
<rect width="24" height="24" fill="white"/>
<path d="M12.4755 15.225L19.9755 7.575L21.5255 9.125L12.4255 18.15L12.4755 15.225ZM2.00049 11.15L9.45049 11.3V13.375H2.00049V11.15ZM2.92549 7.325L4.50049 5.775L11.4505 12.875L11.4755 15.8L2.92549 7.325ZM10.8755 2H13.1255V22H10.8755V2ZM6.52549 4.25L8.10049 2.675L11.4505 6.175L11.4755 9.1L6.52549 4.25ZM12.5505 8.25L17.4005 3.3L18.9755 4.85L12.5255 11.175L12.5505 8.25ZM14.8005 13.25L21.5755 13.1V15.325H14.8005V13.25Z" fill="black"/>
</g>
<defs>
<clipPath id="clip0_3190_37812">
<rect width="24" height="24" fill="white"/>
</clipPath>
</defs>
</svg>
