<svg width="24" height="24" viewBox="0 0 24 24" fill="none" xmlns="http://www.w3.org/2000/svg">
<g clip-path="url(#clip0_3190_37750)">
<rect width="24" height="24" fill="white"/>
<path d="M10.525 9.05C10.925 9.45 11.4167 9.65 12 9.65C12.5833 9.65 13.075 9.45 13.475 9.05C13.875 8.65 14.075 8.15833 14.075 7.575C14.075 7.00833 13.875 6.525 13.475 6.125C13.075 5.725 12.5833 5.525 12 5.525C11.4167 5.525 10.925 5.725 10.525 6.125C10.125 6.525 9.925 7.00833 9.925 7.575C9.925 8.15833 10.125 8.65 10.525 9.05ZM14.425 13.625C14.8417 14.025 15.3417 14.225 15.925 14.225C16.4917 14.225 16.975 14.025 17.375 13.625C17.7917 13.225 18 12.7417 18 12.175C18 11.5917 17.7917 11.1 17.375 10.7C16.975 10.3 16.4917 10.1 15.925 10.1C15.3417 10.1 14.8417 10.3 14.425 10.7C14.025 11.1 13.825 11.5917 13.825 12.175C13.825 12.7417 14.025 13.225 14.425 13.625ZM6.6 13.625C7.01667 14.025 7.50833 14.225 8.075 14.225C8.65833 14.225 9.15 14.025 9.55 13.625C9.96667 13.225 10.175 12.7417 10.175 12.175C10.175 11.5917 9.96667 11.1 9.55 10.7C9.15 10.3 8.65833 10.1 8.075 10.1C7.50833 10.1 7.01667 10.3 6.6 10.7C6.2 11.1 6 11.5917 6 12.175C6 12.7417 6.2 13.225 6.6 13.625ZM19.7 16.475C18.95 16.925 18.125 17.15 17.225 17.15H6.775C5.875 17.15 5.04167 16.925 4.275 16.475C3.525 16.0083 2.925 15.3833 2.475 14.6C2.04167 13.8167 1.825 12.95 1.825 12C1.825 11.05 2.05 10.1917 2.5 9.425C2.95 8.64167 3.55833 8.025 4.325 7.575C5.09167 7.125 5.93333 6.9 6.85 6.9C6.85 5.96667 7.075 5.11667 7.525 4.35C7.99167 3.56667 8.61667 2.95 9.4 2.5C10.1833 2.05 11.05 1.825 12 1.825C12.95 1.825 13.8167 2.05 14.6 2.5C15.3833 2.95 16 3.56667 16.45 4.35C16.9167 5.11667 17.15 5.96667 17.15 6.9C18.0667 6.9 18.9083 7.125 19.675 7.575C20.4417 8.025 21.05 8.64167 21.5 9.425C21.95 10.1917 22.175 11.05 22.175 12C22.175 12.95 21.95 13.8167 21.5 14.6C21.0667 15.3833 20.4667 16.0083 19.7 16.475ZM13.575 22H10.425V16.9H13.575V22Z" fill="black"/>
</g>
<defs>
<clipPath id="clip0_3190_37750">
<rect width="24" height="24" fill="white"/>
</clipPath>
</defs>
</svg>
