<svg width="24" height="24" viewBox="0 0 24 24" fill="none" xmlns="http://www.w3.org/2000/svg">
<g clip-path="url(#clip0_3190_37738)">
<rect width="24" height="24" fill="white"/>
<path d="M9.20049 14.45C8.61716 14.45 8.12549 14.25 7.72549 13.85C7.32549 13.45 7.12549 12.9583 7.12549 12.375C7.12549 11.775 7.32549 11.275 7.72549 10.875C8.12549 10.475 8.61716 10.275 9.20049 10.275C9.80049 10.275 10.3005 10.475 10.7005 10.875C11.1005 11.275 11.3005 11.775 11.3005 12.375C11.3005 12.9583 11.1005 13.45 10.7005 13.85C10.3005 14.25 9.80049 14.45 9.20049 14.45ZM14.8005 14.45C14.2005 14.45 13.7005 14.25 13.3005 13.85C12.9005 13.45 12.7005 12.9583 12.7005 12.375C12.7005 11.775 12.9005 11.275 13.3005 10.875C13.7005 10.475 14.2005 10.275 14.8005 10.275C15.3838 10.275 15.8755 10.475 16.2755 10.875C16.6755 11.275 16.8755 11.775 16.8755 12.375C16.8755 12.9583 16.6755 13.45 16.2755 13.85C15.8755 14.25 15.3838 14.45 14.8005 14.45ZM12.0005 10.5C11.4172 10.5 10.9172 10.3 10.5005 9.9C10.1005 9.48333 9.90049 8.98333 9.90049 8.4C9.90049 7.81667 10.1005 7.325 10.5005 6.925C10.9172 6.50833 11.4172 6.3 12.0005 6.3C12.5838 6.3 13.0755 6.50833 13.4755 6.925C13.8922 7.325 14.1005 7.81667 14.1005 8.4C14.1005 8.98333 13.8922 9.48333 13.4755 9.9C13.0755 10.3 12.5838 10.5 12.0005 10.5ZM10.2505 16.9H13.7505V22H10.2505V16.9ZM8.60049 18.8C7.36716 18.8 6.22549 18.5 5.17549 17.9C4.14216 17.3 3.32549 16.4833 2.72549 15.45C2.12549 14.4 1.82549 13.25 1.82549 12C1.82549 11.1 1.98382 10.25 2.30049 9.45C2.63382 8.63333 3.08382 7.91667 3.65049 7.3C4.23382 6.66667 4.90049 6.15 5.65049 5.75C6.05049 4.98333 6.56716 4.30833 7.20049 3.725C7.85049 3.14167 8.58382 2.68333 9.40049 2.35C10.2338 2.01667 11.1005 1.85 12.0005 1.85C12.9005 1.85 13.7588 2.01667 14.5755 2.35C15.4088 2.68333 16.1422 3.14167 16.7755 3.725C17.4255 4.30833 17.9505 4.98333 18.3505 5.75C19.1005 6.15 19.7588 6.66667 20.3255 7.3C20.9088 7.91667 21.3588 8.63333 21.6755 9.45C22.0088 10.25 22.1755 11.1 22.1755 12C22.1755 13.25 21.8755 14.4 21.2755 15.45C20.6755 16.4833 19.8505 17.3 18.8005 17.9C17.7672 18.5 16.6338 18.8 15.4005 18.8H8.60049ZM15.4005 15.35C16.0005 15.35 16.5505 15.2 17.0505 14.9C17.5505 14.6 17.9422 14.2 18.2255 13.7C18.5255 13.1833 18.6755 12.6167 18.6755 12C18.6755 11.4 18.5338 10.8417 18.2505 10.325C17.9672 9.80833 17.5922 9.38333 17.1255 9.05C16.6588 8.71667 16.1505 8.50833 15.6005 8.425C15.5172 7.875 15.3088 7.35833 14.9755 6.875C14.6422 6.39167 14.2088 6.00833 13.6755 5.725C13.1588 5.44167 12.6005 5.3 12.0005 5.3C11.4005 5.3 10.8338 5.44167 10.3005 5.725C9.78382 6.00833 9.35882 6.39167 9.02549 6.875C8.69216 7.35833 8.48382 7.875 8.40049 8.425C7.85049 8.50833 7.34216 8.71667 6.87549 9.05C6.40882 9.38333 6.03382 9.80833 5.75049 10.325C5.46716 10.8417 5.32549 11.4 5.32549 12C5.32549 12.6167 5.46716 13.1833 5.75049 13.7C6.05049 14.2 6.45049 14.6 6.95049 14.9C7.45049 15.2 8.00049 15.35 8.60049 15.35H15.4005Z" fill="black"/>
</g>
<defs>
<clipPath id="clip0_3190_37738">
<rect width="24" height="24" fill="white"/>
</clipPath>
</defs>
</svg>
