<svg width="24" height="24" viewBox="0 0 24 24" fill="none" xmlns="http://www.w3.org/2000/svg">
<g clip-path="url(#clip0_3190_37660)">
<rect width="24" height="24" fill="white"/>
<path d="M10.1255 16.9H13.8755V22H10.1255V16.9ZM8.72549 18.925C7.47549 18.925 6.31716 18.6167 5.25049 18C4.20049 17.3833 3.36716 16.55 2.75049 15.5C2.13382 14.4333 1.82549 13.2667 1.82549 12C1.82549 11.1 1.98382 10.25 2.30049 9.45C2.61716 8.63333 3.06716 7.91667 3.65049 7.3C4.23382 6.68333 4.91716 6.18333 5.70049 5.8C6.08382 5.01667 6.59216 4.33333 7.22549 3.75C7.85882 3.15 8.58382 2.68333 9.40049 2.35C10.2172 2.01667 11.0838 1.85 12.0005 1.85C12.9172 1.85 13.7838 2.01667 14.6005 2.35C15.4172 2.68333 16.1422 3.15 16.7755 3.75C17.4088 4.33333 17.9172 5.01667 18.3005 5.8C19.0838 6.18333 19.7672 6.68333 20.3505 7.3C20.9338 7.91667 21.3838 8.63333 21.7005 9.45C22.0172 10.25 22.1755 11.1 22.1755 12C22.1755 13.2667 21.8672 14.4333 21.2505 15.5C20.6338 16.55 19.7922 17.3833 18.7255 18C17.6755 18.6167 16.5255 18.925 15.2755 18.925H8.72549ZM15.2755 15.225C15.8588 15.225 16.3922 15.0833 16.8755 14.8C17.3588 14.5167 17.7338 14.125 18.0005 13.625C18.2838 13.125 18.4255 12.5833 18.4255 12C18.4255 11.4167 18.2838 10.8833 18.0005 10.4C17.7172 9.9 17.3255 9.50833 16.8255 9.225C16.3422 8.94167 15.8088 8.8 15.2255 8.8C15.2255 8.2 15.0838 7.65833 14.8005 7.175C14.5172 6.675 14.1255 6.28333 13.6255 6C13.1255 5.7 12.5838 5.55 12.0005 5.55C11.4172 5.55 10.8755 5.7 10.3755 6C9.87549 6.28333 9.48382 6.675 9.20049 7.175C8.91716 7.65833 8.77549 8.2 8.77549 8.8C8.19216 8.8 7.65049 8.94167 7.15049 9.225C6.66716 9.50833 6.28382 9.9 6.00049 10.4C5.71716 10.8833 5.57549 11.4167 5.57549 12C5.57549 12.5833 5.70882 13.125 5.97549 13.625C6.25882 14.125 6.64216 14.5167 7.12549 14.8C7.60882 15.0833 8.14216 15.225 8.72549 15.225H15.2755Z" fill="black"/>
</g>
<defs>
<clipPath id="clip0_3190_37660">
<rect width="24" height="24" fill="white"/>
</clipPath>
</defs>
</svg>
