<svg width="24" height="24" viewBox="0 0 24 24" fill="none" xmlns="http://www.w3.org/2000/svg">
<g clip-path="url(#clip0_3190_37432)">
<rect width="24" height="24" fill="white"/>
<path d="M11.7505 17.125H12.2505V22H11.7505V17.125ZM7.07549 17.325C6.10882 17.325 5.22549 17.0917 4.42549 16.625C3.62549 16.1417 2.99216 15.5 2.52549 14.7C2.05882 13.8833 1.82549 12.9833 1.82549 12C1.82549 11.0833 2.03382 10.2417 2.45049 9.475C2.88382 8.69167 3.46716 8.05833 4.20049 7.575C4.95049 7.075 5.77549 6.79167 6.67549 6.725C6.74216 5.80833 7.01716 4.98333 7.50049 4.25C8.00049 3.5 8.64216 2.91667 9.42549 2.5C10.2088 2.06667 11.0672 1.85 12.0005 1.85C12.9338 1.85 13.7922 2.06667 14.5755 2.5C15.3588 2.91667 15.9922 3.5 16.4755 4.25C16.9755 4.98333 17.2588 5.80833 17.3255 6.725C18.2255 6.79167 19.0422 7.075 19.7755 7.575C20.5255 8.05833 21.1088 8.69167 21.5255 9.475C21.9588 10.2417 22.1755 11.0833 22.1755 12C22.1755 12.9833 21.9422 13.8833 21.4755 14.7C21.0088 15.5 20.3755 16.1417 19.5755 16.625C18.7755 17.0917 17.8922 17.325 16.9255 17.325H7.07549ZM16.9255 16.85C17.8088 16.85 18.6088 16.6417 19.3255 16.225C20.0588 15.7917 20.6338 15.2083 21.0505 14.475C21.4672 13.725 21.6755 12.9 21.6755 12C21.6755 11.1167 21.4588 10.3083 21.0255 9.575C20.6088 8.825 20.0338 8.24167 19.3005 7.825C18.5672 7.39167 17.7505 7.175 16.8505 7.175C16.8505 6.275 16.6338 5.45833 16.2005 4.725C15.7838 3.975 15.2005 3.39167 14.4505 2.975C13.7172 2.54167 12.9005 2.325 12.0005 2.325C11.1005 2.325 10.2755 2.54167 9.52549 2.975C8.79216 3.39167 8.20882 3.975 7.77549 4.725C7.35882 5.45833 7.15049 6.275 7.15049 7.175C6.25049 7.175 5.43382 7.39167 4.70049 7.825C3.96716 8.24167 3.38382 8.825 2.95049 9.575C2.53382 10.3083 2.32549 11.1167 2.32549 12C2.32549 12.9 2.53382 13.725 2.95049 14.475C3.36716 15.2083 3.93382 15.7917 4.65049 16.225C5.38382 16.6417 6.19216 16.85 7.07549 16.85H16.9255Z" fill="black"/>
</g>
<defs>
<clipPath id="clip0_3190_37432">
<rect width="24" height="24" fill="white"/>
</clipPath>
</defs>
</svg>
