<svg width="24" height="24" viewBox="0 0 24 24" fill="none" xmlns="http://www.w3.org/2000/svg">
<g clip-path="url(#clip0_3190_37828)">
<rect width="24" height="24" fill="white"/>
<path d="M12.175 15.2L19.8 7.4L21.725 9.325L12.15 18.7L12.175 15.2ZM2 11.05L9.425 11.275V13.8H2V11.05ZM2.65 7.6L4.575 5.675L11.675 12.925V16.425L2.65 7.6ZM10.625 2H13.375V22H10.625V2ZM6.15 4.6L8.1 2.675L11.675 6.4V9.9L6.15 4.6ZM12.325 8.425L17.375 3.25L19.3 5.175L12.325 11.925V8.425ZM14.625 13.15L21.575 12.95V15.7H14.625V13.15Z" fill="black"/>
</g>
<defs>
<clipPath id="clip0_3190_37828">
<rect width="24" height="24" fill="white"/>
</clipPath>
</defs>
</svg>
