<svg width="24" height="24" viewBox="0 0 24 24" fill="none" xmlns="http://www.w3.org/2000/svg">
<g clip-path="url(#clip0_3190_37820)">
<rect width="24" height="24" fill="white"/>
<path d="M12.175 16.275L20.4 8L21.025 8.625L12.225 17.475L12.175 16.275ZM2 11.65L9.375 11.675L9.45 12.55H2V11.65ZM3.45 6.8L4.075 6.175L11.775 13.9L11.625 14.975L3.45 6.8ZM11.525 2H12.475V22H11.525V2ZM7.2 3.575L7.825 2.95L11.8 6.975L11.675 8.05L7.2 3.575ZM12.275 9.05L17.7 3.6L18.325 4.225L12.225 10.325L12.275 9.05ZM15.025 13.675L21.575 13.65V14.55H14.975L15.025 13.675Z" fill="black"/>
</g>
<defs>
<clipPath id="clip0_3190_37820">
<rect width="24" height="24" fill="white"/>
</clipPath>
</defs>
</svg>
