<svg width="24" height="24" viewBox="0 0 24 24" fill="none" xmlns="http://www.w3.org/2000/svg">
<g clip-path="url(#clip0_3190_37738)">
<rect width="24" height="24" fill="white"/>
<path d="M9.20049 14.45C8.61716 14.45 8.12549 14.25 7.72549 13.85C7.32549 13.45 7.12549 12.9583 7.12549 12.375C7.12549 11.775 7.32549 11.275 7.72549 10.875C8.12549 10.475 8.61716 10.275 9.20049 10.275C9.80049 10.275 10.3005 10.475 10.7005 10.875C11.1005 11.275 11.3005 11.775 11.3005 12.375C11.3005 12.9583 11.1005 13.45 10.7005 13.85C10.3005 14.25 9.80049 14.45 9.20049 14.45ZM14.8005 14.45C14.2005 14.45 13.7005 14.25 13.3005 13.85C12.9005 13.45 12.7005 12.9583 12.7005 12.375C12.7005 11.775 12.9005 11.275 13.3005 10.875C13.7005 10.475 14.2005 10.275 14.8005 10.275C15.3838 10.275 15.8755 10.475 16.2755 10.875C16.6755 11.275 16.8755 11.775 16.8755 12.375C16.8755 12.9583 16.6755 13.45 16.2755 13.85C15.8755 14.25 15.3838 14.45 14.8005 14.45ZM12.0005 10.45C11.4172 10.45 10.9172 10.25 10.5005 9.85C10.1005 9.43333 9.90049 8.93333 9.90049 8.35C9.90049 7.76667 10.1005 7.275 10.5005 6.875C10.9172 6.45833 11.4172 6.25 12.0005 6.25C12.5838 6.25 13.0755 6.45833 13.4755 6.875C13.8922 7.275 14.1005 7.76667 14.1005 8.35C14.1005 8.93333 13.8922 9.43333 13.4755 9.85C13.0755 10.25 12.5838 10.45 12.0005 10.45ZM10.2505 16.9H13.7505V22H10.2505V16.9ZM8.55049 18.75C7.33382 18.75 6.20882 18.45 5.17549 17.85C4.14216 17.25 3.32549 16.4333 2.72549 15.4C2.12549 14.3667 1.82549 13.2333 1.82549 12C1.82549 11.1 1.98382 10.25 2.30049 9.45C2.63382 8.65 3.09216 7.93333 3.67549 7.3C4.25882 6.66667 4.92549 6.15833 5.67549 5.775C6.05882 5.00833 6.56716 4.33333 7.20049 3.75C7.85049 3.15 8.58382 2.68333 9.40049 2.35C10.2338 2.01667 11.1005 1.85 12.0005 1.85C12.9005 1.85 13.7588 2.01667 14.5755 2.35C15.4088 2.68333 16.1422 3.15 16.7755 3.75C17.4255 4.33333 17.9422 5.00833 18.3255 5.775C19.0755 6.15833 19.7422 6.66667 20.3255 7.3C20.9088 7.93333 21.3588 8.65 21.6755 9.45C22.0088 10.25 22.1755 11.1 22.1755 12C22.1755 13.2333 21.8755 14.3667 21.2755 15.4C20.6755 16.4333 19.8588 17.25 18.8255 17.85C17.7922 18.45 16.6672 18.75 15.4505 18.75H8.55049ZM15.4505 15.4C16.0672 15.4 16.6255 15.25 17.1255 14.95C17.6422 14.65 18.0422 14.2417 18.3255 13.725C18.6255 13.1917 18.7755 12.6167 18.7755 12C18.7755 11.3833 18.6338 10.8167 18.3505 10.3C18.0672 9.76667 17.6838 9.33333 17.2005 9C16.7172 8.66667 16.2005 8.45833 15.6505 8.375C15.5672 7.80833 15.3505 7.28333 15.0005 6.8C14.6672 6.31667 14.2338 5.93333 13.7005 5.65C13.1838 5.35 12.6172 5.2 12.0005 5.2C11.3838 5.2 10.8088 5.35 10.2755 5.65C9.75882 5.93333 9.32549 6.31667 8.97549 6.8C8.64216 7.28333 8.43382 7.80833 8.35049 8.375C7.80049 8.45833 7.28382 8.66667 6.80049 9C6.31716 9.33333 5.93382 9.76667 5.65049 10.3C5.36716 10.8167 5.22549 11.3833 5.22549 12C5.22549 12.6167 5.36716 13.1917 5.65049 13.725C5.95049 14.2417 6.35049 14.65 6.85049 14.95C7.36716 15.25 7.93382 15.4 8.55049 15.4H15.4505Z" fill="black"/>
</g>
<defs>
<clipPath id="clip0_3190_37738">
<rect width="24" height="24" fill="white"/>
</clipPath>
</defs>
</svg>
