<svg width="24" height="24" viewBox="0 0 24 24" fill="none" xmlns="http://www.w3.org/2000/svg">
<g clip-path="url(#clip0_3389_8904)">
<rect width="24" height="24" fill="white"/>
<path d="M11.5255 19.525C11.5422 18.2417 11.8672 17.0667 12.5005 16C13.1338 14.9167 13.9755 14.0667 15.0255 13.45C16.0922 12.8167 17.2588 12.5 18.5255 12.5H21.0005V14.975C21.0005 16.2583 20.6588 17.4417 19.9755 18.525C19.3088 19.5917 18.3922 20.4333 17.2255 21.05C16.0588 21.6833 14.7755 22 13.3755 22H11.4755L11.5255 19.525ZM18.5255 14.25C17.4755 14.25 16.5088 14.4833 15.6255 14.95C14.7588 15.4167 14.0672 16.05 13.5505 16.85C13.0505 17.65 12.8005 18.5417 12.8005 19.525V20.25H13.3755C14.4588 20.25 15.4422 20.0167 16.3255 19.55C17.2255 19.0833 17.9255 18.45 18.4255 17.65C18.9422 16.85 19.2005 15.9583 19.2005 14.975V14.25H18.5255ZM10.6255 22C9.22549 22 7.94216 21.6833 6.77549 21.05C5.60882 20.4333 4.68382 19.5917 4.00049 18.525C3.33382 17.4417 3.00049 16.2583 3.00049 14.975V12.5H5.47549C6.74216 12.5 7.90049 12.8167 8.95049 13.45C10.0172 14.0667 10.8672 14.9167 11.5005 16C12.1338 17.0667 12.4588 18.2417 12.4755 19.525L12.5255 22H10.6255ZM4.80049 14.975C4.80049 15.9583 5.05049 16.85 5.55049 17.65C6.06716 18.45 6.76716 19.0833 7.65049 19.55C8.55049 20.0167 9.54216 20.25 10.6255 20.25H11.2005V19.525C11.2005 18.5417 10.9422 17.65 10.4255 16.85C9.92549 16.05 9.23382 15.4167 8.35049 14.95C7.48382 14.4833 6.52549 14.25 5.47549 14.25H4.80049V14.975ZM12.8755 11.5V17.45H11.1255V11.5H12.8755ZM7.80049 6.55C7.80049 7.31667 7.98382 8.03333 8.35049 8.7C8.73382 9.35 9.24216 9.86667 9.87549 10.25C10.5255 10.6333 11.2338 10.825 12.0005 10.825C12.7672 10.825 13.4672 10.6333 14.1005 10.25C14.7505 9.85 15.2588 9.325 15.6255 8.675C16.0088 8.00833 16.2005 7.3 16.2005 6.55V4.225L13.9255 5.475L12.0005 3.575L10.0755 5.475L7.80049 4.225V6.55ZM9.75049 3.35L12.0005 1.175L14.2505 3.35L18.0005 1.15V6.55C18.0005 7.61667 17.7338 8.61667 17.2005 9.55C16.6672 10.4667 15.9422 11.2 15.0255 11.75C14.1088 12.3 13.1005 12.575 12.0005 12.575C10.9005 12.575 9.89216 12.3 8.97549 11.75C8.05882 11.2 7.33382 10.4667 6.80049 9.55C6.26716 8.61667 6.00049 7.61667 6.00049 6.55V1.15L9.75049 3.35Z" fill="black"/>
</g>
<defs>
<clipPath id="clip0_3389_8904">
<rect width="24" height="24" fill="white"/>
</clipPath>
</defs>
</svg>
