<svg width="24" height="24" viewBox="0 0 24 24" fill="none" xmlns="http://www.w3.org/2000/svg">
<g clip-path="url(#clip0_3389_8910)">
<rect width="24" height="24" fill="white"/>
<path d="M11.4505 18.425C11.4505 17.3417 11.7338 16.35 12.3005 15.45C12.8672 14.5333 13.6255 13.8167 14.5755 13.3C15.5255 12.7667 16.5338 12.5 17.6005 12.5H21.0005V15.8C21.0005 16.9 20.6838 17.925 20.0505 18.875C19.4172 19.825 18.5672 20.5833 17.5005 21.15C16.4338 21.7167 15.2922 22 14.0755 22H11.4505V18.425ZM17.3755 15.675C16.6588 15.675 16.0088 15.7917 15.4255 16.025C14.8422 16.2417 14.3838 16.5583 14.0505 16.975C13.7172 17.3917 13.5505 17.875 13.5505 18.425V18.825H13.9505C14.6338 18.825 15.2672 18.7083 15.8505 18.475C16.4338 18.2417 16.9005 17.9167 17.2505 17.5C17.6005 17.0667 17.7755 16.575 17.7755 16.025V15.675H17.3755ZM9.92549 22C8.70882 22 7.56716 21.7167 6.50049 21.15C5.43382 20.5833 4.58382 19.825 3.95049 18.875C3.31716 17.925 3.00049 16.9 3.00049 15.8V12.5H6.40049C7.46716 12.5 8.47549 12.7667 9.42549 13.3C10.3755 13.8167 11.1338 14.5333 11.7005 15.45C12.2672 16.35 12.5505 17.3417 12.5505 18.425V22H9.92549ZM6.22549 16.025C6.22549 16.575 6.40049 17.0667 6.75049 17.5C7.10049 17.9167 7.56716 18.2417 8.15049 18.475C8.73382 18.7083 9.36716 18.825 10.0505 18.825H10.4505V18.425C10.4505 17.875 10.2838 17.3917 9.95049 16.975C9.61716 16.5583 9.15882 16.2417 8.57549 16.025C7.99216 15.7917 7.34216 15.675 6.62549 15.675H6.22549V16.025ZM13.5505 10.75V17.35H10.4505V10.75H13.5505ZM9.25049 7.2C9.25049 7.65 9.35882 8.05 9.57549 8.4C9.79216 8.73333 10.1005 8.99167 10.5005 9.175C10.9172 9.34167 11.4172 9.425 12.0005 9.425C12.5838 9.425 13.0755 9.34167 13.4755 9.175C13.8922 8.99167 14.2088 8.73333 14.4255 8.4C14.6422 8.05 14.7505 7.65 14.7505 7.2V5.75L13.4255 6.375L12.0005 5.375L10.4755 6.375L9.25049 5.75V7.2ZM9.90049 3L12.0005 1.425L14.0505 3L18.0005 1.4V7.2C18.0005 8.2 17.7338 9.10833 17.2005 9.925C16.6838 10.7417 15.9672 11.3833 15.0505 11.85C14.1338 12.3167 13.1172 12.55 12.0005 12.55C10.8838 12.55 9.86716 12.3167 8.95049 11.85C8.03382 11.3833 7.30882 10.7417 6.77549 9.925C6.25882 9.10833 6.00049 8.2 6.00049 7.2V1.4L9.90049 3Z" fill="black"/>
</g>
<defs>
<clipPath id="clip0_3389_8910">
<rect width="24" height="24" fill="white"/>
</clipPath>
</defs>
</svg>
