<svg width="24" height="24" viewBox="0 0 24 24" fill="none" xmlns="http://www.w3.org/2000/svg">
<g clip-path="url(#clip0_3190_38026)">
<rect width="24" height="24" fill="white"/>
<path d="M12.25 9.425V22H11.75V9.425H12.25ZM12.275 21.225C12.9917 15.7417 15.725 13 20.475 13H21V13.525C21 15.2583 20.675 16.7667 20.025 18.05C19.375 19.3167 18.4417 20.2917 17.225 20.975C16.0083 21.6583 14.575 22 12.925 22H12.175L12.275 21.225ZM11.075 22C9.425 22 7.99167 21.6583 6.775 20.975C5.55833 20.2917 4.625 19.3167 3.975 18.05C3.325 16.7667 3 15.2583 3 13.525V13H3.525C8.275 13 11.0083 15.7417 11.725 21.225L11.825 22H11.075ZM9.825 4.1L12 1.225L14.2 4.1L17 1.25V7C17 7.91667 16.775 8.75 16.325 9.5C15.8917 10.25 15.2917 10.85 14.525 11.3C13.7583 11.7333 12.9167 11.95 12 11.95C11.0833 11.95 10.2417 11.7333 9.475 11.3C8.70833 10.85 8.1 10.25 7.65 9.5C7.21667 8.75 7 7.91667 7 7V1.2L9.825 4.1Z" fill="black"/>
</g>
<defs>
<clipPath id="clip0_3190_38026">
<rect width="24" height="24" fill="white"/>
</clipPath>
</defs>
</svg>
