<svg width="24" height="24" viewBox="0 0 24 24" fill="none" xmlns="http://www.w3.org/2000/svg">
<g clip-path="url(#clip0_3190_38024)">
<rect width="24" height="24" fill="white"/>
<path d="M11.4505 18.45C11.4505 17.3667 11.7338 16.3667 12.3005 15.45C12.8672 14.5333 13.6255 13.8167 14.5755 13.3C15.5255 12.7667 16.5422 12.5 17.6255 12.5H21.0005V15.775C21.0005 16.8917 20.6755 17.925 20.0255 18.875C19.3922 19.825 18.5422 20.5833 17.4755 21.15C16.4088 21.7167 15.2672 22 14.0505 22H11.4505V18.45ZM17.4255 15.625C16.6922 15.625 16.0255 15.7417 15.4255 15.975C14.8422 16.2083 14.3755 16.5417 14.0255 16.975C13.6922 17.3917 13.5255 17.8833 13.5255 18.45V18.875H13.9255C14.6255 18.875 15.2672 18.7583 15.8505 18.525C16.4505 18.275 16.9255 17.9333 17.2755 17.5C17.6422 17.0667 17.8255 16.5667 17.8255 16V15.625H17.4255ZM9.95049 22C8.73382 22 7.59216 21.7167 6.52549 21.15C5.45882 20.5833 4.60049 19.825 3.95049 18.875C3.31716 17.925 3.00049 16.8917 3.00049 15.775V12.5H6.37549C7.45882 12.5 8.47549 12.7667 9.42549 13.3C10.3755 13.8167 11.1338 14.5333 11.7005 15.45C12.2672 16.3667 12.5505 17.3667 12.5505 18.45V22H9.95049ZM6.17549 16C6.17549 16.5667 6.35049 17.0667 6.70049 17.5C7.06716 17.9333 7.54216 18.275 8.12549 18.525C8.72549 18.7583 9.37549 18.875 10.0755 18.875H10.4755V18.45C10.4755 17.8833 10.3005 17.3917 9.95049 16.975C9.61716 16.5417 9.15049 16.2083 8.55049 15.975C7.96716 15.7417 7.30882 15.625 6.57549 15.625H6.17549V16ZM13.5255 10.775V17.35H10.4755V10.775H13.5255ZM9.20049 7.175C9.20049 7.64167 9.30882 8.05 9.52549 8.4C9.74216 8.73333 10.0588 9 10.4755 9.2C10.9088 9.38333 11.4172 9.475 12.0005 9.475C12.5838 9.475 13.0838 9.38333 13.5005 9.2C13.9338 9 14.2588 8.73333 14.4755 8.4C14.6922 8.05 14.8005 7.64167 14.8005 7.175V5.45L13.4505 6.1L12.0005 5.075L10.4505 6.1L9.20049 5.45V7.175ZM9.90049 2.775L12.0005 1.175L14.0505 2.775L18.0005 1.15V7.175C18.0005 8.175 17.7338 9.08333 17.2005 9.9C16.6838 10.7167 15.9672 11.3667 15.0505 11.85C14.1338 12.3167 13.1172 12.55 12.0005 12.55C10.8838 12.55 9.86716 12.3167 8.95049 11.85C8.03382 11.3667 7.30882 10.7167 6.77549 9.9C6.25882 9.08333 6.00049 8.175 6.00049 7.175V1.15L9.90049 2.775Z" fill="black"/>
</g>
<defs>
<clipPath id="clip0_3190_38024">
<rect width="24" height="24" fill="white"/>
</clipPath>
</defs>
</svg>
