<svg width="24" height="24" viewBox="0 0 24 24" fill="none" xmlns="http://www.w3.org/2000/svg">
<g clip-path="url(#clip0_3389_8902)">
<rect width="24" height="24" fill="white"/>
<path d="M11.6255 19.675C11.6422 18.3583 11.9588 17.1583 12.5755 16.075C13.2088 14.975 14.0588 14.1083 15.1255 13.475C16.1922 12.825 17.3672 12.5 18.6505 12.5H21.0005V14.825C21.0005 16.125 20.6505 17.325 19.9505 18.425C19.2672 19.525 18.3338 20.3917 17.1505 21.025C15.9838 21.675 14.7005 22 13.3005 22H11.6005L11.6255 19.675ZM18.6505 13.825C17.5338 13.825 16.5088 14.0833 15.5755 14.6C14.6588 15.1167 13.9338 15.825 13.4005 16.725C12.8838 17.6083 12.6255 18.5917 12.6255 19.675V20.675H13.3005C14.4505 20.675 15.5088 20.4167 16.4755 19.9C17.4588 19.3667 18.2255 18.6583 18.7755 17.775C19.3422 16.875 19.6255 15.8917 19.6255 14.825V13.825H18.6505ZM10.7005 22C9.30049 22 8.00882 21.675 6.82549 21.025C5.65882 20.3917 4.72549 19.525 4.02549 18.425C3.34216 17.325 3.00049 16.125 3.00049 14.825V12.5H5.35049C6.63382 12.5 7.80882 12.825 8.87549 13.475C9.94216 14.1083 10.7838 14.975 11.4005 16.075C12.0338 17.1583 12.3588 18.3583 12.3755 19.675L12.4005 22H10.7005ZM4.37549 14.825C4.37549 15.8917 4.65049 16.875 5.20049 17.775C5.76716 18.6583 6.53382 19.3667 7.50049 19.9C8.48382 20.4167 9.55049 20.675 10.7005 20.675H11.3755V19.675C11.3755 18.5917 11.1088 17.6083 10.5755 16.725C10.0588 15.825 9.33382 15.1167 8.40049 14.6C7.48382 14.0833 6.46716 13.825 5.35049 13.825H4.37549V14.825ZM12.6755 11.775V17.925H11.3255V11.775H12.6755ZM7.37549 6.55C7.37549 7.4 7.57549 8.18333 7.97549 8.9C8.39216 9.61667 8.95049 10.1917 9.65049 10.625C10.3672 11.0417 11.1505 11.25 12.0005 11.25C12.8505 11.25 13.6255 11.0417 14.3255 10.625C15.0422 10.1917 15.6005 9.61667 16.0005 8.9C16.4172 8.16667 16.6255 7.38333 16.6255 6.55V3.775L14.0755 5.4L12.0005 3.275L9.92549 5.4L7.37549 3.775V6.55ZM9.70049 3.775L12.0005 1.425L14.3005 3.775L18.0005 1.4V6.55C18.0005 7.63333 17.7338 8.63333 17.2005 9.55C16.6672 10.4667 15.9422 11.2 15.0255 11.75C14.1088 12.3 13.1005 12.575 12.0005 12.575C10.9005 12.575 9.89216 12.3 8.97549 11.75C8.05882 11.2 7.33382 10.4667 6.80049 9.55C6.26716 8.63333 6.00049 7.63333 6.00049 6.55V1.4L9.70049 3.775Z" fill="black"/>
</g>
<defs>
<clipPath id="clip0_3389_8902">
<rect width="24" height="24" fill="white"/>
</clipPath>
</defs>
</svg>
