<svg width="24" height="24" viewBox="0 0 24 24" fill="none" xmlns="http://www.w3.org/2000/svg">
<g clip-path="url(#clip0_3190_38038)">
<rect width="24" height="24" fill="white"/>
<path d="M13.625 9.425V22H10.375V9.425H13.625ZM13.025 21.15C13.6583 15.05 16.1583 12 20.525 12H21V14.325C21 15.6417 20.725 16.8917 20.175 18.075C19.6417 19.2417 18.8167 20.1917 17.7 20.925C16.5833 21.6417 15.2167 22 13.6 22H12.925L13.025 21.15ZM10.4 22C8.78333 22 7.41667 21.6417 6.3 20.925C5.18333 20.1917 4.35 19.2417 3.8 18.075C3.26667 16.8917 3 15.6417 3 14.325V12H3.475C7.84167 12 10.3417 15.05 10.975 21.15L11.075 22H10.4ZM9.375 4.1L12 1.225L14.625 4.1L18 1.25V6C18 7.08333 17.7333 8.08333 17.2 9C16.6667 9.91667 15.9417 10.6417 15.025 11.175C14.1083 11.6917 13.1 11.95 12 11.95C10.9 11.95 9.89167 11.6917 8.975 11.175C8.05833 10.6417 7.33333 9.91667 6.8 9C6.26667 8.08333 6 7.08333 6 6V1.2L9.375 4.1Z" fill="black"/>
</g>
<defs>
<clipPath id="clip0_3190_38038">
<rect width="24" height="24" fill="white"/>
</clipPath>
</defs>
</svg>
