<svg width="24" height="24" viewBox="0 0 24 24" fill="none" xmlns="http://www.w3.org/2000/svg">
<g clip-path="url(#clip0_3197_5222)">
<rect width="24" height="24" fill="white"/>
<path d="M17.05 20.675C15.5167 21.5583 13.8333 22 12 22C10.1667 22 8.48333 21.5583 6.95 20.675C5.41667 19.7917 4.20833 18.5833 3.325 17.05C2.44167 15.5167 2 13.8333 2 12C2 10.1667 2.44167 8.48333 3.325 6.95C4.20833 5.41667 5.41667 4.20833 6.95 3.325C8.48333 2.44167 10.1667 2 12 2C13.8333 2 15.5167 2.44167 17.05 3.325C18.5833 4.20833 19.7917 5.41667 20.675 6.95C21.5583 8.48333 22 10.1667 22 12C22 13.8333 21.5583 15.5167 20.675 17.05C19.7917 18.5833 18.5833 19.7917 17.05 20.675ZM7.625 9.425C7.85833 9.64167 8.13333 9.75 8.45 9.75C8.76667 9.75 9.04167 9.64167 9.275 9.425C9.50833 9.19167 9.625 8.91667 9.625 8.6C9.625 8.26667 9.50833 7.99167 9.275 7.775C9.04167 7.54167 8.76667 7.425 8.45 7.425C8.13333 7.425 7.85833 7.54167 7.625 7.775C7.39167 7.99167 7.275 8.26667 7.275 8.6C7.275 8.91667 7.39167 9.19167 7.625 9.425ZM14.725 9.425C14.9583 9.64167 15.2333 9.75 15.55 9.75C15.8667 9.75 16.1417 9.64167 16.375 9.425C16.6083 9.19167 16.725 8.91667 16.725 8.6C16.725 8.26667 16.6083 7.99167 16.375 7.775C16.1417 7.54167 15.8667 7.425 15.55 7.425C15.2333 7.425 14.9583 7.54167 14.725 7.775C14.4917 7.99167 14.375 8.26667 14.375 8.6C14.375 8.91667 14.4917 9.19167 14.725 9.425ZM15.5 15.85C15.9 16.3333 16.15 16.8833 16.25 17.5L17.6 17.275C17.4833 16.425 17.1583 15.6667 16.625 15C16.0917 14.3333 15.4167 13.8083 14.6 13.425C13.8 13.0417 12.9333 12.85 12 12.85C11.0667 12.85 10.1917 13.0417 9.375 13.425C8.55833 13.8083 7.88333 14.3333 7.35 15C6.81667 15.6667 6.49167 16.425 6.375 17.275L7.725 17.5C7.825 16.8833 8.075 16.3333 8.475 15.85C8.875 15.35 9.375 14.9583 9.975 14.675C10.5917 14.375 11.2667 14.225 12 14.225C12.7167 14.225 13.375 14.375 13.975 14.675C14.5917 14.9583 15.1 15.35 15.5 15.85Z" fill="black"/>
</g>
<defs>
<clipPath id="clip0_3197_5222">
<rect width="24" height="24" fill="white"/>
</clipPath>
</defs>
</svg>
