<svg width="24" height="24" viewBox="0 0 24 24" fill="none" xmlns="http://www.w3.org/2000/svg">
<g clip-path="url(#clip0_3197_5316)">
<rect width="24" height="24" fill="white"/>
<path d="M12.0005 22C10.1672 22 8.48382 21.5583 6.95049 20.675C5.41716 19.7917 4.20882 18.5833 3.32549 17.05C2.44216 15.5167 2.00049 13.8333 2.00049 12C2.00049 10.1667 2.44216 8.48333 3.32549 6.95C4.20882 5.41667 5.41716 4.20833 6.95049 3.325C8.48382 2.44167 10.1672 2 12.0005 2C13.8338 2 15.5172 2.44167 17.0505 3.325C18.5838 4.20833 19.7922 5.41667 20.6755 6.95C21.5588 8.48333 22.0005 10.1667 22.0005 12C22.0005 13.8333 21.5588 15.5167 20.6755 17.05C19.7922 18.5833 18.5838 19.7917 17.0505 20.675C15.5172 21.5583 13.8338 22 12.0005 22ZM12.0005 19.625C13.4005 19.625 14.6755 19.2917 15.8255 18.625C16.9922 17.9417 17.9088 17.025 18.5755 15.875C19.2422 14.7083 19.5755 13.4167 19.5755 12C19.5755 10.5833 19.2422 9.3 18.5755 8.15C17.9088 6.98333 16.9922 6.06667 15.8255 5.4C14.6755 4.71667 13.4005 4.375 12.0005 4.375C10.6005 4.375 9.31716 4.71667 8.15049 5.4C7.00049 6.06667 6.09215 6.98333 5.42549 8.15C4.75882 9.3 4.42549 10.5833 4.42549 12C4.42549 13.4167 4.75882 14.7083 5.42549 15.875C6.09215 17.025 7.00049 17.9417 8.15049 18.625C9.31716 19.2917 10.6005 19.625 12.0005 19.625ZM11.9255 13.775C12.6088 13.775 13.2255 13.9083 13.7755 14.175C14.3422 14.425 14.7838 14.7583 15.1005 15.175C15.4172 15.5917 15.5755 16 15.5755 16.4H8.42549C8.42549 16 8.57549 15.5917 8.87549 15.175C9.17549 14.7583 9.59216 14.425 10.1255 14.175C10.6755 13.9083 11.2755 13.775 11.9255 13.775ZM11.9255 15.425C11.6588 15.425 11.4588 15.425 11.3255 15.425C11.1922 15.425 11.0588 15.425 10.9255 15.425C10.7922 15.425 10.5922 15.425 10.3255 15.425H10.1255H13.7505H13.6255C13.3422 15.425 13.1338 15.425 13.0005 15.425C12.8672 15.425 12.7255 15.425 12.5755 15.425C12.4255 15.425 12.2088 15.425 11.9255 15.425ZM14.1505 7.2L15.3755 8.55L16.6255 7.2L18.0005 8.6L16.6255 9.825L18.0005 11.05L16.6255 12.45L15.4005 11.1L14.1505 12.45L12.7755 11.05L14.1255 9.825L12.7755 8.6L14.1505 7.2ZM7.40049 7.2L8.65049 8.55L9.87549 7.2L11.2755 8.625L9.92549 9.85L11.2505 11.05L9.87549 12.45L8.67549 11.1L7.42549 12.475L6.02549 11.05L7.40049 9.825L6.02549 8.6L7.40049 7.2Z" fill="black"/>
</g>
<defs>
<clipPath id="clip0_3197_5316">
<rect width="24" height="24" fill="white"/>
</clipPath>
</defs>
</svg>
