<svg width="24" height="24" viewBox="0 0 24 24" fill="none" xmlns="http://www.w3.org/2000/svg">
<g clip-path="url(#clip0_3196_4636)">
<rect width="24" height="24" fill="white"/>
<path d="M12.0005 22C10.1672 22 8.48382 21.5583 6.95049 20.675C5.41716 19.7917 4.20882 18.5833 3.32549 17.05C2.44216 15.5167 2.00049 13.8333 2.00049 12C2.00049 10.1667 2.44216 8.48333 3.32549 6.95C4.20882 5.41667 5.41716 4.20833 6.95049 3.325C8.48382 2.44167 10.1672 2 12.0005 2C13.8338 2 15.5172 2.44167 17.0505 3.325C18.5838 4.20833 19.7922 5.41667 20.6755 6.95C21.5588 8.48333 22.0005 10.1667 22.0005 12C22.0005 13.8333 21.5588 15.5167 20.6755 17.05C19.7922 18.5833 18.5838 19.7917 17.0505 20.675C15.5172 21.5583 13.8338 22 12.0005 22ZM12.0005 21.525C13.7505 21.525 15.3505 21.1083 16.8005 20.275C18.2505 19.425 19.3922 18.275 20.2255 16.825C21.0755 15.3583 21.5005 13.75 21.5005 12C21.5005 10.25 21.0755 8.65 20.2255 7.2C19.3922 5.73333 18.2505 4.58333 16.8005 3.75C15.3505 2.9 13.7505 2.475 12.0005 2.475C10.2505 2.475 8.65049 2.9 7.20049 3.75C5.75049 4.58333 4.60049 5.73333 3.75049 7.2C2.91716 8.65 2.50049 10.25 2.50049 12C2.50049 13.75 2.91716 15.3583 3.75049 16.825C4.60049 18.275 5.75049 19.425 7.20049 20.275C8.65049 21.1083 10.2505 21.525 12.0005 21.525ZM11.9255 17.275C11.1588 17.275 10.4505 17.125 9.80049 16.825C9.16716 16.525 8.66716 16.1167 8.30049 15.6C7.93382 15.0667 7.75049 14.4917 7.75049 13.875H16.2505C16.2505 14.4917 16.0588 15.0667 15.6755 15.6C15.2922 16.1167 14.7672 16.525 14.1005 16.825C13.4505 17.125 12.7255 17.275 11.9255 17.275ZM8.30049 14.35C8.43382 15.05 8.83382 15.6333 9.50049 16.1C10.1838 16.5667 10.9922 16.8 11.9255 16.8C12.8922 16.8 13.7338 16.5667 14.4505 16.1C15.1672 15.6333 15.5922 15.05 15.7255 14.35H8.30049ZM8.10049 9.8C8.10049 9.55 8.14216 9.36667 8.22549 9.25C8.32549 9.11667 8.45049 9.05 8.60049 9.05C8.75049 9.05 8.86716 9.11667 8.95049 9.25C9.05049 9.36667 9.10049 9.55 9.10049 9.8H8.10049ZM14.9005 9.8C14.9005 9.55 14.9422 9.36667 15.0255 9.25C15.1255 9.11667 15.2505 9.05 15.4005 9.05C15.5505 9.05 15.6672 9.11667 15.7505 9.25C15.8505 9.36667 15.9005 9.55 15.9005 9.8H14.9005Z" fill="black"/>
</g>
<defs>
<clipPath id="clip0_3196_4636">
<rect width="24" height="24" fill="white"/>
</clipPath>
</defs>
</svg>
