<svg width="24" height="24" viewBox="0 0 24 24" fill="none" xmlns="http://www.w3.org/2000/svg">
<g clip-path="url(#clip0_3197_5406)">
<rect width="24" height="24" fill="white"/>
<path d="M17.05 20.675C15.5167 21.5583 13.8333 22 12 22C10.1667 22 8.48333 21.5583 6.95 20.675C5.41667 19.7917 4.20833 18.5833 3.325 17.05C2.44167 15.5167 2 13.8333 2 12C2 10.1667 2.44167 8.48333 3.325 6.95C4.20833 5.41667 5.41667 4.20833 6.95 3.325C8.48333 2.44167 10.1667 2 12 2C13.8333 2 15.5167 2.44167 17.05 3.325C18.5833 4.20833 19.7917 5.41667 20.675 6.95C21.5583 8.48333 22 10.1667 22 12C22 13.8333 21.5583 15.5167 20.675 17.05C19.7917 18.5833 18.5833 19.7917 17.05 20.675ZM14.425 14.65C13.6583 14.3333 12.85 14.175 12 14.175C11.15 14.175 10.3417 14.3333 9.575 14.65C8.80833 14.9667 8.11667 15.425 7.5 16.025L8.65 17.5C9.06667 17.0833 9.56667 16.7583 10.15 16.525C10.75 16.275 11.3667 16.15 12 16.15C12.6333 16.15 13.25 16.2667 13.85 16.5C14.45 16.7333 14.95 17.0667 15.35 17.5L16.5 16.025C15.8833 15.425 15.1917 14.9667 14.425 14.65ZM17.9 9.3L17.025 7.4L13.375 9.1L14.25 11L17.9 9.3ZM7.025 7.4L6.15 9.3L9.8 11L10.675 9.1L7.025 7.4Z" fill="black"/>
</g>
<defs>
<clipPath id="clip0_3197_5406">
<rect width="24" height="24" fill="white"/>
</clipPath>
</defs>
</svg>
