<svg width="24" height="24" viewBox="0 0 24 24" fill="none" xmlns="http://www.w3.org/2000/svg">
<g clip-path="url(#clip0_3336_10798)">
<rect width="24" height="24" fill="white"/>
<path d="M17.05 20.675C15.5167 21.5583 13.8333 22 12 22C10.1667 22 8.48333 21.5583 6.95 20.675C5.41667 19.7917 4.20833 18.5833 3.325 17.05C2.44167 15.5167 2 13.8333 2 12C2 10.1667 2.44167 8.48333 3.325 6.95C4.20833 5.41667 5.41667 4.20833 6.95 3.325C8.48333 2.44167 10.1667 2 12 2C13.8333 2 15.5167 2.44167 17.05 3.325C18.5833 4.20833 19.7917 5.41667 20.675 6.95C21.5583 8.48333 22 10.1667 22 12C22 13.8333 21.5583 15.5167 20.675 17.05C19.7917 18.5833 18.5833 19.7917 17.05 20.675ZM9.95 17.25C10.55 17.5333 11.2083 17.675 11.925 17.675C12.675 17.675 13.3583 17.5333 13.975 17.25C14.6083 16.95 15.1 16.55 15.45 16.05C15.8167 15.5333 16 14.975 16 14.375H8C8 14.975 8.175 15.5333 8.525 16.05C8.875 16.55 9.35 16.95 9.95 17.25ZM7 8.625C6.61667 9.125 6.425 9.775 6.425 10.575H10.575C10.575 9.775 10.3833 9.125 10 8.625C9.61667 8.125 9.11667 7.875 8.5 7.875C7.88333 7.875 7.38333 8.125 7 8.625ZM14 8.625C13.6167 9.125 13.425 9.775 13.425 10.575H17.575C17.575 9.775 17.3833 9.125 17 8.625C16.6167 8.125 16.1167 7.875 15.5 7.875C14.8833 7.875 14.3833 8.125 14 8.625Z" fill="black"/>
</g>
<defs>
<clipPath id="clip0_3336_10798">
<rect width="24" height="24" fill="white"/>
</clipPath>
</defs>
</svg>
