<svg width="24" height="24" viewBox="0 0 24 24" fill="none" xmlns="http://www.w3.org/2000/svg">
<g clip-path="url(#clip0_3197_5216)">
<rect width="24" height="24" fill="white"/>
<path d="M12.0005 22C10.1672 22 8.48382 21.5583 6.95049 20.675C5.41716 19.7917 4.20882 18.5833 3.32549 17.05C2.44216 15.5167 2.00049 13.8333 2.00049 12C2.00049 10.1667 2.44216 8.48333 3.32549 6.95C4.20882 5.41667 5.41716 4.20833 6.95049 3.325C8.48382 2.44167 10.1672 2 12.0005 2C13.8338 2 15.5172 2.44167 17.0505 3.325C18.5838 4.20833 19.7922 5.41667 20.6755 6.95C21.5588 8.48333 22.0005 10.1667 22.0005 12C22.0005 13.8333 21.5588 15.5167 20.6755 17.05C19.7922 18.5833 18.5838 19.7917 17.0505 20.675C15.5172 21.5583 13.8338 22 12.0005 22ZM12.0005 18.55C13.2005 18.55 14.2922 18.2583 15.2755 17.675C16.2755 17.0917 17.0588 16.3 17.6255 15.3C18.2088 14.3 18.5005 13.2 18.5005 12C18.5005 10.8 18.2088 9.7 17.6255 8.7C17.0588 7.7 16.2755 6.90833 15.2755 6.325C14.2922 5.74167 13.2005 5.45 12.0005 5.45C10.8005 5.45 9.70049 5.74167 8.70049 6.325C7.71716 6.90833 6.93382 7.7 6.35049 8.7C5.78382 9.7 5.50049 10.8 5.50049 12C5.50049 13.2 5.78382 14.3 6.35049 15.3C6.93382 16.3 7.71716 17.0917 8.70049 17.675C9.70049 18.2583 10.8005 18.55 12.0005 18.55ZM9.37549 11.8C8.75882 11.8 8.25049 11.6 7.85049 11.2C7.45049 10.7833 7.25049 10.2667 7.25049 9.65C7.25049 9.05 7.45049 8.55 7.85049 8.15C8.25049 7.75 8.75882 7.55 9.37549 7.55C9.99216 7.55 10.5005 7.75 10.9005 8.15C11.3005 8.55 11.5005 9.05 11.5005 9.65C11.5005 10.2667 11.3005 10.7833 10.9005 11.2C10.5005 11.6 9.99216 11.8 9.37549 11.8ZM14.6255 11.8C14.0088 11.8 13.5005 11.6 13.1005 11.2C12.7005 10.7833 12.5005 10.2667 12.5005 9.65C12.5005 9.05 12.7005 8.55 13.1005 8.15C13.5005 7.75 14.0088 7.55 14.6255 7.55C15.2422 7.55 15.7505 7.75 16.1505 8.15C16.5505 8.55 16.7505 9.05 16.7505 9.65C16.7505 10.2667 16.5505 10.7833 16.1505 11.2C15.7505 11.6 15.2422 11.8 14.6255 11.8ZM14.1255 16.425C14.0422 15.9583 13.8005 15.575 13.4005 15.275C13.0172 14.9583 12.5505 14.8 12.0005 14.8C11.4505 14.8 10.9755 14.9583 10.5755 15.275C10.1755 15.575 9.93382 15.9583 9.85049 16.425L7.02549 15.975C7.14216 15.2083 7.43382 14.525 7.90049 13.925C8.38382 13.3083 8.97549 12.825 9.67549 12.475C10.3922 12.125 11.1672 11.95 12.0005 11.95C12.8172 11.95 13.5755 12.125 14.2755 12.475C14.9922 12.825 15.5838 13.3083 16.0505 13.925C16.5338 14.525 16.8338 15.2083 16.9505 15.975L14.1255 16.425Z" fill="black"/>
</g>
<defs>
<clipPath id="clip0_3197_5216">
<rect width="24" height="24" fill="white"/>
</clipPath>
</defs>
</svg>
