<svg width="24" height="24" viewBox="0 0 24 24" fill="none" xmlns="http://www.w3.org/2000/svg">
<g clip-path="url(#clip0_3197_5186)">
<rect width="24" height="24" fill="white"/>
<path d="M12.0005 22C10.1672 22 8.48382 21.5583 6.95049 20.675C5.41716 19.7917 4.20882 18.5833 3.32549 17.05C2.44216 15.5167 2.00049 13.8333 2.00049 12C2.00049 10.1667 2.44216 8.48333 3.32549 6.95C4.20882 5.41667 5.41716 4.20833 6.95049 3.325C8.48382 2.44167 10.1672 2 12.0005 2C13.8338 2 15.5172 2.44167 17.0505 3.325C18.5838 4.20833 19.7922 5.41667 20.6755 6.95C21.5588 8.48333 22.0005 10.1667 22.0005 12C22.0005 13.8333 21.5588 15.5167 20.6755 17.05C19.7922 18.5833 18.5838 19.7917 17.0505 20.675C15.5172 21.5583 13.8338 22 12.0005 22ZM12.0005 19.625C13.4005 19.625 14.6755 19.2917 15.8255 18.625C16.9755 17.9417 17.8838 17.025 18.5505 15.875C19.2338 14.7083 19.5755 13.4167 19.5755 12C19.5755 10.5833 19.2338 9.3 18.5505 8.15C17.8838 6.98333 16.9755 6.06667 15.8255 5.4C14.6755 4.71667 13.4005 4.375 12.0005 4.375C10.6005 4.375 9.32549 4.71667 8.17549 5.4C7.02549 6.06667 6.10882 6.98333 5.42549 8.15C4.75882 9.3 4.42549 10.5833 4.42549 12C4.42549 13.4167 4.75882 14.7083 5.42549 15.875C6.10882 17.025 7.02549 17.9417 8.17549 18.625C9.32549 19.2917 10.6005 19.625 12.0005 19.625ZM9.20049 11.4C8.75049 11.4 8.36716 11.2417 8.05049 10.925C7.73382 10.6083 7.57549 10.225 7.57549 9.775C7.57549 9.325 7.73382 8.94167 8.05049 8.625C8.36716 8.30833 8.75049 8.15 9.20049 8.15C9.66716 8.15 10.0505 8.30833 10.3505 8.625C10.6672 8.94167 10.8255 9.325 10.8255 9.775C10.8255 10.225 10.6672 10.6083 10.3505 10.925C10.0505 11.2417 9.66716 11.4 9.20049 11.4ZM14.8005 11.4C14.3505 11.4 13.9672 11.2417 13.6505 10.925C13.3338 10.6083 13.1755 10.225 13.1755 9.775C13.1755 9.325 13.3338 8.94167 13.6505 8.625C13.9672 8.30833 14.3505 8.15 14.8005 8.15C15.2505 8.15 15.6338 8.30833 15.9505 8.625C16.2672 8.94167 16.4255 9.325 16.4255 9.775C16.4255 10.225 16.2672 10.6083 15.9505 10.925C15.6338 11.2417 15.2505 11.4 14.8005 11.4ZM12.0005 13.1C12.7838 13.1 13.5338 13.2417 14.2505 13.525C14.9838 13.7917 15.6338 14.1833 16.2005 14.7L15.0255 16.425C14.6255 16.0917 14.1588 15.8333 13.6255 15.65C13.0922 15.45 12.5505 15.35 12.0005 15.35C11.4505 15.35 10.9172 15.45 10.4005 15.65C9.88382 15.8333 9.41716 16.0917 9.00049 16.425L7.82549 14.7C8.37549 14.1833 9.00882 13.7917 9.72549 13.525C10.4588 13.2417 11.2172 13.1 12.0005 13.1Z" fill="black"/>
</g>
<defs>
<clipPath id="clip0_3197_5186">
<rect width="24" height="24" fill="white"/>
</clipPath>
</defs>
</svg>
