<svg width="24" height="24" viewBox="0 0 24 24" fill="none" xmlns="http://www.w3.org/2000/svg">
<g clip-path="url(#clip0_3197_5338)">
<rect width="24" height="24" fill="white"/>
<path d="M12.0005 22C10.1672 22 8.48382 21.5583 6.95049 20.675C5.41716 19.7917 4.20882 18.5833 3.32549 17.05C2.44216 15.5167 2.00049 13.8333 2.00049 12C2.00049 10.1667 2.44216 8.48333 3.32549 6.95C4.20882 5.41667 5.41716 4.20833 6.95049 3.325C8.48382 2.44167 10.1672 2 12.0005 2C13.8338 2 15.5172 2.44167 17.0505 3.325C18.5838 4.20833 19.7922 5.41667 20.6755 6.95C21.5588 8.48333 22.0005 10.1667 22.0005 12C22.0005 13.8333 21.5588 15.5167 20.6755 17.05C19.7922 18.5833 18.5838 19.7917 17.0505 20.675C15.5172 21.5583 13.8338 22 12.0005 22ZM12.0005 20.6C13.5838 20.6 15.0255 20.225 16.3255 19.475C17.6422 18.7083 18.6755 17.675 19.4255 16.375C20.1922 15.0583 20.5755 13.6 20.5755 12C20.5755 10.4 20.1922 8.95 19.4255 7.65C18.6755 6.33333 17.6422 5.3 16.3255 4.55C15.0255 3.78333 13.5838 3.4 12.0005 3.4C10.4172 3.4 8.96716 3.78333 7.65049 4.55C6.35049 5.3 5.31716 6.33333 4.55049 7.65C3.80049 8.95 3.42549 10.4 3.42549 12C3.42549 13.6 3.80049 15.0583 4.55049 16.375C5.31716 17.675 6.35049 18.7083 7.65049 19.475C8.96716 20.225 10.4172 20.6 12.0005 20.6ZM11.9255 16.575C11.3255 16.575 10.7755 16.4583 10.2755 16.225C9.77549 15.975 9.38382 15.675 9.10049 15.325C8.81716 14.975 8.67549 14.6333 8.67549 14.3H15.3255C15.3255 14.6333 15.1755 14.975 14.8755 15.325C14.5755 15.675 14.1672 15.975 13.6505 16.225C13.1338 16.4583 12.5588 16.575 11.9255 16.575ZM11.8755 15.45C11.8922 15.45 11.9088 15.45 11.9255 15.45C11.9422 15.45 11.9588 15.45 11.9755 15.45C12.0088 15.45 12.0338 15.45 12.0505 15.45C12.0672 15.45 12.0922 15.45 12.1255 15.45H11.8755ZM8.95049 10.875C8.66716 10.875 8.41716 10.7667 8.20049 10.55C7.98382 10.3333 7.87549 10.0833 7.87549 9.8C7.87549 9.5 7.98382 9.24167 8.20049 9.025C8.41716 8.80833 8.66716 8.7 8.95049 8.7C9.25049 8.7 9.50049 8.80833 9.70049 9.025C9.91716 9.24167 10.0255 9.5 10.0255 9.8C10.0255 10.0833 9.91716 10.3333 9.70049 10.55C9.50049 10.7667 9.25049 10.875 8.95049 10.875ZM15.0505 10.875C14.7672 10.875 14.5172 10.7667 14.3005 10.55C14.0838 10.3333 13.9755 10.0833 13.9755 9.8C13.9755 9.5 14.0838 9.24167 14.3005 9.025C14.5172 8.80833 14.7672 8.7 15.0505 8.7C15.3505 8.7 15.6005 8.80833 15.8005 9.025C16.0172 9.24167 16.1255 9.5 16.1255 9.8C16.1255 10.0833 16.0172 10.3333 15.8005 10.55C15.6005 10.7667 15.3505 10.875 15.0505 10.875Z" fill="black"/>
</g>
<defs>
<clipPath id="clip0_3197_5338">
<rect width="24" height="24" fill="white"/>
</clipPath>
</defs>
</svg>
