<svg width="24" height="24" viewBox="0 0 24 24" fill="none" xmlns="http://www.w3.org/2000/svg">
<g clip-path="url(#clip0_3374_5086)">
<rect width="24" height="24" fill="white"/>
<path d="M17.05 20.675C15.5167 21.5583 13.8333 22 12 22C10.1667 22 8.48333 21.5583 6.95 20.675C5.41667 19.7917 4.20833 18.5833 3.325 17.05C2.44167 15.5167 2 13.8333 2 12C2 10.1667 2.44167 8.48333 3.325 6.95C4.20833 5.41667 5.41667 4.20833 6.95 3.325C8.48333 2.44167 10.1667 2 12 2C13.8333 2 15.5167 2.44167 17.05 3.325C18.5833 4.20833 19.7917 5.41667 20.675 6.95C21.5583 8.48333 22 10.1667 22 12C22 13.8333 21.5583 15.5167 20.675 17.05C19.7917 18.5833 18.5833 19.7917 17.05 20.675ZM7.8 9.85C7.96667 10.0167 8.16667 10.1 8.4 10.1C8.63333 10.1 8.825 10.0167 8.975 9.85C9.14167 9.68333 9.225 9.48333 9.225 9.25C9.225 9.01667 9.14167 8.825 8.975 8.675C8.825 8.50833 8.63333 8.425 8.4 8.425C8.16667 8.425 7.96667 8.50833 7.8 8.675C7.65 8.84167 7.575 9.03333 7.575 9.25C7.575 9.48333 7.65 9.68333 7.8 9.85ZM15 9.85C15.1667 10.0167 15.3667 10.1 15.6 10.1C15.8333 10.1 16.025 10.0167 16.175 9.85C16.3417 9.68333 16.425 9.48333 16.425 9.25C16.425 9.01667 16.3417 8.825 16.175 8.675C16.025 8.50833 15.8333 8.425 15.6 8.425C15.3667 8.425 15.1667 8.50833 15 8.675C14.85 8.84167 14.775 9.03333 14.775 9.25C14.775 9.48333 14.85 9.68333 15 9.85ZM16.475 15.625C16.9917 14.975 17.3167 14.2417 17.45 13.425L16.5 13.275C16.4167 13.9417 16.1583 14.5417 15.725 15.075C15.3083 15.5917 14.7667 16.0083 14.1 16.325C13.45 16.625 12.75 16.775 12 16.775C11.2333 16.775 10.5167 16.625 9.85 16.325C9.2 16.0083 8.65833 15.5917 8.225 15.075C7.80833 14.5417 7.55833 13.9417 7.475 13.275L6.525 13.425C6.65833 14.2417 6.98333 14.975 7.5 15.625C8.01667 16.275 8.66667 16.7833 9.45 17.15C10.2333 17.5167 11.0833 17.7 12 17.7C12.9 17.7 13.7417 17.5167 14.525 17.15C15.3083 16.7833 15.9583 16.275 16.475 15.625Z" fill="black"/>
</g>
<defs>
<clipPath id="clip0_3374_5086">
<rect width="24" height="24" fill="white"/>
</clipPath>
</defs>
</svg>
