<svg width="24" height="24" viewBox="0 0 24 24" fill="none" xmlns="http://www.w3.org/2000/svg">
<g clip-path="url(#clip0_3197_5294)">
<rect width="24" height="24" fill="white"/>
<path d="M12.0005 22C10.1672 22 8.48382 21.5583 6.95049 20.675C5.41716 19.7917 4.20882 18.5833 3.32549 17.05C2.44216 15.5167 2.00049 13.8333 2.00049 12C2.00049 10.1667 2.44216 8.48333 3.32549 6.95C4.20882 5.41667 5.41716 4.20833 6.95049 3.325C8.48382 2.44167 10.1672 2 12.0005 2C13.8338 2 15.5172 2.44167 17.0505 3.325C18.5838 4.20833 19.7922 5.41667 20.6755 6.95C21.5588 8.48333 22.0005 10.1667 22.0005 12C22.0005 13.8333 21.5588 15.5167 20.6755 17.05C19.7922 18.5833 18.5838 19.7917 17.0505 20.675C15.5172 21.5583 13.8338 22 12.0005 22ZM12.0005 18.55C13.2005 18.55 14.2922 18.2583 15.2755 17.675C16.2755 17.0917 17.0588 16.3 17.6255 15.3C18.2088 14.3 18.5005 13.2 18.5005 12C18.5005 10.8 18.2088 9.7 17.6255 8.7C17.0588 7.7 16.2755 6.90833 15.2755 6.325C14.2922 5.74167 13.2005 5.45 12.0005 5.45C10.8005 5.45 9.70049 5.74167 8.70049 6.325C7.71716 6.90833 6.93382 7.7 6.35049 8.7C5.78382 9.7 5.50049 10.8 5.50049 12C5.50049 13.2 5.78382 14.3 6.35049 15.3C6.93382 16.3 7.71716 17.0917 8.70049 17.675C9.70049 18.2583 10.8005 18.55 12.0005 18.55ZM11.9255 12.975C12.6588 12.975 13.3172 13.1167 13.9005 13.4C14.4838 13.6833 14.9338 14.0583 15.2505 14.525C15.5838 14.975 15.7505 15.4583 15.7505 15.975H8.25049C8.25049 15.4583 8.40882 14.975 8.72549 14.525C9.04216 14.0583 9.47549 13.6833 10.0255 13.4C10.5922 13.1167 11.2255 12.975 11.9255 12.975ZM11.9255 14.675C11.6422 14.675 11.4255 14.675 11.2755 14.675C11.1422 14.675 11.0005 14.675 10.8505 14.675C10.7172 14.675 10.5088 14.675 10.2255 14.675H10.0255H13.8505H13.7255C13.4255 14.675 13.2005 14.675 13.0505 14.675C12.9005 14.675 12.7505 14.675 12.6005 14.675C12.4505 14.675 12.2255 14.675 11.9255 14.675ZM9.37549 12.325C8.75882 12.325 8.25049 12.125 7.85049 11.725C7.45049 11.3083 7.25049 10.7917 7.25049 10.175C7.25049 9.575 7.45049 9.075 7.85049 8.675C8.25049 8.275 8.75882 8.075 9.37549 8.075C9.99216 8.075 10.5005 8.275 10.9005 8.675C11.3005 9.075 11.5005 9.575 11.5005 10.175C11.5005 10.7917 11.3005 11.3083 10.9005 11.725C10.5005 12.125 9.99216 12.325 9.37549 12.325ZM14.6255 12.325C14.0088 12.325 13.5005 12.125 13.1005 11.725C12.7005 11.3083 12.5005 10.7917 12.5005 10.175C12.5005 9.575 12.7005 9.075 13.1005 8.675C13.5005 8.275 14.0088 8.075 14.6255 8.075C15.2422 8.075 15.7505 8.275 16.1505 8.675C16.5505 9.075 16.7505 9.575 16.7505 10.175C16.7505 10.7917 16.5505 11.3083 16.1505 11.725C15.7505 12.125 15.2422 12.325 14.6255 12.325Z" fill="black"/>
</g>
<defs>
<clipPath id="clip0_3197_5294">
<rect width="24" height="24" fill="white"/>
</clipPath>
</defs>
</svg>
