<svg width="24" height="24" viewBox="0 0 24 24" fill="none" xmlns="http://www.w3.org/2000/svg">
<g clip-path="url(#clip0_3197_5264)">
<rect width="24" height="24" fill="white"/>
<path d="M12.0005 22C10.1672 22 8.48382 21.5583 6.95049 20.675C5.41716 19.7917 4.20882 18.5833 3.32549 17.05C2.44216 15.5167 2.00049 13.8333 2.00049 12C2.00049 10.1667 2.44216 8.48333 3.32549 6.95C4.20882 5.41667 5.41716 4.20833 6.95049 3.325C8.48382 2.44167 10.1672 2 12.0005 2C13.8338 2 15.5172 2.44167 17.0505 3.325C18.5838 4.20833 19.7922 5.41667 20.6755 6.95C21.5588 8.48333 22.0005 10.1667 22.0005 12C22.0005 13.8333 21.5588 15.5167 20.6755 17.05C19.7922 18.5833 18.5838 19.7917 17.0505 20.675C15.5172 21.5583 13.8338 22 12.0005 22ZM12.0005 19.625C13.4005 19.625 14.6755 19.2917 15.8255 18.625C16.9755 17.9417 17.8838 17.025 18.5505 15.875C19.2338 14.7083 19.5755 13.4167 19.5755 12C19.5755 10.5833 19.2338 9.3 18.5505 8.15C17.8838 6.98333 16.9755 6.06667 15.8255 5.4C14.6755 4.71667 13.4005 4.375 12.0005 4.375C10.6005 4.375 9.32549 4.71667 8.17549 5.4C7.02549 6.06667 6.10882 6.98333 5.42549 8.15C4.75882 9.3 4.42549 10.5833 4.42549 12C4.42549 13.4167 4.75882 14.7083 5.42549 15.875C6.10882 17.025 7.02549 17.9417 8.17549 18.625C9.32549 19.2917 10.6005 19.625 12.0005 19.625ZM9.20049 11.65C8.75049 11.65 8.36716 11.4917 8.05049 11.175C7.73382 10.8583 7.57549 10.475 7.57549 10.025C7.57549 9.575 7.73382 9.19167 8.05049 8.875C8.36716 8.55833 8.75049 8.4 9.20049 8.4C9.66716 8.4 10.0505 8.55833 10.3505 8.875C10.6672 9.19167 10.8255 9.575 10.8255 10.025C10.8255 10.475 10.6672 10.8583 10.3505 11.175C10.0505 11.4917 9.66716 11.65 9.20049 11.65ZM14.8005 11.65C14.3505 11.65 13.9672 11.4917 13.6505 11.175C13.3338 10.8583 13.1755 10.475 13.1755 10.025C13.1755 9.575 13.3338 9.19167 13.6505 8.875C13.9672 8.55833 14.3505 8.4 14.8005 8.4C15.2505 8.4 15.6338 8.55833 15.9505 8.875C16.2672 9.19167 16.4255 9.575 16.4255 10.025C16.4255 10.475 16.2672 10.8583 15.9505 11.175C15.6338 11.4917 15.2505 11.65 14.8005 11.65ZM16.8005 13.525C16.7005 14.225 16.4255 14.8667 15.9755 15.45C15.5255 16.0333 14.9505 16.5 14.2505 16.85C13.5672 17.1833 12.8172 17.35 12.0005 17.35C11.1672 17.35 10.4005 17.1833 9.70049 16.85C9.01716 16.5 8.45049 16.0333 8.00049 15.45C7.55049 14.8667 7.27549 14.225 7.17549 13.525L9.27549 13.2C9.37549 13.7833 9.67549 14.275 10.1755 14.675C10.6922 15.0583 11.3005 15.25 12.0005 15.25C12.7005 15.25 13.3005 15.0583 13.8005 14.675C14.3005 14.275 14.6005 13.7833 14.7005 13.2L16.8005 13.525Z" fill="black"/>
</g>
<defs>
<clipPath id="clip0_3197_5264">
<rect width="24" height="24" fill="white"/>
</clipPath>
</defs>
</svg>
