<svg width="24" height="24" viewBox="0 0 24 24" fill="none" xmlns="http://www.w3.org/2000/svg">
<g clip-path="url(#clip0_3197_5214)">
<rect width="24" height="24" fill="white"/>
<path d="M12.0005 22C10.1672 22 8.48382 21.5583 6.95049 20.675C5.41716 19.7917 4.20882 18.5833 3.32549 17.05C2.44216 15.5167 2.00049 13.8333 2.00049 12C2.00049 10.1667 2.44216 8.48333 3.32549 6.95C4.20882 5.41667 5.41716 4.20833 6.95049 3.325C8.48382 2.44167 10.1672 2 12.0005 2C13.8338 2 15.5172 2.44167 17.0505 3.325C18.5838 4.20833 19.7922 5.41667 20.6755 6.95C21.5588 8.48333 22.0005 10.1667 22.0005 12C22.0005 13.8333 21.5588 15.5167 20.6755 17.05C19.7922 18.5833 18.5838 19.7917 17.0505 20.675C15.5172 21.5583 13.8338 22 12.0005 22ZM12.0005 19.075C13.3005 19.075 14.4838 18.7667 15.5505 18.15C16.6338 17.5167 17.4838 16.6583 18.1005 15.575C18.7172 14.4917 19.0255 13.3 19.0255 12C19.0255 10.7 18.7172 9.50833 18.1005 8.425C17.4838 7.34167 16.6338 6.49167 15.5505 5.875C14.4838 5.24167 13.3005 4.925 12.0005 4.925C10.7005 4.925 9.50882 5.24167 8.42549 5.875C7.35882 6.49167 6.51716 7.34167 5.90049 8.425C5.28382 9.50833 4.97549 10.7 4.97549 12C4.97549 13.3 5.28382 14.4917 5.90049 15.575C6.51716 16.6583 7.35882 17.5167 8.42549 18.15C9.50882 18.7667 10.7005 19.075 12.0005 19.075ZM9.30049 11.65C8.76716 11.65 8.31716 11.4667 7.95049 11.1C7.60049 10.7333 7.42549 10.2833 7.42549 9.75C7.42549 9.21667 7.60049 8.775 7.95049 8.425C8.31716 8.075 8.76716 7.9 9.30049 7.9C9.83382 7.9 10.2755 8.075 10.6255 8.425C10.9922 8.775 11.1755 9.21667 11.1755 9.75C11.1755 10.2833 10.9922 10.7333 10.6255 11.1C10.2755 11.4667 9.83382 11.65 9.30049 11.65ZM14.7005 11.65C14.1672 11.65 13.7172 11.4667 13.3505 11.1C13.0005 10.7333 12.8255 10.2833 12.8255 9.75C12.8255 9.21667 13.0005 8.775 13.3505 8.425C13.7172 8.075 14.1672 7.9 14.7005 7.9C15.2505 7.9 15.7005 8.075 16.0505 8.425C16.4005 8.775 16.5755 9.21667 16.5755 9.75C16.5755 10.2833 16.4005 10.7333 16.0505 11.1C15.7005 11.4667 15.2505 11.65 14.7005 11.65ZM14.4005 16.55C14.3172 16.0333 14.0505 15.6 13.6005 15.25C13.1505 14.9 12.6172 14.725 12.0005 14.725C11.3838 14.725 10.8422 14.9 10.3755 15.25C9.92549 15.6 9.65882 16.0333 9.57549 16.55L7.10049 16.175C7.21716 15.4417 7.50049 14.775 7.95049 14.175C8.41716 13.575 9.00049 13.1083 9.70049 12.775C10.4005 12.425 11.1672 12.25 12.0005 12.25C12.8172 12.25 13.5755 12.425 14.2755 12.775C14.9755 13.1083 15.5505 13.575 16.0005 14.175C16.4672 14.775 16.7588 15.4417 16.8755 16.175L14.4005 16.55Z" fill="black"/>
</g>
<defs>
<clipPath id="clip0_3197_5214">
<rect width="24" height="24" fill="white"/>
</clipPath>
</defs>
</svg>
