<svg width="24" height="24" viewBox="0 0 24 24" fill="none" xmlns="http://www.w3.org/2000/svg">
<g clip-path="url(#clip0_3197_5224)">
<rect width="24" height="24" fill="white"/>
<path d="M17.05 20.675C15.5167 21.5583 13.8333 22 12 22C10.1667 22 8.48333 21.5583 6.95 20.675C5.41667 19.7917 4.20833 18.5833 3.325 17.05C2.44167 15.5167 2 13.8333 2 12C2 10.1667 2.44167 8.48333 3.325 6.95C4.20833 5.41667 5.41667 4.20833 6.95 3.325C8.48333 2.44167 10.1667 2 12 2C13.8333 2 15.5167 2.44167 17.05 3.325C18.5833 4.20833 19.7917 5.41667 20.675 6.95C21.5583 8.48333 22 10.1667 22 12C22 13.8333 21.5583 15.5167 20.675 17.05C19.7917 18.5833 18.5833 19.7917 17.05 20.675ZM7.425 9.7C7.725 9.98333 8.08333 10.125 8.5 10.125C8.91667 10.125 9.26667 9.98333 9.55 9.7C9.85 9.4 10 9.04167 10 8.625C10 8.20833 9.85 7.85833 9.55 7.575C9.26667 7.275 8.91667 7.125 8.5 7.125C8.08333 7.125 7.725 7.275 7.425 7.575C7.14167 7.85833 7 8.20833 7 8.625C7 9.04167 7.14167 9.4 7.425 9.7ZM14.425 9.7C14.725 9.98333 15.0833 10.125 15.5 10.125C15.9167 10.125 16.2667 9.98333 16.55 9.7C16.85 9.4 17 9.04167 17 8.625C17 8.20833 16.85 7.85833 16.55 7.575C16.2667 7.275 15.9167 7.125 15.5 7.125C15.0833 7.125 14.725 7.275 14.425 7.575C14.1417 7.85833 14 8.20833 14 8.625C14 9.04167 14.1417 9.4 14.425 9.7ZM15.275 16.1C15.6583 16.55 15.8917 17.0583 15.975 17.625L17.775 17.35C17.6417 16.4667 17.3 15.6833 16.75 15C16.2 14.3 15.5083 13.7583 14.675 13.375C13.8417 12.975 12.95 12.775 12 12.775C11.0333 12.775 10.1333 12.975 9.3 13.375C8.46667 13.7583 7.775 14.3 7.225 15C6.675 15.6833 6.33333 16.4667 6.2 17.35L8 17.625C8.08333 17.0583 8.30833 16.55 8.675 16.1C9.05833 15.6333 9.53333 15.2667 10.1 15C10.6833 14.7333 11.3167 14.6 12 14.6C12.6667 14.6 13.2833 14.7333 13.85 15C14.4333 15.2667 14.9083 15.6333 15.275 16.1Z" fill="black"/>
</g>
<defs>
<clipPath id="clip0_3197_5224">
<rect width="24" height="24" fill="white"/>
</clipPath>
</defs>
</svg>
