<svg width="24" height="24" viewBox="0 0 24 24" fill="none" xmlns="http://www.w3.org/2000/svg">
<g clip-path="url(#clip0_3197_5464)">
<rect width="24" height="24" fill="white"/>
<path d="M17.05 20.675C15.5167 21.5583 13.8333 22 12 22C10.1667 22 8.48333 21.5583 6.95 20.675C5.41667 19.7917 4.20833 18.5833 3.325 17.05C2.44167 15.5167 2 13.8333 2 12C2 10.1667 2.44167 8.48333 3.325 6.95C4.20833 5.41667 5.41667 4.20833 6.95 3.325C8.48333 2.44167 10.1667 2 12 2C13.8333 2 15.5167 2.44167 17.05 3.325C18.5833 4.20833 19.7917 5.41667 20.675 6.95C21.5583 8.48333 22 10.1667 22 12C22 13.8333 21.5583 15.5167 20.675 17.05C19.7917 18.5833 18.5833 19.7917 17.05 20.675ZM9.95 17.25C10.55 17.5333 11.2083 17.675 11.925 17.675C12.675 17.675 13.3583 17.5333 13.975 17.25C14.6083 16.95 15.1 16.55 15.45 16.05C15.8167 15.5333 16 14.975 16 14.375H8C8 14.975 8.175 15.5333 8.525 16.05C8.875 16.55 9.35 16.95 9.95 17.25ZM6.975 10.85C7.375 11.25 7.88333 11.45 8.5 11.45C9.11667 11.45 9.625 11.25 10.025 10.85C10.425 10.4333 10.625 9.91667 10.625 9.3C10.625 8.7 10.425 8.2 10.025 7.8C9.625 7.4 9.11667 7.2 8.5 7.2C7.88333 7.2 7.375 7.4 6.975 7.8C6.575 8.2 6.375 8.7 6.375 9.3C6.375 9.91667 6.575 10.4333 6.975 10.85ZM17.875 7.675H13.1V10.925H17.875V7.675Z" fill="black"/>
</g>
<defs>
<clipPath id="clip0_3197_5464">
<rect width="24" height="24" fill="white"/>
</clipPath>
</defs>
</svg>
