<svg width="24" height="24" viewBox="0 0 24 24" fill="none" xmlns="http://www.w3.org/2000/svg">
<g clip-path="url(#clip0_3197_5396)">
<rect width="24" height="24" fill="white"/>
<path d="M12.0005 22C10.1672 22 8.48382 21.5583 6.95049 20.675C5.41716 19.7917 4.20882 18.5833 3.32549 17.05C2.44216 15.5167 2.00049 13.8333 2.00049 12C2.00049 10.1667 2.44216 8.48333 3.32549 6.95C4.20882 5.41667 5.41716 4.20833 6.95049 3.325C8.48382 2.44167 10.1672 2 12.0005 2C13.8338 2 15.5172 2.44167 17.0505 3.325C18.5838 4.20833 19.7922 5.41667 20.6755 6.95C21.5588 8.48333 22.0005 10.1667 22.0005 12C22.0005 13.8333 21.5588 15.5167 20.6755 17.05C19.7922 18.5833 18.5838 19.7917 17.0505 20.675C15.5172 21.5583 13.8338 22 12.0005 22ZM12.0005 19.075C13.3005 19.075 14.4838 18.7667 15.5505 18.15C16.6338 17.5167 17.4838 16.6583 18.1005 15.575C18.7172 14.4917 19.0255 13.3 19.0255 12C19.0255 10.7 18.7172 9.50833 18.1005 8.425C17.4838 7.34167 16.6338 6.49167 15.5505 5.875C14.4838 5.24167 13.3005 4.925 12.0005 4.925C10.7005 4.925 9.50882 5.24167 8.42549 5.875C7.35882 6.49167 6.51716 7.34167 5.90049 8.425C5.28382 9.50833 4.97549 10.7 4.97549 12C4.97549 13.3 5.28382 14.4917 5.90049 15.575C6.51716 16.6583 7.35882 17.5167 8.42549 18.15C9.50882 18.7667 10.7005 19.075 12.0005 19.075ZM17.3255 10.25L13.9005 12.025L12.5505 9.425L16.0005 7.625L17.3255 10.25ZM8.00049 7.625L11.4505 9.425L10.1005 12.025L6.67549 10.25L8.00049 7.625ZM12.0005 13.275C12.7672 13.275 13.5088 13.4 14.2255 13.65C14.9588 13.9 15.5922 14.2583 16.1255 14.725L14.8755 16.825C14.4588 16.5583 14.0005 16.35 13.5005 16.2C13.0172 16.05 12.5172 15.975 12.0005 15.975C11.5172 15.975 11.0338 16.05 10.5505 16.2C10.0838 16.35 9.64216 16.5583 9.22549 16.825L7.87549 14.725C8.42549 14.2583 9.05882 13.9 9.77549 13.65C10.4922 13.4 11.2338 13.275 12.0005 13.275Z" fill="black"/>
</g>
<defs>
<clipPath id="clip0_3197_5396">
<rect width="24" height="24" fill="white"/>
</clipPath>
</defs>
</svg>
