<svg width="24" height="24" viewBox="0 0 24 24" fill="none" xmlns="http://www.w3.org/2000/svg">
<g clip-path="url(#clip0_3336_10786)">
<rect width="24" height="24" fill="white"/>
<path d="M12.0005 22C10.1672 22 8.48382 21.5583 6.95049 20.675C5.41716 19.7917 4.20882 18.5833 3.32549 17.05C2.44216 15.5167 2.00049 13.8333 2.00049 12C2.00049 10.1667 2.44216 8.48333 3.32549 6.95C4.20882 5.41667 5.41716 4.20833 6.95049 3.325C8.48382 2.44167 10.1672 2 12.0005 2C13.8338 2 15.5172 2.44167 17.0505 3.325C18.5838 4.20833 19.7922 5.41667 20.6755 6.95C21.5588 8.48333 22.0005 10.1667 22.0005 12C22.0005 13.8333 21.5588 15.5167 20.6755 17.05C19.7922 18.5833 18.5838 19.7917 17.0505 20.675C15.5172 21.5583 13.8338 22 12.0005 22ZM12.0005 19.075C13.3005 19.075 14.4838 18.7667 15.5505 18.15C16.6338 17.5167 17.4838 16.6583 18.1005 15.575C18.7172 14.4917 19.0255 13.3 19.0255 12C19.0255 10.7 18.7172 9.50833 18.1005 8.425C17.4838 7.34167 16.6338 6.49167 15.5505 5.875C14.4838 5.24167 13.3005 4.925 12.0005 4.925C10.7005 4.925 9.50882 5.24167 8.42549 5.875C7.35882 6.49167 6.51716 7.34167 5.90049 8.425C5.28382 9.50833 4.97549 10.7 4.97549 12C4.97549 13.3 5.28382 14.4917 5.90049 15.575C6.51716 16.6583 7.35882 17.5167 8.42549 18.15C9.50882 18.7667 10.7005 19.075 12.0005 19.075ZM11.9255 16.625C11.2422 16.625 10.6255 16.4917 10.0755 16.225C9.54216 15.9417 9.11716 15.5833 8.80049 15.15C8.48382 14.7167 8.32549 14.275 8.32549 13.825H15.6755C15.6755 14.275 15.5088 14.7167 15.1755 15.15C14.8588 15.5833 14.4172 15.9417 13.8505 16.225C13.2838 16.4917 12.6422 16.625 11.9255 16.625ZM11.9255 14.95C12.2255 14.95 12.4505 14.95 12.6005 14.95C12.7505 14.95 12.8922 14.95 13.0255 14.95C13.1588 14.95 13.3755 14.95 13.6755 14.95H13.8005H10.0755H10.2755C10.5422 14.95 10.7422 14.95 10.8755 14.95C11.0255 14.95 11.1672 14.95 11.3005 14.95C11.4338 14.95 11.6422 14.95 11.9255 14.95ZM6.95049 11.25C6.95049 10.3667 7.14216 9.66667 7.52549 9.15C7.92549 8.61667 8.44216 8.35 9.07549 8.35C9.72549 8.35 10.2422 8.61667 10.6255 9.15C11.0088 9.66667 11.2005 10.3667 11.2005 11.25H6.95049ZM12.8005 11.25C12.8005 10.3667 12.9922 9.66667 13.3755 9.15C13.7588 8.61667 14.2755 8.35 14.9255 8.35C15.5588 8.35 16.0672 8.61667 16.4505 9.15C16.8505 9.66667 17.0505 10.3667 17.0505 11.25H12.8005Z" fill="black"/>
</g>
<defs>
<clipPath id="clip0_3336_10786">
<rect width="24" height="24" fill="white"/>
</clipPath>
</defs>
</svg>
