<svg width="24" height="24" viewBox="0 0 24 24" fill="none" xmlns="http://www.w3.org/2000/svg">
<g clip-path="url(#clip0_3197_5398)">
<rect width="24" height="24" fill="white"/>
<path d="M12.0005 22C10.1672 22 8.48382 21.5583 6.95049 20.675C5.41716 19.7917 4.20882 18.5833 3.32549 17.05C2.44216 15.5167 2.00049 13.8333 2.00049 12C2.00049 10.1667 2.44216 8.48333 3.32549 6.95C4.20882 5.41667 5.41716 4.20833 6.95049 3.325C8.48382 2.44167 10.1672 2 12.0005 2C13.8338 2 15.5172 2.44167 17.0505 3.325C18.5838 4.20833 19.7922 5.41667 20.6755 6.95C21.5588 8.48333 22.0005 10.1667 22.0005 12C22.0005 13.8333 21.5588 15.5167 20.6755 17.05C19.7922 18.5833 18.5838 19.7917 17.0505 20.675C15.5172 21.5583 13.8338 22 12.0005 22ZM12.0005 18.45C13.1838 18.45 14.2588 18.1667 15.2255 17.6C16.2088 17.0333 16.9838 16.2583 17.5505 15.275C18.1172 14.275 18.4005 13.1833 18.4005 12C18.4005 10.8167 18.1172 9.73333 17.5505 8.75C16.9838 7.75 16.2088 6.96667 15.2255 6.4C14.2588 5.83333 13.1838 5.55 12.0005 5.55C10.8172 5.55 9.73382 5.83333 8.75049 6.4C7.78382 6.96667 7.01716 7.75 6.45049 8.75C5.88382 9.73333 5.60049 10.8167 5.60049 12C5.60049 13.1833 5.88382 14.275 6.45049 15.275C7.01716 16.2583 7.78382 17.0333 8.75049 17.6C9.73382 18.1667 10.8172 18.45 12.0005 18.45ZM17.2005 10.7L13.8255 12.525L12.2255 9.375L15.6255 7.55L17.2005 10.7ZM8.37549 7.55L11.7505 9.375L10.1505 12.525L6.77549 10.7L8.37549 7.55ZM12.0005 13.1C12.7505 13.1 13.4838 13.2167 14.2005 13.45C14.9338 13.6667 15.5588 13.9917 16.0755 14.425L14.7005 16.875C14.2838 16.675 13.8422 16.525 13.3755 16.425C12.9255 16.325 12.4672 16.275 12.0005 16.275C11.5672 16.275 11.1338 16.325 10.7005 16.425C10.2838 16.525 9.85882 16.675 9.42549 16.875L7.95049 14.425C8.46716 13.9917 9.08382 13.6667 9.80049 13.45C10.5172 13.2167 11.2505 13.1 12.0005 13.1Z" fill="black"/>
</g>
<defs>
<clipPath id="clip0_3197_5398">
<rect width="24" height="24" fill="white"/>
</clipPath>
</defs>
</svg>
