<svg width="24" height="24" viewBox="0 0 24 24" fill="none" xmlns="http://www.w3.org/2000/svg">
<g clip-path="url(#clip0_3197_5332)">
<rect width="24" height="24" fill="white"/>
<path d="M17.05 20.675C15.5167 21.5583 13.8333 22 12 22C10.1667 22 8.48333 21.5583 6.95 20.675C5.41667 19.7917 4.20833 18.5833 3.325 17.05C2.44167 15.5167 2 13.8333 2 12C2 10.1667 2.44167 8.48333 3.325 6.95C4.20833 5.41667 5.41667 4.20833 6.95 3.325C8.48333 2.44167 10.1667 2 12 2C13.8333 2 15.5167 2.44167 17.05 3.325C18.5833 4.20833 19.7917 5.41667 20.675 6.95C21.5583 8.48333 22 10.1667 22 12C22 13.8333 21.5583 15.5167 20.675 17.05C19.7917 18.5833 18.5833 19.7917 17.05 20.675ZM13.975 14.325C13.3583 14.025 12.675 13.875 11.925 13.875C11.2083 13.875 10.55 14.025 9.95 14.325C9.35 14.6083 8.875 15.0083 8.525 15.525C8.175 16.025 8 16.575 8 17.175H16C16 16.575 15.8167 16.025 15.45 15.525C15.1 15.0083 14.6083 14.6083 13.975 14.325ZM14.475 6.675L12.95 8.2L13.975 9.325L12.95 10.45L14.475 11.975L15.6 10.95L16.7 11.975L18.225 10.45L17.2 9.325L18.225 8.2L16.7 6.65L15.6 7.7L14.475 6.675ZM7.3 6.675L5.775 8.2L6.8 9.325L5.775 10.45L7.3 11.975L8.425 10.95L9.55 11.975L11.075 10.45L10.05 9.325L11.075 8.2L9.55 6.65L8.425 7.7L7.3 6.675Z" fill="black"/>
</g>
<defs>
<clipPath id="clip0_3197_5332">
<rect width="24" height="24" fill="white"/>
</clipPath>
</defs>
</svg>
