<svg width="24" height="24" viewBox="0 0 24 24" fill="none" xmlns="http://www.w3.org/2000/svg">
<g clip-path="url(#clip0_3196_4632)">
<rect width="24" height="24" fill="white"/>
<path d="M12.0005 22C10.1672 22 8.48382 21.5583 6.95049 20.675C5.41716 19.7917 4.20882 18.5833 3.32549 17.05C2.44216 15.5167 2.00049 13.8333 2.00049 12C2.00049 10.1667 2.44216 8.48333 3.32549 6.95C4.20882 5.41667 5.41716 4.20833 6.95049 3.325C8.48382 2.44167 10.1672 2 12.0005 2C13.8338 2 15.5172 2.44167 17.0505 3.325C18.5838 4.20833 19.7922 5.41667 20.6755 6.95C21.5588 8.48333 22.0005 10.1667 22.0005 12C22.0005 13.8333 21.5588 15.5167 20.6755 17.05C19.7922 18.5833 18.5838 19.7917 17.0505 20.675C15.5172 21.5583 13.8338 22 12.0005 22ZM12.0005 21.525C13.7505 21.525 15.3505 21.1083 16.8005 20.275C18.2505 19.425 19.3922 18.275 20.2255 16.825C21.0755 15.3583 21.5005 13.75 21.5005 12C21.5005 10.25 21.0755 8.65 20.2255 7.2C19.3922 5.73333 18.2505 4.58333 16.8005 3.75C15.3505 2.9 13.7505 2.475 12.0005 2.475C10.2505 2.475 8.65049 2.9 7.20049 3.75C5.75049 4.58333 4.60049 5.73333 3.75049 7.2C2.91716 8.65 2.50049 10.25 2.50049 12C2.50049 13.75 2.91716 15.3583 3.75049 16.825C4.60049 18.275 5.75049 19.425 7.20049 20.275C8.65049 21.1083 10.2505 21.525 12.0005 21.525ZM11.9255 13.775C12.7255 13.775 13.4505 13.925 14.1005 14.225C14.7672 14.525 15.2922 14.9417 15.6755 15.475C16.0588 15.9917 16.2505 16.5583 16.2505 17.175H7.75049C7.75049 16.5583 7.93382 15.9917 8.30049 15.475C8.66716 14.9417 9.16716 14.525 9.80049 14.225C10.4505 13.925 11.1588 13.775 11.9255 13.775ZM15.7255 16.7C15.5922 16 15.1672 15.4167 14.4505 14.95C13.7338 14.4833 12.8922 14.25 11.9255 14.25C10.9922 14.25 10.1838 14.4833 9.50049 14.95C8.83382 15.4167 8.43382 16 8.30049 16.7H15.7255ZM13.8005 7.275L15.6505 9.125L17.5005 7.275L17.8505 7.625L16.0005 9.475L17.8505 11.325L17.5005 11.675L15.6505 9.825L13.8005 11.675L13.4505 11.325L15.3005 9.475L13.4505 7.625L13.8005 7.275ZM6.50049 7.275L8.35049 9.125L10.2005 7.275L10.5505 7.625L8.70049 9.475L10.5505 11.325L10.2005 11.675L8.35049 9.825L6.50049 11.675L6.15049 11.325L8.00049 9.475L6.15049 7.625L6.50049 7.275Z" fill="black"/>
</g>
<defs>
<clipPath id="clip0_3196_4632">
<rect width="24" height="24" fill="white"/>
</clipPath>
</defs>
</svg>
