<svg width="24" height="24" viewBox="0 0 24 24" fill="none" xmlns="http://www.w3.org/2000/svg">
<g clip-path="url(#clip0_3197_5292)">
<rect width="24" height="24" fill="white"/>
<path d="M12.0005 22C10.1672 22 8.48382 21.5583 6.95049 20.675C5.41716 19.7917 4.20882 18.5833 3.32549 17.05C2.44216 15.5167 2.00049 13.8333 2.00049 12C2.00049 10.1667 2.44216 8.48333 3.32549 6.95C4.20882 5.41667 5.41716 4.20833 6.95049 3.325C8.48382 2.44167 10.1672 2 12.0005 2C13.8338 2 15.5172 2.44167 17.0505 3.325C18.5838 4.20833 19.7922 5.41667 20.6755 6.95C21.5588 8.48333 22.0005 10.1667 22.0005 12C22.0005 13.8333 21.5588 15.5167 20.6755 17.05C19.7922 18.5833 18.5838 19.7917 17.0505 20.675C15.5172 21.5583 13.8338 22 12.0005 22ZM12.0005 19.075C13.3005 19.075 14.4838 18.7667 15.5505 18.15C16.6338 17.5167 17.4838 16.6583 18.1005 15.575C18.7172 14.4917 19.0255 13.3 19.0255 12C19.0255 10.7 18.7172 9.50833 18.1005 8.425C17.4838 7.34167 16.6338 6.49167 15.5505 5.875C14.4838 5.24167 13.3005 4.925 12.0005 4.925C10.7005 4.925 9.50882 5.24167 8.42549 5.875C7.35882 6.49167 6.51716 7.34167 5.90049 8.425C5.28382 9.50833 4.97549 10.7 4.97549 12C4.97549 13.3 5.28382 14.4917 5.90049 15.575C6.51716 16.6583 7.35882 17.5167 8.42549 18.15C9.50882 18.7667 10.7005 19.075 12.0005 19.075ZM11.9255 13.325C12.6422 13.325 13.2838 13.4667 13.8505 13.75C14.4172 14.0167 14.8588 14.3667 15.1755 14.8C15.5088 15.2333 15.6755 15.6833 15.6755 16.15H8.32549C8.32549 15.6833 8.48382 15.2333 8.80049 14.8C9.11716 14.3667 9.54216 14.0167 10.0755 13.75C10.6255 13.4667 11.2422 13.325 11.9255 13.325ZM11.9255 15C11.6422 15 11.4338 15 11.3005 15C11.1672 15 11.0255 15 10.8755 15C10.7422 15 10.5422 15 10.2755 15H10.0755H13.8005H13.6755C13.3755 15 13.1588 15 13.0255 15C12.8922 15 12.7505 15 12.6005 15C12.4505 15 12.2255 15 11.9255 15ZM9.30049 12C8.76716 12 8.31716 11.8167 7.95049 11.45C7.60049 11.0833 7.42549 10.6333 7.42549 10.1C7.42549 9.56667 7.60049 9.125 7.95049 8.775C8.31716 8.425 8.76716 8.25 9.30049 8.25C9.83382 8.25 10.2755 8.425 10.6255 8.775C10.9922 9.125 11.1755 9.56667 11.1755 10.1C11.1755 10.6333 10.9922 11.0833 10.6255 11.45C10.2755 11.8167 9.83382 12 9.30049 12ZM14.7005 12C14.1672 12 13.7172 11.8167 13.3505 11.45C13.0005 11.0833 12.8255 10.6333 12.8255 10.1C12.8255 9.56667 13.0005 9.125 13.3505 8.775C13.7172 8.425 14.1672 8.25 14.7005 8.25C15.2505 8.25 15.7005 8.425 16.0505 8.775C16.4005 9.125 16.5755 9.56667 16.5755 10.1C16.5755 10.6333 16.4005 11.0833 16.0505 11.45C15.7005 11.8167 15.2505 12 14.7005 12Z" fill="black"/>
</g>
<defs>
<clipPath id="clip0_3197_5292">
<rect width="24" height="24" fill="white"/>
</clipPath>
</defs>
</svg>
