<svg width="24" height="24" viewBox="0 0 24 24" fill="none" xmlns="http://www.w3.org/2000/svg">
<g clip-path="url(#clip0_3197_5212)">
<rect width="24" height="24" fill="white"/>
<path d="M12.0005 22C10.1672 22 8.48382 21.5583 6.95049 20.675C5.41716 19.7917 4.20882 18.5833 3.32549 17.05C2.44216 15.5167 2.00049 13.8333 2.00049 12C2.00049 10.1667 2.44216 8.48333 3.32549 6.95C4.20882 5.41667 5.41716 4.20833 6.95049 3.325C8.48382 2.44167 10.1672 2 12.0005 2C13.8338 2 15.5172 2.44167 17.0505 3.325C18.5838 4.20833 19.7922 5.41667 20.6755 6.95C21.5588 8.48333 22.0005 10.1667 22.0005 12C22.0005 13.8333 21.5588 15.5167 20.6755 17.05C19.7922 18.5833 18.5838 19.7917 17.0505 20.675C15.5172 21.5583 13.8338 22 12.0005 22ZM12.0005 19.625C13.4005 19.625 14.6755 19.2917 15.8255 18.625C16.9755 17.9417 17.8838 17.025 18.5505 15.875C19.2338 14.7083 19.5755 13.4167 19.5755 12C19.5755 10.5833 19.2338 9.3 18.5505 8.15C17.8838 6.98333 16.9755 6.06667 15.8255 5.4C14.6755 4.71667 13.4005 4.375 12.0005 4.375C10.6005 4.375 9.32549 4.71667 8.17549 5.4C7.02549 6.06667 6.10882 6.98333 5.42549 8.15C4.75882 9.3 4.42549 10.5833 4.42549 12C4.42549 13.4167 4.75882 14.7083 5.42549 15.875C6.10882 17.025 7.02549 17.9417 8.17549 18.625C9.32549 19.2917 10.6005 19.625 12.0005 19.625ZM9.20049 11.475C8.75049 11.475 8.36716 11.3167 8.05049 11C7.73382 10.6833 7.57549 10.3 7.57549 9.85C7.57549 9.4 7.73382 9.01667 8.05049 8.7C8.36716 8.38333 8.75049 8.225 9.20049 8.225C9.66716 8.225 10.0505 8.38333 10.3505 8.7C10.6672 9.01667 10.8255 9.4 10.8255 9.85C10.8255 10.3 10.6672 10.6833 10.3505 11C10.0505 11.3167 9.66716 11.475 9.20049 11.475ZM14.8005 11.475C14.3505 11.475 13.9672 11.3167 13.6505 11C13.3338 10.6833 13.1755 10.3 13.1755 9.85C13.1755 9.4 13.3338 9.01667 13.6505 8.7C13.9672 8.38333 14.3505 8.225 14.8005 8.225C15.2505 8.225 15.6338 8.38333 15.9505 8.7C16.2672 9.01667 16.4255 9.4 16.4255 9.85C16.4255 10.3 16.2672 10.6833 15.9505 11C15.6338 11.3167 15.2505 11.475 14.8005 11.475ZM14.7005 16.7C14.6005 16.1 14.3005 15.6083 13.8005 15.225C13.3005 14.825 12.7005 14.625 12.0005 14.625C11.3005 14.625 10.6922 14.825 10.1755 15.225C9.67549 15.6083 9.37549 16.1 9.27549 16.7L7.17549 16.375C7.27549 15.675 7.55049 15.0333 8.00049 14.45C8.45049 13.8667 9.01716 13.4 9.70049 13.05C10.4005 12.7 11.1672 12.525 12.0005 12.525C12.8172 12.525 13.5672 12.7 14.2505 13.05C14.9505 13.4 15.5255 13.8667 15.9755 14.45C16.4255 15.0333 16.7005 15.675 16.8005 16.375L14.7005 16.7Z" fill="black"/>
</g>
<defs>
<clipPath id="clip0_3197_5212">
<rect width="24" height="24" fill="white"/>
</clipPath>
</defs>
</svg>
