<svg width="24" height="24" viewBox="0 0 24 24" fill="none" xmlns="http://www.w3.org/2000/svg">
<g clip-path="url(#clip0_3197_5230)">
<rect width="24" height="24" fill="white"/>
<path d="M17.05 20.675C15.5167 21.5583 13.8333 22 12 22C10.1667 22 8.48333 21.5583 6.95 20.675C5.41667 19.7917 4.20833 18.5833 3.325 17.05C2.44167 15.5167 2 13.8333 2 12C2 10.1667 2.44167 8.48333 3.325 6.95C4.20833 5.41667 5.41667 4.20833 6.95 3.325C8.48333 2.44167 10.1667 2 12 2C13.8333 2 15.5167 2.44167 17.05 3.325C18.5833 4.20833 19.7917 5.41667 20.675 6.95C21.5583 8.48333 22 10.1667 22 12C22 13.8333 21.5583 15.5167 20.675 17.05C19.7917 18.5833 18.5833 19.7917 17.05 20.675ZM6.975 9.9C7.375 10.3 7.88333 10.5 8.5 10.5C9.11667 10.5 9.625 10.3 10.025 9.9C10.425 9.48333 10.625 8.96667 10.625 8.35C10.625 7.75 10.425 7.25 10.025 6.85C9.625 6.45 9.11667 6.25 8.5 6.25C7.88333 6.25 7.375 6.45 6.975 6.85C6.575 7.25 6.375 7.75 6.375 8.35C6.375 8.96667 6.575 9.48333 6.975 9.9ZM13.975 9.9C14.375 10.3 14.8833 10.5 15.5 10.5C16.1167 10.5 16.625 10.3 17.025 9.9C17.425 9.48333 17.625 8.96667 17.625 8.35C17.625 7.75 17.425 7.25 17.025 6.85C16.625 6.45 16.1167 6.25 15.5 6.25C14.8833 6.25 14.375 6.45 13.975 6.85C13.575 7.25 13.375 7.75 13.375 8.35C13.375 8.96667 13.575 9.48333 13.975 9.9ZM14.375 16.375C14.6417 16.6917 14.8083 17.0583 14.875 17.475L18.075 16.95C17.925 16.0167 17.5667 15.1833 17 14.45C16.4333 13.7 15.7083 13.1167 14.825 12.7C13.9583 12.2667 13.0167 12.05 12 12.05C10.9667 12.05 10.0083 12.2667 9.125 12.7C8.25833 13.1167 7.54167 13.7 6.975 14.45C6.40833 15.1833 6.05 16.0167 5.9 16.95L9.1 17.475C9.16667 17.0583 9.33333 16.6917 9.6 16.375C9.86667 16.0417 10.2083 15.7833 10.625 15.6C11.0417 15.4 11.5 15.3 12 15.3C12.5 15.3 12.95 15.4 13.35 15.6C13.7667 15.7833 14.1083 16.0417 14.375 16.375Z" fill="black"/>
</g>
<defs>
<clipPath id="clip0_3197_5230">
<rect width="24" height="24" fill="white"/>
</clipPath>
</defs>
</svg>
