<svg width="24" height="24" viewBox="0 0 24 24" fill="none" xmlns="http://www.w3.org/2000/svg">
<g clip-path="url(#clip0_3390_10711)">
<rect width="24" height="24" fill="white"/>
<path d="M17.05 20.675C15.5167 21.5583 13.8333 22 12 22C10.1667 22 8.48333 21.5583 6.95 20.675C5.41667 19.7917 4.20833 18.5833 3.325 17.05C2.44167 15.5167 2 13.8333 2 12C2 10.1667 2.44167 8.48333 3.325 6.95C4.20833 5.41667 5.41667 4.20833 6.95 3.325C8.48333 2.44167 10.1667 2 12 2C13.8333 2 15.5167 2.44167 17.05 3.325C18.5833 4.20833 19.7917 5.41667 20.675 6.95C21.5583 8.48333 22 10.1667 22 12C22 13.8333 21.5583 15.5167 20.675 17.05C19.7917 18.5833 18.5833 19.7917 17.05 20.675ZM7.125 10.7C7.49167 11.0667 7.95 11.25 8.5 11.25C9.05 11.25 9.50833 11.0667 9.875 10.7C10.2417 10.3167 10.425 9.85833 10.425 9.325C10.425 8.775 10.2417 8.31667 9.875 7.95C9.50833 7.58333 9.05 7.4 8.5 7.4C7.95 7.4 7.49167 7.58333 7.125 7.95C6.75833 8.31667 6.575 8.775 6.575 9.325C6.575 9.85833 6.75833 10.3167 7.125 10.7ZM14.125 10.7C14.4917 11.0667 14.95 11.25 15.5 11.25C16.05 11.25 16.5083 11.0667 16.875 10.7C17.2417 10.3167 17.425 9.85833 17.425 9.325C17.425 8.775 17.2417 8.31667 16.875 7.95C16.5083 7.58333 16.05 7.4 15.5 7.4C14.95 7.4 14.4917 7.58333 14.125 7.95C13.7583 8.31667 13.575 8.775 13.575 9.325C13.575 9.85833 13.7583 10.3167 14.125 10.7ZM13.975 13.825C13.3583 13.525 12.675 13.375 11.925 13.375C11.2083 13.375 10.55 13.525 9.95 13.825C9.35 14.1083 8.875 14.5083 8.525 15.025C8.175 15.525 8 16.075 8 16.675H16C16 16.075 15.8167 15.525 15.45 15.025C15.1 14.5083 14.6083 14.1083 13.975 13.825Z" fill="black"/>
</g>
<defs>
<clipPath id="clip0_3390_10711">
<rect width="24" height="24" fill="white"/>
</clipPath>
</defs>
</svg>
