<svg width="24" height="24" viewBox="0 0 24 24" fill="none" xmlns="http://www.w3.org/2000/svg">
<g clip-path="url(#clip0_3336_10800)">
<rect width="24" height="24" fill="white"/>
<path d="M17.05 20.675C15.5167 21.5583 13.8333 22 12 22C10.1667 22 8.48333 21.5583 6.95 20.675C5.41667 19.7917 4.20833 18.5833 3.325 17.05C2.44167 15.5167 2 13.8333 2 12C2 10.1667 2.44167 8.48333 3.325 6.95C4.20833 5.41667 5.41667 4.20833 6.95 3.325C8.48333 2.44167 10.1667 2 12 2C13.8333 2 15.5167 2.44167 17.05 3.325C18.5833 4.20833 19.7917 5.41667 20.675 6.95C21.5583 8.48333 22 10.1667 22 12C22 13.8333 21.5583 15.5167 20.675 17.05C19.7917 18.5833 18.5833 19.7917 17.05 20.675ZM9.95 17.25C10.55 17.5333 11.2083 17.675 11.925 17.675C12.675 17.675 13.3583 17.5333 13.975 17.25C14.6083 16.95 15.1 16.55 15.45 16.05C15.8167 15.5333 16 14.975 16 14.375H8C8 14.975 8.175 15.5333 8.525 16.05C8.875 16.55 9.35 16.95 9.95 17.25ZM6.85 8.5C6.41667 9.08333 6.2 9.83333 6.2 10.75H10.8C10.8 9.83333 10.5833 9.08333 10.15 8.5C9.71667 7.91667 9.16667 7.625 8.5 7.625C7.83333 7.625 7.28333 7.91667 6.85 8.5ZM13.85 8.5C13.4167 9.08333 13.2 9.83333 13.2 10.75H17.8C17.8 9.83333 17.5833 9.08333 17.15 8.5C16.7167 7.91667 16.1667 7.625 15.5 7.625C14.8333 7.625 14.2833 7.91667 13.85 8.5Z" fill="black"/>
</g>
<defs>
<clipPath id="clip0_3336_10800">
<rect width="24" height="24" fill="white"/>
</clipPath>
</defs>
</svg>
