<svg width="24" height="24" viewBox="0 0 24 24" fill="none" xmlns="http://www.w3.org/2000/svg">
<g clip-path="url(#clip0_3197_5220)">
<rect width="24" height="24" fill="white"/>
<path d="M17.05 20.675C15.5167 21.5583 13.8333 22 12 22C10.1667 22 8.48333 21.5583 6.95 20.675C5.41667 19.7917 4.20833 18.5833 3.325 17.05C2.44167 15.5167 2 13.8333 2 12C2 10.1667 2.44167 8.48333 3.325 6.95C4.20833 5.41667 5.41667 4.20833 6.95 3.325C8.48333 2.44167 10.1667 2 12 2C13.8333 2 15.5167 2.44167 17.05 3.325C18.5833 4.20833 19.7917 5.41667 20.675 6.95C21.5583 8.48333 22 10.1667 22 12C22 13.8333 21.5583 15.5167 20.675 17.05C19.7917 18.5833 18.5833 19.7917 17.05 20.675ZM7.8 9.15C7.96667 9.31667 8.16667 9.4 8.4 9.4C8.63333 9.4 8.825 9.31667 8.975 9.15C9.14167 8.98333 9.225 8.78333 9.225 8.55C9.225 8.31667 9.14167 8.125 8.975 7.975C8.825 7.80833 8.63333 7.725 8.4 7.725C8.16667 7.725 7.96667 7.80833 7.8 7.975C7.65 8.14167 7.575 8.33333 7.575 8.55C7.575 8.78333 7.65 8.98333 7.8 9.15ZM15 9.15C15.1667 9.31667 15.3667 9.4 15.6 9.4C15.8333 9.4 16.025 9.31667 16.175 9.15C16.3417 8.98333 16.425 8.78333 16.425 8.55C16.425 8.31667 16.3417 8.125 16.175 7.975C16.025 7.80833 15.8333 7.725 15.6 7.725C15.3667 7.725 15.1667 7.80833 15 7.975C14.85 8.14167 14.775 8.33333 14.775 8.55C14.775 8.78333 14.85 8.98333 15 9.15ZM15.725 15.6C16.1583 16.1167 16.4167 16.7 16.5 17.35L17.45 17.225C17.3167 16.4083 16.9917 15.675 16.475 15.025C15.9583 14.375 15.3083 13.8667 14.525 13.5C13.7417 13.1333 12.9 12.95 12 12.95C11.0833 12.95 10.2333 13.1333 9.45 13.5C8.66667 13.8667 8.01667 14.375 7.5 15.025C6.98333 15.675 6.65833 16.4083 6.525 17.225L7.475 17.35C7.55833 16.7 7.80833 16.1167 8.225 15.6C8.65833 15.0667 9.2 14.65 9.85 14.35C10.5167 14.0333 11.2333 13.875 12 13.875C12.75 13.875 13.45 14.0333 14.1 14.35C14.7667 14.65 15.3083 15.0667 15.725 15.6Z" fill="black"/>
</g>
<defs>
<clipPath id="clip0_3197_5220">
<rect width="24" height="24" fill="white"/>
</clipPath>
</defs>
</svg>
