<svg width="24" height="24" viewBox="0 0 24 24" fill="none" xmlns="http://www.w3.org/2000/svg">
<g clip-path="url(#clip0_3197_5368)">
<rect width="24" height="24" fill="white"/>
<path d="M12.0005 22C10.1672 22 8.48382 21.5583 6.95049 20.675C5.41716 19.7917 4.20882 18.5833 3.32549 17.05C2.44216 15.5167 2.00049 13.8333 2.00049 12C2.00049 10.1667 2.44216 8.48333 3.32549 6.95C4.20882 5.41667 5.41716 4.20833 6.95049 3.325C8.48382 2.44167 10.1672 2 12.0005 2C13.8338 2 15.5172 2.44167 17.0505 3.325C18.5838 4.20833 19.7922 5.41667 20.6755 6.95C21.5588 8.48333 22.0005 10.1667 22.0005 12C22.0005 13.8333 21.5588 15.5167 20.6755 17.05C19.7922 18.5833 18.5838 19.7917 17.0505 20.675C15.5172 21.5583 13.8338 22 12.0005 22ZM12.0005 19.625C13.4005 19.625 14.6755 19.2917 15.8255 18.625C16.9755 17.9417 17.8838 17.025 18.5505 15.875C19.2338 14.7083 19.5755 13.4167 19.5755 12C19.5755 10.5833 19.2338 9.3 18.5505 8.15C17.8838 6.98333 16.9755 6.06667 15.8255 5.4C14.6755 4.71667 13.4005 4.375 12.0005 4.375C10.6005 4.375 9.32549 4.71667 8.17549 5.4C7.02549 6.06667 6.10882 6.98333 5.42549 8.15C4.75882 9.3 4.42549 10.5833 4.42549 12C4.42549 13.4167 4.75882 14.7083 5.42549 15.875C6.10882 17.025 7.02549 17.9417 8.17549 18.625C9.32549 19.2917 10.6005 19.625 12.0005 19.625ZM11.9255 16.7C11.2755 16.7 10.6755 16.5667 10.1255 16.3C9.59216 16.0333 9.17549 15.7 8.87549 15.3C8.57549 14.8833 8.42549 14.4667 8.42549 14.05H15.5755C15.5755 14.4667 15.4172 14.8833 15.1005 15.3C14.7838 15.7 14.3422 16.0333 13.7755 16.3C13.2255 16.5667 12.6088 16.7 11.9255 16.7ZM11.9255 15.05C12.2088 15.05 12.4255 15.05 12.5755 15.05C12.7255 15.05 12.8672 15.05 13.0005 15.05C13.1338 15.05 13.3505 15.05 13.6505 15.05H13.7755H10.1005H10.3005C10.5838 15.05 10.7922 15.05 10.9255 15.05C11.0588 15.05 11.1922 15.05 11.3255 15.05C11.4588 15.05 11.6588 15.05 11.9255 15.05ZM6.92549 10.975C6.92549 10.2083 7.10882 9.59167 7.47549 9.125C7.84216 8.64167 8.32549 8.4 8.92549 8.4C9.50882 8.4 9.98382 8.64167 10.3505 9.125C10.7338 9.59167 10.9255 10.2083 10.9255 10.975H6.92549ZM13.0755 10.975C13.0755 10.2083 13.2588 9.59167 13.6255 9.125C14.0088 8.64167 14.4922 8.4 15.0755 8.4C15.6755 8.4 16.1588 8.64167 16.5255 9.125C16.8922 9.59167 17.0755 10.2083 17.0755 10.975H13.0755Z" fill="black"/>
</g>
<defs>
<clipPath id="clip0_3197_5368">
<rect width="24" height="24" fill="white"/>
</clipPath>
</defs>
</svg>
