<svg width="24" height="24" viewBox="0 0 24 24" fill="none" xmlns="http://www.w3.org/2000/svg">
<g clip-path="url(#clip0_3197_7763)">
<rect width="24" height="24" fill="white"/>
<path d="M17.05 20.675C15.5167 21.5583 13.8333 22 12 22C10.1667 22 8.48333 21.5583 6.95 20.675C5.41667 19.7917 4.20833 18.5833 3.325 17.05C2.44167 15.5167 2 13.8333 2 12C2 10.1667 2.44167 8.48333 3.325 6.95C4.20833 5.41667 5.41667 4.20833 6.95 3.325C8.48333 2.44167 10.1667 2 12 2C13.8333 2 15.5167 2.44167 17.05 3.325C18.5833 4.20833 19.7917 5.41667 20.675 6.95C21.5583 8.48333 22 10.1667 22 12C22 13.8333 21.5583 15.5167 20.675 17.05C19.7917 18.5833 18.5833 19.7917 17.05 20.675ZM16.75 15.8C17.3 15.1 17.6417 14.3083 17.775 13.425L15.975 13.15C15.8917 13.7167 15.6583 14.2333 15.275 14.7C14.9083 15.15 14.4333 15.5083 13.85 15.775C13.2833 16.0417 12.6667 16.175 12 16.175C11.3167 16.175 10.6833 16.0417 10.1 15.775C9.53333 15.5083 9.05833 15.15 8.675 14.7C8.30833 14.2333 8.08333 13.7167 8 13.15L6.2 13.425C6.33333 14.3083 6.675 15.1 7.225 15.8C7.775 16.4833 8.46667 17.025 9.3 17.425C10.1333 17.8083 11.0333 18 12 18C12.95 18 13.8417 17.8083 14.675 17.425C15.5083 17.025 16.2 16.4833 16.75 15.8Z" fill="black"/>
</g>
<defs>
<clipPath id="clip0_3197_7763">
<rect width="24" height="24" fill="white"/>
</clipPath>
</defs>
</svg>
