<svg width="24" height="24" viewBox="0 0 24 24" fill="none" xmlns="http://www.w3.org/2000/svg">
<g clip-path="url(#clip0_3196_4640)">
<rect width="24" height="24" fill="white"/>
<path d="M16.9005 13.6C16.7838 14.3167 16.4922 14.9667 16.0255 15.55C15.5755 16.1333 14.9922 16.5917 14.2755 16.925C13.5755 17.2583 12.8172 17.425 12.0005 17.425C11.1838 17.425 10.4172 17.2583 9.70049 16.925C9.00049 16.5917 8.41716 16.1333 7.95049 15.55C7.48382 14.9667 7.19216 14.3167 7.07549 13.6L7.57549 13.525C7.72549 14.5083 8.21716 15.325 9.05049 15.975C9.88382 16.625 10.8672 16.95 12.0005 16.95C13.1172 16.95 14.0922 16.625 14.9255 15.975C15.7588 15.325 16.2505 14.5083 16.4005 13.525L16.9005 13.6ZM12.0005 22C10.1672 22 8.48382 21.5583 6.95049 20.675C5.41716 19.7917 4.20882 18.5833 3.32549 17.05C2.44216 15.5167 2.00049 13.8333 2.00049 12C2.00049 10.1667 2.44216 8.48333 3.32549 6.95C4.20882 5.41667 5.41716 4.20833 6.95049 3.325C8.48382 2.44167 10.1672 2 12.0005 2C13.8338 2 15.5172 2.44167 17.0505 3.325C18.5838 4.20833 19.7922 5.41667 20.6755 6.95C21.5588 8.48333 22.0005 10.1667 22.0005 12C22.0005 13.8333 21.5588 15.5167 20.6755 17.05C19.7922 18.5833 18.5838 19.7917 17.0505 20.675C15.5172 21.5583 13.8338 22 12.0005 22ZM12.0005 21.525C13.7505 21.525 15.3505 21.1083 16.8005 20.275C18.2505 19.425 19.3922 18.275 20.2255 16.825C21.0755 15.3583 21.5005 13.75 21.5005 12C21.5005 10.25 21.0755 8.65 20.2255 7.2C19.3922 5.73333 18.2505 4.58333 16.8005 3.75C15.3505 2.9 13.7505 2.475 12.0005 2.475C10.2505 2.475 8.65049 2.9 7.20049 3.75C5.75049 4.58333 4.60049 5.73333 3.75049 7.2C2.91716 8.65 2.50049 10.25 2.50049 12C2.50049 13.75 2.91716 15.3583 3.75049 16.825C4.60049 18.275 5.75049 19.425 7.20049 20.275C8.65049 21.1083 10.2505 21.525 12.0005 21.525Z" fill="black"/>
</g>
<defs>
<clipPath id="clip0_3196_4640">
<rect width="24" height="24" fill="white"/>
</clipPath>
</defs>
</svg>
