<svg width="24" height="24" viewBox="0 0 24 24" fill="none" xmlns="http://www.w3.org/2000/svg">
<g clip-path="url(#clip0_3197_7761)">
<rect width="24" height="24" fill="white"/>
<path d="M17.05 20.675C15.5167 21.5583 13.8333 22 12 22C10.1667 22 8.48333 21.5583 6.95 20.675C5.41667 19.7917 4.20833 18.5833 3.325 17.05C2.44167 15.5167 2 13.8333 2 12C2 10.1667 2.44167 8.48333 3.325 6.95C4.20833 5.41667 5.41667 4.20833 6.95 3.325C8.48333 2.44167 10.1667 2 12 2C13.8333 2 15.5167 2.44167 17.05 3.325C18.5833 4.20833 19.7917 5.41667 20.675 6.95C21.5583 8.48333 22 10.1667 22 12C22 13.8333 21.5583 15.5167 20.675 17.05C19.7917 18.5833 18.5833 19.7917 17.05 20.675ZM16.625 15.6C17.1583 14.9333 17.4833 14.175 17.6 13.325L16.25 13.125C16.15 13.725 15.9 14.275 15.5 14.775C15.1 15.275 14.5917 15.6667 13.975 15.95C13.375 16.2333 12.7167 16.375 12 16.375C11.2667 16.375 10.5917 16.2333 9.975 15.95C9.375 15.6667 8.875 15.275 8.475 14.775C8.075 14.275 7.825 13.725 7.725 13.125L6.375 13.325C6.49167 14.175 6.81667 14.9333 7.35 15.6C7.88333 16.2667 8.55833 16.7917 9.375 17.175C10.1917 17.5583 11.0667 17.75 12 17.75C12.9333 17.75 13.8 17.5583 14.6 17.175C15.4167 16.7917 16.0917 16.2667 16.625 15.6Z" fill="black"/>
</g>
<defs>
<clipPath id="clip0_3197_7761">
<rect width="24" height="24" fill="white"/>
</clipPath>
</defs>
</svg>
