<svg width="24" height="24" viewBox="0 0 24 24" fill="none" xmlns="http://www.w3.org/2000/svg">
<g clip-path="url(#clip0_3197_7751)">
<rect width="24" height="24" fill="white"/>
<path d="M16.8005 13.475C16.7005 14.1917 16.4255 14.85 15.9755 15.45C15.5255 16.05 14.9505 16.525 14.2505 16.875C13.5672 17.2083 12.8172 17.375 12.0005 17.375C11.1672 17.375 10.4005 17.2083 9.70049 16.875C9.01716 16.525 8.45049 16.05 8.00049 15.45C7.55049 14.85 7.27549 14.1917 7.17549 13.475L9.37549 13.175C9.45882 13.7417 9.75049 14.225 10.2505 14.625C10.7505 15.0083 11.3338 15.2 12.0005 15.2C12.6672 15.2 13.2422 15.0083 13.7255 14.625C14.2255 14.225 14.5172 13.7417 14.6005 13.175L16.8005 13.475ZM12.0005 22C10.1672 22 8.48382 21.5583 6.95049 20.675C5.41716 19.7917 4.20882 18.5833 3.32549 17.05C2.44216 15.5167 2.00049 13.8333 2.00049 12C2.00049 10.1667 2.44216 8.48333 3.32549 6.95C4.20882 5.41667 5.41716 4.20833 6.95049 3.325C8.48382 2.44167 10.1672 2 12.0005 2C13.8338 2 15.5172 2.44167 17.0505 3.325C18.5838 4.20833 19.7922 5.41667 20.6755 6.95C21.5588 8.48333 22.0005 10.1667 22.0005 12C22.0005 13.8333 21.5588 15.5167 20.6755 17.05C19.7922 18.5833 18.5838 19.7917 17.0505 20.675C15.5172 21.5583 13.8338 22 12.0005 22ZM12.0005 19.575C13.3838 19.575 14.6505 19.2417 15.8005 18.575C16.9505 17.9083 17.8588 16.9917 18.5255 15.825C19.1922 14.6583 19.5255 13.3833 19.5255 12C19.5255 10.6167 19.1922 9.34167 18.5255 8.175C17.8588 7.00833 16.9505 6.09167 15.8005 5.425C14.6505 4.75833 13.3838 4.425 12.0005 4.425C10.6172 4.425 9.35049 4.75833 8.20049 5.425C7.05049 6.09167 6.14216 7.00833 5.47549 8.175C4.80882 9.34167 4.47549 10.6167 4.47549 12C4.47549 13.3833 4.80882 14.6583 5.47549 15.825C6.14216 16.9917 7.05049 17.9083 8.20049 18.575C9.35049 19.2417 10.6172 19.575 12.0005 19.575Z" fill="black"/>
</g>
<defs>
<clipPath id="clip0_3197_7751">
<rect width="24" height="24" fill="white"/>
</clipPath>
</defs>
</svg>
