<svg width="24" height="24" viewBox="0 0 24 24" fill="none" xmlns="http://www.w3.org/2000/svg">
<g clip-path="url(#clip0_3197_7757)">
<rect width="24" height="24" fill="white"/>
<path d="M17.05 20.675C15.5167 21.5583 13.8333 22 12 22C10.1667 22 8.48333 21.5583 6.95 20.675C5.41667 19.7917 4.20833 18.5833 3.325 17.05C2.44167 15.5167 2 13.8333 2 12C2 10.1667 2.44167 8.48333 3.325 6.95C4.20833 5.41667 5.41667 4.20833 6.95 3.325C8.48333 2.44167 10.1667 2 12 2C13.8333 2 15.5167 2.44167 17.05 3.325C18.5833 4.20833 19.7917 5.41667 20.675 6.95C21.5583 8.48333 22 10.1667 22 12C22 13.8333 21.5583 15.5167 20.675 17.05C19.7917 18.5833 18.5833 19.7917 17.05 20.675ZM16.35 15.25C16.85 14.6167 17.1583 13.9083 17.275 13.125L16.775 13.05C16.675 13.75 16.4 14.3833 15.95 14.95C15.5 15.5167 14.925 15.9667 14.225 16.3C13.5417 16.6167 12.8 16.775 12 16.775C11.1833 16.775 10.425 16.6167 9.725 16.3C9.04167 15.9667 8.475 15.5167 8.025 14.95C7.575 14.3833 7.3 13.75 7.2 13.05L6.7 13.125C6.81667 13.9083 7.125 14.6167 7.625 15.25C8.125 15.8667 8.75833 16.3583 9.525 16.725C10.2917 17.075 11.1167 17.25 12 17.25C12.8833 17.25 13.7 17.075 14.45 16.725C15.2167 16.3583 15.85 15.8667 16.35 15.25Z" fill="black"/>
</g>
<defs>
<clipPath id="clip0_3197_7757">
<rect width="24" height="24" fill="white"/>
</clipPath>
</defs>
</svg>
