<svg width="24" height="24" viewBox="0 0 24 24" fill="none" xmlns="http://www.w3.org/2000/svg">
<g clip-path="url(#clip0_3197_7759)">
<rect width="24" height="24" fill="white"/>
<path d="M17.05 20.675C15.5167 21.5583 13.8333 22 12 22C10.1667 22 8.48333 21.5583 6.95 20.675C5.41667 19.7917 4.20833 18.5833 3.325 17.05C2.44167 15.5167 2 13.8333 2 12C2 10.1667 2.44167 8.48333 3.325 6.95C4.20833 5.41667 5.41667 4.20833 6.95 3.325C8.48333 2.44167 10.1667 2 12 2C13.8333 2 15.5167 2.44167 17.05 3.325C18.5833 4.20833 19.7917 5.41667 20.675 6.95C21.5583 8.48333 22 10.1667 22 12C22 13.8333 21.5583 15.5167 20.675 17.05C19.7917 18.5833 18.5833 19.7917 17.05 20.675ZM16.475 15.425C16.9917 14.775 17.3167 14.0417 17.45 13.225L16.5 13.075C16.4167 13.7417 16.1583 14.3417 15.725 14.875C15.3083 15.3917 14.7667 15.8083 14.1 16.125C13.45 16.425 12.75 16.575 12 16.575C11.2333 16.575 10.5167 16.425 9.85 16.125C9.2 15.8083 8.65833 15.3917 8.225 14.875C7.80833 14.3417 7.55833 13.7417 7.475 13.075L6.525 13.225C6.65833 14.0417 6.98333 14.775 7.5 15.425C8.01667 16.075 8.66667 16.5833 9.45 16.95C10.2333 17.3167 11.0833 17.5 12 17.5C12.9 17.5 13.7417 17.3167 14.525 16.95C15.3083 16.5833 15.9583 16.075 16.475 15.425Z" fill="black"/>
</g>
<defs>
<clipPath id="clip0_3197_7759">
<rect width="24" height="24" fill="white"/>
</clipPath>
</defs>
</svg>
