<svg width="24" height="24" viewBox="0 0 24 24" fill="none" xmlns="http://www.w3.org/2000/svg">
<g clip-path="url(#clip0_3197_7765)">
<rect width="24" height="24" fill="white"/>
<path d="M17.05 20.675C15.5167 21.5583 13.8333 22 12 22C10.1667 22 8.48333 21.5583 6.95 20.675C5.41667 19.7917 4.20833 18.5833 3.325 17.05C2.44167 15.5167 2 13.8333 2 12C2 10.1667 2.44167 8.48333 3.325 6.95C4.20833 5.41667 5.41667 4.20833 6.95 3.325C8.48333 2.44167 10.1667 2 12 2C13.8333 2 15.5167 2.44167 17.05 3.325C18.5833 4.20833 19.7917 5.41667 20.675 6.95C21.5583 8.48333 22 10.1667 22 12C22 13.8333 21.5583 15.5167 20.675 17.05C19.7917 18.5833 18.5833 19.7917 17.05 20.675ZM16.825 15.975C17.3917 15.2583 17.7417 14.45 17.875 13.55L15.6 13.2C15.5333 13.7167 15.325 14.1833 14.975 14.6C14.6417 15.0167 14.2167 15.35 13.7 15.6C13.1833 15.8333 12.6167 15.95 12 15.95C11.3833 15.95 10.8083 15.8333 10.275 15.6C9.75833 15.35 9.325 15.0167 8.975 14.6C8.64167 14.1833 8.44167 13.7167 8.375 13.2L6.1 13.55C6.23333 14.45 6.575 15.2583 7.125 15.975C7.69167 16.675 8.4 17.2333 9.25 17.65C10.1 18.05 11.0167 18.25 12 18.25C12.9667 18.25 13.875 18.05 14.725 17.65C15.575 17.2333 16.275 16.675 16.825 15.975Z" fill="black"/>
</g>
<defs>
<clipPath id="clip0_3197_7765">
<rect width="24" height="24" fill="white"/>
</clipPath>
</defs>
</svg>
