<svg width="24" height="24" viewBox="0 0 24 24" fill="none" xmlns="http://www.w3.org/2000/svg">
<g clip-path="url(#clip0_3375_5956)">
<rect width="24" height="24" fill="white"/>
<path d="M12.0005 2C13.8338 2 15.5172 2.44167 17.0505 3.325C18.5838 4.20833 19.7922 5.41667 20.6755 6.95C21.5588 8.48333 22.0005 10.1667 22.0005 12C22.0005 13.8333 21.5588 15.5167 20.6755 17.05C19.7922 18.5833 18.5838 19.7917 17.0505 20.675C15.5172 21.5583 13.8338 22 12.0005 22C10.1672 22 8.48382 21.5583 6.95049 20.675C5.41716 19.7917 4.20882 18.5833 3.32549 17.05C2.44216 15.5167 2.00049 13.8333 2.00049 12C2.00049 10.1667 2.44216 8.48333 3.32549 6.95C4.20882 5.41667 5.41716 4.20833 6.95049 3.325C8.48382 2.44167 10.1672 2 12.0005 2ZM12.0005 3.4C10.4172 3.4 8.96716 3.78333 7.65049 4.55C6.35049 5.3 5.31716 6.33333 4.55049 7.65C3.80049 8.95 3.42549 10.4 3.42549 12C3.42549 13.6 3.80049 15.0583 4.55049 16.375C5.31716 17.675 6.35049 18.7083 7.65049 19.475C8.96716 20.225 10.4172 20.6 12.0005 20.6C13.5838 20.6 15.0255 20.225 16.3255 19.475C17.6422 18.7083 18.6755 17.675 19.4255 16.375C20.1922 15.0583 20.5755 13.6 20.5755 12C20.5755 10.4 20.1922 8.95 19.4255 7.65C18.6755 6.33333 17.6422 5.3 16.3255 4.55C15.0255 3.78333 13.5838 3.4 12.0005 3.4ZM8.95049 13.375C9.25049 13.375 9.50049 13.4833 9.70049 13.7C9.91716 13.9 10.0255 14.15 10.0255 14.45C10.0255 14.75 9.91716 15.0083 9.70049 15.225C9.50049 15.4417 9.25049 15.55 8.95049 15.55C8.66716 15.55 8.41716 15.4417 8.20049 15.225C7.98382 15.0083 7.87549 14.75 7.87549 14.45C7.87549 14.15 7.98382 13.9 8.20049 13.7C8.41716 13.4833 8.66716 13.375 8.95049 13.375ZM15.0505 13.375C15.3505 13.375 15.6005 13.4833 15.8005 13.7C16.0172 13.9 16.1255 14.15 16.1255 14.45C16.1255 14.75 16.0172 15.0083 15.8005 15.225C15.6005 15.4417 15.3505 15.55 15.0505 15.55C14.7672 15.55 14.5172 15.4417 14.3005 15.225C14.0838 15.0083 13.9755 14.75 13.9755 14.45C13.9755 14.15 14.0838 13.9 14.3005 13.7C14.5172 13.4833 14.7672 13.375 15.0505 13.375ZM12.0005 7.325C12.7838 7.325 13.5172 7.46667 14.2005 7.75C14.8838 8.03333 15.5088 8.45 16.0755 9L15.2505 10.025C14.8338 9.59167 14.3422 9.26667 13.7755 9.05C13.2088 8.81667 12.6172 8.7 12.0005 8.7C11.3838 8.7 10.7922 8.81667 10.2255 9.05C9.65882 9.26667 9.16716 9.59167 8.75049 10.025L7.92549 9C8.49216 8.45 9.11716 8.03333 9.80049 7.75C10.4838 7.46667 11.2172 7.325 12.0005 7.325Z" fill="black"/>
</g>
<defs>
<clipPath id="clip0_3375_5956">
<rect width="24" height="24" fill="white"/>
</clipPath>
</defs>
</svg>
