<svg width="24" height="24" viewBox="0 0 24 24" fill="none" xmlns="http://www.w3.org/2000/svg">
<g clip-path="url(#clip0_3375_5972)">
<rect width="24" height="24" fill="white"/>
<path d="M6.95 3.325C8.48333 2.44167 10.1667 2 12 2C13.8333 2 15.5167 2.44167 17.05 3.325C18.5833 4.20833 19.7917 5.41667 20.675 6.95C21.5583 8.48333 22 10.1667 22 12C22 13.8333 21.5583 15.5167 20.675 17.05C19.7917 18.5833 18.5833 19.7917 17.05 20.675C15.5167 21.5583 13.8333 22 12 22C10.1667 22 8.48333 21.5583 6.95 20.675C5.41667 19.7917 4.20833 18.5833 3.325 17.05C2.44167 15.5167 2 13.8333 2 12C2 10.1667 2.44167 8.48333 3.325 6.95C4.20833 5.41667 5.41667 4.20833 6.95 3.325ZM9.55 13.625C9.26667 13.325 8.91667 13.175 8.5 13.175C8.08333 13.175 7.725 13.325 7.425 13.625C7.14167 13.9083 7 14.2583 7 14.675C7 15.0917 7.14167 15.45 7.425 15.75C7.725 16.0333 8.08333 16.175 8.5 16.175C8.91667 16.175 9.26667 16.0333 9.55 15.75C9.85 15.45 10 15.0917 10 14.675C10 14.2583 9.85 13.9083 9.55 13.625ZM16.55 13.625C16.2667 13.325 15.9167 13.175 15.5 13.175C15.0833 13.175 14.725 13.325 14.425 13.625C14.1417 13.9083 14 14.2583 14 14.675C14 15.0917 14.1417 15.45 14.425 15.75C14.725 16.0333 15.0833 16.175 15.5 16.175C15.9167 16.175 16.2667 16.0333 16.55 15.75C16.85 15.45 17 15.0917 17 14.675C17 14.2583 16.85 13.9083 16.55 13.625ZM14.425 6.975C13.6583 6.65833 12.85 6.5 12 6.5C11.15 6.5 10.3417 6.65833 9.575 6.975C8.80833 7.29167 8.11667 7.75 7.5 8.35L8.65 9.825C9.05 9.39167 9.55 9.05833 10.15 8.825C10.75 8.59167 11.3667 8.475 12 8.475C12.6333 8.475 13.2417 8.6 13.825 8.85C14.425 9.08333 14.9333 9.40833 15.35 9.825L16.5 8.35C15.8833 7.75 15.1917 7.29167 14.425 6.975Z" fill="black"/>
</g>
<defs>
<clipPath id="clip0_3375_5972">
<rect width="24" height="24" fill="white"/>
</clipPath>
</defs>
</svg>
