<svg width="24" height="24" viewBox="0 0 24 24" fill="none" xmlns="http://www.w3.org/2000/svg">
<g clip-path="url(#clip0_3196_4644)">
<rect width="24" height="24" fill="white"/>
<path d="M12.0005 2C13.8338 2 15.5172 2.44167 17.0505 3.325C18.5838 4.20833 19.7922 5.41667 20.6755 6.95C21.5588 8.48333 22.0005 10.1667 22.0005 12C22.0005 13.8333 21.5588 15.5167 20.6755 17.05C19.7922 18.5833 18.5838 19.7917 17.0505 20.675C15.5172 21.5583 13.8338 22 12.0005 22C10.1672 22 8.48382 21.5583 6.95049 20.675C5.41716 19.7917 4.20882 18.5833 3.32549 17.05C2.44216 15.5167 2.00049 13.8333 2.00049 12C2.00049 10.1667 2.44216 8.48333 3.32549 6.95C4.20882 5.41667 5.41716 4.20833 6.95049 3.325C8.48382 2.44167 10.1672 2 12.0005 2ZM12.0005 2.475C10.2505 2.475 8.65049 2.9 7.20049 3.75C5.75049 4.58333 4.60049 5.73333 3.75049 7.2C2.91716 8.65 2.50049 10.25 2.50049 12C2.50049 13.75 2.91716 15.3583 3.75049 16.825C4.60049 18.275 5.75049 19.425 7.20049 20.275C8.65049 21.1083 10.2505 21.525 12.0005 21.525C13.7505 21.525 15.3505 21.1083 16.8005 20.275C18.2505 19.425 19.3922 18.275 20.2255 16.825C21.0755 15.3583 21.5005 13.75 21.5005 12C21.5005 10.25 21.0755 8.65 20.2255 7.2C19.3922 5.73333 18.2505 4.58333 16.8005 3.75C15.3505 2.9 13.7505 2.475 12.0005 2.475ZM8.60049 14.275C8.73382 14.275 8.85049 14.325 8.95049 14.425C9.05049 14.525 9.10049 14.6417 9.10049 14.775C9.10049 14.9083 9.05049 15.025 8.95049 15.125C8.85049 15.225 8.73382 15.275 8.60049 15.275C8.46716 15.275 8.35049 15.225 8.25049 15.125C8.15049 15.025 8.10049 14.9083 8.10049 14.775C8.10049 14.6417 8.15049 14.525 8.25049 14.425C8.35049 14.325 8.46716 14.275 8.60049 14.275ZM15.4005 14.275C15.5338 14.275 15.6505 14.325 15.7505 14.425C15.8505 14.525 15.9005 14.6417 15.9005 14.775C15.9005 14.9083 15.8505 15.025 15.7505 15.125C15.6505 15.225 15.5338 15.275 15.4005 15.275C15.2672 15.275 15.1505 15.225 15.0505 15.125C14.9505 15.025 14.9005 14.9083 14.9005 14.775C14.9005 14.6417 14.9505 14.525 15.0505 14.425C15.1505 14.325 15.2672 14.275 15.4005 14.275ZM12.0005 7.55C12.7338 7.55 13.4088 7.675 14.0255 7.925C14.6422 8.15833 15.2088 8.53333 15.7255 9.05L15.3755 9.4C14.9255 8.93333 14.4088 8.59167 13.8255 8.375C13.2588 8.14167 12.6505 8.025 12.0005 8.025C11.3505 8.025 10.7338 8.14167 10.1505 8.375C9.58382 8.59167 9.07549 8.93333 8.62549 9.4L8.27549 9.05C8.79216 8.53333 9.35882 8.15833 9.97549 7.925C10.5922 7.675 11.2672 7.55 12.0005 7.55Z" fill="black"/>
</g>
<defs>
<clipPath id="clip0_3196_4644">
<rect width="24" height="24" fill="white"/>
</clipPath>
</defs>
</svg>
