<svg width="24" height="24" viewBox="0 0 24 24" fill="none" xmlns="http://www.w3.org/2000/svg">
<g clip-path="url(#clip0_3375_5962)">
<rect width="24" height="24" fill="white"/>
<path d="M12.0005 2C13.8338 2 15.5172 2.44167 17.0505 3.325C18.5838 4.20833 19.7922 5.41667 20.6755 6.95C21.5588 8.48333 22.0005 10.1667 22.0005 12C22.0005 13.8333 21.5588 15.5167 20.6755 17.05C19.7922 18.5833 18.5838 19.7917 17.0505 20.675C15.5172 21.5583 13.8338 22 12.0005 22C10.1672 22 8.48382 21.5583 6.95049 20.675C5.41716 19.7917 4.20882 18.5833 3.32549 17.05C2.44216 15.5167 2.00049 13.8333 2.00049 12C2.00049 10.1667 2.44216 8.48333 3.32549 6.95C4.20882 5.41667 5.41716 4.20833 6.95049 3.325C8.48382 2.44167 10.1672 2 12.0005 2ZM12.0005 4.975C10.7172 4.975 9.54216 5.28333 8.47549 5.9C7.40882 6.51667 6.56716 7.36667 5.95049 8.45C5.33382 9.51667 5.02549 10.7 5.02549 12C5.02549 13.3 5.33382 14.4917 5.95049 15.575C6.56716 16.6417 7.40882 17.4833 8.47549 18.1C9.54216 18.7167 10.7172 19.025 12.0005 19.025C13.2838 19.025 14.4588 18.7167 15.5255 18.1C16.5922 17.4833 17.4338 16.6417 18.0505 15.575C18.6672 14.4917 18.9755 13.3 18.9755 12C18.9755 10.7 18.6672 9.51667 18.0505 8.45C17.4338 7.36667 16.5922 6.51667 15.5255 5.9C14.4588 5.28333 13.2838 4.975 12.0005 4.975ZM9.30049 12.225C9.83382 12.225 10.2838 12.4083 10.6505 12.775C11.0172 13.1417 11.2005 13.6 11.2005 14.15C11.2005 14.6833 11.0172 15.1333 10.6505 15.5C10.2838 15.8667 9.83382 16.05 9.30049 16.05C8.76716 16.05 8.30882 15.8667 7.92549 15.5C7.55882 15.1333 7.37549 14.6833 7.37549 14.15C7.37549 13.6 7.55882 13.1417 7.92549 12.775C8.30882 12.4083 8.76716 12.225 9.30049 12.225ZM14.7005 12.225C15.2505 12.225 15.7088 12.4083 16.0755 12.775C16.4422 13.1417 16.6255 13.6 16.6255 14.15C16.6255 14.6833 16.4422 15.1333 16.0755 15.5C15.7088 15.8667 15.2505 16.05 14.7005 16.05C14.1672 16.05 13.7172 15.8667 13.3505 15.5C12.9838 15.1333 12.8005 14.6833 12.8005 14.15C12.8005 13.6 12.9838 13.1417 13.3505 12.775C13.7172 12.4083 14.1672 12.225 14.7005 12.225ZM12.0005 7.35C12.7672 7.35 13.5088 7.475 14.2255 7.725C14.9588 7.975 15.5922 8.34167 16.1255 8.825L14.8755 10.9C14.4588 10.6333 14.0005 10.4333 13.5005 10.3C13.0172 10.15 12.5172 10.075 12.0005 10.075C11.5172 10.075 11.0338 10.15 10.5505 10.3C10.0838 10.4333 9.64216 10.6333 9.22549 10.9L7.87549 8.825C8.42549 8.34167 9.05882 7.975 9.77549 7.725C10.4922 7.475 11.2338 7.35 12.0005 7.35Z" fill="black"/>
</g>
<defs>
<clipPath id="clip0_3375_5962">
<rect width="24" height="24" fill="white"/>
</clipPath>
</defs>
</svg>
