<svg width="24" height="24" viewBox="0 0 24 24" fill="none" xmlns="http://www.w3.org/2000/svg">
<g clip-path="url(#clip0_3197_5488)">
<rect width="24" height="24" fill="white"/>
<path d="M6.95 3.325C8.48333 2.44167 10.1667 2 12 2C13.8333 2 15.5167 2.44167 17.05 3.325C18.5833 4.20833 19.7917 5.41667 20.675 6.95C21.5583 8.48333 22 10.1667 22 12C22 13.8333 21.5583 15.5167 20.675 17.05C19.7917 18.5833 18.5833 19.7917 17.05 20.675C15.5167 21.5583 13.8333 22 12 22C10.1667 22 8.48333 21.5583 6.95 20.675C5.41667 19.7917 4.20833 18.5833 3.325 17.05C2.44167 15.5167 2 13.8333 2 12C2 10.1667 2.44167 8.48333 3.325 6.95C4.20833 5.41667 5.41667 4.20833 6.95 3.325ZM9.875 13.325C9.50833 12.9417 9.05 12.75 8.5 12.75C7.95 12.75 7.49167 12.9417 7.125 13.325C6.75833 13.6917 6.575 14.15 6.575 14.7C6.575 15.2333 6.75833 15.6833 7.125 16.05C7.49167 16.4167 7.95 16.6 8.5 16.6C9.05 16.6 9.50833 16.4167 9.875 16.05C10.2417 15.6833 10.425 15.2333 10.425 14.7C10.425 14.15 10.2417 13.6917 9.875 13.325ZM16.875 13.325C16.5083 12.9417 16.05 12.75 15.5 12.75C14.95 12.75 14.4917 12.9417 14.125 13.325C13.7583 13.6917 13.575 14.15 13.575 14.7C13.575 15.2333 13.7583 15.6833 14.125 16.05C14.4917 16.4167 14.95 16.6 15.5 16.6C16.05 16.6 16.5083 16.4167 16.875 16.05C17.2417 15.6833 17.425 15.2333 17.425 14.7C17.425 14.15 17.2417 13.6917 16.875 13.325ZM14.525 6.675C13.725 6.375 12.8833 6.225 12 6.225C11.1167 6.225 10.2667 6.375 9.45 6.675C8.65 6.975 7.95 7.4 7.35 7.95L8.825 10.1C9.275 9.76667 9.775 9.50833 10.325 9.325C10.875 9.14167 11.4333 9.05 12 9.05C12.5833 9.05 13.15 9.14167 13.7 9.325C14.2667 9.50833 14.7833 9.76667 15.25 10.1L16.65 7.95C16.05 7.4 15.3417 6.975 14.525 6.675Z" fill="black"/>
</g>
<defs>
<clipPath id="clip0_3197_5488">
<rect width="24" height="24" fill="white"/>
</clipPath>
</defs>
</svg>
