<svg width="24" height="24" viewBox="0 0 24 24" fill="none" xmlns="http://www.w3.org/2000/svg">
<g clip-path="url(#clip0_3192_1532)">
<rect width="24" height="24" fill="white"/>
<path d="M15.0255 22.025C13.4255 21.7917 11.9172 21.275 10.5005 20.475C9.10049 19.6583 7.79216 18.6417 6.57549 17.425C5.37549 16.225 4.36716 14.925 3.55049 13.525C2.75049 12.1083 2.22549 10.6 1.97549 9C1.84216 8.16667 1.89215 7.35833 2.12549 6.575C2.37549 5.775 2.77549 5.09167 3.32549 4.525C3.87549 3.94167 4.55049 3.53333 5.35049 3.3L9.30049 2.175L12.5005 9.05L11.0755 10.475C11.2588 10.925 11.6005 11.4 12.1005 11.9C12.5338 12.3667 13.0088 12.7083 13.5255 12.925L14.9505 11.525L21.8255 14.725L20.7005 18.65C20.4672 19.45 20.0588 20.1333 19.4755 20.7C18.9088 21.25 18.2338 21.6417 17.4505 21.875C16.6672 22.1083 15.8588 22.1583 15.0255 22.025ZM15.5505 18.85C15.8172 18.8833 16.0838 18.8667 16.3505 18.8C16.6338 18.7333 16.8838 18.5917 17.1005 18.375C17.3338 18.1583 17.5005 17.8667 17.6005 17.5L17.9005 16.475L15.5755 15.4L14.1505 16.825C13.3338 16.5583 12.5422 16.2 11.7755 15.75C11.0255 15.3 10.3672 14.7917 9.80049 14.225C9.23382 13.6583 8.72549 13 8.27549 12.25C7.84216 11.4833 7.47549 10.6833 7.17549 9.85L8.60049 8.425L7.52549 6.1L6.50049 6.4C6.13382 6.5 5.84216 6.66667 5.62549 6.9C5.40882 7.11667 5.26716 7.36667 5.20049 7.65C5.13382 7.93333 5.11716 8.20833 5.15049 8.475C5.33382 9.70833 5.75049 10.8833 6.40049 12C7.05049 13.1167 7.86716 14.1667 8.85049 15.15C9.83382 16.1333 10.8838 16.95 12.0005 17.6C13.1172 18.25 14.3005 18.6667 15.5505 18.85ZM17.9505 8.225C17.4672 8.20833 17.1088 8.2 16.8755 8.2C16.6422 8.2 16.2922 8.18333 15.8255 8.15C15.8255 7.75 15.8255 7.30833 15.8255 6.825C15.8255 6.34167 15.8255 5.93333 15.8255 5.6V2.7C16.5422 2.65 17.2422 2.76667 17.9255 3.05C18.6255 3.31667 19.2338 3.70833 19.7505 4.225C20.2838 4.75833 20.6838 5.36667 20.9505 6.05C21.2172 6.73333 21.3338 7.44167 21.3005 8.175L17.9505 8.225ZM19.7005 6.575C19.3338 6.20833 18.9505 5.825 18.5505 5.425C18.1838 5.05833 17.8005 4.675 17.4005 4.275L16.9005 3.775C17.2838 4.15833 17.5588 4.44167 17.7255 4.625C17.9088 4.79167 18.1838 5.05833 18.5505 5.425C18.9338 5.80833 19.2172 6.09167 19.4005 6.275C19.5838 6.45833 19.8588 6.73333 20.2255 7.1L19.7005 6.575Z" fill="black"/>
</g>
<defs>
<clipPath id="clip0_3192_1532">
<rect width="24" height="24" fill="white"/>
</clipPath>
</defs>
</svg>
