<svg width="24" height="24" viewBox="0 0 24 24" fill="none" xmlns="http://www.w3.org/2000/svg">
<g clip-path="url(#clip0_3192_1772)">
<rect width="24" height="24" fill="white"/>
<path d="M16.2 21.875C14.5167 21.525 12.9 20.9333 11.35 20.1C9.81667 19.25 8.40833 18.1833 7.125 16.9C5.84167 15.6167 4.775 14.2 3.925 12.65C3.075 11.1 2.475 9.48333 2.125 7.8C1.975 7.05 2 6.31667 2.2 5.6C2.41667 4.88333 2.78333 4.25833 3.3 3.725C3.81667 3.19167 4.44167 2.83333 5.175 2.65L7.575 2L10.2 7.675L7.675 10.225C8.325 11.5417 9.18333 12.7167 10.25 13.75C11.35 14.85 12.525 15.7167 13.775 16.35L16.325 13.8L22 16.425L21.375 18.825C21.175 19.5583 20.8083 20.1833 20.275 20.7C19.7417 21.2167 19.1167 21.575 18.4 21.775C17.6833 21.9917 16.95 22.025 16.2 21.875ZM15.275 4.5C15.275 3.86667 15.4833 3.34167 15.9 2.925C16.3167 2.50833 16.8417 2.3 17.475 2.3C18.1083 2.3 18.6333 2.50833 19.05 2.925C19.4667 3.34167 19.675 3.86667 19.675 4.5V6.5H18.575V4.5C18.575 4.18333 18.4667 3.925 18.25 3.725C18.05 3.50833 17.7917 3.4 17.475 3.4C17.1583 3.4 16.8917 3.50833 16.675 3.725C16.475 3.925 16.375 4.18333 16.375 4.5V6.5H15.275V4.5ZM13.725 5.9H21.225V10.65H13.725V5.9Z" fill="black"/>
</g>
<defs>
<clipPath id="clip0_3192_1772">
<rect width="24" height="24" fill="white"/>
</clipPath>
</defs>
</svg>
