<svg width="24" height="24" viewBox="0 0 24 24" fill="none" xmlns="http://www.w3.org/2000/svg">
<g clip-path="url(#clip0_3356_3342)">
<rect width="24" height="24" fill="white"/>
<path d="M2.05049 9.375C3.51715 8.425 5.08382 7.70833 6.75049 7.225C8.43382 6.725 10.1838 6.475 12.0005 6.475C13.8172 6.475 15.5672 6.725 17.2505 7.225C18.9338 7.70833 20.5005 8.425 21.9505 9.375C22.5838 9.775 23.0755 10.3083 23.4255 10.975C23.7922 11.625 23.9838 12.325 24.0005 13.075C24.0172 13.8083 23.8338 14.5 23.4505 15.15L22.0755 17.525L16.1755 15.375V11.975C14.8588 11.5417 13.4672 11.325 12.0005 11.325C10.5338 11.325 9.14216 11.5417 7.82549 11.975V15.375L1.92549 17.525L0.550488 15.15C0.167155 14.5 -0.0161784 13.8083 0.000488281 13.075C0.0171549 12.325 0.200488 11.625 0.550488 10.975C0.917155 10.3083 1.41716 9.775 2.05049 9.375ZM2.55049 10.15C2.06716 10.45 1.67549 10.8583 1.37549 11.375C1.09216 11.8917 0.950488 12.4417 0.950488 13.025C0.950488 13.6083 1.10049 14.175 1.40049 14.725L2.32549 16.375L6.90049 14.725V11.3C7.80049 10.9833 8.65882 10.7583 9.47549 10.625C10.2922 10.475 11.1338 10.4 12.0005 10.4C12.8672 10.4 13.7088 10.475 14.5255 10.625C15.3588 10.7583 16.2255 10.9833 17.1255 11.3V14.725L21.6755 16.375L22.6005 14.725C22.9005 14.175 23.0505 13.6083 23.0505 13.025C23.0505 12.4417 22.9005 11.8917 22.6005 11.375C22.3172 10.8583 21.9338 10.45 21.4505 10.15C20.0338 9.25 18.5255 8.56667 16.9255 8.1C15.3255 7.63333 13.6838 7.4 12.0005 7.4C10.3005 7.4 8.65049 7.63333 7.05049 8.1C5.45049 8.56667 3.95049 9.25 2.55049 10.15Z" fill="black"/>
</g>
<defs>
<clipPath id="clip0_3356_3342">
<rect width="24" height="24" fill="white"/>
</clipPath>
</defs>
</svg>
