<svg width="24" height="24" viewBox="0 0 24 24" fill="none" xmlns="http://www.w3.org/2000/svg">
<g clip-path="url(#clip0_3192_1530)">
<rect width="24" height="24" fill="white"/>
<path d="M15.1505 21.975C13.5505 21.6917 12.0422 21.15 10.6255 20.35C9.20882 19.55 7.89216 18.5417 6.67549 17.325C5.47549 16.125 4.46716 14.8083 3.65049 13.375C2.83382 11.925 2.29215 10.3917 2.02549 8.775C1.89216 8.00833 1.93382 7.25 2.15049 6.5C2.36716 5.73333 2.74216 5.06667 3.27549 4.5C3.82549 3.93333 4.48382 3.54167 5.25049 3.325L8.95049 2.275L11.9505 8.775L10.4255 10.325C10.7088 10.925 11.1672 11.5583 11.8005 12.225C12.2505 12.675 12.8005 13.0833 13.4505 13.45C13.5338 13.4833 13.6088 13.525 13.6755 13.575L15.2255 12.05L21.7255 15.1L20.7005 18.725C20.4672 19.5083 20.0672 20.175 19.5005 20.725C18.9505 21.2583 18.2922 21.6333 17.5255 21.85C16.7588 22.0833 15.9672 22.125 15.1505 21.975ZM15.6255 19.2C15.9255 19.25 16.2338 19.2417 16.5505 19.175C16.8838 19.0917 17.1755 18.9417 17.4255 18.725C17.6922 18.4917 17.8838 18.175 18.0005 17.775L18.3005 16.625L15.7755 15.45L14.1755 17.05C13.3088 16.7167 12.5088 16.3167 11.7755 15.85C11.0422 15.3667 10.3755 14.8333 9.77549 14.25C9.15882 13.6333 8.61716 12.9583 8.15049 12.225C7.70049 11.475 7.30049 10.675 6.95049 9.825L8.55049 8.225L7.40049 5.7L6.27549 6C5.87549 6.11667 5.55049 6.3 5.30049 6.55C5.06716 6.78333 4.90882 7.05833 4.82549 7.375C4.74216 7.69167 4.73382 8.00833 4.80049 8.325C5.01716 9.625 5.45882 10.8667 6.12549 12.05C6.80882 13.2167 7.65882 14.3083 8.67549 15.325C9.69216 16.3417 10.7755 17.1833 11.9255 17.85C13.0922 18.5167 14.3255 18.9667 15.6255 19.2ZM17.7755 8.25C17.3255 8.23333 16.9922 8.225 16.7755 8.225C16.5588 8.225 16.2255 8.21667 15.7755 8.2C15.7922 7.71667 15.7922 7.31667 15.7755 7C15.7755 6.66667 15.7838 6.275 15.8005 5.825V3.125C16.4672 3.09167 17.1172 3.2 17.7505 3.45C18.3838 3.7 18.9422 4.06667 19.4255 4.55C19.9255 5.05 20.3005 5.61667 20.5505 6.25C20.8005 6.88333 20.9088 7.53333 20.8755 8.2L17.7755 8.25ZM19.0005 6.675C18.7172 6.39167 18.4338 6.10833 18.1505 5.825C17.8838 5.55833 17.6088 5.28333 17.3255 5L16.9505 4.625C17.2338 4.90833 17.4422 5.11667 17.5755 5.25C17.7088 5.38333 17.9005 5.575 18.1505 5.825C18.4338 6.10833 18.6422 6.31667 18.7755 6.45C18.9088 6.58333 19.1005 6.775 19.3505 7.025L19.0005 6.675Z" fill="black"/>
</g>
<defs>
<clipPath id="clip0_3192_1530">
<rect width="24" height="24" fill="white"/>
</clipPath>
</defs>
</svg>
