<svg width="24" height="24" viewBox="0 0 24 24" fill="none" xmlns="http://www.w3.org/2000/svg">
<g clip-path="url(#clip0_3391_10762)">
<rect width="24" height="24" fill="white"/>
<path d="M15.4505 21.95C13.8172 21.6167 12.2755 21.05 10.8255 20.25C9.39216 19.4333 8.05049 18.4083 6.80049 17.175C5.58382 15.9583 4.56716 14.625 3.75049 13.175C2.95049 11.7083 2.38382 10.1583 2.05049 8.525C1.91715 7.79167 1.95049 7.06667 2.15049 6.35C2.36716 5.61667 2.73382 4.98333 3.25049 4.45C3.76716 3.91667 4.39216 3.54167 5.12549 3.325L8.45049 2.425L11.2255 8.425L9.42549 10.225C9.85882 11.0917 10.4672 11.925 11.2505 12.725C12.0338 13.5083 12.8672 14.1167 13.7505 14.55L15.5755 12.75L21.5755 15.55L20.6505 18.85C20.4338 19.6 20.0588 20.2333 19.5255 20.75C19.0088 21.2667 18.3838 21.625 17.6505 21.825C16.9338 22.0417 16.2005 22.0833 15.4505 21.95ZM15.8755 19.675C16.2422 19.7583 16.6005 19.7583 16.9505 19.675C17.3172 19.575 17.6338 19.3917 17.9005 19.125C18.1838 18.8583 18.3755 18.525 18.4755 18.125L18.8255 16.8L16.0255 15.525L14.2005 17.35C13.2005 16.9167 12.3422 16.4667 11.6255 16C10.9255 15.5333 10.2588 14.9833 9.62549 14.35C9.00882 13.7333 8.46716 13.0667 8.00049 12.35C7.53382 11.6333 7.08382 10.775 6.65049 9.775L8.47549 7.95L7.20049 5.175L5.90049 5.525C5.48382 5.625 5.14216 5.81667 4.87549 6.1C4.60882 6.36667 4.42549 6.68333 4.32549 7.05C4.22549 7.4 4.21716 7.75833 4.30049 8.125C4.56716 9.50833 5.05882 10.8333 5.77549 12.1C6.49216 13.35 7.37549 14.5083 8.42549 15.575C9.49216 16.625 10.6505 17.5083 11.9005 18.225C13.1672 18.925 14.4922 19.4083 15.8755 19.675ZM15.6505 3.15L17.5255 5.1L19.3755 3.15L20.8505 4.625L18.9005 6.5L20.8505 8.375L19.3755 9.85L17.5255 7.9L15.6505 9.85L14.1755 8.35L16.1255 6.5L14.1755 4.65L15.6505 3.15Z" fill="black"/>
</g>
<defs>
<clipPath id="clip0_3391_10762">
<rect width="24" height="24" fill="white"/>
</clipPath>
</defs>
</svg>
