<svg width="24" height="24" viewBox="0 0 24 24" fill="none" xmlns="http://www.w3.org/2000/svg">
<g clip-path="url(#clip0_3192_1544)">
<rect width="24" height="24" fill="white"/>
<path d="M16.2 21.875C14.5167 21.525 12.9 20.9333 11.35 20.1C9.81667 19.25 8.40833 18.1833 7.125 16.9C5.84167 15.6167 4.775 14.2 3.925 12.65C3.075 11.1 2.475 9.48333 2.125 7.8C1.975 7.05 2 6.31667 2.2 5.6C2.41667 4.88333 2.78333 4.25833 3.3 3.725C3.81667 3.19167 4.44167 2.83333 5.175 2.65L7.575 2L10.2 7.675L7.675 10.225C8.325 11.5417 9.18333 12.7167 10.25 13.75C11.35 14.85 12.525 15.7167 13.775 16.35L16.325 13.8L22 16.425L21.375 18.825C21.175 19.5583 20.8083 20.1833 20.275 20.7C19.7417 21.2167 19.1167 21.575 18.4 21.775C17.6833 21.9917 16.95 22.025 16.2 21.875ZM17.775 8.25C17.325 8.23333 16.9917 8.225 16.775 8.225C16.5583 8.225 16.225 8.21667 15.775 8.2C15.7917 7.71667 15.7917 7.31667 15.775 7C15.775 6.66667 15.7833 6.275 15.8 5.825V3.125C16.4667 3.09167 17.1167 3.2 17.75 3.45C18.3833 3.7 18.9417 4.06667 19.425 4.55C19.925 5.05 20.3 5.61667 20.55 6.25C20.8 6.88333 20.9083 7.53333 20.875 8.2L17.775 8.25ZM19 6.675C18.7167 6.39167 18.4333 6.10833 18.15 5.825C17.8833 5.55833 17.6083 5.28333 17.325 5L16.95 4.625C17.2333 4.90833 17.4417 5.11667 17.575 5.25C17.7083 5.38333 17.9 5.575 18.15 5.825C18.4333 6.10833 18.6417 6.31667 18.775 6.45C18.9083 6.58333 19.1 6.775 19.35 7.025L19 6.675Z" fill="black"/>
</g>
<defs>
<clipPath id="clip0_3192_1544">
<rect width="24" height="24" fill="white"/>
</clipPath>
</defs>
</svg>
