<svg width="24" height="24" viewBox="0 0 24 24" fill="none" xmlns="http://www.w3.org/2000/svg">
<g clip-path="url(#clip0_3391_10797)">
<rect width="24" height="24" fill="white"/>
<path d="M2.22549 8.475C3.64216 7.49167 5.16716 6.775 6.80049 6.325C8.45049 5.85833 10.1838 5.625 12.0005 5.625C13.7838 5.625 15.5005 5.85833 17.1505 6.325C18.8005 6.775 20.3338 7.49167 21.7505 8.475C22.4505 8.975 22.9922 9.59167 23.3755 10.325C23.7755 11.0583 23.9838 11.8333 24.0005 12.65C24.0172 13.45 23.8172 14.2167 23.4005 14.95L21.4505 18.4L14.4005 15.825V13.6C13.6838 13.35 12.8838 13.225 12.0005 13.225C11.1005 13.225 10.2922 13.35 9.57549 13.6V15.825L2.52549 18.4L0.575488 14.925C0.175488 14.2083 -0.0161784 13.45 0.000488281 12.65C0.000488281 11.8333 0.192155 11.0583 0.575488 10.325C0.975488 9.59167 1.52549 8.975 2.22549 8.475ZM3.95049 10.9C3.68382 11.0833 3.46716 11.3167 3.30049 11.6C3.13382 11.8833 3.04216 12.2 3.02549 12.55C3.02549 12.9 3.11716 13.2667 3.30049 13.65L3.90049 14.825L6.70049 13.775V11.525C7.63382 11.125 8.53382 10.825 9.40049 10.625C10.2672 10.4083 11.1338 10.3 12.0005 10.3C12.8672 10.3 13.7255 10.4083 14.5755 10.625C15.4422 10.825 16.3422 11.125 17.2755 11.525V13.775L20.0755 14.825L20.7005 13.65C20.8838 13.2833 20.9672 12.925 20.9505 12.575C20.9505 12.225 20.8588 11.9 20.6755 11.6C20.5088 11.3 20.2838 11.05 20.0005 10.85C18.8672 10.0667 17.6172 9.49167 16.2505 9.125C14.9005 8.74167 13.4838 8.55 12.0005 8.55C10.4838 8.55 9.03382 8.74167 7.65049 9.125C6.28382 9.50833 5.05049 10.1 3.95049 10.9Z" fill="black"/>
</g>
<defs>
<clipPath id="clip0_3391_10797">
<rect width="24" height="24" fill="white"/>
</clipPath>
</defs>
</svg>
