<svg width="24" height="24" viewBox="0 0 24 24" fill="none" xmlns="http://www.w3.org/2000/svg">
<g clip-path="url(#clip0_3375_5590)">
<rect width="24" height="24" fill="white"/>
<path d="M15.3005 22.375C13.6005 22.1417 12.0172 21.6 10.5505 20.75C9.08382 19.9 7.71716 18.8417 6.45049 17.575C5.20049 16.325 4.14216 14.9667 3.27549 13.5C2.42549 12.0167 1.87549 10.4333 1.62549 8.75C1.49216 7.85 1.55049 6.98333 1.80049 6.15C2.06716 5.3 2.48382 4.575 3.05049 3.975C3.63382 3.35833 4.35882 2.93333 5.22549 2.7L9.40049 1.525L12.8005 8.825L11.4755 10.15C11.7088 10.6167 12.0505 11.075 12.5005 11.525C12.9505 11.975 13.4088 12.3167 13.8755 12.55L15.2005 11.225L22.5005 14.625L21.3005 18.825C21.0672 19.6583 20.6505 20.3667 20.0505 20.95C19.4505 21.5333 18.7338 21.95 17.9005 22.2C17.0672 22.45 16.2005 22.5083 15.3005 22.375ZM15.8755 18.9C16.1255 18.95 16.3838 18.9417 16.6505 18.875C16.9338 18.7917 17.1838 18.65 17.4005 18.45C17.6338 18.2333 17.8172 17.9417 17.9505 17.575L18.3255 16.45L15.8505 15.325L14.5255 16.65C13.6755 16.3667 12.8588 16 12.0755 15.55C11.3088 15.0833 10.6338 14.5583 10.0505 13.975C9.46716 13.3917 8.94216 12.7167 8.47549 11.95C8.02549 11.1667 7.65882 10.35 7.37549 9.5L8.70049 8.175L7.57549 5.7L6.42549 6.05C6.07549 6.16667 5.79216 6.34167 5.57549 6.575C5.35882 6.80833 5.21716 7.06667 5.15049 7.35C5.08382 7.63333 5.07549 7.93333 5.12549 8.25C5.30882 9.53333 5.72549 10.75 6.37549 11.9C7.04216 13.0333 7.88382 14.1083 8.90049 15.125C9.93382 16.1583 11.0338 17.0083 12.2005 17.675C13.3838 18.325 14.6088 18.7333 15.8755 18.9Z" fill="black"/>
</g>
<defs>
<clipPath id="clip0_3375_5590">
<rect width="24" height="24" fill="white"/>
</clipPath>
</defs>
</svg>
