<svg width="24" height="24" viewBox="0 0 24 24" fill="none" xmlns="http://www.w3.org/2000/svg">
<g clip-path="url(#clip0_3356_3346)">
<rect width="24" height="24" fill="white"/>
<path d="M2.02549 9.15C3.52549 8.2 5.10049 7.48333 6.75049 7C8.41716 6.51667 10.1672 6.275 12.0005 6.275C13.8172 6.275 15.5588 6.51667 17.2255 7C18.9088 7.48333 20.4922 8.2 21.9755 9.15C22.5922 9.55 23.0755 10.075 23.4255 10.725C23.7922 11.375 23.9755 12.075 23.9755 12.825C23.9922 13.5583 23.8172 14.2583 23.4505 14.925L21.8505 17.725L15.8755 15.55V12.575C14.6755 12.175 13.3838 11.975 12.0005 11.975C10.6172 11.975 9.32549 12.175 8.12549 12.575V15.55L2.15049 17.725L0.550488 14.925C0.167155 14.2583 -0.0161784 13.5583 0.000488281 12.825C0.000488281 12.075 0.175488 11.375 0.525488 10.725C0.892155 10.075 1.39215 9.55 2.02549 9.15ZM3.07549 10.675C2.70882 10.9083 2.41716 11.2167 2.20049 11.6C1.98382 11.9667 1.86716 12.3667 1.85049 12.8C1.85049 13.2333 1.96716 13.6583 2.20049 14.075L2.97549 15.45L6.27549 14.25V11.225C7.45882 10.8083 8.46716 10.525 9.30049 10.375C10.1505 10.2083 11.0505 10.125 12.0005 10.125C12.9505 10.125 13.8422 10.2083 14.6755 10.375C15.5255 10.525 16.5422 10.8083 17.7255 11.225V14.25L21.0255 15.45L21.8005 14.075C22.0338 13.6583 22.1422 13.2333 22.1255 12.8C22.1255 12.3667 22.0172 11.9667 21.8005 11.6C21.5838 11.2167 21.2922 10.9083 20.9255 10.675C19.6088 9.84167 18.1922 9.20833 16.6755 8.775C15.1588 8.34167 13.6005 8.125 12.0005 8.125C10.3672 8.125 8.79216 8.34167 7.27549 8.775C5.77549 9.20833 4.37549 9.84167 3.07549 10.675Z" fill="black"/>
</g>
<defs>
<clipPath id="clip0_3356_3346">
<rect width="24" height="24" fill="white"/>
</clipPath>
</defs>
</svg>
