<svg width="24" height="24" viewBox="0 0 24 24" fill="none" xmlns="http://www.w3.org/2000/svg">
<g clip-path="url(#clip0_3192_1542)">
<rect width="24" height="24" fill="white"/>
<path d="M16.2 21.875C14.5167 21.525 12.9 20.9333 11.35 20.1C9.81667 19.25 8.40833 18.1833 7.125 16.9C5.84167 15.6167 4.775 14.2 3.925 12.65C3.075 11.1 2.475 9.48333 2.125 7.8C1.975 7.05 2 6.31667 2.2 5.6C2.41667 4.88333 2.78333 4.25833 3.3 3.725C3.81667 3.19167 4.44167 2.83333 5.175 2.65L7.575 2L10.2 7.675L7.675 10.225C8.325 11.5417 9.18333 12.7167 10.25 13.75C11.35 14.85 12.525 15.7167 13.775 16.35L16.325 13.8L22 16.425L21.375 18.825C21.175 19.5583 20.8083 20.1833 20.275 20.7C19.7417 21.2167 19.1167 21.575 18.4 21.775C17.6833 21.9917 16.95 22.025 16.2 21.875ZM20.275 9.8C20.275 9 20.1333 8.225 19.85 7.475C19.5667 6.725 19.125 6.05 18.525 5.45C17.9417 4.86667 17.275 4.43333 16.525 4.15C15.775 3.86667 15 3.725 14.2 3.725L14.175 1.85C15.225 1.83333 16.2417 2.01667 17.225 2.4C18.2083 2.78333 19.0833 3.35833 19.85 4.125C20.6167 4.89167 21.1917 5.775 21.575 6.775C21.975 7.75833 22.1667 8.775 22.15 9.825L20.275 9.8ZM16.35 9.825C16.3667 9.20833 16.1583 8.68333 15.725 8.25C15.3083 7.83333 14.7917 7.63333 14.175 7.65V5.7C14.725 5.71667 15.25 5.825 15.75 6.025C16.25 6.225 16.6917 6.51667 17.075 6.9C17.475 7.3 17.775 7.75 17.975 8.25C18.175 8.75 18.275 9.26667 18.275 9.8L16.35 9.825Z" fill="black"/>
</g>
<defs>
<clipPath id="clip0_3192_1542">
<rect width="24" height="24" fill="white"/>
</clipPath>
</defs>
</svg>
