<svg width="24" height="24" viewBox="0 0 24 24" fill="none" xmlns="http://www.w3.org/2000/svg">
<g clip-path="url(#clip0_3192_1540)">
<rect width="24" height="24" fill="white"/>
<path d="M16.2 21.875C14.5167 21.525 12.9 20.9333 11.35 20.1C9.81667 19.25 8.40833 18.1833 7.125 16.9C5.84167 15.6167 4.775 14.2 3.925 12.65C3.075 11.1 2.475 9.48333 2.125 7.8C1.975 7.05 2 6.31667 2.2 5.6C2.41667 4.88333 2.78333 4.25833 3.3 3.725C3.81667 3.19167 4.44167 2.83333 5.175 2.65L7.575 2L10.2 7.675L7.675 10.225C8.325 11.5417 9.18333 12.7167 10.25 13.75C11.35 14.85 12.525 15.7167 13.775 16.35L16.325 13.8L22 16.425L21.375 18.825C21.175 19.5583 20.8083 20.1833 20.275 20.7C19.7417 21.2167 19.1167 21.575 18.4 21.775C17.6833 21.9917 16.95 22.025 16.2 21.875ZM20 9.775C20 9.00833 19.8583 8.275 19.575 7.575C19.3083 6.85833 18.8917 6.21667 18.325 5.65C17.775 5.1 17.1417 4.69167 16.425 4.425C15.725 4.14167 14.9917 4 14.225 4V2.3C15.2083 2.28333 16.1583 2.45833 17.075 2.825C17.9917 3.19167 18.8083 3.73333 19.525 4.45C20.2583 5.18333 20.8083 6.00833 21.175 6.925C21.5417 7.84167 21.7167 8.79167 21.7 9.775H20ZM16.3 9.775C16.2833 9.19167 16.075 8.7 15.675 8.3C15.2917 7.91667 14.8083 7.71667 14.225 7.7V6.05C14.725 6.05 15.2 6.14167 15.65 6.325C16.1167 6.49167 16.525 6.75 16.875 7.1C17.2417 7.46667 17.5167 7.88333 17.7 8.35C17.8833 8.81667 17.9667 9.29167 17.95 9.775H16.3Z" fill="black"/>
</g>
<defs>
<clipPath id="clip0_3192_1540">
<rect width="24" height="24" fill="white"/>
</clipPath>
</defs>
</svg>
