<svg width="24" height="24" viewBox="0 0 24 24" fill="none" xmlns="http://www.w3.org/2000/svg">
<g clip-path="url(#clip0_3192_1750)">
<rect width="24" height="24" fill="white"/>
<path d="M2 8.35L12 14.125L18.3 10.85C18.65 10.95 18.9667 11.0333 19.25 11.1C19.5333 11.15 19.8333 11.175 20.15 11.175C20.8 11.175 21.4167 11.0667 22 10.85V20H2V8.35ZM2 4H15.175C14.9083 4.6 14.775 5.225 14.775 5.875C14.775 6.55833 14.9 7.21667 15.15 7.85C15.4 8.46667 15.7583 9.01667 16.225 9.5L12 11.825L2 6.05V4ZM20.15 8.7C19.35 8.7 18.6667 8.425 18.1 7.875C17.55 7.30833 17.275 6.63333 17.275 5.85C17.275 5.06667 17.55 4.4 18.1 3.85C18.6667 3.28333 19.35 3 20.15 3C20.95 3 21.625 3.28333 22.175 3.85C22.7417 4.4 23.025 5.06667 23.025 5.85C23.025 6.63333 22.7417 7.30833 22.175 7.875C21.625 8.425 20.95 8.7 20.15 8.7Z" fill="black"/>
</g>
<defs>
<clipPath id="clip0_3192_1750">
<rect width="24" height="24" fill="white"/>
</clipPath>
</defs>
</svg>
