<svg width="24" height="24" viewBox="0 0 24 24" fill="none" xmlns="http://www.w3.org/2000/svg">
<g clip-path="url(#clip0_3192_1738)">
<rect width="24" height="24" fill="white"/>
<path d="M2.00049 4H15.4255V6.925H4.97549V7.75L12.0005 10.9L15.7505 9.25L16.8505 11.9L12.0005 14.025L4.97549 10.9V17.075H19.0255V10.55H22.0005V20H2.00049V4ZM20.4005 7.525C19.8672 7.525 19.4088 7.34167 19.0255 6.975C18.6422 6.59167 18.4505 6.125 18.4505 5.575C18.4505 5.025 18.6422 4.56667 19.0255 4.2C19.4088 3.81667 19.8672 3.625 20.4005 3.625C20.9505 3.625 21.4172 3.81667 21.8005 4.2C22.1838 4.56667 22.3755 5.025 22.3755 5.575C22.3755 6.125 22.1838 6.59167 21.8005 6.975C21.4172 7.34167 20.9505 7.525 20.4005 7.525ZM20.4005 5.575C20.5838 5.575 20.7172 5.575 20.8005 5.575C20.8838 5.575 21.0172 5.575 21.2005 5.575C21.0172 5.575 20.8838 5.575 20.8005 5.575C20.7172 5.575 20.5838 5.575 20.4005 5.575C20.2172 5.575 20.0838 5.575 20.0005 5.575C19.9172 5.575 19.7838 5.575 19.6005 5.575C19.7838 5.575 19.9172 5.575 20.0005 5.575C20.0838 5.575 20.2172 5.575 20.4005 5.575Z" fill="black"/>
</g>
<defs>
<clipPath id="clip0_3192_1738">
<rect width="24" height="24" fill="white"/>
</clipPath>
</defs>
</svg>
