<svg width="24" height="24" viewBox="0 0 24 24" fill="none" xmlns="http://www.w3.org/2000/svg">
<g clip-path="url(#clip0_3356_3457)">
<rect width="24" height="24" fill="white"/>
<path d="M2 6.6L12 12.375L16.6 9.85C17.0833 10.2667 17.6333 10.5917 18.25 10.825C18.8833 11.0583 19.5167 11.175 20.15 11.175C20.8 11.175 21.4167 11.0667 22 10.85V20H2V6.6ZM2 4H15.175C14.9083 4.6 14.775 5.225 14.775 5.875C14.775 6.55833 14.9 7.21667 15.15 7.85C15.4167 8.46667 15.775 9.01667 16.225 9.5L12 11.825L2 6.05V4ZM20.15 8.7C19.35 8.7 18.6667 8.425 18.1 7.875C17.55 7.30833 17.275 6.63333 17.275 5.85C17.275 5.06667 17.55 4.4 18.1 3.85C18.6667 3.28333 19.35 3 20.15 3C20.95 3 21.625 3.28333 22.175 3.85C22.7417 4.4 23.025 5.06667 23.025 5.85C23.025 6.63333 22.7417 7.30833 22.175 7.875C21.625 8.425 20.95 8.7 20.15 8.7Z" fill="black"/>
</g>
<defs>
<clipPath id="clip0_3356_3457">
<rect width="24" height="24" fill="white"/>
</clipPath>
</defs>
</svg>
