<svg width="24" height="24" viewBox="0 0 24 24" fill="none" xmlns="http://www.w3.org/2000/svg">
<g clip-path="url(#clip0_3192_1492)">
<rect width="24" height="24" fill="white"/>
<path d="M6.8 20L2 24.025V6.5C2 5.8 2.24167 5.20833 2.725 4.725C3.20833 4.24167 3.8 4 4.5 4H19.5C20.2 4 20.7917 4.24167 21.275 4.725C21.7583 5.20833 22 5.8 22 6.5V17.5C22 18.2 21.7583 18.7917 21.275 19.275C20.7917 19.7583 20.2 20 19.5 20H6.8ZM11.075 8.175V10.975H17V8.175H11.075ZM7.375 10.675C7.675 10.9583 8.03333 11.1 8.45 11.1C8.88333 11.1 9.24167 10.95 9.525 10.65C9.825 10.35 9.975 9.99167 9.975 9.575C9.975 9.14167 9.825 8.78333 9.525 8.5C9.225 8.2 8.86667 8.05 8.45 8.05C8.01667 8.05 7.65 8.2 7.35 8.5C7.06667 8.8 6.925 9.15833 6.925 9.575C6.925 10.0083 7.075 10.375 7.375 10.675ZM11.075 12.9V15.725H17V12.9H11.075ZM7.375 15.4C7.675 15.6833 8.03333 15.825 8.45 15.825C8.88333 15.825 9.24167 15.6833 9.525 15.4C9.825 15.1 9.975 14.7333 9.975 14.3C9.975 13.8833 9.825 13.525 9.525 13.225C9.225 12.925 8.86667 12.775 8.45 12.775C8.01667 12.775 7.65 12.925 7.35 13.225C7.06667 13.525 6.925 13.8833 6.925 14.3C6.925 14.7333 7.075 15.1 7.375 15.4Z" fill="black"/>
</g>
<defs>
<clipPath id="clip0_3192_1492">
<rect width="24" height="24" fill="white"/>
</clipPath>
</defs>
</svg>
