<svg width="24" height="24" viewBox="0 0 24 24" fill="none" xmlns="http://www.w3.org/2000/svg">
<g clip-path="url(#clip0_3192_1472)">
<rect width="24" height="24" fill="white"/>
<path d="M2.00049 6.825C2.00049 6.30833 2.12549 5.83333 2.37549 5.4C2.62549 4.96667 2.96716 4.625 3.40049 4.375C3.83382 4.125 4.30882 4 4.82549 4H19.1755C19.6922 4 20.1672 4.125 20.6005 4.375C21.0338 4.625 21.3755 4.96667 21.6255 5.4C21.8755 5.83333 22.0005 6.30833 22.0005 6.825V17.175C22.0005 17.6917 21.8755 18.1667 21.6255 18.6C21.3755 19.0333 21.0338 19.375 20.6005 19.625C20.1672 19.875 19.6922 20 19.1755 20H6.80049L2.00049 24.025V6.825ZM2.57549 21.75L6.30049 18.6H19.1755C19.5755 18.6 19.9088 18.4667 20.1755 18.2C20.4422 17.9167 20.5755 17.575 20.5755 17.175V6.825C20.5755 6.425 20.4422 6.09167 20.1755 5.825C19.9088 5.54167 19.5755 5.4 19.1755 5.4H4.82549C4.42549 5.4 4.09216 5.54167 3.82549 5.825C3.55882 6.09167 3.42549 6.425 3.42549 6.825V21.925L2.57549 21.75ZM10.2505 13.35H16.7505V14.75H10.2505V13.35ZM7.67549 10.95C7.40882 10.95 7.17549 10.85 6.97549 10.65C6.77549 10.45 6.67549 10.2167 6.67549 9.95C6.67549 9.66667 6.77549 9.43333 6.97549 9.25C7.17549 9.05 7.40882 8.95 7.67549 8.95C7.95882 8.95 8.19216 9.05 8.37549 9.25C8.57549 9.43333 8.67549 9.66667 8.67549 9.95C8.67549 10.2167 8.57549 10.45 8.37549 10.65C8.19216 10.85 7.95882 10.95 7.67549 10.95ZM7.67549 15.05C7.40882 15.05 7.17549 14.9583 6.97549 14.775C6.77549 14.575 6.67549 14.3333 6.67549 14.05C6.67549 13.7667 6.77549 13.5333 6.97549 13.35C7.17549 13.15 7.40882 13.05 7.67549 13.05C7.95882 13.05 8.19216 13.15 8.37549 13.35C8.57549 13.5333 8.67549 13.7667 8.67549 14.05C8.67549 14.3333 8.57549 14.575 8.37549 14.775C8.19216 14.9583 7.95882 15.05 7.67549 15.05ZM10.2505 9.25H16.7505V10.65H10.2505V9.25Z" fill="black"/>
</g>
<defs>
<clipPath id="clip0_3192_1472">
<rect width="24" height="24" fill="white"/>
</clipPath>
</defs>
</svg>
