<svg width="24" height="24" viewBox="0 0 24 24" fill="none" xmlns="http://www.w3.org/2000/svg">
<g clip-path="url(#clip0_3192_1334)">
<rect width="24" height="24" fill="white"/>
<path d="M6.8 20L2 24.025V6.5C2 5.8 2.24167 5.20833 2.725 4.725C3.20833 4.24167 3.8 4 4.5 4H19.5C20.2 4 20.7917 4.24167 21.275 4.725C21.7583 5.20833 22 5.8 22 6.5V17.5C22 18.2 21.7583 18.7917 21.275 19.275C20.7917 19.7583 20.2 20 19.5 20H6.8ZM13.35 7.55H10.65L10.875 12.35H13.125L13.35 7.55ZM13.05 14.025C12.7833 13.7417 12.4333 13.6 12 13.6C11.5667 13.6 11.2083 13.7417 10.925 14.025C10.6583 14.2917 10.525 14.6333 10.525 15.05C10.525 15.4667 10.6583 15.8083 10.925 16.075C11.2083 16.325 11.5667 16.45 12 16.45C12.4333 16.45 12.7833 16.325 13.05 16.075C13.3333 15.8083 13.475 15.4667 13.475 15.05C13.475 14.6333 13.3333 14.2917 13.05 14.025Z" fill="black"/>
</g>
<defs>
<clipPath id="clip0_3192_1334">
<rect width="24" height="24" fill="white"/>
</clipPath>
</defs>
</svg>
