<svg width="24" height="24" viewBox="0 0 24 24" fill="none" xmlns="http://www.w3.org/2000/svg">
<g clip-path="url(#clip0_3192_1322)">
<rect width="24" height="24" fill="white"/>
<path d="M2.00049 7.325C2.00049 6.725 2.14216 6.16667 2.42549 5.65C2.72549 5.13333 3.13382 4.73333 3.65049 4.45C4.16716 4.15 4.72549 4 5.32549 4H18.6755C19.2755 4 19.8338 4.15 20.3505 4.45C20.8672 4.73333 21.2672 5.13333 21.5505 5.65C21.8505 6.16667 22.0005 6.725 22.0005 7.325V16.675C22.0005 17.275 21.8505 17.8333 21.5505 18.35C21.2672 18.8667 20.8672 19.275 20.3505 19.575C19.8338 19.8583 19.2755 20 18.6755 20H6.20049L2.00049 23.525V7.325ZM2.97549 18.425L4.30049 17.2H18.6255C18.7755 17.2 18.9005 17.15 19.0005 17.05C19.1005 16.9333 19.1505 16.8 19.1505 16.65V7.35C19.1505 7.2 19.1005 7.075 19.0005 6.975C18.9005 6.85833 18.7755 6.8 18.6255 6.8H5.37549C5.22549 6.8 5.10049 6.85833 5.00049 6.975C4.90049 7.075 4.85049 7.2 4.85049 7.35V18.425H2.97549ZM13.6255 7.975L13.3255 12.025H10.6505L10.3755 7.975H13.6255ZM12.0005 12.85C12.5005 12.85 12.9005 13 13.2005 13.3C13.5172 13.5833 13.6755 13.9667 13.6755 14.45C13.6755 14.9167 13.5172 15.2917 13.2005 15.575C12.8838 15.8583 12.4838 16 12.0005 16C11.5172 16 11.1172 15.8583 10.8005 15.575C10.4838 15.2917 10.3255 14.9167 10.3255 14.45C10.3255 13.9833 10.4838 13.6 10.8005 13.3C11.1172 13 11.5172 12.85 12.0005 12.85Z" fill="black"/>
</g>
<defs>
<clipPath id="clip0_3192_1322">
<rect width="24" height="24" fill="white"/>
</clipPath>
</defs>
</svg>
