<svg width="24" height="24" viewBox="0 0 24 24" fill="none" xmlns="http://www.w3.org/2000/svg">
<g clip-path="url(#clip0_3192_1224)">
<rect width="24" height="24" fill="white"/>
<path d="M6.8 20L2 24.025V6.5C2 5.8 2.24167 5.20833 2.725 4.725C3.20833 4.24167 3.8 4 4.5 4H19.5C20.2 4 20.7917 4.24167 21.275 4.725C21.7583 5.20833 22 5.8 22 6.5V17.5C22 18.2 21.7583 18.7917 21.275 19.275C20.7917 19.7583 20.2 20 19.5 20H6.8ZM9.1 14.15C9.76667 14.8667 10.5917 15.275 11.575 15.375V16.725H12.425V15.375C13.4083 15.275 14.225 14.8667 14.875 14.15C15.5417 13.4167 15.875 12.5417 15.875 11.525V11.1H15.05V11.525C15.05 12.0917 14.9167 12.6083 14.65 13.075C14.3833 13.5417 14.0083 13.9167 13.525 14.2C13.0583 14.4667 12.55 14.6 12 14.6C11.45 14.6 10.9333 14.4667 10.45 14.2C9.98333 13.9167 9.61667 13.5417 9.35 13.075C9.08333 12.6083 8.95 12.0917 8.95 11.525V11.1H8.125V11.525C8.125 12.5417 8.45 13.4167 9.1 14.15ZM10.95 12.575C11.2333 12.8583 11.5833 13 12 13C12.4167 13 12.7667 12.8583 13.05 12.575C13.3333 12.2917 13.475 11.9417 13.475 11.525V8.75C13.475 8.33333 13.3333 7.98333 13.05 7.7C12.7667 7.41667 12.4167 7.275 12 7.275C11.5833 7.275 11.2333 7.41667 10.95 7.7C10.6667 7.98333 10.525 8.33333 10.525 8.75V11.525C10.525 11.9417 10.6667 12.2917 10.95 12.575Z" fill="black"/>
</g>
<defs>
<clipPath id="clip0_3192_1224">
<rect width="24" height="24" fill="white"/>
</clipPath>
</defs>
</svg>
