<svg width="24" height="24" viewBox="0 0 24 24" fill="none" xmlns="http://www.w3.org/2000/svg">
<g clip-path="url(#clip0_3192_1684)">
<rect width="24" height="24" fill="white"/>
<path d="M2.00049 7.175C2.00049 6.59167 2.13382 6.05833 2.40049 5.575C2.68382 5.075 3.06716 4.69167 3.55049 4.425C4.05049 4.14167 4.59216 4 5.17549 4H18.8255C19.4088 4 19.9422 4.14167 20.4255 4.425C20.9255 4.69167 21.3088 5.075 21.5755 5.575C21.8588 6.05833 22.0005 6.59167 22.0005 7.175V16.825C22.0005 17.4083 21.8588 17.95 21.5755 18.45C21.3088 18.9333 20.9255 19.3167 20.4255 19.6C19.9422 19.8667 19.4088 20 18.8255 20H6.80049L2.00049 24.025V7.175ZM2.95049 20.35L5.95049 17.75H18.8255C19.0755 17.75 19.2838 17.6667 19.4505 17.5C19.6172 17.3167 19.7005 17.0917 19.7005 16.825V7.175C19.7005 6.90833 19.6172 6.69167 19.4505 6.525C19.2838 6.34167 19.0755 6.25 18.8255 6.25H5.17549C4.92549 6.25 4.71716 6.34167 4.55049 6.525C4.38382 6.69167 4.30049 6.90833 4.30049 7.175V21.275L2.95049 20.35ZM12.0005 11.925H12.4505H12.3505H12.7255H12.2005H12.0005H11.8005H11.2755H11.6505H11.5505H12.0005ZM10.1005 12.7L8.07549 10.75L10.8255 10.45L12.0005 7.9L13.1755 10.45L15.9255 10.75L13.9005 12.7L14.4255 15.375L12.0005 14.05L9.57549 15.375L10.1005 12.7Z" fill="black"/>
</g>
<defs>
<clipPath id="clip0_3192_1684">
<rect width="24" height="24" fill="white"/>
</clipPath>
</defs>
</svg>
