<svg width="24" height="24" viewBox="0 0 24 24" fill="none" xmlns="http://www.w3.org/2000/svg">
<g clip-path="url(#clip0_3192_1220)">
<rect width="24" height="24" fill="white"/>
<path d="M2.00049 7.5C2.00049 6.85 2.15049 6.25833 2.45049 5.725C2.76716 5.19167 3.19216 4.775 3.72549 4.475C4.27549 4.15833 4.86716 4 5.50049 4H18.5005C19.1505 4 19.7422 4.15833 20.2755 4.475C20.8088 4.775 21.2255 5.19167 21.5255 5.725C21.8422 6.25833 22.0005 6.85 22.0005 7.5V16.5C22.0005 17.1333 21.8422 17.725 21.5255 18.275C21.2255 18.8083 20.8088 19.2333 20.2755 19.55C19.7422 19.85 19.1505 20 18.5005 20H6.80049L2.00049 24.025V7.5ZM2.70049 17.975L4.67549 16.5H18.3755C18.3922 16.5 18.4088 16.4917 18.4255 16.475C18.4422 16.4583 18.4505 16.4417 18.4505 16.425V7.575C18.4505 7.55833 18.4422 7.54167 18.4255 7.525C18.4088 7.50833 18.3922 7.5 18.3755 7.5H5.62549C5.60882 7.5 5.59216 7.50833 5.57549 7.525C5.55882 7.54167 5.55049 7.55833 5.55049 7.575V17.975H2.70049ZM12.0005 15.45C11.1672 15.45 10.3922 15.2417 9.67549 14.825C8.95882 14.3917 8.38382 13.8167 7.95049 13.1C7.53382 12.3667 7.32549 11.575 7.32549 10.725V10.35H9.82549V10.725C9.82549 11.3417 10.0338 11.8583 10.4505 12.275C10.8838 12.6917 11.4005 12.9 12.0005 12.9C12.6005 12.9 13.1088 12.6917 13.5255 12.275C13.9588 11.8583 14.1755 11.3417 14.1755 10.725V10.35H16.6755V10.725C16.6755 11.575 16.4588 12.3667 16.0255 13.1C15.6088 13.8167 15.0422 14.3917 14.3255 14.825C13.6088 15.2417 12.8338 15.45 12.0005 15.45ZM10.4505 14.1H13.5505V16.025H10.4505V14.1ZM12.0005 12.275C11.5672 12.275 11.1922 12.125 10.8755 11.825C10.5755 11.525 10.4255 11.1583 10.4255 10.725V9.425C10.4255 8.99167 10.5755 8.625 10.8755 8.325C11.1922 8.025 11.5672 7.875 12.0005 7.875C12.4338 7.875 12.8005 8.025 13.1005 8.325C13.4172 8.625 13.5755 8.99167 13.5755 9.425V10.725C13.5755 11.1583 13.4172 11.525 13.1005 11.825C12.8005 12.125 12.4338 12.275 12.0005 12.275ZM12.0005 9.675C12.0338 9.675 12.0505 9.675 12.0505 9.675C12.0672 9.675 12.0922 9.675 12.1255 9.675C12.0922 9.675 12.0672 9.675 12.0505 9.675C12.0505 9.675 12.0338 9.675 12.0005 9.675C11.9672 9.675 11.9422 9.675 11.9255 9.675C11.9255 9.675 11.9088 9.675 11.8755 9.675C11.9088 9.675 11.9255 9.675 11.9255 9.675C11.9422 9.675 11.9672 9.675 12.0005 9.675Z" fill="black"/>
</g>
<defs>
<clipPath id="clip0_3192_1220">
<rect width="24" height="24" fill="white"/>
</clipPath>
</defs>
</svg>
