<svg width="24" height="24" viewBox="0 0 24 24" fill="none" xmlns="http://www.w3.org/2000/svg">
<g clip-path="url(#clip0_3192_1212)">
<rect width="24" height="24" fill="white"/>
<path d="M2.00049 6.825C2.00049 6.30833 2.12549 5.83333 2.37549 5.4C2.62549 4.96667 2.96716 4.625 3.40049 4.375C3.83382 4.125 4.30882 4 4.82549 4H19.1755C19.6922 4 20.1672 4.125 20.6005 4.375C21.0338 4.625 21.3755 4.96667 21.6255 5.4C21.8755 5.83333 22.0005 6.30833 22.0005 6.825V17.175C22.0005 17.6917 21.8755 18.1667 21.6255 18.6C21.3755 19.0333 21.0338 19.375 20.6005 19.625C20.1672 19.875 19.6922 20 19.1755 20H6.80049L2.00049 24.025V6.825ZM2.57549 21.75L6.30049 18.6H19.1755C19.5755 18.6 19.9088 18.4667 20.1755 18.2C20.4422 17.9167 20.5755 17.575 20.5755 17.175V6.825C20.5755 6.425 20.4422 6.09167 20.1755 5.825C19.9088 5.54167 19.5755 5.4 19.1755 5.4H4.82549C4.42549 5.4 4.09216 5.54167 3.82549 5.825C3.55882 6.09167 3.42549 6.425 3.42549 6.825V21.925L2.57549 21.75ZM12.0005 15.275C11.3005 15.275 10.6505 15.1083 10.0505 14.775C9.46716 14.4417 9.00049 13.9833 8.65049 13.4C8.31716 12.8167 8.15049 12.1667 8.15049 11.45V10.85H9.50049V11.45C9.50049 12.1667 9.74216 12.7667 10.2255 13.25C10.7088 13.7333 11.3005 13.975 12.0005 13.975C12.6838 13.975 13.2672 13.7333 13.7505 13.25C14.2338 12.7667 14.4755 12.1667 14.4755 11.45V10.85H15.8255V11.45C15.8255 12.1667 15.6505 12.8167 15.3005 13.4C14.9672 13.9833 14.5088 14.4417 13.9255 14.775C13.3422 15.1083 12.7005 15.275 12.0005 15.275ZM11.3005 14.9H12.7005V16.475H11.3005V14.9ZM12.0005 12.4C11.7505 12.4 11.5338 12.3167 11.3505 12.15C11.1672 11.9667 11.0755 11.75 11.0755 11.5V8.45C11.0755 8.18333 11.1672 7.96667 11.3505 7.8C11.5338 7.61667 11.7505 7.525 12.0005 7.525C12.2505 7.525 12.4672 7.61667 12.6505 7.8C12.8338 7.96667 12.9255 8.18333 12.9255 8.45V11.5C12.9255 11.75 12.8338 11.9667 12.6505 12.15C12.4672 12.3167 12.2505 12.4 12.0005 12.4ZM12.0005 10.275C12.0172 10.275 12.0255 10.275 12.0255 10.275C12.0422 10.275 12.0672 10.275 12.1005 10.275C12.0672 10.275 12.0422 10.275 12.0255 10.275C12.0255 10.275 12.0172 10.275 12.0005 10.275C11.9838 10.275 11.9672 10.275 11.9505 10.275C11.9505 10.275 11.9338 10.275 11.9005 10.275C11.9338 10.275 11.9505 10.275 11.9505 10.275C11.9672 10.275 11.9838 10.275 12.0005 10.275Z" fill="black"/>
</g>
<defs>
<clipPath id="clip0_3192_1212">
<rect width="24" height="24" fill="white"/>
</clipPath>
</defs>
</svg>
