<svg width="24" height="24" viewBox="0 0 24 24" fill="none" xmlns="http://www.w3.org/2000/svg">
<g clip-path="url(#clip0_3192_1632)">
<rect width="24" height="24" fill="white"/>
<path d="M2.00049 7.175C2.00049 6.59167 2.13382 6.05833 2.40049 5.575C2.68382 5.075 3.06716 4.69167 3.55049 4.425C4.05049 4.14167 4.59216 4 5.17549 4H18.8255C19.4088 4 19.9422 4.14167 20.4255 4.425C20.9255 4.69167 21.3088 5.075 21.5755 5.575C21.8588 6.05833 22.0005 6.59167 22.0005 7.175V16.825C22.0005 17.4083 21.8588 17.95 21.5755 18.45C21.3088 18.9333 20.9255 19.3167 20.4255 19.6C19.9422 19.8667 19.4088 20 18.8255 20H6.80049L2.00049 24.025V7.175ZM2.95049 20.35L5.95049 17.75H18.8255C19.0755 17.75 19.2838 17.6667 19.4505 17.5C19.6172 17.3167 19.7005 17.0917 19.7005 16.825V7.175C19.7005 6.90833 19.6172 6.69167 19.4505 6.525C19.2838 6.34167 19.0755 6.25 18.8255 6.25H5.17549C4.92549 6.25 4.71716 6.34167 4.55049 6.525C4.38382 6.69167 4.30049 6.90833 4.30049 7.175V21.275L2.95049 20.35ZM13.2505 16.2L11.0255 14.325H9.77549C9.49216 14.325 9.25049 14.225 9.05049 14.025C8.85049 13.825 8.75049 13.5833 8.75049 13.3V10.675C8.75049 10.3917 8.85049 10.1583 9.05049 9.975C9.25049 9.775 9.49216 9.675 9.77549 9.675H11.0255L13.2505 7.8H14.6505V16.2H13.2505ZM10.8255 11.325C10.8088 11.325 10.7922 11.3333 10.7755 11.35C10.7755 11.35 10.7755 11.3583 10.7755 11.375V12.625C10.7755 12.6417 10.7755 12.6583 10.7755 12.675C10.7922 12.675 10.8088 12.675 10.8255 12.675H11.7005L13.2255 13.95L12.8005 13.875V10.125L13.2505 10.05L11.7005 11.325H10.8255Z" fill="black"/>
</g>
<defs>
<clipPath id="clip0_3192_1632">
<rect width="24" height="24" fill="white"/>
</clipPath>
</defs>
</svg>
