<svg width="24" height="24" viewBox="0 0 24 24" fill="none" xmlns="http://www.w3.org/2000/svg">
<g clip-path="url(#clip0_3192_1320)">
<rect width="24" height="24" fill="white"/>
<path d="M2.00049 7.175C2.00049 6.59167 2.13382 6.05833 2.40049 5.575C2.68382 5.075 3.06716 4.69167 3.55049 4.425C4.05049 4.14167 4.59216 4 5.17549 4H18.8255C19.4088 4 19.9422 4.14167 20.4255 4.425C20.9255 4.69167 21.3088 5.075 21.5755 5.575C21.8588 6.05833 22.0005 6.59167 22.0005 7.175V16.825C22.0005 17.4083 21.8588 17.95 21.5755 18.45C21.3088 18.9333 20.9255 19.3167 20.4255 19.6C19.9422 19.8667 19.4088 20 18.8255 20H6.80049L2.00049 24.025V7.175ZM2.95049 20.35L5.95049 17.75H18.8255C19.0755 17.75 19.2838 17.6667 19.4505 17.5C19.6172 17.3167 19.7005 17.0917 19.7005 16.825V7.175C19.7005 6.90833 19.6172 6.69167 19.4505 6.525C19.2838 6.34167 19.0755 6.25 18.8255 6.25H5.17549C4.92549 6.25 4.71716 6.34167 4.55049 6.525C4.38382 6.69167 4.30049 6.90833 4.30049 7.175V21.275L2.95049 20.35ZM13.3255 7.875L13.1005 12.3H10.9005L10.6505 7.875H13.3255ZM12.0005 13.25C12.4338 13.25 12.7838 13.3917 13.0505 13.675C13.3172 13.9417 13.4505 14.2833 13.4505 14.7C13.4505 15.1167 13.3172 15.4583 13.0505 15.725C12.7838 15.975 12.4338 16.1 12.0005 16.1C11.5672 16.1 11.2172 15.975 10.9505 15.725C10.6838 15.4583 10.5505 15.1167 10.5505 14.7C10.5505 14.2833 10.6838 13.9417 10.9505 13.675C11.2172 13.3917 11.5672 13.25 12.0005 13.25Z" fill="black"/>
</g>
<defs>
<clipPath id="clip0_3192_1320">
<rect width="24" height="24" fill="white"/>
</clipPath>
</defs>
</svg>
