<svg width="24" height="24" viewBox="0 0 24 24" fill="none" xmlns="http://www.w3.org/2000/svg">
<g clip-path="url(#clip0_3192_1634)">
<rect width="24" height="24" fill="white"/>
<path d="M2.00049 7.325C2.00049 6.725 2.14216 6.16667 2.42549 5.65C2.72549 5.13333 3.13382 4.73333 3.65049 4.45C4.16716 4.15 4.72549 4 5.32549 4H18.6755C19.2755 4 19.8338 4.15 20.3505 4.45C20.8672 4.73333 21.2672 5.13333 21.5505 5.65C21.8505 6.16667 22.0005 6.725 22.0005 7.325V16.675C22.0005 17.275 21.8505 17.8333 21.5505 18.35C21.2672 18.8667 20.8672 19.275 20.3505 19.575C19.8338 19.8583 19.2755 20 18.6755 20H6.20049L2.00049 23.525V7.325ZM2.97549 18.425L4.30049 17.2H18.6255C18.7755 17.2 18.9005 17.15 19.0005 17.05C19.1005 16.9333 19.1505 16.8 19.1505 16.65V7.35C19.1505 7.2 19.1005 7.075 19.0005 6.975C18.9005 6.85833 18.7755 6.8 18.6255 6.8H5.37549C5.22549 6.8 5.10049 6.85833 5.00049 6.975C4.90049 7.075 4.85049 7.2 4.85049 7.35V18.425H2.97549ZM12.8005 15.625L11.1505 13.975H9.95049C9.70049 13.975 9.48382 13.8833 9.30049 13.7C9.13382 13.5167 9.05049 13.3 9.05049 13.05V10.925C9.05049 10.675 9.13382 10.4667 9.30049 10.3C9.48382 10.1167 9.70049 10.025 9.95049 10.025H11.1505L12.8005 8.375H14.2755V15.625H12.8005ZM10.5505 12C10.5338 12 10.5255 12 10.5255 12C10.5255 12 10.5172 12 10.5005 12C10.5172 12 10.5255 12 10.5255 12C10.5255 12 10.5338 12 10.5505 12H11.7255H13.2755H12.6755H13.3005H11.7255H10.5505Z" fill="black"/>
</g>
<defs>
<clipPath id="clip0_3192_1634">
<rect width="24" height="24" fill="white"/>
</clipPath>
</defs>
</svg>
