<svg width="24" height="24" viewBox="0 0 24 24" fill="none" xmlns="http://www.w3.org/2000/svg">
<g clip-path="url(#clip0_3192_1478)">
<rect width="24" height="24" fill="white"/>
<path d="M2.00049 7.325C2.00049 6.725 2.14216 6.16667 2.42549 5.65C2.72549 5.13333 3.13382 4.73333 3.65049 4.45C4.16716 4.15 4.72549 4 5.32549 4H18.6755C19.2755 4 19.8338 4.15 20.3505 4.45C20.8672 4.73333 21.2672 5.13333 21.5505 5.65C21.8505 6.16667 22.0005 6.725 22.0005 7.325V16.675C22.0005 17.275 21.8505 17.8333 21.5505 18.35C21.2672 18.8667 20.8672 19.275 20.3505 19.575C19.8338 19.8583 19.2755 20 18.6755 20H6.20049L2.00049 23.525V7.325ZM2.97549 18.425L4.30049 17.225H18.6505C18.8005 17.225 18.9255 17.175 19.0255 17.075C19.1255 16.9583 19.1755 16.8167 19.1755 16.65V7.35C19.1755 7.18333 19.1255 7.05 19.0255 6.95C18.9255 6.83333 18.8005 6.775 18.6505 6.775H5.35049C5.20049 6.775 5.07549 6.83333 4.97549 6.95C4.87549 7.05 4.82549 7.18333 4.82549 7.35V18.425H2.97549ZM10.6505 12.675H16.7505V15.275H10.6505V12.675ZM8.27549 11.55C7.84216 11.55 7.46716 11.4 7.15049 11.1C6.85049 10.7833 6.70049 10.4 6.70049 9.95C6.70049 9.51667 6.85049 9.15 7.15049 8.85C7.46716 8.53333 7.84216 8.375 8.27549 8.375C8.72549 8.375 9.10049 8.53333 9.40049 8.85C9.71716 9.15 9.87549 9.51667 9.87549 9.95C9.87549 10.4 9.71716 10.7833 9.40049 11.1C9.10049 11.4 8.72549 11.55 8.27549 11.55ZM8.27549 15.55C7.84216 15.55 7.46716 15.4 7.15049 15.1C6.85049 14.8 6.70049 14.425 6.70049 13.975C6.70049 13.525 6.85049 13.15 7.15049 12.85C7.46716 12.55 7.84216 12.4 8.27549 12.4C8.72549 12.4 9.10049 12.55 9.40049 12.85C9.71716 13.15 9.87549 13.525 9.87549 13.975C9.87549 14.425 9.71716 14.8 9.40049 15.1C9.10049 15.4 8.72549 15.55 8.27549 15.55ZM10.6505 8.65H16.7505V11.275H10.6505V8.65Z" fill="black"/>
</g>
<defs>
<clipPath id="clip0_3192_1478">
<rect width="24" height="24" fill="white"/>
</clipPath>
</defs>
</svg>
