<svg width="24" height="24" viewBox="0 0 24 24" fill="none" xmlns="http://www.w3.org/2000/svg">
<g clip-path="url(#clip0_3192_1143)">
<rect width="24" height="24" fill="white"/>
<path d="M2.00049 6.5C2.00049 6.03333 2.10882 5.61667 2.32549 5.25C2.55882 4.86667 2.85882 4.56667 3.22549 4.35C3.60882 4.11667 4.03382 4 4.50049 4H19.5005C19.9672 4 20.3838 4.11667 20.7505 4.35C21.1338 4.56667 21.4338 4.86667 21.6505 5.25C21.8838 5.61667 22.0005 6.03333 22.0005 6.5V17.5C22.0005 17.9667 21.8838 18.3917 21.6505 18.775C21.4338 19.1417 21.1338 19.4417 20.7505 19.675C20.3838 19.8917 19.9672 20 19.5005 20H6.80049L2.00049 24.025V6.5ZM2.40049 23.05L6.62549 19.525H19.5005C20.0672 19.525 20.5422 19.3333 20.9255 18.95C21.3088 18.55 21.5005 18.0667 21.5005 17.5V6.5C21.5005 5.93333 21.3088 5.45833 20.9255 5.075C20.5422 4.675 20.0672 4.475 19.5005 4.475H4.50049C3.93382 4.475 3.45882 4.675 3.07549 5.075C2.69216 5.45833 2.50049 5.93333 2.50049 6.5V23.2L2.40049 23.05ZM12.3005 7.8L12.2255 13.5H11.7755L11.7005 7.8H12.3005ZM12.0005 15.175C12.1338 15.175 12.2505 15.225 12.3505 15.325C12.4505 15.425 12.5005 15.55 12.5005 15.7C12.5005 15.8333 12.4505 15.95 12.3505 16.05C12.2505 16.1333 12.1338 16.175 12.0005 16.175C11.8505 16.175 11.7255 16.1333 11.6255 16.05C11.5422 15.95 11.5005 15.8333 11.5005 15.7C11.5005 15.55 11.5422 15.425 11.6255 15.325C11.7255 15.225 11.8505 15.175 12.0005 15.175Z" fill="black"/>
</g>
<defs>
<clipPath id="clip0_3192_1143">
<rect width="24" height="24" fill="white"/>
</clipPath>
</defs>
</svg>
