<svg width="24" height="24" viewBox="0 0 24 24" fill="none" xmlns="http://www.w3.org/2000/svg">
<g clip-path="url(#clip0_3192_1480)">
<rect width="24" height="24" fill="white"/>
<path d="M2.00049 7.5C2.00049 6.85 2.15049 6.25833 2.45049 5.725C2.76716 5.19167 3.19216 4.775 3.72549 4.475C4.27549 4.15833 4.86716 4 5.50049 4H18.5005C19.1505 4 19.7422 4.15833 20.2755 4.475C20.8088 4.775 21.2255 5.19167 21.5255 5.725C21.8422 6.25833 22.0005 6.85 22.0005 7.5V16.5C22.0005 17.1333 21.8422 17.725 21.5255 18.275C21.2255 18.8083 20.8088 19.2333 20.2755 19.55C19.7422 19.85 19.1505 20 18.5005 20H6.80049L2.00049 24.025V7.5ZM2.70049 17.975L4.67549 16.5H18.3755C18.3922 16.5 18.4088 16.4917 18.4255 16.475C18.4422 16.4583 18.4505 16.4417 18.4505 16.425V7.575C18.4505 7.55833 18.4422 7.54167 18.4255 7.525C18.4088 7.50833 18.3922 7.5 18.3755 7.5H5.62549C5.60882 7.5 5.59216 7.50833 5.57549 7.525C5.55882 7.54167 5.55049 7.55833 5.55049 7.575V17.975H2.70049ZM11.2755 12.45H16.2505V15.525H11.2755V12.45ZM8.97549 11.7C8.49216 11.7 8.07549 11.5333 7.72549 11.2C7.39216 10.85 7.22549 10.4333 7.22549 9.95C7.22549 9.46667 7.39216 9.05833 7.72549 8.725C8.07549 8.375 8.49216 8.2 8.97549 8.2C9.45882 8.2 9.86716 8.375 10.2005 8.725C10.5505 9.05833 10.7255 9.46667 10.7255 9.95C10.7255 10.4333 10.5505 10.85 10.2005 11.2C9.86716 11.5333 9.45882 11.7 8.97549 11.7ZM8.97549 15.725C8.49216 15.725 8.07549 15.5583 7.72549 15.225C7.39216 14.875 7.22549 14.4583 7.22549 13.975C7.22549 13.4917 7.39216 13.0833 7.72549 12.75C8.07549 12.4 8.49216 12.225 8.97549 12.225C9.45882 12.225 9.86716 12.4 10.2005 12.75C10.5505 13.0833 10.7255 13.4917 10.7255 13.975C10.7255 14.4583 10.5505 14.875 10.2005 15.225C9.86716 15.5583 9.45882 15.725 8.97549 15.725ZM11.2755 8.4H16.2505V11.475H11.2755V8.4Z" fill="black"/>
</g>
<defs>
<clipPath id="clip0_3192_1480">
<rect width="24" height="24" fill="white"/>
</clipPath>
</defs>
</svg>
