<svg width="24" height="24" viewBox="0 0 24 24" fill="none" xmlns="http://www.w3.org/2000/svg">
<g clip-path="url(#clip0_3191_41030)">
<rect width="24" height="24" fill="white"/>
<path d="M5.30049 14.525C4.93382 13.0083 4.90882 11.7 5.22549 10.6C5.55882 9.48333 6.25882 8.65833 7.32549 8.125L7.37549 8.1V2H16.6255V8.1L16.6755 8.125C17.7255 8.64167 18.4172 9.45 18.7505 10.55C19.1005 11.65 19.0838 12.975 18.7005 14.525L16.8505 22H7.15049L5.30049 14.525ZM14.1005 18.55L15.2755 13.75L15.3755 13.375C15.5588 12.675 15.6338 12.1667 15.6005 11.85C15.5838 11.5167 15.3672 11.2333 14.9505 11L13.3255 10.1V5.25H10.6755V10.1L9.02549 11C8.62549 11.2167 8.40882 11.4833 8.37549 11.8C8.35882 12.1167 8.43382 12.6 8.60049 13.25C8.65049 13.4167 8.69216 13.5833 8.72549 13.75L9.90049 18.55H14.1005ZM16.4755 11.9H17.2005C17.6838 11.9 18.1172 11.7917 18.5005 11.575C18.8838 11.3583 19.1755 11.0583 19.3755 10.675C19.5922 10.2917 19.7005 9.85833 19.7005 9.375C19.7005 8.89167 19.5922 8.45833 19.3755 8.075C19.1755 7.69167 18.8838 7.4 18.5005 7.2C18.1172 6.98333 17.6838 6.875 17.2005 6.875H15.0005V3.725H17.2005C18.2672 3.725 19.2338 3.975 20.1005 4.475C20.9672 4.95833 21.6505 5.63333 22.1505 6.5C22.6505 7.35 22.9005 8.30833 22.9005 9.375C22.9005 10.4417 22.6505 11.4083 22.1505 12.275C21.6505 13.125 20.9672 13.8 20.1005 14.3C19.2338 14.8 18.2672 15.05 17.2005 15.05H16.4755V11.9ZM7.52549 15.05H6.80049C5.73382 15.05 4.76716 14.8 3.90049 14.3C3.03382 13.8 2.35049 13.125 1.85049 12.275C1.35049 11.4083 1.10049 10.4417 1.10049 9.375C1.10049 8.30833 1.35049 7.35 1.85049 6.5C2.35049 5.63333 3.03382 4.95833 3.90049 4.475C4.76716 3.975 5.73382 3.725 6.80049 3.725H9.00049V6.875H6.80049C6.31716 6.875 5.88382 6.98333 5.50049 7.2C5.11716 7.4 4.81716 7.69167 4.60049 8.075C4.40049 8.45833 4.30049 8.89167 4.30049 9.375C4.30049 9.85833 4.40049 10.2917 4.60049 10.675C4.81716 11.0583 5.11716 11.3583 5.50049 11.575C5.88382 11.7917 6.31716 11.9 6.80049 11.9H7.52549V15.05Z" fill="black"/>
</g>
<defs>
<clipPath id="clip0_3191_41030">
<rect width="24" height="24" fill="white"/>
</clipPath>
</defs>
</svg>
