<svg width="24" height="24" viewBox="0 0 24 24" fill="none" xmlns="http://www.w3.org/2000/svg">
<g clip-path="url(#clip0_3191_41032)">
<rect width="24" height="24" fill="white"/>
<path d="M4.95 13.6C4.53333 12.25 4.49167 11.075 4.825 10.075C5.175 9.075 5.91667 8.33333 7.05 7.85L8.625 7.175V2H15.375V7.175L16.95 7.85C18.0833 8.33333 18.8167 9.075 19.15 10.075C19.5 11.075 19.4667 12.25 19.05 13.6L16.4 22H7.6L4.95 13.6ZM18.65 13.225H18.725C19.275 13.225 19.8333 13.0167 20.4 12.6C20.9833 12.1833 21.4583 11.625 21.825 10.925C22.2083 10.2083 22.4 9.43333 22.4 8.6C22.4 7.75 22.1917 6.975 21.775 6.275C21.375 5.55833 20.8167 5 20.1 4.6C19.4 4.18333 18.625 3.975 17.775 3.975H15.125V3.5H17.775C18.725 3.5 19.5917 3.725 20.375 4.175C21.1583 4.625 21.775 5.24167 22.225 6.025C22.675 6.80833 22.9 7.66667 22.9 8.6C22.9 9.51667 22.6917 10.3667 22.275 11.15C21.8583 11.9333 21.325 12.5583 20.675 13.025C20.025 13.475 19.375 13.7 18.725 13.7H18.65V13.225ZM5.325 13.7H5.25C4.61667 13.7 3.975 13.475 3.325 13.025C2.675 12.5583 2.14167 11.9333 1.725 11.15C1.30833 10.3667 1.1 9.51667 1.1 8.6C1.1 7.66667 1.325 6.80833 1.775 6.025C2.225 5.24167 2.84167 4.625 3.625 4.175C4.40833 3.725 5.275 3.5 6.225 3.5H8.875V3.975H6.225C5.375 3.975 4.59167 4.18333 3.875 4.6C3.175 5 2.61667 5.55833 2.2 6.275C1.8 6.975 1.6 7.75 1.6 8.6C1.6 9.43333 1.78333 10.2083 2.15 10.925C2.53333 11.625 3.00833 12.1833 3.575 12.6C4.14167 13.0167 4.7 13.225 5.25 13.225H5.325V13.7Z" fill="black"/>
</g>
<defs>
<clipPath id="clip0_3191_41032">
<rect width="24" height="24" fill="white"/>
</clipPath>
</defs>
</svg>
