<svg width="24" height="24" viewBox="0 0 24 24" fill="none" xmlns="http://www.w3.org/2000/svg">
<g clip-path="url(#clip0_3354_2493)">
<rect width="24" height="24" fill="white"/>
<path d="M5.1 14.1C4.66667 12.7333 4.6 11.55 4.9 10.55C5.21667 9.55 5.93333 8.81667 7.05 8.35L8.625 7.675V2H15.375V7.675L16.95 8.35C18.0667 8.81667 18.775 9.55 19.075 10.55C19.3917 11.55 19.3333 12.7333 18.9 14.1L16.4 22H7.6L5.1 14.1ZM15.25 11.95H18.025C18.5917 11.95 19.1083 11.8167 19.575 11.55C20.0417 11.2667 20.4083 10.8917 20.675 10.425C20.9583 9.94167 21.1 9.41667 21.1 8.85C21.1 8.28333 20.9583 7.775 20.675 7.325C20.4083 6.85833 20.0417 6.49167 19.575 6.225C19.1083 5.94167 18.5917 5.8 18.025 5.8H12.975V4.05H18.025C18.9083 4.05 19.725 4.26667 20.475 4.7C21.225 5.11667 21.8167 5.69167 22.25 6.425C22.6833 7.15833 22.9 7.96667 22.9 8.85C22.9 9.75 22.675 10.575 22.225 11.325C21.7917 12.0583 21.2 12.6417 20.45 13.075C19.7 13.4917 18.8917 13.7 18.025 13.7H15.25V11.95ZM8.75 13.7H5.975C5.10833 13.7 4.3 13.4917 3.55 13.075C2.8 12.6417 2.2 12.0583 1.75 11.325C1.31667 10.575 1.1 9.75 1.1 8.85C1.1 7.96667 1.31667 7.15833 1.75 6.425C2.18333 5.69167 2.775 5.11667 3.525 4.7C4.275 4.26667 5.09167 4.05 5.975 4.05H11V5.8H5.975C5.40833 5.8 4.89167 5.94167 4.425 6.225C3.95833 6.49167 3.58333 6.85833 3.3 7.325C3.03333 7.775 2.9 8.28333 2.9 8.85C2.9 9.41667 3.03333 9.94167 3.3 10.425C3.58333 10.8917 3.95833 11.2667 4.425 11.55C4.89167 11.8167 5.40833 11.95 5.975 11.95H8.75V13.7Z" fill="black"/>
</g>
<defs>
<clipPath id="clip0_3354_2493">
<rect width="24" height="24" fill="white"/>
</clipPath>
</defs>
</svg>
