<svg width="24" height="24" viewBox="0 0 24 24" fill="none" xmlns="http://www.w3.org/2000/svg">
<g clip-path="url(#clip0_3379_7280)">
<rect width="24" height="24" fill="white"/>
<path d="M5.175 14.35C4.75833 13.0167 4.725 11.85 5.075 10.85C5.425 9.83333 6.16667 9.08333 7.3 8.6L8.625 7.925V2H15.375V7.925L16.7 8.6C17.8333 9.08333 18.575 9.83333 18.925 10.85C19.275 11.85 19.2417 13.0167 18.825 14.35L16.4 22H7.6L5.175 14.35ZM16.475 11.9H17.2C17.6833 11.9 18.1167 11.7917 18.5 11.575C18.8833 11.3583 19.175 11.0583 19.375 10.675C19.5917 10.2917 19.7 9.85833 19.7 9.375C19.7 8.89167 19.5917 8.45833 19.375 8.075C19.175 7.69167 18.8833 7.4 18.5 7.2C18.1167 6.98333 17.6833 6.875 17.2 6.875H15V3.725H17.2C18.2667 3.725 19.2333 3.975 20.1 4.475C20.9667 4.95833 21.65 5.63333 22.15 6.5C22.65 7.35 22.9 8.30833 22.9 9.375C22.9 10.4417 22.65 11.4083 22.15 12.275C21.65 13.125 20.9667 13.8 20.1 14.3C19.2333 14.8 18.2667 15.05 17.2 15.05H16.475V11.9ZM7.525 15.05H6.8C5.73333 15.05 4.76667 14.8 3.9 14.3C3.03333 13.8 2.35 13.125 1.85 12.275C1.35 11.4083 1.1 10.4417 1.1 9.375C1.1 8.30833 1.35 7.35 1.85 6.5C2.35 5.63333 3.03333 4.95833 3.9 4.475C4.76667 3.975 5.73333 3.725 6.8 3.725H9V6.875H6.8C6.31667 6.875 5.88333 6.98333 5.5 7.2C5.11667 7.4 4.81667 7.69167 4.6 8.075C4.4 8.45833 4.3 8.89167 4.3 9.375C4.3 9.85833 4.4 10.2917 4.6 10.675C4.81667 11.0583 5.11667 11.3583 5.5 11.575C5.88333 11.7917 6.31667 11.9 6.8 11.9H7.525V15.05Z" fill="black"/>
</g>
<defs>
<clipPath id="clip0_3379_7280">
<rect width="24" height="24" fill="white"/>
</clipPath>
</defs>
</svg>
