<svg width="24" height="24" viewBox="0 0 24 24" fill="none" xmlns="http://www.w3.org/2000/svg">
<g clip-path="url(#clip0_3354_2497)">
<rect width="24" height="24" fill="white"/>
<path d="M5.15 14.275C4.73333 12.925 4.69167 11.75 5.025 10.75C5.35833 9.73333 6.09167 8.99167 7.225 8.525L8.625 7.85V2H15.375V7.85L16.775 8.525C17.9083 8.99167 18.6417 9.73333 18.975 10.75C19.3083 11.75 19.2667 12.925 18.85 14.275L16.4 22H7.6L5.15 14.275ZM16.075 11.925H17.475C17.9917 11.925 18.45 11.8083 18.85 11.575C19.2667 11.325 19.5917 11 19.825 10.6C20.0583 10.1833 20.175 9.71667 20.175 9.2C20.175 8.68333 20.0583 8.225 19.825 7.825C19.5917 7.40833 19.2667 7.09167 18.85 6.875C18.45 6.64167 17.9917 6.525 17.475 6.525H14.325V3.825H17.475C18.475 3.825 19.3917 4.06667 20.225 4.55C21.0583 5.01667 21.7083 5.65833 22.175 6.475C22.6583 7.29167 22.9 8.2 22.9 9.2C22.9 10.2167 22.6583 11.1333 22.175 11.95C21.6917 12.7667 21.0333 13.4167 20.2 13.9C19.3833 14.3667 18.475 14.6 17.475 14.6H16.075V11.925ZM7.925 14.6H6.525C5.525 14.6 4.60833 14.3667 3.775 13.9C2.95833 13.4167 2.30833 12.7667 1.825 11.95C1.34167 11.1333 1.1 10.2167 1.1 9.2C1.1 8.2 1.33333 7.29167 1.8 6.475C2.28333 5.65833 2.94167 5.01667 3.775 4.55C4.60833 4.06667 5.525 3.825 6.525 3.825H9.675V6.525H6.525C6.00833 6.525 5.54167 6.64167 5.125 6.875C4.725 7.09167 4.40833 7.40833 4.175 7.825C3.94167 8.225 3.825 8.68333 3.825 9.2C3.825 9.71667 3.94167 10.1833 4.175 10.6C4.40833 11 4.725 11.325 5.125 11.575C5.54167 11.8083 6.00833 11.925 6.525 11.925H7.925V14.6Z" fill="black"/>
</g>
<defs>
<clipPath id="clip0_3354_2497">
<rect width="24" height="24" fill="white"/>
</clipPath>
</defs>
</svg>
