<svg width="24" height="24" viewBox="0 0 24 24" fill="none" xmlns="http://www.w3.org/2000/svg">
<g clip-path="url(#clip0_3379_7262)">
<rect width="24" height="24" fill="white"/>
<path d="M5.15049 14.3C4.73382 12.6833 4.73382 11.3333 5.15049 10.25C5.56716 9.15 6.43382 8.275 7.75049 7.625L7.80049 7.6V2H16.2005V7.6L16.2505 7.625C17.5672 8.275 18.4338 9.13333 18.8505 10.2C19.2672 11.2667 19.2588 12.6333 18.8255 14.3L16.8255 22H7.15049L5.15049 14.3ZM14.9255 19.625L16.4755 13.675L16.6005 13.15C16.8005 12.2667 16.8005 11.5583 16.6005 11.025C16.4005 10.475 15.8922 10.025 15.0755 9.675L13.8505 9.075V4.325H10.1505V9.075L8.92549 9.675C8.15882 10.0083 7.66716 10.4417 7.45049 10.975C7.23382 11.4917 7.20049 12.1667 7.35049 13C7.41716 13.2167 7.46716 13.4417 7.50049 13.675L9.05049 19.625H14.9255ZM17.3255 11.925H17.7505C18.2838 11.925 18.7672 11.8 19.2005 11.55C19.6505 11.3 20.0005 10.95 20.2505 10.5C20.5005 10.05 20.6255 9.55833 20.6255 9.025C20.6255 8.49167 20.5005 8.00833 20.2505 7.575C20.0005 7.14167 19.6505 6.8 19.2005 6.55C18.7672 6.28333 18.2838 6.15 17.7505 6.15H15.3255V3.95H17.7505C18.7005 3.95 19.5672 4.175 20.3505 4.625C21.1338 5.05833 21.7505 5.66667 22.2005 6.45C22.6672 7.21667 22.9005 8.075 22.9005 9.025C22.9005 9.975 22.6672 10.8417 22.2005 11.625C21.7505 12.4083 21.1255 13.025 20.3255 13.475C19.5422 13.925 18.6838 14.15 17.7505 14.15H17.3255V11.925ZM6.67549 14.15H6.25049C5.31716 14.15 4.45049 13.925 3.65049 13.475C2.86716 13.025 2.24216 12.4083 1.77549 11.625C1.32549 10.8417 1.10049 9.975 1.10049 9.025C1.10049 8.075 1.32549 7.21667 1.77549 6.45C2.24216 5.66667 2.86716 5.05833 3.65049 4.625C4.43382 4.175 5.30049 3.95 6.25049 3.95H8.67549V6.15H6.25049C5.71716 6.15 5.22549 6.28333 4.77549 6.55C4.34216 6.8 4.00049 7.14167 3.75049 7.575C3.50049 8.00833 3.37549 8.49167 3.37549 9.025C3.37549 9.55833 3.50049 10.05 3.75049 10.5C4.00049 10.95 4.34216 11.3 4.77549 11.55C5.22549 11.8 5.71716 11.925 6.25049 11.925H6.67549V14.15Z" fill="black"/>
</g>
<defs>
<clipPath id="clip0_3379_7262">
<rect width="24" height="24" fill="white"/>
</clipPath>
</defs>
</svg>
