<svg width="24" height="24" viewBox="0 0 24 24" fill="none" xmlns="http://www.w3.org/2000/svg">
<g clip-path="url(#clip0_3191_41815)">
<rect width="24" height="24" fill="white"/>
<path d="M1.00049 5H4.30049C4.65049 6.1 5.03382 6.89167 5.45049 7.375C5.88382 7.85833 6.41716 8.1 7.05049 8.1C7.58382 8.1 8.03382 7.93333 8.40049 7.6C8.76716 7.26667 9.09216 6.73333 9.37549 6C9.65882 5.26667 9.93382 4.26667 10.2005 3H13.8005C14.1005 4.35 14.3755 5.375 14.6255 6.075C14.8922 6.775 15.2005 7.29167 15.5505 7.625C15.9005 7.94167 16.3672 8.1 16.9505 8.1C17.6172 8.1 18.1338 7.875 18.5005 7.425C18.8838 6.975 19.2838 6.16667 19.7005 5H23.0005L21.7255 20H2.27549L1.00049 5ZM18.5505 16.5L19.1505 8.7L22.0255 6.325C21.7588 7.44167 21.3338 8.39167 20.7505 9.175C20.1672 9.94167 19.5088 10.525 18.7755 10.925C18.0588 11.3083 17.3588 11.5 16.6755 11.5C15.6922 11.5 14.8255 11.2667 14.0755 10.8C13.3422 10.3333 12.7422 9.675 12.2755 8.825C11.8255 7.95833 11.5005 6.95 11.3005 5.8H12.7255C12.5255 6.95 12.1922 7.95833 11.7255 8.825C11.2588 9.675 10.6505 10.3333 9.90049 10.8C9.16716 11.2667 8.30882 11.5 7.32549 11.5C6.55882 11.5 5.81716 11.3083 5.10049 10.925C4.40049 10.5417 3.76716 9.95833 3.20049 9.175C2.65049 8.39167 2.24216 7.44167 1.97549 6.325L4.90049 9.2L5.45049 16.5H18.5505Z" fill="black"/>
</g>
<defs>
<clipPath id="clip0_3191_41815">
<rect width="24" height="24" fill="white"/>
</clipPath>
</defs>
</svg>
