<svg width="24" height="24" viewBox="0 0 24 24" fill="none" xmlns="http://www.w3.org/2000/svg">
<g clip-path="url(#clip0_3191_41813)">
<rect width="24" height="24" fill="white"/>
<path d="M1.00049 5H4.30049C4.71716 6.18333 5.15049 7.06667 5.60049 7.65C6.05049 8.21667 6.57549 8.5 7.17549 8.5C7.69216 8.5 8.13382 8.3 8.50049 7.9C8.88382 7.5 9.20882 6.91667 9.47549 6.15C9.74216 5.38333 10.0172 4.33333 10.3005 3H13.7005C14.0172 4.38333 14.2922 5.45 14.5255 6.2C14.7755 6.95 15.0838 7.525 15.4505 7.925C15.8172 8.30833 16.2755 8.5 16.8255 8.5C17.4422 8.5 17.9588 8.225 18.3755 7.675C18.8088 7.10833 19.2505 6.21667 19.7005 5H23.0005L21.7255 20H2.27549L1.00049 5ZM18.9255 16.975L19.6755 7.7L21.7255 6.525C21.3922 7.625 20.9588 8.55 20.4255 9.3C19.8922 10.0333 19.2922 10.5833 18.6255 10.95C17.9588 11.3 17.2838 11.475 16.6005 11.475C15.6005 11.475 14.7505 11.225 14.0505 10.725C13.3672 10.2083 12.8172 9.50833 12.4005 8.625C11.9838 7.74167 11.6672 6.675 11.4505 5.425H12.5505C12.3338 6.675 12.0172 7.74167 11.6005 8.625C11.1838 9.50833 10.6255 10.2083 9.92549 10.725C9.24216 11.225 8.40049 11.475 7.40049 11.475C6.66716 11.475 5.96716 11.3 5.30049 10.95C4.65049 10.5833 4.06716 10.0333 3.55049 9.3C3.03382 8.56667 2.60882 7.64167 2.27549 6.525L4.35049 8.025L5.07549 16.975H18.9255Z" fill="black"/>
</g>
<defs>
<clipPath id="clip0_3191_41813">
<rect width="24" height="24" fill="white"/>
</clipPath>
</defs>
</svg>
