<svg width="24" height="24" viewBox="0 0 24 24" fill="none" xmlns="http://www.w3.org/2000/svg">
<g clip-path="url(#clip0_3191_41440)">
<rect width="24" height="24" fill="white"/>
<path d="M18.7505 18.975C17.7172 18.975 16.8005 18.7167 16.0005 18.2C15.2172 17.6833 14.5922 16.9083 14.1255 15.875C13.6755 14.825 13.4505 13.5333 13.4505 12C13.4505 10.4667 13.6755 9.175 14.1255 8.125C14.5922 7.075 15.2255 6.29167 16.0255 5.775C16.8255 5.25833 17.7338 5 18.7505 5C19.7338 5 20.6172 5.25833 21.4005 5.775C22.2005 6.275 22.8338 7.05 23.3005 8.1C23.7672 9.15 24.0005 10.45 24.0005 12C24.0005 13.5167 23.7755 14.8 23.3255 15.85C22.8755 16.9 22.2505 17.6833 21.4505 18.2C20.6672 18.7167 19.7672 18.975 18.7505 18.975ZM18.7505 17.175C19.8338 17.175 20.6672 16.7333 21.2505 15.85C21.8505 14.95 22.1505 13.6667 22.1505 12C22.1505 10.3333 21.8505 9.05 21.2505 8.15C20.6672 7.25 19.8338 6.8 18.7505 6.8C17.6338 6.8 16.7755 7.25 16.1755 8.15C15.5922 9.05 15.3005 10.3333 15.3005 12C15.3005 13.6667 15.5922 14.95 16.1755 15.85C16.7755 16.7333 17.6338 17.175 18.7505 17.175ZM8.85049 10.7C9.25049 10.2833 9.72549 9.95833 10.2755 9.725C10.8255 9.49167 11.4005 9.375 12.0005 9.375C12.6005 9.375 13.1755 9.49167 13.7255 9.725C14.2755 9.95833 14.7505 10.2833 15.1505 10.7L13.8005 11.95C13.3005 11.4333 12.7005 11.175 12.0005 11.175C11.3005 11.175 10.7005 11.4333 10.2005 11.95L8.85049 10.7ZM5.30049 18.975C4.26716 18.975 3.35049 18.7167 2.55049 18.2C1.76716 17.6833 1.14216 16.9083 0.675488 15.875C0.225488 14.825 0.000488281 13.5333 0.000488281 12C0.000488281 10.4667 0.225488 9.175 0.675488 8.125C1.14216 7.075 1.77549 6.29167 2.57549 5.775C3.37549 5.25833 4.28382 5 5.30049 5C6.28382 5 7.16716 5.25833 7.95049 5.775C8.75049 6.275 9.38382 7.05 9.85049 8.1C10.3172 9.15 10.5505 10.45 10.5505 12C10.5505 13.5167 10.3255 14.8 9.87549 15.85C9.42549 16.9 8.80049 17.6833 8.00049 18.2C7.21716 18.7167 6.31716 18.975 5.30049 18.975ZM5.30049 17.175C6.38382 17.175 7.21716 16.7333 7.80049 15.85C8.40049 14.95 8.70049 13.6667 8.70049 12C8.70049 10.3333 8.40049 9.05 7.80049 8.15C7.21716 7.25 6.38382 6.8 5.30049 6.8C4.18382 6.8 3.32549 7.25 2.72549 8.15C2.14216 9.05 1.85049 10.3333 1.85049 12C1.85049 13.6667 2.14216 14.95 2.72549 15.85C3.32549 16.7333 4.18382 17.175 5.30049 17.175Z" fill="black"/>
</g>
<defs>
<clipPath id="clip0_3191_41440">
<rect width="24" height="24" fill="white"/>
</clipPath>
</defs>
</svg>
