<svg width="24" height="24" viewBox="0 0 24 24" fill="none" xmlns="http://www.w3.org/2000/svg">
<g clip-path="url(#clip0_3191_41436)">
<rect width="24" height="24" fill="white"/>
<path d="M18.7755 18.975C17.7088 18.975 16.7755 18.7 15.9755 18.15C15.1922 17.5833 14.5838 16.7833 14.1505 15.75C13.7172 14.7 13.5005 13.45 13.5005 12C13.5005 10.55 13.7172 9.3 14.1505 8.25C14.5838 7.2 15.1922 6.4 15.9755 5.85C16.7755 5.28333 17.7088 5 18.7755 5C19.8088 5 20.7172 5.275 21.5005 5.825C22.2838 6.375 22.8922 7.18333 23.3255 8.25C23.7755 9.3 24.0005 10.55 24.0005 12C24.0005 13.4333 23.7838 14.675 23.3505 15.725C22.9172 16.775 22.3088 17.5833 21.5255 18.15C20.7422 18.7 19.8255 18.975 18.7755 18.975ZM18.7755 18.05C20.0922 18.05 21.1338 17.5167 21.9005 16.45C22.6672 15.3667 23.0505 13.8833 23.0505 12C23.0505 10.1 22.6672 8.61667 21.9005 7.55C21.1338 6.46667 20.0922 5.925 18.7755 5.925C17.4255 5.925 16.3672 6.46667 15.6005 7.55C14.8338 8.61667 14.4505 10.1 14.4505 12C14.4505 13.8833 14.8338 15.3667 15.6005 16.45C16.3672 17.5167 17.4255 18.05 18.7755 18.05ZM9.60049 10.9C9.90049 10.5833 10.2588 10.3417 10.6755 10.175C11.1088 9.99167 11.5505 9.9 12.0005 9.9C12.4505 9.9 12.8838 9.99167 13.3005 10.175C13.7338 10.3417 14.1005 10.5833 14.4005 10.9L13.7255 11.55C13.2588 11.0833 12.6838 10.85 12.0005 10.85C11.3172 10.85 10.7422 11.0833 10.2755 11.55L9.60049 10.9ZM5.27549 18.975C4.20882 18.975 3.27549 18.7 2.47549 18.15C1.69216 17.5833 1.08382 16.7833 0.650488 15.75C0.217155 14.7 0.000488281 13.45 0.000488281 12C0.000488281 10.55 0.217155 9.3 0.650488 8.25C1.08382 7.2 1.70049 6.4 2.50049 5.85C3.30049 5.28333 4.22549 5 5.27549 5C6.30882 5 7.21716 5.275 8.00049 5.825C8.80049 6.375 9.41716 7.175 9.85049 8.225C10.2838 9.275 10.5005 10.5333 10.5005 12C10.5005 13.4333 10.2838 14.675 9.85049 15.725C9.43382 16.775 8.82549 17.5833 8.02549 18.15C7.24216 18.7 6.32549 18.975 5.27549 18.975ZM5.27549 18.05C6.60882 18.05 7.65049 17.5167 8.40049 16.45C9.16716 15.3667 9.55049 13.8833 9.55049 12C9.55049 10.1 9.16716 8.61667 8.40049 7.55C7.65049 6.46667 6.60882 5.925 5.27549 5.925C3.92549 5.925 2.86716 6.46667 2.10049 7.55C1.33382 8.61667 0.950488 10.1 0.950488 12C0.950488 13.8833 1.33382 15.3667 2.10049 16.45C2.86716 17.5167 3.92549 18.05 5.27549 18.05Z" fill="black"/>
</g>
<defs>
<clipPath id="clip0_3191_41436">
<rect width="24" height="24" fill="white"/>
</clipPath>
</defs>
</svg>
