<svg width="24" height="24" viewBox="0 0 24 24" fill="none" xmlns="http://www.w3.org/2000/svg">
<g clip-path="url(#clip0_3191_41438)">
<rect width="24" height="24" fill="white"/>
<path d="M18.7505 18.975C17.7005 18.975 16.7755 18.7083 15.9755 18.175C15.1922 17.6417 14.5755 16.85 14.1255 15.8C13.6922 14.75 13.4755 13.4833 13.4755 12C13.4755 10.5 13.6922 9.225 14.1255 8.175C14.5755 7.125 15.2005 6.33333 16.0005 5.8C16.8005 5.26667 17.7172 5 18.7505 5C19.7672 5 20.6672 5.26667 21.4505 5.8C22.2505 6.33333 22.8755 7.125 23.3255 8.175C23.7755 9.225 24.0005 10.5 24.0005 12C24.0005 13.4833 23.7755 14.75 23.3255 15.8C22.8922 16.85 22.2755 17.6417 21.4755 18.175C20.6922 18.7083 19.7838 18.975 18.7505 18.975ZM18.7505 17.625C19.9672 17.625 20.9088 17.1333 21.5755 16.15C22.2588 15.1667 22.6005 13.7833 22.6005 12C22.6005 10.2167 22.2588 8.83333 21.5755 7.85C20.9088 6.85 19.9672 6.35 18.7505 6.35C17.5172 6.35 16.5588 6.85 15.8755 7.85C15.2088 8.83333 14.8755 10.2167 14.8755 12C14.8755 13.7833 15.2088 15.1667 15.8755 16.15C16.5588 17.1333 17.5172 17.625 18.7505 17.625ZM9.22549 10.8C9.57549 10.4333 9.99216 10.15 10.4755 9.95C10.9588 9.75 11.4672 9.65 12.0005 9.65C12.5338 9.65 13.0422 9.75 13.5255 9.95C14.0088 10.15 14.4255 10.4333 14.7755 10.8L13.7505 11.75C13.2838 11.25 12.7005 11 12.0005 11C11.3005 11 10.7172 11.25 10.2505 11.75L9.22549 10.8ZM5.27549 18.975C4.24216 18.975 3.32549 18.7083 2.52549 18.175C1.74216 17.6417 1.12549 16.85 0.675488 15.8C0.225488 14.75 0.000488281 13.4833 0.000488281 12C0.000488281 10.5 0.225488 9.225 0.675488 8.175C1.12549 7.125 1.74216 6.33333 2.52549 5.8C3.32549 5.26667 4.24216 5 5.27549 5C6.29216 5 7.19216 5.26667 7.97549 5.8C8.77549 6.33333 9.40049 7.125 9.85049 8.175C10.3005 9.225 10.5255 10.5 10.5255 12C10.5255 13.4833 10.3005 14.75 9.85049 15.8C9.41716 16.85 8.80049 17.6417 8.00049 18.175C7.21716 18.7083 6.30882 18.975 5.27549 18.975ZM5.27549 17.625C6.49216 17.625 7.43382 17.1333 8.10049 16.15C8.78382 15.1667 9.12549 13.7833 9.12549 12C9.12549 10.2167 8.78382 8.83333 8.10049 7.85C7.43382 6.85 6.49216 6.35 5.27549 6.35C4.04216 6.35 3.08382 6.85 2.40049 7.85C1.73382 8.83333 1.40049 10.2167 1.40049 12C1.40049 13.7833 1.73382 15.1667 2.40049 16.15C3.08382 17.1333 4.04216 17.625 5.27549 17.625Z" fill="black"/>
</g>
<defs>
<clipPath id="clip0_3191_41438">
<rect width="24" height="24" fill="white"/>
</clipPath>
</defs>
</svg>
