<svg width="24" height="24" viewBox="0 0 24 24" fill="none" xmlns="http://www.w3.org/2000/svg">
<g clip-path="url(#clip0_3191_40883)">
<rect width="24" height="24" fill="white"/>
<path d="M18.7755 18.975C17.6922 18.975 16.7505 18.6917 15.9505 18.125C15.1672 17.5417 14.5672 16.725 14.1505 15.675C13.7338 14.625 13.5255 13.4 13.5255 12C13.5255 10.5833 13.7338 9.35 14.1505 8.3C14.5672 7.25 15.1672 6.44167 15.9505 5.875C16.7505 5.29167 17.6922 5 18.7755 5C19.8422 5 20.7672 5.29167 21.5505 5.875C22.3338 6.44167 22.9338 7.25833 23.3505 8.325C23.7838 9.375 24.0005 10.6 24.0005 12C24.0005 13.4 23.7838 14.625 23.3505 15.675C22.9338 16.725 22.3338 17.5417 21.5505 18.125C20.7672 18.6917 19.8422 18.975 18.7755 18.975ZM18.7755 18.5C20.2255 18.5 21.3755 17.9167 22.2255 16.75C23.0755 15.5833 23.5005 14 23.5005 12C23.5005 9.98333 23.0755 8.39167 22.2255 7.225C21.3755 6.05833 20.2255 5.475 18.7755 5.475C17.3088 5.475 16.1505 6.05833 15.3005 7.225C14.4505 8.39167 14.0255 9.98333 14.0255 12C14.0255 14 14.4505 15.5833 15.3005 16.75C16.1505 17.9167 17.3088 18.5 18.7755 18.5ZM9.97549 11C10.2255 10.7333 10.5255 10.5333 10.8755 10.4C11.2422 10.25 11.6172 10.175 12.0005 10.175C12.3838 10.175 12.7505 10.25 13.1005 10.4C13.4672 10.5333 13.7755 10.7333 14.0255 11L13.6755 11.35C13.2422 10.9 12.6838 10.675 12.0005 10.675C11.3172 10.675 10.7588 10.9 10.3255 11.35L9.97549 11ZM5.25049 18.975C4.18382 18.975 3.25049 18.6917 2.45049 18.125C1.66716 17.5417 1.05882 16.725 0.625488 15.675C0.208822 14.625 0.000488281 13.4 0.000488281 12C0.000488281 10.5833 0.208822 9.35 0.625488 8.3C1.05882 7.25 1.66716 6.44167 2.45049 5.875C3.25049 5.29167 4.18382 5 5.25049 5C6.31716 5 7.24216 5.29167 8.02549 5.875C8.82549 6.44167 9.43382 7.25 9.85049 8.3C10.2672 9.35 10.4755 10.5833 10.4755 12C10.4755 13.4 10.2672 14.625 9.85049 15.675C9.43382 16.725 8.82549 17.5417 8.02549 18.125C7.24216 18.6917 6.31716 18.975 5.25049 18.975ZM5.25049 18.5C6.71716 18.5 7.86716 17.9167 8.70049 16.75C9.55049 15.5833 9.97549 14 9.97549 12C9.97549 9.98333 9.55049 8.39167 8.70049 7.225C7.86716 6.05833 6.71716 5.475 5.25049 5.475C3.78382 5.475 2.62549 6.05833 1.77549 7.225C0.925488 8.39167 0.500488 9.98333 0.500488 12C0.500488 14 0.925488 15.5833 1.77549 16.75C2.62549 17.9167 3.78382 18.5 5.25049 18.5Z" fill="black"/>
</g>
<defs>
<clipPath id="clip0_3191_40883">
<rect width="24" height="24" fill="white"/>
</clipPath>
</defs>
</svg>
