<svg width="24" height="24" viewBox="0 0 24 24" fill="none" xmlns="http://www.w3.org/2000/svg">
<g clip-path="url(#clip0_3191_41771)">
<rect width="24" height="24" fill="white"/>
<path d="M17.5 4V20L14.525 17.5H2.875C2.35833 17.5 1.91667 17.3167 1.55 16.95C1.18333 16.5833 1 16.1417 1 15.625V8.375C1 7.84167 1.18333 7.4 1.55 7.05C1.91667 6.68333 2.35833 6.5 2.875 6.5H14.525L17.5 4ZM19.5 20V4H23V20H19.5ZM11.65 12.975C11.9333 13.2417 12.2583 13.375 12.625 13.375C13.0083 13.375 13.3333 13.2417 13.6 12.975C13.8667 12.7083 14 12.3833 14 12C14 11.6167 13.8667 11.2917 13.6 11.025C13.3333 10.7583 13.0083 10.625 12.625 10.625C12.2417 10.625 11.9167 10.7583 11.65 11.025C11.3833 11.2917 11.25 11.6167 11.25 12C11.25 12.3667 11.3833 12.6917 11.65 12.975Z" fill="black"/>
</g>
<defs>
<clipPath id="clip0_3191_41771">
<rect width="24" height="24" fill="white"/>
</clipPath>
</defs>
</svg>
