<svg width="24" height="24" viewBox="0 0 24 24" fill="none" xmlns="http://www.w3.org/2000/svg">
<g clip-path="url(#clip0_3191_41769)">
<rect width="24" height="24" fill="white"/>
<path d="M18 4V20L15.025 17.5H2.875C2.35833 17.5 1.91667 17.3167 1.55 16.95C1.18333 16.5833 1 16.1417 1 15.625V8.375C1 7.84167 1.18333 7.4 1.55 7.05C1.91667 6.68333 2.35833 6.5 2.875 6.5H15.025L18 4ZM19.5 20V4H23V20H19.5ZM12.15 12.75C12.3667 12.9667 12.625 13.075 12.925 13.075C13.225 13.075 13.475 12.975 13.675 12.775C13.8917 12.5583 14 12.3 14 12C14 11.7 13.8917 11.45 13.675 11.25C13.475 11.0333 13.225 10.925 12.925 10.925C12.625 10.925 12.3667 11.0333 12.15 11.25C11.9333 11.45 11.825 11.7 11.825 12C11.825 12.2833 11.9333 12.5333 12.15 12.75Z" fill="black"/>
</g>
<defs>
<clipPath id="clip0_3191_41769">
<rect width="24" height="24" fill="white"/>
</clipPath>
</defs>
</svg>
