<svg width="24" height="24" viewBox="0 0 24 24" fill="none" xmlns="http://www.w3.org/2000/svg">
<g clip-path="url(#clip0_3191_41761)">
<rect width="24" height="24" fill="white"/>
<path d="M17.1755 20.075L14.7505 18.175H3.20049C2.58382 18.175 2.05882 17.9667 1.62549 17.55C1.20882 17.1167 1.00049 16.6 1.00049 16V8C1.00049 7.4 1.20882 6.89167 1.62549 6.475C2.05882 6.04167 2.58382 5.825 3.20049 5.825H14.7505L17.1755 3.925H23.0005V20.075H17.1755ZM3.77549 8.525C3.75882 8.525 3.75049 8.525 3.75049 8.525C3.75049 8.525 3.75049 8.53333 3.75049 8.55V15.45C3.75049 15.4667 3.75049 15.475 3.75049 15.475C3.75049 15.475 3.75882 15.475 3.77549 15.475H15.6505L18.8005 17.95L17.6755 17.375H20.2505V6.625H17.6755L18.8255 6.05L15.6505 8.525H3.77549ZM14.3505 13.875C13.8338 13.875 13.3838 13.6917 13.0005 13.325C12.6338 12.9417 12.4505 12.4917 12.4505 11.975C12.4505 11.4417 12.6338 10.9917 13.0005 10.625C13.3838 10.2417 13.8338 10.05 14.3505 10.05C14.9005 10.05 15.3588 10.2417 15.7255 10.625C16.1088 10.9917 16.3005 11.4417 16.3005 11.975C16.3005 12.4917 16.1088 12.9417 15.7255 13.325C15.3588 13.6917 14.9005 13.875 14.3505 13.875ZM19.7255 4.8H19.4755H19.7255Z" fill="black"/>
</g>
<defs>
<clipPath id="clip0_3191_41761">
<rect width="24" height="24" fill="white"/>
</clipPath>
</defs>
</svg>
