<svg width="24" height="24" viewBox="0 0 24 24" fill="none" xmlns="http://www.w3.org/2000/svg">
<g clip-path="url(#clip0_3191_40863)">
<rect width="24" height="24" fill="white"/>
<path d="M18.0005 20L14.5255 17H3.00049C2.43382 17 1.95882 16.8083 1.57549 16.425C1.19216 16.0417 1.00049 15.5667 1.00049 15V9C1.00049 8.43333 1.19216 7.95833 1.57549 7.575C1.95882 7.19167 2.43382 7 3.00049 7H14.5255L18.0005 4H23.0005V20H18.0005ZM3.00049 7.475C2.58382 7.475 2.22549 7.625 1.92549 7.925C1.64216 8.20833 1.50049 8.56667 1.50049 9V15C1.50049 15.4333 1.64216 15.8 1.92549 16.1C2.22549 16.3833 2.58382 16.525 3.00049 16.525H14.7005L18.4755 19.775L18.0505 19.525H22.5255V4.475H18.0255L18.6005 4.1L14.7005 7.475H3.00049ZM13.5005 12.5C13.3672 12.5 13.2505 12.45 13.1505 12.35C13.0505 12.25 13.0005 12.1333 13.0005 12C13.0005 11.8667 13.0505 11.75 13.1505 11.65C13.2505 11.55 13.3672 11.5 13.5005 11.5C13.6338 11.5 13.7505 11.55 13.8505 11.65C13.9505 11.75 14.0005 11.8667 14.0005 12C14.0005 12.1333 13.9505 12.25 13.8505 12.35C13.7505 12.45 13.6338 12.5 13.5005 12.5ZM18.6005 4.225V19.775H18.1255V4.225H18.6005Z" fill="black"/>
</g>
<defs>
<clipPath id="clip0_3191_40863">
<rect width="24" height="24" fill="white"/>
</clipPath>
</defs>
</svg>
