<svg width="24" height="24" viewBox="0 0 24 24" fill="none" xmlns="http://www.w3.org/2000/svg">
<g clip-path="url(#clip0_3191_41761)">
<rect width="24" height="24" fill="white"/>
<path d="M17.6755 20L15.3505 18.175H2.70049C2.08382 18.175 1.55882 17.9667 1.12549 17.55C0.708822 17.1167 0.500488 16.6 0.500488 16V8C0.500488 7.4 0.708822 6.89167 1.12549 6.475C1.55882 6.04167 2.08382 5.825 2.70049 5.825H15.3505L17.6755 4H23.5005V20H17.6755ZM3.30049 8.55C3.28382 8.55 3.26716 8.55 3.25049 8.55C3.25049 8.53333 3.25049 8.53333 3.25049 8.55V15.45C3.25049 15.4667 3.25049 15.475 3.25049 15.475C3.26716 15.4583 3.28382 15.45 3.30049 15.45H16.2255L19.3005 17.85L18.1755 17.3H20.7505V6.7H18.1755L19.3255 6.15L16.2255 8.55H3.30049ZM14.3505 13.875C13.8338 13.875 13.3838 13.6917 13.0005 13.325C12.6338 12.9417 12.4505 12.4917 12.4505 11.975C12.4505 11.4417 12.6338 10.9917 13.0005 10.625C13.3838 10.2417 13.8338 10.05 14.3505 10.05C14.9005 10.05 15.3588 10.2417 15.7255 10.625C16.1088 10.9917 16.3005 11.4417 16.3005 11.975C16.3005 12.4917 16.1088 12.9417 15.7255 13.325C15.3588 13.6917 14.9005 13.875 14.3505 13.875ZM20.2255 4.875H19.9755H20.2255Z" fill="black"/>
</g>
<defs>
<clipPath id="clip0_3191_41761">
<rect width="24" height="24" fill="white"/>
</clipPath>
</defs>
</svg>
