<svg width="24" height="24" viewBox="0 0 24 24" fill="none" xmlns="http://www.w3.org/2000/svg">
<g clip-path="url(#clip0_3354_2532)">
<rect width="24" height="24" fill="white"/>
<path d="M4.875 20C4.29167 20 3.75 19.8583 3.25 19.575C2.75 19.275 2.35 18.875 2.05 18.375C1.76667 17.875 1.625 17.3333 1.625 16.75C1.625 16.1333 1.775 15.5583 2.075 15.025C2.375 14.475 2.775 14.075 3.275 13.825L10.3 10.25V8.55L12.4 7.3C12.6 7.18333 12.75 7.05 12.85 6.9C12.9667 6.73333 13.025 6.55 13.025 6.35C13.025 6.06667 12.925 5.825 12.725 5.625C12.5417 5.425 12.3083 5.325 12.025 5.325C11.7417 5.325 11.4917 5.43333 11.275 5.65C11.075 5.85 10.975 6.10833 10.975 6.425H7.6C7.6 5.60833 7.79167 4.86667 8.175 4.2C8.575 3.51667 9.10833 2.98333 9.775 2.6C10.4583 2.2 11.2167 2 12.05 2C12.8667 2 13.6083 2.19167 14.275 2.575C14.9417 2.94167 15.4583 3.45833 15.825 4.125C16.2083 4.79167 16.4 5.54167 16.4 6.375C16.4 7.175 16.175 7.86667 15.725 8.45C15.2917 9.03333 14.7583 9.525 14.125 9.925L13.8 10.125V10.275L20.725 13.8C21.225 14.05 21.625 14.4583 21.925 15.025C22.225 15.575 22.375 16.15 22.375 16.75C22.375 17.3333 22.225 17.875 21.925 18.375C21.6417 18.875 21.25 19.275 20.75 19.575C20.25 19.8583 19.7083 20 19.125 20H4.875ZM18.8 16.65C18.8167 16.65 18.825 16.65 18.825 16.65C18.8417 16.6333 18.85 16.6167 18.85 16.6C18.85 16.5833 18.8417 16.575 18.825 16.575C18.825 16.5583 18.8167 16.5417 18.8 16.525L12.05 13.075L5.225 16.525C5.20833 16.5417 5.2 16.5583 5.2 16.575C5.2 16.575 5.19167 16.5833 5.175 16.6C5.175 16.6167 5.175 16.6333 5.175 16.65C5.19167 16.65 5.20833 16.65 5.225 16.65H18.8Z" fill="black"/>
</g>
<defs>
<clipPath id="clip0_3354_2532">
<rect width="24" height="24" fill="white"/>
</clipPath>
</defs>
</svg>
