<svg width="24" height="24" viewBox="0 0 24 24" fill="none" xmlns="http://www.w3.org/2000/svg">
<g clip-path="url(#clip0_3388_8868)">
<rect width="24" height="24" fill="white"/>
<path d="M4.27549 20C3.79216 20 3.34216 19.8833 2.92549 19.65C2.52549 19.4167 2.20882 19.1 1.97549 18.7C1.74216 18.2833 1.62549 17.8333 1.62549 17.35C1.62549 16.8667 1.75049 16.4167 2.00049 16C2.26716 15.5833 2.62549 15.25 3.07549 15L11.2755 10.275V8.3L12.7255 7.475C13.2088 7.20833 13.5755 6.90833 13.8255 6.575C14.0922 6.24167 14.2255 5.83333 14.2255 5.35C14.2255 4.76667 14.0172 4.3 13.6005 3.95C13.1838 3.58333 12.6588 3.4 12.0255 3.4C11.3922 3.4 10.8588 3.61667 10.4255 4.05C9.99216 4.48333 9.77549 5.025 9.77549 5.675H8.32549C8.32549 4.99167 8.49216 4.375 8.82549 3.825C9.15882 3.25833 9.60049 2.81667 10.1505 2.5C10.7172 2.16667 11.3422 2 12.0255 2C12.7088 2 13.3255 2.14167 13.8755 2.425C14.4255 2.70833 14.8588 3.10833 15.1755 3.625C15.5088 4.125 15.6755 4.7 15.6755 5.35C15.6755 6.1 15.4588 6.75 15.0255 7.3C14.6088 7.83333 14.0505 8.29167 13.3505 8.675L12.7255 9.05V10.275L20.9255 15C21.3755 15.25 21.7255 15.5917 21.9755 16.025C22.2422 16.4417 22.3755 16.8833 22.3755 17.35C22.3755 17.8333 22.2588 18.2833 22.0255 18.7C21.7922 19.1 21.4672 19.4167 21.0505 19.65C20.6505 19.8833 20.2088 20 19.7255 20H4.27549ZM19.7255 18.6C20.0755 18.6 20.3672 18.4833 20.6005 18.25C20.8338 18 20.9505 17.7 20.9505 17.35C20.9505 17.1167 20.8755 16.9 20.7255 16.7C20.5922 16.4833 20.4088 16.3083 20.1755 16.175L12.0005 11.45L3.82549 16.175C3.59216 16.3083 3.40049 16.4833 3.25049 16.7C3.11716 16.9 3.05049 17.1167 3.05049 17.35C3.05049 17.7 3.16716 18 3.40049 18.25C3.63382 18.4833 3.92549 18.6 4.27549 18.6H19.7255Z" fill="black"/>
</g>
<defs>
<clipPath id="clip0_3388_8868">
<rect width="24" height="24" fill="white"/>
</clipPath>
</defs>
</svg>
