<svg width="24" height="24" viewBox="0 0 24 24" fill="none" xmlns="http://www.w3.org/2000/svg">
<g clip-path="url(#clip0_3354_2528)">
<rect width="24" height="24" fill="white"/>
<path d="M4.65 20C4.1 20 3.59167 19.8667 3.125 19.6C2.65833 19.3333 2.29167 18.9667 2.025 18.5C1.75833 18.0333 1.625 17.525 1.625 16.975C1.625 16.425 1.76667 15.9083 2.05 15.425C2.35 14.925 2.75833 14.5333 3.275 14.25L10.8 10.075V8.5L12.65 7.425C13 7.20833 13.2667 6.98333 13.45 6.75C13.65 6.5 13.75 6.18333 13.75 5.8C13.75 5.36667 13.5833 5.01667 13.25 4.75C12.9333 4.48333 12.5333 4.35 12.05 4.35C11.5333 4.35 11.1 4.525 10.75 4.875C10.4167 5.20833 10.25 5.63333 10.25 6.15H7.875C7.875 5.38333 8.05833 4.68333 8.425 4.05C8.79167 3.41667 9.29167 2.91667 9.925 2.55C10.5583 2.18333 11.2667 2 12.05 2C12.8167 2 13.5083 2.15833 14.125 2.475C14.7417 2.79167 15.225 3.24167 15.575 3.825C15.9417 4.40833 16.125 5.06667 16.125 5.8C16.125 6.61667 15.9083 7.31667 15.475 7.9C15.0417 8.46667 14.475 8.95 13.775 9.35L13.225 9.675V10.1L20.75 14.275C21.25 14.5417 21.6417 14.925 21.925 15.425C22.225 15.925 22.375 16.4417 22.375 16.975C22.375 17.525 22.2417 18.0333 21.975 18.5C21.7083 18.9667 21.3417 19.3333 20.875 19.6C20.4083 19.8667 19.9 20 19.35 20H4.65ZM19.25 17.65C19.45 17.65 19.6083 17.5833 19.725 17.45C19.8583 17.3167 19.925 17.1417 19.925 16.925C19.925 16.7917 19.875 16.6583 19.775 16.525C19.6917 16.3917 19.575 16.2833 19.425 16.2L12.025 12.075L4.575 16.2C4.425 16.2833 4.3 16.3917 4.2 16.525C4.11667 16.6583 4.075 16.7917 4.075 16.925C4.075 17.1417 4.14167 17.3167 4.275 17.45C4.40833 17.5833 4.56667 17.65 4.75 17.65H19.25Z" fill="black"/>
</g>
<defs>
<clipPath id="clip0_3354_2528">
<rect width="24" height="24" fill="white"/>
</clipPath>
</defs>
</svg>
