<svg width="24" height="24" viewBox="0 0 24 24" fill="none" xmlns="http://www.w3.org/2000/svg">
<g clip-path="url(#clip0_3321_9720)">
<rect width="24" height="24" fill="white"/>
<path d="M20.0005 14.05C19.2672 14.7833 18.4838 15.325 17.6505 15.675C16.8338 16.0083 16.0422 16.1833 15.2755 16.2C14.5088 16.2167 13.7922 16.1333 13.1255 15.95L11.9255 17.15L10.4255 17.475L10.1255 18.975L8.12549 20.975L4.37549 21L1.05049 17.675L7.92549 10.775C7.75882 10.125 7.68382 9.40833 7.70049 8.625C7.73382 7.84167 7.91716 7.04167 8.25049 6.225C8.60049 5.39167 9.13382 4.61667 9.85049 3.9C10.7838 2.96667 11.8672 2.33333 13.1005 2C14.3338 1.66667 15.5588 1.66667 16.7755 2C17.9922 2.33333 19.0672 2.96667 20.0005 3.9C20.9338 4.83333 21.5588 5.91667 21.8755 7.15C22.2088 8.38333 22.2172 9.60833 21.9005 10.825C21.5838 12.0417 20.9505 13.1167 20.0005 14.05ZM18.4255 12.475C19.0755 11.825 19.5088 11.0833 19.7255 10.25C19.9588 9.4 19.9588 8.55833 19.7255 7.725C19.5088 6.875 19.0755 6.125 18.4255 5.475C17.7922 4.84167 17.0505 4.41667 16.2005 4.2C15.3505 3.96667 14.5005 3.96667 13.6505 4.2C12.8172 4.41667 12.0755 4.84167 11.4255 5.475C10.6422 6.24167 10.1672 7.15 10.0005 8.2C9.83382 9.25 10.0088 10.275 10.5255 11.275L4.15049 17.675L5.32549 18.825H7.17549L8.07549 17.925L8.55049 15.6L10.9005 15.1L12.6255 13.375C13.6422 13.9083 14.6672 14.0917 15.7005 13.925C16.7338 13.7583 17.6422 13.275 18.4255 12.475ZM15.8255 9.9C15.3422 9.9 14.9338 9.73333 14.6005 9.4C14.2672 9.06667 14.1005 8.65833 14.1005 8.175C14.1005 7.69167 14.2672 7.29167 14.6005 6.975C14.9338 6.64167 15.3422 6.475 15.8255 6.475C16.3088 6.475 16.7088 6.64167 17.0255 6.975C17.3588 7.30833 17.5255 7.70833 17.5255 8.175C17.5255 8.65833 17.3588 9.06667 17.0255 9.4C16.6922 9.73333 16.2922 9.9 15.8255 9.9ZM15.8005 8.175C15.6338 8.175 15.5088 8.175 15.4255 8.175C15.3588 8.175 15.2422 8.175 15.0755 8.175C15.2422 8.175 15.3672 8.175 15.4505 8.175C15.5338 8.175 15.6588 8.175 15.8255 8.175C15.9922 8.175 16.1088 8.175 16.1755 8.175C16.2588 8.175 16.3838 8.175 16.5505 8.175C16.3838 8.175 16.2588 8.175 16.1755 8.175C16.1088 8.175 15.9838 8.175 15.8005 8.175Z" fill="black"/>
</g>
<defs>
<clipPath id="clip0_3321_9720">
<rect width="24" height="24" fill="white"/>
</clipPath>
</defs>
</svg>
