<svg width="24" height="24" viewBox="0 0 24 24" fill="none" xmlns="http://www.w3.org/2000/svg">
<g clip-path="url(#clip0_3191_40992)">
<rect width="24" height="24" fill="white"/>
<path d="M8.175 17.75C7.975 17.4167 7.725 17.0667 7.425 16.7C7.125 16.3167 6.825 15.95 6.525 15.6C5.85833 14.8333 5.325 14.175 4.925 13.625C4.525 13.0583 4.18333 12.3917 3.9 11.625C3.63333 10.8583 3.5 9.99167 3.5 9.025C3.5 7.475 3.85833 6.09167 4.575 4.875C5.29167 3.65833 6.29167 2.70833 7.575 2.025C8.875 1.34167 10.35 1 12 1C13.65 1 15.1167 1.34167 16.4 2.025C17.7 2.70833 18.7083 3.65833 19.425 4.875C20.1417 6.09167 20.5 7.475 20.5 9.025C20.5 9.99167 20.3583 10.8583 20.075 11.625C19.8083 12.3917 19.475 13.0583 19.075 13.625C18.675 14.175 18.1417 14.8333 17.475 15.6C17.175 15.95 16.875 16.3167 16.575 16.7C16.275 17.0667 16.025 17.4167 15.825 17.75H8.175ZM8.15 19.65H15.825V23H8.15V19.65Z" fill="black"/>
</g>
<defs>
<clipPath id="clip0_3191_40992">
<rect width="24" height="24" fill="white"/>
</clipPath>
</defs>
</svg>
