<svg width="24" height="24" viewBox="0 0 24 24" fill="none" xmlns="http://www.w3.org/2000/svg">
<g clip-path="url(#clip0_3191_40982)">
<rect width="24" height="24" fill="white"/>
<path d="M8 19.5H16V23H8V19.5ZM8.025 18.525C7.875 17.975 7.65 17.45 7.35 16.95C7.05 16.45 6.625 15.8083 6.075 15.025C5.525 14.2583 5.075 13.5917 4.725 13.025C4.39167 12.4583 4.1 11.825 3.85 11.125C3.61667 10.425 3.5 9.66667 3.5 8.85C3.5 7.36667 3.875 6.03333 4.625 4.85C5.375 3.65 6.4 2.70833 7.7 2.025C9 1.34167 10.4333 1 12 1C13.5667 1 15 1.34167 16.3 2.025C17.6 2.70833 18.625 3.65 19.375 4.85C20.125 6.03333 20.5 7.36667 20.5 8.85C20.5 9.66667 20.3833 10.425 20.15 11.125C19.9167 11.825 19.6333 12.45 19.3 13C18.9667 13.55 18.5167 14.2333 17.95 15.05C17.4 15.8167 16.975 16.45 16.675 16.95C16.375 17.45 16.15 17.975 16 18.525H8.025Z" fill="black"/>
</g>
<defs>
<clipPath id="clip0_3191_40982">
<rect width="24" height="24" fill="white"/>
</clipPath>
</defs>
</svg>
