<svg width="24" height="24" viewBox="0 0 24 24" fill="none" xmlns="http://www.w3.org/2000/svg">
<g clip-path="url(#clip0_3191_40976)">
<rect width="24" height="24" fill="white"/>
<path d="M14.1505 15.15C14.3172 14.8333 14.5088 14.5333 14.7255 14.25C14.9588 13.95 15.2172 13.625 15.5005 13.275C16.2005 12.4083 16.7255 11.6583 17.0755 11.025C17.4255 10.375 17.6005 9.66667 17.6005 8.9C17.6005 7.9 17.3588 7.025 16.8755 6.275C16.3922 5.50833 15.7255 4.91667 14.8755 4.5C14.0422 4.06667 13.0838 3.85 12.0005 3.85C10.9172 3.85 9.95049 4.06667 9.10049 4.5C8.26716 4.91667 7.60882 5.50833 7.12549 6.275C6.64216 7.025 6.40049 7.9 6.40049 8.9C6.40049 9.66667 6.57549 10.375 6.92549 11.025C7.27549 11.6583 7.80049 12.4083 8.50049 13.275C8.78382 13.625 9.03382 13.95 9.25049 14.25C9.48382 14.5333 9.68382 14.8333 9.85049 15.15H14.1505ZM8.17549 18C7.97549 17.55 7.72549 17.1083 7.42549 16.675C7.12549 16.225 6.74216 15.7083 6.27549 15.125C5.65882 14.3417 5.16716 13.675 4.80049 13.125C4.43382 12.575 4.12549 11.9417 3.87549 11.225C3.62549 10.5083 3.50049 9.73333 3.50049 8.9C3.50049 7.36667 3.85882 6 4.57549 4.8C5.30882 3.6 6.32549 2.66667 7.62549 2C8.92549 1.33333 10.3838 1 12.0005 1C13.6172 1 15.0755 1.33333 16.3755 2C17.6755 2.66667 18.6838 3.6 19.4005 4.8C20.1338 6 20.5005 7.36667 20.5005 8.9C20.5005 9.73333 20.3755 10.5083 20.1255 11.225C19.8755 11.9417 19.5672 12.575 19.2005 13.125C18.8338 13.675 18.3422 14.3417 17.7255 15.125C17.2588 15.7083 16.8755 16.225 16.5755 16.675C16.2755 17.1083 16.0255 17.55 15.8255 18H8.17549ZM8.15049 19.65H15.8255V22.5H8.15049V19.65Z" fill="black"/>
</g>
<defs>
<clipPath id="clip0_3191_40976">
<rect width="24" height="24" fill="white"/>
</clipPath>
</defs>
</svg>
