<svg width="24" height="24" viewBox="0 0 24 24" fill="none" xmlns="http://www.w3.org/2000/svg">
<g clip-path="url(#clip0_3191_40974)">
<rect width="24" height="24" fill="white"/>
<path d="M14.5005 16.275C14.6838 15.9083 14.8755 15.5583 15.0755 15.225C15.2922 14.8917 15.5422 14.5333 15.8255 14.15C16.5588 13.0667 17.1088 12.1417 17.4755 11.375C17.8588 10.6083 18.0505 9.75833 18.0505 8.825C18.0505 7.775 17.7838 6.84167 17.2505 6.025C16.7172 5.19167 15.9922 4.55 15.0755 4.1C14.1588 3.63333 13.1338 3.4 12.0005 3.4C10.8672 3.4 9.84216 3.63333 8.92549 4.1C8.00882 4.55 7.28382 5.19167 6.75049 6.025C6.21716 6.84167 5.95049 7.775 5.95049 8.825C5.95049 9.75833 6.13382 10.6083 6.50049 11.375C6.88382 12.1417 7.44216 13.0667 8.17549 14.15C8.45882 14.5333 8.70049 14.8917 8.90049 15.225C9.11716 15.5583 9.31716 15.9083 9.50049 16.275H14.5005ZM8.00049 18.675C7.83382 18.1917 7.60049 17.7083 7.30049 17.225C7.01716 16.725 6.64216 16.1417 6.17549 15.475C5.60882 14.6417 5.14216 13.925 4.77549 13.325C4.42549 12.7083 4.12549 12.025 3.87549 11.275C3.62549 10.5083 3.50049 9.69167 3.50049 8.825C3.50049 7.34167 3.86716 6.00833 4.60049 4.825C5.35049 3.625 6.36716 2.69167 7.65049 2.025C8.95049 1.34167 10.4005 1 12.0005 1C13.6005 1 15.0422 1.34167 16.3255 2.025C17.6255 2.69167 18.6422 3.625 19.3755 4.825C20.1255 6.00833 20.5005 7.34167 20.5005 8.825C20.5005 9.69167 20.3755 10.5083 20.1255 11.275C19.8755 12.025 19.5672 12.7083 19.2005 13.325C18.8505 13.925 18.3922 14.6417 17.8255 15.475C17.3588 16.1417 16.9755 16.725 16.6755 17.225C16.3922 17.7083 16.1672 18.1917 16.0005 18.675H8.00049ZM7.97549 20.625H16.0005V23H7.97549V20.625Z" fill="black"/>
</g>
<defs>
<clipPath id="clip0_3191_40974">
<rect width="24" height="24" fill="white"/>
</clipPath>
</defs>
</svg>
