<svg width="24" height="24" viewBox="0 0 24 24" fill="none" xmlns="http://www.w3.org/2000/svg">
<g clip-path="url(#clip0_3191_41008)">
<rect width="24" height="24" fill="white"/>
<path d="M3 9H7V6.75C7 5.81667 7.21667 4.96667 7.65 4.2C8.08333 3.43333 8.68333 2.83333 9.45 2.4C10.2167 1.96667 11.0667 1.75 12 1.75C12.9333 1.75 13.7833 1.96667 14.55 2.4C15.3167 2.83333 15.9167 3.43333 16.35 4.2C16.7833 4.96667 17 5.81667 17 6.75V9H21V21H3V9ZM16.025 9V6.75C16.025 5.98333 15.85 5.29167 15.5 4.675C15.15 4.05833 14.6667 3.575 14.05 3.225C13.45 2.85833 12.7667 2.675 12 2.675C11.2333 2.675 10.5417 2.85833 9.925 3.225C9.325 3.575 8.85 4.05833 8.5 4.675C8.15 5.29167 7.975 5.98333 7.975 6.75V9H16.025Z" fill="black"/>
</g>
<defs>
<clipPath id="clip0_3191_41008">
<rect width="24" height="24" fill="white"/>
</clipPath>
</defs>
</svg>
