<svg width="24" height="24" viewBox="0 0 24 24" fill="none" xmlns="http://www.w3.org/2000/svg">
<g clip-path="url(#clip0_3191_41078)">
<rect width="24" height="24" fill="white"/>
<path d="M3.00049 9H6.77549V6.475C6.77549 5.475 7.00049 4.58333 7.45049 3.8C7.90049 3 8.51716 2.375 9.30049 1.925C10.1005 1.475 11.0005 1.25 12.0005 1.25C13.0005 1.25 13.8922 1.475 14.6755 1.925C15.4755 2.375 16.1005 3 16.5505 3.8C17.0005 4.58333 17.2255 5.475 17.2255 6.475V7.175H14.8255V6.475C14.8255 5.90833 14.7005 5.40833 14.4505 4.975C14.2172 4.54167 13.8838 4.20833 13.4505 3.975C13.0338 3.725 12.5505 3.6 12.0005 3.6C11.4505 3.6 10.9588 3.725 10.5255 3.975C10.1088 4.20833 9.77549 4.54167 9.52549 4.975C9.29216 5.40833 9.17549 5.90833 9.17549 6.475V9H21.0005V21H3.00049V9ZM18.5505 18.6V11.4H5.45049V18.6H18.5505Z" fill="black"/>
</g>
<defs>
<clipPath id="clip0_3191_41078">
<rect width="24" height="24" fill="white"/>
</clipPath>
</defs>
</svg>
