<svg width="24" height="24" viewBox="0 0 24 24" fill="none" xmlns="http://www.w3.org/2000/svg">
<g clip-path="url(#clip0_3191_40849)">
<rect width="24" height="24" fill="white"/>
<path d="M3.00049 9H7.00049V6.75C7.00049 5.83333 7.21716 4.99167 7.65049 4.225C8.10049 3.45833 8.70882 2.85833 9.47549 2.425C10.2422 1.975 11.0838 1.75 12.0005 1.75C12.9172 1.75 13.7588 1.975 14.5255 2.425C15.2922 2.85833 15.8922 3.45833 16.3255 4.225C16.7755 4.99167 17.0005 5.83333 17.0005 6.75V9H21.0005V21H3.00049V9ZM20.5005 20.525V9.475H3.50049V20.525H20.5005ZM16.5005 9V6.75C16.5005 5.91667 16.3005 5.15833 15.9005 4.475C15.5005 3.775 14.9588 3.225 14.2755 2.825C13.5922 2.425 12.8338 2.225 12.0005 2.225C11.1672 2.225 10.4088 2.425 9.72549 2.825C9.04216 3.225 8.50049 3.775 8.10049 4.475C7.70049 5.15833 7.50049 5.91667 7.50049 6.75V9H16.5005Z" fill="black"/>
</g>
<defs>
<clipPath id="clip0_3191_40849">
<rect width="24" height="24" fill="white"/>
</clipPath>
</defs>
</svg>
