<svg width="24" height="24" viewBox="0 0 24 24" fill="none" xmlns="http://www.w3.org/2000/svg">
<g clip-path="url(#clip0_3191_41018)">
<rect width="24" height="24" fill="white"/>
<path d="M3 9H6.35V7.4C6.35 6.35 6.6 5.4 7.1 4.55C7.6 3.68333 8.275 3 9.125 2.5C9.99167 2 10.95 1.75 12 1.75C13.05 1.75 14 2 14.85 2.5C15.7167 3 16.4 3.68333 16.9 4.55C17.4 5.4 17.65 6.35 17.65 7.4V9H21V21H3V9ZM14.25 9V7.4C14.25 6.96667 14.15 6.575 13.95 6.225C13.75 5.875 13.475 5.6 13.125 5.4C12.7917 5.2 12.4167 5.1 12 5.1C11.5833 5.1 11.2 5.2 10.85 5.4C10.5167 5.6 10.25 5.875 10.05 6.225C9.85 6.575 9.75 6.96667 9.75 7.4V9H14.25Z" fill="black"/>
</g>
<defs>
<clipPath id="clip0_3191_41018">
<rect width="24" height="24" fill="white"/>
</clipPath>
</defs>
</svg>
