<svg width="24" height="24" viewBox="0 0 24 24" fill="none" xmlns="http://www.w3.org/2000/svg">
<g clip-path="url(#clip0_3191_41074)">
<rect width="24" height="24" fill="white"/>
<path d="M3.00049 9H7.00049V6.25C7.00049 5.3 7.21716 4.45 7.65049 3.7C8.08382 2.93333 8.67549 2.33333 9.42549 1.9C10.1922 1.46667 11.0505 1.25 12.0005 1.25C12.9505 1.25 13.8005 1.46667 14.5505 1.9C15.3172 2.33333 15.9172 2.93333 16.3505 3.7C16.7838 4.45 17.0005 5.3 17.0005 6.25V7H15.5755V6.25C15.5755 5.56667 15.4172 4.95 15.1005 4.4C14.8005 3.85 14.3755 3.425 13.8255 3.125C13.2922 2.80833 12.6838 2.65 12.0005 2.65C11.3172 2.65 10.7005 2.80833 10.1505 3.125C9.61716 3.425 9.19216 3.85 8.87549 4.4C8.57549 4.95 8.42549 5.56667 8.42549 6.25V9H21.0005V21H3.00049V9ZM19.5755 19.6V10.4H4.42549V19.6H19.5755Z" fill="black"/>
</g>
<defs>
<clipPath id="clip0_3191_41074">
<rect width="24" height="24" fill="white"/>
</clipPath>
</defs>
</svg>
