<svg width="24" height="24" viewBox="0 0 24 24" fill="none" xmlns="http://www.w3.org/2000/svg">
<g clip-path="url(#clip0_3191_41086)">
<rect width="24" height="24" fill="white"/>
<path d="M3 9H7V6.25C7 5.31667 7.21667 4.46667 7.65 3.7C8.08333 2.93333 8.68333 2.33333 9.45 1.9C10.2167 1.46667 11.0667 1.25 12 1.25C12.9333 1.25 13.7833 1.46667 14.55 1.9C15.3167 2.33333 15.9167 2.93333 16.35 3.7C16.7833 4.46667 17 5.31667 17 6.25V7H16.025V6.25C16.025 5.48333 15.85 4.79167 15.5 4.175C15.15 3.55833 14.6667 3.075 14.05 2.725C13.45 2.35833 12.7667 2.175 12 2.175C11.2333 2.175 10.5417 2.35833 9.925 2.725C9.325 3.075 8.85 3.55833 8.5 4.175C8.15 4.79167 7.975 5.48333 7.975 6.25V9H21V21H3V9Z" fill="black"/>
</g>
<defs>
<clipPath id="clip0_3191_41086">
<rect width="24" height="24" fill="white"/>
</clipPath>
</defs>
</svg>
