<svg width="24" height="24" viewBox="0 0 24 24" fill="none" xmlns="http://www.w3.org/2000/svg">
<g clip-path="url(#clip0_3191_41106)">
<rect width="24" height="24" fill="white"/>
<path d="M17.7505 20L12.2505 16.325H6.12549C5.24216 16.325 4.50049 16.025 3.90049 15.425C3.30049 14.825 3.00049 14.0833 3.00049 13.2V8.8C3.00049 7.91667 3.30049 7.175 3.90049 6.575C4.50049 5.975 5.24216 5.675 6.12549 5.675H12.2505L17.7505 2H21.0005V20H17.7505ZM6.37549 8.625C6.27549 8.625 6.19216 8.66667 6.12549 8.75C6.05882 8.81667 6.02549 8.90833 6.02549 9.025V12.975C6.02549 13.0917 6.05882 13.1917 6.12549 13.275C6.19216 13.3417 6.27549 13.375 6.37549 13.375H13.1255L18.6255 17.025L17.9755 17.425V4.5L18.6255 4.975L13.1255 8.625H6.37549ZM10.9755 14.8V21H8.00049V14.8H10.9755Z" fill="black"/>
</g>
<defs>
<clipPath id="clip0_3191_41106">
<rect width="24" height="24" fill="white"/>
</clipPath>
</defs>
</svg>
