<svg width="24" height="24" viewBox="0 0 24 24" fill="none" xmlns="http://www.w3.org/2000/svg">
<g clip-path="url(#clip0_3191_41098)">
<rect width="24" height="24" fill="white"/>
<path d="M19.8005 20L13.0755 15.675H5.20049C4.58382 15.675 4.05882 15.4583 3.62549 15.025C3.20882 14.5917 3.00049 14.0667 3.00049 13.45V8.55C3.00049 7.93333 3.20882 7.40833 3.62549 6.975C4.05882 6.54167 4.58382 6.325 5.20049 6.325H13.0755L19.8005 2H21.0005V20H19.8005ZM5.22549 7.275C4.87549 7.275 4.57549 7.4 4.32549 7.65C4.09216 7.9 3.97549 8.20833 3.97549 8.575V13.425C3.97549 13.7917 4.09216 14.1 4.32549 14.35C4.57549 14.6 4.87549 14.725 5.22549 14.725H13.3755L20.3255 19.225L20.0255 19.375V2.7L20.2755 2.825L13.3755 7.275H5.22549ZM8.97549 15.125V21H8.00049V15.125H8.97549Z" fill="black"/>
</g>
<defs>
<clipPath id="clip0_3191_41098">
<rect width="24" height="24" fill="white"/>
</clipPath>
</defs>
</svg>
