<svg width="24" height="24" viewBox="0 0 24 24" fill="none" xmlns="http://www.w3.org/2000/svg">
<g clip-path="url(#clip0_3191_41306)">
<rect width="24" height="24" fill="white"/>
<path d="M3.92549 20.1H7.45049V10.975C7.45049 10.125 7.65049 9.35833 8.05049 8.675C8.46716 7.975 9.01716 7.425 9.70049 7.025C10.4005 6.625 11.1672 6.425 12.0005 6.425C12.8338 6.425 13.5922 6.625 14.2755 7.025C14.9755 7.425 15.5255 7.975 15.9255 8.675C16.3422 9.35833 16.5505 10.125 16.5505 10.975V20.1H20.0755V10.975C20.0755 9.49167 19.7088 8.13333 18.9755 6.9C18.2588 5.66667 17.2838 4.69167 16.0505 3.975C14.8338 3.25833 13.4838 2.9 12.0005 2.9C10.5172 2.9 9.15882 3.25833 7.92549 3.975C6.70882 4.69167 5.73382 5.66667 5.00049 6.9C4.28382 8.13333 3.92549 9.49167 3.92549 10.975V20.1ZM3.00049 10.975C3.00049 9.325 3.40049 7.81667 4.20049 6.45C5.00049 5.06667 6.08382 3.98333 7.45049 3.2C8.83382 2.4 10.3505 2 12.0005 2C13.6505 2 15.1588 2.4 16.5255 3.2C17.9088 3.98333 19.0005 5.05833 19.8005 6.425C20.6005 7.79167 21.0005 9.30833 21.0005 10.975V21H15.6255V10.975C15.6255 10.2917 15.4588 9.675 15.1255 9.125C14.8088 8.55833 14.3755 8.11667 13.8255 7.8C13.2755 7.48333 12.6672 7.325 12.0005 7.325C11.3338 7.325 10.7255 7.48333 10.1755 7.8C9.62549 8.11667 9.18382 8.55833 8.85049 9.125C8.53382 9.675 8.37549 10.2917 8.37549 10.975V21H3.00049V10.975ZM8.00049 16.625V17.525H3.32549V16.625H8.00049ZM20.6005 16.625V17.525H16.0755V16.625H20.6005Z" fill="black"/>
</g>
<defs>
<clipPath id="clip0_3191_41306">
<rect width="24" height="24" fill="white"/>
</clipPath>
</defs>
</svg>
