<svg width="24" height="24" viewBox="0 0 24 24" fill="none" xmlns="http://www.w3.org/2000/svg">
<g clip-path="url(#clip0_3191_41312)">
<rect width="24" height="24" fill="white"/>
<path d="M5.27549 18.775H7.90049V10.95C7.90049 10.2 8.07549 9.51667 8.42549 8.9C8.79216 8.26667 9.29216 7.76667 9.92549 7.4C10.5588 7.03333 11.2505 6.85 12.0005 6.85C12.7505 6.85 13.4422 7.03333 14.0755 7.4C14.7088 7.76667 15.2005 8.26667 15.5505 8.9C15.9172 9.51667 16.1005 10.2 16.1005 10.95V18.775H18.7255V10.95C18.7255 9.71667 18.4255 8.59167 17.8255 7.575C17.2255 6.54167 16.4088 5.725 15.3755 5.125C14.3588 4.525 13.2338 4.225 12.0005 4.225C10.7672 4.225 9.63382 4.525 8.60049 5.125C7.58382 5.725 6.77549 6.54167 6.17549 7.575C5.57549 8.59167 5.27549 9.71667 5.27549 10.95V18.775ZM3.00049 10.95C3.00049 9.3 3.40049 7.79167 4.20049 6.425C5.00049 5.05833 6.08382 3.98333 7.45049 3.2C8.83382 2.4 10.3505 2 12.0005 2C13.6505 2 15.1588 2.4 16.5255 3.2C17.9088 3.98333 19.0005 5.05833 19.8005 6.425C20.6005 7.79167 21.0005 9.3 21.0005 10.95V21H13.8255V10.95C13.8255 10.6 13.7422 10.2833 13.5755 10C13.4255 9.71667 13.2088 9.49167 12.9255 9.325C12.6422 9.15833 12.3338 9.075 12.0005 9.075C11.6672 9.075 11.3588 9.15833 11.0755 9.325C10.7922 9.49167 10.5672 9.71667 10.4005 10C10.2505 10.2833 10.1755 10.6 10.1755 10.95V21H3.00049V10.95ZM8.97549 14.675V16.825H3.45049V14.675H8.97549ZM20.2505 14.675V16.825H15.2255V14.675H20.2505Z" fill="black"/>
</g>
<defs>
<clipPath id="clip0_3191_41312">
<rect width="24" height="24" fill="white"/>
</clipPath>
</defs>
</svg>
