<svg width="24" height="24" viewBox="0 0 24 24" fill="none" xmlns="http://www.w3.org/2000/svg">
<g clip-path="url(#clip0_3191_41308)">
<rect width="24" height="24" fill="white"/>
<path d="M4.37549 19.675H7.65049V10.95C7.65049 10.15 7.84216 9.425 8.22549 8.775C8.60882 8.10833 9.13382 7.58333 9.80049 7.2C10.4672 6.8 11.2005 6.6 12.0005 6.6C12.8005 6.6 13.5338 6.8 14.2005 7.2C14.8672 7.58333 15.3922 8.10833 15.7755 8.775C16.1588 9.425 16.3505 10.15 16.3505 10.95V19.675H19.6255V10.95C19.6255 9.55 19.2838 8.275 18.6005 7.125C17.9338 5.95833 17.0172 5.03333 15.8505 4.35C14.6838 3.66667 13.4005 3.325 12.0005 3.325C10.6005 3.325 9.31716 3.66667 8.15049 4.35C6.98382 5.03333 6.05882 5.95833 5.37549 7.125C4.70882 8.275 4.37549 9.55 4.37549 10.95V19.675ZM3.00049 10.95C3.00049 9.3 3.40049 7.79167 4.20049 6.425C5.00049 5.05833 6.08382 3.98333 7.45049 3.2C8.83382 2.4 10.3505 2 12.0005 2C13.6505 2 15.1588 2.4 16.5255 3.2C17.9088 3.98333 19.0005 5.05833 19.8005 6.425C20.6005 7.79167 21.0005 9.3 21.0005 10.95V21H14.9755V10.95C14.9755 10.4 14.8422 9.89167 14.5755 9.425C14.3255 8.95833 13.9672 8.59167 13.5005 8.325C13.0505 8.05833 12.5505 7.925 12.0005 7.925C11.4505 7.925 10.9422 8.05833 10.4755 8.325C10.0255 8.59167 9.66716 8.95833 9.40049 9.425C9.15049 9.89167 9.02549 10.4 9.02549 10.95V21H3.00049V10.95ZM8.47549 16V17.325H3.35049V16H8.47549ZM20.4505 16V17.325H15.6755V16H20.4505Z" fill="black"/>
</g>
<defs>
<clipPath id="clip0_3191_41308">
<rect width="24" height="24" fill="white"/>
</clipPath>
</defs>
</svg>
