<svg width="24" height="24" viewBox="0 0 24 24" fill="none" xmlns="http://www.w3.org/2000/svg">
<g clip-path="url(#clip0_3191_40857)">
<rect width="24" height="24" fill="white"/>
<path d="M20.5005 20L13.2755 15.5H4.85049C4.33382 15.5 3.89216 15.325 3.52549 14.975C3.17549 14.6083 3.00049 14.1667 3.00049 13.65V8.35C3.00049 7.83333 3.17549 7.4 3.52549 7.05C3.89216 6.68333 4.33382 6.5 4.85049 6.5H13.2755L20.5005 2H21.0005V20H20.5005ZM4.85049 6.975C4.46716 6.975 4.14216 7.10833 3.87549 7.375C3.62549 7.64167 3.50049 7.96667 3.50049 8.35V13.65C3.50049 14.0333 3.62549 14.3583 3.87549 14.625C4.14216 14.8917 4.46716 15.025 4.85049 15.025H13.4255L20.8505 19.675L20.5005 19.75V2.375H20.7755L13.4255 6.975H4.85049ZM8.50049 15.3V21H8.00049V15.3H8.50049Z" fill="black"/>
</g>
<defs>
<clipPath id="clip0_3191_40857">
<rect width="24" height="24" fill="white"/>
</clipPath>
</defs>
</svg>
