<svg width="24" height="24" viewBox="0 0 24 24" fill="none" xmlns="http://www.w3.org/2000/svg">
<g clip-path="url(#clip0_3191_41691)">
<rect width="24" height="24" fill="white"/>
<path d="M2.575 18.5L8.95 10.375L13.6 15.025L5.5 21.425L2.575 18.5ZM10.25 8.8C10.2 8 10.325 7.16667 10.625 6.3C10.925 5.43333 11.4 4.675 12.05 4.025C12.7667 3.30833 13.6 2.825 14.55 2.575C15.5167 2.30833 16.475 2.30833 17.425 2.575C18.3917 2.825 19.2417 3.30833 19.975 4.025C20.6917 4.74167 21.175 5.58333 21.425 6.55C21.6917 7.5 21.7 8.45833 21.45 9.425C21.2 10.375 20.7083 11.2167 19.975 11.95C19.3083 12.6167 18.5417 13.1 17.675 13.4C16.8083 13.6833 15.9667 13.7917 15.15 13.725L10.25 8.8Z" fill="black"/>
</g>
<defs>
<clipPath id="clip0_3191_41691">
<rect width="24" height="24" fill="white"/>
</clipPath>
</defs>
</svg>
