<svg width="24" height="24" viewBox="0 0 24 24" fill="none" xmlns="http://www.w3.org/2000/svg">
<g clip-path="url(#clip0_3354_2553)">
<rect width="24" height="24" fill="white"/>
<path d="M1.80049 17.7L10.2755 7.525L16.4505 13.7L6.27549 22.175L1.80049 17.7ZM13.6505 13.6L10.3755 10.325L4.35049 17.575L6.37549 19.625L13.6505 13.6ZM14.7755 12.675C15.4588 12.8083 16.1422 12.775 16.8255 12.575C17.5088 12.3583 18.1088 11.9917 18.6255 11.475C19.1755 10.925 19.5505 10.275 19.7505 9.525C19.9505 8.775 19.9505 8.03333 19.7505 7.3C19.5505 6.55 19.1755 5.9 18.6255 5.35C18.0755 4.8 17.4255 4.425 16.6755 4.225C15.9422 4.025 15.2005 4.025 14.4505 4.225C13.7172 4.425 13.0755 4.8 12.5255 5.35C12.0088 5.86667 11.6422 6.46667 11.4255 7.15C11.2255 7.81667 11.1838 8.48333 11.3005 9.15L9.45049 9.35C9.30049 8.4 9.37549 7.45833 9.67549 6.525C9.97549 5.59167 10.4755 4.75833 11.1755 4.025C11.9755 3.20833 12.9005 2.65833 13.9505 2.375C15.0172 2.09167 16.0838 2.1 17.1505 2.4C18.2172 2.68333 19.1588 3.225 19.9755 4.025C20.7755 4.825 21.3172 5.75833 21.6005 6.825C21.8838 7.89167 21.8838 8.95833 21.6005 10.025C21.3172 11.075 20.7755 12 19.9755 12.8C19.1922 13.5833 18.2838 14.125 17.2505 14.425C16.2338 14.7083 15.2088 14.725 14.1755 14.475L14.7755 12.675Z" fill="black"/>
</g>
<defs>
<clipPath id="clip0_3354_2553">
<rect width="24" height="24" fill="white"/>
</clipPath>
</defs>
</svg>
