<svg width="24" height="24" viewBox="0 0 24 24" fill="none" xmlns="http://www.w3.org/2000/svg">
<g clip-path="url(#clip0_3354_2555)">
<rect width="24" height="24" fill="white"/>
<path d="M1.62549 17.525L9.87549 7.55L16.4255 14.1L6.45049 22.35L1.62549 17.525ZM12.8505 13.975L10.0005 11.125L4.85049 17.375L6.60049 19.125L12.8505 13.975ZM14.4505 12.625C15.0838 12.775 15.7422 12.75 16.4255 12.55C17.1088 12.35 17.7005 12.0083 18.2005 11.525C18.7172 10.9917 19.0672 10.375 19.2505 9.675C19.4338 8.975 19.4338 8.275 19.2505 7.575C19.0672 6.875 18.7172 6.26667 18.2005 5.75C17.6838 5.23333 17.0755 4.89167 16.3755 4.725C15.6922 4.54167 15.0005 4.54167 14.3005 4.725C13.6005 4.90833 12.9922 5.26667 12.4755 5.8C11.9922 6.28333 11.6422 6.85833 11.4255 7.525C11.2255 8.19167 11.1922 8.83333 11.3255 9.45L8.87549 9.675C8.70882 8.69167 8.79216 7.69167 9.12549 6.675C9.45882 5.64167 9.98382 4.75833 10.7005 4.025C11.5505 3.15833 12.5338 2.58333 13.6505 2.3C14.7672 2 15.8838 2 17.0005 2.3C18.1172 2.6 19.1088 3.175 19.9755 4.025C20.8255 4.875 21.4005 5.86667 21.7005 7C22.0005 8.11667 22.0005 9.23333 21.7005 10.35C21.4005 11.45 20.8255 12.425 19.9755 13.275C19.1922 14.075 18.2422 14.6333 17.1255 14.95C16.0088 15.2667 14.9255 15.3 13.8755 15.05L14.4505 12.625Z" fill="black"/>
</g>
<defs>
<clipPath id="clip0_3354_2555">
<rect width="24" height="24" fill="white"/>
</clipPath>
</defs>
</svg>
