<svg width="24" height="24" viewBox="0 0 24 24" fill="none" xmlns="http://www.w3.org/2000/svg">
<g clip-path="url(#clip0_3191_41857)">
<rect width="24" height="24" fill="white"/>
<path d="M10.0005 22C8.58382 22 7.25882 21.5583 6.02549 20.675C4.79216 19.7917 3.80882 18.5833 3.07549 17.05C2.35882 15.5167 2.00049 13.8333 2.00049 12C2.00049 10.1333 2.44216 8.44167 3.32549 6.925C4.20882 5.39167 5.41716 4.19167 6.95049 3.325C8.48382 2.44167 10.1755 2 12.0255 2C13.8588 2 15.5338 2.43333 17.0505 3.3C18.5838 4.15 19.7922 5.31667 20.6755 6.8C21.5588 8.26667 22.0005 9.875 22.0005 11.625C22.0005 12.6583 21.8005 13.5667 21.4005 14.35C21.0005 15.1333 20.4505 15.7417 19.7505 16.175C19.0672 16.5917 18.3005 16.8 17.4505 16.8H14.5505C14.2838 16.8 14.0505 16.9 13.8505 17.1C13.6505 17.2833 13.5505 17.525 13.5505 17.825V18.875C13.5505 19.4417 13.4005 19.9667 13.1005 20.45C12.8172 20.9167 12.4005 21.2917 11.8505 21.575C11.3172 21.8583 10.7005 22 10.0005 22ZM10.0005 21.025C10.7672 21.025 11.3838 20.8167 11.8505 20.4C12.3172 19.9833 12.5505 19.475 12.5505 18.875V17.825C12.5505 17.275 12.7422 16.8083 13.1255 16.425C13.5255 16.025 14.0005 15.825 14.5505 15.825H17.4505C18.1172 15.825 18.7172 15.6583 19.2505 15.325C19.8005 14.975 20.2255 14.4833 20.5255 13.85C20.8422 13.2167 21.0005 12.475 21.0005 11.625C21.0005 10.0417 20.6005 8.59167 19.8005 7.275C19.0172 5.95833 17.9338 4.91667 16.5505 4.15C15.1838 3.36667 13.6755 2.975 12.0255 2.975C10.3755 2.975 8.85882 3.375 7.47549 4.175C6.09216 4.95833 5.00049 6.04167 4.20049 7.425C3.40049 8.79167 3.00049 10.3167 3.00049 12C3.00049 13.65 3.31716 15.1667 3.95049 16.55C4.60049 17.9333 5.45882 19.025 6.52549 19.825C7.60882 20.625 8.76716 21.025 10.0005 21.025ZM12.0255 8.3C11.4922 8.3 11.0255 8.10833 10.6255 7.725C10.2422 7.325 10.0505 6.85833 10.0505 6.325C10.0505 5.775 10.2422 5.30833 10.6255 4.925C11.0255 4.54167 11.4922 4.35 12.0255 4.35C12.5755 4.35 13.0422 4.54167 13.4255 4.925C13.8088 5.30833 14.0005 5.775 14.0005 6.325C14.0005 6.85833 13.8088 7.325 13.4255 7.725C13.0422 8.10833 12.5755 8.3 12.0255 8.3ZM12.0255 7.425C12.3255 7.425 12.5838 7.31667 12.8005 7.1C13.0172 6.88333 13.1255 6.625 13.1255 6.325C13.1255 6.025 13.0172 5.76667 12.8005 5.55C12.5838 5.33333 12.3255 5.225 12.0255 5.225C11.7255 5.225 11.4672 5.33333 11.2505 5.55C11.0338 5.76667 10.9255 6.025 10.9255 6.325C10.9255 6.625 11.0338 6.88333 11.2505 7.1C11.4672 7.31667 11.7255 7.425 12.0255 7.425ZM16.9505 11.025C16.4172 11.025 15.9588 10.8333 15.5755 10.45C15.1922 10.0667 15.0005 9.60833 15.0005 9.075C15.0005 8.525 15.1922 8.05833 15.5755 7.675C15.9588 7.29167 16.4172 7.1 16.9505 7.1C17.5005 7.1 17.9672 7.29167 18.3505 7.675C18.7338 8.05833 18.9255 8.525 18.9255 9.075C18.9255 9.60833 18.7338 10.0667 18.3505 10.45C17.9672 10.8333 17.5005 11.025 16.9505 11.025ZM16.9505 10.175C17.2672 10.175 17.5255 10.0667 17.7255 9.85C17.9422 9.63333 18.0505 9.375 18.0505 9.075C18.0505 8.75833 17.9422 8.5 17.7255 8.3C17.5255 8.08333 17.2672 7.975 16.9505 7.975C16.6505 7.975 16.3922 8.08333 16.1755 8.3C15.9588 8.5 15.8505 8.75833 15.8505 9.075C15.8505 9.375 15.9588 9.63333 16.1755 9.85C16.3922 10.0667 16.6505 10.175 16.9505 10.175ZM7.10049 11.025C6.55049 11.025 6.08382 10.8333 5.70049 10.45C5.31716 10.0667 5.12549 9.60833 5.12549 9.075C5.12549 8.525 5.31716 8.05833 5.70049 7.675C6.08382 7.29167 6.55049 7.1 7.10049 7.1C7.65049 7.1 8.10882 7.29167 8.47549 7.675C8.85882 8.05833 9.05049 8.525 9.05049 9.075C9.05049 9.60833 8.85882 10.0667 8.47549 10.45C8.10882 10.8333 7.65049 11.025 7.10049 11.025ZM7.10049 10.175C7.40049 10.175 7.65882 10.0667 7.87549 9.85C8.09216 9.63333 8.20049 9.375 8.20049 9.075C8.20049 8.75833 8.09216 8.5 7.87549 8.3C7.65882 8.08333 7.40049 7.975 7.10049 7.975C6.78382 7.975 6.51716 8.08333 6.30049 8.3C6.10049 8.5 6.00049 8.75833 6.00049 9.075C6.00049 9.375 6.10049 9.63333 6.30049 9.85C6.51716 10.0667 6.78382 10.175 7.10049 10.175ZM7.10049 16.675C6.55049 16.675 6.08382 16.4833 5.70049 16.1C5.31716 15.7167 5.12549 15.2583 5.12549 14.725C5.12549 14.175 5.31716 13.7083 5.70049 13.325C6.08382 12.9417 6.55049 12.75 7.10049 12.75C7.65049 12.75 8.10882 12.9417 8.47549 13.325C8.85882 13.7083 9.05049 14.175 9.05049 14.725C9.05049 15.2583 8.85882 15.7167 8.47549 16.1C8.10882 16.4833 7.65049 16.675 7.10049 16.675ZM7.10049 15.8C7.40049 15.8 7.65882 15.7 7.87549 15.5C8.09216 15.2833 8.20049 15.025 8.20049 14.725C8.20049 14.4083 8.09216 14.1417 7.87549 13.925C7.65882 13.7083 7.40049 13.6 7.10049 13.6C6.78382 13.6 6.51716 13.7083 6.30049 13.925C6.10049 14.1417 6.00049 14.4083 6.00049 14.725C6.00049 15.025 6.10049 15.2833 6.30049 15.5C6.51716 15.7 6.78382 15.8 7.10049 15.8Z" fill="black"/>
</g>
<defs>
<clipPath id="clip0_3191_41857">
<rect width="24" height="24" fill="white"/>
</clipPath>
</defs>
</svg>
