<svg width="24" height="24" viewBox="0 0 24 24" fill="none" xmlns="http://www.w3.org/2000/svg">
<g clip-path="url(#clip0_3191_41861)">
<rect width="24" height="24" fill="white"/>
<path d="M10.2755 22C8.85882 22 7.50882 21.55 6.22549 20.65C4.95882 19.75 3.93382 18.5333 3.15049 17C2.38382 15.4667 2.00049 13.8 2.00049 12C2.00049 10.1 2.45049 8.39167 3.35049 6.875C4.25049 5.34167 5.46716 4.15 7.00049 3.3C8.53382 2.43333 10.2088 2 12.0255 2C13.8755 2 15.5588 2.44167 17.0755 3.325C18.6088 4.20833 19.8088 5.39167 20.6755 6.875C21.5588 8.35833 22.0005 9.95833 22.0005 11.675C22.0005 12.925 21.7588 13.975 21.2755 14.825C20.8088 15.6583 20.1755 16.275 19.3755 16.675C18.5755 17.075 17.6838 17.275 16.7005 17.275H14.3755C14.3588 17.275 14.3505 17.275 14.3505 17.275C14.3505 17.275 14.3505 17.2833 14.3505 17.3V18C14.3505 18.7667 14.1755 19.4583 13.8255 20.075C13.4922 20.675 13.0172 21.1417 12.4005 21.475C11.7838 21.825 11.0755 22 10.2755 22ZM10.2755 20.2C11.0255 20.2 11.5838 19.9917 11.9505 19.575C12.3172 19.1417 12.5005 18.6167 12.5005 18V17.275C12.5005 16.7583 12.6755 16.3333 13.0255 16C13.3922 15.65 13.8338 15.475 14.3505 15.475H16.6755C17.3422 15.475 17.9338 15.35 18.4505 15.1C18.9838 14.8333 19.4005 14.4167 19.7005 13.85C20.0005 13.2833 20.1505 12.5583 20.1505 11.675C20.1505 10.275 19.7922 8.975 19.0755 7.775C18.3755 6.55833 17.4005 5.59167 16.1505 4.875C14.9172 4.15833 13.5422 3.8 12.0255 3.8C10.5255 3.8 9.15049 4.15 7.90049 4.85C6.66716 5.55 5.68382 6.525 4.95049 7.775C4.21716 9.025 3.85049 10.4333 3.85049 12C3.85049 13.4833 4.15882 14.8583 4.77549 16.125C5.39216 17.375 6.20049 18.3667 7.20049 19.1C8.20049 19.8333 9.22549 20.2 10.2755 20.2ZM12.0005 8.4C11.6172 8.4 11.2922 8.26667 11.0255 8C10.7588 7.73333 10.6255 7.40833 10.6255 7.025C10.6255 6.64167 10.7588 6.31667 11.0255 6.05C11.2922 5.78333 11.6172 5.65 12.0005 5.65C12.3838 5.65 12.7088 5.78333 12.9755 6.05C13.2422 6.31667 13.3755 6.64167 13.3755 7.025C13.3755 7.40833 13.2422 7.73333 12.9755 8C12.7088 8.26667 12.3838 8.4 12.0005 8.4ZM12.0005 7.025C11.8172 7.025 11.6838 7.025 11.6005 7.025C11.5172 7.025 11.3922 7.025 11.2255 7.025C11.4088 7.025 11.5422 7.025 11.6255 7.025C11.7088 7.025 11.8338 7.025 12.0005 7.025C12.1838 7.025 12.3172 7.025 12.4005 7.025C12.4838 7.025 12.6088 7.025 12.7755 7.025C12.5922 7.025 12.4588 7.025 12.3755 7.025C12.2922 7.025 12.1672 7.025 12.0005 7.025ZM16.3255 10.95C15.9422 10.95 15.6172 10.8167 15.3505 10.55C15.0838 10.2833 14.9505 9.95833 14.9505 9.575C14.9505 9.19167 15.0838 8.86667 15.3505 8.6C15.6172 8.33333 15.9422 8.2 16.3255 8.2C16.7088 8.2 17.0338 8.33333 17.3005 8.6C17.5672 8.86667 17.7005 9.19167 17.7005 9.575C17.7005 9.95833 17.5672 10.2833 17.3005 10.55C17.0338 10.8167 16.7088 10.95 16.3255 10.95ZM16.3255 9.575C16.1422 9.575 16.0088 9.575 15.9255 9.575C15.8422 9.575 15.7172 9.575 15.5505 9.575C15.7338 9.575 15.8672 9.575 15.9505 9.575C16.0338 9.575 16.1588 9.575 16.3255 9.575C16.5088 9.575 16.6422 9.575 16.7255 9.575C16.8088 9.575 16.9338 9.575 17.1005 9.575C16.9172 9.575 16.7838 9.575 16.7005 9.575C16.6172 9.575 16.4922 9.575 16.3255 9.575ZM7.67549 10.95C7.29216 10.95 6.96716 10.8167 6.70049 10.55C6.43382 10.2833 6.30049 9.95833 6.30049 9.575C6.30049 9.19167 6.43382 8.86667 6.70049 8.6C6.96716 8.33333 7.29216 8.2 7.67549 8.2C8.05882 8.2 8.38382 8.33333 8.65049 8.6C8.91716 8.86667 9.05049 9.19167 9.05049 9.575C9.05049 9.95833 8.91716 10.2833 8.65049 10.55C8.38382 10.8167 8.05882 10.95 7.67549 10.95ZM7.67549 9.575C7.47549 9.575 7.32549 9.575 7.22549 9.575C7.14216 9.575 7.00882 9.575 6.82549 9.575C7.02549 9.575 7.16716 9.575 7.25049 9.575C7.35049 9.575 7.49216 9.575 7.67549 9.575C7.87549 9.575 8.01716 9.575 8.10049 9.575C8.20049 9.575 8.34216 9.575 8.52549 9.575C8.32549 9.575 8.17549 9.575 8.07549 9.575C7.99216 9.575 7.85882 9.575 7.67549 9.575ZM7.67549 15.9C7.29216 15.9 6.96716 15.7667 6.70049 15.5C6.43382 15.2333 6.30049 14.9083 6.30049 14.525C6.30049 14.1417 6.43382 13.8167 6.70049 13.55C6.96716 13.2833 7.29216 13.15 7.67549 13.15C8.05882 13.15 8.38382 13.2833 8.65049 13.55C8.91716 13.8167 9.05049 14.1417 9.05049 14.525C9.05049 14.9083 8.91716 15.2333 8.65049 15.5C8.38382 15.7667 8.05882 15.9 7.67549 15.9ZM7.67549 14.525C7.47549 14.525 7.32549 14.525 7.22549 14.525C7.14216 14.525 7.00882 14.525 6.82549 14.525C7.02549 14.525 7.16716 14.525 7.25049 14.525C7.35049 14.525 7.49216 14.525 7.67549 14.525C7.87549 14.525 8.01716 14.525 8.10049 14.525C8.20049 14.525 8.34216 14.525 8.52549 14.525C8.32549 14.525 8.17549 14.525 8.07549 14.525C7.99216 14.525 7.85882 14.525 7.67549 14.525Z" fill="black"/>
</g>
<defs>
<clipPath id="clip0_3191_41861">
<rect width="24" height="24" fill="white"/>
</clipPath>
</defs>
</svg>
