<svg width="24" height="24" viewBox="0 0 24 24" fill="none" xmlns="http://www.w3.org/2000/svg">
<g clip-path="url(#clip0_3191_41865)">
<rect width="24" height="24" fill="white"/>
<path d="M10.6255 22C9.00882 22 7.54216 21.5583 6.22549 20.675C4.90882 19.7917 3.87549 18.5917 3.12549 17.075C2.37549 15.5417 2.00049 13.85 2.00049 12C2.00049 10.1667 2.44216 8.48333 3.32549 6.95C4.20882 5.41667 5.41716 4.20833 6.95049 3.325C8.48382 2.44167 10.1755 2 12.0255 2C13.8588 2 15.5338 2.43333 17.0505 3.3C18.5838 4.15 19.7922 5.31667 20.6755 6.8C21.5588 8.28333 22.0005 9.91667 22.0005 11.7C22.0005 12.7833 21.7422 13.775 21.2255 14.675C20.7255 15.5583 20.0422 16.2667 19.1755 16.8C18.3255 17.3333 17.3838 17.6 16.3505 17.6H14.3255C14.4255 17.6 14.5088 17.55 14.5755 17.45C14.6588 17.35 14.7005 17.2583 14.7005 17.175V17.975C14.7005 18.7083 14.5172 19.3917 14.1505 20.025C13.8005 20.6417 13.3088 21.125 12.6755 21.475C12.0422 21.825 11.3588 22 10.6255 22ZM10.6255 19.225C10.9755 19.225 11.2672 19.1 11.5005 18.85C11.7505 18.6 11.8755 18.3 11.8755 17.95V17.125C11.8755 16.475 12.1005 15.925 12.5505 15.475C13.0005 15.025 13.5588 14.8 14.2255 14.8H16.3505C16.8672 14.8 17.3338 14.6667 17.7505 14.4C18.1838 14.1167 18.5255 13.7417 18.7755 13.275C19.0255 12.7917 19.1505 12.2667 19.1505 11.7C19.1505 10.4167 18.8338 9.25 18.2005 8.2C17.5672 7.15 16.7005 6.31667 15.6005 5.7C14.5172 5.08333 13.3255 4.775 12.0255 4.775C10.7088 4.775 9.50049 5.1 8.40049 5.75C7.30049 6.38333 6.43382 7.25833 5.80049 8.375C5.16716 9.475 4.85049 10.6833 4.85049 12C4.85049 13.35 5.10049 14.575 5.60049 15.675C6.10049 16.775 6.78382 17.6417 7.65049 18.275C8.53382 18.9083 9.52549 19.225 10.6255 19.225ZM12.0255 9.675C11.5255 9.675 11.1088 9.50833 10.7755 9.175C10.4422 8.84167 10.2755 8.425 10.2755 7.925C10.2755 7.425 10.4422 7.00833 10.7755 6.675C11.1088 6.34167 11.5255 6.175 12.0255 6.175C12.5255 6.175 12.9422 6.34167 13.2755 6.675C13.6088 7.00833 13.7755 7.425 13.7755 7.925C13.7755 8.425 13.6088 8.84167 13.2755 9.175C12.9422 9.50833 12.5255 9.675 12.0255 9.675ZM12.0255 8.075C11.8255 8.075 11.6672 8.05 11.5505 8C11.4338 7.93333 11.3255 7.86667 11.2255 7.8C11.3422 7.71667 11.4505 7.65 11.5505 7.6C11.6672 7.55 11.8255 7.525 12.0255 7.525C12.2255 7.525 12.3755 7.55 12.4755 7.6C12.5922 7.65 12.7088 7.71667 12.8255 7.8C12.6922 7.86667 12.5672 7.93333 12.4505 8C12.3505 8.05 12.2088 8.075 12.0255 8.075ZM15.9505 13.2C15.4505 13.2 15.0338 13.0333 14.7005 12.7C14.3672 12.3667 14.2005 11.95 14.2005 11.45C14.2005 10.95 14.3672 10.5333 14.7005 10.2C15.0338 9.86667 15.4505 9.7 15.9505 9.7C16.4505 9.7 16.8672 9.86667 17.2005 10.2C17.5338 10.5333 17.7005 10.95 17.7005 11.45C17.7005 11.95 17.5338 12.3667 17.2005 12.7C16.8672 13.0333 16.4505 13.2 15.9505 13.2ZM16.0755 11.675C15.8755 11.675 15.7172 11.65 15.6005 11.6C15.5005 11.55 15.3922 11.4833 15.2755 11.4C15.4088 11.3167 15.5255 11.25 15.6255 11.2C15.7422 11.15 15.8922 11.125 16.0755 11.125C16.2755 11.125 16.4338 11.15 16.5505 11.2C16.6672 11.25 16.7755 11.3167 16.8755 11.4C16.7588 11.4833 16.6422 11.55 16.5255 11.6C16.4255 11.65 16.2755 11.675 16.0755 11.675ZM8.07549 13.2C7.57549 13.2 7.15882 13.0333 6.82549 12.7C6.49216 12.3667 6.32549 11.95 6.32549 11.45C6.32549 10.95 6.49216 10.5333 6.82549 10.2C7.15882 9.86667 7.57549 9.7 8.07549 9.7C8.57549 9.7 8.99216 9.86667 9.32549 10.2C9.65882 10.5333 9.82549 10.95 9.82549 11.45C9.82549 11.95 9.65882 12.3667 9.32549 12.7C8.99216 13.0333 8.57549 13.2 8.07549 13.2ZM7.95049 11.675C7.73382 11.675 7.56716 11.65 7.45049 11.6C7.33382 11.55 7.21716 11.4833 7.10049 11.4C7.23382 11.3167 7.35882 11.25 7.47549 11.2C7.59216 11.15 7.75049 11.125 7.95049 11.125C8.16716 11.125 8.33382 11.15 8.45049 11.2C8.56716 11.25 8.68382 11.3167 8.80049 11.4C8.66716 11.4833 8.54216 11.55 8.42549 11.6C8.30882 11.65 8.15049 11.675 7.95049 11.675ZM15.5005 16.575C15.1338 16.575 14.8588 16.575 14.6755 16.575C14.5088 16.575 14.2505 16.575 13.9005 16.575C14.2672 16.575 14.5338 16.575 14.7005 16.575C14.8838 16.575 15.1505 16.575 15.5005 16.575C15.8505 16.575 16.1088 16.575 16.2755 16.575C16.4588 16.575 16.7255 16.575 17.0755 16.575C16.7255 16.575 16.4588 16.575 16.2755 16.575C16.1088 16.575 15.8505 16.575 15.5005 16.575ZM15.0005 16.125C14.8005 16.125 14.6505 16.125 14.5505 16.125C14.4672 16.125 14.3338 16.125 14.1505 16.125C14.3505 16.125 14.4922 16.125 14.5755 16.125C14.6755 16.125 14.8172 16.125 15.0005 16.125C15.2005 16.125 15.3422 16.125 15.4255 16.125C15.5255 16.125 15.6672 16.125 15.8505 16.125C15.6505 16.125 15.5005 16.125 15.4005 16.125C15.3172 16.125 15.1838 16.125 15.0005 16.125Z" fill="black"/>
</g>
<defs>
<clipPath id="clip0_3191_41865">
<rect width="24" height="24" fill="white"/>
</clipPath>
</defs>
</svg>
