<svg width="24" height="24" viewBox="0 0 24 24" fill="none" xmlns="http://www.w3.org/2000/svg">
<g clip-path="url(#clip0_3191_41869)">
<rect width="24" height="24" fill="white"/>
<path d="M10.775 7.475C11.125 7.80833 11.5417 7.975 12.025 7.975C12.5083 7.975 12.9167 7.80833 13.25 7.475C13.6 7.125 13.775 6.70833 13.775 6.225C13.775 5.74167 13.6 5.33333 13.25 5C12.9167 4.65 12.5083 4.475 12.025 4.475C11.5417 4.475 11.125 4.65 10.775 5C10.4417 5.33333 10.275 5.74167 10.275 6.225C10.275 6.70833 10.4417 7.125 10.775 7.475ZM11.925 21.2C11.4917 21.7333 10.8167 22 9.9 22C8.6 22 7.34167 21.5583 6.125 20.675C4.90833 19.775 3.91667 18.5583 3.15 17.025C2.38333 15.4917 2 13.8167 2 12C2 10.0833 2.44167 8.36667 3.325 6.85C4.225 5.31667 5.44167 4.125 6.975 3.275C8.50833 2.425 10.1917 2 12.025 2C13.875 2 15.5583 2.44167 17.075 3.325C18.6083 4.19167 19.8083 5.35833 20.675 6.825C21.5583 8.29167 22 9.88333 22 11.6C22 13.2 21.6083 14.375 20.825 15.125C20.0417 15.875 19.0083 16.25 17.725 16.25H14.1C13.6833 16.25 13.325 16.3917 13.025 16.675C12.7417 16.9583 12.6 17.3167 12.6 17.75V19.3C12.6 20.05 12.375 20.6833 11.925 21.2ZM5.775 10.25C6.125 10.5833 6.54167 10.75 7.025 10.75C7.50833 10.75 7.91667 10.5833 8.25 10.25C8.6 9.9 8.775 9.48333 8.775 9C8.775 8.51667 8.6 8.10833 8.25 7.775C7.91667 7.425 7.50833 7.25 7.025 7.25C6.54167 7.25 6.125 7.425 5.775 7.775C5.44167 8.10833 5.275 8.51667 5.275 9C5.275 9.48333 5.44167 9.9 5.775 10.25ZM15.775 10.25C16.125 10.5833 16.5417 10.75 17.025 10.75C17.5083 10.75 17.9167 10.5833 18.25 10.25C18.6 9.9 18.775 9.48333 18.775 9C18.775 8.51667 18.6 8.10833 18.25 7.775C17.9167 7.425 17.5083 7.25 17.025 7.25C16.5417 7.25 16.125 7.425 15.775 7.775C15.4417 8.10833 15.275 8.51667 15.275 9C15.275 9.48333 15.4417 9.9 15.775 10.25ZM5.775 15.975C6.125 16.3083 6.54167 16.475 7.025 16.475C7.50833 16.475 7.91667 16.3083 8.25 15.975C8.6 15.625 8.775 15.2083 8.775 14.725C8.775 14.2417 8.6 13.8333 8.25 13.5C7.91667 13.15 7.50833 12.975 7.025 12.975C6.54167 12.975 6.125 13.15 5.775 13.5C5.44167 13.8333 5.275 14.2417 5.275 14.725C5.275 15.2083 5.44167 15.625 5.775 15.975Z" fill="black"/>
</g>
<defs>
<clipPath id="clip0_3191_41869">
<rect width="24" height="24" fill="white"/>
</clipPath>
</defs>
</svg>
