<svg width="24" height="24" viewBox="0 0 24 24" fill="none" xmlns="http://www.w3.org/2000/svg">
<g clip-path="url(#clip0_3191_40885)">
<rect width="24" height="24" fill="white"/>
<path d="M10.3755 21.525H13.6255L18.8505 13.95C19.5505 12.95 19.8755 11.8833 19.8255 10.75C19.7922 9.61667 19.3672 8.64167 18.5505 7.825L16.5255 5.775V2.475H7.47549V5.775L5.45049 7.825C4.63382 8.65833 4.20882 9.64167 4.17549 10.775C4.14216 11.9083 4.46716 12.9667 5.15049 13.95L10.3755 21.525ZM4.75049 14.225C4.26716 13.525 3.94216 12.775 3.77549 11.975C3.62549 11.1583 3.65882 10.3667 3.87549 9.6C4.09216 8.81667 4.50049 8.11667 5.10049 7.5L6.97549 5.575V2H17.0255V5.575L18.9005 7.5C19.5005 8.1 19.9088 8.79167 20.1255 9.575C20.3588 10.3417 20.3922 11.1333 20.2255 11.95C20.0755 12.75 19.7505 13.5083 19.2505 14.225L13.9005 22H10.1005L4.75049 14.225ZM12.0005 14.225C11.1672 14.225 10.4588 13.9417 9.87549 13.375C9.29216 12.7917 9.00049 12.0833 9.00049 11.25C9.00049 10.4167 9.29216 9.71667 9.87549 9.15C10.4588 8.56667 11.1672 8.275 12.0005 8.275C12.8338 8.275 13.5422 8.56667 14.1255 9.15C14.7088 9.71667 15.0005 10.4167 15.0005 11.25C15.0005 12.0833 14.7088 12.7917 14.1255 13.375C13.5422 13.9417 12.8338 14.225 12.0005 14.225ZM12.0005 13.775C12.7172 13.775 13.3172 13.5333 13.8005 13.05C14.2838 12.5667 14.5255 11.9667 14.5255 11.25C14.5255 10.5333 14.2838 9.93333 13.8005 9.45C13.3172 8.96667 12.7172 8.725 12.0005 8.725C11.2838 8.725 10.6838 8.96667 10.2005 9.45C9.71716 9.93333 9.47549 10.5333 9.47549 11.25C9.47549 11.9667 9.71716 12.5667 10.2005 13.05C10.6838 13.5333 11.2838 13.775 12.0005 13.775ZM12.2505 14V21.8H11.7505V14H12.2505Z" fill="black"/>
</g>
<defs>
<clipPath id="clip0_3191_40885">
<rect width="24" height="24" fill="white"/>
</clipPath>
</defs>
</svg>
