<svg width="24" height="24" viewBox="0 0 24 24" fill="none" xmlns="http://www.w3.org/2000/svg">
<g clip-path="url(#clip0_3191_41851)">
<rect width="24" height="24" fill="white"/>
<path d="M5.775 16.525C5.125 15.5417 4.60833 14.5167 4.225 13.45C3.85833 12.3667 3.675 11.375 3.675 10.475C3.675 9.80833 3.85 9.10833 4.2 8.375C4.56667 7.64167 5.075 6.96667 5.725 6.35C6.39167 5.73333 7.15 5.26667 8 4.95V2H16V4.95C16.85 5.26667 17.6 5.73333 18.25 6.35C18.9167 6.96667 19.425 7.64167 19.775 8.375C20.1417 9.10833 20.325 9.80833 20.325 10.475C20.325 11.3583 20.1333 12.3333 19.75 13.4C19.3833 14.4667 18.8667 15.5083 18.2 16.525L14.625 22H12.925V14.3C13.3917 14.1167 13.7667 13.8167 14.05 13.4C14.35 12.9833 14.5 12.5167 14.5 12C14.5 11.3167 14.2583 10.7333 13.775 10.25C13.2917 9.76667 12.7 9.525 12 9.525C11.3 9.525 10.7083 9.76667 10.225 10.25C9.74167 10.7333 9.5 11.3167 9.5 12C9.5 12.5167 9.64167 12.9833 9.925 13.4C10.225 13.8167 10.6083 14.1167 11.075 14.3V22H9.375L5.775 16.525Z" fill="black"/>
</g>
<defs>
<clipPath id="clip0_3191_41851">
<rect width="24" height="24" fill="white"/>
</clipPath>
</defs>
</svg>
