<svg width="24" height="24" viewBox="0 0 24 24" fill="none" xmlns="http://www.w3.org/2000/svg">
<g clip-path="url(#clip0_3191_41835)">
<rect width="24" height="24" fill="white"/>
<path d="M11.0755 20.2H12.9255L17.6505 13.45C18.3005 12.5333 18.5588 11.5 18.4255 10.35C18.3088 9.2 17.7922 8.16667 16.8755 7.25L15.1755 5.55V3.8H8.82549V5.55L7.12549 7.25C6.22549 8.15 5.70882 9.18333 5.57549 10.35C5.44216 11.5 5.70049 12.5333 6.35049 13.45L11.0755 20.2ZM4.82549 14.475C4.24216 13.6417 3.88382 12.725 3.75049 11.725C3.61716 10.7083 3.72549 9.7 4.07549 8.7C4.42549 7.7 5.00882 6.79167 5.82549 5.975L6.97549 4.825V2H17.0255V4.825L18.1755 5.975C18.9922 6.79167 19.5755 7.7 19.9255 8.7C20.2755 9.7 20.3838 10.7083 20.2505 11.725C20.1172 12.725 19.7588 13.6417 19.1755 14.475L13.9005 22H10.1005L4.82549 14.475ZM12.0005 14.475C11.1672 14.475 10.4588 14.1917 9.87549 13.625C9.29216 13.0417 9.00049 12.3333 9.00049 11.5C9.00049 10.6667 9.29216 9.96667 9.87549 9.4C10.4588 8.81667 11.1672 8.525 12.0005 8.525C12.8338 8.525 13.5422 8.81667 14.1255 9.4C14.7088 9.96667 15.0005 10.6667 15.0005 11.5C15.0005 12.3333 14.7088 13.0417 14.1255 13.625C13.5422 14.1917 12.8338 14.475 12.0005 14.475ZM12.0005 12.8C12.3838 12.8 12.6922 12.675 12.9255 12.425C13.1755 12.175 13.3005 11.8667 13.3005 11.5C13.3005 11.1167 13.1755 10.8083 12.9255 10.575C12.6922 10.325 12.3838 10.2 12.0005 10.2C11.6338 10.2 11.3255 10.325 11.0755 10.575C10.8255 10.8083 10.7005 11.1167 10.7005 11.5C10.7005 11.8667 10.8255 12.175 11.0755 12.425C11.3255 12.675 11.6338 12.8 12.0005 12.8ZM12.9255 13.1V21.025H11.0755V13.1H12.9255Z" fill="black"/>
</g>
<defs>
<clipPath id="clip0_3191_41835">
<rect width="24" height="24" fill="white"/>
</clipPath>
</defs>
</svg>
