<svg width="24" height="24" viewBox="0 0 24 24" fill="none" xmlns="http://www.w3.org/2000/svg">
<g clip-path="url(#clip0_3191_40918)">
<rect width="24" height="24" fill="white"/>
<path d="M4.17549 15.575V12.975C4.17549 12.4417 4.30882 11.9333 4.57549 11.45C4.84216 10.95 5.20882 10.575 5.67549 10.325L6.95049 9.625V3.925C6.95049 3.39167 7.08382 2.9 7.35049 2.45C7.61715 2 7.97549 1.65 8.42549 1.4C8.87549 1.13333 9.37549 1 9.92549 1H14.1005C14.9338 1 15.6338 1.28333 16.2005 1.85C16.7672 2.41667 17.0505 3.10833 17.0505 3.925V9.625L18.3255 10.325C18.7922 10.5917 19.1588 10.9667 19.4255 11.45C19.6922 11.9333 19.8255 12.4417 19.8255 12.975V15.575H4.17549ZM11.2755 23.375V14.925H12.7255V23.375L12.0005 24.075L11.2755 23.375ZM18.4005 12.975C18.4005 12.6917 18.3255 12.4167 18.1755 12.15C18.0255 11.8667 17.8255 11.6583 17.5755 11.525L15.6255 10.4V3.925C15.6255 3.50833 15.4755 3.15 15.1755 2.85C14.8922 2.55 14.5338 2.4 14.1005 2.4H9.92549C9.49216 2.4 9.12549 2.55 8.82549 2.85C8.52549 3.13333 8.37549 3.49167 8.37549 3.925V10.4L6.42549 11.525C6.17549 11.6583 5.97549 11.8667 5.82549 12.15C5.67549 12.4167 5.60049 12.6917 5.60049 12.975V14.2H18.4005V12.975Z" fill="black"/>
</g>
<defs>
<clipPath id="clip0_3191_40918">
<rect width="24" height="24" fill="white"/>
</clipPath>
</defs>
</svg>
