<svg width="24" height="24" viewBox="0 0 24 24" fill="none" xmlns="http://www.w3.org/2000/svg">
<g clip-path="url(#clip0_3191_40926)">
<rect width="24" height="24" fill="white"/>
<path d="M4.00049 17V11.375C4.00049 10.875 4.10882 10.4167 4.32549 10C4.54216 9.58333 4.85882 9.25833 5.27549 9.025L6.45049 8.375V4.3C6.45049 3.7 6.60049 3.15 6.90049 2.65C7.20049 2.13333 7.60882 1.73333 8.12549 1.45C8.65882 1.15 9.23382 1 9.85049 1H14.1755C15.1255 1 15.9255 1.31667 16.5755 1.95C17.2255 2.58333 17.5505 3.36667 17.5505 4.3V8.375L18.7255 9.025C19.1422 9.25833 19.4588 9.58333 19.6755 10C19.8922 10.4167 20.0005 10.875 20.0005 11.375V17H4.00049ZM10.1755 22.325V16.175H13.7755V22.35L12.0005 24.075L10.1755 22.325ZM16.4505 12.2C16.4505 12.1 16.4172 11.9917 16.3505 11.875C16.2838 11.7583 16.1922 11.6667 16.0755 11.6L14.0005 10.4V4.65C14.0005 4.61667 13.9838 4.58333 13.9505 4.55C13.9172 4.51667 13.8838 4.5 13.8505 4.5H10.1505C10.1172 4.5 10.0838 4.51667 10.0505 4.55C10.0172 4.58333 10.0005 4.61667 10.0005 4.65V10.4L7.92549 11.6C7.80882 11.6667 7.71716 11.7583 7.65049 11.875C7.58382 11.9917 7.55049 12.1 7.55049 12.2V13.5H16.4505V12.2Z" fill="black"/>
</g>
<defs>
<clipPath id="clip0_3191_40926">
<rect width="24" height="24" fill="white"/>
</clipPath>
</defs>
</svg>
