<svg width="24" height="24" viewBox="0 0 24 24" fill="none" xmlns="http://www.w3.org/2000/svg">
<g clip-path="url(#clip0_3191_41046)">
<rect width="24" height="24" fill="white"/>
<path d="M3.00049 4H8.37549L8.12549 4.425C8.12549 3.80833 8.27549 3.24167 8.57549 2.725C8.87549 2.20833 9.28382 1.8 9.80049 1.5C10.3338 1.2 10.9088 1.05 11.5255 1.05C12.1422 1.05 12.7088 1.2 13.2255 1.5C13.7588 1.8 14.1755 2.20833 14.4755 2.725C14.7755 3.24167 14.9255 3.80833 14.9255 4.425L14.6505 4H20.0005V9.575L19.5255 9.1C20.1422 9.1 20.7088 9.25 21.2255 9.55C21.7588 9.85 22.1755 10.2583 22.4755 10.775C22.7755 11.2917 22.9255 11.8667 22.9255 12.5C22.9255 13.1167 22.7755 13.6917 22.4755 14.225C22.1755 14.7417 21.7588 15.15 21.2255 15.45C20.7088 15.75 20.1422 15.9 19.5255 15.9L20.0005 15.425V21H14.0005V20.475C14.0005 19.775 13.7588 19.1917 13.2755 18.725C12.7922 18.2417 12.2088 18 11.5255 18C10.8422 18 10.2588 18.2417 9.77549 18.725C9.29216 19.1917 9.05049 19.775 9.05049 20.475V21H3.00049V4ZM8.57549 20.075L8.12549 20.475C8.12549 19.8583 8.27549 19.2917 8.57549 18.775C8.87549 18.2417 9.28382 17.825 9.80049 17.525C10.3338 17.225 10.9088 17.075 11.5255 17.075C12.1422 17.075 12.7088 17.225 13.2255 17.525C13.7588 17.825 14.1755 18.2333 14.4755 18.75C14.7755 19.2667 14.9255 19.8333 14.9255 20.45L14.5505 20.075H19.0255V14.975H19.5255C20.2088 14.975 20.7838 14.7417 21.2505 14.275C21.7338 13.7917 21.9755 13.2 21.9755 12.5C21.9755 11.8 21.7338 11.2167 21.2505 10.75C20.7838 10.2667 20.2088 10.025 19.5255 10.025H19.0255V4.925H14.0005V4.425C14.0005 3.74167 13.7588 3.16667 13.2755 2.7C12.7922 2.21667 12.2088 1.975 11.5255 1.975C10.8422 1.975 10.2588 2.21667 9.77549 2.7C9.29216 3.16667 9.05049 3.74167 9.05049 4.425V4.925H3.97549V20.075H8.57549Z" fill="black"/>
</g>
<defs>
<clipPath id="clip0_3191_41046">
<rect width="24" height="24" fill="white"/>
</clipPath>
</defs>
</svg>
