<svg width="24" height="24" viewBox="0 0 24 24" fill="none" xmlns="http://www.w3.org/2000/svg">
<g clip-path="url(#clip0_3191_41282)">
<rect width="24" height="24" fill="white"/>
<path d="M11.1505 7.375L13.5755 9.8L12.6505 10.75L10.2005 8.325L11.1505 7.375ZM14.0255 4.5L16.4505 6.95L15.5005 7.875L13.1005 5.45L14.0255 4.5ZM5.47549 13.075L7.87549 15.5L6.95049 16.45L4.52549 14.025L5.47549 13.075ZM8.32549 10.225L10.7505 12.675L9.80049 13.6L7.37549 11.15L8.32549 10.225ZM7.57549 20.875L20.8755 7.575L16.4005 3.1L3.12549 16.4L7.57549 20.875ZM16.4255 1.225L22.7755 7.575L7.57549 22.775L1.22549 16.425L16.4255 1.225Z" fill="black"/>
</g>
<defs>
<clipPath id="clip0_3191_41282">
<rect width="24" height="24" fill="white"/>
</clipPath>
</defs>
</svg>
