<svg width="24" height="24" viewBox="0 0 24 24" fill="none" xmlns="http://www.w3.org/2000/svg">
<g clip-path="url(#clip0_3191_41406)">
<rect width="24" height="24" fill="white"/>
<path d="M8.675 9.175H5.875L4.825 3.5L5.875 1.425L7.575 3L8.675 9.175ZM18.125 9.175H15.3L16.525 2.125L19.275 2.575L18.125 9.175ZM13.45 9.175H10.625L11.85 2.125L14.6 2.575L13.45 9.175ZM6.5 22C5.8 22 5.20833 21.7583 4.725 21.275C4.24167 20.7917 4 20.2 4 19.5V11H20V19.5C20 20.2 19.7583 20.7917 19.275 21.275C18.7917 21.7583 18.2 22 17.5 22H6.5Z" fill="black"/>
</g>
<defs>
<clipPath id="clip0_3191_41406">
<rect width="24" height="24" fill="white"/>
</clipPath>
</defs>
</svg>
