<svg width="24" height="24" viewBox="0 0 24 24" fill="none" xmlns="http://www.w3.org/2000/svg">
<g clip-path="url(#clip0_3388_8743)">
<rect width="24" height="24" fill="white"/>
<path d="M8.6 10.525H6.675L5.325 2.9L6.025 1.425L7.2 2.575L8.6 10.525ZM17.375 10.525H15.475L17 1.675L18.85 2L17.375 10.525ZM13.375 10.525H11.475L13 1.675L14.85 2L13.375 10.525ZM6.5 22C5.8 22 5.20833 21.7583 4.725 21.275C4.24167 20.7917 4 20.2 4 19.5V11H20V19.5C20 20.2 19.7583 20.7917 19.275 21.275C18.7917 21.7583 18.2 22 17.5 22H6.5Z" fill="black"/>
</g>
<defs>
<clipPath id="clip0_3388_8743">
<rect width="24" height="24" fill="white"/>
</clipPath>
</defs>
</svg>
