<svg width="24" height="24" viewBox="0 0 24 24" fill="none" xmlns="http://www.w3.org/2000/svg">
<g clip-path="url(#clip0_3191_41386)">
<rect width="24" height="24" fill="white"/>
<path d="M6.65049 22C6.16716 22 5.72549 21.8833 5.32549 21.65C4.92549 21.4167 4.60049 21.1 4.35049 20.7C4.11716 20.2833 4.00049 19.825 4.00049 19.325V9.325H20.0005V19.325C20.0005 19.825 19.8755 20.2833 19.6255 20.7C19.3922 21.1 19.0755 21.4167 18.6755 21.65C18.2755 21.8833 17.8338 22 17.3505 22H6.65049ZM5.47549 10.75V19.35C5.47549 19.7 5.58382 19.9917 5.80049 20.225C6.03382 20.4583 6.32549 20.575 6.67549 20.575H17.3255C17.6755 20.575 17.9588 20.4583 18.1755 20.225C18.4088 19.9917 18.5255 19.7 18.5255 19.35V10.75H5.47549ZM8.27549 9.675L7.87549 9.925H7.72549H7.65049H7.62549H7.75049L6.82549 10L5.50049 2.9L5.97549 1.425L6.97549 2.625L8.27549 9.675ZM17.2255 9.825H16.0255H16.1505H16.0505H15.9255H15.7505L17.1755 1.675L18.5755 1.925L17.2255 9.825ZM13.5505 9.825H12.3755H12.5005H12.4005H12.2505H12.0755L13.5005 1.675L14.9255 1.925L13.5505 9.825Z" fill="black"/>
</g>
<defs>
<clipPath id="clip0_3191_41386">
<rect width="24" height="24" fill="white"/>
</clipPath>
</defs>
</svg>
