<svg width="24" height="24" viewBox="0 0 24 24" fill="none" xmlns="http://www.w3.org/2000/svg">
<g clip-path="url(#clip0_3191_41410)">
<rect width="24" height="24" fill="white"/>
<path d="M6.00049 10.325H2.65049L1.25049 5L6.75049 3H17.2505L22.7505 5L21.3505 10.325H18.0005V21H6.00049V10.325ZM17.0505 20.075V9.425H20.6005L21.6255 5.575L17.1005 3.925H6.90049L2.37549 5.575L3.40049 9.425H6.95049V20.075H17.0505ZM12.0005 7.075C11.4005 7.075 10.8422 6.93333 10.3255 6.65C9.82549 6.36667 9.42549 5.975 9.12549 5.475C8.84216 4.975 8.70049 4.425 8.70049 3.825H9.62549C9.62549 4.49167 9.85049 5.05833 10.3005 5.525C10.7672 5.975 11.3338 6.2 12.0005 6.2C12.6672 6.2 13.2338 5.975 13.7005 5.525C14.1672 5.05833 14.4005 4.49167 14.4005 3.825H15.3005C15.3005 4.425 15.1505 4.975 14.8505 5.475C14.5672 5.975 14.1672 6.36667 13.6505 6.65C13.1505 6.93333 12.6005 7.075 12.0005 7.075Z" fill="black"/>
</g>
<defs>
<clipPath id="clip0_3191_41410">
<rect width="24" height="24" fill="white"/>
</clipPath>
</defs>
</svg>
