<svg width="24" height="24" viewBox="0 0 24 24" fill="none" xmlns="http://www.w3.org/2000/svg">
<g clip-path="url(#clip0_3191_40881)">
<rect width="24" height="24" fill="white"/>
<path d="M6.00049 10H2.55049L1.25049 5L6.75049 3H17.2505L22.7505 5L21.4505 10H18.0005V21H6.00049V10ZM17.5005 20.525V9.525H21.0505L22.1505 5.3L17.2005 3.475H6.80049L1.85049 5.3L2.95049 9.525H6.50049V20.525H17.5005ZM12.0005 6.525C11.4172 6.525 10.8838 6.39167 10.4005 6.125C9.91716 5.84167 9.53382 5.45833 9.25049 4.975C8.98382 4.49167 8.85049 3.96667 8.85049 3.4H9.32549C9.32549 4.13333 9.58382 4.75833 10.1005 5.275C10.6172 5.79167 11.2505 6.05 12.0005 6.05C12.7505 6.05 13.3838 5.79167 13.9005 5.275C14.4338 4.75833 14.7005 4.13333 14.7005 3.4H15.1755C15.1755 3.96667 15.0338 4.49167 14.7505 4.975C14.4672 5.45833 14.0838 5.84167 13.6005 6.125C13.1172 6.39167 12.5838 6.525 12.0005 6.525Z" fill="black"/>
</g>
<defs>
<clipPath id="clip0_3191_40881">
<rect width="24" height="24" fill="white"/>
</clipPath>
</defs>
</svg>
