<svg width="24" height="24" viewBox="0 0 24 24" fill="none" xmlns="http://www.w3.org/2000/svg">
<g clip-path="url(#clip0_3374_5116)">
<rect width="24" height="24" fill="white"/>
<path d="M5.50049 13.2H2.55049L1.25049 5L7.22549 3H16.7755L22.7505 5L21.4505 13.2H18.5005V21H5.50049V13.2ZM14.9255 17.475V9.675H18.5005L18.8005 7.4L16.2005 6.525H7.80049L5.20049 7.4L5.50049 9.675H9.07549V17.475H14.9255ZM12.0005 8.325C11.5838 8.325 11.1922 8.21667 10.8255 8C10.4588 7.78333 10.1588 7.49167 9.92549 7.125C9.70882 6.75833 9.60049 6.35833 9.60049 5.925H11.0005C11.2838 5.925 11.4922 5.925 11.6255 5.925C11.7755 5.925 11.9838 5.925 12.2505 5.925C12.5338 5.925 12.7422 5.925 12.8755 5.925C13.0088 5.925 13.2088 5.925 13.4755 5.925H14.4005C14.4005 6.35833 14.2922 6.75833 14.0755 7.125C13.8755 7.49167 13.5922 7.78333 13.2255 8C12.8588 8.21667 12.4505 8.325 12.0005 8.325Z" fill="black"/>
</g>
<defs>
<clipPath id="clip0_3374_5116">
<rect width="24" height="24" fill="white"/>
</clipPath>
</defs>
</svg>
