<svg width="24" height="24" viewBox="0 0 24 24" fill="none" xmlns="http://www.w3.org/2000/svg">
<g clip-path="url(#clip0_3191_41414)">
<rect width="24" height="24" fill="white"/>
<path d="M6.00049 11H2.82549L1.25049 5L6.75049 3H17.2505L22.7505 5L21.1755 11H18.0005V21H6.00049V11ZM16.1505 19.2V9.2H19.7255L20.5505 6.125L16.9255 4.8H7.07549L3.45049 6.125L4.27549 9.2H7.85049V19.2H16.1505ZM12.0005 8.2C11.3505 8.2 10.7505 8.05 10.2005 7.75C9.65049 7.43333 9.21716 7.00833 8.90049 6.475C8.58382 5.925 8.42549 5.33333 8.42549 4.7H10.2005C10.2005 5.2 10.3755 5.625 10.7255 5.975C11.0755 6.325 11.5005 6.5 12.0005 6.5C12.5005 6.5 12.9255 6.325 13.2755 5.975C13.6255 5.625 13.8005 5.2 13.8005 4.7H15.5755C15.5755 5.33333 15.4172 5.925 15.1005 6.475C14.7838 7.00833 14.3505 7.43333 13.8005 7.75C13.2505 8.05 12.6505 8.2 12.0005 8.2Z" fill="black"/>
</g>
<defs>
<clipPath id="clip0_3191_41414">
<rect width="24" height="24" fill="white"/>
</clipPath>
</defs>
</svg>
