<svg width="24" height="24" viewBox="0 0 24 24" fill="none" xmlns="http://www.w3.org/2000/svg">
<g clip-path="url(#clip0_3191_41416)">
<rect width="24" height="24" fill="white"/>
<path d="M6.00049 11.325H2.65049L1.25049 5L7.45049 3H16.5505L22.7505 5L21.3505 11.325H18.0005V21H6.00049V11.325ZM15.7755 18.825V9.175H19.5505L20.1755 6.375L16.4255 5.175H7.57549L3.82549 6.375L4.45049 9.175H8.22549V18.825H15.7755ZM12.0005 8.55C11.3005 8.55 10.6672 8.39167 10.1005 8.075C9.53382 7.75833 9.08382 7.325 8.75049 6.775C8.41716 6.20833 8.25049 5.59167 8.25049 4.925H10.3755C10.3755 5.35833 10.5338 5.73333 10.8505 6.05C11.1672 6.36667 11.5505 6.525 12.0005 6.525C12.4505 6.525 12.8338 6.36667 13.1505 6.05C13.4672 5.73333 13.6255 5.35833 13.6255 4.925H15.7505C15.7338 5.59167 15.5505 6.20833 15.2005 6.775C14.8672 7.325 14.4172 7.75833 13.8505 8.075C13.2838 8.39167 12.6672 8.55 12.0005 8.55Z" fill="black"/>
</g>
<defs>
<clipPath id="clip0_3191_41416">
<rect width="24" height="24" fill="white"/>
</clipPath>
</defs>
</svg>
