<svg width="24" height="24" viewBox="0 0 24 24" fill="none" xmlns="http://www.w3.org/2000/svg">
<g clip-path="url(#clip0_3191_41230)">
<rect width="24" height="24" fill="white"/>
<path d="M19.7005 7.775L16.6505 10.825L12.4255 6.6L15.4755 3.55L14.1005 2.175L10.7755 4.1C10.0088 4.53333 9.53382 5.16667 9.35049 6C9.16716 6.83333 9.26716 7.69167 9.65049 8.575L10.1255 9.7L3.37549 16.45C2.87549 16.95 2.61716 17.5417 2.60049 18.225C2.60049 18.8917 2.83382 19.4583 3.30049 19.925C3.78382 20.4083 4.35882 20.65 5.02549 20.65C5.70882 20.6333 6.30049 20.375 6.80049 19.875L13.5505 13.125L14.6755 13.6C15.5588 13.9833 16.4172 14.0833 17.2505 13.9C18.0838 13.7167 18.7172 13.2417 19.1505 12.475L21.0755 9.15L19.7005 7.775ZM20.3505 13.125C19.9672 13.8083 19.4505 14.3417 18.8005 14.725C18.1505 15.1083 17.4255 15.325 16.6255 15.375C15.8422 15.4083 15.1005 15.275 14.4005 14.975L13.8505 14.775L7.77549 20.85C7.27549 21.35 6.69216 21.6917 6.02549 21.875C5.37549 22.075 4.71716 22.0917 4.05049 21.925C3.38382 21.7583 2.80049 21.425 2.30049 20.925C1.81716 20.4417 1.49215 19.8667 1.32549 19.2C1.15882 18.5333 1.16715 17.875 1.35049 17.225C1.55049 16.5583 1.90049 15.975 2.40049 15.475L8.47549 9.4L8.27549 8.85C7.95882 8.13333 7.82549 7.38333 7.87549 6.6C7.92549 5.81667 8.14216 5.1 8.52549 4.45C8.90882 3.8 9.44216 3.28333 10.1255 2.9L14.4005 0.474999L17.4255 3.5L14.3255 6.6L16.6255 8.9L19.7255 5.8L22.7755 8.85L20.3505 13.125Z" fill="black"/>
</g>
<defs>
<clipPath id="clip0_3191_41230">
<rect width="24" height="24" fill="white"/>
</clipPath>
</defs>
</svg>
