<svg width="24" height="24" viewBox="0 0 24 24" fill="none" xmlns="http://www.w3.org/2000/svg">
<g clip-path="url(#clip0_3191_41236)">
<rect width="24" height="24" fill="white"/>
<path d="M17.7255 7.7L15.2255 10.2L13.0505 8.025L15.5505 5.525L13.8505 3.825L11.3005 5.375C10.6338 5.74167 10.1922 6.21667 9.97549 6.8C9.75882 7.38333 9.78382 7.99167 10.0505 8.625L10.6255 9.95L4.35049 16.225C3.95049 16.625 3.74216 17.0917 3.72549 17.625C3.70882 18.1583 3.88382 18.6083 4.25049 18.975C4.63382 19.3583 5.09216 19.5417 5.62549 19.525C6.15882 19.5083 6.62549 19.3 7.02549 18.9L13.3005 12.625L14.6255 13.2C15.2588 13.4667 15.8588 13.4917 16.4255 13.275C17.0088 13.0417 17.4922 12.6 17.8755 11.95L19.4005 9.375L17.7255 7.7ZM20.2755 13.35C19.7922 14.1667 19.1838 14.8167 18.4505 15.3C17.7172 15.7833 16.9172 16.0583 16.0505 16.125C15.1838 16.1917 14.3088 16.0167 13.4255 15.6L14.6505 15.125L8.95049 20.825C8.33382 21.4417 7.62549 21.8667 6.82549 22.1C6.02549 22.3333 5.22549 22.35 4.42549 22.15C3.62549 21.95 2.91716 21.5417 2.30049 20.925C1.70049 20.325 1.30049 19.625 1.10049 18.825C0.900488 18.025 0.917155 17.225 1.15049 16.425C1.38382 15.625 1.80882 14.9167 2.42549 14.3L8.12549 8.6L7.65049 9.825C7.25049 8.95833 7.07549 8.09167 7.12549 7.225C7.19216 6.34167 7.46716 5.53333 7.95049 4.8C8.43382 4.06667 9.08382 3.45833 9.90049 2.975L14.4005 0.474999L18.0755 4.15L18.4505 4.525L18.7755 4.85L19.1005 5.175L22.7755 8.85L20.2755 13.35Z" fill="black"/>
</g>
<defs>
<clipPath id="clip0_3191_41236">
<rect width="24" height="24" fill="white"/>
</clipPath>
</defs>
</svg>
