<svg width="24" height="24" viewBox="0 0 24 24" fill="none" xmlns="http://www.w3.org/2000/svg">
<g clip-path="url(#clip0_3394_11305)">
<rect width="24" height="24" fill="white"/>
<path d="M19.25 20.55C18.7167 20.85 18.1333 21 17.5 21H6.5C5.86667 21 5.275 20.85 4.725 20.55C4.19167 20.2333 3.76667 19.8083 3.45 19.275C3.15 18.725 3 18.1333 3 17.5V6.5C3 5.86667 3.15 5.28333 3.45 4.75C3.76667 4.2 4.19167 3.775 4.725 3.475C5.275 3.15833 5.86667 3 6.5 3H17.5C18.1333 3 18.7167 3.15833 19.25 3.475C19.8 3.775 20.225 4.2 20.525 4.75C20.8417 5.28333 21 5.86667 21 6.5V17.5C21 18.1333 20.8417 18.725 20.525 19.275C20.225 19.8083 19.8 20.2333 19.25 20.55ZM17.075 10.925C16.525 11.4583 15.8583 11.725 15.075 11.725H12.25V8.925C12.25 8.125 12.525 7.45 13.075 6.9C13.625 6.35 14.2917 6.075 15.075 6.075C15.8583 6.075 16.525 6.35 17.075 6.9C17.625 7.45 17.9 8.125 17.9 8.925C17.9 9.70833 17.625 10.375 17.075 10.925ZM12.275 12.2H15.075C15.675 12.2 16.225 12.0583 16.725 11.775C17.2417 11.475 17.65 11.075 17.95 10.575C18.25 10.075 18.4 9.525 18.4 8.925C18.4 8.325 18.25 7.775 17.95 7.275C17.65 6.75833 17.2417 6.35 16.725 6.05C16.225 5.75 15.675 5.6 15.075 5.6C14.475 5.6 13.9167 5.75 13.4 6.05C12.9 6.35 12.5 6.75833 12.2 7.275C11.9 7.775 11.75 8.325 11.75 8.925V11.725H9C8.38333 11.725 7.81667 11.875 7.3 12.175C6.8 12.4583 6.4 12.85 6.1 13.35C5.8 13.85 5.65 14.4 5.65 15C5.65 15.6 5.8 16.1583 6.1 16.675C6.4 17.175 6.8 17.575 7.3 17.875C7.81667 18.175 8.38333 18.325 9 18.325C9.6 18.325 10.15 18.175 10.65 17.875C11.15 17.575 11.5417 17.1667 11.825 16.65C12.125 16.1333 12.275 15.5667 12.275 14.95V12.2ZM6.975 17.025C6.425 16.475 6.15 15.8 6.15 15C6.15 14.2167 6.425 13.5583 6.975 13.025C7.525 12.475 8.2 12.2 9 12.2H11.775V14.95C11.775 15.7667 11.5083 16.4583 10.975 17.025C10.4417 17.575 9.775 17.85 8.975 17.85C8.19167 17.85 7.525 17.575 6.975 17.025Z" fill="black"/>
</g>
<defs>
<clipPath id="clip0_3394_11305">
<rect width="24" height="24" fill="white"/>
</clipPath>
</defs>
</svg>
