<svg width="24" height="24" viewBox="0 0 24 24" fill="none" xmlns="http://www.w3.org/2000/svg">
<g clip-path="url(#clip0_3394_11301)">
<rect width="24" height="24" fill="white"/>
<path d="M13.9755 11.975C14.5255 11.975 14.9838 11.7833 15.3505 11.4C15.7338 11.0167 15.9255 10.55 15.9255 10C15.9255 9.43333 15.7338 8.95833 15.3505 8.575C14.9838 8.19167 14.5255 8 13.9755 8C13.4088 8 12.9338 8.19167 12.5505 8.575C12.1838 8.95833 12.0005 9.43333 12.0005 10V11.975H13.9755ZM10.0755 13.95C10.0588 13.95 10.0422 13.95 10.0255 13.95C10.0255 13.95 10.0172 13.95 10.0005 13.95C10.0005 13.95 9.99216 13.95 9.97549 13.95C9.95882 13.95 9.94216 13.95 9.92549 13.95C9.90882 13.95 9.89216 13.95 9.87549 13.95C9.87549 13.95 9.85882 13.95 9.82549 13.95C9.85882 13.95 9.87549 13.95 9.87549 13.95C9.89216 13.95 9.90882 13.95 9.92549 13.95C9.94216 13.95 9.95882 13.95 9.97549 13.95H10.0005C10.0172 13.95 10.0338 13.95 10.0505 13.95C10.0672 13.95 10.0755 13.95 10.0755 13.95C10.0922 13.95 10.1088 13.95 10.1255 13.95C10.1422 13.95 10.1588 13.95 10.1755 13.95C10.1922 13.95 10.2005 13.95 10.2005 13.95C10.2005 13.95 10.2088 13.95 10.2255 13.95C10.2088 13.95 10.2005 13.95 10.2005 13.95C10.2005 13.95 10.1922 13.95 10.1755 13.95C10.1588 13.95 10.1422 13.95 10.1255 13.95H10.0755ZM8.10049 13.95C8.10049 14.5167 8.28382 14.9917 8.65049 15.375C9.03382 15.7583 9.50049 15.95 10.0505 15.95C10.6005 15.95 11.0588 15.7583 11.4255 15.375C11.8088 14.9917 12.0005 14.4917 12.0005 13.875V11.975H10.0505C9.50049 11.975 9.03382 12.1667 8.65049 12.55C8.28382 12.9333 8.10049 13.4 8.10049 13.95ZM7.37549 21C6.57549 21 5.84216 20.8083 5.17549 20.425C4.50882 20.025 3.97549 19.4917 3.57549 18.825C3.19216 18.1583 3.00049 17.425 3.00049 16.625V7.375C3.00049 6.575 3.19216 5.84167 3.57549 5.175C3.97549 4.50833 4.50882 3.98333 5.17549 3.6C5.84216 3.2 6.57549 3 7.37549 3H16.4255C17.2755 3 18.0505 3.2 18.7505 3.6C19.4505 3.98333 20.0005 4.50833 20.4005 5.175C20.8005 5.84167 21.0005 6.575 21.0005 7.375V16.625C21.0005 17.425 20.8005 18.1583 20.4005 18.825C20.0172 19.4917 19.4922 20.025 18.8255 20.425C18.1588 20.8083 17.4255 21 16.6255 21H7.37549ZM16.6255 18.05C17.0088 18.05 17.3338 17.9167 17.6005 17.65C17.8672 17.3667 18.0005 17.025 18.0005 16.625V7.375C18.0005 6.975 17.8672 6.64167 17.6005 6.375C17.3338 6.09167 17.0088 5.95 16.6255 5.95H7.37549C6.99216 5.95 6.65882 6.09167 6.37549 6.375C6.10882 6.64167 5.97549 6.975 5.97549 7.375V16.625C5.97549 17.025 6.10882 17.3667 6.37549 17.65C6.65882 17.9167 6.99216 18.05 7.37549 18.05H16.6255Z" fill="black"/>
</g>
<defs>
<clipPath id="clip0_3394_11301">
<rect width="24" height="24" fill="white"/>
</clipPath>
</defs>
</svg>
