<svg width="24" height="24" viewBox="0 0 24 24" fill="none" xmlns="http://www.w3.org/2000/svg">
<g clip-path="url(#clip0_3191_38639)">
<rect width="24" height="24" fill="white"/>
<path d="M14.3505 11.4C14.8338 11.4 15.2338 11.2333 15.5505 10.9C15.8838 10.5667 16.0505 10.15 16.0505 9.65C16.0505 9.16667 15.8838 8.75833 15.5505 8.425C15.2338 8.09167 14.8338 7.925 14.3505 7.925C13.8505 7.925 13.4338 8.09167 13.1005 8.425C12.7838 8.74167 12.6255 9.15 12.6255 9.65V11.4H14.3505ZM12.6505 12.55V14.25C12.6505 14.8 12.5255 15.3 12.2755 15.75C12.0255 16.2 11.6755 16.5583 11.2255 16.825C10.7755 17.075 10.2672 17.2 9.70049 17.2C9.15049 17.2 8.65049 17.075 8.20049 16.825C7.75049 16.575 7.40049 16.2333 7.15049 15.8C6.90049 15.35 6.77549 14.85 6.77549 14.3C6.77549 13.75 6.90049 13.2583 7.15049 12.825C7.40049 12.375 7.75049 12.025 8.20049 11.775C8.65049 11.525 9.15049 11.4 9.70049 11.4H11.3755V9.65C11.3755 9.1 11.5005 8.60833 11.7505 8.175C12.0172 7.725 12.3755 7.375 12.8255 7.125C13.2755 6.875 13.7838 6.75 14.3505 6.75C14.9005 6.75 15.4005 6.875 15.8505 7.125C16.3005 7.375 16.6505 7.725 16.9005 8.175C17.1505 8.60833 17.2755 9.1 17.2755 9.65C17.2755 10.2 17.1505 10.7 16.9005 11.15C16.6505 11.5833 16.3005 11.925 15.8505 12.175C15.4172 12.425 14.9172 12.55 14.3505 12.55H12.6505ZM8.00049 14.3C8.00049 14.7833 8.15882 15.1917 8.47549 15.525C8.80882 15.8583 9.21716 16.025 9.70049 16.025C10.2005 16.025 10.6088 15.8583 10.9255 15.525C11.2422 15.175 11.4005 14.75 11.4005 14.25V12.55H9.70049C9.21716 12.55 8.80882 12.7167 8.47549 13.05C8.15882 13.3833 8.00049 13.8 8.00049 14.3ZM6.82549 21C6.12549 21 5.47549 20.8333 4.87549 20.5C4.29216 20.1667 3.83382 19.7083 3.50049 19.125C3.16716 18.525 3.00049 17.875 3.00049 17.175V6.825C3.00049 6.125 3.16716 5.48333 3.50049 4.9C3.83382 4.3 4.29216 3.83333 4.87549 3.5C5.47549 3.16667 6.12549 3 6.82549 3H17.1755C17.8755 3 18.5172 3.16667 19.1005 3.5C19.7005 3.83333 20.1672 4.3 20.5005 4.9C20.8338 5.48333 21.0005 6.125 21.0005 6.825V17.175C21.0005 17.875 20.8338 18.525 20.5005 19.125C20.1672 19.7083 19.7005 20.1667 19.1005 20.5C18.5172 20.8333 17.8755 21 17.1755 21H6.82549ZM17.1755 19.6C17.8422 19.6 18.4088 19.3667 18.8755 18.9C19.3422 18.4333 19.5755 17.8583 19.5755 17.175V6.825C19.5755 6.14167 19.3422 5.56667 18.8755 5.1C18.4088 4.63333 17.8422 4.4 17.1755 4.4H6.82549C6.15882 4.4 5.59216 4.63333 5.12549 5.1C4.65882 5.56667 4.42549 6.14167 4.42549 6.825V17.175C4.42549 17.8583 4.65882 18.4333 5.12549 18.9C5.59216 19.3667 6.15882 19.6 6.82549 19.6H17.1755Z" fill="black"/>
</g>
<defs>
<clipPath id="clip0_3191_38639">
<rect width="24" height="24" fill="white"/>
</clipPath>
</defs>
</svg>
