<svg width="24" height="24" viewBox="0 0 24 24" fill="none" xmlns="http://www.w3.org/2000/svg">
<g clip-path="url(#clip0_3191_38887)">
<rect width="24" height="24" fill="white"/>
<path d="M21.5 13.175C21.5 14.925 21.075 16.5083 20.225 17.925C19.3917 19.3417 18.25 20.4583 16.8 21.275C15.35 22.0917 13.75 22.5 12 22.5C10.25 22.5 8.65 22.0917 7.2 21.275C5.75 20.4583 4.6 19.3417 3.75 17.925C2.91667 16.5083 2.5 14.925 2.5 13.175H3.925C3.925 14.6583 4.28333 16.0083 5 17.225C5.71667 18.425 6.69167 19.375 7.925 20.075C9.15833 20.7583 10.5167 21.1 12 21.1C13.4833 21.1 14.8417 20.7583 16.075 20.075C17.3083 19.375 18.2833 18.425 19 17.225C19.7167 16.0083 20.075 14.6583 20.075 13.175H21.5ZM12.725 6.075V22.325H11.275V6.075H12.725ZM19 8.95V10.35H5V8.95H19ZM12 6.775C11.4833 6.775 11.0083 6.65 10.575 6.4C10.1417 6.13333 9.8 5.79167 9.55 5.375C9.3 4.94167 9.175 4.45833 9.175 3.925C9.175 3.40833 9.3 2.93333 9.55 2.5C9.8 2.06667 10.1417 1.725 10.575 1.475C11.0083 1.225 11.4833 1.1 12 1.1C12.5167 1.1 12.9917 1.225 13.425 1.475C13.8583 1.725 14.2 2.06667 14.45 2.5C14.7 2.93333 14.825 3.40833 14.825 3.925C14.825 4.45833 14.7 4.94167 14.45 5.375C14.2 5.79167 13.8583 6.13333 13.425 6.4C12.9917 6.65 12.5167 6.775 12 6.775ZM12 5.5C12.4333 5.5 12.8 5.35 13.1 5.05C13.4 4.73333 13.55 4.35833 13.55 3.925C13.55 3.49167 13.4 3.125 13.1 2.825C12.8 2.525 12.4333 2.375 12 2.375C11.5667 2.375 11.2 2.525 10.9 2.825C10.6 3.125 10.45 3.49167 10.45 3.925C10.45 4.35833 10.6 4.73333 10.9 5.05C11.2 5.35 11.5667 5.5 12 5.5Z" fill="black"/>
</g>
<defs>
<clipPath id="clip0_3191_38887">
<rect width="24" height="24" fill="white"/>
</clipPath>
</defs>
</svg>
