<svg width="24" height="24" viewBox="0 0 24 24" fill="none" xmlns="http://www.w3.org/2000/svg">
<g clip-path="url(#clip0_3191_38873)">
<rect width="24" height="24" fill="white"/>
<path d="M21.5005 13.175C21.5005 14.925 21.0755 16.5083 20.2255 17.925C19.3922 19.3417 18.2505 20.4583 16.8005 21.275C15.3505 22.0917 13.7505 22.5 12.0005 22.5C10.2505 22.5 8.65049 22.0917 7.20049 21.275C5.75049 20.4583 4.60049 19.3417 3.75049 17.925C2.91716 16.5083 2.50049 14.925 2.50049 13.175H3.92549C3.92549 14.6583 4.28382 16.0083 5.00049 17.225C5.71716 18.425 6.69216 19.375 7.92549 20.075C9.15882 20.7583 10.5172 21.1 12.0005 21.1C13.4838 21.1 14.8422 20.7583 16.0755 20.075C17.3088 19.375 18.2838 18.425 19.0005 17.225C19.7172 16.0083 20.0755 14.6583 20.0755 13.175H21.5005ZM12.7255 6.075V22.325H11.2755V6.075H12.7255ZM19.0005 8.95V10.35H5.00049V8.95H19.0005ZM12.0005 6.775C11.4838 6.775 11.0088 6.65 10.5755 6.4C10.1422 6.13333 9.80049 5.79167 9.55049 5.375C9.30049 4.94167 9.17549 4.45833 9.17549 3.925C9.17549 3.40833 9.30049 2.93333 9.55049 2.5C9.80049 2.06667 10.1422 1.725 10.5755 1.475C11.0088 1.225 11.4838 1.1 12.0005 1.1C12.5172 1.1 12.9922 1.225 13.4255 1.475C13.8588 1.725 14.2005 2.06667 14.4505 2.5C14.7005 2.93333 14.8255 3.40833 14.8255 3.925C14.8255 4.45833 14.7005 4.94167 14.4505 5.375C14.2005 5.79167 13.8588 6.13333 13.4255 6.4C12.9922 6.65 12.5172 6.775 12.0005 6.775ZM12.0005 5.5C12.4338 5.5 12.8005 5.35 13.1005 5.05C13.4005 4.73333 13.5505 4.35833 13.5505 3.925C13.5505 3.49167 13.4005 3.125 13.1005 2.825C12.8005 2.525 12.4338 2.375 12.0005 2.375C11.5672 2.375 11.2005 2.525 10.9005 2.825C10.6005 3.125 10.4505 3.49167 10.4505 3.925C10.4505 4.35833 10.6005 4.73333 10.9005 5.05C11.2005 5.35 11.5672 5.5 12.0005 5.5Z" fill="black"/>
</g>
<defs>
<clipPath id="clip0_3191_38873">
<rect width="24" height="24" fill="white"/>
</clipPath>
</defs>
</svg>
