<svg width="24" height="24" viewBox="0 0 24 24" fill="none" xmlns="http://www.w3.org/2000/svg">
<g clip-path="url(#clip0_3394_11263)">
<rect width="24" height="24" fill="white"/>
<path d="M16.6005 14.8H12.0005V13H16.6005V14.8ZM16.8005 2C17.3172 2 17.7338 2.13333 18.0505 2.4C18.3672 2.65 18.5672 3.03333 18.6505 3.55L20.0005 11.25V22H4.00049V11.25L5.35049 3.55C5.43382 3.03333 5.63382 2.65 5.95049 2.4C6.26715 2.13333 6.68382 2 7.20049 2H16.8005ZM18.1505 11.375L16.8255 3.825C16.8255 3.825 16.8172 3.825 16.8005 3.825C16.8005 3.80833 16.8005 3.8 16.8005 3.8H7.20049C7.20049 3.8 7.19216 3.80833 7.17549 3.825L5.85049 11.4V20.2H18.1505V11.375ZM16.6005 11.25H7.40049L8.42549 5.3H15.5755L16.6005 11.25ZM14.1255 6.975H9.87549L9.45049 9.575H14.5505L14.1255 6.975Z" fill="black"/>
</g>
<defs>
<clipPath id="clip0_3394_11263">
<rect width="24" height="24" fill="white"/>
</clipPath>
</defs>
</svg>
