<svg width="24" height="24" viewBox="0 0 24 24" fill="none" xmlns="http://www.w3.org/2000/svg">
<g clip-path="url(#clip0_3191_39478)">
<rect width="24" height="24" fill="white"/>
<path d="M12.475 18.225V16.85C13.3417 16.75 14.025 16.4917 14.525 16.075C15.0417 15.6417 15.3 15.0583 15.3 14.325C15.3 13.6583 15.0667 13.125 14.6 12.725C14.1333 12.3083 13.5083 12.0583 12.725 11.975L11.575 11.8C10.9583 11.7167 10.5083 11.5583 10.225 11.325C9.94167 11.0917 9.8 10.7667 9.8 10.35C9.8 9.83333 10 9.45 10.4 9.2C10.8 8.93333 11.325 8.8 11.975 8.8C12.6083 8.8 13.1417 8.925 13.575 9.175C14.0083 9.40833 14.3083 9.75833 14.475 10.225L15.275 9.825C15.0917 9.29167 14.75 8.85833 14.25 8.525C13.7667 8.19167 13.175 7.99167 12.475 7.925V6.625H11.55V7.925C10.75 8.00833 10.0917 8.25 9.575 8.65C9.075 9.05 8.825 9.61667 8.825 10.35C8.825 11.0167 9.03333 11.55 9.45 11.95C9.88333 12.3333 10.5 12.575 11.3 12.675L12.45 12.825C13.05 12.9083 13.5167 13.0833 13.85 13.35C14.1833 13.6 14.35 13.9333 14.35 14.35C14.35 14.8667 14.1333 15.2667 13.7 15.55C13.2667 15.8333 12.6917 15.975 11.975 15.975C11.325 15.975 10.7833 15.85 10.35 15.6C9.91667 15.35 9.61667 14.9917 9.45 14.525L8.625 14.9C8.85833 15.5 9.225 15.9667 9.725 16.3C10.2417 16.6167 10.85 16.8 11.55 16.85V18.225H12.475ZM3 7.25L12 2.05L21 7.25V21H3V7.25Z" fill="black"/>
</g>
<defs>
<clipPath id="clip0_3191_39478">
<rect width="24" height="24" fill="white"/>
</clipPath>
</defs>
</svg>
