<svg width="24" height="24" viewBox="0 0 24 24" fill="none" xmlns="http://www.w3.org/2000/svg">
<g clip-path="url(#clip0_3190_38393)">
<rect width="24" height="24" fill="white"/>
<path d="M3.00049 7.25L12.0005 2.05L21.0005 7.25V21H3.00049V7.25ZM20.5005 20.525V7.525L12.0005 2.6L3.50049 7.525V20.525H20.5005ZM11.7255 16.25C11.0255 16.2167 10.4338 16.05 9.95049 15.75C9.46716 15.45 9.14216 15.025 8.97549 14.475L9.45049 14.325C9.60049 14.825 9.89216 15.2 10.3255 15.45C10.7755 15.6833 11.3088 15.8 11.9255 15.8C12.6922 15.8 13.2922 15.65 13.7255 15.35C14.1755 15.05 14.4005 14.625 14.4005 14.075C14.4005 13.6417 14.2255 13.2833 13.8755 13C13.5422 12.7167 13.0588 12.5333 12.4255 12.45L11.3255 12.3C10.5922 12.2 10.0505 11.9833 9.70049 11.65C9.35049 11.3167 9.17549 10.8667 9.17549 10.3C9.17549 9.63333 9.40882 9.125 9.87549 8.775C10.3588 8.425 10.9755 8.23333 11.7255 8.2V7.025H12.2005V8.2C12.9005 8.23333 13.4838 8.40833 13.9505 8.725C14.4172 9.025 14.7255 9.425 14.8755 9.925L14.4255 10.075C14.2755 9.59167 13.9838 9.23333 13.5505 9C13.1172 8.75 12.5755 8.625 11.9255 8.625C11.2422 8.625 10.6922 8.76667 10.2755 9.05C9.85882 9.31667 9.65049 9.725 9.65049 10.275C9.65049 10.725 9.80049 11.0833 10.1005 11.35C10.4005 11.6167 10.8755 11.7917 11.5255 11.875L12.6755 12.025C13.3588 12.1083 13.9005 12.3333 14.3005 12.7C14.7005 13.05 14.9005 13.5083 14.9005 14.075C14.9005 14.7417 14.6505 15.2667 14.1505 15.65C13.6672 16.0167 13.0172 16.2167 12.2005 16.25V17.5H11.7255V16.25Z" fill="black"/>
</g>
<defs>
<clipPath id="clip0_3190_38393">
<rect width="24" height="24" fill="white"/>
</clipPath>
</defs>
</svg>
