<svg width="24" height="24" viewBox="0 0 24 24" fill="none" xmlns="http://www.w3.org/2000/svg">
<g clip-path="url(#clip0_3191_40742)">
<rect width="24" height="24" fill="white"/>
<path d="M4.075 15.775L12.35 2.875C13.2667 3.425 13.8583 4 14.125 4.6C14.4083 5.18333 14.35 5.79167 13.95 6.425L7.075 16.975L4.075 15.775ZM5.325 20.975C4.275 20.975 3.41667 20.6417 2.75 19.975C2.08333 19.3083 1.75 18.45 1.75 17.4C1.75 16.3667 2.08333 15.525 2.75 14.875C3.41667 14.2083 4.26667 13.875 5.3 13.875C6.35 13.875 7.20833 14.2083 7.875 14.875C8.54167 15.525 8.875 16.3667 8.875 17.4C8.875 18.45 8.54167 19.3083 7.875 19.975C7.20833 20.6417 6.35833 20.975 5.325 20.975ZM5.3 18.225C5.53333 18.225 5.725 18.15 5.875 18C6.04167 17.8333 6.125 17.6417 6.125 17.425C6.125 17.2083 6.04167 17.025 5.875 16.875C5.725 16.7083 5.53333 16.625 5.3 16.625C5.08333 16.625 4.89167 16.7 4.725 16.85C4.575 17 4.5 17.1917 4.5 17.425C4.5 17.6417 4.575 17.8333 4.725 18C4.89167 18.15 5.08333 18.225 5.3 18.225ZM13.3 20.975C12.25 20.975 11.3917 20.6417 10.725 19.975C10.0583 19.3083 9.725 18.45 9.725 17.4C9.725 16.3667 10.0583 15.525 10.725 14.875C11.3917 14.2083 12.25 13.875 13.3 13.875C14.3333 13.875 15.1833 14.2083 15.85 14.875C16.5167 15.525 16.85 16.3667 16.85 17.4C16.85 18.45 16.5167 19.3083 15.85 19.975C15.1833 20.6417 14.3333 20.975 13.3 20.975ZM13.3 18.2C13.5167 18.2 13.7 18.125 13.85 17.975C14 17.825 14.075 17.6417 14.075 17.425C14.075 17.2083 14 17.025 13.85 16.875C13.7 16.725 13.5167 16.65 13.3 16.65C13.0833 16.65 12.8917 16.725 12.725 16.875C12.575 17.025 12.5 17.2083 12.5 17.425C12.5 17.6417 12.575 17.825 12.725 17.975C12.8917 18.125 13.0833 18.2 13.3 18.2ZM4.625 6.425C4.225 5.79167 4.15833 5.18333 4.425 4.6C4.70833 4 5.31667 3.41667 6.25 2.85L14.525 15.775L11.525 16.975L4.625 6.425ZM17.525 14.65V14.25V14.05V11V10.05V7V6.05V3H19C19.5667 3 20.0417 3.19167 20.425 3.575C20.8083 3.95833 21 4.43333 21 5V21H17.525V14.65Z" fill="black"/>
</g>
<defs>
<clipPath id="clip0_3191_40742">
<rect width="24" height="24" fill="white"/>
</clipPath>
</defs>
</svg>
