<svg width="24" height="24" viewBox="0 0 24 24" fill="none" xmlns="http://www.w3.org/2000/svg">
<g clip-path="url(#clip0_3394_11233)">
<rect width="24" height="24" fill="white"/>
<path d="M4.70049 15.3L13.0255 2.875C13.6755 3.29167 14.1005 3.75833 14.3005 4.275C14.5172 4.79167 14.4672 5.28333 14.1505 5.75L6.95049 16.425L4.70049 15.3ZM4.95049 21C4.03382 21 3.26716 20.6917 2.65049 20.075C2.05049 19.4583 1.75049 18.6917 1.75049 17.775C1.75049 16.8917 2.05882 16.15 2.67549 15.55C3.29216 14.9333 4.04216 14.625 4.92549 14.625C5.84216 14.625 6.60882 14.9333 7.22549 15.55C7.84216 16.15 8.15049 16.8917 8.15049 17.775C8.15049 18.6917 7.84216 19.4583 7.22549 20.075C6.60882 20.6917 5.85049 21 4.95049 21ZM4.95049 18.775C5.21716 18.775 5.44216 18.6833 5.62549 18.5C5.82549 18.3 5.92549 18.0667 5.92549 17.8C5.92549 17.55 5.82549 17.3333 5.62549 17.15C5.44216 16.95 5.20882 16.85 4.92549 16.85C4.67549 16.85 4.45049 16.9417 4.25049 17.125C4.06716 17.3083 3.97549 17.5333 3.97549 17.8C3.97549 18.0667 4.06716 18.3 4.25049 18.5C4.45049 18.6833 4.68382 18.775 4.95049 18.775ZM13.1755 21C12.2755 21 11.5172 20.6917 10.9005 20.075C10.2838 19.4583 9.97549 18.6917 9.97549 17.775C9.97549 16.8917 10.2838 16.15 10.9005 15.55C11.5172 14.9333 12.2755 14.625 13.1755 14.625C14.0755 14.625 14.8338 14.9333 15.4505 15.55C16.0672 16.15 16.3755 16.8917 16.3755 17.775C16.3755 18.6917 16.0672 19.4583 15.4505 20.075C14.8338 20.6917 14.0755 21 13.1755 21ZM13.1755 18.775C13.4422 18.775 13.6672 18.6833 13.8505 18.5C14.0505 18.3 14.1505 18.0667 14.1505 17.8C14.1505 17.55 14.0505 17.3333 13.8505 17.15C13.6672 16.95 13.4422 16.85 13.1755 16.85C12.9088 16.85 12.6755 16.95 12.4755 17.15C12.2922 17.3333 12.2005 17.55 12.2005 17.8C12.2005 18.0667 12.2922 18.3 12.4755 18.5C12.6755 18.6833 12.9088 18.775 13.1755 18.775ZM3.95049 5.75C3.63382 5.28333 3.57549 4.79167 3.77549 4.275C3.97549 3.75833 4.40882 3.29167 5.07549 2.875L13.4005 15.3L11.1505 16.425L3.95049 5.75ZM18.1755 15.275V15.175V14.2V14.075V13.475V11V9.475V7V5.475V3H19.5005C19.9172 3 20.2672 3.14167 20.5505 3.425C20.8505 3.70833 21.0005 4.06667 21.0005 4.5V21H18.1755V15.275Z" fill="black"/>
</g>
<defs>
<clipPath id="clip0_3394_11233">
<rect width="24" height="24" fill="white"/>
</clipPath>
</defs>
</svg>
