<svg width="24" height="24" viewBox="0 0 24 24" fill="none" xmlns="http://www.w3.org/2000/svg">
<g clip-path="url(#clip0_3190_38431)">
<rect width="24" height="24" fill="white"/>
<path d="M16.6005 19.25C16.1505 19.25 15.7755 19.325 15.4755 19.475C15.1755 19.6083 14.8338 19.8167 14.4505 20.1C14.0338 20.4 13.6505 20.625 13.3005 20.775C12.9672 20.925 12.5338 21 12.0005 21C11.4672 21 11.0255 20.925 10.6755 20.775C10.3422 20.625 9.97549 20.4 9.57549 20.1C9.19216 19.8167 8.84216 19.6083 8.52549 19.475C8.22549 19.325 7.85049 19.25 7.40049 19.25C6.93382 19.25 6.55049 19.325 6.25049 19.475C5.95049 19.6083 5.60882 19.825 5.22549 20.125C4.82549 20.425 4.46716 20.65 4.15049 20.8C3.85049 20.9333 3.46716 21 3.00049 21V20.525C3.38382 20.525 3.70882 20.4583 3.97549 20.325C4.25882 20.1917 4.57549 19.9917 4.92549 19.725C5.34216 19.4083 5.71716 19.175 6.05049 19.025C6.40049 18.8583 6.85049 18.775 7.40049 18.775C7.93382 18.775 8.36716 18.85 8.70049 19C9.05049 19.15 9.42549 19.375 9.82549 19.675C10.2088 19.9583 10.5505 20.175 10.8505 20.325C11.1672 20.4583 11.5505 20.525 12.0005 20.525C12.4505 20.525 12.8255 20.4583 13.1255 20.325C13.4255 20.175 13.7672 19.9583 14.1505 19.675C14.5672 19.375 14.9422 19.15 15.2755 19C15.6255 18.85 16.0672 18.775 16.6005 18.775C17.1505 18.775 17.5922 18.8583 17.9255 19.025C18.2755 19.175 18.6588 19.4083 19.0755 19.725C19.4255 19.9917 19.7338 20.1917 20.0005 20.325C20.2838 20.4583 20.6172 20.525 21.0005 20.525V21C20.5338 21 20.1422 20.9333 19.8255 20.8C19.5255 20.65 19.1755 20.425 18.7755 20.125C18.3922 19.825 18.0505 19.6083 17.7505 19.475C17.4505 19.325 17.0672 19.25 16.6005 19.25ZM20.9505 15.85V16.325H3.00049V15.85H20.9505ZM14.9755 8.55V16.05H14.4755V8.55H14.9755ZM20.4755 8.525C20.4088 7.54167 20.1088 6.65 19.5755 5.85C19.0422 5.03333 18.3422 4.39167 17.4755 3.925C16.6255 3.44167 15.7088 3.2 14.7255 3.2C13.7422 3.2 12.8172 3.44167 11.9505 3.925C11.1005 4.39167 10.4088 5.03333 9.87549 5.85C9.34216 6.65 9.04216 7.54167 8.97549 8.525H20.4755ZM8.45049 9C8.45049 7.86667 8.73382 6.81667 9.30049 5.85C9.86716 4.88333 10.6255 4.125 11.5755 3.575C12.5422 3.00833 13.5922 2.725 14.7255 2.725C15.8588 2.725 16.9005 3.00833 17.8505 3.575C18.8172 4.125 19.5838 4.88333 20.1505 5.85C20.7172 6.81667 21.0005 7.86667 21.0005 9H8.45049Z" fill="black"/>
</g>
<defs>
<clipPath id="clip0_3190_38431">
<rect width="24" height="24" fill="white"/>
</clipPath>
</defs>
</svg>
