<svg width="24" height="24" viewBox="0 0 24 24" fill="none" xmlns="http://www.w3.org/2000/svg">
<g clip-path="url(#clip0_3191_39065)">
<rect width="24" height="24" fill="white"/>
<path d="M16.6 19.25C16.15 19.25 15.775 19.325 15.475 19.475C15.175 19.6083 14.8333 19.8167 14.45 20.1C14.0333 20.4 13.65 20.625 13.3 20.775C12.9667 20.925 12.5333 21 12 21C11.4667 21 11.025 20.925 10.675 20.775C10.3417 20.625 9.975 20.4 9.575 20.1C9.19167 19.8167 8.84167 19.6083 8.525 19.475C8.225 19.325 7.85 19.25 7.4 19.25C6.93333 19.25 6.55 19.325 6.25 19.475C5.95 19.6083 5.60833 19.825 5.225 20.125C4.825 20.425 4.46667 20.65 4.15 20.8C3.85 20.9333 3.46667 21 3 21V20.525C3.38333 20.525 3.70833 20.4583 3.975 20.325C4.25833 20.1917 4.575 19.9917 4.925 19.725C5.34167 19.4083 5.71667 19.175 6.05 19.025C6.4 18.8583 6.85 18.775 7.4 18.775C7.93333 18.775 8.36667 18.85 8.7 19C9.05 19.15 9.425 19.375 9.825 19.675C10.2083 19.9583 10.55 20.175 10.85 20.325C11.1667 20.4583 11.55 20.525 12 20.525C12.45 20.525 12.825 20.4583 13.125 20.325C13.425 20.175 13.7667 19.9583 14.15 19.675C14.5667 19.375 14.9417 19.15 15.275 19C15.625 18.85 16.0667 18.775 16.6 18.775C17.15 18.775 17.5917 18.8583 17.925 19.025C18.275 19.175 18.6583 19.4083 19.075 19.725C19.425 19.9917 19.7333 20.1917 20 20.325C20.2833 20.4583 20.6167 20.525 21 20.525V21C20.5333 21 20.1417 20.9333 19.825 20.8C19.525 20.65 19.175 20.425 18.775 20.125C18.3917 19.825 18.05 19.6083 17.75 19.475C17.45 19.325 17.0667 19.25 16.6 19.25ZM20.95 15.85V16.325H3V15.85H20.95ZM14.975 8.55V16.05H14.475V8.55H14.975ZM20.475 8.525C20.4083 7.54167 20.1083 6.65 19.575 5.85C19.0417 5.03333 18.3417 4.39167 17.475 3.925C16.625 3.44167 15.7083 3.2 14.725 3.2C13.7417 3.2 12.8167 3.44167 11.95 3.925C11.1 4.39167 10.4083 5.03333 9.875 5.85C9.34167 6.65 9.04167 7.54167 8.975 8.525H20.475ZM8.45 9C8.45 7.86667 8.73333 6.81667 9.3 5.85C9.86667 4.88333 10.625 4.125 11.575 3.575C12.5417 3.00833 13.5917 2.725 14.725 2.725C15.8583 2.725 16.9 3.00833 17.85 3.575C18.8167 4.125 19.5833 4.88333 20.15 5.85C20.7167 6.81667 21 7.86667 21 9H8.45ZM8.875 7.6L9.425 6L10.675 4.375L12.425 3.325L14.975 2.9L16.575 3.2L18.65 4.4L20.275 6.45L20.525 7.75L20.675 8.7L8.75 8.775L8.875 7.6Z" fill="black"/>
</g>
<defs>
<clipPath id="clip0_3191_39065">
<rect width="24" height="24" fill="white"/>
</clipPath>
</defs>
</svg>
