<svg width="24" height="24" viewBox="0 0 24 24" fill="none" xmlns="http://www.w3.org/2000/svg">
<g clip-path="url(#clip0_3191_39890)">
<rect width="24" height="24" fill="white"/>
<path d="M10.9755 21C9.59216 19.6667 7.74216 19 5.42549 19H2.00049V4H6.00049C7.25049 4 8.41716 4.18333 9.50049 4.55C10.5838 4.9 11.5922 5.45833 12.5255 6.225H11.4755C12.4088 5.45833 13.4172 4.9 14.5005 4.55C15.5838 4.18333 16.7505 4 18.0005 4H22.0005V19H18.5755C16.2588 19 14.4088 19.6667 13.0255 21H10.9755ZM5.62549 16.625C6.69216 16.625 7.68382 16.75 8.60049 17C9.53382 17.25 10.2672 17.5917 10.8005 18.025V7.875C10.2172 7.39167 9.52549 7.025 8.72549 6.775C7.92549 6.50833 7.01716 6.375 6.00049 6.375H4.42549V16.625H5.62549ZM18.0005 6.375C16.9838 6.375 16.0755 6.50833 15.2755 6.775C14.4755 7.025 13.7838 7.39167 13.2005 7.875V18.025C13.7338 17.5917 14.4588 17.25 15.3755 17C16.3088 16.75 17.3088 16.625 18.3755 16.625H19.5755V6.375H18.0005Z" fill="black"/>
</g>
<defs>
<clipPath id="clip0_3191_39890">
<rect width="24" height="24" fill="white"/>
</clipPath>
</defs>
</svg>
