<svg width="24" height="24" viewBox="0 0 24 24" fill="none" xmlns="http://www.w3.org/2000/svg">
<g clip-path="url(#clip0_3191_39886)">
<rect width="24" height="24" fill="white"/>
<path d="M11.2755 21C9.89216 19.6667 7.90882 19 5.32549 19H2.00049V4H5.82549C7.10882 4 8.30882 4.18333 9.42549 4.55C10.5422 4.91667 11.5422 5.46667 12.4255 6.2H11.5755C12.4588 5.46667 13.4588 4.91667 14.5755 4.55C15.6922 4.18333 16.8922 4 18.1755 4H22.0005V19H18.6755C16.0922 19 14.1088 19.6667 12.7255 21H11.2755ZM5.32549 17.6C6.59216 17.6 7.74216 17.75 8.77549 18.05C9.82549 18.35 10.6588 18.75 11.2755 19.25V7.05C10.6088 6.51667 9.81716 6.10833 8.90049 5.825C7.98382 5.54167 6.95882 5.4 5.82549 5.4H3.42549V17.6H5.32549ZM18.1755 5.4C17.0422 5.4 16.0172 5.54167 15.1005 5.825C14.1838 6.10833 13.3922 6.51667 12.7255 7.05V19.25C13.3422 18.75 14.1672 18.35 15.2005 18.05C16.2505 17.75 17.4088 17.6 18.6755 17.6H20.5755V5.4H18.1755Z" fill="black"/>
</g>
<defs>
<clipPath id="clip0_3191_39886">
<rect width="24" height="24" fill="white"/>
</clipPath>
</defs>
</svg>
