<svg width="24" height="24" viewBox="0 0 24 24" fill="none" xmlns="http://www.w3.org/2000/svg">
<g clip-path="url(#clip0_3191_39888)">
<rect width="24" height="24" fill="white"/>
<path d="M11.0505 21C9.66716 19.6667 7.81716 19 5.50049 19H2.00049V4H6.00049C7.26716 4 8.44216 4.18333 9.52549 4.55C10.6088 4.91667 11.6088 5.475 12.5255 6.225H11.4755C12.3922 5.475 13.3922 4.91667 14.4755 4.55C15.5588 4.18333 16.7338 4 18.0005 4H22.0005V19H18.5005C16.1838 19 14.3338 19.6667 12.9505 21H11.0505ZM5.50049 17.15C6.66716 17.15 7.74216 17.3 8.72549 17.6C9.70882 17.8833 10.4838 18.25 11.0505 18.7V7.4C10.4338 6.9 9.70049 6.51667 8.85049 6.25C8.01716 5.98333 7.06716 5.85 6.00049 5.85H3.90049V17.15H5.50049ZM18.0005 5.85C16.9338 5.85 15.9755 5.98333 15.1255 6.25C14.2922 6.51667 13.5672 6.9 12.9505 7.4V18.7C13.5172 18.25 14.2922 17.8833 15.2755 17.6C16.2588 17.3 17.3338 17.15 18.5005 17.15H20.1005V5.85H18.0005Z" fill="black"/>
</g>
<defs>
<clipPath id="clip0_3191_39888">
<rect width="24" height="24" fill="white"/>
</clipPath>
</defs>
</svg>
