<svg width="24" height="24" viewBox="0 0 24 24" fill="none" xmlns="http://www.w3.org/2000/svg">
<g clip-path="url(#clip0_3191_39037)">
<rect width="24" height="24" fill="white"/>
<path d="M5.00049 16.3C5.00049 15.2667 5.10882 14.2333 5.32549 13.2C5.54216 12.15 5.87549 10.975 6.32549 9.675C6.44216 9.35833 6.67549 9.08333 7.02549 8.85C7.37549 8.61667 7.72549 8.5 8.07549 8.5H15.9255C16.2755 8.5 16.6255 8.61667 16.9755 8.85C17.3255 9.08333 17.5588 9.35833 17.6755 9.675C18.1255 10.975 18.4588 12.15 18.6755 13.2C18.8922 14.25 19.0005 15.2833 19.0005 16.3V22H15.5505V21H8.45049V22H5.00049V16.3ZM8.80049 17.75H9.10049H14.5755H14.6755H15.5505V16.3C15.5505 14.45 15.2755 12.95 14.7255 11.8C14.7255 11.7833 14.7172 11.775 14.7005 11.775C14.7005 11.7583 14.6922 11.75 14.6755 11.75H9.35049C9.33382 11.75 9.31716 11.7583 9.30049 11.775C9.28382 11.775 9.27549 11.7833 9.27549 11.8C8.72549 12.95 8.45049 14.45 8.45049 16.3V17.75H8.80049ZM7.07549 13.125H17.5005V16.375H7.07549V13.125ZM7.35049 20.025C7.31716 20.025 7.29216 20.025 7.27549 20.025C7.27549 20.025 7.25882 20.025 7.22549 20.025C7.25882 20.025 7.27549 20.025 7.27549 20.025C7.29216 20.025 7.31716 20.025 7.35049 20.025C7.38382 20.025 7.40049 20.025 7.40049 20.025C7.41716 20.025 7.44216 20.025 7.47549 20.025C7.44216 20.025 7.41716 20.025 7.40049 20.025C7.40049 20.025 7.38382 20.025 7.35049 20.025ZM7.20049 19.85C7.40049 19.85 7.54216 19.85 7.62549 19.85C7.72549 19.85 7.87549 19.85 8.07549 19.85C7.87549 19.85 7.72549 19.85 7.62549 19.85C7.54216 19.85 7.40049 19.85 7.20049 19.85C7.03382 19.85 6.90882 19.85 6.82549 19.85C6.75882 19.85 6.65049 19.85 6.50049 19.85C6.66716 19.85 6.78382 19.85 6.85049 19.85C6.93382 19.85 7.05049 19.85 7.20049 19.85ZM13.2005 19.275C13.1672 19.275 13.1422 19.275 13.1255 19.275C13.1255 19.275 13.1088 19.275 13.0755 19.275C13.1088 19.275 13.1255 19.275 13.1255 19.275C13.1422 19.275 13.1672 19.275 13.2005 19.275C13.2338 19.275 13.2505 19.275 13.2505 19.275C13.2672 19.275 13.2922 19.275 13.3255 19.275C13.2922 19.275 13.2672 19.275 13.2505 19.275C13.2505 19.275 13.2338 19.275 13.2005 19.275ZM14.1255 20.125C14.2755 20.125 14.3838 20.125 14.4505 20.125C14.5172 20.125 14.6255 20.125 14.7755 20.125C14.6255 20.125 14.5172 20.125 14.4505 20.125C14.3838 20.125 14.2755 20.125 14.1255 20.125C13.9755 20.125 13.8588 20.125 13.7755 20.125C13.7088 20.125 13.6005 20.125 13.4505 20.125C13.6005 20.125 13.7088 20.125 13.7755 20.125C13.8588 20.125 13.9755 20.125 14.1255 20.125ZM3.40049 15.725V13.1H5.80049V13.975V14.65V15.05V15.6V16.7L3.40049 15.725ZM18.2005 15.525V15V14.575V14.075V13.1H20.6005V15.725L18.2005 16.7V15.525ZM11.5755 2L11.2005 6.5H8.12549L8.55049 2H11.5755ZM19.5005 2L20.5005 6.5H17.3755L16.4255 2H19.5005ZM7.57549 2L6.62549 6.5H3.50049L4.50049 2H7.57549ZM15.4505 2L15.8755 6.5H12.8005L12.4255 2H15.4505Z" fill="black"/>
</g>
<defs>
<clipPath id="clip0_3191_39037">
<rect width="24" height="24" fill="white"/>
</clipPath>
</defs>
</svg>
