<svg width="24" height="24" viewBox="0 0 24 24" fill="none" xmlns="http://www.w3.org/2000/svg">
<g clip-path="url(#clip0_3191_39653)">
<rect width="24" height="24" fill="white"/>
<path d="M15 21H3V5.5C3 4.8 3.24167 4.20833 3.725 3.725C4.20833 3.24167 4.8 3 5.5 3H12.5C13.2 3 13.7917 3.24167 14.275 3.725C14.7583 4.20833 15 4.8 15 5.5V21ZM17.475 17.525C17.4917 17.5083 17.5 17.4917 17.5 17.475V3H21V17.5C21 18.2333 20.8583 18.8667 20.575 19.4C20.3083 19.9167 19.9083 20.3167 19.375 20.6C18.8583 20.8667 18.2333 21 17.5 21H14.35V17.55H17.425C17.4417 17.55 17.4583 17.5417 17.475 17.525ZM19.425 13.1C19.425 12.8833 19.425 12.5667 19.425 12.15V8.25V12.125C19.425 12.1417 19.425 12.15 19.425 12.15C19.425 12.15 19.425 12.1583 19.425 12.175C19.425 12.1583 19.425 12.15 19.425 12.15C19.425 12.15 19.425 12.1417 19.425 12.125V8.25V12.15C19.425 12.5667 19.425 12.875 19.425 13.075C19.425 13.275 19.425 13.5917 19.425 14.025C19.425 13.6083 19.425 13.3 19.425 13.1ZM8.75 13.4V16.3H10.9L12.25 10.6H9.25V7.7H7.1L5.75 13.4H8.75Z" fill="black"/>
</g>
<defs>
<clipPath id="clip0_3191_39653">
<rect width="24" height="24" fill="white"/>
</clipPath>
</defs>
</svg>
