<svg width="24" height="24" viewBox="0 0 24 24" fill="none" xmlns="http://www.w3.org/2000/svg">
<g clip-path="url(#clip0_3191_39649)">
<rect width="24" height="24" fill="white"/>
<path d="M14.675 21H3V5.5C3 4.8 3.24167 4.20833 3.725 3.725C4.20833 3.24167 4.8 3 5.5 3H12.175C12.875 3 13.4667 3.24167 13.95 3.725C14.4333 4.20833 14.675 4.8 14.675 5.5V21ZM17.675 18.55C17.8083 18.4 17.875 18.2167 17.875 18V8.05H20.175V18C20.175 18.55 20.0417 19.0583 19.775 19.525C19.5083 19.975 19.1417 20.3333 18.675 20.6C18.225 20.8667 17.725 21 17.175 21H13.425V18.775H17.175C17.375 18.775 17.5417 18.7 17.675 18.55ZM16.45 8C16.1 7.65 15.925 7.20833 15.925 6.675V3H18.125V6.325C18.125 6.34167 18.125 6.35 18.125 6.35C18.125 6.35 18.1333 6.35 18.15 6.35H19.875C19.8917 6.35 19.9 6.34167 19.9 6.325V3H22.1V6.675C22.1 7.20833 21.925 7.65 21.575 8C21.225 8.35 20.7833 8.525 20.25 8.525H17.775C17.2417 8.525 16.8 8.35 16.45 8ZM8.775 13.275V16.125H10.075L11.75 10.725H8.9V7.875H7.6L5.9 13.275H8.775Z" fill="black"/>
</g>
<defs>
<clipPath id="clip0_3191_39649">
<rect width="24" height="24" fill="white"/>
</clipPath>
</defs>
</svg>
