<svg width="24" height="24" viewBox="0 0 24 24" fill="none" xmlns="http://www.w3.org/2000/svg">
<g clip-path="url(#clip0_3191_38513)">
<rect width="24" height="24" fill="white"/>
<path d="M12.0005 2.05L24.0005 9L12.0005 15.95L0.000488281 9L12.0005 2.05ZM24.0005 17H21.6255V9H24.0005V17ZM4.70049 9L12.0005 13.25L19.3005 9L12.0005 4.75L4.70049 9ZM7.37549 16.125C7.37549 16.2917 7.41716 16.4583 7.50049 16.625C7.60049 16.7917 7.72549 16.9167 7.87549 17L12.0005 19.375L16.1255 17C16.2755 16.9167 16.3922 16.7917 16.4755 16.625C16.5755 16.4583 16.6255 16.2917 16.6255 16.125V12.775L19.0005 11.375V16.2C19.0005 16.7333 18.8588 17.2583 18.5755 17.775C18.2922 18.275 17.9088 18.6667 17.4255 18.95L12.0005 22.075L6.57549 18.95C6.09216 18.6667 5.70882 18.275 5.42549 17.775C5.14216 17.2583 5.00049 16.7333 5.00049 16.2V11.375L7.37549 12.775V16.125Z" fill="black"/>
</g>
<defs>
<clipPath id="clip0_3191_38513">
<rect width="24" height="24" fill="white"/>
</clipPath>
</defs>
</svg>
