<svg width="24" height="24" viewBox="0 0 24 24" fill="none" xmlns="http://www.w3.org/2000/svg">
<g clip-path="url(#clip0_3336_10833)">
<rect width="24" height="24" fill="white"/>
<path d="M21 21H3V7.25L12 2.05L21 7.25V21ZM6.825 13.875L8.325 17.55H15.675L17.175 13.85V11.775H15.4V10.8C15.4 9.85 15.0833 9.08333 14.45 8.5C13.8167 7.9 13 7.6 12 7.6C11.0167 7.6 10.2083 7.9 9.575 8.5C8.94167 9.1 8.625 9.86667 8.625 10.8V11.775H6.825V13.875ZM13.15 11.775H10.875V10.8C10.875 10.4833 10.975 10.2167 11.175 10C11.3917 9.78333 11.6667 9.675 12 9.675C12.3333 9.675 12.6083 9.78333 12.825 10C13.0417 10.2 13.15 10.4667 13.15 10.8V11.775Z" fill="black"/>
</g>
<defs>
<clipPath id="clip0_3336_10833">
<rect width="24" height="24" fill="white"/>
</clipPath>
</defs>
</svg>
