<svg width="24" height="24" viewBox="0 0 24 24" fill="none" xmlns="http://www.w3.org/2000/svg">
<g clip-path="url(#clip0_3190_38457)">
<rect width="24" height="24" fill="white"/>
<path d="M3.00049 7.25L12.0005 2.05L21.0005 7.25V21H3.00049V7.25ZM20.5005 20.525V7.525L12.0005 2.6L3.50049 7.525V20.525H20.5005ZM7.50049 11.45V11H16.5005V11.45L15.5005 16.75H8.50049L7.50049 11.45ZM15.0755 16.275L16.0005 11.45H8.00049L8.92549 16.275H15.0755ZM9.87549 10.225C9.87549 9.64167 10.0755 9.15 10.4755 8.75C10.8922 8.35 11.4005 8.15 12.0005 8.15C12.6005 8.15 13.1005 8.35 13.5005 8.75C13.9172 9.15 14.1255 9.64167 14.1255 10.225V11.275H13.6255V10.225C13.6255 9.775 13.4672 9.4 13.1505 9.1C12.8338 8.78333 12.4505 8.625 12.0005 8.625C11.5505 8.625 11.1672 8.78333 10.8505 9.1C10.5338 9.4 10.3755 9.775 10.3755 10.225V11.275H9.87549V10.225Z" fill="black"/>
</g>
<defs>
<clipPath id="clip0_3190_38457">
<rect width="24" height="24" fill="white"/>
</clipPath>
</defs>
</svg>
