<svg width="24" height="24" viewBox="0 0 24 24" fill="none" xmlns="http://www.w3.org/2000/svg">
<g clip-path="url(#clip0_3336_10833)">
<rect width="24" height="24" fill="white"/>
<path d="M21 21H3V7.25L12 2.05L21 7.25V21ZM7 13.825L8.45 17.375H15.55L17 13.8V11.8H15.275V10.85C15.275 9.93333 14.9667 9.19167 14.35 8.625C13.75 8.05833 12.9667 7.775 12 7.775C11.05 7.775 10.2667 8.06667 9.65 8.65C9.03333 9.21667 8.725 9.95 8.725 10.85V11.8H7V13.825ZM13.1 11.8H10.9V10.85C10.9 10.5333 11 10.275 11.2 10.075C11.4167 9.875 11.6833 9.775 12 9.775C12.3167 9.775 12.575 9.875 12.775 10.075C12.9917 10.275 13.1 10.5333 13.1 10.85V11.8Z" fill="black"/>
</g>
<defs>
<clipPath id="clip0_3336_10833">
<rect width="24" height="24" fill="white"/>
</clipPath>
</defs>
</svg>
