<svg width="24" height="24" viewBox="0 0 24 24" fill="none" xmlns="http://www.w3.org/2000/svg">
<g clip-path="url(#clip0_3336_10817)">
<rect width="24" height="24" fill="white"/>
<path d="M3.00049 7.25L12.0005 2.05L21.0005 7.25V21H3.00049V7.25ZM18.5255 18.575V8.625L12.0005 4.85L5.47549 8.625V18.575H18.5255ZM7.50049 12.5V11.05H16.5005V12.475L15.5005 16.375H8.50049L7.50049 12.5ZM14.0755 14.625L14.5755 12.775H9.42549L9.92549 14.625H14.0755ZM11.8255 10.55C11.8255 10.15 11.8338 9.825 11.8505 9.575C11.8838 9.325 11.9338 9.2 12.0005 9.2C12.0505 9.2 12.0922 9.325 12.1255 9.575C12.1755 9.825 12.2005 10.15 12.2005 10.55V12.05H10.3755V10.55C10.3755 9.98333 10.5338 9.5 10.8505 9.1C11.1672 8.7 11.5505 8.5 12.0005 8.5C12.4505 8.5 12.8338 8.7 13.1505 9.1C13.4838 9.5 13.6505 9.98333 13.6505 10.55V12.05H11.8255V10.55Z" fill="black"/>
</g>
<defs>
<clipPath id="clip0_3336_10817">
<rect width="24" height="24" fill="white"/>
</clipPath>
</defs>
</svg>
