<svg width="24" height="24" viewBox="0 0 24 24" fill="none" xmlns="http://www.w3.org/2000/svg">
<g clip-path="url(#clip0_3199_7821)">
<rect width="24" height="24" fill="white"/>
<path d="M3.00049 7.25L12.0005 2.05L21.0005 7.25V21H3.00049V7.25ZM19.5755 19.6V8.05L12.0005 3.65L4.42549 8.05V19.6H19.5755ZM7.50049 12.1V10.875H16.5005V12.1L15.5005 16.625H8.50049L7.50049 12.1ZM14.5005 15.425L15.2005 12.075H8.80049L9.50049 15.425H14.5005ZM9.70049 10.275C9.70049 9.625 9.91716 9.09167 10.3505 8.675C10.7838 8.24167 11.3338 8.025 12.0005 8.025C12.6672 8.025 13.2172 8.24167 13.6505 8.675C14.0838 9.09167 14.3005 9.625 14.3005 10.275V11.625H13.1255V10.275C13.1255 9.95833 13.0172 9.7 12.8005 9.5C12.6005 9.28333 12.3338 9.175 12.0005 9.175C11.6672 9.175 11.3922 9.28333 11.1755 9.5C10.9755 9.7 10.8755 9.95833 10.8755 10.275V11.625H9.70049V10.275Z" fill="black"/>
</g>
<defs>
<clipPath id="clip0_3199_7821">
<rect width="24" height="24" fill="white"/>
</clipPath>
</defs>
</svg>
