<svg width="24" height="24" viewBox="0 0 24 24" fill="none" xmlns="http://www.w3.org/2000/svg">
<g clip-path="url(#clip0_3191_40022)">
<rect width="24" height="24" fill="white"/>
<path d="M15.8755 18.3H19.2755V15.75C19.2755 15.7333 19.2755 15.725 19.2755 15.725C19.2755 15.725 19.2672 15.725 19.2505 15.725H15.9005C15.8838 15.725 15.8755 15.725 15.8755 15.725C15.8755 15.725 15.8755 15.7333 15.8755 15.75V18.3ZM13.1755 15.45C13.1755 14.7667 13.4005 14.1917 13.8505 13.725C14.3005 13.2417 14.8588 13 15.5255 13H19.6505C20.3172 13 20.8755 13.2417 21.3255 13.725C21.7755 14.1917 22.0005 14.7667 22.0005 15.45V21H13.1755V15.45ZM6.12549 13.825C6.12549 13.8417 6.13382 13.8583 6.15049 13.875C6.16716 13.875 6.18382 13.875 6.20049 13.875H8.87549C8.89216 13.875 8.90049 13.875 8.90049 13.875C8.91716 13.8583 8.92549 13.8417 8.92549 13.825L9.62549 5.875H5.45049L6.12549 13.825ZM12.8005 3L11.7755 14.825C11.7088 15.4417 11.4755 15.9167 11.0755 16.25C10.6922 16.5833 10.1922 16.75 9.57549 16.75H5.50049C4.86716 16.75 4.35049 16.5833 3.95049 16.25C3.56716 15.9 3.35049 15.4167 3.30049 14.8L2.25049 3H12.8005ZM9.97549 18.075V21H5.07549V18.075H9.97549Z" fill="black"/>
</g>
<defs>
<clipPath id="clip0_3191_40022">
<rect width="24" height="24" fill="white"/>
</clipPath>
</defs>
</svg>
