<svg width="24" height="24" viewBox="0 0 24 24" fill="none" xmlns="http://www.w3.org/2000/svg">
<g clip-path="url(#clip0_3191_40038)">
<rect width="24" height="24" fill="white"/>
<path d="M13.5 15C13.5 14.4333 13.6917 13.9583 14.075 13.575C14.4583 13.1917 14.9333 13 15.5 13H20C20.5667 13 21.0417 13.1917 21.425 13.575C21.8083 13.9583 22 14.4333 22 15V21H13.5V15ZM10.175 18.025V21H5.075V18.025H10.175ZM13 3L12 14.15C11.9333 14.85 11.6917 15.3833 11.275 15.75C10.875 16.1 10.325 16.275 9.625 16.275H5.625C4.925 16.275 4.36667 16.1 3.95 15.75C3.55 15.3833 3.31667 14.85 3.25 14.15L2.25 3H13Z" fill="black"/>
</g>
<defs>
<clipPath id="clip0_3191_40038">
<rect width="24" height="24" fill="white"/>
</clipPath>
</defs>
</svg>
