<svg width="24" height="24" viewBox="0 0 24 24" fill="none" xmlns="http://www.w3.org/2000/svg">
<g clip-path="url(#clip0_3191_40024)">
<rect width="24" height="24" fill="white"/>
<path d="M16.4255 17.825H18.8255V16.225C18.8255 16.2083 18.8255 16.2 18.8255 16.2C18.8255 16.2 18.8172 16.2 18.8005 16.2H16.4505C16.4338 16.2 16.4255 16.2 16.4255 16.2C16.4255 16.2 16.4255 16.2083 16.4255 16.225V17.825ZM13.2505 15.775C13.2505 15.0083 13.5005 14.3583 14.0005 13.825C14.5005 13.275 15.1172 13 15.8505 13H19.4005C20.1338 13 20.7505 13.275 21.2505 13.825C21.7505 14.3583 22.0005 15.0083 22.0005 15.775V21H13.2505V15.775ZM6.65049 12.525C6.65049 12.5417 6.65882 12.5583 6.67549 12.575C6.69216 12.5917 6.70882 12.6 6.72549 12.6H8.52549C8.54216 12.6 8.55882 12.5917 8.57549 12.575C8.59216 12.5583 8.60049 12.5417 8.60049 12.525L9.17549 6.45H6.07549L6.65049 12.525ZM13.0005 3L12.0005 13.925C11.9338 14.625 11.6922 15.1583 11.2755 15.525C10.8755 15.875 10.3255 16.05 9.62549 16.05H5.62549C4.92549 16.05 4.36716 15.875 3.95049 15.525C3.55049 15.1583 3.31716 14.625 3.25049 13.925L2.25049 3H13.0005ZM10.1755 17.55V21H5.07549V17.55H10.1755Z" fill="black"/>
</g>
<defs>
<clipPath id="clip0_3191_40024">
<rect width="24" height="24" fill="white"/>
</clipPath>
</defs>
</svg>
