<svg width="24" height="24" viewBox="0 0 24 24" fill="none" xmlns="http://www.w3.org/2000/svg">
<g clip-path="url(#clip0_3190_38469)">
<rect width="24" height="24" fill="white"/>
<path d="M13.5005 20.525H21.5005V15.35C21.5005 14.8333 21.3172 14.3917 20.9505 14.025C20.6005 13.6583 20.1672 13.475 19.6505 13.475H15.3505C14.8338 13.475 14.3922 13.6583 14.0255 14.025C13.6755 14.3917 13.5005 14.8333 13.5005 15.35V20.525ZM13.0005 15.35C13.0005 14.6833 13.2255 14.125 13.6755 13.675C14.1255 13.225 14.6838 13 15.3505 13H19.6505C20.3172 13 20.8755 13.225 21.3255 13.675C21.7755 14.125 22.0005 14.6833 22.0005 15.35V21H13.0005V15.35ZM4.02549 17.6C4.04216 17.8667 4.15049 18.0917 4.35049 18.275C4.56716 18.4417 4.81716 18.525 5.10049 18.525H9.40049C9.68382 18.525 9.92549 18.4417 10.1255 18.275C10.3422 18.0917 10.4588 17.8667 10.4755 17.6L11.7005 3.475H2.80049L4.02549 17.6ZM12.2505 3L10.9755 17.65C10.9422 18.05 10.7755 18.375 10.4755 18.625C10.1922 18.875 9.84216 19 9.42549 19H5.07549C4.65882 19 4.30049 18.875 4.00049 18.625C3.71716 18.375 3.55882 18.05 3.52549 17.65L2.25049 3H12.2505ZM9.42549 20.525V21H5.07549V20.525H9.42549Z" fill="black"/>
</g>
<defs>
<clipPath id="clip0_3190_38469">
<rect width="24" height="24" fill="white"/>
</clipPath>
</defs>
</svg>
