<svg width="24" height="24" viewBox="0 0 24 24" fill="none" xmlns="http://www.w3.org/2000/svg">
<g clip-path="url(#clip0_3190_38487)">
<rect width="24" height="24" fill="white"/>
<path d="M7.00049 20.525H11.7505V4.475H5.50049V4H11.7505V2H12.2505V4H18.5005V4.475H12.2505V20.525H17.0005V21H7.00049V20.525ZM1.37549 13.525H9.55049V14H1.37549V13.525ZM5.50049 16.725C6.38382 16.725 7.19215 16.475 7.92549 15.975C8.65882 15.4583 9.17549 14.8 9.47549 14L5.50049 5.15L1.52549 14C1.82549 14.8167 2.34216 15.475 3.07549 15.975C3.80882 16.475 4.61716 16.725 5.50049 16.725ZM5.50049 17.2C4.48382 17.2 3.55882 16.9083 2.72549 16.325C1.90882 15.7417 1.33382 14.9667 1.00049 14L5.50049 4L5.65049 4.35L10.0005 14C9.66716 14.9667 9.08382 15.7417 8.25049 16.325C7.43382 16.9083 6.51716 17.2 5.50049 17.2ZM18.5005 16.725C19.3838 16.725 20.1922 16.475 20.9255 15.975C21.6588 15.475 22.1755 14.8167 22.4755 14L18.5005 5.15L14.5255 14C14.8255 14.8 15.3422 15.4583 16.0755 15.975C16.8088 16.475 17.6172 16.725 18.5005 16.725ZM18.5005 17.2C17.4838 17.2 16.5588 16.9083 15.7255 16.325C14.9088 15.7417 14.3338 14.9667 14.0005 14L18.3505 4.35L18.5005 4L23.0005 14C22.6672 14.9667 22.0838 15.7417 21.2505 16.325C20.4338 16.9083 19.5172 17.2 18.5005 17.2ZM14.4505 13.525H22.6255V14H14.4505V13.525Z" fill="black"/>
</g>
<defs>
<clipPath id="clip0_3190_38487">
<rect width="24" height="24" fill="white"/>
</clipPath>
</defs>
</svg>
