<svg width="24" height="24" viewBox="0 0 24 24" fill="none" xmlns="http://www.w3.org/2000/svg">
<g clip-path="url(#clip0_3191_39659)">
<rect width="24" height="24" fill="white"/>
<path d="M7.00049 21C6.26716 21 5.59216 20.825 4.97549 20.475C4.35882 20.125 3.87549 19.6417 3.52549 19.025C3.17549 18.4083 3.00049 17.7333 3.00049 17V7C3.00049 6.26667 3.17549 5.59167 3.52549 4.975C3.87549 4.35833 4.35882 3.875 4.97549 3.525C5.59216 3.175 6.26716 3 7.00049 3H17.0005C17.7338 3 18.4088 3.175 19.0255 3.525C19.6422 3.875 20.1255 4.35833 20.4755 4.975C20.8255 5.59167 21.0005 6.26667 21.0005 7V17C21.0005 17.7333 20.8255 18.4083 20.4755 19.025C20.1255 19.6417 19.6422 20.125 19.0255 20.475C18.4088 20.825 17.7338 21 17.0005 21H7.00049ZM17.0005 19.15C17.5838 19.15 18.0755 18.9417 18.4755 18.525C18.8922 18.1083 19.1005 17.6 19.1005 17V7C19.1005 6.4 18.8922 5.89167 18.4755 5.475C18.0755 5.05833 17.5838 4.85 17.0005 4.85H7.00049C6.41716 4.85 5.91716 5.05833 5.50049 5.475C5.10049 5.89167 4.90049 6.4 4.90049 7V17C4.90049 17.6 5.10049 18.1083 5.50049 18.525C5.91716 18.9417 6.41716 19.15 7.00049 19.15H17.0005ZM8.50049 16.875C8.11716 16.875 7.79216 16.7417 7.52549 16.475C7.25882 16.2083 7.12549 15.8833 7.12549 15.5C7.12549 15.1167 7.25882 14.7917 7.52549 14.525C7.79216 14.2583 8.11716 14.125 8.50049 14.125C8.88382 14.125 9.20882 14.2583 9.47549 14.525C9.74216 14.7917 9.87549 15.1167 9.87549 15.5C9.87549 15.8833 9.74216 16.2083 9.47549 16.475C9.20882 16.7417 8.88382 16.875 8.50049 16.875ZM8.50049 9.875C8.11716 9.875 7.79216 9.74167 7.52549 9.475C7.25882 9.20833 7.12549 8.88333 7.12549 8.5C7.12549 8.11667 7.25882 7.79167 7.52549 7.525C7.79216 7.25833 8.11716 7.125 8.50049 7.125C8.88382 7.125 9.20882 7.25833 9.47549 7.525C9.74216 7.79167 9.87549 8.11667 9.87549 8.5C9.87549 8.88333 9.74216 9.20833 9.47549 9.475C9.20882 9.74167 8.88382 9.875 8.50049 9.875ZM12.0005 13.375C11.6172 13.375 11.2922 13.2417 11.0255 12.975C10.7588 12.7083 10.6255 12.3833 10.6255 12C10.6255 11.6167 10.7588 11.2917 11.0255 11.025C11.2922 10.7583 11.6172 10.625 12.0005 10.625C12.3838 10.625 12.7088 10.7583 12.9755 11.025C13.2422 11.2917 13.3755 11.6167 13.3755 12C13.3755 12.3833 13.2422 12.7083 12.9755 12.975C12.7088 13.2417 12.3838 13.375 12.0005 13.375ZM15.5005 16.875C15.1172 16.875 14.7922 16.7417 14.5255 16.475C14.2588 16.2083 14.1255 15.8833 14.1255 15.5C14.1255 15.1167 14.2588 14.7917 14.5255 14.525C14.7922 14.2583 15.1172 14.125 15.5005 14.125C15.8838 14.125 16.2088 14.2583 16.4755 14.525C16.7422 14.7917 16.8755 15.1167 16.8755 15.5C16.8755 15.8833 16.7422 16.2083 16.4755 16.475C16.2088 16.7417 15.8838 16.875 15.5005 16.875ZM15.5005 9.875C15.1172 9.875 14.7922 9.74167 14.5255 9.475C14.2588 9.20833 14.1255 8.88333 14.1255 8.5C14.1255 8.11667 14.2588 7.79167 14.5255 7.525C14.7922 7.25833 15.1172 7.125 15.5005 7.125C15.8838 7.125 16.2088 7.25833 16.4755 7.525C16.7422 7.79167 16.8755 8.11667 16.8755 8.5C16.8755 8.88333 16.7422 9.20833 16.4755 9.475C16.2088 9.74167 15.8838 9.875 15.5005 9.875Z" fill="black"/>
</g>
<defs>
<clipPath id="clip0_3191_39659">
<rect width="24" height="24" fill="white"/>
</clipPath>
</defs>
</svg>
