<svg width="24" height="24" viewBox="0 0 24 24" fill="none" xmlns="http://www.w3.org/2000/svg">
<g clip-path="url(#clip0_3191_39655)">
<rect width="24" height="24" fill="white"/>
<path d="M6.67549 21C5.99216 21 5.36716 20.8417 4.80049 20.525C4.25049 20.1917 3.80882 19.75 3.47549 19.2C3.15882 18.6333 3.00049 18.0083 3.00049 17.325V6.675C3.00049 5.99167 3.15882 5.36667 3.47549 4.8C3.80882 4.23333 4.25049 3.79167 4.80049 3.475C5.36716 3.15833 5.99216 3 6.67549 3H17.3255C18.0088 3 18.6338 3.15833 19.2005 3.475C19.7672 3.79167 20.2088 4.23333 20.5255 4.8C20.8422 5.36667 21.0005 5.99167 21.0005 6.675V17.325C21.0005 18.0083 20.8422 18.6333 20.5255 19.2C20.2088 19.75 19.7672 20.1917 19.2005 20.525C18.6338 20.8417 18.0088 21 17.3255 21H6.67549ZM17.3255 20.075C18.0755 20.075 18.7088 19.8083 19.2255 19.275C19.7588 18.7417 20.0255 18.0917 20.0255 17.325V6.675C20.0255 5.90833 19.7588 5.25833 19.2255 4.725C18.7088 4.19167 18.0755 3.925 17.3255 3.925H6.67549C5.92549 3.925 5.28382 4.19167 4.75049 4.725C4.23382 5.25833 3.97549 5.90833 3.97549 6.675V17.325C3.97549 18.0917 4.23382 18.7417 4.75049 19.275C5.28382 19.8083 5.92549 20.075 6.67549 20.075H17.3255ZM8.00049 16.625C7.78382 16.625 7.59216 16.55 7.42549 16.4C7.27549 16.25 7.20049 16.0583 7.20049 15.825C7.20049 15.6083 7.27549 15.425 7.42549 15.275C7.59216 15.125 7.78382 15.05 8.00049 15.05C8.21716 15.05 8.40049 15.125 8.55049 15.275C8.71716 15.425 8.80049 15.6083 8.80049 15.825C8.80049 16.0583 8.71716 16.25 8.55049 16.4C8.40049 16.55 8.21716 16.625 8.00049 16.625ZM8.00049 8.95C7.78382 8.95 7.59216 8.875 7.42549 8.725C7.27549 8.575 7.20049 8.39167 7.20049 8.175C7.20049 7.94167 7.27549 7.75 7.42549 7.6C7.59216 7.45 7.78382 7.375 8.00049 7.375C8.21716 7.375 8.40049 7.45 8.55049 7.6C8.71716 7.75 8.80049 7.94167 8.80049 8.175C8.80049 8.39167 8.71716 8.575 8.55049 8.725C8.40049 8.875 8.21716 8.95 8.00049 8.95ZM12.0005 12.8C11.7838 12.8 11.5922 12.725 11.4255 12.575C11.2755 12.4083 11.2005 12.2167 11.2005 12C11.2005 11.7833 11.2755 11.6 11.4255 11.45C11.5922 11.2833 11.7838 11.2 12.0005 11.2C12.2172 11.2 12.4005 11.2833 12.5505 11.45C12.7172 11.6 12.8005 11.7833 12.8005 12C12.8005 12.2167 12.7172 12.4083 12.5505 12.575C12.4005 12.725 12.2172 12.8 12.0005 12.8ZM16.0005 16.625C15.7838 16.625 15.5922 16.55 15.4255 16.4C15.2755 16.25 15.2005 16.0583 15.2005 15.825C15.2005 15.6083 15.2755 15.425 15.4255 15.275C15.5922 15.125 15.7838 15.05 16.0005 15.05C16.2172 15.05 16.4005 15.125 16.5505 15.275C16.7172 15.425 16.8005 15.6083 16.8005 15.825C16.8005 16.0583 16.7172 16.25 16.5505 16.4C16.4005 16.55 16.2172 16.625 16.0005 16.625ZM16.0005 8.95C15.7838 8.95 15.5922 8.875 15.4255 8.725C15.2755 8.575 15.2005 8.39167 15.2005 8.175C15.2005 7.94167 15.2755 7.75 15.4255 7.6C15.5922 7.45 15.7838 7.375 16.0005 7.375C16.2172 7.375 16.4005 7.45 16.5505 7.6C16.7172 7.75 16.8005 7.94167 16.8005 8.175C16.8005 8.39167 16.7172 8.575 16.5505 8.725C16.4005 8.875 16.2172 8.95 16.0005 8.95Z" fill="black"/>
</g>
<defs>
<clipPath id="clip0_3191_39655">
<rect width="24" height="24" fill="white"/>
</clipPath>
</defs>
</svg>
