<svg width="24" height="24" viewBox="0 0 24 24" fill="none" xmlns="http://www.w3.org/2000/svg">
<g clip-path="url(#clip0_3191_39657)">
<rect width="24" height="24" fill="white"/>
<path d="M6.82549 21C6.12549 21 5.47549 20.8333 4.87549 20.5C4.29216 20.1667 3.83382 19.7083 3.50049 19.125C3.16716 18.525 3.00049 17.875 3.00049 17.175V6.825C3.00049 6.125 3.16716 5.48333 3.50049 4.9C3.83382 4.3 4.29216 3.83333 4.87549 3.5C5.47549 3.16667 6.12549 3 6.82549 3H17.1755C17.8755 3 18.5172 3.16667 19.1005 3.5C19.7005 3.83333 20.1672 4.3 20.5005 4.9C20.8338 5.48333 21.0005 6.125 21.0005 6.825V17.175C21.0005 17.875 20.8338 18.525 20.5005 19.125C20.1672 19.7083 19.7005 20.1667 19.1005 20.5C18.5172 20.8333 17.8755 21 17.1755 21H6.82549ZM17.1755 19.6C17.8422 19.6 18.4088 19.3667 18.8755 18.9C19.3422 18.4333 19.5755 17.8583 19.5755 17.175V6.825C19.5755 6.14167 19.3422 5.56667 18.8755 5.1C18.4088 4.63333 17.8422 4.4 17.1755 4.4H6.82549C6.15882 4.4 5.59216 4.63333 5.12549 5.1C4.65882 5.56667 4.42549 6.14167 4.42549 6.825V17.175C4.42549 17.8583 4.65882 18.4333 5.12549 18.9C5.59216 19.3667 6.15882 19.6 6.82549 19.6H17.1755ZM8.25049 16.75C7.95049 16.75 7.69216 16.65 7.47549 16.45C7.27549 16.2333 7.17549 15.975 7.17549 15.675C7.17549 15.375 7.27549 15.1167 7.47549 14.9C7.69216 14.6833 7.95049 14.575 8.25049 14.575C8.55049 14.575 8.80049 14.6833 9.00049 14.9C9.21716 15.1167 9.32549 15.375 9.32549 15.675C9.32549 15.975 9.21716 16.2333 9.00049 16.45C8.80049 16.65 8.55049 16.75 8.25049 16.75ZM8.25049 9.425C7.95049 9.425 7.69216 9.31667 7.47549 9.1C7.27549 8.88333 7.17549 8.625 7.17549 8.325C7.17549 8.025 7.27549 7.775 7.47549 7.575C7.69216 7.35833 7.95049 7.25 8.25049 7.25C8.55049 7.25 8.80049 7.35833 9.00049 7.575C9.21716 7.775 9.32549 8.025 9.32549 8.325C9.32549 8.625 9.21716 8.88333 9.00049 9.1C8.80049 9.31667 8.55049 9.425 8.25049 9.425ZM12.0005 13.075C11.7005 13.075 11.4422 12.975 11.2255 12.775C11.0255 12.5583 10.9255 12.3 10.9255 12C10.9255 11.7 11.0255 11.45 11.2255 11.25C11.4422 11.0333 11.7005 10.925 12.0005 10.925C12.3005 10.925 12.5505 11.0333 12.7505 11.25C12.9672 11.45 13.0755 11.7 13.0755 12C13.0755 12.3 12.9672 12.5583 12.7505 12.775C12.5505 12.975 12.3005 13.075 12.0005 13.075ZM15.7505 16.75C15.4505 16.75 15.1922 16.65 14.9755 16.45C14.7755 16.2333 14.6755 15.975 14.6755 15.675C14.6755 15.375 14.7755 15.1167 14.9755 14.9C15.1922 14.6833 15.4505 14.575 15.7505 14.575C16.0505 14.575 16.3005 14.6833 16.5005 14.9C16.7172 15.1167 16.8255 15.375 16.8255 15.675C16.8255 15.975 16.7172 16.2333 16.5005 16.45C16.3005 16.65 16.0505 16.75 15.7505 16.75ZM15.7505 9.425C15.4505 9.425 15.1922 9.31667 14.9755 9.1C14.7755 8.88333 14.6755 8.625 14.6755 8.325C14.6755 8.025 14.7755 7.775 14.9755 7.575C15.1922 7.35833 15.4505 7.25 15.7505 7.25C16.0505 7.25 16.3005 7.35833 16.5005 7.575C16.7172 7.775 16.8255 8.025 16.8255 8.325C16.8255 8.625 16.7172 8.88333 16.5005 9.1C16.3005 9.31667 16.0505 9.425 15.7505 9.425Z" fill="black"/>
</g>
<defs>
<clipPath id="clip0_3191_39657">
<rect width="24" height="24" fill="white"/>
</clipPath>
</defs>
</svg>
