<svg width="24" height="24" viewBox="0 0 24 24" fill="none" xmlns="http://www.w3.org/2000/svg">
<g clip-path="url(#clip0_3191_39671)">
<rect width="24" height="24" fill="white"/>
<path d="M19.25 20.55C18.7167 20.85 18.1333 21 17.5 21H6.5C5.86667 21 5.275 20.85 4.725 20.55C4.19167 20.2333 3.76667 19.8083 3.45 19.275C3.15 18.725 3 18.1333 3 17.5V6.5C3 5.86667 3.15 5.28333 3.45 4.75C3.76667 4.2 4.19167 3.775 4.725 3.475C5.275 3.15833 5.86667 3 6.5 3H17.5C18.1333 3 18.7167 3.15833 19.25 3.475C19.8 3.775 20.225 4.2 20.525 4.75C20.8417 5.28333 21 5.86667 21 6.5V17.5C21 18.1333 20.8417 18.725 20.525 19.275C20.225 19.8083 19.8 20.2333 19.25 20.55ZM11.25 12.75C11.4667 12.9667 11.7167 13.075 12 13.075C12.3 13.075 12.55 12.975 12.75 12.775C12.9667 12.5583 13.075 12.3 13.075 12C13.075 11.7 12.9667 11.45 12.75 11.25C12.55 11.0333 12.3 10.925 12 10.925C11.7 10.925 11.4417 11.0333 11.225 11.25C11.025 11.45 10.925 11.7 10.925 12C10.925 12.2833 11.0333 12.5333 11.25 12.75ZM15.5 8.5C15.7167 8.71667 15.9667 8.825 16.25 8.825C16.55 8.825 16.8 8.725 17 8.525C17.2167 8.30833 17.325 8.05 17.325 7.75C17.325 7.45 17.2167 7.2 17 7C16.8 6.78333 16.55 6.675 16.25 6.675C15.95 6.675 15.6917 6.78333 15.475 7C15.275 7.2 15.175 7.45 15.175 7.75C15.175 8.03333 15.2833 8.28333 15.5 8.5ZM7 8.5C7.21667 8.71667 7.46667 8.825 7.75 8.825C8.05 8.825 8.3 8.725 8.5 8.525C8.71667 8.30833 8.825 8.05 8.825 7.75C8.825 7.45 8.71667 7.2 8.5 7C8.3 6.78333 8.05 6.675 7.75 6.675C7.45 6.675 7.19167 6.78333 6.975 7C6.775 7.2 6.675 7.45 6.675 7.75C6.675 8.03333 6.78333 8.28333 7 8.5ZM7 17C7.21667 17.2167 7.46667 17.325 7.75 17.325C8.05 17.325 8.3 17.225 8.5 17.025C8.71667 16.8083 8.825 16.55 8.825 16.25C8.825 15.95 8.71667 15.7 8.5 15.5C8.3 15.2833 8.05 15.175 7.75 15.175C7.45 15.175 7.19167 15.2833 6.975 15.5C6.775 15.7 6.675 15.95 6.675 16.25C6.675 16.5333 6.78333 16.7833 7 17ZM15.5 17C15.7167 17.2167 15.9667 17.325 16.25 17.325C16.55 17.325 16.8 17.225 17 17.025C17.2167 16.8083 17.325 16.55 17.325 16.25C17.325 15.95 17.2167 15.7 17 15.5C16.8 15.2833 16.55 15.175 16.25 15.175C15.95 15.175 15.6917 15.2833 15.475 15.5C15.275 15.7 15.175 15.95 15.175 16.25C15.175 16.5333 15.2833 16.7833 15.5 17Z" fill="black"/>
</g>
<defs>
<clipPath id="clip0_3191_39671">
<rect width="24" height="24" fill="white"/>
</clipPath>
</defs>
</svg>
