<svg width="24" height="24" viewBox="0 0 24 24" fill="none" xmlns="http://www.w3.org/2000/svg">
<g clip-path="url(#clip0_3191_39009)">
<rect width="24" height="24" fill="white"/>
<path d="M2.50049 21V18.225H21.5005V21H2.50049ZM12.0005 4.525C11.3672 4.525 10.7755 4.675 10.2255 4.975C9.69216 5.275 9.26716 5.69167 8.95049 6.225C8.65049 6.75833 8.50049 7.34167 8.50049 7.975C8.50049 9.00833 8.85049 10 9.55049 10.95C10.2672 11.9 11.2338 12.8417 12.4505 13.775H11.5505C12.7672 12.8417 13.7255 11.9 14.4255 10.95C15.1422 10 15.5005 9.00833 15.5005 7.975C15.5005 7.34167 15.3422 6.75833 15.0255 6.225C14.7255 5.69167 14.3005 5.275 13.7505 4.975C13.2172 4.675 12.6338 4.525 12.0005 4.525ZM12.0005 16.975C10.5505 15.8583 9.39216 14.8667 8.52549 14C7.65882 13.1333 6.96716 12.2 6.45049 11.2C5.93382 10.1833 5.67549 9.1 5.67549 7.95C5.67549 6.81667 5.95049 5.775 6.50049 4.825C7.06716 3.875 7.83382 3.125 8.80049 2.575C9.76716 2.025 10.8338 1.75 12.0005 1.75C13.1672 1.75 14.2338 2.025 15.2005 2.575C16.1672 3.125 16.9255 3.875 17.4755 4.825C18.0422 5.775 18.3255 6.81667 18.3255 7.95C18.3255 9.1 18.0672 10.1833 17.5505 11.2C17.0338 12.2 16.3422 13.1333 15.4755 14C14.6088 14.8667 13.4505 15.8583 12.0005 16.975ZM16.8255 8.475C16.6755 8.475 16.5422 8.425 16.4255 8.325C16.3255 8.20833 16.2755 8.075 16.2755 7.925C16.2755 7.775 16.3255 7.65 16.4255 7.55C16.5422 7.43333 16.6755 7.375 16.8255 7.375C16.9755 7.375 17.1005 7.43333 17.2005 7.55C17.3172 7.65 17.3755 7.775 17.3755 7.925C17.3755 8.05833 17.3172 8.18333 17.2005 8.3C17.1005 8.41667 16.9755 8.475 16.8255 8.475ZM16.8255 7.925C16.7755 7.925 16.7338 7.925 16.7005 7.925C16.6838 7.925 16.6505 7.925 16.6005 7.925C16.6505 7.925 16.6838 7.925 16.7005 7.925C16.7338 7.925 16.7755 7.925 16.8255 7.925C16.8755 7.925 16.9088 7.925 16.9255 7.925C16.9588 7.925 17.0005 7.925 17.0505 7.925C17.0005 7.925 16.9588 7.925 16.9255 7.925C16.9088 7.925 16.8755 7.925 16.8255 7.925Z" fill="black"/>
</g>
<defs>
<clipPath id="clip0_3191_39009">
<rect width="24" height="24" fill="white"/>
</clipPath>
</defs>
</svg>
