<svg width="24" height="24" viewBox="0 0 24 24" fill="none" xmlns="http://www.w3.org/2000/svg">
<g clip-path="url(#clip0_3191_39015)">
<rect width="24" height="24" fill="white"/>
<path d="M2.5 21H21.5V20.025H2.5V21ZM10.925 9.225C11.225 9.50833 11.5833 9.65 12 9.65C12.4167 9.65 12.7667 9.50833 13.05 9.225C13.35 8.925 13.5 8.56667 13.5 8.15C13.5 7.73333 13.35 7.38333 13.05 7.1C12.7667 6.8 12.4167 6.65 12 6.65C11.5833 6.65 11.225 6.8 10.925 7.1C10.6417 7.38333 10.5 7.73333 10.5 8.15C10.5 8.56667 10.6417 8.925 10.925 9.225ZM15.275 14.675C14.4083 15.5417 13.3167 16.525 12 17.625C10.6833 16.525 9.59167 15.5417 8.725 14.675C7.85833 13.8083 7.10833 12.8167 6.475 11.7C5.85833 10.5833 5.55 9.4 5.55 8.15C5.55 6.96667 5.83333 5.88333 6.4 4.9C6.96667 3.91667 7.74167 3.15 8.725 2.6C9.70833 2.03333 10.8 1.75 12 1.75C13.2 1.75 14.2917 2.03333 15.275 2.6C16.2583 3.15 17.0333 3.91667 17.6 4.9C18.1667 5.88333 18.45 6.96667 18.45 8.15C18.45 9.4 18.1333 10.5833 17.5 11.7C16.8833 12.8167 16.1417 13.8083 15.275 14.675Z" fill="black"/>
</g>
<defs>
<clipPath id="clip0_3191_39015">
<rect width="24" height="24" fill="white"/>
</clipPath>
</defs>
</svg>
