<svg width="24" height="24" viewBox="0 0 24 24" fill="none" xmlns="http://www.w3.org/2000/svg">
<g clip-path="url(#clip0_3191_39217)">
<rect width="24" height="24" fill="white"/>
<path d="M3.00049 7.25L12.0005 2.05L21.0005 7.25V21H3.00049V7.25ZM17.9255 17.975V8.975L12.0005 5.525L6.07549 8.975V17.975H17.9255ZM8.15049 12.2L8.75049 9.775C8.83382 9.425 9.05049 9.13333 9.40049 8.9C9.75049 8.66667 10.1255 8.55 10.5255 8.55H13.5005C13.9172 8.55 14.2922 8.66667 14.6255 8.9C14.9755 9.13333 15.1922 9.425 15.2755 9.775L15.8755 12.2V16.7H13.6255V15.9H10.4255V16.7H8.15049V12.2ZM13.5005 13.65V12.375L13.1005 10.925C13.0838 10.8917 13.0672 10.875 13.0505 10.875C13.0505 10.8583 13.0422 10.85 13.0255 10.85H11.0255C11.0088 10.85 10.9922 10.8583 10.9755 10.875C10.9588 10.875 10.9422 10.8917 10.9255 10.925L10.5255 12.375V13.65H13.5005ZM7.05049 13.65V11.775H8.80049V14.15L7.05049 13.65ZM15.2505 11.775H16.9755V13.65L15.2505 14.15V11.775ZM9.10049 14.975H14.9505V15.375H9.10049V14.975Z" fill="black"/>
</g>
<defs>
<clipPath id="clip0_3191_39217">
<rect width="24" height="24" fill="white"/>
</clipPath>
</defs>
</svg>
