<svg width="24" height="24" viewBox="0 0 24 24" fill="none" xmlns="http://www.w3.org/2000/svg">
<g clip-path="url(#clip0_3191_39213)">
<rect width="24" height="24" fill="white"/>
<path d="M3.00049 7.25L12.0005 2.05L21.0005 7.25V21H3.00049V7.25ZM19.1005 19.15V8.3L12.0005 4.175L4.90049 8.3V19.15H19.1005ZM8.05049 12.25L8.70049 9.9C8.81716 9.51667 9.05049 9.20833 9.40049 8.975C9.75049 8.74167 10.1505 8.625 10.6005 8.625H13.4505C13.9005 8.625 14.3005 8.74167 14.6505 8.975C15.0005 9.20833 15.2338 9.51667 15.3505 9.9L16.0005 12.25V16.875H14.4005V15.875H9.65049V16.875H8.05049V12.25ZM14.4005 14.375V12.25L13.8255 10.4C13.8088 10.3 13.7672 10.2333 13.7005 10.2C13.6338 10.15 13.5588 10.125 13.4755 10.125H10.5755C10.4922 10.125 10.4172 10.15 10.3505 10.2C10.2838 10.2333 10.2422 10.3 10.2255 10.4L9.65049 12.25V14.375H14.4005ZM6.95049 12.725V11.45H8.70049V13.25L6.95049 12.725ZM15.3505 11.45H17.1005V12.725L15.3505 13.25V11.45ZM9.00049 11.45H15.0505V12.95H9.00049V11.45Z" fill="black"/>
</g>
<defs>
<clipPath id="clip0_3191_39213">
<rect width="24" height="24" fill="white"/>
</clipPath>
</defs>
</svg>
