<svg width="24" height="24" viewBox="0 0 24 24" fill="none" xmlns="http://www.w3.org/2000/svg">
<g clip-path="url(#clip0_3191_39231)">
<rect width="24" height="24" fill="white"/>
<path d="M21 21H3V7.25L12 2.05L21 7.25V21ZM7.55 14.025V17.625H9.75V16.625H14.3V17.625H16.5V14.025L17.6 13.725V11.95H16.4L15.75 9.6C15.65 9.23333 15.425 8.94167 15.075 8.725C14.725 8.49167 14.3333 8.375 13.9 8.375H10.15C9.71667 8.375 9.325 8.49167 8.975 8.725C8.625 8.94167 8.4 9.23333 8.3 9.6L7.65 11.95H6.45V13.725L7.55 14.025ZM14.2 12.1H9.85L10.25 10.65C10.2667 10.6 10.3 10.5583 10.35 10.525C10.4 10.4917 10.45 10.475 10.5 10.475H13.55C13.6167 10.475 13.6667 10.4917 13.7 10.525C13.75 10.5583 13.7833 10.6 13.8 10.65L14.2 12.1ZM12.125 14.25C12.125 14.25 12.1167 14.25 12.1 14.25C12.1 14.25 12.0917 14.25 12.075 14.25C12.0917 14.25 12.1 14.25 12.1 14.25C12.1167 14.25 12.125 14.25 12.125 14.25C12.125 14.25 12.1333 14.25 12.15 14.25C12.1333 14.25 12.125 14.25 12.125 14.25ZM11.95 14.25C11.9333 14.25 11.925 14.25 11.925 14.25C11.925 14.25 11.9167 14.25 11.9 14.25C11.9167 14.25 11.925 14.25 11.925 14.25C11.925 14.25 11.9333 14.25 11.95 14.25C11.9667 14.25 11.975 14.25 11.975 14.25C11.975 14.25 11.9667 14.25 11.95 14.25Z" fill="black"/>
</g>
<defs>
<clipPath id="clip0_3191_39231">
<rect width="24" height="24" fill="white"/>
</clipPath>
</defs>
</svg>
