<svg width="24" height="24" viewBox="0 0 24 24" fill="none" xmlns="http://www.w3.org/2000/svg">
<g clip-path="url(#clip0_3191_39509)">
<rect width="24" height="24" fill="white"/>
<path d="M3.375 10H13.625V20.725H3.375V10ZM3 5.5C3 5.03333 3.10833 4.61667 3.325 4.25C3.55833 3.86667 3.85833 3.56667 4.225 3.35C4.60833 3.11667 5.03333 3 5.5 3H11.5C11.9667 3 12.3833 3.11667 12.75 3.35C13.1333 3.56667 13.4333 3.86667 13.65 4.25C13.8833 4.61667 14 5.03333 14 5.5V21H3V5.5ZM13.5 20.525V5.5C13.5 4.93333 13.3083 4.45833 12.925 4.075C12.5417 3.675 12.0667 3.475 11.5 3.475H5.5C4.93333 3.475 4.45833 3.675 4.075 4.075C3.69167 4.45833 3.5 4.93333 3.5 5.5V20.525H13.5ZM20.5 6.15L17.45 3.1L17.775 2.75L21 5.975V18.5C21 18.9 20.875 19.3 20.625 19.7C20.3917 20.0833 20.075 20.4 19.675 20.65C19.2917 20.8833 18.9 21 18.5 21H13.825L13.875 20.525H18.5C18.9833 20.525 19.4333 20.3083 19.85 19.875C20.2833 19.4417 20.5 18.9833 20.5 18.5V6.15ZM18.925 11.5C18.3083 11.5 17.7917 11.2917 17.375 10.875C16.9583 10.4583 16.75 9.94167 16.75 9.325C16.75 8.725 16.9583 8.21667 17.375 7.8C17.7917 7.38333 18.3083 7.175 18.925 7.175H21V7.65H18.925C18.4583 7.65 18.0583 7.81667 17.725 8.15C17.4083 8.46667 17.25 8.85833 17.25 9.325C17.25 9.80833 17.4083 10.2167 17.725 10.55C18.0583 10.8667 18.4583 11.025 18.925 11.025H21V11.5H18.925Z" fill="black"/>
</g>
<defs>
<clipPath id="clip0_3191_39509">
<rect width="24" height="24" fill="white"/>
</clipPath>
</defs>
</svg>
