<svg width="24" height="24" viewBox="0 0 24 24" fill="none" xmlns="http://www.w3.org/2000/svg">
<g clip-path="url(#clip0_3191_39521)">
<rect width="24" height="24" fill="white"/>
<path d="M4.85 11H13.65V17.875H4.85V11ZM3 6.5C3 5.85 3.15 5.25833 3.45 4.725C3.76667 4.19167 4.19167 3.775 4.725 3.475C5.275 3.15833 5.86667 3 6.5 3H12C12.65 3 13.2417 3.15833 13.775 3.475C14.3083 3.775 14.725 4.19167 15.025 4.725C15.3417 5.25833 15.5 5.85 15.5 6.5V21H3V6.5ZM12 17.55V6.525C12 6.50833 11.9917 6.49167 11.975 6.475C11.9583 6.45833 11.9417 6.45 11.925 6.45H6.575C6.55833 6.45 6.54167 6.45833 6.525 6.475C6.50833 6.49167 6.5 6.50833 6.5 6.525V17.55H12ZM17.5 7.425V3L21 5.025V6.1V17.5C21 18.2333 20.8583 18.8667 20.575 19.4C20.3083 19.9167 19.9083 20.3167 19.375 20.6C18.8583 20.8667 18.2333 21 17.5 21H13.85V17.55H17.425C17.4417 17.55 17.4583 17.5417 17.475 17.525C17.4917 17.5083 17.5 17.4917 17.5 17.475V7.425ZM18.5 13.05C18.5 12.4333 18.5 11.975 18.5 11.675C18.5 11.3583 18.5 10.9 18.5 10.3C18.5 9.68333 18.5 9.225 18.5 8.925C18.5 8.60833 18.5 8.15 18.5 7.55V9.525C18.5 9.70833 18.5 9.84167 18.5 9.925C18.5 10.0083 18.5 10.1417 18.5 10.325C18.5 10.4917 18.5 10.6167 18.5 10.7C18.5 10.7833 18.5 10.9083 18.5 11.075V13.05Z" fill="black"/>
</g>
<defs>
<clipPath id="clip0_3191_39521">
<rect width="24" height="24" fill="white"/>
</clipPath>
</defs>
</svg>
