<svg width="24" height="24" viewBox="0 0 24 24" fill="none" xmlns="http://www.w3.org/2000/svg">
<g clip-path="url(#clip0_3191_39515)">
<rect width="24" height="24" fill="white"/>
<path d="M4.1 10H12.9V19.675H4.1V10ZM3 6C3 5.45 3.13333 4.95 3.4 4.5C3.66667 4.03333 4.025 3.66667 4.475 3.4C4.94167 3.13333 5.45 3 6 3H11C11.55 3 12.05 3.13333 12.5 3.4C12.9667 3.66667 13.3333 4.03333 13.6 4.5C13.8667 4.95 14 5.45 14 6V21H3V6ZM12.05 19.1V6C12.05 5.71667 11.9417 5.46667 11.725 5.25C11.5083 5.01667 11.2667 4.9 11 4.9H6C5.73333 4.9 5.49167 5.01667 5.275 5.25C5.05833 5.46667 4.95 5.71667 4.95 6V19.1H12.05ZM19.05 7.325L15.8 4.075L17.15 2.725L21 6.575V18C21 18.55 20.8667 19.0583 20.6 19.525C20.3333 19.975 19.9667 20.3333 19.5 20.6C19.05 20.8667 18.55 21 18 21H13.6V19.1H18C18.2667 19.1 18.5083 18.9917 18.725 18.775C18.9417 18.5417 19.05 18.2833 19.05 18V7.325ZM18.25 12.875C17.4833 12.875 16.8333 12.6083 16.3 12.075C15.7667 11.5417 15.5 10.8917 15.5 10.125C15.5 9.34167 15.7667 8.69167 16.3 8.175C16.8333 7.64167 17.4833 7.375 18.25 7.375H19.475V9.125H18.25C17.9667 9.125 17.725 9.225 17.525 9.425C17.3417 9.60833 17.25 9.84167 17.25 10.125C17.25 10.4083 17.3417 10.65 17.525 10.85C17.725 11.0333 17.9667 11.125 18.25 11.125H19.475V12.875H18.25Z" fill="black"/>
</g>
<defs>
<clipPath id="clip0_3191_39515">
<rect width="24" height="24" fill="white"/>
</clipPath>
</defs>
</svg>
