<svg width="24" height="24" viewBox="0 0 24 24" fill="none" xmlns="http://www.w3.org/2000/svg">
<g clip-path="url(#clip0_3191_38767)">
<rect width="24" height="24" fill="white"/>
<path d="M12.0005 22C10.1672 22 8.48382 21.5583 6.95049 20.675C5.41716 19.7917 4.20882 18.5833 3.32549 17.05C2.44216 15.5167 2.00049 13.8333 2.00049 12C2.00049 10.1667 2.44216 8.48333 3.32549 6.95C4.20882 5.41667 5.41716 4.20833 6.95049 3.325C8.48382 2.44167 10.1672 2 12.0005 2C13.8338 2 15.5172 2.44167 17.0505 3.325C18.5838 4.20833 19.7922 5.41667 20.6755 6.95C21.5588 8.48333 22.0005 10.1667 22.0005 12C22.0005 13.8333 21.5588 15.5167 20.6755 17.05C19.7922 18.5833 18.5838 19.7917 17.0505 20.675C15.5172 21.5583 13.8338 22 12.0005 22ZM12.0005 21.125C13.6838 21.125 15.2172 20.725 16.6005 19.925C17.9838 19.1083 19.0755 18.0083 19.8755 16.625C20.6922 15.225 21.1005 13.6833 21.1005 12C21.1005 10.3167 20.6922 8.78333 19.8755 7.4C19.0755 6 17.9838 4.9 16.6005 4.1C15.2172 3.28333 13.6838 2.875 12.0005 2.875C10.3172 2.875 8.78382 3.28333 7.40049 4.1C6.01716 4.9 4.91716 6 4.10049 7.4C3.30049 8.78333 2.90049 10.3167 2.90049 12C2.90049 13.6833 3.30049 15.225 4.10049 16.625C4.91716 18.0083 6.01716 19.1083 7.40049 19.925C8.78382 20.725 10.3172 21.125 12.0005 21.125ZM12.0005 21.8C11.1172 21.8 10.3422 21.3917 9.67549 20.575C9.00882 19.7417 8.50049 18.5833 8.15049 17.1C7.80049 15.6167 7.62549 13.9167 7.62549 12C7.62549 10.0833 7.80049 8.39167 8.15049 6.925C8.50049 5.44167 9.00882 4.29167 9.67549 3.475C10.3422 2.64167 11.1172 2.225 12.0005 2.225C12.8838 2.225 13.6588 2.64167 14.3255 3.475C14.9922 4.29167 15.5005 5.44167 15.8505 6.925C16.2005 8.39167 16.3755 10.0833 16.3755 12C16.3755 13.9167 16.2005 15.6167 15.8505 17.1C15.5005 18.5833 14.9922 19.7417 14.3255 20.575C13.6588 21.3917 12.8838 21.8 12.0005 21.8ZM12.0005 21.125C12.6838 21.125 13.2922 20.7417 13.8255 19.975C14.3588 19.2083 14.7672 18.1417 15.0505 16.775C15.3338 15.3917 15.4755 13.8 15.4755 12C15.4755 10.2 15.3338 8.61667 15.0505 7.25C14.7672 5.86667 14.3588 4.79167 13.8255 4.025C13.2922 3.25833 12.6838 2.875 12.0005 2.875C11.3172 2.875 10.7088 3.25833 10.1755 4.025C9.64216 4.79167 9.23382 5.86667 8.95049 7.25C8.66716 8.61667 8.52549 10.2 8.52549 12C8.52549 13.8 8.66716 15.3917 8.95049 16.775C9.23382 18.1417 9.64216 19.2083 10.1755 19.975C10.7088 20.7417 11.3172 21.125 12.0005 21.125ZM2.82549 14.525H21.1755V15.375H2.82549V14.525ZM2.82549 8.6H21.1755V9.475H2.82549V8.6Z" fill="black"/>
</g>
<defs>
<clipPath id="clip0_3191_38767">
<rect width="24" height="24" fill="white"/>
</clipPath>
</defs>
</svg>
