<svg width="24" height="24" viewBox="0 0 24 24" fill="none" xmlns="http://www.w3.org/2000/svg">
<g clip-path="url(#clip0_3191_38777)">
<rect width="24" height="24" fill="white"/>
<path d="M12.0005 22C10.1672 22 8.48382 21.5583 6.95049 20.675C5.41716 19.7917 4.20882 18.5833 3.32549 17.05C2.44216 15.5167 2.00049 13.8333 2.00049 12C2.00049 10.1667 2.44216 8.48333 3.32549 6.95C4.20882 5.41667 5.41716 4.20833 6.95049 3.325C8.48382 2.44167 10.1672 2 12.0005 2C13.8338 2 15.5172 2.44167 17.0505 3.325C18.5838 4.20833 19.7922 5.41667 20.6755 6.95C21.5588 8.48333 22.0005 10.1667 22.0005 12C22.0005 13.8333 21.5588 15.5167 20.6755 17.05C19.7922 18.5833 18.5838 19.7917 17.0505 20.675C15.5172 21.5583 13.8338 22 12.0005 22ZM12.0005 18.9C12.2838 18.9 12.5172 18.6167 12.7005 18.05C12.9005 17.4667 13.0505 16.6583 13.1505 15.625C13.2505 14.5917 13.3005 13.3833 13.3005 12C13.3005 10.6333 13.2505 9.43333 13.1505 8.4C13.0505 7.36667 12.9005 6.55833 12.7005 5.975C12.5172 5.39167 12.2838 5.1 12.0005 5.1C11.7172 5.1 11.4755 5.39167 11.2755 5.975C11.0922 6.55833 10.9505 7.36667 10.8505 8.4C10.7505 9.43333 10.7005 10.6333 10.7005 12C10.7005 13.3833 10.7505 14.5917 10.8505 15.625C10.9505 16.6583 11.0922 17.4667 11.2755 18.05C11.4755 18.6167 11.7172 18.9 12.0005 18.9ZM12.0005 21.475C11.0172 21.475 10.1922 21.0917 9.52549 20.325C8.87549 19.5417 8.38382 18.4417 8.05049 17.025C7.73382 15.6083 7.57549 13.9333 7.57549 12C7.57549 10.0833 7.73382 8.41667 8.05049 7C8.38382 5.58333 8.87549 4.49167 9.52549 3.725C10.1922 2.94167 11.0172 2.55 12.0005 2.55C13.0005 2.55 13.8255 2.94167 14.4755 3.725C15.1422 4.50833 15.6338 5.60833 15.9505 7.025C16.2672 8.425 16.4255 10.0833 16.4255 12C16.4255 13.9333 16.2588 15.6083 15.9255 17.025C15.6088 18.4417 15.1172 19.5417 14.4505 20.325C13.8005 21.0917 12.9838 21.475 12.0005 21.475ZM12.0005 18.925C13.2672 18.925 14.4255 18.6167 15.4755 18C16.5255 17.3833 17.3588 16.55 17.9755 15.5C18.5922 14.4333 18.9005 13.2667 18.9005 12C18.9005 10.7333 18.5922 9.575 17.9755 8.525C17.3588 7.45833 16.5255 6.61667 15.4755 6C14.4255 5.38333 13.2672 5.075 12.0005 5.075C10.7338 5.075 9.57549 5.38333 8.52549 6C7.47549 6.61667 6.64216 7.45833 6.02549 8.525C5.40882 9.575 5.10049 10.7333 5.10049 12C5.10049 13.2667 5.40882 14.4333 6.02549 15.5C6.64216 16.55 7.47549 17.3833 8.52549 18C9.57549 18.6167 10.7338 18.925 12.0005 18.925ZM3.00049 10.45H21.0005V13.55H3.00049V10.45ZM5.75049 11.95H18.2505H5.75049Z" fill="black"/>
</g>
<defs>
<clipPath id="clip0_3191_38777">
<rect width="24" height="24" fill="white"/>
</clipPath>
</defs>
</svg>
