<svg width="24" height="24" viewBox="0 0 24 24" fill="none" xmlns="http://www.w3.org/2000/svg">
<g clip-path="url(#clip0_3191_39916)">
<rect width="24" height="24" fill="white"/>
<path d="M3.00049 7.25L12.0005 2.05L21.0005 7.25V21H3.00049V7.25ZM18.5755 18.625V8.6L12.0005 4.8L5.42549 8.6V18.625H18.5755ZM11.5755 10.275L11.9255 9.6C12.0922 9.3 12.3672 9.04167 12.7505 8.825C13.1338 8.59167 13.5922 8.475 14.1255 8.475C15.0922 8.475 15.8255 8.78333 16.3255 9.4C16.8255 10.0167 17.0755 10.7083 17.0755 11.475C17.0755 12.4583 16.6255 13.4417 15.7255 14.425C14.8422 15.4083 13.6088 16.3583 12.0255 17.275C10.6255 16.475 9.42549 15.575 8.42549 14.575C7.44216 13.575 6.95049 12.5417 6.95049 11.475C6.95049 10.6917 7.19216 10 7.67549 9.4C8.15882 8.78333 8.89216 8.475 9.87549 8.475C10.4088 8.475 10.8672 8.59167 11.2505 8.825C11.6505 9.04167 11.9338 9.3 12.1005 9.6L12.4505 10.275H11.5755ZM11.3005 11.6L11.1505 11.275C11.0172 10.9917 10.8505 10.775 10.6505 10.625C10.4505 10.4583 10.2005 10.375 9.90049 10.375C9.58382 10.375 9.32549 10.4833 9.12549 10.7C8.94216 10.9167 8.85049 11.1833 8.85049 11.5C8.85049 12.0833 9.11716 12.675 9.65049 13.275C10.2005 13.8583 10.9922 14.4833 12.0255 15.15C13.0255 14.4667 13.7922 13.8333 14.3255 13.25C14.8755 12.6667 15.1505 12.0833 15.1505 11.5C15.1505 11.1833 15.0505 10.9167 14.8505 10.7C14.6672 10.4833 14.4172 10.375 14.1005 10.375C13.7838 10.375 13.5255 10.4583 13.3255 10.625C13.1422 10.775 12.9838 10.9917 12.8505 11.275L12.7005 11.6H11.3005Z" fill="black"/>
</g>
<defs>
<clipPath id="clip0_3191_39916">
<rect width="24" height="24" fill="white"/>
</clipPath>
</defs>
</svg>
