<svg width="24" height="24" viewBox="0 0 24 24" fill="none" xmlns="http://www.w3.org/2000/svg">
<g clip-path="url(#clip0_3191_40076)">
<rect width="24" height="24" fill="white"/>
<path d="M14.3505 16.65C14.2338 16.65 14.1505 16.65 14.1005 16.65C14.0505 16.65 13.9672 16.65 13.8505 16.65H12.2755H11.5255V12.75H14.3505C14.9838 12.75 15.5172 12.9667 15.9505 13.4C16.3838 13.8333 16.6005 14.3667 16.6005 15V16.65H14.3505ZM17.7505 3H21.0005V21H17.7505V3ZM3.00049 21V3H6.25049V21H3.00049ZM20.0005 19.35H3.95049V16.25H20.0005V19.35ZM14.3505 8.65C14.2338 8.65 14.1505 8.65 14.1005 8.65C14.0505 8.65 13.9672 8.65 13.8505 8.65H12.2755H11.5255V4.75H14.3505C14.9838 4.75 15.5172 4.96667 15.9505 5.4C16.3838 5.83333 16.6005 6.36667 16.6005 7V8.65H14.3505ZM20.0005 11.35H3.95049V8.25H20.0005V11.35ZM8.95049 15.425C8.48382 15.425 8.09216 15.275 7.77549 14.975C7.47549 14.6583 7.32549 14.2667 7.32549 13.8C7.32549 13.3333 7.47549 12.95 7.77549 12.65C8.09216 12.3333 8.48382 12.175 8.95049 12.175C9.41716 12.175 9.80049 12.3333 10.1005 12.65C10.4172 12.95 10.5755 13.3333 10.5755 13.8C10.5755 14.2667 10.4172 14.6583 10.1005 14.975C9.80049 15.275 9.41716 15.425 8.95049 15.425ZM8.95049 14.35C8.81716 14.35 8.71716 14.35 8.65049 14.35C8.58382 14.35 8.48382 14.35 8.35049 14.35C8.48382 14.35 8.58382 14.35 8.65049 14.35C8.71716 14.35 8.81716 14.35 8.95049 14.35C9.08382 14.35 9.18382 14.35 9.25049 14.35C9.31716 14.35 9.41716 14.35 9.55049 14.35C9.41716 14.35 9.31716 14.35 9.25049 14.35C9.18382 14.35 9.08382 14.35 8.95049 14.35ZM8.95049 7.425C8.48382 7.425 8.09216 7.275 7.77549 6.975C7.47549 6.65833 7.32549 6.26667 7.32549 5.8C7.32549 5.33333 7.47549 4.95 7.77549 4.65C8.09216 4.33333 8.48382 4.175 8.95049 4.175C9.41716 4.175 9.80049 4.33333 10.1005 4.65C10.4172 4.95 10.5755 5.33333 10.5755 5.8C10.5755 6.26667 10.4172 6.65833 10.1005 6.975C9.80049 7.275 9.41716 7.425 8.95049 7.425ZM8.95049 6.35C8.81716 6.35 8.71716 6.35 8.65049 6.35C8.58382 6.35 8.48382 6.35 8.35049 6.35C8.48382 6.35 8.58382 6.35 8.65049 6.35C8.71716 6.35 8.81716 6.35 8.95049 6.35C9.08382 6.35 9.18382 6.35 9.25049 6.35C9.31716 6.35 9.41716 6.35 9.55049 6.35C9.41716 6.35 9.31716 6.35 9.25049 6.35C9.18382 6.35 9.08382 6.35 8.95049 6.35Z" fill="black"/>
</g>
<defs>
<clipPath id="clip0_3191_40076">
<rect width="24" height="24" fill="white"/>
</clipPath>
</defs>
</svg>
