<svg width="24" height="24" viewBox="0 0 24 24" fill="none" xmlns="http://www.w3.org/2000/svg">
<g clip-path="url(#clip0_3191_40074)">
<rect width="24" height="24" fill="white"/>
<path d="M14.7755 16.975C14.6588 16.975 14.5755 16.975 14.5255 16.975C14.4755 16.975 14.3922 16.975 14.2755 16.975H12.4505H10.8755V12.925H14.7755C15.4088 12.925 15.9422 13.1417 16.3755 13.575C16.8088 14.0083 17.0255 14.5417 17.0255 15.175V16.975H14.7755ZM18.4255 3H21.0005V21H18.4255V3ZM3.00049 21V3H5.62549V21H3.00049ZM20.0005 19.125H3.95049V16.575H20.0005V19.125ZM14.7755 8.975C14.6588 8.975 14.5755 8.975 14.5255 8.975C14.4755 8.975 14.3922 8.975 14.2755 8.975H12.4505H10.8755V4.925H14.7755C15.4088 4.925 15.9422 5.14167 16.3755 5.575C16.8088 6.00833 17.0255 6.54167 17.0255 7.175V8.975H14.7755ZM20.0005 11.125H3.95049V8.575H20.0005V11.125ZM8.27549 15.725C7.84216 15.725 7.47549 15.575 7.17549 15.275C6.87549 14.975 6.72549 14.6083 6.72549 14.175C6.72549 13.7417 6.87549 13.3833 7.17549 13.1C7.47549 12.8 7.84216 12.65 8.27549 12.65C8.70882 12.65 9.06716 12.8 9.35049 13.1C9.65049 13.3833 9.80049 13.7417 9.80049 14.175C9.80049 14.6083 9.65049 14.975 9.35049 15.275C9.06716 15.575 8.70882 15.725 8.27549 15.725ZM8.27549 14.725C8.14216 14.725 8.04216 14.725 7.97549 14.725C7.92549 14.725 7.83382 14.725 7.70049 14.725C7.83382 14.725 7.92549 14.725 7.97549 14.725C8.04216 14.725 8.14216 14.725 8.27549 14.725C8.39216 14.725 8.48382 14.725 8.55049 14.725C8.61716 14.725 8.70882 14.725 8.82549 14.725C8.70882 14.725 8.61716 14.725 8.55049 14.725C8.48382 14.725 8.39216 14.725 8.27549 14.725ZM8.27549 7.725C7.84216 7.725 7.47549 7.575 7.17549 7.275C6.87549 6.975 6.72549 6.60833 6.72549 6.175C6.72549 5.74167 6.87549 5.38333 7.17549 5.1C7.47549 4.8 7.84216 4.65 8.27549 4.65C8.70882 4.65 9.06716 4.8 9.35049 5.1C9.65049 5.38333 9.80049 5.74167 9.80049 6.175C9.80049 6.60833 9.65049 6.975 9.35049 7.275C9.06716 7.575 8.70882 7.725 8.27549 7.725ZM8.27549 6.725C8.14216 6.725 8.04216 6.725 7.97549 6.725C7.92549 6.725 7.83382 6.725 7.70049 6.725C7.83382 6.725 7.92549 6.725 7.97549 6.725C8.04216 6.725 8.14216 6.725 8.27549 6.725C8.39216 6.725 8.48382 6.725 8.55049 6.725C8.61716 6.725 8.70882 6.725 8.82549 6.725C8.70882 6.725 8.61716 6.725 8.55049 6.725C8.48382 6.725 8.39216 6.725 8.27549 6.725Z" fill="black"/>
</g>
<defs>
<clipPath id="clip0_3191_40074">
<rect width="24" height="24" fill="white"/>
</clipPath>
</defs>
</svg>
