<svg width="24" height="24" viewBox="0 0 24 24" fill="none" xmlns="http://www.w3.org/2000/svg">
<g clip-path="url(#clip0_3191_40072)">
<rect width="24" height="24" fill="white"/>
<path d="M15.5005 15.475C15.5005 15.2917 15.4338 15.1333 15.3005 15C15.1672 14.8667 15.0172 14.8 14.8505 14.8H12.2755V17.325H10.2005V12.725H14.8505C15.6172 12.725 16.2588 12.9917 16.7755 13.525C17.3088 14.0417 17.5755 14.6917 17.5755 15.475V17.325H15.5005V15.475ZM18.9255 3H21.0005V21H18.9255V3ZM3.00049 21V3H5.12549V21H3.00049ZM20.0255 19H3.92549V16.925H20.0255V19ZM15.5005 7.475C15.5005 7.29167 15.4338 7.13333 15.3005 7C15.1672 6.86667 15.0172 6.8 14.8505 6.8H12.2755V9.325H10.2005V4.725H14.8505C15.6172 4.725 16.2588 4.99167 16.7755 5.525C17.3088 6.04167 17.5755 6.69167 17.5755 7.475V9.325H15.5005V7.475ZM20.0255 11H3.92549V8.925H20.0255V11ZM7.72549 15.575C7.34216 15.575 7.00882 15.4417 6.72549 15.175C6.45882 14.8917 6.32549 14.55 6.32549 14.15C6.32549 13.75 6.45882 13.4167 6.72549 13.15C7.00882 12.8667 7.34216 12.725 7.72549 12.725C8.14216 12.725 8.48382 12.8667 8.75049 13.15C9.01716 13.4167 9.15049 13.75 9.15049 14.15C9.15049 14.55 9.01716 14.8917 8.75049 15.175C8.48382 15.4417 8.14216 15.575 7.72549 15.575ZM7.72549 14.725C7.62549 14.725 7.54216 14.725 7.47549 14.725C7.40882 14.725 7.32549 14.725 7.22549 14.725C7.32549 14.725 7.40882 14.725 7.47549 14.725C7.54216 14.725 7.62549 14.725 7.72549 14.725C7.84216 14.725 7.92549 14.725 7.97549 14.725C8.04216 14.725 8.13382 14.725 8.25049 14.725C8.13382 14.725 8.04216 14.725 7.97549 14.725C7.92549 14.725 7.84216 14.725 7.72549 14.725ZM7.72549 7.575C7.34216 7.575 7.00882 7.44167 6.72549 7.175C6.45882 6.89167 6.32549 6.55 6.32549 6.15C6.32549 5.75 6.45882 5.41667 6.72549 5.15C6.99216 4.86667 7.32549 4.725 7.72549 4.725C8.14216 4.725 8.48382 4.86667 8.75049 5.15C9.01716 5.41667 9.15049 5.75 9.15049 6.15C9.15049 6.55 9.01716 6.89167 8.75049 7.175C8.48382 7.44167 8.14216 7.575 7.72549 7.575ZM7.72549 6.725C7.62549 6.725 7.54216 6.725 7.47549 6.725C7.40882 6.725 7.32549 6.725 7.22549 6.725C7.32549 6.725 7.40882 6.725 7.47549 6.725C7.54216 6.725 7.62549 6.725 7.72549 6.725C7.84216 6.725 7.92549 6.725 7.97549 6.725C8.04216 6.725 8.13382 6.725 8.25049 6.725C8.13382 6.725 8.04216 6.725 7.97549 6.725C7.92549 6.725 7.84216 6.725 7.72549 6.725Z" fill="black"/>
</g>
<defs>
<clipPath id="clip0_3191_40072">
<rect width="24" height="24" fill="white"/>
</clipPath>
</defs>
</svg>
