<svg width="24" height="24" viewBox="0 0 24 24" fill="none" xmlns="http://www.w3.org/2000/svg">
<g clip-path="url(#clip0_3191_40076)">
<rect width="24" height="24" fill="white"/>
<path d="M14.3505 16.65C14.2338 16.65 14.1505 16.65 14.1005 16.65C14.0505 16.65 13.9672 16.65 13.8505 16.65H12.2755H11.5255V12.75H14.3505C14.9838 12.75 15.5172 12.9667 15.9505 13.4C16.3838 13.8333 16.6005 14.3667 16.6005 15V16.65H14.3505ZM17.7505 3H21.0005V21H17.7505V3ZM3.00049 21V3H6.25049V21H3.00049ZM20.0005 19.35H3.95049V16.25H20.0005V19.35ZM14.3505 8.65C14.2338 8.65 14.1505 8.65 14.1005 8.65C14.0505 8.65 13.9672 8.65 13.8505 8.65H12.2755H11.5255V4.75H14.3505C14.9838 4.75 15.5172 4.96667 15.9505 5.4C16.3838 5.83333 16.6005 6.36667 16.6005 7V8.65H14.3505ZM20.0005 11.35H3.95049V8.25H20.0005V11.35ZM8.95049 15.55C8.48382 15.55 8.09216 15.4 7.77549 15.1C7.47549 14.7833 7.32549 14.3917 7.32549 13.925C7.32549 13.4583 7.47549 13.075 7.77549 12.775C8.09216 12.4583 8.48382 12.3 8.95049 12.3C9.41716 12.3 9.80049 12.4583 10.1005 12.775C10.4172 13.075 10.5755 13.4583 10.5755 13.925C10.5755 14.3917 10.4172 14.7833 10.1005 15.1C9.80049 15.4 9.41716 15.55 8.95049 15.55ZM8.95049 14.475C8.81716 14.475 8.71716 14.475 8.65049 14.475C8.58382 14.475 8.48382 14.475 8.35049 14.475C8.48382 14.475 8.58382 14.475 8.65049 14.475C8.71716 14.475 8.81716 14.475 8.95049 14.475C9.08382 14.475 9.18382 14.475 9.25049 14.475C9.31716 14.475 9.41716 14.475 9.55049 14.475C9.41716 14.475 9.31716 14.475 9.25049 14.475C9.18382 14.475 9.08382 14.475 8.95049 14.475ZM8.95049 7.55C8.48382 7.55 8.09216 7.4 7.77549 7.1C7.47549 6.78333 7.32549 6.39167 7.32549 5.925C7.32549 5.45833 7.47549 5.075 7.77549 4.775C8.09216 4.45833 8.48382 4.3 8.95049 4.3C9.41716 4.3 9.80049 4.45833 10.1005 4.775C10.4172 5.075 10.5755 5.45833 10.5755 5.925C10.5755 6.39167 10.4172 6.78333 10.1005 7.1C9.80049 7.4 9.41716 7.55 8.95049 7.55ZM8.95049 6.475C8.81716 6.475 8.71716 6.475 8.65049 6.475C8.58382 6.475 8.48382 6.475 8.35049 6.475C8.48382 6.475 8.58382 6.475 8.65049 6.475C8.71716 6.475 8.81716 6.475 8.95049 6.475C9.08382 6.475 9.18382 6.475 9.25049 6.475C9.31716 6.475 9.41716 6.475 9.55049 6.475C9.41716 6.475 9.31716 6.475 9.25049 6.475C9.18382 6.475 9.08382 6.475 8.95049 6.475Z" fill="black"/>
</g>
<defs>
<clipPath id="clip0_3191_40076">
<rect width="24" height="24" fill="white"/>
</clipPath>
</defs>
</svg>
