<svg width="24" height="24" viewBox="0 0 24 24" fill="none" xmlns="http://www.w3.org/2000/svg">
<g clip-path="url(#clip0_3191_40096)">
<rect width="24" height="24" fill="white"/>
<path d="M5.72549 21C5.22549 21 4.76716 20.8833 4.35049 20.65C3.93382 20.4 3.60049 20.0667 3.35049 19.65C3.11716 19.2333 3.00049 18.7667 3.00049 18.25V14H21.0005V18.25C21.0005 18.7667 20.8755 19.2333 20.6255 19.65C20.3922 20.0667 20.0672 20.4 19.6505 20.65C19.2338 20.8833 18.7755 21 18.2755 21H5.72549ZM18.2505 19.2C18.5005 19.2 18.7088 19.1167 18.8755 18.95C19.0588 18.7667 19.1505 18.5417 19.1505 18.275V15.8H4.85049V18.275C4.85049 18.5417 4.93382 18.7667 5.10049 18.95C5.28382 19.1167 5.50049 19.2 5.75049 19.2H18.2505ZM11.4005 11.5C10.9338 10.85 10.6922 10.0833 10.6755 9.2C10.6588 8.3 10.8422 7.50833 11.2255 6.825C11.5255 6.275 11.6422 5.66667 11.5755 5C11.5255 4.33333 11.2588 3.66667 10.7755 3H12.6005C13.0838 3.66667 13.3338 4.44167 13.3505 5.325C13.3672 6.19167 13.1755 6.975 12.7755 7.675C12.4755 8.20833 12.3588 8.825 12.4255 9.525C12.5088 10.225 12.7672 10.8833 13.2005 11.5H11.4005ZM6.12549 11.5C5.65882 10.85 5.41716 10.0833 5.40049 9.2C5.38382 8.3 5.56716 7.50833 5.95049 6.825C6.25049 6.275 6.36716 5.66667 6.30049 5C6.25049 4.33333 5.98382 3.66667 5.50049 3H7.32549C7.80882 3.66667 8.05882 4.44167 8.07549 5.325C8.09216 6.19167 7.90049 6.975 7.50049 7.675C7.20049 8.20833 7.08382 8.825 7.15049 9.525C7.23382 10.225 7.49216 10.8833 7.92549 11.5H6.12549ZM16.6755 11.5C16.2088 10.85 15.9672 10.0833 15.9505 9.2C15.9338 8.3 16.1172 7.50833 16.5005 6.825C16.8005 6.275 16.9172 5.66667 16.8505 5C16.8005 4.33333 16.5338 3.66667 16.0505 3H17.8755C18.3588 3.66667 18.6088 4.44167 18.6255 5.325C18.6422 6.19167 18.4505 6.975 18.0505 7.675C17.7505 8.20833 17.6338 8.825 17.7005 9.525C17.7838 10.225 18.0422 10.8833 18.4755 11.5H16.6755Z" fill="black"/>
</g>
<defs>
<clipPath id="clip0_3191_40096">
<rect width="24" height="24" fill="white"/>
</clipPath>
</defs>
</svg>
