<svg width="24" height="24" viewBox="0 0 24 24" fill="none" xmlns="http://www.w3.org/2000/svg">
<g clip-path="url(#clip0_3190_38475)">
<rect width="24" height="24" fill="white"/>
<path d="M4.85049 21C4.51716 21 4.20882 20.9167 3.92549 20.75C3.64216 20.5833 3.41716 20.3583 3.25049 20.075C3.08382 19.7917 3.00049 19.4833 3.00049 19.15V14H21.0005V19.15C21.0005 19.4833 20.9172 19.7917 20.7505 20.075C20.5838 20.3583 20.3588 20.5833 20.0755 20.75C19.7922 20.9167 19.4838 21 19.1505 21H4.85049ZM19.1505 20.525C19.5338 20.525 19.8505 20.3917 20.1005 20.125C20.3672 19.8583 20.5005 19.5333 20.5005 19.15V14.475H3.50049V19.15C3.50049 19.5333 3.62549 19.8583 3.87549 20.125C4.14216 20.3917 4.46716 20.525 4.85049 20.525H19.1505ZM12.2255 11.9C11.5255 11.1167 11.1255 10.3583 11.0255 9.625C10.9422 8.875 11.1672 8.075 11.7005 7.225C12.0338 6.69167 12.2338 6.2 12.3005 5.75C12.3838 5.28333 12.3338 4.84167 12.1505 4.425C11.9838 3.99167 11.6838 3.54167 11.2505 3.075L11.6255 2.75C12.3255 3.53333 12.7172 4.29167 12.8005 5.025C12.9005 5.75833 12.6838 6.55833 12.1505 7.425C11.8172 7.95833 11.6172 8.45833 11.5505 8.925C11.4838 9.375 11.5338 9.81667 11.7005 10.25C11.8672 10.6667 12.1672 11.1083 12.6005 11.575L12.2255 11.9ZM18.4755 11.9C17.7755 11.1167 17.3755 10.3583 17.2755 9.625C17.1922 8.875 17.4172 8.075 17.9505 7.225C18.2838 6.69167 18.4838 6.2 18.5505 5.75C18.6338 5.28333 18.5838 4.84167 18.4005 4.425C18.2338 3.99167 17.9338 3.54167 17.5005 3.075L17.8755 2.75C18.5755 3.53333 18.9672 4.29167 19.0505 5.025C19.1505 5.75833 18.9338 6.55833 18.4005 7.425C18.0672 7.95833 17.8672 8.45833 17.8005 8.925C17.7338 9.375 17.7838 9.81667 17.9505 10.25C18.1172 10.6667 18.4172 11.1083 18.8505 11.575L18.4755 11.9ZM5.97549 11.9C5.27549 11.1167 4.87549 10.3583 4.77549 9.625C4.69216 8.875 4.91716 8.075 5.45049 7.225C5.78382 6.69167 5.98382 6.2 6.05049 5.75C6.13382 5.28333 6.08382 4.84167 5.90049 4.425C5.73382 3.99167 5.43382 3.54167 5.00049 3.075L5.37549 2.75C6.07549 3.53333 6.46716 4.29167 6.55049 5.025C6.65049 5.75833 6.43382 6.55833 5.90049 7.425C5.56716 7.95833 5.36716 8.45833 5.30049 8.925C5.23382 9.375 5.28382 9.81667 5.45049 10.25C5.61716 10.6667 5.91716 11.1083 6.35049 11.575L5.97549 11.9Z" fill="black"/>
</g>
<defs>
<clipPath id="clip0_3190_38475">
<rect width="24" height="24" fill="white"/>
</clipPath>
</defs>
</svg>
