<svg width="24" height="24" viewBox="0 0 24 24" fill="none" xmlns="http://www.w3.org/2000/svg">
<g clip-path="url(#clip0_3191_40100)">
<rect width="24" height="24" fill="white"/>
<path d="M6.25049 21C5.65049 21 5.10049 20.8583 4.60049 20.575C4.10049 20.2917 3.70882 19.9 3.42549 19.4C3.14216 18.9 3.00049 18.35 3.00049 17.75V13.075H21.0005V17.75C21.0005 18.35 20.8588 18.9 20.5755 19.4C20.2922 19.9 19.9005 20.2917 19.4005 20.575C18.9005 20.8583 18.3505 21 17.7505 21H6.25049ZM17.7255 18.125C17.8088 18.125 17.8838 18.0917 17.9505 18.025C18.0338 17.9583 18.0755 17.875 18.0755 17.775V15.925H5.95049V17.775C5.95049 17.875 5.98382 17.9583 6.05049 18.025C6.11716 18.0917 6.20049 18.125 6.30049 18.125H17.7255ZM11.3005 11.725C10.7005 10.875 10.3672 10.0667 10.3005 9.3C10.2338 8.53333 10.3338 7.83333 10.6005 7.2C10.8005 6.76667 10.9338 6.40833 11.0005 6.125C11.0672 5.84167 11.0588 5.51667 10.9755 5.15C10.8922 4.76667 10.6755 4.33333 10.3255 3.85L12.7005 2.775C13.3172 3.625 13.6505 4.44167 13.7005 5.225C13.7672 5.99167 13.6672 6.69167 13.4005 7.325C13.2172 7.775 13.0922 8.13333 13.0255 8.4C12.9588 8.66667 12.9672 8.99167 13.0505 9.375C13.1338 9.75833 13.3505 10.1833 13.7005 10.65L11.3005 11.725ZM17.1005 11.725C16.4838 10.875 16.1422 10.0667 16.0755 9.3C16.0088 8.53333 16.1088 7.83333 16.3755 7.2C16.5755 6.76667 16.7088 6.40833 16.7755 6.125C16.8422 5.84167 16.8338 5.51667 16.7505 5.15C16.6672 4.76667 16.4505 4.33333 16.1005 3.85L18.5005 2.775C19.1005 3.625 19.4255 4.44167 19.4755 5.225C19.5422 5.99167 19.4422 6.69167 19.1755 7.325C18.9922 7.775 18.8672 8.13333 18.8005 8.4C18.7338 8.66667 18.7422 8.99167 18.8255 9.375C18.9088 9.75833 19.1255 10.1833 19.4755 10.65L17.1005 11.725ZM5.52549 11.725C4.92549 10.875 4.59216 10.0667 4.52549 9.3C4.45882 8.53333 4.55049 7.83333 4.80049 7.2C5.00049 6.76667 5.13382 6.40833 5.20049 6.125C5.26716 5.84167 5.25882 5.51667 5.17549 5.15C5.09216 4.76667 4.87549 4.33333 4.52549 3.85L6.92549 2.775C7.52549 3.625 7.85049 4.44167 7.90049 5.225C7.96716 5.99167 7.87549 6.69167 7.62549 7.325C7.44216 7.775 7.31716 8.13333 7.25049 8.4C7.18382 8.66667 7.19216 8.99167 7.27549 9.375C7.35882 9.75833 7.57549 10.1833 7.92549 10.65L5.52549 11.725Z" fill="black"/>
</g>
<defs>
<clipPath id="clip0_3191_40100">
<rect width="24" height="24" fill="white"/>
</clipPath>
</defs>
</svg>
