<svg width="24" height="24" viewBox="0 0 24 24" fill="none" xmlns="http://www.w3.org/2000/svg">
<g clip-path="url(#clip0_3191_40116)">
<rect width="24" height="24" fill="white"/>
<path d="M5.5 21C4.8 21 4.20833 20.7583 3.725 20.275C3.24167 19.7917 3 19.2 3 18.5V14H21V18.5C21 19.2 20.7583 19.7917 20.275 20.275C19.7917 20.7583 19.2 21 18.5 21H5.5ZM10.7 11.5C10.25 10.8 10.0167 10.0083 10 9.125C9.98333 8.225 10.1167 7.45 10.4 6.8C10.6667 6.2 10.7833 5.58333 10.75 4.95C10.7167 4.31667 10.4833 3.66667 10.05 3H13.275C13.725 3.7 13.9583 4.5 13.975 5.4C13.9917 6.28333 13.8583 7.05 13.575 7.7C13.325 8.28333 13.225 8.91667 13.275 9.6C13.325 10.2667 13.5417 10.9 13.925 11.5H10.7ZM5.15 11.5C4.7 10.8 4.46667 10.0083 4.45 9.125C4.43333 8.225 4.56667 7.45 4.85 6.8C5.11667 6.2 5.23333 5.58333 5.2 4.95C5.16667 4.31667 4.93333 3.66667 4.5 3H7.725C8.175 3.7 8.40833 4.5 8.425 5.4C8.44167 6.28333 8.30833 7.05 8.025 7.7C7.775 8.28333 7.675 8.91667 7.725 9.6C7.775 10.2667 7.99167 10.9 8.375 11.5H5.15ZM16.25 11.5C15.8 10.8 15.5667 10.0083 15.55 9.125C15.5333 8.225 15.6667 7.45 15.95 6.8C16.2167 6.2 16.3333 5.58333 16.3 4.95C16.2667 4.31667 16.0333 3.66667 15.6 3H18.825C19.275 3.7 19.5083 4.5 19.525 5.4C19.5417 6.28333 19.4083 7.05 19.125 7.7C18.875 8.28333 18.775 8.91667 18.825 9.6C18.875 10.2667 19.0917 10.9 19.475 11.5H16.25Z" fill="black"/>
</g>
<defs>
<clipPath id="clip0_3191_40116">
<rect width="24" height="24" fill="white"/>
</clipPath>
</defs>
</svg>
