<svg width="24" height="24" viewBox="0 0 24 24" fill="none" xmlns="http://www.w3.org/2000/svg">
<g clip-path="url(#clip0_3191_40098)">
<rect width="24" height="24" fill="white"/>
<path d="M5.97549 21C5.44216 21 4.94216 20.8667 4.47549 20.6C4.02549 20.3333 3.66716 19.975 3.40049 19.525C3.13382 19.0583 3.00049 18.55 3.00049 18V13.525H21.0005V18C21.0005 18.55 20.8672 19.0583 20.6005 19.525C20.3338 19.975 19.9672 20.3333 19.5005 20.6C19.0505 20.8667 18.5588 21 18.0255 21H5.97549ZM17.9755 18.675C18.1588 18.675 18.3088 18.6167 18.4255 18.5C18.5422 18.3667 18.6005 18.2083 18.6005 18.025V15.875H5.40049V18.025C5.40049 18.2083 5.45882 18.3667 5.57549 18.5C5.70882 18.6167 5.85882 18.675 6.02549 18.675H17.9755ZM11.6255 11.875C10.9588 11.0083 10.5838 10.1917 10.5005 9.425C10.4338 8.64167 10.5422 7.93333 10.8255 7.3C11.0422 6.85 11.1838 6.48333 11.2505 6.2C11.3338 5.91667 11.3255 5.575 11.2255 5.175C11.1422 4.775 10.9088 4.33333 10.5255 3.85L12.4255 2.775C13.0755 3.65833 13.4338 4.48333 13.5005 5.25C13.5672 6.01667 13.4588 6.725 13.1755 7.375C12.9755 7.825 12.8338 8.2 12.7505 8.5C12.6838 8.78333 12.6922 9.125 12.7755 9.525C12.8755 9.90833 13.1172 10.3333 13.5005 10.8L11.6255 11.875ZM17.3755 11.875C16.7255 11.0083 16.3588 10.1917 16.2755 9.425C16.2088 8.64167 16.3172 7.93333 16.6005 7.3C16.8172 6.85 16.9588 6.48333 17.0255 6.2C17.1088 5.91667 17.1005 5.575 17.0005 5.175C16.9172 4.775 16.6838 4.33333 16.3005 3.85L18.1755 2.775C18.8422 3.65833 19.2088 4.48333 19.2755 5.25C19.3422 6.01667 19.2338 6.725 18.9505 7.375C18.7505 7.825 18.6088 8.2 18.5255 8.5C18.4588 8.78333 18.4672 9.125 18.5505 9.525C18.6505 9.90833 18.8922 10.3333 19.2755 10.8L17.3755 11.875ZM5.85049 11.875C5.18382 11.0083 4.80882 10.1917 4.72549 9.425C4.65882 8.64167 4.77549 7.93333 5.07549 7.3C5.29216 6.85 5.43382 6.48333 5.50049 6.2C5.58382 5.91667 5.57549 5.575 5.47549 5.175C5.39216 4.775 5.15882 4.33333 4.77549 3.85L6.65049 2.775C7.31716 3.65833 7.68382 4.48333 7.75049 5.25C7.81716 6.01667 7.70049 6.725 7.40049 7.375C7.20049 7.825 7.05882 8.2 6.97549 8.5C6.90882 8.78333 6.91716 9.125 7.00049 9.525C7.10049 9.90833 7.34216 10.3333 7.72549 10.8L5.85049 11.875Z" fill="black"/>
</g>
<defs>
<clipPath id="clip0_3191_40098">
<rect width="24" height="24" fill="white"/>
</clipPath>
</defs>
</svg>
