<svg width="24" height="24" viewBox="0 0 24 24" fill="none" xmlns="http://www.w3.org/2000/svg">
<g clip-path="url(#clip0_3191_40094)">
<rect width="24" height="24" fill="white"/>
<path d="M5.42549 21C4.99216 21 4.58382 20.8917 4.20049 20.675C3.83382 20.4583 3.54216 20.1667 3.32549 19.8C3.10882 19.4167 3.00049 19 3.00049 18.55V14H21.0005V18.55C21.0005 19 20.8922 19.4167 20.6755 19.8C20.4588 20.1667 20.1588 20.4583 19.7755 20.675C19.4088 20.8917 19.0088 21 18.5755 21H5.42549ZM18.5505 19.65C18.8505 19.65 19.1005 19.55 19.3005 19.35C19.5005 19.1333 19.6005 18.875 19.6005 18.575V15.35H4.40049V18.575C4.40049 18.875 4.50049 19.1333 4.70049 19.35C4.90049 19.55 5.15049 19.65 5.45049 19.65H18.5505ZM12.0255 12C11.3088 11.15 10.9088 10.3417 10.8255 9.575C10.7422 8.80833 10.8922 8.06667 11.2755 7.35C11.5422 6.86667 11.7172 6.45 11.8005 6.1C11.8838 5.75 11.8588 5.36667 11.7255 4.95C11.6088 4.53333 11.3422 4.08333 10.9255 3.6L11.9505 2.775C12.6672 3.625 13.0672 4.43333 13.1505 5.2C13.2338 5.96667 13.0755 6.71667 12.6755 7.45C12.4255 7.91667 12.2588 8.33333 12.1755 8.7C12.1088 9.05 12.1338 9.43333 12.2505 9.85C12.3672 10.25 12.6422 10.6917 13.0755 11.175L12.0255 12ZM17.9505 12C17.2338 11.15 16.8338 10.3417 16.7505 9.575C16.6672 8.80833 16.8172 8.06667 17.2005 7.35C17.4672 6.86667 17.6422 6.45 17.7255 6.1C17.8088 5.75 17.7838 5.36667 17.6505 4.95C17.5338 4.53333 17.2588 4.08333 16.8255 3.6L17.8755 2.775C18.5922 3.625 18.9838 4.43333 19.0505 5.2C19.1338 5.96667 18.9838 6.71667 18.6005 7.45C18.3505 7.91667 18.1838 8.33333 18.1005 8.7C18.0172 9.05 18.0338 9.43333 18.1505 9.85C18.2838 10.25 18.5588 10.6917 18.9755 11.175L17.9505 12ZM6.10049 12C5.40049 11.15 5.00049 10.3417 4.90049 9.575C4.81716 8.80833 4.97549 8.06667 5.37549 7.35C5.64216 6.86667 5.80882 6.45 5.87549 6.1C5.95882 5.75 5.93382 5.36667 5.80049 4.95C5.68382 4.53333 5.41716 4.08333 5.00049 3.6L6.05049 2.775C6.75049 3.625 7.14216 4.43333 7.22549 5.2C7.30882 5.96667 7.15882 6.71667 6.77549 7.45C6.50882 7.91667 6.33382 8.33333 6.25049 8.7C6.18382 9.05 6.20882 9.43333 6.32549 9.85C6.45882 10.25 6.73382 10.6917 7.15049 11.175L6.10049 12Z" fill="black"/>
</g>
<defs>
<clipPath id="clip0_3191_40094">
<rect width="24" height="24" fill="white"/>
</clipPath>
</defs>
</svg>
