<svg width="24" height="24" viewBox="0 0 24 24" fill="none" xmlns="http://www.w3.org/2000/svg">
<g clip-path="url(#clip0_3191_40114)">
<rect width="24" height="24" fill="white"/>
<path d="M5.5 21C4.8 21 4.20833 20.7583 3.725 20.275C3.24167 19.7917 3 19.2 3 18.5V14H21V18.5C21 19.2 20.7583 19.7917 20.275 20.275C19.7917 20.7583 19.2 21 18.5 21H5.5ZM11.35 12.05C10.7333 11.1667 10.3917 10.3333 10.325 9.55C10.2583 8.75 10.3583 8.025 10.625 7.375C10.825 6.925 10.9583 6.55833 11.025 6.275C11.0917 5.975 11.0833 5.625 11 5.225C10.9167 4.825 10.7 4.375 10.35 3.875L12.675 2.775C13.275 3.65833 13.6 4.5 13.65 5.3C13.7167 6.1 13.625 6.825 13.375 7.475C13.1917 7.94167 13.0667 8.31667 13 8.6C12.9333 8.88333 12.9417 9.225 13.025 9.625C13.1083 10.025 13.325 10.4667 13.675 10.95L11.35 12.05ZM16.925 12.05C16.325 11.1667 15.9917 10.3333 15.925 9.55C15.8583 8.75 15.95 8.025 16.2 7.375C16.4 6.925 16.5333 6.55833 16.6 6.275C16.6667 5.975 16.6583 5.625 16.575 5.225C16.4917 4.825 16.275 4.375 15.925 3.875L18.25 2.775C18.8667 3.65833 19.2 4.5 19.25 5.3C19.3167 6.1 19.2167 6.825 18.95 7.475C18.7667 7.94167 18.6417 8.31667 18.575 8.6C18.5083 8.88333 18.5167 9.225 18.6 9.625C18.6833 10.025 18.9 10.4667 19.25 10.95L16.925 12.05ZM5.75 12.05C5.15 11.1667 4.81667 10.3333 4.75 9.55C4.68333 8.75 4.78333 8.025 5.05 7.375C5.25 6.925 5.38333 6.55833 5.45 6.275C5.51667 5.975 5.50833 5.625 5.425 5.225C5.34167 4.825 5.125 4.375 4.775 3.875L7.1 2.775C7.7 3.65833 8.025 4.5 8.075 5.3C8.14167 6.1 8.04167 6.825 7.775 7.475C7.59167 7.94167 7.46667 8.31667 7.4 8.6C7.33333 8.88333 7.34167 9.225 7.425 9.625C7.50833 10.025 7.725 10.4667 8.075 10.95L5.75 12.05Z" fill="black"/>
</g>
<defs>
<clipPath id="clip0_3191_40114">
<rect width="24" height="24" fill="white"/>
</clipPath>
</defs>
</svg>
