<svg width="24" height="24" viewBox="0 0 24 24" fill="none" xmlns="http://www.w3.org/2000/svg">
<g clip-path="url(#clip0_3191_39802)">
<rect width="24" height="24" fill="white"/>
<path d="M1 5H3.95V13.775H11.325V7.325H19C19.7333 7.325 20.4083 7.5 21.025 7.85C21.6417 8.2 22.125 8.68333 22.475 9.3C22.825 9.91667 23 10.5917 23 11.325V19H20.05V16.675H3.95V19H1V5ZM7.65 11.625C7.01667 11.625 6.48333 11.4083 6.05 10.975C5.61667 10.5417 5.4 10.0167 5.4 9.4C5.4 8.76667 5.61667 8.24167 6.05 7.825C6.48333 7.39167 7.01667 7.175 7.65 7.175C8.26667 7.175 8.79167 7.39167 9.225 7.825C9.675 8.24167 9.9 8.76667 9.9 9.4C9.9 10.0167 9.68333 10.5417 9.25 10.975C8.81667 11.4083 8.28333 11.625 7.65 11.625Z" fill="black"/>
</g>
<defs>
<clipPath id="clip0_3191_39802">
<rect width="24" height="24" fill="white"/>
</clipPath>
</defs>
</svg>
