<svg width="24" height="24" viewBox="0 0 24 24" fill="none" xmlns="http://www.w3.org/2000/svg">
<g clip-path="url(#clip0_3191_39798)">
<rect width="24" height="24" fill="white"/>
<path d="M1 5H2.85V14.2H11V8H19C19.7333 8 20.4083 8.175 21.025 8.525C21.6417 8.875 22.125 9.35833 22.475 9.975C22.825 10.5917 23 11.2667 23 12V19H21.15V16H2.85V19H1V5ZM6.925 11.95C6.29167 11.95 5.75833 11.7417 5.325 11.325C4.89167 10.8917 4.675 10.3583 4.675 9.725C4.675 9.09167 4.89167 8.56667 5.325 8.15C5.75833 7.71667 6.29167 7.5 6.925 7.5C7.55833 7.5 8.09167 7.71667 8.525 8.15C8.95833 8.56667 9.175 9.09167 9.175 9.725C9.175 10.3583 8.95833 10.8917 8.525 11.325C8.09167 11.7417 7.55833 11.95 6.925 11.95Z" fill="black"/>
</g>
<defs>
<clipPath id="clip0_3191_39798">
<rect width="24" height="24" fill="white"/>
</clipPath>
</defs>
</svg>
