<svg width="24" height="24" viewBox="0 0 24 24" fill="none" xmlns="http://www.w3.org/2000/svg">
<g clip-path="url(#clip0_3191_39796)">
<rect width="24" height="24" fill="white"/>
<path d="M1 5H2.4V14.475H10.675V8.175H19.175C19.875 8.175 20.5167 8.34167 21.1 8.675C21.7 9.00833 22.1667 9.475 22.5 10.075C22.8333 10.6583 23 11.3 23 12V19H21.6V15.825H2.4V19H1V5ZM6.525 12.275C5.89167 12.275 5.35833 12.0667 4.925 11.65C4.49167 11.2167 4.275 10.6833 4.275 10.05C4.275 9.43333 4.49167 8.90833 4.925 8.475C5.35833 8.04167 5.89167 7.825 6.525 7.825C7.15833 7.825 7.69167 8.04167 8.125 8.475C8.55833 8.90833 8.775 9.43333 8.775 10.05C8.775 10.6833 8.55833 11.2167 8.125 11.65C7.69167 12.0667 7.15833 12.275 6.525 12.275Z" fill="black"/>
</g>
<defs>
<clipPath id="clip0_3191_39796">
<rect width="24" height="24" fill="white"/>
</clipPath>
</defs>
</svg>
