<svg width="24" height="24" viewBox="0 0 24 24" fill="none" xmlns="http://www.w3.org/2000/svg">
<g clip-path="url(#clip0_3191_39788)">
<rect width="24" height="24" fill="white"/>
<path d="M7.47549 11.875C6.92549 11.875 6.45049 11.6917 6.05049 11.325C5.66716 10.9417 5.47549 10.4667 5.47549 9.9C5.47549 9.33333 5.66716 8.86667 6.05049 8.5C6.45049 8.11667 6.92549 7.925 7.47549 7.925C8.04216 7.925 8.51716 8.11667 8.90049 8.5C9.28382 8.86667 9.47549 9.33333 9.47549 9.9C9.47549 10.4667 9.28382 10.9417 8.90049 11.325C8.51716 11.6917 8.04216 11.875 7.47549 11.875ZM7.45049 9.85C7.48382 9.85 7.50049 9.85 7.50049 9.85C7.51716 9.85 7.54216 9.85 7.57549 9.85C7.54216 9.85 7.51716 9.85 7.50049 9.85C7.48382 9.85 7.46716 9.85 7.45049 9.85C7.41716 9.85 7.39216 9.85 7.37549 9.85C7.35882 9.85 7.34216 9.85 7.32549 9.85C7.35882 9.85 7.37549 9.85 7.37549 9.85C7.39216 9.85 7.41716 9.85 7.45049 9.85ZM1.00049 5H3.80049V14.075H11.1755V7.175H18.8255C19.5922 7.175 20.2922 7.35833 20.9255 7.725C21.5755 8.09167 22.0838 8.59167 22.4505 9.225C22.8172 9.85833 23.0005 10.5583 23.0005 11.325V19H20.2005V16.825H3.80049V19H1.00049V5ZM20.2005 14.075V11.325C20.2005 10.9417 20.0672 10.6167 19.8005 10.35C19.5338 10.0667 19.2088 9.925 18.8255 9.925H13.9755V14.075H20.2005Z" fill="black"/>
</g>
<defs>
<clipPath id="clip0_3191_39788">
<rect width="24" height="24" fill="white"/>
</clipPath>
</defs>
</svg>
