<svg width="24" height="24" viewBox="0 0 24 24" fill="none" xmlns="http://www.w3.org/2000/svg">
<g clip-path="url(#clip0_3190_38401)">
<rect width="24" height="24" fill="white"/>
<path d="M22.5005 19.525V11.15L17.2505 8.1L12.0005 11.15V19.525H22.5005ZM11.5005 10.875L17.2505 7.55L23.0005 10.875V20H11.5005V10.875ZM8.50049 15.2H9.00049V20H8.50049V15.2ZM15.9005 8.675C15.8338 8.525 15.6672 8.33333 15.4005 8.1C15.1505 7.86667 14.8005 7.65833 14.3505 7.475C13.9172 7.29167 13.4088 7.2 12.8255 7.2C12.8255 6.48333 12.6505 5.825 12.3005 5.225C11.9505 4.625 11.4755 4.15 10.8755 3.8C10.2755 3.45 9.60882 3.275 8.87549 3.275C8.15882 3.275 7.50049 3.45 6.90049 3.8C6.30049 4.15 5.82549 4.625 5.47549 5.225C5.12549 5.825 4.95049 6.48333 4.95049 7.2C4.21716 7.2 3.55049 7.375 2.95049 7.725C2.35049 8.075 1.87549 8.55 1.52549 9.15C1.17549 9.73333 1.00049 10.3833 1.00049 11.1C1.00049 11.8167 1.15049 12.475 1.45049 13.075C1.76716 13.675 2.19216 14.15 2.72549 14.5C3.27549 14.85 3.86716 15.025 4.50049 15.025H11.9505V15.5H4.50049C3.76716 15.5 3.09216 15.3083 2.47549 14.925C1.85882 14.525 1.37549 13.9917 1.02549 13.325C0.675488 12.6417 0.500488 11.9 0.500488 11.1C0.500488 10.35 0.675488 9.65833 1.02549 9.025C1.37549 8.39167 1.85049 7.875 2.45049 7.475C3.06716 7.05833 3.74216 6.81667 4.47549 6.75C4.54216 6 4.77549 5.325 5.17549 4.725C5.59216 4.125 6.11716 3.65833 6.75049 3.325C7.40049 2.975 8.10882 2.8 8.87549 2.8C9.64216 2.8 10.3505 2.975 11.0005 3.325C11.6505 3.65833 12.1755 4.125 12.5755 4.725C12.9922 5.325 13.2338 6 13.3005 6.75C13.8672 6.8 14.3672 6.93333 14.8005 7.15C15.2338 7.36667 15.5755 7.6 15.8255 7.85C16.0922 8.1 16.2672 8.30833 16.3505 8.475L15.9005 8.675Z" fill="black"/>
</g>
<defs>
<clipPath id="clip0_3190_38401">
<rect width="24" height="24" fill="white"/>
</clipPath>
</defs>
</svg>
