<svg width="24" height="24" viewBox="0 0 24 24" fill="none" xmlns="http://www.w3.org/2000/svg">
<g clip-path="url(#clip0_3191_38675)">
<rect width="24" height="24" fill="white"/>
<path d="M9.775 12.35L16.4 8.525L23 12.35V20H9.775V12.35ZM8.775 20V4.325H9.275V20H8.775ZM4.775 15.55C4.00833 15.55 3.29167 15.3583 2.625 14.975C1.975 14.5917 1.45833 14.075 1.075 13.425C0.691667 12.775 0.5 12.0667 0.5 11.3C0.5 10.5333 0.691667 9.825 1.075 9.175C1.45833 8.525 1.975 8.01667 2.625 7.65C3.29167 7.26667 4.00833 7.075 4.775 7.075C4.775 6.30833 4.96667 5.6 5.35 4.95C5.73333 4.28333 6.25 3.75833 6.9 3.375C7.55 2.99167 8.25833 2.8 9.025 2.8C9.79167 2.8 10.4917 2.99167 11.125 3.375C11.775 3.75833 12.2917 4.28333 12.675 4.95C13.0583 5.6 13.25 6.30833 13.25 7.075C13.7833 7.075 14.2917 7.16667 14.775 7.35C15.2583 7.53333 15.6917 7.79167 16.075 8.125L7.85 12.9L9.275 8.875V15.55H4.775Z" fill="black"/>
</g>
<defs>
<clipPath id="clip0_3191_38675">
<rect width="24" height="24" fill="white"/>
</clipPath>
</defs>
</svg>
