<svg width="24" height="24" viewBox="0 0 24 24" fill="none" xmlns="http://www.w3.org/2000/svg">
<g clip-path="url(#clip0_3191_38679)">
<rect width="24" height="24" fill="white"/>
<path d="M11.7 12.7L17.35 9.425L23 12.7V20H11.7V12.7ZM8.425 20L8.5 4.2H10.2V20H8.425ZM4.875 15.85C4.09167 15.85 3.35833 15.6583 2.675 15.275C2.00833 14.875 1.475 14.3417 1.075 13.675C0.691667 13.0083 0.5 12.2833 0.5 11.5C0.5 10.7167 0.691667 9.99167 1.075 9.325C1.475 8.65833 2.00833 8.13333 2.675 7.75C3.35833 7.36667 4.09167 7.175 4.875 7.175C4.875 6.39167 5.06667 5.66667 5.45 5C5.85 4.31667 6.38333 3.78333 7.05 3.4C7.71667 3 8.44167 2.8 9.225 2.8C10.0083 2.8 10.725 3 11.375 3.4C12.0417 3.78333 12.5667 4.31667 12.95 5C13.35 5.66667 13.55 6.39167 13.55 7.175C14.0833 7.175 14.5917 7.26667 15.075 7.45C15.575 7.63333 16.025 7.89167 16.425 8.225L6.975 13.7L10.2 9.025V15.85H4.875Z" fill="black"/>
</g>
<defs>
<clipPath id="clip0_3191_38679">
<rect width="24" height="24" fill="white"/>
</clipPath>
</defs>
</svg>
