<svg width="24" height="24" viewBox="0 0 24 24" fill="none" xmlns="http://www.w3.org/2000/svg">
<g clip-path="url(#clip0_3191_38669)">
<rect width="24" height="24" fill="white"/>
<path d="M20.6005 17.65V12.225L17.2505 10.275L13.9005 12.225V17.65H20.6005ZM11.5005 10.875L17.2505 7.55L23.0005 10.875V20H11.5005V10.875ZM7.00049 13.875H9.40049V20H7.00049V13.875ZM13.4755 10.35C13.4755 9.86667 13.3588 9.43333 13.1255 9.05C12.9088 8.65 12.6005 8.33333 12.2005 8.1C11.8005 7.86667 11.3588 7.75 10.8755 7.75C10.8755 7.26667 10.7588 6.825 10.5255 6.425C10.2922 6.025 9.97549 5.70833 9.57549 5.475C9.17549 5.24167 8.73382 5.125 8.25049 5.125C7.75049 5.125 7.29216 5.24167 6.87549 5.475C6.47549 5.70833 6.15882 6.025 5.92549 6.425C5.69216 6.825 5.57549 7.26667 5.57549 7.75C5.09216 7.75 4.64216 7.86667 4.22549 8.1C3.82549 8.33333 3.50882 8.65 3.27549 9.05C3.04216 9.43333 2.92549 9.86667 2.92549 10.35C2.92549 10.85 3.04216 11.3 3.27549 11.7C3.50882 12.1 3.82549 12.4167 4.22549 12.65C4.64216 12.8833 5.10049 13 5.60049 13H12.7505V15.375H5.60049C4.66716 15.375 3.80882 15.1583 3.02549 14.725C2.24216 14.275 1.62549 13.6667 1.17549 12.9C0.725488 12.1333 0.500488 11.2833 0.500488 10.35C0.500488 9.68333 0.625488 9.05 0.875488 8.45C1.14215 7.83333 1.50882 7.3 1.97549 6.85C2.44216 6.38333 2.96716 6.03333 3.55049 5.8C3.81716 5.18333 4.18382 4.65 4.65049 4.2C5.11716 3.73333 5.65882 3.375 6.27549 3.125C6.89216 2.85833 7.55049 2.725 8.25049 2.725C8.93382 2.725 9.58382 2.85833 10.2005 3.125C10.8172 3.375 11.3588 3.73333 11.8255 4.2C12.2922 4.66667 12.6505 5.2 12.9005 5.8C13.5005 6.05 14.0255 6.40833 14.4755 6.875C14.9255 7.325 15.2755 7.85 15.5255 8.45C15.7755 9.05 15.9005 9.68333 15.9005 10.35H13.4755Z" fill="black"/>
</g>
<defs>
<clipPath id="clip0_3191_38669">
<rect width="24" height="24" fill="white"/>
</clipPath>
</defs>
</svg>
