<svg width="24" height="24" viewBox="0 0 24 24" fill="none" xmlns="http://www.w3.org/2000/svg">
<g clip-path="url(#clip0_3191_38687)">
<rect width="24" height="24" fill="white"/>
<path d="M13.275 12.525L18.15 9.7L23 12.525V20H13.275V12.525ZM7.45 20V8.8H11.275V20H7.45ZM4.925 16C4.125 16 3.38333 15.8083 2.7 15.425C2.03333 15.025 1.5 14.4917 1.1 13.825C0.7 13.1417 0.5 12.4 0.5 11.6C0.5 10.8 0.7 10.0667 1.1 9.4C1.5 8.73333 2.03333 8.20833 2.7 7.825C3.38333 7.425 4.125 7.225 4.925 7.225C4.925 6.425 5.11667 5.69167 5.5 5.025C5.9 4.34167 6.43333 3.8 7.1 3.4C7.78333 3 8.525 2.8 9.325 2.8C10.1083 2.8 10.8333 3 11.5 3.4C12.1833 3.8 12.7167 4.34167 13.1 5.025C13.5 5.69167 13.7 6.425 13.7 7.225C14.2333 7.225 14.75 7.31667 15.25 7.5C15.75 7.68333 16.2 7.94167 16.6 8.275L6.55 14.1L9.4 9.1V16H4.925Z" fill="black"/>
</g>
<defs>
<clipPath id="clip0_3191_38687">
<rect width="24" height="24" fill="white"/>
</clipPath>
</defs>
</svg>
