<svg width="24" height="24" viewBox="0 0 24 24" fill="none" xmlns="http://www.w3.org/2000/svg">
<g clip-path="url(#clip0_3191_39738)">
<rect width="24" height="24" fill="white"/>
<path d="M10.3755 17.8V16.825L8.35049 15.675L6.25049 16.825V17.8H10.3755ZM3.00049 14.975L8.35049 11.975L13.6255 14.975V21H3.00049V14.975ZM17.7505 17.8V16.825L15.7255 15.675L13.6255 16.825V17.8H17.7505ZM10.3755 14.975L15.7255 11.975L21.0005 14.975V21H10.3755V14.975ZM10.3755 7.825V6.875L8.35049 5.7L6.25049 6.875V7.825H10.3755ZM3.00049 5.025L8.35049 2L13.6255 5.025V11.025H3.00049V5.025ZM17.7505 7.825V6.875L15.7255 5.7L13.6255 6.875V7.825H17.7505ZM10.3755 5.025L15.7255 2L21.0005 5.025V11.025H10.3755V5.025Z" fill="black"/>
</g>
<defs>
<clipPath id="clip0_3191_39738">
<rect width="24" height="24" fill="white"/>
</clipPath>
</defs>
</svg>
