<svg width="24" height="24" viewBox="0 0 24 24" fill="none" xmlns="http://www.w3.org/2000/svg">
<g clip-path="url(#clip0_3191_38667)">
<rect width="24" height="24" fill="white"/>
<path d="M21.1505 18.2V11.9L17.2505 9.65L13.3505 11.9V18.2H21.1505ZM11.5005 10.875L17.2505 7.55L23.0005 10.875V20H11.5005V10.875ZM7.07549 13.425H8.92549V20H7.07549V13.425ZM13.5505 10.2C13.5505 9.68333 13.4255 9.21667 13.1755 8.8C12.9422 8.38333 12.6172 8.05 12.2005 7.8C11.7838 7.55 11.3255 7.425 10.8255 7.425C10.8255 6.90833 10.7005 6.43333 10.4505 6C10.2005 5.56667 9.85882 5.225 9.42549 4.975C8.99216 4.725 8.51716 4.6 8.00049 4.6C7.48382 4.6 7.00049 4.725 6.55049 4.975C6.11716 5.225 5.77549 5.56667 5.52549 6C5.27549 6.43333 5.15049 6.90833 5.15049 7.425C4.63382 7.425 4.15882 7.55 3.72549 7.8C3.30882 8.05 2.97549 8.38333 2.72549 8.8C2.47549 9.21667 2.35049 9.68333 2.35049 10.2C2.35049 10.7167 2.47549 11.1917 2.72549 11.625C2.97549 12.0417 3.31716 12.375 3.75049 12.625C4.18382 12.875 4.65882 13 5.17549 13H12.4005V14.8H5.17549C4.32549 14.8 3.54216 14.6 2.82549 14.2C2.10882 13.7833 1.54215 13.225 1.12549 12.525C0.708822 11.825 0.500488 11.05 0.500488 10.2C0.500488 9.55 0.625488 8.93333 0.875488 8.35C1.14215 7.76667 1.50882 7.26667 1.97549 6.85C2.44216 6.41667 2.96716 6.1 3.55049 5.9C3.76716 5.28333 4.09216 4.74167 4.52549 4.275C4.97549 3.80833 5.50049 3.45 6.10049 3.2C6.70049 2.93333 7.33382 2.8 8.00049 2.8C8.66716 2.8 9.30049 2.93333 9.90049 3.2C10.5005 3.46667 11.0172 3.83333 11.4505 4.3C11.9005 4.76667 12.2255 5.3 12.4255 5.9C13.0088 6.11667 13.5255 6.44167 13.9755 6.875C14.4255 7.29167 14.7755 7.79167 15.0255 8.375C15.2755 8.94167 15.4005 9.55 15.4005 10.2H13.5505Z" fill="black"/>
</g>
<defs>
<clipPath id="clip0_3191_38667">
<rect width="24" height="24" fill="white"/>
</clipPath>
</defs>
</svg>
