<svg width="24" height="24" viewBox="0 0 24 24" fill="none" xmlns="http://www.w3.org/2000/svg">
<g clip-path="url(#clip0_3191_39734)">
<rect width="24" height="24" fill="white"/>
<path d="M10.8505 18.775V16.475L8.12549 14.875L5.27549 16.5V18.775H10.8505ZM3.00049 15.2L8.12549 12.275L13.1505 15.2V21H3.00049V15.2ZM18.7255 18.775V16.475L15.9505 14.875L13.1505 16.5V18.775H18.7255ZM10.8505 15.2L15.9505 12.275L21.0005 15.2V21H10.8505V15.2ZM10.8505 8.775V6.5L8.12549 4.875L5.27549 6.5V8.775H10.8505ZM3.00049 5.225L8.12549 2.275L13.1505 5.225V11H3.00049V5.225ZM18.7255 8.775V6.5L15.9505 4.875L13.1505 6.5V8.775H18.7255ZM10.8505 5.225L15.9505 2.275L21.0005 5.225V11H10.8505V5.225Z" fill="black"/>
</g>
<defs>
<clipPath id="clip0_3191_39734">
<rect width="24" height="24" fill="white"/>
</clipPath>
</defs>
</svg>
