<svg width="24" height="24" viewBox="0 0 24 24" fill="none" xmlns="http://www.w3.org/2000/svg">
<g clip-path="url(#clip0_3191_40282)">
<rect width="24" height="24" fill="white"/>
<path d="M3.00049 7.25L12.0005 2.05L21.0005 7.25V21H3.00049V7.25ZM18.0255 18.075V8.9L12.0005 5.425L5.97549 8.9V18.075H18.0255ZM12.8005 14.95H11.2005H12.8005ZM12.0005 10.55C12.5172 10.1333 13.0505 9.86667 13.6005 9.75C14.1505 9.63333 14.8755 9.575 15.7755 9.575V15.275C14.8422 15.275 14.1088 15.3417 13.5755 15.475C13.0422 15.6083 12.5172 15.925 12.0005 16.425C11.4838 15.925 10.9588 15.6083 10.4255 15.475C9.89216 15.3417 9.15882 15.275 8.22549 15.275V9.575C9.12549 9.575 9.85049 9.63333 10.4005 9.75C10.9505 9.86667 11.4838 10.1333 12.0005 10.55Z" fill="black"/>
</g>
<defs>
<clipPath id="clip0_3191_40282">
<rect width="24" height="24" fill="white"/>
</clipPath>
</defs>
</svg>
