<svg width="24" height="24" viewBox="0 0 24 24" fill="none" xmlns="http://www.w3.org/2000/svg">
<g clip-path="url(#clip0_3191_38541)">
<rect width="24" height="24" fill="white"/>
<path d="M12.0005 3.925C10.9672 3.925 10.0255 4.175 9.17549 4.675C8.34216 5.15833 7.68382 5.83333 7.20049 6.7C6.71716 7.56667 6.47549 8.51667 6.47549 9.55C6.47549 10.75 6.75882 11.9167 7.32549 13.05C7.89216 14.1833 8.60882 15.25 9.47549 16.25C10.3588 17.25 11.4172 18.3083 12.6505 19.425H11.3505C12.5838 18.3083 13.6338 17.25 14.5005 16.25C15.3838 15.25 16.1088 14.1833 16.6755 13.05C17.2422 11.9167 17.5255 10.75 17.5255 9.55C17.5255 8.51667 17.2838 7.56667 16.8005 6.7C16.3172 5.83333 15.6505 5.15833 14.8005 4.675C13.9672 4.175 13.0338 3.925 12.0005 3.925ZM12.0005 22.775C10.1838 21.125 8.71716 19.7083 7.60049 18.525C6.48382 17.325 5.51716 15.9583 4.70049 14.425C3.90049 12.875 3.50049 11.2333 3.50049 9.5C3.50049 7.93333 3.87549 6.50833 4.62549 5.225C5.39216 3.925 6.41716 2.9 7.70049 2.15C9.00049 1.38333 10.4338 1 12.0005 1C13.5672 1 14.9922 1.38333 16.2755 2.15C17.5755 2.9 18.6005 3.925 19.3505 5.225C20.1172 6.50833 20.5005 7.93333 20.5005 9.5C20.5005 11.2333 20.0922 12.875 19.2755 14.425C18.4755 15.9583 17.5172 17.325 16.4005 18.525C15.2838 19.7083 13.8172 21.125 12.0005 22.775ZM12.0005 11.45C11.6338 11.45 11.3005 11.3667 11.0005 11.2C10.7172 11.0167 10.4838 10.7833 10.3005 10.5C10.1338 10.2 10.0505 9.86667 10.0505 9.5C10.0505 9.15 10.1338 8.825 10.3005 8.525C10.4838 8.225 10.7172 7.99167 11.0005 7.825C11.3005 7.64167 11.6338 7.55 12.0005 7.55C12.3672 7.55 12.6922 7.64167 12.9755 7.825C13.2755 7.99167 13.5088 8.225 13.6755 8.525C13.8588 8.80833 13.9505 9.13333 13.9505 9.5C13.9505 9.85 13.8588 10.175 13.6755 10.475C13.5088 10.775 13.2755 11.0167 12.9755 11.2C12.6922 11.3667 12.3672 11.45 12.0005 11.45ZM12.0005 9.5C12.1838 9.5 12.3172 9.5 12.4005 9.5C12.4838 9.5 12.6172 9.5 12.8005 9.5C12.6172 9.5 12.4838 9.5 12.4005 9.5C12.3172 9.5 12.1838 9.5 12.0005 9.5C11.8172 9.5 11.6838 9.5 11.6005 9.5C11.5172 9.5 11.3838 9.5 11.2005 9.5C11.3838 9.5 11.5172 9.5 11.6005 9.5C11.6838 9.5 11.8172 9.5 12.0005 9.5Z" fill="black"/>
</g>
<defs>
<clipPath id="clip0_3191_38541">
<rect width="24" height="24" fill="white"/>
</clipPath>
</defs>
</svg>
