<svg width="24" height="24" viewBox="0 0 24 24" fill="none" xmlns="http://www.w3.org/2000/svg">
<g clip-path="url(#clip0_3191_39187)">
<rect width="24" height="24" fill="white"/>
<path d="M12.0005 2.85C10.7838 2.85 9.66716 3.15 8.65049 3.75C7.65049 4.33333 6.85882 5.13333 6.27549 6.15C5.69216 7.15 5.40049 8.25833 5.40049 9.475C5.40049 10.9083 5.75882 12.3083 6.47549 13.675C7.19216 15.0417 8.06716 16.2917 9.10049 17.425C10.1338 18.5583 11.3505 19.7333 12.7505 20.95H11.2505C12.6505 19.7333 13.8672 18.5583 14.9005 17.425C15.9338 16.2917 16.8088 15.0417 17.5255 13.675C18.2422 12.3083 18.6005 10.9083 18.6005 9.475C18.6005 8.25833 18.3088 7.15 17.7255 6.15C17.1422 5.13333 16.3422 4.33333 15.3255 3.75C14.3255 3.15 13.2172 2.85 12.0005 2.85ZM12.0005 22.775C10.2005 21.1417 8.73382 19.725 7.60049 18.525C6.48382 17.3083 5.51716 15.9333 4.70049 14.4C3.90049 12.8667 3.50049 11.2333 3.50049 9.5C3.50049 7.93333 3.87549 6.50833 4.62549 5.225C5.39216 3.925 6.41716 2.9 7.70049 2.15C9.00049 1.38333 10.4338 1 12.0005 1C13.5672 1 14.9922 1.38333 16.2755 2.15C17.5755 2.9 18.6005 3.925 19.3505 5.225C20.1172 6.50833 20.5005 7.93333 20.5005 9.5C20.5005 11.2333 20.0922 12.8667 19.2755 14.4C18.4755 15.9333 17.5088 17.3083 16.3755 18.525C15.2588 19.725 13.8005 21.1417 12.0005 22.775ZM8.87549 10.95L11.5255 8.3C11.5755 8.35 11.6172 8.39167 11.6505 8.425C11.6838 8.45833 11.7255 8.5 11.7755 8.55L12.7255 9.525C12.7755 9.575 12.8088 9.60833 12.8255 9.625C12.8422 9.64167 12.8755 9.675 12.9255 9.725L10.2755 12.375L8.62549 12.625L8.87549 10.95ZM9.97549 11.225H10.1255C10.1422 11.225 10.1505 11.225 10.1505 11.225C10.1505 11.225 10.1422 11.225 10.1255 11.225H10.0755H9.90049H9.97549ZM12.5755 7.25L13.5005 6.3C13.6338 6.16667 13.7922 6.1 13.9755 6.1C14.1588 6.1 14.3172 6.16667 14.4505 6.3L14.9255 6.775C15.0588 6.90833 15.1255 7.06667 15.1255 7.25C15.1255 7.43333 15.0588 7.59167 14.9255 7.725L13.9755 8.65L12.5755 7.25Z" fill="black"/>
</g>
<defs>
<clipPath id="clip0_3191_39187">
<rect width="24" height="24" fill="white"/>
</clipPath>
</defs>
</svg>
