<svg width="24" height="24" viewBox="0 0 24 24" fill="none" xmlns="http://www.w3.org/2000/svg">
<g clip-path="url(#clip0_3191_39185)">
<rect width="24" height="24" fill="white"/>
<path d="M12.0005 2.4C10.6838 2.4 9.48382 2.71667 8.40049 3.35C7.33382 3.96667 6.48382 4.81667 5.85049 5.9C5.23382 6.98333 4.92549 8.175 4.92549 9.475C4.92549 10.975 5.29216 12.425 6.02549 13.825C6.75882 15.225 7.65049 16.5 8.70049 17.65C9.75049 18.8 11.0338 20.05 12.5505 21.4H11.4505C12.9672 20.05 14.2505 18.8 15.3005 17.65C16.3505 16.5 17.2422 15.225 17.9755 13.825C18.7088 12.425 19.0755 10.975 19.0755 9.475C19.0755 8.15833 18.7588 6.96667 18.1255 5.9C17.5088 4.81667 16.6588 3.96667 15.5755 3.35C14.5088 2.71667 13.3172 2.4 12.0005 2.4ZM12.0005 22.775C10.2005 21.1417 8.73382 19.725 7.60049 18.525C6.48382 17.3083 5.51716 15.9333 4.70049 14.4C3.90049 12.8667 3.50049 11.2333 3.50049 9.5C3.50049 7.93333 3.87549 6.50833 4.62549 5.225C5.39216 3.925 6.41716 2.9 7.70049 2.15C9.00049 1.38333 10.4338 1 12.0005 1C13.5672 1 14.9922 1.38333 16.2755 2.15C17.5755 2.9 18.6005 3.925 19.3505 5.225C20.1172 6.50833 20.5005 7.93333 20.5005 9.5C20.5005 11.2333 20.0922 12.8667 19.2755 14.4C18.4755 15.9333 17.5088 17.3083 16.3755 18.525C15.2588 19.725 13.8005 21.1417 12.0005 22.775ZM8.87549 11.4L12.2005 8.075C12.2338 8.10833 12.2588 8.14167 12.2755 8.175C12.3088 8.19167 12.3422 8.21667 12.3755 8.25L13.1005 9C13.1338 9.03333 13.1505 9.05833 13.1505 9.075C13.1672 9.09167 13.2005 9.11667 13.2505 9.15L9.92549 12.45L8.62549 12.7L8.87549 11.4ZM9.97549 11.3H10.1255C10.1422 11.3 10.1505 11.3 10.1505 11.3C10.1505 11.3 10.1422 11.3 10.1255 11.3H10.0755H9.90049H9.97549ZM13.1005 7.15L13.7755 6.45C13.8922 6.33333 14.0088 6.275 14.1255 6.275C14.2588 6.275 14.3838 6.325 14.5005 6.425L14.8755 6.825C14.9922 6.925 15.0505 7.04167 15.0505 7.175C15.0505 7.30833 14.9922 7.425 14.8755 7.525L14.1755 8.225L13.1005 7.15Z" fill="black"/>
</g>
<defs>
<clipPath id="clip0_3191_39185">
<rect width="24" height="24" fill="white"/>
</clipPath>
</defs>
</svg>
