<svg width="24" height="24" viewBox="0 0 24 24" fill="none" xmlns="http://www.w3.org/2000/svg">
<g clip-path="url(#clip0_3191_38545)">
<rect width="24" height="24" fill="white"/>
<path d="M16.375 18.525C15.2417 19.7417 13.7833 21.1583 12 22.775C10.2 21.1417 8.73333 19.725 7.6 18.525C6.48333 17.3083 5.51667 15.9333 4.7 14.4C3.9 12.8667 3.5 11.2333 3.5 9.5C3.5 7.93333 3.875 6.50833 4.625 5.225C5.39167 3.925 6.41667 2.9 7.7 2.15C9 1.38333 10.4333 1 12 1C13.5667 1 14.9917 1.375 16.275 2.125C17.575 2.875 18.6 3.9 19.35 5.2C20.1167 6.48333 20.5 7.90833 20.5 9.475C20.5 11.2083 20.0917 12.85 19.275 14.4C18.475 15.9333 17.5083 17.3083 16.375 18.525ZM9.95 11.525C10.5167 12.075 11.2 12.35 12 12.35C12.8 12.35 13.475 12.075 14.025 11.525C14.5917 10.9583 14.875 10.2833 14.875 9.5C14.875 8.71667 14.5917 8.05 14.025 7.5C13.475 6.93333 12.8 6.65 12 6.65C11.2 6.65 10.5167 6.93333 9.95 7.5C9.4 8.05 9.125 8.71667 9.125 9.5C9.125 10.2833 9.4 10.9583 9.95 11.525Z" fill="black"/>
</g>
<defs>
<clipPath id="clip0_3191_38545">
<rect width="24" height="24" fill="white"/>
</clipPath>
</defs>
</svg>
