<svg width="24" height="24" viewBox="0 0 24 24" fill="none" xmlns="http://www.w3.org/2000/svg">
<g clip-path="url(#clip0_3191_39199)">
<rect width="24" height="24" fill="white"/>
<path d="M16.375 18.525C15.2417 19.7417 13.7833 21.1583 12 22.775C10.2 21.1417 8.73333 19.725 7.6 18.525C6.48333 17.3083 5.51667 15.9333 4.7 14.4C3.9 12.8667 3.5 11.2333 3.5 9.5C3.5 7.93333 3.875 6.50833 4.625 5.225C5.39167 3.925 6.41667 2.9 7.7 2.15C9 1.38333 10.4333 1 12 1C13.5667 1 14.9917 1.375 16.275 2.125C17.575 2.875 18.6 3.9 19.35 5.2C20.1167 6.48333 20.5 7.90833 20.5 9.475C20.5 11.2083 20.0917 12.85 19.275 14.4C18.475 15.9333 17.5083 17.3083 16.375 18.525ZM7.875 12.2L7.625 13.875L9.275 13.625L14.2 8.7C14.1 8.58333 14.025 8.5 13.975 8.45C13.925 8.4 13.85 8.325 13.75 8.225L13.225 7.675C13.125 7.59167 13.05 7.525 13 7.475C12.9667 7.425 12.9 7.35833 12.8 7.275L7.875 12.2ZM13.625 6.45L15.025 7.85L15.975 6.925C16.1083 6.79167 16.175 6.65 16.175 6.5C16.175 6.35 16.1083 6.20833 15.975 6.075L15.4 5.5C15.2667 5.36667 15.125 5.3 14.975 5.3C14.825 5.3 14.6833 5.36667 14.55 5.5L13.625 6.45Z" fill="black"/>
</g>
<defs>
<clipPath id="clip0_3191_39199">
<rect width="24" height="24" fill="white"/>
</clipPath>
</defs>
</svg>
