<svg width="24" height="24" viewBox="0 0 24 24" fill="none" xmlns="http://www.w3.org/2000/svg">
<g clip-path="url(#clip0_3191_39183)">
<rect width="24" height="24" fill="white"/>
<path d="M12.0005 1.925C10.6005 1.925 9.32549 2.25833 8.17549 2.925C7.02549 3.59167 6.11716 4.5 5.45049 5.65C4.80049 6.8 4.47549 8.08333 4.47549 9.5C4.47549 11.0667 4.84216 12.5667 5.57549 14C6.32549 15.4333 7.23382 16.7333 8.30049 17.9C9.38382 19.0667 10.7338 20.375 12.3505 21.825H11.6505C13.2672 20.375 14.6088 19.0667 15.6755 17.9C16.7588 16.7333 17.6672 15.4333 18.4005 14C19.1505 12.55 19.5255 11.0417 19.5255 9.475C19.5255 8.075 19.1922 6.8 18.5255 5.65C17.8755 4.5 16.9755 3.59167 15.8255 2.925C14.6755 2.25833 13.4005 1.925 12.0005 1.925ZM12.0005 22.775C10.2005 21.1417 8.73382 19.725 7.60049 18.525C6.48382 17.3083 5.51716 15.9333 4.70049 14.4C3.90049 12.8667 3.50049 11.2333 3.50049 9.5C3.50049 7.93333 3.87549 6.50833 4.62549 5.225C5.39216 3.925 6.41716 2.9 7.70049 2.15C9.00049 1.38333 10.4338 1 12.0005 1C13.5672 1 14.9922 1.375 16.2755 2.125C17.5755 2.875 18.6005 3.9 19.3505 5.2C20.1172 6.48333 20.5005 7.90833 20.5005 9.475C20.5005 11.2083 20.0922 12.85 19.2755 14.4C18.4755 15.9333 17.5088 17.3083 16.3755 18.525C15.2422 19.7417 13.7838 21.1583 12.0005 22.775ZM15.2505 6.75C15.5505 7.06667 15.7005 7.41667 15.7005 7.8C15.7005 8.18333 15.5505 8.525 15.2505 8.825L11.0505 13.05H8.37549V10.425L12.6505 6.175C12.9672 5.85833 13.3088 5.70833 13.6755 5.725C14.0588 5.725 14.4005 5.88333 14.7005 6.2L15.2505 6.75ZM14.1255 6.775C13.9922 6.625 13.8422 6.55 13.6755 6.55C13.5088 6.55 13.3588 6.625 13.2255 6.775L9.20049 10.775V12.225H10.7005L14.6755 8.25C14.8088 8.11667 14.8755 7.96667 14.8755 7.8C14.8755 7.61667 14.8088 7.45833 14.6755 7.325L14.1255 6.775ZM12.2255 7.175L14.2005 9.15L13.6255 9.75L11.6755 7.75L12.2255 7.175ZM9.97549 12.625C10.0088 12.625 10.0255 12.625 10.0255 12.625C10.0422 12.625 10.0672 12.625 10.1005 12.625H10.1755C10.1922 12.625 10.2005 12.625 10.2005 12.625C10.2005 12.625 10.1922 12.625 10.1755 12.625H10.0505H9.85049H9.97549ZM9.40049 12.625H9.22549H9.75049H9.92549H9.40049Z" fill="black"/>
</g>
<defs>
<clipPath id="clip0_3191_39183">
<rect width="24" height="24" fill="white"/>
</clipPath>
</defs>
</svg>
