<svg width="24" height="24" viewBox="0 0 24 24" fill="none" xmlns="http://www.w3.org/2000/svg">
<g clip-path="url(#clip0_3191_39203)">
<rect width="24" height="24" fill="white"/>
<path d="M16.375 18.525C15.2417 19.7417 13.7833 21.1583 12 22.775C10.2 21.1417 8.73333 19.725 7.6 18.525C6.48333 17.3083 5.51667 15.9333 4.7 14.4C3.9 12.8667 3.5 11.2333 3.5 9.5C3.5 7.93333 3.875 6.50833 4.625 5.225C5.39167 3.925 6.41667 2.9 7.7 2.15C9 1.38333 10.4333 1 12 1C13.5667 1 14.9917 1.375 16.275 2.125C17.575 2.875 18.6 3.9 19.35 5.2C20.1167 6.48333 20.5 7.90833 20.5 9.475C20.5 11.2083 20.0917 12.85 19.275 14.4C18.475 15.9333 17.5083 17.3083 16.375 18.525ZM8.075 11.775L7.8 13.7L9.7 13.425L13.875 9.25C13.7583 9.13333 13.6667 9.05 13.6 9C13.55 8.93333 13.4583 8.83333 13.325 8.7L12.75 8.125C12.6333 8.00833 12.55 7.925 12.5 7.875C12.45 7.80833 12.3667 7.71667 12.25 7.6L8.075 11.775ZM13.3 6.55L14.925 8.175L15.925 7.2C16.0583 7.06667 16.125 6.925 16.125 6.775C16.125 6.625 16.0583 6.48333 15.925 6.35L15.125 5.55C14.9917 5.41667 14.85 5.35 14.7 5.35C14.55 5.35 14.4083 5.41667 14.275 5.55L13.3 6.55Z" fill="black"/>
</g>
<defs>
<clipPath id="clip0_3191_39203">
<rect width="24" height="24" fill="white"/>
</clipPath>
</defs>
</svg>
