<svg width="24" height="24" viewBox="0 0 24 24" fill="none" xmlns="http://www.w3.org/2000/svg">
<g clip-path="url(#clip0_3191_40356)">
<rect width="24" height="24" fill="white"/>
<path d="M12.0005 2.85C10.7838 2.85 9.66716 3.15 8.65049 3.75C7.65049 4.33333 6.85882 5.13333 6.27549 6.15C5.69216 7.15 5.40049 8.25833 5.40049 9.475C5.40049 10.9083 5.75882 12.3083 6.47549 13.675C7.19216 15.0417 8.06716 16.2917 9.10049 17.425C10.1338 18.5583 11.3505 19.7333 12.7505 20.95H11.2505C12.6505 19.7333 13.8672 18.5583 14.9005 17.425C15.9338 16.2917 16.8088 15.0417 17.5255 13.675C18.2422 12.3083 18.6005 10.9083 18.6005 9.475C18.6005 8.25833 18.3088 7.15 17.7255 6.15C17.1422 5.13333 16.3422 4.33333 15.3255 3.75C14.3255 3.15 13.2172 2.85 12.0005 2.85ZM12.0005 22.775C10.2005 21.1417 8.73382 19.725 7.60049 18.525C6.48382 17.3083 5.51716 15.9333 4.70049 14.4C3.90049 12.8667 3.50049 11.2333 3.50049 9.5C3.50049 7.93333 3.87549 6.50833 4.62549 5.225C5.39216 3.925 6.41716 2.9 7.70049 2.15C9.00049 1.38333 10.4338 1 12.0005 1C13.5672 1 14.9922 1.38333 16.2755 2.15C17.5755 2.9 18.6005 3.925 19.3505 5.225C20.1172 6.50833 20.5005 7.93333 20.5005 9.5C20.5005 11.2333 20.0922 12.8667 19.2755 14.4C18.4755 15.9333 17.5088 17.3083 16.3755 18.525C15.2588 19.725 13.8005 21.1417 12.0005 22.775ZM9.35049 11.6C9.35049 11.0167 9.57549 10.575 10.0255 10.275C10.4922 9.95833 11.1338 9.8 11.9505 9.8C12.7838 9.8 13.4422 9.95833 13.9255 10.275C14.4088 10.575 14.6505 11.0167 14.6505 11.6V12.5H9.35049V11.6ZM13.6005 11.25C13.2338 11.25 12.9588 11.25 12.7755 11.25C12.5922 11.25 12.3172 11.25 11.9505 11.25C11.6005 11.25 11.3338 11.25 11.1505 11.25C10.9838 11.25 10.7338 11.25 10.4005 11.25H13.6005ZM11.9505 8.85C11.5672 8.85 11.2422 8.71667 10.9755 8.45C10.7255 8.18333 10.6005 7.85833 10.6005 7.475C10.6005 7.10833 10.7255 6.79167 10.9755 6.525C11.2422 6.24167 11.5672 6.1 11.9505 6.1C12.3338 6.1 12.6588 6.24167 12.9255 6.525C13.2088 6.79167 13.3505 7.10833 13.3505 7.475C13.3505 7.85833 13.2088 8.18333 12.9255 8.45C12.6588 8.71667 12.3338 8.85 11.9505 8.85ZM11.9505 7.475C12.0672 7.475 12.1505 7.475 12.2005 7.475C12.2672 7.475 12.3588 7.475 12.4755 7.475C12.3588 7.475 12.2672 7.475 12.2005 7.475C12.1505 7.475 12.0672 7.475 11.9505 7.475C11.8338 7.475 11.7422 7.475 11.6755 7.475C11.6255 7.475 11.5422 7.475 11.4255 7.475C11.5422 7.475 11.6255 7.475 11.6755 7.475C11.7422 7.475 11.8338 7.475 11.9505 7.475Z" fill="black"/>
</g>
<defs>
<clipPath id="clip0_3191_40356">
<rect width="24" height="24" fill="white"/>
</clipPath>
</defs>
</svg>
