<svg width="24" height="24" viewBox="0 0 24 24" fill="none" xmlns="http://www.w3.org/2000/svg">
<g clip-path="url(#clip0_3191_40152)">
<rect width="24" height="24" fill="white"/>
<path d="M12.0005 8.375C12.5672 8.375 13.0755 8.5 13.5255 8.75C13.9755 8.98333 14.3172 9.325 14.5505 9.775C14.8005 10.225 14.9255 10.7333 14.9255 11.3C14.9255 12.0833 14.6505 12.8417 14.1005 13.575C13.5505 14.2917 12.8505 15.0333 12.0005 15.8C11.1338 15.0167 10.4255 14.2667 9.87549 13.55C9.34216 12.8333 9.07549 12.0833 9.07549 11.3C9.07549 10.7333 9.19216 10.225 9.42549 9.775C9.67549 9.325 10.0255 8.98333 10.4755 8.75C10.9255 8.5 11.4338 8.375 12.0005 8.375ZM12.0005 14.05C11.9005 14.05 11.8255 14.05 11.7755 14.05C11.7255 14.05 11.6755 14.05 11.6255 14.05C11.5755 14.05 11.5005 14.05 11.4005 14.05C11.5172 14.05 11.6005 14.05 11.6505 14.05C11.7172 14.05 11.7755 14.05 11.8255 14.05C11.8922 14.05 11.9838 14.05 12.1005 14.05H11.9005C12.0172 14.05 12.1005 14.05 12.1505 14.05C12.2172 14.05 12.2755 14.05 12.3255 14.05C12.3922 14.05 12.4838 14.05 12.6005 14.05C12.5005 14.05 12.4255 14.05 12.3755 14.05C12.3255 14.05 12.2755 14.05 12.2255 14.05C12.1755 14.05 12.1005 14.05 12.0005 14.05ZM12.0005 11.3C12.2672 11.3 12.4588 11.3 12.5755 11.3C12.7088 11.3 12.9088 11.3 13.1755 11.3C12.9088 11.3 12.7088 11.3 12.5755 11.3C12.4588 11.3 12.2672 11.3 12.0005 11.3C11.7338 11.3 11.5338 11.3 11.4005 11.3C11.2838 11.3 11.0922 11.3 10.8255 11.3C11.0922 11.3 11.2838 11.3 11.4005 11.3C11.5338 11.3 11.7338 11.3 12.0005 11.3ZM12.0005 22C10.1672 22 8.48382 21.5583 6.95049 20.675C5.41716 19.7917 4.20882 18.5833 3.32549 17.05C2.44216 15.5167 2.00049 13.8333 2.00049 12C2.00049 10.1667 2.44216 8.48333 3.32549 6.95C4.20882 5.41667 5.41716 4.20833 6.95049 3.325C8.48382 2.44167 10.1672 2 12.0005 2C13.8338 2 15.5172 2.44167 17.0505 3.325C18.5838 4.20833 19.7922 5.41667 20.6755 6.95C21.5588 8.48333 22.0005 10.1667 22.0005 12C22.0005 13.8333 21.5588 15.5167 20.6755 17.05C19.7922 18.5833 18.5838 19.7917 17.0505 20.675C15.5172 21.5583 13.8338 22 12.0005 22ZM12.0005 19.125C13.3005 19.125 14.4922 18.8167 15.5755 18.2C16.6588 17.5667 17.5088 16.7083 18.1255 15.625C18.7588 14.525 19.0755 13.3167 19.0755 12C19.0755 10.6833 18.7588 9.48333 18.1255 8.4C17.5088 7.3 16.6588 6.44167 15.5755 5.825C14.4922 5.19167 13.3005 4.875 12.0005 4.875C10.7005 4.875 9.50882 5.19167 8.42549 5.825C7.34216 6.44167 6.48382 7.3 5.85049 8.4C5.23382 9.48333 4.92549 10.6833 4.92549 12C4.92549 13.3167 5.23382 14.525 5.85049 15.625C6.48382 16.7083 7.34216 17.5667 8.42549 18.2C9.50882 18.8167 10.7005 19.125 12.0005 19.125Z" fill="black"/>
</g>
<defs>
<clipPath id="clip0_3191_40152">
<rect width="24" height="24" fill="white"/>
</clipPath>
</defs>
</svg>
