<svg width="24" height="24" viewBox="0 0 24 24" fill="none" xmlns="http://www.w3.org/2000/svg">
<g clip-path="url(#clip0_3191_39758)">
<rect width="24" height="24" fill="white"/>
<path d="M22.7505 12.875H12.9005V22.75H11.1005V12.875H1.25049V11.125H11.1005V1.25H12.9005V11.125H22.7505V12.875ZM12.0005 21C10.3505 21 8.83382 20.6 7.45049 19.8C6.08382 19 5.00049 17.9167 4.20049 16.55C3.40049 15.1667 3.00049 13.65 3.00049 12C3.00049 10.35 3.40049 8.84167 4.20049 7.475C5.00049 6.09167 6.08382 5 7.45049 4.2C8.83382 3.4 10.3505 3 12.0005 3C13.6505 3 15.1588 3.4 16.5255 4.2C17.9088 5 19.0005 6.09167 19.8005 7.475C20.6005 8.84167 21.0005 10.35 21.0005 12C21.0005 13.65 20.6005 15.1667 19.8005 16.55C19.0005 17.9167 17.9088 19 16.5255 19.8C15.1588 20.6 13.6505 21 12.0005 21ZM12.0005 19.25C13.3172 19.25 14.5255 18.9333 15.6255 18.3C16.7255 17.65 17.5922 16.775 18.2255 15.675C18.8755 14.5583 19.2005 13.3333 19.2005 12C19.2005 10.6667 18.8755 9.45 18.2255 8.35C17.5922 7.23333 16.7255 6.35833 15.6255 5.725C14.5255 5.075 13.3172 4.75 12.0005 4.75C10.6838 4.75 9.47549 5.075 8.37549 5.725C7.27549 6.35833 6.40049 7.23333 5.75049 8.35C5.11716 9.45 4.80049 10.6667 4.80049 12C4.80049 13.3333 5.11716 14.5583 5.75049 15.675C6.40049 16.775 7.27549 17.65 8.37549 18.3C9.47549 18.9333 10.6838 19.25 12.0005 19.25Z" fill="black"/>
</g>
<defs>
<clipPath id="clip0_3191_39758">
<rect width="24" height="24" fill="white"/>
</clipPath>
</defs>
</svg>
