<svg width="24" height="24" viewBox="0 0 24 24" fill="none" xmlns="http://www.w3.org/2000/svg">
<g clip-path="url(#clip0_3191_39756)">
<rect width="24" height="24" fill="white"/>
<path d="M22.7505 12.65H12.6755V22.75H11.3255V12.65H1.25049V11.325H11.3255V1.25H12.6755V11.325H22.7505V12.65ZM12.0005 21C10.3505 21 8.83382 20.6 7.45049 19.8C6.08382 19 5.00049 17.9167 4.20049 16.55C3.40049 15.1667 3.00049 13.65 3.00049 12C3.00049 10.35 3.40049 8.84167 4.20049 7.475C5.00049 6.09167 6.08382 5 7.45049 4.2C8.83382 3.4 10.3505 3 12.0005 3C13.6505 3 15.1588 3.4 16.5255 4.2C17.9088 5 19.0005 6.09167 19.8005 7.475C20.6005 8.84167 21.0005 10.35 21.0005 12C21.0005 13.65 20.6005 15.1667 19.8005 16.55C19.0005 17.9167 17.9088 19 16.5255 19.8C15.1588 20.6 13.6505 21 12.0005 21ZM12.0005 19.675C13.4005 19.675 14.6838 19.3333 15.8505 18.65C17.0172 17.9667 17.9338 17.0417 18.6005 15.875C19.2838 14.7083 19.6255 13.4167 19.6255 12C19.6255 10.5833 19.2838 9.29167 18.6005 8.125C17.9338 6.95833 17.0172 6.03333 15.8505 5.35C14.6838 4.66667 13.4005 4.325 12.0005 4.325C10.6005 4.325 9.31716 4.66667 8.15049 5.35C6.98382 6.03333 6.05882 6.95833 5.37549 8.125C4.70882 9.29167 4.37549 10.5833 4.37549 12C4.37549 13.4167 4.70882 14.7083 5.37549 15.875C6.05882 17.0417 6.98382 17.9667 8.15049 18.65C9.31716 19.3333 10.6005 19.675 12.0005 19.675Z" fill="black"/>
</g>
<defs>
<clipPath id="clip0_3191_39756">
<rect width="24" height="24" fill="white"/>
</clipPath>
</defs>
</svg>
