<svg width="24" height="24" viewBox="0 0 24 24" fill="none" xmlns="http://www.w3.org/2000/svg">
<g clip-path="url(#clip0_3191_38921)">
<rect width="24" height="24" fill="white"/>
<path d="M13.75 7.45V17.55H17V21H7V17.55H10.25V7.45H5.25V4H10.25V2H13.75V4H18.75V7.45H13.75ZM19.95 13.25L18.75 10.525L17.55 13.25H19.95ZM23 14C22.6333 14.7667 22.075 15.4083 21.325 15.925C20.575 16.4417 19.7167 16.7 18.75 16.7C17.7833 16.7 16.925 16.4417 16.175 15.925C15.425 15.4083 14.8667 14.7667 14.5 14L18.75 4L23 14ZM6.45 13.25L5.25 10.525L4.05 13.25H6.45ZM9.5 14C9.13333 14.7667 8.575 15.4083 7.825 15.925C7.075 16.4417 6.21667 16.7 5.25 16.7C4.28333 16.7 3.425 16.4417 2.675 15.925C1.925 15.4083 1.36667 14.7667 1 14L5.25 4L9.5 14Z" fill="black"/>
</g>
<defs>
<clipPath id="clip0_3191_38921">
<rect width="24" height="24" fill="white"/>
</clipPath>
</defs>
</svg>
