<svg width="24" height="24" viewBox="0 0 24 24" fill="none" xmlns="http://www.w3.org/2000/svg">
<g clip-path="url(#clip0_3191_40770)">
<rect width="24" height="24" fill="white"/>
<path d="M1.25049 8H22.7255L20.4505 21H3.52549L1.25049 8ZM8.20049 13.025C7.98382 13.025 7.79216 12.95 7.62549 12.8C7.47549 12.65 7.40049 12.4667 7.40049 12.25C7.40049 12.0167 7.47549 11.825 7.62549 11.675C7.79216 11.525 7.98382 11.45 8.20049 11.45C8.41716 11.45 8.60049 11.525 8.75049 11.675C8.91716 11.825 9.00049 12.0167 9.00049 12.25C9.00049 12.4667 8.91716 12.65 8.75049 12.8C8.60049 12.95 8.41716 13.025 8.20049 13.025ZM4.02549 20.075H20.0005L19.5505 20.575L21.6505 8.45L22.3005 8.925H1.80049L2.32549 8.425L4.42549 20.575L4.02549 20.075ZM15.8005 13.025C15.5838 13.025 15.3922 12.95 15.2255 12.8C15.0755 12.65 15.0005 12.4667 15.0005 12.25C15.0005 12.0167 15.0755 11.825 15.2255 11.675C15.3922 11.525 15.5838 11.45 15.8005 11.45C16.0172 11.45 16.2005 11.525 16.3505 11.675C16.5172 11.825 16.6005 12.0167 16.6005 12.25C16.6005 12.4667 16.5172 12.65 16.3505 12.8C16.2005 12.95 16.0172 13.025 15.8005 13.025ZM9.37549 2.3C9.40882 2.16667 9.48382 2.06667 9.60049 2C9.71716 1.93333 9.84216 1.91667 9.97549 1.95C10.1088 2 10.2005 2.08333 10.2505 2.2C10.3172 2.3 10.3338 2.41667 10.3005 2.55L9.27549 8.275H8.30049L9.37549 2.3ZM13.6755 2.55C13.6588 2.41667 13.6755 2.3 13.7255 2.2C13.7922 2.08333 13.8922 2 14.0255 1.95C14.1588 1.91667 14.2838 1.93333 14.4005 2C14.5172 2.06667 14.5922 2.16667 14.6255 2.3L15.7005 8.275H14.7255L13.6755 2.55Z" fill="black"/>
</g>
<defs>
<clipPath id="clip0_3191_40770">
<rect width="24" height="24" fill="white"/>
</clipPath>
</defs>
</svg>
