<svg width="24" height="24" viewBox="0 0 24 24" fill="none" xmlns="http://www.w3.org/2000/svg">
<g clip-path="url(#clip0_3190_38477)">
<rect width="24" height="24" fill="white"/>
<path d="M3.00049 6H21.0005V21H3.00049V6ZM20.5005 20.525V6.475H3.50049V20.525H20.5005ZM8.00049 4.75C8.00049 4.03333 8.17549 3.36667 8.52549 2.75C8.89216 2.13333 9.38382 1.65 10.0005 1.3C10.6172 0.933332 11.2838 0.749998 12.0005 0.749998C12.7172 0.749998 13.3838 0.933332 14.0005 1.3C14.6172 1.65 15.1005 2.13333 15.4505 2.75C15.8172 3.36667 16.0005 4.03333 16.0005 4.75V6.2H15.5005V4.75C15.5005 4.11667 15.3422 3.53333 15.0255 3C14.7088 2.45 14.2838 2.01667 13.7505 1.7C13.2172 1.38333 12.6338 1.225 12.0005 1.225C11.3672 1.225 10.7838 1.38333 10.2505 1.7C9.71716 2.01667 9.29216 2.45 8.97549 3C8.65882 3.53333 8.50049 4.11667 8.50049 4.75V6.2H8.00049V4.75ZM8.25049 12C7.76716 12 7.35049 11.8333 7.00049 11.5C6.66716 11.15 6.50049 10.7333 6.50049 10.25C6.50049 9.76667 6.66716 9.35833 7.00049 9.025C7.35049 8.675 7.76716 8.5 8.25049 8.5C8.73382 8.5 9.14216 8.675 9.47549 9.025C9.82549 9.35833 10.0005 9.76667 10.0005 10.25C10.0005 10.7333 9.82549 11.15 9.47549 11.5C9.14216 11.8333 8.73382 12 8.25049 12ZM8.25049 11.5C8.60049 11.5 8.89216 11.3833 9.12549 11.15C9.37549 10.9 9.50049 10.6 9.50049 10.25C9.50049 9.9 9.37549 9.60833 9.12549 9.375C8.89216 9.125 8.60049 9 8.25049 9C7.90049 9 7.60049 9.125 7.35049 9.375C7.11715 9.60833 7.00049 9.9 7.00049 10.25C7.00049 10.6 7.11715 10.9 7.35049 11.15C7.60049 11.3833 7.90049 11.5 8.25049 11.5ZM15.7505 12C15.2672 12 14.8505 11.8333 14.5005 11.5C14.1672 11.15 14.0005 10.7333 14.0005 10.25C14.0005 9.76667 14.1672 9.35833 14.5005 9.025C14.8505 8.675 15.2672 8.5 15.7505 8.5C16.2338 8.5 16.6422 8.675 16.9755 9.025C17.3255 9.35833 17.5005 9.76667 17.5005 10.25C17.5005 10.7333 17.3255 11.15 16.9755 11.5C16.6422 11.8333 16.2338 12 15.7505 12ZM15.7505 11.5C16.1005 11.5 16.3922 11.3833 16.6255 11.15C16.8755 10.9 17.0005 10.6 17.0005 10.25C17.0005 9.9 16.8755 9.60833 16.6255 9.375C16.3922 9.125 16.1005 9 15.7505 9C15.4005 9 15.1005 9.125 14.8505 9.375C14.6172 9.60833 14.5005 9.9 14.5005 10.25C14.5005 10.6 14.6172 10.9 14.8505 11.15C15.1005 11.3833 15.4005 11.5 15.7505 11.5Z" fill="black"/>
</g>
<defs>
<clipPath id="clip0_3190_38477">
<rect width="24" height="24" fill="white"/>
</clipPath>
</defs>
</svg>
