<svg width="24" height="24" viewBox="0 0 24 24" fill="none" xmlns="http://www.w3.org/2000/svg">
<g clip-path="url(#clip0_3191_40709)">
<rect width="24" height="24" fill="white"/>
<path d="M3 6H21V21H3V6ZM8.525 12.7C9.10833 12.7 9.60833 12.4917 10.025 12.075C10.4417 11.6417 10.65 11.1417 10.65 10.575C10.65 9.99167 10.4417 9.49167 10.025 9.075C9.60833 8.65833 9.10833 8.45 8.525 8.45C7.95833 8.45 7.45833 8.65833 7.025 9.075C6.60833 9.49167 6.4 9.99167 6.4 10.575C6.4 11.1417 6.60833 11.6417 7.025 12.075C7.45833 12.4917 7.95833 12.7 8.525 12.7ZM15.475 12.7C16.0583 12.7 16.5583 12.4917 16.975 12.075C17.3917 11.6417 17.6 11.1417 17.6 10.575C17.6 9.99167 17.3917 9.49167 16.975 9.075C16.5583 8.65833 16.0583 8.45 15.475 8.45C14.9083 8.45 14.4083 8.65833 13.975 9.075C13.5583 9.49167 13.35 9.99167 13.35 10.575C13.35 11.1417 13.5583 11.6417 13.975 12.075C14.4083 12.4917 14.9083 12.7 15.475 12.7ZM7 5.65C7 4.75 7.21667 3.925 7.65 3.175C8.1 2.425 8.70833 1.83333 9.475 1.4C10.2417 0.966665 11.0833 0.749998 12 0.749998C12.9167 0.749998 13.7583 0.966665 14.525 1.4C15.2917 1.83333 15.8917 2.425 16.325 3.175C16.775 3.925 17 4.75 17 5.65V7.15H13.65V5.65C13.65 5.33333 13.575 5.05 13.425 4.8C13.2917 4.55 13.1 4.35833 12.85 4.225C12.6 4.075 12.3167 4 12 4C11.6833 4 11.4 4.075 11.15 4.225C10.9 4.35833 10.7 4.55 10.55 4.8C10.4167 5.05 10.35 5.33333 10.35 5.65V7.15H7V5.65Z" fill="black"/>
</g>
<defs>
<clipPath id="clip0_3191_40709">
<rect width="24" height="24" fill="white"/>
</clipPath>
</defs>
</svg>
