<svg width="24" height="24" viewBox="0 0 24 24" fill="none" xmlns="http://www.w3.org/2000/svg">
<g clip-path="url(#clip0_3191_40780)">
<rect width="24" height="24" fill="white"/>
<path d="M1.25049 7H22.7255L20.4505 21H3.52549L1.25049 7ZM9.27549 15.475C8.70882 15.475 8.23382 15.2833 7.85049 14.9C7.46716 14.5 7.27549 14.025 7.27549 13.475C7.27549 12.925 7.46716 12.4583 7.85049 12.075C8.23382 11.675 8.70882 11.475 9.27549 11.475C9.82549 11.475 10.2922 11.675 10.6755 12.075C11.0755 12.4583 11.2755 12.925 11.2755 13.475C11.2755 14.025 11.0755 14.5 10.6755 14.9C10.2922 15.2833 9.82549 15.475 9.27549 15.475ZM3.90049 17.55H20.1005L17.0505 20.075L19.0255 7.925L20.8005 10.45H1.97549L4.95049 7.9L6.92549 20.075L3.90049 17.55ZM14.7255 15.475C14.1755 15.475 13.7005 15.2833 13.3005 14.9C12.9172 14.5 12.7255 14.025 12.7255 13.475C12.7255 12.925 12.9172 12.4583 13.3005 12.075C13.7005 11.675 14.1755 11.475 14.7255 11.475C15.2922 11.475 15.7672 11.675 16.1505 12.075C16.5338 12.4583 16.7255 12.925 16.7255 13.475C16.7255 14.025 16.5338 14.5 16.1505 14.9C15.7672 15.2833 15.2922 15.475 14.7255 15.475ZM7.95049 3.325C8.05049 2.79167 8.30882 2.40833 8.72549 2.175C9.15882 1.925 9.63382 1.86667 10.1505 2C10.6005 2.11667 10.9338 2.375 11.1505 2.775C11.3672 3.15833 11.4255 3.625 11.3255 4.175L10.5255 8.675H7.00049L7.95049 3.325ZM12.6755 4.15C12.5755 3.6 12.6255 3.13333 12.8255 2.75C13.0422 2.36667 13.3755 2.11667 13.8255 2C14.3255 1.86667 14.7922 1.925 15.2255 2.175C15.6588 2.40833 15.9255 2.79167 16.0255 3.325L16.9755 8.675H13.4505L12.6755 4.15Z" fill="black"/>
</g>
<defs>
<clipPath id="clip0_3191_40780">
<rect width="24" height="24" fill="white"/>
</clipPath>
</defs>
</svg>
