<svg width="24" height="24" viewBox="0 0 24 24" fill="none" xmlns="http://www.w3.org/2000/svg">
<g clip-path="url(#clip0_3191_40788)">
<rect width="24" height="24" fill="white"/>
<path d="M1.25 8H22.725L20.45 21H3.525L1.25 8ZM8.25 13.25C8.63333 13.25 8.95833 13.1167 9.225 12.85C9.49167 12.5833 9.625 12.2583 9.625 11.875C9.625 11.4917 9.49167 11.1667 9.225 10.9C8.95833 10.6333 8.63333 10.5 8.25 10.5C7.86667 10.5 7.54167 10.6333 7.275 10.9C7.00833 11.1667 6.875 11.4917 6.875 11.875C6.875 12.2583 7.00833 12.5833 7.275 12.85C7.54167 13.1167 7.86667 13.25 8.25 13.25ZM15.75 13.25C16.1333 13.25 16.4583 13.1167 16.725 12.85C16.9917 12.5833 17.125 12.2583 17.125 11.875C17.125 11.4917 16.9917 11.1667 16.725 10.9C16.4583 10.6333 16.1333 10.5 15.75 10.5C15.3667 10.5 15.0417 10.6333 14.775 10.9C14.5083 11.1667 14.375 11.4917 14.375 11.875C14.375 12.2583 14.5083 12.5833 14.775 12.85C15.0417 13.1167 15.3667 13.25 15.75 13.25ZM9.05 2.65C9.1 2.38333 9.24167 2.18333 9.475 2.05C9.70833 1.91667 9.95833 1.89167 10.225 1.975C10.475 2.04167 10.6583 2.19167 10.775 2.425C10.8917 2.64167 10.925 2.89167 10.875 3.175L10 8.375H8.025L9.05 2.65ZM13.1 3.175C13.05 2.89167 13.0833 2.64167 13.2 2.425C13.3333 2.19167 13.525 2.04167 13.775 1.975C14.0417 1.89167 14.2917 1.91667 14.525 2.05C14.7583 2.18333 14.9 2.38333 14.95 2.65L15.975 8.375H14L13.1 3.175Z" fill="black"/>
</g>
<defs>
<clipPath id="clip0_3191_40788">
<rect width="24" height="24" fill="white"/>
</clipPath>
</defs>
</svg>
