<svg width="24" height="24" viewBox="0 0 24 24" fill="none" xmlns="http://www.w3.org/2000/svg">
<g clip-path="url(#clip0_3191_40790)">
<rect width="24" height="24" fill="white"/>
<path d="M1.25 8H22.725L20.45 21H3.525L1.25 8ZM8.175 13.75C8.60833 13.75 8.975 13.6 9.275 13.3C9.59167 12.9833 9.75 12.6 9.75 12.15C9.75 11.7167 9.59167 11.35 9.275 11.05C8.975 10.7333 8.60833 10.575 8.175 10.575C7.725 10.575 7.35 10.7333 7.05 11.05C6.75 11.35 6.6 11.7167 6.6 12.15C6.6 12.6 6.75 12.9833 7.05 13.3C7.35 13.6 7.725 13.75 8.175 13.75ZM15.825 13.75C16.275 13.75 16.65 13.6 16.95 13.3C17.25 12.9833 17.4 12.6 17.4 12.15C17.4 11.7167 17.25 11.35 16.95 11.05C16.65 10.7333 16.275 10.575 15.825 10.575C15.3917 10.575 15.0167 10.7333 14.7 11.05C14.4 11.35 14.25 11.7167 14.25 12.15C14.25 12.6 14.4 12.9833 14.7 13.3C15.0167 13.6 15.3917 13.75 15.825 13.75ZM8.675 2.875C8.74167 2.525 8.925 2.26667 9.225 2.1C9.525 1.91667 9.85 1.875 10.2 1.975C10.5167 2.05833 10.75 2.24167 10.9 2.525C11.05 2.80833 11.0917 3.13333 11.025 3.5L10.175 8.475H7.675L8.675 2.875ZM12.95 3.5C12.8833 3.13333 12.925 2.80833 13.075 2.525C13.2417 2.24167 13.4833 2.05833 13.8 1.975C14.1333 1.875 14.45 1.91667 14.75 2.1C15.05 2.26667 15.2333 2.525 15.3 2.875L16.3 8.475H13.825L12.95 3.5Z" fill="black"/>
</g>
<defs>
<clipPath id="clip0_3191_40790">
<rect width="24" height="24" fill="white"/>
</clipPath>
</defs>
</svg>
