<svg width="24" height="24" viewBox="0 0 24 24" fill="none" xmlns="http://www.w3.org/2000/svg">
<g clip-path="url(#clip0_3191_40050)">
<rect width="24" height="24" fill="white"/>
<path d="M2.00049 9.525H4.97549C6.10882 9.525 7.12549 9.70833 8.02549 10.075C8.94216 10.425 9.72549 10.9 10.3755 11.5C11.0255 12.0833 11.5672 12.7583 12.0005 13.525C12.4338 12.7583 12.9755 12.0833 13.6255 11.5C14.2755 10.9 15.0505 10.425 15.9505 10.075C16.8672 9.70833 17.8922 9.525 19.0255 9.525H22.0005V12.45C22.0005 14.4333 21.6088 16.1 20.8255 17.45C20.0422 18.8 18.9005 19.8167 17.4005 20.5C15.9172 21.1667 14.1172 21.5 12.0005 21.5C9.88382 21.5 8.07549 21.1667 6.57549 20.5C5.09216 19.8167 3.95882 18.8 3.17549 17.45C2.39216 16.1 2.00049 14.4333 2.00049 12.45V9.525ZM5.35049 12.95C5.35049 14.1 5.60049 15.0667 6.10049 15.85C6.60049 16.6333 7.34216 17.225 8.32549 17.625C9.30882 18.025 10.5172 18.225 11.9505 18.225L10.3505 20.825V19.725C10.3505 17.475 9.92549 15.7667 9.07549 14.6C8.24216 13.4333 7.02549 12.85 5.42549 12.85H5.35049V12.95ZM18.5755 12.85C16.9755 12.85 15.7505 13.4333 14.9005 14.6C14.0672 15.7667 13.6505 17.475 13.6505 19.725V20.825L12.0505 18.225C13.4838 18.225 14.6922 18.025 15.6755 17.625C16.6588 17.225 17.4005 16.6333 17.9005 15.85C18.4005 15.0667 18.6505 14.1 18.6505 12.95V12.85H18.5755ZM13.4005 11.875C13.5005 11.5917 13.5672 11.3 13.6005 11C13.6505 10.7 13.6755 10.425 13.6755 10.175C13.6755 9.55833 13.5422 8.925 13.2755 8.275C13.0255 7.60833 12.6255 7 12.0755 6.45L12.0005 6.375L11.9255 6.45C11.3922 6.98333 10.9922 7.58333 10.7255 8.25C10.4588 8.9 10.3255 9.54167 10.3255 10.175C10.3255 10.4417 10.3422 10.725 10.3755 11.025C10.4255 11.3083 10.5005 11.5917 10.6005 11.875H7.25049C7.18382 11.6083 7.12549 11.3333 7.07549 11.05C7.04216 10.75 7.02549 10.4583 7.02549 10.175C7.02549 9.10833 7.23382 8.05833 7.65049 7.025C8.06716 5.975 8.67549 5.05 9.47549 4.25L12.0005 1.725L14.5255 4.25C15.3255 5.05 15.9338 5.975 16.3505 7.025C16.7672 8.05833 16.9755 9.10833 16.9755 10.175C16.9755 10.4583 16.9505 10.75 16.9005 11.05C16.8672 11.3333 16.8172 11.6083 16.7505 11.875H13.4005Z" fill="black"/>
</g>
<defs>
<clipPath id="clip0_3191_40050">
<rect width="24" height="24" fill="white"/>
</clipPath>
</defs>
</svg>
