<svg width="24" height="24" viewBox="0 0 24 24" fill="none" xmlns="http://www.w3.org/2000/svg">
<g clip-path="url(#clip0_3191_38603)">
<rect width="24" height="24" fill="white"/>
<path d="M16.85 19.3C17.2667 19.3 17.625 19.2417 17.925 19.125C18.2417 19.0083 18.6 18.8333 19 18.6C19.4333 18.3333 19.825 18.1333 20.175 18C20.5417 17.8667 20.9833 17.8 21.5 17.8V19.5C21.15 19.5 20.8417 19.55 20.575 19.65C20.325 19.75 20 19.9167 19.6 20.15C19.1333 20.4333 18.7083 20.65 18.325 20.8C17.9417 20.9333 17.45 21 16.85 21C16.2667 21 15.7833 20.9333 15.4 20.8C15.0333 20.65 14.6083 20.4417 14.125 20.175C13.7417 19.9583 13.3917 19.7917 13.075 19.675C12.775 19.5583 12.4167 19.5 12 19.5C11.5833 19.5 11.2167 19.5583 10.9 19.675C10.5833 19.7917 10.2333 19.9667 9.85 20.2C9.36667 20.4667 8.93333 20.6667 8.55 20.8C8.18333 20.9333 7.71667 21 7.15 21C6.55 21 6.05833 20.9333 5.675 20.8C5.29167 20.65 4.86667 20.4333 4.4 20.15C4 19.9167 3.66667 19.75 3.4 19.65C3.15 19.55 2.85 19.5 2.5 19.5V17.8C3.01667 17.8 3.45 17.8667 3.8 18C4.16667 18.1333 4.56667 18.3333 5 18.6C5.4 18.8333 5.75 19.0083 6.05 19.125C6.36667 19.2417 6.73333 19.3 7.15 19.3C7.56667 19.3 7.93333 19.2417 8.25 19.125C8.56667 19.0083 8.91667 18.8333 9.3 18.6C9.78333 18.3333 10.2083 18.1333 10.575 18C10.9583 17.8667 11.4333 17.8 12 17.8C12.5833 17.8 13.0583 17.875 13.425 18.025C13.8083 18.1583 14.2417 18.3583 14.725 18.625C15.1083 18.8417 15.45 19.0083 15.75 19.125C16.0667 19.2417 16.4333 19.3 16.85 19.3ZM16.85 15.5C17.2667 15.5 17.625 15.4417 17.925 15.325C18.2417 15.2083 18.6 15.0333 19 14.8C19.4333 14.5333 19.825 14.3333 20.175 14.2C20.5417 14.0667 20.9833 14 21.5 14V15.7C21.15 15.7 20.8417 15.75 20.575 15.85C20.325 15.95 20 16.1167 19.6 16.35C19.1333 16.6333 18.7083 16.85 18.325 17C17.9417 17.1333 17.45 17.2 16.85 17.2C16.2667 17.2 15.7833 17.1333 15.4 17C15.0333 16.85 14.6083 16.6417 14.125 16.375C13.7417 16.1583 13.3917 15.9917 13.075 15.875C12.775 15.7583 12.4167 15.7 12 15.7C11.5833 15.7 11.2167 15.7583 10.9 15.875C10.5833 15.9917 10.2333 16.1667 9.85 16.4C9.36667 16.6667 8.93333 16.8667 8.55 17C8.18333 17.1333 7.71667 17.2 7.15 17.2C6.55 17.2 6.05833 17.1333 5.675 17C5.29167 16.85 4.86667 16.6333 4.4 16.35C4 16.1167 3.66667 15.95 3.4 15.85C3.15 15.75 2.85 15.7 2.5 15.7V14C3.01667 14 3.45 14.0667 3.8 14.2C4.16667 14.3333 4.56667 14.5333 5 14.8C5.4 15.0333 5.75 15.2083 6.05 15.325C6.36667 15.4417 6.73333 15.5 7.15 15.5C7.56667 15.5 7.93333 15.4417 8.25 15.325C8.56667 15.2083 8.91667 15.0333 9.3 14.8C9.78333 14.5333 10.2083 14.3333 10.575 14.2C10.9583 14.0667 11.4333 14 12 14C12.5833 14 13.0583 14.075 13.425 14.225C13.8083 14.3583 14.2417 14.5583 14.725 14.825C15.1083 15.0417 15.45 15.2083 15.75 15.325C16.0667 15.4417 16.4333 15.5 16.85 15.5ZM7.25 2.5C7.76667 2.5 8.23333 2.625 8.65 2.875C9.06667 3.10833 9.39167 3.43333 9.625 3.85C9.875 4.26667 10 4.73333 10 5.25V15.625H8.25V5.25C8.25 4.95 8.15 4.7 7.95 4.5C7.76667 4.3 7.53333 4.2 7.25 4.2H6.5V2.5H7.25ZM13.25 2.5C13.7667 2.5 14.2333 2.625 14.65 2.875C15.0667 3.10833 15.3917 3.43333 15.625 3.85C15.875 4.26667 16 4.73333 16 5.25V15.625H14.25V5.25C14.25 4.95 14.15 4.7 13.95 4.5C13.7667 4.3 13.5333 4.2 13.25 4.2H12.5V2.5H13.25ZM15.1 7V8.7H9.075V7H15.1ZM15.1 10.65V12.35H9.075V10.65H15.1Z" fill="black"/>
</g>
<defs>
<clipPath id="clip0_3191_38603">
<rect width="24" height="24" fill="white"/>
</clipPath>
</defs>
</svg>
