<svg width="24" height="24" viewBox="0 0 24 24" fill="none" xmlns="http://www.w3.org/2000/svg">
<g clip-path="url(#clip0_3191_38609)">
<rect width="24" height="24" fill="white"/>
<path d="M16.85 17.8C17.2667 17.8 17.6333 17.7583 17.95 17.675C18.2667 17.5917 18.6083 17.475 18.975 17.325C19.425 17.1583 19.825 17.0333 20.175 16.95C20.5417 16.85 20.9833 16.8 21.5 16.8V20C21.15 20 20.8417 20.0333 20.575 20.1C20.3083 20.1667 19.9917 20.275 19.625 20.425C19.175 20.6083 18.75 20.75 18.35 20.85C17.95 20.95 17.45 21 16.85 21C16.2667 21 15.775 20.9583 15.375 20.875C14.975 20.775 14.55 20.6333 14.1 20.45C13.6833 20.3 13.3333 20.1917 13.05 20.125C12.7667 20.0417 12.4167 20 12 20C11.6 20 11.25 20.0417 10.95 20.125C10.6667 20.1917 10.3083 20.3 9.875 20.45C9.40833 20.6333 8.98333 20.775 8.6 20.875C8.21667 20.9583 7.73333 21 7.15 21C6.55 21 6.05 20.95 5.65 20.85C5.25 20.75 4.825 20.6083 4.375 20.425C4.00833 20.275 3.69167 20.1667 3.425 20.1C3.15833 20.0333 2.85 20 2.5 20V16.8C3.01667 16.8 3.45 16.85 3.8 16.95C4.16667 17.0333 4.575 17.1583 5.025 17.325C5.39167 17.475 5.73333 17.5917 6.05 17.675C6.36667 17.7583 6.73333 17.8 7.15 17.8C7.56667 17.8 7.91667 17.7667 8.2 17.7C8.48333 17.6167 8.84167 17.5 9.275 17.35C9.74167 17.1667 10.1667 17.0333 10.55 16.95C10.9333 16.85 11.4167 16.8 12 16.8C12.5833 16.8 13.075 16.85 13.475 16.95C13.875 17.0333 14.3 17.1667 14.75 17.35C15.1667 17.5 15.5167 17.6167 15.8 17.7C16.0833 17.7667 16.4333 17.8 16.85 17.8ZM12.075 19.4C12.0917 19.4 12.1 19.4 12.1 19.4C12.1167 19.4 12.125 19.4 12.125 19.4C12.125 19.4 12.1167 19.4 12.1 19.4C12.1 19.4 12.0917 19.4 12.075 19.4C12.0583 19.4 12.05 19.4 12.05 19.4C12.05 19.4 12.0417 19.4 12.025 19.4C12.025 19.4 12.0167 19.4 12 19.4C12 19.4 11.9917 19.4 11.975 19.4C11.975 19.4 11.9667 19.4 11.95 19.4C11.95 19.4 11.9417 19.4 11.925 19.4C11.925 19.4 11.9167 19.4 11.9 19.4C11.9 19.4 11.8917 19.4 11.875 19.4C11.8917 19.4 11.9 19.4 11.9 19.4C11.9167 19.4 11.925 19.4 11.925 19.4C11.9417 19.4 11.95 19.4 11.95 19.4C11.9667 19.4 11.975 19.4 11.975 19.4C11.975 19.4 11.9833 19.4 12 19.4C12.0167 19.4 12.025 19.4 12.025 19.4C12.025 19.4 12.0333 19.4 12.05 19.4C12.0667 19.4 12.075 19.4 12.075 19.4ZM5.975 2.5C6.625 2.5 7.21667 2.65 7.75 2.95C8.28333 3.25 8.7 3.65833 9 4.175C9.31667 4.675 9.475 5.225 9.475 5.825V18.55H6.075V6C6.075 5.93333 6.05 5.88333 6 5.85C5.95 5.81667 5.875 5.8 5.775 5.8H4.425V2.5H5.975ZM14.55 2.5C15.1833 2.5 15.7667 2.65833 16.3 2.975C16.8333 3.29167 17.25 3.71667 17.55 4.25C17.85 4.78333 18 5.36667 18 6V18.55H14.6V6C14.6 5.93333 14.575 5.88333 14.525 5.85C14.475 5.81667 14.4 5.8 14.3 5.8H12.95V2.5H14.55ZM14.95 7.3L15.05 10.6H8.875V7.3H14.95ZM15.05 12.125V15.425H8.875V12.125H15.05Z" fill="black"/>
</g>
<defs>
<clipPath id="clip0_3191_38609">
<rect width="24" height="24" fill="white"/>
</clipPath>
</defs>
</svg>
