<svg width="24" height="24" viewBox="0 0 24 24" fill="none" xmlns="http://www.w3.org/2000/svg">
<g clip-path="url(#clip0_3191_38589)">
<rect width="24" height="24" fill="white"/>
<path d="M16.8505 19.3C17.2672 19.3 17.6255 19.2417 17.9255 19.125C18.2422 19.0083 18.6005 18.8333 19.0005 18.6C19.4338 18.3333 19.8255 18.1333 20.1755 18C20.5422 17.8667 20.9838 17.8 21.5005 17.8V19.5C21.1505 19.5 20.8422 19.55 20.5755 19.65C20.3255 19.75 20.0005 19.9167 19.6005 20.15C19.1338 20.4333 18.7088 20.65 18.3255 20.8C17.9422 20.9333 17.4505 21 16.8505 21C16.2672 21 15.7838 20.9333 15.4005 20.8C15.0338 20.65 14.6088 20.4417 14.1255 20.175C13.7422 19.9583 13.3922 19.7917 13.0755 19.675C12.7755 19.5583 12.4172 19.5 12.0005 19.5C11.5838 19.5 11.2172 19.5583 10.9005 19.675C10.5838 19.7917 10.2338 19.9667 9.85049 20.2C9.36716 20.4667 8.93382 20.6667 8.55049 20.8C8.18382 20.9333 7.71716 21 7.15049 21C6.55049 21 6.05882 20.9333 5.67549 20.8C5.29216 20.65 4.86716 20.4333 4.40049 20.15C4.00049 19.9167 3.66716 19.75 3.40049 19.65C3.15049 19.55 2.85049 19.5 2.50049 19.5V17.8C3.01716 17.8 3.45049 17.8667 3.80049 18C4.16716 18.1333 4.56716 18.3333 5.00049 18.6C5.40049 18.8333 5.75049 19.0083 6.05049 19.125C6.36716 19.2417 6.73382 19.3 7.15049 19.3C7.56716 19.3 7.93382 19.2417 8.25049 19.125C8.56716 19.0083 8.91716 18.8333 9.30049 18.6C9.78382 18.3333 10.2088 18.1333 10.5755 18C10.9588 17.8667 11.4338 17.8 12.0005 17.8C12.5838 17.8 13.0588 17.875 13.4255 18.025C13.8088 18.1583 14.2422 18.3583 14.7255 18.625C15.1088 18.8417 15.4505 19.0083 15.7505 19.125C16.0672 19.2417 16.4338 19.3 16.8505 19.3ZM16.8505 15.5C17.2672 15.5 17.6255 15.4417 17.9255 15.325C18.2422 15.2083 18.6005 15.0333 19.0005 14.8C19.4338 14.5333 19.8255 14.3333 20.1755 14.2C20.5422 14.0667 20.9838 14 21.5005 14V15.7C21.1505 15.7 20.8422 15.75 20.5755 15.85C20.3255 15.95 20.0005 16.1167 19.6005 16.35C19.1338 16.6333 18.7088 16.85 18.3255 17C17.9422 17.1333 17.4505 17.2 16.8505 17.2C16.2672 17.2 15.7838 17.1333 15.4005 17C15.0338 16.85 14.6088 16.6417 14.1255 16.375C13.7422 16.1583 13.3922 15.9917 13.0755 15.875C12.7755 15.7583 12.4172 15.7 12.0005 15.7C11.5838 15.7 11.2172 15.7583 10.9005 15.875C10.5838 15.9917 10.2338 16.1667 9.85049 16.4C9.36716 16.6667 8.93382 16.8667 8.55049 17C8.18382 17.1333 7.71716 17.2 7.15049 17.2C6.55049 17.2 6.05882 17.1333 5.67549 17C5.29216 16.85 4.86716 16.6333 4.40049 16.35C4.00049 16.1167 3.66716 15.95 3.40049 15.85C3.15049 15.75 2.85049 15.7 2.50049 15.7V14C3.01716 14 3.45049 14.0667 3.80049 14.2C4.16716 14.3333 4.56716 14.5333 5.00049 14.8C5.40049 15.0333 5.75049 15.2083 6.05049 15.325C6.36716 15.4417 6.73382 15.5 7.15049 15.5C7.56716 15.5 7.93382 15.4417 8.25049 15.325C8.56716 15.2083 8.91716 15.0333 9.30049 14.8C9.78382 14.5333 10.2088 14.3333 10.5755 14.2C10.9588 14.0667 11.4338 14 12.0005 14C12.5838 14 13.0588 14.075 13.4255 14.225C13.8088 14.3583 14.2422 14.5583 14.7255 14.825C15.1088 15.0417 15.4505 15.2083 15.7505 15.325C16.0672 15.4417 16.4338 15.5 16.8505 15.5ZM7.25049 2.5C7.76716 2.5 8.23382 2.625 8.65049 2.875C9.06716 3.10833 9.39216 3.43333 9.62549 3.85C9.87549 4.26667 10.0005 4.73333 10.0005 5.25V15.625H8.25049V5.25C8.25049 4.95 8.15049 4.7 7.95049 4.5C7.76716 4.3 7.53382 4.2 7.25049 4.2H6.50049V2.5H7.25049ZM13.2505 2.5C13.7672 2.5 14.2338 2.625 14.6505 2.875C15.0672 3.10833 15.3922 3.43333 15.6255 3.85C15.8755 4.26667 16.0005 4.73333 16.0005 5.25V15.625H14.2505V5.25C14.2505 4.95 14.1505 4.7 13.9505 4.5C13.7672 4.3 13.5338 4.2 13.2505 4.2H12.5005V2.5H13.2505ZM15.1005 7V8.7H9.07549V7H15.1005ZM15.1005 10.65V12.35H9.07549V10.65H15.1005Z" fill="black"/>
</g>
<defs>
<clipPath id="clip0_3191_38589">
<rect width="24" height="24" fill="white"/>
</clipPath>
</defs>
</svg>
