<svg width="24" height="24" viewBox="0 0 24 24" fill="none" xmlns="http://www.w3.org/2000/svg">
<g clip-path="url(#clip0_3191_38607)">
<rect width="24" height="24" fill="white"/>
<path d="M16.85 18.4C17.2667 18.4 17.625 18.35 17.925 18.25C18.2417 18.1333 18.5917 17.975 18.975 17.775C19.4083 17.5417 19.8083 17.3667 20.175 17.25C20.5417 17.1333 20.9833 17.075 21.5 17.075V19.675C21.15 19.675 20.8417 19.725 20.575 19.825C20.3083 19.9083 19.9917 20.05 19.625 20.25C19.1583 20.5 18.725 20.6917 18.325 20.825C17.9417 20.9417 17.45 21 16.85 21C16.2667 21 15.775 20.9417 15.375 20.825C14.9917 20.6917 14.5667 20.5083 14.1 20.275C13.7 20.0583 13.35 19.9083 13.05 19.825C12.7667 19.725 12.4167 19.675 12 19.675C11.5833 19.675 11.225 19.725 10.925 19.825C10.6417 19.9083 10.2917 20.0583 9.875 20.275C9.39167 20.5083 8.95833 20.6917 8.575 20.825C8.20833 20.9417 7.73333 21 7.15 21C6.55 21 6.05 20.9417 5.65 20.825C5.26667 20.6917 4.84167 20.5 4.375 20.25C4.00833 20.05 3.69167 19.9083 3.425 19.825C3.15833 19.725 2.85 19.675 2.5 19.675V17.075C3.03333 17.075 3.475 17.1333 3.825 17.25C4.19167 17.3667 4.59167 17.5417 5.025 17.775C5.40833 17.975 5.75 18.1333 6.05 18.25C6.36667 18.35 6.73333 18.4 7.15 18.4C7.56667 18.4 7.91667 18.35 8.2 18.25C8.5 18.15 8.85833 18 9.275 17.8C9.75833 17.5667 10.1833 17.3917 10.55 17.275C10.9333 17.1417 11.4167 17.075 12 17.075C12.5833 17.075 13.0667 17.1417 13.45 17.275C13.85 17.3917 14.2833 17.5667 14.75 17.8C15.15 18 15.4917 18.15 15.775 18.25C16.075 18.35 16.4333 18.4 16.85 18.4ZM12.075 18.775C12.0917 18.775 12.1 18.775 12.1 18.775C12.1167 18.775 12.125 18.775 12.125 18.775C12.125 18.775 12.1167 18.775 12.1 18.775C12.1 18.775 12.0917 18.775 12.075 18.775C12.0583 18.775 12.05 18.775 12.05 18.775C12.05 18.775 12.0417 18.775 12.025 18.775C12.025 18.775 12.0167 18.775 12 18.775C12 18.775 11.9917 18.775 11.975 18.775C11.975 18.775 11.9667 18.775 11.95 18.775C11.95 18.775 11.9417 18.775 11.925 18.775C11.925 18.775 11.9167 18.775 11.9 18.775C11.9 18.775 11.8917 18.775 11.875 18.775C11.8917 18.775 11.9 18.775 11.9 18.775C11.9167 18.775 11.925 18.775 11.925 18.775C11.9417 18.775 11.95 18.775 11.95 18.775C11.9667 18.775 11.975 18.775 11.975 18.775C11.975 18.775 11.9833 18.775 12 18.775C12.0167 18.775 12.025 18.775 12.025 18.775C12.025 18.775 12.0333 18.775 12.05 18.775C12.0667 18.775 12.075 18.775 12.075 18.775ZM6.25 2.5C6.83333 2.5 7.36667 2.64167 7.85 2.925C8.33333 3.19167 8.70833 3.56667 8.975 4.05C9.25833 4.51667 9.4 5.025 9.4 5.575V18.875H6.725V5.625C6.725 5.49167 6.675 5.375 6.575 5.275C6.49167 5.175 6.375 5.125 6.225 5.125H4.95V2.5H6.25ZM14.175 2.5C14.7583 2.5 15.2917 2.64167 15.775 2.925C16.2583 3.19167 16.6333 3.56667 16.9 4.05C17.1833 4.53333 17.325 5.05833 17.325 5.625V18.875H14.675V5.625C14.675 5.49167 14.625 5.375 14.525 5.275C14.425 5.175 14.2917 5.125 14.125 5.125H12.875V2.5H14.175ZM15.05 7.6V10.225H8.875V7.6H15.05ZM15.05 12.55V15.175H8.875V12.55H15.05Z" fill="black"/>
</g>
<defs>
<clipPath id="clip0_3191_38607">
<rect width="24" height="24" fill="white"/>
</clipPath>
</defs>
</svg>
