<svg width="24" height="24" viewBox="0 0 24 24" fill="none" xmlns="http://www.w3.org/2000/svg">
<g clip-path="url(#clip0_3191_39245)">
<rect width="24" height="24" fill="white"/>
<path d="M3.00049 2C4.31716 2.31667 5.80049 2.56667 7.45049 2.75C9.10049 2.91667 10.6422 3 12.0755 3C13.4922 3 15.0088 2.91667 16.6255 2.75C18.2422 2.56667 19.7005 2.31667 21.0005 2V13.65C21.0005 15.1833 20.6088 16.5917 19.8255 17.875C19.0422 19.1417 17.9672 20.15 16.6005 20.9C15.2505 21.6333 13.7672 22 12.1505 22C10.4672 22 8.92549 21.6333 7.52549 20.9C6.12549 20.15 5.01716 19.1417 4.20049 17.875C3.40049 16.5917 3.00049 15.1833 3.00049 13.65V2ZM6.65049 13.65C6.65049 14.5167 6.89216 15.3167 7.37549 16.05C7.85882 16.7667 8.51716 17.3417 9.35049 17.775C10.2005 18.1917 11.1338 18.4 12.1505 18.4C13.1172 18.4 13.9922 18.1917 14.7755 17.775C15.5755 17.3417 16.2005 16.7667 16.6505 16.05C17.1172 15.3167 17.3505 14.5167 17.3505 13.65V2.825L20.7505 5.65C19.4672 5.95 18.0338 6.18333 16.4505 6.35C14.8838 6.51667 13.4255 6.6 12.0755 6.6C10.5588 6.6 9.00049 6.51667 7.40049 6.35C5.80049 6.18333 4.41716 5.95 3.25049 5.65L6.65049 2.825V13.65ZM9.50049 11.8C8.91716 11.8 8.42549 11.6 8.02549 11.2C7.64216 10.8 7.45049 10.3083 7.45049 9.725C7.45049 9.14167 7.64216 8.65833 8.02549 8.275C8.42549 7.875 8.91716 7.675 9.50049 7.675C10.1005 7.675 10.5922 7.875 10.9755 8.275C11.3755 8.65833 11.5755 9.14167 11.5755 9.725C11.5755 10.3083 11.3755 10.8 10.9755 11.2C10.5922 11.6 10.1005 11.8 9.50049 11.8ZM14.5005 11.8C13.9005 11.8 13.4005 11.6 13.0005 11.2C12.6172 10.8 12.4255 10.3083 12.4255 9.725C12.4255 9.14167 12.6172 8.65833 13.0005 8.275C13.4005 7.875 13.9005 7.675 14.5005 7.675C15.0838 7.675 15.5672 7.875 15.9505 8.275C16.3505 8.65833 16.5505 9.14167 16.5505 9.725C16.5505 10.3083 16.3505 10.8 15.9505 11.2C15.5672 11.6 15.0838 11.8 14.5005 11.8ZM11.9255 16.325C11.1588 16.325 10.4922 16.1917 9.92549 15.925C9.37549 15.6417 8.95882 15.275 8.67549 14.825C8.39216 14.3583 8.25049 13.8583 8.25049 13.325H15.7505C15.7505 13.8583 15.6005 14.3583 15.3005 14.825C15.0005 15.275 14.5588 15.6417 13.9755 15.925C13.4088 16.1917 12.7255 16.325 11.9255 16.325ZM11.8755 15.2C11.8922 15.2 11.9088 15.2 11.9255 15.2C11.9422 15.2 11.9588 15.2 11.9755 15.2C12.0088 15.2 12.0338 15.2 12.0505 15.2C12.0672 15.2 12.0922 15.2 12.1255 15.2H11.8755Z" fill="black"/>
</g>
<defs>
<clipPath id="clip0_3191_39245">
<rect width="24" height="24" fill="white"/>
</clipPath>
</defs>
</svg>
