<svg width="24" height="24" viewBox="0 0 24 24" fill="none" xmlns="http://www.w3.org/2000/svg">
<g clip-path="url(#clip0_3191_39257)">
<rect width="24" height="24" fill="white"/>
<path d="M9.95 17C10.55 17.2833 11.2083 17.425 11.925 17.425C12.675 17.425 13.3583 17.2833 13.975 17C14.6083 16.7 15.1 16.3 15.45 15.8C15.8167 15.2833 16 14.725 16 14.125H8C8 14.725 8.175 15.2833 8.525 15.8C8.875 16.3 9.35 16.7 9.95 17ZM7.125 10.45C7.49167 10.8167 7.95 11 8.5 11C9.05 11 9.50833 10.8167 9.875 10.45C10.2417 10.0667 10.425 9.60833 10.425 9.075C10.425 8.525 10.2417 8.06667 9.875 7.7C9.50833 7.33333 9.05 7.15 8.5 7.15C7.95 7.15 7.49167 7.33333 7.125 7.7C6.75833 8.06667 6.575 8.525 6.575 9.075C6.575 9.60833 6.75833 10.0667 7.125 10.45ZM14.125 10.45C14.4917 10.8167 14.95 11 15.5 11C16.05 11 16.5083 10.8167 16.875 10.45C17.2417 10.0667 17.425 9.60833 17.425 9.075C17.425 8.525 17.2417 8.06667 16.875 7.7C16.5083 7.33333 16.05 7.15 15.5 7.15C14.95 7.15 14.4917 7.33333 14.125 7.7C13.7583 8.06667 13.575 8.525 13.575 9.075C13.575 9.60833 13.7583 10.0667 14.125 10.45ZM4.2 17.875C3.4 16.5917 3 15.1833 3 13.65V2C4.33333 2.31667 5.80833 2.56667 7.425 2.75C9.04167 2.91667 10.5667 3 12 3C13.4167 3 14.9417 2.91667 16.575 2.75C18.225 2.56667 19.7 2.31667 21 2V13.65C21 15.1833 20.6 16.5917 19.8 17.875C19 19.1417 17.9083 20.15 16.525 20.9C15.1583 21.6333 13.65 22 12 22C10.35 22 8.83333 21.6333 7.45 20.9C6.08333 20.15 5 19.1417 4.2 17.875Z" fill="black"/>
</g>
<defs>
<clipPath id="clip0_3191_39257">
<rect width="24" height="24" fill="white"/>
</clipPath>
</defs>
</svg>
