<svg width="24" height="24" viewBox="0 0 24 24" fill="none" xmlns="http://www.w3.org/2000/svg">
<g clip-path="url(#clip0_3191_39241)">
<rect width="24" height="24" fill="white"/>
<path d="M3.00049 2C4.33382 2.31667 5.80882 2.56667 7.42549 2.75C9.05882 2.91667 10.5922 3 12.0255 3C13.4422 3 14.9672 2.91667 16.6005 2.75C18.2338 2.56667 19.7005 2.31667 21.0005 2V13.65C21.0005 15.1833 20.6005 16.5917 19.8005 17.875C19.0172 19.1417 17.9338 20.15 16.5505 20.9C15.1838 21.6333 13.6838 22 12.0505 22C10.3838 22 8.85882 21.6333 7.47549 20.9C6.09216 20.15 5.00049 19.1417 4.20049 17.875C3.40049 16.5917 3.00049 15.1833 3.00049 13.65V2ZM5.47549 13.65C5.47549 14.7333 5.76716 15.7333 6.35049 16.65C6.93382 17.55 7.72549 18.2667 8.72549 18.8C9.74216 19.3167 10.8505 19.575 12.0505 19.575C13.2338 19.575 14.3172 19.3167 15.3005 18.8C16.3005 18.2667 17.0838 17.55 17.6505 16.65C18.2338 15.7333 18.5255 14.7333 18.5255 13.65V2.825L20.7505 4.475C19.4838 4.775 18.0505 5.00833 16.4505 5.175C14.8672 5.34167 13.3922 5.425 12.0255 5.425C10.4922 5.425 8.93382 5.34167 7.35049 5.175C5.78382 5.00833 4.41716 4.775 3.25049 4.475L5.47549 2.825V13.65ZM9.25049 11.15C8.81716 11.15 8.44216 10.9917 8.12549 10.675C7.80882 10.3583 7.65049 9.98333 7.65049 9.55C7.65049 9.1 7.80882 8.725 8.12549 8.425C8.44216 8.10833 8.81716 7.95 9.25049 7.95C9.70049 7.95 10.0755 8.10833 10.3755 8.425C10.6922 8.725 10.8505 9.1 10.8505 9.55C10.8505 9.98333 10.6922 10.3583 10.3755 10.675C10.0755 10.9917 9.70049 11.15 9.25049 11.15ZM14.7505 11.15C14.3005 11.15 13.9172 10.9917 13.6005 10.675C13.3005 10.3583 13.1505 9.98333 13.1505 9.55C13.1505 9.1 13.3005 8.725 13.6005 8.425C13.9172 8.10833 14.3005 7.95 14.7505 7.95C15.2005 7.95 15.5755 8.10833 15.8755 8.425C16.1922 8.725 16.3505 9.1 16.3505 9.55C16.3505 9.98333 16.1922 10.3583 15.8755 10.675C15.5755 10.9917 15.2005 11.15 14.7505 11.15ZM11.9255 16.45C11.2422 16.45 10.6338 16.3167 10.1005 16.05C9.56716 15.7833 9.15049 15.45 8.85049 15.05C8.56716 14.6333 8.42549 14.2167 8.42549 13.8H15.5755C15.5755 14.2167 15.4172 14.6333 15.1005 15.05C14.8005 15.45 14.3755 15.7833 13.8255 16.05C13.2755 16.3167 12.6422 16.45 11.9255 16.45ZM11.8755 15.2C11.8922 15.2 11.9088 15.2 11.9255 15.2C11.9422 15.2 11.9588 15.2 11.9755 15.2C12.0088 15.2 12.0338 15.2 12.0505 15.2C12.0672 15.2 12.0922 15.2 12.1255 15.2H11.8755Z" fill="black"/>
</g>
<defs>
<clipPath id="clip0_3191_39241">
<rect width="24" height="24" fill="white"/>
</clipPath>
</defs>
</svg>
