<svg width="24" height="24" viewBox="0 0 24 24" fill="none" xmlns="http://www.w3.org/2000/svg">
<g clip-path="url(#clip0_3191_39237)">
<rect width="24" height="24" fill="white"/>
<path d="M3.00049 2C4.31716 2.31667 5.79216 2.56667 7.42549 2.75C9.05882 2.91667 10.5922 3 12.0255 3C13.4422 3 14.9672 2.91667 16.6005 2.75C18.2338 2.56667 19.7005 2.31667 21.0005 2V13.575C21.0005 15.125 20.6005 16.5417 19.8005 17.825C19.0005 19.1083 17.9088 20.125 16.5255 20.875C15.1588 21.625 13.6505 22 12.0005 22C10.3505 22 8.83382 21.625 7.45049 20.875C6.08382 20.125 5.00049 19.1083 4.20049 17.825C3.40049 16.5417 3.00049 15.125 3.00049 13.575V2ZM4.42549 13.575C4.42549 14.875 4.75882 16.0667 5.42549 17.15C6.10882 18.2167 7.02549 19.0667 8.17549 19.7C9.34216 20.3167 10.6172 20.625 12.0005 20.625C13.3838 20.625 14.6505 20.3167 15.8005 19.7C16.9672 19.0667 17.8838 18.2167 18.5505 17.15C19.2338 16.0667 19.5755 14.875 19.5755 13.575V2.65L20.7505 3.425C19.5172 3.74167 18.1005 3.98333 16.5005 4.15C14.9172 4.3 13.4255 4.375 12.0255 4.375C10.5255 4.375 8.97549 4.29167 7.37549 4.125C5.79216 3.95833 4.41716 3.725 3.25049 3.425L4.42549 2.65V13.575ZM8.95049 10.375C8.65049 10.375 8.39216 10.2667 8.17549 10.05C7.97549 9.83333 7.87549 9.575 7.87549 9.275C7.87549 8.99167 7.97549 8.74167 8.17549 8.525C8.39216 8.30833 8.65049 8.2 8.95049 8.2C9.25049 8.2 9.50049 8.30833 9.70049 8.525C9.91716 8.74167 10.0255 8.99167 10.0255 9.275C10.0255 9.575 9.91716 9.83333 9.70049 10.05C9.50049 10.2667 9.25049 10.375 8.95049 10.375ZM15.0505 10.375C14.7505 10.375 14.4922 10.2667 14.2755 10.05C14.0755 9.83333 13.9755 9.575 13.9755 9.275C13.9755 8.99167 14.0755 8.74167 14.2755 8.525C14.4922 8.30833 14.7505 8.2 15.0505 8.2C15.3505 8.2 15.6005 8.30833 15.8005 8.525C16.0172 8.74167 16.1255 8.99167 16.1255 9.275C16.1255 9.575 16.0172 9.83333 15.8005 10.05C15.6005 10.2667 15.3505 10.375 15.0505 10.375ZM11.9255 16.325C11.3255 16.325 10.7755 16.2083 10.2755 15.975C9.77549 15.725 9.38382 15.425 9.10049 15.075C8.81716 14.725 8.67549 14.3833 8.67549 14.05H15.3255C15.3255 14.3833 15.1755 14.725 14.8755 15.075C14.5755 15.425 14.1672 15.725 13.6505 15.975C13.1338 16.2083 12.5588 16.325 11.9255 16.325ZM11.8755 15.2C11.8922 15.2 11.9088 15.2 11.9255 15.2C11.9422 15.2 11.9588 15.2 11.9755 15.2C12.0088 15.2 12.0338 15.2 12.0505 15.2C12.0672 15.2 12.0922 15.2 12.1255 15.2H11.8755Z" fill="black"/>
</g>
<defs>
<clipPath id="clip0_3191_39237">
<rect width="24" height="24" fill="white"/>
</clipPath>
</defs>
</svg>
