<svg width="24" height="24" viewBox="0 0 24 24" fill="none" xmlns="http://www.w3.org/2000/svg">
<g clip-path="url(#clip0_3191_39532)">
<rect width="24" height="24" fill="white"/>
<path d="M2.00049 14.075H2.87549C3.47549 14.075 3.97549 13.875 4.37549 13.475C4.77549 13.075 4.97549 12.5833 4.97549 12C4.97549 11.4167 4.77549 10.925 4.37549 10.525C3.97549 10.125 3.47549 9.925 2.87549 9.925H2.00049V4H22.0005V9.925H21.1005C20.5172 9.925 20.0255 10.125 19.6255 10.525C19.2255 10.925 19.0255 11.4167 19.0255 12C19.0255 12.5833 19.2255 13.075 19.6255 13.475C20.0255 13.875 20.5172 14.075 21.1005 14.075H22.0005V20H2.00049V14.075ZM20.5755 18.6V14.65L21.1255 15.475C20.4588 15.475 19.8588 15.325 19.3255 15.025C18.7922 14.7083 18.3672 14.2833 18.0505 13.75C17.7338 13.2167 17.5755 12.6333 17.5755 12C17.5755 11.3667 17.7338 10.7833 18.0505 10.25C18.3672 9.71667 18.7922 9.3 19.3255 9C19.8588 8.68333 20.4588 8.525 21.1255 8.525L20.5755 9.325V5.4H3.42549V9.35L2.87549 8.525C3.52549 8.525 4.11716 8.68333 4.65049 9C5.18382 9.3 5.60882 9.71667 5.92549 10.25C6.24216 10.7833 6.40049 11.3667 6.40049 12C6.40049 12.6333 6.24216 13.2167 5.92549 13.75C5.60882 14.2833 5.18382 14.7083 4.65049 15.025C4.11716 15.325 3.52549 15.475 2.87549 15.475L3.42549 14.65V18.6H20.5755Z" fill="black"/>
</g>
<defs>
<clipPath id="clip0_3191_39532">
<rect width="24" height="24" fill="white"/>
</clipPath>
</defs>
</svg>
