<svg width="24" height="24" viewBox="0 0 24 24" fill="none" xmlns="http://www.w3.org/2000/svg">
<g clip-path="url(#clip0_3191_40390)">
<rect width="24" height="24" fill="white"/>
<path d="M8.25 23C7.55 23 6.95833 22.7583 6.475 22.275C5.99167 21.7917 5.75 21.2 5.75 20.5V3.5C5.75 2.8 5.99167 2.20833 6.475 1.725C6.95833 1.24167 7.55 1 8.25 1H15.75C16.45 1 17.0417 1.24167 17.525 1.725C18.0083 2.20833 18.25 2.8 18.25 3.5V20.5C18.25 21.2 18.0083 21.7917 17.525 22.275C17.0417 22.7583 16.45 23 15.75 23H8.25ZM12 14C12.5667 14 13.0417 13.8083 13.425 13.425C13.8083 13.0417 14 12.5667 14 12C14 11.4333 13.8083 10.9583 13.425 10.575C13.0417 10.1917 12.5667 10 12 10C11.4333 10 10.9583 10.1917 10.575 10.575C10.1917 10.9583 10 11.4333 10 12C10 12.5667 10.1917 13.0417 10.575 13.425C10.9583 13.8083 11.4333 14 12 14ZM12 8.25C12.5833 8.25 13.0583 8.05833 13.425 7.675C13.8083 7.29167 14 6.81667 14 6.25C14 5.66667 13.8083 5.19167 13.425 4.825C13.0583 4.44167 12.5833 4.25 12 4.25C11.4333 4.25 10.9583 4.44167 10.575 4.825C10.1917 5.19167 10 5.66667 10 6.25C10 6.81667 10.1917 7.29167 10.575 7.675C10.9583 8.05833 11.4333 8.25 12 8.25ZM12 19.75C12.5833 19.75 13.0583 19.5583 13.425 19.175C13.8083 18.7917 14 18.3167 14 17.75C14 17.1667 13.8083 16.6917 13.425 16.325C13.0583 15.9417 12.5833 15.75 12 15.75C11.4333 15.75 10.9583 15.9417 10.575 16.325C10.1917 16.6917 10 17.1667 10 17.75C10 18.3167 10.1917 18.7917 10.575 19.175C10.9583 19.5583 11.4333 19.75 12 19.75ZM21 4.275L20.625 7.975H17.175V4.275H21ZM21 10.025L20.625 13.725H17.175V10.025H21ZM21 15.775L20.625 19.475H17.175V15.775H21ZM6.825 4.275V7.975H3.375L3 4.275H6.825ZM6.825 10.025V13.725H3.375L3 10.025H6.825ZM6.825 15.775V19.475H3.375L3 15.775H6.825Z" fill="black"/>
</g>
<defs>
<clipPath id="clip0_3191_40390">
<rect width="24" height="24" fill="white"/>
</clipPath>
</defs>
</svg>
