<svg width="24" height="24" viewBox="0 0 24 24" fill="none" xmlns="http://www.w3.org/2000/svg">
<g clip-path="url(#clip0_3191_40386)">
<rect width="24" height="24" fill="white"/>
<path d="M8.50049 23C7.83382 23 7.21716 22.8333 6.65049 22.5C6.08382 22.1833 5.63382 21.7417 5.30049 21.175C4.98382 20.625 4.82549 20.0083 4.82549 19.325V4.675C4.82549 3.99167 4.98382 3.36667 5.30049 2.8C5.63382 2.23333 6.08382 1.79167 6.65049 1.475C7.21716 1.15833 7.83382 1 8.50049 1H15.5005C16.1672 1 16.7838 1.15833 17.3505 1.475C17.9172 1.79167 18.3588 2.23333 18.6755 2.8C19.0088 3.36667 19.1755 3.99167 19.1755 4.675V19.325C19.1755 20.0083 19.0088 20.625 18.6755 21.175C18.3588 21.7417 17.9172 22.1833 17.3505 22.5C16.7838 22.8333 16.1672 23 15.5005 23H8.50049ZM15.4505 20.075C15.6505 20.075 15.8255 20.0083 15.9755 19.875C16.1255 19.725 16.2005 19.5417 16.2005 19.325V4.675C16.2005 4.45833 16.1255 4.28333 15.9755 4.15C15.8255 4 15.6505 3.925 15.4505 3.925H8.55049C8.33382 3.925 8.15049 4 8.00049 4.15C7.86716 4.28333 7.80049 4.45833 7.80049 4.675V19.325C7.80049 19.5417 7.86716 19.725 8.00049 19.875C8.15049 20.0083 8.33382 20.075 8.55049 20.075H15.4505ZM12.0255 13.85C11.4922 13.85 11.0422 13.6667 10.6755 13.3C10.3255 12.9333 10.1505 12.4917 10.1505 11.975C10.1505 11.4583 10.3255 11.025 10.6755 10.675C11.0422 10.325 11.4838 10.15 12.0005 10.15C12.5338 10.15 12.9755 10.3333 13.3255 10.7C13.6755 11.05 13.8505 11.475 13.8505 11.975C13.8505 12.4917 13.6672 12.9333 13.3005 13.3C12.9505 13.6667 12.5255 13.85 12.0255 13.85ZM12.0005 11.975C11.8338 11.975 11.7088 11.975 11.6255 11.975C11.5422 11.975 11.4172 11.975 11.2505 11.975C11.4172 11.975 11.5422 11.975 11.6255 11.975C11.7088 11.975 11.8338 11.975 12.0005 11.975C12.1838 11.975 12.3088 11.975 12.3755 11.975C12.4588 11.975 12.5922 11.975 12.7755 11.975C12.5922 11.975 12.4588 11.975 12.3755 11.975C12.3088 11.975 12.1838 11.975 12.0005 11.975ZM12.0255 8.975C11.4922 8.975 11.0422 8.8 10.6755 8.45C10.3255 8.08333 10.1505 7.64167 10.1505 7.125C10.1505 6.60833 10.3255 6.175 10.6755 5.825C11.0422 5.45833 11.4838 5.275 12.0005 5.275C12.5338 5.275 12.9755 5.45833 13.3255 5.825C13.6755 6.175 13.8505 6.60833 13.8505 7.125C13.8505 7.64167 13.6672 8.08333 13.3005 8.45C12.9505 8.8 12.5255 8.975 12.0255 8.975ZM12.0005 7.125C11.8338 7.125 11.7088 7.125 11.6255 7.125C11.5422 7.125 11.4172 7.125 11.2505 7.125C11.4172 7.125 11.5422 7.125 11.6255 7.125C11.7088 7.125 11.8338 7.125 12.0005 7.125C12.1838 7.125 12.3088 7.125 12.3755 7.125C12.4588 7.125 12.5922 7.125 12.7755 7.125C12.5922 7.125 12.4588 7.125 12.3755 7.125C12.3088 7.125 12.1838 7.125 12.0005 7.125ZM12.0255 18.725C11.4922 18.725 11.0422 18.55 10.6755 18.2C10.3255 17.8333 10.1505 17.3917 10.1505 16.875C10.1505 16.3583 10.3255 15.925 10.6755 15.575C11.0422 15.2083 11.4838 15.025 12.0005 15.025C12.5338 15.025 12.9755 15.2083 13.3255 15.575C13.6755 15.925 13.8505 16.3583 13.8505 16.875C13.8505 17.3917 13.6672 17.8333 13.3005 18.2C12.9505 18.55 12.5255 18.725 12.0255 18.725ZM12.0005 16.875C11.8338 16.875 11.7088 16.875 11.6255 16.875C11.5422 16.875 11.4172 16.875 11.2505 16.875C11.4172 16.875 11.5422 16.875 11.6255 16.875C11.7088 16.875 11.8338 16.875 12.0005 16.875C12.1838 16.875 12.3088 16.875 12.3755 16.875C12.4588 16.875 12.5922 16.875 12.7755 16.875C12.5922 16.875 12.4588 16.875 12.3755 16.875C12.3088 16.875 12.1838 16.875 12.0005 16.875ZM21.0005 5.025L20.5005 7.775H17.4255V5.025H21.0005ZM21.0005 10.025L20.5005 12.775H17.4255V10.025H21.0005ZM21.0005 15.025L20.5005 17.775H17.4255V15.025H21.0005ZM6.57549 5.025V7.775H3.50049L3.00049 5.025H6.57549ZM6.57549 10.025V12.775H3.50049L3.00049 10.025H6.57549ZM6.57549 15.025V17.775H3.50049L3.00049 15.025H6.57549Z" fill="black"/>
</g>
<defs>
<clipPath id="clip0_3191_40386">
<rect width="24" height="24" fill="white"/>
</clipPath>
</defs>
</svg>
