<svg width="24" height="24" viewBox="0 0 24 24" fill="none" xmlns="http://www.w3.org/2000/svg">
<g clip-path="url(#clip0_3191_40380)">
<rect width="24" height="24" fill="white"/>
<path d="M8.67549 23C7.99216 23 7.36716 22.8333 6.80049 22.5C6.25049 22.1833 5.80882 21.7417 5.47549 21.175C5.15882 20.625 5.00049 20.0083 5.00049 19.325V4.675C5.00049 3.99167 5.15882 3.36667 5.47549 2.8C5.80882 2.23333 6.25049 1.79167 6.80049 1.475C7.36716 1.15833 7.99216 1 8.67549 1H15.3255C16.0088 1 16.6338 1.15833 17.2005 1.475C17.7672 1.79167 18.2088 2.23333 18.5255 2.8C18.8422 3.36667 19.0005 3.99167 19.0005 4.675V19.325C19.0005 20.0083 18.8422 20.625 18.5255 21.175C18.2088 21.7417 17.7672 22.1833 17.2005 22.5C16.6338 22.8333 16.0088 23 15.3255 23H8.67549ZM15.3255 21.625C15.9588 21.625 16.4922 21.4083 16.9255 20.975C17.3588 20.525 17.5755 19.975 17.5755 19.325V4.675C17.5755 4.025 17.3588 3.48333 16.9255 3.05C16.4922 2.6 15.9588 2.375 15.3255 2.375H8.67549C8.04216 2.375 7.50882 2.6 7.07549 3.05C6.64216 3.48333 6.42549 4.025 6.42549 4.675V19.325C6.42549 19.975 6.64216 20.525 7.07549 20.975C7.50882 21.4083 8.04216 21.625 8.67549 21.625H15.3255ZM12.0005 13.15C11.6838 13.15 11.4088 13.0417 11.1755 12.825C10.9588 12.5917 10.8505 12.3167 10.8505 12C10.8505 11.6833 10.9588 11.4167 11.1755 11.2C11.4088 10.9667 11.6838 10.85 12.0005 10.85C12.3172 10.85 12.5838 10.9583 12.8005 11.175C13.0338 11.3917 13.1505 11.6667 13.1505 12C13.1505 12.3167 13.0422 12.5917 12.8255 12.825C12.6088 13.0417 12.3338 13.15 12.0005 13.15ZM12.0005 12C12.0338 12 12.0505 12 12.0505 12C12.0672 12 12.0922 12 12.1255 12C12.0922 12 12.0672 12 12.0505 12C12.0505 12 12.0338 12 12.0005 12C11.9672 12 11.9422 12 11.9255 12C11.9255 12 11.9088 12 11.8755 12C11.9088 12 11.9255 12 11.9255 12C11.9422 12 11.9672 12 12.0005 12ZM12.0005 7.7C11.6838 7.7 11.4088 7.59167 11.1755 7.375C10.9588 7.14167 10.8505 6.86667 10.8505 6.55C10.8505 6.23333 10.9588 5.96667 11.1755 5.75C11.4088 5.51667 11.6838 5.4 12.0005 5.4C12.3172 5.4 12.5838 5.50833 12.8005 5.725C13.0338 5.94167 13.1505 6.21667 13.1505 6.55C13.1505 6.86667 13.0422 7.14167 12.8255 7.375C12.6088 7.59167 12.3338 7.7 12.0005 7.7ZM12.0005 6.55C12.0338 6.55 12.0505 6.55 12.0505 6.55C12.0672 6.55 12.0922 6.55 12.1255 6.55C12.0922 6.55 12.0672 6.55 12.0505 6.55C12.0505 6.55 12.0338 6.55 12.0005 6.55C11.9672 6.55 11.9422 6.55 11.9255 6.55C11.9255 6.55 11.9088 6.55 11.8755 6.55C11.9088 6.55 11.9255 6.55 11.9255 6.55C11.9422 6.55 11.9672 6.55 12.0005 6.55ZM12.0005 18.6C11.6838 18.6 11.4088 18.4917 11.1755 18.275C10.9588 18.0417 10.8505 17.7667 10.8505 17.45C10.8505 17.1333 10.9588 16.8667 11.1755 16.65C11.4088 16.4167 11.6838 16.3 12.0005 16.3C12.3172 16.3 12.5838 16.4083 12.8005 16.625C13.0338 16.8417 13.1505 17.1167 13.1505 17.45C13.1505 17.7667 13.0422 18.0417 12.8255 18.275C12.6088 18.4917 12.3338 18.6 12.0005 18.6ZM12.0005 17.45C12.0338 17.45 12.0505 17.45 12.0505 17.45C12.0672 17.45 12.0922 17.45 12.1255 17.45C12.0922 17.45 12.0672 17.45 12.0505 17.45C12.0505 17.45 12.0338 17.45 12.0005 17.45C11.9672 17.45 11.9422 17.45 11.9255 17.45C11.9255 17.45 11.9088 17.45 11.8755 17.45C11.9088 17.45 11.9255 17.45 11.9255 17.45C11.9422 17.45 11.9672 17.45 12.0005 17.45ZM21.0005 5.025L20.7005 6.4H17.8505V5.025H21.0005ZM21.0005 10.025L20.7005 11.4H17.8505V10.025H21.0005ZM21.0005 15.025L20.7005 16.4H17.8505V15.025H21.0005ZM6.15049 5.025V6.4H3.30049L3.00049 5.025H6.15049ZM6.15049 10.025V11.4H3.30049L3.00049 10.025H6.15049ZM6.15049 15.025V16.4H3.30049L3.00049 15.025H6.15049Z" fill="black"/>
</g>
<defs>
<clipPath id="clip0_3191_40380">
<rect width="24" height="24" fill="white"/>
</clipPath>
</defs>
</svg>
