<svg width="24" height="24" viewBox="0 0 24 24" fill="none" xmlns="http://www.w3.org/2000/svg">
<g clip-path="url(#clip0_3191_38801)">
<rect width="24" height="24" fill="white"/>
<path d="M7.65049 9.1C7.28382 8.88333 7.04216 8.58333 6.92549 8.2C6.82549 7.81667 6.87549 7.44167 7.07549 7.075C7.29216 6.725 7.59216 6.5 7.97549 6.4C8.37549 6.3 8.75049 6.35 9.10049 6.55L13.5255 9.075L12.0505 11.625L7.65049 9.1ZM6.32549 11.75H9.32549V21H6.32549V11.75ZM2.12549 9.075L6.82549 6.325C7.19216 6.125 7.56716 6.08333 7.95049 6.2C8.35049 6.3 8.65049 6.525 8.85049 6.875C9.05049 7.24167 9.10049 7.61667 9.00049 8C8.90049 8.38333 8.66716 8.68333 8.30049 8.9L3.60049 11.625L2.12549 9.075ZM18.5755 21V16.7H15.5755V21H18.5755ZM12.2255 13.55L16.1005 11.3C16.4172 11.1167 16.7588 11.1 17.1255 11.25C17.5088 11.3833 17.7922 11.6167 17.9755 11.95C18.1588 12.2667 18.2255 12.6167 18.1755 13C18.1255 13.3833 17.9422 13.6583 17.6255 13.825L13.7505 16.1L12.2255 13.55ZM7.82549 8.425C7.40882 8.425 7.05882 8.28333 6.77549 8C6.49216 7.7 6.35049 7.35 6.35049 6.95V1.75H9.30049V6.95C9.30049 7.35 9.15049 7.7 8.85049 8C8.56716 8.28333 8.22549 8.425 7.82549 8.425ZM16.7755 14.025C16.4755 13.8583 16.2922 13.5917 16.2255 13.225C16.1588 12.8417 16.2255 12.475 16.4255 12.125C16.6088 11.8083 16.8838 11.5833 17.2505 11.45C17.6172 11.3167 17.9672 11.3333 18.3005 11.5L21.8505 13.575L20.3255 16.1L16.7755 14.025ZM17.0505 13.35C16.6672 13.35 16.3255 13.225 16.0255 12.975C15.7255 12.7083 15.5755 12.4 15.5755 12.05V7.75H18.5255V12.05C18.5255 12.4 18.3672 12.7083 18.0505 12.975C17.7505 13.225 17.4172 13.35 17.0505 13.35Z" fill="black"/>
</g>
<defs>
<clipPath id="clip0_3191_38801">
<rect width="24" height="24" fill="white"/>
</clipPath>
</defs>
</svg>
