<svg width="24" height="24" viewBox="0 0 24 24" fill="none" xmlns="http://www.w3.org/2000/svg">
<g clip-path="url(#clip0_3191_38793)">
<rect width="24" height="24" fill="white"/>
<path d="M7.75049 8C7.61716 7.93333 7.53382 7.84167 7.50049 7.725C7.46716 7.59167 7.48382 7.45833 7.55049 7.325C7.61716 7.20833 7.70882 7.13333 7.82549 7.1C7.95882 7.06667 8.08382 7.08333 8.20049 7.15L13.0255 9.95L12.5505 10.775L7.75049 8ZM7.32549 10.625H8.30049V21H7.32549V10.625ZM2.62549 9.925L7.50049 7.125C7.61716 7.05833 7.73382 7.04167 7.85049 7.075C7.98382 7.10833 8.08382 7.18333 8.15049 7.3C8.21716 7.41667 8.23382 7.54167 8.20049 7.675C8.16716 7.79167 8.09216 7.88333 7.97549 7.95L3.10049 10.775L2.62549 9.925ZM17.0755 21V15.625H17.3755V21H17.0755ZM12.8755 14.45L16.9755 12.075C17.0922 12.0083 17.2088 11.9917 17.3255 12.025C17.4422 12.0583 17.5338 12.1333 17.6005 12.25C17.6672 12.3667 17.6838 12.4917 17.6505 12.625C17.6338 12.7583 17.5672 12.8583 17.4505 12.925L13.3505 15.275L12.8755 14.45ZM7.82549 7.975C7.69216 7.975 7.57549 7.93333 7.47549 7.85C7.39216 7.75 7.35049 7.63333 7.35049 7.5V1.75H8.30049V7.5C8.30049 7.63333 8.25049 7.75 8.15049 7.85C8.06716 7.93333 7.95882 7.975 7.82549 7.975ZM17.0755 13C16.9755 12.9333 16.9088 12.8417 16.8755 12.725C16.8422 12.5917 16.8588 12.4583 16.9255 12.325C16.9922 12.225 17.0838 12.1583 17.2005 12.125C17.3338 12.0917 17.4588 12.1083 17.5755 12.175L21.5255 14.45L21.0255 15.275L17.0755 13ZM17.2005 13.025C17.0838 13.025 16.9755 12.975 16.8755 12.875C16.7755 12.775 16.7255 12.6667 16.7255 12.55V7.75H17.7005V12.55C17.7005 12.6667 17.6505 12.775 17.5505 12.875C17.4672 12.975 17.3505 13.025 17.2005 13.025Z" fill="black"/>
</g>
<defs>
<clipPath id="clip0_3191_38793">
<rect width="24" height="24" fill="white"/>
</clipPath>
</defs>
</svg>
