<svg width="24" height="24" viewBox="0 0 24 24" fill="none" xmlns="http://www.w3.org/2000/svg">
<g clip-path="url(#clip0_3191_38795)">
<rect width="24" height="24" fill="white"/>
<path d="M7.8127 8.275C7.64603 8.175 7.52936 8.03333 7.4627 7.85C7.4127 7.65 7.4377 7.46667 7.5377 7.3C7.62103 7.13333 7.7627 7.025 7.9627 6.975C8.1627 6.925 8.34603 6.95 8.5127 7.05L13.2127 9.775L12.4877 10.975L7.8127 8.275ZM7.1877 10.925H8.6127V21H7.1877V10.925ZM2.5877 9.75L7.4127 6.95C7.59603 6.85 7.77936 6.83333 7.9627 6.9C8.14603 6.96667 8.27936 7.075 8.3627 7.225C8.4627 7.39167 8.4877 7.575 8.4377 7.775C8.40436 7.95833 8.29603 8.1 8.1127 8.2L3.2877 10.95L2.5877 9.75ZM16.6377 21V15.925H17.7377V21H16.6377ZM12.7127 14.25L16.8127 11.875C16.9794 11.7917 17.1544 11.775 17.3377 11.825C17.521 11.875 17.6627 11.9833 17.7627 12.15C17.8627 12.3167 17.8877 12.4917 17.8377 12.675C17.8044 12.8583 17.7044 13 17.5377 13.1L13.4377 15.475L12.7127 14.25ZM7.9127 8.2C7.7127 8.2 7.5377 8.13333 7.3877 8C7.25436 7.85 7.1877 7.68333 7.1877 7.5V1.75H8.6377V7.5C8.6377 7.68333 8.5627 7.85 8.4127 8C8.27936 8.13333 8.1127 8.2 7.9127 8.2ZM17.0127 13.25C16.846 13.1667 16.7294 13.0333 16.6627 12.85C16.6127 12.65 16.6544 12.4583 16.7877 12.275C16.871 12.125 17.0044 12.025 17.1877 11.975C17.371 11.925 17.5627 11.95 17.7627 12.05L21.6127 14.275L20.9127 15.475L17.0127 13.25ZM17.1877 13.275C16.9877 13.275 16.821 13.2083 16.6877 13.075C16.5544 12.9417 16.4877 12.775 16.4877 12.575V7.75H17.9127V12.575C17.9127 12.7583 17.8377 12.925 17.6877 13.075C17.5544 13.2083 17.3877 13.275 17.1877 13.275Z" fill="black"/>
</g>
<defs>
<clipPath id="clip0_3191_38795">
<rect width="24" height="24" fill="white"/>
</clipPath>
</defs>
</svg>
