<svg width="24" height="24" viewBox="0 0 24 24" fill="none" xmlns="http://www.w3.org/2000/svg">
<g clip-path="url(#clip0_3191_38797)">
<rect width="24" height="24" fill="white"/>
<path d="M7.8877 8.55C7.65436 8.41667 7.49603 8.225 7.4127 7.975C7.34603 7.725 7.37936 7.48333 7.5127 7.25C7.62936 7.03333 7.8127 6.89167 8.0627 6.825C8.32936 6.75833 8.57103 6.79167 8.7877 6.925L13.3877 9.6L12.4377 11.175L7.8877 8.55ZM7.0127 11.25H8.9127V21H7.0127V11.25ZM2.5627 9.55L7.3127 6.8C7.54603 6.66667 7.77936 6.64167 8.0127 6.725C8.2627 6.80833 8.44603 6.95 8.5627 7.15C8.69603 7.36667 8.72936 7.6 8.6627 7.85C8.6127 8.1 8.47103 8.29167 8.2377 8.425L3.4877 11.15L2.5627 9.55ZM16.2127 21V16.25H18.1127V21H16.2127ZM12.5377 14.075L16.6377 11.675C16.8544 11.5583 17.0794 11.5333 17.3127 11.6C17.5627 11.6667 17.7544 11.8083 17.8877 12.025C18.021 12.2417 18.0544 12.475 17.9877 12.725C17.9377 12.975 17.8044 13.1667 17.5877 13.3L13.4877 15.675L12.5377 14.075ZM7.9877 8.425C7.72103 8.425 7.49603 8.33333 7.3127 8.15C7.12936 7.96667 7.0377 7.75 7.0377 7.5V1.75H8.9377V7.5C8.9377 7.75 8.8377 7.96667 8.6377 8.15C8.45436 8.33333 8.2377 8.425 7.9877 8.425ZM16.9127 13.5C16.7127 13.3833 16.571 13.2 16.4877 12.95C16.4044 12.7 16.446 12.45 16.6127 12.2C16.7294 12.0167 16.9127 11.8917 17.1627 11.825C17.4127 11.7583 17.6627 11.7917 17.9127 11.925L21.7127 14.1L20.7627 15.675L16.9127 13.5ZM17.1377 13.55C16.8877 13.55 16.671 13.4583 16.4877 13.275C16.3044 13.0917 16.2127 12.875 16.2127 12.625V7.75H18.1127V12.625C18.1127 12.8583 18.0127 13.075 17.8127 13.275C17.6294 13.4583 17.4044 13.55 17.1377 13.55Z" fill="black"/>
</g>
<defs>
<clipPath id="clip0_3191_38797">
<rect width="24" height="24" fill="white"/>
</clipPath>
</defs>
</svg>
