<svg width="24" height="24" viewBox="0 0 24 24" fill="none" xmlns="http://www.w3.org/2000/svg">
<g clip-path="url(#clip0_3204_10852)">
<rect width="24" height="24" fill="white"/>
<path d="M14.35 12.925C14.6833 12.925 14.9667 12.8083 15.2 12.575C15.4333 12.325 15.55 12.0333 15.55 11.7C15.55 11.3667 15.4333 11.0833 15.2 10.85C14.9667 10.6167 14.6833 10.5 14.35 10.5H9.65C9.31667 10.5 9.025 10.6167 8.775 10.85C8.54167 11.0833 8.425 11.3667 8.425 11.7C8.425 12.0333 8.54167 12.325 8.775 12.575C9.025 12.8083 9.31667 12.925 9.65 12.925H14.35ZM1.5 3H22.5V6.075H1.5V3ZM21 21H3V8.075H21V21Z" fill="black"/>
</g>
<defs>
<clipPath id="clip0_3204_10852">
<rect width="24" height="24" fill="white"/>
</clipPath>
</defs>
</svg>
