<svg width="24" height="24" viewBox="0 0 24 24" fill="none" xmlns="http://www.w3.org/2000/svg">
<g clip-path="url(#clip0_3204_10840)">
<rect width="24" height="24" fill="white"/>
<path d="M12.0005 4.3H12.2505H12.0005ZM5.85049 18.2H18.1505V5.8H5.85049V18.2ZM22.5005 5.8H21.0005V21H3.00049V5.8H1.50049V3H22.5005V5.8ZM10.0505 10.95C9.66716 10.95 9.34216 10.8167 9.07549 10.55C8.80882 10.2667 8.67549 9.93333 8.67549 9.55C8.67549 9.16667 8.80882 8.84167 9.07549 8.575C9.34216 8.30833 9.66716 8.175 10.0505 8.175H13.9505C14.3338 8.175 14.6588 8.30833 14.9255 8.575C15.1922 8.84167 15.3255 9.16667 15.3255 9.55C15.3255 9.93333 15.1922 10.2667 14.9255 10.55C14.6588 10.8167 14.3338 10.95 13.9505 10.95H10.0505Z" fill="black"/>
</g>
<defs>
<clipPath id="clip0_3204_10840">
<rect width="24" height="24" fill="white"/>
</clipPath>
</defs>
</svg>
