<svg width="24" height="24" viewBox="0 0 24 24" fill="none" xmlns="http://www.w3.org/2000/svg">
<g clip-path="url(#clip0_3204_10832)">
<rect width="24" height="24" fill="white"/>
<path d="M2.45049 7.075H21.5505V3.925H2.45049V7.075ZM3.95049 20.075H20.0505V8H3.95049V20.075ZM22.5005 8H21.0005V21H3.00049V8H1.50049V3H22.5005V8ZM9.22549 11.925C9.09216 11.925 8.97549 11.8833 8.87549 11.8C8.79216 11.7 8.75049 11.5833 8.75049 11.45C8.75049 11.3167 8.79216 11.2083 8.87549 11.125C8.97549 11.025 9.09216 10.975 9.22549 10.975H14.7755C14.9088 10.975 15.0172 11.0167 15.1005 11.1C15.2005 11.1833 15.2505 11.3 15.2505 11.45C15.2505 11.5833 15.2005 11.7 15.1005 11.8C15.0172 11.8833 14.9088 11.925 14.7755 11.925H9.22549Z" fill="black"/>
</g>
<defs>
<clipPath id="clip0_3204_10832">
<rect width="24" height="24" fill="white"/>
</clipPath>
</defs>
</svg>
