<svg width="24" height="24" viewBox="0 0 24 24" fill="none" xmlns="http://www.w3.org/2000/svg">
<g clip-path="url(#clip0_3395_11879)">
<rect width="24" height="24" fill="white"/>
<path d="M12.0005 4.3H12.2505H12.0005ZM6.70049 17.4H17.3005V6.6H6.70049V17.4ZM22.5005 6.6H21.0005V21H3.00049V6.6H1.50049V3H22.5005V6.6ZM10.2755 12.825C9.74216 12.825 9.29216 12.6417 8.92549 12.275C8.55882 11.9083 8.37549 11.45 8.37549 10.9C8.37549 10.3667 8.55882 9.91667 8.92549 9.55C9.29216 9.18333 9.74216 9 10.2755 9H13.7255C14.2588 9 14.7088 9.18333 15.0755 9.55C15.4422 9.91667 15.6255 10.3667 15.6255 10.9C15.6255 11.45 15.4422 11.9083 15.0755 12.275C14.7088 12.6417 14.2588 12.825 13.7255 12.825H10.2755Z" fill="black"/>
</g>
<defs>
<clipPath id="clip0_3395_11879">
<rect width="24" height="24" fill="white"/>
</clipPath>
</defs>
</svg>
