<svg width="24" height="24" viewBox="0 0 24 24" fill="none" xmlns="http://www.w3.org/2000/svg">
<g clip-path="url(#clip0_3395_11877)">
<rect width="24" height="24" fill="white"/>
<path d="M12.0005 4.3H12.2505H12.0005ZM5.90049 18.175H18.1005V5.825H5.90049V18.175ZM22.5005 5.825H21.0005V21H3.00049V5.825H1.50049V3H22.5005V5.825ZM10.0755 11.575C9.67549 11.575 9.33382 11.4333 9.05049 11.15C8.76716 10.8667 8.62549 10.525 8.62549 10.125C8.62549 9.725 8.76716 9.38333 9.05049 9.1C9.33382 8.81667 9.67549 8.675 10.0755 8.675H13.9255C14.3255 8.675 14.6672 8.81667 14.9505 9.1C15.2338 9.38333 15.3755 9.725 15.3755 10.125C15.3755 10.525 15.2338 10.8667 14.9505 11.15C14.6672 11.4333 14.3255 11.575 13.9255 11.575H10.0755Z" fill="black"/>
</g>
<defs>
<clipPath id="clip0_3395_11877">
<rect width="24" height="24" fill="white"/>
</clipPath>
</defs>
</svg>
