<svg width="24" height="24" viewBox="0 0 24 24" fill="none" xmlns="http://www.w3.org/2000/svg">
<g clip-path="url(#clip0_3204_11552)">
<rect width="24" height="24" fill="white"/>
<path d="M20 22H4V2H10.55C10.55 1.6 10.6917 1.25833 10.975 0.974999C11.2583 0.691666 11.6 0.55 12 0.55C12.4 0.55 12.7417 0.691666 13.025 0.974999C13.3083 1.25833 13.45 1.6 13.45 2H20V22ZM16.125 6.15C16.375 5.9 16.5 5.6 16.5 5.25V4H7.5V5.25C7.5 5.6 7.61667 5.9 7.85 6.15C8.1 6.38333 8.4 6.5 8.75 6.5H15.25C15.6 6.5 15.8917 6.38333 16.125 6.15ZM13.05 9.3H10.95L11.15 14.3H12.85L13.05 9.3ZM12.9 16.075C12.6667 15.825 12.3667 15.7 12 15.7C11.6333 15.7 11.3333 15.825 11.1 16.075C10.8667 16.3083 10.75 16.6083 10.75 16.975C10.75 17.3417 10.8667 17.6417 11.1 17.875C11.3333 18.0917 11.6333 18.2 12 18.2C12.3667 18.2 12.6667 18.0917 12.9 17.875C13.1333 17.6417 13.25 17.3417 13.25 16.975C13.25 16.6083 13.1333 16.3083 12.9 16.075Z" fill="black"/>
</g>
<defs>
<clipPath id="clip0_3204_11552">
<rect width="24" height="24" fill="white"/>
</clipPath>
</defs>
</svg>
