<svg width="24" height="24" viewBox="0 0 24 24" fill="none" xmlns="http://www.w3.org/2000/svg">
<g clip-path="url(#clip0_3204_11852)">
<rect width="24" height="24" fill="white"/>
<path d="M4.00049 2H10.3255C10.3255 1.53333 10.4838 1.14167 10.8005 0.824999C11.1338 0.491666 11.5338 0.324999 12.0005 0.324999C12.4672 0.324999 12.8588 0.491666 13.1755 0.824999C13.5088 1.14167 13.6755 1.53333 13.6755 2H20.0005V22H4.00049V2ZM6.22549 19.825H17.7755V4.175H6.22549V19.825ZM16.1755 5.525C16.1755 6.14167 15.9672 6.65833 15.5505 7.075C15.1338 7.475 14.6172 7.675 14.0005 7.675H10.0005C9.38382 7.675 8.86716 7.475 8.45049 7.075C8.03382 6.65833 7.82549 6.14167 7.82549 5.525V3.925H10.0255V5.5C10.0255 5.5 10.0255 5.50833 10.0255 5.525C10.0422 5.525 10.0588 5.525 10.0755 5.525H13.9255C13.9422 5.525 13.9505 5.525 13.9505 5.525C13.9672 5.50833 13.9755 5.5 13.9755 5.5V3.925H16.1755V5.525ZM12.9255 2.525C12.7088 2.525 12.5505 2.525 12.4505 2.525C12.3505 2.525 12.2005 2.525 12.0005 2.525C11.7838 2.525 11.6255 2.525 11.5255 2.525C11.4255 2.525 11.2755 2.525 11.0755 2.525H12.9255ZM7.65049 12.55L9.35049 10.85L11.2505 12.85L14.6755 9.375L16.3755 11.05L11.2755 16.15L7.65049 12.55Z" fill="black"/>
</g>
<defs>
<clipPath id="clip0_3204_11852">
<rect width="24" height="24" fill="white"/>
</clipPath>
</defs>
</svg>
