<svg width="24" height="24" viewBox="0 0 24 24" fill="none" xmlns="http://www.w3.org/2000/svg">
<g clip-path="url(#clip0_3204_11556)">
<rect width="24" height="24" fill="white"/>
<path d="M20 22H4V2H10.25C10.25 1.51667 10.4167 1.10833 10.75 0.775C11.1 0.424999 11.5167 0.249999 12 0.249999C12.4833 0.249999 12.8917 0.424999 13.225 0.775C13.575 1.10833 13.75 1.51667 13.75 2H20V22ZM12.1 1.875C12.1 1.875 12.1083 1.875 12.125 1.875H11.875C11.8917 1.875 11.9 1.875 11.9 1.875C11.9 1.875 11.9083 1.875 11.925 1.875H12.075C12.0917 1.875 12.1 1.875 12.1 1.875ZM13.625 7.475H10.375L10.65 12.8H13.325L13.625 7.475ZM13.2 14.575C12.9 14.2583 12.5 14.1 12 14.1C11.5167 14.1 11.1167 14.2583 10.8 14.575C10.4833 14.8917 10.325 15.3 10.325 15.8C10.325 16.2833 10.4833 16.6833 10.8 17C11.1167 17.3 11.5167 17.45 12 17.45C12.4833 17.45 12.8833 17.3 13.2 17C13.5167 16.6833 13.675 16.2833 13.675 15.8C13.675 15.3 13.5167 14.8917 13.2 14.575Z" fill="black"/>
</g>
<defs>
<clipPath id="clip0_3204_11556">
<rect width="24" height="24" fill="white"/>
</clipPath>
</defs>
</svg>
