<svg width="24" height="24" viewBox="0 0 24 24" fill="none" xmlns="http://www.w3.org/2000/svg">
<g clip-path="url(#clip0_3204_12100)">
<rect width="24" height="24" fill="white"/>
<path d="M20 22H4V2H10.525C10.525 1.58333 10.6667 1.23333 10.95 0.949999C11.2333 0.666665 11.5833 0.524998 12 0.524998C12.4167 0.524998 12.7667 0.666665 13.05 0.949999C13.3333 1.23333 13.475 1.58333 13.475 2H20V22ZM16.125 6.475C16.375 6.225 16.5 5.925 16.5 5.575V4.325H7.5V5.575C7.5 5.925 7.61667 6.225 7.85 6.475C8.1 6.70833 8.4 6.825 8.75 6.825H15.25C15.6 6.825 15.8917 6.70833 16.125 6.475ZM11.6 9.125L7.9 12.8L11.6 16.475V14.475V13.95H15.625V11.65H11.6V10.65V9.125Z" fill="black"/>
</g>
<defs>
<clipPath id="clip0_3204_12100">
<rect width="24" height="24" fill="white"/>
</clipPath>
</defs>
</svg>
