<svg width="24" height="24" viewBox="0 0 24 24" fill="none" xmlns="http://www.w3.org/2000/svg">
<g clip-path="url(#clip0_3205_12799)">
<rect width="24" height="24" fill="white"/>
<path d="M1.00049 4.5H23.0005V19.5H1.00049V4.5ZM20.0505 16.6V7.4H3.95049V16.6H20.0505ZM2.40049 12H2.15049H2.40049ZM8.55049 5.2V11.075H5.90049V5.2H8.55049ZM8.55049 12.925V18.8H5.90049V12.925H8.55049ZM13.7005 13.125H12.4255L12.1755 14.075H10.3005L10.7255 12L10.3005 9.925H12.1755L12.4755 10.875H13.7005L13.2255 8.3H15.4505L16.2255 10.875H17.5005C17.9172 10.875 18.2505 10.9833 18.5005 11.2C18.7505 11.4 18.8755 11.6667 18.8755 12C18.8755 12.3333 18.7505 12.6083 18.5005 12.825C18.2505 13.025 17.9172 13.125 17.5005 13.125H16.2255L15.4505 15.7H13.2505L13.7005 13.125ZM14.4505 12H15.1755H16.1005C16.1838 12 16.2422 12 16.2755 12C16.3255 12 16.4005 12 16.5005 12C16.4005 12 16.3255 12 16.2755 12C16.2422 12 16.1838 12 16.1005 12H15.1755H14.4505H14.0755H14.5005H13.3755H13.0505H12.7755H13.0505H12.7755H13.0505H13.3755H14.5005H14.0755H14.4505Z" fill="black"/>
</g>
<defs>
<clipPath id="clip0_3205_12799">
<rect width="24" height="24" fill="white"/>
</clipPath>
</defs>
</svg>
