<svg width="24" height="24" viewBox="0 0 24 24" fill="none" xmlns="http://www.w3.org/2000/svg">
<g clip-path="url(#clip0_3205_12793)">
<rect width="24" height="24" fill="white"/>
<path d="M1.00049 5H23.0005V19H1.00049V5ZM21.6005 17.625V6.35H2.40049V17.625H21.6005ZM7.17549 10.55V13.45H5.80049V10.55H7.17549ZM7.17549 5.2V8.725H5.80049V5.2H7.17549ZM7.17549 15.275V18.8H5.80049V15.275H7.17549ZM14.1755 12.625H11.9005L11.4755 14.25H10.3005L10.7255 12L10.3005 9.75H11.4755L11.9005 11.375H14.1755L13.6005 8H14.7755L15.6505 11.375H18.2255C18.5422 11.375 18.7838 11.4333 18.9505 11.55C19.1338 11.65 19.2255 11.8 19.2255 12C19.2255 12.2 19.1338 12.3583 18.9505 12.475C18.7838 12.575 18.5422 12.625 18.2255 12.625H15.6505L14.7755 16H13.6005L14.1755 12.625ZM14.5255 12H15.2255H16.3505C16.4505 12 16.5172 12 16.5505 12C16.5838 12 16.6422 12 16.7255 12C16.6422 12 16.5838 12 16.5505 12C16.5172 12 16.4505 12 16.3505 12H15.2255H14.5255H14.1505H14.5755H13.5255H13.2005H12.9505H13.1755H12.9505H13.2005H13.5255H14.5755H14.1505H14.5255Z" fill="black"/>
</g>
<defs>
<clipPath id="clip0_3205_12793">
<rect width="24" height="24" fill="white"/>
</clipPath>
</defs>
</svg>
