<svg width="24" height="24" viewBox="0 0 24 24" fill="none" xmlns="http://www.w3.org/2000/svg">
<g clip-path="url(#clip0_3205_12797)">
<rect width="24" height="24" fill="white"/>
<path d="M1.00049 4.75H23.0005V19.25H1.00049V4.75ZM20.6005 16.9V7.1H3.40049V16.9H20.6005ZM7.97549 10.55V13.45H5.82549V10.55H7.97549ZM7.97549 5.2V8.55H5.82549V5.2H7.97549ZM7.97549 15.45V18.8H5.82549V15.45H7.97549ZM13.8755 12.975H12.2505L11.9505 14.225H10.2255L10.6505 12L10.2255 9.775H11.9505L12.2755 11.025H13.8755L13.3505 8.075H15.2755L16.1005 11.025H17.8255C18.2255 11.025 18.5422 11.1167 18.7755 11.3C19.0255 11.4667 19.1505 11.7 19.1505 12C19.1505 12.3 19.0255 12.5417 18.7755 12.725C18.5422 12.8917 18.2255 12.975 17.8255 12.975H16.1005L15.2755 15.925H13.3505L13.8755 12.975ZM14.5505 12H15.3005H16.3005C16.4005 12 16.4672 12 16.5005 12C16.5505 12 16.6255 12 16.7255 12C16.6255 12 16.5505 12 16.5005 12C16.4672 12 16.4005 12 16.3005 12H15.3005H14.5505H14.1505H14.6005H13.4255H13.0755H12.7755H13.0505H12.7755H13.0755H13.4255H14.6005H14.1505H14.5505Z" fill="black"/>
</g>
<defs>
<clipPath id="clip0_3205_12797">
<rect width="24" height="24" fill="white"/>
</clipPath>
</defs>
</svg>
