<svg width="24" height="24" viewBox="0 0 24 24" fill="none" xmlns="http://www.w3.org/2000/svg">
<g clip-path="url(#clip0_3205_12811)">
<rect width="24" height="24" fill="white"/>
<path d="M5 19H1V5H5V8.3H7V5H23V19H7V15.7H5V19ZM7 10.05H5V13.95H7V10.05ZM14.175 13L13.675 16.1H15.6L16.4 13H18.25C18.6667 13 18.9917 12.9083 19.225 12.725C19.475 12.5417 19.6 12.3 19.6 12C19.6 11.7 19.475 11.4583 19.225 11.275C18.9917 11.0917 18.6667 11 18.25 11H16.4L15.6 7.9H13.675L14.175 11H12.75L12.4 9.8H10.675L11.1 12L10.675 14.2H12.4L12.725 13H14.175Z" fill="black"/>
</g>
<defs>
<clipPath id="clip0_3205_12811">
<rect width="24" height="24" fill="white"/>
</clipPath>
</defs>
</svg>
