<svg width="24" height="24" viewBox="0 0 24 24" fill="none" xmlns="http://www.w3.org/2000/svg">
<g clip-path="url(#clip0_3204_9866)">
<rect width="24" height="24" fill="white"/>
<path d="M1.00049 5H23.0005V19H1.00049V5ZM22.5005 18.525V5.475H1.50049V18.525H22.5005ZM6.20049 10.55V13.45H5.70049V10.55H6.20049ZM6.20049 5.2V8.8H5.70049V5.2H6.20049ZM6.20049 15.2V18.8H5.70049V15.2H6.20049ZM13.6505 13.15H12.4755L12.1505 14.25H10.2255L10.7005 12L10.2255 9.75H12.1505L12.4755 10.85H13.6505L13.1505 8H15.0755L16.1505 10.85H17.6005C18.1005 10.85 18.4838 10.95 18.7505 11.15C19.0172 11.35 19.1505 11.6333 19.1505 12C19.1505 12.3667 19.0172 12.65 18.7505 12.85C18.4838 13.05 18.1005 13.15 17.6005 13.15H16.1505L15.0755 16H13.1505L13.6505 13.15ZM14.7255 15.55L15.8005 12.7H17.6005C17.9505 12.7 18.2172 12.6417 18.4005 12.525C18.5838 12.4083 18.6755 12.2333 18.6755 12C18.6755 11.7667 18.5838 11.5917 18.4005 11.475C18.2172 11.3583 17.9505 11.3 17.6005 11.3H15.8005L14.7255 8.45H13.7005L14.2005 11.3H12.1255L11.8005 10.2H10.8005L11.1755 12L10.8005 13.8H11.8005L12.1255 12.7H14.2005L13.7005 15.55H14.7255Z" fill="black"/>
</g>
<defs>
<clipPath id="clip0_3204_9866">
<rect width="24" height="24" fill="white"/>
</clipPath>
</defs>
</svg>
