<svg width="24" height="24" viewBox="0 0 24 24" fill="none" xmlns="http://www.w3.org/2000/svg">
<g clip-path="url(#clip0_3205_12795)">
<rect width="24" height="24" fill="white"/>
<path d="M1.00049 5H23.0005V19H1.00049V5ZM21.1505 17.2V6.8H2.85049V17.2H21.1505ZM7.80049 10.55V13.45H6.00049V10.55H7.80049ZM7.80049 5.2V8.55H6.00049V5.2H7.80049ZM7.80049 15.45V18.8H6.00049V15.45H7.80049ZM14.2505 12.8H12.3505L11.9755 14.25H10.4755L10.9005 12L10.4755 9.75H11.9755L12.3505 11.2H14.2505L13.6755 8H15.2005L16.0505 11.2H18.1755C18.5588 11.2 18.8588 11.275 19.0755 11.425C19.2922 11.5583 19.4005 11.75 19.4005 12C19.4005 12.25 19.2922 12.45 19.0755 12.6C18.8588 12.7333 18.5588 12.8 18.1755 12.8H16.0505L15.2005 16H13.6755L14.2505 12.8ZM14.8255 12H15.6005H16.6255C16.7255 12 16.7922 12 16.8255 12C16.8755 12 16.9505 12 17.0505 12C16.9505 12 16.8755 12 16.8255 12C16.7922 12 16.7255 12 16.6255 12H15.6005H14.8255H14.4005H14.8755H13.6755H13.3255H13.0255H13.3005H13.0255H13.3255H13.6755H14.8755H14.4005H14.8255Z" fill="black"/>
</g>
<defs>
<clipPath id="clip0_3205_12795">
<rect width="24" height="24" fill="white"/>
</clipPath>
</defs>
</svg>
