<svg width="24" height="24" viewBox="0 0 24 24" fill="none" xmlns="http://www.w3.org/2000/svg">
<g clip-path="url(#clip0_3205_12791)">
<rect width="24" height="24" fill="white"/>
<path d="M1.00049 5H23.0005V19H1.00049V5ZM22.0505 18.1V5.9H1.95049V18.1H22.0505ZM6.62549 10.55V13.45H5.70049V10.55H6.62549ZM6.62549 5.2V8.8H5.70049V5.2H6.62549ZM6.62549 15.2V18.8H5.70049V15.2H6.62549ZM13.6505 13.325H12.8255L12.5255 14.25H10.2255L10.7005 12L10.2255 9.75H12.5255L12.8255 10.675H13.6505L13.1755 8H15.3505L16.4005 10.675H17.5505C18.0505 10.675 18.4422 10.7917 18.7255 11.025C19.0088 11.2583 19.1505 11.5833 19.1505 12C19.1505 12.4167 19.0088 12.7417 18.7255 12.975C18.4422 13.2083 18.0505 13.325 17.5505 13.325H16.4005L15.3505 16H13.1755L13.6505 13.325ZM14.8005 15.275L15.8255 12.575H17.5505C17.8172 12.575 18.0172 12.525 18.1505 12.425C18.3005 12.325 18.3755 12.1833 18.3755 12C18.3755 11.8167 18.3005 11.675 18.1505 11.575C18.0172 11.475 17.8172 11.425 17.5505 11.425H15.8255L14.8005 8.725H14.0755L14.5755 11.425H12.2505L11.9755 10.475H11.1505L11.4755 12L11.1505 13.525H11.9755L12.2505 12.575H14.5755L14.0755 15.275H14.8005Z" fill="black"/>
</g>
<defs>
<clipPath id="clip0_3205_12791">
<rect width="24" height="24" fill="white"/>
</clipPath>
</defs>
</svg>
