<svg width="24" height="24" viewBox="0 0 24 24" fill="none" xmlns="http://www.w3.org/2000/svg">
<g clip-path="url(#clip0_3204_11628)">
<rect width="24" height="24" fill="white"/>
<path d="M8.575 12.175H15.425V10.675H8.575V12.175ZM5.5 2.025C5.06667 2.025 4.70833 2.16667 4.425 2.45C4.14167 2.73333 4 3.09167 4 3.525C4 3.95833 4.14167 4.31667 4.425 4.6C4.70833 4.88333 5.06667 5.025 5.5 5.025H20V2.025H5.5ZM4 6.075C4.16667 6.20833 4.38333 6.31667 4.65 6.4C4.91667 6.48333 5.2 6.525 5.5 6.525H20V22H5.5C5.08333 22 4.725 21.8583 4.425 21.575C4.14167 21.2917 4 20.9333 4 20.5V6.075Z" fill="black"/>
</g>
<defs>
<clipPath id="clip0_3204_11628">
<rect width="24" height="24" fill="white"/>
</clipPath>
</defs>
</svg>
