<svg width="24" height="24" viewBox="0 0 24 24" fill="none" xmlns="http://www.w3.org/2000/svg">
<g clip-path="url(#clip0_3204_10472)">
<rect width="24" height="24" fill="white"/>
<path d="M4.00049 2H15.4255L20.0005 6.575V22H4.00049V2ZM18.1005 20.15V7.3L14.6755 3.85H5.90049V20.15H18.1005ZM14.5005 8.225H16.1255L15.7755 9.95C15.7088 10.25 15.5672 10.5083 15.3505 10.725C15.1505 10.9417 14.9172 11.05 14.6505 11.05H9.35049C9.08382 11.05 8.84216 10.9417 8.62549 10.725C8.42549 10.5083 8.29216 10.25 8.22549 9.95L7.87549 8.225H9.50049L9.77549 9.575H14.2255L14.5005 8.225ZM16.4005 11.325V12.8H13.4255V11.325H16.4005ZM7.60049 12.8V11.325H10.6505V12.8H7.60049ZM14.6255 13.075C14.9088 13.075 15.1588 13.1917 15.3755 13.425C15.6088 13.6417 15.7588 13.9 15.8255 14.2L16.1255 15.775H14.5005L14.2755 14.55H13.4255V13.075H14.6255ZM10.7005 9.575C10.7005 9.225 10.8255 8.93333 11.0755 8.7C11.3422 8.45 11.6505 8.325 12.0005 8.325C12.3505 8.325 12.6505 8.45 12.9005 8.7C13.1672 8.93333 13.3005 9.225 13.3005 9.575V9.9H10.7005V9.575ZM9.72549 14.55L9.50049 15.775H7.87549L8.17549 14.2C8.24216 13.9 8.38382 13.6417 8.60049 13.425C8.83382 13.1917 9.09216 13.075 9.37549 13.075H10.6505V14.55H9.72549ZM9.77549 10.275H11.4005V13.25C11.4005 13.4333 11.4505 13.575 11.5505 13.675C11.6672 13.775 11.8172 13.825 12.0005 13.825C12.1838 13.825 12.3255 13.775 12.4255 13.675C12.5422 13.575 12.6005 13.4333 12.6005 13.25V10.275H14.2255V13.25C14.2255 13.8333 14.0088 14.325 13.5755 14.725C13.1422 15.1083 12.6172 15.3 12.0005 15.3C11.3838 15.3 10.8588 15.1083 10.4255 14.725C9.99216 14.325 9.77549 13.8333 9.77549 13.25V10.275Z" fill="black"/>
</g>
<defs>
<clipPath id="clip0_3204_10472">
<rect width="24" height="24" fill="white"/>
</clipPath>
</defs>
</svg>
