<svg width="24" height="24" viewBox="0 0 24 24" fill="none" xmlns="http://www.w3.org/2000/svg">
<g clip-path="url(#clip0_3204_10480)">
<rect width="24" height="24" fill="white"/>
<path d="M20 22H4V2H15.425L20 6.575V22ZM8.125 14C8.025 14.0833 7.96667 14.1917 7.95 14.325L7.625 16.05H8.125L8.45 14.325H9.925C10.1083 14.725 10.3833 15.05 10.75 15.3C11.1167 15.55 11.5333 15.675 12 15.675C12.4667 15.675 12.8833 15.55 13.25 15.3C13.6167 15.05 13.8917 14.725 14.075 14.325H15.55L15.875 16.05H16.375L16.05 14.325C16.0333 14.1917 15.975 14.0833 15.875 14C15.775 13.9 15.6667 13.85 15.55 13.85H14.225C14.2583 13.6833 14.275 13.5333 14.275 13.4V12.075H16.65V11.6H14.275V9.825H15.6C15.7167 9.825 15.825 9.78333 15.925 9.7C16.025 9.6 16.0833 9.48333 16.1 9.35L16.375 8H15.875L15.6 9.35H13.4C13.4 8.96667 13.2583 8.64167 12.975 8.375C12.7083 8.09167 12.3833 7.95 12 7.95C11.6167 7.95 11.2833 8.09167 11 8.375C10.7333 8.64167 10.6 8.96667 10.6 9.35H8.4L8.125 8H7.625L7.9 9.35C7.91667 9.48333 7.975 9.6 8.075 9.7C8.175 9.78333 8.28333 9.825 8.4 9.825H9.725V11.6H7.35V12.075H9.725V13.4C9.725 13.5333 9.74167 13.6833 9.775 13.85H8.45C8.33333 13.85 8.225 13.9 8.125 14Z" fill="black"/>
</g>
<defs>
<clipPath id="clip0_3204_10480">
<rect width="24" height="24" fill="white"/>
</clipPath>
</defs>
</svg>
