<svg width="24" height="24" viewBox="0 0 24 24" fill="none" xmlns="http://www.w3.org/2000/svg">
<g clip-path="url(#clip0_3204_10476)">
<rect width="24" height="24" fill="white"/>
<path d="M4.00049 2H15.4255L20.0005 6.575V22H4.00049V2ZM17.1005 19.15V7.725L14.2255 4.85H6.90049V19.15H17.1005ZM14.1755 8.425H15.9505L15.7005 9.675C15.6172 10.0917 15.4422 10.4167 15.1755 10.65C14.9088 10.8833 14.5838 11 14.2005 11H9.80049C9.41716 11 9.09216 10.8833 8.82549 10.65C8.55882 10.4167 8.38382 10.0917 8.30049 9.675L8.05049 8.425H9.82549L10.0005 9.4H14.0005L14.1755 8.425ZM16.1505 11.125V12.975H13.0005V11.125H16.1505ZM7.85049 12.975V11.125H11.0505V12.975H7.85049ZM14.1755 13.125C14.5922 13.125 14.9422 13.2417 15.2255 13.475C15.5088 13.7083 15.6838 14.0333 15.7505 14.45L15.9505 15.55H14.1755L14.0005 14.7H12.8005V13.125H14.1755ZM10.9255 9.2C10.9255 8.91667 11.0255 8.69167 11.2255 8.525C11.4255 8.34167 11.6838 8.25 12.0005 8.25C12.3172 8.25 12.5755 8.34167 12.7755 8.525C12.9755 8.69167 13.0755 8.91667 13.0755 9.2V10.2H10.9255V9.2ZM10.0005 14.7L9.82549 15.55H8.05049L8.25049 14.45C8.31716 14.0333 8.49216 13.7083 8.77549 13.475C9.05882 13.2417 9.40882 13.125 9.82549 13.125H11.2005V14.7H10.0005ZM10.7505 10.375H11.1005H11.4505C11.5672 10.375 11.6505 10.375 11.7005 10.375C11.7672 10.375 11.8588 10.375 11.9755 10.375C12.1088 10.375 12.2005 10.375 12.2505 10.375C12.3172 10.375 12.4172 10.375 12.5505 10.375H12.8505H13.2505V14.025C13.2505 14.3917 13.1255 14.7 12.8755 14.95C12.6422 15.1833 12.3505 15.3 12.0005 15.3C11.6505 15.3 11.3505 15.1833 11.1005 14.95C10.8672 14.7 10.7505 14.3917 10.7505 14.025V10.375Z" fill="black"/>
</g>
<defs>
<clipPath id="clip0_3204_10476">
<rect width="24" height="24" fill="white"/>
</clipPath>
</defs>
</svg>
