<svg width="24" height="24" viewBox="0 0 24 24" fill="none" xmlns="http://www.w3.org/2000/svg">
<g clip-path="url(#clip0_3204_10478)">
<rect width="24" height="24" fill="white"/>
<path d="M4.00049 2H15.4255L20.0005 6.575V22H4.00049V2ZM16.4505 18.5V8L13.9505 5.5H7.55049V18.5H16.4505ZM13.6005 8.475H15.7505L15.5755 9.325C15.4588 9.94167 15.2588 10.3833 14.9755 10.65C14.7088 10.9167 14.3255 11.05 13.8255 11.05H10.1755C9.67549 11.05 9.28382 10.9167 9.00049 10.65C8.73382 10.3833 8.54216 9.94167 8.42549 9.325L8.25049 8.475H10.3755L10.5005 9.2H13.5005L13.6005 8.475ZM15.7755 11.05V13.15H13.2255V11.05H15.7755ZM8.22549 13.15V11.05H10.8255V13.15H8.22549ZM13.8255 13.15C14.3422 13.15 14.7422 13.3 15.0255 13.6C15.3255 13.9 15.5172 14.3167 15.6005 14.85L15.7505 15.575H13.6255L13.5005 14.975H12.5755V13.15H13.8255ZM10.8255 9.45C10.8255 9.11667 10.9338 8.85 11.1505 8.65C11.3672 8.43333 11.6505 8.325 12.0005 8.325C12.3505 8.325 12.6338 8.43333 12.8505 8.65C13.0672 8.85 13.1755 9.11667 13.1755 9.45V10.5H10.8255V9.45ZM10.5005 14.975L10.3755 15.575H8.25049L8.40049 14.85C8.48382 14.3167 8.66716 13.9 8.95049 13.6C9.25049 13.3 9.65882 13.15 10.1755 13.15H11.2755V14.975H10.5005ZM10.7005 10.425H10.9505H11.3005C11.4505 10.425 11.5588 10.425 11.6255 10.425C11.6922 10.425 11.8005 10.425 11.9505 10.425C12.1172 10.425 12.2422 10.425 12.3255 10.425C12.4088 10.425 12.5338 10.425 12.7005 10.425H12.9255H13.3005V14.275C13.3005 14.6417 13.1755 14.95 12.9255 15.2C12.6755 15.45 12.3672 15.575 12.0005 15.575C11.6338 15.575 11.3255 15.45 11.0755 15.2C10.8255 14.95 10.7005 14.6417 10.7005 14.275V10.425Z" fill="black"/>
</g>
<defs>
<clipPath id="clip0_3204_10478">
<rect width="24" height="24" fill="white"/>
</clipPath>
</defs>
</svg>
