<svg width="24" height="24" viewBox="0 0 24 24" fill="none" xmlns="http://www.w3.org/2000/svg">
<g clip-path="url(#clip0_3204_10760)">
<rect width="24" height="24" fill="white"/>
<path d="M7.17549 19.025C7.55882 19.025 7.90882 18.9333 8.22549 18.75C8.54216 18.55 8.79216 18.2917 8.97549 17.975C9.17549 17.6417 9.27549 17.2917 9.27549 16.925C9.27549 16.525 9.17549 16.1667 8.97549 15.85C8.79216 15.5167 8.54216 15.2583 8.22549 15.075C7.90882 14.875 7.55882 14.775 7.17549 14.775C6.77549 14.775 6.40882 14.875 6.07549 15.075C5.75882 15.2583 5.50049 15.5167 5.30049 15.85C5.11716 16.1667 5.02549 16.525 5.02549 16.925C5.02549 17.2917 5.11716 17.6417 5.30049 17.975C5.50049 18.2917 5.75882 18.55 6.07549 18.75C6.40882 18.9333 6.77549 19.025 7.17549 19.025ZM7.17549 21.25C6.37549 21.25 5.63382 21.0583 4.95049 20.675C4.28382 20.275 3.75049 19.75 3.35049 19.1C2.95049 18.4333 2.75049 17.7083 2.75049 16.925C2.75049 16.1083 2.95049 15.3667 3.35049 14.7C3.75049 14.0333 4.28382 13.5083 4.95049 13.125C5.63382 12.7417 6.37549 12.55 7.17549 12.55C7.95882 12.55 8.68382 12.7417 9.35049 13.125C10.0338 13.5083 10.5672 14.0333 10.9505 14.7C11.3505 15.3667 11.5505 16.1083 11.5505 16.925C11.5505 17.7083 11.3505 18.4333 10.9505 19.1C10.5672 19.75 10.0338 20.275 9.35049 20.675C8.68382 21.0583 7.95882 21.25 7.17549 21.25ZM21.0005 3V4.675L14.6505 11L9.77549 6.125L4.42549 11.25L2.75049 9.575L9.80049 2.775L14.6505 7.65L19.3255 3H21.0005ZM16.6505 15V21H14.2005V15H16.6505ZM21.0005 12V21H18.5255V12H21.0005ZM20.6005 16.725V19.225H20.0755V16.725H20.6005Z" fill="black"/>
</g>
<defs>
<clipPath id="clip0_3204_10760">
<rect width="24" height="24" fill="white"/>
</clipPath>
</defs>
</svg>
