<svg width="24" height="24" viewBox="0 0 24 24" fill="none" xmlns="http://www.w3.org/2000/svg">
<g clip-path="url(#clip0_3204_10764)">
<rect width="24" height="24" fill="white"/>
<path d="M7.10049 18.3C7.33382 18.3 7.54216 18.2417 7.72549 18.125C7.92549 18.0083 8.08382 17.85 8.20049 17.65C8.31716 17.45 8.37549 17.2333 8.37549 17C8.37549 16.7667 8.31716 16.55 8.20049 16.35C8.08382 16.1333 7.92549 15.9667 7.72549 15.85C7.52549 15.7333 7.30882 15.675 7.07549 15.675C6.84216 15.675 6.61716 15.7333 6.40049 15.85C6.20049 15.9667 6.04216 16.1333 5.92549 16.35C5.80882 16.55 5.75049 16.7667 5.75049 17C5.75049 17.2333 5.80882 17.45 5.92549 17.65C6.04216 17.85 6.20049 18.0083 6.40049 18.125C6.61716 18.2417 6.85049 18.3 7.10049 18.3ZM7.07549 21.25C6.29216 21.25 5.56716 21.0583 4.90049 20.675C4.25049 20.2917 3.72549 19.775 3.32549 19.125C2.94216 18.475 2.75049 17.7667 2.75049 17C2.75049 16.2167 2.94216 15.5 3.32549 14.85C3.72549 14.2 4.25049 13.6833 4.90049 13.3C5.56716 12.9167 6.29216 12.725 7.07549 12.725C7.84216 12.725 8.55049 12.9167 9.20049 13.3C9.86716 13.6833 10.3922 14.2 10.7755 14.85C11.1755 15.5 11.3755 16.2167 11.3755 17C11.3755 17.7667 11.1755 18.475 10.7755 19.125C10.3922 19.775 9.86716 20.2917 9.20049 20.675C8.55049 21.0583 7.84216 21.25 7.07549 21.25ZM21.0005 3V5.4L14.2005 12.1L9.75049 7.65L5.22549 12.025L2.75049 9.55L9.80049 2.75L14.2255 7.175L18.4505 3H21.0005ZM16.0755 15V21H12.5755V15H16.0755ZM21.0005 12V21H17.5005V12H21.0005ZM20.6005 16.725V19.225H20.0755V16.725H20.6005Z" fill="black"/>
</g>
<defs>
<clipPath id="clip0_3204_10764">
<rect width="24" height="24" fill="white"/>
</clipPath>
</defs>
</svg>
