<svg width="24" height="24" viewBox="0 0 24 24" fill="none" xmlns="http://www.w3.org/2000/svg">
<g clip-path="url(#clip0_3204_10762)">
<rect width="24" height="24" fill="white"/>
<path d="M7.12549 18.6C7.40882 18.6 7.67549 18.525 7.92549 18.375C8.19216 18.225 8.40049 18.025 8.55049 17.775C8.70049 17.525 8.77549 17.25 8.77549 16.95C8.77549 16.65 8.70049 16.375 8.55049 16.125C8.40049 15.8583 8.19216 15.65 7.92549 15.5C7.67549 15.35 7.40882 15.275 7.12549 15.275C6.82549 15.275 6.54216 15.35 6.27549 15.5C6.02549 15.65 5.82549 15.8583 5.67549 16.125C5.52549 16.375 5.45049 16.65 5.45049 16.95C5.45049 17.25 5.52549 17.525 5.67549 17.775C5.82549 18.025 6.02549 18.225 6.27549 18.375C6.52549 18.525 6.80882 18.6 7.12549 18.6ZM7.12549 21.25C6.32549 21.25 5.59216 21.0583 4.92549 20.675C4.25882 20.2917 3.72549 19.775 3.32549 19.125C2.94216 18.4583 2.75049 17.7333 2.75049 16.95C2.75049 16.1667 2.94216 15.45 3.32549 14.8C3.72549 14.1333 4.25882 13.6083 4.92549 13.225C5.59216 12.825 6.32549 12.625 7.12549 12.625C7.90882 12.625 8.62549 12.8167 9.27549 13.2C9.94216 13.5833 10.4755 14.1083 10.8755 14.775C11.2755 15.4417 11.4755 16.1667 11.4755 16.95C11.4755 17.7333 11.2755 18.4583 10.8755 19.125C10.4755 19.775 9.94216 20.2917 9.27549 20.675C8.62549 21.0583 7.90882 21.25 7.12549 21.25ZM21.0005 3V5.075L14.4255 11.575L9.77549 6.925L4.80049 11.675L2.75049 9.625L9.80049 2.825L14.4505 7.45L18.9255 3H21.0005ZM16.4255 15V21H13.3755V15H16.4255ZM21.0005 12V21H17.9755V12H21.0005ZM20.6005 16.725V19.225H20.0755V16.725H20.6005Z" fill="black"/>
</g>
<defs>
<clipPath id="clip0_3204_10762">
<rect width="24" height="24" fill="white"/>
</clipPath>
</defs>
</svg>
