<svg width="24" height="24" viewBox="0 0 24 24" fill="none" xmlns="http://www.w3.org/2000/svg">
<g clip-path="url(#clip0_3204_10762)">
<rect width="24" height="24" fill="white"/>
<path d="M7.12549 18.675C7.44216 18.675 7.72549 18.6 7.97549 18.45C8.24216 18.3 8.45049 18.0917 8.60049 17.825C8.76716 17.5583 8.85049 17.2667 8.85049 16.95C8.85049 16.6333 8.76716 16.3417 8.60049 16.075C8.45049 15.8083 8.24216 15.6 7.97549 15.45C7.72549 15.2833 7.44216 15.2 7.12549 15.2C6.80882 15.2 6.50882 15.2833 6.22549 15.45C5.95882 15.6 5.75049 15.8083 5.60049 16.075C5.45049 16.3417 5.37549 16.6417 5.37549 16.975C5.37549 17.275 5.45049 17.5583 5.60049 17.825C5.76716 18.0917 5.98382 18.3 6.25049 18.45C6.51715 18.6 6.80882 18.675 7.12549 18.675ZM7.12549 21.25C6.32549 21.25 5.59216 21.0583 4.92549 20.675C4.25882 20.2917 3.72549 19.775 3.32549 19.125C2.94216 18.4583 2.75049 17.7333 2.75049 16.95C2.75049 16.1667 2.94216 15.45 3.32549 14.8C3.72549 14.1333 4.25882 13.6083 4.92549 13.225C5.59216 12.825 6.32549 12.625 7.12549 12.625C7.90882 12.625 8.62549 12.8167 9.27549 13.2C9.94216 13.5833 10.4755 14.1083 10.8755 14.775C11.2755 15.4417 11.4755 16.1667 11.4755 16.95C11.4755 17.7333 11.2755 18.4583 10.8755 19.125C10.4755 19.775 9.94216 20.2917 9.27549 20.675C8.62549 21.0583 7.90882 21.25 7.12549 21.25ZM21.0005 3V5.025L14.4255 11.55L9.77549 6.875L4.82549 11.625L2.75049 9.55L9.80049 2.75L14.4505 7.4L18.8755 3H21.0005ZM16.3505 15V21H13.3755V15H16.3505ZM21.0005 12V21H18.0255V12H21.0005ZM20.6005 16.725V19.225H20.0755V16.725H20.6005Z" fill="black"/>
</g>
<defs>
<clipPath id="clip0_3204_10762">
<rect width="24" height="24" fill="white"/>
</clipPath>
</defs>
</svg>
