<svg width="24" height="24" viewBox="0 0 24 24" fill="none" xmlns="http://www.w3.org/2000/svg">
<g clip-path="url(#clip0_3205_12843)">
<rect width="24" height="24" fill="white"/>
<path d="M14.0005 23.5C13.1005 23.5 12.2672 23.275 11.5005 22.825C10.7338 22.375 10.1255 21.7667 9.67549 21C9.22549 20.2333 9.00049 19.4 9.00049 18.5V8.5C9.00049 7.96667 9.13382 7.46667 9.40049 7C9.66716 6.53333 10.0338 6.16667 10.5005 5.9C10.9672 5.63333 11.4672 5.5 12.0005 5.5C12.5338 5.5 13.0338 5.63333 13.5005 5.9C13.9672 6.16667 14.3338 6.53333 14.6005 7C14.8672 7.46667 15.0005 7.96667 15.0005 8.5V18.325H14.0505V8.5C14.0505 7.93333 13.8505 7.45 13.4505 7.05C13.0505 6.63333 12.5672 6.425 12.0005 6.425C11.4338 6.425 10.9505 6.63333 10.5505 7.05C10.1505 7.45 9.95049 7.93333 9.95049 8.5V18.5C9.95049 19.2333 10.1338 19.9167 10.5005 20.55C10.8672 21.1667 11.3588 21.6583 11.9755 22.025C12.5922 22.3917 13.2672 22.575 14.0005 22.575C14.7338 22.575 15.4088 22.3917 16.0255 22.025C16.6422 21.6583 17.1338 21.1667 17.5005 20.55C17.8672 19.9167 18.0505 19.2333 18.0505 18.5V7.5C18.0505 6.4 17.7755 5.38333 17.2255 4.45C16.6922 3.51667 15.9588 2.78333 15.0255 2.25C14.1088 1.7 13.1005 1.425 12.0005 1.425C10.9005 1.425 9.88382 1.7 8.95049 2.25C8.03382 2.78333 7.30049 3.51667 6.75049 4.45C6.21716 5.38333 5.95049 6.4 5.95049 7.5V18.325H5.00049V7.5C5.00049 6.23333 5.30882 5.06667 5.92549 4C6.55882 2.91667 7.40882 2.06667 8.47549 1.45C9.55882 0.816665 10.7338 0.499999 12.0005 0.499999C13.2672 0.499999 14.4338 0.816665 15.5005 1.45C16.5838 2.06667 17.4338 2.91667 18.0505 4C18.6838 5.06667 19.0005 6.23333 19.0005 7.5V18.5C19.0005 19.4 18.7755 20.2333 18.3255 21C17.8755 21.7667 17.2672 22.375 16.5005 22.825C15.7338 23.275 14.9005 23.5 14.0005 23.5Z" fill="black"/>
</g>
<defs>
<clipPath id="clip0_3205_12843">
<rect width="24" height="24" fill="white"/>
</clipPath>
</defs>
</svg>
