<svg width="24" height="24" viewBox="0 0 24 24" fill="none" xmlns="http://www.w3.org/2000/svg">
<g clip-path="url(#clip0_3204_11372)">
<rect width="24" height="24" fill="white"/>
<path d="M14.825 7.6C15.2583 7.6 15.6167 7.45833 15.9 7.175C16.1833 6.875 16.325 6.51667 16.325 6.1V4.425H7.675V6.1C7.675 6.51667 7.81667 6.875 8.1 7.175C8.4 7.45833 8.75833 7.6 9.175 7.6H14.825ZM4 2H10.325C10.3417 1.53333 10.5083 1.14167 10.825 0.824999C11.1417 0.508332 11.5333 0.349999 12 0.349999C12.4667 0.349999 12.8583 0.508332 13.175 0.824999C13.4917 1.14167 13.6583 1.53333 13.675 2H20V22H4V2Z" fill="black"/>
</g>
<defs>
<clipPath id="clip0_3204_11372">
<rect width="24" height="24" fill="white"/>
</clipPath>
</defs>
</svg>
