<svg width="24" height="24" viewBox="0 0 24 24" fill="none" xmlns="http://www.w3.org/2000/svg">
<g clip-path="url(#clip0_3205_12849)">
<rect width="24" height="24" fill="white"/>
<path d="M14.0755 23.325C13.0922 23.325 12.1838 23.0833 11.3505 22.6C10.5338 22.1333 9.88382 21.4917 9.40049 20.675C8.93382 19.8417 8.70049 18.9333 8.70049 17.95V9.075C8.70049 8.45833 8.84216 7.9 9.12549 7.4C9.42549 6.9 9.82549 6.5 10.3255 6.2C10.8422 5.9 11.4005 5.75 12.0005 5.75C12.6005 5.75 13.1505 5.9 13.6505 6.2C14.1672 6.5 14.5672 6.9 14.8505 7.4C15.1505 7.9 15.3005 8.45833 15.3005 9.075V17.65H12.9755V9.075C12.9755 8.775 12.8755 8.525 12.6755 8.325C12.4922 8.125 12.2672 8.025 12.0005 8.025C11.7338 8.025 11.5005 8.125 11.3005 8.325C11.1172 8.525 11.0255 8.775 11.0255 9.075V17.95C11.0255 18.5167 11.1588 19.0417 11.4255 19.525C11.6922 20.0083 12.0588 20.3833 12.5255 20.65C12.9922 20.9167 13.5088 21.05 14.0755 21.05C14.6422 21.05 15.1588 20.9167 15.6255 20.65C16.1088 20.3833 16.4838 20.0083 16.7505 19.525C17.0338 19.0417 17.1755 18.5167 17.1755 17.95V8.175C17.1755 7.20833 16.9422 6.325 16.4755 5.525C16.0255 4.725 15.4005 4.1 14.6005 3.65C13.8172 3.18333 12.9505 2.95 12.0005 2.95C11.0505 2.95 10.1755 3.18333 9.37549 3.65C8.59216 4.1 7.96716 4.725 7.50049 5.525C7.05049 6.325 6.82549 7.20833 6.82549 8.175V17.65H4.50049V8.175C4.50049 6.79167 4.83382 5.525 5.50049 4.375C6.16716 3.225 7.06716 2.325 8.20049 1.675C9.35049 1.00833 10.6172 0.674999 12.0005 0.674999C13.3838 0.674999 14.6422 1.00833 15.7755 1.675C16.9255 2.325 17.8338 3.225 18.5005 4.375C19.1672 5.525 19.5005 6.79167 19.5005 8.175V17.95C19.5005 18.9333 19.2588 19.8417 18.7755 20.675C18.2922 21.4917 17.6338 22.1333 16.8005 22.6C15.9672 23.0833 15.0588 23.325 14.0755 23.325Z" fill="black"/>
</g>
<defs>
<clipPath id="clip0_3205_12849">
<rect width="24" height="24" fill="white"/>
</clipPath>
</defs>
</svg>
