<svg width="24" height="24" viewBox="0 0 24 24" fill="none" xmlns="http://www.w3.org/2000/svg">
<g clip-path="url(#clip0_3205_12853)">
<rect width="24" height="24" fill="white"/>
<path d="M14.2005 23C13.0838 23 12.0505 22.725 11.1005 22.175C10.1672 21.6417 9.42549 20.9083 8.87549 19.975C8.34216 19.025 8.07549 17.9917 8.07549 16.875V10.2C8.07549 9.48333 8.25049 8.825 8.60049 8.225C8.95049 7.625 9.42549 7.15 10.0255 6.8C10.6255 6.45 11.2838 6.275 12.0005 6.275C12.7172 6.275 13.3755 6.45 13.9755 6.8C14.5755 7.15 15.0505 7.625 15.4005 8.225C15.7505 8.825 15.9255 9.48333 15.9255 10.2V16.925H12.6505V10.2C12.6505 10 12.5838 9.83333 12.4505 9.7C12.3338 9.56667 12.1838 9.5 12.0005 9.5C11.8172 9.5 11.6588 9.56667 11.5255 9.7C11.4088 9.83333 11.3505 10 11.3505 10.2V16.875C11.3505 17.4083 11.4755 17.9 11.7255 18.35C11.9755 18.8 12.3172 19.15 12.7505 19.4C13.1838 19.65 13.6672 19.775 14.2005 19.775C14.7672 19.775 15.2755 19.65 15.7255 19.4C16.1922 19.15 16.5588 18.8 16.8255 18.35C17.0922 17.9 17.2255 17.4083 17.2255 16.875V9.5C17.2255 8.51667 16.9922 7.625 16.5255 6.825C16.0755 6.025 15.4505 5.39167 14.6505 4.925C13.8505 4.45833 12.9672 4.225 12.0005 4.225C11.0338 4.225 10.1505 4.45833 9.35049 4.925C8.55049 5.39167 7.91716 6.025 7.45049 6.825C7.00049 7.625 6.77549 8.51667 6.77549 9.5V16.925H3.50049V9.5C3.50049 7.93333 3.87549 6.50833 4.62549 5.225C5.39216 3.925 6.41716 2.9 7.70049 2.15C9.00049 1.38333 10.4338 1 12.0005 1C13.5672 1 14.9922 1.38333 16.2755 2.15C17.5755 2.9 18.6005 3.925 19.3505 5.225C20.1172 6.50833 20.5005 7.93333 20.5005 9.5V16.875C20.5005 17.9917 20.2172 19.025 19.6505 19.975C19.1005 20.9083 18.3422 21.6417 17.3755 22.175C16.4088 22.725 15.3505 23 14.2005 23Z" fill="black"/>
</g>
<defs>
<clipPath id="clip0_3205_12853">
<rect width="24" height="24" fill="white"/>
</clipPath>
</defs>
</svg>
