<svg width="24" height="24" viewBox="0 0 24 24" fill="none" xmlns="http://www.w3.org/2000/svg">
<g clip-path="url(#clip0_3204_11360)">
<rect width="24" height="24" fill="white"/>
<path d="M4.00049 2H10.1755C10.1755 1.48333 10.3505 1.05 10.7005 0.699999C11.0505 0.349999 11.4838 0.174998 12.0005 0.174998C12.5172 0.174998 12.9505 0.349999 13.3005 0.699999C13.6505 1.05 13.8255 1.48333 13.8255 2H20.0005V22H4.00049V2ZM6.85049 19.2H17.1505V4.8H6.85049V19.2ZM15.0505 5.15C15.0505 5.61667 14.8838 6.01667 14.5505 6.35C14.2338 6.66667 13.8422 6.825 13.3755 6.825H10.6255C10.1588 6.825 9.75882 6.66667 9.42549 6.35C9.10882 6.01667 8.95049 5.61667 8.95049 5.15V3.125H11.2255V3.825C11.2255 3.875 11.2422 3.91667 11.2755 3.95C11.3088 3.96667 11.3422 3.975 11.3755 3.975H12.6255C12.6588 3.975 12.6922 3.96667 12.7255 3.95C12.7588 3.91667 12.7755 3.875 12.7755 3.825V3.125H15.0505V5.15ZM12.9255 2.7C12.7088 2.7 12.5505 2.7 12.4505 2.7C12.3505 2.7 12.2005 2.7 12.0005 2.7C11.7838 2.7 11.6255 2.7 11.5255 2.7C11.4255 2.7 11.2755 2.7 11.0755 2.7H12.9255Z" fill="black"/>
</g>
<defs>
<clipPath id="clip0_3204_11360">
<rect width="24" height="24" fill="white"/>
</clipPath>
</defs>
</svg>
