<svg width="24" height="24" viewBox="0 0 24 24" fill="none" xmlns="http://www.w3.org/2000/svg">
<g clip-path="url(#clip0_3204_10156)">
<rect width="24" height="24" fill="white"/>
<path d="M4.00049 2H15.4255L20.0005 6.575V22H4.00049V2ZM19.0255 21.075V6.925L15.0505 2.925H4.97549V21.075H19.0255ZM15.0005 19.275C14.3672 19.275 13.8338 19.0583 13.4005 18.625C12.9672 18.1917 12.7505 17.6583 12.7505 17.025C12.7505 16.4083 12.9672 15.8833 13.4005 15.45C13.8338 15.0167 14.3672 14.8 15.0005 14.8C15.6338 14.8 16.1672 15.0167 16.6005 15.45C17.0338 15.8833 17.2505 16.4083 17.2505 17.025C17.2505 17.6583 17.0338 18.1917 16.6005 18.625C16.1672 19.0583 15.6338 19.275 15.0005 19.275ZM15.0005 18.4C15.3838 18.4 15.7088 18.2667 15.9755 18C16.2422 17.7333 16.3755 17.4083 16.3755 17.025C16.3755 16.6417 16.2422 16.3167 15.9755 16.05C15.7088 15.7833 15.3838 15.65 15.0005 15.65C14.6172 15.65 14.2922 15.7833 14.0255 16.05C13.7588 16.3167 13.6255 16.6417 13.6255 17.025C13.6255 17.4083 13.7588 17.7333 14.0255 18C14.2922 18.2667 14.6172 18.4 15.0005 18.4ZM7.50049 8H16.3255V8.95H7.50049V8ZM7.50049 11.325H14.3255V12.275H7.50049V11.325Z" fill="black"/>
</g>
<defs>
<clipPath id="clip0_3204_10156">
<rect width="24" height="24" fill="white"/>
</clipPath>
</defs>
</svg>
