<svg width="24" height="24" viewBox="0 0 24 24" fill="none" xmlns="http://www.w3.org/2000/svg">
<g clip-path="url(#clip0_3204_10180)">
<rect width="24" height="24" fill="white"/>
<path d="M20 22H4V2H15.425L20 6.575V22ZM7.5 7.35V10.85H16.5V7.35H7.5ZM10.625 8.475H10.875H10.625ZM12.925 18.325C13.3917 18.775 13.9583 19 14.625 19C15.2917 19 15.85 18.775 16.3 18.325C16.7667 17.8583 17 17.3 17 16.65C17 16 16.7667 15.45 16.3 15C15.85 14.5333 15.2917 14.3 14.625 14.3C13.9583 14.3 13.3917 14.5333 12.925 15C12.475 15.45 12.25 16 12.25 16.65C12.25 17.3 12.475 17.8583 12.925 18.325Z" fill="black"/>
</g>
<defs>
<clipPath id="clip0_3204_10180">
<rect width="24" height="24" fill="white"/>
</clipPath>
</defs>
</svg>
