<svg width="24" height="24" viewBox="0 0 24 24" fill="none" xmlns="http://www.w3.org/2000/svg">
<g clip-path="url(#clip0_3204_10158)">
<rect width="24" height="24" fill="white"/>
<path d="M4.00049 2H15.4255L20.0005 6.575V22H4.00049V2ZM18.5755 20.6V7.125L14.8505 3.375H5.42549V20.6H18.5755ZM15.2505 18.4C14.9338 18.4 14.6588 18.2917 14.4255 18.075C14.2088 17.8417 14.1005 17.5667 14.1005 17.25C14.1005 16.9333 14.2088 16.6667 14.4255 16.45C14.6588 16.2167 14.9338 16.1 15.2505 16.1C15.5672 16.1 15.8338 16.2083 16.0505 16.425C16.2838 16.6417 16.4005 16.9167 16.4005 17.25C16.4005 17.5667 16.2922 17.8417 16.0755 18.075C15.8588 18.2917 15.5838 18.4 15.2505 18.4ZM15.2505 17.25C15.2838 17.25 15.3005 17.25 15.3005 17.25C15.3172 17.25 15.3422 17.25 15.3755 17.25C15.3422 17.25 15.3172 17.25 15.3005 17.25C15.3005 17.25 15.2838 17.25 15.2505 17.25C15.2172 17.25 15.1922 17.25 15.1755 17.25C15.1755 17.25 15.1588 17.25 15.1255 17.25C15.1588 17.25 15.1755 17.25 15.1755 17.25C15.1922 17.25 15.2172 17.25 15.2505 17.25ZM7.67549 8H16.1755V9.4H7.67549V8ZM7.67549 11.375H14.1755V12.775H7.67549V11.375Z" fill="black"/>
</g>
<defs>
<clipPath id="clip0_3204_10158">
<rect width="24" height="24" fill="white"/>
</clipPath>
</defs>
</svg>
