<svg width="24" height="24" viewBox="0 0 24 24" fill="none" xmlns="http://www.w3.org/2000/svg">
<g clip-path="url(#clip0_3204_9840)">
<rect width="24" height="24" fill="white"/>
<path d="M4.00049 2H15.4255L20.0005 6.575V22H4.00049V2ZM19.5005 21.525V6.75L15.2255 2.475H4.50049V21.525H19.5005ZM15.2505 19.275C14.6838 19.275 14.2088 19.0833 13.8255 18.7C13.4422 18.3167 13.2505 17.85 13.2505 17.3C13.2505 16.75 13.4422 16.2833 13.8255 15.9C14.2088 15.5167 14.6838 15.325 15.2505 15.325C15.8172 15.325 16.2922 15.5167 16.6755 15.9C17.0588 16.2833 17.2505 16.75 17.2505 17.3C17.2505 17.85 17.0588 18.3167 16.6755 18.7C16.2922 19.0833 15.8172 19.275 15.2505 19.275ZM15.2755 18.825C15.6922 18.825 16.0422 18.675 16.3255 18.375C16.6255 18.075 16.7755 17.7167 16.7755 17.3C16.7755 16.8667 16.6255 16.5083 16.3255 16.225C16.0422 15.925 15.6922 15.775 15.2755 15.775C14.8422 15.775 14.4755 15.925 14.1755 16.225C13.8755 16.5083 13.7255 16.8667 13.7255 17.3C13.7255 17.7167 13.8755 18.075 14.1755 18.375C14.4755 18.675 14.8422 18.825 15.2755 18.825ZM7.50049 8H16.5005V8.475H7.50049V8ZM7.50049 11.325H14.5005V11.8H7.50049V11.325Z" fill="black"/>
</g>
<defs>
<clipPath id="clip0_3204_9840">
<rect width="24" height="24" fill="white"/>
</clipPath>
</defs>
</svg>
