<svg width="24" height="24" viewBox="0 0 24 24" fill="none" xmlns="http://www.w3.org/2000/svg">
<g clip-path="url(#clip0_3204_11180)">
<rect width="24" height="24" fill="white"/>
<path d="M4.00049 2H15.4255L20.0005 6.575V22H4.00049V2ZM16.4505 18.5V8L13.9505 5.5H7.55049V18.5H16.4505ZM13.3005 9.1L13.7505 9.4L14.8505 8.875L16.1005 11.1L15.0755 11.65V12.225L16.1005 12.9L14.8255 15.1L13.7755 14.45L13.3005 14.75L13.2755 16H10.7255L10.7005 14.75L10.2505 14.475L9.17549 15.125L7.90049 12.9L8.92549 12.225V11.65L7.90049 11.1L9.17549 8.9L10.2255 9.425L10.7005 9.1L10.7255 8H13.2755L13.3005 9.1ZM12.0005 12.875C12.2505 12.875 12.4588 12.7917 12.6255 12.625C12.7922 12.4417 12.8755 12.2333 12.8755 12C12.8755 11.7667 12.7922 11.5667 12.6255 11.4C12.4588 11.2167 12.2505 11.125 12.0005 11.125C11.7672 11.125 11.5588 11.2083 11.3755 11.375C11.2088 11.5417 11.1255 11.75 11.1255 12C11.1255 12.25 11.2088 12.4583 11.3755 12.625C11.5588 12.7917 11.7672 12.875 12.0005 12.875ZM13.9255 11.025H13.9005H13.8505H13.8755H13.8505H13.9005H13.9255H14.0255H14.0505H14.1005H14.0755H14.1005H14.0505H14.0255H13.9255ZM14.0005 11.025H14.0255H14.0505H14.0755H14.0505H14.0755H14.0505H14.0255H14.0005H13.9505H13.9255H13.9005H13.8755H13.9005H13.8755H13.9005H13.9255H13.9505H14.0005ZM13.9755 11.025C13.9588 11.025 13.9505 11.025 13.9505 11.025C13.9505 11.025 13.9422 11.025 13.9255 11.025C13.9422 11.025 13.9505 11.025 13.9505 11.025C13.9505 11.025 13.9588 11.025 13.9755 11.025C13.9922 11.025 14.0005 11.025 14.0005 11.025C14.0005 11.025 14.0088 11.025 14.0255 11.025C14.0088 11.025 14.0005 11.025 14.0005 11.025C14.0005 11.025 13.9922 11.025 13.9755 11.025ZM13.9755 11.025C13.9922 11.025 14.0005 11.025 14.0005 11.025C14.0005 11.025 13.9922 11.025 13.9755 11.025C13.9755 11.025 13.9672 11.025 13.9505 11.025C13.9672 11.025 13.9755 11.025 13.9755 11.025Z" fill="black"/>
</g>
<defs>
<clipPath id="clip0_3204_11180">
<rect width="24" height="24" fill="white"/>
</clipPath>
</defs>
</svg>
