<svg width="24" height="24" viewBox="0 0 24 24" fill="none" xmlns="http://www.w3.org/2000/svg">
<g clip-path="url(#clip0_3204_11508)">
<rect width="24" height="24" fill="white"/>
<path d="M4.00049 2H15.4255L20.0005 6.575V22H4.00049V2ZM19.0255 21.075V6.925L15.0505 2.925H4.97549V21.075H19.0255ZM10.9755 9.175C10.9755 8.60833 11.1672 8.13333 11.5505 7.75C11.9505 7.35 12.4255 7.15 12.9755 7.15C13.5422 7.15 14.0255 7.35 14.4255 7.75C14.8255 8.13333 15.0255 8.60833 15.0255 9.175V14C15.0255 14.55 14.8922 15.0583 14.6255 15.525C14.3588 15.9917 13.9922 16.3583 13.5255 16.625C13.0755 16.875 12.5672 17 12.0005 17C11.4338 17 10.9172 16.875 10.4505 16.625C10.0005 16.3583 9.64216 15.9917 9.37549 15.525C9.12549 15.0583 9.00049 14.55 9.00049 14V8.125H9.87549V14C9.87549 14.6 10.0755 15.1083 10.4755 15.525C10.8922 15.9417 11.4005 16.15 12.0005 16.15C12.6005 16.15 13.1088 15.9417 13.5255 15.525C13.9422 15.1083 14.1505 14.6 14.1505 14V9.175C14.1505 8.84167 14.0338 8.56667 13.8005 8.35C13.5838 8.11667 13.3172 8 13.0005 8C12.6838 8 12.4088 8.11667 12.1755 8.35C11.9588 8.56667 11.8505 8.84167 11.8505 9.175V14H10.9755V9.175Z" fill="black"/>
</g>
<defs>
<clipPath id="clip0_3204_11508">
<rect width="24" height="24" fill="white"/>
</clipPath>
</defs>
</svg>
