<svg width="24" height="24" viewBox="0 0 24 24" fill="none" xmlns="http://www.w3.org/2000/svg">
<g clip-path="url(#clip0_3204_9832)">
<rect width="24" height="24" fill="white"/>
<path d="M4.00049 2H15.4255L20.0005 6.575V22H4.00049V2ZM19.5005 21.525V6.75L15.2255 2.475H4.50049V21.525H19.5005ZM10.1755 6.525L10.4755 6.15C10.8422 5.7 11.3005 5.475 11.8505 5.475C12.3005 5.475 12.6588 5.625 12.9255 5.925C13.2088 6.20833 13.3505 6.58333 13.3505 7.05C13.3505 7.65 13.0505 8.275 12.4505 8.925C11.8672 9.575 11.1505 10.1917 10.3005 10.775C9.45049 10.1917 8.72549 9.58333 8.12549 8.95C7.54216 8.3 7.25049 7.675 7.25049 7.075C7.25049 6.59167 7.38382 6.20833 7.65049 5.925C7.93382 5.625 8.30049 5.475 8.75049 5.475C9.25049 5.475 9.70049 5.7 10.1005 6.15L10.4255 6.525H10.1755ZM10.1005 6.85L9.77549 6.45C9.49216 6.1 9.15049 5.925 8.75049 5.925C8.43382 5.925 8.18382 6.03333 8.00049 6.25C7.81716 6.46667 7.72549 6.74167 7.72549 7.075C7.72549 7.525 7.99216 8.05 8.52549 8.65C9.05882 9.23333 9.65049 9.75 10.3005 10.2C10.9338 9.76667 11.5172 9.25 12.0505 8.65C12.6005 8.03333 12.8755 7.5 12.8755 7.05C12.8755 6.71667 12.7838 6.45 12.6005 6.25C12.4172 6.03333 12.1672 5.925 11.8505 5.925C11.4672 5.925 11.1255 6.1 10.8255 6.45L10.5005 6.85H10.1005ZM7.50049 14H16.5005V14.475H7.50049V14ZM7.50049 17.325H14.5005V17.8H7.50049V17.325Z" fill="black"/>
</g>
<defs>
<clipPath id="clip0_3204_9832">
<rect width="24" height="24" fill="white"/>
</clipPath>
</defs>
</svg>
