<svg width="24" height="24" viewBox="0 0 24 24" fill="none" xmlns="http://www.w3.org/2000/svg">
<g clip-path="url(#clip0_3204_12028)">
<rect width="24" height="24" fill="white"/>
<path d="M4.00049 2H15.4255L20.0005 6.575V22H4.00049V2ZM19.0255 21.075V6.925L15.0505 2.925H4.97549V21.075H19.0255ZM11.6005 12.175L9.22549 14.275L11.6005 16.375L10.9005 17.05L8.12549 14.275L10.9005 11.5L11.6005 12.175ZM9.07549 14.725V13.8H12.3505C13.0505 13.8 13.6338 13.5667 14.1005 13.1C14.5838 12.6167 14.8255 12.0417 14.8255 11.375C14.8255 10.6917 14.5838 10.1167 14.1005 9.65C13.6338 9.16667 13.0505 8.925 12.3505 8.925H8.60049V8H12.3505C13.0005 8 13.5838 8.15 14.1005 8.45C14.6338 8.73333 15.0505 9.13333 15.3505 9.65C15.6505 10.1667 15.8005 10.7417 15.8005 11.375C15.8005 11.9917 15.6505 12.5583 15.3505 13.075C15.0505 13.5917 14.6338 14 14.1005 14.3C13.5838 14.5833 13.0005 14.725 12.3505 14.725H9.07549Z" fill="black"/>
</g>
<defs>
<clipPath id="clip0_3204_12028">
<rect width="24" height="24" fill="white"/>
</clipPath>
</defs>
</svg>
