<svg width="24" height="24" viewBox="0 0 24 24" fill="none" xmlns="http://www.w3.org/2000/svg">
<g clip-path="url(#clip0_3204_11968)">
<rect width="24" height="24" fill="white"/>
<path d="M20 22H4V2H15.425L20 6.575V22ZM9.65 16.025C10.3667 16.425 11.15 16.625 12 16.625C12.85 16.625 13.625 16.425 14.325 16.025C15.0417 15.6083 15.6 15.05 16 14.35C16.4167 13.6333 16.625 12.85 16.625 12C16.625 11.15 16.4167 10.375 16 9.675C15.6 8.95833 15.0417 8.4 14.325 8C13.625 7.58333 12.85 7.375 12 7.375C11.15 7.375 10.3667 7.58333 9.65 8C8.95 8.4 8.39167 8.95833 7.975 9.675C7.575 10.375 7.375 11.15 7.375 12C7.375 12.85 7.575 13.6333 7.975 14.35C8.39167 15.05 8.95 15.6083 9.65 16.025ZM11.25 12.85C11.0833 12.6833 11 12.4417 11 12.125V9.2H12.65V11.5H14.875V13.1H11.975C11.6583 13.1 11.4167 13.0167 11.25 12.85Z" fill="black"/>
</g>
<defs>
<clipPath id="clip0_3204_11968">
<rect width="24" height="24" fill="white"/>
</clipPath>
</defs>
</svg>
