<svg width="24" height="24" viewBox="0 0 24 24" fill="none" xmlns="http://www.w3.org/2000/svg">
<g clip-path="url(#clip0_3204_10680)">
<rect width="24" height="24" fill="white"/>
<path d="M4.00049 2H15.4255L20.0005 6.575V22H4.00049V2ZM18.1005 20.15V7.3L14.6755 3.85H5.90049V20.15H18.1005ZM8.00049 11H16.0005V16H8.00049V11ZM9.45049 10.175C9.45049 9.44167 9.68382 8.84167 10.1505 8.375C10.6338 7.89167 11.2505 7.65 12.0005 7.65C12.7505 7.65 13.3588 7.89167 13.8255 8.375C14.3088 8.84167 14.5505 9.44167 14.5505 10.175V12.225H13.0005V10.175C13.0005 9.89167 12.9005 9.65833 12.7005 9.475C12.5172 9.275 12.2838 9.175 12.0005 9.175C11.7172 9.175 11.4755 9.275 11.2755 9.475C11.0922 9.65833 11.0005 9.89167 11.0005 10.175V12.225H9.45049V10.175ZM14.3755 14.425V12.575H9.62549V14.425H14.3755Z" fill="black"/>
</g>
<defs>
<clipPath id="clip0_3204_10680">
<rect width="24" height="24" fill="white"/>
</clipPath>
</defs>
</svg>
