<svg width="24" height="24" viewBox="0 0 24 24" fill="none" xmlns="http://www.w3.org/2000/svg">
<g clip-path="url(#clip0_3204_10546)">
<rect width="24" height="24" fill="white"/>
<path d="M9.95049 10.45C9.26716 10.45 8.69216 10.2167 8.22549 9.75C7.75882 9.28333 7.52549 8.71667 7.52549 8.05C7.52549 7.38333 7.75882 6.825 8.22549 6.375C8.69216 5.90833 9.25882 5.675 9.92549 5.675C10.6088 5.675 11.1838 5.90833 11.6505 6.375C12.1172 6.825 12.3505 7.38333 12.3505 8.05C12.3505 8.71667 12.1172 9.28333 11.6505 9.75C11.1838 10.2167 10.6172 10.45 9.95049 10.45ZM9.92549 9.625C10.3755 9.625 10.7505 9.475 11.0505 9.175C11.3505 8.85833 11.5005 8.48333 11.5005 8.05C11.5005 7.61667 11.3505 7.25 11.0505 6.95C10.7505 6.65 10.3755 6.5 9.92549 6.5C9.49216 6.5 9.12549 6.65 8.82549 6.95C8.52549 7.25 8.37549 7.61667 8.37549 8.05C8.37549 8.48333 8.52549 8.85833 8.82549 9.175C9.12549 9.475 9.49216 9.625 9.92549 9.625ZM4.42549 17.225L12.1505 12.75C12.8172 12.3667 13.5172 12.175 14.2505 12.175C14.9838 12.175 15.6922 12.3667 16.3755 12.75L19.6255 14.625V15.65L15.9505 13.55C15.4005 13.2333 14.8338 13.075 14.2505 13.075C13.6838 13.075 13.1255 13.2333 12.5755 13.55L4.42549 18.275V17.225ZM4.00049 2H15.4255L20.0005 6.575V22H4.00049V2ZM19.0255 21.075V6.925L15.0505 2.925H4.97549V21.075H19.0255Z" fill="black"/>
</g>
<defs>
<clipPath id="clip0_3204_10546">
<rect width="24" height="24" fill="white"/>
</clipPath>
</defs>
</svg>
