<svg width="24" height="24" viewBox="0 0 24 24" fill="none" xmlns="http://www.w3.org/2000/svg">
<g clip-path="url(#clip0_3204_10664)">
<rect width="24" height="24" fill="white"/>
<path d="M20 22H4V2H15.425L20 6.575V22ZM12.775 11.3L13.5 12L16.275 9.225L13.5 6.45L12.775 7.15L14.475 8.75H11.7C11 8.75 10.35 8.925 9.75 9.275C9.16667 9.60833 8.7 10.075 8.35 10.675C8 11.275 7.825 11.925 7.825 12.625C7.825 13.3417 8 14 8.35 14.6C8.7 15.1833 9.16667 15.65 9.75 16C10.35 16.3333 11 16.5 11.7 16.5H15.775V15.525H11.7C11.1833 15.525 10.7 15.4 10.25 15.15C9.81667 14.8833 9.46667 14.5333 9.2 14.1C8.95 13.65 8.825 13.1667 8.825 12.65C8.825 12.1 8.95 11.6 9.2 11.15C9.46667 10.7 9.81667 10.35 10.25 10.1C10.7 9.83333 11.1833 9.7 11.7 9.7H14.475L12.775 11.3Z" fill="black"/>
</g>
<defs>
<clipPath id="clip0_3204_10664">
<rect width="24" height="24" fill="white"/>
</clipPath>
</defs>
</svg>
