<svg width="24" height="24" viewBox="0 0 24 24" fill="none" xmlns="http://www.w3.org/2000/svg">
<g clip-path="url(#clip0_3204_9980)">
<rect width="24" height="24" fill="white"/>
<path d="M4.00049 2H15.4255L20.0005 6.575V22H4.00049V2ZM19.5005 21.525V6.75L15.2255 2.475H4.50049V21.525H19.5005ZM12.0005 16.175C12.7505 16.175 13.4422 15.9917 14.0755 15.625C14.7088 15.2417 15.2088 14.7333 15.5755 14.1C15.9588 13.4667 16.1505 12.7667 16.1505 12C16.1505 11.2333 15.9588 10.5333 15.5755 9.9C15.2088 9.26667 14.7088 8.76667 14.0755 8.4C13.4422 8.01667 12.7505 7.825 12.0005 7.825C11.2505 7.825 10.5588 8.01667 9.92549 8.4C9.29216 8.76667 8.78382 9.26667 8.40049 9.9C8.03382 10.5333 7.85049 11.2333 7.85049 12C7.85049 12.7667 8.03382 13.4667 8.40049 14.1C8.78382 14.7333 9.29216 15.2417 9.92549 15.625C10.5588 15.9917 11.2505 16.175 12.0005 16.175ZM12.0005 16.625C11.1505 16.625 10.3672 16.425 9.65049 16.025C8.95049 15.6083 8.39216 15.05 7.97549 14.35C7.57549 13.6333 7.37549 12.85 7.37549 12C7.37549 11.15 7.57549 10.375 7.97549 9.675C8.39216 8.95833 8.95049 8.4 9.65049 8C10.3672 7.58333 11.1505 7.375 12.0005 7.375C12.8505 7.375 13.6255 7.58333 14.3255 8C15.0422 8.4 15.6005 8.95833 16.0005 9.675C16.4172 10.375 16.6255 11.15 16.6255 12C16.6255 12.85 16.4172 13.6333 16.0005 14.35C15.6005 15.05 15.0422 15.6083 14.3255 16.025C13.6255 16.425 12.8505 16.625 12.0005 16.625ZM12.1005 9.225V12.05H14.5255V12.5H11.8755C11.8088 12.5 11.7505 12.475 11.7005 12.425C11.6505 12.375 11.6255 12.3167 11.6255 12.25V9.225H12.1005Z" fill="black"/>
</g>
<defs>
<clipPath id="clip0_3204_9980">
<rect width="24" height="24" fill="white"/>
</clipPath>
</defs>
</svg>
