<svg width="24" height="24" viewBox="0 0 24 24" fill="none" xmlns="http://www.w3.org/2000/svg">
<g clip-path="url(#clip0_3204_10978)">
<rect width="24" height="24" fill="white"/>
<path d="M20 22H4V2H15.425L20 6.575V22ZM9.525 8.425C9.275 8.84167 9.15 9.30833 9.15 9.825C9.15 10.4083 9.325 10.9417 9.675 11.425C10.025 11.9083 10.4917 12.25 11.075 12.45V16.575L12.825 16.975V12.45C13.3917 12.25 13.85 11.9083 14.2 11.425C14.5667 10.9417 14.75 10.4083 14.75 9.825C14.75 9.30833 14.625 8.84167 14.375 8.425C14.125 7.99167 13.7833 7.65 13.35 7.4C12.9167 7.15 12.45 7.025 11.95 7.025C11.45 7.025 10.9833 7.15 10.55 7.4C10.1167 7.65 9.775 7.99167 9.525 8.425ZM11.275 10.1C11.1083 9.91667 11.025 9.69167 11.025 9.425C11.025 9.15833 11.1083 8.94167 11.275 8.775C11.4583 8.59167 11.6833 8.5 11.95 8.5C12.2167 8.5 12.4333 8.59167 12.6 8.775C12.7833 8.94167 12.875 9.15833 12.875 9.425C12.875 9.69167 12.7833 9.91667 12.6 10.1C12.4333 10.2667 12.2167 10.35 11.95 10.35C11.6833 10.35 11.4583 10.2667 11.275 10.1Z" fill="black"/>
</g>
<defs>
<clipPath id="clip0_3204_10978">
<rect width="24" height="24" fill="white"/>
</clipPath>
</defs>
</svg>
