<svg width="24" height="24" viewBox="0 0 24 24" fill="none" xmlns="http://www.w3.org/2000/svg">
<g clip-path="url(#clip0_3204_9920)">
<rect width="24" height="24" fill="white"/>
<path d="M4.00049 2H15.4255L20.0005 6.575V22H4.00049V2ZM19.5005 21.525V6.75L15.2255 2.475H4.50049V21.525H19.5005ZM8.80049 11.5H8.82549H8.87549H8.90049H8.85049H8.90049H8.87549H8.82549H8.80049H8.75049H8.72549H8.67549H8.65049H8.70049H8.65049H8.67549H8.72549H8.75049H8.80049ZM8.77549 11.5C8.79216 11.5 8.80049 11.5 8.80049 11.5C8.80049 11.5 8.80882 11.5 8.82549 11.5C8.80882 11.5 8.80049 11.5 8.80049 11.5C8.80049 11.5 8.79216 11.5 8.77549 11.5C8.75882 11.5 8.75049 11.5 8.75049 11.5C8.75049 11.5 8.74216 11.5 8.72549 11.5C8.74216 11.5 8.75049 11.5 8.75049 11.5C8.75049 11.5 8.75882 11.5 8.77549 11.5ZM10.5755 15.075L10.0755 14.775L8.80049 15.5L7.37549 13.05L8.62549 12.3V11.7L7.37549 10.95L8.80049 8.525L10.0505 9.275L10.5755 8.925V7.475H13.4255V8.925L13.9255 9.225L15.2005 8.5L16.6255 10.95L15.3755 11.7V12.3L16.6255 13.05L15.2005 15.475L13.9505 14.725L13.4255 15.075V16.525H10.5755V15.075ZM12.9505 16.075V14.825L13.9255 14.175L15.0505 14.85L15.9755 13.225L14.9005 12.55V11.45L15.9755 10.775L15.0505 9.1L13.9255 9.75L12.9505 9.175V7.925H11.0505V9.175L10.0755 9.825L8.95049 9.15L8.02549 10.775L9.10049 11.45V12.55L8.02549 13.225L8.95049 14.9L10.0755 14.25L11.0505 14.825V16.075H12.9505ZM12.0005 13.65C11.5338 13.65 11.1338 13.4917 10.8005 13.175C10.4838 12.8583 10.3255 12.4667 10.3255 12C10.3255 11.5333 10.4838 11.1417 10.8005 10.825C11.1338 10.5083 11.5338 10.35 12.0005 10.35C12.4672 10.35 12.8588 10.5083 13.1755 10.825C13.5088 11.1417 13.6755 11.5333 13.6755 12C13.6755 12.4667 13.5088 12.8583 13.1755 13.175C12.8588 13.4917 12.4672 13.65 12.0005 13.65ZM12.0005 13.225C12.3505 13.225 12.6422 13.1083 12.8755 12.875C13.1088 12.6417 13.2255 12.35 13.2255 12C13.2255 11.65 13.1088 11.3583 12.8755 11.125C12.6422 10.8917 12.3505 10.775 12.0005 10.775C11.6505 10.775 11.3588 10.8917 11.1255 11.125C10.8922 11.3583 10.7755 11.65 10.7755 12C10.7755 12.35 10.8922 12.6417 11.1255 12.875C11.3588 13.1083 11.6505 13.225 12.0005 13.225Z" fill="black"/>
</g>
<defs>
<clipPath id="clip0_3204_9920">
<rect width="24" height="24" fill="white"/>
</clipPath>
</defs>
</svg>
