<svg width="24" height="24" viewBox="0 0 24 24" fill="none" xmlns="http://www.w3.org/2000/svg">
<g clip-path="url(#clip0_3204_11810)">
<rect width="24" height="24" fill="white"/>
<path d="M20 22H4V2H15.425L20 6.575V22ZM7.875 14.7L7.625 16.375L9.275 16.125L14.2 11.2C14.1 11.0833 14.025 11 13.975 10.95C13.925 10.9 13.85 10.825 13.75 10.725L13.225 10.175C13.125 10.0917 13.05 10.025 13 9.975C12.9667 9.925 12.9 9.85833 12.8 9.775L7.875 14.7ZM13.625 8.95L15.025 10.35L15.975 9.425C16.1083 9.29167 16.175 9.15 16.175 9C16.175 8.85 16.1083 8.70833 15.975 8.575L15.4 8C15.2667 7.86667 15.125 7.8 14.975 7.8C14.825 7.8 14.6833 7.86667 14.55 8L13.625 8.95Z" fill="black"/>
</g>
<defs>
<clipPath id="clip0_3204_11810">
<rect width="24" height="24" fill="white"/>
</clipPath>
</defs>
</svg>
