<svg width="24" height="24" viewBox="0 0 24 24" fill="none" xmlns="http://www.w3.org/2000/svg">
<g clip-path="url(#clip0_3204_10984)">
<rect width="24" height="24" fill="white"/>
<path d="M20 22H4V2H15.425L20 6.575V22ZM9.125 8.325C8.84167 8.80833 8.7 9.35 8.7 9.95C8.7 10.5833 8.875 11.1667 9.225 11.7C9.575 12.2333 10.05 12.625 10.65 12.875V16.875L13.25 17.3V12.875C13.85 12.625 14.325 12.2333 14.675 11.7C15.025 11.1667 15.2 10.5833 15.2 9.95C15.2 9.35 15.05 8.80833 14.75 8.325C14.4667 7.825 14.075 7.43333 13.575 7.15C13.0917 6.85 12.55 6.7 11.95 6.7C11.35 6.7 10.8 6.85 10.3 7.15C9.81667 7.43333 9.425 7.825 9.125 8.325ZM11.325 10.475C11.175 10.3083 11.1 10.1083 11.1 9.875C11.1 9.625 11.175 9.41667 11.325 9.25C11.4917 9.08333 11.7 9 11.95 9C12.2 9 12.4 9.08333 12.55 9.25C12.7167 9.41667 12.8 9.625 12.8 9.875C12.8 10.125 12.7167 10.3333 12.55 10.5C12.4 10.65 12.2 10.725 11.95 10.725C11.7 10.725 11.4917 10.6417 11.325 10.475Z" fill="black"/>
</g>
<defs>
<clipPath id="clip0_3204_10984">
<rect width="24" height="24" fill="white"/>
</clipPath>
</defs>
</svg>
