<svg width="24" height="24" viewBox="0 0 24 24" fill="none" xmlns="http://www.w3.org/2000/svg">
<g clip-path="url(#clip0_3204_10078)">
<rect width="24" height="24" fill="white"/>
<path d="M12.0005 9.8C11.8005 9.8 11.6255 9.725 11.4755 9.575C11.3422 9.425 11.2755 9.25833 11.2755 9.075C11.2755 8.875 11.3422 8.70833 11.4755 8.575C11.6255 8.425 11.8005 8.35 12.0005 8.35C12.2005 8.35 12.3672 8.425 12.5005 8.575C12.6505 8.70833 12.7255 8.875 12.7255 9.075C12.7255 9.25833 12.6505 9.425 12.5005 9.575C12.3672 9.725 12.2005 9.8 12.0005 9.8ZM8.47549 9.775C8.27549 9.775 8.10049 9.70833 7.95049 9.575C7.81716 9.44167 7.75049 9.275 7.75049 9.075C7.75049 8.875 7.81716 8.70833 7.95049 8.575C8.10049 8.425 8.27549 8.35 8.47549 8.35C8.67549 8.35 8.84216 8.425 8.97549 8.575C9.10882 8.70833 9.17549 8.875 9.17549 9.075C9.17549 9.25833 9.10882 9.425 8.97549 9.575C8.84216 9.70833 8.67549 9.775 8.47549 9.775ZM15.5255 9.8C15.3422 9.8 15.1755 9.725 15.0255 9.575C14.8922 9.425 14.8255 9.25833 14.8255 9.075C14.8255 8.875 14.8922 8.70833 15.0255 8.575C15.1588 8.425 15.3255 8.35 15.5255 8.35C15.7255 8.35 15.8922 8.425 16.0255 8.575C16.1755 8.70833 16.2505 8.875 16.2505 9.075C16.2505 9.275 16.1755 9.45 16.0255 9.6C15.8922 9.73333 15.7255 9.8 15.5255 9.8ZM12.0005 13.175C11.8005 13.175 11.6255 13.1083 11.4755 12.975C11.3422 12.825 11.2755 12.65 11.2755 12.45C11.2755 12.25 11.3422 12.0833 11.4755 11.95C11.6255 11.8 11.8005 11.725 12.0005 11.725C12.2005 11.725 12.3672 11.8 12.5005 11.95C12.6505 12.0833 12.7255 12.25 12.7255 12.45C12.7255 12.65 12.6505 12.825 12.5005 12.975C12.3672 13.1083 12.2005 13.175 12.0005 13.175ZM8.47549 13.175C8.27549 13.175 8.10049 13.1083 7.95049 12.975C7.81716 12.825 7.75049 12.65 7.75049 12.45C7.75049 12.25 7.81716 12.0833 7.95049 11.95C8.10049 11.8 8.27549 11.725 8.47549 11.725C8.65882 11.725 8.81716 11.8 8.95049 11.95C9.10049 12.0833 9.17549 12.25 9.17549 12.45C9.17549 12.65 9.10882 12.825 8.97549 12.975C8.84216 13.1083 8.67549 13.175 8.47549 13.175ZM15.5255 13.175C15.3422 13.175 15.1755 13.1083 15.0255 12.975C14.8922 12.825 14.8255 12.65 14.8255 12.45C14.8255 12.25 14.8922 12.0833 15.0255 11.95C15.1588 11.8 15.3255 11.725 15.5255 11.725C15.7255 11.725 15.8922 11.8 16.0255 11.95C16.1755 12.0833 16.2505 12.25 16.2505 12.45C16.2505 12.65 16.1755 12.825 16.0255 12.975C15.8922 13.1083 15.7255 13.175 15.5255 13.175ZM12.0005 16.55C11.8005 16.55 11.6255 16.4833 11.4755 16.35C11.3422 16.2 11.2755 16.025 11.2755 15.825C11.2755 15.6417 11.3422 15.475 11.4755 15.325C11.6255 15.175 11.8005 15.1 12.0005 15.1C12.2005 15.1 12.3672 15.175 12.5005 15.325C12.6505 15.475 12.7255 15.6417 12.7255 15.825C12.7255 16.025 12.6505 16.2 12.5005 16.35C12.3672 16.4833 12.2005 16.55 12.0005 16.55ZM4.00049 2H15.4255L20.0005 6.575V22H4.00049V2ZM19.0255 21.075V6.925L15.0505 2.925H4.97549V21.075H19.0255Z" fill="black"/>
</g>
<defs>
<clipPath id="clip0_3204_10078">
<rect width="24" height="24" fill="white"/>
</clipPath>
</defs>
</svg>
