<svg width="24" height="24" viewBox="0 0 24 24" fill="none" xmlns="http://www.w3.org/2000/svg">
<g clip-path="url(#clip0_3204_10744)">
<rect width="24" height="24" fill="white"/>
<path d="M20 22H4V2H15.425L20 6.575V22ZM8.425 10.225C8.775 10.5583 9.19167 10.725 9.675 10.725C10.0417 10.725 10.3583 10.6333 10.625 10.45C10.9083 10.25 11.1167 9.99167 11.25 9.675H16V8.275H11.25C11.1333 7.95833 10.9333 7.70833 10.65 7.525C10.3667 7.325 10.0417 7.225 9.675 7.225C9.19167 7.225 8.775 7.4 8.425 7.75C8.09167 8.08333 7.925 8.49167 7.925 8.975C7.925 9.45833 8.09167 9.875 8.425 10.225ZM13.2 16.5C13.5167 16.7 13.8583 16.8 14.225 16.8C14.7417 16.8 15.175 16.625 15.525 16.275C15.8917 15.9083 16.075 15.475 16.075 14.975C16.075 14.475 15.8917 14.05 15.525 13.7C15.175 13.3333 14.7417 13.15 14.225 13.15C13.8583 13.15 13.5167 13.2583 13.2 13.475C12.9 13.6917 12.6833 13.9583 12.55 14.275H8V15.675H12.55C12.6833 16.0083 12.9 16.2833 13.2 16.5Z" fill="black"/>
</g>
<defs>
<clipPath id="clip0_3204_10744">
<rect width="24" height="24" fill="white"/>
</clipPath>
</defs>
</svg>
