<svg width="24" height="24" viewBox="0 0 24 24" fill="none" xmlns="http://www.w3.org/2000/svg">
<g clip-path="url(#clip0_3204_10750)">
<rect width="24" height="24" fill="white"/>
<path d="M20 22H4V2H15.425L20 6.575V22ZM8.9 7.675V10.275H16.325V7.675H8.9ZM8.25 10.65C8.71667 11.1167 9.275 11.35 9.925 11.35C10.5917 11.35 11.15 11.1167 11.6 10.65C12.0667 10.1833 12.3 9.625 12.3 8.975C12.3 8.325 12.0667 7.76667 11.6 7.3C11.15 6.83333 10.5917 6.6 9.925 6.6C9.225 6.6 8.65 6.84167 8.2 7.325C7.76667 7.79167 7.55 8.34167 7.55 8.975C7.55 9.625 7.78333 10.1833 8.25 10.65ZM7.675 16.275H15.1V13.675H7.675V16.275ZM12.175 16.75C12.675 17.2333 13.2667 17.475 13.95 17.475C14.6333 17.475 15.2167 17.2333 15.7 16.75C16.2 16.25 16.45 15.6583 16.45 14.975C16.45 14.2917 16.2 13.7083 15.7 13.225C15.2167 12.725 14.6333 12.475 13.95 12.475C13.2667 12.475 12.675 12.7167 12.175 13.2C11.6917 13.6833 11.45 14.275 11.45 14.975C11.45 15.6583 11.6917 16.25 12.175 16.75Z" fill="black"/>
</g>
<defs>
<clipPath id="clip0_3204_10750">
<rect width="24" height="24" fill="white"/>
</clipPath>
</defs>
</svg>
