<svg width="24" height="24" viewBox="0 0 24 24" fill="none" xmlns="http://www.w3.org/2000/svg">
<g clip-path="url(#clip0_3205_12875)">
<rect width="24" height="24" fill="white"/>
<path d="M4.00049 2H15.4255L20.0005 6.575V22H4.00049V2ZM17.5505 19.6V7.525L14.4255 4.4H6.45049V19.6H17.5505ZM10.7755 11.65H13.2255V16.5H10.7755V11.65ZM12.0005 10.375C11.5505 10.375 11.1838 10.2333 10.9005 9.95C10.6338 9.66667 10.5005 9.3 10.5005 8.85C10.5005 8.41667 10.6422 8.06667 10.9255 7.8C11.2088 7.51667 11.5672 7.375 12.0005 7.375C12.4505 7.375 12.8088 7.51667 13.0755 7.8C13.3588 8.06667 13.5005 8.41667 13.5005 8.85C13.5005 9.3 13.3588 9.66667 13.0755 9.95C12.7922 10.2333 12.4338 10.375 12.0005 10.375Z" fill="black"/>
</g>
<defs>
<clipPath id="clip0_3205_12875">
<rect width="24" height="24" fill="white"/>
</clipPath>
</defs>
</svg>
