<svg width="24" height="24" viewBox="0 0 24 24" fill="none" xmlns="http://www.w3.org/2000/svg">
<g clip-path="url(#clip0_3204_10918)">
<rect width="24" height="24" fill="white"/>
<path d="M4.00049 2H15.4255L20.0005 6.575V22H4.00049V2ZM17.0005 19.05V7.775L14.2005 4.95H7.00049V19.05H17.0005ZM10.5505 12.8C10.5338 12.4333 10.6172 12.0583 10.8005 11.675C11.0005 11.2917 11.3505 10.9917 11.8505 10.775C12.1672 10.6083 12.3755 10.4833 12.4755 10.4C12.5922 10.3167 12.6505 10.1917 12.6505 10.025C12.6505 9.875 12.5672 9.75 12.4005 9.65C12.2505 9.53333 12.0422 9.475 11.7755 9.475C11.4255 9.475 11.0922 9.54167 10.7755 9.675C10.4755 9.79167 10.1755 9.96667 9.87549 10.2L8.55049 8.575C9.01716 8.09167 9.50049 7.75 10.0005 7.55C10.5172 7.33333 11.1588 7.225 11.9255 7.225C13.0088 7.225 13.8338 7.475 14.4005 7.975C14.9672 8.475 15.2505 9.1 15.2505 9.85C15.2505 10.3833 15.0922 10.85 14.7755 11.25C14.4588 11.6333 14.0755 11.95 13.6255 12.2C13.3588 12.35 13.1922 12.5 13.1255 12.65C13.0755 12.7833 13.0505 12.9583 13.0505 13.175V13.25H10.5505V12.8ZM11.8255 16.725C11.3755 16.725 11.0088 16.5917 10.7255 16.325C10.4588 16.0583 10.3255 15.7083 10.3255 15.275C10.3255 14.875 10.4588 14.5417 10.7255 14.275C10.9922 14.0083 11.3588 13.875 11.8255 13.875C12.2755 13.875 12.6422 14.0083 12.9255 14.275C13.2255 14.5417 13.3755 14.875 13.3755 15.275C13.3755 15.7083 13.2255 16.0583 12.9255 16.325C12.6422 16.5917 12.2755 16.725 11.8255 16.725Z" fill="black"/>
</g>
<defs>
<clipPath id="clip0_3204_10918">
<rect width="24" height="24" fill="white"/>
</clipPath>
</defs>
</svg>
