<svg width="24" height="24" viewBox="0 0 24 24" fill="none" xmlns="http://www.w3.org/2000/svg">
<g clip-path="url(#clip0_3204_10570)">
<rect width="24" height="24" fill="white"/>
<path d="M4 2H15.45L20 6.575V22H4V2ZM16.5 18.55V7.95L14.025 5.45H7.5V18.55H16.5ZM11 11.75C10.3833 11.75 9.85 11.5333 9.4 11.1C8.96667 10.65 8.75 10.1167 8.75 9.5C8.75 8.86667 8.96667 8.33333 9.4 7.9C9.85 7.46667 10.3917 7.25 11.025 7.25C11.6417 7.25 12.1667 7.46667 12.6 7.9C13.0333 8.33333 13.25 8.86667 13.25 9.5C13.25 10.1167 13.0333 10.65 12.6 11.1C12.1667 11.5333 11.6333 11.75 11 11.75ZM6.6 16.625L12.125 13.4C12.6083 13.1167 13.1083 12.975 13.625 12.975C14.1417 12.975 14.6417 13.1167 15.125 13.4L17.3 14.675V20.575H6.6V16.625Z" fill="black"/>
</g>
<defs>
<clipPath id="clip0_3204_10570">
<rect width="24" height="24" fill="white"/>
</clipPath>
</defs>
</svg>
