<svg width="24" height="24" viewBox="0 0 24 24" fill="none" xmlns="http://www.w3.org/2000/svg">
<g clip-path="url(#clip0_3204_10748)">
<rect width="24" height="24" fill="white"/>
<path d="M20 22H4V2H15.425L20 6.575V22ZM8.375 10.475C8.79167 10.8917 9.29167 11.1 9.875 11.1C10.2417 11.1 10.5833 11.0167 10.9 10.85C11.2167 10.6667 11.475 10.4167 11.675 10.1H16.175V7.85H11.675C11.475 7.53333 11.2167 7.29167 10.9 7.125C10.5833 6.94167 10.2417 6.85 9.875 6.85C9.25833 6.85 8.75 7.05833 8.35 7.475C7.95 7.89167 7.75 8.39167 7.75 8.975C7.75 9.55833 7.95833 10.0583 8.375 10.475ZM12.875 16.925C13.225 17.125 13.6 17.225 14 17.225C14.6333 17.225 15.1667 17.0083 15.6 16.575C16.0333 16.125 16.25 15.5917 16.25 14.975C16.25 14.3583 16.0333 13.8333 15.6 13.4C15.1667 12.95 14.6333 12.725 14 12.725C13.6 12.725 13.225 12.8333 12.875 13.05C12.525 13.25 12.25 13.5167 12.05 13.85H7.825V16.1H12.05C12.25 16.4333 12.525 16.7083 12.875 16.925Z" fill="black"/>
</g>
<defs>
<clipPath id="clip0_3204_10748">
<rect width="24" height="24" fill="white"/>
</clipPath>
</defs>
</svg>
