<svg width="24" height="24" viewBox="0 0 24 24" fill="none" xmlns="http://www.w3.org/2000/svg">
<g clip-path="url(#clip0_3204_10074)">
<rect width="24" height="24" fill="white"/>
<path d="M20 22H4V2H15.425L20 6.575V22ZM13.7 5.875C13.4 5.525 12.9833 5.35 12.45 5.35C12.1 5.35 11.7833 5.43333 11.5 5.6C11.2167 5.76667 10.9333 6.05 10.65 6.45C10.3833 6.05 10.1167 5.76667 9.85 5.6C9.58333 5.43333 9.24167 5.35 8.825 5.35C8.29167 5.35 7.88333 5.525 7.6 5.875C7.31667 6.20833 7.175 6.625 7.175 7.125C7.175 7.75833 7.5 8.41667 8.15 9.1C8.81667 9.76667 9.65 10.4417 10.65 11.125C11.6667 10.4417 12.5083 9.76667 13.175 9.1C13.8417 8.43333 14.175 7.775 14.175 7.125C14.175 6.625 14.0167 6.20833 13.7 5.875ZM7.5 15.3V18H16.5V15.3H7.5ZM10.65 16.675H10.9H10.65Z" fill="black"/>
</g>
<defs>
<clipPath id="clip0_3204_10074">
<rect width="24" height="24" fill="white"/>
</clipPath>
</defs>
</svg>
