<svg width="24" height="24" viewBox="0 0 24 24" fill="none" xmlns="http://www.w3.org/2000/svg">
<g clip-path="url(#clip0_3363_3992)">
<rect width="24" height="24" fill="white"/>
<path d="M10.7005 11.65C9.86716 11.65 9.15882 11.3583 8.57549 10.775C7.99216 10.1917 7.70049 9.48333 7.70049 8.65C7.70049 7.8 7.99216 7.09167 8.57549 6.525C9.15882 5.94167 9.86716 5.65 10.7005 5.65C11.5505 5.65 12.2588 5.94167 12.8255 6.525C13.4088 7.10833 13.7005 7.81667 13.7005 8.65C13.7005 9.48333 13.4088 10.1917 12.8255 10.775C12.2588 11.3583 11.5505 11.65 10.7005 11.65ZM10.7005 9.7C11.0005 9.7 11.2505 9.6 11.4505 9.4C11.6505 9.2 11.7505 8.95 11.7505 8.65C11.7505 8.35 11.6505 8.1 11.4505 7.9C11.2505 7.7 11.0005 7.6 10.7005 7.6C10.4005 7.6 10.1505 7.7 9.95049 7.9C9.75049 8.1 9.65049 8.35 9.65049 8.65C9.65049 8.95 9.75049 9.2 9.95049 9.4C10.1672 9.6 10.4172 9.7 10.7005 9.7ZM5.02549 17.025L11.9255 13.05C12.5588 12.6667 13.2338 12.475 13.9505 12.475C14.6838 12.475 15.3755 12.6667 16.0255 13.05L19.3005 14.925V17.475L15.0005 15C14.6505 14.8 14.3088 14.7 13.9755 14.7C13.6588 14.7 13.3255 14.8 12.9755 15L5.02549 19.575V17.025ZM4.00049 2H15.4255L20.0005 6.575V22H4.00049V2ZM17.6005 19.65V7.5L14.4505 4.35H6.40049V19.65H17.6005Z" fill="black"/>
</g>
<defs>
<clipPath id="clip0_3363_3992">
<rect width="24" height="24" fill="white"/>
</clipPath>
</defs>
</svg>
