<svg width="24" height="24" viewBox="0 0 24 24" fill="none" xmlns="http://www.w3.org/2000/svg">
<g clip-path="url(#clip0_3204_10934)">
<rect width="24" height="24" fill="white"/>
<path d="M20 22H4V2H15.425L20 6.575V22ZM10.6 11.625C10.4167 12.0417 10.3333 12.4167 10.35 12.75L10.375 13.3H13.25V13.225C13.25 12.9917 13.275 12.8 13.325 12.65C13.375 12.5 13.5333 12.3583 13.8 12.225C14.2667 11.9917 14.675 11.6667 15.025 11.25C15.3917 10.8333 15.575 10.3083 15.575 9.675C15.575 8.90833 15.2667 8.25 14.65 7.7C14.0333 7.15 13.125 6.875 11.925 6.875C11.1917 6.875 10.5417 6.95833 9.975 7.125C9.40833 7.29167 8.83333 7.59167 8.25 8.025L9.6 10.125C9.95 9.90833 10.3 9.74167 10.65 9.625C11.0167 9.50833 11.375 9.45 11.725 9.45C11.9917 9.45 12.2 9.5 12.35 9.6C12.5 9.68333 12.575 9.79167 12.575 9.925C12.575 10.075 12.525 10.1917 12.425 10.275C12.3417 10.3417 12.125 10.45 11.775 10.6C11.1917 10.8667 10.8 11.2083 10.6 11.625ZM10.575 16.675C10.875 16.975 11.2917 17.125 11.825 17.125C12.3417 17.125 12.7583 16.975 13.075 16.675C13.4083 16.375 13.575 15.9917 13.575 15.525C13.575 15.075 13.4083 14.7 13.075 14.4C12.7583 14.1 12.3417 13.95 11.825 13.95C11.2917 13.95 10.875 14.1 10.575 14.4C10.275 14.6833 10.125 15.0583 10.125 15.525C10.125 15.9917 10.275 16.375 10.575 16.675Z" fill="black"/>
</g>
<defs>
<clipPath id="clip0_3204_10934">
<rect width="24" height="24" fill="white"/>
</clipPath>
</defs>
</svg>
