<svg width="24" height="24" viewBox="0 0 24 24" fill="none" xmlns="http://www.w3.org/2000/svg">
<g clip-path="url(#clip0_3204_10680)">
<rect width="24" height="24" fill="white"/>
<path d="M4.00049 2H15.4255L20.0005 6.575V22H4.00049V2ZM18.1005 20.15V7.3L14.6755 3.85H5.90049V20.15H18.1005ZM9.45049 9.925C9.45049 9.19167 9.68382 8.59167 10.1505 8.125C10.6338 7.64167 11.2505 7.4 12.0005 7.4C12.7505 7.4 13.3588 7.64167 13.8255 8.125C14.3088 8.59167 14.5505 9.19167 14.5505 9.925V11.975H12.9755V9.925C12.9755 9.64167 12.8838 9.40833 12.7005 9.225C12.5172 9.04167 12.2838 8.95 12.0005 8.95C11.7172 8.95 11.4838 9.04167 11.3005 9.225C11.1172 9.40833 11.0255 9.64167 11.0255 9.925V11.975H9.45049V9.925ZM8.00049 10.75H16.0005V16H8.00049V10.75ZM14.3505 14.4V12.35H9.65049V14.4H14.3505Z" fill="black"/>
</g>
<defs>
<clipPath id="clip0_3204_10680">
<rect width="24" height="24" fill="white"/>
</clipPath>
</defs>
</svg>
