<svg width="24" height="24" viewBox="0 0 24 24" fill="none" xmlns="http://www.w3.org/2000/svg">
<g clip-path="url(#clip0_3204_10096)">
<rect width="24" height="24" fill="white"/>
<path d="M20 22H4V2H15.425L20 6.575V22ZM11.225 9.8C11.4417 10 11.7 10.1 12 10.1C12.3 10.1 12.55 10 12.75 9.8C12.9667 9.58333 13.075 9.325 13.075 9.025C13.075 8.70833 12.9667 8.45 12.75 8.25C12.55 8.05 12.3 7.95 12 7.95C11.7 7.95 11.4417 8.05 11.225 8.25C11.025 8.45 10.925 8.70833 10.925 9.025C10.925 9.325 11.025 9.58333 11.225 9.8ZM7.8 9.8C8 10 8.25833 10.1 8.575 10.1C8.875 10.1 9.125 10 9.325 9.8C9.54167 9.58333 9.65 9.325 9.65 9.025C9.65 8.70833 9.54167 8.45 9.325 8.25C9.125 8.05 8.875 7.95 8.575 7.95C8.25833 7.95 8 8.05 7.8 8.25C7.6 8.45 7.5 8.70833 7.5 9.025C7.5 9.325 7.6 9.58333 7.8 9.8ZM14.65 9.8C14.8667 10 15.125 10.1 15.425 10.1C15.7417 10.1 16 10 16.2 9.8C16.4 9.58333 16.5 9.325 16.5 9.025C16.5 8.70833 16.4 8.45 16.2 8.25C16 8.05 15.7417 7.95 15.425 7.95C15.125 7.95 14.8667 8.05 14.65 8.25C14.45 8.45 14.35 8.70833 14.35 9.025C14.35 9.325 14.45 9.58333 14.65 9.8ZM11.225 13.225C11.4417 13.425 11.7 13.525 12 13.525C12.3 13.525 12.55 13.425 12.75 13.225C12.9667 13.0083 13.075 12.75 13.075 12.45C13.075 12.15 12.9667 11.9 12.75 11.7C12.55 11.4833 12.3 11.375 12 11.375C11.7 11.375 11.4417 11.4833 11.225 11.7C11.025 11.9 10.925 12.15 10.925 12.45C10.925 12.75 11.025 13.0083 11.225 13.225ZM7.8 13.225C8 13.425 8.25833 13.525 8.575 13.525C8.875 13.525 9.125 13.425 9.325 13.225C9.54167 13.0083 9.65 12.75 9.65 12.45C9.65 12.15 9.54167 11.9 9.325 11.7C9.125 11.4833 8.875 11.375 8.575 11.375C8.25833 11.375 8 11.4833 7.8 11.7C7.6 11.9 7.5 12.15 7.5 12.45C7.5 12.75 7.6 13.0083 7.8 13.225ZM14.65 13.225C14.8667 13.425 15.125 13.525 15.425 13.525C15.7417 13.525 16 13.425 16.2 13.225C16.4 13.0083 16.5 12.75 16.5 12.45C16.5 12.15 16.4 11.9 16.2 11.7C16 11.4833 15.7417 11.375 15.425 11.375C15.125 11.375 14.8667 11.4833 14.65 11.7C14.45 11.9 14.35 12.15 14.35 12.45C14.35 12.75 14.45 13.0083 14.65 13.225ZM11.225 16.65C11.4417 16.85 11.7 16.95 12 16.95C12.3 16.95 12.55 16.85 12.75 16.65C12.9667 16.45 13.075 16.1917 13.075 15.875C13.075 15.575 12.9667 15.325 12.75 15.125C12.55 14.9083 12.3 14.8 12 14.8C11.7 14.8 11.4417 14.9083 11.225 15.125C11.025 15.325 10.925 15.575 10.925 15.875C10.925 16.1917 11.025 16.45 11.225 16.65Z" fill="black"/>
</g>
<defs>
<clipPath id="clip0_3204_10096">
<rect width="24" height="24" fill="white"/>
</clipPath>
</defs>
</svg>
