<svg width="24" height="24" viewBox="0 0 24 24" fill="none" xmlns="http://www.w3.org/2000/svg">
<g clip-path="url(#clip0_3204_11952)">
<rect width="24" height="24" fill="white"/>
<path d="M4.00049 2H15.4255L20.0005 6.575V22H4.00049V2ZM18.5755 20.6V7.125L14.8505 3.4H5.42549V20.6H18.5755ZM12.0005 15.4C12.6172 15.4 13.1755 15.25 13.6755 14.95C14.1922 14.65 14.6005 14.2417 14.9005 13.725C15.2172 13.1917 15.3755 12.6167 15.3755 12C15.3755 11.3833 15.2172 10.8167 14.9005 10.3C14.6005 9.76667 14.1922 9.35 13.6755 9.05C13.1755 8.75 12.6172 8.6 12.0005 8.6C11.3838 8.6 10.8172 8.75 10.3005 9.05C9.80049 9.35 9.39216 9.76667 9.07549 10.3C8.77549 10.8167 8.62549 11.3833 8.62549 12C8.62549 12.6167 8.77549 13.1917 9.07549 13.725C9.39216 14.2417 9.80049 14.65 10.3005 14.95C10.8172 15.25 11.3838 15.4 12.0005 15.4ZM12.0005 16.625C11.1505 16.625 10.3672 16.425 9.65049 16.025C8.95049 15.6083 8.39216 15.05 7.97549 14.35C7.57549 13.6333 7.37549 12.85 7.37549 12C7.37549 11.15 7.57549 10.375 7.97549 9.675C8.39216 8.95833 8.95049 8.4 9.65049 8C10.3672 7.58333 11.1505 7.375 12.0005 7.375C12.8505 7.375 13.6255 7.58333 14.3255 8C15.0422 8.4 15.6005 8.95833 16.0005 9.675C16.4172 10.375 16.6255 11.15 16.6255 12C16.6255 12.85 16.4172 13.6333 16.0005 14.35C15.6005 15.05 15.0422 15.6083 14.3255 16.025C13.6255 16.425 12.8505 16.625 12.0005 16.625ZM12.4755 9.7V11.675H14.2505V12.9H11.9255C11.7088 12.9 11.5338 12.8417 11.4005 12.725C11.2672 12.5917 11.2005 12.4083 11.2005 12.175V9.7H12.4755Z" fill="black"/>
</g>
<defs>
<clipPath id="clip0_3204_11952">
<rect width="24" height="24" fill="white"/>
</clipPath>
</defs>
</svg>
