<svg width="24" height="24" viewBox="0 0 24 24" fill="none" xmlns="http://www.w3.org/2000/svg">
<g clip-path="url(#clip0_3374_5039)">
<rect width="24" height="24" fill="white"/>
<path d="M4.00049 2H15.4255L20.0005 6.575V22H4.00049V2ZM18.5755 20.6V7.125L14.8505 3.4H5.42549V20.6H18.5755ZM11.1005 14.6C10.4672 14.6 9.88382 14.45 9.35049 14.15C8.83382 13.85 8.42549 13.4417 8.12549 12.925C7.82549 12.3917 7.67549 11.8167 7.67549 11.2C7.67549 10.5833 7.82549 10.0167 8.12549 9.5C8.42549 8.96667 8.83382 8.55 9.35049 8.25C9.88382 7.95 10.4672 7.8 11.1005 7.8C11.7172 7.8 12.2838 7.95 12.8005 8.25C13.3338 8.55 13.7505 8.96667 14.0505 9.5C14.3672 10.0167 14.5255 10.5833 14.5255 11.2C14.5255 11.8167 14.3672 12.3917 14.0505 12.925C13.7505 13.4417 13.3338 13.85 12.8005 14.15C12.2838 14.45 11.7172 14.6 11.1005 14.6ZM11.1005 13.3C11.6838 13.3 12.1755 13.1 12.5755 12.7C12.9922 12.2833 13.2005 11.7833 13.2005 11.2C13.2005 10.6167 12.9922 10.125 12.5755 9.725C12.1755 9.30833 11.6838 9.1 11.1005 9.1C10.5172 9.1 10.0172 9.30833 9.60049 9.725C9.20049 10.125 9.00049 10.6167 9.00049 11.2C9.00049 11.7833 9.20049 12.2833 9.60049 12.7C10.0172 13.1 10.5172 13.3 11.1005 13.3ZM16.4755 15.725L15.5505 16.625L12.9005 13.975L13.8005 13.05L16.4755 15.725ZM16.4755 15.725L15.5505 16.625L12.9005 13.975L13.8005 13.05L16.4755 15.725Z" fill="black"/>
</g>
<defs>
<clipPath id="clip0_3374_5039">
<rect width="24" height="24" fill="white"/>
</clipPath>
</defs>
</svg>
