<svg width="24" height="24" viewBox="0 0 24 24" fill="none" xmlns="http://www.w3.org/2000/svg">
<g clip-path="url(#clip0_3204_10678)">
<rect width="24" height="24" fill="white"/>
<path d="M4.00049 2H15.4255L20.0005 6.575V22H4.00049V2ZM18.5755 20.6V7.125L14.8505 3.4H5.42549V20.6H18.5755ZM9.62549 9.75C9.62549 9.08333 9.85049 8.525 10.3005 8.075C10.7505 7.625 11.3172 7.4 12.0005 7.4C12.6838 7.4 13.2505 7.625 13.7005 8.075C14.1505 8.525 14.3755 9.08333 14.3755 9.75V11.7H13.1755V9.75C13.1755 9.41667 13.0588 9.14167 12.8255 8.925C12.6088 8.69167 12.3338 8.575 12.0005 8.575C11.6672 8.575 11.3838 8.69167 11.1505 8.925C10.9338 9.14167 10.8255 9.41667 10.8255 9.75V11.7H9.62549V9.75ZM8.00049 10.75H16.0005V16H8.00049V10.75ZM14.7255 14.775V11.975H9.27549V14.775H14.7255Z" fill="black"/>
</g>
<defs>
<clipPath id="clip0_3204_10678">
<rect width="24" height="24" fill="white"/>
</clipPath>
</defs>
</svg>
