<svg width="24" height="24" viewBox="0 0 24 24" fill="none" xmlns="http://www.w3.org/2000/svg">
<g clip-path="url(#clip0_3204_10740)">
<rect width="24" height="24" fill="white"/>
<path d="M20 22H4V2H15.425L20 6.575V22ZM8.95 8.75V9.225H16V8.75H8.95ZM8.375 10.05C8.675 10.3333 9.03333 10.475 9.45 10.475C9.86667 10.475 10.2167 10.3333 10.5 10.05C10.8 9.75 10.95 9.39167 10.95 8.975C10.95 8.55833 10.8 8.20833 10.5 7.925C10.2167 7.625 9.86667 7.475 9.45 7.475C9.03333 7.475 8.675 7.625 8.375 7.925C8.09167 8.20833 7.95 8.55833 7.95 8.975C7.95 9.39167 8.09167 9.75 8.375 10.05ZM8 15.225H15.05V14.75H8V15.225ZM13.475 16.05C13.775 16.3333 14.1333 16.475 14.55 16.475C14.9667 16.475 15.3167 16.3333 15.6 16.05C15.9 15.75 16.05 15.3917 16.05 14.975C16.05 14.5583 15.9 14.2083 15.6 13.925C15.3167 13.625 14.9667 13.475 14.55 13.475C14.1333 13.475 13.775 13.625 13.475 13.925C13.1917 14.2083 13.05 14.5583 13.05 14.975C13.05 15.3917 13.1917 15.75 13.475 16.05Z" fill="black"/>
</g>
<defs>
<clipPath id="clip0_3204_10740">
<rect width="24" height="24" fill="white"/>
</clipPath>
</defs>
</svg>
