<svg width="24" height="24" viewBox="0 0 24 24" fill="none" xmlns="http://www.w3.org/2000/svg">
<g clip-path="url(#clip0_3204_10690)">
<rect width="24" height="24" fill="white"/>
<path d="M20 22H4V2H15.425L20 6.575V22ZM8 11V16.25H16V11H14.425V9.55C14.425 8.88333 14.1917 8.31667 13.725 7.85C13.2583 7.38333 12.6833 7.15 12 7.15C11.3167 7.15 10.7417 7.38333 10.275 7.85C9.80833 8.31667 9.575 8.88333 9.575 9.55V11H8ZM13.55 11H10.45V9.55C10.45 9.11667 10.6 8.75 10.9 8.45C11.2 8.13333 11.5667 7.975 12 7.975C12.4333 7.975 12.8 8.13333 13.1 8.45C13.4 8.75 13.55 9.11667 13.55 9.55V11Z" fill="black"/>
</g>
<defs>
<clipPath id="clip0_3204_10690">
<rect width="24" height="24" fill="white"/>
</clipPath>
</defs>
</svg>
