<svg width="24" height="24" viewBox="0 0 24 24" fill="none" xmlns="http://www.w3.org/2000/svg">
<g clip-path="url(#clip0_3204_11256)">
<rect width="24" height="24" fill="white"/>
<path d="M4.00049 2H15.4255L20.0005 6.575V22H4.00049V2ZM17.1005 19.15V7.725L14.2255 4.85H6.90049V19.15H17.1005ZM13.6255 7.55L13.3255 12.125H10.6505L10.3755 7.55H13.6255ZM12.0005 13.275C12.5005 13.275 12.9005 13.425 13.2005 13.725C13.5172 14.025 13.6755 14.4083 13.6755 14.875C13.6755 15.3583 13.5172 15.7417 13.2005 16.025C12.8838 16.3083 12.4838 16.45 12.0005 16.45C11.5172 16.45 11.1172 16.3083 10.8005 16.025C10.4838 15.7417 10.3255 15.3667 10.3255 14.9C10.3255 14.4333 10.4838 14.05 10.8005 13.75C11.1172 13.4333 11.5172 13.275 12.0005 13.275Z" fill="black"/>
</g>
<defs>
<clipPath id="clip0_3204_11256">
<rect width="24" height="24" fill="white"/>
</clipPath>
</defs>
</svg>
