<svg width="24" height="24" viewBox="0 0 24 24" fill="none" xmlns="http://www.w3.org/2000/svg">
<g clip-path="url(#clip0_3204_11776)">
<rect width="24" height="24" fill="white"/>
<path d="M4.00049 2H15.4255L20.0005 6.575V22H4.00049V2ZM17.1005 19.15V7.725L14.2255 4.85H6.90049V19.15H17.1005ZM13.4005 8.5L15.4255 10.45H11.0255L9.20049 8.4H15.5755V14.025C15.5755 14.5417 15.4005 14.95 15.0505 15.25C14.7172 15.5333 14.2422 15.675 13.6255 15.675C13.1255 15.675 12.7338 15.5667 12.4505 15.35C12.1838 15.1167 12.0505 14.8 12.0505 14.4C12.0505 14.0333 12.1672 13.7417 12.4005 13.525C12.6505 13.2917 12.9922 13.175 13.4255 13.175C13.9255 13.175 14.3172 13.2917 14.6005 13.525C14.8838 13.7417 15.0255 14.0333 15.0255 14.4L13.4005 13.8V8.5ZM13.3005 14.45C13.4672 14.45 13.5838 14.45 13.6505 14.45C13.7338 14.45 13.8505 14.45 14.0005 14.45C13.8505 14.45 13.7338 14.45 13.6505 14.45C13.5672 14.45 13.4422 14.45 13.2755 14.45C13.1255 14.45 13.0088 14.45 12.9255 14.45C12.8588 14.45 12.7422 14.45 12.5755 14.45C12.7422 14.45 12.8588 14.45 12.9255 14.45C13.0088 14.45 13.1338 14.45 13.3005 14.45ZM9.15049 8.4L11.3255 8.625V14.025C11.3255 14.5417 11.1505 14.95 10.8005 15.25C10.4672 15.5333 10.0005 15.675 9.40049 15.675C8.90049 15.675 8.50049 15.5667 8.20049 15.35C7.91716 15.1167 7.77549 14.8 7.77549 14.4C7.77549 14.0333 7.88382 13.7417 8.10049 13.525C8.33382 13.2917 8.65049 13.175 9.05049 13.175C9.58382 13.175 10.0005 13.2917 10.3005 13.525C10.6005 13.7417 10.7505 14.0333 10.7505 14.4L9.15049 13.8V8.4ZM9.02549 14.45C9.17549 14.45 9.29216 14.45 9.37549 14.45C9.45882 14.45 9.58382 14.45 9.75049 14.45C9.58382 14.45 9.45882 14.45 9.37549 14.45C9.29216 14.45 9.16716 14.45 9.00049 14.45C8.83382 14.45 8.71716 14.45 8.65049 14.45C8.58382 14.45 8.46716 14.45 8.30049 14.45C8.46716 14.45 8.58382 14.45 8.65049 14.45C8.73382 14.45 8.85882 14.45 9.02549 14.45Z" fill="black"/>
</g>
<defs>
<clipPath id="clip0_3204_11776">
<rect width="24" height="24" fill="white"/>
</clipPath>
</defs>
</svg>
