<svg width="24" height="24" viewBox="0 0 24 24" fill="none" xmlns="http://www.w3.org/2000/svg">
<g clip-path="url(#clip0_3204_11786)">
<rect width="24" height="24" fill="white"/>
<path d="M20 22H4V2H15.425L20 6.575V22ZM7.175 13.775C6.875 14.0417 6.725 14.3833 6.725 14.8C6.725 15.2167 6.89167 15.5667 7.225 15.85C7.55833 16.1167 7.99167 16.25 8.525 16.25C9.15833 16.25 9.66667 16.0917 10.05 15.775C10.45 15.4583 10.65 15.05 10.65 14.55V9.475H14.225V13.4C14.125 13.3833 13.9167 13.375 13.6 13.375C13.1167 13.375 12.7167 13.5083 12.4 13.775C12.1 14.0417 11.95 14.3833 11.95 14.8C11.95 15.2167 12.1167 15.5667 12.45 15.85C12.7833 16.1167 13.2167 16.25 13.75 16.25C14.3833 16.25 14.8917 16.0917 15.275 15.775C15.675 15.4583 15.875 15.05 15.875 14.55V7.875H9V13.425C8.8 13.3917 8.59167 13.375 8.375 13.375C7.89167 13.375 7.49167 13.5083 7.175 13.775Z" fill="black"/>
</g>
<defs>
<clipPath id="clip0_3204_11786">
<rect width="24" height="24" fill="white"/>
</clipPath>
</defs>
</svg>
