<svg width="24" height="24" viewBox="0 0 24 24" fill="none" xmlns="http://www.w3.org/2000/svg">
<g clip-path="url(#clip0_3204_10678)">
<rect width="24" height="24" fill="white"/>
<path d="M4.00049 2H15.4255L20.0005 6.575V22H4.00049V2ZM18.5755 20.6V7.125L14.8505 3.4H5.42549V20.6H18.5755ZM8.00049 11H16.0005V16H8.00049V11ZM9.62549 10C9.62549 9.33333 9.85049 8.775 10.3005 8.325C10.7505 7.875 11.3172 7.65 12.0005 7.65C12.6838 7.65 13.2505 7.875 13.7005 8.325C14.1505 8.775 14.3755 9.33333 14.3755 10V11.95H13.2005V10C13.2005 9.66667 13.0838 9.39167 12.8505 9.175C12.6172 8.94167 12.3338 8.825 12.0005 8.825C11.6672 8.825 11.3838 8.94167 11.1505 9.175C10.9172 9.39167 10.8005 9.66667 10.8005 10V11.95H9.62549V10ZM14.7505 14.8V12.2H9.25049V14.8H14.7505Z" fill="black"/>
</g>
<defs>
<clipPath id="clip0_3204_10678">
<rect width="24" height="24" fill="white"/>
</clipPath>
</defs>
</svg>
