<svg width="24" height="24" viewBox="0 0 24 24" fill="none" xmlns="http://www.w3.org/2000/svg">
<g clip-path="url(#clip0_3204_10562)">
<rect width="24" height="24" fill="white"/>
<path d="M4 2H15.425L20 6.575V22H4V2ZM18.5 21.525V7.175L14.775 3.45H5.5V21.525H18.5ZM10.175 10.45C9.54167 10.45 9.00833 10.2333 8.575 9.8C8.14167 9.36667 7.925 8.83333 7.925 8.2C7.925 7.58333 8.14167 7.06667 8.575 6.65C9.00833 6.21667 9.54167 6 10.175 6C10.8083 6 11.3417 6.21667 11.775 6.65C12.2083 7.06667 12.425 7.58333 12.425 8.2C12.425 8.83333 12.2083 9.36667 11.775 9.8C11.3417 10.2333 10.8083 10.45 10.175 10.45ZM4.95 16.975L12.075 12.825C12.7083 12.4583 13.3583 12.275 14.025 12.275C14.6917 12.275 15.3417 12.4583 15.975 12.825L18.8 14.45V21.6H4.95V16.975Z" fill="black"/>
</g>
<defs>
<clipPath id="clip0_3204_10562">
<rect width="24" height="24" fill="white"/>
</clipPath>
</defs>
</svg>
