<svg width="24" height="24" viewBox="0 0 24 24" fill="none" xmlns="http://www.w3.org/2000/svg">
<g clip-path="url(#clip0_3204_11804)">
<rect width="24" height="24" fill="white"/>
<path d="M4.00049 2H15.4255L20.0005 6.575V22H4.00049V2ZM16.4505 18.5V8L13.9505 5.5H7.55049V18.5H16.4505ZM8.87549 12.375L12.4505 8.775C12.6838 8.54167 12.9172 8.425 13.1505 8.425C13.4005 8.425 13.6338 8.54167 13.8505 8.775L15.1755 10.1C15.4088 10.3167 15.5255 10.55 15.5255 10.8C15.5255 11.0333 15.4088 11.2667 15.1755 11.5L11.5755 15.125L8.62549 15.375L8.87549 12.375ZM9.72549 14.225H9.87549C9.89216 14.225 9.90049 14.225 9.90049 14.225C9.90049 14.225 9.89216 14.225 9.87549 14.225H9.82549H9.65049H9.72549ZM13.2505 10.625H13.3255C13.3422 10.625 13.3588 10.625 13.3755 10.625C13.3922 10.625 13.4088 10.625 13.4255 10.625H13.4755C13.4922 10.625 13.5005 10.625 13.5005 10.625C13.5005 10.625 13.4922 10.625 13.4755 10.625H13.4005H13.2505Z" fill="black"/>
</g>
<defs>
<clipPath id="clip0_3204_11804">
<rect width="24" height="24" fill="white"/>
</clipPath>
</defs>
</svg>
