<svg width="24" height="24" viewBox="0 0 24 24" fill="none" xmlns="http://www.w3.org/2000/svg">
<g clip-path="url(#clip0_3204_10654)">
<rect width="24" height="24" fill="white"/>
<path d="M4.00049 2H15.4255L20.0005 6.575V22H4.00049V2ZM18.1005 20.15V7.3L14.6755 3.85H5.90049V20.15H18.1005ZM12.8255 10.125V9.7V9.325V6.725L15.8255 9.725L12.8255 12.725V10.125ZM12.9755 8.9V10.575H11.7005C11.2005 10.575 10.7755 10.7583 10.4255 11.125C10.0755 11.4917 9.90049 11.9333 9.90049 12.45C9.90049 12.95 10.0755 13.375 10.4255 13.725C10.7755 14.075 11.2005 14.25 11.7005 14.25H15.3505V16H11.7005C11.0505 16 10.4505 15.8417 9.90049 15.525C9.36716 15.2083 8.94216 14.7833 8.62549 14.25C8.30882 13.7 8.15049 13.1 8.15049 12.45C8.15049 11.8 8.30882 11.2083 8.62549 10.675C8.94216 10.125 9.36716 9.69167 9.90049 9.375C10.4505 9.05833 11.0505 8.9 11.7005 8.9H12.9755Z" fill="black"/>
</g>
<defs>
<clipPath id="clip0_3204_10654">
<rect width="24" height="24" fill="white"/>
</clipPath>
</defs>
</svg>
