<svg width="24" height="24" viewBox="0 0 24 24" fill="none" xmlns="http://www.w3.org/2000/svg">
<g clip-path="url(#clip0_3204_11806)">
<rect width="24" height="24" fill="white"/>
<path d="M20 22H4V2H15.425L20 6.575V22ZM7.875 14.7L7.625 16.375L9.275 16.125L14.775 10.625C14.675 10.525 14.6 10.4583 14.55 10.425C14.5167 10.375 14.45 10.3 14.35 10.2L13.8 9.625C13.7 9.525 13.625 9.45833 13.575 9.425C13.5417 9.375 13.475 9.3 13.375 9.2L7.875 14.7ZM13.725 8.85L15.125 10.25L15.975 9.425C16.1083 9.29167 16.175 9.15 16.175 9C16.175 8.85 16.1083 8.70833 15.975 8.575L15.4 8C15.2667 7.86667 15.125 7.8 14.975 7.8C14.825 7.8 14.6833 7.86667 14.55 8L13.725 8.85Z" fill="black"/>
</g>
<defs>
<clipPath id="clip0_3204_11806">
<rect width="24" height="24" fill="white"/>
</clipPath>
</defs>
</svg>
