<svg width="24" height="24" viewBox="0 0 24 24" fill="none" xmlns="http://www.w3.org/2000/svg">
<g clip-path="url(#clip0_3204_10962)">
<rect width="24" height="24" fill="white"/>
<path d="M4.00049 2H15.4255L20.0005 6.575V22H4.00049V2ZM19.0255 21.075V6.925L15.0505 2.925H4.97549V21.075H19.0255ZM9.57549 9.825C9.57549 9.15833 9.80882 8.59167 10.2755 8.125C10.7588 7.64167 11.3338 7.4 12.0005 7.4C12.6838 7.4 13.2588 7.64167 13.7255 8.125C14.1922 8.59167 14.4255 9.15833 14.4255 9.825C14.4255 10.4583 14.1922 11.0083 13.7255 11.475C13.2588 11.9417 12.6922 12.1917 12.0255 12.225L12.4755 11.475V16.85L11.5505 16.65V11.475L11.9755 12.225C11.3088 12.1917 10.7422 11.9417 10.2755 11.475C9.80882 11.0083 9.57549 10.4583 9.57549 9.825ZM10.4505 9.825C10.4505 10.2417 10.6005 10.6 10.9005 10.9C11.2005 11.1833 11.5672 11.325 12.0005 11.325C12.4338 11.325 12.8005 11.1833 13.1005 10.9C13.4005 10.6 13.5505 10.2417 13.5505 9.825C13.5505 9.39167 13.4005 9.03333 13.1005 8.75C12.8005 8.45 12.4338 8.3 12.0005 8.3C11.5672 8.3 11.2005 8.45 10.9005 8.75C10.6005 9.03333 10.4505 9.39167 10.4505 9.825Z" fill="black"/>
</g>
<defs>
<clipPath id="clip0_3204_10962">
<rect width="24" height="24" fill="white"/>
</clipPath>
</defs>
</svg>
