<svg width="24" height="24" viewBox="0 0 24 24" fill="none" xmlns="http://www.w3.org/2000/svg">
<g clip-path="url(#clip0_3205_12833)">
<rect width="24" height="24" fill="white"/>
<path d="M10.5 14.625C11.0667 15.1583 11.8 15.425 12.7 15.425C13.6167 15.425 14.4583 15.1917 15.225 14.725C16.0083 14.2583 16.525 13.5 16.775 12.45L16.25 12.7V15.275H17.55V8.3C17.55 7.61667 17.3833 7.025 17.05 6.525C16.7167 6.00833 16.2667 5.61667 15.7 5.35C15.1333 5.06667 14.5 4.925 13.8 4.925C12.9667 4.925 12.1833 5.13333 11.45 5.55C10.7333 5.96667 10.1833 6.56667 9.8 7.35L10.825 7.95C11.125 7.4 11.5333 6.96667 12.05 6.65C12.5833 6.33333 13.1417 6.175 13.725 6.175C14.425 6.175 15.0083 6.35833 15.475 6.725C15.9583 7.075 16.2 7.56667 16.2 8.2C16.2 8.56667 16.0833 8.85 15.85 9.05C15.6333 9.23333 15.2583 9.35 14.725 9.4L12.825 9.55C11.8417 9.63333 11.0667 9.94167 10.5 10.475C9.93333 10.9917 9.65 11.6833 9.65 12.55C9.65 13.4 9.93333 14.0917 10.5 14.625ZM14.475 13.95C13.975 14.1667 13.475 14.275 12.975 14.275C12.3917 14.275 11.9167 14.1083 11.55 13.775C11.1833 13.4417 11 13.0167 11 12.5C11 11.9333 11.2 11.5 11.6 11.2C12.0167 10.8833 12.5583 10.6917 13.225 10.625L14.875 10.475C15.1917 10.4583 15.4667 10.3917 15.7 10.275C15.9333 10.1583 16.1333 10 16.3 9.8C16.4333 9.63333 16.5583 9.40833 16.675 9.125L16.2 9.275V11.25C16.2 11.9333 16.0333 12.5 15.7 12.95C15.3833 13.4 14.975 13.7333 14.475 13.95ZM20 22H4V2H15.425L20 6.575V22Z" fill="black"/>
</g>
<defs>
<clipPath id="clip0_3205_12833">
<rect width="24" height="24" fill="white"/>
</clipPath>
</defs>
</svg>
