<svg width="24" height="24" viewBox="0 0 24 24" fill="none" xmlns="http://www.w3.org/2000/svg">
<g clip-path="url(#clip0_3363_3996)">
<rect width="24" height="24" fill="white"/>
<path d="M11.0255 11.3C10.4088 11.3 9.88382 11.0833 9.45049 10.65C9.01716 10.2167 8.80049 9.68333 8.80049 9.05C8.80049 8.41667 9.01716 7.88333 9.45049 7.45C9.88382 7.01667 10.4088 6.8 11.0255 6.8C11.6588 6.8 12.1922 7.01667 12.6255 7.45C13.0755 7.88333 13.3005 8.41667 13.3005 9.05C13.3005 9.68333 13.0755 10.2167 12.6255 10.65C12.1922 11.0833 11.6588 11.3 11.0255 11.3ZM11.0255 10.275C10.6922 10.275 10.4088 10.1583 10.1755 9.925C9.94216 9.675 9.82549 9.38333 9.82549 9.05C9.82549 8.71667 9.94216 8.43333 10.1755 8.2C10.4088 7.95 10.6922 7.825 11.0255 7.825C11.3588 7.825 11.6505 7.95 11.9005 8.2C12.1505 8.43333 12.2755 8.71667 12.2755 9.05C12.2755 9.38333 12.1505 9.675 11.9005 9.925C11.6505 10.1583 11.3588 10.275 11.0255 10.275ZM5.30049 15.25L12.0255 12.6C12.6755 12.3333 13.3338 12.2 14.0005 12.2C14.6672 12.2 15.3338 12.3333 16.0005 12.6L19.3255 13.9V17.375L14.9255 15.675C14.6255 15.5583 14.3172 15.5 14.0005 15.5C13.7005 15.5 13.4005 15.5583 13.1005 15.675L5.30049 18.75V15.25ZM4.00049 2H15.4255L20.0005 6.575V22H4.00049V2ZM16.6005 18.65V7.925L14.0255 5.35H7.40049V18.65H16.6005Z" fill="black"/>
</g>
<defs>
<clipPath id="clip0_3363_3996">
<rect width="24" height="24" fill="white"/>
</clipPath>
</defs>
</svg>
