<svg width="24" height="24" viewBox="0 0 24 24" fill="none" xmlns="http://www.w3.org/2000/svg">
<g clip-path="url(#clip0_3204_11404)">
<rect width="24" height="24" fill="white"/>
<path d="M4.00049 2H15.4255L20.0005 6.575V22H4.00049V2ZM19.0255 21.075V6.925L15.0505 2.925H4.97549V21.075H19.0255ZM12.5255 9.325C12.1755 9.45833 11.8255 9.45833 11.4755 9.325L10.7255 9.05L10.3755 9.775C10.2588 10.0917 10.0255 10.3417 9.67549 10.525L8.85049 10.875L9.17549 11.7C9.22549 11.8667 9.25049 12.0333 9.25049 12.2C9.25049 12.3667 9.22549 12.5333 9.17549 12.7L8.85049 13.5L9.67549 13.85C9.84216 13.9333 9.98382 14.0333 10.1005 14.15C10.2172 14.2667 10.3088 14.4083 10.3755 14.575L10.7255 15.35L11.4755 15.075C11.8255 14.9417 12.1755 14.9417 12.5255 15.075L13.2755 15.375L13.6505 14.575C13.7172 14.3917 13.8088 14.2417 13.9255 14.125C14.0588 14.0083 14.2005 13.9167 14.3505 13.85L15.1505 13.525L14.8255 12.7C14.7755 12.5333 14.7505 12.3667 14.7505 12.2C14.7505 12.0333 14.7755 11.8667 14.8255 11.7L15.1505 10.875L14.3505 10.525C13.9838 10.3417 13.7505 10.1 13.6505 9.8L13.3005 9.025L12.5255 9.325ZM14.4255 9.45C14.4588 9.53333 14.5005 9.6 14.5505 9.65C14.6172 9.7 14.6838 9.74167 14.7505 9.775L16.2505 10.45L15.6505 11.975C15.6005 12.125 15.6005 12.275 15.6505 12.425L16.2505 13.95L14.7505 14.6C14.6838 14.6333 14.6172 14.6833 14.5505 14.75C14.5005 14.8 14.4588 14.8583 14.4255 14.925L13.7505 16.45L12.2255 15.85C12.0755 15.8 11.9255 15.8 11.7755 15.85L10.2505 16.45L9.60049 14.925C9.53382 14.775 9.42549 14.6667 9.27549 14.6L7.75049 13.95L8.35049 12.425C8.40049 12.275 8.40049 12.125 8.35049 11.975L7.75049 10.45L9.27549 9.775C9.34216 9.74167 9.40049 9.7 9.45049 9.65C9.51716 9.58333 9.56716 9.51667 9.60049 9.45L10.2505 7.95L11.7755 8.55C11.9255 8.6 12.0755 8.6 12.2255 8.55L13.7505 7.95L14.4255 9.45Z" fill="black"/>
</g>
<defs>
<clipPath id="clip0_3204_11404">
<rect width="24" height="24" fill="white"/>
</clipPath>
</defs>
</svg>
