<svg width="24" height="24" viewBox="0 0 24 24" fill="none" xmlns="http://www.w3.org/2000/svg">
<g clip-path="url(#clip0_3204_9942)">
<rect width="24" height="24" fill="white"/>
<path d="M4.00049 2H15.4255L20.0005 6.575V22H4.00049V2ZM19.5005 21.525V6.75L15.2255 2.475H4.50049V21.525H19.5005ZM12.0005 12.5C12.1338 12.5 12.2505 12.45 12.3505 12.35C12.4505 12.25 12.5005 12.1333 12.5005 12C12.5005 11.8667 12.4505 11.75 12.3505 11.65C12.2505 11.55 12.1338 11.5 12.0005 11.5C11.8672 11.5 11.7505 11.55 11.6505 11.65C11.5505 11.75 11.5005 11.8667 11.5005 12C11.5005 12.1333 11.5505 12.25 11.6505 12.35C11.7505 12.45 11.8672 12.5 12.0005 12.5ZM16.0005 12.5C16.1338 12.5 16.2505 12.45 16.3505 12.35C16.4505 12.25 16.5005 12.1333 16.5005 12C16.5005 11.8667 16.4505 11.75 16.3505 11.65C16.2505 11.55 16.1338 11.5 16.0005 11.5C15.8672 11.5 15.7505 11.55 15.6505 11.65C15.5505 11.75 15.5005 11.8667 15.5005 12C15.5005 12.1333 15.5505 12.25 15.6505 12.35C15.7505 12.45 15.8672 12.5 16.0005 12.5ZM8.00049 12.5C8.13382 12.5 8.25049 12.45 8.35049 12.35C8.45049 12.25 8.50049 12.1333 8.50049 12C8.50049 11.8667 8.45049 11.75 8.35049 11.65C8.25049 11.55 8.13382 11.5 8.00049 11.5C7.86716 11.5 7.75049 11.55 7.65049 11.65C7.55049 11.75 7.50049 11.8667 7.50049 12C7.50049 12.1333 7.55049 12.25 7.65049 12.35C7.75049 12.45 7.86716 12.5 8.00049 12.5Z" fill="black"/>
</g>
<defs>
<clipPath id="clip0_3204_9942">
<rect width="24" height="24" fill="white"/>
</clipPath>
</defs>
</svg>
