<svg width="24" height="24" viewBox="0 0 24 24" fill="none" xmlns="http://www.w3.org/2000/svg">
<g clip-path="url(#clip0_3204_11472)">
<rect width="24" height="24" fill="white"/>
<path d="M20 22H4V2H15.425L20 6.575V22ZM11.225 12.775C11.4417 12.975 11.7 13.075 12 13.075C12.3 13.075 12.55 12.975 12.75 12.775C12.9667 12.5583 13.075 12.3 13.075 12C13.075 11.7 12.9667 11.45 12.75 11.25C12.55 11.0333 12.3 10.925 12 10.925C11.7 10.925 11.4417 11.0333 11.225 11.25C11.025 11.45 10.925 11.7 10.925 12C10.925 12.3 11.025 12.5583 11.225 12.775ZM15.4 12.775C15.6167 12.975 15.875 13.075 16.175 13.075C16.475 13.075 16.7333 12.975 16.95 12.775C17.1667 12.5583 17.275 12.3 17.275 12C17.275 11.7 17.1667 11.45 16.95 11.25C16.7333 11.0333 16.475 10.925 16.175 10.925C15.875 10.925 15.6167 11.0333 15.4 11.25C15.2 11.45 15.1 11.7 15.1 12C15.1 12.3 15.2 12.5583 15.4 12.775ZM7.05 12.775C7.26667 12.975 7.525 13.075 7.825 13.075C8.125 13.075 8.38333 12.975 8.6 12.775C8.81667 12.5583 8.925 12.3 8.925 12C8.925 11.7 8.81667 11.45 8.6 11.25C8.38333 11.0333 8.125 10.925 7.825 10.925C7.525 10.925 7.26667 11.0333 7.05 11.25C6.85 11.45 6.75 11.7 6.75 12C6.75 12.3 6.85 12.5583 7.05 12.775Z" fill="black"/>
</g>
<defs>
<clipPath id="clip0_3204_11472">
<rect width="24" height="24" fill="white"/>
</clipPath>
</defs>
</svg>
