<svg width="24" height="24" viewBox="0 0 24 24" fill="none" xmlns="http://www.w3.org/2000/svg">
<g clip-path="url(#clip0_3204_10958)">
<rect width="24" height="24" fill="white"/>
<path d="M20 22H4V2H15.425L20 6.575V22ZM9 14.65C9.63333 15 10.325 15.175 11.075 15.175C11.3583 15.175 11.675 15.1333 12.025 15.05C12.3917 14.9667 12.6917 14.8667 12.925 14.75L15.75 17.575L17.525 15.8L14.725 13C15.0583 12.4167 15.225 11.7833 15.225 11.1C15.225 10.3333 15.0333 9.64167 14.65 9.025C14.2833 8.39167 13.7833 7.9 13.15 7.55C12.5333 7.18333 11.8417 7 11.075 7C10.325 7 9.63333 7.18333 9 7.55C8.36667 7.9 7.86667 8.39167 7.5 9.025C7.13333 9.65833 6.95 10.35 6.95 11.1C6.95 11.8333 7.13333 12.5167 7.5 13.15C7.86667 13.7833 8.36667 14.2833 9 14.65ZM12.3 12.325C11.9667 12.6583 11.5583 12.825 11.075 12.825C10.6083 12.825 10.2083 12.6583 9.875 12.325C9.54167 11.9917 9.375 11.5833 9.375 11.1C9.375 10.6 9.53333 10.1833 9.85 9.85C10.1833 9.51667 10.5917 9.35 11.075 9.35C11.5583 9.35 11.9667 9.525 12.3 9.875C12.6333 10.2083 12.8 10.6167 12.8 11.1C12.8 11.5833 12.6333 11.9917 12.3 12.325Z" fill="black"/>
</g>
<defs>
<clipPath id="clip0_3204_10958">
<rect width="24" height="24" fill="white"/>
</clipPath>
</defs>
</svg>
