<svg width="24" height="24" viewBox="0 0 24 24" fill="none" xmlns="http://www.w3.org/2000/svg">
<g clip-path="url(#clip0_3205_12833)">
<rect width="24" height="24" fill="white"/>
<path d="M12.15 16.45C12.7167 16.9833 13.45 17.25 14.35 17.25C15.0667 17.25 15.7417 17.1083 16.375 16.825C17.0083 16.5417 17.5167 16.0917 17.9 15.475V17.1H19.2V10.125C19.2 9.44167 19.0333 8.85 18.7 8.35C18.3667 7.83333 17.9083 7.44167 17.325 7.175C16.7583 6.89167 16.1333 6.75 15.45 6.75C14.6 6.75 13.8167 6.95833 13.1 7.375C12.3833 7.79167 11.8333 8.39167 11.45 9.175L12.475 9.775C12.7583 9.225 13.1583 8.79167 13.675 8.475C14.2083 8.15833 14.775 8 15.375 8C16.075 8 16.6583 8.18333 17.125 8.55C17.6083 8.9 17.85 9.39167 17.85 10.025C17.85 10.3917 17.7333 10.675 17.5 10.875C17.2833 11.0583 16.9083 11.175 16.375 11.225L14.45 11.375C13.4833 11.4583 12.7167 11.7667 12.15 12.3C11.5833 12.8167 11.3 13.5083 11.3 14.375C11.3 15.225 11.5833 15.9167 12.15 16.45ZM16.125 15.775C15.625 15.9917 15.125 16.1 14.625 16.1C14.0417 16.1 13.5667 15.9333 13.2 15.6C12.8333 15.2667 12.65 14.8417 12.65 14.325C12.65 13.7583 12.85 13.325 13.25 13.025C13.6667 12.7083 14.2083 12.5167 14.875 12.45L16.5 12.3C16.8 12.2833 17.0583 12.225 17.275 12.125C17.4917 12.025 17.6833 11.8833 17.85 11.7V13.075C17.85 13.7583 17.6833 14.325 17.35 14.775C17.0333 15.225 16.625 15.5583 16.125 15.775ZM20 22H4V2H15.425L20 6.575V22Z" fill="black"/>
</g>
<defs>
<clipPath id="clip0_3205_12833">
<rect width="24" height="24" fill="white"/>
</clipPath>
</defs>
</svg>
