<svg width="24" height="24" viewBox="0 0 24 24" fill="none" xmlns="http://www.w3.org/2000/svg">
<g clip-path="url(#clip0_3204_10076)">
<rect width="24" height="24" fill="white"/>
<path d="M20 22H4V2H15.425L20 6.575V22ZM13.9 5.95C13.5833 5.6 13.15 5.425 12.6 5.425C12.2167 5.425 11.8833 5.51667 11.6 5.7C11.3167 5.86667 11.025 6.15 10.725 6.55C10.4417 6.15 10.1667 5.86667 9.9 5.7C9.63333 5.51667 9.28333 5.425 8.85 5.425C8.28333 5.425 7.85 5.6 7.55 5.95C7.26667 6.3 7.125 6.73333 7.125 7.25C7.125 7.91667 7.46667 8.6 8.15 9.3C8.83333 10 9.69167 10.7 10.725 11.4C11.775 10.7 12.6417 10.0083 13.325 9.325C14.025 8.625 14.375 7.93333 14.375 7.25C14.375 6.73333 14.2167 6.3 13.9 5.95ZM7.5 15.275V18.525H16.5V15.275H7.5ZM10.65 16.925H10.9H10.65Z" fill="black"/>
</g>
<defs>
<clipPath id="clip0_3204_10076">
<rect width="24" height="24" fill="white"/>
</clipPath>
</defs>
</svg>
