<svg width="24" height="24" viewBox="0 0 24 24" fill="none" xmlns="http://www.w3.org/2000/svg">
<g clip-path="url(#clip0_3204_11838)">
<rect width="24" height="24" fill="white"/>
<path d="M20 22H4V2H15.425L20 6.575V22ZM7.725 16.075C8.04167 16.3917 8.425 16.55 8.875 16.55H10.525V12.65H8.95V11.3C8.95 10.6333 9.225 10.0917 9.775 9.675C10.325 9.24167 11.0667 9.025 12 9.025C12.9333 9.025 13.675 9.24167 14.225 9.675C14.775 10.0917 15.05 10.6333 15.05 11.3V12.65H13.475V16.55H15.125C15.575 16.55 15.9583 16.3917 16.275 16.075C16.5917 15.7583 16.75 15.375 16.75 14.925V11.325C16.75 10.5583 16.55 9.875 16.15 9.275C15.7667 8.675 15.2167 8.20833 14.5 7.875C13.7833 7.54167 12.95 7.375 12 7.375C11.05 7.375 10.2167 7.54167 9.5 7.875C8.78333 8.20833 8.225 8.675 7.825 9.275C7.44167 9.875 7.25 10.5583 7.25 11.325V14.925C7.25 15.375 7.40833 15.7583 7.725 16.075Z" fill="black"/>
</g>
<defs>
<clipPath id="clip0_3204_11838">
<rect width="24" height="24" fill="white"/>
</clipPath>
</defs>
</svg>
