<svg width="24" height="24" viewBox="0 0 24 24" fill="none" xmlns="http://www.w3.org/2000/svg">
<g clip-path="url(#clip0_3204_10670)">
<rect width="24" height="24" fill="white"/>
<path d="M20 22H4V2H15.425L20 6.575V22ZM13.05 11.15V12.425L16.275 9.225L13.05 6.05V7.275V8.175H12C11.2167 8.175 10.5083 8.35833 9.875 8.725C9.24167 9.075 8.74167 9.575 8.375 10.225C8.00833 10.8583 7.825 11.5583 7.825 12.325C7.825 13.1083 8.00833 13.825 8.375 14.475C8.74167 15.1083 9.24167 15.6083 9.875 15.975C10.5083 16.325 11.2167 16.5 12 16.5H15.775V14.375H12C11.6167 14.375 11.2667 14.2833 10.95 14.1C10.65 13.9167 10.4083 13.675 10.225 13.375C10.0583 13.0583 9.975 12.7083 9.975 12.325C9.975 11.9417 10.0583 11.6 10.225 11.3C10.4083 10.9833 10.65 10.7417 10.95 10.575C11.2667 10.3917 11.6167 10.3 12 10.3H13.05V11.15Z" fill="black"/>
</g>
<defs>
<clipPath id="clip0_3204_10670">
<rect width="24" height="24" fill="white"/>
</clipPath>
</defs>
</svg>
