<svg width="24" height="24" viewBox="0 0 24 24" fill="none" xmlns="http://www.w3.org/2000/svg">
<g clip-path="url(#clip0_3204_9946)">
<rect width="24" height="24" fill="white"/>
<path d="M4.00049 2H15.4255L20.0005 6.575V22H4.00049V2ZM19.5005 21.525V6.75L15.2255 2.475H4.50049V21.525H19.5005ZM11.0005 9.05C11.0005 8.51667 11.1755 8.06667 11.5255 7.7C11.8922 7.33333 12.3338 7.15 12.8505 7.15C13.3838 7.15 13.8338 7.33333 14.2005 7.7C14.5672 8.06667 14.7505 8.51667 14.7505 9.05V14.25C14.7505 14.7667 14.6255 15.2333 14.3755 15.65C14.1422 16.0667 13.8172 16.4 13.4005 16.65C12.9838 16.8833 12.5172 17 12.0005 17C11.4838 17 11.0172 16.8833 10.6005 16.65C10.1838 16.4 9.85049 16.0667 9.60049 15.65C9.36716 15.2333 9.25049 14.7667 9.25049 14.25V8.125H9.75049V14.25C9.75049 14.8833 9.96716 15.425 10.4005 15.875C10.8338 16.3083 11.3672 16.525 12.0005 16.525C12.6338 16.525 13.1672 16.3083 13.6005 15.875C14.0338 15.425 14.2505 14.8833 14.2505 14.25V9.05C14.2505 8.65 14.1172 8.31667 13.8505 8.05C13.5838 7.76667 13.2588 7.625 12.8755 7.625C12.4922 7.625 12.1672 7.76667 11.9005 8.05C11.6338 8.31667 11.5005 8.65 11.5005 9.05V14.25H11.0005V9.05Z" fill="black"/>
</g>
<defs>
<clipPath id="clip0_3204_9946">
<rect width="24" height="24" fill="white"/>
</clipPath>
</defs>
</svg>
