<svg width="24" height="24" viewBox="0 0 24 24" fill="none" xmlns="http://www.w3.org/2000/svg">
<g clip-path="url(#clip0_3204_9960)">
<rect width="24" height="24" fill="white"/>
<path d="M4.00049 2H15.4255L20.0005 6.575V22H4.00049V2ZM19.5005 21.525V6.75L15.2255 2.475H4.50049V21.525H19.5005ZM11.7505 10.65H12.2505V16.5H11.7505V10.65ZM12.0005 8.375C11.8338 8.375 11.7088 8.33333 11.6255 8.25C11.5422 8.15 11.5005 8.025 11.5005 7.875C11.5005 7.725 11.5422 7.60833 11.6255 7.525C11.7255 7.425 11.8505 7.375 12.0005 7.375C12.1338 7.375 12.2505 7.425 12.3505 7.525C12.4505 7.625 12.5005 7.74167 12.5005 7.875C12.5005 8.025 12.4505 8.15 12.3505 8.25C12.2505 8.33333 12.1338 8.375 12.0005 8.375Z" fill="black"/>
</g>
<defs>
<clipPath id="clip0_3204_9960">
<rect width="24" height="24" fill="white"/>
</clipPath>
</defs>
</svg>
