<svg width="24" height="24" viewBox="0 0 24 24" fill="none" xmlns="http://www.w3.org/2000/svg">
<g clip-path="url(#clip0_3205_12839)">
<rect width="24" height="24" fill="white"/>
<path d="M8.975 15.8C9.525 16.3167 10.2333 16.575 11.1 16.575C11.85 16.575 12.5583 16.3917 13.225 16.025C13.8917 15.6583 14.375 15.025 14.675 14.125L14.075 14.525V16.425H16.65V10C16.65 9.25 16.475 8.60833 16.125 8.075C15.775 7.525 15.2833 7.10833 14.65 6.825C14.0333 6.54167 13.325 6.4 12.525 6.4C11.6417 6.4 10.8333 6.55 10.1 6.85C9.38333 7.15 8.775 7.55833 8.275 8.075L9.525 9.775C9.95833 9.40833 10.4083 9.13333 10.875 8.95C11.3583 8.76667 11.8583 8.675 12.375 8.675C12.8417 8.675 13.2 8.775 13.45 8.975C13.7167 9.175 13.85 9.45 13.85 9.8C13.85 10.05 13.75 10.2333 13.55 10.35C13.3667 10.45 13.0917 10.5167 12.725 10.55L11.175 10.7C10.2417 10.8 9.5 11.1167 8.95 11.65C8.41667 12.1833 8.15 12.8583 8.15 13.675C8.15 14.5583 8.425 15.2667 8.975 15.8ZM12.775 14.275C12.475 14.3917 12.175 14.45 11.875 14.45C11.5417 14.45 11.2667 14.3583 11.05 14.175C10.85 13.9917 10.75 13.775 10.75 13.525C10.75 13.225 10.8583 12.9667 11.075 12.75C11.2917 12.5333 11.6167 12.4083 12.05 12.375L13.025 12.3C13.3583 12.2833 13.6 12.2417 13.75 12.175C13.9 12.1083 14.0333 12.0167 14.15 11.9C14.2167 11.8 14.3167 11.6833 14.45 11.55L13.85 11.45V12.7C13.85 13.1167 13.7417 13.4583 13.525 13.725C13.325 13.975 13.075 14.1583 12.775 14.275ZM20 22H4V2H15.425L20 6.575V22Z" fill="black"/>
</g>
<defs>
<clipPath id="clip0_3205_12839">
<rect width="24" height="24" fill="white"/>
</clipPath>
</defs>
</svg>
