<svg width="24" height="24" viewBox="0 0 24 24" fill="none" xmlns="http://www.w3.org/2000/svg">
<g clip-path="url(#clip0_3204_10728)">
<rect width="24" height="24" fill="white"/>
<path d="M4.00049 2H15.4255L20.0005 6.575V22H4.00049V2ZM19.0255 21.075V6.925L15.0505 2.925H4.97549V21.075H19.0255ZM11.3755 9.025H16.0005V9.925H11.3755V9.025ZM9.80049 11.3C9.28382 11.3 8.84216 11.125 8.47549 10.775C8.10882 10.425 7.92549 9.99167 7.92549 9.475C7.92549 8.95833 8.10882 8.525 8.47549 8.175C8.84216 7.825 9.28382 7.65 9.80049 7.65C10.3172 7.65 10.7505 7.825 11.1005 8.175C11.4672 8.525 11.6505 8.95833 11.6505 9.475C11.6505 9.99167 11.4672 10.425 11.1005 10.775C10.7505 11.125 10.3172 11.3 9.80049 11.3ZM9.80049 10.45C10.0672 10.45 10.2922 10.3583 10.4755 10.175C10.6755 9.99167 10.7755 9.75833 10.7755 9.475C10.7755 9.19167 10.6755 8.95833 10.4755 8.775C10.2922 8.59167 10.0672 8.5 9.80049 8.5C9.51716 8.5 9.28382 8.59167 9.10049 8.775C8.91716 8.95833 8.82549 9.19167 8.82549 9.475C8.82549 9.75833 8.91716 9.99167 9.10049 10.175C9.28382 10.3583 9.51716 10.45 9.80049 10.45ZM8.00049 14.925V14.025H12.8005V14.925H8.00049ZM14.2005 16.3C13.6838 16.3 13.2422 16.125 12.8755 15.775C12.5255 15.425 12.3505 14.9917 12.3505 14.475C12.3505 13.9583 12.5255 13.525 12.8755 13.175C13.2422 12.825 13.6838 12.65 14.2005 12.65C14.7172 12.65 15.1588 12.825 15.5255 13.175C15.8922 13.525 16.0755 13.9583 16.0755 14.475C16.0755 14.9917 15.8922 15.425 15.5255 15.775C15.1588 16.125 14.7172 16.3 14.2005 16.3ZM14.2005 15.45C14.4838 15.45 14.7172 15.3583 14.9005 15.175C15.0838 14.9917 15.1755 14.7583 15.1755 14.475C15.1755 14.1917 15.0838 13.9583 14.9005 13.775C14.7172 13.5917 14.4838 13.5 14.2005 13.5C13.9338 13.5 13.7005 13.5917 13.5005 13.775C13.3172 13.9583 13.2255 14.1917 13.2255 14.475C13.2255 14.7583 13.3172 14.9917 13.5005 15.175C13.7005 15.3583 13.9338 15.45 14.2005 15.45Z" fill="black"/>
</g>
<defs>
<clipPath id="clip0_3204_10728">
<rect width="24" height="24" fill="white"/>
</clipPath>
</defs>
</svg>
