<svg width="24" height="24" viewBox="0 0 24 24" fill="none" xmlns="http://www.w3.org/2000/svg">
<g clip-path="url(#clip0_3204_11510)">
<rect width="24" height="24" fill="white"/>
<path d="M4.00049 2H15.4255L20.0005 6.575V22H4.00049V2ZM18.5755 20.6V7.125L14.8505 3.4H5.42549V20.6H18.5755ZM10.9755 9.3C10.9755 8.7 11.1755 8.19167 11.5755 7.775C11.9922 7.35833 12.5005 7.15 13.1005 7.15C13.7172 7.15 14.2338 7.35833 14.6505 7.775C15.0672 8.19167 15.2755 8.7 15.2755 9.3V13.725C15.2755 14.3417 15.1255 14.9 14.8255 15.4C14.5422 15.9 14.1505 16.2917 13.6505 16.575C13.1505 16.8583 12.6005 17 12.0005 17C11.4005 17 10.8505 16.8583 10.3505 16.575C9.85049 16.2917 9.45049 15.9 9.15049 15.4C8.86716 14.9 8.72549 14.3417 8.72549 13.725V8.125H9.97549V13.725C9.97549 14.2917 10.1672 14.775 10.5505 15.175C10.9505 15.575 11.4338 15.775 12.0005 15.775C12.5672 15.775 13.0422 15.575 13.4255 15.175C13.8255 14.775 14.0255 14.2917 14.0255 13.725V9.3C14.0255 9.05 13.9338 8.83333 13.7505 8.65C13.5838 8.46667 13.3755 8.375 13.1255 8.375C12.8755 8.375 12.6588 8.46667 12.4755 8.65C12.3088 8.83333 12.2255 9.05 12.2255 9.3V13.725H10.9755V9.3Z" fill="black"/>
</g>
<defs>
<clipPath id="clip0_3204_11510">
<rect width="24" height="24" fill="white"/>
</clipPath>
</defs>
</svg>
