<svg width="24" height="24" viewBox="0 0 24 24" fill="none" xmlns="http://www.w3.org/2000/svg">
<g clip-path="url(#clip0_3204_10568)">
<rect width="24" height="24" fill="white"/>
<path d="M4 2H15.45L20 6.575V22H4V2ZM17 19.55V7.775L14.2 4.95H7V19.55H17ZM10.825 11.375C10.1917 11.375 9.65833 11.1583 9.225 10.725C8.79167 10.2917 8.575 9.75833 8.575 9.125C8.575 8.50833 8.79167 7.98333 9.225 7.55C9.65833 7.11667 10.1917 6.9 10.825 6.9C11.4583 6.9 11.9917 7.11667 12.425 7.55C12.8583 7.98333 13.075 8.50833 13.075 9.125C13.075 9.75833 12.8583 10.2917 12.425 10.725C11.9917 11.1583 11.4583 11.375 10.825 11.375ZM6.175 16.675L12.1 13.225C12.6167 12.925 13.15 12.775 13.7 12.775C14.25 12.775 14.7833 12.925 15.3 13.225L17.625 14.6V20.9H6.175V16.675Z" fill="black"/>
</g>
<defs>
<clipPath id="clip0_3204_10568">
<rect width="24" height="24" fill="white"/>
</clipPath>
</defs>
</svg>
