<svg width="24" height="24" viewBox="0 0 24 24" fill="none" xmlns="http://www.w3.org/2000/svg">
<g clip-path="url(#clip0_3205_12841)">
<rect width="24" height="24" fill="white"/>
<path d="M8.4 16.4C8.93333 16.9167 9.61667 17.175 10.45 17.175C10.95 17.175 11.45 17.0833 11.95 16.9C12.45 16.7167 12.8833 16.3917 13.25 15.925V17.025H16.25V10.825C16.25 10.0417 16.0667 9.375 15.7 8.825C15.3333 8.275 14.825 7.85833 14.175 7.575C13.5417 7.29167 12.8083 7.15 11.975 7.15C11.1083 7.15 10.3167 7.275 9.6 7.525C8.88333 7.775 8.25833 8.09167 7.725 8.475L8.95 10.625C9.43333 10.3083 9.90833 10.0833 10.375 9.95C10.8583 9.81667 11.3333 9.75 11.8 9.75C12.1833 9.75 12.4667 9.825 12.65 9.975C12.8333 10.125 12.925 10.325 12.925 10.575C12.925 10.7917 12.8333 10.9417 12.65 11.025C12.4833 11.1083 12.2417 11.1667 11.925 11.2L10.55 11.35C9.65 11.45 8.93333 11.7667 8.4 12.3C7.86667 12.8167 7.6 13.475 7.6 14.275C7.6 15.1583 7.86667 15.8667 8.4 16.4ZM12.1 14.6C11.8667 14.6833 11.6417 14.725 11.425 14.725C11.1917 14.725 11 14.6583 10.85 14.525C10.7 14.3917 10.625 14.2417 10.625 14.075C10.625 13.875 10.6917 13.6833 10.825 13.5C10.975 13.3 11.2167 13.1917 11.55 13.175L12.3 13.125C12.4 13.125 12.5 13.1083 12.6 13.075C12.7167 13.0417 12.825 13.0083 12.925 12.975V13.45C12.925 13.75 12.8417 14 12.675 14.2C12.525 14.3833 12.3333 14.5167 12.1 14.6ZM20 22H4V2H15.425L20 6.575V22Z" fill="black"/>
</g>
<defs>
<clipPath id="clip0_3205_12841">
<rect width="24" height="24" fill="white"/>
</clipPath>
</defs>
</svg>
