<svg width="24" height="24" viewBox="0 0 24 24" fill="none" xmlns="http://www.w3.org/2000/svg">
<g clip-path="url(#clip0_3204_11814)">
<rect width="24" height="24" fill="white"/>
<path d="M20 22H4V2H15.425L20 6.575V22ZM8.075 14.275L7.8 16.2L9.7 15.925L13.875 11.75C13.7583 11.6333 13.6667 11.55 13.6 11.5C13.55 11.4333 13.4583 11.3333 13.325 11.2L12.75 10.625C12.6333 10.5083 12.55 10.425 12.5 10.375C12.45 10.3083 12.3667 10.2167 12.25 10.1L8.075 14.275ZM13.3 9.05L14.925 10.675L15.925 9.7C16.0583 9.56667 16.125 9.425 16.125 9.275C16.125 9.125 16.0583 8.98333 15.925 8.85L15.125 8.05C14.9917 7.91667 14.85 7.85 14.7 7.85C14.55 7.85 14.4083 7.91667 14.275 8.05L13.3 9.05Z" fill="black"/>
</g>
<defs>
<clipPath id="clip0_3204_11814">
<rect width="24" height="24" fill="white"/>
</clipPath>
</defs>
</svg>
