<svg width="24" height="24" viewBox="0 0 24 24" fill="none" xmlns="http://www.w3.org/2000/svg">
<g clip-path="url(#clip0_3204_10062)">
<rect width="24" height="24" fill="white"/>
<path d="M4.00049 2H15.4255L20.0005 6.575V22H4.00049V2ZM16.6005 18.65V7.925L14.0255 5.35H7.40049V18.65H16.6005ZM11.8005 8.5L12.2505 7.9C12.5672 7.43333 13.0338 7.2 13.6505 7.2C14.1338 7.2 14.5172 7.35833 14.8005 7.675C15.0838 7.99167 15.2255 8.375 15.2255 8.825C15.2255 9.425 14.9172 10.0417 14.3005 10.675C13.6838 11.3083 12.9172 11.925 12.0005 12.525C11.0838 11.925 10.3172 11.3083 9.70049 10.675C9.08382 10.0417 8.77549 9.425 8.77549 8.825C8.77549 8.375 8.90882 7.99167 9.17549 7.675C9.45882 7.35833 9.84216 7.2 10.3255 7.2C10.9588 7.2 11.4338 7.43333 11.7505 7.9L12.2005 8.5H11.8005ZM11.7505 9.95H11.6755C11.4922 9.95 11.3005 9.95 11.1005 9.95C11.0005 9.95 10.9172 9.95 10.8505 9.95C10.8005 9.95 10.7255 9.95 10.6255 9.95C10.9422 9.95 11.1755 9.95 11.3255 9.95C11.4755 9.95 11.7005 9.95 12.0005 9.95C12.3172 9.95 12.5505 9.95 12.7005 9.95C12.8505 9.95 13.0755 9.95 13.3755 9.95C13.2755 9.95 13.1922 9.95 13.1255 9.95C13.0755 9.95 13.0005 9.95 12.9005 9.95C12.7172 9.95 12.5255 9.95 12.3255 9.95H12.2505H11.7505ZM8.50049 14H15.5005V17.45H8.50049V14ZM11.8755 15.625H12.1255H11.8755Z" fill="black"/>
</g>
<defs>
<clipPath id="clip0_3204_10062">
<rect width="24" height="24" fill="white"/>
</clipPath>
</defs>
</svg>
