<svg width="24" height="24" viewBox="0 0 24 24" fill="none" xmlns="http://www.w3.org/2000/svg">
<g clip-path="url(#clip0_3204_10924)">
<rect width="24" height="24" fill="white"/>
<path d="M20 22H4V2H15.425L20 6.575V22ZM11.675 12.225C11.475 12.6083 11.375 13.0417 11.375 13.525V14.075H12.325V13.55C12.325 13.2 12.3917 12.8917 12.525 12.625C12.6583 12.3583 12.925 12.1 13.325 11.85C13.8417 11.5333 14.25 11.2083 14.55 10.875C14.8667 10.525 15.025 10.1083 15.025 9.625C15.025 8.89167 14.75 8.31667 14.2 7.9C13.65 7.46667 12.9083 7.25 11.975 7.25C11.1417 7.25 10.45 7.44167 9.9 7.825C9.36667 8.20833 9.03333 8.75 8.9 9.45L9.775 9.6C9.85833 9.11667 10.0833 8.75 10.45 8.5C10.8333 8.25 11.325 8.125 11.925 8.125C12.625 8.125 13.1583 8.25833 13.525 8.525C13.8917 8.775 14.075 9.13333 14.075 9.6C14.075 9.95 13.95 10.25 13.7 10.5C13.4667 10.75 13.1167 11 12.65 11.25C12.2 11.5 11.875 11.825 11.675 12.225ZM11.35 16.3C11.4833 16.4333 11.6583 16.5 11.875 16.5C12.0917 16.5 12.2667 16.4333 12.4 16.3C12.5333 16.1667 12.6 15.9917 12.6 15.775C12.6 15.575 12.5333 15.4083 12.4 15.275C12.2667 15.1417 12.0917 15.075 11.875 15.075C11.675 15.075 11.5083 15.1417 11.375 15.275C11.2417 15.4083 11.175 15.575 11.175 15.775C11.175 15.9917 11.2333 16.1667 11.35 16.3Z" fill="black"/>
</g>
<defs>
<clipPath id="clip0_3204_10924">
<rect width="24" height="24" fill="white"/>
</clipPath>
</defs>
</svg>
