<svg width="24" height="24" viewBox="0 0 24 24" fill="none" xmlns="http://www.w3.org/2000/svg">
<g clip-path="url(#clip0_3204_10686)">
<rect width="24" height="24" fill="white"/>
<path d="M4.00049 2H15.4255L20.0005 6.575V22H4.00049V2ZM16.6005 18.65V7.925L14.0255 5.35H7.40049V18.65H16.6005ZM8.97549 10.125C8.97549 9.325 9.25882 8.675 9.82549 8.175C10.3922 7.65833 11.1172 7.4 12.0005 7.4C12.9005 7.4 13.6338 7.65833 14.2005 8.175C14.7672 8.675 15.0505 9.325 15.0505 10.125V11.85H12.5505V10.125C12.5505 9.99167 12.5005 9.88333 12.4005 9.8C12.3005 9.7 12.1672 9.65 12.0005 9.65C11.8505 9.65 11.7255 9.7 11.6255 9.8C11.5255 9.88333 11.4755 9.99167 11.4755 10.125V11.85H8.97549V10.125ZM8.00049 10.75H16.0005V16H8.00049V10.75ZM13.3505 13.725V12.9H10.6505V13.725H13.3505Z" fill="black"/>
</g>
<defs>
<clipPath id="clip0_3204_10686">
<rect width="24" height="24" fill="white"/>
</clipPath>
</defs>
</svg>
