<svg width="24" height="24" viewBox="0 0 24 24" fill="none" xmlns="http://www.w3.org/2000/svg">
<g clip-path="url(#clip0_3204_10060)">
<rect width="24" height="24" fill="white"/>
<path d="M4.00049 2H15.4255L20.0005 6.575V22H4.00049V2ZM17.1005 19.15V7.7L14.2255 4.85H6.90049V19.15H17.1005ZM10.4505 7.325L10.8255 6.825C11.1255 6.39167 11.5422 6.175 12.0755 6.175C12.5255 6.175 12.8755 6.31667 13.1255 6.6C13.3755 6.86667 13.5005 7.20833 13.5005 7.625C13.5005 8.15833 13.2255 8.70833 12.6755 9.275C12.1255 9.825 11.4422 10.3833 10.6255 10.95C9.79216 10.4 9.10049 9.84167 8.55049 9.275C8.00049 8.70833 7.72549 8.15833 7.72549 7.625C7.72549 7.225 7.85049 6.88333 8.10049 6.6C8.35049 6.31667 8.69216 6.175 9.12549 6.175C9.67549 6.175 10.1088 6.39167 10.4255 6.825L10.7755 7.325H10.4505ZM10.4005 8.625H10.3505C10.1672 8.625 9.98382 8.625 9.80049 8.625C9.71716 8.625 9.65049 8.625 9.60049 8.625C9.55049 8.625 9.48382 8.625 9.40049 8.625C9.68382 8.625 9.88382 8.625 10.0005 8.625C10.1338 8.625 10.3422 8.625 10.6255 8.625C10.9088 8.625 11.1172 8.625 11.2505 8.625C11.3838 8.625 11.5838 8.625 11.8505 8.625C11.7672 8.625 11.6922 8.625 11.6255 8.625C11.5755 8.625 11.5088 8.625 11.4255 8.625C11.2588 8.625 11.0838 8.625 10.9005 8.625H10.8505H10.4005ZM8.17549 14.475H15.8255V17.25H8.17549V14.475ZM11.8755 15.825H12.1255H11.8755Z" fill="black"/>
</g>
<defs>
<clipPath id="clip0_3204_10060">
<rect width="24" height="24" fill="white"/>
</clipPath>
</defs>
</svg>
