<svg width="24" height="24" viewBox="0 0 24 24" fill="none" xmlns="http://www.w3.org/2000/svg">
<g clip-path="url(#clip0_3205_12885)">
<rect width="24" height="24" fill="white"/>
<path d="M20 22H4V2H15.425L20 6.575V22ZM11.275 10.475V17.125H12.725V10.475H11.275ZM11.275 8.475C11.4583 8.65833 11.7 8.75 12 8.75C12.2833 8.75 12.5167 8.65833 12.7 8.475C12.9 8.275 13 8.025 13 7.725C13 7.45833 12.9 7.23333 12.7 7.05C12.5167 6.85 12.2833 6.75 12 6.75C11.7 6.75 11.4583 6.84167 11.275 7.025C11.0917 7.20833 11 7.44167 11 7.725C11 8.025 11.0917 8.275 11.275 8.475Z" fill="black"/>
</g>
<defs>
<clipPath id="clip0_3205_12885">
<rect width="24" height="24" fill="white"/>
</clipPath>
</defs>
</svg>
