<svg width="24" height="24" viewBox="0 0 24 24" fill="none" xmlns="http://www.w3.org/2000/svg">
<g clip-path="url(#clip0_3204_10970)">
<rect width="24" height="24" fill="white"/>
<path d="M4.00049 2H15.4255L20.0005 6.575V22H4.00049V2ZM17.0005 19.05V7.775L14.2005 4.95H7.00049V19.05H17.0005ZM8.85049 10.475C8.85049 9.89167 8.99216 9.36667 9.27549 8.9C9.55882 8.41667 9.93382 8.03333 10.4005 7.75C10.8838 7.46667 11.4172 7.325 12.0005 7.325C12.5838 7.325 13.1088 7.46667 13.5755 7.75C14.0588 8.03333 14.4422 8.41667 14.7255 8.9C15.0088 9.36667 15.1505 9.89167 15.1505 10.475C15.1505 11.3083 14.8505 12.0333 14.2505 12.65C13.6505 13.2667 12.9088 13.5917 12.0255 13.625L13.3505 11.425V16.85L10.6755 16.45V11.425L11.9755 13.625C11.0922 13.5917 10.3505 13.275 9.75049 12.675C9.15049 12.0583 8.85049 11.325 8.85049 10.475ZM11.1755 10.475C11.1755 10.7083 11.2505 10.9083 11.4005 11.075C11.5672 11.225 11.7672 11.3 12.0005 11.3C12.2338 11.3 12.4255 11.225 12.5755 11.075C12.7422 10.9083 12.8255 10.7083 12.8255 10.475C12.8255 10.2417 12.7422 10.05 12.5755 9.9C12.4255 9.73333 12.2338 9.65 12.0005 9.65C11.7672 9.65 11.5672 9.73333 11.4005 9.9C11.2505 10.0667 11.1755 10.2583 11.1755 10.475Z" fill="black"/>
</g>
<defs>
<clipPath id="clip0_3204_10970">
<rect width="24" height="24" fill="white"/>
</clipPath>
</defs>
</svg>
