<svg width="24" height="24" viewBox="0 0 24 24" fill="none" xmlns="http://www.w3.org/2000/svg">
<g clip-path="url(#clip0_3204_9870)">
<rect width="24" height="24" fill="white"/>
<path d="M9.67549 10.125C9.05882 10.125 8.52549 9.90833 8.07549 9.475C7.64216 9.025 7.42549 8.49167 7.42549 7.875C7.42549 7.25833 7.64216 6.74167 8.07549 6.325C8.50882 5.89167 9.04216 5.675 9.67549 5.675C10.3088 5.675 10.8422 5.89167 11.2755 6.325C11.7088 6.74167 11.9255 7.25833 11.9255 7.875C11.9255 8.49167 11.7088 9.025 11.2755 9.475C10.8422 9.90833 10.3088 10.125 9.67549 10.125ZM9.67549 9.675C10.1755 9.675 10.5922 9.5 10.9255 9.15C11.2755 8.8 11.4505 8.375 11.4505 7.875C11.4505 7.39167 11.2755 6.98333 10.9255 6.65C10.5922 6.3 10.1755 6.125 9.67549 6.125C9.17549 6.125 8.75049 6.3 8.40049 6.65C8.06716 6.98333 7.90049 7.39167 7.90049 7.875C7.90049 8.375 8.06716 8.8 8.40049 9.15C8.75049 9.5 9.17549 9.675 9.67549 9.675ZM4.12549 17.35L12.2005 12.675C12.9172 12.2583 13.6505 12.05 14.4005 12.05C15.1505 12.05 15.8838 12.2583 16.6005 12.675L19.7755 14.5V15.05L16.3755 13.1C15.7422 12.7167 15.0838 12.525 14.4005 12.525C13.7338 12.525 13.0755 12.7167 12.4255 13.1L4.12549 17.9V17.35ZM4.00049 2H15.4255L20.0005 6.575V22H4.00049V2ZM19.5005 21.525V6.75L15.2255 2.475H4.50049V21.525H19.5005Z" fill="black"/>
</g>
<defs>
<clipPath id="clip0_3204_9870">
<rect width="24" height="24" fill="white"/>
</clipPath>
</defs>
</svg>
