<svg width="24" height="24" viewBox="0 0 24 24" fill="none" xmlns="http://www.w3.org/2000/svg">
<g clip-path="url(#clip0_3204_10972)">
<rect width="24" height="24" fill="white"/>
<path d="M4.00049 2H15.4255L20.0005 6.575V22H4.00049V2ZM16.6005 18.65V7.925L14.0255 5.35H7.40049V18.65H16.6005ZM8.87549 10.525C8.87549 9.65833 9.17549 8.925 9.77549 8.325C10.3922 7.70833 11.1338 7.4 12.0005 7.4C12.8838 7.4 13.6255 7.70833 14.2255 8.325C14.8255 8.925 15.1255 9.65833 15.1255 10.525C15.1255 11.3417 14.8255 12.0583 14.2255 12.675C13.6255 13.275 12.8922 13.6 12.0255 13.65L13.3755 11.35V16.85L10.6255 16.45V11.35L11.9755 13.65C11.1088 13.6 10.3755 13.275 9.77549 12.675C9.17549 12.0583 8.87549 11.3417 8.87549 10.525ZM11.2505 10.525C11.2505 10.7417 11.3172 10.925 11.4505 11.075C11.6005 11.2083 11.7838 11.275 12.0005 11.275C12.2172 11.275 12.3922 11.2083 12.5255 11.075C12.6755 10.925 12.7505 10.7417 12.7505 10.525C12.7505 10.3083 12.6755 10.1333 12.5255 10C12.3922 9.85 12.2172 9.775 12.0005 9.775C11.7838 9.775 11.6005 9.85 11.4505 10C11.3172 10.1333 11.2505 10.3083 11.2505 10.525Z" fill="black"/>
</g>
<defs>
<clipPath id="clip0_3204_10972">
<rect width="24" height="24" fill="white"/>
</clipPath>
</defs>
</svg>
