<svg width="24" height="24" viewBox="0 0 24 24" fill="none" xmlns="http://www.w3.org/2000/svg">
<g clip-path="url(#clip0_3204_11762)">
<rect width="24" height="24" fill="white"/>
<path d="M20 22H4V2H15.425L20 6.575V22ZM16.25 16.25V7.75H7.75V16.25H16.25ZM12.825 9.425H14.525V11.2H12.825V9.425ZM11.175 14.575H9.475V12.8H11.175V14.575ZM11.175 11.2H9.475V9.425H11.175V11.2ZM14.525 14.575H12.825V12.8H14.525V14.575ZM11.95 12H11.875H11.95ZM11.95 12H11.875H11.95ZM12.125 12H12.05H12.125ZM12.125 12H12.05H12.125Z" fill="black"/>
</g>
<defs>
<clipPath id="clip0_3204_11762">
<rect width="24" height="24" fill="white"/>
</clipPath>
</defs>
</svg>
