<svg width="24" height="24" viewBox="0 0 24 24" fill="none" xmlns="http://www.w3.org/2000/svg">
<g clip-path="url(#clip0_3204_11178)">
<rect width="24" height="24" fill="white"/>
<path d="M4.00049 2H15.4255L20.0005 6.575V22H4.00049V2ZM17.0005 19.05V7.775L14.2005 4.95H7.00049V19.05H17.0005ZM13.1755 9.225L13.7255 9.6L14.9255 8.975L16.0755 10.975L14.9255 11.625V12.3L16.0755 13.025L14.9255 15.025L13.7505 14.3L13.1755 14.675L13.1505 16.05H10.8505L10.8255 14.675L10.2755 14.325L9.07549 15.025L7.92549 13.025L9.07549 12.3V11.625L7.92549 10.975L9.07549 8.975L10.2505 9.6L10.8255 9.225L10.8505 7.95H13.1505L13.1755 9.225ZM12.0005 12.975C12.2838 12.975 12.5172 12.8833 12.7005 12.7C12.8838 12.5 12.9755 12.2667 12.9755 12C12.9755 11.7333 12.8838 11.5083 12.7005 11.325C12.5172 11.125 12.2838 11.025 12.0005 11.025C11.7338 11.025 11.5005 11.1167 11.3005 11.3C11.1172 11.4833 11.0255 11.7167 11.0255 12C11.0255 12.2667 11.1172 12.5 11.3005 12.7C11.5005 12.8833 11.7338 12.975 12.0005 12.975ZM14.0755 10.875H14.0505H14.0005H14.0255H14.0005H14.0505H14.0755H14.1755H14.2005H14.2505H14.2255H14.2505H14.2005H14.1755H14.0755ZM14.1505 10.875H14.1755H14.2005H14.2255H14.2005H14.2255H14.2005H14.1755H14.1505H14.1005H14.0755H14.0505H14.0255H14.0505H14.0255H14.0505H14.0755H14.1005H14.1505ZM14.1255 10.875C14.1088 10.875 14.1005 10.875 14.1005 10.875C14.1005 10.875 14.0922 10.875 14.0755 10.875C14.0922 10.875 14.1005 10.875 14.1005 10.875C14.1005 10.875 14.1088 10.875 14.1255 10.875C14.1422 10.875 14.1505 10.875 14.1505 10.875C14.1505 10.875 14.1588 10.875 14.1755 10.875C14.1588 10.875 14.1505 10.875 14.1505 10.875C14.1505 10.875 14.1422 10.875 14.1255 10.875ZM14.1255 10.875C14.1422 10.875 14.1505 10.875 14.1505 10.875C14.1505 10.875 14.1422 10.875 14.1255 10.875C14.1255 10.875 14.1172 10.875 14.1005 10.875C14.1172 10.875 14.1255 10.875 14.1255 10.875Z" fill="black"/>
</g>
<defs>
<clipPath id="clip0_3204_11178">
<rect width="24" height="24" fill="white"/>
</clipPath>
</defs>
</svg>
