<svg width="24" height="24" viewBox="0 0 24 24" fill="none" xmlns="http://www.w3.org/2000/svg">
<g clip-path="url(#clip0_3204_11726)">
<rect width="24" height="24" fill="white"/>
<path d="M4.00049 2H15.4255L20.0005 6.575V22H4.00049V2ZM16.4505 18.5V8L13.9505 5.5H7.55049V18.5H16.4505ZM9.27549 14.6C9.05882 14.6 8.86716 14.525 8.70049 14.375C8.55049 14.2083 8.47549 14.0167 8.47549 13.8V10.225C8.47549 10.0083 8.55049 9.825 8.70049 9.675C8.86716 9.50833 9.05882 9.425 9.27549 9.425H12.4255C12.6422 9.425 12.8255 9.50833 12.9755 9.675C13.1255 9.825 13.2005 10.0083 13.2005 10.225V13.8C13.2005 14.0167 13.1255 14.2083 12.9755 14.375C12.8255 14.525 12.6422 14.6 12.4255 14.6H9.27549ZM10.0505 12.85C10.0672 12.85 10.0755 12.85 10.0755 12.85C10.0755 12.85 10.0838 12.85 10.1005 12.85H12.1005C12.1172 12.85 12.1255 12.85 12.1255 12.85C12.1255 12.85 12.1338 12.85 12.1505 12.85C12.1338 12.85 12.1255 12.85 12.1255 12.85C12.1255 12.85 12.1172 12.85 12.1005 12.85H10.1005C10.0838 12.85 10.0755 12.85 10.0755 12.85C10.0755 12.85 10.0672 12.85 10.0505 12.85ZM13.2005 11.15L14.5005 10.1H15.5005V13.925H14.5005L13.2005 12.875V11.15ZM11.0755 10.025H10.8755H11.0755Z" fill="black"/>
</g>
<defs>
<clipPath id="clip0_3204_11726">
<rect width="24" height="24" fill="white"/>
</clipPath>
</defs>
</svg>
