<svg width="24" height="24" viewBox="0 0 24 24" fill="none" xmlns="http://www.w3.org/2000/svg">
<g clip-path="url(#clip0_3204_11842)">
<rect width="24" height="24" fill="white"/>
<path d="M20 22H4V2H15.425L20 6.575V22ZM7.725 16.075C8.04167 16.3917 8.425 16.55 8.875 16.55H10.85V12.65H9.45V11.375C9.45 10.8417 9.68333 10.4 10.15 10.05C10.6167 9.7 11.2333 9.525 12 9.525C12.7667 9.525 13.3833 9.7 13.85 10.05C14.3167 10.4 14.55 10.8417 14.55 11.375V12.65H13.15V16.55H15.125C15.575 16.55 15.9583 16.3917 16.275 16.075C16.5917 15.7583 16.75 15.375 16.75 14.925V11.4C16.75 10.6167 16.55 9.925 16.15 9.325C15.7667 8.70833 15.2083 8.23333 14.475 7.9C13.7583 7.55 12.9333 7.375 12 7.375C11.0667 7.375 10.2333 7.55 9.5 7.9C8.78333 8.23333 8.225 8.70833 7.825 9.325C7.44167 9.925 7.25 10.6167 7.25 11.4V14.925C7.25 15.375 7.40833 15.7583 7.725 16.075Z" fill="black"/>
</g>
<defs>
<clipPath id="clip0_3204_11842">
<rect width="24" height="24" fill="white"/>
</clipPath>
</defs>
</svg>
