<svg width="24" height="24" viewBox="0 0 24 24" fill="none" xmlns="http://www.w3.org/2000/svg">
<g clip-path="url(#clip0_3204_12046)">
<rect width="24" height="24" fill="white"/>
<path d="M20 22H4V2H15.425L20 6.575V22ZM10.75 13.175V11.7L7.725 14.775L10.75 17.825V16.4V15.65H12.075C12.825 15.65 13.5083 15.475 14.125 15.125C14.7583 14.7583 15.2583 14.2667 15.625 13.65C15.9917 13.0167 16.175 12.325 16.175 11.575C16.175 10.825 15.9917 10.1417 15.625 9.525C15.2583 8.89167 14.7583 8.4 14.125 8.05C13.5083 7.68333 12.825 7.5 12.075 7.5H8.225V9.3H12.075C12.5083 9.3 12.9 9.4 13.25 9.6C13.6 9.8 13.875 10.075 14.075 10.425C14.275 10.775 14.375 11.1583 14.375 11.575C14.375 12.0083 14.275 12.4 14.075 12.75C13.875 13.1 13.6 13.375 13.25 13.575C12.9 13.775 12.5083 13.875 12.075 13.875H10.75V13.175Z" fill="black"/>
</g>
<defs>
<clipPath id="clip0_3204_12046">
<rect width="24" height="24" fill="white"/>
</clipPath>
</defs>
</svg>
