<svg width="24" height="24" viewBox="0 0 24 24" fill="none" xmlns="http://www.w3.org/2000/svg">
<g clip-path="url(#clip0_3204_10916)">
<rect width="24" height="24" fill="white"/>
<path d="M4.00049 2H15.4255L20.0005 6.575V22H4.00049V2ZM17.5505 19.6V7.525L14.4255 4.4H6.45049V19.6H17.5505ZM10.7505 12.95C10.7505 12.55 10.8422 12.1667 11.0255 11.8C11.2088 11.4167 11.5422 11.1083 12.0255 10.875C12.3755 10.7083 12.6172 10.5583 12.7505 10.425C12.8838 10.2917 12.9505 10.125 12.9505 9.925C12.9505 9.70833 12.8505 9.53333 12.6505 9.4C12.4505 9.26667 12.1755 9.2 11.8255 9.2C11.4755 9.2 11.1588 9.275 10.8755 9.425C10.5922 9.55833 10.3588 9.76667 10.1755 10.05L8.65049 9.1C8.98382 8.46667 9.40882 8 9.92549 7.7C10.4588 7.4 11.1255 7.25 11.9255 7.25C12.9588 7.25 13.7505 7.49167 14.3005 7.975C14.8672 8.45833 15.1505 9.075 15.1505 9.825C15.1505 10.3417 15.0088 10.7917 14.7255 11.175C14.4422 11.5417 14.0505 11.875 13.5505 12.175C13.2672 12.3417 13.0838 12.5083 13.0005 12.675C12.9338 12.825 12.9005 12.9917 12.9005 13.175V13.3H10.7755L10.7505 12.95ZM11.8755 16.625C11.4588 16.625 11.1255 16.5 10.8755 16.25C10.6255 16 10.5005 15.675 10.5005 15.275C10.5005 14.875 10.6255 14.55 10.8755 14.3C11.1255 14.05 11.4588 13.925 11.8755 13.925C12.2922 13.925 12.6255 14.05 12.8755 14.3C13.1422 14.55 13.2755 14.875 13.2755 15.275C13.2755 15.675 13.1422 16 12.8755 16.25C12.6255 16.5 12.2922 16.625 11.8755 16.625Z" fill="black"/>
</g>
<defs>
<clipPath id="clip0_3204_10916">
<rect width="24" height="24" fill="white"/>
</clipPath>
</defs>
</svg>
