<svg width="24" height="24" viewBox="0 0 24 24" fill="none" xmlns="http://www.w3.org/2000/svg">
<g clip-path="url(#clip0_3204_10974)">
<rect width="24" height="24" fill="white"/>
<path d="M20 22H4V2H15.425L20 6.575V22ZM9.675 8.325C9.44167 8.725 9.325 9.16667 9.325 9.65C9.325 10.1833 9.48333 10.6833 9.8 11.15C10.1333 11.6 10.5583 11.9167 11.075 12.1V16.575L12.825 16.975V12.1C13.3583 11.9167 13.7833 11.6 14.1 11.15C14.4167 10.6833 14.575 10.1833 14.575 9.65C14.575 9.16667 14.4583 8.725 14.225 8.325C13.9917 7.925 13.675 7.60833 13.275 7.375C12.875 7.14167 12.4333 7.025 11.95 7.025C11.4667 7.025 11.025 7.14167 10.625 7.375C10.225 7.60833 9.90833 7.925 9.675 8.325ZM11.275 9.625C11.1083 9.44167 11.025 9.21667 11.025 8.95C11.025 8.68333 11.1083 8.46667 11.275 8.3C11.4583 8.11667 11.6833 8.025 11.95 8.025C12.2167 8.025 12.4333 8.11667 12.6 8.3C12.7833 8.46667 12.875 8.68333 12.875 8.95C12.875 9.21667 12.7833 9.44167 12.6 9.625C12.4333 9.79167 12.2167 9.875 11.95 9.875C11.6833 9.875 11.4583 9.79167 11.275 9.625Z" fill="black"/>
</g>
<defs>
<clipPath id="clip0_3204_10974">
<rect width="24" height="24" fill="white"/>
</clipPath>
</defs>
</svg>
