<svg width="24" height="24" viewBox="0 0 24 24" fill="none" xmlns="http://www.w3.org/2000/svg">
<g clip-path="url(#clip0_3204_10658)">
<rect width="24" height="24" fill="white"/>
<path d="M4.00049 2H15.4255L20.0005 6.575V22H4.00049V2ZM17.0005 19.05V7.775L14.2005 4.95H7.00049V19.05H17.0005ZM12.7755 10.15V9.7V9.3V6.625L15.8505 9.725L12.7755 12.85V10.15ZM13.0005 8.55V11H11.9255C11.5588 11 11.2588 11.125 11.0255 11.375C10.7922 11.6083 10.6755 11.9083 10.6755 12.275C10.6755 12.6417 10.7922 12.95 11.0255 13.2C11.2588 13.4333 11.5588 13.55 11.9255 13.55H15.3755V16H11.9255C11.2088 16 10.5672 15.8417 10.0005 15.525C9.43382 15.1917 8.98382 14.7417 8.65049 14.175C8.33382 13.6083 8.17549 12.975 8.17549 12.275C8.17549 11.5583 8.33382 10.925 8.65049 10.375C8.98382 9.80833 9.43382 9.36667 10.0005 9.05C10.5672 8.71667 11.2088 8.55 11.9255 8.55H13.0005Z" fill="black"/>
</g>
<defs>
<clipPath id="clip0_3204_10658">
<rect width="24" height="24" fill="white"/>
</clipPath>
</defs>
</svg>
