<svg width="24" height="24" viewBox="0 0 24 24" fill="none" xmlns="http://www.w3.org/2000/svg">
<g clip-path="url(#clip0_3204_10682)">
<rect width="24" height="24" fill="white"/>
<path d="M4.00049 2H15.4255L20.0005 6.575V22H4.00049V2ZM17.6005 19.65V7.5L14.4505 4.35H6.40049V19.65H17.6005ZM9.30049 10C9.30049 9.23333 9.55049 8.60833 10.0505 8.125C10.5505 7.64167 11.2005 7.4 12.0005 7.4C12.8005 7.4 13.4505 7.64167 13.9505 8.125C14.4672 8.60833 14.7255 9.23333 14.7255 10V11.925H12.8255V10C12.8255 9.76667 12.7505 9.575 12.6005 9.425C12.4505 9.25833 12.2505 9.175 12.0005 9.175C11.7672 9.175 11.5672 9.25833 11.4005 9.425C11.2505 9.575 11.1755 9.76667 11.1755 10V11.925H9.30049V10ZM8.00049 10.75H16.0005V16H8.00049V10.75ZM14.0255 14.175V12.525H9.97549V14.175H14.0255Z" fill="black"/>
</g>
<defs>
<clipPath id="clip0_3204_10682">
<rect width="24" height="24" fill="white"/>
</clipPath>
</defs>
</svg>
