<svg width="24" height="24" viewBox="0 0 24 24" fill="none" xmlns="http://www.w3.org/2000/svg">
<g clip-path="url(#clip0_3204_9858)">
<rect width="24" height="24" fill="white"/>
<path d="M4.00049 2H15.4255L20.0005 6.575V22H4.00049V2ZM19.5005 21.525V6.75L15.2255 2.475H4.50049V21.525H19.5005ZM11.8505 9.725L12.3255 9.125C12.6088 8.75833 12.9255 8.48333 13.2755 8.3C13.6255 8.11667 14.0005 8.025 14.4005 8.025C15.1172 8.025 15.7005 8.26667 16.1505 8.75C16.6005 9.23333 16.8255 9.825 16.8255 10.525C16.8255 11.475 16.3672 12.4583 15.4505 13.475C14.5338 14.4917 13.3922 15.4833 12.0255 16.45C10.6755 15.5 9.53382 14.525 8.60049 13.525C7.66716 12.525 7.20049 11.5417 7.20049 10.575C7.20049 9.85833 7.42549 9.25833 7.87549 8.775C8.32549 8.275 8.90882 8.025 9.62549 8.025C10.0088 8.025 10.3672 8.10833 10.7005 8.275C11.0338 8.44167 11.3338 8.69167 11.6005 9.025L12.1755 9.725H11.8505ZM11.7505 9.95L11.2755 9.325C11.0422 9.04167 10.7922 8.83333 10.5255 8.7C10.2588 8.55 9.95882 8.475 9.62549 8.475C9.04216 8.475 8.57549 8.675 8.22549 9.075C7.87549 9.475 7.70049 9.975 7.70049 10.575C7.70049 11.275 8.05882 12.075 8.77549 12.975C9.49216 13.8583 10.5755 14.8167 12.0255 15.85C13.4755 14.8167 14.5588 13.85 15.2755 12.95C15.9922 12.0333 16.3505 11.225 16.3505 10.525C16.3505 9.94167 16.1672 9.45833 15.8005 9.075C15.4505 8.675 14.9838 8.475 14.4005 8.475C14.0672 8.475 13.7588 8.55 13.4755 8.7C13.1922 8.85 12.9338 9.075 12.7005 9.375L12.2505 9.95H11.7505Z" fill="black"/>
</g>
<defs>
<clipPath id="clip0_3204_9858">
<rect width="24" height="24" fill="white"/>
</clipPath>
</defs>
</svg>
