<svg width="24" height="24" viewBox="0 0 24 24" fill="none" xmlns="http://www.w3.org/2000/svg">
<g clip-path="url(#clip0_3204_11960)">
<rect width="24" height="24" fill="white"/>
<path d="M4.00049 2H15.4255L20.0005 6.575V22H4.00049V2ZM16.4505 18.5V8L13.9505 5.5H7.55049V18.5H16.4505ZM12.0005 13.35C12.2505 13.35 12.4755 13.2917 12.6755 13.175C12.8922 13.0583 13.0588 12.9 13.1755 12.7C13.2922 12.4833 13.3505 12.25 13.3505 12C13.3505 11.75 13.2922 11.525 13.1755 11.325C13.0588 11.1083 12.8922 10.9417 12.6755 10.825C12.4755 10.7083 12.2505 10.65 12.0005 10.65C11.7505 10.65 11.5172 10.7083 11.3005 10.825C11.1005 10.9417 10.9422 11.1083 10.8255 11.325C10.7088 11.525 10.6505 11.75 10.6505 12C10.6505 12.25 10.7088 12.4833 10.8255 12.7C10.9422 12.9 11.1005 13.0583 11.3005 13.175C11.5172 13.2917 11.7505 13.35 12.0005 13.35ZM12.0005 16C11.2672 16 10.5922 15.825 9.97549 15.475C9.37549 15.1083 8.89216 14.625 8.52549 14.025C8.17549 13.4083 8.00049 12.7333 8.00049 12C8.00049 11.2667 8.17549 10.6 8.52549 10C8.89216 9.38333 9.37549 8.9 9.97549 8.55C10.5922 8.18333 11.2672 8 12.0005 8C12.7338 8 13.4005 8.18333 14.0005 8.55C14.6172 8.9 15.1005 9.38333 15.4505 10C15.8172 10.6 16.0005 11.2667 16.0005 12C16.0005 12.7333 15.8172 13.4083 15.4505 14.025C15.1005 14.625 14.6172 15.1083 14.0005 15.475C13.4005 15.825 12.7338 16 12.0005 16ZM13.7255 9.2L14.1755 9.875L14.7755 10.3V12H12.0505C12.0338 12 12.0172 12 12.0005 12C12.0005 11.9833 12.0005 11.9667 12.0005 11.95V9.2H13.7255Z" fill="black"/>
</g>
<defs>
<clipPath id="clip0_3204_11960">
<rect width="24" height="24" fill="white"/>
</clipPath>
</defs>
</svg>
