<svg width="24" height="24" viewBox="0 0 24 24" fill="none" xmlns="http://www.w3.org/2000/svg">
<g clip-path="url(#clip0_3204_10094)">
<rect width="24" height="24" fill="white"/>
<path d="M20 22H4V2H15.425L20 6.575V22ZM11.375 9.65C11.5583 9.81667 11.7667 9.9 12 9.9C12.2333 9.9 12.4333 9.81667 12.6 9.65C12.7833 9.48333 12.875 9.275 12.875 9.025C12.875 8.775 12.7917 8.575 12.625 8.425C12.4583 8.25833 12.25 8.175 12 8.175C11.7667 8.175 11.5583 8.25833 11.375 8.425C11.2083 8.575 11.125 8.775 11.125 9.025C11.125 9.275 11.2083 9.48333 11.375 9.65ZM7.875 9.65C8.04167 9.81667 8.25 9.9 8.5 9.9C8.75 9.9 8.95833 9.81667 9.125 9.65C9.29167 9.48333 9.375 9.275 9.375 9.025C9.375 8.775 9.29167 8.575 9.125 8.425C8.95833 8.25833 8.75 8.175 8.5 8.175C8.25 8.175 8.04167 8.25833 7.875 8.425C7.725 8.575 7.65 8.775 7.65 9.025C7.65 9.275 7.725 9.48333 7.875 9.65ZM14.875 9.65C15.0417 9.81667 15.25 9.9 15.5 9.9C15.75 9.9 15.95 9.81667 16.1 9.65C16.2667 9.48333 16.35 9.275 16.35 9.025C16.35 8.775 16.2667 8.575 16.1 8.425C15.95 8.25833 15.75 8.175 15.5 8.175C15.25 8.175 15.0417 8.25833 14.875 8.425C14.7083 8.575 14.625 8.775 14.625 9.025C14.625 9.275 14.7083 9.48333 14.875 9.65ZM11.375 13.075C11.5583 13.2417 11.7667 13.325 12 13.325C12.25 13.325 12.4583 13.2417 12.625 13.075C12.7917 12.8917 12.875 12.6833 12.875 12.45C12.875 12.2 12.7917 11.9917 12.625 11.825C12.4583 11.6583 12.25 11.575 12 11.575C11.7667 11.575 11.5583 11.6583 11.375 11.825C11.2083 11.9917 11.125 12.2 11.125 12.45C11.125 12.6833 11.2083 12.8917 11.375 13.075ZM7.875 13.075C8.04167 13.2417 8.25 13.325 8.5 13.325C8.75 13.325 8.95833 13.2417 9.125 13.075C9.29167 12.8917 9.375 12.6833 9.375 12.45C9.375 12.2 9.29167 11.9917 9.125 11.825C8.95833 11.6583 8.75 11.575 8.5 11.575C8.25 11.575 8.04167 11.6583 7.875 11.825C7.725 11.9917 7.65 12.2 7.65 12.45C7.65 12.6833 7.725 12.8917 7.875 13.075ZM14.875 13.075C15.0417 13.2417 15.25 13.325 15.5 13.325C15.75 13.325 15.95 13.2417 16.1 13.075C16.2667 12.8917 16.35 12.6833 16.35 12.45C16.35 12.2 16.2667 11.9917 16.1 11.825C15.95 11.6583 15.75 11.575 15.5 11.575C15.25 11.575 15.0417 11.6583 14.875 11.825C14.7083 11.9917 14.625 12.2 14.625 12.45C14.625 12.6833 14.7083 12.8917 14.875 13.075ZM11.375 16.5C11.5583 16.65 11.7667 16.725 12 16.725C12.25 16.725 12.4583 16.65 12.625 16.5C12.7917 16.3333 12.875 16.125 12.875 15.875C12.875 15.625 12.7833 15.4167 12.6 15.25C12.4333 15.0833 12.2333 15 12 15C11.7667 15 11.5583 15.0833 11.375 15.25C11.2083 15.4167 11.125 15.625 11.125 15.875C11.125 16.125 11.2083 16.3333 11.375 16.5Z" fill="black"/>
</g>
<defs>
<clipPath id="clip0_3204_10094">
<rect width="24" height="24" fill="white"/>
</clipPath>
</defs>
</svg>
