<svg width="24" height="24" viewBox="0 0 24 24" fill="none" xmlns="http://www.w3.org/2000/svg">
<g clip-path="url(#clip0_3204_10692)">
<rect width="24" height="24" fill="white"/>
<path d="M20 22H4V2H15.425L20 6.575V22ZM8 11V16.25H16V11H14.525V9.65C14.525 8.95 14.275 8.35833 13.775 7.875C13.2917 7.39167 12.7 7.15 12 7.15C11.3 7.15 10.7 7.39167 10.2 7.875C9.71667 8.35833 9.475 8.95 9.475 9.65V11H8ZM13.325 11H10.675V9.65C10.675 9.28333 10.8 8.975 11.05 8.725C11.3167 8.475 11.6333 8.35 12 8.35C12.3667 8.35 12.675 8.475 12.925 8.725C13.1917 8.975 13.325 9.28333 13.325 9.65V11Z" fill="black"/>
</g>
<defs>
<clipPath id="clip0_3204_10692">
<rect width="24" height="24" fill="white"/>
</clipPath>
</defs>
</svg>
