<svg width="24" height="24" viewBox="0 0 24 24" fill="none" xmlns="http://www.w3.org/2000/svg">
<g clip-path="url(#clip0_3205_12837)">
<rect width="24" height="24" fill="white"/>
<path d="M9.9 15.225C10.4667 15.7583 11.2083 16.025 12.125 16.025C12.9417 16.025 13.7 15.825 14.4 15.425C15.1167 15.0083 15.625 14.325 15.925 13.375L15.3 13.7V15.875H17.45V9.225C17.45 8.49167 17.275 7.85833 16.925 7.325C16.575 6.79167 16.1 6.38333 15.5 6.1C14.9 5.81667 14.2083 5.675 13.425 5.675C12.5417 5.675 11.725 5.85833 10.975 6.225C10.2417 6.575 9.65 7.06667 9.2 7.7L10.5 8.95C10.85 8.51667 11.2667 8.19167 11.75 7.975C12.25 7.74167 12.7667 7.625 13.3 7.625C13.8667 7.625 14.3083 7.75 14.625 8C14.9583 8.25 15.125 8.59167 15.125 9.025C15.125 9.325 15.025 9.55 14.825 9.7C14.6417 9.83333 14.3333 9.91667 13.9 9.95L12.15 10.1C11.2167 10.1833 10.4667 10.4917 9.9 11.025C9.33333 11.5583 9.05 12.25 9.05 13.1C9.05 13.9667 9.33333 14.675 9.9 15.225ZM13.825 13.975C13.4583 14.125 13.0917 14.2 12.725 14.2C12.2917 14.2 11.9417 14.0833 11.675 13.85C11.4083 13.6167 11.275 13.325 11.275 12.975C11.275 12.5917 11.4167 12.275 11.7 12.025C12 11.775 12.4 11.6333 12.9 11.6L14.125 11.5C14.4417 11.4833 14.6917 11.4333 14.875 11.35C15.075 11.25 15.2417 11.125 15.375 10.975C15.475 10.875 15.5917 10.725 15.725 10.525L15.125 10.5V12C15.125 12.5 15 12.9167 14.75 13.25C14.5167 13.5833 14.2083 13.825 13.825 13.975ZM20 22H4V2H15.425L20 6.575V22Z" fill="black"/>
</g>
<defs>
<clipPath id="clip0_3205_12837">
<rect width="24" height="24" fill="white"/>
</clipPath>
</defs>
</svg>
