<svg width="24" height="24" viewBox="0 0 24 24" fill="none" xmlns="http://www.w3.org/2000/svg">
<g clip-path="url(#clip0_3204_10952)">
<rect width="24" height="24" fill="white"/>
<path d="M20 22H4V2H15.425L20 6.575V22ZM9.225 14.4C9.80833 14.7333 10.4417 14.9 11.125 14.9C11.4083 14.9 11.775 14.8333 12.225 14.7C12.6917 14.55 13.0333 14.3917 13.25 14.225L16.2 17.175L17.075 16.3L14.15 13.35C14.6333 12.7 14.875 11.9667 14.875 11.15C14.875 10.4667 14.7083 9.85 14.375 9.3C14.0417 8.73333 13.5833 8.28333 13 7.95C12.4333 7.61667 11.8083 7.45 11.125 7.45C10.4417 7.45 9.80833 7.61667 9.225 7.95C8.65833 8.28333 8.20833 8.73333 7.875 9.3C7.55833 9.86667 7.4 10.4833 7.4 11.15C7.4 11.8333 7.55833 12.4667 7.875 13.05C8.20833 13.6167 8.65833 14.0667 9.225 14.4ZM12.875 12.95C12.4083 13.4333 11.825 13.675 11.125 13.675C10.4417 13.675 9.85833 13.4333 9.375 12.95C8.89167 12.45 8.65 11.85 8.65 11.15C8.65 10.45 8.88333 9.86667 9.35 9.4C9.83333 8.91667 10.425 8.675 11.125 8.675C11.825 8.675 12.4083 8.91667 12.875 9.4C13.3583 9.86667 13.6 10.45 13.6 11.15C13.6 11.85 13.3583 12.45 12.875 12.95Z" fill="black"/>
</g>
<defs>
<clipPath id="clip0_3204_10952">
<rect width="24" height="24" fill="white"/>
</clipPath>
</defs>
</svg>
