<svg width="24" height="24" viewBox="0 0 24 24" fill="none" xmlns="http://www.w3.org/2000/svg">
<g clip-path="url(#clip0_3204_9880)">
<rect width="24" height="24" fill="white"/>
<path d="M4.00049 2H15.4255L20.0005 6.575V22H4.00049V2ZM19.5005 21.525V6.75L15.2255 2.475H4.50049V21.525H19.5005ZM9.95049 9.425C9.95049 8.85833 10.1505 8.38333 10.5505 8C10.9505 7.6 11.4338 7.4 12.0005 7.4C12.5672 7.4 13.0505 7.6 13.4505 8C13.8505 8.38333 14.0505 8.85833 14.0505 9.425V11.125H13.5755V9.425C13.5755 8.99167 13.4172 8.625 13.1005 8.325C12.8005 8.00833 12.4338 7.85 12.0005 7.85C11.5672 7.85 11.1922 8.00833 10.8755 8.325C10.5755 8.625 10.4255 8.99167 10.4255 9.425V11.125H9.95049V9.425ZM8.00049 10.75H16.0005V16H8.00049V10.75ZM15.5005 15.525V11.225H8.50049V15.525H15.5005Z" fill="black"/>
</g>
<defs>
<clipPath id="clip0_3204_9880">
<rect width="24" height="24" fill="white"/>
</clipPath>
</defs>
</svg>
