<svg width="24" height="24" viewBox="0 0 24 24" fill="none" xmlns="http://www.w3.org/2000/svg">
<g clip-path="url(#clip0_3204_11958)">
<rect width="24" height="24" fill="white"/>
<path d="M4.00049 2H15.4255L20.0005 6.575V22H4.00049V2ZM17.0005 19.05V7.775L14.2005 4.95H7.00049V19.05H17.0005ZM12.0005 13.975C12.3505 13.975 12.6755 13.8917 12.9755 13.725C13.2755 13.5417 13.5088 13.3 13.6755 13C13.8588 12.6833 13.9505 12.35 13.9505 12C13.9505 11.6333 13.8588 11.3 13.6755 11C13.5088 10.7 13.2755 10.4667 12.9755 10.3C12.6755 10.1167 12.3505 10.025 12.0005 10.025C11.6505 10.025 11.3255 10.1167 11.0255 10.3C10.7255 10.4667 10.4838 10.7083 10.3005 11.025C10.1338 11.325 10.0505 11.65 10.0505 12C10.0505 12.3667 10.1338 12.7 10.3005 13C10.4838 13.3 10.7255 13.5417 11.0255 13.725C11.3255 13.8917 11.6505 13.975 12.0005 13.975ZM12.0005 16.175C11.2338 16.175 10.5338 15.9917 9.90049 15.625C9.26716 15.2417 8.75882 14.7333 8.37549 14.1C8.00882 13.4667 7.82549 12.7667 7.82549 12C7.82549 11.2333 8.00882 10.5333 8.37549 9.9C8.75882 9.26667 9.26716 8.76667 9.90049 8.4C10.5338 8.01667 11.2338 7.825 12.0005 7.825C12.7672 7.825 13.4672 8.01667 14.1005 8.4C14.7338 8.76667 15.2338 9.26667 15.6005 9.9C15.9838 10.5333 16.1755 11.2333 16.1755 12C16.1755 12.7667 15.9838 13.4667 15.6005 14.1C15.2338 14.7333 14.7338 15.2417 14.1005 15.625C13.4672 15.9917 12.7672 16.175 12.0005 16.175ZM13.8005 9.075L14.2755 9.775L14.9005 10.225V12H12.0505C12.0338 12 12.0172 12 12.0005 12C12.0005 11.9833 12.0005 11.9667 12.0005 11.95V9.075H13.8005Z" fill="black"/>
</g>
<defs>
<clipPath id="clip0_3204_11958">
<rect width="24" height="24" fill="white"/>
</clipPath>
</defs>
</svg>
