<svg width="24" height="24" viewBox="0 0 24 24" fill="none" xmlns="http://www.w3.org/2000/svg">
<g clip-path="url(#clip0_3204_10082)">
<rect width="24" height="24" fill="white"/>
<path d="M12.0005 10.25C11.6672 10.25 11.3838 10.1417 11.1505 9.925C10.9338 9.69167 10.8255 9.41667 10.8255 9.1C10.8255 8.76667 10.9338 8.49167 11.1505 8.275C11.3838 8.04167 11.6672 7.925 12.0005 7.925C12.3338 7.925 12.6088 8.04167 12.8255 8.275C13.0588 8.49167 13.1755 8.76667 13.1755 9.1C13.1755 9.41667 13.0588 9.69167 12.8255 9.925C12.6088 10.1417 12.3338 10.25 12.0005 10.25ZM8.65049 10.25C8.31716 10.25 8.03382 10.1417 7.80049 9.925C7.58382 9.70833 7.47549 9.43333 7.47549 9.1C7.47549 8.76667 7.58382 8.49167 7.80049 8.275C8.03382 8.04167 8.31716 7.925 8.65049 7.925C8.98382 7.925 9.25882 8.04167 9.47549 8.275C9.69216 8.49167 9.80049 8.76667 9.80049 9.1C9.80049 9.41667 9.69216 9.69167 9.47549 9.925C9.25882 10.1417 8.98382 10.25 8.65049 10.25ZM15.3505 10.25C15.0338 10.25 14.7588 10.1417 14.5255 9.925C14.3088 9.69167 14.2005 9.41667 14.2005 9.1C14.2005 8.76667 14.3088 8.49167 14.5255 8.275C14.7422 8.04167 15.0172 7.925 15.3505 7.925C15.6838 7.925 15.9588 8.04167 16.1755 8.275C16.4088 8.49167 16.5255 8.76667 16.5255 9.1C16.5255 9.43333 16.4088 9.70833 16.1755 9.925C15.9588 10.1417 15.6838 10.25 15.3505 10.25ZM12.0005 13.625C11.6838 13.625 11.4088 13.5083 11.1755 13.275C10.9422 13.0417 10.8255 12.7667 10.8255 12.45C10.8255 12.1167 10.9422 11.8417 11.1755 11.625C11.4088 11.3917 11.6838 11.275 12.0005 11.275C12.3338 11.275 12.6088 11.3917 12.8255 11.625C13.0588 11.8417 13.1755 12.1167 13.1755 12.45C13.1755 12.7667 13.0588 13.0417 12.8255 13.275C12.6088 13.5083 12.3338 13.625 12.0005 13.625ZM8.65049 13.625C8.31716 13.625 8.03382 13.5167 7.80049 13.3C7.58382 13.0667 7.47549 12.7833 7.47549 12.45C7.47549 12.1167 7.58382 11.8417 7.80049 11.625C8.03382 11.3917 8.31716 11.275 8.65049 11.275C8.96716 11.275 9.23382 11.3917 9.45049 11.625C9.68382 11.8417 9.80049 12.1167 9.80049 12.45C9.80049 12.7833 9.68382 13.0667 9.45049 13.3C9.23382 13.5167 8.96716 13.625 8.65049 13.625ZM15.3505 13.625C15.0338 13.625 14.7588 13.5167 14.5255 13.3C14.3088 13.0667 14.2005 12.7833 14.2005 12.45C14.2005 12.1167 14.3088 11.8417 14.5255 11.625C14.7588 11.3917 15.0338 11.275 15.3505 11.275C15.6838 11.275 15.9588 11.3917 16.1755 11.625C16.4088 11.8417 16.5255 12.1167 16.5255 12.45C16.5255 12.7833 16.4088 13.0667 16.1755 13.3C15.9588 13.5167 15.6838 13.625 15.3505 13.625ZM12.0005 16.975C11.6672 16.975 11.3838 16.8667 11.1505 16.65C10.9338 16.4167 10.8255 16.1333 10.8255 15.8C10.8255 15.4833 10.9338 15.2167 11.1505 15C11.3838 14.7667 11.6672 14.65 12.0005 14.65C12.3338 14.65 12.6088 14.7667 12.8255 15C13.0588 15.2167 13.1755 15.4833 13.1755 15.8C13.1755 16.1333 13.0588 16.4167 12.8255 16.65C12.6088 16.8667 12.3338 16.975 12.0005 16.975ZM4.00049 2H15.4255L20.0005 6.575V22H4.00049V2ZM18.1005 20.15V7.3L14.6755 3.85H5.90049V20.15H18.1005Z" fill="black"/>
</g>
<defs>
<clipPath id="clip0_3204_10082">
<rect width="24" height="24" fill="white"/>
</clipPath>
</defs>
</svg>
