<svg width="24" height="24" viewBox="0 0 24 24" fill="none" xmlns="http://www.w3.org/2000/svg">
<g clip-path="url(#clip0_3204_10100)">
<rect width="24" height="24" fill="white"/>
<path d="M20 22H4V2H15.425L20 6.575V22ZM11.025 9.875C11.2917 10.1417 11.6167 10.275 12 10.275C12.3833 10.275 12.7083 10.1417 12.975 9.875C13.2417 9.60833 13.375 9.28333 13.375 8.9C13.375 8.51667 13.2417 8.19167 12.975 7.925C12.7083 7.65833 12.3833 7.525 12 7.525C11.6167 7.525 11.2917 7.65833 11.025 7.925C10.7583 8.19167 10.625 8.51667 10.625 8.9C10.625 9.28333 10.7583 9.60833 11.025 9.875ZM7.475 9.875C7.74167 10.1417 8.06667 10.275 8.45 10.275C8.83333 10.275 9.15833 10.1417 9.425 9.875C9.69167 9.60833 9.825 9.28333 9.825 8.9C9.825 8.51667 9.69167 8.19167 9.425 7.925C9.15833 7.65833 8.83333 7.525 8.45 7.525C8.06667 7.525 7.74167 7.65833 7.475 7.925C7.20833 8.19167 7.075 8.51667 7.075 8.9C7.075 9.28333 7.20833 9.60833 7.475 9.875ZM14.575 9.875C14.8417 10.1417 15.1667 10.275 15.55 10.275C15.9333 10.275 16.2583 10.1417 16.525 9.875C16.7917 9.60833 16.925 9.28333 16.925 8.9C16.925 8.51667 16.7917 8.19167 16.525 7.925C16.2583 7.65833 15.9333 7.525 15.55 7.525C15.1667 7.525 14.8417 7.65833 14.575 7.925C14.3083 8.19167 14.175 8.51667 14.175 8.9C14.175 9.28333 14.3083 9.60833 14.575 9.875ZM11.025 13.425C11.2917 13.6917 11.6167 13.825 12 13.825C12.3833 13.825 12.7083 13.6917 12.975 13.425C13.2417 13.1583 13.375 12.8333 13.375 12.45C13.375 12.0667 13.2417 11.7417 12.975 11.475C12.7083 11.2083 12.3833 11.075 12 11.075C11.6167 11.075 11.2917 11.2083 11.025 11.475C10.7583 11.7417 10.625 12.0667 10.625 12.45C10.625 12.8333 10.7583 13.1583 11.025 13.425ZM7.475 13.425C7.74167 13.6917 8.06667 13.825 8.45 13.825C8.83333 13.825 9.15833 13.6917 9.425 13.425C9.69167 13.1583 9.825 12.8333 9.825 12.45C9.825 12.0667 9.69167 11.7417 9.425 11.475C9.15833 11.2083 8.83333 11.075 8.45 11.075C8.06667 11.075 7.74167 11.2083 7.475 11.475C7.20833 11.7417 7.075 12.0667 7.075 12.45C7.075 12.8333 7.20833 13.1583 7.475 13.425ZM14.575 13.425C14.8417 13.6917 15.1667 13.825 15.55 13.825C15.9333 13.825 16.2583 13.6917 16.525 13.425C16.7917 13.1583 16.925 12.8333 16.925 12.45C16.925 12.0667 16.7917 11.7417 16.525 11.475C16.2583 11.2083 15.9333 11.075 15.55 11.075C15.1667 11.075 14.8417 11.2083 14.575 11.475C14.3083 11.7417 14.175 12.0667 14.175 12.45C14.175 12.8333 14.3083 13.1583 14.575 13.425ZM11.025 16.975C11.2917 17.2417 11.6167 17.375 12 17.375C12.3833 17.375 12.7083 17.2417 12.975 16.975C13.2417 16.7083 13.375 16.3833 13.375 16C13.375 15.6167 13.2417 15.2917 12.975 15.025C12.7083 14.7583 12.3833 14.625 12 14.625C11.6167 14.625 11.2917 14.7583 11.025 15.025C10.7583 15.2917 10.625 15.6167 10.625 16C10.625 16.3833 10.7583 16.7083 11.025 16.975Z" fill="black"/>
</g>
<defs>
<clipPath id="clip0_3204_10100">
<rect width="24" height="24" fill="white"/>
</clipPath>
</defs>
</svg>
