<svg width="24" height="24" viewBox="0 0 24 24" fill="none" xmlns="http://www.w3.org/2000/svg">
<g clip-path="url(#clip0_3204_10696)">
<rect width="24" height="24" fill="white"/>
<path d="M20 22H4V2H15.425L20 6.575V22ZM8 11V16.25H16V11H14.8V9.825C14.8 9.075 14.525 8.44167 13.975 7.925C13.4417 7.40833 12.7833 7.15 12 7.15C11.2167 7.15 10.55 7.40833 10 7.925C9.46667 8.44167 9.2 9.075 9.2 9.825V11H8ZM12.925 11H11.075V9.825C11.075 9.575 11.1667 9.36667 11.35 9.2C11.5333 9.01667 11.75 8.925 12 8.925C12.25 8.925 12.4667 9.01667 12.65 9.2C12.8333 9.36667 12.925 9.575 12.925 9.825V11Z" fill="black"/>
</g>
<defs>
<clipPath id="clip0_3204_10696">
<rect width="24" height="24" fill="white"/>
</clipPath>
</defs>
</svg>
