<svg width="24" height="24" viewBox="0 0 24 24" fill="none" xmlns="http://www.w3.org/2000/svg">
<g clip-path="url(#clip0_3204_11844)">
<rect width="24" height="24" fill="white"/>
<path d="M20 22H4V2H15.425L20 6.575V22ZM7.725 16.075C8.04167 16.3917 8.425 16.55 8.875 16.55H11V12.65H9.7V11.425C9.7 10.9417 9.90833 10.55 10.325 10.25C10.7583 9.93333 11.3167 9.775 12 9.775C12.6833 9.775 13.2333 9.93333 13.65 10.25C14.0833 10.55 14.3 10.9417 14.3 11.425V12.65H13V16.55H15.125C15.575 16.55 15.9583 16.3917 16.275 16.075C16.5917 15.7583 16.75 15.375 16.75 14.925V11.425C16.75 10.6417 16.55 9.94167 16.15 9.325C15.75 8.70833 15.1833 8.23333 14.45 7.9C13.7333 7.55 12.9167 7.375 12 7.375C11.0833 7.375 10.2583 7.55 9.525 7.9C8.80833 8.23333 8.25 8.70833 7.85 9.325C7.45 9.94167 7.25 10.6417 7.25 11.425V14.925C7.25 15.375 7.40833 15.7583 7.725 16.075Z" fill="black"/>
</g>
<defs>
<clipPath id="clip0_3204_11844">
<rect width="24" height="24" fill="white"/>
</clipPath>
</defs>
</svg>
