<svg width="24" height="24" viewBox="0 0 24 24" fill="none" xmlns="http://www.w3.org/2000/svg">
<g clip-path="url(#clip0_3205_12841)">
<rect width="24" height="24" fill="white"/>
<path d="M8.05 16.4C8.58333 16.9167 9.26667 17.175 10.1 17.175C10.7833 17.175 11.4333 17.0083 12.05 16.675C12.6833 16.3417 13.15 15.75 13.45 14.9L12.9 15.375V17.025H15.9V10.825C15.9 10.0417 15.7167 9.375 15.35 8.825C14.9833 8.275 14.475 7.85833 13.825 7.575C13.1917 7.29167 12.4583 7.15 11.625 7.15C10.7583 7.15 9.96667 7.275 9.25 7.525C8.53333 7.775 7.90833 8.09167 7.375 8.475L8.6 10.625C9.08333 10.3083 9.55833 10.0833 10.025 9.95C10.5083 9.81667 10.9833 9.75 11.45 9.75C11.8333 9.75 12.1167 9.825 12.3 9.975C12.4833 10.125 12.575 10.325 12.575 10.575C12.575 10.7917 12.4833 10.9417 12.3 11.025C12.1333 11.1083 11.8917 11.1667 11.575 11.2L10.2 11.35C9.3 11.45 8.58333 11.7667 8.05 12.3C7.51667 12.8167 7.25 13.475 7.25 14.275C7.25 15.1583 7.51667 15.8667 8.05 16.4ZM11.75 14.6C11.5167 14.6833 11.2917 14.725 11.075 14.725C10.8417 14.725 10.65 14.6583 10.5 14.525C10.35 14.3917 10.275 14.2417 10.275 14.075C10.275 13.875 10.3417 13.6833 10.475 13.5C10.625 13.3 10.8667 13.1917 11.2 13.175L11.95 13.125C12.3 13.1083 12.5333 13.0833 12.65 13.05C12.7667 13 12.8667 12.9333 12.95 12.85C13 12.7667 13.0833 12.6917 13.2 12.625L12.575 12.4V13.45C12.575 13.75 12.4917 14 12.325 14.2C12.175 14.3833 11.9833 14.5167 11.75 14.6ZM20 22H4V2H15.425L20 6.575V22Z" fill="black"/>
</g>
<defs>
<clipPath id="clip0_3205_12841">
<rect width="24" height="24" fill="white"/>
</clipPath>
</defs>
</svg>
