<svg width="24" height="24" viewBox="0 0 24 24" fill="none" xmlns="http://www.w3.org/2000/svg">
<g clip-path="url(#clip0_3205_12819)">
<rect width="24" height="24" fill="white"/>
<path d="M4.00049 2H15.4255L20.0005 6.575V22H4.00049V2ZM18.5755 20.6V7.125L14.8505 3.4H5.42549V20.6H18.5755ZM11.0505 16.35C10.2672 16.35 9.63382 16.125 9.15049 15.675C8.66716 15.225 8.42549 14.6417 8.42549 13.925C8.42549 13.2083 8.66716 12.625 9.15049 12.175C9.63382 11.725 10.3088 11.4667 11.1755 11.4L12.6505 11.275C12.7338 11.275 12.8088 11.2667 12.8755 11.25C13.2422 11.2 13.5005 11.1083 13.6505 10.975C13.8172 10.8417 13.9005 10.6333 13.9005 10.35C13.9005 9.86667 13.7172 9.49167 13.3505 9.225C13.0005 8.95833 12.5338 8.825 11.9505 8.825C11.4672 8.825 11.0088 8.95 10.5755 9.2C10.1588 9.43333 9.81716 9.76667 9.55049 10.2L8.55049 9.6C8.88382 8.95 9.35882 8.45833 9.97549 8.125C10.6088 7.775 11.2922 7.6 12.0255 7.6C12.9588 7.6 13.7255 7.85833 14.3255 8.375C14.9422 8.89167 15.2505 9.58333 15.2505 10.45V16.225H13.9505V14.15L14.4505 13.925C14.2172 14.775 13.7838 15.3917 13.1505 15.775C12.5172 16.1583 11.8172 16.35 11.0505 16.35ZM11.3255 15.2C11.7422 15.2 12.1422 15.1167 12.5255 14.95C12.9255 14.7833 13.2505 14.5333 13.5005 14.2C13.7672 13.85 13.9005 13.4 13.9005 12.85V11.35L14.3255 11.25C14.2422 11.4333 14.1422 11.6 14.0255 11.75C13.7422 12.0833 13.3172 12.275 12.7505 12.325L11.5505 12.425C11.0172 12.475 10.5838 12.6167 10.2505 12.85C9.93382 13.0833 9.77549 13.425 9.77549 13.875C9.77549 14.2583 9.91716 14.575 10.2005 14.825C10.5005 15.075 10.8755 15.2 11.3255 15.2Z" fill="black"/>
</g>
<defs>
<clipPath id="clip0_3205_12819">
<rect width="24" height="24" fill="white"/>
</clipPath>
</defs>
</svg>
