<svg width="24" height="24" viewBox="0 0 24 24" fill="none" xmlns="http://www.w3.org/2000/svg">
<g clip-path="url(#clip0_3204_11174)">
<rect width="24" height="24" fill="white"/>
<path d="M4.00049 2H15.4255L20.0005 6.575V22H4.00049V2ZM18.1005 20.15V7.3L14.6755 3.85H5.90049V20.15H18.1005ZM12.9005 9.5L13.6755 9.975L15.1005 9.15L16.0255 10.725L14.6005 11.55V12.425L16.0255 13.25L15.1255 14.875L13.6755 14.025L12.9005 14.5V16.125H11.1005V14.5L10.3255 14.025L8.90049 14.85L7.97549 13.275L9.40049 12.45V11.575L7.97549 10.75L8.87549 9.15L10.3255 9.975L11.1005 9.5V7.875H12.9005V9.5ZM12.0005 13.175C12.3338 13.175 12.6088 13.0583 12.8255 12.825C13.0588 12.5917 13.1755 12.3167 13.1755 12C13.1755 11.6667 13.0588 11.3917 12.8255 11.175C12.6088 10.9417 12.3338 10.825 12.0005 10.825C11.6838 10.825 11.4088 10.9417 11.1755 11.175C10.9422 11.3917 10.8255 11.6667 10.8255 12C10.8255 12.3167 10.9422 12.5917 11.1755 12.825C11.4088 13.0583 11.6838 13.175 12.0005 13.175ZM14.3755 10.55H14.3505H14.3005H14.3255H14.3005H14.3505H14.3755H14.4755H14.5005H14.5505H14.5255H14.5505H14.5005H14.4755H14.3755ZM14.4505 10.55H14.4755H14.5005H14.5255H14.5005H14.5255H14.5005H14.4755H14.4505H14.4005H14.3755H14.3505H14.3255H14.3505H14.3255H14.3505H14.3755H14.4005H14.4505ZM14.4255 10.55C14.4088 10.55 14.4005 10.55 14.4005 10.55C14.4005 10.55 14.3922 10.55 14.3755 10.55C14.3922 10.55 14.4005 10.55 14.4005 10.55C14.4005 10.55 14.4088 10.55 14.4255 10.55C14.4422 10.55 14.4505 10.55 14.4505 10.55C14.4505 10.55 14.4588 10.55 14.4755 10.55C14.4588 10.55 14.4505 10.55 14.4505 10.55C14.4505 10.55 14.4422 10.55 14.4255 10.55ZM14.4255 10.55C14.4422 10.55 14.4505 10.55 14.4505 10.55C14.4505 10.55 14.4422 10.55 14.4255 10.55C14.4255 10.55 14.4172 10.55 14.4005 10.55C14.4172 10.55 14.4255 10.55 14.4255 10.55Z" fill="black"/>
</g>
<defs>
<clipPath id="clip0_3204_11174">
<rect width="24" height="24" fill="white"/>
</clipPath>
</defs>
</svg>
