<svg width="24" height="24" viewBox="0 0 24 24" fill="none" xmlns="http://www.w3.org/2000/svg">
<g clip-path="url(#clip0_3204_11812)">
<rect width="24" height="24" fill="white"/>
<path d="M20 22H4V2H15.425L20 6.575V22ZM7.875 14.7L7.625 16.375L9.275 16.125L13.925 11.475C13.825 11.3583 13.7417 11.275 13.675 11.225C13.625 11.175 13.55 11.0917 13.45 10.975L12.925 10.45C12.8417 10.3667 12.775 10.3 12.725 10.25C12.675 10.2 12.6083 10.1333 12.525 10.05L7.875 14.7ZM13.575 9L14.975 10.4L15.975 9.425C16.1083 9.29167 16.175 9.15 16.175 9C16.175 8.85 16.1083 8.70833 15.975 8.575L15.4 8C15.2667 7.86667 15.125 7.8 14.975 7.8C14.825 7.8 14.6833 7.86667 14.55 8L13.575 9Z" fill="black"/>
</g>
<defs>
<clipPath id="clip0_3204_11812">
<rect width="24" height="24" fill="white"/>
</clipPath>
</defs>
</svg>
