<svg width="24" height="24" viewBox="0 0 24 24" fill="none" xmlns="http://www.w3.org/2000/svg">
<g clip-path="url(#clip0_3204_11102)">
<rect width="24" height="24" fill="white"/>
<path d="M17.5005 17.55V6.45H6.50049V17.55H17.5005ZM21.0005 3V21H3.00049V3H21.0005ZM10.5005 4.525C10.8338 4.525 11.0838 4.525 11.2505 4.525C11.4172 4.525 11.6672 4.525 12.0005 4.525C12.3338 4.525 12.5838 4.525 12.7505 4.525C12.9172 4.525 13.1672 4.525 13.5005 4.525H20.0255H13.7505H16.2505C15.2838 4.525 14.5672 4.525 14.1005 4.525C13.6338 4.525 12.9255 4.525 11.9755 4.525C11.0422 4.525 10.3422 4.525 9.87549 4.525C9.40882 4.525 8.70882 4.525 7.77549 4.525H10.2505H3.77549H10.5005ZM10.2505 10.375C10.2505 10.8917 10.4088 11.3167 10.7255 11.65C11.0588 11.9667 11.4838 12.125 12.0005 12.125C12.5172 12.125 12.9338 11.9667 13.2505 11.65C13.5838 11.3167 13.7505 10.8917 13.7505 10.375H20.0255V13.825H13.7505L16.9505 10.4C16.9505 11.35 16.7255 12.225 16.2755 13.025C15.8422 13.8083 15.2505 14.4333 14.5005 14.9C13.7505 15.35 12.9172 15.575 12.0005 15.575C11.1005 15.575 10.2672 15.35 9.50049 14.9C8.75049 14.4333 8.15882 13.8083 7.72549 13.025C7.29216 12.225 7.07549 11.35 7.07549 10.4L10.2505 13.825H3.77549V10.375H10.2505Z" fill="black"/>
</g>
<defs>
<clipPath id="clip0_3204_11102">
<rect width="24" height="24" fill="white"/>
</clipPath>
</defs>
</svg>
