<svg width="24" height="24" viewBox="0 0 24 24" fill="none" xmlns="http://www.w3.org/2000/svg">
<g clip-path="url(#clip0_3204_11114)">
<rect width="24" height="24" fill="white"/>
<path d="M18.175 18.525V5.825H5.825V18.525H18.175ZM21 3V21H3V3H21ZM10 8.925C10 9.475 10.1917 9.95 10.575 10.35C10.975 10.7333 11.45 10.925 12 10.925C12.55 10.925 13.0167 10.7333 13.4 10.35C13.8 9.95 14 9.475 14 8.925H20.025V13.75H3.775V8.925H10ZM10 16.175C10 16.725 10.1917 17.2 10.575 17.6C10.975 17.9833 11.45 18.175 12 18.175C12.55 18.175 13.0167 17.9833 13.4 17.6C13.8 17.2 14 16.725 14 16.175H20.025V19.525H3.775V16.175H10Z" fill="black"/>
</g>
<defs>
<clipPath id="clip0_3204_11114">
<rect width="24" height="24" fill="white"/>
</clipPath>
</defs>
</svg>
