<svg width="24" height="24" viewBox="0 0 24 24" fill="none" xmlns="http://www.w3.org/2000/svg">
<g clip-path="url(#clip0_3205_12757)">
<rect width="24" height="24" fill="white"/>
<path d="M3 6.3L6.3 3H21V21H3V6.3ZM12 16C12.6333 16 13.1667 15.7833 13.6 15.35C14.0333 14.9 14.25 14.3667 14.25 13.75C14.25 13.1167 14.0333 12.5833 13.6 12.15C13.1667 11.7167 12.6333 11.5 12 11.5C11.3833 11.5 10.85 11.7167 10.4 12.15C9.96667 12.5833 9.75 13.1167 9.75 13.75C9.75 14.3667 9.96667 14.9 10.4 15.35C10.85 15.7833 11.3833 16 12 16ZM16 8.5V5H8V8.5H16Z" fill="black"/>
</g>
<defs>
<clipPath id="clip0_3205_12757">
<rect width="24" height="24" fill="white"/>
</clipPath>
</defs>
</svg>
