<svg width="24" height="24" viewBox="0 0 24 24" fill="none" xmlns="http://www.w3.org/2000/svg">
<g clip-path="url(#clip0_3205_12751)">
<rect width="24" height="24" fill="white"/>
<path d="M3 6.3L6.3 3H21V21H3V6.3ZM12 15.25C12.6333 15.25 13.1667 15.0333 13.6 14.6C14.0333 14.15 14.25 13.6167 14.25 13C14.25 12.3667 14.0333 11.8333 13.6 11.4C13.1667 10.9667 12.6333 10.75 12 10.75C11.3833 10.75 10.85 10.9667 10.4 11.4C9.96667 11.8333 9.75 12.3667 9.75 13C9.75 13.6167 9.96667 14.15 10.4 14.6C10.85 15.0333 11.3833 15.25 12 15.25ZM16 7V3.475H8V7H16Z" fill="black"/>
</g>
<defs>
<clipPath id="clip0_3205_12751">
<rect width="24" height="24" fill="white"/>
</clipPath>
</defs>
</svg>
