<svg width="24" height="24" viewBox="0 0 24 24" fill="none" xmlns="http://www.w3.org/2000/svg">
<g clip-path="url(#clip0_3204_9874)">
<rect width="24" height="24" fill="white"/>
<path d="M2.00049 3H8.45049L10.4505 5H22.0005V20H2.00049V3ZM21.5005 19.525V5.475H10.2505L8.25049 3.475H2.50049V19.525H21.5005ZM8.92549 15.125C8.92549 14.3917 9.20049 13.8083 9.75049 13.375C10.3005 12.925 11.0338 12.7 11.9505 12.7C12.9005 12.7 13.6588 12.925 14.2255 13.375C14.7922 13.8083 15.0755 14.3917 15.0755 15.125V16.05H8.92549V15.125ZM14.5755 15.575V15.125C14.5755 14.525 14.3422 14.05 13.8755 13.7C13.4088 13.35 12.7672 13.175 11.9505 13.175C11.1672 13.175 10.5505 13.35 10.1005 13.7C9.65049 14.05 9.42549 14.525 9.42549 15.125V15.575H14.5755ZM11.9255 11.875C11.4588 11.875 11.0588 11.7167 10.7255 11.4C10.4088 11.0667 10.2505 10.6667 10.2505 10.2C10.2505 9.73333 10.4088 9.34167 10.7255 9.025C11.0422 8.70833 11.4422 8.55 11.9255 8.55C12.4088 8.55 12.8088 8.70833 13.1255 9.025C13.4588 9.34167 13.6255 9.73333 13.6255 10.2C13.6255 10.6667 13.4588 11.0667 13.1255 11.4C12.8088 11.7167 12.4088 11.875 11.9255 11.875ZM11.9255 11.425C12.2588 11.425 12.5422 11.3083 12.7755 11.075C13.0255 10.825 13.1505 10.5333 13.1505 10.2C13.1505 9.86667 13.0255 9.58333 12.7755 9.35C12.5422 9.11667 12.2588 9 11.9255 9C11.5922 9 11.3088 9.11667 11.0755 9.35C10.8422 9.58333 10.7255 9.86667 10.7255 10.2C10.7255 10.5333 10.8422 10.825 11.0755 11.075C11.3088 11.3083 11.5922 11.425 11.9255 11.425Z" fill="black"/>
</g>
<defs>
<clipPath id="clip0_3204_9874">
<rect width="24" height="24" fill="white"/>
</clipPath>
</defs>
</svg>
