<svg width="24" height="24" viewBox="0 0 24 24" fill="none" xmlns="http://www.w3.org/2000/svg">
<g clip-path="url(#clip0_3204_10606)">
<rect width="24" height="24" fill="white"/>
<path d="M2.00049 3H9.77549L11.4505 4.675H22.0005V20H2.00049V3ZM19.0255 17.075V7.575H10.2505L8.57549 5.925H4.97549V17.075H19.0255ZM9.02549 14.65C9.02549 14 9.28382 13.5083 9.80049 13.175C10.3172 12.825 11.0255 12.65 11.9255 12.65C12.8588 12.65 13.6005 12.825 14.1505 13.175C14.7005 13.5083 14.9755 14 14.9755 14.65V15.6H9.02549V14.65ZM13.7755 14.275C13.3755 14.275 13.0672 14.275 12.8505 14.275C12.6505 14.275 12.3505 14.275 11.9505 14.275C11.5505 14.275 11.2505 14.275 11.0505 14.275C10.8672 14.275 10.5922 14.275 10.2255 14.275H13.7755ZM11.9505 11.925C11.5005 11.925 11.1255 11.775 10.8255 11.475C10.5255 11.1583 10.3755 10.7833 10.3755 10.35C10.3755 9.91667 10.5255 9.54167 10.8255 9.225C11.1422 8.90833 11.5172 8.75 11.9505 8.75C12.3838 8.75 12.7588 8.90833 13.0755 9.225C13.3922 9.54167 13.5505 9.91667 13.5505 10.35C13.5505 10.7833 13.3922 11.1583 13.0755 11.475C12.7755 11.775 12.4005 11.925 11.9505 11.925ZM11.9505 10.35C12.0838 10.35 12.1838 10.35 12.2505 10.35C12.3172 10.35 12.4172 10.35 12.5505 10.35C12.4172 10.35 12.3172 10.35 12.2505 10.35C12.1838 10.35 12.0838 10.35 11.9505 10.35C11.8172 10.35 11.7172 10.35 11.6505 10.35C11.5838 10.35 11.4838 10.35 11.3505 10.35C11.4838 10.35 11.5838 10.35 11.6505 10.35C11.7172 10.35 11.8172 10.35 11.9505 10.35Z" fill="black"/>
</g>
<defs>
<clipPath id="clip0_3204_10606">
<rect width="24" height="24" fill="white"/>
</clipPath>
</defs>
</svg>
