<svg width="24" height="24" viewBox="0 0 24 24" fill="none" xmlns="http://www.w3.org/2000/svg">
<g clip-path="url(#clip0_3204_10604)">
<rect width="24" height="24" fill="white"/>
<path d="M2.00049 3H9.37549L11.2005 4.825H22.0005V20H2.00049V3ZM19.5755 17.625V7.225H10.2005L8.37549 5.375H4.42549V17.625H19.5755ZM9.20049 14.625C9.20049 14.0083 9.44216 13.5333 9.92549 13.2C10.4088 12.8667 11.0838 12.7 11.9505 12.7C12.8338 12.7 13.5255 12.8667 14.0255 13.2C14.5422 13.5333 14.8005 14.0083 14.8005 14.625V15.525H9.20049V14.625ZM13.7005 14.25C13.3005 14.25 13.0005 14.25 12.8005 14.25C12.6172 14.25 12.3338 14.25 11.9505 14.25C11.5838 14.25 11.3088 14.25 11.1255 14.25C10.9422 14.25 10.6672 14.25 10.3005 14.25H13.7005ZM11.9505 11.875C11.5338 11.875 11.1838 11.7333 10.9005 11.45C10.6338 11.1667 10.5005 10.8167 10.5005 10.4C10.5005 10 10.6338 9.65 10.9005 9.35C11.1838 9.05 11.5338 8.9 11.9505 8.9C12.3672 8.9 12.7172 9.05 13.0005 9.35C13.3005 9.65 13.4505 10 13.4505 10.4C13.4505 10.8167 13.3005 11.1667 13.0005 11.45C12.7172 11.7333 12.3672 11.875 11.9505 11.875ZM11.9505 10.4C12.0838 10.4 12.1755 10.4 12.2255 10.4C12.2922 10.4 12.3838 10.4 12.5005 10.4C12.3838 10.4 12.2922 10.4 12.2255 10.4C12.1588 10.4 12.0672 10.4 11.9505 10.4C11.8338 10.4 11.7422 10.4 11.6755 10.4C11.6088 10.4 11.5172 10.4 11.4005 10.4C11.5172 10.4 11.6088 10.4 11.6755 10.4C11.7422 10.4 11.8338 10.4 11.9505 10.4Z" fill="black"/>
</g>
<defs>
<clipPath id="clip0_3204_10604">
<rect width="24" height="24" fill="white"/>
</clipPath>
</defs>
</svg>
