<svg width="24" height="24" viewBox="0 0 24 24" fill="none" xmlns="http://www.w3.org/2000/svg">
<g clip-path="url(#clip0_3204_10890)">
<rect width="24" height="24" fill="white"/>
<path d="M2.00049 3H9.37549L11.1255 4.75H22.0005V20H2.00049V3ZM19.5505 17.6V7.15H10.1255L8.37549 5.4H4.45049V17.6H19.5505ZM7.22549 14.475C7.22549 13.9417 7.42549 13.5083 7.82549 13.175C8.22549 12.8417 8.74216 12.675 9.37549 12.675C10.0422 12.675 10.5838 12.8417 11.0005 13.175C11.4172 13.5083 11.6255 13.9417 11.6255 14.475V15.475H7.22549V14.475ZM10.6255 14.075C10.3255 14.075 10.1005 14.075 9.95049 14.075C9.81716 14.075 9.60882 14.075 9.32549 14.075C9.05882 14.075 8.85882 14.075 8.72549 14.075C8.59216 14.075 8.39216 14.075 8.12549 14.075H10.6255ZM9.37549 12.075C8.94216 12.075 8.58382 11.9333 8.30049 11.65C8.01716 11.35 7.87549 10.9833 7.87549 10.55C7.87549 10.1333 8.01716 9.775 8.30049 9.475C8.58382 9.175 8.94216 9.025 9.37549 9.025C9.79216 9.025 10.1505 9.18333 10.4505 9.5C10.7672 9.8 10.9255 10.15 10.9255 10.55C10.9255 10.9667 10.7672 11.325 10.4505 11.625C10.1505 11.925 9.79216 12.075 9.37549 12.075ZM9.37549 10.55C9.49216 10.55 9.58382 10.55 9.65049 10.55C9.71716 10.55 9.80882 10.55 9.92549 10.55C9.80882 10.55 9.71716 10.55 9.65049 10.55C9.58382 10.55 9.49216 10.55 9.37549 10.55C9.25882 10.55 9.15882 10.55 9.07549 10.55C9.00882 10.55 8.91716 10.55 8.80049 10.55C8.93382 10.55 9.03382 10.55 9.10049 10.55C9.16716 10.55 9.25882 10.55 9.37549 10.55ZM12.3755 14.475C12.3755 13.9417 12.5755 13.5083 12.9755 13.175C13.3755 12.8417 13.8922 12.675 14.5255 12.675C15.2088 12.675 15.7505 12.8333 16.1505 13.15C16.5672 13.4667 16.7755 13.9083 16.7755 14.475V15.475H12.3755V14.475ZM15.4505 14.075C15.1505 14.075 14.9255 14.075 14.7755 14.075C14.6422 14.075 14.4338 14.075 14.1505 14.075C13.8838 14.075 13.6838 14.075 13.5505 14.075C13.4172 14.075 13.2172 14.075 12.9505 14.075H15.4505ZM14.5255 12C14.1088 12 13.7588 11.8583 13.4755 11.575C13.1922 11.2917 13.0505 10.9417 13.0505 10.525C13.0505 10.125 13.1922 9.775 13.4755 9.475C13.7588 9.175 14.1088 9.025 14.5255 9.025C14.9255 9.025 15.2755 9.175 15.5755 9.475C15.8755 9.775 16.0255 10.125 16.0255 10.525C16.0255 10.9417 15.8755 11.2917 15.5755 11.575C15.2755 11.8583 14.9255 12 14.5255 12ZM14.1255 10.525C14.2588 10.525 14.3505 10.525 14.4005 10.525C14.4672 10.525 14.5588 10.525 14.6755 10.525C14.5588 10.525 14.4672 10.525 14.4005 10.525C14.3505 10.525 14.2588 10.525 14.1255 10.525C14.0088 10.525 13.9172 10.525 13.8505 10.525C13.7838 10.525 13.6838 10.525 13.5505 10.525C13.6838 10.525 13.7838 10.525 13.8505 10.525C13.9172 10.525 14.0088 10.525 14.1255 10.525Z" fill="black"/>
</g>
<defs>
<clipPath id="clip0_3204_10890">
<rect width="24" height="24" fill="white"/>
</clipPath>
</defs>
</svg>
