<svg width="24" height="24" viewBox="0 0 24 24" fill="none" xmlns="http://www.w3.org/2000/svg">
<g clip-path="url(#clip0_3204_9936)">
<rect width="24" height="24" fill="white"/>
<path d="M2.00049 3H8.45049L10.4505 5H22.0005V20H2.00049V3ZM21.5005 19.525V5.475H10.2505L8.25049 3.475H2.50049V19.525H21.5005ZM9.97549 12.975L7.62549 10.8L10.7255 10.575L12.0005 7.625L13.2755 10.575L16.3755 10.8L14.0255 12.975L14.7005 15.975L12.0005 14.425L9.30049 15.975L9.97549 12.975ZM12.0005 13.9L14.0255 15.075L13.5255 12.825L15.3005 11.175L12.9755 11L12.0005 8.75L11.0255 11L8.70049 11.175L10.4755 12.825L9.97549 15.075L12.0005 13.9Z" fill="black"/>
</g>
<defs>
<clipPath id="clip0_3204_9936">
<rect width="24" height="24" fill="white"/>
</clipPath>
</defs>
</svg>
