<svg width="24" height="24" viewBox="0 0 24 24" fill="none" xmlns="http://www.w3.org/2000/svg">
<g clip-path="url(#clip0_3204_9936)">
<rect width="24" height="24" fill="white"/>
<path d="M2.00049 3H8.45049L10.4505 5H22.0005V20H2.00049V3ZM21.5005 19.525V5.475H10.2505L8.25049 3.475H2.50049V19.525H21.5005ZM10.0505 13.275L7.17549 11H10.8005L12.0005 7.475L13.2005 11H16.8255L13.9505 13.275L14.9755 16.675L12.0005 14.7L9.02549 16.675L10.0505 13.275ZM12.0005 14.175L14.2005 15.65L13.4505 13.15L15.6005 11.425H12.8755L12.0005 8.85L11.1255 11.425H8.40049L10.5505 13.15L9.80049 15.65L12.0005 14.175Z" fill="black"/>
</g>
<defs>
<clipPath id="clip0_3204_9936">
<rect width="24" height="24" fill="white"/>
</clipPath>
</defs>
</svg>
