<svg width="24" height="24" viewBox="0 0 24 24" fill="none" xmlns="http://www.w3.org/2000/svg">
<g clip-path="url(#clip0_3204_10888)">
<rect width="24" height="24" fill="white"/>
<path d="M2.00049 3H8.95049L10.9505 5H22.0005V20H2.00049V3ZM20.1005 18.15V6.85H10.1755L8.17549 4.85H3.90049V18.15H20.1005ZM7.22549 14.45C7.22549 13.9667 7.41716 13.5667 7.80049 13.25C8.20049 12.9333 8.70882 12.775 9.32549 12.775C9.97549 12.775 10.5005 12.9333 10.9005 13.25C11.3172 13.5667 11.5255 13.9667 11.5255 14.45V15.5H7.22549V14.45ZM10.6255 14.05C10.3255 14.05 10.1005 14.05 9.95049 14.05C9.81716 14.05 9.60882 14.05 9.32549 14.05C9.05882 14.05 8.85882 14.05 8.72549 14.05C8.59216 14.05 8.39216 14.05 8.12549 14.05H10.6255ZM9.32549 12.05C8.92549 12.05 8.59216 11.9167 8.32549 11.65C8.05882 11.3667 7.92549 11.0333 7.92549 10.65C7.92549 10.2667 8.05882 9.93333 8.32549 9.65C8.59216 9.36667 8.92549 9.225 9.32549 9.225C9.72549 9.225 10.0672 9.36667 10.3505 9.65C10.6338 9.93333 10.7755 10.2667 10.7755 10.65C10.7755 11.0333 10.6338 11.3667 10.3505 11.65C10.0672 11.9167 9.72549 12.05 9.32549 12.05ZM9.32549 10.65C9.44216 10.65 9.52549 10.65 9.57549 10.65C9.64216 10.65 9.73382 10.65 9.85049 10.65C9.73382 10.65 9.64216 10.65 9.57549 10.65C9.52549 10.65 9.44216 10.65 9.32549 10.65C9.20882 10.65 9.11716 10.65 9.05049 10.65C8.98382 10.65 8.89216 10.65 8.77549 10.65C8.89216 10.65 8.98382 10.65 9.05049 10.65C9.11716 10.65 9.20882 10.65 9.32549 10.65ZM12.4755 14.45C12.4755 13.9667 12.6672 13.5667 13.0505 13.25C13.4505 12.9333 13.9588 12.775 14.5755 12.775C15.2255 12.775 15.7505 12.9333 16.1505 13.25C16.5672 13.5667 16.7755 13.9667 16.7755 14.45V15.5H12.4755V14.45ZM15.8755 14.05C15.5755 14.05 15.3505 14.05 15.2005 14.05C15.0672 14.05 14.8588 14.05 14.5755 14.05C14.3088 14.05 14.1088 14.05 13.9755 14.05C13.8422 14.05 13.6422 14.05 13.3755 14.05H15.8755ZM14.5755 12.05C14.1755 12.05 13.8422 11.9167 13.5755 11.65C13.3088 11.3667 13.1755 11.0333 13.1755 10.65C13.1755 10.2667 13.3088 9.93333 13.5755 9.65C13.8422 9.36667 14.1755 9.225 14.5755 9.225C14.9588 9.225 15.2922 9.36667 15.5755 9.65C15.8588 9.93333 16.0005 10.2667 16.0005 10.65C16.0005 11.0333 15.8588 11.3667 15.5755 11.65C15.2922 11.9167 14.9588 12.05 14.5755 12.05ZM14.5755 10.65C14.6922 10.65 14.7755 10.65 14.8255 10.65C14.8922 10.65 14.9838 10.65 15.1005 10.65C14.9838 10.65 14.8922 10.65 14.8255 10.65C14.7755 10.65 14.6922 10.65 14.5755 10.65C14.4588 10.65 14.3672 10.65 14.3005 10.65C14.2338 10.65 14.1422 10.65 14.0255 10.65C14.1422 10.65 14.2338 10.65 14.3005 10.65C14.3672 10.65 14.4588 10.65 14.5755 10.65Z" fill="black"/>
</g>
<defs>
<clipPath id="clip0_3204_10888">
<rect width="24" height="24" fill="white"/>
</clipPath>
</defs>
</svg>
