<svg width="24" height="24" viewBox="0 0 24 24" fill="none" xmlns="http://www.w3.org/2000/svg">
<g clip-path="url(#clip0_3204_10608)">
<rect width="24" height="24" fill="white"/>
<path d="M2.00049 3H10.2005L11.4505 4.25H22.0005V20H2.00049V3ZM18.4505 16.5V7.75H10.0005L8.75049 6.5H5.55049V16.5H18.4505ZM8.77549 14.7C8.77549 13.9667 9.05049 13.4083 9.60049 13.025C10.1672 12.625 10.9422 12.425 11.9255 12.425C12.9588 12.425 13.7672 12.625 14.3505 13.025C14.9338 13.4083 15.2255 13.9667 15.2255 14.7V15.725H8.77549V14.7ZM13.8755 14.175C13.4422 14.175 13.1172 14.175 12.9005 14.175C12.6838 14.175 12.3672 14.175 11.9505 14.175C11.5338 14.175 11.2255 14.175 11.0255 14.175C10.8255 14.175 10.5255 14.175 10.1255 14.175H13.8755ZM11.9505 11.725C11.4672 11.725 11.0588 11.5583 10.7255 11.225C10.3922 10.8917 10.2255 10.475 10.2255 9.975C10.2255 9.50833 10.3922 9.1 10.7255 8.75C11.0588 8.4 11.4672 8.225 11.9505 8.225C12.4338 8.225 12.8505 8.4 13.2005 8.75C13.5505 9.1 13.7255 9.50833 13.7255 9.975C13.7255 10.475 13.5505 10.8917 13.2005 11.225C12.8672 11.5583 12.4505 11.725 11.9505 11.725ZM11.9505 10.075C12.1005 10.075 12.2088 10.075 12.2755 10.075C12.3422 10.075 12.4422 10.075 12.5755 10.075C12.4422 10.075 12.3338 10.075 12.2505 10.075C12.1838 10.075 12.0838 10.075 11.9505 10.075C11.8172 10.075 11.7088 10.075 11.6255 10.075C11.5588 10.075 11.4588 10.075 11.3255 10.075C11.4588 10.075 11.5588 10.075 11.6255 10.075C11.7088 10.075 11.8172 10.075 11.9505 10.075Z" fill="black"/>
</g>
<defs>
<clipPath id="clip0_3204_10608">
<rect width="24" height="24" fill="white"/>
</clipPath>
</defs>
</svg>
