<svg width="24" height="24" viewBox="0 0 24 24" fill="none" xmlns="http://www.w3.org/2000/svg">
<g clip-path="url(#clip0_3204_12108)">
<rect width="24" height="24" fill="white"/>
<path d="M4.85049 20C4.33382 20 3.85882 19.875 3.42549 19.625C2.99216 19.375 2.65049 19.0333 2.40049 18.6C2.15049 18.1667 2.02549 17.6917 2.02549 17.175V6.825C2.02549 6.30833 2.15049 5.83333 2.40049 5.4C2.65049 4.96667 2.99216 4.625 3.42549 4.375C3.85882 4.125 4.33382 4 4.85049 4H19.2005C19.7172 4 20.1922 4.125 20.6255 4.375C21.0588 4.625 21.4005 4.96667 21.6505 5.4C21.9005 5.83333 22.0255 6.30833 22.0255 6.825V17.175C22.0255 17.6917 21.9005 18.1667 21.6505 18.6C21.4005 19.0333 21.0588 19.375 20.6255 19.625C20.1922 19.875 19.7172 20 19.2005 20H4.85049ZM19.2005 18.625C19.6005 18.625 19.9338 18.4833 20.2005 18.2C20.4838 17.9167 20.6255 17.575 20.6255 17.175V6.825C20.6255 6.425 20.4838 6.08333 20.2005 5.8C19.9338 5.5 19.6005 5.35 19.2005 5.35H4.85049C4.46716 5.35 4.13382 5.5 3.85049 5.8C3.56716 6.08333 3.42549 6.425 3.42549 6.825V17.175C3.42549 17.575 3.56716 17.9167 3.85049 18.2C4.13382 18.4833 4.46716 18.625 4.85049 18.625H19.2005ZM12.8255 11.325H16.8755V12.625H12.8255V11.325ZM12.8255 8H18.3505V9.325H12.8255V8ZM6.15049 15.125C6.15049 14.5917 6.35882 14.1833 6.77549 13.9C7.19216 13.6167 7.76716 13.475 8.50049 13.475C9.26716 13.475 9.86716 13.6167 10.3005 13.9C10.7338 14.1833 10.9505 14.5917 10.9505 15.125V15.7H6.15049V15.125ZM10.0005 14.775C9.66716 14.775 9.41716 14.775 9.25049 14.775C9.08382 14.775 8.83382 14.775 8.50049 14.775C8.18382 14.775 7.94216 14.775 7.77549 14.775C7.62549 14.775 7.40049 14.775 7.10049 14.775H10.0005ZM8.50049 12.6C8.13382 12.6 7.82549 12.475 7.57549 12.225C7.34216 11.975 7.22549 11.6667 7.22549 11.3C7.22549 10.95 7.34216 10.65 7.57549 10.4C7.82549 10.15 8.13382 10.025 8.50049 10.025C8.85049 10.025 9.15049 10.1583 9.40049 10.425C9.66716 10.675 9.80049 10.9667 9.80049 11.3C9.80049 11.6667 9.66716 11.975 9.40049 12.225C9.15049 12.475 8.85049 12.6 8.50049 12.6ZM8.50049 11.3C8.60049 11.3 8.67549 11.3 8.72549 11.3C8.79216 11.3 8.87549 11.3 8.97549 11.3C8.87549 11.3 8.79216 11.3 8.72549 11.3C8.67549 11.3 8.60049 11.3 8.50049 11.3C8.40049 11.3 8.31716 11.3 8.25049 11.3C8.20049 11.3 8.12549 11.3 8.02549 11.3C8.12549 11.3 8.20049 11.3 8.25049 11.3C8.31716 11.3 8.40049 11.3 8.50049 11.3Z" fill="black"/>
</g>
<defs>
<clipPath id="clip0_3204_12108">
<rect width="24" height="24" fill="white"/>
</clipPath>
</defs>
</svg>
