<svg width="24" height="24" viewBox="0 0 24 24" fill="none" xmlns="http://www.w3.org/2000/svg">
<g clip-path="url(#clip0_3204_12126)">
<rect width="24" height="24" fill="white"/>
<path d="M5.15 15.175C4.51667 15.625 4.2 16.2083 4.2 16.925V17.875H11.35V16.925C11.35 16.2083 11.0167 15.625 10.35 15.175C9.7 14.7083 8.825 14.475 7.725 14.475C6.65833 14.475 5.8 14.7083 5.15 15.175ZM6.325 12.825C6.69167 13.1917 7.15833 13.375 7.725 13.375C8.29167 13.375 8.75 13.1917 9.1 12.825C9.46667 12.4583 9.65 11.9917 9.65 11.425C9.65 10.8417 9.46667 10.375 9.1 10.025C8.75 9.65833 8.29167 9.475 7.725 9.475C7.15833 9.475 6.69167 9.65833 6.325 10.025C5.975 10.375 5.8 10.8417 5.8 11.425C5.8 11.9917 5.975 12.4583 6.325 12.825ZM21.275 19.275C20.7917 19.7583 20.2 20 19.5 20H4.5C3.8 20 3.20833 19.7583 2.725 19.275C2.24167 18.7917 2 18.2 2 17.5V6.5C2 5.8 2.24167 5.20833 2.725 4.725C3.20833 4.24167 3.8 4 4.5 4H19.5C20.2 4 20.7917 4.24167 21.275 4.725C21.7583 5.20833 22 5.8 22 6.5V17.5C22 18.2 21.7583 18.7917 21.275 19.275ZM12.425 6.9V9.25H19.425V6.9H12.425ZM12.425 10.875V13.225H17.5V10.875H12.425Z" fill="black"/>
</g>
<defs>
<clipPath id="clip0_3204_12126">
<rect width="24" height="24" fill="white"/>
</clipPath>
</defs>
</svg>
