<svg width="24" height="24" viewBox="0 0 24 24" fill="none" xmlns="http://www.w3.org/2000/svg">
<g clip-path="url(#clip0_3204_9992)">
<rect width="24" height="24" fill="white"/>
<path d="M4.52549 20C4.05882 20 3.63382 19.8917 3.25049 19.675C2.88382 19.4417 2.58382 19.1417 2.35049 18.775C2.13382 18.3917 2.02549 17.9667 2.02549 17.5V6.5C2.02549 6.03333 2.13382 5.61667 2.35049 5.25C2.58382 4.86667 2.88382 4.56667 3.25049 4.35C3.63382 4.11667 4.05882 4 4.52549 4H19.5255C19.9922 4 20.4088 4.11667 20.7755 4.35C21.1588 4.56667 21.4588 4.86667 21.6755 5.25C21.9088 5.61667 22.0255 6.03333 22.0255 6.5V17.5C22.0255 17.9667 21.9088 18.3917 21.6755 18.775C21.4588 19.1417 21.1588 19.4417 20.7755 19.675C20.4088 19.8917 19.9922 20 19.5255 20H4.52549ZM19.5255 19.525C20.0922 19.525 20.5672 19.3333 20.9505 18.95C21.3338 18.55 21.5255 18.0667 21.5255 17.5V6.5C21.5255 5.93333 21.3338 5.45833 20.9505 5.075C20.5672 4.675 20.0922 4.475 19.5255 4.475H4.52549C3.95882 4.475 3.48382 4.675 3.10049 5.075C2.71716 5.45833 2.52549 5.93333 2.52549 6.5V17.5C2.52549 18.0667 2.71716 18.55 3.10049 18.95C3.48382 19.3333 3.95882 19.525 4.52549 19.525H19.5255ZM13.0005 11.325H17.6005V11.8H13.0005V11.325ZM13.0005 8H19.0255V8.475H13.0005V8ZM5.27549 15.85C5.27549 15.1167 5.55049 14.5333 6.10049 14.1C6.65049 13.65 7.38382 13.425 8.30049 13.425C9.25049 13.425 10.0088 13.65 10.5755 14.1C11.1422 14.5333 11.4255 15.1167 11.4255 15.85V16.775H5.27549V15.85ZM10.9255 16.3V15.85C10.9255 15.25 10.6922 14.775 10.2255 14.425C9.75882 14.075 9.11716 13.9 8.30049 13.9C7.51716 13.9 6.90049 14.075 6.45049 14.425C6.00049 14.775 5.77549 15.25 5.77549 15.85V16.3H10.9255ZM8.27549 12.6C7.80882 12.6 7.40882 12.4417 7.07549 12.125C6.75882 11.7917 6.60049 11.3917 6.60049 10.925C6.60049 10.4583 6.75882 10.0667 7.07549 9.75C7.39216 9.43333 7.79216 9.275 8.27549 9.275C8.75882 9.275 9.15882 9.43333 9.47549 9.75C9.80882 10.0667 9.97549 10.4583 9.97549 10.925C9.97549 11.3917 9.80882 11.7917 9.47549 12.125C9.15882 12.4417 8.75882 12.6 8.27549 12.6ZM8.27549 12.15C8.60882 12.15 8.89216 12.0333 9.12549 11.8C9.37549 11.55 9.50049 11.2583 9.50049 10.925C9.50049 10.5917 9.37549 10.3083 9.12549 10.075C8.89216 9.84167 8.60882 9.725 8.27549 9.725C7.94216 9.725 7.65882 9.84167 7.42549 10.075C7.19216 10.3083 7.07549 10.5917 7.07549 10.925C7.07549 11.2583 7.19216 11.55 7.42549 11.8C7.65882 12.0333 7.94216 12.15 8.27549 12.15Z" fill="black"/>
</g>
<defs>
<clipPath id="clip0_3204_9992">
<rect width="24" height="24" fill="white"/>
</clipPath>
</defs>
</svg>
