<svg width="24" height="24" viewBox="0 0 24 24" fill="none" xmlns="http://www.w3.org/2000/svg">
<g clip-path="url(#clip0_3204_11888)">
<rect width="24" height="24" fill="white"/>
<path d="M3 3H21V21H3V3ZM19.6 19.65V4.35H4.4V19.65H19.6ZM3.725 17.75L12.175 12.6C12.8583 12.1833 13.5583 11.975 14.275 11.975C14.9917 11.975 15.6917 12.1833 16.375 12.6L20.275 14.95V20.175H3.725V17.75ZM8.95 11.2C8.31667 11.2 7.78333 10.9833 7.35 10.55C6.91667 10.1 6.7 9.55833 6.7 8.925C6.7 8.30833 6.91667 7.78333 7.35 7.35C7.8 6.91667 8.33333 6.7 8.95 6.7C9.56667 6.7 10.0917 6.91667 10.525 7.35C10.975 7.78333 11.2 8.30833 11.2 8.925C11.2 9.55833 10.9833 10.1 10.55 10.55C10.1167 10.9833 9.58333 11.2 8.95 11.2Z" fill="black"/>
</g>
<defs>
<clipPath id="clip0_3204_11888">
<rect width="24" height="24" fill="white"/>
</clipPath>
</defs>
</svg>
