<svg width="24" height="24" viewBox="0 0 24 24" fill="none" xmlns="http://www.w3.org/2000/svg">
<g clip-path="url(#clip0_3204_9976)">
<rect width="24" height="24" fill="white"/>
<path d="M3.50049 20.525H20.5005V3.475H3.50049V20.525ZM21.0005 3V21H3.00049V3H21.0005ZM12.7505 10.875L15.6255 5.975L18.5005 10.875H12.7505ZM10.9005 6.05V10.875H6.10049V6.05H10.9005ZM8.47549 18.2C7.72549 18.2 7.09216 17.95 6.57549 17.45C6.05882 16.9333 5.80049 16.3 5.80049 15.55C5.80049 14.7833 6.05882 14.1417 6.57549 13.625C7.09216 13.1083 7.72549 12.85 8.47549 12.85C9.24216 12.85 9.88382 13.1083 10.4005 13.625C10.9338 14.1417 11.2005 14.7833 11.2005 15.55C11.2005 16.3 10.9338 16.9333 10.4005 17.45C9.88382 17.95 9.24216 18.2 8.47549 18.2ZM15.6255 6.9L13.5505 10.425H17.7005L15.6255 6.9ZM6.57549 10.425H10.4255V6.5H6.57549V10.425ZM8.47549 17.75C9.10882 17.75 9.64216 17.5417 10.0755 17.125C10.5088 16.6917 10.7255 16.1667 10.7255 15.55C10.7255 14.9167 10.5088 14.3833 10.0755 13.95C9.64216 13.5167 9.10882 13.3 8.47549 13.3C7.85882 13.3 7.33382 13.5167 6.90049 13.95C6.48382 14.3833 6.27549 14.9167 6.27549 15.55C6.27549 16.1667 6.48382 16.6917 6.90049 17.125C7.33382 17.5417 7.85882 17.75 8.47549 17.75Z" fill="black"/>
</g>
<defs>
<clipPath id="clip0_3204_9976">
<rect width="24" height="24" fill="white"/>
</clipPath>
</defs>
</svg>
