<svg width="24" height="24" viewBox="0 0 24 24" fill="none" xmlns="http://www.w3.org/2000/svg">
<g clip-path="url(#clip0_3204_11890)">
<rect width="24" height="24" fill="white"/>
<path d="M3 3H21V21H3V3ZM19.15 19.2V4.8H4.85V19.2H19.15ZM3.95 17.6L12.175 12.575C12.8417 12.175 13.5167 11.975 14.2 11.975C14.9 11.975 15.5833 12.175 16.25 12.575L20.05 14.875V19.95H3.95V17.6ZM9.125 11.375C8.49167 11.375 7.95833 11.1583 7.525 10.725C7.09167 10.275 6.875 9.73333 6.875 9.1C6.875 8.48333 7.09167 7.95833 7.525 7.525C7.975 7.09167 8.50833 6.875 9.125 6.875C9.74167 6.875 10.2667 7.09167 10.7 7.525C11.15 7.95833 11.375 8.48333 11.375 9.1C11.375 9.73333 11.1583 10.275 10.725 10.725C10.2917 11.1583 9.75833 11.375 9.125 11.375Z" fill="black"/>
</g>
<defs>
<clipPath id="clip0_3204_11890">
<rect width="24" height="24" fill="white"/>
</clipPath>
</defs>
</svg>
