<svg width="24" height="24" viewBox="0 0 24 24" fill="none" xmlns="http://www.w3.org/2000/svg">
<g clip-path="url(#clip0_3204_12140)">
<rect width="24" height="24" fill="white"/>
<path d="M8.80049 20.85C4.93382 18.6167 3.00049 15.8 3.00049 12.4V4.275L12.0005 1L21.0005 4.275V12.4C21.0005 15.8 19.0672 18.6167 15.2005 20.85L12.0005 22.7L8.80049 20.85ZM13.6255 18.25C15.1088 17.4167 16.1922 16.525 16.8755 15.575C17.5755 14.6083 17.9255 13.55 17.9255 12.4V6.375L12.0005 4.225L6.07549 6.375V12.4C6.07549 13.55 6.41716 14.6083 7.10049 15.575C7.80049 16.525 8.89216 17.4167 10.3755 18.25L12.0005 19.2L13.6255 18.25Z" fill="black"/>
</g>
<defs>
<clipPath id="clip0_3204_12140">
<rect width="24" height="24" fill="white"/>
</clipPath>
</defs>
</svg>
