<svg width="24" height="24" viewBox="0 0 24 24" fill="none" xmlns="http://www.w3.org/2000/svg">
<g clip-path="url(#clip0_3204_12142)">
<rect width="24" height="24" fill="white"/>
<path d="M8.80049 20.85C4.93382 18.6167 3.00049 15.8 3.00049 12.4V4.275L12.0005 1L21.0005 4.275V12.4C21.0005 15.8 19.0672 18.6167 15.2005 20.85L12.0005 22.7L8.80049 20.85ZM13.3505 17.8C14.7505 17 15.7672 16.1583 16.4005 15.275C17.0505 14.375 17.3755 13.4167 17.3755 12.4V6.75L12.0005 4.8L6.62549 6.75V12.4C6.62549 13.4167 6.94216 14.375 7.57549 15.275C8.22549 16.1583 9.25049 17 10.6505 17.8L12.0005 18.575L13.3505 17.8Z" fill="black"/>
</g>
<defs>
<clipPath id="clip0_3204_12142">
<rect width="24" height="24" fill="white"/>
</clipPath>
</defs>
</svg>
