<svg width="24" height="24" viewBox="0 0 24 24" fill="none" xmlns="http://www.w3.org/2000/svg">
<g clip-path="url(#clip0_3204_10336)">
<rect width="24" height="24" fill="white"/>
<path d="M21 21H3V3H16.425L21 7.575V21ZM8.375 12.875L8.125 15.875L11.075 15.625L15.9 10.75C16.1333 10.5167 16.25 10.2833 16.25 10.05C16.25 9.81667 16.1333 9.58333 15.9 9.35L14.575 8.025C14.3583 7.79167 14.125 7.675 13.875 7.675C13.6417 7.675 13.4083 7.79167 13.175 8.025L8.375 12.875ZM13.8 10.05H13.925H14C14.0167 10.05 14.025 10.05 14.025 10.05C14.025 10.05 14.0167 10.05 14 10.05H13.95C13.9333 10.05 13.9167 10.05 13.9 10.05C13.9 10.05 13.8917 10.05 13.875 10.05H13.8Z" fill="black"/>
</g>
<defs>
<clipPath id="clip0_3204_10336">
<rect width="24" height="24" fill="white"/>
</clipPath>
</defs>
</svg>
