<svg width="24" height="24" viewBox="0 0 24 24" fill="none" xmlns="http://www.w3.org/2000/svg">
<g clip-path="url(#clip0_3204_10332)">
<rect width="24" height="24" fill="white"/>
<path d="M21 21H3V3H16.425L21 7.575V21ZM7.9 14.425L7.625 16.375L9.55 16.1L14.05 11.6C13.9333 11.4833 13.8417 11.4 13.775 11.35C13.725 11.2833 13.6417 11.1917 13.525 11.075L12.925 10.45C12.8083 10.3333 12.7167 10.25 12.65 10.2C12.6 10.1333 12.5167 10.0417 12.4 9.925L7.9 14.425ZM13.45 8.875L15.1 10.525L16.1 9.55C16.2333 9.41667 16.3 9.275 16.3 9.125C16.3 8.95833 16.2333 8.81667 16.1 8.7L15.275 7.875C15.1583 7.74167 15.0167 7.675 14.85 7.675C14.7 7.675 14.5583 7.74167 14.425 7.875L13.45 8.875Z" fill="black"/>
</g>
<defs>
<clipPath id="clip0_3204_10332">
<rect width="24" height="24" fill="white"/>
</clipPath>
</defs>
</svg>
