<svg width="24" height="24" viewBox="0 0 24 24" fill="none" xmlns="http://www.w3.org/2000/svg">
<g clip-path="url(#clip0_3204_10326)">
<rect width="24" height="24" fill="white"/>
<path d="M21 21H3V3H16.425L21 7.575V21ZM7.875 14.7L7.625 16.375L9.275 16.125L14.5 10.9C14.4 10.8 14.3167 10.725 14.25 10.675C14.2 10.625 14.1333 10.55 14.05 10.45L13.5 9.9C13.4167 9.8 13.35 9.73333 13.3 9.7C13.25 9.65 13.1833 9.575 13.1 9.475L7.875 14.7ZM13.675 8.9L15.075 10.3L15.975 9.425C16.1083 9.29167 16.175 9.15 16.175 9C16.175 8.85 16.1083 8.70833 15.975 8.575L15.4 8C15.2667 7.86667 15.125 7.8 14.975 7.8C14.825 7.8 14.6833 7.86667 14.55 8L13.675 8.9Z" fill="black"/>
</g>
<defs>
<clipPath id="clip0_3204_10326">
<rect width="24" height="24" fill="white"/>
</clipPath>
</defs>
</svg>
