<svg width="24" height="24" viewBox="0 0 24 24" fill="none" xmlns="http://www.w3.org/2000/svg">
<g clip-path="url(#clip0_3204_10318)">
<rect width="24" height="24" fill="white"/>
<path d="M3.00049 3H16.4255L21.0005 7.575V21H3.00049V3ZM18.5755 18.625V8.55L15.4005 5.375H5.42549V18.625H18.5755ZM8.62549 13.725L11.6505 10.7C11.7005 10.75 11.7422 10.7917 11.7755 10.825C11.8088 10.8583 11.8505 10.9 11.9005 10.95L13.0505 12.125C13.1005 12.175 13.1338 12.2167 13.1505 12.25C13.1838 12.2667 13.2255 12.3 13.2755 12.35L10.2505 15.375L8.37549 15.625L8.62549 13.725ZM9.72549 14.225H9.87549C9.89216 14.225 9.90049 14.225 9.90049 14.225C9.90049 14.225 9.89216 14.225 9.87549 14.225H9.82549H9.65049H9.72549ZM12.7005 9.65L13.6005 8.75C13.7505 8.6 13.9255 8.525 14.1255 8.525C14.3255 8.525 14.5005 8.6 14.6505 8.75L15.2505 9.35C15.3838 9.48333 15.4505 9.65833 15.4505 9.875C15.4505 10.075 15.3838 10.25 15.2505 10.4L14.3505 11.275L12.7005 9.65Z" fill="black"/>
</g>
<defs>
<clipPath id="clip0_3204_10318">
<rect width="24" height="24" fill="white"/>
</clipPath>
</defs>
</svg>
