<svg width="24" height="24" viewBox="0 0 24 24" fill="none" xmlns="http://www.w3.org/2000/svg">
<g clip-path="url(#clip0_3204_10312)">
<rect width="24" height="24" fill="white"/>
<path d="M3.00049 3H16.4255L21.0005 7.575V21H3.00049V3ZM20.0255 20.075V7.925L16.0255 3.925H3.97549V20.075H20.0255ZM15.7255 8.875C16.0255 9.175 16.1755 9.51667 16.1755 9.9C16.1755 10.2833 16.0255 10.6333 15.7255 10.95L10.7505 15.925H8.07549V13.3L13.1255 8.275C13.4255 7.975 13.7672 7.825 14.1505 7.825C14.5338 7.825 14.8755 7.98333 15.1755 8.3L15.7255 8.875ZM14.5755 8.9C14.4422 8.75 14.2922 8.675 14.1255 8.675C13.9755 8.675 13.8338 8.75 13.7005 8.9L8.92549 13.65V15.075H10.4005L15.1505 10.35C15.2838 10.2167 15.3422 10.0667 15.3255 9.9C15.3255 9.73333 15.2588 9.58333 15.1255 9.45L14.5755 8.9ZM12.7005 9.275L14.6755 11.25L14.1005 11.875L12.1505 9.875L12.7005 9.275ZM9.67549 15.5C9.70882 15.5 9.72549 15.5 9.72549 15.5C9.74216 15.5 9.76716 15.5 9.80049 15.5H9.87549C9.89216 15.5 9.90049 15.5 9.90049 15.5C9.90049 15.5 9.89216 15.5 9.87549 15.5H9.75049H9.55049H9.67549ZM9.10049 15.5H8.92549H9.45049H9.62549H9.10049Z" fill="black"/>
</g>
<defs>
<clipPath id="clip0_3204_10312">
<rect width="24" height="24" fill="white"/>
</clipPath>
</defs>
</svg>
