<svg width="24" height="24" viewBox="0 0 24 24" fill="none" xmlns="http://www.w3.org/2000/svg">
<g clip-path="url(#clip0_3204_10334)">
<rect width="24" height="24" fill="white"/>
<path d="M21 21H3V3H16.425L21 7.575V21ZM8.075 13.825L7.8 16.2L10.15 15.925L16.05 9.975C16.2 9.825 16.275 9.65833 16.275 9.475C16.2917 9.275 16.225 9.1 16.075 8.95L15 7.9C14.85 7.73333 14.6833 7.65 14.5 7.65C14.3167 7.65 14.1417 7.73333 13.975 7.9L8.075 13.825ZM12.8 11.05H12.925H13.025C13.0417 11.05 13.05 11.05 13.05 11.05C13.05 11.05 13.0417 11.05 13.025 11.05H12.95C12.9333 11.05 12.9167 11.05 12.9 11.05C12.9 11.05 12.8917 11.05 12.875 11.05H12.8Z" fill="black"/>
</g>
<defs>
<clipPath id="clip0_3204_10334">
<rect width="24" height="24" fill="white"/>
</clipPath>
</defs>
</svg>
