<svg width="24" height="24" viewBox="0 0 24 24" fill="none" xmlns="http://www.w3.org/2000/svg">
<g clip-path="url(#clip0_3204_10212)">
<rect width="24" height="24" fill="white"/>
<path d="M4.00049 2H15.4255L20.0005 6.575V22H4.00049V2ZM18.1005 20.15V7.3L14.6755 3.85H5.90049V20.15H18.1005ZM11.0755 15.95C10.5088 15.85 10.0172 15.6583 9.60049 15.375C9.18382 15.075 8.85049 14.6833 8.60049 14.2L10.0005 13.4C10.1672 13.75 10.4005 14.025 10.7005 14.225C11.0172 14.4083 11.4005 14.5 11.8505 14.5C12.3005 14.5 12.6588 14.4167 12.9255 14.25C13.1922 14.0833 13.3255 13.8583 13.3255 13.575C13.3255 13.325 13.2255 13.1417 13.0255 13.025C12.8422 12.9083 12.5672 12.825 12.2005 12.775L11.1255 12.6C10.3922 12.5 9.81716 12.2667 9.40049 11.9C9.00049 11.5333 8.80049 11.025 8.80049 10.375C8.80049 9.725 9.00049 9.20833 9.40049 8.825C9.81716 8.44167 10.3755 8.18333 11.0755 8.05V6.85H12.7255V8.05C13.2422 8.15 13.7005 8.33333 14.1005 8.6C14.5172 8.86667 14.8338 9.21667 15.0505 9.65L13.6505 10.425C13.5005 10.1083 13.2755 9.875 12.9755 9.725C12.6922 9.575 12.3338 9.5 11.9005 9.5C11.4838 9.5 11.1505 9.56667 10.9005 9.7C10.6672 9.83333 10.5505 10.0417 10.5505 10.325C10.5505 10.5583 10.6338 10.7333 10.8005 10.85C10.9672 10.9667 11.2338 11.05 11.6005 11.1L12.6755 11.25C13.4255 11.3667 14.0088 11.6083 14.4255 11.975C14.8588 12.325 15.0755 12.8333 15.0755 13.5C15.0755 14.15 14.8588 14.6833 14.4255 15.1C13.9922 15.5167 13.4255 15.7917 12.7255 15.925V17.125H11.0755V15.95Z" fill="black"/>
</g>
<defs>
<clipPath id="clip0_3204_10212">
<rect width="24" height="24" fill="white"/>
</clipPath>
</defs>
</svg>
