<svg width="24" height="24" viewBox="0 0 24 24" fill="none" xmlns="http://www.w3.org/2000/svg">
<g clip-path="url(#clip0_3204_10226)">
<rect width="24" height="24" fill="white"/>
<path d="M20 22H4V2H15.425L20 6.575V22ZM9.35 16.05C9.85 16.3833 10.4417 16.5917 11.125 16.675V18.075H12.7V16.65C13.5167 16.5333 14.1833 16.2417 14.7 15.775C15.2333 15.3083 15.5 14.6917 15.5 13.925C15.5 13.175 15.25 12.5917 14.75 12.175C14.25 11.7417 13.5833 11.4667 12.75 11.35L11.55 11.175C11.0333 11.1083 10.6583 10.9833 10.425 10.8C10.2083 10.6167 10.1 10.3583 10.1 10.025C10.1 9.625 10.2583 9.33333 10.575 9.15C10.9083 8.95 11.35 8.85 11.9 8.85C12.45 8.85 12.9083 8.95833 13.275 9.175C13.6583 9.375 13.9333 9.68333 14.1 10.1L15.475 9.375C15.2417 8.85833 14.875 8.43333 14.375 8.1C13.8917 7.75 13.3333 7.53333 12.7 7.45V6.05H11.125V7.45C10.3083 7.56667 9.65833 7.85 9.175 8.3C8.69167 8.75 8.45 9.34167 8.45 10.075C8.45 10.7917 8.66667 11.3667 9.1 11.8C9.55 12.2333 10.2083 12.5083 11.075 12.625L12.275 12.8C12.7917 12.8833 13.175 13.025 13.425 13.225C13.6917 13.4083 13.825 13.6583 13.825 13.975C13.825 14.375 13.65 14.6917 13.3 14.925C12.95 15.1583 12.4667 15.275 11.85 15.275C11.3 15.275 10.825 15.1667 10.425 14.95C10.0417 14.7167 9.75833 14.375 9.575 13.925L8.2 14.675C8.46667 15.2583 8.85 15.7167 9.35 16.05Z" fill="black"/>
</g>
<defs>
<clipPath id="clip0_3204_10226">
<rect width="24" height="24" fill="white"/>
</clipPath>
</defs>
</svg>
