<svg width="24" height="24" viewBox="0 0 24 24" fill="none" xmlns="http://www.w3.org/2000/svg">
<g clip-path="url(#clip0_3204_11688)">
<rect width="24" height="24" fill="white"/>
<path d="M21.275 19.275C20.7917 19.7583 20.2 20 19.5 20H4.5C3.8 20 3.20833 19.7583 2.725 19.275C2.24167 18.7917 2 18.2 2 17.5V6.5C2 5.8 2.24167 5.20833 2.725 4.725C3.20833 4.24167 3.8 4 4.5 4H19.5C20.2 4 20.7917 4.24167 21.275 4.725C21.7583 5.20833 22 5.8 22 6.5V17.5C22 18.2 21.7583 18.7917 21.275 19.275ZM11.1 13.375L10.45 17.075H12.875L13.975 13.375H16.225C16.725 13.375 17.1167 13.25 17.4 13C17.7 12.75 17.85 12.4167 17.85 12C17.85 11.5833 17.7 11.25 17.4 11C17.1167 10.75 16.725 10.625 16.225 10.625H13.975L12.875 6.925H10.45L11.1 10.625H9.425L9.025 9.475H6.775L7.35 12L6.8 14.525H9.05L9.325 13.375H11.1Z" fill="black"/>
</g>
<defs>
<clipPath id="clip0_3204_11688">
<rect width="24" height="24" fill="white"/>
</clipPath>
</defs>
</svg>
