<svg width="24" height="24" viewBox="0 0 24 24" fill="none" xmlns="http://www.w3.org/2000/svg">
<g clip-path="url(#clip0_3204_11672)">
<rect width="24" height="24" fill="white"/>
<path d="M5.32549 20C4.72549 20 4.16716 19.85 3.65049 19.55C3.15049 19.25 2.75049 18.85 2.45049 18.35C2.15049 17.8333 2.00049 17.275 2.00049 16.675V7.325C2.00049 6.725 2.15049 6.175 2.45049 5.675C2.75049 5.15833 3.15049 4.75 3.65049 4.45C4.16716 4.15 4.72549 4 5.32549 4H18.6755C19.2755 4 19.8255 4.15 20.3255 4.45C20.8422 4.75 21.2505 5.15833 21.5505 5.675C21.8505 6.175 22.0005 6.725 22.0005 7.325V16.675C22.0005 17.275 21.8505 17.8333 21.5505 18.35C21.2505 18.85 20.8422 19.25 20.3255 19.55C19.8255 19.85 19.2755 20 18.6755 20H5.32549ZM18.6255 17.1C18.7422 17.1 18.8422 17.0583 18.9255 16.975C19.0088 16.875 19.0505 16.7667 19.0505 16.65V7.35C19.0505 7.23333 19.0088 7.13333 18.9255 7.05C18.8422 6.95 18.7422 6.9 18.6255 6.9H5.37549C5.25882 6.9 5.15882 6.95 5.07549 7.05C4.99216 7.13333 4.95049 7.23333 4.95049 7.35V16.65C4.95049 16.7667 4.99216 16.875 5.07549 16.975C5.15882 17.0583 5.25882 17.1 5.37549 17.1H18.6255ZM11.1255 13.2H9.77549L9.42549 14.25H7.37549L7.87549 12L7.37549 9.75H9.42549L9.77549 10.8H11.1255L10.6005 7.825H12.9255L13.8255 10.8H15.7255C16.1922 10.8 16.5588 10.9083 16.8255 11.125C17.0922 11.3417 17.2255 11.6333 17.2255 12C17.2255 12.3667 17.0922 12.6583 16.8255 12.875C16.5588 13.0917 16.1922 13.2 15.7255 13.2H13.8255L12.9255 16.175H10.6005L11.1255 13.2ZM12.0255 12H12.8005H13.8255C13.9255 12 13.9922 12 14.0255 12C14.0755 12 14.1505 12 14.2505 12C14.1505 12 14.0755 12 14.0255 12C13.9922 12 13.9255 12 13.8255 12H12.8005H12.0255H11.6005H12.0755H10.8755H10.5255H10.0505H10.5005H10.0505H10.5255H10.8755H12.0755H11.6005H12.0255Z" fill="black"/>
</g>
<defs>
<clipPath id="clip0_3204_11672">
<rect width="24" height="24" fill="white"/>
</clipPath>
</defs>
</svg>
