<svg width="24" height="24" viewBox="0 0 24 24" fill="none" xmlns="http://www.w3.org/2000/svg">
<g clip-path="url(#clip0_3375_5998)">
<rect width="24" height="24" fill="white"/>
<path d="M12.0255 16.5L13.5505 17.75L14.2005 16.025L16.2505 16.35L15.9255 14.275L17.8255 13.6L16.5005 12L17.8755 10.325L15.9255 9.575L16.2255 7.65L14.2005 8L13.5255 6.225L12.0255 7.475L10.5505 6.275L9.92549 8L7.85049 7.65L8.17549 9.575L6.17549 10.325L7.55049 12L6.25049 13.575L8.17549 14.275L7.82549 16.35L9.92549 16.025L10.5505 17.725L12.0255 16.5ZM7.95049 19.125L4.30049 19.7L4.90049 16.05L1.47549 14.825L3.82549 12L1.47549 9.15L4.90049 7.85L4.30049 4.25L7.95049 4.875L9.20049 1.45L12.0255 3.8L14.8505 1.45L16.1505 4.875L19.7505 4.25L19.1755 7.85L22.5755 9.15L20.2255 12L22.5755 14.825L19.1755 16.05L19.7505 19.7L16.1505 19.125L14.8505 22.525L12.0255 20.175L9.20049 22.525L7.95049 19.125Z" fill="black"/>
</g>
<defs>
<clipPath id="clip0_3375_5998">
<rect width="24" height="24" fill="white"/>
</clipPath>
</defs>
</svg>
