<svg width="24" height="24" viewBox="0 0 24 24" fill="none" xmlns="http://www.w3.org/2000/svg">
<g clip-path="url(#clip0_3375_5988)">
<rect width="24" height="24" fill="white"/>
<path d="M12.0255 17.8L14.3255 20.625L14.9255 17.075L18.3755 18.35L17.1005 14.875L20.6755 14.325L17.8255 12L20.7255 9.65L17.1005 9.05L18.3505 5.625L14.9255 6.975L14.3255 3.35L12.0255 6.2L9.70049 3.35L9.12549 6.975L5.67549 5.65L7.00049 9.05L3.32549 9.65L6.20049 12L3.35049 14.325L7.00049 14.875L5.67549 18.35L9.12549 17.075L9.70049 20.625L12.0255 17.8ZM8.50049 18.15L4.30049 19.7L5.90049 15.5L1.47549 14.85L4.95049 12.025L1.47549 9.15L5.90049 8.425L4.30049 4.25L8.50049 5.875L9.20049 1.45L12.0255 4.925L14.8505 1.45L15.5755 5.875L19.7505 4.25L18.2005 8.425L22.5755 9.15L19.1005 12.025L22.5755 14.85L18.2005 15.5L19.7505 19.7L15.5755 18.15L14.8505 22.525L12.0255 19.05L9.20049 22.525L8.50049 18.15Z" fill="black"/>
</g>
<defs>
<clipPath id="clip0_3375_5988">
<rect width="24" height="24" fill="white"/>
</clipPath>
</defs>
</svg>
