<svg width="24" height="24" viewBox="0 0 24 24" fill="none" xmlns="http://www.w3.org/2000/svg">
<g clip-path="url(#clip0_3182_30622)">
<rect width="24" height="24" fill="white"/>
<path d="M12.0005 19.025L14.5755 21.625L15.5505 18.15L19.0755 19.075L18.1505 15.475L21.6255 14.6L19.0255 12.025L21.6505 9.4L18.1505 8.425L19.0505 4.925L15.5505 5.9L14.5755 2.375L12.0005 4.975L9.42549 2.375L8.52549 5.9L4.95049 4.925L5.90049 8.425L2.35049 9.4L4.97549 12.025L2.37549 14.6L5.90049 15.475L4.95049 19.075L8.52549 18.15L9.42549 21.625L12.0005 19.025ZM8.17549 18.725L4.27549 19.725L5.32549 15.825L1.45049 14.85L4.30049 12.025L1.45049 9.15L5.32549 8.1L4.27549 4.25L8.17549 5.325L9.17549 1.45L12.0005 4.3L14.8255 1.45L15.8755 5.325L19.7255 4.25L18.7255 8.1L22.5505 9.15L19.7005 12.025L22.5505 14.85L18.7255 15.825L19.7255 19.725L15.8755 18.725L14.8255 22.55L12.0005 19.7L9.17549 22.55L8.17549 18.725Z" fill="black"/>
</g>
<defs>
<clipPath id="clip0_3182_30622">
<rect width="24" height="24" fill="white"/>
</clipPath>
</defs>
</svg>
