<svg width="24" height="24" viewBox="0 0 24 24" fill="none" xmlns="http://www.w3.org/2000/svg">
<g clip-path="url(#clip0_3375_5994)">
<rect width="24" height="24" fill="white"/>
<path d="M12.0005 16.7L13.8005 18.675L14.3505 16.175L16.9505 16.975L16.1255 14.35L18.7005 13.8L16.7255 12.025L18.7755 10.15L16.1255 9.575L16.9255 7.05L14.3505 7.925L13.8005 5.3L12.0005 7.3L10.2505 5.35L9.70049 7.925L7.12549 7.05L7.95049 9.575L5.22549 10.15L7.30049 12.025L5.30049 13.8L7.95049 14.35L7.10049 16.975L9.72549 16.175L10.2505 18.675L12.0005 16.7ZM8.30049 18.5L4.27549 19.725L5.55049 15.7L1.45049 14.85L4.55049 12.025L1.45049 9.15L5.55049 8.225L4.27549 4.25L8.30049 5.55L9.17549 1.45L12.0005 4.55L14.8255 1.45L15.7505 5.55L19.7255 4.25L18.5005 8.225L22.5505 9.15L19.4505 12.025L22.5505 14.85L18.5005 15.7L19.7255 19.725L15.7505 18.5L14.8255 22.55L12.0005 19.45L9.17549 22.55L8.30049 18.5Z" fill="black"/>
</g>
<defs>
<clipPath id="clip0_3375_5994">
<rect width="24" height="24" fill="white"/>
</clipPath>
</defs>
</svg>
