<svg width="24" height="24" viewBox="0 0 24 24" fill="none" xmlns="http://www.w3.org/2000/svg">
<g clip-path="url(#clip0_3375_5996)">
<rect width="24" height="24" fill="white"/>
<path d="M12.0255 16.875L13.7255 18.4L14.4005 16.35L16.7255 16.8L16.2755 14.45L18.4505 13.775L16.8755 12L18.5255 10.175L16.2755 9.425L16.7005 7.2L14.4005 7.7L13.7005 5.575L12.0255 7.1L10.3505 5.625L9.70049 7.7L7.35049 7.2L7.82549 9.425L5.52549 10.175L7.15049 12L5.60049 13.75L7.82549 14.45L7.32549 16.8L9.70049 16.35L10.3505 18.375L12.0255 16.875ZM8.02549 19L4.30049 19.7L5.05049 15.975L1.47549 14.825L3.97549 12L1.47549 9.15L5.05049 7.925L4.30049 4.25L8.02549 5.025L9.20049 1.45L12.0255 3.975L14.8505 1.45L16.0505 5.025L19.7505 4.25L19.0255 7.925L22.5755 9.15L20.0505 12L22.5755 14.825L19.0255 15.975L19.7505 19.7L16.0505 19L14.8505 22.525L12.0255 20.025L9.20049 22.525L8.02549 19Z" fill="black"/>
</g>
<defs>
<clipPath id="clip0_3375_5996">
<rect width="24" height="24" fill="white"/>
</clipPath>
</defs>
</svg>
