<svg width="24" height="24" viewBox="0 0 24 24" fill="none" xmlns="http://www.w3.org/2000/svg">
<g clip-path="url(#clip0_3375_5998)">
<rect width="24" height="24" fill="white"/>
<path d="M12.0255 16.55L13.6005 17.85L14.3005 16.05L16.3505 16.375L16.0005 14.25L17.8755 13.575L16.5755 12L17.9505 10.35L16.0005 9.6L16.3255 7.65L14.3005 8L13.6005 6.125L12.0255 7.425L10.5005 6.175L9.82549 8L7.75049 7.625L8.07549 9.6L6.10049 10.35L7.47549 12L6.17549 13.575L8.07549 14.25L7.72549 16.375L9.85049 16.05L10.5005 17.825L12.0255 16.55ZM7.95049 19.125L4.30049 19.7L4.90049 16.05L1.47549 14.825L3.82549 12L1.47549 9.15L4.90049 7.85L4.30049 4.25L7.95049 4.875L9.20049 1.45L12.0255 3.8L14.8505 1.45L16.1505 4.875L19.7505 4.25L19.1755 7.85L22.5755 9.15L20.2255 12L22.5755 14.825L19.1755 16.05L19.7505 19.7L16.1505 19.125L14.8505 22.525L12.0255 20.175L9.20049 22.525L7.95049 19.125Z" fill="black"/>
</g>
<defs>
<clipPath id="clip0_3375_5998">
<rect width="24" height="24" fill="white"/>
</clipPath>
</defs>
</svg>
