<svg width="24" height="24" viewBox="0 0 24 24" fill="none" xmlns="http://www.w3.org/2000/svg">
<g clip-path="url(#clip0_3182_30720)">
<rect width="24" height="24" fill="white"/>
<path d="M18.4755 8.35C17.7922 7.11667 16.8422 6.15833 15.6255 5.475L16.9005 3.275C18.5338 4.19167 19.8088 5.46667 20.7255 7.1L18.4755 8.35ZM7.10049 20.725C5.46716 19.8083 4.19216 18.5333 3.27549 16.9L5.52549 15.65C6.20882 16.85 7.15882 17.8083 8.37549 18.525L7.10049 20.725ZM12.0005 22C11.0505 22 10.1505 21.875 9.30049 21.625L9.97549 19.175C10.6255 19.375 11.3005 19.475 12.0005 19.475C12.7005 19.475 13.3755 19.375 14.0255 19.175L14.7005 21.625C13.8505 21.875 12.9505 22 12.0005 22ZM2.37549 14.7C2.12549 13.85 2.00049 12.95 2.00049 12C2.00049 11.05 2.12549 10.15 2.37549 9.3L4.87549 9.975C4.67549 10.5917 4.57549 11.2667 4.57549 12C4.57549 12.7167 4.67549 13.3917 4.87549 14.025L2.37549 14.7ZM15.6255 18.525C16.8422 17.8417 17.7922 16.8833 18.4755 15.65L20.7255 16.9C19.8088 18.5333 18.5338 19.8083 16.9005 20.725L15.6255 18.525ZM3.27549 7.1C4.19216 5.46667 5.46716 4.19167 7.10049 3.275L8.37549 5.475C7.15882 6.15833 6.20882 7.11667 5.52549 8.35L3.27549 7.1ZM9.30049 2.375C10.1505 2.125 11.0505 2 12.0005 2C12.9505 2 13.8505 2.125 14.7005 2.375L14.0255 4.825C13.3755 4.625 12.7005 4.525 12.0005 4.525C11.3005 4.525 10.6255 4.625 9.97549 4.825L9.30049 2.375ZM19.1255 14.025C19.3255 13.3917 19.4255 12.7167 19.4255 12C19.4255 11.2667 19.3255 10.5917 19.1255 9.975L21.6255 9.3C21.8755 10.15 22.0005 11.05 22.0005 12C22.0005 12.95 21.8755 13.85 21.6255 14.7L19.1255 14.025Z" fill="black"/>
</g>
<defs>
<clipPath id="clip0_3182_30720">
<rect width="24" height="24" fill="white"/>
</clipPath>
</defs>
</svg>
