<svg width="24" height="24" viewBox="0 0 24 24" fill="none" xmlns="http://www.w3.org/2000/svg">
<g clip-path="url(#clip0_3184_31750)">
<rect width="24" height="24" fill="white"/>
<path d="M12.0005 3.45C10.4338 3.45 9.00049 3.83333 7.70049 4.6C6.40049 5.35 5.37549 6.38333 4.62549 7.7C3.87549 9 3.50049 10.4333 3.50049 12C3.50049 13.5667 3.87549 15.0083 4.62549 16.325C5.37549 17.625 6.40049 18.6583 7.70049 19.425C9.00049 20.175 10.4338 20.55 12.0005 20.55C13.5672 20.55 15.0005 20.175 16.3005 19.425C17.6005 18.6583 18.6255 17.625 19.3755 16.325C20.1255 15.0083 20.5005 13.5667 20.5005 12C20.5005 10.4333 20.1255 9 19.3755 7.7C18.6255 6.38333 17.6005 5.35 16.3005 4.6C15.0005 3.83333 13.5672 3.45 12.0005 3.45ZM12.0005 2C13.8338 2 15.5172 2.44167 17.0505 3.325C18.5838 4.20833 19.7922 5.41667 20.6755 6.95C21.5588 8.48333 22.0005 10.1667 22.0005 12C22.0005 13.8333 21.5588 15.5167 20.6755 17.05C19.7922 18.5833 18.5838 19.7917 17.0505 20.675C15.5172 21.5583 13.8338 22 12.0005 22C10.1672 22 8.48382 21.5583 6.95049 20.675C5.41716 19.7917 4.20882 18.5833 3.32549 17.05C2.44216 15.5167 2.00049 13.8333 2.00049 12C2.00049 10.1667 2.44216 8.48333 3.32549 6.95C4.20882 5.41667 5.41716 4.20833 6.95049 3.325C8.48382 2.44167 10.1672 2 12.0005 2Z" fill="black"/>
</g>
<defs>
<clipPath id="clip0_3184_31750">
<rect width="24" height="24" fill="white"/>
</clipPath>
</defs>
</svg>
