<svg width="24" height="24" viewBox="0 0 24 24" fill="none" xmlns="http://www.w3.org/2000/svg">
<g clip-path="url(#clip0_3182_30738)">
<rect width="24" height="24" fill="white"/>
<path d="M17.45 8.925C16.8667 7.875 16.0667 7.06667 15.05 6.5L16.9 3.275C18.5333 4.19167 19.8083 5.46667 20.725 7.1L17.45 8.925ZM7.1 20.725C5.46667 19.8083 4.19167 18.5333 3.275 16.9L6.55 15.075C7.13333 16.1083 7.93333 16.9167 8.95 17.5L7.1 20.725ZM12 22C11.05 22 10.15 21.875 9.3 21.625L10.3 18.05C10.8167 18.2167 11.3833 18.3 12 18.3C12.6167 18.3 13.1833 18.2167 13.7 18.05L14.7 21.625C13.85 21.875 12.95 22 12 22ZM2.375 14.7C2.125 13.85 2 12.95 2 12C2 11.05 2.125 10.15 2.375 9.3L6 10.275C5.83333 10.7917 5.75 11.3667 5.75 12C5.75 12.6333 5.83333 13.2083 6 13.725L2.375 14.7ZM15.05 17.5C16.0667 16.9333 16.8667 16.125 17.45 15.075L20.725 16.9C19.8083 18.5333 18.5333 19.8083 16.9 20.725L15.05 17.5ZM3.275 7.1C4.19167 5.46667 5.46667 4.19167 7.1 3.275L8.95 6.5C7.93333 7.08333 7.13333 7.89167 6.55 8.925L3.275 7.1ZM9.3 2.375C10.15 2.125 11.05 2 12 2C12.95 2 13.85 2.125 14.7 2.375L13.7 5.95C13.1833 5.78333 12.6167 5.7 12 5.7C11.3833 5.7 10.8167 5.78333 10.3 5.95L9.3 2.375ZM18 13.725C18.1667 13.2083 18.25 12.6333 18.25 12C18.25 11.3667 18.1667 10.7917 18 10.275L21.625 9.3C21.875 10.15 22 11.05 22 12C22 12.95 21.875 13.85 21.625 14.7L18 13.725Z" fill="black"/>
</g>
<defs>
<clipPath id="clip0_3182_30738">
<rect width="24" height="24" fill="white"/>
</clipPath>
</defs>
</svg>
