<svg width="24" height="24" viewBox="0 0 24 24" fill="none" xmlns="http://www.w3.org/2000/svg">
<g clip-path="url(#clip0_3182_30730)">
<rect width="24" height="24" fill="white"/>
<path d="M19.425 7.825C18.6417 6.425 17.55 5.33333 16.15 4.55L16.9 3.275C18.5333 4.19167 19.8083 5.46667 20.725 7.1L19.425 7.825ZM7.1 20.725C5.46667 19.8083 4.19167 18.5333 3.275 16.9L4.575 16.175C5.35833 17.5583 6.45 18.65 7.85 19.45L7.1 20.725ZM12 22C11.0333 22 10.1333 21.875 9.3 21.625L9.7 20.225C10.45 20.4417 11.2167 20.55 12 20.55C12.7833 20.55 13.55 20.4417 14.3 20.225L14.7 21.625C13.85 21.875 12.95 22 12 22ZM2.375 14.7C2.125 13.85 2 12.95 2 12C2 11.05 2.125 10.15 2.375 9.3L3.825 9.7C3.60833 10.4167 3.5 11.1833 3.5 12C3.5 12.8 3.60833 13.5667 3.825 14.3L2.375 14.7ZM16.15 19.45C17.55 18.6667 18.6417 17.575 19.425 16.175L20.725 16.9C19.8083 18.5333 18.5333 19.8083 16.9 20.725L16.15 19.45ZM3.275 7.1C4.19167 5.46667 5.46667 4.19167 7.1 3.275L7.85 4.55C6.45 5.33333 5.35833 6.425 4.575 7.825L3.275 7.1ZM9.3 2.375C10.15 2.125 11.05 2 12 2C12.95 2 13.85 2.125 14.7 2.375L14.3 3.775C13.55 3.55833 12.7833 3.45 12 3.45C11.2167 3.45 10.45 3.55833 9.7 3.775L9.3 2.375ZM20.175 14.3C20.3917 13.5667 20.5 12.8 20.5 12C20.5 11.1833 20.3917 10.4167 20.175 9.7L21.625 9.3C21.875 10.15 22 11.05 22 12C22 12.95 21.875 13.85 21.625 14.7L20.175 14.3Z" fill="black"/>
</g>
<defs>
<clipPath id="clip0_3182_30730">
<rect width="24" height="24" fill="white"/>
</clipPath>
</defs>
</svg>
