<svg width="24" height="24" viewBox="0 0 24 24" fill="none" xmlns="http://www.w3.org/2000/svg">
<g clip-path="url(#clip0_3182_30732)">
<rect width="24" height="24" fill="white"/>
<path d="M19 8.075C18.2667 6.74167 17.2333 5.70833 15.9 4.975L16.9 3.275C18.5333 4.19167 19.8083 5.46667 20.725 7.1L19 8.075ZM7.1 20.725C5.46667 19.8083 4.19167 18.5333 3.275 16.9L5 15.925C5.73333 17.225 6.76667 18.2583 8.1 19.025L7.1 20.725ZM12 22C11.05 22 10.15 21.875 9.3 21.625L9.825 19.75C10.525 19.95 11.25 20.05 12 20.05C12.75 20.05 13.475 19.95 14.175 19.75L14.7 21.625C13.85 21.875 12.95 22 12 22ZM2.375 14.7C2.125 13.85 2 12.95 2 12C2 11.05 2.125 10.15 2.375 9.3L4.3 9.825C4.1 10.4917 4 11.2167 4 12C4 12.7667 4.1 13.4917 4.3 14.175L2.375 14.7ZM15.9 19.025C17.2333 18.2917 18.2667 17.2583 19 15.925L20.725 16.9C19.8083 18.5333 18.5333 19.8083 16.9 20.725L15.9 19.025ZM3.275 7.1C4.19167 5.46667 5.46667 4.19167 7.1 3.275L8.1 4.975C6.76667 5.70833 5.73333 6.74167 5 8.075L3.275 7.1ZM9.3 2.375C10.15 2.125 11.05 2 12 2C12.95 2 13.85 2.125 14.7 2.375L14.175 4.25C13.475 4.05 12.75 3.95 12 3.95C11.25 3.95 10.525 4.05 9.825 4.25L9.3 2.375ZM19.7 14.175C19.9 13.4917 20 12.7667 20 12C20 11.2167 19.9 10.4917 19.7 9.825L21.625 9.3C21.875 10.15 22 11.05 22 12C22 12.95 21.875 13.85 21.625 14.7L19.7 14.175Z" fill="black"/>
</g>
<defs>
<clipPath id="clip0_3182_30732">
<rect width="24" height="24" fill="white"/>
</clipPath>
</defs>
</svg>
