<svg width="24" height="24" viewBox="0 0 24 24" fill="none" xmlns="http://www.w3.org/2000/svg">
<g clip-path="url(#clip0_3182_30734)">
<rect width="24" height="24" fill="white"/>
<path d="M18.475 8.35C17.7917 7.11667 16.8417 6.15833 15.625 5.475L16.9 3.275C18.5333 4.19167 19.8083 5.46667 20.725 7.1L18.475 8.35ZM7.1 20.725C5.46667 19.8083 4.19167 18.5333 3.275 16.9L5.525 15.65C6.20833 16.85 7.15833 17.8083 8.375 18.525L7.1 20.725ZM12 22C11.05 22 10.15 21.875 9.3 21.625L9.975 19.175C10.625 19.375 11.3 19.475 12 19.475C12.7 19.475 13.375 19.375 14.025 19.175L14.7 21.625C13.85 21.875 12.95 22 12 22ZM2.375 14.7C2.125 13.85 2 12.95 2 12C2 11.05 2.125 10.15 2.375 9.3L4.875 9.975C4.675 10.5917 4.575 11.2667 4.575 12C4.575 12.7167 4.675 13.3917 4.875 14.025L2.375 14.7ZM15.625 18.525C16.8417 17.8417 17.7917 16.8833 18.475 15.65L20.725 16.9C19.8083 18.5333 18.5333 19.8083 16.9 20.725L15.625 18.525ZM3.275 7.1C4.19167 5.46667 5.46667 4.19167 7.1 3.275L8.375 5.475C7.15833 6.15833 6.20833 7.11667 5.525 8.35L3.275 7.1ZM9.3 2.375C10.15 2.125 11.05 2 12 2C12.95 2 13.85 2.125 14.7 2.375L14.025 4.825C13.375 4.625 12.7 4.525 12 4.525C11.3 4.525 10.625 4.625 9.975 4.825L9.3 2.375ZM19.125 14.025C19.325 13.3917 19.425 12.7167 19.425 12C19.425 11.2667 19.325 10.5917 19.125 9.975L21.625 9.3C21.875 10.15 22 11.05 22 12C22 12.95 21.875 13.85 21.625 14.7L19.125 14.025Z" fill="black"/>
</g>
<defs>
<clipPath id="clip0_3182_30734">
<rect width="24" height="24" fill="white"/>
</clipPath>
</defs>
</svg>
