<svg width="24" height="24" viewBox="0 0 24 24" fill="none" xmlns="http://www.w3.org/2000/svg">
<g clip-path="url(#clip0_3184_31748)">
<rect width="24" height="24" fill="white"/>
<path d="M12.0005 2.975C10.3505 2.975 8.83382 3.375 7.45049 4.175C6.08382 4.975 5.00049 6.06667 4.20049 7.45C3.40049 8.81667 3.00049 10.3333 3.00049 12C3.00049 13.6667 3.40049 15.1917 4.20049 16.575C5.00049 17.9417 6.08382 19.025 7.45049 19.825C8.83382 20.625 10.3505 21.025 12.0005 21.025C13.6505 21.025 15.1588 20.625 16.5255 19.825C17.9088 19.025 19.0005 17.9417 19.8005 16.575C20.6005 15.1917 21.0005 13.6667 21.0005 12C21.0005 10.3333 20.6005 8.81667 19.8005 7.45C19.0005 6.06667 17.9088 4.975 16.5255 4.175C15.1588 3.375 13.6505 2.975 12.0005 2.975ZM12.0005 2C13.8338 2 15.5172 2.44167 17.0505 3.325C18.5838 4.20833 19.7922 5.41667 20.6755 6.95C21.5588 8.48333 22.0005 10.1667 22.0005 12C22.0005 13.8333 21.5588 15.5167 20.6755 17.05C19.7922 18.5833 18.5838 19.7917 17.0505 20.675C15.5172 21.5583 13.8338 22 12.0005 22C10.1672 22 8.48382 21.5583 6.95049 20.675C5.41716 19.7917 4.20882 18.5833 3.32549 17.05C2.44216 15.5167 2.00049 13.8333 2.00049 12C2.00049 10.1667 2.44216 8.48333 3.32549 6.95C4.20882 5.41667 5.41716 4.20833 6.95049 3.325C8.48382 2.44167 10.1672 2 12.0005 2Z" fill="black"/>
</g>
<defs>
<clipPath id="clip0_3184_31748">
<rect width="24" height="24" fill="white"/>
</clipPath>
</defs>
</svg>
