<svg width="24" height="24" viewBox="0 0 24 24" fill="none" xmlns="http://www.w3.org/2000/svg">
<g clip-path="url(#clip0_3182_31138)">
<rect width="24" height="24" fill="white"/>
<path d="M6.90049 12C6.90049 13.4833 7.11716 14.8083 7.55049 15.975C7.98382 17.125 8.58382 18.025 9.35049 18.675C10.1338 19.325 11.0172 19.65 12.0005 19.65C12.9838 19.65 13.8588 19.325 14.6255 18.675C15.4088 18.025 16.0172 17.125 16.4505 15.975C16.8838 14.8083 17.1005 13.4833 17.1005 12C17.1005 10.5167 16.8838 9.2 16.4505 8.05C16.0172 6.88333 15.4088 5.975 14.6255 5.325C13.8588 4.675 12.9838 4.35 12.0005 4.35C11.0172 4.35 10.1338 4.675 9.35049 5.325C8.58382 5.975 7.98382 6.88333 7.55049 8.05C7.11716 9.2 6.90049 10.5167 6.90049 12ZM3.75049 12C3.75049 9.91667 4.10049 8.06667 4.80049 6.45C5.50049 4.81667 6.47549 3.54167 7.72549 2.625C8.97549 1.70833 10.4005 1.25 12.0005 1.25C13.6005 1.25 15.0255 1.70833 16.2755 2.625C17.5255 3.54167 18.5005 4.81667 19.2005 6.45C19.9005 8.06667 20.2505 9.91667 20.2505 12C20.2505 14.0833 19.9005 15.9417 19.2005 17.575C18.5005 19.1917 17.5255 20.4583 16.2755 21.375C15.0255 22.2917 13.6005 22.75 12.0005 22.75C10.4005 22.75 8.97549 22.2917 7.72549 21.375C6.47549 20.4583 5.50049 19.1917 4.80049 17.575C4.10049 15.9417 3.75049 14.0833 3.75049 12Z" fill="black"/>
</g>
<defs>
<clipPath id="clip0_3182_31138">
<rect width="24" height="24" fill="white"/>
</clipPath>
</defs>
</svg>
