<svg width="24" height="24" viewBox="0 0 24 24" fill="none" xmlns="http://www.w3.org/2000/svg">
<g clip-path="url(#clip0_3182_31038)">
<rect width="24" height="24" fill="white"/>
<path d="M12 3.75C14.0833 3.75 15.9333 4.1 17.55 4.8C19.1833 5.5 20.4583 6.475 21.375 7.725C22.2917 8.975 22.75 10.4 22.75 12C22.75 13.6 22.2917 15.025 21.375 16.275C20.4583 17.525 19.1833 18.5 17.55 19.2C15.9333 19.9 14.0833 20.25 12 20.25C9.91667 20.25 8.05833 19.9 6.425 19.2C4.80833 18.5 3.54167 17.525 2.625 16.275C1.70833 15.025 1.25 13.6 1.25 12C1.25 10.4 1.70833 8.975 2.625 7.725C3.54167 6.475 4.80833 5.5 6.425 4.8C8.05833 4.1 9.91667 3.75 12 3.75Z" fill="black"/>
</g>
<defs>
<clipPath id="clip0_3182_31038">
<rect width="24" height="24" fill="white"/>
</clipPath>
</defs>
</svg>
