<svg width="24" height="24" viewBox="0 0 24 24" fill="none" xmlns="http://www.w3.org/2000/svg">
<g clip-path="url(#clip0_3182_30642)">
<rect width="24" height="24" fill="white"/>
<path d="M12.0005 4.225C10.0172 4.225 8.24216 4.55833 6.67549 5.225C5.12549 5.875 3.91716 6.79167 3.05049 7.975C2.18382 9.15833 1.75049 10.5 1.75049 12C1.75049 13.5 2.18382 14.8417 3.05049 16.025C3.91716 17.2083 5.12549 18.1333 6.67549 18.8C8.24216 19.45 10.0172 19.775 12.0005 19.775C13.9838 19.775 15.7505 19.45 17.3005 18.8C18.8672 18.1333 20.0838 17.2083 20.9505 16.025C21.8172 14.8417 22.2505 13.5 22.2505 12C22.2505 10.5 21.8172 9.15833 20.9505 7.975C20.0838 6.79167 18.8672 5.875 17.3005 5.225C15.7505 4.55833 13.9838 4.225 12.0005 4.225ZM12.0005 3.75C14.0838 3.75 15.9338 4.1 17.5505 4.8C19.1838 5.5 20.4588 6.475 21.3755 7.725C22.2922 8.975 22.7505 10.4 22.7505 12C22.7505 13.6 22.2922 15.025 21.3755 16.275C20.4588 17.525 19.1838 18.5 17.5505 19.2C15.9338 19.9 14.0838 20.25 12.0005 20.25C9.91716 20.25 8.05882 19.9 6.42549 19.2C4.80882 18.5 3.54216 17.525 2.62549 16.275C1.70882 15.025 1.25049 13.6 1.25049 12C1.25049 10.4 1.70882 8.975 2.62549 7.725C3.54216 6.475 4.80882 5.5 6.42549 4.8C8.05882 4.1 9.91716 3.75 12.0005 3.75Z" fill="black"/>
</g>
<defs>
<clipPath id="clip0_3182_30642">
<rect width="24" height="24" fill="white"/>
</clipPath>
</defs>
</svg>
