<svg width="24" height="24" viewBox="0 0 24 24" fill="none" xmlns="http://www.w3.org/2000/svg">
<g clip-path="url(#clip0_3182_31140)">
<rect width="24" height="24" fill="white"/>
<path d="M7.50049 12C7.50049 13.3667 7.69216 14.5833 8.07549 15.65C8.45882 16.7167 8.99216 17.55 9.67549 18.15C10.3588 18.75 11.1338 19.05 12.0005 19.05C12.8672 19.05 13.6422 18.75 14.3255 18.15C15.0088 17.55 15.5422 16.7167 15.9255 15.65C16.3088 14.5833 16.5005 13.3667 16.5005 12C16.5005 10.6333 16.3088 9.41667 15.9255 8.35C15.5422 7.28333 15.0088 6.45 14.3255 5.85C13.6422 5.25 12.8672 4.95 12.0005 4.95C11.1338 4.95 10.3588 5.25 9.67549 5.85C8.99216 6.45 8.45882 7.28333 8.07549 8.35C7.69216 9.41667 7.50049 10.6333 7.50049 12ZM3.75049 12C3.75049 9.91667 4.10049 8.06667 4.80049 6.45C5.50049 4.81667 6.47549 3.54167 7.72549 2.625C8.97549 1.70833 10.4005 1.25 12.0005 1.25C13.6005 1.25 15.0255 1.70833 16.2755 2.625C17.5255 3.54167 18.5005 4.81667 19.2005 6.45C19.9005 8.06667 20.2505 9.91667 20.2505 12C20.2505 14.0833 19.9005 15.9417 19.2005 17.575C18.5005 19.1917 17.5255 20.4583 16.2755 21.375C15.0255 22.2917 13.6005 22.75 12.0005 22.75C10.4005 22.75 8.97549 22.2917 7.72549 21.375C6.47549 20.4583 5.50049 19.1917 4.80049 17.575C4.10049 15.9417 3.75049 14.0833 3.75049 12Z" fill="black"/>
</g>
<defs>
<clipPath id="clip0_3182_31140">
<rect width="24" height="24" fill="white"/>
</clipPath>
</defs>
</svg>
