<svg width="24" height="24" viewBox="0 0 24 24" fill="none" xmlns="http://www.w3.org/2000/svg">
<g clip-path="url(#clip0_3182_31372)">
<rect width="24" height="24" fill="white"/>
<path d="M10.3755 1.6C12.4922 0.533333 15.0338 -8.34465e-07 18.0005 -8.34465e-07V24C15.0338 24 12.4922 23.4667 10.3755 22.4C8.27549 21.35 6.68382 19.9167 5.60049 18.1C4.53382 16.2833 4.00049 14.25 4.00049 12C4.00049 9.75 4.53382 7.71667 5.60049 5.9C6.68382 4.08333 8.27549 2.65 10.3755 1.6ZM10.6755 19C11.8255 19.8 13.2088 20.325 14.8255 20.575V3.425C13.2088 3.675 11.8255 4.20833 10.6755 5.025C9.54216 5.825 8.67549 6.83333 8.07549 8.05C7.47549 9.25 7.17549 10.5667 7.17549 12C7.17549 13.4333 7.46716 14.7583 8.05049 15.975C8.65049 17.175 9.52549 18.1833 10.6755 19Z" fill="black"/>
</g>
<defs>
<clipPath id="clip0_3182_31372">
<rect width="24" height="24" fill="white"/>
</clipPath>
</defs>
</svg>
