<svg width="24" height="24" viewBox="0 0 24 24" fill="none" xmlns="http://www.w3.org/2000/svg">
<g clip-path="url(#clip0_3182_31368)">
<rect width="24" height="24" fill="white"/>
<path d="M10.5755 1.6C12.6922 0.533333 15.1672 -8.34465e-07 18.0005 -8.34465e-07V24C15.1672 24 12.6922 23.4667 10.5755 22.4C8.45882 21.35 6.83382 19.9167 5.70049 18.1C4.56716 16.2833 4.00049 14.25 4.00049 12C4.00049 9.75 4.56716 7.71667 5.70049 5.9C6.83382 4.08333 8.45882 2.65 10.5755 1.6ZM10.5255 20.225C12.0422 21.1583 13.8838 21.75 16.0505 22V2C13.8838 2.25 12.0422 2.84167 10.5255 3.775C9.00882 4.70833 7.86716 5.88333 7.10049 7.3C6.33382 8.71667 5.95049 10.2833 5.95049 12C5.95049 13.7167 6.33382 15.2833 7.10049 16.7C7.86716 18.1167 9.00882 19.2917 10.5255 20.225Z" fill="black"/>
</g>
<defs>
<clipPath id="clip0_3182_31368">
<rect width="24" height="24" fill="white"/>
</clipPath>
</defs>
</svg>
