<svg width="24" height="24" viewBox="0 0 24 24" fill="none" xmlns="http://www.w3.org/2000/svg">
<g clip-path="url(#clip0_3379_7532)">
<rect width="24" height="24" fill="white"/>
<path d="M6.35049 4.675L19.2755 17.6L17.6255 19.3L4.72549 6.35L6.35049 4.675ZM12.0005 22C10.1672 22 8.48382 21.5583 6.95049 20.675C5.41716 19.7917 4.20882 18.5833 3.32549 17.05C2.44216 15.5167 2.00049 13.8333 2.00049 12C2.00049 10.1667 2.44216 8.48333 3.32549 6.95C4.20882 5.41667 5.41716 4.20833 6.95049 3.325C8.48382 2.44167 10.1672 2 12.0005 2C13.8338 2 15.5172 2.44167 17.0505 3.325C18.5838 4.20833 19.7922 5.41667 20.6755 6.95C21.5588 8.48333 22.0005 10.1667 22.0005 12C22.0005 13.8333 21.5588 15.5167 20.6755 17.05C19.7922 18.5833 18.5838 19.7917 17.0505 20.675C15.5172 21.5583 13.8338 22 12.0005 22ZM12.0005 19.625C13.3838 19.625 14.6505 19.2833 15.8005 18.6C16.9672 17.9167 17.8838 17 18.5505 15.85C19.2338 14.6833 19.5755 13.4 19.5755 12C19.5755 10.6 19.2338 9.325 18.5505 8.175C17.8838 7.00833 16.9672 6.08333 15.8005 5.4C14.6505 4.71667 13.3838 4.375 12.0005 4.375C10.6172 4.375 9.34216 4.71667 8.17549 5.4C7.02549 6.08333 6.10882 7.00833 5.42549 8.175C4.75882 9.325 4.42549 10.6 4.42549 12C4.42549 13.4 4.75882 14.6833 5.42549 15.85C6.10882 17 7.02549 17.9167 8.17549 18.6C9.34216 19.2833 10.6172 19.625 12.0005 19.625Z" fill="black"/>
</g>
<defs>
<clipPath id="clip0_3379_7532">
<rect width="24" height="24" fill="white"/>
</clipPath>
</defs>
</svg>
