<svg width="24" height="24" viewBox="0 0 24 24" fill="none" xmlns="http://www.w3.org/2000/svg">
<g clip-path="url(#clip0_3202_8243)">
<rect width="24" height="24" fill="white"/>
<path d="M5.57549 4.925L19.0505 18.4L18.4005 19.075L4.92549 5.6L5.57549 4.925ZM12.0005 22C10.1672 22 8.48382 21.5583 6.95049 20.675C5.41716 19.7917 4.20882 18.5833 3.32549 17.05C2.44216 15.5167 2.00049 13.8333 2.00049 12C2.00049 10.1667 2.44216 8.48333 3.32549 6.95C4.20882 5.41667 5.41716 4.20833 6.95049 3.325C8.48382 2.44167 10.1672 2 12.0005 2C13.8338 2 15.5172 2.44167 17.0505 3.325C18.5838 4.20833 19.7922 5.41667 20.6755 6.95C21.5588 8.48333 22.0005 10.1667 22.0005 12C22.0005 13.8333 21.5588 15.5167 20.6755 17.05C19.7922 18.5833 18.5838 19.7917 17.0505 20.675C15.5172 21.5583 13.8338 22 12.0005 22ZM12.0005 21.075C13.6672 21.075 15.1838 20.675 16.5505 19.875C17.9338 19.0583 19.0255 17.9583 19.8255 16.575C20.6255 15.1917 21.0255 13.6667 21.0255 12C21.0255 10.3333 20.6255 8.80833 19.8255 7.425C19.0255 6.04167 17.9338 4.95 16.5505 4.15C15.1838 3.33333 13.6672 2.925 12.0005 2.925C10.3338 2.925 8.80882 3.33333 7.42549 4.15C6.05882 4.95 4.97549 6.04167 4.17549 7.425C3.37549 8.80833 2.97549 10.3333 2.97549 12C2.97549 13.6667 3.37549 15.1917 4.17549 16.575C4.97549 17.9583 6.05882 19.0583 7.42549 19.875C8.80882 20.675 10.3338 21.075 12.0005 21.075Z" fill="black"/>
</g>
<defs>
<clipPath id="clip0_3202_8243">
<rect width="24" height="24" fill="white"/>
</clipPath>
</defs>
</svg>
