<svg width="24" height="24" viewBox="0 0 24 24" fill="none" xmlns="http://www.w3.org/2000/svg">
<g clip-path="url(#clip0_3379_7669)">
<rect width="24" height="24" fill="white"/>
<path d="M10.6505 9.575L6.30049 7.45L5.22549 9.3L9.17549 12L5.22549 14.7L6.30049 16.55L10.6505 14.45L10.9755 19.275H13.0505L13.3755 14.425L17.7255 16.55L18.7755 14.7L14.8255 12L18.7755 9.3L17.7255 7.45L13.3755 9.55L13.0505 4.725H10.9755L10.6505 9.575ZM15.5755 2L15.8255 5.375L18.8505 3.9L22.4505 10.1L19.6255 12L22.4505 13.9L18.8505 20.1L15.8255 18.6L15.5755 22H8.42549L8.20049 18.625L5.15049 20.1L1.55049 13.9L4.37549 12L1.55049 10.1L5.15049 3.9L8.20049 5.4L8.42549 2H15.5755Z" fill="black"/>
</g>
<defs>
<clipPath id="clip0_3379_7669">
<rect width="24" height="24" fill="white"/>
</clipPath>
</defs>
</svg>
