<svg width="24" height="24" viewBox="0 0 24 24" fill="none" xmlns="http://www.w3.org/2000/svg">
<g clip-path="url(#clip0_3379_7671)">
<rect width="24" height="24" fill="white"/>
<path d="M10.7755 9.75L6.62549 7.925L5.80049 9.35L9.42549 12L5.80049 14.65L6.62549 16.075L10.7755 14.25L11.2255 18.75H12.8005L13.2755 14.25L17.4005 16.075L18.2005 14.65L14.5755 12L18.2005 9.35L17.4005 7.925L13.2755 9.75L12.8005 5.25H11.2255L10.7755 9.75ZM15.7505 2L16.0755 4.95L18.7755 3.75L22.5255 10.25L20.1255 12L22.5255 13.75L18.7755 20.25L16.0755 19.05L15.7505 22H8.25049L7.95049 19.05L5.22549 20.25L1.47549 13.75L3.87549 12L1.47549 10.25L5.22549 3.75L7.95049 4.95L8.25049 2H15.7505Z" fill="black"/>
</g>
<defs>
<clipPath id="clip0_3379_7671">
<rect width="24" height="24" fill="white"/>
</clipPath>
</defs>
</svg>
