<svg width="24" height="24" viewBox="0 0 24 24" fill="none" xmlns="http://www.w3.org/2000/svg">
<g clip-path="url(#clip0_3379_7667)">
<rect width="24" height="24" fill="white"/>
<path d="M10.5505 9.375L5.95049 7L4.62549 9.275L8.95049 12L4.65049 14.725L5.97549 17.025L10.5505 14.625L10.7255 19.775H13.2755L13.4755 14.625L18.0505 17L19.3755 14.725L15.0505 12L19.3505 9.275L18.0255 6.975L13.4755 9.375L13.2755 4.225H10.7255L10.5505 9.375ZM15.4255 2L15.5505 5.825L18.9505 4.025L22.3505 9.975L19.1505 12L22.3755 14.025L18.9505 19.95L15.5505 18.175L15.4255 22H8.57549L8.45049 18.175L5.05049 19.975L1.65049 14.025L4.85049 12L1.62549 9.975L5.05049 4.05L8.45049 5.825L8.57549 2H15.4255Z" fill="black"/>
</g>
<defs>
<clipPath id="clip0_3379_7667">
<rect width="24" height="24" fill="white"/>
</clipPath>
</defs>
</svg>
