<svg width="24" height="24" viewBox="0 0 24 24" fill="none" xmlns="http://www.w3.org/2000/svg">
<g clip-path="url(#clip0_3397_13778)">
<rect width="24" height="24" fill="white"/>
<path d="M0.000488281 12C0.000488281 10.5833 0.233822 9.33333 0.700488 8.25C1.18382 7.16667 1.84216 6.325 2.67549 5.725C3.50882 5.125 4.44216 4.825 5.47549 4.825C6.55882 4.825 7.51716 5.15 8.35049 5.8C9.20049 6.43333 9.93382 7.20833 10.5505 8.125C11.1672 9.04167 11.8838 10.2583 12.7005 11.775C13.4338 13.125 14.0588 14.2 14.5755 15C15.0922 15.7833 15.6755 16.4417 16.3255 16.975C16.9922 17.5083 17.7255 17.775 18.5255 17.775C19.2755 17.775 19.9588 17.5417 20.5755 17.075C21.1922 16.6083 21.6755 15.9417 22.0255 15.075C22.3922 14.1917 22.5755 13.1667 22.5755 12C22.5755 10.8333 22.3922 9.81667 22.0255 8.95C21.6755 8.06667 21.1922 7.39167 20.5755 6.925C19.9588 6.45833 19.2755 6.225 18.5255 6.225C17.7255 6.225 16.9922 6.49167 16.3255 7.025C15.6755 7.55833 15.0922 8.225 14.5755 9.025C14.0588 9.80833 13.4338 10.875 12.7005 12.225C11.8838 13.7417 11.1672 14.9583 10.5505 15.875C9.93382 16.7917 9.20049 17.575 8.35049 18.225C7.51716 18.8583 6.55882 19.175 5.47549 19.175C4.44216 19.175 3.50882 18.875 2.67549 18.275C1.84216 17.675 1.18382 16.8333 0.700488 15.75C0.233822 14.6667 0.000488281 13.4167 0.000488281 12ZM1.42549 12C1.42549 13.1667 1.60049 14.1917 1.95049 15.075C2.31715 15.9417 2.80882 16.6083 3.42549 17.075C4.04216 17.5417 4.72549 17.775 5.47549 17.775C6.27549 17.775 7.00882 17.5083 7.67549 16.975C8.34216 16.4417 8.92549 15.7833 9.42549 15C9.94216 14.2 10.5672 13.125 11.3005 11.775C12.1172 10.2583 12.8338 9.04167 13.4505 8.125C14.0672 7.20833 14.7922 6.43333 15.6255 5.8C16.4755 5.15 17.4422 4.825 18.5255 4.825C19.5588 4.825 20.4922 5.125 21.3255 5.725C22.1588 6.325 22.8088 7.16667 23.2755 8.25C23.7588 9.33333 24.0005 10.5833 24.0005 12C24.0005 13.4167 23.7588 14.6667 23.2755 15.75C22.8088 16.8333 22.1588 17.675 21.3255 18.275C20.4922 18.875 19.5588 19.175 18.5255 19.175C17.4422 19.175 16.4755 18.8583 15.6255 18.225C14.7922 17.575 14.0672 16.7917 13.4505 15.875C12.8338 14.9583 12.1172 13.7417 11.3005 12.225C10.5672 10.875 9.94216 9.80833 9.42549 9.025C8.92549 8.225 8.34216 7.55833 7.67549 7.025C7.00882 6.49167 6.27549 6.225 5.47549 6.225C4.72549 6.225 4.04216 6.45833 3.42549 6.925C2.80882 7.39167 2.31715 8.06667 1.95049 8.95C1.60049 9.81667 1.42549 10.8333 1.42549 12Z" fill="black"/>
</g>
<defs>
<clipPath id="clip0_3397_13778">
<rect width="24" height="24" fill="white"/>
</clipPath>
</defs>
</svg>
