<svg width="24" height="24" viewBox="0 0 24 24" fill="none" xmlns="http://www.w3.org/2000/svg">
<g clip-path="url(#clip0_3397_13780)">
<rect width="24" height="24" fill="white"/>
<path d="M0.000488281 12C0.000488281 10.5833 0.242155 9.33333 0.725488 8.25C1.20882 7.16667 1.87549 6.325 2.72549 5.725C3.57549 5.125 4.52549 4.825 5.57549 4.825C6.67549 4.825 7.65049 5.14167 8.50049 5.775C9.36716 6.40833 10.1088 7.18333 10.7255 8.1C11.3588 9 12.0922 10.2 12.9255 11.7C13.6422 12.9833 14.2422 13.9917 14.7255 14.725C15.2255 15.4583 15.7838 16.075 16.4005 16.575C17.0172 17.075 17.6922 17.325 18.4255 17.325C19.1088 17.325 19.7255 17.1167 20.2755 16.7C20.8422 16.2667 21.2838 15.65 21.6005 14.85C21.9338 14.0333 22.1005 13.0833 22.1005 12C22.1005 10.9167 21.9338 9.975 21.6005 9.175C21.2838 8.35833 20.8422 7.74167 20.2755 7.325C19.7255 6.89167 19.1088 6.675 18.4255 6.675C17.6922 6.675 17.0172 6.925 16.4005 7.425C15.7838 7.925 15.2255 8.54167 14.7255 9.275C14.2422 10.0083 13.6422 11.0167 12.9255 12.3C12.0922 13.8 11.3588 15.0083 10.7255 15.925C10.1088 16.825 9.36716 17.5917 8.50049 18.225C7.65049 18.8583 6.67549 19.175 5.57549 19.175C4.52549 19.175 3.57549 18.875 2.72549 18.275C1.87549 17.675 1.20882 16.8333 0.725488 15.75C0.242155 14.6667 0.000488281 13.4167 0.000488281 12ZM1.90049 12C1.90049 13.0833 2.05882 14.0333 2.37549 14.85C2.70882 15.65 3.15049 16.2667 3.70049 16.7C4.26716 17.1167 4.89216 17.325 5.57549 17.325C6.30882 17.325 6.98382 17.075 7.60049 16.575C8.21716 16.075 8.76716 15.4583 9.25049 14.725C9.75049 13.9917 10.3588 12.9833 11.0755 11.7C11.9088 10.2 12.6338 9 13.2505 8.1C13.8838 7.18333 14.6255 6.40833 15.4755 5.775C16.3422 5.14167 17.3255 4.825 18.4255 4.825C19.4755 4.825 20.4255 5.125 21.2755 5.725C22.1255 6.325 22.7922 7.16667 23.2755 8.25C23.7588 9.33333 24.0005 10.5833 24.0005 12C24.0005 13.4167 23.7588 14.6667 23.2755 15.75C22.7922 16.8333 22.1255 17.675 21.2755 18.275C20.4255 18.875 19.4755 19.175 18.4255 19.175C17.3255 19.175 16.3422 18.8583 15.4755 18.225C14.6255 17.5917 13.8838 16.825 13.2505 15.925C12.6338 15.0083 11.9088 13.8 11.0755 12.3C10.3588 11.0167 9.75049 10.0083 9.25049 9.275C8.76716 8.54167 8.21716 7.925 7.60049 7.425C6.98382 6.925 6.30882 6.675 5.57549 6.675C4.89216 6.675 4.26716 6.89167 3.70049 7.325C3.15049 7.74167 2.70882 8.35833 2.37549 9.175C2.05882 9.975 1.90049 10.9167 1.90049 12Z" fill="black"/>
</g>
<defs>
<clipPath id="clip0_3397_13780">
<rect width="24" height="24" fill="white"/>
</clipPath>
</defs>
</svg>
