<svg width="24" height="24" viewBox="0 0 24 24" fill="none" xmlns="http://www.w3.org/2000/svg">
<g clip-path="url(#clip0_3202_8529)">
<rect width="24" height="24" fill="white"/>
<path d="M7.10049 21C6.00049 21 5.06716 20.7333 4.30049 20.2C3.53382 19.65 3.00049 18.9 2.70049 17.95L3.55049 17.675C3.83382 18.4583 4.26716 19.0583 4.85049 19.475C5.43382 19.8917 6.17549 20.1 7.07549 20.1C8.25882 20.1 9.18382 19.775 9.85049 19.125C10.5338 18.475 10.8755 17.6417 10.8755 16.625C10.8755 15.6917 10.5588 14.9583 9.92549 14.425C9.30882 13.8917 8.41716 13.625 7.25049 13.625H5.35049V12.75H7.22549C7.89216 12.75 8.45049 12.625 8.90049 12.375C9.36716 12.125 9.71716 11.8 9.95049 11.4C10.1838 10.9833 10.3005 10.5417 10.3005 10.075C10.3005 9.30833 10.0005 8.68333 9.40049 8.2C8.80049 7.7 8.00049 7.45 7.00049 7.45C6.20049 7.45 5.52549 7.63333 4.97549 8C4.44216 8.35 4.05049 8.825 3.80049 9.425L2.97549 9.025C3.27549 8.275 3.77549 7.675 4.47549 7.225C5.17549 6.775 6.03382 6.55 7.05049 6.55C7.86716 6.55 8.59216 6.70833 9.22549 7.025C9.85882 7.325 10.3505 7.74167 10.7005 8.275C11.0505 8.80833 11.2255 9.40833 11.2255 10.075C11.2255 10.675 11.0755 11.2333 10.7755 11.75C10.4922 12.2667 10.0422 12.6833 9.42549 13C8.80882 13.3167 8.05049 13.475 7.15049 13.475L7.20049 12.875C8.70049 12.875 9.84216 13.2083 10.6255 13.875C11.4088 14.525 11.8005 15.4333 11.8005 16.6C11.8005 17.4333 11.6088 18.1833 11.2255 18.85C10.8422 19.5167 10.2922 20.0417 9.57549 20.425C8.87549 20.8083 8.05049 21 7.10049 21ZM13.9755 16.375C14.2922 17.0583 14.7005 17.575 15.2005 17.925C15.7005 18.2583 16.3088 18.425 17.0255 18.425C18.0255 18.425 18.8172 18.0917 19.4005 17.425C20.0005 16.7583 20.3005 15.875 20.3005 14.775C20.3005 13.5417 20.0005 12.6 19.4005 11.95C18.8005 11.2833 17.9922 10.95 16.9755 10.95C16.3422 10.95 15.8005 11.075 15.3505 11.325C14.9005 11.575 14.4422 11.9583 13.9755 12.475C13.5922 12.925 13.1755 13.275 12.7255 13.525C12.2922 13.7583 11.7588 13.9083 11.1255 13.975C10.4922 14.0417 9.71716 13.9917 8.80049 13.825L9.00049 13.125C9.80049 13.2583 10.4588 13.2917 10.9755 13.225C11.4922 13.1583 11.9255 13.025 12.2755 12.825C12.6255 12.6083 12.9755 12.3 13.3255 11.9C13.8422 11.3167 14.3922 10.8667 14.9755 10.55C15.5588 10.2167 16.2255 10.05 16.9755 10.05C18.2588 10.05 19.2838 10.475 20.0505 11.325C20.8338 12.1583 21.2255 13.3083 21.2255 14.775C21.2255 16.125 20.8338 17.225 20.0505 18.075C19.2838 18.9083 18.2755 19.325 17.0255 19.325C16.1422 19.325 15.3755 19.1167 14.7255 18.7C14.0755 18.2667 13.5672 17.625 13.2005 16.775L13.9755 16.375ZM18.9755 6.325C17.3588 7.00833 15.9172 7.175 14.6505 6.825C13.3838 6.475 12.2005 5.675 11.1005 4.425L11.7505 3.825C12.7338 4.95833 13.7672 5.66667 14.8505 5.95C15.9338 6.23333 17.1922 6.08333 18.6255 5.5L18.9755 6.325ZM15.7005 1.65C15.9172 1.65 16.1005 1.73333 16.2505 1.9C16.4005 2.05 16.4755 2.23333 16.4755 2.45C16.4755 2.66667 16.4005 2.85 16.2505 3C16.1005 3.15 15.9172 3.225 15.7005 3.225C15.4838 3.225 15.2922 3.15 15.1255 3C14.9755 2.85 14.9005 2.66667 14.9005 2.45C14.9005 2.23333 14.9755 2.05 15.1255 1.9C15.2922 1.73333 15.4838 1.65 15.7005 1.65Z" fill="black"/>
</g>
<defs>
<clipPath id="clip0_3202_8529">
<rect width="24" height="24" fill="white"/>
</clipPath>
</defs>
</svg>
