<svg width="24" height="24" viewBox="0 0 24 24" fill="none" xmlns="http://www.w3.org/2000/svg">
<g clip-path="url(#clip0_3202_8070)">
<rect width="24" height="24" fill="white"/>
<path d="M7.10049 21C6.00049 21 5.06716 20.7333 4.30049 20.2C3.53382 19.65 3.00049 18.9 2.70049 17.95L3.15049 17.825C3.45049 18.675 3.93382 19.3417 4.60049 19.825C5.26716 20.2917 6.09216 20.525 7.07549 20.525C8.37549 20.525 9.40049 20.1667 10.1505 19.45C10.9172 18.7167 11.3005 17.7833 11.3005 16.65C11.3005 15.65 10.9505 14.8833 10.2505 14.35C9.56716 13.8 8.56716 13.525 7.25049 13.525H5.35049V13.05H7.25049C8.00049 13.05 8.63382 12.9083 9.15049 12.625C9.68382 12.3417 10.0755 11.975 10.3255 11.525C10.5922 11.0583 10.7255 10.575 10.7255 10.075C10.7255 9.24167 10.3838 8.54167 9.70049 7.975C9.03382 7.40833 8.13382 7.125 7.00049 7.125C6.11716 7.125 5.36716 7.325 4.75049 7.725C4.13382 8.125 3.70049 8.63333 3.45049 9.25L3.00049 9.025C3.28382 8.30833 3.77549 7.73333 4.47549 7.3C5.17549 6.86667 6.03382 6.65 7.05049 6.65C7.88382 6.65 8.61716 6.80833 9.25049 7.125C9.88382 7.425 10.3672 7.83333 10.7005 8.35C11.0505 8.86667 11.2255 9.44167 11.2255 10.075C11.2255 10.6583 11.0755 11.2083 10.7755 11.725C10.4922 12.2417 10.0505 12.6583 9.45049 12.975C8.85049 13.2917 8.11716 13.45 7.25049 13.45V13.125C8.73382 13.125 9.85882 13.4333 10.6255 14.05C11.4088 14.65 11.8005 15.5167 11.8005 16.65C11.8005 17.4833 11.6088 18.2333 11.2255 18.9C10.8422 19.55 10.2922 20.0667 9.57549 20.45C8.87549 20.8167 8.05049 21 7.10049 21ZM13.6255 16.575C13.9588 17.3417 14.4088 17.9167 14.9755 18.3C15.5422 18.6667 16.2255 18.85 17.0255 18.85C18.1422 18.85 19.0338 18.475 19.7005 17.725C20.3838 16.9583 20.7255 16 20.7255 14.85C20.7255 13.5167 20.3838 12.4833 19.7005 11.75C19.0172 11 18.1088 10.625 16.9755 10.625C16.2588 10.625 15.6588 10.7667 15.1755 11.05C14.6922 11.3333 14.1922 11.75 13.6755 12.3C13.2922 12.7167 12.8922 13.0417 12.4755 13.275C12.0588 13.4917 11.5422 13.6333 10.9255 13.7C10.3088 13.7667 9.55049 13.7333 8.65049 13.6L8.70049 13.25C9.53382 13.3667 10.2255 13.3917 10.7755 13.325C11.3422 13.2583 11.8172 13.125 12.2005 12.925C12.6005 12.7083 12.9755 12.4 13.3255 12C13.8588 11.4333 14.4088 10.9833 14.9755 10.65C15.5588 10.3167 16.2255 10.15 16.9755 10.15C18.2588 10.15 19.2838 10.5667 20.0505 11.4C20.8338 12.2333 21.2255 13.3833 21.2255 14.85C21.2255 16.15 20.8338 17.225 20.0505 18.075C19.2838 18.9083 18.2755 19.325 17.0255 19.325C16.1422 19.325 15.3755 19.1167 14.7255 18.7C14.0755 18.2667 13.5672 17.625 13.2005 16.775L13.6255 16.575ZM18.8755 5.925C17.3088 6.575 15.9172 6.73333 14.7005 6.4C13.5005 6.06667 12.3672 5.29167 11.3005 4.075L11.6505 3.775C12.6338 4.90833 13.6838 5.625 14.8005 5.925C15.9172 6.225 17.2088 6.075 18.6755 5.475L18.8755 5.925ZM15.6755 1.65C15.8088 1.65 15.9255 1.7 16.0255 1.8C16.1255 1.9 16.1755 2.01667 16.1755 2.15C16.1755 2.28333 16.1255 2.4 16.0255 2.5C15.9255 2.6 15.8088 2.65 15.6755 2.65C15.5422 2.65 15.4255 2.6 15.3255 2.5C15.2255 2.4 15.1755 2.28333 15.1755 2.15C15.1755 2.01667 15.2255 1.9 15.3255 1.8C15.4255 1.7 15.5422 1.65 15.6755 1.65Z" fill="black"/>
</g>
<defs>
<clipPath id="clip0_3202_8070">
<rect width="24" height="24" fill="white"/>
</clipPath>
</defs>
</svg>
