<svg width="24" height="24" viewBox="0 0 24 24" fill="none" xmlns="http://www.w3.org/2000/svg">
<g clip-path="url(#clip0_3202_8539)">
<rect width="24" height="24" fill="white"/>
<path d="M7.25049 21C6.16716 21 5.21716 20.725 4.40049 20.175C3.58382 19.625 3.01716 18.8833 2.70049 17.95L5.37549 16.9C5.52549 17.2667 5.75049 17.55 6.05049 17.75C6.36716 17.9333 6.72549 18.025 7.12549 18.025C7.64216 18.025 8.05049 17.8667 8.35049 17.55C8.66716 17.2167 8.82549 16.85 8.82549 16.45C8.82549 15.9167 8.68382 15.5083 8.40049 15.225C8.13382 14.9417 7.75049 14.8 7.25049 14.8H5.57549V12.025H6.97549C7.22549 12.025 7.44216 11.975 7.62549 11.875C7.82549 11.7583 7.97549 11.6083 8.07549 11.425C8.19216 11.225 8.25049 11 8.25049 10.75C8.25049 10.4167 8.12549 10.1417 7.87549 9.925C7.64216 9.70833 7.33382 9.6 6.95049 9.6C6.60049 9.6 6.31716 9.65833 6.10049 9.775C5.88382 9.875 5.72549 10.0417 5.62549 10.275L3.02549 9.05C3.35882 8.35 3.87549 7.775 4.57549 7.325C5.29216 6.875 6.15049 6.65 7.15049 6.65C7.90049 6.65 8.58382 6.79167 9.20049 7.075C9.83382 7.35833 10.3338 7.775 10.7005 8.325C11.0672 8.875 11.2505 9.53333 11.2505 10.3C11.2505 11.05 11.0755 11.7083 10.7255 12.275C10.3755 12.825 9.87549 13.2583 9.22549 13.575C8.59216 13.875 7.84216 14.025 6.97549 14.025L7.25049 12.5C8.60049 12.5 9.70049 12.9 10.5505 13.7C11.4005 14.4833 11.8255 15.525 11.8255 16.825C11.8255 17.575 11.6255 18.275 11.2255 18.925C10.8422 19.5583 10.3005 20.0667 9.60049 20.45C8.90049 20.8167 8.11716 21 7.25049 21ZM15.5255 16.05C15.6588 16.2833 15.8338 16.4833 16.0505 16.65C16.2838 16.8167 16.5672 16.9 16.9005 16.9C17.3172 16.9 17.6422 16.7333 17.8755 16.4C18.1088 16.0667 18.2255 15.6167 18.2255 15.05C18.2255 14.4667 18.1005 14 17.8505 13.65C17.6172 13.3 17.2755 13.125 16.8255 13.125C16.5755 13.125 16.3338 13.1833 16.1005 13.3C15.8672 13.4 15.6505 13.575 15.4505 13.825C14.9172 14.4583 14.3838 14.925 13.8505 15.225C13.3172 15.525 12.6755 15.6667 11.9255 15.65C11.1755 15.6333 10.2338 15.4333 9.10049 15.05L9.57549 13C10.1922 13.2 10.7255 13.2833 11.1755 13.25C11.6255 13.2 12.0172 13.075 12.3505 12.875C12.6838 12.675 13.0088 12.3833 13.3255 12C13.8088 11.4333 14.3505 10.9833 14.9505 10.65C15.5505 10.3167 16.2422 10.15 17.0255 10.15C18.2922 10.15 19.3088 10.6 20.0755 11.5C20.8422 12.4 21.2255 13.575 21.2255 15.025C21.2255 16.4917 20.8338 17.675 20.0505 18.575C19.2838 19.4583 18.2588 19.9 16.9755 19.9C16.0922 19.9 15.3172 19.6833 14.6505 19.25C14.0005 18.8167 13.4755 18.1917 13.0755 17.375L15.5255 16.05ZM19.4755 8.425C17.6922 9.10833 16.0422 9.25833 14.5255 8.875C13.0255 8.49167 11.6838 7.61667 10.5005 6.25L12.7505 4.35C13.5672 5.3 14.4005 5.88333 15.2505 6.1C16.1172 6.31667 17.1588 6.19167 18.3755 5.725L19.4755 8.425ZM15.9005 1.65C16.3838 1.65 16.7922 1.825 17.1255 2.175C17.4755 2.50833 17.6505 2.91667 17.6505 3.4C17.6505 3.88333 17.4755 4.3 17.1255 4.65C16.7922 4.98333 16.3838 5.15 15.9005 5.15C15.4172 5.15 15.0005 4.98333 14.6505 4.65C14.3172 4.3 14.1505 3.88333 14.1505 3.4C14.1505 2.91667 14.3172 2.50833 14.6505 2.175C15.0005 1.825 15.4172 1.65 15.9005 1.65Z" fill="black"/>
</g>
<defs>
<clipPath id="clip0_3202_8539">
<rect width="24" height="24" fill="white"/>
</clipPath>
</defs>
</svg>
