<svg width="24" height="24" viewBox="0 0 24 24" fill="none" xmlns="http://www.w3.org/2000/svg">
<g clip-path="url(#clip0_3202_8531)">
<rect width="24" height="24" fill="white"/>
<path d="M7.10049 21C5.98382 21 5.04216 20.7333 4.27549 20.2C3.52549 19.65 3.00049 18.9 2.70049 17.95L3.95049 17.525C4.20049 18.225 4.58382 18.7583 5.10049 19.125C5.61716 19.4917 6.26716 19.675 7.05049 19.675C8.11716 19.675 8.94216 19.3833 9.52549 18.8C10.1255 18.2167 10.4255 17.475 10.4255 16.575C10.4255 15.7417 10.1505 15.0583 9.60049 14.525C9.06716 13.975 8.28382 13.7 7.25049 13.7H5.35049V12.45H7.22549C7.79216 12.45 8.27549 12.3417 8.67549 12.125C9.07549 11.9083 9.36716 11.6167 9.55049 11.25C9.75049 10.8833 9.85049 10.4833 9.85049 10.05C9.85049 9.38333 9.59216 8.83333 9.07549 8.4C8.57549 7.96667 7.89216 7.75 7.02549 7.75C6.29216 7.75 5.69216 7.91667 5.22549 8.25C4.75882 8.58333 4.40882 9.03333 4.17549 9.6L2.97549 9C3.29216 8.23333 3.79216 7.61667 4.47549 7.15C5.15882 6.66667 6.00882 6.425 7.02549 6.425C7.82549 6.425 8.54216 6.58333 9.17549 6.9C9.82549 7.2 10.3255 7.625 10.6755 8.175C11.0422 8.725 11.2255 9.35 11.2255 10.05C11.2255 10.7 11.0755 11.2833 10.7755 11.8C10.4755 12.3167 10.0172 12.725 9.40049 13.025C8.78382 13.325 8.00882 13.475 7.07549 13.475L7.15049 12.625C8.65049 12.625 9.80049 12.9833 10.6005 13.7C11.4005 14.4 11.8005 15.35 11.8005 16.55C11.8005 17.4 11.6088 18.1667 11.2255 18.85C10.8422 19.5167 10.2922 20.0417 9.57549 20.425C8.85882 20.8083 8.03382 21 7.10049 21ZM14.3505 16.2C14.6338 16.8 14.9922 17.25 15.4255 17.55C15.8588 17.85 16.3922 18 17.0255 18C17.9088 18 18.6005 17.7083 19.1005 17.125C19.6005 16.5417 19.8505 15.7333 19.8505 14.7C19.8505 13.5833 19.5922 12.7333 19.0755 12.15C18.5588 11.55 17.8588 11.25 16.9755 11.25C16.4088 11.25 15.9172 11.3667 15.5005 11.6C15.1005 11.8333 14.7005 12.175 14.3005 12.625C13.8838 13.1083 13.4505 13.4833 13.0005 13.75C12.5505 14.0167 11.9922 14.1833 11.3255 14.25C10.6755 14.3 9.89216 14.225 8.97549 14.025L9.32549 13.025C10.0588 13.1417 10.6588 13.1667 11.1255 13.1C11.6088 13.0333 12.0005 12.9 12.3005 12.7C12.6172 12.5 12.9588 12.1917 13.3255 11.775C13.8422 11.2083 14.3838 10.7583 14.9505 10.425C15.5338 10.0917 16.2172 9.925 17.0005 9.925C18.2672 9.925 19.2838 10.3583 20.0505 11.225C20.8338 12.075 21.2255 13.2333 21.2255 14.7C21.2255 16.1 20.8422 17.225 20.0755 18.075C19.3088 18.9083 18.2922 19.325 17.0255 19.325C16.1422 19.325 15.3755 19.1167 14.7255 18.7C14.0755 18.2667 13.5672 17.625 13.2005 16.775L14.3505 16.2ZM19.1005 6.75C17.4005 7.43333 15.8838 7.6 14.5505 7.25C13.2338 6.88333 12.0088 6.05 10.8755 4.75L11.8755 3.9C12.8255 5 13.8255 5.69167 14.8755 5.975C15.9422 6.25833 17.1838 6.10833 18.6005 5.525L19.1005 6.75ZM15.7005 1.65C16.0005 1.65 16.2588 1.75833 16.4755 1.975C16.6922 2.175 16.8005 2.425 16.8005 2.725C16.8005 3.025 16.6922 3.28333 16.4755 3.5C16.2588 3.71667 16.0005 3.825 15.7005 3.825C15.4005 3.825 15.1422 3.71667 14.9255 3.5C14.7255 3.28333 14.6255 3.025 14.6255 2.725C14.6255 2.425 14.7255 2.175 14.9255 1.975C15.1422 1.75833 15.4005 1.65 15.7005 1.65Z" fill="black"/>
</g>
<defs>
<clipPath id="clip0_3202_8531">
<rect width="24" height="24" fill="white"/>
</clipPath>
</defs>
</svg>
