<svg width="24" height="24" viewBox="0 0 24 24" fill="none" xmlns="http://www.w3.org/2000/svg">
<g clip-path="url(#clip0_3202_8461)">
<rect width="24" height="24" fill="white"/>
<path d="M11.9255 2.75C11.8088 2.75 11.7255 2.75 11.6755 2.75C11.6255 2.75 11.5422 2.75 11.4255 2.75C11.5255 2.75 11.6005 2.75 11.6505 2.75C11.7005 2.75 11.7422 2.75 11.7755 2.75C11.8255 2.75 11.9005 2.75 12.0005 2.75C12.1005 2.75 12.1755 2.75 12.2255 2.75C12.2755 2.75 12.3172 2.75 12.3505 2.75C12.4005 2.75 12.4755 2.75 12.5755 2.75C12.4588 2.75 12.3755 2.75 12.3255 2.75C12.2755 2.75 12.1922 2.75 12.0755 2.75H11.2505H11.3505H12.2005C12.3172 2.75 12.4005 2.75 12.4505 2.75C12.5172 2.75 12.6088 2.75 12.7255 2.75C12.6088 2.75 12.5172 2.75 12.4505 2.75C12.4005 2.75 12.3422 2.75 12.2755 2.75C12.2088 2.75 12.1172 2.75 12.0005 2.75C11.8838 2.75 11.7922 2.75 11.7255 2.75C11.6755 2.75 11.6172 2.75 11.5505 2.75C11.4838 2.75 11.3922 2.75 11.2755 2.75C11.3922 2.75 11.4755 2.75 11.5255 2.75C11.5922 2.75 11.6838 2.75 11.8005 2.75H11.5255C11.3922 2.75 11.2838 2.75 11.2005 2.75C11.1338 2.75 11.0338 2.75 10.9005 2.75C11.0838 2.75 11.2172 2.75 11.3005 2.75C11.4005 2.75 11.4922 2.75 11.5755 2.75C11.6755 2.75 11.8172 2.75 12.0005 2.75C12.1838 2.75 12.3172 2.75 12.4005 2.75C12.5005 2.75 12.5922 2.75 12.6755 2.75C12.7755 2.75 12.9172 2.75 13.1005 2.75C12.9672 2.75 12.8588 2.75 12.7755 2.75C12.7088 2.75 12.6088 2.75 12.4755 2.75H11.3255H10.7505H11.8255C11.9088 2.75 11.9755 2.75 12.0255 2.75C12.0755 2.75 12.1422 2.75 12.2255 2.75C12.1755 2.75 12.1338 2.75 12.1005 2.75C12.0838 2.75 12.0505 2.75 12.0005 2.75C11.9505 2.75 11.9088 2.75 11.8755 2.75C11.8588 2.75 11.8255 2.75 11.7755 2.75C11.8588 2.75 11.9255 2.75 11.9755 2.75C12.0255 2.75 12.0922 2.75 12.1755 2.75H11.9255ZM13.2505 2.75H12.6755H11.9255H12.1755H12.6505H12.7505H12.3005H12.5255H13.2505ZM7.72549 14.1C6.72549 13.0667 5.98382 12.0667 5.50049 11.1C5.01716 10.1333 4.77549 9.08333 4.77549 7.95C4.77549 6.76667 5.09216 5.65833 5.72549 4.625C6.37549 3.59167 7.25049 2.775 8.35049 2.175C9.46716 1.55833 10.6838 1.25 12.0005 1.25C13.3172 1.25 14.5255 1.55833 15.6255 2.175C16.7422 2.775 17.6172 3.59167 18.2505 4.625C18.9005 5.65833 19.2255 6.76667 19.2255 7.95C19.2255 9.13333 18.9088 10.3 18.2755 11.45C17.6422 12.5833 16.6588 13.75 15.3255 14.95L6.32549 22.975L3.90049 20.2L12.8255 12.25C13.8088 11.3833 14.4922 10.6083 14.8755 9.925C15.2755 9.24167 15.4755 8.58333 15.4755 7.95C15.4755 7.4 15.3255 6.9 15.0255 6.45C14.7422 5.98333 14.3338 5.61667 13.8005 5.35C13.2838 5.08333 12.6838 4.95 12.0005 4.95C11.3172 4.95 10.7088 5.08333 10.1755 5.35C9.65882 5.61667 9.25049 5.98333 8.95049 6.45C8.66716 6.91667 8.52549 7.425 8.52549 7.975C8.52549 8.575 8.68382 9.16667 9.00049 9.75C9.31716 10.3167 9.81716 10.9417 10.5005 11.625L7.72549 14.1ZM20.1005 20.2L17.6505 23L13.4755 19.25L16.2755 16.775L20.1005 20.2Z" fill="black"/>
</g>
<defs>
<clipPath id="clip0_3202_8461">
<rect width="24" height="24" fill="white"/>
</clipPath>
</defs>
</svg>
