<svg width="24" height="24" viewBox="0 0 24 24" fill="none" xmlns="http://www.w3.org/2000/svg">
<g clip-path="url(#clip0_3202_8325)">
<rect width="24" height="24" fill="white"/>
<path d="M8.82549 17.5H2.47549L5.65049 12L2.47549 6.5H8.82549L12.0005 1L15.1755 6.5H21.5255L18.3505 12L21.5255 17.5H15.1755L12.0005 23L8.82549 17.5ZM11.9755 15.9H14.3005L15.4255 13.975L16.5255 12L15.4005 10.1L14.3005 8.1H11.9755H9.70049L8.65049 10L7.47549 12L8.62549 14L9.67549 15.9H11.9755ZM7.90049 15.9L6.55049 13.6L5.22549 15.9H7.90049ZM6.55049 10.4L7.90049 8.1H5.22549L6.55049 10.4ZM12.0005 19.825L13.3505 17.5H10.6505L12.0005 19.825ZM13.3505 6.5L12.0005 4.175L10.6505 6.5H13.3505ZM18.7755 15.9L17.4505 13.6L16.1005 15.9H18.7755ZM17.4505 10.4L18.7755 8.1H16.1005L17.4505 10.4Z" fill="black"/>
</g>
<defs>
<clipPath id="clip0_3202_8325">
<rect width="24" height="24" fill="white"/>
</clipPath>
</defs>
</svg>
