<svg width="24" height="24" viewBox="0 0 24 24" fill="none" xmlns="http://www.w3.org/2000/svg">
<g clip-path="url(#clip0_3202_8341)">
<rect width="24" height="24" fill="white"/>
<path d="M8.825 17.5H2.475L5.65 12L2.475 6.5H8.825L12 1L15.175 6.5H21.525L18.35 12L21.525 17.5H15.175L12 23L8.825 17.5ZM11.975 15.65H14.15L15.2 13.85L16.225 12L15.2 10.225L14.15 8.35H11.975H9.85L8.85 10.125L7.775 12L8.85 13.875L9.825 15.65H11.975ZM7.75 15.65L6.7 13.85L5.65 15.675L7.75 15.65ZM6.7 10.15L7.75 8.35L5.65 8.325L6.7 10.15ZM12 19.35L13.05 17.5H10.95L12 19.35ZM13.05 6.5L12 4.65L10.95 6.5H13.05ZM18.35 15.675L17.3 13.85L16.25 15.65L18.35 15.675ZM17.3 10.15L18.35 8.325L16.25 8.35L17.3 10.15Z" fill="black"/>
</g>
<defs>
<clipPath id="clip0_3202_8341">
<rect width="24" height="24" fill="white"/>
</clipPath>
</defs>
</svg>
