<svg width="24" height="24" viewBox="0 0 24 24" fill="none" xmlns="http://www.w3.org/2000/svg">
<g clip-path="url(#clip0_3202_8745)">
<rect width="24" height="24" fill="white"/>
<path d="M13.0005 22C11.1838 22 9.50882 21.5583 7.97549 20.675C6.44216 19.7917 5.22549 18.5833 4.32549 17.05C3.44216 15.5167 3.00049 13.8333 3.00049 12C3.00049 10.1667 3.44216 8.48333 4.32549 6.95C5.22549 5.41667 6.44216 4.20833 7.97549 3.325C9.50882 2.44167 11.1838 2 13.0005 2C14.2672 2 15.4672 2.225 16.6005 2.675C17.7338 3.10833 18.7588 3.73333 19.6755 4.55C17.9422 4.31667 16.3922 4.525 15.0255 5.175C13.6755 5.825 12.6338 6.775 11.9005 8.025C11.1672 9.25833 10.8005 10.5833 10.8005 12C10.8005 13.4167 11.1672 14.75 11.9005 16C12.6338 17.2333 13.6755 18.175 15.0255 18.825C16.3922 19.475 17.9422 19.6833 19.6755 19.45C18.7588 20.2667 17.7338 20.8917 16.6005 21.325C15.4672 21.775 14.2672 22 13.0005 22ZM13.0005 21.025C14.5005 21.025 15.9088 20.6833 17.2255 20L17.3755 20.35C15.8422 20.2 14.5005 19.725 13.3505 18.925C12.2005 18.1083 11.3172 17.0917 10.7005 15.875C10.1005 14.6583 9.80049 13.3667 9.80049 12C9.80049 10.6333 10.1005 9.34167 10.7005 8.125C11.3172 6.90833 12.2005 5.9 13.3505 5.1C14.5005 4.28333 15.8422 3.8 17.3755 3.65L17.2255 4C15.9088 3.31667 14.5005 2.975 13.0005 2.975C11.3172 2.975 9.78382 3.36667 8.40049 4.15C7.03382 4.93333 5.95882 6.01667 5.17549 7.4C4.39216 8.76667 4.00049 10.3 4.00049 12C4.00049 13.7 4.39216 15.2417 5.17549 16.625C5.95882 17.9917 7.03382 19.0667 8.40049 19.85C9.78382 20.6333 11.3172 21.025 13.0005 21.025ZM18.6755 14.275L16.3255 16.825L16.0255 13.4L12.8005 12L16.0255 10.6L16.3255 7.175L18.6755 9.725L22.0005 9L20.3505 12L22.0005 15L18.6755 14.275ZM19.4255 12L20.5005 10.125L18.4255 10.6L16.9505 9.025L16.7505 11.175L14.7505 12L16.7505 12.825L16.9505 15L18.4255 13.375L20.5005 13.875L19.4255 12Z" fill="black"/>
</g>
<defs>
<clipPath id="clip0_3202_8745">
<rect width="24" height="24" fill="white"/>
</clipPath>
</defs>
</svg>
