<svg width="24" height="24" viewBox="0 0 24 24" fill="none" xmlns="http://www.w3.org/2000/svg">
<g clip-path="url(#clip0_3202_8779)">
<rect width="24" height="24" fill="white"/>
<path d="M2.17549 15.975L11.9255 10.6L13.0755 12.75L3.47549 18.3L2.17549 15.975ZM11.5255 6.225V6.4V8.55V8.725V6.225ZM10.7505 12.525H13.3005L13.3755 22.5H10.6755L10.7505 12.525ZM10.9005 12.75L12.1005 10.65L21.8255 15.975L20.5255 18.3L10.9005 12.75ZM2.17549 8.025L3.47549 5.7L13.1255 11.2L11.9255 13.325L2.17549 8.025ZM12.4755 5.125H14.9755H12.4755ZM10.6755 1.5H13.3755L13.3005 11.45H10.7505L10.6755 1.5ZM10.8755 11.2L20.5255 5.7L21.8255 8.025L12.0755 13.325L10.8755 11.2ZM12.0005 20.975C10.3672 20.975 8.85882 20.575 7.47549 19.775C6.10882 18.9583 5.01716 17.8667 4.20049 16.5C3.40049 15.1167 3.00049 13.6083 3.00049 11.975C3.00049 10.3583 3.40049 8.86667 4.20049 7.5C5.01716 6.11667 6.10882 5.01667 7.47549 4.2C8.85882 3.38333 10.3672 2.975 12.0005 2.975C13.6172 2.975 15.1088 3.38333 16.4755 4.2C17.8588 5.01667 18.9588 6.11667 19.7755 7.5C20.5922 8.86667 21.0005 10.3583 21.0005 11.975C21.0005 13.6083 20.5922 15.1167 19.7755 16.5C18.9588 17.8667 17.8588 18.9583 16.4755 19.775C15.1088 20.575 13.6172 20.975 12.0005 20.975ZM12.0005 18.35C13.1338 18.35 14.1838 18.0667 15.1505 17.5C16.1338 16.9167 16.9088 16.1333 17.4755 15.15C18.0422 14.1667 18.3255 13.1083 18.3255 11.975C18.3255 10.8417 18.0422 9.78333 17.4755 8.8C16.9088 7.81667 16.1338 7.04167 15.1505 6.475C14.1838 5.89167 13.1338 5.6 12.0005 5.6C10.8672 5.6 9.80882 5.89167 8.82549 6.475C7.85882 7.04167 7.09216 7.81667 6.52549 8.8C5.95882 9.78333 5.67549 10.8417 5.67549 11.975C5.67549 13.1083 5.95882 14.1667 6.52549 15.15C7.09216 16.1333 7.85882 16.9167 8.82549 17.5C9.80882 18.0667 10.8672 18.35 12.0005 18.35ZM9.85049 5.075C9.75049 5.075 9.67549 5.075 9.62549 5.075C9.57549 5.075 9.51716 5.075 9.45049 5.075C9.40049 5.075 9.32549 5.075 9.22549 5.075C9.32549 5.075 9.40049 5.075 9.45049 5.075C9.51716 5.075 9.57549 5.075 9.62549 5.075C9.67549 5.075 9.75049 5.075 9.85049 5.075C9.95049 5.075 10.0255 5.075 10.0755 5.075C10.1422 5.075 10.2005 5.075 10.2505 5.075C10.3005 5.075 10.3755 5.075 10.4755 5.075C10.3755 5.075 10.3005 5.075 10.2505 5.075C10.2005 5.075 10.1422 5.075 10.0755 5.075C10.0255 5.075 9.95049 5.075 9.85049 5.075ZM11.5755 4.25C11.8755 4.25 12.1005 4.25 12.2505 4.25C12.4005 4.25 12.6172 4.25 12.9005 4.25C12.6005 4.25 12.3755 4.25 12.2255 4.25C12.0755 4.25 11.8588 4.25 11.5755 4.25C11.2755 4.25 11.0505 4.25 10.9005 4.25C10.7505 4.25 10.5338 4.25 10.2505 4.25C10.5505 4.25 10.7755 4.25 10.9255 4.25C11.0755 4.25 11.2922 4.25 11.5755 4.25Z" fill="black"/>
</g>
<defs>
<clipPath id="clip0_3202_8779">
<rect width="24" height="24" fill="white"/>
</clipPath>
</defs>
</svg>
