<svg width="24" height="24" viewBox="0 0 24 24" fill="none" xmlns="http://www.w3.org/2000/svg">
<g clip-path="url(#clip0_3202_8775)">
<rect width="24" height="24" fill="white"/>
<path d="M4.05049 18.85L9.40049 13.5L10.4755 14.6L5.15049 19.925L4.05049 18.85ZM1.50049 11.2H9.05049V12.75H1.50049V11.2ZM11.2255 14.925H12.8255V22.5H11.2255V14.925ZM13.5255 14.6L14.6505 13.5L19.9755 18.825L18.8755 19.95L13.5255 14.6ZM4.05049 5.125L5.15049 4L10.5005 9.35L9.40049 10.475L4.05049 5.125ZM14.9505 11.2H22.5005V12.75H14.9505V11.2ZM11.2255 1.5H12.8255V9.05H11.2255V1.5ZM13.5255 9.375L18.8755 4.025L19.9755 5.1L14.6255 10.45L13.5255 9.375ZM12.0005 20.975C10.3505 20.975 8.83382 20.575 7.45049 19.775C6.08382 18.975 5.00049 17.8917 4.20049 16.525C3.40049 15.1417 3.00049 13.625 3.00049 11.975C3.00049 10.325 3.40049 8.81667 4.20049 7.45C5.00049 6.06667 6.08382 4.975 7.45049 4.175C8.83382 3.375 10.3505 2.975 12.0005 2.975C13.6505 2.975 15.1588 3.375 16.5255 4.175C17.9088 4.975 19.0005 6.06667 19.8005 7.45C20.6005 8.81667 21.0005 10.325 21.0005 11.975C21.0005 13.625 20.6005 15.1417 19.8005 16.525C19.0005 17.8917 17.9088 18.975 16.5255 19.775C15.1588 20.575 13.6505 20.975 12.0005 20.975ZM12.0005 19.375C13.3672 19.375 14.6088 19.05 15.7255 18.4C16.8588 17.7333 17.7505 16.8417 18.4005 15.725C19.0672 14.5917 19.4005 13.3417 19.4005 11.975C19.4005 10.6083 19.0672 9.36667 18.4005 8.25C17.7505 7.11667 16.8588 6.225 15.7255 5.575C14.6088 4.90833 13.3672 4.575 12.0005 4.575C10.6338 4.575 9.38382 4.90833 8.25049 5.575C7.13382 6.225 6.24216 7.11667 5.57549 8.25C4.92549 9.36667 4.60049 10.6083 4.60049 11.975C4.60049 13.3417 4.92549 14.5917 5.57549 15.725C6.24216 16.8417 7.13382 17.7333 8.25049 18.4C9.38382 19.05 10.6338 19.375 12.0005 19.375ZM12.0005 15.425C11.3672 15.425 10.7838 15.275 10.2505 14.975C9.73382 14.6583 9.31716 14.2417 9.00049 13.725C8.70049 13.1917 8.55049 12.6083 8.55049 11.975C8.55049 11.3417 8.70049 10.7667 9.00049 10.25C9.31716 9.71667 9.73382 9.3 10.2505 9C10.7838 8.68333 11.3672 8.525 12.0005 8.525C12.6338 8.525 13.2088 8.68333 13.7255 9C14.2588 9.3 14.6755 9.71667 14.9755 10.25C15.2922 10.7667 15.4505 11.3417 15.4505 11.975C15.4505 12.6083 15.2922 13.1917 14.9755 13.725C14.6755 14.2417 14.2588 14.6583 13.7255 14.975C13.2088 15.275 12.6338 15.425 12.0005 15.425ZM12.0005 13.825C12.5338 13.825 12.9755 13.65 13.3255 13.3C13.6755 12.9333 13.8505 12.4917 13.8505 11.975C13.8505 11.4417 13.6755 11 13.3255 10.65C12.9755 10.3 12.5338 10.125 12.0005 10.125C11.4838 10.125 11.0422 10.3 10.6755 10.65C10.3255 11 10.1505 11.4417 10.1505 11.975C10.1505 12.4917 10.3255 12.9333 10.6755 13.3C11.0422 13.65 11.4838 13.825 12.0005 13.825Z" fill="black"/>
</g>
<defs>
<clipPath id="clip0_3202_8775">
<rect width="24" height="24" fill="white"/>
</clipPath>
</defs>
</svg>
