<svg width="24" height="24" viewBox="0 0 24 24" fill="none" xmlns="http://www.w3.org/2000/svg">
<g clip-path="url(#clip0_3202_8407)">
<rect width="24" height="24" fill="white"/>
<path d="M12.0255 21.05C12.3922 21.05 12.6672 21.05 12.8505 21.05C13.0338 21.05 13.3088 21.05 13.6755 21.05C13.2922 21.05 13.0088 21.05 12.8255 21.05C12.6422 21.05 12.3672 21.05 12.0005 21.05C11.6172 21.05 11.3338 21.05 11.1505 21.05C10.9672 21.05 10.6922 21.05 10.3255 21.05C10.7088 21.05 10.9922 21.05 11.1755 21.05C11.3588 21.05 11.6422 21.05 12.0255 21.05ZM12.0255 3.45C12.3922 3.45 12.6672 3.45 12.8505 3.45C13.0338 3.45 13.3088 3.45 13.6755 3.45C13.2922 3.45 13.0088 3.45 12.8255 3.45C12.6422 3.45 12.3672 3.45 12.0005 3.45C11.6172 3.45 11.3338 3.45 11.1505 3.45C10.9672 3.45 10.6922 3.45 10.3255 3.45C10.7088 3.45 10.9922 3.45 11.1755 3.45C11.3588 3.45 11.6422 3.45 12.0255 3.45ZM12.0005 20.55C12.1672 20.55 12.2922 20.55 12.3755 20.55C12.4588 20.55 12.5838 20.55 12.7505 20.55C12.5838 20.55 12.4588 20.55 12.3755 20.55C12.2922 20.55 12.1672 20.55 12.0005 20.55C11.8338 20.55 11.7088 20.55 11.6255 20.55C11.5422 20.55 11.4172 20.55 11.2505 20.55C11.4172 20.55 11.5422 20.55 11.6255 20.55C11.7088 20.55 11.8338 20.55 12.0005 20.55ZM12.0005 3.3C12.1172 3.3 12.2005 3.3 12.2505 3.3C12.3172 3.3 12.4088 3.3 12.5255 3.3C12.4088 3.3 12.3172 3.3 12.2505 3.3C12.2005 3.3 12.1172 3.3 12.0005 3.3C11.8838 3.3 11.7922 3.3 11.7255 3.3C11.6755 3.3 11.5922 3.3 11.4755 3.3C11.5922 3.3 11.6755 3.3 11.7255 3.3C11.7922 3.3 11.8838 3.3 12.0005 3.3ZM12.0005 22C10.1672 22 8.48382 21.5583 6.95049 20.675C5.41716 19.7917 4.20882 18.5833 3.32549 17.05C2.44216 15.5167 2.00049 13.8333 2.00049 12C2.00049 10.1667 2.44216 8.48333 3.32549 6.95C4.20882 5.41667 5.41716 4.20833 6.95049 3.325C8.48382 2.44167 10.1672 2 12.0005 2C13.8338 2 15.5172 2.44167 17.0505 3.325C18.5838 4.20833 19.7922 5.41667 20.6755 6.95C21.5588 8.48333 22.0005 10.1667 22.0005 12C22.0005 13.8333 21.5588 15.5167 20.6755 17.05C19.7922 18.5833 18.5838 19.7917 17.0505 20.675C15.5172 21.5583 13.8338 22 12.0005 22ZM12.0005 19.225C13.3172 19.225 14.5172 18.9083 15.6005 18.275C16.7005 17.625 17.5672 16.75 18.2005 15.65C18.8505 14.55 19.1755 13.3333 19.1755 12C19.1755 10.6667 18.8505 9.45 18.2005 8.35C17.5672 7.25 16.7005 6.38333 15.6005 5.75C14.5172 5.1 13.3172 4.775 12.0005 4.775C10.6838 4.775 9.47549 5.1 8.37549 5.75C7.29216 6.38333 6.42549 7.25 5.77549 8.35C5.14216 9.45 4.82549 10.6667 4.82549 12C4.82549 13.3333 5.14216 14.55 5.77549 15.65C6.42549 16.75 7.29216 17.625 8.37549 18.275C9.47549 18.9083 10.6838 19.225 12.0005 19.225ZM12.0005 3.575C13.1338 3.575 14.1255 3.75 14.9755 4.1C15.8422 4.45 16.5172 4.94167 17.0005 5.575C17.4838 6.20833 17.7255 6.93333 17.7255 7.75C17.7255 8.78333 17.5005 9.70833 17.0505 10.525C16.6005 11.3417 15.9422 12.0083 15.0755 12.525C14.2088 13.025 13.1922 13.325 12.0255 13.425C11.0755 13.5083 10.3255 13.8167 9.77549 14.35C9.24216 14.8667 8.97549 15.525 8.97549 16.325C8.97549 16.8917 9.10049 17.3917 9.35049 17.825C9.61716 18.2583 9.97549 18.6 10.4255 18.85C10.8755 19.1 11.4005 19.225 12.0005 19.225V20.425C10.8672 20.425 9.86716 20.25 9.00049 19.9C8.15049 19.55 7.48382 19.0583 7.00049 18.425C6.51716 17.7917 6.27549 17.0667 6.27549 16.25C6.27549 15.2333 6.50049 14.325 6.95049 13.525C7.40049 12.7083 8.05882 12.0417 8.92549 11.525C9.79216 11.0083 10.8088 10.6917 11.9755 10.575C12.9255 10.4917 13.6672 10.1917 14.2005 9.675C14.7505 9.14167 15.0255 8.475 15.0255 7.675C15.0255 7.10833 14.8922 6.60833 14.6255 6.175C14.3755 5.74167 14.0255 5.4 13.5755 5.15C13.1255 4.9 12.6005 4.775 12.0005 4.775V3.575Z" fill="black"/>
</g>
<defs>
<clipPath id="clip0_3202_8407">
<rect width="24" height="24" fill="white"/>
</clipPath>
</defs>
</svg>
