<svg width="24" height="24" viewBox="0 0 24 24" fill="none" xmlns="http://www.w3.org/2000/svg">
<g clip-path="url(#clip0_3202_8411)">
<rect width="24" height="24" fill="white"/>
<path d="M12 2C13.8333 2 15.5167 2.44167 17.05 3.325C18.5833 4.20833 19.7917 5.41667 20.675 6.95C21.5583 8.48333 22 10.1667 22 12C22 13.8333 21.5583 15.5167 20.675 17.05C19.7917 18.5833 18.5833 19.7917 17.05 20.675C15.5167 21.5583 13.8333 22 12 22C10.1667 22 8.48333 21.5583 6.95 20.675C5.41667 19.7917 4.20833 18.5833 3.325 17.05C2.44167 15.5167 2 13.8333 2 12C2 10.1667 2.44167 8.48333 3.325 6.95C4.20833 5.41667 5.41667 4.20833 6.95 3.325C8.48333 2.44167 10.1667 2 12 2ZM12 2.425C12.8667 2.425 13.6583 2.64167 14.375 3.075C15.1083 3.49167 15.6833 4.06667 16.1 4.8C16.5333 5.53333 16.75 6.34167 16.75 7.225C16.75 8.04167 16.5333 8.80833 16.1 9.525C15.6833 10.225 15.1083 10.8 14.375 11.25C13.6583 11.7 12.8667 11.95 12 12C11.1333 12.05 10.3333 12.3 9.6 12.75C8.88333 13.2 8.30833 13.7833 7.875 14.5C7.45833 15.2 7.25 15.9583 7.25 16.775C7.25 17.6417 7.45833 18.4417 7.875 19.175C8.30833 19.8917 8.88333 20.4667 9.6 20.9C10.3333 21.3167 11.1333 21.525 12 21.525C13.75 21.525 15.35 21.1083 16.8 20.275C18.25 19.425 19.3917 18.275 20.225 16.825C21.075 15.3583 21.5 13.75 21.5 12C21.5 10.25 21.075 8.65 20.225 7.2C19.3917 5.73333 18.25 4.58333 16.8 3.75C15.35 2.9 13.75 2.475 12 2.475V2.425ZM12 15.275C12.4167 15.275 12.7667 15.425 13.05 15.725C13.35 16.0083 13.5 16.3583 13.5 16.775C13.5 17.1917 13.35 17.55 13.05 17.85C12.7667 18.1333 12.4167 18.275 12 18.275C11.5833 18.275 11.225 18.1333 10.925 17.85C10.6417 17.55 10.5 17.1917 10.5 16.775C10.5 16.3583 10.6417 16.0083 10.925 15.725C11.225 15.425 11.5833 15.275 12 15.275ZM12 5.725C11.5833 5.725 11.225 5.875 10.925 6.175C10.6417 6.45833 10.5 6.80833 10.5 7.225C10.5 7.64167 10.6417 8 10.925 8.3C11.225 8.58333 11.5833 8.725 12 8.725C12.4167 8.725 12.7667 8.58333 13.05 8.3C13.35 8 13.5 7.64167 13.5 7.225C13.5 6.80833 13.35 6.45833 13.05 6.175C12.7667 5.875 12.4167 5.725 12 5.725Z" fill="black"/>
</g>
<defs>
<clipPath id="clip0_3202_8411">
<rect width="24" height="24" fill="white"/>
</clipPath>
</defs>
</svg>
