<svg width="24" height="24" viewBox="0 0 24 24" fill="none" xmlns="http://www.w3.org/2000/svg">
<g clip-path="url(#clip0_3202_8060)">
<rect width="24" height="24" fill="white"/>
<path d="M12.0005 15.1C12.4838 15.1 12.8922 15.275 13.2255 15.625C13.5755 15.9583 13.7505 16.3667 13.7505 16.85C13.7505 17.3333 13.5755 17.75 13.2255 18.1C12.8922 18.4333 12.4838 18.6 12.0005 18.6C11.5172 18.6 11.1005 18.4333 10.7505 18.1C10.4172 17.75 10.2505 17.3333 10.2505 16.85C10.2505 16.3667 10.4172 15.9583 10.7505 15.625C11.1005 15.275 11.5172 15.1 12.0005 15.1ZM12.0005 5.375C12.4838 5.375 12.8922 5.55 13.2255 5.9C13.5755 6.23333 13.7505 6.64167 13.7505 7.125C13.7505 7.60833 13.5755 8.025 13.2255 8.375C12.8922 8.70833 12.4838 8.875 12.0005 8.875C11.5172 8.875 11.1005 8.70833 10.7505 8.375C10.4172 8.025 10.2505 7.60833 10.2505 7.125C10.2505 6.64167 10.4172 6.23333 10.7505 5.9C11.1005 5.55 11.5172 5.375 12.0005 5.375ZM12.0005 15.6C11.6505 15.6 11.3505 15.725 11.1005 15.975C10.8672 16.2083 10.7505 16.5 10.7505 16.85C10.7505 17.2 10.8672 17.5 11.1005 17.75C11.3505 17.9833 11.6505 18.1 12.0005 18.1C12.3505 18.1 12.6422 17.9833 12.8755 17.75C13.1255 17.5 13.2505 17.2 13.2505 16.85C13.2505 16.5 13.1255 16.2083 12.8755 15.975C12.6422 15.725 12.3505 15.6 12.0005 15.6ZM12.0005 5.875C11.6505 5.875 11.3505 6 11.1005 6.25C10.8672 6.48333 10.7505 6.775 10.7505 7.125C10.7505 7.475 10.8672 7.775 11.1005 8.025C11.3505 8.25833 11.6505 8.375 12.0005 8.375C12.3505 8.375 12.6422 8.25833 12.8755 8.025C13.1255 7.775 13.2505 7.475 13.2505 7.125C13.2505 6.775 13.1255 6.48333 12.8755 6.25C12.6422 6 12.3505 5.875 12.0005 5.875ZM12.0005 22C10.1672 22 8.48382 21.5583 6.95049 20.675C5.41716 19.7917 4.20882 18.5833 3.32549 17.05C2.44216 15.5167 2.00049 13.8333 2.00049 12C2.00049 10.1667 2.44216 8.48333 3.32549 6.95C4.20882 5.41667 5.41716 4.20833 6.95049 3.325C8.48382 2.44167 10.1672 2 12.0005 2C13.8338 2 15.5172 2.44167 17.0505 3.325C18.5838 4.20833 19.7922 5.41667 20.6755 6.95C21.5588 8.48333 22.0005 10.1667 22.0005 12C22.0005 13.8333 21.5588 15.5167 20.6755 17.05C19.7922 18.5833 18.5838 19.7917 17.0505 20.675C15.5172 21.5583 13.8338 22 12.0005 22ZM12.0005 21.525C13.7505 21.525 15.3505 21.1083 16.8005 20.275C18.2505 19.425 19.3922 18.275 20.2255 16.825C21.0755 15.3583 21.5005 13.75 21.5005 12C21.5005 10.25 21.0755 8.65 20.2255 7.2C19.3922 5.73333 18.2505 4.58333 16.8005 3.75C15.3505 2.9 13.7505 2.475 12.0005 2.475C10.2505 2.475 8.65049 2.9 7.20049 3.75C5.75049 4.58333 4.60049 5.73333 3.75049 7.2C2.91716 8.65 2.50049 10.25 2.50049 12C2.50049 13.75 2.91716 15.3583 3.75049 16.825C4.60049 18.275 5.75049 19.425 7.20049 20.275C8.65049 21.1083 10.2505 21.525 12.0005 21.525ZM12.0005 2.1C12.9505 2.1 13.8088 2.325 14.5755 2.775C15.3588 3.20833 15.9755 3.80833 16.4255 4.575C16.8755 5.34167 17.1005 6.19167 17.1005 7.125C17.1005 8.075 16.8922 8.925 16.4755 9.675C16.0588 10.4083 15.4588 11 14.6755 11.45C13.9088 11.9 13.0172 12.1667 12.0005 12.25C10.5672 12.3667 9.44216 12.8333 8.62549 13.65C7.80882 14.4667 7.40049 15.5333 7.40049 16.85C7.40049 17.7167 7.60049 18.5083 8.00049 19.225C8.40049 19.925 8.95049 20.4833 9.65049 20.9C10.3505 21.3167 11.1338 21.525 12.0005 21.525V21.9C11.0505 21.9 10.1838 21.675 9.40049 21.225C8.63382 20.7917 8.02549 20.1917 7.57549 19.425C7.12549 18.6417 6.90049 17.7833 6.90049 16.85C6.90049 15.9167 7.10882 15.0833 7.52549 14.35C7.94216 13.6167 8.53382 13.025 9.30049 12.575C10.0672 12.125 10.9672 11.8583 12.0005 11.775C13.4338 11.6583 14.5588 11.1833 15.3755 10.35C16.1922 9.51667 16.6005 8.44167 16.6005 7.125C16.6005 6.25833 16.4005 5.475 16.0005 4.775C15.6005 4.05833 15.0505 3.5 14.3505 3.1C13.6505 2.68333 12.8672 2.475 12.0005 2.475V2.1Z" fill="black"/>
</g>
<defs>
<clipPath id="clip0_3202_8060">
<rect width="24" height="24" fill="white"/>
</clipPath>
</defs>
</svg>
