<svg width="24" height="24" viewBox="0 0 24 24" fill="none" xmlns="http://www.w3.org/2000/svg">
<g clip-path="url(#clip0_3202_8407)">
<rect width="24" height="24" fill="white"/>
<path d="M12.0005 22C10.1672 22 8.48382 21.5583 6.95049 20.675C5.41716 19.7917 4.20882 18.5833 3.32549 17.05C2.44216 15.5167 2.00049 13.8333 2.00049 12C2.00049 10.1667 2.44216 8.48333 3.32549 6.95C4.20882 5.41667 5.41716 4.20833 6.95049 3.325C8.48382 2.44167 10.1672 2 12.0005 2C13.8338 2 15.5172 2.44167 17.0505 3.325C18.5838 4.20833 19.7922 5.41667 20.6755 6.95C21.5588 8.48333 22.0005 10.1667 22.0005 12C22.0005 13.8333 21.5588 15.5167 20.6755 17.05C19.7922 18.5833 18.5838 19.7917 17.0505 20.675C15.5172 21.5583 13.8338 22 12.0005 22ZM12.0005 19.15C13.3005 19.15 14.4922 18.8333 15.5755 18.2C16.6755 17.5667 17.5338 16.7 18.1505 15.6C18.7838 14.5 19.1005 13.3 19.1005 12C19.1005 10.7 18.7838 9.5 18.1505 8.4C17.5338 7.3 16.6755 6.43333 15.5755 5.8C14.4922 5.16667 13.3005 4.85 12.0005 4.85C10.7005 4.85 9.50049 5.16667 8.40049 5.8C7.31716 6.43333 6.45882 7.3 5.82549 8.4C5.20882 9.5 4.90049 10.7 4.90049 12C4.90049 13.3 5.20882 14.5 5.82549 15.6C6.45882 16.7 7.31716 17.5667 8.40049 18.2C9.50049 18.8333 10.7005 19.15 12.0005 19.15ZM12.0005 3.6C13.0672 3.6 14.0255 3.775 14.8755 4.125C15.7255 4.475 16.3838 4.96667 16.8505 5.6C17.3338 6.23333 17.5755 6.95833 17.5755 7.775C17.5755 9.40833 17.0838 10.7167 16.1005 11.7C15.1172 12.6833 13.7755 13.2333 12.0755 13.35C11.1422 13.4167 10.4005 13.7167 9.85049 14.25C9.30049 14.7667 9.02549 15.4417 9.02549 16.275C9.02549 16.825 9.15049 17.3167 9.40049 17.75C9.66716 18.1833 10.0255 18.525 10.4755 18.775C10.9255 19.025 11.4338 19.15 12.0005 19.15V20.4C10.9338 20.4 9.97549 20.225 9.12549 19.875C8.27549 19.525 7.60882 19.0333 7.12549 18.4C6.65882 17.7667 6.42549 17.0417 6.42549 16.225C6.42549 14.6417 6.91716 13.35 7.90049 12.35C8.88382 11.3333 10.2255 10.7667 11.9255 10.65C12.8588 10.5833 13.6005 10.2917 14.1505 9.775C14.7005 9.24167 14.9755 8.55833 14.9755 7.725C14.9755 7.175 14.8422 6.68333 14.5755 6.25C14.3255 5.81667 13.9755 5.475 13.5255 5.225C13.0755 4.975 12.5672 4.85 12.0005 4.85V3.6ZM11.9505 14.575C12.4172 14.575 12.8172 14.7417 13.1505 15.075C13.4838 15.4083 13.6505 15.8083 13.6505 16.275C13.6505 16.725 13.4838 17.125 13.1505 17.475C12.8172 17.8083 12.4172 17.975 11.9505 17.975C11.4672 17.975 11.0588 17.8167 10.7255 17.5C10.4088 17.1667 10.2505 16.7583 10.2505 16.275C10.2505 15.7917 10.4088 15.3917 10.7255 15.075C11.0588 14.7417 11.4672 14.575 11.9505 14.575ZM12.0505 6.025C12.5172 6.025 12.9172 6.19167 13.2505 6.525C13.5838 6.85833 13.7505 7.25833 13.7505 7.725C13.7505 8.175 13.5838 8.575 13.2505 8.925C12.9172 9.25833 12.5172 9.425 12.0505 9.425C11.5672 9.425 11.1588 9.26667 10.8255 8.95C10.5088 8.61667 10.3505 8.20833 10.3505 7.725C10.3505 7.24167 10.5088 6.84167 10.8255 6.525C11.1588 6.19167 11.5672 6.025 12.0505 6.025ZM12.0005 16.5C12.1838 16.5 12.3172 16.5 12.4005 16.5C12.4838 16.5 12.6172 16.5 12.8005 16.5C12.6172 16.5 12.4838 16.5 12.4005 16.5C12.3172 16.5 12.1838 16.5 12.0005 16.5C11.8172 16.5 11.6838 16.5 11.6005 16.5C11.5172 16.5 11.3838 16.5 11.2005 16.5C11.3838 16.5 11.5172 16.5 11.6005 16.5C11.6838 16.5 11.8172 16.5 12.0005 16.5ZM12.0005 7.5C12.1005 7.5 12.1755 7.5 12.2255 7.5C12.2755 7.5 12.3505 7.5 12.4505 7.5C12.3505 7.5 12.2755 7.5 12.2255 7.5C12.1755 7.5 12.1005 7.5 12.0005 7.5C11.9005 7.5 11.8255 7.5 11.7755 7.5C11.7255 7.5 11.6505 7.5 11.5505 7.5C11.6505 7.5 11.7255 7.5 11.7755 7.5C11.8255 7.5 11.9005 7.5 12.0005 7.5Z" fill="black"/>
</g>
<defs>
<clipPath id="clip0_3202_8407">
<rect width="24" height="24" fill="white"/>
</clipPath>
</defs>
</svg>
