<svg width="24" height="24" viewBox="0 0 24 24" fill="none" xmlns="http://www.w3.org/2000/svg">
<g clip-path="url(#clip0_3202_8399)">
<rect width="24" height="24" fill="white"/>
<path d="M12.0005 14.85C12.5505 14.85 13.0172 15.05 13.4005 15.45C13.8005 15.8333 14.0005 16.3 14.0005 16.85C14.0005 17.4 13.8005 17.875 13.4005 18.275C13.0172 18.6583 12.5505 18.85 12.0005 18.85C11.4505 18.85 10.9755 18.6583 10.5755 18.275C10.1922 17.875 10.0005 17.4 10.0005 16.85C10.0005 16.3 10.1922 15.8333 10.5755 15.45C10.9755 15.05 11.4505 14.85 12.0005 14.85ZM12.0005 5.125C12.5505 5.125 13.0172 5.325 13.4005 5.725C13.8005 6.10833 14.0005 6.575 14.0005 7.125C14.0005 7.675 13.8005 8.15 13.4005 8.55C13.0172 8.93333 12.5505 9.125 12.0005 9.125C11.4505 9.125 10.9755 8.93333 10.5755 8.55C10.1922 8.15 10.0005 7.675 10.0005 7.125C10.0005 6.575 10.1922 6.10833 10.5755 5.725C10.9755 5.325 11.4505 5.125 12.0005 5.125ZM12.0005 15.775C11.7005 15.775 11.4422 15.8833 11.2255 16.1C11.0255 16.3 10.9255 16.55 10.9255 16.85C10.9255 17.15 11.0255 17.4083 11.2255 17.625C11.4422 17.825 11.7005 17.925 12.0005 17.925C12.3005 17.925 12.5505 17.825 12.7505 17.625C12.9672 17.4083 13.0755 17.15 13.0755 16.85C13.0755 16.55 12.9672 16.3 12.7505 16.1C12.5505 15.8833 12.3005 15.775 12.0005 15.775ZM12.0005 6.05C11.7005 6.05 11.4422 6.15833 11.2255 6.375C11.0255 6.575 10.9255 6.825 10.9255 7.125C10.9255 7.425 11.0255 7.68333 11.2255 7.9C11.4422 8.1 11.7005 8.2 12.0005 8.2C12.3005 8.2 12.5505 8.1 12.7505 7.9C12.9672 7.68333 13.0755 7.425 13.0755 7.125C13.0755 6.825 12.9672 6.575 12.7505 6.375C12.5505 6.15833 12.3005 6.05 12.0005 6.05ZM12.0005 22C10.1672 22 8.48382 21.5583 6.95049 20.675C5.41716 19.7917 4.20882 18.5833 3.32549 17.05C2.44216 15.5167 2.00049 13.8333 2.00049 12C2.00049 10.1667 2.44216 8.48333 3.32549 6.95C4.20882 5.41667 5.41716 4.20833 6.95049 3.325C8.48382 2.44167 10.1672 2 12.0005 2C13.8338 2 15.5172 2.44167 17.0505 3.325C18.5838 4.20833 19.7922 5.41667 20.6755 6.95C21.5588 8.48333 22.0005 10.1667 22.0005 12C22.0005 13.8333 21.5588 15.5167 20.6755 17.05C19.7922 18.5833 18.5838 19.7917 17.0505 20.675C15.5172 21.5583 13.8338 22 12.0005 22ZM12.0005 21.05C13.6505 21.05 15.1672 20.65 16.5505 19.85C17.9338 19.0333 19.0255 17.9333 19.8255 16.55C20.6255 15.1667 21.0255 13.65 21.0255 12C21.0255 10.35 20.6255 8.83333 19.8255 7.45C19.0255 6.06667 17.9338 4.975 16.5505 4.175C15.1672 3.35833 13.6505 2.95 12.0005 2.95C10.3505 2.95 8.83382 3.35833 7.45049 4.175C6.06716 4.975 4.97549 6.06667 4.17549 7.45C3.37549 8.83333 2.97549 10.35 2.97549 12C2.97549 13.65 3.37549 15.1667 4.17549 16.55C4.97549 17.9333 6.06716 19.0333 7.45049 19.85C8.83382 20.65 10.3505 21.05 12.0005 21.05ZM12.0005 2.25C12.9672 2.25 13.8505 2.475 14.6505 2.925C15.4672 3.35833 16.1088 3.95833 16.5755 4.725C17.0422 5.475 17.2755 6.31667 17.2755 7.25C17.2755 8.21667 17.0588 9.075 16.6255 9.825C16.1922 10.575 15.5755 11.1833 14.7755 11.65C13.9755 12.1167 13.0505 12.3917 12.0005 12.475C10.7005 12.6083 9.65882 13.0583 8.87549 13.825C8.09216 14.5917 7.70049 15.575 7.70049 16.775C7.70049 17.5583 7.89216 18.2833 8.27549 18.95C8.65882 19.6 9.17549 20.1167 9.82549 20.5C10.4922 20.8833 11.2172 21.075 12.0005 21.075V21.75C11.0338 21.75 10.1422 21.525 9.32549 21.075C8.52549 20.6417 7.89216 20.05 7.42549 19.3C6.95882 18.5333 6.72549 17.6917 6.72549 16.775C6.72549 15.8083 6.94216 14.95 7.37549 14.2C7.80882 13.45 8.42549 12.8417 9.22549 12.375C10.0255 11.9083 10.9505 11.6333 12.0005 11.55C13.3005 11.4167 14.3422 10.9667 15.1255 10.2C15.9088 9.41667 16.3005 8.43333 16.3005 7.25C16.3005 6.45 16.1088 5.725 15.7255 5.075C15.3422 4.40833 14.8172 3.88333 14.1505 3.5C13.5005 3.11667 12.7838 2.925 12.0005 2.925V2.25Z" fill="black"/>
</g>
<defs>
<clipPath id="clip0_3202_8399">
<rect width="24" height="24" fill="white"/>
</clipPath>
</defs>
</svg>
