<svg width="24" height="24" viewBox="0 0 24 24" fill="none" xmlns="http://www.w3.org/2000/svg">
<g clip-path="url(#clip0_3207_18774)">
<rect width="24" height="24" fill="white"/>
<path d="M7.82598 23C7.22598 23 6.66764 22.85 6.15098 22.55C5.65098 22.25 5.25098 21.8417 4.95098 21.325C4.65098 20.825 4.50098 20.275 4.50098 19.675V5.325C4.50098 4.725 4.65098 4.175 4.95098 3.675C5.25098 3.15833 5.65098 2.75 6.15098 2.45C6.66764 2.15 7.22598 2 7.82598 2H16.176C16.776 2 17.326 2.15 17.826 2.45C18.3426 2.75 18.751 3.15833 19.051 3.675C19.351 4.175 19.501 4.725 19.501 5.325V19.675C19.501 20.275 19.351 20.825 19.051 21.325C18.751 21.8417 18.3426 22.25 17.826 22.55C17.326 22.85 16.776 23 16.176 23H7.82598ZM16.051 20.025C16.1676 20.025 16.2676 19.9833 16.351 19.9C16.4343 19.8167 16.476 19.7083 16.476 19.575V5.425C16.476 5.29167 16.4343 5.18333 16.351 5.1C16.2676 5.01667 16.1676 4.975 16.051 4.975H7.95098C7.83431 4.975 7.73431 5.01667 7.65098 5.1C7.56764 5.18333 7.52598 5.29167 7.52598 5.425V19.575C7.52598 19.7083 7.56764 19.8167 7.65098 19.9C7.73431 19.9833 7.83431 20.025 7.95098 20.025H16.051ZM9.50098 0.499999H14.501V2.85H13.476L13.276 2.375H10.701L10.426 2.85H9.50098V0.499999ZM13.651 8.175L13.376 12.75H10.601L10.326 8.175H13.651ZM12.001 13.9C12.5176 13.9 12.926 14.05 13.226 14.35C13.526 14.6333 13.676 15.025 13.676 15.525C13.676 15.9917 13.5176 16.375 13.201 16.675C12.901 16.9583 12.501 17.1 12.001 17.1C11.501 17.1 11.0926 16.9583 10.776 16.675C10.476 16.375 10.326 15.9917 10.326 15.525C10.326 15.0417 10.476 14.65 10.776 14.35C11.0926 14.05 11.501 13.9 12.001 13.9Z" fill="black"/>
</g>
<defs>
<clipPath id="clip0_3207_18774">
<rect width="24" height="24" fill="white"/>
</clipPath>
</defs>
</svg>
