<svg width="24" height="24" viewBox="0 0 24 24" fill="none" xmlns="http://www.w3.org/2000/svg">
<g clip-path="url(#clip0_3207_20387)">
<rect width="24" height="24" fill="white"/>
<path d="M8.00098 23C7.45098 23 6.94264 22.8667 6.47598 22.6C6.02598 22.3333 5.66764 21.9667 5.40098 21.5C5.13431 21.05 5.00098 20.55 5.00098 20V5C5.00098 4.45 5.13431 3.95 5.40098 3.5C5.66764 3.03333 6.02598 2.66667 6.47598 2.4C6.94264 2.13333 7.45098 2 8.00098 2H16.001C16.551 2 17.051 2.13333 17.501 2.4C17.9676 2.66667 18.3343 3.03333 18.601 3.5C18.8676 3.95 19.001 4.45 19.001 5V20C19.001 20.55 18.8676 21.05 18.601 21.5C18.3343 21.9667 17.9676 22.3333 17.501 22.6C17.051 22.8667 16.551 23 16.001 23H8.00098ZM16.001 21.2C16.3176 21.2 16.5843 21.0833 16.801 20.85C17.0343 20.6167 17.151 20.3333 17.151 20V5C17.151 4.66667 17.0343 4.38333 16.801 4.15C16.5843 3.91667 16.3176 3.8 16.001 3.8H8.00098C7.68431 3.8 7.40931 3.91667 7.17598 4.15C6.95931 4.38333 6.85098 4.66667 6.85098 5V20C6.85098 20.3333 6.95931 20.6167 7.17598 20.85C7.40931 21.0833 7.68431 21.2 8.00098 21.2H16.001ZM9.50098 0.499999H14.501V2.85H13.151L12.951 2.375H11.026L10.751 2.85H9.50098V0.499999ZM10.976 13.75C10.976 13.3 11.0676 12.8917 11.251 12.525C11.4343 12.1417 11.7426 11.8417 12.176 11.625C12.5593 11.425 12.8343 11.2417 13.001 11.075C13.1676 10.9083 13.251 10.6917 13.251 10.425C13.251 10.1583 13.126 9.94167 12.876 9.775C12.626 9.60833 12.301 9.525 11.901 9.525C11.5176 9.525 11.201 9.60833 10.951 9.775C10.7176 9.94167 10.551 10.2 10.451 10.55L8.77598 10.25C8.95931 9.48333 9.31764 8.9 9.85098 8.5C10.3843 8.08333 11.0843 7.875 11.951 7.875C12.9343 7.875 13.6926 8.10833 14.226 8.575C14.776 9.04167 15.051 9.66667 15.051 10.45C15.051 10.9167 14.9176 11.3333 14.651 11.7C14.401 12.0667 14.0093 12.425 13.476 12.775C13.1593 12.975 12.9593 13.1583 12.876 13.325C12.7926 13.4917 12.751 13.6583 12.751 13.825V14H10.976V13.75ZM11.926 17.125C11.5593 17.125 11.2593 17.0083 11.026 16.775C10.7926 16.5417 10.676 16.2417 10.676 15.875C10.676 15.5083 10.7926 15.2083 11.026 14.975C11.2593 14.7417 11.5593 14.625 11.926 14.625C12.2926 14.625 12.5926 14.7417 12.826 14.975C13.0593 15.2083 13.176 15.5083 13.176 15.875C13.176 16.2417 13.0593 16.5417 12.826 16.775C12.5926 17.0083 12.2926 17.125 11.926 17.125Z" fill="black"/>
</g>
<defs>
<clipPath id="clip0_3207_20387">
<rect width="24" height="24" fill="white"/>
</clipPath>
</defs>
</svg>
