<svg width="24" height="24" viewBox="0 0 24 24" fill="none" xmlns="http://www.w3.org/2000/svg">
<g clip-path="url(#clip0_3208_22251)">
<rect width="24" height="24" fill="white"/>
<path d="M5.50098 23C4.90098 23 4.34264 22.85 3.82598 22.55C3.32598 22.25 2.92598 21.8417 2.62598 21.325C2.32598 20.825 2.17598 20.275 2.17598 19.675V5.325C2.17598 4.725 2.32598 4.175 2.62598 3.675C2.92598 3.15833 3.32598 2.75 3.82598 2.45C4.34264 2.15 4.90098 2 5.50098 2H13.851C14.451 2 15.001 2.15 15.501 2.45C16.0176 2.75 16.426 3.15833 16.726 3.675C17.026 4.175 17.176 4.725 17.176 5.325V19.675C17.176 20.275 17.026 20.825 16.726 21.325C16.426 21.8417 16.0176 22.25 15.501 22.55C15.001 22.85 14.451 23 13.851 23H5.50098ZM13.726 20.025C13.8426 20.025 13.9426 19.9833 14.026 19.9C14.1093 19.8167 14.151 19.7083 14.151 19.575V5.425C14.151 5.29167 14.1093 5.18333 14.026 5.1C13.9426 5.01667 13.8426 4.975 13.726 4.975H5.62598C5.50931 4.975 5.40931 5.01667 5.32598 5.1C5.24264 5.18333 5.20098 5.29167 5.20098 5.425V19.575C5.20098 19.7083 5.24264 19.8167 5.32598 19.9C5.40931 19.9833 5.50931 20.025 5.62598 20.025H13.726ZM7.17598 0.499999H12.176V2.85H11.151L10.951 2.375H8.37598L8.10098 2.85H7.17598V0.499999ZM6.42598 16.2H12.926V18.8H6.42598V16.2ZM6.42598 12.375H12.926V14.95H6.42598V12.375ZM6.42598 8.525H12.926V11.1H6.42598V8.525ZM20.326 6.75H18.051L19.676 1.95H21.476V4.25H23.751L22.126 9.05H20.326V6.75Z" fill="black"/>
</g>
<defs>
<clipPath id="clip0_3208_22251">
<rect width="24" height="24" fill="white"/>
</clipPath>
</defs>
</svg>
