<svg width="24" height="24" viewBox="0 0 24 24" fill="none" xmlns="http://www.w3.org/2000/svg">
<g clip-path="url(#clip0_3208_21313)">
<rect width="24" height="24" fill="white"/>
<path d="M8.75049 2.85H7.50049V0.499999H12.5005V2.85H11.1505L10.9505 2.375H9.02549L8.75049 2.85ZM16.2755 22.275C15.7922 22.7583 15.2005 23 14.5005 23H5.50049C4.80049 23 4.20882 22.7583 3.72549 22.275C3.24216 21.7917 3.00049 21.2 3.00049 20.5V4.5C3.00049 3.8 3.24216 3.20833 3.72549 2.725C4.20882 2.24167 4.80049 2 5.50049 2H14.5005C15.2005 2 15.7922 2.24167 16.2755 2.725C16.7588 3.20833 17.0005 3.8 17.0005 4.5V20.5C17.0005 21.2 16.7588 21.7917 16.2755 22.275ZM6.05049 17.35V19.4H13.9505V17.35H6.05049ZM6.05049 13.45V15.475H13.9505V13.45H6.05049ZM6.05049 9.525V11.55H13.9505V9.525H6.05049ZM6.05049 5.6V7.65H13.9505V5.6H6.05049ZM20.6255 6.6V9.05H22.0255L23.6255 4.4H21.2755V1.95H19.8755L18.2755 6.6H20.6255Z" fill="black"/>
</g>
<defs>
<clipPath id="clip0_3208_21313">
<rect width="24" height="24" fill="white"/>
</clipPath>
</defs>
</svg>
