<svg width="24" height="24" viewBox="0 0 24 24" fill="none" xmlns="http://www.w3.org/2000/svg">
<g clip-path="url(#clip0_3208_21323)">
<rect width="24" height="24" fill="white"/>
<path d="M20.801 6.7H18.551L20.126 2.2H21.251V4.8H23.501L21.926 9.3H20.801V6.7ZM6.00098 23C5.45098 23 4.94264 22.8667 4.47598 22.6C4.02598 22.3333 3.66764 21.9667 3.40098 21.5C3.13431 21.05 3.00098 20.55 3.00098 20V5C3.00098 4.45 3.13431 3.95 3.40098 3.5C3.66764 3.03333 4.02598 2.66667 4.47598 2.4C4.94264 2.13333 5.45098 2 6.00098 2H14.001C14.551 2 15.051 2.13333 15.501 2.4C15.9676 2.66667 16.3343 3.03333 16.601 3.5C16.8676 3.95 17.001 4.45 17.001 5V20C17.001 20.55 16.8676 21.05 16.601 21.5C16.3343 21.9667 15.9676 22.3333 15.501 22.6C15.051 22.8667 14.551 23 14.001 23H6.00098ZM14.001 21.1C14.301 21.1 14.551 21 14.751 20.8C14.951 20.5833 15.051 20.3167 15.051 20V5C15.051 4.68333 14.951 4.425 14.751 4.225C14.551 4.00833 14.301 3.9 14.001 3.9H6.00098C5.70098 3.9 5.45098 4.00833 5.25098 4.225C5.05098 4.425 4.95098 4.68333 4.95098 5V20C4.95098 20.3167 5.05098 20.5833 5.25098 20.8C5.45098 21 5.70098 21.1 6.00098 21.1H14.001ZM7.50098 0.499999H12.501V2.85H11.151L10.951 2.375H9.02598L8.75098 2.85H7.50098V0.499999Z" fill="black"/>
</g>
<defs>
<clipPath id="clip0_3208_21323">
<rect width="24" height="24" fill="white"/>
</clipPath>
</defs>
</svg>
