<svg width="24" height="24" viewBox="0 0 24 24" fill="none" xmlns="http://www.w3.org/2000/svg">
<g clip-path="url(#clip0_3207_18552)">
<rect width="24" height="24" fill="white"/>
<path d="M22.801 5.75H19.151L20.526 1.95H21.051L19.851 5.275H23.501L22.176 9.05H21.651L22.801 5.75ZM5.50098 23C5.03431 23 4.60931 22.8833 4.22598 22.65C3.85931 22.4333 3.55931 22.1333 3.32598 21.75C3.10931 21.3833 3.00098 20.9667 3.00098 20.5V4.5C3.00098 4.05 3.10931 3.63333 3.32598 3.25C3.55931 2.86667 3.85931 2.56667 4.22598 2.35C4.60931 2.11667 5.03431 2 5.50098 2H14.501C14.951 2 15.3676 2.11667 15.751 2.35C16.1343 2.56667 16.4343 2.86667 16.651 3.25C16.8843 3.63333 17.001 4.05 17.001 4.5V20.5C17.001 20.9667 16.8843 21.3833 16.651 21.75C16.4343 22.1333 16.1343 22.4333 15.751 22.65C15.3676 22.8833 14.951 23 14.501 23H5.50098ZM14.501 22.525C15.0676 22.525 15.5426 22.325 15.926 21.925C16.3093 21.5417 16.501 21.0667 16.501 20.5V4.5C16.501 3.93333 16.3093 3.45833 15.926 3.075C15.5426 2.675 15.0676 2.475 14.501 2.475H5.50098C4.93431 2.475 4.45931 2.675 4.07598 3.075C3.69264 3.45833 3.50098 3.93333 3.50098 4.5V20.5C3.50098 21.0667 3.69264 21.5417 4.07598 21.925C4.45931 22.325 4.93431 22.525 5.50098 22.525H14.501ZM7.50098 -8.34465e-07H12.501V2.275H12.026V0.449999H7.97598V2.275H7.50098V-8.34465e-07ZM6.05098 18.575H13.951V19.05H6.05098V18.575ZM6.05098 14.375H13.951V14.85H6.05098V14.375ZM6.05098 10.15H13.951V10.625H6.05098V10.15ZM6.05098 5.925H13.951V6.4H6.05098V5.925Z" fill="black"/>
</g>
<defs>
<clipPath id="clip0_3207_18552">
<rect width="24" height="24" fill="white"/>
</clipPath>
</defs>
</svg>
