<svg width="24" height="24" viewBox="0 0 24 24" fill="none" xmlns="http://www.w3.org/2000/svg">
<g clip-path="url(#clip0_3207_18530)">
<rect width="24" height="24" fill="white"/>
<path d="M7.50098 23C7.03431 23 6.60931 22.8833 6.22598 22.65C5.85931 22.4333 5.55931 22.1333 5.32598 21.75C5.10931 21.3833 5.00098 20.9667 5.00098 20.5V4.5C5.00098 4.05 5.10931 3.63333 5.32598 3.25C5.55931 2.86667 5.85931 2.56667 6.22598 2.35C6.60931 2.11667 7.03431 2 7.50098 2H16.501C16.951 2 17.3676 2.11667 17.751 2.35C18.1343 2.56667 18.4343 2.86667 18.651 3.25C18.8843 3.63333 19.001 4.05 19.001 4.5V20.5C19.001 20.9667 18.8843 21.3833 18.651 21.75C18.4343 22.1333 18.1343 22.4333 17.751 22.65C17.3676 22.8833 16.951 23 16.501 23H7.50098ZM16.501 22.525C17.0676 22.525 17.5426 22.325 17.926 21.925C18.3093 21.5417 18.501 21.0667 18.501 20.5V4.5C18.501 3.93333 18.3093 3.45833 17.926 3.075C17.5426 2.675 17.0676 2.475 16.501 2.475H7.50098C6.93431 2.475 6.45931 2.675 6.07598 3.075C5.69264 3.45833 5.50098 3.93333 5.50098 4.5V20.5C5.50098 21.0667 5.69264 21.5417 6.07598 21.925C6.45931 22.325 6.93431 22.525 7.50098 22.525H16.501ZM9.50098 -8.34465e-07H14.501V2.275H14.026V0.449999H9.97598V2.275H9.50098V-8.34465e-07ZM8.05098 18.575H15.951V19.05H8.05098V18.575ZM8.05098 14.375H15.951V14.85H8.05098V14.375ZM8.05098 10.15H15.951V10.625H8.05098V10.15ZM8.05098 5.925H15.951V6.4H8.05098V5.925Z" fill="black"/>
</g>
<defs>
<clipPath id="clip0_3207_18530">
<rect width="24" height="24" fill="white"/>
</clipPath>
</defs>
</svg>
