<svg width="24" height="24" viewBox="0 0 24 24" fill="none" xmlns="http://www.w3.org/2000/svg">
<g clip-path="url(#clip0_3208_21887)">
<rect width="24" height="24" fill="white"/>
<path d="M6.65098 15.625H12.701V18.725H6.65098V15.625ZM5.67598 23C5.05931 23 4.49264 22.85 3.97598 22.55C3.47598 22.25 3.07598 21.8417 2.77598 21.325C2.49264 20.825 2.35098 20.275 2.35098 19.675V5.325C2.35098 4.725 2.49264 4.175 2.77598 3.675C3.07598 3.15833 3.47598 2.75 3.97598 2.45C4.49264 2.15 5.05931 2 5.67598 2H13.676C14.2926 2 14.851 2.15 15.351 2.45C15.8676 2.75 16.2676 3.15833 16.551 3.675C16.851 4.175 17.001 4.725 17.001 5.325V19.675C17.001 20.275 16.851 20.825 16.551 21.325C16.2676 21.8417 15.8676 22.25 15.351 22.55C14.851 22.85 14.2926 23 13.676 23H5.67598ZM13.551 20.025C13.6843 20.025 13.7843 19.9833 13.851 19.9C13.9343 19.8167 13.976 19.7083 13.976 19.575V5.425C13.976 5.29167 13.9343 5.18333 13.851 5.1C13.7843 5.01667 13.6843 4.975 13.551 4.975H5.80098C5.66764 4.975 5.55931 5.01667 5.47598 5.1C5.40931 5.18333 5.37598 5.29167 5.37598 5.425V19.575C5.37598 19.7083 5.40931 19.8167 5.47598 19.9C5.55931 19.9833 5.66764 20.025 5.80098 20.025H13.551ZM7.17598 0.499999H12.176V2.85H11.151L10.951 2.375H8.37598L8.10098 2.85H7.17598V0.499999ZM20.326 6.75H18.051L19.676 1.95H21.476V4.25H23.751L22.126 9.05H20.326V6.75Z" fill="black"/>
</g>
<defs>
<clipPath id="clip0_3208_21887">
<rect width="24" height="24" fill="white"/>
</clipPath>
</defs>
</svg>
