<svg width="24" height="24" viewBox="0 0 24 24" fill="none" xmlns="http://www.w3.org/2000/svg">
<g clip-path="url(#clip0_3207_18780)">
<rect width="24" height="24" fill="white"/>
<path d="M10.7505 2.85H9.50049V0.499999H14.5005V2.85H13.1505L12.9505 2.375H11.0255L10.7505 2.85ZM18.2755 22.275C17.7922 22.7583 17.2005 23 16.5005 23H7.50049C6.80049 23 6.20882 22.7583 5.72549 22.275C5.24216 21.7917 5.00049 21.2 5.00049 20.5V4.5C5.00049 3.8 5.24216 3.20833 5.72549 2.725C6.20882 2.24167 6.80049 2 7.50049 2H16.5005C17.2005 2 17.7922 2.24167 18.2755 2.725C18.7588 3.20833 19.0005 3.8 19.0005 4.5V20.5C19.0005 21.2 18.7588 21.7917 18.2755 22.275ZM12.5505 7.55H11.4505L11.5755 13.025H12.4255L12.5505 7.55ZM12.5255 15.175C12.3922 15.025 12.2172 14.95 12.0005 14.95C11.7838 14.95 11.6005 15.025 11.4505 15.175C11.3172 15.325 11.2505 15.5083 11.2505 15.725C11.2505 15.9417 11.3172 16.1167 11.4505 16.25C11.6005 16.3833 11.7838 16.45 12.0005 16.45C12.2172 16.45 12.3922 16.3833 12.5255 16.25C12.6755 16.1167 12.7505 15.9417 12.7505 15.725C12.7505 15.5083 12.6755 15.325 12.5255 15.175Z" fill="black"/>
</g>
<defs>
<clipPath id="clip0_3207_18780">
<rect width="24" height="24" fill="white"/>
</clipPath>
</defs>
</svg>
