<svg width="24" height="24" viewBox="0 0 24 24" fill="none" xmlns="http://www.w3.org/2000/svg">
<g clip-path="url(#clip0_3208_21325)">
<rect width="24" height="24" fill="white"/>
<path d="M20.626 6.85H18.276L19.976 2.2H21.276V4.65H23.626L21.926 9.3H20.626V6.85ZM5.82598 23C5.24264 23 4.70931 22.8583 4.22598 22.575C3.74264 22.2917 3.35931 21.9083 3.07598 21.425C2.79264 20.9417 2.65098 20.4083 2.65098 19.825V5.175C2.65098 4.59167 2.79264 4.05833 3.07598 3.575C3.35931 3.09167 3.74264 2.70833 4.22598 2.425C4.70931 2.14167 5.24264 2 5.82598 2H13.826C14.4093 2 14.9426 2.14167 15.426 2.425C15.9093 2.70833 16.2926 3.09167 16.576 3.575C16.8593 4.05833 17.001 4.59167 17.001 5.175V19.825C17.001 20.4083 16.8593 20.9417 16.576 21.425C16.2926 21.9083 15.9093 22.2917 15.426 22.575C14.9426 22.8583 14.4093 23 13.826 23H5.82598ZM13.801 20.575C14.001 20.575 14.1676 20.5083 14.301 20.375C14.451 20.225 14.526 20.0417 14.526 19.825V5.175C14.526 4.95833 14.451 4.78333 14.301 4.65C14.1676 4.5 14.001 4.425 13.801 4.425H5.85098C5.65098 4.425 5.47598 4.5 5.32598 4.65C5.19264 4.78333 5.12598 4.95833 5.12598 5.175V19.825C5.12598 20.0417 5.19264 20.225 5.32598 20.375C5.47598 20.5083 5.65098 20.575 5.85098 20.575H13.801ZM7.32598 0.499999H12.326V2.85H11.151L10.951 2.375H8.67598L8.40098 2.85H7.32598V0.499999Z" fill="black"/>
</g>
<defs>
<clipPath id="clip0_3208_21325">
<rect width="24" height="24" fill="white"/>
</clipPath>
</defs>
</svg>
