<svg width="24" height="24" viewBox="0 0 24 24" fill="none" xmlns="http://www.w3.org/2000/svg">
<g clip-path="url(#clip0_3207_20397)">
<rect width="24" height="24" fill="white"/>
<path d="M10.7505 2.85H9.50049V0.499999H14.5005V2.85H13.1505L12.9505 2.375H11.0255L10.7505 2.85ZM18.2755 22.275C17.7922 22.7583 17.2005 23 16.5005 23H7.50049C6.80049 23 6.20882 22.7583 5.72549 22.275C5.24216 21.7917 5.00049 21.2 5.00049 20.5V4.5C5.00049 3.8 5.24216 3.20833 5.72549 2.725C6.20882 2.24167 6.80049 2 7.50049 2H16.5005C17.2005 2 17.7922 2.24167 18.2755 2.725C18.7588 3.20833 19.0005 3.8 19.0005 4.5V20.5C19.0005 21.2 18.7588 21.7917 18.2755 22.275ZM11.6755 12.725C11.4755 13.1083 11.3755 13.5417 11.3755 14.025V14.575H12.3255V14.05C12.3255 13.7 12.3922 13.3917 12.5255 13.125C12.6588 12.8583 12.9255 12.6 13.3255 12.35C13.8422 12.0333 14.2505 11.7083 14.5505 11.375C14.8672 11.025 15.0255 10.6083 15.0255 10.125C15.0255 9.39167 14.7505 8.81667 14.2005 8.4C13.6505 7.96667 12.9088 7.75 11.9755 7.75C11.1422 7.75 10.4505 7.94167 9.90049 8.325C9.36716 8.70833 9.03382 9.25 8.90049 9.95L9.77549 10.1C9.85882 9.61667 10.0838 9.25 10.4505 9C10.8338 8.75 11.3255 8.625 11.9255 8.625C12.6255 8.625 13.1588 8.75833 13.5255 9.025C13.8922 9.275 14.0755 9.63333 14.0755 10.1C14.0755 10.45 13.9505 10.75 13.7005 11C13.4672 11.25 13.1172 11.5 12.6505 11.75C12.2005 12 11.8755 12.325 11.6755 12.725ZM11.3505 16.8C11.4838 16.9333 11.6588 17 11.8755 17C12.0922 17 12.2672 16.9333 12.4005 16.8C12.5338 16.6667 12.6005 16.4917 12.6005 16.275C12.6005 16.075 12.5338 15.9083 12.4005 15.775C12.2672 15.6417 12.0922 15.575 11.8755 15.575C11.6755 15.575 11.5088 15.6417 11.3755 15.775C11.2422 15.9083 11.1755 16.075 11.1755 16.275C11.1755 16.4917 11.2338 16.6667 11.3505 16.8Z" fill="black"/>
</g>
<defs>
<clipPath id="clip0_3207_20397">
<rect width="24" height="24" fill="white"/>
</clipPath>
</defs>
</svg>
