<svg width="24" height="24" viewBox="0 0 24 24" fill="none" xmlns="http://www.w3.org/2000/svg">
<g clip-path="url(#clip0_3207_18750)">
<rect width="24" height="24" fill="white"/>
<path d="M8.72598 15.5H15.276V18.725H8.72598V15.5ZM8.00098 23C7.36764 23 6.77598 22.8417 6.22598 22.525C5.69264 22.225 5.26764 21.8 4.95098 21.25C4.65098 20.7167 4.50098 20.1333 4.50098 19.5V5.5C4.50098 4.85 4.65098 4.25833 4.95098 3.725C5.26764 3.19167 5.69264 2.775 6.22598 2.475C6.77598 2.15833 7.36764 2 8.00098 2H16.001C16.651 2 17.2426 2.15833 17.776 2.475C18.3093 2.775 18.726 3.19167 19.026 3.725C19.3426 4.25833 19.501 4.85 19.501 5.5V19.5C19.501 20.1333 19.3426 20.7167 19.026 21.25C18.726 21.8 18.3093 22.225 17.776 22.525C17.2426 22.8417 16.651 23 16.001 23H8.00098ZM15.926 19.55C15.9426 19.55 15.9593 19.5417 15.976 19.525C15.9926 19.5083 16.001 19.4917 16.001 19.475V5.525C16.001 5.50833 15.9926 5.49167 15.976 5.475C15.9593 5.45833 15.9426 5.45 15.926 5.45H8.07598C8.05931 5.45 8.04264 5.45833 8.02598 5.475C8.00931 5.49167 8.00098 5.50833 8.00098 5.525V19.475C8.00098 19.4917 8.00931 19.5083 8.02598 19.525C8.04264 19.5417 8.05931 19.55 8.07598 19.55H15.926ZM9.50098 0.499999H14.501V2.85H13.651L13.451 2.375H10.526L10.251 2.85H9.50098V0.499999Z" fill="black"/>
</g>
<defs>
<clipPath id="clip0_3207_18750">
<rect width="24" height="24" fill="white"/>
</clipPath>
</defs>
</svg>
