<svg width="24" height="24" viewBox="0 0 24 24" fill="none" xmlns="http://www.w3.org/2000/svg">
<rect width="24" height="24" fill="white"/>
<path d="M7.50098 23C5.82598 23 4.50098 21.675 4.50098 20V5C4.50098 3.325 5.82598 2 7.50098 2H9.82598V0.5H14.176V2H16.501C18.176 2 19.501 3.325 19.501 5V20C19.501 21.675 18.176 23 16.501 23H7.50098ZM16.501 21.6C17.351 21.6 18.051 20.875 18.051 20V5C18.051 4.125 17.351 3.4 16.501 3.4H7.50098C6.65098 3.4 5.95098 4.125 5.95098 5V20C5.95098 20.875 6.65098 21.6 7.50098 21.6H16.501ZM8.77598 10.125L9.67598 9.2L12.001 11.55L14.326 9.2L15.226 10.125L12.876 12.425L15.226 14.725L14.326 15.65L12.001 13.3L9.67598 15.65L8.77598 14.725L11.126 12.425L8.77598 10.125Z" fill="black"/>
</svg>
