<svg width="24" height="24" viewBox="0 0 24 24" fill="none" xmlns="http://www.w3.org/2000/svg">
<g clip-path="url(#clip0_3375_5547)">
<rect width="24" height="24" fill="white"/>
<path d="M7.50098 23C7.03431 23 6.60931 22.8833 6.22598 22.65C5.85931 22.4333 5.55931 22.1333 5.32598 21.75C5.10931 21.3833 5.00098 20.9667 5.00098 20.5V4.5C5.00098 4.05 5.10931 3.63333 5.32598 3.25C5.55931 2.86667 5.85931 2.56667 6.22598 2.35C6.60931 2.11667 7.03431 2 7.50098 2H16.501C16.951 2 17.3676 2.11667 17.751 2.35C18.1343 2.56667 18.4343 2.86667 18.651 3.25C18.8843 3.63333 19.001 4.05 19.001 4.5V20.5C19.001 20.9667 18.8843 21.3833 18.651 21.75C18.4343 22.1333 18.1343 22.4333 17.751 22.65C17.3676 22.8833 16.951 23 16.501 23H7.50098ZM16.501 22C16.9176 22 17.2676 21.85 17.551 21.55C17.851 21.2667 18.001 20.9167 18.001 20.5V4.5C18.001 4.08333 17.851 3.73333 17.551 3.45C17.2676 3.15 16.9176 3 16.501 3H7.50098C7.08431 3 6.72598 3.15 6.42598 3.45C6.14264 3.73333 6.00098 4.08333 6.00098 4.5V20.5C6.00098 20.9167 6.14264 21.2667 6.42598 21.55C6.72598 21.85 7.08431 22 7.50098 22H16.501ZM9.50098 -8.34465e-07H14.501V2.275H13.576V0.874998H10.426V2.275H9.50098V-8.34465e-07ZM8.75098 17.5H15.251V18.375H8.75098V17.5ZM8.75098 8.425H15.251V9.3H8.75098V8.425ZM11.551 5.625H12.476V12.125H11.551V5.625Z" fill="black"/>
</g>
<defs>
<clipPath id="clip0_3375_5547">
<rect width="24" height="24" fill="white"/>
</clipPath>
</defs>
</svg>
