<svg width="24" height="24" viewBox="0 0 24 24" fill="none" xmlns="http://www.w3.org/2000/svg">
<g clip-path="url(#clip0_3208_21881)">
<rect width="24" height="24" fill="white"/>
<path d="M6.30098 17.65H13.701V19.1H6.30098V17.65ZM5.67598 23C5.17598 23 4.71764 22.8833 4.30098 22.65C3.90098 22.4167 3.58431 22.0917 3.35098 21.675C3.11764 21.275 3.00098 20.825 3.00098 20.325V4.675C3.00098 4.175 3.11764 3.725 3.35098 3.325C3.58431 2.90833 3.90098 2.58333 4.30098 2.35C4.71764 2.11667 5.17598 2 5.67598 2H14.326C14.826 2 15.276 2.11667 15.676 2.35C16.0926 2.58333 16.4176 2.90833 16.651 3.325C16.8843 3.725 17.001 4.175 17.001 4.675V20.325C17.001 20.825 16.8843 21.275 16.651 21.675C16.4176 22.0917 16.0926 22.4167 15.676 22.65C15.276 22.8833 14.826 23 14.326 23H5.67598ZM14.326 21.55C14.676 21.55 14.9593 21.4333 15.176 21.2C15.4093 20.9667 15.526 20.675 15.526 20.325V4.675C15.526 4.325 15.4093 4.03333 15.176 3.8C14.9593 3.56667 14.676 3.45 14.326 3.45H5.67598C5.32598 3.45 5.03431 3.56667 4.80098 3.8C4.58431 4.03333 4.47598 4.325 4.47598 4.675V20.325C4.47598 20.675 4.58431 20.9667 4.80098 21.2C5.03431 21.4333 5.32598 21.55 5.67598 21.55H14.326ZM7.82598 0.499999H12.176V2.85H11.151L10.951 2.375H9.02598L8.75098 2.85H7.82598V0.499999ZM21.476 6.225H18.751L20.251 1.95H21.176L20.776 4.8H23.501L22.001 9.05H21.076L21.476 6.225Z" fill="black"/>
</g>
<defs>
<clipPath id="clip0_3208_21881">
<rect width="24" height="24" fill="white"/>
</clipPath>
</defs>
</svg>
