<svg width="24" height="24" viewBox="0 0 24 24" fill="none" xmlns="http://www.w3.org/2000/svg">
<g clip-path="url(#clip0_3208_21319)">
<rect width="24" height="24" fill="white"/>
<path d="M22.126 6.225H18.951L20.401 2.2H21.126L20.326 5.275H23.501L22.101 9.3H21.376L22.126 6.225ZM5.50098 23C5.03431 23 4.60931 22.8833 4.22598 22.65C3.85931 22.4333 3.55931 22.1333 3.32598 21.75C3.10931 21.3833 3.00098 20.9667 3.00098 20.5V4.5C3.00098 4.05 3.10931 3.63333 3.32598 3.25C3.55931 2.86667 3.85931 2.56667 4.22598 2.35C4.60931 2.11667 5.03431 2 5.50098 2H14.501C14.951 2 15.3676 2.11667 15.751 2.35C16.1343 2.56667 16.4343 2.86667 16.651 3.25C16.8843 3.63333 17.001 4.05 17.001 4.5V20.5C17.001 20.9667 16.8843 21.3833 16.651 21.75C16.4343 22.1333 16.1343 22.4333 15.751 22.65C15.3676 22.8833 14.951 23 14.501 23H5.50098ZM14.501 22C14.9343 22 15.2926 21.85 15.576 21.55C15.8593 21.2667 16.001 20.9167 16.001 20.5V4.5C16.001 4.08333 15.8593 3.73333 15.576 3.45C15.2926 3.15 14.9343 3 14.501 3H5.50098C5.06764 3 4.70931 3.15 4.42598 3.45C4.14264 3.73333 4.00098 4.08333 4.00098 4.5V20.5C4.00098 20.9167 4.14264 21.2667 4.42598 21.55C4.70931 21.85 5.06764 22 5.50098 22H14.501ZM7.50098 -8.34465e-07H12.501V2.275H11.576V0.899999H8.42598V2.275H7.50098V-8.34465e-07Z" fill="black"/>
</g>
<defs>
<clipPath id="clip0_3208_21319">
<rect width="24" height="24" fill="white"/>
</clipPath>
</defs>
</svg>
