<svg width="24" height="24" viewBox="0 0 24 24" fill="none" xmlns="http://www.w3.org/2000/svg">
<g clip-path="url(#clip0_3207_20401)">
<rect width="24" height="24" fill="white"/>
<path d="M10.7505 2.85H9.50049V0.499999H14.5005V2.85H13.1505L12.9505 2.375H11.0255L10.7505 2.85ZM18.2755 22.275C17.7922 22.7583 17.2005 23 16.5005 23H7.50049C6.80049 23 6.20882 22.7583 5.72549 22.275C5.24216 21.7917 5.00049 21.2 5.00049 20.5V4.5C5.00049 3.8 5.24216 3.20833 5.72549 2.725C6.20882 2.24167 6.80049 2 7.50049 2H16.5005C17.2005 2 17.7922 2.24167 18.2755 2.725C18.7588 3.20833 19.0005 3.8 19.0005 4.5V20.5C19.0005 21.2 18.7588 21.7917 18.2755 22.275ZM11.2255 12.2C11.0088 12.5833 10.9005 12.9917 10.9005 13.425V13.875H12.7755V13.5C12.7755 13.3333 12.8172 13.1667 12.9005 13C13.0005 12.8333 13.2088 12.6667 13.5255 12.5C14.0922 12.2 14.5088 11.8833 14.7755 11.55C15.0422 11.2167 15.1755 10.8083 15.1755 10.325C15.1755 9.54167 14.8838 8.91667 14.3005 8.45C13.7338 7.98333 12.9505 7.75 11.9505 7.75C11.0505 7.75 10.3172 7.95833 9.75049 8.375C9.18382 8.79167 8.81716 9.375 8.65049 10.125L10.3255 10.425C10.4255 10.075 10.6005 9.81667 10.8505 9.65C11.1172 9.48333 11.4672 9.4 11.9005 9.4C12.3505 9.4 12.7005 9.475 12.9505 9.625C13.2172 9.75833 13.3505 9.96667 13.3505 10.25C13.3505 10.5167 13.2672 10.725 13.1005 10.875C12.9338 11.0083 12.6338 11.1667 12.2005 11.35C11.7672 11.5333 11.4422 11.8167 11.2255 12.2ZM11.0255 16.65C11.2588 16.8833 11.5588 17 11.9255 17C12.2922 17 12.5922 16.8833 12.8255 16.65C13.0588 16.4 13.1755 16.0917 13.1755 15.725C13.1755 15.375 13.0588 15.0833 12.8255 14.85C12.5922 14.6167 12.2922 14.5 11.9255 14.5C11.5588 14.5 11.2588 14.6167 11.0255 14.85C10.7922 15.0833 10.6755 15.375 10.6755 15.725C10.6755 16.0917 10.7922 16.4 11.0255 16.65Z" fill="black"/>
</g>
<defs>
<clipPath id="clip0_3207_20401">
<rect width="24" height="24" fill="white"/>
</clipPath>
</defs>
</svg>
