<svg width="24" height="24" viewBox="0 0 24 24" fill="none" xmlns="http://www.w3.org/2000/svg">
<g clip-path="url(#clip0_3207_20393)">
<rect width="24" height="24" fill="white"/>
<path d="M7.75098 23C7.11764 23 6.52598 22.8417 5.97598 22.525C5.44264 22.225 5.01764 21.8 4.70098 21.25C4.40098 20.7167 4.25098 20.1333 4.25098 19.5V5.5C4.25098 4.85 4.40098 4.25833 4.70098 3.725C5.01764 3.19167 5.44264 2.775 5.97598 2.475C6.52598 2.15833 7.11764 2 7.75098 2H16.251C16.901 2 17.4926 2.15833 18.026 2.475C18.5593 2.775 18.976 3.19167 19.276 3.725C19.5926 4.25833 19.751 4.85 19.751 5.5V19.5C19.751 20.1333 19.5926 20.7167 19.276 21.25C18.976 21.8 18.5593 22.225 18.026 22.525C17.4926 22.8417 16.901 23 16.251 23H7.75098ZM16.076 19.45C16.0926 19.45 16.1093 19.4417 16.126 19.425C16.1426 19.4083 16.151 19.3917 16.151 19.375V5.625C16.151 5.60833 16.1426 5.59167 16.126 5.575C16.1093 5.55833 16.0926 5.55 16.076 5.55H7.92598C7.90931 5.55 7.89264 5.55833 7.87598 5.575C7.85931 5.59167 7.85098 5.60833 7.85098 5.625V19.375C7.85098 19.3917 7.85931 19.4083 7.87598 19.425C7.89264 19.4417 7.90931 19.45 7.92598 19.45H16.076ZM9.50098 0.499999H14.501V2.85H13.651L13.451 2.375H10.526L10.251 2.85H9.50098V0.499999ZM10.326 13.075C10.3093 12.7583 10.3926 12.4083 10.576 12.025C10.776 11.6417 11.151 11.3333 11.701 11.1C11.9843 10.9667 12.1593 10.875 12.226 10.825C12.3093 10.775 12.351 10.7 12.351 10.6C12.351 10.5 12.2926 10.4167 12.176 10.35C12.076 10.2667 11.9176 10.225 11.701 10.225C11.3843 10.225 11.051 10.275 10.701 10.375C10.351 10.475 9.98431 10.6083 9.60098 10.775L8.42598 8.5C9.04264 8.15 9.60098 7.925 10.101 7.825C10.601 7.725 11.201 7.675 11.901 7.675C13.0343 7.675 13.8926 7.93333 14.476 8.45C15.0593 8.96667 15.351 9.58333 15.351 10.3C15.351 10.8833 15.176 11.375 14.826 11.775C14.4926 12.175 14.1176 12.475 13.701 12.675C13.4676 12.7917 13.326 12.9167 13.276 13.05C13.226 13.1833 13.201 13.3667 13.201 13.6V13.625H10.351L10.326 13.075ZM11.776 17.3C11.276 17.3 10.876 17.1583 10.576 16.875C10.2926 16.5917 10.151 16.2167 10.151 15.75C10.151 15.3167 10.2926 14.9583 10.576 14.675C10.8593 14.3917 11.2593 14.25 11.776 14.25C12.276 14.25 12.6843 14.3917 13.001 14.675C13.3176 14.9583 13.476 15.3167 13.476 15.75C13.476 16.2167 13.3176 16.5917 13.001 16.875C12.6843 17.1583 12.276 17.3 11.776 17.3Z" fill="black"/>
</g>
<defs>
<clipPath id="clip0_3207_20393">
<rect width="24" height="24" fill="white"/>
</clipPath>
</defs>
</svg>
