<svg width="24" height="24" viewBox="0 0 24 24" fill="none" xmlns="http://www.w3.org/2000/svg">
<g clip-path="url(#clip0_3375_5549)">
<rect width="24" height="24" fill="white"/>
<path d="M7.67598 23C7.17598 23 6.71764 22.8833 6.30098 22.65C5.90098 22.4167 5.58431 22.0917 5.35098 21.675C5.11764 21.275 5.00098 20.825 5.00098 20.325V4.675C5.00098 4.175 5.11764 3.725 5.35098 3.325C5.58431 2.90833 5.90098 2.58333 6.30098 2.35C6.71764 2.11667 7.17598 2 7.67598 2H16.326C16.826 2 17.276 2.11667 17.676 2.35C18.0926 2.58333 18.4176 2.90833 18.651 3.325C18.8843 3.725 19.001 4.175 19.001 4.675V20.325C19.001 20.825 18.8843 21.275 18.651 21.675C18.4176 22.0917 18.0926 22.4167 17.676 22.65C17.276 22.8833 16.826 23 16.326 23H7.67598ZM16.326 21.575C16.676 21.575 16.9676 21.45 17.201 21.2C17.4343 20.9667 17.551 20.675 17.551 20.325V4.675C17.551 4.325 17.426 4.03333 17.176 3.8C16.9426 3.55 16.6593 3.425 16.326 3.425H7.67598C7.32598 3.425 7.03431 3.55 6.80098 3.8C6.56764 4.03333 6.45098 4.325 6.45098 4.675V20.325C6.45098 20.675 6.56764 20.9667 6.80098 21.2C7.05098 21.45 7.34264 21.575 7.67598 21.575H16.326ZM9.82598 0.499999H14.176V2.85H13.151L12.951 2.375H11.026L10.751 2.85H9.82598V0.499999ZM8.75098 17.1H15.251V18.375H8.75098V17.1ZM8.75098 8.475H15.251V9.75H8.75098V8.475ZM11.351 5.875H12.676V12.375H11.351V5.875Z" fill="black"/>
</g>
<defs>
<clipPath id="clip0_3375_5549">
<rect width="24" height="24" fill="white"/>
</clipPath>
</defs>
</svg>
