<svg width="24" height="24" viewBox="0 0 24 24" fill="none" xmlns="http://www.w3.org/2000/svg">
<g clip-path="url(#clip0_3208_22147)">
<rect width="24" height="24" fill="white"/>
<path d="M7.82598 23C7.22598 23 6.66764 22.85 6.15098 22.55C5.65098 22.25 5.25098 21.8417 4.95098 21.325C4.65098 20.825 4.50098 20.275 4.50098 19.675V5.325C4.50098 4.725 4.65098 4.175 4.95098 3.675C5.25098 3.15833 5.65098 2.75 6.15098 2.45C6.66764 2.15 7.22598 2 7.82598 2H16.176C16.776 2 17.326 2.15 17.826 2.45C18.3426 2.75 18.751 3.15833 19.051 3.675C19.351 4.175 19.501 4.725 19.501 5.325V19.675C19.501 20.275 19.351 20.825 19.051 21.325C18.751 21.8417 18.3426 22.25 17.826 22.55C17.326 22.85 16.776 23 16.176 23H7.82598ZM15.951 19.9C16.0676 19.9 16.1593 19.8667 16.226 19.8C16.3093 19.7167 16.351 19.6083 16.351 19.475V5.525C16.351 5.39167 16.3093 5.29167 16.226 5.225C16.1593 5.14167 16.0676 5.1 15.951 5.1H8.05098C7.93431 5.1 7.83431 5.14167 7.75098 5.225C7.68431 5.29167 7.65098 5.39167 7.65098 5.525V19.475C7.65098 19.6083 7.68431 19.7167 7.75098 19.8C7.83431 19.8667 7.93431 19.9 8.05098 19.9H15.951ZM9.50098 0.499999H14.501V2.85H13.476L13.276 2.375H10.701L10.426 2.85H9.50098V0.499999Z" fill="black"/>
</g>
<defs>
<clipPath id="clip0_3208_22147">
<rect width="24" height="24" fill="white"/>
</clipPath>
</defs>
</svg>
