<svg width="24" height="24" viewBox="0 0 24 24" fill="none" xmlns="http://www.w3.org/2000/svg">
<g clip-path="url(#clip0_3208_21297)">
<rect width="24" height="24" fill="white"/>
<path d="M20.801 6.45H18.551L20.126 1.95H21.251V4.55H23.501L21.926 9.05H20.801V6.45ZM6.00098 23C5.45098 23 4.94264 22.8667 4.47598 22.6C4.02598 22.3333 3.66764 21.9667 3.40098 21.5C3.13431 21.05 3.00098 20.55 3.00098 20V5C3.00098 4.45 3.13431 3.95 3.40098 3.5C3.66764 3.03333 4.02598 2.66667 4.47598 2.4C4.94264 2.13333 5.45098 2 6.00098 2H14.001C14.551 2 15.051 2.13333 15.501 2.4C15.9676 2.66667 16.3343 3.03333 16.601 3.5C16.8676 3.95 17.001 4.45 17.001 5V20C17.001 20.55 16.8676 21.05 16.601 21.5C16.3343 21.9667 15.9676 22.3333 15.501 22.6C15.051 22.8667 14.551 23 14.001 23H6.00098ZM14.001 21.2C14.3176 21.2 14.5843 21.0833 14.801 20.85C15.0343 20.6167 15.151 20.3333 15.151 20V5C15.151 4.66667 15.0343 4.38333 14.801 4.15C14.5843 3.91667 14.3176 3.8 14.001 3.8H6.00098C5.68431 3.8 5.40931 3.91667 5.17598 4.15C4.95931 4.38333 4.85098 4.66667 4.85098 5V20C4.85098 20.3333 4.95931 20.6167 5.17598 20.85C5.40931 21.0833 5.68431 21.2 6.00098 21.2H14.001ZM7.50098 0.499999H12.501V2.85H11.151L10.951 2.375H9.02598L8.75098 2.85H7.50098V0.499999ZM6.80098 17.425H13.201V19.225H6.80098V17.425ZM6.80098 13.55H13.201V15.35H6.80098V13.55ZM6.80098 9.65H13.201V11.45H6.80098V9.65ZM6.80098 5.775H13.201V7.575H6.80098V5.775Z" fill="black"/>
</g>
<defs>
<clipPath id="clip0_3208_21297">
<rect width="24" height="24" fill="white"/>
</clipPath>
</defs>
</svg>
