<svg width="24" height="24" viewBox="0 0 24 24" fill="none" xmlns="http://www.w3.org/2000/svg">
<g clip-path="url(#clip0_3394_11770)">
<rect width="24" height="24" fill="white"/>
<path d="M20.601 9V16.3C20.601 17.2 20.376 18.0333 19.926 18.8C19.4926 19.55 18.8926 20.15 18.126 20.6C17.376 21.0333 16.5426 21.25 15.626 21.25C14.7093 21.25 13.8676 21.0333 13.101 20.6C12.351 20.15 11.751 19.55 11.301 18.8C10.8676 18.0333 10.651 17.2 10.651 16.3V7.7C10.651 7.26667 10.551 6.875 10.351 6.525C10.151 6.175 9.87598 5.9 9.52598 5.7C9.17598 5.5 8.79264 5.4 8.37598 5.4C7.95931 5.4 7.57598 5.5 7.22598 5.7C6.87598 5.9 6.60098 6.175 6.40098 6.525C6.20098 6.875 6.10098 7.26667 6.10098 7.7V15.4H3.40098V7.7C3.40098 6.8 3.61764 5.975 4.05098 5.225C4.50098 4.45833 5.10098 3.85833 5.85098 3.425C6.61764 2.975 7.45931 2.75 8.37598 2.75C9.29264 2.75 10.126 2.975 10.876 3.425C11.6426 3.85833 12.2426 4.45833 12.676 5.225C13.126 5.975 13.351 6.8 13.351 7.7V16.3C13.351 16.7333 13.451 17.125 13.651 17.475C13.851 17.825 14.126 18.1 14.476 18.3C14.826 18.5 15.2093 18.6 15.626 18.6C16.0426 18.6 16.426 18.5 16.776 18.3C17.126 18.1 17.401 17.825 17.601 17.475C17.801 17.125 17.901 16.7333 17.901 16.3V9H20.601ZM18.801 3.7C18.8343 3.7 18.851 3.7 18.851 3.7C18.8676 3.7 18.8926 3.7 18.926 3.7C18.9593 3.7 18.976 3.7 18.976 3.7C18.9926 3.7 19.0176 3.7 19.051 3.7H18.801ZM22.001 3V7.275C22.001 8.025 21.7343 8.64167 21.201 9.125C20.6843 9.60833 20.0343 9.85 19.251 9.85C18.4676 9.85 17.8093 9.60833 17.276 9.125C16.7593 8.64167 16.501 8.025 16.501 7.275V3H22.001ZM4.95098 20.35H5.20098C5.16764 20.35 5.14264 20.35 5.12598 20.35C5.12598 20.35 5.10931 20.35 5.07598 20.35C5.04264 20.35 5.01764 20.35 5.00098 20.35C5.00098 20.35 4.98431 20.35 4.95098 20.35ZM2.00098 16.725C2.00098 15.975 2.25931 15.3583 2.77598 14.875C3.30931 14.3917 3.96764 14.15 4.75098 14.15C5.53431 14.15 6.18431 14.3917 6.70098 14.875C7.23431 15.3583 7.50098 15.975 7.50098 16.725V21H2.00098V16.725Z" fill="black"/>
</g>
<defs>
<clipPath id="clip0_3394_11770">
<rect width="24" height="24" fill="white"/>
</clipPath>
</defs>
</svg>
