<svg width="24" height="24" viewBox="0 0 24 24" fill="none" xmlns="http://www.w3.org/2000/svg">
<g clip-path="url(#clip0_3207_18866)">
<rect width="24" height="24" fill="white"/>
<path d="M22.0005 3V7.375C22.0005 8.15833 21.6672 8.8 21.0005 9.3C20.3338 9.78333 19.5588 10.025 18.6755 10.025C17.7755 10.025 16.9922 9.78333 16.3255 9.3C15.6588 8.8 15.3255 8.15833 15.3255 7.375V3H22.0005ZM2.00049 16.625C2.00049 15.8417 2.33382 15.2083 3.00049 14.725C3.66716 14.225 4.44216 13.975 5.32549 13.975C6.22549 13.975 7.00882 14.225 7.67549 14.725C8.34216 15.2083 8.67549 15.8417 8.67549 16.625V21H2.00049V16.625ZM20.1505 9.175V16.475C20.1505 17.3417 19.9338 18.1417 19.5005 18.875C19.0838 19.6083 18.5088 20.1917 17.7755 20.625C17.0422 21.0417 16.2255 21.25 15.3255 21.25C14.4422 21.25 13.6338 21.0417 12.9005 20.625C12.1672 20.1917 11.5838 19.6083 11.1505 18.875C10.7338 18.1417 10.5255 17.3417 10.5255 16.475V7.525C10.5255 7.175 10.4422 6.85833 10.2755 6.575C10.1088 6.29167 9.88382 6.06667 9.60049 5.9C9.31716 5.73333 9.00882 5.65 8.67549 5.65C8.32549 5.65 8.00882 5.73333 7.72549 5.9C7.44216 6.06667 7.21716 6.29167 7.05049 6.575C6.88382 6.85833 6.80049 7.175 6.80049 7.525V15.225H3.85049V7.525C3.85049 6.65833 4.05882 5.85833 4.47549 5.125C4.90882 4.39167 5.49216 3.81667 6.22549 3.4C6.95882 2.96667 7.77549 2.75 8.67549 2.75C9.55882 2.75 10.3672 2.96667 11.1005 3.4C11.8338 3.81667 12.4088 4.39167 12.8255 5.125C13.2588 5.85833 13.4755 6.65833 13.4755 7.525V16.475C13.4755 16.825 13.5588 17.1417 13.7255 17.425C13.8922 17.7083 14.1172 17.9333 14.4005 18.1C14.6838 18.2667 14.9922 18.35 15.3255 18.35C15.6755 18.35 15.9922 18.2667 16.2755 18.1C16.5588 17.9333 16.7838 17.7083 16.9505 17.425C17.1172 17.1417 17.2005 16.825 17.2005 16.475V9.175H20.1505Z" fill="black"/>
</g>
<defs>
<clipPath id="clip0_3207_18866">
<rect width="24" height="24" fill="white"/>
</clipPath>
</defs>
</svg>
