<svg width="24" height="24" viewBox="0 0 24 24" fill="none" xmlns="http://www.w3.org/2000/svg">
<g clip-path="url(#clip0_3207_18848)">
<rect width="24" height="24" fill="white"/>
<path d="M19.926 9.5V16.85C19.926 17.65 19.726 18.3917 19.326 19.075C18.9426 19.7417 18.4093 20.275 17.726 20.675C17.0593 21.0583 16.3176 21.25 15.501 21.25C14.6843 21.25 13.9343 21.0583 13.251 20.675C12.5843 20.275 12.051 19.7417 11.651 19.075C11.2676 18.3917 11.076 17.65 11.076 16.85V7.15C11.076 6.66667 10.9593 6.23333 10.726 5.85C10.4926 5.45 10.176 5.13333 9.77598 4.9C9.39264 4.66667 8.96764 4.55 8.50098 4.55C8.03431 4.55 7.60098 4.66667 7.20098 4.9C6.81764 5.13333 6.50931 5.45 6.27598 5.85C6.04264 6.23333 5.92598 6.66667 5.92598 7.15V14.9H4.07598V7.15C4.07598 6.35 4.26764 5.61667 4.65098 4.95C5.05098 4.26667 5.58431 3.73333 6.25098 3.35C6.93431 2.95 7.68431 2.75 8.50098 2.75C9.31764 2.75 10.0593 2.95 10.726 3.35C11.4093 3.73333 11.9426 4.26667 12.326 4.95C12.726 5.61667 12.926 6.35 12.926 7.15V16.85C12.926 17.3333 13.0426 17.775 13.276 18.175C13.5093 18.5583 13.8176 18.8667 14.201 19.1C14.601 19.3333 15.0343 19.45 15.501 19.45C15.9676 19.45 16.3926 19.3333 16.776 19.1C17.176 18.8667 17.4926 18.5583 17.726 18.175C17.9593 17.775 18.076 17.3333 18.076 16.85V9.5H19.926ZM17.776 7.4C17.776 7.73333 17.8926 8.025 18.126 8.275C18.376 8.50833 18.6676 8.625 19.001 8.625C19.3343 8.625 19.6176 8.50833 19.851 8.275C20.101 8.025 20.226 7.73333 20.226 7.4V4.725H17.776V7.4ZM22.001 3V7.4C22.001 8.21667 21.7093 8.91667 21.126 9.5C20.5426 10.0667 19.8343 10.35 19.001 10.35C18.1676 10.35 17.4593 10.0667 16.876 9.5C16.2926 8.91667 16.001 8.21667 16.001 7.4V3H22.001ZM3.77598 19.275H6.22598V16.6C6.22598 16.2667 6.10098 15.9833 5.85098 15.75C5.61764 15.5 5.33431 15.375 5.00098 15.375C4.66764 15.375 4.37598 15.5 4.12598 15.75C3.89264 15.9833 3.77598 16.2667 3.77598 16.6V19.275ZM2.00098 16.6C2.00098 15.7833 2.29264 15.0917 2.87598 14.525C3.45931 13.9417 4.16764 13.65 5.00098 13.65C5.83431 13.65 6.54264 13.9417 7.12598 14.525C7.70931 15.0917 8.00098 15.7833 8.00098 16.6V21H2.00098V16.6Z" fill="black"/>
</g>
<defs>
<clipPath id="clip0_3207_18848">
<rect width="24" height="24" fill="white"/>
</clipPath>
</defs>
</svg>
