<svg width="24" height="24" viewBox="0 0 24 24" fill="none" xmlns="http://www.w3.org/2000/svg">
<g clip-path="url(#clip0_3208_21271)">
<rect width="24" height="24" fill="white"/>
<path d="M4.00098 19C3.45098 19 2.94264 18.8667 2.47598 18.6C2.02598 18.3333 1.66764 17.975 1.40098 17.525C1.13431 17.0583 1.00098 16.55 1.00098 16V8C1.00098 7.45 1.13431 6.95 1.40098 6.5C1.66764 6.03333 2.02598 5.66667 2.47598 5.4C2.94264 5.13333 3.45098 5 4.00098 5H20.001C20.551 5 21.051 5.13333 21.501 5.4C21.9676 5.66667 22.3343 6.03333 22.601 6.5C22.8676 6.95 23.001 7.45 23.001 8V16C23.001 16.55 22.8676 17.0583 22.601 17.525C22.3343 17.975 21.9676 18.3333 21.501 18.6C21.051 18.8667 20.551 19 20.001 19H4.00098ZM20.001 17.2C20.3176 17.2 20.5843 17.0833 20.801 16.85C21.0343 16.6167 21.151 16.3333 21.151 16V8C21.151 7.66667 21.0343 7.38333 20.801 7.15C20.5843 6.91667 20.3176 6.8 20.001 6.8H4.00098C3.68431 6.8 3.40931 6.91667 3.17598 7.15C2.95931 7.38333 2.85098 7.66667 2.85098 8V16C2.85098 16.3333 2.95931 16.6167 3.17598 16.85C3.40931 17.0833 3.68431 17.2 4.00098 17.2H20.001ZM7.85098 3.5V5.2H4.50098V3.5H7.85098ZM15.151 15.725C14.4676 15.725 13.8343 15.5583 13.251 15.225C12.6843 14.8917 12.2343 14.4417 11.901 13.875C11.5676 13.3083 11.401 12.6833 11.401 12C11.401 11.3167 11.5676 10.6917 11.901 10.125C12.2343 9.55833 12.6843 9.10833 13.251 8.775C13.8343 8.44167 14.4676 8.275 15.151 8.275C15.8343 8.275 16.4593 8.44167 17.026 8.775C17.6093 9.10833 18.0676 9.55833 18.401 10.125C18.7343 10.6917 18.901 11.3167 18.901 12C18.901 12.6833 18.7343 13.3083 18.401 13.875C18.0676 14.4417 17.6093 14.8917 17.026 15.225C16.4593 15.5583 15.8343 15.725 15.151 15.725ZM15.151 13.925C15.6843 13.925 16.1343 13.7417 16.501 13.375C16.8843 12.9917 17.076 12.5333 17.076 12C17.076 11.4667 16.8843 11.0167 16.501 10.65C16.1343 10.2667 15.6843 10.075 15.151 10.075C14.6176 10.075 14.1593 10.2667 13.776 10.65C13.4093 11.0167 13.226 11.4667 13.226 12C13.226 12.5333 13.4093 12.9917 13.776 13.375C14.1593 13.7417 14.6176 13.925 15.151 13.925Z" fill="black"/>
</g>
<defs>
<clipPath id="clip0_3208_21271">
<rect width="24" height="24" fill="white"/>
</clipPath>
</defs>
</svg>
