<svg width="24" height="24" viewBox="0 0 24 24" fill="none" xmlns="http://www.w3.org/2000/svg">
<g clip-path="url(#clip0_3208_21275)">
<rect width="24" height="24" fill="white"/>
<path d="M4.67598 19.325C4.05931 19.325 3.49264 19.1833 2.97598 18.9C2.47598 18.6 2.07598 18.2 1.77598 17.7C1.47598 17.1833 1.32598 16.6167 1.32598 16V8C1.32598 7.38333 1.47598 6.825 1.77598 6.325C2.07598 5.80833 2.47598 5.40833 2.97598 5.125C3.49264 4.825 4.05931 4.675 4.67598 4.675H19.326C19.9426 4.675 20.501 4.825 21.001 5.125C21.5176 5.40833 21.926 5.80833 22.226 6.325C22.526 6.825 22.676 7.38333 22.676 8V16C22.676 16.6167 22.526 17.1833 22.226 17.7C21.926 18.2 21.5176 18.6 21.001 18.9C20.501 19.1833 19.9426 19.325 19.326 19.325H4.67598ZM19.201 16.325C19.3176 16.325 19.4093 16.2833 19.476 16.2C19.5593 16.1167 19.6093 16.0167 19.626 15.9V8.1C19.6093 7.98333 19.5593 7.88333 19.476 7.8C19.4093 7.71667 19.3176 7.675 19.201 7.675H4.80098C4.68431 7.675 4.58431 7.71667 4.50098 7.8C4.43431 7.88333 4.39264 7.98333 4.37598 8.1V15.9C4.39264 16.0167 4.43431 16.1167 4.50098 16.2C4.58431 16.2833 4.68431 16.325 4.80098 16.325H19.201ZM8.95098 3.175V5.2H5.17598V3.175H8.95098ZM14.876 13.95C14.526 13.95 14.201 13.8667 13.901 13.7C13.601 13.5167 13.3593 13.2833 13.176 13C13.0093 12.7 12.926 12.3667 12.926 12C12.926 11.65 13.0093 11.325 13.176 11.025C13.3593 10.725 13.601 10.4917 13.901 10.325C14.201 10.1417 14.526 10.05 14.876 10.05C15.2426 10.05 15.576 10.1417 15.876 10.325C16.176 10.4917 16.4093 10.725 16.576 11.025C16.7593 11.3083 16.851 11.6333 16.851 12C16.851 12.35 16.7593 12.675 16.576 12.975C16.4093 13.275 16.176 13.5167 15.876 13.7C15.576 13.8667 15.2426 13.95 14.876 13.95ZM14.876 12C15.0593 12 15.1926 12 15.276 12C15.3593 12 15.4926 12 15.676 12C15.4926 12 15.3593 12 15.276 12C15.1926 12 15.0593 12 14.876 12C14.6926 12 14.5593 12 14.476 12C14.3926 12 14.2593 12 14.076 12C14.2593 12 14.3926 12 14.476 12C14.5593 12 14.6926 12 14.876 12Z" fill="black"/>
</g>
<defs>
<clipPath id="clip0_3208_21275">
<rect width="24" height="24" fill="white"/>
</clipPath>
</defs>
</svg>
