<svg width="24" height="24" viewBox="0 0 24 24" fill="none" xmlns="http://www.w3.org/2000/svg">
<g clip-path="url(#clip0_3207_19412)">
<rect width="24" height="24" fill="white"/>
<path d="M21.2755 14.95C20.7922 15.4333 20.2005 15.675 19.5005 15.675H8.82549C8.12549 15.675 7.53382 15.4333 7.05049 14.95C6.56716 14.4667 6.32549 13.875 6.32549 13.175V6.875C6.32549 6.175 6.56716 5.58333 7.05049 5.1C7.53382 4.61667 8.12549 4.375 8.82549 4.375H10.6005L11.4255 2H16.9255L17.7505 4.375H19.5005C20.2005 4.375 20.7922 4.61667 21.2755 5.1C21.7588 5.58333 22.0005 6.175 22.0005 6.875V13.175C22.0005 13.875 21.7588 14.4667 21.2755 14.95ZM12.1255 11.775C12.6922 12.325 13.3755 12.6 14.1755 12.6C14.9755 12.6 15.6505 12.325 16.2005 11.775C16.7672 11.2083 17.0505 10.5333 17.0505 9.75C17.0505 8.96667 16.7672 8.3 16.2005 7.75C15.6505 7.18333 14.9755 6.9 14.1755 6.9C13.3755 6.9 12.6922 7.18333 12.1255 7.75C11.5755 8.3 11.3005 8.96667 11.3005 9.75C11.3005 10.5333 11.5755 11.2083 12.1255 11.775ZM2.72549 19.275C3.20882 19.7583 3.80049 20 4.50049 20H15.1755C15.8255 20 16.3838 19.775 16.8505 19.325C17.3172 18.875 17.5755 18.3333 17.6255 17.7V17.675H8.82549C7.99216 17.675 7.23382 17.475 6.55049 17.075C5.86716 16.675 5.32549 16.1333 4.92549 15.45C4.52549 14.7667 4.32549 14.0083 4.32549 13.175V8.75H4.30049C3.65049 8.8 3.10049 9.05833 2.65049 9.525C2.21716 9.975 2.00049 10.5333 2.00049 11.2V17.5C2.00049 18.2 2.24216 18.7917 2.72549 19.275Z" fill="black"/>
</g>
<defs>
<clipPath id="clip0_3207_19412">
<rect width="24" height="24" fill="white"/>
</clipPath>
</defs>
</svg>
