<svg width="24" height="24" viewBox="0 0 24 24" fill="none" xmlns="http://www.w3.org/2000/svg">
<g clip-path="url(#clip0_3208_20989)">
<rect width="24" height="24" fill="white"/>
<path d="M5.32598 21C4.72598 21 4.16764 20.8583 3.65098 20.575C3.15098 20.275 2.75098 19.875 2.45098 19.375C2.15098 18.8583 2.00098 18.3 2.00098 17.7V8.625C2.00098 8.025 2.15098 7.475 2.45098 6.975C2.75098 6.475 3.15098 6.075 3.65098 5.775C4.16764 5.475 4.72598 5.325 5.32598 5.325H7.27598L8.12598 3H15.901L16.776 5.325H18.676C19.276 5.325 19.826 5.475 20.326 5.775C20.8426 6.075 21.251 6.475 21.551 6.975C21.851 7.475 22.001 8.025 22.001 8.625V17.7C22.001 18.3 21.851 18.8583 21.551 19.375C21.251 19.875 20.8426 20.275 20.326 20.575C19.826 20.8583 19.276 21 18.676 21H5.32598ZM18.576 18.075C18.6926 18.075 18.7926 18.0333 18.876 17.95C18.976 17.85 19.026 17.7417 19.026 17.625V8.725C19.026 8.59167 18.976 8.48333 18.876 8.4C18.7926 8.31667 18.6926 8.275 18.576 8.275H14.726L13.851 5.925H10.176L9.32598 8.275H5.42598C5.30931 8.275 5.20098 8.31667 5.10098 8.4C5.01764 8.48333 4.97598 8.59167 4.97598 8.725V17.625C4.97598 17.7417 5.01764 17.85 5.10098 17.95C5.20098 18.0333 5.30931 18.075 5.42598 18.075H18.576ZM12.001 15.9C11.201 15.9 10.4593 15.7083 9.77598 15.325C9.10931 14.9417 8.58431 14.4167 8.20098 13.75C7.83431 13.0833 7.65098 12.3417 7.65098 11.525V10.95H9.75098V11.525C9.75098 12.175 9.96764 12.725 10.401 13.175C10.8343 13.6083 11.3676 13.825 12.001 13.825C12.6343 13.825 13.1676 13.6083 13.601 13.175C14.0343 12.725 14.251 12.175 14.251 11.525V10.95H16.351V11.525C16.351 12.3417 16.1593 13.0833 15.776 13.75C15.4093 14.4167 14.8843 14.9417 14.201 15.325C13.5343 15.7083 12.801 15.9 12.001 15.9ZM10.876 14.975H13.126V16.725H10.876V14.975ZM12.001 12.925C11.6176 12.925 11.2926 12.7917 11.026 12.525C10.7593 12.2583 10.626 11.9417 10.626 11.575V9.4C10.626 9.05 10.7593 8.75 11.026 8.5C11.2926 8.25 11.6176 8.125 12.001 8.125C12.3843 8.125 12.7093 8.25 12.976 8.5C13.2426 8.75 13.376 9.05 13.376 9.4V11.575C13.376 11.9417 13.2426 12.2583 12.976 12.525C12.7093 12.7917 12.3843 12.925 12.001 12.925ZM12.001 10.35C12.0343 10.35 12.051 10.35 12.051 10.35C12.0676 10.35 12.0926 10.35 12.126 10.35C12.0926 10.35 12.0676 10.35 12.051 10.35C12.051 10.35 12.0343 10.35 12.001 10.35C11.9676 10.35 11.9426 10.35 11.926 10.35C11.926 10.35 11.9093 10.35 11.876 10.35C11.9093 10.35 11.926 10.35 11.926 10.35C11.9426 10.35 11.9676 10.35 12.001 10.35Z" fill="black"/>
</g>
<defs>
<clipPath id="clip0_3208_20989">
<rect width="24" height="24" fill="white"/>
</clipPath>
</defs>
</svg>
