<svg width="24" height="24" viewBox="0 0 24 24" fill="none" xmlns="http://www.w3.org/2000/svg">
<g clip-path="url(#clip0_3207_20663)">
<rect width="24" height="24" fill="white"/>
<path d="M4.67549 19.175C3.99216 19.175 3.40049 18.9333 2.90049 18.45C2.41716 17.95 2.17549 17.3583 2.17549 16.675V7.325C2.17549 6.64167 2.41716 6.05833 2.90049 5.575C3.40049 5.075 3.99216 4.825 4.67549 4.825H19.3255C20.0088 4.825 20.5922 5.075 21.0755 5.575C21.5755 6.05833 21.8255 6.64167 21.8255 7.325V16.675C21.8255 17.3583 21.5755 17.95 21.0755 18.45C20.5922 18.9333 20.0088 19.175 19.3255 19.175H9.17549V7.5H7.17549V19.175H4.67549ZM9.17549 3.325V5.175H5.60049V3.325H9.17549ZM15.5005 15.55C16.1505 15.55 16.7422 15.3917 17.2755 15.075C17.8255 14.7583 18.2588 14.3333 18.5755 13.8C18.8922 13.25 19.0505 12.65 19.0505 12C19.0505 11.35 18.8922 10.7583 18.5755 10.225C18.2588 9.675 17.8255 9.24167 17.2755 8.925C16.7422 8.60833 16.1505 8.45 15.5005 8.45C14.8505 8.45 14.2505 8.60833 13.7005 8.925C13.1672 9.24167 12.7422 9.675 12.4255 10.225C12.1088 10.7583 11.9505 11.35 11.9505 12C11.9505 12.65 12.1088 13.25 12.4255 13.8C12.7422 14.3333 13.1672 14.7583 13.7005 15.075C14.2505 15.3917 14.8505 15.55 15.5005 15.55Z" fill="black"/>
</g>
<defs>
<clipPath id="clip0_3207_20663">
<rect width="24" height="24" fill="white"/>
</clipPath>
</defs>
</svg>
