<svg width="24" height="24" viewBox="0 0 24 24" fill="none" xmlns="http://www.w3.org/2000/svg">
<g clip-path="url(#clip0_3207_20665)">
<rect width="24" height="24" fill="white"/>
<path d="M4.82549 19.325C4.14216 19.325 3.55049 19.0833 3.05049 18.6C2.56716 18.1 2.32549 17.5083 2.32549 16.825V7.175C2.32549 6.49167 2.56716 5.90833 3.05049 5.425C3.55049 4.925 4.14216 4.675 4.82549 4.675H19.1755C19.8588 4.675 20.4422 4.925 20.9255 5.425C21.4255 5.90833 21.6755 6.49167 21.6755 7.175V16.825C21.6755 17.5083 21.4255 18.1 20.9255 18.6C20.4422 19.0833 19.8588 19.325 19.1755 19.325H9.32549V8H7.32549V19.325H4.82549ZM9.32549 3.175V5.175H5.55049V3.175H9.32549ZM15.5005 15.325C16.1005 15.325 16.6588 15.1833 17.1755 14.9C17.6922 14.6 18.0922 14.2 18.3755 13.7C18.6755 13.1833 18.8255 12.6167 18.8255 12C18.8255 11.4 18.6755 10.8417 18.3755 10.325C18.0922 9.80833 17.6922 9.40833 17.1755 9.125C16.6755 8.825 16.1172 8.675 15.5005 8.675C14.9005 8.675 14.3422 8.825 13.8255 9.125C13.3088 9.40833 12.9005 9.80833 12.6005 10.325C12.3172 10.825 12.1755 11.3833 12.1755 12C12.1755 12.6 12.3172 13.1583 12.6005 13.675C12.9005 14.1917 13.3005 14.6 13.8005 14.9C14.3172 15.1833 14.8838 15.325 15.5005 15.325Z" fill="black"/>
</g>
<defs>
<clipPath id="clip0_3207_20665">
<rect width="24" height="24" fill="white"/>
</clipPath>
</defs>
</svg>
