<svg width="24" height="24" viewBox="0 0 24 24" fill="none" xmlns="http://www.w3.org/2000/svg">
<g clip-path="url(#clip0_3208_21277)">
<rect width="24" height="24" fill="white"/>
<path d="M5.00098 19.5C4.36764 19.5 3.77598 19.35 3.22598 19.05C2.69264 18.7333 2.26764 18.3083 1.95098 17.775C1.65098 17.225 1.50098 16.6333 1.50098 16V8C1.50098 7.35 1.65098 6.75833 1.95098 6.225C2.26764 5.69167 2.69264 5.275 3.22598 4.975C3.77598 4.65833 4.36764 4.5 5.00098 4.5H19.001C19.651 4.5 20.2426 4.65833 20.776 4.975C21.3093 5.275 21.726 5.69167 22.026 6.225C22.3426 6.75833 22.501 7.35 22.501 8V16C22.501 16.6333 22.3426 17.225 22.026 17.775C21.726 18.3083 21.3093 18.7333 20.776 19.05C20.2426 19.35 19.651 19.5 19.001 19.5H5.00098ZM18.776 15.9C18.7926 15.8833 18.801 15.875 18.801 15.875C18.8176 15.8583 18.8343 15.8417 18.851 15.825V8.175C18.8343 8.15833 18.8176 8.15 18.801 8.15C18.801 8.13333 18.7926 8.11667 18.776 8.1H5.22598C5.20931 8.11667 5.19264 8.13333 5.17598 8.15C5.17598 8.15 5.16764 8.15833 5.15098 8.175V15.825C5.16764 15.8417 5.17598 15.8583 5.17598 15.875C5.19264 15.875 5.20931 15.8833 5.22598 15.9H18.776ZM9.50098 3V5.2H5.50098V3H9.50098ZM14.751 14.375C14.301 14.375 13.8926 14.275 13.526 14.075C13.176 13.8583 12.8926 13.5667 12.676 13.2C12.476 12.8333 12.376 12.4333 12.376 12C12.376 11.5667 12.476 11.1667 12.676 10.8C12.8926 10.4333 13.176 10.15 13.526 9.95C13.8926 9.73333 14.301 9.625 14.751 9.625C15.201 9.625 15.601 9.73333 15.951 9.95C16.3176 10.15 16.601 10.4333 16.801 10.8C17.0176 11.1667 17.126 11.5667 17.126 12C17.126 12.4333 17.0176 12.8333 16.801 13.2C16.601 13.5667 16.3176 13.8583 15.951 14.075C15.601 14.275 15.201 14.375 14.751 14.375ZM14.751 12C15.001 12 15.1843 12 15.301 12C15.4176 12 15.601 12 15.851 12C15.601 12 15.4176 12 15.301 12C15.1843 12 15.001 12 14.751 12C14.501 12 14.3176 12 14.201 12C14.0843 12 13.901 12 13.651 12C13.901 12 14.0843 12 14.201 12C14.3176 12 14.501 12 14.751 12Z" fill="black"/>
</g>
<defs>
<clipPath id="clip0_3208_21277">
<rect width="24" height="24" fill="white"/>
</clipPath>
</defs>
</svg>
