<svg width="24" height="24" viewBox="0 0 24 24" fill="none" xmlns="http://www.w3.org/2000/svg">
<g clip-path="url(#clip0_3207_19396)">
<rect width="24" height="24" fill="white"/>
<path d="M9.00098 15.925C8.18431 15.925 7.49264 15.6417 6.92598 15.075C6.35931 14.5083 6.07598 13.8167 6.07598 13V7.125C6.07598 6.30833 6.35931 5.61667 6.92598 5.05C7.49264 4.48333 8.18431 4.2 9.00098 4.2H10.001L10.776 2H17.326L18.101 4.2H19.101C19.9176 4.2 20.601 4.48333 21.151 5.05C21.7176 5.61667 22.001 6.30833 22.001 7.125V13C22.001 13.8167 21.7176 14.5083 21.151 15.075C20.5843 15.6417 19.8926 15.925 19.076 15.925H9.00098ZM18.851 13.575C19.0676 13.575 19.251 13.5 19.401 13.35C19.551 13.2 19.626 13.0083 19.626 12.775V7.35C19.626 7.11667 19.551 6.925 19.401 6.775C19.251 6.60833 19.0676 6.525 18.851 6.525H16.476L15.676 4.325H12.401L11.626 6.525H9.22598C9.02598 6.525 8.85098 6.60833 8.70098 6.775C8.55098 6.925 8.47598 7.11667 8.47598 7.35V12.775C8.47598 13.0083 8.55098 13.2 8.70098 13.35C8.85098 13.5 9.02598 13.575 9.22598 13.575H18.851ZM14.051 12.5C13.2343 12.5 12.551 12.225 12.001 11.675C11.451 11.125 11.176 10.4583 11.176 9.675C11.176 8.875 11.451 8.2 12.001 7.65C12.5676 7.1 13.2426 6.825 14.026 6.825C14.8426 6.825 15.526 7.1 16.076 7.65C16.626 8.2 16.901 8.875 16.901 9.675C16.901 10.4583 16.626 11.125 16.076 11.675C15.526 12.225 14.851 12.5 14.051 12.5ZM14.026 10.575C14.3093 10.575 14.5343 10.4833 14.701 10.3C14.8843 10.1167 14.976 9.90833 14.976 9.675C14.976 9.39167 14.8843 9.16667 14.701 9C14.5343 8.83333 14.3093 8.75 14.026 8.75C13.776 8.75 13.5593 8.84167 13.376 9.025C13.2093 9.19167 13.126 9.4 13.126 9.65C13.126 9.9 13.2176 10.1167 13.401 10.3C13.5843 10.4833 13.7926 10.575 14.026 10.575ZM18.001 17.075C18.001 17.8917 17.7176 18.5833 17.151 19.15C16.5843 19.7167 15.8926 20 15.076 20H4.92598C4.10931 20 3.41764 19.7167 2.85098 19.15C2.28431 18.5833 2.00098 17.8917 2.00098 17.075V11.125C2.00098 10.3083 2.28431 9.61667 2.85098 9.05C3.41764 8.48333 4.10931 8.2 4.92598 8.2H6.57598V10.55H5.15098C4.93431 10.55 4.75098 10.625 4.60098 10.775C4.45098 10.925 4.37598 11.1167 4.37598 11.35V16.875C4.37598 17.0917 4.45098 17.2833 4.60098 17.45C4.75098 17.6 4.93431 17.675 5.15098 17.675H14.851C15.0676 17.675 15.251 17.6 15.401 17.45C15.551 17.2833 15.626 17.0917 15.626 16.875V15.35H18.001V17.075Z" fill="black"/>
</g>
<defs>
<clipPath id="clip0_3207_19396">
<rect width="24" height="24" fill="white"/>
</clipPath>
</defs>
</svg>
