<svg width="24" height="24" viewBox="0 0 24 24" fill="none" xmlns="http://www.w3.org/2000/svg">
<g clip-path="url(#clip0_3207_20653)">
<rect width="24" height="24" fill="white"/>
<path d="M5.00098 19.5C4.36764 19.5 3.77598 19.35 3.22598 19.05C2.69264 18.7333 2.26764 18.3083 1.95098 17.775C1.65098 17.225 1.50098 16.6333 1.50098 16V8C1.50098 7.35 1.65098 6.75833 1.95098 6.225C2.26764 5.69167 2.69264 5.275 3.22598 4.975C3.77598 4.65833 4.36764 4.5 5.00098 4.5H19.001C19.651 4.5 20.2426 4.65833 20.776 4.975C21.3093 5.275 21.726 5.69167 22.026 6.225C22.3426 6.75833 22.501 7.35 22.501 8V16C22.501 16.6333 22.3426 17.225 22.026 17.775C21.726 18.3083 21.3093 18.7333 20.776 19.05C20.2426 19.35 19.651 19.5 19.001 19.5H5.00098ZM18.926 16.05C18.9426 16.0333 18.951 16.025 18.951 16.025C18.9676 16.0083 18.9843 15.9917 19.001 15.975V8.025C19.001 8.00833 18.9926 7.99167 18.976 7.975C18.9593 7.95833 18.9426 7.95 18.926 7.95H5.02598C5.00931 7.96667 4.99264 7.98333 4.97598 8C4.97598 8 4.96764 8.00833 4.95098 8.025V15.975C4.96764 15.9917 4.97598 16.0083 4.97598 16.025C4.99264 16.025 5.00931 16.0333 5.02598 16.05H18.926ZM9.95098 5.575V17.65H6.55098V5.575H9.95098ZM9.95098 3V5.15H5.95098V3H9.95098ZM14.476 14.375C14.026 14.375 13.6176 14.275 13.251 14.075C12.901 13.8583 12.6176 13.5667 12.401 13.2C12.201 12.8333 12.101 12.4333 12.101 12C12.101 11.5667 12.201 11.1667 12.401 10.8C12.6176 10.4333 12.901 10.15 13.251 9.95C13.6176 9.73333 14.026 9.625 14.476 9.625C14.926 9.625 15.326 9.73333 15.676 9.95C16.0426 10.15 16.326 10.4333 16.526 10.8C16.7426 11.1667 16.851 11.5667 16.851 12C16.851 12.4333 16.7426 12.8333 16.526 13.2C16.326 13.5667 16.0426 13.8583 15.676 14.075C15.326 14.275 14.926 14.375 14.476 14.375ZM14.476 12C14.726 12 14.9093 12 15.026 12C15.1426 12 15.326 12 15.576 12C15.326 12 15.1426 12 15.026 12C14.9093 12 14.726 12 14.476 12C14.226 12 14.0426 12 13.926 12C13.8093 12 13.626 12 13.376 12C13.626 12 13.8093 12 13.926 12C14.0426 12 14.226 12 14.476 12Z" fill="black"/>
</g>
<defs>
<clipPath id="clip0_3207_20653">
<rect width="24" height="24" fill="white"/>
</clipPath>
</defs>
</svg>
