<svg width="24" height="24" viewBox="0 0 24 24" fill="none" xmlns="http://www.w3.org/2000/svg">
<g clip-path="url(#clip0_3207_20649)">
<rect width="24" height="24" fill="white"/>
<path d="M4.32598 19.175C3.75931 19.175 3.23431 19.0333 2.75098 18.75C2.26764 18.4667 1.88431 18.0833 1.60098 17.6C1.31764 17.1167 1.17598 16.5833 1.17598 16V8C1.17598 7.41667 1.31764 6.88333 1.60098 6.4C1.88431 5.91667 2.26764 5.53333 2.75098 5.25C3.23431 4.96667 3.75931 4.825 4.32598 4.825H19.676C20.2426 4.825 20.7676 4.96667 21.251 5.25C21.7343 5.53333 22.1176 5.91667 22.401 6.4C22.6843 6.88333 22.826 7.41667 22.826 8V16C22.826 16.5833 22.6843 17.1167 22.401 17.6C22.1176 18.0833 21.7343 18.4667 21.251 18.75C20.7676 19.0333 20.2426 19.175 19.676 19.175H4.32598ZM19.626 16.8C19.8426 16.8 20.026 16.725 20.176 16.575C20.326 16.4083 20.401 16.2083 20.401 15.975V8.025C20.401 7.79167 20.326 7.6 20.176 7.45C20.026 7.28333 19.8426 7.2 19.626 7.2H4.35098C4.13431 7.2 3.95098 7.28333 3.80098 7.45C3.65098 7.6 3.57598 7.79167 3.57598 8.025V15.975C3.57598 16.2083 3.65098 16.4083 3.80098 16.575C3.95098 16.725 4.13431 16.8 4.35098 16.8H19.626ZM8.55098 5.55V17.625H6.17598V5.55H8.55098ZM8.50098 3.325V5.175H4.92598V3.325H8.50098ZM14.926 15.475C14.2926 15.475 13.7093 15.325 13.176 15.025C12.6426 14.7083 12.2176 14.2833 11.901 13.75C11.5843 13.2167 11.426 12.6333 11.426 12C11.426 11.3667 11.5843 10.7833 11.901 10.25C12.2176 9.71667 12.6426 9.3 13.176 9C13.7093 8.68333 14.2926 8.525 14.926 8.525C15.576 8.525 16.1676 8.68333 16.701 9C17.2343 9.3 17.651 9.71667 17.951 10.25C18.2676 10.7833 18.426 11.3667 18.426 12C18.426 12.6333 18.2676 13.2167 17.951 13.75C17.651 14.2833 17.226 14.7083 16.676 15.025C16.1426 15.325 15.5593 15.475 14.926 15.475ZM14.951 13.475C15.351 13.475 15.6926 13.3333 15.976 13.05C16.2593 12.75 16.401 12.4 16.401 12C16.401 11.5833 16.2593 11.2333 15.976 10.95C15.6926 10.6667 15.3426 10.525 14.926 10.525C14.526 10.525 14.176 10.675 13.876 10.975C13.5926 11.2583 13.451 11.6 13.451 12C13.451 12.4 13.5926 12.75 13.876 13.05C14.176 13.3333 14.5343 13.475 14.951 13.475Z" fill="black"/>
</g>
<defs>
<clipPath id="clip0_3207_20649">
<rect width="24" height="24" fill="white"/>
</clipPath>
</defs>
</svg>
