<svg width="24" height="24" viewBox="0 0 24 24" fill="none" xmlns="http://www.w3.org/2000/svg">
<g clip-path="url(#clip0_3207_19400)">
<rect width="24" height="24" fill="white"/>
<path d="M9.00098 15.75C8.23431 15.75 7.58431 15.4833 7.05098 14.95C6.51764 14.4167 6.25098 13.7667 6.25098 13V6.625C6.25098 5.84167 6.51764 5.19167 7.05098 4.675C7.58431 4.14167 8.23431 3.875 9.00098 3.875H9.65098L10.351 2H17.976L18.676 3.875H19.326C20.076 3.875 20.7093 4.14167 21.226 4.675C21.7426 5.20833 22.001 5.85833 22.001 6.625V13C22.001 13.7667 21.7343 14.4167 21.201 14.95C20.6843 15.4833 20.0343 15.75 19.251 15.75H9.00098ZM18.526 12.35C18.5426 12.35 18.551 12.35 18.551 12.35C18.551 12.35 18.551 12.3417 18.551 12.325V7.275C18.551 7.25833 18.551 7.25 18.551 7.25C18.551 7.25 18.5426 7.25 18.526 7.25H16.401L15.701 5.4H12.551L11.851 7.25H9.72598C9.70931 7.25 9.70098 7.25 9.70098 7.25C9.70098 7.25 9.70098 7.25833 9.70098 7.275V12.325C9.70098 12.3417 9.70098 12.35 9.70098 12.35C9.70098 12.35 9.70931 12.35 9.72598 12.35H18.526ZM14.126 11.55C13.4926 11.55 12.9593 11.3333 12.526 10.9C12.0926 10.4667 11.876 9.93333 11.876 9.3C11.876 8.66667 12.0926 8.13333 12.526 7.7C12.9593 7.25 13.4926 7.025 14.126 7.025C14.776 7.025 15.3176 7.25 15.751 7.7C16.1843 8.13333 16.401 8.66667 16.401 9.3C16.401 9.93333 16.1843 10.4667 15.751 10.9C15.3176 11.3333 14.776 11.55 14.126 11.55ZM14.126 9.3C14.3593 9.3 14.5343 9.3 14.651 9.3C14.7676 9.3 14.9426 9.3 15.176 9.3C14.9426 9.3 14.7676 9.3 14.651 9.3C14.5343 9.3 14.3593 9.3 14.126 9.3C13.8926 9.3 13.7176 9.3 13.601 9.3C13.501 9.3 13.3343 9.3 13.101 9.3C13.3343 9.3 13.501 9.3 13.601 9.3C13.7176 9.3 13.8926 9.3 14.126 9.3ZM18.001 17.25C18.001 18.0167 17.7343 18.6667 17.201 19.2C16.6843 19.7333 16.0343 20 15.251 20H4.75098C3.98431 20 3.33431 19.7333 2.80098 19.2C2.26764 18.6667 2.00098 18.0167 2.00098 17.25V10.625C2.00098 9.84167 2.26764 9.19167 2.80098 8.675C3.33431 8.14167 3.98431 7.875 4.75098 7.875H6.77598V11.275H5.47598C5.45931 11.275 5.45098 11.275 5.45098 11.275C5.45098 11.275 5.45098 11.2833 5.45098 11.3V16.575C5.45098 16.5917 5.45098 16.6 5.45098 16.6C5.45098 16.6 5.45931 16.6 5.47598 16.6H14.526C14.5426 16.6 14.551 16.6 14.551 16.6C14.551 16.6 14.551 16.5917 14.551 16.575V14.625H18.001V17.25Z" fill="black"/>
</g>
<defs>
<clipPath id="clip0_3207_19400">
<rect width="24" height="24" fill="white"/>
</clipPath>
</defs>
</svg>
