<svg width="24" height="24" viewBox="0 0 24 24" fill="none" xmlns="http://www.w3.org/2000/svg">
<g clip-path="url(#clip0_3207_18430)">
<rect width="24" height="24" fill="white"/>
<path d="M7.50098 17C6.80098 17 6.20931 16.7583 5.72598 16.275C5.24264 15.7917 5.00098 15.2 5.00098 14.5V7.375C5.00098 6.675 5.24264 6.08333 5.72598 5.6C6.20931 5.11667 6.80098 4.875 7.50098 4.875H9.92598L10.751 2.5H16.301L17.176 4.875H19.576C20.2593 4.875 20.8343 5.11667 21.301 5.6C21.7676 6.08333 22.001 6.675 22.001 7.375V14.5C22.001 15.2 21.7593 15.7917 21.276 16.275C20.7926 16.7583 20.201 17 19.501 17H7.50098ZM19.501 16.525C20.0676 16.525 20.5426 16.3333 20.926 15.95C21.3093 15.55 21.501 15.0667 21.501 14.5V7.375C21.501 6.80833 21.3093 6.33333 20.926 5.95C20.5593 5.55 20.1093 5.35 19.576 5.35H16.826L15.951 2.975H11.126L10.276 5.35H7.50098C6.93431 5.35 6.45931 5.55 6.07598 5.95C5.69264 6.33333 5.50098 6.80833 5.50098 7.375V14.5C5.50098 15.0667 5.69264 15.55 6.07598 15.95C6.45931 16.3333 6.93431 16.525 7.50098 16.525H19.501ZM13.501 13.475C12.6676 13.475 11.9593 13.1917 11.376 12.625C10.7926 12.0417 10.501 11.3333 10.501 10.5C10.501 9.66667 10.7926 8.96667 11.376 8.4C11.9593 7.81667 12.6676 7.525 13.501 7.525C14.3343 7.525 15.0426 7.81667 15.626 8.4C16.2093 8.96667 16.501 9.66667 16.501 10.5C16.501 11.3333 16.2093 12.0417 15.626 12.625C15.0426 13.1917 14.3343 13.475 13.501 13.475ZM13.501 13.025C14.2176 13.025 14.8176 12.7833 15.301 12.3C15.7843 11.8167 16.026 11.2167 16.026 10.5C16.026 9.78333 15.7843 9.18333 15.301 8.7C14.8176 8.21667 14.2176 7.975 13.501 7.975C12.7843 7.975 12.1843 8.21667 11.701 8.7C11.2176 9.18333 10.976 9.78333 10.976 10.5C10.976 11.2167 11.2176 11.8167 11.701 12.3C12.1843 12.7833 12.7843 13.025 13.501 13.025ZM19.001 17.5C19.001 18.2 18.7593 18.7917 18.276 19.275C17.7926 19.7583 17.201 20 16.501 20H4.50098C3.80098 20 3.20931 19.7583 2.72598 19.275C2.24264 18.7917 2.00098 18.2 2.00098 17.5V10.375C2.00098 9.675 2.24264 9.08333 2.72598 8.6C3.20931 8.11667 3.80098 7.875 4.50098 7.875H5.25098V8.35H4.50098C3.93431 8.35 3.45931 8.55 3.07598 8.95C2.69264 9.33333 2.50098 9.80833 2.50098 10.375V17.5C2.50098 18.0667 2.69264 18.55 3.07598 18.95C3.45931 19.3333 3.93431 19.525 4.50098 19.525H16.501C17.0676 19.525 17.5426 19.3333 17.926 18.95C18.3093 18.55 18.501 18.0667 18.501 17.5V16.75H19.001V17.5Z" fill="black"/>
</g>
<defs>
<clipPath id="clip0_3207_18430">
<rect width="24" height="24" fill="white"/>
</clipPath>
</defs>
</svg>
