<svg width="24" height="24" viewBox="0 0 24 24" fill="none" xmlns="http://www.w3.org/2000/svg">
<g clip-path="url(#clip0_3207_18794)">
<rect width="24" height="24" fill="white"/>
<path d="M3.82598 20C3.30931 20 2.83431 19.875 2.40098 19.625C1.96764 19.375 1.62598 19.0333 1.37598 18.6C1.12598 18.1667 1.00098 17.6917 1.00098 17.175V6.825C1.00098 6.30833 1.12598 5.83333 1.37598 5.4C1.62598 4.96667 1.96764 4.625 2.40098 4.375C2.83431 4.125 3.30931 4 3.82598 4H13.676C14.1926 4 14.6676 4.125 15.101 4.375C15.5343 4.625 15.876 4.96667 16.126 5.4C16.376 5.83333 16.501 6.30833 16.501 6.825V17.175C16.501 17.6917 16.376 18.1667 16.126 18.6C15.876 19.0333 15.5343 19.375 15.101 19.625C14.6676 19.875 14.1926 20 13.676 20H3.82598ZM13.676 18.65C14.076 18.65 14.4093 18.5083 14.676 18.225C14.9593 17.925 15.101 17.575 15.101 17.175V6.825C15.101 6.425 14.9593 6.08333 14.676 5.8C14.4093 5.5 14.076 5.35 13.676 5.35H3.82598C3.42598 5.35 3.08431 5.5 2.80098 5.8C2.53431 6.08333 2.40098 6.425 2.40098 6.825V17.175C2.40098 17.575 2.53431 17.925 2.80098 18.225C3.08431 18.5083 3.42598 18.65 3.82598 18.65H13.676ZM21.426 5.9H23.001V18.1H21.426L15.976 15.225V13.675L22.576 17.2L21.601 17.6V6.6L22.576 6.8L15.976 10.325V8.775L21.426 5.9ZM5.25098 11.375H8.07598V8.525H9.42598V11.375H12.251V12.625H9.42598V15.475H8.07598V12.625H5.25098V11.375Z" fill="black"/>
</g>
<defs>
<clipPath id="clip0_3207_18794">
<rect width="24" height="24" fill="white"/>
</clipPath>
</defs>
</svg>
