<svg width="24" height="24" viewBox="0 0 24 24" fill="none" xmlns="http://www.w3.org/2000/svg">
<g clip-path="url(#clip0_3207_18792)">
<rect width="24" height="24" fill="white"/>
<path d="M3.67598 20C3.17598 20 2.71764 19.8833 2.30098 19.65C1.90098 19.4167 1.58431 19.1 1.35098 18.7C1.11764 18.2833 1.00098 17.825 1.00098 17.325V6.675C1.00098 6.175 1.11764 5.725 1.35098 5.325C1.58431 4.90833 1.90098 4.58333 2.30098 4.35C2.71764 4.11667 3.17598 4 3.67598 4H13.826C14.326 4 14.776 4.11667 15.176 4.35C15.5926 4.58333 15.9176 4.90833 16.151 5.325C16.3843 5.725 16.501 6.175 16.501 6.675V17.325C16.501 17.825 16.3843 18.2833 16.151 18.7C15.9176 19.1 15.5926 19.4167 15.176 19.65C14.776 19.8833 14.326 20 13.826 20H3.67598ZM13.826 19.075C14.3093 19.075 14.7176 18.9083 15.051 18.575C15.3843 18.225 15.551 17.8083 15.551 17.325V6.675C15.551 6.175 15.3843 5.75833 15.051 5.425C14.7176 5.09167 14.3093 4.925 13.826 4.925H3.67598C3.19264 4.925 2.78431 5.09167 2.45098 5.425C2.11764 5.75833 1.95098 6.175 1.95098 6.675V17.325C1.95098 17.8083 2.11764 18.225 2.45098 18.575C2.78431 18.9083 3.19264 19.075 3.67598 19.075H13.826ZM21.976 5.775H23.001V18.225H21.976L16.151 15.125V14.075L22.676 17.55L22.051 17.8V6.35L22.676 6.425L16.151 9.925V8.875L21.976 5.775ZM5.25098 11.55H8.30098V8.525H9.20098V11.55H12.251V12.425H9.20098V15.475H8.30098V12.425H5.25098V11.55Z" fill="black"/>
</g>
<defs>
<clipPath id="clip0_3207_18792">
<rect width="24" height="24" fill="white"/>
</clipPath>
</defs>
</svg>
