<svg width="24" height="24" viewBox="0 0 24 24" fill="none" xmlns="http://www.w3.org/2000/svg">
<g clip-path="url(#clip0_3207_20655)">
<rect width="24" height="24" fill="white"/>
<path d="M4.50049 19C3.81716 19 3.22549 18.7583 2.72549 18.275C2.24216 17.775 2.00049 17.1833 2.00049 16.5V7.5C2.00049 6.81667 2.24216 6.23333 2.72549 5.75C3.22549 5.25 3.81716 5 4.50049 5H19.5005C20.1838 5 20.7672 5.25 21.2505 5.75C21.7505 6.23333 22.0005 6.81667 22.0005 7.5V16.5C22.0005 17.1833 21.7505 17.775 21.2505 18.275C20.7672 18.7583 20.1838 19 19.5005 19H9.00049V7H8.50049V19H4.50049ZM9.00049 3.5V5.2H5.65049V3.5H9.00049ZM15.5005 15.75C16.1838 15.75 16.8088 15.5833 17.3755 15.25C17.9588 14.9167 18.4172 14.4667 18.7505 13.9C19.0838 13.3167 19.2505 12.6833 19.2505 12C19.2505 11.3167 19.0838 10.6917 18.7505 10.125C18.4172 9.54167 17.9588 9.08333 17.3755 8.75C16.8088 8.41667 16.1838 8.25 15.5005 8.25C14.8172 8.25 14.1838 8.41667 13.6005 8.75C13.0338 9.08333 12.5838 9.54167 12.2505 10.125C11.9172 10.6917 11.7505 11.3167 11.7505 12C11.7505 12.6833 11.9172 13.3167 12.2505 13.9C12.5838 14.4667 13.0338 14.9167 13.6005 15.25C14.1838 15.5833 14.8172 15.75 15.5005 15.75Z" fill="black"/>
</g>
<defs>
<clipPath id="clip0_3207_20655">
<rect width="24" height="24" fill="white"/>
</clipPath>
</defs>
</svg>
