<svg width="24" height="24" viewBox="0 0 24 24" fill="none" xmlns="http://www.w3.org/2000/svg">
<g clip-path="url(#clip0_3207_19128)">
<rect width="24" height="24" fill="white"/>
<path d="M15.7755 19.275C15.2922 19.7583 14.7005 20 14.0005 20H3.50049C2.80049 20 2.20882 19.7583 1.72549 19.275C1.24216 18.7917 1.00049 18.2 1.00049 17.5V6.5C1.00049 5.8 1.24216 5.20833 1.72549 4.725C2.20882 4.24167 2.80049 4 3.50049 4H14.0005C14.7005 4 15.2922 4.24167 15.7755 4.725C16.2588 5.20833 16.5005 5.8 16.5005 6.5V17.5C16.5005 18.2 16.2588 18.7917 15.7755 19.275ZM14.9255 14.025V9.975L20.0005 5.675H23.0005V18.325H20.0005L14.9255 14.025ZM6.75049 7.725L4.47549 10L6.52549 12L4.47549 14L6.75049 16.275L8.75049 14.225L10.7505 16.275L13.0255 14.025L10.9505 12L13.0255 9.975L10.7505 7.7L8.75049 9.775L6.75049 7.725Z" fill="black"/>
</g>
<defs>
<clipPath id="clip0_3207_19128">
<rect width="24" height="24" fill="white"/>
</clipPath>
</defs>
</svg>
