<svg width="24" height="24" viewBox="0 0 24 24" fill="none" xmlns="http://www.w3.org/2000/svg">
<g clip-path="url(#clip0_3207_18802)">
<rect width="24" height="24" fill="white"/>
<path d="M4.50098 20C3.86764 20 3.27598 19.85 2.72598 19.55C2.19264 19.2333 1.76764 18.8083 1.45098 18.275C1.15098 17.725 1.00098 17.1333 1.00098 16.5V7.5C1.00098 6.85 1.15098 6.25833 1.45098 5.725C1.76764 5.19167 2.19264 4.775 2.72598 4.475C3.27598 4.15833 3.86764 4 4.50098 4H13.001C13.651 4 14.2426 4.15833 14.776 4.475C15.3093 4.775 15.726 5.19167 16.026 5.725C16.3426 6.25833 16.501 6.85 16.501 7.5V16.5C16.501 17.1333 16.3426 17.725 16.026 18.275C15.726 18.8083 15.3093 19.2333 14.776 19.55C14.2426 19.85 13.651 20 13.001 20H4.50098ZM13.026 16.6C13.0426 16.6 13.0593 16.5917 13.076 16.575C13.0926 16.5583 13.101 16.5417 13.101 16.525V7.475C13.101 7.45833 13.0926 7.44167 13.076 7.425C13.0593 7.40833 13.0426 7.4 13.026 7.4H4.52598C4.50931 7.4 4.49264 7.40833 4.47598 7.425C4.45931 7.44167 4.45098 7.45833 4.45098 7.475V16.525C4.45098 16.5417 4.45931 16.5583 4.47598 16.575C4.49264 16.5917 4.50931 16.6 4.52598 16.6H13.026ZM19.751 5.5H23.001V18.5H19.751L14.626 15.125V11.375L22.476 16.325L19.701 16.875V6.875L22.476 7.7L14.626 12.35V8.625L19.751 5.5ZM5.30098 10.575H7.25098V8.575H10.251V10.575H12.201V13.425H10.251V15.425H7.25098V13.425H5.30098V10.575Z" fill="black"/>
</g>
<defs>
<clipPath id="clip0_3207_18802">
<rect width="24" height="24" fill="white"/>
</clipPath>
</defs>
</svg>
