<svg width="24" height="24" viewBox="0 0 24 24" fill="none" xmlns="http://www.w3.org/2000/svg">
<g clip-path="url(#clip0_3208_22099)">
<rect width="24" height="24" fill="white"/>
<path d="M19.1505 19.15C18.6005 19.7167 17.8838 20 17.0005 20H7.00049C6.13382 20 5.41716 19.7167 4.85049 19.15C4.28382 18.5833 4.00049 17.8667 4.00049 17V7C4.00049 6.11667 4.28382 5.4 4.85049 4.85C5.41716 4.28333 6.13382 4 7.00049 4H17.0005C17.8838 4 18.6005 4.28333 19.1505 4.85C19.7172 5.4 20.0005 6.11667 20.0005 7V17C20.0005 17.8667 19.7172 18.5833 19.1505 19.15ZM7.90049 4.375V2H8.40049V4.375H7.90049ZM15.6005 4.325V2H16.1005V4.325H15.6005ZM7.90049 22V19.725H8.40049V22H7.90049ZM15.6005 22V19.725H16.1005V22H15.6005ZM22.0005 16.075H19.7005V15.6H22.0005V16.075ZM22.0005 8.375H19.6505V7.9H22.0005V8.375ZM4.37549 16.075H2.00049V15.6H4.37549V16.075ZM4.37549 8.375H2.00049V7.9H4.37549V8.375ZM8.65049 8.3L8.30049 8.65L11.6505 12L8.30049 15.35L8.65049 15.7L12.0005 12.35L15.3505 15.7L15.7005 15.35L12.3505 12L15.7005 8.65L15.3505 8.3L12.0005 11.65L8.65049 8.3Z" fill="black"/>
</g>
<defs>
<clipPath id="clip0_3208_22099">
<rect width="24" height="24" fill="white"/>
</clipPath>
</defs>
</svg>
