<svg width="24" height="24" viewBox="0 0 24 24" fill="none" xmlns="http://www.w3.org/2000/svg">
<g clip-path="url(#clip0_3208_22089)">
<rect width="24" height="24" fill="white"/>
<path d="M7.00098 20C6.15098 20 5.43431 19.7167 4.85098 19.15C4.28431 18.5667 4.00098 17.85 4.00098 17V7C4.00098 6.15 4.28431 5.44167 4.85098 4.875C5.43431 4.29167 6.15098 4 7.00098 4H17.001C17.851 4 18.5593 4.29167 19.126 4.875C19.7093 5.44167 20.001 6.15 20.001 7V17C20.001 17.85 19.7093 18.5667 19.126 19.15C18.5593 19.7167 17.851 20 17.001 20H7.00098ZM17.001 18.675C17.4676 18.675 17.851 18.5167 18.151 18.2C18.4676 17.8833 18.626 17.4833 18.626 17V7C18.626 6.51667 18.4676 6.11667 18.151 5.8C17.851 5.48333 17.4676 5.325 17.001 5.325H7.00098C6.53431 5.325 6.14264 5.48333 5.82598 5.8C5.52598 6.11667 5.37598 6.51667 5.37598 7V17C5.37598 17.4833 5.52598 17.8833 5.82598 18.2C6.14264 18.5167 6.53431 18.675 7.00098 18.675H17.001ZM9.27598 2V5H7.97598V2H9.27598ZM16.026 2V4.9H14.726V2H16.026ZM9.27598 19.275V22H7.97598V19.275H9.27598ZM16.026 19.275V22H14.726V19.275H16.026ZM19.176 14.725H22.001V16.025H19.176V14.725ZM19.076 7.975H22.001V9.275H19.076V7.975ZM2.00098 14.725H5.00098V16.025H2.00098V14.725ZM2.00098 7.975H5.00098V9.275H2.00098V7.975ZM9.17598 8.275L12.001 11.1L14.826 8.275L15.726 9.175L12.901 12L15.726 14.825L14.826 15.725L12.001 12.9L9.17598 15.725L8.27598 14.825L11.101 12L8.27598 9.175L9.17598 8.275Z" fill="black"/>
</g>
<defs>
<clipPath id="clip0_3208_22089">
<rect width="24" height="24" fill="white"/>
</clipPath>
</defs>
</svg>
