<svg width="24" height="24" viewBox="0 0 24 24" fill="none" xmlns="http://www.w3.org/2000/svg">
<g clip-path="url(#clip0_3208_22107)">
<rect width="24" height="24" fill="white"/>
<path d="M19.1255 19.15C18.5588 19.7167 17.8588 20 17.0255 20H6.97549C6.14216 20 5.43382 19.7167 4.85049 19.15C4.28382 18.5667 4.00049 17.8583 4.00049 17.025V6.975C4.00049 6.14167 4.28382 5.44167 4.85049 4.875C5.43382 4.29167 6.14216 4 6.97549 4H17.0255C17.8588 4 18.5588 4.29167 19.1255 4.875C19.7088 5.44167 20.0005 6.14167 20.0005 6.975V17.025C20.0005 17.8583 19.7088 18.5667 19.1255 19.15ZM7.72549 5.4V2H10.0005V5.4H7.72549ZM14.0005 5.225V2H16.2755V5.225H14.0005ZM7.72549 22V19.05H10.0005V22H7.72549ZM14.0005 22V19.05H16.2755V22H14.0005ZM22.0005 16.275H19.1505V14H22.0005V16.275ZM22.0005 10H19.0005V7.725H22.0005V10ZM5.07549 16.275H2.00049V14H5.07549V16.275ZM5.07549 10H2.00049V7.725H5.07549V10ZM9.50049 7.875L7.87549 9.5L10.4005 12L7.87549 14.5L9.50049 16.125L12.0005 13.6L14.5005 16.125L16.1255 14.5L13.6005 12L16.1255 9.5L14.5005 7.875L12.0005 10.4L9.50049 7.875Z" fill="black"/>
</g>
<defs>
<clipPath id="clip0_3208_22107">
<rect width="24" height="24" fill="white"/>
</clipPath>
</defs>
</svg>
