<svg width="24" height="24" viewBox="0 0 24 24" fill="none" xmlns="http://www.w3.org/2000/svg">
<g clip-path="url(#clip0_3207_19630)">
<rect width="24" height="24" fill="white"/>
<path d="M12.001 22.375C9.43431 22.375 7.45931 21.6667 6.07598 20.25C4.69264 18.8333 4.00098 16.7917 4.00098 14.125V6.175C4.00098 5.40833 4.18431 4.70833 4.55098 4.075C4.91764 3.425 5.41764 2.91667 6.05098 2.55C6.70098 2.18333 7.40931 2 8.17598 2H15.826C16.5926 2 17.2926 2.18333 17.926 2.55C18.576 2.91667 19.0843 3.425 19.451 4.075C19.8176 4.70833 20.001 5.40833 20.001 6.175V14.125C20.001 16.7917 19.3093 18.8333 17.926 20.25C16.5426 21.6667 14.5676 22.375 12.001 22.375ZM12.001 19.95C13.7676 19.95 15.126 19.45 16.076 18.45C17.0426 17.45 17.526 16.0083 17.526 14.125V6.175C17.526 5.675 17.3593 5.25833 17.026 4.925C16.7093 4.59167 16.3093 4.425 15.826 4.425H8.17598C7.69264 4.425 7.28431 4.59167 6.95098 4.925C6.63431 5.25833 6.47598 5.675 6.47598 6.175V14.125C6.47598 16.0083 6.95098 17.45 7.90098 18.45C8.86764 19.45 10.2343 19.95 12.001 19.95ZM12.001 9.65C11.501 9.65 11.076 9.475 10.726 9.125C10.376 8.775 10.201 8.35 10.201 7.85C10.201 7.33333 10.376 6.90833 10.726 6.575C11.076 6.225 11.501 6.05 12.001 6.05C12.5176 6.05 12.9426 6.225 13.276 6.575C13.626 6.90833 13.801 7.33333 13.801 7.85C13.801 8.35 13.626 8.775 13.276 9.125C12.9426 9.475 12.5176 9.65 12.001 9.65ZM12.001 7.85C11.8176 7.85 11.6843 7.85 11.601 7.85C11.5176 7.85 11.3926 7.85 11.226 7.85C11.4093 7.85 11.5426 7.85 11.626 7.85C11.7093 7.85 11.8343 7.85 12.001 7.85C12.1843 7.85 12.3176 7.85 12.401 7.85C12.4843 7.85 12.6176 7.85 12.801 7.85C12.6176 7.85 12.4843 7.85 12.401 7.85C12.3176 7.85 12.1843 7.85 12.001 7.85Z" fill="black"/>
</g>
<defs>
<clipPath id="clip0_3207_19630">
<rect width="24" height="24" fill="white"/>
</clipPath>
</defs>
</svg>
