<svg width="24" height="24" viewBox="0 0 24 24" fill="none" xmlns="http://www.w3.org/2000/svg">
<g clip-path="url(#clip0_3207_20259)">
<rect width="24" height="24" fill="white"/>
<path d="M12.001 22.375C9.43431 22.375 7.45931 21.6667 6.07598 20.25C4.69264 18.8333 4.00098 16.7917 4.00098 14.125V6.175C4.00098 5.40833 4.18431 4.70833 4.55098 4.075C4.91764 3.425 5.41764 2.91667 6.05098 2.55C6.70098 2.18333 7.40931 2 8.17598 2H15.826C16.5926 2 17.2926 2.18333 17.926 2.55C18.576 2.91667 19.0843 3.425 19.451 4.075C19.8176 4.70833 20.001 5.40833 20.001 6.175V14.125C20.001 16.7917 19.3093 18.8333 17.926 20.25C16.5426 21.6667 14.5676 22.375 12.001 22.375ZM12.001 19.95C13.7676 19.95 15.126 19.45 16.076 18.45C17.0426 17.45 17.526 16.0083 17.526 14.125V6.175C17.526 5.675 17.3593 5.25833 17.026 4.925C16.7093 4.59167 16.3093 4.425 15.826 4.425H8.17598C7.69264 4.425 7.28431 4.59167 6.95098 4.925C6.63431 5.25833 6.47598 5.675 6.47598 6.175V14.125C6.47598 16.0083 6.95098 17.45 7.90098 18.45C8.86764 19.45 10.2343 19.95 12.001 19.95ZM9.80098 9.65C9.30098 9.65 8.87598 9.475 8.52598 9.125C8.17598 8.775 8.00098 8.35 8.00098 7.85C8.00098 7.33333 8.17598 6.90833 8.52598 6.575C8.87598 6.225 9.30098 6.05 9.80098 6.05C10.3176 6.05 10.7426 6.225 11.076 6.575C11.426 6.90833 11.601 7.33333 11.601 7.85C11.601 8.35 11.426 8.775 11.076 9.125C10.7426 9.475 10.3176 9.65 9.80098 9.65ZM9.80098 7.85C9.61764 7.85 9.48431 7.85 9.40098 7.85C9.31764 7.85 9.19264 7.85 9.02598 7.85C9.20931 7.85 9.34264 7.85 9.42598 7.85C9.50931 7.85 9.63431 7.85 9.80098 7.85C9.98431 7.85 10.1176 7.85 10.201 7.85C10.2843 7.85 10.4176 7.85 10.601 7.85C10.4176 7.85 10.2843 7.85 10.201 7.85C10.1176 7.85 9.98431 7.85 9.80098 7.85Z" fill="black"/>
</g>
<defs>
<clipPath id="clip0_3207_20259">
<rect width="24" height="24" fill="white"/>
</clipPath>
</defs>
</svg>
