<svg width="24" height="24" viewBox="0 0 24 24" fill="none" xmlns="http://www.w3.org/2000/svg">
<g clip-path="url(#clip0_3207_20275)">
<rect width="24" height="24" fill="white"/>
<path d="M17.9255 20.25C16.5422 21.6667 14.5672 22.375 12.0005 22.375C9.43382 22.375 7.45882 21.6667 6.07549 20.25C4.69216 18.8167 4.00049 16.775 4.00049 14.125V5.5C4.00049 4.86667 4.15049 4.28333 4.45049 3.75C4.76716 3.2 5.19216 2.775 5.72549 2.475C6.27549 2.15833 6.86716 2 7.50049 2H16.5005C17.1338 2 17.7172 2.15833 18.2505 2.475C18.8005 2.775 19.2255 3.2 19.5255 3.75C19.8422 4.28333 20.0005 4.86667 20.0005 5.5V14.125C20.0005 16.775 19.3088 18.8167 17.9255 20.25ZM7.67549 8.625C8.09216 9.025 8.59216 9.225 9.17549 9.225C9.74216 9.225 10.2255 9.025 10.6255 8.625C11.0422 8.225 11.2505 7.74167 11.2505 7.175C11.2505 6.59167 11.0422 6.1 10.6255 5.7C10.2255 5.3 9.74216 5.1 9.17549 5.1C8.59216 5.1 8.09216 5.3 7.67549 5.7C7.27549 6.1 7.07549 6.59167 7.07549 7.175C7.07549 7.74167 7.27549 8.225 7.67549 8.625Z" fill="black"/>
</g>
<defs>
<clipPath id="clip0_3207_20275">
<rect width="24" height="24" fill="white"/>
</clipPath>
</defs>
</svg>
