<svg width="24" height="24" viewBox="0 0 24 24" fill="none" xmlns="http://www.w3.org/2000/svg">
<g clip-path="url(#clip0_3208_20979)">
<rect width="24" height="24" fill="white"/>
<path d="M17.2505 23.025C16.7172 23.3417 16.1338 23.5 15.5005 23.5H8.50049C7.86716 23.5 7.27549 23.3417 6.72549 23.025C6.19216 22.725 5.76716 22.3 5.45049 21.75C5.15049 21.2167 5.00049 20.6333 5.00049 20V4C5.00049 3.36667 5.15049 2.78333 5.45049 2.25C5.76716 1.7 6.19216 1.275 6.72549 0.974999C7.27549 0.658332 7.86716 0.499999 8.50049 0.499999H15.5005C16.1338 0.499999 16.7172 0.658332 17.2505 0.974999C17.8005 1.275 18.2255 1.7 18.5255 2.25C18.8422 2.78333 19.0005 3.36667 19.0005 4V20C19.0005 20.6333 18.8422 21.2167 18.5255 21.75C18.2255 22.3 17.8005 22.725 17.2505 23.025ZM7.77549 9.55C7.34216 10.2833 7.12549 11.1 7.12549 12H10.1005C10.1005 11.6667 10.1838 11.3583 10.3505 11.075C10.5172 10.775 10.7422 10.5417 11.0255 10.375C11.3255 10.1917 11.6505 10.1 12.0005 10.1H12.6005H12.9005H13.1005L14.6255 8.6L13.1255 7.15H12.9005H12.6755H12.0005C11.1005 7.15 10.2755 7.36667 9.52549 7.8C8.79216 8.21667 8.20882 8.8 7.77549 9.55ZM9.40049 15.375L10.8755 16.85H11.2255H11.4505H12.0005C12.9005 16.85 13.7172 16.6417 14.4505 16.225C15.2005 15.7917 15.7922 15.2083 16.2255 14.475C16.6588 13.725 16.8755 12.9 16.8755 12H13.9005C13.9005 12.3333 13.8172 12.65 13.6505 12.95C13.4838 13.2333 13.2505 13.4667 12.9505 13.65C12.6672 13.8167 12.3505 13.9 12.0005 13.9H11.4505H11.2505H10.9005L9.40049 15.375Z" fill="black"/>
</g>
<defs>
<clipPath id="clip0_3208_20979">
<rect width="24" height="24" fill="white"/>
</clipPath>
</defs>
</svg>
