<svg width="24" height="24" viewBox="0 0 24 24" fill="none" xmlns="http://www.w3.org/2000/svg">
<g clip-path="url(#clip0_3208_21255)">
<rect width="24" height="24" fill="white"/>
<path d="M17.2505 22.525C16.7172 22.8417 16.1338 23 15.5005 23H8.50049C7.86716 23 7.27549 22.8417 6.72549 22.525C6.19216 22.225 5.76716 21.8 5.45049 21.25C5.15049 20.7167 5.00049 20.1333 5.00049 19.5V4.5C5.00049 3.86667 5.15049 3.28333 5.45049 2.75C5.76716 2.2 6.19216 1.775 6.72549 1.475C7.27549 1.15833 7.86716 1 8.50049 1H15.5005C16.1338 1 16.7172 1.15833 17.2505 1.475C17.8005 1.775 18.2255 2.2 18.5255 2.75C18.8422 3.28333 19.0005 3.86667 19.0005 4.5V19.5C19.0005 20.1333 18.8422 20.7167 18.5255 21.25C18.2255 21.8 17.8005 22.225 17.2505 22.525ZM15.6505 14.375C16.0338 13.725 16.2255 13.0167 16.2255 12.25H15.2255C15.2255 12.8333 15.0755 13.375 14.7755 13.875C14.4922 14.375 14.1005 14.775 13.6005 15.075C13.1172 15.3583 12.5838 15.5 12.0005 15.5C11.4172 15.5 10.8755 15.3583 10.3755 15.075C9.89216 14.775 9.50049 14.375 9.20049 13.875C8.91716 13.375 8.77549 12.8333 8.77549 12.25C8.77549 11.6667 8.91716 11.125 9.20049 10.625C9.50049 10.125 9.89216 9.73333 10.3755 9.45C10.8588 9.15 11.4005 9 12.0005 9H13.3755L11.6255 10.675L12.3005 11.375L15.1505 8.525L12.3005 5.7L11.6255 6.375L13.3755 8.05H12.0005C11.2172 8.05 10.5005 8.24167 9.85049 8.625C9.21716 8.99167 8.70882 9.5 8.32549 10.15C7.95882 10.7833 7.77549 11.4833 7.77549 12.25C7.77549 13.0167 7.95882 13.725 8.32549 14.375C8.70882 15.0083 9.21716 15.5167 9.85049 15.9C10.5005 16.2667 11.2172 16.45 12.0005 16.45C12.7838 16.45 13.4922 16.2667 14.1255 15.9C14.7755 15.5167 15.2838 15.0083 15.6505 14.375Z" fill="black"/>
</g>
<defs>
<clipPath id="clip0_3208_21255">
<rect width="24" height="24" fill="white"/>
</clipPath>
</defs>
</svg>
