<svg width="24" height="24" viewBox="0 0 24 24" fill="none" xmlns="http://www.w3.org/2000/svg">
<g clip-path="url(#clip0_3208_20963)">
<rect width="24" height="24" fill="white"/>
<path d="M8.82598 23C8.02598 23 7.29264 22.8083 6.62598 22.425C5.97598 22.0417 5.45931 21.525 5.07598 20.875C4.69264 20.2083 4.50098 19.475 4.50098 18.675V5.325C4.50098 4.525 4.69264 3.8 5.07598 3.15C5.45931 2.48333 5.97598 1.95833 6.62598 1.575C7.29264 1.19167 8.02598 1 8.82598 1H15.176C15.976 1 16.701 1.19167 17.351 1.575C18.0176 1.95833 18.5426 2.48333 18.926 3.15C19.3093 3.8 19.501 4.525 19.501 5.325V18.675C19.501 19.475 19.3093 20.2083 18.926 20.875C18.5426 21.525 18.0176 22.0417 17.351 22.425C16.701 22.8083 15.976 23 15.176 23H8.82598ZM15.176 20.1C15.5593 20.1 15.8843 19.9667 16.151 19.7C16.4176 19.4167 16.551 19.075 16.551 18.675V5.325C16.551 4.925 16.4176 4.59167 16.151 4.325C15.8843 4.04167 15.5593 3.9 15.176 3.9H8.82598C8.44264 3.9 8.11764 4.04167 7.85098 4.325C7.58431 4.59167 7.45098 4.925 7.45098 5.325V18.675C7.45098 19.075 7.58431 19.4167 7.85098 19.7C8.11764 19.9667 8.44264 20.1 8.82598 20.1H15.176ZM8.25098 12C8.25098 11.3167 8.41764 10.6917 8.75098 10.125C9.08431 9.55833 9.53431 9.10833 10.101 8.775C10.6843 8.44167 11.3176 8.275 12.001 8.275H13.026L14.151 9.4L13.001 10.575H12.001C11.601 10.575 11.2593 10.7167 10.976 11C10.6926 11.2667 10.551 11.6 10.551 12H8.25098ZM15.751 12C15.751 12.6833 15.5843 13.3083 15.251 13.875C14.9176 14.4417 14.4676 14.8917 13.901 15.225C13.3343 15.5583 12.7093 15.725 12.026 15.725H10.976L9.87598 14.575L11.001 13.425H12.026C12.426 13.425 12.7593 13.2917 13.026 13.025C13.3093 12.7417 13.451 12.4 13.451 12H15.751Z" fill="black"/>
</g>
<defs>
<clipPath id="clip0_3208_20963">
<rect width="24" height="24" fill="white"/>
</clipPath>
</defs>
</svg>
