<svg width="24" height="24" viewBox="0 0 24 24" fill="none" xmlns="http://www.w3.org/2000/svg">
<g clip-path="url(#clip0_3207_20681)">
<rect width="24" height="24" fill="white"/>
<path d="M17.2505 22.525C16.7172 22.8417 16.1338 23 15.5005 23H8.50049C7.86716 23 7.27549 22.8417 6.72549 22.525C6.19216 22.225 5.76716 21.8 5.45049 21.25C5.15049 20.7167 5.00049 20.1333 5.00049 19.5V4.5C5.00049 3.86667 5.15049 3.28333 5.45049 2.75C5.76716 2.2 6.19216 1.775 6.72549 1.475C7.27549 1.15833 7.86716 1 8.50049 1H15.5005C16.1338 1 16.7172 1.15833 17.2505 1.475C17.8005 1.775 18.2255 2.2 18.5255 2.75C18.8422 3.28333 19.0005 3.86667 19.0005 4.5V19.5C19.0005 20.1333 18.8422 20.7167 18.5255 21.25C18.2255 21.8 17.8005 22.225 17.2505 22.525ZM13.2755 8.775V6.85H10.7255V8.775L9.90049 9.3L8.17549 8.3L6.90049 10.575L8.60049 11.55V12.45L6.90049 13.475L8.20049 15.7L9.90049 14.725L10.7255 15.225V17.15H13.2755V15.225L14.1005 14.7L15.8255 15.7L17.1005 13.425L15.4005 12.45V11.55L17.1005 10.525L15.8005 8.3L14.1005 9.275L13.2755 8.775ZM12.9005 12.925C12.6672 13.1583 12.3672 13.275 12.0005 13.275C11.6338 13.275 11.3255 13.1583 11.0755 12.925C10.8422 12.675 10.7255 12.3667 10.7255 12C10.7255 11.6333 10.8422 11.3333 11.0755 11.1C11.3255 10.85 11.6338 10.725 12.0005 10.725C12.3672 10.725 12.6672 10.85 12.9005 11.1C13.1505 11.3333 13.2755 11.6333 13.2755 12C13.2755 12.3667 13.1505 12.675 12.9005 12.925Z" fill="black"/>
</g>
<defs>
<clipPath id="clip0_3207_20681">
<rect width="24" height="24" fill="white"/>
</clipPath>
</defs>
</svg>
