<svg width="24" height="24" viewBox="0 0 24 24" fill="none" xmlns="http://www.w3.org/2000/svg">
<g clip-path="url(#clip0_3207_20685)">
<rect width="24" height="24" fill="white"/>
<path d="M17.2505 23.025C16.7172 23.3417 16.1338 23.5 15.5005 23.5H8.50049C7.86716 23.5 7.27549 23.3417 6.72549 23.025C6.19216 22.725 5.76716 22.3 5.45049 21.75C5.15049 21.2167 5.00049 20.6333 5.00049 20V4C5.00049 3.36667 5.15049 2.78333 5.45049 2.25C5.76716 1.7 6.19216 1.275 6.72549 0.974999C7.27549 0.658332 7.86716 0.499999 8.50049 0.499999H15.5005C16.1338 0.499999 16.7172 0.658332 17.2505 0.974999C17.8005 1.275 18.2255 1.7 18.5255 2.25C18.8422 2.78333 19.0005 3.36667 19.0005 4V20C19.0005 20.6333 18.8422 21.2167 18.5255 21.75C18.2255 22.3 17.8005 22.725 17.2505 23.025ZM13.2755 8.775V6.85H10.7255V8.775L9.90049 9.3L8.17549 8.3L6.90049 10.575L8.60049 11.55V12.45L6.90049 13.475L8.20049 15.7L9.90049 14.725L10.7255 15.225V17.15H13.2755V15.225L14.1005 14.7L15.8255 15.7L17.1005 13.425L15.4005 12.45V11.55L17.1005 10.525L15.8005 8.3L14.1005 9.275L13.2755 8.775ZM12.9505 12.975C12.7005 13.225 12.3838 13.35 12.0005 13.35C11.6172 13.35 11.2922 13.225 11.0255 12.975C10.7755 12.7083 10.6505 12.3833 10.6505 12C10.6505 11.6167 10.7755 11.3 11.0255 11.05C11.2922 10.7833 11.6172 10.65 12.0005 10.65C12.3838 10.65 12.7005 10.7833 12.9505 11.05C13.2172 11.3 13.3505 11.6167 13.3505 12C13.3505 12.3833 13.2172 12.7083 12.9505 12.975Z" fill="black"/>
</g>
<defs>
<clipPath id="clip0_3207_20685">
<rect width="24" height="24" fill="white"/>
</clipPath>
</defs>
</svg>
