<svg width="24" height="24" viewBox="0 0 24 24" fill="none" xmlns="http://www.w3.org/2000/svg">
<g clip-path="url(#clip0_3207_20689)">
<rect width="24" height="24" fill="white"/>
<path d="M17.2505 22.525C16.7172 22.8417 16.1338 23 15.5005 23H8.50049C7.86716 23 7.27549 22.8417 6.72549 22.525C6.19216 22.225 5.76716 21.8 5.45049 21.25C5.15049 20.7167 5.00049 20.1333 5.00049 19.5V4.5C5.00049 3.86667 5.15049 3.28333 5.45049 2.75C5.76716 2.2 6.19216 1.775 6.72549 1.475C7.27549 1.15833 7.86716 1 8.50049 1H15.5005C16.1338 1 16.7172 1.15833 17.2505 1.475C17.8005 1.775 18.2255 2.2 18.5255 2.75C18.8422 3.28333 19.0005 3.86667 19.0005 4.5V19.5C19.0005 20.1333 18.8422 20.7167 18.5255 21.25C18.2255 21.8 17.8005 22.225 17.2505 22.525ZM13.3505 8.775V6.85H10.6505V8.775L9.95049 9.225L8.22549 8.225L6.85049 10.65L8.55049 11.625V12.375L6.85049 13.4L8.25049 15.775L9.95049 14.8L10.6505 15.225V17.15H13.3505V15.225L14.0505 14.775L15.7755 15.775L17.1505 13.35L15.4505 12.375V11.625L17.1505 10.6L15.7505 8.225L14.0505 9.2L13.3505 8.775ZM13.0505 13.05C12.7838 13.3333 12.4338 13.475 12.0005 13.475C11.5838 13.475 11.2338 13.3333 10.9505 13.05C10.6672 12.7667 10.5255 12.4167 10.5255 12C10.5255 11.5667 10.6672 11.2167 10.9505 10.95C11.2338 10.6667 11.5838 10.525 12.0005 10.525C12.4338 10.525 12.7838 10.6667 13.0505 10.95C13.3338 11.2167 13.4755 11.5667 13.4755 12C13.4755 12.4167 13.3338 12.7667 13.0505 13.05Z" fill="black"/>
</g>
<defs>
<clipPath id="clip0_3207_20689">
<rect width="24" height="24" fill="white"/>
</clipPath>
</defs>
</svg>
