<svg width="24" height="24" viewBox="0 0 24 24" fill="none" xmlns="http://www.w3.org/2000/svg">
<g clip-path="url(#clip0_3208_21253)">
<rect width="24" height="24" fill="white"/>
<path d="M17.2505 23.025C16.7172 23.3417 16.1338 23.5 15.5005 23.5H8.50049C7.86716 23.5 7.27549 23.3417 6.72549 23.025C6.19216 22.725 5.76716 22.3 5.45049 21.75C5.15049 21.2167 5.00049 20.6333 5.00049 20V4C5.00049 3.36667 5.15049 2.78333 5.45049 2.25C5.76716 1.7 6.19216 1.275 6.72549 0.974999C7.27549 0.658332 7.86716 0.499999 8.50049 0.499999H15.5005C16.1338 0.499999 16.7172 0.658332 17.2505 0.974999C17.8005 1.275 18.2255 1.7 18.5255 2.25C18.8422 2.78333 19.0005 3.36667 19.0005 4V20C19.0005 20.6333 18.8422 21.2167 18.5255 21.75C18.2255 22.3 17.8005 22.725 17.2505 23.025ZM15.6505 14.375C16.0338 13.725 16.2255 13.0167 16.2255 12.25H15.7255C15.7255 12.9167 15.5588 13.5417 15.2255 14.125C14.8922 14.6917 14.4338 15.1417 13.8505 15.475C13.2838 15.8083 12.6672 15.975 12.0005 15.975C11.3338 15.975 10.7088 15.8083 10.1255 15.475C9.55882 15.1417 9.10882 14.6917 8.77549 14.125C8.44216 13.5417 8.27549 12.9167 8.27549 12.25C8.27549 11.5833 8.44216 10.9667 8.77549 10.4C9.10882 9.81667 9.55882 9.35833 10.1255 9.025C10.6922 8.69167 11.3172 8.525 12.0005 8.525H14.0755L11.8755 10.7L12.2255 11.05L15.0005 8.275L12.2255 5.525L11.8755 5.875L14.1005 8.05H12.0005C11.2172 8.05 10.5005 8.24167 9.85049 8.625C9.20049 8.99167 8.69216 9.5 8.32549 10.15C7.95882 10.7833 7.77549 11.4833 7.77549 12.25C7.77549 13.0167 7.95882 13.725 8.32549 14.375C8.70882 15.0083 9.22549 15.5167 9.87549 15.9C10.5255 16.2667 11.2338 16.45 12.0005 16.45C12.7838 16.45 13.4922 16.2667 14.1255 15.9C14.7755 15.5167 15.2838 15.0083 15.6505 14.375Z" fill="black"/>
</g>
<defs>
<clipPath id="clip0_3208_21253">
<rect width="24" height="24" fill="white"/>
</clipPath>
</defs>
</svg>
