<svg width="24" height="24" viewBox="0 0 24 24" fill="none" xmlns="http://www.w3.org/2000/svg">
<g clip-path="url(#clip0_3208_20975)">
<rect width="24" height="24" fill="white"/>
<path d="M17.2505 23.025C16.7172 23.3417 16.1338 23.5 15.5005 23.5H8.50049C7.86716 23.5 7.27549 23.3417 6.72549 23.025C6.19216 22.725 5.76716 22.3 5.45049 21.75C5.15049 21.2167 5.00049 20.6333 5.00049 20V4C5.00049 3.36667 5.15049 2.78333 5.45049 2.25C5.76716 1.7 6.19216 1.275 6.72549 0.974999C7.27549 0.658332 7.86716 0.499999 8.50049 0.499999H15.5005C16.1338 0.499999 16.7172 0.658332 17.2505 0.974999C17.8005 1.275 18.2255 1.7 18.5255 2.25C18.8422 2.78333 19.0005 3.36667 19.0005 4V20C19.0005 20.6333 18.8422 21.2167 18.5255 21.75C18.2255 22.3 17.8005 22.725 17.2505 23.025ZM8.12549 9.775C7.74216 10.4417 7.55049 11.1833 7.55049 12H9.87549C9.87549 11.6167 9.96716 11.2667 10.1505 10.95C10.3338 10.6167 10.5838 10.3583 10.9005 10.175C11.2338 9.975 11.6005 9.875 12.0005 9.875H12.4255H12.7505H13.1255L14.3255 8.725L13.1755 7.575H12.7505H12.4505H12.0005C11.1838 7.575 10.4338 7.775 9.75049 8.175C9.06716 8.55833 8.52549 9.09167 8.12549 9.775ZM9.70049 15.275L10.8255 16.425H11.2755H11.5505H12.0005C12.8172 16.425 13.5672 16.2333 14.2505 15.85C14.9338 15.45 15.4672 14.9167 15.8505 14.25C16.2505 13.5667 16.4505 12.8167 16.4505 12H14.1255C14.1255 12.3833 14.0338 12.7417 13.8505 13.075C13.6672 13.3917 13.4088 13.65 13.0755 13.85C12.7588 14.0333 12.4005 14.125 12.0005 14.125H11.5505H11.2755H10.8755L9.70049 15.275Z" fill="black"/>
</g>
<defs>
<clipPath id="clip0_3208_20975">
<rect width="24" height="24" fill="white"/>
</clipPath>
</defs>
</svg>
