<svg width="24" height="24" viewBox="0 0 24 24" fill="none" xmlns="http://www.w3.org/2000/svg">
<g clip-path="url(#clip0_3208_20973)">
<rect width="24" height="24" fill="white"/>
<path d="M17.2505 22.525C16.7172 22.8417 16.1338 23 15.5005 23H8.50049C7.86716 23 7.27549 22.8417 6.72549 22.525C6.19216 22.225 5.76716 21.8 5.45049 21.25C5.15049 20.7167 5.00049 20.1333 5.00049 19.5V4.5C5.00049 3.86667 5.15049 3.28333 5.45049 2.75C5.76716 2.2 6.19216 1.775 6.72549 1.475C7.27549 1.15833 7.86716 1 8.50049 1H15.5005C16.1338 1 16.7172 1.15833 17.2505 1.475C17.8005 1.775 18.2255 2.2 18.5255 2.75C18.8422 3.28333 19.0005 3.86667 19.0005 4.5V19.5C19.0005 20.1333 18.8422 20.7167 18.5255 21.25C18.2255 21.8 17.8005 22.225 17.2505 22.525ZM8.30049 9.875C7.93382 10.525 7.75049 11.2333 7.75049 12H9.75049C9.75049 11.5833 9.85049 11.2083 10.0505 10.875C10.2505 10.525 10.5172 10.25 10.8505 10.05C11.2005 9.85 11.5838 9.75 12.0005 9.75H12.3255H12.6755H13.1505L14.1755 8.775L13.2005 7.775H12.6755H12.3255H12.0005C11.2172 7.775 10.5005 7.96667 9.85049 8.35C9.20049 8.71667 8.68382 9.225 8.30049 9.875ZM9.85049 15.225L10.8005 16.225H11.3005H11.6005H12.0005C12.7838 16.225 13.5005 16.0417 14.1505 15.675C14.8005 15.2917 15.3088 14.775 15.6755 14.125C16.0588 13.475 16.2505 12.7667 16.2505 12H14.2505C14.2505 12.4167 14.1505 12.8 13.9505 13.15C13.7505 13.4833 13.4755 13.75 13.1255 13.95C12.7922 14.15 12.4172 14.25 12.0005 14.25H11.6005H11.3005H10.8505L9.85049 15.225Z" fill="black"/>
</g>
<defs>
<clipPath id="clip0_3208_20973">
<rect width="24" height="24" fill="white"/>
</clipPath>
</defs>
</svg>
