<svg width="24" height="24" viewBox="0 0 24 24" fill="none" xmlns="http://www.w3.org/2000/svg">
<g clip-path="url(#clip0_3208_21249)">
<rect width="24" height="24" fill="white"/>
<path d="M8.82598 23C8.02598 23 7.29264 22.8083 6.62598 22.425C5.97598 22.0417 5.45931 21.525 5.07598 20.875C4.69264 20.2083 4.50098 19.475 4.50098 18.675V5.325C4.50098 4.525 4.69264 3.8 5.07598 3.15C5.45931 2.48333 5.97598 1.95833 6.62598 1.575C7.29264 1.19167 8.02598 1 8.82598 1H15.176C15.976 1 16.701 1.19167 17.351 1.575C18.0176 1.95833 18.5426 2.48333 18.926 3.15C19.3093 3.8 19.501 4.525 19.501 5.325V18.675C19.501 19.475 19.3093 20.2083 18.926 20.875C18.5426 21.525 18.0176 22.0417 17.351 22.425C16.701 22.8083 15.976 23 15.176 23H8.82598ZM15.176 20.1C15.5593 20.1 15.8843 19.9667 16.151 19.7C16.4176 19.4167 16.551 19.075 16.551 18.675V5.325C16.551 4.925 16.4176 4.59167 16.151 4.325C15.8843 4.04167 15.5593 3.9 15.176 3.9H8.82598C8.44264 3.9 8.11764 4.04167 7.85098 4.325C7.58431 4.59167 7.45098 4.925 7.45098 5.325V18.675C7.45098 19.075 7.58431 19.4167 7.85098 19.7C8.11764 19.9667 8.44264 20.1 8.82598 20.1H15.176ZM15.751 12.375C15.751 13.0583 15.5843 13.6833 15.251 14.25C14.9176 14.8167 14.4593 15.2667 13.876 15.6C13.3093 15.9333 12.6843 16.1 12.001 16.1C11.3176 16.1 10.6843 15.9333 10.101 15.6C9.53431 15.2667 9.08431 14.8167 8.75098 14.25C8.41764 13.6833 8.25098 13.0583 8.25098 12.375C8.25098 11.6917 8.41764 11.0667 8.75098 10.5C9.08431 9.93333 9.53431 9.48333 10.101 9.15C10.6843 8.81667 11.3176 8.65 12.001 8.65H12.551L12.426 10.775H12.001C11.551 10.775 11.1676 10.925 10.851 11.225C10.551 11.525 10.401 11.9083 10.401 12.375C10.401 12.675 10.4676 12.95 10.601 13.2C10.751 13.4333 10.9426 13.625 11.176 13.775C11.426 13.9083 11.701 13.975 12.001 13.975C12.301 13.975 12.5676 13.9083 12.801 13.775C13.051 13.625 13.2426 13.4333 13.376 13.2C13.526 12.95 13.601 12.675 13.601 12.375H15.751ZM12.001 10.375V9.7V9.05V6.675L15.501 9.7L12.001 12.75V10.375Z" fill="black"/>
</g>
<defs>
<clipPath id="clip0_3208_21249">
<rect width="24" height="24" fill="white"/>
</clipPath>
</defs>
</svg>
