<svg width="24" height="24" viewBox="0 0 24 24" fill="none" xmlns="http://www.w3.org/2000/svg">
<g clip-path="url(#clip0_3207_20689)">
<rect width="24" height="24" fill="white"/>
<path d="M17.2505 23.025C16.7172 23.3417 16.1338 23.5 15.5005 23.5H8.50049C7.86716 23.5 7.27549 23.3417 6.72549 23.025C6.19216 22.725 5.76716 22.3 5.45049 21.75C5.15049 21.2167 5.00049 20.6333 5.00049 20V4C5.00049 3.36667 5.15049 2.78333 5.45049 2.25C5.76716 1.7 6.19216 1.275 6.72549 0.974999C7.27549 0.658332 7.86716 0.499999 8.50049 0.499999H15.5005C16.1338 0.499999 16.7172 0.658332 17.2505 0.974999C17.8005 1.275 18.2255 1.7 18.5255 2.25C18.8422 2.78333 19.0005 3.36667 19.0005 4V20C19.0005 20.6333 18.8422 21.2167 18.5255 21.75C18.2255 22.3 17.8005 22.725 17.2505 23.025ZM13.3505 8.775V6.85H10.6505V8.775L9.95049 9.225L8.22549 8.225L6.85049 10.65L8.55049 11.625V12.375L6.85049 13.4L8.25049 15.775L9.95049 14.8L10.6505 15.225V17.15H13.3505V15.225L14.0505 14.775L15.7755 15.775L17.1505 13.35L15.4505 12.375V11.625L17.1505 10.6L15.7505 8.225L14.0505 9.2L13.3505 8.775ZM13.0505 13.05C12.7838 13.3333 12.4338 13.475 12.0005 13.475C11.5838 13.475 11.2338 13.3333 10.9505 13.05C10.6672 12.7667 10.5255 12.4167 10.5255 12C10.5255 11.5667 10.6672 11.2167 10.9505 10.95C11.2338 10.6667 11.5838 10.525 12.0005 10.525C12.4338 10.525 12.7838 10.6667 13.0505 10.95C13.3338 11.2167 13.4755 11.5667 13.4755 12C13.4755 12.4167 13.3338 12.7667 13.0505 13.05Z" fill="black"/>
</g>
<defs>
<clipPath id="clip0_3207_20689">
<rect width="24" height="24" fill="white"/>
</clipPath>
</defs>
</svg>
