<svg width="24" height="24" viewBox="0 0 24 24" fill="none" xmlns="http://www.w3.org/2000/svg">
<g clip-path="url(#clip0_3208_20961)">
<rect width="24" height="24" fill="white"/>
<path d="M8.75098 22.825C7.98431 22.825 7.27598 22.6417 6.62598 22.275C5.99264 21.9083 5.49264 21.4083 5.12598 20.775C4.75931 20.1417 4.57598 19.4417 4.57598 18.675V5.325C4.57598 4.55833 4.75931 3.85833 5.12598 3.225C5.49264 2.59167 5.99264 2.09167 6.62598 1.725C7.27598 1.35833 7.98431 1.175 8.75098 1.175H15.251C16.0176 1.175 16.7176 1.35833 17.351 1.725C18.001 2.09167 18.5093 2.59167 18.876 3.225C19.2426 3.85833 19.426 4.55833 19.426 5.325V18.675C19.426 19.4417 19.2426 20.1417 18.876 20.775C18.5093 21.4083 18.001 21.9083 17.351 22.275C16.7176 22.6417 16.0176 22.825 15.251 22.825H8.75098ZM15.251 20.45C15.7343 20.45 16.1426 20.2833 16.476 19.95C16.8093 19.6 16.976 19.175 16.976 18.675V5.325C16.976 4.825 16.8093 4.40833 16.476 4.075C16.1426 3.725 15.7343 3.55 15.251 3.55H8.75098C8.26764 3.55 7.85931 3.725 7.52598 4.075C7.19264 4.40833 7.02598 4.825 7.02598 5.325V18.675C7.02598 19.175 7.19264 19.6 7.52598 19.95C7.85931 20.2833 8.26764 20.45 8.75098 20.45H15.251ZM8.22598 12.025C8.22598 11.325 8.39264 10.6917 8.72598 10.125C9.05931 9.54167 9.51764 9.08333 10.101 8.75C10.6843 8.41667 11.326 8.25 12.026 8.25H12.976L14.076 9.35L12.976 10.425H12.026C11.576 10.425 11.1926 10.5833 10.876 10.9C10.576 11.2 10.426 11.575 10.426 12.025H8.22598ZM15.801 12C15.801 12.6833 15.626 13.3167 15.276 13.9C14.9426 14.4667 14.4843 14.925 13.901 15.275C13.3343 15.6083 12.701 15.775 12.001 15.775H11.026L9.97598 14.675L11.051 13.6H12.001C12.451 13.6 12.826 13.45 13.126 13.15C13.4426 12.8333 13.601 12.45 13.601 12H15.801Z" fill="black"/>
</g>
<defs>
<clipPath id="clip0_3208_20961">
<rect width="24" height="24" fill="white"/>
</clipPath>
</defs>
</svg>
