<svg width="24" height="24" viewBox="0 0 24 24" fill="none" xmlns="http://www.w3.org/2000/svg">
<g clip-path="url(#clip0_3208_21241)">
<rect width="24" height="24" fill="white"/>
<path d="M8.67598 23C7.99264 23 7.36764 22.8333 6.80098 22.5C6.25098 22.1833 5.80931 21.7417 5.47598 21.175C5.15931 20.625 5.00098 20.0083 5.00098 19.325V4.675C5.00098 3.99167 5.15931 3.36667 5.47598 2.8C5.80931 2.23333 6.25098 1.79167 6.80098 1.475C7.36764 1.15833 7.99264 1 8.67598 1H15.326C16.0093 1 16.6343 1.15833 17.201 1.475C17.7676 1.79167 18.2093 2.23333 18.526 2.8C18.8426 3.36667 19.001 3.99167 19.001 4.675V19.325C19.001 20.0083 18.8426 20.625 18.526 21.175C18.2093 21.7417 17.7676 22.1833 17.201 22.5C16.6343 22.8333 16.0093 23 15.326 23H8.67598ZM15.326 22.075C16.0926 22.075 16.7343 21.8083 17.251 21.275C17.7843 20.7417 18.051 20.0917 18.051 19.325V4.675C18.051 3.90833 17.7843 3.25833 17.251 2.725C16.7343 2.19167 16.0926 1.925 15.326 1.925H8.67598C7.90931 1.925 7.25931 2.19167 6.72598 2.725C6.20931 3.25833 5.95098 3.90833 5.95098 4.675V19.325C5.95098 20.0917 6.20931 20.7417 6.72598 21.275C7.25931 21.8083 7.90931 22.075 8.67598 22.075H15.326ZM15.776 12.375C15.776 13.0583 15.6093 13.6917 15.276 14.275C14.9426 14.8417 14.4843 15.2917 13.901 15.625C13.3343 15.9583 12.701 16.125 12.001 16.125C11.301 16.125 10.6593 15.9583 10.076 15.625C9.50931 15.2917 9.05931 14.8417 8.72598 14.275C8.39264 13.6917 8.22598 13.0583 8.22598 12.375C8.22598 11.6917 8.39264 11.0667 8.72598 10.5C9.05931 9.91667 9.50931 9.45833 10.076 9.125C10.6593 8.79167 11.301 8.625 12.001 8.625H14.051L14.026 9.475H12.001C11.201 9.475 10.5176 9.75833 9.95098 10.325C9.38431 10.875 9.10098 11.5583 9.10098 12.375C9.10098 12.9083 9.22598 13.4 9.47598 13.85C9.74264 14.2833 10.0926 14.6333 10.526 14.9C10.976 15.15 11.4676 15.275 12.001 15.275C12.5343 15.275 13.0176 15.15 13.451 14.9C13.901 14.6333 14.251 14.2833 14.501 13.85C14.7676 13.4 14.901 12.9083 14.901 12.375H15.776ZM11.401 11.2L13.751 9.05L11.401 6.875L12.026 6.275L14.801 9.05L12.026 11.8L11.401 11.2Z" fill="black"/>
</g>
<defs>
<clipPath id="clip0_3208_21241">
<rect width="24" height="24" fill="white"/>
</clipPath>
</defs>
</svg>
