<svg width="24" height="24" viewBox="0 0 24 24" fill="none" xmlns="http://www.w3.org/2000/svg">
<g clip-path="url(#clip0_3208_21247)">
<rect width="24" height="24" fill="white"/>
<path d="M8.92598 23C8.15931 23 7.45098 22.8167 6.80098 22.45C6.16764 22.0833 5.66764 21.5833 5.30098 20.95C4.93431 20.3 4.75098 19.5917 4.75098 18.825V5.175C4.75098 4.40833 4.93431 3.70833 5.30098 3.075C5.66764 2.425 6.16764 1.91667 6.80098 1.55C7.45098 1.18333 8.15931 1 8.92598 1H15.076C15.8426 1 16.5426 1.18333 17.176 1.55C17.826 1.91667 18.3343 2.425 18.701 3.075C19.0676 3.70833 19.251 4.40833 19.251 5.175V18.825C19.251 19.5917 19.0676 20.3 18.701 20.95C18.3343 21.5833 17.826 22.0833 17.176 22.45C16.5426 22.8167 15.8426 23 15.076 23H8.92598ZM15.076 20.65C15.576 20.65 15.9926 20.475 16.326 20.125C16.676 19.775 16.851 19.3417 16.851 18.825V5.175C16.851 4.65833 16.676 4.225 16.326 3.875C15.9926 3.525 15.576 3.35 15.076 3.35H8.92598C8.42598 3.35 8.00098 3.525 7.65098 3.875C7.31764 4.225 7.15098 4.65833 7.15098 5.175V18.825C7.15098 19.3417 7.31764 19.775 7.65098 20.125C8.00098 20.475 8.42598 20.65 8.92598 20.65H15.076ZM15.751 12.375C15.751 13.0417 15.5843 13.6667 15.251 14.25C14.9176 14.8167 14.4593 15.2667 13.876 15.6C13.3093 15.9333 12.6843 16.1 12.001 16.1C11.3176 16.1 10.6843 15.9333 10.101 15.6C9.53431 15.2667 9.08431 14.8167 8.75098 14.25C8.41764 13.6667 8.25098 13.0417 8.25098 12.375C8.25098 11.6917 8.41764 11.0667 8.75098 10.5C9.08431 9.93333 9.53431 9.48333 10.101 9.15C10.6843 8.81667 11.3176 8.65 12.001 8.65H12.551L12.476 10.525H12.001C11.4843 10.525 11.0426 10.7 10.676 11.05C10.326 11.4 10.151 11.8417 10.151 12.375C10.151 12.725 10.226 13.0417 10.376 13.325C10.5426 13.6083 10.7676 13.8333 11.051 14C11.3343 14.15 11.651 14.225 12.001 14.225C12.351 14.225 12.6676 14.15 12.951 14C13.2343 13.8333 13.451 13.6083 13.601 13.325C13.7676 13.0417 13.851 12.725 13.851 12.375H15.751ZM12.001 10.275V9.6V8.9V6.575L15.251 9.6L12.001 12.6V10.275Z" fill="black"/>
</g>
<defs>
<clipPath id="clip0_3208_21247">
<rect width="24" height="24" fill="white"/>
</clipPath>
</defs>
</svg>
