<svg width="24" height="24" viewBox="0 0 24 24" fill="none" xmlns="http://www.w3.org/2000/svg">
<g clip-path="url(#clip0_3437_170)">
<rect width="24" height="24" fill="white"/>
<path d="M21.2755 18.775C20.7922 19.2583 20.2005 19.5 19.5005 19.5H4.50049C3.80049 19.5 3.20882 19.2583 2.72549 18.775C2.24216 18.2917 2.00049 17.7 2.00049 17V9.2H20.3005L2.37549 3.9L2.75049 2.575L22.0005 8.275V17C22.0005 17.7 21.7588 18.2917 21.2755 18.775ZM4.57549 13.05C4.79216 13.2667 5.04216 13.375 5.32549 13.375C5.62549 13.375 5.88382 13.2667 6.10049 13.05C6.31716 12.8333 6.42549 12.575 6.42549 12.275C6.42549 11.975 6.31716 11.725 6.10049 11.525C5.88382 11.3083 5.62549 11.2 5.32549 11.2C5.02549 11.2 4.76716 11.3083 4.55049 11.525C4.35049 11.725 4.25049 11.975 4.25049 12.275C4.25049 12.575 4.35882 12.8333 4.57549 13.05Z" fill="black"/>
</g>
<defs>
<clipPath id="clip0_3437_170">
<rect width="24" height="24" fill="white"/>
</clipPath>
</defs>
</svg>
