<svg width="24" height="24" viewBox="0 0 24 24" fill="none" xmlns="http://www.w3.org/2000/svg">
<g clip-path="url(#clip0_3437_176)">
<rect width="24" height="24" fill="white"/>
<path d="M21.2755 18.775C20.7922 19.2583 20.2005 19.5 19.5005 19.5H4.50049C3.80049 19.5 3.20882 19.2583 2.72549 18.775C2.24216 18.2917 2.00049 17.7 2.00049 17V9.5H16.1255L1.95049 5.4L2.75049 2.575L22.0005 8.275V17C22.0005 17.7 21.7588 18.2917 21.2755 18.775ZM5.00049 15C5.38382 15.3833 5.84216 15.575 6.37549 15.575C6.90882 15.575 7.36715 15.3833 7.75049 15C8.13382 14.6167 8.32549 14.1583 8.32549 13.625C8.32549 13.075 8.13382 12.6167 7.75049 12.25C7.38382 11.8667 6.92549 11.675 6.37549 11.675C5.84216 11.675 5.38382 11.8667 5.00049 12.25C4.61715 12.6333 4.42549 13.0917 4.42549 13.625C4.42549 14.1583 4.61715 14.6167 5.00049 15Z" fill="black"/>
</g>
<defs>
<clipPath id="clip0_3437_176">
<rect width="24" height="24" fill="white"/>
</clipPath>
</defs>
</svg>
