<svg width="24" height="24" viewBox="0 0 24 24" fill="none" xmlns="http://www.w3.org/2000/svg">
<g clip-path="url(#clip0_3437_164)">
<rect width="24" height="24" fill="white"/>
<path d="M5.50098 19.5C4.86764 19.5 4.27598 19.35 3.72598 19.05C3.19264 18.7333 2.76764 18.3083 2.45098 17.775C2.15098 17.225 2.00098 16.6333 2.00098 16V10.525H22.001V16C22.001 16.6333 21.8426 17.225 21.526 17.775C21.226 18.3083 20.8093 18.7333 20.276 19.05C19.7426 19.35 19.151 19.5 18.501 19.5H5.50098ZM18.326 15.975C18.3426 15.975 18.3593 15.9667 18.376 15.95C18.3926 15.9333 18.401 15.9167 18.401 15.9V14.075H5.60098V15.9C5.60098 15.9167 5.60931 15.9333 5.62598 15.95C5.64264 15.9667 5.65931 15.975 5.67598 15.975H18.326ZM2.92598 2.65L22.001 8.275V11.75L1.97598 6.025L2.92598 2.65ZM3.72598 12.95C3.47598 12.95 3.25931 12.8583 3.07598 12.675C2.89264 12.4917 2.80098 12.275 2.80098 12.025C2.80098 11.775 2.89264 11.5583 3.07598 11.375C3.25931 11.1917 3.47598 11.1 3.72598 11.1C3.99264 11.1 4.21764 11.1917 4.40098 11.375C4.58431 11.5583 4.67598 11.775 4.67598 12.025C4.67598 12.275 4.58431 12.4917 4.40098 12.675C4.21764 12.8583 3.99264 12.95 3.72598 12.95Z" fill="black"/>
</g>
<defs>
<clipPath id="clip0_3437_164">
<rect width="24" height="24" fill="white"/>
</clipPath>
</defs>
</svg>
