<svg width="24" height="24" viewBox="0 0 24 24" fill="none" xmlns="http://www.w3.org/2000/svg">
<g clip-path="url(#clip0_3437_168)">
<rect width="24" height="24" fill="white"/>
<path d="M21.2505 18.775C20.7672 19.2583 20.1838 19.5 19.5005 19.5H4.50049C3.81716 19.5 3.22549 19.2583 2.72549 18.775C2.24216 18.275 2.00049 17.6833 2.00049 17V8.9H20.8755L2.50049 3.475L2.75049 2.575L22.0005 8.275V17C22.0005 17.6833 21.7505 18.275 21.2505 18.775ZM4.47549 12.25C4.64216 12.4 4.83382 12.475 5.05049 12.475C5.26716 12.475 5.45049 12.4 5.60049 12.25C5.75049 12.1 5.82549 11.9167 5.82549 11.7C5.82549 11.4667 5.75049 11.275 5.60049 11.125C5.45049 10.975 5.26716 10.9 5.05049 10.9C4.81716 10.9 4.62549 10.9833 4.47549 11.15C4.32549 11.3 4.25049 11.4833 4.25049 11.7C4.25049 11.9 4.32549 12.0833 4.47549 12.25Z" fill="black"/>
</g>
<defs>
<clipPath id="clip0_3437_168">
<rect width="24" height="24" fill="white"/>
</clipPath>
</defs>
</svg>
