<svg width="24" height="24" viewBox="0 0 24 24" fill="none" xmlns="http://www.w3.org/2000/svg">
<g clip-path="url(#clip0_3394_11728)">
<rect width="24" height="24" fill="white"/>
<path d="M19.9255 8.575C19.9255 9.075 19.7505 9.5 19.4005 9.85C19.0505 10.2 18.6255 10.375 18.1255 10.375H5.87549C5.54216 10.375 5.23382 10.3 4.95049 10.15C4.68382 9.98333 4.46716 9.76667 4.30049 9.5C4.15049 9.21667 4.07549 8.90833 4.07549 8.575V5.525H5.02549V8.55C5.02549 8.8 5.10882 9.01667 5.27549 9.2C5.45882 9.36667 5.67549 9.45 5.92549 9.45H18.0755C18.3255 9.45 18.5338 9.36667 18.7005 9.2C18.8838 9.01667 18.9755 8.8 18.9755 8.55V5.525H19.9255V8.575ZM7.70049 16.525L5.87549 19.5H4.77549L6.60049 16.525H7.70049ZM19.4505 19.5H18.3755L16.5505 16.525H17.6255L19.4505 19.5ZM9.17549 5V5.925H0.000488281V5H9.17549ZM24.0005 5V5.925H14.8255V5H24.0005ZM17.7255 17H6.50049V10.1H7.42549V16.075H16.8005V10.1H17.7255V17Z" fill="black"/>
</g>
<defs>
<clipPath id="clip0_3394_11728">
<rect width="24" height="24" fill="white"/>
</clipPath>
</defs>
</svg>
