<svg width="24" height="24" viewBox="0 0 24 24" fill="none" xmlns="http://www.w3.org/2000/svg">
<g clip-path="url(#clip0_3374_5162)">
<rect width="24" height="24" fill="white"/>
<path d="M17.125 8.725C17.6083 8.725 18.025 8.54167 18.375 8.175C18.7417 7.80833 18.925 7.375 18.925 6.875C18.925 6.375 18.7417 5.94167 18.375 5.575C18.025 5.20833 17.6083 5.025 17.125 5.025C16.6417 5.025 16.2167 5.20833 15.85 5.575C15.5 5.94167 15.325 6.375 15.325 6.875C15.325 7.375 15.5 7.80833 15.85 8.175C16.2167 8.54167 16.6417 8.725 17.125 8.725ZM17.125 11.25C16.3417 11.25 15.6083 11.0583 14.925 10.675C14.2583 10.275 13.725 9.74167 13.325 9.075C12.9417 8.39167 12.75 7.65833 12.75 6.875C12.75 6.09167 12.9417 5.36667 13.325 4.7C13.725 4.01667 14.2583 3.48333 14.925 3.1C15.6083 2.7 16.3417 2.5 17.125 2.5C17.9083 2.5 18.6333 2.7 19.3 3.1C19.9833 3.48333 20.5167 4.01667 20.9 4.7C21.3 5.36667 21.5 6.09167 21.5 6.875C21.5 7.65833 21.3 8.39167 20.9 9.075C20.5167 9.74167 19.9833 10.275 19.3 10.675C18.6333 11.0583 17.9083 11.25 17.125 11.25ZM14.025 7.5C14.0083 7.5 13.9917 7.5 13.975 7.5C13.9583 7.5 13.9417 7.5 13.925 7.5C13.925 7.5 13.9167 7.5 13.9 7.5H14.025C14.0417 7.5 14.05 7.5 14.05 7.5C14.0833 7.5 14.1 7.5 14.1 7.5C14.1167 7.5 14.1333 7.5 14.15 7.5C14.15 7.5 14.1417 7.5 14.125 7.5H14.025ZM15.275 7.725V16.275H8.75V7.7L15.275 7.725ZM6.875 8.725C7.35833 8.725 7.775 8.54167 8.125 8.175C8.49167 7.80833 8.675 7.375 8.675 6.875C8.675 6.375 8.49167 5.94167 8.125 5.575C7.775 5.20833 7.35833 5.025 6.875 5.025C6.39167 5.025 5.96667 5.20833 5.6 5.575C5.25 5.94167 5.075 6.375 5.075 6.875C5.075 7.375 5.25 7.80833 5.6 8.175C5.96667 8.54167 6.39167 8.725 6.875 8.725ZM6.875 11.25C6.09167 11.25 5.35833 11.0583 4.675 10.675C4.00833 10.275 3.475 9.74167 3.075 9.075C2.69167 8.39167 2.5 7.65833 2.5 6.875C2.5 6.09167 2.69167 5.36667 3.075 4.7C3.475 4.01667 4.00833 3.48333 4.675 3.1C5.35833 2.7 6.09167 2.5 6.875 2.5C7.65833 2.5 8.38333 2.7 9.05 3.1C9.73333 3.48333 10.2667 4.01667 10.65 4.7C11.05 5.36667 11.25 6.09167 11.25 6.875C11.25 7.65833 11.05 8.39167 10.65 9.075C10.2667 9.74167 9.73333 10.275 9.05 10.675C8.38333 11.0583 7.65833 11.25 6.875 11.25ZM9.925 7.5C9.94167 7.5 9.95 7.5 9.95 7.5C9.93333 7.5 9.91667 7.5 9.9 7.5C9.9 7.5 9.89167 7.5 9.875 7.5C9.85833 7.5 9.84167 7.5 9.825 7.5H9.725C9.70833 7.5 9.7 7.5 9.7 7.5C9.71667 7.5 9.725 7.5 9.725 7.5C9.74167 7.5 9.75833 7.5 9.775 7.5C9.79167 7.5 9.80833 7.5 9.825 7.5H9.925ZM17.125 15.275C16.6417 15.275 16.2167 15.4583 15.85 15.825C15.5 16.1917 15.325 16.625 15.325 17.125C15.325 17.625 15.5 18.0583 15.85 18.425C16.2167 18.7917 16.6417 18.975 17.125 18.975C17.6083 18.975 18.025 18.7917 18.375 18.425C18.7417 18.0583 18.925 17.625 18.925 17.125C18.925 16.625 18.7417 16.1917 18.375 15.825C18.025 15.4583 17.6083 15.275 17.125 15.275ZM17.125 12.75C17.9083 12.75 18.6333 12.95 19.3 13.35C19.9833 13.7333 20.5167 14.2667 20.9 14.95C21.3 15.6167 21.5 16.3417 21.5 17.125C21.5 17.9083 21.3 18.6417 20.9 19.325C20.5167 19.9917 19.9833 20.525 19.3 20.925C18.6333 21.3083 17.9083 21.5 17.125 21.5C16.3417 21.5 15.6083 21.3083 14.925 20.925C14.2583 20.525 13.725 19.9917 13.325 19.325C12.9417 18.6417 12.75 17.9083 12.75 17.125C12.75 16.3417 12.9417 15.6167 13.325 14.95C13.725 14.2667 14.2583 13.7333 14.925 13.35C15.6083 12.95 16.3417 12.75 17.125 12.75ZM14.275 16.5C14.2917 16.5 14.3 16.5 14.3 16.5C14.3167 16.5 14.325 16.5 14.325 16.5C14.2917 16.5 14.2667 16.5 14.25 16.5C14.25 16.5 14.2417 16.5 14.225 16.5C14.225 16.5 14.2167 16.5 14.2 16.5C14.2 16.5 14.1917 16.5 14.175 16.5H14.075C14.0917 16.5 14.1 16.5 14.1 16.5C14.1167 16.5 14.1333 16.5 14.15 16.5C14.1667 16.5 14.175 16.5 14.175 16.5H14.275ZM6.875 15.275C6.39167 15.275 5.96667 15.4583 5.6 15.825C5.25 16.1917 5.075 16.625 5.075 17.125C5.075 17.625 5.25 18.0583 5.6 18.425C5.96667 18.7917 6.39167 18.975 6.875 18.975C7.35833 18.975 7.775 18.7917 8.125 18.425C8.49167 18.0583 8.675 17.625 8.675 17.125C8.675 16.625 8.49167 16.1917 8.125 15.825C7.775 15.4583 7.35833 15.275 6.875 15.275ZM6.875 12.75C7.65833 12.75 8.38333 12.95 9.05 13.35C9.73333 13.7333 10.2667 14.2667 10.65 14.95C11.05 15.6167 11.25 16.3417 11.25 17.125C11.25 17.9083 11.05 18.6417 10.65 19.325C10.2667 19.9917 9.73333 20.525 9.05 20.925C8.38333 21.3083 7.65833 21.5 6.875 21.5C6.09167 21.5 5.35833 21.3083 4.675 20.925C4.00833 20.525 3.475 19.9917 3.075 19.325C2.69167 18.6417 2.5 17.9083 2.5 17.125C2.5 16.3417 2.69167 15.6167 3.075 14.95C3.475 14.2667 4.00833 13.7333 4.675 13.35C5.35833 12.95 6.09167 12.75 6.875 12.75ZM9.825 16.175C9.80833 16.175 9.79167 16.175 9.775 16.175C9.75833 16.175 9.74167 16.175 9.725 16.175C9.725 16.175 9.71667 16.175 9.7 16.175H9.825C9.84167 16.175 9.85 16.175 9.85 16.175C9.88333 16.175 9.9 16.175 9.9 16.175C9.91667 16.175 9.93333 16.175 9.95 16.175C9.95 16.175 9.94167 16.175 9.925 16.175H9.825Z" fill="black"/>
</g>
<defs>
<clipPath id="clip0_3374_5162">
<rect width="24" height="24" fill="white"/>
</clipPath>
</defs>
</svg>
