<svg width="24" height="24" viewBox="0 0 24 24" fill="none" xmlns="http://www.w3.org/2000/svg">
<g clip-path="url(#clip0_3374_5150)">
<rect width="24" height="24" fill="white"/>
<path d="M17.1255 8.225C17.4922 8.225 17.8005 8.1 18.0505 7.85C18.3005 7.58333 18.4255 7.25833 18.4255 6.875C18.4255 6.49167 18.3005 6.175 18.0505 5.925C17.8005 5.65833 17.4922 5.525 17.1255 5.525C16.7588 5.525 16.4505 5.65833 16.2005 5.925C15.9505 6.175 15.8255 6.49167 15.8255 6.875C15.8255 7.25833 15.9505 7.58333 16.2005 7.85C16.4505 8.1 16.7588 8.225 17.1255 8.225ZM17.1255 11.25C16.3422 11.25 15.6088 11.0583 14.9255 10.675C14.2588 10.275 13.7255 9.74167 13.3255 9.075C12.9422 8.39167 12.7505 7.65833 12.7505 6.875C12.7505 6.09167 12.9422 5.36667 13.3255 4.7C13.7255 4.01667 14.2588 3.48333 14.9255 3.1C15.6088 2.7 16.3422 2.5 17.1255 2.5C17.9088 2.5 18.6338 2.7 19.3005 3.1C19.9838 3.48333 20.5172 4.01667 20.9005 4.7C21.3005 5.36667 21.5005 6.09167 21.5005 6.875C21.5005 7.65833 21.3005 8.39167 20.9005 9.075C20.5172 9.74167 19.9838 10.275 19.3005 10.675C18.6338 11.0583 17.9088 11.25 17.1255 11.25ZM14.4505 8.4C14.4338 8.4 14.4172 8.4 14.4005 8.4C14.4005 8.4 14.3922 8.4 14.3755 8.4C14.3422 8.4 14.3172 8.4 14.3005 8.4C14.3005 8.4 14.2838 8.4 14.2505 8.4C14.2672 8.4 14.2755 8.4 14.2755 8.4H14.3255C14.3422 8.4 14.3505 8.4 14.3505 8.4C14.3505 8.4 14.3588 8.4 14.3755 8.4C14.4088 8.4 14.4255 8.4 14.4255 8.4C14.4422 8.4 14.4672 8.4 14.5005 8.4C14.5005 8.4 14.4922 8.4 14.4755 8.4H14.4505ZM11.4505 13.65H12.6005V10.325H11.4505V13.65ZM15.7255 7.275V16.7H8.37549V7.275H15.7255ZM6.87549 8.225C7.24216 8.225 7.55049 8.1 7.80049 7.85C8.05049 7.58333 8.17549 7.25833 8.17549 6.875C8.17549 6.49167 8.05049 6.175 7.80049 5.925C7.55049 5.65833 7.24216 5.525 6.87549 5.525C6.50882 5.525 6.20049 5.65833 5.95049 5.925C5.70049 6.175 5.57549 6.49167 5.57549 6.875C5.57549 7.25833 5.70049 7.58333 5.95049 7.85C6.20049 8.1 6.50882 8.225 6.87549 8.225ZM6.87549 11.25C6.09216 11.25 5.35882 11.0583 4.67549 10.675C4.00882 10.275 3.47549 9.74167 3.07549 9.075C2.69216 8.39167 2.50049 7.65833 2.50049 6.875C2.50049 6.09167 2.69216 5.36667 3.07549 4.7C3.47549 4.01667 4.00882 3.48333 4.67549 3.1C5.35882 2.7 6.09216 2.5 6.87549 2.5C7.65882 2.5 8.38382 2.7 9.05049 3.1C9.73382 3.48333 10.2672 4.01667 10.6505 4.7C11.0505 5.36667 11.2505 6.09167 11.2505 6.875C11.2505 7.65833 11.0505 8.39167 10.6505 9.075C10.2672 9.74167 9.73382 10.275 9.05049 10.675C8.38382 11.0583 7.65882 11.25 6.87549 11.25ZM9.67549 8.4C9.69216 8.4 9.70049 8.4 9.70049 8.4C9.66716 8.4 9.64216 8.4 9.62549 8.4C9.62549 8.4 9.60882 8.4 9.57549 8.4C9.55882 8.4 9.55049 8.4 9.55049 8.4C9.55049 8.4 9.54216 8.4 9.52549 8.4H9.47549C9.47549 8.4 9.46716 8.4 9.45049 8.4C9.48382 8.4 9.50049 8.4 9.50049 8.4C9.51716 8.4 9.54216 8.4 9.57549 8.4C9.59216 8.4 9.60049 8.4 9.60049 8.4C9.61716 8.4 9.63382 8.4 9.65049 8.4H9.67549ZM17.1255 15.775C16.7588 15.775 16.4505 15.9083 16.2005 16.175C15.9505 16.425 15.8255 16.7417 15.8255 17.125C15.8255 17.5083 15.9505 17.8333 16.2005 18.1C16.4505 18.35 16.7588 18.475 17.1255 18.475C17.4922 18.475 17.8005 18.35 18.0505 18.1C18.3005 17.8333 18.4255 17.5083 18.4255 17.125C18.4255 16.7417 18.3005 16.425 18.0505 16.175C17.8005 15.9083 17.4922 15.775 17.1255 15.775ZM17.1255 12.75C17.9088 12.75 18.6338 12.95 19.3005 13.35C19.9838 13.7333 20.5172 14.2667 20.9005 14.95C21.3005 15.6167 21.5005 16.3417 21.5005 17.125C21.5005 17.9083 21.3005 18.6417 20.9005 19.325C20.5172 19.9917 19.9838 20.525 19.3005 20.925C18.6338 21.3083 17.9088 21.5 17.1255 21.5C16.3422 21.5 15.6088 21.3083 14.9255 20.925C14.2588 20.525 13.7255 19.9917 13.3255 19.325C12.9422 18.6417 12.7505 17.9083 12.7505 17.125C12.7505 16.3417 12.9422 15.6167 13.3255 14.95C13.7255 14.2667 14.2588 13.7333 14.9255 13.35C15.6088 12.95 16.3422 12.75 17.1255 12.75ZM14.5255 15.575C14.5422 15.575 14.5505 15.575 14.5505 15.575C14.5172 15.575 14.4922 15.575 14.4755 15.575C14.4755 15.575 14.4588 15.575 14.4255 15.575C14.4088 15.575 14.4005 15.575 14.4005 15.575C14.4005 15.575 14.3922 15.575 14.3755 15.575H14.3255C14.3255 15.575 14.3172 15.575 14.3005 15.575C14.3338 15.575 14.3505 15.575 14.3505 15.575C14.3672 15.575 14.3922 15.575 14.4255 15.575C14.4422 15.575 14.4505 15.575 14.4505 15.575C14.4505 15.575 14.4588 15.575 14.4755 15.575H14.5255ZM6.87549 15.775C6.50882 15.775 6.20049 15.9083 5.95049 16.175C5.70049 16.425 5.57549 16.7417 5.57549 17.125C5.57549 17.5083 5.70049 17.8333 5.95049 18.1C6.20049 18.35 6.50882 18.475 6.87549 18.475C7.24216 18.475 7.55049 18.35 7.80049 18.1C8.05049 17.8333 8.17549 17.5083 8.17549 17.125C8.17549 16.7417 8.05049 16.425 7.80049 16.175C7.55049 15.9083 7.24216 15.775 6.87549 15.775ZM6.87549 12.75C7.65882 12.75 8.38382 12.95 9.05049 13.35C9.73382 13.7333 10.2672 14.2667 10.6505 14.95C11.0505 15.6167 11.2505 16.3417 11.2505 17.125C11.2505 17.9083 11.0505 18.6417 10.6505 19.325C10.2672 19.9917 9.73382 20.525 9.05049 20.925C8.38382 21.3083 7.65882 21.5 6.87549 21.5C6.09216 21.5 5.35882 21.3083 4.67549 20.925C4.00882 20.525 3.47549 19.9917 3.07549 19.325C2.69216 18.6417 2.50049 17.9083 2.50049 17.125C2.50049 16.3417 2.69216 15.6167 3.07549 14.95C3.47549 14.2667 4.00882 13.7333 4.67549 13.35C5.35882 12.95 6.09216 12.75 6.87549 12.75ZM9.65049 15.5C9.63382 15.5 9.61716 15.5 9.60049 15.5C9.60049 15.5 9.59216 15.5 9.57549 15.5C9.54216 15.5 9.51716 15.5 9.50049 15.5C9.50049 15.5 9.48382 15.5 9.45049 15.5C9.45049 15.5 9.45882 15.5 9.47549 15.5H9.52549C9.54216 15.5 9.55049 15.5 9.55049 15.5C9.55049 15.5 9.55882 15.5 9.57549 15.5C9.60882 15.5 9.62549 15.5 9.62549 15.5C9.64216 15.5 9.66716 15.5 9.70049 15.5C9.70049 15.5 9.69216 15.5 9.67549 15.5H9.65049Z" fill="black"/>
</g>
<defs>
<clipPath id="clip0_3374_5150">
<rect width="24" height="24" fill="white"/>
</clipPath>
</defs>
</svg>
