<svg width="24" height="24" viewBox="0 0 24 24" fill="none" xmlns="http://www.w3.org/2000/svg">
<g clip-path="url(#clip0_3394_11740)">
<rect width="24" height="24" fill="white"/>
<path d="M19.75 8.125C19.75 8.625 19.575 9.05 19.225 9.4C18.875 9.75 18.45 9.925 17.95 9.925H6.05C5.71667 9.925 5.40833 9.85 5.125 9.7C4.85833 9.53333 4.64167 9.31667 4.475 9.05C4.325 8.76667 4.25 8.45833 4.25 8.125V5.35H4.75V8.125C4.75 8.49167 4.875 8.80833 5.125 9.075C5.375 9.325 5.68333 9.45 6.05 9.45H17.95C18.3167 9.45 18.625 9.325 18.875 9.075C19.125 8.80833 19.25 8.49167 19.25 8.125V5.35H19.75V8.125ZM7.2 16.525L5.375 19.5H4.8L6.625 16.525H7.2ZM19.55 19.5H18.975L17.15 16.525H17.725L19.55 19.5ZM9.1 5V5.475H0V5H9.1ZM24 5V5.475H14.9V5H24ZM17.85 17H6.5V9.85H17.85V17Z" fill="black"/>
</g>
<defs>
<clipPath id="clip0_3394_11740">
<rect width="24" height="24" fill="white"/>
</clipPath>
</defs>
</svg>
