<svg width="24" height="24" viewBox="0 0 24 24" fill="none" xmlns="http://www.w3.org/2000/svg">
<g clip-path="url(#clip0_3206_14334)">
<rect width="24" height="24" fill="white"/>
<path d="M17.375 9C18.0083 9 18.55 8.775 19 8.325C19.4667 7.85833 19.7 7.29167 19.7 6.625C19.7 5.95833 19.4667 5.4 19 4.95C18.55 4.48333 18.0083 4.25 17.375 4.25C16.7417 4.25 16.1917 4.48333 15.725 4.95C15.275 5.4 15.05 5.95833 15.05 6.625C15.05 7.29167 15.275 7.85833 15.725 8.325C16.1917 8.775 16.7417 9 17.375 9ZM17.375 10.75C16.625 10.75 15.9333 10.5667 15.3 10.2C14.6667 9.83333 14.1667 9.33333 13.8 8.7C13.4333 8.06667 13.25 7.375 13.25 6.625C13.25 5.875 13.4333 5.18333 13.8 4.55C14.1667 3.91667 14.6667 3.41667 15.3 3.05C15.9333 2.68333 16.625 2.5 17.375 2.5C18.125 2.5 18.8167 2.68333 19.45 3.05C20.0833 3.41667 20.5833 3.91667 20.95 4.55C21.3167 5.18333 21.5 5.875 21.5 6.625C21.5 7.375 21.3167 8.06667 20.95 8.7C20.5833 9.33333 20.0833 9.83333 19.45 10.2C18.8167 10.5667 18.125 10.75 17.375 10.75ZM15.325 9.2C15.2583 9.25 15.175 9.29167 15.075 9.325C14.9917 9.35833 14.9 9.375 14.8 9.375C14.55 9.375 14.3417 9.29167 14.175 9.125C14.0083 8.95833 13.925 8.75 13.925 8.5C13.925 8.35 13.9583 8.21667 14.025 8.1C14.0917 7.98333 14.175 7.88333 14.275 7.8L16.85 5.925C16.9167 5.875 16.9917 5.83333 17.075 5.8C17.175 5.76667 17.275 5.75 17.375 5.75C17.625 5.75 17.8333 5.83333 18 6C18.1667 6.16667 18.25 6.375 18.25 6.625C18.25 6.775 18.2167 6.90833 18.15 7.025C18.0833 7.14167 18 7.24167 17.9 7.325L15.325 9.2ZM15 8V15.975H9V8H15ZM6.625 9C7.25833 9 7.8 8.775 8.25 8.325C8.71667 7.85833 8.95 7.29167 8.95 6.625C8.95 5.95833 8.71667 5.4 8.25 4.95C7.8 4.48333 7.25833 4.25 6.625 4.25C5.99167 4.25 5.44167 4.48333 4.975 4.95C4.525 5.4 4.3 5.95833 4.3 6.625C4.3 7.29167 4.525 7.85833 4.975 8.325C5.44167 8.775 5.99167 9 6.625 9ZM6.625 10.75C5.875 10.75 5.18333 10.5667 4.55 10.2C3.91667 9.83333 3.41667 9.33333 3.05 8.7C2.68333 8.06667 2.5 7.375 2.5 6.625C2.5 5.875 2.68333 5.18333 3.05 4.55C3.41667 3.91667 3.91667 3.41667 4.55 3.05C5.18333 2.68333 5.875 2.5 6.625 2.5C7.375 2.5 8.06667 2.68333 8.7 3.05C9.33333 3.41667 9.83333 3.91667 10.2 4.55C10.5667 5.18333 10.75 5.875 10.75 6.625C10.75 7.375 10.5667 8.06667 10.2 8.7C9.83333 9.33333 9.33333 9.83333 8.7 10.2C8.06667 10.5667 7.375 10.75 6.625 10.75ZM9.725 7.8C9.825 7.88333 9.90833 7.98333 9.975 8.1C10.0417 8.21667 10.075 8.35 10.075 8.5C10.075 8.75 9.99167 8.95833 9.825 9.125C9.65833 9.29167 9.45 9.375 9.2 9.375C9.1 9.375 9 9.35833 8.9 9.325C8.81667 9.29167 8.74167 9.25 8.675 9.2L6.1 7.325C6 7.24167 5.91667 7.14167 5.85 7.025C5.78333 6.90833 5.75 6.775 5.75 6.625C5.75 6.375 5.83333 6.16667 6 6C6.16667 5.83333 6.375 5.75 6.625 5.75C6.725 5.75 6.81667 5.76667 6.9 5.8C7 5.83333 7.08333 5.875 7.15 5.925L9.725 7.8ZM17.375 15C16.7417 15 16.1917 15.2333 15.725 15.7C15.275 16.15 15.05 16.7083 15.05 17.375C15.05 18.0417 15.275 18.6083 15.725 19.075C16.1917 19.525 16.7417 19.75 17.375 19.75C18.0083 19.75 18.55 19.525 19 19.075C19.4667 18.6083 19.7 18.0417 19.7 17.375C19.7 16.7083 19.4667 16.15 19 15.7C18.55 15.2333 18.0083 15 17.375 15ZM17.375 13.25C18.125 13.25 18.8167 13.4333 19.45 13.8C20.0833 14.1667 20.5833 14.6667 20.95 15.3C21.3167 15.9333 21.5 16.625 21.5 17.375C21.5 18.125 21.3167 18.8167 20.95 19.45C20.5833 20.0833 20.0833 20.5833 19.45 20.95C18.8167 21.3167 18.125 21.5 17.375 21.5C16.625 21.5 15.9333 21.3167 15.3 20.95C14.6667 20.5833 14.1667 20.0833 13.8 19.45C13.4333 18.8167 13.25 18.125 13.25 17.375C13.25 16.625 13.4333 15.9333 13.8 15.3C14.1667 14.6667 14.6667 14.1667 15.3 13.8C15.9333 13.4333 16.625 13.25 17.375 13.25ZM17.9 16.675C18 16.7583 18.0833 16.8583 18.15 16.975C18.2167 17.0917 18.25 17.225 18.25 17.375C18.25 17.625 18.1667 17.8333 18 18C17.8333 18.1667 17.625 18.25 17.375 18.25C17.275 18.25 17.175 18.2333 17.075 18.2C16.9917 18.1667 16.9167 18.125 16.85 18.075L14.275 16.2C14.175 16.1167 14.0917 16.0167 14.025 15.9C13.9583 15.7833 13.925 15.65 13.925 15.5C13.925 15.25 14.0083 15.0417 14.175 14.875C14.3417 14.7083 14.55 14.625 14.8 14.625C14.9 14.625 14.9917 14.6417 15.075 14.675C15.175 14.7083 15.2583 14.75 15.325 14.8L17.9 16.675ZM6.625 15C5.99167 15 5.44167 15.2333 4.975 15.7C4.525 16.15 4.3 16.7083 4.3 17.375C4.3 18.0417 4.525 18.6083 4.975 19.075C5.44167 19.525 5.99167 19.75 6.625 19.75C7.25833 19.75 7.8 19.525 8.25 19.075C8.71667 18.6083 8.95 18.0417 8.95 17.375C8.95 16.7083 8.71667 16.15 8.25 15.7C7.8 15.2333 7.25833 15 6.625 15ZM6.625 13.25C7.375 13.25 8.06667 13.4333 8.7 13.8C9.33333 14.1667 9.83333 14.6667 10.2 15.3C10.5667 15.9333 10.75 16.625 10.75 17.375C10.75 18.125 10.5667 18.8167 10.2 19.45C9.83333 20.0833 9.33333 20.5833 8.7 20.95C8.06667 21.3167 7.375 21.5 6.625 21.5C5.875 21.5 5.18333 21.3167 4.55 20.95C3.91667 20.5833 3.41667 20.0833 3.05 19.45C2.68333 18.8167 2.5 18.125 2.5 17.375C2.5 16.625 2.68333 15.9333 3.05 15.3C3.41667 14.6667 3.91667 14.1667 4.55 13.8C5.18333 13.4333 5.875 13.25 6.625 13.25ZM7.15 18.075C7.08333 18.125 7 18.1667 6.9 18.2C6.81667 18.2333 6.725 18.25 6.625 18.25C6.375 18.25 6.16667 18.1667 6 18C5.83333 17.8333 5.75 17.625 5.75 17.375C5.75 17.225 5.78333 17.0917 5.85 16.975C5.91667 16.8583 6 16.7583 6.1 16.675L8.675 14.8C8.74167 14.75 8.81667 14.7083 8.9 14.675C9 14.6417 9.1 14.625 9.2 14.625C9.45 14.625 9.65833 14.7083 9.825 14.875C9.99167 15.0417 10.075 15.25 10.075 15.5C10.075 15.65 10.0417 15.7833 9.975 15.9C9.90833 16.0167 9.825 16.1167 9.725 16.2L7.15 18.075Z" fill="black"/>
</g>
<defs>
<clipPath id="clip0_3206_14334">
<rect width="24" height="24" fill="white"/>
</clipPath>
</defs>
</svg>
