<svg width="24" height="24" viewBox="0 0 24 24" fill="none" xmlns="http://www.w3.org/2000/svg">
<g clip-path="url(#clip0_3394_11732)">
<rect width="24" height="24" fill="white"/>
<path d="M20.2505 9.45C20.2505 9.95 20.0755 10.375 19.7255 10.725C19.3755 11.075 18.9505 11.25 18.4505 11.25H5.55049C5.21716 11.25 4.90882 11.175 4.62549 11.025C4.35882 10.8583 4.14216 10.6417 3.97549 10.375C3.82549 10.0917 3.75049 9.78333 3.75049 9.45V5.85H5.60049V9.375C5.60049 9.39167 5.60882 9.40833 5.62549 9.425C5.64216 9.44167 5.65882 9.45 5.67549 9.45H18.3255C18.3422 9.45 18.3588 9.44167 18.3755 9.425C18.3922 9.40833 18.4005 9.39167 18.4005 9.375V5.85H20.2505V9.45ZM8.67549 16.525L6.85049 19.5H4.72549L6.55049 16.525H8.67549ZM19.2755 19.5H17.1505L15.3255 16.525H17.4505L19.2755 19.5ZM9.35049 5V6.8H0.000488281V5H9.35049ZM24.0005 5V6.8H14.6505V5H24.0005ZM17.5005 17H6.50049V10.6H8.35049V15.2H15.6505V10.6H17.5005V17Z" fill="black"/>
</g>
<defs>
<clipPath id="clip0_3394_11732">
<rect width="24" height="24" fill="white"/>
</clipPath>
</defs>
</svg>
