<svg width="24" height="24" viewBox="0 0 24 24" fill="none" xmlns="http://www.w3.org/2000/svg">
<g clip-path="url(#clip0_3394_11748)">
<rect width="24" height="24" fill="white"/>
<path d="M20.525 9.625C20.525 10.275 20.3 10.825 19.85 11.275C19.4 11.725 18.85 11.95 18.2 11.95H5.8C5.36667 11.95 4.96667 11.85 4.6 11.65C4.25 11.4333 3.975 11.15 3.775 10.8C3.575 10.45 3.475 10.0583 3.475 9.625V5.85H5.85V9.55C5.85 9.56667 5.85833 9.58333 5.875 9.6C5.89167 9.61667 5.90833 9.625 5.925 9.625H18.075C18.0917 9.625 18.1083 9.61667 18.125 9.6C18.1417 9.58333 18.15 9.56667 18.15 9.55V5.85H20.525V9.625ZM9.25 16.525L7.425 19.5H4.65L6.475 16.525H9.25ZM19.35 19.5H16.575L14.75 16.525H17.525L19.35 19.5ZM9.35 5V7.325H0V5H9.35ZM24 5V7.325H14.65V5H24ZM17.675 17.175H6.325V10.775H17.675V17.175Z" fill="black"/>
</g>
<defs>
<clipPath id="clip0_3394_11748">
<rect width="24" height="24" fill="white"/>
</clipPath>
</defs>
</svg>
