<svg width="24" height="24" viewBox="0 0 24 24" fill="none" xmlns="http://www.w3.org/2000/svg">
<g clip-path="url(#clip0_3374_5146)">
<rect width="24" height="24" fill="white"/>
<path d="M17.2005 9.05C17.8172 9.05 18.3422 8.83333 18.7755 8.4C19.2088 7.96667 19.4255 7.43333 19.4255 6.8C19.4255 6.16667 19.2088 5.63333 18.7755 5.2C18.3422 4.75 17.8172 4.525 17.2005 4.525C16.5838 4.525 16.0588 4.75 15.6255 5.2C15.2088 5.63333 15.0005 6.16667 15.0005 6.8C15.0005 7.43333 15.2088 7.96667 15.6255 8.4C16.0588 8.83333 16.5838 9.05 17.2005 9.05ZM17.2005 11.075C16.4338 11.075 15.7172 10.8833 15.0505 10.5C14.4005 10.1167 13.8838 9.6 13.5005 8.95C13.1172 8.28333 12.9255 7.56667 12.9255 6.8C12.9255 6.01667 13.1172 5.3 13.5005 4.65C13.8838 3.98333 14.4005 3.45833 15.0505 3.075C15.7172 2.69167 16.4338 2.5 17.2005 2.5C17.9838 2.5 18.7005 2.69167 19.3505 3.075C20.0172 3.45833 20.5422 3.98333 20.9255 4.65C21.3088 5.3 21.5005 6.01667 21.5005 6.8C21.5005 7.56667 21.3088 8.28333 20.9255 8.95C20.5422 9.6 20.0172 10.1167 19.3505 10.5C18.7005 10.8833 17.9838 11.075 17.2005 11.075ZM15.1505 9.55C15.0672 9.61667 14.9755 9.675 14.8755 9.725C14.7755 9.75833 14.6588 9.775 14.5255 9.775C14.2422 9.775 14.0005 9.675 13.8005 9.475C13.6005 9.275 13.5005 9.03333 13.5005 8.75C13.5005 8.58333 13.5338 8.43333 13.6005 8.3C13.6838 8.15 13.7922 8.03333 13.9255 7.95L16.6005 5.975C16.6838 5.90833 16.7755 5.85833 16.8755 5.825C16.9922 5.79167 17.1005 5.775 17.2005 5.775C17.4838 5.775 17.7255 5.875 17.9255 6.075C18.1255 6.275 18.2255 6.51667 18.2255 6.8C18.2255 6.95 18.1922 7.1 18.1255 7.25C18.0588 7.38333 17.9588 7.5 17.8255 7.6L15.1505 9.55ZM11.0755 13.95H12.9255V10.025H11.0755V13.95ZM15.0005 8V15.975H9.00049V8H15.0005ZM6.80049 9.05C7.41716 9.05 7.93382 8.83333 8.35049 8.4C8.78382 7.96667 9.00049 7.43333 9.00049 6.8C9.00049 6.16667 8.78382 5.63333 8.35049 5.2C7.93382 4.75 7.41716 4.525 6.80049 4.525C6.18382 4.525 5.65882 4.75 5.22549 5.2C4.79216 5.63333 4.57549 6.16667 4.57549 6.8C4.57549 7.43333 4.79216 7.96667 5.22549 8.4C5.65882 8.83333 6.18382 9.05 6.80049 9.05ZM6.80049 11.075C6.01716 11.075 5.29216 10.8833 4.62549 10.5C3.97549 10.1167 3.45882 9.6 3.07549 8.95C2.69216 8.28333 2.50049 7.56667 2.50049 6.8C2.50049 6.01667 2.69216 5.3 3.07549 4.65C3.45882 3.98333 3.97549 3.45833 4.62549 3.075C5.29216 2.69167 6.01716 2.5 6.80049 2.5C7.56716 2.5 8.27549 2.69167 8.92549 3.075C9.59216 3.45833 10.1172 3.98333 10.5005 4.65C10.8838 5.3 11.0755 6.01667 11.0755 6.8C11.0755 7.56667 10.8838 8.28333 10.5005 8.95C10.1172 9.6 9.59216 10.1167 8.92549 10.5C8.27549 10.8833 7.56716 11.075 6.80049 11.075ZM10.0755 7.95C10.2088 8.05 10.3088 8.16667 10.3755 8.3C10.4588 8.43333 10.5005 8.58333 10.5005 8.75C10.5005 9.03333 10.4005 9.275 10.2005 9.475C10.0005 9.675 9.75882 9.775 9.47549 9.775C9.35882 9.775 9.24216 9.75833 9.12549 9.725C9.02549 9.675 8.93382 9.61667 8.85049 9.55L6.17549 7.6C6.04216 7.5 5.94216 7.38333 5.87549 7.25C5.80882 7.11667 5.77549 6.96667 5.77549 6.8C5.77549 6.51667 5.87549 6.275 6.07549 6.075C6.27549 5.875 6.51716 5.775 6.80049 5.775C6.91716 5.775 7.02549 5.79167 7.12549 5.825C7.22549 5.85833 7.31716 5.90833 7.40049 5.975L10.0755 7.95ZM17.2005 14.95C16.5838 14.95 16.0588 15.1667 15.6255 15.6C15.2088 16.0333 15.0005 16.5667 15.0005 17.2C15.0005 17.8333 15.2088 18.375 15.6255 18.825C16.0588 19.2583 16.5838 19.475 17.2005 19.475C17.8172 19.475 18.3422 19.2583 18.7755 18.825C19.2088 18.375 19.4255 17.8333 19.4255 17.2C19.4255 16.5667 19.2088 16.0333 18.7755 15.6C18.3422 15.1667 17.8172 14.95 17.2005 14.95ZM17.2005 12.925C17.9838 12.925 18.7005 13.1167 19.3505 13.5C20.0172 13.8833 20.5422 14.4083 20.9255 15.075C21.3088 15.725 21.5005 16.4333 21.5005 17.2C21.5005 17.9833 21.3088 18.7083 20.9255 19.375C20.5422 20.025 20.0172 20.5417 19.3505 20.925C18.7005 21.3083 17.9838 21.5 17.2005 21.5C16.4338 21.5 15.7172 21.3083 15.0505 20.925C14.4005 20.5417 13.8838 20.025 13.5005 19.375C13.1172 18.7083 12.9255 17.9833 12.9255 17.2C12.9255 16.4333 13.1172 15.725 13.5005 15.075C13.8838 14.4083 14.4005 13.8833 15.0505 13.5C15.7172 13.1167 16.4338 12.925 17.2005 12.925ZM17.8255 16.4C17.9588 16.5 18.0588 16.6167 18.1255 16.75C18.1922 16.8833 18.2255 17.0333 18.2255 17.2C18.2255 17.4833 18.1255 17.725 17.9255 17.925C17.7255 18.125 17.4838 18.225 17.2005 18.225C17.1005 18.225 16.9922 18.2083 16.8755 18.175C16.7755 18.125 16.6838 18.075 16.6005 18.025L13.9255 16.05C13.7922 15.95 13.6838 15.8333 13.6005 15.7C13.5338 15.5667 13.5005 15.4167 13.5005 15.25C13.5005 14.9667 13.6005 14.725 13.8005 14.525C14.0005 14.325 14.2422 14.225 14.5255 14.225C14.6422 14.225 14.7505 14.25 14.8505 14.3C14.9672 14.3333 15.0672 14.3833 15.1505 14.45L17.8255 16.4ZM6.80049 14.95C6.18382 14.95 5.65882 15.1667 5.22549 15.6C4.79216 16.0333 4.57549 16.5667 4.57549 17.2C4.57549 17.8333 4.79216 18.375 5.22549 18.825C5.65882 19.2583 6.18382 19.475 6.80049 19.475C7.41716 19.475 7.93382 19.2583 8.35049 18.825C8.78382 18.375 9.00049 17.8333 9.00049 17.2C9.00049 16.5667 8.78382 16.0333 8.35049 15.6C7.93382 15.1667 7.41716 14.95 6.80049 14.95ZM6.80049 12.925C7.56716 12.925 8.27549 13.1167 8.92549 13.5C9.59216 13.8833 10.1172 14.4083 10.5005 15.075C10.8838 15.725 11.0755 16.4333 11.0755 17.2C11.0755 17.9833 10.8838 18.7083 10.5005 19.375C10.1172 20.025 9.59216 20.5417 8.92549 20.925C8.27549 21.3083 7.56716 21.5 6.80049 21.5C6.01716 21.5 5.29216 21.3083 4.62549 20.925C3.97549 20.5417 3.45882 20.025 3.07549 19.375C2.69216 18.7083 2.50049 17.9833 2.50049 17.2C2.50049 16.4333 2.69216 15.725 3.07549 15.075C3.45882 14.4083 3.97549 13.8833 4.62549 13.5C5.29216 13.1167 6.01716 12.925 6.80049 12.925ZM7.40049 18.025C7.31716 18.075 7.22549 18.125 7.12549 18.175C7.02549 18.2083 6.91716 18.225 6.80049 18.225C6.51716 18.225 6.27549 18.125 6.07549 17.925C5.87549 17.725 5.77549 17.4833 5.77549 17.2C5.77549 17.0333 5.80882 16.8833 5.87549 16.75C5.94216 16.6167 6.04216 16.5 6.17549 16.4L8.85049 14.45C8.93382 14.3833 9.02549 14.3333 9.12549 14.3C9.24216 14.25 9.35882 14.225 9.47549 14.225C9.75882 14.225 10.0005 14.325 10.2005 14.525C10.4005 14.725 10.5005 14.9667 10.5005 15.25C10.5005 15.4167 10.4588 15.575 10.3755 15.725C10.3088 15.8583 10.2088 15.9667 10.0755 16.05L7.40049 18.025Z" fill="black"/>
</g>
<defs>
<clipPath id="clip0_3374_5146">
<rect width="24" height="24" fill="white"/>
</clipPath>
</defs>
</svg>
