<svg width="24" height="24" viewBox="0 0 24 24" fill="none" xmlns="http://www.w3.org/2000/svg">
<g clip-path="url(#clip0_3208_21345)">
<rect width="24" height="24" fill="white"/>
<path d="M4.97598 8.925V13.5C4.97598 14.35 5.17598 15.125 5.57598 15.825C5.97598 16.5083 6.51764 17.0583 7.20098 17.475C7.90098 17.875 8.66764 18.075 9.50098 18.075H14.501C15.351 18.075 16.1176 17.875 16.801 17.475C17.4843 17.0583 18.026 16.5 18.426 15.8C18.826 15.1 19.026 14.3333 19.026 13.5V8.925H4.97598ZM7.32598 1.975C7.32598 1.84167 7.36764 1.73333 7.45098 1.65C7.55098 1.55 7.67598 1.5 7.82598 1.5C7.95931 1.5 8.06764 1.55 8.15098 1.65C8.25098 1.73333 8.30098 1.84167 8.30098 1.975V8.2H7.32598V1.975ZM15.701 1.975C15.701 1.84167 15.7426 1.73333 15.826 1.65C15.926 1.55 16.0426 1.5 16.176 1.5C16.3093 1.5 16.426 1.55 16.526 1.65C16.626 1.73333 16.676 1.84167 16.676 1.975V8.2H15.701V1.975ZM12.476 22H11.526V18.725H12.476V22ZM9.50098 19C8.48431 19 7.55098 18.7583 6.70098 18.275C5.86764 17.7917 5.20931 17.1333 4.72598 16.3C4.24264 15.45 4.00098 14.5167 4.00098 13.5V8H20.001V13.5C20.001 14.5167 19.7593 15.45 19.276 16.3C18.7926 17.1333 18.1343 17.7917 17.301 18.275C16.4676 18.7583 15.5343 19 14.501 19H9.50098Z" fill="black"/>
</g>
<defs>
<clipPath id="clip0_3208_21345">
<rect width="24" height="24" fill="white"/>
</clipPath>
</defs>
</svg>
