<svg width="24" height="24" viewBox="0 0 24 24" fill="none" xmlns="http://www.w3.org/2000/svg">
<g clip-path="url(#clip0_3208_21353)">
<rect width="24" height="24" fill="white"/>
<path d="M6.97598 10.575V13.5C6.97598 13.9833 7.08431 14.425 7.30098 14.825C7.51764 15.2083 7.81764 15.5167 8.20098 15.75C8.60098 15.9667 9.03431 16.075 9.50098 16.075H14.501C14.9843 16.075 15.4093 15.9667 15.776 15.75C16.1593 15.5167 16.4593 15.2083 16.676 14.825C16.9093 14.425 17.026 13.9833 17.026 13.5V10.575H6.97598ZM7.00098 2.975C7.00098 2.55833 7.14264 2.20833 7.42598 1.925C7.70931 1.64167 8.05931 1.5 8.47598 1.5C8.89264 1.5 9.24264 1.64167 9.52598 1.925C9.82598 2.20833 9.97598 2.55833 9.97598 2.975V8.4H7.00098V2.975ZM14.026 2.975C14.026 2.55833 14.1676 2.20833 14.451 1.925C14.751 1.64167 15.1093 1.5 15.526 1.5C15.9426 1.5 16.2926 1.64167 16.576 1.925C16.8593 2.20833 17.001 2.55833 17.001 2.975V8.4H14.026V2.975ZM13.476 22H10.526V18.6H13.476V22ZM9.50098 19C8.48431 19 7.55098 18.7583 6.70098 18.275C5.86764 17.7917 5.20931 17.1333 4.72598 16.3C4.24264 15.45 4.00098 14.5167 4.00098 13.5V7.675H20.001V13.5C20.001 14.5167 19.7593 15.45 19.276 16.3C18.7926 17.1333 18.1343 17.7917 17.301 18.275C16.4676 18.7583 15.5343 19 14.501 19H9.50098Z" fill="black"/>
</g>
<defs>
<clipPath id="clip0_3208_21353">
<rect width="24" height="24" fill="white"/>
</clipPath>
</defs>
</svg>
