<svg width="24" height="24" viewBox="0 0 24 24" fill="none" xmlns="http://www.w3.org/2000/svg">
<g clip-path="url(#clip0_3207_18556)">
<rect width="24" height="24" fill="white"/>
<path d="M4.50098 8.475V13.5C4.50098 14.4333 4.71764 15.2833 5.15098 16.05C5.60098 16.8167 6.20098 17.425 6.95098 17.875C7.71764 18.3083 8.56764 18.525 9.50098 18.525H14.501C15.4343 18.525 16.276 18.3083 17.026 17.875C17.7926 17.425 18.3926 16.8167 18.826 16.05C19.276 15.2833 19.501 14.4333 19.501 13.5V8.475H4.50098ZM7.50098 1.725C7.50098 1.65833 7.52598 1.60833 7.57598 1.575C7.62598 1.525 7.68431 1.5 7.75098 1.5C7.81764 1.5 7.87598 1.525 7.92598 1.575C7.97598 1.60833 8.00098 1.65833 8.00098 1.725V8.1H7.50098V1.725ZM16.001 1.725C16.001 1.65833 16.026 1.60833 16.076 1.575C16.126 1.525 16.1843 1.5 16.251 1.5C16.3176 1.5 16.376 1.525 16.426 1.575C16.476 1.60833 16.501 1.65833 16.501 1.725V8.1H16.001V1.725ZM12.251 22H11.751V18.775H12.251V22ZM9.50098 19C8.48431 19 7.55098 18.7583 6.70098 18.275C5.86764 17.7917 5.20931 17.1333 4.72598 16.3C4.24264 15.45 4.00098 14.5167 4.00098 13.5V8H20.001V13.5C20.001 14.5167 19.7593 15.45 19.276 16.3C18.7926 17.1333 18.126 17.7917 17.276 18.275C16.4426 18.7583 15.5176 19 14.501 19H9.50098Z" fill="black"/>
</g>
<defs>
<clipPath id="clip0_3207_18556">
<rect width="24" height="24" fill="white"/>
</clipPath>
</defs>
</svg>
