<svg width="24" height="24" viewBox="0 0 24 24" fill="none" xmlns="http://www.w3.org/2000/svg">
<g clip-path="url(#clip0_3208_21349)">
<rect width="24" height="24" fill="white"/>
<path d="M5.90098 9.85V13.5C5.90098 14.1667 6.05931 14.7833 6.37598 15.35C6.69264 15.9 7.12598 16.3417 7.67598 16.675C8.22598 16.9917 8.83431 17.15 9.50098 17.15H14.526C15.1926 17.15 15.7926 16.9917 16.326 16.675C16.876 16.3417 17.3093 15.9 17.626 15.35C17.9426 14.7833 18.101 14.1667 18.101 13.5V9.85H5.90098ZM7.00098 2.45C7.00098 2.18333 7.09264 1.95833 7.27598 1.775C7.45931 1.59167 7.68431 1.5 7.95098 1.5C8.21764 1.5 8.44264 1.59167 8.62598 1.775C8.80931 1.95833 8.90098 2.18333 8.90098 2.45V8.4H7.00098V2.45ZM15.101 2.45C15.101 2.18333 15.1926 1.95833 15.376 1.775C15.5593 1.59167 15.7843 1.5 16.051 1.5C16.3176 1.5 16.5426 1.59167 16.726 1.775C16.9093 1.95833 17.001 2.18333 17.001 2.45V8.4H15.101V2.45ZM12.951 22H11.051V18.6H12.951V22ZM9.50098 19C8.48431 19 7.55098 18.7583 6.70098 18.275C5.86764 17.775 5.20931 17.1083 4.72598 16.275C4.24264 15.4417 4.00098 14.5167 4.00098 13.5V8H20.001V13.5C20.001 14.5167 19.7593 15.4417 19.276 16.275C18.7926 17.1083 18.1343 17.775 17.301 18.275C16.4676 18.7583 15.5426 19 14.526 19H9.50098Z" fill="black"/>
</g>
<defs>
<clipPath id="clip0_3208_21349">
<rect width="24" height="24" fill="white"/>
</clipPath>
</defs>
</svg>
