<svg width="24" height="24" viewBox="0 0 24 24" fill="none" xmlns="http://www.w3.org/2000/svg">
<g clip-path="url(#clip0_3208_21955)">
<rect width="24" height="24" fill="white"/>
<path d="M6.47549 3.95C7.25882 3.46667 8.12549 3.1 9.07549 2.85C10.0422 2.6 11.0172 2.475 12.0005 2.475C13.0005 2.475 13.9755 2.6 14.9255 2.85C15.8755 3.1 16.7422 3.46667 17.5255 3.95L15.8255 6.7C15.3088 6.38333 14.7172 6.14167 14.0505 5.975C13.4005 5.80833 12.7172 5.725 12.0005 5.725C11.3005 5.725 10.6172 5.80833 9.95049 5.975C9.28382 6.14167 8.69216 6.38333 8.17549 6.7L6.47549 3.95ZM4.82549 21.5C4.02549 21.5 3.39216 21.225 2.92549 20.675C2.45882 20.1083 2.25882 19.4 2.32549 18.55L2.97549 10.95C3.05882 9.95 3.47549 9.13333 4.22549 8.5C4.99216 7.85 5.91716 7.525 7.00049 7.525H17.0005C18.0838 7.525 19.0005 7.85 19.7505 8.5C20.5172 9.13333 20.9422 9.95 21.0255 10.95L21.6755 18.55C21.7422 19.4 21.5422 20.1083 21.0755 20.675C20.6088 21.225 19.9755 21.5 19.1755 21.5C17.7588 21.5 16.7755 20.7917 16.2255 19.375L15.7005 18.025H8.27549L7.75049 19.375C7.20049 20.7917 6.22549 21.5 4.82549 21.5ZM8.65049 14.95H10.2005V13.4V12.05V10.5H8.65049H7.30049H5.72549V12.05V13.4V14.95H7.30049H8.65049ZM15.8755 15.275C16.5588 15.275 17.1422 15.0333 17.6255 14.55C18.1255 14.05 18.3755 13.4583 18.3755 12.775C18.3755 12.0917 18.1255 11.5083 17.6255 11.025C17.1422 10.525 16.5588 10.275 15.8755 10.275C15.1922 10.275 14.6005 10.525 14.1005 11.025C13.6172 11.5083 13.3755 12.0917 13.3755 12.775C13.3755 13.4583 13.6172 14.05 14.1005 14.55C14.6005 15.0333 15.1922 15.275 15.8755 15.275Z" fill="black"/>
</g>
<defs>
<clipPath id="clip0_3208_21955">
<rect width="24" height="24" fill="white"/>
</clipPath>
</defs>
</svg>
