<svg width="24" height="24" viewBox="0 0 24 24" fill="none" xmlns="http://www.w3.org/2000/svg">
<g clip-path="url(#clip0_3207_19060)">
<rect width="24" height="24" fill="white"/>
<path d="M10.751 5.9C10.751 5.06667 11.0426 4.35833 11.626 3.775C12.226 3.19167 12.9426 2.9 13.776 2.9H16.601V5.4H13.851C13.701 5.4 13.5676 5.45 13.451 5.55C13.351 5.65 13.301 5.78333 13.301 5.95V8.625H10.751V5.9ZM6.02598 21.5C5.29264 21.5 4.63431 21.3417 4.05098 21.025C3.46764 20.7083 3.02598 20.275 2.72598 19.725C2.42598 19.1583 2.30931 18.5167 2.37598 17.8L3.02598 10.425C3.07598 9.775 3.28431 9.19167 3.65098 8.675C4.01764 8.15833 4.48431 7.75833 5.05098 7.475C5.61764 7.175 6.23431 7.025 6.90098 7.025H17.101C18.1176 7.025 18.9926 7.35 19.726 8C20.476 8.65 20.8926 9.46667 20.976 10.45L21.626 17.825C21.6926 18.525 21.576 19.1583 21.276 19.725C20.976 20.275 20.5343 20.7083 19.951 21.025C19.3843 21.3417 18.7176 21.5 17.951 21.5C16.9843 21.5 16.1843 21.3 15.551 20.9C14.9176 20.5 14.4426 19.9417 14.126 19.225L14.026 18.975H9.97598L9.87598 19.225C9.55931 19.9583 9.08431 20.525 8.45098 20.925C7.81764 21.3083 7.00931 21.5 6.02598 21.5ZM6.20098 19C6.53431 19 6.81764 18.9167 7.05098 18.75C7.30098 18.5667 7.48431 18.3083 7.60098 17.975L8.15098 16.4H15.851L16.401 17.975C16.5176 18.325 16.6926 18.5833 16.926 18.75C17.176 18.9167 17.4593 19 17.776 19C18.1593 19 18.4676 18.9 18.701 18.7C18.9343 18.4833 19.0426 18.2083 19.026 17.875L18.376 10.75C18.3426 10.3667 18.201 10.0833 17.951 9.9C17.7176 9.7 17.426 9.6 17.076 9.6H6.92598C6.57598 9.6 6.27598 9.7 6.02598 9.9C5.79264 10.0833 5.65931 10.3667 5.62598 10.75L4.97598 17.85C4.95931 18.1833 5.05931 18.4583 5.27598 18.675C5.50931 18.8917 5.81764 19 6.20098 19ZM7.12598 13.2V12.6V11.4H8.35098H9.00098H10.251V12.875V13.5V14.525H8.92598H8.17598H7.12598V13.2ZM15.251 14.775C14.751 14.775 14.3176 14.5917 13.951 14.225C13.5843 13.8583 13.401 13.4333 13.401 12.95C13.401 12.4333 13.576 12 13.926 11.65C14.2926 11.2833 14.7343 11.1 15.251 11.1C15.751 11.1 16.176 11.2833 16.526 11.65C16.8926 12 17.076 12.4333 17.076 12.95C17.076 13.45 16.8926 13.8833 16.526 14.25C16.176 14.6 15.751 14.775 15.251 14.775ZM15.251 12.95C15.101 12.95 14.9926 12.95 14.926 12.95C14.8593 12.95 14.751 12.95 14.601 12.95C14.751 12.95 14.8593 12.95 14.926 12.95C14.9926 12.95 15.101 12.95 15.251 12.95C15.401 12.95 15.5093 12.95 15.576 12.95C15.6426 12.95 15.751 12.95 15.901 12.95C15.751 12.95 15.6343 12.95 15.551 12.95C15.4843 12.95 15.3843 12.95 15.251 12.95Z" fill="black"/>
</g>
<defs>
<clipPath id="clip0_3207_19060">
<rect width="24" height="24" fill="white"/>
</clipPath>
</defs>
</svg>
