<svg width="24" height="24" viewBox="0 0 24 24" fill="none" xmlns="http://www.w3.org/2000/svg">
<g clip-path="url(#clip0_3207_19076)">
<rect width="24" height="24" fill="white"/>
<path d="M10.4755 5.75C10.4755 4.91667 10.7672 4.20833 11.3505 3.625C11.9338 3.04167 12.6422 2.75 13.4755 2.75H16.6005V5.75H13.6505C13.6338 5.75 13.6172 5.75833 13.6005 5.775C13.5838 5.79167 13.5755 5.80833 13.5755 5.825V8.025H10.4755V5.75ZM4.82549 21.5C4.02549 21.5 3.39216 21.225 2.92549 20.675C2.45882 20.1083 2.25882 19.4 2.32549 18.55L3.02549 10.45C3.10882 9.45 3.52549 8.63333 4.27549 8C5.02549 7.35 5.93382 7.025 7.00049 7.025H17.0005C18.0672 7.025 18.9755 7.35 19.7255 8C20.4755 8.63333 20.8922 9.45 20.9755 10.45L21.6755 18.55C21.7422 19.4 21.5422 20.1083 21.0755 20.675C20.6088 21.225 19.9755 21.5 19.1755 21.5C18.4588 21.5 17.8505 21.3167 17.3505 20.95C16.8505 20.5833 16.4755 20.0583 16.2255 19.375L15.7255 18.025H8.27549L7.75049 19.375C7.20049 20.7917 6.22549 21.5 4.82549 21.5ZM8.65049 14.7H10.2005V13.15V11.8V10.25H8.65049H7.30049H5.72549V11.8V13.15V14.7H7.30049H8.65049ZM15.8755 15.025C16.5588 15.025 17.1422 14.7833 17.6255 14.3C18.1255 13.8 18.3755 13.2083 18.3755 12.525C18.3755 11.8417 18.1255 11.2583 17.6255 10.775C17.1422 10.275 16.5588 10.025 15.8755 10.025C15.1922 10.025 14.6005 10.275 14.1005 10.775C13.6172 11.2583 13.3755 11.8417 13.3755 12.525C13.3755 13.2083 13.6172 13.8 14.1005 14.3C14.6005 14.7833 15.1922 15.025 15.8755 15.025Z" fill="black"/>
</g>
<defs>
<clipPath id="clip0_3207_19076">
<rect width="24" height="24" fill="white"/>
</clipPath>
</defs>
</svg>
