<svg width="24" height="24" viewBox="0 0 24 24" fill="none" xmlns="http://www.w3.org/2000/svg">
<g clip-path="url(#clip0_3208_22049)">
<rect width="24" height="24" fill="white"/>
<path d="M3.77549 20.275C2.85882 20.275 2.14216 19.95 1.62549 19.3C1.12549 18.65 0.917155 17.8083 1.00049 16.775L1.75049 8.1C1.85049 6.9 2.33382 5.91667 3.20049 5.15C4.06716 4.38333 5.12549 4 6.37549 4H17.6255C18.8755 4 19.9338 4.38333 20.8005 5.15C21.6672 5.91667 22.1505 6.9 22.2505 8.1L23.0005 16.775C23.0838 17.8083 22.8588 18.65 22.3255 19.3C21.7922 19.95 21.0672 20.275 20.1505 20.275C19.3672 20.275 18.7005 20.0583 18.1505 19.625C17.6005 19.1917 17.1838 18.5917 16.9005 17.825L16.0505 15.475H7.95049L7.10049 17.825C6.81716 18.5917 6.38382 19.1917 5.80049 19.625C5.23382 20.0583 4.55882 20.275 3.77549 20.275ZM7.77549 12.525V10.325H9.97549V9.475H7.77549V7.275H6.92549V9.475H4.72549V10.325H6.92549V12.525H7.77549ZM16.5005 12.55C17.2505 12.55 17.8838 12.2917 18.4005 11.775C18.9172 11.2583 19.1755 10.6333 19.1755 9.9C19.1755 9.16667 18.9172 8.54167 18.4005 8.025C17.8838 7.50833 17.2505 7.25 16.5005 7.25C15.7505 7.25 15.1172 7.50833 14.6005 8.025C14.0838 8.54167 13.8255 9.16667 13.8255 9.9C13.8255 10.6333 14.0838 11.2583 14.6005 11.775C15.1172 12.2917 15.7505 12.55 16.5005 12.55Z" fill="black"/>
</g>
<defs>
<clipPath id="clip0_3208_22049">
<rect width="24" height="24" fill="white"/>
</clipPath>
</defs>
</svg>
