<svg width="24" height="24" viewBox="0 0 24 24" fill="none" xmlns="http://www.w3.org/2000/svg">
<g clip-path="url(#clip0_3208_22043)">
<rect width="24" height="24" fill="white"/>
<path d="M5.25098 20.275C4.38431 20.275 3.61764 20.0833 2.95098 19.7C2.28431 19.3167 1.78431 18.7833 1.45098 18.1C1.11764 17.4 0.992643 16.6167 1.07598 15.75L1.75098 8.075C1.81764 7.30833 2.05931 6.61667 2.47598 6C2.89264 5.36667 3.43431 4.875 4.10098 4.525C4.76764 4.175 5.51764 4 6.35098 4H17.651C18.4843 4 19.2343 4.175 19.901 4.525C20.5843 4.875 21.126 5.36667 21.526 6C21.9426 6.63333 22.1843 7.34167 22.251 8.125L22.926 15.8C23.0093 16.65 22.8843 17.4167 22.551 18.1C22.2343 18.7833 21.7426 19.3167 21.076 19.7C20.4093 20.0833 19.6343 20.275 18.751 20.275C17.801 20.275 16.951 20.0417 16.201 19.575C15.4676 19.0917 14.9426 18.4333 14.626 17.6L14.476 17.2H9.52598L9.37598 17.575C9.05931 18.425 8.53431 19.0917 7.80098 19.575C7.06764 20.0417 6.21764 20.275 5.25098 20.275ZM5.22598 17.5C5.60931 17.5 5.95098 17.3833 6.25098 17.15C6.55098 16.9167 6.77598 16.6083 6.92598 16.225L7.57598 14.425H16.451L17.101 16.225C17.251 16.6083 17.4676 16.9167 17.751 17.15C18.0343 17.3833 18.3593 17.5 18.726 17.5C19.1426 17.5 19.4843 17.35 19.751 17.05C20.0176 16.75 20.1343 16.375 20.101 15.925L19.401 8.275C19.3676 7.825 19.1843 7.45833 18.851 7.175C18.5176 6.89167 18.1176 6.75 17.651 6.75H6.35098C5.86764 6.75 5.45098 6.9 5.10098 7.2C4.76764 7.48333 4.58431 7.86667 4.55098 8.35L3.90098 15.925C3.86764 16.375 3.97598 16.75 4.22598 17.05C4.49264 17.35 4.82598 17.5 5.22598 17.5ZM6.52598 10.825V10.125V8.725H7.97598H8.72598H10.201V10.45V11.2V12.4H8.62598H7.75098H6.52598V10.825ZM15.551 12.625C14.9843 12.625 14.4926 12.425 14.076 12.025C13.676 11.6083 13.476 11.1083 13.476 10.525C13.476 9.95833 13.676 9.475 14.076 9.075C14.4926 8.65833 14.9843 8.45 15.551 8.45C16.1343 8.45 16.626 8.65833 17.026 9.075C17.4426 9.475 17.651 9.95833 17.651 10.525C17.651 11.1083 17.4426 11.6083 17.026 12.025C16.626 12.425 16.1343 12.625 15.551 12.625ZM15.601 10.525C15.4343 10.525 15.3093 10.525 15.226 10.525C15.1426 10.525 15.026 10.525 14.876 10.525C15.0426 10.525 15.1593 10.525 15.226 10.525C15.3093 10.525 15.4343 10.525 15.601 10.525C15.7676 10.525 15.8926 10.525 15.976 10.525C16.0593 10.525 16.176 10.525 16.326 10.525C16.1593 10.525 16.0343 10.525 15.951 10.525C15.8676 10.525 15.751 10.525 15.601 10.525Z" fill="black"/>
</g>
<defs>
<clipPath id="clip0_3208_22043">
<rect width="24" height="24" fill="white"/>
</clipPath>
</defs>
</svg>
