<svg width="24" height="24" viewBox="0 0 24 24" fill="none" xmlns="http://www.w3.org/2000/svg">
<g clip-path="url(#clip0_3208_21945)">
<rect width="24" height="24" fill="white"/>
<path d="M7.00049 4.125C7.66716 3.425 8.43382 2.9 9.30049 2.55C10.1838 2.18333 11.0838 2 12.0005 2C12.9172 2 13.8088 2.18333 14.6755 2.55C15.5588 2.9 16.3338 3.425 17.0005 4.125L16.3505 4.775C15.7338 4.15833 15.0505 3.7 14.3005 3.4C13.5672 3.08333 12.8005 2.925 12.0005 2.925C11.2005 2.925 10.4255 3.08333 9.67549 3.4C8.94216 3.7 8.26716 4.15833 7.65049 4.775L7.00049 4.125ZM4.82549 21.5C4.02549 21.5 3.39216 21.225 2.92549 20.675C2.45882 20.1083 2.25882 19.4 2.32549 18.55L3.02549 10.45C3.10882 9.45 3.52549 8.63333 4.27549 8C5.02549 7.35 5.93382 7.025 7.00049 7.025H17.0005C18.0672 7.025 18.9755 7.35 19.7255 8C20.4755 8.63333 20.8922 9.45 20.9755 10.45L21.6755 18.55C21.7422 19.4 21.5422 20.1083 21.0755 20.675C20.6088 21.225 19.9755 21.5 19.1755 21.5C17.7088 21.5 16.7255 20.7917 16.2255 19.375L15.5505 17.525H8.45049L7.75049 19.375C7.21716 20.7917 6.24216 21.5 4.82549 21.5ZM8.50049 14.675V12.8H10.4005V11.725H8.50049V9.85H7.42549V11.725H5.55049V12.8H7.42549V14.675H8.50049ZM15.8755 14.775C16.5588 14.775 17.1422 14.5333 17.6255 14.05C18.1255 13.55 18.3755 12.9583 18.3755 12.275C18.3755 11.5917 18.1255 11.0083 17.6255 10.525C17.1422 10.025 16.5588 9.775 15.8755 9.775C15.1922 9.775 14.6005 10.025 14.1005 10.525C13.6172 11.0083 13.3755 11.5917 13.3755 12.275C13.3755 12.9583 13.6172 13.55 14.1005 14.05C14.6005 14.5333 15.1922 14.775 15.8755 14.775Z" fill="black"/>
</g>
<defs>
<clipPath id="clip0_3208_21945">
<rect width="24" height="24" fill="white"/>
</clipPath>
</defs>
</svg>
