<svg width="24" height="24" viewBox="0 0 24 24" fill="none" xmlns="http://www.w3.org/2000/svg">
<g clip-path="url(#clip0_3208_21939)">
<rect width="24" height="24" fill="white"/>
<path d="M6.55098 4.05C7.30098 3.48333 8.15098 3.05833 9.10098 2.775C10.051 2.475 11.0176 2.325 12.001 2.325C13.001 2.325 13.9676 2.475 14.901 2.775C15.851 3.05833 16.701 3.48333 17.451 4.05L15.901 6.3C15.3676 5.9 14.7676 5.6 14.101 5.4C13.4343 5.2 12.7343 5.1 12.001 5.1C11.2843 5.1 10.5843 5.2 9.90098 5.4C9.23431 5.6 8.63431 5.9 8.10098 6.3L6.55098 4.05ZM6.00098 21.5C5.26764 21.5 4.60931 21.3417 4.02598 21.025C3.44264 20.7083 3.00098 20.275 2.70098 19.725C2.41764 19.1583 2.30931 18.5167 2.37598 17.8L3.02598 10.6C3.07598 9.96667 3.27598 9.39167 3.62598 8.875C3.99264 8.34167 4.45931 7.93333 5.02598 7.65C5.60931 7.35 6.24264 7.2 6.92598 7.2H17.076C17.7593 7.2 18.3843 7.35 18.951 7.65C19.5343 7.93333 20.001 8.34167 20.351 8.875C20.7176 9.39167 20.926 9.96667 20.976 10.6L21.626 17.825C21.6926 18.525 21.576 19.1583 21.276 19.725C20.976 20.2917 20.5343 20.725 19.951 21.025C19.3843 21.3417 18.726 21.5 17.976 21.5C16.9926 21.5 16.1843 21.3 15.551 20.9C14.9176 20.5 14.4426 19.9333 14.126 19.2L14.026 18.95H9.97598L9.87598 19.2C9.55931 19.9333 9.08431 20.5 8.45098 20.9C7.81764 21.3 7.00098 21.5 6.00098 21.5ZM6.20098 19.025C6.53431 19.025 6.81764 18.9417 7.05098 18.775C7.30098 18.5917 7.49264 18.3333 7.62598 18L8.15098 16.425H15.851L16.376 18C16.5093 18.3333 16.6926 18.5917 16.926 18.775C17.176 18.9417 17.4676 19.025 17.801 19.025C18.1843 19.025 18.4926 18.9167 18.726 18.7C18.976 18.4833 19.0843 18.2167 19.051 17.9L18.426 10.9C18.3926 10.5167 18.251 10.225 18.001 10.025C17.751 9.825 17.4426 9.725 17.076 9.725H6.92598C6.55931 9.725 6.25098 9.825 6.00098 10.025C5.75098 10.225 5.60931 10.5167 5.57598 10.9L4.95098 17.9C4.91764 18.2167 5.01764 18.4833 5.25098 18.7C5.50098 18.9167 5.81764 19.025 6.20098 19.025ZM7.12598 13.275V12.675V11.45H8.37598H9.02598H10.301V12.95V13.6V14.625H8.95098H8.20098H7.12598V13.275ZM15.201 14.85C14.7176 14.85 14.2926 14.6667 13.926 14.3C13.5593 13.9333 13.376 13.5083 13.376 13.025C13.376 12.5083 13.551 12.075 13.901 11.725C14.2676 11.3583 14.701 11.175 15.201 11.175C15.7176 11.175 16.151 11.3583 16.501 11.725C16.8676 12.075 17.051 12.5083 17.051 13.025C17.051 13.525 16.8676 13.9583 16.501 14.325C16.151 14.675 15.7176 14.85 15.201 14.85ZM15.201 13.025C15.0676 13.025 14.9593 13.025 14.876 13.025C14.8093 13.025 14.7093 13.025 14.576 13.025C14.726 13.025 14.8343 13.025 14.901 13.025C14.9676 13.025 15.0676 13.025 15.201 13.025C15.3676 13.025 15.4843 13.025 15.551 13.025C15.6176 13.025 15.7176 13.025 15.851 13.025C15.7176 13.025 15.6093 13.025 15.526 13.025C15.4593 13.025 15.351 13.025 15.201 13.025Z" fill="black"/>
</g>
<defs>
<clipPath id="clip0_3208_21939">
<rect width="24" height="24" fill="white"/>
</clipPath>
</defs>
</svg>
