<svg width="24" height="24" viewBox="0 0 24 24" fill="none" xmlns="http://www.w3.org/2000/svg">
<g clip-path="url(#clip0_3208_22009)">
<rect width="24" height="24" fill="white"/>
<path d="M15.651 19.7C15.1176 19.7 14.6593 19.5167 14.276 19.15C13.8926 18.7667 13.701 18.3 13.701 17.75C13.701 17.2 13.8926 16.7333 14.276 16.35C14.6593 15.9667 15.126 15.775 15.676 15.775C16.226 15.775 16.6843 15.9667 17.051 16.35C17.4343 16.7333 17.626 17.2 17.626 17.75C17.626 18.3 17.4343 18.7667 17.051 19.15C16.6676 19.5167 16.201 19.7 15.651 19.7ZM15.676 18.825C15.976 18.825 16.226 18.725 16.426 18.525C16.6426 18.3083 16.751 18.05 16.751 17.75C16.751 17.4333 16.6426 17.175 16.426 16.975C16.226 16.7583 15.976 16.65 15.676 16.65C15.376 16.65 15.1176 16.7583 14.901 16.975C14.6843 17.175 14.576 17.4333 14.576 17.75C14.576 18.05 14.6843 18.3083 14.901 18.525C15.1176 18.725 15.376 18.825 15.676 18.825ZM6.50098 22C6.03431 22 5.60931 21.8833 5.22598 21.65C4.85931 21.4333 4.55931 21.1417 4.32598 20.775C4.10931 20.3917 4.00098 19.9667 4.00098 19.5V4.5C4.00098 4.03333 4.10931 3.61667 4.32598 3.25C4.55931 2.86667 4.85931 2.56667 5.22598 2.35C5.60931 2.11667 6.03431 2 6.50098 2H17.501C17.9676 2 18.3843 2.11667 18.751 2.35C19.1343 2.56667 19.4343 2.86667 19.651 3.25C19.8843 3.61667 20.001 4.03333 20.001 4.5V19.5C20.001 19.9667 19.8843 20.3917 19.651 20.775C19.4343 21.1417 19.1343 21.4333 18.751 21.65C18.3843 21.8833 17.9676 22 17.501 22H6.50098ZM5.00098 19.5C5.00098 19.9167 5.14264 20.275 5.42598 20.575C5.72598 20.8583 6.08431 21 6.50098 21H17.501C17.9176 21 18.2676 20.8583 18.551 20.575C18.851 20.275 19.001 19.9167 19.001 19.5V16C19.001 15.5667 18.851 15.2083 18.551 14.925C18.2676 14.6417 17.9176 14.5 17.501 14.5H6.50098C6.08431 14.5 5.72598 14.6417 5.42598 14.925C5.14264 15.2083 5.00098 15.5667 5.00098 16V19.5ZM4.05098 16C4.05098 15.5333 4.15931 15.1083 4.37598 14.725C4.59264 14.3417 4.88431 14.0417 5.25098 13.825C5.63431 13.6083 6.05098 13.5 6.50098 13.5H17.501C17.951 13.5 18.3593 13.6083 18.726 13.825C19.1093 14.0417 19.4093 14.3417 19.626 14.725C19.8426 15.1083 19.951 15.5333 19.951 16L19.001 15.175V4.5C19.001 4.08333 18.851 3.73333 18.551 3.45C18.2676 3.15 17.9176 3 17.501 3H6.50098C6.08431 3 5.72598 3.15 5.42598 3.45C5.14264 3.73333 5.00098 4.08333 5.00098 4.5V15.175L4.05098 16Z" fill="black"/>
</g>
<defs>
<clipPath id="clip0_3208_22009">
<rect width="24" height="24" fill="white"/>
</clipPath>
</defs>
</svg>
