<svg width="24" height="24" viewBox="0 0 24 24" fill="none" xmlns="http://www.w3.org/2000/svg">
<g clip-path="url(#clip0_3208_22023)">
<rect width="24" height="24" fill="white"/>
<path d="M4.00049 4.5C4.00049 3.81667 4.24216 3.23333 4.72549 2.75C5.22549 2.25 5.81716 2 6.50049 2H17.5005C18.1838 2 18.7672 2.25 19.2505 2.75C19.7505 3.23333 20.0005 3.81667 20.0005 4.5V15.45C19.6838 15.0333 19.3172 14.7333 18.9005 14.55C18.4838 14.35 18.0172 14.25 17.5005 14.25H6.52549C6.00882 14.25 5.53382 14.35 5.10049 14.55C4.68382 14.7333 4.31716 15.0333 4.00049 15.45V4.5ZM16.6255 20.125C17.0588 20.125 17.4172 19.9833 17.7005 19.7C17.9838 19.4 18.1255 19.0417 18.1255 18.625C18.1255 18.1917 17.9838 17.8333 17.7005 17.55C17.4172 17.2667 17.0588 17.125 16.6255 17.125C16.2088 17.125 15.8505 17.2667 15.5505 17.55C15.2672 17.8333 15.1255 18.1917 15.1255 18.625C15.1255 19.0417 15.2672 19.4 15.5505 19.7C15.8505 19.9833 16.2088 20.125 16.6255 20.125ZM6.50049 22C5.80049 22 5.20882 21.7583 4.72549 21.275C4.24216 20.7917 4.00049 20.2 4.00049 19.5V17.75C4.00049 17.05 4.24216 16.4583 4.72549 15.975C5.20882 15.4917 5.80049 15.25 6.50049 15.25H17.5005C18.2005 15.25 18.7922 15.4917 19.2755 15.975C19.7588 16.4583 20.0005 17.05 20.0005 17.75V19.5C20.0005 20.2 19.7588 20.7917 19.2755 21.275C18.7922 21.7583 18.2005 22 17.5005 22H6.50049Z" fill="black"/>
</g>
<defs>
<clipPath id="clip0_3208_22023">
<rect width="24" height="24" fill="white"/>
</clipPath>
</defs>
</svg>
