<svg width="24" height="24" viewBox="0 0 24 24" fill="none" xmlns="http://www.w3.org/2000/svg">
<g clip-path="url(#clip0_3208_22019)">
<rect width="24" height="24" fill="white"/>
<path d="M13.701 17.675C13.1843 17.675 12.7343 17.4917 12.351 17.125C11.9843 16.7417 11.801 16.2833 11.801 15.75C11.801 15.2333 11.9843 14.7917 12.351 14.425C12.7343 14.0583 13.1926 13.875 13.726 13.875C14.2426 13.875 14.6843 14.0583 15.051 14.425C15.4176 14.7917 15.601 15.2417 15.601 15.775C15.601 16.2917 15.4176 16.7417 15.051 17.125C14.6843 17.4917 14.2343 17.675 13.701 17.675ZM13.701 15.775C13.4843 15.775 13.326 15.775 13.226 15.775C13.126 15.775 12.9676 15.775 12.751 15.775C12.9676 15.775 13.126 15.775 13.226 15.775C13.326 15.775 13.4843 15.775 13.701 15.775C13.9176 15.775 14.076 15.775 14.176 15.775C14.276 15.775 14.4343 15.775 14.651 15.775C14.4343 15.775 14.276 15.775 14.176 15.775C14.076 15.775 13.9176 15.775 13.701 15.775ZM7.50098 22C6.86764 22 6.27598 21.8417 5.72598 21.525C5.19264 21.225 4.76764 20.8083 4.45098 20.275C4.15098 19.725 4.00098 19.1333 4.00098 18.5V5.5C4.00098 4.85 4.15098 4.25833 4.45098 3.725C4.76764 3.19167 5.19264 2.775 5.72598 2.475C6.27598 2.15833 6.86764 2 7.50098 2H16.501C17.151 2 17.7426 2.15833 18.276 2.475C18.8093 2.775 19.226 3.19167 19.526 3.725C19.8426 4.25833 20.001 4.85 20.001 5.5V18.5C20.001 19.1333 19.8426 19.725 19.526 20.275C19.226 20.8083 18.8093 21.225 18.276 21.525C17.7426 21.8417 17.151 22 16.501 22H7.50098ZM7.55098 18.425C7.55098 18.4417 7.55931 18.4583 7.57598 18.475C7.59264 18.4917 7.60931 18.5 7.62598 18.5H16.376C16.3926 18.5 16.4093 18.4917 16.426 18.475C16.4426 18.4583 16.451 18.4417 16.451 18.425V13.075C16.451 13.0583 16.4426 13.0417 16.426 13.025C16.4093 13.0083 16.3926 13 16.376 13H7.62598C7.60931 13 7.59264 13.0083 7.57598 13.025C7.55931 13.0417 7.55098 13.0583 7.55098 13.075V18.425ZM5.00098 13.5C5.00098 12.85 5.11764 12.225 5.35098 11.625C5.58431 11.025 5.89264 10.5417 6.27598 10.175C6.67598 9.79167 7.10098 9.6 7.55098 9.6H16.451C16.901 9.6 17.3176 9.79167 17.701 10.175C18.101 10.5417 18.4176 11.025 18.651 11.625C18.8843 12.225 19.001 12.85 19.001 13.5L16.451 12.625V5.575C16.451 5.55833 16.4426 5.54167 16.426 5.525C16.4093 5.50833 16.3926 5.5 16.376 5.5H7.62598C7.60931 5.5 7.59264 5.50833 7.57598 5.525C7.55931 5.54167 7.55098 5.55833 7.55098 5.575V12.625L5.00098 13.5Z" fill="black"/>
</g>
<defs>
<clipPath id="clip0_3208_22019">
<rect width="24" height="24" fill="white"/>
</clipPath>
</defs>
</svg>
