<svg width="24" height="24" viewBox="0 0 24 24" fill="none" xmlns="http://www.w3.org/2000/svg">
<g clip-path="url(#clip0_3207_19214)">
<rect width="24" height="24" fill="white"/>
<path d="M5.17598 21C4.59264 21 4.05931 20.8583 3.57598 20.575C3.09264 20.2917 2.70931 19.9083 2.42598 19.425C2.14264 18.9417 2.00098 18.4083 2.00098 17.825V14.4L2.50098 14.15C2.50098 13.2667 2.74264 12.525 3.22598 11.925C3.72598 11.3083 4.37598 11 5.17598 11H9.50098V21H5.17598ZM7.10098 18.65V13.35H5.30098C5.05098 13.35 4.83431 13.4417 4.65098 13.625C4.48431 13.7917 4.40098 14.0083 4.40098 14.275V17.7C4.40098 17.9667 4.48431 18.1917 4.65098 18.375C4.83431 18.5583 5.05098 18.65 5.30098 18.65H7.10098ZM14.501 11H18.826C19.626 11 20.2676 11.3083 20.751 11.925C21.251 12.525 21.501 13.2667 21.501 14.15L22.001 14.4V17.825C22.001 18.4083 21.8593 18.9417 21.576 19.425C21.2926 19.9083 20.9093 20.2917 20.426 20.575C19.9426 20.8583 19.4093 21 18.826 21H14.501V11ZM18.701 18.65C18.951 18.65 19.1593 18.5667 19.326 18.4C19.5093 18.2167 19.601 17.9917 19.601 17.725V14.275C19.601 14.0083 19.5093 13.7917 19.326 13.625C19.1593 13.4417 18.951 13.35 18.701 13.35H16.901V18.65H18.701ZM2.00098 10.85C2.00098 9.23333 2.42598 7.79167 3.27598 6.525C4.12598 5.25833 5.30931 4.275 6.82598 3.575C8.34264 2.85833 10.0676 2.5 12.001 2.5C13.9343 2.5 15.6593 2.85833 17.176 3.575C18.6926 4.275 19.876 5.25833 20.726 6.525C21.576 7.79167 22.001 9.23333 22.001 10.85V15.725L19.551 11.925V10.825C19.551 9.675 19.226 8.65 18.576 7.75C17.9426 6.85 17.051 6.15 15.901 5.65C14.7676 5.13333 13.4676 4.875 12.001 4.875C10.5343 4.875 9.22598 5.13333 8.07598 5.65C6.94264 6.15 6.05098 6.85 5.40098 7.75C4.76764 8.65 4.45098 9.675 4.45098 10.825V12.025L2.00098 15.725V10.85Z" fill="black"/>
</g>
<defs>
<clipPath id="clip0_3207_19214">
<rect width="24" height="24" fill="white"/>
</clipPath>
</defs>
</svg>
