<svg width="24" height="24" viewBox="0 0 24 24" fill="none" xmlns="http://www.w3.org/2000/svg">
<g clip-path="url(#clip0_3207_19210)">
<rect width="24" height="24" fill="white"/>
<path d="M4.82598 21C4.30931 21 3.83431 20.875 3.40098 20.625C2.96764 20.375 2.62598 20.0333 2.37598 19.6C2.12598 19.1667 2.00098 18.6917 2.00098 18.175V14.475L2.35098 14.025C2.35098 13.275 2.59264 12.6417 3.07598 12.125C3.55931 11.5917 4.14264 11.325 4.82598 11.325H8.67598V21H4.82598ZM7.22598 19.6V12.725H4.82598C4.42598 12.725 4.09264 12.8667 3.82598 13.15C3.55931 13.4167 3.42598 13.7583 3.42598 14.175V18.175C3.42598 18.575 3.55931 18.9167 3.82598 19.2C4.09264 19.4667 4.42598 19.6 4.82598 19.6H7.22598ZM15.326 11.325H19.176C19.8593 11.325 20.4426 11.5917 20.926 12.125C21.4093 12.6417 21.651 13.275 21.651 14.025L22.001 14.475V18.175C22.001 18.6917 21.876 19.1667 21.626 19.6C21.376 20.0333 21.0343 20.375 20.601 20.625C20.1676 20.875 19.6926 21 19.176 21H15.326V11.325ZM19.176 19.6C19.576 19.6 19.9093 19.4667 20.176 19.2C20.4426 18.9167 20.576 18.575 20.576 18.175V14.175C20.576 13.7583 20.4426 13.4167 20.176 13.15C19.9093 12.8667 19.576 12.725 19.176 12.725H16.776V19.6H19.176ZM2.00098 10.975C2.00098 9.34167 2.42598 7.88333 3.27598 6.6C4.12598 5.3 5.30931 4.29167 6.82598 3.575C8.34264 2.85833 10.0676 2.5 12.001 2.5C13.9343 2.5 15.6593 2.85833 17.176 3.575C18.6926 4.29167 19.876 5.3 20.726 6.6C21.576 7.88333 22.001 9.34167 22.001 10.975V15.075L20.576 12.6V10.95C20.576 9.58333 20.2093 8.36667 19.476 7.3C18.7426 6.21667 17.726 5.38333 16.426 4.8C15.126 4.2 13.651 3.9 12.001 3.9C10.351 3.9 8.87598 4.2 7.57598 4.8C6.27598 5.38333 5.25931 6.21667 4.52598 7.3C3.79264 8.36667 3.42598 9.58333 3.42598 10.95V12.7L2.00098 15.075V10.975Z" fill="black"/>
</g>
<defs>
<clipPath id="clip0_3207_19210">
<rect width="24" height="24" fill="white"/>
</clipPath>
</defs>
</svg>
