<svg width="24" height="24" viewBox="0 0 24 24" fill="none" xmlns="http://www.w3.org/2000/svg">
<g clip-path="url(#clip0_3207_19232)">
<rect width="24" height="24" fill="white"/>
<path d="M5.50049 21C4.86716 21 4.28382 20.8417 3.75049 20.525C3.21716 20.1917 2.79216 19.7583 2.47549 19.225C2.15882 18.6917 2.00049 18.1167 2.00049 17.5V15.55L2.50049 15.825C2.50049 14.7417 2.74216 13.8333 3.22549 13.1C3.72549 12.3667 4.48382 12 5.50049 12H10.0005V21H5.50049ZM14.0005 12H18.5005C19.5172 12 20.2672 12.3667 20.7505 13.1C21.2505 13.8333 21.5005 14.7417 21.5005 15.825L22.0005 15.6V17.5C22.0005 18.1167 21.8422 18.6917 21.5255 19.225C21.2088 19.7583 20.7838 20.1917 20.2505 20.525C19.7172 20.8417 19.1338 21 18.5005 21H14.0005V12ZM2.00049 10.6C2.00049 9.03333 2.42549 7.64167 3.27549 6.425C4.12549 5.19167 5.30882 4.23333 6.82549 3.55C8.34216 2.85 10.0672 2.5 12.0005 2.5C13.9338 2.5 15.6588 2.85 17.1755 3.55C18.6922 4.23333 19.8755 5.19167 20.7255 6.425C21.5755 7.64167 22.0005 9.03333 22.0005 10.6V17.175L18.5005 12.7V10.6C18.5005 9.7 18.2255 8.9 17.6755 8.2C17.1255 7.48333 16.3588 6.93333 15.3755 6.55C14.3922 6.15 13.2672 5.95 12.0005 5.95C10.7338 5.95 9.60882 6.15 8.62549 6.55C7.64216 6.93333 6.87549 7.48333 6.32549 8.2C5.77549 8.9 5.50049 9.7 5.50049 10.6V12.7L2.00049 17.175V10.6Z" fill="black"/>
</g>
<defs>
<clipPath id="clip0_3207_19232">
<rect width="24" height="24" fill="white"/>
</clipPath>
</defs>
</svg>
