<svg width="24" height="24" viewBox="0 0 24 24" fill="none" xmlns="http://www.w3.org/2000/svg">
<g clip-path="url(#clip0_3207_20341)">
<rect width="24" height="24" fill="white"/>
<path d="M22.001 18.9C22.001 19.4667 21.8593 19.9917 21.576 20.475C21.3093 20.9417 20.9343 21.3083 20.451 21.575C19.9843 21.8583 19.4676 22 18.901 22H12.001V18.7H18.501C18.5176 18.7 18.526 18.7 18.526 18.7C18.526 18.7 18.526 18.6917 18.526 18.675L18.501 15L22.001 14.05V18.9ZM5.50098 17.5C4.86764 17.5 4.28431 17.3417 3.75098 17.025C3.21764 16.6917 2.79264 16.2583 2.47598 15.725C2.15931 15.1917 2.00098 14.6167 2.00098 14V13.05L2.50098 13.325C2.50098 12.1917 2.75098 11.1917 3.25098 10.325C3.75098 9.44167 4.50098 9 5.50098 9H10.251V17.5H5.50098ZM6.95098 14.325V12.15H5.90098C5.76764 12.15 5.65098 12.2 5.55098 12.3C5.45098 12.4 5.40098 12.5167 5.40098 12.65V13.825C5.40098 13.9583 5.45098 14.075 5.55098 14.175C5.65098 14.275 5.76764 14.325 5.90098 14.325H6.95098ZM13.751 9H18.501C19.501 9 20.251 9.44167 20.751 10.325C21.251 11.1917 21.501 12.1917 21.501 13.325L22.001 13.1V14C22.001 14.6 21.8176 15.175 21.451 15.725C21.101 16.2583 20.6343 16.6917 20.051 17.025C19.4843 17.3417 18.8843 17.5 18.251 17.5H13.751V9ZM18.101 14.325C18.2343 14.325 18.351 14.275 18.451 14.175C18.551 14.075 18.601 13.9583 18.601 13.825V12.675C18.601 12.5417 18.551 12.425 18.451 12.325C18.351 12.225 18.2343 12.175 18.101 12.175H17.026V14.325H18.101ZM2.00098 9.4C2.00098 7.8 2.40098 6.40833 3.20098 5.225C4.01764 4.025 5.17598 3.10833 6.67598 2.475C8.19264 1.825 9.96764 1.5 12.001 1.5C14.0343 1.5 15.801 1.825 17.301 2.475C18.8176 3.10833 19.976 4.025 20.776 5.225C21.5926 6.40833 22.001 7.8 22.001 9.4V14.175L18.501 10.2V9.4C18.501 8.5 18.2343 7.71667 17.701 7.05C17.1843 6.36667 16.4343 5.85 15.451 5.5C14.4676 5.13333 13.3176 4.95 12.001 4.95C10.6843 4.95 9.53431 5.13333 8.55098 5.5C7.56764 5.85 6.80931 6.36667 6.27598 7.05C5.75931 7.71667 5.50098 8.5 5.50098 9.4V10.2L2.00098 14.175V9.4Z" fill="black"/>
</g>
<defs>
<clipPath id="clip0_3207_20341">
<rect width="24" height="24" fill="white"/>
</clipPath>
</defs>
</svg>
