<svg width="24" height="24" viewBox="0 0 24 24" fill="none" xmlns="http://www.w3.org/2000/svg">
<g clip-path="url(#clip0_3207_20637)">
<rect width="24" height="24" fill="white"/>
<path d="M21.2755 19.275C20.7922 19.7583 20.2005 20 19.5005 20H4.50049C3.80049 20 3.20882 19.7583 2.72549 19.275C2.24216 18.7917 2.00049 18.2 2.00049 17.5V6.5C2.00049 5.8 2.24216 5.20833 2.72549 4.725C3.20882 4.24167 3.80049 4 4.50049 4H19.5005C20.2005 4 20.7922 4.24167 21.2755 4.725C21.7588 5.20833 22.0005 5.8 22.0005 6.5V17.5C22.0005 18.2 21.7588 18.7917 21.2755 19.275ZM8.75049 9.125C7.73382 9.55833 6.83382 10.175 6.05049 10.975L7.52549 12.4C8.10882 11.8 8.78382 11.3333 9.55049 11C10.3338 10.6667 11.1505 10.5 12.0005 10.5C12.8505 10.5 13.6588 10.6667 14.4255 11C15.2088 11.3333 15.8922 11.8 16.4755 12.4L17.9505 10.975C17.1672 10.175 16.2588 9.55833 15.2255 9.125C14.1922 8.675 13.1172 8.45 12.0005 8.45C10.8672 8.45 9.78382 8.675 8.75049 9.125ZM10.3755 13.025C9.87549 13.2417 9.42549 13.5583 9.02549 13.975L10.4755 15.4C10.6922 15.1833 10.9255 15.025 11.1755 14.925C11.4255 14.825 11.7005 14.775 12.0005 14.775C12.3005 14.775 12.5755 14.825 12.8255 14.925C13.0755 15.025 13.3088 15.1833 13.5255 15.4L14.9755 13.975C14.5755 13.5583 14.1172 13.2417 13.6005 13.025C13.1005 12.8083 12.5672 12.7 12.0005 12.7C11.4338 12.7 10.8922 12.8083 10.3755 13.025Z" fill="black"/>
</g>
<defs>
<clipPath id="clip0_3207_20637">
<rect width="24" height="24" fill="white"/>
</clipPath>
</defs>
</svg>
