<svg width="24" height="24" viewBox="0 0 24 24" fill="none" xmlns="http://www.w3.org/2000/svg">
<g clip-path="url(#clip0_3207_19032)">
<rect width="24" height="24" fill="white"/>
<path d="M5.00098 15.925C4.16764 15.925 3.45931 15.6333 2.87598 15.05C2.29264 14.4667 2.00098 13.7583 2.00098 12.925V6.075C2.00098 5.24167 2.29264 4.53333 2.87598 3.95C3.45931 3.36667 4.16764 3.075 5.00098 3.075H19.001C19.8343 3.075 20.5426 3.36667 21.126 3.95C21.7093 4.53333 22.001 5.24167 22.001 6.075V12.925C22.001 13.7583 21.7093 14.4667 21.126 15.05C20.5426 15.6333 19.8343 15.925 19.001 15.925H5.00098ZM19.001 13.875C19.251 13.875 19.4676 13.7833 19.651 13.6C19.8343 13.4167 19.926 13.1917 19.926 12.925V6.075C19.926 5.80833 19.8343 5.58333 19.651 5.4C19.4676 5.21667 19.251 5.125 19.001 5.125H5.00098C4.75098 5.125 4.53431 5.21667 4.35098 5.4C4.16764 5.58333 4.07598 5.80833 4.07598 6.075V12.925C4.07598 13.1917 4.16764 13.4167 4.35098 13.6C4.53431 13.7833 4.75098 13.875 5.00098 13.875H19.001ZM7.67598 10.25V12.225H5.60098V10.25H7.67598ZM14.826 10.25V12.225H9.17598V10.25H14.826ZM18.401 10.25V12.225H16.326V10.25H18.401ZM7.67598 6.775V8.75H5.60098V6.775H7.67598ZM11.251 6.775V8.75H9.17598V6.775H11.251ZM14.826 6.775V8.75H12.751V6.775H14.826ZM18.401 6.775V8.75H16.326V6.775H18.401ZM9.87598 17.925H12.026H14.226H15.576L12.001 21.5L8.42598 17.925H9.87598Z" fill="black"/>
</g>
<defs>
<clipPath id="clip0_3207_19032">
<rect width="24" height="24" fill="white"/>
</clipPath>
</defs>
</svg>
