<svg width="24" height="24" viewBox="0 0 24 24" fill="none" xmlns="http://www.w3.org/2000/svg">
<g clip-path="url(#clip0_3208_22085)">
<rect width="24" height="24" fill="white"/>
<path d="M6.47549 3.725C7.25882 3.24167 8.12549 2.875 9.07549 2.625C10.0422 2.375 11.0172 2.25 12.0005 2.25C13.0005 2.25 13.9755 2.375 14.9255 2.625C15.8755 2.875 16.7422 3.24167 17.5255 3.725L15.8255 6.475C15.3088 6.15833 14.7172 5.91667 14.0505 5.75C13.4005 5.58333 12.7172 5.5 12.0005 5.5C11.3005 5.5 10.6172 5.58333 9.95049 5.75C9.28382 5.91667 8.69216 6.15833 8.17549 6.475L6.47549 3.725ZM4.50049 21C3.81716 21 3.22549 20.7583 2.72549 20.275C2.24216 19.775 2.00049 19.1833 2.00049 18.5V10.5C2.00049 9.81667 2.24216 9.23333 2.72549 8.75C3.22549 8.25 3.81716 8 4.50049 8H19.5005C20.1838 8 20.7672 8.25 21.2505 8.75C21.7505 9.23333 22.0005 9.81667 22.0005 10.5V18.5C22.0005 19.1833 21.7505 19.775 21.2505 20.275C20.7672 20.7583 20.1838 21 19.5005 21H4.50049ZM5.35049 17.9H8.70049V15.25H5.35049V17.9ZM10.2005 17.9H13.8505V15.25H10.2005V17.9ZM15.3505 17.9H18.6255V15.25H15.3505V17.9ZM5.35049 13.75H8.70049V11.1H5.35049V13.75ZM10.2005 13.75H13.8505V11.1H10.2005V13.75ZM15.3505 13.75H18.6505V11.1H15.3505V13.75ZM17.1755 12.625H17.5255H17.1755Z" fill="black"/>
</g>
<defs>
<clipPath id="clip0_3208_22085">
<rect width="24" height="24" fill="white"/>
</clipPath>
</defs>
</svg>
