<svg width="24" height="24" viewBox="0 0 24 24" fill="none" xmlns="http://www.w3.org/2000/svg">
<g clip-path="url(#clip0_3207_18818)">
<rect width="24" height="24" fill="white"/>
<path d="M4.67598 20C4.17598 20 3.71764 19.8833 3.30098 19.65C2.90098 19.4167 2.58431 19.1 2.35098 18.7C2.11764 18.2833 2.00098 17.825 2.00098 17.325V6.675C2.00098 6.175 2.11764 5.725 2.35098 5.325C2.58431 4.90833 2.90098 4.58333 3.30098 4.35C3.71764 4.11667 4.17598 4 4.67598 4H19.326C19.826 4 20.276 4.11667 20.676 4.35C21.0926 4.58333 21.4176 4.90833 21.651 5.325C21.8843 5.725 22.001 6.175 22.001 6.675V17.325C22.001 17.825 21.8843 18.2833 21.651 18.7C21.4176 19.1 21.0926 19.4167 20.676 19.65C20.276 19.8833 19.826 20 19.326 20H4.67598ZM19.326 19.075C19.8093 19.075 20.2176 18.9083 20.551 18.575C20.8843 18.225 21.051 17.8083 21.051 17.325V6.675C21.051 6.19167 20.8843 5.78333 20.551 5.45C20.2176 5.1 19.8093 4.925 19.326 4.925H4.67598C4.19264 4.925 3.78431 5.1 3.45098 5.45C3.11764 5.78333 2.95098 6.19167 2.95098 6.675V17.325C2.95098 17.8083 3.11764 18.225 3.45098 18.575C3.78431 18.9083 4.19264 19.075 4.67598 19.075H19.326ZM7.17598 7.6V8.525H5.27598V7.6H7.17598ZM10.976 7.6V8.525H9.07598V7.6H10.976ZM14.926 7.6V8.525H13.026V7.6H14.926ZM18.726 7.6V8.525H16.826V7.6H18.726ZM7.17598 15.275V16.175H5.27598V15.275H7.17598ZM14.926 15.275V16.175H9.07598V15.275H14.926ZM18.726 15.275V16.175H16.826V15.275H18.726ZM7.17598 11.425V12.35H5.27598V11.425H7.17598ZM10.976 11.425V12.35H9.07598V11.425H10.976ZM14.926 11.425V12.35H13.026V11.425H14.926ZM18.726 11.425V12.35H16.826V11.425H18.726Z" fill="black"/>
</g>
<defs>
<clipPath id="clip0_3207_18818">
<rect width="24" height="24" fill="white"/>
</clipPath>
</defs>
</svg>
