<svg width="24" height="24" viewBox="0 0 24 24" fill="none" xmlns="http://www.w3.org/2000/svg">
<g clip-path="url(#clip0_3208_22069)">
<rect width="24" height="24" fill="white"/>
<path d="M5.07598 20.925C4.22598 20.925 3.50098 20.625 2.90098 20.025C2.30098 19.425 2.00098 18.6917 2.00098 17.825V11.175C2.00098 10.3083 2.30098 9.575 2.90098 8.975C3.50098 8.375 4.22598 8.075 5.07598 8.075H18.926C19.776 8.075 20.501 8.375 21.101 8.975C21.701 9.575 22.001 10.3083 22.001 11.175V17.825C22.001 18.6917 21.701 19.425 21.101 20.025C20.501 20.625 19.776 20.925 18.926 20.925H5.07598ZM18.901 18.425C19.051 18.425 19.176 18.375 19.276 18.275C19.3926 18.1583 19.451 18.0167 19.451 17.85V11.15C19.451 10.9833 19.3926 10.85 19.276 10.75C19.176 10.6333 19.051 10.575 18.901 10.575H5.10098C4.95098 10.575 4.81764 10.6333 4.70098 10.75C4.60098 10.85 4.55098 10.9833 4.55098 11.15V17.85C4.55098 18.0167 4.60098 18.1583 4.70098 18.275C4.81764 18.375 4.95098 18.425 5.10098 18.425H18.901ZM3.50098 15.35V17.15H3.25098V15.35H3.50098ZM13.851 19.55H13.701H13.851ZM13.951 19.55H13.901H13.951ZM3.50098 11.85V13.65H3.25098V11.85H3.50098ZM8.97598 13.225V15.775H6.17598V13.225H8.97598ZM13.376 13.225V15.775H10.601V13.225H13.376ZM17.826 13.225V15.775H15.026V13.225H17.826ZM6.55098 4.225C7.30098 3.64167 8.15098 3.20833 9.10098 2.925C10.051 2.625 11.0176 2.475 12.001 2.475C13.001 2.475 13.9676 2.625 14.901 2.925C15.851 3.20833 16.701 3.64167 17.451 4.225L15.901 6.475C15.3676 6.075 14.7593 5.775 14.076 5.575C13.4093 5.35833 12.7176 5.25 12.001 5.25C11.2843 5.25 10.5843 5.35833 9.90098 5.575C9.23431 5.775 8.63431 6.075 8.10098 6.475L6.55098 4.225Z" fill="black"/>
</g>
<defs>
<clipPath id="clip0_3208_22069">
<rect width="24" height="24" fill="white"/>
</clipPath>
</defs>
</svg>
