<svg width="24" height="24" viewBox="0 0 24 24" fill="none" xmlns="http://www.w3.org/2000/svg">
<g clip-path="url(#clip0_3207_19348)">
<rect width="24" height="24" fill="white"/>
<path d="M5.25098 21C4.33431 21 3.55931 20.6917 2.92598 20.075C2.30931 19.4417 2.00098 18.6667 2.00098 17.75V11.25C2.00098 10.3333 2.30931 9.56667 2.92598 8.95C3.55931 8.31667 4.33431 8 5.25098 8H18.751C19.6676 8 20.4343 8.31667 21.051 8.95C21.6843 9.56667 22.001 10.3333 22.001 11.25V17.75C22.001 18.6667 21.6843 19.4417 21.051 20.075C20.4343 20.6917 19.6676 21 18.751 21H5.25098ZM18.676 17.85C18.6926 17.85 18.7093 17.8417 18.726 17.825C18.7426 17.8083 18.751 17.7917 18.751 17.775V11.225C18.751 11.2083 18.7426 11.1917 18.726 11.175C18.7093 11.1583 18.6926 11.15 18.676 11.15H5.32598C5.29264 11.15 5.26764 11.1583 5.25098 11.175C5.25098 11.1917 5.25098 11.2083 5.25098 11.225V17.775C5.25098 17.7917 5.25931 17.8083 5.27598 17.825C5.29264 17.8417 5.30931 17.85 5.32598 17.85H18.676ZM4.17598 15.35V17.15H3.92598V15.35H4.17598ZM13.851 19.475H13.701H13.851ZM13.951 19.475H13.901H13.951ZM4.17598 11.85V13.65H3.92598V11.85H4.17598ZM9.32598 12.85V16.15H6.50098V12.85H9.32598ZM13.426 12.85V16.15H10.576V12.85H13.426ZM17.501 12.85V16.15H14.676V12.85H17.501ZM10.476 5.5C10.476 4.66667 10.7676 3.95833 11.351 3.375C11.9343 2.79167 12.6426 2.5 13.476 2.5H16.601V5.5H13.651C13.6343 5.5 13.6176 5.50833 13.601 5.525C13.5843 5.54167 13.576 5.55833 13.576 5.575V9.275H10.476V5.5Z" fill="black"/>
</g>
<defs>
<clipPath id="clip0_3207_19348">
<rect width="24" height="24" fill="white"/>
</clipPath>
</defs>
</svg>
