<svg width="24" height="24" viewBox="0 0 24 24" fill="none" xmlns="http://www.w3.org/2000/svg">
<g clip-path="url(#clip0_3207_19026)">
<rect width="24" height="24" fill="white"/>
<path d="M4.67598 16C3.92598 16 3.29264 15.7417 2.77598 15.225C2.25931 14.7083 2.00098 14.075 2.00098 13.325V5.675C2.00098 4.925 2.25931 4.29167 2.77598 3.775C3.29264 3.25833 3.92598 3 4.67598 3H19.326C20.076 3 20.7093 3.25833 21.226 3.775C21.7426 4.29167 22.001 4.925 22.001 5.675V13.325C22.001 14.075 21.7426 14.7083 21.226 15.225C20.7093 15.7417 20.076 16 19.326 16H4.67598ZM19.326 15.075C19.8093 15.075 20.2176 14.9083 20.551 14.575C20.8843 14.225 21.051 13.8083 21.051 13.325V5.675C21.051 5.175 20.8843 4.75833 20.551 4.425C20.2176 4.09167 19.8093 3.925 19.326 3.925H4.67598C4.19264 3.925 3.78431 4.09167 3.45098 4.425C3.11764 4.75833 2.95098 5.175 2.95098 5.675V13.325C2.95098 13.8083 3.11764 14.225 3.45098 14.575C3.78431 14.9083 4.19264 15.075 4.67598 15.075H19.326ZM7.17598 10.95V11.875H5.27598V10.95H7.17598ZM14.926 10.95V11.875H9.07598V10.95H14.926ZM18.726 10.95V11.875H16.826V10.95H18.726ZM7.17598 7.125V8.025H5.27598V7.125H7.17598ZM10.976 7.125V8.025H9.07598V7.125H10.976ZM14.926 7.125V8.025H13.026V7.125H14.926ZM18.726 7.125V8.025H16.826V7.125H18.726ZM12.001 20.225L14.576 17.55L15.251 18.25L12.001 21.5L8.75098 18.25L9.42598 17.55L12.001 20.225Z" fill="black"/>
</g>
<defs>
<clipPath id="clip0_3207_19026">
<rect width="24" height="24" fill="white"/>
</clipPath>
</defs>
</svg>
