<svg width="24" height="24" viewBox="0 0 24 24" fill="none" xmlns="http://www.w3.org/2000/svg">
<g clip-path="url(#clip0_3207_18402)">
<rect width="24" height="24" fill="white"/>
<path d="M4.50098 16C3.80098 16 3.20931 15.7583 2.72598 15.275C2.24264 14.7917 2.00098 14.2 2.00098 13.5V5.5C2.00098 4.8 2.24264 4.20833 2.72598 3.725C3.20931 3.24167 3.80098 3 4.50098 3H19.501C20.201 3 20.7926 3.24167 21.276 3.725C21.7593 4.20833 22.001 4.8 22.001 5.5V13.5C22.001 14.2 21.7593 14.7917 21.276 15.275C20.7926 15.7583 20.201 16 19.501 16H4.50098ZM19.501 15.525C20.0676 15.525 20.5426 15.3333 20.926 14.95C21.3093 14.55 21.501 14.0667 21.501 13.5V5.5C21.501 4.93333 21.3093 4.45833 20.926 4.075C20.5426 3.675 20.0676 3.475 19.501 3.475H4.50098C3.93431 3.475 3.45931 3.675 3.07598 4.075C2.69264 4.45833 2.50098 4.93333 2.50098 5.5V13.5C2.50098 14.0667 2.69264 14.55 3.07598 14.95C3.45931 15.3333 3.93431 15.525 4.50098 15.525H19.501ZM7.00098 11.25V11.725H5.10098V11.25H7.00098ZM15.001 11.25V11.725H9.00098V11.25H15.001ZM18.901 11.25V11.725H17.001V11.25H18.901ZM7.00098 7.25V7.725H5.10098V7.25H7.00098ZM10.901 7.25V7.725H9.00098V7.25H10.901ZM15.001 7.25V7.725H13.101V7.25H15.001ZM18.901 7.25V7.725H17.001V7.25H18.901ZM12.001 20.8L14.926 17.875L15.276 18.225L12.001 21.5L8.72598 18.225L9.07598 17.875L12.001 20.8Z" fill="black"/>
</g>
<defs>
<clipPath id="clip0_3207_18402">
<rect width="24" height="24" fill="white"/>
</clipPath>
</defs>
</svg>
