<svg width="24" height="24" viewBox="0 0 24 24" fill="none" xmlns="http://www.w3.org/2000/svg">
<g clip-path="url(#clip0_3207_18610)">
<rect width="24" height="24" fill="white"/>
<path d="M4.67598 21C3.92598 21 3.29264 20.7417 2.77598 20.225C2.25931 19.7083 2.00098 19.075 2.00098 18.325V10.675C2.00098 9.90833 2.25931 9.275 2.77598 8.775C3.29264 8.25833 3.92598 8 4.67598 8H19.326C20.0926 8 20.726 8.25833 21.226 8.775C21.7426 9.275 22.001 9.90833 22.001 10.675V18.325C22.001 19.075 21.7426 19.7083 21.226 20.225C20.726 20.7417 20.0926 21 19.326 21H4.67598ZM19.326 20.1C19.826 20.1 20.2343 19.9333 20.551 19.6C20.8843 19.25 21.051 18.825 21.051 18.325V10.675C21.051 10.175 20.8843 9.75833 20.551 9.425C20.2343 9.075 19.826 8.9 19.326 8.9H4.67598C4.17598 8.9 3.75931 9.075 3.42598 9.425C3.10931 9.75833 2.95098 10.175 2.95098 10.675V18.325C2.95098 18.825 3.10931 19.25 3.42598 19.6C3.75931 19.9333 4.17598 20.1 4.67598 20.1H19.326ZM7.17598 15.95V16.85H5.27598V15.95H7.17598ZM14.926 15.95V16.85H9.07598V15.95H14.926ZM18.726 15.95V16.85H16.826V15.95H18.726ZM7.17598 12.125V13.025H5.27598V12.125H7.17598ZM10.976 12.125V13.025H9.07598V12.125H10.976ZM14.926 12.125V13.025H13.026V12.125H14.926ZM18.726 12.125V13.025H16.826V12.125H18.726ZM8.75098 5.75L12.001 2.5L15.251 5.75L14.576 6.45L12.001 3.775L9.42598 6.45L8.75098 5.75Z" fill="black"/>
</g>
<defs>
<clipPath id="clip0_3207_18610">
<rect width="24" height="24" fill="white"/>
</clipPath>
</defs>
</svg>
