<svg width="24" height="24" viewBox="0 0 24 24" fill="none" xmlns="http://www.w3.org/2000/svg">
<g clip-path="url(#clip0_3208_22063)">
<rect width="24" height="24" fill="white"/>
<path d="M4.82598 21C4.04264 21 3.37598 20.725 2.82598 20.175C2.27598 19.625 2.00098 18.9583 2.00098 18.175V10.825C2.00098 10.0417 2.27598 9.375 2.82598 8.825C3.37598 8.275 4.04264 8 4.82598 8H19.176C19.9593 8 20.626 8.275 21.176 8.825C21.726 9.375 22.001 10.0417 22.001 10.825V18.175C22.001 18.9583 21.726 19.625 21.176 20.175C20.626 20.725 19.9593 21 19.176 21H4.82598ZM19.176 19.65C19.576 19.65 19.9093 19.5083 20.176 19.225C20.4593 18.925 20.601 18.575 20.601 18.175V10.825C20.601 10.425 20.4593 10.0833 20.176 9.8C19.9093 9.5 19.576 9.35 19.176 9.35H4.82598C4.42598 9.35 4.08431 9.5 3.80098 9.8C3.53431 10.0833 3.40098 10.425 3.40098 10.825V18.175C3.40098 18.575 3.53431 18.925 3.80098 19.225C4.08431 19.5083 4.42598 19.65 4.82598 19.65H19.176ZM7.32598 15.65V17H5.42598V15.65H7.32598ZM14.826 15.65V17H9.17598V15.65H14.826ZM18.576 15.65V17H16.676V15.65H18.576ZM7.32598 11.975V13.35H5.42598V11.975H7.32598ZM11.076 11.975V13.35H9.17598V11.975H11.076ZM14.826 11.975V13.35H12.926V11.975H14.826ZM18.576 11.975V13.35H16.676V11.975H18.576ZM6.82598 4.4C7.52598 3.68333 8.32598 3.14167 9.22598 2.775C10.126 2.40833 11.051 2.225 12.001 2.225C12.951 2.225 13.876 2.40833 14.776 2.775C15.676 3.14167 16.476 3.68333 17.176 4.4L16.176 5.35C15.6093 4.76667 14.9676 4.325 14.251 4.025C13.5343 3.725 12.7843 3.575 12.001 3.575C11.2343 3.575 10.4843 3.725 9.75098 4.025C9.03431 4.325 8.39264 4.76667 7.82598 5.35L6.82598 4.4Z" fill="black"/>
</g>
<defs>
<clipPath id="clip0_3208_22063">
<rect width="24" height="24" fill="white"/>
</clipPath>
</defs>
</svg>
