<svg width="24" height="24" viewBox="0 0 24 24" fill="none" xmlns="http://www.w3.org/2000/svg">
<g clip-path="url(#clip0_3207_19352)">
<rect width="24" height="24" fill="white"/>
<path d="M4.50049 21C3.81716 21 3.22549 20.7583 2.72549 20.275C2.24216 19.775 2.00049 19.1833 2.00049 18.5V10.5C2.00049 9.81667 2.24216 9.23333 2.72549 8.75C3.22549 8.25 3.81716 8 4.50049 8H19.5005C20.1838 8 20.7672 8.25 21.2505 8.75C21.7505 9.23333 22.0005 9.81667 22.0005 10.5V18.5C22.0005 19.1833 21.7505 19.775 21.2505 20.275C20.7672 20.7583 20.1838 21 19.5005 21H4.50049ZM5.10049 17.4H7.25049V15.35H5.10049V17.4ZM9.00049 17.4H15.0005V15.35H9.00049V17.4ZM16.7505 17.4H18.9005V15.35H16.7505V17.4ZM5.10049 13.65H7.25049V11.6H5.10049V13.65ZM9.00049 13.65H11.1505V11.6H9.00049V13.65ZM12.8505 13.65H15.0005V11.6H12.8505V13.65ZM16.7505 13.65H18.9005V11.6H16.7505V13.65ZM11.5505 5.075C11.5505 4.34167 11.7922 3.73333 12.2755 3.25C12.7755 2.75 13.3838 2.5 14.1005 2.5H16.6005V3.4H14.1005C13.6505 3.4 13.2672 3.56667 12.9505 3.9C12.6505 4.21667 12.5005 4.60833 12.5005 5.075V8.775H11.5505V5.075Z" fill="black"/>
</g>
<defs>
<clipPath id="clip0_3207_19352">
<rect width="24" height="24" fill="white"/>
</clipPath>
</defs>
</svg>
