<svg width="24" height="24" viewBox="0 0 24 24" fill="none" xmlns="http://www.w3.org/2000/svg">
<g clip-path="url(#clip0_3207_18614)">
<rect width="24" height="24" fill="white"/>
<path d="M5.00098 21C4.16764 21 3.45931 20.7083 2.87598 20.125C2.29264 19.5417 2.00098 18.8333 2.00098 18V11C2.00098 10.1667 2.29264 9.45833 2.87598 8.875C3.45931 8.29167 4.16764 8 5.00098 8H19.001C19.8343 8 20.5426 8.29167 21.126 8.875C21.7093 9.45833 22.001 10.1667 22.001 11V18C22.001 18.8333 21.7093 19.5417 21.126 20.125C20.5426 20.7083 19.8343 21 19.001 21H5.00098ZM19.001 19.2C19.3176 19.2 19.5843 19.0833 19.801 18.85C20.0343 18.6167 20.151 18.3333 20.151 18V11C20.151 10.6667 20.0343 10.3833 19.801 10.15C19.5843 9.91667 19.3176 9.8 19.001 9.8H5.00098C4.68431 9.8 4.40931 9.91667 4.17598 10.15C3.95931 10.3833 3.85098 10.6667 3.85098 11V18C3.85098 18.3333 3.95931 18.6167 4.17598 18.85C4.40931 19.0833 4.68431 19.2 5.00098 19.2H19.001ZM7.50098 15.35V17.15H5.60098V15.35H7.50098ZM14.751 15.35V17.15H9.25098V15.35H14.751ZM18.401 15.35V17.15H16.501V15.35H18.401ZM7.50098 11.85V13.65H5.60098V11.85H7.50098ZM11.151 11.85V13.65H9.25098V11.85H11.151ZM14.751 11.85V13.65H12.851V11.85H14.751ZM18.401 11.85V13.65H16.501V11.85H18.401ZM12.001 2.5L15.251 5.75H13.976H12.101H10.001H8.75098L12.001 2.5Z" fill="black"/>
</g>
<defs>
<clipPath id="clip0_3207_18614">
<rect width="24" height="24" fill="white"/>
</clipPath>
</defs>
</svg>
