<svg width="24" height="24" viewBox="0 0 24 24" fill="none" xmlns="http://www.w3.org/2000/svg">
<g clip-path="url(#clip0_3208_22079)">
<rect width="24" height="24" fill="white"/>
<path d="M6.67549 4.5C7.39216 3.75 8.20882 3.19167 9.12549 2.825C10.0588 2.44167 11.0172 2.25 12.0005 2.25C12.9838 2.25 13.9338 2.44167 14.8505 2.825C15.7838 3.19167 16.6088 3.75 17.3255 4.5L16.0255 5.75C15.4755 5.2 14.8505 4.78333 14.1505 4.5C13.4672 4.2 12.7505 4.05 12.0005 4.05C11.2672 4.05 10.5505 4.2 9.85049 4.5C9.15049 4.78333 8.52549 5.2 7.97549 5.75L6.67549 4.5ZM4.50049 21C3.81716 21 3.22549 20.7583 2.72549 20.275C2.24216 19.775 2.00049 19.1833 2.00049 18.5V10.5C2.00049 9.81667 2.24216 9.23333 2.72549 8.75C3.22549 8.25 3.81716 8 4.50049 8H19.5005C20.1838 8 20.7672 8.25 21.2505 8.75C21.7505 9.23333 22.0005 9.81667 22.0005 10.5V18.5C22.0005 19.1833 21.7505 19.775 21.2505 20.275C20.7672 20.7583 20.1838 21 19.5005 21H4.50049ZM5.10049 17.4H7.25049V15.35H5.10049V17.4ZM9.00049 17.4H15.0005V15.35H9.00049V17.4ZM16.7505 17.4H18.9005V15.35H16.7505V17.4ZM5.10049 13.65H7.25049V11.6H5.10049V13.65ZM9.00049 13.65H11.1505V11.6H9.00049V13.65ZM12.8505 13.65H15.0005V11.6H12.8505V13.65ZM16.7505 13.65H18.9005V11.6H16.7505V13.65Z" fill="black"/>
</g>
<defs>
<clipPath id="clip0_3208_22079">
<rect width="24" height="24" fill="white"/>
</clipPath>
</defs>
</svg>
