<svg width="24" height="24" viewBox="0 0 24 24" fill="none" xmlns="http://www.w3.org/2000/svg">
<g clip-path="url(#clip0_3207_18616)">
<rect width="24" height="24" fill="white"/>
<path d="M5.00098 20.925C4.16764 20.925 3.45931 20.6333 2.87598 20.05C2.29264 19.4667 2.00098 18.7583 2.00098 17.925V11.075C2.00098 10.2417 2.29264 9.53333 2.87598 8.95C3.45931 8.36667 4.16764 8.075 5.00098 8.075H19.001C19.8343 8.075 20.5426 8.36667 21.126 8.95C21.7093 9.53333 22.001 10.2417 22.001 11.075V17.925C22.001 18.7583 21.7093 19.4667 21.126 20.05C20.5426 20.6333 19.8343 20.925 19.001 20.925H5.00098ZM19.001 18.875C19.251 18.875 19.4676 18.7833 19.651 18.6C19.8343 18.4167 19.926 18.1917 19.926 17.925V11.075C19.926 10.8083 19.8343 10.5833 19.651 10.4C19.4676 10.2167 19.251 10.125 19.001 10.125H5.00098C4.75098 10.125 4.53431 10.2167 4.35098 10.4C4.16764 10.5833 4.07598 10.8083 4.07598 11.075V17.925C4.07598 18.1917 4.16764 18.4167 4.35098 18.6C4.53431 18.7833 4.75098 18.875 5.00098 18.875H19.001ZM7.67598 15.25V17.225H5.60098V15.25H7.67598ZM14.826 15.25V17.225H9.17598V15.25H14.826ZM18.401 15.25V17.225H16.326V15.25H18.401ZM7.67598 11.775V13.75H5.60098V11.775H7.67598ZM11.251 11.775V13.75H9.17598V11.775H11.251ZM14.826 11.775V13.75H12.751V11.775H14.826ZM18.401 11.775V13.75H16.326V11.775H18.401ZM12.001 2.5L15.576 6.075H14.201H12.026H9.87598H8.42598L12.001 2.5Z" fill="black"/>
</g>
<defs>
<clipPath id="clip0_3207_18616">
<rect width="24" height="24" fill="white"/>
</clipPath>
</defs>
</svg>
