<svg width="24" height="24" viewBox="0 0 24 24" fill="none" xmlns="http://www.w3.org/2000/svg">
<g clip-path="url(#clip0_3207_18836)">
<rect width="24" height="24" fill="white"/>
<path d="M5.00049 20C4.16716 20 3.45882 19.7083 2.87549 19.125C2.29216 18.5417 2.00049 17.8333 2.00049 17V7C2.00049 6.16667 2.29216 5.45833 2.87549 4.875C3.45882 4.29167 4.16716 4 5.00049 4H19.0005C19.8338 4 20.5422 4.29167 21.1255 4.875C21.7088 5.45833 22.0005 6.16667 22.0005 7V17C22.0005 17.8333 21.7088 18.5417 21.1255 19.125C20.5422 19.7083 19.8338 20 19.0005 20H5.00049ZM4.10049 9.2H6.75049V7.2H4.10049V9.2ZM8.50049 9.2H11.1505V7.2H8.50049V9.2ZM12.8505 9.2H15.5005V7.2H12.8505V9.2ZM17.2505 9.2H19.9005V7.2H17.2505V9.2ZM4.10049 16.6H6.75049V14.6H4.10049V16.6ZM8.50049 16.6H15.5005V14.6H8.50049V16.6ZM17.2505 16.6H19.9005V14.6H17.2505V16.6ZM4.10049 12.9H6.75049V10.9H4.10049V12.9ZM8.50049 12.9H11.1505V10.9H8.50049V12.9ZM12.8505 12.9H15.5005V10.9H12.8505V12.9ZM17.2505 12.9H19.9005V10.9H17.2505V12.9Z" fill="black"/>
</g>
<defs>
<clipPath id="clip0_3207_18836">
<rect width="24" height="24" fill="white"/>
</clipPath>
</defs>
</svg>
