<svg width="24" height="24" viewBox="0 0 24 24" fill="none" xmlns="http://www.w3.org/2000/svg">
<g clip-path="url(#clip0_3207_18820)">
<rect width="24" height="24" fill="white"/>
<path d="M4.82598 20C4.30931 20 3.83431 19.875 3.40098 19.625C2.96764 19.375 2.62598 19.0333 2.37598 18.6C2.12598 18.1667 2.00098 17.6917 2.00098 17.175V6.825C2.00098 6.30833 2.12598 5.83333 2.37598 5.4C2.62598 4.96667 2.96764 4.625 3.40098 4.375C3.83431 4.125 4.30931 4 4.82598 4H19.176C19.6926 4 20.1676 4.125 20.601 4.375C21.0343 4.625 21.376 4.96667 21.626 5.4C21.876 5.83333 22.001 6.30833 22.001 6.825V17.175C22.001 17.6917 21.876 18.1667 21.626 18.6C21.376 19.0333 21.0343 19.375 20.601 19.625C20.1676 19.875 19.6926 20 19.176 20H4.82598ZM19.176 18.65C19.5593 18.65 19.8926 18.5083 20.176 18.225C20.4593 17.925 20.601 17.575 20.601 17.175V6.825C20.601 6.425 20.4593 6.08333 20.176 5.8C19.8926 5.5 19.5593 5.35 19.176 5.35H4.82598C4.44264 5.35 4.10931 5.5 3.82598 5.8C3.54264 6.08333 3.40098 6.425 3.40098 6.825V17.175C3.40098 17.575 3.54264 17.925 3.82598 18.225C4.10931 18.5083 4.44264 18.65 4.82598 18.65H19.176ZM7.32598 7.55V8.9H5.42598V7.55H7.32598ZM11.076 7.55V8.9H9.17598V7.55H11.076ZM14.826 7.55V8.9H12.926V7.55H14.826ZM18.576 7.55V8.9H16.676V7.55H18.576ZM7.32598 14.875V16.25H5.42598V14.875H7.32598ZM14.826 14.875V16.25H9.17598V14.875H14.826ZM18.576 14.875V16.25H16.676V14.875H18.576ZM7.32598 11.225V12.575H5.42598V11.225H7.32598ZM11.076 11.225V12.575H9.17598V11.225H11.076ZM14.826 11.225V12.575H12.926V11.225H14.826ZM18.576 11.225V12.575H16.676V11.225H18.576Z" fill="black"/>
</g>
<defs>
<clipPath id="clip0_3207_18820">
<rect width="24" height="24" fill="white"/>
</clipPath>
</defs>
</svg>
