<svg width="24" height="24" viewBox="0 0 24 24" fill="none" xmlns="http://www.w3.org/2000/svg">
<g clip-path="url(#clip0_3207_18612)">
<rect width="24" height="24" fill="white"/>
<path d="M4.82598 21C4.04264 21 3.37598 20.725 2.82598 20.175C2.27598 19.625 2.00098 18.9583 2.00098 18.175V10.825C2.00098 10.0417 2.27598 9.375 2.82598 8.825C3.37598 8.275 4.04264 8 4.82598 8H19.176C19.976 8 20.6426 8.275 21.176 8.825C21.726 9.35833 22.001 10.025 22.001 10.825V18.175C22.001 18.9583 21.726 19.625 21.176 20.175C20.626 20.725 19.9593 21 19.176 21H4.82598ZM19.176 19.625C19.576 19.625 19.9093 19.4833 20.176 19.2C20.4593 18.9167 20.601 18.575 20.601 18.175V10.825C20.601 10.425 20.4593 10.0833 20.176 9.8C19.9093 9.5 19.576 9.35 19.176 9.35H4.82598C4.44264 9.35 4.10931 9.5 3.82598 9.8C3.54264 10.0833 3.40098 10.425 3.40098 10.825V18.175C3.40098 18.575 3.54264 18.9167 3.82598 19.2C4.10931 19.4833 4.44264 19.625 4.82598 19.625H19.176ZM7.32598 15.65V17H5.42598V15.65H7.32598ZM14.826 15.65V17H9.17598V15.65H14.826ZM18.576 15.65V17H16.676V15.65H18.576ZM7.32598 11.975V13.325H5.42598V11.975H7.32598ZM11.076 11.975V13.325H9.17598V11.975H11.076ZM14.826 11.975V13.325H12.926V11.975H14.826ZM18.576 11.975V13.325H16.676V11.975H18.576ZM12.001 2.5L14.751 5.25H13.676H12.076H10.301H9.25098L12.001 2.5Z" fill="black"/>
</g>
<defs>
<clipPath id="clip0_3207_18612">
<rect width="24" height="24" fill="white"/>
</clipPath>
</defs>
</svg>
