<svg width="24" height="24" viewBox="0 0 24 24" fill="none" xmlns="http://www.w3.org/2000/svg">
<g clip-path="url(#clip0_3207_18842)">
<rect width="24" height="24" fill="white"/>
<path d="M5.00049 20C4.16716 20 3.45882 19.7083 2.87549 19.125C2.29216 18.5417 2.00049 17.8333 2.00049 17V7C2.00049 6.16667 2.29216 5.45833 2.87549 4.875C3.45882 4.29167 4.16716 4 5.00049 4H19.0005C19.8338 4 20.5422 4.29167 21.1255 4.875C21.7088 5.45833 22.0005 6.16667 22.0005 7V17C22.0005 17.8333 21.7088 18.5417 21.1255 19.125C20.5422 19.7083 19.8338 20 19.0005 20H5.00049ZM6.57549 14.05H6.62549H6.57549ZM5.35049 11.125H8.62549V8.075H5.35049V11.125ZM10.3755 11.125H13.6255V8.075H10.3755V11.125ZM15.3755 11.125H18.6505V8.075H15.3755V11.125ZM6.57549 14.05H6.62549H6.57549ZM6.67549 14.05H6.80049H6.67549ZM6.85049 14.05H6.90049H6.85049ZM6.57549 14.05H6.62549H6.57549ZM5.35049 15.925H8.62549V12.875H5.35049V15.925ZM10.3755 15.925H13.6255V12.875H10.3755V15.925ZM15.3755 15.925H18.6505V12.875H15.3755V15.925Z" fill="black"/>
</g>
<defs>
<clipPath id="clip0_3207_18842">
<rect width="24" height="24" fill="white"/>
</clipPath>
</defs>
</svg>
