<svg width="24" height="24" viewBox="0 0 24 24" fill="none" xmlns="http://www.w3.org/2000/svg">
<g clip-path="url(#clip0_3207_18832)">
<rect width="24" height="24" fill="white"/>
<path d="M5.00049 20C4.16716 20 3.45882 19.7083 2.87549 19.125C2.29216 18.5417 2.00049 17.8333 2.00049 17V7C2.00049 6.16667 2.29216 5.45833 2.87549 4.875C3.45882 4.29167 4.16716 4 5.00049 4H19.0005C19.8338 4 20.5422 4.29167 21.1255 4.875C21.7088 5.45833 22.0005 6.16667 22.0005 7V17C22.0005 17.8333 21.7088 18.5417 21.1255 19.125C20.5422 19.7083 19.8338 20 19.0005 20H5.00049ZM4.10049 9.75H7.17549V7.2H4.10049V9.75ZM8.07549 9.75H11.5505V7.2H8.07549V9.75ZM12.4505 9.75H15.9255V7.2H12.4505V9.75ZM16.8255 9.75H19.9005V7.2H16.8255V9.75ZM4.10049 16.6H7.17549V14.05H4.10049V16.6ZM8.07549 16.6H15.9255V14.05H8.07549V16.6ZM16.8255 16.6H19.9005V14.05H16.8255V16.6ZM4.10049 13.175H7.17549V10.625H4.10049V13.175ZM8.07549 13.175H11.5505V10.625H8.07549V13.175ZM12.4505 13.175H15.9255V10.625H12.4505V13.175ZM16.8255 13.175H19.9005V10.625H16.8255V13.175Z" fill="black"/>
</g>
<defs>
<clipPath id="clip0_3207_18832">
<rect width="24" height="24" fill="white"/>
</clipPath>
</defs>
</svg>
