<svg width="24" height="24" viewBox="0 0 24 24" fill="none" xmlns="http://www.w3.org/2000/svg">
<g clip-path="url(#clip0_3208_22071)">
<rect width="24" height="24" fill="white"/>
<path d="M5.25098 21C4.33431 21 3.55931 20.6917 2.92598 20.075C2.30931 19.4417 2.00098 18.6667 2.00098 17.75V11.25C2.00098 10.3333 2.30931 9.56667 2.92598 8.95C3.55931 8.31667 4.33431 8 5.25098 8H18.751C19.6676 8 20.4343 8.31667 21.051 8.95C21.6843 9.56667 22.001 10.3333 22.001 11.25V17.75C22.001 18.6667 21.6843 19.4417 21.051 20.075C20.4343 20.6917 19.6676 21 18.751 21H5.25098ZM18.476 17.675C18.4926 17.675 18.5093 17.6667 18.526 17.65C18.5426 17.6333 18.551 17.6167 18.551 17.6V11.4C18.551 11.3833 18.5426 11.3667 18.526 11.35C18.5093 11.3333 18.4926 11.325 18.476 11.325H5.52598C5.49264 11.325 5.46764 11.3333 5.45098 11.35C5.45098 11.3667 5.45098 11.3833 5.45098 11.4V17.6C5.45098 17.6167 5.45931 17.6333 5.47598 17.65C5.49264 17.6667 5.50931 17.675 5.52598 17.675H18.476ZM4.17598 15.35V17.05L3.92598 17.1V15.35H4.17598ZM13.851 19.475H13.701H13.851ZM13.951 19.475H13.901H13.951ZM4.17598 11.85V13.65H3.92598V11.85H4.17598ZM9.57598 12.85V16.15H6.50098V12.85H9.57598ZM13.526 12.85V16.15H10.451V12.85H13.526ZM17.501 12.85V16.15H14.426V12.85H17.501ZM6.47598 4.1C7.25931 3.61667 8.12598 3.25 9.07598 3C10.0426 2.75 11.0176 2.625 12.001 2.625C13.001 2.625 13.976 2.75 14.926 3C15.876 3.25 16.7426 3.61667 17.526 4.1L15.826 6.85C15.3093 6.53333 14.7176 6.29167 14.051 6.125C13.401 5.95833 12.7176 5.875 12.001 5.875C11.301 5.875 10.6176 5.95833 9.95098 6.125C9.28431 6.29167 8.69264 6.53333 8.17598 6.85L6.47598 4.1Z" fill="black"/>
</g>
<defs>
<clipPath id="clip0_3208_22071">
<rect width="24" height="24" fill="white"/>
</clipPath>
</defs>
</svg>
