<svg width="24" height="24" viewBox="0 0 24 24" fill="none" xmlns="http://www.w3.org/2000/svg">
<g clip-path="url(#clip0_3207_18880)">
<rect width="24" height="24" fill="white"/>
<path d="M3.00098 5.9C3.00098 5.36667 3.18431 4.91667 3.55098 4.55C3.91764 4.18333 4.36764 4 4.90098 4H19.101C19.6343 4 20.0843 4.18333 20.451 4.55C20.8176 4.91667 21.001 5.36667 21.001 5.9V19.3H3.00098V5.9ZM17.251 17.35V7.775C17.251 7.75833 17.2426 7.74167 17.226 7.725C17.226 7.70833 17.2093 7.7 17.176 7.7H6.82598C6.80931 7.7 6.79264 7.70833 6.77598 7.725C6.75931 7.725 6.75098 7.74167 6.75098 7.775V17.35H17.251ZM23.001 16.3V20H1.00098V16.3H23.001Z" fill="black"/>
</g>
<defs>
<clipPath id="clip0_3207_18880">
<rect width="24" height="24" fill="white"/>
</clipPath>
</defs>
</svg>
