<svg width="24" height="24" viewBox="0 0 24 24" fill="none" xmlns="http://www.w3.org/2000/svg">
<g clip-path="url(#clip0_3207_20321)">
<rect width="24" height="24" fill="white"/>
<path d="M11.0005 20.3C9.40049 20.3 7.95049 19.9333 6.65049 19.2C5.36716 18.4667 4.35049 17.4583 3.60049 16.175C2.86716 14.875 2.50049 13.4333 2.50049 11.85V11H3.92549V11.85C3.92549 13.1833 4.23382 14.3917 4.85049 15.475C5.46716 16.5417 6.30882 17.3833 7.37549 18C8.45882 18.6167 9.66716 18.925 11.0005 18.925C12.3338 18.925 13.5338 18.6167 14.6005 18C15.6838 17.3833 16.5338 16.5417 17.1505 15.475C17.7672 14.3917 18.0755 13.1833 18.0755 11.85V11H19.5005V11.85C19.5005 13.4333 19.1255 14.875 18.3755 16.175C17.6422 17.4583 16.6255 18.4667 15.3255 19.2C14.0422 19.9333 12.6005 20.3 11.0005 20.3ZM10.2755 19.575H11.7255V23H10.2755V19.575ZM11.0005 15.85C10.2672 15.85 9.59216 15.675 8.97549 15.325C8.35882 14.975 7.87549 14.4917 7.52549 13.875C7.17549 13.2583 7.00049 12.5833 7.00049 11.85V5C7.00049 4.26667 7.17549 3.59167 7.52549 2.975C7.87549 2.35833 8.35882 1.875 8.97549 1.525C9.59216 1.175 10.2672 1 11.0005 1C11.7338 1 12.4088 1.175 13.0255 1.525C13.6422 1.875 14.1255 2.35833 14.4755 2.975C14.8255 3.59167 15.0005 4.26667 15.0005 5V11.85C15.0005 12.5833 14.8255 13.2583 14.4755 13.875C14.1255 14.4917 13.6422 14.975 13.0255 15.325C12.4088 15.675 11.7338 15.85 11.0005 15.85ZM17.6255 1.075L19.9505 3.45L22.2755 1.075L23.1505 1.975L20.8005 4.3L23.1505 6.625L22.2755 7.525L19.9505 5.15L17.6255 7.525L16.7255 6.625L19.0755 4.3L16.7255 1.975L17.6255 1.075Z" fill="black"/>
</g>
<defs>
<clipPath id="clip0_3207_20321">
<rect width="24" height="24" fill="white"/>
</clipPath>
</defs>
</svg>
