<svg width="24" height="24" viewBox="0 0 24 24" fill="none" xmlns="http://www.w3.org/2000/svg">
<g clip-path="url(#clip0_3207_20589)">
<rect width="24" height="24" fill="white"/>
<path d="M21.2755 1.8L21.7005 2.075L22.7505 1.475L23.8505 3.425L22.8505 4.05V4.5L23.8505 5.125L22.7505 7.05L21.7255 6.45L21.2755 6.75V7.9H19.0255V6.75L18.6005 6.475L17.5505 7.075L16.4505 5.125L17.4505 4.5V4.05L16.4505 3.425L17.5505 1.5L18.5755 2.1L19.0255 1.8V0.65H21.2755V1.8ZM20.1505 5.175C20.4005 5.175 20.6088 5.09167 20.7755 4.925C20.9588 4.74167 21.0505 4.525 21.0505 4.275C21.0505 4.025 20.9588 3.81667 20.7755 3.65C20.6088 3.46667 20.4005 3.375 20.1505 3.375C19.9005 3.375 19.6838 3.46667 19.5005 3.65C19.3338 3.81667 19.2505 4.025 19.2505 4.275C19.2505 4.525 19.3338 4.74167 19.5005 4.925C19.6838 5.09167 19.9005 5.175 20.1505 5.175ZM11.5005 20.55C9.76716 20.55 8.21716 20.175 6.85049 19.425C5.48382 18.6583 4.41716 17.6 3.65049 16.25C2.88382 14.9 2.50049 13.3667 2.50049 11.65V11H5.75049V11.65C5.75049 12.75 5.99216 13.7333 6.47549 14.6C6.97549 15.4667 7.65882 16.1417 8.52549 16.625C9.39216 17.1083 10.3838 17.35 11.5005 17.35C12.6172 17.35 13.6088 17.1083 14.4755 16.625C15.3422 16.1417 16.0172 15.4667 16.5005 14.6C17.0005 13.7333 17.2505 12.75 17.2505 11.65V11H20.5005V11.65C20.5005 13.3667 20.1172 14.9 19.3505 16.25C18.5838 17.6 17.5172 18.6583 16.1505 19.425C14.7838 20.175 13.2338 20.55 11.5005 20.55ZM9.77549 19.775H13.2755V23H9.77549V19.775ZM11.5005 15.9C10.6838 15.9 9.95049 15.725 9.30049 15.375C8.65049 15.0083 8.14216 14.5 7.77549 13.85C7.42549 13.2 7.25049 12.4667 7.25049 11.65V5.325C7.25049 4.49167 7.42549 3.75 7.77549 3.1C8.14216 2.43333 8.65049 1.91667 9.30049 1.55C9.95049 1.18333 10.6838 1 11.5005 1C12.3172 1 13.0505 1.18333 13.7005 1.55C14.3505 1.91667 14.8505 2.43333 15.2005 3.1C15.5672 3.75 15.7505 4.49167 15.7505 5.325V11.65C15.7505 12.4667 15.5672 13.2 15.2005 13.85C14.8505 14.5 14.3505 15.0083 13.7005 15.375C13.0505 15.725 12.3172 15.9 11.5005 15.9Z" fill="black"/>
</g>
<defs>
<clipPath id="clip0_3207_20589">
<rect width="24" height="24" fill="white"/>
</clipPath>
</defs>
</svg>
