<svg width="24" height="24" viewBox="0 0 24 24" fill="none" xmlns="http://www.w3.org/2000/svg">
<g clip-path="url(#clip0_3207_20573)">
<rect width="24" height="24" fill="white"/>
<path d="M18.976 6.775C18.9093 6.725 18.8426 6.68333 18.776 6.65C18.626 6.56667 18.526 6.50833 18.476 6.475L17.426 7.075L16.351 5.175L17.351 4.55C17.351 4.43333 17.351 4.35 17.351 4.3C17.351 4.23333 17.351 4.14167 17.351 4.025L16.351 3.375L17.426 1.5L18.476 2.1C18.5426 2.05 18.6093 2 18.676 1.95C18.8093 1.88333 18.9093 1.825 18.976 1.775V0.599999H21.176V1.775C21.2593 1.80833 21.3426 1.85833 21.426 1.925C21.4926 1.95833 21.5676 2.00833 21.651 2.075L22.726 1.475L23.826 3.375L22.776 4C22.776 4.11667 22.776 4.20833 22.776 4.275C22.776 4.34167 22.776 4.43333 22.776 4.55L23.826 5.175L22.726 7.05L21.701 6.45C21.6176 6.51667 21.526 6.575 21.426 6.625C21.3426 6.675 21.2593 6.725 21.176 6.775V7.95H18.976V6.775ZM20.101 5.2C20.351 5.2 20.5593 5.10833 20.726 4.925C20.9093 4.74167 21.001 4.525 21.001 4.275C21.001 4.025 20.9093 3.80833 20.726 3.625C20.5593 3.44167 20.3426 3.35 20.076 3.35C19.826 3.35 19.6093 3.44167 19.426 3.625C19.2426 3.80833 19.151 4.025 19.151 4.275C19.151 4.54167 19.2426 4.76667 19.426 4.95C19.6093 5.11667 19.8343 5.2 20.101 5.2ZM11.501 20.75C9.85098 20.75 8.33431 20.3583 6.95098 19.575C5.58431 18.7917 4.50098 17.725 3.70098 16.375C2.90098 15.0083 2.50098 13.5167 2.50098 11.9V11H5.52598V11.9C5.52598 12.9833 5.78431 13.975 6.30098 14.875C6.83431 15.775 7.55931 16.4833 8.47598 17C9.39264 17.5167 10.401 17.775 11.501 17.775C12.601 17.775 13.6093 17.5167 14.526 17C15.4426 16.4833 16.1593 15.775 16.676 14.875C17.2093 13.975 17.476 12.9833 17.476 11.9V11H20.501V11.9C20.501 13.5167 20.101 15.0083 19.301 16.375C18.501 17.725 17.4176 18.7917 16.051 19.575C14.6843 20.3583 13.1676 20.75 11.501 20.75ZM9.95098 19.675H13.076V23H9.95098V19.675ZM11.526 16.025C10.7426 16.025 10.026 15.8417 9.37598 15.475C8.72598 15.1083 8.20931 14.6083 7.82598 13.975C7.45931 13.3417 7.27598 12.65 7.27598 11.9V5.175C7.27598 4.40833 7.45931 3.70833 7.82598 3.075C8.20931 2.425 8.71764 1.91667 9.35098 1.55C10.001 1.18333 10.7176 1 11.501 1C12.2843 1 13.001 1.18333 13.651 1.55C14.301 1.91667 14.8093 2.425 15.176 3.075C15.5426 3.70833 15.726 4.40833 15.726 5.175V11.9C15.726 12.65 15.5426 13.3417 15.176 13.975C14.8093 14.6083 14.301 15.1083 13.651 15.475C13.001 15.8417 12.2926 16.025 11.526 16.025ZM11.501 13.1C11.7343 13.1 11.9426 13.05 12.126 12.95C12.3093 12.85 12.451 12.7083 12.551 12.525C12.6676 12.3417 12.726 12.1333 12.726 11.9V5.15C12.726 4.91667 12.6676 4.70833 12.551 4.525C12.451 4.34167 12.3093 4.2 12.126 4.1C11.9426 3.98333 11.7343 3.925 11.501 3.925C11.2843 3.925 11.076 3.98333 10.876 4.1C10.6926 4.2 10.5426 4.34167 10.426 4.525C10.326 4.70833 10.276 4.91667 10.276 5.15V11.9C10.276 12.1333 10.326 12.3417 10.426 12.525C10.5426 12.7083 10.6926 12.85 10.876 12.95C11.076 13.05 11.2843 13.1 11.501 13.1Z" fill="black"/>
</g>
<defs>
<clipPath id="clip0_3207_20573">
<rect width="24" height="24" fill="white"/>
</clipPath>
</defs>
</svg>
