<svg width="24" height="24" viewBox="0 0 24 24" fill="none" xmlns="http://www.w3.org/2000/svg">
<g clip-path="url(#clip0_3207_20311)">
<rect width="24" height="24" fill="white"/>
<path d="M18.126 0.949999L20.001 2.9L21.851 0.949999L23.326 2.425L21.376 4.3L23.326 6.175L21.851 7.65L20.001 5.7L18.126 7.65L16.651 6.15L18.576 4.3L16.651 2.45L18.126 0.949999ZM11.176 20.5C9.57598 20.5 8.11764 20.125 6.80098 19.375C5.48431 18.6083 4.43431 17.575 3.65098 16.275C2.88431 14.975 2.50098 13.5417 2.50098 11.975V11H4.87598V11.975C4.87598 13.125 5.15098 14.175 5.70098 15.125C6.26764 16.075 7.02598 16.825 7.97598 17.375C8.94264 17.925 10.0093 18.2 11.176 18.2C12.326 18.2 13.376 17.925 14.326 17.375C15.2926 16.825 16.051 16.075 16.601 15.125C17.1676 14.175 17.451 13.125 17.451 11.975V11H19.826V11.975C19.826 13.5417 19.4426 14.975 18.676 16.275C17.9093 17.575 16.8593 18.6083 15.526 19.375C14.2093 20.125 12.7593 20.5 11.176 20.5ZM9.95098 19.6H12.401V23H9.95098V19.6ZM11.176 16.025C10.426 16.025 9.73431 15.85 9.10098 15.5C8.48431 15.1333 7.99264 14.6417 7.62598 14.025C7.27598 13.3917 7.10098 12.7083 7.10098 11.975V5.075C7.10098 4.325 7.27598 3.64167 7.62598 3.025C7.99264 2.39167 8.48431 1.9 9.10098 1.55C9.73431 1.18333 10.426 1 11.176 1C11.926 1 12.6093 1.18333 13.226 1.55C13.8593 1.9 14.351 2.39167 14.701 3.025C15.0676 3.64167 15.251 4.325 15.251 5.075V11.975C15.251 12.7083 15.0676 13.3917 14.701 14.025C14.351 14.6417 13.8593 15.1333 13.226 15.5C12.6093 15.85 11.926 16.025 11.176 16.025ZM11.176 13.675C11.476 13.675 11.751 13.6 12.001 13.45C12.2676 13.3 12.476 13.1 12.626 12.85C12.776 12.5833 12.851 12.2917 12.851 11.975V5.05C12.851 4.73333 12.776 4.45 12.626 4.2C12.476 3.93333 12.2676 3.725 12.001 3.575C11.751 3.425 11.476 3.35 11.176 3.35C10.8593 3.35 10.5676 3.425 10.301 3.575C10.051 3.725 9.85098 3.93333 9.70098 4.2C9.56764 4.45 9.50098 4.73333 9.50098 5.05V11.975C9.50098 12.2917 9.56764 12.5833 9.70098 12.85C9.85098 13.1 10.051 13.3 10.301 13.45C10.5676 13.6 10.8593 13.675 11.176 13.675Z" fill="black"/>
</g>
<defs>
<clipPath id="clip0_3207_20311">
<rect width="24" height="24" fill="white"/>
</clipPath>
</defs>
</svg>
