<svg width="24" height="24" viewBox="0 0 24 24" fill="none" xmlns="http://www.w3.org/2000/svg">
<g clip-path="url(#clip0_3207_20575)">
<rect width="24" height="24" fill="white"/>
<path d="M18.976 6.775C18.926 6.74167 18.876 6.70833 18.826 6.675C18.7593 6.625 18.6843 6.575 18.601 6.525L17.551 7.1L16.426 5.1L17.401 4.475C17.401 4.39167 17.401 4.325 17.401 4.275C17.401 4.225 17.401 4.15833 17.401 4.075L16.426 3.45L17.551 1.475L18.576 2.075C18.626 2.025 18.676 1.98333 18.726 1.95C18.8093 1.88333 18.8926 1.825 18.976 1.775V0.65H21.301V1.775C21.4343 1.85833 21.5593 1.94167 21.676 2.025L22.726 1.45L23.876 3.45L22.876 4.075C22.876 4.15833 22.876 4.225 22.876 4.275C22.876 4.325 22.876 4.39167 22.876 4.475L23.876 5.1L22.726 7.075L21.726 6.475C21.6593 6.525 21.5843 6.58333 21.501 6.65C21.4843 6.65 21.4176 6.69167 21.301 6.775V7.9H18.976V6.775ZM20.151 5.125C20.3843 5.125 20.5843 5.04167 20.751 4.875C20.9176 4.69167 21.001 4.49167 21.001 4.275C21.001 4.04167 20.9176 3.84167 20.751 3.675C20.5843 3.50833 20.3843 3.425 20.151 3.425C19.9176 3.425 19.7176 3.50833 19.551 3.675C19.3843 3.84167 19.301 4.04167 19.301 4.275C19.301 4.50833 19.3843 4.70833 19.551 4.875C19.7176 5.04167 19.9176 5.125 20.151 5.125ZM11.501 20.55C9.85098 20.55 8.33431 20.1667 6.95098 19.4C5.58431 18.6333 4.50098 17.5833 3.70098 16.25C2.90098 14.9167 2.50098 13.45 2.50098 11.85V11H5.85098V11.85C5.85098 12.8667 6.10098 13.7917 6.60098 14.625C7.10098 15.4583 7.78431 16.125 8.65098 16.625C9.51764 17.1083 10.4676 17.35 11.501 17.35C12.5343 17.35 13.4843 17.1083 14.351 16.625C15.2176 16.125 15.901 15.4583 16.401 14.625C16.901 13.7917 17.151 12.8667 17.151 11.85V11H20.501V11.85C20.501 13.45 20.101 14.9167 19.301 16.25C18.501 17.5833 17.4093 18.6333 16.026 19.4C14.6593 20.1667 13.151 20.55 11.501 20.55ZM9.77598 19.775H13.276V23H9.77598V19.775ZM11.501 16.025C10.7176 16.025 10.001 15.8417 9.35098 15.475C8.71764 15.1083 8.20931 14.6083 7.82598 13.975C7.45931 13.325 7.27598 12.6167 7.27598 11.85V5.225C7.27598 4.44167 7.45931 3.73333 7.82598 3.1C8.20931 2.45 8.71764 1.94167 9.35098 1.575C10.001 1.19167 10.7176 1 11.501 1C12.2843 1 12.9926 1.19167 13.626 1.575C14.276 1.94167 14.7843 2.45 15.151 3.1C15.5343 3.73333 15.726 4.44167 15.726 5.225V11.85C15.726 12.6167 15.5343 13.325 15.151 13.975C14.7843 14.6083 14.276 15.1083 13.626 15.475C12.9926 15.8417 12.2843 16.025 11.501 16.025ZM11.501 12.675C11.651 12.675 11.7843 12.6417 11.901 12.575C12.0343 12.4917 12.1343 12.3917 12.201 12.275C12.2843 12.1417 12.326 12 12.326 11.85V5.175C12.326 5.025 12.2843 4.89167 12.201 4.775C12.1343 4.64167 12.0343 4.54167 11.901 4.475C11.7843 4.39167 11.651 4.35 11.501 4.35C11.351 4.35 11.2093 4.39167 11.076 4.475C10.9593 4.54167 10.8593 4.64167 10.776 4.775C10.7093 4.89167 10.676 5.025 10.676 5.175V11.85C10.676 12 10.7093 12.1417 10.776 12.275C10.8593 12.3917 10.9593 12.4917 11.076 12.575C11.2093 12.6417 11.351 12.675 11.501 12.675Z" fill="black"/>
</g>
<defs>
<clipPath id="clip0_3207_20575">
<rect width="24" height="24" fill="white"/>
</clipPath>
</defs>
</svg>
