<svg width="24" height="24" viewBox="0 0 24 24" fill="none" xmlns="http://www.w3.org/2000/svg">
<g clip-path="url(#clip0_3207_20579)">
<rect width="24" height="24" fill="white"/>
<path d="M21.0255 1.9L21.8255 2.375L22.9255 1.75L23.7505 3.175L22.6255 3.8L22.6505 4.725L23.7505 5.35L22.9255 6.8L21.8255 6.175L21.0255 6.65V7.9H19.3755V6.65L18.5755 6.175L17.4755 6.8L16.6505 5.375L17.7755 4.75L17.7505 3.825L16.6505 3.2L17.4755 1.75L18.5755 2.375L19.3755 1.9V0.65H21.0255V1.9ZM20.2005 5.4C20.5338 5.4 20.8005 5.29167 21.0005 5.075C21.2172 4.85833 21.3255 4.59167 21.3255 4.275C21.3255 3.94167 21.2172 3.675 21.0005 3.475C20.8005 3.25833 20.5338 3.15 20.2005 3.15C19.8838 3.15 19.6172 3.25833 19.4005 3.475C19.1838 3.675 19.0755 3.94167 19.0755 4.275C19.0755 4.59167 19.1838 4.85833 19.4005 5.075C19.6172 5.29167 19.8838 5.4 20.2005 5.4ZM11.0005 20.15C9.36716 20.15 7.90882 19.7833 6.62549 19.05C5.34216 18.3167 4.33382 17.3083 3.60049 16.025C2.86716 14.7417 2.50049 13.2917 2.50049 11.675V11H3.47549V11.675C3.47549 13.125 3.79216 14.425 4.42549 15.575C5.07549 16.7083 5.96716 17.6 7.10049 18.25C8.25049 18.8833 9.55049 19.2 11.0005 19.2C12.4505 19.2 13.7422 18.8833 14.8755 18.25C16.0255 17.6 16.9172 16.7083 17.5505 15.575C18.2005 14.425 18.5255 13.125 18.5255 11.675V11H19.5005V11.675C19.5005 13.2917 19.1338 14.7417 18.4005 16.025C17.6672 17.3083 16.6588 18.3167 15.3755 19.05C14.0922 19.7833 12.6338 20.15 11.0005 20.15ZM10.5255 19.65H11.4755V23H10.5255V19.65ZM11.0005 15.675C10.2672 15.675 9.59216 15.5 8.97549 15.15C8.35882 14.8 7.87549 14.3167 7.52549 13.7C7.17549 13.0833 7.00049 12.4083 7.00049 11.675V5C7.00049 4.26667 7.17549 3.59167 7.52549 2.975C7.87549 2.35833 8.35882 1.875 8.97549 1.525C9.59216 1.175 10.2672 1 11.0005 1C11.7338 1 12.4088 1.175 13.0255 1.525C13.6422 1.875 14.1255 2.35833 14.4755 2.975C14.8255 3.59167 15.0005 4.26667 15.0005 5V11.675C15.0005 12.4083 14.8255 13.0833 14.4755 13.7C14.1255 14.3167 13.6422 14.8 13.0255 15.15C12.4088 15.5 11.7338 15.675 11.0005 15.675Z" fill="black"/>
</g>
<defs>
<clipPath id="clip0_3207_20579">
<rect width="24" height="24" fill="white"/>
</clipPath>
</defs>
</svg>
