<svg width="24" height="24" viewBox="0 0 24 24" fill="none" xmlns="http://www.w3.org/2000/svg">
<g clip-path="url(#clip0_3207_20569)">
<rect width="24" height="24" fill="white"/>
<path d="M19.151 6.6C19.051 6.53333 18.951 6.475 18.851 6.425C18.5676 6.25833 18.401 6.16667 18.351 6.15L17.276 6.75L16.476 5.35L17.576 4.75C17.576 4.55 17.576 4.4 17.576 4.3C17.576 4.2 17.576 4.05 17.576 3.85L16.476 3.225L17.276 1.825L18.351 2.425C18.451 2.35833 18.551 2.3 18.651 2.25C18.9343 2.08333 19.101 1.99167 19.151 1.975V0.749998H20.751V1.975C20.8176 2.00833 21.076 2.15833 21.526 2.425L22.601 1.825L23.426 3.2L22.351 3.825C22.351 4.025 22.351 4.175 22.351 4.275C22.351 4.375 22.351 4.525 22.351 4.725L23.426 5.325L22.601 6.75L21.526 6.15C21.3926 6.23333 21.251 6.31667 21.101 6.4C20.9843 6.46667 20.8676 6.53333 20.751 6.6V7.825H19.151V6.6ZM19.951 5.35C20.251 5.35 20.501 5.25 20.701 5.05C20.9176 4.85 21.026 4.59167 21.026 4.275C21.026 3.975 20.9176 3.725 20.701 3.525C20.501 3.30833 20.251 3.2 19.951 3.2C19.6343 3.2 19.376 3.30833 19.176 3.525C18.976 3.725 18.876 3.975 18.876 4.275C18.876 4.59167 18.976 4.85 19.176 5.05C19.376 5.25 19.6343 5.35 19.951 5.35ZM11.001 20.475C9.43431 20.475 8.00098 20.1 6.70098 19.35C5.41764 18.6 4.39264 17.5833 3.62598 16.3C2.87598 15 2.50098 13.575 2.50098 12.025V11H4.40098V12.025C4.40098 13.2417 4.69264 14.3583 5.27598 15.375C5.85931 16.375 6.65098 17.1667 7.65098 17.75C8.66764 18.3333 9.78431 18.625 11.001 18.625C12.2176 18.625 13.326 18.3333 14.326 17.75C15.3426 17.1667 16.1426 16.375 16.726 15.375C17.3093 14.3583 17.601 13.2417 17.601 12.025V11H19.501V12.025C19.501 13.575 19.1176 15 18.351 16.3C17.601 17.5833 16.576 18.6 15.276 19.35C13.9926 20.1 12.5676 20.475 11.001 20.475ZM10.051 19.5H11.951V23H10.051V19.5ZM11.001 16.025C10.2676 16.025 9.59264 15.85 8.97598 15.5C8.35931 15.15 7.87598 14.6667 7.52598 14.05C7.17598 13.4333 7.00098 12.7583 7.00098 12.025V5C7.00098 4.26667 7.17598 3.59167 7.52598 2.975C7.87598 2.35833 8.35931 1.875 8.97598 1.525C9.59264 1.175 10.2676 1 11.001 1C11.7343 1 12.4093 1.175 13.026 1.525C13.6426 1.875 14.126 2.35833 14.476 2.975C14.826 3.59167 15.001 4.26667 15.001 5V12.025C15.001 12.7583 14.826 13.4333 14.476 14.05C14.126 14.6667 13.6426 15.15 13.026 15.5C12.4093 15.85 11.7343 16.025 11.001 16.025ZM11.001 14.175C11.3843 14.175 11.7343 14.0833 12.051 13.9C12.3843 13.7167 12.6426 13.4667 12.826 13.15C13.0093 12.8167 13.101 12.45 13.101 12.05V4.975C13.101 4.575 13.0093 4.21667 12.826 3.9C12.6426 3.56667 12.3843 3.30833 12.051 3.125C11.7343 2.94167 11.3843 2.85 11.001 2.85C10.6176 2.85 10.2593 2.94167 9.92598 3.125C9.60931 3.30833 9.35931 3.56667 9.17598 3.9C8.99264 4.21667 8.90098 4.575 8.90098 4.975V12.05C8.90098 12.45 8.99264 12.8167 9.17598 13.15C9.35931 13.4667 9.60931 13.7167 9.92598 13.9C10.2593 14.0833 10.6176 14.175 11.001 14.175Z" fill="black"/>
</g>
<defs>
<clipPath id="clip0_3207_20569">
<rect width="24" height="24" fill="white"/>
</clipPath>
</defs>
</svg>
