<svg width="24" height="24" viewBox="0 0 24 24" fill="none" xmlns="http://www.w3.org/2000/svg">
<g clip-path="url(#clip0_3207_20565)">
<rect width="24" height="24" fill="white"/>
<path d="M19.526 6.55C19.3093 6.51667 19.101 6.45 18.901 6.35C18.601 6.18333 18.3593 6.00833 18.176 5.825L17.051 6.475L16.601 5.725L17.776 5.075C17.6926 4.80833 17.651 4.55 17.651 4.3C17.651 4.03333 17.6926 3.76667 17.776 3.5L16.601 2.85L17.051 2.1L18.176 2.75C18.3093 2.6 18.4843 2.45833 18.701 2.325C18.9676 2.15833 19.2426 2.05 19.526 2V0.674999H20.376V2C20.626 2.03333 20.8676 2.125 21.101 2.275C21.3343 2.40833 21.5343 2.56667 21.701 2.75L22.851 2.1L23.301 2.825L22.126 3.475C22.226 3.74167 22.276 4.00833 22.276 4.275C22.276 4.525 22.226 4.78333 22.126 5.05L23.301 5.7L22.851 6.475L21.701 5.825C21.5176 6.025 21.2926 6.19167 21.026 6.325C20.826 6.425 20.6093 6.5 20.376 6.55V7.875H19.526V6.55ZM19.951 5.8C20.3676 5.8 20.726 5.65833 21.026 5.375C21.326 5.075 21.476 4.70833 21.476 4.275C21.476 3.85833 21.326 3.5 21.026 3.2C20.726 2.9 20.3676 2.75 19.951 2.75C19.5176 2.75 19.151 2.9 18.851 3.2C18.5676 3.5 18.426 3.85833 18.426 4.275C18.426 4.70833 18.5676 5.075 18.851 5.375C19.151 5.65833 19.5176 5.8 19.951 5.8ZM11.001 20.15C9.36764 20.15 7.90931 19.7833 6.62598 19.05C5.34264 18.3167 4.33431 17.3083 3.60098 16.025C2.86764 14.7417 2.50098 13.2917 2.50098 11.675V11H3.47598V11.675C3.47598 13.125 3.79264 14.425 4.42598 15.575C5.07598 16.7083 5.96764 17.6 7.10098 18.25C8.25098 18.8833 9.55098 19.2 11.001 19.2C12.451 19.2 13.7426 18.8833 14.876 18.25C16.026 17.6 16.9176 16.7083 17.551 15.575C18.201 14.425 18.526 13.125 18.526 11.675V11H19.501V11.675C19.501 13.2917 19.1343 14.7417 18.401 16.025C17.6676 17.3083 16.6593 18.3167 15.376 19.05C14.0926 19.7833 12.6343 20.15 11.001 20.15ZM10.526 19.65H11.476V23H10.526V19.65ZM11.001 15.675C10.2676 15.675 9.59264 15.5 8.97598 15.15C8.35931 14.8 7.87598 14.3167 7.52598 13.7C7.17598 13.0833 7.00098 12.4083 7.00098 11.675V5C7.00098 4.26667 7.17598 3.59167 7.52598 2.975C7.87598 2.35833 8.35931 1.875 8.97598 1.525C9.59264 1.175 10.2676 1 11.001 1C11.7343 1 12.4093 1.175 13.026 1.525C13.6426 1.875 14.126 2.35833 14.476 2.975C14.826 3.59167 15.001 4.26667 15.001 5V11.675C15.001 12.4083 14.826 13.0833 14.476 13.7C14.126 14.3167 13.6426 14.8 13.026 15.15C12.4093 15.5 11.7343 15.675 11.001 15.675ZM11.001 14.75C11.551 14.75 12.0593 14.6167 12.526 14.35C12.9926 14.0833 13.3593 13.7167 13.626 13.25C13.8926 12.7667 14.026 12.2417 14.026 11.675V5C14.026 4.43333 13.8926 3.91667 13.626 3.45C13.3593 2.96667 12.9926 2.59167 12.526 2.325C12.0593 2.05833 11.551 1.925 11.001 1.925C10.451 1.925 9.94264 2.05833 9.47598 2.325C9.00931 2.59167 8.64264 2.96667 8.37598 3.45C8.10931 3.91667 7.97598 4.43333 7.97598 5V11.675C7.97598 12.2417 8.10931 12.7667 8.37598 13.25C8.64264 13.7167 9.00931 14.0833 9.47598 14.35C9.94264 14.6167 10.451 14.75 11.001 14.75Z" fill="black"/>
</g>
<defs>
<clipPath id="clip0_3207_20565">
<rect width="24" height="24" fill="white"/>
</clipPath>
</defs>
</svg>
