<svg width="24" height="24" viewBox="0 0 24 24" fill="none" xmlns="http://www.w3.org/2000/svg">
<g clip-path="url(#clip0_3208_21033)">
<rect width="24" height="24" fill="white"/>
<path d="M7.00098 20C6.15098 20 5.43431 19.7167 4.85098 19.15C4.28431 18.5667 4.00098 17.85 4.00098 17V7C4.00098 6.13333 4.28431 5.41667 4.85098 4.85C5.43431 4.28333 6.15098 4 7.00098 4H17.001C17.8676 4 18.5843 4.28333 19.151 4.85C19.7176 5.41667 20.001 6.13333 20.001 7V17C20.001 17.85 19.7176 18.5667 19.151 19.15C18.5843 19.7167 17.8676 20 17.001 20H7.00098ZM17.001 19.1C17.601 19.1 18.0926 18.9 18.476 18.5C18.876 18.1 19.076 17.6 19.076 17V7C19.076 6.4 18.876 5.9 18.476 5.5C18.0926 5.1 17.601 4.9 17.001 4.9H7.00098C6.40098 4.9 5.90098 5.1 5.50098 5.5C5.11764 5.9 4.92598 6.4 4.92598 7V17C4.92598 17.6 5.11764 18.1 5.50098 18.5C5.90098 18.9 6.40098 19.1 7.00098 19.1H17.001ZM8.85098 2V4.7H7.92598V2H8.85098ZM16.076 2V4.6H15.151V2H16.076ZM8.85098 19.5V22H7.92598V19.5H8.85098ZM16.076 19.5V22H15.151V19.5H16.076ZM19.451 15.175H22.001V16.075H19.451V15.175ZM19.351 7.925H22.001V8.825H19.351V7.925ZM2.00098 15.175H4.67598V16.075H2.00098V15.175ZM2.00098 7.925H4.67598V8.825H2.00098V7.925ZM16.676 7.325V16.675H7.32598V7.325H16.676ZM8.25098 15.775H15.751V8.225H8.25098V15.775Z" fill="black"/>
</g>
<defs>
<clipPath id="clip0_3208_21033">
<rect width="24" height="24" fill="white"/>
</clipPath>
</defs>
</svg>
