<svg width="24" height="24" viewBox="0 0 24 24" fill="none" xmlns="http://www.w3.org/2000/svg">
<g clip-path="url(#clip0_3207_18582)">
<rect width="24" height="24" fill="white"/>
<path d="M12.0005 20.475C10.2672 20.475 8.71716 20.1 7.35049 19.35C5.98382 18.5833 4.91716 17.525 4.15049 16.175C3.38382 14.825 3.00049 13.2917 3.00049 11.575V10H6.50049V11.575C6.50049 12.625 6.73382 13.5667 7.20049 14.4C7.68382 15.2167 8.34216 15.8583 9.17549 16.325C10.0088 16.7917 10.9505 17.025 12.0005 17.025C13.0505 17.025 13.9922 16.7917 14.8255 16.325C15.6588 15.8583 16.3088 15.2167 16.7755 14.4C17.2588 13.5667 17.5005 12.625 17.5005 11.575V10H21.0005V11.575C21.0005 13.2917 20.6172 14.825 19.8505 16.175C19.0838 17.525 18.0172 18.5833 16.6505 19.35C15.2838 20.1 13.7338 20.475 12.0005 20.475ZM10.2755 19.7H13.7755V23H10.2755V19.7ZM12.0005 15.025C11.3505 15.025 10.7588 14.875 10.2255 14.575C9.69216 14.2583 9.26716 13.8333 8.95049 13.3C8.65049 12.7667 8.50049 12.175 8.50049 11.525V4.5C8.50049 3.86667 8.65049 3.28333 8.95049 2.75C9.26716 2.2 9.69216 1.775 10.2255 1.475C10.7588 1.15833 11.3505 1 12.0005 1C12.6338 1 13.2172 1.15833 13.7505 1.475C14.3005 1.775 14.7255 2.2 15.0255 2.75C15.3422 3.28333 15.5005 3.86667 15.5005 4.5V11.525C15.5005 12.175 15.3422 12.7667 15.0255 13.3C14.7255 13.8333 14.3005 14.2583 13.7505 14.575C13.2172 14.875 12.6338 15.025 12.0005 15.025Z" fill="black"/>
</g>
<defs>
<clipPath id="clip0_3207_18582">
<rect width="24" height="24" fill="white"/>
</clipPath>
</defs>
</svg>
