<svg width="24" height="24" viewBox="0 0 24 24" fill="none" xmlns="http://www.w3.org/2000/svg">
<g clip-path="url(#clip0_3207_19336)">
<rect width="24" height="24" fill="white"/>
<path d="M21.0005 18.55V22H3.00049V18.55H21.0005ZM9.25049 16.8C8.33382 16.8 7.55882 16.4917 6.92549 15.875C6.30882 15.2417 6.00049 14.4667 6.00049 13.55V5.25C6.00049 4.33333 6.30882 3.56667 6.92549 2.95C7.55882 2.31667 8.33382 2 9.25049 2H14.7505C15.6672 2 16.4338 2.31667 17.0505 2.95C17.6838 3.56667 18.0005 4.33333 18.0005 5.25V13.55C18.0005 14.4667 17.6838 15.2417 17.0505 15.875C16.4338 16.4917 15.6672 16.8 14.7505 16.8H9.25049Z" fill="black"/>
</g>
<defs>
<clipPath id="clip0_3207_19336">
<rect width="24" height="24" fill="white"/>
</clipPath>
</defs>
</svg>
