<svg width="24" height="24" viewBox="0 0 24 24" fill="none" xmlns="http://www.w3.org/2000/svg">
<g clip-path="url(#clip0_3207_20877)">
<rect width="24" height="24" fill="white"/>
<path d="M8.47598 12.45H5.42598V11.525H8.47598V12.45ZM18.551 12.45H15.526V11.525H18.551V12.45ZM13.676 12.45H10.326V11.525H13.676V12.45ZM8.67598 23C8.00931 23 7.39264 22.8333 6.82598 22.5C6.25931 22.1833 5.80931 21.7417 5.47598 21.175C5.15931 20.6083 5.00098 19.9917 5.00098 19.325V4.675C5.00098 4.00833 5.15931 3.39167 5.47598 2.825C5.80931 2.25833 6.25931 1.81667 6.82598 1.5C7.39264 1.16667 8.00931 1 8.67598 1H15.326C15.9926 1 16.6093 1.16667 17.176 1.5C17.7426 1.81667 18.1843 2.25833 18.501 2.825C18.8343 3.39167 19.001 4.00833 19.001 4.675V19.325C19.001 19.9917 18.8343 20.6083 18.501 21.175C18.1843 21.7417 17.7426 22.1833 17.176 22.5C16.6093 22.8333 15.9926 23 15.326 23H8.67598ZM15.326 22.075C16.0926 22.075 16.7343 21.8083 17.251 21.275C17.7676 20.7417 18.026 20.0917 18.026 19.325V4.675C18.026 3.90833 17.7676 3.25833 17.251 2.725C16.7343 2.19167 16.0926 1.925 15.326 1.925H8.67598C7.90931 1.925 7.26764 2.19167 6.75098 2.725C6.23431 3.25833 5.97598 3.90833 5.97598 4.675V19.325C5.97598 20.0917 6.23431 20.7417 6.75098 21.275C7.26764 21.8083 7.90931 22.075 8.67598 22.075H15.326Z" fill="black"/>
</g>
<defs>
<clipPath id="clip0_3207_20877">
<rect width="24" height="24" fill="white"/>
</clipPath>
</defs>
</svg>
