<svg width="24" height="24" viewBox="0 0 24 24" fill="none" xmlns="http://www.w3.org/2000/svg">
<g clip-path="url(#clip0_3207_20611)">
<rect width="24" height="24" fill="white"/>
<path d="M17.2505 23.025C16.7172 23.3417 16.1338 23.5 15.5005 23.5H8.50049C7.86716 23.5 7.27549 23.3417 6.72549 23.025C6.19216 22.725 5.76716 22.3 5.45049 21.75C5.15049 21.2167 5.00049 20.6333 5.00049 20V4C5.00049 3.36667 5.15049 2.78333 5.45049 2.25C5.76716 1.7 6.19216 1.275 6.72549 0.974999C7.27549 0.658332 7.86716 0.499999 8.50049 0.499999H15.5005C16.1338 0.499999 16.7172 0.658332 17.2505 0.974999C17.8005 1.275 18.2255 1.7 18.5255 2.25C18.8422 2.78333 19.0005 3.36667 19.0005 4V20C19.0005 20.6333 18.8422 21.2167 18.5255 21.75C18.2255 22.3 17.8005 22.725 17.2505 23.025ZM7.92549 6.25C8.25882 6.58333 8.65049 6.75 9.10049 6.75C9.56716 6.75 9.95882 6.59167 10.2755 6.275C10.6088 5.94167 10.7755 5.54167 10.7755 5.075C10.7755 4.60833 10.6088 4.21667 10.2755 3.9C9.95882 3.56667 9.56716 3.4 9.10049 3.4C8.63382 3.4 8.23382 3.56667 7.90049 3.9C7.58382 4.21667 7.42549 4.60833 7.42549 5.075C7.42549 5.525 7.59216 5.91667 7.92549 6.25Z" fill="black"/>
</g>
<defs>
<clipPath id="clip0_3207_20611">
<rect width="24" height="24" fill="white"/>
</clipPath>
</defs>
</svg>
