<svg width="24" height="24" viewBox="0 0 24 24" fill="none" xmlns="http://www.w3.org/2000/svg">
<g clip-path="url(#clip0_3208_22331)">
<rect width="24" height="24" fill="white"/>
<path d="M8.75098 23C7.91764 23 7.15931 22.8 6.47598 22.4C5.79264 22 5.25098 21.4583 4.85098 20.775C4.45098 20.0917 4.25098 19.3333 4.25098 18.5V5.5C4.25098 4.66667 4.45098 3.90833 4.85098 3.225C5.25098 2.54167 5.79264 2 6.47598 1.6C7.15931 1.2 7.91764 1 8.75098 1H15.251C16.0843 1 16.8426 1.2 17.526 1.6C18.2093 2 18.751 2.54167 19.151 3.225C19.551 3.90833 19.751 4.66667 19.751 5.5V18.5C19.751 19.3333 19.551 20.0917 19.151 20.775C18.751 21.4583 18.2093 22 17.526 22.4C16.8426 22.8 16.0843 23 15.251 23H8.75098ZM15.251 19.55C15.5343 19.55 15.7676 19.45 15.951 19.25C16.151 19.05 16.251 18.8 16.251 18.5V5.5C16.251 5.2 16.151 4.95 15.951 4.75C15.7676 4.55 15.5343 4.45 15.251 4.45H8.75098C8.46764 4.45 8.22598 4.55 8.02598 4.75C7.84264 4.95 7.75098 5.2 7.75098 5.5V18.5C7.75098 18.8 7.84264 19.05 8.02598 19.25C8.22598 19.45 8.46764 19.55 8.75098 19.55H15.251ZM10.301 8.8C9.81764 8.8 9.39264 8.625 9.02598 8.275C8.67598 7.90833 8.50098 7.48333 8.50098 7C8.50098 6.48333 8.67598 6.05 9.02598 5.7C9.39264 5.35 9.81764 5.175 10.301 5.175C10.801 5.175 11.226 5.35 11.576 5.7C11.926 6.05 12.101 6.48333 12.101 7C12.101 7.48333 11.926 7.90833 11.576 8.275C11.226 8.625 10.801 8.8 10.301 8.8ZM10.301 12.825C9.81764 12.825 9.39264 12.65 9.02598 12.3C8.67598 11.9333 8.50098 11.5083 8.50098 11.025C8.50098 10.5083 8.67598 10.075 9.02598 9.725C9.39264 9.375 9.81764 9.2 10.301 9.2C10.801 9.2 11.226 9.375 11.576 9.725C11.926 10.075 12.101 10.5083 12.101 11.025C12.101 11.5083 11.926 11.9333 11.576 12.3C11.226 12.65 10.801 12.825 10.301 12.825ZM13.726 10.8C13.2426 10.8 12.8176 10.625 12.451 10.275C12.101 9.90833 11.926 9.48333 11.926 9C11.926 8.48333 12.101 8.05 12.451 7.7C12.8176 7.35 13.2426 7.175 13.726 7.175C14.226 7.175 14.651 7.35 15.001 7.7C15.351 8.05 15.526 8.48333 15.526 9C15.526 9.48333 15.351 9.90833 15.001 10.275C14.651 10.625 14.226 10.8 13.726 10.8Z" fill="black"/>
</g>
<defs>
<clipPath id="clip0_3208_22331">
<rect width="24" height="24" fill="white"/>
</clipPath>
</defs>
</svg>
