<svg width="24" height="24" viewBox="0 0 24 24" fill="none" xmlns="http://www.w3.org/2000/svg">
<g clip-path="url(#clip0_3375_5794)">
<rect width="24" height="24" fill="white"/>
<path d="M8.75098 23C7.91764 23 7.15931 22.8 6.47598 22.4C5.79264 22 5.25098 21.4583 4.85098 20.775C4.45098 20.0917 4.25098 19.3333 4.25098 18.5V5.5C4.25098 4.66667 4.45098 3.90833 4.85098 3.225C5.25098 2.54167 5.79264 2 6.47598 1.6C7.15931 1.2 7.91764 1 8.75098 1H15.251C16.0843 1 16.8426 1.2 17.526 1.6C18.2093 2 18.751 2.54167 19.151 3.225C19.551 3.90833 19.751 4.66667 19.751 5.5V18.5C19.751 19.3333 19.551 20.0917 19.151 20.775C18.751 21.4583 18.2093 22 17.526 22.4C16.8426 22.8 16.0843 23 15.251 23H8.75098ZM15.251 19.55C15.5343 19.55 15.7676 19.45 15.951 19.25C16.151 19.05 16.251 18.8 16.251 18.5V5.5C16.251 5.2 16.151 4.95 15.951 4.75C15.7676 4.55 15.5343 4.45 15.251 4.45H8.75098C8.46764 4.45 8.22598 4.55 8.02598 4.75C7.84264 4.95 7.75098 5.2 7.75098 5.5V18.5C7.75098 18.8 7.84264 19.05 8.02598 19.25C8.22598 19.45 8.46764 19.55 8.75098 19.55H15.251ZM10.301 8.625C9.81764 8.625 9.39264 8.45833 9.02598 8.125C8.67598 7.775 8.50098 7.36667 8.50098 6.9C8.50098 6.43333 8.67598 6.03333 9.02598 5.7C9.39264 5.35 9.81764 5.175 10.301 5.175C10.801 5.175 11.226 5.34167 11.576 5.675C11.926 6.00833 12.101 6.41667 12.101 6.9C12.101 7.36667 11.926 7.775 11.576 8.125C11.226 8.45833 10.801 8.625 10.301 8.625ZM10.301 12.425C9.81764 12.425 9.39264 12.2583 9.02598 11.925C8.67598 11.575 8.50098 11.1667 8.50098 10.7C8.50098 10.2333 8.67598 9.83333 9.02598 9.5C9.39264 9.15 9.81764 8.975 10.301 8.975C10.801 8.975 11.226 9.14167 11.576 9.475C11.926 9.80833 12.101 10.2167 12.101 10.7C12.101 11.1667 11.926 11.575 11.576 11.925C11.226 12.2583 10.801 12.425 10.301 12.425ZM10.301 16.25C9.81764 16.25 9.39264 16.0833 9.02598 15.75C8.67598 15.4 8.50098 14.9917 8.50098 14.525C8.50098 14.0583 8.67598 13.6583 9.02598 13.325C9.39264 12.975 9.81764 12.8 10.301 12.8C10.801 12.8 11.226 12.9667 11.576 13.3C11.926 13.6333 12.101 14.0417 12.101 14.525C12.101 14.9917 11.926 15.4 11.576 15.75C11.226 16.0833 10.801 16.25 10.301 16.25Z" fill="black"/>
</g>
<defs>
<clipPath id="clip0_3375_5794">
<rect width="24" height="24" fill="white"/>
</clipPath>
</defs>
</svg>
