<svg width="24" height="24" viewBox="0 0 24 24" fill="none" xmlns="http://www.w3.org/2000/svg">
<g clip-path="url(#clip0_3207_20295)">
<rect width="24" height="24" fill="white"/>
<path d="M17.2505 23.025C16.7172 23.3417 16.1338 23.5 15.5005 23.5H8.50049C7.86716 23.5 7.27549 23.3417 6.72549 23.025C6.19216 22.725 5.76716 22.3 5.45049 21.75C5.15049 21.2167 5.00049 20.6333 5.00049 20V4C5.00049 3.36667 5.15049 2.78333 5.45049 2.25C5.76716 1.7 6.19216 1.275 6.72549 0.974999C7.27549 0.658332 7.86716 0.499999 8.50049 0.499999H15.5005C16.1338 0.499999 16.7172 0.658332 17.2505 0.974999C17.8005 1.275 18.2255 1.7 18.5255 2.25C18.8422 2.78333 19.0005 3.36667 19.0005 4V20C19.0005 20.6333 18.8422 21.2167 18.5255 21.75C18.2255 22.3 17.8005 22.725 17.2505 23.025ZM11.1755 18.375C11.0088 18.1917 10.7922 18.1 10.5255 18.1H8.57549C8.30882 18.1 8.08382 18.1917 7.90049 18.375C7.73382 18.5417 7.65049 18.7583 7.65049 19.025C7.65049 19.3083 7.73382 19.55 7.90049 19.75C8.08382 19.9333 8.30882 20.025 8.57549 20.025H10.5255C10.7922 20.025 11.0088 19.9333 11.1755 19.75C11.3588 19.55 11.4505 19.3083 11.4505 19.025C11.4505 18.7583 11.3588 18.5417 11.1755 18.375ZM16.0755 18.375C15.9088 18.1917 15.6922 18.1 15.4255 18.1H13.4755C13.2088 18.1 12.9838 18.1917 12.8005 18.375C12.6338 18.5417 12.5505 18.7583 12.5505 19.025C12.5505 19.3083 12.6338 19.5417 12.8005 19.725C12.9838 19.9083 13.2088 20 13.4755 20H15.4255C15.6922 20 15.9088 19.9083 16.0755 19.725C16.2588 19.5417 16.3505 19.3083 16.3505 19.025C16.3505 18.7583 16.2588 18.5417 16.0755 18.375ZM11.1755 15.225C11.0088 15.0417 10.7922 14.95 10.5255 14.95H8.57549C8.30882 14.95 8.08382 15.0417 7.90049 15.225C7.73382 15.3917 7.65049 15.6083 7.65049 15.875C7.65049 16.1583 7.73382 16.4 7.90049 16.6C8.08382 16.7833 8.30882 16.875 8.57549 16.875H10.5255C10.7922 16.875 11.0088 16.7833 11.1755 16.6C11.3588 16.4 11.4505 16.1583 11.4505 15.875C11.4505 15.6083 11.3588 15.3917 11.1755 15.225ZM16.0755 15.225C15.9088 15.0417 15.6922 14.95 15.4255 14.95H13.4755C13.2088 14.95 12.9838 15.0417 12.8005 15.225C12.6338 15.3917 12.5505 15.6083 12.5505 15.875C12.5505 16.1583 12.6338 16.3917 12.8005 16.575C12.9838 16.7583 13.2088 16.85 13.4755 16.85H15.4255C15.6922 16.85 15.9088 16.7583 16.0755 16.575C16.2588 16.3917 16.3505 16.1583 16.3505 15.875C16.3505 15.6083 16.2588 15.3917 16.0755 15.225Z" fill="black"/>
</g>
<defs>
<clipPath id="clip0_3207_20295">
<rect width="24" height="24" fill="white"/>
</clipPath>
</defs>
</svg>
