<svg width="24" height="24" viewBox="0 0 24 24" fill="none" xmlns="http://www.w3.org/2000/svg">
<g clip-path="url(#clip0_3208_22323)">
<rect width="24" height="24" fill="white"/>
<path d="M8.82598 23C8.12598 23 7.47598 22.8333 6.87598 22.5C6.29264 22.1667 5.83431 21.7 5.50098 21.1C5.16764 20.5167 5.00098 19.875 5.00098 19.175V4.825C5.00098 4.125 5.16764 3.48333 5.50098 2.9C5.83431 2.3 6.29264 1.83333 6.87598 1.5C7.47598 1.16667 8.12598 1 8.82598 1H15.176C15.876 1 16.5176 1.16667 17.101 1.5C17.701 1.83333 18.1676 2.3 18.501 2.9C18.8343 3.48333 19.001 4.125 19.001 4.825V19.175C19.001 19.875 18.8343 20.5167 18.501 21.1C18.1676 21.7 17.701 22.1667 17.101 22.5C16.5176 22.8333 15.876 23 15.176 23H8.82598ZM15.176 21.65C15.8426 21.65 16.4093 21.4083 16.876 20.925C17.3593 20.4417 17.601 19.8583 17.601 19.175V4.825C17.601 4.14167 17.3593 3.55833 16.876 3.075C16.4093 2.59167 15.8426 2.35 15.176 2.35H8.82598C8.15931 2.35 7.58431 2.59167 7.10098 3.075C6.63431 3.55833 6.40098 4.14167 6.40098 4.825V19.175C6.40098 19.8583 6.63431 20.4417 7.10098 20.925C7.58431 21.4083 8.15931 21.65 8.82598 21.65H15.176ZM9.45098 6.5C9.16764 6.5 8.91764 6.39167 8.70098 6.175C8.48431 5.95833 8.37598 5.7 8.37598 5.4C8.37598 5.1 8.47598 4.85 8.67598 4.65C8.89264 4.43333 9.15098 4.325 9.45098 4.325C9.75098 4.325 10.0093 4.43333 10.226 4.65C10.4426 4.85 10.551 5.1 10.551 5.4C10.551 5.7 10.4426 5.95833 10.226 6.175C10.0093 6.39167 9.75098 6.5 9.45098 6.5ZM9.45098 9.9C9.16764 9.9 8.91764 9.79167 8.70098 9.575C8.48431 9.35833 8.37598 9.10833 8.37598 8.825C8.37598 8.525 8.47598 8.275 8.67598 8.075C8.89264 7.85833 9.15098 7.75 9.45098 7.75C9.75098 7.75 10.0093 7.85833 10.226 8.075C10.4426 8.275 10.551 8.525 10.551 8.825C10.551 9.125 10.4426 9.38333 10.226 9.6C10.0093 9.8 9.75098 9.9 9.45098 9.9ZM12.351 8.175C12.051 8.175 11.7926 8.06667 11.576 7.85C11.3593 7.63333 11.251 7.38333 11.251 7.1C11.251 6.8 11.3593 6.55 11.576 6.35C11.7926 6.13333 12.051 6.025 12.351 6.025C12.651 6.025 12.901 6.13333 13.101 6.35C13.3176 6.55 13.426 6.8 13.426 7.1C13.426 7.4 13.3176 7.65833 13.101 7.875C12.901 8.075 12.651 8.175 12.351 8.175Z" fill="black"/>
</g>
<defs>
<clipPath id="clip0_3208_22323">
<rect width="24" height="24" fill="white"/>
</clipPath>
</defs>
</svg>
