<svg width="24" height="24" viewBox="0 0 24 24" fill="none" xmlns="http://www.w3.org/2000/svg">
<g clip-path="url(#clip0_3375_5770)">
<rect width="24" height="24" fill="white"/>
<path d="M17.2505 22.525C16.7172 22.8417 16.1338 23 15.5005 23H8.50049C7.86716 23 7.27549 22.8417 6.72549 22.525C6.19216 22.225 5.76716 21.8 5.45049 21.25C5.15049 20.7167 5.00049 20.1333 5.00049 19.5V4.5C5.00049 3.86667 5.15049 3.28333 5.45049 2.75C5.76716 2.2 6.19216 1.775 6.72549 1.475C7.27549 1.15833 7.86716 1 8.50049 1H15.5005C16.1338 1 16.7172 1.15833 17.2505 1.475C17.8005 1.775 18.2255 2.2 18.5255 2.75C18.8422 3.28333 19.0005 3.86667 19.0005 4.5V19.5C19.0005 20.1333 18.8422 20.7167 18.5255 21.25C18.2255 21.8 17.8005 22.225 17.2505 22.525ZM7.77549 5.95C8.09216 6.25 8.45882 6.4 8.87549 6.4C9.30882 6.4 9.67549 6.25 9.97549 5.95C10.2755 5.63333 10.4255 5.26667 10.4255 4.85C10.4255 4.41667 10.2755 4.05 9.97549 3.75C9.67549 3.45 9.30882 3.3 8.87549 3.3C8.45882 3.3 8.09216 3.45 7.77549 3.75C7.47549 4.05 7.32549 4.41667 7.32549 4.85C7.32549 5.26667 7.47549 5.63333 7.77549 5.95ZM7.77549 10.1C8.09216 10.4 8.45882 10.55 8.87549 10.55C9.30882 10.55 9.67549 10.4 9.97549 10.1C10.2755 9.8 10.4255 9.43333 10.4255 9C10.4255 8.56667 10.2755 8.2 9.97549 7.9C9.67549 7.6 9.30882 7.45 8.87549 7.45C8.45882 7.45 8.09216 7.6 7.77549 7.9C7.47549 8.2 7.32549 8.56667 7.32549 9C7.32549 9.41667 7.47549 9.78333 7.77549 10.1Z" fill="black"/>
</g>
<defs>
<clipPath id="clip0_3375_5770">
<rect width="24" height="24" fill="white"/>
</clipPath>
</defs>
</svg>
