<svg width="24" height="24" viewBox="0 0 24 24" fill="none" xmlns="http://www.w3.org/2000/svg">
<g clip-path="url(#clip0_3208_21191)">
<rect width="24" height="24" fill="white"/>
<path d="M6.82598 21C6.12598 21 5.47598 20.8333 4.87598 20.5C4.29264 20.1667 3.83431 19.7083 3.50098 19.125C3.16764 18.525 3.00098 17.875 3.00098 17.175V6.825C3.00098 6.125 3.16764 5.48333 3.50098 4.9C3.83431 4.3 4.29264 3.83333 4.87598 3.5C5.47598 3.16667 6.12598 3 6.82598 3H17.176C17.876 3 18.5176 3.16667 19.101 3.5C19.701 3.83333 20.1676 4.3 20.501 4.9C20.8343 5.48333 21.001 6.125 21.001 6.825V17.175C21.001 17.875 20.8343 18.525 20.501 19.125C20.1676 19.7083 19.701 20.1667 19.101 20.5C18.5176 20.8333 17.876 21 17.176 21H6.82598ZM17.176 19.6C17.8426 19.6 18.4093 19.3667 18.876 18.9C19.3426 18.4333 19.576 17.8583 19.576 17.175V6.825C19.576 6.14167 19.3426 5.56667 18.876 5.1C18.4093 4.63333 17.8426 4.4 17.176 4.4H6.82598C6.15931 4.4 5.59264 4.63333 5.12598 5.1C4.65931 5.56667 4.42598 6.14167 4.42598 6.825V17.175C4.42598 17.8583 4.65931 18.4333 5.12598 18.9C5.59264 19.3667 6.15931 19.6 6.82598 19.6H17.176ZM12.701 12.95V15.7H11.326V12.95H12.701ZM12.701 3.75V6.45H11.326V3.75H12.701ZM12.701 17.55V20.25H11.326V17.55H12.701ZM12.701 8.3V11.05H11.326V8.3H12.701Z" fill="black"/>
</g>
<defs>
<clipPath id="clip0_3208_21191">
<rect width="24" height="24" fill="white"/>
</clipPath>
</defs>
</svg>
