<svg width="24" height="24" viewBox="0 0 24 24" fill="none" xmlns="http://www.w3.org/2000/svg">
<g clip-path="url(#clip0_3207_19672)">
<rect width="24" height="24" fill="white"/>
<path d="M11.8505 10.825V13.725H13.5755L15.1005 8.175H12.1505V5.275H10.4255L8.90049 10.825H11.8505ZM21.0005 19.05H3.00049V22H21.0005V19.05ZM17.0505 16.1C16.4338 16.7167 15.6672 17.025 14.7505 17.025H9.25049C8.33382 17.025 7.55882 16.7167 6.92549 16.1C6.30882 15.4667 6.00049 14.6917 6.00049 13.775V5.25C6.00049 4.33333 6.30882 3.56667 6.92549 2.95C7.55882 2.31667 8.33382 2 9.25049 2H14.7505C15.6672 2 16.4338 2.31667 17.0505 2.95C17.6838 3.56667 18.0005 4.33333 18.0005 5.25V13.775C18.0005 14.6917 17.6838 15.4667 17.0505 16.1Z" fill="black"/>
</g>
<defs>
<clipPath id="clip0_3207_19672">
<rect width="24" height="24" fill="white"/>
</clipPath>
</defs>
</svg>
