<svg width="24" height="24" viewBox="0 0 24 24" fill="none" xmlns="http://www.w3.org/2000/svg">
<g clip-path="url(#clip0_3375_5806)">
<rect width="24" height="24" fill="white"/>
<path d="M17.2505 23.025C16.7172 23.3417 16.1338 23.5 15.5005 23.5H8.50049C7.86716 23.5 7.27549 23.3417 6.72549 23.025C6.19216 22.725 5.76716 22.3 5.45049 21.75C5.15049 21.2167 5.00049 20.6333 5.00049 20V4C5.00049 3.36667 5.15049 2.78333 5.45049 2.25C5.76716 1.7 6.19216 1.275 6.72549 0.974999C7.27549 0.658332 7.86716 0.499999 8.50049 0.499999H15.5005C16.1338 0.499999 16.7172 0.658332 17.2505 0.974999C17.8005 1.275 18.2255 1.7 18.5255 2.25C18.8422 2.78333 19.0005 3.36667 19.0005 4V20C19.0005 20.6333 18.8422 21.2167 18.5255 21.75C18.2255 22.3 17.8005 22.725 17.2505 23.025ZM7.92549 6.325C8.27549 6.65833 8.67549 6.825 9.12549 6.825C9.60882 6.825 10.0172 6.65833 10.3505 6.325C10.7005 5.99167 10.8755 5.58333 10.8755 5.1C10.8755 4.61667 10.7088 4.20833 10.3755 3.875C10.0422 3.54167 9.63382 3.375 9.15049 3.375C8.66716 3.375 8.25882 3.55 7.92549 3.9C7.59216 4.23333 7.42549 4.63333 7.42549 5.1C7.42549 5.56667 7.59216 5.975 7.92549 6.325ZM7.92549 10.725C8.27549 11.0583 8.67549 11.225 9.12549 11.225C9.60882 11.225 10.0172 11.0583 10.3505 10.725C10.7005 10.3917 10.8755 9.98333 10.8755 9.5C10.8755 9.01667 10.7088 8.60833 10.3755 8.275C10.0422 7.94167 9.63382 7.775 9.15049 7.775C8.66716 7.775 8.25882 7.95 7.92549 8.3C7.59216 8.63333 7.42549 9.03333 7.42549 9.5C7.42549 9.96667 7.59216 10.375 7.92549 10.725ZM7.92549 15.125C8.27549 15.4583 8.67549 15.625 9.12549 15.625C9.60882 15.625 10.0172 15.4583 10.3505 15.125C10.7005 14.7917 10.8755 14.3833 10.8755 13.9C10.8755 13.4167 10.7088 13.0083 10.3755 12.675C10.0422 12.3417 9.63382 12.175 9.15049 12.175C8.66716 12.175 8.25882 12.35 7.92549 12.7C7.59216 13.0333 7.42549 13.4333 7.42549 13.9C7.42549 14.3667 7.59216 14.775 7.92549 15.125Z" fill="black"/>
</g>
<defs>
<clipPath id="clip0_3375_5806">
<rect width="24" height="24" fill="white"/>
</clipPath>
</defs>
</svg>
