<svg width="24" height="24" viewBox="0 0 24 24" fill="none" xmlns="http://www.w3.org/2000/svg">
<g clip-path="url(#clip0_3359_3859)">
<rect width="24" height="24" fill="white"/>
<path d="M11.501 10.8H9.35098L10.876 6.325H12.551V8.5H14.676L13.151 12.975H11.501V10.8ZM21.001 19.025V22H3.00098V19.025H21.001ZM9.07598 17.325C8.45931 17.325 7.88431 17.175 7.35098 16.875C6.83431 16.575 6.42598 16.1667 6.12598 15.65C5.82598 15.1167 5.67598 14.5333 5.67598 13.9V5.425C5.67598 4.79167 5.82598 4.21667 6.12598 3.7C6.42598 3.16667 6.83431 2.75 7.35098 2.45C7.88431 2.15 8.45931 2 9.07598 2H14.926C15.5426 2 16.1093 2.15 16.626 2.45C17.1593 2.75 17.576 3.16667 17.876 3.7C18.176 4.21667 18.326 4.79167 18.326 5.425V13.9C18.326 14.5333 18.176 15.1167 17.876 15.65C17.576 16.1667 17.1593 16.575 16.626 16.875C16.1093 17.175 15.5426 17.325 14.926 17.325H9.07598ZM14.676 14.375C14.876 14.375 15.0343 14.3167 15.151 14.2C15.2843 14.0667 15.351 13.9 15.351 13.7V5.625C15.351 5.425 15.2843 5.25833 15.151 5.125C15.0343 4.99167 14.876 4.925 14.676 4.925H9.32598C9.12598 4.925 8.95931 4.99167 8.82598 5.125C8.70931 5.25833 8.65098 5.425 8.65098 5.625V13.7C8.65098 13.9 8.70931 14.0667 8.82598 14.2C8.95931 14.3167 9.12598 14.375 9.32598 14.375H14.676Z" fill="black"/>
</g>
<defs>
<clipPath id="clip0_3359_3859">
<rect width="24" height="24" fill="white"/>
</clipPath>
</defs>
</svg>
