<svg width="24" height="24" viewBox="0 0 24 24" fill="none" xmlns="http://www.w3.org/2000/svg">
<g clip-path="url(#clip0_3375_5774)">
<rect width="24" height="24" fill="white"/>
<path d="M17.2505 22.525C16.7172 22.8417 16.1338 23 15.5005 23H8.50049C7.86716 23 7.27549 22.8417 6.72549 22.525C6.19216 22.225 5.76716 21.8 5.45049 21.25C5.15049 20.7167 5.00049 20.1333 5.00049 19.5V4.5C5.00049 3.86667 5.15049 3.28333 5.45049 2.75C5.76716 2.2 6.19216 1.775 6.72549 1.475C7.27549 1.15833 7.86716 1 8.50049 1H15.5005C16.1338 1 16.7172 1.15833 17.2505 1.475C17.8005 1.775 18.2255 2.2 18.5255 2.75C18.8422 3.28333 19.0005 3.86667 19.0005 4.5V19.5C19.0005 20.1333 18.8422 20.7167 18.5255 21.25C18.2255 21.8 17.8005 22.225 17.2505 22.525ZM8.05049 6.725C8.43382 7.09167 8.88382 7.275 9.40049 7.275C9.93382 7.275 10.3838 7.09167 10.7505 6.725C11.1172 6.34167 11.3005 5.89167 11.3005 5.375C11.3005 4.84167 11.1172 4.39167 10.7505 4.025C10.3838 3.65833 9.94216 3.475 9.42549 3.475C8.89216 3.475 8.43382 3.66667 8.05049 4.05C7.68382 4.41667 7.50049 4.85833 7.50049 5.375C7.50049 5.89167 7.68382 6.34167 8.05049 6.725ZM8.05049 11.7C8.43382 12.0667 8.88382 12.25 9.40049 12.25C9.93382 12.25 10.3838 12.0667 10.7505 11.7C11.1172 11.3167 11.3005 10.8667 11.3005 10.35C11.3005 9.81667 11.1172 9.36667 10.7505 9C10.3838 8.63333 9.94216 8.45 9.42549 8.45C8.89216 8.45 8.43382 8.64167 8.05049 9.025C7.68382 9.39167 7.50049 9.83333 7.50049 10.35C7.50049 10.8667 7.68382 11.3167 8.05049 11.7Z" fill="black"/>
</g>
<defs>
<clipPath id="clip0_3375_5774">
<rect width="24" height="24" fill="white"/>
</clipPath>
</defs>
</svg>
