<svg width="24" height="24" viewBox="0 0 24 24" fill="none" xmlns="http://www.w3.org/2000/svg">
<g clip-path="url(#clip0_3207_19654)">
<rect width="24" height="24" fill="white"/>
<path d="M11.776 10.95H9.52598L11.101 6.45H12.226V9.05H14.476L12.901 13.55H11.776V10.95ZM21.001 20.15V22H3.00098V20.15H21.001ZM9.75098 18C9.06764 18 8.43431 17.8333 7.85098 17.5C7.28431 17.1667 6.83431 16.7167 6.50098 16.15C6.16764 15.5667 6.00098 14.9333 6.00098 14.25V5.75C6.00098 5.06667 6.16764 4.44167 6.50098 3.875C6.83431 3.29167 7.28431 2.83333 7.85098 2.5C8.43431 2.16667 9.06764 2 9.75098 2H14.251C14.9343 2 15.5593 2.16667 16.126 2.5C16.7093 2.83333 17.1676 3.29167 17.501 3.875C17.8343 4.44167 18.001 5.06667 18.001 5.75V14.25C18.001 14.9333 17.8343 15.5667 17.501 16.15C17.1676 16.7167 16.7093 17.1667 16.126 17.5C15.5593 17.8333 14.9343 18 14.251 18H9.75098ZM14.251 16.15C14.7676 16.15 15.201 15.9667 15.551 15.6C15.9176 15.2333 16.101 14.7833 16.101 14.25V5.75C16.101 5.21667 15.9176 4.76667 15.551 4.4C15.201 4.03333 14.7676 3.85 14.251 3.85H9.75098C9.23431 3.85 8.79264 4.03333 8.42598 4.4C8.07598 4.76667 7.90098 5.21667 7.90098 5.75V14.25C7.90098 14.7833 8.07598 15.2333 8.42598 15.6C8.79264 15.9667 9.23431 16.15 9.75098 16.15H14.251Z" fill="black"/>
</g>
<defs>
<clipPath id="clip0_3207_19654">
<rect width="24" height="24" fill="white"/>
</clipPath>
</defs>
</svg>
