<svg width="24" height="24" viewBox="0 0 24 24" fill="none" xmlns="http://www.w3.org/2000/svg">
<g clip-path="url(#clip0_3208_22331)">
<rect width="24" height="24" fill="white"/>
<path d="M8.25098 22.5C7.41764 22.5 6.65931 22.3 5.97598 21.9C5.29264 21.5 4.75098 20.9583 4.35098 20.275C3.95098 19.5917 3.75098 18.8333 3.75098 18V6C3.75098 5.16667 3.95098 4.40833 4.35098 3.725C4.75098 3.04167 5.29264 2.5 5.97598 2.1C6.65931 1.7 7.41764 1.5 8.25098 1.5H15.751C16.5843 1.5 17.3426 1.7 18.026 2.1C18.7093 2.5 19.251 3.04167 19.651 3.725C20.051 4.40833 20.251 5.16667 20.251 6V18C20.251 18.8333 20.051 19.5917 19.651 20.275C19.251 20.9583 18.7093 21.5 18.026 21.9C17.3426 22.3 16.5843 22.5 15.751 22.5H8.25098ZM15.751 18.95C16.001 18.95 16.2093 18.8583 16.376 18.675C16.5593 18.4917 16.651 18.2667 16.651 18V6C16.651 5.73333 16.5593 5.50833 16.376 5.325C16.2093 5.14167 16.001 5.05 15.751 5.05H8.25098C8.00098 5.05 7.78431 5.14167 7.60098 5.325C7.43431 5.50833 7.35098 5.73333 7.35098 6V18C7.35098 18.2667 7.43431 18.4917 7.60098 18.675C7.78431 18.8583 8.00098 18.95 8.25098 18.95H15.751ZM10.051 9.55C9.56764 9.55 9.14264 9.375 8.77598 9.025C8.42598 8.65833 8.25098 8.23333 8.25098 7.75C8.25098 7.23333 8.42598 6.8 8.77598 6.45C9.14264 6.1 9.56764 5.925 10.051 5.925C10.551 5.925 10.976 6.1 11.326 6.45C11.676 6.8 11.851 7.23333 11.851 7.75C11.851 8.23333 11.676 8.65833 11.326 9.025C10.976 9.375 10.551 9.55 10.051 9.55ZM10.051 13.575C9.56764 13.575 9.14264 13.4 8.77598 13.05C8.42598 12.6833 8.25098 12.2583 8.25098 11.775C8.25098 11.2583 8.42598 10.825 8.77598 10.475C9.14264 10.125 9.56764 9.95 10.051 9.95C10.551 9.95 10.976 10.125 11.326 10.475C11.676 10.825 11.851 11.2583 11.851 11.775C11.851 12.2583 11.676 12.6833 11.326 13.05C10.976 13.4 10.551 13.575 10.051 13.575ZM13.476 11.55C12.9926 11.55 12.5676 11.375 12.201 11.025C11.851 10.6583 11.676 10.2333 11.676 9.75C11.676 9.23333 11.851 8.8 12.201 8.45C12.5676 8.1 12.9926 7.925 13.476 7.925C13.976 7.925 14.401 8.1 14.751 8.45C15.101 8.8 15.276 9.23333 15.276 9.75C15.276 10.2333 15.101 10.6583 14.751 11.025C14.401 11.375 13.976 11.55 13.476 11.55Z" fill="black"/>
</g>
<defs>
<clipPath id="clip0_3208_22331">
<rect width="24" height="24" fill="white"/>
</clipPath>
</defs>
</svg>
