<svg width="24" height="24" viewBox="0 0 24 24" fill="none" xmlns="http://www.w3.org/2000/svg">
<g clip-path="url(#clip0_3207_20915)">
<rect width="24" height="24" fill="white"/>
<path d="M17.2505 22.525C16.7172 22.8417 16.1338 23 15.5005 23H8.50049C7.86716 23 7.27549 22.8417 6.72549 22.525C6.19216 22.225 5.76716 21.8 5.45049 21.25C5.15049 20.7167 5.00049 20.1333 5.00049 19.5V4.5C5.00049 3.86667 5.15049 3.28333 5.45049 2.75C5.76716 2.2 6.19216 1.775 6.72549 1.475C7.27549 1.15833 7.86716 1 8.50049 1H15.5005C16.1338 1 16.7172 1.15833 17.2505 1.475C17.8005 1.775 18.2255 2.2 18.5255 2.75C18.8422 3.28333 19.0005 3.86667 19.0005 4.5V19.5C19.0005 20.1333 18.8422 20.7167 18.5255 21.25C18.2255 21.8 17.8005 22.225 17.2505 22.525ZM8.27549 4.925C8.37549 5.025 8.49216 5.075 8.62549 5.075C8.75882 5.075 8.87549 5.025 8.97549 4.925C9.07549 4.825 9.12549 4.70833 9.12549 4.575C9.12549 4.44167 9.07549 4.325 8.97549 4.225C8.87549 4.125 8.75882 4.075 8.62549 4.075C8.49216 4.075 8.37549 4.125 8.27549 4.225C8.17549 4.325 8.12549 4.44167 8.12549 4.575C8.12549 4.70833 8.17549 4.825 8.27549 4.925ZM8.27549 8.675C8.37549 8.775 8.49216 8.825 8.62549 8.825C8.75882 8.825 8.87549 8.775 8.97549 8.675C9.07549 8.575 9.12549 8.45833 9.12549 8.325C9.12549 8.19167 9.07549 8.075 8.97549 7.975C8.87549 7.875 8.75882 7.825 8.62549 7.825C8.49216 7.825 8.37549 7.875 8.27549 7.975C8.17549 8.075 8.12549 8.19167 8.12549 8.325C8.12549 8.45833 8.17549 8.575 8.27549 8.675ZM8.27549 12.425C8.37549 12.525 8.49216 12.575 8.62549 12.575C8.75882 12.575 8.87549 12.525 8.97549 12.425C9.07549 12.325 9.12549 12.2083 9.12549 12.075C9.12549 11.9417 9.07549 11.825 8.97549 11.725C8.87549 11.625 8.75882 11.575 8.62549 11.575C8.49216 11.575 8.37549 11.625 8.27549 11.725C8.17549 11.825 8.12549 11.9417 8.12549 12.075C8.12549 12.2083 8.17549 12.325 8.27549 12.425Z" fill="black"/>
</g>
<defs>
<clipPath id="clip0_3207_20915">
<rect width="24" height="24" fill="white"/>
</clipPath>
</defs>
</svg>
