<svg width="24" height="24" viewBox="0 0 24 24" fill="none" xmlns="http://www.w3.org/2000/svg">
<g clip-path="url(#clip0_3207_20279)">
<rect width="24" height="24" fill="white"/>
<path d="M10.801 18.55C10.9343 18.55 11.0426 18.6 11.126 18.7C11.226 18.7833 11.276 18.8917 11.276 19.025C11.276 19.1583 11.226 19.275 11.126 19.375C11.0426 19.4583 10.9343 19.5 10.801 19.5H8.15098C8.00098 19.5 7.87598 19.4583 7.77598 19.375C7.69264 19.275 7.65098 19.1583 7.65098 19.025C7.65098 18.8917 7.69264 18.7833 7.77598 18.7C7.87598 18.6 8.00098 18.55 8.15098 18.55H10.801ZM15.851 18.55C16.001 18.55 16.1176 18.6 16.201 18.7C16.301 18.7833 16.351 18.8917 16.351 19.025C16.351 19.1583 16.301 19.275 16.201 19.375C16.1176 19.4583 16.001 19.5 15.851 19.5H13.201C13.0676 19.5 12.951 19.4583 12.851 19.375C12.7676 19.275 12.726 19.1583 12.726 19.025C12.726 18.8917 12.7676 18.7833 12.851 18.7C12.951 18.6 13.0676 18.55 13.201 18.55H15.851ZM10.801 15.4C10.9343 15.4 11.0426 15.45 11.126 15.55C11.226 15.6333 11.276 15.7417 11.276 15.875C11.276 16.0083 11.226 16.125 11.126 16.225C11.0426 16.3083 10.9343 16.35 10.801 16.35H8.15098C8.00098 16.35 7.87598 16.3083 7.77598 16.225C7.69264 16.125 7.65098 16.0083 7.65098 15.875C7.65098 15.7417 7.69264 15.6333 7.77598 15.55C7.87598 15.45 8.00098 15.4 8.15098 15.4H10.801ZM15.851 15.4C16.001 15.4 16.1176 15.45 16.201 15.55C16.301 15.6333 16.351 15.7417 16.351 15.875C16.351 16.0083 16.301 16.125 16.201 16.225C16.1176 16.3083 16.001 16.35 15.851 16.35H13.201C13.0676 16.35 12.951 16.3083 12.851 16.225C12.7676 16.125 12.726 16.0083 12.726 15.875C12.726 15.7417 12.7676 15.6333 12.851 15.55C12.951 15.45 13.0676 15.4 13.201 15.4H15.851ZM8.67598 23C7.99264 23 7.36764 22.8333 6.80098 22.5C6.25098 22.1833 5.80931 21.7417 5.47598 21.175C5.15931 20.625 5.00098 20.0083 5.00098 19.325V4.675C5.00098 3.99167 5.15931 3.36667 5.47598 2.8C5.80931 2.23333 6.25098 1.79167 6.80098 1.475C7.36764 1.15833 7.99264 1 8.67598 1H15.326C16.0093 1 16.6343 1.15833 17.201 1.475C17.7676 1.79167 18.2093 2.23333 18.526 2.8C18.8426 3.36667 19.001 3.99167 19.001 4.675V19.325C19.001 20.0083 18.8426 20.625 18.526 21.175C18.2093 21.7417 17.7676 22.1833 17.201 22.5C16.6343 22.8333 16.0093 23 15.326 23H8.67598ZM15.326 22.075C16.0926 22.075 16.7343 21.8083 17.251 21.275C17.7843 20.7417 18.051 20.0917 18.051 19.325V4.675C18.051 3.90833 17.7843 3.25833 17.251 2.725C16.7343 2.19167 16.0926 1.925 15.326 1.925H8.67598C7.90931 1.925 7.25931 2.19167 6.72598 2.725C6.20931 3.25833 5.95098 3.90833 5.95098 4.675V19.325C5.95098 20.0917 6.20931 20.7417 6.72598 21.275C7.25931 21.8083 7.90931 22.075 8.67598 22.075H15.326Z" fill="black"/>
</g>
<defs>
<clipPath id="clip0_3207_20279">
<rect width="24" height="24" fill="white"/>
</clipPath>
</defs>
</svg>
