<svg width="24" height="24" viewBox="0 0 24 24" fill="none" xmlns="http://www.w3.org/2000/svg">
<g clip-path="url(#clip0_3207_20611)">
<rect width="24" height="24" fill="white"/>
<path d="M17.2505 22.525C16.7172 22.8417 16.1338 23 15.5005 23H8.50049C7.86716 23 7.27549 22.8417 6.72549 22.525C6.19216 22.225 5.76716 21.8 5.45049 21.25C5.15049 20.7167 5.00049 20.1333 5.00049 19.5V4.5C5.00049 3.86667 5.15049 3.28333 5.45049 2.75C5.76716 2.2 6.19216 1.775 6.72549 1.475C7.27549 1.15833 7.86716 1 8.50049 1H15.5005C16.1338 1 16.7172 1.15833 17.2505 1.475C17.8005 1.775 18.2255 2.2 18.5255 2.75C18.8422 3.28333 19.0005 3.86667 19.0005 4.5V19.5C19.0005 20.1333 18.8422 20.7167 18.5255 21.25C18.2255 21.8 17.8005 22.225 17.2505 22.525ZM7.92549 6.25C8.25882 6.58333 8.65049 6.75 9.10049 6.75C9.56716 6.75 9.95882 6.59167 10.2755 6.275C10.6088 5.94167 10.7755 5.54167 10.7755 5.075C10.7755 4.60833 10.6088 4.21667 10.2755 3.9C9.95882 3.56667 9.56716 3.4 9.10049 3.4C8.63382 3.4 8.23382 3.56667 7.90049 3.9C7.58382 4.21667 7.42549 4.60833 7.42549 5.075C7.42549 5.525 7.59216 5.91667 7.92549 6.25Z" fill="black"/>
</g>
<defs>
<clipPath id="clip0_3207_20611">
<rect width="24" height="24" fill="white"/>
</clipPath>
</defs>
</svg>
