<svg width="24" height="24" viewBox="0 0 24 24" fill="none" xmlns="http://www.w3.org/2000/svg">
<g clip-path="url(#clip0_3207_20879)">
<rect width="24" height="24" fill="white"/>
<path d="M8.57598 12.675H5.67598V11.325H8.57598V12.675ZM18.301 12.675H15.426V11.325H18.301V12.675ZM13.526 12.675H10.476V11.325H13.526V12.675ZM8.82598 23C8.12598 23 7.47598 22.8333 6.87598 22.5C6.29264 22.1667 5.83431 21.7 5.50098 21.1C5.16764 20.5167 5.00098 19.875 5.00098 19.175V4.825C5.00098 4.125 5.16764 3.48333 5.50098 2.9C5.83431 2.3 6.29264 1.83333 6.87598 1.5C7.47598 1.16667 8.12598 1 8.82598 1H15.176C15.876 1 16.5176 1.16667 17.101 1.5C17.701 1.83333 18.1676 2.3 18.501 2.9C18.8343 3.48333 19.001 4.125 19.001 4.825V19.175C19.001 19.875 18.8343 20.5167 18.501 21.1C18.1676 21.7 17.701 22.1667 17.101 22.5C16.5176 22.8333 15.876 23 15.176 23H8.82598ZM15.176 21.6C15.8426 21.6 16.4093 21.3667 16.876 20.9C17.3426 20.4333 17.576 19.8583 17.576 19.175V4.825C17.576 4.14167 17.3426 3.56667 16.876 3.1C16.4093 2.63333 15.8426 2.4 15.176 2.4H8.82598C8.15931 2.4 7.59264 2.63333 7.12598 3.1C6.65931 3.56667 6.42598 4.14167 6.42598 4.825V19.175C6.42598 19.8583 6.65931 20.4333 7.12598 20.9C7.59264 21.3667 8.15931 21.6 8.82598 21.6H15.176Z" fill="black"/>
</g>
<defs>
<clipPath id="clip0_3207_20879">
<rect width="24" height="24" fill="white"/>
</clipPath>
</defs>
</svg>
