<svg width="24" height="24" viewBox="0 0 24 24" fill="none" xmlns="http://www.w3.org/2000/svg">
<g clip-path="url(#clip0_3207_20543)">
<rect width="24" height="24" fill="white"/>
<path d="M22.601 8.4L21.301 10.125L22.776 11.975L21.301 13.825L22.601 15.55L21.351 16.5L19.301 13.825L20.726 11.975L19.301 10.125L21.351 7.45L22.601 8.4ZM2.65098 7.45L4.70098 10.125L3.27598 11.975L4.70098 13.825L2.65098 16.5L1.40098 15.55L2.70098 13.825L1.22598 11.975L2.70098 10.125L1.40098 8.4L2.65098 7.45ZM10.251 22C9.56764 22 8.93431 21.8333 8.35098 21.5C7.78431 21.1667 7.33431 20.7167 7.00098 20.15C6.66764 19.5667 6.50098 18.9333 6.50098 18.25V5.75C6.50098 5.06667 6.66764 4.44167 7.00098 3.875C7.33431 3.29167 7.78431 2.83333 8.35098 2.5C8.93431 2.16667 9.56764 2 10.251 2H13.751C14.4343 2 15.0593 2.16667 15.626 2.5C16.2093 2.83333 16.6676 3.29167 17.001 3.875C17.3343 4.44167 17.501 5.06667 17.501 5.75V18.25C17.501 18.9333 17.3343 19.5667 17.001 20.15C16.6676 20.7167 16.2093 21.1667 15.626 21.5C15.0593 21.8333 14.4343 22 13.751 22H10.251ZM13.751 20.2C14.2676 20.2 14.7093 20.0083 15.076 19.625C15.4593 19.2417 15.651 18.7833 15.651 18.25V5.75C15.651 5.21667 15.4593 4.75833 15.076 4.375C14.7093 3.99167 14.2676 3.8 13.751 3.8H10.251C9.73431 3.8 9.28431 3.99167 8.90098 4.375C8.53431 4.75833 8.35098 5.21667 8.35098 5.75V18.25C8.35098 18.7833 8.53431 19.2417 8.90098 19.625C9.28431 20.0083 9.73431 20.2 10.251 20.2H13.751Z" fill="black"/>
</g>
<defs>
<clipPath id="clip0_3207_20543">
<rect width="24" height="24" fill="white"/>
</clipPath>
</defs>
</svg>
