<svg width="24" height="24" viewBox="0 0 24 24" fill="none" xmlns="http://www.w3.org/2000/svg">
<g clip-path="url(#clip0_3208_22343)">
<rect width="24" height="24" fill="white"/>
<path d="M17.2505 22.525C16.7172 22.8417 16.1338 23 15.5005 23H8.50049C7.86716 23 7.27549 22.8417 6.72549 22.525C6.19216 22.225 5.76716 21.8 5.45049 21.25C5.15049 20.7167 5.00049 20.1333 5.00049 19.5V4.5C5.00049 3.86667 5.15049 3.28333 5.45049 2.75C5.76716 2.2 6.19216 1.775 6.72549 1.475C7.27549 1.15833 7.86716 1 8.50049 1H15.5005C16.1338 1 16.7172 1.15833 17.2505 1.475C17.8005 1.775 18.2255 2.2 18.5255 2.75C18.8422 3.28333 19.0005 3.86667 19.0005 4.5V19.5C19.0005 20.1333 18.8422 20.7167 18.5255 21.25C18.2255 21.8 17.8005 22.225 17.2505 22.525ZM7.92549 6.325C8.27549 6.65833 8.67549 6.825 9.12549 6.825C9.60882 6.825 10.0172 6.65833 10.3505 6.325C10.7005 5.99167 10.8755 5.58333 10.8755 5.1C10.8755 4.61667 10.7088 4.20833 10.3755 3.875C10.0422 3.54167 9.63382 3.375 9.15049 3.375C8.66716 3.375 8.25882 3.55 7.92549 3.9C7.59216 4.23333 7.42549 4.63333 7.42549 5.1C7.42549 5.56667 7.59216 5.975 7.92549 6.325ZM7.92549 10.725C8.27549 11.0583 8.67549 11.225 9.12549 11.225C9.60882 11.225 10.0172 11.0583 10.3505 10.725C10.7005 10.3917 10.8755 9.98333 10.8755 9.5C10.8755 9.01667 10.7088 8.60833 10.3755 8.275C10.0422 7.94167 9.63382 7.775 9.15049 7.775C8.66716 7.775 8.25882 7.95 7.92549 8.3C7.59216 8.63333 7.42549 9.03333 7.42549 9.5C7.42549 9.96667 7.59216 10.375 7.92549 10.725ZM11.7255 8.6C12.0755 8.93333 12.4838 9.1 12.9505 9.1C13.4338 9.1 13.8422 8.93333 14.1755 8.6C14.5088 8.25 14.6755 7.84167 14.6755 7.375C14.6755 6.89167 14.5088 6.48333 14.1755 6.15C13.8422 5.81667 13.4422 5.65 12.9755 5.65C12.4922 5.65 12.0755 5.825 11.7255 6.175C11.3922 6.50833 11.2255 6.90833 11.2255 7.375C11.2255 7.84167 11.3922 8.25 11.7255 8.6Z" fill="black"/>
</g>
<defs>
<clipPath id="clip0_3208_22343">
<rect width="24" height="24" fill="white"/>
</clipPath>
</defs>
</svg>
