<svg width="24" height="24" viewBox="0 0 24 24" fill="none" xmlns="http://www.w3.org/2000/svg">
<g clip-path="url(#clip0_3208_21197)">
<rect width="24" height="24" fill="white"/>
<path d="M7.40098 21C6.60098 21 5.85931 20.8083 5.17598 20.425C4.50931 20.025 3.97598 19.4917 3.57598 18.825C3.19264 18.1417 3.00098 17.4 3.00098 16.6V7.375C3.00098 6.575 3.19264 5.84167 3.57598 5.175C3.97598 4.49167 4.50931 3.95833 5.17598 3.575C5.85931 3.19167 6.60098 3 7.40098 3H16.426C17.276 3 18.051 3.19167 18.751 3.575C19.451 3.95833 20.001 4.49167 20.401 5.175C20.801 5.84167 21.001 6.575 21.001 7.375V16.6C21.001 17.4 20.8093 18.1417 20.426 18.825C20.0426 19.4917 19.5093 20.025 18.826 20.425C18.1593 20.8083 17.426 21 16.626 21H7.40098ZM16.626 18.05C17.0093 18.05 17.3343 17.9083 17.601 17.625C17.8676 17.3417 18.001 17 18.001 16.6V7.375C18.001 6.975 17.8676 6.64167 17.601 6.375C17.3343 6.09167 17.0093 5.95 16.626 5.95H7.40098C7.00098 5.95 6.66764 6.09167 6.40098 6.375C6.13431 6.64167 6.00098 6.975 6.00098 7.375V16.6C6.00098 17 6.13431 17.3417 6.40098 17.625C6.66764 17.9083 7.00098 18.05 7.40098 18.05H16.626ZM13.426 10.275V13.425H10.576V10.275H13.426ZM14.626 3.55H14.376H14.626ZM13.426 15.225V18.5H10.576V15.225H13.426ZM13.426 5.475V8.45H10.576V5.475H13.426Z" fill="black"/>
</g>
<defs>
<clipPath id="clip0_3208_21197">
<rect width="24" height="24" fill="white"/>
</clipPath>
</defs>
</svg>
