<svg width="24" height="24" viewBox="0 0 24 24" fill="none" xmlns="http://www.w3.org/2000/svg">
<g clip-path="url(#clip0_3207_19332)">
<rect width="24" height="24" fill="white"/>
<path d="M21.0005 19.55V22H3.00049V19.55H21.0005ZM9.25049 17.525C8.33382 17.525 7.55882 17.2167 6.92549 16.6C6.30882 15.9667 6.00049 15.1917 6.00049 14.275V5.25C6.00049 4.33333 6.30882 3.56667 6.92549 2.95C7.55882 2.31667 8.33382 2 9.25049 2H14.7505C15.6672 2 16.4338 2.31667 17.0505 2.95C17.6838 3.56667 18.0005 4.33333 18.0005 5.25V14.275C18.0005 15.1917 17.6838 15.9667 17.0505 16.6C16.4338 17.2167 15.6672 17.525 14.7505 17.525H9.25049Z" fill="black"/>
</g>
<defs>
<clipPath id="clip0_3207_19332">
<rect width="24" height="24" fill="white"/>
</clipPath>
</defs>
</svg>
