<svg width="24" height="24" viewBox="0 0 24 24" fill="none" xmlns="http://www.w3.org/2000/svg">
<g clip-path="url(#clip0_3207_19008)">
<rect width="24" height="24" fill="white"/>
<path d="M10.526 11.9H13.476V16.375H10.526V11.9ZM12.001 10.75C11.4843 10.75 11.0593 10.5833 10.726 10.25C10.4093 9.91667 10.251 9.49167 10.251 8.975C10.251 8.475 10.4093 8.06667 10.726 7.75C11.0593 7.41667 11.4843 7.25 12.001 7.25C12.5176 7.25 12.9343 7.41667 13.251 7.75C13.5843 8.06667 13.751 8.475 13.751 8.975C13.751 9.49167 13.5843 9.91667 13.251 10.25C12.9343 10.5833 12.5176 10.75 12.001 10.75ZM8.82598 23C8.02598 23 7.29264 22.8083 6.62598 22.425C5.97598 22.0417 5.45931 21.525 5.07598 20.875C4.69264 20.2083 4.50098 19.475 4.50098 18.675V5.325C4.50098 4.525 4.69264 3.8 5.07598 3.15C5.45931 2.48333 5.97598 1.95833 6.62598 1.575C7.29264 1.19167 8.02598 1 8.82598 1H15.176C15.976 1 16.701 1.19167 17.351 1.575C18.0176 1.95833 18.5426 2.48333 18.926 3.15C19.3093 3.8 19.501 4.525 19.501 5.325V18.675C19.501 19.475 19.3093 20.2083 18.926 20.875C18.5426 21.525 18.0176 22.0417 17.351 22.425C16.701 22.8083 15.976 23 15.176 23H8.82598ZM15.176 20.075C15.5593 20.075 15.876 19.9417 16.126 19.675C16.3926 19.4083 16.526 19.075 16.526 18.675V5.325C16.526 4.925 16.3926 4.59167 16.126 4.325C15.876 4.05833 15.5593 3.925 15.176 3.925H8.82598C8.44264 3.925 8.11764 4.05833 7.85098 4.325C7.60098 4.59167 7.47598 4.925 7.47598 5.325V18.675C7.47598 19.075 7.60098 19.4083 7.85098 19.675C8.11764 19.9417 8.44264 20.075 8.82598 20.075H15.176Z" fill="black"/>
</g>
<defs>
<clipPath id="clip0_3207_19008">
<rect width="24" height="24" fill="white"/>
</clipPath>
</defs>
</svg>
