<svg width="24" height="24" viewBox="0 0 24 24" fill="none" xmlns="http://www.w3.org/2000/svg">
<g clip-path="url(#clip0_3207_20539)">
<rect width="24" height="24" fill="white"/>
<path d="M2.02598 7.925L3.62598 10.125L2.10098 11.975L3.62598 13.825L2.02598 16.025H1.00098L2.57598 13.85L1.00098 11.975L2.57598 10.1L1.00098 7.925H2.02598ZM9.92598 22C9.29264 22 8.70931 21.85 8.17598 21.55C7.65931 21.25 7.25098 20.8417 6.95098 20.325C6.65098 19.7917 6.50098 19.2083 6.50098 18.575V5.425C6.50098 4.79167 6.65098 4.21667 6.95098 3.7C7.25098 3.16667 7.65931 2.75 8.17598 2.45C8.70931 2.15 9.29264 2 9.92598 2H14.076C14.7093 2 15.2843 2.15 15.801 2.45C16.3343 2.75 16.751 3.16667 17.051 3.7C17.351 4.21667 17.501 4.79167 17.501 5.425V18.575C17.501 19.2083 17.351 19.7917 17.051 20.325C16.751 20.8417 16.3343 21.25 15.801 21.55C15.2843 21.85 14.7093 22 14.076 22H9.92598ZM14.076 21.075C14.7593 21.075 15.3426 20.8333 15.826 20.35C16.3093 19.8667 16.551 19.275 16.551 18.575V5.425C16.551 4.725 16.3093 4.13333 15.826 3.65C15.3426 3.16667 14.7593 2.925 14.076 2.925H9.92598C9.24264 2.925 8.65931 3.16667 8.17598 3.65C7.69264 4.13333 7.45098 4.725 7.45098 5.425V18.575C7.45098 19.275 7.69264 19.8667 8.17598 20.35C8.65931 20.8333 9.24264 21.075 9.92598 21.075H14.076ZM23.001 7.925L21.426 10.1L23.001 11.975L21.426 13.85L23.001 16.025H21.976L20.376 13.825L21.901 11.975L20.376 10.125L21.976 7.925H23.001Z" fill="black"/>
</g>
<defs>
<clipPath id="clip0_3207_20539">
<rect width="24" height="24" fill="white"/>
</clipPath>
</defs>
</svg>
