<svg width="24" height="24" viewBox="0 0 24 24" fill="none" xmlns="http://www.w3.org/2000/svg">
<g clip-path="url(#clip0_3207_19016)">
<rect width="24" height="24" fill="white"/>
<path d="M17.2505 23.025C16.7172 23.3417 16.1338 23.5 15.5005 23.5H8.50049C7.86716 23.5 7.27549 23.3417 6.72549 23.025C6.19216 22.725 5.76716 22.3 5.45049 21.75C5.15049 21.2167 5.00049 20.6333 5.00049 20V4C5.00049 3.36667 5.15049 2.78333 5.45049 2.25C5.76716 1.7 6.19216 1.275 6.72549 0.974999C7.27549 0.658332 7.86716 0.499999 8.50049 0.499999H15.5005C16.1338 0.499999 16.7172 0.658332 17.2505 0.974999C17.8005 1.275 18.2255 1.7 18.5255 2.25C18.8422 2.78333 19.0005 3.36667 19.0005 4V20C19.0005 20.6333 18.8422 21.2167 18.5255 21.75C18.2255 22.3 17.8005 22.725 17.2505 23.025ZM11.2755 10.475V17.125H12.7255V10.475H11.2755ZM11.2755 8.475C11.4588 8.65833 11.7005 8.75 12.0005 8.75C12.2838 8.75 12.5172 8.65833 12.7005 8.475C12.9005 8.275 13.0005 8.025 13.0005 7.725C13.0005 7.45833 12.9005 7.23333 12.7005 7.05C12.5172 6.85 12.2838 6.75 12.0005 6.75C11.7005 6.75 11.4588 6.84167 11.2755 7.025C11.0922 7.20833 11.0005 7.44167 11.0005 7.725C11.0005 8.025 11.0922 8.275 11.2755 8.475Z" fill="black"/>
</g>
<defs>
<clipPath id="clip0_3207_19016">
<rect width="24" height="24" fill="white"/>
</clipPath>
</defs>
</svg>
