<svg width="24" height="24" viewBox="0 0 24 24" fill="none" xmlns="http://www.w3.org/2000/svg">
<g clip-path="url(#clip0_3207_20881)">
<rect width="24" height="24" fill="white"/>
<path d="M8.65098 12.9H5.92598V11.1H8.65098V12.9ZM18.051 12.9H15.351V11.1H18.051V12.9ZM13.351 12.9H10.651V11.1H13.351V12.9ZM9.00098 23C8.26764 23 7.59264 22.825 6.97598 22.475C6.35931 22.125 5.87598 21.6417 5.52598 21.025C5.17598 20.4083 5.00098 19.7333 5.00098 19V5C5.00098 4.26667 5.17598 3.59167 5.52598 2.975C5.87598 2.35833 6.35931 1.875 6.97598 1.525C7.59264 1.175 8.26764 1 9.00098 1H15.001C15.7343 1 16.4093 1.175 17.026 1.525C17.6426 1.875 18.126 2.35833 18.476 2.975C18.826 3.59167 19.001 4.26667 19.001 5V19C19.001 19.7333 18.826 20.4083 18.476 21.025C18.126 21.6417 17.6426 22.125 17.026 22.475C16.4093 22.825 15.7343 23 15.001 23H9.00098ZM15.001 21.15C15.601 21.15 16.101 20.95 16.501 20.55C16.901 20.1333 17.101 19.6167 17.101 19V5C17.101 4.38333 16.901 3.875 16.501 3.475C16.101 3.05833 15.601 2.85 15.001 2.85H9.00098C8.40098 2.85 7.90098 3.05833 7.50098 3.475C7.10098 3.875 6.90098 4.38333 6.90098 5V19C6.90098 19.6167 7.10098 20.1333 7.50098 20.55C7.90098 20.95 8.40098 21.15 9.00098 21.15H15.001Z" fill="black"/>
</g>
<defs>
<clipPath id="clip0_3207_20881">
<rect width="24" height="24" fill="white"/>
</clipPath>
</defs>
</svg>
