<svg width="24" height="24" viewBox="0 0 24 24" fill="none" xmlns="http://www.w3.org/2000/svg">
<g clip-path="url(#clip0_3207_19318)">
<rect width="24" height="24" fill="white"/>
<path d="M21.001 19.625V22H3.00098V19.625H21.001ZM9.67598 17.525C9.00931 17.525 8.39264 17.3667 7.82598 17.05C7.25931 16.7167 6.80931 16.2667 6.47598 15.7C6.15931 15.1333 6.00098 14.5167 6.00098 13.85V5.675C6.00098 5.00833 6.15931 4.39167 6.47598 3.825C6.80931 3.25833 7.25931 2.81667 7.82598 2.5C8.39264 2.16667 9.00931 2 9.67598 2H14.326C14.9926 2 15.6093 2.16667 16.176 2.5C16.7426 2.81667 17.1843 3.25833 17.501 3.825C17.8343 4.39167 18.001 5.00833 18.001 5.675V13.85C18.001 14.5167 17.8343 15.1333 17.501 15.7C17.1843 16.2667 16.7426 16.7167 16.176 17.05C15.6093 17.3667 14.9926 17.525 14.326 17.525H9.67598ZM14.301 15.125C14.651 15.125 14.951 15 15.201 14.75C15.451 14.5 15.576 14.2 15.576 13.85V5.675C15.576 5.30833 15.451 5 15.201 4.75C14.951 4.5 14.651 4.375 14.301 4.375H9.70098C9.35098 4.375 9.05098 4.5 8.80098 4.75C8.55098 5 8.42598 5.30833 8.42598 5.675V13.85C8.42598 14.2 8.55098 14.5 8.80098 14.75C9.05098 15 9.35098 15.125 9.70098 15.125H14.301Z" fill="black"/>
</g>
<defs>
<clipPath id="clip0_3207_19318">
<rect width="24" height="24" fill="white"/>
</clipPath>
</defs>
</svg>
