<svg width="24" height="24" viewBox="0 0 24 24" fill="none" xmlns="http://www.w3.org/2000/svg">
<g clip-path="url(#clip0_3208_22171)">
<rect width="24" height="24" fill="white"/>
<path d="M8.92598 23C8.15931 23 7.45098 22.8167 6.80098 22.45C6.16764 22.0833 5.66764 21.5833 5.30098 20.95C4.93431 20.3 4.75098 19.5917 4.75098 18.825V5.175C4.75098 4.40833 4.93431 3.70833 5.30098 3.075C5.66764 2.425 6.16764 1.91667 6.80098 1.55C7.45098 1.18333 8.15931 1 8.92598 1H15.076C15.8426 1 16.5426 1.18333 17.176 1.55C17.826 1.91667 18.3343 2.425 18.701 3.075C19.0676 3.70833 19.251 4.40833 19.251 5.175V18.825C19.251 19.5917 19.0676 20.3 18.701 20.95C18.3343 21.5833 17.826 22.0833 17.176 22.45C16.5426 22.8167 15.8426 23 15.076 23H8.92598ZM15.076 20.5C15.526 20.5 15.9093 20.3417 16.226 20.025C16.5426 19.7083 16.701 19.3167 16.701 18.85V5.15C16.701 4.68333 16.5426 4.29167 16.226 3.975C15.9093 3.65833 15.526 3.5 15.076 3.5H8.92598C8.47598 3.5 8.09264 3.65833 7.77598 3.975C7.45931 4.29167 7.30098 4.68333 7.30098 5.15V18.85C7.30098 19.3167 7.45931 19.7083 7.77598 20.025C8.09264 20.3417 8.47598 20.5 8.92598 20.5H15.076Z" fill="black"/>
</g>
<defs>
<clipPath id="clip0_3208_22171">
<rect width="24" height="24" fill="white"/>
</clipPath>
</defs>
</svg>
