<svg width="24" height="24" viewBox="0 0 24 24" fill="none" xmlns="http://www.w3.org/2000/svg">
<g clip-path="url(#clip0_3207_19012)">
<rect width="24" height="24" fill="white"/>
<path d="M17.2505 22.525C16.7172 22.8417 16.1338 23 15.5005 23H8.50049C7.86716 23 7.27549 22.8417 6.72549 22.525C6.19216 22.225 5.76716 21.8 5.45049 21.25C5.15049 20.7167 5.00049 20.1333 5.00049 19.5V4.5C5.00049 3.86667 5.15049 3.28333 5.45049 2.75C5.76716 2.2 6.19216 1.775 6.72549 1.475C7.27549 1.15833 7.86716 1 8.50049 1H15.5005C16.1338 1 16.7172 1.15833 17.2505 1.475C17.8005 1.775 18.2255 2.2 18.5255 2.75C18.8422 3.28333 19.0005 3.86667 19.0005 4.5V19.5C19.0005 20.1333 18.8422 20.7167 18.5255 21.25C18.2255 21.8 17.8005 22.225 17.2505 22.525ZM11.7505 10.025V17.125H12.2505V10.025H11.7505ZM11.6255 7.625C11.7088 7.70833 11.8338 7.75 12.0005 7.75C12.1338 7.75 12.2505 7.70833 12.3505 7.625C12.4505 7.525 12.5005 7.4 12.5005 7.25C12.5005 7.11667 12.4505 7 12.3505 6.9C12.2505 6.8 12.1338 6.75 12.0005 6.75C11.8505 6.75 11.7255 6.8 11.6255 6.9C11.5422 6.98333 11.5005 7.1 11.5005 7.25C11.5005 7.4 11.5422 7.525 11.6255 7.625Z" fill="black"/>
</g>
<defs>
<clipPath id="clip0_3207_19012">
<rect width="24" height="24" fill="white"/>
</clipPath>
</defs>
</svg>
