<svg width="24" height="24" viewBox="0 0 24 24" fill="none" xmlns="http://www.w3.org/2000/svg">
<g clip-path="url(#clip0_3207_20911)">
<rect width="24" height="24" fill="white"/>
<path d="M8.82598 23C8.02598 23 7.29264 22.8083 6.62598 22.425C5.97598 22.0417 5.45931 21.525 5.07598 20.875C4.69264 20.2083 4.50098 19.475 4.50098 18.675V5.325C4.50098 4.525 4.69264 3.8 5.07598 3.15C5.45931 2.48333 5.97598 1.95833 6.62598 1.575C7.29264 1.19167 8.02598 1 8.82598 1H15.176C15.976 1 16.701 1.19167 17.351 1.575C18.0176 1.95833 18.5426 2.48333 18.926 3.15C19.3093 3.8 19.501 4.525 19.501 5.325V18.675C19.501 19.475 19.3093 20.2083 18.926 20.875C18.5426 21.525 18.0176 22.0417 17.351 22.425C16.701 22.8083 15.976 23 15.176 23H8.82598ZM15.176 20.1C15.5593 20.1 15.8843 19.9667 16.151 19.7C16.4176 19.4167 16.551 19.075 16.551 18.675V5.325C16.551 4.925 16.4176 4.59167 16.151 4.325C15.8843 4.04167 15.5593 3.9 15.176 3.9H8.82598C8.44264 3.9 8.11764 4.04167 7.85098 4.325C7.58431 4.59167 7.45098 4.925 7.45098 5.325V18.675C7.45098 19.075 7.58431 19.4167 7.85098 19.7C8.11764 19.9667 8.44264 20.1 8.82598 20.1H15.176ZM10.151 8.15C9.71764 8.15 9.33431 7.99167 9.00098 7.675C8.66764 7.35833 8.50098 6.98333 8.50098 6.55C8.50098 6.1 8.65931 5.71667 8.97598 5.4C9.30931 5.08333 9.70098 4.925 10.151 4.925C10.6176 4.925 11.0093 5.08333 11.326 5.4C11.6593 5.71667 11.826 6.1 11.826 6.55C11.826 6.98333 11.6593 7.35833 11.326 7.675C11.0093 7.99167 10.6176 8.15 10.151 8.15ZM10.151 11.975C9.71764 11.975 9.33431 11.8167 9.00098 11.5C8.66764 11.1833 8.50098 10.8083 8.50098 10.375C8.50098 9.94167 8.65931 9.56667 8.97598 9.25C9.30931 8.93333 9.70098 8.775 10.151 8.775C10.6176 8.775 11.0093 8.93333 11.326 9.25C11.6593 9.55 11.826 9.925 11.826 10.375C11.826 10.8083 11.6593 11.1833 11.326 11.5C11.0093 11.8167 10.6176 11.975 10.151 11.975ZM10.151 15.825C9.71764 15.825 9.33431 15.6667 9.00098 15.35C8.66764 15.0333 8.50098 14.6583 8.50098 14.225C8.50098 13.775 8.65931 13.3917 8.97598 13.075C9.30931 12.7583 9.70098 12.6 10.151 12.6C10.6176 12.6 11.0093 12.7583 11.326 13.075C11.6593 13.3917 11.826 13.775 11.826 14.225C11.826 14.6583 11.6593 15.0333 11.326 15.35C11.0093 15.6667 10.6176 15.825 10.151 15.825Z" fill="black"/>
</g>
<defs>
<clipPath id="clip0_3207_20911">
<rect width="24" height="24" fill="white"/>
</clipPath>
</defs>
</svg>
