<svg width="24" height="24" viewBox="0 0 24 24" fill="none" xmlns="http://www.w3.org/2000/svg">
<g clip-path="url(#clip0_3207_20597)">
<rect width="24" height="24" fill="white"/>
<path d="M10.176 8.025C9.72598 8.025 9.33431 7.85833 9.00098 7.525C8.66764 7.19167 8.50098 6.8 8.50098 6.35C8.50098 5.88333 8.65931 5.49167 8.97598 5.175C9.30931 4.84167 9.70931 4.675 10.176 4.675C10.6426 4.675 11.0343 4.84167 11.351 5.175C11.6843 5.49167 11.851 5.88333 11.851 6.35C11.851 6.81667 11.6843 7.21667 11.351 7.55C11.0343 7.86667 10.6426 8.025 10.176 8.025ZM8.92598 23C8.15931 23 7.45098 22.8167 6.80098 22.45C6.16764 22.0833 5.66764 21.5833 5.30098 20.95C4.93431 20.3 4.75098 19.5917 4.75098 18.825V5.175C4.75098 4.40833 4.93431 3.70833 5.30098 3.075C5.66764 2.425 6.16764 1.91667 6.80098 1.55C7.45098 1.18333 8.15931 1 8.92598 1H15.076C15.8426 1 16.5426 1.18333 17.176 1.55C17.826 1.91667 18.3343 2.425 18.701 3.075C19.0676 3.70833 19.251 4.40833 19.251 5.175V18.825C19.251 19.5917 19.0676 20.3 18.701 20.95C18.3343 21.5833 17.826 22.0833 17.176 22.45C16.5426 22.8167 15.8426 23 15.076 23H8.92598ZM15.076 20.625C15.576 20.625 15.9926 20.4583 16.326 20.125C16.6593 19.775 16.826 19.3417 16.826 18.825V5.175C16.826 4.65833 16.6593 4.23333 16.326 3.9C15.9926 3.55 15.576 3.375 15.076 3.375H8.92598C8.42598 3.375 8.00931 3.55 7.67598 3.9C7.34264 4.23333 7.17598 4.65833 7.17598 5.175V18.825C7.17598 19.3417 7.34264 19.775 7.67598 20.125C8.00931 20.4583 8.42598 20.625 8.92598 20.625H15.076Z" fill="black"/>
</g>
<defs>
<clipPath id="clip0_3207_20597">
<rect width="24" height="24" fill="white"/>
</clipPath>
</defs>
</svg>
