<svg width="24" height="24" viewBox="0 0 24 24" fill="none" xmlns="http://www.w3.org/2000/svg">
<g clip-path="url(#clip0_3207_18646)">
<rect width="24" height="24" fill="white"/>
<path d="M10.501 9.175C9.96764 9.175 9.50098 8.98333 9.10098 8.6C8.70098 8.2 8.50098 7.725 8.50098 7.175C8.50098 6.625 8.70098 6.15833 9.10098 5.775C9.50098 5.375 9.96764 5.175 10.501 5.175C11.0676 5.175 11.5426 5.375 11.926 5.775C12.3093 6.15833 12.501 6.625 12.501 7.175C12.501 7.725 12.3093 8.2 11.926 8.6C11.5426 8.98333 11.0676 9.175 10.501 9.175ZM10.501 13.6C9.96764 13.6 9.50098 13.4083 9.10098 13.025C8.70098 12.625 8.50098 12.15 8.50098 11.6C8.50098 11.05 8.70098 10.5833 9.10098 10.2C9.50098 9.8 9.96764 9.6 10.501 9.6C11.0676 9.6 11.5426 9.8 11.926 10.2C12.3093 10.5833 12.501 11.05 12.501 11.6C12.501 12.15 12.3093 12.625 11.926 13.025C11.5426 13.4083 11.0676 13.6 10.501 13.6ZM8.75098 23C7.91764 23 7.15931 22.8 6.47598 22.4C5.79264 22 5.25098 21.4583 4.85098 20.775C4.45098 20.0917 4.25098 19.3333 4.25098 18.5V5.5C4.25098 4.66667 4.45098 3.90833 4.85098 3.225C5.25098 2.54167 5.79264 2 6.47598 1.6C7.15931 1.2 7.91764 1 8.75098 1H15.251C16.0843 1 16.8426 1.2 17.526 1.6C18.2093 2 18.751 2.54167 19.151 3.225C19.551 3.90833 19.751 4.66667 19.751 5.5V18.5C19.751 19.3333 19.551 20.0917 19.151 20.775C18.751 21.4583 18.2093 22 17.526 22.4C16.8426 22.8 16.0843 23 15.251 23H8.75098ZM15.251 19.55C15.5343 19.55 15.7676 19.45 15.951 19.25C16.151 19.05 16.251 18.8 16.251 18.5V5.5C16.251 5.2 16.151 4.95 15.951 4.75C15.7676 4.55 15.5343 4.45 15.251 4.45H8.75098C8.46764 4.45 8.22598 4.55 8.02598 4.75C7.84264 4.95 7.75098 5.2 7.75098 5.5V18.5C7.75098 18.8 7.84264 19.05 8.02598 19.25C8.22598 19.45 8.46764 19.55 8.75098 19.55H15.251Z" fill="black"/>
</g>
<defs>
<clipPath id="clip0_3207_18646">
<rect width="24" height="24" fill="white"/>
</clipPath>
</defs>
</svg>
