<svg width="24" height="24" viewBox="0 0 24 24" fill="none" xmlns="http://www.w3.org/2000/svg">
<g clip-path="url(#clip0_3208_22173)">
<rect width="24" height="24" fill="white"/>
<path d="M8.82598 23C8.02598 23 7.29264 22.8083 6.62598 22.425C5.97598 22.0417 5.45931 21.525 5.07598 20.875C4.69264 20.2083 4.50098 19.475 4.50098 18.675V5.325C4.50098 4.525 4.69264 3.8 5.07598 3.15C5.45931 2.48333 5.97598 1.95833 6.62598 1.575C7.29264 1.19167 8.02598 1 8.82598 1H15.176C15.976 1 16.701 1.19167 17.351 1.575C18.0176 1.95833 18.5426 2.48333 18.926 3.15C19.3093 3.8 19.501 4.525 19.501 5.325V18.675C19.501 19.475 19.3093 20.2083 18.926 20.875C18.5426 21.525 18.0176 22.0417 17.351 22.425C16.701 22.8083 15.976 23 15.176 23H8.82598ZM15.176 19.9C15.5093 19.9 15.7843 19.7833 16.001 19.55C16.2343 19.3167 16.351 19.025 16.351 18.675V5.325C16.351 4.975 16.2343 4.68333 16.001 4.45C15.7843 4.21667 15.5093 4.1 15.176 4.1H8.82598C8.49264 4.1 8.20931 4.21667 7.97598 4.45C7.75931 4.68333 7.65098 4.975 7.65098 5.325V18.675C7.65098 19.025 7.75931 19.3167 7.97598 19.55C8.20931 19.7833 8.49264 19.9 8.82598 19.9H15.176Z" fill="black"/>
</g>
<defs>
<clipPath id="clip0_3208_22173">
<rect width="24" height="24" fill="white"/>
</clipPath>
</defs>
</svg>
