<svg width="24" height="24" viewBox="0 0 24 24" fill="none" xmlns="http://www.w3.org/2000/svg">
<g clip-path="url(#clip0_3394_11704)">
<rect width="24" height="24" fill="white"/>
<path d="M12.001 22.375C9.43431 22.375 7.45931 21.675 6.07598 20.275C4.69264 18.8583 4.00098 16.8083 4.00098 14.125V6.5C4.00098 5.66667 4.20098 4.90833 4.60098 4.225C5.00098 3.54167 5.54264 3 6.22598 2.6C6.90931 2.2 7.66764 2 8.50098 2H15.501C16.3343 2 17.0926 2.2 17.776 2.6C18.4593 3 19.001 3.54167 19.401 4.225C19.801 4.90833 20.001 5.66667 20.001 6.5V14.125C20.001 16.8083 19.3093 18.8583 17.926 20.275C16.5426 21.675 14.5676 22.375 12.001 22.375ZM12.001 18.85C13.451 18.85 14.551 18.4583 15.301 17.675C16.051 16.875 16.426 15.6917 16.426 14.125V6.5C16.426 6.2 16.3426 5.96667 16.176 5.8C16.0093 5.61667 15.7843 5.525 15.501 5.525H8.50098C8.21764 5.525 7.99264 5.61667 7.82598 5.8C7.65931 5.96667 7.57598 6.2 7.57598 6.5V14.125C7.57598 15.6917 7.95098 16.875 8.70098 17.675C9.45098 18.4583 10.551 18.85 12.001 18.85ZM12.026 11.125C11.3426 11.125 10.7676 10.9 10.301 10.45C9.85098 9.98333 9.62598 9.41667 9.62598 8.75C9.62598 8.08333 9.85098 7.525 10.301 7.075C10.7676 6.60833 11.3426 6.375 12.026 6.375C12.6926 6.375 13.251 6.60833 13.701 7.075C14.151 7.525 14.376 8.08333 14.376 8.75C14.376 9.41667 14.151 9.98333 13.701 10.45C13.251 10.9 12.6926 11.125 12.026 11.125ZM12.001 8.75C11.7843 8.75 11.626 8.75 11.526 8.75C11.426 8.75 11.276 8.75 11.076 8.75C11.2926 8.75 11.451 8.75 11.551 8.75C11.651 8.75 11.801 8.75 12.001 8.75C12.2176 8.75 12.376 8.75 12.476 8.75C12.576 8.75 12.726 8.75 12.926 8.75C12.7093 8.75 12.551 8.75 12.451 8.75C12.351 8.75 12.201 8.75 12.001 8.75Z" fill="black"/>
</g>
<defs>
<clipPath id="clip0_3394_11704">
<rect width="24" height="24" fill="white"/>
</clipPath>
</defs>
</svg>
