<svg width="24" height="24" viewBox="0 0 24 24" fill="none" xmlns="http://www.w3.org/2000/svg">
<g clip-path="url(#clip0_3207_18664)">
<rect width="24" height="24" fill="white"/>
<path d="M12.001 23C9.75098 23 8.01764 22.3917 6.80098 21.175C5.60098 19.975 5.00098 18.25 5.00098 16V9.575C5.00098 8.925 5.15931 8.325 5.47598 7.775C5.79264 7.225 6.22598 6.79167 6.77598 6.475C7.32598 6.15833 7.92598 6 8.57598 6H15.426C16.076 6 16.676 6.15833 17.226 6.475C17.776 6.79167 18.2093 7.225 18.526 7.775C18.8426 8.325 19.001 8.925 19.001 9.575V16C19.001 18.25 18.3926 19.975 17.176 21.175C15.976 22.3917 14.251 23 12.001 23ZM12.001 21.6C13.7843 21.6 15.1593 21.1167 16.126 20.15C17.0926 19.1833 17.576 17.8 17.576 16V9.575C17.576 8.95833 17.3676 8.44167 16.951 8.025C16.5343 7.60833 16.026 7.4 15.426 7.4H8.57598C7.97598 7.4 7.46764 7.60833 7.05098 8.025C6.63431 8.44167 6.42598 8.95833 6.42598 9.575V16C6.42598 17.8 6.90931 19.1833 7.87598 20.15C8.84264 21.1167 10.2176 21.6 12.001 21.6ZM12.001 12.95C11.7843 12.95 11.601 12.875 11.451 12.725C11.3176 12.575 11.251 12.3833 11.251 12.15V9.875C11.251 9.65833 11.3176 9.475 11.451 9.325C11.601 9.15833 11.7843 9.075 12.001 9.075C12.2176 9.075 12.3926 9.15833 12.526 9.325C12.676 9.475 12.751 9.65833 12.751 9.875V12.15C12.751 12.3833 12.676 12.575 12.526 12.725C12.3926 12.875 12.2176 12.95 12.001 12.95ZM11.351 4.125C11.351 3.375 11.601 2.75 12.101 2.25C12.601 1.75 13.2176 1.5 13.951 1.5H16.601V2.825H13.951C13.601 2.825 13.301 2.95 13.051 3.2C12.8176 3.45 12.701 3.75833 12.701 4.125V6.6H11.351V4.125Z" fill="black"/>
</g>
<defs>
<clipPath id="clip0_3207_18664">
<rect width="24" height="24" fill="white"/>
</clipPath>
</defs>
</svg>
