<svg width="24" height="24" viewBox="0 0 24 24" fill="none" xmlns="http://www.w3.org/2000/svg">
<g clip-path="url(#clip0_3207_18668)">
<rect width="24" height="24" fill="white"/>
<path d="M12.001 23C9.75098 23 8.01764 22.3917 6.80098 21.175C5.60098 19.975 5.00098 18.25 5.00098 16V9.575C5.00098 8.925 5.15931 8.325 5.47598 7.775C5.79264 7.225 6.22598 6.79167 6.77598 6.475C7.32598 6.15833 7.92598 6 8.57598 6H15.426C16.076 6 16.676 6.15833 17.226 6.475C17.776 6.79167 18.2093 7.225 18.526 7.775C18.8426 8.325 19.001 8.925 19.001 9.575V16C19.001 18.25 18.3926 19.975 17.176 21.175C15.976 22.3917 14.251 23 12.001 23ZM12.001 20.625C13.4676 20.625 14.5926 20.225 15.376 19.425C16.176 18.625 16.576 17.4833 16.576 16V9.675C16.576 9.30833 16.451 9 16.201 8.75C15.951 8.5 15.651 8.375 15.301 8.375H8.70098C8.35098 8.375 8.05098 8.5 7.80098 8.75C7.55098 9 7.42598 9.30833 7.42598 9.675V16C7.42598 17.4833 7.81764 18.625 8.60098 19.425C9.40098 20.225 10.5343 20.625 12.001 20.625ZM12.001 14.1C11.6676 14.1 11.3843 13.975 11.151 13.725C10.9176 13.475 10.801 13.175 10.801 12.825V11.05C10.801 10.7 10.9176 10.4083 11.151 10.175C11.3843 9.925 11.6676 9.8 12.001 9.8C12.3343 9.8 12.6176 9.925 12.851 10.175C13.0843 10.4083 13.201 10.7 13.201 11.05V12.825C13.201 13.175 13.0843 13.475 12.851 13.725C12.6176 13.975 12.3343 14.1 12.001 14.1ZM10.876 4.25C10.876 3.46667 11.1426 2.81667 11.676 2.3C12.2093 1.76667 12.8593 1.5 13.626 1.5H16.601V3.725H13.826C13.6426 3.725 13.4843 3.79167 13.351 3.925C13.2343 4.05833 13.176 4.225 13.176 4.425V6.95H10.876V4.25Z" fill="black"/>
</g>
<defs>
<clipPath id="clip0_3207_18668">
<rect width="24" height="24" fill="white"/>
</clipPath>
</defs>
</svg>
