<svg width="24" height="24" viewBox="0 0 24 24" fill="none" xmlns="http://www.w3.org/2000/svg">
<g clip-path="url(#clip0_3207_18684)">
<rect width="24" height="24" fill="white"/>
<path d="M12.0005 23C7.33382 23 5.00049 20.6667 5.00049 16V9.25C5.00049 8.33333 5.30882 7.56667 5.92549 6.95C6.55882 6.31667 7.33382 6 8.25049 6H15.7505C16.6672 6 17.4338 6.31667 18.0505 6.95C18.6838 7.56667 19.0005 8.33333 19.0005 9.25V16C19.0005 20.6667 16.6672 23 12.0005 23ZM12.0005 13.825C12.4172 13.825 12.7672 13.6833 13.0505 13.4C13.3505 13.1 13.5005 12.7333 13.5005 12.3V10.35C13.5005 9.93333 13.3505 9.575 13.0505 9.275C12.7672 8.975 12.4172 8.825 12.0005 8.825C11.5838 8.825 11.2255 8.975 10.9255 9.275C10.6422 9.575 10.5005 9.93333 10.5005 10.35V12.3C10.5005 12.7333 10.6422 13.1 10.9255 13.4C11.2255 13.6833 11.5838 13.825 12.0005 13.825ZM10.7005 4.425C10.7005 3.60833 10.9838 2.91667 11.5505 2.35C12.1172 1.78333 12.8005 1.5 13.6005 1.5H16.6005V4.075H13.7255C13.6255 4.075 13.5338 4.11667 13.4505 4.2C13.3838 4.26667 13.3505 4.35833 13.3505 4.475V7.1H10.7005V4.425Z" fill="black"/>
</g>
<defs>
<clipPath id="clip0_3207_18684">
<rect width="24" height="24" fill="white"/>
</clipPath>
</defs>
</svg>
