<svg width="24" height="24" viewBox="0 0 24 24" fill="none" xmlns="http://www.w3.org/2000/svg">
<g clip-path="url(#clip0_3208_21853)">
<rect width="24" height="24" fill="white"/>
<path d="M7.00098 3.175C7.66764 2.475 8.43431 1.95 9.30098 1.6C10.1843 1.23333 11.0843 1.05 12.001 1.05C12.9176 1.05 13.8093 1.23333 14.676 1.6C15.5593 1.95 16.3343 2.475 17.001 3.175L16.351 3.825C15.7343 3.20833 15.051 2.75 14.301 2.45C13.5676 2.13333 12.801 1.975 12.001 1.975C11.201 1.975 10.426 2.13333 9.67598 2.45C8.94264 2.75 8.26764 3.20833 7.65098 3.825L7.00098 3.175ZM12.001 23C9.75098 23 8.01764 22.3917 6.80098 21.175C5.60098 19.975 5.00098 18.25 5.00098 16V9.425C5.00098 8.79167 5.15098 8.21667 5.45098 7.7C5.75098 7.16667 6.15931 6.75 6.67598 6.45C7.20931 6.15 7.79264 6 8.42598 6H15.576C16.2093 6 16.7843 6.15 17.301 6.45C17.8343 6.75 18.251 7.16667 18.551 7.7C18.851 8.21667 19.001 8.79167 19.001 9.425V16C19.001 18.25 18.3926 19.975 17.176 21.175C15.976 22.3917 14.251 23 12.001 23ZM12.001 22.075C13.9343 22.075 15.4176 21.55 16.451 20.5C17.501 19.45 18.026 17.95 18.026 16V9.425C18.026 8.725 17.7843 8.13333 17.301 7.65C16.8343 7.16667 16.2593 6.925 15.576 6.925H8.42598C7.74264 6.925 7.15931 7.16667 6.67598 7.65C6.20931 8.13333 5.97598 8.725 5.97598 9.425V16C5.97598 17.95 6.49264 19.45 7.52598 20.5C8.57598 21.55 10.0676 22.075 12.001 22.075ZM12.001 12.55C11.851 12.55 11.726 12.5 11.626 12.4C11.526 12.3 11.476 12.1667 11.476 12V9.2C11.476 9.03333 11.526 8.90833 11.626 8.825C11.726 8.725 11.851 8.675 12.001 8.675C12.151 8.675 12.276 8.725 12.376 8.825C12.476 8.90833 12.526 9.03333 12.526 9.2V12C12.526 12.1667 12.476 12.3 12.376 12.4C12.276 12.5 12.151 12.55 12.001 12.55Z" fill="black"/>
</g>
<defs>
<clipPath id="clip0_3208_21853">
<rect width="24" height="24" fill="white"/>
</clipPath>
</defs>
</svg>
