<svg width="24" height="24" viewBox="0 0 24 24" fill="none" xmlns="http://www.w3.org/2000/svg">
<g clip-path="url(#clip0_3394_11634)">
<rect width="24" height="24" fill="white"/>
<path d="M12.001 22.375C9.43431 22.375 7.45931 21.6667 6.07598 20.25C4.69264 18.8333 4.00098 16.7917 4.00098 14.125V6.175C4.00098 5.40833 4.18431 4.70833 4.55098 4.075C4.91764 3.425 5.41764 2.91667 6.05098 2.55C6.70098 2.18333 7.40931 2 8.17598 2H15.826C16.5926 2 17.2926 2.18333 17.926 2.55C18.576 2.91667 19.0843 3.425 19.451 4.075C19.8176 4.70833 20.001 5.40833 20.001 6.175V14.125C20.001 16.7917 19.3093 18.8333 17.926 20.25C16.5426 21.6667 14.5676 22.375 12.001 22.375ZM12.001 19.925C13.7676 19.925 15.126 19.4333 16.076 18.45C17.026 17.45 17.501 16.0083 17.501 14.125V6.175C17.501 5.675 17.3426 5.26667 17.026 4.95C16.7093 4.61667 16.3093 4.45 15.826 4.45H8.17598C7.69264 4.45 7.29264 4.61667 6.97598 4.95C6.65931 5.26667 6.50098 5.675 6.50098 6.175V14.125C6.50098 16.0083 6.97598 17.45 7.92598 18.45C8.87598 19.4333 10.2343 19.925 12.001 19.925ZM14.076 9.675C13.5593 9.675 13.126 9.50833 12.776 9.175C12.4426 8.825 12.276 8.4 12.276 7.9C12.276 7.38333 12.4426 6.95833 12.776 6.625C13.126 6.275 13.5593 6.1 14.076 6.1C14.576 6.1 14.9926 6.275 15.326 6.625C15.676 6.95833 15.851 7.38333 15.851 7.9C15.851 8.4 15.676 8.825 15.326 9.175C14.9926 9.50833 14.576 9.675 14.076 9.675ZM14.051 7.9C13.8676 7.9 13.7343 7.9 13.651 7.9C13.5676 7.9 13.4426 7.9 13.276 7.9C13.4593 7.9 13.5926 7.9 13.676 7.9C13.7593 7.9 13.8843 7.9 14.051 7.9C14.2343 7.9 14.3676 7.9 14.451 7.9C14.5343 7.9 14.6676 7.9 14.851 7.9C14.6676 7.9 14.5343 7.9 14.451 7.9C14.3676 7.9 14.2343 7.9 14.051 7.9Z" fill="black"/>
</g>
<defs>
<clipPath id="clip0_3394_11634">
<rect width="24" height="24" fill="white"/>
</clipPath>
</defs>
</svg>
