<svg width="24" height="24" viewBox="0 0 24 24" fill="none" xmlns="http://www.w3.org/2000/svg">
<g clip-path="url(#clip0_3394_11702)">
<rect width="24" height="24" fill="white"/>
<path d="M12.001 22.375C9.43431 22.375 7.45931 21.6667 6.07598 20.25C4.69264 18.8333 4.00098 16.7917 4.00098 14.125V6.325C4.00098 5.525 4.19264 4.8 4.57598 4.15C4.95931 3.48333 5.47598 2.95833 6.12598 2.575C6.79264 2.19167 7.52598 2 8.32598 2H15.676C16.476 2 17.201 2.19167 17.851 2.575C18.5176 2.95833 19.0426 3.48333 19.426 4.15C19.8093 4.8 20.001 5.525 20.001 6.325V14.125C20.001 16.7917 19.3093 18.8333 17.926 20.25C16.5426 21.6667 14.5676 22.375 12.001 22.375ZM12.001 19.4C13.6176 19.4 14.851 18.95 15.701 18.05C16.551 17.15 16.976 15.8417 16.976 14.125V6.325C16.976 5.925 16.851 5.6 16.601 5.35C16.3676 5.1 16.0593 4.975 15.676 4.975H8.32598C7.94264 4.975 7.62598 5.1 7.37598 5.35C7.14264 5.6 7.02598 5.925 7.02598 6.325V14.125C7.02598 15.8417 7.45098 17.15 8.30098 18.05C9.15098 18.95 10.3843 19.4 12.001 19.4ZM12.026 10.375C11.426 10.375 10.926 10.175 10.526 9.775C10.126 9.375 9.92598 8.88333 9.92598 8.3C9.92598 7.71667 10.126 7.225 10.526 6.825C10.926 6.425 11.426 6.225 12.026 6.225C12.6093 6.225 13.0926 6.425 13.476 6.825C13.876 7.225 14.076 7.71667 14.076 8.3C14.076 8.88333 13.876 9.375 13.476 9.775C13.0926 10.175 12.6093 10.375 12.026 10.375ZM12.001 8.3C11.801 8.3 11.651 8.3 11.551 8.3C11.4676 8.3 11.3343 8.3 11.151 8.3C11.351 8.3 11.4926 8.3 11.576 8.3C11.676 8.3 11.8176 8.3 12.001 8.3C12.201 8.3 12.3426 8.3 12.426 8.3C12.526 8.3 12.6676 8.3 12.851 8.3C12.651 8.3 12.501 8.3 12.401 8.3C12.3176 8.3 12.1843 8.3 12.001 8.3Z" fill="black"/>
</g>
<defs>
<clipPath id="clip0_3394_11702">
<rect width="24" height="24" fill="white"/>
</clipPath>
</defs>
</svg>
