<svg width="24" height="24" viewBox="0 0 24 24" fill="none" xmlns="http://www.w3.org/2000/svg">
<g clip-path="url(#clip0_3336_10628)">
<rect width="24" height="24" fill="white"/>
<path d="M12.0005 9.15C12.3005 9.15 12.5588 9.05 12.7755 8.85C12.9922 8.63333 13.1005 8.36667 13.1005 8.05V5.575C13.1005 5.275 12.9922 5.025 12.7755 4.825C12.5588 4.60833 12.3005 4.5 12.0005 4.5C11.7005 4.5 11.4422 4.60833 11.2255 4.825C11.0255 5.025 10.9255 5.275 10.9255 5.575V8.05C10.9255 8.36667 11.0255 8.63333 11.2255 8.85C11.4422 9.05 11.7005 9.15 12.0005 9.15ZM12.0005 22.375C9.43382 22.375 7.45882 21.6667 6.07549 20.25C4.69216 18.8167 4.00049 16.775 4.00049 14.125V5.5C4.00049 4.86667 4.15049 4.28333 4.45049 3.75C4.76716 3.2 5.19216 2.775 5.72549 2.475C6.27549 2.15833 6.86716 2 7.50049 2H16.5005C17.1338 2 17.7172 2.15833 18.2505 2.475C18.8005 2.775 19.2255 3.2 19.5255 3.75C19.8422 4.28333 20.0005 4.86667 20.0005 5.5V14.125C20.0005 16.775 19.3088 18.8167 17.9255 20.25C16.5422 21.6667 14.5672 22.375 12.0005 22.375Z" fill="black"/>
</g>
<defs>
<clipPath id="clip0_3336_10628">
<rect width="24" height="24" fill="white"/>
</clipPath>
</defs>
</svg>
