<svg width="24" height="24" viewBox="0 0 24 24" fill="none" xmlns="http://www.w3.org/2000/svg">
<g clip-path="url(#clip0_3336_10620)">
<rect width="24" height="24" fill="white"/>
<path d="M12.001 12.65C11.4843 12.65 11.0426 12.475 10.676 12.125C10.326 11.7583 10.151 11.3167 10.151 10.8V8.6C10.151 8.06667 10.326 7.625 10.676 7.275C11.0426 6.925 11.4843 6.75 12.001 6.75C12.5343 6.75 12.9843 6.93333 13.351 7.3C13.7176 7.65 13.901 8.08333 13.901 8.6V10.8C13.901 11.3167 13.7176 11.7583 13.351 12.125C12.9843 12.475 12.5343 12.65 12.001 12.65ZM12.001 22.375C9.43431 22.375 7.45931 21.675 6.07598 20.275C4.69264 18.8583 4.00098 16.8083 4.00098 14.125V6.5C4.00098 5.66667 4.20098 4.90833 4.60098 4.225C5.00098 3.54167 5.54264 3 6.22598 2.6C6.90931 2.2 7.66764 2 8.50098 2H15.501C16.3343 2 17.0926 2.2 17.776 2.6C18.4593 3 19.001 3.54167 19.401 4.225C19.801 4.90833 20.001 5.66667 20.001 6.5V14.125C20.001 16.8083 19.3093 18.8583 17.926 20.275C16.5426 21.675 14.5676 22.375 12.001 22.375ZM12.001 18.85C13.451 18.85 14.551 18.4583 15.301 17.675C16.051 16.875 16.426 15.6917 16.426 14.125V6.5C16.426 6.2 16.3426 5.96667 16.176 5.8C16.0093 5.61667 15.7843 5.525 15.501 5.525H8.50098C8.21764 5.525 7.99264 5.61667 7.82598 5.8C7.65931 5.96667 7.57598 6.2 7.57598 6.5V14.125C7.57598 15.6917 7.95098 16.875 8.70098 17.675C9.45098 18.4583 10.551 18.85 12.001 18.85Z" fill="black"/>
</g>
<defs>
<clipPath id="clip0_3336_10620">
<rect width="24" height="24" fill="white"/>
</clipPath>
</defs>
</svg>
