<svg width="24" height="24" viewBox="0 0 24 24" fill="none" xmlns="http://www.w3.org/2000/svg">
<g clip-path="url(#clip0_3207_18672)">
<rect width="24" height="24" fill="white"/>
<path d="M12.001 23C9.75098 23 8.01764 22.3917 6.80098 21.175C5.60098 19.975 5.00098 18.25 5.00098 16V9.25C5.00098 8.65 5.14264 8.1 5.42598 7.6C5.70931 7.1 6.10098 6.70833 6.60098 6.425C7.10098 6.14167 7.65098 6 8.25098 6H15.751C16.351 6 16.901 6.14167 17.401 6.425C17.901 6.70833 18.2926 7.1 18.576 7.6C18.8593 8.1 19.001 8.65 19.001 9.25V16C19.001 18.25 18.3926 19.975 17.176 21.175C15.976 22.3917 14.251 23 12.001 23ZM12.001 19.55C13.1176 19.55 13.976 19.2417 14.576 18.625C15.1926 18.0083 15.501 17.1333 15.501 16V9.525C15.501 9.50833 15.4926 9.49167 15.476 9.475C15.4593 9.45833 15.4426 9.45 15.426 9.45H8.57598C8.55931 9.45 8.54264 9.45833 8.52598 9.475C8.50931 9.49167 8.50098 9.50833 8.50098 9.525V16C8.50098 17.1333 8.80098 18.0083 9.40098 18.625C10.0176 19.2417 10.8843 19.55 12.001 19.55ZM12.001 15.525C11.551 15.525 11.1676 15.3667 10.851 15.05C10.5343 14.7333 10.376 14.35 10.376 13.9V12.025C10.376 11.575 10.5343 11.1917 10.851 10.875C11.1676 10.5583 11.551 10.4 12.001 10.4C12.451 10.4 12.8343 10.5583 13.151 10.875C13.4676 11.1917 13.626 11.575 13.626 12.025V13.9C13.626 14.35 13.4676 14.7333 13.151 15.05C12.8343 15.3667 12.451 15.525 12.001 15.525ZM10.351 4.25C10.351 3.46667 10.6176 2.81667 11.151 2.3C11.6843 1.76667 12.3343 1.5 13.101 1.5H16.601V4.7H13.726C13.7093 4.7 13.6926 4.70833 13.676 4.725C13.6593 4.74167 13.651 4.75833 13.651 4.775V7.275H10.351V4.25Z" fill="black"/>
</g>
<defs>
<clipPath id="clip0_3207_18672">
<rect width="24" height="24" fill="white"/>
</clipPath>
</defs>
</svg>
