<svg width="24" height="24" viewBox="0 0 24 24" fill="none" xmlns="http://www.w3.org/2000/svg">
<g clip-path="url(#clip0_3394_11628)">
<rect width="24" height="24" fill="white"/>
<path d="M12.001 22.375C9.43431 22.375 7.45931 21.6667 6.07598 20.25C4.69264 18.8167 4.00098 16.775 4.00098 14.125V5.675C4.00098 5.00833 4.15931 4.39167 4.47598 3.825C4.80931 3.25833 5.25931 2.81667 5.82598 2.5C6.39264 2.16667 7.00931 2 7.67598 2H16.326C16.9926 2 17.6093 2.16667 18.176 2.5C18.7426 2.81667 19.1843 3.25833 19.501 3.825C19.8343 4.39167 20.001 5.00833 20.001 5.675V14.125C20.001 16.775 19.3093 18.8167 17.926 20.25C16.5426 21.6667 14.5676 22.375 12.001 22.375ZM12.001 21.425C14.2676 21.425 16.001 20.8 17.201 19.55C18.4176 18.3 19.026 16.4917 19.026 14.125V5.675C19.026 4.89167 18.7676 4.24167 18.251 3.725C17.7343 3.20833 17.0926 2.95 16.326 2.95H7.67598C6.90931 2.95 6.26764 3.20833 5.75098 3.725C5.23431 4.24167 4.97598 4.89167 4.97598 5.675V14.125C4.97598 16.4917 5.57598 18.3 6.77598 19.55C7.99264 20.8 9.73431 21.425 12.001 21.425ZM14.851 9.275C14.201 9.275 13.651 9.05 13.201 8.6C12.751 8.15 12.526 7.60833 12.526 6.975C12.526 6.325 12.751 5.775 13.201 5.325C13.651 4.875 14.201 4.65 14.851 4.65C15.501 4.65 16.051 4.875 16.501 5.325C16.951 5.775 17.176 6.325 17.176 6.975C17.176 7.60833 16.951 8.15 16.501 8.6C16.051 9.05 15.501 9.275 14.851 9.275ZM14.851 8.375C15.251 8.375 15.5843 8.24167 15.851 7.975C16.1176 7.69167 16.251 7.35833 16.251 6.975C16.251 6.575 16.1176 6.24167 15.851 5.975C15.5843 5.69167 15.251 5.55 14.851 5.55C14.451 5.55 14.1176 5.69167 13.851 5.975C13.5843 6.24167 13.451 6.575 13.451 6.975C13.451 7.35833 13.5843 7.69167 13.851 7.975C14.1343 8.24167 14.4676 8.375 14.851 8.375Z" fill="black"/>
</g>
<defs>
<clipPath id="clip0_3394_11628">
<rect width="24" height="24" fill="white"/>
</clipPath>
</defs>
</svg>
