<svg width="24" height="24" viewBox="0 0 24 24" fill="none" xmlns="http://www.w3.org/2000/svg">
<g clip-path="url(#clip0_3336_10758)">
<rect width="24" height="24" fill="white"/>
<path d="M17.9255 20.25C16.5422 21.6667 14.5672 22.375 12.0005 22.375C9.43382 22.375 7.45882 21.6667 6.07549 20.25C4.69216 18.8167 4.00049 16.775 4.00049 14.125V5.5C4.00049 4.86667 4.15049 4.28333 4.45049 3.75C4.76716 3.2 5.19216 2.775 5.72549 2.475C6.27549 2.15833 6.86716 2 7.50049 2H16.5005C17.1338 2 17.7172 2.15833 18.2505 2.475C18.8005 2.775 19.2255 3.2 19.5255 3.75C19.8422 4.28333 20.0005 4.86667 20.0005 5.5V14.125C20.0005 16.775 19.3088 18.8167 17.9255 20.25ZM12.0005 4.925L9.55049 7.35H10.6755H11.3005V12.15H10.6755H9.55049L12.0005 14.575L14.4255 12.15H13.2505H12.7005V7.35H13.2505H14.4255L12.0005 4.925Z" fill="black"/>
</g>
<defs>
<clipPath id="clip0_3336_10758">
<rect width="24" height="24" fill="white"/>
</clipPath>
</defs>
</svg>
