<svg width="24" height="24" viewBox="0 0 24 24" fill="none" xmlns="http://www.w3.org/2000/svg">
<g clip-path="url(#clip0_3208_21871)">
<rect width="24" height="24" fill="white"/>
<path d="M12.0005 23C7.33382 23 5.00049 20.6667 5.00049 16V9.25C5.00049 8.33333 5.30882 7.56667 5.92549 6.95C6.55882 6.31667 7.33382 6 8.25049 6H15.7505C16.6672 6 17.4338 6.31667 18.0505 6.95C18.6838 7.56667 19.0005 8.33333 19.0005 9.25V16C19.0005 20.6667 16.6672 23 12.0005 23ZM12.0005 12.375C12.2838 12.375 12.5172 12.275 12.7005 12.075C12.9005 11.8583 13.0005 11.6 13.0005 11.3V9.575C13.0005 9.275 12.9005 9.025 12.7005 8.825C12.5172 8.60833 12.2838 8.5 12.0005 8.5C11.7172 8.5 11.4755 8.60833 11.2755 8.825C11.0922 9.025 11.0005 9.275 11.0005 9.575V11.3C11.0005 11.6 11.0922 11.8583 11.2755 12.075C11.4755 12.275 11.7172 12.375 12.0005 12.375ZM6.67549 3.25C7.39216 2.5 8.20882 1.94167 9.12549 1.575C10.0588 1.19167 11.0172 1 12.0005 1C12.9838 1 13.9338 1.19167 14.8505 1.575C15.7838 1.94167 16.6088 2.5 17.3255 3.25L16.0255 4.5C15.4755 3.95 14.8505 3.53333 14.1505 3.25C13.4672 2.95 12.7505 2.8 12.0005 2.8C11.2672 2.8 10.5505 2.95 9.85049 3.25C9.15049 3.53333 8.52549 3.95 7.97549 4.5L6.67549 3.25Z" fill="black"/>
</g>
<defs>
<clipPath id="clip0_3208_21871">
<rect width="24" height="24" fill="white"/>
</clipPath>
</defs>
</svg>
