<svg width="24" height="24" viewBox="0 0 24 24" fill="none" xmlns="http://www.w3.org/2000/svg">
<g clip-path="url(#clip0_3394_11634)">
<rect width="24" height="24" fill="white"/>
<path d="M12.001 22.375C9.43431 22.375 7.45931 21.6667 6.07598 20.25C4.69264 18.8333 4.00098 16.7917 4.00098 14.125V6.175C4.00098 5.40833 4.18431 4.70833 4.55098 4.075C4.91764 3.425 5.41764 2.91667 6.05098 2.55C6.70098 2.18333 7.40931 2 8.17598 2H15.826C16.5926 2 17.2926 2.18333 17.926 2.55C18.576 2.91667 19.0843 3.425 19.451 4.075C19.8176 4.70833 20.001 5.40833 20.001 6.175V14.125C20.001 16.7917 19.3093 18.8333 17.926 20.25C16.5426 21.6667 14.5676 22.375 12.001 22.375ZM12.001 19.95C13.7676 19.95 15.126 19.45 16.076 18.45C17.0426 17.45 17.526 16.0083 17.526 14.125V6.175C17.526 5.675 17.3593 5.25833 17.026 4.925C16.7093 4.59167 16.3093 4.425 15.826 4.425H8.17598C7.69264 4.425 7.28431 4.59167 6.95098 4.925C6.63431 5.25833 6.47598 5.675 6.47598 6.175V14.125C6.47598 16.0083 6.95098 17.45 7.90098 18.45C8.86764 19.45 10.2343 19.95 12.001 19.95ZM14.201 9.65C13.701 9.65 13.276 9.475 12.926 9.125C12.576 8.775 12.401 8.35 12.401 7.85C12.401 7.33333 12.576 6.90833 12.926 6.575C13.276 6.225 13.701 6.05 14.201 6.05C14.7176 6.05 15.1426 6.225 15.476 6.575C15.826 6.90833 16.001 7.33333 16.001 7.85C16.001 8.35 15.826 8.775 15.476 9.125C15.1426 9.475 14.7176 9.65 14.201 9.65ZM14.201 7.85C14.0176 7.85 13.8843 7.85 13.801 7.85C13.7176 7.85 13.5926 7.85 13.426 7.85C13.6093 7.85 13.7426 7.85 13.826 7.85C13.9093 7.85 14.0343 7.85 14.201 7.85C14.3843 7.85 14.5176 7.85 14.601 7.85C14.6843 7.85 14.8176 7.85 15.001 7.85C14.8176 7.85 14.6843 7.85 14.601 7.85C14.5176 7.85 14.3843 7.85 14.201 7.85Z" fill="black"/>
</g>
<defs>
<clipPath id="clip0_3394_11634">
<rect width="24" height="24" fill="white"/>
</clipPath>
</defs>
</svg>
