<svg width="24" height="24" viewBox="0 0 24 24" fill="none" xmlns="http://www.w3.org/2000/svg">
<g clip-path="url(#clip0_3336_10624)">
<rect width="24" height="24" fill="white"/>
<path d="M12.0005 8.65C12.1505 8.65 12.2755 8.6 12.3755 8.5C12.4755 8.4 12.5255 8.275 12.5255 8.125V5.025C12.5255 4.875 12.4755 4.75 12.3755 4.65C12.2755 4.55 12.1505 4.5 12.0005 4.5C11.8505 4.5 11.7255 4.55 11.6255 4.65C11.5255 4.75 11.4755 4.875 11.4755 5.025V8.125C11.4755 8.275 11.5255 8.4 11.6255 8.5C11.7255 8.6 11.8505 8.65 12.0005 8.65ZM12.0005 22.375C9.43382 22.375 7.45882 21.6667 6.07549 20.25C4.69216 18.8167 4.00049 16.775 4.00049 14.125V5.5C4.00049 4.86667 4.15049 4.28333 4.45049 3.75C4.76716 3.2 5.19216 2.775 5.72549 2.475C6.27549 2.15833 6.86716 2 7.50049 2H16.5005C17.1338 2 17.7172 2.15833 18.2505 2.475C18.8005 2.775 19.2255 3.2 19.5255 3.75C19.8422 4.28333 20.0005 4.86667 20.0005 5.5V14.125C20.0005 16.775 19.3088 18.8167 17.9255 20.25C16.5422 21.6667 14.5672 22.375 12.0005 22.375Z" fill="black"/>
</g>
<defs>
<clipPath id="clip0_3336_10624">
<rect width="24" height="24" fill="white"/>
</clipPath>
</defs>
</svg>
