<svg width="24" height="24" viewBox="0 0 24 24" fill="none" xmlns="http://www.w3.org/2000/svg">
<g clip-path="url(#clip0_3394_11636)">
<rect width="24" height="24" fill="white"/>
<path d="M12.001 22.375C9.43431 22.375 7.45931 21.6667 6.07598 20.25C4.69264 18.8333 4.00098 16.7917 4.00098 14.125V6.325C4.00098 5.525 4.19264 4.8 4.57598 4.15C4.95931 3.48333 5.47598 2.95833 6.12598 2.575C6.79264 2.19167 7.52598 2 8.32598 2H15.676C16.476 2 17.201 2.19167 17.851 2.575C18.5176 2.95833 19.0426 3.48333 19.426 4.15C19.8093 4.8 20.001 5.525 20.001 6.325V14.125C20.001 16.7917 19.3093 18.8333 17.926 20.25C16.5426 21.6667 14.5676 22.375 12.001 22.375ZM12.001 19.4C13.6176 19.4 14.851 18.95 15.701 18.05C16.551 17.15 16.976 15.8417 16.976 14.125V6.325C16.976 5.925 16.851 5.6 16.601 5.35C16.3676 5.1 16.0593 4.975 15.676 4.975H8.32598C7.94264 4.975 7.62598 5.1 7.37598 5.35C7.14264 5.6 7.02598 5.925 7.02598 6.325V14.125C7.02598 15.8417 7.45098 17.15 8.30098 18.05C9.15098 18.95 10.3843 19.4 12.001 19.4ZM13.576 10.475C12.9926 10.475 12.4926 10.275 12.076 9.875C11.676 9.45833 11.476 8.95833 11.476 8.375C11.476 7.79167 11.676 7.3 12.076 6.9C12.4926 6.5 12.9926 6.3 13.576 6.3C14.176 6.3 14.6676 6.5 15.051 6.9C15.451 7.3 15.651 7.79167 15.651 8.375C15.651 8.95833 15.451 9.45833 15.051 9.875C14.6676 10.275 14.176 10.475 13.576 10.475ZM13.576 8.375C13.376 8.375 13.226 8.375 13.126 8.375C13.0426 8.375 12.9093 8.375 12.726 8.375C12.926 8.375 13.0676 8.375 13.151 8.375C13.251 8.375 13.3926 8.375 13.576 8.375C13.776 8.375 13.9176 8.375 14.001 8.375C14.101 8.375 14.2426 8.375 14.426 8.375C14.226 8.375 14.076 8.375 13.976 8.375C13.8926 8.375 13.7593 8.375 13.576 8.375Z" fill="black"/>
</g>
<defs>
<clipPath id="clip0_3394_11636">
<rect width="24" height="24" fill="white"/>
</clipPath>
</defs>
</svg>
