<svg width="24" height="24" viewBox="0 0 24 24" fill="none" xmlns="http://www.w3.org/2000/svg">
<g clip-path="url(#clip0_3207_19296)">
<rect width="24" height="24" fill="white"/>
<path d="M19.576 8.75V11.9H4.45098V8.75H19.576ZM13.601 3.05V9.6H10.401V3.05H13.601ZM12.001 22.375C9.43431 22.375 7.45931 21.6667 6.07598 20.25C4.69264 18.8167 4.00098 16.775 4.00098 14.125V6.5C4.00098 5.66667 4.20098 4.90833 4.60098 4.225C5.00098 3.54167 5.54264 3 6.22598 2.6C6.90931 2.2 7.66764 2 8.50098 2H15.501C16.3343 2 17.0926 2.2 17.776 2.6C18.4593 3 19.001 3.54167 19.401 4.225C19.801 4.90833 20.001 5.66667 20.001 6.5V14.125C20.001 16.775 19.3093 18.8167 17.926 20.25C16.5426 21.6667 14.5676 22.375 12.001 22.375ZM12.001 18.95C13.4343 18.95 14.5426 18.5333 15.326 17.7C16.126 16.85 16.526 15.6583 16.526 14.125V6.5C16.526 6.2 16.426 5.95 16.226 5.75C16.026 5.53333 15.7843 5.425 15.501 5.425H8.50098C8.21764 5.425 7.97598 5.53333 7.77598 5.75C7.57598 5.95 7.47598 6.2 7.47598 6.5V14.125C7.47598 15.6583 7.86764 16.85 8.65098 17.7C9.45098 18.5333 10.5676 18.95 12.001 18.95Z" fill="black"/>
</g>
<defs>
<clipPath id="clip0_3207_19296">
<rect width="24" height="24" fill="white"/>
</clipPath>
</defs>
</svg>
