<svg width="24" height="24" viewBox="0 0 24 24" fill="none" xmlns="http://www.w3.org/2000/svg">
<g clip-path="url(#clip0_3373_4803)">
<rect width="24" height="24" fill="white"/>
<path d="M12.001 22.375C9.43431 22.375 7.45931 21.6667 6.07598 20.25C4.69264 18.8167 4.00098 16.775 4.00098 14.125V6C4.00098 5.26667 4.17598 4.59167 4.52598 3.975C4.87598 3.35833 5.35931 2.875 5.97598 2.525C6.59264 2.175 7.26764 2 8.00098 2H16.001C16.7343 2 17.4093 2.175 18.026 2.525C18.6426 2.875 19.126 3.35833 19.476 3.975C19.826 4.59167 20.001 5.26667 20.001 6V14.125C20.001 16.775 19.3093 18.8167 17.926 20.25C16.5426 21.6667 14.5676 22.375 12.001 22.375ZM12.001 20.475C13.9343 20.475 15.426 19.925 16.476 18.825C17.526 17.725 18.051 16.1583 18.051 14.125V6C18.051 5.4 17.851 4.9 17.451 4.5C17.0676 4.1 16.5843 3.9 16.001 3.9H8.00098C7.41764 3.9 6.92598 4.1 6.52598 4.5C6.14264 4.9 5.95098 5.4 5.95098 6V14.125C5.95098 16.1583 6.47598 17.725 7.52598 18.825C8.57598 19.925 10.0676 20.475 12.001 20.475ZM14.551 8.9C14.1343 8.9 13.776 8.75833 13.476 8.475C13.1926 8.175 13.051 7.81667 13.051 7.4C13.051 6.96667 13.1926 6.60833 13.476 6.325C13.776 6.04167 14.1343 5.9 14.551 5.9C14.9843 5.9 15.3426 6.04167 15.626 6.325C15.9093 6.60833 16.051 6.96667 16.051 7.4C16.051 7.81667 15.9093 8.175 15.626 8.475C15.3426 8.75833 14.9843 8.9 14.551 8.9ZM14.551 7.4C14.3843 7.4 14.2593 7.4 14.176 7.4C14.1093 7.4 14.001 7.4 13.851 7.4C14.0176 7.4 14.1343 7.4 14.201 7.4C14.2843 7.4 14.401 7.4 14.551 7.4C14.7176 7.4 14.8343 7.4 14.901 7.4C14.9843 7.4 15.1093 7.4 15.276 7.4C15.1093 7.4 14.9843 7.4 14.901 7.4C14.8343 7.4 14.7176 7.4 14.551 7.4Z" fill="black"/>
</g>
<defs>
<clipPath id="clip0_3373_4803">
<rect width="24" height="24" fill="white"/>
</clipPath>
</defs>
</svg>
