<svg width="24" height="24" viewBox="0 0 24 24" fill="none" xmlns="http://www.w3.org/2000/svg">
<g clip-path="url(#clip0_3208_22219)">
<rect width="24" height="24" fill="white"/>
<path d="M12.001 22.375C9.43431 22.375 7.45931 21.6667 6.07598 20.25C4.69264 18.8167 4.00098 16.775 4.00098 14.125V5.825C4.00098 5.125 4.16764 4.48333 4.50098 3.9C4.85098 3.31667 5.31764 2.85833 5.90098 2.525C6.48431 2.175 7.12598 2 7.82598 2H16.176C16.876 2 17.5176 2.175 18.101 2.525C18.6843 2.85833 19.1426 3.31667 19.476 3.9C19.826 4.48333 20.001 5.125 20.001 5.825V14.125C20.001 16.775 19.3093 18.8167 17.926 20.25C16.5426 21.6667 14.5676 22.375 12.001 22.375ZM12.001 20.95C14.101 20.95 15.7093 20.3667 16.826 19.2C17.9593 18.0167 18.526 16.325 18.526 14.125V5.825C18.526 5.14167 18.301 4.575 17.851 4.125C17.401 3.65833 16.8426 3.425 16.176 3.425H7.82598C7.15931 3.425 6.60098 3.65833 6.15098 4.125C5.70098 4.575 5.47598 5.14167 5.47598 5.825V14.125C5.47598 16.3083 6.03431 17.9917 7.15098 19.175C8.28431 20.3583 9.90098 20.95 12.001 20.95ZM14.701 8.4C14.3676 8.4 14.076 8.28333 13.826 8.05C13.5926 7.8 13.476 7.50833 13.476 7.175C13.476 6.825 13.5926 6.53333 13.826 6.3C14.0593 6.05 14.351 5.925 14.701 5.925C15.051 5.925 15.3426 6.04167 15.576 6.275C15.8093 6.50833 15.926 6.80833 15.926 7.175C15.926 7.50833 15.8093 7.8 15.576 8.05C15.3426 8.28333 15.051 8.4 14.701 8.4ZM14.701 7.175C14.7176 7.175 14.7343 7.175 14.751 7.175C14.7676 7.175 14.7926 7.175 14.826 7.175C14.8093 7.175 14.7926 7.175 14.776 7.175C14.7593 7.175 14.7343 7.175 14.701 7.175C14.6843 7.175 14.6593 7.175 14.626 7.175C14.6093 7.175 14.5926 7.175 14.576 7.175C14.5926 7.175 14.6093 7.175 14.626 7.175C14.6593 7.175 14.6843 7.175 14.701 7.175Z" fill="black"/>
</g>
<defs>
<clipPath id="clip0_3208_22219">
<rect width="24" height="24" fill="white"/>
</clipPath>
</defs>
</svg>
