<svg width="24" height="24" viewBox="0 0 24 24" fill="none" xmlns="http://www.w3.org/2000/svg">
<g clip-path="url(#clip0_3207_18686)">
<rect width="24" height="24" fill="white"/>
<path d="M12.0005 23C7.33382 23 5.00049 20.6667 5.00049 16V9.25C5.00049 8.33333 5.30882 7.56667 5.92549 6.95C6.55882 6.31667 7.33382 6 8.25049 6H15.7505C16.6672 6 17.4338 6.31667 18.0505 6.95C18.6838 7.56667 19.0005 8.33333 19.0005 9.25V16C19.0005 20.6667 16.6672 23 12.0005 23ZM12.0005 14.55C12.4838 14.55 12.8922 14.3833 13.2255 14.05C13.5755 13.7 13.7505 13.2833 13.7505 12.8V10.75C13.7505 10.2667 13.5755 9.85833 13.2255 9.525C12.8922 9.175 12.4838 9 12.0005 9C11.5172 9 11.1005 9.175 10.7505 9.525C10.4172 9.85833 10.2505 10.2667 10.2505 10.75V12.8C10.2505 13.2833 10.4172 13.7 10.7505 14.05C11.1005 14.3833 11.5172 14.55 12.0005 14.55ZM10.4755 4.5C10.4755 3.66667 10.7672 2.95833 11.3505 2.375C11.9338 1.79167 12.6422 1.5 13.4755 1.5H16.6005V4.5H13.6505C13.6338 4.5 13.6172 4.50833 13.6005 4.525C13.5838 4.54167 13.5755 4.55833 13.5755 4.575V7.275H10.4755V4.5Z" fill="black"/>
</g>
<defs>
<clipPath id="clip0_3207_18686">
<rect width="24" height="24" fill="white"/>
</clipPath>
</defs>
</svg>
