<svg width="24" height="24" viewBox="0 0 24 24" fill="none" xmlns="http://www.w3.org/2000/svg">
<g clip-path="url(#clip0_3207_18682)">
<rect width="24" height="24" fill="white"/>
<path d="M12.0005 23C7.33382 23 5.00049 20.6667 5.00049 16V9.25C5.00049 8.33333 5.30882 7.56667 5.92549 6.95C6.55882 6.31667 7.33382 6 8.25049 6H15.7505C16.6672 6 17.4338 6.31667 18.0505 6.95C18.6838 7.56667 19.0005 8.33333 19.0005 9.25V16C19.0005 20.6667 16.6672 23 12.0005 23ZM12.0005 13.1C12.3505 13.1 12.6422 12.975 12.8755 12.725C13.1255 12.475 13.2505 12.1667 13.2505 11.8V9.975C13.2505 9.60833 13.1255 9.3 12.8755 9.05C12.6422 8.8 12.3505 8.675 12.0005 8.675C11.6505 8.675 11.3505 8.8 11.1005 9.05C10.8672 9.3 10.7505 9.60833 10.7505 9.975V11.8C10.7505 12.1667 10.8672 12.475 11.1005 12.725C11.3505 12.975 11.6505 13.1 12.0005 13.1ZM10.9005 4.325C10.9005 3.525 11.1755 2.85833 11.7255 2.325C12.2755 1.775 12.9505 1.5 13.7505 1.5H16.6005V3.675H13.8005C13.6172 3.675 13.4588 3.74167 13.3255 3.875C13.2088 4.00833 13.1505 4.16667 13.1505 4.35V6.95H10.9005V4.325Z" fill="black"/>
</g>
<defs>
<clipPath id="clip0_3207_18682">
<rect width="24" height="24" fill="white"/>
</clipPath>
</defs>
</svg>
