<svg width="24" height="24" viewBox="0 0 24 24" fill="none" xmlns="http://www.w3.org/2000/svg">
<g clip-path="url(#clip0_3336_10622)">
<rect width="24" height="24" fill="white"/>
<path d="M12.0005 8.4C12.0838 8.4 12.1422 8.375 12.1755 8.325C12.2255 8.275 12.2505 8.21667 12.2505 8.15V4.75C12.2505 4.66667 12.2255 4.60833 12.1755 4.575C12.1422 4.525 12.0838 4.5 12.0005 4.5C11.9338 4.5 11.8755 4.525 11.8255 4.575C11.7755 4.60833 11.7505 4.66667 11.7505 4.75V8.15C11.7505 8.21667 11.7755 8.275 11.8255 8.325C11.8755 8.375 11.9338 8.4 12.0005 8.4ZM12.0005 22.375C9.43382 22.375 7.45882 21.6667 6.07549 20.25C4.69216 18.8167 4.00049 16.775 4.00049 14.125V5.5C4.00049 4.86667 4.15049 4.28333 4.45049 3.75C4.76716 3.2 5.19216 2.775 5.72549 2.475C6.27549 2.15833 6.86716 2 7.50049 2H16.5005C17.1338 2 17.7172 2.15833 18.2505 2.475C18.8005 2.775 19.2255 3.2 19.5255 3.75C19.8422 4.28333 20.0005 4.86667 20.0005 5.5V14.125C20.0005 16.775 19.3088 18.8167 17.9255 20.25C16.5422 21.6667 14.5672 22.375 12.0005 22.375Z" fill="black"/>
</g>
<defs>
<clipPath id="clip0_3336_10622">
<rect width="24" height="24" fill="white"/>
</clipPath>
</defs>
</svg>
