<svg width="24" height="24" viewBox="0 0 24 24" fill="none" xmlns="http://www.w3.org/2000/svg">
<g clip-path="url(#clip0_3208_21873)">
<rect width="24" height="24" fill="white"/>
<path d="M12.0005 23C7.33382 23 5.00049 20.6667 5.00049 16V9.425C5.00049 8.50833 5.30882 7.74167 5.92549 7.125C6.55882 6.49167 7.33382 6.175 8.25049 6.175H15.7505C16.6672 6.175 17.4338 6.49167 18.0505 7.125C18.6838 7.74167 19.0005 8.50833 19.0005 9.425V16C19.0005 20.6667 16.6672 23 12.0005 23ZM12.0005 13.275C12.3505 13.275 12.6422 13.15 12.8755 12.9C13.1255 12.6333 13.2505 12.325 13.2505 11.975V10.125C13.2505 9.775 13.1255 9.475 12.8755 9.225C12.6422 8.95833 12.3505 8.825 12.0005 8.825C11.6505 8.825 11.3505 8.95833 11.1005 9.225C10.8672 9.475 10.7505 9.775 10.7505 10.125V11.975C10.7505 12.325 10.8672 12.6333 11.1005 12.9C11.3505 13.15 11.6505 13.275 12.0005 13.275ZM6.60049 3.15C7.35049 2.48333 8.19216 1.98333 9.12549 1.65C10.0588 1.31667 11.0172 1.15 12.0005 1.15C12.9838 1.15 13.9422 1.31667 14.8755 1.65C15.8088 1.98333 16.6505 2.48333 17.4005 3.15L15.9505 4.9C15.4172 4.43333 14.8088 4.075 14.1255 3.825C13.4422 3.575 12.7338 3.45 12.0005 3.45C11.2838 3.45 10.5755 3.575 9.87549 3.825C9.19216 4.075 8.58382 4.43333 8.05049 4.9L6.60049 3.15Z" fill="black"/>
</g>
<defs>
<clipPath id="clip0_3208_21873">
<rect width="24" height="24" fill="white"/>
</clipPath>
</defs>
</svg>
