<svg width="24" height="24" viewBox="0 0 24 24" fill="none" xmlns="http://www.w3.org/2000/svg">
<g clip-path="url(#clip0_3336_10610)">
<rect width="24" height="24" fill="white"/>
<path d="M12.001 9.15C11.851 9.15 11.726 9.1 11.626 9C11.526 8.9 11.476 8.775 11.476 8.625V5.7C11.476 5.53333 11.526 5.40833 11.626 5.325C11.726 5.225 11.851 5.175 12.001 5.175C12.151 5.175 12.276 5.225 12.376 5.325C12.476 5.40833 12.526 5.53333 12.526 5.7V8.625C12.526 8.775 12.476 8.9 12.376 9C12.276 9.1 12.151 9.15 12.001 9.15ZM12.001 22.375C9.43431 22.375 7.45931 21.6667 6.07598 20.25C4.69264 18.8167 4.00098 16.775 4.00098 14.125V5.675C4.00098 5.00833 4.15931 4.39167 4.47598 3.825C4.80931 3.25833 5.25931 2.81667 5.82598 2.5C6.39264 2.16667 7.00931 2 7.67598 2H16.326C16.9926 2 17.6093 2.16667 18.176 2.5C18.7426 2.81667 19.1843 3.25833 19.501 3.825C19.8343 4.39167 20.001 5.00833 20.001 5.675V14.125C20.001 16.775 19.3093 18.8167 17.926 20.25C16.5426 21.6667 14.5676 22.375 12.001 22.375ZM12.001 21.425C14.251 21.425 15.9843 20.8 17.201 19.55C18.4176 18.2833 19.026 16.475 19.026 14.125V5.675C19.026 4.90833 18.7593 4.26667 18.226 3.75C17.7093 3.21667 17.076 2.95 16.326 2.95H7.67598C6.92598 2.95 6.28431 3.21667 5.75098 3.75C5.23431 4.26667 4.97598 4.90833 4.97598 5.675V14.125C4.97598 16.475 5.58431 18.2833 6.80098 19.55C8.01764 20.8 9.75098 21.425 12.001 21.425Z" fill="black"/>
</g>
<defs>
<clipPath id="clip0_3336_10610">
<rect width="24" height="24" fill="white"/>
</clipPath>
</defs>
</svg>
