<svg width="24" height="24" viewBox="0 0 24 24" fill="none" xmlns="http://www.w3.org/2000/svg">
<g clip-path="url(#clip0_3207_18898)">
<rect width="24" height="24" fill="white"/>
<path d="M3.82598 20C3.30931 20 2.83431 19.875 2.40098 19.625C1.96764 19.375 1.62598 19.0333 1.37598 18.6C1.12598 18.1667 1.00098 17.6917 1.00098 17.175V6.825C1.00098 6.30833 1.12598 5.83333 1.37598 5.4C1.62598 4.96667 1.96764 4.625 2.40098 4.375C2.83431 4.125 3.30931 4 3.82598 4H13.676C14.1926 4 14.6676 4.125 15.101 4.375C15.5343 4.625 15.876 4.96667 16.126 5.4C16.376 5.83333 16.501 6.30833 16.501 6.825V17.175C16.501 17.6917 16.376 18.1667 16.126 18.6C15.876 19.0333 15.5343 19.375 15.101 19.625C14.6676 19.875 14.1926 20 13.676 20H3.82598ZM13.676 18.6C14.076 18.6 14.4093 18.4667 14.676 18.2C14.9426 17.9167 15.076 17.575 15.076 17.175V6.825C15.076 6.425 14.9426 6.09167 14.676 5.825C14.4093 5.54167 14.076 5.4 13.676 5.4H3.82598C3.42598 5.4 3.09264 5.54167 2.82598 5.825C2.55931 6.09167 2.42598 6.425 2.42598 6.825V17.175C2.42598 17.575 2.55931 17.9167 2.82598 18.2C3.09264 18.4667 3.42598 18.6 3.82598 18.6H13.676ZM21.426 5.9H23.001V18.1H21.426L15.976 15.225V13.65L22.576 17.15L21.576 17.6V6.6L22.576 6.825L15.976 10.35V8.775L21.426 5.9Z" fill="black"/>
</g>
<defs>
<clipPath id="clip0_3207_18898">
<rect width="24" height="24" fill="white"/>
</clipPath>
</defs>
</svg>
