<svg width="24" height="24" viewBox="0 0 24 24" fill="none" xmlns="http://www.w3.org/2000/svg">
<g clip-path="url(#clip0_3359_3939)">
<rect width="24" height="24" fill="white"/>
<path d="M4 19.675C4 18.7917 4.3 18 4.9 17.3C5.51667 16.5833 6.425 16.025 7.625 15.625C8.84167 15.2083 10.3 15 12 15C13.7 15 15.15 15.2083 16.35 15.625C17.5667 16.025 18.475 16.5833 19.075 17.3C19.6917 18 20 18.7917 20 19.675V22H4V19.675ZM17.25 13.375C17.5833 12.8917 17.8583 12.375 18.075 11.825C18.3083 11.2583 18.45 10.6833 18.5 10.1L20.8 10.3C20.7333 11.0833 20.55 11.85 20.25 12.6C19.9667 13.35 19.5833 14.0583 19.1 14.725L17.25 13.375ZM18.45 8.525C18.35 7.975 18.1833 7.43333 17.95 6.9C17.7167 6.35 17.425 5.85833 17.075 5.425L18.875 4C19.375 4.61667 19.7833 5.29167 20.1 6.025C20.4167 6.74167 20.6333 7.45833 20.75 8.175L18.45 8.525ZM15.975 4.35C15.5083 3.98333 15 3.69167 14.45 3.475C13.9167 3.25833 13.3583 3.11667 12.775 3.05L13.025 0.799999C13.825 0.883333 14.6 1.08333 15.35 1.4C16.1 1.7 16.7833 2.08333 17.4 2.55L15.975 4.35ZM11.2 3.05C10.0167 3.2 8.95833 3.63333 8.025 4.35L6.6 2.55C7.21667 2.08333 7.89167 1.7 8.625 1.4C9.375 1.08333 10.15 0.883333 10.95 0.799999L11.2 3.05ZM6.925 5.425C6.575 5.85833 6.28333 6.35 6.05 6.9C5.81667 7.43333 5.65 7.975 5.55 8.525L3.25 8.175C3.36667 7.45833 3.58333 6.74167 3.9 6.025C4.21667 5.29167 4.625 4.61667 5.125 4L6.925 5.425ZM5.5 10.1C5.55 10.6833 5.68333 11.2583 5.9 11.825C6.13333 12.375 6.41667 12.8917 6.75 13.375L4.9 14.725C4.41667 14.0583 4.025 13.35 3.725 12.6C3.44167 11.85 3.26667 11.0833 3.2 10.3L5.5 10.1ZM12 13.1C11.3333 13.1 10.7167 12.9417 10.15 12.625C9.6 12.3083 9.16667 11.875 8.85 11.325C8.53333 10.775 8.375 10.1667 8.375 9.5C8.375 8.83333 8.53333 8.225 8.85 7.675C9.16667 7.125 9.6 6.69167 10.15 6.375C10.7167 6.05833 11.3333 5.9 12 5.9C12.6667 5.9 13.275 6.05833 13.825 6.375C14.3917 6.69167 14.8333 7.125 15.15 7.675C15.4667 8.225 15.625 8.83333 15.625 9.5C15.625 10.1667 15.4667 10.775 15.15 11.325C14.8333 11.875 14.3917 12.3083 13.825 12.625C13.275 12.9417 12.6667 13.1 12 13.1Z" fill="black"/>
</g>
<defs>
<clipPath id="clip0_3359_3939">
<rect width="24" height="24" fill="white"/>
</clipPath>
</defs>
</svg>
