<svg width="24" height="24" viewBox="0 0 24 24" fill="none" xmlns="http://www.w3.org/2000/svg">
<g clip-path="url(#clip0_3359_3929)">
<rect width="24" height="24" fill="white"/>
<path d="M7.85049 5.725C7.50049 6.14167 7.20049 6.63333 6.95049 7.2C6.70049 7.76667 6.56716 8.30833 6.55049 8.825L3.40049 8.675C3.43382 7.84167 3.64216 6.975 4.02549 6.075C4.40882 5.175 4.88382 4.39167 5.45049 3.725L7.85049 5.725ZM12.0005 13.375C11.2338 13.375 10.5338 13.1917 9.90049 12.825C9.26716 12.4583 8.76716 11.9583 8.40049 11.325C8.03382 10.6917 7.85049 10 7.85049 9.25C7.85049 8.5 8.03382 7.80833 8.40049 7.175C8.76716 6.54167 9.26716 6.04167 9.90049 5.675C10.5338 5.30833 11.2338 5.125 12.0005 5.125C12.7672 5.125 13.4672 5.30833 14.1005 5.675C14.7338 6.04167 15.2338 6.54167 15.6005 7.175C15.9672 7.80833 16.1505 8.5 16.1505 9.25C16.1505 10 15.9672 10.6917 15.6005 11.325C15.2338 11.9583 14.7338 12.4583 14.1005 12.825C13.4672 13.1917 12.7672 13.375 12.0005 13.375ZM12.0005 10.45C12.3338 10.45 12.6172 10.3333 12.8505 10.1C13.0838 9.86667 13.2005 9.58333 13.2005 9.25C13.2005 8.91667 13.0838 8.63333 12.8505 8.4C12.6172 8.16667 12.3338 8.05 12.0005 8.05C11.6672 8.05 11.3838 8.16667 11.1505 8.4C10.9172 8.63333 10.8005 8.91667 10.8005 9.25C10.8005 9.58333 10.9172 9.86667 11.1505 10.1C11.3838 10.3333 11.6672 10.45 12.0005 10.45ZM16.1255 12.825C16.4922 12.3417 16.8005 11.825 17.0505 11.275C17.3005 10.725 17.4338 10.2 17.4505 9.7L20.6005 9.85C20.5672 10.6333 20.3755 11.45 20.0255 12.3C19.6922 13.1333 19.2172 13.9417 18.6005 14.725L16.1255 12.825ZM11.5755 3.825C10.3588 3.925 9.30882 4.35833 8.42549 5.125L6.37549 2.775C7.00882 2.225 7.75049 1.76667 8.60049 1.4C9.45049 1.03333 10.3505 0.808332 11.3005 0.724999L11.5755 3.825ZM15.5505 5.125C15.1005 4.725 14.6088 4.425 14.0755 4.225C13.5422 4.00833 12.9922 3.875 12.4255 3.825L12.7255 0.749998C13.6422 0.833332 14.5172 1.05 15.3505 1.4C16.2005 1.75 16.9588 2.21667 17.6255 2.8L15.5505 5.125ZM17.4505 8.825C17.4338 8.325 17.3005 7.8 17.0505 7.25C16.8005 6.68333 16.4922 6.175 16.1255 5.725L18.5505 3.75C19.1672 4.5 19.6505 5.30833 20.0005 6.175C20.3672 7.04167 20.5672 7.875 20.6005 8.675L17.4505 8.825ZM6.55049 9.7C6.56716 10.2333 6.70049 10.7833 6.95049 11.35C7.21716 11.9 7.51716 12.3917 7.85049 12.825L5.35049 14.7C4.78382 13.9667 4.32549 13.1833 3.97549 12.35C3.62549 11.5 3.43382 10.6583 3.40049 9.825L6.55049 9.7ZM4.00049 18.85C4.00049 17.9167 4.32549 17.1083 4.97549 16.425C5.62549 15.725 6.55049 15.1917 7.75049 14.825C8.95049 14.4417 10.3672 14.25 12.0005 14.25C13.6338 14.25 15.0505 14.4417 16.2505 14.825C17.4505 15.1917 18.3755 15.725 19.0255 16.425C19.6755 17.1083 20.0005 17.9167 20.0005 18.85V22H4.00049V18.85ZM16.7005 18.85V18.8C16.7005 18.5833 16.5172 18.3667 16.1505 18.15C15.7838 17.9333 15.2422 17.75 14.5255 17.6C13.8255 17.45 12.9838 17.375 12.0005 17.375C11.0172 17.375 10.1672 17.45 9.45049 17.6C8.73382 17.75 8.19216 17.9333 7.82549 18.15C7.45882 18.3667 7.27549 18.5833 7.27549 18.8V18.85H16.7005Z" fill="black"/>
</g>
<defs>
<clipPath id="clip0_3359_3929">
<rect width="24" height="24" fill="white"/>
</clipPath>
</defs>
</svg>
