<svg width="24" height="24" viewBox="0 0 24 24" fill="none" xmlns="http://www.w3.org/2000/svg">
<g clip-path="url(#clip0_3206_14366)">
<rect width="24" height="24" fill="white"/>
<path d="M3 19.9C3 18.95 3.31667 18.1083 3.95 17.375C4.6 16.625 5.525 16.0417 6.725 15.625C7.94167 15.2083 9.36667 15 11 15C12.6333 15 14.05 15.2083 15.25 15.625C16.4667 16.0417 17.3917 16.625 18.025 17.375C18.675 18.1083 19 18.95 19 19.9V22H3V19.9ZM11 13.125C10.3333 13.125 9.725 12.9667 9.175 12.65C8.625 12.3167 8.18333 11.875 7.85 11.325C7.53333 10.7583 7.375 10.15 7.375 9.5C7.375 8.85 7.53333 8.25 7.85 7.7C8.18333 7.15 8.625 6.71667 9.175 6.4C9.725 6.06667 10.3333 5.9 11 5.9C11.6667 5.9 12.275 6.06667 12.825 6.4C13.375 6.71667 13.8083 7.15 14.125 7.7C14.4583 8.25 14.625 8.85 14.625 9.5C14.625 10.15 14.4583 10.7583 14.125 11.325C13.8083 11.875 13.375 12.3167 12.825 12.65C12.275 12.9667 11.6667 13.125 11 13.125ZM23.475 11.825C22.0083 12.4417 20.95 13.5 20.3 15C19.6833 13.5167 18.6333 12.4583 17.15 11.825C18.6167 11.2083 19.6667 10.15 20.3 8.65C20.9667 10.15 22.025 11.2083 23.475 11.825ZM3.95 14.475C3.45 13.7583 3.05833 12.9833 2.775 12.15C2.50833 11.3 2.375 10.4167 2.375 9.5C2.375 7.93333 2.75833 6.5 3.525 5.2C4.29167 3.9 5.33333 2.875 6.65 2.125C7.96667 1.35833 9.41667 0.974999 11 0.974999C12.6333 0.974999 14.1333 1.38333 15.5 2.2C16.8667 3.01667 17.9167 4.125 18.65 5.525L15.85 6.95C15.4 6.08333 14.7417 5.39167 13.875 4.875C13.0083 4.34167 12.05 4.075 11 4.075C9.98333 4.075 9.05833 4.31667 8.225 4.8C7.39167 5.28333 6.73333 5.94167 6.25 6.775C5.76667 7.59167 5.525 8.5 5.525 9.5C5.525 10.6833 5.85833 11.7417 6.525 12.675L3.95 14.475Z" fill="black"/>
</g>
<defs>
<clipPath id="clip0_3206_14366">
<rect width="24" height="24" fill="white"/>
</clipPath>
</defs>
</svg>
