<svg width="24" height="24" viewBox="0 0 24 24" fill="none" xmlns="http://www.w3.org/2000/svg">
<g clip-path="url(#clip0_3206_14346)">
<rect width="24" height="24" fill="white"/>
<path d="M11.0255 13.475C10.2922 13.475 9.61716 13.3 9.00049 12.95C8.40049 12.6 7.91716 12.125 7.55049 11.525C7.20049 10.9083 7.02549 10.2333 7.02549 9.5C7.02549 8.76667 7.20049 8.1 7.55049 7.5C7.91716 6.88333 8.40049 6.4 9.00049 6.05C9.61716 5.7 10.2922 5.525 11.0255 5.525C11.7588 5.525 12.4255 5.7 13.0255 6.05C13.6422 6.4 14.1255 6.88333 14.4755 7.5C14.8422 8.1 15.0255 8.76667 15.0255 9.5C15.0255 10.2333 14.8422 10.9083 14.4755 11.525C14.1255 12.125 13.6422 12.6 13.0255 12.95C12.4255 13.3 11.7588 13.475 11.0255 13.475ZM11.0255 11.7C11.6422 11.7 12.1588 11.4917 12.5755 11.075C13.0088 10.6417 13.2255 10.1167 13.2255 9.5C13.2255 8.88333 13.0088 8.36667 12.5755 7.95C12.1588 7.51667 11.6422 7.3 11.0255 7.3C10.4088 7.3 9.88382 7.51667 9.45049 7.95C9.03382 8.36667 8.82549 8.88333 8.82549 9.5C8.82549 10.1167 9.03382 10.6417 9.45049 11.075C9.88382 11.4917 10.4088 11.7 11.0255 11.7ZM21.3755 11.9C20.8255 11.5 20.3255 11.0167 19.8755 10.45C19.4255 11.0167 18.9255 11.5 18.3755 11.9C18.9255 12.3 19.4255 12.7833 19.8755 13.35C20.3255 12.7833 20.8255 12.3 21.3755 11.9ZM24.0005 11.9C22.1672 12.8167 20.7922 14.1917 19.8755 16.025C18.9588 14.1917 17.5838 12.8167 15.7505 11.9C17.5838 10.9833 18.9588 9.60833 19.8755 7.775C20.7922 9.60833 22.1672 10.9833 24.0005 11.9ZM3.95049 14.45C3.45049 13.7333 3.05882 12.9583 2.77549 12.125C2.50882 11.2917 2.37549 10.4167 2.37549 9.5C2.37549 7.93333 2.75882 6.5 3.52549 5.2C4.29216 3.9 5.33382 2.875 6.65049 2.125C7.96716 1.35833 9.41716 0.974999 11.0005 0.974999C12.6672 0.974999 14.1838 1.4 15.5505 2.25C16.9338 3.1 17.9755 4.21667 18.6755 5.6L17.0255 6.4C16.4588 5.3 15.6422 4.425 14.5755 3.775C13.5088 3.10833 12.3172 2.775 11.0005 2.775C9.75049 2.775 8.60882 3.075 7.57549 3.675C6.54216 4.25833 5.72549 5.06667 5.12549 6.1C4.52549 7.13333 4.22549 8.26667 4.22549 9.5C4.22549 10.95 4.63382 12.2583 5.45049 13.425L3.95049 14.45ZM3.02549 19.65C3.02549 18.7833 3.32549 18 3.92549 17.3C4.54216 16.5833 5.45049 16.025 6.65049 15.625C7.86716 15.2083 9.32549 15 11.0255 15C12.7255 15 14.1755 15.2083 15.3755 15.625C16.5922 16.025 17.5005 16.5833 18.1005 17.3C18.7172 18 19.0255 18.7833 19.0255 19.65V22H3.02549V19.65ZM17.1755 20.2V19.65C17.1755 19.1667 16.9505 18.7083 16.5005 18.275C16.0505 17.825 15.3588 17.4667 14.4255 17.2C13.5088 16.9333 12.3755 16.8 11.0255 16.8C9.67549 16.8 8.53382 16.9333 7.60049 17.2C6.68382 17.4667 6.00049 17.825 5.55049 18.275C5.10049 18.7083 4.87549 19.1667 4.87549 19.65V20.2H17.1755Z" fill="black"/>
</g>
<defs>
<clipPath id="clip0_3206_14346">
<rect width="24" height="24" fill="white"/>
</clipPath>
</defs>
</svg>
