<svg width="24" height="24" viewBox="0 0 24 24" fill="none" xmlns="http://www.w3.org/2000/svg">
<g clip-path="url(#clip0_3394_11572)">
<rect width="24" height="24" fill="white"/>
<path d="M12.0005 13.625C11.2338 13.625 10.5338 13.4417 9.90049 13.075C9.26716 12.7083 8.76716 12.2083 8.40049 11.575C8.03382 10.9417 7.85049 10.25 7.85049 9.5C7.85049 8.75 8.03382 8.05833 8.40049 7.425C8.76716 6.79167 9.26716 6.29167 9.90049 5.925C10.5338 5.55833 11.2338 5.375 12.0005 5.375C12.7672 5.375 13.4672 5.55833 14.1005 5.925C14.7338 6.29167 15.2338 6.79167 15.6005 7.425C15.9672 8.05833 16.1505 8.75 16.1505 9.5C16.1505 10.25 15.9672 10.9417 15.6005 11.575C15.2338 12.2083 14.7338 12.7083 14.1005 13.075C13.4672 13.4417 12.7672 13.625 12.0005 13.625ZM12.0005 10.7C12.3338 10.7 12.6172 10.5833 12.8505 10.35C13.0838 10.1167 13.2005 9.83333 13.2005 9.5C13.2005 9.16667 13.0838 8.88333 12.8505 8.65C12.6172 8.41667 12.3338 8.3 12.0005 8.3C11.6672 8.3 11.3838 8.41667 11.1505 8.65C10.9172 8.88333 10.8005 9.16667 10.8005 9.5C10.8005 9.83333 10.9172 10.1167 11.1505 10.35C11.3838 10.5833 11.6672 10.7 12.0005 10.7ZM4.95049 14.475C4.45049 13.7583 4.05882 12.9833 3.77549 12.15C3.50882 11.3 3.37549 10.4167 3.37549 9.5C3.37549 7.93333 3.75882 6.5 4.52549 5.2C5.29216 3.9 6.33382 2.875 7.65049 2.125C8.96716 1.35833 10.4172 0.974999 12.0005 0.974999C13.5838 0.974999 15.0338 1.35833 16.3505 2.125C17.6672 2.875 18.7088 3.9 19.4755 5.2C20.2422 6.5 20.6255 7.93333 20.6255 9.5C20.6255 10.4833 20.4755 11.4 20.1755 12.25C19.8922 13.1 19.5088 13.85 19.0255 14.5L16.4755 12.675C16.7922 12.2417 17.0338 11.7583 17.2005 11.225C17.3838 10.675 17.4755 10.1 17.4755 9.5C17.4755 8.5 17.2338 7.59167 16.7505 6.775C16.2672 5.94167 15.6088 5.28333 14.7755 4.8C13.9422 4.31667 13.0172 4.075 12.0005 4.075C10.9838 4.075 10.0588 4.31667 9.22549 4.8C8.39216 5.28333 7.73382 5.94167 7.25049 6.775C6.76716 7.59167 6.52549 8.5 6.52549 9.5C6.52549 10.6833 6.85882 11.7417 7.52549 12.675L4.95049 14.475ZM4.00049 18.85C4.00049 17.9167 4.32549 17.1083 4.97549 16.425C5.62549 15.725 6.55049 15.1917 7.75049 14.825C8.95049 14.4417 10.3672 14.25 12.0005 14.25C13.6338 14.25 15.0505 14.4417 16.2505 14.825C17.4505 15.1917 18.3755 15.725 19.0255 16.425C19.6755 17.1083 20.0005 17.9167 20.0005 18.85V22H4.00049V18.85ZM16.7005 18.85V18.8C16.7005 18.5833 16.5172 18.3667 16.1505 18.15C15.8005 17.9333 15.2672 17.75 14.5505 17.6C13.8505 17.45 13.0005 17.375 12.0005 17.375C11.0005 17.375 10.1422 17.45 9.42549 17.6C8.72549 17.75 8.19216 17.9333 7.82549 18.15C7.45882 18.3667 7.27549 18.5833 7.27549 18.8V18.85H16.7005Z" fill="black"/>
</g>
<defs>
<clipPath id="clip0_3394_11572">
<rect width="24" height="24" fill="white"/>
</clipPath>
</defs>
</svg>
