<svg width="24" height="24" viewBox="0 0 24 24" fill="none" xmlns="http://www.w3.org/2000/svg">
<g clip-path="url(#clip0_3206_14492)">
<rect width="24" height="24" fill="white"/>
<path d="M4.95 14.45C4.45 13.7333 4.05833 12.9583 3.775 12.125C3.50833 11.2917 3.375 10.4167 3.375 9.5C3.375 7.93333 3.75833 6.5 4.525 5.2C5.29167 3.9 6.33333 2.875 7.65 2.125C8.96667 1.35833 10.4167 0.974999 12 0.974999C13.5833 0.974999 15.0333 1.35833 16.35 2.125C17.6667 2.875 18.7083 3.9 19.475 5.2C20.2417 6.5 20.625 7.93333 20.625 9.5C20.625 10.4333 20.4833 11.325 20.2 12.175C19.9167 13.025 19.5333 13.7917 19.05 14.475L17.2 13.175C17.5667 12.6583 17.85 12.0917 18.05 11.475C18.25 10.8417 18.35 10.1833 18.35 9.5C18.35 8.35 18.0667 7.29167 17.5 6.325C16.9333 5.35833 16.1667 4.6 15.2 4.05C14.2333 3.48333 13.1667 3.2 12 3.2C10.8333 3.2 9.76667 3.48333 8.8 4.05C7.83333 4.6 7.06667 5.35833 6.5 6.325C5.93333 7.29167 5.65 8.35 5.65 9.5C5.65 10.8667 6.03333 12.0917 6.8 13.175L4.95 14.45ZM4 20.075C4 19.125 4.31667 18.2833 4.95 17.55C5.6 16.8 6.525 16.2167 7.725 15.8C8.94167 15.3833 10.3667 15.175 12 15.175C13.6333 15.175 15.05 15.3833 16.25 15.8C17.4667 16.2167 18.3917 16.8 19.025 17.55C19.675 18.2833 20 19.125 20 20.075V22H4V20.075ZM12 13.125C11.3333 13.125 10.725 12.9667 10.175 12.65C9.625 12.3167 9.18333 11.875 8.85 11.325C8.53333 10.7583 8.375 10.15 8.375 9.5C8.375 8.85 8.53333 8.25 8.85 7.7C9.18333 7.15 9.625 6.71667 10.175 6.4C10.725 6.06667 11.3333 5.9 12 5.9C12.6667 5.9 13.275 6.06667 13.825 6.4C14.375 6.71667 14.8083 7.15 15.125 7.7C15.4583 8.25 15.625 8.85 15.625 9.5C15.625 10.15 15.4583 10.7583 15.125 11.325C14.8083 11.875 14.375 12.3167 13.825 12.65C13.275 12.9667 12.6667 13.125 12 13.125Z" fill="black"/>
</g>
<defs>
<clipPath id="clip0_3206_14492">
<rect width="24" height="24" fill="white"/>
</clipPath>
</defs>
</svg>
