<svg width="24" height="24" viewBox="0 0 24 24" fill="none" xmlns="http://www.w3.org/2000/svg">
<g clip-path="url(#clip0_3394_11570)">
<rect width="24" height="24" fill="white"/>
<path d="M12.0005 13.575C11.2505 13.575 10.5588 13.4 9.92549 13.05C9.29216 12.6833 8.79216 12.1917 8.42549 11.575C8.07549 10.9417 7.90049 10.25 7.90049 9.5C7.90049 8.75 8.07549 8.06667 8.42549 7.45C8.79216 6.81667 9.29216 6.325 9.92549 5.975C10.5588 5.60833 11.2505 5.425 12.0005 5.425C12.7505 5.425 13.4422 5.60833 14.0755 5.975C14.7088 6.325 15.2005 6.81667 15.5505 7.45C15.9172 8.06667 16.1005 8.75 16.1005 9.5C16.1005 10.25 15.9172 10.9417 15.5505 11.575C15.2005 12.1917 14.7088 12.6833 14.0755 13.05C13.4422 13.4 12.7505 13.575 12.0005 13.575ZM12.0005 11.05C12.4338 11.05 12.8005 10.9 13.1005 10.6C13.4005 10.3 13.5505 9.93333 13.5505 9.5C13.5505 9.06667 13.4005 8.7 13.1005 8.4C12.8005 8.1 12.4338 7.95 12.0005 7.95C11.5672 7.95 11.2005 8.1 10.9005 8.4C10.6005 8.7 10.4505 9.06667 10.4505 9.5C10.4505 9.93333 10.6005 10.3 10.9005 10.6C11.2005 10.9 11.5672 11.05 12.0005 11.05ZM4.95049 14.475C4.45049 13.7583 4.05882 12.9833 3.77549 12.15C3.50882 11.3 3.37549 10.4167 3.37549 9.5C3.37549 7.93333 3.75882 6.5 4.52549 5.2C5.29216 3.9 6.33382 2.875 7.65049 2.125C8.96716 1.35833 10.4172 0.974999 12.0005 0.974999C13.5838 0.974999 15.0338 1.35833 16.3505 2.125C17.6672 2.875 18.7088 3.9 19.4755 5.2C20.2422 6.5 20.6255 7.93333 20.6255 9.5C20.6255 10.4667 20.4838 11.375 20.2005 12.225C19.9172 13.075 19.5255 13.8333 19.0255 14.5L16.8255 12.925C17.1755 12.4583 17.4422 11.9333 17.6255 11.35C17.8088 10.7667 17.9005 10.15 17.9005 9.5C17.9005 8.41667 17.6422 7.43333 17.1255 6.55C16.6088 5.65 15.8922 4.94167 14.9755 4.425C14.0755 3.90833 13.0838 3.65 12.0005 3.65C10.9005 3.65 9.90049 3.90833 9.00049 4.425C8.10049 4.94167 7.39216 5.65 6.87549 6.55C6.35882 7.43333 6.10049 8.41667 6.10049 9.5C6.10049 10.7667 6.45882 11.9083 7.17549 12.925L4.95049 14.475ZM4.00049 19.125C4.00049 18.2083 4.31716 17.4 4.95049 16.7C5.58382 16 6.50049 15.4583 7.70049 15.075C8.91716 14.6917 10.3505 14.5 12.0005 14.5C13.6505 14.5 15.0755 14.6917 16.2755 15.075C17.4922 15.4583 18.4172 16 19.0505 16.7C19.6838 17.4 20.0005 18.2083 20.0005 19.125V22H4.00049V19.125ZM17.2255 19.3V19.075C17.2255 18.775 17.0255 18.4833 16.6255 18.2C16.2255 17.9 15.6338 17.6583 14.8505 17.475C14.0672 17.275 13.1172 17.175 12.0005 17.175C10.8838 17.175 9.93382 17.275 9.15049 17.475C8.36716 17.6583 7.77549 17.9 7.37549 18.2C6.97549 18.4833 6.77549 18.775 6.77549 19.075V19.3H17.2255Z" fill="black"/>
</g>
<defs>
<clipPath id="clip0_3394_11570">
<rect width="24" height="24" fill="white"/>
</clipPath>
</defs>
</svg>
