<svg width="24" height="24" viewBox="0 0 24 24" fill="none" xmlns="http://www.w3.org/2000/svg">
<g clip-path="url(#clip0_3359_3935)">
<rect width="24" height="24" fill="white"/>
<path d="M4 19.825C4 18.925 4.30833 18.1167 4.925 17.4C5.54167 16.6833 6.45 16.1167 7.65 15.7C8.86667 15.2833 10.3167 15.075 12 15.075C13.6833 15.075 15.125 15.2833 16.325 15.7C17.5417 16.1167 18.4583 16.6833 19.075 17.4C19.6917 18.1167 20 18.925 20 19.825V22H4V19.825ZM18.075 13.625C18.3917 13.1417 18.6583 12.6083 18.875 12.025C19.1083 11.425 19.2583 10.8417 19.325 10.275L20.725 10.4C20.6417 11.0833 20.4667 11.775 20.2 12.475C19.95 13.1583 19.625 13.7917 19.225 14.375L18.075 13.625ZM19.275 8.15C19.1583 7.6 18.975 7.04167 18.725 6.475C18.4917 5.90833 18.2 5.40833 17.85 4.975L18.95 4.125C19.3667 4.65833 19.7167 5.25833 20 5.925C20.3 6.575 20.5167 7.23333 20.65 7.9L19.275 8.15ZM16.35 3.5C15.85 3.13333 15.325 2.84167 14.775 2.625C14.225 2.39167 13.6417 2.23333 13.025 2.15L13.2 0.824999C13.9333 0.908332 14.6333 1.09167 15.3 1.375C15.9833 1.64167 16.6167 1.99167 17.2 2.425L16.35 3.5ZM10.925 2.15C9.69167 2.33333 8.60833 2.78333 7.675 3.5L6.825 2.425C7.375 2.00833 7.99167 1.65833 8.675 1.375C9.35833 1.09167 10.05 0.908332 10.75 0.824999L10.925 2.15ZM6.15 4.975C5.8 5.40833 5.5 5.90833 5.25 6.475C5.01667 7.04167 4.84167 7.6 4.725 8.15L3.35 7.9C3.48333 7.23333 3.69167 6.575 3.975 5.925C4.275 5.25833 4.63333 4.65833 5.05 4.125L6.15 4.975ZM4.675 10.275C4.74167 10.8583 4.88333 11.4417 5.1 12.025C5.33333 12.6083 5.60833 13.1417 5.925 13.625L4.775 14.375C4.375 13.7917 4.04167 13.1583 3.775 12.475C3.525 11.775 3.35833 11.0833 3.275 10.4L4.675 10.275ZM12 13.1C11.3333 13.1 10.7167 12.9417 10.15 12.625C9.6 12.3083 9.16667 11.875 8.85 11.325C8.53333 10.775 8.375 10.1667 8.375 9.5C8.375 8.83333 8.53333 8.225 8.85 7.675C9.16667 7.125 9.6 6.69167 10.15 6.375C10.7167 6.05833 11.3333 5.9 12 5.9C12.6667 5.9 13.275 6.05833 13.825 6.375C14.3917 6.69167 14.8333 7.125 15.15 7.675C15.4667 8.225 15.625 8.83333 15.625 9.5C15.625 10.1667 15.4667 10.775 15.15 11.325C14.8333 11.875 14.3917 12.3083 13.825 12.625C13.275 12.9417 12.6667 13.1 12 13.1Z" fill="black"/>
</g>
<defs>
<clipPath id="clip0_3359_3935">
<rect width="24" height="24" fill="white"/>
</clipPath>
</defs>
</svg>
