<svg width="24" height="24" viewBox="0 0 24 24" fill="none" xmlns="http://www.w3.org/2000/svg">
<g clip-path="url(#clip0_3206_14344)">
<rect width="24" height="24" fill="white"/>
<path d="M11.0255 13.35C10.3088 13.35 9.65049 13.1833 9.05049 12.85C8.46716 12.5 8.00049 12.0333 7.65049 11.45C7.31716 10.85 7.15049 10.2 7.15049 9.5C7.15049 8.8 7.31716 8.15833 7.65049 7.575C8.00049 6.975 8.46716 6.50833 9.05049 6.175C9.65049 5.825 10.3088 5.65 11.0255 5.65C11.7255 5.65 12.3672 5.825 12.9505 6.175C13.5505 6.50833 14.0255 6.975 14.3755 7.575C14.7255 8.15833 14.9005 8.8 14.9005 9.5C14.9005 10.2 14.7255 10.85 14.3755 11.45C14.0255 12.0333 13.5505 12.5 12.9505 12.85C12.3672 13.1833 11.7255 13.35 11.0255 13.35ZM11.0255 12.025C11.7255 12.025 12.3172 11.7833 12.8005 11.3C13.2838 10.8 13.5255 10.2 13.5255 9.5C13.5255 8.8 13.2838 8.20833 12.8005 7.725C12.3172 7.24167 11.7255 7 11.0255 7C10.3255 7 9.72549 7.24167 9.22549 7.725C8.74216 8.20833 8.50049 8.8 8.50049 9.5C8.50049 10.2 8.74216 10.8 9.22549 11.3C9.72549 11.7833 10.3255 12.025 11.0255 12.025ZM21.9005 11.9C21.0838 11.4 20.4088 10.7333 19.8755 9.9C19.3422 10.7333 18.6672 11.4 17.8505 11.9C18.6672 12.4 19.3422 13.0667 19.8755 13.9C20.4088 13.0667 21.0838 12.4 21.9005 11.9ZM24.0005 11.9C22.1338 12.7833 20.7588 14.1583 19.8755 16.025C18.9922 14.1583 17.6172 12.7833 15.7505 11.9C17.6172 11.0167 18.9922 9.64167 19.8755 7.775C20.7588 9.64167 22.1338 11.0167 24.0005 11.9ZM3.95049 14.475C3.45049 13.7583 3.05882 12.9833 2.77549 12.15C2.50882 11.3 2.37549 10.4167 2.37549 9.5C2.37549 7.93333 2.75882 6.5 3.52549 5.2C4.29216 3.9 5.33382 2.875 6.65049 2.125C7.96716 1.35833 9.41716 0.974999 11.0005 0.974999C12.6672 0.974999 14.1838 1.4 15.5505 2.25C16.9338 3.1 17.9755 4.21667 18.6755 5.6L17.4255 6.2C16.8255 5.03333 15.9505 4.1 14.8005 3.4C13.6672 2.68333 12.4005 2.325 11.0005 2.325C9.66716 2.325 8.45049 2.64167 7.35049 3.275C6.25049 3.90833 5.37549 4.775 4.72549 5.875C4.09216 6.975 3.77549 8.18333 3.77549 9.5C3.77549 11.0667 4.20882 12.4667 5.07549 13.7L3.95049 14.475ZM3.02549 19.825C3.02549 18.925 3.33382 18.1167 3.95049 17.4C4.56716 16.6833 5.47549 16.1167 6.67549 15.7C7.89216 15.2833 9.34216 15.075 11.0255 15.075C12.6922 15.075 14.1255 15.2833 15.3255 15.7C16.5422 16.1167 17.4588 16.6833 18.0755 17.4C18.7088 18.1167 19.0255 18.925 19.0255 19.825V22H3.02549V19.825ZM17.6255 20.65V19.825C17.6255 19.2083 17.3755 18.6417 16.8755 18.125C16.3755 17.6083 15.6255 17.2 14.6255 16.9C13.6255 16.6 12.4255 16.45 11.0255 16.45C9.60882 16.45 8.40049 16.6 7.40049 16.9C6.41716 17.2 5.67549 17.6083 5.17549 18.125C4.67549 18.6417 4.42549 19.2083 4.42549 19.825V20.65H17.6255Z" fill="black"/>
</g>
<defs>
<clipPath id="clip0_3206_14344">
<rect width="24" height="24" fill="white"/>
</clipPath>
</defs>
</svg>
