<svg width="24" height="24" viewBox="0 0 24 24" fill="none" xmlns="http://www.w3.org/2000/svg">
<g clip-path="url(#clip0_3206_14472)">
<rect width="24" height="24" fill="white"/>
<path d="M12.0005 13.25C11.3172 13.25 10.6838 13.0833 10.1005 12.75C9.53382 12.4167 9.08382 11.9667 8.75049 11.4C8.41716 10.8167 8.25049 10.1833 8.25049 9.5C8.25049 8.81667 8.41716 8.19167 8.75049 7.625C9.08382 7.05833 9.53382 6.60833 10.1005 6.275C10.6838 5.94167 11.3172 5.775 12.0005 5.775C12.6838 5.775 13.3088 5.94167 13.8755 6.275C14.4588 6.60833 14.9172 7.05833 15.2505 7.625C15.5838 8.19167 15.7505 8.81667 15.7505 9.5C15.7505 10.1833 15.5838 10.8167 15.2505 11.4C14.9172 11.9667 14.4588 12.4167 13.8755 12.75C13.3088 13.0833 12.6838 13.25 12.0005 13.25ZM12.0005 12.325C12.7838 12.325 13.4505 12.05 14.0005 11.5C14.5505 10.95 14.8255 10.2833 14.8255 9.5C14.8255 8.71667 14.5505 8.05 14.0005 7.5C13.4505 6.95 12.7838 6.675 12.0005 6.675C11.2172 6.675 10.5505 6.95 10.0005 7.5C9.45049 8.05 9.17549 8.71667 9.17549 9.5C9.17549 10.2833 9.45049 10.95 10.0005 11.5C10.5505 12.05 11.2172 12.325 12.0005 12.325ZM4.95049 14.475C4.43382 13.7583 4.04216 12.9833 3.77549 12.15C3.50882 11.3 3.37549 10.4167 3.37549 9.5C3.37549 7.93333 3.75882 6.5 4.52549 5.2C5.29216 3.9 6.33382 2.875 7.65049 2.125C8.96716 1.35833 10.4172 0.974999 12.0005 0.974999C13.5838 0.974999 15.0338 1.35833 16.3505 2.125C17.6672 2.875 18.7088 3.9 19.4755 5.2C20.2422 6.5 20.6255 7.93333 20.6255 9.5C20.6255 10.4333 20.4922 11.325 20.2255 12.175C19.9588 13.025 19.5672 13.8 19.0505 14.5L18.2755 13.95C18.7422 13.35 19.0922 12.6667 19.3255 11.9C19.5588 11.1333 19.6755 10.3333 19.6755 9.5C19.6755 8.1 19.3338 6.81667 18.6505 5.65C17.9838 4.48333 17.0588 3.56667 15.8755 2.9C14.7088 2.23333 13.4172 1.9 12.0005 1.9C10.5838 1.9 9.28382 2.23333 8.10049 2.9C6.93382 3.56667 6.00882 4.48333 5.32549 5.65C4.65882 6.81667 4.32549 8.1 4.32549 9.5C4.32549 11.1667 4.79216 12.65 5.72549 13.95L4.95049 14.475ZM4.00049 19.975C4.00049 19.0583 4.31716 18.2333 4.95049 17.5C5.58382 16.7667 6.50049 16.2 7.70049 15.8C8.91716 15.3833 10.3505 15.175 12.0005 15.175C13.6505 15.175 15.0755 15.3833 16.2755 15.8C17.4922 16.2 18.4172 16.7667 19.0505 17.5C19.6838 18.2333 20.0005 19.0583 20.0005 19.975V22H4.00049V19.975ZM19.0505 21.075V19.975C19.0505 19.2417 18.7755 18.575 18.2255 17.975C17.6755 17.375 16.8672 16.9083 15.8005 16.575C14.7338 16.2417 13.4672 16.075 12.0005 16.075C10.5338 16.075 9.26716 16.2417 8.20049 16.575C7.13382 16.9083 6.32549 17.375 5.77549 17.975C5.22549 18.575 4.95049 19.2417 4.95049 19.975V21.075H19.0505Z" fill="black"/>
</g>
<defs>
<clipPath id="clip0_3206_14472">
<rect width="24" height="24" fill="white"/>
</clipPath>
</defs>
</svg>
