<svg width="24" height="24" viewBox="0 0 24 24" fill="none" xmlns="http://www.w3.org/2000/svg">
<g clip-path="url(#clip0_3359_3921)">
<rect width="24" height="24" fill="white"/>
<path d="M6.15049 4.975C5.80049 5.40833 5.50049 5.90833 5.25049 6.475C5.01716 7.04167 4.84216 7.6 4.72549 8.15L3.35049 7.9C3.48382 7.23333 3.69216 6.575 3.97549 5.925C4.27549 5.25833 4.63382 4.65833 5.05049 4.125L6.15049 4.975ZM12.0005 13.35C11.2838 13.35 10.6255 13.1833 10.0255 12.85C9.44216 12.5 8.97549 12.0333 8.62549 11.45C8.29216 10.85 8.12549 10.2 8.12549 9.5C8.12549 8.8 8.29216 8.15833 8.62549 7.575C8.97549 6.975 9.44216 6.50833 10.0255 6.175C10.6255 5.825 11.2838 5.65 12.0005 5.65C12.7172 5.65 13.3672 5.825 13.9505 6.175C14.5505 6.50833 15.0172 6.975 15.3505 7.575C15.7005 8.15833 15.8755 8.8 15.8755 9.5C15.8755 10.2 15.7005 10.85 15.3505 11.45C15.0172 12.0333 14.5505 12.5 13.9505 12.85C13.3672 13.1833 12.7172 13.35 12.0005 13.35ZM12.0005 12.025C12.7005 12.025 13.2922 11.7833 13.7755 11.3C14.2588 10.8 14.5005 10.2 14.5005 9.5C14.5005 8.8 14.2588 8.20833 13.7755 7.725C13.2922 7.24167 12.7005 7 12.0005 7C11.3005 7 10.7088 7.24167 10.2255 7.725C9.74216 8.20833 9.50049 8.8 9.50049 9.5C9.50049 10.2 9.74216 10.8 10.2255 11.3C10.7088 11.7833 11.3005 12.025 12.0005 12.025ZM18.0755 13.625C18.3922 13.1417 18.6588 12.6083 18.8755 12.025C19.1088 11.425 19.2588 10.8417 19.3255 10.275L20.7255 10.4C20.6422 11.0833 20.4672 11.775 20.2005 12.475C19.9505 13.1583 19.6255 13.7917 19.2255 14.375L18.0755 13.625ZM10.9255 2.15C9.69216 2.33333 8.60882 2.78333 7.67549 3.5L6.82549 2.425C7.37549 2.00833 7.99216 1.65833 8.67549 1.375C9.35882 1.09167 10.0505 0.908332 10.7505 0.824999L10.9255 2.15ZM16.3505 3.5C15.8505 3.13333 15.3255 2.84167 14.7755 2.625C14.2255 2.39167 13.6422 2.23333 13.0255 2.15L13.2005 0.824999C13.9338 0.908332 14.6338 1.09167 15.3005 1.375C15.9838 1.64167 16.6172 1.99167 17.2005 2.425L16.3505 3.5ZM19.2755 8.15C19.1588 7.6 18.9755 7.04167 18.7255 6.475C18.4922 5.90833 18.2005 5.40833 17.8505 4.975L18.9505 4.125C19.3672 4.65833 19.7172 5.25833 20.0005 5.925C20.3005 6.575 20.5172 7.23333 20.6505 7.9L19.2755 8.15ZM4.67549 10.275C4.74216 10.8583 4.88382 11.4417 5.10049 12.025C5.33382 12.6083 5.60882 13.1417 5.92549 13.625L4.77549 14.375C4.37549 13.7917 4.04216 13.1583 3.77549 12.475C3.52549 11.775 3.35882 11.0833 3.27549 10.4L4.67549 10.275ZM4.00049 19.825C4.00049 18.925 4.30882 18.1167 4.92549 17.4C5.54216 16.6833 6.45049 16.1167 7.65049 15.7C8.86716 15.2833 10.3172 15.075 12.0005 15.075C13.6838 15.075 15.1255 15.2833 16.3255 15.7C17.5422 16.1167 18.4588 16.6833 19.0755 17.4C19.6922 18.1167 20.0005 18.925 20.0005 19.825V22H4.00049V19.825ZM18.6005 20.65V19.825C18.6005 19.2083 18.3505 18.6417 17.8505 18.125C17.3505 17.6083 16.6005 17.2 15.6005 16.9C14.6172 16.6 13.4172 16.45 12.0005 16.45C10.5838 16.45 9.37549 16.6 8.37549 16.9C7.39216 17.2 6.65049 17.6083 6.15049 18.125C5.65049 18.6417 5.40049 19.2083 5.40049 19.825V20.65H18.6005Z" fill="black"/>
</g>
<defs>
<clipPath id="clip0_3359_3921">
<rect width="24" height="24" fill="white"/>
</clipPath>
</defs>
</svg>
