<svg width="24" height="24" viewBox="0 0 24 24" fill="none" xmlns="http://www.w3.org/2000/svg">
<g clip-path="url(#clip0_3207_15154)">
<rect width="24" height="24" fill="white"/>
<path d="M3 19.975C3 19.025 3.31667 18.1833 3.95 17.45C4.6 16.7 5.525 16.1167 6.725 15.7C7.94167 15.2833 9.36667 15.075 11 15.075C12.6333 15.075 14.05 15.2833 15.25 15.7C16.4667 16.1167 17.3917 16.7 18.025 17.45C18.675 18.1833 19 19.025 19 19.975V22H3V19.975ZM11 13.125C10.3333 13.125 9.725 12.9667 9.175 12.65C8.625 12.3167 8.18333 11.875 7.85 11.325C7.53333 10.7583 7.375 10.15 7.375 9.5C7.375 8.85 7.53333 8.25 7.85 7.7C8.18333 7.15 8.625 6.71667 9.175 6.4C9.725 6.06667 10.3333 5.9 11 5.9C11.6667 5.9 12.275 6.06667 12.825 6.4C13.375 6.71667 13.8083 7.15 14.125 7.7C14.4583 8.25 14.625 8.85 14.625 9.5C14.625 10.15 14.4583 10.7583 14.125 11.325C13.8083 11.875 13.375 12.3167 12.825 12.65C12.275 12.9667 11.6667 13.125 11 13.125ZM18.25 8.075L19.925 9.875L21.575 8.05L23.375 9.875L21.575 11.55L23.375 13.225L21.575 15.025L19.9 13.225L18.225 15.025L16.425 13.225L18.2 11.55L16.425 9.875L18.25 8.075ZM3.95 14.475C3.45 13.7583 3.05833 12.9833 2.775 12.15C2.50833 11.3 2.375 10.4167 2.375 9.5C2.375 7.93333 2.75833 6.5 3.525 5.2C4.29167 3.9 5.33333 2.875 6.65 2.125C7.96667 1.35833 9.41667 0.974999 11 0.974999C12.65 0.974999 14.1583 1.39167 15.525 2.225C16.8917 3.04167 17.9333 4.15 18.65 5.55L16.25 6.775C15.75 5.825 15.0333 5.06667 14.1 4.5C13.1667 3.93333 12.1333 3.65 11 3.65C9.9 3.65 8.9 3.90833 8 4.425C7.1 4.94167 6.39167 5.65 5.875 6.55C5.35833 7.43333 5.1 8.41667 5.1 9.5C5.1 10.7667 5.45833 11.9083 6.175 12.925L3.95 14.475Z" fill="black"/>
</g>
<defs>
<clipPath id="clip0_3207_15154">
<rect width="24" height="24" fill="white"/>
</clipPath>
</defs>
</svg>
