<svg width="24" height="24" viewBox="0 0 24 24" fill="none" xmlns="http://www.w3.org/2000/svg">
<g clip-path="url(#clip0_3206_14204)">
<rect width="24" height="24" fill="white"/>
<path d="M11.0005 13.125C10.3338 13.125 9.72549 12.9667 9.17549 12.65C8.62549 12.3167 8.18382 11.875 7.85049 11.325C7.53382 10.7583 7.37549 10.15 7.37549 9.5C7.37549 8.85 7.53382 8.25 7.85049 7.7C8.18382 7.15 8.62549 6.71667 9.17549 6.4C9.72549 6.06667 10.3338 5.9 11.0005 5.9C11.6672 5.9 12.2755 6.06667 12.8255 6.4C13.3755 6.71667 13.8088 7.15 14.1255 7.7C14.4588 8.25 14.6255 8.85 14.6255 9.5C14.6255 10.15 14.4588 10.7583 14.1255 11.325C13.8088 11.875 13.3755 12.3167 12.8255 12.65C12.2755 12.9667 11.6672 13.125 11.0005 13.125ZM11.0005 12.625C11.8672 12.625 12.6005 12.325 13.2005 11.725C13.8172 11.1083 14.1255 10.3667 14.1255 9.5C14.1255 8.63333 13.8172 7.9 13.2005 7.3C12.6005 6.68333 11.8672 6.375 11.0005 6.375C10.1338 6.375 9.39216 6.68333 8.77549 7.3C8.17549 7.9 7.87549 8.63333 7.87549 9.5C7.87549 10.3667 8.17549 11.1083 8.77549 11.725C9.39216 12.325 10.1338 12.625 11.0005 12.625ZM17.0505 8.425L19.9005 11.275L22.7505 8.425L23.1005 8.775L20.2505 11.625L23.1005 14.475L22.7505 14.825L19.9005 11.975L17.0505 14.825L16.7005 14.475L19.5505 11.625L16.7005 8.775L17.0505 8.425ZM3.95049 14.5C3.43382 13.7833 3.04216 13 2.77549 12.15C2.50882 11.3 2.37549 10.4167 2.37549 9.5C2.37549 7.93333 2.75882 6.5 3.52549 5.2C4.29216 3.9 5.33382 2.875 6.65049 2.125C7.96716 1.35833 9.41716 0.974999 11.0005 0.974999C12.6672 0.974999 14.1922 1.4 15.5755 2.25C16.9588 3.1 18.0005 4.225 18.7005 5.625L18.2505 5.825C17.5838 4.50833 16.6005 3.45 15.3005 2.65C14.0172 1.85 12.5838 1.45 11.0005 1.45C9.50049 1.45 8.12549 1.80833 6.87549 2.525C5.64216 3.225 4.66716 4.19167 3.95049 5.425C3.23382 6.65833 2.87549 8.01667 2.87549 9.5C2.87549 11.2833 3.36716 12.8583 4.35049 14.225L3.95049 14.5ZM3.00049 20.15C3.00049 19.2 3.31716 18.3583 3.95049 17.625C4.60049 16.875 5.52549 16.2917 6.72549 15.875C7.94216 15.4583 9.36716 15.25 11.0005 15.25C12.6338 15.25 14.0505 15.4583 15.2505 15.875C16.4672 16.2917 17.3922 16.875 18.0255 17.625C18.6755 18.3583 19.0005 19.2 19.0005 20.15V22H3.00049V20.15ZM18.5005 21.525V20.15C18.5005 19.2833 18.2005 18.5167 17.6005 17.85C17.0005 17.1667 16.1338 16.6417 15.0005 16.275C13.8672 15.9083 12.5338 15.725 11.0005 15.725C9.46716 15.725 8.13382 15.9083 7.00049 16.275C5.86716 16.6417 5.00049 17.1667 4.40049 17.85C3.80049 18.5167 3.50049 19.2833 3.50049 20.15V21.525H18.5005Z" fill="black"/>
</g>
<defs>
<clipPath id="clip0_3206_14204">
<rect width="24" height="24" fill="white"/>
</clipPath>
</defs>
</svg>
