<svg width="24" height="24" viewBox="0 0 24 24" fill="none" xmlns="http://www.w3.org/2000/svg">
<g clip-path="url(#clip0_3206_14348)">
<rect width="24" height="24" fill="white"/>
<path d="M11.0255 13.525C10.2755 13.525 9.59216 13.35 8.97549 13C8.35882 12.6333 7.86716 12.1417 7.50049 11.525C7.15049 10.9083 6.97549 10.2333 6.97549 9.5C6.97549 8.76667 7.15049 8.09167 7.50049 7.475C7.86716 6.85833 8.35882 6.375 8.97549 6.025C9.59216 5.65833 10.2755 5.475 11.0255 5.475C11.7588 5.475 12.4338 5.65833 13.0505 6.025C13.6672 6.375 14.1505 6.85833 14.5005 7.475C14.8672 8.09167 15.0505 8.76667 15.0505 9.5C15.0505 10.2333 14.8672 10.9083 14.5005 11.525C14.1505 12.1417 13.6672 12.6333 13.0505 13C12.4338 13.35 11.7588 13.525 11.0255 13.525ZM11.0255 11.375C11.5588 11.375 12.0005 11.2 12.3505 10.85C12.7172 10.4833 12.9005 10.0333 12.9005 9.5C12.9005 8.96667 12.7172 8.525 12.3505 8.175C12.0005 7.80833 11.5588 7.625 11.0255 7.625C10.4922 7.625 10.0422 7.80833 9.67549 8.175C9.32549 8.525 9.15049 8.96667 9.15049 9.5C9.15049 10.0333 9.32549 10.4833 9.67549 10.85C10.0422 11.2 10.4922 11.375 11.0255 11.375ZM21.2005 11.9C20.9838 11.7167 20.7755 11.5333 20.5755 11.35C20.3755 11.15 20.1838 10.9417 20.0005 10.725C19.8172 10.9417 19.6172 11.15 19.4005 11.35C19.2005 11.5333 18.9922 11.7167 18.7755 11.9C18.9922 12.0833 19.2005 12.275 19.4005 12.475C19.6172 12.6583 19.8172 12.8583 20.0005 13.075C20.1838 12.8583 20.3755 12.6583 20.5755 12.475C20.7755 12.275 20.9838 12.0833 21.2005 11.9ZM24.2755 11.9C22.3088 12.7833 20.8838 14.2167 20.0005 16.2C19.1172 14.2167 17.6838 12.7833 15.7005 11.9C17.6838 11.0167 19.1172 9.58333 20.0005 7.6C20.8838 9.58333 22.3088 11.0167 24.2755 11.9ZM3.95049 14.45C3.45049 13.7333 3.05882 12.9583 2.77549 12.125C2.50882 11.2917 2.37549 10.4167 2.37549 9.5C2.37549 7.93333 2.75882 6.5 3.52549 5.2C4.29216 3.9 5.33382 2.875 6.65049 2.125C7.96716 1.35833 9.41716 0.974999 11.0005 0.974999C12.6505 0.974999 14.1588 1.4 15.5255 2.25C16.9088 3.08333 17.9588 4.19167 18.6755 5.575L16.6505 6.575C16.1172 5.55833 15.3505 4.74167 14.3505 4.125C13.3505 3.50833 12.2338 3.2 11.0005 3.2C9.83382 3.2 8.76716 3.48333 7.80049 4.05C6.83382 4.6 6.06716 5.35833 5.50049 6.325C4.93382 7.29167 4.65049 8.35 4.65049 9.5C4.65049 10.8667 5.03382 12.0917 5.80049 13.175L3.95049 14.45ZM3.02549 19.375C3.02549 18.4917 3.33382 17.7 3.95049 17C4.56716 16.3 5.47549 15.75 6.67549 15.35C7.89216 14.95 9.34216 14.75 11.0255 14.75C12.7088 14.75 14.1505 14.95 15.3505 15.35C16.5505 15.75 17.4588 16.3 18.0755 17C18.7088 17.7 19.0255 18.4917 19.0255 19.375V22H3.02549V19.375ZM16.7005 19.75V19.375C16.7005 18.975 16.4922 18.5917 16.0755 18.225C15.6588 17.8583 15.0172 17.5583 14.1505 17.325C13.3005 17.0917 12.2588 16.975 11.0255 16.975C9.79216 16.975 8.74216 17.0917 7.87549 17.325C7.02549 17.5583 6.38382 17.8583 5.95049 18.225C5.53382 18.5917 5.32549 18.975 5.32549 19.375V19.75H16.7005Z" fill="black"/>
</g>
<defs>
<clipPath id="clip0_3206_14348">
<rect width="24" height="24" fill="white"/>
</clipPath>
</defs>
</svg>
