<svg width="24" height="24" viewBox="0 0 24 24" fill="none" xmlns="http://www.w3.org/2000/svg">
<g clip-path="url(#clip0_3359_3931)">
<rect width="24" height="24" fill="white"/>
<path d="M4 20.15C4 19.2 4.31667 18.3583 4.95 17.625C5.6 16.875 6.525 16.2917 7.725 15.875C8.94167 15.4583 10.3667 15.25 12 15.25C13.6333 15.25 15.05 15.4583 16.25 15.875C17.4667 16.2917 18.3917 16.875 19.025 17.625C19.675 18.3583 20 19.2 20 20.15V22H4V20.15ZM18.65 13.925C18.9667 13.4583 19.25 12.925 19.5 12.325C19.7667 11.725 19.9333 11.1917 20 10.725L20.5 10.8C20.4167 11.3 20.2333 11.875 19.95 12.525C19.6833 13.1583 19.3917 13.7167 19.075 14.2L18.65 13.925ZM20 7.875C19.9 7.35833 19.725 6.8 19.475 6.2C19.225 5.6 18.95 5.08333 18.65 4.65L19.05 4.375C19.3667 4.84167 19.6583 5.39167 19.925 6.025C20.1917 6.64167 20.3833 7.225 20.5 7.775L20 7.875ZM16.65 2.65C16.1167 2.28333 15.5917 2 15.075 1.8C14.575 1.58333 14.0167 1.425 13.4 1.325L13.475 0.849999C14.1417 0.966666 14.75 1.13333 15.3 1.35C15.85 1.56667 16.3917 1.86667 16.925 2.25L16.65 2.65ZM10.6 1.325C9.3 1.54167 8.23333 1.98333 7.4 2.65L7.1 2.275C7.58333 1.90833 8.125 1.60833 8.725 1.375C9.34167 1.125 9.94167 0.949999 10.525 0.849999L10.6 1.325ZM5.35 4.65C5.05 5.08333 4.775 5.6 4.525 6.2C4.275 6.8 4.1 7.35833 4 7.875L3.5 7.775C3.61667 7.225 3.80833 6.64167 4.075 6.025C4.34167 5.39167 4.63333 4.84167 4.95 4.375L5.35 4.65ZM4 10.725C4.08333 11.225 4.25 11.7667 4.5 12.35C4.75 12.9333 5.03333 13.4583 5.35 13.925L4.925 14.2C4.60833 13.7 4.31667 13.1417 4.05 12.525C3.78333 11.9083 3.6 11.3333 3.5 10.8L4 10.725ZM12 13.125C11.3333 13.125 10.725 12.9667 10.175 12.65C9.625 12.3167 9.18333 11.875 8.85 11.325C8.53333 10.7583 8.375 10.15 8.375 9.5C8.375 8.85 8.53333 8.25 8.85 7.7C9.18333 7.15 9.625 6.71667 10.175 6.4C10.725 6.06667 11.3333 5.9 12 5.9C12.6667 5.9 13.275 6.06667 13.825 6.4C14.375 6.71667 14.8083 7.15 15.125 7.7C15.4583 8.25 15.625 8.85 15.625 9.5C15.625 10.15 15.4583 10.7583 15.125 11.325C14.8083 11.875 14.375 12.3167 13.825 12.65C13.275 12.9667 12.6667 13.125 12 13.125Z" fill="black"/>
</g>
<defs>
<clipPath id="clip0_3359_3931">
<rect width="24" height="24" fill="white"/>
</clipPath>
</defs>
</svg>
