<svg width="24" height="24" viewBox="0 0 24 24" fill="none" xmlns="http://www.w3.org/2000/svg">
<g clip-path="url(#clip0_3207_15142)">
<rect width="24" height="24" fill="white"/>
<path d="M11.0005 13.625C10.2338 13.625 9.53382 13.4417 8.90049 13.075C8.26716 12.7083 7.76716 12.2083 7.40049 11.575C7.03382 10.9417 6.85049 10.25 6.85049 9.5C6.85049 8.75 7.03382 8.05833 7.40049 7.425C7.76716 6.79167 8.26716 6.29167 8.90049 5.925C9.53382 5.55833 10.2338 5.375 11.0005 5.375C11.7672 5.375 12.4672 5.55833 13.1005 5.925C13.7338 6.29167 14.2338 6.79167 14.6005 7.425C14.9672 8.05833 15.1505 8.75 15.1505 9.5C15.1505 10.25 14.9672 10.9417 14.6005 11.575C14.2338 12.2083 13.7338 12.7083 13.1005 13.075C12.4672 13.4417 11.7672 13.625 11.0005 13.625ZM11.0005 10.725C11.3505 10.725 11.6422 10.6083 11.8755 10.375C12.1088 10.1417 12.2255 9.85 12.2255 9.5C12.2255 9.15 12.1088 8.85833 11.8755 8.625C11.6422 8.39167 11.3505 8.275 11.0005 8.275C10.6505 8.275 10.3588 8.39167 10.1255 8.625C9.89216 8.85833 9.77549 9.15 9.77549 9.5C9.77549 9.85 9.89216 10.1417 10.1255 10.375C10.3588 10.6083 10.6505 10.725 11.0005 10.725ZM18.4505 7.875L19.9255 9.5L21.3755 7.85L23.5005 9.975L21.8505 11.475L23.5005 12.975L21.3755 15.075L19.9005 13.45L18.4255 15.075L16.3005 12.95L17.9255 11.475L16.3005 10L18.4505 7.875ZM3.95049 14.475C3.45049 13.7583 3.05882 12.9833 2.77549 12.15C2.50882 11.3 2.37549 10.4167 2.37549 9.5C2.37549 7.93333 2.75882 6.5 3.52549 5.2C4.29216 3.9 5.33382 2.875 6.65049 2.125C7.96716 1.35833 9.41716 0.974999 11.0005 0.974999C12.6338 0.974999 14.1338 1.38333 15.5005 2.2C16.8672 3.01667 17.9172 4.125 18.6505 5.525L15.8505 6.95C15.4005 6.08333 14.7422 5.39167 13.8755 4.875C13.0088 4.34167 12.0505 4.075 11.0005 4.075C9.98382 4.075 9.05882 4.31667 8.22549 4.8C7.39216 5.28333 6.73382 5.94167 6.25049 6.775C5.76716 7.59167 5.52549 8.5 5.52549 9.5C5.52549 10.6833 5.85882 11.7417 6.52549 12.675L3.95049 14.475ZM3.00049 18.85C3.00049 17.9167 3.32549 17.1083 3.97549 16.425C4.62549 15.725 5.55049 15.1917 6.75049 14.825C7.95049 14.4417 9.36716 14.25 11.0005 14.25C12.6338 14.25 14.0505 14.4417 15.2505 14.825C16.4505 15.1917 17.3755 15.725 18.0255 16.425C18.6755 17.1083 19.0005 17.9167 19.0005 18.85V22H3.00049V18.85ZM15.7505 18.85V18.8C15.7505 18.5833 15.5672 18.3667 15.2005 18.15C14.8338 17.9333 14.2922 17.75 13.5755 17.6C12.8588 17.45 12.0005 17.375 11.0005 17.375C10.0005 17.375 9.14216 17.45 8.42549 17.6C7.70882 17.75 7.15882 17.9333 6.77549 18.15C6.40882 18.3667 6.22549 18.5833 6.22549 18.8V18.85H15.7505Z" fill="black"/>
</g>
<defs>
<clipPath id="clip0_3207_15142">
<rect width="24" height="24" fill="white"/>
</clipPath>
</defs>
</svg>
