<svg width="24" height="24" viewBox="0 0 24 24" fill="none" xmlns="http://www.w3.org/2000/svg">
<g clip-path="url(#clip0_3207_20467)">
<rect width="24" height="24" fill="white"/>
<path d="M5.17598 21C4.59264 21 4.05931 20.8667 3.57598 20.6C3.09264 20.3167 2.70931 19.9333 2.42598 19.45C2.14264 18.95 2.00098 18.4167 2.00098 17.85V8.825C2.00098 8.24167 2.14264 7.70833 2.42598 7.225C2.70931 6.74167 3.09264 6.36667 3.57598 6.1C4.05931 5.81667 4.59264 5.675 5.17598 5.675H7.27598L8.25098 3H15.801L16.776 5.675H18.826C19.4093 5.675 19.9426 5.81667 20.426 6.1C20.9093 6.36667 21.2926 6.74167 21.576 7.225C21.8593 7.70833 22.001 8.24167 22.001 8.825V17.85C22.001 18.4167 21.8593 18.95 21.576 19.45C21.2926 19.9333 20.9093 20.3167 20.426 20.6C19.9426 20.8667 19.4093 21 18.826 21H5.17598ZM18.801 18.625C19.0176 18.625 19.201 18.55 19.351 18.4C19.501 18.2333 19.576 18.0417 19.576 17.825V8.875C19.576 8.64167 19.501 8.44167 19.351 8.275C19.201 8.10833 19.0176 8.025 18.801 8.025H15.126L14.176 5.35H9.90098L8.92598 8.025H5.20098C4.98431 8.025 4.80098 8.10833 4.65098 8.275C4.50098 8.44167 4.42598 8.64167 4.42598 8.875V17.825C4.42598 18.0417 4.50098 18.2333 4.65098 18.4C4.80098 18.55 4.98431 18.625 5.20098 18.625H18.801ZM12.001 16.4C11.351 16.4 10.751 16.2417 10.201 15.925C9.65098 15.6083 9.21764 15.1833 8.90098 14.65C8.58431 14.1167 8.42598 13.525 8.42598 12.875C8.42598 12.225 8.58431 11.6333 8.90098 11.1C9.21764 10.55 9.65098 10.1167 10.201 9.8C10.751 9.48333 11.351 9.325 12.001 9.325C12.651 9.325 13.251 9.48333 13.801 9.8C14.351 10.1167 14.7843 10.55 15.101 11.1C15.4176 11.6333 15.576 12.225 15.576 12.875C15.576 13.525 15.4176 14.1167 15.101 14.65C14.7843 15.1833 14.351 15.6083 13.801 15.925C13.251 16.2417 12.651 16.4 12.001 16.4ZM12.001 14.35C12.4176 14.35 12.7676 14.2083 13.051 13.925C13.351 13.625 13.501 13.275 13.501 12.875C13.501 12.4583 13.351 12.1 13.051 11.8C12.7676 11.5 12.4176 11.35 12.001 11.35C11.5843 11.35 11.226 11.5 10.926 11.8C10.6426 12.0833 10.501 12.4333 10.501 12.85C10.501 13.2667 10.6426 13.625 10.926 13.925C11.226 14.2083 11.5843 14.35 12.001 14.35Z" fill="black"/>
</g>
<defs>
<clipPath id="clip0_3207_20467">
<rect width="24" height="24" fill="white"/>
</clipPath>
</defs>
</svg>
