<svg width="24" height="24" viewBox="0 0 24 24" fill="none" xmlns="http://www.w3.org/2000/svg">
<g clip-path="url(#clip0_3207_20465)">
<rect width="24" height="24" fill="white"/>
<path d="M5.00098 21C4.45098 21 3.94264 20.8667 3.47598 20.6C3.02598 20.3333 2.66764 19.975 2.40098 19.525C2.13431 19.0583 2.00098 18.55 2.00098 18V9C2.00098 8.45 2.13431 7.95 2.40098 7.5C2.66764 7.03333 3.02598 6.66667 3.47598 6.4C3.94264 6.13333 4.45098 6 5.00098 6H7.30098L8.37598 3H15.726L16.801 6H19.001C19.551 6 20.051 6.13333 20.501 6.4C20.9676 6.66667 21.3343 7.03333 21.601 7.5C21.8676 7.95 22.001 8.45 22.001 9V18C22.001 18.55 21.8676 19.0583 21.601 19.525C21.3343 19.975 20.9676 20.3333 20.501 20.6C20.051 20.8667 19.551 21 19.001 21H5.00098ZM19.001 19.2C19.3176 19.2 19.5843 19.0833 19.801 18.85C20.0343 18.6167 20.151 18.3333 20.151 18V9C20.151 8.66667 20.0343 8.38333 19.801 8.15C19.5843 7.91667 19.3176 7.8 19.001 7.8H15.551L14.476 4.8H9.62598L8.55098 7.8H5.00098C4.68431 7.8 4.40931 7.91667 4.17598 8.15C3.95931 8.38333 3.85098 8.66667 3.85098 9V18C3.85098 18.3333 3.95931 18.6167 4.17598 18.85C4.40931 19.0833 4.68431 19.2 5.00098 19.2H19.001ZM12.001 16.675C11.3176 16.675 10.6843 16.5083 10.101 16.175C9.53431 15.8417 9.08431 15.3917 8.75098 14.825C8.41764 14.2583 8.25098 13.6333 8.25098 12.95C8.25098 12.2667 8.41764 11.6417 8.75098 11.075C9.08431 10.5083 9.53431 10.0583 10.101 9.725C10.6843 9.39167 11.3176 9.225 12.001 9.225C12.6843 9.225 13.3093 9.39167 13.876 9.725C14.4593 10.0583 14.9176 10.5083 15.251 11.075C15.5843 11.6417 15.751 12.2667 15.751 12.95C15.751 13.6333 15.5843 14.2583 15.251 14.825C14.9176 15.3917 14.4593 15.8417 13.876 16.175C13.3093 16.5083 12.6843 16.675 12.001 16.675ZM12.001 14.875C12.5343 14.875 12.9843 14.6917 13.351 14.325C13.7343 13.9417 13.926 13.4833 13.926 12.95C13.926 12.4167 13.7343 11.9667 13.351 11.6C12.9843 11.2167 12.5343 11.025 12.001 11.025C11.4676 11.025 11.0093 11.2167 10.626 11.6C10.2593 11.9667 10.076 12.4167 10.076 12.95C10.076 13.4833 10.2593 13.9417 10.626 14.325C11.0093 14.6917 11.4676 14.875 12.001 14.875Z" fill="black"/>
</g>
<defs>
<clipPath id="clip0_3207_20465">
<rect width="24" height="24" fill="white"/>
</clipPath>
</defs>
</svg>
