<svg width="24" height="24" viewBox="0 0 24 24" fill="none" xmlns="http://www.w3.org/2000/svg">
<g clip-path="url(#clip0_3207_20461)">
<rect width="24" height="24" fill="white"/>
<path d="M4.67598 21C4.17598 21 3.72598 20.8833 3.32598 20.65C2.92598 20.4 2.60098 20.075 2.35098 19.675C2.11764 19.275 2.00098 18.825 2.00098 18.325V8.675C2.00098 8.175 2.11764 7.725 2.35098 7.325C2.60098 6.925 2.92598 6.60833 3.32598 6.375C3.72598 6.14167 4.17598 6.025 4.67598 6.025H7.50098L8.60098 3H15.426L16.526 6.025H19.326C19.826 6.025 20.276 6.14167 20.676 6.375C21.076 6.60833 21.3926 6.925 21.626 7.325C21.876 7.725 22.001 8.175 22.001 8.675V18.325C22.001 18.825 21.876 19.275 21.626 19.675C21.3926 20.075 21.076 20.4 20.676 20.65C20.276 20.8833 19.826 21 19.326 21H4.67598ZM19.326 20.075C19.8093 20.075 20.2176 19.9083 20.551 19.575C20.8843 19.2417 21.051 18.825 21.051 18.325V8.675C21.051 8.175 20.8843 7.75833 20.551 7.425C20.2176 7.09167 19.8093 6.925 19.326 6.925H15.876L14.776 3.925H9.25098L8.15098 6.925H4.67598C4.19264 6.925 3.78431 7.09167 3.45098 7.425C3.11764 7.75833 2.95098 8.175 2.95098 8.675V18.325C2.95098 18.825 3.11764 19.2417 3.45098 19.575C3.78431 19.9083 4.19264 20.075 4.67598 20.075H19.326ZM12.001 16.55C11.351 16.55 10.751 16.3917 10.201 16.075C9.65098 15.7583 9.21764 15.325 8.90098 14.775C8.58431 14.225 8.42598 13.625 8.42598 12.975C8.42598 12.325 8.58431 11.725 8.90098 11.175C9.21764 10.625 9.65098 10.1917 10.201 9.875C10.751 9.55833 11.351 9.4 12.001 9.4C12.651 9.4 13.251 9.55833 13.801 9.875C14.351 10.1917 14.7843 10.625 15.101 11.175C15.4176 11.725 15.576 12.325 15.576 12.975C15.576 13.625 15.4176 14.225 15.101 14.775C14.7843 15.325 14.351 15.7583 13.801 16.075C13.251 16.3917 12.651 16.55 12.001 16.55ZM12.001 15.65C12.7343 15.65 13.3593 15.3917 13.876 14.875C14.3926 14.3583 14.651 13.725 14.651 12.975C14.651 12.2417 14.3926 11.6167 13.876 11.1C13.3593 10.5833 12.7343 10.325 12.001 10.325C11.2676 10.325 10.6426 10.5833 10.126 11.1C9.60931 11.6167 9.35098 12.2417 9.35098 12.975C9.35098 13.725 9.60931 14.3583 10.126 14.875C10.6426 15.3917 11.2676 15.65 12.001 15.65Z" fill="black"/>
</g>
<defs>
<clipPath id="clip0_3207_20461">
<rect width="24" height="24" fill="white"/>
</clipPath>
</defs>
</svg>
