<svg width="24" height="24" viewBox="0 0 24 24" fill="none" xmlns="http://www.w3.org/2000/svg">
<g clip-path="url(#clip0_3207_19620)">
<rect width="24" height="24" fill="white"/>
<path d="M13.4755 2V12H10.5255V2H13.4755ZM22.0005 12C22.0005 13.8333 21.5505 15.5167 20.6505 17.05C19.7672 18.5667 18.5588 19.775 17.0255 20.675C15.5088 21.5583 13.8338 22 12.0005 22C10.1672 22 8.48382 21.5583 6.95049 20.675C5.43382 19.775 4.22549 18.5667 3.32549 17.05C2.44216 15.5167 2.00049 13.8333 2.00049 12C2.00049 10.1833 2.45049 8.50833 3.35049 6.975C4.25049 5.44167 5.45882 4.23333 6.97549 3.35L8.45049 5.85C7.46716 6.43333 6.64216 7.26667 5.97549 8.35C5.30882 9.43333 4.97549 10.6417 4.97549 11.975C4.97549 13.2417 5.29216 14.425 5.92549 15.525C6.55882 16.6083 7.40882 17.475 8.47549 18.125C9.55882 18.7583 10.7338 19.075 12.0005 19.075C13.2672 19.075 14.4338 18.7583 15.5005 18.125C16.5838 17.475 17.4422 16.6083 18.0755 15.525C18.7088 14.4417 19.0255 13.2667 19.0255 12H22.0005ZM20.2755 3.8L20.8255 4.15L21.9005 3.55L22.9005 5.325L21.8505 5.95L21.8755 6.55L22.9005 7.175L21.9005 8.95L20.8505 8.325L20.2755 8.7V9.875H18.2255V8.7L17.6755 8.35L16.6005 8.95L15.6005 7.175L16.6505 6.55L16.6255 5.95L15.6005 5.325L16.6005 3.55L17.6505 4.175L18.2255 3.8V2.625H20.2755V3.8ZM19.2505 7.225C19.5338 7.225 19.7672 7.13333 19.9505 6.95C20.1338 6.75 20.2255 6.51667 20.2255 6.25C20.2255 5.96667 20.1338 5.73333 19.9505 5.55C19.7672 5.36667 19.5338 5.275 19.2505 5.275C18.9838 5.275 18.7505 5.36667 18.5505 5.55C18.3672 5.73333 18.2755 5.96667 18.2755 6.25C18.2755 6.51667 18.3672 6.75 18.5505 6.95C18.7505 7.13333 18.9838 7.225 19.2505 7.225Z" fill="black"/>
</g>
<defs>
<clipPath id="clip0_3207_19620">
<rect width="24" height="24" fill="white"/>
</clipPath>
</defs>
</svg>
