<svg width="24" height="24" viewBox="0 0 24 24" fill="none" xmlns="http://www.w3.org/2000/svg">
<g clip-path="url(#clip0_3207_20439)">
<rect width="24" height="24" fill="white"/>
<path d="M12.976 2V12H11.026V2H12.976ZM17.026 3.35C18.5426 4.23333 19.751 5.44167 20.651 6.975C21.551 8.50833 22.001 10.1833 22.001 12C22.001 13.8333 21.5593 15.5167 20.676 17.05C19.7926 18.5833 18.5843 19.7917 17.051 20.675C15.5176 21.5583 13.8343 22 12.001 22C10.1676 22 8.48431 21.5583 6.95098 20.675C5.41764 19.7917 4.20931 18.5833 3.32598 17.05C2.44264 15.5167 2.00098 13.8333 2.00098 12C2.00098 10.1833 2.45098 8.50833 3.35098 6.975C4.25098 5.44167 5.45931 4.23333 6.97598 3.35L7.97598 4.975C6.75931 5.70833 5.78431 6.7 5.05098 7.95C4.31764 9.18333 3.95098 10.5333 3.95098 12C3.95098 13.4833 4.30931 14.85 5.02598 16.1C5.74264 17.3333 6.70931 18.3083 7.92598 19.025C9.15931 19.7417 10.5176 20.1 12.001 20.1C13.4843 20.1 14.8343 19.7417 16.051 19.025C17.2843 18.3083 18.2593 17.3333 18.976 16.1C19.6926 14.85 20.051 13.4833 20.051 12C20.051 10.5333 19.6843 9.18333 18.951 7.95C18.2176 6.7 17.2426 5.70833 16.026 4.975L17.026 3.35Z" fill="black"/>
</g>
<defs>
<clipPath id="clip0_3207_20439">
<rect width="24" height="24" fill="white"/>
</clipPath>
</defs>
</svg>
