<svg width="24" height="24" viewBox="0 0 24 24" fill="none" xmlns="http://www.w3.org/2000/svg">
<g clip-path="url(#clip0_3207_19608)">
<rect width="24" height="24" fill="white"/>
<path d="M13.751 2V12H10.251V2H13.751ZM22.001 12C22.001 13.8333 21.5593 15.5167 20.676 17.05C19.7926 18.5833 18.5843 19.7917 17.051 20.675C15.5176 21.5583 13.8343 22 12.001 22C10.1676 22 8.48431 21.5583 6.95098 20.675C5.41764 19.7917 4.20931 18.5833 3.32598 17.05C2.44264 15.5167 2.00098 13.8333 2.00098 12C2.00098 10.1833 2.45098 8.50833 3.35098 6.975C4.25098 5.44167 5.45931 4.23333 6.97598 3.35L8.72598 6.325C7.85931 6.825 7.10098 7.575 6.45098 8.575C5.81764 9.575 5.50098 10.7083 5.50098 11.975C5.50098 13.125 5.79264 14.2083 6.37598 15.225C6.97598 16.2417 7.77598 17.05 8.77598 17.65C9.77598 18.25 10.851 18.55 12.001 18.55C13.151 18.55 14.226 18.25 15.226 17.65C16.226 17.05 17.0176 16.25 17.601 15.25C18.201 14.2333 18.501 13.15 18.501 12H22.001ZM17.976 8.85C17.926 8.8 17.876 8.75833 17.826 8.725C17.7593 8.69167 17.701 8.65833 17.651 8.625L16.601 9.225L15.376 7.075L16.351 6.425C16.351 6.34167 16.351 6.28333 16.351 6.25C16.351 6.21667 16.351 6.15833 16.351 6.075L15.376 5.425L16.601 3.325L17.626 3.925C17.6926 3.875 17.751 3.825 17.801 3.775C17.851 3.75833 17.9093 3.71667 17.976 3.65V2.5H20.501V3.65C20.551 3.68333 20.601 3.71667 20.651 3.75C20.701 3.78333 20.751 3.825 20.801 3.875L21.876 3.275L23.126 5.425L22.101 6.075C22.101 6.15833 22.101 6.21667 22.101 6.25C22.101 6.28333 22.101 6.34167 22.101 6.425L23.126 7.075L21.876 9.175L20.876 8.575C20.7593 8.65833 20.6343 8.75 20.501 8.85V10H17.976V8.85ZM19.251 7.1C19.4843 7.1 19.6843 7.01667 19.851 6.85C20.0176 6.66667 20.101 6.46667 20.101 6.25C20.101 6.01667 20.0176 5.81667 19.851 5.65C19.6843 5.48333 19.4843 5.4 19.251 5.4C19.0176 5.4 18.8176 5.48333 18.651 5.65C18.4843 5.81667 18.401 6.01667 18.401 6.25C18.401 6.48333 18.4843 6.68333 18.651 6.85C18.8176 7.01667 19.0176 7.1 19.251 7.1Z" fill="black"/>
</g>
<defs>
<clipPath id="clip0_3207_19608">
<rect width="24" height="24" fill="white"/>
</clipPath>
</defs>
</svg>
