<svg width="24" height="24" viewBox="0 0 24 24" fill="none" xmlns="http://www.w3.org/2000/svg">
<g clip-path="url(#clip0_3207_19610)">
<rect width="24" height="24" fill="white"/>
<path d="M12.2505 2V12H11.7505V2H12.2505ZM22.0005 12C22.0005 13.8167 21.5505 15.4917 20.6505 17.025C19.7505 18.5417 18.5338 19.75 17.0005 20.65C15.4838 21.55 13.8172 22 12.0005 22C10.1838 22 8.50882 21.5583 6.97549 20.675C5.44216 19.775 4.22549 18.5583 3.32549 17.025C2.44216 15.4917 2.00049 13.8167 2.00049 12C2.00049 10.1833 2.45049 8.50833 3.35049 6.975C4.25049 5.44167 5.45882 4.23333 6.97549 3.35L7.22549 3.775C5.75882 4.625 4.60049 5.78333 3.75049 7.25C2.91716 8.7 2.50049 10.2833 2.50049 12C2.50049 13.7333 2.92549 15.3333 3.77549 16.8C4.62549 18.25 5.77549 19.4 7.22549 20.25C8.67549 21.1 10.2672 21.525 12.0005 21.525C13.7172 21.525 15.3005 21.1 16.7505 20.25C18.2172 19.3833 19.3755 18.225 20.2255 16.775C21.0755 15.3083 21.5005 13.7167 21.5005 12H22.0005ZM20.0755 3.875L20.8755 4.35L21.9755 3.725L22.8005 5.15L21.6755 5.775L21.7005 6.7L22.8005 7.325L21.9755 8.775L20.8755 8.15L20.0755 8.625V9.875H18.4255V8.625L17.6255 8.15L16.5255 8.775L15.7005 7.35L16.8255 6.725L16.8005 5.8L15.7005 5.175L16.5255 3.725L17.6255 4.35L18.4255 3.875V2.625H20.0755V3.875ZM19.2505 7.375C19.5838 7.375 19.8505 7.26667 20.0505 7.05C20.2672 6.83333 20.3755 6.56667 20.3755 6.25C20.3755 5.91667 20.2672 5.65 20.0505 5.45C19.8505 5.23333 19.5838 5.125 19.2505 5.125C18.9338 5.125 18.6672 5.23333 18.4505 5.45C18.2338 5.65 18.1255 5.91667 18.1255 6.25C18.1255 6.56667 18.2338 6.83333 18.4505 7.05C18.6672 7.26667 18.9338 7.375 19.2505 7.375Z" fill="black"/>
</g>
<defs>
<clipPath id="clip0_3207_19610">
<rect width="24" height="24" fill="white"/>
</clipPath>
</defs>
</svg>
