<svg width="24" height="24" viewBox="0 0 24 24" fill="none" xmlns="http://www.w3.org/2000/svg">
<g clip-path="url(#clip0_3207_18446)">
<rect width="24" height="24" fill="white"/>
<path d="M12.251 2V12H11.751V2H12.251ZM22.001 12C22.001 13.8167 21.551 15.4917 20.651 17.025C19.751 18.5417 18.5343 19.75 17.001 20.65C15.4843 21.55 13.8176 22 12.001 22C10.1843 22 8.50931 21.5583 6.97598 20.675C5.44264 19.775 4.22598 18.5583 3.32598 17.025C2.44264 15.4917 2.00098 13.8167 2.00098 12C2.00098 10.1833 2.45098 8.50833 3.35098 6.975C4.25098 5.44167 5.45931 4.23333 6.97598 3.35L7.22598 3.775C5.75931 4.625 4.60098 5.78333 3.75098 7.25C2.91764 8.7 2.50098 10.2833 2.50098 12C2.50098 13.7333 2.92598 15.3333 3.77598 16.8C4.62598 18.25 5.77598 19.4 7.22598 20.25C8.67598 21.1 10.2676 21.525 12.001 21.525C13.7176 21.525 15.301 21.1 16.751 20.25C18.2176 19.3833 19.376 18.225 20.226 16.775C21.076 15.3083 21.501 13.7167 21.501 12H22.001ZM19.001 8.4C18.701 8.36667 18.4093 8.275 18.126 8.125C17.8426 7.975 17.601 7.775 17.401 7.525L16.226 8.2L15.976 7.775L17.176 7.125C17.0593 6.825 17.001 6.50833 17.001 6.175C17.001 5.825 17.0593 5.5 17.176 5.2L15.976 4.525L16.226 4.1L17.401 4.775C17.601 4.525 17.8426 4.325 18.126 4.175C18.4093 4.025 18.701 3.93333 19.001 3.9V2.525H19.501V3.9C20.151 3.98333 20.676 4.275 21.076 4.775L22.276 4.1L22.526 4.525L21.326 5.175C21.4593 5.475 21.526 5.8 21.526 6.15C21.526 6.48333 21.4593 6.8 21.326 7.1L22.526 7.775L22.276 8.2L21.076 7.525C20.6926 8.025 20.1676 8.31667 19.501 8.4V9.775H19.001V8.4ZM19.251 7.9C19.7343 7.9 20.1426 7.73333 20.476 7.4C20.826 7.05 21.001 6.63333 21.001 6.15C21.001 5.66667 20.826 5.25833 20.476 4.925C20.1426 4.575 19.7343 4.4 19.251 4.4C18.7676 4.4 18.351 4.575 18.001 4.925C17.6676 5.25833 17.501 5.66667 17.501 6.15C17.501 6.63333 17.6676 7.05 18.001 7.4C18.351 7.73333 18.7676 7.9 19.251 7.9Z" fill="black"/>
</g>
<defs>
<clipPath id="clip0_3207_18446">
<rect width="24" height="24" fill="white"/>
</clipPath>
</defs>
</svg>
