<svg width="24" height="24" viewBox="0 0 24 24" fill="none" xmlns="http://www.w3.org/2000/svg">
<g clip-path="url(#clip0_3207_19618)">
<rect width="24" height="24" fill="white"/>
<path d="M13.2255 2V12H10.7755V2H13.2255ZM22.0005 12C22.0005 13.8167 21.5505 15.4917 20.6505 17.025C19.7672 18.5583 18.5588 19.775 17.0255 20.675C15.4922 21.5583 13.8172 22 12.0005 22C10.1838 22 8.50882 21.5583 6.97549 20.675C5.44216 19.775 4.22549 18.5583 3.32549 17.025C2.44216 15.4917 2.00049 13.8167 2.00049 12C2.00049 10.1833 2.45049 8.50833 3.35049 6.975C4.25049 5.44167 5.45882 4.23333 6.97549 3.35L8.20049 5.4C7.10049 6.05 6.19216 6.96667 5.47549 8.15C4.77549 9.31667 4.42549 10.6 4.42549 12C4.42549 13.3833 4.75882 14.6583 5.42549 15.825C6.10882 16.9917 7.03382 17.9167 8.20049 18.6C9.36716 19.2833 10.6338 19.625 12.0005 19.625C13.3672 19.625 14.6338 19.2833 15.8005 18.6C16.9672 17.9167 17.8838 16.9917 18.5505 15.825C19.2338 14.6583 19.5755 13.3833 19.5755 12H22.0005ZM20.1755 3.85L20.8505 4.25L21.9255 3.625L22.8505 5.225L21.7755 5.85V6.625L22.8505 7.25L21.9255 8.85L20.8505 8.25L20.1755 8.65V9.875H18.3255V8.65L17.6505 8.25L16.5755 8.875L15.6505 7.275L16.7255 6.65V5.875L15.6505 5.25L16.5755 3.65L17.6505 4.25L18.3255 3.85V2.625H20.1755V3.85ZM19.2505 7.3C19.5505 7.3 19.8005 7.2 20.0005 7C20.2005 6.8 20.3005 6.55 20.3005 6.25C20.3005 5.95 20.2005 5.7 20.0005 5.5C19.8005 5.3 19.5505 5.2 19.2505 5.2C18.9505 5.2 18.7005 5.3 18.5005 5.5C18.3005 5.7 18.2005 5.95 18.2005 6.25C18.2005 6.55 18.3005 6.8 18.5005 7C18.7005 7.2 18.9505 7.3 19.2505 7.3Z" fill="black"/>
</g>
<defs>
<clipPath id="clip0_3207_19618">
<rect width="24" height="24" fill="white"/>
</clipPath>
</defs>
</svg>
