<svg width="24" height="24" viewBox="0 0 24 24" fill="none" xmlns="http://www.w3.org/2000/svg">
<g clip-path="url(#clip0_3340_11091)">
<rect width="24" height="24" fill="white"/>
<path d="M18.826 7.175C19.4093 7.175 19.9426 7.31667 20.426 7.6C20.9093 7.86667 21.2926 8.25 21.576 8.75C21.8593 9.23333 22.001 9.75833 22.001 10.325V19H17.676V21H6.32598V19H2.00098V10.325C2.00098 9.75833 2.14264 9.23333 2.42598 8.75C2.70931 8.25 3.09264 7.86667 3.57598 7.6C4.05931 7.31667 4.59264 7.175 5.17598 7.175H6.32598V3H17.676V7.175H18.826ZM9.07598 7.2H14.926V5.675H9.07598V7.2ZM14.926 16.45H9.07598V18.325H14.926V16.45ZM19.201 10.4C19.201 10.2667 19.1593 10.1583 19.076 10.075C18.9926 9.975 18.8926 9.925 18.776 9.925H5.22598C5.10931 9.925 5.00931 9.975 4.92598 10.075C4.84264 10.1583 4.80098 10.2667 4.80098 10.4V16.25H6.32598V13.775H17.676V16.25H19.201V10.4ZM7.35098 8.45C7.66764 8.45 7.90098 8.45 8.05098 8.45C8.21764 8.45 8.45931 8.45 8.77598 8.45C8.44264 8.45 8.20098 8.45 8.05098 8.45C7.90098 8.45 7.66764 8.45 7.35098 8.45C7.03431 8.45 6.79264 8.45 6.62598 8.45C6.47598 8.45 6.24264 8.45 5.92598 8.45C6.25931 8.45 6.50098 8.45 6.65098 8.45C6.80098 8.45 7.03431 8.45 7.35098 8.45Z" fill="black"/>
</g>
<defs>
<clipPath id="clip0_3340_11091">
<rect width="24" height="24" fill="white"/>
</clipPath>
</defs>
</svg>
