<svg width="24" height="24" viewBox="0 0 24 24" fill="none" xmlns="http://www.w3.org/2000/svg">
<g clip-path="url(#clip0_3208_22299)">
<rect width="24" height="24" fill="white"/>
<path d="M19.001 7C19.551 7 20.051 7.13333 20.501 7.4C20.9676 7.66667 21.3343 8.03333 21.601 8.5C21.8676 8.95 22.001 9.45 22.001 10V19H18.001V21H6.00098V19H2.00098V10C2.00098 9.45 2.13431 8.95 2.40098 8.5C2.66764 8.03333 3.02598 7.66667 3.47598 7.4C3.94264 7.13333 4.45098 7 5.00098 7H6.00098V3H18.001V7H19.001ZM7.75098 7H16.251V4.7H7.75098V7ZM16.251 16.7H7.75098V19.3H16.251V16.7ZM20.151 10C20.151 9.63333 20.0426 9.34167 19.826 9.125C19.6093 8.90833 19.3343 8.8 19.001 8.8H5.00098C4.66764 8.8 4.39264 8.90833 4.17598 9.125C3.95931 9.34167 3.85098 9.63333 3.85098 10V17.25H6.00098V15H18.001V17.25H20.151V10ZM7.00098 10.475C7.38431 10.475 7.70931 10.6083 7.97598 10.875C8.25931 11.1417 8.40098 11.4667 8.40098 11.85C8.40098 12.2333 8.25931 12.5583 7.97598 12.825C7.70931 13.0917 7.38431 13.225 7.00098 13.225C6.61764 13.225 6.29264 13.0917 6.02598 12.825C5.77598 12.5583 5.65098 12.2333 5.65098 11.85C5.65098 11.4667 5.78431 11.1417 6.05098 10.875C6.31764 10.6083 6.63431 10.475 7.00098 10.475Z" fill="black"/>
</g>
<defs>
<clipPath id="clip0_3208_22299">
<rect width="24" height="24" fill="white"/>
</clipPath>
</defs>
</svg>
