<svg width="24" height="24" viewBox="0 0 24 24" fill="none" xmlns="http://www.w3.org/2000/svg">
<g clip-path="url(#clip0_3208_22291)">
<rect width="24" height="24" fill="white"/>
<path d="M7.27549 5.75V2H10.1755V5.75H7.27549ZM13.8255 5.7V2H16.7255V5.7H13.8255ZM7.27549 22V18.4H10.1755V22H7.27549ZM13.8255 22V18.4H16.7255V22H13.8255ZM22.0005 16.725H18.6755V13.825H22.0005V16.725ZM22.0005 10.175H18.6005V7.275H22.0005V10.175ZM5.55049 16.725H2.00049V13.825H5.55049V16.725ZM5.55049 10.175H2.00049V7.275H5.55049V10.175ZM19.1505 19.15C18.6005 19.7167 17.8838 20 17.0005 20H7.00049C6.13382 20 5.41716 19.7167 4.85049 19.15C4.28382 18.5833 4.00049 17.8667 4.00049 17V7C4.00049 6.11667 4.28382 5.4 4.85049 4.85C5.41716 4.28333 6.13382 4 7.00049 4H17.0005C17.8838 4 18.6005 4.28333 19.1505 4.85C19.7172 5.4 20.0005 6.11667 20.0005 7V17C20.0005 17.8667 19.7172 18.5833 19.1505 19.15ZM15.6255 8.5H15.3755H15.6255ZM15.5255 8.5H15.5755H15.5255ZM15.4755 8.5H15.4255H15.4755ZM15.4755 8.5H15.4255H15.4755ZM15.5755 8.5H15.5255H15.5755ZM10.6755 7.75H7.75049V10.675H10.6755V7.75ZM10.6755 13.325H7.75049V16.25H10.6755V13.325ZM16.2505 7.75H13.3255V10.675H16.2505V7.75ZM16.2505 13.325H13.3255V16.25H16.2505V13.325Z" fill="black"/>
</g>
<defs>
<clipPath id="clip0_3208_22291">
<rect width="24" height="24" fill="white"/>
</clipPath>
</defs>
</svg>
