<svg width="24" height="24" viewBox="0 0 24 24" fill="none" xmlns="http://www.w3.org/2000/svg">
<g clip-path="url(#clip0_3394_11539)">
<rect width="24" height="24" fill="white"/>
<path d="M6.90098 20C6.08431 20 5.39264 19.725 4.82598 19.175C4.27598 18.6083 4.00098 17.9167 4.00098 17.1V6.9C4.00098 6.08333 4.27598 5.4 4.82598 4.85C5.39264 4.28333 6.08431 4 6.90098 4H17.101C17.9176 4 18.601 4.28333 19.151 4.85C19.7176 5.4 20.001 6.08333 20.001 6.9V17.1C20.001 17.9167 19.7176 18.6083 19.151 19.175C18.601 19.725 17.9176 20 17.101 20H6.90098ZM16.501 16.625C16.5176 16.625 16.5343 16.6167 16.551 16.6C16.5676 16.5833 16.576 16.5667 16.576 16.55V7.45C16.576 7.43333 16.5676 7.41667 16.551 7.4C16.5343 7.38333 16.5176 7.375 16.501 7.375H7.50098C7.48431 7.375 7.46764 7.38333 7.45098 7.4C7.43431 7.41667 7.42598 7.43333 7.42598 7.45V16.55C7.42598 16.5667 7.43431 16.5833 7.45098 16.6C7.46764 16.6167 7.48431 16.625 7.50098 16.625H16.501ZM10.601 2V6.575H7.15098V2H10.601ZM16.851 2V6.3H13.401V2H16.851ZM10.601 18.075V22H7.15098V18.075H10.601ZM16.851 18.075V22H13.401V18.075H16.851ZM18.626 13.4H22.001V16.85H18.626V13.4ZM18.451 7.15H22.001V10.6H18.451V7.15ZM2.00098 13.4H5.62598V16.85H2.00098V13.4ZM2.00098 7.15H5.62598V10.6H2.00098V7.15ZM15.051 15.05H8.95098V8.925H15.051V15.05ZM12.676 12.7V11.3H11.326V12.7H12.676ZM12.376 9.675V10H11.851V9.675H12.376ZM13.126 10.275H10.901V9.45H13.126V10.275Z" fill="black"/>
</g>
<defs>
<clipPath id="clip0_3394_11539">
<rect width="24" height="24" fill="white"/>
</clipPath>
</defs>
</svg>
