<svg width="24" height="24" viewBox="0 0 24 24" fill="none" xmlns="http://www.w3.org/2000/svg">
<g clip-path="url(#clip0_3207_19478)">
<rect width="24" height="24" fill="white"/>
<path d="M5.50098 20C4.86764 20 4.27598 19.85 3.72598 19.55C3.19264 19.2333 2.76764 18.8083 2.45098 18.275C2.15098 17.725 2.00098 17.1333 2.00098 16.5V8.5C2.00098 7.85 2.15098 7.25833 2.45098 6.725C2.76764 6.19167 3.19264 5.775 3.72598 5.475C4.27598 5.15833 4.86764 5 5.50098 5H18.501C19.151 5 19.7426 5.15833 20.276 5.475C20.8093 5.775 21.226 6.19167 21.526 6.725C21.8426 7.25833 22.001 7.85 22.001 8.5V16.5C22.001 17.1333 21.8426 17.725 21.526 18.275C21.226 18.8083 20.8093 19.2333 20.276 19.55C19.7426 19.85 19.151 20 18.501 20H5.50098ZM18.426 16.55C18.4426 16.55 18.4593 16.5417 18.476 16.525C18.4926 16.5083 18.501 16.4917 18.501 16.475V8.4C18.501 8.38333 18.4926 8.36667 18.476 8.35C18.4593 8.33333 18.4426 8.325 18.426 8.325H5.57598C5.55931 8.325 5.54264 8.33333 5.52598 8.35C5.50931 8.36667 5.50098 8.38333 5.50098 8.4V16.475C5.50098 16.4917 5.50931 16.5083 5.52598 16.525C5.54264 16.5417 5.55931 16.55 5.57598 16.55H18.426ZM8.00098 10.325V6.825H11.251V10.325H8.00098ZM20.326 10.075V13.325H4.27598V10.075H20.326ZM20.926 16.225C20.726 16.225 20.551 16.1583 20.401 16.025C20.251 15.875 20.176 15.7 20.176 15.5C20.176 15.3 20.251 15.1333 20.401 15C20.551 14.85 20.726 14.775 20.926 14.775C21.126 14.775 21.2926 14.85 21.426 15C21.576 15.1333 21.651 15.3 21.651 15.5C21.651 15.7 21.576 15.875 21.426 16.025C21.2926 16.1583 21.126 16.225 20.926 16.225ZM18.501 8.15V1.5H22.001V8.025L18.501 8.15Z" fill="black"/>
</g>
<defs>
<clipPath id="clip0_3207_19478">
<rect width="24" height="24" fill="white"/>
</clipPath>
</defs>
</svg>
