<svg width="24" height="24" viewBox="0 0 24 24" fill="none" xmlns="http://www.w3.org/2000/svg">
<g clip-path="url(#clip0_3207_19468)">
<rect width="24" height="24" fill="white"/>
<path d="M4.67598 20C4.17598 20 3.71764 19.8833 3.30098 19.65C2.90098 19.4167 2.58431 19.1 2.35098 18.7C2.11764 18.2833 2.00098 17.825 2.00098 17.325V7.675C2.00098 7.175 2.11764 6.725 2.35098 6.325C2.58431 5.90833 2.90098 5.58333 3.30098 5.35C3.71764 5.11667 4.17598 5 4.67598 5H19.326C19.826 5 20.276 5.11667 20.676 5.35C21.0926 5.58333 21.4176 5.90833 21.651 6.325C21.8843 6.725 22.001 7.175 22.001 7.675V17.325C22.001 17.825 21.8843 18.2833 21.651 18.7C21.4176 19.1 21.0926 19.4167 20.676 19.65C20.276 19.8833 19.826 20 19.326 20H4.67598ZM19.326 19.075C19.8093 19.075 20.2176 18.9083 20.551 18.575C20.8843 18.225 21.051 17.8083 21.051 17.325V7.675C21.051 7.19167 20.8843 6.78333 20.551 6.45C20.2176 6.1 19.8093 5.925 19.326 5.925H4.67598C4.19264 5.925 3.78431 6.1 3.45098 6.45C3.11764 6.78333 2.95098 7.19167 2.95098 7.675V17.325C2.95098 17.8083 3.11764 18.225 3.45098 18.575C3.78431 18.9083 4.19264 19.075 4.67598 19.075H19.326ZM7.02598 9.125V5.55H7.95098V9.125H7.02598ZM21.326 8.675V9.575H2.45098V8.675H21.326ZM17.951 16.775C17.7343 16.775 17.5426 16.7 17.376 16.55C17.226 16.3833 17.151 16.2 17.151 16C17.151 15.7667 17.226 15.575 17.376 15.425C17.5426 15.275 17.7343 15.2 17.951 15.2C18.1676 15.2 18.351 15.275 18.501 15.425C18.6676 15.575 18.751 15.7583 18.751 15.975C18.751 16.2083 18.6676 16.4 18.501 16.55C18.351 16.7 18.1676 16.775 17.951 16.775ZM21.051 8.025V1.5H22.001V8.025H21.051Z" fill="black"/>
</g>
<defs>
<clipPath id="clip0_3207_19468">
<rect width="24" height="24" fill="white"/>
</clipPath>
</defs>
</svg>
