<svg width="24" height="24" viewBox="0 0 24 24" fill="none" xmlns="http://www.w3.org/2000/svg">
<g clip-path="url(#clip0_3207_19488)">
<rect width="24" height="24" fill="white"/>
<path d="M20.4255 19.575C19.9422 19.8583 19.4088 20 18.8255 20H5.17549C4.59216 20 4.05882 19.8583 3.57549 19.575C3.09216 19.2917 2.70882 18.9083 2.42549 18.425C2.14216 17.9417 2.00049 17.4083 2.00049 16.825V8.175C2.00049 7.59167 2.14216 7.05833 2.42549 6.575C2.70882 6.09167 3.09216 5.70833 3.57549 5.425C4.05882 5.14167 4.59216 5 5.17549 5H18.8255C19.4088 5 19.9422 5.14167 20.4255 5.425C20.9088 5.70833 21.2922 6.09167 21.5755 6.575C21.8588 7.05833 22.0005 7.59167 22.0005 8.175V16.825C22.0005 17.4083 21.8588 17.9417 21.5755 18.425C21.2922 18.9083 20.9088 19.2917 20.4255 19.575ZM4.32549 9.4H19.6755V8.1C19.6755 7.86667 19.6005 7.675 19.4505 7.525C19.3005 7.35833 19.1172 7.275 18.9005 7.275H5.10049C4.88382 7.275 4.70049 7.35833 4.55049 7.525C4.40049 7.675 4.32549 7.86667 4.32549 8.1V9.4ZM9.52549 6.4V10.225H7.35049V6.4H9.52549ZM22.0005 1.5V8.025H19.6755V1.5H22.0005ZM16.3005 16.95C16.6505 17.2833 17.0755 17.45 17.5755 17.45C18.0755 17.45 18.5005 17.2833 18.8505 16.95C19.2005 16.6 19.3755 16.175 19.3755 15.675C19.3755 15.175 19.2005 14.7583 18.8505 14.425C18.5005 14.075 18.0755 13.9 17.5755 13.9C17.0755 13.9 16.6505 14.075 16.3005 14.425C15.9672 14.7583 15.8005 15.175 15.8005 15.675C15.8005 16.175 15.9672 16.6 16.3005 16.95Z" fill="black"/>
</g>
<defs>
<clipPath id="clip0_3207_19488">
<rect width="24" height="24" fill="white"/>
</clipPath>
</defs>
</svg>
