<svg width="24" height="24" viewBox="0 0 24 24" fill="none" xmlns="http://www.w3.org/2000/svg">
<g clip-path="url(#clip0_3207_20371)">
<rect width="24" height="24" fill="white"/>
<path d="M17.1255 22.125C16.5422 22.7083 15.8338 23 15.0005 23H9.00049C8.16716 23 7.45882 22.7083 6.87549 22.125C6.29216 21.5417 6.00049 20.8333 6.00049 20V9H18.0005V20C18.0005 20.8333 17.7088 21.5417 17.1255 22.125ZM11.4255 12.85C11.5922 13 11.7838 13.075 12.0005 13.075C12.2172 13.075 12.4005 13 12.5505 12.85C12.7172 12.7 12.8005 12.5167 12.8005 12.3C12.8005 12.0833 12.7172 11.9 12.5505 11.75C12.4005 11.5833 12.2172 11.5 12.0005 11.5C11.7838 11.5 11.5922 11.5833 11.4255 11.75C11.2755 11.9 11.2005 12.0833 11.2005 12.3C11.2005 12.5 11.2755 12.6833 11.4255 12.85ZM14.6755 2.125C15.5255 2.49167 16.2672 3 16.9005 3.65L17.5505 3C16.8338 2.26667 15.9922 1.69167 15.0255 1.275C14.0755 0.858333 13.0672 0.65 12.0005 0.65C10.9338 0.65 9.91716 0.858333 8.95049 1.275C8.00049 1.69167 7.16716 2.26667 6.45049 3L7.10049 3.65C7.73382 3 8.47549 2.49167 9.32549 2.125C10.1755 1.74167 11.0672 1.55 12.0005 1.55C12.9338 1.55 13.8255 1.74167 14.6755 2.125ZM12.0005 5.95C12.7005 5.95 13.3172 6.21667 13.8505 6.75L14.5005 6.1C14.1672 5.78333 13.7838 5.53333 13.3505 5.35C12.9338 5.15 12.4838 5.05 12.0005 5.05C11.5338 5.05 11.0838 5.15 10.6505 5.35C10.2172 5.53333 9.83382 5.78333 9.50049 6.1L10.1505 6.75C10.6838 6.21667 11.3005 5.95 12.0005 5.95Z" fill="black"/>
</g>
<defs>
<clipPath id="clip0_3207_20371">
<rect width="24" height="24" fill="white"/>
</clipPath>
</defs>
</svg>
