<svg width="24" height="24" viewBox="0 0 24 24" fill="none" xmlns="http://www.w3.org/2000/svg">
<g clip-path="url(#clip0_3207_20369)">
<rect width="24" height="24" fill="white"/>
<path d="M17.1255 22.125C16.5422 22.7083 15.8338 23 15.0005 23H9.00049C8.16716 23 7.45882 22.7083 6.87549 22.125C6.29216 21.5417 6.00049 20.8333 6.00049 20V9H18.0005V20C18.0005 20.8333 17.7088 21.5417 17.1255 22.125ZM11.6505 12.35C11.7505 12.45 11.8672 12.5 12.0005 12.5C12.1338 12.5 12.2505 12.45 12.3505 12.35C12.4505 12.25 12.5005 12.1333 12.5005 12C12.5005 11.8667 12.4505 11.75 12.3505 11.65C12.2505 11.55 12.1338 11.5 12.0005 11.5C11.8672 11.5 11.7505 11.55 11.6505 11.65C11.5505 11.75 11.5005 11.8667 11.5005 12C11.5005 12.1333 11.5505 12.25 11.6505 12.35ZM14.8005 1.725C15.7005 2.10833 16.4838 2.64167 17.1505 3.325L17.5005 2.975C16.8005 2.25833 15.9672 1.69167 15.0005 1.275C14.0505 0.858333 13.0505 0.65 12.0005 0.65C10.9505 0.65 9.94216 0.858333 8.97549 1.275C8.02549 1.69167 7.20049 2.25833 6.50049 2.975L6.85049 3.325C7.51716 2.64167 8.29216 2.10833 9.17549 1.725C10.0755 1.325 11.0172 1.125 12.0005 1.125C12.9838 1.125 13.9172 1.325 14.8005 1.725ZM12.0005 5.725C12.7505 5.725 13.4088 6.00833 13.9755 6.575L14.3255 6.225C14.0255 5.925 13.6755 5.69167 13.2755 5.525C12.8755 5.34167 12.4505 5.25 12.0005 5.25C11.5672 5.25 11.1422 5.34167 10.7255 5.525C10.3255 5.69167 9.97549 5.925 9.67549 6.225L10.0255 6.575C10.5922 6.00833 11.2505 5.725 12.0005 5.725Z" fill="black"/>
</g>
<defs>
<clipPath id="clip0_3207_20369">
<rect width="24" height="24" fill="white"/>
</clipPath>
</defs>
</svg>
