<svg width="24" height="24" viewBox="0 0 24 24" fill="none" xmlns="http://www.w3.org/2000/svg">
<g clip-path="url(#clip0_3394_11519)">
<rect width="24" height="24" fill="white"/>
<path d="M21.0005 21H3.00049V17.5H21.0005V21ZM18.7505 3C19.4505 3 20.0422 3.24167 20.5255 3.725C21.0088 4.20833 21.2505 4.8 21.2505 5.5C21.2505 6.2 21.0088 6.79167 20.5255 7.275C20.0422 7.75833 19.4505 8 18.7505 8H5.25049C4.55049 8 3.95882 7.75833 3.47549 7.275C2.99216 6.79167 2.75049 6.2 2.75049 5.5C2.75049 4.8 2.99216 4.20833 3.47549 3.725C3.95882 3.24167 4.55049 3 5.25049 3H18.7505ZM21.0005 20.275H16.0005V10H18.7505C19.5838 10 20.3338 9.8 21.0005 9.4V20.275ZM9.50049 15.5V12.95H7.00049V15.5H4.00049V11.5C4.00049 11.0667 4.14216 10.7083 4.42549 10.425C4.72549 10.1417 5.08382 10 5.50049 10H6.65049V7.575H9.90049V10H11.0005C11.4338 10 11.7922 10.1417 12.0755 10.425C12.3588 10.7083 12.5005 11.0667 12.5005 11.5V15.5H9.50049Z" fill="black"/>
</g>
<defs>
<clipPath id="clip0_3394_11519">
<rect width="24" height="24" fill="white"/>
</clipPath>
</defs>
</svg>
