<svg width="24" height="24" viewBox="0 0 24 24" fill="none" xmlns="http://www.w3.org/2000/svg">
<g clip-path="url(#clip0_3207_20829)">
<rect width="24" height="24" fill="white"/>
<path d="M21.001 21H3.00098V19.2H20.151L21.001 21ZM5.77598 4.8C5.45931 4.8 5.18431 4.91667 4.95098 5.15C4.71764 5.36667 4.60098 5.64167 4.60098 5.975C4.60098 6.30833 4.71764 6.6 4.95098 6.85C5.18431 7.08333 5.45931 7.2 5.77598 7.2H17.976C18.2926 7.2 18.5676 7.08333 18.801 6.85C19.0343 6.6 19.151 6.30833 19.151 5.975C19.151 5.64167 19.0343 5.36667 18.801 5.15C18.5843 4.91667 18.3093 4.8 17.976 4.8H5.77598ZM17.976 3C18.526 3 19.0343 3.13333 19.501 3.4C19.9676 3.65 20.3343 4.00833 20.601 4.475C20.8676 4.925 21.001 5.425 21.001 5.975C21.001 6.525 20.8676 7.03333 20.601 7.5C20.3343 7.96667 19.9676 8.33333 19.501 8.6C19.0343 8.86667 18.526 9 17.976 9H5.77598C5.22598 9 4.71764 8.86667 4.25098 8.6C3.78431 8.33333 3.41764 7.96667 3.15098 7.5C2.88431 7.03333 2.75098 6.525 2.75098 5.975C2.75098 5.425 2.88431 4.925 3.15098 4.475C3.41764 4.00833 3.78431 3.65 4.25098 3.4C4.71764 3.13333 5.22598 3 5.77598 3H17.976ZM9.20098 16V12.8H5.80098V16H4.00098V12.5C4.00098 12.0667 4.14264 11.7083 4.42598 11.425C4.72598 11.1417 5.08431 11 5.50098 11H6.60098V8.075H8.42598V11H9.50098C9.93431 11 10.2926 11.1417 10.576 11.425C10.8593 11.7083 11.001 12.0667 11.001 12.5V16H9.20098ZM21.001 5.975V21L19.151 19.55V7.2L21.001 5.975ZM16.851 8.15V19.55H15.001V8.15H16.851Z" fill="black"/>
</g>
<defs>
<clipPath id="clip0_3207_20829">
<rect width="24" height="24" fill="white"/>
</clipPath>
</defs>
</svg>
