<svg width="24" height="24" viewBox="0 0 24 24" fill="none" xmlns="http://www.w3.org/2000/svg">
<g clip-path="url(#clip0_3208_21179)">
<rect width="24" height="24" fill="white"/>
<path d="M14.4255 4.525C15.1922 4.85833 15.8588 5.31667 16.4255 5.9L17.3505 4.975C16.6672 4.275 15.8588 3.725 14.9255 3.325C14.0088 2.925 13.0338 2.725 12.0005 2.725C10.9672 2.725 9.98382 2.925 9.05049 3.325C8.13382 3.725 7.33382 4.275 6.65049 4.975L7.57549 5.9C8.14216 5.31667 8.80882 4.85833 9.57549 4.525C10.3422 4.19167 11.1505 4.025 12.0005 4.025C12.8505 4.025 13.6588 4.19167 14.4255 4.525ZM12.0005 8.05C12.6172 8.05 13.1672 8.275 13.6505 8.725L14.5505 7.825C14.2172 7.49167 13.8255 7.23333 13.3755 7.05C12.9422 6.85 12.4838 6.75 12.0005 6.75C11.5172 6.75 11.0588 6.85 10.6255 7.05C10.1922 7.23333 9.80882 7.49167 9.47549 7.825L10.3505 8.725C10.8338 8.275 11.3838 8.05 12.0005 8.05ZM21.8005 3.95C21.9338 4.08333 22.0005 4.25 22.0005 4.45V17.325C22.0005 18.075 21.7422 18.7083 21.2255 19.225C20.7088 19.7417 20.0755 20 19.3255 20H4.67549C3.92549 20 3.29216 19.7417 2.77549 19.225C2.25882 18.7083 2.00049 18.075 2.00049 17.325V4.45C2.00049 4.25 2.06716 4.08333 2.20049 3.95C2.33382 3.81667 2.50049 3.75 2.70049 3.75C2.90049 3.75 3.06716 3.81667 3.20049 3.95C3.33382 4.08333 3.40049 4.25 3.40049 4.45V11H20.6005V4.45C20.6005 4.25 20.6672 4.08333 20.8005 3.95C20.9338 3.81667 21.1005 3.75 21.3005 3.75C21.5005 3.75 21.6672 3.81667 21.8005 3.95ZM4.82549 15.35C5.04216 15.5667 5.29216 15.675 5.57549 15.675C5.87549 15.675 6.13382 15.5667 6.35049 15.35C6.56716 15.1333 6.67549 14.875 6.67549 14.575C6.67549 14.275 6.56716 14.025 6.35049 13.825C6.13382 13.6083 5.87549 13.5 5.57549 13.5C5.27549 13.5 5.01716 13.6083 4.80049 13.825C4.60049 14.025 4.50049 14.275 4.50049 14.575C4.50049 14.875 4.60882 15.1333 4.82549 15.35Z" fill="black"/>
</g>
<defs>
<clipPath id="clip0_3208_21179">
<rect width="24" height="24" fill="white"/>
</clipPath>
</defs>
</svg>
