<svg width="24" height="24" viewBox="0 0 24 24" fill="none" xmlns="http://www.w3.org/2000/svg">
<g clip-path="url(#clip0_3208_21177)">
<rect width="24" height="24" fill="white"/>
<path d="M14.6005 4.15C15.4338 4.51667 16.1672 5.01667 16.8005 5.65L17.4255 5.025C16.7255 4.30833 15.9005 3.75 14.9505 3.35C14.0172 2.93333 13.0338 2.725 12.0005 2.725C10.9672 2.725 9.97549 2.93333 9.02549 3.35C8.09216 3.75 7.27549 4.30833 6.57549 5.025L7.20049 5.65C7.83382 5.01667 8.55882 4.51667 9.37549 4.15C10.2088 3.78333 11.0838 3.6 12.0005 3.6C12.9172 3.6 13.7838 3.78333 14.6005 4.15ZM12.0005 7.925C12.6838 7.925 13.2838 8.18333 13.8005 8.7L14.4255 8.075C14.1088 7.75833 13.7422 7.50833 13.3255 7.325C12.9088 7.14167 12.4672 7.05 12.0005 7.05C11.5505 7.05 11.1088 7.14167 10.6755 7.325C10.2588 7.50833 9.89216 7.75833 9.57549 8.075L10.2005 8.7C10.7172 8.18333 11.3172 7.925 12.0005 7.925ZM21.8755 3.875C21.9588 3.95833 22.0005 4.075 22.0005 4.225V17.175C22.0005 17.9583 21.7255 18.625 21.1755 19.175C20.6255 19.725 19.9588 20 19.1755 20H4.82549C4.04216 20 3.37549 19.725 2.82549 19.175C2.27549 18.625 2.00049 17.9583 2.00049 17.175V4.225C2.00049 4.075 2.04216 3.95833 2.12549 3.875C2.22549 3.79167 2.34216 3.75 2.47549 3.75C2.62549 3.75 2.74216 3.79167 2.82549 3.875C2.90882 3.95833 2.95049 4.075 2.95049 4.225V11H21.0505V4.225C21.0505 4.075 21.0922 3.95833 21.1755 3.875C21.2755 3.79167 21.3922 3.75 21.5255 3.75C21.6755 3.75 21.7922 3.79167 21.8755 3.875ZM4.72549 14.85C4.89216 15 5.08382 15.075 5.30049 15.075C5.51716 15.075 5.70049 15 5.85049 14.85C6.00049 14.7 6.07549 14.5167 6.07549 14.3C6.07549 14.0667 6.00049 13.875 5.85049 13.725C5.70049 13.575 5.51716 13.5 5.30049 13.5C5.06716 13.5 4.87549 13.5833 4.72549 13.75C4.57549 13.9 4.50049 14.0833 4.50049 14.3C4.50049 14.5 4.57549 14.6833 4.72549 14.85Z" fill="black"/>
</g>
<defs>
<clipPath id="clip0_3208_21177">
<rect width="24" height="24" fill="white"/>
</clipPath>
</defs>
</svg>
