<svg width="24" height="24" viewBox="0 0 24 24" fill="none" xmlns="http://www.w3.org/2000/svg">
<g clip-path="url(#clip0_3208_21181)">
<rect width="24" height="24" fill="white"/>
<path d="M14.2255 4.9C14.9255 5.2 15.5422 5.61667 16.0755 6.15L17.2755 4.95C16.5922 4.25 15.7922 3.70833 14.8755 3.325C13.9755 2.925 13.0172 2.725 12.0005 2.725C10.9838 2.725 10.0172 2.925 9.10049 3.325C8.20049 3.70833 7.40882 4.25 6.72549 4.95L7.92549 6.15C8.45882 5.61667 9.07549 5.2 9.77549 4.9C10.4755 4.58333 11.2172 4.425 12.0005 4.425C12.7838 4.425 13.5255 4.58333 14.2255 4.9ZM12.0005 8.175C12.5505 8.175 13.0422 8.375 13.4755 8.775L14.6505 7.6C14.3005 7.25 13.8922 6.975 13.4255 6.775C12.9755 6.575 12.5005 6.475 12.0005 6.475C11.5005 6.475 11.0255 6.575 10.5755 6.775C10.1255 6.975 9.72549 7.25 9.37549 7.6L10.5255 8.775C10.9588 8.375 11.4505 8.175 12.0005 8.175ZM21.7255 4.025C21.9088 4.19167 22.0005 4.40833 22.0005 4.675V17.5C22.0005 18.2 21.7588 18.7917 21.2755 19.275C20.7922 19.7583 20.2005 20 19.5005 20H4.50049C3.80049 20 3.20882 19.7583 2.72549 19.275C2.24216 18.7917 2.00049 18.2 2.00049 17.5V4.675C2.00049 4.40833 2.08382 4.19167 2.25049 4.025C2.43382 3.84167 2.65882 3.75 2.92549 3.75C3.19216 3.75 3.40882 3.84167 3.57549 4.025C3.75882 4.19167 3.85049 4.40833 3.85049 4.675V11H20.1505V4.675C20.1505 4.40833 20.2338 4.19167 20.4005 4.025C20.5838 3.84167 20.8088 3.75 21.0755 3.75C21.3422 3.75 21.5588 3.84167 21.7255 4.025ZM4.90049 15.85C5.18382 16.1167 5.50882 16.25 5.87549 16.25C6.25882 16.25 6.58382 16.1167 6.85049 15.85C7.11716 15.5833 7.25049 15.2583 7.25049 14.875C7.25049 14.4917 7.11716 14.1667 6.85049 13.9C6.58382 13.6333 6.25882 13.5 5.87549 13.5C5.49216 13.5 5.16716 13.6333 4.90049 13.9C4.63382 14.1667 4.50049 14.4917 4.50049 14.875C4.50049 15.2417 4.63382 15.5667 4.90049 15.85Z" fill="black"/>
</g>
<defs>
<clipPath id="clip0_3208_21181">
<rect width="24" height="24" fill="white"/>
</clipPath>
</defs>
</svg>
