<svg width="24" height="24" viewBox="0 0 24 24" fill="none" xmlns="http://www.w3.org/2000/svg">
<g clip-path="url(#clip0_3208_21185)">
<rect width="24" height="24" fill="white"/>
<path d="M12.7005 7.55C12.8672 7.38333 13.1088 7.14167 13.4255 6.825L15.6005 4.625C15.1505 4.125 14.6088 3.74167 13.9755 3.475C13.3588 3.19167 12.7005 3.05 12.0005 3.05C11.3005 3.05 10.6338 3.19167 10.0005 3.475C9.38382 3.74167 8.85049 4.125 8.40049 4.625L10.3255 6.55C10.6422 6.85 10.9088 7.11667 11.1255 7.35C11.3588 7.58333 11.6505 7.86667 12.0005 8.2C12.3172 7.91667 12.5505 7.7 12.7005 7.55ZM12.0005 4.875C12.4005 4.875 12.7922 4.875 13.1755 4.875H13.7005C13.3338 4.875 13.0505 4.875 12.8505 4.875C12.6672 4.875 12.3838 4.875 12.0005 4.875C11.6338 4.875 11.3505 4.875 11.1505 4.875C10.9672 4.875 10.6838 4.875 10.3005 4.875H10.8255C11.2255 4.875 11.6172 4.875 12.0005 4.875ZM21.6005 4.15C21.8672 4.41667 22.0005 4.75833 22.0005 5.175V17.175C22.0005 17.9583 21.7255 18.625 21.1755 19.175C20.6422 19.725 19.9755 20 19.1755 20H4.82549C4.04216 20 3.37549 19.725 2.82549 19.175C2.27549 18.625 2.00049 17.9583 2.00049 17.175V5.175C2.00049 4.75833 2.13382 4.41667 2.40049 4.15C2.68382 3.88333 3.02549 3.75 3.42549 3.75C3.82549 3.75 4.15049 3.88333 4.40049 4.15C4.65049 4.41667 4.77549 4.75833 4.77549 5.175V10.325H19.2255V5.175C19.2255 4.75833 19.3505 4.41667 19.6005 4.15C19.8505 3.88333 20.1755 3.75 20.5755 3.75C20.9922 3.75 21.3338 3.88333 21.6005 4.15ZM5.45049 15.775C5.78382 16.1083 6.17549 16.275 6.62549 16.275C7.09216 16.275 7.49216 16.1083 7.82549 15.775C8.15882 15.4417 8.32549 15.05 8.32549 14.6C8.32549 14.1333 8.15882 13.7417 7.82549 13.425C7.49216 13.0917 7.09216 12.925 6.62549 12.925C6.17549 12.925 5.78382 13.0917 5.45049 13.425C5.13382 13.7417 4.97549 14.1333 4.97549 14.6C4.97549 15.05 5.13382 15.4417 5.45049 15.775Z" fill="black"/>
</g>
<defs>
<clipPath id="clip0_3208_21185">
<rect width="24" height="24" fill="white"/>
</clipPath>
</defs>
</svg>
