<svg width="24" height="24" viewBox="0 0 24 24" fill="none" xmlns="http://www.w3.org/2000/svg">
<g clip-path="url(#clip0_3207_19714)">
<rect width="24" height="24" fill="white"/>
<path d="M4.65049 11.45C4.75049 11.55 4.86716 11.6 5.00049 11.6C5.13382 11.6 5.25049 11.55 5.35049 11.45C5.45049 11.35 5.50049 11.2333 5.50049 11.1C5.50049 10.9667 5.45049 10.85 5.35049 10.75C5.25049 10.65 5.13382 10.6 5.00049 10.6C4.86716 10.6 4.75049 10.65 4.65049 10.75C4.55049 10.85 4.50049 10.9667 4.50049 11.1C4.50049 11.2333 4.55049 11.35 4.65049 11.45ZM21.2505 19.275C20.7672 19.7583 20.1838 20 19.5005 20H4.50049C3.81716 20 3.22549 19.7583 2.72549 19.275C2.24216 18.775 2.00049 18.1833 2.00049 17.5V8.1H22.0005V17.5C22.0005 18.1833 21.7505 18.775 21.2505 19.275ZM2.75049 2.075L2.62549 2.525L22.0005 8.275V7.775L2.75049 2.075Z" fill="black"/>
</g>
<defs>
<clipPath id="clip0_3207_19714">
<rect width="24" height="24" fill="white"/>
</clipPath>
</defs>
</svg>
