<svg width="24" height="24" viewBox="0 0 24 24" fill="none" xmlns="http://www.w3.org/2000/svg">
<g clip-path="url(#clip0_3207_19716)">
<rect width="24" height="24" fill="white"/>
<path d="M4.72549 12.25C4.89216 12.4 5.08382 12.475 5.30049 12.475C5.51716 12.475 5.70049 12.4 5.85049 12.25C6.00049 12.1 6.07549 11.9167 6.07549 11.7C6.07549 11.4833 6.00049 11.3 5.85049 11.15C5.70049 10.9833 5.51716 10.9 5.30049 10.9C5.08382 10.9 4.89216 10.9833 4.72549 11.15C4.57549 11.3 4.50049 11.4833 4.50049 11.7C4.50049 11.9 4.57549 12.0833 4.72549 12.25ZM21.2505 19.275C20.7672 19.7583 20.1838 20 19.5005 20H4.50049C3.81716 20 3.22549 19.7583 2.72549 19.275C2.24216 18.775 2.00049 18.1833 2.00049 17.5V8.4H22.0005V17.5C22.0005 18.1833 21.7505 18.775 21.2505 19.275ZM2.75049 2.075L2.50049 2.975L22.0005 8.725V7.775L2.75049 2.075Z" fill="black"/>
</g>
<defs>
<clipPath id="clip0_3207_19716">
<rect width="24" height="24" fill="white"/>
</clipPath>
</defs>
</svg>
