<svg width="24" height="24" viewBox="0 0 24 24" fill="none" xmlns="http://www.w3.org/2000/svg">
<g clip-path="url(#clip0_3207_19722)">
<rect width="24" height="24" fill="white"/>
<path d="M5.07549 14.425C5.40882 14.7583 5.80049 14.925 6.25049 14.925C6.71716 14.925 7.10882 14.7667 7.42549 14.45C7.75882 14.1167 7.92549 13.7167 7.92549 13.25C7.92549 12.7833 7.75882 12.3917 7.42549 12.075C7.10882 11.7417 6.71716 11.575 6.25049 11.575C5.78382 11.575 5.38382 11.7417 5.05049 12.075C4.73382 12.3917 4.57549 12.7833 4.57549 13.25C4.57549 13.7 4.74216 14.0917 5.07549 14.425ZM21.2755 19.275C20.7922 19.7583 20.2005 20 19.5005 20H4.50049C3.80049 20 3.20882 19.7583 2.72549 19.275C2.24216 18.7917 2.00049 18.2 2.00049 17.5V9H22.0005V17.5C22.0005 18.2 21.7588 18.7917 21.2755 19.275ZM2.75049 2.075L2.10049 4.375L22.0005 10.175V7.775L2.75049 2.075Z" fill="black"/>
</g>
<defs>
<clipPath id="clip0_3207_19722">
<rect width="24" height="24" fill="white"/>
</clipPath>
</defs>
</svg>
