<svg width="24" height="24" viewBox="0 0 24 24" fill="none" xmlns="http://www.w3.org/2000/svg">
<g clip-path="url(#clip0_3207_19708)">
<rect width="24" height="24" fill="white"/>
<path d="M5.00098 20C4.45098 20 3.94264 19.8667 3.47598 19.6C3.02598 19.3333 2.66764 18.975 2.40098 18.525C2.13431 18.0583 2.00098 17.55 2.00098 17V9.175H22.001V17C22.001 17.55 21.8676 18.0583 21.601 18.525C21.3343 18.975 20.9676 19.3333 20.501 19.6C20.051 19.8667 19.551 20 19.001 20H5.00098ZM19.001 17.75C19.201 17.75 19.3676 17.6833 19.501 17.55C19.6343 17.4 19.701 17.2167 19.701 17V11.425H4.30098V17C4.30098 17.2167 4.36764 17.4 4.50098 17.55C4.63431 17.6833 4.80098 17.75 5.00098 17.75H19.001ZM2.85098 2.125L22.001 7.775V10.075L2.27598 4.3L2.85098 2.125ZM7.15098 15.9C6.70098 15.9 6.30931 15.7417 5.97598 15.425C5.64264 15.0917 5.47598 14.7 5.47598 14.25C5.47598 13.7833 5.64264 13.3917 5.97598 13.075C6.30931 12.7417 6.70098 12.575 7.15098 12.575C7.61764 12.575 8.00931 12.7417 8.32598 13.075C8.64264 13.3917 8.80098 13.7833 8.80098 14.25C8.80098 14.7 8.64264 15.0917 8.32598 15.425C8.00931 15.7417 7.61764 15.9 7.15098 15.9Z" fill="black"/>
</g>
<defs>
<clipPath id="clip0_3207_19708">
<rect width="24" height="24" fill="white"/>
</clipPath>
</defs>
</svg>
