<svg width="24" height="24" viewBox="0 0 24 24" fill="none" xmlns="http://www.w3.org/2000/svg">
<g clip-path="url(#clip0_3207_18454)">
<rect width="24" height="24" fill="white"/>
<path d="M4.50098 20C4.03431 20 3.60931 19.8917 3.22598 19.675C2.85931 19.4417 2.55931 19.1417 2.32598 18.775C2.10931 18.3917 2.00098 17.9667 2.00098 17.5V8.1H22.001V17.5C22.001 17.9667 21.8843 18.3917 21.651 18.775C21.4343 19.1417 21.1343 19.4417 20.751 19.675C20.3676 19.8917 19.951 20 19.501 20H4.50098ZM19.501 19.525C20.051 19.525 20.5176 19.325 20.901 18.925C21.301 18.525 21.501 18.05 21.501 17.5V8.575H2.50098V17.5C2.50098 18.05 2.69264 18.525 3.07598 18.925C3.47598 19.325 3.95098 19.525 4.50098 19.525H19.501ZM2.85098 2.125L22.001 7.775V8.275L2.72598 2.6L2.85098 2.125ZM5.25098 11.825C5.11764 11.825 5.00098 11.775 4.90098 11.675C4.80098 11.575 4.75098 11.4583 4.75098 11.325C4.75098 11.1917 4.80098 11.075 4.90098 10.975C5.00098 10.875 5.11764 10.825 5.25098 10.825C5.38431 10.825 5.50098 10.875 5.60098 10.975C5.70098 11.075 5.75098 11.1917 5.75098 11.325C5.75098 11.4583 5.70098 11.575 5.60098 11.675C5.50098 11.775 5.38431 11.825 5.25098 11.825Z" fill="black"/>
</g>
<defs>
<clipPath id="clip0_3207_18454">
<rect width="24" height="24" fill="white"/>
</clipPath>
</defs>
</svg>
