<svg width="24" height="24" viewBox="0 0 24 24" fill="none" xmlns="http://www.w3.org/2000/svg">
<g clip-path="url(#clip0_3207_19706)">
<rect width="24" height="24" fill="white"/>
<path d="M5.00098 20C4.45098 20 3.94264 19.8667 3.47598 19.6C3.02598 19.3333 2.66764 18.975 2.40098 18.525C2.13431 18.0583 2.00098 17.55 2.00098 17V9H22.001V17C22.001 17.55 21.8676 18.0583 21.601 18.525C21.3343 18.975 20.9676 19.3333 20.501 19.6C20.051 19.8667 19.551 20 19.001 20H5.00098ZM19.001 18.15C19.3176 18.15 19.576 18.0417 19.776 17.825C19.9926 17.6083 20.101 17.3333 20.101 17V10.85H3.90098V17C3.90098 17.3333 4.00098 17.6083 4.20098 17.825C4.41764 18.0417 4.68431 18.15 5.00098 18.15H19.001ZM2.85098 2.125L22.001 7.775V9.65L2.35098 3.9L2.85098 2.125ZM6.52598 14.85C6.15931 14.85 5.83431 14.7167 5.55098 14.45C5.28431 14.1667 5.15098 13.8417 5.15098 13.475C5.15098 13.0917 5.28431 12.7667 5.55098 12.5C5.81764 12.2333 6.14264 12.1 6.52598 12.1C6.90931 12.1 7.23431 12.2333 7.50098 12.5C7.76764 12.7667 7.90098 13.0917 7.90098 13.475C7.90098 13.8583 7.76764 14.1833 7.50098 14.45C7.23431 14.7167 6.90931 14.85 6.52598 14.85Z" fill="black"/>
</g>
<defs>
<clipPath id="clip0_3207_19706">
<rect width="24" height="24" fill="white"/>
</clipPath>
</defs>
</svg>
