<svg width="24" height="24" viewBox="0 0 24 24" fill="none" xmlns="http://www.w3.org/2000/svg">
<g clip-path="url(#clip0_3207_19720)">
<rect width="24" height="24" fill="white"/>
<path d="M4.90049 13.85C5.18382 14.1167 5.50882 14.25 5.87549 14.25C6.25882 14.25 6.58382 14.1167 6.85049 13.85C7.11716 13.5833 7.25049 13.2583 7.25049 12.875C7.25049 12.4917 7.11716 12.1667 6.85049 11.9C6.58382 11.6333 6.25882 11.5 5.87549 11.5C5.49216 11.5 5.16716 11.6333 4.90049 11.9C4.63382 12.1667 4.50049 12.4917 4.50049 12.875C4.50049 13.2417 4.63382 13.5667 4.90049 13.85ZM21.2755 19.275C20.7922 19.7583 20.2005 20 19.5005 20H4.50049C3.80049 20 3.20882 19.7583 2.72549 19.275C2.24216 18.7917 2.00049 18.2 2.00049 17.5V9H22.0005V17.5C22.0005 18.2 21.7588 18.7917 21.2755 19.275ZM2.75049 2.075L2.25049 3.85L22.0005 9.65V7.775L2.75049 2.075Z" fill="black"/>
</g>
<defs>
<clipPath id="clip0_3207_19720">
<rect width="24" height="24" fill="white"/>
</clipPath>
</defs>
</svg>
