<svg width="24" height="24" viewBox="0 0 24 24" fill="none" xmlns="http://www.w3.org/2000/svg">
<g clip-path="url(#clip0_3394_11478)">
<rect width="24" height="24" fill="white"/>
<path d="M17.0505 21.05C16.4338 21.6833 15.6672 22 14.7505 22H9.25049C8.33382 22 7.55882 21.6833 6.92549 21.05C6.30882 20.4333 6.00049 19.6667 6.00049 18.75V5.25C6.00049 4.33333 6.30882 3.56667 6.92549 2.95C7.55882 2.31667 8.33382 2 9.25049 2H14.7505C15.6672 2 16.4338 2.31667 17.0505 2.95C17.6838 3.56667 18.0005 4.33333 18.0005 5.25V18.75C18.0005 19.6667 17.6838 20.4333 17.0505 21.05ZM20.3005 12.2C20.2838 12.7667 19.9838 13.4 19.4005 14.1L21.4505 16.125C22.5838 14.875 23.1588 13.575 23.1755 12.225C23.1922 10.8583 22.6672 9.575 21.6005 8.375H19.5755V10.425C20.0755 11.0417 20.3172 11.6333 20.3005 12.2ZM3.70049 11.8C3.71716 11.2333 4.01716 10.6 4.60049 9.9L2.55049 7.875C1.41716 9.125 0.842155 10.4333 0.825488 11.8C0.808822 13.15 1.33382 14.425 2.40049 15.625H4.42549V13.575C3.92549 12.9583 3.68382 12.3667 3.70049 11.8Z" fill="black"/>
</g>
<defs>
<clipPath id="clip0_3394_11478">
<rect width="24" height="24" fill="white"/>
</clipPath>
</defs>
</svg>
