<svg width="24" height="24" viewBox="0 0 24 24" fill="none" xmlns="http://www.w3.org/2000/svg">
<g clip-path="url(#clip0_3206_14228)">
<rect width="24" height="24" fill="white"/>
<path d="M23.0005 15.5C23.0005 16.1333 22.8422 16.725 22.5255 17.275C22.2255 17.8083 21.8088 18.2333 21.2755 18.55C20.7422 18.85 20.1505 19 19.5005 19H4.50049C3.86716 19 3.27549 18.85 2.72549 18.55C2.19216 18.2333 1.76716 17.8083 1.45049 17.275C1.15049 16.725 1.00049 16.1333 1.00049 15.5V8.5C1.00049 7.85 1.15049 7.25833 1.45049 6.725C1.76716 6.19167 2.19216 5.775 2.72549 5.475C3.27549 5.15833 3.86716 5 4.50049 5H19.5005C20.1505 5 20.7422 5.15833 21.2755 5.475C21.8088 5.775 22.2255 6.19167 22.5255 6.725C22.8422 7.25833 23.0005 7.85 23.0005 8.5V15.5ZM22.5005 8.5C22.5005 7.65 22.2088 6.93333 21.6255 6.35C21.0422 5.76667 20.3338 5.475 19.5005 5.475H4.50049C3.66716 5.475 2.95882 5.76667 2.37549 6.35C1.79216 6.93333 1.50049 7.65 1.50049 8.5V15.5C1.50049 16.35 1.79216 17.0667 2.37549 17.65C2.95882 18.2333 3.66716 18.525 4.50049 18.525H19.5005C20.3338 18.525 21.0422 18.2333 21.6255 17.65C22.2088 17.0667 22.5005 16.35 22.5005 15.5V8.5ZM9.95049 9.7C9.95049 9.11667 10.1505 8.63333 10.5505 8.25C10.9505 7.85 11.4422 7.65 12.0255 7.65C12.5922 7.65 13.0672 7.85 13.4505 8.25C13.8505 8.63333 14.0505 9.11667 14.0505 9.7V11.625H13.5755V9.7C13.5755 9.26667 13.4172 8.9 13.1005 8.6C12.8005 8.28333 12.4338 8.125 12.0005 8.125C11.5672 8.125 11.1922 8.28333 10.8755 8.6C10.5755 8.9 10.4255 9.26667 10.4255 9.7V11.625H9.95049V9.7ZM8.25049 11.25H15.7505V16H8.25049V11.25ZM15.2505 15.525V11.725H8.75049V15.525H15.2505Z" fill="black"/>
</g>
<defs>
<clipPath id="clip0_3206_14228">
<rect width="24" height="24" fill="white"/>
</clipPath>
</defs>
</svg>
