<svg width="24" height="24" viewBox="0 0 24 24" fill="none" xmlns="http://www.w3.org/2000/svg">
<g clip-path="url(#clip0_3206_14876)">
<rect width="24" height="24" fill="white"/>
<path d="M1.45 17.275C1.15 16.725 1 16.1333 1 15.5V8.5C1 7.86667 1.15 7.28333 1.45 6.75C1.76667 6.2 2.19167 5.775 2.725 5.475C3.275 5.15833 3.86667 5 4.5 5H19.5C20.1333 5 20.7167 5.15833 21.25 5.475C21.8 5.775 22.225 6.2 22.525 6.75C22.8417 7.28333 23 7.86667 23 8.5V15.5C23 16.1333 22.8417 16.725 22.525 17.275C22.225 17.8083 21.8 18.2333 21.25 18.55C20.7167 18.85 20.1333 19 19.5 19H4.5C3.86667 19 3.275 18.85 2.725 18.55C2.19167 18.2333 1.76667 17.8083 1.45 17.275ZM8 11V16.25H16V11H14.425V9.55C14.425 8.88333 14.1917 8.31667 13.725 7.85C13.2583 7.38333 12.6833 7.15 12 7.15C11.3167 7.15 10.7417 7.38333 10.275 7.85C9.80833 8.31667 9.575 8.88333 9.575 9.55V11H8ZM13.55 11H10.45V9.55C10.45 9.11667 10.6 8.75 10.9 8.45C11.2 8.13333 11.5667 7.975 12 7.975C12.4333 7.975 12.8 8.13333 13.1 8.45C13.4 8.75 13.55 9.11667 13.55 9.55V11Z" fill="black"/>
</g>
<defs>
<clipPath id="clip0_3206_14876">
<rect width="24" height="24" fill="white"/>
</clipPath>
</defs>
</svg>
