<svg width="24" height="24" viewBox="0 0 24 24" fill="none" xmlns="http://www.w3.org/2000/svg">
<g clip-path="url(#clip0_3206_14766)">
<rect width="24" height="24" fill="white"/>
<path d="M8.82549 23C8.02549 23 7.29216 22.8083 6.62549 22.425C5.97549 22.0417 5.45882 21.525 5.07549 20.875C4.69216 20.2083 4.50049 19.475 4.50049 18.675V5.325C4.50049 4.525 4.69216 3.8 5.07549 3.15C5.45882 2.48333 5.97549 1.95833 6.62549 1.575C7.29216 1.19167 8.02549 1 8.82549 1H15.1755C15.9755 1 16.7005 1.19167 17.3505 1.575C18.0172 1.95833 18.5422 2.48333 18.9255 3.15C19.3088 3.8 19.5005 4.525 19.5005 5.325V18.675C19.5005 19.475 19.3088 20.2083 18.9255 20.875C18.5422 21.525 18.0172 22.0417 17.3505 22.425C16.7005 22.8083 15.9755 23 15.1755 23H8.82549ZM15.1755 20.1C15.5588 20.1 15.8838 19.9667 16.1505 19.7C16.4172 19.4167 16.5505 19.075 16.5505 18.675V5.325C16.5505 4.925 16.4172 4.59167 16.1505 4.325C15.8838 4.04167 15.5588 3.9 15.1755 3.9H8.82549C8.44216 3.9 8.11716 4.04167 7.85049 4.325C7.58382 4.59167 7.45049 4.925 7.45049 5.325V18.675C7.45049 19.075 7.58382 19.4167 7.85049 19.7C8.11716 19.9667 8.44216 20.1 8.82549 20.1H15.1755ZM9.50049 9.925C9.50049 9.20833 9.73382 8.625 10.2005 8.175C10.6838 7.70833 11.2838 7.475 12.0005 7.475C12.7172 7.475 13.3005 7.70833 13.7505 8.175C14.2172 8.625 14.4505 9.20833 14.4505 9.925V11.525H12.6505V9.925C12.6505 9.74167 12.5922 9.59167 12.4755 9.475C12.3588 9.35833 12.2005 9.3 12.0005 9.3C11.8172 9.3 11.6588 9.35833 11.5255 9.475C11.4088 9.59167 11.3505 9.74167 11.3505 9.925V11.525H9.50049V9.925ZM8.55049 10.875H15.4505V15H8.55049V10.875ZM12.1005 14.025H11.8755H12.1005Z" fill="black"/>
</g>
<defs>
<clipPath id="clip0_3206_14766">
<rect width="24" height="24" fill="white"/>
</clipPath>
</defs>
</svg>
