<svg width="24" height="24" viewBox="0 0 24 24" fill="none" xmlns="http://www.w3.org/2000/svg">
<g clip-path="url(#clip0_3206_14868)">
<rect width="24" height="24" fill="white"/>
<path d="M23.0005 15.075C23.0005 15.8417 22.8172 16.55 22.4505 17.2C22.0838 17.8333 21.5755 18.3333 20.9255 18.7C20.2922 19.0667 19.5922 19.25 18.8255 19.25H5.17549C4.40882 19.25 3.70049 19.0667 3.05049 18.7C2.41716 18.3333 1.91716 17.8333 1.55049 17.2C1.18382 16.55 1.00049 15.8417 1.00049 15.075V8.925C1.00049 8.15833 1.18382 7.45833 1.55049 6.825C1.91716 6.175 2.41716 5.66667 3.05049 5.3C3.70049 4.93333 4.40882 4.75 5.17549 4.75H18.8255C19.5922 4.75 20.2922 4.93333 20.9255 5.3C21.5755 5.66667 22.0838 6.175 22.4505 6.825C22.8172 7.45833 23.0005 8.15833 23.0005 8.925V15.075ZM20.6005 8.925C20.6005 8.40833 20.4255 7.975 20.0755 7.625C19.7422 7.275 19.3255 7.1 18.8255 7.1H5.17549C4.67549 7.1 4.25049 7.275 3.90049 7.625C3.56716 7.975 3.40049 8.40833 3.40049 8.925V15.075C3.40049 15.5917 3.56716 16.025 3.90049 16.375C4.25049 16.725 4.67549 16.9 5.17549 16.9H18.8255C19.3255 16.9 19.7422 16.725 20.0755 16.375C20.4255 16.025 20.6005 15.5917 20.6005 15.075V8.925ZM9.60049 10.15C9.60049 9.45 9.82549 8.88333 10.2755 8.45C10.7255 8 11.3005 7.775 12.0005 7.775C12.7005 7.775 13.2755 8 13.7255 8.45C14.1755 8.88333 14.4005 9.45 14.4005 10.15V11.975H12.7755V10.15C12.7755 9.93333 12.7005 9.75833 12.5505 9.625C12.4172 9.475 12.2338 9.4 12.0005 9.4C11.7672 9.4 11.5755 9.475 11.4255 9.625C11.2922 9.75833 11.2255 9.93333 11.2255 10.15V11.975H9.60049V10.15ZM8.35049 10.625H15.6505V15.725H8.35049V10.625ZM13.9005 14.05V12.325H10.1005V14.05H13.9005Z" fill="black"/>
</g>
<defs>
<clipPath id="clip0_3206_14868">
<rect width="24" height="24" fill="white"/>
</clipPath>
</defs>
</svg>
