<svg width="24" height="24" viewBox="0 0 24 24" fill="none" xmlns="http://www.w3.org/2000/svg">
<g clip-path="url(#clip0_3394_11460)">
<rect width="24" height="24" fill="white"/>
<path d="M9.92598 22C9.20931 22 8.55098 21.825 7.95098 21.475C7.35098 21.125 6.87598 20.65 6.52598 20.05C6.17598 19.45 6.00098 18.7917 6.00098 18.075V5.925C6.00098 5.20833 6.17598 4.55 6.52598 3.95C6.87598 3.35 7.35098 2.875 7.95098 2.525C8.55098 2.175 9.20931 2 9.92598 2H14.076C14.7926 2 15.451 2.175 16.051 2.525C16.651 2.875 17.126 3.35 17.476 3.95C17.826 4.55 18.001 5.20833 18.001 5.925V18.075C18.001 18.7917 17.826 19.45 17.476 20.05C17.126 20.65 16.651 21.125 16.051 21.475C15.451 21.825 14.7926 22 14.076 22H9.92598ZM14.076 19.625C14.4926 19.625 14.8426 19.475 15.126 19.175C15.426 18.875 15.576 18.5083 15.576 18.075V5.925C15.576 5.49167 15.426 5.125 15.126 4.825C14.8426 4.525 14.4926 4.375 14.076 4.375H9.92598C9.50931 4.375 9.15098 4.525 8.85098 4.825C8.56764 5.125 8.42598 5.49167 8.42598 5.925V18.075C8.42598 18.5083 8.56764 18.875 8.85098 19.175C9.15098 19.475 9.50931 19.625 9.92598 19.625H14.076ZM19.526 14.7C20.376 13.8333 20.8093 12.975 20.826 12.125C20.8426 11.275 20.4593 10.4417 19.676 9.625V8.05H21.276C22.5093 9.3 23.1176 10.6583 23.101 12.125C23.0843 13.575 22.426 14.9583 21.126 16.275L19.526 14.7ZM4.47598 9.35C3.62598 10.2167 3.19264 11.075 3.17598 11.925C3.15931 12.775 3.54264 13.6083 4.32598 14.425V16H2.72598C1.49264 14.75 0.88431 13.4 0.900977 11.95C0.917643 10.4833 1.57598 9.09167 2.87598 7.775L4.47598 9.35Z" fill="black"/>
</g>
<defs>
<clipPath id="clip0_3394_11460">
<rect width="24" height="24" fill="white"/>
</clipPath>
</defs>
</svg>
