<svg width="24" height="24" viewBox="0 0 24 24" fill="none" xmlns="http://www.w3.org/2000/svg">
<g clip-path="url(#clip0_3207_18970)">
<rect width="24" height="24" fill="white"/>
<path d="M17.0505 21.05C16.4338 21.6833 15.6672 22 14.7505 22H9.25049C8.33382 22 7.55882 21.6833 6.92549 21.05C6.30882 20.4333 6.00049 19.6667 6.00049 18.75V5.25C6.00049 4.33333 6.30882 3.56667 6.92549 2.95C7.55882 2.31667 8.33382 2 9.25049 2H14.7505C15.6672 2 16.4338 2.31667 17.0505 2.95C17.6838 3.56667 18.0005 4.33333 18.0005 5.25V18.75C18.0005 19.6667 17.6838 20.4333 17.0505 21.05ZM20.7005 12.15C20.6838 12.8667 20.3172 13.6083 19.6005 14.375L21.3005 16.05C22.4838 14.8 23.0838 13.5 23.1005 12.15C23.1172 10.7833 22.5672 9.50833 21.4505 8.325H19.7505V10.025C20.4005 10.725 20.7172 11.4333 20.7005 12.15ZM3.30049 11.875C3.31715 11.1583 3.68382 10.4167 4.40049 9.65L2.70049 7.975C1.51715 9.225 0.917155 10.5333 0.900488 11.9C0.883822 13.25 1.43382 14.5167 2.55049 15.7H4.25049V14C3.60049 13.3 3.28382 12.5917 3.30049 11.875Z" fill="black"/>
</g>
<defs>
<clipPath id="clip0_3207_18970">
<rect width="24" height="24" fill="white"/>
</clipPath>
</defs>
</svg>
