<svg width="24" height="24" viewBox="0 0 24 24" fill="none" xmlns="http://www.w3.org/2000/svg">
<g clip-path="url(#clip0_3394_11436)">
<rect width="24" height="24" fill="white"/>
<path d="M9.62598 22C8.84264 22 8.12598 21.8083 7.47598 21.425C6.82598 21.0583 6.30931 20.55 5.92598 19.9C5.54264 19.25 5.35098 18.5333 5.35098 17.75V6.25C5.35098 5.46667 5.54264 4.75 5.92598 4.1C6.30931 3.45 6.82598 2.94167 7.47598 2.575C8.12598 2.19167 8.84264 2 9.62598 2H14.376C15.1593 2 15.876 2.19167 16.526 2.575C17.176 2.94167 17.6926 3.45 18.076 4.1C18.4593 4.75 18.651 5.46667 18.651 6.25V17.75C18.651 18.5333 18.4593 19.25 18.076 19.9C17.6926 20.55 17.176 21.0583 16.526 21.425C15.876 21.8083 15.1593 22 14.376 22H9.62598ZM14.376 19.075C14.7426 19.075 15.051 18.95 15.301 18.7C15.551 18.45 15.676 18.1333 15.676 17.75V6.25C15.676 5.86667 15.551 5.55 15.301 5.3C15.051 5.05 14.7426 4.925 14.376 4.925H9.62598C9.25931 4.925 8.95098 5.05 8.70098 5.3C8.45098 5.55 8.32598 5.86667 8.32598 6.25V17.75C8.32598 18.1333 8.45098 18.45 8.70098 18.7C8.95098 18.95 9.25931 19.075 9.62598 19.075H14.376ZM19.726 14.35C20.426 13.5833 20.7843 12.85 20.801 12.15C20.8176 11.45 20.5093 10.7583 19.876 10.075V8.3H21.651C22.7676 9.5 23.3176 10.7917 23.301 12.175C23.301 13.5417 22.701 14.85 21.501 16.1L19.726 14.35ZM4.27598 9.675C3.57598 10.4417 3.21764 11.175 3.20098 11.875C3.18431 12.575 3.49264 13.2667 4.12598 13.95V15.725H2.35098C1.23431 14.525 0.675977 13.2417 0.675977 11.875C0.692643 10.4917 1.30098 9.175 2.50098 7.925L4.27598 9.675ZM10.501 8.85L12.001 10.45L13.476 8.825L15.126 10.475L13.526 12L15.126 13.5L13.476 15.15L12.001 13.55L10.501 15.15L8.85098 13.475L10.451 12L8.85098 10.5L10.501 8.85Z" fill="black"/>
</g>
<defs>
<clipPath id="clip0_3394_11436">
<rect width="24" height="24" fill="white"/>
</clipPath>
</defs>
</svg>
