<svg width="24" height="24" viewBox="0 0 24 24" fill="none" xmlns="http://www.w3.org/2000/svg">
<g clip-path="url(#clip0_3206_14864)">
<rect width="24" height="24" fill="white"/>
<path d="M23.0005 15.175C23.0005 15.875 22.8338 16.525 22.5005 17.125C22.1672 17.7083 21.7005 18.1667 21.1005 18.5C20.5172 18.8333 19.8755 19 19.1755 19H4.82549C4.12549 19 3.47549 18.8333 2.87549 18.5C2.29216 18.1667 1.83382 17.7083 1.50049 17.125C1.16716 16.525 1.00049 15.875 1.00049 15.175V8.825C1.00049 8.125 1.16716 7.48333 1.50049 6.9C1.83382 6.3 2.29216 5.83333 2.87549 5.5C3.47549 5.16667 4.12549 5 4.82549 5H19.1755C19.8755 5 20.5172 5.16667 21.1005 5.5C21.7005 5.83333 22.1672 6.3 22.5005 6.9C22.8338 7.48333 23.0005 8.125 23.0005 8.825V15.175ZM21.6005 8.825C21.6005 8.14167 21.3588 7.55833 20.8755 7.075C20.4088 6.59167 19.8422 6.35 19.1755 6.35H4.82549C4.15882 6.35 3.58382 6.59167 3.10049 7.075C2.63382 7.55833 2.40049 8.14167 2.40049 8.825V15.175C2.40049 15.8583 2.63382 16.4417 3.10049 16.925C3.58382 17.4083 4.15882 17.65 4.82549 17.65H19.1755C19.8422 17.65 20.4088 17.4083 20.8755 16.925C21.3588 16.4417 21.6005 15.8583 21.6005 15.175V8.825ZM9.80049 9.85C9.80049 9.21667 10.0088 8.69167 10.4255 8.275C10.8422 7.85833 11.3672 7.65 12.0005 7.65C12.6338 7.65 13.1588 7.85833 13.5755 8.275C13.9922 8.69167 14.2005 9.21667 14.2005 9.85V11.85H13.1005V9.85C13.1005 9.53333 12.9922 9.275 12.7755 9.075C12.5755 8.875 12.3172 8.775 12.0005 8.775C11.6838 8.775 11.4172 8.875 11.2005 9.075C11.0005 9.275 10.9005 9.53333 10.9005 9.85V11.85H9.80049V9.85ZM8.25049 10.925H15.7505V16H8.25049V10.925ZM14.5255 14.825V12.1H9.47549V14.825H14.5255Z" fill="black"/>
</g>
<defs>
<clipPath id="clip0_3206_14864">
<rect width="24" height="24" fill="white"/>
</clipPath>
</defs>
</svg>
