<svg width="24" height="24" viewBox="0 0 24 24" fill="none" xmlns="http://www.w3.org/2000/svg">
<g clip-path="url(#clip0_3206_14780)">
<rect width="24" height="24" fill="white"/>
<path d="M17.25 22.525C16.7167 22.8417 16.1333 23 15.5 23H8.5C7.86667 23 7.275 22.8417 6.725 22.525C6.19167 22.225 5.76667 21.8 5.45 21.25C5.15 20.7167 5 20.1333 5 19.5V4.5C5 3.86667 5.15 3.28333 5.45 2.75C5.76667 2.2 6.19167 1.775 6.725 1.475C7.275 1.15833 7.86667 1 8.5 1H15.5C16.1333 1 16.7167 1.15833 17.25 1.475C17.8 1.775 18.225 2.2 18.525 2.75C18.8417 3.28333 19 3.86667 19 4.5V19.5C19 20.1333 18.8417 20.7167 18.525 21.25C18.225 21.8 17.8 22.225 17.25 22.525ZM8 11V16.25H16V11H14.975V9.9C14.975 9.13333 14.6833 8.48333 14.1 7.95C13.5333 7.41667 12.8333 7.15 12 7.15C11.1833 7.15 10.4833 7.41667 9.9 7.95C9.33333 8.48333 9.05 9.13333 9.05 9.9V11H8ZM12.775 11H11.25V9.9C11.25 9.7 11.3167 9.53333 11.45 9.4C11.6 9.25 11.7833 9.175 12 9.175C12.2167 9.175 12.4 9.25 12.55 9.4C12.7 9.53333 12.775 9.7 12.775 9.9V11Z" fill="black"/>
</g>
<defs>
<clipPath id="clip0_3206_14780">
<rect width="24" height="24" fill="white"/>
</clipPath>
</defs>
</svg>
