<svg width="24" height="24" viewBox="0 0 24 24" fill="none" xmlns="http://www.w3.org/2000/svg">
<g clip-path="url(#clip0_3206_14758)">
<rect width="24" height="24" fill="white"/>
<path d="M8.67549 23C7.99216 23 7.36716 22.8333 6.80049 22.5C6.25049 22.1833 5.80882 21.7417 5.47549 21.175C5.15882 20.625 5.00049 20.0083 5.00049 19.325V4.675C5.00049 3.99167 5.15882 3.36667 5.47549 2.8C5.80882 2.23333 6.25049 1.79167 6.80049 1.475C7.36716 1.15833 7.99216 1 8.67549 1H15.3255C16.0088 1 16.6338 1.15833 17.2005 1.475C17.7672 1.79167 18.2088 2.23333 18.5255 2.8C18.8422 3.36667 19.0005 3.99167 19.0005 4.675V19.325C19.0005 20.0083 18.8422 20.625 18.5255 21.175C18.2088 21.7417 17.7672 22.1833 17.2005 22.5C16.6338 22.8333 16.0088 23 15.3255 23H8.67549ZM15.3255 22.075C16.0922 22.075 16.7338 21.8083 17.2505 21.275C17.7838 20.7417 18.0505 20.0917 18.0505 19.325V4.675C18.0505 3.90833 17.7838 3.25833 17.2505 2.725C16.7338 2.19167 16.0922 1.925 15.3255 1.925H8.67549C7.90882 1.925 7.25882 2.19167 6.72549 2.725C6.20882 3.25833 5.95049 3.90833 5.95049 4.675V19.325C5.95049 20.0917 6.20882 20.7417 6.72549 21.275C7.25882 21.8083 7.90882 22.075 8.67549 22.075H15.3255ZM10.0505 9.45C10.0505 8.9 10.2338 8.43333 10.6005 8.05C10.9838 7.66667 11.4505 7.475 12.0005 7.475C12.5505 7.475 13.0088 7.66667 13.3755 8.05C13.7588 8.43333 13.9505 8.9 13.9505 9.45V11.25H13.2255V9.45C13.2255 9.11667 13.1005 8.83333 12.8505 8.6C12.6172 8.36667 12.3338 8.25 12.0005 8.25C11.6672 8.25 11.3755 8.36667 11.1255 8.6C10.8922 8.83333 10.7755 9.11667 10.7755 9.45V11.25H10.0505V9.45ZM8.55049 10.65H15.4505V15.175H8.55049V10.65ZM14.6505 14.4V11.425H9.35049V14.4H14.6505Z" fill="black"/>
</g>
<defs>
<clipPath id="clip0_3206_14758">
<rect width="24" height="24" fill="white"/>
</clipPath>
</defs>
</svg>
