<svg width="24" height="24" viewBox="0 0 24 24" fill="none" xmlns="http://www.w3.org/2000/svg">
<g clip-path="url(#clip0_3206_14764)">
<rect width="24" height="24" fill="white"/>
<path d="M8.75049 22.825C7.98382 22.825 7.27549 22.6417 6.62549 22.275C5.99216 21.9083 5.49216 21.4083 5.12549 20.775C4.75882 20.1417 4.57549 19.4417 4.57549 18.675V5.325C4.57549 4.55833 4.75882 3.85833 5.12549 3.225C5.49216 2.59167 5.99216 2.09167 6.62549 1.725C7.27549 1.35833 7.98382 1.175 8.75049 1.175H15.2505C16.0172 1.175 16.7172 1.35833 17.3505 1.725C18.0005 2.09167 18.5088 2.59167 18.8755 3.225C19.2422 3.85833 19.4255 4.55833 19.4255 5.325V18.675C19.4255 19.4417 19.2422 20.1417 18.8755 20.775C18.5088 21.4083 18.0005 21.9083 17.3505 22.275C16.7172 22.6417 16.0172 22.825 15.2505 22.825H8.75049ZM15.2505 20.45C15.7338 20.45 16.1422 20.2833 16.4755 19.95C16.8088 19.6 16.9755 19.175 16.9755 18.675V5.325C16.9755 4.825 16.8088 4.40833 16.4755 4.075C16.1422 3.725 15.7338 3.55 15.2505 3.55H8.75049C8.26716 3.55 7.85882 3.725 7.52549 4.075C7.19216 4.40833 7.02549 4.825 7.02549 5.325V18.675C7.02549 19.175 7.19216 19.6 7.52549 19.95C7.85882 20.2833 8.26716 20.45 8.75049 20.45H15.2505ZM9.72549 9.775C9.72549 9.10833 9.93382 8.55833 10.3505 8.125C10.7838 7.69167 11.3338 7.475 12.0005 7.475C12.6505 7.475 13.1922 7.69167 13.6255 8.125C14.0588 8.55833 14.2755 9.10833 14.2755 9.775V11.475H12.7005V9.775C12.7005 9.55833 12.6338 9.38333 12.5005 9.25C12.3838 9.11667 12.2172 9.05 12.0005 9.05C11.8005 9.05 11.6255 9.11667 11.4755 9.25C11.3422 9.38333 11.2755 9.55833 11.2755 9.775V11.475H9.72549V9.775ZM8.55049 10.175H15.4505V15H8.55049V10.175ZM13.8005 13.4V11.825H10.2005V13.4H13.8005Z" fill="black"/>
</g>
<defs>
<clipPath id="clip0_3206_14764">
<rect width="24" height="24" fill="white"/>
</clipPath>
</defs>
</svg>
