<svg width="24" height="24" viewBox="0 0 24 24" fill="none" xmlns="http://www.w3.org/2000/svg">
<g clip-path="url(#clip0_3206_14862)">
<rect width="24" height="24" fill="white"/>
<path d="M23.0005 15.325C23.0005 16.0083 22.8422 16.6333 22.5255 17.2C22.2088 17.75 21.7672 18.1917 21.2005 18.525C20.6338 18.8417 20.0088 19 19.3255 19H4.67549C3.99216 19 3.36716 18.8417 2.80049 18.525C2.25049 18.1917 1.80882 17.75 1.47549 17.2C1.15882 16.6333 1.00049 16.0083 1.00049 15.325V8.675C1.00049 7.99167 1.15882 7.36667 1.47549 6.8C1.80882 6.23333 2.25049 5.79167 2.80049 5.475C3.36716 5.15833 3.99216 5 4.67549 5H19.3255C20.0088 5 20.6338 5.15833 21.2005 5.475C21.7672 5.79167 22.2088 6.23333 22.5255 6.8C22.8422 7.36667 23.0005 7.99167 23.0005 8.675V15.325ZM22.0505 8.675C22.0505 7.89167 21.7838 7.24167 21.2505 6.725C20.7338 6.19167 20.0922 5.925 19.3255 5.925H4.67549C3.90882 5.925 3.25882 6.19167 2.72549 6.725C2.20882 7.24167 1.95049 7.89167 1.95049 8.675V15.325C1.95049 16.1083 2.20882 16.7667 2.72549 17.3C3.25882 17.8167 3.90882 18.075 4.67549 18.075H19.3255C20.0922 18.075 20.7338 17.8167 21.2505 17.3C21.7838 16.7667 22.0505 16.1083 22.0505 15.325V8.675ZM9.87549 9.775C9.87549 9.15833 10.0755 8.65 10.4755 8.25C10.8922 7.85 11.4005 7.65 12.0005 7.65C12.6172 7.65 13.1255 7.85 13.5255 8.25C13.9255 8.65 14.1255 9.15833 14.1255 9.775V11.75H13.3255V9.775C13.3255 9.40833 13.2005 9.1 12.9505 8.85C12.7005 8.58333 12.3838 8.45 12.0005 8.45C11.6172 8.45 11.3005 8.58333 11.0505 8.85C10.8005 9.1 10.6755 9.40833 10.6755 9.775V11.75H9.87549V9.775ZM8.25049 11.075H15.7505V16H8.25049V11.075ZM14.9005 15.175V11.9H9.10049V15.175H14.9005Z" fill="black"/>
</g>
<defs>
<clipPath id="clip0_3206_14862">
<rect width="24" height="24" fill="white"/>
</clipPath>
</defs>
</svg>
