<svg width="24" height="24" viewBox="0 0 24 24" fill="none" xmlns="http://www.w3.org/2000/svg">
<g clip-path="url(#clip0_3394_11436)">
<rect width="24" height="24" fill="white"/>
<path d="M9.57598 22C8.79264 22 8.07598 21.8083 7.42598 21.425C6.79264 21.0583 6.28431 20.55 5.90098 19.9C5.51764 19.25 5.32598 18.5333 5.32598 17.75V6.25C5.32598 5.46667 5.51764 4.75 5.90098 4.1C6.28431 3.45 6.79264 2.94167 7.42598 2.575C8.07598 2.19167 8.79264 2 9.57598 2H14.426C15.2093 2 15.9176 2.19167 16.551 2.575C17.201 2.94167 17.7176 3.45 18.101 4.1C18.4843 4.75 18.676 5.46667 18.676 6.25V17.75C18.676 18.5333 18.4843 19.25 18.101 19.9C17.7176 20.55 17.201 21.0583 16.551 21.425C15.9176 21.8083 15.2093 22 14.426 22H9.57598ZM14.426 19.1C14.7926 19.1 15.101 18.975 15.351 18.725C15.601 18.4583 15.726 18.1333 15.726 17.75V6.25C15.726 5.86667 15.601 5.55 15.351 5.3C15.101 5.03333 14.7926 4.9 14.426 4.9H9.57598C9.20931 4.9 8.90098 5.03333 8.65098 5.3C8.40098 5.55 8.27598 5.86667 8.27598 6.25V17.75C8.27598 18.1333 8.40098 18.4583 8.65098 18.725C8.90098 18.975 9.20931 19.1 9.57598 19.1H14.426ZM19.926 14.375C20.6426 13.6083 21.0093 12.8667 21.026 12.15C21.0426 11.4333 20.726 10.725 20.076 10.025V8.325H21.776C22.8926 9.50833 23.4426 10.7833 23.426 12.15C23.4093 13.5 22.8093 14.8 21.626 16.05L19.926 14.375ZM4.07598 9.65C3.35931 10.4167 2.99264 11.1583 2.97598 11.875C2.95931 12.5917 3.27598 13.3 3.92598 14V15.7H2.22598C1.10931 14.5167 0.55931 13.25 0.575977 11.9C0.592643 10.5333 1.19264 9.225 2.37598 7.975L4.07598 9.65ZM10.476 8.875L12.001 10.5L13.526 8.85L15.126 10.475L13.476 12L15.126 13.525L13.526 15.125L12.001 13.475L10.451 15.125L8.87598 13.525L10.501 12L8.87598 10.475L10.476 8.875Z" fill="black"/>
</g>
<defs>
<clipPath id="clip0_3394_11436">
<rect width="24" height="24" fill="white"/>
</clipPath>
</defs>
</svg>
