<svg width="24" height="24" viewBox="0 0 24 24" fill="none" xmlns="http://www.w3.org/2000/svg">
<g clip-path="url(#clip0_3207_18968)">
<rect width="24" height="24" fill="white"/>
<path d="M17.0505 21.05C16.4338 21.6833 15.6672 22 14.7505 22H9.25049C8.33382 22 7.55882 21.6833 6.92549 21.05C6.30882 20.4333 6.00049 19.6667 6.00049 18.75V5.25C6.00049 4.33333 6.30882 3.56667 6.92549 2.95C7.55882 2.31667 8.33382 2 9.25049 2H14.7505C15.6672 2 16.4338 2.31667 17.0505 2.95C17.6838 3.56667 18.0005 4.33333 18.0005 5.25V18.75C18.0005 19.6667 17.6838 20.4333 17.0505 21.05ZM21.0005 12.1C20.9838 12.9333 20.5588 13.7667 19.7255 14.6L21.2005 16.05C22.4505 14.8167 23.0755 13.5 23.0755 12.1C23.0922 10.7 22.5088 9.40833 21.3255 8.225H19.8505V9.675C20.6338 10.4583 21.0172 11.2667 21.0005 12.1ZM3.00049 11.95C3.01716 11.1167 3.44216 10.2833 4.27549 9.45L2.80049 8C1.55049 9.23333 0.917155 10.55 0.900488 11.95C0.900488 13.35 1.49216 14.6417 2.67549 15.825H4.15049V14.375C3.36716 13.5917 2.98382 12.7833 3.00049 11.95Z" fill="black"/>
</g>
<defs>
<clipPath id="clip0_3207_18968">
<rect width="24" height="24" fill="white"/>
</clipPath>
</defs>
</svg>
