<svg width="24" height="24" viewBox="0 0 24 24" fill="none" xmlns="http://www.w3.org/2000/svg">
<g clip-path="url(#clip0_3206_14878)">
<rect width="24" height="24" fill="white"/>
<path d="M1.45 17.275C1.15 16.725 1 16.1333 1 15.5V8.5C1 7.86667 1.15 7.28333 1.45 6.75C1.76667 6.2 2.19167 5.775 2.725 5.475C3.275 5.15833 3.86667 5 4.5 5H19.5C20.1333 5 20.7167 5.15833 21.25 5.475C21.8 5.775 22.225 6.2 22.525 6.75C22.8417 7.28333 23 7.86667 23 8.5V15.5C23 16.1333 22.8417 16.725 22.525 17.275C22.225 17.8083 21.8 18.2333 21.25 18.55C20.7167 18.85 20.1333 19 19.5 19H4.5C3.86667 19 3.275 18.85 2.725 18.55C2.19167 18.2333 1.76667 17.8083 1.45 17.275ZM8 11V16.25H16V11H14.525V9.65C14.525 8.95 14.275 8.35833 13.775 7.875C13.2917 7.39167 12.7 7.15 12 7.15C11.3 7.15 10.7 7.39167 10.2 7.875C9.71667 8.35833 9.475 8.95 9.475 9.65V11H8ZM13.325 11H10.675V9.65C10.675 9.28333 10.8 8.975 11.05 8.725C11.3167 8.475 11.6333 8.35 12 8.35C12.3667 8.35 12.675 8.475 12.925 8.725C13.1917 8.975 13.325 9.28333 13.325 9.65V11Z" fill="black"/>
</g>
<defs>
<clipPath id="clip0_3206_14878">
<rect width="24" height="24" fill="white"/>
</clipPath>
</defs>
</svg>
