<svg width="24" height="24" viewBox="0 0 24 24" fill="none" xmlns="http://www.w3.org/2000/svg">
<g clip-path="url(#clip0_3207_18964)">
<rect width="24" height="24" fill="white"/>
<path d="M17.0505 21.05C16.4338 21.6833 15.6672 22 14.7505 22H9.25049C8.33382 22 7.55882 21.6833 6.92549 21.05C6.30882 20.4333 6.00049 19.6667 6.00049 18.75V5.25C6.00049 4.33333 6.30882 3.56667 6.92549 2.95C7.55882 2.31667 8.33382 2 9.25049 2H14.7505C15.6672 2 16.4338 2.31667 17.0505 2.95C17.6838 3.56667 18.0005 4.33333 18.0005 5.25V18.75C18.0005 19.6667 17.6838 20.4333 17.0505 21.05ZM21.7505 12.075C21.7505 13.0583 21.2588 14.025 20.2755 14.975L21.2255 15.9C22.4755 14.7 23.1005 13.425 23.1005 12.075C23.1005 10.725 22.5005 9.45833 21.3005 8.275H20.3505V9.225C21.2838 10.125 21.7505 11.075 21.7505 12.075ZM2.25049 11.975C2.26716 10.975 2.75882 10.0083 3.72549 9.075L2.77549 8.125C1.54216 9.34167 0.917155 10.625 0.900488 11.975C0.900488 13.325 1.50049 14.5833 2.70049 15.75H3.65049V14.825C2.71716 13.9083 2.25049 12.9583 2.25049 11.975Z" fill="black"/>
</g>
<defs>
<clipPath id="clip0_3207_18964">
<rect width="24" height="24" fill="white"/>
</clipPath>
</defs>
</svg>
