<svg width="24" height="24" viewBox="0 0 24 24" fill="none" xmlns="http://www.w3.org/2000/svg">
<g clip-path="url(#clip0_3206_14228)">
<rect width="24" height="24" fill="white"/>
<path d="M23.5005 15.5C23.5005 16.1333 23.3422 16.725 23.0255 17.275C22.7255 17.8083 22.3088 18.2333 21.7755 18.55C21.2422 18.85 20.6505 19 20.0005 19H4.00049C3.36716 19 2.77549 18.85 2.22549 18.55C1.69216 18.2333 1.26716 17.8083 0.950488 17.275C0.650488 16.725 0.500488 16.1333 0.500488 15.5V8.5C0.500488 7.85 0.650488 7.25833 0.950488 6.725C1.26716 6.19167 1.69216 5.775 2.22549 5.475C2.77549 5.15833 3.36716 5 4.00049 5H20.0005C20.6505 5 21.2422 5.15833 21.7755 5.475C22.3088 5.775 22.7255 6.19167 23.0255 6.725C23.3422 7.25833 23.5005 7.85 23.5005 8.5V15.5ZM23.0005 8.5C23.0005 7.65 22.7088 6.93333 22.1255 6.35C21.5422 5.76667 20.8338 5.475 20.0005 5.475H4.00049C3.16716 5.475 2.45882 5.76667 1.87549 6.35C1.29216 6.93333 1.00049 7.65 1.00049 8.5V15.5C1.00049 16.35 1.29216 17.0667 1.87549 17.65C2.45882 18.2333 3.16716 18.525 4.00049 18.525H20.0005C20.8338 18.525 21.5422 18.2333 22.1255 17.65C22.7088 17.0667 23.0005 16.35 23.0005 15.5V8.5ZM9.95049 9.7C9.95049 9.11667 10.1505 8.63333 10.5505 8.25C10.9505 7.85 11.4338 7.65 12.0005 7.65C12.5838 7.65 13.0672 7.85 13.4505 8.25C13.8505 8.63333 14.0505 9.11667 14.0505 9.7V11.625H13.5755V9.7C13.5755 9.26667 13.4172 8.9 13.1005 8.6C12.8005 8.28333 12.4338 8.125 12.0005 8.125C11.5672 8.125 11.1922 8.28333 10.8755 8.6C10.5755 8.9 10.4255 9.26667 10.4255 9.7V11.625H9.95049V9.7ZM8.25049 11.25H15.7505V16H8.25049V11.25ZM15.2505 15.525V11.725H8.75049V15.525H15.2505Z" fill="black"/>
</g>
<defs>
<clipPath id="clip0_3206_14228">
<rect width="24" height="24" fill="white"/>
</clipPath>
</defs>
</svg>
