<svg width="24" height="24" viewBox="0 0 24 24" fill="none" xmlns="http://www.w3.org/2000/svg">
<g clip-path="url(#clip0_3206_14880)">
<rect width="24" height="24" fill="white"/>
<path d="M1.45 17.275C1.15 16.725 1 16.1333 1 15.5V8.5C1 7.86667 1.15 7.28333 1.45 6.75C1.76667 6.2 2.19167 5.775 2.725 5.475C3.275 5.15833 3.86667 5 4.5 5H19.5C20.1333 5 20.7167 5.15833 21.25 5.475C21.8 5.775 22.225 6.2 22.525 6.75C22.8417 7.28333 23 7.86667 23 8.5V15.5C23 16.1333 22.8417 16.725 22.525 17.275C22.225 17.8083 21.8 18.2333 21.25 18.55C20.7167 18.85 20.1333 19 19.5 19H4.5C3.86667 19 3.275 18.85 2.725 18.55C2.19167 18.2333 1.76667 17.8083 1.45 17.275ZM8 11V16.25H16V11H14.65V9.775C14.65 9.04167 14.3917 8.425 13.875 7.925C13.3583 7.40833 12.7333 7.15 12 7.15C11.2667 7.15 10.6417 7.40833 10.125 7.925C9.60833 8.425 9.35 9.04167 9.35 9.775V11H8ZM13.075 11H10.925V9.775C10.925 9.475 11.025 9.225 11.225 9.025C11.4417 8.80833 11.7 8.7 12 8.7C12.3 8.7 12.55 8.80833 12.75 9.025C12.9667 9.225 13.075 9.475 13.075 9.775V11Z" fill="black"/>
</g>
<defs>
<clipPath id="clip0_3206_14880">
<rect width="24" height="24" fill="white"/>
</clipPath>
</defs>
</svg>
