<svg width="24" height="24" viewBox="0 0 24 24" fill="none" xmlns="http://www.w3.org/2000/svg">
<g clip-path="url(#clip0_3208_21929)">
<rect width="24" height="24" fill="white"/>
<path d="M12.0005 10.75C12.5172 10.75 12.9338 10.5917 13.2505 10.275C13.5838 9.95833 13.7505 9.525 13.7505 8.975V6.775C13.7505 6.225 13.5838 5.79167 13.2505 5.475C12.9338 5.15833 12.5172 5 12.0005 5C11.4838 5 11.0588 5.15833 10.7255 5.475C10.4088 5.79167 10.2505 6.225 10.2505 6.775V8.975C10.2505 9.525 10.4088 9.95833 10.7255 10.275C11.0588 10.5917 11.4838 10.75 12.0005 10.75ZM12.0005 22.375C9.43382 22.375 7.45882 21.6667 6.07549 20.25C4.69216 18.8167 4.00049 16.775 4.00049 14.125V5.5C4.00049 4.86667 4.15049 4.28333 4.45049 3.75C4.76716 3.2 5.19216 2.775 5.72549 2.475C6.27549 2.15833 6.86716 2 7.50049 2H16.5005C17.1338 2 17.7172 2.15833 18.2505 2.475C18.8005 2.775 19.2255 3.2 19.5255 3.75C19.8422 4.28333 20.0005 4.86667 20.0005 5.5V14.125C20.0005 16.775 19.3088 18.8167 17.9255 20.25C16.5422 21.6667 14.5672 22.375 12.0005 22.375Z" fill="black"/>
</g>
<defs>
<clipPath id="clip0_3208_21929">
<rect width="24" height="24" fill="white"/>
</clipPath>
</defs>
</svg>
