<svg width="24" height="24" viewBox="0 0 24 24" fill="none" xmlns="http://www.w3.org/2000/svg">
<g clip-path="url(#clip0_3207_18518)">
<rect width="24" height="24" fill="white"/>
<path d="M12.001 5.25L14.751 8L14.401 8.35L12.251 6.15V13.85L14.401 11.65L14.751 12L12.001 14.75L9.22598 12L9.57598 11.65L11.751 13.825V6.175L9.57598 8.35L9.22598 8L12.001 5.25ZM12.001 22.375C9.43431 22.375 7.45931 21.6667 6.07598 20.25C4.69264 18.8167 4.00098 16.775 4.00098 14.125V5.5C4.00098 4.85 4.15098 4.25833 4.45098 3.725C4.76764 3.19167 5.19264 2.775 5.72598 2.475C6.27598 2.15833 6.86764 2 7.50098 2H16.501C17.151 2 17.7426 2.15833 18.276 2.475C18.8093 2.775 19.226 3.19167 19.526 3.725C19.8426 4.25833 20.001 4.85 20.001 5.5V14.125C20.001 16.775 19.3093 18.8167 17.926 20.25C16.5426 21.6667 14.5676 22.375 12.001 22.375ZM12.001 21.9C14.401 21.9 16.251 21.225 17.551 19.875C18.851 18.525 19.501 16.6083 19.501 14.125V5.5C19.501 4.65 19.2093 3.93333 18.626 3.35C18.0426 2.76667 17.3343 2.475 16.501 2.475H7.50098C6.66764 2.475 5.95931 2.76667 5.37598 3.35C4.79264 3.93333 4.50098 4.65 4.50098 5.5V14.125C4.50098 16.6083 5.15098 18.525 6.45098 19.875C7.75098 21.225 9.60098 21.9 12.001 21.9Z" fill="black"/>
</g>
<defs>
<clipPath id="clip0_3207_18518">
<rect width="24" height="24" fill="white"/>
</clipPath>
</defs>
</svg>
