<svg width="24" height="24" viewBox="0 0 24 24" fill="none" xmlns="http://www.w3.org/2000/svg">
<g clip-path="url(#clip0_3208_21909)">
<rect width="24" height="24" fill="white"/>
<path d="M12.001 9.675C11.701 9.675 11.451 9.575 11.251 9.375C11.051 9.15833 10.951 8.89167 10.951 8.575V6.6C10.951 6.28333 11.051 6.025 11.251 5.825C11.451 5.60833 11.701 5.5 12.001 5.5C12.301 5.5 12.551 5.60833 12.751 5.825C12.951 6.025 13.051 6.28333 13.051 6.6V8.575C13.051 8.89167 12.951 9.15833 12.751 9.375C12.551 9.575 12.301 9.675 12.001 9.675ZM12.001 22.375C9.43431 22.375 7.45931 21.6667 6.07598 20.25C4.69264 18.8167 4.00098 16.775 4.00098 14.125V6C4.00098 5.26667 4.17598 4.59167 4.52598 3.975C4.87598 3.35833 5.35931 2.875 5.97598 2.525C6.59264 2.175 7.26764 2 8.00098 2H16.001C16.7343 2 17.4093 2.175 18.026 2.525C18.6426 2.875 19.126 3.35833 19.476 3.975C19.826 4.59167 20.001 5.26667 20.001 6V14.125C20.001 16.775 19.3093 18.8167 17.926 20.25C16.5426 21.6667 14.5676 22.375 12.001 22.375ZM12.001 20.475C13.9343 20.475 15.426 19.925 16.476 18.825C17.526 17.725 18.051 16.1583 18.051 14.125V6C18.051 5.4 17.851 4.9 17.451 4.5C17.0676 4.1 16.5843 3.9 16.001 3.9H8.00098C7.41764 3.9 6.92598 4.1 6.52598 4.5C6.14264 4.9 5.95098 5.4 5.95098 6V14.125C5.95098 16.1583 6.47598 17.725 7.52598 18.825C8.57598 19.925 10.0676 20.475 12.001 20.475Z" fill="black"/>
</g>
<defs>
<clipPath id="clip0_3208_21909">
<rect width="24" height="24" fill="white"/>
</clipPath>
</defs>
</svg>
