<svg width="24" height="24" viewBox="0 0 24 24" fill="none" xmlns="http://www.w3.org/2000/svg">
<g clip-path="url(#clip0_3207_18590)">
<rect width="24" height="24" fill="white"/>
<path d="M3.00098 3H21.001V21H3.00098V3ZM18.676 18.75V13.1H5.32598V18.75H18.676ZM18.676 10.85V5.25H5.32598V10.85H18.676ZM12.226 9.425C11.8426 9.425 11.526 9.3 11.276 9.05C11.026 8.8 10.901 8.48333 10.901 8.1C10.901 7.71667 11.026 7.4 11.276 7.15C11.526 6.9 11.8426 6.775 12.226 6.775C12.6093 6.775 12.926 6.9 13.176 7.15C13.4426 7.4 13.576 7.71667 13.576 8.1C13.576 8.48333 13.4426 8.8 13.176 9.05C12.926 9.3 12.6093 9.425 12.226 9.425ZM16.051 9.425C15.6676 9.425 15.351 9.3 15.101 9.05C14.851 8.8 14.726 8.48333 14.726 8.1C14.726 7.71667 14.851 7.4 15.101 7.15C15.351 6.9 15.6676 6.775 16.051 6.775C16.4343 6.775 16.751 6.9 17.001 7.15C17.251 7.4 17.376 7.71667 17.376 8.1C17.376 8.48333 17.251 8.8 17.001 9.05C16.751 9.3 16.4343 9.425 16.051 9.425ZM12.226 17.225C11.8426 17.225 11.526 17.1 11.276 16.85C11.026 16.6 10.901 16.2833 10.901 15.9C10.901 15.5167 11.026 15.2 11.276 14.95C11.526 14.7 11.8426 14.575 12.226 14.575C12.6093 14.575 12.926 14.7 13.176 14.95C13.4426 15.2 13.576 15.5167 13.576 15.9C13.576 16.2833 13.4426 16.6 13.176 16.85C12.926 17.1 12.6093 17.225 12.226 17.225ZM16.051 17.225C15.6676 17.225 15.351 17.1 15.101 16.85C14.851 16.6 14.726 16.2833 14.726 15.9C14.726 15.5167 14.851 15.2 15.101 14.95C15.351 14.7 15.6676 14.575 16.051 14.575C16.4343 14.575 16.751 14.7 17.001 14.95C17.251 15.2 17.376 15.5167 17.376 15.9C17.376 16.2833 17.251 16.6 17.001 16.85C16.751 17.1 16.4343 17.225 16.051 17.225Z" fill="black"/>
</g>
<defs>
<clipPath id="clip0_3207_18590">
<rect width="24" height="24" fill="white"/>
</clipPath>
</defs>
</svg>
