<svg width="24" height="24" viewBox="0 0 24 24" fill="none" xmlns="http://www.w3.org/2000/svg">
<g clip-path="url(#clip0_3207_18592)">
<rect width="24" height="24" fill="white"/>
<path d="M3.00098 3H21.001V21H3.00098V3ZM18.151 18.225V13.375H5.85098V18.225H18.151ZM18.151 10.6V5.775H5.85098V10.6H18.151ZM11.951 9.625C11.5343 9.625 11.1926 9.5 10.926 9.25C10.6593 8.98333 10.526 8.64167 10.526 8.225C10.526 7.79167 10.6593 7.44167 10.926 7.175C11.1926 6.90833 11.5343 6.775 11.951 6.775C12.3843 6.775 12.7343 6.90833 13.001 7.175C13.2676 7.44167 13.401 7.79167 13.401 8.225C13.401 8.64167 13.2676 8.98333 13.001 9.25C12.7343 9.5 12.3843 9.625 11.951 9.625ZM15.751 9.625C15.3176 9.625 14.9676 9.5 14.701 9.25C14.4343 8.98333 14.301 8.64167 14.301 8.225C14.301 7.79167 14.4343 7.44167 14.701 7.175C14.9676 6.90833 15.3176 6.775 15.751 6.775C16.1676 6.775 16.501 6.90833 16.751 7.175C17.0176 7.44167 17.151 7.79167 17.151 8.225C17.151 8.64167 17.0176 8.98333 16.751 9.25C16.501 9.5 16.1676 9.625 15.751 9.625ZM11.951 17.225C11.5343 17.225 11.1926 17.0917 10.926 16.825C10.6593 16.5583 10.526 16.2083 10.526 15.775C10.526 15.3583 10.6593 15.025 10.926 14.775C11.1926 14.5083 11.5343 14.375 11.951 14.375C12.3843 14.375 12.7343 14.5083 13.001 14.775C13.2676 15.025 13.401 15.3583 13.401 15.775C13.401 16.2083 13.2676 16.5583 13.001 16.825C12.7343 17.0917 12.3843 17.225 11.951 17.225ZM15.751 17.225C15.3176 17.225 14.9676 17.0917 14.701 16.825C14.4343 16.5583 14.301 16.2083 14.301 15.775C14.301 15.3583 14.4343 15.025 14.701 14.775C14.9676 14.5083 15.3176 14.375 15.751 14.375C16.1676 14.375 16.501 14.5083 16.751 14.775C17.0176 15.025 17.151 15.3583 17.151 15.775C17.151 16.2083 17.0176 16.5583 16.751 16.825C16.501 17.0917 16.1676 17.225 15.751 17.225Z" fill="black"/>
</g>
<defs>
<clipPath id="clip0_3207_18592">
<rect width="24" height="24" fill="white"/>
</clipPath>
</defs>
</svg>
