<svg width="24" height="24" viewBox="0 0 24 24" fill="none" xmlns="http://www.w3.org/2000/svg">
<g clip-path="url(#clip0_3207_18592)">
<rect width="24" height="24" fill="white"/>
<path d="M3.00098 3H21.001V21H3.00098V3ZM18.226 18.3V13.35H5.77598V18.3H18.226ZM18.226 10.65V5.7H5.77598V10.65H18.226ZM12.001 9.625C11.5676 9.625 11.2176 9.5 10.951 9.25C10.701 8.98333 10.576 8.63333 10.576 8.2C10.576 7.78333 10.701 7.44167 10.951 7.175C11.2176 6.90833 11.5676 6.775 12.001 6.775C12.4176 6.775 12.751 6.90833 13.001 7.175C13.2676 7.44167 13.401 7.78333 13.401 8.2C13.401 8.63333 13.2676 8.98333 13.001 9.25C12.751 9.5 12.4176 9.625 12.001 9.625ZM15.776 9.625C15.3426 9.625 14.9926 9.5 14.726 9.25C14.476 8.98333 14.351 8.63333 14.351 8.2C14.351 7.78333 14.476 7.44167 14.726 7.175C14.9926 6.90833 15.3426 6.775 15.776 6.775C16.1926 6.775 16.5343 6.90833 16.801 7.175C17.0676 7.44167 17.201 7.78333 17.201 8.2C17.201 8.63333 17.0676 8.98333 16.801 9.25C16.5343 9.5 16.1926 9.625 15.776 9.625ZM12.001 17.225C11.5676 17.225 11.2176 17.1 10.951 16.85C10.701 16.5833 10.576 16.2333 10.576 15.8C10.576 15.3833 10.701 15.0417 10.951 14.775C11.2176 14.5083 11.5676 14.375 12.001 14.375C12.4176 14.375 12.751 14.5083 13.001 14.775C13.2676 15.0417 13.401 15.3833 13.401 15.8C13.401 16.2333 13.2676 16.5833 13.001 16.85C12.751 17.1 12.4176 17.225 12.001 17.225ZM15.776 17.225C15.3426 17.225 14.9926 17.1 14.726 16.85C14.476 16.5833 14.351 16.2333 14.351 15.8C14.351 15.3833 14.476 15.0417 14.726 14.775C14.9926 14.5083 15.3426 14.375 15.776 14.375C16.1926 14.375 16.5343 14.5083 16.801 14.775C17.0676 15.0417 17.201 15.3833 17.201 15.8C17.201 16.2333 17.0676 16.5833 16.801 16.85C16.5343 17.1 16.1926 17.225 15.776 17.225Z" fill="black"/>
</g>
<defs>
<clipPath id="clip0_3207_18592">
<rect width="24" height="24" fill="white"/>
</clipPath>
</defs>
</svg>
