<svg width="24" height="24" viewBox="0 0 24 24" fill="none" xmlns="http://www.w3.org/2000/svg">
<g clip-path="url(#clip0_3207_18598)">
<rect width="24" height="24" fill="white"/>
<path d="M3.00049 3H21.0005V11.5H3.00049V3ZM3.00049 12.475H21.0005V21H3.00049V12.475ZM14.0505 17.525C14.2672 17.525 14.4505 17.45 14.6005 17.3C14.7505 17.15 14.8255 16.9583 14.8255 16.725C14.8255 16.5083 14.7505 16.325 14.6005 16.175C14.4505 16.025 14.2672 15.95 14.0505 15.95C13.8338 15.95 13.6422 16.025 13.4755 16.175C13.3255 16.325 13.2505 16.5083 13.2505 16.725C13.2505 16.9583 13.3255 17.15 13.4755 17.3C13.6422 17.45 13.8338 17.525 14.0505 17.525ZM17.7255 17.525C17.9422 17.525 18.1255 17.45 18.2755 17.3C18.4255 17.15 18.5005 16.9583 18.5005 16.725C18.5005 16.5083 18.4255 16.325 18.2755 16.175C18.1255 16.025 17.9422 15.95 17.7255 15.95C17.4922 15.95 17.3005 16.025 17.1505 16.175C17.0005 16.325 16.9255 16.5083 16.9255 16.725C16.9255 16.9583 17.0005 17.15 17.1505 17.3C17.3005 17.45 17.4922 17.525 17.7255 17.525ZM14.0505 8.05C14.2672 8.05 14.4505 7.975 14.6005 7.825C14.7505 7.65833 14.8255 7.46667 14.8255 7.25C14.8255 7.03333 14.7505 6.85 14.6005 6.7C14.4505 6.53333 14.2672 6.45 14.0505 6.45C13.8338 6.45 13.6422 6.53333 13.4755 6.7C13.3255 6.85 13.2505 7.03333 13.2505 7.25C13.2505 7.46667 13.3255 7.65833 13.4755 7.825C13.6422 7.975 13.8338 8.05 14.0505 8.05ZM17.7255 8.05C17.9422 8.05 18.1255 7.975 18.2755 7.825C18.4255 7.65833 18.5005 7.46667 18.5005 7.25C18.5005 7.03333 18.4255 6.85 18.2755 6.7C18.1255 6.53333 17.9422 6.45 17.7255 6.45C17.4922 6.45 17.3005 6.53333 17.1505 6.7C17.0005 6.85 16.9255 7.03333 16.9255 7.25C16.9255 7.46667 17.0005 7.65833 17.1505 7.825C17.3005 7.975 17.4922 8.05 17.7255 8.05Z" fill="black"/>
</g>
<defs>
<clipPath id="clip0_3207_18598">
<rect width="24" height="24" fill="white"/>
</clipPath>
</defs>
</svg>
