<svg width="24" height="24" viewBox="0 0 24 24" fill="none" xmlns="http://www.w3.org/2000/svg">
<g clip-path="url(#clip0_3207_18584)">
<rect width="24" height="24" fill="white"/>
<path d="M3.00098 3H21.001V21H3.00098V3ZM20.051 20.075V12.45H3.95098V20.075H20.051ZM20.051 11.525V3.925H3.95098V11.525H20.051ZM13.676 8.5C13.4593 8.5 13.276 8.43333 13.126 8.3C12.976 8.15 12.901 7.96667 12.901 7.75C12.901 7.55 12.976 7.375 13.126 7.225C13.276 7.075 13.451 7 13.651 7C13.851 7 14.026 7.075 14.176 7.225C14.326 7.375 14.401 7.55 14.401 7.75C14.401 7.95 14.326 8.125 14.176 8.275C14.026 8.425 13.8593 8.5 13.676 8.5ZM17.126 8.5C16.9093 8.5 16.726 8.43333 16.576 8.3C16.426 8.15 16.351 7.96667 16.351 7.75C16.351 7.55 16.426 7.375 16.576 7.225C16.726 7.075 16.901 7 17.101 7C17.301 7 17.476 7.075 17.626 7.225C17.776 7.375 17.851 7.55 17.851 7.75C17.851 7.95 17.776 8.125 17.626 8.275C17.476 8.425 17.3093 8.5 17.126 8.5ZM13.676 17C13.4593 17 13.276 16.9333 13.126 16.8C12.976 16.65 12.901 16.4667 12.901 16.25C12.901 16.05 12.976 15.875 13.126 15.725C13.276 15.575 13.451 15.5 13.651 15.5C13.851 15.5 14.026 15.575 14.176 15.725C14.326 15.875 14.401 16.05 14.401 16.25C14.401 16.45 14.326 16.625 14.176 16.775C14.026 16.925 13.8593 17 13.676 17ZM17.126 17C16.9093 17 16.726 16.9333 16.576 16.8C16.426 16.65 16.351 16.4667 16.351 16.25C16.351 16.05 16.426 15.875 16.576 15.725C16.726 15.575 16.901 15.5 17.101 15.5C17.301 15.5 17.476 15.575 17.626 15.725C17.776 15.875 17.851 16.05 17.851 16.25C17.851 16.45 17.776 16.625 17.626 16.775C17.476 16.925 17.3093 17 17.126 17Z" fill="black"/>
</g>
<defs>
<clipPath id="clip0_3207_18584">
<rect width="24" height="24" fill="white"/>
</clipPath>
</defs>
</svg>
