<svg width="24" height="24" viewBox="0 0 24 24" fill="none" xmlns="http://www.w3.org/2000/svg">
<g clip-path="url(#clip0_3394_11404)">
<rect width="24" height="24" fill="white"/>
<path d="M12.0005 19.925C10.5338 19.925 9.18382 19.575 7.95049 18.875C6.73382 18.1583 5.76716 17.2 5.05049 16C4.35049 14.7833 4.00049 13.4417 4.00049 11.975C4.00049 10.5083 4.35049 9.175 5.05049 7.975C5.76716 6.75833 6.73382 5.8 7.95049 5.1C9.18382 4.38333 10.5338 4.025 12.0005 4.025C13.4672 4.025 14.8088 4.38333 16.0255 5.1C17.2588 5.8 18.2255 6.75833 18.9255 7.975C19.6422 9.175 20.0005 10.5083 20.0005 11.975C20.0005 13.4417 19.6422 14.7833 18.9255 16C18.2255 17.2 17.2588 18.1583 16.0255 18.875C14.8088 19.575 13.4672 19.925 12.0005 19.925ZM6.50049 16.525H9.75049V20.9H14.3005V16.525H17.5005V24H6.50049V16.525ZM12.0005 16.725C12.8672 16.725 13.6588 16.5167 14.3755 16.1C15.1088 15.6667 15.6838 15.0917 16.1005 14.375C16.5338 13.6417 16.7505 12.8417 16.7505 11.975C16.7505 11.1083 16.5338 10.3167 16.1005 9.6C15.6838 8.86667 15.1088 8.29167 14.3755 7.875C13.6588 7.44167 12.8672 7.225 12.0005 7.225C11.1338 7.225 10.3338 7.44167 9.60049 7.875C8.88382 8.29167 8.30882 8.86667 7.87549 9.6C7.45882 10.3167 7.25049 11.1083 7.25049 11.975C7.25049 12.8417 7.45882 13.6417 7.87549 14.375C8.30882 15.0917 8.88382 15.6667 9.60049 16.1C10.3338 16.5167 11.1338 16.725 12.0005 16.725ZM6.50049 -8.34465e-07H17.5005V6.95H14.3005V3.1H9.70049V6.95H6.50049V-8.34465e-07Z" fill="black"/>
</g>
<defs>
<clipPath id="clip0_3394_11404">
<rect width="24" height="24" fill="white"/>
</clipPath>
</defs>
</svg>
