<svg width="24" height="24" viewBox="0 0 24 24" fill="none" xmlns="http://www.w3.org/2000/svg">
<g clip-path="url(#clip0_3208_21093)">
<rect width="24" height="24" fill="white"/>
<path d="M13.201 12C12.9343 12 12.7343 12 12.601 12C12.4676 12 12.2676 12 12.001 12C11.7343 12 11.5343 12 11.401 12C11.2676 12 11.0676 12 10.801 12C11.0676 12 11.2676 12 11.401 12C11.5343 12 11.7343 12 12.001 12C12.2676 12 12.4676 12 12.601 12C12.7343 12 12.9343 12 13.201 12ZM15.826 12C14.026 12.7667 12.751 14.0417 12.001 15.825C11.2343 14.0417 9.95931 12.7667 8.17598 12C9.95931 11.25 11.2343 9.975 12.001 8.175C12.7676 9.95833 14.0426 11.2333 15.826 12ZM5.32598 20C4.72598 20 4.16764 19.85 3.65098 19.55C3.15098 19.25 2.75098 18.85 2.45098 18.35C2.15098 17.8333 2.00098 17.275 2.00098 16.675V7.325C2.00098 6.725 2.15098 6.175 2.45098 5.675C2.75098 5.15833 3.15098 4.75 3.65098 4.45C4.16764 4.15 4.72598 4 5.32598 4H18.676C19.276 4 19.826 4.15 20.326 4.45C20.8426 4.75 21.251 5.15833 21.551 5.675C21.851 6.175 22.001 6.725 22.001 7.325V16.675C22.001 17.275 21.851 17.8333 21.551 18.35C21.251 18.85 20.8426 19.25 20.326 19.55C19.826 19.85 19.276 20 18.676 20H5.32598ZM18.626 17.075C18.7426 17.075 18.8343 17.0417 18.901 16.975C18.9843 16.8917 19.026 16.7833 19.026 16.65V7.35C19.026 7.21667 18.9843 7.11667 18.901 7.05C18.8343 6.96667 18.7426 6.925 18.626 6.925H5.37598C5.25931 6.925 5.15931 6.96667 5.07598 7.05C5.00931 7.11667 4.97598 7.21667 4.97598 7.35V16.65C4.97598 16.7833 5.00931 16.8917 5.07598 16.975C5.15931 17.0417 5.25931 17.075 5.37598 17.075H18.626Z" fill="black"/>
</g>
<defs>
<clipPath id="clip0_3208_21093">
<rect width="24" height="24" fill="white"/>
</clipPath>
</defs>
</svg>
