<svg width="24" height="24" viewBox="0 0 24 24" fill="none" xmlns="http://www.w3.org/2000/svg">
<g clip-path="url(#clip0_3206_14556)">
<rect width="24" height="24" fill="white"/>
<path d="M8.05049 2.325V21.675H15.9505V2.325H8.05049ZM5.67549 24V-8.34465e-07H18.3255V24H5.67549ZM10.0005 19.575C9.26716 19.575 8.60049 19.3833 8.00049 19C7.40049 18.6167 6.92549 18.1 6.57549 17.45C6.22549 16.7833 6.05049 16.0583 6.05049 15.275V8.725C6.05049 7.94167 6.22549 7.225 6.57549 6.575C6.92549 5.90833 7.40049 5.38333 8.00049 5C8.60049 4.61667 9.26716 4.425 10.0005 4.425H14.0005C14.7338 4.425 15.4005 4.61667 16.0005 5C16.6005 5.38333 17.0755 5.90833 17.4255 6.575C17.7755 7.225 17.9505 7.94167 17.9505 8.725V15.275C17.9505 16.0583 17.7755 16.7833 17.4255 17.45C17.0755 18.1 16.6005 18.6167 16.0005 19C15.4005 19.3833 14.7338 19.575 14.0005 19.575H10.0005ZM13.9755 17.25C14.3422 17.25 14.6755 17.1667 14.9755 17C15.2755 16.8167 15.5088 16.575 15.6755 16.275C15.8588 15.975 15.9505 15.6417 15.9505 15.275V8.725C15.9505 8.35833 15.8588 8.025 15.6755 7.725C15.5088 7.425 15.2755 7.19167 14.9755 7.025C14.6755 6.84167 14.3422 6.75 13.9755 6.75H10.0005C9.63382 6.75 9.30049 6.84167 9.00049 7.025C8.71716 7.19167 8.48382 7.425 8.30049 7.725C8.13382 8.025 8.05049 8.35833 8.05049 8.725V15.275C8.05049 15.6417 8.13382 15.975 8.30049 16.275C8.48382 16.575 8.71716 16.8167 9.00049 17C9.30049 17.1667 9.63382 17.25 10.0005 17.25H13.9755Z" fill="black"/>
</g>
<defs>
<clipPath id="clip0_3206_14556">
<rect width="24" height="24" fill="white"/>
</clipPath>
</defs>
</svg>
