<svg width="24" height="24" viewBox="0 0 24 24" fill="none" xmlns="http://www.w3.org/2000/svg">
<g clip-path="url(#clip0_3206_14648)">
<rect width="24" height="24" fill="white"/>
<path d="M8.575 19.925C7.825 19.925 7.13333 19.75 6.5 19.4C5.88333 19.0333 5.39167 18.5417 5.025 17.925C4.675 17.2917 4.5 16.6 4.5 15.85V8.15C4.5 7.4 4.675 6.71667 5.025 6.1C5.39167 5.46667 5.88333 4.975 6.5 4.625C7.13333 4.25833 7.825 4.075 8.575 4.075H15.425C16.175 4.075 16.8583 4.25833 17.475 4.625C18.1083 4.975 18.6 5.46667 18.95 6.1C19.3167 6.71667 19.5 7.4 19.5 8.15V15.85C19.5 16.6 19.3167 17.2917 18.95 17.925C18.6 18.5417 18.1083 19.0333 17.475 19.4C16.8583 19.75 16.175 19.925 15.425 19.925H8.575ZM15.425 17.625C15.925 17.625 16.3417 17.4583 16.675 17.125C17.0083 16.7917 17.175 16.3667 17.175 15.85V8.15C17.175 7.63333 17.0083 7.20833 16.675 6.875C16.3417 6.54167 15.925 6.375 15.425 6.375H8.575C8.075 6.375 7.65833 6.54167 7.325 6.875C6.99167 7.20833 6.825 7.63333 6.825 8.15V15.85C6.825 16.3667 6.99167 16.7917 7.325 17.125C7.65833 17.4583 8.075 17.625 8.575 17.625H15.425ZM6.5 18.2H8.475H15.525H17.5V24H6.5V18.2ZM6.5 -8.34465e-07H17.5V5.775H15.525H8.475H6.5V-8.34465e-07Z" fill="black"/>
</g>
<defs>
<clipPath id="clip0_3206_14648">
<rect width="24" height="24" fill="white"/>
</clipPath>
</defs>
</svg>
