<svg width="24" height="24" viewBox="0 0 24 24" fill="none" xmlns="http://www.w3.org/2000/svg">
<g clip-path="url(#clip0_3206_14630)">
<rect width="24" height="24" fill="white"/>
<path d="M8.40049 19.75C7.68382 19.75 7.02549 19.5833 6.42549 19.25C5.82549 18.9 5.35049 18.425 5.00049 17.825C4.66716 17.225 4.50049 16.5667 4.50049 15.85V8.15C4.50049 7.43333 4.66716 6.775 5.00049 6.175C5.35049 5.575 5.82549 5.10833 6.42549 4.775C7.02549 4.425 7.68382 4.25 8.40049 4.25H15.6005C16.3172 4.25 16.9755 4.425 17.5755 4.775C18.1755 5.10833 18.6422 5.575 18.9755 6.175C19.3255 6.775 19.5005 7.43333 19.5005 8.15V15.85C19.5005 16.5667 19.3255 17.225 18.9755 17.825C18.6422 18.425 18.1755 18.9 17.5755 19.25C16.9755 19.5833 16.3172 19.75 15.6005 19.75H8.40049ZM15.6005 18.4C16.3005 18.4 16.8922 18.1583 17.3755 17.675C17.8588 17.175 18.1005 16.5667 18.1005 15.85V8.15C18.1005 7.43333 17.8588 6.83333 17.3755 6.35C16.8922 5.85 16.3005 5.6 15.6005 5.6H8.40049C7.70049 5.6 7.10882 5.85 6.62549 6.35C6.14216 6.83333 5.90049 7.43333 5.90049 8.15V15.85C5.90049 16.5667 6.14216 17.175 6.62549 17.675C7.10882 18.1583 7.70049 18.4 8.40049 18.4H15.6005ZM6.50049 18.75H7.90049V22.65H16.1005V18.75H17.5005V24H6.50049V18.75ZM6.50049 -8.34465e-07H17.5005V5.35H16.1005V1.35H7.90049V5.35H6.50049V-8.34465e-07Z" fill="black"/>
</g>
<defs>
<clipPath id="clip0_3206_14630">
<rect width="24" height="24" fill="white"/>
</clipPath>
</defs>
</svg>
