<svg width="24" height="24" viewBox="0 0 24 24" fill="none" xmlns="http://www.w3.org/2000/svg">
<g clip-path="url(#clip0_3208_21091)">
<rect width="24" height="24" fill="white"/>
<path d="M13.676 12C13.3593 11.75 13.0676 11.4917 12.801 11.225C12.5343 10.9583 12.2676 10.6667 12.001 10.35C11.7343 10.6667 11.4676 10.9583 11.201 11.225C10.9343 11.4917 10.6426 11.75 10.326 12C10.6426 12.25 10.9343 12.5083 11.201 12.775C11.4676 13.0417 11.7343 13.3333 12.001 13.65C12.2676 13.3333 12.5343 13.0417 12.801 12.775C13.0676 12.5083 13.3593 12.25 13.676 12ZM17.001 12C14.6676 13 13.001 14.6667 12.001 17C11.001 14.6667 9.33431 13 7.00098 12C9.33431 11 11.001 9.33333 12.001 7C13.001 9.33333 14.6676 11 17.001 12ZM5.17598 20C4.59264 20 4.05931 19.8583 3.57598 19.575C3.09264 19.2917 2.70931 18.9083 2.42598 18.425C2.14264 17.9417 2.00098 17.4083 2.00098 16.825V7.175C2.00098 6.59167 2.14264 6.05833 2.42598 5.575C2.70931 5.09167 3.09264 4.70833 3.57598 4.425C4.05931 4.14167 4.59264 4 5.17598 4H18.826C19.4093 4 19.9426 4.14167 20.426 4.425C20.9093 4.70833 21.2926 5.09167 21.576 5.575C21.8593 6.05833 22.001 6.59167 22.001 7.175V16.825C22.001 17.4083 21.8593 17.9417 21.576 18.425C21.2926 18.9083 20.9093 19.2917 20.426 19.575C19.9426 19.8583 19.4093 20 18.826 20H5.17598ZM18.801 17.625C19.0176 17.625 19.201 17.55 19.351 17.4C19.501 17.25 19.576 17.0583 19.576 16.825V7.175C19.576 6.94167 19.501 6.75 19.351 6.6C19.201 6.45 19.0176 6.375 18.801 6.375H5.20098C4.98431 6.375 4.80098 6.45 4.65098 6.6C4.50098 6.75 4.42598 6.94167 4.42598 7.175V16.825C4.42598 17.0583 4.50098 17.25 4.65098 17.4C4.80098 17.55 4.98431 17.625 5.20098 17.625H18.801Z" fill="black"/>
</g>
<defs>
<clipPath id="clip0_3208_21091">
<rect width="24" height="24" fill="white"/>
</clipPath>
</defs>
</svg>
