<svg width="24" height="24" viewBox="0 0 24 24" fill="none" xmlns="http://www.w3.org/2000/svg">
<g clip-path="url(#clip0_3206_14218)">
<rect width="24" height="24" fill="white"/>
<path d="M12.0005 19.95C10.5338 19.95 9.18382 19.6 7.95049 18.9C6.73382 18.1833 5.76716 17.2167 5.05049 16C4.35049 14.7833 4.00049 13.4417 4.00049 11.975C4.00049 10.5083 4.35049 9.16667 5.05049 7.95C5.76716 6.73333 6.73382 5.775 7.95049 5.075C9.18382 4.35833 10.5338 4 12.0005 4C13.4672 4 14.8088 4.35833 16.0255 5.075C17.2588 5.775 18.2255 6.73333 18.9255 7.95C19.6422 9.16667 20.0005 10.5083 20.0005 11.975C20.0005 13.4417 19.6422 14.7833 18.9255 16C18.2255 17.2167 17.2588 18.1833 16.0255 18.9C14.8088 19.6 13.4672 19.95 12.0005 19.95ZM6.50049 17.75H7.00049V23.525H17.0005V17.75H17.5005V24H6.50049V17.75ZM12.0005 19.475C13.3838 19.475 14.6422 19.1417 15.7755 18.475C16.9255 17.8083 17.8338 16.9083 18.5005 15.775C19.1672 14.625 19.5005 13.3583 19.5005 11.975C19.5005 10.5917 19.1672 9.33333 18.5005 8.2C17.8338 7.05 16.9255 6.14167 15.7755 5.475C14.6422 4.80833 13.3838 4.475 12.0005 4.475C10.6172 4.475 9.35049 4.80833 8.20049 5.475C7.06716 6.14167 6.16716 7.05 5.50049 8.2C4.83382 9.33333 4.50049 10.5917 4.50049 11.975C4.50049 13.3583 4.83382 14.625 5.50049 15.775C6.16716 16.9083 7.06716 17.8083 8.20049 18.475C9.35049 19.1417 10.6172 19.475 12.0005 19.475ZM6.50049 -8.34465e-07H17.5005V6.225H17.0005V0.474999H7.00049V6.225H6.50049V-8.34465e-07Z" fill="black"/>
</g>
<defs>
<clipPath id="clip0_3206_14218">
<rect width="24" height="24" fill="white"/>
</clipPath>
</defs>
</svg>
