<svg width="24" height="24" viewBox="0 0 24 24" fill="none" xmlns="http://www.w3.org/2000/svg">
<g clip-path="url(#clip0_3206_14642)">
<rect width="24" height="24" fill="white"/>
<path d="M8.325 19.5C7.625 19.5 6.98333 19.3333 6.4 19C5.81667 18.65 5.35 18.1833 5 17.6C4.66667 17.0167 4.5 16.375 4.5 15.675V8.325C4.5 7.625 4.66667 6.98333 5 6.4C5.35 5.81667 5.81667 5.35833 6.4 5.025C6.98333 4.675 7.625 4.5 8.325 4.5H15.675C16.375 4.5 17.0167 4.675 17.6 5.025C18.1833 5.35833 18.6417 5.81667 18.975 6.4C19.325 6.98333 19.5 7.625 19.5 8.325V15.675C19.5 16.375 19.325 17.0167 18.975 17.6C18.6417 18.1833 18.1833 18.65 17.6 19C17.0167 19.3333 16.375 19.5 15.675 19.5H8.325ZM15.675 18.575C16.475 18.575 17.15 18.3 17.7 17.75C18.2667 17.1833 18.55 16.4917 18.55 15.675V8.325C18.55 7.50833 18.2667 6.825 17.7 6.275C17.15 5.70833 16.475 5.425 15.675 5.425H8.325C7.525 5.425 6.84167 5.70833 6.275 6.275C5.725 6.825 5.45 7.50833 5.45 8.325V15.675C5.45 16.4917 5.725 17.1833 6.275 17.75C6.84167 18.3 7.525 18.575 8.325 18.575H15.675ZM6.5 18.75H7.275H16.725H17.5V24H6.5V18.75ZM6.5 -8.34465e-07H17.5V5.25H16.725H7.275H6.5V-8.34465e-07Z" fill="black"/>
</g>
<defs>
<clipPath id="clip0_3206_14642">
<rect width="24" height="24" fill="white"/>
</clipPath>
</defs>
</svg>
