<svg width="24" height="24" viewBox="0 0 24 24" fill="none" xmlns="http://www.w3.org/2000/svg">
<g clip-path="url(#clip0_3207_18536)">
<rect width="24" height="24" fill="white"/>
<path d="M15.951 12C15.051 11.55 14.276 11.0083 13.626 10.375C12.9926 9.725 12.451 8.95 12.001 8.05C11.551 8.95 11.001 9.725 10.351 10.375C9.71764 11.0083 8.95098 11.55 8.05098 12C8.95098 12.45 9.71764 13 10.351 13.65C11.001 14.2833 11.551 15.05 12.001 15.95C12.451 15.05 12.9926 14.2833 13.626 13.65C14.276 13 15.051 12.45 15.951 12ZM17.001 12C14.6676 13 13.001 14.6667 12.001 17C11.001 14.6667 9.33431 13 7.00098 12C9.33431 11 11.001 9.33333 12.001 7C13.001 9.33333 14.6676 11 17.001 12ZM4.50098 20C4.03431 20 3.60931 19.8917 3.22598 19.675C2.85931 19.4417 2.55931 19.1417 2.32598 18.775C2.10931 18.3917 2.00098 17.9667 2.00098 17.5V6.5C2.00098 6.03333 2.10931 5.61667 2.32598 5.25C2.55931 4.86667 2.85931 4.56667 3.22598 4.35C3.60931 4.11667 4.03431 4 4.50098 4H19.501C19.9676 4 20.3843 4.11667 20.751 4.35C21.1343 4.56667 21.4343 4.86667 21.651 5.25C21.8843 5.61667 22.001 6.03333 22.001 6.5V17.5C22.001 17.9667 21.8843 18.3917 21.651 18.775C21.4343 19.1417 21.1343 19.4417 20.751 19.675C20.3843 19.8917 19.9676 20 19.501 20H4.50098ZM19.501 19.525C20.0676 19.525 20.5426 19.3333 20.926 18.95C21.3093 18.55 21.501 18.0667 21.501 17.5V6.5C21.501 5.93333 21.3093 5.45833 20.926 5.075C20.5426 4.675 20.0676 4.475 19.501 4.475H4.50098C3.93431 4.475 3.45931 4.675 3.07598 5.075C2.69264 5.45833 2.50098 5.93333 2.50098 6.5V17.5C2.50098 18.0667 2.69264 18.55 3.07598 18.95C3.45931 19.3333 3.93431 19.525 4.50098 19.525H19.501Z" fill="black"/>
</g>
<defs>
<clipPath id="clip0_3207_18536">
<rect width="24" height="24" fill="white"/>
</clipPath>
</defs>
</svg>
