<svg width="24" height="24" viewBox="0 0 24 24" fill="none" xmlns="http://www.w3.org/2000/svg">
<g clip-path="url(#clip0_3206_14556)">
<rect width="24" height="24" fill="white"/>
<path d="M7.97549 2.275V21.725H16.0255V2.275H7.97549ZM5.67549 24V-8.34465e-07H18.3255V24H5.67549ZM9.90049 19.675C9.20049 19.675 8.55049 19.4917 7.95049 19.125C7.36716 18.7417 6.90049 18.2333 6.55049 17.6C6.20049 16.95 6.02549 16.2417 6.02549 15.475V8.525C6.02549 7.75833 6.20049 7.05833 6.55049 6.425C6.90049 5.775 7.36716 5.26667 7.95049 4.9C8.55049 4.51667 9.20049 4.325 9.90049 4.325H14.1005C14.8005 4.325 15.4422 4.51667 16.0255 4.9C16.6255 5.26667 17.1005 5.775 17.4505 6.425C17.8005 7.05833 17.9755 7.75833 17.9755 8.525V15.475C17.9755 16.2417 17.8005 16.95 17.4505 17.6C17.1005 18.2333 16.6255 18.7417 16.0255 19.125C15.4422 19.4917 14.8005 19.675 14.1005 19.675H9.90049ZM14.1005 17.4C14.4505 17.4 14.7672 17.3167 15.0505 17.15C15.3505 16.9667 15.5838 16.7333 15.7505 16.45C15.9338 16.15 16.0255 15.825 16.0255 15.475V8.525C16.0255 8.175 15.9338 7.85833 15.7505 7.575C15.5838 7.275 15.3505 7.04167 15.0505 6.875C14.7672 6.69167 14.4505 6.6 14.1005 6.6H9.90049C9.55049 6.6 9.22549 6.69167 8.92549 6.875C8.64216 7.04167 8.40882 7.275 8.22549 7.575C8.05882 7.85833 7.97549 8.175 7.97549 8.525V15.475C7.97549 15.825 8.05882 16.15 8.22549 16.45C8.40882 16.7333 8.64216 16.9667 8.92549 17.15C9.22549 17.3167 9.55049 17.4 9.90049 17.4H14.1005Z" fill="black"/>
</g>
<defs>
<clipPath id="clip0_3206_14556">
<rect width="24" height="24" fill="white"/>
</clipPath>
</defs>
</svg>
