<svg width="24" height="24" viewBox="0 0 24 24" fill="none" xmlns="http://www.w3.org/2000/svg">
<g clip-path="url(#clip0_3394_11400)">
<rect width="24" height="24" fill="white"/>
<path d="M12.0005 19.925C10.5338 19.925 9.18382 19.575 7.95049 18.875C6.73382 18.1583 5.76716 17.2 5.05049 16C4.35049 14.7833 4.00049 13.4417 4.00049 11.975C4.00049 10.5083 4.35049 9.175 5.05049 7.975C5.76716 6.75833 6.73382 5.8 7.95049 5.1C9.18382 4.38333 10.5338 4.025 12.0005 4.025C13.4672 4.025 14.8088 4.38333 16.0255 5.1C17.2588 5.8 18.2255 6.75833 18.9255 7.975C19.6422 9.175 20.0005 10.5083 20.0005 11.975C20.0005 13.4417 19.6422 14.7833 18.9255 16C18.2255 17.2 17.2588 18.1583 16.0255 18.875C14.8088 19.575 13.4672 19.925 12.0005 19.925ZM6.50049 17.025H8.82549V21.775H15.2005V17.025H17.5005V24H6.50049V17.025ZM12.0005 17.65C13.1505 17.65 14.1505 17.4083 15.0005 16.925C15.8672 16.425 16.5255 15.7417 16.9755 14.875C17.4422 14.0083 17.6755 13.0417 17.6755 11.975C17.6755 10.925 17.4255 9.96667 16.9255 9.1C16.4255 8.23333 15.7422 7.55 14.8755 7.05C14.0088 6.55 13.0505 6.3 12.0005 6.3C10.9505 6.3 9.99216 6.55 9.12549 7.05C8.25882 7.55 7.57549 8.23333 7.07549 9.1C6.57549 9.96667 6.32549 10.925 6.32549 11.975C6.32549 13.025 6.57549 13.9833 7.07549 14.85C7.57549 15.7167 8.25882 16.4 9.12549 16.9C9.99216 17.4 10.9505 17.65 12.0005 17.65ZM6.50049 -8.34465e-07H17.5005V6.775H15.2005V2.225H8.80049V6.775H6.50049V-8.34465e-07Z" fill="black"/>
</g>
<defs>
<clipPath id="clip0_3394_11400">
<rect width="24" height="24" fill="white"/>
</clipPath>
</defs>
</svg>
