<svg width="24" height="24" viewBox="0 0 24 24" fill="none" xmlns="http://www.w3.org/2000/svg">
<g clip-path="url(#clip0_3206_14634)">
<rect width="24" height="24" fill="white"/>
<path d="M8.57549 19.725C7.82549 19.725 7.13382 19.55 6.50049 19.2C5.88382 18.85 5.39216 18.3667 5.02549 17.75C4.67549 17.1167 4.50049 16.425 4.50049 15.675V8.325C4.50049 7.575 4.67549 6.89167 5.02549 6.275C5.39216 5.64167 5.88382 5.15 6.50049 4.8C7.13382 4.45 7.82549 4.275 8.57549 4.275H15.4255C16.1755 4.275 16.8588 4.45 17.4755 4.8C18.1088 5.15 18.6005 5.64167 18.9505 6.275C19.3172 6.89167 19.5005 7.575 19.5005 8.325V15.675C19.5005 16.425 19.3172 17.1167 18.9505 17.75C18.6005 18.3667 18.1088 18.85 17.4755 19.2C16.8588 19.55 16.1755 19.725 15.4255 19.725H8.57549ZM15.4255 17.475C15.9255 17.475 16.3422 17.3 16.6755 16.95C17.0088 16.6 17.1755 16.175 17.1755 15.675V8.325C17.1755 7.825 17.0088 7.4 16.6755 7.05C16.3422 6.7 15.9255 6.525 15.4255 6.525H8.57549C8.09216 6.525 7.67549 6.7 7.32549 7.05C6.99216 7.4 6.82549 7.825 6.82549 8.325V15.675C6.82549 16.175 6.99216 16.6 7.32549 16.95C7.67549 17.3 8.09216 17.475 8.57549 17.475H15.4255ZM6.50049 18.025H8.82549V21.725H15.1755V18.025H17.5005V24H6.50049V18.025ZM6.50049 -8.34465e-07H17.5005V5.95H15.1755V2.275H8.82549V5.95H6.50049V-8.34465e-07Z" fill="black"/>
</g>
<defs>
<clipPath id="clip0_3206_14634">
<rect width="24" height="24" fill="white"/>
</clipPath>
</defs>
</svg>
