<svg width="24" height="24" viewBox="0 0 24 24" fill="none" xmlns="http://www.w3.org/2000/svg">
<g clip-path="url(#clip0_3208_21085)">
<rect width="24" height="24" fill="white"/>
<path d="M15.251 12C14.551 11.6 13.9343 11.1417 13.401 10.625C12.8843 10.1083 12.4176 9.49167 12.001 8.775C11.5843 9.49167 11.1093 10.1083 10.576 10.625C10.0593 11.1417 9.45098 11.6 8.75098 12C9.45098 12.4 10.0593 12.8583 10.576 13.375C11.1093 13.8917 11.5843 14.5083 12.001 15.225C12.4176 14.5083 12.8843 13.8917 13.401 13.375C13.9343 12.8583 14.551 12.4 15.251 12ZM17.001 12C14.6676 13 13.001 14.6667 12.001 17C11.001 14.6667 9.33431 13 7.00098 12C9.33431 11 11.001 9.33333 12.001 7C13.001 9.33333 14.6676 11 17.001 12ZM4.67598 20C4.17598 20 3.72598 19.8833 3.32598 19.65C2.92598 19.4 2.60098 19.075 2.35098 18.675C2.11764 18.275 2.00098 17.825 2.00098 17.325V6.675C2.00098 6.175 2.11764 5.725 2.35098 5.325C2.60098 4.925 2.92598 4.60833 3.32598 4.375C3.72598 4.125 4.17598 4 4.67598 4H19.326C19.826 4 20.276 4.125 20.676 4.375C21.076 4.60833 21.3926 4.925 21.626 5.325C21.876 5.725 22.001 6.175 22.001 6.675V17.325C22.001 17.825 21.876 18.275 21.626 18.675C21.3926 19.075 21.076 19.4 20.676 19.65C20.276 19.8833 19.826 20 19.326 20H4.67598ZM19.326 19.075C19.8093 19.075 20.2093 18.9083 20.526 18.575C20.8593 18.2417 21.026 17.825 21.026 17.325V6.675C21.026 6.175 20.8593 5.75833 20.526 5.425C20.2093 5.09167 19.8093 4.925 19.326 4.925H4.67598C4.19264 4.925 3.78431 5.09167 3.45098 5.425C3.13431 5.75833 2.97598 6.175 2.97598 6.675V17.325C2.97598 17.825 3.13431 18.2417 3.45098 18.575C3.78431 18.9083 4.19264 19.075 4.67598 19.075H19.326Z" fill="black"/>
</g>
<defs>
<clipPath id="clip0_3208_21085">
<rect width="24" height="24" fill="white"/>
</clipPath>
</defs>
</svg>
