<svg width="24" height="24" viewBox="0 0 24 24" fill="none" xmlns="http://www.w3.org/2000/svg">
<g clip-path="url(#clip0_3206_14450)">
<rect width="24" height="24" fill="white"/>
<path d="M3.90049 18.15H20.1005V5.85H3.90049V18.15ZM22.0005 4V20H2.00049V4H22.0005ZM7.20049 13.375C6.81716 13.375 6.49216 13.2417 6.22549 12.975C5.95882 12.7083 5.82549 12.3833 5.82549 12C5.82549 11.6167 5.95882 11.2917 6.22549 11.025C6.49216 10.7583 6.81716 10.625 7.20049 10.625C7.58382 10.625 7.90882 10.7583 8.17549 11.025C8.44216 11.2917 8.57549 11.6167 8.57549 12C8.57549 12.3833 8.44216 12.7083 8.17549 12.975C7.90882 13.2417 7.58382 13.375 7.20049 13.375ZM7.20049 12C7.05049 12 6.94216 12 6.87549 12C6.80882 12 6.70049 12 6.55049 12C6.70049 12 6.80882 12 6.87549 12C6.94216 12 7.05049 12 7.20049 12C7.35049 12 7.45882 12 7.52549 12C7.59216 12 7.70049 12 7.85049 12C7.70049 12 7.59216 12 7.52549 12C7.45882 12 7.35049 12 7.20049 12ZM16.8005 13.375C16.4172 13.375 16.0922 13.2417 15.8255 12.975C15.5588 12.7083 15.4255 12.3833 15.4255 12C15.4255 11.6167 15.5588 11.2917 15.8255 11.025C16.0922 10.7583 16.4172 10.625 16.8005 10.625C17.1838 10.625 17.5088 10.7583 17.7755 11.025C18.0422 11.2917 18.1755 11.6167 18.1755 12C18.1755 12.3833 18.0422 12.7083 17.7755 12.975C17.5088 13.2417 17.1838 13.375 16.8005 13.375ZM16.8005 12C16.6505 12 16.5422 12 16.4755 12C16.4088 12 16.3005 12 16.1505 12C16.3005 12 16.4088 12 16.4755 12C16.5422 12 16.6505 12 16.8005 12C16.9505 12 17.0588 12 17.1255 12C17.1922 12 17.3005 12 17.4505 12C17.3005 12 17.1922 12 17.1255 12C17.0588 12 16.9505 12 16.8005 12ZM12.0005 13.375C11.6172 13.375 11.2922 13.2417 11.0255 12.975C10.7588 12.7083 10.6255 12.3833 10.6255 12C10.6255 11.6167 10.7588 11.2917 11.0255 11.025C11.2922 10.7583 11.6172 10.625 12.0005 10.625C12.3838 10.625 12.7088 10.7583 12.9755 11.025C13.2422 11.2917 13.3755 11.6167 13.3755 12C13.3755 12.3833 13.2422 12.7083 12.9755 12.975C12.7088 13.2417 12.3838 13.375 12.0005 13.375ZM12.0005 12C11.8505 12 11.7422 12 11.6755 12C11.6088 12 11.5005 12 11.3505 12C11.5005 12 11.6088 12 11.6755 12C11.7422 12 11.8505 12 12.0005 12C12.1505 12 12.2588 12 12.3255 12C12.3922 12 12.5005 12 12.6505 12C12.5005 12 12.3922 12 12.3255 12C12.2588 12 12.1505 12 12.0005 12Z" fill="black"/>
</g>
<defs>
<clipPath id="clip0_3206_14450">
<rect width="24" height="24" fill="white"/>
</clipPath>
</defs>
</svg>
