<svg width="24" height="24" viewBox="0 0 24 24" fill="none" xmlns="http://www.w3.org/2000/svg">
<g clip-path="url(#clip0_3206_14376)">
<rect width="24" height="24" fill="white"/>
<path d="M12.0005 22C10.1672 22 8.48382 21.5583 6.95049 20.675C5.41716 19.7917 4.20882 18.5833 3.32549 17.05C2.44216 15.5167 2.00049 13.8333 2.00049 12C2.00049 10.1667 2.44216 8.48333 3.32549 6.95C4.20882 5.41667 5.41716 4.20833 6.95049 3.325C8.48382 2.44167 10.1672 2 12.0005 2C13.8338 2 15.5172 2.44167 17.0505 3.325C18.5838 4.20833 19.7922 5.41667 20.6755 6.95C21.5588 8.48333 22.0005 10.1667 22.0005 12C22.0005 13.8333 21.5588 15.5167 20.6755 17.05C19.7922 18.5833 18.5838 19.7917 17.0505 20.675C15.5172 21.5583 13.8338 22 12.0005 22ZM12.0005 19.075C13.3005 19.075 14.4838 18.7667 15.5505 18.15C16.6338 17.5167 17.4838 16.6583 18.1005 15.575C18.7172 14.4917 19.0255 13.3 19.0255 12C19.0255 10.7 18.7172 9.50833 18.1005 8.425C17.4838 7.34167 16.6338 6.49167 15.5505 5.875C14.4838 5.24167 13.3005 4.925 12.0005 4.925C10.7005 4.925 9.50882 5.24167 8.42549 5.875C7.35882 6.49167 6.51716 7.34167 5.90049 8.425C5.28382 9.50833 4.97549 10.7 4.97549 12C4.97549 13.3 5.28382 14.4917 5.90049 15.575C6.51716 16.6583 7.35882 17.5167 8.42549 18.15C9.50882 18.7667 10.7005 19.075 12.0005 19.075ZM8.75049 13.975C8.18382 13.975 7.70049 13.775 7.30049 13.375C6.90049 12.975 6.70049 12.4917 6.70049 11.925C6.70049 11.3583 6.90049 10.875 7.30049 10.475C7.70049 10.075 8.18382 9.875 8.75049 9.875C9.33382 9.875 9.81716 10.075 10.2005 10.475C10.6005 10.875 10.8005 11.3583 10.8005 11.925C10.8005 12.4917 10.6005 12.975 10.2005 13.375C9.81716 13.775 9.33382 13.975 8.75049 13.975ZM8.75049 11.925C8.55049 11.925 8.40882 11.925 8.32549 11.925C8.24216 11.925 8.10882 11.925 7.92549 11.925C8.10882 11.925 8.24216 11.925 8.32549 11.925C8.42549 11.925 8.56716 11.925 8.75049 11.925C8.95049 11.925 9.09216 11.925 9.17549 11.925C9.25882 11.925 9.39216 11.925 9.57549 11.925C9.39216 11.925 9.25049 11.925 9.15049 11.925C9.06716 11.925 8.93382 11.925 8.75049 11.925ZM15.2505 13.975C14.6838 13.975 14.2005 13.775 13.8005 13.375C13.4005 12.975 13.2005 12.4917 13.2005 11.925C13.2005 11.3583 13.4005 10.875 13.8005 10.475C14.2005 10.075 14.6838 9.875 15.2505 9.875C15.8338 9.875 16.3172 10.075 16.7005 10.475C17.1005 10.875 17.3005 11.3583 17.3005 11.925C17.3005 12.4917 17.1005 12.975 16.7005 13.375C16.3172 13.775 15.8338 13.975 15.2505 13.975ZM15.2505 11.925C15.0505 11.925 14.9088 11.925 14.8255 11.925C14.7422 11.925 14.6088 11.925 14.4255 11.925C14.6088 11.925 14.7422 11.925 14.8255 11.925C14.9255 11.925 15.0672 11.925 15.2505 11.925C15.4505 11.925 15.5922 11.925 15.6755 11.925C15.7588 11.925 15.8922 11.925 16.0755 11.925C15.8922 11.925 15.7505 11.925 15.6505 11.925C15.5672 11.925 15.4338 11.925 15.2505 11.925ZM14.0755 14.675V15.85C14.0755 16.4333 13.8755 16.925 13.4755 17.325C13.0755 17.7083 12.5838 17.9 12.0005 17.9C11.4172 17.9 10.9255 17.7083 10.5255 17.325C10.1255 16.925 9.92549 16.4333 9.92549 15.85V14.675H14.0755ZM11.9005 16.125C11.9172 16.125 11.9338 16.125 11.9505 16.125C11.9672 16.125 11.9838 16.125 12.0005 16.125C12.0172 16.125 12.0338 16.125 12.0505 16.125C12.0672 16.125 12.0838 16.125 12.1005 16.125H11.9005Z" fill="black"/>
</g>
<defs>
<clipPath id="clip0_3206_14376">
<rect width="24" height="24" fill="white"/>
</clipPath>
</defs>
</svg>
