<svg width="24" height="24" viewBox="0 0 24 24" fill="none" xmlns="http://www.w3.org/2000/svg">
<g clip-path="url(#clip0_3207_19580)">
<rect width="24" height="24" fill="white"/>
<path d="M12.001 22C10.1676 22 8.48431 21.5583 6.95098 20.675C5.41764 19.7917 4.20931 18.5833 3.32598 17.05C2.44264 15.5167 2.00098 13.8333 2.00098 12C2.00098 10.1667 2.44264 8.48333 3.32598 6.95C4.20931 5.41667 5.41764 4.20833 6.95098 3.325C8.48431 2.44167 10.1676 2 12.001 2C13.8343 2 15.5176 2.44167 17.051 3.325C18.5843 4.20833 19.7926 5.41667 20.676 6.95C21.5593 8.48333 22.001 10.1667 22.001 12C22.001 13.8333 21.5593 15.5167 20.676 17.05C19.7926 18.5833 18.5843 19.7917 17.051 20.675C15.5176 21.5583 13.8343 22 12.001 22ZM12.001 19.025C13.2843 19.025 14.4593 18.7167 15.526 18.1C16.5926 17.4667 17.4343 16.6167 18.051 15.55C18.6676 14.4833 18.976 13.3 18.976 12C18.976 10.7 18.6676 9.51667 18.051 8.45C17.4343 7.38333 16.5926 6.54167 15.526 5.925C14.4593 5.29167 13.2843 4.975 12.001 4.975C10.7176 4.975 9.54264 5.29167 8.47598 5.925C7.40931 6.54167 6.56764 7.38333 5.95098 8.45C5.33431 9.51667 5.02598 10.7 5.02598 12C5.02598 13.3 5.33431 14.4833 5.95098 15.55C6.56764 16.6167 7.40931 17.4667 8.47598 18.1C9.54264 18.7167 10.7176 19.025 12.001 19.025ZM8.35098 14.35C7.81764 14.35 7.36764 14.1667 7.00098 13.8C6.63431 13.4333 6.45098 12.9917 6.45098 12.475C6.45098 11.9417 6.63431 11.5 7.00098 11.15C7.36764 10.7833 7.81764 10.6 8.35098 10.6C8.86764 10.6 9.30098 10.7833 9.65098 11.15C10.0176 11.5 10.201 11.9333 10.201 12.45C10.201 12.9833 10.0176 13.4333 9.65098 13.8C9.30098 14.1667 8.86764 14.35 8.35098 14.35ZM8.32598 12.475C8.15931 12.475 8.03431 12.475 7.95098 12.475C7.86764 12.475 7.74264 12.475 7.57598 12.475C7.74264 12.475 7.86764 12.475 7.95098 12.475C8.03431 12.475 8.15931 12.475 8.32598 12.475C8.50931 12.475 8.63431 12.475 8.70098 12.475C8.78431 12.475 8.91764 12.475 9.10098 12.475C8.91764 12.475 8.78431 12.475 8.70098 12.475C8.63431 12.475 8.50931 12.475 8.32598 12.475ZM15.701 14.35C15.1676 14.35 14.7176 14.1667 14.351 13.8C13.9843 13.4333 13.801 12.9917 13.801 12.475C13.801 11.9417 13.9843 11.5 14.351 11.15C14.7176 10.7833 15.1676 10.6 15.701 10.6C16.2176 10.6 16.651 10.7833 17.001 11.15C17.3676 11.5 17.551 11.9333 17.551 12.45C17.551 12.9833 17.3676 13.4333 17.001 13.8C16.651 14.1667 16.2176 14.35 15.701 14.35ZM15.676 12.475C15.5093 12.475 15.3843 12.475 15.301 12.475C15.2176 12.475 15.0926 12.475 14.926 12.475C15.0926 12.475 15.2176 12.475 15.301 12.475C15.3843 12.475 15.5093 12.475 15.676 12.475C15.8593 12.475 15.9843 12.475 16.051 12.475C16.1343 12.475 16.2676 12.475 16.451 12.475C16.2676 12.475 16.1343 12.475 16.051 12.475C15.9843 12.475 15.8593 12.475 15.676 12.475ZM12.001 11.15C11.2343 11.15 10.5926 10.8917 10.076 10.375C9.55931 9.85833 9.30098 9.225 9.30098 8.475C9.30098 7.74167 9.55931 7.11667 10.076 6.6C10.6093 6.08333 11.251 5.825 12.001 5.825C12.751 5.825 13.3843 6.08333 13.901 6.6C14.4343 7.11667 14.701 7.74167 14.701 8.475C14.701 9.225 14.4343 9.85833 13.901 10.375C13.3843 10.8917 12.751 11.15 12.001 11.15ZM12.001 9.3C12.2343 9.3 12.426 9.225 12.576 9.075C12.726 8.90833 12.801 8.71667 12.801 8.5C12.801 8.25 12.726 8.05 12.576 7.9C12.426 7.75 12.2343 7.675 12.001 7.675C11.7676 7.675 11.5676 7.75 11.401 7.9C11.251 8.05 11.176 8.25 11.176 8.5C11.176 8.71667 11.251 8.90833 11.401 9.075C11.5676 9.225 11.7676 9.3 12.001 9.3Z" fill="black"/>
</g>
<defs>
<clipPath id="clip0_3207_19580">
<rect width="24" height="24" fill="white"/>
</clipPath>
</defs>
</svg>
