<svg width="24" height="24" viewBox="0 0 24 24" fill="none" xmlns="http://www.w3.org/2000/svg">
<g clip-path="url(#clip0_3207_18724)">
<rect width="24" height="24" fill="white"/>
<path d="M10.326 14.65H6.97598V9.4H10.326V14.65ZM17.026 13.65H13.676V10.4H17.026V13.65ZM19.201 11.975C19.201 11.025 19.051 10.125 18.751 9.275C18.4676 8.40833 18.0593 7.625 17.526 6.925H6.52598C5.99264 7.625 5.57598 8.40833 5.27598 9.275C4.97598 10.1417 4.82598 11.0417 4.82598 11.975C4.82598 12.9083 4.97598 13.8083 5.27598 14.675C5.57598 15.5417 5.99264 16.325 6.52598 17.025H17.526C18.0593 16.325 18.4676 15.55 18.751 14.7C19.051 13.8333 19.201 12.925 19.201 11.975ZM22.701 11.975C22.701 13.625 22.3843 15.1833 21.751 16.65C21.1176 18.1167 20.2343 19.3917 19.101 20.475H4.95098C3.81764 19.3917 2.92598 18.1167 2.27598 16.65C1.64264 15.1833 1.32598 13.625 1.32598 11.975C1.32598 10.325 1.64264 8.76667 2.27598 7.3C2.92598 5.83333 3.81764 4.55833 4.95098 3.475H19.101C20.2343 4.55833 21.1176 5.83333 21.751 7.3C22.3843 8.76667 22.701 10.325 22.701 11.975Z" fill="black"/>
</g>
<defs>
<clipPath id="clip0_3207_18724">
<rect width="24" height="24" fill="white"/>
</clipPath>
</defs>
</svg>
