<svg width="24" height="24" viewBox="0 0 24 24" fill="none" xmlns="http://www.w3.org/2000/svg">
<g clip-path="url(#clip0_3206_14200)">
<rect width="24" height="24" fill="white"/>
<path d="M3.50049 20.525H20.5005V3.475H3.50049V20.525ZM21.0005 3V21H3.00049V3H21.0005ZM8.00049 13.975C7.43382 13.975 6.95882 13.7833 6.57549 13.4C6.19216 13.0167 6.00049 12.55 6.00049 12C6.00049 11.45 6.19216 10.9833 6.57549 10.6C6.95882 10.2167 7.43382 10.025 8.00049 10.025C8.56716 10.025 9.04216 10.2167 9.42549 10.6C9.80882 10.9833 10.0005 11.45 10.0005 12C10.0005 12.55 9.80882 13.0167 9.42549 13.4C9.04216 13.7833 8.56716 13.975 8.00049 13.975ZM8.02549 13.525C8.44216 13.525 8.79216 13.375 9.07549 13.075C9.37549 12.775 9.52549 12.4167 9.52549 12C9.52549 11.5667 9.37549 11.2083 9.07549 10.925C8.79216 10.625 8.44216 10.475 8.02549 10.475C7.59216 10.475 7.22549 10.625 6.92549 10.925C6.62549 11.2083 6.47549 11.5667 6.47549 12C6.47549 12.4167 6.62549 12.775 6.92549 13.075C7.22549 13.375 7.59216 13.525 8.02549 13.525ZM16.0005 13.975C15.4338 13.975 14.9588 13.7833 14.5755 13.4C14.1922 13.0167 14.0005 12.55 14.0005 12C14.0005 11.45 14.1922 10.9833 14.5755 10.6C14.9588 10.2167 15.4338 10.025 16.0005 10.025C16.5672 10.025 17.0422 10.2167 17.4255 10.6C17.8088 10.9833 18.0005 11.45 18.0005 12C18.0005 12.55 17.8088 13.0167 17.4255 13.4C17.0422 13.7833 16.5672 13.975 16.0005 13.975ZM16.0255 13.525C16.4422 13.525 16.7922 13.375 17.0755 13.075C17.3755 12.775 17.5255 12.4167 17.5255 12C17.5255 11.5667 17.3755 11.2083 17.0755 10.925C16.7922 10.625 16.4422 10.475 16.0255 10.475C15.5922 10.475 15.2255 10.625 14.9255 10.925C14.6255 11.2083 14.4755 11.5667 14.4755 12C14.4755 12.4167 14.6255 12.775 14.9255 13.075C15.2255 13.375 15.5922 13.525 16.0255 13.525ZM12.0005 9.775C11.3005 9.775 10.7088 9.54167 10.2255 9.075C9.74216 8.59167 9.50049 8 9.50049 7.3C9.50049 6.6 9.74216 6.01667 10.2255 5.55C10.7088 5.06667 11.3005 4.825 12.0005 4.825C12.7005 4.825 13.2922 5.06667 13.7755 5.55C14.2588 6.01667 14.5005 6.6 14.5005 7.3C14.5005 8 14.2588 8.59167 13.7755 9.075C13.2922 9.54167 12.7005 9.775 12.0005 9.775ZM12.0255 9.325C12.5922 9.325 13.0672 9.13333 13.4505 8.75C13.8338 8.35 14.0255 7.86667 14.0255 7.3C14.0255 6.71667 13.8338 6.23333 13.4505 5.85C13.0672 5.46667 12.5922 5.275 12.0255 5.275C11.4422 5.275 10.9505 5.46667 10.5505 5.85C10.1672 6.23333 9.97549 6.70833 9.97549 7.275C9.97549 7.85833 10.1672 8.35 10.5505 8.75C10.9505 9.13333 11.4422 9.325 12.0255 9.325Z" fill="black"/>
</g>
<defs>
<clipPath id="clip0_3206_14200">
<rect width="24" height="24" fill="white"/>
</clipPath>
</defs>
</svg>
