<svg width="24" height="24" viewBox="0 0 24 24" fill="none" xmlns="http://www.w3.org/2000/svg">
<g clip-path="url(#clip0_3207_19242)">
<rect width="24" height="24" fill="white"/>
<path d="M12.001 22C10.1676 22 8.48431 21.5583 6.95098 20.675C5.41764 19.7917 4.20931 18.5833 3.32598 17.05C2.44264 15.5167 2.00098 13.8333 2.00098 12C2.00098 10.1667 2.44264 8.48333 3.32598 6.95C4.20931 5.41667 5.41764 4.20833 6.95098 3.325C8.48431 2.44167 10.1676 2 12.001 2C13.8343 2 15.5176 2.44167 17.051 3.325C18.5843 4.20833 19.7926 5.41667 20.676 6.95C21.5593 8.48333 22.001 10.1667 22.001 12C22.001 13.8333 21.5593 15.5167 20.676 17.05C19.7926 18.5833 18.5843 19.7917 17.051 20.675C15.5176 21.5583 13.8343 22 12.001 22ZM12.001 19.025C13.2843 19.025 14.4593 18.7167 15.526 18.1C16.5926 17.4667 17.4343 16.6167 18.051 15.55C18.6676 14.4833 18.976 13.3 18.976 12C18.976 10.7 18.6676 9.51667 18.051 8.45C17.4343 7.38333 16.5926 6.54167 15.526 5.925C14.4593 5.29167 13.2843 4.975 12.001 4.975C10.7176 4.975 9.54264 5.29167 8.47598 5.925C7.40931 6.54167 6.56764 7.38333 5.95098 8.45C5.33431 9.51667 5.02598 10.7 5.02598 12C5.02598 13.3 5.33431 14.4833 5.95098 15.55C6.56764 16.6167 7.40931 17.4667 8.47598 18.1C9.54264 18.7167 10.7176 19.025 12.001 19.025ZM8.42598 14.15C7.89264 14.15 7.44264 13.9667 7.07598 13.6C6.72598 13.2333 6.55098 12.7917 6.55098 12.275C6.55098 11.7417 6.72598 11.2917 7.07598 10.925C7.44264 10.5583 7.89264 10.375 8.42598 10.375C8.95931 10.375 9.40098 10.5583 9.75098 10.925C10.1176 11.2917 10.301 11.7417 10.301 12.275C10.301 12.7917 10.1176 13.2333 9.75098 13.6C9.40098 13.9667 8.95931 14.15 8.42598 14.15ZM8.42598 12.275C8.24264 12.275 8.10931 12.275 8.02598 12.275C7.95931 12.275 7.83431 12.275 7.65098 12.275C7.83431 12.275 7.95931 12.275 8.02598 12.275C8.10931 12.275 8.24264 12.275 8.42598 12.275C8.59264 12.275 8.71764 12.275 8.80098 12.275C8.88431 12.275 9.00931 12.275 9.17598 12.275C9.00931 12.275 8.88431 12.275 8.80098 12.275C8.71764 12.275 8.59264 12.275 8.42598 12.275ZM15.601 14.15C15.0676 14.15 14.6176 13.9667 14.251 13.6C13.8843 13.2333 13.701 12.7917 13.701 12.275C13.701 11.7417 13.8843 11.2917 14.251 10.925C14.6176 10.5583 15.0676 10.375 15.601 10.375C16.1343 10.375 16.576 10.5583 16.926 10.925C17.2926 11.2917 17.476 11.7417 17.476 12.275C17.476 12.7917 17.2926 13.2333 16.926 13.6C16.5593 13.9667 16.1176 14.15 15.601 14.15ZM15.576 12.275C15.4093 12.275 15.2843 12.275 15.201 12.275C15.1176 12.275 14.9926 12.275 14.826 12.275C14.9926 12.275 15.1176 12.275 15.201 12.275C15.2843 12.275 15.4093 12.275 15.576 12.275C15.7593 12.275 15.8843 12.275 15.951 12.275C16.0343 12.275 16.1676 12.275 16.351 12.275C16.1676 12.275 16.0343 12.275 15.951 12.275C15.8843 12.275 15.7593 12.275 15.576 12.275ZM12.026 10.2C11.476 10.2 11.0176 10.025 10.651 9.675C10.301 9.30833 10.126 8.85833 10.126 8.325C10.126 7.80833 10.301 7.36667 10.651 7C11.0176 6.63333 11.4676 6.45 12.001 6.45C12.5343 6.45 12.9843 6.63333 13.351 7C13.7176 7.36667 13.901 7.80833 13.901 8.325C13.901 8.85833 13.7176 9.30833 13.351 9.675C12.9843 10.025 12.5426 10.2 12.026 10.2ZM12.001 8.325C11.8176 8.325 11.6843 8.325 11.601 8.325C11.5343 8.325 11.4093 8.325 11.226 8.325C11.4093 8.325 11.5343 8.325 11.601 8.325C11.6843 8.325 11.8176 8.325 12.001 8.325C12.1843 8.325 12.3093 8.325 12.376 8.325C12.4593 8.325 12.5926 8.325 12.776 8.325C12.5926 8.325 12.4593 8.325 12.376 8.325C12.3093 8.325 12.1843 8.325 12.001 8.325Z" fill="black"/>
</g>
<defs>
<clipPath id="clip0_3207_19242">
<rect width="24" height="24" fill="white"/>
</clipPath>
</defs>
</svg>
