<svg width="24" height="24" viewBox="0 0 24 24" fill="none" xmlns="http://www.w3.org/2000/svg">
<g clip-path="url(#clip0_3206_14624)">
<rect width="24" height="24" fill="white"/>
<path d="M0.3 12L4.9 4H19.1L23.7 12L19.1 20H4.9L0.3 12ZM13.475 6.65C13.075 6.25 12.5833 6.05 12 6.05C11.4167 6.05 10.925 6.25 10.525 6.65C10.125 7.05 9.925 7.54167 9.925 8.125C9.925 8.69167 10.125 9.175 10.525 9.575C10.925 9.975 11.4167 10.175 12 10.175C12.5833 10.175 13.075 9.975 13.475 9.575C13.875 9.175 14.075 8.69167 14.075 8.125C14.075 7.54167 13.875 7.05 13.475 6.65ZM8.475 10.55C8.075 10.1333 7.58333 9.925 7 9.925C6.41667 9.925 5.925 10.1333 5.525 10.55C5.125 10.95 4.925 11.4333 4.925 12C4.925 12.5667 5.125 13.0583 5.525 13.475C5.925 13.875 6.41667 14.075 7 14.075C7.58333 14.075 8.075 13.875 8.475 13.475C8.875 13.0583 9.075 12.5667 9.075 12C9.075 11.4333 8.875 10.95 8.475 10.55ZM18.475 10.55C18.075 10.1333 17.5833 9.925 17 9.925C16.4167 9.925 15.925 10.1333 15.525 10.55C15.125 10.95 14.925 11.4333 14.925 12C14.925 12.5667 15.125 13.0583 15.525 13.475C15.925 13.875 16.4167 14.075 17 14.075C17.5833 14.075 18.075 13.875 18.475 13.475C18.875 13.0583 19.075 12.5667 19.075 12C19.075 11.4333 18.875 10.95 18.475 10.55Z" fill="black"/>
</g>
<defs>
<clipPath id="clip0_3206_14624">
<rect width="24" height="24" fill="white"/>
</clipPath>
</defs>
</svg>
