<svg width="24" height="24" viewBox="0 0 24 24" fill="none" xmlns="http://www.w3.org/2000/svg">
<g clip-path="url(#clip0_3206_14390)">
<rect width="24" height="24" fill="white"/>
<path d="M17.05 20.675C15.5167 21.5583 13.8333 22 12 22C10.1667 22 8.48333 21.5583 6.95 20.675C5.41667 19.7917 4.20833 18.5833 3.325 17.05C2.44167 15.5167 2 13.8333 2 12C2 10.1667 2.44167 8.48333 3.325 6.95C4.20833 5.41667 5.41667 4.20833 6.95 3.325C8.48333 2.44167 10.1667 2 12 2C13.8333 2 15.5167 2.44167 17.05 3.325C18.5833 4.20833 19.7917 5.41667 20.675 6.95C21.5583 8.48333 22 10.1667 22 12C22 13.8333 21.5583 15.5167 20.675 17.05C19.7917 18.5833 18.5833 19.7917 17.05 20.675ZM8.975 10.55C8.575 10.1333 8.08333 9.925 7.5 9.925C6.91667 9.925 6.425 10.1333 6.025 10.55C5.625 10.95 5.425 11.4333 5.425 12C5.425 12.5667 5.625 13.0583 6.025 13.475C6.425 13.875 6.91667 14.075 7.5 14.075C8.08333 14.075 8.575 13.875 8.975 13.475C9.375 13.0583 9.575 12.5667 9.575 12C9.575 11.4333 9.375 10.95 8.975 10.55ZM17.975 10.55C17.575 10.1333 17.0833 9.925 16.5 9.925C15.9167 9.925 15.425 10.1333 15.025 10.55C14.625 10.95 14.425 11.4333 14.425 12C14.425 12.5667 14.625 13.0583 15.025 13.475C15.425 13.875 15.9167 14.075 16.5 14.075C17.0833 14.075 17.575 13.875 17.975 13.475C18.375 13.0583 18.575 12.5667 18.575 12C18.575 11.4333 18.375 10.95 17.975 10.55ZM14.075 15.5H9.925V16.675C9.925 17.2583 10.125 17.75 10.525 18.15C10.925 18.5333 11.4167 18.725 12 18.725C12.5833 18.725 13.075 18.5333 13.475 18.15C13.875 17.75 14.075 17.2583 14.075 16.675V15.5Z" fill="black"/>
</g>
<defs>
<clipPath id="clip0_3206_14390">
<rect width="24" height="24" fill="white"/>
</clipPath>
</defs>
</svg>
