<svg width="24" height="24" viewBox="0 0 24 24" fill="none" xmlns="http://www.w3.org/2000/svg">
<g clip-path="url(#clip0_3206_14288)">
<rect width="24" height="24" fill="white"/>
<path d="M19.1 20H4.9L0.3 12L4.9 4H19.1L23.7 12L19.1 20ZM10.3 17.5C10.7667 17.95 11.3333 18.175 12 18.175C12.6667 18.175 13.225 17.95 13.675 17.5C14.1417 17.0333 14.375 16.475 14.375 15.825C14.375 15.175 14.1417 14.625 13.675 14.175C13.225 13.7083 12.6667 13.475 12 13.475C11.3333 13.475 10.7667 13.7083 10.3 14.175C9.85 14.625 9.625 15.175 9.625 15.825C9.625 16.475 9.85 17.0333 10.3 17.5ZM5.3 13.675C5.76667 14.125 6.33333 14.35 7 14.35C7.66667 14.35 8.225 14.125 8.675 13.675C9.14167 13.2083 9.375 12.65 9.375 12C9.375 11.35 9.14167 10.8 8.675 10.35C8.225 9.88333 7.66667 9.65 7 9.65C6.33333 9.65 5.76667 9.88333 5.3 10.35C4.85 10.8 4.625 11.35 4.625 12C4.625 12.65 4.85 13.2083 5.3 13.675ZM15.3 13.675C15.7667 14.125 16.3333 14.35 17 14.35C17.6667 14.35 18.225 14.125 18.675 13.675C19.1417 13.2083 19.375 12.65 19.375 12C19.375 11.35 19.1417 10.8 18.675 10.35C18.225 9.88333 17.6667 9.65 17 9.65C16.3333 9.65 15.7667 9.88333 15.3 10.35C14.85 10.8 14.625 11.35 14.625 12C14.625 12.65 14.85 13.2083 15.3 13.675ZM10.3 9.75C10.7667 10.2 11.3333 10.425 12 10.425C12.6667 10.425 13.225 10.2 13.675 9.75C14.1417 9.28333 14.375 8.725 14.375 8.075C14.375 7.425 14.1417 6.875 13.675 6.425C13.225 5.95833 12.6667 5.725 12 5.725C11.3333 5.725 10.7667 5.95833 10.3 6.425C9.85 6.875 9.625 7.425 9.625 8.075C9.625 8.725 9.85 9.28333 10.3 9.75Z" fill="black"/>
</g>
<defs>
<clipPath id="clip0_3206_14288">
<rect width="24" height="24" fill="white"/>
</clipPath>
</defs>
</svg>
