<svg width="24" height="24" viewBox="0 0 24 24" fill="none" xmlns="http://www.w3.org/2000/svg">
<g clip-path="url(#clip0_3206_14272)">
<rect width="24" height="24" fill="white"/>
<path d="M7.37549 13.775C6.85882 13.775 6.41716 13.6 6.05049 13.25C5.70049 12.9 5.52549 12.4667 5.52549 11.95C5.52549 11.45 5.70049 11.025 6.05049 10.675C6.41716 10.325 6.85882 10.15 7.37549 10.15C7.89216 10.15 8.31716 10.325 8.65049 10.675C9.00049 11.025 9.17549 11.4583 9.17549 11.975C9.17549 12.475 9.00049 12.9 8.65049 13.25C8.30049 13.6 7.87549 13.775 7.37549 13.775ZM7.35049 11.975C7.18382 11.975 7.05882 11.975 6.97549 11.975C6.89216 11.975 6.77549 11.975 6.62549 11.975C6.79216 11.975 6.91716 11.975 7.00049 11.975C7.08382 11.975 7.20049 11.975 7.35049 11.975C7.53382 11.975 7.65882 11.975 7.72549 11.975C7.80882 11.975 7.94216 11.975 8.12549 11.975C7.94216 11.975 7.80882 11.975 7.72549 11.975C7.65882 11.975 7.53382 11.975 7.35049 11.975ZM16.6505 13.775C16.1338 13.775 15.6922 13.6 15.3255 13.25C14.9755 12.9 14.8005 12.4667 14.8005 11.95C14.8005 11.45 14.9755 11.025 15.3255 10.675C15.6922 10.325 16.1338 10.15 16.6505 10.15C17.1672 10.15 17.5922 10.325 17.9255 10.675C18.2755 11.025 18.4505 11.4583 18.4505 11.975C18.4505 12.475 18.2755 12.9 17.9255 13.25C17.5755 13.6 17.1505 13.775 16.6505 13.775ZM16.6255 11.975C16.4588 11.975 16.3338 11.975 16.2505 11.975C16.1672 11.975 16.0505 11.975 15.9005 11.975C16.0672 11.975 16.1922 11.975 16.2755 11.975C16.3588 11.975 16.4755 11.975 16.6255 11.975C16.8088 11.975 16.9338 11.975 17.0005 11.975C17.0838 11.975 17.2172 11.975 17.4005 11.975C17.2172 11.975 17.0838 11.975 17.0005 11.975C16.9338 11.975 16.8088 11.975 16.6255 11.975ZM12.0005 11.475C11.5172 11.475 11.1172 11.3167 10.8005 11C10.4838 10.6667 10.3255 10.2667 10.3255 9.8C10.3255 9.33333 10.4838 8.94167 10.8005 8.625C11.1338 8.29167 11.5338 8.125 12.0005 8.125C12.4838 8.125 12.8838 8.29167 13.2005 8.625C13.5338 8.94167 13.7005 9.33333 13.7005 9.8C13.7005 10.2667 13.5338 10.6667 13.2005 11C12.8838 11.3167 12.4838 11.475 12.0005 11.475ZM12.0005 9.8C12.1672 9.8 12.2838 9.8 12.3505 9.8C12.4172 9.8 12.5338 9.8 12.7005 9.8C12.5338 9.8 12.4088 9.8 12.3255 9.8C12.2588 9.8 12.1505 9.8 12.0005 9.8C11.8338 9.8 11.7172 9.8 11.6505 9.8C11.5838 9.8 11.4672 9.8 11.3005 9.8C11.4672 9.8 11.5838 9.8 11.6505 9.8C11.7338 9.8 11.8505 9.8 12.0005 9.8ZM17.3755 17.1L20.3005 12L17.3755 6.9H6.62549L3.70049 12L6.62549 17.1H17.3755ZM0.300488 12L4.90049 4H19.1005L23.7005 12L19.1005 20H4.90049L0.300488 12ZM12.0255 16.325C11.5088 16.325 11.0672 16.15 10.7005 15.8C10.3505 15.4333 10.1755 15 10.1755 14.5C10.1755 13.9833 10.3505 13.55 10.7005 13.2C11.0672 12.85 11.5088 12.675 12.0255 12.675C12.5422 12.675 12.9672 12.8583 13.3005 13.225C13.6505 13.575 13.8255 14 13.8255 14.5C13.8255 15 13.6505 15.4333 13.3005 15.8C12.9505 16.15 12.5255 16.325 12.0255 16.325ZM12.0005 14.5C11.8338 14.5 11.7088 14.5 11.6255 14.5C11.5422 14.5 11.4255 14.5 11.2755 14.5C11.4422 14.5 11.5672 14.5 11.6505 14.5C11.7338 14.5 11.8505 14.5 12.0005 14.5C12.1838 14.5 12.3088 14.5 12.3755 14.5C12.4588 14.5 12.5922 14.5 12.7755 14.5C12.5922 14.5 12.4588 14.5 12.3755 14.5C12.3088 14.5 12.1838 14.5 12.0005 14.5Z" fill="black"/>
</g>
<defs>
<clipPath id="clip0_3206_14272">
<rect width="24" height="24" fill="white"/>
</clipPath>
</defs>
</svg>
