<svg width="24" height="24" viewBox="0 0 24 24" fill="none" xmlns="http://www.w3.org/2000/svg">
<g clip-path="url(#clip0_3207_18722)">
<rect width="24" height="24" fill="white"/>
<path d="M10.176 14.775H7.22598V9.275H10.176V14.775ZM16.776 13.825H13.826V10.2H16.776V13.825ZM19.701 11.975C19.701 10.925 19.526 9.925 19.176 8.975C18.8426 8.025 18.3676 7.175 17.751 6.425H6.27598C5.65931 7.175 5.17598 8.025 4.82598 8.975C4.49264 9.925 4.32598 10.925 4.32598 11.975C4.32598 13.025 4.49264 14.025 4.82598 14.975C5.17598 15.925 5.65931 16.775 6.27598 17.525H17.751C18.3676 16.775 18.8426 15.925 19.176 14.975C19.526 14.025 19.701 13.025 19.701 11.975ZM22.701 11.975C22.701 13.625 22.3843 15.1833 21.751 16.65C21.1176 18.1167 20.2343 19.3917 19.101 20.475H4.95098C3.81764 19.3917 2.92598 18.1167 2.27598 16.65C1.64264 15.1833 1.32598 13.625 1.32598 11.975C1.32598 10.325 1.64264 8.76667 2.27598 7.3C2.92598 5.83333 3.81764 4.55833 4.95098 3.475H19.101C20.2343 4.55833 21.1176 5.83333 21.751 7.3C22.3843 8.76667 22.701 10.325 22.701 11.975Z" fill="black"/>
</g>
<defs>
<clipPath id="clip0_3207_18722">
<rect width="24" height="24" fill="white"/>
</clipPath>
</defs>
</svg>
