<svg width="24" height="24" viewBox="0 0 24 24" fill="none" xmlns="http://www.w3.org/2000/svg">
<g clip-path="url(#clip0_3208_21121)">
<rect width="24" height="24" fill="white"/>
<path d="M13.701 17.4H10.301V13.65H13.701V17.4ZM9.52598 12.525L7.17598 10.175L9.52598 7.825L11.876 10.175L9.52598 12.525ZM14.476 7.825L16.826 10.175L14.476 12.525L12.126 10.175L14.476 7.825ZM12.026 4.825C11.0926 4.825 10.1926 4.975 9.32598 5.275C8.47598 5.55833 7.70931 5.95833 7.02598 6.475V17.45C7.70931 17.9667 8.47598 18.375 9.32598 18.675C10.1926 18.9583 11.0926 19.1 12.026 19.1C12.9593 19.1 13.851 18.9583 14.701 18.675C15.5676 18.375 16.3426 17.9667 17.026 17.45V6.475C16.3426 5.95833 15.5676 5.55833 14.701 5.275C13.851 4.975 12.9593 4.825 12.026 4.825ZM12.026 1.275C13.676 1.275 15.2343 1.59167 16.701 2.225C18.1676 2.85833 19.4426 3.74167 20.526 4.875V19.025C19.4426 20.1583 18.1676 21.0417 16.701 21.675C15.2343 22.325 13.676 22.65 12.026 22.65C10.376 22.65 8.81764 22.325 7.35098 21.675C5.88431 21.0417 4.60931 20.1583 3.52598 19.025V4.875C4.60931 3.74167 5.88431 2.85833 7.35098 2.225C8.81764 1.59167 10.376 1.275 12.026 1.275Z" fill="black"/>
</g>
<defs>
<clipPath id="clip0_3208_21121">
<rect width="24" height="24" fill="white"/>
</clipPath>
</defs>
</svg>
