<svg width="24" height="24" viewBox="0 0 24 24" fill="none" xmlns="http://www.w3.org/2000/svg">
<g clip-path="url(#clip0_3207_19242)">
<rect width="24" height="24" fill="white"/>
<path d="M12.001 22C10.1676 22 8.48431 21.5583 6.95098 20.675C5.41764 19.7917 4.20931 18.5833 3.32598 17.05C2.44264 15.5167 2.00098 13.8333 2.00098 12C2.00098 10.1667 2.44264 8.48333 3.32598 6.95C4.20931 5.41667 5.41764 4.20833 6.95098 3.325C8.48431 2.44167 10.1676 2 12.001 2C13.8343 2 15.5176 2.44167 17.051 3.325C18.5843 4.20833 19.7926 5.41667 20.676 6.95C21.5593 8.48333 22.001 10.1667 22.001 12C22.001 13.8333 21.5593 15.5167 20.676 17.05C19.7926 18.5833 18.5843 19.7917 17.051 20.675C15.5176 21.5583 13.8343 22 12.001 22ZM12.001 19.075C13.301 19.075 14.4843 18.7667 15.551 18.15C16.6343 17.5167 17.4843 16.6583 18.101 15.575C18.7176 14.4917 19.026 13.3 19.026 12C19.026 10.7 18.7176 9.50833 18.101 8.425C17.4843 7.34167 16.6343 6.49167 15.551 5.875C14.4843 5.24167 13.301 4.925 12.001 4.925C10.701 4.925 9.50931 5.24167 8.42598 5.875C7.35931 6.49167 6.51764 7.34167 5.90098 8.425C5.28431 9.50833 4.97598 10.7 4.97598 12C4.97598 13.3 5.28431 14.4917 5.90098 15.575C6.51764 16.6583 7.35931 17.5167 8.42598 18.15C9.50931 18.7667 10.701 19.075 12.001 19.075ZM8.42598 14.05C7.85931 14.05 7.37598 13.85 6.97598 13.45C6.57598 13.05 6.37598 12.5667 6.37598 12C6.37598 11.4333 6.57598 10.95 6.97598 10.55C7.37598 10.15 7.85931 9.95 8.42598 9.95C9.00931 9.95 9.49264 10.15 9.87598 10.55C10.276 10.95 10.476 11.4333 10.476 12C10.476 12.5667 10.276 13.05 9.87598 13.45C9.49264 13.85 9.00931 14.05 8.42598 14.05ZM8.42598 12C8.22598 12 8.08431 12 8.00098 12C7.91764 12 7.78431 12 7.60098 12C7.78431 12 7.91764 12 8.00098 12C8.10098 12 8.24264 12 8.42598 12C8.62598 12 8.76764 12 8.85098 12C8.93431 12 9.06764 12 9.25098 12C9.06764 12 8.92598 12 8.82598 12C8.74264 12 8.60931 12 8.42598 12ZM15.576 14.05C15.0093 14.05 14.526 13.85 14.126 13.45C13.726 13.05 13.526 12.5667 13.526 12C13.526 11.4333 13.726 10.95 14.126 10.55C14.526 10.15 15.0093 9.95 15.576 9.95C16.1593 9.95 16.6426 10.15 17.026 10.55C17.426 10.95 17.626 11.4333 17.626 12C17.626 12.5667 17.426 13.05 17.026 13.45C16.6426 13.85 16.1593 14.05 15.576 14.05ZM15.576 12C15.376 12 15.2343 12 15.151 12C15.0676 12 14.9343 12 14.751 12C14.9343 12 15.0676 12 15.151 12C15.251 12 15.3926 12 15.576 12C15.776 12 15.9176 12 16.001 12C16.0843 12 16.2176 12 16.401 12C16.2176 12 16.076 12 15.976 12C15.8926 12 15.7593 12 15.576 12ZM12.001 10.1C11.4343 10.1 10.951 9.9 10.551 9.5C10.151 9.1 9.95098 8.61667 9.95098 8.05C9.95098 7.48333 10.151 7 10.551 6.6C10.951 6.2 11.4343 6 12.001 6C12.5843 6 13.0676 6.2 13.451 6.6C13.851 7 14.051 7.48333 14.051 8.05C14.051 8.61667 13.851 9.1 13.451 9.5C13.0676 9.9 12.5843 10.1 12.001 10.1ZM12.001 8.05C11.801 8.05 11.6593 8.05 11.576 8.05C11.4926 8.05 11.3593 8.05 11.176 8.05C11.3593 8.05 11.4926 8.05 11.576 8.05C11.676 8.05 11.8176 8.05 12.001 8.05C12.201 8.05 12.3426 8.05 12.426 8.05C12.5093 8.05 12.6426 8.05 12.826 8.05C12.6426 8.05 12.501 8.05 12.401 8.05C12.3176 8.05 12.1843 8.05 12.001 8.05Z" fill="black"/>
</g>
<defs>
<clipPath id="clip0_3207_19242">
<rect width="24" height="24" fill="white"/>
</clipPath>
</defs>
</svg>
