<svg width="24" height="24" viewBox="0 0 24 24" fill="none" xmlns="http://www.w3.org/2000/svg">
<g clip-path="url(#clip0_3207_20233)">
<rect width="24" height="24" fill="white"/>
<path d="M13.151 6.6H10.651V3H13.151V6.6ZM13.151 21H10.651V17.4H13.151V21ZM12.001 22C10.1676 22 8.48431 21.5583 6.95098 20.675C5.41764 19.7917 4.20931 18.5833 3.32598 17.05C2.44264 15.5167 2.00098 13.8333 2.00098 12C2.00098 10.1667 2.44264 8.48333 3.32598 6.95C4.20931 5.41667 5.41764 4.20833 6.95098 3.325C8.48431 2.44167 10.1676 2 12.001 2C13.8343 2 15.5176 2.44167 17.051 3.325C18.5843 4.20833 19.7926 5.41667 20.676 6.95C21.5593 8.48333 22.001 10.1667 22.001 12C22.001 13.8333 21.5593 15.5167 20.676 17.05C19.7926 18.5833 18.5843 19.7917 17.051 20.675C15.5176 21.5583 13.8343 22 12.001 22ZM12.001 19.575C13.401 19.575 14.6676 19.2417 15.801 18.575C16.951 17.9083 17.8593 17 18.526 15.85C19.1926 14.6833 19.526 13.4 19.526 12C19.526 10.6 19.1926 9.325 18.526 8.175C17.8593 7.00833 16.951 6.09167 15.801 5.425C14.6676 4.75833 13.401 4.425 12.001 4.425C10.601 4.425 9.32598 4.75833 8.17598 5.425C7.04264 6.09167 6.14264 7.00833 5.47598 8.175C4.80931 9.325 4.47598 10.6 4.47598 12C4.47598 13.4 4.80931 14.6833 5.47598 15.85C6.14264 17 7.04264 17.9083 8.17598 18.575C9.32598 19.2417 10.601 19.575 12.001 19.575ZM8.50098 13.7C8.01764 13.7 7.60931 13.5417 7.27598 13.225C6.95931 12.8917 6.80098 12.4833 6.80098 12C6.80098 11.5167 6.95931 11.1167 7.27598 10.8C7.60931 10.4667 8.01764 10.3 8.50098 10.3C8.98431 10.3 9.38431 10.4667 9.70098 10.8C10.0343 11.1167 10.201 11.5167 10.201 12C10.201 12.4833 10.0343 12.8917 9.70098 13.225C9.38431 13.5417 8.98431 13.7 8.50098 13.7ZM8.50098 12C8.33431 12 8.20931 12 8.12598 12C8.04264 12 7.91764 12 7.75098 12C7.93431 12 8.05931 12 8.12598 12C8.20931 12 8.33431 12 8.50098 12C8.66764 12 8.79264 12 8.87598 12C8.95931 12 9.08431 12 9.25098 12C9.06764 12 8.93431 12 8.85098 12C8.78431 12 8.66764 12 8.50098 12ZM15.501 13.7C15.0176 13.7 14.6093 13.5417 14.276 13.225C13.9593 12.8917 13.801 12.4833 13.801 12C13.801 11.5167 13.9593 11.1167 14.276 10.8C14.6093 10.4667 15.0176 10.3 15.501 10.3C15.9843 10.3 16.3843 10.4667 16.701 10.8C17.0343 11.1167 17.201 11.5167 17.201 12C17.201 12.4833 17.0343 12.8917 16.701 13.225C16.3843 13.5417 15.9843 13.7 15.501 13.7ZM15.501 12C15.3343 12 15.2093 12 15.126 12C15.0426 12 14.9176 12 14.751 12C14.9343 12 15.0593 12 15.126 12C15.2093 12 15.3343 12 15.501 12C15.6676 12 15.7926 12 15.876 12C15.9593 12 16.0843 12 16.251 12C16.0676 12 15.9343 12 15.851 12C15.7843 12 15.6676 12 15.501 12Z" fill="black"/>
</g>
<defs>
<clipPath id="clip0_3207_20233">
<rect width="24" height="24" fill="white"/>
</clipPath>
</defs>
</svg>
