<svg width="24" height="24" viewBox="0 0 24 24" fill="none" xmlns="http://www.w3.org/2000/svg">
<g clip-path="url(#clip0_3207_20249)">
<rect width="24" height="24" fill="white"/>
<path d="M10.5005 18.925V21.875C8.90049 21.6583 7.45049 21.0917 6.15049 20.175C4.86716 19.2417 3.85049 18.0667 3.10049 16.65C2.36716 15.2167 2.00049 13.6667 2.00049 12C2.00049 10.3333 2.36716 8.79167 3.10049 7.375C3.85049 5.94167 4.86716 4.76667 6.15049 3.85C7.45049 2.91667 8.90049 2.34167 10.5005 2.125V5.075H13.5005V2.125C15.1005 2.34167 16.5422 2.91667 17.8255 3.85C19.1255 4.76667 20.1422 5.94167 20.8755 7.375C21.6255 8.79167 22.0005 10.3333 22.0005 12C22.0005 13.6667 21.6255 15.2167 20.8755 16.65C20.1422 18.0667 19.1255 19.2417 17.8255 20.175C16.5422 21.0917 15.1005 21.6583 13.5005 21.875V18.925H10.5005ZM6.02549 13.475C6.42549 13.875 6.91716 14.075 7.50049 14.075C8.08382 14.075 8.57549 13.875 8.97549 13.475C9.37549 13.0583 9.57549 12.5667 9.57549 12C9.57549 11.4333 9.37549 10.95 8.97549 10.55C8.57549 10.1333 8.08382 9.925 7.50049 9.925C6.91716 9.925 6.42549 10.1333 6.02549 10.55C5.62549 10.95 5.42549 11.4333 5.42549 12C5.42549 12.5667 5.62549 13.0583 6.02549 13.475ZM15.0255 13.475C15.4255 13.875 15.9172 14.075 16.5005 14.075C17.0838 14.075 17.5755 13.875 17.9755 13.475C18.3755 13.0583 18.5755 12.5667 18.5755 12C18.5755 11.4333 18.3755 10.95 17.9755 10.55C17.5755 10.1333 17.0838 9.925 16.5005 9.925C15.9172 9.925 15.4255 10.1333 15.0255 10.55C14.6255 10.95 14.4255 11.4333 14.4255 12C14.4255 12.5667 14.6255 13.0583 15.0255 13.475Z" fill="black"/>
</g>
<defs>
<clipPath id="clip0_3207_20249">
<rect width="24" height="24" fill="white"/>
</clipPath>
</defs>
</svg>
