<svg width="24" height="24" viewBox="0 0 24 24" fill="none" xmlns="http://www.w3.org/2000/svg">
<g clip-path="url(#clip0_3207_19234)">
<rect width="24" height="24" fill="white"/>
<path d="M12.001 22C10.1676 22 8.48431 21.5583 6.95098 20.675C5.41764 19.7917 4.20931 18.5833 3.32598 17.05C2.44264 15.5167 2.00098 13.8333 2.00098 12C2.00098 10.1667 2.44264 8.48333 3.32598 6.95C4.20931 5.41667 5.41764 4.20833 6.95098 3.325C8.48431 2.44167 10.1676 2 12.001 2C13.8343 2 15.5176 2.44167 17.051 3.325C18.5843 4.20833 19.7926 5.41667 20.676 6.95C21.5593 8.48333 22.001 10.1667 22.001 12C22.001 13.8333 21.5593 15.5167 20.676 17.05C19.7926 18.5833 18.5843 19.7917 17.051 20.675C15.5176 21.5583 13.8343 22 12.001 22ZM12.001 21.075C13.6676 21.075 15.1843 20.675 16.551 19.875C17.9343 19.075 19.026 17.9833 19.826 16.6C20.626 15.2 21.026 13.6667 21.026 12C21.026 10.3333 20.626 8.80833 19.826 7.425C19.026 6.025 17.9343 4.925 16.551 4.125C15.1843 3.325 13.6676 2.925 12.001 2.925C10.3343 2.925 8.80931 3.325 7.42598 4.125C6.05931 4.925 4.97598 6.025 4.17598 7.425C3.37598 8.80833 2.97598 10.3333 2.97598 12C2.97598 13.6667 3.37598 15.2 4.17598 16.6C4.97598 17.9833 6.05931 19.075 7.42598 19.875C8.80931 20.675 10.3343 21.075 12.001 21.075ZM8.07598 14.25C7.44264 14.25 6.90931 14.0333 6.47598 13.6C6.04264 13.15 5.82598 12.6167 5.82598 12C5.82598 11.3667 6.04264 10.8333 6.47598 10.4C6.90931 9.96667 7.44264 9.75 8.07598 9.75C8.70931 9.75 9.24264 9.975 9.67598 10.425C10.1093 10.8583 10.326 11.3833 10.326 12C10.326 12.6333 10.1093 13.1667 9.67598 13.6C9.24264 14.0333 8.70931 14.25 8.07598 14.25ZM8.07598 13.375C8.45931 13.375 8.78431 13.2417 9.05098 12.975C9.31764 12.7083 9.45098 12.3833 9.45098 12C9.45098 11.6167 9.31764 11.2917 9.05098 11.025C8.78431 10.7583 8.45931 10.625 8.07598 10.625C7.69264 10.625 7.36764 10.7583 7.10098 11.025C6.83431 11.2917 6.70098 11.6167 6.70098 12C6.70098 12.3833 6.83431 12.7083 7.10098 12.975C7.36764 13.2417 7.69264 13.375 8.07598 13.375ZM15.926 14.25C15.2926 14.25 14.7593 14.0333 14.326 13.6C13.8926 13.15 13.676 12.6167 13.676 12C13.676 11.3667 13.8926 10.8333 14.326 10.4C14.7593 9.96667 15.2926 9.75 15.926 9.75C16.5593 9.75 17.0926 9.975 17.526 10.425C17.9593 10.8583 18.176 11.3833 18.176 12C18.176 12.6333 17.9593 13.1667 17.526 13.6C17.0926 14.0333 16.5593 14.25 15.926 14.25ZM15.926 13.375C16.3093 13.375 16.6343 13.2417 16.901 12.975C17.1676 12.7083 17.301 12.3833 17.301 12C17.301 11.6167 17.1676 11.2917 16.901 11.025C16.6343 10.7583 16.3093 10.625 15.926 10.625C15.5426 10.625 15.2176 10.7583 14.951 11.025C14.6843 11.2917 14.551 11.6167 14.551 12C14.551 12.3833 14.6843 12.7083 14.951 12.975C15.2176 13.2417 15.5426 13.375 15.926 13.375ZM12.001 9.325C11.3676 9.325 10.8343 9.10833 10.401 8.675C9.96764 8.225 9.75098 7.69167 9.75098 7.075C9.75098 6.44167 9.96764 5.90833 10.401 5.475C10.8343 5.04167 11.3676 4.825 12.001 4.825C12.6343 4.825 13.1676 5.05 13.601 5.5C14.0343 5.93333 14.251 6.45833 14.251 7.075C14.251 7.70833 14.0343 8.24167 13.601 8.675C13.1676 9.10833 12.6343 9.325 12.001 9.325ZM12.001 8.45C12.3843 8.45 12.7093 8.31667 12.976 8.05C13.2426 7.78333 13.376 7.45833 13.376 7.075C13.376 6.69167 13.2426 6.36667 12.976 6.1C12.7093 5.83333 12.3843 5.7 12.001 5.7C11.6176 5.7 11.2926 5.83333 11.026 6.1C10.7593 6.36667 10.626 6.69167 10.626 7.075C10.626 7.45833 10.7593 7.78333 11.026 8.05C11.2926 8.31667 11.6176 8.45 12.001 8.45Z" fill="black"/>
</g>
<defs>
<clipPath id="clip0_3207_19234">
<rect width="24" height="24" fill="white"/>
</clipPath>
</defs>
</svg>
