<svg width="24" height="24" viewBox="0 0 24 24" fill="none" xmlns="http://www.w3.org/2000/svg">
<g clip-path="url(#clip0_3206_14532)">
<rect width="24" height="24" fill="white"/>
<path d="M5.95049 18.1H18.0505V5.9H5.95049V18.1ZM21.0005 3V21H3.00049V3H21.0005ZM9.10049 15.75C8.56716 15.75 8.11716 15.575 7.75049 15.225C7.40049 14.875 7.22549 14.45 7.22549 13.95C7.22549 13.4333 7.40049 13 7.75049 12.65C8.11716 12.3 8.56716 12.125 9.10049 12.125C9.63382 12.125 10.0755 12.3 10.4255 12.65C10.7922 13 10.9755 13.425 10.9755 13.925C10.9755 14.4417 10.7922 14.875 10.4255 15.225C10.0755 15.575 9.63382 15.75 9.10049 15.75ZM9.10049 13.925C8.91716 13.925 8.78382 13.925 8.70049 13.925C8.63382 13.925 8.50882 13.925 8.32549 13.925C8.50882 13.925 8.63382 13.925 8.70049 13.925C8.78382 13.925 8.91716 13.925 9.10049 13.925C9.28382 13.925 9.40882 13.925 9.47549 13.925C9.55882 13.925 9.69216 13.925 9.87549 13.925C9.69216 13.925 9.55882 13.925 9.47549 13.925C9.40882 13.925 9.28382 13.925 9.10049 13.925ZM14.9505 15.75C14.4172 15.75 13.9672 15.575 13.6005 15.225C13.2505 14.875 13.0755 14.45 13.0755 13.95C13.0755 13.4333 13.2505 13 13.6005 12.65C13.9672 12.3 14.4172 12.125 14.9505 12.125C15.4838 12.125 15.9255 12.3 16.2755 12.65C16.6422 13 16.8255 13.425 16.8255 13.925C16.8255 14.4417 16.6422 14.875 16.2755 15.225C15.9255 15.575 15.4838 15.75 14.9505 15.75ZM14.9505 13.925C14.7672 13.925 14.6338 13.925 14.5505 13.925C14.4838 13.925 14.3588 13.925 14.1755 13.925C14.3588 13.925 14.4838 13.925 14.5505 13.925C14.6338 13.925 14.7672 13.925 14.9505 13.925C15.1338 13.925 15.2588 13.925 15.3255 13.925C15.4088 13.925 15.5422 13.925 15.7255 13.925C15.5422 13.925 15.4088 13.925 15.3255 13.925C15.2588 13.925 15.1338 13.925 14.9505 13.925ZM12.0005 12.05C11.2338 12.05 10.6005 11.8083 10.1005 11.325C9.60049 10.8417 9.35049 10.225 9.35049 9.475C9.35049 8.74167 9.60049 8.125 10.1005 7.625C10.6005 7.125 11.2338 6.875 12.0005 6.875C12.7672 6.875 13.4005 7.125 13.9005 7.625C14.4005 8.125 14.6505 8.74167 14.6505 9.475C14.6505 10.225 14.4005 10.8417 13.9005 11.325C13.4005 11.8083 12.7672 12.05 12.0005 12.05ZM12.0005 10.3C12.2338 10.3 12.4255 10.225 12.5755 10.075C12.7422 9.925 12.8255 9.725 12.8255 9.475C12.8255 9.24167 12.7422 9.05 12.5755 8.9C12.4255 8.73333 12.2338 8.65 12.0005 8.65C11.7672 8.65 11.5672 8.73333 11.4005 8.9C11.2505 9.05 11.1755 9.24167 11.1755 9.475C11.1755 9.725 11.2505 9.925 11.4005 10.075C11.5672 10.225 11.7672 10.3 12.0005 10.3Z" fill="black"/>
</g>
<defs>
<clipPath id="clip0_3206_14532">
<rect width="24" height="24" fill="white"/>
</clipPath>
</defs>
</svg>
