<svg width="24" height="24" viewBox="0 0 24 24" fill="none" xmlns="http://www.w3.org/2000/svg">
<g clip-path="url(#clip0_3207_20243)">
<rect width="24" height="24" fill="white"/>
<path d="M11.2505 18.925V21.975C9.53382 21.8583 7.96716 21.35 6.55049 20.45C5.15049 19.5333 4.04216 18.3417 3.22549 16.875C2.40882 15.3917 2.00049 13.7667 2.00049 12C2.00049 10.25 2.40882 8.63333 3.22549 7.15C4.04216 5.66667 5.15049 4.475 6.55049 3.575C7.96716 2.65833 9.53382 2.14167 11.2505 2.025V5.075H12.7505V2.025C14.4672 2.14167 16.0255 2.65833 17.4255 3.575C18.8422 4.475 19.9588 5.66667 20.7755 7.15C21.5922 8.63333 22.0005 10.25 22.0005 12C22.0005 13.7667 21.5922 15.3917 20.7755 16.875C19.9588 18.3417 18.8422 19.5333 17.4255 20.45C16.0255 21.35 14.4672 21.8583 12.7505 21.975V18.925H11.2505ZM6.42549 13.075C6.72549 13.3583 7.08382 13.5 7.50049 13.5C7.91716 13.5 8.26716 13.3583 8.55049 13.075C8.85049 12.775 9.00049 12.4167 9.00049 12C9.00049 11.5833 8.85049 11.2333 8.55049 10.95C8.26716 10.65 7.91716 10.5 7.50049 10.5C7.08382 10.5 6.72549 10.65 6.42549 10.95C6.14216 11.2333 6.00049 11.5833 6.00049 12C6.00049 12.4167 6.14216 12.775 6.42549 13.075ZM15.4255 13.075C15.7255 13.3583 16.0838 13.5 16.5005 13.5C16.9172 13.5 17.2672 13.3583 17.5505 13.075C17.8505 12.775 18.0005 12.4167 18.0005 12C18.0005 11.5833 17.8505 11.2333 17.5505 10.95C17.2672 10.65 16.9172 10.5 16.5005 10.5C16.0838 10.5 15.7255 10.65 15.4255 10.95C15.1422 11.2333 15.0005 11.5833 15.0005 12C15.0005 12.4167 15.1422 12.775 15.4255 13.075Z" fill="black"/>
</g>
<defs>
<clipPath id="clip0_3207_20243">
<rect width="24" height="24" fill="white"/>
</clipPath>
</defs>
</svg>
