<svg width="24" height="24" viewBox="0 0 24 24" fill="none" xmlns="http://www.w3.org/2000/svg">
<g clip-path="url(#clip0_3206_14192)">
<rect width="24" height="24" fill="white"/>
<path d="M2.50049 19.525H21.5005V4.475H2.50049V19.525ZM22.0005 4V20H2.00049V4H22.0005ZM6.15049 13.975C5.58382 13.975 5.10882 13.7833 4.72549 13.4C4.34216 13.0167 4.15049 12.55 4.15049 12C4.15049 11.45 4.34216 10.9833 4.72549 10.6C5.10882 10.2167 5.58382 10.025 6.15049 10.025C6.71716 10.025 7.19215 10.2167 7.57549 10.6C7.95882 10.9833 8.15049 11.45 8.15049 12C8.15049 12.55 7.95882 13.0167 7.57549 13.4C7.19215 13.7833 6.71716 13.975 6.15049 13.975ZM6.17549 13.525C6.59216 13.525 6.94216 13.375 7.22549 13.075C7.52549 12.775 7.67549 12.4167 7.67549 12C7.67549 11.5667 7.52549 11.2083 7.22549 10.925C6.94216 10.625 6.59216 10.475 6.17549 10.475C5.74216 10.475 5.37549 10.625 5.07549 10.925C4.77549 11.2083 4.62549 11.5667 4.62549 12C4.62549 12.4167 4.77549 12.775 5.07549 13.075C5.37549 13.375 5.74216 13.525 6.17549 13.525ZM17.8505 13.975C17.2838 13.975 16.8088 13.7833 16.4255 13.4C16.0422 13.0167 15.8505 12.55 15.8505 12C15.8505 11.45 16.0422 10.9833 16.4255 10.6C16.8088 10.2167 17.2838 10.025 17.8505 10.025C18.4172 10.025 18.8922 10.2167 19.2755 10.6C19.6588 10.9833 19.8505 11.45 19.8505 12C19.8505 12.55 19.6588 13.0167 19.2755 13.4C18.8922 13.7833 18.4172 13.975 17.8505 13.975ZM17.8755 13.525C18.2922 13.525 18.6422 13.375 18.9255 13.075C19.2255 12.775 19.3755 12.4167 19.3755 12C19.3755 11.5667 19.2255 11.2083 18.9255 10.925C18.6422 10.625 18.2922 10.475 17.8755 10.475C17.4422 10.475 17.0755 10.625 16.7755 10.925C16.4755 11.2083 16.3255 11.5667 16.3255 12C16.3255 12.4167 16.4755 12.775 16.7755 13.075C17.0755 13.375 17.4422 13.525 17.8755 13.525ZM12.0005 13.975C11.4338 13.975 10.9588 13.7833 10.5755 13.4C10.1922 13.0167 10.0005 12.55 10.0005 12C10.0005 11.45 10.1922 10.9833 10.5755 10.6C10.9588 10.2167 11.4338 10.025 12.0005 10.025C12.5672 10.025 13.0422 10.2167 13.4255 10.6C13.8088 10.9833 14.0005 11.45 14.0005 12C14.0005 12.55 13.8088 13.0167 13.4255 13.4C13.0422 13.7833 12.5672 13.975 12.0005 13.975ZM12.0255 13.525C12.4422 13.525 12.7922 13.375 13.0755 13.075C13.3755 12.775 13.5255 12.4167 13.5255 12C13.5255 11.5667 13.3755 11.2083 13.0755 10.925C12.7922 10.625 12.4422 10.475 12.0255 10.475C11.5922 10.475 11.2255 10.625 10.9255 10.925C10.6255 11.2083 10.4755 11.5667 10.4755 12C10.4755 12.4167 10.6255 12.775 10.9255 13.075C11.2255 13.375 11.5922 13.525 12.0255 13.525Z" fill="black"/>
</g>
<defs>
<clipPath id="clip0_3206_14192">
<rect width="24" height="24" fill="white"/>
</clipPath>
</defs>
</svg>
