<svg width="24" height="24" viewBox="0 0 24 24" fill="none" xmlns="http://www.w3.org/2000/svg">
<g clip-path="url(#clip0_3206_14378)">
<rect width="24" height="24" fill="white"/>
<path d="M12.0005 22C10.1672 22 8.48382 21.5583 6.95049 20.675C5.41716 19.7917 4.20882 18.5833 3.32549 17.05C2.44216 15.5167 2.00049 13.8333 2.00049 12C2.00049 10.1667 2.44216 8.48333 3.32549 6.95C4.20882 5.41667 5.41716 4.20833 6.95049 3.325C8.48382 2.44167 10.1672 2 12.0005 2C13.8338 2 15.5172 2.44167 17.0505 3.325C18.5838 4.20833 19.7922 5.41667 20.6755 6.95C21.5588 8.48333 22.0005 10.1667 22.0005 12C22.0005 13.8333 21.5588 15.5167 20.6755 17.05C19.7922 18.5833 18.5838 19.7917 17.0505 20.675C15.5172 21.5583 13.8338 22 12.0005 22ZM12.0005 18.55C13.2005 18.55 14.2922 18.2583 15.2755 17.675C16.2755 17.0917 17.0588 16.3 17.6255 15.3C18.2088 14.3 18.5005 13.2 18.5005 12C18.5005 10.8 18.2088 9.7 17.6255 8.7C17.0588 7.7 16.2755 6.90833 15.2755 6.325C14.2922 5.74167 13.2005 5.45 12.0005 5.45C10.8005 5.45 9.70049 5.74167 8.70049 6.325C7.71716 6.90833 6.93382 7.7 6.35049 8.7C5.78382 9.7 5.50049 10.8 5.50049 12C5.50049 13.2 5.78382 14.3 6.35049 15.3C6.93382 16.3 7.71716 17.0917 8.70049 17.675C9.70049 18.2583 10.8005 18.55 12.0005 18.55ZM9.00049 14.375C8.33382 14.375 7.76716 14.15 7.30049 13.7C6.85049 13.2333 6.62549 12.6667 6.62549 12C6.62549 11.3333 6.85049 10.775 7.30049 10.325C7.76716 9.85833 8.33382 9.625 9.00049 9.625C9.68382 9.625 10.2505 9.85833 10.7005 10.325C11.1505 10.775 11.3755 11.3333 11.3755 12C11.3755 12.6667 11.1505 13.2333 10.7005 13.7C10.2505 14.15 9.68382 14.375 9.00049 14.375ZM9.00049 12C8.78382 12 8.62549 12 8.52549 12C8.42549 12 8.27549 12 8.07549 12C8.29216 12 8.45049 12 8.55049 12C8.65049 12 8.80049 12 9.00049 12C9.21716 12 9.37549 12 9.47549 12C9.57549 12 9.72549 12 9.92549 12C9.70882 12 9.55049 12 9.45049 12C9.35049 12 9.20049 12 9.00049 12ZM15.0005 14.375C14.3338 14.375 13.7672 14.15 13.3005 13.7C12.8505 13.2333 12.6255 12.6667 12.6255 12C12.6255 11.3333 12.8505 10.775 13.3005 10.325C13.7672 9.85833 14.3338 9.625 15.0005 9.625C15.6838 9.625 16.2505 9.85833 16.7005 10.325C17.1505 10.775 17.3755 11.3333 17.3755 12C17.3755 12.6667 17.1505 13.2333 16.7005 13.7C16.2505 14.15 15.6838 14.375 15.0005 14.375ZM15.0005 12C14.7838 12 14.6255 12 14.5255 12C14.4255 12 14.2755 12 14.0755 12C14.2922 12 14.4505 12 14.5505 12C14.6505 12 14.8005 12 15.0005 12C15.2172 12 15.3755 12 15.4755 12C15.5755 12 15.7255 12 15.9255 12C15.7088 12 15.5505 12 15.4505 12C15.3505 12 15.2005 12 15.0005 12ZM14.3755 14.6V15.8C14.3755 16.4667 14.1422 17.025 13.6755 17.475C13.2088 17.925 12.6505 18.15 12.0005 18.15C11.3338 18.15 10.7672 17.925 10.3005 17.475C9.85049 17.025 9.62549 16.4667 9.62549 15.8V14.6H14.3755ZM11.8755 16.125C11.9088 16.125 11.9255 16.125 11.9255 16.125C11.9422 16.125 11.9672 16.125 12.0005 16.125C12.0338 16.125 12.0505 16.125 12.0505 16.125C12.0672 16.125 12.0922 16.125 12.1255 16.125H11.8755Z" fill="black"/>
</g>
<defs>
<clipPath id="clip0_3206_14378">
<rect width="24" height="24" fill="white"/>
</clipPath>
</defs>
</svg>
