<svg width="24" height="24" viewBox="0 0 24 24" fill="none" xmlns="http://www.w3.org/2000/svg">
<g clip-path="url(#clip0_3206_14608)">
<rect width="24" height="24" fill="white"/>
<path d="M7.67549 13.625C7.22549 13.625 6.83382 13.4667 6.50049 13.15C6.18382 12.8333 6.02549 12.4417 6.02549 11.975C6.02549 11.5083 6.18382 11.1167 6.50049 10.8C6.83382 10.4833 7.22549 10.325 7.67549 10.325C8.14216 10.325 8.53382 10.4833 8.85049 10.8C9.16716 11.1167 9.32549 11.5083 9.32549 11.975C9.32549 12.4417 9.16716 12.8333 8.85049 13.15C8.53382 13.4667 8.14216 13.625 7.67549 13.625ZM7.67549 11.975C7.50882 11.975 7.38382 11.975 7.30049 11.975C7.23382 11.975 7.11716 11.975 6.95049 11.975C7.11716 11.975 7.23382 11.975 7.30049 11.975C7.38382 11.975 7.50882 11.975 7.67549 11.975C7.84216 11.975 7.95882 11.975 8.02549 11.975C8.10882 11.975 8.23382 11.975 8.40049 11.975C8.23382 11.975 8.10882 11.975 8.02549 11.975C7.95882 11.975 7.84216 11.975 7.67549 11.975ZM12.0005 10.9C11.5505 10.9 11.1588 10.7417 10.8255 10.425C10.5088 10.1083 10.3505 9.71667 10.3505 9.25C10.3505 8.8 10.5088 8.41667 10.8255 8.1C11.1588 7.78333 11.5505 7.625 12.0005 7.625C12.4672 7.625 12.8588 7.78333 13.1755 8.1C13.4922 8.41667 13.6505 8.8 13.6505 9.25C13.6505 9.71667 13.4922 10.1083 13.1755 10.425C12.8588 10.7417 12.4672 10.9 12.0005 10.9ZM12.0005 9.25C11.8338 9.25 11.7088 9.25 11.6255 9.25C11.5588 9.25 11.4422 9.25 11.2755 9.25C11.4422 9.25 11.5588 9.25 11.6255 9.25C11.7088 9.25 11.8338 9.25 12.0005 9.25C12.1672 9.25 12.2838 9.25 12.3505 9.25C12.4338 9.25 12.5588 9.25 12.7255 9.25C12.5588 9.25 12.4338 9.25 12.3505 9.25C12.2838 9.25 12.1672 9.25 12.0005 9.25ZM17.7005 17.65L20.9505 12L17.7005 6.35H6.30049L3.05049 12L6.30049 17.65H17.7005ZM0.300488 12L4.90049 4H19.1005L23.7005 12L19.1005 20H4.90049L0.300488 12ZM16.3255 13.625C15.8588 13.625 15.4672 13.4667 15.1505 13.15C14.8338 12.8333 14.6755 12.4417 14.6755 11.975C14.6755 11.5083 14.8338 11.1167 15.1505 10.8C15.4672 10.4833 15.8588 10.325 16.3255 10.325C16.7922 10.325 17.1838 10.4833 17.5005 10.8C17.8172 11.1167 17.9755 11.5083 17.9755 11.975C17.9755 12.4417 17.8172 12.8333 17.5005 13.15C17.1838 13.4667 16.7922 13.625 16.3255 13.625ZM16.3255 11.975C16.1588 11.975 16.0338 11.975 15.9505 11.975C15.8838 11.975 15.7672 11.975 15.6005 11.975C15.7672 11.975 15.8838 11.975 15.9505 11.975C16.0338 11.975 16.1588 11.975 16.3255 11.975C16.4922 11.975 16.6088 11.975 16.6755 11.975C16.7588 11.975 16.8755 11.975 17.0255 11.975C16.8588 11.975 16.7338 11.975 16.6505 11.975C16.5838 11.975 16.4755 11.975 16.3255 11.975Z" fill="black"/>
</g>
<defs>
<clipPath id="clip0_3206_14608">
<rect width="24" height="24" fill="white"/>
</clipPath>
</defs>
</svg>
