<svg width="24" height="24" viewBox="0 0 24 24" fill="none" xmlns="http://www.w3.org/2000/svg">
<g clip-path="url(#clip0_3206_14528)">
<rect width="24" height="24" fill="white"/>
<path d="M4.85049 19.2H19.1505V4.8H4.85049V19.2ZM21.0005 3V21H3.00049V3H21.0005ZM8.25049 13.875C7.86716 13.875 7.54216 13.7417 7.27549 13.475C7.00882 13.2083 6.87549 12.8833 6.87549 12.5C6.87549 12.1167 7.00882 11.7917 7.27549 11.525C7.54216 11.2583 7.86716 11.125 8.25049 11.125C8.63382 11.125 8.95882 11.2583 9.22549 11.525C9.49216 11.7917 9.62549 12.1167 9.62549 12.5C9.62549 12.8833 9.49216 13.2083 9.22549 13.475C8.95882 13.7417 8.63382 13.875 8.25049 13.875ZM8.25049 12.5C8.10049 12.5 7.99216 12.5 7.92549 12.5C7.85882 12.5 7.75049 12.5 7.60049 12.5C7.75049 12.5 7.85882 12.5 7.92549 12.5C7.99216 12.5 8.10049 12.5 8.25049 12.5C8.40049 12.5 8.50882 12.5 8.57549 12.5C8.64216 12.5 8.75049 12.5 8.90049 12.5C8.75049 12.5 8.64216 12.5 8.57549 12.5C8.50882 12.5 8.40049 12.5 8.25049 12.5ZM15.7505 13.875C15.3672 13.875 15.0422 13.7417 14.7755 13.475C14.5088 13.2083 14.3755 12.8833 14.3755 12.5C14.3755 12.1167 14.5088 11.7917 14.7755 11.525C15.0422 11.2583 15.3672 11.125 15.7505 11.125C16.1338 11.125 16.4588 11.2583 16.7255 11.525C16.9922 11.7917 17.1255 12.1167 17.1255 12.5C17.1255 12.8833 16.9922 13.2083 16.7255 13.475C16.4588 13.7417 16.1338 13.875 15.7505 13.875ZM15.7505 12.5C15.6005 12.5 15.4922 12.5 15.4255 12.5C15.3588 12.5 15.2505 12.5 15.1005 12.5C15.2505 12.5 15.3588 12.5 15.4255 12.5C15.4922 12.5 15.6005 12.5 15.7505 12.5C15.9005 12.5 16.0088 12.5 16.0755 12.5C16.1422 12.5 16.2505 12.5 16.4005 12.5C16.2505 12.5 16.1422 12.5 16.0755 12.5C16.0088 12.5 15.9005 12.5 15.7505 12.5ZM12.0005 11.15C11.2838 11.15 10.6838 10.9083 10.2005 10.425C9.71716 9.94167 9.47549 9.35 9.47549 8.65C9.47549 7.95 9.71716 7.35833 10.2005 6.875C10.6838 6.39167 11.2838 6.15 12.0005 6.15C12.7172 6.15 13.3172 6.39167 13.8005 6.875C14.2838 7.35833 14.5255 7.95 14.5255 8.65C14.5255 9.35 14.2838 9.94167 13.8005 10.425C13.3172 10.9083 12.7172 11.15 12.0005 11.15ZM12.0005 9.775C12.3172 9.775 12.5838 9.66667 12.8005 9.45C13.0172 9.23333 13.1255 8.96667 13.1255 8.65C13.1255 8.33333 13.0172 8.06667 12.8005 7.85C12.5838 7.63333 12.3172 7.525 12.0005 7.525C11.6838 7.525 11.4088 7.63333 11.1755 7.85C10.9588 8.06667 10.8505 8.33333 10.8505 8.65C10.8505 8.96667 10.9588 9.23333 11.1755 9.45C11.4088 9.66667 11.6838 9.775 12.0005 9.775Z" fill="black"/>
</g>
<defs>
<clipPath id="clip0_3206_14528">
<rect width="24" height="24" fill="white"/>
</clipPath>
</defs>
</svg>
