<svg width="24" height="24" viewBox="0 0 24 24" fill="none" xmlns="http://www.w3.org/2000/svg">
<g clip-path="url(#clip0_3207_19578)">
<rect width="24" height="24" fill="white"/>
<path d="M12.001 22C10.1676 22 8.48431 21.5583 6.95098 20.675C5.41764 19.7917 4.20931 18.5833 3.32598 17.05C2.44264 15.5167 2.00098 13.8333 2.00098 12C2.00098 10.1667 2.44264 8.48333 3.32598 6.95C4.20931 5.41667 5.41764 4.20833 6.95098 3.325C8.48431 2.44167 10.1676 2 12.001 2C13.8343 2 15.5176 2.44167 17.051 3.325C18.5843 4.20833 19.7926 5.41667 20.676 6.95C21.5593 8.48333 22.001 10.1667 22.001 12C22.001 13.8333 21.5593 15.5167 20.676 17.05C19.7926 18.5833 18.5843 19.7917 17.051 20.675C15.5176 21.5583 13.8343 22 12.001 22ZM12.001 19.575C13.401 19.575 14.6676 19.2417 15.801 18.575C16.951 17.9083 17.8593 17 18.526 15.85C19.1926 14.6833 19.526 13.4 19.526 12C19.526 10.6 19.1926 9.325 18.526 8.175C17.8593 7.00833 16.951 6.09167 15.801 5.425C14.6676 4.75833 13.401 4.425 12.001 4.425C10.601 4.425 9.32598 4.75833 8.17598 5.425C7.04264 6.09167 6.14264 7.00833 5.47598 8.175C4.80931 9.325 4.47598 10.6 4.47598 12C4.47598 13.4 4.80931 14.6833 5.47598 15.85C6.14264 17 7.04264 17.9083 8.17598 18.575C9.32598 19.2417 10.601 19.575 12.001 19.575ZM8.30098 14.1C7.83431 14.1 7.44264 13.95 7.12598 13.65C6.82598 13.3333 6.67598 12.9417 6.67598 12.475C6.67598 12.025 6.82598 11.6417 7.12598 11.325C7.44264 11.0083 7.83431 10.85 8.30098 10.85C8.75098 10.85 9.13431 11.0083 9.45098 11.325C9.76764 11.6417 9.92598 12.025 9.92598 12.475C9.92598 12.925 9.76764 13.3083 9.45098 13.625C9.13431 13.9417 8.75098 14.1 8.30098 14.1ZM8.30098 12.475C8.13431 12.475 8.00931 12.475 7.92598 12.475C7.85931 12.475 7.74264 12.475 7.57598 12.475C7.74264 12.475 7.85931 12.475 7.92598 12.475C8.00931 12.475 8.13431 12.475 8.30098 12.475C8.45098 12.475 8.55931 12.475 8.62598 12.475C8.70931 12.475 8.83431 12.475 9.00098 12.475C8.83431 12.475 8.70931 12.475 8.62598 12.475C8.55931 12.475 8.45098 12.475 8.30098 12.475ZM15.726 14.1C15.2593 14.1 14.8676 13.95 14.551 13.65C14.251 13.3333 14.101 12.9417 14.101 12.475C14.101 12.025 14.251 11.6417 14.551 11.325C14.8676 11.0083 15.2593 10.85 15.726 10.85C16.176 10.85 16.5593 11.0083 16.876 11.325C17.1926 11.6417 17.351 12.025 17.351 12.475C17.351 12.925 17.1926 13.3083 16.876 13.625C16.5593 13.9417 16.176 14.1 15.726 14.1ZM15.726 12.475C15.5593 12.475 15.4343 12.475 15.351 12.475C15.2843 12.475 15.1676 12.475 15.001 12.475C15.1676 12.475 15.2843 12.475 15.351 12.475C15.4343 12.475 15.5593 12.475 15.726 12.475C15.876 12.475 15.9843 12.475 16.051 12.475C16.1343 12.475 16.2593 12.475 16.426 12.475C16.2593 12.475 16.1343 12.475 16.051 12.475C15.9843 12.475 15.876 12.475 15.726 12.475ZM12.001 11C11.2343 11 10.5843 10.7417 10.051 10.225C9.53431 9.69167 9.27598 9.05 9.27598 8.3C9.27598 7.53333 9.53431 6.89167 10.051 6.375C10.5843 5.84167 11.2343 5.575 12.001 5.575C12.7676 5.575 13.4093 5.84167 13.926 6.375C14.4593 6.89167 14.726 7.53333 14.726 8.3C14.726 9.05 14.4593 9.69167 13.926 10.225C13.4093 10.7417 12.7676 11 12.001 11ZM12.001 9.3C12.2843 9.3 12.5176 9.20833 12.701 9.025C12.901 8.825 13.001 8.58333 13.001 8.3C13.001 8 12.901 7.75833 12.701 7.575C12.5176 7.375 12.2843 7.275 12.001 7.275C11.701 7.275 11.4593 7.375 11.276 7.575C11.0926 7.75833 11.001 8 11.001 8.3C11.001 8.58333 11.0926 8.825 11.276 9.025C11.4593 9.20833 11.701 9.3 12.001 9.3Z" fill="black"/>
</g>
<defs>
<clipPath id="clip0_3207_19578">
<rect width="24" height="24" fill="white"/>
</clipPath>
</defs>
</svg>
