<svg width="24" height="24" viewBox="0 0 24 24" fill="none" xmlns="http://www.w3.org/2000/svg">
<g clip-path="url(#clip0_3207_19246)">
<rect width="24" height="24" fill="white"/>
<path d="M6.95049 3.325C8.48382 2.44167 10.1672 2 12.0005 2C13.8338 2 15.5172 2.44167 17.0505 3.325C18.5838 4.20833 19.7922 5.41667 20.6755 6.95C21.5588 8.48333 22.0005 10.1667 22.0005 12C22.0005 13.8333 21.5588 15.5167 20.6755 17.05C19.7922 18.5833 18.5838 19.7917 17.0505 20.675C15.5172 21.5583 13.8338 22 12.0005 22C10.1672 22 8.48382 21.5583 6.95049 20.675C5.41716 19.7917 4.20882 18.5833 3.32549 17.05C2.44216 15.5167 2.00049 13.8333 2.00049 12C2.00049 10.1667 2.44216 8.48333 3.32549 6.95C4.20882 5.41667 5.41716 4.20833 6.95049 3.325ZM6.42549 13.075C6.72549 13.3583 7.08382 13.5 7.50049 13.5C7.91716 13.5 8.26716 13.3583 8.55049 13.075C8.85049 12.775 9.00049 12.4167 9.00049 12C9.00049 11.5833 8.85049 11.2333 8.55049 10.95C8.26716 10.65 7.91716 10.5 7.50049 10.5C7.08382 10.5 6.72549 10.65 6.42549 10.95C6.14216 11.2333 6.00049 11.5833 6.00049 12C6.00049 12.4167 6.14216 12.775 6.42549 13.075ZM15.4255 13.075C15.7255 13.3583 16.0838 13.5 16.5005 13.5C16.9172 13.5 17.2672 13.3583 17.5505 13.075C17.8505 12.775 18.0005 12.4167 18.0005 12C18.0005 11.5833 17.8505 11.2333 17.5505 10.95C17.2672 10.65 16.9172 10.5 16.5005 10.5C16.0838 10.5 15.7255 10.65 15.4255 10.95C15.1422 11.2333 15.0005 11.5833 15.0005 12C15.0005 12.4167 15.1422 12.775 15.4255 13.075ZM10.9255 8.075C11.2255 8.35833 11.5838 8.5 12.0005 8.5C12.4172 8.5 12.7672 8.35833 13.0505 8.075C13.3505 7.775 13.5005 7.41667 13.5005 7C13.5005 6.58333 13.3505 6.23333 13.0505 5.95C12.7672 5.65 12.4172 5.5 12.0005 5.5C11.5838 5.5 11.2255 5.65 10.9255 5.95C10.6422 6.23333 10.5005 6.58333 10.5005 7C10.5005 7.41667 10.6422 7.775 10.9255 8.075Z" fill="black"/>
</g>
<defs>
<clipPath id="clip0_3207_19246">
<rect width="24" height="24" fill="white"/>
</clipPath>
</defs>
</svg>
