<svg width="24" height="24" viewBox="0 0 24 24" fill="none" xmlns="http://www.w3.org/2000/svg">
<g clip-path="url(#clip0_3207_20805)">
<rect width="24" height="24" fill="white"/>
<path d="M12.001 22C10.1676 22 8.48431 21.5583 6.95098 20.675C5.41764 19.7917 4.20931 18.5833 3.32598 17.05C2.44264 15.5167 2.00098 13.8333 2.00098 12C2.00098 10.1667 2.44264 8.48333 3.32598 6.95C4.20931 5.41667 5.41764 4.20833 6.95098 3.325C8.48431 2.44167 10.1676 2 12.001 2C13.8343 2 15.5176 2.44167 17.051 3.325C18.5843 4.20833 19.7926 5.41667 20.676 6.95C21.5593 8.48333 22.001 10.1667 22.001 12C22.001 13.8333 21.5593 15.5167 20.676 17.05C19.7926 18.5833 18.5843 19.7917 17.051 20.675C15.5176 21.5583 13.8343 22 12.001 22ZM12.001 19.575C13.401 19.575 14.6676 19.2417 15.801 18.575C16.951 17.9083 17.8593 17 18.526 15.85C19.1926 14.6833 19.526 13.4 19.526 12C19.526 10.6 19.1926 9.325 18.526 8.175C17.8593 7.00833 16.951 6.09167 15.801 5.425C14.6676 4.75833 13.401 4.425 12.001 4.425C10.601 4.425 9.32598 4.75833 8.17598 5.425C7.04264 6.09167 6.14264 7.00833 5.47598 8.175C4.80931 9.325 4.47598 10.6 4.47598 12C4.47598 13.4 4.80931 14.6833 5.47598 15.85C6.14264 17 7.04264 17.9083 8.17598 18.575C9.32598 19.2417 10.601 19.575 12.001 19.575ZM8.35098 13.525C7.88431 13.525 7.49264 13.375 7.17598 13.075C6.85931 12.7583 6.70098 12.3667 6.70098 11.9C6.70098 11.45 6.85931 11.0667 7.17598 10.75C7.49264 10.4333 7.87598 10.275 8.32598 10.275C8.79264 10.275 9.18431 10.4333 9.50098 10.75C9.81764 11.0667 9.97598 11.45 9.97598 11.9C9.97598 12.3667 9.81764 12.7583 9.50098 13.075C9.18431 13.375 8.80098 13.525 8.35098 13.525ZM8.32598 11.9C8.17598 11.9 8.05931 11.9 7.97598 11.9C7.90931 11.9 7.79264 11.9 7.62598 11.9C7.79264 11.9 7.90931 11.9 7.97598 11.9C8.05931 11.9 8.17598 11.9 8.32598 11.9C8.49264 11.9 8.60931 11.9 8.67598 11.9C8.75931 11.9 8.88431 11.9 9.05098 11.9C8.88431 11.9 8.75931 11.9 8.67598 11.9C8.60931 11.9 8.49264 11.9 8.32598 11.9ZM15.676 13.525C15.2093 13.525 14.8176 13.375 14.501 13.075C14.201 12.7583 14.051 12.3667 14.051 11.9C14.051 11.45 14.201 11.0667 14.501 10.75C14.8176 10.4333 15.2093 10.275 15.676 10.275C16.126 10.275 16.5093 10.4333 16.826 10.75C17.1426 11.0667 17.301 11.45 17.301 11.9C17.301 12.3667 17.1426 12.7583 16.826 13.075C16.5093 13.375 16.126 13.525 15.676 13.525ZM15.676 11.9C15.5093 11.9 15.3843 11.9 15.301 11.9C15.2343 11.9 15.1176 11.9 14.951 11.9C15.1176 11.9 15.2343 11.9 15.301 11.9C15.3843 11.9 15.5093 11.9 15.676 11.9C15.826 11.9 15.9343 11.9 16.001 11.9C16.0843 11.9 16.2093 11.9 16.376 11.9C16.2093 11.9 16.0843 11.9 16.001 11.9C15.9343 11.9 15.826 11.9 15.676 11.9ZM12.001 17.5C11.551 17.5 11.1676 17.3417 10.851 17.025C10.5343 16.7083 10.376 16.325 10.376 15.875C10.376 15.425 10.5343 15.0417 10.851 14.725C11.1676 14.4083 11.551 14.25 12.001 14.25C12.4676 14.25 12.851 14.4083 13.151 14.725C13.4676 15.0417 13.626 15.425 13.626 15.875C13.626 16.325 13.4676 16.7083 13.151 17.025C12.851 17.3417 12.4676 17.5 12.001 17.5ZM12.001 15.875C11.8343 15.875 11.7093 15.875 11.626 15.875C11.5593 15.875 11.451 15.875 11.301 15.875C11.451 15.875 11.5593 15.875 11.626 15.875C11.7093 15.875 11.8343 15.875 12.001 15.875C12.1676 15.875 12.2843 15.875 12.351 15.875C12.4343 15.875 12.551 15.875 12.701 15.875C12.551 15.875 12.4343 15.875 12.351 15.875C12.2843 15.875 12.1676 15.875 12.001 15.875Z" fill="black"/>
</g>
<defs>
<clipPath id="clip0_3207_20805">
<rect width="24" height="24" fill="white"/>
</clipPath>
</defs>
</svg>
