<svg width="24" height="24" viewBox="0 0 24 24" fill="none" xmlns="http://www.w3.org/2000/svg">
<g clip-path="url(#clip0_3206_14606)">
<rect width="24" height="24" fill="white"/>
<path d="M7.75049 13.375C7.36715 13.375 7.04216 13.2417 6.77549 12.975C6.50882 12.7083 6.37549 12.3833 6.37549 12C6.37549 11.6167 6.50882 11.2917 6.77549 11.025C7.04216 10.7583 7.36715 10.625 7.75049 10.625C8.13382 10.625 8.45882 10.7583 8.72549 11.025C8.99216 11.2917 9.12549 11.6167 9.12549 12C9.12549 12.3833 8.99216 12.7083 8.72549 12.975C8.45882 13.2417 8.13382 13.375 7.75049 13.375ZM7.75049 12C7.60049 12 7.49216 12 7.42549 12C7.35882 12 7.25049 12 7.10049 12C7.25049 12 7.35882 12 7.42549 12C7.49216 12 7.60049 12 7.75049 12C7.90049 12 8.00882 12 8.07549 12C8.14216 12 8.25049 12 8.40049 12C8.25049 12 8.14216 12 8.07549 12C8.00882 12 7.90049 12 7.75049 12ZM12.0005 10.225C11.6172 10.225 11.2922 10.0917 11.0255 9.825C10.7588 9.55833 10.6255 9.23333 10.6255 8.85C10.6255 8.46667 10.7588 8.14167 11.0255 7.875C11.2922 7.60833 11.6172 7.475 12.0005 7.475C12.3838 7.475 12.7088 7.60833 12.9755 7.875C13.2422 8.14167 13.3755 8.46667 13.3755 8.85C13.3755 9.23333 13.2422 9.55833 12.9755 9.825C12.7088 10.0917 12.3838 10.225 12.0005 10.225ZM12.0005 8.85C11.8505 8.85 11.7422 8.85 11.6755 8.85C11.6088 8.85 11.5005 8.85 11.3505 8.85C11.5005 8.85 11.6088 8.85 11.6755 8.85C11.7422 8.85 11.8505 8.85 12.0005 8.85C12.1505 8.85 12.2588 8.85 12.3255 8.85C12.3922 8.85 12.5005 8.85 12.6505 8.85C12.5005 8.85 12.3922 8.85 12.3255 8.85C12.2588 8.85 12.1505 8.85 12.0005 8.85ZM18.0255 18.2L21.5755 12L18.0255 5.8H5.97549L2.42549 12L5.97549 18.2H18.0255ZM0.300488 12L4.90049 4H19.1005L23.7005 12L19.1005 20H4.90049L0.300488 12ZM16.2505 13.375C15.8672 13.375 15.5422 13.2417 15.2755 12.975C15.0088 12.7083 14.8755 12.3833 14.8755 12C14.8755 11.6167 15.0088 11.2917 15.2755 11.025C15.5422 10.7583 15.8672 10.625 16.2505 10.625C16.6338 10.625 16.9588 10.7583 17.2255 11.025C17.4922 11.2917 17.6255 11.6167 17.6255 12C17.6255 12.3833 17.4922 12.7083 17.2255 12.975C16.9588 13.2417 16.6338 13.375 16.2505 13.375ZM16.2505 12C16.1005 12 15.9922 12 15.9255 12C15.8588 12 15.7505 12 15.6005 12C15.7505 12 15.8588 12 15.9255 12C15.9922 12 16.1005 12 16.2505 12C16.4005 12 16.5088 12 16.5755 12C16.6422 12 16.7505 12 16.9005 12C16.7505 12 16.6422 12 16.5755 12C16.5088 12 16.4005 12 16.2505 12Z" fill="black"/>
</g>
<defs>
<clipPath id="clip0_3206_14606">
<rect width="24" height="24" fill="white"/>
</clipPath>
</defs>
</svg>
