<svg width="24" height="24" viewBox="0 0 24 24" fill="none" xmlns="http://www.w3.org/2000/svg">
<g clip-path="url(#clip0_3206_14530)">
<rect width="24" height="24" fill="white"/>
<path d="M5.40049 18.65H18.6005V5.35H5.40049V18.65ZM21.0005 3V21H3.00049V3H21.0005ZM8.67549 14.825C8.22549 14.825 7.84216 14.675 7.52549 14.375C7.20882 14.0583 7.05049 13.675 7.05049 13.225C7.05049 12.775 7.20882 12.4 7.52549 12.1C7.84216 11.7833 8.22549 11.625 8.67549 11.625C9.14216 11.625 9.52549 11.7833 9.82549 12.1C10.1422 12.4 10.3005 12.775 10.3005 13.225C10.3005 13.675 10.1422 14.0583 9.82549 14.375C9.52549 14.675 9.14216 14.825 8.67549 14.825ZM8.67549 13.225C8.50882 13.225 8.38382 13.225 8.30049 13.225C8.23382 13.225 8.12549 13.225 7.97549 13.225C8.12549 13.225 8.23382 13.225 8.30049 13.225C8.38382 13.225 8.50882 13.225 8.67549 13.225C8.84216 13.225 8.95882 13.225 9.02549 13.225C9.10882 13.225 9.22549 13.225 9.37549 13.225C9.22549 13.225 9.10882 13.225 9.02549 13.225C8.95882 13.225 8.84216 13.225 8.67549 13.225ZM15.3505 14.825C14.9005 14.825 14.5172 14.675 14.2005 14.375C13.8838 14.0583 13.7255 13.675 13.7255 13.225C13.7255 12.775 13.8838 12.4 14.2005 12.1C14.5172 11.7833 14.9005 11.625 15.3505 11.625C15.8172 11.625 16.2005 11.7833 16.5005 12.1C16.8172 12.4 16.9755 12.775 16.9755 13.225C16.9755 13.675 16.8172 14.0583 16.5005 14.375C16.2005 14.675 15.8172 14.825 15.3505 14.825ZM15.3505 13.225C15.1838 13.225 15.0588 13.225 14.9755 13.225C14.9088 13.225 14.8005 13.225 14.6505 13.225C14.8005 13.225 14.9088 13.225 14.9755 13.225C15.0588 13.225 15.1838 13.225 15.3505 13.225C15.5172 13.225 15.6338 13.225 15.7005 13.225C15.7838 13.225 15.9005 13.225 16.0505 13.225C15.9005 13.225 15.7838 13.225 15.7005 13.225C15.6338 13.225 15.5172 13.225 15.3505 13.225ZM12.0005 11.6C11.2672 11.6 10.6505 11.3583 10.1505 10.875C9.66716 10.3917 9.42549 9.79167 9.42549 9.075C9.42549 8.34167 9.66716 7.73333 10.1505 7.25C10.6505 6.76667 11.2672 6.525 12.0005 6.525C12.7338 6.525 13.3422 6.76667 13.8255 7.25C14.3255 7.73333 14.5755 8.34167 14.5755 9.075C14.5755 9.79167 14.3255 10.3917 13.8255 10.875C13.3422 11.3583 12.7338 11.6 12.0005 11.6ZM12.0005 10.05C12.2838 10.05 12.5172 9.95833 12.7005 9.775C12.8838 9.575 12.9755 9.34167 12.9755 9.075C12.9755 8.79167 12.8838 8.55833 12.7005 8.375C12.5172 8.175 12.2838 8.075 12.0005 8.075C11.7172 8.075 11.4755 8.175 11.2755 8.375C11.0922 8.55833 11.0005 8.79167 11.0005 9.075C11.0005 9.34167 11.0922 9.575 11.2755 9.775C11.4755 9.95833 11.7172 10.05 12.0005 10.05Z" fill="black"/>
</g>
<defs>
<clipPath id="clip0_3206_14530">
<rect width="24" height="24" fill="white"/>
</clipPath>
</defs>
</svg>
