<svg width="24" height="24" viewBox="0 0 24 24" fill="none" xmlns="http://www.w3.org/2000/svg">
<g clip-path="url(#clip0_3206_14270)">
<rect width="24" height="24" fill="white"/>
<path d="M7.05049 13.6C6.60049 13.6 6.21716 13.4417 5.90049 13.125C5.60049 12.8083 5.45049 12.425 5.45049 11.975C5.45049 11.525 5.60049 11.15 5.90049 10.85C6.21716 10.5333 6.60049 10.375 7.05049 10.375C7.50049 10.375 7.88382 10.5333 8.20049 10.85C8.51716 11.15 8.67549 11.525 8.67549 11.975C8.67549 12.425 8.51716 12.8083 8.20049 13.125C7.88382 13.4417 7.50049 13.6 7.05049 13.6ZM7.05049 11.975C6.88382 11.975 6.76716 11.975 6.70049 11.975C6.63382 11.975 6.52549 11.975 6.37549 11.975C6.52549 11.975 6.63382 11.975 6.70049 11.975C6.78382 11.975 6.90049 11.975 7.05049 11.975C7.21716 11.975 7.33382 11.975 7.40049 11.975C7.48382 11.975 7.60049 11.975 7.75049 11.975C7.58382 11.975 7.46716 11.975 7.40049 11.975C7.33382 11.975 7.21716 11.975 7.05049 11.975ZM16.9255 13.6C16.4755 13.6 16.0922 13.4417 15.7755 13.125C15.4755 12.8083 15.3255 12.425 15.3255 11.975C15.3255 11.525 15.4755 11.15 15.7755 10.85C16.0922 10.5333 16.4755 10.375 16.9255 10.375C17.3755 10.375 17.7588 10.5333 18.0755 10.85C18.3922 11.15 18.5505 11.525 18.5505 11.975C18.5505 12.425 18.3922 12.8083 18.0755 13.125C17.7755 13.4417 17.3922 13.6 16.9255 13.6ZM16.9255 11.975C16.7755 11.975 16.6588 11.975 16.5755 11.975C16.5088 11.975 16.4005 11.975 16.2505 11.975C16.4005 11.975 16.5088 11.975 16.5755 11.975C16.6588 11.975 16.7838 11.975 16.9505 11.975C17.1005 11.975 17.2088 11.975 17.2755 11.975C17.3588 11.975 17.4755 11.975 17.6255 11.975C17.4755 11.975 17.3588 11.975 17.2755 11.975C17.2088 11.975 17.0922 11.975 16.9255 11.975ZM12.0005 12.35C11.2672 12.35 10.6505 12.1 10.1505 11.6C9.66716 11.1 9.42549 10.4917 9.42549 9.775C9.42549 9.05833 9.66716 8.45833 10.1505 7.975C10.6505 7.475 11.2672 7.225 12.0005 7.225C12.7338 7.225 13.3505 7.475 13.8505 7.975C14.3505 8.475 14.6005 9.08333 14.6005 9.8C14.6005 10.5 14.3505 11.1 13.8505 11.6C13.3505 12.1 12.7338 12.35 12.0005 12.35ZM12.0005 10.6C12.2338 10.6 12.4338 10.525 12.6005 10.375C12.7672 10.2083 12.8505 10.0083 12.8505 9.775C12.8505 9.54167 12.7672 9.35 12.6005 9.2C12.4338 9.03333 12.2338 8.95 12.0005 8.95C11.7672 8.95 11.5672 9.03333 11.4005 9.2C11.2505 9.35 11.1755 9.54167 11.1755 9.775C11.1755 10.0083 11.2588 10.2083 11.4255 10.375C11.5922 10.525 11.7838 10.6 12.0005 10.6ZM17.7005 17.65L20.9255 12L17.7005 6.35H6.30049L3.07549 12L6.30049 17.65H17.7005ZM0.300488 12L4.90049 4H19.1005L23.7005 12L19.1005 20H4.90049L0.300488 12ZM12.0005 16.4C11.5505 16.4 11.1672 16.25 10.8505 15.95C10.5505 15.6333 10.4005 15.25 10.4005 14.8C10.4005 14.35 10.5505 13.975 10.8505 13.675C11.1672 13.3583 11.5505 13.2 12.0005 13.2C12.4505 13.2 12.8338 13.3583 13.1505 13.675C13.4672 13.975 13.6255 14.35 13.6255 14.8C13.6255 15.25 13.4672 15.6333 13.1505 15.95C12.8338 16.25 12.4505 16.4 12.0005 16.4ZM12.0005 14.8C11.8338 14.8 11.7172 14.8 11.6505 14.8C11.5838 14.8 11.4755 14.8 11.3255 14.8C11.4755 14.8 11.5838 14.8 11.6505 14.8C11.7338 14.8 11.8505 14.8 12.0005 14.8C12.1672 14.8 12.2838 14.8 12.3505 14.8C12.4172 14.8 12.5338 14.8 12.7005 14.8C12.5338 14.8 12.4172 14.8 12.3505 14.8C12.2838 14.8 12.1672 14.8 12.0005 14.8Z" fill="black"/>
</g>
<defs>
<clipPath id="clip0_3206_14270">
<rect width="24" height="24" fill="white"/>
</clipPath>
</defs>
</svg>
