<svg width="24" height="24" viewBox="0 0 24 24" fill="none" xmlns="http://www.w3.org/2000/svg">
<g clip-path="url(#clip0_3394_11384)">
<rect width="24" height="24" fill="white"/>
<path d="M13.0005 16.475H21.2005L22.0005 21H13.0005V16.475ZM2.77549 16.475H11.0005V21H2.00049L2.77549 16.475ZM3.95049 10H11.0005V14.525H3.15049L3.95049 10ZM13.0005 10H20.0505L20.8505 14.525H13.0005V10ZM13.7505 8.45H10.2505V4.225H13.7505V8.45ZM13.7505 8.45H10.2505V4.225H13.7505V8.45ZM19.8755 6.625L16.5755 7.825L15.1255 3.85L18.4255 2.65L19.8755 6.625ZM19.8755 6.625L16.5755 7.825L15.1255 3.85L18.4255 2.65L19.8755 6.625ZM7.42549 7.825L4.12549 6.625L5.57549 2.65L8.87549 3.85L7.42549 7.825ZM7.42549 7.825L4.12549 6.625L5.57549 2.65L8.87549 3.85L7.42549 7.825Z" fill="black"/>
</g>
<defs>
<clipPath id="clip0_3394_11384">
<rect width="24" height="24" fill="white"/>
</clipPath>
</defs>
</svg>
