<svg width="24" height="24" viewBox="0 0 24 24" fill="none" xmlns="http://www.w3.org/2000/svg">
<g clip-path="url(#clip0_3209_22532)">
<rect width="24" height="24" fill="white"/>
<path d="M12.2505 15.525H21.0255L22.0005 21H12.2505V15.525ZM2.95049 15.525H11.7505V21H2.00049L2.95049 15.525ZM3.95049 10H11.7505V15.05H3.05049L3.95049 10ZM12.2505 10H20.0505L20.9505 15.05H12.2505V10ZM12.2505 8.45H11.7505V4.225H12.2505V8.45ZM12.2505 8.45H11.7505V4.225H12.2505V8.45ZM18.2755 6.725L17.8255 6.975L15.7255 3.3L16.1755 3.05L18.2755 6.725ZM18.2755 6.725L17.8255 6.975L15.7255 3.3L16.1755 3.05L18.2755 6.725ZM6.17549 6.975L5.72549 6.725L7.82549 3.05L8.27549 3.3L6.17549 6.975ZM6.17549 6.975L5.72549 6.725L7.82549 3.05L8.27549 3.3L6.17549 6.975Z" fill="black"/>
</g>
<defs>
<clipPath id="clip0_3209_22532">
<rect width="24" height="24" fill="white"/>
</clipPath>
</defs>
</svg>
