<svg width="24" height="24" viewBox="0 0 24 24" fill="none" xmlns="http://www.w3.org/2000/svg">
<g clip-path="url(#clip0_3394_11362)">
<rect width="24" height="24" fill="white"/>
<path d="M5.10098 11.3L3.60098 19.7H20.401L18.901 11.3H5.10098ZM22.001 21H2.00098L3.95098 10H20.051L22.001 21ZM12.626 10.425V20.5H11.376V10.425H12.626ZM20.351 14.875V16.125H3.97598V14.875H20.351ZM12.676 8.3H11.326V4.225H12.676V8.3ZM12.676 8.3H11.326V4.225H12.676V8.3ZM18.651 6.525L17.451 7.175L15.351 3.5L16.551 2.85L18.651 6.525ZM18.651 6.525L17.451 7.175L15.351 3.5L16.551 2.85L18.651 6.525ZM6.55098 7.175L5.35098 6.525L7.45098 2.85L8.65098 3.5L6.55098 7.175ZM6.55098 7.175L5.35098 6.525L7.45098 2.85L8.65098 3.5L6.55098 7.175Z" fill="black"/>
</g>
<defs>
<clipPath id="clip0_3394_11362">
<rect width="24" height="24" fill="white"/>
</clipPath>
</defs>
</svg>
