<svg width="24" height="24" viewBox="0 0 24 24" fill="none" xmlns="http://www.w3.org/2000/svg">
<g clip-path="url(#clip0_3394_11366)">
<rect width="24" height="24" fill="white"/>
<path d="M5.82598 11.875L4.60098 18.875H19.401L18.176 11.875H5.82598ZM22.001 21H2.00098L4.00098 9.75H20.001L22.001 21ZM13.026 10.5V20.275H10.976V10.5H13.026ZM20.176 14.35V16.4H4.32598V14.35H20.176ZM13.176 8.125H10.826V4.05H13.176V8.125ZM13.176 8.125H10.826V4.05H13.176V8.125ZM19.151 6.525L17.026 7.5L15.126 3.75L17.276 2.775L19.151 6.525ZM19.151 6.525L17.026 7.5L15.126 3.75L17.276 2.775L19.151 6.525ZM6.97598 7.5L4.85098 6.525L6.72598 2.775L8.87598 3.75L6.97598 7.5ZM6.97598 7.5L4.85098 6.525L6.72598 2.775L8.87598 3.75L6.97598 7.5Z" fill="black"/>
</g>
<defs>
<clipPath id="clip0_3394_11366">
<rect width="24" height="24" fill="white"/>
</clipPath>
</defs>
</svg>
