<svg width="24" height="24" viewBox="0 0 24 24" fill="none" xmlns="http://www.w3.org/2000/svg">
<g clip-path="url(#clip0_3394_11376)">
<rect width="24" height="24" fill="white"/>
<path d="M12.7505 16.15H21.1505L22.0005 21H12.7505V16.15ZM2.82549 16.15H11.2505V21H2.00049L2.82549 16.15ZM3.95049 10H11.2505V14.7H3.12549L3.95049 10ZM12.7505 10H20.0505L20.8755 14.7H12.7505V10ZM12.6755 8.3H11.3255V4.225H12.6755V8.3ZM12.6755 8.3H11.3255V4.225H12.6755V8.3ZM18.6505 6.525L17.4505 7.175L15.3505 3.5L16.5505 2.85L18.6505 6.525ZM18.6505 6.525L17.4505 7.175L15.3505 3.5L16.5505 2.85L18.6505 6.525ZM6.55049 7.175L5.35049 6.525L7.45049 2.85L8.65049 3.5L6.55049 7.175ZM6.55049 7.175L5.35049 6.525L7.45049 2.85L8.65049 3.5L6.55049 7.175Z" fill="black"/>
</g>
<defs>
<clipPath id="clip0_3394_11376">
<rect width="24" height="24" fill="white"/>
</clipPath>
</defs>
</svg>
