<svg width="24" height="24" viewBox="0 0 24 24" fill="none" xmlns="http://www.w3.org/2000/svg">
<g clip-path="url(#clip0_3207_18540)">
<rect width="24" height="24" fill="white"/>
<path d="M4.37598 10.475L2.60098 20.525H21.401L19.626 10.475H4.37598ZM22.001 21H2.00098L3.95098 10H20.051L22.001 21ZM12.251 10.1V20.825H11.751V10.1H12.251ZM20.751 15.25V15.725H3.25098V15.25H20.751ZM12.251 8.45H11.751V4.225H12.251V8.45ZM12.251 8.45H11.751V4.225H12.251V8.45ZM18.276 6.725L17.826 6.975L15.726 3.3L16.176 3.05L18.276 6.725ZM18.276 6.725L17.826 6.975L15.726 3.3L16.176 3.05L18.276 6.725ZM6.17598 6.975L5.72598 6.725L7.82598 3.05L8.27598 3.3L6.17598 6.975ZM6.17598 6.975L5.72598 6.725L7.82598 3.05L8.27598 3.3L6.17598 6.975Z" fill="black"/>
</g>
<defs>
<clipPath id="clip0_3207_18540">
<rect width="24" height="24" fill="white"/>
</clipPath>
</defs>
</svg>
