<svg width="24" height="24" viewBox="0 0 24 24" fill="none" xmlns="http://www.w3.org/2000/svg">
<g clip-path="url(#clip0_3359_3977)">
<rect width="24" height="24" fill="white"/>
<path d="M4 19.9C4 18.95 4.31667 18.1083 4.95 17.375C5.6 16.625 6.525 16.0417 7.725 15.625C8.94167 15.2083 10.3667 15 12 15C13.6333 15 15.05 15.2083 16.25 15.625C17.4667 16.0417 18.3917 16.625 19.025 17.375C19.675 18.1083 20 18.95 20 19.9V22H4V19.9ZM12 13.125C11.3333 13.125 10.725 12.9667 10.175 12.65C9.625 12.3167 9.18333 11.875 8.85 11.325C8.53333 10.7583 8.375 10.15 8.375 9.5C8.375 8.85 8.53333 8.25 8.85 7.7C9.18333 7.15 9.625 6.71667 10.175 6.4C10.725 6.06667 11.3333 5.9 12 5.9C12.6667 5.9 13.275 6.06667 13.825 6.4C14.375 6.71667 14.8083 7.15 15.125 7.7C15.4583 8.25 15.625 8.85 15.625 9.5C15.625 10.15 15.4583 10.7583 15.125 11.325C14.8083 11.875 14.375 12.3167 13.825 12.65C13.275 12.9667 12.6667 13.125 12 13.125ZM17.35 13.975C16.8333 13.7583 16.4583 13.3917 16.225 12.875C16.0083 12.3583 16.0083 11.8417 16.225 11.325C16.4417 10.8083 16.8 10.4417 17.3 10.225C17.8167 10.0083 18.3333 10 18.85 10.2C19.3833 10.4167 19.7583 10.7833 19.975 11.3C20.1917 11.8167 20.1917 12.3333 19.975 12.85C19.7583 13.3667 19.3917 13.7333 18.875 13.95C18.375 14.1667 17.8667 14.175 17.35 13.975ZM18.9 8.8C18.3833 9.01667 17.8667 9.01667 17.35 8.8C16.8333 8.58333 16.4667 8.225 16.25 7.725C16.0333 7.20833 16.025 6.69167 16.225 6.175C16.4417 5.65833 16.8 5.28333 17.3 5.05C17.8167 4.83333 18.3333 4.83333 18.85 5.05C19.3667 5.25 19.7417 5.60833 19.975 6.125C20.1917 6.64167 20.1917 7.16667 19.975 7.7C19.775 8.21667 19.4167 8.58333 18.9 8.8ZM16.325 4.2C16.1083 4.71667 15.7417 5.09167 15.225 5.325C14.7083 5.54167 14.1917 5.54167 13.675 5.325C13.1583 5.10833 12.7917 4.75 12.575 4.25C12.3583 3.73333 12.35 3.21667 12.55 2.7C12.7667 2.16667 13.1333 1.79167 13.65 1.575C14.1667 1.35833 14.6833 1.35833 15.2 1.575C15.7167 1.79167 16.0833 2.15833 16.3 2.675C16.5167 3.175 16.525 3.68333 16.325 4.2ZM6.65 13.975C6.13333 14.175 5.61667 14.1667 5.1 13.95C4.6 13.7333 4.24167 13.3667 4.025 12.85C3.80833 12.3333 3.80833 11.8167 4.025 11.3C4.24167 10.7833 4.61667 10.4167 5.15 10.2C5.66667 10 6.175 10.0083 6.675 10.225C7.19167 10.4417 7.55833 10.8083 7.775 11.325C7.99167 11.8417 7.98333 12.3583 7.75 12.875C7.53333 13.3917 7.16667 13.7583 6.65 13.975ZM5.1 8.8C4.58333 8.58333 4.21667 8.21667 4 7.7C3.8 7.16667 3.80833 6.64167 4.025 6.125C4.25833 5.60833 4.63333 5.25 5.15 5.05C5.66667 4.83333 6.18333 4.83333 6.7 5.05C7.2 5.28333 7.55 5.65833 7.75 6.175C7.96667 6.69167 7.96667 7.20833 7.75 7.725C7.53333 8.225 7.16667 8.58333 6.65 8.8C6.13333 9.01667 5.61667 9.01667 5.1 8.8ZM7.675 4.2C7.475 3.68333 7.48333 3.175 7.7 2.675C7.91667 2.15833 8.28333 1.79167 8.8 1.575C9.31667 1.35833 9.83333 1.35833 10.35 1.575C10.8667 1.79167 11.2333 2.16667 11.45 2.7C11.65 3.21667 11.6417 3.73333 11.425 4.25C11.2083 4.75 10.8417 5.10833 10.325 5.325C9.80833 5.54167 9.29167 5.54167 8.775 5.325C8.25833 5.09167 7.89167 4.71667 7.675 4.2Z" fill="black"/>
</g>
<defs>
<clipPath id="clip0_3359_3977">
<rect width="24" height="24" fill="white"/>
</clipPath>
</defs>
</svg>
