<svg width="24" height="24" viewBox="0 0 24 24" fill="none" xmlns="http://www.w3.org/2000/svg">
<g clip-path="url(#clip0_3206_14240)">
<rect width="24" height="24" fill="white"/>
<path d="M12.0005 13.35C11.2838 13.35 10.6255 13.1833 10.0255 12.85C9.44216 12.5 8.97549 12.0333 8.62549 11.45C8.29216 10.85 8.12549 10.2 8.12549 9.5C8.12549 8.8 8.29216 8.15833 8.62549 7.575C8.97549 6.975 9.44216 6.50833 10.0255 6.175C10.6255 5.825 11.2838 5.65 12.0005 5.65C12.7172 5.65 13.3672 5.825 13.9505 6.175C14.5505 6.50833 15.0172 6.975 15.3505 7.575C15.7005 8.15833 15.8755 8.8 15.8755 9.5C15.8755 10.2 15.7005 10.85 15.3505 11.45C15.0172 12.0333 14.5505 12.5 13.9505 12.85C13.3672 13.1833 12.7172 13.35 12.0005 13.35ZM12.0005 12C12.7005 12 13.2922 11.7583 13.7755 11.275C14.2588 10.7917 14.5005 10.2 14.5005 9.5C14.5005 8.8 14.2588 8.20833 13.7755 7.725C13.2922 7.24167 12.7005 7 12.0005 7C11.3005 7 10.7088 7.24167 10.2255 7.725C9.74216 8.20833 9.50049 8.8 9.50049 9.5C9.50049 10.2 9.74216 10.7917 10.2255 11.275C10.7088 11.7583 11.3005 12 12.0005 12ZM18.6505 13.45C18.3672 13.3333 18.1672 13.1417 18.0505 12.875C17.9505 12.5917 17.9505 12.3083 18.0505 12.025C18.1672 11.7583 18.3588 11.5667 18.6255 11.45C18.9088 11.3333 19.1922 11.325 19.4755 11.425C19.7422 11.5583 19.9338 11.7583 20.0505 12.025C20.1838 12.2917 20.1838 12.5667 20.0505 12.85C19.9505 13.1333 19.7588 13.3333 19.4755 13.45C19.1922 13.5667 18.9172 13.5667 18.6505 13.45ZM19.4755 7.525C19.1922 7.64167 18.9088 7.65 18.6255 7.55C18.3422 7.43333 18.1505 7.24167 18.0505 6.975C17.9172 6.69167 17.9088 6.40833 18.0255 6.125C18.1422 5.84167 18.3422 5.64167 18.6255 5.525C18.8922 5.40833 19.1588 5.40833 19.4255 5.525C19.7088 5.625 19.9172 5.825 20.0505 6.125C20.1672 6.39167 20.1672 6.66667 20.0505 6.95C19.9338 7.21667 19.7422 7.40833 19.4755 7.525ZM15.8255 2.925C15.7088 3.19167 15.5088 3.38333 15.2255 3.5C14.9422 3.61667 14.6672 3.61667 14.4005 3.5C14.1172 3.38333 13.9172 3.19167 13.8005 2.925C13.7005 2.64167 13.7005 2.36667 13.8005 2.1C13.9172 1.81667 14.1088 1.61667 14.3755 1.5C14.6588 1.38333 14.9422 1.38333 15.2255 1.5C15.5088 1.6 15.7088 1.79167 15.8255 2.075C15.9422 2.35833 15.9422 2.64167 15.8255 2.925ZM5.35049 13.45C5.08382 13.5667 4.80882 13.5667 4.52549 13.45C4.24216 13.3333 4.05049 13.1333 3.95049 12.85C3.81716 12.5667 3.80882 12.2917 3.92549 12.025C4.05882 11.7583 4.25882 11.5583 4.52549 11.425C4.80882 11.325 5.08382 11.3333 5.35049 11.45C5.63382 11.5667 5.83382 11.7583 5.95049 12.025C6.05049 12.3083 6.04216 12.5917 5.92549 12.875C5.82549 13.1417 5.63382 13.3333 5.35049 13.45ZM4.52549 7.525C4.25882 7.40833 4.06716 7.21667 3.95049 6.95C3.83382 6.66667 3.83382 6.39167 3.95049 6.125C4.08382 5.825 4.28382 5.625 4.55049 5.525C4.83382 5.40833 5.10882 5.40833 5.37549 5.525C5.65882 5.64167 5.85882 5.84167 5.97549 6.125C6.09216 6.40833 6.08382 6.69167 5.95049 6.975C5.85049 7.24167 5.65882 7.43333 5.37549 7.55C5.09216 7.65 4.80882 7.64167 4.52549 7.525ZM8.17549 2.925C8.05882 2.64167 8.05882 2.35833 8.17549 2.075C8.29216 1.79167 8.49216 1.6 8.77549 1.5C9.05882 1.38333 9.33382 1.38333 9.60049 1.5C9.88382 1.61667 10.0838 1.81667 10.2005 2.1C10.3005 2.36667 10.2922 2.64167 10.1755 2.925C10.0755 3.19167 9.88382 3.38333 9.60049 3.5C9.33382 3.61667 9.05882 3.61667 8.77549 3.5C8.49216 3.38333 8.29216 3.19167 8.17549 2.925ZM4.00049 19.825C4.00049 18.925 4.30882 18.1167 4.92549 17.4C5.54216 16.6833 6.45049 16.1167 7.65049 15.7C8.86716 15.2833 10.3172 15.075 12.0005 15.075C13.6838 15.075 15.1255 15.2833 16.3255 15.7C17.5422 16.1167 18.4588 16.6833 19.0755 17.4C19.6922 18.1167 20.0005 18.925 20.0005 19.825V22H4.00049V19.825ZM18.6005 20.65V19.825C18.6005 19.2083 18.3505 18.6417 17.8505 18.125C17.3505 17.6083 16.6005 17.2 15.6005 16.9C14.6172 16.6 13.4172 16.45 12.0005 16.45C10.5838 16.45 9.37549 16.6 8.37549 16.9C7.39216 17.2 6.65049 17.6083 6.15049 18.125C5.65049 18.6417 5.40049 19.2083 5.40049 19.825V20.65H18.6005Z" fill="black"/>
</g>
<defs>
<clipPath id="clip0_3206_14240">
<rect width="24" height="24" fill="white"/>
</clipPath>
</defs>
</svg>
