<svg width="24" height="24" viewBox="0 0 24 24" fill="none" xmlns="http://www.w3.org/2000/svg">
<g clip-path="url(#clip0_3206_14936)">
<rect width="24" height="24" fill="white"/>
<path d="M19.275 17.275C18.7917 17.7583 18.2 18 17.5 18H10.5C9.8 18 9.20833 17.7583 8.725 17.275C8.24167 16.7917 8 16.2 8 15.5V4.5C8 3.8 8.24167 3.20833 8.725 2.725C9.20833 2.24167 9.8 2 10.5 2H17.575C18.2583 2 18.8333 2.24167 19.3 2.725C19.7667 3.20833 20 3.8 20 4.5V15.5C20 16.2 19.7583 16.7917 19.275 17.275ZM4.8 21.2C5.33333 21.7333 5.98333 22 6.75 22H13.25C13.8333 22 14.3583 21.8083 14.825 21.425C15.3083 21.0417 15.65 20.5667 15.85 20H10.5C9.66667 20 8.90833 19.8 8.225 19.4C7.54167 19 7 18.4583 6.6 17.775C6.2 17.0917 6 16.3333 6 15.5V6.125C5.43333 6.325 4.95833 6.66667 4.575 7.15C4.19167 7.61667 4 8.15 4 8.75V19.25C4 20.0167 4.26667 20.6667 4.8 21.2ZM11.95 14.55C12.5167 15.1 13.2 15.375 14 15.375C14.8 15.375 15.475 15.1 16.025 14.55C16.5917 13.9833 16.875 13.3083 16.875 12.525C16.875 11.7417 16.5917 11.075 16.025 10.525C15.475 9.95833 14.8 9.675 14 9.675C13.2 9.675 12.5167 9.95833 11.95 10.525C11.4 11.075 11.125 11.7417 11.125 12.525C11.125 13.3083 11.4 13.9833 11.95 14.55ZM12.625 7.65C13.0083 8.03333 13.4667 8.225 14 8.225C14.5333 8.225 14.9917 8.03333 15.375 7.65C15.7583 7.26667 15.95 6.8 15.95 6.25C15.95 5.71667 15.7583 5.25833 15.375 4.875C15.0083 4.49167 14.55 4.3 14 4.3C13.45 4.3 12.9833 4.49167 12.6 4.875C12.2333 5.25833 12.05 5.725 12.05 6.275C12.05 6.80833 12.2417 7.26667 12.625 7.65Z" fill="black"/>
</g>
<defs>
<clipPath id="clip0_3206_14936">
<rect width="24" height="24" fill="white"/>
</clipPath>
</defs>
</svg>
