<svg width="24" height="24" viewBox="0 0 24 24" fill="none" xmlns="http://www.w3.org/2000/svg">
<g clip-path="url(#clip0_3206_14924)">
<rect width="24" height="24" fill="white"/>
<path d="M10.9755 17.8C10.2088 17.8 9.55882 17.5333 9.02549 17C8.49216 16.4667 8.22549 15.8167 8.22549 15.05V4.75C8.22549 3.96667 8.49216 3.31667 9.02549 2.8C9.55882 2.26667 10.2088 2 10.9755 2H17.3255C18.0755 2 18.7088 2.26667 19.2255 2.8C19.7422 3.33333 20.0005 3.98333 20.0005 4.75V15.05C20.0005 15.8167 19.7338 16.4667 19.2005 17C18.6838 17.5333 18.0338 17.8 17.2505 17.8H10.9755ZM16.7755 14.65C16.7922 14.65 16.8005 14.65 16.8005 14.65C16.8005 14.65 16.8005 14.6417 16.8005 14.625V5.175C16.8005 5.15833 16.8005 5.15 16.8005 5.15C16.8005 5.15 16.7922 5.15 16.7755 5.15H11.4255C11.4088 5.15 11.4005 5.15 11.4005 5.15C11.4005 5.15 11.4005 5.15833 11.4005 5.175V14.625C11.4005 14.6417 11.4005 14.65 11.4005 14.65C11.4005 14.65 11.4088 14.65 11.4255 14.65H16.7755ZM14.0505 13.9C13.4838 13.9 13.0005 13.7083 12.6005 13.325C12.2172 12.925 12.0255 12.4417 12.0255 11.875C12.0255 11.3083 12.2172 10.8333 12.6005 10.45C13.0005 10.05 13.4838 9.85 14.0505 9.85C14.6172 9.85 15.0922 10.05 15.4755 10.45C15.8755 10.8333 16.0755 11.3083 16.0755 11.875C16.0755 12.4417 15.8755 12.925 15.4755 13.325C15.0922 13.7083 14.6172 13.9 14.0505 13.9ZM14.0505 11.875C14.2672 11.875 14.4255 11.875 14.5255 11.875C14.6255 11.875 14.7755 11.875 14.9755 11.875C14.7588 11.875 14.6005 11.875 14.5005 11.875C14.4005 11.875 14.2505 11.875 14.0505 11.875C13.8338 11.875 13.6755 11.875 13.5755 11.875C13.4755 11.875 13.3172 11.875 13.1005 11.875C13.3172 11.875 13.4755 11.875 13.5755 11.875C13.6755 11.875 13.8338 11.875 14.0505 11.875ZM14.0005 9C13.5838 9 13.2255 8.85833 12.9255 8.575C12.6422 8.275 12.5005 7.91667 12.5005 7.5C12.5005 7.08333 12.6422 6.73333 12.9255 6.45C13.2255 6.15 13.5838 6 14.0005 6C14.4172 6 14.7672 6.15 15.0505 6.45C15.3338 6.73333 15.4755 7.08333 15.4755 7.5C15.4755 7.91667 15.3338 8.275 15.0505 8.575C14.7672 8.85833 14.4172 9 14.0005 9ZM14.0005 7.5C13.8672 7.5 13.7672 7.5 13.7005 7.5C13.6338 7.5 13.5338 7.5 13.4005 7.5C13.5338 7.5 13.6338 7.5 13.7005 7.5C13.7672 7.5 13.8672 7.5 14.0005 7.5C14.1338 7.5 14.2255 7.5 14.2755 7.5C14.3422 7.5 14.4422 7.5 14.5755 7.5C14.4422 7.5 14.3422 7.5 14.2755 7.5C14.2255 7.5 14.1338 7.5 14.0005 7.5ZM15.7505 19.3C15.7505 20.0667 15.4838 20.7167 14.9505 21.25C14.4338 21.7833 13.7838 22.05 13.0005 22.05H6.72549C5.95882 22.05 5.30882 21.7833 4.77549 21.25C4.24216 20.7167 3.97549 20.0667 3.97549 19.3V9C3.97549 8.21667 4.24216 7.56667 4.77549 7.05C5.30882 6.51667 5.95882 6.25 6.72549 6.25H9.77549V9.4H7.20049C7.18382 9.4 7.17549 9.4 7.17549 9.4C7.17549 9.4 7.17549 9.40833 7.17549 9.425V18.85C7.17549 18.8667 7.17549 18.875 7.17549 18.875C7.17549 18.875 7.18382 18.875 7.20049 18.875H12.5255C12.5422 18.875 12.5505 18.875 12.5505 18.875C12.5505 18.875 12.5505 18.8667 12.5505 18.85V15.8H15.7505V19.3Z" fill="black"/>
</g>
<defs>
<clipPath id="clip0_3206_14924">
<rect width="24" height="24" fill="white"/>
</clipPath>
</defs>
</svg>
