<svg width="24" height="24" viewBox="0 0 24 24" fill="none" xmlns="http://www.w3.org/2000/svg">
<g clip-path="url(#clip0_3206_14916)">
<rect width="24" height="24" fill="white"/>
<path d="M10.3255 18.325C9.59216 18.325 8.96716 18.0667 8.45049 17.55C7.93382 17.0333 7.67549 16.4083 7.67549 15.675V4.675C7.67549 3.925 7.93382 3.29167 8.45049 2.775C8.96716 2.25833 9.59216 2 10.3255 2H17.3755C18.0922 2 18.7088 2.25833 19.2255 2.775C19.7422 3.29167 20.0005 3.925 20.0005 4.675V15.675C20.0005 16.4083 19.7422 17.0333 19.2255 17.55C18.7088 18.0667 18.0755 18.325 17.3255 18.325H10.3255ZM17.3255 16.975C17.6922 16.975 17.9922 16.85 18.2255 16.6C18.4755 16.35 18.6005 16.0417 18.6005 15.675V4.675C18.6005 4.30833 18.4755 4 18.2255 3.75C17.9922 3.48333 17.7088 3.35 17.3755 3.35H10.3255C9.97549 3.35 9.67549 3.475 9.42549 3.725C9.19216 3.975 9.07549 4.29167 9.07549 4.675V15.675C9.07549 16.0417 9.19216 16.35 9.42549 16.6C9.67549 16.85 9.97549 16.975 10.3255 16.975H17.3255ZM13.8255 15.275C12.9922 15.275 12.2838 14.9917 11.7005 14.425C11.1172 13.8417 10.8255 13.1333 10.8255 12.3C10.8255 11.4667 11.1172 10.7667 11.7005 10.2C12.2838 9.61667 12.9922 9.325 13.8255 9.325C14.6588 9.325 15.3672 9.61667 15.9505 10.2C16.5338 10.7667 16.8255 11.4667 16.8255 12.3C16.8255 13.1333 16.5338 13.8417 15.9505 14.425C15.3672 14.9917 14.6588 15.275 13.8255 15.275ZM13.8255 14C14.3255 14 14.7338 13.8417 15.0505 13.525C15.3838 13.1917 15.5505 12.7833 15.5505 12.3C15.5505 11.8 15.3838 11.3917 15.0505 11.075C14.7338 10.7417 14.3255 10.575 13.8255 10.575C13.3422 10.575 12.9338 10.7417 12.6005 11.075C12.2838 11.3917 12.1255 11.8 12.1255 12.3C12.1255 12.7833 12.2838 13.1917 12.6005 13.525C12.9338 13.8417 13.3422 14 13.8255 14ZM13.8505 7.525C13.5172 7.525 13.2338 7.41667 13.0005 7.2C12.7838 6.96667 12.6755 6.69167 12.6755 6.375C12.6755 6.05833 12.7838 5.78333 13.0005 5.55C13.2338 5.31667 13.5088 5.2 13.8255 5.2C14.1422 5.2 14.4172 5.31667 14.6505 5.55C14.8838 5.76667 15.0005 6.03333 15.0005 6.35C15.0005 6.68333 14.8838 6.96667 14.6505 7.2C14.4338 7.41667 14.1672 7.525 13.8505 7.525ZM13.8255 6.375C13.8588 6.375 13.8838 6.375 13.9005 6.375C13.9172 6.375 13.9422 6.375 13.9755 6.375C13.9422 6.375 13.9172 6.375 13.9005 6.375C13.8838 6.375 13.8588 6.375 13.8255 6.375C13.7922 6.375 13.7672 6.375 13.7505 6.375C13.7505 6.375 13.7338 6.375 13.7005 6.375C13.7338 6.375 13.7505 6.375 13.7505 6.375C13.7672 6.375 13.7922 6.375 13.8255 6.375ZM16.3255 19.325C16.3255 20.075 16.0672 20.7083 15.5505 21.225C15.0505 21.7417 14.4255 22 13.6755 22H6.67549C5.92549 22 5.29216 21.7417 4.77549 21.225C4.25882 20.7083 4.00049 20.075 4.00049 19.325V8.325C4.00049 7.575 4.25882 6.95 4.77549 6.45C5.29216 5.93333 5.92549 5.675 6.67549 5.675H8.40049V7.025H6.67549C6.30882 7.025 6.00049 7.15 5.75049 7.4C5.51716 7.65 5.40049 7.95833 5.40049 8.325V19.325C5.40049 19.7083 5.51716 20.025 5.75049 20.275C6.00049 20.525 6.30882 20.65 6.67549 20.65H13.6755C14.0255 20.65 14.3172 20.525 14.5505 20.275C14.8005 20.025 14.9255 19.7083 14.9255 19.325V17.525L16.3255 17.6V19.325Z" fill="black"/>
</g>
<defs>
<clipPath id="clip0_3206_14916">
<rect width="24" height="24" fill="white"/>
</clipPath>
</defs>
</svg>
