<svg width="24" height="24" viewBox="0 0 24 24" fill="none" xmlns="http://www.w3.org/2000/svg">
<g clip-path="url(#clip0_3206_14918)">
<rect width="24" height="24" fill="white"/>
<path d="M10.7505 18C9.98382 18 9.33382 17.7333 8.80049 17.2C8.26716 16.6667 8.00049 16.0167 8.00049 15.25V4.75C8.00049 3.96667 8.26716 3.31667 8.80049 2.8C9.33382 2.26667 9.98382 2 10.7505 2H17.2505C18.0005 2 18.6422 2.26667 19.1755 2.8C19.7255 3.33333 20.0005 3.98333 20.0005 4.75V15.25C20.0005 16.0167 19.7338 16.6667 19.2005 17.2C18.6838 17.7333 18.0338 18 17.2505 18H10.7505ZM17.2505 16.2C17.5005 16.2 17.7088 16.1083 17.8755 15.925C18.0588 15.7417 18.1505 15.5167 18.1505 15.25V4.75C18.1505 4.5 18.0588 4.28333 17.8755 4.1C17.6922 3.9 17.4838 3.8 17.2505 3.8H10.7505C10.5005 3.8 10.2838 3.89167 10.1005 4.075C9.93382 4.25833 9.85049 4.48333 9.85049 4.75V15.25C9.85049 15.5167 9.93382 15.7417 10.1005 15.925C10.2838 16.1083 10.5005 16.2 10.7505 16.2H17.2505ZM14.0005 14.85C13.1672 14.85 12.4588 14.5667 11.8755 14C11.2922 13.4167 11.0005 12.7083 11.0005 11.875C11.0005 11.0417 11.2922 10.3417 11.8755 9.775C12.4588 9.19167 13.1672 8.9 14.0005 8.9C14.8338 8.9 15.5422 9.19167 16.1255 9.775C16.7088 10.3417 17.0005 11.0417 17.0005 11.875C17.0005 12.7083 16.7088 13.4167 16.1255 14C15.5422 14.5667 14.8338 14.85 14.0005 14.85ZM14.0005 13.175C14.3838 13.175 14.6922 13.05 14.9255 12.8C15.1755 12.55 15.3005 12.2417 15.3005 11.875C15.3005 11.4917 15.1755 11.1833 14.9255 10.95C14.6922 10.7 14.3838 10.575 14.0005 10.575C13.6338 10.575 13.3255 10.7 13.0755 10.95C12.8255 11.1833 12.7005 11.4917 12.7005 11.875C12.7005 12.2417 12.8255 12.55 13.0755 12.8C13.3255 13.05 13.6338 13.175 14.0005 13.175ZM14.0005 7.725C13.6172 7.725 13.2922 7.59167 13.0255 7.325C12.7588 7.05833 12.6255 6.73333 12.6255 6.35C12.6255 5.96667 12.7588 5.64167 13.0255 5.375C13.2922 5.10833 13.6172 4.975 14.0005 4.975C14.3838 4.975 14.7088 5.10833 14.9755 5.375C15.2422 5.64167 15.3755 5.96667 15.3755 6.35C15.3755 6.73333 15.2422 7.05833 14.9755 7.325C14.7088 7.59167 14.3838 7.725 14.0005 7.725ZM14.0005 6.35C13.8505 6.35 13.7422 6.35 13.6755 6.35C13.6088 6.35 13.5005 6.35 13.3505 6.35C13.5005 6.35 13.6088 6.35 13.6755 6.35C13.7422 6.35 13.8505 6.35 14.0005 6.35C14.1505 6.35 14.2588 6.35 14.3255 6.35C14.3922 6.35 14.5005 6.35 14.6505 6.35C14.5005 6.35 14.3922 6.35 14.3255 6.35C14.2588 6.35 14.1505 6.35 14.0005 6.35ZM16.0005 19.25C16.0005 20.0167 15.7338 20.6667 15.2005 21.2C14.6838 21.7333 14.0338 22 13.2505 22H6.75049C5.98382 22 5.33382 21.7333 4.80049 21.2C4.26716 20.6667 4.00049 20.0167 4.00049 19.25V8.75C4.00049 7.96667 4.26716 7.31667 4.80049 6.8C5.33382 6.26667 5.98382 6 6.75049 6H8.97549V7.8H6.75049C6.50049 7.8 6.28382 7.89167 6.10049 8.075C5.93382 8.25833 5.85049 8.48333 5.85049 8.75V19.25C5.85049 19.5167 5.93382 19.7417 6.10049 19.925C6.28382 20.1083 6.50049 20.2 6.75049 20.2H13.2505C13.5005 20.2 13.7088 20.1083 13.8755 19.925C14.0588 19.7417 14.1505 19.5167 14.1505 19.25V17L16.0005 17.125V19.25Z" fill="black"/>
</g>
<defs>
<clipPath id="clip0_3206_14918">
<rect width="24" height="24" fill="white"/>
</clipPath>
</defs>
</svg>
