<svg width="24" height="24" viewBox="0 0 24 24" fill="none" xmlns="http://www.w3.org/2000/svg">
<g clip-path="url(#clip0_3206_14836)">
<rect width="24" height="24" fill="white"/>
<path d="M18.8005 22.5L11.6505 17.5H6.15049C5.40049 17.5 4.76716 17.2417 4.25049 16.725C3.75049 16.2083 3.50049 15.5833 3.50049 14.85V9.175C3.50049 8.425 3.75882 7.79167 4.27549 7.275C4.79216 6.75833 5.42549 6.5 6.17549 6.5H11.6505L18.7505 1.5H20.0005V22.5H18.8005ZM6.17549 7.45C5.69216 7.45 5.28382 7.61667 4.95049 7.95C4.63382 8.28333 4.47549 8.69167 4.47549 9.175V14.825C4.47549 15.3083 4.63382 15.7167 4.95049 16.05C5.28382 16.3833 5.69216 16.55 6.17549 16.55H11.9505L19.3005 21.675L19.0255 21.875V2.2L19.2505 2.325L11.9505 7.45H6.17549Z" fill="black"/>
</g>
<defs>
<clipPath id="clip0_3206_14836">
<rect width="24" height="24" fill="white"/>
</clipPath>
</defs>
</svg>
