<svg width="24" height="24" viewBox="0 0 24 24" fill="none" xmlns="http://www.w3.org/2000/svg">
<g clip-path="url(#clip0_3206_14930)">
<rect width="24" height="24" fill="white"/>
<path d="M19.275 17.6C18.7917 18.0833 18.2 18.325 17.5 18.325H10.175C9.475 18.325 8.88333 18.0833 8.4 17.6C7.91667 17.1167 7.675 16.525 7.675 15.825V4.5C7.675 3.8 7.91667 3.20833 8.4 2.725C8.88333 2.24167 9.475 2 10.175 2H17.575C18.2583 2 18.8333 2.24167 19.3 2.725C19.7667 3.20833 20 3.8 20 4.5V15.825C20 16.525 19.7583 17.1167 19.275 17.6ZM4.775 21.225C5.29167 21.7417 5.925 22 6.675 22H13.675C14.2917 22 14.8333 21.7917 15.3 21.375C15.7833 20.9583 16.0917 20.4417 16.225 19.825H10.175C9.425 19.825 8.74167 19.65 8.125 19.3C7.525 18.95 7.05 18.475 6.7 17.875C6.35 17.2583 6.175 16.575 6.175 15.825V5.75C5.55833 5.88333 5.04167 6.19167 4.625 6.675C4.20833 7.14167 4 7.69167 4 8.325V19.325C4 20.075 4.25833 20.7083 4.775 21.225ZM11.775 14.35C12.3417 14.9 13.025 15.175 13.825 15.175C14.625 15.175 15.3 14.9 15.85 14.35C16.4167 13.7833 16.7 13.1083 16.7 12.325C16.7 11.5417 16.4167 10.875 15.85 10.325C15.3 9.75833 14.625 9.475 13.825 9.475C13.025 9.475 12.3417 9.75833 11.775 10.325C11.225 10.875 10.95 11.5417 10.95 12.325C10.95 13.1083 11.225 13.7833 11.775 14.35ZM13.075 6.75C13.2917 6.96667 13.5417 7.075 13.825 7.075C14.125 7.075 14.3833 6.975 14.6 6.775C14.8167 6.55833 14.925 6.3 14.925 6C14.925 5.7 14.8167 5.45 14.6 5.25C14.3833 5.03333 14.125 4.925 13.825 4.925C13.525 4.925 13.2667 5.03333 13.05 5.25C12.85 5.45 12.75 5.7 12.75 6C12.75 6.28333 12.8583 6.53333 13.075 6.75Z" fill="black"/>
</g>
<defs>
<clipPath id="clip0_3206_14930">
<rect width="24" height="24" fill="white"/>
</clipPath>
</defs>
</svg>
