<svg width="24" height="24" viewBox="0 0 24 24" fill="none" xmlns="http://www.w3.org/2000/svg">
<g clip-path="url(#clip0_3206_14914)">
<rect width="24" height="24" fill="white"/>
<path d="M9.92549 18.675C9.20882 18.675 8.59216 18.425 8.07549 17.925C7.57549 17.4083 7.32549 16.7917 7.32549 16.075V4.575C7.32549 3.85833 7.57549 3.25 8.07549 2.75C8.59216 2.25 9.20882 2 9.92549 2H17.4755C18.1755 2 18.7672 2.25 19.2505 2.75C19.7505 3.25 20.0005 3.85833 20.0005 4.575V16.075C20.0005 16.7917 19.7505 17.4083 19.2505 17.925C18.7505 18.425 18.1422 18.675 17.4255 18.675H9.92549ZM17.4255 17.75C17.8922 17.75 18.2755 17.5917 18.5755 17.275C18.8922 16.9417 19.0505 16.5417 19.0505 16.075V4.575C19.0505 4.10833 18.8922 3.71667 18.5755 3.4C18.2755 3.06667 17.9088 2.9 17.4755 2.9H9.92549C9.45882 2.9 9.06716 3.06667 8.75049 3.4C8.45049 3.71667 8.30049 4.10833 8.30049 4.575V16.075C8.30049 16.5417 8.45049 16.9417 8.75049 17.275C9.06716 17.5917 9.45882 17.75 9.92549 17.75H17.4255ZM13.6755 15.675C12.8422 15.675 12.1338 15.3917 11.5505 14.825C10.9672 14.2417 10.6755 13.5333 10.6755 12.7C10.6755 11.8667 10.9672 11.1667 11.5505 10.6C12.1338 10.0167 12.8422 9.725 13.6755 9.725C14.5088 9.725 15.2172 10.0167 15.8005 10.6C16.3838 11.1667 16.6755 11.8667 16.6755 12.7C16.6755 13.5333 16.3838 14.2417 15.8005 14.825C15.2172 15.3917 14.5088 15.675 13.6755 15.675ZM13.6755 14.825C14.2755 14.825 14.7755 14.625 15.1755 14.225C15.5922 13.8083 15.8005 13.3 15.8005 12.7C15.8005 12.1 15.5922 11.6 15.1755 11.2C14.7755 10.7833 14.2755 10.575 13.6755 10.575C13.0755 10.575 12.5672 10.7833 12.1505 11.2C11.7505 11.6 11.5505 12.1 11.5505 12.7C11.5505 13.3 11.7505 13.8083 12.1505 14.225C12.5672 14.625 13.0755 14.825 13.6755 14.825ZM13.6755 8.625C13.0422 8.625 12.5088 8.40833 12.0755 7.975C11.6422 7.525 11.4255 6.99167 11.4255 6.375C11.4255 5.74167 11.6422 5.20833 12.0755 4.775C12.5088 4.34167 13.0422 4.125 13.6755 4.125C14.3088 4.125 14.8422 4.35 15.2755 4.8C15.7088 5.23333 15.9255 5.75833 15.9255 6.375C15.9255 7.00833 15.7005 7.54167 15.2505 7.975C14.8172 8.40833 14.2922 8.625 13.6755 8.625ZM13.6755 7.75C14.0588 7.75 14.3838 7.61667 14.6505 7.35C14.9172 7.08333 15.0505 6.75833 15.0505 6.375C15.0505 5.99167 14.9172 5.66667 14.6505 5.4C14.3838 5.13333 14.0588 5 13.6755 5C13.2922 5 12.9672 5.13333 12.7005 5.4C12.4338 5.66667 12.3005 5.99167 12.3005 6.375C12.3005 6.75833 12.4338 7.08333 12.7005 7.35C12.9672 7.61667 13.2922 7.75 13.6755 7.75ZM16.6755 19.425C16.6755 20.1417 16.4255 20.75 15.9255 21.25C15.4255 21.75 14.8088 22 14.0755 22H6.57549C5.85882 22 5.25049 21.75 4.75049 21.25C4.25049 20.75 4.00049 20.1417 4.00049 19.425V7.925C4.00049 7.19167 4.25049 6.575 4.75049 6.075C5.25049 5.575 5.85882 5.325 6.57549 5.325H7.85049V6.25H6.57549C6.10882 6.25 5.71716 6.41667 5.40049 6.75C5.10049 7.06667 4.95049 7.45833 4.95049 7.925V19.425C4.95049 19.8917 5.10049 20.2917 5.40049 20.625C5.71716 20.9417 6.10882 21.1 6.57549 21.1H14.0755C14.5422 21.1 14.9255 20.9417 15.2255 20.625C15.5422 20.2917 15.7005 19.8917 15.7005 19.425V18.05L16.6755 18.1V19.425Z" fill="black"/>
</g>
<defs>
<clipPath id="clip0_3206_14914">
<rect width="24" height="24" fill="white"/>
</clipPath>
</defs>
</svg>
