<svg width="24" height="24" viewBox="0 0 24 24" fill="none" xmlns="http://www.w3.org/2000/svg">
<g clip-path="url(#clip0_3208_22347)">
<rect width="24" height="24" fill="white"/>
<path d="M4.67598 20C4.17598 20 3.71764 19.8833 3.30098 19.65C2.90098 19.4167 2.58431 19.1 2.35098 18.7C2.11764 18.2833 2.00098 17.825 2.00098 17.325V6.675C2.00098 6.175 2.11764 5.725 2.35098 5.325C2.58431 4.90833 2.90098 4.58333 3.30098 4.35C3.71764 4.11667 4.17598 4 4.67598 4H19.326C19.826 4 20.276 4.11667 20.676 4.35C21.0926 4.58333 21.4176 4.90833 21.651 5.325C21.8843 5.725 22.001 6.175 22.001 6.675V17.325C22.001 17.825 21.8843 18.2833 21.651 18.7C21.4176 19.1 21.0926 19.4167 20.676 19.65C20.276 19.8833 19.826 20 19.326 20H4.67598ZM19.326 19.025C19.8093 19.025 20.2093 18.8667 20.526 18.55C20.8426 18.2167 21.001 17.8083 21.001 17.325V6.675C21.001 6.19167 20.8426 5.79167 20.526 5.475C20.2093 5.14167 19.8093 4.975 19.326 4.975H4.67598C4.19264 4.975 3.79264 5.14167 3.47598 5.475C3.15931 5.79167 3.00098 6.19167 3.00098 6.675V17.325C3.00098 17.8083 3.15931 18.2167 3.47598 18.55C3.79264 18.8667 4.19264 19.025 4.67598 19.025H19.326Z" fill="black"/>
</g>
<defs>
<clipPath id="clip0_3208_22347">
<rect width="24" height="24" fill="white"/>
</clipPath>
</defs>
</svg>
