<svg width="24" height="24" viewBox="0 0 24 24" fill="none" xmlns="http://www.w3.org/2000/svg">
<g clip-path="url(#clip0_3208_22349)">
<rect width="24" height="24" fill="white"/>
<path d="M4.82598 20C4.30931 20 3.83431 19.875 3.40098 19.625C2.96764 19.375 2.62598 19.0333 2.37598 18.6C2.12598 18.1667 2.00098 17.6917 2.00098 17.175V6.825C2.00098 6.30833 2.12598 5.83333 2.37598 5.4C2.62598 4.96667 2.96764 4.625 3.40098 4.375C3.83431 4.125 4.30931 4 4.82598 4H19.176C19.6926 4 20.1676 4.125 20.601 4.375C21.0343 4.625 21.376 4.96667 21.626 5.4C21.876 5.83333 22.001 6.30833 22.001 6.825V17.175C22.001 17.6917 21.876 18.1667 21.626 18.6C21.376 19.0333 21.0343 19.375 20.601 19.625C20.1676 19.875 19.6926 20 19.176 20H4.82598ZM19.176 18.55C19.5426 18.55 19.851 18.4167 20.101 18.15C20.3676 17.8833 20.501 17.5583 20.501 17.175V6.825C20.501 6.44167 20.3676 6.11667 20.101 5.85C19.851 5.58333 19.5426 5.45 19.176 5.45H4.82598C4.45931 5.45 4.14264 5.58333 3.87598 5.85C3.62598 6.11667 3.50098 6.44167 3.50098 6.825V17.175C3.50098 17.5583 3.62598 17.8833 3.87598 18.15C4.14264 18.4167 4.45931 18.55 4.82598 18.55H19.176Z" fill="black"/>
</g>
<defs>
<clipPath id="clip0_3208_22349">
<rect width="24" height="24" fill="white"/>
</clipPath>
</defs>
</svg>
