<svg width="24" height="24" viewBox="0 0 24 24" fill="none" xmlns="http://www.w3.org/2000/svg">
<g clip-path="url(#clip0_3208_22357)">
<rect width="24" height="24" fill="white"/>
<path d="M5.50098 20C4.86764 20 4.27598 19.85 3.72598 19.55C3.19264 19.2333 2.76764 18.8083 2.45098 18.275C2.15098 17.725 2.00098 17.1333 2.00098 16.5V7.5C2.00098 6.85 2.15098 6.25833 2.45098 5.725C2.76764 5.19167 3.19264 4.775 3.72598 4.475C4.27598 4.15833 4.86764 4 5.50098 4H18.501C19.151 4 19.7426 4.15833 20.276 4.475C20.8093 4.775 21.226 5.19167 21.526 5.725C21.8426 6.25833 22.001 6.85 22.001 7.5V16.5C22.001 17.1333 21.8426 17.725 21.526 18.275C21.226 18.8083 20.8093 19.2333 20.276 19.55C19.7426 19.85 19.151 20 18.501 20H5.50098ZM18.176 16.3C18.1926 16.3 18.2093 16.2917 18.226 16.275C18.2426 16.2583 18.251 16.2417 18.251 16.225V7.775C18.251 7.75833 18.2426 7.74167 18.226 7.725C18.2093 7.70833 18.1926 7.7 18.176 7.7H5.82598C5.80931 7.7 5.79264 7.70833 5.77598 7.725C5.75931 7.74167 5.75098 7.75833 5.75098 7.775V16.225C5.75098 16.2417 5.75931 16.2583 5.77598 16.275C5.79264 16.2917 5.80931 16.3 5.82598 16.3H18.176Z" fill="black"/>
</g>
<defs>
<clipPath id="clip0_3208_22357">
<rect width="24" height="24" fill="white"/>
</clipPath>
</defs>
</svg>
