<svg width="24" height="24" viewBox="0 0 24 24" fill="none" xmlns="http://www.w3.org/2000/svg">
<g clip-path="url(#clip0_3208_22355)">
<rect width="24" height="24" fill="white"/>
<path d="M5.32598 20C4.72598 20 4.16764 19.85 3.65098 19.55C3.15098 19.25 2.75098 18.85 2.45098 18.35C2.15098 17.8333 2.00098 17.275 2.00098 16.675V7.325C2.00098 6.725 2.15098 6.175 2.45098 5.675C2.75098 5.15833 3.15098 4.75 3.65098 4.45C4.16764 4.15 4.72598 4 5.32598 4H18.676C19.276 4 19.826 4.15 20.326 4.45C20.8426 4.75 21.251 5.15833 21.551 5.675C21.851 6.175 22.001 6.725 22.001 7.325V16.675C22.001 17.275 21.851 17.8333 21.551 18.35C21.251 18.85 20.8426 19.25 20.326 19.55C19.826 19.85 19.276 20 18.676 20H5.32598ZM18.451 16.875C18.5676 16.875 18.6593 16.8417 18.726 16.775C18.7926 16.6917 18.826 16.5917 18.826 16.475V7.525C18.826 7.40833 18.7926 7.31667 18.726 7.25C18.6593 7.16667 18.5676 7.125 18.451 7.125H5.55098C5.43431 7.125 5.34264 7.16667 5.27598 7.25C5.20931 7.31667 5.17598 7.40833 5.17598 7.525V16.475C5.17598 16.5917 5.20931 16.6917 5.27598 16.775C5.34264 16.8417 5.43431 16.875 5.55098 16.875H18.451Z" fill="black"/>
</g>
<defs>
<clipPath id="clip0_3208_22355">
<rect width="24" height="24" fill="white"/>
</clipPath>
</defs>
</svg>
