<svg width="24" height="24" viewBox="0 0 24 24" fill="none" xmlns="http://www.w3.org/2000/svg">
<g clip-path="url(#clip0_3394_11342)">
<rect width="24" height="24" fill="white"/>
<path d="M20.525 17.2C19.6083 17.7333 18.6 18 17.5 18H6.5C5.4 18 4.39167 17.7333 3.475 17.2C2.55833 16.6667 1.83333 15.9417 1.3 15.025C0.766667 14.1083 0.5 13.1 0.5 12C0.5 10.9 0.766667 9.89167 1.3 8.975C1.83333 8.05833 2.55833 7.33333 3.475 6.8C4.39167 6.26667 5.4 6 6.5 6H17.5C18.6 6 19.6083 6.26667 20.525 6.8C21.4417 7.33333 22.1667 8.05833 22.7 8.975C23.2333 9.89167 23.5 10.9 23.5 12C23.5 13.1 23.2333 14.1083 22.7 15.025C22.1667 15.9417 21.4417 16.6667 20.525 17.2ZM18 11.275H6V12.725H18V11.275Z" fill="black"/>
</g>
<defs>
<clipPath id="clip0_3394_11342">
<rect width="24" height="24" fill="white"/>
</clipPath>
</defs>
</svg>
