<svg width="24" height="24" viewBox="0 0 24 24" fill="none" xmlns="http://www.w3.org/2000/svg">
<g clip-path="url(#clip0_3375_6096)">
<rect width="24" height="24" fill="white"/>
<path d="M6.32549 18.175C5.25882 18.175 4.27549 17.9 3.37549 17.35C2.49216 16.8 1.79216 16.0583 1.27549 15.125C0.758822 14.175 0.500488 13.1333 0.500488 12C0.500488 10.8667 0.775488 9.83333 1.32549 8.9C1.87549 7.95 2.61716 7.2 3.55049 6.65C4.50049 6.1 5.54216 5.825 6.67549 5.825H17.3255C18.4588 5.825 19.4922 6.1 20.4255 6.65C21.3755 7.2 22.1255 7.95 22.6755 8.9C23.2255 9.83333 23.5005 10.8667 23.5005 12C23.5005 13.1333 23.2255 14.175 22.6755 15.125C22.1255 16.0583 21.3755 16.8 20.4255 17.35C19.4922 17.9 18.4588 18.175 17.3255 18.175H6.32549ZM17.3255 15.825C18.0255 15.825 18.6588 15.6583 19.2255 15.325C19.8088 14.975 20.2672 14.5083 20.6005 13.925C20.9505 13.3417 21.1255 12.7 21.1255 12C21.1255 11.3 20.9505 10.6583 20.6005 10.075C20.2672 9.49167 19.8088 9.03333 19.2255 8.7C18.6588 8.35 18.0255 8.175 17.3255 8.175H6.67549C5.97549 8.175 5.33382 8.35 4.75049 8.7C4.18382 9.03333 3.72549 9.49167 3.37549 10.075C3.04216 10.6583 2.87549 11.3 2.87549 12C2.87549 12.7 3.02549 13.3417 3.32549 13.925C3.64216 14.5083 4.06716 14.975 4.60049 15.325C5.13382 15.6583 5.70882 15.825 6.32549 15.825H17.3255ZM16.8255 10.775V13.225H7.17549V10.775H16.8255Z" fill="black"/>
</g>
<defs>
<clipPath id="clip0_3375_6096">
<rect width="24" height="24" fill="white"/>
</clipPath>
</defs>
</svg>
