<svg width="24" height="24" viewBox="0 0 24 24" fill="none" xmlns="http://www.w3.org/2000/svg">
<g clip-path="url(#clip0_3207_15082)">
<rect width="24" height="24" fill="white"/>
<path d="M6.17549 18C5.12549 18 4.16716 17.7333 3.30049 17.2C2.45049 16.6667 1.76715 15.9417 1.25049 15.025C0.750488 14.1083 0.500488 13.1 0.500488 12C0.500488 10.9 0.767155 9.89167 1.30049 8.975C1.83382 8.05833 2.55882 7.33333 3.47549 6.8C4.39216 6.26667 5.40049 6 6.50049 6H17.5005C18.6005 6 19.6088 6.26667 20.5255 6.8C21.4422 7.33333 22.1672 8.05833 22.7005 8.975C23.2338 9.89167 23.5005 10.9 23.5005 12C23.5005 13.1 23.2338 14.1083 22.7005 15.025C22.1672 15.9417 21.4422 16.6667 20.5255 17.2C19.6088 17.7333 18.6005 18 17.5005 18H6.17549ZM17.5005 16.65C18.3505 16.65 19.1255 16.4417 19.8255 16.025C20.5255 15.6083 21.0755 15.05 21.4755 14.35C21.8922 13.6333 22.1005 12.85 22.1005 12C22.1005 11.15 21.8922 10.375 21.4755 9.675C21.0755 8.95833 20.5255 8.39167 19.8255 7.975C19.1255 7.55833 18.3505 7.35 17.5005 7.35H6.50049C5.65049 7.35 4.87549 7.55833 4.17549 7.975C3.47549 8.39167 2.91715 8.95833 2.50049 9.675C2.10049 10.375 1.90049 11.15 1.90049 12C1.90049 12.85 2.09216 13.6333 2.47549 14.35C2.85882 15.05 3.37549 15.6083 4.02549 16.025C4.67549 16.4417 5.39216 16.65 6.17549 16.65H17.5005ZM17.0005 11.275V12.725H7.00049V11.275H17.0005Z" fill="black"/>
</g>
<defs>
<clipPath id="clip0_3207_15082">
<rect width="24" height="24" fill="white"/>
</clipPath>
</defs>
</svg>
