<svg width="24" height="24" viewBox="0 0 24 24" fill="none" xmlns="http://www.w3.org/2000/svg">
<g clip-path="url(#clip0_3207_20195)">
<rect width="24" height="24" fill="white"/>
<path d="M3.00049 15.95L7.57549 18.6L12.0005 15.95L16.4255 18.6L21.0005 15.95V18.6L16.4255 21.25L12.0005 18.6L7.57549 21.25L3.00049 18.6V15.95ZM3.00049 2.75L7.57549 5.4L12.0005 2.75L16.4255 5.4L21.0005 2.75V5.4L16.4255 8.05L12.0005 5.4L7.57549 8.05L3.00049 5.4V2.75ZM3.00049 9.325L7.57549 12L12.0005 9.325L16.4255 12L21.0005 9.325V11.975L16.4255 14.675L12.0005 11.975L7.57549 14.675L3.00049 11.975V9.325Z" fill="black"/>
</g>
<defs>
<clipPath id="clip0_3207_20195">
<rect width="24" height="24" fill="white"/>
</clipPath>
</defs>
</svg>
