<svg width="24" height="24" viewBox="0 0 24 24" fill="none" xmlns="http://www.w3.org/2000/svg">
<g clip-path="url(#clip0_3207_20179)">
<rect width="24" height="24" fill="white"/>
<path d="M15.001 2C15.551 2 16.051 2.13333 16.501 2.4C16.9676 2.66667 17.3343 3.03333 17.601 3.5C17.8676 3.95 18.001 4.45 18.001 5V19C18.001 19.8333 17.7093 20.5417 17.126 21.125C16.5426 21.7083 15.8343 22 15.001 22H9.00098C8.45098 22 7.94264 21.8667 7.47598 21.6C7.02598 21.3333 6.66764 20.975 6.40098 20.525C6.13431 20.0583 6.00098 19.55 6.00098 19V5C6.00098 4.45 6.13431 3.95 6.40098 3.5C6.66764 3.03333 7.02598 2.66667 7.47598 2.4C7.94264 2.13333 8.45098 2 9.00098 2H15.001ZM9.00098 3.85C8.68431 3.85 8.41764 3.95833 8.20098 4.175C8.00098 4.39167 7.90098 4.66667 7.90098 5V19C7.90098 19.3333 8.00098 19.6083 8.20098 19.825C8.41764 20.0417 8.68431 20.15 9.00098 20.15H15.001C15.3176 20.15 15.576 20.0417 15.776 19.825C15.9926 19.6083 16.101 19.3333 16.101 19V5C16.101 4.66667 15.9926 4.39167 15.776 4.175C15.576 3.95833 15.3176 3.85 15.001 3.85H9.00098ZM21.626 7.425C22.2093 8.05833 22.651 8.76667 22.951 9.55C23.2676 10.3333 23.426 11.15 23.426 12C23.426 12.85 23.2676 13.6667 22.951 14.45C22.651 15.2333 22.2093 15.9417 21.626 16.575L20.276 15.375C21.1426 14.4083 21.576 13.2833 21.576 12C21.576 10.7167 21.1426 9.59167 20.276 8.625L21.626 7.425ZM3.72598 8.625C2.85931 9.59167 2.42598 10.7167 2.42598 12C2.42598 13.2833 2.85931 14.4083 3.72598 15.375L2.37598 16.575C1.79264 15.9417 1.34264 15.2333 1.02598 14.45C0.725977 13.6667 0.575977 12.85 0.575977 12C0.575977 11.15 0.725977 10.3333 1.02598 9.55C1.34264 8.76667 1.79264 8.05833 2.37598 7.425L3.72598 8.625Z" fill="black"/>
</g>
<defs>
<clipPath id="clip0_3207_20179">
<rect width="24" height="24" fill="white"/>
</clipPath>
</defs>
</svg>
