<svg width="24" height="24" viewBox="0 0 24 24" fill="none" xmlns="http://www.w3.org/2000/svg">
<g clip-path="url(#clip0_3207_20191)">
<rect width="24" height="24" fill="white"/>
<path d="M3.00049 16.7L7.57549 19.6L12.0005 16.7L16.4255 19.6L21.0005 16.7V18.35L16.4255 21.25L12.0005 18.35L7.57549 21.25L3.00049 18.35V16.7ZM3.00049 2.75L7.57549 5.65L12.0005 2.75L16.4255 5.65L21.0005 2.75V4.4L16.4255 7.3L12.0005 4.4L7.57549 7.3L3.00049 4.4V2.75ZM3.00049 9.7L7.57549 12.625L12.0005 9.7L16.4255 12.625L21.0005 9.7V11.35L16.4255 14.3L12.0005 11.35L7.57549 14.3L3.00049 11.35V9.7Z" fill="black"/>
</g>
<defs>
<clipPath id="clip0_3207_20191">
<rect width="24" height="24" fill="white"/>
</clipPath>
</defs>
</svg>
