<svg width="24" height="24" viewBox="0 0 24 24" fill="none" xmlns="http://www.w3.org/2000/svg">
<g clip-path="url(#clip0_3207_20187)">
<rect width="24" height="24" fill="white"/>
<path d="M3.00049 17.775L7.57549 20.675L12.0005 17.775L16.4255 20.675L21.0005 17.775V18.35L16.4255 21.25L12.0005 18.35L7.57549 21.25L3.00049 18.35V17.775ZM3.00049 2.75L7.57549 5.65L12.0005 2.75L16.4255 5.65L21.0005 2.75V3.325L16.4255 6.225L12.0005 3.325L7.57549 6.225L3.00049 3.325V2.75ZM3.00049 10.25L7.57549 13.15L12.0005 10.25L16.4255 13.15L21.0005 10.25V10.825L16.4255 13.725L12.0005 10.825L7.57549 13.725L3.00049 10.825V10.25Z" fill="black"/>
</g>
<defs>
<clipPath id="clip0_3207_20187">
<rect width="24" height="24" fill="white"/>
</clipPath>
</defs>
</svg>
