<svg width="24" height="24" viewBox="0 0 24 24" fill="none" xmlns="http://www.w3.org/2000/svg">
<g clip-path="url(#clip0_3207_20175)">
<rect width="24" height="24" fill="white"/>
<path d="M3.00098 17.225L7.57598 20.125L12.001 17.225L16.426 20.125L21.001 17.225V18.35L16.426 21.25L12.001 18.35L7.57598 21.25L3.00098 18.35V17.225ZM3.00098 2.75L7.57598 5.65L12.001 2.75L16.426 5.65L21.001 2.75V3.875L16.426 6.775L12.001 3.875L7.57598 6.775L3.00098 3.875V2.75ZM3.00098 9.975L7.57598 12.9L12.001 9.975L16.426 12.9L21.001 9.975V11.1L16.426 14L12.001 11.1L7.57598 14L3.00098 11.1V9.975Z" fill="black"/>
</g>
<defs>
<clipPath id="clip0_3207_20175">
<rect width="24" height="24" fill="white"/>
</clipPath>
</defs>
</svg>
