<svg width="24" height="24" viewBox="0 0 24 24" fill="none" xmlns="http://www.w3.org/2000/svg">
<g clip-path="url(#clip0_3207_20177)">
<rect width="24" height="24" fill="white"/>
<path d="M3.00098 16.7L7.57598 19.6L12.001 16.7L16.426 19.6L21.001 16.7V18.35L16.426 21.25L12.001 18.35L7.57598 21.25L3.00098 18.35V16.7ZM3.00098 2.75L7.57598 5.65L12.001 2.75L16.426 5.65L21.001 2.75V4.4L16.426 7.3L12.001 4.4L7.57598 7.3L3.00098 4.4V2.75ZM3.00098 9.7L7.57598 12.625L12.001 9.7L16.426 12.625L21.001 9.7V11.35L16.426 14.3L12.001 11.35L7.57598 14.3L3.00098 11.35V9.7Z" fill="black"/>
</g>
<defs>
<clipPath id="clip0_3207_20177">
<rect width="24" height="24" fill="white"/>
</clipPath>
</defs>
</svg>
