<svg width="24" height="24" viewBox="0 0 24 24" fill="none" xmlns="http://www.w3.org/2000/svg">
<g clip-path="url(#clip0_3196_4175)">
<rect width="24" height="24" fill="white"/>
<path d="M9.67549 14.65H7.02549L6.07549 17H1.60049L2.95049 12L1.60049 7H6.07549L7.02549 9.35H9.67549L8.40049 2H12.9755L15.6505 9.35H19.5505C20.6672 9.35 21.5172 9.58333 22.1005 10.05C22.7005 10.5167 23.0005 11.1667 23.0005 12C23.0005 12.8333 22.7005 13.4833 22.1005 13.95C21.5172 14.4167 20.6672 14.65 19.5505 14.65H15.6505L12.9755 22H8.40049L9.67549 14.65ZM12.0005 20.675L14.6755 13.325H19.5505C20.2505 13.325 20.7672 13.2167 21.1005 13C21.4505 12.7667 21.6255 12.4333 21.6255 12C21.6255 11.5667 21.4505 11.2417 21.1005 11.025C20.7672 10.7917 20.2505 10.675 19.5505 10.675H14.6755L12.0005 3.325H10.0005L11.3005 10.675H6.10049L5.15049 8.325H3.37549L4.40049 12L3.37549 15.675H5.15049L6.10049 13.325H11.3005L10.0005 20.675H12.0005Z" fill="black"/>
</g>
<defs>
<clipPath id="clip0_3196_4175">
<rect width="24" height="24" fill="white"/>
</clipPath>
</defs>
</svg>
