<svg width="24" height="24" viewBox="0 0 24 24" fill="none" xmlns="http://www.w3.org/2000/svg">
<g clip-path="url(#clip0_3196_4173)">
<rect width="24" height="24" fill="white"/>
<path d="M9.85049 14.325H6.42549L5.40049 17H1.60049L2.95049 12L1.60049 7H5.40049L6.42549 9.675H9.85049L8.52549 2H12.5505L15.3755 9.675H19.8755C20.8922 9.675 21.6672 9.88333 22.2005 10.3C22.7338 10.7 23.0005 11.2667 23.0005 12C23.0005 12.7333 22.7338 13.3083 22.2005 13.725C21.6672 14.125 20.8922 14.325 19.8755 14.325H15.3755L12.5505 22H8.52549L9.85049 14.325ZM11.9005 21.1L14.7255 13.425H19.8755C20.5922 13.425 21.1338 13.3 21.5005 13.05C21.8838 12.8 22.0755 12.45 22.0755 12C22.0755 11.55 21.8838 11.2 21.5005 10.95C21.1338 10.7 20.5922 10.575 19.8755 10.575H14.7255L11.9005 2.9H9.65049L10.9755 10.575H5.80049L4.77549 7.9H2.80049L3.92549 12L2.80049 16.1H4.77549L5.80049 13.425H10.9755L9.65049 21.1H11.9005Z" fill="black"/>
</g>
<defs>
<clipPath id="clip0_3196_4173">
<rect width="24" height="24" fill="white"/>
</clipPath>
</defs>
</svg>
