<svg width="24" height="24" viewBox="0 0 24 24" fill="none" xmlns="http://www.w3.org/2000/svg">
<g clip-path="url(#clip0_3194_3295)">
<rect width="24" height="24" fill="white"/>
<path d="M3.175 18.675C2.55833 18.675 2.04167 18.4667 1.625 18.05C1.20833 17.6167 1 17.1 1 16.5V5H17.75C18.2167 5 18.6417 5.125 19.025 5.375C19.4083 5.625 19.725 5.975 19.975 6.425L23 11.725V18.675H20.775L20.05 16.575H4.55L3.8 18.675H3.175ZM7 16.5H17.775L17.175 18.675H7.55L7 16.5ZM10.4 13.075V15.5H13.6V13.075H16V9.925H13.6V7.5H10.4V9.925H8V13.075H10.4ZM5.75 20.475C5.33333 20.475 4.95 20.3833 4.6 20.2C4.26667 20 4 19.7333 3.8 19.4C3.6 19.05 3.5 18.6667 3.5 18.25C3.5 17.8333 3.6 17.4583 3.8 17.125C4 16.775 4.26667 16.5083 4.6 16.325C4.95 16.125 5.33333 16.025 5.75 16.025C6.16667 16.025 6.54167 16.125 6.875 16.325C7.225 16.5083 7.5 16.775 7.7 17.125C7.9 17.4583 8 17.8333 8 18.25C8 18.6667 7.9 19.05 7.7 19.4C7.5 19.7333 7.225 20 6.875 20.2C6.54167 20.3833 6.16667 20.475 5.75 20.475ZM5.75 19.65C6.13333 19.65 6.45833 19.5167 6.725 19.25C6.99167 18.9667 7.125 18.6333 7.125 18.25C7.125 17.8667 6.99167 17.5417 6.725 17.275C6.45833 16.9917 6.13333 16.85 5.75 16.85C5.36667 16.85 5.04167 16.9917 4.775 17.275C4.50833 17.5417 4.375 17.8667 4.375 18.25C4.375 18.6333 4.50833 18.9667 4.775 19.25C5.04167 19.5167 5.36667 19.65 5.75 19.65ZM18.925 20.475C18.5083 20.475 18.125 20.3833 17.775 20.2C17.4417 20 17.175 19.7333 16.975 19.4C16.775 19.05 16.675 18.6667 16.675 18.25C16.675 17.8333 16.775 17.4583 16.975 17.125C17.175 16.775 17.4417 16.5083 17.775 16.325C18.125 16.125 18.5083 16.025 18.925 16.025C19.325 16.025 19.6917 16.125 20.025 16.325C20.375 16.5083 20.65 16.775 20.85 17.125C21.0667 17.4583 21.175 17.8333 21.175 18.25C21.175 18.6667 21.0667 19.05 20.85 19.4C20.65 19.7333 20.375 20 20.025 20.2C19.6917 20.3833 19.325 20.475 18.925 20.475ZM18.925 19.65C19.3083 19.65 19.6333 19.5167 19.9 19.25C20.1667 18.9667 20.3 18.6333 20.3 18.25C20.3 17.8667 20.1583 17.5417 19.875 17.275C19.6083 16.9917 19.2917 16.85 18.925 16.85C18.5417 16.85 18.2083 16.9917 17.925 17.275C17.6583 17.5417 17.525 17.8667 17.525 18.25C17.525 18.6333 17.6583 18.9667 17.925 19.25C18.2083 19.5167 18.5417 19.65 18.925 19.65Z" fill="black"/>
</g>
<defs>
<clipPath id="clip0_3194_3295">
<rect width="24" height="24" fill="white"/>
</clipPath>
</defs>
</svg>
