<svg width="24" height="24" viewBox="0 0 24 24" fill="none" xmlns="http://www.w3.org/2000/svg">
<g clip-path="url(#clip0_3194_3291)">
<rect width="24" height="24" fill="white"/>
<path d="M3.50049 18.5C2.80049 18.5 2.20882 18.2583 1.72549 17.775C1.24216 17.2917 1.00049 16.7 1.00049 16V5H17.5005C18.1338 5 18.7338 5.15833 19.3005 5.475C19.8672 5.79167 20.3088 6.225 20.6255 6.775L23.0005 11V18.5H19.5255L19.2755 15.425H19.5005V11.875L17.8505 8.675C17.8005 8.59167 17.7255 8.525 17.6255 8.475C17.5422 8.425 17.4588 8.4 17.3755 8.4H4.50049V15.25C4.50049 15.2667 4.50049 15.2833 4.50049 15.3C4.51716 15.3 4.53382 15.3 4.55049 15.3H4.97549V18.5H3.50049ZM8.47549 15.1H15.6005L15.8505 18.5H8.47549V15.1ZM9.10049 10.45H10.5505V8.925H13.3005V10.45H14.7505V13.05H13.3005V14.55H10.5505V13.05H9.10049V10.45ZM6.90049 20.5C6.26716 20.5 5.67549 20.3417 5.12549 20.025C4.59216 19.7083 4.16716 19.2833 3.85049 18.75C3.53382 18.2 3.37549 17.6083 3.37549 16.975C3.37549 16.3417 3.53382 15.7583 3.85049 15.225C4.16716 14.675 4.59216 14.2417 5.12549 13.925C5.67549 13.6083 6.26716 13.45 6.90049 13.45C7.53382 13.45 8.11716 13.6083 8.65049 13.925C9.20049 14.2417 9.63382 14.675 9.95049 15.225C10.2672 15.7583 10.4255 16.3417 10.4255 16.975C10.4255 17.6083 10.2672 18.2 9.95049 18.75C9.63382 19.2833 9.20049 19.7083 8.65049 20.025C8.11716 20.3417 7.53382 20.5 6.90049 20.5ZM6.90049 17.975C7.18382 17.975 7.41716 17.875 7.60049 17.675C7.80049 17.475 7.90049 17.2417 7.90049 16.975C7.90049 16.6917 7.80049 16.4583 7.60049 16.275C7.41716 16.075 7.18382 15.975 6.90049 15.975C6.63382 15.975 6.40049 16.075 6.20049 16.275C6.00049 16.4583 5.90049 16.6917 5.90049 16.975C5.90049 17.2417 6.00049 17.475 6.20049 17.675C6.40049 17.875 6.63382 17.975 6.90049 17.975ZM17.8505 20.5C17.2005 20.5 16.6005 20.35 16.0505 20.05C15.5172 19.7333 15.0922 19.3083 14.7755 18.775C14.4755 18.225 14.3255 17.625 14.3255 16.975C14.3255 16.325 14.4755 15.7333 14.7755 15.2C15.0922 14.65 15.5172 14.225 16.0505 13.925C16.6005 13.6083 17.2005 13.45 17.8505 13.45C18.5005 13.45 19.0922 13.6083 19.6255 13.925C20.1755 14.225 20.6005 14.65 20.9005 15.2C21.2172 15.7333 21.3755 16.325 21.3755 16.975C21.3755 17.625 21.2172 18.225 20.9005 18.775C20.6005 19.3083 20.1755 19.7333 19.6255 20.05C19.0922 20.35 18.5005 20.5 17.8505 20.5ZM17.8505 17.975C18.1338 17.975 18.3672 17.875 18.5505 17.675C18.7505 17.475 18.8505 17.2417 18.8505 16.975C18.8505 16.6917 18.7505 16.4583 18.5505 16.275C18.3672 16.075 18.1338 15.975 17.8505 15.975C17.5838 15.975 17.3505 16.075 17.1505 16.275C16.9505 16.4583 16.8505 16.6917 16.8505 16.975C16.8505 17.2417 16.9505 17.475 17.1505 17.675C17.3505 17.875 17.5838 17.975 17.8505 17.975Z" fill="black"/>
</g>
<defs>
<clipPath id="clip0_3194_3291">
<rect width="24" height="24" fill="white"/>
</clipPath>
</defs>
</svg>
