<svg width="24" height="24" viewBox="0 0 24 24" fill="none" xmlns="http://www.w3.org/2000/svg">
<g clip-path="url(#clip0_3194_3343)">
<rect width="24" height="24" fill="white"/>
<path d="M0.975488 6.675H3.82549L5.67549 9.725H10.1005L7.60049 3H10.7005L14.7255 9.725H19.7005C20.5672 9.725 21.2505 9.88333 21.7505 10.2C22.2505 10.5 22.5005 10.9167 22.5005 11.45C22.5005 11.9833 22.2505 12.4083 21.7505 12.725C21.2505 13.025 20.5672 13.175 19.7005 13.175H6.27549L2.85049 11.875L0.975488 6.675ZM11.3005 11.05H11.9005H13.4505C13.5005 11.05 13.5338 11.05 13.5505 11.05C13.5838 11.05 13.6255 11.05 13.6755 11.05C13.6255 11.05 13.5838 11.05 13.5505 11.05C13.5338 11.05 13.5005 11.05 13.4505 11.05H12.7255H12.3005H12.0755H12.3755H11.5255H11.4005H11.1755H11.3005ZM23.0005 16.725V19.975H1.00049V16.725H23.0005Z" fill="black"/>
</g>
<defs>
<clipPath id="clip0_3194_3343">
<rect width="24" height="24" fill="white"/>
</clipPath>
</defs>
</svg>
