<svg width="24" height="24" viewBox="0 0 24 24" fill="none" xmlns="http://www.w3.org/2000/svg">
<g clip-path="url(#clip0_3194_2758)">
<rect width="24" height="24" fill="white"/>
<path d="M20.1755 2.225H20.8005L23.5505 9.025H23.0005L22.2005 7H18.7755L17.9505 9.025H17.4005L20.1755 2.225ZM22.0005 6.525L20.4755 2.675L18.9505 6.525H22.0005ZM2.25049 15.225C2.25049 14.1583 2.33382 13.075 2.50049 11.975C2.68382 10.875 2.95049 9.775 3.30049 8.675C3.46716 8.175 3.75049 7.775 4.15049 7.475C4.56716 7.15833 5.02549 7 5.52549 7H12.9755C13.4755 7 13.9255 7.15833 14.3255 7.475C14.7422 7.775 15.0338 8.175 15.2005 8.675C15.5505 9.775 15.8088 10.875 15.9755 11.975C16.1588 13.075 16.2505 14.1583 16.2505 15.225V21H13.7505V19.5H4.75049V21H2.25049V15.225ZM4.27549 20.525V19.025H14.2255V20.525H15.7505V15.225C15.7505 13.125 15.4088 10.9917 14.7255 8.825C14.6088 8.425 14.3838 8.1 14.0505 7.85C13.7172 7.6 13.3588 7.475 12.9755 7.475H5.52549C5.14216 7.475 4.78382 7.6 4.45049 7.85C4.11716 8.1 3.89216 8.425 3.77549 8.825C3.09216 10.9917 2.75049 13.125 2.75049 15.225V20.525H4.27549ZM2.72549 11.85H15.7755V12.325H2.72549V11.85ZM5.62549 16.475C5.22549 16.475 4.88382 16.3417 4.60049 16.075C4.33382 15.7917 4.20049 15.4583 4.20049 15.075C4.20049 14.6917 4.33382 14.3667 4.60049 14.1C4.88382 13.8167 5.22549 13.675 5.62549 13.675C6.02549 13.675 6.35882 13.8167 6.62549 14.1C6.90882 14.3667 7.05049 14.6917 7.05049 15.075C7.05049 15.4583 6.90882 15.7917 6.62549 16.075C6.35882 16.3417 6.02549 16.475 5.62549 16.475ZM5.62549 16.05C5.90882 16.05 6.14216 15.9583 6.32549 15.775C6.50882 15.575 6.60049 15.3417 6.60049 15.075C6.60049 14.7917 6.50882 14.5583 6.32549 14.375C6.14216 14.1917 5.90882 14.1 5.62549 14.1C5.35882 14.1 5.12549 14.1917 4.92549 14.375C4.74216 14.5583 4.65049 14.7917 4.65049 15.075C4.65049 15.3417 4.74216 15.575 4.92549 15.775C5.12549 15.9583 5.35882 16.05 5.62549 16.05ZM12.8755 16.475C12.4755 16.475 12.1338 16.3417 11.8505 16.075C11.5838 15.7917 11.4505 15.4583 11.4505 15.075C11.4505 14.6917 11.5838 14.3667 11.8505 14.1C12.1338 13.8167 12.4755 13.675 12.8755 13.675C13.2755 13.675 13.6088 13.8167 13.8755 14.1C14.1588 14.3667 14.3005 14.6917 14.3005 15.075C14.3005 15.4583 14.1588 15.7917 13.8755 16.075C13.6088 16.3417 13.2755 16.475 12.8755 16.475ZM12.8755 16.05C13.1588 16.05 13.3922 15.9583 13.5755 15.775C13.7588 15.575 13.8505 15.3417 13.8505 15.075C13.8505 14.7917 13.7588 14.5583 13.5755 14.375C13.3922 14.1917 13.1588 14.1 12.8755 14.1C12.6088 14.1 12.3755 14.1917 12.1755 14.375C11.9922 14.5583 11.9005 14.7917 11.9005 15.075C11.9005 15.3417 11.9922 15.575 12.1755 15.775C12.3755 15.9583 12.6088 16.05 12.8755 16.05ZM0.650488 12.325V11.85H2.92549V11.95L2.67549 12.075V12.35L2.60049 12.425L2.57549 12.325H0.650488ZM15.9005 12.425L15.5505 12.35L15.8755 12.15L15.6255 11.95V11.85H17.8505V12.325H15.9255L15.9005 12.425Z" fill="black"/>
</g>
<defs>
<clipPath id="clip0_3194_2758">
<rect width="24" height="24" fill="white"/>
</clipPath>
</defs>
</svg>
