<svg width="24" height="24" viewBox="0 0 24 24" fill="none" xmlns="http://www.w3.org/2000/svg">
<g clip-path="url(#clip0_3194_2963)">
<rect width="24" height="24" fill="white"/>
<path d="M3 13.875C3 12.1583 3.05833 10.6417 3.175 9.325C3.30833 7.99167 3.51667 6.84167 3.8 5.875C4.08333 4.94167 4.55833 4.23333 5.225 3.75C5.89167 3.25 6.70833 3 7.675 3H16.325C17.2917 3 18.1083 3.25 18.775 3.75C19.4417 4.23333 19.9167 4.94167 20.2 5.875C20.4833 6.825 20.6833 7.95833 20.8 9.275C20.9333 10.5917 21 12.125 21 13.875V21H18.5V19.175H5.5V21H3V13.875ZM18.475 10.025C18.3917 8.70833 18.2083 7.51667 17.925 6.45C17.825 6.08333 17.6333 5.8 17.35 5.6C17.0833 5.4 16.7333 5.3 16.3 5.3H7.7C7.26667 5.3 6.90833 5.4 6.625 5.6C6.35833 5.8 6.175 6.08333 6.075 6.45C5.79167 7.46667 5.6 8.65833 5.5 10.025H18.475ZM7.125 15.725C7.60833 15.725 8.00833 15.5667 8.325 15.25C8.64167 14.9333 8.8 14.5417 8.8 14.075C8.8 13.5917 8.64167 13.1917 8.325 12.875C8.00833 12.5583 7.60833 12.4 7.125 12.4C6.65833 12.4 6.25833 12.5583 5.925 12.875C5.60833 13.1917 5.45 13.5917 5.45 14.075C5.45 14.5417 5.60833 14.9333 5.925 15.25C6.25833 15.5667 6.65833 15.725 7.125 15.725ZM16.875 15.725C17.3583 15.725 17.7583 15.5667 18.075 15.25C18.3917 14.9333 18.55 14.5417 18.55 14.075C18.55 13.5917 18.3917 13.1917 18.075 12.875C17.7583 12.5583 17.3583 12.4 16.875 12.4C16.4083 12.4 16.0083 12.5583 15.675 12.875C15.3583 13.1917 15.2 13.5917 15.2 14.075C15.2 14.5417 15.3583 14.9333 15.675 15.25C16.0083 15.5667 16.4083 15.725 16.875 15.725ZM1 10.225V8.35H4V8.9V9.3V9.75V10.2V10.85L1 10.225ZM20 10.35V9.825V9.375V8.95V8.35H23V10.225L20 10.85V10.35Z" fill="black"/>
</g>
<defs>
<clipPath id="clip0_3194_2963">
<rect width="24" height="24" fill="white"/>
</clipPath>
</defs>
</svg>
