<svg width="24" height="24" viewBox="0 0 24 24" fill="none" xmlns="http://www.w3.org/2000/svg">
<g clip-path="url(#clip0_3194_2961)">
<rect width="24" height="24" fill="white"/>
<path d="M3 13C3 11.7333 3.05833 10.4833 3.175 9.25C3.30833 8.01667 3.5 6.975 3.75 6.125C4.03333 5.14167 4.50833 4.375 5.175 3.825C5.85833 3.275 6.7 3 7.7 3H16.3C17.3 3 18.1333 3.275 18.8 3.825C19.4833 4.375 19.9667 5.14167 20.25 6.125C20.5 6.975 20.6833 8.01667 20.8 9.25C20.9333 10.4833 21 11.7333 21 13V21H19V19H5V21H3V13ZM19.65 10L19.15 13C19.15 11.8 19.0917 10.6583 18.975 9.575C18.875 8.475 18.7083 7.46667 18.475 6.55C18.3417 6 18.0833 5.575 17.7 5.275C17.3333 4.95833 16.8667 4.8 16.3 4.8H7.7C7.13333 4.8 6.65833 4.95833 6.275 5.275C5.90833 5.575 5.65833 6 5.525 6.55C5.29167 7.46667 5.11667 8.475 5 9.575C4.9 10.6583 4.85 11.8 4.85 13L4.35 10H19.65ZM6.75 15.4C7.16667 15.4 7.51667 15.2583 7.8 14.975C8.1 14.675 8.25 14.3167 8.25 13.9C8.25 13.4667 8.10833 13.1083 7.825 12.825C7.54167 12.5417 7.18333 12.4 6.75 12.4C6.33333 12.4 5.975 12.5417 5.675 12.825C5.39167 13.1083 5.25 13.4667 5.25 13.9C5.25 14.3167 5.39167 14.675 5.675 14.975C5.975 15.2583 6.33333 15.4 6.75 15.4ZM17.25 15.4C17.6667 15.4 18.0167 15.2583 18.3 14.975C18.6 14.675 18.75 14.3167 18.75 13.9C18.75 13.4667 18.6083 13.1083 18.325 12.825C18.0417 12.5417 17.6833 12.4 17.25 12.4C16.8333 12.4 16.475 12.5417 16.175 12.825C15.8917 13.1083 15.75 13.4667 15.75 13.9C15.75 14.3167 15.8917 14.675 16.175 14.975C16.475 15.2583 16.8333 15.4 17.25 15.4ZM20 9H23V10.55L20 11.175V9ZM1 10.55V9H4V11.175L1 10.55Z" fill="black"/>
</g>
<defs>
<clipPath id="clip0_3194_2961">
<rect width="24" height="24" fill="white"/>
</clipPath>
</defs>
</svg>
