<svg width="24" height="24" viewBox="0 0 24 24" fill="none" xmlns="http://www.w3.org/2000/svg">
<g clip-path="url(#clip0_3194_2949)">
<rect width="24" height="24" fill="white"/>
<path d="M3.00049 13.875C3.00049 12.1583 3.05882 10.6417 3.17549 9.325C3.30882 7.99167 3.51716 6.84167 3.80049 5.875C4.08382 4.94167 4.55882 4.23333 5.22549 3.75C5.89216 3.25 6.70882 3 7.67549 3H16.3255C17.2922 3 18.1088 3.25 18.7755 3.75C19.4422 4.23333 19.9172 4.94167 20.2005 5.875C20.4838 6.825 20.6838 7.95833 20.8005 9.275C20.9338 10.5917 21.0005 12.125 21.0005 13.875V21H18.6505V19.275H5.35049V21H3.00049V13.875ZM6.35049 17H6.75049H16.8755H17.2005H18.6505V13.875C18.6505 12.2583 18.5922 10.8417 18.4755 9.625C18.3588 8.40833 18.1755 7.35 17.9255 6.45C17.8255 6.08333 17.6338 5.8 17.3505 5.6C17.0838 5.4 16.7422 5.3 16.3255 5.3H7.67549C7.25882 5.3 6.90882 5.4 6.62549 5.6C6.35882 5.8 6.17549 6.08333 6.07549 6.45C5.82549 7.35 5.64216 8.40833 5.52549 9.625C5.40882 10.8417 5.35049 12.2583 5.35049 13.875V17H6.35049ZM1.00049 10.575V8.675H4.00049V9.25V9.65V10.075V10.55V11.2L1.00049 10.575ZM20.0005 10.675V10.15V9.725V9.275V8.675H23.0005V10.575L20.0005 11.2V10.675ZM8.27549 15.125C7.82549 15.125 7.45049 14.9833 7.15049 14.7C6.85049 14.4 6.70049 14.025 6.70049 13.575C6.70049 13.1417 6.85049 12.7833 7.15049 12.5C7.45049 12.2 7.82549 12.05 8.27549 12.05C8.72549 12.05 9.10049 12.2 9.40049 12.5C9.70049 12.7833 9.85049 13.1417 9.85049 13.575C9.85049 14.025 9.70049 14.4 9.40049 14.7C9.10049 14.9833 8.72549 15.125 8.27549 15.125ZM8.22549 13.175C8.35882 13.175 8.45049 13.175 8.50049 13.175C8.56716 13.175 8.66716 13.175 8.80049 13.175C8.66716 13.175 8.56716 13.175 8.50049 13.175C8.45049 13.175 8.35882 13.175 8.22549 13.175C8.10882 13.175 8.01716 13.175 7.95049 13.175C7.88382 13.175 7.79216 13.175 7.67549 13.175C7.79216 13.175 7.88382 13.175 7.95049 13.175C8.01716 13.175 8.10882 13.175 8.22549 13.175ZM15.7255 15.125C15.2755 15.125 14.9005 14.9833 14.6005 14.7C14.3005 14.4 14.1505 14.025 14.1505 13.575C14.1505 13.1417 14.3005 12.7833 14.6005 12.5C14.9005 12.2 15.2755 12.05 15.7255 12.05C16.1755 12.05 16.5505 12.2 16.8505 12.5C17.1505 12.7833 17.3005 13.1417 17.3005 13.575C17.3005 14.025 17.1505 14.4 16.8505 14.7C16.5505 14.9833 16.1755 15.125 15.7255 15.125ZM15.7755 13.1C15.9255 13.1 16.0255 13.1 16.0755 13.1C16.1422 13.1 16.2505 13.1 16.4005 13.1C16.2505 13.1 16.1422 13.1 16.0755 13.1C16.0255 13.1 15.9255 13.1 15.7755 13.1C15.6255 13.1 15.5172 13.1 15.4505 13.1C15.3838 13.1 15.2838 13.1 15.1505 13.1C15.2838 13.1 15.3838 13.1 15.4505 13.1C15.5172 13.1 15.6255 13.1 15.7755 13.1ZM4.45049 8.675H19.5505V10.95H4.45049V8.675Z" fill="black"/>
</g>
<defs>
<clipPath id="clip0_3194_2949">
<rect width="24" height="24" fill="white"/>
</clipPath>
</defs>
</svg>
