<svg width="24" height="24" viewBox="0 0 24 24" fill="none" xmlns="http://www.w3.org/2000/svg">
<g clip-path="url(#clip0_3194_2714)">
<rect width="24" height="24" fill="white"/>
<path d="M3.00049 13.15C3.00049 11.7833 3.10882 10.425 3.32549 9.075C3.55882 7.70833 3.89216 6.36667 4.32549 5.05C4.52549 4.43333 4.88382 3.94167 5.40049 3.575C5.93382 3.19167 6.51716 3 7.15049 3H16.8505C17.4838 3 18.0588 3.19167 18.5755 3.575C19.1088 3.94167 19.4755 4.43333 19.6755 5.05C20.1088 6.36667 20.4338 7.70833 20.6505 9.075C20.8838 10.425 21.0005 11.7833 21.0005 13.15V21H18.0005V19H6.00049V21H3.00049V13.15ZM5.50049 20.525V18.525H18.5005V20.525H20.5005V13.15C20.5005 10.5 20.0672 7.85 19.2005 5.2C19.0338 4.7 18.7338 4.29167 18.3005 3.975C17.8672 3.64167 17.3838 3.475 16.8505 3.475H7.15049C6.61716 3.475 6.13382 3.64167 5.70049 3.975C5.26716 4.29167 4.96716 4.7 4.80049 5.2C3.93382 7.85 3.50049 10.5 3.50049 13.15V20.525H5.50049ZM1.00049 9.725V7.775H3.77549V8.25H1.47549V9.4L3.42549 10.075L3.40049 10.575L1.00049 9.725ZM20.5755 10.075L22.5255 9.4V8.25H20.2255V7.775H23.0005V9.725L20.6005 10.575L20.5755 10.075ZM6.75049 15.725C6.26716 15.725 5.85049 15.5583 5.50049 15.225C5.16716 14.8917 5.00049 14.4833 5.00049 14C5.00049 13.5167 5.16716 13.1083 5.50049 12.775C5.85049 12.4417 6.26716 12.275 6.75049 12.275C7.23382 12.275 7.64216 12.4417 7.97549 12.775C8.32549 13.1083 8.50049 13.5167 8.50049 14C8.50049 14.4833 8.32549 14.8917 7.97549 15.225C7.64216 15.5583 7.23382 15.725 6.75049 15.725ZM6.75049 15.275C7.11716 15.275 7.41716 15.1583 7.65049 14.925C7.90049 14.675 8.02549 14.3667 8.02549 14C8.02549 13.6333 7.90049 13.3333 7.65049 13.1C7.41716 12.85 7.11716 12.725 6.75049 12.725C6.38382 12.725 6.07549 12.85 5.82549 13.1C5.59216 13.3333 5.47549 13.6333 5.47549 14C5.47549 14.3667 5.59216 14.675 5.82549 14.925C6.07549 15.1583 6.38382 15.275 6.75049 15.275ZM17.2505 15.725C16.7672 15.725 16.3505 15.5583 16.0005 15.225C15.6672 14.8917 15.5005 14.4833 15.5005 14C15.5005 13.5167 15.6672 13.1083 16.0005 12.775C16.3505 12.4417 16.7672 12.275 17.2505 12.275C17.7338 12.275 18.1422 12.4417 18.4755 12.775C18.8255 13.1083 19.0005 13.5167 19.0005 14C19.0005 14.4833 18.8255 14.8917 18.4755 15.225C18.1422 15.5583 17.7338 15.725 17.2505 15.725ZM17.2505 15.275C17.6172 15.275 17.9172 15.1583 18.1505 14.925C18.4005 14.675 18.5255 14.3667 18.5255 14C18.5255 13.6333 18.4005 13.3333 18.1505 13.1C17.9172 12.85 17.6172 12.725 17.2505 12.725C16.8838 12.725 16.5755 12.85 16.3255 13.1C16.0922 13.3333 15.9755 13.6333 15.9755 14C15.9755 14.3667 16.0922 14.675 16.3255 14.925C16.5755 15.1583 16.8838 15.275 17.2505 15.275ZM3.60049 10H20.4005V10.475H3.60049V10Z" fill="black"/>
</g>
<defs>
<clipPath id="clip0_3194_2714">
<rect width="24" height="24" fill="white"/>
</clipPath>
</defs>
</svg>
