<svg width="24" height="24" viewBox="0 0 24 24" fill="none" xmlns="http://www.w3.org/2000/svg">
<g clip-path="url(#clip0_3194_3089)">
<rect width="24" height="24" fill="white"/>
<path d="M5.65 7.85L5.3 5.95H3.775V4.675H8.25V5.7L6.6 5.9L6.875 7.35H16.9L16.45 4.75H14.6C14.4333 4.75 14.2833 4.7 14.15 4.6C14.0333 4.48333 13.975 4.325 13.975 4.125C13.975 3.95833 14.0333 3.81667 14.15 3.7C14.2833 3.56667 14.4333 3.5 14.6 3.5H17.525L19.625 15.375C19.675 15.5917 19.6333 15.775 19.5 15.925C19.3667 16.075 19.2083 16.1583 19.025 16.175C18.875 16.175 18.7333 16.125 18.6 16.025C18.4833 15.925 18.4083 15.8 18.375 15.65L17.125 8.6H13.6L12.3 16.2H5.075C4.94167 16.2 4.825 16.1833 4.725 16.15C4.625 16.1 4.54167 16.025 4.475 15.925C4.34167 15.7583 4.29167 15.5583 4.325 15.325L4.975 11.5L6.225 11.75L5.675 14.95H11.225L12.3 8.6H6.825L6.3 11.325L5.05 11L5.65 7.85ZM5 20.5C4.08333 20.5 3.24167 20.2833 2.475 19.85C1.70833 19.4 1.1 18.7917 0.65 18.025C0.216667 17.2583 0 16.4167 0 15.5C0 14.5833 0.216667 13.7417 0.65 12.975C1.1 12.2083 1.70833 11.6083 2.475 11.175C3.24167 10.725 4.08333 10.5 5 10.5C5.91667 10.5 6.75833 10.725 7.525 11.175C8.29167 11.6083 8.89167 12.2083 9.325 12.975C9.775 13.7417 10 14.5833 10 15.5C10 16.4167 9.775 17.2583 9.325 18.025C8.89167 18.7917 8.29167 19.4 7.525 19.85C6.75833 20.2833 5.91667 20.5 5 20.5ZM5 19.25C5.68333 19.25 6.30833 19.0833 6.875 18.75C7.44167 18.4167 7.89167 17.9667 8.225 17.4C8.55833 16.8167 8.725 16.1833 8.725 15.5C8.725 14.8167 8.55833 14.1917 8.225 13.625C7.89167 13.0417 7.44167 12.5833 6.875 12.25C6.30833 11.9167 5.68333 11.75 5 11.75C4.31667 11.75 3.69167 11.9167 3.125 12.25C2.55833 12.5833 2.10833 13.0417 1.775 13.625C1.44167 14.1917 1.275 14.8167 1.275 15.5C1.275 16.1833 1.44167 16.8167 1.775 17.4C2.10833 17.9667 2.55833 18.4167 3.125 18.75C3.69167 19.0833 4.31667 19.25 5 19.25ZM19 20.5C18.0833 20.5 17.2417 20.2833 16.475 19.85C15.7083 19.4 15.1 18.7917 14.65 18.025C14.2167 17.2583 14 16.4167 14 15.5C14 14.5833 14.2167 13.7417 14.65 12.975C15.1 12.2083 15.7083 11.6083 16.475 11.175C17.2417 10.725 18.0833 10.5 19 10.5C19.9167 10.5 20.7583 10.725 21.525 11.175C22.2917 11.6083 22.8917 12.2083 23.325 12.975C23.775 13.7417 24 14.5833 24 15.5C24 16.4167 23.775 17.2583 23.325 18.025C22.8917 18.7917 22.2917 19.4 21.525 19.85C20.7583 20.2833 19.9167 20.5 19 20.5ZM19 19.25C19.6833 19.25 20.3083 19.0833 20.875 18.75C21.4417 18.4167 21.8917 17.9667 22.225 17.4C22.5583 16.8167 22.725 16.175 22.725 15.475C22.725 14.7917 22.5583 14.1667 22.225 13.6C21.8917 13.0333 21.4417 12.5833 20.875 12.25C20.3083 11.9167 19.6833 11.75 19 11.75C18.3167 11.75 17.6917 11.9167 17.125 12.25C16.5583 12.5833 16.1083 13.0333 15.775 13.6C15.4417 14.1667 15.275 14.7917 15.275 15.475C15.275 16.175 15.4417 16.8167 15.775 17.4C16.1083 17.9667 16.5583 18.4167 17.125 18.75C17.6917 19.0833 18.3167 19.25 19 19.25Z" fill="black"/>
</g>
<defs>
<clipPath id="clip0_3194_3089">
<rect width="24" height="24" fill="white"/>
</clipPath>
</defs>
</svg>
