<svg width="24" height="24" viewBox="0 0 24 24" fill="none" xmlns="http://www.w3.org/2000/svg">
<g clip-path="url(#clip0_3194_3075)">
<rect width="24" height="24" fill="white"/>
<path d="M5.65049 7.85L5.30049 5.95H3.77549V4.675H8.25049V5.7L6.60049 5.9L6.87549 7.35H16.9005L16.4505 4.75H14.6005C14.4338 4.75 14.2838 4.7 14.1505 4.6C14.0338 4.48333 13.9755 4.325 13.9755 4.125C13.9755 3.95833 14.0338 3.81667 14.1505 3.7C14.2838 3.56667 14.4338 3.5 14.6005 3.5H17.5255L19.6255 15.375C19.6755 15.5917 19.6338 15.775 19.5005 15.925C19.3672 16.075 19.2088 16.1583 19.0255 16.175C18.8755 16.175 18.7338 16.125 18.6005 16.025C18.4838 15.925 18.4088 15.8 18.3755 15.65L17.1255 8.6H13.6005L12.3005 16.2H5.07549C4.94216 16.2 4.82549 16.1833 4.72549 16.15C4.62549 16.1 4.54216 16.025 4.47549 15.925C4.34216 15.7583 4.29216 15.5583 4.32549 15.325L4.97549 11.5L6.22549 11.75L5.67549 14.95H11.2255L12.3005 8.6H6.82549L6.30049 11.325L5.05049 11L5.65049 7.85ZM5.00049 20.5C4.08382 20.5 3.24216 20.2833 2.47549 19.85C1.70882 19.4 1.10049 18.7917 0.650488 18.025C0.217155 17.2583 0.000488281 16.4167 0.000488281 15.5C0.000488281 14.5833 0.217155 13.7417 0.650488 12.975C1.10049 12.2083 1.70882 11.6083 2.47549 11.175C3.24216 10.725 4.08382 10.5 5.00049 10.5C5.91716 10.5 6.75882 10.725 7.52549 11.175C8.29216 11.6083 8.89216 12.2083 9.32549 12.975C9.77549 13.7417 10.0005 14.5833 10.0005 15.5C10.0005 16.4167 9.77549 17.2583 9.32549 18.025C8.89216 18.7917 8.29216 19.4 7.52549 19.85C6.75882 20.2833 5.91716 20.5 5.00049 20.5ZM5.00049 19.25C5.68382 19.25 6.30882 19.0833 6.87549 18.75C7.44216 18.4167 7.89216 17.9667 8.22549 17.4C8.55882 16.8167 8.72549 16.1833 8.72549 15.5C8.72549 14.8167 8.55882 14.1917 8.22549 13.625C7.89216 13.0417 7.44216 12.5833 6.87549 12.25C6.30882 11.9167 5.68382 11.75 5.00049 11.75C4.31716 11.75 3.69216 11.9167 3.12549 12.25C2.55882 12.5833 2.10882 13.0417 1.77549 13.625C1.44216 14.1917 1.27549 14.8167 1.27549 15.5C1.27549 16.1833 1.44216 16.8167 1.77549 17.4C2.10882 17.9667 2.55882 18.4167 3.12549 18.75C3.69216 19.0833 4.31716 19.25 5.00049 19.25ZM19.0005 20.5C18.0838 20.5 17.2422 20.2833 16.4755 19.85C15.7088 19.4 15.1005 18.7917 14.6505 18.025C14.2172 17.2583 14.0005 16.4167 14.0005 15.5C14.0005 14.5833 14.2172 13.7417 14.6505 12.975C15.1005 12.2083 15.7088 11.6083 16.4755 11.175C17.2422 10.725 18.0838 10.5 19.0005 10.5C19.9172 10.5 20.7588 10.725 21.5255 11.175C22.2922 11.6083 22.8922 12.2083 23.3255 12.975C23.7755 13.7417 24.0005 14.5833 24.0005 15.5C24.0005 16.4167 23.7755 17.2583 23.3255 18.025C22.8922 18.7917 22.2922 19.4 21.5255 19.85C20.7588 20.2833 19.9172 20.5 19.0005 20.5ZM19.0005 19.25C19.6838 19.25 20.3088 19.0833 20.8755 18.75C21.4422 18.4167 21.8922 17.9667 22.2255 17.4C22.5588 16.8167 22.7255 16.175 22.7255 15.475C22.7255 14.7917 22.5588 14.1667 22.2255 13.6C21.8922 13.0333 21.4422 12.5833 20.8755 12.25C20.3088 11.9167 19.6838 11.75 19.0005 11.75C18.3172 11.75 17.6922 11.9167 17.1255 12.25C16.5588 12.5833 16.1088 13.0333 15.7755 13.6C15.4422 14.1667 15.2755 14.7917 15.2755 15.475C15.2755 16.175 15.4422 16.8167 15.7755 17.4C16.1088 17.9667 16.5588 18.4167 17.1255 18.75C17.6922 19.0833 18.3172 19.25 19.0005 19.25Z" fill="black"/>
</g>
<defs>
<clipPath id="clip0_3194_3075">
<rect width="24" height="24" fill="white"/>
</clipPath>
</defs>
</svg>
