<svg width="24" height="24" viewBox="0 0 24 24" fill="none" xmlns="http://www.w3.org/2000/svg">
<g clip-path="url(#clip0_3194_3077)">
<rect width="24" height="24" fill="white"/>
<path d="M5.40049 8.15L5.00049 6.2H3.52549V4.525H8.47549V5.825L6.72549 6.125L7.00049 7.525H16.7255L16.3255 5.15H14.7505C14.5338 5.15 14.3422 5.075 14.1755 4.925C14.0255 4.775 13.9505 4.575 13.9505 4.325C13.9505 4.10833 14.0255 3.91667 14.1755 3.75C14.3422 3.58333 14.5338 3.5 14.7505 3.5H17.7255L19.8255 15.35C19.8755 15.6333 19.8172 15.875 19.6505 16.075C19.4505 16.275 19.2338 16.375 19.0005 16.375C18.8172 16.375 18.6422 16.3083 18.4755 16.175C18.3255 16.0583 18.2255 15.8917 18.1755 15.675L17.0255 9.175H13.7255L12.4755 16.45H5.12549C4.94216 16.45 4.77549 16.4167 4.62549 16.35C4.49215 16.2833 4.38382 16.1917 4.30049 16.075C4.11716 15.8417 4.05049 15.5667 4.10049 15.25L4.70049 11.8L6.32549 12.125L5.87549 14.8H11.0505L12.0255 9.175H6.90049L6.42549 11.6L4.80049 11.15L5.40049 8.15ZM5.00049 20.5C4.08382 20.5 3.24216 20.2833 2.47549 19.85C1.70882 19.4 1.10049 18.7917 0.650488 18.025C0.217155 17.2583 0.000488281 16.4167 0.000488281 15.5C0.000488281 14.5833 0.217155 13.7417 0.650488 12.975C1.10049 12.2083 1.70882 11.6083 2.47549 11.175C3.24216 10.725 4.08382 10.5 5.00049 10.5C5.91716 10.5 6.75882 10.725 7.52549 11.175C8.29216 11.6083 8.89216 12.2083 9.32549 12.975C9.77549 13.7417 10.0005 14.5833 10.0005 15.5C10.0005 16.4167 9.77549 17.2583 9.32549 18.025C8.89216 18.7917 8.29216 19.4 7.52549 19.85C6.75882 20.2833 5.91716 20.5 5.00049 20.5ZM5.00049 18.875C5.60049 18.875 6.15049 18.725 6.65049 18.425C7.16716 18.125 7.57549 17.7167 7.87549 17.2C8.17549 16.6833 8.32549 16.1167 8.32549 15.5C8.32549 14.8833 8.17549 14.3167 7.87549 13.8C7.57549 13.2833 7.16716 12.875 6.65049 12.575C6.15049 12.275 5.60049 12.125 5.00049 12.125C4.40049 12.125 3.84216 12.275 3.32549 12.575C2.82549 12.875 2.42549 13.2833 2.12549 13.8C1.82549 14.3167 1.67549 14.8833 1.67549 15.5C1.67549 16.1167 1.82549 16.6833 2.12549 17.2C2.42549 17.7167 2.82549 18.125 3.32549 18.425C3.84216 18.725 4.40049 18.875 5.00049 18.875ZM19.0005 20.5C18.0838 20.5 17.2422 20.2833 16.4755 19.85C15.7088 19.4 15.1005 18.7917 14.6505 18.025C14.2172 17.2583 14.0005 16.4167 14.0005 15.5C14.0005 14.5833 14.2172 13.7417 14.6505 12.975C15.1005 12.2083 15.7088 11.6083 16.4755 11.175C17.2422 10.725 18.0838 10.5 19.0005 10.5C19.9172 10.5 20.7588 10.725 21.5255 11.175C22.2922 11.6083 22.8922 12.2083 23.3255 12.975C23.7755 13.7417 24.0005 14.5833 24.0005 15.5C24.0005 16.4167 23.7755 17.2583 23.3255 18.025C22.8922 18.7917 22.2922 19.4 21.5255 19.85C20.7588 20.2833 19.9172 20.5 19.0005 20.5ZM19.0005 18.875C19.6005 18.875 20.1505 18.725 20.6505 18.425C21.1672 18.125 21.5755 17.7167 21.8755 17.2C22.1755 16.6667 22.3255 16.0917 22.3255 15.475C22.3255 14.8583 22.1755 14.3 21.8755 13.8C21.5755 13.2833 21.1672 12.875 20.6505 12.575C20.1505 12.275 19.6005 12.125 19.0005 12.125C18.4005 12.125 17.8422 12.275 17.3255 12.575C16.8255 12.875 16.4255 13.2833 16.1255 13.8C15.8255 14.3 15.6755 14.8583 15.6755 15.475C15.6755 16.0917 15.8255 16.6667 16.1255 17.2C16.4255 17.7167 16.8255 18.125 17.3255 18.425C17.8422 18.725 18.4005 18.875 19.0005 18.875Z" fill="black"/>
</g>
<defs>
<clipPath id="clip0_3194_3077">
<rect width="24" height="24" fill="white"/>
</clipPath>
</defs>
</svg>
