<svg width="24" height="24" viewBox="0 0 24 24" fill="none" xmlns="http://www.w3.org/2000/svg">
<g clip-path="url(#clip0_3194_3095)">
<rect width="24" height="24" fill="white"/>
<path d="M4.975 8.55L4.7 6.975H3.325V4.5H8.7V6.55L7.25 6.875L7.425 7.875H16.35L16.025 5.975H14.6C14.25 5.975 13.9583 5.85833 13.725 5.625C13.4917 5.39167 13.375 5.1 13.375 4.75C13.375 4.4 13.4917 4.10833 13.725 3.875C13.9583 3.625 14.25 3.5 14.6 3.5H18.125L19.625 12.05C19.475 12.0833 19.2833 12.1333 19.05 12.2C18.9167 12.2667 18.7167 12.325 18.45 12.375C18.2167 12.425 18.0083 12.475 17.825 12.525C17.6083 12.575 17.3917 12.625 17.175 12.675L16.775 10.325H13.85L12.725 16.675H8.25C8.23333 16.575 8.225 16.5 8.225 16.45C8.225 16.3833 8.21667 16.3 8.2 16.2C8.18333 16.0333 8.15833 15.875 8.125 15.725V15.05L8.225 14.925L8.35 14.175H10.625L11.3 10.325H7.2L6.775 12.7L4.35 12.375L4.975 8.55ZM5.05 20.5C4.11667 20.5 3.26667 20.2833 2.5 19.85C1.73333 19.4 1.125 18.7917 0.675 18.025C0.225 17.2583 0 16.4083 0 15.475C0 14.5583 0.225 13.725 0.675 12.975C1.125 12.2083 1.73333 11.6083 2.5 11.175C3.26667 10.725 4.11667 10.5 5.05 10.5C5.96667 10.5 6.8 10.725 7.55 11.175C8.3 11.6083 8.89167 12.2083 9.325 12.975C9.775 13.725 10 14.5583 10 15.475C10 16.4083 9.775 17.2583 9.325 18.025C8.89167 18.7917 8.3 19.4 7.55 19.85C6.8 20.2833 5.96667 20.5 5.05 20.5ZM5 18.15C5.48333 18.15 5.925 18.0333 6.325 17.8C6.74167 17.5667 7.06667 17.25 7.3 16.85C7.53333 16.4333 7.65 15.975 7.65 15.475C7.65 14.9917 7.53333 14.55 7.3 14.15C7.06667 13.7333 6.74167 13.4083 6.325 13.175C5.925 12.925 5.48333 12.8 5 12.8C4.51667 12.8 4.075 12.925 3.675 13.175C3.275 13.4083 2.95 13.7333 2.7 14.15C2.46667 14.55 2.35 14.9917 2.35 15.475C2.35 15.975 2.46667 16.4333 2.7 16.85C2.95 17.25 3.275 17.5667 3.675 17.8C4.075 18.0333 4.51667 18.15 5 18.15ZM19.05 20.5C18.1167 20.5 17.2667 20.2833 16.5 19.85C15.7333 19.4 15.125 18.7917 14.675 18.025C14.225 17.2583 14 16.4083 14 15.475C14 14.5583 14.225 13.725 14.675 12.975C15.125 12.2083 15.7333 11.6083 16.5 11.175C17.2667 10.725 18.1167 10.5 19.05 10.5C19.9667 10.5 20.8 10.725 21.55 11.175C22.3 11.6083 22.8917 12.2083 23.325 12.975C23.775 13.725 24 14.5583 24 15.475C24 16.4083 23.775 17.2583 23.325 18.025C22.8917 18.7917 22.3 19.4 21.55 19.85C20.8 20.2833 19.9667 20.5 19.05 20.5ZM19 18.15C19.4833 18.15 19.925 18.0333 20.325 17.8C20.725 17.5667 21.0417 17.25 21.275 16.85C21.525 16.4333 21.65 15.975 21.65 15.475C21.65 14.9917 21.525 14.55 21.275 14.15C21.0417 13.75 20.7167 13.4333 20.3 13.2C19.9 12.95 19.4667 12.825 19 12.825C18.5167 12.825 18.075 12.9417 17.675 13.175C17.275 13.4083 16.95 13.7333 16.7 14.15C16.4667 14.55 16.35 14.9917 16.35 15.475C16.35 15.975 16.4667 16.4333 16.7 16.85C16.95 17.25 17.275 17.5667 17.675 17.8C18.075 18.0333 18.5167 18.15 19 18.15Z" fill="black"/>
</g>
<defs>
<clipPath id="clip0_3194_3095">
<rect width="24" height="24" fill="white"/>
</clipPath>
</defs>
</svg>
