<svg width="24" height="24" viewBox="0 0 24 24" fill="none" xmlns="http://www.w3.org/2000/svg">
<g clip-path="url(#clip0_3194_3083)">
<rect width="24" height="24" fill="white"/>
<path d="M4.85049 9.2L4.57549 7.575H3.00049V4.5H9.10049V7.125L7.65049 7.425L7.82549 8.45H16.2755L15.9005 6.55H14.4755C14.0755 6.55 13.7255 6.4 13.4255 6.1C13.1422 5.8 13.0005 5.44167 13.0005 5.025C13.0005 4.60833 13.1422 4.25 13.4255 3.95C13.7255 3.65 14.0755 3.5 14.4755 3.5H18.5005L20.1505 12.725C19.9172 12.775 19.6755 12.825 19.4255 12.875C19.2755 12.925 19.0338 12.9833 18.7005 13.05C18.3672 13.1167 18.1172 13.175 17.9505 13.225C17.7005 13.275 17.4505 13.3333 17.2005 13.4L16.8505 11.475H13.7755L12.8755 16.525H7.80049C7.80049 16.475 7.80049 16.4333 7.80049 16.4C7.80049 16.3667 7.80049 16.325 7.80049 16.275C7.80049 16.1917 7.80049 16.1167 7.80049 16.05V15.375V14.725V13.5H10.3255L10.6755 11.475H7.47549L7.05049 13.8L4.20049 13.05L4.85049 9.2ZM5.05049 20.5C4.11716 20.5 3.26716 20.2833 2.50049 19.85C1.73382 19.4 1.12549 18.7917 0.675488 18.025C0.225488 17.2583 0.000488281 16.4083 0.000488281 15.475C0.000488281 14.5583 0.225488 13.725 0.675488 12.975C1.12549 12.2083 1.73382 11.6083 2.50049 11.175C3.26716 10.725 4.11716 10.5 5.05049 10.5C5.96715 10.5 6.80049 10.725 7.55049 11.175C8.30049 11.6083 8.89216 12.2083 9.32549 12.975C9.77549 13.725 10.0005 14.5583 10.0005 15.475C10.0005 16.4083 9.77549 17.2583 9.32549 18.025C8.89216 18.7917 8.30049 19.4 7.55049 19.85C6.80049 20.2833 5.96715 20.5 5.05049 20.5ZM5.02549 17.3C5.34216 17.3 5.63382 17.225 5.90049 17.075C6.18382 16.9083 6.40049 16.6917 6.55049 16.425C6.71716 16.1417 6.80049 15.8333 6.80049 15.5C6.80049 15.1667 6.71716 14.8667 6.55049 14.6C6.40049 14.3167 6.18382 14.1 5.90049 13.95C5.63382 13.7833 5.34216 13.7 5.02549 13.7C4.70882 13.7 4.40882 13.7833 4.12549 13.95C3.85882 14.1 3.64216 14.3167 3.47549 14.6C3.32549 14.8667 3.25049 15.1667 3.25049 15.5C3.25049 15.8333 3.32549 16.1417 3.47549 16.425C3.64216 16.6917 3.85882 16.9083 4.12549 17.075C4.40882 17.225 4.70882 17.3 5.02549 17.3ZM19.0505 20.5C18.1172 20.5 17.2672 20.2833 16.5005 19.85C15.7338 19.4 15.1255 18.7917 14.6755 18.025C14.2255 17.2583 14.0005 16.4083 14.0005 15.475C14.0005 14.5583 14.2255 13.725 14.6755 12.975C15.1255 12.2083 15.7338 11.6083 16.5005 11.175C17.2672 10.725 18.1172 10.5 19.0505 10.5C19.9672 10.5 20.8005 10.725 21.5505 11.175C22.3005 11.6083 22.8922 12.2083 23.3255 12.975C23.7755 13.725 24.0005 14.5583 24.0005 15.475C24.0005 16.4083 23.7755 17.2583 23.3255 18.025C22.8922 18.7917 22.3005 19.4 21.5505 19.85C20.8005 20.2833 19.9672 20.5 19.0505 20.5ZM19.0005 17.275C19.3172 17.275 19.6088 17.2 19.8755 17.05C20.1422 16.8833 20.3505 16.6667 20.5005 16.4C20.6672 16.1333 20.7505 15.8333 20.7505 15.5C20.7505 15.1667 20.6672 14.8667 20.5005 14.6C20.3505 14.3333 20.1422 14.125 19.8755 13.975C19.6088 13.8083 19.3172 13.725 19.0005 13.725C18.6838 13.725 18.3922 13.8083 18.1255 13.975C17.8588 14.125 17.6422 14.3333 17.4755 14.6C17.3255 14.8667 17.2505 15.1667 17.2505 15.5C17.2505 15.8333 17.3255 16.1333 17.4755 16.4C17.6422 16.6667 17.8588 16.8833 18.1255 17.05C18.3922 17.2 18.6838 17.275 19.0005 17.275Z" fill="black"/>
</g>
<defs>
<clipPath id="clip0_3194_3083">
<rect width="24" height="24" fill="white"/>
</clipPath>
</defs>
</svg>
