<svg width="24" height="24" viewBox="0 0 24 24" fill="none" xmlns="http://www.w3.org/2000/svg">
<g clip-path="url(#clip0_3194_3073)">
<rect width="24" height="24" fill="white"/>
<path d="M5.92549 7.525L5.57549 5.725H4.05049V4.85H8.02549V5.6L6.50049 5.7L6.77549 7.175H17.0755L16.6005 4.375H14.4505C14.3172 4.375 14.2088 4.33333 14.1255 4.25C14.0588 4.16667 14.0255 4.06667 14.0255 3.95C14.0255 3.81667 14.0672 3.70833 14.1505 3.625C14.2338 3.54167 14.3338 3.5 14.4505 3.5H17.3505L19.4255 15.425C19.4588 15.5417 19.4422 15.6583 19.3755 15.775C19.2755 15.8917 19.1672 15.95 19.0505 15.95C18.9338 15.9667 18.8255 15.9417 18.7255 15.875C18.6588 15.8083 18.6005 15.7167 18.5505 15.6L17.2255 8.05H13.5005L12.1505 15.975H5.05049C4.95049 15.975 4.86716 15.9583 4.80049 15.925C4.73382 15.8917 4.67549 15.85 4.62549 15.8C4.54216 15.7 4.50882 15.5667 4.52549 15.4L5.27549 11.175L6.12549 11.375L5.50049 15.1H11.3755L12.6005 8.05H6.72549L6.20049 11.05L5.32549 10.825L5.92549 7.525ZM5.00049 20.5C4.08382 20.5 3.24216 20.2833 2.47549 19.85C1.70882 19.4 1.10049 18.7917 0.650488 18.025C0.217155 17.2583 0.000488281 16.4167 0.000488281 15.5C0.000488281 14.5833 0.217155 13.7417 0.650488 12.975C1.10049 12.2083 1.70882 11.6083 2.47549 11.175C3.24216 10.725 4.08382 10.5 5.00049 10.5C5.91716 10.5 6.75882 10.725 7.52549 11.175C8.29216 11.6083 8.89216 12.2083 9.32549 12.975C9.77549 13.7417 10.0005 14.5833 10.0005 15.5C10.0005 16.4167 9.77549 17.2583 9.32549 18.025C8.89216 18.7917 8.29216 19.4 7.52549 19.85C6.75882 20.2833 5.91716 20.5 5.00049 20.5ZM5.00049 19.65C5.75049 19.65 6.43382 19.4667 7.05049 19.1C7.68382 18.7167 8.18382 18.2083 8.55049 17.575C8.91716 16.9417 9.10049 16.25 9.10049 15.5C9.10049 14.75 8.91716 14.0583 8.55049 13.425C8.18382 12.7917 7.68382 12.2917 7.05049 11.925C6.43382 11.5417 5.75049 11.35 5.00049 11.35C4.25049 11.35 3.55882 11.5417 2.92549 11.925C2.30882 12.2917 1.81716 12.7917 1.45049 13.425C1.08382 14.0583 0.900488 14.75 0.900488 15.5C0.900488 16.25 1.08382 16.9417 1.45049 17.575C1.81716 18.2083 2.30882 18.7167 2.92549 19.1C3.55882 19.4667 4.25049 19.65 5.00049 19.65ZM19.0005 20.5C18.0838 20.5 17.2422 20.2833 16.4755 19.85C15.7088 19.4 15.1005 18.7917 14.6505 18.025C14.2172 17.2583 14.0005 16.4167 14.0005 15.5C14.0005 14.5833 14.2172 13.7417 14.6505 12.975C15.1005 12.2083 15.7088 11.6083 16.4755 11.175C17.2422 10.725 18.0838 10.5 19.0005 10.5C19.9172 10.5 20.7588 10.725 21.5255 11.175C22.2922 11.6083 22.8922 12.2083 23.3255 12.975C23.7755 13.7417 24.0005 14.5833 24.0005 15.5C24.0005 16.4167 23.7755 17.2583 23.3255 18.025C22.8922 18.7917 22.2922 19.4 21.5255 19.85C20.7588 20.2833 19.9172 20.5 19.0005 20.5ZM19.0005 19.65C19.7505 19.65 20.4338 19.4667 21.0505 19.1C21.6838 18.7333 22.1838 18.2333 22.5505 17.6C22.9172 16.95 23.1005 16.25 23.1005 15.5C23.1005 14.7333 22.9172 14.0333 22.5505 13.4C22.1838 12.7667 21.6838 12.2667 21.0505 11.9C20.4338 11.5333 19.7505 11.35 19.0005 11.35C18.2505 11.35 17.5588 11.5333 16.9255 11.9C16.3088 12.2667 15.8172 12.7667 15.4505 13.4C15.0838 14.0333 14.9005 14.7333 14.9005 15.5C14.9005 16.25 15.0838 16.95 15.4505 17.6C15.8172 18.2333 16.3088 18.7333 16.9255 19.1C17.5588 19.4667 18.2505 19.65 19.0005 19.65Z" fill="black"/>
</g>
<defs>
<clipPath id="clip0_3194_3073">
<rect width="24" height="24" fill="white"/>
</clipPath>
</defs>
</svg>
