<svg width="24" height="24" viewBox="0 0 24 24" fill="none" xmlns="http://www.w3.org/2000/svg">
<g clip-path="url(#clip0_3385_8112)">
<rect width="24" height="24" fill="white"/>
<path d="M3.5 6.25C3.5 5.51667 3.675 4.84167 4.025 4.225C4.375 3.60833 4.85833 3.125 5.475 2.775C6.09167 2.425 6.76667 2.25 7.5 2.25H16.5C17.2333 2.25 17.9083 2.425 18.525 2.775C19.1417 3.125 19.625 3.60833 19.975 4.225C20.325 4.84167 20.5 5.51667 20.5 6.25V21H18.5V19H5.5V21H3.5V6.25ZM20 10.95V6.25C20 5.6 19.8417 5.00833 19.525 4.475C19.225 3.925 18.8 3.5 18.25 3.2C17.7167 2.88333 17.1333 2.725 16.5 2.725H7.5C6.86667 2.725 6.275 2.88333 5.725 3.2C5.19167 3.5 4.76667 3.925 4.45 4.475C4.15 5.00833 4 5.6 4 6.25V10.95H20ZM7 15.9C7.43333 15.9 7.79167 15.7583 8.075 15.475C8.35833 15.175 8.5 14.8167 8.5 14.4C8.5 13.9667 8.35833 13.6083 8.075 13.325C7.79167 13.0417 7.43333 12.9 7 12.9C6.58333 12.9 6.225 13.0417 5.925 13.325C5.64167 13.6083 5.5 13.9667 5.5 14.4C5.5 14.8167 5.64167 15.175 5.925 15.475C6.225 15.7583 6.58333 15.9 7 15.9ZM17 15.9C17.4333 15.9 17.7917 15.7583 18.075 15.475C18.3583 15.175 18.5 14.8167 18.5 14.4C18.5 13.9667 18.3583 13.6083 18.075 13.325C17.7917 13.0417 17.4333 12.9 17 12.9C16.5833 12.9 16.225 13.0417 15.925 13.325C15.6417 13.6083 15.5 13.9667 15.5 14.4C15.5 14.8167 15.6417 15.175 15.925 15.475C16.225 15.7583 16.5833 15.9 17 15.9Z" fill="black"/>
</g>
<defs>
<clipPath id="clip0_3385_8112">
<rect width="24" height="24" fill="white"/>
</clipPath>
</defs>
</svg>
