<svg width="24" height="24" viewBox="0 0 24 24" fill="none" xmlns="http://www.w3.org/2000/svg">
<g clip-path="url(#clip0_3385_8104)">
<rect width="24" height="24" fill="white"/>
<path d="M3.50049 12.25C3.50049 10.7667 3.51715 9.55833 3.55049 8.625C3.58382 7.69167 3.65049 6.78333 3.75049 5.9C3.81716 5.18333 4.02549 4.55 4.37549 4C4.74216 3.45 5.20049 3.025 5.75049 2.725C6.30049 2.40833 6.90049 2.25 7.55049 2.25H16.4505C17.1005 2.25 17.7005 2.40833 18.2505 2.725C18.8005 3.025 19.2505 3.45 19.6005 4C19.9672 4.55 20.1838 5.18333 20.2505 5.9C20.3505 6.78333 20.4172 7.69167 20.4505 8.625C20.4838 9.55833 20.5005 10.7667 20.5005 12.25V21H18.6505V19.5H5.35049V21H3.50049V12.25ZM5.85049 17.7H7.52549H16.3005H17.9005H18.6505V12.25C18.6505 9.63333 18.5755 7.58333 18.4255 6.1C18.3588 5.5 18.1422 5.00833 17.7755 4.625C17.4088 4.24167 16.9672 4.05 16.4505 4.05H7.55049C7.03382 4.05 6.59216 4.24167 6.22549 4.625C5.85882 5.00833 5.64216 5.5 5.57549 6.1C5.49216 6.95 5.43382 7.825 5.40049 8.725C5.36716 9.625 5.35049 10.8 5.35049 12.25V17.7H5.85049ZM4.77549 10.15H19.3005V11.95H4.77549V10.15ZM8.22549 15.95C7.84216 15.95 7.51716 15.8167 7.25049 15.55C6.98382 15.2833 6.85049 14.9583 6.85049 14.575C6.85049 14.1917 6.98382 13.8667 7.25049 13.6C7.51716 13.3333 7.84216 13.2 8.22549 13.2C8.60882 13.2 8.93382 13.3333 9.20049 13.6C9.46716 13.8667 9.60049 14.1917 9.60049 14.575C9.60049 14.9583 9.46716 15.2833 9.20049 15.55C8.93382 15.8167 8.60882 15.95 8.22549 15.95ZM8.22549 15.075C8.34216 15.075 8.42549 15.075 8.47549 15.075C8.52549 15.075 8.60882 15.075 8.72549 15.075C8.60882 15.075 8.52549 15.075 8.47549 15.075C8.42549 15.075 8.34216 15.075 8.22549 15.075C8.10882 15.075 8.02549 15.075 7.97549 15.075C7.92549 15.075 7.84216 15.075 7.72549 15.075C7.84216 15.075 7.92549 15.075 7.97549 15.075C8.02549 15.075 8.10882 15.075 8.22549 15.075ZM15.7755 15.95C15.3922 15.95 15.0672 15.8167 14.8005 15.55C14.5338 15.2833 14.4005 14.9583 14.4005 14.575C14.4005 14.1917 14.5338 13.8667 14.8005 13.6C15.0672 13.3333 15.3922 13.2 15.7755 13.2C16.1588 13.2 16.4838 13.3333 16.7505 13.6C17.0172 13.8667 17.1505 14.1917 17.1505 14.575C17.1505 14.9583 17.0172 15.2833 16.7505 15.55C16.4838 15.8167 16.1588 15.95 15.7755 15.95ZM15.7755 15.05C15.8755 15.05 15.9505 15.05 16.0005 15.05C16.0672 15.05 16.1505 15.05 16.2505 15.05C16.1505 15.05 16.0672 15.05 16.0005 15.05C15.9505 15.05 15.8755 15.05 15.7755 15.05C15.6755 15.05 15.5922 15.05 15.5255 15.05C15.4755 15.05 15.4005 15.05 15.3005 15.05C15.4005 15.05 15.4755 15.05 15.5255 15.05C15.5922 15.05 15.6755 15.05 15.7755 15.05Z" fill="black"/>
</g>
<defs>
<clipPath id="clip0_3385_8104">
<rect width="24" height="24" fill="white"/>
</clipPath>
</defs>
</svg>
