<svg width="24" height="24" viewBox="0 0 24 24" fill="none" xmlns="http://www.w3.org/2000/svg">
<g clip-path="url(#clip0_3385_8112)">
<rect width="24" height="24" fill="white"/>
<path d="M3.5 11.75C3.5 10.6 3.525 9.55833 3.575 8.625C3.625 7.69167 3.7 6.49167 3.8 5.025C3.86667 4.24167 4.18333 3.58333 4.75 3.05C5.33333 2.51667 6.01667 2.25 6.8 2.25H17.2C17.9833 2.25 18.6583 2.51667 19.225 3.05C19.8083 3.58333 20.1333 4.24167 20.2 5.025C20.3 6.49167 20.375 7.69167 20.425 8.625C20.475 9.55833 20.5 10.6 20.5 11.75V21H18.5V19H5.5V21H3.5V11.75ZM3.75 11H20.25L20 11.75C20 10.6 19.975 9.56667 19.925 8.65C19.875 7.71667 19.8 6.525 19.7 5.075C19.65 4.425 19.3833 3.875 18.9 3.425C18.4167 2.95833 17.85 2.725 17.2 2.725H6.8C6.15 2.725 5.58333 2.95833 5.1 3.425C4.61667 3.875 4.35 4.425 4.3 5.075C4.2 6.525 4.125 7.71667 4.075 8.65C4.025 9.56667 4 10.6 4 11.75L3.75 11ZM6.75 15.9C7.18333 15.9 7.54167 15.7583 7.825 15.475C8.10833 15.175 8.25 14.8167 8.25 14.4C8.25 13.9667 8.10833 13.6083 7.825 13.325C7.54167 13.0417 7.18333 12.9 6.75 12.9C6.33333 12.9 5.975 13.0417 5.675 13.325C5.39167 13.6083 5.25 13.9667 5.25 14.4C5.25 14.8167 5.39167 15.175 5.675 15.475C5.975 15.7583 6.33333 15.9 6.75 15.9ZM17.25 15.9C17.6833 15.9 18.0417 15.7583 18.325 15.475C18.6083 15.175 18.75 14.8167 18.75 14.4C18.75 13.9667 18.6083 13.6083 18.325 13.325C18.0417 13.0417 17.6833 12.9 17.25 12.9C16.8333 12.9 16.475 13.0417 16.175 13.325C15.8917 13.6083 15.75 13.9667 15.75 14.4C15.75 14.8167 15.8917 15.175 16.175 15.475C16.475 15.7583 16.8333 15.9 17.25 15.9Z" fill="black"/>
</g>
<defs>
<clipPath id="clip0_3385_8112">
<rect width="24" height="24" fill="white"/>
</clipPath>
</defs>
</svg>
