<svg width="24" height="24" viewBox="0 0 24 24" fill="none" xmlns="http://www.w3.org/2000/svg">
<g clip-path="url(#clip0_3385_8108)">
<rect width="24" height="24" fill="white"/>
<path d="M3.50049 6.25C3.50049 5.51667 3.67549 4.84167 4.02549 4.225C4.37549 3.60833 4.85882 3.125 5.47549 2.775C6.09216 2.425 6.76716 2.25 7.50049 2.25H16.5005C17.2338 2.25 17.9088 2.425 18.5255 2.775C19.1422 3.125 19.6255 3.60833 19.9755 4.225C20.3255 4.84167 20.5005 5.51667 20.5005 6.25V21H17.5255V19.525H6.47549V21H3.50049V6.25ZM7.62549 16.6H8.30049H15.3255H16.0755H17.5255V6.25C17.5255 6.05 17.4755 5.875 17.3755 5.725C17.2922 5.55833 17.1672 5.425 17.0005 5.325C16.8505 5.225 16.6838 5.175 16.5005 5.175H7.50049C7.31716 5.175 7.14216 5.225 6.97549 5.325C6.82549 5.425 6.70049 5.55833 6.60049 5.725C6.51715 5.875 6.47549 6.05 6.47549 6.25V16.6H7.62549ZM4.77549 8.275H19.3005V11.2H4.77549V8.275ZM9.22549 15.5C8.72549 15.5 8.30882 15.3417 7.97549 15.025C7.64216 14.7083 7.47549 14.3083 7.47549 13.825C7.47549 13.3417 7.64216 12.95 7.97549 12.65C8.30882 12.3333 8.71716 12.175 9.20049 12.175C9.70049 12.175 10.1088 12.3333 10.4255 12.65C10.7422 12.95 10.9005 13.3417 10.9005 13.825C10.9005 14.3083 10.7422 14.7083 10.4255 15.025C10.1255 15.3417 9.72549 15.5 9.22549 15.5ZM9.20049 14.475C9.35049 14.475 9.45882 14.475 9.52549 14.475C9.59216 14.475 9.70049 14.475 9.85049 14.475C9.70049 14.475 9.59216 14.475 9.52549 14.475C9.45882 14.475 9.35049 14.475 9.20049 14.475C9.05049 14.475 8.94216 14.475 8.87549 14.475C8.80882 14.475 8.70049 14.475 8.55049 14.475C8.70049 14.475 8.80882 14.475 8.87549 14.475C8.94216 14.475 9.05049 14.475 9.20049 14.475ZM14.8255 15.5C14.3255 15.5 13.9088 15.3417 13.5755 15.025C13.2588 14.7083 13.1005 14.3083 13.1005 13.825C13.1005 13.3417 13.2672 12.95 13.6005 12.65C13.9338 12.3333 14.3422 12.175 14.8255 12.175C15.3255 12.175 15.7338 12.3333 16.0505 12.65C16.3672 12.95 16.5255 13.3417 16.5255 13.825C16.5255 14.325 16.3672 14.7333 16.0505 15.05C15.7338 15.35 15.3255 15.5 14.8255 15.5ZM14.8255 14.525C14.9922 14.525 15.1172 14.525 15.2005 14.525C15.2838 14.525 15.4088 14.525 15.5755 14.525C15.4088 14.525 15.2838 14.525 15.2005 14.525C15.1172 14.525 14.9922 14.525 14.8255 14.525C14.6755 14.525 14.5588 14.525 14.4755 14.525C14.3922 14.525 14.2755 14.525 14.1255 14.525C14.2755 14.525 14.3922 14.525 14.4755 14.525C14.5588 14.525 14.6755 14.525 14.8255 14.525Z" fill="black"/>
</g>
<defs>
<clipPath id="clip0_3385_8108">
<rect width="24" height="24" fill="white"/>
</clipPath>
</defs>
</svg>
