<svg width="24" height="24" viewBox="0 0 24 24" fill="none" xmlns="http://www.w3.org/2000/svg">
<g clip-path="url(#clip0_3385_8116)">
<rect width="24" height="24" fill="white"/>
<path d="M3.5 6.25C3.5 5.51667 3.675 4.84167 4.025 4.225C4.375 3.60833 4.85833 3.125 5.475 2.775C6.09167 2.425 6.76667 2.25 7.5 2.25H16.5C17.2333 2.25 17.9083 2.425 18.525 2.775C19.1417 3.125 19.625 3.60833 19.975 4.225C20.325 4.84167 20.5 5.51667 20.5 6.25V21H18.5V19H5.5V21H3.5V6.25ZM19.075 10.95V6.25C19.075 5.76667 18.9583 5.325 18.725 4.925C18.5083 4.525 18.2 4.21667 17.8 4C17.4 3.76667 16.9667 3.65 16.5 3.65H7.5C7.03333 3.65 6.6 3.76667 6.2 4C5.8 4.21667 5.48333 4.525 5.25 4.925C5.03333 5.325 4.925 5.76667 4.925 6.25V10.95H19.075ZM7.175 15.9C7.60833 15.9 7.96667 15.7583 8.25 15.475C8.53333 15.175 8.675 14.8167 8.675 14.4C8.675 13.9667 8.53333 13.6083 8.25 13.325C7.96667 13.0417 7.60833 12.9 7.175 12.9C6.75833 12.9 6.4 13.0417 6.1 13.325C5.81667 13.6083 5.675 13.9667 5.675 14.4C5.675 14.8167 5.81667 15.175 6.1 15.475C6.4 15.7583 6.75833 15.9 7.175 15.9ZM16.825 15.9C17.2583 15.9 17.6167 15.7583 17.9 15.475C18.1833 15.175 18.325 14.8167 18.325 14.4C18.325 13.9667 18.1833 13.6083 17.9 13.325C17.6167 13.0417 17.2583 12.9 16.825 12.9C16.4083 12.9 16.05 13.0417 15.75 13.325C15.4667 13.6083 15.325 13.9667 15.325 14.4C15.325 14.8167 15.4667 15.175 15.75 15.475C16.05 15.7583 16.4083 15.9 16.825 15.9Z" fill="black"/>
</g>
<defs>
<clipPath id="clip0_3385_8116">
<rect width="24" height="24" fill="white"/>
</clipPath>
</defs>
</svg>
