<svg width="24" height="24" viewBox="0 0 24 24" fill="none" xmlns="http://www.w3.org/2000/svg">
<g clip-path="url(#clip0_3385_8120)">
<rect width="24" height="24" fill="white"/>
<path d="M3.5 6.25C3.5 5.51667 3.675 4.84167 4.025 4.225C4.375 3.60833 4.85833 3.125 5.475 2.775C6.09167 2.425 6.76667 2.25 7.5 2.25H16.5C17.2333 2.25 17.9083 2.425 18.525 2.775C19.1417 3.125 19.625 3.60833 19.975 4.225C20.325 4.84167 20.5 5.51667 20.5 6.25V21H17.975V19.175H6.025V21H3.5V6.25ZM18.05 10.65V6.25C18.05 5.95 17.9833 5.68333 17.85 5.45C17.7167 5.2 17.525 5.00833 17.275 4.875C17.0417 4.725 16.7833 4.65 16.5 4.65H7.5C7.21667 4.65 6.95 4.725 6.7 4.875C6.46667 5.00833 6.28333 5.2 6.15 5.45C6.01667 5.68333 5.95 5.95 5.95 6.25V10.65H18.05ZM7.625 16.15C8.10833 16.15 8.50833 15.9917 8.825 15.675C9.14167 15.3417 9.3 14.9417 9.3 14.475C9.3 14.0083 9.14167 13.6167 8.825 13.3C8.50833 12.9833 8.10833 12.825 7.625 12.825C7.15833 12.825 6.75833 12.9833 6.425 13.3C6.10833 13.6167 5.95 14.0083 5.95 14.475C5.95 14.9417 6.10833 15.3417 6.425 15.675C6.75833 15.9917 7.15833 16.15 7.625 16.15ZM16.375 16.15C16.8583 16.15 17.2583 15.9917 17.575 15.675C17.8917 15.3417 18.05 14.9417 18.05 14.475C18.05 14.0083 17.8917 13.6167 17.575 13.3C17.2583 12.9833 16.8583 12.825 16.375 12.825C15.9083 12.825 15.5083 12.9833 15.175 13.3C14.8583 13.6167 14.7 14.0083 14.7 14.475C14.7 14.9417 14.8583 15.3417 15.175 15.675C15.5083 15.9917 15.9083 16.15 16.375 16.15Z" fill="black"/>
</g>
<defs>
<clipPath id="clip0_3385_8120">
<rect width="24" height="24" fill="white"/>
</clipPath>
</defs>
</svg>
