<svg width="24" height="24" viewBox="0 0 24 24" fill="none" xmlns="http://www.w3.org/2000/svg">
<g clip-path="url(#clip0_3385_8124)">
<rect width="24" height="24" fill="white"/>
<path d="M3.5 6.25C3.5 5.51667 3.675 4.84167 4.025 4.225C4.375 3.60833 4.85833 3.125 5.475 2.775C6.09167 2.425 6.76667 2.25 7.5 2.25H16.5C17.2333 2.25 17.9083 2.425 18.525 2.775C19.1417 3.125 19.625 3.60833 19.975 4.225C20.325 4.84167 20.5 5.51667 20.5 6.25V21H16.95V19.5H7.05V21H3.5V6.25ZM16.95 10.05V6.25C16.95 6.16667 16.925 6.08333 16.875 6C16.8417 5.91667 16.7917 5.85833 16.725 5.825C16.6583 5.775 16.5833 5.75 16.5 5.75H7.5C7.41667 5.75 7.34167 5.775 7.275 5.825C7.20833 5.85833 7.15 5.91667 7.1 6C7.06667 6.08333 7.05 6.16667 7.05 6.25V10.05H16.95ZM8.375 16.65C8.94167 16.65 9.41667 16.4583 9.8 16.075C10.1833 15.6917 10.375 15.2167 10.375 14.65C10.375 14.0833 10.1833 13.6083 9.8 13.225C9.41667 12.8417 8.94167 12.65 8.375 12.65C7.80833 12.65 7.33333 12.8417 6.95 13.225C6.56667 13.6083 6.375 14.0833 6.375 14.65C6.375 15.2167 6.56667 15.6917 6.95 16.075C7.33333 16.4583 7.80833 16.65 8.375 16.65ZM15.625 16.65C16.1917 16.65 16.6667 16.4583 17.05 16.075C17.4333 15.6917 17.625 15.2167 17.625 14.65C17.625 14.0833 17.4333 13.6083 17.05 13.225C16.6667 12.8417 16.1917 12.65 15.625 12.65C15.0583 12.65 14.5833 12.8417 14.2 13.225C13.8167 13.6083 13.625 14.0833 13.625 14.65C13.625 15.2167 13.8167 15.6917 14.2 16.075C14.5833 16.4583 15.0583 16.65 15.625 16.65Z" fill="black"/>
</g>
<defs>
<clipPath id="clip0_3385_8124">
<rect width="24" height="24" fill="white"/>
</clipPath>
</defs>
</svg>
