<svg width="24" height="24" viewBox="0 0 24 24" fill="none" xmlns="http://www.w3.org/2000/svg">
<g clip-path="url(#clip0_3385_8110)">
<rect width="24" height="24" fill="white"/>
<path d="M3.50049 11.425C3.50049 10.325 3.51715 9.46667 3.55049 8.85C3.58382 8.21667 3.65882 7.275 3.77549 6.025C3.84216 5.325 4.05882 4.69167 4.42549 4.125C4.80882 3.54167 5.29216 3.08333 5.87549 2.75C6.45882 2.41667 7.09216 2.25 7.77549 2.25H16.2255C16.9088 2.25 17.5422 2.41667 18.1255 2.75C18.7088 3.08333 19.1838 3.54167 19.5505 4.125C19.9338 4.69167 20.1588 5.325 20.2255 6.025C20.3422 7.275 20.4172 8.21667 20.4505 8.85C20.4838 9.46667 20.5005 10.325 20.5005 11.425V21H17.0505V19.55H6.95049V21H3.50049V11.425ZM8.32549 16.15H8.62549H14.9255H15.3255H17.0505V11.425C17.0505 10.025 16.9588 8.225 16.7755 6.025C16.7588 5.89167 16.7005 5.8 16.6005 5.75C16.5172 5.68333 16.4338 5.65 16.3505 5.65H7.65049C7.56716 5.65 7.47549 5.68333 7.37549 5.75C7.29216 5.8 7.24216 5.89167 7.22549 6.025C7.15882 6.89167 7.09216 7.85833 7.02549 8.925C6.97549 9.975 6.95049 10.8083 6.95049 11.425V16.15H8.32549ZM4.77549 7.5H19.3005V10.9H4.77549V7.5ZM9.60049 15.325C9.06716 15.325 8.61716 15.1583 8.25049 14.825C7.90049 14.475 7.72549 14.0417 7.72549 13.525C7.72549 13.0083 7.90049 12.5833 8.25049 12.25C8.61716 11.9167 9.06716 11.75 9.60049 11.75C10.1505 11.75 10.5922 11.9167 10.9255 12.25C11.2588 12.5667 11.4255 12.9917 11.4255 13.525C11.4255 14.0583 11.2588 14.4917 10.9255 14.825C10.5922 15.1583 10.1505 15.325 9.60049 15.325ZM9.60049 14.225C9.76716 14.225 9.88382 14.225 9.95049 14.225C10.0338 14.225 10.1588 14.225 10.3255 14.225C10.1588 14.225 10.0338 14.225 9.95049 14.225C9.88382 14.225 9.76716 14.225 9.60049 14.225C9.43382 14.225 9.30882 14.225 9.22549 14.225C9.15882 14.225 9.04216 14.225 8.87549 14.225C9.04216 14.225 9.15882 14.225 9.22549 14.225C9.30882 14.225 9.43382 14.225 9.60049 14.225ZM14.4505 15.325C13.9172 15.325 13.4672 15.1583 13.1005 14.825C12.7505 14.475 12.5755 14.0417 12.5755 13.525C12.5755 13.0083 12.7505 12.5833 13.1005 12.25C13.4672 11.9167 13.9172 11.75 14.4505 11.75C15.0005 11.75 15.4422 11.9167 15.7755 12.25C16.1088 12.5667 16.2755 12.9917 16.2755 13.525C16.2755 14.0583 16.1088 14.4917 15.7755 14.825C15.4422 15.1583 15.0005 15.325 14.4505 15.325ZM14.4505 14.325C14.6505 14.325 14.7922 14.325 14.8755 14.325C14.9755 14.325 15.1172 14.325 15.3005 14.325C15.1005 14.325 14.9505 14.325 14.8505 14.325C14.7672 14.325 14.6338 14.325 14.4505 14.325C14.2672 14.325 14.1255 14.325 14.0255 14.325C13.9422 14.325 13.8088 14.325 13.6255 14.325C13.8088 14.325 13.9422 14.325 14.0255 14.325C14.1255 14.325 14.2672 14.325 14.4505 14.325Z" fill="black"/>
</g>
<defs>
<clipPath id="clip0_3385_8110">
<rect width="24" height="24" fill="white"/>
</clipPath>
</defs>
</svg>
