<svg width="24" height="24" viewBox="0 0 24 24" fill="none" xmlns="http://www.w3.org/2000/svg">
<g clip-path="url(#clip0_3196_4213)">
<rect width="24" height="24" fill="white"/>
<path d="M2 9.775C2 9.025 2.25833 8.39167 2.775 7.875C3.29167 7.35833 3.925 7.1 4.675 7.1H12.225C12.975 7.1 13.6083 7.35833 14.125 7.875C14.6417 8.39167 14.9 9.025 14.9 9.775V21H13.05V19.85H3.85V21H2V9.775ZM13.95 13.5V9.775C13.95 9.275 13.7833 8.85833 13.45 8.525C13.1167 8.19167 12.7083 8.025 12.225 8.025H4.675C4.19167 8.025 3.78333 8.19167 3.45 8.525C3.11667 8.85833 2.95 9.275 2.95 9.775V13.5H13.95ZM5 17.575C5.35 17.575 5.64167 17.4583 5.875 17.225C6.10833 16.975 6.225 16.6833 6.225 16.35C6.225 16 6.10833 15.7083 5.875 15.475C5.65833 15.2417 5.36667 15.125 5 15.125C4.63333 15.125 4.33333 15.2417 4.1 15.475C3.86667 15.7083 3.75 16 3.75 16.35C3.75 16.6833 3.86667 16.975 4.1 17.225C4.35 17.4583 4.65 17.575 5 17.575ZM11.925 17.575C12.275 17.575 12.5667 17.4583 12.8 17.225C13.0333 16.975 13.15 16.6833 13.15 16.35C13.15 16 13.0333 15.7083 12.8 15.475C12.5667 15.2417 12.275 15.125 11.925 15.125C11.5583 15.125 11.2583 15.2417 11.025 15.475C10.7917 15.7083 10.675 16 10.675 16.35C10.675 16.6833 10.7917 16.975 11.025 17.225C11.275 17.4583 11.575 17.575 11.925 17.575ZM18.6 6.275H16.925L16.55 7.725H15.05L15.475 5.475L15.05 3.225H16.55L16.925 4.675H18.6L18.025 1.475H19.55L20.4 4.675H22.65C23.0333 4.675 23.3333 4.75 23.55 4.9C23.7667 5.03333 23.875 5.225 23.875 5.475C23.875 5.725 23.7667 5.925 23.55 6.075C23.3333 6.20833 23.0333 6.275 22.65 6.275H20.4L19.55 9.475H18.025L18.6 6.275Z" fill="black"/>
</g>
<defs>
<clipPath id="clip0_3196_4213">
<rect width="24" height="24" fill="white"/>
</clipPath>
</defs>
</svg>
