<svg width="24" height="24" viewBox="0 0 24 24" fill="none" xmlns="http://www.w3.org/2000/svg">
<g clip-path="url(#clip0_3194_3021)">
<rect width="24" height="24" fill="white"/>
<path d="M2.00049 9.5C2.00049 8.8 2.24216 8.20833 2.72549 7.725C3.20882 7.24167 3.80049 7 4.50049 7H12.5005C13.2005 7 13.7922 7.24167 14.2755 7.725C14.7588 8.20833 15.0005 8.8 15.0005 9.5V21H11.8255V19.75H5.10049V21H2.00049V9.5ZM4.17549 20.1V18.85H12.7505V20.1H14.0755V9.5C14.0755 9.05 13.9172 8.675 13.6005 8.375C13.3005 8.05833 12.9338 7.9 12.5005 7.9H4.50049C4.05049 7.9 3.67549 8.05833 3.37549 8.375C3.07549 8.675 2.92549 9.05 2.92549 9.5V20.1H4.17549ZM2.47549 12.85H14.5255V13.75H2.47549V12.85ZM5.35049 17.725C4.91716 17.725 4.54216 17.575 4.22549 17.275C3.92549 16.9583 3.77549 16.5833 3.77549 16.15C3.77549 15.7333 3.92549 15.375 4.22549 15.075C4.54216 14.7583 4.91716 14.6 5.35049 14.6C5.80049 14.6 6.17549 14.7583 6.47549 15.075C6.79216 15.375 6.95049 15.7333 6.95049 16.15C6.95049 16.5833 6.79216 16.9583 6.47549 17.275C6.17549 17.575 5.80049 17.725 5.35049 17.725ZM5.35049 16.95C5.56716 16.95 5.75049 16.875 5.90049 16.725C6.06716 16.575 6.15049 16.3833 6.15049 16.15C6.15049 15.95 6.06716 15.775 5.90049 15.625C5.73382 15.4583 5.55049 15.375 5.35049 15.375C5.15049 15.375 4.96716 15.4583 4.80049 15.625C4.65049 15.775 4.57549 15.95 4.57549 16.15C4.57549 16.3833 4.65049 16.575 4.80049 16.725C4.96716 16.875 5.15049 16.95 5.35049 16.95ZM11.6505 17.725C11.2005 17.725 10.8172 17.575 10.5005 17.275C10.2005 16.9583 10.0505 16.5833 10.0505 16.15C10.0505 15.7333 10.2005 15.375 10.5005 15.075C10.8172 14.7583 11.2005 14.6 11.6505 14.6C12.0838 14.6 12.4505 14.7583 12.7505 15.075C13.0672 15.375 13.2255 15.7333 13.2255 16.15C13.2255 16.5833 13.0672 16.9583 12.7505 17.275C12.4505 17.575 12.0838 17.725 11.6505 17.725ZM11.6505 16.95C11.8505 16.95 12.0255 16.875 12.1755 16.725C12.3422 16.575 12.4255 16.3833 12.4255 16.15C12.4255 15.95 12.3422 15.775 12.1755 15.625C12.0255 15.4583 11.8505 15.375 11.6505 15.375C11.4338 15.375 11.2422 15.4583 11.0755 15.625C10.9255 15.775 10.8505 15.95 10.8505 16.15C10.8505 16.3833 10.9255 16.575 11.0755 16.725C11.2422 16.875 11.4338 16.95 11.6505 16.95ZM19.4505 0.799999L22.2255 3.575L21.5755 4.225L19.9005 2.375V8.7L21.5755 6.875L22.2255 7.525L19.4505 10.3L16.6505 7.525L17.3005 6.875L19.0005 8.7V2.375L17.3005 4.225L16.6505 3.575L19.4505 0.799999Z" fill="black"/>
</g>
<defs>
<clipPath id="clip0_3194_3021">
<rect width="24" height="24" fill="white"/>
</clipPath>
</defs>
</svg>
