<svg width="24" height="24" viewBox="0 0 24 24" fill="none" xmlns="http://www.w3.org/2000/svg">
<g clip-path="url(#clip0_3196_4217)">
<rect width="24" height="24" fill="white"/>
<path d="M2 10.1C2 9.26667 2.29167 8.55833 2.875 7.975C3.45833 7.39167 4.16667 7.1 5 7.1H11.9C12.7333 7.1 13.4417 7.39167 14.025 7.975C14.6083 8.55833 14.9 9.26667 14.9 10.1V21H13.05V19.85H3.85V21H2V10.1ZM13.05 13.5V10.1C13.05 9.76667 12.9333 9.48333 12.7 9.25C12.4833 9.01667 12.2167 8.9 11.9 8.9H5C4.68333 8.9 4.40833 9.01667 4.175 9.25C3.95833 9.48333 3.85 9.76667 3.85 10.1V13.5H13.05ZM5.175 17.575C5.525 17.575 5.81667 17.4583 6.05 17.225C6.28333 16.975 6.4 16.6833 6.4 16.35C6.4 16 6.28333 15.7083 6.05 15.475C5.83333 15.2417 5.54167 15.125 5.175 15.125C4.80833 15.125 4.50833 15.2417 4.275 15.475C4.04167 15.7083 3.925 16 3.925 16.35C3.925 16.6833 4.04167 16.975 4.275 17.225C4.525 17.4583 4.825 17.575 5.175 17.575ZM11.75 17.575C12.1 17.575 12.3917 17.4583 12.625 17.225C12.8583 16.975 12.975 16.6833 12.975 16.35C12.975 16 12.8583 15.7083 12.625 15.475C12.3917 15.2417 12.1 15.125 11.75 15.125C11.3833 15.125 11.0833 15.2417 10.85 15.475C10.6167 15.7083 10.5 16 10.5 16.35C10.5 16.6833 10.6167 16.975 10.85 17.225C11.1 17.4583 11.4 17.575 11.75 17.575ZM18.6 6.3H16.925L16.55 7.75H15.05L15.475 5.5L15.05 3.25H16.55L16.925 4.7H18.6L18.025 1.5H19.55L20.4 4.7H22.65C23.0333 4.7 23.3333 4.775 23.55 4.925C23.7667 5.05833 23.875 5.25 23.875 5.5C23.875 5.75 23.7667 5.95 23.55 6.1C23.3333 6.23333 23.0333 6.3 22.65 6.3H20.4L19.55 9.5H18.025L18.6 6.3Z" fill="black"/>
</g>
<defs>
<clipPath id="clip0_3196_4217">
<rect width="24" height="24" fill="white"/>
</clipPath>
</defs>
</svg>
