<svg width="24" height="24" viewBox="0 0 24 24" fill="none" xmlns="http://www.w3.org/2000/svg">
<g clip-path="url(#clip0_3194_3031)">
<rect width="24" height="24" fill="white"/>
<path d="M2.00049 10.25C2.00049 9.33333 2.30882 8.56667 2.92549 7.95C3.55882 7.31667 4.33382 7 5.25049 7H11.7505C12.6672 7 13.4338 7.31667 14.0505 7.95C14.6838 8.56667 15.0005 9.33333 15.0005 10.25V21H11.4255V20H5.57549V21H2.00049V10.25ZM5.72549 16.65H6.02549H10.7755H10.8755H11.5505V10.425C11.5505 10.4083 11.5422 10.3917 11.5255 10.375C11.5088 10.3583 11.4922 10.35 11.4755 10.35H5.52549C5.50882 10.35 5.49216 10.3583 5.47549 10.375C5.45882 10.3917 5.45049 10.4083 5.45049 10.425V16.65H5.72549ZM4.07549 11.875H13.5005V15.125H4.07549V11.875ZM4.35049 19.025C4.31716 19.025 4.29216 19.025 4.27549 19.025C4.27549 19.025 4.25882 19.025 4.22549 19.025C4.25882 19.025 4.27549 19.025 4.27549 19.025C4.29216 19.025 4.31716 19.025 4.35049 19.025C4.38382 19.025 4.40049 19.025 4.40049 19.025C4.41716 19.025 4.44216 19.025 4.47549 19.025C4.44216 19.025 4.41716 19.025 4.40049 19.025C4.40049 19.025 4.38382 19.025 4.35049 19.025ZM4.20049 18.85C4.35049 18.85 4.45882 18.85 4.52549 18.85C4.60882 18.85 4.72549 18.85 4.87549 18.85C4.72549 18.85 4.60882 18.85 4.52549 18.85C4.45882 18.85 4.34216 18.85 4.17549 18.85C4.02549 18.85 3.90882 18.85 3.82549 18.85C3.75882 18.85 3.65049 18.85 3.50049 18.85C3.65049 18.85 3.76716 18.85 3.85049 18.85C3.93382 18.85 4.05049 18.85 4.20049 18.85ZM9.40049 18.275C9.36716 18.275 9.34216 18.275 9.32549 18.275C9.32549 18.275 9.30882 18.275 9.27549 18.275C9.30882 18.275 9.32549 18.275 9.32549 18.275C9.34216 18.275 9.36716 18.275 9.40049 18.275C9.43382 18.275 9.45049 18.275 9.45049 18.275C9.46716 18.275 9.49216 18.275 9.52549 18.275C9.49216 18.275 9.46716 18.275 9.45049 18.275C9.45049 18.275 9.43382 18.275 9.40049 18.275ZM10.3255 19.125C10.4755 19.125 10.5838 19.125 10.6505 19.125C10.7172 19.125 10.8255 19.125 10.9755 19.125C10.8255 19.125 10.7172 19.125 10.6505 19.125C10.5838 19.125 10.4755 19.125 10.3255 19.125C10.1755 19.125 10.0588 19.125 9.97549 19.125C9.90882 19.125 9.80049 19.125 9.65049 19.125C9.80049 19.125 9.90882 19.125 9.97549 19.125C10.0588 19.125 10.1755 19.125 10.3255 19.125ZM19.4505 1.05L22.8505 4.45H21.4005H20.9255V7.15H21.4005H22.8505L19.4505 10.55L16.0255 7.15H17.2755H17.9505V4.45H17.2755H16.0255L19.4505 1.05Z" fill="black"/>
</g>
<defs>
<clipPath id="clip0_3194_3031">
<rect width="24" height="24" fill="white"/>
</clipPath>
</defs>
</svg>
