<svg width="24" height="24" viewBox="0 0 24 24" fill="none" xmlns="http://www.w3.org/2000/svg">
<g clip-path="url(#clip0_3194_3023)">
<rect width="24" height="24" fill="white"/>
<path d="M2.00049 9.675C2.00049 8.925 2.25882 8.29167 2.77549 7.775C3.29216 7.25833 3.92549 7 4.67549 7H12.3255C13.0755 7 13.7088 7.25833 14.2255 7.775C14.7422 8.29167 15.0005 8.925 15.0005 9.675V21H13.6255V19.75H3.37549V21H2.00049V9.675ZM4.37549 18.425H6.15049H10.6755H12.4255H13.6255V9.675C13.6255 9.29167 13.5005 8.975 13.2505 8.725C13.0005 8.45833 12.6922 8.325 12.3255 8.325H4.67549C4.30882 8.325 4.00049 8.45833 3.75049 8.725C3.50049 8.975 3.37549 9.29167 3.37549 9.675V18.425H4.37549ZM2.70049 12.175H14.2255V13.5H2.70049V12.175ZM5.65049 16.975C5.33382 16.975 5.07549 16.875 4.87549 16.675C4.67549 16.4583 4.57549 16.2 4.57549 15.9C4.57549 15.6 4.67549 15.35 4.87549 15.15C5.07549 14.9333 5.33382 14.825 5.65049 14.825C5.96716 14.825 6.22549 14.9333 6.42549 15.15C6.62549 15.35 6.72549 15.6 6.72549 15.9C6.72549 16.2 6.61716 16.4583 6.40049 16.675C6.20049 16.875 5.95049 16.975 5.65049 16.975ZM5.62549 17.85C5.67549 17.85 5.70882 17.85 5.72549 17.85C5.75882 17.85 5.80049 17.85 5.85049 17.85C5.80049 17.85 5.75882 17.85 5.72549 17.85C5.70882 17.85 5.67549 17.85 5.62549 17.85C5.57549 17.85 5.53382 17.85 5.50049 17.85C5.46716 17.85 5.42549 17.85 5.37549 17.85C5.42549 17.85 5.46716 17.85 5.50049 17.85C5.53382 17.85 5.57549 17.85 5.62549 17.85ZM11.3505 16.975C11.0338 16.975 10.7755 16.875 10.5755 16.675C10.3755 16.4583 10.2755 16.2 10.2755 15.9C10.2755 15.6 10.3755 15.35 10.5755 15.15C10.7755 14.9333 11.0338 14.825 11.3505 14.825C11.6505 14.825 11.9005 14.9333 12.1005 15.15C12.3172 15.35 12.4255 15.6 12.4255 15.9C12.4255 16.2 12.3172 16.4583 12.1005 16.675C11.9005 16.875 11.6505 16.975 11.3505 16.975ZM11.3005 17.825C11.3672 17.825 11.4088 17.825 11.4255 17.825C11.4588 17.825 11.5005 17.825 11.5505 17.825C11.5005 17.825 11.4588 17.825 11.4255 17.825C11.4088 17.825 11.3672 17.825 11.3005 17.825C11.2505 17.825 11.2088 17.825 11.1755 17.825C11.1588 17.825 11.1172 17.825 11.0505 17.825C11.1172 17.825 11.1588 17.825 11.1755 17.825C11.2088 17.825 11.2505 17.825 11.3005 17.825ZM19.4505 0.799999L21.8755 3.225H20.7005H20.1505V7.875H20.7005H21.8755L19.4505 10.3L17.0005 7.875H18.1255H18.7505V3.225H18.1255H17.0005L19.4505 0.799999Z" fill="black"/>
</g>
<defs>
<clipPath id="clip0_3194_3023">
<rect width="24" height="24" fill="white"/>
</clipPath>
</defs>
</svg>
