<svg width="24" height="24" viewBox="0 0 24 24" fill="none" xmlns="http://www.w3.org/2000/svg">
<g clip-path="url(#clip0_3194_3043)">
<rect width="24" height="24" fill="white"/>
<path d="M2 10.275C2 9.375 2.3 8.625 2.9 8.025C3.51667 7.40833 4.275 7.1 5.175 7.1H11.725C12.625 7.1 13.375 7.40833 13.975 8.025C14.5917 8.625 14.9 9.375 14.9 10.275V21H12.225V19.85H4.675V21H2V10.275ZM12.225 12.525V10.175C12.225 10.0583 12.175 9.95833 12.075 9.875C11.9917 9.775 11.8917 9.725 11.775 9.725H5.125C5.00833 9.725 4.9 9.775 4.8 9.875C4.71667 9.95833 4.675 10.0583 4.675 10.175V12.525H12.225ZM5.55 17.625C6 17.625 6.375 17.475 6.675 17.175C6.975 16.875 7.125 16.5083 7.125 16.075C7.125 15.625 6.975 15.25 6.675 14.95C6.39167 14.65 6.01667 14.5 5.55 14.5C5.1 14.5 4.725 14.65 4.425 14.95C4.125 15.25 3.975 15.625 3.975 16.075C3.975 16.5083 4.125 16.875 4.425 17.175C4.725 17.475 5.1 17.625 5.55 17.625ZM11.375 17.625C11.825 17.625 12.1917 17.475 12.475 17.175C12.775 16.875 12.925 16.5083 12.925 16.075C12.925 15.625 12.775 15.25 12.475 14.95C12.1917 14.65 11.825 14.5 11.375 14.5C10.9083 14.5 10.525 14.65 10.225 14.95C9.925 15.25 9.775 15.625 9.775 16.075C9.775 16.5083 9.925 16.875 10.225 17.175C10.5417 17.475 10.925 17.625 11.375 17.625ZM19.45 0.974999L22.725 4.25H21.3H20.725V7.2H21.3H22.725L19.45 10.475L16.15 7.2H17.475H18.15V4.25H17.475H16.15L19.45 0.974999Z" fill="black"/>
</g>
<defs>
<clipPath id="clip0_3194_3043">
<rect width="24" height="24" fill="white"/>
</clipPath>
</defs>
</svg>
