<svg width="24" height="24" viewBox="0 0 24 24" fill="none" xmlns="http://www.w3.org/2000/svg">
<g clip-path="url(#clip0_3385_8088)">
<rect width="24" height="24" fill="white"/>
<path d="M3.5 18.75C2.8 18.75 2.20833 18.5083 1.725 18.025C1.24167 17.5417 1 16.95 1 16.25V5H17.6C18.25 5 18.85 5.15833 19.4 5.475C19.95 5.79167 20.3833 6.21667 20.7 6.75L23 10.825V18.75H19.85V15.1H20.3L20.225 11.575L18.3 8.2C18.2167 8.05 18.1 7.93333 17.95 7.85C17.8167 7.76667 17.675 7.725 17.525 7.725H3.775V14.825C3.775 14.9417 3.79167 15.0333 3.825 15.1C3.875 15.15 3.94167 15.175 4.025 15.175H4.775V18.75H3.5ZM6.675 20.5C6.09167 20.5 5.55 20.3583 5.05 20.075C4.55 19.775 4.15 19.375 3.85 18.875C3.56667 18.375 3.425 17.825 3.425 17.225C3.425 16.6417 3.56667 16.1 3.85 15.6C4.15 15.1 4.55 14.7083 5.05 14.425C5.55 14.125 6.09167 13.975 6.675 13.975C7.275 13.975 7.825 14.125 8.325 14.425C8.825 14.7083 9.21667 15.1 9.5 15.6C9.8 16.1 9.95 16.6417 9.95 17.225C9.95 17.825 9.8 18.375 9.5 18.875C9.21667 19.375 8.825 19.775 8.325 20.075C7.825 20.3583 7.275 20.5 6.675 20.5ZM6.675 18.325C6.99167 18.325 7.25 18.225 7.45 18.025C7.66667 17.8083 7.775 17.5417 7.775 17.225C7.775 16.925 7.66667 16.675 7.45 16.475C7.25 16.2583 6.99167 16.15 6.675 16.15C6.375 16.15 6.11667 16.2583 5.9 16.475C5.7 16.675 5.6 16.925 5.6 17.225C5.6 17.5417 5.7 17.8083 5.9 18.025C6.11667 18.225 6.375 18.325 6.675 18.325ZM8.35 14.975H16.175V18.75H8.35V14.975ZM18.15 20.5C17.55 20.5 17 20.3583 16.5 20.075C16 19.7917 15.6 19.4 15.3 18.9C15.0167 18.3833 14.875 17.825 14.875 17.225C14.875 16.6417 15.0167 16.1 15.3 15.6C15.6 15.0833 16 14.6833 16.5 14.4C17 14.1167 17.55 13.975 18.15 13.975C18.75 13.975 19.3 14.1167 19.8 14.4C20.3 14.6833 20.6917 15.0833 20.975 15.6C21.275 16.1 21.425 16.6417 21.425 17.225C21.425 17.825 21.275 18.3833 20.975 18.9C20.6917 19.4 20.3 19.7917 19.8 20.075C19.3 20.3583 18.75 20.5 18.15 20.5ZM18.15 18.325C18.45 18.325 18.7 18.225 18.9 18.025C19.1167 17.8083 19.225 17.5417 19.225 17.225C19.225 16.925 19.1167 16.675 18.9 16.475C18.7 16.2583 18.45 16.15 18.15 16.15C17.85 16.15 17.5917 16.2583 17.375 16.475C17.175 16.675 17.075 16.925 17.075 17.225C17.075 17.5417 17.175 17.8083 17.375 18.025C17.5917 18.225 17.85 18.325 18.15 18.325ZM1.475 11.275H21.75L21.825 15.275H1.475V11.275Z" fill="black"/>
</g>
<defs>
<clipPath id="clip0_3385_8088">
<rect width="24" height="24" fill="white"/>
</clipPath>
</defs>
</svg>
