<svg width="24" height="24" viewBox="0 0 24 24" fill="none" xmlns="http://www.w3.org/2000/svg">
<g clip-path="url(#clip0_3194_2708)">
<rect width="24" height="24" fill="white"/>
<path d="M2.00049 9.5C2.00049 8.8 2.24216 8.20833 2.72549 7.725C3.20882 7.24167 3.80049 7 4.50049 7H12.5005C13.2005 7 13.7922 7.24167 14.2755 7.725C14.7588 8.20833 15.0005 8.8 15.0005 9.5V21H12.5005V19.75H4.50049V21H2.00049V9.5ZM4.02549 20.525V19.275H12.9755V20.525H14.5005V9.5C14.5005 8.93333 14.3088 8.45833 13.9255 8.075C13.5422 7.675 13.0672 7.475 12.5005 7.475H4.50049C3.93382 7.475 3.45882 7.675 3.07549 8.075C2.69216 8.45833 2.50049 8.93333 2.50049 9.5V20.525H4.02549ZM2.47549 13.5H14.5255V13.975H2.47549V13.5ZM5.12549 17.725C4.72549 17.725 4.38382 17.5917 4.10049 17.325C3.83382 17.0417 3.70049 16.7083 3.70049 16.325C3.70049 15.9417 3.83382 15.6167 4.10049 15.35C4.38382 15.0667 4.72549 14.925 5.12549 14.925C5.52549 14.925 5.85882 15.0667 6.12549 15.35C6.40882 15.6167 6.55049 15.9417 6.55049 16.325C6.55049 16.7083 6.40882 17.0417 6.12549 17.325C5.85882 17.5917 5.52549 17.725 5.12549 17.725ZM5.12549 17.275C5.39216 17.275 5.61716 17.1833 5.80049 17C5.98382 16.8167 6.07549 16.5917 6.07549 16.325C6.07549 16.0583 5.98382 15.8333 5.80049 15.65C5.61716 15.4667 5.39216 15.375 5.12549 15.375C4.85882 15.375 4.63382 15.4667 4.45049 15.65C4.26716 15.8333 4.17549 16.0583 4.17549 16.325C4.17549 16.5917 4.26716 16.8167 4.45049 17C4.63382 17.1833 4.85882 17.275 5.12549 17.275ZM11.8755 17.725C11.4755 17.725 11.1338 17.5917 10.8505 17.325C10.5838 17.0417 10.4505 16.7083 10.4505 16.325C10.4505 15.9417 10.5838 15.6167 10.8505 15.35C11.1338 15.0667 11.4755 14.925 11.8755 14.925C12.2755 14.925 12.6088 15.0667 12.8755 15.35C13.1588 15.6167 13.3005 15.9417 13.3005 16.325C13.3005 16.7083 13.1588 17.0417 12.8755 17.325C12.6088 17.5917 12.2755 17.725 11.8755 17.725ZM11.8755 17.275C12.1422 17.275 12.3672 17.1833 12.5505 17C12.7338 16.8167 12.8255 16.5917 12.8255 16.325C12.8255 16.0583 12.7338 15.8333 12.5505 15.65C12.3672 15.4667 12.1422 15.375 11.8755 15.375C11.6088 15.375 11.3838 15.4667 11.2005 15.65C11.0172 15.8333 10.9255 16.0583 10.9255 16.325C10.9255 16.5917 11.0172 16.8167 11.2005 17C11.3838 17.1833 11.6088 17.275 11.8755 17.275ZM18.2505 6.625H17.0755L16.7505 7.725H14.8255L15.3005 5.475L14.8255 3.225H16.7505L17.0755 4.325H18.2505L17.7505 1.475H19.6755L20.7505 4.325H22.2005C22.7005 4.325 23.0838 4.425 23.3505 4.625C23.6172 4.825 23.7505 5.10833 23.7505 5.475C23.7505 5.84167 23.6172 6.125 23.3505 6.325C23.0838 6.525 22.7005 6.625 22.2005 6.625H20.7505L19.6755 9.475H17.7505L18.2505 6.625ZM19.3255 9.025L20.4005 6.175H22.2005C22.5505 6.175 22.8172 6.11667 23.0005 6C23.1838 5.88333 23.2755 5.70833 23.2755 5.475C23.2755 5.24167 23.1838 5.06667 23.0005 4.95C22.8172 4.83333 22.5505 4.775 22.2005 4.775H20.4005L19.3255 1.925H18.3005L18.8005 4.775H16.7255L16.4005 3.675H15.4005L15.7755 5.475L15.4005 7.275H16.4005L16.7255 6.175H18.8005L18.3005 9.025H19.3255Z" fill="black"/>
</g>
<defs>
<clipPath id="clip0_3194_2708">
<rect width="24" height="24" fill="white"/>
</clipPath>
</defs>
</svg>
