<svg width="24" height="24" viewBox="0 0 24 24" fill="none" xmlns="http://www.w3.org/2000/svg">
<g clip-path="url(#clip0_3196_4205)">
<rect width="24" height="24" fill="white"/>
<path d="M2.00049 10.175C2.00049 9.275 2.30049 8.525 2.90049 7.925C3.51716 7.30833 4.27549 7 5.17549 7H11.8255C12.7255 7 13.4755 7.30833 14.0755 7.925C14.6922 8.525 15.0005 9.275 15.0005 10.175V21H12.7755V19.925H4.22549V21H2.00049V10.175ZM4.65049 18.025H4.97549H11.7255H11.9755H12.7755V10.175C12.7755 9.875 12.6838 9.625 12.5005 9.425C12.3172 9.225 12.0922 9.125 11.8255 9.125H5.17549C4.90882 9.125 4.68382 9.225 4.50049 9.425C4.31716 9.625 4.22549 9.875 4.22549 10.175V18.025H4.65049ZM3.15049 11.6H13.8505V13.725H3.15049V11.6ZM6.32549 17.2C5.92549 17.2 5.59216 17.0667 5.32549 16.8C5.05882 16.5167 4.92549 16.1833 4.92549 15.8C4.92549 15.3833 5.05049 15.05 5.30049 14.8C5.56716 14.5333 5.90882 14.4 6.32549 14.4C6.74216 14.4 7.07549 14.5333 7.32549 14.8C7.59216 15.05 7.72549 15.3833 7.72549 15.8C7.72549 16.1833 7.59216 16.5167 7.32549 16.8C7.05882 17.0667 6.72549 17.2 6.32549 17.2ZM6.27549 15.4C6.39216 15.4 6.47549 15.4 6.52549 15.4C6.59216 15.4 6.67549 15.4 6.77549 15.4C6.67549 15.4 6.59216 15.4 6.52549 15.4C6.47549 15.4 6.39216 15.4 6.27549 15.4C6.17549 15.4 6.09216 15.4 6.02549 15.4C5.97549 15.4 5.89216 15.4 5.77549 15.4C5.89216 15.4 5.97549 15.4 6.02549 15.4C6.07549 15.4 6.15882 15.4 6.27549 15.4ZM10.6755 17.2C10.2755 17.2 9.94216 17.0667 9.67549 16.8C9.40882 16.5167 9.27549 16.1833 9.27549 15.8C9.27549 15.3833 9.40049 15.05 9.65049 14.8C9.91716 14.5333 10.2588 14.4 10.6755 14.4C11.0922 14.4 11.4255 14.5333 11.6755 14.8C11.9422 15.05 12.0755 15.3833 12.0755 15.8C12.0755 16.1833 11.9422 16.5167 11.6755 16.8C11.4088 17.0667 11.0755 17.2 10.6755 17.2ZM10.7005 15.35C10.8338 15.35 10.9255 15.35 10.9755 15.35C11.0422 15.35 11.1422 15.35 11.2755 15.35C11.1422 15.35 11.0422 15.35 10.9755 15.35C10.9255 15.35 10.8338 15.35 10.7005 15.35C10.5672 15.35 10.4755 15.35 10.4255 15.35C10.3755 15.35 10.2838 15.35 10.1505 15.35C10.2838 15.35 10.3755 15.35 10.4255 15.35C10.4755 15.35 10.5672 15.35 10.7005 15.35ZM18.5755 6.5H16.9755L16.6505 7.7H14.9255L15.3505 5.5L14.9255 3.3H16.6505L17.0005 4.5H18.5755L18.0255 1.575H19.9755L20.8005 4.5H22.5255C22.9255 4.5 23.2422 4.59167 23.4755 4.775C23.7255 4.95833 23.8505 5.2 23.8505 5.5C23.8505 5.8 23.7255 6.04167 23.4755 6.225C23.2422 6.40833 22.9255 6.5 22.5255 6.5H20.8005L19.9755 9.425H18.0505L18.5755 6.5ZM19.2505 5.5H20.0255H21.0005C21.1005 5.5 21.1672 5.5 21.2005 5.5C21.2505 5.5 21.3255 5.5 21.4255 5.5C21.3255 5.5 21.2505 5.5 21.2005 5.5C21.1672 5.5 21.1005 5.5 21.0005 5.5H20.0255H19.2505H18.8505H19.3005H18.1255H17.7755H17.4755H17.7505H17.4755H17.7755H18.1255H19.3005H18.8505H19.2505Z" fill="black"/>
</g>
<defs>
<clipPath id="clip0_3196_4205">
<rect width="24" height="24" fill="white"/>
</clipPath>
</defs>
</svg>
