<svg width="24" height="24" viewBox="0 0 24 24" fill="none" xmlns="http://www.w3.org/2000/svg">
<g clip-path="url(#clip0_3194_3599)">
<rect width="24" height="24" fill="white"/>
<path d="M18.6505 11.925C18.6505 11.9083 18.6422 11.9 18.6255 11.9C18.6255 11.8833 18.6172 11.875 18.6005 11.875H5.40049C5.38382 11.875 5.36716 11.8833 5.35049 11.9C5.35049 11.9 5.35049 11.9083 5.35049 11.925V18.65C5.35049 18.6667 5.35049 18.675 5.35049 18.675C5.36716 18.675 5.38382 18.675 5.40049 18.675H18.6005C18.6172 18.675 18.6255 18.675 18.6255 18.675C18.6422 18.675 18.6505 18.6667 18.6505 18.65V11.925ZM19.1255 9.575C19.6588 9.575 20.1005 9.75 20.4505 10.1C20.8172 10.45 21.0005 10.8833 21.0005 11.4V19.175C21.0005 19.6917 20.8172 20.125 20.4505 20.475C20.1005 20.825 19.6588 21 19.1255 21H4.87549C4.34216 21 3.89216 20.825 3.52549 20.475C3.17549 20.125 3.00049 19.6917 3.00049 19.175V11.4C3.00049 10.8833 3.17549 10.45 3.52549 10.1C3.89216 9.75 4.34216 9.575 4.87549 9.575H19.1255ZM13.1755 5.35V10.025H10.8255V5.35H13.1755ZM9.92549 11.375V18.975H7.67549V11.375H9.92549ZM16.3255 11.375V18.975H14.0755V11.375H16.3255ZM21.0005 5.775V8.075L3.00049 5.075V2.75L21.0005 5.775Z" fill="black"/>
</g>
<defs>
<clipPath id="clip0_3194_3599">
<rect width="24" height="24" fill="white"/>
</clipPath>
</defs>
</svg>
