<svg width="24" height="24" viewBox="0 0 24 24" fill="none" xmlns="http://www.w3.org/2000/svg">
<g clip-path="url(#clip0_3194_3601)">
<rect width="24" height="24" fill="white"/>
<path d="M18.1255 12.5C18.1255 12.4833 18.1255 12.475 18.1255 12.475C18.1255 12.475 18.1172 12.475 18.1005 12.475H5.90049C5.88382 12.475 5.87549 12.475 5.87549 12.475C5.87549 12.475 5.87549 12.4833 5.87549 12.5V18.125C5.87549 18.1417 5.87549 18.1583 5.87549 18.175C5.87549 18.175 5.88382 18.175 5.90049 18.175H18.1005C18.1172 18.175 18.1255 18.175 18.1255 18.175C18.1255 18.1583 18.1255 18.1417 18.1255 18.125V12.5ZM19.1505 9.65C19.6672 9.65 20.1005 9.825 20.4505 10.175C20.8172 10.525 21.0005 10.9667 21.0005 11.5V19.15C21.0005 19.6833 20.8172 20.125 20.4505 20.475C20.1005 20.825 19.6672 21 19.1505 21H4.85049C4.33382 21 3.89216 20.825 3.52549 20.475C3.17549 20.125 3.00049 19.6833 3.00049 19.15V11.5C3.00049 10.9667 3.17549 10.525 3.52549 10.175C3.89216 9.825 4.33382 9.65 4.85049 9.65H19.1505ZM13.4255 5.35V10.1H10.5755V5.35H13.4255ZM10.4755 11.775V18.55H7.82549V11.775H10.4755ZM16.1755 11.775V18.55H13.5255V11.775H16.1755ZM21.0005 5.6V8.425L3.00049 5.55V2.75L21.0005 5.6Z" fill="black"/>
</g>
<defs>
<clipPath id="clip0_3194_3601">
<rect width="24" height="24" fill="white"/>
</clipPath>
</defs>
</svg>
