<svg width="24" height="24" viewBox="0 0 24 24" fill="none" xmlns="http://www.w3.org/2000/svg">
<g clip-path="url(#clip0_3194_3603)">
<rect width="24" height="24" fill="white"/>
<path d="M17.6255 13.1C17.6255 13.0833 17.6172 13.075 17.6005 13.075C17.6005 13.0583 17.5922 13.05 17.5755 13.05H6.42549C6.40882 13.05 6.39216 13.0583 6.37549 13.075C6.37549 13.075 6.37549 13.0833 6.37549 13.1V17.6C6.37549 17.6167 6.37549 17.6333 6.37549 17.65C6.39216 17.65 6.40882 17.65 6.42549 17.65H17.5755C17.5922 17.65 17.6005 17.65 17.6005 17.65C17.6172 17.6333 17.6255 17.6167 17.6255 17.6V13.1ZM19.1505 9.725C19.6672 9.725 20.1005 9.90833 20.4505 10.275C20.8172 10.625 21.0005 11.0583 21.0005 11.575V19.15C21.0005 19.6667 20.8172 20.1083 20.4505 20.475C20.1005 20.825 19.6672 21 19.1505 21H4.85049C4.33382 21 3.89216 20.825 3.52549 20.475C3.17549 20.1083 3.00049 19.6667 3.00049 19.15V11.575C3.00049 11.0583 3.17549 10.625 3.52549 10.275C3.89216 9.90833 4.33382 9.725 4.85049 9.725H19.1505ZM13.6755 5.35V10.175H10.3255V5.35H13.6755ZM11.0505 12.2V18.125H8.00049V12.2H11.0505ZM16.0005 12.2V18.125H12.9505V12.2H16.0005ZM21.0005 5.45V8.75L3.00049 6.05V2.75L21.0005 5.45Z" fill="black"/>
</g>
<defs>
<clipPath id="clip0_3194_3603">
<rect width="24" height="24" fill="white"/>
</clipPath>
</defs>
</svg>
