<svg width="24" height="24" viewBox="0 0 24 24" fill="none" xmlns="http://www.w3.org/2000/svg">
<g clip-path="url(#clip0_3194_3595)">
<rect width="24" height="24" fill="white"/>
<path d="M19.6005 11.325C19.6005 11.1917 19.5505 11.0833 19.4505 11C19.3672 10.9 19.2588 10.85 19.1255 10.85H4.87549C4.74216 10.85 4.62549 10.9 4.52549 11C4.44216 11.0833 4.40049 11.1917 4.40049 11.325V19.175C4.40049 19.3083 4.44216 19.425 4.52549 19.525C4.62549 19.6083 4.74216 19.65 4.87549 19.65H19.1255C19.2588 19.65 19.3672 19.6083 19.4505 19.525C19.5505 19.425 19.6005 19.3083 19.6005 19.175V11.325ZM19.1255 9.5C19.6588 9.5 20.1005 9.68333 20.4505 10.05C20.8172 10.4 21.0005 10.825 21.0005 11.325V19.175C21.0005 19.675 20.8172 20.1083 20.4505 20.475C20.1005 20.825 19.6588 21 19.1255 21H4.87549C4.34216 21 3.89216 20.825 3.52549 20.475C3.17549 20.1083 3.00049 19.675 3.00049 19.175V11.325C3.00049 10.825 3.17549 10.4 3.52549 10.05C3.89216 9.68333 4.34216 9.5 4.87549 9.5H19.1255ZM12.7005 5.1V9.875H11.3005V5.1H12.7005ZM9.00049 10.525V19.85H7.60049V10.525H9.00049ZM16.4005 10.525V19.85H15.0005V10.525H16.4005ZM21.0005 5.925V7.3L3.00049 4.125V2.75L21.0005 5.925Z" fill="black"/>
</g>
<defs>
<clipPath id="clip0_3194_3595">
<rect width="24" height="24" fill="white"/>
</clipPath>
</defs>
</svg>
