<svg width="24" height="24" viewBox="0 0 24 24" fill="none" xmlns="http://www.w3.org/2000/svg">
<g clip-path="url(#clip0_3194_3613)">
<rect width="24" height="24" fill="white"/>
<path d="M18.675 11.9C18.675 11.8833 18.6667 11.875 18.65 11.875C18.65 11.8583 18.6417 11.85 18.625 11.85H5.375C5.35833 11.85 5.34167 11.8583 5.325 11.875C5.325 11.875 5.325 11.8833 5.325 11.9V16.725H18.675V11.9ZM19.15 9.575C19.6667 9.575 20.1 9.75833 20.45 10.125C20.8167 10.475 21 10.9083 21 11.425V19.15C21 19.6667 20.8167 20.1083 20.45 20.475C20.1 20.825 19.6667 21 19.15 21H4.85C4.33333 21 3.89167 20.825 3.525 20.475C3.175 20.1083 3 19.6667 3 19.15V11.425C3 10.9083 3.175 10.475 3.525 10.125C3.89167 9.75833 4.33333 9.575 4.85 9.575H19.15ZM10.5 11.4V19.025H8.275V11.4H10.5ZM15.725 11.4V19.025H13.5V11.4H15.725ZM13.15 5.35V10.025H10.85V5.35H13.15ZM21 5.75V8.05L3 5.05V2.75L21 5.75Z" fill="black"/>
</g>
<defs>
<clipPath id="clip0_3194_3613">
<rect width="24" height="24" fill="white"/>
</clipPath>
</defs>
</svg>
