<svg width="24" height="24" viewBox="0 0 24 24" fill="none" xmlns="http://www.w3.org/2000/svg">
<g clip-path="url(#clip0_3194_3665)">
<rect width="24" height="24" fill="white"/>
<path d="M2.25 14.4L0.65 13.9V12H2.45C2.63333 10.85 2.875 9.8 3.175 8.85C3.35833 8.28333 3.675 7.83333 4.125 7.5C4.575 7.16667 5.09167 7 5.675 7H12.825C13.4083 7 13.925 7.16667 14.375 7.5C14.825 7.83333 15.1417 8.28333 15.325 8.85C15.625 9.8 15.8667 10.85 16.05 12H17.85V13.725L16.25 14.25V21H13.775V19.55H4.725V21H2.25V14.4ZM13.675 12C13.575 11.3667 13.4167 10.6833 13.2 9.95C13.15 9.73333 13.05 9.56667 12.9 9.45C12.7667 9.31667 12.6 9.25 12.4 9.25H6.125C5.90833 9.25 5.725 9.31667 5.575 9.45C5.44167 9.56667 5.35 9.73333 5.3 9.95C5.08333 10.6833 4.925 11.3667 4.825 12H13.675ZM5.675 16.5C6.05833 16.5 6.375 16.3667 6.625 16.1C6.89167 15.8333 7.025 15.5167 7.025 15.15C7.025 14.7667 6.9 14.45 6.65 14.2C6.4 13.9333 6.075 13.8 5.675 13.8C5.275 13.8 4.94167 13.9333 4.675 14.2C4.425 14.45 4.3 14.7667 4.3 15.15C4.3 15.5167 4.43333 15.8333 4.7 16.1C4.96667 16.3667 5.29167 16.5 5.675 16.5ZM12.85 16.5C13.2333 16.5 13.55 16.3667 13.8 16.1C14.0667 15.8333 14.2 15.5167 14.2 15.15C14.2 14.7667 14.0667 14.45 13.8 14.2C13.55 13.9333 13.2333 13.8 12.85 13.8C12.45 13.8 12.1167 13.9333 11.85 14.2C11.6 14.45 11.475 14.7667 11.475 15.15C11.475 15.5167 11.6083 15.8333 11.875 16.1C12.1417 16.3667 12.4667 16.5 12.85 16.5ZM19.275 6.6H16.925L18.525 1.95H19.925V4.4H22.275L20.675 9.05H19.275V6.6Z" fill="black"/>
</g>
<defs>
<clipPath id="clip0_3194_3665">
<rect width="24" height="24" fill="white"/>
</clipPath>
</defs>
</svg>
