<svg width="24" height="24" viewBox="0 0 24 24" fill="none" xmlns="http://www.w3.org/2000/svg">
<g clip-path="url(#clip0_3194_3127)">
<rect width="24" height="24" fill="white"/>
<path d="M2.25049 15.1C2.25049 14.0333 2.33382 12.975 2.50049 11.925C2.66716 10.875 2.90882 9.84167 3.22549 8.825C3.39216 8.275 3.69216 7.83333 4.12549 7.5C4.57549 7.16667 5.07549 7 5.62549 7H12.8755C13.4255 7 13.9172 7.16667 14.3505 7.5C14.8005 7.83333 15.1088 8.275 15.2755 8.825C15.5922 9.84167 15.8338 10.875 16.0005 11.925C16.1672 12.975 16.2505 14.0333 16.2505 15.1V21H14.8755V19.5H3.62549V21H2.25049V15.1ZM4.57549 18.175H4.90049H13.8005H13.6005H14.8755V15.1C14.8755 13.1 14.5755 11.1 13.9755 9.1C13.8755 8.83333 13.7255 8.64167 13.5255 8.525C13.3422 8.39167 13.1088 8.325 12.8255 8.325H5.67549C5.39216 8.325 5.15049 8.39167 4.95049 8.525C4.76716 8.64167 4.62549 8.83333 4.52549 9.1C3.92549 11.1 3.62549 13.1 3.62549 15.1V18.175H4.57549ZM2.92549 11.375H15.5755V12.7H2.92549V11.375ZM6.07549 16.175C5.77549 16.175 5.51716 16.075 5.30049 15.875C5.08382 15.675 4.97549 15.4167 4.97549 15.1C4.97549 14.8 5.08382 14.55 5.30049 14.35C5.51716 14.15 5.77549 14.05 6.07549 14.05C6.37549 14.05 6.62549 14.15 6.82549 14.35C7.04216 14.55 7.15049 14.8 7.15049 15.1C7.15049 15.4167 7.04216 15.675 6.82549 15.875C6.62549 16.075 6.37549 16.175 6.07549 16.175ZM6.05049 17.7C6.10049 17.7 6.13382 17.7 6.15049 17.7C6.18382 17.7 6.22549 17.7 6.27549 17.7C6.22549 17.7 6.18382 17.7 6.15049 17.7C6.13382 17.7 6.10049 17.7 6.05049 17.7C6.01716 17.7 5.98382 17.7 5.95049 17.7C5.91716 17.7 5.88382 17.7 5.85049 17.7C5.88382 17.7 5.91716 17.7 5.95049 17.7C5.98382 17.7 6.01716 17.7 6.05049 17.7ZM12.4255 16.175C12.1255 16.175 11.8672 16.075 11.6505 15.875C11.4505 15.675 11.3505 15.4167 11.3505 15.1C11.3505 14.8 11.4505 14.55 11.6505 14.35C11.8672 14.15 12.1255 14.05 12.4255 14.05C12.7422 14.05 13.0005 14.15 13.2005 14.35C13.4172 14.55 13.5255 14.8 13.5255 15.1C13.5255 15.4167 13.4172 15.675 13.2005 15.875C13.0005 16.075 12.7422 16.175 12.4255 16.175ZM12.4505 17.5C12.5005 17.5 12.5338 17.5 12.5505 17.5C12.5838 17.5 12.6255 17.5 12.6755 17.5C12.6255 17.5 12.5838 17.5 12.5505 17.5C12.5338 17.5 12.5005 17.5 12.4505 17.5C12.4005 17.5 12.3588 17.5 12.3255 17.5C12.2922 17.5 12.2505 17.5 12.2005 17.5C12.2505 17.5 12.2922 17.5 12.3255 17.5C12.3588 17.5 12.4005 17.5 12.4505 17.5ZM0.650488 12.45V11.35H3.27549V11.7L3.10049 11.975V12.5L2.72549 12.725V12.975L0.650488 12.45ZM15.7755 12.75L15.5255 12.55L15.4005 12.1L15.2255 11.725V11.375H17.8505V12.45L15.7755 12.975V12.75ZM16.9255 3.875C16.9255 3.15833 17.1755 2.55 17.6755 2.05C18.1755 1.53333 18.7838 1.275 19.5005 1.275C20.2338 1.275 20.8422 1.53333 21.3255 2.05C21.8255 2.55 22.0755 3.15833 22.0755 3.875C22.0755 4.55833 21.8255 5.15 21.3255 5.65C20.8422 6.15 20.2422 6.41667 19.5255 6.45L20.1755 5.65V10.075L18.8505 9.775V5.65L19.4755 6.45C18.7588 6.41667 18.1505 6.15 17.6505 5.65C17.1672 5.15 16.9255 4.55833 16.9255 3.875ZM18.2005 3.875C18.2005 4.225 18.3255 4.525 18.5755 4.775C18.8255 5.025 19.1338 5.15 19.5005 5.15C19.8672 5.15 20.1755 5.025 20.4255 4.775C20.6755 4.525 20.8005 4.225 20.8005 3.875C20.8005 3.50833 20.6755 3.2 20.4255 2.95C20.1755 2.7 19.8672 2.575 19.5005 2.575C19.1338 2.575 18.8255 2.7 18.5755 2.95C18.3255 3.2 18.2005 3.50833 18.2005 3.875Z" fill="black"/>
</g>
<defs>
<clipPath id="clip0_3194_3127">
<rect width="24" height="24" fill="white"/>
</clipPath>
</defs>
</svg>
