<svg width="24" height="24" viewBox="0 0 24 24" fill="none" xmlns="http://www.w3.org/2000/svg">
<g clip-path="url(#clip0_3194_3147)">
<rect width="24" height="24" fill="white"/>
<path d="M2.25 14.775L0.65 14.175V11.925H2.525C2.70833 10.825 2.99167 9.69167 3.375 8.525C3.525 8.075 3.8 7.70833 4.2 7.425C4.61667 7.14167 5.05 7 5.5 7H13C13.45 7 13.875 7.14167 14.275 7.425C14.6917 7.70833 14.975 8.075 15.125 8.525C15.5083 9.69167 15.7917 10.825 15.975 11.925H17.85V14.1L16.25 14.675V21H13.225V19.825H5.275V21H2.25V14.775ZM13.175 11.925C13.0583 11.2583 12.9 10.6417 12.7 10.075C12.6667 9.95833 12.6083 9.875 12.525 9.825C12.4583 9.75833 12.3667 9.725 12.25 9.725H6.25C6.15 9.725 6.05833 9.75833 5.975 9.825C5.89167 9.875 5.83333 9.95833 5.8 10.075C5.6 10.6417 5.44167 11.2583 5.325 11.925H13.175ZM5.925 16.85C6.35833 16.85 6.71667 16.7083 7 16.425C7.28333 16.1417 7.425 15.7917 7.425 15.375C7.425 14.9417 7.28333 14.5917 7 14.325C6.71667 14.0417 6.35833 13.9 5.925 13.9C5.49167 13.9 5.13333 14.0417 4.85 14.325C4.56667 14.5917 4.425 14.9417 4.425 15.375C4.425 15.7917 4.56667 16.1417 4.85 16.425C5.13333 16.7083 5.49167 16.85 5.925 16.85ZM12.6 16.85C13.0333 16.85 13.3917 16.7083 13.675 16.425C13.9583 16.1417 14.1 15.7917 14.1 15.375C14.1 14.9417 13.9583 14.5917 13.675 14.325C13.3917 14.0417 13.0333 13.9 12.6 13.9C12.1667 13.9 11.8083 14.0417 11.525 14.325C11.2417 14.5917 11.1 14.9417 11.1 15.375C11.1 15.7917 11.2417 16.1417 11.525 16.425C11.8083 16.7083 12.1667 16.85 12.6 16.85ZM16.5 4.275C16.5 3.44167 16.7917 2.73333 17.375 2.15C17.9583 1.56667 18.6667 1.275 19.5 1.275C20.35 1.275 21.0583 1.56667 21.625 2.15C22.2083 2.73333 22.5 3.44167 22.5 4.275C22.5 5.05833 22.2083 5.74167 21.625 6.325C21.0583 6.90833 20.3583 7.225 19.525 7.275L20.7 5.4V10.225L18.3 9.825V5.4L19.475 7.275C18.6417 7.225 17.9333 6.90833 17.35 6.325C16.7833 5.74167 16.5 5.05833 16.5 4.275ZM18.65 4.275C18.65 4.525 18.725 4.73333 18.875 4.9C19.0417 5.05 19.25 5.125 19.5 5.125C19.75 5.125 19.95 5.05 20.1 4.9C20.2667 4.73333 20.35 4.525 20.35 4.275C20.35 4.025 20.2667 3.825 20.1 3.675C19.95 3.50833 19.75 3.425 19.5 3.425C19.25 3.425 19.0417 3.50833 18.875 3.675C18.725 3.825 18.65 4.025 18.65 4.275Z" fill="black"/>
</g>
<defs>
<clipPath id="clip0_3194_3147">
<rect width="24" height="24" fill="white"/>
</clipPath>
</defs>
</svg>
