<svg width="24" height="24" viewBox="0 0 24 24" fill="none" xmlns="http://www.w3.org/2000/svg">
<g clip-path="url(#clip0_3194_3279)">
<rect width="24" height="24" fill="white"/>
<path d="M2.25 15.125L0.65 14.475V11.85H2.575C2.79167 10.6833 3.125 9.45833 3.575 8.175C3.69167 7.85833 3.925 7.58333 4.275 7.35C4.625 7.11667 4.975 7 5.325 7H13.175C13.525 7 13.875 7.11667 14.225 7.35C14.575 7.58333 14.8083 7.85833 14.925 8.175C15.375 9.45833 15.7083 10.6833 15.925 11.85H17.85V14.475L16.25 15.125V21H12.675V20.125H5.825V21H2.25V15.125ZM12.7 11.85C12.5667 11.2 12.4 10.6583 12.2 10.225C12.2 10.2083 12.1917 10.2 12.175 10.2C12.175 10.1833 12.1667 10.175 12.15 10.175H6.375C6.35833 10.175 6.34167 10.1833 6.325 10.2C6.30833 10.2 6.3 10.2083 6.3 10.225C6.1 10.6583 5.93333 11.2 5.8 11.85H12.7ZM6.175 17.2C6.64167 17.2 7.025 17.05 7.325 16.75C7.64167 16.4333 7.8 16.05 7.8 15.6C7.8 15.1333 7.64167 14.75 7.325 14.45C7.025 14.15 6.64167 14 6.175 14C5.70833 14 5.31667 14.15 5 14.45C4.7 14.75 4.55 15.1333 4.55 15.6C4.55 16.05 4.7 16.4333 5 16.75C5.31667 17.05 5.70833 17.2 6.175 17.2ZM12.35 17.2C12.8167 17.2 13.2 17.05 13.5 16.75C13.8167 16.4333 13.975 16.05 13.975 15.6C13.975 15.1333 13.8167 14.75 13.5 14.45C13.2 14.15 12.8167 14 12.35 14C11.8833 14 11.4917 14.15 11.175 14.45C10.875 14.75 10.725 15.1333 10.725 15.6C10.725 16.05 10.875 16.4333 11.175 16.75C11.4917 17.05 11.8833 17.2 12.35 17.2ZM20.625 3.1L21.025 3.35L22.05 2.775L23.125 4.675L22.15 5.275V5.725L23.125 6.325L22.05 8.2L21.05 7.625L20.625 7.9V9.025H18.425V7.9L18.025 7.65L17 8.225L15.925 6.325L16.9 5.725V5.275L15.925 4.675L17 2.8L18 3.375L18.425 3.1V1.975H20.625V3.1ZM19.525 6.275C19.7417 6.275 19.925 6.2 20.075 6.05C20.225 5.9 20.3 5.71667 20.3 5.5C20.3 5.28333 20.225 5.1 20.075 4.95C19.925 4.8 19.7417 4.725 19.525 4.725C19.3083 4.725 19.125 4.8 18.975 4.95C18.825 5.1 18.75 5.28333 18.75 5.5C18.75 5.71667 18.825 5.9 18.975 6.05C19.125 6.2 19.3083 6.275 19.525 6.275ZM21.175 4.625H21.125H21.15H21.125H21.175H21.2H21.3H21.325H21.35H21.325H21.3H21.2H21.175ZM21.25 4.625H21.3H21.325H21.35H21.325H21.35H21.325H21.3H21.25H21.225H21.2H21.175H21.15H21.175H21.15H21.175H21.2H21.225H21.25ZM21.2 4.625H21.225H21.3H21.225H21.2ZM21.25 4.625H21.225H21.25Z" fill="black"/>
</g>
<defs>
<clipPath id="clip0_3194_3279">
<rect width="24" height="24" fill="white"/>
</clipPath>
</defs>
</svg>
