<svg width="24" height="24" viewBox="0 0 24 24" fill="none" xmlns="http://www.w3.org/2000/svg">
<g clip-path="url(#clip0_3194_3269)">
<rect width="24" height="24" fill="white"/>
<path d="M2.25 13.075L0.65 12.575V11.05H2.675C2.80833 10.2833 2.98333 9.55 3.2 8.85C3.38333 8.28333 3.69167 7.83333 4.125 7.5C4.575 7.16667 5.08333 7 5.65 7H12.85C13.4 7 13.8917 7.16667 14.325 7.5C14.775 7.83333 15.0917 8.28333 15.275 8.85C15.4917 9.55 15.6667 10.2833 15.8 11.05H17.825V12.5L16.225 13V21H14.6V19.25H3.9V21H2.25V13.075ZM15.025 12.075C14.875 11.075 14.65 10.1 14.35 9.15C14.25 8.78333 14.05 8.49167 13.75 8.275C13.4667 8.04167 13.15 7.925 12.8 7.925H5.7C5.33333 7.925 5 8.04167 4.7 8.275C4.41667 8.49167 4.225 8.78333 4.125 9.15C3.84167 10.1 3.61667 11.075 3.45 12.075H15.025ZM5.25 16.325C5.6 16.325 5.89167 16.2083 6.125 15.975C6.35833 15.725 6.475 15.4333 6.475 15.1C6.475 14.75 6.35833 14.4583 6.125 14.225C5.90833 13.9917 5.61667 13.875 5.25 13.875C4.88333 13.875 4.58333 13.9917 4.35 14.225C4.11667 14.4583 4 14.75 4 15.1C4 15.4333 4.11667 15.725 4.35 15.975C4.6 16.2083 4.9 16.325 5.25 16.325ZM13.25 16.325C13.6 16.325 13.8917 16.2083 14.125 15.975C14.3583 15.725 14.475 15.4333 14.475 15.1C14.475 14.75 14.3583 14.4583 14.125 14.225C13.8917 13.9917 13.6 13.875 13.25 13.875C12.8833 13.875 12.5833 13.9917 12.35 14.225C12.1167 14.4583 12 14.75 12 15.1C12 15.4333 12.1167 15.725 12.35 15.975C12.6 16.2083 12.9 16.325 13.25 16.325ZM20.475 3.125L21.075 3.475L22.2 2.875L23.125 4.475L22.05 5.15V5.85L23.125 6.5L22.225 8.125L21.075 7.5L20.475 7.875L20.425 9.125H18.625L18.575 7.875L17.975 7.525L16.85 8.125L15.925 6.525L17 5.85V5.15L15.925 4.5L16.825 2.875L17.975 3.5L18.575 3.125L18.625 1.875H20.425L20.475 3.125ZM19.525 6.625C19.8583 6.625 20.125 6.51667 20.325 6.3C20.5417 6.08333 20.65 5.81667 20.65 5.5C20.65 5.16667 20.5417 4.9 20.325 4.7C20.125 4.48333 19.8583 4.375 19.525 4.375C19.2083 4.375 18.9417 4.48333 18.725 4.7C18.5083 4.9 18.4 5.16667 18.4 5.5C18.4 5.81667 18.5083 6.08333 18.725 6.3C18.9417 6.51667 19.2083 6.625 19.525 6.625ZM21.575 4.225H21.525H21.55H21.525H21.575H21.6H21.7H21.75H21.725H21.75H21.7H21.6H21.575ZM21.675 4.225H21.7H21.725H21.7H21.725H21.7H21.675H21.625H21.6H21.575H21.55H21.575H21.55H21.575H21.6H21.625H21.675ZM21.6 4.225H21.65H21.7H21.65H21.6ZM21.675 4.225H21.65H21.625H21.65H21.675Z" fill="black"/>
</g>
<defs>
<clipPath id="clip0_3194_3269">
<rect width="24" height="24" fill="white"/>
</clipPath>
</defs>
</svg>
