<svg width="24" height="24" viewBox="0 0 24 24" fill="none" xmlns="http://www.w3.org/2000/svg">
<g clip-path="url(#clip0_3194_3141)">
<rect width="24" height="24" fill="white"/>
<path d="M2.25 13.575L0.65 13.075V11.55H2.525C2.65833 10.6833 2.85 9.84167 3.1 9.025C3.3 8.39167 3.63333 7.9 4.1 7.55C4.58333 7.18333 5.13333 7 5.75 7H12.725C13.3583 7 13.9083 7.18333 14.375 7.55C14.8583 7.9 15.2 8.39167 15.4 9.025C15.65 9.84167 15.8333 10.6833 15.95 11.55H17.85V12.925L16.25 13.4V21H14.45V19.25H4.025V21H2.25V13.575ZM14.6 12.075C14.4667 11.225 14.275 10.3583 14.025 9.475C13.925 9.125 13.75 8.85 13.5 8.65C13.25 8.45 12.9583 8.35 12.625 8.35H5.85C5.53333 8.35 5.25 8.45 5 8.65C4.75 8.85 4.575 9.125 4.475 9.475C4.20833 10.3583 4.01667 11.225 3.9 12.075H14.6ZM5.35 16.225C5.7 16.225 5.99167 16.1083 6.225 15.875C6.45833 15.625 6.575 15.3333 6.575 15C6.575 14.65 6.45833 14.3583 6.225 14.125C6.00833 13.8917 5.71667 13.775 5.35 13.775C4.98333 13.775 4.68333 13.8917 4.45 14.125C4.21667 14.3583 4.1 14.65 4.1 15C4.1 15.3333 4.21667 15.625 4.45 15.875C4.7 16.1083 5 16.225 5.35 16.225ZM13.175 16.225C13.525 16.225 13.8167 16.1083 14.05 15.875C14.2833 15.625 14.4 15.3333 14.4 15C14.4 14.65 14.2833 14.3583 14.05 14.125C13.8167 13.8917 13.525 13.775 13.175 13.775C12.8083 13.775 12.5083 13.8917 12.275 14.125C12.0417 14.3583 11.925 14.65 11.925 15C11.925 15.3333 12.0417 15.625 12.275 15.875C12.525 16.1083 12.825 16.225 13.175 16.225ZM16.8 3.975C16.8 3.225 17.0583 2.59167 17.575 2.075C18.1083 1.54167 18.75 1.275 19.5 1.275C20.2667 1.275 20.9083 1.54167 21.425 2.075C21.9417 2.59167 22.2 3.225 22.2 3.975C22.2 4.70833 21.9417 5.34167 21.425 5.875C20.9083 6.39167 20.275 6.66667 19.525 6.7L20.375 5.55V10.225L18.625 9.825V5.55L19.475 6.7C18.725 6.66667 18.0917 6.39167 17.575 5.875C17.0583 5.34167 16.8 4.70833 16.8 3.975ZM18.5 3.75C18.5 4.03333 18.5917 4.275 18.775 4.475C18.975 4.65833 19.2167 4.75 19.5 4.75C19.7833 4.75 20.0167 4.65833 20.2 4.475C20.4 4.275 20.5 4.03333 20.5 3.75C20.5 3.46667 20.4 3.23333 20.2 3.05C20.0167 2.85 19.7833 2.75 19.5 2.75C19.2167 2.75 18.975 2.85 18.775 3.05C18.5917 3.23333 18.5 3.46667 18.5 3.75Z" fill="black"/>
</g>
<defs>
<clipPath id="clip0_3194_3141">
<rect width="24" height="24" fill="white"/>
</clipPath>
</defs>
</svg>
