<svg width="24" height="24" viewBox="0 0 24 24" fill="none" xmlns="http://www.w3.org/2000/svg">
<g clip-path="url(#clip0_3194_3145)">
<rect width="24" height="24" fill="white"/>
<path d="M2.25 14.4L0.65 13.9V12H2.45C2.6 10.95 2.85 9.9 3.2 8.85C3.38333 8.28333 3.7 7.83333 4.15 7.5C4.6 7.16667 5.11667 7 5.7 7H12.8C13.3833 7 13.9 7.16667 14.35 7.5C14.8 7.83333 15.1167 8.28333 15.3 8.85C15.65 9.9 15.9 10.95 16.05 12H17.85V13.725L16.25 14.25V21H13.775V19.55H4.725V21H2.25V14.4ZM13.675 12C13.575 11.3167 13.4083 10.6333 13.175 9.95C13.125 9.73333 13.025 9.56667 12.875 9.45C12.7417 9.31667 12.575 9.25 12.375 9.25H6.15C5.93333 9.25 5.75 9.31667 5.6 9.45C5.46667 9.56667 5.375 9.73333 5.325 9.95C5.09167 10.6333 4.925 11.3167 4.825 12H13.675ZM5.675 16.5C6.05833 16.5 6.375 16.3667 6.625 16.1C6.89167 15.8333 7.025 15.5167 7.025 15.15C7.025 14.7667 6.9 14.45 6.65 14.2C6.4 13.9333 6.075 13.8 5.675 13.8C5.275 13.8 4.94167 13.9333 4.675 14.2C4.425 14.45 4.3 14.7667 4.3 15.15C4.3 15.5167 4.43333 15.8333 4.7 16.1C4.96667 16.3667 5.29167 16.5 5.675 16.5ZM12.85 16.5C13.2333 16.5 13.55 16.3667 13.8 16.1C14.0667 15.8333 14.2 15.5167 14.2 15.15C14.2 14.7667 14.0667 14.45 13.8 14.2C13.55 13.9333 13.2333 13.8 12.85 13.8C12.45 13.8 12.1167 13.9333 11.85 14.2C11.6 14.45 11.475 14.7667 11.475 15.15C11.475 15.5167 11.6083 15.8333 11.875 16.1C12.1417 16.3667 12.4667 16.5 12.85 16.5ZM16.625 4.15C16.625 3.35 16.9 2.675 17.45 2.125C18.0167 1.55833 18.7 1.275 19.5 1.275C20.3167 1.275 21 1.55833 21.55 2.125C22.1 2.675 22.375 3.35 22.375 4.15C22.375 4.91667 22.1 5.58333 21.55 6.15C21 6.7 20.325 6.99167 19.525 7.025L20.55 5.55V10.225L18.45 9.825V5.55L19.475 7.025C18.675 6.99167 18 6.7 17.45 6.15C16.9 5.58333 16.625 4.91667 16.625 4.15ZM18.55 4.15C18.55 4.41667 18.6417 4.64167 18.825 4.825C19.0083 5.00833 19.2333 5.1 19.5 5.1C19.7667 5.1 19.9917 5.00833 20.175 4.825C20.3583 4.64167 20.45 4.41667 20.45 4.15C20.45 3.88333 20.3583 3.65833 20.175 3.475C19.9917 3.29167 19.7667 3.2 19.5 3.2C19.2333 3.2 19.0083 3.29167 18.825 3.475C18.6417 3.65833 18.55 3.88333 18.55 4.15Z" fill="black"/>
</g>
<defs>
<clipPath id="clip0_3194_3145">
<rect width="24" height="24" fill="white"/>
</clipPath>
</defs>
</svg>
