<svg width="24" height="24" viewBox="0 0 24 24" fill="none" xmlns="http://www.w3.org/2000/svg">
<g clip-path="url(#clip0_3194_3131)">
<rect width="24" height="24" fill="white"/>
<path d="M2.52549 15.125C2.52549 14.0917 2.58382 13.0583 2.70049 12.025C2.83382 10.975 3.02549 10.0417 3.27549 9.225C3.49216 8.54167 3.85049 8.01667 4.35049 7.65C4.85049 7.26667 5.44216 7.075 6.12549 7.075H12.8505C13.5338 7.075 14.1255 7.26667 14.6255 7.65C15.1255 8.01667 15.4755 8.54167 15.6755 9.225C15.9255 10.0417 16.1172 10.975 16.2505 12.025C16.3838 13.0583 16.4505 14.0917 16.4505 15.125V21H14.2255V19.85H4.75049V21H2.52549V15.125ZM5.15049 17.75H5.47549H13.2255H13.4505H14.2255V15.125C14.2255 13.175 14.0088 11.4083 13.5755 9.825C13.5088 9.60833 13.3922 9.45 13.2255 9.35C13.0755 9.23333 12.9005 9.175 12.7005 9.175H6.27549C6.05882 9.175 5.86716 9.23333 5.70049 9.35C5.55049 9.45 5.45049 9.60833 5.40049 9.825C4.96716 11.4083 4.75049 13.175 4.75049 15.125V17.75H5.15049ZM3.62549 11.05H15.3255V13.225H3.62549V11.05ZM6.87549 16.725C6.45882 16.725 6.10882 16.5917 5.82549 16.325C5.55882 16.0417 5.42549 15.7 5.42549 15.3C5.42549 14.9 5.55882 14.575 5.82549 14.325C6.10882 14.0583 6.45882 13.925 6.87549 13.925C7.27549 13.925 7.60882 14.0583 7.87549 14.325C8.14216 14.575 8.27549 14.9 8.27549 15.3C8.27549 15.7 8.13382 16.0417 7.85049 16.325C7.58382 16.5917 7.25882 16.725 6.87549 16.725ZM6.82549 15.075C6.92549 15.075 7.00049 15.075 7.05049 15.075C7.11716 15.075 7.20049 15.075 7.30049 15.075C7.20049 15.075 7.11716 15.075 7.05049 15.075C7.00049 15.075 6.92549 15.075 6.82549 15.075C6.72549 15.075 6.64216 15.075 6.57549 15.075C6.50882 15.075 6.42549 15.075 6.32549 15.075C6.42549 15.075 6.50882 15.075 6.57549 15.075C6.64216 15.075 6.72549 15.075 6.82549 15.075ZM12.1255 16.725C11.7088 16.725 11.3672 16.5917 11.1005 16.325C10.8338 16.0417 10.7005 15.7 10.7005 15.3C10.7005 14.9 10.8338 14.575 11.1005 14.325C11.3672 14.0583 11.7088 13.925 12.1255 13.925C12.5255 13.925 12.8588 14.0583 13.1255 14.325C13.3922 14.575 13.5255 14.9 13.5255 15.3C13.5255 15.7 13.3922 16.0417 13.1255 16.325C12.8588 16.5917 12.5255 16.725 12.1255 16.725ZM12.1505 15.025C12.2672 15.025 12.3505 15.025 12.4005 15.025C12.4672 15.025 12.5672 15.025 12.7005 15.025C12.5672 15.025 12.4672 15.025 12.4005 15.025C12.3505 15.025 12.2672 15.025 12.1505 15.025C12.0172 15.025 11.9172 15.025 11.8505 15.025C11.8005 15.025 11.7172 15.025 11.6005 15.025C11.7172 15.025 11.8005 15.025 11.8505 15.025C11.9172 15.025 12.0172 15.025 12.1505 15.025ZM0.925488 12.875V11.05H3.32549V11.55V11.875V12.225L3.30049 12.6V13.55L0.925488 12.875ZM15.6755 12.7L15.6505 12.325V11.95L15.6255 11.625V11.05H18.0505V12.875L15.6755 13.55V12.7ZM16.6255 4.15C16.6255 3.35 16.9005 2.675 17.4505 2.125C18.0172 1.55833 18.7005 1.275 19.5005 1.275C20.3172 1.275 21.0005 1.55833 21.5505 2.125C22.1005 2.675 22.3755 3.35 22.3755 4.15C22.3755 4.91667 22.1005 5.58333 21.5505 6.15C21.0005 6.7 20.3255 6.99167 19.5255 7.025L20.5505 5.55V10.225L18.4505 9.825V5.55L19.4755 7.025C18.6755 6.99167 18.0005 6.7 17.4505 6.15C16.9005 5.58333 16.6255 4.91667 16.6255 4.15ZM18.5505 4.15C18.5505 4.41667 18.6422 4.64167 18.8255 4.825C19.0088 5.00833 19.2338 5.1 19.5005 5.1C19.7672 5.1 19.9922 5.00833 20.1755 4.825C20.3588 4.64167 20.4505 4.41667 20.4505 4.15C20.4505 3.88333 20.3588 3.65833 20.1755 3.475C19.9922 3.29167 19.7672 3.2 19.5005 3.2C19.2338 3.2 19.0088 3.29167 18.8255 3.475C18.6422 3.65833 18.5505 3.88333 18.5505 4.15Z" fill="black"/>
</g>
<defs>
<clipPath id="clip0_3194_3131">
<rect width="24" height="24" fill="white"/>
</clipPath>
</defs>
</svg>
