<svg width="24" height="24" viewBox="0 0 24 24" fill="none" xmlns="http://www.w3.org/2000/svg">
<g clip-path="url(#clip0_3194_3399)">
<rect width="24" height="24" fill="white"/>
<path d="M2.25 13.075L0.65 12.575V11.05H2.675C2.80833 10.2833 2.98333 9.55 3.2 8.85C3.38333 8.28333 3.69167 7.83333 4.125 7.5C4.575 7.16667 5.08333 7 5.65 7H12.85C13.4 7 13.8917 7.16667 14.325 7.5C14.775 7.83333 15.0917 8.28333 15.275 8.85C15.4917 9.55 15.6667 10.2833 15.8 11.05H17.825V12.5L16.225 13V21H14.6V19.25H3.9V21H2.25V13.075ZM15.025 12.075C14.875 11.075 14.65 10.1 14.35 9.15C14.25 8.78333 14.05 8.49167 13.75 8.275C13.4667 8.04167 13.15 7.925 12.8 7.925H5.7C5.33333 7.925 5 8.04167 4.7 8.275C4.41667 8.49167 4.225 8.78333 4.125 9.15C3.84167 10.1 3.61667 11.075 3.45 12.075H15.025ZM5.25 16.325C5.6 16.325 5.89167 16.2083 6.125 15.975C6.35833 15.725 6.475 15.4333 6.475 15.1C6.475 14.75 6.35833 14.4583 6.125 14.225C5.90833 13.9917 5.61667 13.875 5.25 13.875C4.88333 13.875 4.58333 13.9917 4.35 14.225C4.11667 14.4583 4 14.75 4 15.1C4 15.4333 4.11667 15.725 4.35 15.975C4.6 16.2083 4.9 16.325 5.25 16.325ZM13.25 16.325C13.6 16.325 13.8917 16.2083 14.125 15.975C14.3583 15.725 14.475 15.4333 14.475 15.1C14.475 14.75 14.3583 14.4583 14.125 14.225C13.8917 13.9917 13.6 13.875 13.25 13.875C12.8833 13.875 12.5833 13.9917 12.35 14.225C12.1167 14.4583 12 14.75 12 15.1C12 15.4333 12.1167 15.725 12.35 15.975C12.6 16.2083 12.9 16.325 13.25 16.325ZM15.95 7.2C15.95 6.61667 16.1167 6.175 16.45 5.875C16.7833 5.55833 17.2333 5.4 17.8 5.4C18.3833 5.4 18.85 5.55833 19.2 5.875C19.5667 6.19167 19.75 6.63333 19.75 7.2V8.1H15.95V7.2ZM17.8 4.65C17.4333 4.65 17.125 4.525 16.875 4.275C16.6417 4.025 16.525 3.71667 16.525 3.35C16.525 3 16.65 2.7 16.9 2.45C17.15 2.18333 17.45 2.05 17.8 2.05C18.1667 2.05 18.475 2.18333 18.725 2.45C18.975 2.7 19.1 3 19.1 3.35C19.1 3.71667 18.9667 4.025 18.7 4.275C18.45 4.525 18.15 4.65 17.8 4.65ZM19.7 7.2C19.7 6.61667 19.8667 6.175 20.2 5.875C20.5333 5.55833 20.9833 5.4 21.55 5.4C22.1333 5.4 22.6 5.55833 22.95 5.875C23.3167 6.19167 23.5 6.63333 23.5 7.2V8.1H19.7V7.2ZM21.55 4.65C21.1833 4.65 20.875 4.525 20.625 4.275C20.3917 4.025 20.275 3.71667 20.275 3.35C20.275 3 20.4 2.7 20.65 2.45C20.9 2.18333 21.2 2.05 21.55 2.05C21.9167 2.05 22.225 2.18333 22.475 2.45C22.725 2.7 22.85 3 22.85 3.35C22.85 3.71667 22.7167 4.025 22.45 4.275C22.2 4.525 21.9 4.65 21.55 4.65Z" fill="black"/>
</g>
<defs>
<clipPath id="clip0_3194_3399">
<rect width="24" height="24" fill="white"/>
</clipPath>
</defs>
</svg>
