<svg width="24" height="24" viewBox="0 0 24 24" fill="none" xmlns="http://www.w3.org/2000/svg">
<g clip-path="url(#clip0_3194_3781)">
<rect width="24" height="24" fill="white"/>
<path d="M2.17549 10.175H22.4755L19.6755 17.875H17.1755L19.7255 10.925L20.6005 12.45H4.50049V17.7H2.17549V10.175ZM13.5005 3.325L14.3005 5.75H11.8755L11.1005 3.325H13.5005ZM5.50049 5.175H14.7755C15.5088 5.175 16.1755 5.38333 16.7755 5.8C17.3755 6.2 17.7838 6.74167 18.0005 7.425L19.3505 11.525H16.8505L15.7505 8.125C15.6838 7.90833 15.5672 7.74167 15.4005 7.625C15.2338 7.50833 15.0338 7.45 14.8005 7.45H7.82549V11.525H5.50049V5.175ZM18.0255 17.45C18.5422 17.45 18.9755 17.4 19.3255 17.3C19.6922 17.1833 20.1338 17.0167 20.6505 16.8C21.2005 16.55 21.6922 16.3583 22.1255 16.225C22.5755 16.0917 23.1172 16.025 23.7505 16.025V18.325C23.3172 18.325 22.9255 18.375 22.5755 18.475C22.2422 18.575 21.8588 18.7333 21.4255 18.95C20.8422 19.2167 20.3088 19.4167 19.8255 19.55C19.3588 19.6833 18.7588 19.75 18.0255 19.75C17.3088 19.75 16.7005 19.6833 16.2005 19.55C15.7172 19.4167 15.1922 19.225 14.6255 18.975C14.1255 18.7583 13.6838 18.6 13.3005 18.5C12.9338 18.3833 12.5005 18.325 12.0005 18.325C11.5005 18.325 11.0672 18.3833 10.7005 18.5C10.3338 18.6 9.89216 18.7583 9.37549 18.975C8.77549 19.225 8.23382 19.4167 7.75049 19.55C7.28382 19.6833 6.70049 19.75 6.00049 19.75C5.26716 19.75 4.65882 19.6833 4.17549 19.55C3.70882 19.4167 3.17549 19.2167 2.57549 18.95C2.14216 18.7333 1.75049 18.575 1.40049 18.475C1.06715 18.375 0.683822 18.325 0.250488 18.325V16.025C0.900488 16.025 1.44216 16.0917 1.87549 16.225C2.32549 16.3583 2.82549 16.55 3.37549 16.8C3.89216 17.0167 4.32549 17.1833 4.67549 17.3C5.04216 17.4 5.48382 17.45 6.00049 17.45C6.50049 17.45 6.93382 17.4 7.30049 17.3C7.68382 17.1833 8.12549 17.0167 8.62549 16.8C9.22549 16.55 9.75882 16.3583 10.2255 16.225C10.7088 16.0917 11.3005 16.025 12.0005 16.025C12.7005 16.025 13.2838 16.0917 13.7505 16.225C14.2338 16.3583 14.7755 16.55 15.3755 16.8C15.8755 17.0167 16.3088 17.1833 16.6755 17.3C17.0588 17.4 17.5088 17.45 18.0255 17.45Z" fill="black"/>
</g>
<defs>
<clipPath id="clip0_3194_3781">
<rect width="24" height="24" fill="white"/>
</clipPath>
</defs>
</svg>
