<svg width="24" height="24" viewBox="0 0 24 24" fill="none" xmlns="http://www.w3.org/2000/svg">
<g clip-path="url(#clip0_3196_4335)">
<rect width="24" height="24" fill="white"/>
<path d="M18.9255 10.775C19.7088 11.0583 20.3088 11.5167 20.7255 12.15C21.1422 12.7667 21.2838 13.4583 21.1505 14.225L20.2005 19.775H17.8755L18.8755 13.95C18.9088 13.7167 18.8672 13.5083 18.7505 13.325C18.6338 13.125 18.4422 12.9833 18.1755 12.9L12.0005 10.65L5.82549 12.9C5.54216 13 5.34216 13.15 5.22549 13.35C5.12549 13.5333 5.09216 13.7333 5.12549 13.95L6.12549 19.75H3.80049L2.85049 14.225C2.71716 13.475 2.85049 12.7917 3.25049 12.175C3.65049 11.5417 4.25882 11.075 5.07549 10.775L12.0005 8.25L18.9255 10.775ZM5.00049 5.4C5.00049 4.86667 5.18382 4.41667 5.55049 4.05C5.91716 3.68333 6.36716 3.5 6.90049 3.5H17.1005C17.6338 3.5 18.0838 3.68333 18.4505 4.05C18.8172 4.41667 19.0005 4.86667 19.0005 5.4V11.65L16.7005 11.05V5.8C16.7005 5.78333 16.6922 5.775 16.6755 5.775C16.6755 5.75833 16.6672 5.75 16.6505 5.75H7.35049C7.33382 5.75 7.31716 5.75833 7.30049 5.775C7.30049 5.775 7.30049 5.78333 7.30049 5.8V11.05L5.00049 11.65V5.4ZM17.5755 19.025C18.0255 19.025 18.4172 18.975 18.7505 18.875C19.1005 18.7583 19.4922 18.575 19.9255 18.325C20.4922 18.0417 20.9838 17.8333 21.4005 17.7C21.8338 17.55 22.3672 17.475 23.0005 17.475V19.675C22.6172 19.675 22.2672 19.7333 21.9505 19.85C21.6505 19.95 21.2838 20.1167 20.8505 20.35C20.3005 20.6333 19.7922 20.85 19.3255 21C18.8588 21.15 18.2755 21.225 17.5755 21.225C16.8922 21.225 16.3172 21.15 15.8505 21C15.4005 20.8667 14.9005 20.65 14.3505 20.35C13.8672 20.1167 13.4588 19.95 13.1255 19.85C12.8088 19.7333 12.4338 19.675 12.0005 19.675C11.5672 19.675 11.1838 19.7333 10.8505 19.85C10.5338 19.95 10.1338 20.1167 9.65049 20.35C9.10049 20.6333 8.59216 20.85 8.12549 21C7.65882 21.15 7.09216 21.225 6.42549 21.225C5.72549 21.225 5.14216 21.15 4.67549 21C4.20882 20.85 3.70049 20.6333 3.15049 20.35C2.71715 20.1167 2.34215 19.95 2.02549 19.85C1.72549 19.7333 1.38382 19.675 1.00049 19.675V17.475C1.63382 17.475 2.15882 17.55 2.57549 17.7C3.00882 17.8333 3.50882 18.0417 4.07549 18.325C4.50882 18.575 4.89216 18.7583 5.22549 18.875C5.57549 18.975 5.97549 19.025 6.42549 19.025C6.85882 19.025 7.23382 18.975 7.55049 18.875C7.88382 18.7583 8.28382 18.5833 8.75049 18.35C9.30049 18.0833 9.80882 17.875 10.2755 17.725C10.7588 17.5583 11.3338 17.475 12.0005 17.475C12.6838 17.475 13.2588 17.55 13.7255 17.7C14.1922 17.85 14.7005 18.0667 15.2505 18.35C15.7172 18.5833 16.1088 18.7583 16.4255 18.875C16.7588 18.975 17.1422 19.025 17.5755 19.025ZM13.1505 9.7V18.375H10.8505V9.7H13.1505ZM13.1255 2L13.3505 4.6H10.6505L10.8755 2H13.1255Z" fill="black"/>
</g>
<defs>
<clipPath id="clip0_3196_4335">
<rect width="24" height="24" fill="white"/>
</clipPath>
</defs>
</svg>
