<svg width="24" height="24" viewBox="0 0 24 24" fill="none" xmlns="http://www.w3.org/2000/svg">
<g clip-path="url(#clip0_3194_3779)">
<rect width="24" height="24" fill="white"/>
<path d="M2.00049 10.5H22.6505L19.8255 18.2H17.9505L20.5255 11.25L20.7755 12.2H3.75049V17.7H2.00049V10.5ZM13.6005 3.5L14.3755 5.925H12.6005L11.8255 3.5H13.6005ZM5.50049 5.5H14.9505C15.6672 5.5 16.3088 5.7 16.8755 6.1C17.4422 6.48333 17.8338 7.00833 18.0505 7.675L19.4505 11.95H17.5755L16.3755 8.2C16.2755 7.88333 16.1005 7.64167 15.8505 7.475C15.6005 7.29167 15.3005 7.2 14.9505 7.2H7.25049V11.95H5.50049V5.5ZM18.1755 17.775C18.6922 17.775 19.1338 17.7167 19.5005 17.6C19.8672 17.4833 20.3172 17.3083 20.8505 17.075C21.4005 16.8083 21.9005 16.6083 22.3505 16.475C22.8005 16.3417 23.3505 16.275 24.0005 16.275V17.975C23.5505 17.975 23.1505 18.0333 22.8005 18.15C22.4672 18.25 22.0755 18.4167 21.6255 18.65C21.0255 18.9333 20.4838 19.15 20.0005 19.3C19.5172 19.4333 18.9088 19.5 18.1755 19.5C17.4255 19.5 16.8005 19.4333 16.3005 19.3C15.8005 19.15 15.2588 18.9417 14.6755 18.675C14.1755 18.4417 13.7338 18.2667 13.3505 18.15C12.9672 18.0333 12.5172 17.975 12.0005 17.975C11.4838 17.975 11.0422 18.0333 10.6755 18.15C10.3088 18.2667 9.85882 18.4417 9.32549 18.675C8.70882 18.9417 8.15882 19.15 7.67549 19.3C7.19216 19.4333 6.59216 19.5 5.87549 19.5C5.12549 19.5 4.50882 19.4333 4.02549 19.3C3.54216 19.15 2.99215 18.9333 2.37549 18.65C1.92549 18.4167 1.52549 18.25 1.17549 18.15C0.842155 18.0333 0.450488 17.975 0.000488281 17.975V16.275C0.667155 16.275 1.22549 16.3417 1.67549 16.475C2.12549 16.6083 2.62549 16.8083 3.17549 17.075C3.70882 17.3083 4.15882 17.4833 4.52549 17.6C4.89216 17.7167 5.34216 17.775 5.87549 17.775C6.39216 17.775 6.84216 17.7167 7.22549 17.6C7.60882 17.4833 8.05049 17.3167 8.55049 17.1C9.16716 16.8167 9.71716 16.6083 10.2005 16.475C10.6838 16.3417 11.2838 16.275 12.0005 16.275C12.7172 16.275 13.3172 16.3417 13.8005 16.475C14.2838 16.6083 14.8338 16.8083 15.4505 17.075C15.9505 17.3083 16.3922 17.4833 16.7755 17.6C17.1755 17.7167 17.6422 17.775 18.1755 17.775Z" fill="black"/>
</g>
<defs>
<clipPath id="clip0_3194_3779">
<rect width="24" height="24" fill="white"/>
</clipPath>
</defs>
</svg>
