<svg width="24" height="24" viewBox="0 0 24 24" fill="none" xmlns="http://www.w3.org/2000/svg">
<g clip-path="url(#clip0_3196_4351)">
<rect width="24" height="24" fill="white"/>
<path d="M6.475 16.65C6.05833 16.65 5.7 16.5917 5.4 16.475C5.1 16.3583 4.73333 16.175 4.3 15.925C3.88333 15.6917 3.48333 15.5 3.1 15.35L2.7 13.125C2.6 12.625 2.70833 12.1417 3.025 11.675C3.34167 11.1917 3.76667 10.85 4.3 10.65L12 7.875L19.7 10.65C20.2333 10.85 20.65 11.1917 20.95 11.675C21.2667 12.1417 21.3667 12.6417 21.25 13.175L20.875 15.35C20.575 15.4667 20.1917 15.6583 19.725 15.925C19.275 16.175 18.8917 16.3583 18.575 16.475C18.275 16.5917 17.9333 16.65 17.55 16.65C17.15 16.65 16.7917 16.6 16.475 16.5C16.175 16.3833 15.7917 16.2167 15.325 16C14.775 15.7167 14.25 15.5 13.75 15.35C13.2667 15.2 12.6833 15.125 12 15.125C11.3 15.125 10.7167 15.2 10.25 15.35C9.78333 15.5 9.25833 15.7167 8.675 16C8.19167 16.2167 7.8 16.3833 7.5 16.5C7.2 16.6 6.85833 16.65 6.475 16.65ZM6.45 21.35C5.76667 21.35 5.175 21.275 4.675 21.125C4.19167 20.975 3.675 20.7583 3.125 20.475C2.675 20.2417 2.3 20.075 2 19.975C1.7 19.875 1.36667 19.825 1 19.825V17.125C1.65 17.125 2.20833 17.2 2.675 17.35C3.15833 17.4833 3.675 17.6917 4.225 17.975C4.69167 18.2083 5.08333 18.3833 5.4 18.5C5.71667 18.6 6.06667 18.65 6.45 18.65C6.85 18.65 7.2 18.6 7.5 18.5C7.81667 18.3833 8.21667 18.2167 8.7 18C9.23333 17.7167 9.74167 17.5 10.225 17.35C10.725 17.2 11.3167 17.125 12 17.125C12.6833 17.125 13.2667 17.2 13.75 17.35C14.25 17.5 14.7667 17.7167 15.3 18C15.7833 18.2167 16.175 18.3833 16.475 18.5C16.7917 18.6 17.15 18.65 17.55 18.65C17.9333 18.65 18.2833 18.6 18.6 18.5C18.9167 18.3833 19.3083 18.2083 19.775 17.975C20.325 17.6917 20.8333 17.4833 21.3 17.35C21.7833 17.2 22.35 17.125 23 17.125V19.825C22.6333 19.825 22.3 19.875 22 19.975C21.7 20.075 21.325 20.2417 20.875 20.475C20.325 20.7583 19.8 20.975 19.3 21.125C18.8167 21.275 18.2333 21.35 17.55 21.35C16.8667 21.35 16.275 21.275 15.775 21.125C15.2917 20.975 14.775 20.7583 14.225 20.475C13.7583 20.2417 13.3667 20.075 13.05 19.975C12.7333 19.875 12.3833 19.825 12 19.825C11.6167 19.825 11.2667 19.875 10.95 19.975C10.6333 20.075 10.2417 20.2417 9.775 20.475C9.225 20.7583 8.7 20.975 8.2 21.125C7.71667 21.275 7.13333 21.35 6.45 21.35ZM5 5.4C5 4.86667 5.18333 4.41667 5.55 4.05C5.91667 3.68333 6.36667 3.5 6.9 3.5H17.1C17.6333 3.5 18.0833 3.68333 18.45 4.05C18.8167 4.41667 19 4.86667 19 5.4V11.175L16.2 10.55V6.3C16.2 6.28333 16.1917 6.275 16.175 6.275C16.175 6.25833 16.1667 6.25 16.15 6.25H7.85C7.83333 6.25 7.81667 6.25833 7.8 6.275C7.8 6.275 7.8 6.28333 7.8 6.3V10.55L5 11.175V5.4ZM10 2H14L15 4.6H9L10 2Z" fill="black"/>
</g>
<defs>
<clipPath id="clip0_3196_4351">
<rect width="24" height="24" fill="white"/>
</clipPath>
</defs>
</svg>
