<svg width="24" height="24" viewBox="0 0 24 24" fill="none" xmlns="http://www.w3.org/2000/svg">
<g clip-path="url(#clip0_3194_3797)">
<rect width="24" height="24" fill="white"/>
<path d="M5.5 4.825H14.625C15.375 4.825 16.0583 5.04167 16.675 5.475C17.2917 5.90833 17.7083 6.46667 17.925 7.15L19.225 11.125H16.15L15.15 8.075C15.1 7.95833 15.0333 7.86667 14.95 7.8C14.8667 7.73333 14.7583 7.7 14.625 7.7H8.425V11.125H5.5V4.825ZM6.125 15.125C5.625 15.125 5.20833 15.075 4.875 14.975C4.54167 14.875 4.16667 14.725 3.75 14.525C3.53333 14.425 3.30833 14.3333 3.075 14.25C2.84167 14.15 2.59167 14.0667 2.325 14V9.675H22.325L20.65 14.35C20.3833 14.4667 20.1833 14.5583 20.05 14.625C19.7 14.7917 19.3583 14.9167 19.025 15C18.7083 15.0833 18.3333 15.125 17.9 15.125C17.4 15.125 16.9583 15.075 16.575 14.975C16.2083 14.8583 15.7917 14.7 15.325 14.5C14.7417 14.2667 14.2167 14.0917 13.75 13.975C13.2833 13.8583 12.7 13.8 12 13.8C11.3167 13.8 10.7417 13.8583 10.275 13.975C9.80833 14.0917 9.28333 14.2667 8.7 14.5C8.21667 14.7167 7.79167 14.875 7.425 14.975C7.05833 15.075 6.625 15.125 6.125 15.125ZM6.125 20C5.40833 20 4.81667 19.9417 4.35 19.825C3.88333 19.6917 3.35833 19.5 2.775 19.25C2.34167 19.05 1.95833 18.9 1.625 18.8C1.30833 18.7 0.933333 18.65 0.5 18.65V15.8C1.13333 15.8 1.66667 15.8583 2.1 15.975C2.53333 16.0917 3.01667 16.2667 3.55 16.5C4.06667 16.7167 4.5 16.875 4.85 16.975C5.2 17.075 5.625 17.125 6.125 17.125C6.625 17.125 7.05833 17.075 7.425 16.975C7.79167 16.875 8.21667 16.725 8.7 16.525C9.28333 16.275 9.80833 16.0917 10.275 15.975C10.7417 15.8583 11.3167 15.8 12 15.8C12.7 15.8 13.2833 15.8583 13.75 15.975C14.2167 16.0917 14.7417 16.2667 15.325 16.5C15.7917 16.7 16.2083 16.8583 16.575 16.975C16.9583 17.075 17.4 17.125 17.9 17.125C18.4 17.125 18.825 17.075 19.175 16.975C19.5417 16.8583 19.975 16.7 20.475 16.5C20.9917 16.2667 21.4667 16.0917 21.9 15.975C22.3333 15.8583 22.8667 15.8 23.5 15.8V18.65C23.0667 18.65 22.6833 18.7 22.35 18.8C22.0333 18.9 21.6583 19.05 21.225 19.25C20.6417 19.5 20.1167 19.6917 19.65 19.825C19.1833 19.9417 18.6 20 17.9 20C17.1833 20 16.5917 19.9417 16.125 19.825C15.6583 19.6917 15.1333 19.5083 14.55 19.275C14.0833 19.075 13.6667 18.925 13.3 18.825C12.9333 18.7083 12.5 18.65 12 18.65C11.5 18.65 11.0667 18.7083 10.7 18.825C10.35 18.925 9.93333 19.075 9.45 19.275C8.86667 19.5083 8.34167 19.6917 7.875 19.825C7.40833 19.9417 6.825 20 6.125 20ZM13.425 3.175L14.2 5.6H11.175L10.375 3.175H13.425Z" fill="black"/>
</g>
<defs>
<clipPath id="clip0_3194_3797">
<rect width="24" height="24" fill="white"/>
</clipPath>
</defs>
</svg>
