<svg width="24" height="24" viewBox="0 0 24 24" fill="none" xmlns="http://www.w3.org/2000/svg">
<g clip-path="url(#clip0_3194_2815)">
<rect width="24" height="24" fill="white"/>
<path d="M9.17549 14.65H6.52549L5.57549 17H1.10049L2.45049 12L1.10049 7H5.57549L6.52549 9.35H9.17549L7.90049 2H12.4755L15.1505 9.35H19.0505C20.1672 9.35 21.0172 9.58333 21.6005 10.05C22.2005 10.5167 22.5005 11.1667 22.5005 12C22.5005 12.8333 22.2005 13.4833 21.6005 13.95C21.0172 14.4167 20.1672 14.65 19.0505 14.65H15.1505L12.4755 22H7.90049L9.17549 14.65ZM11.5005 20.675L14.1755 13.325H19.0505C19.7505 13.325 20.2672 13.2167 20.6005 13C20.9505 12.7667 21.1255 12.4333 21.1255 12C21.1255 11.5667 20.9505 11.2417 20.6005 11.025C20.2672 10.7917 19.7505 10.675 19.0505 10.675H14.1755L11.5005 3.325H9.50049L10.8005 10.675H5.60049L4.65049 8.325H2.87549L3.90049 12L2.87549 15.675H4.65049L5.60049 13.325H10.8005L9.50049 20.675H11.5005ZM17.2255 1.1L19.5505 3.475L21.8755 1.1L22.7505 2L20.4005 4.325L22.7505 6.65L21.8755 7.55L19.5505 5.175L17.2255 7.55L16.3255 6.65L18.6755 4.325L16.3255 2L17.2255 1.1Z" fill="black"/>
</g>
<defs>
<clipPath id="clip0_3194_2815">
<rect width="24" height="24" fill="white"/>
</clipPath>
</defs>
</svg>
