<svg width="24" height="24" viewBox="0 0 24 24" fill="none" xmlns="http://www.w3.org/2000/svg">
<g clip-path="url(#clip0_3194_2837)">
<rect width="24" height="24" fill="white"/>
<path d="M9.95 13.9H5.3L4.175 16.975H1.1L2.45 12L1.1 7H4.175L5.3 10.1H9.95L8.525 2H11.375L14.375 10.1H19.8C20.65 10.1 21.3083 10.275 21.775 10.625C22.2583 10.975 22.5 11.4333 22.5 12C22.5 12.5667 22.2583 13.025 21.775 13.375C21.3083 13.725 20.65 13.9 19.8 13.9H14.375L11.375 22H8.525L9.95 13.9ZM18.1 0.724999L19.575 2.35L21.025 0.699999L23.15 2.825L21.5 4.325L23.15 5.825L21.025 7.925L19.55 6.3L18.075 7.925L15.95 5.8L17.575 4.325L15.95 2.85L18.1 0.724999Z" fill="black"/>
</g>
<defs>
<clipPath id="clip0_3194_2837">
<rect width="24" height="24" fill="white"/>
</clipPath>
</defs>
</svg>
