<svg width="24" height="24" viewBox="0 0 24 24" fill="none" xmlns="http://www.w3.org/2000/svg">
<g clip-path="url(#clip0_3194_2813)">
<rect width="24" height="24" fill="white"/>
<path d="M9.35049 14.325H5.92549L4.90049 17H1.10049L2.45049 12L1.10049 7H4.90049L5.92549 9.675H9.35049L8.02549 2H12.0505L14.8755 9.675H19.3755C20.3922 9.675 21.1672 9.88333 21.7005 10.3C22.2338 10.7 22.5005 11.2667 22.5005 12C22.5005 12.7333 22.2338 13.3083 21.7005 13.725C21.1672 14.125 20.3922 14.325 19.3755 14.325H14.8755L12.0505 22H8.02549L9.35049 14.325ZM11.4005 21.1L14.2255 13.425H19.3755C20.0922 13.425 20.6338 13.3 21.0005 13.05C21.3838 12.8 21.5755 12.45 21.5755 12C21.5755 11.55 21.3838 11.2 21.0005 10.95C20.6338 10.7 20.0922 10.575 19.3755 10.575H14.2255L11.4005 2.9H9.15049L10.4755 10.575H5.30049L4.27549 7.9H2.30049L3.42549 12L2.30049 16.1H4.27549L5.30049 13.425H10.4755L9.15049 21.1H11.4005ZM16.9505 1.125L19.5505 3.725L22.1255 1.125L22.7505 1.75L20.1505 4.325L22.7505 6.9L22.1255 7.525L19.5505 4.925L16.9505 7.525L16.3505 6.9L18.9505 4.325L16.3505 1.75L16.9505 1.125Z" fill="black"/>
</g>
<defs>
<clipPath id="clip0_3194_2813">
<rect width="24" height="24" fill="white"/>
</clipPath>
</defs>
</svg>
