<svg width="24" height="24" viewBox="0 0 24 24" fill="none" xmlns="http://www.w3.org/2000/svg">
<g clip-path="url(#clip0_3194_2823)">
<rect width="24" height="24" fill="white"/>
<path d="M10.2255 13.75H5.62549L4.32549 16.975H1.10049L2.45049 12L1.10049 7H4.32549L5.62549 10.25H10.2255L8.80049 2H12.1505L14.3505 10.25H19.8005C20.6672 10.25 21.3338 10.4 21.8005 10.7C22.2672 11 22.5005 11.4333 22.5005 12C22.5005 12.5667 22.2672 13 21.8005 13.3C21.3338 13.6 20.6672 13.75 19.8005 13.75H14.3505L12.1505 22H8.80049L10.2255 13.75ZM11.3755 12H13.0755H15.3755C15.5922 12 15.7505 12 15.8505 12C15.9505 12 16.1088 12 16.3255 12C16.1088 12 15.9505 12 15.8505 12C15.7505 12 15.5922 12 15.3755 12H13.0755H11.3755H10.4255H11.4755H8.82549H8.05049H7.40049H8.00049H7.40049H8.05049H8.82549H11.4755H10.4255H11.3755ZM18.1005 0.724999L19.5755 2.35L21.0255 0.699999L23.1505 2.825L21.5005 4.325L23.1505 5.825L21.0255 7.925L19.5505 6.3L18.0755 7.925L15.9505 5.8L17.5755 4.325L15.9505 2.85L18.1005 0.724999Z" fill="black"/>
</g>
<defs>
<clipPath id="clip0_3194_2823">
<rect width="24" height="24" fill="white"/>
</clipPath>
</defs>
</svg>
