<svg width="24" height="24" viewBox="0 0 24 24" fill="none" xmlns="http://www.w3.org/2000/svg">
<g clip-path="url(#clip0_3196_4265)">
<rect width="24" height="24" fill="white"/>
<path d="M11.525 5.625H12.475V10.075H11.525V5.625ZM22.875 5C23.0083 5 23.1167 5.04167 23.2 5.125C23.2833 5.20833 23.325 5.31667 23.325 5.45C23.325 5.56667 23.2833 5.675 23.2 5.775C23.1167 5.85833 23.0083 5.9 22.875 5.9H1.125C0.991667 5.9 0.883333 5.85833 0.8 5.775C0.716667 5.69167 0.675 5.58333 0.675 5.45C0.675 5.31667 0.716667 5.20833 0.8 5.125C0.883333 5.04167 0.991667 5 1.125 5H22.875ZM22.075 13C22.8583 13.7833 23.2333 14.65 23.2 15.6C23.1833 16.55 22.825 17.3583 22.125 18.025C21.4417 18.675 20.5917 19 19.575 19H10.45L7.5 13.725L7.925 14H1V7.5H4.4L5.525 9.5H18.575L22.075 13ZM21.2 13.475L18.125 10.425H13V11.975C13 12.3917 13.1417 12.75 13.425 13.05C13.725 13.3333 14.0833 13.475 14.5 13.475H21.2Z" fill="black"/>
</g>
<defs>
<clipPath id="clip0_3196_4265">
<rect width="24" height="24" fill="white"/>
</clipPath>
</defs>
</svg>
