<svg width="24" height="24" viewBox="0 0 24 24" fill="none" xmlns="http://www.w3.org/2000/svg">
<g clip-path="url(#clip0_3196_4275)">
<rect width="24" height="24" fill="white"/>
<path d="M10.5 7.25H13.5V10.65H10.5V7.25ZM21.825 5C22.2583 5 22.6167 5.14167 22.9 5.425C23.1833 5.70833 23.325 6.06667 23.325 6.5C23.325 6.91667 23.1833 7.275 22.9 7.575C22.6167 7.85833 22.2583 8 21.825 8H2.175C1.75833 8 1.4 7.85833 1.1 7.575C0.816667 7.275 0.675 6.91667 0.675 6.5C0.675 6.06667 0.816667 5.70833 1.1 5.425C1.4 5.14167 1.75833 5 2.175 5H21.825ZM21.725 12.75C22.5917 13.6167 23.0667 14.5417 23.15 15.525C23.25 16.5083 23 17.3333 22.4 18C21.8 18.6667 20.9917 19 19.975 19H9.45L7.05 14.725L7.475 15H1V8.75H5.4L6 9.75H18.725L21.725 12.75ZM19 15L17.1 13.1H13V14C13 14.2667 13.1 14.5 13.3 14.7C13.5 14.9 13.7333 15 14 15H19Z" fill="black"/>
</g>
<defs>
<clipPath id="clip0_3196_4275">
<rect width="24" height="24" fill="white"/>
</clipPath>
</defs>
</svg>
