<svg width="24" height="24" viewBox="0 0 24 24" fill="none" xmlns="http://www.w3.org/2000/svg">
<g clip-path="url(#clip0_3196_4273)">
<rect width="24" height="24" fill="white"/>
<path d="M10.7 6.975H13.3V10.575H10.7V6.975ZM23 5V7.575H1V5H23ZM21.85 12.825C22.6833 13.675 23.125 14.5833 23.175 15.55C23.225 16.5167 22.9333 17.3333 22.3 18C21.6833 18.6667 20.8667 19 19.85 19H10.325L6.075 11.475L9.3 13.75H1V8.325H4.175L4.95 9.675H18.675L21.85 12.825ZM19.475 14.675L17.325 12.525H13V13.5C13 13.8167 13.1167 14.0917 13.35 14.325C13.5833 14.5583 13.8583 14.675 14.175 14.675H19.475Z" fill="black"/>
</g>
<defs>
<clipPath id="clip0_3196_4273">
<rect width="24" height="24" fill="white"/>
</clipPath>
</defs>
</svg>
