<svg width="24" height="24" viewBox="0 0 24 24" fill="none" xmlns="http://www.w3.org/2000/svg">
<g clip-path="url(#clip0_3196_4263)">
<rect width="24" height="24" fill="white"/>
<path d="M11.75 5.225H12.25V9.9H11.75V5.225ZM23.075 5C23.1417 5 23.2 5.025 23.25 5.075C23.3 5.10833 23.325 5.15833 23.325 5.225C23.325 5.29167 23.3 5.35 23.25 5.4C23.2167 5.45 23.1583 5.475 23.075 5.475H0.925C0.858333 5.475 0.8 5.45 0.75 5.4C0.7 5.35 0.675 5.29167 0.675 5.225C0.675 5.15833 0.7 5.10833 0.75 5.075C0.8 5.025 0.858333 5 0.925 5H23.075ZM22.075 13C22.8583 13.7833 23.2333 14.65 23.2 15.6C23.1833 16.55 22.825 17.3583 22.125 18.025C21.4417 18.675 20.5917 19 19.575 19H10.45L7.5 13.725L7.925 14H1V7.5H4.4L5.525 9.5H18.575L22.075 13ZM21.6 13.225L18.325 9.975H13V11.725C13 12.1417 13.1417 12.5 13.425 12.8C13.725 13.0833 14.0833 13.225 14.5 13.225H21.6Z" fill="black"/>
</g>
<defs>
<clipPath id="clip0_3196_4263">
<rect width="24" height="24" fill="white"/>
</clipPath>
</defs>
</svg>
