<svg width="24" height="24" viewBox="0 0 24 24" fill="none" xmlns="http://www.w3.org/2000/svg">
<g clip-path="url(#clip0_3196_4261)">
<rect width="24" height="24" fill="white"/>
<path d="M22.2005 12.875C22.9338 13.625 23.2672 14.4917 23.2005 15.475C23.1505 16.4417 22.7505 17.275 22.0005 17.975C21.2672 18.6583 20.3422 19 19.2255 19H10.2755L7.17549 13.55H4.32549H1.00049V8.95H4.07549L4.80049 10.2H19.5755L22.2005 12.875ZM6.17549 11.25L8.27549 12.45H2.92549L4.25049 11.075L7.62549 12.625H8.00049L10.4255 12.375L12.5505 16.225L10.6005 15.65H19.2255C19.4088 15.65 19.5672 15.5917 19.7005 15.475C19.8338 15.3583 19.9005 15.225 19.9005 15.075C19.9172 14.925 19.8505 14.7917 19.7005 14.675L18.1255 13.55H7.65049L6.17549 11.25ZM10.3255 6.75H13.6755V11.65H10.3255V6.75ZM23.0005 4.5V7.8H1.00049V4.5H23.0005ZM17.0255 12.4C17.0088 12.4 17.0005 12.4 17.0005 12.4C17.0005 12.4 16.9922 12.4 16.9755 12.4H17.0005H17.0255C17.0422 12.4 17.0588 12.4 17.0755 12.4C17.0922 12.4 17.1088 12.4 17.1255 12.4H17.2255H17.0255Z" fill="black"/>
</g>
<defs>
<clipPath id="clip0_3196_4261">
<rect width="24" height="24" fill="white"/>
</clipPath>
</defs>
</svg>
