<svg width="24" height="24" viewBox="0 0 24 24" fill="none" xmlns="http://www.w3.org/2000/svg">
<g clip-path="url(#clip0_3196_4267)">
<rect width="24" height="24" fill="white"/>
<path d="M11.325 6H12.675V10.225H11.325V6ZM23 5V6.325H1V5H23ZM22.075 13C22.8583 13.7833 23.2333 14.65 23.2 15.6C23.1833 16.55 22.825 17.3583 22.125 18.025C21.4417 18.675 20.5917 19 19.575 19H10.45L6.475 11.9L7.925 13.5H1V7.5H4.4L5.525 9.5H18.575L22.075 13ZM20.8 13.75L17.95 10.9H13V12.25C13 12.6667 13.1417 13.025 13.425 13.325C13.725 13.6083 14.0833 13.75 14.5 13.75H20.8Z" fill="black"/>
</g>
<defs>
<clipPath id="clip0_3196_4267">
<rect width="24" height="24" fill="white"/>
</clipPath>
</defs>
</svg>
