<svg width="24" height="24" viewBox="0 0 24 24" fill="none" xmlns="http://www.w3.org/2000/svg">
<g clip-path="url(#clip0_3196_4257)">
<rect width="24" height="24" fill="white"/>
<path d="M22.0505 12.55C22.8505 13.35 23.2422 14.2583 23.2255 15.275C23.2088 16.2917 22.8422 17.1667 22.1255 17.9C21.4088 18.6333 20.4922 19 19.3755 19H9.45049L6.50049 13.85L8.07549 15H1.00049V8H5.50049L6.35049 9.5H19.0005L22.0505 12.55ZM3.77549 8.775L4.87549 10.075H1.92549L3.12549 8.675V14.2L1.42549 12.875H8.40049L11.4005 18.225L9.67549 16.925H19.3755C19.9755 16.925 20.4338 16.7667 20.7505 16.45C21.0672 16.1167 21.2005 15.7167 21.1505 15.25C21.1172 14.7667 20.9005 14.325 20.5005 13.925L18.1505 11.575H5.37549L3.77549 8.775ZM10.9505 6.15H13.0505V10.4H10.9505V6.15ZM23.0005 5V7.075H1.00049V5H23.0005ZM15.0005 14.75C14.2672 14.75 13.6422 14.4917 13.1255 13.975C12.6088 13.4583 12.3505 12.8333 12.3505 12.1V10H14.3255V12.1C14.3255 12.3 14.3922 12.475 14.5255 12.625C14.6588 12.7583 14.8172 12.825 15.0005 12.825H21.6755V14.75H15.0005Z" fill="black"/>
</g>
<defs>
<clipPath id="clip0_3196_4257">
<rect width="24" height="24" fill="white"/>
</clipPath>
</defs>
</svg>
