<svg width="24" height="24" viewBox="0 0 24 24" fill="none" xmlns="http://www.w3.org/2000/svg">
<g clip-path="url(#clip0_3194_2774)">
<rect width="24" height="24" fill="white"/>
<path d="M2.50049 10.7C2.50049 8.93333 2.88382 7.41667 3.65049 6.15C4.41716 4.88333 5.51716 3.91667 6.95049 3.25C8.38382 2.58333 10.0672 2.25 12.0005 2.25C13.9338 2.25 15.6172 2.58333 17.0505 3.25C18.4838 3.91667 19.5838 4.88333 20.3505 6.15C21.1172 7.41667 21.5005 8.93333 21.5005 10.7V21H21.0005V10.7C21.0005 9.03333 20.6338 7.6 19.9005 6.4C19.1838 5.2 18.1422 4.29167 16.7755 3.675C15.4255 3.04167 13.8338 2.725 12.0005 2.725C10.1672 2.725 8.56716 3.04167 7.20049 3.675C5.85049 4.29167 4.80882 5.2 4.07549 6.4C3.35882 7.6 3.00049 9.03333 3.00049 10.7V21H2.50049V10.7ZM9.42549 19.1L9.45049 19.5H8.25049C7.63382 19.5 7.10049 19.2833 6.65049 18.85C6.21716 18.4 6.00049 17.8667 6.00049 17.25V12.8C6.00049 11.7833 6.04216 10.9 6.12549 10.15C6.22549 9.38333 6.35882 8.675 6.52549 8.025C6.69216 7.39167 6.95882 6.9 7.32549 6.55C7.70882 6.18333 8.20882 6 8.82549 6H15.1755C15.7922 6 16.2838 6.18333 16.6505 6.55C17.0338 6.9 17.3088 7.39167 17.4755 8.025C17.6422 8.675 17.7672 9.38333 17.8505 10.15C17.9505 10.9 18.0005 11.7833 18.0005 12.8V17.25C18.0005 17.8667 17.7838 18.4 17.3505 18.85C16.9172 19.2833 16.3838 19.5 15.7505 19.5H14.5505L14.5755 19.1L15.7005 21H15.1255L14.0255 19.1L14.3005 19.5H9.70049L9.97549 19.1L8.87549 21H8.30049L9.42549 19.1ZM15.7505 19.025C16.2338 19.025 16.6422 18.85 16.9755 18.5C17.3255 18.15 17.5005 17.7333 17.5005 17.25V12.8C17.5005 11.8167 17.4588 10.95 17.3755 10.2C17.2922 9.45 17.1672 8.775 17.0005 8.175C16.8338 7.60833 16.6088 7.18333 16.3255 6.9C16.0422 6.61667 15.6588 6.475 15.1755 6.475H8.82549C8.34216 6.475 7.95882 6.61667 7.67549 6.9C7.39216 7.18333 7.16716 7.60833 7.00049 8.175C6.83382 8.775 6.70882 9.45 6.62549 10.2C6.54216 10.95 6.50049 11.8167 6.50049 12.8V17.25C6.50049 17.7333 6.66716 18.15 7.00049 18.5C7.35049 18.85 7.76716 19.025 8.25049 19.025H15.7505ZM6.20049 11.975H17.8005V12.45H6.20049V11.975ZM9.25049 16.825C8.83382 16.825 8.47549 16.6833 8.17549 16.4C7.89216 16.1167 7.75049 15.7667 7.75049 15.35C7.75049 14.9333 7.89216 14.5833 8.17549 14.3C8.47549 14.0167 8.83382 13.875 9.25049 13.875C9.66716 13.875 10.0172 14.0167 10.3005 14.3C10.6005 14.5833 10.7505 14.9333 10.7505 15.35C10.7505 15.7667 10.6005 16.1167 10.3005 16.4C10.0172 16.6833 9.66716 16.825 9.25049 16.825ZM9.25049 16.375C9.53382 16.375 9.77549 16.275 9.97549 16.075C10.1755 15.875 10.2755 15.6333 10.2755 15.35C10.2755 15.0667 10.1755 14.825 9.97549 14.625C9.77549 14.425 9.53382 14.325 9.25049 14.325C8.96716 14.325 8.72549 14.425 8.52549 14.625C8.32549 14.825 8.22549 15.0667 8.22549 15.35C8.22549 15.6333 8.32549 15.875 8.52549 16.075C8.72549 16.275 8.96716 16.375 9.25049 16.375ZM14.7505 16.825C14.3338 16.825 13.9755 16.6833 13.6755 16.4C13.3922 16.1167 13.2505 15.7667 13.2505 15.35C13.2505 14.9333 13.3922 14.5833 13.6755 14.3C13.9755 14.0167 14.3338 13.875 14.7505 13.875C15.1672 13.875 15.5172 14.0167 15.8005 14.3C16.1005 14.5833 16.2505 14.9333 16.2505 15.35C16.2505 15.7667 16.1005 16.1167 15.8005 16.4C15.5172 16.6833 15.1672 16.825 14.7505 16.825ZM14.7505 16.375C15.0338 16.375 15.2755 16.275 15.4755 16.075C15.6755 15.875 15.7755 15.6333 15.7755 15.35C15.7755 15.0667 15.6755 14.825 15.4755 14.625C15.2755 14.425 15.0338 14.325 14.7505 14.325C14.4672 14.325 14.2255 14.425 14.0255 14.625C13.8255 14.825 13.7255 15.0667 13.7255 15.35C13.7255 15.6333 13.8255 15.875 14.0255 16.075C14.2255 16.275 14.4672 16.375 14.7505 16.375Z" fill="black"/>
</g>
<defs>
<clipPath id="clip0_3194_2774">
<rect width="24" height="24" fill="white"/>
</clipPath>
</defs>
</svg>
