<svg width="24" height="24" viewBox="0 0 24 24" fill="none" xmlns="http://www.w3.org/2000/svg">
<g clip-path="url(#clip0_3196_4505)">
<rect width="24" height="24" fill="white"/>
<path d="M15.425 8.875C15.625 9.55833 15.725 10.575 15.725 11.925V12.275H8.275V11.925C8.275 10.575 8.38333 9.55833 8.6 8.875C8.66667 8.675 8.76667 8.51667 8.9 8.4C9.03333 8.28333 9.23333 8.225 9.5 8.225H14.525C14.7917 8.225 14.9917 8.28333 15.125 8.4C15.2583 8.51667 15.3583 8.675 15.425 8.875ZM10.375 21L11.375 19.25H12.625L13.625 21H10.375ZM7.8 21H2.5V10.2C2.5 8.58333 2.88333 7.18333 3.65 6C4.43333 4.8 5.53333 3.875 6.95 3.225C8.38333 2.575 10.0667 2.25 12 2.25C13.9333 2.25 15.6083 2.575 17.025 3.225C18.4583 3.875 19.5583 4.8 20.325 6C21.1083 7.18333 21.5 8.58333 21.5 10.2V21H16.2L15.125 19.25H15.575C16.275 19.25 16.8667 19.0083 17.35 18.525C17.8333 18.0417 18.075 17.45 18.075 16.75V12.05C18.075 10.8 17.9417 9.59167 17.675 8.425C17.5083 7.69167 17.15 7.10833 16.6 6.675C16.05 6.225 15.3583 6 14.525 6H9.475C8.64167 6 7.95 6.225 7.4 6.675C6.85 7.10833 6.49167 7.69167 6.325 8.425C6.05833 9.64167 5.925 10.85 5.925 12.05V16.75C5.925 17.45 6.16667 18.0417 6.65 18.525C7.13333 19.0083 7.725 19.25 8.425 19.25H8.9L7.8 21ZM10.325 16.6C10.0583 16.8667 9.71667 17 9.3 17C8.9 17 8.55833 16.8667 8.275 16.6C8.00833 16.3167 7.875 15.9667 7.875 15.55C7.875 15.15 8.00833 14.8167 8.275 14.55C8.55833 14.2667 8.9 14.125 9.3 14.125C9.71667 14.125 10.0583 14.2667 10.325 14.55C10.6083 14.8167 10.75 15.15 10.75 15.55C10.75 15.9667 10.6083 16.3167 10.325 16.6ZM15.7 16.6C15.4333 16.8667 15.1 17 14.7 17C14.2833 17 13.9333 16.8667 13.65 16.6C13.3833 16.3167 13.25 15.9667 13.25 15.55C13.25 15.15 13.3833 14.8167 13.65 14.55C13.9333 14.2667 14.2833 14.125 14.7 14.125C15.1 14.125 15.4333 14.2667 15.7 14.55C15.9833 14.8167 16.125 15.15 16.125 15.55C16.125 15.9667 15.9833 16.3167 15.7 16.6Z" fill="black"/>
</g>
<defs>
<clipPath id="clip0_3196_4505">
<rect width="24" height="24" fill="white"/>
</clipPath>
</defs>
</svg>
