<svg width="24" height="24" viewBox="0 0 24 24" fill="none" xmlns="http://www.w3.org/2000/svg">
<g clip-path="url(#clip0_3196_4503)">
<rect width="24" height="24" fill="white"/>
<path d="M15.725 8.75C15.975 9.55 16.1 10.7333 16.1 12.3V12.75H7.9V12.3C7.9 10.75 8.03333 9.56667 8.3 8.75C8.38333 8.46667 8.51667 8.25 8.7 8.1C8.9 7.93333 9.2 7.85 9.6 7.85H14.425C14.825 7.85 15.1167 7.93333 15.3 8.1C15.5 8.25 15.6417 8.46667 15.725 8.75ZM10.225 21L11.225 19.25H12.775L13.775 21H10.225ZM8.05 21H2.5V10.2C2.5 8.58333 2.88333 7.18333 3.65 6C4.43333 4.8 5.53333 3.875 6.95 3.225C8.38333 2.575 10.0667 2.25 12 2.25C13.9333 2.25 15.6083 2.575 17.025 3.225C18.4583 3.875 19.5583 4.8 20.325 6C21.1083 7.18333 21.5 8.58333 21.5 10.2V21H15.95L14.925 19.25H15.5C16.2 19.25 16.7917 19.0083 17.275 18.525C17.7583 18.0417 18 17.45 18 16.75V12.3C18 10.95 17.8583 9.65833 17.575 8.425C17.4083 7.69167 17.05 7.10833 16.5 6.675C15.95 6.225 15.2583 6 14.425 6H9.6C8.76667 6 8.075 6.225 7.525 6.675C6.975 7.10833 6.61667 7.69167 6.45 8.425C6.15 9.74167 6 11.0333 6 12.3V16.75C6 17.45 6.24167 18.0417 6.725 18.525C7.20833 19.0083 7.8 19.25 8.5 19.25H9.1L8.05 21ZM10.225 16.725C9.95833 16.9917 9.63333 17.125 9.25 17.125C8.86667 17.125 8.54167 16.9917 8.275 16.725C8.00833 16.4583 7.875 16.1333 7.875 15.75C7.875 15.3667 8.00833 15.0417 8.275 14.775C8.54167 14.5083 8.86667 14.375 9.25 14.375C9.63333 14.375 9.95833 14.5083 10.225 14.775C10.4917 15.0417 10.625 15.3667 10.625 15.75C10.625 16.1333 10.4917 16.4583 10.225 16.725ZM15.725 16.725C15.4583 16.9917 15.1333 17.125 14.75 17.125C14.3667 17.125 14.0417 16.9917 13.775 16.725C13.5083 16.4583 13.375 16.1333 13.375 15.75C13.375 15.3667 13.5083 15.0417 13.775 14.775C14.0417 14.5083 14.3667 14.375 14.75 14.375C15.1333 14.375 15.4583 14.5083 15.725 14.775C15.9917 15.0417 16.125 15.3667 16.125 15.75C16.125 16.1333 15.9917 16.4583 15.725 16.725Z" fill="black"/>
</g>
<defs>
<clipPath id="clip0_3196_4503">
<rect width="24" height="24" fill="white"/>
</clipPath>
</defs>
</svg>
