<svg width="24" height="24" viewBox="0 0 24 24" fill="none" xmlns="http://www.w3.org/2000/svg">
<g clip-path="url(#clip0_3196_4499)">
<rect width="24" height="24" fill="white"/>
<path d="M16.6 8.375C16.8833 9.44167 17.025 10.8083 17.025 12.475V12.75H6.975V12.475C6.975 10.825 7.125 9.45833 7.425 8.375C7.54167 7.90833 7.725 7.55 7.975 7.3C8.24167 7.05 8.60833 6.925 9.075 6.925H14.925C15.3917 6.925 15.75 7.05 16 7.3C16.2667 7.55 16.4667 7.90833 16.6 8.375ZM9.65 21L10.65 19.25H13.35L14.35 21H9.65ZM8.525 21H2.5V10.2C2.5 8.58333 2.88333 7.18333 3.65 6C4.43333 4.8 5.53333 3.875 6.95 3.225C8.38333 2.575 10.0667 2.25 12 2.25C13.9333 2.25 15.6083 2.575 17.025 3.225C18.4583 3.875 19.5583 4.8 20.325 6C21.1083 7.18333 21.5 8.58333 21.5 10.2V21H15.475L14.45 19.25H15.5C16.2 19.25 16.7917 19.0083 17.275 18.525C17.7583 18.0417 18 17.45 18 16.75V12.475C18 10.8917 17.8417 9.45 17.525 8.15C17.375 7.48333 17.075 6.95833 16.625 6.575C16.175 6.19167 15.6083 6 14.925 6H9.075C8.39167 6 7.825 6.19167 7.375 6.575C6.94167 6.95833 6.64167 7.48333 6.475 8.15C6.15833 9.48333 6 10.925 6 12.475V16.75C6 17.45 6.24167 18.0417 6.725 18.525C7.20833 19.0083 7.8 19.25 8.5 19.25H9.575L8.525 21ZM10.025 16.575C9.775 16.825 9.475 16.95 9.125 16.95C8.75833 16.95 8.45 16.825 8.2 16.575C7.95 16.325 7.825 16.025 7.825 15.675C7.825 15.3083 7.95 15 8.2 14.75C8.45 14.5 8.75833 14.375 9.125 14.375C9.475 14.375 9.775 14.5 10.025 14.75C10.275 15 10.4 15.3083 10.4 15.675C10.4 16.025 10.275 16.325 10.025 16.575ZM15.8 16.575C15.55 16.825 15.2417 16.95 14.875 16.95C14.525 16.95 14.225 16.825 13.975 16.575C13.725 16.325 13.6 16.025 13.6 15.675C13.6 15.3083 13.725 15 13.975 14.75C14.225 14.5 14.525 14.375 14.875 14.375C15.2417 14.375 15.55 14.5 15.8 14.75C16.05 15 16.175 15.3083 16.175 15.675C16.175 16.025 16.05 16.325 15.8 16.575Z" fill="black"/>
</g>
<defs>
<clipPath id="clip0_3196_4499">
<rect width="24" height="24" fill="white"/>
</clipPath>
</defs>
</svg>
