<svg width="24" height="24" viewBox="0 0 24 24" fill="none" xmlns="http://www.w3.org/2000/svg">
<g clip-path="url(#clip0_3196_4507)">
<rect width="24" height="24" fill="white"/>
<path d="M15.1 8.975C15.25 9.54167 15.325 10.4083 15.325 11.575V11.825H8.675V11.575C8.675 10.4083 8.75 9.54167 8.9 8.975C8.93333 8.85833 8.98333 8.775 9.05 8.725C9.13333 8.65833 9.25 8.625 9.4 8.625H14.6C14.75 8.625 14.8583 8.65833 14.925 8.725C15.0083 8.775 15.0667 8.85833 15.1 8.975ZM10.55 21L11.55 19.25H12.45L13.45 21H10.55ZM7.55 21H2.5V10.2C2.5 8.58333 2.88333 7.18333 3.65 6C4.43333 4.8 5.53333 3.875 6.95 3.225C8.38333 2.575 10.0667 2.25 12 2.25C13.9333 2.25 15.6083 2.575 17.025 3.225C18.4583 3.875 19.5583 4.8 20.325 6C21.1083 7.18333 21.5 8.58333 21.5 10.2V21H16.45L15.35 19.25H15.675C16.375 19.25 16.9667 19.0083 17.45 18.525C17.9333 18.0417 18.175 17.45 18.175 16.75V11.8C18.175 10.6333 18.05 9.50833 17.8 8.425C17.6333 7.69167 17.275 7.10833 16.725 6.675C16.175 6.225 15.4833 6 14.65 6H9.375C8.54167 6 7.85 6.225 7.3 6.675C6.75 7.10833 6.39167 7.69167 6.225 8.425C5.95833 9.54167 5.825 10.6667 5.825 11.8V16.75C5.825 17.45 6.06667 18.0417 6.55 18.525C7.03333 19.0083 7.625 19.25 8.325 19.25H8.675L7.55 21ZM10.425 16.425C10.1417 16.7083 9.79167 16.85 9.375 16.85C8.94167 16.85 8.58333 16.7083 8.3 16.425C8.01667 16.1417 7.875 15.7917 7.875 15.375C7.875 14.9417 8.01667 14.5833 8.3 14.3C8.58333 14.0167 8.94167 13.875 9.375 13.875C9.79167 13.875 10.1417 14.0167 10.425 14.3C10.7083 14.5833 10.85 14.9417 10.85 15.375C10.85 15.7917 10.7083 16.1417 10.425 16.425ZM15.7 16.425C15.4167 16.7083 15.0583 16.85 14.625 16.85C14.2083 16.85 13.8583 16.7083 13.575 16.425C13.2917 16.1417 13.15 15.7917 13.15 15.375C13.15 14.9417 13.2917 14.5833 13.575 14.3C13.8583 14.0167 14.2083 13.875 14.625 13.875C15.0583 13.875 15.4167 14.0167 15.7 14.3C15.9833 14.5833 16.125 14.9417 16.125 15.375C16.125 15.7917 15.9833 16.1417 15.7 16.425Z" fill="black"/>
</g>
<defs>
<clipPath id="clip0_3196_4507">
<rect width="24" height="24" fill="white"/>
</clipPath>
</defs>
</svg>
