<svg width="24" height="24" viewBox="0 0 24 24" fill="none" xmlns="http://www.w3.org/2000/svg">
<g clip-path="url(#clip0_3196_4491)">
<rect width="24" height="24" fill="white"/>
<path d="M2.50049 10.575C2.50049 8.85833 2.88382 7.375 3.65049 6.125C4.43382 4.875 5.53382 3.91667 6.95049 3.25C8.38382 2.58333 10.0672 2.25 12.0005 2.25C13.9338 2.25 15.6088 2.58333 17.0255 3.25C18.4588 3.91667 19.5588 4.875 20.3255 6.125C21.1088 7.375 21.5005 8.85833 21.5005 10.575V21H19.3755V10.575C19.3755 9.29167 19.0755 8.18333 18.4755 7.25C17.8922 6.3 17.0422 5.575 15.9255 5.075C14.8088 4.575 13.5005 4.325 12.0005 4.325C10.5005 4.325 9.19216 4.575 8.07549 5.075C6.95882 5.575 6.10049 6.3 5.50049 7.25C4.91716 8.18333 4.62549 9.29167 4.62549 10.575V21H2.50049V10.575ZM9.42549 18.65L9.82549 19.625H8.65049C7.88382 19.625 7.23382 19.3583 6.70049 18.825C6.16716 18.2917 5.90049 17.6417 5.90049 16.875V13.575C5.90049 12.5417 5.94216 11.6417 6.02549 10.875C6.10882 10.1083 6.24216 9.38333 6.42549 8.7C6.59216 8.01667 6.93382 7.475 7.45049 7.075C7.96716 6.675 8.60049 6.475 9.35049 6.475H14.6505C15.4005 6.475 16.0338 6.675 16.5505 7.075C17.0672 7.475 17.4088 8.01667 17.5755 8.7C17.7588 9.38333 17.8922 10.1083 17.9755 10.875C18.0588 11.6417 18.1005 12.5417 18.1005 13.575V16.875C18.1005 17.6417 17.8338 18.2917 17.3005 18.825C16.7838 19.3583 16.1338 19.625 15.3505 19.625H14.1755L14.5755 18.65L16.0005 21H13.4755L12.1255 18.65L13.6005 19.625H10.4005L11.8505 18.65L10.5005 21H8.00049L9.42549 18.65ZM15.3505 17.575C15.5338 17.575 15.6838 17.5083 15.8005 17.375C15.9172 17.2417 15.9755 17.075 15.9755 16.875V13.575C15.9755 12.625 15.9338 11.7417 15.8505 10.925C15.7672 10.0917 15.6588 9.48333 15.5255 9.1C15.4755 8.91667 15.3755 8.775 15.2255 8.675C15.0922 8.575 14.9338 8.525 14.7505 8.525H9.25049C9.06716 8.525 8.90049 8.575 8.75049 8.675C8.61716 8.775 8.52549 8.91667 8.47549 9.1C8.34216 9.48333 8.23382 10.0917 8.15049 10.925C8.06716 11.7417 8.02549 12.625 8.02549 13.575V16.875C8.02549 17.075 8.08382 17.2417 8.20049 17.375C8.31716 17.5083 8.46716 17.575 8.65049 17.575H15.3505ZM6.55049 11.1H17.0505V13.175H6.55049V11.1ZM10.2005 16.625C9.81716 16.625 9.50049 16.5083 9.25049 16.275C9.00049 16.025 8.87549 15.7083 8.87549 15.325C8.87549 14.9417 9.00049 14.6333 9.25049 14.4C9.50049 14.15 9.81716 14.025 10.2005 14.025C10.5838 14.025 10.9005 14.15 11.1505 14.4C11.4005 14.6333 11.5255 14.9417 11.5255 15.325C11.5255 15.7083 11.4005 16.025 11.1505 16.275C10.9005 16.5083 10.5838 16.625 10.2005 16.625ZM10.0505 15.525C10.1505 15.525 10.2172 15.525 10.2505 15.525C10.3005 15.525 10.3755 15.525 10.4755 15.525C10.3755 15.525 10.3005 15.525 10.2505 15.525C10.2172 15.525 10.1505 15.525 10.0505 15.525C9.96716 15.525 9.90049 15.525 9.85049 15.525C9.80049 15.525 9.73382 15.525 9.65049 15.525C9.73382 15.525 9.80049 15.525 9.85049 15.525C9.90049 15.525 9.96716 15.525 10.0505 15.525ZM13.8255 16.625C13.4422 16.625 13.1172 16.5083 12.8505 16.275C12.6005 16.025 12.4755 15.7083 12.4755 15.325C12.4755 14.9417 12.6005 14.6333 12.8505 14.4C13.1172 14.15 13.4422 14.025 13.8255 14.025C14.2088 14.025 14.5172 14.15 14.7505 14.4C15.0005 14.6333 15.1255 14.9417 15.1255 15.325C15.1255 15.7083 15.0005 16.025 14.7505 16.275C14.5172 16.5083 14.2088 16.625 13.8255 16.625ZM13.7755 15.575C13.8755 15.575 13.9505 15.575 14.0005 15.575C14.0505 15.575 14.1338 15.575 14.2505 15.575C14.1338 15.575 14.0505 15.575 14.0005 15.575C13.9505 15.575 13.8755 15.575 13.7755 15.575C13.6755 15.575 13.6005 15.575 13.5505 15.575C13.5005 15.575 13.4172 15.575 13.3005 15.575C13.4172 15.575 13.5005 15.575 13.5505 15.575C13.6005 15.575 13.6755 15.575 13.7755 15.575Z" fill="black"/>
</g>
<defs>
<clipPath id="clip0_3196_4491">
<rect width="24" height="24" fill="white"/>
</clipPath>
</defs>
</svg>
