<svg width="24" height="24" viewBox="0 0 24 24" fill="none" xmlns="http://www.w3.org/2000/svg">
<g clip-path="url(#clip0_3194_3699)">
<rect width="24" height="24" fill="white"/>
<path d="M19.0005 20.5C18.0838 20.5 17.2422 20.2833 16.4755 19.85C15.7088 19.4 15.1005 18.7917 14.6505 18.025C14.2172 17.2583 14.0005 16.4167 14.0005 15.5C14.0005 14.5833 14.2172 13.7417 14.6505 12.975C15.1005 12.2083 15.7088 11.6083 16.4755 11.175C17.2422 10.725 18.0838 10.5 19.0005 10.5C19.9172 10.5 20.7588 10.725 21.5255 11.175C22.2922 11.6083 22.8922 12.2083 23.3255 12.975C23.7755 13.7417 24.0005 14.5833 24.0005 15.5C24.0005 16.4167 23.7755 17.2583 23.3255 18.025C22.8922 18.7917 22.2922 19.4 21.5255 19.85C20.7588 20.2833 19.9172 20.5 19.0005 20.5ZM5.00049 20.5C4.08382 20.5 3.24216 20.2833 2.47549 19.85C1.70882 19.4 1.10049 18.7917 0.650488 18.025C0.217155 17.2583 0.000488281 16.4167 0.000488281 15.5C0.000488281 14.5833 0.217155 13.7417 0.650488 12.975C1.10049 12.2083 1.70882 11.6083 2.47549 11.175C3.24216 10.725 4.08382 10.5 5.00049 10.5C5.91716 10.5 6.75882 10.725 7.52549 11.175C8.29216 11.6083 8.89216 12.2083 9.32549 12.975C9.77549 13.7417 10.0005 14.5833 10.0005 15.5C10.0005 16.4167 9.77549 17.2583 9.32549 18.025C8.89216 18.7917 8.29216 19.4 7.52549 19.85C6.75882 20.2833 5.91716 20.5 5.00049 20.5ZM5.00049 19.2C5.66716 19.2 6.27549 19.0333 6.82549 18.7C7.39216 18.3667 7.83382 17.925 8.15049 17.375C8.48382 16.8083 8.65049 16.1833 8.65049 15.5C8.65049 14.8167 8.48382 14.2 8.15049 13.65C7.83382 13.0833 7.40049 12.6333 6.85049 12.3C6.30049 11.9667 5.68382 11.8 5.00049 11.8C4.33382 11.8 3.71716 11.9667 3.15049 12.3C2.60049 12.6333 2.15882 13.0833 1.82549 13.65C1.50882 14.2 1.35049 14.8167 1.35049 15.5C1.35049 16.1833 1.50882 16.8083 1.82549 17.375C2.15882 17.925 2.60049 18.3667 3.15049 18.7C3.71716 19.0333 4.33382 19.2 5.00049 19.2ZM4.00049 14.825H14.6755V16.15H4.00049V14.825ZM19.0005 19.2C19.6672 19.2 20.2755 19.0333 20.8255 18.7C21.3922 18.3667 21.8338 17.9167 22.1505 17.35C22.4838 16.7833 22.6505 16.1583 22.6505 15.475C22.6505 14.8083 22.4838 14.2 22.1505 13.65C21.8338 13.0833 21.3922 12.6333 20.8255 12.3C20.2755 11.9667 19.6672 11.8 19.0005 11.8C18.3338 11.8 17.7172 11.9667 17.1505 12.3C16.6005 12.6333 16.1588 13.0833 15.8255 13.65C15.5088 14.2 15.3505 14.8083 15.3505 15.475C15.3505 16.1583 15.5088 16.7833 15.8255 17.35C16.1588 17.9167 16.6005 18.3667 17.1505 18.7C17.7172 19.0333 18.3338 19.2 19.0005 19.2ZM19.6505 15.325C19.7005 15.575 19.6672 15.7833 19.5505 15.95C19.4338 16.1167 19.2505 16.2083 19.0005 16.225C18.8505 16.225 18.7088 16.175 18.5755 16.075C18.4588 15.975 18.3755 15.8417 18.3255 15.675L16.4505 4.8H14.6255C14.4422 4.8 14.2838 4.74167 14.1505 4.625C14.0338 4.49167 13.9755 4.33333 13.9755 4.15C13.9755 3.96667 14.0338 3.81667 14.1505 3.7C14.2838 3.56667 14.4422 3.5 14.6255 3.5H17.5755L19.6505 15.325ZM4.27549 9H10.3755L12.7255 7H20.0255V8.3H13.2005L10.8505 10.3H5.67549V11.025H4.27549V9Z" fill="black"/>
</g>
<defs>
<clipPath id="clip0_3194_3699">
<rect width="24" height="24" fill="white"/>
</clipPath>
</defs>
</svg>
