<svg width="24" height="24" viewBox="0 0 24 24" fill="none" xmlns="http://www.w3.org/2000/svg">
<g clip-path="url(#clip0_3194_3721)">
<rect width="24" height="24" fill="white"/>
<path d="M19.05 20.5C18.1167 20.5 17.2667 20.2833 16.5 19.85C15.7333 19.4 15.125 18.7917 14.675 18.025C14.225 17.2583 14 16.4083 14 15.475C14 14.5583 14.225 13.725 14.675 12.975C15.125 12.2083 15.7333 11.6083 16.5 11.175C17.2667 10.725 18.1167 10.5 19.05 10.5C19.9667 10.5 20.8 10.725 21.55 11.175C22.3 11.6083 22.8917 12.2083 23.325 12.975C23.775 13.725 24 14.5583 24 15.475C24 16.4083 23.775 17.2583 23.325 18.025C22.8917 18.7917 22.3 19.4 21.55 19.85C20.8 20.2833 19.9667 20.5 19.05 20.5ZM5.05 20.5C4.11667 20.5 3.26667 20.2833 2.5 19.85C1.73333 19.4 1.125 18.7917 0.675 18.025C0.225 17.2583 0 16.4083 0 15.475C0 14.5583 0.225 13.725 0.675 12.975C1.125 12.2083 1.73333 11.6083 2.5 11.175C3.26667 10.725 4.11667 10.5 5.05 10.5C5.96667 10.5 6.8 10.725 7.55 11.175C8.3 11.6083 8.89167 12.2083 9.325 12.975C9.775 13.725 10 14.5583 10 15.475C10 16.4083 9.775 17.2583 9.325 18.025C8.89167 18.7917 8.3 19.4 7.55 19.85C6.8 20.2833 5.96667 20.5 5.05 20.5ZM5.025 17.55C5.39167 17.55 5.725 17.4583 6.025 17.275C6.34167 17.0917 6.59167 16.85 6.775 16.55C6.95833 16.2333 7.05 15.8833 7.05 15.5C7.05 15.1167 6.95833 14.775 6.775 14.475C6.59167 14.1583 6.34167 13.9083 6.025 13.725C5.725 13.5417 5.39167 13.45 5.025 13.45C4.65833 13.45 4.31667 13.5417 4 13.725C3.7 13.9083 3.45833 14.1583 3.275 14.475C3.09167 14.775 3 15.1167 3 15.5C3 15.8833 3.09167 16.2333 3.275 16.55C3.45833 16.85 3.7 17.0917 4 17.275C4.31667 17.4583 4.65833 17.55 5.025 17.55ZM8.25 13.525H15.4V16.525H8.275L8.25 13.525ZM19 17.55C19.3667 17.55 19.7 17.4583 20 17.275C20.3167 17.0917 20.5667 16.85 20.75 16.55C20.9333 16.2333 21.025 15.8833 21.025 15.5C21.025 15.1167 20.9333 14.775 20.75 14.475C20.5667 14.1583 20.3167 13.9083 20 13.725C19.7 13.5417 19.3667 13.45 19 13.45C18.6333 13.45 18.2917 13.5417 17.975 13.725C17.675 13.9083 17.4333 14.1583 17.25 14.475C17.0667 14.775 16.975 15.1167 16.975 15.5C16.975 15.8833 17.0667 16.2333 17.25 16.55C17.4333 16.85 17.675 17.0917 17.975 17.275C18.2917 17.4583 18.6333 17.55 19 17.55ZM19.9 12.725C19.5667 12.7917 19.3167 12.85 19.15 12.9C19 12.9333 18.7667 12.9833 18.45 13.05C18.1167 13.1167 17.8667 13.175 17.7 13.225C17.45 13.275 17.2 13.3333 16.95 13.4L15.75 6.45H14.175C13.775 6.45 13.4333 6.30833 13.15 6.025C12.8833 5.74167 12.75 5.39167 12.75 4.975C12.75 4.55833 12.8833 4.20833 13.15 3.925C13.4333 3.64167 13.775 3.5 14.175 3.5H18.25L19.9 12.725ZM3.525 9H10.4L12.175 7.95H17.175L18.225 11.975L14.9 14.975L13.05 15.325H9.375L7.475 13.65L6.75 12.25H3.525V9ZM21 6.45V9.475H16.35V6.45H21Z" fill="black"/>
</g>
<defs>
<clipPath id="clip0_3194_3721">
<rect width="24" height="24" fill="white"/>
</clipPath>
</defs>
</svg>
