<svg width="24" height="24" viewBox="0 0 24 24" fill="none" xmlns="http://www.w3.org/2000/svg">
<g clip-path="url(#clip0_3196_4239)">
<rect width="24" height="24" fill="white"/>
<path d="M0.5 10H9.25V5H12.8C13.3333 5 13.8167 5.13333 14.25 5.4C14.6833 5.66667 15.075 6.00833 15.425 6.425L18.4 9.975L21.525 10.525C22.1083 10.625 22.5833 10.8833 22.95 11.3C23.3167 11.7167 23.5 12.2083 23.5 12.775V17H21.4L21.025 14.95L19.25 14.25L17.05 14.9L16.55 17H8.175L7.925 14.95L5.775 14.25L3.775 15L3.45 17H2.5C1.93333 17 1.45833 16.8083 1.075 16.425C0.691667 16.0417 0.5 15.575 0.5 15.025V10ZM17.175 10L14.625 6.95C14.3417 6.61667 14.0583 6.36667 13.775 6.2C13.5083 6.01667 13.1833 5.925 12.8 5.925H10.2V10H17.175ZM5.875 19.475C5.34167 19.475 4.85 19.35 4.4 19.1C3.95 18.8333 3.59167 18.4833 3.325 18.05C3.075 17.6 2.95 17.1167 2.95 16.6C2.95 16.0667 3.075 15.5833 3.325 15.15C3.59167 14.7 3.95 14.35 4.4 14.1C4.85 13.8333 5.34167 13.7 5.875 13.7C6.40833 13.7 6.9 13.8333 7.35 14.1C7.8 14.35 8.15 14.7 8.4 15.15C8.66667 15.5833 8.8 16.0667 8.8 16.6C8.8 17.1167 8.66667 17.6 8.4 18.05C8.15 18.4833 7.8 18.8333 7.35 19.1C6.9 19.35 6.40833 19.475 5.875 19.475ZM5.875 18.6C6.44167 18.6 6.91667 18.4083 7.3 18.025C7.68333 17.625 7.875 17.15 7.875 16.6C7.875 16.0333 7.68333 15.5583 7.3 15.175C6.91667 14.775 6.44167 14.575 5.875 14.575C5.325 14.575 4.85 14.775 4.45 15.175C4.06667 15.5583 3.875 16.0333 3.875 16.6C3.875 17.15 4.06667 17.625 4.45 18.025C4.85 18.4083 5.325 18.6 5.875 18.6ZM18.8 19.475C18.2667 19.475 17.775 19.35 17.325 19.1C16.875 18.8333 16.5167 18.4833 16.25 18.05C16 17.6 15.875 17.1167 15.875 16.6C15.875 16.0667 16 15.5833 16.25 15.15C16.5167 14.7 16.875 14.35 17.325 14.1C17.775 13.8333 18.2667 13.7 18.8 13.7C19.3333 13.7 19.825 13.8333 20.275 14.1C20.725 14.35 21.075 14.7 21.325 15.15C21.5917 15.5833 21.725 16.0667 21.725 16.6C21.725 17.1167 21.5917 17.6 21.325 18.05C21.075 18.4833 20.725 18.8333 20.275 19.1C19.825 19.35 19.3333 19.475 18.8 19.475ZM18.8 18.6C19.3667 18.6 19.8417 18.4083 20.225 18.025C20.6083 17.625 20.8 17.15 20.8 16.6C20.8 16.0333 20.6083 15.5583 20.225 15.175C19.8417 14.775 19.3667 14.575 18.8 14.575C18.25 14.575 17.775 14.775 17.375 15.175C16.9917 15.5583 16.8 16.0333 16.8 16.6C16.8 17.15 16.9917 17.625 17.375 18.025C17.775 18.4083 18.25 18.6 18.8 18.6Z" fill="black"/>
</g>
<defs>
<clipPath id="clip0_3196_4239">
<rect width="24" height="24" fill="white"/>
</clipPath>
</defs>
</svg>
