<svg width="24" height="24" viewBox="0 0 24 24" fill="none" xmlns="http://www.w3.org/2000/svg">
<g clip-path="url(#clip0_3194_2718)">
<rect width="24" height="24" fill="white"/>
<path d="M16.3505 17H8.27549V16.525H16.3505V17ZM3.37549 17H2.50049C2.13382 17 1.79216 16.9167 1.47549 16.75C1.17549 16.5667 0.933822 16.325 0.750488 16.025C0.583822 15.725 0.500488 15.3917 0.500488 15.025V10H9.50049V5H12.9005C13.4672 5 13.9588 5.125 14.3755 5.375C14.8088 5.625 15.2088 5.975 15.5755 6.425L18.3255 9.875L21.7005 10.475C22.2505 10.575 22.6838 10.825 23.0005 11.225C23.3338 11.625 23.5005 12.1 23.5005 12.65V17H21.1255V16.525H23.0005V12.65C23.0005 12.2167 22.8672 11.8417 22.6005 11.525C22.3505 11.2083 22.0172 11.0167 21.6005 10.95L18.0505 10.3L15.1755 6.725C14.8422 6.30833 14.4922 6 14.1255 5.8C13.7755 5.58333 13.3672 5.475 12.9005 5.475H10.0005V10.475H1.00049V15.025C1.00049 15.4417 1.14216 15.8 1.42549 16.1C1.72549 16.3833 2.08382 16.525 2.50049 16.525H3.37549V17ZM5.90049 19.475C5.40049 19.475 4.93382 19.3583 4.50049 19.125C4.08382 18.875 3.75049 18.5417 3.50049 18.125C3.26715 17.7083 3.15049 17.25 3.15049 16.75C3.15049 16.25 3.26715 15.7917 3.50049 15.375C3.75049 14.9583 4.08382 14.6333 4.50049 14.4C4.93382 14.15 5.40049 14.025 5.90049 14.025C6.40049 14.025 6.85882 14.15 7.27549 14.4C7.70882 14.6333 8.04216 14.9583 8.27549 15.375C8.52549 15.7917 8.65049 16.25 8.65049 16.75C8.65049 17.25 8.52549 17.7083 8.27549 18.125C8.04216 18.5417 7.70882 18.875 7.27549 19.125C6.85882 19.3583 6.40049 19.475 5.90049 19.475ZM5.90049 19C6.53382 19 7.06716 18.7833 7.50049 18.35C7.93382 17.9 8.15049 17.3667 8.15049 16.75C8.15049 16.1167 7.93382 15.5833 7.50049 15.15C7.06716 14.7167 6.54216 14.5 5.92549 14.5C5.29216 14.5 4.75049 14.7167 4.30049 15.15C3.86716 15.5833 3.65049 16.1083 3.65049 16.725C3.65049 17.3583 3.86716 17.9 4.30049 18.35C4.75049 18.7833 5.28382 19 5.90049 19ZM18.7255 19.475C18.2255 19.475 17.7588 19.3583 17.3255 19.125C16.9088 18.875 16.5755 18.5417 16.3255 18.125C16.0922 17.7083 15.9755 17.25 15.9755 16.75C15.9755 16.25 16.0922 15.7917 16.3255 15.375C16.5755 14.9583 16.9088 14.6333 17.3255 14.4C17.7588 14.15 18.2255 14.025 18.7255 14.025C19.2255 14.025 19.6838 14.15 20.1005 14.4C20.5338 14.6333 20.8672 14.9583 21.1005 15.375C21.3505 15.7917 21.4755 16.25 21.4755 16.75C21.4755 17.25 21.3505 17.7083 21.1005 18.125C20.8672 18.5417 20.5338 18.875 20.1005 19.125C19.6838 19.3583 19.2255 19.475 18.7255 19.475ZM18.7255 19C19.3588 19 19.8922 18.7833 20.3255 18.35C20.7588 17.9 20.9755 17.3667 20.9755 16.75C20.9755 16.1167 20.7588 15.5833 20.3255 15.15C19.8922 14.7167 19.3672 14.5 18.7505 14.5C18.1172 14.5 17.5755 14.7167 17.1255 15.15C16.6922 15.5833 16.4755 16.1083 16.4755 16.725C16.4755 17.3583 16.6922 17.9 17.1255 18.35C17.5755 18.7833 18.1088 19 18.7255 19Z" fill="black"/>
</g>
<defs>
<clipPath id="clip0_3194_2718">
<rect width="24" height="24" fill="white"/>
</clipPath>
</defs>
</svg>
