<svg width="24" height="24" viewBox="0 0 24 24" fill="none" xmlns="http://www.w3.org/2000/svg">
<g clip-path="url(#clip0_3194_2977)">
<rect width="24" height="24" fill="white"/>
<path d="M20.7255 6.475C20.8088 7.25833 20.7672 8.00833 20.6005 8.725C20.4505 9.425 20.1255 10.025 19.6255 10.525L18.2005 11.95L18.5005 14.7C18.5838 15.4167 18.5755 16.0167 18.4755 16.5C18.3755 16.9833 18.1588 17.3917 17.8255 17.725L14.3755 21.175L2.37549 9.175L5.87549 5.675C6.17549 5.375 6.57549 5.175 7.07549 5.075C7.57549 4.975 8.16716 4.96667 8.85049 5.05L11.6505 5.35L13.0505 3.95C13.5505 3.45 14.1505 3.125 14.8505 2.975C15.5672 2.80833 16.3172 2.76667 17.1005 2.85L20.3505 3.2L20.7255 6.475ZM16.7255 5.375C16.2088 5.325 15.8422 5.325 15.6255 5.375C15.4088 5.425 15.1755 5.575 14.9255 5.825L8.82549 11.925L11.6505 14.75L17.7505 8.65C17.9338 8.46667 18.0588 8.3 18.1255 8.15C18.2088 7.98333 18.2505 7.825 18.2505 7.675C18.2505 7.525 18.2255 7.24167 18.1755 6.825L18.0755 5.475L16.7255 5.375ZM6.95049 10.05L9.30049 7.7L8.20049 7.55C8.05049 7.53333 7.90882 7.55 7.77549 7.6C7.64216 7.65 7.53382 7.71667 7.45049 7.8L6.07549 9.175L6.95049 10.05ZM14.3755 17.475L15.7005 16.15C15.8005 16.05 15.8755 15.9333 15.9255 15.8C15.9755 15.6667 15.9922 15.525 15.9755 15.375L15.8755 14.275L13.5255 16.625L14.3755 17.475ZM7.75049 15.8C8.08382 16.1333 8.24216 16.5417 8.22549 17.025C8.20882 17.5083 8.02549 17.925 7.67549 18.275C7.27549 18.675 6.75882 19 6.12549 19.25C5.50882 19.4833 4.78382 19.6 3.95049 19.6C3.96716 18.7833 4.09216 18.0583 4.32549 17.425C4.55882 16.7917 4.87549 16.275 5.27549 15.875C5.62549 15.525 6.04216 15.35 6.52549 15.35C7.02549 15.3333 7.43382 15.4833 7.75049 15.8ZM7.97549 12.775C7.94216 12.7417 7.92549 12.725 7.92549 12.725C7.92549 12.725 7.90882 12.7083 7.87549 12.675C7.90882 12.7083 7.92549 12.7333 7.92549 12.75C7.94216 12.75 7.96716 12.7667 8.00049 12.8L7.95049 12.75C7.98382 12.7833 8.00049 12.8083 8.00049 12.825C8.01716 12.825 8.03382 12.8333 8.05049 12.85C8.03382 12.8333 8.01716 12.825 8.00049 12.825C8.00049 12.8083 7.99216 12.7917 7.97549 12.775ZM18.7255 4.875C18.6255 4.775 18.5672 4.65833 18.5505 4.525C18.5505 4.375 18.5922 4.25833 18.6755 4.175C18.7922 4.05833 18.9172 4.00833 19.0505 4.025C19.2005 4.025 19.3255 4.075 19.4255 4.175C19.5255 4.275 19.5755 4.39167 19.5755 4.525C19.5755 4.65833 19.5255 4.775 19.4255 4.875C19.3255 4.975 19.2088 5.025 19.0755 5.025C18.9422 5.025 18.8255 4.975 18.7255 4.875ZM19.0255 4.525C18.9922 4.49167 18.9672 4.475 18.9505 4.475C18.9505 4.45833 18.9338 4.43333 18.9005 4.4C18.9338 4.43333 18.9505 4.45833 18.9505 4.475C18.9672 4.475 18.9922 4.49167 19.0255 4.525C19.0755 4.575 19.1088 4.60833 19.1255 4.625C19.1422 4.64167 19.1672 4.66667 19.2005 4.7C19.1672 4.66667 19.1422 4.64167 19.1255 4.625C19.1088 4.60833 19.0755 4.575 19.0255 4.525Z" fill="black"/>
</g>
<defs>
<clipPath id="clip0_3194_2977">
<rect width="24" height="24" fill="white"/>
</clipPath>
</defs>
</svg>
