<svg width="24" height="24" viewBox="0 0 24 24" fill="none" xmlns="http://www.w3.org/2000/svg">
<g clip-path="url(#clip0_3194_2979)">
<rect width="24" height="24" fill="white"/>
<path d="M20.8005 5.975C20.9338 6.575 20.9088 7.18333 20.7255 7.8C20.5588 8.4 20.2672 8.90833 19.8505 9.325L18.6255 10.55L19.1255 13.95C19.2088 14.6667 19.1922 15.2917 19.0755 15.825C18.9588 16.3583 18.7005 16.825 18.3005 17.225L14.8255 20.7L2.82549 8.7L6.50049 5.025C6.81716 4.70833 7.22549 4.50833 7.72549 4.425C8.24216 4.325 8.85882 4.31667 9.57549 4.4L13.0005 4.925L14.2255 3.7C14.6255 3.3 15.1338 3.00833 15.7505 2.825C16.3672 2.64167 16.9755 2.61667 17.5755 2.75L20.3255 3.2L20.8005 5.975ZM17.0755 5.8C16.9588 5.78333 16.8422 5.79167 16.7255 5.825C16.6255 5.84167 16.5422 5.88333 16.4755 5.95L10.5005 11.925L11.6005 13.025L17.5755 7.05C17.6088 7.01667 17.6422 6.96667 17.6755 6.9C17.7088 6.83333 17.7338 6.76667 17.7505 6.7C17.7672 6.63333 17.7672 6.55833 17.7505 6.475L17.6505 5.875L17.0755 5.8ZM8.25049 9.675L10.2255 7.7L8.95049 7.375C8.86716 7.35833 8.78382 7.375 8.70049 7.425C8.61716 7.475 8.53382 7.54167 8.45049 7.625L7.32549 8.75L8.25049 9.675ZM14.8005 16.225L15.8255 15.2C15.8922 15.1333 15.9505 15.05 16.0005 14.95C16.0505 14.85 16.0672 14.7583 16.0505 14.675L15.8505 13.325L13.8755 15.3L14.8005 16.225ZM8.20049 15.325C8.65049 15.775 8.87549 16.3 8.87549 16.9C8.87549 17.5 8.65049 18.025 8.20049 18.475C7.76716 18.9083 7.17549 19.2333 6.42549 19.45C5.69216 19.65 4.85882 19.7 3.92549 19.6C3.84216 18.6833 3.90049 17.85 4.10049 17.1C4.30049 16.35 4.61716 15.7583 5.05049 15.325C5.50049 14.875 6.02549 14.6583 6.62549 14.675C7.24216 14.675 7.76716 14.8917 8.20049 15.325ZM9.47549 14.05C9.45882 14.0333 9.44216 14.025 9.42549 14.025C9.42549 14.0083 9.41716 13.9917 9.40049 13.975C9.41716 13.9917 9.43382 14.0083 9.45049 14.025C9.46716 14.0417 9.48382 14.0583 9.50049 14.075L9.47549 14.05C9.49216 14.0667 9.50882 14.0833 9.52549 14.1C9.54216 14.1167 9.55882 14.1333 9.57549 14.15C9.55882 14.1333 9.54216 14.125 9.52549 14.125C9.52549 14.1083 9.50882 14.0833 9.47549 14.05ZM18.8005 4.775C18.7172 4.69167 18.6755 4.6 18.6755 4.5C18.6755 4.4 18.7088 4.31667 18.7755 4.25C18.8588 4.16667 18.9505 4.125 19.0505 4.125C19.1505 4.125 19.2422 4.16667 19.3255 4.25C19.3922 4.31667 19.4255 4.40833 19.4255 4.525C19.4422 4.625 19.4088 4.71667 19.3255 4.8C19.2588 4.86667 19.1672 4.9 19.0505 4.9C18.9505 4.88333 18.8672 4.84167 18.8005 4.775ZM19.0255 4.5C19.0088 4.48333 18.9922 4.475 18.9755 4.475C18.9755 4.45833 18.9672 4.44167 18.9505 4.425C18.9672 4.44167 18.9755 4.45833 18.9755 4.475C18.9922 4.475 19.0088 4.48333 19.0255 4.5C19.0588 4.53333 19.0755 4.55833 19.0755 4.575C19.0922 4.575 19.1172 4.59167 19.1505 4.625C19.1172 4.59167 19.0922 4.575 19.0755 4.575C19.0755 4.55833 19.0588 4.53333 19.0255 4.5Z" fill="black"/>
</g>
<defs>
<clipPath id="clip0_3194_2979">
<rect width="24" height="24" fill="white"/>
</clipPath>
</defs>
</svg>
