<svg width="24" height="24" viewBox="0 0 24 24" fill="none" xmlns="http://www.w3.org/2000/svg">
<g clip-path="url(#clip0_3194_2849)">
<rect width="24" height="24" fill="white"/>
<path d="M14.2755 2.35C14.8088 2.7 15.2255 3.15 15.5255 3.7C15.8255 4.25 15.9755 4.825 15.9755 5.425V8.15L18.7255 10.2C19.3088 10.65 19.7422 11.1083 20.0255 11.575C20.3255 12.025 20.4755 12.525 20.4755 13.075V18.5H3.50049V12.825C3.50049 12.375 3.64216 11.9333 3.92549 11.5C4.22549 11.0667 4.66716 10.6333 5.25049 10.2L8.02549 8.15V5.425C8.02549 4.84167 8.17549 4.275 8.47549 3.725C8.79216 3.15833 9.20882 2.7 9.72549 2.35L12.0005 0.749998L14.2755 2.35ZM11.5255 4.85C11.4422 4.91667 11.3672 5 11.3005 5.1C11.2338 5.2 11.2005 5.3 11.2005 5.4V15.375H12.8005V5.4C12.8005 5.33333 12.7838 5.26667 12.7505 5.2C12.7172 5.13333 12.6755 5.075 12.6255 5.025C12.5922 4.95833 12.5422 4.9 12.4755 4.85L12.0005 4.5L11.5255 4.85ZM8.05049 15.375V12.025L6.87549 12.725C6.79216 12.775 6.73382 12.85 6.70049 12.95C6.68382 13.0333 6.67549 13.125 6.67549 13.225V15.375H8.05049ZM17.3005 15.375V13.375C17.3005 13.275 17.2838 13.175 17.2505 13.075C17.2338 12.975 17.1838 12.9 17.1005 12.85L15.9505 12.025V15.375H17.3005ZM12.0255 17.55C12.6755 17.55 13.2255 17.775 13.6755 18.225C14.1255 18.675 14.3505 19.225 14.3505 19.875C14.3505 20.5417 14.1422 21.225 13.7255 21.925C13.3255 22.6417 12.7505 23.3167 12.0005 23.95C11.2505 23.3167 10.6672 22.6417 10.2505 21.925C9.85049 21.225 9.65049 20.5417 9.65049 19.875C9.65049 19.225 9.87549 18.675 10.3255 18.225C10.7922 17.775 11.3588 17.55 12.0255 17.55ZM12.0005 17.575C11.9672 17.575 11.9422 17.575 11.9255 17.575C11.9255 17.575 11.9088 17.575 11.8755 17.575C11.9088 17.575 11.9338 17.575 11.9505 17.575C11.9672 17.575 11.9922 17.575 12.0255 17.575H11.9755C12.0088 17.575 12.0338 17.575 12.0505 17.575C12.0672 17.575 12.0922 17.575 12.1255 17.575C12.0922 17.575 12.0672 17.575 12.0505 17.575C12.0505 17.575 12.0338 17.575 12.0005 17.575ZM12.0255 2.95C11.9088 2.95 11.8088 2.91667 11.7255 2.85C11.6588 2.76667 11.6255 2.675 11.6255 2.575C11.6255 2.45833 11.6588 2.36667 11.7255 2.3C11.8088 2.23333 11.9088 2.2 12.0255 2.2C12.1255 2.2 12.2088 2.23333 12.2755 2.3C12.3588 2.36667 12.4005 2.45833 12.4005 2.575C12.4005 2.675 12.3588 2.76667 12.2755 2.85C12.2088 2.91667 12.1255 2.95 12.0255 2.95ZM12.0005 2.575C11.9672 2.575 11.9422 2.575 11.9255 2.575C11.9255 2.575 11.9088 2.575 11.8755 2.575C11.9088 2.575 11.9255 2.575 11.9255 2.575C11.9422 2.575 11.9672 2.575 12.0005 2.575C12.0338 2.575 12.0588 2.575 12.0755 2.575C12.0922 2.575 12.1172 2.575 12.1505 2.575C12.1172 2.575 12.0922 2.575 12.0755 2.575C12.0588 2.575 12.0338 2.575 12.0005 2.575Z" fill="black"/>
</g>
<defs>
<clipPath id="clip0_3194_2849">
<rect width="24" height="24" fill="white"/>
</clipPath>
</defs>
</svg>
