<svg width="24" height="24" viewBox="0 0 24 24" fill="none" xmlns="http://www.w3.org/2000/svg">
<g clip-path="url(#clip0_3194_2770)">
<rect width="24" height="24" fill="white"/>
<path d="M11.5005 8.875V2.975H8.87549L6.87549 4.975H3.50049V15.55H20.5005V13.75C20.5005 13.2667 20.3422 12.8167 20.0255 12.4C19.7088 11.9833 19.3088 11.6833 18.8255 11.5L11.5005 8.875ZM19.0005 11.05C19.5838 11.2667 20.0588 11.625 20.4255 12.125C20.8088 12.625 21.0005 13.1667 21.0005 13.75V16.025H3.00049V4.5H6.65049L8.65049 2.5H12.0005V8.55L19.0005 11.05ZM4.62549 21C4.10882 21 3.66716 20.825 3.30049 20.475C2.93382 20.1083 2.75049 19.6667 2.75049 19.15C2.75049 18.6333 2.93382 18.2 3.30049 17.85C3.66716 17.4833 4.10882 17.3 4.62549 17.3C5.14216 17.3 5.58382 17.4833 5.95049 17.85C6.31716 18.2 6.50049 18.6333 6.50049 19.15C6.50049 19.6667 6.31716 20.1083 5.95049 20.475C5.58382 20.825 5.14216 21 4.62549 21ZM4.62549 20.55C5.00882 20.55 5.33382 20.4167 5.60049 20.15C5.88382 19.8667 6.02549 19.5333 6.02549 19.15C6.02549 18.7667 5.88382 18.4417 5.60049 18.175C5.33382 17.8917 5.00882 17.75 4.62549 17.75C4.24215 17.75 3.90882 17.8917 3.62549 18.175C3.35882 18.4417 3.22549 18.7667 3.22549 19.15C3.22549 19.5333 3.35882 19.8667 3.62549 20.15C3.90882 20.4167 4.24215 20.55 4.62549 20.55ZM19.3755 21C18.8588 21 18.4172 20.825 18.0505 20.475C17.6838 20.1083 17.5005 19.6667 17.5005 19.15C17.5005 18.6333 17.6838 18.2 18.0505 17.85C18.4172 17.4833 18.8588 17.3 19.3755 17.3C19.8922 17.3 20.3338 17.4833 20.7005 17.85C21.0672 18.2 21.2505 18.6333 21.2505 19.15C21.2505 19.6667 21.0672 20.1083 20.7005 20.475C20.3338 20.825 19.8922 21 19.3755 21ZM19.3755 20.55C19.7588 20.55 20.0838 20.4167 20.3505 20.15C20.6338 19.8667 20.7755 19.5333 20.7755 19.15C20.7755 18.7667 20.6338 18.4417 20.3505 18.175C20.0838 17.8917 19.7588 17.75 19.3755 17.75C18.9922 17.75 18.6588 17.8917 18.3755 18.175C18.1088 18.4417 17.9755 18.7667 17.9755 19.15C17.9755 19.5333 18.1088 19.8667 18.3755 20.15C18.6588 20.4167 18.9922 20.55 19.3755 20.55ZM9.52549 21C9.00882 21 8.56716 20.825 8.20049 20.475C7.83382 20.1083 7.65049 19.6667 7.65049 19.15C7.65049 18.6333 7.83382 18.2 8.20049 17.85C8.56716 17.4833 9.00882 17.3 9.52549 17.3C10.0422 17.3 10.4838 17.4833 10.8505 17.85C11.2172 18.2 11.4005 18.6333 11.4005 19.15C11.4005 19.6667 11.2172 20.1083 10.8505 20.475C10.4838 20.825 10.0422 21 9.52549 21ZM9.52549 20.55C9.90882 20.55 10.2338 20.4167 10.5005 20.15C10.7838 19.8667 10.9255 19.5333 10.9255 19.15C10.9255 18.7667 10.7838 18.4417 10.5005 18.175C10.2338 17.8917 9.90882 17.75 9.52549 17.75C9.14216 17.75 8.80882 17.8917 8.52549 18.175C8.25882 18.4417 8.12549 18.7667 8.12549 19.15C8.12549 19.5333 8.25882 19.8667 8.52549 20.15C8.80882 20.4167 9.14216 20.55 9.52549 20.55ZM14.4755 21C13.9588 21 13.5172 20.825 13.1505 20.475C12.7838 20.1083 12.6005 19.6667 12.6005 19.15C12.6005 18.6333 12.7838 18.2 13.1505 17.85C13.5172 17.4833 13.9588 17.3 14.4755 17.3C14.9922 17.3 15.4338 17.4833 15.8005 17.85C16.1672 18.2 16.3505 18.6333 16.3505 19.15C16.3505 19.6667 16.1672 20.1083 15.8005 20.475C15.4338 20.825 14.9922 21 14.4755 21ZM14.4755 20.55C14.8588 20.55 15.1838 20.4167 15.4505 20.15C15.7338 19.8667 15.8755 19.5333 15.8755 19.15C15.8755 18.7667 15.7338 18.4417 15.4505 18.175C15.1838 17.8917 14.8588 17.75 14.4755 17.75C14.0922 17.75 13.7588 17.8917 13.4755 18.175C13.2088 18.4417 13.0755 18.7667 13.0755 19.15C13.0755 19.5333 13.2088 19.8667 13.4755 20.15C13.7588 20.4167 14.0922 20.55 14.4755 20.55Z" fill="black"/>
</g>
<defs>
<clipPath id="clip0_3194_2770">
<rect width="24" height="24" fill="white"/>
</clipPath>
</defs>
</svg>
