<svg width="24" height="24" viewBox="0 0 24 24" fill="none" xmlns="http://www.w3.org/2000/svg">
<g clip-path="url(#clip0_3194_3829)">
<rect width="24" height="24" fill="white"/>
<path d="M9.12549 4.325V11.675H14.8755V4.325H9.12549ZM16.2505 13H7.75049V3H16.2505V13ZM19.4255 5.5L17.1005 8L19.4255 10.5H21.6255V5.5H19.4255ZM23.0005 11.825H18.8005L15.4005 8L18.8005 4.175H23.0005V11.825ZM2.37549 10.5H4.57549L6.90049 8L4.57549 5.5H2.37549V10.5ZM5.20049 4.175L8.60049 8L5.20049 11.825H1.00049V4.175H5.20049ZM17.6005 18.875C16.8838 19.6083 16.0338 20.1917 15.0505 20.625C14.0838 21.0417 13.0672 21.25 12.0005 21.25C10.9338 21.25 9.90882 21.0417 8.92549 20.625C7.95882 20.1917 7.11716 19.6083 6.40049 18.875L7.35049 17.95C7.96716 18.5667 8.66716 19.05 9.45049 19.4C10.2505 19.75 11.1005 19.925 12.0005 19.925C12.9005 19.925 13.7422 19.75 14.5255 19.4C15.3255 19.05 16.0338 18.5667 16.6505 17.95L17.6005 18.875ZM14.6505 15.9C14.3172 16.2667 13.9172 16.55 13.4505 16.75C13.0005 16.9333 12.5172 17.025 12.0005 17.025C11.4838 17.025 10.9922 16.9333 10.5255 16.75C10.0755 16.55 9.68382 16.2667 9.35049 15.9L10.2755 14.975C10.7588 15.4583 11.3338 15.7 12.0005 15.7C12.6672 15.7 13.2422 15.4583 13.7255 14.975L14.6505 15.9Z" fill="black"/>
</g>
<defs>
<clipPath id="clip0_3194_3829">
<rect width="24" height="24" fill="white"/>
</clipPath>
</defs>
</svg>
