<svg width="24" height="24" viewBox="0 0 24 24" fill="none" xmlns="http://www.w3.org/2000/svg">
<g clip-path="url(#clip0_3194_3431)">
<rect width="24" height="24" fill="white"/>
<path d="M20.3 16.175L18.075 16.425L16.1 5.175H14.575C14.275 5.175 14.0167 5.075 13.8 4.875C13.6 4.65833 13.5 4.39167 13.5 4.075C13.5 3.775 13.6 3.525 13.8 3.325C14.0167 3.10833 14.275 3 14.575 3H17.975L20.3 16.175ZM11.95 19H6.85L6.925 16.825H11.05L17.625 10.25L18.325 12.625L11.95 19ZM19.425 21.25C18.7917 21.25 18.2167 21.1 17.7 20.8C17.1833 20.5 16.775 20.0917 16.475 19.575C16.175 19.0417 16.025 18.4667 16.025 17.85C16.025 17.25 16.175 16.6917 16.475 16.175C16.775 15.6417 17.1833 15.225 17.7 14.925C18.2167 14.625 18.7917 14.475 19.425 14.475C20.0583 14.475 20.6333 14.625 21.15 14.925C21.6833 15.225 22.1 15.6417 22.4 16.175C22.7 16.6917 22.85 17.25 22.85 17.85C22.85 18.4667 22.7 19.0417 22.4 19.575C22.1 20.0917 21.6833 20.5 21.15 20.8C20.6333 21.1 20.0583 21.25 19.425 21.25ZM19.425 19.225C19.825 19.225 20.15 19.0917 20.4 18.825C20.6667 18.5583 20.8 18.2417 20.8 17.875C20.8 17.475 20.6667 17.1417 20.4 16.875C20.15 16.6083 19.825 16.475 19.425 16.475C19.0417 16.475 18.7167 16.6083 18.45 16.875C18.1833 17.1417 18.05 17.475 18.05 17.875C18.05 18.2417 18.1833 18.5583 18.45 18.825C18.7167 19.0917 19.0417 19.225 19.425 19.225ZM4.675 21.25C4.04167 21.25 3.45833 21.1 2.925 20.8C2.40833 20.5 2 20.0917 1.7 19.575C1.4 19.0417 1.25 18.4667 1.25 17.85C1.25 17.25 1.4 16.6917 1.7 16.175C2 15.6417 2.40833 15.225 2.925 14.925C3.45833 14.625 4.04167 14.475 4.675 14.475C5.30833 14.475 5.88333 14.625 6.4 14.925C6.91667 15.225 7.325 15.6417 7.625 16.175C7.925 16.6917 8.075 17.25 8.075 17.85C8.075 18.4667 7.925 19.0417 7.625 19.575C7.325 20.0917 6.91667 20.5 6.4 20.8C5.88333 21.1 5.30833 21.25 4.675 21.25ZM4.65 19.225C5.05 19.225 5.375 19.0917 5.625 18.825C5.89167 18.5583 6.025 18.2417 6.025 17.875C6.025 17.475 5.89167 17.15 5.625 16.9C5.375 16.6333 5.05833 16.5 4.675 16.5C4.29167 16.5 3.96667 16.6333 3.7 16.9C3.43333 17.15 3.3 17.4667 3.3 17.85C3.3 18.2333 3.43333 18.5583 3.7 18.825C3.96667 19.0917 4.28333 19.225 4.65 19.225Z" fill="black"/>
</g>
<defs>
<clipPath id="clip0_3194_3431">
<rect width="24" height="24" fill="white"/>
</clipPath>
</defs>
</svg>
