<svg width="24" height="24" viewBox="0 0 24 24" fill="none" xmlns="http://www.w3.org/2000/svg">
<g clip-path="url(#clip0_3194_3417)">
<rect width="24" height="24" fill="white"/>
<path d="M20.3005 16.175L18.0755 16.425L16.1005 5.175H14.5755C14.2755 5.175 14.0172 5.075 13.8005 4.875C13.6005 4.65833 13.5005 4.39167 13.5005 4.075C13.5005 3.775 13.6005 3.525 13.8005 3.325C14.0172 3.10833 14.2755 3 14.5755 3H17.9755L20.3005 16.175ZM11.9505 19H6.85049L6.92549 16.825H11.0505L17.6255 10.25L18.3255 12.625L11.9505 19ZM19.4255 21.25C18.7922 21.25 18.2172 21.1 17.7005 20.8C17.1838 20.5 16.7755 20.0917 16.4755 19.575C16.1755 19.0417 16.0255 18.4667 16.0255 17.85C16.0255 17.25 16.1755 16.6917 16.4755 16.175C16.7755 15.6417 17.1838 15.225 17.7005 14.925C18.2172 14.625 18.7922 14.475 19.4255 14.475C20.0588 14.475 20.6338 14.625 21.1505 14.925C21.6838 15.225 22.1005 15.6417 22.4005 16.175C22.7005 16.6917 22.8505 17.25 22.8505 17.85C22.8505 18.4667 22.7005 19.0417 22.4005 19.575C22.1005 20.0917 21.6838 20.5 21.1505 20.8C20.6338 21.1 20.0588 21.25 19.4255 21.25ZM19.4255 19.225C19.8255 19.225 20.1505 19.0917 20.4005 18.825C20.6672 18.5583 20.8005 18.2417 20.8005 17.875C20.8005 17.475 20.6672 17.1417 20.4005 16.875C20.1505 16.6083 19.8255 16.475 19.4255 16.475C19.0422 16.475 18.7172 16.6083 18.4505 16.875C18.1838 17.1417 18.0505 17.475 18.0505 17.875C18.0505 18.2417 18.1838 18.5583 18.4505 18.825C18.7172 19.0917 19.0422 19.225 19.4255 19.225ZM4.67549 21.25C4.04216 21.25 3.45882 21.1 2.92549 20.8C2.40882 20.5 2.00049 20.0917 1.70049 19.575C1.40049 19.0417 1.25049 18.4667 1.25049 17.85C1.25049 17.25 1.40049 16.6917 1.70049 16.175C2.00049 15.6417 2.40882 15.225 2.92549 14.925C3.45882 14.625 4.04216 14.475 4.67549 14.475C5.30882 14.475 5.88382 14.625 6.40049 14.925C6.91716 15.225 7.32549 15.6417 7.62549 16.175C7.92549 16.6917 8.07549 17.25 8.07549 17.85C8.07549 18.4667 7.92549 19.0417 7.62549 19.575C7.32549 20.0917 6.91716 20.5 6.40049 20.8C5.88382 21.1 5.30882 21.25 4.67549 21.25ZM4.65049 19.225C5.05049 19.225 5.37549 19.0917 5.62549 18.825C5.89216 18.5583 6.02549 18.2417 6.02549 17.875C6.02549 17.475 5.89216 17.15 5.62549 16.9C5.37549 16.6333 5.05882 16.5 4.67549 16.5C4.29216 16.5 3.96716 16.6333 3.70049 16.9C3.43382 17.15 3.30049 17.4667 3.30049 17.85C3.30049 18.2333 3.43382 18.5583 3.70049 18.825C3.96716 19.0917 4.28382 19.225 4.65049 19.225Z" fill="black"/>
</g>
<defs>
<clipPath id="clip0_3194_3417">
<rect width="24" height="24" fill="white"/>
</clipPath>
</defs>
</svg>
