<svg width="24" height="24" viewBox="0 0 24 24" fill="none" xmlns="http://www.w3.org/2000/svg">
<g clip-path="url(#clip0_3194_3419)">
<rect width="24" height="24" fill="white"/>
<path d="M20.3005 15.9L17.5005 16.3L15.6505 5.775H14.1005C13.7172 5.775 13.3838 5.64167 13.1005 5.375C12.8338 5.09167 12.7005 4.75833 12.7005 4.375C12.7005 3.99167 12.8338 3.66667 13.1005 3.4C13.3838 3.13333 13.7172 3 14.1005 3H18.0505L20.3005 15.9ZM11.6505 18.975H7.00049L7.07549 16.225H10.5255H16.5755L16.8505 18.975H11.6505ZM19.1005 21.25C18.4005 21.25 17.7672 21.0833 17.2005 20.75C16.6338 20.4167 16.1838 19.9667 15.8505 19.4C15.5172 18.8333 15.3505 18.2083 15.3505 17.525C15.3505 16.8417 15.5088 16.2167 15.8255 15.65C16.1588 15.0833 16.6088 14.6333 17.1755 14.3C17.7422 13.9667 18.3838 13.8 19.1005 13.8C19.8005 13.8 20.4338 13.9667 21.0005 14.3C21.5672 14.6333 22.0172 15.0917 22.3505 15.675C22.6838 16.2417 22.8505 16.8583 22.8505 17.525C22.8505 18.2083 22.6838 18.8333 22.3505 19.4C22.0172 19.9667 21.5672 20.4167 21.0005 20.75C20.4338 21.0833 19.8005 21.25 19.1005 21.25ZM19.1005 18.75C19.4505 18.75 19.7422 18.6333 19.9755 18.4C20.2088 18.1667 20.3255 17.875 20.3255 17.525C20.3255 17.1917 20.2005 16.9083 19.9505 16.675C19.7172 16.425 19.4338 16.3 19.1005 16.3C18.7672 16.3 18.4755 16.425 18.2255 16.675C17.9922 16.9083 17.8755 17.1917 17.8755 17.525C17.8755 17.875 17.9922 18.1667 18.2255 18.4C18.4588 18.6333 18.7505 18.75 19.1005 18.75ZM5.00049 21.25C4.30049 21.25 3.66716 21.0833 3.10049 20.75C2.53382 20.4167 2.08382 19.9667 1.75049 19.4C1.41715 18.8333 1.25049 18.2083 1.25049 17.525C1.25049 16.8583 1.41715 16.2417 1.75049 15.675C2.08382 15.0917 2.53382 14.6333 3.10049 14.3C3.66716 13.9667 4.30049 13.8 5.00049 13.8C5.70049 13.8 6.33382 13.9667 6.90049 14.3C7.46716 14.6333 7.91716 15.0917 8.25049 15.675C8.58382 16.2417 8.75049 16.8583 8.75049 17.525C8.75049 18.2083 8.58382 18.8333 8.25049 19.4C7.91716 19.9667 7.46716 20.4167 6.90049 20.75C6.33382 21.0833 5.70049 21.25 5.00049 21.25ZM5.00049 18.725C5.35049 18.725 5.63382 18.6167 5.85049 18.4C6.08382 18.1667 6.20049 17.875 6.20049 17.525C6.20049 17.1917 6.08382 16.9083 5.85049 16.675C5.61716 16.4417 5.33382 16.325 5.00049 16.325C4.66716 16.325 4.38382 16.4417 4.15049 16.675C3.91716 16.9083 3.80049 17.1917 3.80049 17.525C3.80049 17.875 3.90882 18.1667 4.12549 18.4C4.35882 18.6167 4.65049 18.725 5.00049 18.725Z" fill="black"/>
</g>
<defs>
<clipPath id="clip0_3194_3419">
<rect width="24" height="24" fill="white"/>
</clipPath>
</defs>
</svg>
