<svg width="24" height="24" viewBox="0 0 24 24" fill="none" xmlns="http://www.w3.org/2000/svg">
<g clip-path="url(#clip0_3194_3425)">
<rect width="24" height="24" fill="white"/>
<path d="M20.025 16.1L19.075 16.275L16.925 3.925H14.775C14.625 3.925 14.5083 3.88333 14.425 3.8C14.3417 3.71667 14.3 3.6 14.3 3.45C14.3 3.31667 14.3417 3.20833 14.425 3.125C14.5083 3.04167 14.625 3 14.775 3H17.75L20.025 16.1ZM13.05 18.85H6.3L6.375 17.925H12.65L18.525 12.05L18.9 13L13.05 18.85ZM19.925 21.25C19.3917 21.25 18.9 21.125 18.45 20.875C18.0167 20.6083 17.6667 20.25 17.4 19.8C17.15 19.35 17.025 18.8583 17.025 18.325C17.025 17.8083 17.15 17.325 17.4 16.875C17.6667 16.425 18.0167 16.075 18.45 15.825C18.9 15.5583 19.3917 15.425 19.925 15.425C20.475 15.425 20.9667 15.5583 21.4 15.825C21.85 16.075 22.2 16.425 22.45 16.875C22.7167 17.325 22.85 17.8083 22.85 18.325C22.85 18.8583 22.7167 19.35 22.45 19.8C22.2 20.25 21.85 20.6083 21.4 20.875C20.95 21.125 20.4583 21.25 19.925 21.25ZM19.925 20.375C20.5083 20.375 20.9917 20.175 21.375 19.775C21.7583 19.375 21.95 18.8917 21.95 18.325C21.95 17.7583 21.7583 17.2833 21.375 16.9C20.9917 16.5167 20.5083 16.325 19.925 16.325C19.375 16.325 18.9 16.5167 18.5 16.9C18.1167 17.2833 17.925 17.7583 17.925 18.325C17.925 18.8917 18.1167 19.375 18.5 19.775C18.9 20.175 19.375 20.375 19.925 20.375ZM4.175 21.25C3.64167 21.25 3.15 21.125 2.7 20.875C2.25 20.6083 1.89167 20.25 1.625 19.8C1.375 19.35 1.25 18.8583 1.25 18.325C1.25 17.8083 1.375 17.325 1.625 16.875C1.89167 16.425 2.24167 16.075 2.675 15.825C3.125 15.5583 3.625 15.425 4.175 15.425C4.70833 15.425 5.19167 15.5583 5.625 15.825C6.075 16.075 6.425 16.425 6.675 16.875C6.94167 17.325 7.075 17.8083 7.075 18.325C7.075 18.8583 6.94167 19.35 6.675 19.8C6.425 20.25 6.075 20.6083 5.625 20.875C5.19167 21.125 4.70833 21.25 4.175 21.25ZM4.175 20.375C4.74167 20.375 5.21667 20.175 5.6 19.775C5.98333 19.375 6.175 18.8917 6.175 18.325C6.175 17.7583 5.98333 17.2833 5.6 16.9C5.21667 16.5167 4.74167 16.325 4.175 16.325C3.625 16.325 3.15 16.5167 2.75 16.9C2.35 17.2833 2.15 17.7583 2.15 18.325C2.15 18.8917 2.34167 19.375 2.725 19.775C3.125 20.175 3.60833 20.375 4.175 20.375Z" fill="black"/>
</g>
<defs>
<clipPath id="clip0_3194_3425">
<rect width="24" height="24" fill="white"/>
</clipPath>
</defs>
</svg>
