<svg width="24" height="24" viewBox="0 0 24 24" fill="none" xmlns="http://www.w3.org/2000/svg">
<g clip-path="url(#clip0_3194_3421)">
<rect width="24" height="24" fill="white"/>
<path d="M20.2255 15.375L16.6755 16.05L15.0255 6.55H13.2005C12.7005 6.55 12.2755 6.38333 11.9255 6.05C11.5922 5.7 11.4255 5.275 11.4255 4.775C11.4255 4.275 11.5922 3.85833 11.9255 3.525C12.2755 3.175 12.7005 3 13.2005 3H18.1005L20.2255 15.375ZM11.4255 18.925H6.50049L6.57549 15.375H10.0005H16.3505L16.6005 18.925H11.4255ZM18.6005 21.25C17.8005 21.25 17.0755 21.0667 16.4255 20.7C15.7922 20.3167 15.2838 19.8083 14.9005 19.175C14.5338 18.525 14.3505 17.8083 14.3505 17.025C14.3505 16.225 14.5255 15.5083 14.8755 14.875C15.2422 14.2417 15.7422 13.7417 16.3755 13.375C17.0255 13.0083 17.7672 12.825 18.6005 12.825C19.3838 12.825 20.1005 13.0167 20.7505 13.4C21.4005 13.7667 21.9088 14.275 22.2755 14.925C22.6588 15.5583 22.8505 16.2583 22.8505 17.025C22.8505 17.8083 22.6588 18.525 22.2755 19.175C21.9088 19.8083 21.4005 20.3167 20.7505 20.7C20.1005 21.0667 19.3838 21.25 18.6005 21.25ZM18.6005 18.075C18.9005 18.075 19.1505 17.975 19.3505 17.775C19.5505 17.575 19.6505 17.325 19.6505 17.025C19.6505 16.7417 19.5422 16.5 19.3255 16.3C19.1255 16.0833 18.8838 15.975 18.6005 15.975C18.3172 15.975 18.0672 16.0833 17.8505 16.3C17.6505 16.5 17.5505 16.7417 17.5505 17.025C17.5505 17.325 17.6505 17.575 17.8505 17.775C18.0505 17.975 18.3005 18.075 18.6005 18.075ZM5.50049 21.25C4.71716 21.25 4.00049 21.0667 3.35049 20.7C2.70049 20.3167 2.18382 19.8083 1.80049 19.175C1.43382 18.525 1.25049 17.8083 1.25049 17.025C1.25049 16.2583 1.43382 15.5583 1.80049 14.925C2.18382 14.275 2.70049 13.7667 3.35049 13.4C4.00049 13.0167 4.71716 12.825 5.50049 12.825C6.30049 12.825 7.01716 13.0167 7.65049 13.4C8.30049 13.7667 8.80882 14.275 9.17549 14.925C9.55882 15.5583 9.75049 16.2583 9.75049 17.025C9.75049 17.8083 9.55882 18.525 9.17549 19.175C8.80882 19.8083 8.30049 20.3167 7.65049 20.7C7.01716 21.0667 6.30049 21.25 5.50049 21.25ZM5.50049 18.075C5.80049 18.075 6.05049 17.975 6.25049 17.775C6.45049 17.575 6.55049 17.325 6.55049 17.025C6.55049 16.7417 6.44216 16.5 6.22549 16.3C6.02549 16.0833 5.78382 15.975 5.50049 15.975C5.21716 15.975 4.96716 16.0833 4.75049 16.3C4.55049 16.5 4.45049 16.7417 4.45049 17.025C4.45049 17.325 4.55049 17.575 4.75049 17.775C4.95049 17.975 5.20049 18.075 5.50049 18.075Z" fill="black"/>
</g>
<defs>
<clipPath id="clip0_3194_3421">
<rect width="24" height="24" fill="white"/>
</clipPath>
</defs>
</svg>
