<svg width="24" height="24" viewBox="0 0 24 24" fill="none" xmlns="http://www.w3.org/2000/svg">
<g clip-path="url(#clip0_3196_4277)">
<rect width="24" height="24" fill="white"/>
<path d="M5.40049 18.475C4.95049 18.475 4.54216 18.375 4.17549 18.175C3.80882 17.9583 3.51716 17.6667 3.30049 17.3C3.08382 16.9333 2.97549 16.525 2.97549 16.075C2.97549 15.6417 3.08382 15.2417 3.30049 14.875C3.51716 14.5083 3.80882 14.2167 4.17549 14C4.54216 13.7833 4.95049 13.675 5.40049 13.675C5.83382 13.675 6.23382 13.7833 6.60049 14C6.98382 14.2167 7.27549 14.5083 7.47549 14.875C7.69216 15.2417 7.80049 15.6417 7.80049 16.075C7.80049 16.525 7.68382 16.9333 7.45049 17.3C7.23382 17.6667 6.93382 17.9583 6.55049 18.175C6.18382 18.375 5.80049 18.475 5.40049 18.475ZM5.40049 17.65C5.81716 17.65 6.17549 17.5 6.47549 17.2C6.79216 16.8833 6.95049 16.5083 6.95049 16.075C6.95049 15.6417 6.79216 15.275 6.47549 14.975C6.17549 14.675 5.81716 14.525 5.40049 14.525C4.96716 14.525 4.60049 14.675 4.30049 14.975C4.00049 15.275 3.85049 15.6417 3.85049 16.075C3.85049 16.5083 4.00049 16.8833 4.30049 17.2C4.60049 17.5 4.96716 17.65 5.40049 17.65ZM19.0505 18.475C18.6005 18.475 18.1922 18.375 17.8255 18.175C17.4588 17.9583 17.1672 17.6667 16.9505 17.3C16.7338 16.9333 16.6255 16.525 16.6255 16.075C16.6255 15.6417 16.7338 15.2417 16.9505 14.875C17.1672 14.5083 17.4588 14.2167 17.8255 14C18.1922 13.7833 18.6005 13.675 19.0505 13.675C19.5005 13.675 19.9088 13.7833 20.2755 14C20.6422 14.2167 20.9338 14.5083 21.1505 14.875C21.3672 15.2417 21.4755 15.6417 21.4755 16.075C21.4755 16.525 21.3672 16.9333 21.1505 17.3C20.9338 17.6667 20.6422 17.9583 20.2755 18.175C19.9088 18.375 19.5005 18.475 19.0505 18.475ZM19.0505 17.65C19.4838 17.65 19.8505 17.5 20.1505 17.2C20.4505 16.8833 20.6005 16.5083 20.6005 16.075C20.6005 15.6417 20.4505 15.275 20.1505 14.975C19.8505 14.675 19.4838 14.525 19.0505 14.525C18.6172 14.525 18.2505 14.675 17.9505 14.975C17.6505 15.275 17.5005 15.6417 17.5005 16.075C17.5005 16.5083 17.6505 16.8833 17.9505 17.2C18.2505 17.5 18.6172 17.65 19.0505 17.65ZM17.3755 16.675H7.27549V15.75H17.3755V16.675ZM3.57549 16.675H2.25049C1.83382 16.675 1.45049 16.575 1.10049 16.375C0.767155 16.175 0.500488 15.9083 0.300488 15.575C0.100488 15.225 0.000488281 14.8417 0.000488281 14.425V9.075H2.85049L5.10049 6.425C5.48382 5.975 5.90049 5.625 6.35049 5.375C6.81716 5.125 7.32549 5 7.87549 5H13.3255C13.8755 5 14.3755 5.125 14.8255 5.375C15.2922 5.625 15.7172 5.975 16.1005 6.425L18.1255 8.825L21.6255 9.425C22.3922 9.55833 22.9755 9.86667 23.3755 10.35C23.7922 10.8167 24.0005 11.4167 24.0005 12.15V16.675H21.0255V15.75H23.0505V12.15C23.0505 11.65 22.9172 11.25 22.6505 10.95C22.3838 10.6333 21.9922 10.425 21.4755 10.325L17.6005 9.675L15.3755 7C15.0755 6.65 14.7588 6.38333 14.4255 6.2C14.0922 6.01667 13.7255 5.925 13.3255 5.925H7.87549C7.47549 5.925 7.10882 6.01667 6.77549 6.2C6.44216 6.38333 6.12549 6.65 5.82549 7L3.30049 10H0.950488V14.425C0.950488 14.7917 1.07549 15.1083 1.32549 15.375C1.57549 15.625 1.88382 15.75 2.25049 15.75H3.57549V16.675Z" fill="black"/>
</g>
<defs>
<clipPath id="clip0_3196_4277">
<rect width="24" height="24" fill="white"/>
</clipPath>
</defs>
</svg>
