<svg width="24" height="24" viewBox="0 0 24 24" fill="none" xmlns="http://www.w3.org/2000/svg">
<g clip-path="url(#clip0_3196_4283)">
<rect width="24" height="24" fill="white"/>
<path d="M5.92549 18.675C5.37549 18.675 4.86716 18.5417 4.40049 18.275C3.93382 18.0083 3.56715 17.6417 3.30049 17.175C3.03382 16.7083 2.90049 16.2 2.90049 15.65C2.90049 15.1167 3.03382 14.6167 3.30049 14.15C3.56715 13.6833 3.93382 13.3167 4.40049 13.05C4.86716 12.7833 5.37549 12.65 5.92549 12.65C6.45882 12.65 6.95882 12.7833 7.42549 13.05C7.89216 13.3167 8.25882 13.6833 8.52549 14.15C8.79216 14.6167 8.92549 15.1167 8.92549 15.65C8.92549 16.2 8.79216 16.7083 8.52549 17.175C8.25882 17.6417 7.89216 18.0083 7.42549 18.275C6.95882 18.5417 6.45882 18.675 5.92549 18.675ZM5.92549 16.7C6.20882 16.7 6.45049 16.6 6.65049 16.4C6.85049 16.2 6.95049 15.95 6.95049 15.65C6.95049 15.35 6.85049 15.1 6.65049 14.9C6.45049 14.7 6.20882 14.6 5.92549 14.6C5.64216 14.6 5.39216 14.7 5.17549 14.9C4.97549 15.1 4.87549 15.35 4.87549 15.65C4.87549 15.95 4.97549 16.2 5.17549 16.4C5.39216 16.6 5.64216 16.7 5.92549 16.7ZM18.8005 18.675C18.2505 18.675 17.7422 18.5417 17.2755 18.275C16.8088 18.0083 16.4422 17.6417 16.1755 17.175C15.9255 16.7083 15.8005 16.2 15.8005 15.65C15.8005 15.1 15.9255 14.6 16.1755 14.15C16.4422 13.6833 16.8088 13.3167 17.2755 13.05C17.7422 12.7833 18.2505 12.65 18.8005 12.65C19.3505 12.65 19.8588 12.7833 20.3255 13.05C20.7922 13.3167 21.1505 13.6833 21.4005 14.15C21.6672 14.6 21.8005 15.1 21.8005 15.65C21.8005 16.2 21.6672 16.7083 21.4005 17.175C21.1505 17.6417 20.7922 18.0083 20.3255 18.275C19.8588 18.5417 19.3505 18.675 18.8005 18.675ZM18.8005 16.7C19.0838 16.7 19.3255 16.6 19.5255 16.4C19.7255 16.2 19.8255 15.95 19.8255 15.65C19.8255 15.35 19.7255 15.1 19.5255 14.9C19.3255 14.7 19.0838 14.6 18.8005 14.6C18.5172 14.6 18.2755 14.7 18.0755 14.9C17.8755 15.1 17.7755 15.35 17.7755 15.65C17.7755 15.95 17.8755 16.2 18.0755 16.4C18.2755 16.6 18.5172 16.7 18.8005 16.7ZM17.3755 16.7H7.65049V14.45H17.3755V16.7ZM4.37549 16.7H2.97549C2.42549 16.7 1.92549 16.5667 1.47549 16.3C1.02549 16.0333 0.667155 15.6833 0.400488 15.25C0.133822 14.8 0.000488281 14.3 0.000488281 13.75V8.35H2.97549L4.65049 6.325C5.06716 5.84167 5.51716 5.475 6.00049 5.225C6.50049 4.975 7.05049 4.85 7.65049 4.85H13.8505C14.4672 4.85 15.0255 4.98333 15.5255 5.25C16.0255 5.5 16.4838 5.875 16.9005 6.375L18.1505 7.925L20.9005 8.425C21.8005 8.575 22.5422 8.975 23.1255 9.625C23.7088 10.275 24.0005 11.0417 24.0005 11.925V16.675H20.8005V14.425H21.6755V11.925C21.6755 11.6083 21.5672 11.3333 21.3505 11.1C21.1338 10.85 20.8505 10.6917 20.5005 10.625L16.9005 10L15.0755 7.8C14.8922 7.56667 14.7088 7.39167 14.5255 7.275C14.3422 7.15833 14.1172 7.1 13.8505 7.1H7.65049C7.38382 7.1 7.15882 7.15833 6.97549 7.275C6.79216 7.39167 6.60882 7.55833 6.42549 7.775L4.07549 10.6H2.32549V13.75C2.32549 13.95 2.38382 14.1167 2.50049 14.25C2.63382 14.3833 2.79216 14.45 2.97549 14.45H4.37549V16.7Z" fill="black"/>
</g>
<defs>
<clipPath id="clip0_3196_4283">
<rect width="24" height="24" fill="white"/>
</clipPath>
</defs>
</svg>
