<svg width="24" height="24" viewBox="0 0 24 24" fill="none" xmlns="http://www.w3.org/2000/svg">
<g clip-path="url(#clip0_3196_4299)">
<rect width="24" height="24" fill="white"/>
<path d="M6.15 18.825C5.55 18.825 5 18.6833 4.5 18.4C4 18.1 3.6 17.7 3.3 17.2C3.01667 16.7 2.875 16.1583 2.875 15.575C2.875 14.975 3.01667 14.425 3.3 13.925C3.6 13.425 4 13.0333 4.5 12.75C5 12.45 5.55 12.3 6.15 12.3C6.73333 12.3 7.275 12.45 7.775 12.75C8.275 13.0333 8.66667 13.425 8.95 13.925C9.25 14.425 9.4 14.975 9.4 15.575C9.4 16.1583 9.25 16.7 8.95 17.2C8.66667 17.7 8.275 18.1 7.775 18.4C7.275 18.6833 6.73333 18.825 6.15 18.825ZM6.15 16.65C6.45 16.65 6.7 16.55 6.9 16.35C7.11667 16.1333 7.225 15.875 7.225 15.575C7.225 15.2583 7.11667 15 6.9 14.8C6.7 14.5833 6.45 14.475 6.15 14.475C5.83333 14.475 5.56667 14.5833 5.35 14.8C5.15 15 5.05 15.2583 5.05 15.575C5.05 15.875 5.15 16.1333 5.35 16.35C5.56667 16.55 5.83333 16.65 6.15 16.65ZM18.675 18.825C18.075 18.825 17.525 18.6833 17.025 18.4C16.525 18.1167 16.125 17.725 15.825 17.225C15.5417 16.725 15.4 16.175 15.4 15.575C15.4 14.975 15.5417 14.425 15.825 13.925C16.1083 13.425 16.5 13.0333 17 12.75C17.5 12.45 18.0583 12.3 18.675 12.3C19.275 12.3 19.825 12.4417 20.325 12.725C20.825 13.0083 21.2167 13.4083 21.5 13.925C21.8 14.425 21.95 14.975 21.95 15.575C21.95 16.175 21.8 16.725 21.5 17.225C21.2167 17.725 20.825 18.1167 20.325 18.4C19.825 18.6833 19.275 18.825 18.675 18.825ZM18.675 16.65C18.975 16.65 19.225 16.55 19.425 16.35C19.6417 16.1333 19.75 15.875 19.75 15.575C19.75 15.2583 19.6417 15 19.425 14.8C19.225 14.5833 18.975 14.475 18.675 14.475C18.375 14.475 18.1167 14.5833 17.9 14.8C17.7 15 17.6 15.2583 17.6 15.575C17.6 15.875 17.7 16.1333 17.9 16.35C18.1167 16.55 18.375 16.65 18.675 16.65ZM4.525 16.9H2.5C1.93333 16.9 1.45833 16.7083 1.075 16.325C0.691667 15.9417 0.5 15.475 0.5 14.925V9.75H2.3L5.3 6.1C5.68333 5.65 6.125 5.3 6.625 5.05C7.14167 4.8 7.69167 4.675 8.275 4.675H12.35C12.9833 4.675 13.55 4.8 14.05 5.05C14.55 5.28333 14.9833 5.63333 15.35 6.1L18.1 9.575L20.95 10.15C21.7167 10.3 22.3333 10.625 22.8 11.125C23.2667 11.625 23.5 12.2083 23.5 12.875V16.825H20.9V14.125L18.7 13.05L16.525 13.625L17.2 16.9H7.725L7.7 13.7L5.975 13.25L4.525 14.2V16.9ZM14.725 9.75L13.2 7.85C13.0833 7.7 12.9583 7.59167 12.825 7.525C12.7083 7.44167 12.5667 7.4 12.4 7.4H8.275C8.09167 7.4 7.94167 7.44167 7.825 7.525C7.70833 7.59167 7.58333 7.70833 7.45 7.875L5.9 9.75H14.725Z" fill="black"/>
</g>
<defs>
<clipPath id="clip0_3196_4299">
<rect width="24" height="24" fill="white"/>
</clipPath>
</defs>
</svg>
