<svg width="24" height="24" viewBox="0 0 24 24" fill="none" xmlns="http://www.w3.org/2000/svg">
<g clip-path="url(#clip0_3194_2907)">
<rect width="24" height="24" fill="white"/>
<path d="M11.275 22H7V7.525C7 6.34167 7.20833 5.25833 7.625 4.275C8.05833 3.275 8.65833 2.48333 9.425 1.9C10.1917 1.3 11.05 1 12 1C12.95 1 13.8083 1.3 14.575 1.9C15.3417 2.48333 15.9333 3.275 16.35 4.275C16.7833 5.25833 17 6.34167 17 7.525V22H12.725L12.625 17.125H11.375L11.275 22ZM2.025 16.05V22H5.5V13L2.025 16.05ZM18.5 13V22H21.975V16.05L18.5 13ZM10.525 5.3C10.175 5.71667 10 6.24167 10 6.875V8.5H14V6.875C14 6.225 13.8167 5.7 13.45 5.3C13.1 4.88333 12.6167 4.675 12 4.675C11.3833 4.675 10.8917 4.88333 10.525 5.3Z" fill="black"/>
</g>
<defs>
<clipPath id="clip0_3194_2907">
<rect width="24" height="24" fill="white"/>
</clipPath>
</defs>
</svg>
