<svg width="24" height="24" viewBox="0 0 24 24" fill="none" xmlns="http://www.w3.org/2000/svg">
<g clip-path="url(#clip0_3194_3547)">
<rect width="24" height="24" fill="white"/>
<path d="M6.07549 17.35C5.60882 17.35 5.20882 17.1833 4.87549 16.85C4.54216 16.5167 4.37549 16.1083 4.37549 15.625C4.37549 15.1583 4.54216 14.7583 4.87549 14.425C5.20882 14.0917 5.60882 13.925 6.07549 13.925C6.55882 13.925 6.96716 14.0917 7.30049 14.425C7.63382 14.7583 7.80049 15.1583 7.80049 15.625C7.80049 16.1083 7.63382 16.5167 7.30049 16.85C6.96716 17.1833 6.55882 17.35 6.07549 17.35ZM6.07549 15.625C5.90882 15.625 5.78382 15.625 5.70049 15.625C5.63382 15.625 5.51716 15.625 5.35049 15.625C5.51716 15.625 5.63382 15.625 5.70049 15.625C5.78382 15.625 5.90882 15.625 6.07549 15.625C6.25882 15.625 6.38382 15.625 6.45049 15.625C6.53382 15.625 6.65882 15.625 6.82549 15.625C6.65882 15.625 6.53382 15.625 6.45049 15.625C6.36716 15.625 6.24216 15.625 6.07549 15.625ZM17.9255 17.35C17.4422 17.35 17.0338 17.1833 16.7005 16.85C16.3672 16.5167 16.2005 16.1083 16.2005 15.625C16.2005 15.1583 16.3672 14.7583 16.7005 14.425C17.0338 14.0917 17.4422 13.925 17.9255 13.925C18.4088 13.925 18.8088 14.0917 19.1255 14.425C19.4588 14.7583 19.6255 15.1583 19.6255 15.625C19.6255 16.1083 19.4588 16.5167 19.1255 16.85C18.8088 17.1833 18.4088 17.35 17.9255 17.35ZM17.9255 15.625C17.7422 15.625 17.6088 15.625 17.5255 15.625C17.4588 15.625 17.3422 15.625 17.1755 15.625C17.3422 15.625 17.4672 15.625 17.5505 15.625C17.6338 15.625 17.7588 15.625 17.9255 15.625C18.0922 15.625 18.2088 15.625 18.2755 15.625C18.3588 15.625 18.4838 15.625 18.6505 15.625C18.4838 15.625 18.3588 15.625 18.2755 15.625C18.2088 15.625 18.0922 15.625 17.9255 15.625ZM24.0005 9.075L21.9505 11.125C21.5838 11.4917 21.1672 11.775 20.7005 11.975C20.2338 12.1583 19.7338 12.25 19.2005 12.25H4.80049C4.26716 12.25 3.76716 12.1583 3.30049 11.975C2.83382 11.775 2.41716 11.4917 2.05049 11.125L0.000488281 9.075L1.82549 7.3L3.80049 9.3C4.08382 9.56667 4.43382 9.70833 4.85049 9.725H19.1505C19.5672 9.70833 19.9172 9.56667 20.2005 9.3L22.1755 7.3L24.0005 9.075Z" fill="black"/>
</g>
<defs>
<clipPath id="clip0_3194_3547">
<rect width="24" height="24" fill="white"/>
</clipPath>
</defs>
</svg>
