<svg width="24" height="24" viewBox="0 0 24 24" fill="none" xmlns="http://www.w3.org/2000/svg">
<g clip-path="url(#clip0_3194_3559)">
<rect width="24" height="24" fill="white"/>
<path d="M6 16.7C5.61667 16.7 5.29167 16.5667 5.025 16.3C4.75833 16.0333 4.625 15.7083 4.625 15.325C4.625 14.9417 4.75833 14.6167 5.025 14.35C5.29167 14.0833 5.61667 13.95 6 13.95C6.38333 13.95 6.70833 14.0833 6.975 14.35C7.24167 14.6167 7.375 14.9417 7.375 15.325C7.375 15.7083 7.24167 16.0333 6.975 16.3C6.70833 16.5667 6.38333 16.7 6 16.7ZM6 15.325C5.85 15.325 5.74167 15.325 5.675 15.325C5.60833 15.325 5.5 15.325 5.35 15.325C5.5 15.325 5.60833 15.325 5.675 15.325C5.74167 15.325 5.85 15.325 6 15.325C6.15 15.325 6.25833 15.325 6.325 15.325C6.39167 15.325 6.5 15.325 6.65 15.325C6.5 15.325 6.39167 15.325 6.325 15.325C6.25833 15.325 6.15 15.325 6 15.325ZM18 16.7C17.6167 16.7 17.2917 16.5667 17.025 16.3C16.7583 16.0333 16.625 15.7083 16.625 15.325C16.625 14.9417 16.7583 14.6167 17.025 14.35C17.2917 14.0833 17.6167 13.95 18 13.95C18.3833 13.95 18.7083 14.0833 18.975 14.35C19.2417 14.6167 19.375 14.9417 19.375 15.325C19.375 15.7083 19.2417 16.0333 18.975 16.3C18.7083 16.5667 18.3833 16.7 18 16.7ZM18 15.325C17.85 15.325 17.7417 15.325 17.675 15.325C17.6083 15.325 17.5 15.325 17.35 15.325C17.5 15.325 17.6083 15.325 17.675 15.325C17.7417 15.325 17.85 15.325 18 15.325C18.15 15.325 18.2583 15.325 18.325 15.325C18.3917 15.325 18.5 15.325 18.65 15.325C18.5 15.325 18.3917 15.325 18.325 15.325C18.2583 15.325 18.15 15.325 18 15.325ZM24 8.775L21.975 10.8C21.6083 11.1667 21.175 11.45 20.675 11.65C20.1917 11.85 19.675 11.95 19.125 11.95H4.875C4.325 11.95 3.8 11.85 3.3 11.65C2.81667 11.45 2.39167 11.1667 2.025 10.8L0 8.775L1.4 7.425L3.375 9.4C3.775 9.8 4.28333 10 4.9 10H19.1C19.7167 10 20.225 9.8 20.625 9.4L22.6 7.425L24 8.775Z" fill="black"/>
</g>
<defs>
<clipPath id="clip0_3194_3559">
<rect width="24" height="24" fill="white"/>
</clipPath>
</defs>
</svg>
