<svg width="24" height="24" viewBox="0 0 24 24" fill="none" xmlns="http://www.w3.org/2000/svg">
<g clip-path="url(#clip0_3194_3561)">
<rect width="24" height="24" fill="white"/>
<path d="M6.075 17.35C5.60833 17.35 5.20833 17.1833 4.875 16.85C4.54167 16.5167 4.375 16.1083 4.375 15.625C4.375 15.1583 4.54167 14.7583 4.875 14.425C5.20833 14.0917 5.60833 13.925 6.075 13.925C6.55833 13.925 6.96667 14.0917 7.3 14.425C7.63333 14.7583 7.8 15.1583 7.8 15.625C7.8 16.1083 7.63333 16.5167 7.3 16.85C6.96667 17.1833 6.55833 17.35 6.075 17.35ZM6.075 15.625C5.90833 15.625 5.78333 15.625 5.7 15.625C5.63333 15.625 5.51667 15.625 5.35 15.625C5.51667 15.625 5.63333 15.625 5.7 15.625C5.78333 15.625 5.90833 15.625 6.075 15.625C6.25833 15.625 6.38333 15.625 6.45 15.625C6.53333 15.625 6.65833 15.625 6.825 15.625C6.65833 15.625 6.53333 15.625 6.45 15.625C6.36667 15.625 6.24167 15.625 6.075 15.625ZM17.925 17.35C17.4417 17.35 17.0333 17.1833 16.7 16.85C16.3667 16.5167 16.2 16.1083 16.2 15.625C16.2 15.1583 16.3667 14.7583 16.7 14.425C17.0333 14.0917 17.4417 13.925 17.925 13.925C18.4083 13.925 18.8083 14.0917 19.125 14.425C19.4583 14.7583 19.625 15.1583 19.625 15.625C19.625 16.1083 19.4583 16.5167 19.125 16.85C18.8083 17.1833 18.4083 17.35 17.925 17.35ZM17.925 15.625C17.7417 15.625 17.6083 15.625 17.525 15.625C17.4583 15.625 17.3417 15.625 17.175 15.625C17.3417 15.625 17.4667 15.625 17.55 15.625C17.6333 15.625 17.7583 15.625 17.925 15.625C18.0917 15.625 18.2083 15.625 18.275 15.625C18.3583 15.625 18.4833 15.625 18.65 15.625C18.4833 15.625 18.3583 15.625 18.275 15.625C18.2083 15.625 18.0917 15.625 17.925 15.625ZM24 9.075L21.95 11.125C21.5833 11.4917 21.1667 11.775 20.7 11.975C20.2333 12.1583 19.7333 12.25 19.2 12.25H4.8C4.26667 12.25 3.76667 12.1583 3.3 11.975C2.83333 11.775 2.41667 11.4917 2.05 11.125L0 9.075L1.825 7.3L3.8 9.3C4.08333 9.56667 4.43333 9.70833 4.85 9.725H19.15C19.5667 9.70833 19.9167 9.56667 20.2 9.3L22.175 7.3L24 9.075Z" fill="black"/>
</g>
<defs>
<clipPath id="clip0_3194_3561">
<rect width="24" height="24" fill="white"/>
</clipPath>
</defs>
</svg>
