<svg width="24" height="24" viewBox="0 0 24 24" fill="none" xmlns="http://www.w3.org/2000/svg">
<g clip-path="url(#clip0_3194_3557)">
<rect width="24" height="24" fill="white"/>
<path d="M6 16.425C5.68333 16.425 5.40833 16.3167 5.175 16.1C4.95833 15.8667 4.85 15.5917 4.85 15.275C4.85 14.9583 4.95833 14.6917 5.175 14.475C5.40833 14.2417 5.68333 14.125 6 14.125C6.31667 14.125 6.58333 14.2333 6.8 14.45C7.03333 14.6667 7.15 14.9417 7.15 15.275C7.15 15.5917 7.04167 15.8667 6.825 16.1C6.60833 16.3167 6.33333 16.425 6 16.425ZM6 15.275C6.03333 15.275 6.05 15.275 6.05 15.275C6.06667 15.275 6.09167 15.275 6.125 15.275C6.09167 15.275 6.06667 15.275 6.05 15.275C6.05 15.275 6.03333 15.275 6 15.275C5.96667 15.275 5.94167 15.275 5.925 15.275C5.925 15.275 5.90833 15.275 5.875 15.275C5.90833 15.275 5.925 15.275 5.925 15.275C5.94167 15.275 5.96667 15.275 6 15.275ZM18 16.425C17.6833 16.425 17.4083 16.3167 17.175 16.1C16.9583 15.8667 16.85 15.5917 16.85 15.275C16.85 14.9583 16.9583 14.6917 17.175 14.475C17.4083 14.2417 17.6833 14.125 18 14.125C18.3167 14.125 18.5833 14.2333 18.8 14.45C19.0333 14.6667 19.15 14.9417 19.15 15.275C19.15 15.5917 19.0417 15.8667 18.825 16.1C18.6083 16.3167 18.3333 16.425 18 16.425ZM18 15.275C18.0333 15.275 18.05 15.275 18.05 15.275C18.0667 15.275 18.0917 15.275 18.125 15.275C18.0917 15.275 18.0667 15.275 18.05 15.275C18.05 15.275 18.0333 15.275 18 15.275C17.9667 15.275 17.9417 15.275 17.925 15.275C17.925 15.275 17.9083 15.275 17.875 15.275C17.9083 15.275 17.925 15.275 17.925 15.275C17.9417 15.275 17.9667 15.275 18 15.275ZM24 8.55L21.85 10.725C21.5167 11.0583 21.1333 11.3083 20.7 11.475C20.2833 11.6417 19.8333 11.725 19.35 11.725H4.65C4.16667 11.725 3.70833 11.6417 3.275 11.475C2.85833 11.3083 2.48333 11.0583 2.15 10.725L0 8.55L1.05 7.55L3.15 9.675C3.56667 10.075 4.075 10.275 4.675 10.275H19.325C19.925 10.275 20.4333 10.075 20.85 9.675L22.95 7.55L24 8.55Z" fill="black"/>
</g>
<defs>
<clipPath id="clip0_3194_3557">
<rect width="24" height="24" fill="white"/>
</clipPath>
</defs>
</svg>
