<svg width="24" height="24" viewBox="0 0 24 24" fill="none" xmlns="http://www.w3.org/2000/svg">
<g clip-path="url(#clip0_3194_3815)">
<rect width="24" height="24" fill="white"/>
<path d="M7.3 21.25C6.61667 21.25 6.025 21.0083 5.525 20.525C5.04167 20.0417 4.8 19.45 4.8 18.75C4.8 18.0667 5.04167 17.4917 5.525 17.025C6.00833 16.5417 6.6 16.3 7.3 16.3C8 16.3 8.59167 16.5417 9.075 17.025C9.575 17.4917 9.825 18.075 9.825 18.775C9.825 19.4583 9.575 20.0417 9.075 20.525C8.59167 21.0083 8 21.25 7.3 21.25ZM7.3 20.45C7.78333 20.45 8.18333 20.2917 8.5 19.975C8.83333 19.6417 9 19.2333 9 18.75C9 18.2833 8.83333 17.8917 8.5 17.575C8.18333 17.2417 7.78333 17.075 7.3 17.075C6.83333 17.075 6.43333 17.2417 6.1 17.575C5.78333 17.8917 5.625 18.2833 5.625 18.75C5.625 19.2333 5.78333 19.6417 6.1 19.975C6.43333 20.2917 6.83333 20.45 7.3 20.45ZM17.2 21.25C16.5 21.25 15.9 21.0083 15.4 20.525C14.9167 20.0417 14.675 19.45 14.675 18.75C14.675 18.0667 14.9167 17.4917 15.4 17.025C15.9 16.5417 16.5 16.3 17.2 16.3C17.9 16.3 18.4917 16.5417 18.975 17.025C19.4583 17.4917 19.7 18.075 19.7 18.775C19.7 19.4583 19.45 20.0417 18.95 20.525C18.4667 21.0083 17.8833 21.25 17.2 21.25ZM17.2 20.425C17.6667 20.425 18.0667 20.2667 18.4 19.95C18.7333 19.6167 18.9 19.2167 18.9 18.75C18.9 18.2833 18.7333 17.8917 18.4 17.575C18.0667 17.2417 17.6667 17.075 17.2 17.075C16.7167 17.075 16.3083 17.2417 15.975 17.575C15.6583 17.8917 15.5 18.2833 15.5 18.75C15.5 19.2167 15.6583 19.6167 15.975 19.95C16.3083 20.2667 16.7167 20.425 17.2 20.425ZM5 9.575L4.45 8.975H13V3H15.5C16.6 3 17.6083 3.26667 18.525 3.8C19.4417 4.31667 20.1583 5.03333 20.675 5.95C21.2083 6.86667 21.475 7.875 21.475 8.975C21.475 10.075 21.2083 11.0833 20.675 12C20.1417 12.9167 19.4167 13.6417 18.5 14.175C17.6 14.7083 16.6 14.975 15.5 14.975H7.8C6.98333 14.975 6.26667 14.7167 5.65 14.2C5.03333 13.6667 4.65 13 4.5 12.2L3.55 6.925H1.975C1.84167 6.925 1.725 6.88333 1.625 6.8C1.54167 6.71667 1.5 6.6 1.5 6.45C1.5 6.31667 1.54167 6.20833 1.625 6.125C1.725 6.04167 1.84167 6 1.975 6H4.375L5 9.575Z" fill="black"/>
</g>
<defs>
<clipPath id="clip0_3194_3815">
<rect width="24" height="24" fill="white"/>
</clipPath>
</defs>
</svg>
