<svg width="24" height="24" viewBox="0 0 24 24" fill="none" xmlns="http://www.w3.org/2000/svg">
<g clip-path="url(#clip0_3194_3809)">
<rect width="24" height="24" fill="white"/>
<path d="M7.37549 12.875C7.40882 13.025 7.47549 13.15 7.57549 13.25C7.67549 13.3333 7.78382 13.375 7.90049 13.375H15.0005C15.7005 13.375 16.3338 13.2083 16.9005 12.875C17.4672 12.525 17.9172 12.0583 18.2505 11.475C18.5838 10.8917 18.7505 10.2333 18.7505 9.5C18.7505 8.8 18.5838 8.15833 18.2505 7.575C17.9172 6.975 17.4672 6.50833 16.9005 6.175C16.3338 5.84167 15.7005 5.675 15.0005 5.675H13.8255V10.4H5.30049V7.725H11.1255V3H15.0005C16.2005 3 17.2922 3.28333 18.2755 3.85C19.2755 4.41667 20.0588 5.2 20.6255 6.2C21.1922 7.2 21.4755 8.30833 21.4755 9.525C21.4755 10.7417 21.1922 11.85 20.6255 12.85C20.0588 13.85 19.2755 14.6333 18.2755 15.2C17.2922 15.7667 16.2005 16.05 15.0005 16.05H7.87549C7.09216 16.05 6.39216 15.7917 5.77549 15.275C5.17549 14.7583 4.80882 14.1167 4.67549 13.35L3.85049 8.475H2.85049C2.48382 8.475 2.16716 8.35 1.90049 8.1C1.65049 7.83333 1.52549 7.51667 1.52549 7.15C1.52549 6.78333 1.65049 6.475 1.90049 6.225C2.16716 5.95833 2.48382 5.825 2.85049 5.825H6.15049L7.37549 12.875ZM7.47549 21.25C6.97549 21.25 6.54216 21.075 6.17549 20.725C5.82549 20.375 5.65049 19.95 5.65049 19.45C5.65049 18.95 5.82549 18.5333 6.17549 18.2C6.54216 17.85 6.97549 17.675 7.47549 17.675C7.97549 17.675 8.40049 17.85 8.75049 18.2C9.11716 18.5333 9.30049 18.95 9.30049 19.45C9.30049 19.95 9.11716 20.375 8.75049 20.725C8.40049 21.075 7.97549 21.25 7.47549 21.25ZM7.47549 19.45C7.49216 19.45 7.50049 19.45 7.50049 19.45C7.51716 19.45 7.53382 19.45 7.55049 19.45C7.53382 19.45 7.51716 19.45 7.50049 19.45C7.50049 19.45 7.49216 19.45 7.47549 19.45C7.45882 19.45 7.44216 19.45 7.42549 19.45C7.42549 19.45 7.41716 19.45 7.40049 19.45C7.41716 19.45 7.42549 19.45 7.42549 19.45C7.44216 19.45 7.45882 19.45 7.47549 19.45ZM17.0255 21.25C16.5255 21.25 16.0922 21.0833 15.7255 20.75C15.3755 20.4 15.2005 19.9667 15.2005 19.45C15.2005 18.9333 15.3755 18.5083 15.7255 18.175C16.0922 17.825 16.5255 17.65 17.0255 17.65C17.5255 17.65 17.9505 17.825 18.3005 18.175C18.6672 18.5083 18.8505 18.9333 18.8505 19.45C18.8505 19.9667 18.6672 20.4 18.3005 20.75C17.9505 21.0833 17.5255 21.25 17.0255 21.25ZM17.0255 19.45C17.0422 19.45 17.0505 19.45 17.0505 19.45C17.0672 19.45 17.0838 19.45 17.1005 19.45C17.0838 19.45 17.0672 19.45 17.0505 19.45C17.0505 19.45 17.0422 19.45 17.0255 19.45C17.0088 19.45 16.9922 19.45 16.9755 19.45C16.9755 19.45 16.9672 19.45 16.9505 19.45C16.9672 19.45 16.9755 19.45 16.9755 19.45C16.9922 19.45 17.0088 19.45 17.0255 19.45Z" fill="black"/>
</g>
<defs>
<clipPath id="clip0_3194_3809">
<rect width="24" height="24" fill="white"/>
</clipPath>
</defs>
</svg>
