<svg width="24" height="24" viewBox="0 0 24 24" fill="none" xmlns="http://www.w3.org/2000/svg">
<g clip-path="url(#clip0_3194_3817)">
<rect width="24" height="24" fill="white"/>
<path d="M7.4 21.25C6.68333 21.25 6.075 21.0083 5.575 20.525C5.075 20.025 4.825 19.425 4.825 18.725C4.825 18.025 5.075 17.4333 5.575 16.95C6.075 16.45 6.68333 16.2 7.4 16.2C8.11667 16.2 8.71667 16.45 9.2 16.95C9.7 17.4333 9.95 18.025 9.95 18.725C9.95 19.425 9.7 20.025 9.2 20.525C8.7 21.0083 8.1 21.25 7.4 21.25ZM7.4 20.1C7.78333 20.1 8.10833 19.9667 8.375 19.7C8.64167 19.4333 8.775 19.1083 8.775 18.725C8.775 18.325 8.64167 17.9917 8.375 17.725C8.10833 17.4583 7.78333 17.325 7.4 17.325C7 17.325 6.66667 17.4583 6.4 17.725C6.13333 17.9917 6 18.325 6 18.725C6 19.1083 6.13333 19.4333 6.4 19.7C6.66667 19.9667 7 20.1 7.4 20.1ZM17.1 21.25C16.4 21.25 15.8 21.0083 15.3 20.525C14.8 20.025 14.55 19.425 14.55 18.725C14.55 18.025 14.7917 17.4333 15.275 16.95C15.775 16.45 16.3833 16.2 17.1 16.2C17.8167 16.2 18.425 16.45 18.925 16.95C19.425 17.4333 19.675 18.025 19.675 18.725C19.675 19.425 19.425 20.025 18.925 20.525C18.425 21.0083 17.8167 21.25 17.1 21.25ZM17.1 20.075C17.5 20.075 17.8333 19.95 18.1 19.7C18.3667 19.4333 18.5 19.1083 18.5 18.725C18.5 18.3417 18.3667 18.0167 18.1 17.75C17.8333 17.4833 17.5 17.35 17.1 17.35C16.7167 17.35 16.3833 17.4833 16.1 17.75C15.8333 18.0167 15.7 18.3417 15.7 18.725C15.7 19.1083 15.8333 19.4333 16.1 19.7C16.3833 19.95 16.7167 20.075 17.1 20.075ZM5.5 9.675L4.725 8.975H13V3H15.5C16.6 3 17.6083 3.26667 18.525 3.8C19.4417 4.31667 20.1583 5.03333 20.675 5.95C21.2083 6.86667 21.475 7.875 21.475 8.975C21.475 10.075 21.2083 11.0833 20.675 12C20.1417 12.9167 19.4167 13.6417 18.5 14.175C17.6 14.7083 16.6 14.975 15.5 14.975H7.7C6.88333 14.975 6.18333 14.725 5.6 14.225C5.01667 13.7083 4.65833 13.05 4.525 12.25L3.65 7.4H2.2C2 7.4 1.83333 7.33333 1.7 7.2C1.58333 7.06667 1.525 6.9 1.525 6.7C1.525 6.5 1.58333 6.33333 1.7 6.2C1.83333 6.06667 2 6 2.2 6H4.825L5.5 9.675Z" fill="black"/>
</g>
<defs>
<clipPath id="clip0_3194_3817">
<rect width="24" height="24" fill="white"/>
</clipPath>
</defs>
</svg>
