<svg width="24" height="24" viewBox="0 0 24 24" fill="none" xmlns="http://www.w3.org/2000/svg">
<g clip-path="url(#clip0_3194_3229)">
<rect width="24" height="24" fill="white"/>
<path d="M16.3755 17H8.47549V16.075H16.3755V17ZM3.75049 17H2.82549C2.39216 17 1.99216 16.9 1.62549 16.7C1.27549 16.5 1.00049 16.225 0.800488 15.875C0.600488 15.525 0.500488 15.1417 0.500488 14.725V9.525L4.02549 5H13.1755C13.7588 5 14.2755 5.125 14.7255 5.375C15.1755 5.625 15.5838 5.99167 15.9505 6.475L18.0005 9.025L21.3755 9.6C21.9922 9.71667 22.5005 10 22.9005 10.45C23.3005 10.9 23.5005 11.4333 23.5005 12.05V17H20.9505V16.075H22.5505V12.05C22.5505 11.6667 22.4255 11.3333 22.1755 11.05C21.9255 10.7667 21.6088 10.5917 21.2255 10.525L17.4755 9.85L15.2005 7.05C14.9005 6.68333 14.5922 6.40833 14.2755 6.225C13.9588 6.025 13.5922 5.925 13.1755 5.925H4.50049L1.45049 9.825V14.725C1.45049 15.1083 1.57549 15.4333 1.82549 15.7C2.09216 15.95 2.42549 16.075 2.82549 16.075H3.75049V17ZM6.15049 19.475C5.61716 19.475 5.12549 19.35 4.67549 19.1C4.22549 18.8333 3.86716 18.4833 3.60049 18.05C3.35049 17.6 3.22549 17.1167 3.22549 16.6C3.22549 16.0667 3.35049 15.5833 3.60049 15.15C3.86716 14.7 4.22549 14.35 4.67549 14.1C5.12549 13.8333 5.61716 13.7 6.15049 13.7C6.66716 13.7 7.15049 13.8333 7.60049 14.1C8.05049 14.35 8.40049 14.7 8.65049 15.15C8.91716 15.5833 9.05049 16.0667 9.05049 16.6C9.05049 17.1167 8.91716 17.6 8.65049 18.05C8.40049 18.4833 8.05049 18.8333 7.60049 19.1C7.15049 19.35 6.66716 19.475 6.15049 19.475ZM6.15049 18.6C6.70049 18.6 7.16716 18.4083 7.55049 18.025C7.95049 17.625 8.15049 17.15 8.15049 16.6C8.15049 16.0333 7.95049 15.5583 7.55049 15.175C7.16716 14.775 6.70049 14.575 6.15049 14.575C5.60049 14.575 5.12549 14.775 4.72549 15.175C4.32549 15.5583 4.12549 16.0333 4.12549 16.6C4.12549 17.15 4.32549 17.625 4.72549 18.025C5.12549 18.4083 5.60049 18.6 6.15049 18.6ZM18.4755 19.475C17.9422 19.475 17.4505 19.35 17.0005 19.1C16.5505 18.8333 16.1922 18.4833 15.9255 18.05C15.6755 17.6 15.5505 17.1167 15.5505 16.6C15.5505 16.0667 15.6755 15.5833 15.9255 15.15C16.1922 14.7 16.5505 14.35 17.0005 14.1C17.4505 13.8333 17.9422 13.7 18.4755 13.7C18.9922 13.7 19.4755 13.8333 19.9255 14.1C20.3755 14.35 20.7255 14.7 20.9755 15.15C21.2422 15.5833 21.3755 16.0667 21.3755 16.6C21.3755 17.1167 21.2422 17.6 20.9755 18.05C20.7255 18.4833 20.3755 18.8333 19.9255 19.1C19.4755 19.35 18.9922 19.475 18.4755 19.475ZM18.4755 18.6C19.0255 18.6 19.4922 18.4083 19.8755 18.025C20.2755 17.625 20.4755 17.15 20.4755 16.6C20.4755 16.0333 20.2755 15.5583 19.8755 15.175C19.4922 14.775 19.0255 14.575 18.4755 14.575C17.9255 14.575 17.4505 14.775 17.0505 15.175C16.6505 15.5583 16.4505 16.0333 16.4505 16.6C16.4505 17.15 16.6505 17.625 17.0505 18.025C17.4505 18.4083 17.9255 18.6 18.4755 18.6Z" fill="black"/>
</g>
<defs>
<clipPath id="clip0_3194_3229">
<rect width="24" height="24" fill="white"/>
</clipPath>
</defs>
</svg>
