<svg width="24" height="24" viewBox="0 0 24 24" fill="none" xmlns="http://www.w3.org/2000/svg">
<g clip-path="url(#clip0_3194_3465)">
<rect width="24" height="24" fill="white"/>
<path d="M0.950488 10.325L5.30049 8.725L6.90049 10.1L9.27549 9.25L5.50049 4.75L9.82549 3.175L14.7005 7.25L18.2005 5.975C19.2172 5.59167 20.1088 5.53333 20.8755 5.8C21.6422 6.06667 22.1838 6.60833 22.5005 7.425C22.8005 8.225 22.7422 8.975 22.3255 9.675C21.9255 10.375 21.1838 10.925 20.1005 11.325L10.3505 14.875H4.75049L0.950488 10.325ZM5.35049 13.55H10.1005L19.7005 10.075C20.3505 9.84167 20.8088 9.53333 21.0755 9.15C21.3422 8.76667 21.4005 8.35833 21.2505 7.925C21.1005 7.45833 20.7922 7.16667 20.3255 7.05C19.8588 6.91667 19.2838 6.975 18.6005 7.225L14.4505 8.725L9.55049 4.625L7.67549 5.3L11.4255 9.825L6.62549 11.6L5.02549 10.225L3.12549 10.9L5.35049 13.55ZM23.0005 18.625V19.975H1.00049V18.625H23.0005Z" fill="black"/>
</g>
<defs>
<clipPath id="clip0_3194_3465">
<rect width="24" height="24" fill="white"/>
</clipPath>
</defs>
</svg>
