<svg width="24" height="24" viewBox="0 0 24 24" fill="none" xmlns="http://www.w3.org/2000/svg">
<g clip-path="url(#clip0_3379_7461)">
<rect width="24" height="24" fill="white"/>
<path d="M1.05049 10.45L5.87549 8.675L7.20049 9.825L9.05049 9.15L5.50049 4.925L10.0505 3.25L14.6505 7.1L18.1755 5.8C19.1755 5.43333 20.0672 5.4 20.8505 5.7C21.6505 5.98333 22.2088 6.55 22.5255 7.4C22.8422 8.23333 22.8005 9.025 22.4005 9.775C22.0005 10.5083 21.2672 11.0667 20.2005 11.45L10.4505 15H4.87549L1.05049 10.45ZM5.65049 13.275H10.1005L19.6505 9.8C20.1672 9.61667 20.5338 9.375 20.7505 9.075C20.9672 8.75833 21.0172 8.41667 20.9005 8.05C20.7672 7.66667 20.5088 7.425 20.1255 7.325C19.7422 7.20833 19.2755 7.25 18.7255 7.45L14.3255 9.05L9.67549 5.175L8.35049 5.65L11.9005 9.925L6.82549 11.8L5.50049 10.65L3.90049 11.225L5.65049 13.275ZM23.0005 18.175V19.975H1.00049V18.175H23.0005Z" fill="black"/>
</g>
<defs>
<clipPath id="clip0_3379_7461">
<rect width="24" height="24" fill="white"/>
</clipPath>
</defs>
</svg>
