<svg width="24" height="24" viewBox="0 0 24 24" fill="none" xmlns="http://www.w3.org/2000/svg">
<g clip-path="url(#clip0_3194_2732)">
<rect width="24" height="24" fill="white"/>
<path d="M5.00049 16.225C5.00049 15.1583 5.08382 14.075 5.25049 12.975C5.43382 11.875 5.70049 10.775 6.05049 9.675C6.21716 9.175 6.50049 8.775 6.90049 8.475C7.31716 8.15833 7.77549 8 8.27549 8H15.7255C16.2255 8 16.6755 8.15833 17.0755 8.475C17.4922 8.775 17.7838 9.175 17.9505 9.675C18.3005 10.775 18.5588 11.875 18.7255 12.975C18.9088 14.075 19.0005 15.1583 19.0005 16.225V22H16.5005V20.5H7.50049V22H5.00049V16.225ZM7.02549 21.525V20.025H16.9755V21.525H18.5005V16.225C18.5005 14.125 18.1588 11.9917 17.4755 9.825C17.3588 9.425 17.1338 9.1 16.8005 8.85C16.4672 8.6 16.1088 8.475 15.7255 8.475H8.27549C7.89216 8.475 7.53382 8.6 7.20049 8.85C6.86716 9.1 6.64216 9.425 6.52549 9.825C5.84216 11.9917 5.50049 14.125 5.50049 16.225V21.525H7.02549ZM5.47549 12.85H18.5255V13.325H5.47549V12.85ZM8.37549 17.475C7.97549 17.475 7.63382 17.3417 7.35049 17.075C7.08382 16.7917 6.95049 16.4583 6.95049 16.075C6.95049 15.6917 7.08382 15.3667 7.35049 15.1C7.63382 14.8167 7.97549 14.675 8.37549 14.675C8.77549 14.675 9.10882 14.8167 9.37549 15.1C9.65882 15.3667 9.80049 15.6917 9.80049 16.075C9.80049 16.4583 9.65882 16.7917 9.37549 17.075C9.10882 17.3417 8.77549 17.475 8.37549 17.475ZM8.37549 17.05C8.65882 17.05 8.89216 16.9583 9.07549 16.775C9.25882 16.575 9.35049 16.3417 9.35049 16.075C9.35049 15.7917 9.25882 15.5583 9.07549 15.375C8.89216 15.1917 8.65882 15.1 8.37549 15.1C8.10882 15.1 7.87549 15.1917 7.67549 15.375C7.49216 15.5583 7.40049 15.7917 7.40049 16.075C7.40049 16.3417 7.49216 16.575 7.67549 16.775C7.87549 16.9583 8.10882 17.05 8.37549 17.05ZM15.6255 17.475C15.2255 17.475 14.8838 17.3417 14.6005 17.075C14.3338 16.7917 14.2005 16.4583 14.2005 16.075C14.2005 15.6917 14.3338 15.3667 14.6005 15.1C14.8838 14.8167 15.2255 14.675 15.6255 14.675C16.0255 14.675 16.3588 14.8167 16.6255 15.1C16.9088 15.3667 17.0505 15.6917 17.0505 16.075C17.0505 16.4583 16.9088 16.7917 16.6255 17.075C16.3588 17.3417 16.0255 17.475 15.6255 17.475ZM15.6255 17.05C15.9088 17.05 16.1422 16.9583 16.3255 16.775C16.5088 16.575 16.6005 16.3417 16.6005 16.075C16.6005 15.7917 16.5088 15.5583 16.3255 15.375C16.1422 15.1917 15.9088 15.1 15.6255 15.1C15.3588 15.1 15.1255 15.1917 14.9255 15.375C14.7422 15.5583 14.6505 15.7917 14.6505 16.075C14.6505 16.3417 14.7422 16.575 14.9255 16.775C15.1255 16.9583 15.3588 17.05 15.6255 17.05ZM3.40049 13.325V12.85H5.67549V12.95L5.42549 13.075V13.35L5.35049 13.425L5.32549 13.325H3.40049ZM18.6505 13.425L18.3005 13.35L18.6255 13.15L18.3755 12.95V12.85H20.6005V13.325H18.6755L18.6505 13.425ZM10.6755 2H13.3255V4.625H10.6755V2ZM12.8755 4.175V2.45H11.1255V4.175H12.8755ZM12.8755 4.175H15.5255V6.8H12.8755V4.175ZM15.0755 6.35V4.625H13.3255V6.35H15.0755ZM8.47549 4.175H11.1255V6.8H8.47549V4.175ZM10.6755 6.35V4.625H8.92549V6.35H10.6755ZM15.0755 2H17.7255V4.625H15.0755V2ZM17.2755 4.175V2.45H15.5255V4.175H17.2755ZM6.27549 2H8.92549V4.625H6.27549V2ZM8.47549 4.175V2.45H6.72549V4.175H8.47549Z" fill="black"/>
</g>
<defs>
<clipPath id="clip0_3194_2732">
<rect width="24" height="24" fill="white"/>
</clipPath>
</defs>
</svg>
