<svg width="24" height="24" viewBox="0 0 24 24" fill="none" xmlns="http://www.w3.org/2000/svg">
<g clip-path="url(#clip0_3194_3377)">
<rect width="24" height="24" fill="white"/>
<path d="M6.125 21C5.625 21 5.15833 20.8833 4.725 20.65C4.30833 20.4 3.975 20.0667 3.725 19.65C3.49167 19.2167 3.375 18.75 3.375 18.25C3.375 17.75 3.49167 17.2917 3.725 16.875C3.975 16.4417 4.30833 16.1083 4.725 15.875C5.15833 15.625 5.625 15.5 6.125 15.5C6.625 15.5 7.08333 15.625 7.5 15.875C7.93333 16.1083 8.26667 16.4417 8.5 16.875C8.75 17.2917 8.875 17.75 8.875 18.25C8.875 18.75 8.75 19.2167 8.5 19.65C8.26667 20.0667 7.93333 20.4 7.5 20.65C7.08333 20.8833 6.625 21 6.125 21ZM6.125 19.425C6.44167 19.425 6.70833 19.3167 6.925 19.1C7.15833 18.8667 7.275 18.5833 7.275 18.25C7.275 17.9167 7.15833 17.6417 6.925 17.425C6.70833 17.1917 6.44167 17.075 6.125 17.075C5.80833 17.075 5.53333 17.1917 5.3 17.425C5.08333 17.6417 4.975 17.9167 4.975 18.25C4.975 18.5833 5.08333 18.8667 5.3 19.1C5.53333 19.3167 5.80833 19.425 6.125 19.425ZM18.825 21C18.325 21 17.8583 20.8833 17.425 20.65C17.0083 20.4 16.675 20.0667 16.425 19.65C16.1917 19.2167 16.075 18.75 16.075 18.25C16.075 17.75 16.1917 17.2917 16.425 16.875C16.675 16.4417 17.0083 16.1083 17.425 15.875C17.8583 15.625 18.325 15.5 18.825 15.5C19.325 15.5 19.7833 15.625 20.2 15.875C20.6333 16.1083 20.9667 16.4417 21.2 16.875C21.45 17.2917 21.575 17.75 21.575 18.25C21.575 18.75 21.45 19.2167 21.2 19.65C20.9667 20.0667 20.6333 20.4 20.2 20.65C19.7833 20.8833 19.325 21 18.825 21ZM18.825 19.425C19.1417 19.425 19.4083 19.3167 19.625 19.1C19.8583 18.8667 19.975 18.5833 19.975 18.25C19.975 17.9167 19.8583 17.6417 19.625 17.425C19.4083 17.1917 19.1417 17.075 18.825 17.075C18.5083 17.075 18.2333 17.1917 18 17.425C17.7833 17.6417 17.675 17.9167 17.675 18.25C17.675 18.5833 17.7833 18.8667 18 19.1C18.2333 19.3167 18.5083 19.425 18.825 19.425ZM4.625 19H3C2.43333 19 1.95833 18.8083 1.575 18.425C1.19167 18.0417 1 17.5667 1 17V13H2.875L5.525 10.025C5.95833 9.525 6.41667 9.15 6.9 8.9C7.38333 8.63333 7.925 8.5 8.525 8.5H12.125C12.725 8.5 13.2583 8.63333 13.725 8.9C14.1917 9.15 14.65 9.525 15.1 10.025L17.525 12.75L20.525 13.325C21.2583 13.4583 21.85 13.7667 22.3 14.25C22.7667 14.7167 23 15.2667 23 15.9V19H20.975V17.2L18.825 16.075L17.3 16.9L16.925 19H8L7.875 17.125L6.1 16.225L4.625 17.2V19ZM15.4 13L13.675 11.175C13.3917 10.875 13.1417 10.6583 12.925 10.525C12.7083 10.375 12.4417 10.3 12.125 10.3H8.525C8.19167 10.3 7.91667 10.375 7.7 10.525C7.48333 10.6583 7.24167 10.875 6.975 11.175L5.275 13H15.4ZM16.7 2.5H18.8V4.6H16.7V2.5ZM18.8 4.6H20.9V6.7H18.8V4.6ZM14.6 4.6H16.7V6.7H14.6V4.6ZM20.9 2.5H23V4.6H20.9V2.5ZM12.5 2.5H14.6V4.6H12.5V2.5ZM17.875 3.7H17.625H17.875ZM20.275 6.1H20.025H20.275ZM15.475 6.1H15.225H15.475ZM22.675 3.7H22.425H22.675ZM13.075 3.7H12.825H13.075Z" fill="black"/>
</g>
<defs>
<clipPath id="clip0_3194_3377">
<rect width="24" height="24" fill="white"/>
</clipPath>
</defs>
</svg>
