<svg width="24" height="24" viewBox="0 0 24 24" fill="none" xmlns="http://www.w3.org/2000/svg">
<g clip-path="url(#clip0_3194_3383)">
<rect width="24" height="24" fill="white"/>
<path d="M6.65 21C6.03333 21 5.46667 20.85 4.95 20.55C4.43333 20.2333 4.01667 19.8167 3.7 19.3C3.4 18.7833 3.25 18.2167 3.25 17.6C3.25 16.9833 3.4 16.4167 3.7 15.9C4.01667 15.3833 4.43333 14.975 4.95 14.675C5.46667 14.3583 6.03333 14.2 6.65 14.2C7.26667 14.2 7.83333 14.3583 8.35 14.675C8.86667 14.975 9.275 15.3833 9.575 15.9C9.89167 16.4167 10.05 16.9833 10.05 17.6C10.05 18.2167 9.89167 18.7833 9.575 19.3C9.275 19.8167 8.86667 20.2333 8.35 20.55C7.83333 20.85 7.26667 21 6.65 21ZM6.65 18.625C6.93333 18.625 7.175 18.525 7.375 18.325C7.575 18.125 7.675 17.8833 7.675 17.6C7.675 17.3167 7.575 17.075 7.375 16.875C7.175 16.675 6.93333 16.575 6.65 16.575C6.36667 16.575 6.125 16.675 5.925 16.875C5.725 17.075 5.625 17.3167 5.625 17.6C5.625 17.8833 5.725 18.125 5.925 18.325C6.125 18.525 6.36667 18.625 6.65 18.625ZM18.1 21C17.4833 21 16.9083 20.85 16.375 20.55C15.8583 20.25 15.45 19.8417 15.15 19.325C14.85 18.7917 14.7 18.2167 14.7 17.6C14.7 16.9833 14.85 16.4167 15.15 15.9C15.45 15.3667 15.8583 14.95 16.375 14.65C16.9083 14.35 17.4833 14.2 18.1 14.2C18.7167 14.2 19.2833 14.35 19.8 14.65C20.3333 14.95 20.75 15.3667 21.05 15.9C21.35 16.4167 21.5 16.9833 21.5 17.6C21.5 18.2167 21.35 18.7917 21.05 19.325C20.75 19.8417 20.3333 20.25 19.8 20.55C19.2833 20.85 18.7167 21 18.1 21ZM18.1 18.625C18.3833 18.625 18.625 18.525 18.825 18.325C19.025 18.125 19.125 17.8833 19.125 17.6C19.125 17.3167 19.025 17.075 18.825 16.875C18.625 16.675 18.3833 16.575 18.1 16.575C17.8167 16.575 17.575 16.675 17.375 16.875C17.175 17.075 17.075 17.3167 17.075 17.6C17.075 17.8833 17.175 18.125 17.375 18.325C17.575 18.525 17.8167 18.625 18.1 18.625ZM5.1 19.1H3C2.43333 19.1 1.95833 18.9083 1.575 18.525C1.19167 18.1417 1 17.675 1 17.125V12.75H2.625L5.4 9.4C5.76667 8.96667 6.20833 8.625 6.725 8.375C7.25833 8.125 7.80833 8 8.375 8H12.75C13.3833 8 13.9583 8.125 14.475 8.375C14.9917 8.60833 15.4167 8.94167 15.75 9.375L18.35 12.7L20.425 13.125C21.175 13.275 21.7917 13.6167 22.275 14.15C22.7583 14.6667 23 15.2667 23 15.95V19H20.225V15.85L18 14.775L16.275 16L16.725 19.1H8.225V15.25L6.55 15.025L5.1 15.95V19.1ZM14.275 12.75L13.225 11.425C13.175 11.3583 13.1167 11.3083 13.05 11.275C12.9833 11.225 12.9 11.2 12.8 11.2H8.375C8.275 11.2 8.19167 11.225 8.125 11.275C8.05833 11.3083 7.98333 11.375 7.9 11.475L6.85 12.75H14.275ZM15.925 2.5H18.675V5.275H15.925V2.5ZM18.1 4.375H20.875V7.15H18.1V4.375ZM13.725 4.375H16.5V7.15H13.725V4.375ZM20.275 2.5H23V5.275H20.275V2.5ZM11.55 2.5H14.275V5.275H11.55V2.5ZM17.425 3.65H17.175H17.425ZM19.725 5.975H19.475H19.725ZM15.125 5.975H14.875H15.125ZM22.025 3.65H21.775H22.025ZM12.825 3.65H12.575H12.825Z" fill="black"/>
</g>
<defs>
<clipPath id="clip0_3194_3383">
<rect width="24" height="24" fill="white"/>
</clipPath>
</defs>
</svg>
