<svg width="24" height="24" viewBox="0 0 24 24" fill="none" xmlns="http://www.w3.org/2000/svg">
<g clip-path="url(#clip0_3196_4303)">
<rect width="24" height="24" fill="white"/>
<path d="M4.77549 16.15C4.77549 15.0667 4.85882 13.9917 5.02549 12.925C5.19216 11.8583 5.45049 10.775 5.80049 9.675C5.96716 9.175 6.25049 8.775 6.65049 8.475C7.06716 8.15833 7.52549 8 8.02549 8H15.5255C16.0255 8 16.4755 8.15833 16.8755 8.475C17.2922 8.775 17.5838 9.175 17.7505 9.675C18.1005 10.775 18.3588 11.8583 18.5255 12.925C18.6922 13.9917 18.7755 15.0667 18.7755 16.15V22H15.5005V20.5H8.02549V22H4.77549V16.15ZM7.10049 21.1V19.6H16.4255V21.1H17.8255V16.15C17.8255 14.05 17.4922 11.9417 16.8255 9.825C16.7255 9.54167 16.5588 9.31667 16.3255 9.15C16.1088 8.98333 15.8422 8.9 15.5255 8.9H8.02549C7.70882 8.9 7.43382 8.98333 7.20049 9.15C6.96716 9.31667 6.80049 9.54167 6.70049 9.825C6.03382 11.9417 5.70049 14.05 5.70049 16.15V21.1H7.10049ZM5.25049 12.725H18.3005V13.65H5.25049V12.725ZM8.47549 17.825C8.02549 17.825 7.64216 17.675 7.32549 17.375C7.02549 17.075 6.87549 16.7 6.87549 16.25C6.87549 15.8167 7.02549 15.45 7.32549 15.15C7.64216 14.85 8.02549 14.7 8.47549 14.7C8.92549 14.7 9.30049 14.85 9.60049 15.15C9.91716 15.45 10.0755 15.8167 10.0755 16.25C10.0755 16.7 9.91716 17.075 9.60049 17.375C9.30049 17.675 8.92549 17.825 8.47549 17.825ZM8.47549 17.05C8.70882 17.05 8.90049 16.975 9.05049 16.825C9.20049 16.675 9.27549 16.4833 9.27549 16.25C9.27549 16.0333 9.20049 15.85 9.05049 15.7C8.90049 15.55 8.70882 15.475 8.47549 15.475C8.25882 15.475 8.06716 15.55 7.90049 15.7C7.75049 15.85 7.67549 16.0333 7.67549 16.25C7.67549 16.4833 7.75049 16.675 7.90049 16.825C8.06716 16.975 8.25882 17.05 8.47549 17.05ZM15.0505 17.825C14.6005 17.825 14.2172 17.675 13.9005 17.375C13.6005 17.075 13.4505 16.7 13.4505 16.25C13.4505 15.8167 13.6005 15.45 13.9005 15.15C14.2172 14.85 14.6005 14.7 15.0505 14.7C15.5005 14.7 15.8755 14.85 16.1755 15.15C16.4922 15.45 16.6505 15.8167 16.6505 16.25C16.6505 16.7 16.4922 17.075 16.1755 17.375C15.8755 17.675 15.5005 17.825 15.0505 17.825ZM15.0505 17.05C15.2838 17.05 15.4755 16.975 15.6255 16.825C15.7755 16.675 15.8505 16.4833 15.8505 16.25C15.8505 16.0333 15.7755 15.85 15.6255 15.7C15.4755 15.55 15.2838 15.475 15.0505 15.475C14.8338 15.475 14.6505 15.55 14.5005 15.7C14.3505 15.85 14.2755 16.0333 14.2755 16.25C14.2755 16.4833 14.3505 16.675 14.5005 16.825C14.6505 16.975 14.8338 17.05 15.0505 17.05ZM3.17549 13.5V12.725H5.75049V12.925L5.50049 13.15V13.65L5.12549 13.775L5.10049 13.8L3.17549 13.5ZM18.4255 13.775L18.0755 13.675L18.0505 13.275L17.8005 12.925V12.725H20.3755V13.5L18.4505 13.8L18.4255 13.775ZM10.6255 2H13.3755V4.75H10.6255V2ZM12.6505 4.05V2.725H11.3505V4.05H12.6505ZM12.6505 4.05H15.4505V6.8H12.6505V4.05ZM14.7255 6.075V4.75H13.3755V6.075H14.7255ZM8.55049 4.05H11.3505V6.8H8.55049V4.05ZM10.6255 6.075V4.75H9.27549V6.075H10.6255ZM14.7255 2H17.5005V4.75H14.7255V2ZM16.7755 4.05V2.725H15.4505V4.05H16.7755ZM6.50049 2H9.27549V4.75H6.50049V2ZM8.55049 4.05V2.725H7.22549V4.05H8.55049Z" fill="black"/>
</g>
<defs>
<clipPath id="clip0_3196_4303">
<rect width="24" height="24" fill="white"/>
</clipPath>
</defs>
</svg>
