<svg width="24" height="24" viewBox="0 0 24 24" fill="none" xmlns="http://www.w3.org/2000/svg">
<g clip-path="url(#clip0_3194_3367)">
<rect width="24" height="24" fill="white"/>
<path d="M16.1755 2.5H18.7255V5.05H16.1755V2.5ZM18.3255 4.45H20.8755V7H18.3255V4.45ZM14.0255 4.45H16.5755V7H14.0255V4.45ZM20.4755 2.5H23.0005V5.05H20.4755V2.5ZM11.8755 2.5H14.3755V5.05H11.8755V2.5ZM17.5755 3.675H17.3255H17.5755ZM19.9005 6.025H19.6505H19.9005ZM15.2505 6.025H15.0005H15.2505ZM22.2505 3.675H22.0005H22.2505ZM12.9005 3.675H12.6505H12.9005ZM7.05049 21C6.50049 21 5.98382 20.8667 5.50049 20.6C5.01716 20.3167 4.63382 19.9333 4.35049 19.45C4.08382 18.9667 3.95049 18.45 3.95049 17.9C3.95049 17.35 4.08382 16.8333 4.35049 16.35C4.63382 15.8667 5.01716 15.4917 5.50049 15.225C5.98382 14.9417 6.50049 14.8 7.05049 14.8C7.61716 14.8 8.13382 14.9417 8.60049 15.225C9.08382 15.4917 9.45882 15.8667 9.72549 16.35C10.0088 16.8333 10.1505 17.35 10.1505 17.9C10.1505 18.45 10.0088 18.9667 9.72549 19.45C9.45882 19.9333 9.08382 20.3167 8.60049 20.6C8.13382 20.8667 7.61716 21 7.05049 21ZM7.05049 18.875C7.31716 18.875 7.54216 18.7833 7.72549 18.6C7.92549 18.4 8.02549 18.1667 8.02549 17.9C8.02549 17.6333 7.92549 17.4083 7.72549 17.225C7.54216 17.025 7.31716 16.925 7.05049 16.925C6.78382 16.925 6.55882 17.025 6.37549 17.225C6.19216 17.4083 6.10049 17.6333 6.10049 17.9C6.10049 18.1667 6.19216 18.4 6.37549 18.6C6.55882 18.7833 6.78382 18.875 7.05049 18.875ZM17.2755 21C16.7088 21 16.1838 20.8667 15.7005 20.6C15.2338 20.3167 14.8588 19.9417 14.5755 19.475C14.3088 18.9917 14.1755 18.4667 14.1755 17.9C14.1755 17.3333 14.3088 16.8167 14.5755 16.35C14.8588 15.8667 15.2338 15.4917 15.7005 15.225C16.1838 14.9417 16.7088 14.8 17.2755 14.8C17.8255 14.8 18.3422 14.9417 18.8255 15.225C19.3088 15.4917 19.6838 15.8667 19.9505 16.35C20.2338 16.8167 20.3755 17.3333 20.3755 17.9C20.3755 18.4667 20.2338 18.9917 19.9505 19.475C19.6838 19.9417 19.3088 20.3167 18.8255 20.6C18.3422 20.8667 17.8255 21 17.2755 21ZM17.2755 18.875C17.5422 18.875 17.7672 18.7833 17.9505 18.6C18.1338 18.4 18.2255 18.1667 18.2255 17.9C18.2255 17.6333 18.1338 17.4083 17.9505 17.225C17.7672 17.025 17.5422 16.925 17.2755 16.925C17.0088 16.925 16.7755 17.025 16.5755 17.225C16.3922 17.4083 16.3005 17.6333 16.3005 17.9C16.3005 18.1667 16.3922 18.4 16.5755 18.6C16.7755 18.7833 17.0088 18.875 17.2755 18.875ZM16.0505 19.175H8.65049V16.475H16.0505V19.175ZM5.30049 19.225H4.20049C3.61716 19.225 3.08382 19.0917 2.60049 18.825C2.11716 18.5417 1.72549 18.1667 1.42549 17.7C1.14216 17.2167 1.00049 16.6833 1.00049 16.1V10.75H4.20049L5.10049 9.625C5.46716 9.15833 5.91716 8.8 6.45049 8.55C6.98382 8.3 7.53382 8.175 8.10049 8.175H13.3005C13.9338 8.175 14.4922 8.30833 14.9755 8.575C15.4755 8.825 15.9255 9.19167 16.3255 9.675L17.0005 10.475L19.7255 10.9C20.6588 11.0333 21.4338 11.4417 22.0505 12.125C22.6838 12.7917 23.0005 13.5833 23.0005 14.5V19.175H19.4755V16.475H20.2255V14.5C20.2255 14.2667 20.1422 14.0667 19.9755 13.9C19.8088 13.7167 19.6005 13.6083 19.3505 13.575L15.5005 12.975L14.2005 11.4C14.0338 11.2167 13.8838 11.0833 13.7505 11C13.6338 10.9167 13.4838 10.875 13.3005 10.875H8.10049C7.93382 10.875 7.78382 10.9083 7.65049 10.975C7.51716 11.0417 7.40049 11.15 7.30049 11.3L5.55049 13.45H3.77549V16.1C3.77549 16.2167 3.81716 16.3167 3.90049 16.4C3.98382 16.4833 4.08382 16.525 4.20049 16.525H5.30049V19.225Z" fill="black"/>
</g>
<defs>
<clipPath id="clip0_3194_3367">
<rect width="24" height="24" fill="white"/>
</clipPath>
</defs>
</svg>
