<svg width="24" height="24" viewBox="0 0 24 24" fill="none" xmlns="http://www.w3.org/2000/svg">
<g clip-path="url(#clip0_3194_3367)">
<rect width="24" height="24" fill="white"/>
<path d="M15.9755 2.5H18.8505V5.375H15.9755V2.5ZM18.0755 4.275H20.9505V7.175H18.0755V4.275ZM13.8755 4.275H16.7755V7.175H13.8755V4.275ZM20.1505 2.5H23.0005V5.375H20.1505V2.5ZM11.8255 2.5H14.6755V5.375H11.8255V2.5ZM17.5505 3.675H17.3005H17.5505ZM19.9005 6.025H19.6505H19.9005ZM15.2255 6.025H14.9755H15.2255ZM22.2255 3.675H21.9755H22.2255ZM12.9005 3.675H12.6505H12.9005ZM7.05049 21C6.50049 21 5.98382 20.8667 5.50049 20.6C5.01716 20.3167 4.63382 19.9333 4.35049 19.45C4.08382 18.9667 3.95049 18.45 3.95049 17.9C3.95049 17.35 4.08382 16.8333 4.35049 16.35C4.63382 15.8667 5.01716 15.4917 5.50049 15.225C5.98382 14.9417 6.50049 14.8 7.05049 14.8C7.61716 14.8 8.13382 14.9417 8.60049 15.225C9.08382 15.4917 9.45882 15.8667 9.72549 16.35C10.0088 16.8333 10.1505 17.35 10.1505 17.9C10.1505 18.45 10.0088 18.9667 9.72549 19.45C9.45882 19.9333 9.08382 20.3167 8.60049 20.6C8.13382 20.8667 7.61716 21 7.05049 21ZM7.07549 18.75C7.29216 18.75 7.48382 18.6667 7.65049 18.5C7.81716 18.3167 7.90049 18.1167 7.90049 17.9C7.90049 17.6667 7.81716 17.4667 7.65049 17.3C7.48382 17.1333 7.28382 17.05 7.05049 17.05C6.83382 17.05 6.64216 17.1333 6.47549 17.3C6.30882 17.4667 6.22549 17.6667 6.22549 17.9C6.22549 18.1167 6.30882 18.3167 6.47549 18.5C6.64216 18.6667 6.84216 18.75 7.07549 18.75ZM17.6005 21C17.0338 21 16.5088 20.8667 16.0255 20.6C15.5588 20.3167 15.1838 19.9417 14.9005 19.475C14.6338 18.9917 14.5005 18.4667 14.5005 17.9C14.5005 17.3333 14.6338 16.8167 14.9005 16.35C15.1838 15.8667 15.5588 15.4917 16.0255 15.225C16.5088 14.9417 17.0338 14.8 17.6005 14.8C18.1672 14.8 18.6838 14.9417 19.1505 15.225C19.6338 15.4917 20.0088 15.8667 20.2755 16.35C20.5588 16.8167 20.7005 17.3333 20.7005 17.9C20.7005 18.4667 20.5588 18.9917 20.2755 19.475C20.0088 19.9417 19.6338 20.3167 19.1505 20.6C18.6838 20.8667 18.1672 21 17.6005 21ZM17.6005 18.725C17.8338 18.725 18.0255 18.6417 18.1755 18.475C18.3422 18.3083 18.4255 18.1167 18.4255 17.9C18.4255 17.6667 18.3422 17.4667 18.1755 17.3C18.0255 17.1333 17.8338 17.05 17.6005 17.05C17.3838 17.05 17.1922 17.1333 17.0255 17.3C16.8588 17.4667 16.7755 17.6667 16.7755 17.9C16.7755 18.1167 16.8588 18.3083 17.0255 18.475C17.1922 18.6417 17.3838 18.725 17.6005 18.725ZM16.2255 19.25H8.47549V16.375H16.2255V19.25ZM5.30049 19.225H4.30049C3.71716 19.225 3.16716 19.0917 2.65049 18.825C2.15049 18.5417 1.75049 18.1667 1.45049 17.7C1.15049 17.2167 1.00049 16.6833 1.00049 16.1V10.675H4.15049L5.02549 9.65C5.37549 9.2 5.82549 8.84167 6.37549 8.575C6.92549 8.30833 7.50049 8.175 8.10049 8.175H13.5505C14.2172 8.175 14.8005 8.31667 15.3005 8.6C15.8172 8.86667 16.2755 9.23333 16.6755 9.7L17.2505 10.375L19.8005 10.825C20.7172 10.9917 21.4755 11.4083 22.0755 12.075C22.6922 12.7417 23.0005 13.525 23.0005 14.425V19.175H19.4755V16.475H20.1255V14.425C20.1255 14.1917 20.0422 13.9917 19.8755 13.825C19.7088 13.6417 19.5005 13.525 19.2505 13.475L15.6755 12.85L14.4505 11.4C14.2838 11.2167 14.1338 11.0833 14.0005 11C13.8838 10.9167 13.7338 10.875 13.5505 10.875H8.10049C7.93382 10.875 7.78382 10.9083 7.65049 10.975C7.51716 11.0417 7.40049 11.15 7.30049 11.3L5.55049 13.375H3.87549V16.1C3.87549 16.2167 3.91716 16.3167 4.00049 16.4C4.08382 16.4833 4.18382 16.525 4.30049 16.525H5.30049V19.225Z" fill="black"/>
</g>
<defs>
<clipPath id="clip0_3194_3367">
<rect width="24" height="24" fill="white"/>
</clipPath>
</defs>
</svg>
