<svg width="24" height="24" viewBox="0 0 24 24" fill="none" xmlns="http://www.w3.org/2000/svg">
<g clip-path="url(#clip0_3194_3363)">
<rect width="24" height="24" fill="white"/>
<path d="M16.7005 2.5H18.8005V4.6H16.7005V2.5ZM18.8005 4.6H20.9005V6.7H18.8005V4.6ZM14.6005 4.6H16.7005V6.7H14.6005V4.6ZM20.9005 2.5H23.0005V4.6H20.9005V2.5ZM12.5005 2.5H14.6005V4.6H12.5005V2.5ZM17.8755 3.7H17.6255H17.8755ZM20.2755 6.1H20.0255H20.2755ZM15.4755 6.1H15.2255H15.4755ZM22.6755 3.7H22.4255H22.6755ZM13.0755 3.7H12.8255H13.0755ZM6.62549 21C6.12549 21 5.65882 20.8833 5.22549 20.65C4.80882 20.4 4.47549 20.0667 4.22549 19.65C3.99216 19.2167 3.87549 18.75 3.87549 18.25C3.87549 17.75 3.99216 17.2917 4.22549 16.875C4.47549 16.4417 4.80882 16.1083 5.22549 15.875C5.65882 15.625 6.12549 15.5 6.62549 15.5C7.12549 15.5 7.58382 15.625 8.00049 15.875C8.43382 16.1083 8.76716 16.4417 9.00049 16.875C9.25049 17.2917 9.37549 17.75 9.37549 18.25C9.37549 18.75 9.25049 19.2167 9.00049 19.65C8.76716 20.0667 8.43382 20.4 8.00049 20.65C7.58382 20.8833 7.12549 21 6.62549 21ZM6.62549 19.425C6.94216 19.425 7.20882 19.3167 7.42549 19.1C7.65882 18.8667 7.77549 18.5833 7.77549 18.25C7.77549 17.9167 7.65882 17.6417 7.42549 17.425C7.20882 17.1917 6.94216 17.075 6.62549 17.075C6.30882 17.075 6.03382 17.1917 5.80049 17.425C5.58382 17.6417 5.47549 17.9167 5.47549 18.25C5.47549 18.5833 5.58382 18.8667 5.80049 19.1C6.03382 19.3167 6.30882 19.425 6.62549 19.425ZM17.9505 21C17.4505 21 16.9838 20.8833 16.5505 20.65C16.1338 20.4 15.8005 20.0667 15.5505 19.65C15.3172 19.2167 15.2005 18.75 15.2005 18.25C15.2005 17.75 15.3172 17.2917 15.5505 16.875C15.8005 16.4417 16.1338 16.1083 16.5505 15.875C16.9838 15.625 17.4505 15.5 17.9505 15.5C18.4505 15.5 18.9088 15.625 19.3255 15.875C19.7588 16.1083 20.0922 16.4417 20.3255 16.875C20.5755 17.2917 20.7005 17.75 20.7005 18.25C20.7005 18.75 20.5755 19.2167 20.3255 19.65C20.0922 20.0667 19.7588 20.4 19.3255 20.65C18.9088 20.8833 18.4505 21 17.9505 21ZM17.9505 19.425C18.2672 19.425 18.5338 19.3167 18.7505 19.1C18.9838 18.8667 19.1005 18.5833 19.1005 18.25C19.1005 17.9167 18.9838 17.6417 18.7505 17.425C18.5338 17.1917 18.2672 17.075 17.9505 17.075C17.6338 17.075 17.3588 17.1917 17.1255 17.425C16.9088 17.6417 16.8005 17.9167 16.8005 18.25C16.8005 18.5833 16.9088 18.8667 17.1255 19.1C17.3588 19.3167 17.6338 19.425 17.9505 19.425ZM16.6755 19H8.50049V17.2H16.6755V19ZM5.12549 19H3.75049C3.25049 19 2.79216 18.875 2.37549 18.625C1.95882 18.375 1.62549 18.0417 1.37549 17.625C1.12549 17.2083 1.00049 16.75 1.00049 16.25V11.75H3.92549L5.32549 10.075C5.72549 9.55833 6.17549 9.16667 6.67549 8.9C7.17549 8.63333 7.72549 8.5 8.32549 8.5H13.0255C13.6255 8.5 14.1672 8.63333 14.6505 8.9C15.1338 9.15 15.5838 9.525 16.0005 10.025L17.0255 11.25L20.2755 11.825C21.0422 11.975 21.6838 12.325 22.2005 12.875C22.7338 13.425 23.0005 14.075 23.0005 14.825V19H20.1005V17.2H21.1505V14.825C21.1505 14.525 21.0338 14.2667 20.8005 14.05C20.5838 13.8167 20.3005 13.6667 19.9505 13.6L16.0255 12.9L14.5755 11.175C14.3422 10.8917 14.1088 10.675 13.8755 10.525C13.6422 10.375 13.3588 10.3 13.0255 10.3H8.32549C7.99216 10.3 7.70049 10.375 7.45049 10.525C7.21716 10.675 6.99216 10.8917 6.77549 11.175L4.82549 13.55H2.85049V16.25C2.85049 16.5167 2.93382 16.7417 3.10049 16.925C3.28382 17.1083 3.50049 17.2 3.75049 17.2H5.12549V19Z" fill="black"/>
</g>
<defs>
<clipPath id="clip0_3194_3363">
<rect width="24" height="24" fill="white"/>
</clipPath>
</defs>
</svg>
