<svg width="24" height="24" viewBox="0 0 24 24" fill="none" xmlns="http://www.w3.org/2000/svg">
<g clip-path="url(#clip0_3196_4437)">
<rect width="24" height="24" fill="white"/>
<path d="M19.2005 4.9C19.4838 5.88333 19.6838 7.05 19.8005 8.4C19.9338 9.73333 20.0005 11.2667 20.0005 13V17C20.0005 17.55 19.8672 18.0583 19.6005 18.525C19.3338 18.975 18.9672 19.3333 18.5005 19.6C18.0505 19.8667 17.5505 20 17.0005 20H15.2255L15.3505 19.025L17.0755 22H14.9505L13.2255 19.025L14.1755 20H9.82549L10.7755 19.025L9.05049 22H6.92549L8.65049 19.025L8.77549 20H7.00049C6.45049 20 5.94216 19.8667 5.47549 19.6C5.02549 19.3333 4.66716 18.975 4.40049 18.525C4.13382 18.0583 4.00049 17.55 4.00049 17V13C4.00049 11.2667 4.05882 9.73333 4.17549 8.4C4.30882 7.05 4.51716 5.88333 4.80049 4.9C5.06716 3.98333 5.53382 3.275 6.20049 2.775C6.88382 2.25833 7.71716 2 8.70049 2H15.3005C16.2838 2 17.1088 2.25833 17.7755 2.775C18.4588 3.275 18.9338 3.98333 19.2005 4.9ZM18.9755 10V11.8H4.82549V10H18.9755ZM17.0005 18.2C17.3172 18.2 17.5838 18.0833 17.8005 17.85C18.0338 17.6167 18.1505 17.3333 18.1505 17V15.225V13C18.1505 11.3167 18.0922 9.875 17.9755 8.675C17.8755 7.475 17.6922 6.35833 17.4255 5.325C17.2922 4.84167 17.0422 4.46667 16.6755 4.2C16.3255 3.93333 15.8672 3.8 15.3005 3.8H8.70049C8.13382 3.8 7.66716 3.93333 7.30049 4.2C6.95049 4.46667 6.70882 4.84167 6.57549 5.325C6.30882 6.35833 6.11716 7.475 6.00049 8.675C5.90049 9.875 5.85049 11.3167 5.85049 13V15.05V17C5.85049 17.3333 5.95882 17.6167 6.17549 17.85C6.40882 18.0833 6.68382 18.2 7.00049 18.2H17.0005ZM8.72549 15.95C8.34216 15.95 8.01716 15.8167 7.75049 15.55C7.48382 15.2833 7.35049 14.9583 7.35049 14.575C7.35049 14.1917 7.48382 13.8667 7.75049 13.6C8.01716 13.3333 8.34216 13.2 8.72549 13.2C9.10882 13.2 9.43382 13.3333 9.70049 13.6C9.96716 13.8667 10.1005 14.1917 10.1005 14.575C10.1005 14.9583 9.96716 15.2833 9.70049 15.55C9.43382 15.8167 9.10882 15.95 8.72549 15.95ZM8.72549 14.575C8.60882 14.575 8.51716 14.575 8.45049 14.575C8.38382 14.575 8.29216 14.575 8.17549 14.575C8.29216 14.575 8.38382 14.575 8.45049 14.575C8.51716 14.575 8.60882 14.575 8.72549 14.575C8.84216 14.575 8.93382 14.575 9.00049 14.575C9.06716 14.575 9.15882 14.575 9.27549 14.575C9.15882 14.575 9.06716 14.575 9.00049 14.575C8.93382 14.575 8.84216 14.575 8.72549 14.575ZM15.2755 15.95C14.8922 15.95 14.5672 15.8167 14.3005 15.55C14.0338 15.2833 13.9005 14.9583 13.9005 14.575C13.9005 14.1917 14.0338 13.8667 14.3005 13.6C14.5672 13.3333 14.8922 13.2 15.2755 13.2C15.6588 13.2 15.9838 13.3333 16.2505 13.6C16.5172 13.8667 16.6505 14.1917 16.6505 14.575C16.6505 14.9583 16.5172 15.2833 16.2505 15.55C15.9838 15.8167 15.6588 15.95 15.2755 15.95ZM15.2755 14.575C15.1755 14.575 15.1005 14.575 15.0505 14.575C15.0005 14.575 14.9255 14.575 14.8255 14.575C14.9255 14.575 15.0005 14.575 15.0505 14.575C15.1005 14.575 15.1755 14.575 15.2755 14.575C15.3755 14.575 15.4505 14.575 15.5005 14.575C15.5505 14.575 15.6255 14.575 15.7255 14.575C15.6255 14.575 15.5505 14.575 15.5005 14.575C15.4505 14.575 15.3755 14.575 15.2755 14.575Z" fill="black"/>
</g>
<defs>
<clipPath id="clip0_3196_4437">
<rect width="24" height="24" fill="white"/>
</clipPath>
</defs>
</svg>
