<svg width="24" height="24" viewBox="0 0 24 24" fill="none" xmlns="http://www.w3.org/2000/svg">
<g clip-path="url(#clip0_3196_4451)">
<rect width="24" height="24" fill="white"/>
<path d="M19.625 5.65C19.775 6.5 19.875 7.36667 19.925 8.25C19.975 9.11667 20 10.2 20 11.5V17C20 17.8333 19.7083 18.5417 19.125 19.125C18.5417 19.7083 17.8333 20 17 20H15.225L15.35 19.025L17.075 22H14.95L13.225 19.025L14.175 20H9.825L10.775 19.025L9.05 22H6.925L8.65 19.025L8.775 20H7C6.16667 20 5.45833 19.7083 4.875 19.125C4.29167 18.5417 4 17.8333 4 17V11.5C4 10.2 4.025 9.11667 4.075 8.25C4.125 7.36667 4.225 6.5 4.375 5.65C4.55833 4.56667 5.01667 3.69167 5.75 3.025C6.48333 2.34167 7.34167 2 8.325 2H15.675C16.6583 2 17.5167 2.34167 18.25 3.025C18.9833 3.69167 19.4417 4.56667 19.625 5.65ZM18.15 12.25C18.15 10.45 18.1333 9.13333 18.1 8.3C18.0667 7.45 17.9667 6.63333 17.8 5.85C17.6667 5.25 17.4083 4.75833 17.025 4.375C16.6417 3.99167 16.1917 3.8 15.675 3.8H8.325C7.80833 3.8 7.35833 3.99167 6.975 4.375C6.59167 4.75833 6.33333 5.25 6.2 5.85C6.03333 6.63333 5.93333 7.425 5.9 8.225C5.86667 9.00833 5.85 10.35 5.85 12.25L5.35 11H18.65L18.15 12.25ZM7.725 16.075C8.15833 16.075 8.51667 15.9333 8.8 15.65C9.08333 15.35 9.225 14.9917 9.225 14.575C9.225 14.1417 9.08333 13.7833 8.8 13.5C8.51667 13.2167 8.15833 13.075 7.725 13.075C7.30833 13.075 6.95 13.2167 6.65 13.5C6.36667 13.7833 6.225 14.1417 6.225 14.575C6.225 14.9917 6.36667 15.35 6.65 15.65C6.95 15.9333 7.30833 16.075 7.725 16.075ZM16.275 16.075C16.7083 16.075 17.0667 15.9333 17.35 15.65C17.6333 15.35 17.775 14.9917 17.775 14.575C17.775 14.1417 17.6333 13.7833 17.35 13.5C17.0667 13.2167 16.7083 13.075 16.275 13.075C15.8583 13.075 15.5 13.2167 15.2 13.5C14.9167 13.7833 14.775 14.1417 14.775 14.575C14.775 14.9917 14.9167 15.35 15.2 15.65C15.5 15.9333 15.8583 16.075 16.275 16.075Z" fill="black"/>
</g>
<defs>
<clipPath id="clip0_3196_4451">
<rect width="24" height="24" fill="white"/>
</clipPath>
</defs>
</svg>
