<svg width="24" height="24" viewBox="0 0 24 24" fill="none" xmlns="http://www.w3.org/2000/svg">
<g clip-path="url(#clip0_3196_4433)">
<rect width="24" height="24" fill="white"/>
<path d="M19.4255 4.5C19.6255 5.65 19.7672 6.81667 19.8505 8C19.9505 9.16667 20.0005 10.35 20.0005 11.55V17.325C20.0005 17.825 19.8838 18.2833 19.6505 18.7C19.4172 19.1 19.0922 19.4167 18.6755 19.65C18.2755 19.8833 17.8255 20 17.3255 20H15.1755L15.3505 19.75L16.7255 22H15.5255L14.2255 19.75L14.8755 20H9.12549L9.77549 19.75L8.47549 22H7.27549L8.65049 19.75L8.82549 20H6.67549C6.17549 20 5.71716 19.8833 5.30049 19.65C4.90049 19.4167 4.58382 19.1 4.35049 18.7C4.11716 18.2833 4.00049 17.825 4.00049 17.325V11.55C4.00049 10.35 4.04216 9.16667 4.12549 8C4.22549 6.81667 4.37549 5.65 4.57549 4.5C4.69216 3.75 5.02549 3.15 5.57549 2.7C6.14215 2.23333 6.80049 2 7.55049 2H16.4505C17.2005 2 17.8505 2.23333 18.4005 2.7C18.9672 3.15 19.3088 3.75 19.4255 4.5ZM19.8755 10.775V11.725H4.25049V10.775H19.8755ZM17.3255 19C17.8088 19 18.2088 18.8417 18.5255 18.525C18.8422 18.1917 19.0005 17.7917 19.0005 17.325V12.15V11.55C19.0005 10.4667 18.9505 9.33333 18.8505 8.15C18.7672 6.95 18.6255 5.76667 18.4255 4.6C18.3422 4.13333 18.1172 3.74167 17.7505 3.425C17.3838 3.10833 16.9505 2.95 16.4505 2.95H7.55049C7.05049 2.95 6.61716 3.10833 6.25049 3.425C5.88382 3.74167 5.65882 4.13333 5.57549 4.6C5.37549 5.76667 5.22549 6.95 5.12549 8.15C5.04216 9.33333 5.00049 10.4667 5.00049 11.55V12.15V17.325C5.00049 17.7917 5.15882 18.1917 5.47549 18.525C5.80882 18.8417 6.20882 19 6.67549 19H17.3255ZM8.32549 16.925C7.80882 16.925 7.36716 16.7417 7.00049 16.375C6.63382 16.0083 6.45049 15.5667 6.45049 15.05C6.45049 14.5167 6.63382 14.0667 7.00049 13.7C7.36716 13.3333 7.80882 13.15 8.32549 13.15C8.85882 13.15 9.30882 13.3333 9.67549 13.7C10.0422 14.0667 10.2255 14.5167 10.2255 15.05C10.2255 15.5667 10.0422 16.0083 9.67549 16.375C9.30882 16.7417 8.85882 16.925 8.32549 16.925ZM8.32549 16.075C8.62549 16.075 8.86716 15.975 9.05049 15.775C9.25049 15.575 9.35049 15.3333 9.35049 15.05C9.35049 14.75 9.25049 14.5083 9.05049 14.325C8.86716 14.125 8.62549 14.025 8.32549 14.025C8.04216 14.025 7.80049 14.125 7.60049 14.325C7.41716 14.5083 7.32549 14.75 7.32549 15.05C7.32549 15.3333 7.41716 15.575 7.60049 15.775C7.80049 15.975 8.04216 16.075 8.32549 16.075ZM15.6755 16.925C15.1422 16.925 14.6922 16.7417 14.3255 16.375C13.9588 16.0083 13.7755 15.5667 13.7755 15.05C13.7755 14.5167 13.9588 14.0667 14.3255 13.7C14.6922 13.3333 15.1422 13.15 15.6755 13.15C16.1922 13.15 16.6338 13.3333 17.0005 13.7C17.3672 14.0667 17.5505 14.5167 17.5505 15.05C17.5505 15.5667 17.3672 16.0083 17.0005 16.375C16.6338 16.7417 16.1922 16.925 15.6755 16.925ZM15.6755 16.075C15.9588 16.075 16.1922 15.975 16.3755 15.775C16.5755 15.575 16.6755 15.3333 16.6755 15.05C16.6755 14.75 16.5755 14.5083 16.3755 14.325C16.1922 14.125 15.9588 14.025 15.6755 14.025C15.3755 14.025 15.1255 14.125 14.9255 14.325C14.7422 14.5083 14.6505 14.75 14.6505 15.05C14.6505 15.3333 14.7422 15.575 14.9255 15.775C15.1255 15.975 15.3755 16.075 15.6755 16.075Z" fill="black"/>
</g>
<defs>
<clipPath id="clip0_3196_4433">
<rect width="24" height="24" fill="white"/>
</clipPath>
</defs>
</svg>
