<svg width="24" height="24" viewBox="0 0 24 24" fill="none" xmlns="http://www.w3.org/2000/svg">
<g clip-path="url(#clip0_3194_2762)">
<rect width="24" height="24" fill="white"/>
<path d="M19.0755 4.275C19.4422 5.39167 19.6838 6.61667 19.8005 7.95C19.9338 9.28333 20.0005 10.9667 20.0005 13V17.5C20.0005 17.95 19.8838 18.3667 19.6505 18.75C19.4338 19.1333 19.1338 19.4417 18.7505 19.675C18.3672 19.8917 17.9505 20 17.5005 20H15.1755L15.1255 19.75L16.4505 22H15.8755L14.5755 19.75L14.8755 20H9.12549L9.42549 19.75L8.12549 22H7.55049L8.87549 19.75L8.82549 20H6.50049C6.05049 20 5.63382 19.8917 5.25049 19.675C4.86716 19.4417 4.55882 19.1333 4.32549 18.75C4.10882 18.3667 4.00049 17.95 4.00049 17.5V13C4.00049 10.9667 4.05882 9.28333 4.17549 7.95C4.30882 6.61667 4.55882 5.39167 4.92549 4.275C5.15882 3.60833 5.55049 3.06667 6.10049 2.65C6.66716 2.21667 7.28382 2 7.95049 2H16.0505C16.7172 2 17.3255 2.21667 17.8755 2.65C18.4422 3.06667 18.8422 3.60833 19.0755 4.275ZM19.8755 11V11.475H4.25049V11H19.8755ZM17.5005 19.525C18.0505 19.525 18.5172 19.325 18.9005 18.925C19.3005 18.525 19.5005 18.05 19.5005 17.5V13.375V13C19.5005 11.0167 19.4422 9.36667 19.3255 8.05C19.2088 6.73333 18.9672 5.525 18.6005 4.425C18.4172 3.85833 18.0838 3.39167 17.6005 3.025C17.1338 2.65833 16.6172 2.475 16.0505 2.475H7.95049C7.38382 2.475 6.85882 2.65833 6.37549 3.025C5.90882 3.39167 5.58382 3.85833 5.40049 4.425C5.03382 5.525 4.79216 6.73333 4.67549 8.05C4.55882 9.36667 4.50049 11.0167 4.50049 13V13.375V17.5C4.50049 18.05 4.69216 18.525 5.07549 18.925C5.47549 19.325 5.95049 19.525 6.50049 19.525H17.5005ZM7.75049 16.625C7.26716 16.625 6.85049 16.4583 6.50049 16.125C6.16716 15.775 6.00049 15.3583 6.00049 14.875C6.00049 14.3917 6.16716 13.9833 6.50049 13.65C6.85049 13.3 7.26716 13.125 7.75049 13.125C8.23382 13.125 8.64216 13.3 8.97549 13.65C9.32549 13.9833 9.50049 14.3917 9.50049 14.875C9.50049 15.3583 9.32549 15.775 8.97549 16.125C8.64216 16.4583 8.23382 16.625 7.75049 16.625ZM7.75049 16.15C8.11716 16.15 8.41716 16.0333 8.65049 15.8C8.90049 15.55 9.02549 15.2417 9.02549 14.875C9.02549 14.5083 8.90049 14.2083 8.65049 13.975C8.41716 13.725 8.11716 13.6 7.75049 13.6C7.38382 13.6 7.07549 13.725 6.82549 13.975C6.59216 14.2083 6.47549 14.5083 6.47549 14.875C6.47549 15.2417 6.59216 15.55 6.82549 15.8C7.07549 16.0333 7.38382 16.15 7.75049 16.15ZM16.2505 16.625C15.7672 16.625 15.3505 16.4583 15.0005 16.125C14.6672 15.775 14.5005 15.3583 14.5005 14.875C14.5005 14.3917 14.6672 13.9833 15.0005 13.65C15.3505 13.3 15.7672 13.125 16.2505 13.125C16.7338 13.125 17.1422 13.3 17.4755 13.65C17.8255 13.9833 18.0005 14.3917 18.0005 14.875C18.0005 15.3583 17.8255 15.775 17.4755 16.125C17.1422 16.4583 16.7338 16.625 16.2505 16.625ZM16.2505 16.15C16.6172 16.15 16.9172 16.0333 17.1505 15.8C17.4005 15.55 17.5255 15.2417 17.5255 14.875C17.5255 14.5083 17.4005 14.2083 17.1505 13.975C16.9172 13.725 16.6172 13.6 16.2505 13.6C15.8838 13.6 15.5755 13.725 15.3255 13.975C15.0922 14.2083 14.9755 14.5083 14.9755 14.875C14.9755 15.2417 15.0922 15.55 15.3255 15.8C15.5755 16.0333 15.8838 16.15 16.2505 16.15Z" fill="black"/>
</g>
<defs>
<clipPath id="clip0_3194_2762">
<rect width="24" height="24" fill="white"/>
</clipPath>
</defs>
</svg>
