<svg width="24" height="24" viewBox="0 0 24 24" fill="none" xmlns="http://www.w3.org/2000/svg">
<g clip-path="url(#clip0_3196_4453)">
<rect width="24" height="24" fill="white"/>
<path d="M19.575 5.35C19.725 6.26667 19.8333 7.16667 19.9 8.05C19.9667 8.91667 20 9.95833 20 11.175V17C20 17.8333 19.7083 18.5417 19.125 19.125C18.5417 19.7083 17.8333 20 17 20H15.3L15.475 19.025L17.25 22H14.525L12.825 19.025L14.25 20H9.75L11.175 19.025L9.475 22H6.75L8.525 19.025L8.7 20H7C6.16667 20 5.45833 19.7083 4.875 19.125C4.29167 18.5417 4 17.8333 4 17V11.175C4 9.95833 4.03333 8.91667 4.1 8.05C4.16667 7.16667 4.275 6.26667 4.425 5.35C4.59167 4.35 5.01667 3.54167 5.7 2.925C6.4 2.30833 7.21667 2 8.15 2H15.85C16.7833 2 17.5917 2.30833 18.275 2.925C18.975 3.54167 19.4083 4.35 19.575 5.35ZM17.675 11.95C17.675 10.3 17.65 9.04167 17.6 8.175C17.5667 7.30833 17.4667 6.5 17.3 5.75C17.2167 5.31667 17.0333 4.96667 16.75 4.7C16.4667 4.41667 16.1417 4.275 15.775 4.275H8.225C7.85833 4.275 7.53333 4.41667 7.25 4.7C6.98333 4.96667 6.8 5.31667 6.7 5.75C6.53333 6.5 6.425 7.29167 6.375 8.125C6.34167 8.95833 6.325 10.2333 6.325 11.95L5.825 11H18.175L17.675 11.95ZM7.975 16.35C8.44167 16.35 8.825 16.1917 9.125 15.875C9.44167 15.5583 9.6 15.175 9.6 14.725C9.6 14.275 9.44167 13.8917 9.125 13.575C8.825 13.2583 8.44167 13.1 7.975 13.1C7.525 13.1 7.14167 13.2583 6.825 13.575C6.50833 13.875 6.35 14.2583 6.35 14.725C6.35 15.1917 6.50833 15.5833 6.825 15.9C7.14167 16.2 7.525 16.35 7.975 16.35ZM15.975 16.35C16.4417 16.35 16.825 16.2 17.125 15.9C17.4417 15.5833 17.6 15.1917 17.6 14.725C17.6 14.2583 17.4417 13.875 17.125 13.575C16.825 13.2583 16.4417 13.1 15.975 13.1C15.5083 13.1 15.1167 13.2583 14.8 13.575C14.5 13.875 14.35 14.2583 14.35 14.725C14.35 15.1917 14.5 15.5833 14.8 15.9C15.1167 16.2 15.5083 16.35 15.975 16.35Z" fill="black"/>
</g>
<defs>
<clipPath id="clip0_3196_4453">
<rect width="24" height="24" fill="white"/>
</clipPath>
</defs>
</svg>
