<svg width="24" height="24" viewBox="0 0 24 24" fill="none" xmlns="http://www.w3.org/2000/svg">
<g clip-path="url(#clip0_3196_4447)">
<rect width="24" height="24" fill="white"/>
<path d="M19.125 4.475C19.4583 5.55833 19.6833 6.76667 19.8 8.1C19.9333 9.43333 20 11.0667 20 13V17.325C20 17.8083 19.875 18.2583 19.625 18.675C19.3917 19.075 19.0667 19.4 18.65 19.65C18.25 19.8833 17.8083 20 17.325 20H15.2V19.5L16.65 22H15.575L14.125 19.5L14.65 20H9.35L9.875 19.5L8.425 22H7.35L8.8 19.5V20H6.675C6.19167 20 5.74167 19.8833 5.325 19.65C4.925 19.4 4.6 19.075 4.35 18.675C4.11667 18.2583 4 17.8083 4 17.325V13C4 11.0667 4.05833 9.43333 4.175 8.1C4.30833 6.76667 4.54167 5.55833 4.875 4.475C5.125 3.725 5.55 3.125 6.15 2.675C6.75 2.225 7.43333 2 8.2 2H15.8C16.5667 2 17.25 2.225 17.85 2.675C18.45 3.125 18.875 3.725 19.125 4.475ZM19.025 11C18.9917 9.68333 18.9167 8.525 18.8 7.525C18.6833 6.525 18.4833 5.59167 18.2 4.725C18.0333 4.19167 17.7333 3.75833 17.3 3.425C16.8667 3.09167 16.3667 2.925 15.8 2.925H8.2C7.63333 2.925 7.13333 3.09167 6.7 3.425C6.26667 3.75833 5.96667 4.19167 5.8 4.725C5.51667 5.59167 5.31667 6.525 5.2 7.525C5.08333 8.525 5.00833 9.68333 4.975 11H19.025ZM7.75 16.325C8.18333 16.325 8.54167 16.1833 8.825 15.9C9.10833 15.6 9.25 15.2417 9.25 14.825C9.25 14.3917 9.10833 14.0333 8.825 13.75C8.54167 13.4667 8.18333 13.325 7.75 13.325C7.33333 13.325 6.975 13.4667 6.675 13.75C6.39167 14.0333 6.25 14.3917 6.25 14.825C6.25 15.2417 6.39167 15.6 6.675 15.9C6.975 16.1833 7.33333 16.325 7.75 16.325ZM16.25 16.325C16.6833 16.325 17.0417 16.1833 17.325 15.9C17.6083 15.6 17.75 15.2417 17.75 14.825C17.75 14.3917 17.6083 14.0333 17.325 13.75C17.0417 13.4667 16.6833 13.325 16.25 13.325C15.8333 13.325 15.475 13.4667 15.175 13.75C14.8917 14.0333 14.75 14.3917 14.75 14.825C14.75 15.2417 14.8917 15.6 15.175 15.9C15.475 16.1833 15.8333 16.325 16.25 16.325Z" fill="black"/>
</g>
<defs>
<clipPath id="clip0_3196_4447">
<rect width="24" height="24" fill="white"/>
</clipPath>
</defs>
</svg>
