<svg width="24" height="24" viewBox="0 0 24 24" fill="none" xmlns="http://www.w3.org/2000/svg">
<g clip-path="url(#clip0_3196_4379)">
<rect width="24" height="24" fill="white"/>
<path d="M3.5 12.5C3.5 11.3667 3.51667 10.4667 3.55 9.8C3.58333 9.11667 3.65833 8.18333 3.775 7C3.875 5.93333 4.3 5.04167 5.05 4.325C5.81667 3.60833 6.71667 3.25 7.75 3.25H16.25C17.2833 3.25 18.175 3.60833 18.925 4.325C19.6917 5.04167 20.125 5.93333 20.225 7C20.3417 8.18333 20.4167 9.11667 20.45 9.8C20.4833 10.4667 20.5 11.3667 20.5 12.5V21H17.1V19.75H6.9V21H3.5V12.5ZM3.9 10.5H20.1L17.1 12.5C17.1 11.5833 17.0833 10.75 17.05 10C17.0167 9.23333 16.9417 8.275 16.825 7.125C16.8083 6.975 16.7417 6.85 16.625 6.75C16.525 6.65 16.4 6.6 16.25 6.6H7.75C7.6 6.6 7.46667 6.65 7.35 6.75C7.25 6.85 7.19167 6.975 7.175 7.125C7.075 8.30833 7 9.31667 6.95 10.15C6.91667 10.9667 6.9 11.75 6.9 12.5L3.9 10.5ZM7.925 1.25H11.625L10.875 3.425H7.175L7.925 1.25ZM13.55 1.25H17.25L16.5 3.425H12.8L13.55 1.25ZM8.125 17.025C8.65833 17.025 9.1 16.85 9.45 16.5C9.81667 16.1333 10 15.6833 10 15.15C10 14.6167 9.81667 14.175 9.45 13.825C9.1 13.4583 8.65833 13.275 8.125 13.275C7.59167 13.275 7.14167 13.4583 6.775 13.825C6.425 14.175 6.25 14.6167 6.25 15.15C6.25 15.6667 6.43333 16.1083 6.8 16.475C7.16667 16.8417 7.60833 17.025 8.125 17.025ZM15.875 17.025C16.4083 17.025 16.85 16.85 17.2 16.5C17.5667 16.1333 17.75 15.6833 17.75 15.15C17.75 14.6167 17.5667 14.175 17.2 13.825C16.85 13.4583 16.4083 13.275 15.875 13.275C15.3417 13.275 14.8917 13.4583 14.525 13.825C14.175 14.175 14 14.6167 14 15.15C14 15.6667 14.1833 16.1083 14.55 16.475C14.9167 16.8417 15.3583 17.025 15.875 17.025Z" fill="black"/>
</g>
<defs>
<clipPath id="clip0_3196_4379">
<rect width="24" height="24" fill="white"/>
</clipPath>
</defs>
</svg>
