<svg width="24" height="24" viewBox="0 0 24 24" fill="none" xmlns="http://www.w3.org/2000/svg">
<g clip-path="url(#clip0_3256_20405)">
<rect width="24" height="24" fill="white"/>
<path d="M10.5005 4.1L8.00049 3.8V1.5H16.0005V3.8L13.5005 4.1V5.25H10.5005V4.1ZM18.9505 8C19.1172 8.93333 19.2505 9.86667 19.3505 10.8C19.4505 11.7167 19.5005 12.6333 19.5005 13.55V17.5C19.5005 18.1333 19.3422 18.725 19.0255 19.275C18.7255 19.8083 18.3005 20.2333 17.7505 20.55C17.2172 20.85 16.6338 21 16.0005 21H15.4755L15.9505 19.525L17.8255 22.5H13.9505L12.2505 19.525L14.4255 21H9.57549L11.7505 19.525L10.0505 22.5H6.17549L8.05049 19.525L8.52549 21H8.00049C7.36716 21 6.77549 20.85 6.22549 20.55C5.69216 20.2333 5.26716 19.8083 4.95049 19.275C4.65049 18.725 4.50049 18.1333 4.50049 17.5V13.55C4.50049 12.6333 4.55049 11.7167 4.65049 10.8C4.75049 9.86667 4.88382 8.93333 5.05049 8C5.20049 7.16667 5.56716 6.5 6.15049 6C6.75049 5.5 7.46716 5.25 8.30049 5.25H15.7005C16.5338 5.25 17.2422 5.5 17.8255 6C18.4255 6.5 18.8005 7.16667 18.9505 8ZM17.6005 9.9L18.1005 13H5.70049V9.9H17.6005ZM16.0005 17.8C16.0672 17.8 16.1255 17.775 16.1755 17.725C16.2255 17.6583 16.2505 17.5833 16.2505 17.5V13.525C16.2505 12.575 16.2172 11.7333 16.1505 11C16.0838 10.2667 15.9755 9.59167 15.8255 8.975C15.7922 8.79167 15.7172 8.65 15.6005 8.55C15.5005 8.45 15.3672 8.4 15.2005 8.4H8.80049C8.63382 8.4 8.49216 8.45 8.37549 8.55C8.27549 8.65 8.20882 8.79167 8.17549 8.975C8.02549 9.59167 7.91716 10.2667 7.85049 11C7.78382 11.7333 7.75049 12.575 7.75049 13.525V17.5C7.75049 17.5833 7.76716 17.6583 7.80049 17.725C7.85049 17.775 7.90882 17.8 7.97549 17.8H16.0005ZM10.0755 17.15C9.54216 17.15 9.10049 16.9917 8.75049 16.675C8.41716 16.3417 8.25049 15.9167 8.25049 15.4C8.25049 14.8833 8.41716 14.4667 8.75049 14.15C9.10049 13.8167 9.54216 13.65 10.0755 13.65C10.6088 13.65 11.0338 13.8167 11.3505 14.15C11.6838 14.4667 11.8505 14.8833 11.8505 15.4C11.8505 15.9167 11.6838 16.3417 11.3505 16.675C11.0338 16.9917 10.6088 17.15 10.0755 17.15ZM10.0755 16.25C9.82549 16.25 9.61716 16.175 9.45049 16.025C9.28382 15.8583 9.20049 15.65 9.20049 15.4C9.20049 15.15 9.28382 14.95 9.45049 14.8C9.61716 14.6333 9.82549 14.55 10.0755 14.55C10.3255 14.55 10.5255 14.6333 10.6755 14.8C10.8422 14.95 10.9255 15.15 10.9255 15.4C10.9255 15.65 10.8422 15.8583 10.6755 16.025C10.5255 16.175 10.3255 16.25 10.0755 16.25ZM13.9755 17.15C13.4422 17.15 13.0005 16.9917 12.6505 16.675C12.3172 16.3417 12.1505 15.9167 12.1505 15.4C12.1505 14.8833 12.3172 14.4667 12.6505 14.15C13.0005 13.8167 13.4422 13.65 13.9755 13.65C14.5088 13.65 14.9338 13.8167 15.2505 14.15C15.5838 14.4667 15.7505 14.8833 15.7505 15.4C15.7505 15.9167 15.5838 16.3417 15.2505 16.675C14.9338 16.9917 14.5088 17.15 13.9755 17.15ZM13.9755 16.25C13.7255 16.25 13.5172 16.175 13.3505 16.025C13.1838 15.8583 13.1005 15.65 13.1005 15.4C13.1005 15.15 13.1838 14.95 13.3505 14.8C13.5172 14.6333 13.7255 14.55 13.9755 14.55C14.2255 14.55 14.4255 14.6333 14.5755 14.8C14.7422 14.95 14.8255 15.15 14.8255 15.4C14.8255 15.65 14.7422 15.8583 14.5755 16.025C14.4255 16.175 14.2255 16.25 13.9755 16.25Z" fill="black"/>
</g>
<defs>
<clipPath id="clip0_3256_20405">
<rect width="24" height="24" fill="white"/>
</clipPath>
</defs>
</svg>
