<svg width="24" height="24" viewBox="0 0 24 24" fill="none" xmlns="http://www.w3.org/2000/svg">
<g clip-path="url(#clip0_3194_2784)">
<rect width="24" height="24" fill="white"/>
<path d="M11.7505 1.975H8.00049V1.5H16.0005V1.975H12.2505V4.25H11.7505V1.975ZM18.9255 6.5C19.1088 7.68333 19.2505 8.86667 19.3505 10.05C19.4505 11.2167 19.5005 12.3833 19.5005 13.55V18C19.5005 18.45 19.3838 18.8667 19.1505 19.25C18.9338 19.6333 18.6338 19.9417 18.2505 20.175C17.8672 20.3917 17.4505 20.5 17.0005 20.5H14.9255L14.8755 20.25L16.2005 22.5H15.6255L14.3255 20.25L14.6255 20.5H9.37549L9.67549 20.25L8.37549 22.5H7.80049L9.12549 20.25L9.07549 20.5H7.00049C6.55049 20.5 6.13382 20.3917 5.75049 20.175C5.36716 19.9417 5.05882 19.6333 4.82549 19.25C4.60882 18.8667 4.50049 18.45 4.50049 18V13.55C4.50049 12.3833 4.55049 11.2167 4.65049 10.05C4.75049 8.86667 4.89216 7.68333 5.07549 6.5C5.19216 5.76667 5.52549 5.16667 6.07549 4.7C6.64216 4.23333 7.30049 4 8.05049 4H15.9505C16.7005 4 17.3505 4.23333 17.9005 4.7C18.4672 5.16667 18.8088 5.76667 18.9255 6.5ZM19.3755 12V12.475H4.75049V12H19.3755ZM17.0005 20.025C17.5505 20.025 18.0172 19.825 18.4005 19.425C18.8005 19.025 19.0005 18.55 19.0005 18V13.55C19.0005 12.4167 18.9505 11.2583 18.8505 10.075C18.7505 8.89167 18.6088 7.73333 18.4255 6.6C18.3255 5.98333 18.0422 5.475 17.5755 5.075C17.1088 4.675 16.5672 4.475 15.9505 4.475H8.05049C7.43382 4.475 6.89216 4.675 6.42549 5.075C5.95882 5.475 5.67549 5.98333 5.57549 6.6C5.39216 7.73333 5.25049 8.89167 5.15049 10.075C5.05049 11.2583 5.00049 12.4167 5.00049 13.55V18C5.00049 18.55 5.19216 19.025 5.57549 19.425C5.97549 19.825 6.45049 20.025 7.00049 20.025H17.0005ZM8.25049 17.375C7.76716 17.375 7.35049 17.2083 7.00049 16.875C6.66716 16.525 6.50049 16.1083 6.50049 15.625C6.50049 15.1417 6.66716 14.7333 7.00049 14.4C7.35049 14.05 7.76716 13.875 8.25049 13.875C8.73382 13.875 9.14216 14.05 9.47549 14.4C9.82549 14.7333 10.0005 15.1417 10.0005 15.625C10.0005 16.1083 9.82549 16.525 9.47549 16.875C9.14216 17.2083 8.73382 17.375 8.25049 17.375ZM8.25049 16.9C8.61716 16.9 8.91716 16.7833 9.15049 16.55C9.40049 16.3 9.52549 15.9917 9.52549 15.625C9.52549 15.2583 9.40049 14.9583 9.15049 14.725C8.91716 14.475 8.61716 14.35 8.25049 14.35C7.88382 14.35 7.57549 14.475 7.32549 14.725C7.09216 14.9583 6.97549 15.2583 6.97549 15.625C6.97549 15.9917 7.09216 16.3 7.32549 16.55C7.57549 16.7833 7.88382 16.9 8.25049 16.9ZM15.7505 17.375C15.2672 17.375 14.8505 17.2083 14.5005 16.875C14.1672 16.525 14.0005 16.1083 14.0005 15.625C14.0005 15.1417 14.1672 14.7333 14.5005 14.4C14.8505 14.05 15.2672 13.875 15.7505 13.875C16.2338 13.875 16.6422 14.05 16.9755 14.4C17.3255 14.7333 17.5005 15.1417 17.5005 15.625C17.5005 16.1083 17.3255 16.525 16.9755 16.875C16.6422 17.2083 16.2338 17.375 15.7505 17.375ZM15.7505 16.9C16.1172 16.9 16.4172 16.7833 16.6505 16.55C16.9005 16.3 17.0255 15.9917 17.0255 15.625C17.0255 15.2583 16.9005 14.9583 16.6505 14.725C16.4172 14.475 16.1172 14.35 15.7505 14.35C15.3838 14.35 15.0755 14.475 14.8255 14.725C14.5922 14.9583 14.4755 15.2583 14.4755 15.625C14.4755 15.9917 14.5922 16.3 14.8255 16.55C15.0755 16.7833 15.3838 16.9 15.7505 16.9Z" fill="black"/>
</g>
<defs>
<clipPath id="clip0_3194_2784">
<rect width="24" height="24" fill="white"/>
</clipPath>
</defs>
</svg>
