<svg width="24" height="24" viewBox="0 0 24 24" fill="none" xmlns="http://www.w3.org/2000/svg">
<g clip-path="url(#clip0_3346_573)">
<rect width="24" height="24" fill="white"/>
<path d="M11.525 2.375L8 2.275V1.5H16V2.275L12.475 2.375V4.525H11.525V2.375ZM18.9 6.875C19.1167 7.95833 19.2667 9.1 19.35 10.3C19.45 11.4833 19.5 12.8417 19.5 14.375V17.825C19.5 18.3083 19.375 18.7583 19.125 19.175C18.8917 19.575 18.5667 19.9 18.15 20.15C17.75 20.3833 17.3083 20.5 16.825 20.5H14.85L14.925 20L16.375 22.5H15.3L13.85 20L14.3 20.5H9.7L10.15 20L8.7 22.5H7.625L9.075 20L9.15 20.5H7.175C6.69167 20.5 6.24167 20.3833 5.825 20.15C5.425 19.9 5.1 19.575 4.85 19.175C4.61667 18.7583 4.5 18.3083 4.5 17.825V14.375C4.5 12.8417 4.54167 11.4833 4.625 10.3C4.725 9.1 4.88333 7.95833 5.1 6.875C5.25 6.075 5.61667 5.425 6.2 4.925C6.8 4.425 7.50833 4.175 8.325 4.175H15.675C16.4917 4.175 17.1917 4.425 17.775 4.925C18.375 5.425 18.75 6.075 18.9 6.875ZM18.5 12C18.45 10.1833 18.2667 8.53333 17.95 7.05C17.8167 6.48333 17.55 6.01667 17.15 5.65C16.75 5.26667 16.2583 5.075 15.675 5.075H8.325C7.75833 5.075 7.26667 5.26667 6.85 5.65C6.45 6.01667 6.18333 6.475 6.05 7.025C5.73333 8.50833 5.55 10.1667 5.5 12H18.5ZM8.25 17.075C8.68333 17.075 9.04167 16.9333 9.325 16.65C9.60833 16.35 9.75 15.9917 9.75 15.575C9.75 15.1417 9.60833 14.7833 9.325 14.5C9.04167 14.2167 8.68333 14.075 8.25 14.075C7.83333 14.075 7.475 14.2167 7.175 14.5C6.89167 14.7833 6.75 15.1417 6.75 15.575C6.75 15.9917 6.89167 16.35 7.175 16.65C7.475 16.9333 7.83333 17.075 8.25 17.075ZM15.75 17.075C16.1833 17.075 16.5417 16.9333 16.825 16.65C17.1083 16.35 17.25 15.9917 17.25 15.575C17.25 15.1417 17.1083 14.7833 16.825 14.5C16.5417 14.2167 16.1833 14.075 15.75 14.075C15.3333 14.075 14.975 14.2167 14.675 14.5C14.3917 14.7833 14.25 15.1417 14.25 15.575C14.25 15.9917 14.3917 16.35 14.675 16.65C14.975 16.9333 15.3333 17.075 15.75 17.075Z" fill="black"/>
</g>
<defs>
<clipPath id="clip0_3346_573">
<rect width="24" height="24" fill="white"/>
</clipPath>
</defs>
</svg>
