<svg width="24" height="24" viewBox="0 0 24 24" fill="none" xmlns="http://www.w3.org/2000/svg">
<g clip-path="url(#clip0_3346_563)">
<rect width="24" height="24" fill="white"/>
<path d="M11.1005 3.175L8.00049 2.85V1.5H16.0005V2.85L12.9005 3.175V5.05H11.1005V3.175ZM18.9755 7.6C19.1588 8.53333 19.2922 9.525 19.3755 10.575C19.4588 11.6083 19.5005 12.75 19.5005 14V17.5C19.5005 18.05 19.3672 18.5583 19.1005 19.025C18.8338 19.475 18.4672 19.8333 18.0005 20.1C17.5505 20.3667 17.0505 20.5 16.5005 20.5H14.7255L15.0255 19.525L16.7505 22.5H14.6255L12.9005 19.525L13.6755 20.5H10.3255L11.1005 19.525L9.37549 22.5H7.25049L8.97549 19.525L9.27549 20.5H7.50049C6.95049 20.5 6.44216 20.3667 5.97549 20.1C5.52549 19.8333 5.16716 19.475 4.90049 19.025C4.63382 18.5583 4.50049 18.05 4.50049 17.5V14C4.50049 12.7667 4.54216 11.6333 4.62549 10.6C4.70882 9.55 4.84216 8.55 5.02549 7.6C5.19216 6.7 5.60049 5.95833 6.25049 5.375C6.90049 4.79167 7.70882 4.5 8.67549 4.5H15.3255C16.2755 4.5 17.0755 4.79167 17.7255 5.375C18.3755 5.94167 18.7922 6.68333 18.9755 7.6ZM18.4755 11V12.8H5.32549V11H18.4755ZM16.5005 18.7C16.8172 18.7 17.0838 18.5833 17.3005 18.35C17.5338 18.1167 17.6505 17.8333 17.6505 17.5V14C17.6505 11.3833 17.4838 9.35833 17.1505 7.925C17.0338 7.45833 16.8255 7.075 16.5255 6.775C16.2255 6.45833 15.8255 6.3 15.3255 6.3H8.67549C8.19216 6.3 7.79216 6.45833 7.47549 6.775C7.17549 7.075 6.96716 7.45 6.85049 7.9C6.65049 8.75 6.51716 9.65 6.45049 10.6C6.38382 11.55 6.35049 12.6833 6.35049 14V17.5C6.35049 17.8333 6.45882 18.1167 6.67549 18.35C6.90882 18.5833 7.18382 18.7 7.50049 18.7H16.5005ZM9.22549 16.8C8.84216 16.8 8.51716 16.6667 8.25049 16.4C7.98382 16.1333 7.85049 15.8083 7.85049 15.425C7.85049 15.0417 7.98382 14.7167 8.25049 14.45C8.51716 14.1833 8.84216 14.05 9.22549 14.05C9.60882 14.05 9.93382 14.1833 10.2005 14.45C10.4672 14.7167 10.6005 15.0417 10.6005 15.425C10.6005 15.8083 10.4672 16.1333 10.2005 16.4C9.93382 16.6667 9.60882 16.8 9.22549 16.8ZM9.22549 15.425C9.10882 15.425 9.01716 15.425 8.95049 15.425C8.88382 15.425 8.79216 15.425 8.67549 15.425C8.79216 15.425 8.88382 15.425 8.95049 15.425C9.01716 15.425 9.10882 15.425 9.22549 15.425C9.34216 15.425 9.43382 15.425 9.50049 15.425C9.56716 15.425 9.65882 15.425 9.77549 15.425C9.65882 15.425 9.56716 15.425 9.50049 15.425C9.43382 15.425 9.34216 15.425 9.22549 15.425ZM14.7755 16.8C14.3922 16.8 14.0672 16.6667 13.8005 16.4C13.5338 16.1333 13.4005 15.8083 13.4005 15.425C13.4005 15.0417 13.5338 14.7167 13.8005 14.45C14.0672 14.1833 14.3922 14.05 14.7755 14.05C15.1588 14.05 15.4838 14.1833 15.7505 14.45C16.0172 14.7167 16.1505 15.0417 16.1505 15.425C16.1505 15.8083 16.0172 16.1333 15.7505 16.4C15.4838 16.6667 15.1588 16.8 14.7755 16.8ZM14.7755 15.425C14.6755 15.425 14.6005 15.425 14.5505 15.425C14.5005 15.425 14.4255 15.425 14.3255 15.425C14.4255 15.425 14.5005 15.425 14.5505 15.425C14.6005 15.425 14.6755 15.425 14.7755 15.425C14.8755 15.425 14.9505 15.425 15.0005 15.425C15.0505 15.425 15.1255 15.425 15.2255 15.425C15.1255 15.425 15.0505 15.425 15.0005 15.425C14.9505 15.425 14.8755 15.425 14.7755 15.425Z" fill="black"/>
</g>
<defs>
<clipPath id="clip0_3346_563">
<rect width="24" height="24" fill="white"/>
</clipPath>
</defs>
</svg>
