<svg width="24" height="24" viewBox="0 0 24 24" fill="none" xmlns="http://www.w3.org/2000/svg">
<g clip-path="url(#clip0_3196_4391)">
<rect width="24" height="24" fill="white"/>
<path d="M3.50049 18.5C2.80049 18.5 2.20882 18.2583 1.72549 17.775C1.24216 17.2917 1.00049 16.7 1.00049 16V5H17.5005C18.1338 5 18.7338 5.15833 19.3005 5.475C19.8672 5.79167 20.3088 6.225 20.6255 6.775L23.0005 11V18.5H19.5255V15.425H19.7505V11.875L17.8505 8.475C17.8005 8.39167 17.7255 8.31667 17.6255 8.25C17.5422 8.18333 17.4588 8.15 17.3755 8.15H4.25049V15.25C4.25049 15.2667 4.25049 15.2833 4.25049 15.3C4.26716 15.3 4.28382 15.3 4.30049 15.3H4.97549V18.5H3.50049ZM6.90049 20.5C6.26716 20.5 5.67549 20.3417 5.12549 20.025C4.59216 19.7083 4.16716 19.2833 3.85049 18.75C3.53382 18.2 3.37549 17.6083 3.37549 16.975C3.37549 16.3417 3.53382 15.7583 3.85049 15.225C4.16716 14.675 4.59216 14.2417 5.12549 13.925C5.67549 13.6083 6.26716 13.45 6.90049 13.45C7.53382 13.45 8.11716 13.6083 8.65049 13.925C9.20049 14.2417 9.63382 14.675 9.95049 15.225C10.2672 15.7583 10.4255 16.3417 10.4255 16.975C10.4255 17.6083 10.2672 18.2 9.95049 18.75C9.63382 19.2833 9.20049 19.7083 8.65049 20.025C8.11716 20.3417 7.53382 20.5 6.90049 20.5ZM6.90049 17.925C7.16716 17.925 7.39216 17.8333 7.57549 17.65C7.75882 17.4667 7.85049 17.2417 7.85049 16.975C7.85049 16.7083 7.75882 16.4833 7.57549 16.3C7.39216 16.1167 7.16716 16.025 6.90049 16.025C6.63382 16.025 6.40882 16.1167 6.22549 16.3C6.04216 16.4833 5.95049 16.7083 5.95049 16.975C5.95049 17.2417 6.04216 17.4667 6.22549 17.65C6.40882 17.8333 6.63382 17.925 6.90049 17.925ZM8.47549 15.35H15.7255V18.5H8.47549V15.35ZM17.3505 20.5C16.7005 20.5 16.1005 20.35 15.5505 20.05C15.0172 19.7333 14.5922 19.3083 14.2755 18.775C13.9755 18.225 13.8255 17.625 13.8255 16.975C13.8255 16.325 13.9755 15.7333 14.2755 15.2C14.5922 14.65 15.0172 14.225 15.5505 13.925C16.1005 13.6083 16.7005 13.45 17.3505 13.45C18.0005 13.45 18.5922 13.6083 19.1255 13.925C19.6755 14.225 20.1005 14.65 20.4005 15.2C20.7172 15.7333 20.8755 16.325 20.8755 16.975C20.8755 17.625 20.7172 18.225 20.4005 18.775C20.1005 19.3083 19.6755 19.7333 19.1255 20.05C18.5922 20.35 18.0005 20.5 17.3505 20.5ZM17.3505 17.925C17.6172 17.925 17.8422 17.8333 18.0255 17.65C18.2088 17.4667 18.3005 17.2417 18.3005 16.975C18.3005 16.7083 18.2088 16.4833 18.0255 16.3C17.8422 16.1167 17.6172 16.025 17.3505 16.025C17.0838 16.025 16.8588 16.1167 16.6755 16.3C16.4922 16.4833 16.4005 16.7083 16.4005 16.975C16.4005 17.2417 16.4922 17.4667 16.6755 17.65C16.8588 17.8333 17.0838 17.925 17.3505 17.925ZM1.40049 9.4H21.7505V12.4H1.40049V9.4ZM9.22549 2H12.9505L14.8255 5.3L11.8255 6.575L9.22549 2Z" fill="black"/>
</g>
<defs>
<clipPath id="clip0_3196_4391">
<rect width="24" height="24" fill="white"/>
</clipPath>
</defs>
</svg>
