<svg width="24" height="24" viewBox="0 0 24 24" fill="none" xmlns="http://www.w3.org/2000/svg">
<g clip-path="url(#clip0_3346_464)">
<rect width="24" height="24" fill="white"/>
<path d="M11.7505 1.25L10.8255 3.425H7.87549L8.77549 1.25H11.7505ZM16.7755 1.25L15.8505 3.425H12.8755L13.8005 1.25H16.7755ZM3.50049 11.925C3.50049 10.075 3.58382 8.425 3.75049 6.975C3.88382 5.875 4.30882 4.98333 5.02549 4.3C5.75882 3.6 6.64216 3.25 7.67549 3.25H16.3255C17.3922 3.25 18.2755 3.59167 18.9755 4.275C19.6922 4.95833 20.1172 5.85833 20.2505 6.975C20.4172 8.425 20.5005 10.075 20.5005 11.925V21H17.7255V19.675H6.27549V21H3.50049V11.925ZM7.35049 16.925H8.20049H15.4755H16.3255H17.7255V11.925C17.7255 10.0583 17.6338 8.425 17.4505 7.025C17.4172 6.725 17.3005 6.475 17.1005 6.275C16.9005 6.075 16.6672 5.975 16.4005 5.975H7.60049C7.33382 5.975 7.10049 6.075 6.90049 6.275C6.70049 6.475 6.58382 6.725 6.55049 7.025C6.36716 8.425 6.27549 10.0583 6.27549 11.925V16.925H7.35049ZM4.77549 8.825H19.3005V11.575H4.77549V8.825ZM9.05049 15.725C8.58382 15.725 8.19216 15.575 7.87549 15.275C7.55882 14.9583 7.39216 14.5667 7.37549 14.1C7.39216 13.6167 7.55882 13.225 7.87549 12.925C8.19216 12.625 8.58382 12.475 9.05049 12.475C9.53382 12.475 9.93382 12.625 10.2505 12.925C10.5672 13.225 10.7172 13.6167 10.7005 14.1C10.7172 14.5667 10.5672 14.9583 10.2505 15.275C9.93382 15.575 9.53382 15.725 9.05049 15.725ZM9.05049 14.7C9.20049 14.7 9.30882 14.7 9.37549 14.7C9.44216 14.7 9.54216 14.7 9.67549 14.7C9.54216 14.7 9.44216 14.7 9.37549 14.7C9.30882 14.7 9.20049 14.7 9.05049 14.7C8.90049 14.7 8.79216 14.7 8.72549 14.7C8.65882 14.7 8.55049 14.7 8.40049 14.7C8.55049 14.7 8.65882 14.7 8.72549 14.7C8.79216 14.7 8.90049 14.7 9.05049 14.7ZM14.9755 15.725C14.5088 15.725 14.1172 15.575 13.8005 15.275C13.4838 14.9583 13.3172 14.5667 13.3005 14.1C13.3172 13.6167 13.4838 13.225 13.8005 12.925C14.1172 12.625 14.5088 12.475 14.9755 12.475C15.4588 12.475 15.8505 12.625 16.1505 12.925C16.4672 13.225 16.6255 13.6167 16.6255 14.1C16.6255 14.5667 16.4672 14.9583 16.1505 15.275C15.8505 15.575 15.4588 15.725 14.9755 15.725ZM14.9755 14.775C15.1255 14.775 15.2338 14.775 15.3005 14.775C15.3838 14.775 15.5005 14.775 15.6505 14.775C15.5005 14.775 15.3838 14.775 15.3005 14.775C15.2338 14.775 15.1255 14.775 14.9755 14.775C14.8255 14.775 14.7088 14.775 14.6255 14.775C14.5422 14.775 14.4255 14.775 14.2755 14.775C14.4255 14.775 14.5422 14.775 14.6255 14.775C14.7088 14.775 14.8255 14.775 14.9755 14.775Z" fill="black"/>
</g>
<defs>
<clipPath id="clip0_3346_464">
<rect width="24" height="24" fill="white"/>
</clipPath>
</defs>
</svg>
