<svg width="24" height="24" viewBox="0 0 24 24" fill="none" xmlns="http://www.w3.org/2000/svg">
<g clip-path="url(#clip0_3346_474)">
<rect width="24" height="24" fill="white"/>
<path d="M3.5 12.25C3.5 11.2333 3.51667 10.3083 3.55 9.475C3.58333 8.625 3.65 7.76667 3.75 6.9C3.86667 5.81667 4.275 4.94167 4.975 4.275C5.69167 3.59167 6.55 3.25 7.55 3.25H16.45C17.45 3.25 18.3 3.59167 19 4.275C19.7167 4.94167 20.1333 5.81667 20.25 6.9C20.35 7.76667 20.4167 8.625 20.45 9.475C20.4833 10.3083 20.5 11.2333 20.5 12.25V21H18.5V19.25H5.5V21H3.5V12.25ZM4.6 11H19.4L18.65 12.25C18.65 11.2667 18.6333 10.3667 18.6 9.55C18.5667 8.73333 18.5083 7.91667 18.425 7.1C18.3583 6.5 18.1417 6.00833 17.775 5.625C17.4083 5.24167 16.9667 5.05 16.45 5.05H7.55C7.03333 5.05 6.59167 5.24167 6.225 5.625C5.85833 6.00833 5.64167 6.5 5.575 7.1C5.49167 7.91667 5.43333 8.73333 5.4 9.55C5.36667 10.3667 5.35 11.2667 5.35 12.25L4.6 11ZM9.8 1.25H11.8L10.55 3.425H8.55L9.8 1.25ZM14.3 1.25H16.3L15.05 3.425H13.05L14.3 1.25ZM6.75 16.4C7.18333 16.4 7.54167 16.2583 7.825 15.975C8.10833 15.675 8.25 15.3167 8.25 14.9C8.25 14.4667 8.10833 14.1083 7.825 13.825C7.54167 13.5417 7.18333 13.4 6.75 13.4C6.33333 13.4 5.975 13.5417 5.675 13.825C5.39167 14.1083 5.25 14.4667 5.25 14.9C5.25 15.3167 5.39167 15.675 5.675 15.975C5.975 16.2583 6.33333 16.4 6.75 16.4ZM17.25 16.4C17.6833 16.4 18.0417 16.2583 18.325 15.975C18.6083 15.675 18.75 15.3167 18.75 14.9C18.75 14.4667 18.6083 14.1083 18.325 13.825C18.0417 13.5417 17.6833 13.4 17.25 13.4C16.8333 13.4 16.475 13.5417 16.175 13.825C15.8917 14.1083 15.75 14.4667 15.75 14.9C15.75 15.3167 15.8917 15.675 16.175 15.975C16.475 16.2583 16.8333 16.4 17.25 16.4Z" fill="black"/>
</g>
<defs>
<clipPath id="clip0_3346_474">
<rect width="24" height="24" fill="white"/>
</clipPath>
</defs>
</svg>
