<svg width="24" height="24" viewBox="0 0 24 24" fill="none" xmlns="http://www.w3.org/2000/svg">
<g clip-path="url(#clip0_3196_4393)">
<rect width="24" height="24" fill="white"/>
<path d="M3 18.75C2.43333 18.75 1.95833 18.5583 1.575 18.175C1.19167 17.7917 1 17.3167 1 16.75V5H18.45C18.8333 5 19.1833 5.11667 19.5 5.35C19.8167 5.58333 20.0833 5.89167 20.3 6.275L23 11.025V18.75H20.9L19.8 16.775H22.5V11.15L19.85 6.475C19.6833 6.19167 19.475 5.95833 19.225 5.775C18.9917 5.575 18.7333 5.475 18.45 5.475H1.5V15.275C1.5 15.6917 1.64167 16.05 1.925 16.35C2.225 16.6333 2.58333 16.775 3 16.775H4.625L3.525 18.75H3ZM5.5 20.475C5.13333 20.475 4.8 20.3917 4.5 20.225C4.2 20.0417 3.95833 19.8 3.775 19.5C3.59167 19.2 3.5 18.8667 3.5 18.5C3.5 18.1333 3.59167 17.8 3.775 17.5C3.95833 17.2 4.2 16.9667 4.5 16.8C4.8 16.6167 5.13333 16.525 5.5 16.525C5.86667 16.525 6.2 16.6167 6.5 16.8C6.8 16.9667 7.04167 17.2 7.225 17.5C7.40833 17.8 7.5 18.1333 7.5 18.5C7.5 18.8667 7.40833 19.2 7.225 19.5C7.04167 19.8 6.8 20.0417 6.5 20.225C6.2 20.3917 5.86667 20.475 5.5 20.475ZM5.5 20C5.91667 20 6.26667 19.8583 6.55 19.575C6.85 19.275 7 18.9167 7 18.5C7 18.0833 6.85 17.7333 6.55 17.45C6.26667 17.15 5.91667 17 5.5 17C5.08333 17 4.725 17.15 4.425 17.45C4.14167 17.7333 4 18.0833 4 18.5C4 18.9167 4.14167 19.275 4.425 19.575C4.725 19.8583 5.08333 20 5.5 20ZM6.425 16.775H18.125L17.2 18.75H7.275L6.425 16.775ZM19 20.475C18.6333 20.475 18.3 20.3917 18 20.225C17.7 20.0417 17.4583 19.8 17.275 19.5C17.0917 19.2 17 18.8667 17 18.5C17 18.1333 17.0917 17.8 17.275 17.5C17.4583 17.2 17.7 16.9667 18 16.8C18.3 16.6167 18.6333 16.525 19 16.525C19.3667 16.525 19.7 16.6167 20 16.8C20.3 16.9667 20.5417 17.2 20.725 17.5C20.9083 17.8 21 18.1333 21 18.5C21 18.8667 20.9083 19.2 20.725 19.5C20.5417 19.8 20.3 20.0417 20 20.225C19.7 20.3917 19.3667 20.475 19 20.475ZM19 20C19.4167 20 19.7667 19.8583 20.05 19.575C20.35 19.275 20.5 18.9167 20.5 18.5C20.5 18.0833 20.35 17.7333 20.05 17.45C19.7667 17.15 19.4167 17 19 17C18.5833 17 18.225 17.15 17.925 17.45C17.6417 17.7333 17.5 18.0833 17.5 18.5C17.5 18.9167 17.6417 19.275 17.925 19.575C18.225 19.8583 18.5833 20 19 20ZM1.4 11H22.75V16.95H1.4V11ZM14.25 5.25L12.4 2H12.95L14.825 5.3L14.25 5.25Z" fill="black"/>
</g>
<defs>
<clipPath id="clip0_3196_4393">
<rect width="24" height="24" fill="white"/>
</clipPath>
</defs>
</svg>
