<svg width="24" height="24" viewBox="0 0 24 24" fill="none" xmlns="http://www.w3.org/2000/svg">
<g clip-path="url(#clip0_3346_458)">
<rect width="24" height="24" fill="white"/>
<path d="M11.5255 1.25L10.2755 3.425H8.67549L9.92549 1.25H11.5255ZM16.1255 1.25L14.8755 3.425H13.2755L14.5255 1.25H16.1255ZM3.50049 6.75C3.50049 6.1 3.65049 5.50833 3.95049 4.975C4.26716 4.44167 4.69216 4.025 5.22549 3.725C5.75882 3.40833 6.35882 3.25 7.02549 3.25H16.9755C17.6422 3.25 18.2422 3.40833 18.7755 3.725C19.3088 4.025 19.7255 4.44167 20.0255 4.975C20.3422 5.50833 20.5005 6.1 20.5005 6.75V21H19.0505V19.5H4.95049V21H3.50049V6.75ZM6.12549 18.075H8.35049H15.6005H17.8005H19.0505V6.75C19.0505 6.16667 18.8505 5.675 18.4505 5.275C18.0505 4.875 17.5588 4.675 16.9755 4.675H7.02549C6.44216 4.675 5.95049 4.875 5.55049 5.275C5.15049 5.675 4.95049 6.16667 4.95049 6.75V18.075H6.12549ZM4.10049 10.625H19.9255V12.05H4.10049V10.625ZM7.82549 15.975C7.49216 15.975 7.20882 15.8583 6.97549 15.625C6.74216 15.3917 6.62549 15.1083 6.62549 14.775C6.62549 14.4417 6.74216 14.1583 6.97549 13.925C7.20882 13.6917 7.49216 13.575 7.82549 13.575C8.15882 13.575 8.44216 13.6917 8.67549 13.925C8.90882 14.1583 9.02549 14.4417 9.02549 14.775C9.02549 15.1083 8.90882 15.3917 8.67549 15.625C8.44216 15.8583 8.15882 15.975 7.82549 15.975ZM7.82549 14.95C7.94216 14.95 8.02549 14.95 8.07549 14.95C8.12549 14.95 8.21716 14.95 8.35049 14.95C8.21716 14.95 8.12549 14.95 8.07549 14.95C8.02549 14.95 7.94216 14.95 7.82549 14.95C7.70882 14.95 7.62549 14.95 7.57549 14.95C7.52549 14.95 7.43382 14.95 7.30049 14.95C7.43382 14.95 7.52549 14.95 7.57549 14.95C7.62549 14.95 7.70882 14.95 7.82549 14.95ZM16.1755 15.975C15.8422 15.975 15.5588 15.8583 15.3255 15.625C15.0922 15.3917 14.9755 15.1083 14.9755 14.775C14.9755 14.4417 15.0922 14.1583 15.3255 13.925C15.5588 13.6917 15.8422 13.575 16.1755 13.575C16.5088 13.575 16.7922 13.6917 17.0255 13.925C17.2588 14.1583 17.3755 14.4417 17.3755 14.775C17.3755 15.1083 17.2588 15.3917 17.0255 15.625C16.7922 15.8583 16.5088 15.975 16.1755 15.975ZM16.1755 14.925C16.2755 14.925 16.3588 14.925 16.4255 14.925C16.4922 14.925 16.5755 14.925 16.6755 14.925C16.5755 14.925 16.4922 14.925 16.4255 14.925C16.3588 14.925 16.2755 14.925 16.1755 14.925C16.0755 14.925 15.9922 14.925 15.9255 14.925C15.8588 14.925 15.7755 14.925 15.6755 14.925C15.7755 14.925 15.8588 14.925 15.9255 14.925C15.9922 14.925 16.0755 14.925 16.1755 14.925Z" fill="black"/>
</g>
<defs>
<clipPath id="clip0_3346_458">
<rect width="24" height="24" fill="white"/>
</clipPath>
</defs>
</svg>
