<svg width="24" height="24" viewBox="0 0 24 24" fill="none" xmlns="http://www.w3.org/2000/svg">
<g clip-path="url(#clip0_3196_4389)">
<rect width="24" height="24" fill="white"/>
<path d="M3.62549 18.5C2.85882 18.5 2.22549 18.2583 1.72549 17.775C1.24216 17.2917 1.00049 16.675 1.00049 15.925V5H17.6005C18.2505 5 18.8505 5.15833 19.4005 5.475C19.9505 5.79167 20.3838 6.21667 20.7005 6.75L23.0005 10.825V18.5H19.7005V15.85H20.2255V11.575L18.3005 8.2C18.2172 8.05 18.1005 7.93333 17.9505 7.85C17.8172 7.75 17.6755 7.7 17.5255 7.7H3.77549V15.425C3.77549 15.525 3.80882 15.6083 3.87549 15.675C3.94216 15.7417 4.02549 15.775 4.12549 15.775H4.85049V18.5H3.62549ZM6.85049 20.5C6.26716 20.5 5.71716 20.3583 5.20049 20.075C4.70049 19.775 4.30049 19.375 4.00049 18.875C3.71716 18.375 3.57549 17.825 3.57549 17.225C3.57549 16.6417 3.71716 16.1 4.00049 15.6C4.30049 15.1 4.70049 14.7083 5.20049 14.425C5.71716 14.125 6.26716 13.975 6.85049 13.975C7.43382 13.975 7.97549 14.125 8.47549 14.425C8.99216 14.7083 9.39216 15.1 9.67549 15.6C9.97549 16.1 10.1255 16.6417 10.1255 17.225C10.1255 17.825 9.97549 18.375 9.67549 18.875C9.39216 19.375 8.99216 19.775 8.47549 20.075C7.97549 20.3583 7.43382 20.5 6.85049 20.5ZM6.85049 18.25C7.13382 18.25 7.37549 18.1583 7.57549 17.975C7.77549 17.775 7.87549 17.525 7.87549 17.225C7.87549 16.9417 7.77549 16.7 7.57549 16.5C7.37549 16.3 7.13382 16.2 6.85049 16.2C6.56716 16.2 6.32549 16.3 6.12549 16.5C5.92549 16.7 5.82549 16.9417 5.82549 17.225C5.82549 17.525 5.92549 17.775 6.12549 17.975C6.32549 18.1583 6.56716 18.25 6.85049 18.25ZM8.45049 15.8H16.0255V18.5H8.45049V15.8ZM17.5755 20.5C16.9755 20.5 16.4172 20.3583 15.9005 20.075C15.4005 19.7917 15.0088 19.4 14.7255 18.9C14.4422 18.3833 14.3005 17.825 14.3005 17.225C14.3005 16.6417 14.4422 16.1 14.7255 15.6C15.0088 15.0833 15.4005 14.6833 15.9005 14.4C16.4172 14.1167 16.9755 13.975 17.5755 13.975C18.1588 13.975 18.7005 14.1167 19.2005 14.4C19.7172 14.6833 20.1172 15.0833 20.4005 15.6C20.6838 16.1 20.8255 16.6417 20.8255 17.225C20.8255 17.825 20.6838 18.3833 20.4005 18.9C20.1172 19.4 19.7172 19.7917 19.2005 20.075C18.7005 20.3583 18.1588 20.5 17.5755 20.5ZM17.5755 18.25C17.8588 18.25 18.0922 18.1583 18.2755 17.975C18.4755 17.775 18.5755 17.525 18.5755 17.225C18.5755 16.9417 18.4755 16.7 18.2755 16.5C18.0755 16.3 17.8422 16.2 17.5755 16.2C17.2922 16.2 17.0505 16.3 16.8505 16.5C16.6505 16.7 16.5505 16.9417 16.5505 17.225C16.5505 17.525 16.6505 17.775 16.8505 17.975C17.0505 18.1583 17.2922 18.25 17.5755 18.25ZM1.47549 9.925H21.7505V12.525H1.47549V9.925ZM9.80049 2H12.9505L14.8255 5.3L12.4005 6.575L9.80049 2Z" fill="black"/>
</g>
<defs>
<clipPath id="clip0_3196_4389">
<rect width="24" height="24" fill="white"/>
</clipPath>
</defs>
</svg>
