<svg width="24" height="24" viewBox="0 0 24 24" fill="none" xmlns="http://www.w3.org/2000/svg">
<g clip-path="url(#clip0_3196_4387)">
<rect width="24" height="24" fill="white"/>
<path d="M3.72549 18.5C2.89216 18.5 2.22549 18.2667 1.72549 17.8C1.24216 17.3167 1.00049 16.6583 1.00049 15.825V5H17.7255C18.3588 5 18.9505 5.15833 19.5005 5.475C20.0505 5.775 20.4755 6.2 20.7755 6.75L23.0005 10.675V18.5H19.8505V16.275H20.6755V11.3L18.7755 7.925C18.6588 7.725 18.5005 7.56667 18.3005 7.45C18.1005 7.31667 17.8922 7.25 17.6755 7.25H3.32549V15.575C3.32549 15.7583 3.38382 15.9167 3.50049 16.05C3.61715 16.1667 3.75882 16.225 3.92549 16.225H4.75049V18.5H3.72549ZM6.80049 20.5C6.25049 20.5 5.74216 20.3667 5.27549 20.1C4.82549 19.8333 4.46716 19.4667 4.20049 19C3.93382 18.5333 3.80049 18.0333 3.80049 17.5C3.80049 16.95 3.93382 16.4417 4.20049 15.975C4.46716 15.5083 4.82549 15.1417 5.27549 14.875C5.74216 14.6083 6.25049 14.475 6.80049 14.475C7.35049 14.475 7.85049 14.6083 8.30049 14.875C8.76716 15.1417 9.13382 15.5083 9.40049 15.975C9.66716 16.4417 9.80049 16.95 9.80049 17.5C9.80049 18.0333 9.66716 18.5333 9.40049 19C9.13382 19.4667 8.76716 19.8333 8.30049 20.1C7.85049 20.3667 7.35049 20.5 6.80049 20.5ZM6.80049 18.6C7.10049 18.6 7.35049 18.4917 7.55049 18.275C7.76716 18.0583 7.87549 17.8 7.87549 17.5C7.87549 17.1833 7.76716 16.925 7.55049 16.725C7.35049 16.5083 7.10049 16.4 6.80049 16.4C6.50049 16.4 6.24216 16.5083 6.02549 16.725C5.82549 16.925 5.72549 17.1833 5.72549 17.5C5.72549 17.8 5.82549 18.0583 6.02549 18.275C6.24216 18.4917 6.50049 18.6 6.80049 18.6ZM8.40049 16.25H16.3005V18.5H8.40049V16.25ZM17.7755 20.5C17.2255 20.5 16.7172 20.3667 16.2505 20.1C15.8005 19.8333 15.4422 19.475 15.1755 19.025C14.9088 18.5583 14.7755 18.05 14.7755 17.5C14.7755 16.95 14.9088 16.4417 15.1755 15.975C15.4422 15.5083 15.8005 15.1417 16.2505 14.875C16.7172 14.6083 17.2255 14.475 17.7755 14.475C18.3255 14.475 18.8338 14.6083 19.3005 14.875C19.7672 15.1417 20.1338 15.5083 20.4005 15.975C20.6672 16.4417 20.8005 16.95 20.8005 17.5C20.8005 18.05 20.6672 18.5583 20.4005 19.025C20.1338 19.475 19.7672 19.8333 19.3005 20.1C18.8338 20.3667 18.3255 20.5 17.7755 20.5ZM17.7755 18.6C18.0755 18.6 18.3338 18.4917 18.5505 18.275C18.7672 18.0583 18.8755 17.8 18.8755 17.5C18.8755 17.1833 18.7672 16.925 18.5505 16.725C18.3338 16.5083 18.0755 16.4 17.7755 16.4C17.4755 16.4 17.2172 16.5083 17.0005 16.725C16.8005 16.925 16.7005 17.1833 16.7005 17.5C16.7005 17.8 16.8005 18.0583 17.0005 18.275C17.2172 18.4917 17.4755 18.6 17.7755 18.6ZM1.57549 10.475H21.7505V12.625H1.57549V10.475ZM10.3755 2H12.9505L14.8255 5.3L12.9755 6.575L10.3755 2Z" fill="black"/>
</g>
<defs>
<clipPath id="clip0_3196_4387">
<rect width="24" height="24" fill="white"/>
</clipPath>
</defs>
</svg>
