<svg width="24" height="24" viewBox="0 0 24 24" fill="none" xmlns="http://www.w3.org/2000/svg">
<g clip-path="url(#clip0_3194_3623)">
<rect width="24" height="24" fill="white"/>
<path d="M4.75049 20.5C4.25049 20.5 3.78382 20.3833 3.35049 20.15C2.93382 19.9 2.60049 19.5667 2.35049 19.15C2.11716 18.7167 2.00049 18.25 2.00049 17.75C2.00049 17.25 2.11716 16.7917 2.35049 16.375C2.60049 15.9417 2.93382 15.6083 3.35049 15.375C3.78382 15.125 4.25049 15 4.75049 15C5.25049 15 5.70882 15.125 6.12549 15.375C6.55882 15.6083 6.89216 15.9417 7.12549 16.375C7.37549 16.7917 7.50049 17.25 7.50049 17.75C7.50049 18.25 7.37549 18.7167 7.12549 19.15C6.89216 19.5667 6.55882 19.9 6.12549 20.15C5.70882 20.3833 5.25049 20.5 4.75049 20.5ZM4.75049 18.925C5.06716 18.925 5.33382 18.8167 5.55049 18.6C5.78382 18.3667 5.90049 18.0833 5.90049 17.75C5.90049 17.4167 5.78382 17.1417 5.55049 16.925C5.33382 16.6917 5.06716 16.575 4.75049 16.575C4.43382 16.575 4.15882 16.6917 3.92549 16.925C3.70882 17.1417 3.60049 17.4167 3.60049 17.75C3.60049 18.0833 3.70882 18.3667 3.92549 18.6C4.15882 18.8167 4.43382 18.925 4.75049 18.925ZM18.0005 20.5C17.5005 20.5 17.0338 20.3833 16.6005 20.15C16.1838 19.9 15.8505 19.5667 15.6005 19.15C15.3672 18.7167 15.2505 18.25 15.2505 17.75C15.2505 17.25 15.3672 16.7917 15.6005 16.375C15.8505 15.9417 16.1838 15.6083 16.6005 15.375C17.0338 15.125 17.5005 15 18.0005 15C18.5005 15 18.9588 15.125 19.3755 15.375C19.8088 15.6083 20.1422 15.9417 20.3755 16.375C20.6255 16.7917 20.7505 17.25 20.7505 17.75C20.7505 18.25 20.6255 18.7167 20.3755 19.15C20.1422 19.5667 19.8088 19.9 19.3755 20.15C18.9588 20.3833 18.5005 20.5 18.0005 20.5ZM18.0005 18.925C18.3172 18.925 18.5838 18.8167 18.8005 18.6C19.0338 18.3667 19.1505 18.0833 19.1505 17.75C19.1505 17.4167 19.0338 17.1417 18.8005 16.925C18.5838 16.6917 18.3172 16.575 18.0005 16.575C17.6838 16.575 17.4088 16.6917 17.1755 16.925C16.9588 17.1417 16.8505 17.4167 16.8505 17.75C16.8505 18.0833 16.9588 18.3667 17.1755 18.6C17.4088 18.8167 17.6838 18.925 18.0005 18.925ZM17.8255 4C18.4422 4 19.0255 4.15833 19.5755 4.475C20.1255 4.775 20.5505 5.19167 20.8505 5.725L23.0005 9.5V18.5H20.1505V16.75H21.2005V10L19.3005 6.65C19.1505 6.38333 18.9338 6.16667 18.6505 6C18.3838 5.83333 18.1088 5.75 17.8255 5.75H13.4005V16.75H16.7255V18.5H6.62549V16.75H11.6005V4H17.8255ZM2.87549 16.75V18.5H0.000488281V16.75H2.87549ZM22.2005 10.7H12.4005V9H22.2005V10.7Z" fill="black"/>
</g>
<defs>
<clipPath id="clip0_3194_3623">
<rect width="24" height="24" fill="white"/>
</clipPath>
</defs>
</svg>
