<svg width="24" height="24" viewBox="0 0 24 24" fill="none" xmlns="http://www.w3.org/2000/svg">
<g clip-path="url(#clip0_3346_499)">
<rect width="24" height="24" fill="white"/>
<path d="M18.6755 9.475C18.6088 9.35833 18.5088 9.26667 18.3755 9.2C18.2588 9.11667 18.1172 9.075 17.9505 9.075H16.0005V15.875H16.6005L16.6505 18.75H8.52549V15.875H13.0505V7.4H3.95049V15.575C3.95049 15.7083 3.99216 15.8167 4.07549 15.9C4.15882 15.9833 4.25882 16.025 4.37549 16.025H4.95049V18.75H3.67549C2.92549 18.75 2.29216 18.4917 1.77549 17.975C1.25882 17.4583 1.00049 16.825 1.00049 16.075V4.5H16.0005V6.175H18.0505C18.6838 6.175 19.2838 6.33333 19.8505 6.65C20.4172 6.96667 20.8505 7.39167 21.1505 7.925L23.0005 11.175V18.75H19.7255V16.1H20.0505V11.875L18.6755 9.475ZM6.87549 20.5C6.27549 20.5 5.72549 20.3583 5.22549 20.075C4.72549 19.775 4.32549 19.375 4.02549 18.875C3.74216 18.375 3.60049 17.825 3.60049 17.225C3.60049 16.6417 3.74216 16.1 4.02549 15.6C4.32549 15.1 4.72549 14.7083 5.22549 14.425C5.72549 14.125 6.27549 13.975 6.87549 13.975C7.45882 13.975 8.00049 14.125 8.50049 14.425C9.00049 14.7083 9.39216 15.1 9.67549 15.6C9.97549 16.1 10.1255 16.6417 10.1255 17.225C10.1255 17.825 9.97549 18.375 9.67549 18.875C9.39216 19.375 9.00049 19.775 8.50049 20.075C8.00049 20.3583 7.45882 20.5 6.87549 20.5ZM6.87549 18.175C7.12549 18.175 7.34216 18.0833 7.52549 17.9C7.70882 17.7167 7.80049 17.4917 7.80049 17.225C7.80049 16.9583 7.70882 16.7417 7.52549 16.575C7.34216 16.3917 7.12549 16.3 6.87549 16.3C6.62549 16.3 6.40049 16.3917 6.20049 16.575C6.01716 16.7417 5.92549 16.9583 5.92549 17.225C5.92549 17.4917 6.01716 17.7167 6.20049 17.9C6.38382 18.0833 6.60882 18.175 6.87549 18.175ZM17.9755 20.5C17.3922 20.5 16.8422 20.3583 16.3255 20.075C15.8255 19.7917 15.4338 19.4 15.1505 18.9C14.8672 18.3833 14.7255 17.825 14.7255 17.225C14.7255 16.6417 14.8672 16.1 15.1505 15.6C15.4338 15.0833 15.8255 14.6833 16.3255 14.4C16.8422 14.1167 17.3922 13.975 17.9755 13.975C18.5755 13.975 19.1255 14.1167 19.6255 14.4C20.1422 14.6833 20.5422 15.0833 20.8255 15.6C21.1088 16.1 21.2505 16.6417 21.2505 17.225C21.2505 17.825 21.1088 18.3833 20.8255 18.9C20.5422 19.4 20.1422 19.7917 19.6255 20.075C19.1255 20.3583 18.5755 20.5 17.9755 20.5ZM18.0005 18.175C18.2505 18.175 18.4672 18.0833 18.6505 17.9C18.8338 17.7167 18.9255 17.4917 18.9255 17.225C18.9255 16.9583 18.8338 16.7417 18.6505 16.575C18.4672 16.3917 18.2505 16.3 18.0005 16.3C17.7338 16.3 17.5088 16.3917 17.3255 16.575C17.1422 16.7417 17.0505 16.9583 17.0505 17.225C17.0505 17.4917 17.1422 17.7167 17.3255 17.9C17.5088 18.0833 17.7338 18.175 18.0005 18.175Z" fill="black"/>
</g>
<defs>
<clipPath id="clip0_3346_499">
<rect width="24" height="24" fill="white"/>
</clipPath>
</defs>
</svg>
