<svg width="24" height="24" viewBox="0 0 24 24" fill="none" xmlns="http://www.w3.org/2000/svg">
<g clip-path="url(#clip0_3194_3631)">
<rect width="24" height="24" fill="white"/>
<path d="M18.45 4C18.8333 4 19.1833 4.125 19.5 4.375C19.8333 4.60833 20.1 4.90833 20.3 5.275L23 10.025V18.75H20.975L20.55 17.225L19.3 16.7L17.975 17.3L17.5 18.75H6.15L5.85 17.275L4.4 16.8L3 17.475L2.7 18.75H0V15.775H13.6V4H18.45ZM22.5 10.15L19.85 5.475C19.7 5.19167 19.5 4.95833 19.25 4.775C19 4.575 18.7333 4.475 18.45 4.475H14.1V10.15H22.5ZM4.45 20.475C4.08333 20.475 3.75 20.3917 3.45 20.225C3.15 20.0417 2.90833 19.8 2.725 19.5C2.54167 19.2 2.45 18.8667 2.45 18.5C2.45 18.1333 2.54167 17.8 2.725 17.5C2.90833 17.2 3.15 16.9667 3.45 16.8C3.75 16.6167 4.08333 16.525 4.45 16.525C4.81667 16.525 5.15 16.6167 5.45 16.8C5.75 16.9667 5.99167 17.2 6.175 17.5C6.35833 17.8 6.45 18.1333 6.45 18.5C6.45 18.8667 6.35833 19.2 6.175 19.5C5.99167 19.8 5.75 20.0417 5.45 20.225C5.15 20.3917 4.81667 20.475 4.45 20.475ZM4.45 20C4.86667 20 5.21667 19.8583 5.5 19.575C5.8 19.275 5.95 18.9167 5.95 18.5C5.95 18.0833 5.8 17.7333 5.5 17.45C5.21667 17.15 4.86667 17 4.45 17C4.03333 17 3.675 17.15 3.375 17.45C3.09167 17.7333 2.95 18.0833 2.95 18.5C2.95 18.9167 3.09167 19.275 3.375 19.575C3.675 19.8583 4.03333 20 4.45 20ZM19.25 20.475C18.8833 20.475 18.55 20.3917 18.25 20.225C17.95 20.0417 17.7083 19.8 17.525 19.5C17.3417 19.2 17.25 18.8667 17.25 18.5C17.25 18.1333 17.3417 17.8 17.525 17.5C17.7083 17.2 17.95 16.9667 18.25 16.8C18.55 16.6167 18.8833 16.525 19.25 16.525C19.6167 16.525 19.95 16.6167 20.25 16.8C20.55 16.9667 20.7917 17.2 20.975 17.5C21.1583 17.8 21.25 18.1333 21.25 18.5C21.25 18.8667 21.1583 19.2 20.975 19.5C20.7917 19.8 20.55 20.0417 20.25 20.225C19.95 20.3917 19.6167 20.475 19.25 20.475ZM19.25 20C19.6667 20 20.0167 19.8583 20.3 19.575C20.6 19.275 20.75 18.9167 20.75 18.5C20.75 18.0833 20.6 17.7333 20.3 17.45C20.0167 17.15 19.6667 17 19.25 17C18.8333 17 18.475 17.15 18.175 17.45C17.8917 17.7333 17.75 18.0833 17.75 18.5C17.75 18.9167 17.8917 19.275 18.175 19.575C18.475 19.8583 18.8333 20 19.25 20Z" fill="black"/>
</g>
<defs>
<clipPath id="clip0_3194_3631">
<rect width="24" height="24" fill="white"/>
</clipPath>
</defs>
</svg>
