<svg width="24" height="24" viewBox="0 0 24 24" fill="none" xmlns="http://www.w3.org/2000/svg">
<g clip-path="url(#clip0_3196_4509)">
<rect width="24" height="24" fill="white"/>
<path d="M14.925 10.125C14.9417 10.5083 14.95 10.8667 14.95 11.2V11.35H9.05V11.2C9.05 10.8667 9.05833 10.5083 9.075 10.125C9.09167 9.725 9.13333 9.38333 9.2 9.1C9.21667 9.06667 9.23333 9.04167 9.25 9.025C9.26667 9.00833 9.28333 9 9.3 9H14.7C14.7167 9 14.7333 9.00833 14.75 9.025C14.7667 9.04167 14.7833 9.06667 14.8 9.1C14.8667 9.4 14.9083 9.74167 14.925 10.125ZM10.7 21L11.7 19.25H12.3L13.3 21H10.7ZM7.3 21H2.5V10.2C2.5 8.58333 2.88333 7.18333 3.65 6C4.43333 4.8 5.53333 3.875 6.95 3.225C8.38333 2.575 10.0667 2.25 12 2.25C13.9333 2.25 15.6083 2.575 17.025 3.225C18.4583 3.875 19.5583 4.8 20.325 6C21.1083 7.18333 21.5 8.58333 21.5 10.2V21H16.7L15.55 19.25H15.75C16.45 19.25 17.0417 19.0083 17.525 18.525C18.0083 18.0417 18.25 17.45 18.25 16.75V11.55C18.25 11.0833 18.225 10.5833 18.175 10.05C18.125 9.51667 18.0333 8.975 17.9 8.425C17.7333 7.69167 17.375 7.10833 16.825 6.675C16.275 6.225 15.5833 6 14.75 6H9.25C8.41667 6 7.725 6.225 7.175 6.675C6.625 7.10833 6.26667 7.69167 6.1 8.425C5.96667 8.975 5.875 9.51667 5.825 10.05C5.775 10.5833 5.75 11.0833 5.75 11.55V16.75C5.75 17.45 5.99167 18.0417 6.475 18.525C6.95833 19.0083 7.55 19.25 8.25 19.25H8.475L7.3 21ZM10.525 16.3C10.2417 16.5833 9.875 16.725 9.425 16.725C8.975 16.725 8.6 16.5833 8.3 16.3C8.01667 16 7.875 15.625 7.875 15.175C7.875 14.725 8.01667 14.3583 8.3 14.075C8.6 13.775 8.975 13.625 9.425 13.625C9.875 13.625 10.2417 13.775 10.525 14.075C10.825 14.3583 10.975 14.725 10.975 15.175C10.975 15.625 10.825 16 10.525 16.3ZM15.675 16.3C15.3917 16.5833 15.025 16.725 14.575 16.725C14.125 16.725 13.75 16.5833 13.45 16.3C13.1667 16 13.025 15.625 13.025 15.175C13.025 14.725 13.1667 14.3583 13.45 14.075C13.75 13.775 14.125 13.625 14.575 13.625C15.025 13.625 15.3917 13.775 15.675 14.075C15.975 14.3583 16.125 14.725 16.125 15.175C16.125 15.625 15.975 16 15.675 16.3Z" fill="black"/>
</g>
<defs>
<clipPath id="clip0_3196_4509">
<rect width="24" height="24" fill="white"/>
</clipPath>
</defs>
</svg>
