<svg width="24" height="24" viewBox="0 0 24 24" fill="none" xmlns="http://www.w3.org/2000/svg">
<g clip-path="url(#clip0_3374_5225)">
<rect width="24" height="24" fill="white"/>
<path d="M17.35 18.5H8V17L6.075 15.75L4.25 17V18.5H3C2.43333 18.5 1.95833 18.3083 1.575 17.925C1.19167 17.5417 1 17.0667 1 16.5V5H15.125C15.7583 5 16.35 5.15833 16.9 5.475C17.45 5.79167 17.8667 6.20833 18.15 6.725L20.25 10.5L21.575 11.4C22.0583 11.7167 22.4167 12.0417 22.65 12.375C22.8833 12.7083 23 13.1333 23 13.65V18.5H20.775V17L19.15 15.875L17.35 17V18.5ZM2.85 10.5H18.125L16.525 7.6C16.3917 7.36667 16.2 7.175 15.95 7.025C15.7 6.875 15.425 6.8 15.125 6.8H2.85V10.5ZM6.125 20.5C5.625 20.5 5.15833 20.3833 4.725 20.15C4.30833 19.9 3.975 19.5667 3.725 19.15C3.49167 18.7167 3.375 18.25 3.375 17.75C3.375 17.25 3.49167 16.7917 3.725 16.375C3.975 15.9417 4.30833 15.6083 4.725 15.375C5.15833 15.125 5.625 15 6.125 15C6.625 15 7.08333 15.125 7.5 15.375C7.93333 15.6083 8.26667 15.9417 8.5 16.375C8.75 16.7917 8.875 17.25 8.875 17.75C8.875 18.25 8.75 18.7167 8.5 19.15C8.26667 19.5667 7.93333 19.9 7.5 20.15C7.08333 20.3833 6.625 20.5 6.125 20.5ZM6.125 18.925C6.44167 18.925 6.70833 18.8167 6.925 18.6C7.15833 18.3667 7.275 18.0833 7.275 17.75C7.275 17.4167 7.15833 17.1417 6.925 16.925C6.70833 16.6917 6.44167 16.575 6.125 16.575C5.80833 16.575 5.53333 16.6917 5.3 16.925C5.08333 17.1417 4.975 17.4167 4.975 17.75C4.975 18.0833 5.08333 18.3667 5.3 18.6C5.53333 18.8167 5.80833 18.925 6.125 18.925ZM18.75 20.5C18.25 20.5 17.7833 20.3833 17.35 20.15C16.9333 19.9 16.6 19.5667 16.35 19.15C16.1167 18.7167 16 18.25 16 17.75C16 17.25 16.1167 16.7917 16.35 16.375C16.6 15.9417 16.9333 15.6083 17.35 15.375C17.7833 15.125 18.25 15 18.75 15C19.25 15 19.7083 15.125 20.125 15.375C20.5583 15.6083 20.8917 15.9417 21.125 16.375C21.375 16.7917 21.5 17.25 21.5 17.75C21.5 18.25 21.375 18.7167 21.125 19.15C20.8917 19.5667 20.5583 19.9 20.125 20.15C19.7083 20.3833 19.25 20.5 18.75 20.5ZM18.75 18.925C19.0667 18.925 19.3333 18.8167 19.55 18.6C19.7833 18.3667 19.9 18.0833 19.9 17.75C19.9 17.4167 19.7833 17.1417 19.55 16.925C19.3333 16.6917 19.0667 16.575 18.75 16.575C18.4333 16.575 18.1583 16.6917 17.925 16.925C17.7083 17.1417 17.6 17.4167 17.6 17.75C17.6 18.0833 17.7083 18.3667 17.925 18.6C18.1583 18.8167 18.4333 18.925 18.75 18.925Z" fill="black"/>
</g>
<defs>
<clipPath id="clip0_3374_5225">
<rect width="24" height="24" fill="white"/>
</clipPath>
</defs>
</svg>
