<svg width="24" height="24" viewBox="0 0 24 24" fill="none" xmlns="http://www.w3.org/2000/svg">
<g clip-path="url(#clip0_3194_3757)">
<rect width="24" height="24" fill="white"/>
<path d="M3.77549 15.425C3.77549 15.525 3.80882 15.6083 3.87549 15.675C3.94216 15.7417 4.02549 15.775 4.12549 15.775H4.77549V18.5H3.57549C2.82549 18.5 2.20882 18.2583 1.72549 17.775C1.24216 17.2917 1.00049 16.675 1.00049 15.925V5H15.4005C16.0172 5 16.6255 5.15833 17.2255 5.475C17.8255 5.79167 18.2755 6.21667 18.5755 6.75L20.2505 9.75L21.4005 10.5C21.9338 10.85 22.3338 11.2583 22.6005 11.725C22.8672 12.1917 23.0005 12.7417 23.0005 13.375V18.5H19.7005V15.85H20.2255V13.35C20.2255 13.2333 20.1922 13.1333 20.1255 13.05C20.0588 12.95 19.9755 12.8667 19.8755 12.8L18.0255 11.5L16.2505 8.175C16.1672 8.025 16.0505 7.91667 15.9005 7.85C15.7672 7.76667 15.6172 7.725 15.4505 7.725H3.77549V15.425ZM16.0255 18.5H8.35049V15.775H16.0255V18.5ZM6.77549 20.5C6.17549 20.5 5.62549 20.3583 5.12549 20.075C4.62549 19.775 4.22549 19.375 3.92549 18.875C3.64216 18.375 3.50049 17.825 3.50049 17.225C3.50049 16.6417 3.64216 16.1 3.92549 15.6C4.22549 15.1 4.62549 14.7083 5.12549 14.425C5.62549 14.125 6.17549 13.975 6.77549 13.975C7.35882 13.975 7.90049 14.125 8.40049 14.425C8.90049 14.7083 9.29216 15.1 9.57549 15.6C9.87549 16.1 10.0255 16.6417 10.0255 17.225C10.0255 17.825 9.87549 18.375 9.57549 18.875C9.29216 19.375 8.90049 19.775 8.40049 20.075C7.90049 20.3583 7.35882 20.5 6.77549 20.5ZM6.77549 18.25C7.05882 18.25 7.29216 18.1583 7.47549 17.975C7.67549 17.775 7.77549 17.525 7.77549 17.225C7.77549 16.9417 7.67549 16.7 7.47549 16.5C7.27549 16.3 7.04216 16.2 6.77549 16.2C6.49216 16.2 6.25049 16.3 6.05049 16.5C5.85049 16.7 5.75049 16.9417 5.75049 17.225C5.75049 17.525 5.85049 17.775 6.05049 17.975C6.25049 18.1583 6.49216 18.25 6.77549 18.25ZM17.5755 20.5C16.9755 20.5 16.4172 20.3583 15.9005 20.075C15.4005 19.7917 15.0088 19.4 14.7255 18.9C14.4422 18.3833 14.3005 17.825 14.3005 17.225C14.3005 16.6417 14.4422 16.1 14.7255 15.6C15.0088 15.0833 15.4005 14.6833 15.9005 14.4C16.4172 14.1167 16.9755 13.975 17.5755 13.975C18.1588 13.975 18.7005 14.1167 19.2005 14.4C19.7172 14.6833 20.1172 15.0833 20.4005 15.6C20.6838 16.1 20.8255 16.6417 20.8255 17.225C20.8255 17.825 20.6838 18.3833 20.4005 18.9C20.1172 19.4 19.7172 19.7917 19.2005 20.075C18.7005 20.3583 18.1588 20.5 17.5755 20.5ZM17.5755 18.25C17.8588 18.25 18.0922 18.1583 18.2755 17.975C18.4755 17.775 18.5755 17.525 18.5755 17.225C18.5755 16.9417 18.4755 16.7 18.2755 16.5C18.0755 16.3 17.8422 16.2 17.5755 16.2C17.2922 16.2 17.0505 16.3 16.8505 16.5C16.6505 16.7 16.5505 16.9417 16.5505 17.225C16.5505 17.525 16.6505 17.775 16.8505 17.975C17.0505 18.1583 17.2922 18.25 17.5755 18.25ZM19.6505 12.175H2.32549V9.6H19.6505V12.175Z" fill="black"/>
</g>
<defs>
<clipPath id="clip0_3194_3757">
<rect width="24" height="24" fill="white"/>
</clipPath>
</defs>
</svg>
