<svg width="24" height="24" viewBox="0 0 24 24" fill="none" xmlns="http://www.w3.org/2000/svg">
<g clip-path="url(#clip0_3374_5213)">
<rect width="24" height="24" fill="white"/>
<path d="M3.32549 15.575C3.32549 15.7583 3.38382 15.9083 3.50049 16.025C3.63382 16.1417 3.78382 16.2 3.95049 16.2H4.60049V18.5H3.65049C2.83382 18.5 2.18382 18.2667 1.70049 17.8C1.23382 17.3167 1.00049 16.6667 1.00049 15.85V5H15.3755C16.0088 5 16.6088 5.15833 17.1755 5.475C17.7588 5.79167 18.1922 6.20833 18.4755 6.725L20.2505 9.875L21.3755 10.65C21.9088 11 22.3088 11.4167 22.5755 11.9C22.8588 12.3833 23.0005 12.925 23.0005 13.525V18.5H19.8505V16.25H20.6755V13.525C20.6755 13.325 20.6255 13.15 20.5255 13C20.4255 12.85 20.2922 12.7167 20.1255 12.6L18.4255 11.4L16.5005 7.9C16.4005 7.7 16.2505 7.54167 16.0505 7.425C15.8505 7.30833 15.6422 7.25 15.4255 7.25H3.32549V15.575ZM16.3005 18.475H8.25049V16.225H16.3005V18.475ZM6.65049 20.5C6.10049 20.5 5.59216 20.3667 5.12549 20.1C4.65882 19.8333 4.29216 19.4667 4.02549 19C3.77549 18.5333 3.65049 18.0333 3.65049 17.5C3.65049 16.95 3.77549 16.45 4.02549 16C4.29216 15.5333 4.65882 15.1667 5.12549 14.9C5.59216 14.6333 6.10049 14.5 6.65049 14.5C7.18382 14.5 7.68382 14.6333 8.15049 14.9C8.61716 15.1667 8.98382 15.5333 9.25049 16C9.51716 16.45 9.65049 16.95 9.65049 17.5C9.65049 18.0333 9.51716 18.5333 9.25049 19C8.98382 19.4667 8.61716 19.8333 8.15049 20.1C7.68382 20.3667 7.18382 20.5 6.65049 20.5ZM6.65049 18.55C6.93382 18.55 7.17549 18.45 7.37549 18.25C7.57549 18.0333 7.67549 17.7833 7.67549 17.5C7.67549 17.2 7.57549 16.95 7.37549 16.75C7.17549 16.55 6.93382 16.45 6.65049 16.45C6.36716 16.45 6.11716 16.55 5.90049 16.75C5.70049 16.95 5.60049 17.2 5.60049 17.5C5.60049 17.8 5.70049 18.05 5.90049 18.25C6.11716 18.45 6.36716 18.55 6.65049 18.55ZM17.9255 20.5C17.3755 20.5 16.8672 20.3667 16.4005 20.1C15.9505 19.8333 15.5922 19.475 15.3255 19.025C15.0588 18.5583 14.9255 18.05 14.9255 17.5C14.9255 16.95 15.0588 16.4417 15.3255 15.975C15.5922 15.5083 15.9505 15.1417 16.4005 14.875C16.8672 14.6083 17.3755 14.475 17.9255 14.475C18.4755 14.475 18.9755 14.6083 19.4255 14.875C19.8922 15.1417 20.2588 15.5083 20.5255 15.975C20.8088 16.4417 20.9505 16.95 20.9505 17.5C20.9505 18.05 20.8172 18.5583 20.5505 19.025C20.2838 19.475 19.9172 19.8333 19.4505 20.1C18.9838 20.3667 18.4755 20.5 17.9255 20.5ZM17.9255 18.55C18.2088 18.55 18.4505 18.45 18.6505 18.25C18.8672 18.0333 18.9755 17.7833 18.9755 17.5C18.9755 17.2 18.8672 16.95 18.6505 16.75C18.4505 16.55 18.2088 16.45 17.9255 16.45C17.6422 16.45 17.4005 16.55 17.2005 16.75C17.0005 16.95 16.9005 17.2 16.9005 17.5C16.9005 17.7833 17.0005 18.0333 17.2005 18.25C17.4005 18.45 17.6422 18.55 17.9255 18.55ZM19.8005 12.1H2.00049V9.9H19.8005V12.1Z" fill="black"/>
</g>
<defs>
<clipPath id="clip0_3374_5213">
<rect width="24" height="24" fill="white"/>
</clipPath>
</defs>
</svg>
