<svg width="24" height="24" viewBox="0 0 24 24" fill="none" xmlns="http://www.w3.org/2000/svg">
<g clip-path="url(#clip0_3374_5221)">
<rect width="24" height="24" fill="white"/>
<path d="M17.225 18.675H7.525L7.175 17.125L5.55 16.425L4.325 17L3.8 18.675H3C2.43333 18.675 1.95833 18.4833 1.575 18.1C1.19167 17.7167 1 17.2417 1 16.675V5H15.125C15.7583 5 16.35 5.15833 16.9 5.475C17.45 5.775 17.8667 6.19167 18.15 6.725L20.25 10.5L21.575 11.4C22.0583 11.7167 22.4167 12.0417 22.65 12.375C22.8833 12.7083 23 13.1333 23 13.65V18.675H20.825L20.675 17.325L19.05 16.4L17.575 17.125L17.225 18.675ZM1.95 10.5H19.15L17.3 7.175C17.1 6.79167 16.8 6.49167 16.4 6.275C16 6.04167 15.575 5.925 15.125 5.925H1.95V10.5ZM5.7 20.475C5.3 20.475 4.925 20.3833 4.575 20.2C4.24167 20 3.96667 19.7333 3.75 19.4C3.55 19.05 3.45 18.6667 3.45 18.25C3.45 17.8333 3.55 17.4583 3.75 17.125C3.96667 16.775 4.24167 16.5083 4.575 16.325C4.925 16.125 5.3 16.025 5.7 16.025C6.11667 16.025 6.49167 16.125 6.825 16.325C7.175 16.5083 7.45 16.775 7.65 17.125C7.85 17.4583 7.95 17.8333 7.95 18.25C7.95 18.6667 7.85 19.05 7.65 19.4C7.45 19.7333 7.175 20 6.825 20.2C6.49167 20.3833 6.11667 20.475 5.7 20.475ZM5.7 19.65C6.08333 19.65 6.40833 19.5167 6.675 19.25C6.95833 18.9667 7.1 18.6333 7.1 18.25C7.1 17.8667 6.95833 17.5417 6.675 17.275C6.40833 16.9917 6.08333 16.85 5.7 16.85C5.31667 16.85 4.99167 16.9917 4.725 17.275C4.45833 17.5417 4.325 17.8667 4.325 18.25C4.325 18.6333 4.45833 18.9667 4.725 19.25C4.99167 19.5167 5.31667 19.65 5.7 19.65ZM18.925 20.475C18.5083 20.475 18.125 20.3833 17.775 20.2C17.4417 20 17.175 19.7333 16.975 19.4C16.775 19.05 16.675 18.6667 16.675 18.25C16.675 17.8333 16.775 17.4583 16.975 17.125C17.175 16.775 17.4417 16.5083 17.775 16.325C18.125 16.125 18.5083 16.025 18.925 16.025C19.325 16.025 19.6917 16.125 20.025 16.325C20.375 16.5083 20.65 16.775 20.85 17.125C21.0667 17.4583 21.175 17.8333 21.175 18.25C21.175 18.6667 21.0667 19.05 20.85 19.4C20.65 19.7333 20.375 20 20.025 20.2C19.6917 20.3833 19.325 20.475 18.925 20.475ZM18.925 19.65C19.3083 19.65 19.6333 19.5167 19.9 19.25C20.1667 18.9667 20.3 18.6333 20.3 18.25C20.3 17.8667 20.1667 17.5417 19.9 17.275C19.6333 16.9917 19.3083 16.85 18.925 16.85C18.5417 16.85 18.2083 16.9917 17.925 17.275C17.6583 17.5417 17.525 17.8667 17.525 18.25C17.525 18.6333 17.6583 18.9667 17.925 19.25C18.2083 19.5167 18.5417 19.65 18.925 19.65Z" fill="black"/>
</g>
<defs>
<clipPath id="clip0_3374_5221">
<rect width="24" height="24" fill="white"/>
</clipPath>
</defs>
</svg>
