<svg width="24" height="24" viewBox="0 0 24 24" fill="none" xmlns="http://www.w3.org/2000/svg">
<g clip-path="url(#clip0_3216_4104)">
<rect width="24" height="24" fill="white"/>
<path d="M18.775 20.4C18.0917 20.8 17.3333 21 16.5 21H13.5V17.55H16.5C16.7833 17.55 17.0167 17.45 17.2 17.25C17.4 17.05 17.5 16.8 17.5 16.5V13.5H21V16.5C21 17.3333 20.8 18.0917 20.4 18.775C20 19.4583 19.4583 20 18.775 20.4ZM17.2 6.75C17.0167 6.55 16.7833 6.45 16.5 6.45H13.5V3H16.5C17.3333 3 18.0917 3.2 18.775 3.6C19.4583 4 20 4.54167 20.4 5.225C20.8 5.90833 21 6.66667 21 7.5V10.5H17.5V7.5C17.5 7.2 17.4 6.95 17.2 6.75ZM6.775 17.25C6.975 17.45 7.21667 17.55 7.5 17.55H10.5V21H7.5C6.66667 21 5.90833 20.8 5.225 20.4C4.54167 20 4 19.4583 3.6 18.775C3.2 18.0917 3 17.3333 3 16.5V13.5H6.5V16.5C6.5 16.8 6.59167 17.05 6.775 17.25ZM5.225 3.6C5.90833 3.2 6.66667 3 7.5 3H10.5V6.45H7.5C7.21667 6.45 6.975 6.55 6.775 6.75C6.59167 6.95 6.5 7.2 6.5 7.5V10.5H3V7.5C3 6.66667 3.2 5.90833 3.6 5.225C4 4.54167 4.54167 4 5.225 3.6ZM12 8.2L8.75 10.175V13.825L12 15.8L15.275 13.825V10.175L12 8.2Z" fill="black"/>
</g>
<defs>
<clipPath id="clip0_3216_4104">
<rect width="24" height="24" fill="white"/>
</clipPath>
</defs>
</svg>
