<svg width="24" height="24" viewBox="0 0 24 24" fill="none" xmlns="http://www.w3.org/2000/svg">
<g clip-path="url(#clip0_3218_6210)">
<rect width="24" height="24" fill="white"/>
<path d="M3.00049 14.35C3.53382 13.5667 3.87549 12.7083 4.02549 11.775C4.17549 10.8417 4.25049 9.75 4.25049 8.5C4.25049 7.15 4.57549 5.94167 5.22549 4.875C5.89216 3.80833 6.80882 2.98333 7.97549 2.4C9.15882 1.8 10.5005 1.5 12.0005 1.5C13.5005 1.5 14.8338 1.8 16.0005 2.4C17.1838 2.98333 18.1005 3.80833 18.7505 4.875C19.4172 5.94167 19.7505 7.15 19.7505 8.5C19.7505 9.75 19.8255 10.8417 19.9755 11.775C20.1255 12.7083 20.4672 13.5667 21.0005 14.35V19.5H3.00049V14.35ZM12.0255 22.25C11.5422 22.25 11.0922 22.1417 10.6755 21.925C10.2588 21.7083 9.93382 21.4083 9.70049 21.025C9.46716 20.6417 9.35049 20.225 9.35049 19.775V18.9H10.4255H10.8005C11.0838 18.9 11.2922 18.9 11.4255 18.9C11.5588 18.9 11.7588 18.9 12.0255 18.9C12.3088 18.9 12.5172 18.9 12.6505 18.9C12.7838 18.9 12.9838 18.9 13.2505 18.9H13.6255H14.7005V19.775C14.7005 20.225 14.5838 20.6417 14.3505 21.025C14.1172 21.4083 13.7922 21.7083 13.3755 21.925C12.9588 22.1417 12.5088 22.25 12.0255 22.25ZM17.5005 16.05V15.275C17.0172 14.3917 16.6838 13.4333 16.5005 12.4C16.3338 11.35 16.2505 10.05 16.2505 8.5C16.2505 7.81667 16.0672 7.20833 15.7005 6.675C15.3505 6.125 14.8505 5.7 14.2005 5.4C13.5505 5.1 12.8172 4.95 12.0005 4.95C11.1838 4.95 10.4505 5.1 9.80049 5.4C9.15049 5.7 8.64216 6.125 8.27549 6.675C7.92549 7.20833 7.75049 7.81667 7.75049 8.5C7.75049 10.05 7.65882 11.35 7.47549 12.4C7.30882 13.4333 6.98382 14.3917 6.50049 15.275V16.05H17.5005ZM8.25049 9.275H10.1755V7.275H13.8255V9.275H15.7505V12.725H13.8255V14.725H10.1755V12.725H8.25049V9.275Z" fill="black"/>
</g>
<defs>
<clipPath id="clip0_3218_6210">
<rect width="24" height="24" fill="white"/>
</clipPath>
</defs>
</svg>
