<svg width="24" height="24" viewBox="0 0 24 24" fill="none" xmlns="http://www.w3.org/2000/svg">
<g clip-path="url(#clip0_3373_4367)">
<rect width="24" height="24" fill="white"/>
<path d="M12.0005 22C10.1672 22 8.48382 21.5583 6.95049 20.675C5.41716 19.7917 4.20882 18.5833 3.32549 17.05C2.44216 15.5167 2.00049 13.8333 2.00049 12C2.00049 10.1667 2.44216 8.48333 3.32549 6.95C4.20882 5.41667 5.41716 4.20833 6.95049 3.325C8.48382 2.44167 10.1672 2 12.0005 2C13.8338 2 15.5172 2.44167 17.0505 3.325C18.5838 4.20833 19.7922 5.41667 20.6755 6.95C21.5588 8.48333 22.0005 10.1667 22.0005 12C22.0005 13.8333 21.5588 15.5167 20.6755 17.05C19.7922 18.5833 18.5838 19.7917 17.0505 20.675C15.5172 21.5583 13.8338 22 12.0005 22ZM12.0005 19.575C13.4005 19.575 14.6672 19.2417 15.8005 18.575C16.9505 17.9083 17.8588 17 18.5255 15.85C19.1922 14.6833 19.5255 13.4 19.5255 12C19.5255 10.6 19.1922 9.325 18.5255 8.175C17.8588 7.00833 16.9505 6.09167 15.8005 5.425C14.6672 4.75833 13.4005 4.425 12.0005 4.425C10.6005 4.425 9.32549 4.75833 8.17549 5.425C7.04216 6.09167 6.14216 7.00833 5.47549 8.175C4.80882 9.325 4.47549 10.6 4.47549 12C4.47549 13.4 4.80882 14.6833 5.47549 15.85C6.14216 17 7.04216 17.9083 8.17549 18.575C9.32549 19.2417 10.6005 19.575 12.0005 19.575ZM14.0005 12.025C13.6172 11.725 13.2588 11.4167 12.9255 11.1C12.6088 10.7667 12.3005 10.4167 12.0005 10.05C11.7005 10.4167 11.3838 10.7667 11.0505 11.1C10.7338 11.4167 10.3838 11.725 10.0005 12.025C10.3838 12.3083 10.7338 12.6167 11.0505 12.95C11.3838 13.2667 11.7005 13.6083 12.0005 13.975C12.3005 13.6083 12.6088 13.2667 12.9255 12.95C13.2588 12.6167 13.6172 12.3083 14.0005 12.025ZM17.6255 12C14.9922 13.1167 13.1172 14.9917 12.0005 17.625C10.8838 14.9917 9.00882 13.1167 6.37549 12C9.00882 10.8833 10.8838 9.00833 12.0005 6.375C13.1172 9.00833 14.9922 10.8833 17.6255 12Z" fill="black"/>
</g>
<defs>
<clipPath id="clip0_3373_4367">
<rect width="24" height="24" fill="white"/>
</clipPath>
</defs>
</svg>
