<svg width="24" height="24" viewBox="0 0 24 24" fill="none" xmlns="http://www.w3.org/2000/svg">
<g clip-path="url(#clip0_3219_8455)">
<rect width="24" height="24" fill="white"/>
<path d="M6.50049 21C5.86716 21 5.27549 20.85 4.72549 20.55C4.19216 20.2333 3.76716 19.8083 3.45049 19.275C3.15049 18.725 3.00049 18.1333 3.00049 17.5V6.5C3.00049 5.85 3.15049 5.25833 3.45049 4.725C3.76716 4.19167 4.19216 3.775 4.72549 3.475C5.27549 3.15833 5.86716 3 6.50049 3H17.5005C18.1505 3 18.7422 3.15833 19.2755 3.475C19.8088 3.775 20.2255 4.19167 20.5255 4.725C20.8422 5.25833 21.0005 5.85 21.0005 6.5V17.5C21.0005 18.1333 20.8422 18.725 20.5255 19.275C20.2255 19.8083 19.8088 20.2333 19.2755 20.55C18.7422 20.85 18.1505 21 17.5005 21H6.50049ZM17.5005 20.525C18.3338 20.525 19.0422 20.2333 19.6255 19.65C20.2088 19.0667 20.5005 18.35 20.5005 17.5V6.5C20.5005 5.65 20.2088 4.93333 19.6255 4.35C19.0422 3.76667 18.3338 3.475 17.5005 3.475H6.50049C5.66716 3.475 4.95882 3.76667 4.37549 4.35C3.79216 4.93333 3.50049 5.65 3.50049 6.5V17.5C3.50049 18.35 3.79216 19.0667 4.37549 19.65C4.95882 20.2333 5.66716 20.525 6.50049 20.525H17.5005ZM16.5255 12C14.5422 10.9667 13.0338 9.46667 12.0005 7.5C10.9672 9.46667 9.45882 10.9667 7.47549 12C9.45882 13.0333 10.9672 14.5333 12.0005 16.5C13.0338 14.5333 14.5422 13.0333 16.5255 12ZM17.6255 12C14.9922 13.1167 13.1172 14.9917 12.0005 17.625C10.8838 14.9917 9.00882 13.1167 6.37549 12C9.00882 10.8833 10.8838 9.00833 12.0005 6.375C13.1172 9.00833 14.9922 10.8833 17.6255 12Z" fill="black"/>
</g>
<defs>
<clipPath id="clip0_3219_8455">
<rect width="24" height="24" fill="white"/>
</clipPath>
</defs>
</svg>
