<svg width="24" height="24" viewBox="0 0 24 24" fill="none" xmlns="http://www.w3.org/2000/svg">
<g clip-path="url(#clip0_3396_13495)">
<rect width="24" height="24" fill="white"/>
<path d="M6.82549 21C6.12549 21 5.47549 20.8333 4.87549 20.5C4.29216 20.1667 3.83382 19.7083 3.50049 19.125C3.16716 18.525 3.00049 17.875 3.00049 17.175V6.825C3.00049 6.125 3.16716 5.48333 3.50049 4.9C3.83382 4.3 4.29216 3.83333 4.87549 3.5C5.47549 3.16667 6.12549 3 6.82549 3H17.1755C17.8755 3 18.5172 3.16667 19.1005 3.5C19.7005 3.83333 20.1672 4.3 20.5005 4.9C20.8338 5.48333 21.0005 6.125 21.0005 6.825V17.175C21.0005 17.875 20.8338 18.525 20.5005 19.125C20.1672 19.7083 19.7005 20.1667 19.1005 20.5C18.5172 20.8333 17.8755 21 17.1755 21H6.82549ZM17.1755 19.6C17.8422 19.6 18.4088 19.3667 18.8755 18.9C19.3422 18.4333 19.5755 17.8583 19.5755 17.175V6.825C19.5755 6.14167 19.3422 5.56667 18.8755 5.1C18.4088 4.63333 17.8422 4.4 17.1755 4.4H6.82549C6.15882 4.4 5.59216 4.63333 5.12549 5.1C4.65882 5.56667 4.42549 6.14167 4.42549 6.825V17.175C4.42549 17.8583 4.65882 18.4333 5.12549 18.9C5.59216 19.3667 6.15882 19.6 6.82549 19.6H17.1755ZM15.1505 12.025C14.5005 11.6417 13.9172 11.2 13.4005 10.7C12.9005 10.1833 12.4338 9.59167 12.0005 8.925C11.5672 9.59167 11.0922 10.1833 10.5755 10.7C10.0755 11.2 9.50049 11.6417 8.85049 12.025C9.50049 12.425 10.0755 12.8833 10.5755 13.4C11.0922 13.9 11.5672 14.4833 12.0005 15.15C12.4338 14.4833 12.9005 13.9 13.4005 13.4C13.9172 12.8833 14.5005 12.425 15.1505 12.025ZM17.6255 12C14.9922 13.1167 13.1172 14.9917 12.0005 17.625C10.8838 14.9917 9.00882 13.1167 6.37549 12C9.00882 10.8833 10.8838 9.00833 12.0005 6.375C13.1172 9.00833 14.9922 10.8833 17.6255 12Z" fill="black"/>
</g>
<defs>
<clipPath id="clip0_3396_13495">
<rect width="24" height="24" fill="white"/>
</clipPath>
</defs>
</svg>
