<svg width="24" height="24" viewBox="0 0 24 24" fill="none" xmlns="http://www.w3.org/2000/svg">
<g clip-path="url(#clip0_3216_3036)">
<rect width="24" height="24" fill="white"/>
<path d="M21 21H3V3H14V5.775H5.825V18.225H18.175V10H21V21ZM22.525 5.225C20.775 5.975 19.525 7.225 18.775 8.975C18.025 7.225 16.775 5.975 15.025 5.225C16.775 4.475 18.025 3.225 18.775 1.475C19.525 3.225 20.775 4.475 22.525 5.225ZM9.55 11.8C8.91667 11.8 8.38333 11.5833 7.95 11.15C7.51667 10.7 7.3 10.1583 7.3 9.525C7.3 8.90833 7.51667 8.38333 7.95 7.95C8.4 7.51667 8.93333 7.3 9.55 7.3C10.1667 7.3 10.6917 7.51667 11.125 7.95C11.575 8.38333 11.8 8.90833 11.8 9.525C11.8 10.1583 11.5833 10.7 11.15 11.15C10.7167 11.5833 10.1833 11.8 9.55 11.8ZM3.3 18.075L12.2 12.65C12.9167 12.2167 13.65 12 14.4 12C15.15 12 15.8833 12.2167 16.6 12.65L20.7 15.125V15.7L20.725 20.8H3.3V18.625V18.075Z" fill="black"/>
</g>
<defs>
<clipPath id="clip0_3216_3036">
<rect width="24" height="24" fill="white"/>
</clipPath>
</defs>
</svg>
