<svg width="24" height="24" viewBox="0 0 24 24" fill="none" xmlns="http://www.w3.org/2000/svg">
<g clip-path="url(#clip0_3216_3018)">
<rect width="24" height="24" fill="white"/>
<path d="M9.17549 11.825C8.40882 11.825 7.75882 11.5667 7.22549 11.05C6.69215 10.5167 6.42549 9.86667 6.42549 9.1C6.42549 8.33333 6.69215 7.69167 7.22549 7.175C7.75882 6.64167 8.40882 6.375 9.17549 6.375C9.94216 6.375 10.5922 6.64167 11.1255 7.175C11.6588 7.69167 11.9255 8.33333 11.9255 9.1C11.9255 9.86667 11.6588 10.5167 11.1255 11.05C10.5922 11.5667 9.94216 11.825 9.17549 11.825ZM9.17549 10.225C9.49216 10.225 9.75882 10.1167 9.97549 9.9C10.1922 9.68333 10.3005 9.41667 10.3005 9.1C10.3005 8.78333 10.1922 8.51667 9.97549 8.3C9.75882 8.08333 9.49216 7.975 9.17549 7.975C8.85882 7.975 8.59216 8.08333 8.37549 8.3C8.15882 8.51667 8.05049 8.78333 8.05049 9.1C8.05049 9.41667 8.15882 9.68333 8.37549 9.9C8.59216 10.1167 8.85882 10.225 9.17549 10.225ZM21.0005 21H3.00049V3H12.5005V4.8H4.85049V19.2H19.1505V11.5H21.0005V21ZM19.6505 5.725C19.4005 5.525 19.1588 5.31667 18.9255 5.1C18.7088 4.86667 18.4922 4.63333 18.2755 4.4C18.0588 4.63333 17.8338 4.86667 17.6005 5.1C17.3838 5.31667 17.1505 5.525 16.9005 5.725C17.1505 5.925 17.3838 6.14167 17.6005 6.375C17.8338 6.59167 18.0588 6.81667 18.2755 7.05C18.4922 6.81667 18.7088 6.59167 18.9255 6.375C19.1588 6.14167 19.4005 5.925 19.6505 5.725ZM22.4005 5.725C20.5672 6.64167 19.1922 8.01667 18.2755 9.85C17.3588 8.01667 15.9838 6.64167 14.1505 5.725C15.9838 4.80833 17.3588 3.43333 18.2755 1.6C19.1922 3.43333 20.5672 4.80833 22.4005 5.725ZM4.50049 16.275L12.6005 12.45C13.2005 12.1667 13.8255 12.025 14.4755 12.025C15.1255 12.025 15.7588 12.1667 16.3755 12.45L19.8005 14.075V16.05L15.6755 14.1C15.2922 13.9167 14.8922 13.825 14.4755 13.825C14.0755 13.825 13.6838 13.9167 13.3005 14.1L4.50049 18.25V16.275Z" fill="black"/>
</g>
<defs>
<clipPath id="clip0_3216_3018">
<rect width="24" height="24" fill="white"/>
</clipPath>
</defs>
</svg>
