<svg width="24" height="24" viewBox="0 0 24 24" fill="none" xmlns="http://www.w3.org/2000/svg">
<g clip-path="url(#clip0_3373_4345)">
<rect width="24" height="24" fill="white"/>
<path d="M21 21H3V3H13V4.8H4.85V19.2H19.15V11H21V21ZM22.4 5.35C20.65 6.1 19.4 7.35 18.65 9.1C17.9 7.35 16.65 6.1 14.9 5.35C16.65 4.6 17.9 3.35 18.65 1.6C19.4 3.35 20.65 4.6 22.4 5.35ZM9.125 11.375C8.49167 11.375 7.95833 11.1583 7.525 10.725C7.09167 10.275 6.875 9.73333 6.875 9.1C6.875 8.48333 7.09167 7.95833 7.525 7.525C7.975 7.09167 8.50833 6.875 9.125 6.875C9.74167 6.875 10.2667 7.09167 10.7 7.525C11.15 7.95833 11.375 8.48333 11.375 9.1C11.375 9.73333 11.1583 10.275 10.725 10.725C10.2917 11.1583 9.75833 11.375 9.125 11.375ZM3.3 18.075L12.2 12.65C12.9167 12.2167 13.65 12 14.4 12C15.15 12 15.8833 12.2167 16.6 12.65L20.7 15.125V15.7L20.725 20.8H3.3V18.625V18.075Z" fill="black"/>
</g>
<defs>
<clipPath id="clip0_3373_4345">
<rect width="24" height="24" fill="white"/>
</clipPath>
</defs>
</svg>
