<svg width="24" height="24" viewBox="0 0 24 24" fill="none" xmlns="http://www.w3.org/2000/svg">
<g clip-path="url(#clip0_3216_1570)">
<rect width="24" height="24" fill="white"/>
<path d="M8.62549 10.85C7.99216 10.85 7.45882 10.6333 7.02549 10.2C6.59216 9.76667 6.37549 9.23333 6.37549 8.6C6.37549 7.98333 6.59216 7.46667 7.02549 7.05C7.45882 6.61667 7.99216 6.4 8.62549 6.4C9.25882 6.4 9.79216 6.61667 10.2255 7.05C10.6588 7.46667 10.8755 7.98333 10.8755 8.6C10.8755 9.23333 10.6588 9.76667 10.2255 10.2C9.79216 10.6333 9.25882 10.85 8.62549 10.85ZM8.62549 10.375C9.10882 10.375 9.51716 10.2 9.85049 9.85C10.2005 9.5 10.3755 9.08333 10.3755 8.6C10.3755 8.11667 10.2005 7.70833 9.85049 7.375C9.51716 7.04167 9.10882 6.875 8.62549 6.875C8.14216 6.875 7.72549 7.04167 7.37549 7.375C7.04216 7.70833 6.87549 8.11667 6.87549 8.6C6.87549 9.08333 7.04216 9.5 7.37549 9.85C7.72549 10.2 8.14216 10.375 8.62549 10.375ZM21.0005 21H3.00049V3H12.7505V3.475H3.50049V20.525H20.5005V11.25H21.0005V21ZM21.4755 5.6C20.1255 4.91667 19.1005 3.88333 18.4005 2.5C17.7005 3.88333 16.6755 4.91667 15.3255 5.6C16.6755 6.28333 17.7005 7.31667 18.4005 8.7C19.1005 7.31667 20.1255 6.28333 21.4755 5.6ZM22.5255 5.6C20.5922 6.41667 19.2172 7.79167 18.4005 9.725C17.5838 7.79167 16.2088 6.41667 14.2755 5.6C16.2088 4.78333 17.5838 3.40833 18.4005 1.475C19.2172 3.40833 20.5922 4.78333 22.5255 5.6ZM3.30049 18.075L12.2005 12.65C12.9172 12.2167 13.6505 12 14.4005 12C15.1505 12 15.8838 12.2167 16.6005 12.65L20.7005 15.125V15.7L16.3755 13.075C15.7088 12.675 15.0422 12.475 14.3755 12.475C13.7255 12.475 13.0755 12.675 12.4255 13.075L3.30049 18.625V18.075Z" fill="black"/>
</g>
<defs>
<clipPath id="clip0_3216_1570">
<rect width="24" height="24" fill="white"/>
</clipPath>
</defs>
</svg>
