<svg width="24" height="24" viewBox="0 0 24 24" fill="none" xmlns="http://www.w3.org/2000/svg">
<g clip-path="url(#clip0_3216_3030)">
<rect width="24" height="24" fill="white"/>
<path d="M21 21H3V3H12.925V4.35H4.4V19.65H19.6V11.075H21V21ZM22.45 5.3C20.7 6.05 19.45 7.3 18.7 9.05C17.95 7.3 16.7 6.05 14.95 5.3C16.7 4.55 17.95 3.3 18.7 1.55C19.45 3.3 20.7 4.55 22.45 5.3ZM8.95 11.2C8.31667 11.2 7.78333 10.9833 7.35 10.55C6.91667 10.1 6.7 9.55833 6.7 8.925C6.7 8.30833 6.91667 7.78333 7.35 7.35C7.8 6.91667 8.33333 6.7 8.95 6.7C9.56667 6.7 10.0917 6.91667 10.525 7.35C10.975 7.78333 11.2 8.30833 11.2 8.925C11.2 9.55833 10.9833 10.1 10.55 10.55C10.1167 10.9833 9.58333 11.2 8.95 11.2ZM3.3 18.075L12.2 12.65C12.9167 12.2167 13.65 12 14.4 12C15.15 12 15.8833 12.2167 16.6 12.65L20.7 15.125V15.7L20.725 20.8H3.3V18.625V18.075Z" fill="black"/>
</g>
<defs>
<clipPath id="clip0_3216_3030">
<rect width="24" height="24" fill="white"/>
</clipPath>
</defs>
</svg>
