<svg width="24" height="24" viewBox="0 0 24 24" fill="none" xmlns="http://www.w3.org/2000/svg">
<g clip-path="url(#clip0_3216_2292)">
<rect width="24" height="24" fill="white"/>
<path d="M18.9255 20.45C18.2922 20.8167 17.5922 21 16.8255 21H13.8255V18.625H16.8255C17.3255 18.625 17.7422 18.4583 18.0755 18.125C18.4088 17.775 18.5755 17.3417 18.5755 16.825V13.825H21.0005V16.825C21.0005 17.5917 20.8172 18.3 20.4505 18.95C20.0838 19.5833 19.5755 20.0833 18.9255 20.45ZM18.0755 5.9C17.7422 5.55 17.3255 5.375 16.8255 5.375H13.8255V3H16.8255C17.5922 3 18.2922 3.18333 18.9255 3.55C19.5755 3.91667 20.0838 4.425 20.4505 5.075C20.8172 5.70833 21.0005 6.40833 21.0005 7.175V10.175H18.5755V7.175C18.5755 6.65833 18.4088 6.23333 18.0755 5.9ZM5.92549 18.125C6.25882 18.4583 6.67549 18.625 7.17549 18.625H10.1755V21H7.17549C6.40882 21 5.70049 20.8167 5.05049 20.45C4.41716 20.0833 3.91716 19.5833 3.55049 18.95C3.18382 18.3 3.00049 17.5917 3.00049 16.825V13.825H5.42549V16.825C5.42549 17.3417 5.59216 17.775 5.92549 18.125ZM5.05049 3.55C5.70049 3.18333 6.40882 3 7.17549 3H10.1755V5.375H7.17549C6.67549 5.375 6.25882 5.55 5.92549 5.9C5.59216 6.23333 5.42549 6.65833 5.42549 7.175V10.175H3.00049V7.175C3.00049 6.40833 3.18382 5.70833 3.55049 5.075C3.91716 4.425 4.41716 3.91667 5.05049 3.55ZM12.9255 11.1C13.2588 11.4167 13.6172 11.725 14.0005 12.025C13.6172 12.3083 13.2588 12.6167 12.9255 12.95C12.6088 13.2667 12.3005 13.6083 12.0005 13.975C11.7005 13.6083 11.3838 13.2667 11.0505 12.95C10.7338 12.6167 10.3838 12.3083 10.0005 12.025C10.3838 11.725 10.7338 11.4167 11.0505 11.1C11.3838 10.7667 11.7005 10.4167 12.0005 10.05C12.3005 10.4167 12.6088 10.7667 12.9255 11.1ZM12.0005 17.625C13.1172 14.9917 14.9922 13.1167 17.6255 12C14.9922 10.8833 13.1172 9.00833 12.0005 6.375C10.8838 9.00833 9.00882 10.8833 6.37549 12C9.00882 13.1167 10.8838 14.9917 12.0005 17.625Z" fill="black"/>
</g>
<defs>
<clipPath id="clip0_3216_2292">
<rect width="24" height="24" fill="white"/>
</clipPath>
</defs>
</svg>
