<svg width="24" height="24" viewBox="0 0 24 24" fill="none" xmlns="http://www.w3.org/2000/svg">
<g clip-path="url(#clip0_3218_6570)">
<rect width="24" height="24" fill="white"/>
<path d="M10.6755 19.325C9.07549 19.325 7.60882 18.9417 6.27549 18.175C4.95882 17.4083 3.91716 16.3667 3.15049 15.05C2.38382 13.7167 2.00049 12.2583 2.00049 10.675C2.00049 9.075 2.38382 7.61667 3.15049 6.3C3.91716 4.96667 4.95882 3.91667 6.27549 3.15C7.60882 2.38333 9.07549 2 10.6755 2C12.2755 2 13.7338 2.38333 15.0505 3.15C16.3838 3.91667 17.4255 4.96667 18.1755 6.3C18.9422 7.61667 19.3255 9.075 19.3255 10.675C19.3255 12.2583 18.9422 13.7167 18.1755 15.05C17.4255 16.3667 16.3838 17.4083 15.0505 18.175C13.7338 18.9417 12.2755 19.325 10.6755 19.325ZM10.6755 17.025C11.8255 17.025 12.8755 16.7417 13.8255 16.175C14.7922 15.6083 15.5588 14.8417 16.1255 13.875C16.6922 12.9083 16.9755 11.8417 16.9755 10.675C16.9755 9.50833 16.6922 8.44167 16.1255 7.475C15.5755 6.49167 14.8172 5.71667 13.8505 5.15C12.8838 4.58333 11.8255 4.3 10.6755 4.3C9.52549 4.3 8.46716 4.58333 7.50049 5.15C6.53382 5.71667 5.76716 6.49167 5.20049 7.475C4.63382 8.44167 4.35049 9.50833 4.35049 10.675C4.35049 11.825 4.63382 12.8917 5.20049 13.875C5.76716 14.8417 6.53382 15.6083 7.50049 16.175C8.46716 16.7417 9.52549 17.025 10.6755 17.025ZM14.5005 16.15L16.1505 14.5L21.6505 19.95L19.9505 21.65L14.5005 16.15ZM12.3505 10.675C12.0338 10.425 11.7422 10.1667 11.4755 9.9C11.2088 9.63333 10.9422 9.34167 10.6755 9.025C10.4088 9.34167 10.1422 9.63333 9.87549 9.9C9.60882 10.1667 9.31716 10.425 9.00049 10.675C9.31716 10.925 9.60882 11.1833 9.87549 11.45C10.1422 11.7167 10.4088 12.0083 10.6755 12.325C10.9422 12.0083 11.2088 11.7167 11.4755 11.45C11.7422 11.1833 12.0338 10.925 12.3505 10.675ZM15.6755 10.675C13.3422 11.675 11.6755 13.3417 10.6755 15.675C9.67549 13.3417 8.00882 11.675 5.67549 10.675C8.00882 9.675 9.67549 8.00833 10.6755 5.675C11.6755 8.00833 13.3422 9.675 15.6755 10.675Z" fill="black"/>
</g>
<defs>
<clipPath id="clip0_3218_6570">
<rect width="24" height="24" fill="white"/>
</clipPath>
</defs>
</svg>
