<svg width="24" height="24" viewBox="0 0 24 24" fill="none" xmlns="http://www.w3.org/2000/svg">
<g clip-path="url(#clip0_3219_10602)">
<rect width="24" height="24" fill="white"/>
<path d="M12.0005 22.25C10.3505 22.25 8.83382 21.85 7.45049 21.05C6.08382 20.25 5.00049 19.1667 4.20049 17.8C3.40049 16.4167 3.00049 14.9 3.00049 13.25C3.00049 11.6 3.40049 10.0917 4.20049 8.725C5.00049 7.34167 6.08382 6.25 7.45049 5.45C8.83382 4.65 10.3505 4.25 12.0005 4.25C13.6505 4.25 15.1588 4.65 16.5255 5.45C17.9088 6.25 19.0005 7.34167 19.8005 8.725C20.6005 10.0917 21.0005 11.6 21.0005 13.25C21.0005 14.9 20.6005 16.4167 19.8005 17.8C19.0005 19.1667 17.9088 20.25 16.5255 21.05C15.1588 21.85 13.6505 22.25 12.0005 22.25ZM12.0005 20.45C13.3172 20.45 14.5172 20.1333 15.6005 19.5C16.7005 18.85 17.5672 17.975 18.2005 16.875C18.8338 15.775 19.1505 14.5667 19.1505 13.25C19.1505 11.9333 18.8338 10.725 18.2005 9.625C17.5672 8.525 16.7005 7.65833 15.6005 7.025C14.5172 6.375 13.3172 6.05 12.0005 6.05C10.6838 6.05 9.47549 6.375 8.37549 7.025C7.29216 7.65833 6.43382 8.525 5.80049 9.625C5.16716 10.725 4.85049 11.9333 4.85049 13.25C4.85049 14.5667 5.16716 15.775 5.80049 16.875C6.43382 17.975 7.29216 18.85 8.37549 19.5C9.47549 20.1333 10.6838 20.45 12.0005 20.45ZM5.62549 1.575L6.90049 2.85L1.60049 8.15L0.325488 6.875L5.62549 1.575ZM23.6755 6.875L22.4005 8.15L17.1005 2.85L18.3755 1.575L23.6755 6.875ZM8.70049 15.55L13.0755 10.95H8.75049V9.375H15.2505V10.95L10.8755 15.55H15.3005V17.125H8.70049V15.55Z" fill="black"/>
</g>
<defs>
<clipPath id="clip0_3219_10602">
<rect width="24" height="24" fill="white"/>
</clipPath>
</defs>
</svg>
