<svg width="24" height="24" viewBox="0 0 24 24" fill="none" xmlns="http://www.w3.org/2000/svg">
<g clip-path="url(#clip0_3219_10344)">
<rect width="24" height="24" fill="white"/>
<path d="M12.0005 22.25C10.3672 22.25 8.87549 21.8583 7.52549 21.075C6.17549 20.2917 5.10049 19.225 4.30049 17.875C3.51715 16.5083 3.12549 15.0083 3.12549 13.375C3.12549 11.7583 3.51715 10.275 4.30049 8.925C5.10049 7.55833 6.17549 6.48333 7.52549 5.7C8.87549 4.91667 10.3672 4.525 12.0005 4.525C13.6338 4.525 15.1255 4.91667 16.4755 5.7C17.8255 6.48333 18.8922 7.55833 19.6755 8.925C20.4755 10.275 20.8755 11.7583 20.8755 13.375C20.8755 15.0083 20.4755 16.5083 19.6755 17.875C18.8922 19.225 17.8255 20.2917 16.4755 21.075C15.1255 21.8583 13.6338 22.25 12.0005 22.25ZM12.0005 19.975C13.2005 19.975 14.3005 19.6833 15.3005 19.1C16.3005 18.5167 17.0922 17.725 17.6755 16.725C18.2588 15.7083 18.5505 14.5917 18.5505 13.375C18.5505 12.175 18.2588 11.075 17.6755 10.075C17.0922 9.05833 16.3005 8.25833 15.3005 7.675C14.3005 7.09167 13.2005 6.8 12.0005 6.8C10.8005 6.8 9.70049 7.09167 8.70049 7.675C7.70049 8.25833 6.90882 9.05833 6.32549 10.075C5.74216 11.075 5.45049 12.175 5.45049 13.375C5.45049 14.5917 5.74216 15.7083 6.32549 16.725C6.90882 17.725 7.70049 18.5167 8.70049 19.1C9.70049 19.6833 10.8005 19.975 12.0005 19.975ZM5.62549 1.575L7.22549 3.175L1.92549 8.475L0.325488 6.875L5.62549 1.575ZM23.6755 6.875L22.0755 8.475L16.7755 3.175L18.3755 1.575L23.6755 6.875ZM7.65049 13.175L9.35049 11.475L11.2505 13.475L14.6755 10L16.3755 11.675L11.2755 16.775L7.65049 13.175Z" fill="black"/>
</g>
<defs>
<clipPath id="clip0_3219_10344">
<rect width="24" height="24" fill="white"/>
</clipPath>
</defs>
</svg>
