<svg width="24" height="24" viewBox="0 0 24 24" fill="none" xmlns="http://www.w3.org/2000/svg">
<g clip-path="url(#clip0_3219_9750)">
<rect width="24" height="24" fill="white"/>
<path d="M12.0005 22.25C10.4172 22.25 8.97549 21.8667 7.67549 21.1C6.37549 20.35 5.34216 19.325 4.57549 18.025C3.82549 16.725 3.45049 15.2917 3.45049 13.725C3.45049 12.1417 3.82549 10.7 4.57549 9.4C5.34216 8.08333 6.37549 7.05 7.67549 6.3C8.99216 5.53333 10.4338 5.15 12.0005 5.15C13.5672 5.15 15.0088 5.53333 16.3255 6.3C17.6422 7.05 18.6755 8.08333 19.4255 9.4C20.1755 10.7 20.5505 12.1333 20.5505 13.7C20.5505 15.2833 20.1672 16.725 19.4005 18.025C18.6505 19.325 17.6255 20.35 16.3255 21.1C15.0255 21.8667 13.5838 22.25 12.0005 22.25ZM12.0005 19C12.9672 19 13.8505 18.7667 14.6505 18.3C15.4672 17.8167 16.1088 17.175 16.5755 16.375C17.0422 15.5583 17.2755 14.6667 17.2755 13.7C17.2755 12.7333 17.0422 11.85 16.5755 11.05C16.1088 10.2333 15.4672 9.59167 14.6505 9.125C13.8505 8.64167 12.9672 8.4 12.0005 8.4C11.0338 8.4 10.1422 8.64167 9.32549 9.125C8.52549 9.59167 7.89216 10.2333 7.42549 11.05C6.95882 11.85 6.72549 12.7333 6.72549 13.7C6.72549 14.6667 6.95882 15.5583 7.42549 16.375C7.89216 17.175 8.52549 17.8167 9.32549 18.3C10.1422 18.7667 11.0338 19 12.0005 19ZM5.62549 1.575L8.10049 4.05L2.80049 9.35L0.325488 6.875L5.62549 1.575ZM23.6755 6.875L21.2005 9.35L15.9005 4.05L18.3755 1.575L23.6755 6.875ZM8.10049 12.15H10.4255V9.775H13.5755V12.15H15.9005V15.2H13.5755V17.55H10.4255V15.2H8.10049V12.15Z" fill="black"/>
</g>
<defs>
<clipPath id="clip0_3219_9750">
<rect width="24" height="24" fill="white"/>
</clipPath>
</defs>
</svg>
