<svg width="24" height="24" viewBox="0 0 24 24" fill="none" xmlns="http://www.w3.org/2000/svg">
<g clip-path="url(#clip0_3219_10042)">
<rect width="24" height="24" fill="white"/>
<path d="M16.525 21.05C15.1583 21.85 13.65 22.25 12 22.25C10.35 22.25 8.83333 21.85 7.45 21.05C6.08333 20.25 5 19.1667 4.2 17.8C3.4 16.4167 3 14.9 3 13.25C3 11.6 3.4 10.0917 4.2 8.725C5 7.34167 6.08333 6.25 7.45 5.45C8.83333 4.65 10.35 4.25 12 4.25C13.65 4.25 15.1583 4.65 16.525 5.45C17.9083 6.25 19 7.34167 19.8 8.725C20.6 10.0917 21 11.6 21 13.25C21 14.9 20.6 16.4167 19.8 17.8C19 19.1667 17.9083 20.25 16.525 21.05ZM1.3 7.85L0.325 6.875L5.625 1.575L6.6 2.55L1.3 7.85ZM17.4 2.55L18.375 1.575L23.675 6.875L22.7 7.85L17.4 2.55ZM9.05 9.325L8.075 10.3L11.025 13.25L8.075 16.2L9.05 17.175L12 14.225L14.95 17.175L15.925 16.2L12.975 13.25L15.925 10.3L14.95 9.325L12 12.275L9.05 9.325Z" fill="black"/>
</g>
<defs>
<clipPath id="clip0_3219_10042">
<rect width="24" height="24" fill="white"/>
</clipPath>
</defs>
</svg>
