<svg width="24" height="24" viewBox="0 0 24 24" fill="none" xmlns="http://www.w3.org/2000/svg">
<g clip-path="url(#clip0_3219_9760)">
<rect width="24" height="24" fill="white"/>
<path d="M16.475 21.075C15.125 21.8583 13.6333 22.25 12 22.25C10.3667 22.25 8.875 21.8583 7.525 21.075C6.175 20.2917 5.1 19.225 4.3 17.875C3.51667 16.5083 3.125 15.0083 3.125 13.375C3.125 11.7583 3.51667 10.275 4.3 8.925C5.1 7.55833 6.175 6.48333 7.525 5.7C8.875 4.91667 10.3667 4.525 12 4.525C13.6333 4.525 15.125 4.91667 16.475 5.7C17.825 6.48333 18.8917 7.55833 19.675 8.925C20.475 10.275 20.875 11.7583 20.875 13.375C20.875 15.0083 20.475 16.5083 19.675 17.875C18.8917 19.225 17.825 20.2917 16.475 21.075ZM1.925 8.475L0.325 6.875L5.625 1.575L7.225 3.175L1.925 8.475ZM16.775 3.175L18.375 1.575L23.675 6.875L22.075 8.475L16.775 3.175ZM7.5 12.3V14.55H10.85V17.925H13.15V14.55H16.5V12.3H13.15V8.925H10.85V12.3H7.5Z" fill="black"/>
</g>
<defs>
<clipPath id="clip0_3219_9760">
<rect width="24" height="24" fill="white"/>
</clipPath>
</defs>
</svg>
