<svg width="24" height="24" viewBox="0 0 24 24" fill="none" xmlns="http://www.w3.org/2000/svg">
<g clip-path="url(#clip0_3219_8545)">
<rect width="24" height="24" fill="white"/>
<path d="M12.0005 22.25C10.3505 22.25 8.83382 21.85 7.45049 21.05C6.08382 20.25 5.00049 19.1667 4.20049 17.8C3.40049 16.4167 3.00049 14.9 3.00049 13.25C3.00049 11.6 3.40049 10.0917 4.20049 8.725C5.00049 7.34167 6.08382 6.25 7.45049 5.45C8.83382 4.65 10.3505 4.25 12.0005 4.25C13.6505 4.25 15.1588 4.65 16.5255 5.45C17.9088 6.25 19.0005 7.34167 19.8005 8.725C20.6005 10.0917 21.0005 11.6 21.0005 13.25C21.0005 14.9 20.6005 16.4167 19.8005 17.8C19.0005 19.1667 17.9088 20.25 16.5255 21.05C15.1588 21.85 13.6505 22.25 12.0005 22.25ZM12.0005 21.775C13.5672 21.775 14.9922 21.4 16.2755 20.65C17.5755 19.8833 18.6005 18.85 19.3505 17.55C20.1172 16.25 20.5005 14.8167 20.5005 13.25C20.5005 11.6833 20.1172 10.25 19.3505 8.95C18.6005 7.65 17.5755 6.625 16.2755 5.875C14.9922 5.10833 13.5672 4.725 12.0005 4.725C10.4338 4.725 9.00049 5.10833 7.70049 5.875C6.41716 6.625 5.39216 7.65 4.62549 8.95C3.87549 10.25 3.50049 11.6833 3.50049 13.25C3.50049 14.8167 3.87549 16.25 4.62549 17.55C5.39216 18.85 6.41716 19.8833 7.70049 20.65C9.00049 21.4 10.4338 21.775 12.0005 21.775ZM5.62549 1.575L5.97549 1.925L0.675488 7.225L0.325488 6.875L5.62549 1.575ZM23.6755 6.875L23.3255 7.225L18.0255 1.925L18.3755 1.575L23.6755 6.875ZM8.82549 16.65L14.5255 9.85H8.85049V9.375H15.1505V9.85L9.45049 16.65H15.2005V17.125H8.82549V16.65Z" fill="black"/>
</g>
<defs>
<clipPath id="clip0_3219_8545">
<rect width="24" height="24" fill="white"/>
</clipPath>
</defs>
</svg>
