<svg width="24" height="24" viewBox="0 0 24 24" fill="none" xmlns="http://www.w3.org/2000/svg">
<g clip-path="url(#clip0_3245_16547)">
<rect width="24" height="24" fill="white"/>
<path d="M3.12549 16.1C3.64216 14.8167 4.70049 13.8167 6.30049 13.1C7.90049 12.3667 9.80049 12 12.0005 12C14.2005 12 16.1005 12.3667 17.7005 13.1C19.3005 13.8167 20.3588 14.8167 20.8755 16.1H18.3255C17.9088 15.6833 17.4005 15.3333 16.8005 15.05C16.2172 14.7667 15.5255 14.55 14.7255 14.4C13.9255 14.25 13.0172 14.175 12.0005 14.175C10.9838 14.175 10.0755 14.25 9.27549 14.4C8.47549 14.55 7.77549 14.7667 7.17549 15.05C6.59216 15.3333 6.09216 15.6833 5.67549 16.1H3.12549ZM3.00049 17.725H5.22549V18.825H18.7755V17.725H21.0005V21H3.00049V17.725ZM12.0005 10.225C10.9838 10.225 10.0838 9.90833 9.30049 9.275C8.53382 8.64167 8.05049 7.85 7.85049 6.9H10.1505C10.3005 7.25 10.5422 7.53333 10.8755 7.75C11.2088 7.95 11.5838 8.05 12.0005 8.05C12.4172 8.05 12.7922 7.95 13.1255 7.75C13.4588 7.53333 13.7005 7.25 13.8505 6.9H16.1505C15.9505 7.85 15.4588 8.64167 14.6755 9.275C13.9088 9.90833 13.0172 10.225 12.0005 10.225ZM7.85049 5.075C8.05049 4.14167 8.53382 3.35833 9.30049 2.725C10.0838 2.09167 10.9838 1.775 12.0005 1.775C13.0172 1.775 13.9088 2.09167 14.6755 2.725C15.4588 3.35833 15.9505 4.14167 16.1505 5.075H13.8505C13.6838 4.74167 13.4338 4.475 13.1005 4.275C12.7672 4.05833 12.4005 3.95 12.0005 3.95C11.6005 3.95 11.2338 4.05833 10.9005 4.275C10.5672 4.475 10.3172 4.74167 10.1505 5.075H7.85049Z" fill="black"/>
</g>
<defs>
<clipPath id="clip0_3245_16547">
<rect width="24" height="24" fill="white"/>
</clipPath>
</defs>
</svg>
