<svg width="24" height="24" viewBox="0 0 24 24" fill="none" xmlns="http://www.w3.org/2000/svg">
<g clip-path="url(#clip0_3219_10162)">
<rect width="24" height="24" fill="white"/>
<path d="M12.0005 9.625C11.5672 9.625 11.1672 9.73333 10.8005 9.95C10.4505 10.15 10.1672 10.4333 9.95049 10.8C9.75049 11.1667 9.65049 11.5667 9.65049 12C9.65049 12.4333 9.75049 12.8333 9.95049 13.2C10.1672 13.5667 10.4505 13.8583 10.8005 14.075C11.1672 14.275 11.5672 14.375 12.0005 14.375C12.4338 14.375 12.8255 14.275 13.1755 14.075C13.5422 13.8583 13.8255 13.5667 14.0255 13.2C14.2422 12.8333 14.3505 12.4333 14.3505 12C14.3505 11.5667 14.2422 11.1667 14.0255 10.8C13.8255 10.4333 13.5422 10.15 13.1755 9.95C12.8255 9.73333 12.4338 9.625 12.0005 9.625ZM12.0005 16.475C11.1838 16.475 10.4338 16.275 9.75049 15.875C9.06716 15.475 8.51716 14.9333 8.10049 14.25C7.70049 13.5667 7.50049 12.8167 7.50049 12C7.50049 11.1833 7.70049 10.4333 8.10049 9.75C8.51716 9.06667 9.06716 8.525 9.75049 8.125C10.4338 7.725 11.1838 7.525 12.0005 7.525C12.8172 7.525 13.5672 7.725 14.2505 8.125C14.9338 8.525 15.4755 9.06667 15.8755 9.75C16.2922 10.4333 16.5005 11.1833 16.5005 12C16.5005 12.8167 16.2922 13.5667 15.8755 14.25C15.4755 14.9333 14.9338 15.475 14.2505 15.875C13.5672 16.275 12.8172 16.475 12.0005 16.475ZM7.17549 21C6.40882 21 5.70049 20.8167 5.05049 20.45C4.41716 20.0833 3.91716 19.5833 3.55049 18.95C3.18382 18.3 3.00049 17.5917 3.00049 16.825V7.175C3.00049 6.40833 3.18382 5.70833 3.55049 5.075C3.91716 4.425 4.41716 3.91667 5.05049 3.55C5.70049 3.18333 6.40882 3 7.17549 3H16.7505C17.5338 3 18.2505 3.18333 18.9005 3.55C19.5505 3.91667 20.0588 4.425 20.4255 5.075C20.8088 5.70833 21.0005 6.40833 21.0005 7.175V16.825C21.0005 17.5917 20.8172 18.3 20.4505 18.95C20.0838 19.5833 19.5755 20.0833 18.9255 20.45C18.2922 20.8167 17.5922 21 16.8255 21H7.17549ZM16.8255 18.625C17.3255 18.625 17.7422 18.4583 18.0755 18.125C18.4088 17.775 18.5755 17.3417 18.5755 16.825V7.15C18.5755 6.65 18.4088 6.23333 18.0755 5.9C17.7422 5.55 17.3255 5.375 16.8255 5.375H7.17549C6.67549 5.375 6.25882 5.55 5.92549 5.9C5.59216 6.23333 5.42549 6.65833 5.42549 7.175V16.825C5.42549 17.3417 5.59216 17.775 5.92549 18.125C6.25882 18.4583 6.67549 18.625 7.17549 18.625H16.8255Z" fill="black"/>
</g>
<defs>
<clipPath id="clip0_3219_10162">
<rect width="24" height="24" fill="white"/>
</clipPath>
</defs>
</svg>
