<svg width="24" height="24" viewBox="0 0 24 24" fill="none" xmlns="http://www.w3.org/2000/svg">
<g clip-path="url(#clip0_3219_9350)">
<rect width="24" height="24" fill="white"/>
<path d="M14.9505 11C14.3838 11 13.9172 10.8167 13.5505 10.45C13.1838 10.0833 13.0005 9.625 13.0005 9.075V4.925C13.0005 4.375 13.1838 3.91667 13.5505 3.55C13.9172 3.18333 14.3838 3 14.9505 3H19.0505C19.6172 3 20.0838 3.18333 20.4505 3.55C20.8172 3.91667 21.0005 4.375 21.0005 4.925V9.075C21.0005 9.625 20.8172 10.0833 20.4505 10.45C20.0838 10.8167 19.6172 11 19.0505 11H14.9505ZM4.95049 21C4.38382 21 3.91716 20.8167 3.55049 20.45C3.18382 20.0833 3.00049 19.625 3.00049 19.075V14.925C3.00049 14.375 3.18382 13.9167 3.55049 13.55C3.91716 13.1833 4.38382 13 4.95049 13H9.05049C9.61716 13 10.0838 13.1833 10.4505 13.55C10.8172 13.9167 11.0005 14.375 11.0005 14.925V19.075C11.0005 19.625 10.8172 20.0833 10.4505 20.45C10.0838 20.8167 9.61716 21 9.05049 21H4.95049ZM9.05049 20.1C9.33382 20.1 9.57549 20.0083 9.77549 19.825C9.97549 19.625 10.0755 19.375 10.0755 19.075V14.925C10.0755 14.625 9.97549 14.3833 9.77549 14.2C9.57549 14 9.33382 13.9 9.05049 13.9H4.95049C4.66716 13.9 4.42549 14 4.22549 14.2C4.02549 14.3833 3.92549 14.625 3.92549 14.925V19.075C3.92549 19.375 4.02549 19.625 4.22549 19.825C4.42549 20.0083 4.66716 20.1 4.95049 20.1H9.05049ZM4.95049 11C4.38382 11 3.91716 10.8167 3.55049 10.45C3.18382 10.0833 3.00049 9.625 3.00049 9.075V4.925C3.00049 4.375 3.18382 3.91667 3.55049 3.55C3.91716 3.18333 4.38382 3 4.95049 3H9.05049C9.61716 3 10.0838 3.18333 10.4505 3.55C10.8172 3.91667 11.0005 4.375 11.0005 4.925V9.075C11.0005 9.625 10.8172 10.0833 10.4505 10.45C10.0838 10.8167 9.61716 11 9.05049 11H4.95049ZM9.05049 10.1C9.33382 10.1 9.57549 10.0083 9.77549 9.825C9.97549 9.625 10.0755 9.375 10.0755 9.075V4.925C10.0755 4.625 9.97549 4.38333 9.77549 4.2C9.57549 4 9.33382 3.9 9.05049 3.9H4.95049C4.66716 3.9 4.42549 4 4.22549 4.2C4.02549 4.38333 3.92549 4.625 3.92549 4.925V9.075C3.92549 9.375 4.02549 9.625 4.22549 9.825C4.42549 10.0083 4.66716 10.1 4.95049 10.1H9.05049ZM14.9505 21C14.3838 21 13.9172 20.8167 13.5505 20.45C13.1838 20.0833 13.0005 19.625 13.0005 19.075V14.925C13.0005 14.375 13.1838 13.9167 13.5505 13.55C13.9172 13.1833 14.3838 13 14.9505 13H19.0505C19.6172 13 20.0838 13.1833 20.4505 13.55C20.8172 13.9167 21.0005 14.375 21.0005 14.925V19.075C21.0005 19.625 20.8172 20.0833 20.4505 20.45C20.0838 20.8167 19.6172 21 19.0505 21H14.9505ZM19.0505 20.1C19.3338 20.1 19.5755 20.0083 19.7755 19.825C19.9755 19.625 20.0755 19.375 20.0755 19.075V14.925C20.0755 14.625 19.9755 14.3833 19.7755 14.2C19.5755 14 19.3338 13.9 19.0505 13.9H14.9505C14.6672 13.9 14.4255 14 14.2255 14.2C14.0255 14.3833 13.9255 14.625 13.9255 14.925V19.075C13.9255 19.375 14.0255 19.625 14.2255 19.825C14.4255 20.0083 14.6672 20.1 14.9505 20.1H19.0505ZM19.0505 10.1C19.3338 10.1 19.5755 10.0083 19.7755 9.825C19.9755 9.625 20.0755 9.375 20.0755 9.075V4.925C20.0755 4.625 19.9755 4.38333 19.7755 4.2C19.5755 4 19.3338 3.9 19.0505 3.9H14.9505C14.6672 3.9 14.4255 4 14.2255 4.2C14.0255 4.38333 13.9255 4.625 13.9255 4.925V9.075C13.9255 9.375 14.0255 9.625 14.2255 9.825C14.4255 10.0083 14.6672 10.1 14.9505 10.1H19.0505Z" fill="black"/>
</g>
<defs>
<clipPath id="clip0_3219_9350">
<rect width="24" height="24" fill="white"/>
</clipPath>
</defs>
</svg>
