<svg width="24" height="24" viewBox="0 0 24 24" fill="none" xmlns="http://www.w3.org/2000/svg">
<g clip-path="url(#clip0_3396_13426)">
<rect width="24" height="24" fill="white"/>
<path d="M12.0005 10.1C11.6505 10.1 11.3338 10.1833 11.0505 10.35C10.7672 10.5167 10.5338 10.75 10.3505 11.05C10.1838 11.3333 10.1005 11.65 10.1005 12C10.1005 12.35 10.1838 12.675 10.3505 12.975C10.5338 13.2583 10.7672 13.4833 11.0505 13.65C11.3338 13.8167 11.6505 13.9 12.0005 13.9C12.3505 13.9 12.6672 13.8167 12.9505 13.65C13.2338 13.4833 13.4588 13.2583 13.6255 12.975C13.8088 12.675 13.9005 12.35 13.9005 12C13.9005 11.65 13.8088 11.3333 13.6255 11.05C13.4588 10.75 13.2338 10.5167 12.9505 10.35C12.6672 10.1833 12.3505 10.1 12.0005 10.1ZM12.0005 16.475C11.1838 16.475 10.4338 16.275 9.75049 15.875C9.06716 15.4583 8.51716 14.9167 8.10049 14.25C7.70049 13.5667 7.50049 12.8167 7.50049 12C7.50049 11.1833 7.70049 10.4417 8.10049 9.775C8.51716 9.09167 9.06716 8.55 9.75049 8.15C10.4338 7.73333 11.1838 7.525 12.0005 7.525C12.8172 7.525 13.5672 7.73333 14.2505 8.15C14.9338 8.55 15.4755 9.09167 15.8755 9.775C16.2922 10.4417 16.5005 11.1833 16.5005 12C16.5005 12.8167 16.2922 13.5667 15.8755 14.25C15.4755 14.9167 14.9338 15.4583 14.2505 15.875C13.5672 16.275 12.8172 16.475 12.0005 16.475ZM7.37549 21C6.57549 21 5.84216 20.8083 5.17549 20.425C4.50882 20.025 3.97549 19.4917 3.57549 18.825C3.19216 18.1583 3.00049 17.425 3.00049 16.625V7.375C3.00049 6.575 3.19216 5.84167 3.57549 5.175C3.97549 4.50833 4.50882 3.98333 5.17549 3.6C5.84216 3.2 6.57549 3 7.37549 3H16.4255C17.2755 3 18.0505 3.2 18.7505 3.6C19.4505 3.98333 20.0005 4.50833 20.4005 5.175C20.8005 5.84167 21.0005 6.575 21.0005 7.375V16.625C21.0005 17.425 20.8005 18.1583 20.4005 18.825C20.0172 19.4917 19.4922 20.025 18.8255 20.425C18.1588 20.8083 17.4255 21 16.6255 21H7.37549ZM16.6255 18.05C17.0088 18.05 17.3338 17.9167 17.6005 17.65C17.8672 17.3667 18.0005 17.025 18.0005 16.625V7.375C18.0005 6.975 17.8672 6.64167 17.6005 6.375C17.3338 6.09167 17.0088 5.95 16.6255 5.95H7.37549C6.99216 5.95 6.65882 6.09167 6.37549 6.375C6.10882 6.64167 5.97549 6.975 5.97549 7.375V16.625C5.97549 17.025 6.10882 17.3667 6.37549 17.65C6.65882 17.9167 6.99216 18.05 7.37549 18.05H16.6255Z" fill="black"/>
</g>
<defs>
<clipPath id="clip0_3396_13426">
<rect width="24" height="24" fill="white"/>
</clipPath>
</defs>
</svg>
