<svg width="24" height="24" viewBox="0 0 24 24" fill="none" xmlns="http://www.w3.org/2000/svg">
<g clip-path="url(#clip0_3219_9358)">
<rect width="24" height="24" fill="white"/>
<path d="M14.9505 11.175C14.3505 11.175 13.8422 10.975 13.4255 10.575C13.0255 10.1583 12.8255 9.65 12.8255 9.05V5.1C12.8255 4.51667 13.0088 4.025 13.3755 3.625C13.7588 3.20833 14.2255 3 14.7755 3H18.8755C19.4755 3 19.9755 3.20833 20.3755 3.625C20.7922 4.025 21.0005 4.51667 21.0005 5.1V9.05C21.0005 9.65 20.7922 10.1583 20.3755 10.575C19.9588 10.975 19.4505 11.175 18.8505 11.175H14.9505ZM5.12549 21C4.52549 21 4.01716 20.8 3.60049 20.4C3.20049 19.9833 3.00049 19.4833 3.00049 18.9V14.95C3.00049 14.35 3.20049 13.85 3.60049 13.45C4.01716 13.0333 4.52549 12.825 5.12549 12.825H8.87549C9.52549 12.825 10.0672 13.0333 10.5005 13.45C10.9505 13.85 11.1755 14.35 11.1755 14.95V18.85C11.1755 19.4667 10.9505 19.9833 10.5005 20.4C10.0672 20.8 9.52549 21 8.87549 21H5.12549ZM8.45049 18.375C8.46716 18.375 8.47549 18.375 8.47549 18.375C8.49216 18.3583 8.50049 18.3417 8.50049 18.325V15.5C8.50049 15.4833 8.49216 15.475 8.47549 15.475C8.47549 15.4583 8.46716 15.45 8.45049 15.45H5.72549C5.70882 15.45 5.69216 15.4583 5.67549 15.475C5.67549 15.475 5.67549 15.4833 5.67549 15.5V18.325C5.67549 18.3417 5.67549 18.3583 5.67549 18.375C5.69216 18.375 5.70882 18.375 5.72549 18.375H8.45049ZM5.12549 11.175C4.52549 11.175 4.01716 10.975 3.60049 10.575C3.20049 10.1583 3.00049 9.65 3.00049 9.05V5.1C3.00049 4.51667 3.20049 4.025 3.60049 3.625C4.01716 3.20833 4.52549 3 5.12549 3H8.87549C9.52549 3 10.0672 3.20833 10.5005 3.625C10.9505 4.025 11.1755 4.51667 11.1755 5.1V9.05C11.1755 9.65 10.9505 10.1583 10.5005 10.575C10.0672 10.975 9.52549 11.175 8.87549 11.175H5.12549ZM8.45049 8.55C8.46716 8.55 8.47549 8.55 8.47549 8.55C8.49216 8.53333 8.50049 8.51667 8.50049 8.5V5.675C8.50049 5.65833 8.49216 5.65 8.47549 5.65C8.47549 5.63333 8.46716 5.625 8.45049 5.625H5.72549C5.70882 5.625 5.69216 5.63333 5.67549 5.65C5.67549 5.65 5.67549 5.65833 5.67549 5.675V8.5C5.67549 8.51667 5.67549 8.53333 5.67549 8.55C5.69216 8.55 5.70882 8.55 5.72549 8.55H8.45049ZM14.9505 21C14.3505 21 13.8422 20.8 13.4255 20.4C13.0255 19.9833 12.8255 19.4667 12.8255 18.85V14.95C12.8255 14.35 13.0255 13.85 13.4255 13.45C13.8422 13.0333 14.3505 12.825 14.9505 12.825H18.8505C19.4505 12.825 19.9588 13.0333 20.3755 13.45C20.7922 13.85 21.0005 14.35 21.0005 14.95V18.9C21.0005 19.4833 20.7922 19.9833 20.3755 20.4C19.9755 20.8 19.4755 21 18.8755 21H14.9505ZM18.2755 18.375C18.2922 18.375 18.3005 18.375 18.3005 18.375C18.3172 18.3583 18.3255 18.3417 18.3255 18.325V15.5C18.3255 15.4833 18.3172 15.475 18.3005 15.475C18.3005 15.4583 18.2922 15.45 18.2755 15.45H15.5505C15.5338 15.45 15.5172 15.4583 15.5005 15.475C15.5005 15.475 15.5005 15.4833 15.5005 15.5V18.325C15.5005 18.3417 15.5005 18.3583 15.5005 18.375C15.5172 18.375 15.5338 18.375 15.5505 18.375H18.2755ZM18.2755 8.55C18.2922 8.55 18.3005 8.55 18.3005 8.55C18.3172 8.53333 18.3255 8.51667 18.3255 8.5V5.675C18.3255 5.65833 18.3172 5.65 18.3005 5.65C18.3005 5.63333 18.2922 5.625 18.2755 5.625H15.5505C15.5338 5.625 15.5172 5.63333 15.5005 5.65C15.5005 5.65 15.5005 5.65833 15.5005 5.675V8.5C15.5005 8.51667 15.5005 8.53333 15.5005 8.55C15.5172 8.55 15.5338 8.55 15.5505 8.55H18.2755Z" fill="black"/>
</g>
<defs>
<clipPath id="clip0_3219_9358">
<rect width="24" height="24" fill="white"/>
</clipPath>
</defs>
</svg>
