<svg width="24" height="24" viewBox="0 0 24 24" fill="none" xmlns="http://www.w3.org/2000/svg">
<g clip-path="url(#clip0_3219_9354)">
<rect width="24" height="24" fill="white"/>
<path d="M14.8255 11C14.2922 11 13.8505 10.8333 13.5005 10.5C13.1672 10.1667 13.0005 9.74167 13.0005 9.225V4.775C13.0005 4.25833 13.1672 3.83333 13.5005 3.5C13.8505 3.16667 14.2922 3 14.8255 3H19.1755C19.7088 3 20.1422 3.16667 20.4755 3.5C20.8255 3.83333 21.0005 4.25833 21.0005 4.775V9.225C21.0005 9.74167 20.8255 10.1667 20.4755 10.5C20.1422 10.8333 19.7088 11 19.1755 11H14.8255ZM4.82549 21C4.29216 21 3.85049 20.8333 3.50049 20.5C3.16716 20.1667 3.00049 19.7417 3.00049 19.225V14.775C3.00049 14.2583 3.16716 13.8333 3.50049 13.5C3.85049 13.1667 4.29216 13 4.82549 13H9.17549C9.70882 13 10.1422 13.1667 10.4755 13.5C10.8255 13.8333 11.0005 14.2583 11.0005 14.775V19.225C11.0005 19.7417 10.8255 20.1667 10.4755 20.5C10.1422 20.8333 9.70882 21 9.17549 21H4.82549ZM9.17549 19.25C9.19216 19.25 9.20049 19.25 9.20049 19.25C9.20049 19.25 9.20049 19.2417 9.20049 19.225V14.775C9.20049 14.7583 9.20049 14.75 9.20049 14.75C9.20049 14.75 9.19216 14.75 9.17549 14.75H4.82549C4.80882 14.75 4.80049 14.75 4.80049 14.75C4.80049 14.75 4.80049 14.7583 4.80049 14.775V19.225C4.80049 19.2417 4.80049 19.25 4.80049 19.25C4.80049 19.25 4.80882 19.25 4.82549 19.25H9.17549ZM4.82549 11C4.29216 11 3.85049 10.8333 3.50049 10.5C3.16716 10.1667 3.00049 9.74167 3.00049 9.225V4.775C3.00049 4.25833 3.16716 3.83333 3.50049 3.5C3.85049 3.16667 4.29216 3 4.82549 3H9.17549C9.70882 3 10.1422 3.16667 10.4755 3.5C10.8255 3.83333 11.0005 4.25833 11.0005 4.775V9.225C11.0005 9.74167 10.8255 10.1667 10.4755 10.5C10.1422 10.8333 9.70882 11 9.17549 11H4.82549ZM9.17549 9.25C9.19216 9.25 9.20049 9.25 9.20049 9.25C9.20049 9.25 9.20049 9.24167 9.20049 9.225V4.775C9.20049 4.75833 9.20049 4.75 9.20049 4.75C9.20049 4.75 9.19216 4.75 9.17549 4.75H4.82549C4.80882 4.75 4.80049 4.75 4.80049 4.75C4.80049 4.75 4.80049 4.75833 4.80049 4.775V9.225C4.80049 9.24167 4.80049 9.25 4.80049 9.25C4.80049 9.25 4.80882 9.25 4.82549 9.25H9.17549ZM14.8255 21C14.2922 21 13.8505 20.8333 13.5005 20.5C13.1672 20.1667 13.0005 19.7417 13.0005 19.225V14.775C13.0005 14.2583 13.1672 13.8333 13.5005 13.5C13.8505 13.1667 14.2922 13 14.8255 13H19.1755C19.7088 13 20.1422 13.1667 20.4755 13.5C20.8255 13.8333 21.0005 14.2583 21.0005 14.775V19.225C21.0005 19.7417 20.8255 20.1667 20.4755 20.5C20.1422 20.8333 19.7088 21 19.1755 21H14.8255ZM19.1755 19.25C19.1922 19.25 19.2005 19.25 19.2005 19.25C19.2005 19.25 19.2005 19.2417 19.2005 19.225V14.775C19.2005 14.7583 19.2005 14.75 19.2005 14.75C19.2005 14.75 19.1922 14.75 19.1755 14.75H14.8255C14.8088 14.75 14.8005 14.75 14.8005 14.75C14.8005 14.75 14.8005 14.7583 14.8005 14.775V19.225C14.8005 19.2417 14.8005 19.25 14.8005 19.25C14.8005 19.25 14.8088 19.25 14.8255 19.25H19.1755ZM19.1755 9.25C19.1922 9.25 19.2005 9.25 19.2005 9.25C19.2005 9.25 19.2005 9.24167 19.2005 9.225V4.775C19.2005 4.75833 19.2005 4.75 19.2005 4.75C19.2005 4.75 19.1922 4.75 19.1755 4.75H14.8255C14.8088 4.75 14.8005 4.75 14.8005 4.75C14.8005 4.75 14.8005 4.75833 14.8005 4.775V9.225C14.8005 9.24167 14.8005 9.25 14.8005 9.25C14.8005 9.25 14.8088 9.25 14.8255 9.25H19.1755Z" fill="black"/>
</g>
<defs>
<clipPath id="clip0_3219_9354">
<rect width="24" height="24" fill="white"/>
</clipPath>
</defs>
</svg>
