<svg width="24" height="24" viewBox="0 0 24 24" fill="none" xmlns="http://www.w3.org/2000/svg">
<g clip-path="url(#clip0_3396_13426)">
<rect width="24" height="24" fill="white"/>
<path d="M12.0005 9.975C11.6338 9.975 11.2922 10.0667 10.9755 10.25C10.6755 10.4333 10.4338 10.6833 10.2505 11C10.0672 11.3 9.97549 11.6333 9.97549 12C9.97549 12.3667 10.0672 12.7083 10.2505 13.025C10.4338 13.325 10.6755 13.5667 10.9755 13.75C11.2922 13.9333 11.6338 14.025 12.0005 14.025C12.3672 14.025 12.7005 13.9333 13.0005 13.75C13.3172 13.5667 13.5672 13.325 13.7505 13.025C13.9338 12.7083 14.0255 12.3667 14.0255 12C14.0255 11.6333 13.9338 11.3 13.7505 11C13.5672 10.6833 13.3172 10.4333 13.0005 10.25C12.7005 10.0667 12.3672 9.975 12.0005 9.975ZM12.0005 16.475C11.1838 16.475 10.4338 16.275 9.75049 15.875C9.06716 15.4583 8.51716 14.9167 8.10049 14.25C7.70049 13.5667 7.50049 12.8167 7.50049 12C7.50049 11.1833 7.70049 10.4417 8.10049 9.775C8.51716 9.09167 9.06716 8.55 9.75049 8.15C10.4338 7.73333 11.1838 7.525 12.0005 7.525C12.8172 7.525 13.5672 7.73333 14.2505 8.15C14.9338 8.55 15.4755 9.09167 15.8755 9.775C16.2922 10.4417 16.5005 11.1833 16.5005 12C16.5005 12.8167 16.2922 13.5667 15.8755 14.25C15.4755 14.9167 14.9338 15.4583 14.2505 15.875C13.5672 16.275 12.8172 16.475 12.0005 16.475ZM7.32549 21C6.52549 21 5.79216 20.8083 5.12549 20.425C4.47549 20.0417 3.95882 19.525 3.57549 18.875C3.19216 18.2083 3.00049 17.475 3.00049 16.675V7.325C3.00049 6.525 3.19216 5.8 3.57549 5.15C3.95882 4.48333 4.47549 3.95833 5.12549 3.575C5.79216 3.19167 6.52549 3 7.32549 3H16.5005C17.3172 3 18.0672 3.19167 18.7505 3.575C19.4505 3.95833 20.0005 4.48333 20.4005 5.15C20.8005 5.8 21.0005 6.525 21.0005 7.325V16.675C21.0005 17.475 20.8088 18.2083 20.4255 18.875C20.0422 19.525 19.5172 20.0417 18.8505 20.425C18.2005 20.8083 17.4755 21 16.6755 21H7.32549ZM16.6755 18.125C17.0588 18.125 17.3838 17.9833 17.6505 17.7C17.9338 17.4167 18.0755 17.075 18.0755 16.675V7.325C18.0755 6.925 17.9338 6.58333 17.6505 6.3C17.3838 6.01667 17.0588 5.875 16.6755 5.875H7.32549C6.94216 5.875 6.60882 6.01667 6.32549 6.3C6.05882 6.58333 5.92549 6.925 5.92549 7.325V16.675C5.92549 17.075 6.05882 17.4167 6.32549 17.7C6.60882 17.9833 6.94216 18.125 7.32549 18.125H16.6755Z" fill="black"/>
</g>
<defs>
<clipPath id="clip0_3396_13426">
<rect width="24" height="24" fill="white"/>
</clipPath>
</defs>
</svg>
