<svg width="24" height="24" viewBox="0 0 24 24" fill="none" xmlns="http://www.w3.org/2000/svg">
<g clip-path="url(#clip0_3396_13345)">
<rect width="24" height="24" fill="white"/>
<path d="M12.725 6.45V6.225V1.3V0.249999L16.4 3.875L12.725 7.5V6.45ZM11.225 17.55V17.775V22.7V23.75L7.575 20.125L11.225 16.5V17.55ZM18.525 4.925C19.4583 5.79167 20.2083 6.83333 20.775 8.05C21.3417 9.25 21.625 10.5667 21.625 12C21.625 13.75 21.1917 15.3667 20.325 16.85C19.475 18.3167 18.3083 19.4833 16.825 20.35C15.3583 21.2 13.75 21.625 12 21.625C11.3333 21.625 10.625 21.5583 9.875 21.425L10.625 18.65C11.0583 18.7333 11.5167 18.775 12 18.775C13.2167 18.775 14.3417 18.475 15.375 17.875C16.425 17.275 17.25 16.4583 17.85 15.425C18.45 14.375 18.75 13.2333 18.75 12C18.75 10.9833 18.55 10.05 18.15 9.2C17.75 8.35 17.2 7.6 16.5 6.95L18.525 4.925ZM5.45 19.05C4.51667 18.2 3.76667 17.175 3.2 15.975C2.65 14.7583 2.375 13.4333 2.375 12C2.375 10.25 2.8 8.64167 3.65 7.175C4.51667 5.69167 5.68333 4.525 7.15 3.675C8.63333 2.80833 10.25 2.375 12 2.375C12.6667 2.375 13.375 2.44167 14.125 2.575L13.375 5.35C12.9417 5.26667 12.4833 5.225 12 5.225C10.7833 5.225 9.65 5.525 8.6 6.125C7.56667 6.725 6.75 7.55 6.15 8.6C5.55 9.63333 5.25 10.7667 5.25 12C5.25 13 5.45 13.9333 5.85 14.8C6.25 15.6667 6.79167 16.4167 7.475 17.05L5.45 19.05ZM10.175 8.55H13.85L15.875 15.35H13.3L12.975 14.25H11.05L10.725 15.35H8.15L10.175 8.55ZM12.7 12.4L12 10.35L11.325 12.4H12.7Z" fill="black"/>
</g>
<defs>
<clipPath id="clip0_3396_13345">
<rect width="24" height="24" fill="white"/>
</clipPath>
</defs>
</svg>
