<svg width="24" height="24" viewBox="0 0 24 24" fill="none" xmlns="http://www.w3.org/2000/svg">
<g clip-path="url(#clip0_3396_13339)">
<rect width="24" height="24" fill="white"/>
<path d="M2.375 12C2.375 10.2667 2.80833 8.66667 3.675 7.2C4.54167 5.71667 5.70833 4.54167 7.175 3.675C8.65833 2.80833 10.2667 2.375 12 2.375C12.6 2.375 13.275 2.44167 14.025 2.575L13.625 3.9C13.0917 3.8 12.55 3.75 12 3.75C10.5167 3.75 9.14167 4.125 7.875 4.875C6.625 5.60833 5.625 6.60833 4.875 7.875C4.14167 9.14167 3.775 10.5167 3.775 12C3.775 13.35 4.09167 14.6333 4.725 15.85C5.35833 17.05 6.275 18.0583 7.475 18.875L6.65 20C5.28333 19.0833 4.225 17.9167 3.475 16.5C2.74167 15.0833 2.375 13.5833 2.375 12ZM12.575 3.975V2.975V2.3V0.599999L15.05 3.1L12.575 5.55V3.975ZM21.625 12C21.625 13.7333 21.1917 15.3417 20.325 16.825C19.4583 18.2917 18.2833 19.4583 16.8 20.325C15.3333 21.1917 13.7333 21.625 12 21.625C11.4 21.625 10.725 21.5583 9.975 21.425L10.375 20.1C10.925 20.2 11.4667 20.25 12 20.25C13.4833 20.25 14.85 19.8833 16.1 19.15C17.3667 18.4 18.3667 17.3917 19.1 16.125C19.85 14.8583 20.225 13.4833 20.225 12C20.225 10.65 19.9083 9.375 19.275 8.175C18.6417 6.95833 17.725 5.94167 16.525 5.125L17.35 4C18.7167 4.91667 19.7667 6.08333 20.5 7.5C21.25 8.91667 21.625 10.4167 21.625 12ZM11.425 20.025V21.025V21.7V23.4L8.95 20.9L11.425 18.45V20.025ZM11.15 8.5H12.9L15.375 15.3H13.975L13.425 13.65H10.65L10.075 15.3H8.675L11.15 8.5ZM13.1 12.55L12 9.625L10.95 12.55H13.1Z" fill="black"/>
</g>
<defs>
<clipPath id="clip0_3396_13339">
<rect width="24" height="24" fill="white"/>
</clipPath>
</defs>
</svg>
