<svg width="24" height="24" viewBox="0 0 24 24" fill="none" xmlns="http://www.w3.org/2000/svg">
<g clip-path="url(#clip0_3396_13327)">
<rect width="24" height="24" fill="white"/>
<path d="M12.4255 3.8V3.35V2.925V0.124999L15.6755 3.375L12.4255 6.625V3.8ZM11.5005 20.2V20.65V21.075V23.875L8.25049 20.625L11.5005 17.375V20.2ZM18.0255 4.5C19.2088 5.46667 20.1005 6.60833 20.7005 7.925C21.3172 9.225 21.6255 10.5833 21.6255 12C21.6255 13.75 21.1922 15.3667 20.3255 16.85C19.4755 18.3167 18.3088 19.4833 16.8255 20.35C15.3588 21.2 13.7505 21.625 12.0005 21.625C11.4838 21.625 10.8505 21.5583 10.1005 21.425L10.6005 19.65C11.1672 19.75 11.6338 19.8 12.0005 19.8C13.4005 19.8 14.6922 19.45 15.8755 18.75C17.0755 18.05 18.0255 17.1 18.7255 15.9C19.4255 14.7 19.7755 13.4 19.7755 12C19.7755 10.8333 19.5172 9.70833 19.0005 8.625C18.5005 7.54167 17.7422 6.6 16.7255 5.8L18.0255 4.5ZM5.92549 19.475C4.74216 18.525 3.85049 17.4 3.25049 16.1C2.66716 14.7833 2.37549 13.4167 2.37549 12C2.37549 10.25 2.80049 8.64167 3.65049 7.175C4.51716 5.69167 5.68382 4.525 7.15049 3.675C8.63382 2.80833 10.2505 2.375 12.0005 2.375C12.5172 2.375 13.1505 2.44167 13.9005 2.575L13.4005 4.35C12.8338 4.25 12.3672 4.2 12.0005 4.2C10.6005 4.2 9.30049 4.55 8.10049 5.25C6.91716 5.95 5.97549 6.9 5.27549 8.1C4.57549 9.3 4.22549 10.6 4.22549 12C4.22549 13.15 4.47549 14.2667 4.97549 15.35C5.47549 16.4167 6.22549 17.3583 7.22549 18.175L5.92549 19.475ZM10.8755 8.45H13.1755L15.5255 15.25H13.7005L13.2505 13.775H10.8255L10.3505 15.25H8.52549L10.8755 8.45ZM12.8755 12.375L12.0005 9.925L11.1755 12.375H12.8755Z" fill="black"/>
</g>
<defs>
<clipPath id="clip0_3396_13327">
<rect width="24" height="24" fill="white"/>
</clipPath>
</defs>
</svg>
