<svg width="24" height="24" viewBox="0 0 24 24" fill="none" xmlns="http://www.w3.org/2000/svg">
<g clip-path="url(#clip0_3396_13347)">
<rect width="24" height="24" fill="white"/>
<path d="M2.375 12C2.375 10.2833 2.80833 8.69167 3.675 7.225C4.55833 5.74167 5.73333 4.56667 7.2 3.7C8.68333 2.81667 10.2833 2.375 12 2.375C12.7333 2.375 13.475 2.44167 14.225 2.575L13.4 5.7C13.0333 5.61667 12.5667 5.575 12 5.575C10.85 5.575 9.78333 5.86667 8.8 6.45C7.83333 7.03333 7.05833 7.81667 6.475 8.8C5.90833 9.78333 5.625 10.85 5.625 12C5.625 13.0333 5.825 13.9417 6.225 14.725C6.64167 15.4917 7.15 16.1583 7.75 16.725L5.6 19.125C4.68333 18.275 3.91667 17.2583 3.3 16.075C2.68333 14.875 2.375 13.5167 2.375 12ZM12.5 6.5V4.025V1.6V0.2L16.5 4.025L12.5 7.85V6.5ZM21.625 12C21.625 13.7167 21.1833 15.3167 20.3 16.8C19.4333 18.2667 18.2583 19.4417 16.775 20.325C15.3083 21.1917 13.7167 21.625 12 21.625C11.2667 21.625 10.525 21.5583 9.775 21.425L10.6 18.3C10.9667 18.3833 11.4333 18.425 12 18.425C13.15 18.425 14.2083 18.1333 15.175 17.55C16.1583 16.9667 16.9333 16.1833 17.5 15.2C18.0833 14.2167 18.375 13.15 18.375 12C18.375 10.9667 18.1667 10.0667 17.75 9.3C17.35 8.51667 16.85 7.84167 16.25 7.275L18.4 4.875C19.3167 5.725 20.0833 6.75 20.7 7.95C21.3167 9.13333 21.625 10.4833 21.625 12ZM11.5 17.5V19.975V22.4V23.8L7.5 19.975L11.5 16.15V17.5ZM9.825 8.5H14.175L16.05 15.3H13.1L12.85 14.375H11.15L10.9 15.3H7.975L9.825 8.5ZM12.6 12.3L12 10.45L11.4 12.3H12.6Z" fill="black"/>
</g>
<defs>
<clipPath id="clip0_3396_13347">
<rect width="24" height="24" fill="white"/>
</clipPath>
</defs>
</svg>
