<svg width="24" height="24" viewBox="0 0 24 24" fill="none" xmlns="http://www.w3.org/2000/svg">
<g clip-path="url(#clip0_3218_6156)">
<rect width="24" height="24" fill="white"/>
<path d="M3.00049 14.7C3.76716 13.65 4.29216 12.6583 4.57549 11.725C4.85882 10.775 5.00049 9.7 5.00049 8.5C5.00049 7.13333 5.29216 5.91667 5.87549 4.85C6.47549 3.78333 7.30882 2.95833 8.37549 2.375C9.44216 1.79167 10.6505 1.5 12.0005 1.5C13.3505 1.5 14.5588 1.79167 15.6255 2.375C16.6922 2.95833 17.5172 3.78333 18.1005 4.85C18.7005 5.91667 19.0005 7.13333 19.0005 8.5C19.0005 9.7 19.1422 10.775 19.4255 11.725C19.7088 12.6583 20.2338 13.65 21.0005 14.7V19.5H3.00049V14.7ZM12.0255 22.25C11.6588 22.25 11.3172 22.1667 11.0005 22C10.6838 21.8333 10.4338 21.6 10.2505 21.3C10.0672 21.0167 9.97549 20.7083 9.97549 20.375V18.775H10.6755H11.0005C11.2338 18.775 11.4088 18.775 11.5255 18.775C11.6422 18.775 11.8088 18.775 12.0255 18.775C12.2588 18.775 12.4338 18.775 12.5505 18.775C12.6672 18.775 12.8338 18.775 13.0505 18.775H13.3755H14.0755V20.375C14.0755 20.7083 13.9838 21.0167 13.8005 21.3C13.6172 21.6 13.3672 21.8333 13.0505 22C12.7338 22.1667 12.3922 22.25 12.0255 22.25ZM18.1005 16.675V15.525C17.3505 14.3917 16.8255 13.275 16.5255 12.175C16.2422 11.075 16.1005 9.85 16.1005 8.5C16.1005 7.66667 15.9255 6.94167 15.5755 6.325C15.2422 5.69167 14.7672 5.20833 14.1505 4.875C13.5338 4.525 12.8172 4.35 12.0005 4.35C11.1838 4.35 10.4672 4.525 9.85049 4.875C9.23382 5.20833 8.75049 5.69167 8.40049 6.325C8.06716 6.94167 7.90049 7.66667 7.90049 8.5C7.90049 9.83333 7.75049 11.0583 7.45049 12.175C7.16716 13.275 6.65049 14.3917 5.90049 15.525V16.675H18.1005Z" fill="black"/>
</g>
<defs>
<clipPath id="clip0_3218_6156">
<rect width="24" height="24" fill="white"/>
</clipPath>
</defs>
</svg>
