<svg width="24" height="24" viewBox="0 0 24 24" fill="none" xmlns="http://www.w3.org/2000/svg">
<g clip-path="url(#clip0_3218_6308)">
<rect width="24" height="24" fill="white"/>
<path d="M9.35049 7.875L12.0005 9.475L14.6505 7.875V4.825L12.0005 3.225L9.35049 4.825V7.875ZM12.0005 1.175L16.4505 3.85V8.85L12.0005 11.525L7.55049 8.85V3.85L12.0005 1.175ZM15.5255 18.5L18.1505 20.075L20.7755 18.5V15.4L18.1505 13.825L15.5255 15.4V18.5ZM18.1505 11.775L22.5755 14.425V19.475L18.1505 22.125L13.7255 19.475V14.425L18.1505 11.775ZM3.22549 18.5L5.85049 20.075L8.47549 18.5V15.4L5.85049 13.825L3.22549 15.4V18.5ZM5.85049 11.775L10.2755 14.425V19.475L5.85049 22.125L1.42549 19.475V14.425L5.85049 11.775ZM13.8505 17.85H9.87549V16.1H13.8505V17.85ZM14.8755 9.675L16.8255 13.1L15.2755 13.95L13.3255 10.525L14.8755 9.675ZM10.6505 10.55L8.75049 13.925L7.20049 13.075L9.10049 9.7L10.6505 10.55Z" fill="black"/>
</g>
<defs>
<clipPath id="clip0_3218_6308">
<rect width="24" height="24" fill="white"/>
</clipPath>
</defs>
</svg>
