<svg width="24" height="24" viewBox="0 0 24 24" fill="none" xmlns="http://www.w3.org/2000/svg">
<g clip-path="url(#clip0_3218_6310)">
<rect width="24" height="24" fill="white"/>
<path d="M9.70049 7.825L12.0005 9.225L14.3005 7.825V5.175L12.0005 3.8L9.70049 5.175V7.825ZM12.0005 1.175L16.5755 3.925V9.075L12.0005 11.825L7.42549 9.075V3.925L12.0005 1.175ZM15.7255 18.15L17.9755 19.5L20.2755 18.15V15.45L17.9755 14.075L15.7255 15.45V18.15ZM17.9755 11.475L22.5505 14.2V19.4L17.9755 22.125L13.4255 19.4V14.2L17.9755 11.475ZM3.72549 18.15L6.02549 19.5L8.27549 18.15V15.45L6.02549 14.075L3.72549 15.45V18.15ZM6.02549 11.475L10.5755 14.2V19.4L6.02549 22.125L1.45049 19.4V14.2L6.02549 11.475ZM13.9005 17.975H9.82549V15.775H13.9005V17.975ZM15.0255 9.525L17.0255 13.05L15.0505 14.125L13.0505 10.6L15.0255 9.525ZM10.9255 10.625L8.97549 14.1L7.00049 13.025L8.97549 9.55L10.9255 10.625Z" fill="black"/>
</g>
<defs>
<clipPath id="clip0_3218_6310">
<rect width="24" height="24" fill="white"/>
</clipPath>
</defs>
</svg>
