<svg width="24" height="24" viewBox="0 0 24 24" fill="none" xmlns="http://www.w3.org/2000/svg">
<g clip-path="url(#clip0_3218_6312)">
<rect width="24" height="24" fill="white"/>
<path d="M10.0505 7.775L12.0005 8.95L13.9505 7.775V5.525L12.0005 4.35L10.0505 5.525V7.775ZM12.0005 1.175L16.7255 4V9.3L12.0005 12.15L7.27549 9.3V4L12.0005 1.175ZM15.9005 17.8L17.8255 18.95L19.7505 17.8V15.5L17.8255 14.35L15.9005 15.5V17.8ZM17.8255 11.15L22.5255 13.975V19.325L17.8255 22.125L13.1505 19.325V13.975L17.8255 11.15ZM4.25049 17.8L6.17549 18.95L8.10049 17.8V15.5L6.17549 14.35L4.25049 15.5V17.8ZM6.17549 11.15L10.8505 13.975V19.325L6.17549 22.125L1.47549 19.325V13.975L6.17549 11.15ZM13.9505 18.125H9.80049V15.425H13.9505V18.125ZM15.1505 9.375L17.2005 12.975L14.8255 14.3L12.7755 10.7L15.1505 9.375ZM11.2255 10.7L9.17549 14.3L6.80049 12.975L8.82549 9.375L11.2255 10.7Z" fill="black"/>
</g>
<defs>
<clipPath id="clip0_3218_6312">
<rect width="24" height="24" fill="white"/>
</clipPath>
</defs>
</svg>
