<svg width="24" height="24" viewBox="0 0 24 24" fill="none" xmlns="http://www.w3.org/2000/svg">
<g clip-path="url(#clip0_3218_6316)">
<rect width="24" height="24" fill="white"/>
<path d="M12 1.175L16.45 3.85V8.85L12 11.525L7.55 8.85V3.85L12 1.175ZM18.15 11.775L22.575 14.425V19.475L18.15 22.125L13.725 19.475V14.425L18.15 11.775ZM5.85 11.775L10.275 14.425V19.475L5.85 22.125L1.425 19.475V14.425L5.85 11.775ZM13.85 17.2H9.875V16.725H13.85V17.2ZM14.1 9.575L16.55 13.9L16.15 14.15L13.7 9.825L14.1 9.575ZM10.3 9.825L7.85 14.15L7.45 13.9L9.9 9.575L10.3 9.825Z" fill="black"/>
</g>
<defs>
<clipPath id="clip0_3218_6316">
<rect width="24" height="24" fill="white"/>
</clipPath>
</defs>
</svg>
