<svg width="24" height="24" viewBox="0 0 24 24" fill="none" xmlns="http://www.w3.org/2000/svg">
<g clip-path="url(#clip0_3218_6318)">
<rect width="24" height="24" fill="white"/>
<path d="M12 1.175L16.45 3.85V8.85L12 11.525L7.55 8.85V3.85L12 1.175ZM18.15 11.775L22.575 14.425V19.475L18.15 22.125L13.725 19.475V14.425L18.15 11.775ZM5.85 11.775L10.275 14.425V19.475L5.85 22.125L1.425 19.475V14.425L5.85 11.775ZM13.85 17.425H9.875V16.5H13.85V17.425ZM14.3 9.475L16.75 13.8L15.95 14.25L13.5 9.925L14.3 9.475ZM10.5 9.925L8.05 14.25L7.25 13.8L9.7 9.475L10.5 9.925Z" fill="black"/>
</g>
<defs>
<clipPath id="clip0_3218_6318">
<rect width="24" height="24" fill="white"/>
</clipPath>
</defs>
</svg>
