<svg width="24" height="24" viewBox="0 0 24 24" fill="none" xmlns="http://www.w3.org/2000/svg">
<g clip-path="url(#clip0_3218_6782)">
<rect width="24" height="24" fill="white"/>
<path d="M8.97549 10.05L11.2005 8.4L8.97549 6.8V10.05ZM8.97549 17.175L11.2005 15.6L8.97549 13.925V17.175ZM11.2005 12L16.3005 15.75L6.02549 22.55V15.825L4.02549 17.425L2.27549 15.125L6.17549 12L2.30049 8.875L4.05049 6.575L6.02549 8.225V1.45L16.3005 8.25L11.2005 12ZM17.4005 12.775C17.5672 12.9417 17.8172 13.2 18.1505 13.55L20.5505 15.875C21.0838 15.3917 21.4922 14.8167 21.7755 14.15C22.0755 13.4667 22.2255 12.75 22.2255 12C22.2255 11.25 22.0755 10.5417 21.7755 9.875C21.4922 9.19167 21.0838 8.60833 20.5505 8.125L18.4755 10.2C18.2422 10.4333 17.9588 10.7167 17.6255 11.05C17.2922 11.3833 16.9755 11.7 16.6755 12C16.9922 12.3333 17.2338 12.5917 17.4005 12.775ZM20.5505 12C20.5505 12.55 20.5505 13.0917 20.5505 13.625V14.35C20.5505 13.8333 20.5505 13.45 20.5505 13.2C20.5505 12.9333 20.5505 12.5333 20.5505 12C20.5505 11.4833 20.5505 11.1 20.5505 10.85C20.5505 10.5833 20.5505 10.1833 20.5505 9.65V10.375C20.5505 10.925 20.5505 11.4667 20.5505 12Z" fill="black"/>
</g>
<defs>
<clipPath id="clip0_3218_6782">
<rect width="24" height="24" fill="white"/>
</clipPath>
</defs>
</svg>
