<svg width="24" height="24" viewBox="0 0 24 24" fill="none" xmlns="http://www.w3.org/2000/svg">
<g clip-path="url(#clip0_3218_7382)">
<rect width="24" height="24" fill="white"/>
<path d="M8.35 11.575V2.325L15.425 6.95L8.35 11.575ZM8.35 21.65V12.425L15.425 17.05L8.35 21.65ZM8.525 12L16.3 6.95L7.85 1.45V11.6L2.575 8.175L2.3 8.575L7.65 12L2.3 15.425L2.575 15.825L7.85 12.4V22.55L16.3 17.05L8.525 12ZM21.5 16.2L18.95 14.25H17.05C16.7667 14.25 16.525 14.15 16.325 13.95C16.125 13.75 16.025 13.5083 16.025 13.225V10.75C16.025 10.4667 16.125 10.2333 16.325 10.05C16.525 9.85 16.7667 9.75 17.05 9.75H18.95L21.5 7.8H22V16.2H21.5Z" fill="black"/>
</g>
<defs>
<clipPath id="clip0_3218_7382">
<rect width="24" height="24" fill="white"/>
</clipPath>
</defs>
</svg>
