<svg width="24" height="24" viewBox="0 0 24 24" fill="none" xmlns="http://www.w3.org/2000/svg">
<g clip-path="url(#clip0_3218_7380)">
<rect width="24" height="24" fill="white"/>
<path d="M8.97549 10.05L11.2005 8.4L8.97549 6.8V10.05ZM8.97549 17.175L11.2005 15.6L8.97549 13.925V17.175ZM11.2005 12L16.3005 15.75L6.02549 22.55V15.825L4.02549 17.425L2.27549 15.125L6.17549 12L2.30049 8.875L4.05049 6.575L6.02549 8.225V1.45L16.3005 8.25L11.2005 12ZM20.4255 16.2H22.0005V7.8H20.4255L18.6255 9.75H17.0505C16.7672 9.75 16.5255 9.85 16.3255 10.05C16.1255 10.2333 16.0255 10.4667 16.0255 10.75V13.225C16.0255 13.5083 16.1255 13.75 16.3255 13.95C16.5255 14.15 16.7672 14.25 17.0505 14.25H18.6255L20.4255 16.2ZM17.7005 12C17.7005 12 17.7088 12 17.7255 12H19.4505H21.0755H20.3505H21.0505H19.4505H17.7255C17.7088 12 17.7005 12 17.7005 12C17.7005 12 17.6922 12 17.6755 12C17.6922 12 17.7005 12 17.7005 12Z" fill="black"/>
</g>
<defs>
<clipPath id="clip0_3218_7380">
<rect width="24" height="24" fill="white"/>
</clipPath>
</defs>
</svg>
