<svg width="24" height="24" viewBox="0 0 24 24" fill="none" xmlns="http://www.w3.org/2000/svg">
<g clip-path="url(#clip0_3218_7394)">
<rect width="24" height="24" fill="white"/>
<path d="M8.95 10.1L11.25 8.4L8.95 6.75V10.1ZM8.95 17.225L11.25 15.6L8.95 13.875V17.225ZM11.2 12L16.3 15.75L6.025 22.55V15.825L4.025 17.425L2.275 15.075L6.175 12L2.3 8.925L4.05 6.575L6.025 8.225V1.45L16.3 8.25L11.2 12ZM20.425 16.2H22V7.8H20.425L18.625 9.75H17.05C16.7667 9.75 16.525 9.85 16.325 10.05C16.125 10.2333 16.025 10.4667 16.025 10.75V13.225C16.025 13.5083 16.125 13.75 16.325 13.95C16.525 14.15 16.7667 14.25 17.05 14.25H18.625L20.425 16.2Z" fill="black"/>
</g>
<defs>
<clipPath id="clip0_3218_7394">
<rect width="24" height="24" fill="white"/>
</clipPath>
</defs>
</svg>
