<svg width="24" height="24" viewBox="0 0 24 24" fill="none" xmlns="http://www.w3.org/2000/svg">
<g clip-path="url(#clip0_3218_7118)">
<rect width="24" height="24" fill="white"/>
<path d="M8.97549 10.325L11.9005 8.15L8.97549 6.05V10.325ZM8.97549 17.95L11.9005 15.85L8.97549 13.65V17.95ZM10.7755 12L16.2005 15.95L6.47549 22.55V15.15L3.77549 17.225L2.30049 15.2L6.52549 12L2.30049 8.8L3.80049 6.775L6.47549 8.9V1.45L16.2005 8.05L10.7755 12ZM17.6255 14.35C17.6588 14.3833 17.7338 14.4417 17.8505 14.525V15.7H20.0755V14.525C20.2588 14.4083 20.4338 14.2917 20.6005 14.175L21.6255 14.8L22.7505 12.9L21.7005 12.275C21.7005 12.1417 21.7005 12.05 21.7005 12C21.7005 11.95 21.7005 11.8583 21.7005 11.725L22.7505 11.075L21.6255 9.175L20.5505 9.775C20.4338 9.70833 20.3588 9.65833 20.3255 9.625C20.2422 9.575 20.1588 9.525 20.0755 9.475V8.3H17.8505V9.475C17.7672 9.54167 17.6838 9.59167 17.6005 9.625C17.5338 9.69167 17.4505 9.75833 17.3505 9.825L16.3005 9.2L15.2005 11.1L16.2255 11.725C16.2255 11.8583 16.2255 11.95 16.2255 12C16.2255 12.05 16.2255 12.1417 16.2255 12.275L15.2005 12.925L16.3005 14.825L17.3755 14.225C17.4422 14.2583 17.5255 14.3 17.6255 14.35ZM19.6255 12.65C19.4588 12.8333 19.2422 12.925 18.9755 12.925C18.7088 12.925 18.4838 12.8417 18.3005 12.675C18.1338 12.4917 18.0505 12.2667 18.0505 12C18.0505 11.7333 18.1338 11.5167 18.3005 11.35C18.4838 11.1667 18.7088 11.075 18.9755 11.075C19.2422 11.075 19.4588 11.1667 19.6255 11.35C19.8088 11.5167 19.9005 11.7333 19.9005 12C19.9005 12.25 19.8088 12.4667 19.6255 12.65Z" fill="black"/>
</g>
<defs>
<clipPath id="clip0_3218_7118">
<rect width="24" height="24" fill="white"/>
</clipPath>
</defs>
</svg>
