<svg width="24" height="24" viewBox="0 0 24 24" fill="none" xmlns="http://www.w3.org/2000/svg">
<g clip-path="url(#clip0_3218_6440)">
<rect width="24" height="24" fill="white"/>
<path d="M8.25049 10.525L11.7755 7.875L8.25049 5.375V10.525ZM8.25049 18.65L11.7755 16.125L8.25049 13.45V18.65ZM9.57549 12L15.3755 16.175L6.15049 22.55V14.45L2.80049 17L1.55049 15.35L6.10049 12L1.55049 8.65L2.80049 7L6.15049 9.55V1.45L15.3755 7.825L9.57549 12ZM17.2255 8.65L15.7505 10.15L17.7005 12L15.7505 13.85L17.2255 15.35L19.1005 13.4L20.9505 15.35L22.4255 13.875L20.4755 12L22.4255 10.125L20.9505 8.65L19.1005 10.6L17.2255 8.65Z" fill="black"/>
</g>
<defs>
<clipPath id="clip0_3218_6440">
<rect width="24" height="24" fill="white"/>
</clipPath>
</defs>
</svg>
