<svg width="24" height="24" viewBox="0 0 24 24" fill="none" xmlns="http://www.w3.org/2000/svg">
<g clip-path="url(#clip0_3218_7374)">
<rect width="24" height="24" fill="white"/>
<path d="M9.02549 10.75L13.1755 7.625L9.02549 4.65V10.75ZM9.02549 19.375L13.1755 16.375L9.02549 13.225V19.375ZM9.90049 12L16.0255 16.375L7.35049 22.55V13.775L3.30049 16.8L2.32549 15.475L7.20049 12L2.30049 8.525L3.30049 7.2L7.35049 10.225V1.45L16.0255 7.625L9.90049 12ZM20.4755 16.2H22.0005V7.8H20.4755L18.3755 9.5H17.0505C16.7672 9.5 16.5255 9.6 16.3255 9.8C16.1255 9.98333 16.0255 10.2167 16.0255 10.5V13.475C16.0255 13.7583 16.1255 14 16.3255 14.2C16.5255 14.4 16.7672 14.5 17.0505 14.5H18.3755L20.4755 16.2ZM17.5755 11.025C17.5922 11.0083 17.6088 11 17.6255 11H18.9255L20.8505 9.45L20.4505 9.075V14.925L20.8255 14.55L18.9255 13H17.6255C17.6088 13 17.5922 13 17.5755 13C17.5755 12.9833 17.5755 12.9667 17.5755 12.95V11.05C17.5755 11.0333 17.5755 11.025 17.5755 11.025Z" fill="black"/>
</g>
<defs>
<clipPath id="clip0_3218_7374">
<rect width="24" height="24" fill="white"/>
</clipPath>
</defs>
</svg>
