<svg width="24" height="24" viewBox="0 0 24 24" fill="none" xmlns="http://www.w3.org/2000/svg">
<g clip-path="url(#clip0_3217_5214)">
<rect width="24" height="24" fill="white"/>
<path d="M8.35049 11.575L15.4255 6.95L8.35049 2.325V11.575ZM8.35049 21.65L15.4255 17.05L8.35049 12.425V21.65ZM8.52549 12L16.3005 17.05L7.85049 22.55V12.4L2.57549 15.825L2.30049 15.425L7.65049 12L2.30049 8.575L2.57549 8.175L7.85049 11.6V1.45L16.3005 6.95L8.52549 12ZM17.8505 13.975C18.1338 14.125 18.4255 14.2167 18.7255 14.25V15.625H19.2255V14.25C19.8922 14.1667 20.4172 13.875 20.8005 13.375L22.0005 14.05L22.2505 13.625L21.0505 12.95C21.1838 12.65 21.2505 12.3333 21.2505 12C21.2505 11.65 21.1838 11.325 21.0505 11.025L22.2505 10.375L22.0005 9.95L20.8005 10.625C20.4005 10.125 19.8755 9.83333 19.2255 9.75V8.375H18.7255V9.75C18.4255 9.78333 18.1338 9.875 17.8505 10.025C17.5672 10.175 17.3255 10.375 17.1255 10.625L15.9505 9.95L15.7005 10.375L16.9005 11.05C16.7838 11.35 16.7255 11.675 16.7255 12.025C16.7255 12.3583 16.7838 12.675 16.9005 12.975L15.7005 13.625L15.9505 14.05L17.1255 13.375C17.3255 13.625 17.5672 13.825 17.8505 13.975ZM20.2005 13.25C19.8672 13.5833 19.4588 13.75 18.9755 13.75C18.4922 13.75 18.0755 13.5833 17.7255 13.25C17.3922 12.9 17.2255 12.4833 17.2255 12C17.2255 11.5167 17.3922 11.1083 17.7255 10.775C18.0755 10.425 18.4922 10.25 18.9755 10.25C19.4588 10.25 19.8672 10.425 20.2005 10.775C20.5505 11.1083 20.7255 11.5167 20.7255 12C20.7255 12.4833 20.5505 12.9 20.2005 13.25Z" fill="black"/>
</g>
<defs>
<clipPath id="clip0_3217_5214">
<rect width="24" height="24" fill="white"/>
</clipPath>
</defs>
</svg>
