<svg width="24" height="24" viewBox="0 0 24 24" fill="none" xmlns="http://www.w3.org/2000/svg">
<g clip-path="url(#clip0_3218_7120)">
<rect width="24" height="24" fill="white"/>
<path d="M8.95049 10.1L11.2505 8.4L8.95049 6.75V10.1ZM8.95049 17.225L11.2505 15.6L8.95049 13.875V17.225ZM11.2005 12L16.3005 15.75L6.02549 22.55V15.825L4.02549 17.425L2.27549 15.075L6.17549 12L2.30049 8.925L4.05049 6.575L6.02549 8.225V1.45L16.3005 8.25L11.2005 12ZM17.5505 14.475C17.6005 14.5083 17.6505 14.55 17.7005 14.6V15.75H20.2255V14.6C20.3588 14.5 20.4838 14.4083 20.6005 14.325L21.6005 14.925L22.8505 12.825L21.8255 12.175C21.8255 12.0917 21.8255 12.0333 21.8255 12C21.8255 11.9667 21.8255 11.9083 21.8255 11.825L22.8505 11.175L21.6005 9.025L20.5255 9.625C20.4755 9.575 20.4255 9.53333 20.3755 9.5C20.3255 9.46667 20.2755 9.43333 20.2255 9.4V8.25H17.7005V9.4C17.6338 9.46667 17.5755 9.50833 17.5255 9.525C17.4755 9.575 17.4172 9.625 17.3505 9.675L16.3255 9.075L15.1005 11.175L16.0755 11.825C16.0755 11.9083 16.0755 11.9667 16.0755 12C16.0755 12.0333 16.0755 12.0917 16.0755 12.175L15.1005 12.825L16.3255 14.975L17.3755 14.375C17.4255 14.4083 17.4838 14.4417 17.5505 14.475ZM19.5755 12.6C19.4088 12.7667 19.2088 12.85 18.9755 12.85C18.7422 12.85 18.5422 12.7667 18.3755 12.6C18.2088 12.4333 18.1255 12.2333 18.1255 12C18.1255 11.7667 18.2088 11.5667 18.3755 11.4C18.5422 11.2333 18.7422 11.15 18.9755 11.15C19.2088 11.15 19.4088 11.2333 19.5755 11.4C19.7422 11.5667 19.8255 11.7667 19.8255 12C19.8255 12.2167 19.7422 12.4167 19.5755 12.6Z" fill="black"/>
</g>
<defs>
<clipPath id="clip0_3218_7120">
<rect width="24" height="24" fill="white"/>
</clipPath>
</defs>
</svg>
