<svg width="24" height="24" viewBox="0 0 24 24" fill="none" xmlns="http://www.w3.org/2000/svg">
<g clip-path="url(#clip0_3217_5162)">
<rect width="24" height="24" fill="white"/>
<path d="M7.60049 11.575L14.6755 6.95L7.60049 2.325V11.575ZM7.60049 21.65L14.6755 17.05L7.60049 12.425V21.65ZM7.77549 12L15.5505 17.05L7.10049 22.55V12.4L1.82549 15.825L1.55049 15.425L6.90049 12L1.55049 8.575L1.82549 8.175L7.10049 11.6V1.45L15.5505 6.95L7.77549 12ZM16.4255 8.8L16.0755 9.15L18.9255 12L16.0755 14.85L16.4255 15.2L19.2755 12.35L22.1255 15.2L22.4755 14.85L19.6255 12L22.4755 9.15L22.1255 8.8L19.2755 11.65L16.4255 8.8Z" fill="black"/>
</g>
<defs>
<clipPath id="clip0_3217_5162">
<rect width="24" height="24" fill="white"/>
</clipPath>
</defs>
</svg>
