<svg width="24" height="24" viewBox="0 0 24 24" fill="none" xmlns="http://www.w3.org/2000/svg">
<g clip-path="url(#clip0_3218_7372)">
<rect width="24" height="24" fill="white"/>
<path d="M8.80049 11.025L13.9255 7.4L8.80049 3.875V11.025ZM8.80049 20.125L13.9255 16.6L8.80049 12.95V20.125ZM9.45049 12L16.1255 16.6L7.52549 22.55V13.325L3.05049 16.475L2.32549 15.45L7.35049 12L2.30049 8.55L3.05049 7.525L7.52549 10.675V1.45L16.1255 7.4L9.45049 12ZM20.8255 16.2H22.0005V7.8H20.8255L18.5755 9.575H17.0505C16.7672 9.575 16.5255 9.675 16.3255 9.875C16.1255 10.0583 16.0255 10.2917 16.0255 10.575V13.4C16.0255 13.6833 16.1255 13.925 16.3255 14.125C16.5255 14.325 16.7672 14.425 17.0505 14.425H18.5755L20.8255 16.2ZM17.2755 10.825C17.3255 10.775 17.3838 10.75 17.4505 10.75H19.0005L21.1005 9.075L20.8005 8.775V15.225L21.1005 14.925L19.0005 13.25H17.4505C17.3838 13.25 17.3255 13.2333 17.2755 13.2C17.2422 13.15 17.2255 13.1 17.2255 13.05V10.95C17.2255 10.9 17.2422 10.8583 17.2755 10.825Z" fill="black"/>
</g>
<defs>
<clipPath id="clip0_3218_7372">
<rect width="24" height="24" fill="white"/>
</clipPath>
</defs>
</svg>
