<svg width="24" height="24" viewBox="0 0 24 24" fill="none" xmlns="http://www.w3.org/2000/svg">
<g clip-path="url(#clip0_3218_6438)">
<rect width="24" height="24" fill="white"/>
<path d="M8.27549 10.75L12.4255 7.625L8.27549 4.65V10.75ZM8.27549 19.375L12.4255 16.375L8.27549 13.225V19.375ZM9.15049 12L15.2755 16.375L6.60049 22.55V13.775L2.55049 16.8L1.57549 15.475L6.45049 12L1.55049 8.525L2.55049 7.2L6.60049 10.225V1.45L15.2755 7.625L9.15049 12ZM17.2005 8.775L16.0505 9.95L18.1505 12L16.0505 14.05L17.2005 15.225L19.2755 13.1L21.3255 15.225L22.4755 14.05L20.3755 12L22.4755 9.95L21.3255 8.775L19.2755 10.9L17.2005 8.775Z" fill="black"/>
</g>
<defs>
<clipPath id="clip0_3218_6438">
<rect width="24" height="24" fill="white"/>
</clipPath>
</defs>
</svg>
