<svg width="24" height="24" viewBox="0 0 24 24" fill="none" xmlns="http://www.w3.org/2000/svg">
<g clip-path="url(#clip0_3218_7378)">
<rect width="24" height="24" fill="white"/>
<path d="M8.97549 10.325L11.9005 8.15L8.97549 6.05V10.325ZM8.97549 17.95L11.9005 15.85L8.97549 13.65V17.95ZM10.7755 12L16.2005 15.95L6.47549 22.55V15.15L3.77549 17.225L2.30049 15.2L6.52549 12L2.30049 8.8L3.80049 6.775L6.47549 8.9V1.45L16.2005 8.05L10.7755 12ZM20.2005 15.625H21.6755V8.375H20.2005L18.5505 10.025H17.3505C17.1005 10.025 16.8838 10.1167 16.7005 10.3C16.5338 10.4667 16.4505 10.675 16.4505 10.925V13.05C16.4505 13.3 16.5338 13.5167 16.7005 13.7C16.8838 13.8833 17.1005 13.975 17.3505 13.975H18.5505L20.2005 15.625ZM17.9255 12C17.9255 12 17.9338 12 17.9505 12H19.1255H20.7005H20.0755H20.6755H19.1255H17.9505C17.9338 12 17.9255 12 17.9255 12C17.9255 12 17.9172 12 17.9005 12C17.9172 12 17.9255 12 17.9255 12Z" fill="black"/>
</g>
<defs>
<clipPath id="clip0_3218_7378">
<rect width="24" height="24" fill="white"/>
</clipPath>
</defs>
</svg>
