<svg width="24" height="24" viewBox="0 0 24 24" fill="none" xmlns="http://www.w3.org/2000/svg">
<g clip-path="url(#clip0_3218_7116)">
<rect width="24" height="24" fill="white"/>
<path d="M9.00049 10.525L12.5255 7.875L9.00049 5.35V10.525ZM9.00049 18.65L12.5255 16.125L9.00049 13.45V18.65ZM10.3255 12L16.1255 16.175L6.90049 22.55V14.45L3.55049 17L2.30049 15.35L6.85049 12L2.30049 8.65L3.55049 7L6.90049 9.55V1.45L16.1255 7.825L10.3255 12ZM17.7005 14.25C17.7505 14.2833 17.8588 14.35 18.0255 14.45V15.675H19.9755V14.45C20.1922 14.3 20.4088 14.1667 20.6255 14.05L21.7005 14.65L22.6505 13L21.5755 12.35C21.5755 12.2 21.5755 12.0833 21.5755 12C21.5755 11.9167 21.5755 11.7917 21.5755 11.625L22.6505 11L21.7005 9.325L20.6005 9.95C20.4338 9.83333 20.3255 9.75833 20.2755 9.725C20.1755 9.65833 20.0755 9.6 19.9755 9.55V8.325H18.0255V9.55C17.9088 9.61667 17.8005 9.68333 17.7005 9.75C17.6005 9.81667 17.4922 9.88333 17.3755 9.95L16.3005 9.35L15.3505 11L16.4255 11.65C16.4255 11.8 16.4255 11.9167 16.4255 12C16.4255 12.0833 16.4255 12.2083 16.4255 12.375L15.3505 13L16.3005 14.675L17.3755 14.05C17.4922 14.1167 17.6005 14.1833 17.7005 14.25ZM19.7255 12.725C19.5255 12.925 19.2838 13.025 19.0005 13.025C18.7172 13.025 18.4755 12.925 18.2755 12.725C18.0755 12.525 17.9755 12.2833 17.9755 12C17.9755 11.7167 18.0755 11.475 18.2755 11.275C18.4755 11.075 18.7172 10.975 19.0005 10.975C19.2838 10.975 19.5255 11.075 19.7255 11.275C19.9255 11.475 20.0255 11.7167 20.0255 12C20.0255 12.2833 19.9255 12.525 19.7255 12.725Z" fill="black"/>
</g>
<defs>
<clipPath id="clip0_3218_7116">
<rect width="24" height="24" fill="white"/>
</clipPath>
</defs>
</svg>
