<svg width="24" height="24" viewBox="0 0 24 24" fill="none" xmlns="http://www.w3.org/2000/svg">
<g clip-path="url(#clip0_3218_6054)">
<rect width="24" height="24" fill="white"/>
<path d="M10.2005 17.5H13.8005V21H10.2005V17.5ZM17.5005 17.575H21.0005V21H17.5005V17.575ZM10.2505 10.275H13.7505V13.675H10.2505V10.275ZM17.5005 10.275H21.0005V13.675H17.5005V10.275ZM10.2505 3H13.7505V6.4H10.2505V3ZM17.5005 3H21.0005V6.4H17.5005V3ZM3.00049 17.5H6.60049V21H3.00049V17.5ZM3.05049 10.275H6.55049V13.675H3.05049V10.275ZM3.05049 3H6.55049V6.4H3.05049V3Z" fill="black"/>
</g>
<defs>
<clipPath id="clip0_3218_6054">
<rect width="24" height="24" fill="white"/>
</clipPath>
</defs>
</svg>
