<svg width="24" height="24" viewBox="0 0 24 24" fill="none" xmlns="http://www.w3.org/2000/svg">
<g clip-path="url(#clip0_3218_7346)">
<rect width="24" height="24" fill="white"/>
<path d="M10.6755 13.7C10.7088 13.7 10.7255 13.7 10.7255 13.7C10.7255 13.7 10.7088 13.7 10.6755 13.7H10.1005H9.77549H10.3505C10.4172 13.7 10.4588 13.7 10.4755 13.7C10.5088 13.7 10.5588 13.7 10.6255 13.7H10.6755ZM10.5505 13.7C10.5172 13.7 10.4922 13.7 10.4755 13.7C10.4755 13.7 10.4588 13.7 10.4255 13.7H9.87549H10.0505H10.6005C10.6172 13.7 10.6255 13.7 10.6255 13.7C10.6255 13.7 10.6172 13.7 10.6005 13.7H10.5505ZM10.3255 13.7H10.5505H10.4755H10.2255H10.3255ZM14.6255 8.275C14.7422 8.15833 14.8588 8.1 14.9755 8.1C15.1088 8.1 15.2255 8.15833 15.3255 8.275L15.7255 8.675C15.8255 8.775 15.8755 8.89167 15.8755 9.025C15.8755 9.14167 15.8172 9.25833 15.7005 9.375L14.9505 10.125L13.8755 9.05L14.6255 8.275ZM8.92549 16.125H7.87549V15.075L13.0255 9.9L14.0755 10.975L8.92549 16.125ZM11.2255 19.475H12.7755V21H11.2255V19.475ZM19.5005 19.55H21.0005V21H19.5005V19.55ZM19.5005 11.25H21.0005V12.7H19.5005V11.25ZM11.2505 3H12.7505V4.45H11.2505V3ZM19.5005 3H21.0005V4.45H19.5005V3ZM3.00049 19.475H4.57549V21H3.00049V19.475ZM3.02549 11.25H4.52549V12.7H3.02549V11.25ZM3.02549 3H4.52549V4.45H3.02549V3Z" fill="black"/>
</g>
<defs>
<clipPath id="clip0_3218_7346">
<rect width="24" height="24" fill="white"/>
</clipPath>
</defs>
</svg>
