<svg width="24" height="24" viewBox="0 0 24 24" fill="none" xmlns="http://www.w3.org/2000/svg">
<g clip-path="url(#clip0_3218_7368)">
<rect width="24" height="24" fill="white"/>
<path d="M3 16.25H6.25V17.8H7.8V21H3V16.25ZM8.85 17.8H15.15V21H8.85V17.8ZM3 8.8H6.25V15.2H3V8.8ZM3 3H7.8V6.2H6.25V7.8H3V3ZM16.25 17.8H17.75V16.25H21V21H16.25V17.8ZM8.85 3H15.15V6.2H8.85V3ZM17.75 8.8H21V15.2H17.75V8.8ZM17.75 6.2H16.25V3H21V7.8H17.75V6.2ZM8.375 12.875L13.175 8.025C13.4083 7.79167 13.6417 7.675 13.875 7.675C14.125 7.675 14.3583 7.79167 14.575 8.025L15.9 9.35C16.1333 9.58333 16.25 9.81667 16.25 10.05C16.25 10.2833 16.1333 10.5167 15.9 10.75L11.075 15.625L8.125 15.875L8.375 12.875ZM13.8 10.05H13.875C13.8917 10.05 13.9 10.05 13.9 10.05C13.9167 10.05 13.9333 10.05 13.95 10.05H14C14.0167 10.05 14.025 10.05 14.025 10.05C14.025 10.05 14.0167 10.05 14 10.05H13.925H13.8Z" fill="black"/>
</g>
<defs>
<clipPath id="clip0_3218_7368">
<rect width="24" height="24" fill="white"/>
</clipPath>
</defs>
</svg>
