<svg width="24" height="24" viewBox="0 0 24 24" fill="none" xmlns="http://www.w3.org/2000/svg">
<g clip-path="url(#clip0_3218_7358)">
<rect width="24" height="24" fill="white"/>
<path d="M3 17.275H3.95V20.075H6.725V21H3V17.275ZM8.725 20.075H15.275V21H8.725V20.075ZM3 8.725H3.95V15.275H3V8.725ZM3 3H6.725V3.925H3.95V6.725H3V3ZM17.275 20.075H20.05V17.275H21V21H17.275V20.075ZM8.725 3H15.275V3.925H8.725V3ZM20.05 8.725H21V15.275H20.05V8.725ZM20.05 3.925H17.275V3H21V6.725H20.05V3.925ZM14.125 7.925C14.2583 7.775 14.4083 7.7 14.575 7.7C14.7583 7.7 14.925 7.775 15.075 7.925L16.05 8.925C16.1833 9.05833 16.25 9.21667 16.25 9.4C16.25 9.56667 16.1833 9.71667 16.05 9.85L14.95 10.925L13.05 9.025L14.125 7.925ZM9.775 16.125H7.875V14.2L12.55 9.525L14.45 11.45L9.775 16.125Z" fill="black"/>
</g>
<defs>
<clipPath id="clip0_3218_7358">
<rect width="24" height="24" fill="white"/>
</clipPath>
</defs>
</svg>
