<svg width="24" height="24" viewBox="0 0 24 24" fill="none" xmlns="http://www.w3.org/2000/svg">
<g clip-path="url(#clip0_3218_7358)">
<rect width="24" height="24" fill="white"/>
<path d="M3 17.275H3.95V20.075H6.725V21H3V17.275ZM8.725 20.075H15.275V21H8.725V20.075ZM3 8.725H3.95V15.275H3V8.725ZM3 3H6.725V3.925H3.95V6.725H3V3ZM17.275 20.075H20.05V17.275H21V21H17.275V20.075ZM8.725 3H15.275V3.925H8.725V3ZM20.05 8.725H21V15.275H20.05V8.725ZM20.05 3.925H17.275V3H21V6.725H20.05V3.925ZM7.875 14.7L13.1 9.475C13.1833 9.575 13.25 9.65 13.3 9.7C13.35 9.73333 13.4167 9.8 13.5 9.9L14.05 10.45C14.1333 10.55 14.2 10.625 14.25 10.675C14.3167 10.725 14.4 10.8 14.5 10.9L9.275 16.125L7.625 16.375L7.875 14.7ZM13.675 8.9L14.55 8C14.6833 7.86667 14.825 7.8 14.975 7.8C15.125 7.8 15.2667 7.86667 15.4 8L15.975 8.575C16.1083 8.70833 16.175 8.85 16.175 9C16.175 9.15 16.1083 9.29167 15.975 9.425L15.075 10.3L13.675 8.9Z" fill="black"/>
</g>
<defs>
<clipPath id="clip0_3218_7358">
<rect width="24" height="24" fill="white"/>
</clipPath>
</defs>
</svg>
