<svg width="24" height="24" viewBox="0 0 24 24" fill="none" xmlns="http://www.w3.org/2000/svg">
<g clip-path="url(#clip0_3218_7364)">
<rect width="24" height="24" fill="white"/>
<path d="M3 16.775H5.325V18.725H7.2V21H3V16.775ZM8.9 18.725H15.1V21H8.9V18.725ZM3 8.9H5.325V15.1H3V8.9ZM3 3H7.2V5.275H5.325V7.225H3V3ZM16.8 18.725H18.675V16.775H21V21H16.8V18.725ZM8.9 3H15.1V5.275H8.9V3ZM18.675 8.9H21V15.1H18.675V8.9ZM18.675 5.275H16.8V3H21V7.225H18.675V5.275ZM7.9 14.425L12.4 9.925C12.5167 10.0417 12.6 10.1333 12.65 10.2C12.7167 10.25 12.8083 10.3333 12.925 10.45L13.525 11.075C13.6417 11.1917 13.725 11.2833 13.775 11.35C13.8417 11.4 13.9333 11.4833 14.05 11.6L9.55 16.1L7.625 16.375L7.9 14.425ZM13.45 8.875L14.425 7.875C14.5583 7.74167 14.7 7.675 14.85 7.675C15.0167 7.675 15.1583 7.74167 15.275 7.875L16.1 8.7C16.2333 8.81667 16.3 8.95 16.3 9.1C16.3 9.25 16.2333 9.4 16.1 9.55L15.1 10.525L13.45 8.875Z" fill="black"/>
</g>
<defs>
<clipPath id="clip0_3218_7364">
<rect width="24" height="24" fill="white"/>
</clipPath>
</defs>
</svg>
