<svg width="24" height="24" viewBox="0 0 24 24" fill="none" xmlns="http://www.w3.org/2000/svg">
<g clip-path="url(#clip0_3218_6044)">
<rect width="24" height="24" fill="white"/>
<path d="M11.4755 20H12.5255V21H11.4755V20ZM20.0005 20.025H21.0005V21H20.0005V20.025ZM11.5005 11.5H12.5005V12.475H11.5005V11.5ZM20.0005 11.5H21.0005V12.475H20.0005V11.5ZM11.5005 3H12.5005V3.975H11.5005V3ZM20.0005 3H21.0005V3.975H20.0005V3ZM3.00049 20H4.02549V21H3.00049V20ZM3.02549 11.5H4.02549V12.475H3.02549V11.5ZM3.02549 3H4.02549V3.975H3.02549V3Z" fill="black"/>
</g>
<defs>
<clipPath id="clip0_3218_6044">
<rect width="24" height="24" fill="white"/>
</clipPath>
</defs>
</svg>
