<svg width="24" height="24" viewBox="0 0 24 24" fill="none" xmlns="http://www.w3.org/2000/svg">
<g clip-path="url(#clip0_3218_7360)">
<rect width="24" height="24" fill="white"/>
<path d="M3 17.15H4.4V19.65H6.825V21H3V17.15ZM8.825 19.65H15.175V21H8.825V19.65ZM3 8.825H4.4V15.15H3V8.825ZM3 3H6.825V4.35H4.4V6.825H3V3ZM17.175 19.65H19.6V17.15H21V21H17.175V19.65ZM8.825 3H15.175V4.35H8.825V3ZM19.6 8.825H21V15.15H19.6V8.825ZM19.6 4.35H17.175V3H21V6.825H19.6V4.35ZM14.125 7.925C14.275 7.775 14.4333 7.7 14.6 7.7C14.7667 7.7 14.925 7.775 15.075 7.925L16.05 8.925C16.1833 9.05833 16.25 9.21667 16.25 9.4C16.25 9.56667 16.1833 9.71667 16.05 9.85L15.05 10.825L13.15 8.925L14.125 7.925ZM9.775 16.125H7.875V14.2L12.45 9.625L14.35 11.55L9.775 16.125Z" fill="black"/>
</g>
<defs>
<clipPath id="clip0_3218_7360">
<rect width="24" height="24" fill="white"/>
</clipPath>
</defs>
</svg>
