<svg width="24" height="24" viewBox="0 0 24 24" fill="none" xmlns="http://www.w3.org/2000/svg">
<g clip-path="url(#clip0_3218_6028)">
<rect width="24" height="24" fill="white"/>
<path d="M3.67549 17.825L6.52549 15L9.00049 17.475L6.17549 20.325L3.67549 17.825ZM2.00049 10.225H6.00049V13.775H2.00049V10.225ZM10.2255 18H13.7755V22H10.2255V18ZM15.0005 17.475L17.4755 15L20.3255 17.825L17.8255 20.325L15.0005 17.475ZM3.67549 6.175L6.17549 3.675L8.97549 6.525L6.52549 9L3.67549 6.175ZM10.2255 2H13.7755V6H10.2255V2ZM18.0005 10.225H22.0005V13.775H18.0005V10.225ZM15.0005 6.525L17.8255 3.675L20.3255 6.175L17.4755 9L15.0005 6.525ZM9.82549 8.175H14.1755L16.0505 14.975H13.1005L12.8505 14.05H11.1505L10.9005 14.975H7.97549L9.82549 8.175ZM12.6005 11.975L12.0005 10.125L11.4005 11.975H12.6005Z" fill="black"/>
</g>
<defs>
<clipPath id="clip0_3218_6028">
<rect width="24" height="24" fill="white"/>
</clipPath>
</defs>
</svg>
