<svg width="24" height="24" viewBox="0 0 24 24" fill="none" xmlns="http://www.w3.org/2000/svg">
<g clip-path="url(#clip0_3218_6024)">
<rect width="24" height="24" fill="white"/>
<path d="M4.05049 18.2L6.55049 15.725L8.27549 17.45L5.80049 19.95L4.05049 18.2ZM2.00049 10.775H5.52549V13.225H2.00049V10.775ZM10.7505 18.475H13.2505V22H10.7505V18.475ZM15.7255 17.45L17.4505 15.725L19.9505 18.2L18.2005 19.95L15.7255 17.45ZM4.05049 5.8L5.80049 4.05L8.27549 6.55L6.55049 8.275L4.05049 5.8ZM10.7505 2H13.2505V5.525H10.7505V2ZM18.4755 10.775H22.0005V13.225H18.4755V10.775ZM15.7255 6.55L18.2005 4.05L19.9505 5.8L17.4505 8.275L15.7255 6.55ZM10.5255 8.175H13.5005L15.7005 14.975H13.5005L13.1255 13.675H10.9255L10.5255 14.975H8.35049L10.5255 8.175ZM12.7755 12.05L12.0005 9.8L11.2505 12.05H12.7755Z" fill="black"/>
</g>
<defs>
<clipPath id="clip0_3218_6024">
<rect width="24" height="24" fill="white"/>
</clipPath>
</defs>
</svg>
