<svg width="24" height="24" viewBox="0 0 24 24" fill="none" xmlns="http://www.w3.org/2000/svg">
<g clip-path="url(#clip0_3218_6022)">
<rect width="24" height="24" fill="white"/>
<path d="M4.25049 18.4L6.57549 16.075L7.92549 17.425L5.60049 19.75L4.25049 18.4ZM2.00049 11.05H5.30049V12.95H2.00049V11.05ZM11.0255 18.7H12.9755V22H11.0255V18.7ZM16.0755 17.425L17.4255 16.075L19.7505 18.4L18.4005 19.75L16.0755 17.425ZM4.25049 5.6L5.60049 4.25L7.92549 6.575L6.57549 7.925L4.25049 5.6ZM11.0255 2H12.9755V5.3H11.0255V2ZM18.7005 11.05H22.0005V12.95H18.7005V11.05ZM16.0755 6.575L18.4005 4.25L19.7505 5.6L17.4255 7.925L16.0755 6.575ZM10.8755 8.175H13.1755L15.5255 14.975H13.7005L13.2505 13.5H10.8255L10.3505 14.975H8.52549L10.8755 8.175ZM12.8755 12.1L12.0005 9.65L11.1755 12.1H12.8755Z" fill="black"/>
</g>
<defs>
<clipPath id="clip0_3218_6022">
<rect width="24" height="24" fill="white"/>
</clipPath>
</defs>
</svg>
