<svg width="24" height="24" viewBox="0 0 24 24" fill="none" xmlns="http://www.w3.org/2000/svg">
<g clip-path="url(#clip0_3218_7302)">
<rect width="24" height="24" fill="white"/>
<path d="M4.60049 8.55H18.8255V12H4.60049V8.55ZM7.50049 21C6.66716 21 5.90882 20.8 5.22549 20.4C4.54216 20 4.00049 19.4583 3.60049 18.775C3.20049 18.0917 3.00049 17.3333 3.00049 16.5V7.5C3.00049 6.66667 3.20049 5.90833 3.60049 5.225C4.00049 4.54167 4.54216 4 5.22549 3.6C5.90882 3.2 6.66716 3 7.50049 3H16.2505C17.1172 3 17.9088 3.2 18.6255 3.6C19.3588 4 19.9338 4.54167 20.3505 5.225C20.7838 5.90833 21.0005 6.66667 21.0005 7.5V16.5C21.0005 17.3333 20.8005 18.0917 20.4005 18.775C20.0005 19.4583 19.4588 20 18.7755 20.4C18.0922 20.8 17.3338 21 16.5005 21H7.50049ZM16.5005 17.45C16.7505 17.45 16.9588 17.3583 17.1255 17.175C17.3088 16.9917 17.4005 16.7667 17.4005 16.5V7.475C17.4005 7.20833 17.3088 6.99167 17.1255 6.825C16.9588 6.64167 16.7505 6.55 16.5005 6.55H7.50049C7.25049 6.55 7.03382 6.64167 6.85049 6.825C6.68382 7.00833 6.60049 7.23333 6.60049 7.5V16.5C6.60049 16.7667 6.68382 16.9917 6.85049 17.175C7.03382 17.3583 7.25049 17.45 7.50049 17.45H16.5005Z" fill="black"/>
</g>
<defs>
<clipPath id="clip0_3218_7302">
<rect width="24" height="24" fill="white"/>
</clipPath>
</defs>
</svg>
