<svg width="24" height="24" viewBox="0 0 24 24" fill="none" xmlns="http://www.w3.org/2000/svg">
<g clip-path="url(#clip0_3218_7038)">
<rect width="24" height="24" fill="white"/>
<path d="M7.50049 19.25C6.16716 19.25 4.94216 18.9333 3.82549 18.3C2.72549 17.65 1.85049 16.775 1.20049 15.675C0.567155 14.5583 0.250488 13.3333 0.250488 12C0.250488 10.6667 0.567155 9.45 1.20049 8.35C1.85049 7.23333 2.72549 6.35833 3.82549 5.725C4.94216 5.075 6.16716 4.75 7.50049 4.75H16.5005C17.8338 4.75 19.0505 5.075 20.1505 5.725C21.2672 6.35833 22.1422 7.23333 22.7755 8.35C23.4255 9.45 23.7505 10.6667 23.7505 12C23.7505 13.3333 23.4255 14.5583 22.7755 15.675C22.1422 16.775 21.2672 17.65 20.1505 18.3C19.0505 18.9333 17.8338 19.25 16.5005 19.25H7.50049ZM16.5005 16.75C17.3672 16.75 18.1588 16.5417 18.8755 16.125C19.5922 15.7083 20.1588 15.1333 20.5755 14.4C20.9922 13.6667 21.2005 12.8667 21.2005 12C21.2005 11.1333 20.9922 10.3333 20.5755 9.6C20.1588 8.86667 19.5922 8.29167 18.8755 7.875C18.1588 7.45833 17.3672 7.25 16.5005 7.25H7.50049C6.63382 7.25 5.84216 7.45833 5.12549 7.875C4.40882 8.29167 3.84216 8.86667 3.42549 9.6C3.00882 10.3333 2.80049 11.1333 2.80049 12C2.80049 12.8667 3.00882 13.6667 3.42549 14.4C3.84216 15.1333 4.40882 15.7083 5.12549 16.125C5.84216 16.5417 6.63382 16.75 7.50049 16.75H16.5005Z" fill="black"/>
</g>
<defs>
<clipPath id="clip0_3218_7038">
<rect width="24" height="24" fill="white"/>
</clipPath>
</defs>
</svg>
