<svg width="24" height="24" viewBox="0 0 24 24" fill="none" xmlns="http://www.w3.org/2000/svg">
<g clip-path="url(#clip0_3218_7034)">
<rect width="24" height="24" fill="white"/>
<path d="M6.82549 18.825C5.57549 18.825 4.42549 18.525 3.37549 17.925C2.32549 17.325 1.50049 16.5 0.900488 15.45C0.300488 14.4 0.000488281 13.25 0.000488281 12C0.000488281 10.75 0.300488 9.6 0.900488 8.55C1.50049 7.5 2.32549 6.675 3.37549 6.075C4.42549 5.475 5.57549 5.175 6.82549 5.175H17.1755C18.4255 5.175 19.5755 5.475 20.6255 6.075C21.6755 6.675 22.5005 7.5 23.1005 8.55C23.7005 9.6 24.0005 10.75 24.0005 12C24.0005 13.25 23.7005 14.4 23.1005 15.45C22.5005 16.5 21.6755 17.325 20.6255 17.925C19.5755 18.525 18.4255 18.825 17.1755 18.825H6.82549ZM17.1755 17.4C18.1588 17.4 19.0588 17.1667 19.8755 16.7C20.6922 16.2167 21.3338 15.5583 21.8005 14.725C22.2838 13.8917 22.5255 12.9833 22.5255 12C22.5255 11.0167 22.2838 10.1083 21.8005 9.275C21.3338 8.44167 20.6922 7.79167 19.8755 7.325C19.0588 6.84167 18.1588 6.6 17.1755 6.6H6.82549C5.84216 6.6 4.94216 6.84167 4.12549 7.325C3.30882 7.79167 2.65882 8.44167 2.17549 9.275C1.70882 10.1083 1.47549 11.0167 1.47549 12C1.47549 12.9833 1.70882 13.8917 2.17549 14.725C2.65882 15.5583 3.30882 16.2167 4.12549 16.7C4.94216 17.1667 5.84216 17.4 6.82549 17.4H17.1755Z" fill="black"/>
</g>
<defs>
<clipPath id="clip0_3218_7034">
<rect width="24" height="24" fill="white"/>
</clipPath>
</defs>
</svg>
