<svg width="24" height="24" viewBox="0 0 24 24" fill="none" xmlns="http://www.w3.org/2000/svg">
<g clip-path="url(#clip0_3218_7036)">
<rect width="24" height="24" fill="white"/>
<path d="M7.25049 19C5.96716 19 4.78382 18.6917 3.70049 18.075C2.63382 17.4583 1.79216 16.6167 1.17549 15.55C0.558822 14.4667 0.250488 13.2833 0.250488 12C0.250488 10.7167 0.558822 9.54167 1.17549 8.475C1.79216 7.39167 2.63382 6.54167 3.70049 5.925C4.78382 5.30833 5.96716 5 7.25049 5H16.7505C18.0338 5 19.2088 5.30833 20.2755 5.925C21.3588 6.54167 22.2088 7.39167 22.8255 8.475C23.4422 9.54167 23.7505 10.7167 23.7505 12C23.7505 13.2833 23.4422 14.4667 22.8255 15.55C22.2088 16.6167 21.3588 17.4583 20.2755 18.075C19.2088 18.6917 18.0338 19 16.7505 19H7.25049ZM16.7505 17.1C17.6838 17.1 18.5338 16.875 19.3005 16.425C20.0672 15.975 20.6755 15.3583 21.1255 14.575C21.5755 13.7917 21.8005 12.9333 21.8005 12C21.8005 11.0667 21.5755 10.2083 21.1255 9.425C20.6755 8.64167 20.0672 8.025 19.3005 7.575C18.5338 7.125 17.6838 6.9 16.7505 6.9H7.25049C6.31716 6.9 5.46716 7.125 4.70049 7.575C3.93382 8.025 3.32549 8.64167 2.87549 9.425C2.42549 10.2083 2.20049 11.0667 2.20049 12C2.20049 12.9333 2.42549 13.7917 2.87549 14.575C3.32549 15.3583 3.93382 15.975 4.70049 16.425C5.46716 16.875 6.31716 17.1 7.25049 17.1H16.7505Z" fill="black"/>
</g>
<defs>
<clipPath id="clip0_3218_7036">
<rect width="24" height="24" fill="white"/>
</clipPath>
</defs>
</svg>
