<svg width="24" height="24" viewBox="0 0 24 24" fill="none" xmlns="http://www.w3.org/2000/svg">
<g clip-path="url(#clip0_3218_7032)">
<rect width="24" height="24" fill="white"/>
<path d="M6.67549 18.675C5.44216 18.675 4.30882 18.3833 3.27549 17.8C2.25882 17.2 1.45882 16.3917 0.875488 15.375C0.292155 14.3417 0.000488281 13.2167 0.000488281 12C0.000488281 10.7833 0.292155 9.66667 0.875488 8.65C1.45882 7.61667 2.25882 6.80833 3.27549 6.225C4.30882 5.625 5.44216 5.325 6.67549 5.325H17.3255C18.5588 5.325 19.6838 5.625 20.7005 6.225C21.7338 6.80833 22.5422 7.61667 23.1255 8.65C23.7088 9.66667 24.0005 10.7833 24.0005 12C24.0005 13.2167 23.7088 14.3417 23.1255 15.375C22.5422 16.3917 21.7338 17.2 20.7005 17.8C19.6838 18.3833 18.5588 18.675 17.3255 18.675H6.67549ZM17.3255 17.725C18.3755 17.725 19.3338 17.475 20.2005 16.975C21.0672 16.4583 21.7505 15.7667 22.2505 14.9C22.7672 14.0167 23.0255 13.05 23.0255 12C23.0255 10.95 22.7672 9.99167 22.2505 9.125C21.7505 8.24167 21.0672 7.55 20.2005 7.05C19.3338 6.53333 18.3755 6.275 17.3255 6.275H6.67549C5.62549 6.275 4.66716 6.53333 3.80049 7.05C2.93382 7.55 2.24216 8.24167 1.72549 9.125C1.22549 9.99167 0.975488 10.95 0.975488 12C0.975488 13.05 1.22549 14.0167 1.72549 14.9C2.24216 15.7667 2.93382 16.4583 3.80049 16.975C4.66716 17.475 5.62549 17.725 6.67549 17.725H17.3255Z" fill="black"/>
</g>
<defs>
<clipPath id="clip0_3218_7032">
<rect width="24" height="24" fill="white"/>
</clipPath>
</defs>
</svg>
