<svg width="24" height="24" viewBox="0 0 24 24" fill="none" xmlns="http://www.w3.org/2000/svg">
<g clip-path="url(#clip0_3219_10336)">
<rect width="24" height="24" fill="white"/>
<path d="M2 20V4H22V20H2ZM12 12.975L9.775 10.75C10.2417 10.5167 10.725 10.3583 11.225 10.275C11.7417 10.1917 12.25 10.1917 12.75 10.275C13.2667 10.3583 13.7583 10.5167 14.225 10.75L12 12.975ZM9.55 7.85C7.91667 8.33333 6.6 9.25833 5.6 10.625L12 17.075L18.4 10.625C17.4 9.25833 16.0833 8.33333 14.45 7.85C12.8167 7.35 11.1833 7.35 9.55 7.85Z" fill="black"/>
</g>
<defs>
<clipPath id="clip0_3219_10336">
<rect width="24" height="24" fill="white"/>
</clipPath>
</defs>
</svg>
