<svg width="24" height="24" viewBox="0 0 24 24" fill="none" xmlns="http://www.w3.org/2000/svg">
<g clip-path="url(#clip0_3379_7434)">
<rect width="24" height="24" fill="white"/>
<path d="M13.6505 13.425C13.3838 13.6917 13.1088 13.9583 12.8255 14.225C12.5422 14.475 12.2672 14.7333 12.0005 15C11.5672 14.5667 11.2422 14.25 11.0255 14.05C10.8088 13.8333 10.4922 13.5167 10.0755 13.1L7.87549 10.875C8.39216 10.3083 9.00882 9.875 9.72549 9.575C10.4422 9.25833 11.2005 9.1 12.0005 9.1C12.8005 9.1 13.5588 9.25833 14.2755 9.575C14.9922 9.875 15.6088 10.3083 16.1255 10.875L13.6505 13.425ZM13.7255 10.875C13.1588 10.875 12.5838 10.875 12.0005 10.875C11.4338 10.875 10.8588 10.875 10.2755 10.875H9.50049C10.0672 10.875 10.4838 10.875 10.7505 10.875C11.0338 10.875 11.4505 10.875 12.0005 10.875C12.5672 10.875 12.9838 10.875 13.2505 10.875C13.5338 10.875 13.9505 10.875 14.5005 10.875H13.7255ZM2.00049 4H22.0005V20H2.00049V4ZM18.5005 16.55V7.45H5.50049V16.55H18.5005Z" fill="black"/>
</g>
<defs>
<clipPath id="clip0_3379_7434">
<rect width="24" height="24" fill="white"/>
</clipPath>
</defs>
</svg>
