<svg width="24" height="24" viewBox="0 0 24 24" fill="none" xmlns="http://www.w3.org/2000/svg">
<g clip-path="url(#clip0_3379_7438)">
<rect width="24" height="24" fill="white"/>
<path d="M22 4V20H2V4H22ZM17.6 11.075C16.8833 10.3417 16.0417 9.76667 15.075 9.35C14.1083 8.91667 13.0833 8.7 12 8.7C10.9333 8.7 9.90833 8.91667 8.925 9.35C7.95833 9.76667 7.11667 10.3417 6.4 11.075L7.1 11.775C7.73333 11.125 8.475 10.6167 9.325 10.25C10.175 9.88333 11.0667 9.7 12 9.7C12.9333 9.7 13.825 9.88333 14.675 10.25C15.525 10.6167 16.2667 11.125 16.9 11.775L17.6 11.075ZM14.55 14.175C14.2167 13.8417 13.825 13.5833 13.375 13.4C12.9417 13.2 12.4833 13.1 12 13.1C11.5167 13.1 11.05 13.2 10.6 13.4C10.1667 13.5833 9.78333 13.8417 9.45 14.175L10.15 14.875C10.6667 14.3583 11.2833 14.1 12 14.1C12.7167 14.1 13.3333 14.3583 13.85 14.875L14.55 14.175Z" fill="black"/>
</g>
<defs>
<clipPath id="clip0_3379_7438">
<rect width="24" height="24" fill="white"/>
</clipPath>
</defs>
</svg>
