<svg width="24" height="24" viewBox="0 0 24 24" fill="none" xmlns="http://www.w3.org/2000/svg">
<g clip-path="url(#clip0_3219_10314)">
<rect width="24" height="24" fill="white"/>
<path d="M3.42549 18.6H20.5755V5.4H3.42549V18.6ZM22.0005 4V20H2.00049V4H22.0005ZM12.0255 13.75L14.8755 10.85C14.3255 10.4167 13.7088 10.125 13.0255 9.975C12.3422 9.825 11.6588 9.825 10.9755 9.975C10.2922 10.125 9.67549 10.4167 9.12549 10.85L12.0255 13.75ZM7.32549 10.825C8.12549 9.85833 9.10049 9.20833 10.2505 8.875C11.4172 8.54167 12.5755 8.54167 13.7255 8.875C14.8922 9.20833 15.8672 9.85833 16.6505 10.825L12.0255 15.525L7.32549 10.825Z" fill="black"/>
</g>
<defs>
<clipPath id="clip0_3219_10314">
<rect width="24" height="24" fill="white"/>
</clipPath>
</defs>
</svg>
