<svg width="24" height="24" viewBox="0 0 24 24" fill="none" xmlns="http://www.w3.org/2000/svg">
<g clip-path="url(#clip0_3379_7446)">
<rect width="24" height="24" fill="white"/>
<path d="M22 4V20H2V4H22ZM18.85 10.75C17.9667 9.85 16.925 9.13333 15.725 8.6C14.5417 8.06667 13.3 7.8 12 7.8C10.7 7.8 9.45 8.06667 8.25 8.6C7.06667 9.13333 6.03333 9.85 5.15 10.75L7.175 12.725C7.79167 12.0583 8.51667 11.5417 9.35 11.175C10.1833 10.8083 11.0667 10.625 12 10.625C12.9333 10.625 13.8167 10.8083 14.65 11.175C15.4833 11.5417 16.2083 12.0583 16.825 12.725L18.85 10.75ZM15.7 13.85C15.2167 13.35 14.6583 12.9667 14.025 12.7C13.3917 12.4167 12.7167 12.275 12 12.275C11.2833 12.275 10.6083 12.4167 9.975 12.7C9.34167 12.9667 8.78333 13.35 8.3 13.85L10.325 15.825C10.775 15.3417 11.3333 15.1 12 15.1C12.6667 15.1 13.225 15.3417 13.675 15.825L15.7 13.85Z" fill="black"/>
</g>
<defs>
<clipPath id="clip0_3379_7446">
<rect width="24" height="24" fill="white"/>
</clipPath>
</defs>
</svg>
