<svg width="24" height="24" viewBox="0 0 24 24" fill="none" xmlns="http://www.w3.org/2000/svg">
<g clip-path="url(#clip0_3396_13293)">
<rect width="24" height="24" fill="white"/>
<path d="M3.90049 18.15H20.1005V5.85H3.90049V18.15ZM22.0005 4V20H2.00049V4H22.0005ZM12.0255 13.275L14.3255 10.95C13.8588 10.6333 13.3505 10.425 12.8005 10.325C12.2672 10.2083 11.7255 10.2083 11.1755 10.325C10.6422 10.425 10.1422 10.625 9.67549 10.925L12.0255 13.275ZM7.35049 10.9C8.11716 9.9 9.08382 9.225 10.2505 8.875C11.4172 8.525 12.5755 8.525 13.7255 8.875C14.8922 9.225 15.8588 9.9 16.6255 10.9L12.0255 15.575L7.35049 10.9Z" fill="black"/>
</g>
<defs>
<clipPath id="clip0_3396_13293">
<rect width="24" height="24" fill="white"/>
</clipPath>
</defs>
</svg>
