<svg width="24" height="24" viewBox="0 0 24 24" fill="none" xmlns="http://www.w3.org/2000/svg">
<g clip-path="url(#clip0_3219_11096)">
<rect width="24" height="24" fill="white"/>
<path d="M12.0005 22C9.96716 22 8.09216 21.425 6.37549 20.275L7.67549 18.75C9.02549 19.6167 10.4672 20.05 12.0005 20.05C13.4505 20.05 14.7838 19.6917 16.0005 18.975C17.2338 18.2417 18.2088 17.2583 18.9255 16.025C19.6422 14.7917 20.0005 13.45 20.0005 12C20.0005 10.65 19.6922 9.4 19.0755 8.25C18.4588 7.1 17.6172 6.15 16.5505 5.4C15.4838 4.65 14.3005 4.19167 13.0005 4.025V2.05C14.6672 2.21667 16.1838 2.76667 17.5505 3.7C18.9338 4.61667 20.0172 5.80833 20.8005 7.275C21.6005 8.725 22.0005 10.3 22.0005 12C22.0005 13.8167 21.5505 15.4917 20.6505 17.025C19.7505 18.5417 18.5338 19.75 17.0005 20.65C15.4838 21.55 13.8172 22 12.0005 22ZM4.85049 18.975C3.95049 18.0583 3.25049 17 2.75049 15.8C2.25049 14.6 2.00049 13.3333 2.00049 12C2.00049 9.96667 2.57549 8.09167 3.72549 6.375L5.27549 7.65C4.42549 9 4.00049 10.45 4.00049 12C4.00049 13.0333 4.18382 14.0167 4.55049 14.95C4.93382 15.8833 5.46716 16.7167 6.15049 17.45L4.85049 18.975ZM5.02549 4.85C5.82549 4.06667 6.73382 3.43333 7.75049 2.95C8.76716 2.46667 9.85049 2.16667 11.0005 2.05V4.025C10.1505 4.14167 9.35049 4.375 8.60049 4.725C7.85049 5.075 7.17549 5.53333 6.57549 6.1L5.02549 4.85Z" fill="black"/>
</g>
<defs>
<clipPath id="clip0_3219_11096">
<rect width="24" height="24" fill="white"/>
</clipPath>
</defs>
</svg>
