<svg width="24" height="24" viewBox="0 0 24 24" fill="none" xmlns="http://www.w3.org/2000/svg">
<g clip-path="url(#clip0_3219_8583)">
<rect width="24" height="24" fill="white"/>
<path d="M12.0005 22C9.98382 22 8.12549 21.4417 6.42549 20.325L6.70049 19.9C8.35049 20.9833 10.1172 21.525 12.0005 21.525C13.7172 21.525 15.3005 21.1 16.7505 20.25C18.2005 19.3833 19.3505 18.225 20.2005 16.775C21.0672 15.3083 21.5005 13.7167 21.5005 12C21.5005 10.4 21.1255 8.90833 20.3755 7.525C19.6255 6.125 18.6005 4.98333 17.3005 4.1C16.0005 3.21667 14.5672 2.69167 13.0005 2.525L13.0505 2.05C14.7005 2.21667 16.2088 2.76667 17.5755 3.7C18.9422 4.63333 20.0172 5.83333 20.8005 7.3C21.6005 8.75 22.0005 10.3167 22.0005 12C22.0005 13.8167 21.5505 15.4917 20.6505 17.025C19.7505 18.5417 18.5338 19.75 17.0005 20.65C15.4838 21.55 13.8172 22 12.0005 22ZM4.77549 18.9C3.89216 17.9833 3.20882 16.9333 2.72549 15.75C2.24216 14.5667 2.00049 13.3167 2.00049 12C2.00049 10.9833 2.15049 10.0083 2.45049 9.075C2.75049 8.125 3.16716 7.24167 3.70049 6.425L4.10049 6.675C3.03382 8.30833 2.50049 10.0833 2.50049 12C2.50049 13.25 2.73382 14.4417 3.20049 15.575C3.66716 16.7083 4.31716 17.7 5.15049 18.55L4.77549 18.9ZM5.07549 4.8C5.84216 4.05 6.72549 3.43333 7.72549 2.95C8.74216 2.46667 9.81716 2.16667 10.9505 2.05L11.0005 2.525C9.95049 2.64167 8.94216 2.93333 7.97549 3.4C7.02549 3.85 6.18382 4.43333 5.45049 5.15L5.07549 4.8Z" fill="black"/>
</g>
<defs>
<clipPath id="clip0_3219_8583">
<rect width="24" height="24" fill="white"/>
</clipPath>
</defs>
</svg>
