<svg width="24" height="24" viewBox="0 0 24 24" fill="none" xmlns="http://www.w3.org/2000/svg">
<g clip-path="url(#clip0_3219_11094)">
<rect width="24" height="24" fill="white"/>
<path d="M12.0005 22C9.96716 22 8.09216 21.425 6.37549 20.275L7.35049 19.125C8.80049 20.075 10.3505 20.55 12.0005 20.55C13.5338 20.55 14.9505 20.1667 16.2505 19.4C17.5505 18.6167 18.5838 17.575 19.3505 16.275C20.1172 14.9583 20.5005 13.5333 20.5005 12C20.5005 10.5667 20.1672 9.23333 19.5005 8C18.8505 6.76667 17.9505 5.75833 16.8005 4.975C15.6505 4.175 14.3838 3.69167 13.0005 3.525V2.05C14.6672 2.21667 16.1838 2.76667 17.5505 3.7C18.9338 4.61667 20.0172 5.80833 20.8005 7.275C21.6005 8.725 22.0005 10.3 22.0005 12C22.0005 13.8167 21.5505 15.4917 20.6505 17.025C19.7505 18.5417 18.5338 19.75 17.0005 20.65C15.4838 21.55 13.8172 22 12.0005 22ZM4.85049 18.975C3.95049 18.0583 3.25049 17 2.75049 15.8C2.25049 14.6 2.00049 13.3333 2.00049 12C2.00049 9.96667 2.57549 8.09167 3.72549 6.375L4.87549 7.325C3.95882 8.775 3.50049 10.3333 3.50049 12C3.50049 13.1 3.70049 14.15 4.10049 15.15C4.51716 16.15 5.09216 17.0417 5.82549 17.825L4.85049 18.975ZM5.02549 4.85C5.82549 4.06667 6.73382 3.43333 7.75049 2.95C8.76716 2.46667 9.85049 2.16667 11.0005 2.05V3.525C10.0838 3.64167 9.21716 3.89167 8.40049 4.275C7.58382 4.65833 6.85049 5.15833 6.20049 5.775L5.02549 4.85Z" fill="black"/>
</g>
<defs>
<clipPath id="clip0_3219_11094">
<rect width="24" height="24" fill="white"/>
</clipPath>
</defs>
</svg>
