<svg width="24" height="24" viewBox="0 0 24 24" fill="none" xmlns="http://www.w3.org/2000/svg">
<g clip-path="url(#clip0_3219_10736)">
<rect width="24" height="24" fill="white"/>
<path d="M7.62549 10.325C8.10882 10.325 8.55882 10.2083 8.97549 9.975C9.39216 9.725 9.72549 9.39167 9.97549 8.975C10.2255 8.55833 10.3505 8.10833 10.3505 7.625C10.3505 7.14167 10.2255 6.7 9.97549 6.3C9.72549 5.88333 9.39216 5.55833 8.97549 5.325C8.55882 5.075 8.10882 4.95 7.62549 4.95C7.14216 4.95 6.69216 5.075 6.27549 5.325C5.87549 5.55833 5.55049 5.88333 5.30049 6.3C5.06716 6.7 4.95049 7.14167 4.95049 7.625C4.95049 8.10833 5.06716 8.55833 5.30049 8.975C5.55049 9.39167 5.87549 9.725 6.27549 9.975C6.69216 10.2083 7.14216 10.325 7.62549 10.325ZM7.62549 13.25C6.62549 13.25 5.68382 12.9917 4.80049 12.475C3.93382 11.9583 3.25049 11.275 2.75049 10.425C2.25049 9.575 2.00049 8.64167 2.00049 7.625C2.00049 6.60833 2.25049 5.675 2.75049 4.825C3.26716 3.975 3.95882 3.3 4.82549 2.8C5.69216 2.3 6.62549 2.05 7.62549 2.05C8.64216 2.05 9.58382 2.3 10.4505 2.8C11.3172 3.3 12.0088 3.975 12.5255 4.825C13.0422 5.675 13.3005 6.60833 13.3005 7.625C13.3005 8.64167 13.0422 9.58333 12.5255 10.45C12.0088 11.3 11.3172 11.9833 10.4505 12.5C9.58382 13 8.64216 13.25 7.62549 13.25ZM13.7005 19.25C14.0005 19.25 14.2755 19.175 14.5255 19.025C14.7755 18.875 14.9755 18.675 15.1255 18.425C15.2755 18.175 15.3505 17.9 15.3505 17.6C15.3505 17.3 15.2755 17.025 15.1255 16.775C14.9755 16.525 14.7755 16.325 14.5255 16.175C14.2755 16.025 14.0005 15.95 13.7005 15.95C13.4005 15.95 13.1255 16.025 12.8755 16.175C12.6422 16.325 12.4505 16.525 12.3005 16.775C12.1505 17.025 12.0755 17.3 12.0755 17.6C12.0755 17.9 12.1505 18.175 12.3005 18.425C12.4505 18.675 12.6422 18.875 12.8755 19.025C13.1255 19.175 13.4005 19.25 13.7005 19.25ZM13.7005 22C12.9005 22 12.1588 21.8 11.4755 21.4C10.8088 21.0167 10.2755 20.4917 9.87549 19.825C9.47549 19.1583 9.27549 18.425 9.27549 17.625C9.27549 16.825 9.47549 16.0917 9.87549 15.425C10.2755 14.7417 10.8088 14.2083 11.4755 13.825C12.1588 13.425 12.9005 13.225 13.7005 13.225C14.5005 13.225 15.2422 13.425 15.9255 13.825C16.6088 14.2083 17.1422 14.7417 17.5255 15.425C17.9255 16.0917 18.1255 16.825 18.1255 17.625C18.1255 18.425 17.9255 19.1583 17.5255 19.825C17.1422 20.4917 16.6088 21.0167 15.9255 21.4C15.2422 21.8 14.5005 22 13.7005 22ZM18.5255 10.375C18.8588 10.375 19.1422 10.2583 19.3755 10.025C19.6088 9.775 19.7255 9.49167 19.7255 9.175C19.7255 8.84167 19.6088 8.55833 19.3755 8.325C19.1422 8.075 18.8588 7.95 18.5255 7.95C18.1922 7.95 17.9088 8.075 17.6755 8.325C17.4422 8.55833 17.3255 8.84167 17.3255 9.175C17.3255 9.49167 17.4422 9.775 17.6755 10.025C17.9088 10.2583 18.1922 10.375 18.5255 10.375ZM18.5255 12.8C17.8588 12.8 17.2422 12.6417 16.6755 12.325C16.1255 11.9917 15.6838 11.55 15.3505 11C15.0172 10.4333 14.8505 9.825 14.8505 9.175C14.8505 8.50833 15.0172 7.9 15.3505 7.35C15.6838 6.78333 16.1255 6.34167 16.6755 6.025C17.2422 5.70833 17.8588 5.55 18.5255 5.55C19.1922 5.55 19.8005 5.70833 20.3505 6.025C20.9172 6.34167 21.3672 6.78333 21.7005 7.35C22.0338 7.9 22.2005 8.50833 22.2005 9.175C22.2005 9.825 22.0338 10.4333 21.7005 11C21.3672 11.55 20.9172 11.9917 20.3505 12.325C19.8005 12.6417 19.1922 12.8 18.5255 12.8Z" fill="black"/>
</g>
<defs>
<clipPath id="clip0_3219_10736">
<rect width="24" height="24" fill="white"/>
</clipPath>
</defs>
</svg>
