<svg width="24" height="24" viewBox="0 0 24 24" fill="none" xmlns="http://www.w3.org/2000/svg">
<g clip-path="url(#clip0_3219_10738)">
<rect width="24" height="24" fill="white"/>
<path d="M7.70049 9.95C8.10049 9.95 8.46716 9.85 8.80049 9.65C9.15049 9.43333 9.42549 9.15833 9.62549 8.825C9.84216 8.475 9.95049 8.1 9.95049 7.7C9.95049 7.3 9.84216 6.93333 9.62549 6.6C9.42549 6.25 9.15049 5.975 8.80049 5.775C8.46716 5.575 8.10049 5.475 7.70049 5.475C7.30049 5.475 6.92549 5.575 6.57549 5.775C6.24216 5.975 5.97549 6.25 5.77549 6.6C5.57549 6.93333 5.47549 7.3 5.47549 7.7C5.47549 8.1 5.57549 8.475 5.77549 8.825C5.97549 9.15833 6.24216 9.43333 6.57549 9.65C6.92549 9.85 7.30049 9.95 7.70049 9.95ZM7.70049 13.4C6.66716 13.4 5.70882 13.1417 4.82549 12.625C3.95882 12.1083 3.26716 11.4167 2.75049 10.55C2.23382 9.66667 1.97549 8.70833 1.97549 7.675C1.97549 6.65833 2.23382 5.71667 2.75049 4.85C3.26716 3.98333 3.95882 3.3 4.82549 2.8C5.70882 2.28333 6.66716 2.025 7.70049 2.025C8.73382 2.025 9.68382 2.28333 10.5505 2.8C11.4338 3.3 12.1338 3.98333 12.6505 4.85C13.1838 5.71667 13.4505 6.66667 13.4505 7.7C13.4505 8.71667 13.1838 9.66667 12.6505 10.55C12.1338 11.4167 11.4338 12.1083 10.5505 12.625C9.68382 13.1417 8.73382 13.4 7.70049 13.4ZM13.5255 18.775C13.7422 18.775 13.9422 18.7167 14.1255 18.6C14.3255 18.4833 14.4838 18.3333 14.6005 18.15C14.7172 17.95 14.7755 17.7417 14.7755 17.525C14.7755 17.2917 14.7172 17.0833 14.6005 16.9C14.4838 16.7167 14.3338 16.5667 14.1505 16.45C13.9672 16.3333 13.7588 16.275 13.5255 16.275C13.3088 16.275 13.1088 16.3333 12.9255 16.45C12.7422 16.5667 12.5922 16.7167 12.4755 16.9C12.3588 17.0833 12.3005 17.2917 12.3005 17.525C12.3005 17.7417 12.3588 17.95 12.4755 18.15C12.5922 18.3333 12.7422 18.4833 12.9255 18.6C13.1088 18.7167 13.3088 18.775 13.5255 18.775ZM13.5505 22C12.7338 22 11.9755 21.8 11.2755 21.4C10.5922 21 10.0422 20.4583 9.62549 19.775C9.22549 19.0917 9.02549 18.3417 9.02549 17.525C9.02549 16.725 9.22549 15.9833 9.62549 15.3C10.0422 14.6167 10.5922 14.075 11.2755 13.675C11.9755 13.2583 12.7338 13.05 13.5505 13.05C14.3505 13.05 15.0922 13.2583 15.7755 13.675C16.4755 14.075 17.0255 14.6167 17.4255 15.3C17.8422 15.9833 18.0505 16.725 18.0505 17.525C18.0505 18.3417 17.8422 19.0917 17.4255 19.775C17.0255 20.4583 16.4755 21 15.7755 21.4C15.0922 21.8 14.3505 22 13.5505 22ZM18.3005 10.425C18.5838 10.425 18.8255 10.325 19.0255 10.125C19.2422 9.90833 19.3505 9.65833 19.3505 9.375C19.3505 9.09167 19.2422 8.85 19.0255 8.65C18.8255 8.43333 18.5838 8.325 18.3005 8.325C18.0172 8.325 17.7672 8.43333 17.5505 8.65C17.3505 8.85 17.2505 9.09167 17.2505 9.375C17.2505 9.65833 17.3505 9.90833 17.5505 10.125C17.7672 10.325 18.0172 10.425 18.3005 10.425ZM18.3005 13.2C17.6005 13.2 16.9505 13.0333 16.3505 12.7C15.7672 12.35 15.3005 11.8833 14.9505 11.3C14.6005 10.7167 14.4255 10.075 14.4255 9.375C14.4255 8.675 14.6005 8.03333 14.9505 7.45C15.3005 6.86667 15.7672 6.40833 16.3505 6.075C16.9505 5.725 17.6005 5.55 18.3005 5.55C19.0005 5.55 19.6422 5.725 20.2255 6.075C20.8255 6.40833 21.3005 6.86667 21.6505 7.45C22.0005 8.03333 22.1755 8.675 22.1755 9.375C22.1755 10.075 22.0005 10.7167 21.6505 11.3C21.3005 11.8833 20.8255 12.35 20.2255 12.7C19.6422 13.0333 19.0005 13.2 18.3005 13.2Z" fill="black"/>
</g>
<defs>
<clipPath id="clip0_3219_10738">
<rect width="24" height="24" fill="white"/>
</clipPath>
</defs>
</svg>
