<svg width="24" height="24" viewBox="0 0 24 24" fill="none" xmlns="http://www.w3.org/2000/svg">
<g clip-path="url(#clip0_3219_11096)">
<rect width="24" height="24" fill="white"/>
<path d="M12.0005 22C10.0338 22 8.22549 21.4667 6.57549 20.4L7.67549 18.75C9.02549 19.6167 10.4672 20.05 12.0005 20.05C13.4505 20.05 14.7838 19.6917 16.0005 18.975C17.2338 18.2417 18.2088 17.2583 18.9255 16.025C19.6422 14.7917 20.0005 13.45 20.0005 12C20.0005 10.65 19.6922 9.4 19.0755 8.25C18.4588 7.1 17.6172 6.15 16.5505 5.4C15.4838 4.65 14.3005 4.19167 13.0005 4.025L13.2505 2.075C14.8672 2.275 16.3422 2.84167 17.6755 3.775C19.0255 4.70833 20.0838 5.9 20.8505 7.35C21.6172 8.78333 22.0005 10.3333 22.0005 12C22.0005 13.8167 21.5505 15.4917 20.6505 17.025C19.7505 18.5417 18.5338 19.75 17.0005 20.65C15.4838 21.55 13.8172 22 12.0005 22ZM4.70049 18.825C3.85049 17.9083 3.18382 16.8667 2.70049 15.7C2.23382 14.5333 2.00049 13.3 2.00049 12C2.00049 11.0333 2.13382 10.0917 2.40049 9.175C2.68382 8.25833 3.07549 7.39167 3.57549 6.575L5.27549 7.65C4.42549 9 4.00049 10.45 4.00049 12C4.00049 13.0333 4.18382 14.0167 4.55049 14.95C4.93382 15.8833 5.46716 16.7167 6.15049 17.45L4.70049 18.825ZM5.22549 4.65C5.99216 3.93333 6.84216 3.35833 7.77549 2.925C8.70882 2.475 9.70049 2.19167 10.7505 2.075L11.0005 4.025C10.1505 4.14167 9.35049 4.375 8.60049 4.725C7.85049 5.075 7.17549 5.53333 6.57549 6.1L5.22549 4.65Z" fill="black"/>
</g>
<defs>
<clipPath id="clip0_3219_11096">
<rect width="24" height="24" fill="white"/>
</clipPath>
</defs>
</svg>
