<svg width="24" height="24" viewBox="0 0 24 24" fill="none" xmlns="http://www.w3.org/2000/svg">
<g clip-path="url(#clip0_3219_11102)">
<rect width="24" height="24" fill="white"/>
<path d="M12.0005 22C10.0838 22 8.33382 21.5 6.75049 20.5L8.72549 17.375C9.75882 17.9917 10.8505 18.3 12.0005 18.3C13.1505 18.3 14.2005 18.025 15.1505 17.475C16.1172 16.9083 16.8755 16.1417 17.4255 15.175C17.9755 14.2083 18.2505 13.15 18.2505 12C18.2505 10.9667 18.0172 10.0083 17.5505 9.125C17.0838 8.225 16.4505 7.48333 15.6505 6.9C14.8505 6.3 13.9672 5.925 13.0005 5.775L13.6005 2.125C15.1672 2.375 16.5922 2.975 17.8755 3.925C19.1588 4.85833 20.1672 6.03333 20.9005 7.45C21.6338 8.85 22.0005 10.3667 22.0005 12C22.0005 13.8333 21.5588 15.5167 20.6755 17.05C19.7922 18.5833 18.5838 19.7917 17.0505 20.675C15.5172 21.5583 13.8338 22 12.0005 22ZM4.55049 18.65C3.73382 17.7667 3.10049 16.7583 2.65049 15.625C2.21716 14.475 2.00049 13.2667 2.00049 12C2.00049 11.0667 2.12549 10.1583 2.37549 9.275C2.62549 8.39167 2.98382 7.56667 3.45049 6.8L6.65049 8.725C6.05049 9.70833 5.75049 10.8 5.75049 12C5.75049 12.7833 5.88382 13.5333 6.15049 14.25C6.41716 14.95 6.80049 15.5917 7.30049 16.175L4.55049 18.65ZM5.42549 4.475C6.12549 3.84167 6.90049 3.325 7.75049 2.925C8.61716 2.525 9.52549 2.25833 10.4755 2.125L11.0005 5.775C10.4338 5.85833 9.87549 6.03333 9.32549 6.3C8.79216 6.56667 8.30882 6.89167 7.87549 7.275L5.42549 4.475Z" fill="black"/>
</g>
<defs>
<clipPath id="clip0_3219_11102">
<rect width="24" height="24" fill="white"/>
</clipPath>
</defs>
</svg>
