<svg width="24" height="24" viewBox="0 0 24 24" fill="none" xmlns="http://www.w3.org/2000/svg">
<g clip-path="url(#clip0_3219_9254)">
<rect width="24" height="24" fill="white"/>
<path d="M8.67549 19.125L10.6005 11.9V3.075H13.4005V12.1L11.3505 19.5L8.67549 19.125ZM4.97549 6.725L12.5755 10.725L11.4255 13.275L3.82549 9.275L4.97549 6.725ZM12.0005 22C10.1672 22 8.48382 21.5583 6.95049 20.675C5.41716 19.7917 4.20882 18.5833 3.32549 17.05C2.44216 15.5167 2.00049 13.8333 2.00049 12C2.00049 10.1667 2.44216 8.48333 3.32549 6.95C4.20882 5.41667 5.41716 4.20833 6.95049 3.325C8.48382 2.44167 10.1672 2 12.0005 2C13.8338 2 15.5172 2.44167 17.0505 3.325C18.5838 4.20833 19.7922 5.41667 20.6755 6.95C21.5588 8.48333 22.0005 10.1667 22.0005 12C22.0005 13.8333 21.5588 15.5167 20.6755 17.05C19.7922 18.5833 18.5838 19.7917 17.0505 20.675C15.5172 21.5583 13.8338 22 12.0005 22ZM12.0005 19.125C13.3005 19.125 14.4922 18.8167 15.5755 18.2C16.6588 17.5667 17.5088 16.7083 18.1255 15.625C18.7588 14.525 19.0755 13.3167 19.0755 12C19.0755 10.6833 18.7588 9.48333 18.1255 8.4C17.5088 7.3 16.6588 6.44167 15.5755 5.825C14.4922 5.19167 13.3005 4.875 12.0005 4.875C10.7005 4.875 9.50882 5.19167 8.42549 5.825C7.34216 6.44167 6.48382 7.3 5.85049 8.4C5.23382 9.48333 4.92549 10.6833 4.92549 12C4.92549 13.3167 5.23382 14.525 5.85049 15.625C6.48382 16.7083 7.34216 17.5667 8.42549 18.2C9.50882 18.8167 10.7005 19.125 12.0005 19.125Z" fill="black"/>
</g>
<defs>
<clipPath id="clip0_3219_9254">
<rect width="24" height="24" fill="white"/>
</clipPath>
</defs>
</svg>
