<svg width="24" height="24" viewBox="0 0 24 24" fill="none" xmlns="http://www.w3.org/2000/svg">
<g clip-path="url(#clip0_3396_13221)">
<rect width="24" height="24" fill="white"/>
<path d="M12.0005 22C10.1672 22 8.48382 21.5583 6.95049 20.675C5.41716 19.7917 4.20882 18.5833 3.32549 17.05C2.44216 15.5167 2.00049 13.8333 2.00049 12C2.00049 10.1667 2.44216 8.48333 3.32549 6.95C4.20882 5.41667 5.41716 4.20833 6.95049 3.325C8.48382 2.44167 10.1672 2 12.0005 2C13.8338 2 15.5172 2.44167 17.0505 3.325C18.5838 4.20833 19.7922 5.41667 20.6755 6.95C21.5588 8.48333 22.0005 10.1667 22.0005 12C22.0005 13.8333 21.5588 15.5167 20.6755 17.05C19.7922 18.5833 18.5838 19.7917 17.0505 20.675C15.5172 21.5583 13.8338 22 12.0005 22ZM12.0005 21.1C13.6838 21.1 15.2088 20.7 16.5755 19.9C17.9588 19.0833 19.0505 17.9833 19.8505 16.6C20.6672 15.2 21.0755 13.6667 21.0755 12C21.0755 10.3333 20.6672 8.80833 19.8505 7.425C19.0505 6.025 17.9588 4.925 16.5755 4.125C15.2088 3.30833 13.6838 2.9 12.0005 2.9C11.9838 2.9 11.9672 2.9 11.9505 2.9C11.9172 2.9 11.8838 2.9 11.8505 2.9C10.2005 2.93333 8.69216 3.35833 7.32549 4.175C5.97549 4.975 4.90049 6.06667 4.10049 7.45C3.31716 8.83333 2.92549 10.35 2.92549 12C2.92549 13.6667 3.31716 15.1833 4.10049 16.55C4.88382 17.9167 5.95882 19.0083 7.32549 19.825C8.69216 20.6417 10.2005 21.0667 11.8505 21.1C11.9005 21.1 11.9338 21.1 11.9505 21.1C11.9672 21.1 11.9755 21.1 11.9755 21.1C11.9755 21.1 11.9838 21.1 12.0005 21.1ZM12.4505 21.45H11.5505V2.55H12.4505V21.45ZM11.8255 12.425H2.52549V11.575H11.8255V12.425ZM11.8255 7.875H3.62549V7.025H11.8255V7.875ZM11.8255 16.975H3.62549V16.125H11.8255V16.975Z" fill="black"/>
</g>
<defs>
<clipPath id="clip0_3396_13221">
<rect width="24" height="24" fill="white"/>
</clipPath>
</defs>
</svg>
