<svg width="24" height="24" viewBox="0 0 24 24" fill="none" xmlns="http://www.w3.org/2000/svg">
<g clip-path="url(#clip0_3373_4638)">
<rect width="24" height="24" fill="white"/>
<path d="M17.9255 17.6C18.5255 17.6 19.0755 17.4583 19.5755 17.175C20.0755 16.875 20.4672 16.4833 20.7505 16C21.0505 15.5 21.2005 14.9417 21.2005 14.325C21.2005 13.6083 20.9755 12.9583 20.5255 12.375C20.0755 11.7917 19.5005 11.3917 18.8005 11.175C18.9005 10.725 18.9505 10.2833 18.9505 9.85C18.9505 9.11667 18.7672 8.45 18.4005 7.85C18.0338 7.23333 17.5338 6.75 16.9005 6.4C16.2672 6.03333 15.5755 5.85 14.8255 5.85C14.3255 5.85 13.8338 5.94167 13.3505 6.125C12.8672 6.29167 12.4255 6.525 12.0255 6.825C11.6255 6.525 11.1755 6.29167 10.6755 6.125C10.1922 5.94167 9.70049 5.85 9.20049 5.85C8.45049 5.85 7.75049 6.03333 7.10049 6.4C6.46716 6.75 5.96716 7.23333 5.60049 7.85C5.23382 8.45 5.05049 9.11667 5.05049 9.85C5.05049 10.2833 5.10049 10.7167 5.20049 11.15C4.50049 11.3667 3.92549 11.775 3.47549 12.375C3.02549 12.9583 2.80049 13.6083 2.80049 14.325C2.80049 14.9417 2.94216 15.5 3.22549 16C3.52549 16.4833 3.92549 16.875 4.42549 17.175C4.92549 17.4583 5.48382 17.6 6.10049 17.6H17.9255ZM6.07549 20C5.02549 20 4.05882 19.7583 3.17549 19.275C2.30882 18.7917 1.62549 18.1333 1.12549 17.3C0.625488 16.45 0.375488 15.5083 0.375488 14.475C0.375488 13.5583 0.575488 12.7083 0.975488 11.925C1.39216 11.1417 1.95882 10.525 2.67549 10.075C2.65882 10.0083 2.65049 9.875 2.65049 9.675C2.65049 8.55833 2.94216 7.525 3.52549 6.575C4.10882 5.625 4.89216 4.875 5.87549 4.325C6.87549 3.75833 7.96716 3.475 9.15049 3.475C10.1172 3.475 11.0755 3.7 12.0255 4.15C12.9588 3.7 13.9088 3.475 14.8755 3.475C16.0422 3.475 17.1172 3.75833 18.1005 4.325C19.1005 4.89167 19.8922 5.65 20.4755 6.6C21.0588 7.55 21.3505 8.58333 21.3505 9.7C21.3505 9.88333 21.3422 10.0167 21.3255 10.1C22.0422 10.5333 22.6005 11.15 23.0005 11.95C23.4172 12.7333 23.6255 13.575 23.6255 14.475C23.6255 15.5083 23.3755 16.45 22.8755 17.3C22.3755 18.1333 21.6922 18.7917 20.8255 19.275C19.9588 19.7583 19.0005 20 17.9505 20H6.07549ZM7.65049 11.725L9.32549 10.075L11.2255 12.075L14.6255 8.575L16.3255 10.225L11.2505 15.3L7.65049 11.725Z" fill="black"/>
</g>
<defs>
<clipPath id="clip0_3373_4638">
<rect width="24" height="24" fill="white"/>
</clipPath>
</defs>
</svg>
