<svg width="24" height="24" viewBox="0 0 24 24" fill="none" xmlns="http://www.w3.org/2000/svg">
<g clip-path="url(#clip0_3396_13196)">
<rect width="24" height="24" fill="white"/>
<path d="M17.7005 17C18.2505 17 18.7505 16.875 19.2005 16.625C19.6505 16.375 20.0005 16.025 20.2505 15.575C20.5005 15.125 20.6255 14.625 20.6255 14.075C20.6255 13.4083 20.4172 12.8167 20.0005 12.3C19.5838 11.7833 19.0588 11.425 18.4255 11.225C18.4755 10.825 18.5005 10.425 18.5005 10.025C18.5005 9.39167 18.3255 8.8 17.9755 8.25C17.6255 7.7 17.1505 7.26667 16.5505 6.95C15.9672 6.61667 15.3338 6.45 14.6505 6.45C14.1672 6.45 13.7005 6.51667 13.2505 6.65C12.8005 6.78333 12.3922 6.975 12.0255 7.225C11.6422 6.975 11.2172 6.78333 10.7505 6.65C10.3005 6.51667 9.84216 6.45 9.37549 6.45C8.67549 6.45 8.02549 6.61667 7.42549 6.95C6.84216 7.26667 6.37549 7.7 6.02549 8.25C5.67549 8.8 5.50049 9.39167 5.50049 10.025C5.50049 10.425 5.52549 10.825 5.57549 11.225C4.90882 11.425 4.37549 11.7917 3.97549 12.325C3.57549 12.8583 3.37549 13.4417 3.37549 14.075C3.37549 14.625 3.50049 15.125 3.75049 15.575C4.01716 16.025 4.36716 16.375 4.80049 16.625C5.25049 16.875 5.75882 17 6.32549 17H17.7005ZM6.32549 20C5.20882 20 4.19216 19.7583 3.27549 19.275C2.37549 18.7917 1.66716 18.1167 1.15049 17.25C0.633822 16.3833 0.375488 15.4 0.375488 14.3C0.375488 13.4167 0.567155 12.575 0.950488 11.775C1.35049 10.9583 1.88382 10.3583 2.55049 9.975C2.55049 9.925 2.55049 9.84167 2.55049 9.725C2.55049 8.60833 2.85882 7.575 3.47549 6.625C4.09216 5.65833 4.91716 4.89167 5.95049 4.325C6.98382 3.75833 8.09216 3.475 9.27549 3.475C10.2088 3.475 11.1172 3.675 12.0005 4.075C12.9172 3.675 13.8338 3.475 14.7505 3.475C15.9338 3.475 17.0338 3.75833 18.0505 4.325C19.0838 4.89167 19.9088 5.66667 20.5255 6.65C21.1422 7.61667 21.4505 8.66667 21.4505 9.8C21.4505 9.88333 21.4505 9.95833 21.4505 10.025C22.1172 10.4083 22.6422 11 23.0255 11.8C23.4255 12.6 23.6255 13.4333 23.6255 14.3C23.6255 15.4 23.3672 16.3833 22.8505 17.25C22.3338 18.1167 21.6255 18.7917 20.7255 19.275C19.8255 19.7583 18.8172 20 17.7005 20H6.32549ZM15.7005 12.175H13.8505H12.4755L13.4005 11.3V15.35H10.6005V11.3L11.5255 12.175H9.77549H8.30049L12.0005 8.3L15.7005 12.175Z" fill="black"/>
</g>
<defs>
<clipPath id="clip0_3396_13196">
<rect width="24" height="24" fill="white"/>
</clipPath>
</defs>
</svg>
