<svg width="24" height="24" viewBox="0 0 24 24" fill="none" xmlns="http://www.w3.org/2000/svg">
<g clip-path="url(#clip0_3218_6704)">
<rect width="24" height="24" fill="white"/>
<path d="M17.4505 16.4C17.9505 16.4 18.4005 16.2917 18.8005 16.075C19.2005 15.8583 19.5088 15.5583 19.7255 15.175C19.9422 14.775 20.0505 14.3167 20.0505 13.8C20.0505 13.2167 19.8588 12.7 19.4755 12.25C19.1088 11.8 18.6338 11.4833 18.0505 11.3C18.0505 10.9333 18.0505 10.575 18.0505 10.225C18.0505 9.65833 17.8838 9.13333 17.5505 8.65C17.2338 8.15 16.8005 7.75833 16.2505 7.475C15.7005 7.175 15.1005 7.025 14.4505 7.025C14.0005 7.025 13.5672 7.08333 13.1505 7.2C12.7505 7.3 12.3755 7.44167 12.0255 7.625C11.6755 7.44167 11.2838 7.3 10.8505 7.2C10.4338 7.08333 10.0088 7.025 9.57549 7.025C8.92549 7.025 8.31716 7.175 7.75049 7.475C7.20049 7.75833 6.75882 8.15 6.42549 8.65C6.10882 9.13333 5.95049 9.65833 5.95049 10.225C5.95049 10.575 5.95049 10.925 5.95049 11.275C5.33382 11.4583 4.84216 11.7917 4.47549 12.275C4.12549 12.7417 3.95049 13.25 3.95049 13.8C3.95049 14.3167 4.05882 14.775 4.27549 15.175C4.50882 15.5583 4.81716 15.8583 5.20049 16.075C5.60049 16.2917 6.05882 16.4 6.57549 16.4H17.4505ZM6.57549 20C5.37549 20 4.30049 19.7583 3.35049 19.275C2.41716 18.775 1.68382 18.0833 1.15049 17.2C0.633822 16.3 0.375488 15.2833 0.375488 14.15C0.375488 13.2833 0.558822 12.4417 0.925488 11.625C1.29216 10.7917 1.80049 10.2 2.45049 9.85C2.45049 9.81667 2.45049 9.79167 2.45049 9.775C2.45049 8.64167 2.76716 7.59167 3.40049 6.625C4.05049 5.65833 4.90882 4.89167 5.97549 4.325C7.05882 3.75833 8.20882 3.475 9.42549 3.475C10.3088 3.475 11.1672 3.64167 12.0005 3.975C12.8672 3.64167 13.7338 3.475 14.6005 3.475C15.8172 3.475 16.9588 3.76667 18.0255 4.35C19.0922 4.91667 19.9422 5.69167 20.5755 6.675C21.2255 7.65833 21.5505 8.725 21.5505 9.875C21.5505 9.89167 21.5505 9.90833 21.5505 9.925C22.2005 10.2583 22.7088 10.8417 23.0755 11.675C23.4422 12.4917 23.6255 13.3167 23.6255 14.15C23.6255 15.2833 23.3588 16.3 22.8255 17.2C22.3088 18.0833 21.5838 18.775 20.6505 19.275C19.7172 19.7583 18.6505 20 17.4505 20H6.57549ZM8.17549 11.975C8.17549 11.275 8.34216 10.6333 8.67549 10.05C9.02549 9.45 9.49216 8.98333 10.0755 8.65C10.6755 8.3 11.3338 8.125 12.0505 8.125H12.8505L14.3505 9.65L12.8505 11.15H12.0505C11.8172 11.15 11.6172 11.2333 11.4505 11.4C11.2838 11.5667 11.2005 11.7583 11.2005 11.975H8.17549ZM15.8755 11.925C15.8755 12.625 15.7005 13.275 15.3505 13.875C15.0172 14.4583 14.5505 14.925 13.9505 15.275C13.3672 15.6083 12.7255 15.775 12.0255 15.775H11.2005L9.70049 14.25L11.2005 12.75H12.0255C12.2588 12.75 12.4505 12.675 12.6005 12.525C12.7672 12.3583 12.8505 12.1583 12.8505 11.925H15.8755Z" fill="black"/>
</g>
<defs>
<clipPath id="clip0_3218_6704">
<rect width="24" height="24" fill="white"/>
</clipPath>
</defs>
</svg>
