<svg width="24" height="24" viewBox="0 0 24 24" fill="none" xmlns="http://www.w3.org/2000/svg">
<g clip-path="url(#clip0_3216_1674)">
<rect width="24" height="24" fill="white"/>
<path d="M19.0755 19.525C19.8088 19.525 20.4838 19.3333 21.1005 18.95C21.7338 18.55 22.2255 18.0167 22.5755 17.35C22.9422 16.6833 23.1255 15.9583 23.1255 15.175C23.1255 14.2083 22.8422 13.3417 22.2755 12.575C21.7255 11.7917 21.0255 11.275 20.1755 11.025C20.3422 10.4083 20.4255 9.80833 20.4255 9.225C20.4255 8.275 20.2005 7.4 19.7505 6.6C19.3172 5.78333 18.7172 5.14167 17.9505 4.675C17.2005 4.19167 16.3755 3.95 15.4755 3.95C14.8088 3.95 14.1838 4.075 13.6005 4.325C13.0172 4.575 12.4922 4.925 12.0255 5.375C11.5422 4.925 11.0088 4.575 10.4255 4.325C9.84216 4.075 9.22549 3.95 8.57549 3.95C7.65882 3.95 6.81716 4.19167 6.05049 4.675C5.30049 5.14167 4.70049 5.78333 4.25049 6.6C3.81716 7.4 3.60049 8.275 3.60049 9.225C3.60049 9.84167 3.69216 10.4417 3.87549 11.025C3.00882 11.275 2.29216 11.7917 1.72549 12.575C1.15882 13.3417 0.875488 14.2083 0.875488 15.175C0.875488 15.9583 1.05882 16.6833 1.42549 17.35C1.79216 18.0167 2.28382 18.55 2.90049 18.95C3.51716 19.3333 4.20049 19.525 4.95049 19.525H19.0755ZM4.95049 20C4.11716 20 3.35049 19.7833 2.65049 19.35C1.95049 18.9167 1.39216 18.3333 0.975488 17.6C0.575488 16.85 0.375488 16.0417 0.375488 15.175C0.375488 14.1917 0.642155 13.2917 1.17549 12.475C1.70882 11.6583 2.40049 11.075 3.25049 10.725C3.15049 10.2417 3.10049 9.74167 3.10049 9.225C3.10049 8.19167 3.34216 7.23333 3.82549 6.35C4.32549 5.46667 4.99216 4.76667 5.82549 4.25C6.65882 3.73333 7.57549 3.475 8.57549 3.475C9.79216 3.475 10.9422 3.9 12.0255 4.75C13.0755 3.9 14.2255 3.475 15.4755 3.475C16.4588 3.475 17.3672 3.73333 18.2005 4.25C19.0338 4.76667 19.6922 5.46667 20.1755 6.35C20.6755 7.23333 20.9255 8.19167 20.9255 9.225C20.9255 9.675 20.8672 10.175 20.7505 10.725C21.6005 11.075 22.2922 11.6583 22.8255 12.475C23.3588 13.2917 23.6255 14.1917 23.6255 15.175C23.6255 16.0417 23.4172 16.85 23.0005 17.6C22.6005 18.3333 22.0505 18.9167 21.3505 19.35C20.6672 19.7833 19.9088 20 19.0755 20H4.95049ZM7.77549 11.475L8.12549 11.125L11.0255 14.1L15.8755 9.175L16.2255 9.525L11.0255 14.825L7.77549 11.475Z" fill="black"/>
</g>
<defs>
<clipPath id="clip0_3216_1674">
<rect width="24" height="24" fill="white"/>
</clipPath>
</defs>
</svg>
