<svg width="24" height="24" viewBox="0 0 24 24" fill="none" xmlns="http://www.w3.org/2000/svg">
<g clip-path="url(#clip0_3396_13198)">
<rect width="24" height="24" fill="white"/>
<path d="M17.5005 16.5C18.0172 16.5 18.4755 16.3917 18.8755 16.175C19.2755 15.9417 19.5838 15.625 19.8005 15.225C20.0338 14.825 20.1505 14.3667 20.1505 13.85C20.1505 13.25 19.9505 12.725 19.5505 12.275C19.1672 11.8083 18.6755 11.4833 18.0755 11.3C18.1255 10.9167 18.1505 10.5417 18.1505 10.175C18.1505 9.59167 17.9838 9.05 17.6505 8.55C17.3338 8.05 16.9005 7.65833 16.3505 7.375C15.8005 7.075 15.2005 6.925 14.5505 6.925C14.0505 6.925 13.5838 6.99167 13.1505 7.125C12.7338 7.25833 12.3588 7.45 12.0255 7.7C11.6922 7.45 11.3005 7.25833 10.8505 7.125C10.4172 6.99167 9.95882 6.925 9.47549 6.925C8.82549 6.925 8.21716 7.075 7.65049 7.375C7.10049 7.65833 6.65882 8.05 6.32549 8.55C6.00882 9.05 5.85049 9.59167 5.85049 10.175C5.85049 10.575 5.87549 10.9417 5.92549 11.275C5.30882 11.4583 4.80882 11.7917 4.42549 12.275C4.04216 12.7583 3.85049 13.2833 3.85049 13.85C3.85049 14.3667 3.95882 14.825 4.17549 15.225C4.40882 15.625 4.72549 15.9417 5.12549 16.175C5.54216 16.3917 6.00882 16.5 6.52549 16.5H17.5005ZM6.52549 20C5.34216 20 4.28382 19.7583 3.35049 19.275C2.41716 18.775 1.68382 18.0833 1.15049 17.2C0.633822 16.3167 0.375488 15.3167 0.375488 14.2C0.375488 13.3167 0.558822 12.4583 0.925488 11.625C1.29216 10.7917 1.80049 10.2 2.45049 9.85C2.45049 9.81667 2.45049 9.79167 2.45049 9.775C2.45049 8.64167 2.75882 7.59167 3.37549 6.625C4.00882 5.65833 4.85049 4.89167 5.90049 4.325C6.96716 3.75833 8.11716 3.475 9.35049 3.475C10.3005 3.475 11.1838 3.65 12.0005 4C12.8338 3.65 13.7255 3.475 14.6755 3.475C15.8922 3.475 17.0255 3.76667 18.0755 4.35C19.1422 4.91667 19.9838 5.69167 20.6005 6.675C21.2338 7.65833 21.5505 8.725 21.5505 9.875C21.5505 9.89167 21.5505 9.90833 21.5505 9.925C22.2005 10.2583 22.7088 10.8417 23.0755 11.675C23.4422 12.4917 23.6255 13.3333 23.6255 14.2C23.6255 15.3167 23.3672 16.3167 22.8505 17.2C22.3338 18.0833 21.6088 18.775 20.6755 19.275C19.7422 19.7583 18.6838 20 17.5005 20H6.52549ZM16.0505 12.95H14.1755H12.5255L13.6255 11.825V15.1H10.3755V11.825L11.4755 12.95H9.52549H7.95049L12.0005 8.625L16.0505 12.95Z" fill="black"/>
</g>
<defs>
<clipPath id="clip0_3396_13198">
<rect width="24" height="24" fill="white"/>
</clipPath>
</defs>
</svg>
