<svg width="24" height="24" viewBox="0 0 24 24" fill="none" xmlns="http://www.w3.org/2000/svg">
<g clip-path="url(#clip0_3373_4632)">
<rect width="24" height="24" fill="white"/>
<path d="M18.7755 19.075C19.4755 19.075 20.1255 18.8917 20.7255 18.525C21.3255 18.1583 21.8005 17.6667 22.1505 17.05C22.5005 16.4167 22.6755 15.725 22.6755 14.975C22.6755 14.075 22.4088 13.2583 21.8755 12.525C21.3422 11.7917 20.6672 11.3 19.8505 11.05C20.0005 10.4833 20.0755 9.925 20.0755 9.375C20.0755 8.475 19.8588 7.64167 19.4255 6.875C19.0088 6.10833 18.4338 5.50833 17.7005 5.075C16.9838 4.625 16.1922 4.4 15.3255 4.4C14.7088 4.4 14.1172 4.51667 13.5505 4.75C12.9838 4.98333 12.4755 5.30833 12.0255 5.725C11.5588 5.30833 11.0422 4.98333 10.4755 4.75C9.90882 4.51667 9.32549 4.4 8.72549 4.4C7.84216 4.4 7.03382 4.625 6.30049 5.075C5.56716 5.50833 4.98382 6.10833 4.55049 6.875C4.13382 7.64167 3.92549 8.475 3.92549 9.375C3.92549 9.94167 4.01716 10.5 4.20049 11.05C3.36716 11.3 2.67549 11.7917 2.12549 12.525C1.59216 13.2583 1.32549 14.075 1.32549 14.975C1.32549 15.725 1.50049 16.4167 1.85049 17.05C2.20049 17.6667 2.67549 18.1583 3.27549 18.525C3.87549 18.8917 4.53382 19.075 5.25049 19.075H18.7755ZM5.25049 20C4.36716 20 3.55049 19.775 2.80049 19.325C2.05049 18.875 1.45882 18.2667 1.02549 17.5C0.592155 16.7333 0.375488 15.9 0.375488 15C0.375488 14.0333 0.625488 13.15 1.12549 12.35C1.62549 11.55 2.28382 10.95 3.10049 10.55C3.01716 10.2 2.97549 9.8 2.97549 9.35C2.97549 8.3 3.23382 7.325 3.75049 6.425C4.26716 5.525 4.95882 4.80833 5.82549 4.275C6.70882 3.74167 7.67549 3.475 8.72549 3.475C9.87549 3.475 10.9755 3.84167 12.0255 4.575C13.0588 3.84167 14.1588 3.475 15.3255 3.475C16.3588 3.475 17.3088 3.74167 18.1755 4.275C19.0588 4.80833 19.7505 5.525 20.2505 6.425C20.7672 7.325 21.0255 8.3 21.0255 9.35C21.0255 9.73333 20.9838 10.1333 20.9005 10.55C21.7172 10.95 22.3755 11.55 22.8755 12.35C23.3755 13.15 23.6255 14.0333 23.6255 15C23.6255 15.9 23.4088 16.7333 22.9755 17.5C22.5422 18.2667 21.9505 18.875 21.2005 19.325C20.4672 19.775 19.6588 20 18.7755 20H5.25049ZM7.72549 11.575L8.40049 10.9L11.0755 13.625L15.6005 9.025L16.2755 9.7L11.0755 14.975L7.72549 11.575Z" fill="black"/>
</g>
<defs>
<clipPath id="clip0_3373_4632">
<rect width="24" height="24" fill="white"/>
</clipPath>
</defs>
</svg>
