<svg width="24" height="24" viewBox="0 0 24 24" fill="none" xmlns="http://www.w3.org/2000/svg">
<g clip-path="url(#clip0_3218_6716)">
<rect width="24" height="24" fill="white"/>
<path d="M21.35 19.35C20.6667 19.7833 19.9083 20 19.075 20H4.95C4.11667 20 3.35 19.7833 2.65 19.35C1.95 18.9167 1.39167 18.3333 0.975 17.6C0.575 16.85 0.375 16.0417 0.375 15.175C0.375 14.1917 0.641667 13.2917 1.175 12.475C1.70833 11.6583 2.4 11.075 3.25 10.725C3.15 10.2417 3.1 9.74167 3.1 9.225C3.1 8.19167 3.34167 7.23333 3.825 6.35C4.325 5.46667 4.99167 4.76667 5.825 4.25C6.65833 3.73333 7.575 3.475 8.575 3.475C9.79167 3.475 10.9417 3.9 12.025 4.75C13.075 3.9 14.225 3.475 15.475 3.475C16.4583 3.475 17.3667 3.73333 18.2 4.25C19.0333 4.76667 19.6917 5.46667 20.175 6.35C20.675 7.23333 20.925 8.19167 20.925 9.225C20.925 9.675 20.8667 10.175 20.75 10.725C21.6 11.075 22.2917 11.6583 22.825 12.475C23.3583 13.2917 23.625 14.1917 23.625 15.175C23.625 16.0417 23.4167 16.85 23 17.6C22.6 18.3333 22.05 18.9167 21.35 19.35ZM7.95 9.9C7.53333 10.6167 7.325 11.4 7.325 12.25H9.975C9.975 11.8833 10.0667 11.55 10.25 11.25C10.4333 10.9333 10.675 10.6833 10.975 10.5C11.2917 10.3167 11.6333 10.225 12 10.225H12.5H12.825H13.125L14.475 8.9L13.15 7.6H12.825H12.55H12C11.1333 7.6 10.3417 7.80833 9.625 8.225C8.925 8.625 8.36667 9.18333 7.95 9.9ZM9.55 15.575L10.85 16.9H11.25H11.5H12C12.8667 16.9 13.65 16.7 14.35 16.3C15.0667 15.8833 15.6333 15.3167 16.05 14.6C16.4667 13.8833 16.675 13.1 16.675 12.25H14.025C14.025 12.6167 13.9333 12.9583 13.75 13.275C13.5667 13.575 13.3167 13.8167 13 14C12.7 14.1833 12.3667 14.275 12 14.275H11.5H11.275H10.875L9.55 15.575Z" fill="black"/>
</g>
<defs>
<clipPath id="clip0_3218_6716">
<rect width="24" height="24" fill="white"/>
</clipPath>
</defs>
</svg>
