<svg width="24" height="24" viewBox="0 0 24 24" fill="none" xmlns="http://www.w3.org/2000/svg">
<g clip-path="url(#clip0_3218_6710)">
<rect width="24" height="24" fill="white"/>
<path d="M21.35 19.35C20.6667 19.7833 19.9083 20 19.075 20H4.95C4.11667 20 3.35 19.7833 2.65 19.35C1.95 18.9167 1.39167 18.3333 0.975 17.6C0.575 16.85 0.375 16.0417 0.375 15.175C0.375 14.1917 0.641667 13.2917 1.175 12.475C1.70833 11.6583 2.4 11.075 3.25 10.725C3.15 10.2417 3.1 9.74167 3.1 9.225C3.1 8.19167 3.34167 7.23333 3.825 6.35C4.325 5.46667 4.99167 4.76667 5.825 4.25C6.65833 3.73333 7.575 3.475 8.575 3.475C9.79167 3.475 10.9417 3.9 12.025 4.75C13.075 3.9 14.225 3.475 15.475 3.475C16.4583 3.475 17.3667 3.73333 18.2 4.25C19.0333 4.76667 19.6917 5.46667 20.175 6.35C20.675 7.23333 20.925 8.19167 20.925 9.225C20.925 9.675 20.8667 10.175 20.75 10.725C21.6 11.075 22.2917 11.6583 22.825 12.475C23.3583 13.2917 23.625 14.1917 23.625 15.175C23.625 16.0417 23.4167 16.85 23 17.6C22.6 18.3333 22.05 18.9167 21.35 19.35ZM8.45 10.2C8.1 10.8167 7.925 11.5 7.925 12.25H9.275C9.275 11.75 9.39167 11.2917 9.625 10.875C9.875 10.4583 10.2083 10.1333 10.625 9.9C11.0417 9.65 11.5 9.525 12 9.525H12.275L12.4 9.825L12.55 10.4L14.225 8.85L12.575 7.275L12.4 7.9L12.275 8.2H12C11.25 8.2 10.5583 8.38333 9.925 8.75C9.30833 9.1 8.81667 9.58333 8.45 10.2ZM9.775 15.65L11.425 17.225L11.6 16.675L11.7 16.3H12C12.75 16.3 13.4333 16.125 14.05 15.775C14.6833 15.4083 15.175 14.9167 15.525 14.3C15.8917 13.6833 16.075 13 16.075 12.25H14.725C14.725 12.75 14.6 13.2083 14.35 13.625C14.1167 14.0417 13.7917 14.375 13.375 14.625C12.9583 14.8583 12.5 14.975 12 14.975H11.7L11.6 14.65L11.45 14.1L9.775 15.65Z" fill="black"/>
</g>
<defs>
<clipPath id="clip0_3218_6710">
<rect width="24" height="24" fill="white"/>
</clipPath>
</defs>
</svg>
