<svg width="24" height="24" viewBox="0 0 24 24" fill="none" xmlns="http://www.w3.org/2000/svg">
<g clip-path="url(#clip0_3219_8561)">
<rect width="24" height="24" fill="white"/>
<path d="M5.92549 21.25C5.34216 21.25 4.80882 21.1083 4.32549 20.825C3.84216 20.5417 3.45882 20.1583 3.17549 19.675C2.89216 19.1917 2.75049 18.6583 2.75049 18.075C2.75049 17.4917 2.89216 16.9583 3.17549 16.475C3.45882 15.975 3.84216 15.5833 4.32549 15.3C4.80882 15.0167 5.34216 14.875 5.92549 14.875H8.65049V9.125H5.92549C5.34216 9.125 4.80882 8.98333 4.32549 8.7C3.84216 8.41667 3.45882 8.03333 3.17549 7.55C2.89216 7.05 2.75049 6.50833 2.75049 5.925C2.75049 5.34167 2.89216 4.80833 3.17549 4.325C3.45882 3.84167 3.84216 3.45833 4.32549 3.175C4.80882 2.89167 5.34216 2.75 5.92549 2.75C6.50882 2.75 7.05049 2.89167 7.55049 3.175C8.05049 3.45833 8.44216 3.84167 8.72549 4.325C9.00882 4.80833 9.15049 5.34167 9.15049 5.925V8.65H14.8505V5.925C14.8505 5.34167 14.9922 4.80833 15.2755 4.325C15.5588 3.84167 15.9422 3.45833 16.4255 3.175C16.9255 2.89167 17.4672 2.75 18.0505 2.75C18.6338 2.75 19.1672 2.89167 19.6505 3.175C20.1505 3.45833 20.5422 3.84167 20.8255 4.325C21.1088 4.80833 21.2505 5.34167 21.2505 5.925C21.2505 6.50833 21.1088 7.05 20.8255 7.55C20.5422 8.03333 20.1505 8.41667 19.6505 8.7C19.1672 8.98333 18.6338 9.125 18.0505 9.125H15.3505V14.875H18.0505C18.6338 14.875 19.1672 15.0167 19.6505 15.3C20.1505 15.5833 20.5422 15.975 20.8255 16.475C21.1088 16.9583 21.2505 17.4917 21.2505 18.075C21.2505 18.6583 21.1088 19.1917 20.8255 19.675C20.5422 20.1583 20.1505 20.5417 19.6505 20.825C19.1672 21.1083 18.6338 21.25 18.0505 21.25C17.4672 21.25 16.9255 21.1083 16.4255 20.825C15.9422 20.5417 15.5588 20.1583 15.2755 19.675C14.9922 19.1917 14.8505 18.6583 14.8505 18.075V15.35H9.15049V18.075C9.15049 18.6583 9.00882 19.1917 8.72549 19.675C8.44216 20.1583 8.05049 20.5417 7.55049 20.825C7.05049 21.1083 6.50882 21.25 5.92549 21.25ZM5.92549 20.775C6.69216 20.775 7.33382 20.5167 7.85049 20C8.38382 19.4667 8.65049 18.825 8.65049 18.075V15.35H5.92549C5.17549 15.35 4.54216 15.6167 4.02549 16.15C3.50882 16.6667 3.25049 17.3083 3.25049 18.075C3.25049 18.825 3.50882 19.4667 4.02549 20C4.54216 20.5167 5.17549 20.775 5.92549 20.775ZM8.65049 8.65V5.925C8.65049 5.175 8.38382 4.54167 7.85049 4.025C7.33382 3.49167 6.69216 3.225 5.92549 3.225C5.17549 3.225 4.54216 3.49167 4.02549 4.025C3.50882 4.54167 3.25049 5.175 3.25049 5.925C3.25049 6.69167 3.50882 7.34167 4.02549 7.875C4.54216 8.39167 5.17549 8.65 5.92549 8.65H8.65049ZM18.0505 20.775C18.8005 20.775 19.4338 20.5167 19.9505 20C20.4838 19.4667 20.7505 18.825 20.7505 18.075C20.7505 17.3083 20.4838 16.6667 19.9505 16.15C19.4338 15.6167 18.8005 15.35 18.0505 15.35H15.3505V18.075C15.3505 18.825 15.6088 19.4667 16.1255 20C16.6588 20.5167 17.3005 20.775 18.0505 20.775ZM14.8505 14.875V9.125H9.15049V14.875H14.8505ZM18.0505 8.65C18.8005 8.65 19.4338 8.39167 19.9505 7.875C20.4838 7.34167 20.7505 6.69167 20.7505 5.925C20.7505 5.175 20.4838 4.54167 19.9505 4.025C19.4338 3.49167 18.8005 3.225 18.0505 3.225C17.3005 3.225 16.6588 3.49167 16.1255 4.025C15.6088 4.54167 15.3505 5.175 15.3505 5.925V8.65H18.0505Z" fill="black"/>
</g>
<defs>
<clipPath id="clip0_3219_8561">
<rect width="24" height="24" fill="white"/>
</clipPath>
</defs>
</svg>
