<svg width="24" height="24" viewBox="0 0 24 24" fill="none" xmlns="http://www.w3.org/2000/svg">
<g clip-path="url(#clip0_3234_13028)">
<rect width="24" height="24" fill="white"/>
<path d="M6.05049 21.25C5.45049 21.25 4.89216 21.1083 4.37549 20.825C3.87549 20.525 3.47549 20.125 3.17549 19.625C2.89216 19.125 2.75049 18.5667 2.75049 17.95C2.75049 17.35 2.89216 16.8 3.17549 16.3C3.47549 15.7833 3.87549 15.3833 4.37549 15.1C4.89216 14.8 5.45049 14.65 6.05049 14.65H8.47549V9.35H6.05049C5.45049 9.35 4.89216 9.20833 4.37549 8.925C3.87549 8.625 3.47549 8.225 3.17549 7.725C2.89216 7.20833 2.75049 6.65 2.75049 6.05C2.75049 5.43333 2.89216 4.875 3.17549 4.375C3.47549 3.875 3.87549 3.48333 4.37549 3.2C4.89216 2.9 5.45049 2.75 6.05049 2.75C6.66716 2.75 7.23382 2.9 7.75049 3.2C8.26716 3.48333 8.66716 3.875 8.95049 4.375C9.25049 4.875 9.40049 5.43333 9.40049 6.05V8.475H14.6005V6.05C14.6005 5.43333 14.7505 4.875 15.0505 4.375C15.3505 3.875 15.7505 3.48333 16.2505 3.2C16.7672 2.9 17.3255 2.75 17.9255 2.75C18.5422 2.75 19.1005 2.9 19.6005 3.2C20.1172 3.48333 20.5172 3.875 20.8005 4.375C21.1005 4.875 21.2505 5.43333 21.2505 6.05C21.2505 6.65 21.1005 7.20833 20.8005 7.725C20.5172 8.225 20.1172 8.625 19.6005 8.925C19.1005 9.20833 18.5422 9.35 17.9255 9.35H15.5255V14.65H17.9255C18.5255 14.65 19.0838 14.8 19.6005 15.1C20.1172 15.3833 20.5172 15.7833 20.8005 16.3C21.1005 16.8 21.2505 17.35 21.2505 17.95C21.2505 18.5667 21.1005 19.125 20.8005 19.625C20.5172 20.125 20.1172 20.525 19.6005 20.825C19.0838 21.1083 18.5255 21.25 17.9255 21.25C17.3255 21.25 16.7672 21.1083 16.2505 20.825C15.7505 20.525 15.3505 20.125 15.0505 19.625C14.7505 19.125 14.6005 18.5667 14.6005 17.95V15.525H9.40049V17.95C9.40049 18.5667 9.25049 19.125 8.95049 19.625C8.66716 20.125 8.26716 20.525 7.75049 20.825C7.23382 21.1083 6.66716 21.25 6.05049 21.25ZM6.05049 20.375C6.75049 20.375 7.32549 20.1417 7.77549 19.675C8.24216 19.2083 8.47549 18.6333 8.47549 17.95V15.525H6.05049C5.38382 15.525 4.81716 15.7583 4.35049 16.225C3.88382 16.6917 3.65049 17.2667 3.65049 17.95C3.65049 18.6333 3.88382 19.2083 4.35049 19.675C4.81716 20.1417 5.38382 20.375 6.05049 20.375ZM8.47549 8.475V6.05C8.47549 5.36667 8.24216 4.79167 7.77549 4.325C7.32549 3.85833 6.75049 3.625 6.05049 3.625C5.38382 3.625 4.81716 3.85833 4.35049 4.325C3.88382 4.79167 3.65049 5.36667 3.65049 6.05C3.65049 6.73333 3.88382 7.30833 4.35049 7.775C4.81716 8.24167 5.38382 8.475 6.05049 8.475H8.47549ZM17.9255 20.375C18.5922 20.375 19.1588 20.1417 19.6255 19.675C20.1088 19.2083 20.3505 18.6333 20.3505 17.95C20.3505 17.2667 20.1088 16.6917 19.6255 16.225C19.1588 15.7583 18.5922 15.525 17.9255 15.525H15.5255V17.95C15.5255 18.6333 15.7588 19.2083 16.2255 19.675C16.6922 20.1417 17.2588 20.375 17.9255 20.375ZM14.6005 14.65V9.35H9.40049V14.65H14.6005ZM17.9255 8.475C18.6088 8.475 19.1838 8.24167 19.6505 7.775C20.1172 7.30833 20.3505 6.73333 20.3505 6.05C20.3505 5.36667 20.1172 4.79167 19.6505 4.325C19.1838 3.85833 18.6088 3.625 17.9255 3.625C17.2588 3.625 16.6922 3.85833 16.2255 4.325C15.7588 4.79167 15.5255 5.36667 15.5255 6.05V8.475H17.9255Z" fill="black"/>
</g>
<defs>
<clipPath id="clip0_3234_13028">
<rect width="24" height="24" fill="white"/>
</clipPath>
</defs>
</svg>
