<svg width="24" height="24" viewBox="0 0 24 24" fill="none" xmlns="http://www.w3.org/2000/svg">
<g clip-path="url(#clip0_3234_13030)">
<rect width="24" height="24" fill="white"/>
<path d="M6.20049 21.25C5.56716 21.25 4.98382 21.1 4.45049 20.8C3.93382 20.5 3.51715 20.0917 3.20049 19.575C2.90049 19.0417 2.75049 18.4667 2.75049 17.85C2.75049 17.2167 2.90049 16.6417 3.20049 16.125C3.51715 15.5917 3.93382 15.175 4.45049 14.875C4.98382 14.575 5.56716 14.425 6.20049 14.425H8.32549V9.575H6.20049C5.56716 9.575 4.98382 9.425 4.45049 9.125C3.93382 8.825 3.51715 8.41667 3.20049 7.9C2.90049 7.36667 2.75049 6.78333 2.75049 6.15C2.75049 5.53333 2.90049 4.96667 3.20049 4.45C3.51715 3.91667 3.93382 3.5 4.45049 3.2C4.98382 2.9 5.56716 2.75 6.20049 2.75C6.81716 2.75 7.39216 2.9 7.92549 3.2C8.45882 3.5 8.87549 3.91667 9.17549 4.45C9.49216 4.96667 9.65049 5.53333 9.65049 6.15V8.275H14.3755V6.15C14.3755 5.53333 14.5255 4.96667 14.8255 4.45C15.1255 3.91667 15.5422 3.5 16.0755 3.2C16.6088 2.9 17.1922 2.75 17.8255 2.75C18.4422 2.75 19.0172 2.9 19.5505 3.2C20.0838 3.5 20.5005 3.91667 20.8005 4.45C21.1172 4.96667 21.2755 5.53333 21.2755 6.15C21.2755 6.78333 21.1172 7.36667 20.8005 7.9C20.5005 8.41667 20.0838 8.825 19.5505 9.125C19.0172 9.425 18.4422 9.575 17.8255 9.575H15.7005V14.425H17.8005C18.4338 14.425 19.0088 14.575 19.5255 14.875C20.0588 15.175 20.4755 15.5917 20.7755 16.125C21.0922 16.6417 21.2505 17.2167 21.2505 17.85C21.2505 18.4667 21.0922 19.0417 20.7755 19.575C20.4755 20.0917 20.0588 20.5 19.5255 20.8C19.0088 21.1 18.4338 21.25 17.8005 21.25C17.1672 21.25 16.5838 21.1 16.0505 20.8C15.5338 20.5 15.1255 20.0917 14.8255 19.575C14.5255 19.0417 14.3755 18.4667 14.3755 17.85V15.725H9.65049V17.85C9.65049 18.4667 9.49216 19.0417 9.17549 19.575C8.87549 20.0917 8.45882 20.5 7.92549 20.8C7.39216 21.1 6.81716 21.25 6.20049 21.25ZM6.20049 19.975C6.80049 19.975 7.30049 19.7667 7.70049 19.35C8.11716 18.9333 8.32549 18.4333 8.32549 17.85V15.725H6.20049C5.60049 15.725 5.09216 15.9333 4.67549 16.35C4.27549 16.75 4.07549 17.25 4.07549 17.85C4.07549 18.4333 4.27549 18.9333 4.67549 19.35C5.09216 19.7667 5.60049 19.975 6.20049 19.975ZM8.32549 8.275V6.15C8.32549 5.56667 8.11716 5.06667 7.70049 4.65C7.30049 4.23333 6.80049 4.025 6.20049 4.025C5.60049 4.025 5.09216 4.23333 4.67549 4.65C4.27549 5.06667 4.07549 5.56667 4.07549 6.15C4.07549 6.75 4.27549 7.25833 4.67549 7.675C5.09216 8.075 5.60049 8.275 6.20049 8.275H8.32549ZM17.8005 19.975C18.4005 19.975 18.9005 19.7667 19.3005 19.35C19.7172 18.9333 19.9255 18.4333 19.9255 17.85C19.9255 17.25 19.7172 16.75 19.3005 16.35C18.9005 15.9333 18.4005 15.725 17.8005 15.725H15.7005V17.85C15.7005 18.4333 15.9005 18.9333 16.3005 19.35C16.7172 19.7667 17.2172 19.975 17.8005 19.975ZM14.3755 14.425V9.575H9.65049V14.425H14.3755ZM17.8255 8.275C18.4088 8.275 18.9005 8.075 19.3005 7.675C19.7172 7.25833 19.9255 6.75 19.9255 6.15C19.9255 5.56667 19.7172 5.06667 19.3005 4.65C18.9005 4.23333 18.4088 4.025 17.8255 4.025C17.2255 4.025 16.7172 4.23333 16.3005 4.65C15.9005 5.06667 15.7005 5.56667 15.7005 6.15V8.275H17.8255Z" fill="black"/>
</g>
<defs>
<clipPath id="clip0_3234_13030">
<rect width="24" height="24" fill="white"/>
</clipPath>
</defs>
</svg>
