<svg width="24" height="24" viewBox="0 0 24 24" fill="none" xmlns="http://www.w3.org/2000/svg">
<g clip-path="url(#clip0_3375_5632)">
<rect width="24" height="24" fill="white"/>
<path d="M5.225 17.025C6.10833 17.5417 7.075 17.8 8.125 17.8V19.65C6.70833 19.65 5.41667 19.3083 4.25 18.625C3.08333 17.9417 2.15833 17.0167 1.475 15.85C0.791667 14.6833 0.45 13.3917 0.45 11.975C0.45 10.5583 0.791667 9.26667 1.475 8.1C2.15833 6.93333 3.08333 6.00833 4.25 5.325C5.41667 4.64167 6.70833 4.3 8.125 4.3V6.15C7.075 6.15 6.10833 6.40833 5.225 6.925C4.34167 7.44167 3.64167 8.15 3.125 9.05C2.60833 9.93333 2.35 10.9083 2.35 11.975C2.35 13.0417 2.60833 14.025 3.125 14.925C3.64167 15.8083 4.34167 16.5083 5.225 17.025ZM19.75 18.625C18.5833 19.3083 17.2917 19.65 15.875 19.65C14.475 19.65 13.1833 19.3083 12 18.625C10.8333 17.9417 9.90833 17.0167 9.225 15.85C8.55833 14.6833 8.225 13.3917 8.225 11.975C8.225 10.5583 8.55833 9.26667 9.225 8.1C9.90833 6.93333 10.8333 6.00833 12 5.325C13.1833 4.64167 14.475 4.3 15.875 4.3C17.2917 4.3 18.5833 4.64167 19.75 5.325C20.9167 6.00833 21.8417 6.93333 22.525 8.1C23.2083 9.26667 23.55 10.5583 23.55 11.975C23.55 13.3917 23.2083 14.6833 22.525 15.85C21.8417 17.0167 20.9167 17.9417 19.75 18.625ZM11.375 11.1V12.9H14.95V16.5H16.8V12.9H20.375V11.1H16.8V7.5H14.95V11.1H11.375Z" fill="black"/>
</g>
<defs>
<clipPath id="clip0_3375_5632">
<rect width="24" height="24" fill="white"/>
</clipPath>
</defs>
</svg>
