<svg width="24" height="24" viewBox="0 0 24 24" fill="none" xmlns="http://www.w3.org/2000/svg">
<g clip-path="url(#clip0_3218_6664)">
<rect width="24" height="24" fill="white"/>
<path d="M5.65 16.25C6.4 16.6833 7.225 16.9 8.125 16.9V19.65C6.70833 19.65 5.41667 19.3083 4.25 18.625C3.08333 17.9417 2.15833 17.0167 1.475 15.85C0.791667 14.6833 0.45 13.3917 0.45 11.975C0.45 10.5583 0.791667 9.26667 1.475 8.1C2.15833 6.93333 3.08333 6.00833 4.25 5.325C5.41667 4.64167 6.70833 4.3 8.125 4.3V7.05C7.225 7.05 6.4 7.26667 5.65 7.7C4.91667 8.13333 4.33333 8.73333 3.9 9.5C3.46667 10.25 3.25 11.075 3.25 11.975C3.25 12.875 3.46667 13.7083 3.9 14.475C4.33333 15.225 4.91667 15.8167 5.65 16.25ZM19.75 18.625C18.5833 19.3083 17.2917 19.65 15.875 19.65C14.475 19.65 13.1833 19.3083 12 18.625C10.8333 17.9417 9.90833 17.0167 9.225 15.85C8.55833 14.6833 8.225 13.3917 8.225 11.975C8.225 10.5583 8.55833 9.26667 9.225 8.1C9.90833 6.93333 10.8333 6.00833 12 5.325C13.1833 4.64167 14.475 4.3 15.875 4.3C17.2917 4.3 18.5833 4.64167 19.75 5.325C20.9167 6.00833 21.8417 6.93333 22.525 8.1C23.2083 9.26667 23.55 10.5583 23.55 11.975C23.55 13.3917 23.2083 14.6833 22.525 15.85C21.8417 17.0167 20.9167 17.9417 19.75 18.625ZM11.375 10.65V13.35H14.5V16.5H17.25V13.35H20.375V10.65H17.25V7.5H14.5V10.65H11.375Z" fill="black"/>
</g>
<defs>
<clipPath id="clip0_3218_6664">
<rect width="24" height="24" fill="white"/>
</clipPath>
</defs>
</svg>
