<svg width="24" height="24" viewBox="0 0 24 24" fill="none" xmlns="http://www.w3.org/2000/svg">
<g clip-path="url(#clip0_3396_13174)">
<rect width="24" height="24" fill="white"/>
<path d="M5.45 16.65C6.26667 17.1167 7.15833 17.35 8.125 17.35V19.65C6.70833 19.65 5.41667 19.3083 4.25 18.625C3.08333 17.9417 2.15833 17.0167 1.475 15.85C0.791667 14.6833 0.45 13.3917 0.45 11.975C0.45 10.5583 0.791667 9.26667 1.475 8.1C2.15833 6.93333 3.08333 6.00833 4.25 5.325C5.41667 4.64167 6.70833 4.3 8.125 4.3V6.6C7.15833 6.6 6.26667 6.84167 5.45 7.325C4.63333 7.79167 3.98333 8.44167 3.5 9.275C3.03333 10.0917 2.8 10.9917 2.8 11.975C2.8 12.9583 3.03333 13.8667 3.5 14.7C3.98333 15.5167 4.63333 16.1667 5.45 16.65ZM19.75 18.625C18.5833 19.3083 17.2917 19.65 15.875 19.65C14.475 19.65 13.1833 19.3083 12 18.625C10.8333 17.9417 9.90833 17.0167 9.225 15.85C8.55833 14.6833 8.225 13.3917 8.225 11.975C8.225 10.5583 8.55833 9.26667 9.225 8.1C9.90833 6.93333 10.8333 6.00833 12 5.325C13.1833 4.64167 14.475 4.3 15.875 4.3C17.2917 4.3 18.5833 4.64167 19.75 5.325C20.9167 6.00833 21.8417 6.93333 22.525 8.1C23.2083 9.26667 23.55 10.5583 23.55 11.975C23.55 13.3917 23.2083 14.6833 22.525 15.85C21.8417 17.0167 20.9167 17.9417 19.75 18.625ZM11.375 10.875V13.125H14.725V16.5H17.025V13.125H20.375V10.875H17.025V7.5H14.725V10.875H11.375Z" fill="black"/>
</g>
<defs>
<clipPath id="clip0_3396_13174">
<rect width="24" height="24" fill="white"/>
</clipPath>
</defs>
</svg>
