<svg width="24" height="24" viewBox="0 0 24 24" fill="none" xmlns="http://www.w3.org/2000/svg">
<g clip-path="url(#clip0_3218_5628)">
<rect width="24" height="24" fill="white"/>
<path d="M3.00049 3H10.6755V3.925H3.95049V10.675H3.00049V3ZM20.0505 3.925H13.3255V3H21.0005V10.675H20.0505V3.925ZM3.95049 20.075H10.6755V21H3.00049V13.325H3.95049V20.075ZM21.0005 21H13.3255V20.075H20.0505V13.325H21.0005V21ZM7.55049 16.05L12.0005 14.225L16.2255 16L16.0005 16.175L11.8505 7.35H12.2005L8.00049 16.175L7.55049 16.05ZM11.5505 6.7H12.5005L16.8755 16.05L16.1755 16.825L11.4005 14.9H12.6005L7.85049 16.825L7.12549 16.05L11.5505 6.7Z" fill="black"/>
</g>
<defs>
<clipPath id="clip0_3218_5628">
<rect width="24" height="24" fill="white"/>
</clipPath>
</defs>
</svg>
