<svg width="24" height="24" viewBox="0 0 24 24" fill="none" xmlns="http://www.w3.org/2000/svg">
<g clip-path="url(#clip0_3218_5974)">
<rect width="24" height="24" fill="white"/>
<path d="M3.00049 3H11.0005V5.9H5.95049V11H3.00049V3ZM18.0505 5.9H13.0005V3H21.0005V11H18.0505V5.9ZM5.95049 18.1H11.0005V21H3.00049V13H5.95049V18.1ZM21.0005 21H13.0005V18.1H18.0505V13H21.0005V21ZM9.40049 7.45L12.0005 10.1L14.5755 7.45L16.5255 9.4L13.8755 12L16.5255 14.6L14.5755 16.525L12.0005 13.9L9.42549 16.525L7.47549 14.575L10.1005 12L7.45049 9.4L9.40049 7.45Z" fill="black"/>
</g>
<defs>
<clipPath id="clip0_3218_5974">
<rect width="24" height="24" fill="white"/>
</clipPath>
</defs>
</svg>
