<svg width="24" height="24" viewBox="0 0 24 24" fill="none" xmlns="http://www.w3.org/2000/svg">
<g clip-path="url(#clip0_3216_1676)">
<rect width="24" height="24" fill="white"/>
<path d="M3.00049 3H10.5005V3.475H3.50049V10.5H3.00049V3ZM20.5005 3.475H13.5005V3H21.0005V10.5H20.5005V3.475ZM3.50049 20.525H10.5005V21H3.00049V13.5H3.50049V20.525ZM21.0005 21H13.5005V20.525H20.5005V13.5H21.0005V21ZM12.0005 6.6C12.8172 6.6 13.5672 6.79167 14.2505 7.175C14.9338 7.55833 15.4672 8.09167 15.8505 8.775C16.2505 9.44167 16.4505 10.1833 16.4505 11C16.4505 12.2167 16.0422 13.375 15.2255 14.475C14.4255 15.575 13.3505 16.6917 12.0005 17.825C10.6505 16.6917 9.56716 15.575 8.75049 14.475C7.95049 13.375 7.55049 12.2167 7.55049 11C7.55049 10.1833 7.74216 9.44167 8.12549 8.775C8.52549 8.09167 9.06716 7.55833 9.75049 7.175C10.4338 6.79167 11.1838 6.6 12.0005 6.6ZM12.0005 7.075C11.2838 7.075 10.6172 7.25 10.0005 7.6C9.40049 7.95 8.92549 8.425 8.57549 9.025C8.22549 9.625 8.05049 10.2833 8.05049 11C8.05049 11.7667 8.24216 12.525 8.62549 13.275C9.00882 14.0083 9.50049 14.7083 10.1005 15.375C10.7005 16.025 11.4005 16.6917 12.2005 17.375H11.8005C12.6172 16.675 13.3172 16 13.9005 15.35C14.5005 14.7 14.9922 14.0083 15.3755 13.275C15.7588 12.5417 15.9505 11.7833 15.9505 11C15.9505 10.2833 15.7755 9.625 15.4255 9.025C15.0755 8.425 14.5922 7.95 13.9755 7.6C13.3755 7.25 12.7172 7.075 12.0005 7.075ZM12.0005 11.575C11.8672 11.575 11.7505 11.525 11.6505 11.425C11.5505 11.325 11.5005 11.2083 11.5005 11.075C11.5005 10.9417 11.5505 10.825 11.6505 10.725C11.7505 10.625 11.8672 10.575 12.0005 10.575C12.1338 10.575 12.2505 10.625 12.3505 10.725C12.4505 10.825 12.5005 10.9417 12.5005 11.075C12.5005 11.2083 12.4505 11.325 12.3505 11.425C12.2505 11.525 12.1338 11.575 12.0005 11.575Z" fill="black"/>
</g>
<defs>
<clipPath id="clip0_3216_1676">
<rect width="24" height="24" fill="white"/>
</clipPath>
</defs>
</svg>
