<svg width="24" height="24" viewBox="0 0 24 24" fill="none" xmlns="http://www.w3.org/2000/svg">
<g clip-path="url(#clip0_3218_5970)">
<rect width="24" height="24" fill="white"/>
<path d="M3.00049 3H11.0005V4.8H4.85049V11H3.00049V3ZM19.1505 4.8H13.0005V3H21.0005V11H19.1505V4.8ZM4.85049 19.2H11.0005V21H3.00049V13H4.85049V19.2ZM21.0005 21H13.0005V19.2H19.1505V13H21.0005V21ZM8.92549 7.725L12.0005 10.8L15.0755 7.725L16.2755 8.925L13.2005 12L16.2755 15.075L15.0755 16.275L12.0005 13.2L8.92549 16.275L7.72549 15.075L10.8005 12L7.72549 8.925L8.92549 7.725Z" fill="black"/>
</g>
<defs>
<clipPath id="clip0_3218_5970">
<rect width="24" height="24" fill="white"/>
</clipPath>
</defs>
</svg>
