<svg width="24" height="24" viewBox="0 0 24 24" fill="none" xmlns="http://www.w3.org/2000/svg">
<g clip-path="url(#clip0_3218_5430)">
<rect width="24" height="24" fill="white"/>
<path d="M3.00049 3H11.0005V6.45H6.72549V11H3.00049V3ZM17.5005 6.45H13.0005V3H21.0005V11H17.5005V6.45ZM6.72549 17.55H11.0005V21H3.00049V13H6.72549V17.55ZM21.0005 21H13.0005V17.55H17.5005V13H21.0005V21ZM12.0005 8.05C12.6172 8.05 13.1672 8.19167 13.6505 8.475C14.1338 8.74167 14.5088 9.11667 14.7755 9.6C15.0588 10.0833 15.2005 10.6333 15.2005 11.25C15.2005 12.1 14.9005 12.9167 14.3005 13.7C13.7005 14.4667 12.9338 15.2833 12.0005 16.15C11.0838 15.35 10.3172 14.55 9.70049 13.75C9.10049 12.9333 8.80049 12.1 8.80049 11.25C8.80049 10.6333 8.93382 10.0833 9.20049 9.6C9.48382 9.11667 9.86716 8.74167 10.3505 8.475C10.8338 8.19167 11.3838 8.05 12.0005 8.05ZM12.0005 14.1C11.9005 14.1 11.8255 14.1 11.7755 14.1C11.7255 14.1 11.6755 14.1 11.6255 14.1C11.5755 14.1 11.5005 14.1 11.4005 14.1C11.5172 14.1 11.6005 14.1 11.6505 14.1C11.7172 14.1 11.7755 14.1 11.8255 14.1C11.8922 14.1 11.9838 14.1 12.1005 14.1H11.9005C12.0172 14.1 12.1005 14.1 12.1505 14.1C12.2172 14.1 12.2755 14.1 12.3255 14.1C12.3922 14.1 12.4838 14.1 12.6005 14.1C12.5005 14.1 12.4255 14.1 12.3755 14.1C12.3255 14.1 12.2755 14.1 12.2255 14.1C12.1755 14.1 12.1005 14.1 12.0005 14.1ZM12.0005 11.25C12.2838 11.25 12.4922 11.25 12.6255 11.25C12.7755 11.25 12.9922 11.25 13.2755 11.25C12.9922 11.25 12.7755 11.25 12.6255 11.25C12.4922 11.25 12.2838 11.25 12.0005 11.25C11.7172 11.25 11.5005 11.25 11.3505 11.25C11.2172 11.25 11.0088 11.25 10.7255 11.25C11.0088 11.25 11.2172 11.25 11.3505 11.25C11.5005 11.25 11.7172 11.25 12.0005 11.25Z" fill="black"/>
</g>
<defs>
<clipPath id="clip0_3218_5430">
<rect width="24" height="24" fill="white"/>
</clipPath>
</defs>
</svg>
