<svg width="24" height="24" viewBox="0 0 24 24" fill="none" xmlns="http://www.w3.org/2000/svg">
<g clip-path="url(#clip0_3216_2348)">
<rect width="24" height="24" fill="white"/>
<path d="M12.7755 14.175H11.2255H12.7755ZM12.0005 9.9C12.5005 9.48333 13.0338 9.21667 13.6005 9.1C14.1672 8.98333 14.8672 8.925 15.7005 8.925V14.5C14.8338 14.5 14.1255 14.5667 13.5755 14.7C13.0255 14.8333 12.5005 15.1417 12.0005 15.625C11.5005 15.1417 10.9755 14.8333 10.4255 14.7C9.87549 14.5667 9.16716 14.5 8.30049 14.5V8.925C9.15049 8.925 9.85049 8.98333 10.4005 9.1C10.9672 9.21667 11.5005 9.48333 12.0005 9.9ZM2.00049 4H22.0005V20H2.00049V4ZM18.5005 16.55V7.45H5.50049V16.55H18.5005Z" fill="black"/>
</g>
<defs>
<clipPath id="clip0_3216_2348">
<rect width="24" height="24" fill="white"/>
</clipPath>
</defs>
</svg>
