<svg width="24" height="24" viewBox="0 0 24 24" fill="none" xmlns="http://www.w3.org/2000/svg">
<g clip-path="url(#clip0_3218_6122)">
<rect width="24" height="24" fill="white"/>
<path d="M8.30049 14.05C7.90049 14.05 7.55882 14.1917 7.27549 14.475C7.00882 14.7417 6.87549 15.0833 6.87549 15.5C6.87549 15.9167 7.00882 16.2667 7.27549 16.55C7.55882 16.8167 7.90049 16.95 8.30049 16.95H15.7005C16.1005 16.95 16.4338 16.8167 16.7005 16.55C16.9838 16.2667 17.1255 15.9167 17.1255 15.5C17.1255 15.0833 16.9838 14.7417 16.7005 14.475C16.4338 14.1917 16.1005 14.05 15.7005 14.05H8.30049ZM8.30049 17.825C7.65049 17.825 7.10049 17.6 6.65049 17.15C6.20049 16.7 5.97549 16.15 5.97549 15.5C5.97549 14.85 6.20049 14.3 6.65049 13.85C7.10049 13.4 7.65049 13.175 8.30049 13.175H15.7005C16.3672 13.175 16.9172 13.4 17.3505 13.85C17.8005 14.3 18.0255 14.85 18.0255 15.5C18.0255 16.15 17.8005 16.7 17.3505 17.15C16.9172 17.6 16.3672 17.825 15.7005 17.825H8.30049ZM6.67549 21C5.99216 21 5.36716 20.8417 4.80049 20.525C4.25049 20.1917 3.80882 19.75 3.47549 19.2C3.15882 18.6333 3.00049 18.0083 3.00049 17.325V6.675C3.00049 5.99167 3.15882 5.36667 3.47549 4.8C3.80882 4.23333 4.25049 3.79167 4.80049 3.475C5.36716 3.15833 5.99216 3 6.67549 3H17.3255C18.0088 3 18.6338 3.15833 19.2005 3.475C19.7672 3.79167 20.2088 4.23333 20.5255 4.8C20.8422 5.36667 21.0005 5.99167 21.0005 6.675V17.325C21.0005 18.0083 20.8422 18.6333 20.5255 19.2C20.2088 19.75 19.7672 20.1917 19.2005 20.525C18.6338 20.8417 18.0088 21 17.3255 21H6.67549ZM17.3255 20.075C18.0755 20.075 18.7088 19.8083 19.2255 19.275C19.7588 18.7417 20.0255 18.0917 20.0255 17.325V6.675C20.0255 5.90833 19.7588 5.25833 19.2255 4.725C18.7088 4.19167 18.0755 3.925 17.3255 3.925H6.67549C5.92549 3.925 5.28382 4.19167 4.75049 4.725C4.23382 5.25833 3.97549 5.90833 3.97549 6.675V17.325C3.97549 18.0917 4.23382 18.7417 4.75049 19.275C5.28382 19.8083 5.92549 20.075 6.67549 20.075H17.3255Z" fill="black"/>
</g>
<defs>
<clipPath id="clip0_3218_6122">
<rect width="24" height="24" fill="white"/>
</clipPath>
</defs>
</svg>
