<svg width="24" height="24" viewBox="0 0 24 24" fill="none" xmlns="http://www.w3.org/2000/svg">
<g clip-path="url(#clip0_3218_6128)">
<rect width="24" height="24" fill="white"/>
<path d="M9.30049 13.525C9.08382 13.525 8.89216 13.6 8.72549 13.75C8.57549 13.9 8.50049 14.0917 8.50049 14.325C8.50049 14.5583 8.57549 14.7583 8.72549 14.925C8.89216 15.075 9.08382 15.15 9.30049 15.15H14.7005C14.9338 15.15 15.1255 15.075 15.2755 14.925C15.4255 14.7583 15.5005 14.5583 15.5005 14.325C15.5005 14.0917 15.4255 13.9 15.2755 13.75C15.1255 13.6 14.9338 13.525 14.7005 13.525H9.30049ZM9.30049 17C8.53382 17 7.89216 16.7417 7.37549 16.225C6.85882 15.7083 6.60049 15.075 6.60049 14.325C6.60049 13.5917 6.85882 12.9667 7.37549 12.45C7.89216 11.9333 8.53382 11.675 9.30049 11.675H14.7005C15.4672 11.675 16.1088 11.9333 16.6255 12.45C17.1422 12.95 17.4005 13.575 17.4005 14.325C17.4005 15.075 17.1422 15.7083 16.6255 16.225C16.1088 16.7417 15.4672 17 14.7005 17H9.30049ZM7.17549 21C6.40882 21 5.70049 20.8167 5.05049 20.45C4.41716 20.0833 3.91716 19.5833 3.55049 18.95C3.18382 18.3 3.00049 17.5917 3.00049 16.825V7.175C3.00049 6.40833 3.18382 5.70833 3.55049 5.075C3.93382 4.425 4.45049 3.91667 5.10049 3.55C5.76716 3.18333 6.49216 3 7.27549 3H16.8255C17.5922 3 18.2922 3.18333 18.9255 3.55C19.5755 3.91667 20.0838 4.425 20.4505 5.075C20.8172 5.70833 21.0005 6.40833 21.0005 7.175V16.825C21.0005 17.5917 20.8172 18.3 20.4505 18.95C20.0838 19.5833 19.5755 20.0833 18.9255 20.45C18.2922 20.8167 17.5922 21 16.8255 21H7.17549ZM16.8255 18.6C17.3088 18.6 17.7172 18.425 18.0505 18.075C18.4005 17.725 18.5755 17.3083 18.5755 16.825V7.175C18.5755 6.69167 18.4005 6.275 18.0505 5.925C17.7172 5.575 17.3088 5.4 16.8255 5.4H7.17549C6.70882 5.4 6.30049 5.575 5.95049 5.925C5.61716 6.275 5.45049 6.69167 5.45049 7.175V16.825C5.45049 17.3083 5.61716 17.725 5.95049 18.075C6.30049 18.425 6.70882 18.6 7.17549 18.6H16.8255Z" fill="black"/>
</g>
<defs>
<clipPath id="clip0_3218_6128">
<rect width="24" height="24" fill="white"/>
</clipPath>
</defs>
</svg>
