<svg width="24" height="24" viewBox="0 0 24 24" fill="none" xmlns="http://www.w3.org/2000/svg">
<g clip-path="url(#clip0_3218_6132)">
<rect width="24" height="24" fill="white"/>
<path d="M11.0005 14.3C10.8172 14.3 10.6838 14.3 10.6005 14.3C10.5172 14.3 10.3838 14.3 10.2005 14.3C10.3838 14.3 10.5172 14.3 10.6005 14.3C10.6838 14.3 10.8172 14.3 11.0005 14.3H13.0005C13.1838 14.3 13.3172 14.3 13.4005 14.3C13.4838 14.3 13.6172 14.3 13.8005 14.3C13.6172 14.3 13.4838 14.3 13.4005 14.3C13.3172 14.3 13.1838 14.3 13.0005 14.3H11.0005ZM9.67549 16.05C9.19216 16.05 8.77549 15.8833 8.42549 15.55C8.09216 15.2 7.92549 14.7833 7.92549 14.3C7.92549 13.8167 8.09216 13.4083 8.42549 13.075C8.77549 12.725 9.19216 12.55 9.67549 12.55H14.3255C14.8088 12.55 15.2172 12.725 15.5505 13.075C15.9005 13.4083 16.0755 13.8167 16.0755 14.3C16.0755 14.7833 15.9005 15.2 15.5505 15.55C15.2172 15.8833 14.8088 16.05 14.3255 16.05H9.67549ZM7.50049 21C6.66716 21 5.90882 20.8 5.22549 20.4C4.54216 20 4.00049 19.4583 3.60049 18.775C3.20049 18.0917 3.00049 17.3333 3.00049 16.5V7.5C3.00049 6.66667 3.20882 5.90833 3.62549 5.225C4.05882 4.54167 4.63382 4 5.35049 3.6C6.08382 3.2 6.88382 3 7.75049 3H16.5005C17.3338 3 18.0922 3.2 18.7755 3.6C19.4588 4 20.0005 4.54167 20.4005 5.225C20.8005 5.90833 21.0005 6.66667 21.0005 7.5V16.5C21.0005 17.3333 20.8005 18.0917 20.4005 18.775C20.0005 19.4583 19.4588 20 18.7755 20.4C18.0922 20.8 17.3338 21 16.5005 21H7.50049ZM16.5005 17.6C16.8005 17.6 17.0505 17.5 17.2505 17.3C17.4505 17.0833 17.5505 16.8167 17.5505 16.5V7.5C17.5505 7.18333 17.4505 6.925 17.2505 6.725C17.0505 6.50833 16.8005 6.4 16.5005 6.4H7.50049C7.20049 6.4 6.95049 6.50833 6.75049 6.725C6.55049 6.925 6.45049 7.175 6.45049 7.475V16.5C6.45049 16.8167 6.55049 17.0833 6.75049 17.3C6.95049 17.5 7.20049 17.6 7.50049 17.6H16.5005Z" fill="black"/>
</g>
<defs>
<clipPath id="clip0_3218_6132">
<rect width="24" height="24" fill="white"/>
</clipPath>
</defs>
</svg>
