<svg width="24" height="24" viewBox="0 0 24 24" fill="none" xmlns="http://www.w3.org/2000/svg">
<g clip-path="url(#clip0_3218_6130)">
<rect width="24" height="24" fill="white"/>
<path d="M9.92549 14.875C9.77549 14.875 9.66716 14.875 9.60049 14.875C9.53382 14.875 9.42549 14.875 9.27549 14.875C9.42549 14.875 9.53382 14.875 9.60049 14.875C9.66716 14.875 9.77549 14.875 9.92549 14.875H14.0755C14.2255 14.875 14.3338 14.875 14.4005 14.875C14.4672 14.875 14.5755 14.875 14.7255 14.875C14.5755 14.875 14.4672 14.875 14.4005 14.875C14.3338 14.875 14.2255 14.875 14.0755 14.875H9.92549ZM9.12549 16.45C8.69216 16.45 8.31716 16.3 8.00049 16C7.70049 15.6833 7.55049 15.3083 7.55049 14.875C7.55049 14.425 7.70049 14.05 8.00049 13.75C8.31716 13.4333 8.69216 13.275 9.12549 13.275H14.8755C15.3255 13.275 15.7005 13.4333 16.0005 13.75C16.3005 14.05 16.4505 14.425 16.4505 14.875C16.4505 15.3083 16.3005 15.6833 16.0005 16C15.7005 16.3 15.3255 16.45 14.8755 16.45H9.12549ZM7.32549 21C6.52549 21 5.79216 20.8083 5.12549 20.425C4.47549 20.0417 3.95882 19.525 3.57549 18.875C3.19216 18.2083 3.00049 17.475 3.00049 16.675V7.325C3.00049 6.525 3.20049 5.8 3.60049 5.15C4.00049 4.48333 4.54216 3.95833 5.22549 3.575C5.92549 3.19167 6.68382 3 7.50049 3H16.6755C17.4755 3 18.2005 3.19167 18.8505 3.575C19.5172 3.95833 20.0422 4.48333 20.4255 5.15C20.8088 5.8 21.0005 6.525 21.0005 7.325V16.675C21.0005 17.475 20.8088 18.2083 20.4255 18.875C20.0422 19.525 19.5172 20.0417 18.8505 20.425C18.2005 20.8083 17.4755 21 16.6755 21H7.32549ZM16.6755 18.125C17.0588 18.125 17.3838 17.9833 17.6505 17.7C17.9338 17.4167 18.0755 17.075 18.0755 16.675V7.325C18.0755 6.90833 17.9338 6.56667 17.6505 6.3C17.3838 6.01667 17.0588 5.875 16.6755 5.875H7.32549C6.92549 5.875 6.59216 6.01667 6.32549 6.3C6.05882 6.56667 5.92549 6.9 5.92549 7.3V16.675C5.92549 17.075 6.05882 17.4167 6.32549 17.7C6.59216 17.9833 6.92549 18.125 7.32549 18.125H16.6755Z" fill="black"/>
</g>
<defs>
<clipPath id="clip0_3218_6130">
<rect width="24" height="24" fill="white"/>
</clipPath>
</defs>
</svg>
