<svg width="24" height="24" viewBox="0 0 24 24" fill="none" xmlns="http://www.w3.org/2000/svg">
<g clip-path="url(#clip0_3219_10914)">
<rect width="24" height="24" fill="white"/>
<path d="M6.25049 4.5C5.76716 4.5 5.35049 4.675 5.00049 5.025C4.66716 5.35833 4.50049 5.76667 4.50049 6.25C4.50049 6.73333 4.66716 7.14167 5.00049 7.475C5.35049 7.80833 5.76716 7.975 6.25049 7.975C6.73382 7.975 7.14216 7.80833 7.47549 7.475C7.82549 7.14167 8.00049 6.73333 8.00049 6.25C8.00049 5.76667 7.82549 5.35833 7.47549 5.025C7.14216 4.675 6.73382 4.5 6.25049 4.5ZM6.25049 9.725C5.61716 9.725 5.02549 9.575 4.47549 9.275C3.94215 8.95833 3.51715 8.53333 3.20049 8C2.90049 7.46667 2.75049 6.88333 2.75049 6.25C2.75049 5.61667 2.90049 5.03333 3.20049 4.5C3.51715 3.96667 3.94215 3.55 4.47549 3.25C5.02549 2.93333 5.61716 2.775 6.25049 2.775C6.88382 2.775 7.46716 2.93333 8.00049 3.25C8.55049 3.55 8.97549 3.96667 9.27549 4.5C9.59216 5.03333 9.75049 5.61667 9.75049 6.25C9.75049 6.88333 9.59216 7.46667 9.27549 8C8.97549 8.53333 8.55049 8.95833 8.00049 9.275C7.46716 9.575 6.88382 9.725 6.25049 9.725ZM6.25049 19.5C6.73382 19.5 7.14216 19.3333 7.47549 19C7.82549 18.65 8.00049 18.2333 8.00049 17.75C8.00049 17.2667 7.82549 16.8583 7.47549 16.525C7.14216 16.175 6.73382 16 6.25049 16C5.76716 16 5.35049 16.175 5.00049 16.525C4.66716 16.8583 4.50049 17.2667 4.50049 17.75C4.50049 18.2333 4.66716 18.65 5.00049 19C5.35049 19.3333 5.76716 19.5 6.25049 19.5ZM9.75049 17.75C9.75049 18.3833 9.59216 18.9667 9.27549 19.5C8.97549 20.0333 8.55049 20.4583 8.00049 20.775C7.46716 21.075 6.88382 21.225 6.25049 21.225C5.61716 21.225 5.02549 21.075 4.47549 20.775C3.94215 20.4583 3.51715 20.0333 3.20049 19.5C2.90049 18.9667 2.75049 18.3833 2.75049 17.75C2.75049 17.1167 2.90049 16.5333 3.20049 16C3.51715 15.4667 3.94215 15.05 4.47549 14.75C5.02549 14.4333 5.61716 14.275 6.25049 14.275C6.88382 14.275 7.46716 14.4333 8.00049 14.75C8.55049 15.05 8.97549 15.4667 9.27549 16C9.59216 16.5333 9.75049 17.1167 9.75049 17.75ZM18.5505 4.125C18.9505 3.725 19.4005 3.51667 19.9005 3.5C20.4172 3.46667 20.8755 3.64167 21.2755 4.025L8.97549 16.325L7.67549 15.025L18.5505 4.125ZM8.97549 7.675L21.2755 19.975C20.8755 20.3583 20.4172 20.5417 19.9005 20.525C19.3838 20.4917 18.9338 20.275 18.5505 19.875L7.67549 8.975L8.97549 7.675Z" fill="black"/>
</g>
<defs>
<clipPath id="clip0_3219_10914">
<rect width="24" height="24" fill="white"/>
</clipPath>
</defs>
</svg>
