<svg width="24" height="24" viewBox="0 0 24 24" fill="none" xmlns="http://www.w3.org/2000/svg">
<g clip-path="url(#clip0_3219_10916)">
<rect width="24" height="24" fill="white"/>
<path d="M6.45049 4.925C6.01716 4.925 5.65049 5.075 5.35049 5.375C5.06716 5.65833 4.92549 6.01667 4.92549 6.45C4.92549 6.86667 5.06716 7.225 5.35049 7.525C5.65049 7.80833 6.01716 7.95 6.45049 7.95C6.86716 7.95 7.21716 7.80833 7.50049 7.525C7.80049 7.225 7.95049 6.86667 7.95049 6.45C7.95049 6.01667 7.80049 5.65833 7.50049 5.375C7.21716 5.075 6.86716 4.925 6.45049 4.925ZM6.45049 10.1C5.78382 10.1 5.15882 9.94167 4.57549 9.625C4.00882 9.29167 3.55882 8.85 3.22549 8.3C2.90882 7.73333 2.75049 7.11667 2.75049 6.45C2.75049 5.78333 2.90882 5.16667 3.22549 4.6C3.55882 4.03333 4.00882 3.59167 4.57549 3.275C5.15882 2.94167 5.78382 2.775 6.45049 2.775C7.11716 2.775 7.73382 2.94167 8.30049 3.275C8.86716 3.59167 9.30882 4.03333 9.62549 4.6C9.95882 5.16667 10.1255 5.78333 10.1255 6.45C10.1255 7.11667 9.95882 7.73333 9.62549 8.3C9.30882 8.85 8.86716 9.29167 8.30049 9.625C7.73382 9.94167 7.11716 10.1 6.45049 10.1ZM6.45049 19.075C6.86716 19.075 7.21716 18.9333 7.50049 18.65C7.80049 18.35 7.95049 17.9833 7.95049 17.55C7.95049 17.1333 7.80049 16.7833 7.50049 16.5C7.21716 16.2 6.86716 16.05 6.45049 16.05C6.01716 16.05 5.65049 16.2 5.35049 16.5C5.06716 16.7833 4.92549 17.1333 4.92549 17.55C4.92549 17.9833 5.06716 18.35 5.35049 18.65C5.65049 18.9333 6.01716 19.075 6.45049 19.075ZM10.1255 17.55C10.1255 18.2167 9.95882 18.8333 9.62549 19.4C9.30882 19.9667 8.86716 20.4167 8.30049 20.75C7.73382 21.0667 7.11716 21.225 6.45049 21.225C5.78382 21.225 5.15882 21.0667 4.57549 20.75C4.00882 20.4167 3.55882 19.9667 3.22549 19.4C2.90882 18.8333 2.75049 18.2167 2.75049 17.55C2.75049 16.8833 2.90882 16.275 3.22549 15.725C3.55882 15.1583 4.00882 14.7083 4.57549 14.375C5.15882 14.0417 5.78382 13.875 6.45049 13.875C7.11716 13.875 7.73382 14.0417 8.30049 14.375C8.86716 14.7083 9.30882 15.1583 9.62549 15.725C9.95882 16.275 10.1255 16.8833 10.1255 17.55ZM17.9255 4.35C18.4088 3.86667 18.9588 3.63333 19.5755 3.65C20.1922 3.65 20.7588 3.9 21.2755 4.4L9.17549 16.5L7.50049 14.8L17.9255 4.35ZM9.17549 7.5L21.2755 19.6C20.7588 20.1 20.1838 20.3583 19.5505 20.375C18.9338 20.375 18.3922 20.1333 17.9255 19.65L7.50049 9.2L9.17549 7.5Z" fill="black"/>
</g>
<defs>
<clipPath id="clip0_3219_10916">
<rect width="24" height="24" fill="white"/>
</clipPath>
</defs>
</svg>
