<svg width="24" height="24" viewBox="0 0 24 24" fill="none" xmlns="http://www.w3.org/2000/svg">
<g clip-path="url(#clip0_3219_10912)">
<rect width="24" height="24" fill="white"/>
<path d="M6.20049 4.075C5.65049 4.075 5.17549 4.275 4.77549 4.675C4.37549 5.075 4.17549 5.55833 4.17549 6.125C4.17549 6.69167 4.37549 7.175 4.77549 7.575C5.17549 7.95833 5.65049 8.15 6.20049 8.15C6.76716 8.15 7.25049 7.95833 7.65049 7.575C8.05049 7.175 8.25049 6.69167 8.25049 6.125C8.25049 5.55833 8.05049 5.075 7.65049 4.675C7.25049 4.275 6.76716 4.075 6.20049 4.075ZM6.20049 9.475C5.60049 9.475 5.03382 9.325 4.50049 9.025C3.98382 8.725 3.57549 8.325 3.27549 7.825C2.97549 7.30833 2.82549 6.74167 2.82549 6.125C2.82549 5.50833 2.97549 4.95 3.27549 4.45C3.57549 3.93333 3.98382 3.525 4.50049 3.225C5.03382 2.925 5.60049 2.775 6.20049 2.775C6.81716 2.775 7.38382 2.925 7.90049 3.225C8.41716 3.525 8.82549 3.93333 9.12549 4.45C9.42549 4.95 9.57549 5.50833 9.57549 6.125C9.57549 6.74167 9.42549 7.30833 9.12549 7.825C8.84216 8.325 8.43382 8.725 7.90049 9.025C7.38382 9.325 6.81716 9.475 6.20049 9.475ZM6.20049 19.925C6.76716 19.925 7.25049 19.725 7.65049 19.325C8.05049 18.925 8.25049 18.4417 8.25049 17.875C8.25049 17.3083 8.05049 16.825 7.65049 16.425C7.25049 16.025 6.76716 15.825 6.20049 15.825C5.65049 15.825 5.17549 16.025 4.77549 16.425C4.37549 16.825 4.17549 17.3083 4.17549 17.875C4.17549 18.4417 4.37549 18.925 4.77549 19.325C5.17549 19.725 5.65049 19.925 6.20049 19.925ZM9.57549 17.875C9.57549 18.4917 9.42549 19.0583 9.12549 19.575C8.82549 20.075 8.41716 20.475 7.90049 20.775C7.38382 21.075 6.81716 21.225 6.20049 21.225C5.60049 21.225 5.03382 21.075 4.50049 20.775C3.98382 20.475 3.57549 20.075 3.27549 19.575C2.97549 19.0583 2.82549 18.4917 2.82549 17.875C2.82549 17.2583 2.97549 16.7 3.27549 16.2C3.57549 15.6833 3.98382 15.275 4.50049 14.975C5.03382 14.675 5.60049 14.525 6.20049 14.525C6.81716 14.525 7.38382 14.675 7.90049 14.975C8.41716 15.275 8.82549 15.6833 9.12549 16.2C9.42549 16.7167 9.57549 17.275 9.57549 17.875ZM19.1005 4C19.4005 3.7 19.7422 3.54167 20.1255 3.525C20.5255 3.49167 20.8755 3.61667 21.1755 3.9L8.77549 16.3L7.80049 15.325L19.1005 4ZM8.77549 7.7L21.1755 20.1C20.8755 20.3833 20.5255 20.5167 20.1255 20.5C19.7255 20.4667 19.3838 20.3 19.1005 20L7.80049 8.675L8.77549 7.7Z" fill="black"/>
</g>
<defs>
<clipPath id="clip0_3219_10912">
<rect width="24" height="24" fill="white"/>
</clipPath>
</defs>
</svg>
