<svg width="24" height="24" viewBox="0 0 24 24" fill="none" xmlns="http://www.w3.org/2000/svg">
<g clip-path="url(#clip0_3216_1590)">
<rect width="24" height="24" fill="white"/>
<path d="M8.80049 20.85C4.93382 18.6167 3.00049 15.8 3.00049 12.4V4.275L12.0005 1L21.0005 4.275V12.4C21.0005 15.8 19.0672 18.6167 15.2005 20.85L12.0005 22.7L8.80049 20.85ZM14.9505 20.45C16.7672 19.4 18.1422 18.2083 19.0755 16.875C20.0255 15.5417 20.5005 14.05 20.5005 12.4V4.6L12.0005 1.5L3.50049 4.6V12.4C3.50049 14.05 3.96716 15.5417 4.90049 16.875C5.85049 18.2083 7.23382 19.4 9.05049 20.45L12.0005 22.15L14.9505 20.45ZM9.52549 6.4L15.2505 11.2L9.52549 13.85V6.4ZM12.0505 12.375L12.4755 12.175L14.0505 15.525L13.6255 15.725L12.0505 12.375ZM12.0505 12.375L12.4755 12.175L14.0505 15.525L13.6255 15.725L12.0505 12.375ZM14.3505 11.075L9.97549 7.375L10.0005 13.1L14.3505 11.075Z" fill="black"/>
</g>
<defs>
<clipPath id="clip0_3216_1590">
<rect width="24" height="24" fill="white"/>
</clipPath>
</defs>
</svg>
