<svg width="24" height="24" viewBox="0 0 24 24" fill="none" xmlns="http://www.w3.org/2000/svg">
<g clip-path="url(#clip0_3379_7510)">
<rect width="24" height="24" fill="white"/>
<path d="M14.325 19.2H21V21H14.325V19.2ZM16.75 14.5H21V16.3H16.75V14.5ZM17.525 9.8H21V11.6H17.525V9.8ZM7.5 3.3C7.5 2.78333 7.66667 2.35833 8 2.025C8.35 1.675 8.78333 1.5 9.3 1.5H13.2C13.7167 1.5 14.1417 1.675 14.475 2.025C14.825 2.35833 15 2.78333 15 3.3V5.825H13.2V3.3C13.2 3.28333 13.1917 3.275 13.175 3.275C13.175 3.25833 13.1667 3.25 13.15 3.25H9.35C9.33333 3.25 9.31667 3.25833 9.3 3.275C9.3 3.275 9.3 3.28333 9.3 3.3V5.825H7.5V3.3ZM17.475 18.05C17.3917 18.9167 17.05 19.625 16.45 20.175C15.8667 20.725 15.1417 21 14.275 21H8.225C7.35833 21 6.625 20.725 6.025 20.175C5.44167 19.625 5.10833 18.9167 5.025 18.05L3.875 6.375H5.825H16.675H18.625L17.475 18.05ZM2.5 5H21V6.9H2.5V5Z" fill="black"/>
</g>
<defs>
<clipPath id="clip0_3379_7510">
<rect width="24" height="24" fill="white"/>
</clipPath>
</defs>
</svg>
