<svg width="24" height="24" viewBox="0 0 24 24" fill="none" xmlns="http://www.w3.org/2000/svg">
<g clip-path="url(#clip0_3379_7514)">
<rect width="24" height="24" fill="white"/>
<path d="M15.2 19.275H22V22H14.7L15.2 19.275ZM16.75 14.05H22V16.75H16.75V14.05ZM17.525 8.825H22V11.525H17.525V8.825ZM8.075 2.25C8.075 1.9 8.19167 1.60833 8.425 1.375C8.675 1.125 8.975 1 9.325 1H13C13.35 1 13.6417 1.125 13.875 1.375C14.125 1.60833 14.25 1.9 14.25 2.25V4.075H13.275H13.1C12.95 4.075 12.8417 4.075 12.775 4.075C12.7083 4.075 12.6 4.075 12.45 4.075H9.425C9.30833 4.075 9.21667 4.075 9.15 4.075C9.08333 4.075 8.99167 4.075 8.875 4.075H8.7H8.075V2.25ZM17.475 19.05C17.3917 19.9167 17.05 20.625 16.45 21.175C15.8667 21.725 15.1417 22 14.275 22H7.725C6.85833 22 6.125 21.725 5.525 21.175C4.94167 20.625 4.60833 19.9167 4.525 19.05L3.325 5.25H18.675L17.475 19.05ZM2 3.5H22V6.275H2V3.5Z" fill="black"/>
</g>
<defs>
<clipPath id="clip0_3379_7514">
<rect width="24" height="24" fill="white"/>
</clipPath>
</defs>
</svg>
