<svg width="24" height="24" viewBox="0 0 24 24" fill="none" xmlns="http://www.w3.org/2000/svg">
<g clip-path="url(#clip0_3217_5238)">
<rect width="24" height="24" fill="white"/>
<path d="M14.4755 21.525H22.0005V22H14.4755V21.525ZM17.5005 15.675H22.0005V16.15H17.5005V15.675ZM18.0255 9.85H22.0005V10.325H18.0255V9.85ZM7.00049 2.75C7.00049 2.26667 7.16716 1.85833 7.50049 1.525C7.85049 1.175 8.26716 1 8.75049 1H13.2505C13.7338 1 14.1422 1.175 14.4755 1.525C14.8255 1.85833 15.0005 2.26667 15.0005 2.75V4.825H14.5255V2.75C14.5255 2.38333 14.4005 2.08333 14.1505 1.85C13.9005 1.6 13.6005 1.475 13.2505 1.475H8.75049C8.40049 1.475 8.10049 1.6 7.85049 1.85C7.60049 2.08333 7.47549 2.38333 7.47549 2.75V4.825H7.00049V2.75ZM17.4505 19.325C17.3838 20.1417 17.0755 20.7917 16.5255 21.275C15.9922 21.7583 15.3088 22 14.4755 22H7.52549C6.69216 22 6.00049 21.7583 5.45049 21.275C4.91716 20.7917 4.61716 20.1417 4.55049 19.325L3.20049 4.75H3.70049L5.05049 19.3C5.11716 19.9833 5.36716 20.525 5.80049 20.925C6.25049 21.325 6.82549 21.525 7.52549 21.525H14.4755C15.1755 21.525 15.7422 21.325 16.1755 20.925C16.6255 20.525 16.8838 19.9833 16.9505 19.3L18.3005 4.75H18.8005L17.4505 19.325ZM2.00049 4.5H22.0005V4.975H2.00049V4.5Z" fill="black"/>
</g>
<defs>
<clipPath id="clip0_3217_5238">
<rect width="24" height="24" fill="white"/>
</clipPath>
</defs>
</svg>
