<svg width="24" height="24" viewBox="0 0 24 24" fill="none" xmlns="http://www.w3.org/2000/svg">
<g clip-path="url(#clip0_3379_7496)">
<rect width="24" height="24" fill="white"/>
<path d="M14.3255 19.2H21.0005V21H14.3255V19.2ZM16.7505 14.5H21.0005V16.3H16.7505V14.5ZM17.5255 9.8H21.0005V11.6H17.5255V9.8ZM7.50049 3.3C7.50049 2.78333 7.66716 2.35833 8.00049 2.025C8.35049 1.675 8.78382 1.5 9.30049 1.5H13.2005C13.7172 1.5 14.1422 1.675 14.4755 2.025C14.8255 2.35833 15.0005 2.78333 15.0005 3.3V5.825H13.2005V3.3C13.2005 3.28333 13.1922 3.275 13.1755 3.275C13.1755 3.25833 13.1672 3.25 13.1505 3.25H9.35049C9.33382 3.25 9.31716 3.25833 9.30049 3.275C9.30049 3.275 9.30049 3.28333 9.30049 3.3V5.825H7.50049V3.3ZM17.4755 18.05C17.3922 18.9167 17.0505 19.625 16.4505 20.175C15.8672 20.725 15.1422 21 14.2755 21H8.22549C7.35882 21 6.62549 20.725 6.02549 20.175C5.44216 19.625 5.10882 18.9167 5.02549 18.05L3.87549 6.375H5.82549L6.97549 17.85C7.00882 18.2167 7.14216 18.5083 7.37549 18.725C7.60882 18.9417 7.89216 19.05 8.22549 19.05H14.2755C14.6088 19.05 14.8922 18.9417 15.1255 18.725C15.3588 18.5083 15.4922 18.2167 15.5255 17.85L16.6755 6.375H18.6255L17.4755 18.05ZM2.50049 5H21.0005V6.9H2.50049V5Z" fill="black"/>
</g>
<defs>
<clipPath id="clip0_3379_7496">
<rect width="24" height="24" fill="white"/>
</clipPath>
</defs>
</svg>
