<svg width="24" height="24" viewBox="0 0 24 24" fill="none" xmlns="http://www.w3.org/2000/svg">
<g clip-path="url(#clip0_3379_7512)">
<rect width="24" height="24" fill="white"/>
<path d="M14.3 18.825H21V21H14.3V18.825ZM16.75 14.25H21V16.425H16.75V14.25ZM17.525 9.65H21V11.825H17.525V9.65ZM7.675 3.3C7.675 2.78333 7.84167 2.35833 8.175 2.025C8.525 1.675 8.95833 1.5 9.475 1.5H13.375C13.8917 1.5 14.3167 1.675 14.65 2.025C15 2.35833 15.175 2.78333 15.175 3.3V5.825H13.2V3.45C13.2 3.43333 13.1917 3.425 13.175 3.425H9.675C9.65833 3.425 9.64167 3.425 9.625 3.425C9.625 3.425 9.625 3.43333 9.625 3.45V5.825H7.675V3.3ZM17.475 18.05C17.3917 18.9167 17.05 19.625 16.45 20.175C15.8667 20.725 15.1417 21 14.275 21H8.225C7.35833 21 6.625 20.725 6.025 20.175C5.44167 19.625 5.10833 18.9167 5.025 18.05L3.875 6.375H6.15H16.35H18.625L17.475 18.05ZM2.5 5H21V7.225H2.5V5Z" fill="black"/>
</g>
<defs>
<clipPath id="clip0_3379_7512">
<rect width="24" height="24" fill="white"/>
</clipPath>
</defs>
</svg>
