<svg width="24" height="24" viewBox="0 0 24 24" fill="none" xmlns="http://www.w3.org/2000/svg">
<g clip-path="url(#clip0_3379_7498)">
<rect width="24" height="24" fill="white"/>
<path d="M14.3005 18.825H21.0005V21H14.3005V18.825ZM16.7505 14.25H21.0005V16.425H16.7505V14.25ZM17.5255 9.65H21.0005V11.825H17.5255V9.65ZM7.67549 3.3C7.67549 2.78333 7.84216 2.35833 8.17549 2.025C8.52549 1.675 8.95882 1.5 9.47549 1.5H13.3755C13.8922 1.5 14.3172 1.675 14.6505 2.025C15.0005 2.35833 15.1755 2.78333 15.1755 3.3V5.825H13.2005V3.45C13.2005 3.43333 13.1922 3.425 13.1755 3.425H9.67549C9.65882 3.425 9.64216 3.425 9.62549 3.425C9.62549 3.425 9.62549 3.43333 9.62549 3.45V5.825H7.67549V3.3ZM17.4755 18.05C17.3922 18.9167 17.0505 19.625 16.4505 20.175C15.8672 20.725 15.1422 21 14.2755 21H8.22549C7.35882 21 6.62549 20.725 6.02549 20.175C5.44216 19.625 5.10882 18.9167 5.02549 18.05L3.87549 6.375H6.15049L7.30049 17.85C7.33382 18.1 7.43382 18.3083 7.60049 18.475C7.78382 18.6417 7.99216 18.725 8.22549 18.725H14.2755C14.5088 18.725 14.7088 18.6417 14.8755 18.475C15.0588 18.3083 15.1672 18.1 15.2005 17.85L16.3505 6.375H18.6255L17.4755 18.05ZM2.50049 5H21.0005V7.225H2.50049V5Z" fill="black"/>
</g>
<defs>
<clipPath id="clip0_3379_7498">
<rect width="24" height="24" fill="white"/>
</clipPath>
</defs>
</svg>
