<svg width="24" height="24" viewBox="0 0 24 24" fill="none" xmlns="http://www.w3.org/2000/svg">
<g clip-path="url(#clip0_3218_7640)">
<rect width="24" height="24" fill="white"/>
<path d="M7.47549 19.475L0.000488281 12L7.47549 4.525L10.1005 7.125L5.05049 12L10.1005 16.875L7.47549 19.475ZM13.9005 7.125L16.5255 4.525L24.0005 12L16.5255 19.475L13.9005 16.875L18.9505 12L13.9005 7.125ZM12.0005 14.375C11.3338 14.375 10.7672 14.15 10.3005 13.7C9.85049 13.2333 9.62549 12.6667 9.62549 12C9.62549 11.3333 9.85049 10.775 10.3005 10.325C10.7672 9.85833 11.3338 9.625 12.0005 9.625C12.6672 9.625 13.2255 9.85833 13.6755 10.325C14.1422 10.775 14.3755 11.3333 14.3755 12C14.3755 12.6667 14.1422 13.2333 13.6755 13.7C13.2255 14.15 12.6672 14.375 12.0005 14.375ZM21.9505 12C21.9172 12 21.8922 12 21.8755 12C21.8755 12 21.8588 12 21.8255 12C21.8588 12 21.8755 12 21.8755 12C21.8922 12 21.9172 12 21.9505 12C21.9838 12 22.0005 12 22.0005 12C22.0172 12 22.0422 12 22.0755 12C22.0422 12 22.0172 12 22.0005 12C22.0005 12 21.9838 12 21.9505 12ZM2.02549 12.1C1.99216 12.1 1.96716 12.1 1.95049 12.1C1.95049 12.1 1.93382 12.1 1.90049 12.1C1.93382 12.1 1.95049 12.1 1.95049 12.1C1.96716 12.1 1.99216 12.1 2.02549 12.1C2.05882 12.1 2.07549 12.1 2.07549 12.1C2.09216 12.1 2.11716 12.1 2.15049 12.1C2.11716 12.1 2.09216 12.1 2.07549 12.1C2.07549 12.1 2.05882 12.1 2.02549 12.1Z" fill="black"/>
</g>
<defs>
<clipPath id="clip0_3218_7640">
<rect width="24" height="24" fill="white"/>
</clipPath>
</defs>
</svg>
