<svg width="24" height="24" viewBox="0 0 24 24" fill="none" xmlns="http://www.w3.org/2000/svg">
<g clip-path="url(#clip0_3218_7632)">
<rect width="24" height="24" fill="white"/>
<path d="M15.5755 18.425L22.0755 12L15.5755 5.575L16.5755 4.575L24.0005 12L16.5755 19.425L15.5755 18.425ZM0.000488281 12L7.42549 4.575L8.42549 5.575L1.90049 12L8.42549 18.425L7.42549 19.425L0.000488281 12ZM7.25049 13.075C6.95049 13.075 6.69216 12.975 6.47549 12.775C6.25882 12.5583 6.15049 12.3 6.15049 12C6.15049 11.7 6.25882 11.45 6.47549 11.25C6.69216 11.0333 6.95049 10.925 7.25049 10.925C7.55049 10.925 7.80049 11.0333 8.00049 11.25C8.21716 11.45 8.32549 11.7 8.32549 12C8.32549 12.3 8.21716 12.5583 8.00049 12.775C7.80049 12.975 7.55049 13.075 7.25049 13.075ZM11.9505 13.075C11.6505 13.075 11.3922 12.975 11.1755 12.775C10.9755 12.5583 10.8755 12.3 10.8755 12C10.8755 11.7 10.9755 11.45 11.1755 11.25C11.3922 11.0333 11.6505 10.925 11.9505 10.925C12.2505 10.925 12.5005 11.0333 12.7005 11.25C12.9172 11.45 13.0255 11.7 13.0255 12C13.0255 12.3 12.9172 12.5583 12.7005 12.775C12.5005 12.975 12.2505 13.075 11.9505 13.075ZM16.6505 13.075C16.3505 13.075 16.0922 12.975 15.8755 12.775C15.6755 12.5583 15.5755 12.3 15.5755 12C15.5755 11.7 15.6755 11.45 15.8755 11.25C16.0922 11.0333 16.3505 10.925 16.6505 10.925C16.9505 10.925 17.2088 11.0333 17.4255 11.25C17.6422 11.45 17.7505 11.7 17.7505 12C17.7505 12.3 17.6422 12.5583 17.4255 12.775C17.2088 12.975 16.9505 13.075 16.6505 13.075Z" fill="black"/>
</g>
<defs>
<clipPath id="clip0_3218_7632">
<rect width="24" height="24" fill="white"/>
</clipPath>
</defs>
</svg>
