<svg width="24" height="24" viewBox="0 0 24 24" fill="none" xmlns="http://www.w3.org/2000/svg">
<g clip-path="url(#clip0_3218_7638)">
<rect width="24" height="24" fill="white"/>
<path d="M7.15049 19.15L0.000488281 12L7.15049 4.85L9.12549 6.8L3.75049 12L9.12549 17.2L7.15049 19.15ZM14.8755 6.8L16.8505 4.85L24.0005 12L16.8505 19.15L14.8755 17.2L20.2505 12L14.8755 6.8ZM12.0005 13.95C11.4505 13.95 10.9838 13.7667 10.6005 13.4C10.2338 13.0167 10.0505 12.55 10.0505 12C10.0505 11.45 10.2338 10.9917 10.6005 10.625C10.9838 10.2417 11.4505 10.05 12.0005 10.05C12.5505 10.05 13.0088 10.2417 13.3755 10.625C13.7588 10.9917 13.9505 11.45 13.9505 12C13.9505 12.55 13.7588 13.0167 13.3755 13.4C13.0088 13.7667 12.5505 13.95 12.0005 13.95ZM21.9505 12C21.9172 12 21.8922 12 21.8755 12C21.8755 12 21.8588 12 21.8255 12C21.8588 12 21.8755 12 21.8755 12C21.8922 12 21.9172 12 21.9505 12C21.9838 12 22.0005 12 22.0005 12C22.0172 12 22.0422 12 22.0755 12C22.0422 12 22.0172 12 22.0005 12C22.0005 12 21.9838 12 21.9505 12ZM2.42549 11.525C2.39216 11.525 2.36716 11.525 2.35049 11.525C2.35049 11.525 2.33382 11.525 2.30049 11.525C2.33382 11.525 2.35049 11.525 2.35049 11.525C2.36716 11.525 2.39216 11.525 2.42549 11.525C2.45882 11.525 2.47549 11.525 2.47549 11.525C2.49216 11.525 2.51716 11.525 2.55049 11.525C2.51716 11.525 2.49216 11.525 2.47549 11.525C2.47549 11.525 2.45882 11.525 2.42549 11.525Z" fill="black"/>
</g>
<defs>
<clipPath id="clip0_3218_7638">
<rect width="24" height="24" fill="white"/>
</clipPath>
</defs>
</svg>
