<svg width="24" height="24" viewBox="0 0 24 24" fill="none" xmlns="http://www.w3.org/2000/svg">
<g clip-path="url(#clip0_3218_6932)">
<rect width="24" height="24" fill="white"/>
<path d="M15.8755 17.75C16.9255 17.75 17.8838 17.4917 18.7505 16.975C19.6338 16.4583 20.3255 15.7667 20.8255 14.9C21.3422 14.0167 21.6005 13.0417 21.6005 11.975C21.6005 10.9083 21.3422 9.94167 20.8255 9.075C20.3255 8.19167 19.6338 7.49167 18.7505 6.975C17.8838 6.45833 16.9255 6.2 15.8755 6.2V4.3C17.2922 4.3 18.5838 4.64167 19.7505 5.325C20.9172 6.00833 21.8422 6.93333 22.5255 8.1C23.2088 9.26667 23.5505 10.5583 23.5505 11.975C23.5505 13.3917 23.2088 14.6833 22.5255 15.85C21.8422 17.0167 20.9172 17.9417 19.7505 18.625C18.5838 19.3083 17.2922 19.65 15.8755 19.65V17.75ZM8.15049 17.75C9.20049 17.75 10.1672 17.4917 11.0505 16.975C11.9338 16.4583 12.6255 15.7667 13.1255 14.9C13.6422 14.0167 13.9005 13.0417 13.9005 11.975C13.9005 10.9083 13.6422 9.94167 13.1255 9.075C12.6255 8.19167 11.9338 7.49167 11.0505 6.975C10.1672 6.45833 9.20049 6.2 8.15049 6.2C7.10049 6.2 6.13382 6.45833 5.25049 6.975C4.36716 7.49167 3.66716 8.19167 3.15049 9.075C2.65049 9.94167 2.40049 10.9083 2.40049 11.975C2.40049 13.0417 2.65049 14.0167 3.15049 14.9C3.66716 15.7667 4.36716 16.4583 5.25049 16.975C6.13382 17.4917 7.10049 17.75 8.15049 17.75ZM8.15049 19.65C6.73382 19.65 5.43382 19.3083 4.25049 18.625C3.08382 17.9417 2.15882 17.0167 1.47549 15.85C0.792155 14.6833 0.450488 13.3917 0.450488 11.975C0.450488 10.5583 0.792155 9.26667 1.47549 8.1C2.15882 6.93333 3.08382 6.00833 4.25049 5.325C5.43382 4.64167 6.73382 4.3 8.15049 4.3C9.56716 4.3 10.8588 4.64167 12.0255 5.325C13.2088 6.00833 14.1422 6.93333 14.8255 8.1C15.5088 9.26667 15.8505 10.5583 15.8505 11.975C15.8505 13.3917 15.5088 14.6833 14.8255 15.85C14.1422 17.0167 13.2088 17.9417 12.0255 18.625C10.8588 19.3083 9.56716 19.65 8.15049 19.65Z" fill="black"/>
</g>
<defs>
<clipPath id="clip0_3218_6932">
<rect width="24" height="24" fill="white"/>
</clipPath>
</defs>
</svg>
