<svg width="24" height="24" viewBox="0 0 24 24" fill="none" xmlns="http://www.w3.org/2000/svg">
<g clip-path="url(#clip0_3218_6934)">
<rect width="24" height="24" fill="white"/>
<path d="M15.8755 17.2C16.8255 17.2 17.6922 16.9667 18.4755 16.5C19.2755 16.0333 19.9005 15.4083 20.3505 14.625C20.8172 13.825 21.0505 12.9417 21.0505 11.975C21.0505 11.0083 20.8172 10.1333 20.3505 9.35C19.9005 8.55 19.2755 7.91667 18.4755 7.45C17.6922 6.98333 16.8255 6.75 15.8755 6.75V4.3C17.2922 4.3 18.5838 4.64167 19.7505 5.325C20.9172 6.00833 21.8422 6.93333 22.5255 8.1C23.2088 9.26667 23.5505 10.5583 23.5505 11.975C23.5505 13.3917 23.2088 14.6833 22.5255 15.85C21.8422 17.0167 20.9172 17.9417 19.7505 18.625C18.5838 19.3083 17.2922 19.65 15.8755 19.65V17.2ZM8.15049 17.2C9.10049 17.2 9.96716 16.9667 10.7505 16.5C11.5505 16.0333 12.1755 15.4083 12.6255 14.625C13.0922 13.825 13.3255 12.9417 13.3255 11.975C13.3255 11.0083 13.0922 10.1333 12.6255 9.35C12.1755 8.55 11.5505 7.91667 10.7505 7.45C9.96716 6.98333 9.10049 6.75 8.15049 6.75C7.20049 6.75 6.32549 6.98333 5.52549 7.45C4.72549 7.91667 4.09216 8.55 3.62549 9.35C3.17549 10.1333 2.95049 11.0083 2.95049 11.975C2.95049 12.9417 3.17549 13.825 3.62549 14.625C4.09216 15.4083 4.72549 16.0333 5.52549 16.5C6.32549 16.9667 7.20049 17.2 8.15049 17.2ZM8.15049 19.65C6.73382 19.65 5.43382 19.3083 4.25049 18.625C3.08382 17.9417 2.15882 17.0167 1.47549 15.85C0.792155 14.6833 0.450488 13.3917 0.450488 11.975C0.450488 10.5583 0.792155 9.26667 1.47549 8.1C2.15882 6.93333 3.08382 6.00833 4.25049 5.325C5.43382 4.64167 6.73382 4.3 8.15049 4.3C9.55049 4.3 10.8338 4.64167 12.0005 5.325C13.1838 6.00833 14.1172 6.93333 14.8005 8.1C15.4838 9.26667 15.8255 10.5583 15.8255 11.975C15.8255 13.3917 15.4838 14.6833 14.8005 15.85C14.1172 17.0167 13.1838 17.9417 12.0005 18.625C10.8338 19.3083 9.55049 19.65 8.15049 19.65Z" fill="black"/>
</g>
<defs>
<clipPath id="clip0_3218_6934">
<rect width="24" height="24" fill="white"/>
</clipPath>
</defs>
</svg>
