<svg width="24" height="24" viewBox="0 0 24 24" fill="none" xmlns="http://www.w3.org/2000/svg">
<g clip-path="url(#clip0_3218_5378)">
<rect width="24" height="24" fill="white"/>
<path d="M10.5505 19.25C10.1338 19.2333 9.70882 19.225 9.27549 19.225L9.22549 15.75C9.62549 15.7833 10.0672 15.8 10.5505 15.8C11.3838 15.8 12.1588 15.5833 12.8755 15.15C13.6088 14.7167 14.1922 14.1333 14.6255 13.4C15.0588 12.6667 15.2755 11.875 15.2755 11.025C15.2755 10.5083 15.1922 10.0167 15.0255 9.55C14.8755 9.08333 14.6588 8.64167 14.3755 8.225L17.1255 6.025C17.6588 6.725 18.0672 7.50833 18.3505 8.375C18.6338 9.24167 18.7755 10.125 18.7755 11.025C18.7755 12.5417 18.4088 13.9333 17.6755 15.2C16.9422 16.45 15.9505 17.4417 14.7005 18.175C13.4505 18.8917 12.0672 19.25 10.5505 19.25ZM3.97549 16.025C3.44216 15.325 3.03382 14.5417 2.75049 13.675C2.46716 12.8083 2.32549 11.925 2.32549 11.025C2.32549 9.50833 2.69216 8.125 3.42549 6.875C4.15882 5.60833 5.15049 4.61667 6.40049 3.9C7.65049 3.16667 9.03382 2.8 10.5505 2.8C11.0005 2.8 11.4255 2.825 11.8255 2.875L11.9005 6.325C11.5005 6.275 11.0505 6.25 10.5505 6.25C9.71716 6.25 8.93382 6.46667 8.20049 6.9C7.48382 7.33333 6.90882 7.91667 6.47549 8.65C6.04216 9.38333 5.82549 10.175 5.82549 11.025C5.82549 11.5417 5.90049 12.0333 6.05049 12.5C6.21716 12.9667 6.44216 13.4083 6.72549 13.825L3.97549 16.025ZM14.0005 16.875L16.4505 14.425L21.7255 19.6L19.1755 22.15L14.0005 16.875ZM15.2255 4.625L11.0505 8.75V7.25V4.625V1.95V0.499999L15.2255 4.625ZM5.87549 17.425L10.0505 13.3V14.8V17.425V20.1V21.55L5.87549 17.425Z" fill="black"/>
</g>
<defs>
<clipPath id="clip0_3218_5378">
<rect width="24" height="24" fill="white"/>
</clipPath>
</defs>
</svg>
