<svg width="24" height="24" viewBox="0 0 24 24" fill="none" xmlns="http://www.w3.org/2000/svg">
<g clip-path="url(#clip0_3216_1672)">
<rect width="24" height="24" fill="white"/>
<path d="M9.82549 17.725C9.17549 17.725 8.55882 17.65 7.97549 17.5L8.20049 17.075C8.68382 17.1917 9.22549 17.25 9.82549 17.25C11.1255 17.25 12.3088 16.9417 13.3755 16.325C14.4422 15.7083 15.2838 14.8667 15.9005 13.8C16.5172 12.7333 16.8255 11.55 16.8255 10.25C16.8255 9.16667 16.5838 8.125 16.1005 7.125C15.6338 6.10833 14.9505 5.275 14.0505 4.625L14.4005 4.275C15.3505 5.00833 16.0755 5.9 16.5755 6.95C17.0755 8 17.3255 9.1 17.3255 10.25C17.3255 11.6333 16.9922 12.9 16.3255 14.05C15.6588 15.1833 14.7505 16.0833 13.6005 16.75C12.4672 17.4 11.2088 17.725 9.82549 17.725ZM7.57549 17.275L10.2505 14.6L10.5755 14.925L8.20049 17.275L10.5755 19.625L10.2505 19.95L7.57549 17.275ZM5.25049 16.2C4.28382 15.4667 3.55049 14.575 3.05049 13.525C2.56716 12.475 2.32549 11.375 2.32549 10.225C2.32549 8.84167 2.65882 7.58333 3.32549 6.45C3.99216 5.3 4.89216 4.4 6.02549 3.75C7.17549 3.08333 8.44216 2.75 9.82549 2.75C10.4922 2.75 11.1088 2.825 11.6755 2.975L11.4505 3.4C10.9672 3.28333 10.4255 3.225 9.82549 3.225C8.52549 3.225 7.34216 3.53333 6.27549 4.15C5.20882 4.76667 4.36716 5.60833 3.75049 6.675C3.13382 7.74167 2.82549 8.925 2.82549 10.225C2.82549 11.3083 3.05882 12.3583 3.52549 13.375C4.00882 14.375 4.70049 15.2 5.60049 15.85L5.25049 16.2ZM14.7255 15.45L15.0755 15.1L21.7255 21.75L21.3755 22.1L14.7255 15.45ZM12.0755 3.1L9.40049 5.775L9.07549 5.45L11.4505 3.1L9.07549 0.749998L9.40049 0.425L12.0755 3.1Z" fill="black"/>
</g>
<defs>
<clipPath id="clip0_3216_1672">
<rect width="24" height="24" fill="white"/>
</clipPath>
</defs>
</svg>
