<svg width="24" height="24" viewBox="0 0 24 24" fill="none" xmlns="http://www.w3.org/2000/svg">
<g clip-path="url(#clip0_3218_5372)">
<rect width="24" height="24" fill="white"/>
<path d="M10.3255 18.775C9.97549 18.775 9.71716 18.7667 9.55049 18.75V16.875C9.88382 16.9083 10.1422 16.925 10.3255 16.925C11.4422 16.925 12.4672 16.6583 13.4005 16.125C14.3338 15.575 15.0672 14.8333 15.6005 13.9C16.1505 12.95 16.4255 11.9167 16.4255 10.8C16.4255 9.96667 16.2672 9.175 15.9505 8.425C15.6505 7.675 15.2172 7.01667 14.6505 6.45L16.0255 5.15C16.7588 5.88333 17.3255 6.74167 17.7255 7.725C18.1255 8.69167 18.3255 9.71667 18.3255 10.8C18.3255 12.2667 17.9672 13.6083 17.2505 14.825C16.5505 16.0417 15.5838 17.0083 14.3505 17.725C13.1338 18.425 11.7922 18.775 10.3255 18.775ZM4.62549 16.375C3.89216 15.6417 3.32549 14.7917 2.92549 13.825C2.52549 12.8417 2.32549 11.8083 2.32549 10.725C2.32549 9.25833 2.67549 7.91667 3.37549 6.7C4.09216 5.48333 5.05882 4.525 6.27549 3.825C7.50882 3.10833 8.85882 2.75 10.3255 2.75C10.6755 2.75 10.9338 2.75833 11.1005 2.775V4.65C10.7672 4.61667 10.5088 4.6 10.3255 4.6C9.20882 4.6 8.18382 4.875 7.25049 5.425C6.31716 5.95833 5.57549 6.7 5.02549 7.65C4.49216 8.58333 4.22549 9.60833 4.22549 10.725C4.22549 11.5583 4.37549 12.35 4.67549 13.1C4.99216 13.85 5.43382 14.5083 6.00049 15.075L4.62549 16.375ZM14.6755 16.35L15.9755 15.05L21.7255 20.8L20.4255 22.1L14.6755 16.35ZM13.8255 3.725L10.5755 6.975V4.175V3.75V3.3V0.474999L13.8255 3.725ZM6.82549 17.8L10.0755 14.55V17.35V17.775V18.225V21.05L6.82549 17.8Z" fill="black"/>
</g>
<defs>
<clipPath id="clip0_3218_5372">
<rect width="24" height="24" fill="white"/>
</clipPath>
</defs>
</svg>
