<svg width="24" height="24" viewBox="0 0 24 24" fill="none" xmlns="http://www.w3.org/2000/svg">
<g clip-path="url(#clip0_3374_5243)">
<rect width="24" height="24" fill="white"/>
<path d="M18.9755 19.15C18.8922 20 18.5588 20.6833 17.9755 21.2C17.4088 21.7333 16.7005 22 15.8505 22H8.15049C7.30049 22 6.58382 21.7333 6.00049 21.2C5.43382 20.6833 5.10882 20 5.02549 19.15L3.85049 5.5H5.30049L6.50049 19C6.55049 19.4667 6.72549 19.8417 7.02549 20.125C7.32549 20.4083 7.70049 20.55 8.15049 20.55H15.8505C16.3005 20.55 16.6755 20.4083 16.9755 20.125C17.2755 19.8417 17.4505 19.4667 17.5005 19L18.7005 5.5H20.1505L18.9755 19.15ZM2.00049 4.5H22.0005V5.925H2.00049V4.5ZM8.00049 2.775C8.00049 2.275 8.16716 1.85833 8.50049 1.525C8.85049 1.175 9.27549 1 9.77549 1H14.2255C14.7255 1 15.1422 1.175 15.4755 1.525C15.8255 1.85833 16.0005 2.275 16.0005 2.775V5.15H14.6255V2.775C14.6255 2.64167 14.5838 2.53333 14.5005 2.45C14.4172 2.36667 14.3088 2.325 14.1755 2.325H9.82549C9.69216 2.325 9.58382 2.36667 9.50049 2.45C9.41716 2.53333 9.37549 2.64167 9.37549 2.775V5.15H8.00049V2.775Z" fill="black"/>
</g>
<defs>
<clipPath id="clip0_3374_5243">
<rect width="24" height="24" fill="white"/>
</clipPath>
</defs>
</svg>
