<svg width="24" height="24" viewBox="0 0 24 24" fill="none" xmlns="http://www.w3.org/2000/svg">
<g clip-path="url(#clip0_3218_5808)">
<rect width="24" height="24" fill="white"/>
<path d="M18.975 19.05C18.8917 19.9167 18.55 20.625 17.95 21.175C17.3667 21.725 16.6417 22 15.775 22H8.225C7.35833 22 6.625 21.725 6.025 21.175C5.44167 20.625 5.10833 19.9167 5.025 19.05L3.875 5.875H20.125L18.975 19.05ZM2 3.5H22V7.2H2V3.5ZM8.25 2.25C8.25 1.9 8.36667 1.60833 8.6 1.375C8.85 1.125 9.15 1 9.5 1H14.5C14.85 1 15.1417 1.125 15.375 1.375C15.625 1.60833 15.75 1.9 15.75 2.25V4.075H14.775H14.6C14.45 4.075 14.3417 4.075 14.275 4.075C14.2083 4.075 14.1 4.075 13.95 4.075H9.6C9.48333 4.075 9.39167 4.075 9.325 4.075C9.25833 4.075 9.16667 4.075 9.05 4.075H8.875H8.25V2.25Z" fill="black"/>
</g>
<defs>
<clipPath id="clip0_3218_5808">
<rect width="24" height="24" fill="white"/>
</clipPath>
</defs>
</svg>
