<svg width="24" height="24" viewBox="0 0 24 24" fill="none" xmlns="http://www.w3.org/2000/svg">
<g clip-path="url(#clip0_3374_5241)">
<rect width="24" height="24" fill="white"/>
<path d="M18.9505 19.225C18.8838 20.0583 18.5672 20.725 18.0005 21.225C17.4505 21.7417 16.7505 22 15.9005 22H8.10049C7.25049 22 6.54216 21.7417 5.97549 21.225C5.42549 20.725 5.11716 20.0583 5.05049 19.225L3.80049 5.125H4.80049L6.02549 19.15C6.07549 19.7333 6.28382 20.1917 6.65049 20.525C7.03382 20.8583 7.51716 21.025 8.10049 21.025H15.9005C16.4838 21.025 16.9588 20.8583 17.3255 20.525C17.7088 20.1917 17.9255 19.7333 17.9755 19.15L19.2005 5.125H20.2005L18.9505 19.225ZM2.00049 4.5H22.0005V5.45H2.00049V4.5ZM8.00049 2.775C8.00049 2.275 8.16716 1.85833 8.50049 1.525C8.85049 1.175 9.27549 1 9.77549 1H14.2255C14.7255 1 15.1422 1.175 15.4755 1.525C15.8255 1.85833 16.0005 2.275 16.0005 2.775V5H15.0755V2.775C15.0755 2.525 14.9922 2.31667 14.8255 2.15C14.6588 1.98333 14.4588 1.9 14.2255 1.9H9.77549C9.54216 1.9 9.34216 1.98333 9.17549 2.15C9.00882 2.31667 8.92549 2.525 8.92549 2.775V5H8.00049V2.775Z" fill="black"/>
</g>
<defs>
<clipPath id="clip0_3374_5241">
<rect width="24" height="24" fill="white"/>
</clipPath>
</defs>
</svg>
