<svg width="24" height="24" viewBox="0 0 24 24" fill="none" xmlns="http://www.w3.org/2000/svg">
<g clip-path="url(#clip0_3219_10892)">
<rect width="24" height="24" fill="white"/>
<path d="M11.3005 19.6H12.7005V19.5C12.7672 18.8667 12.9588 18.3 13.2755 17.8C13.5922 17.2833 14.0255 16.8667 14.5755 16.55C15.1422 16.2333 15.7422 16.0667 16.3755 16.05C17.0255 16.0167 17.6338 16.15 18.2005 16.45L18.1755 16.425L18.9255 15.15L18.8005 15.05C18.3172 14.7 17.9255 14.2583 17.6255 13.725C17.3255 13.1917 17.1755 12.6167 17.1755 12C17.1755 11.3667 17.3172 10.7917 17.6005 10.275C17.9005 9.74167 18.3005 9.3 18.8005 8.95L18.9255 8.85L18.1755 7.575H18.1505C17.6172 7.825 17.0255 7.95 16.3755 7.95C15.7422 7.93333 15.1672 7.775 14.6505 7.475C14.0838 7.15833 13.6338 6.75 13.3005 6.25C12.9672 5.75 12.7672 5.16667 12.7005 4.5V4.4H11.3005V4.5C11.2338 5.13333 11.0338 5.70833 10.7005 6.225C10.3838 6.74167 9.95882 7.15 9.42549 7.45C8.87549 7.76667 8.28382 7.94167 7.65049 7.975C7.01716 7.99167 6.42549 7.86667 5.87549 7.6L5.82549 7.575L5.07549 8.85L5.17549 8.95C5.69216 9.28333 6.09216 9.725 6.37549 10.275C6.67549 10.8083 6.82549 11.3833 6.82549 12C6.82549 12.6 6.67549 13.1667 6.37549 13.7C6.09216 14.2333 5.70049 14.6833 5.20049 15.05L5.07549 15.15L5.82549 16.425L5.87549 16.4C6.42549 16.15 7.00882 16.0333 7.62549 16.05C8.24216 16.05 8.80882 16.2 9.32549 16.5C9.90882 16.8167 10.3672 17.225 10.7005 17.725C11.0338 18.225 11.2338 18.8167 11.3005 19.5V19.6ZM8.35049 19.725C8.33382 19.4083 8.20049 19.1833 7.95049 19.05C7.68382 18.9 7.40882 18.8917 7.12549 19.025L4.57549 20.125L1.25049 14.375L3.50049 12.7C3.61715 12.6333 3.70882 12.5417 3.77549 12.425C3.84216 12.2917 3.87549 12.15 3.87549 12C3.87549 11.8667 3.84216 11.7417 3.77549 11.625C3.70882 11.4917 3.61715 11.3833 3.50049 11.3L1.25049 9.625L4.57549 3.875L7.12549 5C7.25882 5.05 7.39216 5.075 7.52549 5.075C7.67549 5.05833 7.81716 5.01667 7.95049 4.95C8.06716 4.9 8.15882 4.80833 8.22549 4.675C8.29216 4.54167 8.33382 4.40833 8.35049 4.275L8.65049 1.5H15.3505L15.6505 4.275C15.6672 4.40833 15.7088 4.54167 15.7755 4.675C15.8422 4.80833 15.9338 4.9 16.0505 4.95C16.1672 5.01667 16.3005 5.05 16.4505 5.05C16.6005 5.05 16.7422 5.025 16.8755 4.975L19.4255 3.875L22.7505 9.625L20.5005 11.3C20.3838 11.3667 20.2922 11.4667 20.2255 11.6C20.1588 11.7167 20.1255 11.85 20.1255 12C20.1255 12.1333 20.1588 12.2667 20.2255 12.4C20.2922 12.5167 20.3838 12.6167 20.5005 12.7L22.7505 14.375L19.4255 20.125L16.8505 19C16.7338 18.9333 16.6088 18.9083 16.4755 18.925C16.3422 18.9417 16.2005 18.9833 16.0505 19.05C15.8005 19.1833 15.6672 19.4167 15.6505 19.75L15.3505 22.5H8.65049L8.35049 19.725ZM12.0005 13.95C11.6338 13.95 11.3005 13.8667 11.0005 13.7C10.7172 13.5167 10.4838 13.275 10.3005 12.975C10.1338 12.675 10.0505 12.35 10.0505 12C10.0505 11.65 10.1338 11.325 10.3005 11.025C10.4838 10.725 10.7172 10.4917 11.0005 10.325C11.3005 10.1417 11.6338 10.05 12.0005 10.05C12.3672 10.05 12.6922 10.1417 12.9755 10.325C13.2755 10.4917 13.5088 10.725 13.6755 11.025C13.8588 11.325 13.9505 11.65 13.9505 12C13.9505 12.35 13.8588 12.675 13.6755 12.975C13.5088 13.275 13.2755 13.5167 12.9755 13.7C12.6922 13.8667 12.3672 13.95 12.0005 13.95ZM12.0005 12C12.1838 12 12.3172 12 12.4005 12C12.4838 12 12.6172 12 12.8005 12C12.6172 12 12.4838 12 12.4005 12C12.3172 12 12.1838 12 12.0005 12C11.8172 12 11.6838 12 11.6005 12C11.5172 12 11.3838 12 11.2005 12C11.3838 12 11.5172 12 11.6005 12C11.6838 12 11.8172 12 12.0005 12Z" fill="black"/>
</g>
<defs>
<clipPath id="clip0_3219_10892">
<rect width="24" height="24" fill="white"/>
</clipPath>
</defs>
</svg>
