<svg width="24" height="24" viewBox="0 0 24 24" fill="none" xmlns="http://www.w3.org/2000/svg">
<g clip-path="url(#clip0_3396_12824)">
<rect width="24" height="24" fill="white"/>
<path d="M18.0255 18.125V5.925H5.97549V18.125H18.0255ZM21.0005 3V21H3.00049V3H21.0005ZM10.1755 11.625C10.1755 12.1417 10.3505 12.5833 10.7005 12.95C11.0505 13.3 11.4838 13.475 12.0005 13.475C12.5172 13.475 12.9505 13.3 13.3005 12.95C13.6505 12.5833 13.8255 12.1417 13.8255 11.625H19.9005V14.525H14.3505L16.7255 11.7C16.7255 12.5667 16.5172 13.3583 16.1005 14.075C15.6838 14.775 15.1172 15.3333 14.4005 15.75C13.6838 16.15 12.8838 16.35 12.0005 16.35C11.1338 16.35 10.3422 16.15 9.62549 15.75C8.92549 15.3333 8.36716 14.775 7.95049 14.075C7.53382 13.3583 7.32549 12.5667 7.32549 11.7L9.65049 14.525H4.10049V11.625H10.1755Z" fill="black"/>
</g>
<defs>
<clipPath id="clip0_3396_12824">
<rect width="24" height="24" fill="white"/>
</clipPath>
</defs>
</svg>
