<svg width="24" height="24" viewBox="0 0 24 24" fill="none" xmlns="http://www.w3.org/2000/svg">
<g clip-path="url(#clip0_3219_10784)">
<rect width="24" height="24" fill="white"/>
<path d="M19.1005 19.15V4.85H4.90049V19.15H19.1005ZM21.0005 3V21H3.00049V3H21.0005ZM10.0005 13C10.0005 13.5667 10.1922 14.0417 10.5755 14.425C10.9588 14.8083 11.4338 15 12.0005 15C12.5672 15 13.0422 14.8083 13.4255 14.425C13.8088 14.0417 14.0005 13.5667 14.0005 13H19.9005V14.85H14.3505L15.8255 13.075C15.8255 13.775 15.6505 14.4167 15.3005 15C14.9672 15.5667 14.5088 16.0167 13.9255 16.35C13.3422 16.6833 12.7005 16.85 12.0005 16.85C11.3005 16.85 10.6588 16.6833 10.0755 16.35C9.49216 16.0167 9.02549 15.5667 8.67549 15C8.34216 14.4167 8.17549 13.775 8.17549 13.075L9.65049 14.85H4.10049V13H10.0005Z" fill="black"/>
</g>
<defs>
<clipPath id="clip0_3219_10784">
<rect width="24" height="24" fill="white"/>
</clipPath>
</defs>
</svg>
