<svg width="24" height="24" viewBox="0 0 24 24" fill="none" xmlns="http://www.w3.org/2000/svg">
<g clip-path="url(#clip0_3219_10502)">
<rect width="24" height="24" fill="white"/>
<path d="M12.0005 22C10.1672 22 8.48382 21.5583 6.95049 20.675C5.41716 19.7917 4.20882 18.5833 3.32549 17.05C2.44216 15.5167 2.00049 13.8333 2.00049 12C2.00049 10.1667 2.44216 8.48333 3.32549 6.95C4.20882 5.41667 5.41716 4.20833 6.95049 3.325C8.48382 2.44167 10.1672 2 12.0005 2C13.8338 2 15.5172 2.44167 17.0505 3.325C18.5838 4.20833 19.7922 5.41667 20.6755 6.95C21.5588 8.48333 22.0005 10.1667 22.0005 12C22.0005 13.8333 21.5588 15.5167 20.6755 17.05C19.7922 18.5833 18.5838 19.7917 17.0505 20.675C15.5172 21.5583 13.8338 22 12.0005 22ZM12.0005 19.025C13.2838 19.025 14.4588 18.7167 15.5255 18.1C16.5922 17.4667 17.4338 16.6167 18.0505 15.55C18.6672 14.4833 18.9755 13.3 18.9755 12C18.9755 10.7 18.6672 9.51667 18.0505 8.45C17.4338 7.38333 16.5922 6.54167 15.5255 5.925C14.4588 5.29167 13.2838 4.975 12.0005 4.975C10.7172 4.975 9.54216 5.29167 8.47549 5.925C7.40882 6.54167 6.56716 7.38333 5.95049 8.45C5.33382 9.51667 5.02549 10.7 5.02549 12C5.02549 13.3 5.33382 14.4833 5.95049 15.55C6.56716 16.6167 7.40882 17.4667 8.47549 18.1C9.54216 18.7167 10.7172 19.025 12.0005 19.025ZM10.4505 11.325H13.5505V17H10.4505V11.325ZM12.0005 10.275C11.4838 10.275 11.0588 10.1083 10.7255 9.775C10.3922 9.44167 10.2255 9.00833 10.2255 8.475C10.2255 7.95833 10.3922 7.53333 10.7255 7.2C11.0588 6.86667 11.4838 6.7 12.0005 6.7C12.5172 6.7 12.9422 6.875 13.2755 7.225C13.6088 7.55833 13.7755 7.975 13.7755 8.475C13.7755 9.00833 13.6088 9.44167 13.2755 9.775C12.9422 10.1083 12.5172 10.275 12.0005 10.275Z" fill="black"/>
</g>
<defs>
<clipPath id="clip0_3219_10502">
<rect width="24" height="24" fill="white"/>
</clipPath>
</defs>
</svg>
