<svg width="24" height="24" viewBox="0 0 24 24" fill="none" xmlns="http://www.w3.org/2000/svg">
<g clip-path="url(#clip0_3219_10512)">
<rect width="24" height="24" fill="white"/>
<path d="M17.05 20.675C15.5333 21.5583 13.85 22 12 22C10.15 22 8.45833 21.5583 6.925 20.675C5.40833 19.7917 4.20833 18.5917 3.325 17.075C2.44167 15.5417 2 13.85 2 12C2 10.15 2.44167 8.46667 3.325 6.95C4.20833 5.41667 5.40833 4.20833 6.925 3.325C8.45833 2.44167 10.15 2 12 2C13.85 2 15.5333 2.44167 17.05 3.325C18.5833 4.20833 19.7917 5.41667 20.675 6.95C21.5583 8.46667 22 10.15 22 12C22 13.85 21.5583 15.5417 20.675 17.075C19.7917 18.5917 18.5833 19.7917 17.05 20.675ZM11.05 10.7V17.7H12.95V10.7H11.05ZM11.05 8.475C11.3 8.725 11.6167 8.85 12 8.85C12.3833 8.85 12.7 8.725 12.95 8.475C13.2 8.20833 13.325 7.88333 13.325 7.5C13.325 7.11667 13.2 6.80833 12.95 6.575C12.7 6.325 12.3833 6.2 12 6.2C11.6167 6.2 11.3 6.325 11.05 6.575C10.8 6.80833 10.675 7.11667 10.675 7.5C10.675 7.88333 10.8 8.20833 11.05 8.475Z" fill="black"/>
</g>
<defs>
<clipPath id="clip0_3219_10512">
<rect width="24" height="24" fill="white"/>
</clipPath>
</defs>
</svg>
