<svg width="24" height="24" viewBox="0 0 24 24" fill="none" xmlns="http://www.w3.org/2000/svg">
<g clip-path="url(#clip0_3396_12789)">
<rect width="24" height="24" fill="white"/>
<path d="M12.0005 22C10.1672 22 8.48382 21.5583 6.95049 20.675C5.41716 19.7917 4.20882 18.5833 3.32549 17.05C2.44216 15.5167 2.00049 13.8333 2.00049 12C2.00049 10.1667 2.44216 8.48333 3.32549 6.95C4.20882 5.41667 5.41716 4.20833 6.95049 3.325C8.48382 2.44167 10.1672 2 12.0005 2C13.8338 2 15.5172 2.44167 17.0505 3.325C18.5838 4.20833 19.7922 5.41667 20.6755 6.95C21.5588 8.48333 22.0005 10.1667 22.0005 12C22.0005 13.8333 21.5588 15.5167 20.6755 17.05C19.7922 18.5833 18.5838 19.7917 17.0505 20.675C15.5172 21.5583 13.8338 22 12.0005 22ZM12.0005 19.275C12.0172 19.275 12.0255 19.275 12.0255 19.275C12.0422 19.2917 12.0588 19.3 12.0755 19.3C13.4088 19.2833 14.6172 18.95 15.7005 18.3C16.8005 17.6333 17.6672 16.75 18.3005 15.65C18.9338 14.5333 19.2505 13.3167 19.2505 12C19.2505 10.7 18.9338 9.49167 18.3005 8.375C17.6838 7.25833 16.8338 6.375 15.7505 5.725C14.6672 5.05833 13.4505 4.71667 12.1005 4.7C12.0672 4.7 12.0422 4.70833 12.0255 4.725C12.0255 4.725 12.0172 4.725 12.0005 4.725C10.6672 4.725 9.45049 5.05 8.35049 5.7C7.25049 6.35 6.37549 7.23333 5.72549 8.35C5.09216 9.45 4.77549 10.6667 4.77549 12C4.77549 13.3333 5.09216 14.5583 5.72549 15.675C6.37549 16.775 7.25049 17.65 8.35049 18.3C9.45049 18.95 10.6672 19.275 12.0005 19.275ZM13.3755 3.25V20.75H10.6255V3.25H13.3755ZM20.9505 8.05V10.7H12.0005V8.05H20.9505ZM16.6005 4.575H15.3505H16.6005ZM19.9505 13.3V15.95H12.0005V13.3H19.9505Z" fill="black"/>
</g>
<defs>
<clipPath id="clip0_3396_12789">
<rect width="24" height="24" fill="white"/>
</clipPath>
</defs>
</svg>
