<svg width="24" height="24" viewBox="0 0 24 24" fill="none" xmlns="http://www.w3.org/2000/svg">
<g clip-path="url(#clip0_3234_12908)">
<rect width="24" height="24" fill="white"/>
<path d="M12.0005 22C10.1672 22 8.48382 21.5583 6.95049 20.675C5.41716 19.7917 4.20882 18.5833 3.32549 17.05C2.44216 15.5167 2.00049 13.8333 2.00049 12C2.00049 10.1667 2.44216 8.48333 3.32549 6.95C4.20882 5.41667 5.41716 4.20833 6.95049 3.325C8.48382 2.44167 10.1672 2 12.0005 2C13.8338 2 15.5172 2.44167 17.0505 3.325C18.5838 4.20833 19.7922 5.41667 20.6755 6.95C21.5588 8.48333 22.0005 10.1667 22.0005 12C22.0005 13.8333 21.5588 15.5167 20.6755 17.05C19.7922 18.5833 18.5838 19.7917 17.0505 20.675C15.5172 21.5583 13.8338 22 12.0005 22ZM11.9755 18.7C11.9755 18.7 11.9755 18.7083 11.9755 18.725C11.9922 18.725 12.0005 18.725 12.0005 18.725C12.0005 18.775 12.0255 18.8 12.0755 18.8C13.3422 18.7833 14.4838 18.4667 15.5005 17.85C16.5172 17.2167 17.3088 16.3833 17.8755 15.35C18.4588 14.3167 18.7505 13.2 18.7505 12C18.7505 10.8167 18.4672 9.70833 17.9005 8.675C17.3338 7.64167 16.5422 6.80833 15.5255 6.175C14.5255 5.54167 13.3755 5.21667 12.0755 5.2C12.0255 5.2 12.0005 5.225 12.0005 5.275C12.0005 5.275 11.9922 5.28333 11.9755 5.3C10.7755 5.3 9.66716 5.6 8.65049 6.2C7.63382 6.8 6.82549 7.61667 6.22549 8.65C5.64216 9.66667 5.35049 10.7833 5.35049 12C5.35049 13.2167 5.64216 14.3417 6.22549 15.375C6.82549 16.3917 7.63382 17.2 8.65049 17.8C9.66716 18.4 10.7755 18.7 11.9755 18.7ZM13.6505 3.25V20.75H10.3505V3.25H13.6505ZM20.9505 7.925V11H12.0005V7.925H20.9505ZM16.6005 4.575H15.3505H16.6005ZM19.9505 13V16.075H12.0005V13H19.9505Z" fill="black"/>
</g>
<defs>
<clipPath id="clip0_3234_12908">
<rect width="24" height="24" fill="white"/>
</clipPath>
</defs>
</svg>
