<svg width="24" height="24" viewBox="0 0 24 24" fill="none" xmlns="http://www.w3.org/2000/svg">
<g clip-path="url(#clip0_3234_12910)">
<rect width="24" height="24" fill="white"/>
<path d="M12 22C10.1667 22 8.48333 21.5583 6.95 20.675C5.41667 19.7917 4.20833 18.5833 3.325 17.05C2.44167 15.5167 2 13.8333 2 12C2 10.1667 2.44167 8.48333 3.325 6.95C4.20833 5.41667 5.41667 4.20833 6.95 3.325C8.48333 2.44167 10.1667 2 12 2C13.8333 2 15.5167 2.44167 17.05 3.325C18.5833 4.20833 19.7917 5.41667 20.675 6.95C21.5583 8.48333 22 10.1667 22 12C22 13.8333 21.5583 15.5167 20.675 17.05C19.7917 18.5833 18.5833 19.7917 17.05 20.675C15.5167 21.5583 13.8333 22 12 22ZM12 2.475C10.25 2.475 8.65 2.9 7.2 3.75C5.75 4.58333 4.6 5.73333 3.75 7.2C2.91667 8.65 2.5 10.25 2.5 12C2.5 13.75 2.91667 15.3583 3.75 16.825C4.6 18.275 5.75 19.425 7.2 20.275C8.65 21.1083 10.25 21.525 12 21.525V2.475Z" fill="black"/>
</g>
<defs>
<clipPath id="clip0_3234_12910">
<rect width="24" height="24" fill="white"/>
</clipPath>
</defs>
</svg>
