<svg width="24" height="24" viewBox="0 0 24 24" fill="none" xmlns="http://www.w3.org/2000/svg">
<g clip-path="url(#clip0_3219_9414)">
<rect width="24" height="24" fill="white"/>
<path d="M16.15 2.225L19 5.075L21.85 2.225L22.2 2.575L19.35 5.425L22.2 8.275L21.85 8.625L19 5.775L16.15 8.625L15.8 8.275L18.65 5.425L15.8 2.575L16.15 2.225ZM12 2V8.225C12 8.90833 12.1667 9.54167 12.5 10.125C12.8333 10.6917 13.2833 11.1417 13.85 11.475C14.4333 11.8083 15.0667 11.975 15.75 11.975H17.05L12 14.9L0.825 8.45L12 2ZM17.525 12.275L23.175 15.55L12 22L0.825 15.55L6.5 12.275L12 15.475L17.525 12.275Z" fill="black"/>
</g>
<defs>
<clipPath id="clip0_3219_9414">
<rect width="24" height="24" fill="white"/>
</clipPath>
</defs>
</svg>
