<svg width="24" height="24" viewBox="0 0 24 24" fill="none" xmlns="http://www.w3.org/2000/svg">
<g clip-path="url(#clip0_3375_5862)">
<rect width="24" height="24" fill="white"/>
<path d="M17.7005 1.775L19.5005 3.625L21.3005 1.75L23.6505 4.1L21.7755 5.925L23.6505 7.75L21.3005 10.075L19.5005 8.225L17.7005 10.075L15.3505 7.725L17.2005 5.925L15.3505 4.125L17.7005 1.775ZM7.22549 15.55L12.0005 18.3L16.7505 15.55L10.5755 11.975L13.7755 10.125L23.1755 15.55L12.0005 22L0.825488 15.55L7.72549 11.55L10.9755 13.4L7.22549 15.55ZM0.825488 8.45L12.0005 2V5.7L7.22549 8.45L12.0005 11.2L13.7755 10.125L17.0255 12L12.0005 14.9L0.825488 8.45Z" fill="black"/>
</g>
<defs>
<clipPath id="clip0_3375_5862">
<rect width="24" height="24" fill="white"/>
</clipPath>
</defs>
</svg>
