<svg width="24" height="24" viewBox="0 0 24 24" fill="none" xmlns="http://www.w3.org/2000/svg">
<g clip-path="url(#clip0_3375_5872)">
<rect width="24" height="24" fill="white"/>
<path d="M17.15 2.05L19 4L20.85 2.05L22.35 3.575L20.425 5.425L22.35 7.275L20.85 8.8L19 6.85L17.15 8.8L15.625 7.275L17.55 5.425L15.625 3.575L17.15 2.05ZM12 2V8.225C12 8.90833 12.1667 9.54167 12.5 10.125C12.8333 10.6917 13.2833 11.1417 13.85 11.475C14.4333 11.8083 15.0667 11.975 15.75 11.975H17.05L12 14.9L0.825 8.45L12 2ZM19.05 13.15L23.175 15.55L12 22L0.825 15.55L5 13.15L12 17.2L19.05 13.15Z" fill="black"/>
</g>
<defs>
<clipPath id="clip0_3375_5872">
<rect width="24" height="24" fill="white"/>
</clipPath>
</defs>
</svg>
