<svg width="24" height="24" viewBox="0 0 24 24" fill="none" xmlns="http://www.w3.org/2000/svg">
<g clip-path="url(#clip0_3234_12856)">
<rect width="24" height="24" fill="white"/>
<path d="M12 22C10.1667 22 8.48333 21.5583 6.95 20.675C5.41667 19.7917 4.20833 18.5833 3.325 17.05C2.44167 15.5167 2 13.8333 2 12C2 10.1667 2.44167 8.48333 3.325 6.95C4.20833 5.41667 5.41667 4.20833 6.95 3.325C8.48333 2.44167 10.1667 2 12 2C13.8333 2 15.5167 2.44167 17.05 3.325C18.5833 4.20833 19.7917 5.41667 20.675 6.95C21.5583 8.48333 22 10.1667 22 12C22 13.8333 21.5583 15.5167 20.675 17.05C19.7917 18.5833 18.5833 19.7917 17.05 20.675C15.5167 21.5583 13.8333 22 12 22ZM12 18.575C13.2 18.575 14.3 18.2833 15.3 17.7C16.3167 17.1167 17.1167 16.325 17.7 15.325C18.2833 14.3083 18.575 13.2 18.575 12C18.575 10.8 18.2833 9.7 17.7 8.7C17.1167 7.68333 16.3167 6.88333 15.3 6.3C14.3 5.71667 13.2 5.425 12 5.425V18.575Z" fill="black"/>
</g>
<defs>
<clipPath id="clip0_3234_12856">
<rect width="24" height="24" fill="white"/>
</clipPath>
</defs>
</svg>
