<svg width="24" height="24" viewBox="0 0 24 24" fill="none" xmlns="http://www.w3.org/2000/svg">
<g clip-path="url(#clip0_3218_6912)">
<rect width="24" height="24" fill="white"/>
<path d="M3.00049 14.125V10.525H21.0005V14.125H3.00049ZM18.3505 19.2H18.7005H18.3505ZM3.00049 21V17.4H7.65049V21H3.00049ZM16.3505 21V17.4H21.0005V21H16.3505ZM9.65049 21V17.4H14.3505V21H9.65049ZM16.5005 4.25C16.7838 4.25 17.0505 4.20833 17.3005 4.125C17.5672 4.025 17.8755 3.89167 18.2255 3.725C18.6922 3.49167 19.1255 3.31667 19.5255 3.2C19.9422 3.06667 20.4338 3 21.0005 3V6.525C20.7172 6.525 20.4422 6.575 20.1755 6.675C19.9255 6.75833 19.6255 6.88333 19.2755 7.05C18.8088 7.28333 18.3672 7.46667 17.9505 7.6C17.5505 7.71667 17.0672 7.775 16.5005 7.775C15.9338 7.775 15.4422 7.71667 15.0255 7.6C14.6255 7.46667 14.1922 7.28333 13.7255 7.05C13.3755 6.88333 13.0672 6.75833 12.8005 6.675C12.5505 6.575 12.2838 6.525 12.0005 6.525C11.7172 6.525 11.4422 6.575 11.1755 6.675C10.9255 6.75833 10.6255 6.88333 10.2755 7.05C9.80882 7.28333 9.36716 7.46667 8.95049 7.6C8.55049 7.71667 8.06716 7.775 7.50049 7.775C6.93382 7.775 6.44216 7.71667 6.02549 7.6C5.62549 7.46667 5.19216 7.28333 4.72549 7.05C4.37549 6.88333 4.06716 6.75833 3.80049 6.675C3.55049 6.575 3.28382 6.525 3.00049 6.525V3C3.56716 3 4.05049 3.06667 4.45049 3.2C4.86716 3.31667 5.30882 3.49167 5.77549 3.725C6.12549 3.89167 6.42549 4.025 6.67549 4.125C6.94216 4.20833 7.21716 4.25 7.50049 4.25C7.78382 4.25 8.05049 4.20833 8.30049 4.125C8.56716 4.025 8.87549 3.89167 9.22549 3.725C9.69216 3.49167 10.1255 3.31667 10.5255 3.2C10.9422 3.06667 11.4338 3 12.0005 3C12.5672 3 13.0505 3.06667 13.4505 3.2C13.8672 3.31667 14.3088 3.49167 14.7755 3.725C15.1255 3.89167 15.4255 4.025 15.6755 4.125C15.9422 4.20833 16.2172 4.25 16.5005 4.25Z" fill="black"/>
</g>
<defs>
<clipPath id="clip0_3218_6912">
<rect width="24" height="24" fill="white"/>
</clipPath>
</defs>
</svg>
