<svg width="24" height="24" viewBox="0 0 24 24" fill="none" xmlns="http://www.w3.org/2000/svg">
<g clip-path="url(#clip0_3218_6906)">
<rect width="24" height="24" fill="white"/>
<path d="M3.00049 13.175V11.325H21.0005V13.175H3.00049ZM18.0005 21V19.15H21.0005V21H18.0005ZM3.00049 21V19.15H6.00049V21H3.00049ZM13.0005 21V19.15H16.0005V21H13.0005ZM8.00049 21V19.15H11.0005V21H8.00049ZM16.6005 4.65C16.9838 4.65 17.3088 4.59167 17.5755 4.475C17.8588 4.34167 18.1838 4.15 18.5505 3.9C18.9338 3.61667 19.3005 3.4 19.6505 3.25C20.0172 3.08333 20.4672 3 21.0005 3V4.875C20.6838 4.875 20.4005 4.93333 20.1505 5.05C19.9005 5.15 19.6172 5.31667 19.3005 5.55C18.8672 5.83333 18.4588 6.05833 18.0755 6.225C17.7088 6.375 17.2172 6.45 16.6005 6.45C16.0172 6.45 15.5338 6.375 15.1505 6.225C14.7672 6.075 14.3588 5.85833 13.9255 5.575C13.5755 5.325 13.2588 5.14167 12.9755 5.025C12.7088 4.90833 12.3838 4.85 12.0005 4.85C11.6172 4.85 11.2922 4.90833 11.0255 5.025C10.7588 5.14167 10.4338 5.325 10.0505 5.575C9.61716 5.85833 9.20882 6.075 8.82549 6.225C8.45882 6.375 7.98382 6.45 7.40049 6.45C6.78382 6.45 6.28382 6.375 5.90049 6.225C5.51716 6.05833 5.10882 5.825 4.67549 5.525C4.32549 5.29167 4.03382 5.125 3.80049 5.025C3.58382 4.925 3.31716 4.875 3.00049 4.875V3C3.53382 3 3.97549 3.08333 4.32549 3.25C4.69216 3.4 5.06716 3.61667 5.45049 3.9C5.83382 4.15 6.15882 4.34167 6.42549 4.475C6.69215 4.59167 7.01716 4.65 7.40049 4.65C7.78382 4.65 8.10882 4.59167 8.37549 4.475C8.65882 4.34167 8.98382 4.15 9.35049 3.9C9.80049 3.6 10.2088 3.375 10.5755 3.225C10.9588 3.075 11.4338 3 12.0005 3C12.5838 3 13.0672 3.08333 13.4505 3.25C13.8338 3.4 14.2422 3.625 14.6755 3.925C15.0255 4.175 15.3338 4.35833 15.6005 4.475C15.8838 4.59167 16.2172 4.65 16.6005 4.65Z" fill="black"/>
</g>
<defs>
<clipPath id="clip0_3218_6906">
<rect width="24" height="24" fill="white"/>
</clipPath>
</defs>
</svg>
