<svg width="24" height="24" viewBox="0 0 24 24" fill="none" xmlns="http://www.w3.org/2000/svg">
<g clip-path="url(#clip0_3218_6904)">
<rect width="24" height="24" fill="white"/>
<path d="M3.00049 12.95V11.575H21.0005V12.95H3.00049ZM18.0005 21V19.6H21.0005V21H18.0005ZM3.00049 21V19.6H6.00049V21H3.00049ZM13.0005 21V19.6H16.0005V21H13.0005ZM8.00049 21V19.6H11.0005V21H8.00049ZM16.6005 4.65C16.9838 4.65 17.3172 4.59167 17.6005 4.475C17.8838 4.34167 18.2172 4.14167 18.6005 3.875C19.0005 3.59167 19.3672 3.375 19.7005 3.225C20.0505 3.075 20.4838 3 21.0005 3V4.4C20.6505 4.4 20.3422 4.45833 20.0755 4.575C19.8255 4.69167 19.5255 4.875 19.1755 5.125C18.7422 5.40833 18.3422 5.625 17.9755 5.775C17.6255 5.925 17.1672 6 16.6005 6C16.0505 6 15.5922 5.925 15.2255 5.775C14.8588 5.625 14.4588 5.40833 14.0255 5.125C13.6255 4.875 13.2838 4.69167 13.0005 4.575C12.7172 4.45833 12.3838 4.4 12.0005 4.4C11.6172 4.4 11.2838 4.45833 11.0005 4.575C10.7172 4.69167 10.3755 4.875 9.97549 5.125C9.52549 5.40833 9.11716 5.625 8.75049 5.775C8.40049 5.925 7.95049 6 7.40049 6C6.83382 6 6.36716 5.925 6.00049 5.775C5.63382 5.625 5.24216 5.4 4.82549 5.1C4.44216 4.85 4.12549 4.675 3.87549 4.575C3.64216 4.45833 3.35049 4.4 3.00049 4.4V3C3.51716 3 3.94216 3.075 4.27549 3.225C4.62549 3.375 5.00049 3.59167 5.40049 3.875C5.80049 4.14167 6.13382 4.34167 6.40049 4.475C6.68382 4.59167 7.01716 4.65 7.40049 4.65C7.78382 4.65 8.11716 4.59167 8.40049 4.475C8.68382 4.34167 9.02549 4.14167 9.42549 3.875C9.87549 3.59167 10.2838 3.375 10.6505 3.225C11.0172 3.075 11.4672 3 12.0005 3C12.5505 3 13.0088 3.075 13.3755 3.225C13.7422 3.375 14.1422 3.6 14.5755 3.9C14.9755 4.15 15.3172 4.34167 15.6005 4.475C15.8838 4.59167 16.2172 4.65 16.6005 4.65Z" fill="black"/>
</g>
<defs>
<clipPath id="clip0_3218_6904">
<rect width="24" height="24" fill="white"/>
</clipPath>
</defs>
</svg>
