<svg width="24" height="24" viewBox="0 0 24 24" fill="none" xmlns="http://www.w3.org/2000/svg">
<g clip-path="url(#clip0_3218_6634)">
<rect width="24" height="24" fill="white"/>
<path d="M11 12.9V11.05H21V12.9H11ZM11 4.85V3H21V4.85H11ZM11 21V19.15H21V21H11ZM4.175 3H6.1L6.075 8.6H4.2L4.175 3ZM6.1 21H4.175L4.2 15.4H6.075L6.1 21ZM5.125 13L8.625 16.5H5.6H5.15H4.675H1.625L5.125 13ZM4.675 7.5H5.15H5.6H8.625L5.125 11L1.625 7.5H4.675Z" fill="black"/>
</g>
<defs>
<clipPath id="clip0_3218_6634">
<rect width="24" height="24" fill="white"/>
</clipPath>
</defs>
</svg>
