<svg width="24" height="24" viewBox="0 0 24 24" fill="none" xmlns="http://www.w3.org/2000/svg">
<g clip-path="url(#clip0_3218_5916)">
<rect width="24" height="24" fill="white"/>
<path d="M4.50049 11.575C3.76716 12.3083 3.27549 13.15 3.02549 14.1C2.77549 15.05 2.77549 16.0083 3.02549 16.975C3.29216 17.925 3.78382 18.7583 4.50049 19.475C5.23382 20.2083 6.07549 20.7083 7.02549 20.975C7.99216 21.225 8.95049 21.225 9.90049 20.975C10.8505 20.725 11.6922 20.2333 12.4255 19.5L15.0755 16.85L16.0505 17.825L13.4005 20.475C12.5005 21.375 11.4505 21.9917 10.2505 22.325C9.05049 22.6583 7.85049 22.6583 6.65049 22.325C5.46716 22.0083 4.41716 21.3917 3.50049 20.475C2.60049 19.575 1.98382 18.5333 1.65049 17.35C1.33382 16.15 1.33382 14.95 1.65049 13.75C1.98382 12.5333 2.60049 11.475 3.50049 10.575L6.15049 7.925L7.15049 8.925L4.50049 11.575ZM7.92549 6.15L10.5755 3.5C11.4755 2.6 12.5255 1.99167 13.7255 1.675C14.9255 1.35833 16.1255 1.35833 17.3255 1.675C18.5255 1.99167 19.5755 2.6 20.4755 3.5C21.3922 4.41667 22.0088 5.475 22.3255 6.675C22.6422 7.875 22.6338 9.075 22.3005 10.275C21.9838 11.4583 21.3755 12.5 20.4755 13.4L17.8255 16.05L16.8505 15.075L19.5005 12.425C20.2338 11.6917 20.7255 10.85 20.9755 9.9C21.2255 8.95 21.2172 8 20.9505 7.05C20.7005 6.08333 20.2088 5.23333 19.4755 4.5C18.7588 3.78333 17.9172 3.3 16.9505 3.05C16.0005 2.78333 15.0505 2.775 14.1005 3.025C13.1505 3.275 12.3088 3.76667 11.5755 4.5L8.92549 7.15L7.92549 6.15ZM7.97549 16C7.84216 15.8667 7.77549 15.7083 7.77549 15.525C7.77549 15.3417 7.85049 15.175 8.00049 15.025L15.0005 8.025C15.1505 7.875 15.3172 7.8 15.5005 7.8C15.7005 7.78333 15.8672 7.84167 16.0005 7.975C16.1505 8.125 16.2172 8.3 16.2005 8.5C16.2005 8.68333 16.1255 8.85 15.9755 9L8.97549 16C8.82549 16.15 8.65882 16.225 8.47549 16.225C8.29216 16.225 8.12549 16.15 7.97549 16Z" fill="black"/>
</g>
<defs>
<clipPath id="clip0_3218_5916">
<rect width="24" height="24" fill="white"/>
</clipPath>
</defs>
</svg>
