<svg width="24" height="24" viewBox="0 0 24 24" fill="none" xmlns="http://www.w3.org/2000/svg">
<g clip-path="url(#clip0_3218_5914)">
<rect width="24" height="24" fill="white"/>
<path d="M4.17549 11.25C3.39216 12.0333 2.86716 12.9417 2.60049 13.975C2.33382 15.0083 2.33382 16.0417 2.60049 17.075C2.88382 18.0917 3.41716 18.9917 4.20049 19.775C5.00049 20.575 5.90882 21.1083 6.92549 21.375C7.95882 21.6583 8.99216 21.6667 10.0255 21.4C11.0588 21.1333 11.9672 20.6083 12.7505 19.825L15.4005 17.175L16.0505 17.825L13.4005 20.475C12.5005 21.375 11.4505 21.9917 10.2505 22.325C9.05049 22.6583 7.85049 22.6583 6.65049 22.325C5.46716 22.0083 4.41716 21.3917 3.50049 20.475C2.60049 19.575 1.98382 18.5333 1.65049 17.35C1.33382 16.15 1.33382 14.95 1.65049 13.75C1.98382 12.5333 2.60049 11.475 3.50049 10.575L6.15049 7.925L6.82549 8.6L4.17549 11.25ZM7.92549 6.15L10.5755 3.5C11.4755 2.6 12.5255 1.99167 13.7255 1.675C14.9255 1.35833 16.1255 1.35833 17.3255 1.675C18.5255 1.99167 19.5755 2.6 20.4755 3.5C21.3922 4.41667 22.0088 5.475 22.3255 6.675C22.6422 7.875 22.6338 9.075 22.3005 10.275C21.9838 11.4583 21.3755 12.5 20.4755 13.4L17.8255 16.05L17.1755 15.4L19.8255 12.75C20.6088 11.9667 21.1338 11.0583 21.4005 10.025C21.6672 8.99167 21.6588 7.96667 21.3755 6.95C21.1088 5.91667 20.5755 5 19.7755 4.2C18.9922 3.41667 18.0838 2.89167 17.0505 2.625C16.0338 2.34167 15.0088 2.33333 13.9755 2.6C12.9422 2.86667 12.0338 3.39167 11.2505 4.175L8.60049 6.825L7.92549 6.15ZM8.22549 15.75C8.12549 15.65 8.07549 15.5417 8.07549 15.425C8.07549 15.3083 8.12549 15.2 8.22549 15.1L15.1005 8.225C15.2005 8.125 15.3088 8.075 15.4255 8.075C15.5422 8.075 15.6505 8.125 15.7505 8.225C15.8505 8.325 15.9005 8.44167 15.9005 8.575C15.9172 8.69167 15.8755 8.8 15.7755 8.9L8.90049 15.775C8.80049 15.875 8.68382 15.925 8.55049 15.925C8.43382 15.9083 8.32549 15.85 8.22549 15.75Z" fill="black"/>
</g>
<defs>
<clipPath id="clip0_3218_5914">
<rect width="24" height="24" fill="white"/>
</clipPath>
</defs>
</svg>
