<svg width="24" height="24" viewBox="0 0 24 24" fill="none" xmlns="http://www.w3.org/2000/svg">
<g clip-path="url(#clip0_3218_5270)">
<rect width="24" height="24" fill="white"/>
<path d="M7.82549 7.075C6.92549 7.075 6.10049 7.29167 5.35049 7.725C4.60049 8.15833 4.00882 8.75 3.57549 9.5C3.14216 10.25 2.92549 11.0833 2.92549 12C2.92549 12.9167 3.14216 13.75 3.57549 14.5C4.00882 15.25 4.60049 15.8417 5.35049 16.275C6.10049 16.7083 6.92549 16.925 7.82549 16.925H10.7505V19.325H7.82549C6.49216 19.325 5.25882 19.0083 4.12549 18.375C3.00882 17.725 2.12549 16.8417 1.47549 15.725C0.825488 14.5917 0.500488 13.35 0.500488 12C0.500488 10.65 0.825488 9.41667 1.47549 8.3C2.12549 7.16667 3.00882 6.28333 4.12549 5.65C5.25882 5 6.49216 4.675 7.82549 4.675H10.7505V7.075H7.82549ZM13.2505 4.675H16.1755C17.5088 4.675 18.7338 5 19.8505 5.65C20.9838 6.28333 21.8755 7.16667 22.5255 8.3C23.1755 9.41667 23.5005 10.65 23.5005 12C23.5005 13.35 23.1755 14.5917 22.5255 15.725C21.8755 16.8417 20.9838 17.725 19.8505 18.375C18.7338 19.0083 17.5088 19.325 16.1755 19.325H13.2505V16.925H16.1755C17.0755 16.925 17.9005 16.7083 18.6505 16.275C19.4005 15.8417 19.9922 15.25 20.4255 14.5C20.8588 13.75 21.0755 12.9167 21.0755 12C21.0755 11.0833 20.8588 10.25 20.4255 9.5C19.9922 8.75 19.4005 8.15833 18.6505 7.725C17.9005 7.29167 17.0755 7.075 16.1755 7.075H13.2505V4.675ZM6.77549 12C6.77549 11.65 6.88382 11.3667 7.10049 11.15C7.33382 10.9167 7.62549 10.8 7.97549 10.8H16.0005C16.3505 10.8 16.6422 10.9167 16.8755 11.15C17.1088 11.3667 17.2255 11.65 17.2255 12C17.2255 12.35 17.1088 12.6417 16.8755 12.875C16.6422 13.0917 16.3505 13.2 16.0005 13.2H7.97549C7.62549 13.2 7.33382 13.0917 7.10049 12.875C6.88382 12.6417 6.77549 12.35 6.77549 12Z" fill="black"/>
</g>
<defs>
<clipPath id="clip0_3218_5270">
<rect width="24" height="24" fill="white"/>
</clipPath>
</defs>
</svg>
