<svg width="24" height="24" viewBox="0 0 24 24" fill="none" xmlns="http://www.w3.org/2000/svg">
<g clip-path="url(#clip0_3218_5264)">
<rect width="24" height="24" fill="white"/>
<path d="M7.50049 5.925C6.38382 5.925 5.36716 6.2 4.45049 6.75C3.53382 7.28333 2.80882 8.01667 2.27549 8.95C1.74216 9.86667 1.47549 10.8833 1.47549 12C1.47549 13.1167 1.74216 14.1417 2.27549 15.075C2.80882 15.9917 3.53382 16.725 4.45049 17.275C5.36716 17.8083 6.38382 18.075 7.50049 18.075H10.7505V19H7.50049C6.21716 19 5.03382 18.6917 3.95049 18.075C2.88382 17.4583 2.04216 16.6167 1.42549 15.55C0.808822 14.4667 0.500488 13.2833 0.500488 12C0.500488 10.7167 0.808822 9.54167 1.42549 8.475C2.04216 7.39167 2.88382 6.54167 3.95049 5.925C5.03382 5.30833 6.21716 5 7.50049 5H10.7505V5.925H7.50049ZM13.2505 5H16.5005C17.7838 5 18.9588 5.30833 20.0255 5.925C21.1088 6.54167 21.9588 7.39167 22.5755 8.475C23.1922 9.54167 23.5005 10.7167 23.5005 12C23.5005 13.2833 23.1922 14.4667 22.5755 15.55C21.9588 16.6167 21.1088 17.4583 20.0255 18.075C18.9588 18.6917 17.7838 19 16.5005 19H13.2505V18.075H16.5005C17.6172 18.075 18.6338 17.8083 19.5505 17.275C20.4672 16.725 21.1922 15.9917 21.7255 15.075C22.2588 14.1417 22.5255 13.1167 22.5255 12C22.5255 10.8833 22.2588 9.86667 21.7255 8.95C21.1922 8.01667 20.4672 7.28333 19.5505 6.75C18.6338 6.2 17.6172 5.925 16.5005 5.925H13.2505V5ZM7.17549 12C7.17549 11.85 7.21716 11.7333 7.30049 11.65C7.38382 11.5667 7.50049 11.525 7.65049 11.525H16.3505C16.5005 11.525 16.6172 11.5667 16.7005 11.65C16.7838 11.7333 16.8255 11.85 16.8255 12C16.8255 12.1333 16.7838 12.25 16.7005 12.35C16.6172 12.4333 16.5005 12.475 16.3505 12.475H7.65049C7.50049 12.475 7.38382 12.4333 7.30049 12.35C7.21716 12.25 7.17549 12.1333 7.17549 12Z" fill="black"/>
</g>
<defs>
<clipPath id="clip0_3218_5264">
<rect width="24" height="24" fill="white"/>
</clipPath>
</defs>
</svg>
