<svg width="24" height="24" viewBox="0 0 24 24" fill="none" xmlns="http://www.w3.org/2000/svg">
<g clip-path="url(#clip0_3216_1714)">
<rect width="24" height="24" fill="white"/>
<path d="M3.85049 10.925C3.00049 11.775 2.42549 12.7583 2.12549 13.875C1.84216 14.975 1.85049 16.0833 2.15049 17.2C2.45049 18.3167 3.01716 19.2917 3.85049 20.125C4.70049 20.975 5.68382 21.55 6.80049 21.85C7.91716 22.15 9.02549 22.15 10.1255 21.85C11.2422 21.5667 12.2255 21 13.0755 20.15L15.7255 17.5L16.0505 17.825L13.4005 20.475C12.5005 21.375 11.4505 21.9917 10.2505 22.325C9.05049 22.6583 7.85049 22.6583 6.65049 22.325C5.46716 22.0083 4.41716 21.3917 3.50049 20.475C2.60049 19.575 1.98382 18.5333 1.65049 17.35C1.33382 16.15 1.33382 14.95 1.65049 13.75C1.98382 12.5333 2.60049 11.475 3.50049 10.575L6.15049 7.925L6.50049 8.275L3.85049 10.925ZM7.92549 6.15L10.5755 3.5C11.4755 2.6 12.5255 1.99167 13.7255 1.675C14.9255 1.35833 16.1255 1.35833 17.3255 1.675C18.5255 1.99167 19.5755 2.6 20.4755 3.5C21.3922 4.41667 22.0088 5.475 22.3255 6.675C22.6422 7.875 22.6338 9.075 22.3005 10.275C21.9838 11.4583 21.3755 12.5 20.4755 13.4L17.8255 16.05L17.5005 15.725L20.1505 13.075C21.0005 12.225 21.5672 11.25 21.8505 10.15C22.1505 9.03333 22.1505 7.91667 21.8505 6.8C21.5505 5.68333 20.9755 4.7 20.1255 3.85C19.2922 3.01667 18.3172 2.45 17.2005 2.15C16.0838 1.85 14.9672 1.85 13.8505 2.15C12.7505 2.43333 11.7755 3 10.9255 3.85L8.27549 6.5L7.92549 6.15ZM8.45049 15.525C8.40049 15.475 8.37549 15.4167 8.37549 15.35C8.37549 15.2833 8.40049 15.225 8.45049 15.175L15.1755 8.45C15.2255 8.4 15.2838 8.375 15.3505 8.375C15.4172 8.375 15.4755 8.4 15.5255 8.45C15.5755 8.5 15.6005 8.56667 15.6005 8.65C15.6172 8.71667 15.6005 8.775 15.5505 8.825L8.82549 15.55C8.77549 15.6 8.70882 15.625 8.62549 15.625C8.55882 15.6083 8.50049 15.575 8.45049 15.525Z" fill="black"/>
</g>
<defs>
<clipPath id="clip0_3216_1714">
<rect width="24" height="24" fill="white"/>
</clipPath>
</defs>
</svg>
