<svg width="24" height="24" viewBox="0 0 24 24" fill="none" xmlns="http://www.w3.org/2000/svg">
<g clip-path="url(#clip0_3218_5266)">
<rect width="24" height="24" fill="white"/>
<path d="M7.50049 6.4C6.46716 6.4 5.52549 6.65 4.67549 7.15C3.82549 7.63333 3.15049 8.30833 2.65049 9.175C2.16716 10.025 1.92549 10.9667 1.92549 12C1.92549 13.0333 2.16716 13.9833 2.65049 14.85C3.15049 15.7 3.82549 16.375 4.67549 16.875C5.52549 17.3583 6.46716 17.6 7.50049 17.6H10.7505V19H7.50049C6.21716 19 5.03382 18.6917 3.95049 18.075C2.88382 17.4583 2.04216 16.6167 1.42549 15.55C0.808822 14.4667 0.500488 13.2833 0.500488 12C0.500488 10.7167 0.808822 9.54167 1.42549 8.475C2.04216 7.39167 2.88382 6.54167 3.95049 5.925C5.03382 5.30833 6.21716 5 7.50049 5H10.7505V6.4H7.50049ZM13.2505 5H16.5005C17.7838 5 18.9588 5.30833 20.0255 5.925C21.1088 6.54167 21.9588 7.39167 22.5755 8.475C23.1922 9.54167 23.5005 10.7167 23.5005 12C23.5005 13.2833 23.1922 14.4667 22.5755 15.55C21.9588 16.6167 21.1088 17.4583 20.0255 18.075C18.9588 18.6917 17.7838 19 16.5005 19H13.2505V17.6H16.5005C17.5338 17.6 18.4755 17.3583 19.3255 16.875C20.1755 16.375 20.8422 15.7 21.3255 14.85C21.8255 13.9833 22.0755 13.0333 22.0755 12C22.0755 10.9667 21.8255 10.025 21.3255 9.175C20.8422 8.30833 20.1755 7.63333 19.3255 7.15C18.4755 6.65 17.5338 6.4 16.5005 6.4H13.2505V5ZM6.82549 12C6.82549 11.8 6.89216 11.6333 7.02549 11.5C7.15882 11.3667 7.32549 11.3 7.52549 11.3H16.4255C16.6422 11.3 16.8172 11.3667 16.9505 11.5C17.1005 11.6333 17.1755 11.8 17.1755 12C17.1755 12.2 17.1005 12.3667 16.9505 12.5C16.8172 12.6333 16.6422 12.7 16.4255 12.7H7.52549C7.32549 12.7 7.15882 12.6333 7.02549 12.5C6.89216 12.3667 6.82549 12.2 6.82549 12Z" fill="black"/>
</g>
<defs>
<clipPath id="clip0_3218_5266">
<rect width="24" height="24" fill="white"/>
</clipPath>
</defs>
</svg>
