<svg width="24" height="24" viewBox="0 0 24 24" fill="none" xmlns="http://www.w3.org/2000/svg">
<g clip-path="url(#clip0_3218_5274)">
<rect width="24" height="24" fill="white"/>
<path d="M8.00049 7.5C7.16716 7.5 6.40882 7.7 5.72549 8.1C5.04216 8.5 4.50049 9.04167 4.10049 9.725C3.70049 10.4083 3.50049 11.1667 3.50049 12C3.50049 12.8333 3.70049 13.5917 4.10049 14.275C4.50049 14.9583 5.04216 15.5 5.72549 15.9C6.40882 16.3 7.16716 16.5 8.00049 16.5H10.7505V20H8.00049C6.53382 20 5.18382 19.65 3.95049 18.95C2.73382 18.2333 1.76715 17.2667 1.05049 16.05C0.350488 14.8167 0.000488281 13.4667 0.000488281 12C0.000488281 10.5333 0.350488 9.19167 1.05049 7.975C1.76715 6.74167 2.73382 5.775 3.95049 5.075C5.18382 4.35833 6.53382 4 8.00049 4H10.7505V7.5H8.00049ZM13.2505 4H16.0005C17.4672 4 18.8088 4.35833 20.0255 5.075C21.2588 5.775 22.2255 6.74167 22.9255 7.975C23.6422 9.19167 24.0005 10.5333 24.0005 12C24.0005 13.4667 23.6422 14.8167 22.9255 16.05C22.2255 17.2667 21.2588 18.2333 20.0255 18.95C18.8088 19.65 17.4672 20 16.0005 20H13.2505V16.5H16.0005C16.8338 16.5 17.5922 16.3 18.2755 15.9C18.9588 15.5 19.5005 14.9583 19.9005 14.275C20.3005 13.5917 20.5005 12.8333 20.5005 12C20.5005 11.1667 20.3005 10.4083 19.9005 9.725C19.5005 9.04167 18.9588 8.5 18.2755 8.1C17.5922 7.7 16.8338 7.5 16.0005 7.5H13.2505V4ZM6.80049 12C6.80049 11.5 6.96716 11.0833 7.30049 10.75C7.65049 10.4 8.06716 10.225 8.55049 10.225H15.4505C15.9338 10.225 16.3422 10.4 16.6755 10.75C17.0255 11.0833 17.2005 11.5 17.2005 12C17.2005 12.5 17.0255 12.925 16.6755 13.275C16.3422 13.6083 15.9338 13.775 15.4505 13.775H8.55049C8.06716 13.775 7.65049 13.6083 7.30049 13.275C6.96716 12.925 6.80049 12.5 6.80049 12Z" fill="black"/>
</g>
<defs>
<clipPath id="clip0_3218_5274">
<rect width="24" height="24" fill="white"/>
</clipPath>
</defs>
</svg>
