<svg width="24" height="24" viewBox="0 0 24 24" fill="none" xmlns="http://www.w3.org/2000/svg">
<g clip-path="url(#clip0_3218_5274)">
<rect width="24" height="24" fill="white"/>
<path d="M8.50049 7.5C7.66716 7.5 6.90882 7.7 6.22549 8.1C5.54216 8.5 5.00049 9.04167 4.60049 9.725C4.20049 10.4083 4.00049 11.1667 4.00049 12C4.00049 12.8333 4.20049 13.5917 4.60049 14.275C5.00049 14.9583 5.54216 15.5 6.22549 15.9C6.90882 16.3 7.66716 16.5 8.50049 16.5H10.7505V20H8.50049C7.03382 20 5.68382 19.65 4.45049 18.95C3.23382 18.2333 2.26716 17.2667 1.55049 16.05C0.850488 14.8167 0.500488 13.4667 0.500488 12C0.500488 10.5333 0.850488 9.19167 1.55049 7.975C2.26716 6.74167 3.23382 5.775 4.45049 5.075C5.68382 4.35833 7.03382 4 8.50049 4H10.7505V7.5H8.50049ZM13.2505 4H15.5005C16.9672 4 18.3088 4.35833 19.5255 5.075C20.7588 5.775 21.7255 6.74167 22.4255 7.975C23.1422 9.19167 23.5005 10.5333 23.5005 12C23.5005 13.4667 23.1422 14.8167 22.4255 16.05C21.7255 17.2667 20.7588 18.2333 19.5255 18.95C18.3088 19.65 16.9672 20 15.5005 20H13.2505V16.5H15.5005C16.3338 16.5 17.0922 16.3 17.7755 15.9C18.4588 15.5 19.0005 14.9583 19.4005 14.275C19.8005 13.5917 20.0005 12.8333 20.0005 12C20.0005 11.1667 19.8005 10.4083 19.4005 9.725C19.0005 9.04167 18.4588 8.5 17.7755 8.1C17.0922 7.7 16.3338 7.5 15.5005 7.5H13.2505V4ZM7.30049 12C7.30049 11.5 7.46716 11.0833 7.80049 10.75C8.15049 10.4 8.56716 10.225 9.05049 10.225H14.9505C15.4338 10.225 15.8422 10.4 16.1755 10.75C16.5255 11.0833 16.7005 11.5 16.7005 12C16.7005 12.5 16.5255 12.925 16.1755 13.275C15.8422 13.6083 15.4338 13.775 14.9505 13.775H9.05049C8.56716 13.775 8.15049 13.6083 7.80049 13.275C7.46716 12.925 7.30049 12.5 7.30049 12Z" fill="black"/>
</g>
<defs>
<clipPath id="clip0_3218_5274">
<rect width="24" height="24" fill="white"/>
</clipPath>
</defs>
</svg>
