<svg width="24" height="24" viewBox="0 0 24 24" fill="none" xmlns="http://www.w3.org/2000/svg">
<g clip-path="url(#clip0_3218_6886)">
<rect width="24" height="24" fill="white"/>
<path d="M14.8755 18.875L18.0505 15.675C18.2838 15.4417 18.5172 15.325 18.7505 15.325C19.0005 15.325 19.2338 15.4417 19.4505 15.675L20.6255 16.85C20.8588 17.0667 20.9755 17.3 20.9755 17.55C20.9755 17.7833 20.8588 18.0167 20.6255 18.25L17.4255 21.475L14.6255 21.725L14.8755 18.875ZM15.6505 20.65H15.8005C15.8172 20.65 15.8255 20.65 15.8255 20.65C15.8255 20.65 15.8172 20.65 15.8005 20.65H15.7505H15.5755H15.6505ZM18.7755 17.45H18.8505C18.8672 17.45 18.8838 17.45 18.9005 17.45C18.9172 17.45 18.9338 17.45 18.9505 17.45H19.0005C19.0172 17.45 19.0255 17.45 19.0255 17.45C19.0255 17.45 19.0172 17.45 19.0005 17.45H18.9255H18.7755ZM11.2505 17.4V21H3.00049V17.4H11.2505ZM21.0005 10.2V13.8H3.00049V10.2H21.0005ZM21.0005 3V6.6H3.00049V3H21.0005Z" fill="black"/>
</g>
<defs>
<clipPath id="clip0_3218_6886">
<rect width="24" height="24" fill="white"/>
</clipPath>
</defs>
</svg>
