<svg width="24" height="24" viewBox="0 0 24 24" fill="none" xmlns="http://www.w3.org/2000/svg">
<g clip-path="url(#clip0_3218_6896)">
<rect width="24" height="24" fill="white"/>
<path d="M11.25 18.575V21H3V18.575H11.25ZM21 10.775V13.225H3V10.775H21ZM21 3V5.425H3V3H21ZM14.9 20.225L17.35 17.775C17.45 17.875 17.5167 17.95 17.55 18C17.6 18.0333 17.675 18.1 17.775 18.2L18.55 19C18.65 19.1 18.725 19.175 18.775 19.225C18.825 19.275 18.9 19.35 19 19.45L16.55 21.9L14.625 22.175L14.9 20.225ZM18.4 16.725L19.375 15.725C19.5083 15.5917 19.65 15.525 19.8 15.525C19.9667 15.525 20.1083 15.5917 20.225 15.725L21.05 16.55C21.1833 16.6667 21.25 16.8083 21.25 16.975C21.25 17.125 21.1833 17.2667 21.05 17.4L20.05 18.375L18.4 16.725Z" fill="black"/>
</g>
<defs>
<clipPath id="clip0_3218_6896">
<rect width="24" height="24" fill="white"/>
</clipPath>
</defs>
</svg>
