<svg width="24" height="24" viewBox="0 0 24 24" fill="none" xmlns="http://www.w3.org/2000/svg">
<g clip-path="url(#clip0_3217_5168)">
<rect width="24" height="24" fill="white"/>
<path d="M21.0005 20.525V21H7.50049V20.525H21.0005ZM21.0005 11.75V12.225H7.50049V11.75H21.0005ZM21.0005 3V3.475H7.50049V3H21.0005ZM3.37549 3.75C3.24216 3.75 3.12549 3.7 3.02549 3.6C2.92549 3.5 2.87549 3.38333 2.87549 3.25C2.87549 3.11667 2.92549 3 3.02549 2.9C3.12549 2.8 3.24216 2.75 3.37549 2.75C3.50882 2.75 3.62549 2.8 3.72549 2.9C3.82549 3 3.87549 3.11667 3.87549 3.25C3.87549 3.38333 3.82549 3.5 3.72549 3.6C3.62549 3.7 3.50882 3.75 3.37549 3.75ZM3.37549 12.5C3.24216 12.5 3.12549 12.45 3.02549 12.35C2.92549 12.25 2.87549 12.1333 2.87549 12C2.87549 11.8667 2.92549 11.75 3.02549 11.65C3.12549 11.55 3.24216 11.5 3.37549 11.5C3.50882 11.5 3.62549 11.55 3.72549 11.65C3.82549 11.75 3.87549 11.8667 3.87549 12C3.87549 12.1333 3.82549 12.25 3.72549 12.35C3.62549 12.45 3.50882 12.5 3.37549 12.5ZM3.37549 21.25C3.24216 21.25 3.12549 21.2 3.02549 21.1C2.92549 21 2.87549 20.8833 2.87549 20.75C2.87549 20.6167 2.92549 20.5 3.02549 20.4C3.12549 20.3 3.24216 20.25 3.37549 20.25C3.50882 20.25 3.62549 20.3 3.72549 20.4C3.82549 20.5 3.87549 20.6167 3.87549 20.75C3.87549 20.8833 3.82549 21 3.72549 21.1C3.62549 21.2 3.50882 21.25 3.37549 21.25Z" fill="black"/>
</g>
<defs>
<clipPath id="clip0_3217_5168">
<rect width="24" height="24" fill="white"/>
</clipPath>
</defs>
</svg>
