<svg width="24" height="24" viewBox="0 0 24 24" fill="none" xmlns="http://www.w3.org/2000/svg">
<g clip-path="url(#clip0_3218_6896)">
<rect width="24" height="24" fill="white"/>
<path d="M11.25 18.575V21H3V18.575H11.25ZM21 10.775V13.225H3V10.775H21ZM21 3V5.425H3V3H21ZM16.55 22H14.8V20.225L17.425 17.575L19.175 19.375L16.55 22ZM19.2 15.775C19.4 15.5917 19.6 15.5 19.8 15.5C20 15.5 20.2 15.5917 20.4 15.775L21 16.4C21.1667 16.5667 21.25 16.7583 21.25 16.975C21.25 17.1917 21.1667 17.3833 21 17.55L20.05 18.475L18.275 16.725L19.2 15.775Z" fill="black"/>
</g>
<defs>
<clipPath id="clip0_3218_6896">
<rect width="24" height="24" fill="white"/>
</clipPath>
</defs>
</svg>
