<svg width="24" height="24" viewBox="0 0 24 24" fill="none" xmlns="http://www.w3.org/2000/svg">
<g clip-path="url(#clip0_3218_6882)">
<rect width="24" height="24" fill="white"/>
<path d="M14.7505 19.975L17.2755 17.45C17.3255 17.5 17.3672 17.5417 17.4005 17.575C17.4338 17.6083 17.4755 17.65 17.5255 17.7L18.6755 18.875C18.7255 18.925 18.7588 18.9667 18.7755 19C18.8088 19.0167 18.8505 19.05 18.9005 19.1L16.3755 21.625L14.5005 21.875L14.7505 19.975ZM15.8505 20.475H16.0005C16.0172 20.475 16.0255 20.475 16.0255 20.475C16.0255 20.475 16.0172 20.475 16.0005 20.475H15.9505H15.7755H15.8505ZM18.3255 16.4L19.2255 15.5C19.3755 15.35 19.5505 15.275 19.7505 15.275C19.9505 15.275 20.1255 15.35 20.2755 15.5L20.8755 16.1C21.0088 16.2333 21.0755 16.4083 21.0755 16.625C21.0755 16.825 21.0088 17 20.8755 17.15L19.9755 18.025L18.3255 16.4ZM11.2505 18.575V21H3.00049V18.575H11.2505ZM21.0005 10.775V13.225H3.00049V10.775H21.0005ZM21.0005 3V5.425H3.00049V3H21.0005Z" fill="black"/>
</g>
<defs>
<clipPath id="clip0_3218_6882">
<rect width="24" height="24" fill="white"/>
</clipPath>
</defs>
</svg>
