<svg width="24" height="24" viewBox="0 0 24 24" fill="none" xmlns="http://www.w3.org/2000/svg">
<g clip-path="url(#clip0_3216_2008)">
<rect width="24" height="24" fill="white"/>
<path d="M3.00049 7.5H6.57549V6.925C6.57549 5.95833 6.80049 5.08333 7.25049 4.3C7.71716 3.5 8.35882 2.875 9.17549 2.425C10.0088 1.975 10.9505 1.75 12.0005 1.75C13.0505 1.75 13.9838 1.975 14.8005 2.425C15.6338 2.875 16.2755 3.5 16.7255 4.3C17.1922 5.08333 17.4255 5.95833 17.4255 6.925V7.5H21.0005V21H3.00049V7.5ZM18.2255 18.275V10.225H5.77549V18.275H18.2255ZM14.6755 7.5V6.925C14.6755 6.475 14.5588 6.05833 14.3255 5.675C14.1088 5.29167 13.7922 4.99167 13.3755 4.775C12.9755 4.55833 12.5172 4.45 12.0005 4.45C11.4672 4.45 11.0005 4.55833 10.6005 4.775C10.2005 4.99167 9.88382 5.29167 9.65049 5.675C9.43382 6.05833 9.32549 6.475 9.32549 6.925V7.5H14.6755ZM8.57549 12.925H10.6255V10.85H13.3755V12.925H15.4255V15.55H13.3755V17.625H10.6255V15.55H8.57549V12.925Z" fill="black"/>
</g>
<defs>
<clipPath id="clip0_3216_2008">
<rect width="24" height="24" fill="white"/>
</clipPath>
</defs>
</svg>
