<svg width="24" height="24" viewBox="0 0 24 24" fill="none" xmlns="http://www.w3.org/2000/svg">
<g clip-path="url(#clip0_3216_2672)">
<rect width="24" height="24" fill="white"/>
<path d="M21 21H3V8H6.575V7.1C6.575 6.06667 6.8 5.14167 7.25 4.325C7.71667 3.50833 8.35833 2.875 9.175 2.425C10.0083 1.975 10.95 1.75 12 1.75C13.05 1.75 13.9833 1.975 14.8 2.425C15.6333 2.875 16.275 3.50833 16.725 4.325C17.1917 5.14167 17.425 6.06667 17.425 7.1V8H21V21ZM9.725 5.75C9.50833 6.15 9.4 6.6 9.4 7.1V8H14.6V7.1C14.6 6.6 14.4917 6.15 14.275 5.75C14.0583 5.35 13.75 5.04167 13.35 4.825C12.95 4.59167 12.5 4.475 12 4.475C11.4833 4.475 11.025 4.59167 10.625 4.825C10.2417 5.04167 9.94167 5.35 9.725 5.75ZM10.025 10.55L8.05 12.525L10.05 14.5L8.05 16.475L10.025 18.45L12 16.425L13.975 18.45L15.95 16.475L13.925 14.5L15.95 12.525L13.975 10.525L12 12.575L10.025 10.55Z" fill="black"/>
</g>
<defs>
<clipPath id="clip0_3216_2672">
<rect width="24" height="24" fill="white"/>
</clipPath>
</defs>
</svg>
