<svg width="24" height="24" viewBox="0 0 24 24" fill="none" xmlns="http://www.w3.org/2000/svg">
<g clip-path="url(#clip0_3216_1504)">
<rect width="24" height="24" fill="white"/>
<path d="M3.00049 8H7.00049V6.75C7.00049 5.78333 7.20882 4.925 7.62549 4.175C8.05882 3.40833 8.65049 2.81667 9.40049 2.4C10.1672 1.96667 11.0338 1.75 12.0005 1.75C12.9672 1.75 13.8255 1.96667 14.5755 2.4C15.3422 2.81667 15.9338 3.40833 16.3505 4.175C16.7838 4.925 17.0005 5.78333 17.0005 6.75V8H21.0005V21H3.00049V8ZM20.5005 20.525V8.475H3.50049V20.525H20.5005ZM16.5005 8V6.75C16.5005 5.88333 16.3088 5.10833 15.9255 4.425C15.5422 3.725 15.0088 3.18333 14.3255 2.8C13.6422 2.41667 12.8672 2.225 12.0005 2.225C11.1338 2.225 10.3588 2.41667 9.67549 2.8C8.99216 3.18333 8.45882 3.725 8.07549 4.425C7.69216 5.10833 7.50049 5.88333 7.50049 6.75V8H16.5005ZM7.77549 13.925L8.12549 13.575L11.0255 16.55L15.8755 11.625L16.2255 11.975L11.0255 17.275L7.77549 13.925Z" fill="black"/>
</g>
<defs>
<clipPath id="clip0_3216_1504">
<rect width="24" height="24" fill="white"/>
</clipPath>
</defs>
</svg>
