<svg width="24" height="24" viewBox="0 0 24 24" fill="none" xmlns="http://www.w3.org/2000/svg">
<g clip-path="url(#clip0_3216_2654)">
<rect width="24" height="24" fill="white"/>
<path d="M3.00049 8H7.00049V6.75C7.00049 5.78333 7.20882 4.925 7.62549 4.175C8.05882 3.40833 8.65049 2.81667 9.40049 2.4C10.1672 1.96667 11.0338 1.75 12.0005 1.75C12.9672 1.75 13.8255 1.96667 14.5755 2.4C15.3422 2.81667 15.9338 3.40833 16.3505 4.175C16.7838 4.925 17.0005 5.78333 17.0005 6.75V8H21.0005V21H3.00049V8ZM19.1505 19.2V9.8H4.85049V19.2H19.1505ZM15.1505 8V6.75C15.1505 6.13333 15.0172 5.58333 14.7505 5.1C14.4838 4.61667 14.1088 4.24167 13.6255 3.975C13.1588 3.69167 12.6172 3.55 12.0005 3.55C11.3838 3.55 10.8338 3.69167 10.3505 3.975C9.88382 4.24167 9.51716 4.61667 9.25049 5.1C8.98382 5.58333 8.85049 6.13333 8.85049 6.75V8H15.1505ZM9.92549 11.275L12.0005 13.4L14.0505 11.275L15.2005 12.45L13.1005 14.5L15.2005 16.55L14.0505 17.725L12.0005 15.6L9.92549 17.725L8.77549 16.55L10.8755 14.5L8.77549 12.45L9.92549 11.275Z" fill="black"/>
</g>
<defs>
<clipPath id="clip0_3216_2654">
<rect width="24" height="24" fill="white"/>
</clipPath>
</defs>
</svg>
