<svg width="24" height="24" viewBox="0 0 24 24" fill="none" xmlns="http://www.w3.org/2000/svg">
<g clip-path="url(#clip0_3216_2276)">
<rect width="24" height="24" fill="white"/>
<path d="M21 21H3V8H7V6.75C7 5.78333 7.20833 4.925 7.625 4.175C8.05833 3.40833 8.65 2.81667 9.4 2.4C10.1667 1.96667 11.0333 1.75 12 1.75C12.9667 1.75 13.825 1.96667 14.575 2.4C15.3417 2.81667 15.9333 3.40833 16.35 4.175C16.7833 4.925 17 5.78333 17 6.75V8H21V21ZM8.85 4.875C8.55 5.425 8.4 6.05 8.4 6.75V8H15.6V6.75C15.6 6.05 15.4417 5.425 15.125 4.875C14.825 4.325 14.4 3.89167 13.85 3.575C13.3167 3.25833 12.7 3.1 12 3.1C11.3 3.1 10.675 3.25833 10.125 3.575C9.59167 3.89167 9.16667 4.325 8.85 4.875ZM7.7 14.225L11.1 17.675L16.325 12.425L15.325 11.45L11.1 15.75L8.7 13.25L7.7 14.225Z" fill="black"/>
</g>
<defs>
<clipPath id="clip0_3216_2276">
<rect width="24" height="24" fill="white"/>
</clipPath>
</defs>
</svg>
