<svg width="24" height="24" viewBox="0 0 24 24" fill="none" xmlns="http://www.w3.org/2000/svg">
<g clip-path="url(#clip0_3216_2660)">
<rect width="24" height="24" fill="white"/>
<path d="M3.00049 7.25H6.35049V7.025C6.35049 6.04167 6.59216 5.15 7.07549 4.35C7.55882 3.55 8.22549 2.91667 9.07549 2.45C9.94216 1.98333 10.9172 1.75 12.0005 1.75C13.0838 1.75 14.0505 1.98333 14.9005 2.45C15.7672 2.91667 16.4422 3.55 16.9255 4.35C17.4088 5.15 17.6505 6.04167 17.6505 7.025V7.25H21.0005V21H3.00049V7.25ZM17.6755 17.8V10.45H6.35049V17.8H17.6755ZM14.3505 7.25V7.025C14.3505 6.64167 14.2588 6.29167 14.0755 5.975C13.8922 5.65833 13.6172 5.40833 13.2505 5.225C12.9005 5.04167 12.4838 4.95 12.0005 4.95C11.5172 4.95 11.0922 5.04167 10.7255 5.225C10.3755 5.40833 10.1088 5.65833 9.92549 5.975C9.74216 6.29167 9.65049 6.64167 9.65049 7.025V7.25H14.3505ZM10.7505 10.875L12.0255 12.275L13.2755 10.85L15.2755 12.85L13.8505 14.15L15.2755 15.45L13.2755 17.425L12.0005 16.025L10.7255 17.425L8.72549 15.425L10.1255 14.15L8.72549 12.875L10.7505 10.875Z" fill="black"/>
</g>
<defs>
<clipPath id="clip0_3216_2660">
<rect width="24" height="24" fill="white"/>
</clipPath>
</defs>
</svg>
