<svg width="24" height="24" viewBox="0 0 24 24" fill="none" xmlns="http://www.w3.org/2000/svg">
<g clip-path="url(#clip0_3216_2270)">
<rect width="24" height="24" fill="white"/>
<path d="M3.00049 7.25H6.35049V7.025C6.35049 6.04167 6.59216 5.15 7.07549 4.35C7.55882 3.55 8.22549 2.91667 9.07549 2.45C9.94216 1.98333 10.9172 1.75 12.0005 1.75C13.0838 1.75 14.0505 1.98333 14.9005 2.45C15.7672 2.91667 16.4422 3.55 16.9255 4.35C17.4088 5.15 17.6505 6.04167 17.6505 7.025V7.25H21.0005V21H3.00049V7.25ZM17.7505 17.8V10.45H6.25049V17.8H17.7505ZM14.4255 7.25V7.025C14.4255 6.64167 14.3255 6.29167 14.1255 5.975C13.9255 5.64167 13.6422 5.38333 13.2755 5.2C12.9088 5 12.4838 4.9 12.0005 4.9C11.5172 4.9 11.0922 5 10.7255 5.2C10.3588 5.38333 10.0755 5.64167 9.87549 5.975C9.67549 6.29167 9.57549 6.64167 9.57549 7.025V7.25H14.4255ZM7.97549 13.925L10.1755 11.7L11.4255 13.05L13.6255 10.8L15.8255 13L11.4505 17.375L7.97549 13.925Z" fill="black"/>
</g>
<defs>
<clipPath id="clip0_3216_2270">
<rect width="24" height="24" fill="white"/>
</clipPath>
</defs>
</svg>
