<svg width="24" height="24" viewBox="0 0 24 24" fill="none" xmlns="http://www.w3.org/2000/svg">
<g clip-path="url(#clip0_3219_9852)">
<rect width="24" height="24" fill="white"/>
<path d="M12.0005 8.325C12.5672 8.325 13.0755 8.45 13.5255 8.7C13.9755 8.95 14.3172 9.3 14.5505 9.75C14.8005 10.1833 14.9255 10.6917 14.9255 11.275C14.9255 12.0583 14.6505 12.8167 14.1005 13.55C13.5505 14.2667 12.8505 15.0083 12.0005 15.775C11.1338 14.975 10.4255 14.225 9.87549 13.525C9.34216 12.8083 9.07549 12.0583 9.07549 11.275C9.07549 10.6917 9.19216 10.1833 9.42549 9.75C9.67549 9.3 10.0255 8.95 10.4755 8.7C10.9255 8.45 11.4338 8.325 12.0005 8.325ZM12.0005 14.025C11.9005 14.025 11.8255 14.025 11.7755 14.025C11.7255 14.025 11.6755 14.025 11.6255 14.025C11.5755 14.025 11.5005 14.025 11.4005 14.025C11.5172 14.025 11.6005 14.025 11.6505 14.025C11.7172 14.025 11.7755 14.025 11.8255 14.025C11.8922 14.025 11.9838 14.025 12.1005 14.025H11.9005C12.0172 14.025 12.1005 14.025 12.1505 14.025C12.2172 14.025 12.2755 14.025 12.3255 14.025C12.3922 14.025 12.4838 14.025 12.6005 14.025C12.5005 14.025 12.4255 14.025 12.3755 14.025C12.3255 14.025 12.2755 14.025 12.2255 14.025C12.1755 14.025 12.1005 14.025 12.0005 14.025ZM12.0005 11.275C12.2672 11.275 12.4588 11.275 12.5755 11.275C12.7088 11.275 12.9088 11.275 13.1755 11.275C12.9088 11.275 12.7088 11.275 12.5755 11.275C12.4588 11.275 12.2672 11.275 12.0005 11.275C11.7338 11.275 11.5338 11.275 11.4005 11.275C11.2838 11.275 11.0922 11.275 10.8255 11.275C11.0922 11.275 11.2838 11.275 11.4005 11.275C11.5338 11.275 11.7338 11.275 12.0005 11.275ZM6.02549 18.025H17.9755V5.975H6.02549V18.025ZM21.0005 3V21H3.00049V3H21.0005Z" fill="black"/>
</g>
<defs>
<clipPath id="clip0_3219_9852">
<rect width="24" height="24" fill="white"/>
</clipPath>
</defs>
</svg>
