<svg width="24" height="24" viewBox="0 0 24 24" fill="none" xmlns="http://www.w3.org/2000/svg">
<g clip-path="url(#clip0_3219_9852)">
<rect width="24" height="24" fill="white"/>
<path d="M12.0005 8.375C12.5672 8.375 13.0755 8.5 13.5255 8.75C13.9755 8.98333 14.3172 9.325 14.5505 9.775C14.8005 10.225 14.9255 10.7333 14.9255 11.3C14.9255 12.0833 14.6505 12.8417 14.1005 13.575C13.5505 14.2917 12.8505 15.0333 12.0005 15.8C11.1338 15.0167 10.4255 14.2667 9.87549 13.55C9.34216 12.8333 9.07549 12.0833 9.07549 11.3C9.07549 10.7333 9.19216 10.225 9.42549 9.775C9.67549 9.325 10.0255 8.98333 10.4755 8.75C10.9255 8.5 11.4338 8.375 12.0005 8.375ZM12.0005 14.05C11.9005 14.05 11.8255 14.05 11.7755 14.05C11.7255 14.05 11.6755 14.05 11.6255 14.05C11.5755 14.05 11.5005 14.05 11.4005 14.05C11.5172 14.05 11.6005 14.05 11.6505 14.05C11.7172 14.05 11.7755 14.05 11.8255 14.05C11.8922 14.05 11.9838 14.05 12.1005 14.05H11.9005C12.0172 14.05 12.1005 14.05 12.1505 14.05C12.2172 14.05 12.2755 14.05 12.3255 14.05C12.3922 14.05 12.4838 14.05 12.6005 14.05C12.5005 14.05 12.4255 14.05 12.3755 14.05C12.3255 14.05 12.2755 14.05 12.2255 14.05C12.1755 14.05 12.1005 14.05 12.0005 14.05ZM12.0005 11.3C12.2672 11.3 12.4588 11.3 12.5755 11.3C12.7088 11.3 12.9088 11.3 13.1755 11.3C12.9088 11.3 12.7088 11.3 12.5755 11.3C12.4588 11.3 12.2672 11.3 12.0005 11.3C11.7338 11.3 11.5338 11.3 11.4005 11.3C11.2838 11.3 11.0922 11.3 10.8255 11.3C11.0922 11.3 11.2838 11.3 11.4005 11.3C11.5338 11.3 11.7338 11.3 12.0005 11.3ZM5.95049 18.1H18.0505V5.9H5.95049V18.1ZM21.0005 3V21H3.00049V3H21.0005Z" fill="black"/>
</g>
<defs>
<clipPath id="clip0_3219_9852">
<rect width="24" height="24" fill="white"/>
</clipPath>
</defs>
</svg>
