<svg width="24" height="24" viewBox="0 0 24 24" fill="none" xmlns="http://www.w3.org/2000/svg">
<g clip-path="url(#clip0_3316_9519)">
<rect width="24" height="24" fill="white"/>
<path d="M4.45049 5.925V18.1L2.15049 16.3C5.58382 17.5833 8.87549 18.225 12.0255 18.225C15.1755 18.225 18.4505 17.5833 21.8505 16.3L19.5505 18.075V5.925L21.8505 7.675C18.4338 6.39167 15.1505 5.75 12.0005 5.75C8.85049 5.75 5.56716 6.39167 2.15049 7.675L4.45049 5.925ZM2.00049 5.25C5.48382 4 8.81716 3.375 12.0005 3.375C15.1838 3.375 18.5172 4 22.0005 5.25V18.75C18.5172 20 15.1838 20.625 12.0005 20.625C8.81716 20.625 5.48382 20 2.00049 18.75V5.25ZM15.9505 9.75L9.75049 15.95L8.05049 14.25L14.2505 8.05L15.9505 9.75Z" fill="black"/>
</g>
<defs>
<clipPath id="clip0_3316_9519">
<rect width="24" height="24" fill="white"/>
</clipPath>
</defs>
</svg>
