<svg width="24" height="24" viewBox="0 0 24 24" fill="none" xmlns="http://www.w3.org/2000/svg">
<g clip-path="url(#clip0_3316_9521)">
<rect width="24" height="24" fill="white"/>
<path d="M4.97549 5.925V18.15L2.15049 15.725C5.58382 17.0083 8.87549 17.65 12.0255 17.65C15.1755 17.65 18.4505 17.0083 21.8505 15.725L19.0255 18.075V5.925L21.8505 8.25C18.4338 6.95 15.1505 6.3 12.0005 6.3C8.85049 6.3 5.56716 6.95 2.15049 8.25L4.97549 5.925ZM2.00049 5.25C5.48382 4 8.81716 3.375 12.0005 3.375C15.1838 3.375 18.5172 4 22.0005 5.25V18.75C18.5172 20 15.1838 20.625 12.0005 20.625C8.81716 20.625 5.48382 20 2.00049 18.75V5.25ZM15.8505 10.15L10.1505 15.85L8.15049 13.85L13.8505 8.15L15.8505 10.15Z" fill="black"/>
</g>
<defs>
<clipPath id="clip0_3316_9521">
<rect width="24" height="24" fill="white"/>
</clipPath>
</defs>
</svg>
