<svg width="24" height="24" viewBox="0 0 24 24" fill="none" xmlns="http://www.w3.org/2000/svg">
<g clip-path="url(#clip0_3219_10212)">
<rect width="24" height="24" fill="white"/>
<path d="M12.0005 22C10.1672 22 8.48382 21.5583 6.95049 20.675C5.41716 19.7917 4.20882 18.5833 3.32549 17.05C2.44216 15.5167 2.00049 13.8333 2.00049 12C2.00049 10.1667 2.44216 8.48333 3.32549 6.95C4.20882 5.41667 5.41716 4.20833 6.95049 3.325C8.48382 2.44167 10.1672 2 12.0005 2C13.8338 2 15.5172 2.44167 17.0505 3.325C18.5838 4.20833 19.7922 5.41667 20.6755 6.95C21.5588 8.48333 22.0005 10.1667 22.0005 12C22.0005 13.8333 21.5588 15.5167 20.6755 17.05C19.7922 18.5833 18.5838 19.7917 17.0505 20.675C15.5172 21.5583 13.8338 22 12.0005 22ZM12.0005 20.15C13.5005 20.15 14.8672 19.7917 16.1005 19.075C17.3338 18.3583 18.3088 17.3833 19.0255 16.15C19.7422 14.9 20.1005 13.5167 20.1005 12C20.1005 10.4833 19.7422 9.10833 19.0255 7.875C18.3088 6.625 17.3338 5.64167 16.1005 4.925C14.8672 4.20833 13.5005 3.85 12.0005 3.85C10.5005 3.85 9.13382 4.20833 7.90049 4.925C6.66716 5.64167 5.69216 6.625 4.97549 7.875C4.25882 9.10833 3.90049 10.4833 3.90049 12C3.90049 13.5167 4.25882 14.9 4.97549 16.15C5.69216 17.3833 6.66716 18.3583 7.90049 19.075C9.13382 19.7917 10.5005 20.15 12.0005 20.15ZM12.0005 13.375C12.3838 13.375 12.7088 13.2417 12.9755 12.975C13.2422 12.7083 13.3755 12.3833 13.3755 12C13.3755 11.6167 13.2422 11.2917 12.9755 11.025C12.7088 10.7583 12.3838 10.625 12.0005 10.625C11.6172 10.625 11.2922 10.7583 11.0255 11.025C10.7588 11.2917 10.6255 11.6167 10.6255 12C10.6255 12.3833 10.7588 12.7083 11.0255 12.975C11.2922 13.2417 11.6172 13.375 12.0005 13.375ZM16.4255 13.375C16.8088 13.375 17.1338 13.2417 17.4005 12.975C17.6672 12.7083 17.8005 12.3833 17.8005 12C17.8005 11.6167 17.6672 11.2917 17.4005 11.025C17.1338 10.7583 16.8088 10.625 16.4255 10.625C16.0422 10.625 15.7172 10.7583 15.4505 11.025C15.1838 11.2917 15.0505 11.6167 15.0505 12C15.0505 12.3833 15.1838 12.7083 15.4505 12.975C15.7172 13.2417 16.0422 13.375 16.4255 13.375ZM7.60049 13.375C7.98382 13.375 8.30882 13.2417 8.57549 12.975C8.84216 12.7083 8.97549 12.3833 8.97549 12C8.97549 11.6167 8.84216 11.2917 8.57549 11.025C8.30882 10.7583 7.98382 10.625 7.60049 10.625C7.21716 10.625 6.89216 10.7583 6.62549 11.025C6.35882 11.2917 6.22549 11.6167 6.22549 12C6.22549 12.3833 6.35882 12.7083 6.62549 12.975C6.89216 13.2417 7.21716 13.375 7.60049 13.375Z" fill="black"/>
</g>
<defs>
<clipPath id="clip0_3219_10212">
<rect width="24" height="24" fill="white"/>
</clipPath>
</defs>
</svg>
