<svg width="24" height="24" viewBox="0 0 24 24" fill="none" xmlns="http://www.w3.org/2000/svg">
<g clip-path="url(#clip0_3218_7154)">
<rect width="24" height="24" fill="white"/>
<path d="M13.375 3.375C13.375 3.75833 13.2417 4.08333 12.975 4.35C12.7083 4.61667 12.3833 4.75 12 4.75C11.6167 4.75 11.2917 4.61667 11.025 4.35C10.7583 4.08333 10.625 3.75833 10.625 3.375C10.625 2.99167 10.7583 2.66667 11.025 2.4C11.2917 2.13333 11.6167 2 12 2C12.3833 2 12.7083 2.13333 12.975 2.4C13.2417 2.66667 13.375 2.99167 13.375 3.375ZM13.375 20.625C13.375 21.0083 13.2417 21.3333 12.975 21.6C12.7083 21.8667 12.3833 22 12 22C11.6167 22 11.2917 21.8667 11.025 21.6C10.7583 21.3333 10.625 21.0083 10.625 20.625C10.625 20.2417 10.7583 19.9167 11.025 19.65C11.2917 19.3833 11.6167 19.25 12 19.25C12.3833 19.25 12.7083 19.3833 12.975 19.65C13.2417 19.9167 13.375 20.2417 13.375 20.625ZM12 20.625C12 20.7583 12 20.8583 12 20.925C12 20.9917 12 21.0917 12 21.225C12 21.0917 12 20.9917 12 20.925C12 20.8583 12 20.7583 12 20.625C12 20.4917 12 20.3917 12 20.325C12 20.2583 12 20.1583 12 20.025C12 20.1583 12 20.2583 12 20.325C12 20.3917 12 20.4917 12 20.625ZM13.375 12C13.375 12.3833 13.2417 12.7083 12.975 12.975C12.7083 13.2417 12.3833 13.375 12 13.375C11.6167 13.375 11.2917 13.2417 11.025 12.975C10.7583 12.7083 10.625 12.3833 10.625 12C10.625 11.6167 10.7583 11.2917 11.025 11.025C11.2917 10.7583 11.6167 10.625 12 10.625C12.3833 10.625 12.7083 10.7583 12.975 11.025C13.2417 11.2917 13.375 11.6167 13.375 12ZM12 12C12 12.15 12 12.2583 12 12.325C12 12.3917 12 12.5 12 12.65C12 12.5 12 12.3917 12 12.325C12 12.2583 12 12.15 12 12C12 11.85 12 11.7417 12 11.675C12 11.6083 12 11.5 12 11.35C12 11.5 12 11.6083 12 11.675C12 11.7417 12 11.85 12 12ZM12 3.375C12 3.475 12 3.55833 12 3.625C12 3.675 12 3.75 12 3.85C12 3.75 12 3.675 12 3.625C12 3.55833 12 3.475 12 3.375C12 3.275 12 3.2 12 3.15C12 3.08333 12 3 12 2.9C12 3 12 3.08333 12 3.15C12 3.2 12 3.275 12 3.375Z" fill="black"/>
</g>
<defs>
<clipPath id="clip0_3218_7154">
<rect width="24" height="24" fill="white"/>
</clipPath>
</defs>
</svg>
