<svg width="24" height="24" viewBox="0 0 24 24" fill="none" xmlns="http://www.w3.org/2000/svg">
<g clip-path="url(#clip0_3336_10584)">
<rect width="24" height="24" fill="white"/>
<path d="M12.0005 22C10.1672 22 8.48382 21.5583 6.95049 20.675C5.41716 19.7917 4.20882 18.5833 3.32549 17.05C2.44216 15.5167 2.00049 13.8333 2.00049 12C2.00049 10.1667 2.44216 8.48333 3.32549 6.95C4.20882 5.41667 5.41716 4.20833 6.95049 3.325C8.48382 2.44167 10.1672 2 12.0005 2C13.8338 2 15.5172 2.44167 17.0505 3.325C18.5838 4.20833 19.7922 5.41667 20.6755 6.95C21.5588 8.48333 22.0005 10.1667 22.0005 12C22.0005 13.8333 21.5588 15.5167 20.6755 17.05C19.7922 18.5833 18.5838 19.7917 17.0505 20.675C15.5172 21.5583 13.8338 22 12.0005 22ZM12.0005 18.45C13.1838 18.45 14.2588 18.1667 15.2255 17.6C16.2088 17.0333 16.9838 16.2583 17.5505 15.275C18.1172 14.275 18.4005 13.1833 18.4005 12C18.4005 10.8167 18.1172 9.73333 17.5505 8.75C16.9838 7.75 16.2088 6.96667 15.2255 6.4C14.2588 5.83333 13.1838 5.55 12.0005 5.55C10.8172 5.55 9.73382 5.83333 8.75049 6.4C7.78382 6.96667 7.01716 7.75 6.45049 8.75C5.88382 9.73333 5.60049 10.8167 5.60049 12C5.60049 13.1833 5.88382 14.275 6.45049 15.275C7.01716 16.2583 7.78382 17.0333 8.75049 17.6C9.73382 18.1667 10.8172 18.45 12.0005 18.45ZM12.0005 13.95C12.5172 13.95 12.9338 13.775 13.2505 13.425C13.5838 13.0583 13.7505 12.5833 13.7505 12C13.7505 11.4167 13.5838 10.95 13.2505 10.6C12.9338 10.2333 12.5172 10.05 12.0005 10.05C11.4838 10.05 11.0588 10.2333 10.7255 10.6C10.4088 10.95 10.2505 11.4167 10.2505 12C10.2505 12.5833 10.4088 13.0583 10.7255 13.425C11.0588 13.775 11.4838 13.95 12.0005 13.95ZM16.1255 13.95C16.6422 13.95 17.0588 13.775 17.3755 13.425C17.7088 13.0583 17.8755 12.5833 17.8755 12C17.8755 11.4167 17.7088 10.95 17.3755 10.6C17.0588 10.2333 16.6422 10.05 16.1255 10.05C15.6255 10.05 15.2088 10.2333 14.8755 10.6C14.5588 10.95 14.4005 11.4167 14.4005 12C14.4005 12.5833 14.5588 13.0583 14.8755 13.425C15.2088 13.775 15.6255 13.95 16.1255 13.95ZM7.85049 13.95C8.36716 13.95 8.78382 13.775 9.10049 13.425C9.41716 13.0583 9.57549 12.5833 9.57549 12C9.57549 11.4167 9.41716 10.95 9.10049 10.6C8.78382 10.2333 8.36716 10.05 7.85049 10.05C7.33382 10.05 6.90882 10.2333 6.57549 10.6C6.25882 10.95 6.10049 11.4167 6.10049 12C6.10049 12.5833 6.25882 13.0583 6.57549 13.425C6.90882 13.775 7.33382 13.95 7.85049 13.95Z" fill="black"/>
</g>
<defs>
<clipPath id="clip0_3336_10584">
<rect width="24" height="24" fill="white"/>
</clipPath>
</defs>
</svg>
