<svg width="24" height="24" viewBox="0 0 24 24" fill="none" xmlns="http://www.w3.org/2000/svg">
<g clip-path="url(#clip0_3219_10216)">
<rect width="24" height="24" fill="white"/>
<path d="M12.0005 22C10.1672 22 8.48382 21.5583 6.95049 20.675C5.41716 19.7917 4.20882 18.5833 3.32549 17.05C2.44216 15.5167 2.00049 13.8333 2.00049 12C2.00049 10.1667 2.44216 8.48333 3.32549 6.95C4.20882 5.41667 5.41716 4.20833 6.95049 3.325C8.48382 2.44167 10.1672 2 12.0005 2C13.8338 2 15.5172 2.44167 17.0505 3.325C18.5838 4.20833 19.7922 5.41667 20.6755 6.95C21.5588 8.48333 22.0005 10.1667 22.0005 12C22.0005 13.8333 21.5588 15.5167 20.6755 17.05C19.7922 18.5833 18.5838 19.7917 17.0505 20.675C15.5172 21.5583 13.8338 22 12.0005 22ZM12.0005 19.075C13.3005 19.075 14.4838 18.7667 15.5505 18.15C16.6338 17.5167 17.4838 16.6583 18.1005 15.575C18.7172 14.4917 19.0255 13.3 19.0255 12C19.0255 10.7 18.7172 9.50833 18.1005 8.425C17.4838 7.34167 16.6338 6.49167 15.5505 5.875C14.4838 5.24167 13.3005 4.925 12.0005 4.925C10.7005 4.925 9.50882 5.24167 8.42549 5.875C7.35882 6.49167 6.51716 7.34167 5.90049 8.425C5.28382 9.50833 4.97549 10.7 4.97549 12C4.97549 13.3 5.28382 14.4917 5.90049 15.575C6.51716 16.6583 7.35882 17.5167 8.42549 18.15C9.50882 18.7667 10.7005 19.075 12.0005 19.075ZM12.0005 13.75C12.4672 13.75 12.8505 13.5917 13.1505 13.275C13.4672 12.9417 13.6255 12.5167 13.6255 12C13.6255 11.4833 13.4672 11.0667 13.1505 10.75C12.8505 10.4167 12.4672 10.25 12.0005 10.25C11.5338 10.25 11.1422 10.4167 10.8255 10.75C10.5255 11.0667 10.3755 11.4833 10.3755 12C10.3755 12.5167 10.5255 12.9417 10.8255 13.275C11.1422 13.5917 11.5338 13.75 12.0005 13.75ZM16.2255 13.75C16.6922 13.75 17.0755 13.5917 17.3755 13.275C17.6922 12.9417 17.8505 12.5167 17.8505 12C17.8505 11.4833 17.6922 11.0667 17.3755 10.75C17.0755 10.4167 16.6922 10.25 16.2255 10.25C15.7588 10.25 15.3755 10.4167 15.0755 10.75C14.7755 11.0667 14.6255 11.4833 14.6255 12C14.6255 12.5167 14.7755 12.9417 15.0755 13.275C15.3755 13.5917 15.7588 13.75 16.2255 13.75ZM7.77549 13.75C8.24216 13.75 8.62549 13.5917 8.92549 13.275C9.22549 12.9417 9.37549 12.5167 9.37549 12C9.37549 11.4833 9.22549 11.0667 8.92549 10.75C8.62549 10.4167 8.24216 10.25 7.77549 10.25C7.29216 10.25 6.90049 10.4167 6.60049 10.75C6.30049 11.0667 6.15049 11.4833 6.15049 12C6.15049 12.5167 6.30049 12.9417 6.60049 13.275C6.90049 13.5917 7.29216 13.75 7.77549 13.75Z" fill="black"/>
</g>
<defs>
<clipPath id="clip0_3219_10216">
<rect width="24" height="24" fill="white"/>
</clipPath>
</defs>
</svg>
