<svg width="24" height="24" viewBox="0 0 24 24" fill="none" xmlns="http://www.w3.org/2000/svg">
<g clip-path="url(#clip0_3218_7158)">
<rect width="24" height="24" fill="white"/>
<path d="M14.125 4.125C14.125 4.725 13.9167 5.23333 13.5 5.65C13.1 6.05 12.6 6.25 12 6.25C11.4 6.25 10.8917 6.05 10.475 5.65C10.075 5.23333 9.875 4.725 9.875 4.125C9.875 3.525 10.075 3.025 10.475 2.625C10.8917 2.20833 11.4 2 12 2C12.6 2 13.1 2.20833 13.5 2.625C13.9167 3.025 14.125 3.525 14.125 4.125ZM14.125 19.875C14.125 20.475 13.9167 20.975 13.5 21.375C13.1 21.7917 12.6 22 12 22C11.4 22 10.8917 21.7917 10.475 21.375C10.075 20.975 9.875 20.475 9.875 19.875C9.875 19.275 10.075 18.775 10.475 18.375C10.8917 17.9583 11.4 17.75 12 17.75C12.6 17.75 13.1 17.9583 13.5 18.375C13.9167 18.775 14.125 19.275 14.125 19.875ZM12.925 19.875C12.925 20.175 12.8333 20.4333 12.65 20.65C12.4667 20.85 12.25 20.9667 12 21C11.75 20.9667 11.5333 20.85 11.35 20.65C11.1667 20.4333 11.075 20.175 11.075 19.875C11.075 19.575 11.1667 19.325 11.35 19.125C11.5333 18.9083 11.75 18.7833 12 18.75C12.25 18.7833 12.4667 18.9083 12.65 19.125C12.8333 19.325 12.925 19.575 12.925 19.875ZM14.125 12C14.125 12.6 13.9167 13.1083 13.5 13.525C13.1 13.925 12.6 14.125 12 14.125C11.4 14.125 10.8917 13.925 10.475 13.525C10.075 13.1083 9.875 12.6 9.875 12C9.875 11.4 10.075 10.9 10.475 10.5C10.8917 10.0833 11.4 9.875 12 9.875C12.6 9.875 13.1 10.0833 13.5 10.5C13.9167 10.9 14.125 11.4 14.125 12ZM12.6 12C12.6 12.2167 12.5417 12.4 12.425 12.55C12.3083 12.6833 12.1667 12.775 12 12.825C11.8333 12.775 11.6917 12.6833 11.575 12.55C11.4583 12.4 11.4 12.2167 11.4 12C11.4 11.7833 11.4583 11.6083 11.575 11.475C11.6917 11.325 11.8333 11.225 12 11.175C12.1667 11.225 12.3083 11.325 12.425 11.475C12.5417 11.6083 12.6 11.7833 12.6 12ZM12.525 4.125C12.525 4.30833 12.475 4.45833 12.375 4.575C12.275 4.69167 12.15 4.76667 12 4.8C11.85 4.76667 11.725 4.69167 11.625 4.575C11.525 4.45833 11.475 4.30833 11.475 4.125C11.475 3.94167 11.525 3.79167 11.625 3.675C11.725 3.55833 11.85 3.48333 12 3.45C12.15 3.48333 12.275 3.55833 12.375 3.675C12.475 3.79167 12.525 3.94167 12.525 4.125Z" fill="black"/>
</g>
<defs>
<clipPath id="clip0_3218_7158">
<rect width="24" height="24" fill="white"/>
</clipPath>
</defs>
</svg>
