<svg width="24" height="24" viewBox="0 0 24 24" fill="none" xmlns="http://www.w3.org/2000/svg">
<g clip-path="url(#clip0_3257_20557)">
<rect width="24" height="24" fill="white"/>
<path d="M20.675 6.95C21.5583 8.48333 22 10.1667 22 12C22 13.8333 21.5583 15.5167 20.675 17.05C19.7917 18.5833 18.5833 19.7917 17.05 20.675C15.5167 21.5583 13.8333 22 12 22C10.1667 22 8.48333 21.5583 6.95 20.675C5.41667 19.7917 4.20833 18.5833 3.325 17.05C2.44167 15.5167 2 13.8333 2 12C2 10.1667 2.44167 8.48333 3.325 6.95C4.20833 5.41667 5.41667 4.20833 6.95 3.325C8.48333 2.44167 10.1667 2 12 2C13.8333 2 15.5167 2.44167 17.05 3.325C18.5833 4.20833 19.7917 5.41667 20.675 6.95ZM12.55 12.575C12.7167 12.4083 12.8 12.2167 12.8 12C12.8 11.7833 12.7167 11.6 12.55 11.45C12.4 11.2833 12.2167 11.2 12 11.2C11.7833 11.2 11.5917 11.2833 11.425 11.45C11.275 11.6 11.2 11.7833 11.2 12C11.2 12.2167 11.275 12.4083 11.425 12.575C11.5917 12.725 11.7833 12.8 12 12.8C12.2167 12.8 12.4 12.725 12.55 12.575ZM12.55 7.525C12.7167 7.35833 12.8 7.175 12.8 6.975C12.8 6.74167 12.7167 6.55 12.55 6.4C12.4 6.25 12.2167 6.175 12 6.175C11.7833 6.175 11.5917 6.25 11.425 6.4C11.275 6.55 11.2 6.74167 11.2 6.975C11.2 7.19167 11.275 7.375 11.425 7.525C11.5917 7.675 11.7833 7.75 12 7.75C12.2167 7.75 12.4 7.675 12.55 7.525ZM12.55 17.675C12.7167 17.5083 12.8 17.325 12.8 17.125C12.8 16.8917 12.7167 16.7 12.55 16.55C12.4 16.4 12.2167 16.325 12 16.325C11.7833 16.325 11.5917 16.4 11.425 16.55C11.275 16.7 11.2 16.8917 11.2 17.125C11.2 17.3417 11.275 17.525 11.425 17.675C11.5917 17.825 11.7833 17.9 12 17.9C12.2167 17.9 12.4 17.825 12.55 17.675Z" fill="black"/>
</g>
<defs>
<clipPath id="clip0_3257_20557">
<rect width="24" height="24" fill="white"/>
</clipPath>
</defs>
</svg>
