<svg width="24" height="24" viewBox="0 0 24 24" fill="none" xmlns="http://www.w3.org/2000/svg">
<g clip-path="url(#clip0_3336_10592)">
<rect width="24" height="24" fill="white"/>
<path d="M17.05 20.675C15.5167 21.5583 13.8333 22 12 22C10.1667 22 8.48333 21.5583 6.95 20.675C5.41667 19.7917 4.20833 18.5833 3.325 17.05C2.44167 15.5167 2 13.8333 2 12C2 10.1667 2.44167 8.48333 3.325 6.95C4.20833 5.41667 5.41667 4.20833 6.95 3.325C8.48333 2.44167 10.1667 2 12 2C13.8333 2 15.5167 2.44167 17.05 3.325C18.5833 4.20833 19.7917 5.41667 20.675 6.95C21.5583 8.48333 22 10.1667 22 12C22 13.8333 21.5583 15.5167 20.675 17.05C19.7917 18.5833 18.5833 19.7917 17.05 20.675ZM11.025 12.975C11.3083 13.2417 11.6333 13.375 12 13.375C12.3833 13.375 12.7083 13.2417 12.975 12.975C13.2417 12.7083 13.375 12.3833 13.375 12C13.375 11.6167 13.2417 11.2917 12.975 11.025C12.7083 10.7583 12.3833 10.625 12 10.625C11.6167 10.625 11.2917 10.7583 11.025 11.025C10.7583 11.2917 10.625 11.6167 10.625 12C10.625 12.3667 10.7583 12.6917 11.025 12.975ZM16.125 12.975C16.4083 13.2417 16.7333 13.375 17.1 13.375C17.4833 13.375 17.8083 13.2417 18.075 12.975C18.3417 12.7083 18.475 12.3833 18.475 12C18.475 11.6167 18.3417 11.2917 18.075 11.025C17.8083 10.7583 17.4833 10.625 17.1 10.625C16.7167 10.625 16.3917 10.7583 16.125 11.025C15.8583 11.2917 15.725 11.6167 15.725 12C15.725 12.3667 15.8583 12.6917 16.125 12.975ZM5.675 12.975C5.95833 13.2417 6.28333 13.375 6.65 13.375C7.03333 13.375 7.35833 13.2417 7.625 12.975C7.89167 12.7083 8.025 12.3833 8.025 12C8.025 11.6167 7.89167 11.2917 7.625 11.025C7.35833 10.7583 7.03333 10.625 6.65 10.625C6.26667 10.625 5.94167 10.7583 5.675 11.025C5.40833 11.2917 5.275 11.6167 5.275 12C5.275 12.3667 5.40833 12.6917 5.675 12.975Z" fill="black"/>
</g>
<defs>
<clipPath id="clip0_3336_10592">
<rect width="24" height="24" fill="white"/>
</clipPath>
</defs>
</svg>
