<svg width="24" height="24" viewBox="0 0 24 24" fill="none" xmlns="http://www.w3.org/2000/svg">
<g clip-path="url(#clip0_3218_7150)">
<rect width="24" height="24" fill="white"/>
<path d="M13.9 12C13.9 12.5333 13.7167 12.9917 13.35 13.375C12.9833 13.7417 12.5333 13.925 12 13.925C11.4667 13.925 11.0167 13.7417 10.65 13.375C10.2833 12.9917 10.1 12.5333 10.1 12C10.1 11.4667 10.2833 11.0167 10.65 10.65C11.0167 10.2667 11.4667 10.075 12 10.075C12.5333 10.075 12.9833 10.2667 13.35 10.65C13.7167 11.0167 13.9 11.4667 13.9 12ZM13.075 12C13.075 11.7 12.9667 11.45 12.75 11.25C12.55 11.0333 12.3 10.925 12 10.925C11.7 10.925 11.4417 11.0333 11.225 11.25C11.025 11.45 10.925 11.7 10.925 12C10.925 12.3 11.025 12.5583 11.225 12.775C11.4417 12.975 11.7 13.075 12 13.075C12.3 13.075 12.55 12.975 12.75 12.775C12.9667 12.5583 13.075 12.3 13.075 12ZM13.9 3.925C13.9 4.45833 13.7167 4.90833 13.35 5.275C12.9833 5.64167 12.5333 5.825 12 5.825C11.4667 5.825 11.0167 5.64167 10.65 5.275C10.2833 4.90833 10.1 4.45833 10.1 3.925C10.1 3.375 10.2833 2.91667 10.65 2.55C11.0167 2.18333 11.4667 2 12 2C12.5333 2 12.9833 2.18333 13.35 2.55C13.7167 2.91667 13.9 3.375 13.9 3.925ZM13.075 3.9C13.075 3.6 12.9667 3.35 12.75 3.15C12.55 2.93333 12.3 2.825 12 2.825C11.7 2.825 11.4417 2.93333 11.225 3.15C11.025 3.36667 10.925 3.625 10.925 3.925C10.925 4.20833 11.025 4.45833 11.225 4.675C11.4417 4.89167 11.7 5 12 5C12.3 5 12.55 4.89167 12.75 4.675C12.9667 4.45833 13.075 4.2 13.075 3.9ZM13.9 20.075C13.9 20.625 13.7167 21.0833 13.35 21.45C12.9833 21.8167 12.5333 22 12 22C11.4667 22 11.0167 21.8167 10.65 21.45C10.2833 21.0833 10.1 20.625 10.1 20.075C10.1 19.5417 10.2833 19.0917 10.65 18.725C11.0167 18.3583 11.4667 18.175 12 18.175C12.5333 18.175 12.9833 18.3583 13.35 18.725C13.7167 19.0917 13.9 19.5417 13.9 20.075ZM13.075 20.075C13.075 19.775 12.9667 19.525 12.75 19.325C12.55 19.1083 12.3 19 12 19C11.7 19 11.4417 19.1083 11.225 19.325C11.025 19.525 10.925 19.775 10.925 20.075C10.925 20.375 11.025 20.6333 11.225 20.85C11.4417 21.0667 11.7 21.175 12 21.175C12.3 21.175 12.55 21.0667 12.75 20.85C12.9667 20.6333 13.075 20.375 13.075 20.075Z" fill="black"/>
</g>
<defs>
<clipPath id="clip0_3218_7150">
<rect width="24" height="24" fill="white"/>
</clipPath>
</defs>
</svg>
