<svg width="24" height="24" viewBox="0 0 24 24" fill="none" xmlns="http://www.w3.org/2000/svg">
<g clip-path="url(#clip0_3217_5216)">
<rect width="24" height="24" fill="white"/>
<path d="M13.7255 12C13.7255 12.4833 13.5588 12.9 13.2255 13.25C12.8922 13.5833 12.4838 13.75 12.0005 13.75C11.5172 13.75 11.1088 13.5833 10.7755 13.25C10.4422 12.9 10.2755 12.4833 10.2755 12C10.2755 11.5167 10.4422 11.1083 10.7755 10.775C11.1088 10.425 11.5172 10.25 12.0005 10.25C12.4838 10.25 12.8922 10.425 13.2255 10.775C13.5588 11.1083 13.7255 11.5167 13.7255 12ZM13.2505 12C13.2505 11.65 13.1255 11.3583 12.8755 11.125C12.6422 10.875 12.3505 10.75 12.0005 10.75C11.6505 10.75 11.3505 10.875 11.1005 11.125C10.8672 11.3583 10.7505 11.65 10.7505 12C10.7505 12.35 10.8672 12.65 11.1005 12.9C11.3505 13.1333 11.6505 13.25 12.0005 13.25C12.3505 13.25 12.6422 13.1333 12.8755 12.9C13.1255 12.65 13.2505 12.35 13.2505 12ZM13.7255 3.75C13.7255 4.23333 13.5588 4.65 13.2255 5C12.8922 5.33333 12.4838 5.5 12.0005 5.5C11.5172 5.5 11.1088 5.33333 10.7755 5C10.4422 4.65 10.2755 4.23333 10.2755 3.75C10.2755 3.26667 10.4422 2.85833 10.7755 2.525C11.1088 2.175 11.5172 2 12.0005 2C12.4838 2 12.8922 2.175 13.2255 2.525C13.5588 2.85833 13.7255 3.26667 13.7255 3.75ZM13.2505 3.75C13.2505 3.4 13.1255 3.10833 12.8755 2.875C12.6422 2.625 12.3505 2.5 12.0005 2.5C11.6505 2.5 11.3505 2.625 11.1005 2.875C10.8672 3.10833 10.7505 3.4 10.7505 3.75C10.7505 4.1 10.8672 4.4 11.1005 4.65C11.3505 4.88333 11.6505 5 12.0005 5C12.3505 5 12.6422 4.88333 12.8755 4.65C13.1255 4.4 13.2505 4.1 13.2505 3.75ZM13.7255 20.25C13.7255 20.7333 13.5588 21.1417 13.2255 21.475C12.8922 21.825 12.4838 22 12.0005 22C11.5172 22 11.1088 21.825 10.7755 21.475C10.4422 21.1417 10.2755 20.7333 10.2755 20.25C10.2755 19.7667 10.4422 19.3583 10.7755 19.025C11.1088 18.675 11.5172 18.5 12.0005 18.5C12.4838 18.5 12.8922 18.675 13.2255 19.025C13.5588 19.3583 13.7255 19.7667 13.7255 20.25ZM13.2505 20.25C13.2505 19.9 13.1255 19.6083 12.8755 19.375C12.6422 19.125 12.3505 19 12.0005 19C11.6505 19 11.3505 19.125 11.1005 19.375C10.8672 19.6083 10.7505 19.9 10.7505 20.25C10.7505 20.6 10.8672 20.8917 11.1005 21.125C11.3505 21.375 11.6505 21.5 12.0005 21.5C12.3505 21.5 12.6422 21.375 12.8755 21.125C13.1255 20.8917 13.2505 20.6 13.2505 20.25Z" fill="black"/>
</g>
<defs>
<clipPath id="clip0_3217_5216">
<rect width="24" height="24" fill="white"/>
</clipPath>
</defs>
</svg>
