<svg width="24" height="24" viewBox="0 0 24 24" fill="none" xmlns="http://www.w3.org/2000/svg">
<g clip-path="url(#clip0_3218_7144)">
<rect width="24" height="24" fill="white"/>
<path d="M14.1255 4.125C14.1255 4.725 13.9172 5.23333 13.5005 5.65C13.1005 6.05 12.6005 6.25 12.0005 6.25C11.4005 6.25 10.8922 6.05 10.4755 5.65C10.0755 5.23333 9.87549 4.725 9.87549 4.125C9.87549 3.525 10.0755 3.025 10.4755 2.625C10.8922 2.20833 11.4005 2 12.0005 2C12.6005 2 13.1005 2.20833 13.5005 2.625C13.9172 3.025 14.1255 3.525 14.1255 4.125ZM14.1255 19.875C14.1255 20.475 13.9172 20.975 13.5005 21.375C13.1005 21.7917 12.6005 22 12.0005 22C11.4005 22 10.8922 21.7917 10.4755 21.375C10.0755 20.975 9.87549 20.475 9.87549 19.875C9.87549 19.275 10.0755 18.775 10.4755 18.375C10.8922 17.9583 11.4005 17.75 12.0005 17.75C12.6005 17.75 13.1005 17.9583 13.5005 18.375C13.9172 18.775 14.1255 19.275 14.1255 19.875ZM12.9255 19.875C12.9255 20.175 12.8338 20.4333 12.6505 20.65C12.4672 20.85 12.2505 20.9667 12.0005 21C11.7505 20.9667 11.5338 20.85 11.3505 20.65C11.1672 20.4333 11.0755 20.175 11.0755 19.875C11.0755 19.575 11.1672 19.325 11.3505 19.125C11.5338 18.9083 11.7505 18.7833 12.0005 18.75C12.2505 18.7833 12.4672 18.9083 12.6505 19.125C12.8338 19.325 12.9255 19.575 12.9255 19.875ZM14.1255 12C14.1255 12.6 13.9172 13.1083 13.5005 13.525C13.1005 13.925 12.6005 14.125 12.0005 14.125C11.4005 14.125 10.8922 13.925 10.4755 13.525C10.0755 13.1083 9.87549 12.6 9.87549 12C9.87549 11.4 10.0755 10.9 10.4755 10.5C10.8922 10.0833 11.4005 9.875 12.0005 9.875C12.6005 9.875 13.1005 10.0833 13.5005 10.5C13.9172 10.9 14.1255 11.4 14.1255 12ZM12.6005 12C12.6005 12.2167 12.5422 12.4 12.4255 12.55C12.3088 12.6833 12.1672 12.775 12.0005 12.825C11.8338 12.775 11.6922 12.6833 11.5755 12.55C11.4588 12.4 11.4005 12.2167 11.4005 12C11.4005 11.7833 11.4588 11.6083 11.5755 11.475C11.6922 11.325 11.8338 11.225 12.0005 11.175C12.1672 11.225 12.3088 11.325 12.4255 11.475C12.5422 11.6083 12.6005 11.7833 12.6005 12ZM12.5255 4.125C12.5255 4.30833 12.4755 4.45833 12.3755 4.575C12.2755 4.69167 12.1505 4.76667 12.0005 4.8C11.8505 4.76667 11.7255 4.69167 11.6255 4.575C11.5255 4.45833 11.4755 4.30833 11.4755 4.125C11.4755 3.94167 11.5255 3.79167 11.6255 3.675C11.7255 3.55833 11.8505 3.48333 12.0005 3.45C12.1505 3.48333 12.2755 3.55833 12.3755 3.675C12.4755 3.79167 12.5255 3.94167 12.5255 4.125Z" fill="black"/>
</g>
<defs>
<clipPath id="clip0_3218_7144">
<rect width="24" height="24" fill="white"/>
</clipPath>
</defs>
</svg>
