<svg width="24" height="24" viewBox="0 0 24 24" fill="none" xmlns="http://www.w3.org/2000/svg">
<g clip-path="url(#clip0_3219_9904)">
<rect width="24" height="24" fill="white"/>
<path d="M19.8755 14.125C19.2755 14.125 18.7672 13.925 18.3505 13.525C17.9505 13.1083 17.7505 12.6 17.7505 12C17.7505 11.4 17.9505 10.9 18.3505 10.5C18.7672 10.0833 19.2755 9.875 19.8755 9.875C20.4755 9.875 20.9755 10.0833 21.3755 10.5C21.7922 10.9 22.0005 11.4 22.0005 12C22.0005 12.6 21.7922 13.1083 21.3755 13.525C20.9755 13.925 20.4755 14.125 19.8755 14.125ZM4.12549 14.125C3.52549 14.125 3.01716 13.925 2.60049 13.525C2.20049 13.1083 2.00049 12.6 2.00049 12C2.00049 11.4 2.20049 10.9 2.60049 10.5C3.01716 10.0833 3.52549 9.875 4.12549 9.875C4.72549 9.875 5.22549 10.0833 5.62549 10.5C6.04216 10.9 6.25049 11.4 6.25049 12C6.25049 12.6 6.04216 13.1083 5.62549 13.525C5.22549 13.925 4.72549 14.125 4.12549 14.125ZM4.12549 12.925C3.82549 12.925 3.56715 12.8333 3.35049 12.65C3.15049 12.4667 3.03382 12.25 3.00049 12C3.03382 11.75 3.15049 11.5333 3.35049 11.35C3.56715 11.1667 3.82549 11.075 4.12549 11.075C4.42549 11.075 4.67549 11.1667 4.87549 11.35C5.09216 11.5333 5.21716 11.75 5.25049 12C5.21716 12.25 5.09216 12.4667 4.87549 12.65C4.67549 12.8333 4.42549 12.925 4.12549 12.925ZM12.0005 14.125C11.4005 14.125 10.8922 13.925 10.4755 13.525C10.0755 13.1083 9.87549 12.6 9.87549 12C9.87549 11.4 10.0755 10.9 10.4755 10.5C10.8922 10.0833 11.4005 9.875 12.0005 9.875C12.6005 9.875 13.1005 10.0833 13.5005 10.5C13.9172 10.9 14.1255 11.4 14.1255 12C14.1255 12.6 13.9172 13.1083 13.5005 13.525C13.1005 13.925 12.6005 14.125 12.0005 14.125ZM12.0005 12.6C11.7838 12.6 11.6005 12.5417 11.4505 12.425C11.3172 12.3083 11.2255 12.1667 11.1755 12C11.2255 11.8333 11.3172 11.6917 11.4505 11.575C11.6005 11.4583 11.7838 11.4 12.0005 11.4C12.2172 11.4 12.3922 11.4583 12.5255 11.575C12.6755 11.6917 12.7755 11.8333 12.8255 12C12.7755 12.1667 12.6755 12.3083 12.5255 12.425C12.3922 12.5417 12.2172 12.6 12.0005 12.6ZM19.8755 12.525C19.6922 12.525 19.5422 12.475 19.4255 12.375C19.3088 12.275 19.2338 12.15 19.2005 12C19.2338 11.85 19.3088 11.725 19.4255 11.625C19.5422 11.525 19.6922 11.475 19.8755 11.475C20.0588 11.475 20.2088 11.525 20.3255 11.625C20.4422 11.725 20.5172 11.85 20.5505 12C20.5172 12.15 20.4422 12.275 20.3255 12.375C20.2088 12.475 20.0588 12.525 19.8755 12.525Z" fill="black"/>
</g>
<defs>
<clipPath id="clip0_3219_9904">
<rect width="24" height="24" fill="white"/>
</clipPath>
</defs>
</svg>
