<svg width="24" height="24" viewBox="0 0 24 24" fill="none" xmlns="http://www.w3.org/2000/svg">
<g clip-path="url(#clip0_3218_7138)">
<rect width="24" height="24" fill="white"/>
<path d="M13.1255 3.125C13.1255 3.44167 13.0172 3.70833 12.8005 3.925C12.5838 4.14167 12.3172 4.25 12.0005 4.25C11.6838 4.25 11.4172 4.14167 11.2005 3.925C10.9838 3.70833 10.8755 3.44167 10.8755 3.125C10.8755 2.80833 10.9838 2.54167 11.2005 2.325C11.4172 2.10833 11.6838 2 12.0005 2C12.3172 2 12.5838 2.10833 12.8005 2.325C13.0172 2.54167 13.1255 2.80833 13.1255 3.125ZM13.1255 20.875C13.1255 21.1917 13.0172 21.4583 12.8005 21.675C12.5838 21.8917 12.3172 22 12.0005 22C11.6838 22 11.4172 21.8917 11.2005 21.675C10.9838 21.4583 10.8755 21.1917 10.8755 20.875C10.8755 20.5583 10.9838 20.2917 11.2005 20.075C11.4172 19.8583 11.6838 19.75 12.0005 19.75C12.3172 19.75 12.5838 19.8583 12.8005 20.075C13.0172 20.2917 13.1255 20.5583 13.1255 20.875ZM12.0005 20.875C12.0005 20.975 12.0005 21.05 12.0005 21.1C12.0005 21.1667 12.0005 21.25 12.0005 21.35C12.0005 21.25 12.0005 21.1667 12.0005 21.1C12.0005 21.05 12.0005 20.975 12.0005 20.875C12.0005 20.775 12.0005 20.7 12.0005 20.65C12.0005 20.5833 12.0005 20.5 12.0005 20.4C12.0005 20.5 12.0005 20.5833 12.0005 20.65C12.0005 20.7 12.0005 20.775 12.0005 20.875ZM13.1255 12C13.1255 12.3167 13.0172 12.5833 12.8005 12.8C12.5838 13.0167 12.3172 13.125 12.0005 13.125C11.6838 13.125 11.4172 13.0167 11.2005 12.8C10.9838 12.5833 10.8755 12.3167 10.8755 12C10.8755 11.6833 10.9838 11.4167 11.2005 11.2C11.4172 10.9833 11.6838 10.875 12.0005 10.875C12.3172 10.875 12.5838 10.9833 12.8005 11.2C13.0172 11.4167 13.1255 11.6833 13.1255 12ZM12.0005 12C12.0005 12.1167 12.0005 12.2083 12.0005 12.275C12.0005 12.325 12.0005 12.4083 12.0005 12.525C12.0005 12.4083 12.0005 12.325 12.0005 12.275C12.0005 12.2083 12.0005 12.1167 12.0005 12C12.0005 11.8833 12.0005 11.8 12.0005 11.75C12.0005 11.6833 12.0005 11.5917 12.0005 11.475C12.0005 11.5917 12.0005 11.6833 12.0005 11.75C12.0005 11.8 12.0005 11.8833 12.0005 12ZM12.0005 3.125C12.0005 3.20833 12.0005 3.275 12.0005 3.325C12.0005 3.35833 12.0005 3.425 12.0005 3.525C12.0005 3.425 12.0005 3.35833 12.0005 3.325C12.0005 3.275 12.0005 3.20833 12.0005 3.125C12.0005 3.04167 12.0005 2.98333 12.0005 2.95C12.0005 2.9 12.0005 2.825 12.0005 2.725C12.0005 2.825 12.0005 2.9 12.0005 2.95C12.0005 2.98333 12.0005 3.04167 12.0005 3.125Z" fill="black"/>
</g>
<defs>
<clipPath id="clip0_3218_7138">
<rect width="24" height="24" fill="white"/>
</clipPath>
</defs>
</svg>
