<svg width="24" height="24" viewBox="0 0 24 24" fill="none" xmlns="http://www.w3.org/2000/svg">
<g clip-path="url(#clip0_3218_7596)">
<rect width="24" height="24" fill="white"/>
<path d="M20.675 6.95C21.5583 8.48333 22 10.1667 22 12C22 13.8333 21.5583 15.5167 20.675 17.05C19.7917 18.5833 18.5833 19.7917 17.05 20.675C15.5167 21.5583 13.8333 22 12 22C10.1667 22 8.48333 21.5583 6.95 20.675C5.41667 19.7917 4.20833 18.5833 3.325 17.05C2.44167 15.5167 2 13.8333 2 12C2 10.1667 2.44167 8.48333 3.325 6.95C4.20833 5.41667 5.41667 4.20833 6.95 3.325C8.48333 2.44167 10.1667 2 12 2C13.8333 2 15.5167 2.44167 17.05 3.325C18.5833 4.20833 19.7917 5.41667 20.675 6.95ZM12.95 12.975C13.2333 12.6917 13.375 12.3667 13.375 12C13.375 11.6167 13.2417 11.2917 12.975 11.025C12.7083 10.7583 12.3833 10.625 12 10.625C11.6167 10.625 11.2917 10.7583 11.025 11.025C10.7583 11.2917 10.625 11.6167 10.625 12C10.625 12.3833 10.7583 12.7083 11.025 12.975C11.2917 13.2417 11.6167 13.375 12 13.375C12.3667 13.375 12.6833 13.2417 12.95 12.975ZM12.95 7.875C13.2333 7.59167 13.375 7.26667 13.375 6.9C13.375 6.51667 13.2417 6.19167 12.975 5.925C12.7083 5.65833 12.3833 5.525 12 5.525C11.6167 5.525 11.2917 5.65833 11.025 5.925C10.7583 6.19167 10.625 6.51667 10.625 6.9C10.625 7.28333 10.7583 7.60833 11.025 7.875C11.2917 8.14167 11.6167 8.275 12 8.275C12.3667 8.275 12.6833 8.14167 12.95 7.875ZM12.95 18.325C13.2333 18.0417 13.375 17.7167 13.375 17.35C13.375 16.9667 13.2417 16.6417 12.975 16.375C12.7083 16.1083 12.3833 15.975 12 15.975C11.6167 15.975 11.2917 16.1083 11.025 16.375C10.7583 16.6417 10.625 16.9667 10.625 17.35C10.625 17.7333 10.7583 18.0583 11.025 18.325C11.2917 18.5917 11.6167 18.725 12 18.725C12.3667 18.725 12.6833 18.5917 12.95 18.325Z" fill="black"/>
</g>
<defs>
<clipPath id="clip0_3218_7596">
<rect width="24" height="24" fill="white"/>
</clipPath>
</defs>
</svg>
