<svg width="24" height="24" viewBox="0 0 24 24" fill="none" xmlns="http://www.w3.org/2000/svg">
<g clip-path="url(#clip0_3218_7146)">
<rect width="24" height="24" fill="white"/>
<path d="M14.5005 4.5C14.5005 5.21667 14.2588 5.81667 13.7755 6.3C13.3088 6.76667 12.7172 7 12.0005 7C11.3005 7 10.7088 6.76667 10.2255 6.3C9.74216 5.81667 9.50049 5.21667 9.50049 4.5C9.50049 3.8 9.74216 3.20833 10.2255 2.725C10.7088 2.24167 11.3005 2 12.0005 2C12.7172 2 13.3088 2.24167 13.7755 2.725C14.2588 3.20833 14.5005 3.8 14.5005 4.5ZM14.5005 19.5C14.5005 20.2167 14.2588 20.8083 13.7755 21.275C13.3088 21.7583 12.7172 22 12.0005 22C11.3005 22 10.7088 21.7583 10.2255 21.275C9.74216 20.8083 9.50049 20.2167 9.50049 19.5C9.50049 18.8 9.74216 18.2083 10.2255 17.725C10.7088 17.2417 11.3005 17 12.0005 17C12.7172 17 13.3088 17.2417 13.7755 17.725C14.2588 18.2083 14.5005 18.8 14.5005 19.5ZM13.4005 19.5C13.4005 19.8833 13.2588 20.2167 12.9755 20.5C12.7088 20.7667 12.3838 20.9 12.0005 20.9C11.6172 20.9 11.2838 20.7667 11.0005 20.5C10.7338 20.2167 10.6005 19.8833 10.6005 19.5C10.6005 19.1167 10.7338 18.7917 11.0005 18.525C11.2838 18.2417 11.6172 18.1 12.0005 18.1C12.3838 18.1 12.7088 18.2417 12.9755 18.525C13.2588 18.7917 13.4005 19.1167 13.4005 19.5ZM14.5005 12C14.5005 12.7167 14.2588 13.3167 13.7755 13.8C13.3088 14.2667 12.7172 14.5 12.0005 14.5C11.3005 14.5 10.7088 14.2667 10.2255 13.8C9.74216 13.3167 9.50049 12.7167 9.50049 12C9.50049 11.3 9.74216 10.7083 10.2255 10.225C10.7088 9.74167 11.3005 9.5 12.0005 9.5C12.7172 9.5 13.3088 9.74167 13.7755 10.225C14.2588 10.7083 14.5005 11.3 14.5005 12ZM12.9005 12C12.9005 12.25 12.8088 12.4667 12.6255 12.65C12.4588 12.8167 12.2505 12.9 12.0005 12.9C11.7505 12.9 11.5338 12.8167 11.3505 12.65C11.1838 12.4667 11.1005 12.25 11.1005 12C11.1005 11.75 11.1838 11.5417 11.3505 11.375C11.5338 11.1917 11.7505 11.1 12.0005 11.1C12.2505 11.1 12.4588 11.1917 12.6255 11.375C12.8088 11.5417 12.9005 11.75 12.9005 12ZM12.7755 4.5C12.7755 4.71667 12.7005 4.9 12.5505 5.05C12.4005 5.2 12.2172 5.275 12.0005 5.275C11.7672 5.275 11.5755 5.2 11.4255 5.05C11.2922 4.9 11.2255 4.71667 11.2255 4.5C11.2255 4.26667 11.2922 4.08333 11.4255 3.95C11.5755 3.8 11.7672 3.725 12.0005 3.725C12.2172 3.725 12.4005 3.8 12.5505 3.95C12.7005 4.08333 12.7755 4.26667 12.7755 4.5Z" fill="black"/>
</g>
<defs>
<clipPath id="clip0_3218_7146">
<rect width="24" height="24" fill="white"/>
</clipPath>
</defs>
</svg>
