<svg width="24" height="24" viewBox="0 0 24 24" fill="none" xmlns="http://www.w3.org/2000/svg">
<g clip-path="url(#clip0_3219_9718)">
<rect width="24" height="24" fill="white"/>
<path d="M4.85049 4.8V19.2H19.1505V4.8H15.0005V3H21.0005V21H3.00049V3H9.00049V4.8H4.85049ZM9.95049 14C9.95049 14.5667 10.1505 15.05 10.5505 15.45C10.9505 15.85 11.4338 16.05 12.0005 16.05C12.5672 16.05 13.0505 15.85 13.4505 15.45C13.8505 15.05 14.0505 14.5667 14.0505 14H19.9005V15.8H14.3505L15.8255 14.075C15.8255 14.775 15.6505 15.4167 15.3005 16C14.9672 16.5667 14.5088 17.0167 13.9255 17.35C13.3422 17.6833 12.7005 17.85 12.0005 17.85C11.3005 17.85 10.6588 17.6833 10.0755 17.35C9.49216 17.0167 9.02549 16.5667 8.67549 16C8.34216 15.4167 8.17549 14.775 8.17549 14.075L9.65049 15.8H4.10049V14H9.95049ZM12.9255 3V9.9H11.0755V3H12.9255ZM12.0005 11.975L8.50049 8.475H11.5255H11.9755H12.4505H15.5005L12.0005 11.975Z" fill="black"/>
</g>
<defs>
<clipPath id="clip0_3219_9718">
<rect width="24" height="24" fill="white"/>
</clipPath>
</defs>
</svg>
