<svg width="24" height="24" viewBox="0 0 24 24" fill="none" xmlns="http://www.w3.org/2000/svg">
<g clip-path="url(#clip0_3364_4025)">
<rect width="24" height="24" fill="white"/>
<path d="M3.00049 15.55C3.80049 14.4333 4.33382 13.375 4.60049 12.375C4.86716 11.3583 5.00049 10.0667 5.00049 8.5C5.00049 7.15 5.29216 5.94167 5.87549 4.875C6.47549 3.80833 7.30882 2.98333 8.37549 2.4C9.44216 1.8 10.6505 1.5 12.0005 1.5C13.3505 1.5 14.5588 1.8 15.6255 2.4C16.6922 2.98333 17.5172 3.80833 18.1005 4.875C18.7005 5.94167 19.0005 7.15 19.0005 8.5C19.0005 10.0667 19.1338 11.3583 19.4005 12.375C19.6672 13.375 20.2005 14.4333 21.0005 15.55V19H3.00049V15.55ZM12.0255 22.25C11.3422 22.25 10.7338 22.1 10.2005 21.8C9.66716 21.5167 9.25049 21.1167 8.95049 20.6C8.65049 20.0667 8.50049 19.4667 8.50049 18.8V18H10.2755V18.8C10.2755 19.3167 10.4338 19.7417 10.7505 20.075C11.0838 20.3917 11.5088 20.55 12.0255 20.55C12.5422 20.55 12.9588 20.3917 13.2755 20.075C13.6088 19.7417 13.7755 19.3167 13.7755 18.8V18H15.5505V18.8C15.5505 19.4667 15.4005 20.0667 15.1005 20.6C14.8005 21.1167 14.3838 21.5167 13.8505 21.8C13.3172 22.1 12.7088 22.25 12.0255 22.25ZM19.1505 17.2V16.175C18.3838 14.9917 17.8588 13.8333 17.5755 12.7C17.2922 11.5667 17.1505 10.1667 17.1505 8.5C17.1505 7.5 16.9338 6.60833 16.5005 5.825C16.0672 5.025 15.4588 4.40833 14.6755 3.975C13.8922 3.525 13.0005 3.3 12.0005 3.3C11.0005 3.3 10.1088 3.525 9.32549 3.975C8.54216 4.40833 7.93382 5.025 7.50049 5.825C7.06716 6.60833 6.85049 7.5 6.85049 8.5C6.85049 10.15 6.70882 11.55 6.42549 12.7C6.14216 13.8333 5.60882 14.9917 4.82549 16.175V17.2H19.1505ZM8.50049 9.925H11.1255V7.275H12.8755V9.925H15.5005V11.575H12.8755V14.225H11.1255V11.575H8.50049V9.925Z" fill="black"/>
</g>
<defs>
<clipPath id="clip0_3364_4025">
<rect width="24" height="24" fill="white"/>
</clipPath>
</defs>
</svg>
