<svg width="24" height="24" viewBox="0 0 24 24" fill="none" xmlns="http://www.w3.org/2000/svg">
<g clip-path="url(#clip0_3364_4029)">
<rect width="24" height="24" fill="white"/>
<path d="M3.00049 14.825C3.70049 13.825 4.16716 12.85 4.40049 11.9C4.63382 10.9333 4.75049 9.8 4.75049 8.5C4.75049 7.15 5.05882 5.94167 5.67549 4.875C6.29216 3.80833 7.15049 2.98333 8.25049 2.4C9.35049 1.8 10.6005 1.5 12.0005 1.5C13.4005 1.5 14.6505 1.8 15.7505 2.4C16.8505 2.98333 17.7088 3.80833 18.3255 4.875C18.9422 5.94167 19.2505 7.15 19.2505 8.5C19.2505 9.8 19.3672 10.9333 19.6005 11.9C19.8338 12.85 20.3005 13.825 21.0005 14.825V19.5H3.00049V14.825ZM12.0255 22.25C11.6588 22.25 11.3172 22.1667 11.0005 22C10.6838 21.8333 10.4338 21.6 10.2505 21.3C10.0672 21.0167 9.97549 20.7083 9.97549 20.375V18.775H10.6755H11.0005C11.2338 18.775 11.4088 18.775 11.5255 18.775C11.6422 18.775 11.8088 18.775 12.0255 18.775C12.2588 18.775 12.4338 18.775 12.5505 18.775C12.6672 18.775 12.8338 18.775 13.0505 18.775H13.3755H14.0755V20.375C14.0755 20.7083 13.9838 21.0167 13.8005 21.3C13.6172 21.6 13.3672 21.8333 13.0505 22C12.7338 22.1667 12.3922 22.25 12.0255 22.25ZM18.1755 16.725V15.6C17.4922 14.5167 17.0255 13.4333 16.7755 12.35C16.5422 11.2667 16.4255 9.98333 16.4255 8.5C16.4255 7.68333 16.2338 6.95833 15.8505 6.325C15.4838 5.675 14.9588 5.175 14.2755 4.825C13.6088 4.45833 12.8505 4.275 12.0005 4.275C11.1505 4.275 10.3922 4.45833 9.72549 4.825C9.05882 5.175 8.53382 5.675 8.15049 6.325C7.78382 6.95833 7.60049 7.68333 7.60049 8.5C7.60049 9.96667 7.47549 11.25 7.22549 12.35C6.97549 13.4333 6.50882 14.5167 5.82549 15.6V16.725H18.1755ZM8.32549 9.5H10.5005V7.275H13.5005V9.5H15.6755V12.35H13.5005V14.575H10.5005V12.35H8.32549V9.5Z" fill="black"/>
</g>
<defs>
<clipPath id="clip0_3364_4029">
<rect width="24" height="24" fill="white"/>
</clipPath>
</defs>
</svg>
