<svg width="24" height="24" viewBox="0 0 24 24" fill="none" xmlns="http://www.w3.org/2000/svg">
<g clip-path="url(#clip0_3218_6596)">
<rect width="24" height="24" fill="white"/>
<path d="M3.00049 14.875C3.78382 13.7917 4.30882 12.7583 4.57549 11.775C4.85882 10.775 5.00049 9.68333 5.00049 8.5C5.00049 7.15 5.29216 5.94167 5.87549 4.875C6.47549 3.80833 7.30882 2.98333 8.37549 2.4C9.44216 1.8 10.6505 1.5 12.0005 1.5C13.3505 1.5 14.5588 1.8 15.6255 2.4C16.6922 2.98333 17.5172 3.80833 18.1005 4.875C18.7005 5.94167 19.0005 7.15 19.0005 8.5C19.0005 9.68333 19.1338 10.775 19.4005 11.775C19.6838 12.7583 20.2172 13.7917 21.0005 14.875V19H3.00049V14.875ZM12.0255 22.25C11.3255 22.25 10.6922 22.1 10.1255 21.8C9.57549 21.5 9.14216 21.0833 8.82549 20.55C8.50882 20.0167 8.35049 19.425 8.35049 18.775V17.975H10.4005V18.775C10.4005 19.2083 10.5505 19.5667 10.8505 19.85C11.1505 20.1167 11.5422 20.25 12.0255 20.25C12.5088 20.25 12.9005 20.1167 13.2005 19.85C13.5005 19.5667 13.6505 19.2083 13.6505 18.775V17.975H15.7005V18.775C15.7005 19.425 15.5422 20.0167 15.2255 20.55C14.9088 21.0833 14.4672 21.5 13.9005 21.8C13.3505 22.1 12.7255 22.25 12.0255 22.25ZM18.7255 16.775V15.575C17.9588 14.4083 17.4338 13.2667 17.1505 12.15C16.8672 11.0167 16.7255 9.8 16.7255 8.5C16.7255 7.58333 16.5255 6.76667 16.1255 6.05C15.7255 5.31667 15.1672 4.75 14.4505 4.35C13.7338 3.93333 12.9172 3.725 12.0005 3.725C11.0838 3.725 10.2672 3.93333 9.55049 4.35C8.85049 4.75 8.30049 5.31667 7.90049 6.05C7.50049 6.76667 7.30049 7.58333 7.30049 8.5C7.30049 9.8 7.15049 11.0167 6.85049 12.15C6.56716 13.2667 6.04216 14.4083 5.27549 15.575V16.775H18.7255ZM10.1255 7.475L12.0005 9.425L13.8505 7.475L15.3255 8.95L13.3755 10.825L15.3255 12.7L13.8505 14.175L12.0005 12.225L10.1255 14.175L8.65049 12.675L10.6005 10.825L8.65049 8.975L10.1255 7.475Z" fill="black"/>
</g>
<defs>
<clipPath id="clip0_3218_6596">
<rect width="24" height="24" fill="white"/>
</clipPath>
</defs>
</svg>
