<svg width="24" height="24" viewBox="0 0 24 24" fill="none" xmlns="http://www.w3.org/2000/svg">
<g clip-path="url(#clip0_3216_1640)">
<rect width="24" height="24" fill="white"/>
<path d="M5.50049 17C4.66716 17 3.95882 16.7083 3.37549 16.125C2.79216 15.5417 2.50049 14.8333 2.50049 14V5.5C2.50049 4.66667 2.79216 3.95833 3.37549 3.375C3.95882 2.79167 4.66716 2.5 5.50049 2.5H14.0005C14.8338 2.5 15.5422 2.79167 16.1255 3.375C16.7088 3.95833 17.0005 4.66667 17.0005 5.5V14C17.0005 14.8333 16.7088 15.5417 16.1255 16.125C15.5422 16.7083 14.8338 17 14.0005 17H5.50049ZM14.0005 16.525C14.7005 16.525 15.2922 16.2833 15.7755 15.8C16.2588 15.3167 16.5005 14.7167 16.5005 14V5.5C16.5005 4.78333 16.2588 4.18333 15.7755 3.7C15.2922 3.21667 14.7005 2.975 14.0005 2.975H5.50049C4.80049 2.975 4.20882 3.21667 3.72549 3.7C3.24216 4.18333 3.00049 4.78333 3.00049 5.5V14C3.00049 14.7167 3.24216 15.3167 3.72549 15.8C4.20882 16.2833 4.80049 16.525 5.50049 16.525H14.0005ZM10.0005 21.5C9.16716 21.5 8.45882 21.2083 7.87549 20.625C7.29216 20.0417 7.00049 19.3333 7.00049 18.5V10C7.00049 9.16667 7.29216 8.45833 7.87549 7.875C8.45882 7.29167 9.16716 7 10.0005 7H18.5005C19.3338 7 20.0422 7.29167 20.6255 7.875C21.2088 8.45833 21.5005 9.16667 21.5005 10V18.5C21.5005 19.3333 21.2088 20.0417 20.6255 20.625C20.0422 21.2083 19.3338 21.5 18.5005 21.5H10.0005ZM18.5005 21.025C19.2005 21.025 19.7922 20.7833 20.2755 20.3C20.7588 19.8167 21.0005 19.2167 21.0005 18.5V10C21.0005 9.28333 20.7588 8.68333 20.2755 8.2C19.7922 7.71667 19.2005 7.475 18.5005 7.475H10.0005C9.30049 7.475 8.70882 7.71667 8.22549 8.2C7.74216 8.68333 7.50049 9.28333 7.50049 10V18.5C7.50049 19.2167 7.74216 19.8167 8.22549 20.3C8.70882 20.7833 9.30049 21.025 10.0005 21.025H18.5005ZM13.8255 7.075L14.1755 7.4L7.45049 14.125L7.10049 13.8L13.8255 7.075ZM16.6255 9.8L16.9755 10.125L10.2255 16.875L9.87549 16.55L16.6255 9.8Z" fill="black"/>
</g>
<defs>
<clipPath id="clip0_3216_1640">
<rect width="24" height="24" fill="white"/>
</clipPath>
</defs>
</svg>
