<svg width="24" height="24" viewBox="0 0 24 24" fill="none" xmlns="http://www.w3.org/2000/svg">
<g clip-path="url(#clip0_3216_3926)">
<rect width="24" height="24" fill="white"/>
<path d="M5.50049 17C4.66716 17 3.95882 16.7083 3.37549 16.125C2.79216 15.5417 2.50049 14.8333 2.50049 14V5.5C2.50049 4.66667 2.79216 3.95833 3.37549 3.375C3.95882 2.79167 4.66716 2.5 5.50049 2.5H14.0005C14.8338 2.5 15.5422 2.79167 16.1255 3.375C16.7088 3.95833 17.0005 4.66667 17.0005 5.5V14C17.0005 14.8333 16.7088 15.5417 16.1255 16.125C15.5422 16.7083 14.8338 17 14.0005 17H5.50049ZM14.0005 15.7C14.4838 15.7 14.8838 15.5417 15.2005 15.225C15.5172 14.9083 15.6755 14.5 15.6755 14V5.5C15.6755 5 15.5172 4.59167 15.2005 4.275C14.8838 3.95833 14.4838 3.8 14.0005 3.8H5.50049C5.01716 3.8 4.61716 3.95833 4.30049 4.275C3.98382 4.59167 3.82549 5 3.82549 5.5V14C3.82549 14.5 3.98382 14.9083 4.30049 15.225C4.61716 15.5417 5.01716 15.7 5.50049 15.7H14.0005ZM10.0005 21.5C9.16716 21.5 8.45882 21.2083 7.87549 20.625C7.29216 20.0417 7.00049 19.3333 7.00049 18.5V10C7.00049 9.16667 7.29216 8.45833 7.87549 7.875C8.45882 7.29167 9.16716 7 10.0005 7H18.5005C19.3338 7 20.0422 7.29167 20.6255 7.875C21.2088 8.45833 21.5005 9.16667 21.5005 10V18.5C21.5005 19.3333 21.2088 20.0417 20.6255 20.625C20.0422 21.2083 19.3338 21.5 18.5005 21.5H10.0005ZM18.5005 20.2C18.9838 20.2 19.3838 20.0417 19.7005 19.725C20.0172 19.4083 20.1755 19 20.1755 18.5V10C20.1755 9.5 20.0172 9.09167 19.7005 8.775C19.3838 8.45833 18.9838 8.3 18.5005 8.3H10.0005C9.51716 8.3 9.11716 8.45833 8.80049 8.775C8.48382 9.09167 8.32549 9.5 8.32549 10V18.5C8.32549 19 8.48382 19.4083 8.80049 19.725C9.11716 20.0417 9.51716 20.2 10.0005 20.2H18.5005ZM13.5005 7.25L14.3505 8.075L8.22549 14.2L7.37549 13.375L13.5005 7.25ZM15.9255 9.65L16.7755 10.475L10.6255 16.625L9.77549 15.8L15.9255 9.65Z" fill="black"/>
</g>
<defs>
<clipPath id="clip0_3216_3926">
<rect width="24" height="24" fill="white"/>
</clipPath>
</defs>
</svg>
