<svg width="24" height="24" viewBox="0 0 24 24" fill="none" xmlns="http://www.w3.org/2000/svg">
<g clip-path="url(#clip0_3216_3930)">
<rect width="24" height="24" fill="white"/>
<path d="M5.50049 17.3C4.66716 17.3 3.95882 17.0083 3.37549 16.425C2.79216 15.8417 2.50049 15.1333 2.50049 14.3V5.5C2.50049 4.66667 2.79216 3.95833 3.37549 3.375C3.95882 2.79167 4.66716 2.5 5.50049 2.5H14.3755C15.2088 2.5 15.9172 2.79167 16.5005 3.375C17.0838 3.95833 17.3755 4.66667 17.3755 5.5V14.3C17.3755 15.1333 17.0838 15.8417 16.5005 16.425C15.9172 17.0083 15.2088 17.3 14.3755 17.3H5.50049ZM14.3755 15.275C14.6422 15.275 14.8588 15.1833 15.0255 15C15.1922 14.8167 15.2755 14.5833 15.2755 14.3V5.5C15.2755 5.21667 15.1922 4.98333 15.0255 4.8C14.8588 4.61667 14.6422 4.525 14.3755 4.525H5.50049C5.23382 4.525 5.00882 4.61667 4.82549 4.8C4.65882 4.98333 4.57549 5.21667 4.57549 5.5V14.3C4.57549 14.5833 4.65882 14.8167 4.82549 15C5.00882 15.1833 5.23382 15.275 5.50049 15.275H14.3755ZM9.67549 21.475C8.84216 21.475 8.13382 21.1833 7.55049 20.6C6.96716 20.0167 6.67549 19.3083 6.67549 18.475V9.675C6.67549 8.84167 6.96716 8.13333 7.55049 7.55C8.13382 6.96667 8.84216 6.675 9.67549 6.675H18.5255C19.3588 6.675 20.0672 6.96667 20.6505 7.55C21.2338 8.13333 21.5255 8.84167 21.5255 9.675V18.475C21.5255 19.3083 21.2338 20.0167 20.6505 20.6C20.0672 21.1833 19.3588 21.475 18.5255 21.475H9.67549ZM18.5255 19.425C18.7922 19.425 19.0088 19.3417 19.1755 19.175C19.3588 18.9917 19.4505 18.7583 19.4505 18.475V9.675C19.4505 9.39167 19.3588 9.15833 19.1755 8.975C19.0088 8.79167 18.7922 8.7 18.5255 8.7H9.67549C9.39216 8.7 9.16716 8.79167 9.00049 8.975C8.83382 9.15833 8.75049 9.39167 8.75049 9.675V18.475C8.75049 18.7583 8.83382 18.9917 9.00049 19.175C9.16716 19.3417 9.39216 19.425 9.67549 19.425H18.5255ZM13.4755 6.9L14.8255 8.225L8.35049 14.725L6.97549 13.375L13.4755 6.9ZM15.7505 9.2L17.1005 10.525L10.6255 17.025L9.25049 15.675L15.7505 9.2Z" fill="black"/>
</g>
<defs>
<clipPath id="clip0_3216_3930">
<rect width="24" height="24" fill="white"/>
</clipPath>
</defs>
</svg>
