<svg width="24" height="24" viewBox="0 0 24 24" fill="none" xmlns="http://www.w3.org/2000/svg">
<g clip-path="url(#clip0_3216_3948)">
<rect width="24" height="24" fill="white"/>
<path d="M5.5 16.4C4.66667 16.4 3.95833 16.1083 3.375 15.525C2.79167 14.9417 2.5 14.2333 2.5 13.4V5.5C2.5 4.66667 2.79167 3.95833 3.375 3.375C3.95833 2.79167 4.66667 2.5 5.5 2.5H13.5C14.3333 2.5 15.0417 2.79167 15.625 3.375C16.2083 3.95833 16.5 4.66667 16.5 5.5V13.4C16.5 14.2333 16.2083 14.9417 15.625 15.525C15.0417 16.1083 14.3333 16.4 13.5 16.4H5.5ZM13.45 13.475C13.4667 13.475 13.4833 13.4667 13.5 13.45C13.5167 13.4333 13.525 13.4167 13.525 13.4V5.5C13.525 5.48333 13.5167 5.46667 13.5 5.45C13.4833 5.43333 13.4667 5.425 13.45 5.425H5.55C5.53333 5.425 5.51667 5.43333 5.5 5.45C5.48333 5.46667 5.475 5.48333 5.475 5.5V13.4C5.475 13.4167 5.48333 13.4333 5.5 13.45C5.51667 13.4667 5.53333 13.475 5.55 13.475H13.45ZM10.5 21.5C9.66667 21.5 8.95833 21.2083 8.375 20.625C7.79167 20.0417 7.5 19.3333 7.5 18.5V10C7.5 9.2 7.775 8.58333 8.325 8.15C8.89167 7.71667 9.61667 7.5 10.5 7.5H18.45C19.3333 7.5 20.0583 7.71667 20.625 8.15C21.2083 8.58333 21.5 9.2 21.5 10V18.5C21.5 19.3333 21.2083 20.0417 20.625 20.625C20.0417 21.2083 19.3333 21.5 18.5 21.5H10.5ZM18.45 18.575C18.4667 18.575 18.4833 18.5667 18.5 18.55C18.5167 18.5333 18.525 18.5167 18.525 18.5V10.5C18.525 10.4833 18.5167 10.4667 18.5 10.45C18.4833 10.4333 18.4667 10.425 18.45 10.425H10.55C10.5333 10.425 10.5167 10.4333 10.5 10.45C10.4833 10.4667 10.475 10.4833 10.475 10.5V18.5C10.475 18.5167 10.4833 18.5333 10.5 18.55C10.5167 18.5667 10.5333 18.575 10.55 18.575H18.45ZM16.225 13.425L15.825 14.85L14.775 15.8L13.575 16.125L7.825 16.1V10.925L7.775 9.9L8.75 8.325L10.5 7.7C10.5 7.71667 10.825 7.725 11.475 7.725C12.125 7.725 12.8417 7.725 13.625 7.725C14.225 7.70833 15.1083 7.7 16.275 7.7L16.225 13.425Z" fill="black"/>
</g>
<defs>
<clipPath id="clip0_3216_3948">
<rect width="24" height="24" fill="white"/>
</clipPath>
</defs>
</svg>
