<svg width="24" height="24" viewBox="0 0 24 24" fill="none" xmlns="http://www.w3.org/2000/svg">
<g clip-path="url(#clip0_3218_7562)">
<rect width="24" height="24" fill="white"/>
<path d="M7.50049 21C6.66716 21 5.90882 20.8 5.22549 20.4C4.54216 20 4.00049 19.4583 3.60049 18.775C3.20049 18.0917 3.00049 17.3333 3.00049 16.5V7.5C3.00049 6.66667 3.19216 5.90833 3.57549 5.225C3.95882 4.54167 4.49216 4 5.17549 3.6C5.85882 3.2 6.63382 3 7.50049 3H16.5005C17.3338 3 18.0922 3.2 18.7755 3.6C19.4588 4 20.0005 4.54167 20.4005 5.225C20.8005 5.90833 21.0005 6.66667 21.0005 7.5V16.5C21.0005 17.3333 20.8005 18.0917 20.4005 18.775C20.0005 19.4583 19.4588 20 18.7755 20.4C18.0922 20.8 17.3338 21 16.5005 21H15.7755V17.5H16.5005C16.7838 17.5 17.0088 17.4083 17.1755 17.225C17.3588 17.0417 17.4505 16.8 17.4505 16.5V7.5C17.4505 7.2 17.3588 6.95833 17.1755 6.775C17.0088 6.59167 16.7838 6.5 16.5005 6.5H7.50049C7.21716 6.5 6.98382 6.59167 6.80049 6.775C6.63382 6.95833 6.55049 7.19167 6.55049 7.475V16.5C6.55049 16.8 6.63382 17.0417 6.80049 17.225C6.98382 17.4083 7.21716 17.5 7.50049 17.5H8.22549V21H7.50049ZM10.2255 13.975H13.7755V21H10.2255V13.975ZM14.9505 14.525H12.0005H9.12549H7.30049L12.0005 9.525L16.7005 14.525H14.9505ZM11.8755 5.6H12.1255H11.8755Z" fill="black"/>
</g>
<defs>
<clipPath id="clip0_3218_7562">
<rect width="24" height="24" fill="white"/>
</clipPath>
</defs>
</svg>
