<svg width="24" height="24" viewBox="0 0 24 24" fill="none" xmlns="http://www.w3.org/2000/svg">
<g clip-path="url(#clip0_3218_7552)">
<rect width="24" height="24" fill="white"/>
<path d="M6.67549 21C6.00882 21 5.39216 20.8417 4.82549 20.525C4.25882 20.1917 3.80882 19.7417 3.47549 19.175C3.15882 18.6083 3.00049 17.9917 3.00049 17.325V6.675C3.00049 6.00833 3.15882 5.39167 3.47549 4.825C3.80882 4.25833 4.25882 3.81667 4.82549 3.5C5.39216 3.16667 6.00882 3 6.67549 3H17.3255C17.9922 3 18.6088 3.16667 19.1755 3.5C19.7422 3.81667 20.1838 4.25833 20.5005 4.825C20.8338 5.39167 21.0005 6.00833 21.0005 6.675V17.325C21.0005 17.9917 20.8338 18.6083 20.5005 19.175C20.1838 19.7417 19.7422 20.1917 19.1755 20.525C18.6088 20.8417 17.9922 21 17.3255 21H14.5005V20.1H17.3255C18.0922 20.1 18.7338 19.8333 19.2505 19.3C19.7838 18.7667 20.0505 18.1083 20.0505 17.325V6.675C20.0505 5.89167 19.7838 5.23333 19.2505 4.7C18.7338 4.16667 18.0922 3.9 17.3255 3.9H6.67549C5.90882 3.9 5.25882 4.16667 4.72549 4.7C4.20882 5.23333 3.95049 5.89167 3.95049 6.675V17.325C3.95049 18.1083 4.20882 18.7667 4.72549 19.3C5.25882 19.8333 5.90882 20.1 6.67549 20.1H9.50049V21H6.67549ZM11.5255 12.525H12.4755V21H11.5255V12.525ZM14.7505 15.55L12.0005 12.6L9.25049 15.55L8.57549 14.9L12.0005 11.475L15.4255 14.9L14.7505 15.55ZM3.22549 7.675H20.8255V8.575H3.22549V7.675Z" fill="black"/>
</g>
<defs>
<clipPath id="clip0_3218_7552">
<rect width="24" height="24" fill="white"/>
</clipPath>
</defs>
</svg>
