<svg width="24" height="24" viewBox="0 0 24 24" fill="none" xmlns="http://www.w3.org/2000/svg">
<g clip-path="url(#clip0_3218_7554)">
<rect width="24" height="24" fill="white"/>
<path d="M6.82549 21C6.12549 21 5.48382 20.8333 4.90049 20.5C4.31716 20.15 3.85049 19.6833 3.50049 19.1C3.16716 18.5167 3.00049 17.875 3.00049 17.175V6.825C3.00049 6.125 3.16716 5.48333 3.50049 4.9C3.85049 4.31667 4.31716 3.85833 4.90049 3.525C5.48382 3.175 6.12549 3 6.82549 3H17.1755C17.8755 3 18.5172 3.175 19.1005 3.525C19.6838 3.85833 20.1422 4.31667 20.4755 4.9C20.8255 5.48333 21.0005 6.125 21.0005 6.825V17.175C21.0005 17.875 20.8255 18.5167 20.4755 19.1C20.1422 19.6833 19.6838 20.15 19.1005 20.5C18.5172 20.8333 17.8755 21 17.1755 21H14.7505V19.65H17.1755C17.8422 19.65 18.4088 19.4083 18.8755 18.925C19.3588 18.4417 19.6005 17.8583 19.6005 17.175V6.825C19.6005 6.14167 19.3588 5.55833 18.8755 5.075C18.4088 4.59167 17.8422 4.35 17.1755 4.35H6.82549C6.15882 4.35 5.58382 4.59167 5.10049 5.075C4.63382 5.55833 4.40049 6.14167 4.40049 6.825V17.175C4.40049 17.8583 4.63382 18.4417 5.10049 18.925C5.58382 19.4083 6.15882 19.65 6.82549 19.65H9.25049V21H6.82549ZM11.3255 13.175H12.6755V21H11.3255V13.175ZM12.9505 14.4H11.9005H11.1505H9.32549L12.0005 11.725L14.6755 14.4H12.9505ZM3.22549 7.825H20.7755V9.175H3.22549V7.825Z" fill="black"/>
</g>
<defs>
<clipPath id="clip0_3218_7554">
<rect width="24" height="24" fill="white"/>
</clipPath>
</defs>
</svg>
