<svg width="24" height="24" viewBox="0 0 24 24" fill="none" xmlns="http://www.w3.org/2000/svg">
<g clip-path="url(#clip0_3396_13707)">
<rect width="24" height="24" fill="white"/>
<path d="M20.3755 5.15C20.7922 5.56667 21.0005 6.06667 21.0005 6.65C21.0005 7.21667 20.7922 7.7 20.3755 8.1L8.47549 20L3.00049 21L4.00049 15.5L15.9005 3.625C16.3172 3.20833 16.8088 3 17.3755 3C17.9422 3 18.4338 3.20833 18.8505 3.625L20.3755 5.15ZM18.1755 4.275C17.9588 4.04167 17.6922 3.925 17.3755 3.925C17.0588 3.925 16.7838 4.04167 16.5505 4.275L4.87549 15.95L4.15049 19.85L8.05049 19.125L19.7255 7.45C19.9588 7.21667 20.0755 6.94167 20.0755 6.625C20.0755 6.30833 19.9588 6.04167 19.7255 5.825L18.1755 4.275ZM14.6505 5.65L18.2755 9.275L17.6505 9.975L14.0005 6.325L14.6505 5.65Z" fill="black"/>
</g>
<defs>
<clipPath id="clip0_3396_13707">
<rect width="24" height="24" fill="white"/>
</clipPath>
</defs>
</svg>
