<svg width="24" height="24" viewBox="0 0 24 24" fill="none" xmlns="http://www.w3.org/2000/svg">
<g clip-path="url(#clip0_3218_7540)">
<rect width="24" height="24" fill="white"/>
<path d="M4.55 8.1L5.525 7.125C5.825 6.825 6.175 6.61667 6.575 6.5C6.975 6.38333 7.35 6.38333 7.7 6.5L9.8 7.1L14.45 2.45C14.95 1.95 15.5417 1.7 16.225 1.7C16.9083 1.7 17.5 1.95 18 2.45L21.525 5.975C22.025 6.475 22.275 7.06667 22.275 7.75C22.275 8.43333 22.025 9.025 21.525 9.525L16.875 14.175L17.475 16.275C17.5917 16.625 17.5917 17 17.475 17.4C17.3583 17.8 17.15 18.15 16.85 18.45L15.875 19.425L4.55 8.1ZM3.425 19.175L8.825 13.775L10.2 15.15L4.8 20.55L3.425 20.525V19.175Z" fill="black"/>
</g>
<defs>
<clipPath id="clip0_3218_7540">
<rect width="24" height="24" fill="white"/>
</clipPath>
</defs>
</svg>
