<svg width="24" height="24" viewBox="0 0 24 24" fill="none" xmlns="http://www.w3.org/2000/svg">
<g clip-path="url(#clip0_3219_8710)">
<rect width="24" height="24" fill="white"/>
<path d="M12.0005 13.95C12.5505 13.95 13.0005 13.775 13.3505 13.425C13.7005 13.0583 13.8755 12.5833 13.8755 12C13.8755 11.4167 13.7005 10.95 13.3505 10.6C13.0005 10.2333 12.5505 10.05 12.0005 10.05C11.4505 10.05 11.0005 10.2333 10.6505 10.6C10.3005 10.95 10.1255 11.4167 10.1255 12C10.1255 12.5833 10.3005 13.0583 10.6505 13.425C11.0005 13.775 11.4505 13.95 12.0005 13.95ZM16.4505 13.95C17.0005 13.95 17.4505 13.775 17.8005 13.425C18.1505 13.0583 18.3255 12.5833 18.3255 12C18.3255 11.4167 18.1505 10.95 17.8005 10.6C17.4505 10.2333 17.0005 10.05 16.4505 10.05C15.9005 10.05 15.4505 10.2333 15.1005 10.6C14.7505 10.95 14.5755 11.4167 14.5755 12C14.5755 12.5833 14.7505 13.0583 15.1005 13.425C15.4505 13.775 15.9005 13.95 16.4505 13.95ZM7.52549 13.95C8.07549 13.95 8.52549 13.775 8.87549 13.425C9.22549 13.0583 9.40049 12.5833 9.40049 12C9.40049 11.4167 9.22549 10.95 8.87549 10.6C8.52549 10.2333 8.07549 10.05 7.52549 10.05C6.97549 10.05 6.52549 10.2333 6.17549 10.6C5.82549 10.95 5.65049 11.4167 5.65049 12C5.65049 12.5833 5.82549 13.0583 6.17549 13.425C6.52549 13.775 6.97549 13.95 7.52549 13.95ZM23.0005 15.25C23.0005 16.0833 22.8005 16.8417 22.4005 17.525C22.0005 18.2083 21.4588 18.75 20.7755 19.15C20.0922 19.55 19.3338 19.75 18.5005 19.75H5.50049C4.66716 19.75 3.90882 19.55 3.22549 19.15C2.54216 18.75 2.00049 18.2083 1.60049 17.525C1.20049 16.8417 1.00049 16.0833 1.00049 15.25V8.75C1.00049 7.91667 1.20049 7.15833 1.60049 6.475C2.00049 5.79167 2.54216 5.25 3.22549 4.85C3.90882 4.45 4.66716 4.25 5.50049 4.25H18.5005C19.3338 4.25 20.0922 4.45 20.7755 4.85C21.4588 5.25 22.0005 5.79167 22.4005 6.475C22.8005 7.15833 23.0005 7.91667 23.0005 8.75V15.25ZM19.5005 8.75C19.5005 8.45 19.4005 8.2 19.2005 8C19.0172 7.8 18.7838 7.7 18.5005 7.7H5.50049C5.21716 7.7 4.97549 7.8 4.77549 8C4.59216 8.2 4.50049 8.45 4.50049 8.75V15.25C4.50049 15.55 4.59216 15.8 4.77549 16C4.97549 16.2 5.21716 16.3 5.50049 16.3H18.5005C18.7838 16.3 19.0172 16.2 19.2005 16C19.4005 15.8 19.5005 15.55 19.5005 15.25V8.75Z" fill="black"/>
</g>
<defs>
<clipPath id="clip0_3219_8710">
<rect width="24" height="24" fill="white"/>
</clipPath>
</defs>
</svg>
