<svg width="24" height="24" viewBox="0 0 24 24" fill="none" xmlns="http://www.w3.org/2000/svg">
<g clip-path="url(#clip0_3219_8708)">
<rect width="24" height="24" fill="white"/>
<path d="M12.0005 13.75C12.5005 13.75 12.9088 13.5917 13.2255 13.275C13.5422 12.9417 13.7005 12.5167 13.7005 12C13.7005 11.4833 13.5422 11.0667 13.2255 10.75C12.9088 10.4167 12.5005 10.25 12.0005 10.25C11.5005 10.25 11.0922 10.4167 10.7755 10.75C10.4588 11.0667 10.3005 11.4833 10.3005 12C10.3005 12.5167 10.4588 12.9417 10.7755 13.275C11.0922 13.5917 11.5005 13.75 12.0005 13.75ZM16.4505 13.75C16.9338 13.75 17.3338 13.5917 17.6505 13.275C17.9838 12.9417 18.1505 12.5167 18.1505 12C18.1505 11.4833 17.9838 11.0667 17.6505 10.75C17.3338 10.4167 16.9338 10.25 16.4505 10.25C15.9505 10.25 15.5338 10.4167 15.2005 10.75C14.8838 11.0667 14.7255 11.4833 14.7255 12C14.7255 12.5167 14.8838 12.9417 15.2005 13.275C15.5338 13.5917 15.9505 13.75 16.4505 13.75ZM7.55049 13.75C8.05049 13.75 8.45882 13.5917 8.77549 13.275C9.09216 12.9417 9.25049 12.5167 9.25049 12C9.25049 11.4833 9.09216 11.0667 8.77549 10.75C8.45882 10.4167 8.05049 10.25 7.55049 10.25C7.05049 10.25 6.64216 10.4167 6.32549 10.75C6.00882 11.0667 5.85049 11.4833 5.85049 12C5.85049 12.5167 6.00882 12.9417 6.32549 13.275C6.64216 13.5917 7.05049 13.75 7.55049 13.75ZM23.0005 15.175C23.0005 15.975 22.8088 16.7083 22.4255 17.375C22.0422 18.025 21.5172 18.5417 20.8505 18.925C20.2005 19.3083 19.4755 19.5 18.6755 19.5H5.32549C4.52549 19.5 3.79216 19.3083 3.12549 18.925C2.47549 18.5417 1.95882 18.025 1.57549 17.375C1.19216 16.7083 1.00049 15.975 1.00049 15.175V8.825C1.00049 8.025 1.19216 7.3 1.57549 6.65C1.95882 5.98333 2.47549 5.45833 3.12549 5.075C3.79216 4.69167 4.52549 4.5 5.32549 4.5H18.6755C19.4755 4.5 20.2005 4.69167 20.8505 5.075C21.5172 5.45833 22.0422 5.98333 22.4255 6.65C22.8088 7.3 23.0005 8.025 23.0005 8.825V15.175ZM20.0505 8.825C20.0505 8.425 19.9172 8.09167 19.6505 7.825C19.3838 7.54167 19.0588 7.4 18.6755 7.4H5.32549C4.94216 7.4 4.61716 7.54167 4.35049 7.825C4.08382 8.09167 3.95049 8.425 3.95049 8.825V15.175C3.95049 15.575 4.08382 15.9167 4.35049 16.2C4.61716 16.4667 4.94216 16.6 5.32549 16.6H18.6755C19.0588 16.6 19.3838 16.4667 19.6505 16.2C19.9172 15.9167 20.0505 15.575 20.0505 15.175V8.825Z" fill="black"/>
</g>
<defs>
<clipPath id="clip0_3219_8708">
<rect width="24" height="24" fill="white"/>
</clipPath>
</defs>
</svg>
