<svg width="24" height="24" viewBox="0 0 24 24" fill="none" xmlns="http://www.w3.org/2000/svg">
<g clip-path="url(#clip0_3218_7546)">
<rect width="24" height="24" fill="white"/>
<path d="M4.55 8.1L5.775 6.875C6.075 6.575 6.425 6.36667 6.825 6.25C7.225 6.13333 7.6 6.13333 7.95 6.25L10.05 6.85L14.45 2.45C14.95 1.95 15.5417 1.7 16.225 1.7C16.9083 1.7 17.5 1.95 18 2.45L21.525 5.975C22.025 6.475 22.275 7.06667 22.275 7.75C22.275 8.43333 22.025 9.025 21.525 9.525L17.125 13.925L17.725 16.025C17.8417 16.375 17.8417 16.75 17.725 17.15C17.6083 17.55 17.4 17.9 17.1 18.2L15.875 19.425L4.55 8.1ZM3.4 18.8L7.9 14.3L9.65 16.05L5.15 20.55L3.425 20.525L3.4 18.8Z" fill="black"/>
</g>
<defs>
<clipPath id="clip0_3218_7546">
<rect width="24" height="24" fill="white"/>
</clipPath>
</defs>
</svg>
