<svg width="24" height="24" viewBox="0 0 24 24" fill="none" xmlns="http://www.w3.org/2000/svg">
<g clip-path="url(#clip0_3218_7536)">
<rect width="24" height="24" fill="white"/>
<path d="M2.80049 9.875L6.77549 5.9C7.12549 5.55 7.52549 5.30833 7.97549 5.175C8.44216 5.025 8.90049 5.00833 9.35049 5.125L10.6255 5.5L13.5005 2.625C13.9338 2.19167 14.4338 1.90833 15.0005 1.775C15.5838 1.625 16.1588 1.63333 16.7255 1.8C17.3088 1.95 17.8255 2.25 18.2755 2.7L21.3255 5.75C21.9922 6.41667 22.3255 7.20833 22.3255 8.125C22.3422 9.025 22.0172 9.80833 21.3505 10.475L18.4755 13.35L18.8755 14.65C18.9922 15.1 18.9755 15.5583 18.8255 16.025C18.6922 16.475 18.4505 16.875 18.1005 17.225L14.1255 21.2L2.80049 9.875ZM3.42549 18L7.75049 13.675L10.3005 16.225L5.95049 20.575L3.45049 20.525L3.42549 18ZM15.0005 15.275C15.0672 15.2083 15.1172 15.1167 15.1505 15C15.2005 14.8667 15.2088 14.7333 15.1755 14.6L14.5505 12.275L18.6005 8.225C18.6338 8.19167 18.6505 8.15 18.6505 8.1C18.6505 8.05 18.6422 8.01667 18.6255 8L16.0005 5.375C15.9838 5.35833 15.9505 5.35 15.9005 5.35C15.8505 5.35 15.8088 5.36667 15.7755 5.4L11.7255 9.45L9.40049 8.825C9.26716 8.79167 9.13382 8.8 9.00049 8.85C8.88382 8.88333 8.79216 8.93333 8.72549 9L7.80049 9.925L14.0755 16.2L15.0005 15.275Z" fill="black"/>
</g>
<defs>
<clipPath id="clip0_3218_7536">
<rect width="24" height="24" fill="white"/>
</clipPath>
</defs>
</svg>
