<svg width="24" height="24" viewBox="0 0 24 24" fill="none" xmlns="http://www.w3.org/2000/svg">
<g clip-path="url(#clip0_3219_8706)">
<rect width="24" height="24" fill="white"/>
<path d="M12.0005 13.575C12.4338 13.575 12.8005 13.425 13.1005 13.125C13.4005 12.825 13.5505 12.45 13.5505 12C13.5505 11.55 13.4005 11.175 13.1005 10.875C12.8005 10.575 12.4338 10.425 12.0005 10.425C11.5672 10.425 11.2005 10.575 10.9005 10.875C10.6005 11.175 10.4505 11.55 10.4505 12C10.4505 12.45 10.6005 12.825 10.9005 13.125C11.2005 13.425 11.5672 13.575 12.0005 13.575ZM16.4255 13.575C16.8755 13.575 17.2422 13.425 17.5255 13.125C17.8255 12.825 17.9755 12.45 17.9755 12C17.9755 11.55 17.8255 11.175 17.5255 10.875C17.2422 10.575 16.8755 10.425 16.4255 10.425C15.9922 10.425 15.6255 10.575 15.3255 10.875C15.0422 11.175 14.9005 11.55 14.9005 12C14.9005 12.45 15.0422 12.825 15.3255 13.125C15.6255 13.425 15.9922 13.575 16.4255 13.575ZM7.57549 13.575C8.00882 13.575 8.37549 13.425 8.67549 13.125C8.97549 12.825 9.12549 12.45 9.12549 12C9.12549 11.55 8.97549 11.175 8.67549 10.875C8.37549 10.575 8.00882 10.425 7.57549 10.425C7.14216 10.425 6.77549 10.575 6.47549 10.875C6.17549 11.175 6.02549 11.55 6.02549 12C6.02549 12.45 6.17549 12.825 6.47549 13.125C6.77549 13.425 7.14216 13.575 7.57549 13.575ZM23.0005 15.075C23.0005 15.8417 22.8172 16.55 22.4505 17.2C22.0838 17.8333 21.5755 18.3333 20.9255 18.7C20.2922 19.0667 19.5922 19.25 18.8255 19.25H5.17549C4.40882 19.25 3.70049 19.0667 3.05049 18.7C2.41716 18.3333 1.91716 17.8333 1.55049 17.2C1.18382 16.55 1.00049 15.8417 1.00049 15.075V8.925C1.00049 8.15833 1.18382 7.45833 1.55049 6.825C1.91716 6.175 2.41716 5.66667 3.05049 5.3C3.70049 4.93333 4.40882 4.75 5.17549 4.75H18.8255C19.5922 4.75 20.2922 4.93333 20.9255 5.3C21.5755 5.66667 22.0838 6.175 22.4505 6.825C22.8172 7.45833 23.0005 8.15833 23.0005 8.925V15.075ZM20.6005 8.925C20.6005 8.40833 20.4255 7.975 20.0755 7.625C19.7422 7.275 19.3255 7.1 18.8255 7.1H5.17549C4.67549 7.1 4.25049 7.275 3.90049 7.625C3.56716 7.975 3.40049 8.40833 3.40049 8.925V15.075C3.40049 15.5917 3.56716 16.025 3.90049 16.375C4.25049 16.725 4.67549 16.9 5.17549 16.9H18.8255C19.3255 16.9 19.7422 16.725 20.0755 16.375C20.4255 16.025 20.6005 15.5917 20.6005 15.075V8.925Z" fill="black"/>
</g>
<defs>
<clipPath id="clip0_3219_8706">
<rect width="24" height="24" fill="white"/>
</clipPath>
</defs>
</svg>
