<svg width="24" height="24" viewBox="0 0 24 24" fill="none" xmlns="http://www.w3.org/2000/svg">
<g clip-path="url(#clip0_3218_7526)">
<rect width="24" height="24" fill="white"/>
<path d="M4.32549 8.8L5.87549 7.25C6.20882 6.91667 6.61716 6.68333 7.10049 6.55C7.58382 6.41667 8.03382 6.40833 8.45049 6.525L9.90049 6.975L14.1755 2.7C14.5588 2.31667 14.9922 2.05833 15.4755 1.925C15.9588 1.79167 16.4505 1.8 16.9505 1.95C17.4672 2.08333 17.9088 2.33333 18.2755 2.7L21.3005 5.725C21.8672 6.29167 22.1505 6.975 22.1505 7.775C22.1505 8.575 21.8672 9.25833 21.3005 9.825L17.0505 14.075L17.4755 15.55C17.5922 15.9667 17.5755 16.4167 17.4255 16.9C17.2922 17.3667 17.0588 17.7667 16.7255 18.1L15.1755 19.65L4.32549 8.8ZM3.45049 19.875L9.80049 13.525L10.4755 14.2L4.12549 20.55L3.45049 20.525V19.875ZM16.0505 17.425C16.2505 17.225 16.4005 16.9667 16.5005 16.65C16.6005 16.3333 16.6172 16.025 16.5505 15.725L16.0005 13.775L20.6255 9.15C21.0255 8.75 21.2255 8.28333 21.2255 7.75C21.2255 7.21667 21.0338 6.75833 20.6505 6.375L17.6255 3.35C17.2422 2.96667 16.7838 2.775 16.2505 2.775C15.7172 2.775 15.2505 2.975 14.8505 3.375L10.2255 8L8.27549 7.45C7.97549 7.38333 7.66716 7.4 7.35049 7.5C7.03382 7.6 6.77549 7.75 6.57549 7.95L5.70049 8.825L15.1755 18.3L16.0505 17.425Z" fill="black"/>
</g>
<defs>
<clipPath id="clip0_3218_7526">
<rect width="24" height="24" fill="white"/>
</clipPath>
</defs>
</svg>
