<svg width="24" height="24" viewBox="0 0 24 24" fill="none" xmlns="http://www.w3.org/2000/svg">
<g clip-path="url(#clip0_3218_7538)">
<rect width="24" height="24" fill="white"/>
<path d="M4.55 8.1L5.475 7.175C5.775 6.875 6.125 6.66667 6.525 6.55C6.925 6.43333 7.3 6.43333 7.65 6.55L9.75 7.15L14.45 2.45C14.95 1.95 15.5417 1.7 16.225 1.7C16.9083 1.7 17.5 1.95 18 2.45L21.525 5.975C22.025 6.475 22.275 7.06667 22.275 7.75C22.275 8.43333 22.025 9.025 21.525 9.525L16.825 14.225L17.425 16.325C17.5417 16.675 17.5417 17.05 17.425 17.45C17.3083 17.85 17.1 18.2 16.8 18.5L15.875 19.425L4.55 8.1ZM3.425 19.175L9.175 13.425L10.55 14.8L4.8 20.55L3.425 20.525V19.175Z" fill="black"/>
</g>
<defs>
<clipPath id="clip0_3218_7538">
<rect width="24" height="24" fill="white"/>
</clipPath>
</defs>
</svg>
