<svg width="24" height="24" viewBox="0 0 24 24" fill="none" xmlns="http://www.w3.org/2000/svg">
<g clip-path="url(#clip0_3219_8720)">
<rect width="24" height="24" fill="white"/>
<path d="M1.45 17.275C1.15 16.725 1 16.1333 1 15.5V8.5C1 7.86667 1.15 7.28333 1.45 6.75C1.76667 6.2 2.19167 5.775 2.725 5.475C3.275 5.15833 3.86667 5 4.5 5H19.5C20.1333 5 20.7167 5.15833 21.25 5.475C21.8 5.775 22.225 6.2 22.525 6.75C22.8417 7.28333 23 7.86667 23 8.5V15.5C23 16.1333 22.8417 16.725 22.525 17.275C22.225 17.8083 21.8 18.2333 21.25 18.55C20.7167 18.85 20.1333 19 19.5 19H4.5C3.86667 19 3.275 18.85 2.725 18.55C2.19167 18.2333 1.76667 17.8083 1.45 17.275ZM10.825 13.175C11.1583 13.5083 11.55 13.675 12 13.675C12.4667 13.675 12.8583 13.5167 13.175 13.2C13.5083 12.8667 13.675 12.4667 13.675 12C13.675 11.5333 13.5083 11.1417 13.175 10.825C12.8583 10.4917 12.4667 10.325 12 10.325C11.5333 10.325 11.1333 10.4917 10.8 10.825C10.4833 11.1417 10.325 11.5333 10.325 12C10.325 12.45 10.4917 12.8417 10.825 13.175ZM16.4 13.175C16.7333 13.5083 17.125 13.675 17.575 13.675C18.0417 13.675 18.4333 13.5167 18.75 13.2C19.0833 12.8667 19.25 12.4667 19.25 12C19.25 11.5333 19.0833 11.1417 18.75 10.825C18.4333 10.4917 18.0417 10.325 17.575 10.325C17.125 10.325 16.7333 10.4917 16.4 10.825C16.0833 11.1417 15.925 11.5333 15.925 12C15.925 12.45 16.0833 12.8417 16.4 13.175ZM5.25 13.175C5.58333 13.5083 5.975 13.675 6.425 13.675C6.875 13.675 7.25833 13.5167 7.575 13.2C7.90833 12.8667 8.075 12.4667 8.075 12C8.075 11.5333 7.91667 11.1417 7.6 10.825C7.28333 10.4917 6.89167 10.325 6.425 10.325C5.95833 10.325 5.55833 10.4917 5.225 10.825C4.90833 11.1417 4.75 11.5333 4.75 12C4.75 12.45 4.91667 12.8417 5.25 13.175Z" fill="black"/>
</g>
<defs>
<clipPath id="clip0_3219_8720">
<rect width="24" height="24" fill="white"/>
</clipPath>
</defs>
</svg>
