<svg width="24" height="24" viewBox="0 0 24 24" fill="none" xmlns="http://www.w3.org/2000/svg">
<g clip-path="url(#clip0_3216_2450)">
<rect width="24" height="24" fill="white"/>
<path d="M23.0005 15.175C23.0005 15.975 22.8088 16.7083 22.4255 17.375C22.0422 18.025 21.5172 18.5417 20.8505 18.925C20.2005 19.3083 19.4755 19.5 18.6755 19.5H5.32549C4.52549 19.5 3.79216 19.3083 3.12549 18.925C2.47549 18.5417 1.95882 18.025 1.57549 17.375C1.19216 16.7083 1.00049 15.975 1.00049 15.175V8.825C1.00049 8.025 1.19216 7.3 1.57549 6.65C1.95882 5.98333 2.47549 5.45833 3.12549 5.075C3.79216 4.69167 4.52549 4.5 5.32549 4.5H18.6755C19.4755 4.5 20.2005 4.69167 20.8505 5.075C21.5172 5.45833 22.0422 5.98333 22.4255 6.65C22.8088 7.3 23.0005 8.025 23.0005 8.825V15.175ZM20.0505 8.825C20.0505 8.425 19.9172 8.09167 19.6505 7.825C19.3838 7.54167 19.0588 7.4 18.6755 7.4H5.32549C4.94216 7.4 4.61716 7.54167 4.35049 7.825C4.08382 8.09167 3.95049 8.425 3.95049 8.825V15.175C3.95049 15.575 4.08382 15.9167 4.35049 16.2C4.61716 16.4667 4.94216 16.6 5.32549 16.6H18.6755C19.0588 16.6 19.3838 16.4667 19.6505 16.2C19.9172 15.9167 20.0505 15.575 20.0505 15.175V8.825ZM7.47549 8.525H11.1505L13.1755 15.325H10.6005L10.2755 14.225H8.35049L8.02549 15.325H5.45049L7.47549 8.525ZM10.0005 12.375L9.30049 10.325L8.62549 12.375H10.0005Z" fill="black"/>
</g>
<defs>
<clipPath id="clip0_3216_2450">
<rect width="24" height="24" fill="white"/>
</clipPath>
</defs>
</svg>
