<svg width="24" height="24" viewBox="0 0 24 24" fill="none" xmlns="http://www.w3.org/2000/svg">
<g clip-path="url(#clip0_3216_2448)">
<rect width="24" height="24" fill="white"/>
<path d="M23.5005 15.075C23.5005 15.8417 23.3172 16.55 22.9505 17.2C22.5838 17.8333 22.0755 18.3333 21.4255 18.7C20.7922 19.0667 20.0922 19.25 19.3255 19.25H4.67549C3.90882 19.25 3.20049 19.0667 2.55049 18.7C1.91716 18.3333 1.41716 17.8333 1.05049 17.2C0.683822 16.55 0.500488 15.8417 0.500488 15.075V8.925C0.500488 8.15833 0.683822 7.45833 1.05049 6.825C1.41716 6.175 1.91716 5.66667 2.55049 5.3C3.20049 4.93333 3.90882 4.75 4.67549 4.75H19.3255C20.0922 4.75 20.7922 4.93333 21.4255 5.3C22.0755 5.66667 22.5838 6.175 22.9505 6.825C23.3172 7.45833 23.5005 8.15833 23.5005 8.925V15.075ZM21.0755 8.925C21.0755 8.40833 20.9088 7.98333 20.5755 7.65C20.2422 7.3 19.8255 7.125 19.3255 7.125H4.67549C4.17549 7.125 3.75882 7.3 3.42549 7.65C3.09216 7.98333 2.92549 8.40833 2.92549 8.925V15.075C2.92549 15.5917 3.09216 16.025 3.42549 16.375C3.75882 16.7083 4.17549 16.875 4.67549 16.875H19.3255C19.8255 16.875 20.2422 16.7083 20.5755 16.375C20.9088 16.025 21.0755 15.5917 21.0755 15.075V8.925ZM6.90049 8.525H9.87549L12.0755 15.325H9.87549L9.50049 14.025H7.30049L6.90049 15.325H4.72549L6.90049 8.525ZM9.15049 12.4L8.37549 10.15L7.62549 12.4H9.15049Z" fill="black"/>
</g>
<defs>
<clipPath id="clip0_3216_2448">
<rect width="24" height="24" fill="white"/>
</clipPath>
</defs>
</svg>
