<svg width="24" height="24" viewBox="0 0 24 24" fill="none" xmlns="http://www.w3.org/2000/svg">
<g clip-path="url(#clip0_3216_2452)">
<rect width="24" height="24" fill="white"/>
<path d="M23.5005 15.25C23.5005 16.0833 23.3005 16.8417 22.9005 17.525C22.5005 18.2083 21.9588 18.75 21.2755 19.15C20.5922 19.55 19.8338 19.75 19.0005 19.75H5.00049C4.16716 19.75 3.40882 19.55 2.72549 19.15C2.04216 18.75 1.50049 18.2083 1.10049 17.525C0.700488 16.8417 0.500488 16.0833 0.500488 15.25V8.75C0.500488 7.91667 0.700488 7.15833 1.10049 6.475C1.50049 5.79167 2.04216 5.25 2.72549 4.85C3.40882 4.45 4.16716 4.25 5.00049 4.25H19.0005C19.8338 4.25 20.5922 4.45 21.2755 4.85C21.9588 5.25 22.5005 5.79167 22.9005 6.475C23.3005 7.15833 23.5005 7.91667 23.5005 8.75V15.25ZM19.9505 8.75C19.9505 8.46667 19.8588 8.23333 19.6755 8.05C19.4922 7.85 19.2672 7.75 19.0005 7.75H5.00049C4.73382 7.75 4.50882 7.85 4.32549 8.05C4.14216 8.23333 4.05049 8.46667 4.05049 8.75V15.25C4.05049 15.5333 4.14216 15.775 4.32549 15.975C4.50882 16.1583 4.73382 16.25 5.00049 16.25H19.0005C19.2672 16.25 19.4922 16.1583 19.6755 15.975C19.8588 15.775 19.9505 15.5333 19.9505 15.25V8.75ZM7.02549 8.525H11.3755L13.2505 15.325H10.3005L10.0505 14.4H8.35049L8.10049 15.325H5.17549L7.02549 8.525ZM9.80049 12.325L9.20049 10.475L8.60049 12.325H9.80049Z" fill="black"/>
</g>
<defs>
<clipPath id="clip0_3216_2452">
<rect width="24" height="24" fill="white"/>
</clipPath>
</defs>
</svg>
