<svg width="24" height="24" viewBox="0 0 24 24" fill="none" xmlns="http://www.w3.org/2000/svg">
<g clip-path="url(#clip0_3216_2466)">
<rect width="24" height="24" fill="white"/>
<path d="M22.525 6.75C22.8417 7.28333 23 7.86667 23 8.5V15.5C23 16.1333 22.8417 16.725 22.525 17.275C22.225 17.8083 21.8 18.2333 21.25 18.55C20.7167 18.85 20.1333 19 19.5 19H4.5C3.86667 19 3.275 18.85 2.725 18.55C2.19167 18.2333 1.76667 17.8083 1.45 17.275C1.15 16.725 1 16.1333 1 15.5V8.5C1 7.86667 1.15 7.28333 1.45 6.75C1.76667 6.2 2.19167 5.775 2.725 5.475C3.275 5.15833 3.86667 5 4.5 5H19.5C20.1333 5 20.7167 5.15833 21.25 5.475C21.8 5.775 22.225 6.2 22.525 6.75ZM7 8.25L4.9 15.8H7.675L7.9 14.65H10.05L10.275 15.8H13.075L10.95 8.25H7ZM9.575 12.625H8.35L8.975 10.475L9.575 12.625Z" fill="black"/>
</g>
<defs>
<clipPath id="clip0_3216_2466">
<rect width="24" height="24" fill="white"/>
</clipPath>
</defs>
</svg>
