<svg width="24" height="24" viewBox="0 0 24 24" fill="none" xmlns="http://www.w3.org/2000/svg">
<g clip-path="url(#clip0_3216_2450)">
<rect width="24" height="24" fill="white"/>
<path d="M23.5005 15.175C23.5005 15.975 23.3088 16.7083 22.9255 17.375C22.5422 18.025 22.0172 18.5417 21.3505 18.925C20.7005 19.3083 19.9755 19.5 19.1755 19.5H4.82549C4.02549 19.5 3.29216 19.3083 2.62549 18.925C1.97549 18.5417 1.45882 18.025 1.07549 17.375C0.692155 16.7083 0.500488 15.975 0.500488 15.175V8.825C0.500488 8.025 0.692155 7.3 1.07549 6.65C1.45882 5.98333 1.97549 5.45833 2.62549 5.075C3.29216 4.69167 4.02549 4.5 4.82549 4.5H19.1755C19.9755 4.5 20.7005 4.69167 21.3505 5.075C22.0172 5.45833 22.5422 5.98333 22.9255 6.65C23.3088 7.3 23.5005 8.025 23.5005 8.825V15.175ZM20.5255 8.825C20.5255 8.44167 20.3922 8.11667 20.1255 7.85C19.8588 7.56667 19.5422 7.425 19.1755 7.425H4.82549C4.45882 7.425 4.14216 7.56667 3.87549 7.85C3.60882 8.11667 3.47549 8.44167 3.47549 8.825V15.175C3.47549 15.5583 3.60882 15.8917 3.87549 16.175C4.14216 16.4417 4.45882 16.575 4.82549 16.575H19.1755C19.5422 16.575 19.8588 16.4417 20.1255 16.175C20.3922 15.8917 20.5255 15.5583 20.5255 15.175V8.825ZM6.97549 8.525H10.6505L12.6755 15.325H10.1005L9.77549 14.225H7.85049L7.52549 15.325H4.95049L6.97549 8.525ZM9.50049 12.375L8.80049 10.325L8.12549 12.375H9.50049Z" fill="black"/>
</g>
<defs>
<clipPath id="clip0_3216_2450">
<rect width="24" height="24" fill="white"/>
</clipPath>
</defs>
</svg>
