<svg width="24" height="24" viewBox="0 0 24 24" fill="none" xmlns="http://www.w3.org/2000/svg">
<g clip-path="url(#clip0_3216_2456)">
<rect width="24" height="24" fill="white"/>
<path d="M23.025 6.75C23.3417 7.28333 23.5 7.86667 23.5 8.5V15.5C23.5 16.1333 23.3417 16.725 23.025 17.275C22.725 17.8083 22.3 18.2333 21.75 18.55C21.2167 18.85 20.6333 19 20 19H4C3.36667 19 2.775 18.85 2.225 18.55C1.69167 18.2333 1.26667 17.8083 0.95 17.275C0.65 16.725 0.5 16.1333 0.5 15.5V8.5C0.5 7.86667 0.65 7.28333 0.95 6.75C1.26667 6.2 1.69167 5.775 2.225 5.475C2.775 5.15833 3.36667 5 4 5H20C20.6333 5 21.2167 5.15833 21.75 5.475C22.3 5.775 22.725 6.2 23.025 6.75ZM7.825 7.6L4.45 16.375H5.4L6.375 13.85H10.45L11.4 16.375H12.375L9.025 7.6H7.825ZM10.15 13.025H6.675L8.4 8.375L10.15 13.025Z" fill="black"/>
</g>
<defs>
<clipPath id="clip0_3216_2456">
<rect width="24" height="24" fill="white"/>
</clipPath>
</defs>
</svg>
