<svg width="24" height="24" viewBox="0 0 24 24" fill="none" xmlns="http://www.w3.org/2000/svg">
<g clip-path="url(#clip0_3316_9622)">
<rect width="24" height="24" fill="white"/>
<path d="M18.0005 8.05V5.95H16.0005V8.05H18.0005ZM13.0005 3H21.0005V11H13.0005V3ZM8.00049 18.05V15.95H6.00049V18.05H8.00049ZM3.00049 13H11.0005V21H3.00049V13ZM8.00049 8.05V5.95H6.00049V8.05H8.00049ZM3.00049 3H11.0005V11H3.00049V3ZM13.0005 13H16.2505V16.25H13.0005V13ZM17.7505 13H21.0005V16.25H17.7505V13ZM13.0005 17.75H16.2505V21H13.0005V17.75ZM17.7505 17.75H21.0005V21H17.7505V17.75ZM15.2505 15.25H18.7505V18.75H15.2505V15.25Z" fill="black"/>
</g>
<defs>
<clipPath id="clip0_3316_9622">
<rect width="24" height="24" fill="white"/>
</clipPath>
</defs>
</svg>
