<svg width="24" height="24" viewBox="0 0 24 24" fill="none" xmlns="http://www.w3.org/2000/svg">
<g clip-path="url(#clip0_3316_9614)">
<rect width="24" height="24" fill="white"/>
<path d="M19.6255 8.675V4.325H15.3755V8.675H19.6255ZM14.0005 3H21.0005V10H14.0005V3ZM8.62549 19.675V15.325H4.37549V19.675H8.62549ZM3.00049 14H10.0005V21H3.00049V14ZM8.62549 8.675V4.325H4.37549V8.675H8.62549ZM3.00049 3H10.0005V10H3.00049V3ZM14.0005 14H15.8005V15.775H14.0005V14ZM19.2255 14H21.0005V15.775H19.2255V14ZM14.0005 19.2H15.8005V21H14.0005V19.2ZM19.2255 19.2H21.0005V21H19.2255V19.2ZM16.6005 16.575H18.4255V18.4H16.6005V16.575Z" fill="black"/>
</g>
<defs>
<clipPath id="clip0_3316_9614">
<rect width="24" height="24" fill="white"/>
</clipPath>
</defs>
</svg>
