<svg width="24" height="24" viewBox="0 0 24 24" fill="none" xmlns="http://www.w3.org/2000/svg">
<g clip-path="url(#clip0_3219_9092)">
<rect width="24" height="24" fill="white"/>
<path d="M17.3505 12C17.3505 13 17.1172 13.9083 16.6505 14.725C16.1838 15.5417 15.5422 16.1833 14.7255 16.65C13.9088 17.1167 13.0005 17.35 12.0005 17.35C11.0005 17.35 10.0922 17.1167 9.27549 16.65C8.45882 16.1833 7.81716 15.5417 7.35049 14.725C6.88382 13.9083 6.65049 13 6.65049 12C6.65049 11 6.88382 10.0917 7.35049 9.275C7.81716 8.45833 8.45882 7.81667 9.27549 7.35C10.0922 6.88333 11.0005 6.65 12.0005 6.65C12.7672 6.65 13.4838 6.79167 14.1505 7.075C14.8338 7.35833 15.4172 7.76667 15.9005 8.3L14.8505 9.175C14.4838 8.80833 14.0505 8.51667 13.5505 8.3C13.0672 8.08333 12.5505 7.975 12.0005 7.975C11.2672 7.975 10.5922 8.15833 9.97549 8.525C9.37549 8.875 8.89216 9.35833 8.52549 9.975C8.17549 10.5917 8.00049 11.2667 8.00049 12C8.00049 12.7333 8.17549 13.4083 8.52549 14.025C8.89216 14.6417 9.37549 15.1333 9.97549 15.5C10.5922 15.85 11.2672 16.025 12.0005 16.025C12.7338 16.025 13.4005 15.85 14.0005 15.5C14.6172 15.1333 15.1005 14.6417 15.4505 14.025C15.8172 13.4083 16.0005 12.7333 16.0005 12H17.3505ZM22.0005 12C22.0005 13.8333 21.5588 15.5167 20.6755 17.05C19.7922 18.5833 18.5838 19.7917 17.0505 20.675C15.5172 21.5583 13.8338 22 12.0005 22C10.1672 22 8.48382 21.5583 6.95049 20.675C5.41716 19.7917 4.20882 18.5833 3.32549 17.05C2.44216 15.5167 2.00049 13.8333 2.00049 12C2.00049 10.1667 2.44216 8.48333 3.32549 6.95C4.20882 5.41667 5.41716 4.20833 6.95049 3.325C8.48382 2.44167 10.1672 2 12.0005 2C13.5005 2 14.9005 2.3 16.2005 2.9C17.5172 3.5 18.6422 4.33333 19.5755 5.4L18.5505 6.25C17.7505 5.33333 16.7755 4.61667 15.6255 4.1C14.4922 3.58333 13.2838 3.325 12.0005 3.325C10.4172 3.325 8.96716 3.70833 7.65049 4.475C6.33382 5.24167 5.29216 6.29167 4.52549 7.625C3.75882 8.95833 3.37549 10.4167 3.37549 12C3.37549 13.5833 3.75882 15.0417 4.52549 16.375C5.29216 17.7083 6.33382 18.7583 7.65049 19.525C8.96716 20.2917 10.4172 20.675 12.0005 20.675C13.5838 20.675 15.0338 20.2917 16.3505 19.525C17.6838 18.7583 18.7255 17.7167 19.4755 16.4C20.2422 15.0667 20.6255 13.6 20.6255 12H22.0005ZM19.5755 5.4L12.5005 12.475C12.3505 12.6083 12.1755 12.6833 11.9755 12.7C11.7755 12.7 11.6088 12.6333 11.4755 12.5C11.3422 12.3667 11.2838 12.2083 11.3005 12.025C11.3172 11.825 11.3922 11.65 11.5255 11.5L18.5505 4.5L19.5755 5.4Z" fill="black"/>
</g>
<defs>
<clipPath id="clip0_3219_9092">
<rect width="24" height="24" fill="white"/>
</clipPath>
</defs>
</svg>
