<svg width="24" height="24" viewBox="0 0 24 24" fill="none" xmlns="http://www.w3.org/2000/svg">
<g clip-path="url(#clip0_3219_9098)">
<rect width="24" height="24" fill="white"/>
<path d="M17.6505 12C17.6505 13.0333 17.4005 13.9833 16.9005 14.85C16.4005 15.7167 15.7172 16.4 14.8505 16.9C13.9838 17.4 13.0338 17.65 12.0005 17.65C10.9672 17.65 10.0172 17.4 9.15049 16.9C8.28382 16.4 7.60049 15.7167 7.10049 14.85C6.60049 13.9833 6.35049 13.0333 6.35049 12C6.35049 10.9667 6.60049 10.0167 7.10049 9.15C7.60049 8.28333 8.28382 7.6 9.15049 7.1C10.0172 6.6 10.9672 6.35 12.0005 6.35C12.8172 6.35 13.5838 6.50833 14.3005 6.825C15.0172 7.14167 15.6338 7.58333 16.1505 8.15L14.2005 9.85C13.9172 9.56667 13.5838 9.34167 13.2005 9.175C12.8172 8.99167 12.4172 8.9 12.0005 8.9C11.4505 8.9 10.9338 9.04167 10.4505 9.325C9.98382 9.60833 9.61716 9.98333 9.35049 10.45C9.08382 10.9167 8.95049 11.4333 8.95049 12C8.95049 12.5667 9.08382 13.0833 9.35049 13.55C9.61716 14.0167 9.98382 14.3917 10.4505 14.675C10.9338 14.9583 11.4505 15.1 12.0005 15.1C12.5505 15.1 13.0588 14.9583 13.5255 14.675C14.0088 14.3917 14.3838 14.0167 14.6505 13.55C14.9172 13.0833 15.0505 12.5667 15.0505 12H17.6505ZM22.0005 12C22.0005 13.8333 21.5588 15.5167 20.6755 17.05C19.7922 18.5833 18.5838 19.7917 17.0505 20.675C15.5172 21.5583 13.8338 22 12.0005 22C10.1672 22 8.48382 21.5583 6.95049 20.675C5.41716 19.7917 4.20882 18.5833 3.32549 17.05C2.44216 15.5167 2.00049 13.8333 2.00049 12C2.00049 10.1667 2.44216 8.48333 3.32549 6.95C4.20882 5.41667 5.41716 4.20833 6.95049 3.325C8.48382 2.44167 10.1672 2 12.0005 2C13.6005 2 15.0922 2.34167 16.4755 3.025C17.8588 3.70833 19.0172 4.65833 19.9505 5.875L17.9505 7.45C17.2505 6.55 16.3838 5.84167 15.3505 5.325C14.3172 4.79167 13.2005 4.525 12.0005 4.525C10.6505 4.525 9.40882 4.85833 8.27549 5.525C7.14216 6.19167 6.24216 7.1 5.57549 8.25C4.90882 9.38333 4.57549 10.6333 4.57549 12C4.57549 13.3667 4.90882 14.625 5.57549 15.775C6.24216 16.9083 7.14216 17.8083 8.27549 18.475C9.40882 19.1417 10.6505 19.475 12.0005 19.475C13.3672 19.475 14.6172 19.1417 15.7505 18.475C16.8838 17.8083 17.7755 16.9083 18.4255 15.775C19.0922 14.625 19.4255 13.3667 19.4255 12H22.0005ZM19.9505 5.875L12.9255 12.9C12.6755 13.1333 12.3672 13.2583 12.0005 13.275C11.6505 13.275 11.3422 13.1417 11.0755 12.875C10.8255 12.6083 10.7005 12.3083 10.7005 11.975C10.7172 11.625 10.8505 11.325 11.1005 11.075L18.1005 4.1L19.9505 5.875Z" fill="black"/>
</g>
<defs>
<clipPath id="clip0_3219_9098">
<rect width="24" height="24" fill="white"/>
</clipPath>
</defs>
</svg>
