<svg width="24" height="24" viewBox="0 0 24 24" fill="none" xmlns="http://www.w3.org/2000/svg">
<g clip-path="url(#clip0_3219_9100)">
<rect width="24" height="24" fill="white"/>
<path d="M17.7255 12C17.7255 13.05 17.4672 14.0167 16.9505 14.9C16.4505 15.7667 15.7588 16.4583 14.8755 16.975C14.0088 17.475 13.0505 17.725 12.0005 17.725C10.9505 17.725 9.98382 17.475 9.10049 16.975C8.23382 16.4583 7.54216 15.7667 7.02549 14.9C6.52549 14.0167 6.27549 13.05 6.27549 12C6.27549 10.95 6.52549 9.99167 7.02549 9.125C7.54216 8.24167 8.23382 7.55 9.10049 7.05C9.98382 6.53333 10.9505 6.275 12.0005 6.275C12.8172 6.275 13.5922 6.44167 14.3255 6.775C15.0588 7.09167 15.6922 7.53333 16.2255 8.1L14.0005 10.075C13.7338 9.80833 13.4255 9.6 13.0755 9.45C12.7422 9.3 12.3838 9.225 12.0005 9.225C11.5005 9.225 11.0338 9.35 10.6005 9.6C10.1838 9.85 9.85049 10.1833 9.60049 10.6C9.36716 11.0167 9.25049 11.4833 9.25049 12C9.25049 12.5167 9.36716 12.9833 9.60049 13.4C9.85049 13.8167 10.1838 14.15 10.6005 14.4C11.0338 14.65 11.5005 14.775 12.0005 14.775C12.5005 14.775 12.9588 14.65 13.3755 14.4C13.8088 14.15 14.1422 13.8167 14.3755 13.4C14.6255 12.9833 14.7505 12.5167 14.7505 12H17.7255ZM22.0005 12C22.0005 13.8333 21.5588 15.5167 20.6755 17.05C19.7922 18.5833 18.5838 19.7917 17.0505 20.675C15.5172 21.5583 13.8338 22 12.0005 22C10.1672 22 8.48382 21.5583 6.95049 20.675C5.41716 19.7917 4.20882 18.5833 3.32549 17.05C2.44216 15.5167 2.00049 13.8333 2.00049 12C2.00049 10.1667 2.44216 8.48333 3.32549 6.95C4.20882 5.41667 5.41716 4.20833 6.95049 3.325C8.48382 2.44167 10.1672 2 12.0005 2C13.6338 2 15.1505 2.35833 16.5505 3.075C17.9672 3.775 19.1422 4.75833 20.0755 6.025L17.7255 7.825C17.0755 6.925 16.2505 6.21667 15.2505 5.7C14.2505 5.18333 13.1672 4.925 12.0005 4.925C10.7172 4.925 9.53382 5.24167 8.45049 5.875C7.38382 6.49167 6.53382 7.34167 5.90049 8.425C5.28382 9.50833 4.97549 10.7 4.97549 12C4.97549 13.3 5.28382 14.4917 5.90049 15.575C6.53382 16.6583 7.38382 17.5167 8.45049 18.15C9.53382 18.7833 10.7172 19.1 12.0005 19.1C13.3005 19.1 14.4838 18.7833 15.5505 18.15C16.6338 17.5167 17.4838 16.6583 18.1005 15.575C18.7338 14.4917 19.0505 13.3 19.0505 12H22.0005ZM20.0755 6.025L13.0505 13.025C12.7838 13.2917 12.4422 13.4333 12.0255 13.45C11.6255 13.45 11.2672 13.2917 10.9505 12.975C10.6672 12.675 10.5255 12.3333 10.5255 11.95C10.5422 11.5667 10.6922 11.2333 10.9755 10.95L17.9755 3.95L20.0755 6.025Z" fill="black"/>
</g>
<defs>
<clipPath id="clip0_3219_9100">
<rect width="24" height="24" fill="white"/>
</clipPath>
</defs>
</svg>
