<svg width="24" height="24" viewBox="0 0 24 24" fill="none" xmlns="http://www.w3.org/2000/svg">
<g clip-path="url(#clip0_3234_12950)">
<rect width="24" height="24" fill="white"/>
<path d="M12.0005 14.3C11.3505 14.3 10.8005 14.0833 10.3505 13.65C9.90049 13.2 9.67549 12.65 9.67549 12C9.67549 11.35 9.90049 10.8 10.3505 10.35C10.8005 9.9 11.3505 9.675 12.0005 9.675C12.6505 9.675 13.2005 9.9 13.6505 10.35C14.1005 10.8 14.3255 11.35 14.3255 12C14.3255 12.6333 14.1005 13.175 13.6505 13.625C13.2005 14.075 12.6505 14.3 12.0005 14.3ZM12.0255 13.4C12.4088 13.4 12.7338 13.2667 13.0005 13C13.2672 12.7167 13.4005 12.3833 13.4005 12C13.4005 11.6 13.2672 11.2667 13.0005 11C12.7338 10.7167 12.4005 10.575 12.0005 10.575C11.6005 10.575 11.2672 10.7167 11.0005 11C10.7338 11.2667 10.6005 11.6 10.6005 12C10.6005 12.3833 10.7338 12.7167 11.0005 13C11.2838 13.2667 11.6255 13.4 12.0255 13.4ZM12.0005 22C10.1672 22 8.48382 21.5583 6.95049 20.675C5.41716 19.7917 4.20882 18.5833 3.32549 17.05C2.44216 15.5167 2.00049 13.8333 2.00049 12C2.00049 10.1667 2.44216 8.48333 3.32549 6.95C4.20882 5.41667 5.41716 4.20833 6.95049 3.325C8.48382 2.44167 10.1672 2 12.0005 2C13.8338 2 15.5172 2.44167 17.0505 3.325C18.5838 4.20833 19.7922 5.41667 20.6755 6.95C21.5588 8.48333 22.0005 10.1667 22.0005 12C22.0005 13.8333 21.5588 15.5167 20.6755 17.05C19.7922 18.5833 18.5838 19.7917 17.0505 20.675C15.5172 21.5583 13.8338 22 12.0005 22ZM12.0005 21.05C13.6672 21.05 15.1838 20.65 16.5505 19.85C17.9338 19.05 19.0255 17.9583 19.8255 16.575C20.6255 15.175 21.0255 13.65 21.0255 12C21.0255 10.35 20.6255 8.83333 19.8255 7.45C19.0255 6.05 17.9338 4.95 16.5505 4.15C15.1838 3.35 13.6672 2.95 12.0005 2.95C10.3338 2.95 8.80882 3.35 7.42549 4.15C6.05882 4.95 4.97549 6.05 4.17549 7.45C3.37549 8.83333 2.97549 10.35 2.97549 12C2.97549 13.65 3.37549 15.175 4.17549 16.575C4.97549 17.9583 6.05882 19.05 7.42549 19.85C8.80882 20.65 10.3338 21.05 12.0005 21.05Z" fill="black"/>
</g>
<defs>
<clipPath id="clip0_3234_12950">
<rect width="24" height="24" fill="white"/>
</clipPath>
</defs>
</svg>
