<svg width="24" height="24" viewBox="0 0 24 24" fill="none" xmlns="http://www.w3.org/2000/svg">
<g clip-path="url(#clip0_3234_12968)">
<rect width="24" height="24" fill="white"/>
<path d="M12 22C10.1667 22 8.48333 21.5583 6.95 20.675C5.41667 19.7917 4.20833 18.5833 3.325 17.05C2.44167 15.5167 2 13.8333 2 12C2 10.1667 2.44167 8.48333 3.325 6.95C4.20833 5.41667 5.41667 4.20833 6.95 3.325C8.48333 2.44167 10.1667 2 12 2C13.8333 2 15.5167 2.44167 17.05 3.325C18.5833 4.20833 19.7917 5.41667 20.675 6.95C21.5583 8.48333 22 10.1667 22 12C22 13.8333 21.5583 15.5167 20.675 17.05C19.7917 18.5833 18.5833 19.7917 17.05 20.675C15.5167 21.5583 13.8333 22 12 22ZM12 14.25C12.6333 14.25 13.1667 14.0333 13.6 13.6C14.0333 13.1667 14.25 12.6333 14.25 12C14.25 11.3667 14.0333 10.8333 13.6 10.4C13.1667 9.96667 12.6333 9.75 12 9.75C11.3667 9.75 10.8333 9.96667 10.4 10.4C9.96667 10.8333 9.75 11.3667 9.75 12C9.75 12.6333 9.96667 13.1667 10.4 13.6C10.8333 14.0333 11.3667 14.25 12 14.25Z" fill="black"/>
</g>
<defs>
<clipPath id="clip0_3234_12968">
<rect width="24" height="24" fill="white"/>
</clipPath>
</defs>
</svg>
