<svg width="24" height="24" viewBox="0 0 24 24" fill="none" xmlns="http://www.w3.org/2000/svg">
<g clip-path="url(#clip0_3234_12960)">
<rect width="24" height="24" fill="white"/>
<path d="M12.0255 14.425C11.3255 14.425 10.7422 14.1917 10.2755 13.725C9.80882 13.2583 9.57549 12.6833 9.57549 12C9.57549 11.3167 9.80882 10.7417 10.2755 10.275C10.7422 9.79167 11.3255 9.55 12.0255 9.55C12.7088 9.55 13.2838 9.79167 13.7505 10.275C14.2172 10.7417 14.4505 11.3167 14.4505 12C14.4505 12.6833 14.2172 13.2583 13.7505 13.725C13.2838 14.1917 12.7088 14.425 12.0255 14.425ZM12.0005 12C11.7838 12 11.6255 12 11.5255 12C11.4255 12 11.2672 12 11.0505 12C11.2672 12 11.4255 12 11.5255 12C11.6255 12 11.7838 12 12.0005 12C12.2172 12 12.3755 12 12.4755 12C12.5755 12 12.7338 12 12.9505 12C12.7338 12 12.5755 12 12.4755 12C12.3755 12 12.2172 12 12.0005 12ZM12.0005 22C10.1672 22 8.48382 21.5583 6.95049 20.675C5.41716 19.7917 4.20882 18.5833 3.32549 17.05C2.44216 15.5167 2.00049 13.8333 2.00049 12C2.00049 10.1667 2.44216 8.48333 3.32549 6.95C4.20882 5.41667 5.41716 4.20833 6.95049 3.325C8.48382 2.44167 10.1672 2 12.0005 2C13.8338 2 15.5172 2.44167 17.0505 3.325C18.5838 4.20833 19.7922 5.41667 20.6755 6.95C21.5588 8.48333 22.0005 10.1667 22.0005 12C22.0005 13.8333 21.5588 15.5167 20.6755 17.05C19.7922 18.5833 18.5838 19.7917 17.0505 20.675C15.5172 21.5583 13.8338 22 12.0005 22ZM12.0005 18.5C13.1838 18.5 14.2672 18.2167 15.2505 17.65C16.2505 17.0667 17.0338 16.2833 17.6005 15.3C18.1672 14.3 18.4505 13.2 18.4505 12C18.4505 10.8 18.1672 9.70833 17.6005 8.725C17.0338 7.725 16.2505 6.94167 15.2505 6.375C14.2672 5.79167 13.1838 5.5 12.0005 5.5C10.8172 5.5 9.72549 5.79167 8.72549 6.375C7.74216 6.94167 6.96716 7.725 6.40049 8.725C5.83382 9.70833 5.55049 10.8 5.55049 12C5.55049 13.2 5.83382 14.3 6.40049 15.3C6.96716 16.2833 7.74216 17.0667 8.72549 17.65C9.72549 18.2167 10.8172 18.5 12.0005 18.5Z" fill="black"/>
</g>
<defs>
<clipPath id="clip0_3234_12960">
<rect width="24" height="24" fill="white"/>
</clipPath>
</defs>
</svg>
