<svg width="24" height="24" viewBox="0 0 24 24" fill="none" xmlns="http://www.w3.org/2000/svg">
<g clip-path="url(#clip0_3219_8459)">
<rect width="24" height="24" fill="white"/>
<path d="M12.0005 8.1C11.3838 8.1 10.8172 7.95 10.3005 7.65C9.78382 7.35 9.37549 6.95 9.07549 6.45C8.77549 5.93333 8.62549 5.36667 8.62549 4.75C8.62549 4.13333 8.77549 3.575 9.07549 3.075C9.37549 2.55833 9.78382 2.15 10.3005 1.85C10.8172 1.55 11.3838 1.4 12.0005 1.4C12.6172 1.4 13.1838 1.55 13.7005 1.85C14.2172 2.15 14.6255 2.55833 14.9255 3.075C15.2255 3.575 15.3755 4.13333 15.3755 4.75C15.3755 5.36667 15.2255 5.93333 14.9255 6.45C14.6255 6.95 14.2172 7.35 13.7005 7.65C13.1838 7.95 12.6172 8.1 12.0005 8.1ZM12.0005 7.625C12.8005 7.625 13.4755 7.35 14.0255 6.8C14.5922 6.23333 14.8755 5.55 14.8755 4.75C14.8755 3.95 14.5922 3.275 14.0255 2.725C13.4755 2.15833 12.8005 1.875 12.0005 1.875C11.2005 1.875 10.5172 2.15833 9.95049 2.725C9.40049 3.275 9.12549 3.95 9.12549 4.75C9.12549 5.55 9.40049 6.23333 9.95049 6.8C10.5172 7.35 11.2005 7.625 12.0005 7.625ZM5.10049 13.1C4.48382 13.1 3.91716 12.95 3.40049 12.65C2.88382 12.35 2.47549 11.95 2.17549 11.45C1.87549 10.9333 1.72549 10.3667 1.72549 9.75C1.72549 9.13333 1.87549 8.575 2.17549 8.075C2.47549 7.55833 2.88382 7.15 3.40049 6.85C3.91716 6.55 4.48382 6.4 5.10049 6.4C5.71716 6.4 6.28382 6.55 6.80049 6.85C7.31716 7.15 7.72549 7.55833 8.02549 8.075C8.32549 8.575 8.47549 9.13333 8.47549 9.75C8.47549 10.3667 8.32549 10.9333 8.02549 11.45C7.72549 11.95 7.31716 12.35 6.80049 12.65C6.28382 12.95 5.71716 13.1 5.10049 13.1ZM5.10049 12.625C5.90049 12.625 6.57549 12.35 7.12549 11.8C7.69216 11.2333 7.97549 10.55 7.97549 9.75C7.97549 8.95 7.69216 8.275 7.12549 7.725C6.57549 7.15833 5.90049 6.875 5.10049 6.875C4.30049 6.875 3.61716 7.15833 3.05049 7.725C2.50049 8.275 2.22549 8.95 2.22549 9.75C2.22549 10.55 2.50049 11.2333 3.05049 11.8C3.61716 12.35 4.30049 12.625 5.10049 12.625ZM18.9005 13.1C18.2838 13.1 17.7172 12.95 17.2005 12.65C16.6838 12.35 16.2755 11.95 15.9755 11.45C15.6755 10.9333 15.5255 10.3667 15.5255 9.75C15.5255 9.13333 15.6755 8.575 15.9755 8.075C16.2755 7.55833 16.6838 7.15 17.2005 6.85C17.7172 6.55 18.2838 6.4 18.9005 6.4C19.5172 6.4 20.0838 6.55 20.6005 6.85C21.1172 7.15 21.5255 7.55833 21.8255 8.075C22.1255 8.575 22.2755 9.13333 22.2755 9.75C22.2755 10.3667 22.1255 10.9333 21.8255 11.45C21.5255 11.95 21.1172 12.35 20.6005 12.65C20.0838 12.95 19.5172 13.1 18.9005 13.1ZM18.9005 12.625C19.7005 12.625 20.3755 12.35 20.9255 11.8C21.4922 11.2333 21.7755 10.55 21.7755 9.75C21.7755 8.95 21.4922 8.275 20.9255 7.725C20.3755 7.15833 19.7005 6.875 18.9005 6.875C18.1005 6.875 17.4172 7.15833 16.8505 7.725C16.3005 8.275 16.0255 8.95 16.0255 9.75C16.0255 10.55 16.3005 11.2333 16.8505 11.8C17.4172 12.35 18.1005 12.625 18.9005 12.625ZM16.2505 21.2C15.6338 21.2 15.0672 21.05 14.5505 20.75C14.0338 20.45 13.6255 20.05 13.3255 19.55C13.0255 19.0333 12.8755 18.4667 12.8755 17.85C12.8755 17.2333 13.0255 16.675 13.3255 16.175C13.6255 15.6583 14.0338 15.25 14.5505 14.95C15.0672 14.65 15.6338 14.5 16.2505 14.5C16.8672 14.5 17.4338 14.65 17.9505 14.95C18.4672 15.25 18.8755 15.6583 19.1755 16.175C19.4755 16.675 19.6255 17.225 19.6255 17.825C19.6255 18.4417 19.4755 19.0083 19.1755 19.525C18.8755 20.0417 18.4672 20.45 17.9505 20.75C17.4338 21.05 16.8672 21.2 16.2505 21.2ZM16.2005 20.725C17.0172 20.725 17.7088 20.45 18.2755 19.9C18.8422 19.3333 19.1255 18.65 19.1255 17.85C19.1255 17.0333 18.8422 16.35 18.2755 15.8C17.7255 15.2333 17.0505 14.95 16.2505 14.95C15.4505 14.95 14.7672 15.2333 14.2005 15.8C13.6505 16.35 13.3755 17.0333 13.3755 17.85C13.3755 18.65 13.6505 19.3333 14.2005 19.9C14.7505 20.45 15.4172 20.725 16.2005 20.725ZM7.72549 21.225C7.10882 21.225 6.53382 21.075 6.00049 20.775C5.48382 20.475 5.07549 20.0667 4.77549 19.55C4.47549 19.0333 4.32549 18.4667 4.32549 17.85C4.32549 17.2333 4.47549 16.675 4.77549 16.175C5.07549 15.6583 5.48382 15.25 6.00049 14.95C6.53382 14.65 7.10882 14.5 7.72549 14.5C8.34216 14.5 8.90882 14.65 9.42549 14.95C9.94216 15.25 10.3505 15.6583 10.6505 16.175C10.9505 16.675 11.1005 17.2333 11.1005 17.85C11.1005 18.4667 10.9505 19.0333 10.6505 19.55C10.3505 20.0667 9.94216 20.475 9.42549 20.775C8.90882 21.075 8.34216 21.225 7.72549 21.225ZM7.67549 20.725C8.49216 20.725 9.18382 20.45 9.75049 19.9C10.3172 19.3333 10.6005 18.65 10.6005 17.85C10.6005 17.05 10.3172 16.375 9.75049 15.825C9.18382 15.2583 8.49216 14.975 7.67549 14.975C6.89216 14.975 6.22549 15.2583 5.67549 15.825C5.12549 16.375 4.85049 17.05 4.85049 17.85C4.85049 18.65 5.12549 19.3333 5.67549 19.9C6.22549 20.45 6.89216 20.725 7.67549 20.725Z" fill="black"/>
</g>
<defs>
<clipPath id="clip0_3219_8459">
<rect width="24" height="24" fill="white"/>
</clipPath>
</defs>
</svg>
