<svg width="24" height="24" viewBox="0 0 24 24" fill="none" xmlns="http://www.w3.org/2000/svg">
<g clip-path="url(#clip0_3219_8585)">
<rect width="24" height="24" fill="white"/>
<path d="M20.5005 9.525V3.475H14.5005V9.525H20.5005ZM14.0005 3H21.0005V10H14.0005V3ZM9.50049 20.525V14.475H3.50049V20.525H9.50049ZM3.00049 14H10.0005V21H3.00049V14ZM9.50049 9.525V3.475H3.50049V9.525H9.50049ZM3.00049 3H10.0005V10H3.00049V3ZM14.0005 14H14.7505V14.75H14.0005V14ZM20.2505 14H21.0005V14.75H20.2505V14ZM14.0005 20.25H14.7505V21H14.0005V20.25ZM20.2505 20.25H21.0005V21H20.2505V20.25ZM17.1255 17.125H17.8755V17.875H17.1255V17.125Z" fill="black"/>
</g>
<defs>
<clipPath id="clip0_3219_8585">
<rect width="24" height="24" fill="white"/>
</clipPath>
</defs>
</svg>
