<svg width="24" height="24" viewBox="0 0 24 24" fill="none" xmlns="http://www.w3.org/2000/svg">
<g clip-path="url(#clip0_3219_10832)">
<rect width="24" height="24" fill="white"/>
<path d="M2.00049 16.15V7.85L7.85049 2H16.1505L22.0005 7.85V16.15L16.1505 22H7.85049L2.00049 16.15ZM15.7505 21.075L21.0255 15.75V8.25L15.7505 2.925H8.25049L2.97549 8.25V15.75L8.25049 21.075H15.7505ZM12.5505 6.8L12.4255 13.275H11.5755L11.4505 6.8H12.5505ZM12.0005 15.425C12.2172 15.425 12.3922 15.5 12.5255 15.65C12.6755 15.8 12.7505 15.9833 12.7505 16.2C12.7505 16.4167 12.6755 16.5917 12.5255 16.725C12.3922 16.8583 12.2172 16.925 12.0005 16.925C11.7838 16.925 11.6005 16.8583 11.4505 16.725C11.3172 16.5917 11.2505 16.4167 11.2505 16.2C11.2505 15.9833 11.3172 15.8 11.4505 15.65C11.6005 15.5 11.7838 15.425 12.0005 15.425Z" fill="black"/>
</g>
<defs>
<clipPath id="clip0_3219_10832">
<rect width="24" height="24" fill="white"/>
</clipPath>
</defs>
</svg>
