<svg width="24" height="24" viewBox="0 0 24 24" fill="none" xmlns="http://www.w3.org/2000/svg">
<g clip-path="url(#clip0_3219_10840)">
<rect width="24" height="24" fill="white"/>
<path d="M2.00049 16.15V7.85L7.85049 2H16.1505L22.0005 7.85V16.15L16.1505 22H7.85049L2.00049 16.15ZM14.9255 19.075L19.0255 14.95V9.05L14.9255 4.925H9.07549L4.97549 9.05V14.95L9.07549 19.075H14.9255ZM13.6255 6.875L13.3255 12.475H10.6505L10.3755 6.875H13.6255ZM12.0005 13.675C12.5172 13.675 12.9338 13.8417 13.2505 14.175C13.5838 14.4917 13.7505 14.9083 13.7505 15.425C13.7505 15.9583 13.5838 16.3833 13.2505 16.7C12.9338 17.0167 12.5172 17.175 12.0005 17.175C11.4838 17.175 11.0588 17.0167 10.7255 16.7C10.4088 16.3833 10.2505 15.9583 10.2505 15.425C10.2505 14.9083 10.4088 14.4917 10.7255 14.175C11.0588 13.8417 11.4838 13.675 12.0005 13.675Z" fill="black"/>
</g>
<defs>
<clipPath id="clip0_3219_10840">
<rect width="24" height="24" fill="white"/>
</clipPath>
</defs>
</svg>
