<svg width="24" height="24" viewBox="0 0 24 24" fill="none" xmlns="http://www.w3.org/2000/svg">
<g clip-path="url(#clip0_3219_8563)">
<rect width="24" height="24" fill="white"/>
<path d="M2.00049 16.15V7.85L7.85049 2H16.1505L22.0005 7.85V16.15L16.1505 22H7.85049L2.00049 16.15ZM15.9255 21.525L21.5005 15.925V8.075L15.9255 2.475H8.07549L2.50049 8.075V15.925L8.07549 21.525H15.9255ZM12.3005 6.8L12.2255 13.5H11.7755L11.7005 6.8H12.3005ZM12.0005 15.925C12.1338 15.925 12.2505 15.975 12.3505 16.075C12.4505 16.175 12.5005 16.3 12.5005 16.45C12.5005 16.5833 12.4505 16.7 12.3505 16.8C12.2505 16.8833 12.1338 16.925 12.0005 16.925C11.8505 16.925 11.7255 16.8833 11.6255 16.8C11.5422 16.7 11.5005 16.5833 11.5005 16.45C11.5005 16.3 11.5422 16.175 11.6255 16.075C11.7255 15.975 11.8505 15.925 12.0005 15.925Z" fill="black"/>
</g>
<defs>
<clipPath id="clip0_3219_8563">
<rect width="24" height="24" fill="white"/>
</clipPath>
</defs>
</svg>
