<svg width="24" height="24" viewBox="0 0 24 24" fill="none" xmlns="http://www.w3.org/2000/svg">
<g clip-path="url(#clip0_3216_2590)">
<rect width="24" height="24" fill="white"/>
<path d="M17 21C17.7333 21 18.4083 20.825 19.025 20.475C19.6417 20.125 20.125 19.6417 20.475 19.025C20.825 18.4083 21 17.7333 21 17V14H19.15V17C19.15 17.6167 18.9417 18.1417 18.525 18.575C18.1083 18.9917 17.6 19.2 17 19.2H14V21H17ZM17 4.8C17.6 4.8 18.1083 5.01667 18.525 5.45C18.9417 5.86667 19.15 6.38333 19.15 7V10H21V7C21 6.26667 20.825 5.59167 20.475 4.975C20.125 4.35833 19.6417 3.875 19.025 3.525C18.4083 3.175 17.7333 3 17 3H14V4.8H17ZM7 19.2C6.4 19.2 5.89167 18.9917 5.475 18.575C5.05833 18.1417 4.85 17.6167 4.85 17V14H3V17C3 17.7333 3.175 18.4083 3.525 19.025C3.875 19.6417 4.35833 20.125 4.975 20.475C5.59167 20.825 6.26667 21 7 21H10V19.2H7ZM7 3C6.26667 3 5.59167 3.175 4.975 3.525C4.35833 3.875 3.875 4.35833 3.525 4.975C3.175 5.59167 3 6.26667 3 7V10H4.85V7C4.85 6.38333 5.05833 5.86667 5.475 5.45C5.89167 5.01667 6.4 4.8 7 4.8H10V3H7ZM7.8 6.8H13.9L16.2 9.075V17.3H7.8V6.8Z" fill="black"/>
</g>
<defs>
<clipPath id="clip0_3216_2590">
<rect width="24" height="24" fill="white"/>
</clipPath>
</defs>
</svg>
