<svg width="24" height="24" viewBox="0 0 24 24" fill="none" xmlns="http://www.w3.org/2000/svg">
<g clip-path="url(#clip0_3216_2972)">
<rect width="24" height="24" fill="white"/>
<path d="M18.7755 20.4C18.0922 20.8 17.3338 21 16.5005 21H13.5005V17.55H16.5005C16.7838 17.55 17.0172 17.45 17.2005 17.25C17.4005 17.05 17.5005 16.8 17.5005 16.5V13.5H21.0005V16.5C21.0005 17.3333 20.8005 18.0917 20.4005 18.775C20.0005 19.4583 19.4588 20 18.7755 20.4ZM17.2005 6.75C17.0172 6.55 16.7838 6.45 16.5005 6.45H13.5005V3H16.5005C17.3338 3 18.0922 3.2 18.7755 3.6C19.4588 4 20.0005 4.54167 20.4005 5.225C20.8005 5.90833 21.0005 6.66667 21.0005 7.5V10.5H17.5005V7.5C17.5005 7.2 17.4005 6.95 17.2005 6.75ZM6.77549 17.25C6.97549 17.45 7.21716 17.55 7.50049 17.55H10.5005V21H7.50049C6.66716 21 5.90882 20.8 5.22549 20.4C4.54216 20 4.00049 19.4583 3.60049 18.775C3.20049 18.0917 3.00049 17.3333 3.00049 16.5V13.5H6.50049V16.5C6.50049 16.8 6.59216 17.05 6.77549 17.25ZM5.22549 3.6C5.90882 3.2 6.66716 3 7.50049 3H10.5005V6.45H7.50049C7.21716 6.45 6.97549 6.55 6.77549 6.75C6.59216 6.95 6.50049 7.2 6.50049 7.5V10.5H3.00049V7.5C3.00049 6.66667 3.20049 5.90833 3.60049 5.225C4.00049 4.54167 4.54216 4 5.22549 3.6ZM7.92549 16H9.72549V8H7.92549V16ZM13.3505 16H16.0505V8H13.3505V16ZM10.6255 16H12.4505V8H10.6255V16ZM11.6505 12.025H11.8505H11.6505Z" fill="black"/>
</g>
<defs>
<clipPath id="clip0_3216_2972">
<rect width="24" height="24" fill="white"/>
</clipPath>
</defs>
</svg>
