<svg width="24" height="24" viewBox="0 0 24 24" fill="none" xmlns="http://www.w3.org/2000/svg">
<g clip-path="url(#clip0_3396_12292)">
<rect width="24" height="24" fill="white"/>
<path d="M19.025 20.475C18.4083 20.825 17.7333 21 17 21H14V19.2H17C17.6 19.2 18.1083 18.9917 18.525 18.575C18.9417 18.1417 19.15 17.6167 19.15 17V14H21V17C21 17.7333 20.825 18.4083 20.475 19.025C20.125 19.6417 19.6417 20.125 19.025 20.475ZM18.525 5.45C18.1083 5.01667 17.6 4.8 17 4.8H14V3H17C17.7333 3 18.4083 3.175 19.025 3.525C19.6417 3.875 20.125 4.35833 20.475 4.975C20.825 5.59167 21 6.26667 21 7V10H19.15V7C19.15 6.38333 18.9417 5.86667 18.525 5.45ZM5.475 18.575C5.89167 18.9917 6.4 19.2 7 19.2H10V21H7C6.26667 21 5.59167 20.825 4.975 20.475C4.35833 20.125 3.875 19.6417 3.525 19.025C3.175 18.4083 3 17.7333 3 17V14H4.85V17C4.85 17.6167 5.05833 18.1417 5.475 18.575ZM4.975 3.525C5.59167 3.175 6.26667 3 7 3H10V4.8H7C6.4 4.8 5.89167 5.01667 5.475 5.45C5.05833 5.86667 4.85 6.38333 4.85 7V10H3V7C3 6.26667 3.175 5.59167 3.525 4.975C3.875 4.35833 4.35833 3.875 4.975 3.525ZM7 7V11.125H11.125V7H7ZM12.875 7V11.125H17V7H12.875ZM7.025 12.875V17H11.15V12.875H7.025Z" fill="black"/>
</g>
<defs>
<clipPath id="clip0_3396_12292">
<rect width="24" height="24" fill="white"/>
</clipPath>
</defs>
</svg>
