<svg width="24" height="24" viewBox="0 0 24 24" fill="none" xmlns="http://www.w3.org/2000/svg">
<g clip-path="url(#clip0_3216_2578)">
<rect width="24" height="24" fill="white"/>
<path d="M18.9255 20.45C18.2922 20.8167 17.5922 21 16.8255 21H13.8255V18.65H16.8255C17.3255 18.65 17.7422 18.475 18.0755 18.125C18.4255 17.775 18.6005 17.3417 18.6005 16.825V13.825H21.0005V16.825C21.0005 17.5917 20.8172 18.3 20.4505 18.95C20.0838 19.5833 19.5755 20.0833 18.9255 20.45ZM18.0755 5.875C17.7422 5.525 17.3255 5.35 16.8255 5.35H13.8255V3H16.8255C17.5922 3 18.2922 3.18333 18.9255 3.55C19.5755 3.91667 20.0838 4.425 20.4505 5.075C20.8172 5.70833 21.0005 6.40833 21.0005 7.175V10.175H18.6005V7.175C18.6005 6.65833 18.4255 6.225 18.0755 5.875ZM5.90049 18.125C6.25049 18.475 6.67549 18.65 7.17549 18.65H10.1755V21H7.17549C6.40882 21 5.70049 20.8167 5.05049 20.45C4.41716 20.0833 3.91716 19.5833 3.55049 18.95C3.18382 18.3 3.00049 17.5917 3.00049 16.825V13.825H5.40049V16.825C5.40049 17.3417 5.56716 17.775 5.90049 18.125ZM5.05049 3.55C5.70049 3.18333 6.40882 3 7.17549 3H10.1755V5.35H7.17549C6.67549 5.35 6.25049 5.525 5.90049 5.875C5.56716 6.225 5.40049 6.65833 5.40049 7.175V10.175H3.00049V7.175C3.00049 6.40833 3.18382 5.70833 3.55049 5.075C3.91716 4.425 4.41716 3.91667 5.05049 3.55ZM13.8255 14.7H10.1755V9.275H12.7755L13.8255 10.3V14.7ZM8.02549 7.15V16.825H15.9755V9.45L13.6755 7.15H8.02549Z" fill="black"/>
</g>
<defs>
<clipPath id="clip0_3216_2578">
<rect width="24" height="24" fill="white"/>
</clipPath>
</defs>
</svg>
