<svg width="24" height="24" viewBox="0 0 24 24" fill="none" xmlns="http://www.w3.org/2000/svg">
<g clip-path="url(#clip0_3396_12278)">
<rect width="24" height="24" fill="white"/>
<path d="M19.0255 20.475C18.4088 20.825 17.7338 21 17.0005 21H14.0005V19.2H17.0005C17.6005 19.2 18.1088 18.9917 18.5255 18.575C18.9422 18.1417 19.1505 17.6167 19.1505 17V14H21.0005V17C21.0005 17.7333 20.8255 18.4083 20.4755 19.025C20.1255 19.6417 19.6422 20.125 19.0255 20.475ZM18.5255 5.45C18.1088 5.01667 17.6005 4.8 17.0005 4.8H14.0005V3H17.0005C17.7338 3 18.4088 3.175 19.0255 3.525C19.6422 3.875 20.1255 4.35833 20.4755 4.975C20.8255 5.59167 21.0005 6.26667 21.0005 7V10H19.1505V7C19.1505 6.38333 18.9422 5.86667 18.5255 5.45ZM5.47549 18.575C5.89216 18.9917 6.40049 19.2 7.00049 19.2H10.0005V21H7.00049C6.26716 21 5.59216 20.825 4.97549 20.475C4.35882 20.125 3.87549 19.6417 3.52549 19.025C3.17549 18.4083 3.00049 17.7333 3.00049 17V14H4.85049V17C4.85049 17.6167 5.05882 18.1417 5.47549 18.575ZM4.97549 3.525C5.59216 3.175 6.26716 3 7.00049 3H10.0005V4.8H7.00049C6.40049 4.8 5.89216 5.01667 5.47549 5.45C5.05882 5.86667 4.85049 6.38333 4.85049 7V10H3.00049V7C3.00049 6.26667 3.17549 5.59167 3.52549 4.975C3.87549 4.35833 4.35882 3.875 4.97549 3.525ZM6.75049 6.75V11.375H11.3755V6.75H6.75049ZM9.95049 9.95H8.17549V8.175H9.95049V9.95ZM12.6255 6.75V11.375H17.2505V6.75H12.6255ZM15.8255 9.95H14.0505V8.175H15.8255V9.95ZM6.77549 12.625V17.25H11.4005V12.625H6.77549ZM9.97549 15.825H8.20049V14.05H9.97549V15.825Z" fill="black"/>
</g>
<defs>
<clipPath id="clip0_3396_12278">
<rect width="24" height="24" fill="white"/>
</clipPath>
</defs>
</svg>
