<svg width="24" height="24" viewBox="0 0 24 24" fill="none" xmlns="http://www.w3.org/2000/svg">
<g clip-path="url(#clip0_3219_10688)">
<rect width="24" height="24" fill="white"/>
<path d="M19.275 20.55C18.7417 20.85 18.15 21 17.5 21H14V20.525H17.5C18.3333 20.525 19.0417 20.2333 19.625 19.65C20.2083 19.0667 20.5 18.3583 20.5 17.525V14.175H21V17.5C21 18.1333 20.8417 18.725 20.525 19.275C20.225 19.8083 19.8083 20.2333 19.275 20.55ZM19.625 4.35C19.0417 3.76667 18.3333 3.475 17.5 3.475H14V3H17.5C18.15 3 18.7417 3.15833 19.275 3.475C19.8083 3.775 20.225 4.19167 20.525 4.725C20.8417 5.25833 21 5.85 21 6.5V9.7H20.5V6.5C20.5 5.65 20.2083 4.93333 19.625 4.35ZM4.375 19.65C4.95833 20.2333 5.66667 20.525 6.5 20.525H10V21H6.5C5.86667 21 5.275 20.85 4.725 20.55C4.19167 20.2333 3.76667 19.8083 3.45 19.275C3.15 18.725 3 18.1333 3 17.5V14.175H3.5V17.525C3.5 18.3583 3.79167 19.0667 4.375 19.65ZM4.725 3.475C5.275 3.15833 5.86667 3 6.5 3H10V3.475H6.5C5.66667 3.475 4.95833 3.76667 4.375 4.35C3.79167 4.93333 3.5 5.65 3.5 6.5V9.7H3V6.5C3 5.85 3.15 5.25833 3.45 4.725C3.76667 4.19167 4.19167 3.775 4.725 3.475ZM21 11.7H3V12.175H21V11.7Z" fill="black"/>
</g>
<defs>
<clipPath id="clip0_3219_10688">
<rect width="24" height="24" fill="white"/>
</clipPath>
</defs>
</svg>
