<svg width="24" height="24" viewBox="0 0 24 24" fill="none" xmlns="http://www.w3.org/2000/svg">
<g clip-path="url(#clip0_3216_2584)">
<rect width="24" height="24" fill="white"/>
<path d="M17.5 21C18.15 21 18.7417 20.85 19.275 20.55C19.8083 20.2333 20.225 19.8083 20.525 19.275C20.8417 18.725 21 18.1333 21 17.5V14H20.5V17.525C20.5 18.3583 20.2083 19.0667 19.625 19.65C19.0417 20.2333 18.3333 20.525 17.5 20.525H14V21H17.5ZM17.5 3.475C18.3333 3.475 19.0417 3.76667 19.625 4.35C20.2083 4.93333 20.5 5.65 20.5 6.5V10H21V6.5C21 5.85 20.8417 5.25833 20.525 4.725C20.225 4.19167 19.8083 3.775 19.275 3.475C18.7417 3.15833 18.15 3 17.5 3H14V3.475H17.5ZM6.5 20.525C5.66667 20.525 4.95833 20.2333 4.375 19.65C3.79167 19.0667 3.5 18.3583 3.5 17.525V14H3V17.5C3 18.1333 3.15 18.725 3.45 19.275C3.76667 19.8083 4.19167 20.2333 4.725 20.55C5.275 20.85 5.86667 21 6.5 21H10V20.525H6.5ZM6.5 3C5.86667 3 5.275 3.15833 4.725 3.475C4.19167 3.775 3.76667 4.19167 3.45 4.725C3.15 5.25833 3 5.85 3 6.5V10H3.5V6.5C3.5 5.65 3.79167 4.93333 4.375 4.35C4.95833 3.76667 5.66667 3.475 6.5 3.475H10V3H6.5ZM7.8 6.8H13.9L16.2 9.075V17.3H7.8V6.8Z" fill="black"/>
</g>
<defs>
<clipPath id="clip0_3216_2584">
<rect width="24" height="24" fill="white"/>
</clipPath>
</defs>
</svg>
