<svg width="24" height="24" viewBox="0 0 24 24" fill="none" xmlns="http://www.w3.org/2000/svg">
<g clip-path="url(#clip0_3218_7518)">
<rect width="24" height="24" fill="white"/>
<path d="M10.5 19C8.93333 19 7.5 18.625 6.2 17.875C4.9 17.125 3.875 16.1 3.125 14.8C2.375 13.5 2 12.0667 2 10.5C2 8.93333 2.375 7.5 3.125 6.2C3.875 4.9 4.9 3.875 6.2 3.125C7.5 2.375 8.93333 2 10.5 2C12.0667 2 13.5 2.375 14.8 3.125C16.1 3.875 17.125 4.9 17.875 6.2C18.625 7.5 19 8.93333 19 10.5C19 12.0667 18.625 13.5 17.875 14.8C17.125 16.1 16.1 17.125 14.8 17.875C13.5 18.625 12.0667 19 10.5 19ZM10.5 17.2C11.7167 17.2 12.8333 16.9083 13.85 16.325C14.8667 15.725 15.6667 14.9167 16.25 13.9C16.85 12.8667 17.15 11.7333 17.15 10.5C17.15 9.26667 16.85 8.14167 16.25 7.125C15.6667 6.09167 14.8667 5.28333 13.85 4.7C12.8333 4.1 11.7167 3.8 10.5 3.8C9.28333 3.8 8.16667 4.1 7.15 4.7C6.13333 5.28333 5.325 6.09167 4.725 7.125C4.14167 8.14167 3.85 9.26667 3.85 10.5C3.85 11.7333 4.14167 12.8667 4.725 13.9C5.325 14.9167 6.13333 15.725 7.15 16.325C8.16667 16.9083 9.28333 17.2 10.5 17.2ZM14.85 16.15L16.15 14.85L21.65 20.35L20.35 21.65L14.85 16.15ZM7.825 12.425C7.825 11.8417 8.05 11.4 8.5 11.1C8.96667 10.7833 9.60833 10.625 10.425 10.625C11.2583 10.625 11.9167 10.7833 12.4 11.1C12.8833 11.4 13.125 11.8417 13.125 12.425V13.325H7.825V12.425ZM10.425 9.75C10.025 9.75 9.68333 9.61667 9.4 9.35C9.13333 9.06667 9 8.71667 9 8.3C9 7.9 9.13333 7.55833 9.4 7.275C9.68333 6.99167 10.025 6.85 10.425 6.85C10.825 6.85 11.1667 7 11.45 7.3C11.7333 7.58333 11.875 7.91667 11.875 8.3C11.875 8.71667 11.7333 9.06667 11.45 9.35C11.1667 9.61667 10.825 9.75 10.425 9.75Z" fill="black"/>
</g>
<defs>
<clipPath id="clip0_3218_7518">
<rect width="24" height="24" fill="white"/>
</clipPath>
</defs>
</svg>
