<svg width="24" height="24" viewBox="0 0 24 24" fill="none" xmlns="http://www.w3.org/2000/svg">
<g clip-path="url(#clip0_3218_6830)">
<rect width="24" height="24" fill="white"/>
<path d="M10.6755 19.35C9.07549 19.35 7.60882 18.9667 6.27549 18.2C4.95882 17.4333 3.91716 16.3917 3.15049 15.075C2.38382 13.7417 2.00049 12.275 2.00049 10.675C2.00049 9.075 2.38382 7.61667 3.15049 6.3C3.91716 4.96667 4.96716 3.91667 6.30049 3.15C7.63382 2.38333 9.09216 2 10.6755 2C12.2755 2 13.7338 2.38333 15.0505 3.15C16.3838 3.91667 17.4338 4.96667 18.2005 6.3C18.9672 7.61667 19.3505 9.075 19.3505 10.675C19.3505 12.275 18.9672 13.7417 18.2005 15.075C17.4338 16.3917 16.3838 17.4333 15.0505 18.2C13.7338 18.9667 12.2755 19.35 10.6755 19.35ZM10.6755 17.025C11.8255 17.025 12.8755 16.7417 13.8255 16.175C14.7922 15.6083 15.5588 14.8417 16.1255 13.875C16.6922 12.9083 16.9755 11.8417 16.9755 10.675C16.9755 9.525 16.6922 8.46667 16.1255 7.5C15.5755 6.51667 14.8172 5.75 13.8505 5.2C12.9005 4.63333 11.8505 4.35 10.7005 4.35C9.53382 4.35 8.46716 4.63333 7.50049 5.2C6.55049 5.75 5.79216 6.51667 5.22549 7.5C4.67549 8.46667 4.40049 9.525 4.40049 10.675C4.40049 11.825 4.67549 12.8917 5.22549 13.875C5.79216 14.8417 6.55049 15.6083 7.50049 16.175C8.46716 16.7417 9.52549 17.025 10.6755 17.025ZM14.4755 16.15L16.1505 14.475L21.6505 19.925L19.9255 21.65L14.4755 16.15ZM7.70049 11.925L10.2255 9.4C10.2755 9.45 10.3172 9.49167 10.3505 9.525C10.3838 9.55833 10.4255 9.6 10.4755 9.65L11.6255 10.825C11.6755 10.875 11.7088 10.9167 11.7255 10.95C11.7588 10.9667 11.8005 11 11.8505 11.05L9.32549 13.575L7.45049 13.825L7.70049 11.925ZM8.80049 12.425H8.95049C8.96716 12.425 8.97549 12.425 8.97549 12.425C8.97549 12.425 8.96716 12.425 8.95049 12.425H8.90049H8.72549H8.80049ZM11.2755 8.35L12.1755 7.45C12.3255 7.3 12.5005 7.225 12.7005 7.225C12.9005 7.225 13.0755 7.3 13.2255 7.45L13.8255 8.05C13.9588 8.18333 14.0255 8.35833 14.0255 8.575C14.0255 8.775 13.9588 8.95 13.8255 9.1L12.9255 9.975L11.2755 8.35Z" fill="black"/>
</g>
<defs>
<clipPath id="clip0_3218_6830">
<rect width="24" height="24" fill="white"/>
</clipPath>
</defs>
</svg>
