<svg width="24" height="24" viewBox="0 0 24 24" fill="none" xmlns="http://www.w3.org/2000/svg">
<g clip-path="url(#clip0_3218_6838)">
<rect width="24" height="24" fill="white"/>
<path d="M10.175 18.325C8.65833 18.325 7.275 17.9667 6.025 17.25C4.775 16.5333 3.79167 15.55 3.075 14.3C2.35833 13.05 2 11.675 2 10.175C2 8.65833 2.35833 7.275 3.075 6.025C3.79167 4.775 4.775 3.79167 6.025 3.075C7.275 2.35833 8.65833 2 10.175 2C11.675 2 13.05 2.35833 14.3 3.075C15.55 3.79167 16.5333 4.775 17.25 6.025C17.9667 7.275 18.325 8.65833 18.325 10.175C18.325 11.675 17.9667 13.05 17.25 14.3C16.5333 15.55 15.55 16.5333 14.3 17.25C13.05 17.9667 11.675 18.325 10.175 18.325ZM10.175 17.425C11.4917 17.425 12.7 17.1083 13.8 16.475C14.9 15.825 15.7667 14.95 16.4 13.85C17.05 12.7333 17.375 11.5083 17.375 10.175C17.375 8.84167 17.05 7.625 16.4 6.525C15.7667 5.40833 14.9 4.53333 13.8 3.9C12.7 3.25 11.4917 2.925 10.175 2.925C8.84167 2.925 7.625 3.24167 6.525 3.875C5.425 4.50833 4.55 5.38333 3.9 6.5C3.26667 7.61667 2.95 8.84167 2.95 10.175C2.95 11.5083 3.26667 12.7333 3.9 13.85C4.55 14.95 5.425 15.825 6.525 16.475C7.625 17.1083 8.84167 17.425 10.175 17.425ZM15.175 15.85L15.85 15.175L21.65 20.975L20.975 21.65L15.175 15.85ZM7.175 11.7L10.425 8.45C10.475 8.5 10.5 8.53333 10.5 8.55C10.5167 8.55 10.55 8.575 10.6 8.625L11.7 9.75C11.7167 9.76667 11.7333 9.78333 11.75 9.8C11.7667 9.81667 11.7917 9.84167 11.825 9.875L8.575 13.125L6.925 13.375L7.175 11.7ZM11 7.875L11.9 6.95C12.0333 6.81667 12.175 6.75 12.325 6.75C12.475 6.75 12.6167 6.81667 12.75 6.95L13.325 7.525C13.4583 7.65833 13.525 7.8 13.525 7.95C13.525 8.1 13.4583 8.24167 13.325 8.375L12.4 9.275L11 7.875Z" fill="black"/>
</g>
<defs>
<clipPath id="clip0_3218_6838">
<rect width="24" height="24" fill="white"/>
</clipPath>
</defs>
</svg>
