<svg width="24" height="24" viewBox="0 0 24 24" fill="none" xmlns="http://www.w3.org/2000/svg">
<g clip-path="url(#clip0_3218_6848)">
<rect width="24" height="24" fill="white"/>
<path d="M11.05 20.075C9.38333 20.075 7.85833 19.675 6.475 18.875C5.09167 18.075 4 16.9833 3.2 15.6C2.4 14.2167 2 12.6917 2 11.025C2 9.375 2.4 7.85833 3.2 6.475C4.01667 5.09167 5.11667 4 6.5 3.2C7.88333 2.4 9.4 2 11.05 2C12.7 2 14.2167 2.4 15.6 3.2C16.9833 4 18.075 5.09167 18.875 6.475C19.675 7.85833 20.075 9.375 20.075 11.025C20.075 12.675 19.675 14.1917 18.875 15.575C18.075 16.9583 16.9833 18.0583 15.6 18.875C14.2167 19.675 12.7 20.075 11.05 20.075ZM11.05 16.65C12.05 16.65 12.975 16.4 13.825 15.9C14.675 15.4 15.35 14.7167 15.85 13.85C16.35 12.9833 16.6 12.05 16.6 11.05C16.6 10.0333 16.35 9.1 15.85 8.25C15.3667 7.38333 14.7 6.7 13.85 6.2C13.0167 5.68333 12.0917 5.425 11.075 5.425C10.0417 5.425 9.1 5.68333 8.25 6.2C7.4 6.7 6.725 7.38333 6.225 8.25C5.725 9.1 5.475 10.025 5.475 11.025C5.475 12.025 5.725 12.9583 6.225 13.825C6.725 14.6917 7.4 15.3833 8.25 15.9C9.1 16.4 10.0333 16.65 11.05 16.65ZM13.75 16.175L16.175 13.75L21.625 19.1L19.1 21.625L13.75 16.175ZM8.075 11.125L11.65 7.525C11.8833 7.29167 12.1167 7.175 12.35 7.175C12.6 7.175 12.8333 7.29167 13.05 7.525L14.375 8.85C14.6083 9.06667 14.725 9.3 14.725 9.55C14.725 9.78333 14.6083 10.0167 14.375 10.25L10.775 13.875L7.825 14.125L8.075 11.125ZM13 8.8H13.075C13.0917 8.8 13.1 8.8 13.1 8.8C13.1167 8.8 13.1333 8.8 13.15 8.8H13.2C13.2167 8.8 13.225 8.8 13.225 8.8C13.225 8.8 13.2167 8.8 13.2 8.8H13.125H13Z" fill="black"/>
</g>
<defs>
<clipPath id="clip0_3218_6848">
<rect width="24" height="24" fill="white"/>
</clipPath>
</defs>
</svg>
