<svg width="24" height="24" viewBox="0 0 24 24" fill="none" xmlns="http://www.w3.org/2000/svg">
<g clip-path="url(#clip0_3218_7514)">
<rect width="24" height="24" fill="white"/>
<path d="M10.175 18.325C8.65833 18.325 7.275 17.9667 6.025 17.25C4.775 16.5333 3.79167 15.55 3.075 14.3C2.35833 13.05 2 11.675 2 10.175C2 8.65833 2.35833 7.275 3.075 6.025C3.79167 4.775 4.775 3.79167 6.025 3.075C7.275 2.35833 8.65833 2 10.175 2C11.675 2 13.05 2.35833 14.3 3.075C15.55 3.79167 16.5333 4.775 17.25 6.025C17.9667 7.275 18.325 8.65833 18.325 10.175C18.325 11.675 17.9667 13.05 17.25 14.3C16.5333 15.55 15.55 16.5333 14.3 17.25C13.05 17.9667 11.675 18.325 10.175 18.325ZM10.175 17.425C11.4917 17.425 12.7 17.1083 13.8 16.475C14.9 15.825 15.7667 14.95 16.4 13.85C17.05 12.7333 17.375 11.5083 17.375 10.175C17.375 8.84167 17.05 7.625 16.4 6.525C15.7667 5.40833 14.9 4.53333 13.8 3.9C12.7 3.25 11.4917 2.925 10.175 2.925C8.84167 2.925 7.625 3.24167 6.525 3.875C5.425 4.50833 4.55 5.38333 3.9 6.5C3.26667 7.61667 2.95 8.84167 2.95 10.175C2.95 11.5083 3.26667 12.7333 3.9 13.85C4.55 14.95 5.425 15.825 6.525 16.475C7.625 17.1083 8.84167 17.425 10.175 17.425ZM15.175 15.85L15.85 15.175L21.65 20.975L20.975 21.65L15.175 15.85ZM7.475 12.1C7.475 11.5167 7.7 11.075 8.15 10.775C8.61667 10.4583 9.25833 10.3 10.075 10.3C10.9083 10.3 11.5667 10.4583 12.05 10.775C12.5333 11.075 12.775 11.5167 12.775 12.1V13H7.475V12.1ZM10.075 9.425C9.675 9.425 9.33333 9.29167 9.05 9.025C8.78333 8.74167 8.65 8.39167 8.65 7.975C8.65 7.575 8.78333 7.23333 9.05 6.95C9.33333 6.66667 9.675 6.525 10.075 6.525C10.475 6.525 10.8167 6.675 11.1 6.975C11.3833 7.25833 11.525 7.59167 11.525 7.975C11.525 8.39167 11.3833 8.74167 11.1 9.025C10.8167 9.29167 10.475 9.425 10.075 9.425Z" fill="black"/>
</g>
<defs>
<clipPath id="clip0_3218_7514">
<rect width="24" height="24" fill="white"/>
</clipPath>
</defs>
</svg>
