<svg width="24" height="24" viewBox="0 0 24 24" fill="none" xmlns="http://www.w3.org/2000/svg">
<g clip-path="url(#clip0_3218_6836)">
<rect width="24" height="24" fill="white"/>
<path d="M10 18C8.53333 18 7.18333 17.65 5.95 16.95C4.73333 16.2333 3.76667 15.2667 3.05 14.05C2.35 12.8167 2 11.4667 2 10C2 8.53333 2.35 7.19167 3.05 5.975C3.76667 4.74167 4.73333 3.775 5.95 3.075C7.18333 2.35833 8.53333 2 10 2C11.4667 2 12.8083 2.35833 14.025 3.075C15.2583 3.775 16.225 4.74167 16.925 5.975C17.6417 7.19167 18 8.53333 18 10C18 11.4667 17.6417 12.8167 16.925 14.05C16.225 15.2667 15.2583 16.2333 14.025 16.95C12.8083 17.65 11.4667 18 10 18ZM10 17.525C11.3833 17.525 12.6417 17.1917 13.775 16.525C14.925 15.8583 15.8333 14.95 16.5 13.8C17.1667 12.65 17.5 11.3833 17.5 10C17.5 8.61667 17.1667 7.35 16.5 6.2C15.8333 5.05 14.925 4.14167 13.775 3.475C12.6417 2.80833 11.3833 2.475 10 2.475C8.61667 2.475 7.35 2.80833 6.2 3.475C5.06667 4.14167 4.16667 5.05 3.5 6.2C2.83333 7.35 2.5 8.61667 2.5 10C2.5 11.3833 2.83333 12.65 3.5 13.8C4.16667 14.95 5.06667 15.8583 6.2 16.525C7.35 17.1917 8.61667 17.525 10 17.525ZM15.35 15.7L15.7 15.35L21.65 21.3L21.3 21.65L15.35 15.7ZM6.975 11.575L10.5 8.05C10.55 8.1 10.5833 8.13333 10.6 8.15C10.6167 8.16667 10.65 8.2 10.7 8.25L11.775 9.35C11.8083 9.38333 11.825 9.40833 11.825 9.425C11.8417 9.425 11.8667 9.44167 11.9 9.475L8.375 13L6.725 13.25L6.975 11.575ZM10.85 7.7L11.7 6.825C11.8333 6.69167 11.975 6.625 12.125 6.625C12.275 6.625 12.4167 6.69167 12.55 6.825L13.125 7.4C13.2583 7.53333 13.325 7.675 13.325 7.825C13.325 7.975 13.2583 8.11667 13.125 8.25L12.25 9.1L10.85 7.7Z" fill="black"/>
</g>
<defs>
<clipPath id="clip0_3218_6836">
<rect width="24" height="24" fill="white"/>
</clipPath>
</defs>
</svg>
