<svg width="24" height="24" viewBox="0 0 24 24" fill="none" xmlns="http://www.w3.org/2000/svg">
<g clip-path="url(#clip0_3218_7508)">
<rect width="24" height="24" fill="white"/>
<path d="M10.8505 19.675C9.23382 19.675 7.74216 19.2833 6.37549 18.5C5.02549 17.7167 3.95882 16.65 3.17549 15.3C2.39216 13.95 2.00049 12.4583 2.00049 10.825C2.00049 9.20833 2.39216 7.725 3.17549 6.375C3.95882 5.025 5.02549 3.95833 6.37549 3.175C7.74216 2.39167 9.23382 2 10.8505 2C12.4838 2 13.9672 2.39167 15.3005 3.175C16.6505 3.95833 17.7172 5.025 18.5005 6.375C19.2838 7.725 19.6755 9.20833 19.6755 10.825C19.6755 12.4583 19.2838 13.95 18.5005 15.3C17.7172 16.65 16.6505 17.7167 15.3005 18.5C13.9672 19.2833 12.4838 19.675 10.8505 19.675ZM10.8505 16.85C11.9172 16.85 12.9088 16.5833 13.8255 16.05C14.7422 15.5167 15.4672 14.7917 16.0005 13.875C16.5338 12.9583 16.8005 11.9417 16.8005 10.825C16.8005 9.74167 16.5338 8.74167 16.0005 7.825C15.4838 6.89167 14.7672 6.15833 13.8505 5.625C12.9338 5.09167 11.9338 4.825 10.8505 4.825C9.75049 4.825 8.74216 5.1 7.82549 5.65C6.90882 6.18333 6.18382 6.90833 5.65049 7.825C5.13382 8.74167 4.87549 9.74167 4.87549 10.825C4.87549 11.925 5.13382 12.9333 5.65049 13.85C6.18382 14.7667 6.90882 15.5 7.82549 16.05C8.74216 16.5833 9.75049 16.85 10.8505 16.85ZM14.1755 16.175L16.1755 14.175L21.6255 19.575L19.5755 21.625L14.1755 16.175ZM7.85049 12.85C7.85049 12.2 8.10882 11.7083 8.62549 11.375C9.14216 11.025 9.85049 10.85 10.7505 10.85C11.6838 10.85 12.4255 11.025 12.9755 11.375C13.5255 11.7083 13.8005 12.2 13.8005 12.85V13.8H7.85049V12.85ZM12.6005 12.475C12.2005 12.475 11.8922 12.475 11.6755 12.475C11.4755 12.475 11.1755 12.475 10.7755 12.475C10.3755 12.475 10.0755 12.475 9.87549 12.475C9.69216 12.475 9.41716 12.475 9.05049 12.475H12.6005ZM10.7755 10.125C10.3255 10.125 9.95049 9.975 9.65049 9.675C9.35049 9.35833 9.20049 8.98333 9.20049 8.55C9.20049 8.11667 9.35049 7.74167 9.65049 7.425C9.96716 7.10833 10.3422 6.95 10.7755 6.95C11.2088 6.95 11.5838 7.10833 11.9005 7.425C12.2172 7.74167 12.3755 8.11667 12.3755 8.55C12.3755 8.98333 12.2172 9.35833 11.9005 9.675C11.6005 9.975 11.2255 10.125 10.7755 10.125ZM10.7755 8.55C10.9088 8.55 11.0088 8.55 11.0755 8.55C11.1422 8.55 11.2422 8.55 11.3755 8.55C11.2422 8.55 11.1422 8.55 11.0755 8.55C11.0088 8.55 10.9088 8.55 10.7755 8.55C10.6422 8.55 10.5422 8.55 10.4755 8.55C10.4088 8.55 10.3088 8.55 10.1755 8.55C10.3088 8.55 10.4088 8.55 10.4755 8.55C10.5422 8.55 10.6422 8.55 10.7755 8.55Z" fill="black"/>
</g>
<defs>
<clipPath id="clip0_3218_7508">
<rect width="24" height="24" fill="white"/>
</clipPath>
</defs>
</svg>
