<svg width="24" height="24" viewBox="0 0 24 24" fill="none" xmlns="http://www.w3.org/2000/svg">
<g clip-path="url(#clip0_3218_6830)">
<rect width="24" height="24" fill="white"/>
<path d="M10.6755 19.325C9.07549 19.325 7.60882 18.9417 6.27549 18.175C4.95882 17.4083 3.91716 16.3667 3.15049 15.05C2.38382 13.7167 2.00049 12.2583 2.00049 10.675C2.00049 9.075 2.38382 7.61667 3.15049 6.3C3.91716 4.96667 4.95882 3.91667 6.27549 3.15C7.60882 2.38333 9.07549 2 10.6755 2C12.2755 2 13.7338 2.38333 15.0505 3.15C16.3838 3.91667 17.4255 4.96667 18.1755 6.3C18.9422 7.61667 19.3255 9.075 19.3255 10.675C19.3255 12.2583 18.9422 13.7167 18.1755 15.05C17.4255 16.3667 16.3838 17.4083 15.0505 18.175C13.7338 18.9417 12.2755 19.325 10.6755 19.325ZM10.6755 17.025C11.8255 17.025 12.8755 16.7417 13.8255 16.175C14.7922 15.6083 15.5588 14.8417 16.1255 13.875C16.6922 12.9083 16.9755 11.8417 16.9755 10.675C16.9755 9.50833 16.6922 8.44167 16.1255 7.475C15.5755 6.49167 14.8172 5.71667 13.8505 5.15C12.8838 4.58333 11.8255 4.3 10.6755 4.3C9.52549 4.3 8.46716 4.58333 7.50049 5.15C6.53382 5.71667 5.76716 6.49167 5.20049 7.475C4.63382 8.44167 4.35049 9.50833 4.35049 10.675C4.35049 11.825 4.63382 12.8917 5.20049 13.875C5.76716 14.8417 6.53382 15.6083 7.50049 16.175C8.46716 16.7417 9.52549 17.025 10.6755 17.025ZM14.5005 16.15L16.1505 14.5L21.6505 19.95L19.9505 21.65L14.5005 16.15ZM11.0005 10.725C11.0338 10.725 11.0505 10.725 11.0505 10.725C11.0505 10.725 11.0338 10.725 11.0005 10.725H10.4255H10.1005H10.6755C10.7422 10.725 10.7838 10.725 10.8005 10.725C10.8338 10.725 10.8838 10.725 10.9505 10.725H11.0005ZM10.8755 10.725C10.8422 10.725 10.8172 10.725 10.8005 10.725C10.8005 10.725 10.7838 10.725 10.7505 10.725H10.2005H10.3755H10.9255C10.9422 10.725 10.9505 10.725 10.9505 10.725C10.9505 10.725 10.9422 10.725 10.9255 10.725H10.8755ZM10.6505 10.725H10.8755H10.8005H10.5505H10.6505ZM12.2755 7.15C12.4755 6.96667 12.6755 6.875 12.8755 6.875C13.0755 6.875 13.2672 6.96667 13.4505 7.15L14.0755 7.8C14.2422 7.96667 14.3255 8.15833 14.3255 8.375C14.3255 8.59167 14.2422 8.78333 14.0755 8.95L13.1255 9.875L11.3505 8.125L12.2755 7.15ZM8.95049 14.075H7.20049V12.3L10.5005 8.975L12.2505 10.775L8.95049 14.075Z" fill="black"/>
</g>
<defs>
<clipPath id="clip0_3218_6830">
<rect width="24" height="24" fill="white"/>
</clipPath>
</defs>
</svg>
