<svg width="24" height="24" viewBox="0 0 24 24" fill="none" xmlns="http://www.w3.org/2000/svg">
<g clip-path="url(#clip0_3218_7502)">
<rect width="24" height="24" fill="white"/>
<path d="M10.3255 18.675C8.79216 18.675 7.38382 18.3083 6.10049 17.575C4.83382 16.825 3.83382 15.8167 3.10049 14.55C2.36716 13.2667 2.00049 11.8583 2.00049 10.325C2.00049 8.79167 2.36716 7.39167 3.10049 6.125C3.83382 4.84167 4.83382 3.83333 6.10049 3.1C7.38382 2.36667 8.79216 2 10.3255 2C11.8588 2 13.2588 2.36667 14.5255 3.1C15.8088 3.83333 16.8172 4.84167 17.5505 6.125C18.3005 7.39167 18.6755 8.79167 18.6755 10.325C18.6755 11.8583 18.3005 13.2667 17.5505 14.55C16.8172 15.8167 15.8088 16.825 14.5255 17.575C13.2588 18.3083 11.8588 18.675 10.3255 18.675ZM10.3255 17.3C11.6088 17.3 12.7755 16.9917 13.8255 16.375C14.8922 15.7583 15.7338 14.9167 16.3505 13.85C16.9672 12.7833 17.2755 11.6083 17.2755 10.325C17.2755 9.04167 16.9672 7.86667 16.3505 6.8C15.7338 5.73333 14.8922 4.89167 13.8255 4.275C12.7755 3.65833 11.6088 3.35 10.3255 3.35C9.05882 3.35 7.89216 3.65833 6.82549 4.275C5.77549 4.89167 4.94216 5.73333 4.32549 6.8C3.70882 7.86667 3.40049 9.04167 3.40049 10.325C3.40049 11.6083 3.70882 12.7833 4.32549 13.85C4.94216 14.9167 5.77549 15.7583 6.82549 16.375C7.89216 16.9917 9.05882 17.3 10.3255 17.3ZM15.0255 16L16.0005 15.025L21.6505 20.675L20.6755 21.65L15.0255 16ZM7.90049 12.15C7.90049 11.6167 8.10882 11.2083 8.52549 10.925C8.94216 10.6417 9.51716 10.5 10.2505 10.5C11.0172 10.5 11.6172 10.6417 12.0505 10.925C12.4838 11.2083 12.7005 11.6167 12.7005 12.15V12.75H7.90049V12.15ZM11.7505 11.825C11.4172 11.825 11.1672 11.825 11.0005 11.825C10.8338 11.825 10.5838 11.825 10.2505 11.825C9.93382 11.825 9.69216 11.825 9.52549 11.825C9.37549 11.825 9.15049 11.825 8.85049 11.825H11.7505ZM10.2505 9.65C9.88382 9.65 9.57549 9.525 9.32549 9.275C9.09216 9.025 8.97549 8.71667 8.97549 8.35C8.97549 8 9.09216 7.7 9.32549 7.45C9.57549 7.18333 9.88382 7.05 10.2505 7.05C10.6005 7.05 10.9005 7.18333 11.1505 7.45C11.4172 7.7 11.5505 8 11.5505 8.35C11.5505 8.71667 11.4172 9.025 11.1505 9.275C10.9005 9.525 10.6005 9.65 10.2505 9.65ZM10.2505 8.35C10.3505 8.35 10.4255 8.35 10.4755 8.35C10.5422 8.35 10.6255 8.35 10.7255 8.35C10.6255 8.35 10.5422 8.35 10.4755 8.35C10.4255 8.35 10.3505 8.35 10.2505 8.35C10.1505 8.35 10.0672 8.35 10.0005 8.35C9.95049 8.35 9.87549 8.35 9.77549 8.35C9.87549 8.35 9.95049 8.35 10.0005 8.35C10.0672 8.35 10.1505 8.35 10.2505 8.35Z" fill="black"/>
</g>
<defs>
<clipPath id="clip0_3218_7502">
<rect width="24" height="24" fill="white"/>
</clipPath>
</defs>
</svg>
