<svg width="24" height="24" viewBox="0 0 24 24" fill="none" xmlns="http://www.w3.org/2000/svg">
<g clip-path="url(#clip0_3218_7192)">
<rect width="24" height="24" fill="white"/>
<path d="M10.3255 18.7C8.85882 18.7 7.50882 18.35 6.27549 17.65C5.05882 16.9333 4.09216 15.9667 3.37549 14.75C2.67549 13.5333 2.32549 12.1917 2.32549 10.725C2.32549 9.675 2.50882 8.68333 2.87549 7.75C3.25882 6.8 3.78382 5.96667 4.45049 5.25L5.82549 6.55C5.32549 7.1 4.93382 7.73333 4.65049 8.45C4.36716 9.16667 4.22549 9.925 4.22549 10.725C4.22549 11.8417 4.50049 12.8667 5.05049 13.8C5.60049 14.7333 6.34216 15.475 7.27549 16.025C8.20882 16.575 9.22549 16.85 10.3255 16.85C11.4255 16.85 12.4422 16.575 13.3755 16.025C14.3088 15.475 15.0505 14.7333 15.6005 13.8C16.1505 12.8667 16.4255 11.8417 16.4255 10.725C16.4255 9.60833 16.1505 8.58333 15.6005 7.65C15.0505 6.71667 14.3088 5.975 13.3755 5.425C12.4422 4.875 11.4255 4.6 10.3255 4.6C10.1255 4.6 9.84216 4.61667 9.47549 4.65L9.32549 2.8C9.75882 2.76667 10.0922 2.75 10.3255 2.75C11.7922 2.75 13.1338 3.10833 14.3505 3.825C15.5838 4.525 16.5505 5.48333 17.2505 6.7C17.9672 7.91667 18.3255 9.25833 18.3255 10.725C18.3255 12.1917 17.9672 13.5333 17.2505 14.75C16.5505 15.9667 15.5838 16.9333 14.3505 17.65C13.1338 18.35 11.7922 18.7 10.3255 18.7ZM14.6755 16.35L15.9755 15.05L21.7255 20.8L20.4255 22.1L14.6755 16.35ZM9.82549 3.3V3.75V4.175V6.975L6.57549 3.725L9.82549 0.474999V3.3Z" fill="black"/>
</g>
<defs>
<clipPath id="clip0_3218_7192">
<rect width="24" height="24" fill="white"/>
</clipPath>
</defs>
</svg>
