<svg width="24" height="24" viewBox="0 0 24 24" fill="none" xmlns="http://www.w3.org/2000/svg">
<g clip-path="url(#clip0_3218_6846)">
<rect width="24" height="24" fill="white"/>
<path d="M10.85 19.675C9.23333 19.675 7.74167 19.2833 6.375 18.5C5.025 17.7167 3.95833 16.65 3.175 15.3C2.39167 13.95 2 12.4583 2 10.825C2 9.20833 2.39167 7.725 3.175 6.375C3.95833 5.025 5.025 3.95833 6.375 3.175C7.74167 2.39167 9.23333 2 10.85 2C12.4833 2 13.9667 2.39167 15.3 3.175C16.65 3.95833 17.7167 5.025 18.5 6.375C19.2833 7.725 19.675 9.20833 19.675 10.825C19.675 12.4583 19.2833 13.95 18.5 15.3C17.7167 16.65 16.65 17.7167 15.3 18.5C13.9667 19.2833 12.4833 19.675 10.85 19.675ZM10.85 16.85C11.9167 16.85 12.9083 16.5833 13.825 16.05C14.7417 15.5167 15.4667 14.7917 16 13.875C16.5333 12.9583 16.8 11.9417 16.8 10.825C16.8 9.74167 16.5333 8.74167 16 7.825C15.4833 6.89167 14.7667 6.15833 13.85 5.625C12.9333 5.09167 11.9333 4.825 10.85 4.825C9.75 4.825 8.74167 5.1 7.825 5.65C6.90833 6.18333 6.18333 6.90833 5.65 7.825C5.13333 8.74167 4.875 9.74167 4.875 10.825C4.875 11.925 5.13333 12.9333 5.65 13.85C6.18333 14.7667 6.90833 15.5 7.825 16.05C8.74167 16.5833 9.75 16.85 10.85 16.85ZM14.175 16.175L16.175 14.175L21.625 19.575L19.575 21.625L14.175 16.175ZM9.725 13.875H7.625V11.725L10.025 9.325L12.15 11.475L9.725 13.875ZM11.85 7.475C12.0667 7.24167 12.3 7.125 12.55 7.125C12.8 7.125 13.0333 7.24167 13.25 7.475L13.975 8.225C14.175 8.44167 14.275 8.68333 14.275 8.95C14.275 9.2 14.175 9.425 13.975 9.625L13 10.575L10.9 8.45L11.85 7.475Z" fill="black"/>
</g>
<defs>
<clipPath id="clip0_3218_6846">
<rect width="24" height="24" fill="white"/>
</clipPath>
</defs>
</svg>
