<svg width="24" height="24" viewBox="0 0 24 24" fill="none" xmlns="http://www.w3.org/2000/svg">
<g clip-path="url(#clip0_3218_7524)">
<rect width="24" height="24" fill="white"/>
<path d="M11.025 20C9.375 20 7.85833 19.6 6.475 18.8C5.09167 18 4 16.9167 3.2 15.55C2.4 14.1667 2 12.65 2 11C2 9.35 2.4 7.84167 3.2 6.475C4 5.09167 5.09167 4 6.475 3.2C7.85833 2.4 9.375 2 11.025 2C12.675 2 14.1833 2.4 15.55 3.2C16.9333 4 18.0167 5.09167 18.8 6.475C19.6 7.84167 20 9.35 20 11C20 12.65 19.6 14.1667 18.8 15.55C18.0167 16.9167 16.9333 18 15.55 18.8C14.1833 19.6 12.675 20 11.025 20ZM11.025 16.675C12.025 16.675 12.95 16.425 13.8 15.925C14.6667 15.4083 15.35 14.7167 15.85 13.85C16.3667 12.9833 16.625 12.0333 16.625 11C16.625 9.98333 16.375 9.04167 15.875 8.175C15.3917 7.29167 14.7167 6.6 13.85 6.1C13 5.58333 12.0583 5.325 11.025 5.325C9.99167 5.325 9.04167 5.58333 8.175 6.1C7.30833 6.61667 6.625 7.30833 6.125 8.175C5.625 9.04167 5.375 9.98333 5.375 11C5.375 12.0167 5.625 12.9583 6.125 13.825C6.625 14.6917 7.30833 15.3833 8.175 15.9C9.04167 16.4167 9.99167 16.675 11.025 16.675ZM13.825 16.175L16.175 13.825L21.625 19.175L19.175 21.625L13.825 16.175ZM7.875 13.075C7.875 12.3917 8.14167 11.8667 8.675 11.5C9.225 11.1333 9.975 10.95 10.925 10.95C11.9083 10.95 12.6833 11.1333 13.25 11.5C13.8333 11.8667 14.125 12.3917 14.125 13.075V14.025H7.875V13.075ZM10.975 10.35C10.4917 10.35 10.0833 10.1917 9.75 9.875C9.43333 9.54167 9.275 9.14167 9.275 8.675C9.275 8.20833 9.43333 7.80833 9.75 7.475C10.0833 7.125 10.4833 6.95 10.95 6.95C11.4167 6.95 11.8167 7.125 12.15 7.475C12.4833 7.80833 12.65 8.20833 12.65 8.675C12.65 9.14167 12.4833 9.54167 12.15 9.875C11.8333 10.1917 11.4417 10.35 10.975 10.35Z" fill="black"/>
</g>
<defs>
<clipPath id="clip0_3218_7524">
<rect width="24" height="24" fill="white"/>
</clipPath>
</defs>
</svg>
