<svg width="24" height="24" viewBox="0 0 24 24" fill="none" xmlns="http://www.w3.org/2000/svg">
<g clip-path="url(#clip0_3216_1608)">
<rect width="24" height="24" fill="white"/>
<path d="M8.80049 20.85C4.93382 18.6167 3.00049 15.8 3.00049 12.4V4.275L12.0005 1L21.0005 4.275V12.4C21.0005 15.8 19.0672 18.6167 15.2005 20.85L12.0005 22.7L8.80049 20.85ZM14.9505 20.45C16.7672 19.4 18.1422 18.2083 19.0755 16.875C20.0255 15.5417 20.5005 14.05 20.5005 12.4V4.6L12.0005 1.5L3.50049 4.6V12.4C3.50049 14.05 3.96716 15.5417 4.90049 16.875C5.85049 18.2083 7.23382 19.4 9.05049 20.45L12.0005 22.15L14.9505 20.45ZM8.27549 7.3L12.0005 11.025L15.7255 7.3L16.0755 7.65L12.3505 11.375L16.0755 15.1L15.7255 15.45L12.0005 11.725L8.27549 15.45L7.92549 15.1L11.6505 11.375L7.92549 7.65L8.27549 7.3Z" fill="black"/>
</g>
<defs>
<clipPath id="clip0_3216_1608">
<rect width="24" height="24" fill="white"/>
</clipPath>
</defs>
</svg>
