<svg width="24" height="24" viewBox="0 0 24 24" fill="none" xmlns="http://www.w3.org/2000/svg">
<g clip-path="url(#clip0_3216_3518)">
<rect width="24" height="24" fill="white"/>
<path d="M8.80049 20.85C4.93382 18.6167 3.00049 15.8 3.00049 12.4V4.275L12.0005 1L21.0005 4.275V12.4C21.0005 15.8 19.0672 18.6167 15.2005 20.85L12.0005 22.7L8.80049 20.85ZM13.4505 17.875C14.8338 17.075 15.8505 16.225 16.5005 15.325C17.1672 14.425 17.5005 13.45 17.5005 12.4V6.675L12.0005 4.675L6.50049 6.675V12.4C6.50049 13.45 6.82549 14.425 7.47549 15.325C8.14216 16.225 9.16716 17.075 10.5505 17.875L12.0005 18.7L13.4505 17.875ZM9.60049 6.625L12.0005 9.1L14.3755 6.625L16.6005 8.85L14.1255 11.25L16.6005 13.65L14.3755 15.85L12.0005 13.4L9.62549 15.85L7.40049 13.625L9.85049 11.25L7.37549 8.85L9.60049 6.625Z" fill="black"/>
</g>
<defs>
<clipPath id="clip0_3216_3518">
<rect width="24" height="24" fill="white"/>
</clipPath>
</defs>
</svg>
