<svg width="24" height="24" viewBox="0 0 24 24" fill="none" xmlns="http://www.w3.org/2000/svg">
<g clip-path="url(#clip0_3216_3516)">
<rect width="24" height="24" fill="white"/>
<path d="M8.80049 20.85C4.93382 18.6167 3.00049 15.8 3.00049 12.4V4.275L12.0005 1L21.0005 4.275V12.4C21.0005 15.8 19.0672 18.6167 15.2005 20.85L12.0005 22.7L8.80049 20.85ZM13.7255 18.35C15.1755 17.5 16.2505 16.5917 16.9505 15.625C17.6672 14.6417 18.0255 13.5667 18.0255 12.4V6.3L12.0005 4.1L5.97549 6.3V12.4C5.97549 13.5667 6.32549 14.6417 7.02549 15.625C7.74216 16.5917 8.82549 17.5 10.2755 18.35L12.0005 19.325L13.7255 18.35ZM9.37549 6.8L12.0005 9.475L14.6005 6.8L16.5005 8.675L13.8255 11.3L16.5005 13.925L14.6005 15.8L12.0005 13.125L9.40049 15.8L7.50049 13.9L10.1755 11.3L7.50049 8.675L9.37549 6.8Z" fill="black"/>
</g>
<defs>
<clipPath id="clip0_3216_3516">
<rect width="24" height="24" fill="white"/>
</clipPath>
</defs>
</svg>
