<svg width="24" height="24" viewBox="0 0 24 24" fill="none" xmlns="http://www.w3.org/2000/svg">
<g clip-path="url(#clip0_3216_2936)">
<rect width="24" height="24" fill="white"/>
<path d="M8.80049 20.85C4.93382 18.6167 3.00049 15.8 3.00049 12.4V4.275L12.0005 1L21.0005 4.275V12.4C21.0005 15.8 19.0672 18.6167 15.2005 20.85L12.0005 22.7L8.80049 20.85ZM14.7255 20.05C16.4588 19.05 17.7755 17.9167 18.6755 16.65C19.5755 15.3833 20.0255 13.9667 20.0255 12.4V4.925L12.0005 2L3.97549 4.925V12.4C3.97549 13.9667 4.42549 15.3833 5.32549 16.65C6.22549 17.9167 7.54216 19.05 9.27549 20.05L12.0005 21.625L14.7255 20.05ZM7.20049 10.75L7.87549 10.075L11.0755 13.35L16.1755 8.175L16.8505 8.85L11.0755 14.7L7.20049 10.75Z" fill="black"/>
</g>
<defs>
<clipPath id="clip0_3216_2936">
<rect width="24" height="24" fill="white"/>
</clipPath>
</defs>
</svg>
