<svg width="24" height="24" viewBox="0 0 24 24" fill="none" xmlns="http://www.w3.org/2000/svg">
<g clip-path="url(#clip0_3219_9710)">
<rect width="24" height="24" fill="white"/>
<path d="M6.3 15.8C5.6 15.8 4.95833 15.6333 4.375 15.3C3.79167 14.9667 3.33333 14.5083 3 13.925C2.66667 13.3417 2.5 12.7 2.5 12C2.5 11.3 2.66667 10.6583 3 10.075C3.33333 9.49167 3.79167 9.03333 4.375 8.7C4.95833 8.36667 5.6 8.2 6.3 8.2C7.01667 8.2 7.66667 8.36667 8.25 8.7C8.83333 9.03333 9.29167 9.49167 9.625 10.075C9.95833 10.6583 10.125 11.3 10.125 12C10.125 12.7 9.95833 13.3417 9.625 13.925C9.29167 14.5083 8.83333 14.9667 8.25 15.3C7.66667 15.6333 7.01667 15.8 6.3 15.8ZM16.65 9.825C15.95 9.825 15.3083 9.65833 14.725 9.325C14.1583 8.99167 13.7083 8.53333 13.375 7.95C13.0417 7.36667 12.875 6.725 12.875 6.025C12.875 5.325 13.0417 4.69167 13.375 4.125C13.7083 3.54167 14.1583 3.08333 14.725 2.75C15.3083 2.41667 15.95 2.25 16.65 2.25C17.3667 2.25 18.0167 2.41667 18.6 2.75C19.1833 3.08333 19.6417 3.54167 19.975 4.125C20.3083 4.69167 20.475 5.325 20.475 6.025C20.475 6.725 20.3083 7.36667 19.975 7.95C19.6417 8.53333 19.1833 8.99167 18.6 9.325C18.0167 9.65833 17.3667 9.825 16.65 9.825ZM16.65 21.75C15.95 21.75 15.3083 21.5833 14.725 21.25C14.1583 20.9167 13.7083 20.4667 13.375 19.9C13.0417 19.3167 12.875 18.675 12.875 17.975C12.875 17.275 13.0417 16.6333 13.375 16.05C13.7083 15.4667 14.1583 15.0083 14.725 14.675C15.3083 14.3417 15.95 14.175 16.65 14.175C17.3667 14.175 18.0167 14.3417 18.6 14.675C19.1833 15.0083 19.6417 15.4667 19.975 16.05C20.3083 16.6333 20.475 17.275 20.475 17.975C20.475 18.675 20.3083 19.3167 19.975 19.9C19.6417 20.4667 19.1833 20.9167 18.6 21.25C18.0167 21.5833 17.3667 21.75 16.65 21.75ZM7.425 9.825L14.225 5.625L15.75 8.1L8.95 12.3L7.425 9.825ZM14.125 18.325L7.55 14.25L9.075 11.775L15.65 15.85L14.125 18.325Z" fill="black"/>
</g>
<defs>
<clipPath id="clip0_3219_9710">
<rect width="24" height="24" fill="white"/>
</clipPath>
</defs>
</svg>
