<svg width="24" height="24" viewBox="0 0 24 24" fill="none" xmlns="http://www.w3.org/2000/svg">
<g clip-path="url(#clip0_3219_9700)">
<rect width="24" height="24" fill="white"/>
<path d="M5.4 14.875C4.86667 14.875 4.375 14.75 3.925 14.5C3.475 14.25 3.125 13.9083 2.875 13.475C2.625 13.025 2.5 12.5333 2.5 12C2.5 11.4667 2.625 10.9833 2.875 10.55C3.125 10.1 3.475 9.75 3.925 9.5C4.375 9.25 4.86667 9.125 5.4 9.125C5.93333 9.125 6.425 9.25 6.875 9.5C7.325 9.75 7.675 10.1 7.925 10.55C8.175 10.9833 8.3 11.4667 8.3 12C8.3 12.5333 8.175 13.025 7.925 13.475C7.675 13.9083 7.325 14.25 6.875 14.5C6.425 14.75 5.93333 14.875 5.4 14.875ZM17.6 8C17.0667 8 16.575 7.875 16.125 7.625C15.675 7.375 15.325 7.03333 15.075 6.6C14.825 6.15 14.7 5.65833 14.7 5.125C14.7 4.59167 14.825 4.10833 15.075 3.675C15.325 3.225 15.675 2.875 16.125 2.625C16.575 2.375 17.0667 2.25 17.6 2.25C18.1333 2.25 18.625 2.375 19.075 2.625C19.525 2.875 19.875 3.225 20.125 3.675C20.375 4.10833 20.5 4.59167 20.5 5.125C20.5 5.65833 20.375 6.15 20.125 6.6C19.875 7.03333 19.525 7.375 19.075 7.625C18.625 7.875 18.1333 8 17.6 8ZM17.6 21.75C17.0667 21.75 16.575 21.625 16.125 21.375C15.675 21.125 15.325 20.7833 15.075 20.35C14.825 19.9 14.7 19.4083 14.7 18.875C14.7 18.3417 14.825 17.8583 15.075 17.425C15.325 16.975 15.675 16.625 16.125 16.375C16.575 16.125 17.0667 16 17.6 16C18.1333 16 18.625 16.125 19.075 16.375C19.525 16.625 19.875 16.975 20.125 17.425C20.375 17.8583 20.5 18.3417 20.5 18.875C20.5 19.4083 20.375 19.9 20.125 20.35C19.875 20.7833 19.525 21.125 19.075 21.375C18.625 21.625 18.1333 21.75 17.6 21.75ZM7.55 10.525L15.2 6.2L15.45 6.6L7.8 10.925L7.55 10.525ZM15.125 17.75L7.625 13.525L7.875 13.125L15.375 17.35L15.125 17.75Z" fill="black"/>
</g>
<defs>
<clipPath id="clip0_3219_9700">
<rect width="24" height="24" fill="white"/>
</clipPath>
</defs>
</svg>
