<svg width="24" height="24" viewBox="0 0 24 24" fill="none" xmlns="http://www.w3.org/2000/svg">
<g clip-path="url(#clip0_3219_9694)">
<rect width="24" height="24" fill="white"/>
<path d="M6.40049 15.95C5.66716 15.95 5.00049 15.775 4.40049 15.425C3.80049 15.0583 3.31716 14.575 2.95049 13.975C2.60049 13.375 2.42549 12.7167 2.42549 12C2.42549 11.2833 2.60049 10.625 2.95049 10.025C3.31716 9.425 3.80049 8.95 4.40049 8.6C5.00049 8.23333 5.66716 8.05 6.40049 8.05C7.11716 8.05 7.77549 8.23333 8.37549 8.6C8.99216 8.95 9.47549 9.425 9.82549 10.025C10.1755 10.625 10.3505 11.2833 10.3505 12C10.3505 12.7167 10.1755 13.375 9.82549 13.975C9.47549 14.575 8.99216 15.0583 8.37549 15.425C7.77549 15.775 7.11716 15.95 6.40049 15.95ZM6.40049 13.775C6.88382 13.775 7.29216 13.6083 7.62549 13.275C7.97549 12.925 8.15049 12.5 8.15049 12C8.15049 11.5 7.97549 11.0833 7.62549 10.75C7.29216 10.4 6.88382 10.225 6.40049 10.225C5.90049 10.225 5.48382 10.4 5.15049 10.75C4.81716 11.0833 4.65049 11.5 4.65049 12C4.65049 12.5 4.81716 12.925 5.15049 13.275C5.48382 13.6083 5.90049 13.775 6.40049 13.775ZM16.5755 10.075C15.8588 10.075 15.1922 9.9 14.5755 9.55C13.9755 9.18333 13.5005 8.7 13.1505 8.1C12.8005 7.5 12.6255 6.84167 12.6255 6.125C12.6255 5.39167 12.8005 4.725 13.1505 4.125C13.5005 3.525 13.9755 3.05 14.5755 2.7C15.1922 2.35 15.8588 2.175 16.5755 2.175C17.3088 2.175 17.9755 2.35 18.5755 2.7C19.1922 3.05 19.6755 3.525 20.0255 4.125C20.3755 4.725 20.5505 5.39167 20.5505 6.125C20.5505 6.84167 20.3755 7.5 20.0255 8.1C19.6755 8.7 19.1922 9.18333 18.5755 9.55C17.9755 9.9 17.3088 10.075 16.5755 10.075ZM16.5755 7.875C17.0755 7.875 17.4922 7.70833 17.8255 7.375C18.1755 7.025 18.3505 6.60833 18.3505 6.125C18.3505 5.625 18.1755 5.20833 17.8255 4.875C17.4922 4.54167 17.0755 4.375 16.5755 4.375C16.0922 4.375 15.6755 4.54167 15.3255 4.875C14.9922 5.20833 14.8255 5.625 14.8255 6.125C14.8255 6.625 14.9922 7.04167 15.3255 7.375C15.6588 7.70833 16.0755 7.875 16.5755 7.875ZM16.5755 21.825C15.8588 21.825 15.1922 21.65 14.5755 21.3C13.9755 20.95 13.5005 20.475 13.1505 19.875C12.8005 19.275 12.6255 18.6083 12.6255 17.875C12.6255 17.1583 12.8005 16.5 13.1505 15.9C13.5005 15.3 13.9755 14.825 14.5755 14.475C15.1922 14.1083 15.8588 13.925 16.5755 13.925C17.3088 13.925 17.9755 14.1083 18.5755 14.475C19.1922 14.825 19.6755 15.3 20.0255 15.9C20.3755 16.5 20.5505 17.1583 20.5505 17.875C20.5505 18.6083 20.3755 19.275 20.0255 19.875C19.6755 20.475 19.1922 20.95 18.5755 21.3C17.9755 21.65 17.3088 21.825 16.5755 21.825ZM16.5755 19.625C17.0755 19.625 17.4922 19.4583 17.8255 19.125C18.1755 18.7917 18.3505 18.375 18.3505 17.875C18.3505 17.3917 18.1755 16.9833 17.8255 16.65C17.4922 16.3 17.0755 16.125 16.5755 16.125C16.0922 16.125 15.6755 16.3 15.3255 16.65C14.9922 16.9833 14.8255 17.3917 14.8255 17.875C14.8255 18.375 14.9922 18.7917 15.3255 19.125C15.6755 19.4583 16.0922 19.625 16.5755 19.625ZM7.47549 9.95L14.0505 6.075L15.2255 8.05L8.65049 11.925L7.47549 9.95ZM13.9505 17.85L7.60049 14.125L8.77549 12.15L15.1255 15.9L13.9505 17.85Z" fill="black"/>
</g>
<defs>
<clipPath id="clip0_3219_9694">
<rect width="24" height="24" fill="white"/>
</clipPath>
</defs>
</svg>
