<svg width="24" height="24" viewBox="0 0 24 24" fill="none" xmlns="http://www.w3.org/2000/svg">
<g clip-path="url(#clip0_3219_8475)">
<rect width="24" height="24" fill="white"/>
<path d="M5.40049 14.875C4.86716 14.875 4.37549 14.75 3.92549 14.5C3.47549 14.25 3.12549 13.9083 2.87549 13.475C2.62549 13.025 2.50049 12.5333 2.50049 12C2.50049 11.4667 2.62549 10.9833 2.87549 10.55C3.12549 10.1 3.47549 9.75 3.92549 9.5C4.37549 9.25 4.86716 9.125 5.40049 9.125C5.93382 9.125 6.42549 9.25 6.87549 9.5C7.32549 9.75 7.67549 10.1 7.92549 10.55C8.17549 10.9833 8.30049 11.4667 8.30049 12C8.30049 12.5333 8.17549 13.025 7.92549 13.475C7.67549 13.9083 7.32549 14.25 6.87549 14.5C6.42549 14.75 5.93382 14.875 5.40049 14.875ZM5.40049 14.4C6.06716 14.4 6.63382 14.1667 7.10049 13.7C7.56716 13.2333 7.80049 12.6667 7.80049 12C7.80049 11.3333 7.56716 10.7667 7.10049 10.3C6.63382 9.83333 6.06716 9.6 5.40049 9.6C4.73382 9.6 4.16716 9.83333 3.70049 10.3C3.23382 10.7667 3.00049 11.3333 3.00049 12C3.00049 12.6667 3.23382 13.2333 3.70049 13.7C4.16716 14.1667 4.73382 14.4 5.40049 14.4ZM17.6005 8C17.0672 8 16.5755 7.875 16.1255 7.625C15.6755 7.375 15.3255 7.03333 15.0755 6.6C14.8255 6.15 14.7005 5.65833 14.7005 5.125C14.7005 4.59167 14.8255 4.10833 15.0755 3.675C15.3255 3.225 15.6755 2.875 16.1255 2.625C16.5755 2.375 17.0672 2.25 17.6005 2.25C18.1338 2.25 18.6255 2.375 19.0755 2.625C19.5255 2.875 19.8755 3.225 20.1255 3.675C20.3755 4.10833 20.5005 4.59167 20.5005 5.125C20.5005 5.65833 20.3755 6.15 20.1255 6.6C19.8755 7.03333 19.5255 7.375 19.0755 7.625C18.6255 7.875 18.1338 8 17.6005 8ZM17.6005 7.525C18.2672 7.525 18.8338 7.29167 19.3005 6.825C19.7672 6.35833 20.0005 5.79167 20.0005 5.125C20.0005 4.45833 19.7672 3.89167 19.3005 3.425C18.8338 2.95833 18.2672 2.725 17.6005 2.725C16.9338 2.725 16.3672 2.95833 15.9005 3.425C15.4338 3.89167 15.2005 4.45833 15.2005 5.125C15.2005 5.79167 15.4338 6.35833 15.9005 6.825C16.3672 7.29167 16.9338 7.525 17.6005 7.525ZM17.6005 21.75C17.0672 21.75 16.5755 21.625 16.1255 21.375C15.6755 21.125 15.3255 20.7833 15.0755 20.35C14.8255 19.9 14.7005 19.4083 14.7005 18.875C14.7005 18.3417 14.8255 17.8583 15.0755 17.425C15.3255 16.975 15.6755 16.625 16.1255 16.375C16.5755 16.125 17.0672 16 17.6005 16C18.1338 16 18.6255 16.125 19.0755 16.375C19.5255 16.625 19.8755 16.975 20.1255 17.425C20.3755 17.8583 20.5005 18.3417 20.5005 18.875C20.5005 19.4083 20.3755 19.9 20.1255 20.35C19.8755 20.7833 19.5255 21.125 19.0755 21.375C18.6255 21.625 18.1338 21.75 17.6005 21.75ZM17.6005 21.275C18.2672 21.275 18.8338 21.0417 19.3005 20.575C19.7672 20.1083 20.0005 19.5417 20.0005 18.875C20.0005 18.2083 19.7672 17.6417 19.3005 17.175C18.8338 16.7083 18.2672 16.475 17.6005 16.475C16.9338 16.475 16.3672 16.7083 15.9005 17.175C15.4338 17.6417 15.2005 18.2083 15.2005 18.875C15.2005 19.5417 15.4338 20.1083 15.9005 20.575C16.3672 21.0417 16.9338 21.275 17.6005 21.275ZM7.55049 10.525L15.2005 6.2L15.4505 6.6L7.80049 10.925L7.55049 10.525ZM15.1255 17.75L7.62549 13.525L7.87549 13.125L15.3755 17.35L15.1255 17.75Z" fill="black"/>
</g>
<defs>
<clipPath id="clip0_3219_8475">
<rect width="24" height="24" fill="white"/>
</clipPath>
</defs>
</svg>
