<svg width="24" height="24" viewBox="0 0 24 24" fill="none" xmlns="http://www.w3.org/2000/svg">
<g clip-path="url(#clip0_3219_10760)">
<rect width="24" height="24" fill="white"/>
<path d="M6.67549 21C6.22549 21 5.84216 20.8417 5.52549 20.525C5.20882 20.1917 5.05049 19.8083 5.05049 19.375C5.05049 18.925 5.20882 18.5417 5.52549 18.225C5.84216 17.9083 6.22549 17.75 6.67549 17.75C7.12549 17.75 7.50882 17.9083 7.82549 18.225C8.14216 18.5417 8.30049 18.925 8.30049 19.375C8.30049 19.8083 8.14216 20.1917 7.82549 20.525C7.50882 20.8417 7.12549 21 6.67549 21ZM6.67549 20C6.80882 20 6.90882 20 6.97549 20C7.04216 20 7.15049 20 7.30049 20C7.15049 20 7.04216 20 6.97549 20C6.90882 20 6.80882 20 6.67549 20C6.52549 20 6.41716 20 6.35049 20C6.28382 20 6.18382 20 6.05049 20C6.18382 20 6.28382 20 6.35049 20C6.41716 20 6.52549 20 6.67549 20ZM18.2505 21C17.8172 21 17.4338 20.8417 17.1005 20.525C16.7838 20.1917 16.6255 19.8083 16.6255 19.375C16.6255 18.925 16.7838 18.5417 17.1005 18.225C17.4338 17.9083 17.8172 17.75 18.2505 17.75C18.7005 17.75 19.0838 17.9083 19.4005 18.225C19.7172 18.5417 19.8755 18.925 19.8755 19.375C19.8755 19.8083 19.7172 20.1917 19.4005 20.525C19.0838 20.8417 18.7005 21 18.2505 21ZM18.2505 20.025C18.4005 20.025 18.5088 20.025 18.5755 20.025C18.6588 20.025 18.7672 20.025 18.9005 20.025C18.7505 20.025 18.6338 20.025 18.5505 20.025C18.4838 20.025 18.3838 20.025 18.2505 20.025C18.1005 20.025 17.9838 20.025 17.9005 20.025C17.8338 20.025 17.7338 20.025 17.6005 20.025C17.7505 20.025 17.8588 20.025 17.9255 20.025C18.0088 20.025 18.1172 20.025 18.2505 20.025ZM1.42549 4.875C1.10882 4.875 0.833822 4.76667 0.600488 4.55C0.367155 4.31667 0.250488 4.03333 0.250488 3.7C0.250488 3.36667 0.367155 3.08333 0.600488 2.85C0.833822 2.61667 1.10882 2.5 1.42549 2.5H5.17549L5.60049 5H21.5005L19.5505 15.825H5.05049L3.12549 4.875H1.42549ZM7.10049 13.45H17.5005L18.6005 7.4H6.05049L7.10049 13.45Z" fill="black"/>
</g>
<defs>
<clipPath id="clip0_3219_10760">
<rect width="24" height="24" fill="white"/>
</clipPath>
</defs>
</svg>
