<svg width="24" height="24" viewBox="0 0 24 24" fill="none" xmlns="http://www.w3.org/2000/svg">
<g clip-path="url(#clip0_3216_3830)">
<rect width="24" height="24" fill="white"/>
<path d="M3.00049 21H6.60049V17H3.00049V21ZM6.75049 3L6.42549 7.375H3.25049L2.92549 3H6.75049ZM4.85049 8.4C5.41716 8.4 5.86716 8.56667 6.20049 8.9C6.55049 9.21667 6.72549 9.63333 6.72549 10.15C6.72549 10.6833 6.55049 11.1083 6.20049 11.425C5.85049 11.7417 5.40049 11.9 4.85049 11.9C4.30049 11.9 3.85049 11.7417 3.50049 11.425C3.15049 11.1083 2.97549 10.6917 2.97549 10.175C2.97549 9.65833 3.15049 9.23333 3.50049 8.9C3.85049 8.56667 4.30049 8.4 4.85049 8.4Z" fill="black"/>
</g>
<defs>
<clipPath id="clip0_3216_3830">
<rect width="24" height="24" fill="white"/>
</clipPath>
</defs>
</svg>
