<svg width="24" height="24" viewBox="0 0 24 24" fill="none" xmlns="http://www.w3.org/2000/svg">
<g clip-path="url(#clip0_3216_2554)">
<rect width="24" height="24" fill="white"/>
<path d="M18.0255 2.975H21.0005V20.975H18.0255V2.975ZM13.0255 20.975V7.975H16.0005V20.975H13.0255ZM8.00049 20.975V12.975H10.9505V20.975H8.00049ZM3.00049 20.975V16.975H5.97549V20.975H3.00049ZM4.80049 3.5C4.30049 3.98333 4.05049 4.61667 4.05049 5.4V7.15H6.05049V5.4C6.05049 5.2 6.11716 5.04167 6.25049 4.925C6.38382 4.79167 6.55049 4.725 6.75049 4.725C6.96716 4.725 7.13382 4.79167 7.25049 4.925C7.38382 5.04167 7.45049 5.2 7.45049 5.4V7.15H9.42549V5.4C9.42549 4.61667 9.17549 3.98333 8.67549 3.5C8.17549 3 7.53382 2.75 6.75049 2.75C5.96716 2.75 5.31716 3 4.80049 3.5ZM3.00049 6.425V10.925H10.5005V6.425H3.00049ZM6.87549 9.85H6.62549H6.87549Z" fill="black"/>
</g>
<defs>
<clipPath id="clip0_3216_2554">
<rect width="24" height="24" fill="white"/>
</clipPath>
</defs>
</svg>
