<svg width="24" height="24" viewBox="0 0 24 24" fill="none" xmlns="http://www.w3.org/2000/svg">
<g clip-path="url(#clip0_3216_2566)">
<rect width="24" height="24" fill="white"/>
<path d="M18.575 2.975H21V20.975H18.575V2.975ZM13.375 20.975V7.975H15.8V20.975H13.375ZM8.15 20.975V12.975H10.6V20.975H8.15ZM3 20.975V16.975H5.425V20.975H3ZM4.95 3.45C4.5 3.9 4.275 4.49167 4.275 5.225V7.075H5.975V5.225C5.975 4.99167 6.04167 4.80833 6.175 4.675C6.325 4.54167 6.51667 4.475 6.75 4.475C6.98333 4.475 7.16667 4.54167 7.3 4.675C7.45 4.80833 7.525 4.99167 7.525 5.225V7.075H9.225V5.225C9.225 4.49167 8.99167 3.9 8.525 3.45C8.075 2.98333 7.48333 2.75 6.75 2.75C6.01667 2.75 5.41667 2.98333 4.95 3.45ZM3 6.425V11.1H10.5V6.425H3Z" fill="black"/>
</g>
<defs>
<clipPath id="clip0_3216_2566">
<rect width="24" height="24" fill="white"/>
</clipPath>
</defs>
</svg>
