<svg width="24" height="24" viewBox="0 0 24 24" fill="none" xmlns="http://www.w3.org/2000/svg">
<g clip-path="url(#clip0_3216_2548)">
<rect width="24" height="24" fill="white"/>
<path d="M19.5755 2.975H21.0005V20.975H19.5755V2.975ZM14.0505 20.975V7.975H15.4755V20.975H14.0505ZM8.50049 20.975V12.975H9.92549V20.975H8.50049ZM3.00049 20.975V16.975H4.42549V20.975H3.00049ZM5.17549 3.375C4.75882 3.79167 4.55049 4.31667 4.55049 4.95V6.95H5.65049V4.95C5.65049 4.63333 5.75049 4.375 5.95049 4.175C6.16716 3.975 6.43382 3.875 6.75049 3.875C7.06716 3.875 7.32549 3.975 7.52549 4.175C7.74216 4.375 7.85049 4.63333 7.85049 4.95V6.95H8.95049V4.95C8.95049 4.31667 8.74216 3.79167 8.32549 3.375C7.90882 2.95833 7.38382 2.75 6.75049 2.75C6.11716 2.75 5.59216 2.95833 5.17549 3.375ZM3.00049 6.025V11.1H10.5005V6.025H3.00049ZM9.27549 9.925H4.22549V7.2H9.27549V9.925Z" fill="black"/>
</g>
<defs>
<clipPath id="clip0_3216_2548">
<rect width="24" height="24" fill="white"/>
</clipPath>
</defs>
</svg>
