<svg width="24" height="24" viewBox="0 0 24 24" fill="none" xmlns="http://www.w3.org/2000/svg">
<g clip-path="url(#clip0_3216_1932)">
<rect width="24" height="24" fill="white"/>
<path d="M6.80049 3H2.87549L3.17549 7.375H6.50049L6.80049 3ZM6.22549 8.875C5.89216 8.54167 5.43382 8.375 4.85049 8.375C4.28382 8.375 3.82549 8.54167 3.47549 8.875C3.12549 9.20833 2.95049 9.64167 2.95049 10.175C2.95049 10.6917 3.12549 11.1167 3.47549 11.45C3.82549 11.7667 4.28382 11.925 4.85049 11.925C5.41716 11.925 5.87549 11.7667 6.22549 11.45C6.57549 11.1167 6.75049 10.6917 6.75049 10.175C6.75049 9.625 6.57549 9.19167 6.22549 8.875ZM7.82549 21V13H11.3255V21H7.82549ZM3.00049 21V17H6.50049V21H3.00049Z" fill="black"/>
</g>
<defs>
<clipPath id="clip0_3216_1932">
<rect width="24" height="24" fill="white"/>
</clipPath>
</defs>
</svg>
