<svg width="24" height="24" viewBox="0 0 24 24" fill="none" xmlns="http://www.w3.org/2000/svg">
<g clip-path="url(#clip0_3216_2238)">
<rect width="24" height="24" fill="white"/>
<path d="M19.1005 3H21.0005V21H19.1005V3ZM13.7255 21V8H15.6255V21H13.7255ZM8.32549 21V13H10.2255V21H8.32549ZM3.00049 21V17H4.90049V21H3.00049ZM5.02549 3H2.92549L3.12549 8H4.82549L5.02549 3ZM4.87549 9.775C4.64216 9.525 4.34216 9.4 3.97549 9.4C3.60882 9.4 3.30882 9.525 3.07549 9.775C2.84216 10.0083 2.72549 10.3083 2.72549 10.675C2.72549 11.0417 2.84216 11.3417 3.07549 11.575C3.30882 11.7917 3.60882 11.9 3.97549 11.9C4.34216 11.9 4.64216 11.7917 4.87549 11.575C5.10882 11.3417 5.22549 11.0417 5.22549 10.675C5.22549 10.3083 5.10882 10.0083 4.87549 9.775Z" fill="black"/>
</g>
<defs>
<clipPath id="clip0_3216_2238">
<rect width="24" height="24" fill="white"/>
</clipPath>
</defs>
</svg>
