<svg width="24" height="24" viewBox="0 0 24 24" fill="none" xmlns="http://www.w3.org/2000/svg">
<g clip-path="url(#clip0_3216_2234)">
<rect width="24" height="24" fill="white"/>
<path d="M20.0255 3H21.0005V21H20.0255V3ZM14.3505 21V8H15.3255V21H14.3505ZM8.65049 21V13H9.62549V21H8.65049ZM3.00049 21V17H3.97549V21H3.00049ZM4.02549 3H2.92549L3.05049 8.475H3.90049L4.02549 3ZM4.00049 10.625C3.86716 10.475 3.69216 10.4 3.47549 10.4C3.25882 10.4 3.07549 10.475 2.92549 10.625C2.79216 10.775 2.72549 10.9583 2.72549 11.175C2.72549 11.3917 2.79216 11.5667 2.92549 11.7C3.07549 11.8333 3.25882 11.9 3.47549 11.9C3.69216 11.9 3.86716 11.8333 4.00049 11.7C4.15049 11.5667 4.22549 11.3917 4.22549 11.175C4.22549 10.9583 4.15049 10.775 4.00049 10.625Z" fill="black"/>
</g>
<defs>
<clipPath id="clip0_3216_2234">
<rect width="24" height="24" fill="white"/>
</clipPath>
</defs>
</svg>
