<svg width="24" height="24" viewBox="0 0 24 24" fill="none" xmlns="http://www.w3.org/2000/svg">
<g clip-path="url(#clip0_3216_3830)">
<rect width="24" height="24" fill="white"/>
<path d="M3.00049 21H6.60049V17H3.00049V21ZM6.80049 3L6.50049 7.375H3.17549L2.87549 3H6.80049ZM4.85049 8.375C5.43382 8.375 5.89216 8.54167 6.22549 8.875C6.57549 9.19167 6.75049 9.625 6.75049 10.175C6.75049 10.6917 6.57549 11.1167 6.22549 11.45C5.87549 11.7667 5.41716 11.925 4.85049 11.925C4.28382 11.925 3.82549 11.7667 3.47549 11.45C3.12549 11.1167 2.95049 10.6917 2.95049 10.175C2.95049 9.64167 3.12549 9.20833 3.47549 8.875C3.82549 8.54167 4.28382 8.375 4.85049 8.375Z" fill="black"/>
</g>
<defs>
<clipPath id="clip0_3216_3830">
<rect width="24" height="24" fill="white"/>
</clipPath>
</defs>
</svg>
