<svg width="24" height="24" viewBox="0 0 24 24" fill="none" xmlns="http://www.w3.org/2000/svg">
<g clip-path="url(#clip0_3216_2240)">
<rect width="24" height="24" fill="white"/>
<path d="M18.5755 3H21.0005V21H18.5755V3ZM13.3755 21V8H15.8005V21H13.3755ZM8.15049 21V13H10.6005V21H8.15049ZM3.00049 21V17H5.42549V21H3.00049ZM5.60049 3H2.92549L3.17549 7.8H5.37549L5.60049 3ZM5.32549 9.475C5.05882 9.20833 4.70882 9.075 4.27549 9.075C3.84216 9.075 3.49216 9.20833 3.22549 9.475C2.95882 9.74167 2.82549 10.0833 2.82549 10.5C2.82549 10.9167 2.95882 11.2583 3.22549 11.525C3.49216 11.775 3.84216 11.9 4.27549 11.9C4.70882 11.9 5.05882 11.775 5.32549 11.525C5.59216 11.2583 5.72549 10.9167 5.72549 10.5C5.72549 10.0833 5.59216 9.74167 5.32549 9.475Z" fill="black"/>
</g>
<defs>
<clipPath id="clip0_3216_2240">
<rect width="24" height="24" fill="white"/>
</clipPath>
</defs>
</svg>
