<svg width="24" height="24" viewBox="0 0 24 24" fill="none" xmlns="http://www.w3.org/2000/svg">
<g clip-path="url(#clip0_3216_2560)">
<rect width="24" height="24" fill="white"/>
<path d="M20.025 2.975V20.975H21V2.975H20.025ZM14.35 20.975H15.325V7.975H14.35V20.975ZM8.65 20.975H9.625V12.975H8.65V20.975ZM3 20.975H3.975V16.975H3V20.975ZM4.625 4.875C4.625 4.25833 4.825 3.75 5.225 3.35C5.64167 2.95 6.15 2.75 6.75 2.75C7.36667 2.75 7.875 2.95 8.275 3.35C8.675 3.75 8.875 4.25833 8.875 4.875V6.85H8.075V4.875C8.075 4.50833 7.95 4.2 7.7 3.95C7.45 3.68333 7.13333 3.55 6.75 3.55C6.36667 3.55 6.05 3.68333 5.8 3.95C5.55 4.2 5.425 4.50833 5.425 4.875V6.85H4.625V4.875ZM3 6.35H10.5V11.1H3V6.35Z" fill="black"/>
</g>
<defs>
<clipPath id="clip0_3216_2560">
<rect width="24" height="24" fill="white"/>
</clipPath>
</defs>
</svg>
