<svg width="24" height="24" viewBox="0 0 24 24" fill="none" xmlns="http://www.w3.org/2000/svg">
<g clip-path="url(#clip0_3234_13205)">
<rect width="24" height="24" fill="white"/>
<path d="M4.77549 21V17.2H8.67549V21H4.77549ZM6.72549 19.05C5.82549 19.05 5.00882 18.8417 4.27549 18.425C3.54216 18.0083 2.96716 17.4417 2.55049 16.725C2.13382 15.9917 1.92549 15.175 1.92549 14.275C1.92549 13.375 2.13382 12.5667 2.55049 11.85C2.96716 11.1167 3.54216 10.5417 4.27549 10.125C5.00882 9.70833 5.82549 9.5 6.72549 9.5C7.62549 9.5 8.44216 9.70833 9.17549 10.125C9.90882 10.5417 10.4838 11.1167 10.9005 11.85C11.3172 12.5667 11.5255 13.375 11.5255 14.275C11.5255 15.175 11.3172 15.9917 10.9005 16.725C10.4838 17.4417 9.90882 18.0083 9.17549 18.425C8.44216 18.8417 7.62549 19.05 6.72549 19.05ZM6.72549 15.7C7.10882 15.7 7.44216 15.5583 7.72549 15.275C8.00882 14.9917 8.15049 14.6583 8.15049 14.275C8.15049 13.8917 8.00882 13.5583 7.72549 13.275C7.44216 12.9917 7.10882 12.85 6.72549 12.85C6.34216 12.85 6.00882 12.9917 5.72549 13.275C5.44216 13.5583 5.30049 13.8917 5.30049 14.275C5.30049 14.6583 5.44216 14.9917 5.72549 15.275C6.00882 15.5583 6.34216 15.7 6.72549 15.7ZM4.77549 11.35V3H8.67549V11.35H4.77549ZM19.2255 6.8H15.3255V3H19.2255V6.8ZM17.2755 4.95C18.1755 4.95 18.9922 5.15833 19.7255 5.575C20.4588 5.99167 21.0338 6.56667 21.4505 7.3C21.8672 8.01667 22.0755 8.825 22.0755 9.725C22.0755 10.625 21.8672 11.4417 21.4505 12.175C21.0338 12.8917 20.4588 13.4583 19.7255 13.875C18.9922 14.2917 18.1755 14.5 17.2755 14.5C16.3755 14.5 15.5588 14.2917 14.8255 13.875C14.0922 13.4583 13.5172 12.8917 13.1005 12.175C12.6838 11.4417 12.4755 10.625 12.4755 9.725C12.4755 8.825 12.6838 8.01667 13.1005 7.3C13.5172 6.56667 14.0922 5.99167 14.8255 5.575C15.5588 5.15833 16.3755 4.95 17.2755 4.95ZM17.2755 8.3C16.8922 8.3 16.5588 8.44167 16.2755 8.725C15.9922 9.00833 15.8505 9.34167 15.8505 9.725C15.8505 10.1083 15.9922 10.4417 16.2755 10.725C16.5588 11.0083 16.8922 11.15 17.2755 11.15C17.6588 11.15 17.9922 11.0083 18.2755 10.725C18.5588 10.4417 18.7005 10.1083 18.7005 9.725C18.7005 9.34167 18.5588 9.00833 18.2755 8.725C17.9922 8.44167 17.6588 8.3 17.2755 8.3ZM19.2255 21H15.3255V12.65H19.2255V21Z" fill="black"/>
</g>
<defs>
<clipPath id="clip0_3234_13205">
<rect width="24" height="24" fill="white"/>
</clipPath>
</defs>
</svg>
