<svg width="24" height="24" viewBox="0 0 24 24" fill="none" xmlns="http://www.w3.org/2000/svg">
<g clip-path="url(#clip0_3234_13203)">
<rect width="24" height="24" fill="white"/>
<path d="M4.87549 21V17.1H7.97549V21H4.87549ZM6.42549 18.65C5.59216 18.65 4.82549 18.4583 4.12549 18.075C3.44216 17.675 2.90049 17.1333 2.50049 16.45C2.11716 15.75 1.92549 14.9917 1.92549 14.175C1.92549 13.3417 2.11716 12.5833 2.50049 11.9C2.90049 11.2 3.44216 10.6583 4.12549 10.275C4.82549 9.89167 5.59216 9.7 6.42549 9.7C7.25882 9.7 8.01716 9.89167 8.70049 10.275C9.40049 10.6583 9.94216 11.2 10.3255 11.9C10.7255 12.5833 10.9255 13.3417 10.9255 14.175C10.9255 14.9917 10.7255 15.75 10.3255 16.45C9.94216 17.1333 9.40049 17.675 8.70049 18.075C8.01716 18.4583 7.25882 18.65 6.42549 18.65ZM6.42549 15.9C6.90882 15.9 7.31716 15.7333 7.65049 15.4C7.98382 15.0667 8.15049 14.6583 8.15049 14.175C8.15049 13.6917 7.98382 13.2833 7.65049 12.95C7.31716 12.6 6.90882 12.425 6.42549 12.425C5.94216 12.425 5.53382 12.5917 5.20049 12.925C4.86716 13.2583 4.70049 13.675 4.70049 14.175C4.70049 14.6583 4.86716 15.0667 5.20049 15.4C5.53382 15.7333 5.94216 15.9 6.42549 15.9ZM4.87549 11.25V3H7.97549V11.25H4.87549ZM19.1255 6.9H16.0255V3H19.1255V6.9ZM17.5755 5.35C18.4088 5.35 19.1672 5.55 19.8505 5.95C20.5505 6.33333 21.0922 6.875 21.4755 7.575C21.8755 8.25833 22.0755 9.00833 22.0755 9.825C22.0755 10.6583 21.8755 11.425 21.4755 12.125C21.0922 12.8083 20.5505 13.3417 19.8505 13.725C19.1672 14.1083 18.4088 14.3 17.5755 14.3C16.7422 14.3 15.9755 14.1083 15.2755 13.725C14.5922 13.3417 14.0505 12.8083 13.6505 12.125C13.2672 11.425 13.0755 10.6583 13.0755 9.825C13.0755 9.00833 13.2672 8.25833 13.6505 7.575C14.0505 6.875 14.5922 6.33333 15.2755 5.95C15.9755 5.55 16.7422 5.35 17.5755 5.35ZM17.5755 8.1C17.0922 8.1 16.6838 8.26667 16.3505 8.6C16.0172 8.93333 15.8505 9.34167 15.8505 9.825C15.8505 10.3083 16.0172 10.725 16.3505 11.075C16.6838 11.4083 17.0922 11.575 17.5755 11.575C18.0588 11.575 18.4672 11.4083 18.8005 11.075C19.1338 10.7417 19.3005 10.325 19.3005 9.825C19.3005 9.34167 19.1338 8.93333 18.8005 8.6C18.4672 8.26667 18.0588 8.1 17.5755 8.1ZM19.1255 21H16.0255V12.75H19.1255V21Z" fill="black"/>
</g>
<defs>
<clipPath id="clip0_3234_13203">
<rect width="24" height="24" fill="white"/>
</clipPath>
</defs>
</svg>
