<svg width="24" height="24" viewBox="0 0 24 24" fill="none" xmlns="http://www.w3.org/2000/svg">
<g clip-path="url(#clip0_3234_13199)">
<rect width="24" height="24" fill="white"/>
<path d="M5.00049 21V16.925H6.85049V21H5.00049ZM5.92549 17.975C5.19216 17.975 4.51716 17.8 3.90049 17.45C3.28382 17.1 2.80049 16.625 2.45049 16.025C2.10049 15.4083 1.92549 14.7333 1.92549 14C1.92549 13.2667 2.10049 12.6 2.45049 12C2.80049 11.3833 3.28382 10.9 3.90049 10.55C4.51716 10.2 5.19216 10.025 5.92549 10.025C6.65882 10.025 7.33382 10.2 7.95049 10.55C8.56716 10.9 9.05049 11.3833 9.40049 12C9.75049 12.6 9.92549 13.2667 9.92549 14C9.92549 14.7333 9.75049 15.4083 9.40049 16.025C9.05049 16.625 8.56716 17.1 7.95049 17.45C7.33382 17.8 6.65882 17.975 5.92549 17.975ZM5.92549 16.2C6.54216 16.2 7.05882 15.9917 7.47549 15.575C7.90882 15.1417 8.12549 14.6167 8.12549 14C8.12549 13.3833 7.90882 12.8667 7.47549 12.45C7.05882 12.0167 6.54216 11.8 5.92549 11.8C5.30882 11.8 4.78382 12.0167 4.35049 12.45C3.93382 12.8667 3.72549 13.3833 3.72549 14C3.72549 14.6167 3.93382 15.1417 4.35049 15.575C4.78382 15.9917 5.30882 16.2 5.92549 16.2ZM5.00049 11.075V3H6.85049V11.075H5.00049ZM19.0005 7.075H17.1505V3H19.0005V7.075ZM18.0755 6.025C18.8088 6.025 19.4838 6.2 20.1005 6.55C20.7172 6.9 21.2005 7.38333 21.5505 8C21.9005 8.6 22.0755 9.26667 22.0755 10C22.0755 10.7333 21.9005 11.4083 21.5505 12.025C21.2005 12.625 20.7172 13.1 20.1005 13.45C19.4838 13.8 18.8088 13.975 18.0755 13.975C17.3422 13.975 16.6672 13.8 16.0505 13.45C15.4338 13.1 14.9505 12.625 14.6005 12.025C14.2505 11.4083 14.0755 10.7333 14.0755 10C14.0755 9.26667 14.2505 8.6 14.6005 8C14.9505 7.38333 15.4338 6.9 16.0505 6.55C16.6672 6.2 17.3422 6.025 18.0755 6.025ZM18.0755 7.8C17.4588 7.8 16.9338 8.01667 16.5005 8.45C16.0838 8.86667 15.8755 9.38333 15.8755 10C15.8755 10.6167 16.0838 11.1417 16.5005 11.575C16.9338 11.9917 17.4588 12.2 18.0755 12.2C18.6922 12.2 19.2088 11.9917 19.6255 11.575C20.0588 11.1417 20.2755 10.6167 20.2755 10C20.2755 9.38333 20.0588 8.86667 19.6255 8.45C19.2088 8.01667 18.6922 7.8 18.0755 7.8ZM19.0005 21H17.1505V12.925H19.0005V21Z" fill="black"/>
</g>
<defs>
<clipPath id="clip0_3234_13199">
<rect width="24" height="24" fill="white"/>
</clipPath>
</defs>
</svg>
