<svg width="24" height="24" viewBox="0 0 24 24" fill="none" xmlns="http://www.w3.org/2000/svg">
<g clip-path="url(#clip0_3216_3636)">
<rect width="24" height="24" fill="white"/>
<path d="M7.25 21H4V12.125H7.25V21ZM13.625 21H10.375V14.875H13.625V21ZM7.25 14.2C6.75 14.4833 6.20833 14.625 5.625 14.625C5.04167 14.625 4.5 14.4833 4 14.2C3.5 13.9 3.1 13.5 2.8 13C2.51667 12.5 2.375 11.9583 2.375 11.375C2.375 10.7917 2.51667 10.25 2.8 9.75C3.1 9.25 3.5 8.85833 4 8.575C4.5 8.275 5.04167 8.125 5.625 8.125C6.20833 8.125 6.75 8.275 7.25 8.575C7.75 8.85833 8.14167 9.25 8.425 9.75C8.725 10.25 8.875 10.7917 8.875 11.375C8.875 11.9583 8.725 12.5 8.425 13C8.14167 13.5 7.75 13.9 7.25 14.2ZM13.625 18.45C13.125 18.7333 12.5833 18.875 12 18.875C11.4167 18.875 10.875 18.7333 10.375 18.45C9.875 18.15 9.475 17.75 9.175 17.25C8.89167 16.75 8.75 16.2083 8.75 15.625C8.75 15.0417 8.89167 14.5 9.175 14C9.475 13.5 9.875 13.1083 10.375 12.825C10.875 12.525 11.4167 12.375 12 12.375C12.5833 12.375 13.125 12.525 13.625 12.825C14.125 13.1083 14.5167 13.5 14.8 14C15.1 14.5 15.25 15.0417 15.25 15.625C15.25 16.2083 15.1 16.75 14.8 17.25C14.5167 17.75 14.125 18.15 13.625 18.45ZM4 3V6.375H7.25V3H4ZM20 21H16.75V12.125H20V21ZM10.375 3V10.625H13.625V3H10.375ZM20 14.2C19.5 14.4833 18.9583 14.625 18.375 14.625C17.7917 14.625 17.25 14.4833 16.75 14.2C16.25 13.9 15.85 13.5 15.55 13C15.2667 12.5 15.125 11.9583 15.125 11.375C15.125 10.7917 15.2667 10.25 15.55 9.75C15.85 9.25 16.25 8.85833 16.75 8.575C17.25 8.275 17.7917 8.125 18.375 8.125C18.9583 8.125 19.5 8.275 20 8.575C20.5 8.85833 20.8917 9.25 21.175 9.75C21.475 10.25 21.625 10.7917 21.625 11.375C21.625 11.9583 21.475 12.5 21.175 13C20.8917 13.5 20.5 13.9 20 14.2ZM16.75 3V6.375H20V3H16.75Z" fill="black"/>
</g>
<defs>
<clipPath id="clip0_3216_3636">
<rect width="24" height="24" fill="white"/>
</clipPath>
</defs>
</svg>
