<svg width="24" height="24" viewBox="0 0 24 24" fill="none" xmlns="http://www.w3.org/2000/svg">
<g clip-path="url(#clip0_3234_13203)">
<rect width="24" height="24" fill="white"/>
<path d="M4.85049 21V17.1H8.07549V21H4.85049ZM6.45049 18.7C5.61716 18.7 4.85049 18.5 4.15049 18.1C3.45049 17.7 2.90049 17.1583 2.50049 16.475C2.11716 15.7917 1.92549 15.025 1.92549 14.175C1.92549 13.3417 2.11716 12.5833 2.50049 11.9C2.90049 11.2 3.45049 10.6583 4.15049 10.275C4.85049 9.875 5.61716 9.675 6.45049 9.675C7.30049 9.675 8.06716 9.875 8.75049 10.275C9.45049 10.6583 10.0005 11.2 10.4005 11.9C10.8005 12.5833 11.0005 13.3417 11.0005 14.175C11.0005 15.025 10.8005 15.7917 10.4005 16.475C10.0005 17.1583 9.45049 17.7 8.75049 18.1C8.06716 18.5 7.30049 18.7 6.45049 18.7ZM6.45049 15.875C6.91716 15.875 7.31716 15.7083 7.65049 15.375C7.98382 15.0417 8.15049 14.6417 8.15049 14.175C8.15049 13.725 7.98382 13.3333 7.65049 13C7.31716 12.6667 6.91716 12.5 6.45049 12.5C6.00049 12.5 5.60882 12.6667 5.27549 13C4.94216 13.3333 4.77549 13.725 4.77549 14.175C4.77549 14.6417 4.94216 15.0417 5.27549 15.375C5.60882 15.7083 6.00049 15.875 6.45049 15.875ZM4.85049 11.25V3H8.07549V11.25H4.85049ZM19.1505 6.9H15.9255V3H19.1505V6.9ZM17.5505 5.3C18.3838 5.3 19.1505 5.5 19.8505 5.9C20.5505 6.3 21.0922 6.84167 21.4755 7.525C21.8755 8.20833 22.0755 8.975 22.0755 9.825C22.0755 10.6583 21.8755 11.425 21.4755 12.125C21.0922 12.8083 20.5505 13.35 19.8505 13.75C19.1505 14.1333 18.3838 14.325 17.5505 14.325C16.7005 14.325 15.9255 14.1333 15.2255 13.75C14.5422 13.35 14.0005 12.8083 13.6005 12.125C13.2005 11.425 13.0005 10.6583 13.0005 9.825C13.0005 8.975 13.2005 8.20833 13.6005 7.525C14.0005 6.84167 14.5422 6.3 15.2255 5.9C15.9255 5.5 16.7005 5.3 17.5505 5.3ZM17.5505 8.125C17.0838 8.125 16.6838 8.29167 16.3505 8.625C16.0172 8.95833 15.8505 9.35833 15.8505 9.825C15.8505 10.275 16.0172 10.6667 16.3505 11C16.6838 11.3333 17.0838 11.5 17.5505 11.5C18.0005 11.5 18.3922 11.3333 18.7255 11C19.0588 10.6667 19.2255 10.275 19.2255 9.825C19.2255 9.35833 19.0588 8.95833 18.7255 8.625C18.3922 8.29167 18.0005 8.125 17.5505 8.125ZM19.1505 21H15.9255V12.75H19.1505V21Z" fill="black"/>
</g>
<defs>
<clipPath id="clip0_3234_13203">
<rect width="24" height="24" fill="white"/>
</clipPath>
</defs>
</svg>
