<svg width="24" height="24" viewBox="0 0 24 24" fill="none" xmlns="http://www.w3.org/2000/svg">
<g clip-path="url(#clip0_3234_13209)">
<rect width="24" height="24" fill="white"/>
<path d="M5.25 21V16.75H6.25V21H5.25ZM5.75 17.75C5.1 17.75 4.50833 17.6 3.975 17.3C3.44167 16.9833 3.01667 16.5667 2.7 16.05C2.4 15.5167 2.25 14.925 2.25 14.275C2.25 13.625 2.4 13.0417 2.7 12.525C3.01667 11.9917 3.44167 11.575 3.975 11.275C4.50833 10.9583 5.1 10.8 5.75 10.8C6.4 10.8 6.99167 10.9583 7.525 11.275C8.05833 11.575 8.475 11.9917 8.775 12.525C9.09167 13.0417 9.25 13.625 9.25 14.275C9.25 14.925 9.09167 15.5167 8.775 16.05C8.475 16.5667 8.05833 16.9833 7.525 17.3C6.99167 17.6 6.4 17.75 5.75 17.75ZM5.25 8.975V3H6.25V8.975H5.25ZM18.75 5.45H17.75V3H18.75V5.45ZM18.25 7.275C18.9 7.275 19.4917 7.43333 20.025 7.75C20.5583 8.05 20.975 8.46667 21.275 9C21.5917 9.51667 21.75 10.1 21.75 10.75C21.75 11.4 21.5917 11.9917 21.275 12.525C20.975 13.0417 20.5583 13.4583 20.025 13.775C19.4917 14.075 18.9 14.225 18.25 14.225C17.6 14.225 17.0083 14.075 16.475 13.775C15.9417 13.4583 15.5167 13.0417 15.2 12.525C14.9 11.9917 14.75 11.4 14.75 10.75C14.75 10.1 14.9 9.51667 15.2 9C15.5167 8.46667 15.9417 8.05 16.475 7.75C17.0083 7.43333 17.6 7.275 18.25 7.275ZM18.75 21H17.75V13.675H18.75V21Z" fill="black"/>
</g>
<defs>
<clipPath id="clip0_3234_13209">
<rect width="24" height="24" fill="white"/>
</clipPath>
</defs>
</svg>
