<svg width="24" height="24" viewBox="0 0 24 24" fill="none" xmlns="http://www.w3.org/2000/svg">
<g clip-path="url(#clip0_3216_3312)">
<rect width="24" height="24" fill="white"/>
<path d="M3 5.525H7.25V6H3V5.525ZM6.25 5.75C6.25 5.1 6.4 4.50833 6.7 3.975C7.01667 3.44167 7.43333 3.025 7.95 2.725C8.48333 2.40833 9.075 2.25 9.725 2.25C10.375 2.25 10.9583 2.40833 11.475 2.725C12.0083 3.025 12.425 3.44167 12.725 3.975C13.0417 4.50833 13.2 5.1 13.2 5.75C13.2 6.4 13.0417 6.99167 12.725 7.525C12.425 8.05833 12.0083 8.48333 11.475 8.8C10.9583 9.1 10.375 9.25 9.725 9.25C9.075 9.25 8.48333 9.1 7.95 8.8C7.43333 8.48333 7.01667 8.05833 6.7 7.525C6.4 6.99167 6.25 6.4 6.25 5.75ZM15.2 5.525H21V6H15.2V5.525ZM18.725 18.5V18.025H21V18.5H18.725ZM16.725 18.25C16.725 18.9 16.5667 19.4917 16.25 20.025C15.95 20.5583 15.5333 20.975 15 21.275C14.4833 21.5917 13.9 21.75 13.25 21.75C12.6 21.75 12.0083 21.5917 11.475 21.275C10.9583 20.975 10.5417 20.5583 10.225 20.025C9.925 19.4917 9.775 18.9 9.775 18.25C9.775 17.6 9.925 17.0083 10.225 16.475C10.5417 15.9417 10.9583 15.525 11.475 15.225C12.0083 14.9083 12.6 14.75 13.25 14.75C13.9 14.75 14.4833 14.9083 15 15.225C15.5333 15.525 15.95 15.9417 16.25 16.475C16.5667 17.0083 16.725 17.6 16.725 18.25ZM3 18.5V18.025H10.325V18.5H3Z" fill="black"/>
</g>
<defs>
<clipPath id="clip0_3216_3312">
<rect width="24" height="24" fill="white"/>
</clipPath>
</defs>
</svg>
