<svg width="24" height="24" viewBox="0 0 24 24" fill="none" xmlns="http://www.w3.org/2000/svg">
<g clip-path="url(#clip0_3234_13219)">
<rect width="24" height="24" fill="white"/>
<path d="M4.625 21V16H8.375V21H4.625ZM6.5 18.475C5.71667 18.475 5 18.2917 4.35 17.925C3.7 17.5583 3.18333 17.0583 2.8 16.425C2.43333 15.775 2.25 15.0583 2.25 14.275C2.25 13.4917 2.43333 12.775 2.8 12.125C3.18333 11.475 3.7 10.9667 4.35 10.6C5 10.2333 5.71667 10.05 6.5 10.05C7.28333 10.05 8 10.2333 8.65 10.6C9.3 10.9667 9.80833 11.475 10.175 12.125C10.5583 12.775 10.75 13.4917 10.75 14.275C10.75 15.0583 10.5583 15.775 10.175 16.425C9.80833 17.0583 9.3 17.5583 8.65 17.925C8 18.2917 7.28333 18.475 6.5 18.475ZM4.625 8.55V3H8.375V8.55H4.625ZM19.375 6.275H15.625V3H19.375V6.275ZM17.5 7.775C18.2833 7.775 19 7.95833 19.65 8.325C20.3 8.69167 20.8083 9.2 21.175 9.85C21.5583 10.5 21.75 11.2167 21.75 12C21.75 12.7833 21.5583 13.5 21.175 14.15C20.8083 14.7833 20.3 15.2833 19.65 15.65C19 16.0167 18.2833 16.2 17.5 16.2C16.7167 16.2 16 16.0167 15.35 15.65C14.7 15.2833 14.1833 14.7833 13.8 14.15C13.4333 13.5 13.25 12.7833 13.25 12C13.25 11.2167 13.4333 10.5 13.8 9.85C14.1833 9.2 14.7 8.69167 15.35 8.325C16 7.95833 16.7167 7.775 17.5 7.775ZM19.375 21H15.625V14.175H19.375V21Z" fill="black"/>
</g>
<defs>
<clipPath id="clip0_3234_13219">
<rect width="24" height="24" fill="white"/>
</clipPath>
</defs>
</svg>
