<svg width="24" height="24" viewBox="0 0 24 24" fill="none" xmlns="http://www.w3.org/2000/svg">
<g clip-path="url(#clip0_3257_20530)">
<rect width="24" height="24" fill="white"/>
<path d="M3 4.725H6.825V7.275H3V4.725ZM5.35 6C5.35 5.3 5.50833 4.66667 5.825 4.1C6.15833 3.53333 6.60833 3.08333 7.175 2.75C7.74167 2.41667 8.36667 2.25 9.05 2.25C9.75 2.25 10.3833 2.41667 10.95 2.75C11.5167 3.08333 11.9583 3.53333 12.275 4.1C12.6083 4.66667 12.775 5.3 12.775 6C12.775 6.7 12.6083 7.33333 12.275 7.9C11.9583 8.46667 11.5167 8.91667 10.95 9.25C10.3833 9.58333 9.75 9.75 9.05 9.75C8.36667 9.75 7.74167 9.58333 7.175 9.25C6.60833 8.91667 6.15833 8.46667 5.825 7.9C5.50833 7.33333 5.35 6.7 5.35 6ZM14.7 4.725H21V7.275H14.7V4.725ZM17.725 19.275V16.725H21V19.275H17.725ZM15.8 18C15.8 18.7 15.6333 19.3333 15.3 19.9C14.9833 20.4667 14.5417 20.9167 13.975 21.25C13.4083 21.5833 12.775 21.75 12.075 21.75C11.3917 21.75 10.7667 21.5833 10.2 21.25C9.63333 20.9167 9.18333 20.4667 8.85 19.9C8.53333 19.3333 8.375 18.7 8.375 18C8.375 17.3 8.53333 16.6667 8.85 16.1C9.18333 15.5333 9.63333 15.0833 10.2 14.75C10.7667 14.4167 11.3917 14.25 12.075 14.25C12.775 14.25 13.4083 14.4167 13.975 14.75C14.5417 15.0833 14.9833 15.5333 15.3 16.1C15.6333 16.6667 15.8 17.3 15.8 18ZM3 19.275V16.725H9.4V19.275H3Z" fill="black"/>
</g>
<defs>
<clipPath id="clip0_3257_20530">
<rect width="24" height="24" fill="white"/>
</clipPath>
</defs>
</svg>
