<svg width="24" height="24" viewBox="0 0 24 24" fill="none" xmlns="http://www.w3.org/2000/svg">
<g clip-path="url(#clip0_3257_20516)">
<rect width="24" height="24" fill="white"/>
<path d="M3.00049 4.9H7.00049V7.3H3.00049V4.9ZM5.75049 6.1C5.75049 5.33333 5.92549 4.63333 6.27549 4C6.64216 3.36667 7.14216 2.86667 7.77549 2.5C8.42549 2.13333 9.13382 1.95 9.90049 1.95C10.6672 1.95 11.3672 2.13333 12.0005 2.5C12.6505 2.86667 13.1505 3.36667 13.5005 4C13.8672 4.63333 14.0505 5.33333 14.0505 6.1C14.0505 6.86667 13.8672 7.56667 13.5005 8.2C13.1505 8.83333 12.6505 9.33333 12.0005 9.7C11.3672 10.0667 10.6672 10.25 9.90049 10.25C9.13382 10.25 8.42549 10.0667 7.77549 9.7C7.14216 9.33333 6.64216 8.83333 6.27549 8.2C5.92549 7.56667 5.75049 6.86667 5.75049 6.1ZM7.95049 6.1C7.95049 6.65 8.14216 7.11667 8.52549 7.5C8.90882 7.88333 9.37549 8.075 9.92549 8.075C10.4755 8.075 10.9422 7.88333 11.3255 7.5C11.7088 7.11667 11.9005 6.65 11.9005 6.1C11.9005 5.55 11.7088 5.08333 11.3255 4.7C10.9422 4.31667 10.4755 4.125 9.92549 4.125C9.37549 4.125 8.90882 4.31667 8.52549 4.7C8.14216 5.08333 7.95049 5.55 7.95049 6.1ZM12.8505 4.9H21.0005V7.3H12.8505V4.9ZM17.1755 19.1L17.0005 16.7H21.0005V19.1H17.1755ZM18.2255 17.9C18.2255 18.6667 18.0422 19.3667 17.6755 20C17.3088 20.6333 16.8088 21.1333 16.1755 21.5C15.5422 21.8667 14.8422 22.05 14.0755 22.05C13.3088 22.05 12.6005 21.8667 11.9505 21.5C11.3172 21.1333 10.8172 20.6333 10.4505 20C10.0838 19.3667 9.90049 18.6667 9.90049 17.9C9.90049 17.1333 10.0838 16.4333 10.4505 15.8C10.8172 15.1667 11.3172 14.6667 11.9505 14.3C12.6005 13.9333 13.3088 13.75 14.0755 13.75C14.8422 13.75 15.5422 13.9333 16.1755 14.3C16.8088 14.6667 17.3088 15.1667 17.6755 15.8C18.0422 16.4333 18.2255 17.1333 18.2255 17.9ZM16.0505 17.9C16.0505 17.35 15.8588 16.8833 15.4755 16.5C15.1088 16.1167 14.6422 15.925 14.0755 15.925C13.5255 15.925 13.0588 16.1167 12.6755 16.5C12.2922 16.8833 12.1005 17.35 12.1005 17.9C12.1005 18.45 12.2922 18.9167 12.6755 19.3C13.0588 19.6833 13.5255 19.875 14.0755 19.875C14.6422 19.875 15.1088 19.6833 15.4755 19.3C15.8588 18.9167 16.0505 18.45 16.0505 17.9ZM3.00049 19.1V16.7H11.0005V19.1H3.00049Z" fill="black"/>
</g>
<defs>
<clipPath id="clip0_3257_20516">
<rect width="24" height="24" fill="white"/>
</clipPath>
</defs>
</svg>
