<svg width="24" height="24" viewBox="0 0 24 24" fill="none" xmlns="http://www.w3.org/2000/svg">
<g clip-path="url(#clip0_3216_3324)">
<rect width="24" height="24" fill="white"/>
<path d="M3 4.65H7V8.35H3V4.65ZM4.525 6.5C4.525 5.71667 4.70833 5 5.075 4.35C5.44167 3.7 5.94167 3.19167 6.575 2.825C7.225 2.44167 7.94167 2.25 8.725 2.25C9.50833 2.25 10.225 2.44167 10.875 2.825C11.525 3.19167 12.0333 3.7 12.4 4.35C12.7667 5 12.95 5.71667 12.95 6.5C12.95 7.28333 12.7667 8 12.4 8.65C12.0333 9.3 11.525 9.81667 10.875 10.2C10.225 10.5667 9.50833 10.75 8.725 10.75C7.94167 10.75 7.225 10.5667 6.575 10.2C5.94167 9.81667 5.44167 9.3 5.075 8.65C4.70833 8 4.525 7.28333 4.525 6.5ZM14.7 4.65H21V8.35H14.7V4.65ZM16.975 19.35V15.65H21V19.35H16.975ZM15.225 17.5C15.225 18.2833 15.0417 19 14.675 19.65C14.3083 20.3 13.8 20.8083 13.15 21.175C12.5 21.5583 11.7833 21.75 11 21.75C10.2167 21.75 9.5 21.5583 8.85 21.175C8.21667 20.8083 7.71667 20.3 7.35 19.65C6.98333 19 6.8 18.2833 6.8 17.5C6.8 16.7167 6.98333 16 7.35 15.35C7.71667 14.7 8.21667 14.1917 8.85 13.825C9.5 13.4417 10.2167 13.25 11 13.25C11.7833 13.25 12.5 13.4417 13.15 13.825C13.8 14.1917 14.3083 14.7 14.675 15.35C15.0417 16 15.225 16.7167 15.225 17.5ZM3 19.35V15.65H8.825V19.35H3Z" fill="black"/>
</g>
<defs>
<clipPath id="clip0_3216_3324">
<rect width="24" height="24" fill="white"/>
</clipPath>
</defs>
</svg>
