<svg width="24" height="24" viewBox="0 0 24 24" fill="none" xmlns="http://www.w3.org/2000/svg">
<g clip-path="url(#clip0_3234_13217)">
<rect width="24" height="24" fill="white"/>
<path d="M4.675 21V16.25H7.825V21H4.675ZM6.25 18.225C5.51667 18.225 4.84167 18.0583 4.225 17.725C3.60833 17.375 3.125 16.9 2.775 16.3C2.425 15.7 2.25 15.025 2.25 14.275C2.25 13.5417 2.425 12.875 2.775 12.275C3.125 11.6583 3.6 11.175 4.2 10.825C4.81667 10.475 5.5 10.3 6.25 10.3C6.98333 10.3 7.65833 10.475 8.275 10.825C8.89167 11.175 9.375 11.6583 9.725 12.275C10.075 12.875 10.25 13.5417 10.25 14.275C10.25 15.0083 10.075 15.6833 9.725 16.3C9.375 16.9 8.89167 17.375 8.275 17.725C7.675 18.0583 7 18.225 6.25 18.225ZM4.675 8.8V3H7.825V8.8H4.675ZM19.325 6.1H16.175V3H19.325V6.1ZM17.75 7.6C18.4833 7.6 19.1583 7.775 19.775 8.125C20.3917 8.475 20.875 8.95833 21.225 9.575C21.575 10.175 21.75 10.8417 21.75 11.575C21.75 12.325 21.575 13 21.225 13.6C20.875 14.2 20.3917 14.675 19.775 15.025C19.175 15.375 18.5 15.55 17.75 15.55C17.0167 15.55 16.3417 15.375 15.725 15.025C15.1083 14.675 14.625 14.2 14.275 13.6C13.925 13 13.75 12.325 13.75 11.575C13.75 10.8417 13.925 10.175 14.275 9.575C14.625 8.95833 15.1 8.475 15.7 8.125C16.3167 7.775 17 7.6 17.75 7.6ZM19.325 21H16.175V14H19.325V21Z" fill="black"/>
</g>
<defs>
<clipPath id="clip0_3234_13217">
<rect width="24" height="24" fill="white"/>
</clipPath>
</defs>
</svg>
