<svg width="24" height="24" viewBox="0 0 24 24" fill="none" xmlns="http://www.w3.org/2000/svg">
<g clip-path="url(#clip0_3257_20528)">
<rect width="24" height="24" fill="white"/>
<path d="M3 4.775H6.75V6.725H3V4.775ZM5.75 5.75C5.75 5.1 5.9 4.50833 6.2 3.975C6.51667 3.44167 6.93333 3.025 7.45 2.725C7.98333 2.40833 8.575 2.25 9.225 2.25C9.875 2.25 10.4583 2.40833 10.975 2.725C11.5083 3.025 11.925 3.44167 12.225 3.975C12.5417 4.50833 12.7 5.1 12.7 5.75C12.7 6.4 12.5417 6.99167 12.225 7.525C11.925 8.05833 11.5083 8.48333 10.975 8.8C10.4583 9.1 9.875 9.25 9.225 9.25C8.575 9.25 7.98333 9.1 7.45 8.8C6.93333 8.48333 6.51667 8.05833 6.2 7.525C5.9 6.99167 5.75 6.4 5.75 5.75ZM14.7 4.775H21V6.725H14.7V4.775ZM18.225 19.225V17.275H21V19.225H18.225ZM16.225 18.25C16.225 18.9 16.0667 19.4917 15.75 20.025C15.45 20.5583 15.0333 20.975 14.5 21.275C13.9833 21.5917 13.4 21.75 12.75 21.75C12.1 21.75 11.5083 21.5917 10.975 21.275C10.4583 20.975 10.0417 20.5583 9.725 20.025C9.425 19.4917 9.275 18.9 9.275 18.25C9.275 17.6 9.425 17.0083 9.725 16.475C10.0417 15.9417 10.4583 15.525 10.975 15.225C11.5083 14.9083 12.1 14.75 12.75 14.75C13.4 14.75 13.9833 14.9083 14.5 15.225C15.0333 15.525 15.45 15.9417 15.75 16.475C16.0667 17.0083 16.225 17.6 16.225 18.25ZM3 19.225V17.275H9.825V19.225H3Z" fill="black"/>
</g>
<defs>
<clipPath id="clip0_3257_20528">
<rect width="24" height="24" fill="white"/>
</clipPath>
</defs>
</svg>
