<svg width="24" height="24" viewBox="0 0 24 24" fill="none" xmlns="http://www.w3.org/2000/svg">
<g clip-path="url(#clip0_3234_13205)">
<rect width="24" height="24" fill="white"/>
<path d="M4.80049 21V17.175H8.55049V21H4.80049ZM6.67549 18.975C5.79216 18.975 4.98382 18.775 4.25049 18.375C3.53382 17.9583 2.96716 17.3917 2.55049 16.675C2.13382 15.9417 1.92549 15.1333 1.92549 14.25C1.92549 13.3667 2.13382 12.5667 2.55049 11.85C2.96716 11.1167 3.53382 10.55 4.25049 10.15C4.98382 9.73333 5.79216 9.525 6.67549 9.525C7.55882 9.525 8.35882 9.73333 9.07549 10.15C9.80882 10.55 10.3838 11.1167 10.8005 11.85C11.2172 12.5667 11.4255 13.3667 11.4255 14.25C11.4255 15.1333 11.2172 15.9417 10.8005 16.675C10.3838 17.3917 9.80882 17.9583 9.07549 18.375C8.35882 18.775 7.55882 18.975 6.67549 18.975ZM6.67549 15.75C7.09216 15.75 7.44216 15.6083 7.72549 15.325C8.02549 15.025 8.17549 14.6667 8.17549 14.25C8.17549 13.8333 8.02549 13.4833 7.72549 13.2C7.44216 12.9 7.09216 12.75 6.67549 12.75C6.25882 12.75 5.90049 12.9 5.60049 13.2C5.31716 13.4833 5.17549 13.8333 5.17549 14.25C5.17549 14.6667 5.31716 15.025 5.60049 15.325C5.90049 15.6083 6.25882 15.75 6.67549 15.75ZM4.80049 11.325V3H8.55049V11.325H4.80049ZM19.2005 6.825H15.4505V3H19.2005V6.825ZM17.3255 5.025C18.2088 5.025 19.0088 5.23333 19.7255 5.65C20.4588 6.05 21.0338 6.61667 21.4505 7.35C21.8672 8.06667 22.0755 8.86667 22.0755 9.75C22.0755 10.6333 21.8672 11.4417 21.4505 12.175C21.0338 12.8917 20.4588 13.4583 19.7255 13.875C19.0088 14.275 18.2088 14.475 17.3255 14.475C16.4422 14.475 15.6338 14.275 14.9005 13.875C14.1838 13.4583 13.6172 12.8917 13.2005 12.175C12.7838 11.4417 12.5755 10.6333 12.5755 9.75C12.5755 8.86667 12.7838 8.06667 13.2005 7.35C13.6172 6.61667 14.1838 6.05 14.9005 5.65C15.6338 5.23333 16.4422 5.025 17.3255 5.025ZM17.3255 8.25C16.9088 8.25 16.5505 8.4 16.2505 8.7C15.9672 8.98333 15.8255 9.33333 15.8255 9.75C15.8255 10.1667 15.9672 10.525 16.2505 10.825C16.5505 11.1083 16.9088 11.25 17.3255 11.25C17.7422 11.25 18.0922 11.1083 18.3755 10.825C18.6755 10.525 18.8255 10.1667 18.8255 9.75C18.8255 9.33333 18.6755 8.98333 18.3755 8.7C18.0922 8.4 17.7422 8.25 17.3255 8.25ZM19.2005 21H15.4505V12.675H19.2005V21Z" fill="black"/>
</g>
<defs>
<clipPath id="clip0_3234_13205">
<rect width="24" height="24" fill="white"/>
</clipPath>
</defs>
</svg>
