<svg width="24" height="24" viewBox="0 0 24 24" fill="none" xmlns="http://www.w3.org/2000/svg">
<g clip-path="url(#clip0_3216_1820)">
<rect width="24" height="24" fill="white"/>
<path d="M18.2505 19.575C19.0672 18.7417 19.6922 17.7833 20.1255 16.7C20.5755 15.6 20.8005 14.45 20.8005 13.25C20.8005 11.6 20.4088 10.1 19.6255 8.75C18.8422 7.4 17.7755 6.34167 16.4255 5.575C15.0922 4.79167 13.6172 4.4 12.0005 4.4C10.3838 4.4 8.90049 4.79167 7.55049 5.575C6.21716 6.34167 5.15882 7.4 4.37549 8.75C3.59216 10.1 3.20049 11.6 3.20049 13.25C3.20049 14.45 3.41716 15.6 3.85049 16.7C4.30049 17.7833 4.93382 18.7417 5.75049 19.575L4.72549 20.575C3.75882 19.6083 3.01716 18.5 2.50049 17.25C1.98382 15.9833 1.72549 14.65 1.72549 13.25C1.72549 11.35 2.18382 9.61667 3.10049 8.05C4.01716 6.48333 5.25882 5.25 6.82549 4.35C8.39216 3.43333 10.1172 2.975 12.0005 2.975C13.8838 2.975 15.6088 3.43333 17.1755 4.35C18.7422 5.25 19.9838 6.48333 20.9005 8.05C21.8172 9.61667 22.2755 11.35 22.2755 13.25C22.2755 14.65 22.0172 15.9833 21.5005 17.25C20.9838 18.5 20.2422 19.6083 19.2755 20.575L18.2505 19.575ZM11.5005 13.775C11.3505 13.625 11.2755 13.45 11.2755 13.25C11.2755 13.05 11.3505 12.875 11.5005 12.725C11.6338 12.5917 11.8005 12.525 12.0005 12.525C12.2172 12.525 12.3922 12.5917 12.5255 12.725L16.6755 16.85L15.6505 17.9L11.5005 13.775Z" fill="black"/>
</g>
<defs>
<clipPath id="clip0_3216_1820">
<rect width="24" height="24" fill="white"/>
</clipPath>
</defs>
</svg>
