<svg width="24" height="24" viewBox="0 0 24 24" fill="none" xmlns="http://www.w3.org/2000/svg">
<g clip-path="url(#clip0_3216_1846)">
<rect width="24" height="24" fill="white"/>
<path d="M11.2627 19.6V21H3.0127V19.6H11.2627ZM21.0127 11.3V12.7H3.0127V11.3H21.0127ZM21.0127 3V4.4H3.0127V3H21.0127ZM19.8377 18.45C19.021 17.95 18.346 17.2833 17.8127 16.45C17.2794 17.2833 16.6044 17.95 15.7877 18.45C16.6044 18.95 17.2794 19.6167 17.8127 20.45C18.346 19.6167 19.021 18.95 19.8377 18.45ZM21.9377 18.45C20.071 19.3333 18.696 20.7083 17.8127 22.575C16.9294 20.7083 15.5544 19.3333 13.6877 18.45C15.5544 17.5667 16.9294 16.1917 17.8127 14.325C18.696 16.1917 20.071 17.5667 21.9377 18.45Z" fill="black"/>
</g>
<defs>
<clipPath id="clip0_3216_1846">
<rect width="24" height="24" fill="white"/>
</clipPath>
</defs>
</svg>
