<svg width="24" height="24" viewBox="0 0 24 24" fill="none" xmlns="http://www.w3.org/2000/svg">
<g clip-path="url(#clip0_3216_1844)">
<rect width="24" height="24" fill="white"/>
<path d="M11.2505 20.075V21H3.00049V20.075H11.2505ZM21.0005 11.525V12.45H3.00049V11.525H21.0005ZM21.0005 3V3.925H3.00049V3H21.0005ZM20.3005 18.45C19.7505 18.1333 19.2755 17.775 18.8755 17.375C18.4755 16.975 18.1172 16.5 17.8005 15.95C17.4838 16.5 17.1255 16.975 16.7255 17.375C16.3255 17.775 15.8505 18.1333 15.3005 18.45C15.8505 18.7667 16.3255 19.125 16.7255 19.525C17.1255 19.925 17.4838 20.4 17.8005 20.95C18.1172 20.4 18.4755 19.925 18.8755 19.525C19.2755 19.125 19.7505 18.7667 20.3005 18.45ZM21.9255 18.45C20.0255 19.3 18.6505 20.675 17.8005 22.575C16.9505 20.675 15.5755 19.3 13.6755 18.45C15.5755 17.6 16.9505 16.225 17.8005 14.325C18.6505 16.225 20.0255 17.6 21.9255 18.45Z" fill="black"/>
</g>
<defs>
<clipPath id="clip0_3216_1844">
<rect width="24" height="24" fill="white"/>
</clipPath>
</defs>
</svg>
