<svg width="24" height="24" viewBox="0 0 24 24" fill="none" xmlns="http://www.w3.org/2000/svg">
<g clip-path="url(#clip0_3216_1846)">
<rect width="24" height="24" fill="white"/>
<path d="M11.2505 19.6V21H3.00049V19.6H11.2505ZM21.0005 11.3V12.7H3.00049V11.3H21.0005ZM21.0005 3V4.4H3.00049V3H21.0005ZM19.7255 18.45C19.3422 18.2 18.9922 17.9167 18.6755 17.6C18.3588 17.2833 18.0672 16.9333 17.8005 16.55C17.5338 16.9333 17.2422 17.2833 16.9255 17.6C16.6088 17.9167 16.2588 18.2 15.8755 18.45C16.2588 18.7 16.6088 18.9833 16.9255 19.3C17.2422 19.6167 17.5338 19.9667 17.8005 20.35C18.0672 19.9667 18.3588 19.6167 18.6755 19.3C18.9922 18.9833 19.3422 18.7 19.7255 18.45ZM21.9255 18.45C20.0588 19.3333 18.6838 20.7083 17.8005 22.575C16.9172 20.7083 15.5422 19.3333 13.6755 18.45C15.5422 17.5667 16.9172 16.1917 17.8005 14.325C18.6838 16.1917 20.0588 17.5667 21.9255 18.45Z" fill="black"/>
</g>
<defs>
<clipPath id="clip0_3216_1846">
<rect width="24" height="24" fill="white"/>
</clipPath>
</defs>
</svg>
