<svg width="24" height="24" viewBox="0 0 24 24" fill="none" xmlns="http://www.w3.org/2000/svg">
<g clip-path="url(#clip0_3216_1656)">
<rect width="24" height="24" fill="white"/>
<path d="M6.50049 3.475C5.66716 3.475 4.95882 3.76667 4.37549 4.35C3.79216 4.93333 3.50049 5.65 3.50049 6.5C3.50049 7.35 3.79216 8.06667 4.37549 8.65C4.95882 9.23333 5.66716 9.525 6.50049 9.525H17.5005V10H6.50049C5.86716 10 5.27549 9.85 4.72549 9.55C4.19216 9.23333 3.76716 8.80833 3.45049 8.275C3.15049 7.725 3.00049 7.13333 3.00049 6.5C3.00049 5.85 3.15049 5.25833 3.45049 4.725C3.76716 4.19167 4.19216 3.775 4.72549 3.475C5.27549 3.15833 5.86716 3 6.50049 3H17.5005V3.475H6.50049ZM17.5005 10C16.8672 10 16.2755 9.85 15.7255 9.55C15.1922 9.23333 14.7672 8.80833 14.4505 8.275C14.1505 7.725 14.0005 7.13333 14.0005 6.5C14.0005 5.85 14.1505 5.25833 14.4505 4.725C14.7672 4.19167 15.1922 3.775 15.7255 3.475C16.2755 3.15833 16.8672 3 17.5005 3C18.1505 3 18.7422 3.15833 19.2755 3.475C19.8088 3.775 20.2255 4.19167 20.5255 4.725C20.8422 5.25833 21.0005 5.85 21.0005 6.5C21.0005 7.13333 20.8422 7.725 20.5255 8.275C20.2255 8.80833 19.8088 9.23333 19.2755 9.55C18.7422 9.85 18.1505 10 17.5005 10ZM20.5005 6.5C20.5005 5.65 20.2088 4.93333 19.6255 4.35C19.0422 3.76667 18.3338 3.475 17.5005 3.475C16.6672 3.475 15.9588 3.76667 15.3755 4.35C14.7922 4.93333 14.5005 5.65 14.5005 6.5C14.5005 7.35 14.7922 8.06667 15.3755 8.65C15.9588 9.23333 16.6672 9.525 17.5005 9.525C18.3338 9.525 19.0422 9.23333 19.6255 8.65C20.2088 8.06667 20.5005 7.35 20.5005 6.5ZM6.50049 14H17.5005C18.1505 14 18.7422 14.1583 19.2755 14.475C19.8088 14.775 20.2255 15.1917 20.5255 15.725C20.8422 16.2583 21.0005 16.85 21.0005 17.5C21.0005 18.1333 20.8422 18.725 20.5255 19.275C20.2255 19.8083 19.8088 20.2333 19.2755 20.55C18.7422 20.85 18.1505 21 17.5005 21H6.50049V20.525H17.5005C18.3338 20.525 19.0422 20.2333 19.6255 19.65C20.2088 19.0667 20.5005 18.35 20.5005 17.5C20.5005 16.65 20.2088 15.9333 19.6255 15.35C19.0422 14.7667 18.3338 14.475 17.5005 14.475H6.50049V14ZM6.50049 21C5.86716 21 5.27549 20.85 4.72549 20.55C4.19216 20.2333 3.76716 19.8083 3.45049 19.275C3.15049 18.725 3.00049 18.1333 3.00049 17.5C3.00049 16.85 3.15049 16.2583 3.45049 15.725C3.76716 15.1917 4.19216 14.775 4.72549 14.475C5.27549 14.1583 5.86716 14 6.50049 14C7.15049 14 7.74216 14.1583 8.27549 14.475C8.80882 14.775 9.22549 15.1917 9.52549 15.725C9.84216 16.2583 10.0005 16.85 10.0005 17.5C10.0005 18.1333 9.84216 18.725 9.52549 19.275C9.22549 19.8083 8.80882 20.2333 8.27549 20.55C7.74216 20.85 7.15049 21 6.50049 21ZM3.50049 17.5C3.50049 18.35 3.79216 19.0667 4.37549 19.65C4.95882 20.2333 5.66716 20.525 6.50049 20.525C7.33382 20.525 8.04216 20.2333 8.62549 19.65C9.20882 19.0667 9.50049 18.35 9.50049 17.5C9.50049 16.65 9.20882 15.9333 8.62549 15.35C8.04216 14.7667 7.33382 14.475 6.50049 14.475C5.66716 14.475 4.95882 14.7667 4.37549 15.35C3.79216 15.9333 3.50049 16.65 3.50049 17.5Z" fill="black"/>
</g>
<defs>
<clipPath id="clip0_3216_1656">
<rect width="24" height="24" fill="white"/>
</clipPath>
</defs>
</svg>
