<svg width="24" height="24" viewBox="0 0 24 24" fill="none" xmlns="http://www.w3.org/2000/svg">
<g clip-path="url(#clip0_3396_12078)">
<rect width="24" height="24" fill="white"/>
<path d="M7.12549 5.7C6.72549 5.7 6.39216 5.83333 6.12549 6.1C5.85882 6.36667 5.72549 6.69167 5.72549 7.075C5.72549 7.475 5.85882 7.80833 6.12549 8.075C6.39216 8.325 6.72549 8.45 7.12549 8.45H15.2505L16.9255 11.175H7.12549C6.35882 11.175 5.65882 10.9917 5.02549 10.625C4.39216 10.2583 3.89216 9.76667 3.52549 9.15C3.17549 8.51667 3.00049 7.825 3.00049 7.075C3.00049 6.34167 3.17549 5.65833 3.52549 5.025C3.89216 4.39167 4.39216 3.9 5.02549 3.55C5.65882 3.18333 6.35882 3 7.12549 3H16.9255L15.2505 5.7H7.12549ZM16.9255 11.175C16.1755 11.175 15.4838 10.9917 14.8505 10.625C14.2338 10.2583 13.7422 9.76667 13.3755 9.15C13.0088 8.51667 12.8255 7.825 12.8255 7.075C12.8255 6.34167 13.0088 5.65833 13.3755 5.025C13.7422 4.39167 14.2338 3.9 14.8505 3.55C15.4838 3.18333 16.1755 3 16.9255 3C17.6588 3 18.3422 3.18333 18.9755 3.55C19.6088 3.9 20.1005 4.39167 20.4505 5.025C20.8172 5.65833 21.0005 6.34167 21.0005 7.075C21.0005 7.825 20.8172 8.51667 20.4505 9.15C20.1005 9.76667 19.6088 10.2583 18.9755 10.625C18.3422 10.9917 17.6588 11.175 16.9255 11.175ZM18.3505 7.075C18.3505 6.69167 18.2088 6.36667 17.9255 6.1C17.6422 5.83333 17.3088 5.7 16.9255 5.7C16.5422 5.7 16.2172 5.83333 15.9505 6.1C15.6838 6.36667 15.5505 6.69167 15.5505 7.075C15.5505 7.475 15.6838 7.80833 15.9505 8.075C16.2172 8.34167 16.5422 8.475 16.9255 8.475C17.3088 8.475 17.6422 8.34167 17.9255 8.075C18.2088 7.80833 18.3505 7.475 18.3505 7.075ZM7.07549 12.825H16.8755C17.6422 12.825 18.3422 13.0083 18.9755 13.375C19.6088 13.7417 20.1005 14.2417 20.4505 14.875C20.8172 15.4917 21.0005 16.175 21.0005 16.925C21.0005 17.6583 20.8172 18.3417 20.4505 18.975C20.1005 19.6083 19.6088 20.1083 18.9755 20.475C18.3422 20.825 17.6422 21 16.8755 21H7.07549L8.75049 18.3H16.8755C17.2588 18.3 17.5838 18.1667 17.8505 17.9C18.1172 17.6333 18.2505 17.3083 18.2505 16.925C18.2505 16.525 18.1172 16.2 17.8505 15.95C17.5838 15.6833 17.2588 15.55 16.8755 15.55H8.75049L7.07549 12.825ZM7.07549 21C6.34216 21 5.65882 20.825 5.02549 20.475C4.39216 20.1083 3.89216 19.6083 3.52549 18.975C3.17549 18.3417 3.00049 17.6583 3.00049 16.925C3.00049 16.175 3.17549 15.4917 3.52549 14.875C3.89216 14.2417 4.39216 13.7417 5.02549 13.375C5.65882 13.0083 6.34216 12.825 7.07549 12.825C7.82549 12.825 8.50882 13.0083 9.12549 13.375C9.75882 13.7417 10.2588 14.2417 10.6255 14.875C10.9922 15.4917 11.1755 16.175 11.1755 16.925C11.1755 17.6583 10.9922 18.3417 10.6255 18.975C10.2588 19.6083 9.75882 20.1083 9.12549 20.475C8.50882 20.825 7.82549 21 7.07549 21ZM5.70049 16.925C5.70049 17.3083 5.83382 17.6333 6.10049 17.9C6.36716 18.1667 6.69216 18.3 7.07549 18.3C7.45882 18.3 7.78382 18.1667 8.05049 17.9C8.33382 17.6333 8.47549 17.3083 8.47549 16.925C8.47549 16.525 8.34216 16.1917 8.07549 15.925C7.80882 15.6583 7.47549 15.525 7.07549 15.525C6.69216 15.525 6.36716 15.6583 6.10049 15.925C5.83382 16.1917 5.70049 16.525 5.70049 16.925Z" fill="black"/>
</g>
<defs>
<clipPath id="clip0_3396_12078">
<rect width="24" height="24" fill="white"/>
</clipPath>
</defs>
</svg>
