<svg width="24" height="24" viewBox="0 0 24 24" fill="none" xmlns="http://www.w3.org/2000/svg">
<g clip-path="url(#clip0_3396_12140)">
<rect width="24" height="24" fill="white"/>
<path d="M6.50049 18.5C5.30049 18.5 4.20049 18.2167 3.20049 17.65C2.21716 17.0667 1.43382 16.2833 0.850488 15.3C0.283822 14.3 0.000488281 13.2 0.000488281 12C0.000488281 10.8 0.283822 9.70833 0.850488 8.725C1.43382 7.725 2.21716 6.94167 3.20049 6.375C4.20049 5.79167 5.30049 5.5 6.50049 5.5H17.5005C18.7005 5.5 19.7922 5.79167 20.7755 6.375C21.7755 6.94167 22.5588 7.725 23.1255 8.725C23.7088 9.70833 24.0005 10.8 24.0005 12C24.0005 13.2 23.7088 14.3 23.1255 15.3C22.5588 16.2833 21.7755 17.0667 20.7755 17.65C19.7922 18.2167 18.7005 18.5 17.5005 18.5H6.50049ZM17.5005 17.15C18.4338 17.15 19.2838 16.925 20.0505 16.475C20.8338 16.0083 21.4505 15.3833 21.9005 14.6C22.3672 13.8167 22.6005 12.95 22.6005 12C22.6005 11.05 22.3672 10.1833 21.9005 9.4C21.4505 8.61667 20.8338 8 20.0505 7.55C19.2838 7.08333 18.4338 6.85 17.5005 6.85H6.50049C5.56716 6.85 4.70882 7.08333 3.92549 7.55C3.15882 8 2.54216 8.61667 2.07549 9.4C1.62549 10.1833 1.40049 11.05 1.40049 12C1.40049 12.95 1.62549 13.8167 2.07549 14.6C2.54216 15.3833 3.15882 16.0083 3.92549 16.475C4.70882 16.925 5.56716 17.15 6.50049 17.15H17.5005ZM6.57549 15.225C5.99216 15.225 5.45049 15.0833 4.95049 14.8C4.45049 14.5 4.05049 14.1083 3.75049 13.625C3.46716 13.125 3.32549 12.5833 3.32549 12C3.32549 11.4167 3.46716 10.875 3.75049 10.375C4.05049 9.875 4.45049 9.48333 4.95049 9.2C5.45049 8.91667 5.99216 8.775 6.57549 8.775C7.15882 8.775 7.70049 8.91667 8.20049 9.2C8.70049 9.48333 9.09216 9.875 9.37549 10.375C9.67549 10.875 9.82549 11.4167 9.82549 12C9.82549 12.5833 9.67549 13.125 9.37549 13.625C9.09216 14.1083 8.70049 14.5 8.20049 14.8C7.70049 15.0833 7.15882 15.225 6.57549 15.225ZM6.57549 13.9C7.09216 13.9 7.53382 13.7167 7.90049 13.35C8.28382 12.9667 8.47549 12.5167 8.47549 12C8.47549 11.4833 8.28382 11.0417 7.90049 10.675C7.53382 10.2917 7.09216 10.1 6.57549 10.1C6.04216 10.1 5.58382 10.2917 5.20049 10.675C4.83382 11.0417 4.65049 11.4833 4.65049 12C4.65049 12.5167 4.83382 12.9667 5.20049 13.35C5.58382 13.7167 6.04216 13.9 6.57549 13.9Z" fill="black"/>
</g>
<defs>
<clipPath id="clip0_3396_12140">
<rect width="24" height="24" fill="white"/>
</clipPath>
</defs>
</svg>
