<svg width="24" height="24" viewBox="0 0 24 24" fill="none" xmlns="http://www.w3.org/2000/svg">
<g clip-path="url(#clip0_3396_12110)">
<rect width="24" height="24" fill="white"/>
<path d="M6.92549 18.925C5.64216 18.925 4.47549 18.6167 3.42549 18C2.37549 17.3833 1.54215 16.55 0.925488 15.5C0.308822 14.4333 0.000488281 13.2667 0.000488281 12C0.000488281 10.7167 0.308822 9.55 0.925488 8.5C1.54215 7.45 2.37549 6.61667 3.42549 6C4.47549 5.38333 5.64216 5.075 6.92549 5.075H17.0755C18.3588 5.075 19.5255 5.38333 20.5755 6C21.6255 6.61667 22.4588 7.45833 23.0755 8.525C23.6922 9.575 24.0005 10.7333 24.0005 12C24.0005 13.2833 23.6922 14.45 23.0755 15.5C22.4588 16.55 21.6255 17.3833 20.5755 18C19.5255 18.6167 18.3588 18.925 17.0755 18.925H6.92549ZM17.0755 16.525C17.9088 16.525 18.6588 16.325 19.3255 15.925C20.0088 15.525 20.5505 14.9833 20.9505 14.3C21.3672 13.6 21.5755 12.8333 21.5755 12C21.5755 11.1667 21.3672 10.4083 20.9505 9.725C20.5505 9.025 20.0088 8.475 19.3255 8.075C18.6588 7.675 17.9088 7.475 17.0755 7.475H6.92549C6.09216 7.475 5.33382 7.675 4.65049 8.075C3.98382 8.475 3.44216 9.025 3.02549 9.725C2.62549 10.4083 2.42549 11.1667 2.42549 12C2.42549 12.8333 2.62549 13.6 3.02549 14.3C3.44216 14.9833 3.98382 15.525 4.65049 15.925C5.33382 16.325 6.09216 16.525 6.92549 16.525H17.0755ZM16.9255 15.1C16.3588 15.1 15.8338 14.9667 15.3505 14.7C14.8672 14.4167 14.4838 14.0417 14.2005 13.575C13.9338 13.0917 13.8005 12.5667 13.8005 12C13.8005 11.4333 13.9338 10.9167 14.2005 10.45C14.4838 9.96667 14.8672 9.59167 15.3505 9.325C15.8338 9.04167 16.3588 8.9 16.9255 8.9C17.4922 8.9 18.0172 9.04167 18.5005 9.325C18.9838 9.59167 19.3588 9.96667 19.6255 10.45C19.8922 10.9167 20.0255 11.4333 20.0255 12C20.0255 12.5667 19.8922 13.0917 19.6255 13.575C19.3588 14.0417 18.9838 14.4167 18.5005 14.7C18.0172 14.9667 17.4922 15.1 16.9255 15.1ZM16.9255 13.25C17.2755 13.25 17.5672 13.125 17.8005 12.875C18.0505 12.625 18.1755 12.3333 18.1755 12C18.1755 11.65 18.0505 11.3583 17.8005 11.125C17.5505 10.875 17.2588 10.75 16.9255 10.75C16.5755 10.75 16.2755 10.875 16.0255 11.125C15.7922 11.3583 15.6755 11.65 15.6755 12C15.6755 12.35 15.7922 12.65 16.0255 12.9C16.2755 13.1333 16.5755 13.25 16.9255 13.25Z" fill="black"/>
</g>
<defs>
<clipPath id="clip0_3396_12110">
<rect width="24" height="24" fill="white"/>
</clipPath>
</defs>
</svg>
