<svg width="24" height="24" viewBox="0 0 24 24" fill="none" xmlns="http://www.w3.org/2000/svg">
<g clip-path="url(#clip0_3216_4142)">
<rect width="24" height="24" fill="white"/>
<path d="M7.17549 6.175C6.89216 6.175 6.65049 6.26667 6.45049 6.45C6.26716 6.63333 6.17549 6.85833 6.17549 7.125C6.17549 7.39167 6.26716 7.61667 6.45049 7.8C6.65049 7.98333 6.89216 8.075 7.17549 8.075H16.8755V11.25H7.17549C6.40882 11.25 5.70049 11.0667 5.05049 10.7C4.41716 10.3333 3.91716 9.83333 3.55049 9.2C3.18382 8.56667 3.00049 7.875 3.00049 7.125C3.00049 6.375 3.18382 5.68333 3.55049 5.05C3.91716 4.41667 4.41716 3.91667 5.05049 3.55C5.70049 3.18333 6.40882 3 7.17549 3H16.8755V6.175H7.17549ZM16.8755 11.25C16.1255 11.25 15.4338 11.0667 14.8005 10.7C14.1672 10.3333 13.6672 9.83333 13.3005 9.2C12.9338 8.56667 12.7505 7.875 12.7505 7.125C12.7505 6.375 12.9338 5.68333 13.3005 5.05C13.6672 4.41667 14.1672 3.91667 14.8005 3.55C15.4338 3.18333 16.1255 3 16.8755 3C17.6255 3 18.3172 3.18333 18.9505 3.55C19.5838 3.91667 20.0838 4.41667 20.4505 5.05C20.8172 5.68333 21.0005 6.375 21.0005 7.125C21.0005 7.875 20.8172 8.56667 20.4505 9.2C20.0838 9.83333 19.5838 10.3333 18.9505 10.7C18.3172 11.0667 17.6255 11.25 16.8755 11.25ZM17.9005 7.125C17.9005 6.85833 17.8005 6.63333 17.6005 6.45C17.4005 6.26667 17.1588 6.175 16.8755 6.175C16.6088 6.175 16.3838 6.26667 16.2005 6.45C16.0172 6.63333 15.9255 6.85833 15.9255 7.125C15.9255 7.39167 16.0172 7.61667 16.2005 7.8C16.3838 7.98333 16.6088 8.075 16.8755 8.075C17.1588 8.075 17.4005 7.98333 17.6005 7.8C17.8005 7.61667 17.9005 7.39167 17.9005 7.125ZM7.12549 12.75H16.8255C17.5922 12.75 18.2922 12.9333 18.9255 13.3C19.5755 13.6667 20.0838 14.1667 20.4505 14.8C20.8172 15.4333 21.0005 16.125 21.0005 16.875C21.0005 17.625 20.8172 18.3167 20.4505 18.95C20.0838 19.5833 19.5755 20.0833 18.9255 20.45C18.2922 20.8167 17.5922 21 16.8255 21H7.12549V17.825H16.8255C17.0922 17.825 17.3172 17.7333 17.5005 17.55C17.7005 17.3667 17.8005 17.1417 17.8005 16.875C17.8005 16.6083 17.7005 16.3833 17.5005 16.2C17.3172 16.0167 17.0922 15.925 16.8255 15.925H7.12549V12.75ZM7.12549 21C6.37549 21 5.68382 20.8167 5.05049 20.45C4.41716 20.0833 3.91716 19.5833 3.55049 18.95C3.18382 18.3167 3.00049 17.625 3.00049 16.875C3.00049 16.125 3.18382 15.4333 3.55049 14.8C3.91716 14.1667 4.41716 13.6667 5.05049 13.3C5.68382 12.9333 6.37549 12.75 7.12549 12.75C7.87549 12.75 8.56716 12.9333 9.20049 13.3C9.83382 13.6667 10.3338 14.1667 10.7005 14.8C11.0672 15.4333 11.2505 16.125 11.2505 16.875C11.2505 17.625 11.0672 18.3167 10.7005 18.95C10.3338 19.5833 9.83382 20.0833 9.20049 20.45C8.56716 20.8167 7.87549 21 7.12549 21ZM6.15049 16.875C6.15049 17.1417 6.24216 17.3667 6.42549 17.55C6.62549 17.7333 6.85882 17.825 7.12549 17.825C7.39216 17.825 7.61716 17.7333 7.80049 17.55C8.00049 17.3667 8.10049 17.1417 8.10049 16.875C8.10049 16.6083 8.00049 16.3833 7.80049 16.2C7.61716 16.0167 7.39216 15.925 7.12549 15.925C6.85882 15.925 6.62549 16.0167 6.42549 16.2C6.24216 16.3833 6.15049 16.6083 6.15049 16.875Z" fill="black"/>
</g>
<defs>
<clipPath id="clip0_3216_4142">
<rect width="24" height="24" fill="white"/>
</clipPath>
</defs>
</svg>
