<svg width="24" height="24" viewBox="0 0 24 24" fill="none" xmlns="http://www.w3.org/2000/svg">
<g clip-path="url(#clip0_3216_3460)">
<rect width="24" height="24" fill="white"/>
<path d="M7.00049 18.5C5.80049 18.5 4.70049 18.2167 3.70049 17.65C2.71715 17.0667 1.93382 16.2833 1.35049 15.3C0.783822 14.3 0.500488 13.2 0.500488 12C0.500488 10.8 0.783822 9.70833 1.35049 8.725C1.93382 7.725 2.71715 6.94167 3.70049 6.375C4.70049 5.79167 5.80049 5.5 7.00049 5.5H17.0005C18.2005 5.5 19.2922 5.79167 20.2755 6.375C21.2755 6.94167 22.0588 7.725 22.6255 8.725C23.2088 9.70833 23.5005 10.8 23.5005 12C23.5005 13.2 23.2088 14.3 22.6255 15.3C22.0588 16.2833 21.2755 17.0667 20.2755 17.65C19.2922 18.2167 18.2005 18.5 17.0005 18.5H7.00049ZM17.0005 16.7C17.8505 16.7 18.6255 16.4917 19.3255 16.075C20.0422 15.6583 20.6088 15.0917 21.0255 14.375C21.4422 13.6583 21.6505 12.8667 21.6505 12C21.6505 11.1333 21.4422 10.3417 21.0255 9.625C20.6088 8.90833 20.0422 8.34167 19.3255 7.925C18.6255 7.50833 17.8505 7.3 17.0005 7.3H7.00049C6.15049 7.3 5.36716 7.50833 4.65049 7.925C3.95049 8.34167 3.39216 8.90833 2.97549 9.625C2.55882 10.3417 2.35049 11.1333 2.35049 12C2.35049 12.8667 2.55882 13.6583 2.97549 14.375C3.39216 15.0917 3.95049 15.6583 4.65049 16.075C5.36716 16.4917 6.15049 16.7 7.00049 16.7H17.0005ZM17.0005 15.225C16.4172 15.225 15.8755 15.0833 15.3755 14.8C14.8755 14.5 14.4755 14.1083 14.1755 13.625C13.8922 13.125 13.7505 12.5833 13.7505 12C13.7505 11.4167 13.8922 10.875 14.1755 10.375C14.4755 9.875 14.8755 9.48333 15.3755 9.2C15.8755 8.91667 16.4172 8.775 17.0005 8.775C17.5838 8.775 18.1255 8.91667 18.6255 9.2C19.1255 9.48333 19.5172 9.875 19.8005 10.375C20.1005 10.875 20.2505 11.4167 20.2505 12C20.2505 12.5833 20.1005 13.125 19.8005 13.625C19.5172 14.1083 19.1255 14.5 18.6255 14.8C18.1255 15.0833 17.5838 15.225 17.0005 15.225ZM17.0005 13.475C17.4005 13.475 17.7422 13.3333 18.0255 13.05C18.3255 12.75 18.4755 12.4 18.4755 12C18.4755 11.6 18.3255 11.2583 18.0255 10.975C17.7422 10.675 17.4005 10.525 17.0005 10.525C16.6005 10.525 16.2505 10.675 15.9505 10.975C15.6672 11.2583 15.5255 11.6 15.5255 12C15.5255 12.4 15.6672 12.75 15.9505 13.05C16.2505 13.3333 16.6005 13.475 17.0005 13.475Z" fill="black"/>
</g>
<defs>
<clipPath id="clip0_3216_3460">
<rect width="24" height="24" fill="white"/>
</clipPath>
</defs>
</svg>
