<svg width="24" height="24" viewBox="0 0 24 24" fill="none" xmlns="http://www.w3.org/2000/svg">
<g clip-path="url(#clip0_3396_12114)">
<rect width="24" height="24" fill="white"/>
<path d="M7.75049 19.75C6.31716 19.75 5.00882 19.4083 3.82549 18.725C2.64216 18.0417 1.70882 17.1083 1.02549 15.925C0.342155 14.7417 0.000488281 13.4333 0.000488281 12C0.000488281 10.5667 0.342155 9.25833 1.02549 8.075C1.70882 6.89167 2.64216 5.95833 3.82549 5.275C5.00882 4.59167 6.31716 4.25 7.75049 4.25H16.2505C17.6838 4.25 18.9922 4.59167 20.1755 5.275C21.3588 5.95833 22.2922 6.89167 22.9755 8.075C23.6588 9.25833 24.0005 10.5667 24.0005 12C24.0005 13.4333 23.6588 14.7417 22.9755 15.925C22.2922 17.1083 21.3588 18.0417 20.1755 18.725C18.9922 19.4083 17.6838 19.75 16.2505 19.75H7.75049ZM16.2505 16.2C17.0172 16.2 17.7172 16.0167 18.3505 15.65C18.9838 15.2667 19.4838 14.7583 19.8505 14.125C20.2172 13.475 20.4005 12.7667 20.4005 12C20.4005 11.2333 20.2172 10.5333 19.8505 9.9C19.4838 9.25 18.9838 8.74167 18.3505 8.375C17.7172 7.99167 17.0172 7.8 16.2505 7.8H7.75049C6.98382 7.8 6.28382 7.99167 5.65049 8.375C5.01716 8.74167 4.51716 9.25 4.15049 9.9C3.78382 10.5333 3.60049 11.2333 3.60049 12C3.60049 12.7667 3.78382 13.475 4.15049 14.125C4.51716 14.7583 5.01716 15.2667 5.65049 15.65C6.28382 16.0167 6.98382 16.2 7.75049 16.2H16.2505ZM16.0005 14.375C15.5505 14.375 15.1422 14.275 14.7755 14.075C14.4255 13.8583 14.1422 13.5667 13.9255 13.2C13.7255 12.8333 13.6255 12.4333 13.6255 12C13.6255 11.5667 13.7255 11.1667 13.9255 10.8C14.1422 10.4333 14.4255 10.15 14.7755 9.95C15.1422 9.73333 15.5505 9.625 16.0005 9.625C16.4505 9.625 16.8505 9.73333 17.2005 9.95C17.5672 10.15 17.8505 10.4333 18.0505 10.8C18.2672 11.1667 18.3755 11.5667 18.3755 12C18.3755 12.4333 18.2672 12.8333 18.0505 13.2C17.8505 13.5667 17.5672 13.8583 17.2005 14.075C16.8505 14.275 16.4505 14.375 16.0005 14.375ZM16.0005 12C16.2505 12 16.4338 12 16.5505 12C16.6672 12 16.8505 12 17.1005 12C16.8505 12 16.6672 12 16.5505 12C16.4338 12 16.2505 12 16.0005 12C15.7505 12 15.5672 12 15.4505 12C15.3338 12 15.1505 12 14.9005 12C15.1505 12 15.3338 12 15.4505 12C15.5672 12 15.7505 12 16.0005 12Z" fill="black"/>
</g>
<defs>
<clipPath id="clip0_3396_12114">
<rect width="24" height="24" fill="white"/>
</clipPath>
</defs>
</svg>
