<svg width="24" height="24" viewBox="0 0 24 24" fill="none" xmlns="http://www.w3.org/2000/svg">
<g clip-path="url(#clip0_3396_12142)">
<rect width="24" height="24" fill="white"/>
<path d="M6.50049 18.5C5.30049 18.5 4.20049 18.2167 3.20049 17.65C2.21716 17.0667 1.43382 16.2833 0.850488 15.3C0.283822 14.3 0.000488281 13.2 0.000488281 12C0.000488281 10.8 0.283822 9.70833 0.850488 8.725C1.43382 7.725 2.21716 6.94167 3.20049 6.375C4.20049 5.79167 5.30049 5.5 6.50049 5.5H17.5005C18.7005 5.5 19.7922 5.79167 20.7755 6.375C21.7755 6.94167 22.5588 7.725 23.1255 8.725C23.7088 9.70833 24.0005 10.8 24.0005 12C24.0005 13.2 23.7088 14.3 23.1255 15.3C22.5588 16.2833 21.7755 17.0667 20.7755 17.65C19.7922 18.2167 18.7005 18.5 17.5005 18.5H6.50049ZM17.5005 16.7C18.3505 16.7 19.1255 16.4917 19.8255 16.075C20.5422 15.6583 21.1088 15.0917 21.5255 14.375C21.9422 13.6583 22.1505 12.8667 22.1505 12C22.1505 11.1333 21.9422 10.3417 21.5255 9.625C21.1088 8.90833 20.5422 8.34167 19.8255 7.925C19.1255 7.50833 18.3505 7.3 17.5005 7.3H6.50049C5.65049 7.3 4.86716 7.50833 4.15049 7.925C3.45049 8.34167 2.89216 8.90833 2.47549 9.625C2.05882 10.3417 1.85049 11.1333 1.85049 12C1.85049 12.8667 2.05882 13.6583 2.47549 14.375C2.89216 15.0917 3.45049 15.6583 4.15049 16.075C4.86716 16.4917 5.65049 16.7 6.50049 16.7H17.5005ZM6.57549 15.225C5.99216 15.225 5.45049 15.0833 4.95049 14.8C4.45049 14.5 4.05049 14.1083 3.75049 13.625C3.46716 13.125 3.32549 12.5833 3.32549 12C3.32549 11.4167 3.46716 10.875 3.75049 10.375C4.05049 9.875 4.45049 9.48333 4.95049 9.2C5.45049 8.91667 5.99216 8.775 6.57549 8.775C7.15882 8.775 7.70049 8.91667 8.20049 9.2C8.70049 9.48333 9.09216 9.875 9.37549 10.375C9.67549 10.875 9.82549 11.4167 9.82549 12C9.82549 12.5833 9.67549 13.125 9.37549 13.625C9.09216 14.1083 8.70049 14.5 8.20049 14.8C7.70049 15.0833 7.15882 15.225 6.57549 15.225ZM6.57549 13.475C6.97549 13.475 7.31716 13.3333 7.60049 13.05C7.90049 12.75 8.05049 12.4 8.05049 12C8.05049 11.6 7.90049 11.2583 7.60049 10.975C7.31716 10.675 6.97549 10.525 6.57549 10.525C6.17549 10.525 5.82549 10.675 5.52549 10.975C5.24216 11.2583 5.10049 11.6 5.10049 12C5.10049 12.4 5.24216 12.75 5.52549 13.05C5.82549 13.3333 6.17549 13.475 6.57549 13.475Z" fill="black"/>
</g>
<defs>
<clipPath id="clip0_3396_12142">
<rect width="24" height="24" fill="white"/>
</clipPath>
</defs>
</svg>
