<svg width="24" height="24" viewBox="0 0 24 24" fill="none" xmlns="http://www.w3.org/2000/svg">
<g clip-path="url(#clip0_3396_12108)">
<rect width="24" height="24" fill="white"/>
<path d="M6.50049 18.5C5.30049 18.5 4.20049 18.2167 3.20049 17.65C2.21716 17.0667 1.43382 16.2833 0.850488 15.3C0.283822 14.3 0.000488281 13.2 0.000488281 12C0.000488281 10.8 0.283822 9.70833 0.850488 8.725C1.43382 7.725 2.21716 6.94167 3.20049 6.375C4.20049 5.79167 5.30049 5.5 6.50049 5.5H17.5005C18.7005 5.5 19.7922 5.79167 20.7755 6.375C21.7755 6.94167 22.5588 7.725 23.1255 8.725C23.7088 9.70833 24.0005 10.8 24.0005 12C24.0005 13.2 23.7088 14.3 23.1255 15.3C22.5588 16.2833 21.7755 17.0667 20.7755 17.65C19.7922 18.2167 18.7005 18.5 17.5005 18.5H6.50049ZM17.5005 16.7C18.3505 16.7 19.1255 16.4917 19.8255 16.075C20.5422 15.6583 21.1088 15.0917 21.5255 14.375C21.9422 13.6583 22.1505 12.8667 22.1505 12C22.1505 11.1333 21.9422 10.3417 21.5255 9.625C21.1088 8.90833 20.5422 8.34167 19.8255 7.925C19.1255 7.50833 18.3505 7.3 17.5005 7.3H6.50049C5.65049 7.3 4.86716 7.50833 4.15049 7.925C3.45049 8.34167 2.89216 8.90833 2.47549 9.625C2.05882 10.3417 1.85049 11.1333 1.85049 12C1.85049 12.8667 2.05882 13.6583 2.47549 14.375C2.89216 15.0917 3.45049 15.6583 4.15049 16.075C4.86716 16.4917 5.65049 16.7 6.50049 16.7H17.5005ZM17.4255 15.225C16.8422 15.225 16.3005 15.0833 15.8005 14.8C15.3005 14.5 14.9005 14.1083 14.6005 13.625C14.3172 13.125 14.1755 12.5833 14.1755 12C14.1755 11.4167 14.3172 10.875 14.6005 10.375C14.9005 9.875 15.3005 9.48333 15.8005 9.2C16.3005 8.91667 16.8422 8.775 17.4255 8.775C18.0088 8.775 18.5505 8.91667 19.0505 9.2C19.5505 9.48333 19.9422 9.875 20.2255 10.375C20.5255 10.875 20.6755 11.4167 20.6755 12C20.6755 12.5833 20.5255 13.125 20.2255 13.625C19.9422 14.1083 19.5505 14.5 19.0505 14.8C18.5505 15.0833 18.0088 15.225 17.4255 15.225ZM17.4255 13.475C17.8255 13.475 18.1672 13.3333 18.4505 13.05C18.7505 12.75 18.9005 12.4 18.9005 12C18.9005 11.6 18.7505 11.2583 18.4505 10.975C18.1672 10.675 17.8255 10.525 17.4255 10.525C17.0255 10.525 16.6755 10.675 16.3755 10.975C16.0922 11.2583 15.9505 11.6 15.9505 12C15.9505 12.4 16.0922 12.75 16.3755 13.05C16.6755 13.3333 17.0255 13.475 17.4255 13.475Z" fill="black"/>
</g>
<defs>
<clipPath id="clip0_3396_12108">
<rect width="24" height="24" fill="white"/>
</clipPath>
</defs>
</svg>
