<svg width="24" height="24" viewBox="0 0 24 24" fill="none" xmlns="http://www.w3.org/2000/svg">
<g clip-path="url(#clip0_3216_1604)">
<rect width="24" height="24" fill="white"/>
<path d="M6.50049 18.5C5.30049 18.5 4.20049 18.2167 3.20049 17.65C2.21716 17.0667 1.43382 16.2833 0.850488 15.3C0.283822 14.3 0.000488281 13.2 0.000488281 12C0.000488281 10.8 0.283822 9.70833 0.850488 8.725C1.43382 7.725 2.21716 6.94167 3.20049 6.375C4.20049 5.79167 5.30049 5.5 6.50049 5.5H17.5005C18.7005 5.5 19.7922 5.79167 20.7755 6.375C21.7755 6.94167 22.5588 7.725 23.1255 8.725C23.7088 9.70833 24.0005 10.8 24.0005 12C24.0005 13.2 23.7088 14.3 23.1255 15.3C22.5588 16.2833 21.7755 17.0667 20.7755 17.65C19.7922 18.2167 18.7005 18.5 17.5005 18.5H6.50049ZM17.5005 18.025C18.6005 18.025 19.6088 17.7583 20.5255 17.225C21.4422 16.6917 22.1672 15.9667 22.7005 15.05C23.2338 14.1333 23.5005 13.1167 23.5005 12C23.5005 10.8833 23.2338 9.86667 22.7005 8.95C22.1672 8.03333 21.4422 7.30833 20.5255 6.775C19.6088 6.24167 18.6005 5.975 17.5005 5.975H6.50049C5.40049 5.975 4.39216 6.24167 3.47549 6.775C2.55882 7.30833 1.83382 8.03333 1.30049 8.95C0.767155 9.86667 0.500488 10.8833 0.500488 12C0.500488 13.1167 0.767155 14.1333 1.30049 15.05C1.83382 15.9667 2.55882 16.6917 3.47549 17.225C4.39216 17.7583 5.40049 18.025 6.50049 18.025H17.5005ZM17.4505 15.225C16.8672 15.225 16.3255 15.0833 15.8255 14.8C15.3255 14.5167 14.9255 14.125 14.6255 13.625C14.3422 13.125 14.2005 12.5833 14.2005 12C14.2005 11.4167 14.3422 10.875 14.6255 10.375C14.9255 9.875 15.3255 9.48333 15.8255 9.2C16.3255 8.91667 16.8672 8.775 17.4505 8.775C18.0338 8.775 18.5755 8.91667 19.0755 9.2C19.5755 9.48333 19.9672 9.875 20.2505 10.375C20.5505 10.875 20.7005 11.4167 20.7005 12C20.7005 12.5833 20.5505 13.125 20.2505 13.625C19.9672 14.125 19.5755 14.5167 19.0755 14.8C18.5755 15.0833 18.0338 15.225 17.4505 15.225ZM17.4505 14.75C18.2338 14.75 18.8922 14.4833 19.4255 13.95C19.9588 13.4167 20.2255 12.7667 20.2255 12C20.2255 11.2333 19.9588 10.5833 19.4255 10.05C18.8922 9.51667 18.2338 9.25 17.4505 9.25C16.6672 9.25 16.0088 9.51667 15.4755 10.05C14.9422 10.5833 14.6755 11.2333 14.6755 12C14.6755 12.7667 14.9422 13.4167 15.4755 13.95C16.0088 14.4833 16.6672 14.75 17.4505 14.75Z" fill="black"/>
</g>
<defs>
<clipPath id="clip0_3216_1604">
<rect width="24" height="24" fill="white"/>
</clipPath>
</defs>
</svg>
