<svg width="24" height="24" viewBox="0 0 24 24" fill="none" xmlns="http://www.w3.org/2000/svg">
<g clip-path="url(#clip0_3396_12138)">
<rect width="24" height="24" fill="white"/>
<path d="M7.00049 18.5C5.80049 18.5 4.70049 18.2167 3.70049 17.65C2.71715 17.0667 1.93382 16.2833 1.35049 15.3C0.783822 14.3 0.500488 13.2 0.500488 12C0.500488 10.8 0.783822 9.70833 1.35049 8.725C1.93382 7.725 2.71715 6.94167 3.70049 6.375C4.70049 5.79167 5.80049 5.5 7.00049 5.5H17.0005C18.2005 5.5 19.2922 5.79167 20.2755 6.375C21.2755 6.94167 22.0588 7.725 22.6255 8.725C23.2088 9.70833 23.5005 10.8 23.5005 12C23.5005 13.2 23.2088 14.3 22.6255 15.3C22.0588 16.2833 21.2755 17.0667 20.2755 17.65C19.2922 18.2167 18.2005 18.5 17.0005 18.5H7.00049ZM17.0005 17.575C18.0172 17.575 18.9505 17.3333 19.8005 16.85C20.6505 16.35 21.3172 15.675 21.8005 14.825C22.3005 13.9583 22.5505 13.0167 22.5505 12C22.5505 10.9833 22.3005 10.05 21.8005 9.2C21.3172 8.33333 20.6505 7.65833 19.8005 7.175C18.9505 6.675 18.0172 6.425 17.0005 6.425H7.00049C5.98382 6.425 5.05049 6.675 4.20049 7.175C3.35049 7.65833 2.67549 8.33333 2.17549 9.2C1.69216 10.05 1.45049 10.9833 1.45049 12C1.45049 13.0167 1.69216 13.9583 2.17549 14.825C2.67549 15.675 3.35049 16.35 4.20049 16.85C5.05049 17.3333 5.98382 17.575 7.00049 17.575H17.0005ZM7.00049 15.225C6.41716 15.225 5.87549 15.0833 5.37549 14.8C4.87549 14.5167 4.47549 14.125 4.17549 13.625C3.89216 13.125 3.75049 12.5833 3.75049 12C3.75049 11.4167 3.89216 10.875 4.17549 10.375C4.47549 9.875 4.87549 9.48333 5.37549 9.2C5.87549 8.91667 6.41716 8.775 7.00049 8.775C7.58382 8.775 8.12549 8.91667 8.62549 9.2C9.12549 9.48333 9.51716 9.875 9.80049 10.375C10.1005 10.875 10.2505 11.4167 10.2505 12C10.2505 12.5833 10.1005 13.125 9.80049 13.625C9.51716 14.125 9.12549 14.5167 8.62549 14.8C8.12549 15.0833 7.58382 15.225 7.00049 15.225ZM7.00049 14.325C7.65049 14.325 8.20049 14.1 8.65049 13.65C9.11716 13.2 9.35049 12.65 9.35049 12C9.35049 11.35 9.11716 10.8 8.65049 10.35C8.20049 9.9 7.65049 9.675 7.00049 9.675C6.35049 9.675 5.79216 9.9 5.32549 10.35C4.87549 10.8 4.65049 11.35 4.65049 12C4.65049 12.65 4.87549 13.2 5.32549 13.65C5.79216 14.1 6.35049 14.325 7.00049 14.325Z" fill="black"/>
</g>
<defs>
<clipPath id="clip0_3396_12138">
<rect width="24" height="24" fill="white"/>
</clipPath>
</defs>
</svg>
