<svg width="24" height="24" viewBox="0 0 24 24" fill="none" xmlns="http://www.w3.org/2000/svg">
<g clip-path="url(#clip0_3216_3458)">
<rect width="24" height="24" fill="white"/>
<path d="M7.00049 18.5C5.80049 18.5 4.70049 18.2167 3.70049 17.65C2.71715 17.0667 1.93382 16.2833 1.35049 15.3C0.783822 14.3 0.500488 13.2 0.500488 12C0.500488 10.8 0.783822 9.70833 1.35049 8.725C1.93382 7.725 2.71715 6.94167 3.70049 6.375C4.70049 5.79167 5.80049 5.5 7.00049 5.5H17.0005C18.2005 5.5 19.2922 5.79167 20.2755 6.375C21.2755 6.94167 22.0588 7.725 22.6255 8.725C23.2088 9.70833 23.5005 10.8 23.5005 12C23.5005 13.2 23.2088 14.3 22.6255 15.3C22.0588 16.2833 21.2755 17.0667 20.2755 17.65C19.2922 18.2167 18.2005 18.5 17.0005 18.5H7.00049ZM17.0005 17.15C17.9338 17.15 18.7838 16.925 19.5505 16.475C20.3338 16.0083 20.9505 15.3833 21.4005 14.6C21.8672 13.8167 22.1005 12.95 22.1005 12C22.1005 11.05 21.8672 10.1833 21.4005 9.4C20.9505 8.61667 20.3338 8 19.5505 7.55C18.7838 7.08333 17.9338 6.85 17.0005 6.85H7.00049C6.06716 6.85 5.20882 7.08333 4.42549 7.55C3.65882 8 3.04216 8.61667 2.57549 9.4C2.12549 10.1833 1.90049 11.05 1.90049 12C1.90049 12.95 2.12549 13.8167 2.57549 14.6C3.04216 15.3833 3.65882 16.0083 4.42549 16.475C5.20882 16.925 6.06716 17.15 7.00049 17.15H17.0005ZM17.0005 15.225C16.4172 15.225 15.8755 15.0833 15.3755 14.8C14.8755 14.5 14.4755 14.1083 14.1755 13.625C13.8922 13.125 13.7505 12.5833 13.7505 12C13.7505 11.4167 13.8922 10.875 14.1755 10.375C14.4755 9.875 14.8755 9.48333 15.3755 9.2C15.8755 8.91667 16.4172 8.775 17.0005 8.775C17.5838 8.775 18.1255 8.91667 18.6255 9.2C19.1255 9.48333 19.5172 9.875 19.8005 10.375C20.1005 10.875 20.2505 11.4167 20.2505 12C20.2505 12.5833 20.1005 13.125 19.8005 13.625C19.5172 14.1083 19.1255 14.5 18.6255 14.8C18.1255 15.0833 17.5838 15.225 17.0005 15.225ZM17.0005 13.9C17.5338 13.9 17.9838 13.7167 18.3505 13.35C18.7172 12.9667 18.9005 12.5167 18.9005 12C18.9005 11.4833 18.7172 11.0417 18.3505 10.675C17.9838 10.2917 17.5338 10.1 17.0005 10.1C16.4672 10.1 16.0172 10.2917 15.6505 10.675C15.2838 11.0417 15.1005 11.4833 15.1005 12C15.1005 12.5167 15.2838 12.9667 15.6505 13.35C16.0172 13.7167 16.4672 13.9 17.0005 13.9Z" fill="black"/>
</g>
<defs>
<clipPath id="clip0_3216_3458">
<rect width="24" height="24" fill="white"/>
</clipPath>
</defs>
</svg>
