<svg width="24" height="24" viewBox="0 0 24 24" fill="none" xmlns="http://www.w3.org/2000/svg">
<g clip-path="url(#clip0_3216_1630)">
<rect width="24" height="24" fill="white"/>
<path d="M6.50049 18.5C5.30049 18.5 4.20049 18.2167 3.20049 17.65C2.21716 17.0667 1.43382 16.2833 0.850488 15.3C0.283822 14.3 0.000488281 13.2 0.000488281 12C0.000488281 10.8 0.283822 9.70833 0.850488 8.725C1.43382 7.725 2.21716 6.94167 3.20049 6.375C4.20049 5.79167 5.30049 5.5 6.50049 5.5H17.5005C18.7005 5.5 19.7922 5.79167 20.7755 6.375C21.7755 6.94167 22.5588 7.725 23.1255 8.725C23.7088 9.70833 24.0005 10.8 24.0005 12C24.0005 13.2 23.7088 14.3 23.1255 15.3C22.5588 16.2833 21.7755 17.0667 20.7755 17.65C19.7922 18.2167 18.7005 18.5 17.5005 18.5H6.50049ZM17.5005 18.025C18.6005 18.025 19.6088 17.7583 20.5255 17.225C21.4422 16.6917 22.1672 15.9667 22.7005 15.05C23.2338 14.1333 23.5005 13.1167 23.5005 12C23.5005 10.8833 23.2338 9.86667 22.7005 8.95C22.1672 8.03333 21.4422 7.30833 20.5255 6.775C19.6088 6.24167 18.6005 5.975 17.5005 5.975H6.50049C5.40049 5.975 4.39216 6.24167 3.47549 6.775C2.55882 7.30833 1.83382 8.03333 1.30049 8.95C0.767155 9.86667 0.500488 10.8833 0.500488 12C0.500488 13.1167 0.767155 14.1333 1.30049 15.05C1.83382 15.9667 2.55882 16.6917 3.47549 17.225C4.39216 17.7583 5.40049 18.025 6.50049 18.025H17.5005ZM6.55049 15.225C5.96716 15.225 5.42549 15.0833 4.92549 14.8C4.42549 14.5167 4.02549 14.125 3.72549 13.625C3.44215 13.125 3.30049 12.5833 3.30049 12C3.30049 11.4167 3.44215 10.875 3.72549 10.375C4.02549 9.875 4.42549 9.48333 4.92549 9.2C5.42549 8.91667 5.96716 8.775 6.55049 8.775C7.13382 8.775 7.67549 8.91667 8.17549 9.2C8.67549 9.48333 9.06716 9.875 9.35049 10.375C9.65049 10.875 9.80049 11.4167 9.80049 12C9.80049 12.5833 9.65049 13.125 9.35049 13.625C9.06716 14.125 8.67549 14.5167 8.17549 14.8C7.67549 15.0833 7.13382 15.225 6.55049 15.225ZM6.55049 14.75C7.33382 14.75 7.99216 14.4833 8.52549 13.95C9.05882 13.4167 9.32549 12.7667 9.32549 12C9.32549 11.2333 9.05882 10.5833 8.52549 10.05C7.99216 9.51667 7.33382 9.25 6.55049 9.25C5.76716 9.25 5.10882 9.51667 4.57549 10.05C4.04216 10.5833 3.77549 11.2333 3.77549 12C3.77549 12.7667 4.04216 13.4167 4.57549 13.95C5.10882 14.4833 5.76716 14.75 6.55049 14.75Z" fill="black"/>
</g>
<defs>
<clipPath id="clip0_3216_1630">
<rect width="24" height="24" fill="white"/>
</clipPath>
</defs>
</svg>
