<svg width="24" height="24" viewBox="0 0 24 24" fill="none" xmlns="http://www.w3.org/2000/svg">
<g clip-path="url(#clip0_3396_12146)">
<rect width="24" height="24" fill="white"/>
<path d="M7.82549 19.325C6.47549 19.325 5.24216 19 4.12549 18.35C3.00882 17.7 2.12549 16.8167 1.47549 15.7C0.825488 14.5833 0.500488 13.35 0.500488 12C0.500488 10.65 0.825488 9.41667 1.47549 8.3C2.12549 7.18333 3.00882 6.3 4.12549 5.65C5.24216 5 6.47549 4.675 7.82549 4.675H16.1755C17.5255 4.675 18.7588 5 19.8755 5.65C20.9922 6.3 21.8755 7.18333 22.5255 8.3C23.1755 9.41667 23.5005 10.65 23.5005 12C23.5005 13.35 23.1755 14.5833 22.5255 15.7C21.8755 16.8167 20.9922 17.7 19.8755 18.35C18.7588 19 17.5255 19.325 16.1755 19.325H7.82549ZM16.1755 16.4C16.9755 16.4 17.7005 16.2083 18.3505 15.825C19.0172 15.425 19.5422 14.8917 19.9255 14.225C20.3255 13.5583 20.5255 12.8167 20.5255 12C20.5255 11.1833 20.3255 10.4417 19.9255 9.775C19.5422 9.10833 19.0172 8.58333 18.3505 8.2C17.7005 7.8 16.9755 7.6 16.1755 7.6H7.82549C7.02549 7.6 6.29216 7.8 5.62549 8.2C4.97549 8.58333 4.45049 9.10833 4.05049 9.775C3.66716 10.4417 3.47549 11.1833 3.47549 12C3.47549 12.8167 3.66716 13.5583 4.05049 14.225C4.45049 14.8917 4.97549 15.425 5.62549 15.825C6.29216 16.2083 7.02549 16.4 7.82549 16.4H16.1755ZM7.62549 13.95C7.27549 13.95 6.95049 13.8667 6.65049 13.7C6.35049 13.5167 6.10882 13.275 5.92549 12.975C5.75882 12.675 5.67549 12.35 5.67549 12C5.67549 11.65 5.75882 11.325 5.92549 11.025C6.10882 10.725 6.35049 10.4917 6.65049 10.325C6.95049 10.1417 7.27549 10.05 7.62549 10.05C7.99216 10.05 8.32549 10.1417 8.62549 10.325C8.92549 10.4917 9.15882 10.725 9.32549 11.025C9.50882 11.325 9.60049 11.65 9.60049 12C9.60049 12.35 9.50882 12.675 9.32549 12.975C9.15882 13.275 8.92549 13.5167 8.62549 13.7C8.32549 13.8667 7.99216 13.95 7.62549 13.95ZM7.62549 12C7.80882 12 7.94216 12 8.02549 12C8.10882 12 8.24216 12 8.42549 12C8.24216 12 8.10882 12 8.02549 12C7.94216 12 7.80882 12 7.62549 12C7.44216 12 7.30882 12 7.22549 12C7.14216 12 7.00882 12 6.82549 12C7.00882 12 7.14216 12 7.22549 12C7.30882 12 7.44216 12 7.62549 12Z" fill="black"/>
</g>
<defs>
<clipPath id="clip0_3396_12146">
<rect width="24" height="24" fill="white"/>
</clipPath>
</defs>
</svg>
