<svg width="24" height="24" viewBox="0 0 24 24" fill="none" xmlns="http://www.w3.org/2000/svg">
<g clip-path="url(#clip0_3364_4157)">
<rect width="24" height="24" fill="white"/>
<path d="M16.3255 21H3.00049V20.075H16.3255V21ZM16.3255 12.45H3.00049V11.525H16.3255V12.45ZM16.3255 3.925H3.00049V3H16.3255V3.925ZM20.3005 4.275C20.0838 4.275 19.8922 4.2 19.7255 4.05C19.5755 3.88333 19.5005 3.69167 19.5005 3.475C19.5005 3.25833 19.5755 3.075 19.7255 2.925C19.8922 2.75833 20.0755 2.675 20.2755 2.675C20.5088 2.675 20.7005 2.75833 20.8505 2.925C21.0005 3.075 21.0755 3.25833 21.0755 3.475C21.0755 3.69167 21.0005 3.88333 20.8505 4.05C20.7005 4.2 20.5172 4.275 20.3005 4.275ZM20.3005 12.8C20.0838 12.8 19.8922 12.725 19.7255 12.575C19.5755 12.4083 19.5005 12.2167 19.5005 12C19.5005 11.7833 19.5755 11.6 19.7255 11.45C19.8922 11.2833 20.0755 11.2 20.2755 11.2C20.5088 11.2 20.7005 11.2833 20.8505 11.45C21.0005 11.6 21.0755 11.7833 21.0755 12C21.0755 12.2167 21.0005 12.4083 20.8505 12.575C20.7005 12.725 20.5172 12.8 20.3005 12.8ZM20.3005 21.3C20.0838 21.3 19.8922 21.2167 19.7255 21.05C19.5755 20.9 19.5005 20.725 19.5005 20.525C19.5005 20.3083 19.5755 20.125 19.7255 19.975C19.8922 19.8083 20.0755 19.725 20.2755 19.725C20.5088 19.725 20.7005 19.8 20.8505 19.95C21.0005 20.1 21.0755 20.2917 21.0755 20.525C21.0755 20.725 21.0005 20.9 20.8505 21.05C20.7005 21.2167 20.5172 21.3 20.3005 21.3Z" fill="black"/>
</g>
<defs>
<clipPath id="clip0_3364_4157">
<rect width="24" height="24" fill="white"/>
</clipPath>
</defs>
</svg>
