<svg width="24" height="24" viewBox="0 0 24 24" fill="none" xmlns="http://www.w3.org/2000/svg">
<g clip-path="url(#clip0_3364_4163)">
<rect width="24" height="24" fill="white"/>
<path d="M15.6255 21H3.00049V18.575H15.6255V21ZM15.6255 13.225H3.00049V10.775H15.6255V13.225ZM15.6255 5.425H3.00049V3H15.6255V5.425ZM19.4255 5.825C18.9922 5.825 18.6088 5.66667 18.2755 5.35C17.9588 5.01667 17.8005 4.63333 17.8005 4.2C17.8005 3.75 17.9588 3.36667 18.2755 3.05C18.6088 2.73333 18.9922 2.575 19.4255 2.575C19.8755 2.575 20.2588 2.73333 20.5755 3.05C20.8922 3.36667 21.0505 3.75 21.0505 4.2C21.0505 4.63333 20.8922 5.01667 20.5755 5.35C20.2588 5.66667 19.8755 5.825 19.4255 5.825ZM19.4255 13.625C18.9922 13.625 18.6088 13.4667 18.2755 13.15C17.9588 12.8167 17.8005 12.4333 17.8005 12C17.8005 11.55 17.9588 11.1667 18.2755 10.85C18.6088 10.5333 18.9922 10.375 19.4255 10.375C19.8755 10.375 20.2588 10.5333 20.5755 10.85C20.8922 11.1667 21.0505 11.55 21.0505 12C21.0505 12.4333 20.8922 12.8167 20.5755 13.15C20.2588 13.4667 19.8755 13.625 19.4255 13.625ZM19.4255 21.4C18.9922 21.4 18.6088 21.2417 18.2755 20.925C17.9588 20.5917 17.8005 20.2083 17.8005 19.775C17.8005 19.325 17.9588 18.9417 18.2755 18.625C18.6088 18.3083 18.9922 18.15 19.4255 18.15C19.8755 18.15 20.2588 18.3083 20.5755 18.625C20.8922 18.9417 21.0505 19.325 21.0505 19.775C21.0505 20.2083 20.8922 20.5917 20.5755 20.925C20.2588 21.2417 19.8755 21.4 19.4255 21.4Z" fill="black"/>
</g>
<defs>
<clipPath id="clip0_3364_4163">
<rect width="24" height="24" fill="white"/>
</clipPath>
</defs>
</svg>
