<svg width="24" height="24" viewBox="0 0 24 24" fill="none" xmlns="http://www.w3.org/2000/svg">
<g clip-path="url(#clip0_3364_4165)">
<rect width="24" height="24" fill="white"/>
<path d="M15.2255 21H3.00049V17.975H15.2255V21ZM15.2255 13.5H3.00049V10.5H15.2255V13.5ZM15.2255 6.025H3.00049V3H15.2255V6.025ZM19.2005 6.375C18.7005 6.375 18.2588 6.19167 17.8755 5.825C17.5088 5.44167 17.3255 5 17.3255 4.5C17.3255 3.98333 17.5088 3.54167 17.8755 3.175C18.2588 2.80833 18.7005 2.625 19.2005 2.625C19.7172 2.625 20.1588 2.80833 20.5255 3.175C20.8922 3.54167 21.0755 3.98333 21.0755 4.5C21.0755 5 20.8922 5.44167 20.5255 5.825C20.1588 6.19167 19.7172 6.375 19.2005 6.375ZM19.2005 13.875C18.7005 13.875 18.2588 13.6917 17.8755 13.325C17.5088 12.9417 17.3255 12.5 17.3255 12C17.3255 11.4833 17.5088 11.0417 17.8755 10.675C18.2588 10.3083 18.7005 10.125 19.2005 10.125C19.7172 10.125 20.1588 10.3083 20.5255 10.675C20.8922 11.0417 21.0755 11.4833 21.0755 12C21.0755 12.5 20.8922 12.9417 20.5255 13.325C20.1588 13.6917 19.7172 13.875 19.2005 13.875ZM19.2005 21.35C18.7005 21.35 18.2588 21.1667 17.8755 20.8C17.5088 20.4167 17.3255 19.9833 17.3255 19.5C17.3255 18.9667 17.5088 18.5167 17.8755 18.15C18.2588 17.7833 18.7005 17.6 19.2005 17.6C19.7172 17.6 20.1588 17.7833 20.5255 18.15C20.8922 18.5167 21.0755 18.9667 21.0755 19.5C21.0755 19.9833 20.8922 20.4167 20.5255 20.8C20.1588 21.1667 19.7172 21.35 19.2005 21.35Z" fill="black"/>
</g>
<defs>
<clipPath id="clip0_3364_4165">
<rect width="24" height="24" fill="white"/>
</clipPath>
</defs>
</svg>
