<svg width="24" height="24" viewBox="0 0 24 24" fill="none" xmlns="http://www.w3.org/2000/svg">
<g clip-path="url(#clip0_3364_4181)">
<rect width="24" height="24" fill="white"/>
<path d="M14.85 21H3V17.4H14.85V21ZM14.85 13.8H3V10.2H14.85V13.8ZM14.85 6.6H3V3H14.85V6.6ZM19 6.9C18.4333 6.9 17.9333 6.69167 17.5 6.275C17.0833 5.84167 16.875 5.34167 16.875 4.775C16.875 4.19167 17.0833 3.69167 17.5 3.275C17.9333 2.85833 18.4333 2.65 19 2.65C19.5833 2.65 20.0833 2.85833 20.5 3.275C20.9167 3.69167 21.125 4.19167 21.125 4.775C21.125 5.34167 20.9167 5.84167 20.5 6.275C20.0833 6.69167 19.5833 6.9 19 6.9ZM19 14.125C18.4333 14.125 17.9333 13.9167 17.5 13.5C17.0833 13.0667 16.875 12.5667 16.875 12C16.875 11.4167 17.0833 10.9167 17.5 10.5C17.9333 10.0833 18.4333 9.875 19 9.875C19.5833 9.875 20.0833 10.0833 20.5 10.5C20.9167 10.9167 21.125 11.4167 21.125 12C21.125 12.5667 20.9167 13.0667 20.5 13.5C20.0833 13.9167 19.5833 14.125 19 14.125ZM19 21.325C18.4333 21.325 17.9333 21.1167 17.5 20.7C17.0833 20.2667 16.875 19.7667 16.875 19.2C16.875 18.6167 17.0833 18.1167 17.5 17.7C17.9333 17.2833 18.4333 17.075 19 17.075C19.5833 17.075 20.0833 17.2833 20.5 17.7C20.9167 18.1167 21.125 18.6167 21.125 19.2C21.125 19.7667 20.9167 20.2667 20.5 20.7C20.0833 21.1167 19.5833 21.325 19 21.325Z" fill="black"/>
</g>
<defs>
<clipPath id="clip0_3364_4181">
<rect width="24" height="24" fill="white"/>
</clipPath>
</defs>
</svg>
