<svg width="24" height="24" viewBox="0 0 24 24" fill="none" xmlns="http://www.w3.org/2000/svg">
<g clip-path="url(#clip0_3219_11050)">
<rect width="24" height="24" fill="white"/>
<path d="M4.60049 8.8H10.3505V4.35H13.6505V8.8H18.8255V12.05H4.60049V8.8ZM7.57549 21C6.74216 21 5.97549 20.8 5.27549 20.4C4.57549 19.9833 4.01716 19.425 3.60049 18.725C3.20049 18.025 3.00049 17.2583 3.00049 16.425V7.575C3.00049 6.74167 3.20882 5.975 3.62549 5.275C4.05882 4.575 4.64216 4.025 5.37549 3.625C6.12549 3.20833 6.95049 3 7.85049 3H16.4255C17.2588 3 18.0255 3.20833 18.7255 3.625C19.4255 4.025 19.9755 4.575 20.3755 5.275C20.7922 5.975 21.0005 6.74167 21.0005 7.575V16.425C21.0005 17.2583 20.7922 18.025 20.3755 18.725C19.9755 19.425 19.4255 19.9833 18.7255 20.4C18.0255 20.8 17.2588 21 16.4255 21H7.57549ZM16.4255 17.5C16.7255 17.5 16.9755 17.4 17.1755 17.2C17.3755 16.9833 17.4755 16.725 17.4755 16.425V7.575C17.4755 7.275 17.3755 7.025 17.1755 6.825C16.9755 6.60833 16.7255 6.5 16.4255 6.5H7.57549C7.29216 6.5 7.05049 6.6 6.85049 6.8C6.65049 7 6.55049 7.25 6.55049 7.55V16.425C6.55049 16.725 6.65049 16.9833 6.85049 17.2C7.05049 17.4 7.29216 17.5 7.57549 17.5H16.4255Z" fill="black"/>
</g>
<defs>
<clipPath id="clip0_3219_11050">
<rect width="24" height="24" fill="white"/>
</clipPath>
</defs>
</svg>
