<svg width="24" height="24" viewBox="0 0 24 24" fill="none" xmlns="http://www.w3.org/2000/svg">
<g clip-path="url(#clip0_3219_10998)">
<rect width="24" height="24" fill="white"/>
<path d="M12.0005 5.3C11.6005 5.3 11.3005 5.3 11.1005 5.3C10.9172 5.3 10.6338 5.3 10.2505 5.3C10.6505 5.3 10.9422 5.3 11.1255 5.3C11.3255 5.3 11.6255 5.3 12.0255 5.3C12.4088 5.3 12.6922 5.3 12.8755 5.3C13.0755 5.3 13.3672 5.3 13.7505 5.3C13.3505 5.3 13.0505 5.3 12.8505 5.3C12.6672 5.3 12.3838 5.3 12.0005 5.3ZM8.35049 16.675C7.86716 16.175 7.48382 15.6083 7.20049 14.975C6.93382 14.3417 6.80049 13.6833 6.80049 13C6.80049 12.0667 7.03382 11.2083 7.50049 10.425C7.96716 9.64167 8.60049 9.01667 9.40049 8.55C10.2005 8.08333 11.0672 7.85 12.0005 7.85C12.9338 7.85 13.8005 8.08333 14.6005 8.55C15.4005 9.01667 16.0338 9.64167 16.5005 10.425C16.9672 11.2083 17.2005 12.0667 17.2005 13C17.2005 13.6833 17.0588 14.3417 16.7755 14.975C16.5088 15.6083 16.1338 16.175 15.6505 16.675L13.3505 14.4C13.5338 14.2167 13.6755 14.0083 13.7755 13.775C13.8922 13.525 13.9505 13.2667 13.9505 13C13.9505 12.65 13.8588 12.325 13.6755 12.025C13.5088 11.725 13.2755 11.4917 12.9755 11.325C12.6755 11.1417 12.3505 11.05 12.0005 11.05C11.6505 11.05 11.3255 11.1417 11.0255 11.325C10.7255 11.4917 10.4838 11.725 10.3005 12.025C10.1338 12.325 10.0505 12.65 10.0505 13C10.0505 13.2667 10.1005 13.525 10.2005 13.775C10.3172 14.0083 10.4672 14.2167 10.6505 14.4L8.35049 16.675ZM4.95049 20.35C3.98382 19.4833 3.21716 18.4 2.65049 17.1C2.08382 15.7833 1.80049 14.425 1.80049 13.025C1.80049 11.1583 2.25049 9.45 3.15049 7.9C4.06716 6.33333 5.30049 5.1 6.85049 4.2C8.41716 3.3 10.1338 2.85 12.0005 2.85C13.8672 2.85 15.5755 3.3 17.1255 4.2C18.6922 5.1 19.9255 6.33333 20.8255 7.9C21.7422 9.45 22.2005 11.1583 22.2005 13.025C22.2005 14.425 21.9172 15.7833 21.3505 17.1C20.7838 18.4 20.0172 19.4833 19.0505 20.35L16.8755 17.975C17.5088 17.4083 18.0088 16.675 18.3755 15.775C18.7588 14.875 18.9505 13.9583 18.9505 13.025C18.9505 11.7417 18.6422 10.5667 18.0255 9.5C17.4088 8.43333 16.5672 7.59167 15.5005 6.975C14.4338 6.35833 13.2672 6.05 12.0005 6.05C10.7338 6.05 9.56716 6.35833 8.50049 6.975C7.43382 7.59167 6.59216 8.43333 5.97549 9.5C5.35882 10.5667 5.05049 11.7417 5.05049 13.025C5.05049 13.9583 5.23382 14.875 5.60049 15.775C5.98382 16.675 6.49216 17.4083 7.12549 17.975L4.95049 20.35Z" fill="black"/>
</g>
<defs>
<clipPath id="clip0_3219_10998">
<rect width="24" height="24" fill="white"/>
</clipPath>
</defs>
</svg>
