<svg width="24" height="24" viewBox="0 0 24 24" fill="none" xmlns="http://www.w3.org/2000/svg">
<g clip-path="url(#clip0_3216_4126)">
<rect width="24" height="24" fill="white"/>
<path d="M12 15.15C10.7833 15.15 9.66667 14.8583 8.65 14.275C7.65 13.6917 6.85 12.9 6.25 11.9C5.66667 10.9 5.375 9.79167 5.375 8.575C5.375 7.35833 5.66667 6.25 6.25 5.25C6.85 4.25 7.65 3.45833 8.65 2.875C9.66667 2.29167 10.7833 2 12 2C13.2167 2 14.325 2.29167 15.325 2.875C16.3417 3.45833 17.1417 4.25 17.725 5.25C18.325 6.25 18.625 7.35833 18.625 8.575C18.625 9.79167 18.325 10.9 17.725 11.9C17.1417 12.9 16.3417 13.6917 15.325 14.275C14.325 14.8583 13.2167 15.15 12 15.15ZM10.725 8.675C10.725 8.99167 10.8333 9.26667 11.05 9.5C11.2833 9.71667 11.5583 9.825 11.875 9.825H15.6V7.775H12.825V4.35H10.725V8.675ZM3 21V16.675H5.325V18.725H10.85V16.675H13.15V18.725H18.675V16.675H21V21H3Z" fill="black"/>
</g>
<defs>
<clipPath id="clip0_3216_4126">
<rect width="24" height="24" fill="white"/>
</clipPath>
</defs>
</svg>
