<svg width="24" height="24" viewBox="0 0 24 24" fill="none" xmlns="http://www.w3.org/2000/svg">
<g clip-path="url(#clip0_3216_4106)">
<rect width="24" height="24" fill="white"/>
<path d="M12.0005 15.4C10.7672 15.4 9.63382 15.1083 8.60049 14.525C7.56716 13.925 6.75049 13.1167 6.15049 12.1C5.55049 11.0667 5.25049 9.93333 5.25049 8.7C5.25049 7.46667 5.55049 6.34167 6.15049 5.325C6.75049 4.29167 7.56716 3.48333 8.60049 2.9C9.63382 2.3 10.7672 2 12.0005 2C13.2338 2 14.3672 2.3 15.4005 2.9C16.4338 3.48333 17.2505 4.29167 17.8505 5.325C18.4505 6.34167 18.7505 7.46667 18.7505 8.7C18.7505 9.93333 18.4505 11.0667 17.8505 12.1C17.2505 13.1167 16.4338 13.925 15.4005 14.525C14.3672 15.1083 13.2338 15.4 12.0005 15.4ZM12.0005 14.475C13.0672 14.475 14.0422 14.225 14.9255 13.725C15.8088 13.2083 16.5088 12.5083 17.0255 11.625C17.5422 10.725 17.8005 9.75 17.8005 8.7C17.8005 7.65 17.5422 6.68333 17.0255 5.8C16.5088 4.9 15.8088 4.2 14.9255 3.7C14.0422 3.18333 13.0672 2.925 12.0005 2.925C10.9338 2.925 9.95882 3.18333 9.07549 3.7C8.19216 4.2 7.49216 4.9 6.97549 5.8C6.45882 6.68333 6.20049 7.65 6.20049 8.7C6.20049 9.75 6.45882 10.725 6.97549 11.625C7.49216 12.5083 8.19216 13.2083 9.07549 13.725C9.95882 14.225 10.9338 14.475 12.0005 14.475ZM3.00049 21V17H3.95049V20.075H11.5255V17H12.4755V20.075H20.0505V17H21.0005V21H3.00049ZM12.2755 4.6V8.4H15.5005V9.3H11.8255C11.6922 9.3 11.5755 9.25 11.4755 9.15C11.3755 9.05 11.3255 8.93333 11.3255 8.8V4.6H12.2755Z" fill="black"/>
</g>
<defs>
<clipPath id="clip0_3216_4106">
<rect width="24" height="24" fill="white"/>
</clipPath>
</defs>
</svg>
