<svg width="24" height="24" viewBox="0 0 24 24" fill="none" xmlns="http://www.w3.org/2000/svg">
<g clip-path="url(#clip0_3216_4118)">
<rect width="24" height="24" fill="white"/>
<path d="M12 15.4C10.7667 15.4 9.63333 15.1083 8.6 14.525C7.56667 13.925 6.75 13.1167 6.15 12.1C5.55 11.0667 5.25 9.93333 5.25 8.7C5.25 7.46667 5.55 6.34167 6.15 5.325C6.75 4.29167 7.56667 3.48333 8.6 2.9C9.63333 2.3 10.7667 2 12 2C13.2333 2 14.3667 2.3 15.4 2.9C16.4333 3.48333 17.25 4.29167 17.85 5.325C18.45 6.34167 18.75 7.46667 18.75 8.7C18.75 9.93333 18.45 11.0667 17.85 12.1C17.25 13.1167 16.4333 13.925 15.4 14.525C14.3667 15.1083 13.2333 15.4 12 15.4ZM11.55 8.8C11.55 8.86667 11.575 8.925 11.625 8.975C11.675 9.025 11.7333 9.05 11.8 9.05H15.675V8.575H12.05V4.225H11.55V8.8ZM3 21V17H3.5V20.525H11.75V17H12.25V20.525H20.5V17H21V21H3Z" fill="black"/>
</g>
<defs>
<clipPath id="clip0_3216_4118">
<rect width="24" height="24" fill="white"/>
</clipPath>
</defs>
</svg>
