<svg width="24" height="24" viewBox="0 0 24 24" fill="none" xmlns="http://www.w3.org/2000/svg">
<g clip-path="url(#clip0_3216_4128)">
<rect width="24" height="24" fill="white"/>
<path d="M12 14.9C10.8167 14.9 9.725 14.6167 8.725 14.05C7.725 13.4833 6.93333 12.7083 6.35 11.725C5.78333 10.725 5.5 9.63333 5.5 8.45C5.5 7.26667 5.78333 6.18333 6.35 5.2C6.93333 4.2 7.725 3.41667 8.725 2.85C9.725 2.28333 10.8167 2 12 2C13.1833 2 14.275 2.28333 15.275 2.85C16.275 3.41667 17.0583 4.2 17.625 5.2C18.2083 6.18333 18.5 7.26667 18.5 8.45C18.5 9.63333 18.2083 10.725 17.625 11.725C17.0583 12.7083 16.275 13.4833 15.275 14.05C14.275 14.6167 13.1833 14.9 12 14.9ZM10.55 8.65C10.55 9.01667 10.675 9.33333 10.925 9.6C11.1917 9.85 11.5083 9.975 11.875 9.975H15.55V7.575H13V4.475H10.55V8.65ZM3 21V16.325H5.775V18.275H10.6V16.325H13.4V18.275H18.225V16.325H21V21H3Z" fill="black"/>
</g>
<defs>
<clipPath id="clip0_3216_4128">
<rect width="24" height="24" fill="white"/>
</clipPath>
</defs>
</svg>
