<svg width="24" height="24" viewBox="0 0 24 24" fill="none" xmlns="http://www.w3.org/2000/svg">
<g clip-path="url(#clip0_3219_8507)">
<rect width="24" height="24" fill="white"/>
<path d="M6.10049 3H6.77549L10.6255 12.75H10.0505L8.87549 9.65H4.00049L2.77549 12.75H2.22549L6.10049 3ZM21.9005 21C20.9505 20.6167 20.1088 20.225 19.3755 19.825C18.6422 19.4083 18.0088 18.9667 17.4755 18.5L17.8005 18.15C18.3172 18.6 18.9338 19.025 19.6505 19.425C20.3838 19.825 21.2088 20.2083 22.1255 20.575L21.9005 21ZM13.0505 20.55C14.5838 19.9333 15.8338 19.25 16.8005 18.5C17.7838 17.75 18.5255 16.9083 19.0255 15.975C19.5422 15.025 19.8422 13.95 19.9255 12.75L20.4255 12.775C20.2922 14.675 19.6505 16.2833 18.5005 17.6C17.3672 18.9167 15.6255 20.05 13.2755 21L13.0505 20.55ZM8.67549 9.175L6.42549 3.425L4.17549 9.175H8.67549ZM13.0005 12.7H22.0005V13.175H13.0005V12.7ZM17.3005 10.95H17.8005V12.7H17.3005V10.95ZM17.5005 5.675L20.4255 2.75L20.7755 3.1L17.5005 6.375L14.2255 3.1L14.5755 2.75L17.5005 5.675ZM3.22549 20.9L6.50049 17.625L9.77549 20.9L9.42549 21.25L6.50049 18.325L3.57549 21.25L3.22549 20.9Z" fill="black"/>
</g>
<defs>
<clipPath id="clip0_3219_8507">
<rect width="24" height="24" fill="white"/>
</clipPath>
</defs>
</svg>
