<svg width="24" height="24" viewBox="0 0 24 24" fill="none" xmlns="http://www.w3.org/2000/svg">
<g clip-path="url(#clip0_3219_10104)">
<rect width="24" height="24" fill="white"/>
<path d="M5.80049 3H7.05049L10.8005 12.75H9.72549L8.70049 9.95H4.17549L3.15049 12.75H2.10049L5.80049 3ZM21.8755 21C20.9422 20.7 20.1005 20.35 19.3505 19.95C18.6172 19.55 17.9672 19.0917 17.4005 18.575L17.8755 17.725C18.4422 18.2417 19.0755 18.6917 19.7755 19.075C20.4755 19.4583 21.2755 19.7917 22.1755 20.075L21.8755 21ZM12.9255 20.075C14.3922 19.475 15.5838 18.825 16.5005 18.125C17.4338 17.4083 18.1422 16.6167 18.6255 15.75C19.1088 14.8667 19.3922 13.8667 19.4755 12.75L20.4255 12.775C20.2922 14.675 19.6505 16.2833 18.5005 17.6C17.3672 18.9167 15.6255 20.05 13.2755 21L12.9255 20.075ZM8.35049 9L6.42549 4L4.52549 9H8.35049ZM13.0005 12.7H22.0005V13.65H13.0005V12.7ZM17.0505 10.95H18.0505V12.875H17.0505V10.95ZM17.5005 5.425L20.0755 2.75L20.7505 3.425L17.5005 6.7L14.2505 3.425L14.9255 2.75L17.5005 5.425ZM3.25049 20.575L6.50049 17.3L9.75049 20.575L9.07549 21.25L6.50049 18.575L3.92549 21.25L3.25049 20.575Z" fill="black"/>
</g>
<defs>
<clipPath id="clip0_3219_10104">
<rect width="24" height="24" fill="white"/>
</clipPath>
</defs>
</svg>
