<svg width="24" height="24" viewBox="0 0 24 24" fill="none" xmlns="http://www.w3.org/2000/svg">
<g clip-path="url(#clip0_3219_10114)">
<rect width="24" height="24" fill="white"/>
<path d="M4.37549 3H8.52549L11.8755 12.75H8.42549L8.00049 11.225H4.92549L4.47549 12.75H1.07549L4.37549 3ZM21.7755 21C20.6255 20.7333 19.6588 20.4 18.8755 20C18.0922 19.6 17.4005 19.1083 16.8005 18.525L18.9255 16.3C19.3588 16.7167 19.8088 17.05 20.2755 17.3C20.7588 17.5333 21.4755 17.7667 22.4255 18L21.7755 21ZM12.8005 18.025C14.0505 17.6917 14.9922 17.3333 15.6255 16.95C16.2588 16.55 16.6922 16.0917 16.9255 15.575C17.1755 15.0417 17.3338 14.3417 17.4005 13.475L20.5005 13.725C20.3672 15.5083 19.7505 17.0167 18.6505 18.25C17.5672 19.4833 15.8838 20.4 13.6005 21L12.8005 18.025ZM7.25049 8.5L6.45049 5.825L5.65049 8.5H7.25049ZM13.0255 12.75H22.1255V15.8H13.0255V12.75ZM15.9755 10.65H19.1755V14.075H15.9755V10.65ZM15.1505 3H17.3755H20.2005H21.7505L17.5005 7.25L13.2505 3H15.1505ZM6.50049 16.75L10.7505 21H9.20049H6.37549H4.15049H2.25049L6.50049 16.75Z" fill="black"/>
</g>
<defs>
<clipPath id="clip0_3219_10114">
<rect width="24" height="24" fill="white"/>
</clipPath>
</defs>
</svg>
