<svg width="24" height="24" viewBox="0 0 24 24" fill="none" xmlns="http://www.w3.org/2000/svg">
<g clip-path="url(#clip0_3216_1738)">
<rect width="24" height="24" fill="white"/>
<path d="M8.00049 2.75C8.00049 2.26667 8.16716 1.85833 8.50049 1.525C8.85049 1.175 9.26716 1 9.75049 1H14.2505C14.7338 1 15.1422 1.175 15.4755 1.525C15.8255 1.85833 16.0005 2.26667 16.0005 2.75V4.825H15.5255V2.75C15.5255 2.38333 15.4005 2.08333 15.1505 1.85C14.9005 1.6 14.6005 1.475 14.2505 1.475H9.75049C9.40049 1.475 9.10049 1.6 8.85049 1.85C8.60049 2.08333 8.47549 2.38333 8.47549 2.75V4.825H8.00049V2.75ZM18.9505 19.325C18.8838 20.1417 18.5755 20.7917 18.0255 21.275C17.4922 21.7583 16.8088 22 15.9755 22H8.02549C7.19216 22 6.50049 21.7583 5.95049 21.275C5.41716 20.7917 5.11716 20.1417 5.05049 19.325L3.70049 4.75H4.20049L5.55049 19.3C5.61716 19.9833 5.86716 20.525 6.30049 20.925C6.75049 21.325 7.32549 21.525 8.02549 21.525H15.9755C16.6755 21.525 17.2422 21.325 17.6755 20.925C18.1255 20.525 18.3838 19.9833 18.4505 19.3L19.8005 4.75H20.3005L18.9505 19.325ZM2.00049 4.5H22.0005V4.975H2.00049V4.5ZM8.07549 17.125H15.9255L15.8755 17.6H8.12549L8.07549 17.125ZM7.70049 12.75H16.3255L16.2755 13.225H7.75049L7.70049 12.75Z" fill="black"/>
</g>
<defs>
<clipPath id="clip0_3216_1738">
<rect width="24" height="24" fill="white"/>
</clipPath>
</defs>
</svg>
