<svg width="24" height="24" viewBox="0 0 24 24" fill="none" xmlns="http://www.w3.org/2000/svg">
<g clip-path="url(#clip0_3218_6238)">
<rect width="24" height="24" fill="white"/>
<path d="M3.7 4.75H20.3L18.95 19.325C18.8833 20.1417 18.575 20.7917 18.025 21.275C17.4917 21.7583 16.8083 22 15.975 22H8.025C7.19167 22 6.5 21.7583 5.95 21.275C5.41667 20.7917 5.11667 20.1417 5.05 19.325L3.7 4.75ZM22 4.975H2V4.5H22V4.975ZM8.475 4.825H8V2.75C8 2.26667 8.16667 1.85833 8.5 1.525C8.85 1.175 9.26667 1 9.75 1H14.25C14.7333 1 15.1417 1.175 15.475 1.525C15.825 1.85833 16 2.26667 16 2.75V4.825H15.525V2.75C15.525 2.38333 15.4 2.08333 15.15 1.85C14.9 1.6 14.6 1.475 14.25 1.475H9.75C9.4 1.475 9.1 1.6 8.85 1.85C8.6 2.08333 8.475 2.38333 8.475 2.75V4.825ZM8.075 18.225L8.125 18.7H15.875L15.925 18.225H8.075ZM7.7 13L7.75 13.475H16.275L16.325 13H7.7Z" fill="black"/>
</g>
<defs>
<clipPath id="clip0_3218_6238">
<rect width="24" height="24" fill="white"/>
</clipPath>
</defs>
</svg>
