<svg width="24" height="24" viewBox="0 0 24 24" fill="none" xmlns="http://www.w3.org/2000/svg">
<g clip-path="url(#clip0_3219_9586)">
<rect width="24" height="24" fill="white"/>
<path d="M6.67549 21.175C5.95882 21.175 5.30882 21.0083 4.72549 20.675C4.14216 20.325 3.67549 19.8583 3.32549 19.275C2.99216 18.6917 2.82549 18.0417 2.82549 17.325V6.675C2.82549 5.975 2.99216 5.33333 3.32549 4.75C3.67549 4.15 4.14216 3.68333 4.72549 3.35C5.30882 3 5.95882 2.825 6.67549 2.825H17.3255C18.0255 2.825 18.6672 3 19.2505 3.35C19.8505 3.68333 20.3172 4.15 20.6505 4.75C21.0005 5.33333 21.1755 5.975 21.1755 6.675V17.325C21.1755 18.0417 21.0005 18.6917 20.6505 19.275C20.3172 19.8583 19.8505 20.325 19.2505 20.675C18.6672 21.0083 18.0255 21.175 17.3255 21.175H6.67549ZM17.3255 19.725C17.9922 19.725 18.5505 19.4917 19.0005 19.025C19.4505 18.5583 19.6755 17.9917 19.6755 17.325V6.675C19.6755 6.00833 19.4505 5.44167 19.0005 4.975C18.5505 4.50833 17.9922 4.275 17.3255 4.275H6.67549C6.00882 4.275 5.45049 4.50833 5.00049 4.975C4.55049 5.44167 4.32549 6.00833 4.32549 6.675V17.325C4.32549 17.9917 4.55049 18.5583 5.00049 19.025C5.45049 19.4917 6.00882 19.725 6.67549 19.725H17.3255Z" fill="black"/>
</g>
<defs>
<clipPath id="clip0_3219_9586">
<rect width="24" height="24" fill="white"/>
</clipPath>
</defs>
</svg>
