<svg width="24" height="24" viewBox="0 0 24 24" fill="none" xmlns="http://www.w3.org/2000/svg">
<g clip-path="url(#clip0_3219_9590)">
<rect width="24" height="24" fill="white"/>
<path d="M7.00049 21.175C6.23382 21.175 5.52549 20.9917 4.87549 20.625C4.24216 20.2583 3.74216 19.7583 3.37549 19.125C3.00882 18.475 2.82549 17.7667 2.82549 17V7C2.82549 6.23333 3.00882 5.53333 3.37549 4.9C3.74216 4.25 4.24216 3.74167 4.87549 3.375C5.52549 3.00833 6.23382 2.825 7.00049 2.825H17.0005C17.7672 2.825 18.4672 3.00833 19.1005 3.375C19.7505 3.74167 20.2588 4.25 20.6255 4.9C20.9922 5.53333 21.1755 6.23333 21.1755 7V17C21.1755 17.7667 20.9922 18.475 20.6255 19.125C20.2588 19.7583 19.7505 20.2583 19.1005 20.625C18.4672 20.9917 17.7672 21.175 17.0005 21.175H7.00049ZM17.0005 18.65C17.4505 18.65 17.8255 18.4917 18.1255 18.175C18.4255 17.8583 18.5755 17.4667 18.5755 17V7C18.5755 6.53333 18.4255 6.14167 18.1255 5.825C17.8255 5.50833 17.4505 5.35 17.0005 5.35H7.00049C6.55049 5.35 6.17549 5.50833 5.87549 5.825C5.57549 6.14167 5.42549 6.53333 5.42549 7V17C5.42549 17.4667 5.57549 17.8583 5.87549 18.175C6.17549 18.4917 6.55049 18.65 7.00049 18.65H17.0005Z" fill="black"/>
</g>
<defs>
<clipPath id="clip0_3219_9590">
<rect width="24" height="24" fill="white"/>
</clipPath>
</defs>
</svg>
