<svg width="24" height="24" viewBox="0 0 24 24" fill="none" xmlns="http://www.w3.org/2000/svg">
<g clip-path="url(#clip0_3379_7364)">
<rect width="24" height="24" fill="white"/>
<path d="M6.05049 11.475C5.45049 12.075 5.05049 12.7667 4.85049 13.55C4.66716 14.3167 4.67549 15.0917 4.87549 15.875C5.09216 16.6417 5.49216 17.3167 6.07549 17.9C6.67549 18.5 7.35882 18.9083 8.12549 19.125C8.90882 19.325 9.68382 19.3333 10.4505 19.15C11.2338 18.95 11.9255 18.55 12.5255 17.95L14.3505 16.125L16.5505 18.325L14.7255 20.15C13.7255 21.15 12.5672 21.825 11.2505 22.175C9.93382 22.525 8.61716 22.5167 7.30049 22.15C6.00049 21.8 4.85049 21.125 3.85049 20.125C2.86716 19.1417 2.19216 18 1.82549 16.7C1.47549 15.3833 1.47549 14.0667 1.82549 12.75C2.17549 11.4333 2.85049 10.275 3.85049 9.275L5.67549 7.45L7.87549 9.65L6.05049 11.475ZM7.45049 5.675L9.27549 3.85C10.2755 2.85 11.4255 2.18333 12.7255 1.85C14.0422 1.5 15.3588 1.5 16.6755 1.85C17.9922 2.2 19.1422 2.86667 20.1255 3.85C21.1255 4.85 21.8005 6.00833 22.1505 7.325C22.5005 8.64167 22.5005 9.95833 22.1505 11.275C21.8172 12.575 21.1505 13.725 20.1505 14.725L18.3255 16.55L16.1255 14.35L17.9505 12.525C18.5505 11.925 18.9422 11.2417 19.1255 10.475C19.3255 9.69167 19.3172 8.91667 19.1005 8.15C18.9005 7.36667 18.5005 6.675 17.9005 6.075C17.3172 5.49167 16.6338 5.1 15.8505 4.9C15.0838 4.68333 14.3088 4.675 13.5255 4.875C12.7588 5.05833 12.0755 5.45 11.4755 6.05L9.65049 7.875L7.45049 5.675Z" fill="black"/>
</g>
<defs>
<clipPath id="clip0_3379_7364">
<rect width="24" height="24" fill="white"/>
</clipPath>
</defs>
</svg>
