<svg width="24" height="24" viewBox="0 0 24 24" fill="none" xmlns="http://www.w3.org/2000/svg">
<g clip-path="url(#clip0_3218_5760)">
<rect width="24" height="24" fill="white"/>
<path d="M7.50049 6.425C6.48382 6.425 5.55049 6.675 4.70049 7.175C3.86716 7.65833 3.20049 8.33333 2.70049 9.2C2.21716 10.05 1.97549 10.9833 1.97549 12C1.97549 13.0167 2.21716 13.9583 2.70049 14.825C3.20049 15.675 3.86716 16.35 4.70049 16.85C5.55049 17.3333 6.48382 17.575 7.50049 17.575H10.7505V19H7.50049C6.21716 19 5.03382 18.6917 3.95049 18.075C2.88382 17.4583 2.04216 16.6167 1.42549 15.55C0.808822 14.4667 0.500488 13.2833 0.500488 12C0.500488 10.7167 0.808822 9.54167 1.42549 8.475C2.04216 7.39167 2.88382 6.54167 3.95049 5.925C5.03382 5.30833 6.21716 5 7.50049 5H10.7505V6.425H7.50049ZM13.2505 5H16.5005C17.7838 5 18.9588 5.30833 20.0255 5.925C21.1088 6.54167 21.9588 7.39167 22.5755 8.475C23.1922 9.54167 23.5005 10.7167 23.5005 12C23.5005 13.2833 23.1922 14.4667 22.5755 15.55C21.9588 16.6167 21.1088 17.4583 20.0255 18.075C18.9588 18.6917 17.7838 19 16.5005 19H13.2505V17.575H16.5005C17.5172 17.575 18.4422 17.3333 19.2755 16.85C20.1255 16.35 20.7922 15.675 21.2755 14.825C21.7755 13.9583 22.0255 13.0167 22.0255 12C22.0255 10.9833 21.7755 10.05 21.2755 9.2C20.7922 8.33333 20.1255 7.65833 19.2755 7.175C18.4422 6.675 17.5172 6.425 16.5005 6.425H13.2505V5Z" fill="black"/>
</g>
<defs>
<clipPath id="clip0_3218_5760">
<rect width="24" height="24" fill="white"/>
</clipPath>
</defs>
</svg>
