<svg width="24" height="24" viewBox="0 0 24 24" fill="none" xmlns="http://www.w3.org/2000/svg">
<g clip-path="url(#clip0_3216_3146)">
<rect width="24" height="24" fill="white"/>
<path d="M14.2255 8.225L15.4255 9.425H10.3755L9.30049 8.125H15.5755V14.65C15.5755 15.0167 15.4172 15.3167 15.1005 15.55C14.8005 15.7667 14.3922 15.875 13.8755 15.875C13.4255 15.875 13.0755 15.7833 12.8255 15.6C12.5922 15.4167 12.4755 15.1583 12.4755 14.825C12.4755 14.5083 12.5922 14.2583 12.8255 14.075C13.0588 13.8917 13.3588 13.8 13.7255 13.8C14.2255 13.8 14.6172 13.8833 14.9005 14.05C15.2005 14.2167 15.3505 14.4417 15.3505 14.725L14.2255 14.325V8.225ZM13.7255 14.875C13.8922 14.875 14.0172 14.875 14.1005 14.875C14.1838 14.875 14.3088 14.875 14.4755 14.875C14.3088 14.875 14.1838 14.875 14.1005 14.875C14.0172 14.875 13.8922 14.875 13.7255 14.875C13.5588 14.875 13.4338 14.875 13.3505 14.875C13.2838 14.875 13.1672 14.875 13.0005 14.875C13.1672 14.875 13.2838 14.875 13.3505 14.875C13.4338 14.875 13.5588 14.875 13.7255 14.875ZM9.30049 8.125L10.6505 8.35V14.65C10.6505 15.0167 10.4922 15.3167 10.1755 15.55C9.87549 15.7667 9.46716 15.875 8.95049 15.875C8.50049 15.875 8.15049 15.7833 7.90049 15.6C7.66716 15.4167 7.55049 15.1583 7.55049 14.825C7.55049 14.5083 7.66716 14.2583 7.90049 14.075C8.13382 13.8917 8.43382 13.8 8.80049 13.8C9.28382 13.8 9.67549 13.8833 9.97549 14.05C10.2755 14.2167 10.4255 14.4417 10.4255 14.725L9.30049 14.325V8.125ZM8.80049 14.875C8.96716 14.875 9.09216 14.875 9.17549 14.875C9.25882 14.875 9.38382 14.875 9.55049 14.875C9.38382 14.875 9.25882 14.875 9.17549 14.875C9.09216 14.875 8.96716 14.875 8.80049 14.875C8.63382 14.875 8.50882 14.875 8.42549 14.875C8.35882 14.875 8.24216 14.875 8.07549 14.875C8.24216 14.875 8.35882 14.875 8.42549 14.875C8.50882 14.875 8.63382 14.875 8.80049 14.875ZM3.42549 18.6H20.5755V5.4H3.42549V18.6ZM22.0005 4V20H2.00049V4H22.0005Z" fill="black"/>
</g>
<defs>
<clipPath id="clip0_3216_3146">
<rect width="24" height="24" fill="white"/>
</clipPath>
</defs>
</svg>
