<svg width="24" height="24" viewBox="0 0 24 24" fill="none" xmlns="http://www.w3.org/2000/svg">
<g clip-path="url(#clip0_3216_3168)">
<rect width="24" height="24" fill="white"/>
<path d="M6.55 13.7C6.21667 14 6.05 14.3583 6.05 14.775C6.05 15.275 6.24167 15.6833 6.625 16C7.025 16.3 7.55 16.45 8.2 16.45C8.88333 16.45 9.46667 16.2833 9.95 15.95C10.45 15.6 10.7 15.125 10.7 14.525V9.925H13.875V13.25C13.7083 13.25 13.5333 13.25 13.35 13.25C12.8667 13.25 12.4583 13.4 12.125 13.7C11.7917 14 11.625 14.3583 11.625 14.775C11.625 15.275 11.8 15.6833 12.15 16C12.5167 16.3 13 16.45 13.6 16.45C14.3333 16.45 14.9583 16.2833 15.475 15.95C16.0083 15.6 16.275 15.125 16.275 14.525V7.575H8.3V13.25C8.13333 13.25 7.95833 13.25 7.775 13.25C7.29167 13.25 6.88333 13.4 6.55 13.7ZM2 20V4H22V20H2Z" fill="black"/>
</g>
<defs>
<clipPath id="clip0_3216_3168">
<rect width="24" height="24" fill="white"/>
</clipPath>
</defs>
</svg>
