<svg width="24" height="24" viewBox="0 0 24 24" fill="none" xmlns="http://www.w3.org/2000/svg">
<g clip-path="url(#clip0_3216_3150)">
<rect width="24" height="24" fill="white"/>
<path d="M13.7005 8.3L15.4755 10.075H10.8505L9.22549 8.2H15.6255V14.275C15.6255 14.7583 15.4505 15.1417 15.1005 15.425C14.7672 15.6917 14.3005 15.825 13.7005 15.825C13.2005 15.825 12.8088 15.7167 12.5255 15.5C12.2422 15.2833 12.1005 14.975 12.1005 14.575C12.1005 14.1917 12.2255 13.9 12.4755 13.7C12.7422 13.4833 13.0922 13.375 13.5255 13.375C14.0255 13.375 14.4088 13.4833 14.6755 13.7C14.9588 13.9167 15.1005 14.2083 15.1005 14.575L13.7005 14.05V8.3ZM13.2755 14.675C13.4422 14.675 13.5672 14.675 13.6505 14.675C13.7338 14.675 13.8588 14.675 14.0255 14.675C13.8588 14.675 13.7338 14.675 13.6505 14.675C13.5672 14.675 13.4422 14.675 13.2755 14.675C13.1088 14.675 12.9838 14.675 12.9005 14.675C12.8338 14.675 12.7172 14.675 12.5505 14.675C12.7172 14.675 12.8338 14.675 12.9005 14.675C12.9838 14.675 13.1088 14.675 13.2755 14.675ZM9.20049 8.2L11.1505 8.425V14.275C11.1505 14.7583 10.9755 15.1417 10.6255 15.425C10.2922 15.6917 9.82549 15.825 9.22549 15.825C8.72549 15.825 8.32549 15.7167 8.02549 15.5C7.74216 15.2833 7.60049 14.975 7.60049 14.575C7.60049 14.1917 7.72549 13.9 7.97549 13.7C8.22549 13.4833 8.56716 13.375 9.00049 13.375C9.50049 13.375 9.89216 13.4833 10.1755 13.7C10.4588 13.9167 10.6005 14.2083 10.6005 14.575L9.20049 14.05V8.2ZM8.77549 14.675C8.94216 14.675 9.06716 14.675 9.15049 14.675C9.23382 14.675 9.35882 14.675 9.52549 14.675C9.35882 14.675 9.23382 14.675 9.15049 14.675C9.06716 14.675 8.94216 14.675 8.77549 14.675C8.60882 14.675 8.48382 14.675 8.40049 14.675C8.33382 14.675 8.21716 14.675 8.05049 14.675C8.21716 14.675 8.33382 14.675 8.40049 14.675C8.48382 14.675 8.60882 14.675 8.77549 14.675ZM4.42549 17.625H19.5755V6.375H4.42549V17.625ZM22.0005 4V20H2.00049V4H22.0005Z" fill="black"/>
</g>
<defs>
<clipPath id="clip0_3216_3150">
<rect width="24" height="24" fill="white"/>
</clipPath>
</defs>
</svg>
