<svg width="24" height="24" viewBox="0 0 24 24" fill="none" xmlns="http://www.w3.org/2000/svg">
<g clip-path="url(#clip0_3218_5534)">
<rect width="24" height="24" fill="white"/>
<path d="M21.0005 17.4V21H9.15049V17.4H21.0005ZM21.0005 10.2V13.8H9.15049V10.2H21.0005ZM21.0005 3V6.6H9.15049V3H21.0005ZM5.00049 6.9C4.43382 6.9 3.93382 6.69167 3.50049 6.275C3.08382 5.84167 2.87549 5.34167 2.87549 4.775C2.87549 4.19167 3.08382 3.69167 3.50049 3.275C3.93382 2.85833 4.43382 2.65 5.00049 2.65C5.58382 2.65 6.08382 2.85833 6.50049 3.275C6.91716 3.69167 7.12549 4.19167 7.12549 4.775C7.12549 5.34167 6.91716 5.84167 6.50049 6.275C6.08382 6.69167 5.58382 6.9 5.00049 6.9ZM5.00049 14.125C4.43382 14.125 3.93382 13.9167 3.50049 13.5C3.08382 13.0667 2.87549 12.5667 2.87549 12C2.87549 11.4167 3.08382 10.9167 3.50049 10.5C3.93382 10.0833 4.43382 9.875 5.00049 9.875C5.58382 9.875 6.08382 10.0833 6.50049 10.5C6.91716 10.9167 7.12549 11.4167 7.12549 12C7.12549 12.5667 6.91716 13.0667 6.50049 13.5C6.08382 13.9167 5.58382 14.125 5.00049 14.125ZM5.00049 21.325C4.43382 21.325 3.93382 21.1167 3.50049 20.7C3.08382 20.2667 2.87549 19.7667 2.87549 19.2C2.87549 18.6167 3.08382 18.1167 3.50049 17.7C3.93382 17.2833 4.43382 17.075 5.00049 17.075C5.58382 17.075 6.08382 17.2833 6.50049 17.7C6.91716 18.1167 7.12549 18.6167 7.12549 19.2C7.12549 19.7667 6.91716 20.2667 6.50049 20.7C6.08382 21.1167 5.58382 21.325 5.00049 21.325Z" fill="black"/>
</g>
<defs>
<clipPath id="clip0_3218_5534">
<rect width="24" height="24" fill="white"/>
</clipPath>
</defs>
</svg>
