<svg width="24" height="24" viewBox="0 0 24 24" fill="none" xmlns="http://www.w3.org/2000/svg">
<g clip-path="url(#clip0_3216_4054)">
<rect width="24" height="24" fill="white"/>
<path d="M12.0005 22C10.1672 22 8.48382 21.5583 6.95049 20.675C5.41716 19.7917 4.20882 18.5833 3.32549 17.05C2.44216 15.5167 2.00049 13.8333 2.00049 12C2.00049 10.1667 2.44216 8.48333 3.32549 6.95C4.20882 5.41667 5.41716 4.20833 6.95049 3.325C8.48382 2.44167 10.1672 2 12.0005 2C13.8338 2 15.5172 2.44167 17.0505 3.325C18.5838 4.20833 19.7922 5.41667 20.6755 6.95C21.5588 8.48333 22.0005 10.1667 22.0005 12C22.0005 13.8333 21.5588 15.5167 20.6755 17.05C19.7922 18.5833 18.5838 19.7917 17.0505 20.675C15.5172 21.5583 13.8338 22 12.0005 22ZM12.0005 21.075C13.6672 21.075 15.1838 20.675 16.5505 19.875C17.9338 19.075 19.0255 17.9833 19.8255 16.6C20.6255 15.2 21.0255 13.6667 21.0255 12C21.0255 10.3333 20.6255 8.80833 19.8255 7.425C19.0255 6.025 17.9338 4.925 16.5505 4.125C15.1838 3.325 13.6672 2.925 12.0005 2.925C10.3338 2.925 8.80882 3.325 7.42549 4.125C6.05882 4.925 4.97549 6.025 4.17549 7.425C3.37549 8.80833 2.97549 10.3333 2.97549 12C2.97549 13.6667 3.37549 15.2 4.17549 16.6C4.97549 17.9833 6.05882 19.075 7.42549 19.875C8.80882 20.675 10.3338 21.075 12.0005 21.075ZM13.1005 15.75C13.9172 15.2833 14.5172 14.775 14.9005 14.225C15.3005 13.675 15.5005 13.0667 15.5005 12.4V9.075L12.0005 8L8.50049 9.075V12.4C8.50049 13.0667 8.69216 13.675 9.07549 14.225C9.47549 14.775 10.0838 15.2833 10.9005 15.75L12.0005 16.4L13.1005 15.75ZM10.4255 16.525C9.49216 15.9583 8.78382 15.3417 8.30049 14.675C7.81716 13.9917 7.57549 13.2333 7.57549 12.4V8.425L12.0005 7.075L16.4255 8.425V12.4C16.4255 13.2333 16.1838 13.9917 15.7005 14.675C15.2172 15.3417 14.5088 15.9583 13.5755 16.525L12.0005 17.475L10.4255 16.525Z" fill="black"/>
</g>
<defs>
<clipPath id="clip0_3216_4054">
<rect width="24" height="24" fill="white"/>
</clipPath>
</defs>
</svg>
