<svg width="24" height="24" viewBox="0 0 24 24" fill="none" xmlns="http://www.w3.org/2000/svg">
<g clip-path="url(#clip0_3155_1054)">
<rect width="24" height="24" fill="white"/>
<path d="M22.9755 13.025C22.7922 13.6917 22.4338 14.2917 21.9005 14.825L14.8255 21.9C14.2922 22.4333 13.6838 22.7917 13.0005 22.975C12.3338 23.1583 11.6588 23.1583 10.9755 22.975C10.3088 22.7917 9.70882 22.4333 9.17549 21.9L2.10049 14.825C1.56716 14.2917 1.20882 13.6917 1.02549 13.025C0.842155 12.3417 0.842155 11.6667 1.02549 11C1.20882 10.3167 1.56716 9.70833 2.10049 9.175L9.17549 2.1C9.70882 1.56667 10.3088 1.20833 10.9755 1.025C11.6588 0.841665 12.3338 0.841665 13.0005 1.025C13.6838 1.20833 14.2922 1.56667 14.8255 2.1L21.9005 9.175C22.4338 9.70833 22.7922 10.3167 22.9755 11C23.1588 11.6667 23.1588 12.3417 22.9755 13.025ZM12.5505 6.55H11.4505L11.5755 14.025H12.4255L12.5505 6.55ZM12.5255 16.175C12.3922 16.025 12.2172 15.95 12.0005 15.95C11.7838 15.95 11.6005 16.025 11.4505 16.175C11.3172 16.325 11.2505 16.5083 11.2505 16.725C11.2505 16.9417 11.3172 17.1167 11.4505 17.25C11.6005 17.3833 11.7838 17.45 12.0005 17.45C12.2172 17.45 12.3922 17.3833 12.5255 17.25C12.6755 17.1167 12.7505 16.9417 12.7505 16.725C12.7505 16.5083 12.6755 16.325 12.5255 16.175Z" fill="black"/>
</g>
<defs>
<clipPath id="clip0_3155_1054">
<rect width="24" height="24" fill="white"/>
</clipPath>
</defs>
</svg>
