<svg width="24" height="24" viewBox="0 0 24 24" fill="none" xmlns="http://www.w3.org/2000/svg">
<g clip-path="url(#clip0_3219_8766)">
<rect width="24" height="24" fill="white"/>
<path d="M22.475 12.975C22.3083 13.625 21.975 14.2 21.475 14.7L14.7 21.475C14.2 21.975 13.625 22.3083 12.975 22.475C12.325 22.6583 11.675 22.6583 11.025 22.475C10.375 22.3083 9.8 21.975 9.3 21.475L2.525 14.7C2.025 14.2 1.68333 13.625 1.5 12.975C1.33333 12.325 1.33333 11.675 1.5 11.025C1.68333 10.375 2.025 9.8 2.525 9.3L9.3 2.525C9.8 2.025 10.375 1.69167 11.025 1.525C11.675 1.34167 12.325 1.34167 12.975 1.525C13.625 1.69167 14.2 2.025 14.7 2.525L21.475 9.3C21.975 9.8 22.3083 10.375 22.475 11.025C22.6583 11.675 22.6583 12.325 22.475 12.975ZM12.55 6.55H11.45L11.575 14.025H12.425L12.55 6.55ZM12.525 16.175C12.3917 16.025 12.2167 15.95 12 15.95C11.7833 15.95 11.6 16.025 11.45 16.175C11.3167 16.325 11.25 16.5083 11.25 16.725C11.25 16.9417 11.3167 17.1167 11.45 17.25C11.6 17.3833 11.7833 17.45 12 17.45C12.2167 17.45 12.3917 17.3833 12.525 17.25C12.675 17.1167 12.75 16.9417 12.75 16.725C12.75 16.5083 12.675 16.325 12.525 16.175Z" fill="black"/>
</g>
<defs>
<clipPath id="clip0_3219_8766">
<rect width="24" height="24" fill="white"/>
</clipPath>
</defs>
</svg>
