<svg width="24" height="24" viewBox="0 0 24 24" fill="none" xmlns="http://www.w3.org/2000/svg">
<g clip-path="url(#clip0_3219_8752)">
<rect width="24" height="24" fill="white"/>
<path d="M14.8255 21.9C14.3088 22.4167 13.7088 22.7667 13.0255 22.95C12.3422 23.1333 11.6588 23.1333 10.9755 22.95C10.2922 22.7667 9.69216 22.4167 9.17549 21.9L2.10049 14.825C1.58382 14.3083 1.23382 13.7083 1.05049 13.025C0.867155 12.3417 0.867155 11.6583 1.05049 10.975C1.23382 10.2917 1.58382 9.69167 2.10049 9.175L9.17549 2.1C9.69216 1.58333 10.2922 1.23333 10.9755 1.05C11.6588 0.866666 12.3422 0.866666 13.0255 1.05C13.7088 1.23333 14.3088 1.58333 14.8255 2.1L21.9005 9.175C22.4172 9.69167 22.7672 10.2917 22.9505 10.975C23.1338 11.6583 23.1338 12.3417 22.9505 13.025C22.7672 13.7083 22.4172 14.3083 21.9005 14.825L14.8255 21.9ZM21.2505 14.15C21.6505 13.7667 21.9172 13.3167 22.0505 12.8C22.1838 12.2667 22.1755 11.7417 22.0255 11.225C21.8922 10.7083 21.6255 10.25 21.2255 9.85L14.1505 2.775C13.7505 2.375 13.2922 2.10833 12.7755 1.975C12.2588 1.825 11.7338 1.81667 11.2005 1.95C10.6838 2.08333 10.2338 2.35 9.85049 2.75L2.75049 9.85C2.35049 10.2333 2.08382 10.6917 1.95049 11.225C1.81715 11.7417 1.81715 12.2583 1.95049 12.775C2.10049 13.2917 2.37549 13.75 2.77549 14.15L9.85049 21.225C10.2505 21.625 10.7088 21.8917 11.2255 22.025C11.7422 22.175 12.2588 22.1833 12.7755 22.05C13.3088 21.9167 13.7672 21.65 14.1505 21.25L21.2505 14.15ZM12.5505 6.8L12.4255 13.275H11.5755L11.4505 6.8H12.5505ZM12.0005 15.425C12.2172 15.425 12.3922 15.5 12.5255 15.65C12.6755 15.8 12.7505 15.9833 12.7505 16.2C12.7505 16.4167 12.6755 16.5917 12.5255 16.725C12.3922 16.8583 12.2172 16.925 12.0005 16.925C11.7838 16.925 11.6005 16.8583 11.4505 16.725C11.3172 16.5917 11.2505 16.4167 11.2505 16.2C11.2505 15.9833 11.3172 15.8 11.4505 15.65C11.6005 15.5 11.7838 15.425 12.0005 15.425Z" fill="black"/>
</g>
<defs>
<clipPath id="clip0_3219_8752">
<rect width="24" height="24" fill="white"/>
</clipPath>
</defs>
</svg>
