<svg width="24" height="24" viewBox="0 0 24 24" fill="none" xmlns="http://www.w3.org/2000/svg">
<g clip-path="url(#clip0_3219_8774)">
<rect width="24" height="24" fill="white"/>
<path d="M22.475 12.975C22.3083 13.625 21.975 14.2 21.475 14.7L14.7 21.475C14.2 21.975 13.625 22.3083 12.975 22.475C12.325 22.6583 11.675 22.6583 11.025 22.475C10.375 22.3083 9.8 21.975 9.3 21.475L2.525 14.7C2.025 14.2 1.68333 13.625 1.5 12.975C1.33333 12.325 1.33333 11.675 1.5 11.025C1.68333 10.375 2.025 9.8 2.525 9.3L9.3 2.525C9.8 2.025 10.375 1.69167 11.025 1.525C11.675 1.34167 12.325 1.34167 12.975 1.525C13.625 1.69167 14.2 2.025 14.7 2.525L21.475 9.3C21.975 9.8 22.3083 10.375 22.475 11.025C22.6583 11.675 22.6583 12.325 22.475 12.975ZM13.625 6.05H10.375L10.65 13.375H13.325L13.625 6.05ZM13.2 15.15C12.9 14.8333 12.5 14.675 12 14.675C11.5167 14.675 11.1167 14.8333 10.8 15.15C10.4833 15.4667 10.325 15.875 10.325 16.375C10.325 16.8583 10.4833 17.2583 10.8 17.575C11.1167 17.875 11.5167 18.025 12 18.025C12.4833 18.025 12.8833 17.875 13.2 17.575C13.5167 17.2583 13.675 16.8583 13.675 16.375C13.675 15.875 13.5167 15.4667 13.2 15.15Z" fill="black"/>
</g>
<defs>
<clipPath id="clip0_3219_8774">
<rect width="24" height="24" fill="white"/>
</clipPath>
</defs>
</svg>
