<svg width="24" height="24" viewBox="0 0 24 24" fill="none" xmlns="http://www.w3.org/2000/svg">
<g clip-path="url(#clip0_3219_11206)">
<rect width="24" height="24" fill="white"/>
<path d="M12.0005 17.25C11.4005 17.25 10.9088 17.0833 10.5255 16.75C10.1588 16.4167 9.97549 15.975 9.97549 15.425C9.97549 14.8583 10.1588 14.4083 10.5255 14.075C10.9088 13.725 11.4005 13.55 12.0005 13.55C12.6172 13.55 13.1088 13.7167 13.4755 14.05C13.8422 14.3833 14.0255 14.8417 14.0255 15.425C14.0255 15.975 13.8338 16.4167 13.4505 16.75C13.0838 17.0833 12.6005 17.25 12.0005 17.25ZM10.0755 8.4H13.9005L13.7255 12.975H10.2755L10.0755 8.4ZM8.10049 21.5C6.45049 21.5 5.06716 21.05 3.95049 20.15C2.83382 19.2333 2.15882 18.0667 1.92549 16.65C1.70882 15.2333 2.01716 13.8167 2.85049 12.4L6.80049 5.7C7.63382 4.28333 8.70882 3.325 10.0255 2.825C11.3422 2.30833 12.6588 2.30833 13.9755 2.825C15.2922 3.325 16.3672 4.28333 17.2005 5.7L21.1505 12.4C21.9838 13.8167 22.2838 15.2333 22.0505 16.65C21.8338 18.0667 21.1672 19.2333 20.0505 20.15C18.9338 21.05 17.5505 21.5 15.9005 21.5H8.10049ZM15.9005 18.1C16.7005 18.1 17.3422 17.9167 17.8255 17.55C18.3255 17.1667 18.6088 16.675 18.6755 16.075C18.7588 15.4583 18.6005 14.8083 18.2005 14.125L14.2505 7.425C13.8505 6.74167 13.3755 6.28333 12.8255 6.05C12.2755 5.81667 11.7255 5.81667 11.1755 6.05C10.6255 6.28333 10.1505 6.74167 9.75049 7.425L5.80049 14.125C5.40049 14.8083 5.23382 15.4583 5.30049 16.075C5.38382 16.675 5.66716 17.1667 6.15049 17.55C6.65049 17.9167 7.30049 18.1 8.10049 18.1H15.9005Z" fill="black"/>
</g>
<defs>
<clipPath id="clip0_3219_11206">
<rect width="24" height="24" fill="white"/>
</clipPath>
</defs>
</svg>
