<svg width="24" height="24" viewBox="0 0 24 24" fill="none" xmlns="http://www.w3.org/2000/svg">
<g clip-path="url(#clip0_3219_11220)">
<rect width="24" height="24" fill="white"/>
<path d="M10.65 13.075H13.35L13.7 6.5H10.3L10.65 13.075ZM12 14.5C11.4667 14.5 11.0417 14.6667 10.725 15C10.4083 15.3167 10.25 15.7417 10.25 16.275C10.25 16.775 10.4083 17.1917 10.725 17.525C11.0417 17.8417 11.4667 18 12 18C12.5333 18 12.9583 17.8417 13.275 17.525C13.5917 17.1917 13.75 16.775 13.75 16.275C13.75 15.7417 13.5917 15.3167 13.275 15C12.9583 14.6667 12.5333 14.5 12 14.5ZM5.85 21C4.8 21 3.89167 20.6667 3.125 20C2.35833 19.3333 1.875 18.5083 1.675 17.525C1.49167 16.525 1.66667 15.575 2.2 14.675L8.35 4C8.86667 3.1 9.60833 2.49167 10.575 2.175C11.5417 1.84167 12.5 1.84167 13.45 2.175C14.4167 2.49167 15.1583 3.1 15.675 4L21.8 14.675C22.3167 15.575 22.475 16.525 22.275 17.525C22.0917 18.525 21.625 19.3583 20.875 20.025C20.125 20.675 19.225 21 18.175 21H5.85Z" fill="black"/>
</g>
<defs>
<clipPath id="clip0_3219_11220">
<rect width="24" height="24" fill="white"/>
</clipPath>
</defs>
</svg>
