<svg width="24" height="24" viewBox="0 0 24 24" fill="none" xmlns="http://www.w3.org/2000/svg">
<g clip-path="url(#clip0_3219_8768)">
<rect width="24" height="24" fill="white"/>
<path d="M22.975 13.025C22.7917 13.6917 22.4333 14.2917 21.9 14.825L14.825 21.9C14.2917 22.4333 13.6833 22.7917 13 22.975C12.3333 23.1583 11.6583 23.1583 10.975 22.975C10.3083 22.7917 9.70833 22.4333 9.175 21.9L2.1 14.825C1.56667 14.2917 1.20833 13.6917 1.025 13.025C0.841667 12.3417 0.841667 11.6667 1.025 11C1.20833 10.3167 1.56667 9.70833 2.1 9.175L9.175 2.1C9.70833 1.56667 10.3083 1.20833 10.975 1.025C11.6583 0.841665 12.3333 0.841665 13 1.025C13.6833 1.20833 14.2917 1.56667 14.825 2.1L21.9 9.175C22.4333 9.70833 22.7917 10.3167 22.975 11C23.1583 11.6667 23.1583 12.3417 22.975 13.025ZM12.8 6.55H11.2L11.35 13.775H12.65L12.8 6.55ZM12.7 15.75C12.5167 15.55 12.2833 15.45 12 15.45C11.7 15.45 11.4583 15.55 11.275 15.75C11.0917 15.9333 11 16.175 11 16.475C11 16.7583 11.0917 16.9917 11.275 17.175C11.4583 17.3583 11.7 17.45 12 17.45C12.2833 17.45 12.5167 17.3583 12.7 17.175C12.9 16.9917 13 16.7583 13 16.475C13 16.175 12.9 15.9333 12.7 15.75Z" fill="black"/>
</g>
<defs>
<clipPath id="clip0_3219_8768">
<rect width="24" height="24" fill="white"/>
</clipPath>
</defs>
</svg>
