<svg width="24" height="24" viewBox="0 0 24 24" fill="none" xmlns="http://www.w3.org/2000/svg">
<g clip-path="url(#clip0_3155_1052)">
<rect width="24" height="24" fill="white"/>
<path d="M22.9755 13.025C22.7922 13.6917 22.4338 14.2917 21.9005 14.825L14.8255 21.9C14.2922 22.4333 13.6838 22.7917 13.0005 22.975C12.3338 23.1583 11.6588 23.1583 10.9755 22.975C10.3088 22.7917 9.70882 22.4333 9.17549 21.9L2.10049 14.825C1.56716 14.2917 1.20882 13.6917 1.02549 13.025C0.842155 12.3417 0.842155 11.6667 1.02549 11C1.20882 10.3167 1.56716 9.70833 2.10049 9.175L9.17549 2.1C9.70882 1.56667 10.3088 1.20833 10.9755 1.025C11.6588 0.841665 12.3338 0.841665 13.0005 1.025C13.6838 1.20833 14.2922 1.56667 14.8255 2.1L21.9005 9.175C22.4338 9.70833 22.7922 10.3167 22.9755 11C23.1588 11.6667 23.1588 12.3417 22.9755 13.025ZM12.3005 6.55H11.7005L11.7755 14.25H12.2255L12.3005 6.55ZM12.3505 16.6C12.2505 16.5 12.1338 16.45 12.0005 16.45C11.8505 16.45 11.7255 16.5 11.6255 16.6C11.5422 16.7 11.5005 16.825 11.5005 16.975C11.5005 17.1083 11.5422 17.225 11.6255 17.325C11.7255 17.4083 11.8505 17.45 12.0005 17.45C12.1338 17.45 12.2505 17.4083 12.3505 17.325C12.4505 17.225 12.5005 17.1083 12.5005 16.975C12.5005 16.825 12.4505 16.7 12.3505 16.6Z" fill="black"/>
</g>
<defs>
<clipPath id="clip0_3155_1052">
<rect width="24" height="24" fill="white"/>
</clipPath>
</defs>
</svg>
