<svg width="24" height="24" viewBox="0 0 24 24" fill="none" xmlns="http://www.w3.org/2000/svg">
<g clip-path="url(#clip0_3219_8403)">
<rect width="24" height="24" fill="white"/>
<path d="M14.7005 21.475C14.2005 21.975 13.6255 22.3083 12.9755 22.475C12.3255 22.6417 11.6755 22.6417 11.0255 22.475C10.3755 22.3083 9.80049 21.975 9.30049 21.475L2.52549 14.7C2.02549 14.2 1.69216 13.625 1.52549 12.975C1.35882 12.325 1.35882 11.675 1.52549 11.025C1.69216 10.375 2.02549 9.8 2.52549 9.3L9.30049 2.525C9.80049 2.025 10.3755 1.69167 11.0255 1.525C11.6755 1.35833 12.3255 1.35833 12.9755 1.525C13.6255 1.69167 14.2005 2.025 14.7005 2.525L21.4755 9.3C21.9755 9.8 22.3088 10.375 22.4755 11.025C22.6422 11.675 22.6422 12.325 22.4755 12.975C22.3088 13.625 21.9755 14.2 21.4755 14.7L14.7005 21.475ZM21.1255 14.35C21.5588 13.9167 21.8422 13.4167 21.9755 12.85C22.1255 12.2833 22.1255 11.7167 21.9755 11.15C21.8422 10.5833 21.5588 10.0833 21.1255 9.65L14.3505 2.875C13.9172 2.44167 13.4172 2.15833 12.8505 2.025C12.2838 1.875 11.7172 1.875 11.1505 2.025C10.5838 2.15833 10.0838 2.44167 9.65049 2.875L2.87549 9.65C2.44215 10.0833 2.15049 10.5833 2.00049 11.15C1.86716 11.7167 1.86716 12.2833 2.00049 12.85C2.15049 13.4167 2.44215 13.9167 2.87549 14.35L9.65049 21.125C10.0838 21.5583 10.5838 21.8417 11.1505 21.975C11.7172 22.125 12.2838 22.125 12.8505 21.975C13.4172 21.8417 13.9172 21.5583 14.3505 21.125L21.1255 14.35ZM12.3005 6.925L12.2255 13.625H11.7755L11.7005 6.925H12.3005ZM12.0005 16.05C12.1338 16.05 12.2505 16.1 12.3505 16.2C12.4505 16.3 12.5005 16.425 12.5005 16.575C12.5005 16.7083 12.4505 16.825 12.3505 16.925C12.2505 17.0083 12.1338 17.05 12.0005 17.05C11.8505 17.05 11.7255 17.0083 11.6255 16.925C11.5422 16.825 11.5005 16.7083 11.5005 16.575C11.5005 16.425 11.5422 16.3 11.6255 16.2C11.7255 16.1 11.8505 16.05 12.0005 16.05Z" fill="black"/>
</g>
<defs>
<clipPath id="clip0_3219_8403">
<rect width="24" height="24" fill="white"/>
</clipPath>
</defs>
</svg>
