<svg width="24" height="24" viewBox="0 0 24 24" fill="none" xmlns="http://www.w3.org/2000/svg">
<g clip-path="url(#clip0_3219_8776)">
<rect width="24" height="24" fill="white"/>
<path d="M22.475 12.975C22.3083 13.625 21.975 14.2 21.475 14.7L14.7 21.475C14.2 21.975 13.625 22.3083 12.975 22.475C12.325 22.6583 11.675 22.6583 11.025 22.475C10.375 22.3083 9.8 21.975 9.3 21.475L2.525 14.7C2.025 14.2 1.68333 13.625 1.5 12.975C1.33333 12.325 1.33333 11.675 1.5 11.025C1.68333 10.375 2.025 9.8 2.525 9.3L9.3 2.525C9.8 2.025 10.375 1.69167 11.025 1.525C11.675 1.34167 12.325 1.34167 12.975 1.525C13.625 1.69167 14.2 2.025 14.7 2.525L21.475 9.3C21.975 9.8 22.3083 10.375 22.475 11.025C22.6583 11.675 22.6583 12.325 22.475 12.975ZM13.9 5.8H10.075L10.4 13.3H13.575L13.9 5.8ZM13.35 15.075C13.0167 14.725 12.5667 14.55 12 14.55C11.45 14.55 11 14.725 10.65 15.075C10.3 15.425 10.125 15.8833 10.125 16.45C10.125 17 10.3 17.45 10.65 17.8C11 18.1333 11.45 18.3 12 18.3C12.55 18.3 13 18.1333 13.35 17.8C13.7 17.45 13.875 17 13.875 16.45C13.875 15.8833 13.7 15.425 13.35 15.075Z" fill="black"/>
</g>
<defs>
<clipPath id="clip0_3219_8776">
<rect width="24" height="24" fill="white"/>
</clipPath>
</defs>
</svg>
