<svg width="24" height="24" viewBox="0 0 24 24" fill="none" xmlns="http://www.w3.org/2000/svg">
<g clip-path="url(#clip0_3216_3060)">
<rect width="24" height="24" fill="white"/>
<path d="M12 12.175C10.75 12.175 9.56667 12.4167 8.45 12.9C7.33333 13.3833 6.33333 14.0667 5.45 14.95L3.875 13.35C4.94167 12.2833 6.175 11.45 7.575 10.85C8.975 10.2333 10.45 9.925 12 9.925V12.175ZM12 6.825C10.0333 6.825 8.15 7.20833 6.35 7.975C4.55 8.725 2.975 9.76667 1.625 11.1L0.05 9.5C1.61667 7.95 3.425 6.74167 5.475 5.875C7.54167 5.00833 9.71667 4.575 12 4.575V6.825ZM14.775 18.7C14.425 18.3333 14.0083 18.05 13.525 17.85C13.0583 17.6333 12.55 17.525 12 17.525C11.45 17.525 10.9333 17.6333 10.45 17.85C9.98333 18.05 9.575 18.3333 9.225 18.7L7.625 17.125C8.175 16.5583 8.825 16.1083 9.575 15.775C10.3417 15.4417 11.15 15.275 12 15.275C12.85 15.275 13.65 15.4417 14.4 15.775C15.1667 16.1083 15.825 16.5583 16.375 17.125L14.775 18.7ZM16.275 6.825C16.275 6.09167 16.5 5.5 16.95 5.05C17.4167 4.58333 18.0167 4.35 18.75 4.35C19.4833 4.35 20.075 4.58333 20.525 5.05C20.9917 5.5 21.225 6.09167 21.225 6.825V8.675H19.525V6.825C19.525 6.59167 19.45 6.40833 19.3 6.275C19.1667 6.14167 18.9833 6.075 18.75 6.075C18.5167 6.075 18.325 6.14167 18.175 6.275C18.0417 6.40833 17.975 6.59167 17.975 6.825V8.675H16.275V6.825ZM15 8.025H22.5V12.7H15V8.025Z" fill="black"/>
</g>
<defs>
<clipPath id="clip0_3216_3060">
<rect width="24" height="24" fill="white"/>
</clipPath>
</defs>
</svg>
