<svg width="24" height="24" viewBox="0 0 24 24" fill="none" xmlns="http://www.w3.org/2000/svg">
<g clip-path="url(#clip0_3216_3666)">
<rect width="24" height="24" fill="white"/>
<path d="M14.9755 18.525C14.5922 18.125 14.1422 17.8167 13.6255 17.6C13.1088 17.3833 12.5672 17.275 12.0005 17.275C11.4338 17.275 10.8922 17.3833 10.3755 17.6C9.85882 17.8167 9.40882 18.125 9.02549 18.525L8.02549 17.55C8.52549 17.0333 9.11716 16.625 9.80049 16.325C10.5005 16.025 11.2338 15.875 12.0005 15.875C12.7672 15.875 13.4922 16.025 14.1755 16.325C14.8755 16.625 15.4755 17.0333 15.9755 17.55L14.9755 18.525Z" fill="black"/>
</g>
<defs>
<clipPath id="clip0_3216_3666">
<rect width="24" height="24" fill="white"/>
</clipPath>
</defs>
</svg>
