<svg width="24" height="24" viewBox="0 0 24 24" fill="none" xmlns="http://www.w3.org/2000/svg">
<g clip-path="url(#clip0_3219_10632)">
<rect width="24" height="24" fill="white"/>
<path d="M0.0504883 8.55C1.61715 7 3.42549 5.79167 5.47549 4.925C7.54216 4.05833 9.71716 3.625 12.0005 3.625C14.2838 3.625 16.4505 4.05833 18.5005 4.925C20.5672 5.79167 22.3838 7 23.9505 8.55L22.0005 10.525C20.6338 9.20833 19.1005 8.19167 17.4005 7.475C15.7172 6.75833 13.9172 6.4 12.0005 6.4C10.0838 6.4 8.27549 6.75833 6.57549 7.475C4.87549 8.19167 3.35049 9.20833 2.00049 10.525L0.0504883 8.55ZM9.17549 17.675C9.54216 17.2917 9.96716 17 10.4505 16.8C10.9505 16.6 11.4672 16.5 12.0005 16.5C12.5338 16.5 13.0422 16.6 13.5255 16.8C14.0255 17 14.4588 17.2917 14.8255 17.675L13.0505 19.45C12.9505 19.55 12.8755 19.625 12.8255 19.675C12.7755 19.725 12.7088 19.8 12.6255 19.9C12.4922 20.0333 12.3838 20.1333 12.3005 20.2C12.2338 20.2667 12.1338 20.3667 12.0005 20.5L9.17549 17.675ZM4.57549 13.1C5.55882 12.1333 6.69216 11.3917 7.97549 10.875C9.27549 10.3417 10.6172 10.075 12.0005 10.075C13.3838 10.075 14.7172 10.3417 16.0005 10.875C17.3005 11.3917 18.4422 12.1333 19.4255 13.1L17.4505 15.075C16.7505 14.375 15.9172 13.8333 14.9505 13.45C14.0005 13.05 13.0172 12.85 12.0005 12.85C10.9838 12.85 9.99216 13.05 9.02549 13.45C8.07549 13.8333 7.25049 14.375 6.55049 15.075L4.57549 13.1Z" fill="black"/>
</g>
<defs>
<clipPath id="clip0_3219_10632">
<rect width="24" height="24" fill="white"/>
</clipPath>
</defs>
</svg>
