<svg width="24" height="24" viewBox="0 0 24 24" fill="none" xmlns="http://www.w3.org/2000/svg">
<g clip-path="url(#clip0_3396_11991)">
<rect width="24" height="24" fill="white"/>
<path d="M12 12.85C10.9833 12.85 9.99167 13.05 9.025 13.45C8.075 13.8333 7.25 14.375 6.55 15.075L4.575 13.1C5.55833 12.1333 6.69167 11.3917 7.975 10.875C9.275 10.3417 10.6167 10.075 12 10.075V12.85ZM12 6.4C10.0833 6.4 8.275 6.75833 6.575 7.475C4.875 8.19167 3.35 9.20833 2 10.525L0.05 8.55C1.61667 7 3.425 5.79167 5.475 4.925C7.54167 4.05833 9.71667 3.625 12 3.625V6.4ZM13.05 19.45C12.95 19.55 12.875 19.625 12.825 19.675C12.775 19.725 12.7083 19.8 12.625 19.9C12.4917 20.0333 12.3833 20.1333 12.3 20.2C12.2333 20.2667 12.1333 20.3667 12 20.5L9.175 17.675C9.54167 17.2917 9.96667 17 10.45 16.8C10.95 16.6 11.4667 16.5 12 16.5C12.5333 16.5 13.0417 16.6 13.525 16.8C14.025 17 14.4583 17.2917 14.825 17.675L13.05 19.45ZM19.8 4.05L19.5 8.625H16.825L16.55 4.05H19.8ZM18.175 9.775C18.675 9.775 19.075 9.925 19.375 10.225C19.6917 10.525 19.85 10.9083 19.85 11.375C19.85 11.8583 19.6917 12.2417 19.375 12.525C19.0583 12.8083 18.6583 12.95 18.175 12.95C17.6917 12.95 17.2917 12.8083 16.975 12.525C16.6583 12.2417 16.5 11.8667 16.5 11.4C16.5 10.9333 16.6583 10.55 16.975 10.25C17.2917 9.93333 17.6917 9.775 18.175 9.775Z" fill="black"/>
</g>
<defs>
<clipPath id="clip0_3396_11991">
<rect width="24" height="24" fill="white"/>
</clipPath>
</defs>
</svg>
