<svg width="24" height="24" viewBox="0 0 24 24" fill="none" xmlns="http://www.w3.org/2000/svg">
<g clip-path="url(#clip0_3396_11989)">
<rect width="24" height="24" fill="white"/>
<path d="M12 12.175C10.75 12.175 9.56667 12.4167 8.45 12.9C7.33333 13.3833 6.33333 14.0667 5.45 14.95L3.875 13.35C4.94167 12.2833 6.175 11.45 7.575 10.85C8.975 10.2333 10.45 9.925 12 9.925V12.175ZM12 6.825C10.0333 6.825 8.15 7.20833 6.35 7.975C4.55 8.725 2.975 9.76667 1.625 11.1L0.05 9.5C1.61667 7.95 3.425 6.74167 5.475 5.875C7.54167 5.00833 9.71667 4.575 12 4.575V6.825ZM14.775 18.7C14.425 18.3333 14.0083 18.05 13.525 17.85C13.0583 17.6333 12.55 17.525 12 17.525C11.45 17.525 10.9333 17.6333 10.45 17.85C9.98333 18.05 9.575 18.3333 9.225 18.7L7.625 17.125C8.175 16.5583 8.825 16.1083 9.575 15.775C10.3417 15.4417 11.15 15.275 12 15.275C12.85 15.275 13.65 15.4417 14.4 15.775C15.1667 16.1083 15.825 16.5583 16.375 17.125L14.775 18.7ZM19.8 4.05L19.575 8.85H17.375L17.125 4.05H19.8ZM18.475 10.125C18.9083 10.125 19.2583 10.2583 19.525 10.525C19.7917 10.7917 19.925 11.1333 19.925 11.55C19.925 11.9667 19.7917 12.3083 19.525 12.575C19.2583 12.825 18.9083 12.95 18.475 12.95C18.0417 12.95 17.6917 12.825 17.425 12.575C17.1583 12.3083 17.025 11.9667 17.025 11.55C17.025 11.1333 17.1583 10.7917 17.425 10.525C17.6917 10.2583 18.0417 10.125 18.475 10.125Z" fill="black"/>
</g>
<defs>
<clipPath id="clip0_3396_11989">
<rect width="24" height="24" fill="white"/>
</clipPath>
</defs>
</svg>
