<svg width="24" height="24" viewBox="0 0 24 24" fill="none" xmlns="http://www.w3.org/2000/svg">
<g clip-path="url(#clip0_3216_2184)">
<rect width="24" height="24" fill="white"/>
<path d="M12.0005 11.8C10.7005 11.8 9.45882 12.0583 8.27549 12.575C7.10882 13.075 6.06716 13.775 5.15049 14.675L4.17549 13.7C5.20882 12.6667 6.40049 11.8583 7.75049 11.275C9.10049 10.6917 10.5172 10.4 12.0005 10.4V11.8ZM14.9755 18.525C14.5922 18.125 14.1422 17.8167 13.6255 17.6C13.1088 17.3833 12.5672 17.275 12.0005 17.275C11.4338 17.275 10.8922 17.3833 10.3755 17.6C9.85882 17.8167 9.40882 18.125 9.02549 18.525L8.02549 17.55C8.52549 17.0333 9.11716 16.625 9.80049 16.325C10.5005 16.025 11.2338 15.875 12.0005 15.875C12.7672 15.875 13.4922 16.025 14.1755 16.325C14.8755 16.625 15.4755 17.0333 15.9755 17.55L14.9755 18.525ZM19.8005 4.05L19.6505 9.275H18.3505L18.2005 4.05H19.8005ZM19.0005 10.95C19.2838 10.95 19.5172 11.05 19.7005 11.25C19.9005 11.4333 20.0005 11.675 20.0005 11.975C20.0005 12.2583 19.9005 12.4917 19.7005 12.675C19.5172 12.8583 19.2838 12.95 19.0005 12.95C18.7005 12.95 18.4588 12.8583 18.2755 12.675C18.0922 12.4917 18.0005 12.2583 18.0005 11.975C18.0005 11.675 18.0922 11.4333 18.2755 11.25C18.4588 11.05 18.7005 10.95 19.0005 10.95Z" fill="black"/>
</g>
<defs>
<clipPath id="clip0_3216_2184">
<rect width="24" height="24" fill="white"/>
</clipPath>
</defs>
</svg>
