<svg width="24" height="24" viewBox="0 0 24 24" fill="none" xmlns="http://www.w3.org/2000/svg">
<g clip-path="url(#clip0_3373_4873)">
<rect width="24" height="24" fill="white"/>
<path d="M12.0005 12.175C10.7505 12.175 9.56716 12.4167 8.45049 12.9C7.33382 13.3833 6.33382 14.0667 5.45049 14.95L3.87549 13.35C4.94216 12.2833 6.17549 11.45 7.57549 10.85C8.97549 10.2333 10.4505 9.925 12.0005 9.925V12.175ZM12.0005 6.825C10.0338 6.825 8.15049 7.20833 6.35049 7.975C4.55049 8.725 2.97549 9.76667 1.62549 11.1L0.0504883 9.5C1.61715 7.95 3.42549 6.74167 5.47549 5.875C7.54216 5.00833 9.71716 4.575 12.0005 4.575V6.825ZM14.7755 18.7C14.4255 18.3333 14.0088 18.05 13.5255 17.85C13.0588 17.6333 12.5505 17.525 12.0005 17.525C11.4505 17.525 10.9338 17.6333 10.4505 17.85C9.98382 18.05 9.57549 18.3333 9.22549 18.7L7.62549 17.125C8.17549 16.5583 8.82549 16.1083 9.57549 15.775C10.3422 15.4417 11.1505 15.275 12.0005 15.275C12.8505 15.275 13.6505 15.4417 14.4005 15.775C15.1672 16.1083 15.8255 16.5583 16.3755 17.125L14.7755 18.7ZM16.4005 3.75L18.6755 6.1L20.9505 3.75L22.5255 5.3L20.1755 7.6L22.5255 9.9L20.9505 11.45L18.6755 9.1L16.4005 11.45L14.8255 9.875L17.1755 7.6L14.8255 5.325L16.4005 3.75Z" fill="black"/>
</g>
<defs>
<clipPath id="clip0_3373_4873">
<rect width="24" height="24" fill="white"/>
</clipPath>
</defs>
</svg>
