<svg width="24" height="24" viewBox="0 0 24 24" fill="none" xmlns="http://www.w3.org/2000/svg">
<g clip-path="url(#clip0_3216_3044)">
<rect width="24" height="24" fill="white"/>
<path d="M12.0005 11.95C10.7005 11.95 9.45882 12.2083 8.27549 12.725C7.10882 13.225 6.07549 13.925 5.17549 14.825L3.87549 13.525C4.94216 12.4583 6.17549 11.625 7.57549 11.025C8.97549 10.4083 10.4505 10.1 12.0005 10.1V11.95ZM12.0005 6.6C9.96716 6.6 8.03382 6.99167 6.20049 7.775C4.36716 8.54167 2.75049 9.61667 1.35049 11L0.0504883 9.675C1.61715 8.125 3.42549 6.91667 5.47549 6.05C7.54216 5.18333 9.71716 4.75 12.0005 4.75V6.6ZM15.0505 18.575C14.6672 18.175 14.2088 17.8667 13.6755 17.65C13.1422 17.4167 12.5838 17.3 12.0005 17.3C11.4172 17.3 10.8588 17.4167 10.3255 17.65C9.79216 17.8667 9.33382 18.175 8.95049 18.575L7.62549 17.3C8.17549 16.7333 8.82549 16.2833 9.57549 15.95C10.3422 15.6167 11.1505 15.45 12.0005 15.45C12.8505 15.45 13.6505 15.6167 14.4005 15.95C15.1672 16.2833 15.8255 16.7333 16.3755 17.3L15.0505 18.575ZM16.2005 6.75C16.2005 6.1 16.4172 5.55833 16.8505 5.125C17.3005 4.675 17.8505 4.45 18.5005 4.45C19.1505 4.45 19.6922 4.675 20.1255 5.125C20.5755 5.55833 20.8005 6.1 20.8005 6.75V8.775H19.3255V6.75C19.3255 6.53333 19.2422 6.35 19.0755 6.2C18.9255 6.03333 18.7338 5.95 18.5005 5.95C18.2672 5.95 18.0672 6.03333 17.9005 6.2C17.7505 6.35 17.6755 6.53333 17.6755 6.75V8.775H16.2005V6.75ZM14.7505 7.55H22.2505V12.8H14.7505V7.55ZM20.6255 11.225V9.125H16.3755V11.225H20.6255Z" fill="black"/>
</g>
<defs>
<clipPath id="clip0_3216_3044">
<rect width="24" height="24" fill="white"/>
</clipPath>
</defs>
</svg>
