<svg width="24" height="24" viewBox="0 0 24 24" fill="none" xmlns="http://www.w3.org/2000/svg">
<g clip-path="url(#clip0_3216_1572)">
<rect width="24" height="24" fill="white"/>
<path d="M12.0005 11.475C10.7005 11.475 9.45882 11.7333 8.27549 12.25C7.09216 12.7667 6.04216 13.4833 5.12549 14.4L4.77549 14.05C5.74216 13.0833 6.84216 12.3333 8.07549 11.8C9.32549 11.2667 10.6338 11 12.0005 11V11.475ZM12.0005 5.75C9.91716 5.75 7.93382 6.15 6.05049 6.95C4.16716 7.75 2.50049 8.86667 1.05049 10.3L0.700488 9.95C2.18382 8.48333 3.90049 7.34167 5.85049 6.525C7.80049 5.69167 9.85049 5.275 12.0005 5.275V5.75ZM14.8505 18.425C14.4672 18.0417 14.0338 17.7417 13.5505 17.525C13.0672 17.3083 12.5505 17.2 12.0005 17.2C11.4505 17.2 10.9338 17.3083 10.4505 17.525C9.96716 17.7417 9.53382 18.0417 9.15049 18.425L8.80049 18.075C9.21716 17.6583 9.70049 17.3333 10.2505 17.1C10.8005 16.85 11.3838 16.725 12.0005 16.725C12.6172 16.725 13.2005 16.85 13.7505 17.1C14.3005 17.3333 14.7838 17.6583 15.2005 18.075L14.8505 18.425ZM16.9505 5.2C16.9505 4.61667 17.1505 4.13333 17.5505 3.75C17.9505 3.35 18.4338 3.15 19.0005 3.15C19.5838 3.15 20.0672 3.35 20.4505 3.75C20.8505 4.13333 21.0505 4.61667 21.0505 5.2V7.125H20.5755V5.2C20.5755 4.76667 20.4172 4.4 20.1005 4.1C19.8005 3.78333 19.4338 3.625 19.0005 3.625C18.5672 3.625 18.1922 3.78333 17.8755 4.1C17.5755 4.4 17.4255 4.76667 17.4255 5.2V7.125H16.9505V5.2ZM15.2505 6.75H22.7505V11.5H15.2505V6.75ZM22.2505 11.025V7.225H15.7505V11.025H22.2505Z" fill="black"/>
</g>
<defs>
<clipPath id="clip0_3216_1572">
<rect width="24" height="24" fill="white"/>
</clipPath>
</defs>
</svg>
