<svg width="24" height="24" viewBox="0 0 24 24" fill="none" xmlns="http://www.w3.org/2000/svg">
<g clip-path="url(#clip0_3216_2170)">
<rect width="24" height="24" fill="white"/>
<path d="M5.5 20C4.86667 20 4.275 19.85 3.725 19.55C3.19167 19.2333 2.76667 18.8083 2.45 18.275C2.15 17.725 2 17.1333 2 16.5V7.5C2 6.86667 2.15 6.28333 2.45 5.75C2.76667 5.2 3.19167 4.775 3.725 4.475C4.275 4.15833 4.86667 4 5.5 4H18.5C19.1333 4 19.7167 4.15833 20.25 4.475C20.8 4.775 21.225 5.2 21.525 5.75C21.8417 6.28333 22 6.86667 22 7.5V16.5C22 17.1333 21.8417 17.725 21.525 18.275C21.225 18.8083 20.8 19.2333 20.25 19.55C19.7167 19.85 19.1333 20 18.5 20H5.5ZM12.125 8.4H13.45V7.075H12.125V8.4ZM14.825 8.4H16.15V7.075H14.825V8.4ZM17.55 8.4H18.875V7.075H17.55V8.4Z" fill="black"/>
</g>
<defs>
<clipPath id="clip0_3216_2170">
<rect width="24" height="24" fill="white"/>
</clipPath>
</defs>
</svg>
