<svg width="24" height="24" viewBox="0 0 24 24" fill="none" xmlns="http://www.w3.org/2000/svg">
<g clip-path="url(#clip0_3396_11944)">
<rect width="24" height="24" fill="white"/>
<path d="M9.62549 11.6C9.09216 11.6 8.62549 11.4 8.22549 11C7.82549 10.6 7.62549 10.1333 7.62549 9.6C7.62549 9.03333 7.81716 8.55833 8.20049 8.175C8.60049 7.79167 9.07549 7.6 9.62549 7.6C10.1922 7.6 10.6672 7.79167 11.0505 8.175C11.4338 8.55833 11.6255 9.03333 11.6255 9.6C11.6255 10.15 11.4255 10.625 11.0255 11.025C10.6422 11.4083 10.1755 11.6 9.62549 11.6ZM9.45049 9.525C9.43382 9.525 9.42549 9.525 9.42549 9.525C9.42549 9.525 9.41716 9.525 9.40049 9.525C9.41716 9.525 9.42549 9.525 9.42549 9.525C9.42549 9.525 9.43382 9.525 9.45049 9.525C9.46716 9.525 9.47549 9.525 9.47549 9.525C9.47549 9.525 9.46716 9.525 9.45049 9.525ZM9.60049 9.525C9.60049 9.525 9.59216 9.525 9.57549 9.525C9.59216 9.525 9.60049 9.525 9.60049 9.525C9.61716 9.525 9.62549 9.525 9.62549 9.525C9.62549 9.525 9.63382 9.525 9.65049 9.525C9.63382 9.525 9.62549 9.525 9.62549 9.525C9.62549 9.525 9.61716 9.525 9.60049 9.525ZM7.32549 21C6.52549 21 5.79216 20.8083 5.12549 20.425C4.47549 20.0417 3.95882 19.525 3.57549 18.875C3.19216 18.2083 3.00049 17.475 3.00049 16.675V7.325C3.00049 6.525 3.19216 5.8 3.57549 5.15C3.95882 4.48333 4.47549 3.95833 5.12549 3.575C5.79216 3.19167 6.52549 3 7.32549 3H16.5005C17.3172 3 18.0672 3.19167 18.7505 3.575C19.4505 3.95833 20.0005 4.48333 20.4005 5.15C20.8005 5.8 21.0005 6.525 21.0005 7.325V16.675C21.0005 17.475 20.8088 18.2083 20.4255 18.875C20.0422 19.525 19.5172 20.0417 18.8505 20.425C18.2005 20.8083 17.4755 21 16.6755 21H7.32549ZM16.6755 18.075C17.0422 18.075 17.3588 17.9417 17.6255 17.675C17.8922 17.3917 18.0255 17.0583 18.0255 16.675V7.325C18.0255 6.94167 17.8922 6.61667 17.6255 6.35C17.3588 6.06667 17.0422 5.925 16.6755 5.925H7.32549C6.95882 5.925 6.64216 6.06667 6.37549 6.35C6.10882 6.61667 5.97549 6.94167 5.97549 7.325V16.675C5.97549 17.0583 6.10882 17.3917 6.37549 17.675C6.64216 17.9417 6.95882 18.075 7.32549 18.075H16.6755Z" fill="black"/>
</g>
<defs>
<clipPath id="clip0_3396_11944">
<rect width="24" height="24" fill="white"/>
</clipPath>
</defs>
</svg>
