<svg width="24" height="24" viewBox="0 0 24 24" fill="none" xmlns="http://www.w3.org/2000/svg">
<g clip-path="url(#clip0_3216_1794)">
<rect width="24" height="24" fill="white"/>
<path d="M7.35049 8.425C7.06716 8.425 6.81716 8.31667 6.60049 8.1C6.38382 7.88333 6.27549 7.63333 6.27549 7.35C6.27549 7.05 6.38382 6.8 6.60049 6.6C6.81716 6.38333 7.07549 6.275 7.37549 6.275C7.67549 6.275 7.92549 6.38333 8.12549 6.6C8.34216 6.8 8.45049 7.05 8.45049 7.35C8.45049 7.63333 8.34216 7.88333 8.12549 8.1C7.90882 8.31667 7.65049 8.425 7.35049 8.425ZM7.12549 7.175C7.10882 7.175 7.10049 7.175 7.10049 7.175C7.10049 7.175 7.09216 7.175 7.07549 7.175C7.09216 7.175 7.10049 7.175 7.10049 7.175C7.10049 7.175 7.10882 7.175 7.12549 7.175C7.14216 7.175 7.15049 7.175 7.15049 7.175C7.15049 7.175 7.14216 7.175 7.12549 7.175ZM7.27549 7.175C7.27549 7.175 7.26716 7.175 7.25049 7.175C7.26716 7.175 7.27549 7.175 7.27549 7.175C7.29216 7.175 7.30049 7.175 7.30049 7.175C7.30049 7.175 7.30882 7.175 7.32549 7.175C7.30882 7.175 7.30049 7.175 7.30049 7.175C7.30049 7.175 7.29216 7.175 7.27549 7.175ZM6.82549 21C6.12549 21 5.48382 20.8333 4.90049 20.5C4.31716 20.15 3.85049 19.6833 3.50049 19.1C3.16716 18.5167 3.00049 17.875 3.00049 17.175V6.825C3.00049 6.125 3.16716 5.48333 3.50049 4.9C3.85049 4.31667 4.31716 3.85833 4.90049 3.525C5.48382 3.175 6.12549 3 6.82549 3H17.1755C17.8755 3 18.5172 3.175 19.1005 3.525C19.6838 3.85833 20.1422 4.31667 20.4755 4.9C20.8255 5.48333 21.0005 6.125 21.0005 6.825V17.175C21.0005 17.875 20.8255 18.5167 20.4755 19.1C20.1422 19.6833 19.6838 20.15 19.1005 20.5C18.5172 20.8333 17.8755 21 17.1755 21H6.82549ZM17.1755 19.575C17.8422 19.575 18.4005 19.3417 18.8505 18.875C19.3005 18.4083 19.5255 17.8417 19.5255 17.175V6.825C19.5255 6.14167 19.3005 5.575 18.8505 5.125C18.4005 4.65833 17.8422 4.425 17.1755 4.425H6.82549C6.17549 4.425 5.61716 4.65833 5.15049 5.125C4.70049 5.59167 4.47549 6.15833 4.47549 6.825V17.175C4.47549 17.8417 4.70049 18.4083 5.15049 18.875C5.61716 19.3417 6.17549 19.575 6.82549 19.575H17.1755Z" fill="black"/>
</g>
<defs>
<clipPath id="clip0_3216_1794">
<rect width="24" height="24" fill="white"/>
</clipPath>
</defs>
</svg>
