<svg width="24" height="24" viewBox="0 0 24 24" fill="none" xmlns="http://www.w3.org/2000/svg">
<g clip-path="url(#clip0_3396_11954)">
<rect width="24" height="24" fill="white"/>
<path d="M19.25 20.55C18.7167 20.85 18.1333 21 17.5 21H6.5C5.86667 21 5.275 20.85 4.725 20.55C4.19167 20.2333 3.76667 19.8083 3.45 19.275C3.15 18.725 3 18.1333 3 17.5V6.5C3 5.86667 3.15 5.28333 3.45 4.75C3.76667 4.2 4.19167 3.775 4.725 3.475C5.275 3.15833 5.86667 3 6.5 3H17.5C18.1333 3 18.7167 3.15833 19.25 3.475C19.8 3.775 20.225 4.2 20.525 4.75C20.8417 5.28333 21 5.86667 21 6.5V17.5C21 18.1333 20.8417 18.725 20.525 19.275C20.225 19.8083 19.8 20.2333 19.25 20.55ZM6.025 8.15C6.325 8.45 6.675 8.6 7.075 8.6C7.49167 8.6 7.84167 8.45 8.125 8.15C8.425 7.85 8.575 7.5 8.575 7.1C8.575 6.66667 8.43333 6.30833 8.15 6.025C7.86667 5.74167 7.50833 5.6 7.075 5.6C6.675 5.6 6.325 5.75 6.025 6.05C5.725 6.33333 5.575 6.68333 5.575 7.1C5.575 7.5 5.725 7.85 6.025 8.15ZM7.225 7.35C7.225 7.35 7.23333 7.35 7.25 7.35C7.26667 7.35 7.275 7.35 7.275 7.35C7.275 7.35 7.26667 7.35 7.25 7.35C7.23333 7.35 7.225 7.35 7.225 7.35C7.225 7.35 7.21667 7.35 7.2 7.35C7.21667 7.35 7.225 7.35 7.225 7.35ZM7.375 7.35C7.39167 7.35 7.4 7.35 7.4 7.35C7.41667 7.35 7.425 7.35 7.425 7.35C7.425 7.35 7.43333 7.35 7.45 7.35C7.43333 7.35 7.425 7.35 7.425 7.35C7.425 7.35 7.41667 7.35 7.4 7.35C7.4 7.35 7.39167 7.35 7.375 7.35Z" fill="black"/>
</g>
<defs>
<clipPath id="clip0_3396_11954">
<rect width="24" height="24" fill="white"/>
</clipPath>
</defs>
</svg>
