<svg width="24" height="24" viewBox="0 0 24 24" fill="none" xmlns="http://www.w3.org/2000/svg">
<g clip-path="url(#clip0_3396_11938)">
<rect width="24" height="24" fill="white"/>
<path d="M5.82549 20C5.12549 20 4.47549 19.8333 3.87549 19.5C3.29216 19.1667 2.83382 18.7083 2.50049 18.125C2.16716 17.525 2.00049 16.875 2.00049 16.175V7.825C2.00049 7.125 2.16716 6.48333 2.50049 5.9C2.83382 5.3 3.29216 4.83333 3.87549 4.5C4.47549 4.16667 5.12549 4 5.82549 4H18.1755C18.8755 4 19.5172 4.16667 20.1005 4.5C20.7005 4.83333 21.1672 5.3 21.5005 5.9C21.8338 6.48333 22.0005 7.125 22.0005 7.825V16.175C22.0005 16.875 21.8338 17.525 21.5005 18.125C21.1672 18.7083 20.7005 19.1667 20.1005 19.5C19.5172 19.8333 18.8755 20 18.1755 20H5.82549ZM18.1755 18.575C18.8255 18.575 19.3755 18.3417 19.8255 17.875C20.2922 17.4083 20.5255 16.8417 20.5255 16.175V7.825C20.5255 7.15833 20.2922 6.59167 19.8255 6.125C19.3755 5.65833 18.8255 5.425 18.1755 5.425H5.82549C5.17549 5.425 4.61716 5.65833 4.15049 6.125C3.70049 6.59167 3.47549 7.15833 3.47549 7.825V16.175C3.47549 16.8417 3.70049 17.4083 4.15049 17.875C4.61716 18.3417 5.17549 18.575 5.82549 18.575H18.1755ZM6.37549 9.425C6.07549 9.425 5.81716 9.325 5.60049 9.125C5.40049 8.925 5.30049 8.66667 5.30049 8.35C5.30049 8.03333 5.40049 7.775 5.60049 7.575C5.81716 7.375 6.07549 7.275 6.37549 7.275C6.69216 7.275 6.95049 7.375 7.15049 7.575C7.36716 7.775 7.47549 8.03333 7.47549 8.35C7.47549 8.66667 7.36716 8.925 7.15049 9.125C6.95049 9.325 6.69216 9.425 6.37549 9.425ZM9.65049 9.425C9.33382 9.425 9.07549 9.325 8.87549 9.125C8.67549 8.925 8.57549 8.66667 8.57549 8.35C8.57549 8.03333 8.67549 7.775 8.87549 7.575C9.07549 7.375 9.33382 7.275 9.65049 7.275C9.96716 7.275 10.2255 7.375 10.4255 7.575C10.6255 7.775 10.7255 8.03333 10.7255 8.35C10.7255 8.66667 10.6255 8.925 10.4255 9.125C10.2255 9.325 9.96716 9.425 9.65049 9.425ZM12.9255 9.425C12.6088 9.425 12.3422 9.325 12.1255 9.125C11.9255 8.925 11.8255 8.66667 11.8255 8.35C11.8255 8.03333 11.9255 7.775 12.1255 7.575C12.3422 7.375 12.6088 7.275 12.9255 7.275C13.2255 7.275 13.4755 7.375 13.6755 7.575C13.8922 7.775 14.0005 8.03333 14.0005 8.35C14.0005 8.66667 13.8922 8.925 13.6755 9.125C13.4755 9.325 13.2255 9.425 12.9255 9.425Z" fill="black"/>
</g>
<defs>
<clipPath id="clip0_3396_11938">
<rect width="24" height="24" fill="white"/>
</clipPath>
</defs>
</svg>
