<svg width="24" height="24" viewBox="0 0 24 24" fill="none" xmlns="http://www.w3.org/2000/svg">
<g clip-path="url(#clip0_3216_1496)">
<rect width="24" height="24" fill="white"/>
<path d="M5.50049 20C4.86716 20 4.27549 19.85 3.72549 19.55C3.19216 19.2333 2.76716 18.8083 2.45049 18.275C2.15049 17.725 2.00049 17.1333 2.00049 16.5V7.5C2.00049 6.85 2.15049 6.25833 2.45049 5.725C2.76716 5.19167 3.19216 4.775 3.72549 4.475C4.27549 4.15833 4.86716 4 5.50049 4H18.5005C19.1505 4 19.7422 4.15833 20.2755 4.475C20.8088 4.775 21.2255 5.19167 21.5255 5.725C21.8422 6.25833 22.0005 6.85 22.0005 7.5V16.5C22.0005 17.1333 21.8422 17.725 21.5255 18.275C21.2255 18.8083 20.8088 19.2333 20.2755 19.55C19.7422 19.85 19.1505 20 18.5005 20H5.50049ZM18.5005 19.525C19.3338 19.525 20.0422 19.2333 20.6255 18.65C21.2088 18.0667 21.5005 17.35 21.5005 16.5V7.5C21.5005 6.65 21.2088 5.93333 20.6255 5.35C20.0422 4.76667 19.3338 4.475 18.5005 4.475H5.50049C4.66716 4.475 3.95882 4.76667 3.37549 5.35C2.79216 5.93333 2.50049 6.65 2.50049 7.5V16.5C2.50049 17.35 2.79216 18.0667 3.37549 18.65C3.95882 19.2333 4.66716 19.525 5.50049 19.525H18.5005ZM14.3755 7.075V7.875H13.5755V7.075H14.3755ZM16.6255 7.075V7.875H15.8255V7.075H16.6255ZM18.8755 7.075V7.875H18.0755V7.075H18.8755Z" fill="black"/>
</g>
<defs>
<clipPath id="clip0_3216_1496">
<rect width="24" height="24" fill="white"/>
</clipPath>
</defs>
</svg>
