<svg width="24" height="24" viewBox="0 0 24 24" fill="none" xmlns="http://www.w3.org/2000/svg">
<g clip-path="url(#clip0_3216_2160)">
<rect width="24" height="24" fill="white"/>
<path d="M6.00049 20C5.26716 20 4.59216 19.825 3.97549 19.475C3.35882 19.125 2.87549 18.6417 2.52549 18.025C2.17549 17.4083 2.00049 16.7333 2.00049 16V8C2.00049 7.26667 2.17549 6.59167 2.52549 5.975C2.87549 5.35833 3.35882 4.875 3.97549 4.525C4.59216 4.175 5.26716 4 6.00049 4H18.0005C18.7338 4 19.4088 4.175 20.0255 4.525C20.6422 4.875 21.1255 5.35833 21.4755 5.975C21.8255 6.59167 22.0005 7.26667 22.0005 8V16C22.0005 16.7333 21.8255 17.4083 21.4755 18.025C21.1255 18.6417 20.6422 19.125 20.0255 19.475C19.4088 19.825 18.7338 20 18.0005 20H6.00049ZM18.0005 18.1C18.5672 18.1 19.0505 17.9 19.4505 17.5C19.8505 17.0833 20.0505 16.5833 20.0505 16V8C20.0505 7.41667 19.8505 6.925 19.4505 6.525C19.0505 6.10833 18.5672 5.9 18.0005 5.9H6.00049C5.43382 5.9 4.95049 6.10833 4.55049 6.525C4.15049 6.925 3.95049 7.41667 3.95049 8V16C3.95049 16.5833 4.15049 17.0833 4.55049 17.5C4.95049 17.9 5.43382 18.1 6.00049 18.1H18.0005ZM11.0505 7.6V9.975H8.67549V7.6H11.0505ZM14.7005 7.6V9.975H12.3255V7.6H14.7005ZM18.3505 7.6V9.975H15.9755V7.6H18.3505Z" fill="black"/>
</g>
<defs>
<clipPath id="clip0_3216_2160">
<rect width="24" height="24" fill="white"/>
</clipPath>
</defs>
</svg>
