<svg width="24" height="24" viewBox="0 0 24 24" fill="none" xmlns="http://www.w3.org/2000/svg">
<g clip-path="url(#clip0_3396_11936)">
<rect width="24" height="24" fill="white"/>
<path d="M5.67549 20C4.99216 20 4.36716 19.8417 3.80049 19.525C3.25049 19.1917 2.80882 18.75 2.47549 18.2C2.15882 17.6333 2.00049 17.0083 2.00049 16.325V7.675C2.00049 6.99167 2.15882 6.36667 2.47549 5.8C2.80882 5.23333 3.25049 4.79167 3.80049 4.475C4.36716 4.15833 4.99216 4 5.67549 4H18.3255C19.0088 4 19.6338 4.15833 20.2005 4.475C20.7672 4.79167 21.2088 5.23333 21.5255 5.8C21.8422 6.36667 22.0005 6.99167 22.0005 7.675V16.325C22.0005 17.0083 21.8422 17.6333 21.5255 18.2C21.2088 18.75 20.7672 19.1917 20.2005 19.525C19.6338 19.8417 19.0088 20 18.3255 20H5.67549ZM18.3255 19.05C19.0755 19.05 19.7088 18.7917 20.2255 18.275C20.7588 17.7417 21.0255 17.0917 21.0255 16.325V7.675C21.0255 6.90833 20.7588 6.26667 20.2255 5.75C19.7088 5.21667 19.0755 4.95 18.3255 4.95H5.67549C4.92549 4.95 4.28382 5.21667 3.75049 5.75C3.23382 6.26667 2.97549 6.90833 2.97549 7.675V16.325C2.97549 17.0917 3.23382 17.7417 3.75049 18.275C4.28382 18.7917 4.92549 19.05 5.67549 19.05H18.3255ZM5.95049 8.725C5.71716 8.725 5.52549 8.65 5.37549 8.5C5.22549 8.33333 5.15049 8.14167 5.15049 7.925C5.15049 7.70833 5.22549 7.525 5.37549 7.375C5.52549 7.20833 5.71716 7.125 5.95049 7.125C6.16716 7.125 6.35049 7.20833 6.50049 7.375C6.65049 7.525 6.72549 7.70833 6.72549 7.925C6.72549 8.14167 6.65049 8.33333 6.50049 8.5C6.35049 8.65 6.16716 8.725 5.95049 8.725ZM8.70049 8.725C8.48382 8.725 8.29216 8.65 8.12549 8.5C7.97549 8.33333 7.90049 8.14167 7.90049 7.925C7.90049 7.70833 7.97549 7.525 8.12549 7.375C8.29216 7.20833 8.48382 7.125 8.70049 7.125C8.91716 7.125 9.10049 7.20833 9.25049 7.375C9.41716 7.525 9.50049 7.70833 9.50049 7.925C9.50049 8.14167 9.41716 8.33333 9.25049 8.5C9.10049 8.65 8.91716 8.725 8.70049 8.725ZM11.4505 8.725C11.2338 8.725 11.0505 8.65 10.9005 8.5C10.7505 8.33333 10.6755 8.14167 10.6755 7.925C10.6755 7.70833 10.7505 7.525 10.9005 7.375C11.0505 7.20833 11.2338 7.125 11.4505 7.125C11.6838 7.125 11.8755 7.20833 12.0255 7.375C12.1755 7.525 12.2505 7.70833 12.2505 7.925C12.2505 8.14167 12.1755 8.33333 12.0255 8.5C11.8755 8.65 11.6838 8.725 11.4505 8.725Z" fill="black"/>
</g>
<defs>
<clipPath id="clip0_3396_11936">
<rect width="24" height="24" fill="white"/>
</clipPath>
</defs>
</svg>
