<svg width="24" height="24" viewBox="0 0 24 24" fill="none" xmlns="http://www.w3.org/2000/svg">
<g clip-path="url(#clip0_3396_11946)">
<rect width="24" height="24" fill="white"/>
<path d="M6.50049 20C5.66716 20 4.90882 19.8 4.22549 19.4C3.54216 19 3.00049 18.4583 2.60049 17.775C2.20049 17.0917 2.00049 16.3333 2.00049 15.5V8.5C2.00049 7.66667 2.20049 6.90833 2.60049 6.225C3.00049 5.54167 3.54216 5 4.22549 4.6C4.90882 4.2 5.66716 4 6.50049 4H17.2505C18.1172 4 18.9088 4.2 19.6255 4.6C20.3588 5 20.9338 5.54167 21.3505 6.225C21.7838 6.90833 22.0005 7.66667 22.0005 8.5V15.5C22.0005 16.3333 21.8005 17.0917 21.4005 17.775C21.0005 18.4583 20.4588 19 19.7755 19.4C19.0922 19.8 18.3338 20 17.5005 20H6.50049ZM17.5005 16.45C17.7505 16.45 17.9588 16.3583 18.1255 16.175C18.3088 15.9917 18.4005 15.7667 18.4005 15.5V8.475C18.4005 8.20833 18.3088 7.99167 18.1255 7.825C17.9588 7.64167 17.7505 7.55 17.5005 7.55H6.50049C6.25049 7.55 6.03382 7.64167 5.85049 7.825C5.68382 8.00833 5.60049 8.23333 5.60049 8.5V15.5C5.60049 15.7667 5.68382 15.9917 5.85049 16.175C6.03382 16.3583 6.25049 16.45 6.50049 16.45H17.5005ZM8.95049 13.15C8.28382 13.15 7.74216 12.9417 7.32549 12.525C6.90882 12.1083 6.70049 11.5667 6.70049 10.9C6.70049 10.2333 6.90882 9.69167 7.32549 9.275C7.74216 8.85833 8.28382 8.65 8.95049 8.65C9.61716 8.65 10.1588 8.85833 10.5755 9.275C10.9922 9.69167 11.2005 10.2333 11.2005 10.9C11.2005 11.5667 10.9922 12.1083 10.5755 12.525C10.1588 12.9417 9.61716 13.15 8.95049 13.15ZM8.60049 10.575C8.58382 10.575 8.56716 10.575 8.55049 10.575C8.55049 10.575 8.54216 10.575 8.52549 10.575C8.54216 10.575 8.55049 10.575 8.55049 10.575C8.56716 10.575 8.58382 10.575 8.60049 10.575C8.61716 10.575 8.62549 10.575 8.62549 10.575C8.62549 10.575 8.63382 10.575 8.65049 10.575C8.63382 10.575 8.62549 10.575 8.62549 10.575C8.62549 10.575 8.61716 10.575 8.60049 10.575ZM8.80049 10.575C8.78382 10.575 8.76716 10.575 8.75049 10.575C8.75049 10.575 8.74216 10.575 8.72549 10.575C8.74216 10.575 8.75049 10.575 8.75049 10.575C8.76716 10.575 8.78382 10.575 8.80049 10.575C8.81716 10.575 8.82549 10.575 8.82549 10.575C8.82549 10.575 8.83382 10.575 8.85049 10.575C8.83382 10.575 8.82549 10.575 8.82549 10.575C8.82549 10.575 8.81716 10.575 8.80049 10.575Z" fill="black"/>
</g>
<defs>
<clipPath id="clip0_3396_11946">
<rect width="24" height="24" fill="white"/>
</clipPath>
</defs>
</svg>
