<svg width="24" height="24" viewBox="0 0 24 24" fill="none" xmlns="http://www.w3.org/2000/svg">
<g clip-path="url(#clip0_3216_2158)">
<rect width="24" height="24" fill="white"/>
<path d="M5.82549 20C5.12549 20 4.47549 19.8333 3.87549 19.5C3.29216 19.1667 2.83382 18.7083 2.50049 18.125C2.16716 17.525 2.00049 16.875 2.00049 16.175V7.825C2.00049 7.125 2.16716 6.48333 2.50049 5.9C2.83382 5.3 3.29216 4.83333 3.87549 4.5C4.47549 4.16667 5.12549 4 5.82549 4H18.1755C18.8755 4 19.5172 4.16667 20.1005 4.5C20.7005 4.83333 21.1672 5.3 21.5005 5.9C21.8338 6.48333 22.0005 7.125 22.0005 7.825V16.175C22.0005 16.875 21.8338 17.525 21.5005 18.125C21.1672 18.7083 20.7005 19.1667 20.1005 19.5C19.5172 19.8333 18.8755 20 18.1755 20H5.82549ZM18.1755 18.575C18.8255 18.575 19.3755 18.3417 19.8255 17.875C20.2922 17.4083 20.5255 16.8417 20.5255 16.175V7.825C20.5255 7.15833 20.2922 6.59167 19.8255 6.125C19.3755 5.65833 18.8255 5.425 18.1755 5.425H5.82549C5.17549 5.425 4.61716 5.65833 4.15049 6.125C3.70049 6.59167 3.47549 7.15833 3.47549 7.825V16.175C3.47549 16.8417 3.70049 17.4083 4.15049 17.875C4.61716 18.3417 5.17549 18.575 5.82549 18.575H18.1755ZM12.1505 7.425V9.275H10.3005V7.425H12.1505ZM15.3505 7.425V9.275H13.5005V7.425H15.3505ZM18.5255 7.425V9.275H16.6755V7.425H18.5255Z" fill="black"/>
</g>
<defs>
<clipPath id="clip0_3216_2158">
<rect width="24" height="24" fill="white"/>
</clipPath>
</defs>
</svg>
