<svg width="24" height="24" viewBox="0 0 24 24" fill="none" xmlns="http://www.w3.org/2000/svg">
<g clip-path="url(#clip0_3396_11902)">
<rect width="24" height="24" fill="white"/>
<path d="M20.6755 4.5C21.0922 4.91667 21.3005 5.40833 21.3005 5.975C21.3005 6.54167 21.0922 7.03333 20.6755 7.45L11.6255 16.5H7.50049V12.475L16.6005 3.375C17.0172 2.95833 17.5088 2.75 18.0755 2.75C18.6422 2.75 19.1338 2.95833 19.5505 3.375L20.6755 4.5ZM18.9255 4.025C18.6922 3.775 18.4088 3.65 18.0755 3.65C17.7588 3.65 17.4838 3.76667 17.2505 4L8.42549 12.825V15.6H11.2505L20.0505 6.8C20.3005 6.55 20.4255 6.26667 20.4255 5.95C20.4255 5.63333 20.3005 5.35833 20.0505 5.125L18.9255 4.025ZM15.5255 5.1L18.9505 8.325L18.3255 8.975L14.8755 5.725L15.5255 5.1ZM21.0005 21H3.00049V3H12.8255V3.9H3.92549V20.1H20.0755V11.175H21.0005V21Z" fill="black"/>
</g>
<defs>
<clipPath id="clip0_3396_11902">
<rect width="24" height="24" fill="white"/>
</clipPath>
</defs>
</svg>
