<svg width="24" height="24" viewBox="0 0 24 24" fill="none" xmlns="http://www.w3.org/2000/svg">
<g clip-path="url(#clip0_3396_11906)">
<rect width="24" height="24" fill="white"/>
<path d="M3.00049 3H12.0005V4.75H4.80049V19.25H19.2005V12H21.0005V21H3.00049V3ZM8.00049 11.475L16.0755 3.4C16.5088 2.96667 17.0338 2.75 17.6505 2.75C18.2672 2.75 18.7922 2.96667 19.2255 3.4L20.6505 4.825C21.0838 5.25833 21.3005 5.78333 21.3005 6.4C21.3005 7.01667 21.0838 7.54167 20.6505 7.975L12.6255 16L7.50049 16.5L8.00049 11.475ZM14.4005 6.525L15.5755 5.35C15.5922 5.33333 15.6088 5.325 15.6255 5.325C15.6422 5.325 15.6588 5.33333 15.6755 5.35L18.5755 8.25C18.5922 8.26667 18.6005 8.28333 18.6005 8.3C18.6005 8.31667 18.5922 8.33333 18.5755 8.35L17.4005 9.525L14.4005 6.525ZM11.7755 14.375L19.4255 6.725C19.5088 6.64167 19.5505 6.53333 19.5505 6.4C19.5505 6.26667 19.5088 6.15833 19.4255 6.075L17.9755 4.625C17.8922 4.54167 17.7838 4.5 17.6505 4.5C17.5172 4.5 17.4088 4.54167 17.3255 4.625L9.67549 12.275L9.45049 14.575L11.7755 14.375Z" fill="black"/>
</g>
<defs>
<clipPath id="clip0_3396_11906">
<rect width="24" height="24" fill="white"/>
</clipPath>
</defs>
</svg>
