<svg width="24" height="24" viewBox="0 0 24 24" fill="none" xmlns="http://www.w3.org/2000/svg">
<g clip-path="url(#clip0_3396_11920)">
<rect width="24" height="24" fill="white"/>
<path d="M21 21H3V3H13.25V4.75H4.8V19.25H19.2V10.75H21V21ZM17.675 3.175C18.0083 2.84167 18.3583 2.675 18.725 2.675C19.0917 2.675 19.4417 2.84167 19.775 3.175L20.8 4.2C21.1333 4.53333 21.3 4.88333 21.3 5.25C21.3 5.61667 21.1333 5.96667 20.8 6.3L19.325 7.775L16.2 4.65L17.675 3.175ZM11.625 15.5L7.75 16.25L8.5 12.375L14.85 6L17.975 9.125L11.625 15.5Z" fill="black"/>
</g>
<defs>
<clipPath id="clip0_3396_11920">
<rect width="24" height="24" fill="white"/>
</clipPath>
</defs>
</svg>
