<svg width="24" height="24" viewBox="0 0 24 24" fill="none" xmlns="http://www.w3.org/2000/svg">
<g clip-path="url(#clip0_3216_2732)">
<rect width="24" height="24" fill="white"/>
<path d="M20.5255 4.475C21.0422 4.99167 21.3005 5.6 21.3005 6.3C21.3005 6.98333 21.0422 7.58333 20.5255 8.1L12.1255 16.5H7.50049V11.975L15.9505 3.525C16.4672 3.00833 17.0672 2.75 17.7505 2.75C18.4505 2.75 19.0588 3.00833 19.5755 3.525L20.5255 4.475ZM18.3505 4.75C18.1838 4.58333 17.9922 4.5 17.7755 4.5C17.5588 4.5 17.3672 4.58333 17.2005 4.75L9.30049 12.65V14.75H11.4005L19.3005 6.85C19.4672 6.68333 19.5505 6.49167 19.5505 6.275C19.5505 6.05833 19.4672 5.86667 19.3005 5.7L18.3505 4.75ZM15.6005 5.3L18.7255 8.225L17.5005 9.45L14.3505 6.5L15.6005 5.3ZM21.0005 21H3.00049V3H12.0005V4.75H4.80049V19.25H19.2005V12H21.0005V21Z" fill="black"/>
</g>
<defs>
<clipPath id="clip0_3216_2732">
<rect width="24" height="24" fill="white"/>
</clipPath>
</defs>
</svg>
