<svg width="24" height="24" viewBox="0 0 24 24" fill="none" xmlns="http://www.w3.org/2000/svg">
<g clip-path="url(#clip0_3396_11912)">
<rect width="24" height="24" fill="white"/>
<path d="M3.00049 3H12.5505V6.45H6.50049V17.55H17.5005V11.45H21.0005V21H3.00049V3ZM9.37549 12L15.7005 5.675C15.8505 5.825 15.9588 5.94167 16.0255 6.025C16.1088 6.09167 16.2255 6.2 16.3755 6.35L17.6005 7.575C17.7672 7.74167 17.8838 7.86667 17.9505 7.95C18.0338 8.01667 18.1505 8.125 18.3005 8.275L11.9755 14.6L8.75049 15.225L9.37549 12ZM16.9505 4.425L18.2005 3.175C18.4838 2.89167 18.7755 2.75 19.0755 2.75C19.3755 2.75 19.6672 2.89167 19.9505 3.175L20.8005 4.025C21.0838 4.30833 21.2255 4.6 21.2255 4.9C21.2255 5.2 21.0838 5.49167 20.8005 5.775L19.5505 7.025L16.9505 4.425ZM12.3255 11.625H12.5255H12.4755H12.2755H12.3255Z" fill="black"/>
</g>
<defs>
<clipPath id="clip0_3396_11912">
<rect width="24" height="24" fill="white"/>
</clipPath>
</defs>
</svg>
