<svg width="24" height="24" viewBox="0 0 24 24" fill="none" xmlns="http://www.w3.org/2000/svg">
<g clip-path="url(#clip0_3396_11922)">
<rect width="24" height="24" fill="white"/>
<path d="M21 21H3V3H13.025V5.175H5.225V18.825H18.775V10.975H21V21ZM17.65 3.2C17.95 2.9 18.3083 2.75 18.725 2.75C19.1583 2.75 19.525 2.9 19.825 3.2L20.775 4.15C21.075 4.45 21.225 4.81667 21.225 5.25C21.225 5.66667 21.075 6.025 20.775 6.325L19.075 8.025L15.95 4.9L17.65 3.2ZM10.875 16.25H7.75V13.125L14.575 6.275L17.7 9.4L10.875 16.25Z" fill="black"/>
</g>
<defs>
<clipPath id="clip0_3396_11922">
<rect width="24" height="24" fill="white"/>
</clipPath>
</defs>
</svg>
