<svg width="24" height="24" viewBox="0 0 24 24" fill="none" xmlns="http://www.w3.org/2000/svg">
<g clip-path="url(#clip0_3218_5508)">
<rect width="24" height="24" fill="white"/>
<path d="M11.0505 20.075C9.38382 20.075 7.85882 19.675 6.47549 18.875C5.09216 18.075 4.00049 16.9833 3.20049 15.6C2.40049 14.2167 2.00049 12.6917 2.00049 11.025C2.00049 9.375 2.40049 7.85833 3.20049 6.475C4.01716 5.09167 5.11716 4 6.50049 3.2C7.88382 2.4 9.40049 2 11.0505 2C12.7005 2 14.2172 2.4 15.6005 3.2C16.9838 4 18.0755 5.09167 18.8755 6.475C19.6755 7.85833 20.0755 9.375 20.0755 11.025C20.0755 12.675 19.6755 14.1917 18.8755 15.575C18.0755 16.9583 16.9838 18.0583 15.6005 18.875C14.2172 19.675 12.7005 20.075 11.0505 20.075ZM11.0505 16.65C12.0505 16.65 12.9755 16.4 13.8255 15.9C14.6755 15.4 15.3505 14.7167 15.8505 13.85C16.3505 12.9833 16.6005 12.05 16.6005 11.05C16.6005 10.0333 16.3505 9.1 15.8505 8.25C15.3672 7.38333 14.7005 6.7 13.8505 6.2C13.0172 5.68333 12.0922 5.425 11.0755 5.425C10.0422 5.425 9.10049 5.68333 8.25049 6.2C7.40049 6.7 6.72549 7.38333 6.22549 8.25C5.72549 9.1 5.47549 10.025 5.47549 11.025C5.47549 12.025 5.72549 12.9583 6.22549 13.825C6.72549 14.6917 7.40049 15.3833 8.25049 15.9C9.10049 16.4 10.0338 16.65 11.0505 16.65ZM13.7505 16.175L16.1755 13.75L21.6255 19.1L19.1005 21.625L13.7505 16.175ZM7.10049 9.475H9.42549V7.1H12.5755V9.475H14.9005V12.525H12.5755V14.875H9.42549V12.525H7.10049V9.475Z" fill="black"/>
</g>
<defs>
<clipPath id="clip0_3218_5508">
<rect width="24" height="24" fill="white"/>
</clipPath>
</defs>
</svg>
