<svg width="24" height="24" viewBox="0 0 24 24" fill="none" xmlns="http://www.w3.org/2000/svg">
<g clip-path="url(#clip0_3194_3301)">
<rect width="24" height="24" fill="white"/>
<path d="M3.5 18.5C2.8 18.5 2.20833 18.2583 1.725 17.775C1.24167 17.2917 1 16.7 1 16V5H17.225C17.8583 5 18.45 5.15833 19 5.475C19.55 5.79167 19.975 6.21667 20.275 6.75L23 11.55V18.5H20.2V16.025H4.575V18.5H3.5ZM8.25 15.8H16.65V18.5H8.25V15.8ZM10.4 13.05V15.4H13.6V13.05H15.925V9.9H13.6V7.55H10.4V9.9H8V13.05H10.4ZM6.475 20.5C5.925 20.5 5.41667 20.3667 4.95 20.1C4.48333 19.8333 4.11667 19.4667 3.85 19C3.58333 18.5333 3.45 18.0333 3.45 17.5C3.45 16.95 3.58333 16.4417 3.85 15.975C4.11667 15.5083 4.48333 15.1417 4.95 14.875C5.41667 14.6083 5.925 14.475 6.475 14.475C7.00833 14.475 7.50833 14.6083 7.975 14.875C8.44167 15.1417 8.80833 15.5083 9.075 15.975C9.34167 16.4417 9.475 16.95 9.475 17.5C9.475 18.0333 9.34167 18.5333 9.075 19C8.80833 19.4667 8.44167 19.8333 7.975 20.1C7.50833 20.3667 7.00833 20.5 6.475 20.5ZM6.475 18.625C6.775 18.625 7.03333 18.5167 7.25 18.3C7.46667 18.0833 7.575 17.8167 7.575 17.5C7.575 17.1667 7.46667 16.8917 7.25 16.675C7.03333 16.4583 6.775 16.35 6.475 16.35C6.15833 16.35 5.89167 16.4583 5.675 16.675C5.45833 16.8917 5.35 17.1667 5.35 17.5C5.35 17.8167 5.45833 18.0833 5.675 18.3C5.89167 18.5167 6.15833 18.625 6.475 18.625ZM18.45 20.5C17.9 20.5 17.3917 20.3667 16.925 20.1C16.4583 19.8333 16.0917 19.475 15.825 19.025C15.575 18.5583 15.45 18.05 15.45 17.5C15.45 16.95 15.575 16.4417 15.825 15.975C16.0917 15.5083 16.4583 15.1417 16.925 14.875C17.3917 14.6083 17.9 14.475 18.45 14.475C19 14.475 19.5083 14.6083 19.975 14.875C20.4417 15.1417 20.8 15.5083 21.05 15.975C21.3167 16.4417 21.45 16.95 21.45 17.5C21.45 18.05 21.3167 18.5583 21.05 19.025C20.8 19.475 20.4417 19.8333 19.975 20.1C19.5083 20.3667 19 20.5 18.45 20.5ZM18.45 18.625C18.7667 18.625 19.0333 18.5167 19.25 18.3C19.4667 18.0833 19.575 17.8167 19.575 17.5C19.575 17.1667 19.4667 16.8917 19.25 16.675C19.0333 16.4583 18.7667 16.35 18.45 16.35C18.1333 16.35 17.8667 16.4583 17.65 16.675C17.4333 16.8917 17.325 17.1667 17.325 17.5C17.325 17.8167 17.4333 18.0833 17.65 18.3C17.8667 18.5167 18.1333 18.625 18.45 18.625Z" fill="black"/>
</g>
<defs>
<clipPath id="clip0_3194_3301">
<rect width="24" height="24" fill="white"/>
</clipPath>
</defs>
</svg>
