<svg width="24" height="24" viewBox="0 0 24 24" fill="none" xmlns="http://www.w3.org/2000/svg">
<g clip-path="url(#clip0_3194_3389)">
<rect width="24" height="24" fill="white"/>
<path d="M2.25049 15.075C2.25049 14.0083 2.31716 12.95 2.45049 11.9C2.60049 10.85 2.80049 9.91667 3.05049 9.1C3.25049 8.45 3.59216 7.94167 4.07549 7.575C4.57549 7.19167 5.15882 7 5.82549 7H12.6755C13.3422 7 13.9172 7.19167 14.4005 7.575C14.9005 7.94167 15.2505 8.45 15.4505 9.1C15.7005 9.91667 15.8922 10.85 16.0255 11.9C16.1755 12.95 16.2505 14.0083 16.2505 15.075V21H14.4505V19.5H4.05049V21H2.25049V15.075ZM4.85049 17.75H5.17549H13.1255H13.2755H14.4505V15.075C14.4505 13.1083 14.2172 11.3 13.7505 9.65C13.6505 9.31667 13.4922 9.08333 13.2755 8.95C13.0755 8.81667 12.8255 8.75 12.5255 8.75H5.97549C5.67549 8.75 5.41716 8.81667 5.20049 8.95C5.00049 9.08333 4.85049 9.31667 4.75049 9.65C4.28382 11.3 4.05049 13.1083 4.05049 15.075V17.75H4.85049ZM3.30049 11H15.2005V12.75H3.30049V11ZM6.47549 16.35C6.10882 16.35 5.79216 16.225 5.52549 15.975C5.27549 15.725 5.15049 15.425 5.15049 15.075C5.15049 14.7417 5.27549 14.4583 5.52549 14.225C5.79216 13.975 6.10882 13.85 6.47549 13.85C6.82549 13.85 7.11715 13.975 7.35049 14.225C7.60049 14.4583 7.72549 14.7417 7.72549 15.075C7.72549 15.425 7.60049 15.725 7.35049 15.975C7.10049 16.225 6.80882 16.35 6.47549 16.35ZM6.42549 15.25C6.50882 15.25 6.57549 15.25 6.62549 15.25C6.67549 15.25 6.74216 15.25 6.82549 15.25C6.74216 15.25 6.67549 15.25 6.62549 15.25C6.57549 15.25 6.50882 15.25 6.42549 15.25C6.34216 15.25 6.27549 15.25 6.22549 15.25C6.17549 15.25 6.10882 15.25 6.02549 15.25C6.10882 15.25 6.17549 15.25 6.22549 15.25C6.27549 15.25 6.34216 15.25 6.42549 15.25ZM12.0505 16.35C11.7005 16.35 11.4005 16.225 11.1505 15.975C10.9005 15.725 10.7755 15.425 10.7755 15.075C10.7755 14.7417 10.9005 14.4583 11.1505 14.225C11.4005 13.975 11.7005 13.85 12.0505 13.85C12.4172 13.85 12.7255 13.975 12.9755 14.225C13.2255 14.4583 13.3505 14.7417 13.3505 15.075C13.3505 15.425 13.2255 15.725 12.9755 15.975C12.7255 16.225 12.4172 16.35 12.0505 16.35ZM12.0755 15.15C12.1755 15.15 12.2505 15.15 12.3005 15.15C12.3505 15.15 12.4255 15.15 12.5255 15.15C12.4255 15.15 12.3505 15.15 12.3005 15.15C12.2505 15.15 12.1755 15.15 12.0755 15.15C11.9755 15.15 11.9005 15.15 11.8505 15.15C11.8005 15.15 11.7255 15.15 11.6255 15.15C11.7255 15.15 11.8005 15.15 11.8505 15.15C11.9005 15.15 11.9755 15.15 12.0755 15.15ZM0.650488 12.425V10.975H3.10049V11.475L3.05049 11.8V12.15L3.00049 12.525V13.1L0.650488 12.425ZM15.5005 12.6L15.4505 12.25V11.875L15.4005 11.55V11H17.8505V12.425L15.5005 13.1V12.6ZM15.9505 7.2C15.9505 6.61667 16.1172 6.175 16.4505 5.875C16.7838 5.55833 17.2338 5.4 17.8005 5.4C18.3838 5.4 18.8505 5.55833 19.2005 5.875C19.5672 6.19167 19.7505 6.63333 19.7505 7.2V8.1H15.9505V7.2ZM18.9505 6.85C18.6838 6.85 18.4838 6.85 18.3505 6.85C18.2338 6.85 18.0505 6.85 17.8005 6.85C17.5672 6.85 17.3922 6.85 17.2755 6.85C17.1588 6.85 16.9838 6.85 16.7505 6.85H18.9505ZM17.8005 4.6C17.4505 4.6 17.1588 4.48333 16.9255 4.25C16.6922 4 16.5755 3.7 16.5755 3.35C16.5755 3.01667 16.6922 2.725 16.9255 2.475C17.1588 2.225 17.4505 2.1 17.8005 2.1C18.1505 2.1 18.4505 2.225 18.7005 2.475C18.9505 2.725 19.0755 3.01667 19.0755 3.35C19.0755 3.7 18.9505 4 18.7005 4.25C18.4505 4.48333 18.1505 4.6 17.8005 4.6ZM17.8005 3.35C17.9005 3.35 17.9755 3.35 18.0255 3.35C18.0922 3.35 18.1755 3.35 18.2755 3.35C18.1755 3.35 18.0922 3.35 18.0255 3.35C17.9755 3.35 17.9005 3.35 17.8005 3.35C17.7005 3.35 17.6172 3.35 17.5505 3.35C17.5005 3.35 17.4255 3.35 17.3255 3.35C17.4255 3.35 17.5005 3.35 17.5505 3.35C17.6172 3.35 17.7005 3.35 17.8005 3.35ZM19.7005 7.2C19.7005 6.61667 19.8672 6.175 20.2005 5.875C20.5338 5.55833 20.9838 5.4 21.5505 5.4C22.1338 5.4 22.6005 5.55833 22.9505 5.875C23.3172 6.19167 23.5005 6.63333 23.5005 7.2V8.1H19.7005V7.2ZM22.7005 6.85C22.4338 6.85 22.2338 6.85 22.1005 6.85C21.9838 6.85 21.8005 6.85 21.5505 6.85C21.3172 6.85 21.1422 6.85 21.0255 6.85C20.9088 6.85 20.7338 6.85 20.5005 6.85H22.7005ZM21.5505 4.6C21.2005 4.6 20.9088 4.48333 20.6755 4.25C20.4422 4 20.3255 3.7 20.3255 3.35C20.3255 3.01667 20.4422 2.725 20.6755 2.475C20.9088 2.225 21.2005 2.1 21.5505 2.1C21.9005 2.1 22.2005 2.225 22.4505 2.475C22.7005 2.725 22.8255 3.01667 22.8255 3.35C22.8255 3.7 22.7005 4 22.4505 4.25C22.2005 4.48333 21.9005 4.6 21.5505 4.6ZM21.5505 3.35C21.6505 3.35 21.7255 3.35 21.7755 3.35C21.8422 3.35 21.9255 3.35 22.0255 3.35C21.9255 3.35 21.8422 3.35 21.7755 3.35C21.7255 3.35 21.6505 3.35 21.5505 3.35C21.4505 3.35 21.3672 3.35 21.3005 3.35C21.2505 3.35 21.1755 3.35 21.0755 3.35C21.1755 3.35 21.2505 3.35 21.3005 3.35C21.3672 3.35 21.4505 3.35 21.5505 3.35Z" fill="black"/>
</g>
<defs>
<clipPath id="clip0_3194_3389">
<rect width="24" height="24" fill="white"/>
</clipPath>
</defs>
</svg>
