<svg width="24" height="24" viewBox="0 0 24 24" fill="none" xmlns="http://www.w3.org/2000/svg">
<g clip-path="url(#clip0_3194_2841)">
<rect width="24" height="24" fill="white"/>
<path d="M13.8755 2.125C14.8255 2.80833 15.5505 3.59167 16.0505 4.475C16.5672 5.34167 16.8255 6.21667 16.8255 7.1V9.75L19.0755 11.625C19.5088 12.0083 19.8505 12.4333 20.1005 12.9C20.3505 13.3667 20.4755 13.875 20.4755 14.425V18H3.50049V14.425C3.50049 13.8583 3.61716 13.3417 3.85049 12.875C4.10049 12.4083 4.45049 11.9833 4.90049 11.6L7.17549 9.725V7.1C7.17549 6.21667 7.42549 5.34167 7.92549 4.475C8.44216 3.59167 9.17549 2.80833 10.1255 2.125L12.0005 0.749998L13.8755 2.125ZM10.8505 3.175C10.1005 3.725 9.51716 4.35 9.10049 5.05C8.70049 5.73333 8.50049 6.41667 8.50049 7.1V16.75H15.5005V7.1C15.5005 6.65 15.4088 6.2 15.2255 5.75C15.0588 5.28333 14.8005 4.83333 14.4505 4.4C14.1005 3.96667 13.6672 3.55833 13.1505 3.175L12.0005 2.325L10.8505 3.175ZM7.17549 16.75V11.4L5.75049 12.6C5.45049 12.85 5.20882 13.1333 5.02549 13.45C4.85882 13.75 4.77549 14.075 4.77549 14.425V16.75H7.17549ZM19.2005 16.75V14.425C19.2005 14.075 19.1172 13.75 18.9505 13.45C18.7838 13.1333 18.5505 12.8583 18.2505 12.625L16.8255 11.4V16.75H19.2005ZM12.0005 16.85C12.7672 16.85 13.4255 17.1 13.9755 17.6C14.5255 18.0833 14.8005 18.6917 14.8005 19.425C14.8005 20.2083 14.5588 20.9667 14.0755 21.7C13.5922 22.4333 12.9005 23.1833 12.0005 23.95C11.1005 23.1833 10.4088 22.4333 9.92549 21.7C9.44216 20.9667 9.20049 20.2083 9.20049 19.425C9.20049 18.6917 9.47549 18.0833 10.0255 17.6C10.5755 17.1 11.2338 16.85 12.0005 16.85ZM12.0005 18C11.5672 18 11.2005 18.1417 10.9005 18.425C10.6172 18.7083 10.4755 19.0583 10.4755 19.475C10.4755 19.9917 10.6088 20.4833 10.8755 20.95C11.1588 21.4 11.6005 21.9083 12.2005 22.475H11.8005C12.4005 21.9083 12.8338 21.4 13.1005 20.95C13.3838 20.4833 13.5255 19.9917 13.5255 19.475C13.5255 19.0583 13.3755 18.7083 13.0755 18.425C12.7922 18.1417 12.4338 18 12.0005 18ZM12.0005 9.65C11.6838 9.65 11.4088 9.54167 11.1755 9.325C10.9588 9.09167 10.8505 8.81667 10.8505 8.5C10.8505 8.18333 10.9588 7.91667 11.1755 7.7C11.4088 7.46667 11.6838 7.35 12.0005 7.35C12.3172 7.35 12.5838 7.45833 12.8005 7.675C13.0338 7.89167 13.1505 8.16667 13.1505 8.5C13.1505 8.81667 13.0422 9.09167 12.8255 9.325C12.6088 9.54167 12.3338 9.65 12.0005 9.65ZM12.0005 8.5C12.0338 8.5 12.0588 8.5 12.0755 8.5C12.0922 8.5 12.1088 8.5 12.1255 8.5C12.1088 8.5 12.0922 8.5 12.0755 8.5C12.0588 8.5 12.0338 8.5 12.0005 8.5C11.9672 8.5 11.9422 8.5 11.9255 8.5C11.9088 8.5 11.8922 8.5 11.8755 8.5C11.8922 8.5 11.9088 8.5 11.9255 8.5C11.9422 8.5 11.9672 8.5 12.0005 8.5Z" fill="black"/>
</g>
<defs>
<clipPath id="clip0_3194_2841">
<rect width="24" height="24" fill="white"/>
</clipPath>
</defs>
</svg>
