<svg width="24" height="24" viewBox="0 0 24 24" fill="none" xmlns="http://www.w3.org/2000/svg">
<g clip-path="url(#clip0_3194_2716)">
<rect width="24" height="24" fill="white"/>
<path d="M20.5755 5.6C20.7088 6.66667 20.6922 7.6 20.5255 8.4C20.3588 9.2 20.0088 9.86667 19.4755 10.4L17.4255 12.45L17.7255 15.55C17.7755 16.2 17.7338 16.7917 17.6005 17.325C17.4672 17.8583 17.2088 18.3167 16.8255 18.7L14.1255 21.4L2.12549 9.4L4.82549 6.7C5.20882 6.31667 5.67549 6.05833 6.22549 5.925C6.77549 5.79167 7.38382 5.75833 8.05049 5.825L11.1005 6.125L13.1505 4.075C13.6838 3.54167 14.3422 3.19167 15.1255 3.025C15.9255 2.84167 16.8588 2.81667 17.9255 2.95L20.3255 3.2L20.5755 5.6ZM17.9255 3.45C16.9255 3.31667 16.0588 3.325 15.3255 3.475C14.5922 3.625 13.9838 3.94167 13.5005 4.425L5.65049 12.275L11.2755 17.9L19.1255 10.05C19.4588 9.71667 19.7088 9.33333 19.8755 8.9C20.0588 8.45 20.1588 7.95833 20.1755 7.425C20.2088 6.875 20.1838 6.275 20.1005 5.625L19.9005 3.625L17.9255 3.45ZM5.30049 11.925L10.6755 6.55L7.92549 6.3C7.34216 6.25 6.81716 6.28333 6.35049 6.4C5.88382 6.51667 5.49216 6.73333 5.17549 7.05L2.80049 9.425L5.30049 11.925ZM14.1005 20.725L16.4755 18.35C16.8088 18.0167 17.0338 17.625 17.1505 17.175C17.2672 16.725 17.3005 16.225 17.2505 15.675L17.0005 12.875L11.6255 18.25L14.1005 20.725ZM8.45049 15.075C8.95049 15.575 9.20882 16.1583 9.22549 16.825C9.24216 17.4917 9.01716 18.0583 8.55049 18.525C8.01716 19.0583 7.38382 19.4 6.65049 19.55C5.91716 19.7 5.00882 19.7167 3.92549 19.6C3.82549 18.5333 3.85049 17.6333 4.00049 16.9C4.15049 16.1667 4.49216 15.5333 5.02549 15C5.49216 14.5333 6.05882 14.3083 6.72549 14.325C7.39216 14.3417 7.96716 14.5917 8.45049 15.075ZM8.12549 15.4C7.72549 15 7.25882 14.7917 6.72549 14.775C6.19216 14.7583 5.73382 14.9417 5.35049 15.325C4.90049 15.775 4.61716 16.3167 4.50049 16.95C4.38382 17.5833 4.34216 18.3833 4.37549 19.35L4.20049 19.175C5.16716 19.2083 5.96716 19.1667 6.60049 19.05C7.23382 18.9333 7.77549 18.65 8.22549 18.2C8.60882 17.8167 8.78382 17.3583 8.75049 16.825C8.73382 16.275 8.52549 15.8 8.12549 15.4ZM13.4505 10.075C13.0505 9.675 12.8505 9.20833 12.8505 8.675C12.8505 8.14167 13.0505 7.675 13.4505 7.275C13.8338 6.89167 14.2922 6.7 14.8255 6.7C15.3588 6.7 15.8255 6.9 16.2255 7.3C16.6255 7.7 16.8255 8.175 16.8255 8.725C16.8422 9.25833 16.6588 9.71667 16.2755 10.1C15.8755 10.5 15.4005 10.7 14.8505 10.7C14.3172 10.6833 13.8505 10.475 13.4505 10.075ZM13.7505 9.775C14.0672 10.0917 14.4338 10.25 14.8505 10.25C15.2838 10.2333 15.6505 10.075 15.9505 9.775C16.2505 9.475 16.4005 9.11667 16.4005 8.7C16.4005 8.28333 16.2422 7.91667 15.9255 7.6C15.6422 7.31667 15.2838 7.175 14.8505 7.175C14.4338 7.15833 14.0755 7.3 13.7755 7.6C13.4755 7.9 13.3255 8.26667 13.3255 8.7C13.3255 9.13333 13.4672 9.49167 13.7505 9.775Z" fill="black"/>
</g>
<defs>
<clipPath id="clip0_3194_2716">
<rect width="24" height="24" fill="white"/>
</clipPath>
</defs>
</svg>
