<svg width="24" height="24" viewBox="0 0 24 24" fill="none" xmlns="http://www.w3.org/2000/svg">
<g clip-path="url(#clip0_3196_4401)">
<rect width="24" height="24" fill="white"/>
<path d="M3.5 18.5C2.8 18.5 2.20833 18.2583 1.725 17.775C1.24167 17.2917 1 16.7 1 16V5H17.725C18.3583 5 18.95 5.15833 19.5 5.475C20.05 5.775 20.475 6.2 20.775 6.75L23 10.675V18.5H20.2V15.525H20.85L20.675 11.3L18.775 7.925C18.6583 7.725 18.5 7.56667 18.3 7.45C18.1 7.33333 17.8917 7.275 17.675 7.275H3.325V14.825C3.325 15.025 3.35833 15.1833 3.425 15.3C3.49167 15.4167 3.60833 15.475 3.775 15.475H4.575V18.5H3.5ZM6.475 20.5C5.925 20.5 5.41667 20.3667 4.95 20.1C4.48333 19.8333 4.11667 19.4667 3.85 19C3.58333 18.5333 3.45 18.0333 3.45 17.5C3.45 16.95 3.58333 16.4417 3.85 15.975C4.11667 15.5083 4.48333 15.1417 4.95 14.875C5.41667 14.6083 5.925 14.475 6.475 14.475C7.00833 14.475 7.50833 14.6083 7.975 14.875C8.44167 15.1417 8.80833 15.5083 9.075 15.975C9.34167 16.4417 9.475 16.95 9.475 17.5C9.475 18.0333 9.34167 18.5333 9.075 19C8.80833 19.4667 8.44167 19.8333 7.975 20.1C7.50833 20.3667 7.00833 20.5 6.475 20.5ZM6.475 18.625C6.775 18.625 7.03333 18.5167 7.25 18.3C7.46667 18.0833 7.575 17.8167 7.575 17.5C7.575 17.1667 7.46667 16.8917 7.25 16.675C7.03333 16.4583 6.775 16.35 6.475 16.35C6.15833 16.35 5.89167 16.4583 5.675 16.675C5.45833 16.8917 5.35 17.1667 5.35 17.5C5.35 17.8167 5.45833 18.0833 5.675 18.3C5.89167 18.5167 6.15833 18.625 6.475 18.625ZM8.25 15.475H16.65V18.5H8.25V15.475ZM18.525 20.5C17.975 20.5 17.4667 20.3667 17 20.1C16.55 19.8333 16.1917 19.475 15.925 19.025C15.6583 18.5583 15.525 18.05 15.525 17.5C15.525 16.95 15.6583 16.4417 15.925 15.975C16.1917 15.5083 16.55 15.1417 17 14.875C17.4667 14.6083 17.975 14.475 18.525 14.475C19.075 14.475 19.5833 14.6083 20.05 14.875C20.5167 15.1417 20.8833 15.5083 21.15 15.975C21.4167 16.4417 21.55 16.95 21.55 17.5C21.55 18.05 21.4167 18.5583 21.15 19.025C20.8833 19.475 20.5167 19.8333 20.05 20.1C19.5833 20.3667 19.075 20.5 18.525 20.5ZM18.525 18.625C18.8417 18.625 19.1083 18.5167 19.325 18.3C19.5417 18.0833 19.65 17.8167 19.65 17.5C19.65 17.1667 19.5417 16.8917 19.325 16.675C19.1083 16.4583 18.8417 16.35 18.525 16.35C18.225 16.35 17.9667 16.4583 17.75 16.675C17.5333 16.8917 17.425 17.1667 17.425 17.5C17.425 17.8167 17.5333 18.0833 17.75 18.3C17.9667 18.5167 18.225 18.625 18.525 18.625ZM1.575 11.125H21.75L21.925 15.75H1.575V11.125ZM12.85 6.575L10.25 2H12.95L14.825 5.3L12.85 6.575Z" fill="black"/>
</g>
<defs>
<clipPath id="clip0_3196_4401">
<rect width="24" height="24" fill="white"/>
</clipPath>
</defs>
</svg>
