<svg width="24" height="24" viewBox="0 0 24 24" fill="none" xmlns="http://www.w3.org/2000/svg">
<g clip-path="url(#clip0_3194_3629)">
<rect width="24" height="24" fill="white"/>
<path d="M4.85049 20.5C4.21716 20.5 3.62549 20.3417 3.07549 20.025C2.54216 19.7083 2.11716 19.2833 1.80049 18.75C1.48382 18.2 1.32549 17.6083 1.32549 16.975C1.32549 16.3417 1.48382 15.7583 1.80049 15.225C2.11716 14.675 2.54216 14.2417 3.07549 13.925C3.62549 13.6083 4.21716 13.45 4.85049 13.45C5.48382 13.45 6.06716 13.6083 6.60049 13.925C7.15049 14.2417 7.58382 14.675 7.90049 15.225C8.21716 15.7583 8.37549 16.3417 8.37549 16.975C8.37549 17.6083 8.21716 18.2 7.90049 18.75C7.58382 19.2833 7.15049 19.7083 6.60049 20.025C6.06716 20.3417 5.48382 20.5 4.85049 20.5ZM4.85049 17.925C5.11716 17.925 5.34216 17.8333 5.52549 17.65C5.70882 17.4667 5.80049 17.2417 5.80049 16.975C5.80049 16.7083 5.70882 16.4833 5.52549 16.3C5.34216 16.1167 5.11716 16.025 4.85049 16.025C4.58382 16.025 4.35882 16.1167 4.17549 16.3C3.99216 16.4833 3.90049 16.7083 3.90049 16.975C3.90049 17.2417 3.99216 17.4667 4.17549 17.65C4.35882 17.8333 4.58382 17.925 4.85049 17.925ZM17.9755 20.5C17.3255 20.5 16.7255 20.35 16.1755 20.05C15.6422 19.7333 15.2172 19.3083 14.9005 18.775C14.6005 18.225 14.4505 17.625 14.4505 16.975C14.4505 16.325 14.6005 15.7333 14.9005 15.2C15.2172 14.65 15.6422 14.225 16.1755 13.925C16.7255 13.6083 17.3255 13.45 17.9755 13.45C18.6255 13.45 19.2172 13.6083 19.7505 13.925C20.3005 14.225 20.7255 14.65 21.0255 15.2C21.3422 15.7333 21.5005 16.325 21.5005 16.975C21.5005 17.625 21.3422 18.225 21.0255 18.775C20.7255 19.3083 20.3005 19.7333 19.7505 20.05C19.2172 20.35 18.6255 20.5 17.9755 20.5ZM17.9755 17.925C18.2422 17.925 18.4672 17.8333 18.6505 17.65C18.8338 17.4667 18.9255 17.2417 18.9255 16.975C18.9255 16.7083 18.8338 16.4833 18.6505 16.3C18.4672 16.1167 18.2422 16.025 17.9755 16.025C17.7088 16.025 17.4838 16.1167 17.3005 16.3C17.1172 16.4833 17.0255 16.7083 17.0255 16.975C17.0255 17.2417 17.1172 17.4667 17.3005 17.65C17.4838 17.8333 17.7088 17.925 17.9755 17.925ZM18.0255 4C18.6588 4 19.2588 4.15833 19.8255 4.475C20.3922 4.79167 20.8338 5.225 21.1505 5.775L23.0005 9V18.5H19.5255V15.425H19.7505V9.775L18.4005 7.425C18.3672 7.35833 18.3172 7.30833 18.2505 7.275C18.2005 7.225 18.1338 7.2 18.0505 7.2H14.8505V15.425H16.3505L16.6005 18.5H6.72549V15.3H11.6005V4H18.0255ZM3.22549 15.3V18.5H0.000488281V15.3H3.22549ZM22.2005 11.6H13.0755V8.5H22.2005V11.6Z" fill="black"/>
</g>
<defs>
<clipPath id="clip0_3194_3629">
<rect width="24" height="24" fill="white"/>
</clipPath>
</defs>
</svg>
