<svg width="24" height="24" viewBox="0 0 24 24" fill="none" xmlns="http://www.w3.org/2000/svg">
<g clip-path="url(#clip0_3196_4489)">
<rect width="24" height="24" fill="white"/>
<path d="M2.50049 10.7C2.50049 8.93333 2.88382 7.41667 3.65049 6.15C4.41716 4.88333 5.51716 3.91667 6.95049 3.25C8.38382 2.58333 10.0672 2.25 12.0005 2.25C13.9338 2.25 15.6172 2.58333 17.0505 3.25C18.4838 3.91667 19.5838 4.88333 20.3505 6.15C21.1172 7.41667 21.5005 8.93333 21.5005 10.7V21H19.7505V10.7C19.7505 9.28333 19.4338 8.075 18.8005 7.075C18.1838 6.05833 17.2922 5.28333 16.1255 4.75C14.9588 4.21667 13.5838 3.95 12.0005 3.95C10.4172 3.95 9.04216 4.21667 7.87549 4.75C6.70882 5.28333 5.80882 6.05833 5.17549 7.075C4.55882 8.075 4.25049 9.28333 4.25049 10.7V21H2.50049V10.7ZM9.40049 18.525L10.0255 19.5H8.75049C7.98382 19.5 7.33382 19.2333 6.80049 18.7C6.26716 18.1667 6.00049 17.5167 6.00049 16.75V12.8C6.00049 11.8667 6.00882 11.1667 6.02549 10.7C6.05882 10.2333 6.13382 9.725 6.25049 9.175C6.40049 8.40833 6.75049 7.775 7.30049 7.275C7.86716 6.75833 8.55882 6.5 9.37549 6.5H14.6255C15.4422 6.5 16.1255 6.75833 16.6755 7.275C17.2422 7.775 17.6005 8.40833 17.7505 9.175C17.8672 9.725 17.9338 10.2333 17.9505 10.7C17.9838 11.1667 18.0005 11.8667 18.0005 12.8V16.75C18.0005 17.5167 17.7338 18.1667 17.2005 18.7C16.6838 19.2333 16.0338 19.5 15.2505 19.5H13.9755L14.6005 18.525L16.0755 21H14.0255L12.6255 18.525L13.5755 19.5H10.4255L11.3755 18.525L9.97549 21H7.92549L9.40049 18.525ZM15.2505 17.8C15.5172 17.8 15.7505 17.7 15.9505 17.5C16.1505 17.2833 16.2505 17.0333 16.2505 16.75V12.8C16.2505 12 16.2338 11.3583 16.2005 10.875C16.1672 10.375 16.1088 9.90833 16.0255 9.475C15.9588 9.15833 15.8088 8.86667 15.5755 8.6C15.3422 8.33333 15.0255 8.2 14.6255 8.2H9.37549C8.97549 8.2 8.65882 8.33333 8.42549 8.6C8.19216 8.86667 8.04216 9.15833 7.97549 9.475C7.89216 9.90833 7.83382 10.375 7.80049 10.875C7.76716 11.3583 7.75049 12 7.75049 12.8V16.75C7.75049 17.0333 7.85049 17.2833 8.05049 17.5C8.25049 17.7 8.48382 17.8 8.75049 17.8H15.2505ZM6.82549 11H16.9755V12.7H6.82549V11ZM10.0505 16.25C9.70049 16.25 9.40049 16.1333 9.15049 15.9C8.91716 15.65 8.80049 15.35 8.80049 15C8.80049 14.65 8.91716 14.3583 9.15049 14.125C9.40049 13.875 9.70049 13.75 10.0505 13.75C10.4005 13.75 10.6922 13.875 10.9255 14.125C11.1755 14.3583 11.3005 14.65 11.3005 15C11.3005 15.35 11.1755 15.65 10.9255 15.9C10.6922 16.1333 10.4005 16.25 10.0505 16.25ZM10.1255 14.75C10.2088 14.75 10.2672 14.75 10.3005 14.75C10.3338 14.75 10.3922 14.75 10.4755 14.75C10.3922 14.75 10.3338 14.75 10.3005 14.75C10.2672 14.75 10.2088 14.75 10.1255 14.75C10.0422 14.75 9.98382 14.75 9.95049 14.75C9.91716 14.75 9.85882 14.75 9.77549 14.75C9.85882 14.75 9.91716 14.75 9.95049 14.75C9.98382 14.75 10.0422 14.75 10.1255 14.75ZM13.9505 16.25C13.6005 16.25 13.3005 16.1333 13.0505 15.9C12.8172 15.65 12.7005 15.35 12.7005 15C12.7005 14.65 12.8172 14.3583 13.0505 14.125C13.3005 13.875 13.6005 13.75 13.9505 13.75C14.3005 13.75 14.5922 13.875 14.8255 14.125C15.0755 14.3583 15.2005 14.65 15.2005 15C15.2005 15.35 15.0755 15.65 14.8255 15.9C14.5922 16.1333 14.3005 16.25 13.9505 16.25ZM13.8755 14.75C13.9588 14.75 14.0172 14.75 14.0505 14.75C14.0838 14.75 14.1422 14.75 14.2255 14.75C14.1422 14.75 14.0838 14.75 14.0505 14.75C14.0172 14.75 13.9588 14.75 13.8755 14.75C13.7922 14.75 13.7338 14.75 13.7005 14.75C13.6672 14.75 13.6088 14.75 13.5255 14.75C13.6088 14.75 13.6672 14.75 13.7005 14.75C13.7338 14.75 13.7922 14.75 13.8755 14.75Z" fill="black"/>
</g>
<defs>
<clipPath id="clip0_3196_4489">
<rect width="24" height="24" fill="white"/>
</clipPath>
</defs>
</svg>
