<svg width="24" height="24" viewBox="0 0 24 24" fill="none" xmlns="http://www.w3.org/2000/svg">
<g clip-path="url(#clip0_3186_32918)">
<rect width="24" height="24" fill="white"/>
<path d="M10.4255 6.925C10.3588 5.825 10.4755 4.69167 10.7755 3.525C11.0755 2.35833 11.5755 1.29167 12.2755 0.324999L14.9755 1.9C14.3755 2.6 13.9255 3.35833 13.6255 4.175C13.3422 4.975 13.1588 5.84167 13.0755 6.775L10.4255 6.925ZM9.15049 21.325C8.10049 21.325 7.14216 21.0417 6.27549 20.475C5.42549 19.9083 4.70049 19.175 4.10049 18.275C3.51716 17.3583 3.03382 16.3333 2.65049 15.2C3.30049 14.8667 3.78382 14.4333 4.10049 13.9C4.41716 13.3667 4.57549 12.8 4.57549 12.2C4.57549 11.5333 4.37549 10.9083 3.97549 10.325C3.57549 9.74167 3.01716 9.33333 2.30049 9.1C2.66716 7.61667 3.38382 6.45 4.45049 5.6C5.51716 4.75 6.80882 4.325 8.32549 4.325C9.05882 4.325 9.72549 4.425 10.3255 4.625C10.9422 4.80833 11.5005 5.11667 12.0005 5.55C12.5172 5.11667 13.0755 4.80833 13.6755 4.625C14.2922 4.425 14.9588 4.325 15.6755 4.325C17.2088 4.325 18.5088 4.75 19.5755 5.6C20.6422 6.45 21.3505 7.61667 21.7005 9.1C21.0005 9.33333 20.4505 9.74167 20.0505 10.325C19.6505 10.9083 19.4505 11.5333 19.4505 12.2C19.4505 12.8 19.6088 13.3667 19.9255 13.9C20.2422 14.4333 20.7255 14.8667 21.3755 15.2C20.9922 16.3333 20.5005 17.3583 19.9005 18.275C19.3172 19.175 18.5922 19.9083 17.7255 20.475C16.8755 21.0417 15.9255 21.325 14.8755 21.325C14.6088 21.325 14.3338 21.3 14.0505 21.25C13.7672 21.2 13.5005 21.1417 13.2505 21.075C13.0338 21.0083 12.8172 20.9583 12.6005 20.925C12.4005 20.875 12.2005 20.85 12.0005 20.85C11.8172 20.85 11.6172 20.875 11.4005 20.925C11.1838 20.9583 10.9672 21.0083 10.7505 21.075C10.5005 21.1417 10.2338 21.2 9.95049 21.25C9.66716 21.3 9.40049 21.325 9.15049 21.325ZM9.20049 18.4C9.36716 18.4 9.54216 18.3833 9.72549 18.35C9.90882 18.3 10.0838 18.25 10.2505 18.2C10.5005 18.1333 10.7838 18.075 11.1005 18.025C11.4172 17.9583 11.7172 17.925 12.0005 17.925C12.3005 17.925 12.6005 17.9583 12.9005 18.025C13.2172 18.075 13.5005 18.1333 13.7505 18.2C13.9338 18.25 14.1172 18.3 14.3005 18.35C14.4838 18.3833 14.6588 18.4 14.8255 18.4C15.3588 18.4 15.8838 18.1833 16.4005 17.75C16.9338 17.3167 17.4088 16.725 17.8255 15.975C17.3922 15.4417 17.0588 14.8583 16.8255 14.225C16.5922 13.575 16.4755 12.9 16.4755 12.2C16.4755 11.45 16.6088 10.7333 16.8755 10.05C17.1422 9.35 17.5172 8.725 18.0005 8.175C17.6838 7.89167 17.2922 7.65833 16.8255 7.475C16.3755 7.29167 15.9088 7.2 15.4255 7.2C14.7922 7.2 14.2088 7.275 13.6755 7.425C13.1422 7.55833 12.5838 7.825 12.0005 8.225C11.4338 7.825 10.8755 7.55833 10.3255 7.425C9.79216 7.275 9.20882 7.2 8.57549 7.2C8.10882 7.2 7.64216 7.29167 7.17549 7.475C6.70882 7.65833 6.31716 7.89167 6.00049 8.175C6.48382 8.725 6.85882 9.35 7.12549 10.05C7.40882 10.7333 7.55049 11.45 7.55049 12.2C7.55049 12.9 7.42549 13.575 7.17549 14.225C6.94215 14.8583 6.60882 15.4417 6.17549 15.975C6.60882 16.725 7.08382 17.3167 7.60049 17.75C8.13382 18.1833 8.66716 18.4 9.20049 18.4Z" fill="black"/>
</g>
<defs>
<clipPath id="clip0_3186_32918">
<rect width="24" height="24" fill="white"/>
</clipPath>
</defs>
</svg>
