<svg width="24" height="24" viewBox="0 0 24 24" fill="none" xmlns="http://www.w3.org/2000/svg">
<g clip-path="url(#clip0_3186_32916)">
<rect width="24" height="24" fill="white"/>
<path d="M10.7255 6.775C10.6922 5.69167 10.8172 4.625 11.1005 3.575C11.4005 2.50833 11.8755 1.475 12.5255 0.474999L14.7755 1.85C14.1755 2.58333 13.7338 3.34167 13.4505 4.125C13.1838 4.89167 13.0005 5.75 12.9005 6.7L10.7255 6.775ZM9.10049 21.425C8.06716 21.425 7.14216 21.1667 6.32549 20.65C5.52549 20.1167 4.85049 19.4417 4.30049 18.625C3.76716 17.8083 3.27549 16.8583 2.82549 15.775C3.65882 15.3417 4.24216 14.8167 4.57549 14.2C4.92549 13.5833 5.10049 12.95 5.10049 12.3C5.10049 11.55 4.87549 10.8333 4.42549 10.15C3.99216 9.45 3.34216 8.96667 2.47549 8.7C2.87549 7.36667 3.60049 6.325 4.65049 5.575C5.70049 4.80833 6.95049 4.425 8.40049 4.425C9.06716 4.425 9.70049 4.51667 10.3005 4.7C10.9172 4.88333 11.4922 5.15833 12.0255 5.525C12.5422 5.15833 13.1088 4.88333 13.7255 4.7C14.3422 4.51667 14.9838 4.425 15.6505 4.425C17.0838 4.425 18.3172 4.80833 19.3505 5.575C20.4005 6.325 21.1338 7.36667 21.5505 8.7C20.6838 8.96667 20.0255 9.45 19.5755 10.15C19.1422 10.85 18.9255 11.5667 18.9255 12.3C18.9255 12.9333 19.0922 13.5667 19.4255 14.2C19.7588 14.8167 20.3505 15.3417 21.2005 15.775C20.7505 16.8583 20.2505 17.8083 19.7005 18.625C19.1672 19.4417 18.4922 20.1167 17.6755 20.65C16.8755 21.1667 15.9588 21.425 14.9255 21.425C14.6588 21.425 14.3838 21.3917 14.1005 21.325C13.8172 21.275 13.5505 21.2167 13.3005 21.15C13.0838 21.0833 12.8588 21.0333 12.6255 21C12.4088 20.95 12.2088 20.925 12.0255 20.925C11.8255 20.925 11.6172 20.95 11.4005 21C11.1838 21.0333 10.9672 21.0833 10.7505 21.15C10.5005 21.2167 10.2338 21.275 9.95049 21.325C9.66716 21.3917 9.38382 21.425 9.10049 21.425ZM9.22549 18.975C9.40882 18.975 9.60049 18.9583 9.80049 18.925C10.0172 18.875 10.2172 18.8167 10.4005 18.75C10.6338 18.6833 10.8922 18.625 11.1755 18.575C11.4588 18.5083 11.7422 18.475 12.0255 18.475C12.2922 18.475 12.5672 18.5083 12.8505 18.575C13.1338 18.625 13.3922 18.6833 13.6255 18.75C13.8088 18.8167 14.0005 18.875 14.2005 18.925C14.4172 18.9583 14.6172 18.975 14.8005 18.975C15.4172 18.975 16.0088 18.75 16.5755 18.3C17.1588 17.85 17.6838 17.2417 18.1505 16.475C17.6172 15.9083 17.2005 15.2667 16.9005 14.55C16.6172 13.8333 16.4755 13.0833 16.4755 12.3C16.4755 11.4667 16.6338 10.675 16.9505 9.925C17.2838 9.15833 17.7422 8.48333 18.3255 7.9C17.9755 7.56667 17.5588 7.30833 17.0755 7.125C16.5922 6.925 16.0672 6.825 15.5005 6.825C14.9172 6.825 14.3588 6.89167 13.8255 7.025C13.2922 7.15833 12.6922 7.43333 12.0255 7.85C11.3422 7.43333 10.7338 7.15833 10.2005 7.025C9.66716 6.89167 9.10882 6.825 8.52549 6.825C7.97549 6.825 7.45882 6.925 6.97549 7.125C6.49216 7.30833 6.06716 7.56667 5.70049 7.9C6.28382 8.48333 6.74216 9.15833 7.07549 9.925C7.40882 10.675 7.57549 11.4667 7.57549 12.3C7.57549 13.0833 7.42549 13.8333 7.12549 14.55C6.82549 15.2667 6.40882 15.9083 5.87549 16.475C6.34216 17.2417 6.85882 17.85 7.42549 18.3C8.00882 18.75 8.60882 18.975 9.22549 18.975Z" fill="black"/>
</g>
<defs>
<clipPath id="clip0_3186_32916">
<rect width="24" height="24" fill="white"/>
</clipPath>
</defs>
</svg>
