<svg width="24" height="24" viewBox="0 0 24 24" fill="none" xmlns="http://www.w3.org/2000/svg">
<g clip-path="url(#clip0_3186_32920)">
<rect width="24" height="24" fill="white"/>
<path d="M10.0505 7.125C9.95049 6.00833 10.0505 4.8 10.3505 3.5C10.6672 2.2 11.2088 1.075 11.9755 0.124999L15.2005 1.975C14.6005 2.625 14.1422 3.375 13.8255 4.225C13.5255 5.075 13.3255 5.95833 13.2255 6.875L10.0505 7.125ZM9.17549 21.25C8.10882 21.25 7.11716 20.95 6.20049 20.35C5.30049 19.7333 4.52549 18.9167 3.87549 17.9C3.24216 16.8833 2.75882 15.7667 2.42549 14.55C2.87549 14.3333 3.24216 14.0083 3.52549 13.575C3.82549 13.125 3.97549 12.6417 3.97549 12.125C3.97549 11.5417 3.80049 11.0167 3.45049 10.55C3.10049 10.0833 2.65049 9.75833 2.10049 9.575C2.40049 7.94167 3.09216 6.65 4.17549 5.7C5.27549 4.73333 6.64216 4.25 8.27549 4.25C9.07549 4.25 9.77549 4.35 10.3755 4.55C10.9755 4.75 11.5172 5.1 12.0005 5.6C12.4838 5.1 13.0255 4.75 13.6255 4.55C14.2422 4.35 14.9422 4.25 15.7255 4.25C17.3255 4.25 18.6672 4.725 19.7505 5.675C20.8505 6.60833 21.5588 7.90833 21.8755 9.575C21.3255 9.75833 20.8755 10.0917 20.5255 10.575C20.1922 11.0417 20.0255 11.5583 20.0255 12.125C20.0255 12.625 20.1588 13.1 20.4255 13.55C20.7088 14 21.0838 14.3333 21.5505 14.55C21.2172 15.7667 20.7255 16.8833 20.0755 17.9C19.4422 18.9167 18.6672 19.7333 17.7505 20.35C16.8505 20.95 15.8755 21.25 14.8255 21.25C14.5755 21.25 14.3088 21.225 14.0255 21.175C13.7422 21.125 13.4755 21.0667 13.2255 21C13.0088 20.9333 12.7922 20.8833 12.5755 20.85C12.3755 20.8 12.1838 20.775 12.0005 20.775C11.8172 20.775 11.6172 20.8 11.4005 20.85C11.2005 20.8833 10.9922 20.9333 10.7755 21C10.5255 21.0667 10.2588 21.125 9.97549 21.175C9.69216 21.225 9.42549 21.25 9.17549 21.25ZM9.17549 17.725C9.29216 17.725 9.42549 17.7083 9.57549 17.675C9.74216 17.6417 9.90882 17.6 10.0755 17.55C10.3422 17.4833 10.6422 17.4167 10.9755 17.35C11.3255 17.2833 11.6672 17.25 12.0005 17.25C12.3172 17.25 12.6422 17.2833 12.9755 17.35C13.3255 17.4167 13.6338 17.4833 13.9005 17.55C14.0672 17.6 14.2255 17.6417 14.3755 17.675C14.5422 17.7083 14.6922 17.725 14.8255 17.725C15.2422 17.725 15.6838 17.525 16.1505 17.125C16.6172 16.7083 17.0422 16.1417 17.4255 15.425C17.1088 14.8917 16.8672 14.35 16.7005 13.8C16.5338 13.25 16.4505 12.6917 16.4505 12.125C16.4505 11.4917 16.5422 10.8667 16.7255 10.25C16.9255 9.61667 17.2172 9.025 17.6005 8.475C17.3172 8.24167 16.9672 8.05 16.5505 7.9C16.1338 7.73333 15.7255 7.65 15.3255 7.65C14.6088 7.65 13.9922 7.725 13.4755 7.875C12.9588 8.025 12.4672 8.28333 12.0005 8.65C11.5172 8.28333 11.0088 8.025 10.4755 7.875C9.94216 7.725 9.33382 7.65 8.65049 7.65C8.28382 7.65 7.88382 7.73333 7.45049 7.9C7.03382 8.05 6.67549 8.24167 6.37549 8.475C6.75882 9.025 7.05049 9.61667 7.25049 10.25C7.45049 10.8667 7.55049 11.4917 7.55049 12.125C7.55049 12.7083 7.46716 13.275 7.30049 13.825C7.13382 14.375 6.88382 14.9083 6.55049 15.425C6.91716 16.1417 7.33382 16.7083 7.80049 17.125C8.28382 17.525 8.74216 17.725 9.17549 17.725Z" fill="black"/>
</g>
<defs>
<clipPath id="clip0_3186_32920">
<rect width="24" height="24" fill="white"/>
</clipPath>
</defs>
</svg>
