<svg width="24" height="24" viewBox="0 0 24 24" fill="none" xmlns="http://www.w3.org/2000/svg">
<g clip-path="url(#clip0_3186_32818)">
<rect width="24" height="24" fill="white"/>
<path d="M11.775 5.875C11.775 4.80833 11.9167 3.85833 12.2 3.025C12.4833 2.175 12.8833 1.39167 13.4 0.674999L13.85 0.974999C13.3333 1.64167 12.9417 2.36667 12.675 3.15C12.4083 3.93333 12.2667 4.83333 12.25 5.85L11.775 5.875ZM9.05 21.5C7.73333 21.5 6.53333 20.9917 5.45 19.975C4.38333 18.9583 3.54167 17.6833 2.925 16.15C2.325 14.6 2.025 13.0833 2.025 11.6C2.025 10.2 2.26667 8.96667 2.75 7.9C3.25 6.81667 3.94167 5.98333 4.825 5.4C5.725 4.8 6.76667 4.5 7.95 4.5C8.71667 4.5 9.45833 4.60833 10.175 4.825C10.8917 5.025 11.4917 5.325 11.975 5.725C12.475 5.325 13.0917 5.025 13.825 4.825C14.5583 4.60833 15.3167 4.5 16.1 4.5C17.2667 4.5 18.3 4.8 19.2 5.4C20.1 5.98333 20.7917 6.81667 21.275 7.9C21.775 8.96667 22.025 10.2 22.025 11.6C22.025 13.0833 21.7167 14.6 21.1 16.15C20.5 17.6833 19.6583 18.9583 18.575 19.975C17.4917 20.9917 16.2917 21.5 14.975 21.5C14.6917 21.5 14.425 21.4667 14.175 21.4C13.9417 21.3333 13.6583 21.2333 13.325 21.1C12.7583 20.8667 12.325 20.75 12.025 20.75C11.825 20.75 11.6083 20.7917 11.375 20.875C11.1583 20.9417 10.9417 21.0167 10.725 21.1C10.4083 21.2333 10.1167 21.3333 9.85 21.4C9.6 21.4667 9.33333 21.5 9.05 21.5Z" fill="black"/>
</g>
<defs>
<clipPath id="clip0_3186_32818">
<rect width="24" height="24" fill="white"/>
</clipPath>
</defs>
</svg>
