<svg width="24" height="24" viewBox="0 0 24 24" fill="none" xmlns="http://www.w3.org/2000/svg">
<g clip-path="url(#clip0_3186_32374)">
<rect width="24" height="24" fill="white"/>
<path d="M9.17549 21.5C7.79216 21.5 6.55049 21 5.45049 20C4.35049 18.9833 3.50049 17.7083 2.90049 16.175C2.30049 14.625 2.00049 13.1083 2.00049 11.625C2.00049 10.225 2.26716 8.98333 2.80049 7.9C3.35049 6.81667 4.10882 5.98333 5.07549 5.4C6.05882 4.8 7.17549 4.5 8.42549 4.5C9.05882 4.5 9.68382 4.575 10.3005 4.725C10.9338 4.875 11.5005 5.09167 12.0005 5.375C12.5005 5.09167 13.0588 4.875 13.6755 4.725C14.3088 4.575 14.9422 4.5 15.5755 4.5C16.8255 4.5 17.9338 4.8 18.9005 5.4C19.8838 5.98333 20.6422 6.81667 21.1755 7.9C21.7255 8.98333 22.0005 10.225 22.0005 11.625C22.0005 13.1083 21.7005 14.625 21.1005 16.175C20.5005 17.7083 19.6505 18.9833 18.5505 20C17.4505 21 16.2005 21.5 14.8005 21.5C14.6005 21.5 14.3672 21.4667 14.1005 21.4C13.8338 21.3333 13.5672 21.2583 13.3005 21.175C13.0505 21.0917 12.8088 21.025 12.5755 20.975C12.3422 20.9083 12.1505 20.875 12.0005 20.875C11.8005 20.875 11.3672 20.975 10.7005 21.175C10.4338 21.2583 10.1588 21.3333 9.87549 21.4C9.59216 21.4667 9.35882 21.5 9.17549 21.5ZM9.17549 21.025C9.40882 21.025 9.65882 20.9917 9.92549 20.925C10.1922 20.8583 10.4422 20.7833 10.6755 20.7C10.8922 20.6167 11.1172 20.55 11.3505 20.5C11.5838 20.4333 11.8005 20.4 12.0005 20.4C12.1838 20.4 12.3922 20.4333 12.6255 20.5C12.8588 20.55 13.0838 20.6167 13.3005 20.7C13.5338 20.7833 13.7838 20.8583 14.0505 20.925C14.3172 20.9917 14.5672 21.025 14.8005 21.025C15.8672 21.025 16.9172 20.6167 17.9505 19.8C19.0005 18.9833 19.8505 17.8583 20.5005 16.425C21.1672 14.975 21.5005 13.375 21.5005 11.625C21.5005 10.325 21.2588 9.175 20.7755 8.175C20.2922 7.175 19.6005 6.39167 18.7005 5.825C17.8005 5.25833 16.7588 4.975 15.5755 4.975C14.9755 4.975 14.3672 5.05833 13.7505 5.225C13.1505 5.375 12.5672 5.60833 12.0005 5.925C11.4338 5.60833 10.8422 5.375 10.2255 5.225C9.60882 5.05833 9.00882 4.975 8.42549 4.975C7.24216 4.975 6.20049 5.25833 5.30049 5.825C4.40049 6.39167 3.70882 7.175 3.22549 8.175C2.74216 9.175 2.50049 10.325 2.50049 11.625C2.50049 13.375 2.82549 14.975 3.47549 16.425C4.14216 17.8583 4.99216 18.9833 6.02549 19.8C7.05882 20.6167 8.10882 21.025 9.17549 21.025ZM11.7755 5.5C11.8088 4.53333 11.9672 3.65833 12.2505 2.875C12.5338 2.075 12.9172 1.34167 13.4005 0.674999L13.8505 0.974999C13.3672 1.59167 12.9922 2.26667 12.7255 3C12.4588 3.73333 12.3005 4.56667 12.2505 5.5H11.7755Z" fill="black"/>
</g>
<defs>
<clipPath id="clip0_3186_32374">
<rect width="24" height="24" fill="white"/>
</clipPath>
</defs>
</svg>
