<svg width="24" height="24" viewBox="0 0 24 24" fill="none" xmlns="http://www.w3.org/2000/svg">
<g clip-path="url(#clip0_3186_32912)">
<rect width="24" height="24" fill="white"/>
<path d="M11.3005 6.225C11.3005 5.19167 11.4422 4.23333 11.7255 3.35C12.0088 2.45 12.4338 1.55 13.0005 0.65L14.3255 1.5C13.7755 2.23333 13.3672 2.96667 13.1005 3.7C12.8338 4.43333 12.6588 5.275 12.5755 6.225H11.3005ZM9.12549 21.425C8.14216 21.425 7.26716 21.1917 6.50049 20.725C5.73382 20.2417 5.08382 19.65 4.55049 18.95C4.03382 18.2333 3.55049 17.4 3.10049 16.45C4.08382 15.9667 4.78382 15.3583 5.20049 14.625C5.63382 13.8917 5.85049 13.1167 5.85049 12.3C5.85049 11.4167 5.60049 10.575 5.10049 9.775C4.60049 8.975 3.81716 8.39167 2.75049 8.025C3.23382 6.89167 3.97549 6.00833 4.97549 5.375C5.97549 4.74167 7.13382 4.425 8.45049 4.425C9.06716 4.425 9.68382 4.50833 10.3005 4.675C10.9172 4.84167 11.4922 5.06667 12.0255 5.35C12.5588 5.06667 13.1338 4.84167 13.7505 4.675C14.3672 4.50833 14.9838 4.425 15.6005 4.425C16.9172 4.425 18.0755 4.74167 19.0755 5.375C20.0755 6.00833 20.8172 6.89167 21.3005 8.025C20.2338 8.39167 19.4505 8.975 18.9505 9.775C18.4505 10.575 18.2005 11.4167 18.2005 12.3C18.2005 13.1167 18.4088 13.8917 18.8255 14.625C19.2588 15.3583 19.9672 15.9667 20.9505 16.45C20.4672 17.4167 19.9672 18.25 19.4505 18.95C18.9505 19.65 18.3172 20.2417 17.5505 20.725C16.8005 21.1917 15.9255 21.425 14.9255 21.425C14.6755 21.425 14.4088 21.3917 14.1255 21.325C13.8422 21.2583 13.5755 21.1917 13.3255 21.125C13.0922 21.0583 12.8588 21 12.6255 20.95C12.4088 20.9 12.2088 20.875 12.0255 20.875C11.8422 20.875 11.6338 20.9 11.4005 20.95C11.1838 21 10.9588 21.0583 10.7255 21.125C10.4755 21.1917 10.2088 21.2583 9.92549 21.325C9.64216 21.3917 9.37549 21.425 9.12549 21.425ZM9.25049 20C9.46716 20 9.69216 19.975 9.92549 19.925C10.1755 19.8583 10.4088 19.7917 10.6255 19.725C10.8422 19.6417 11.0672 19.575 11.3005 19.525C11.5505 19.475 11.7922 19.45 12.0255 19.45C12.2588 19.45 12.4922 19.475 12.7255 19.525C12.9755 19.575 13.2088 19.6417 13.4255 19.725C13.6422 19.7917 13.8672 19.8583 14.1005 19.925C14.3505 19.975 14.5838 20 14.8005 20C15.6172 20 16.3922 19.7333 17.1255 19.2C17.8588 18.65 18.5005 17.9 19.0505 16.95C18.3505 16.4167 17.7922 15.7417 17.3755 14.925C16.9755 14.1083 16.7755 13.2333 16.7755 12.3C16.7755 11.3167 17.0005 10.4083 17.4505 9.575C17.9005 8.74167 18.5088 8.05833 19.2755 7.525C18.8422 6.99167 18.3088 6.58333 17.6755 6.3C17.0588 6 16.3672 5.85 15.6005 5.85C15.0505 5.85 14.4922 5.925 13.9255 6.075C13.3588 6.20833 12.7255 6.46667 12.0255 6.85C11.3255 6.46667 10.6922 6.20833 10.1255 6.075C9.55882 5.925 9.00049 5.85 8.45049 5.85C7.68382 5.85 6.98382 6 6.35049 6.3C5.73382 6.58333 5.20882 6.99167 4.77549 7.525C5.54216 8.05833 6.15049 8.74167 6.60049 9.575C7.05049 10.4083 7.27549 11.3167 7.27549 12.3C7.27549 13.2333 7.06716 14.1083 6.65049 14.925C6.25049 15.7417 5.70049 16.4167 5.00049 16.95C5.55049 17.9 6.19216 18.65 6.92549 19.2C7.65882 19.7333 8.43382 20 9.25049 20Z" fill="black"/>
</g>
<defs>
<clipPath id="clip0_3186_32912">
<rect width="24" height="24" fill="white"/>
</clipPath>
</defs>
</svg>
