<svg width="24" height="24" viewBox="0 0 24 24" fill="none" xmlns="http://www.w3.org/2000/svg">
<g clip-path="url(#clip0_3186_32718)">
<rect width="24" height="24" fill="white"/>
<path d="M6.25 6.575H7.625V10.7H6.25V6.575ZM6.975 5.525C6.675 5.525 6.425 5.43333 6.225 5.25C6.025 5.05 5.925 4.8 5.925 4.5C5.925 4.2 6.01667 3.91667 6.2 3.65C6.38333 3.36667 6.64167 3.06667 6.975 2.75C7.29167 3.05 7.54167 3.34167 7.725 3.625C7.925 3.90833 8.025 4.2 8.025 4.5C8.025 4.8 7.91667 5.05 7.7 5.25C7.5 5.43333 7.25833 5.525 6.975 5.525ZM11.325 6.575H12.675V10.7H11.325V6.575ZM12 5.525C11.7167 5.525 11.4667 5.43333 11.25 5.25C11.05 5.05 10.95 4.8 10.95 4.5C10.95 4.2 11.0417 3.91667 11.225 3.65C11.425 3.36667 11.6833 3.06667 12 2.75C12.3333 3.05 12.5917 3.34167 12.775 3.625C12.9583 3.90833 13.05 4.2 13.05 4.5C13.05 4.8 12.95 5.05 12.75 5.25C12.55 5.43333 12.3 5.525 12 5.525ZM16.35 6.575H17.725V10.7H16.35V6.575ZM17.075 5.525C16.775 5.525 16.525 5.43333 16.325 5.25C16.125 5.05 16.025 4.8 16.025 4.5C16.025 4.2 16.1167 3.91667 16.3 3.65C16.4833 3.36667 16.7417 3.06667 17.075 2.75C17.3917 3.05 17.6417 3.34167 17.825 3.625C18.025 3.90833 18.125 4.2 18.125 4.5C18.125 4.8 18.0167 5.05 17.8 5.25C17.6 5.43333 17.3583 5.525 17.075 5.525ZM2 14C2.36667 14 2.69167 14.05 2.975 14.15C3.25833 14.25 3.6 14.4167 4 14.65C4.46667 14.9 4.9 15.1 5.3 15.25C5.71667 15.3833 6.225 15.45 6.825 15.45C7.425 15.45 7.925 15.3833 8.325 15.25C8.725 15.1167 9.175 14.925 9.675 14.675C10.1417 14.4417 10.5333 14.275 10.85 14.175C11.1667 14.0583 11.5417 14 11.975 14C12.425 14 12.8 14.05 13.1 14.15C13.4167 14.25 13.8 14.4167 14.25 14.65C14.7667 14.9167 15.225 15.1167 15.625 15.25C16.0417 15.3833 16.55 15.45 17.15 15.45C17.75 15.45 18.25 15.3833 18.65 15.25C19.0667 15.1 19.5167 14.9 20 14.65C20.3833 14.4167 20.7167 14.25 21 14.15C21.3 14.05 21.6333 14 22 14V20H2V14ZM6.825 14C6.375 14 5.99167 13.9417 5.675 13.825C5.35833 13.7083 4.975 13.5333 4.525 13.3C4.04167 13.0333 3.625 12.8417 3.275 12.725C2.925 12.6083 2.5 12.55 2 12.55V11.5C2 10.8 2.24167 10.2083 2.725 9.725C3.20833 9.24167 3.8 9 4.5 9H19.5C20.2 9 20.7917 9.24167 21.275 9.725C21.7583 10.2083 22 10.8 22 11.5V12.55C21.4833 12.55 21.0417 12.6083 20.675 12.725C20.325 12.8417 19.9167 13.0333 19.45 13.3C19.0167 13.5333 18.6333 13.7083 18.3 13.825C17.9833 13.9417 17.6 14 17.15 14C16.7 14 16.3083 13.9417 15.975 13.825C15.6583 13.7083 15.2583 13.5417 14.775 13.325C14.3083 13.075 13.8667 12.8833 13.45 12.75C13.05 12.6167 12.5583 12.55 11.975 12.55C11.3917 12.55 10.9 12.6167 10.5 12.75C10.1 12.8667 9.65833 13.05 9.175 13.3C8.74167 13.5333 8.35833 13.7083 8.025 13.825C7.69167 13.9417 7.29167 14 6.825 14Z" fill="black"/>
</g>
<defs>
<clipPath id="clip0_3186_32718">
<rect width="24" height="24" fill="white"/>
</clipPath>
</defs>
</svg>
