<svg width="24" height="24" viewBox="0 0 24 24" fill="none" xmlns="http://www.w3.org/2000/svg">
<g clip-path="url(#clip0_3186_32702)">
<rect width="24" height="24" fill="white"/>
<path d="M2.00049 11.675C2.00049 11.175 2.11716 10.725 2.35049 10.325C2.60049 9.925 2.92549 9.60833 3.32549 9.375C3.74216 9.125 4.20882 9 4.72549 9H19.3505C20.1005 9 20.7255 9.25833 21.2255 9.775C21.7422 10.2917 22.0005 10.925 22.0005 11.675V20H2.00049V11.675ZM21.0755 19.1V11.675C21.0755 11.175 20.9088 10.7583 20.5755 10.425C20.2422 10.075 19.8338 9.9 19.3505 9.9H4.72549C4.22549 9.9 3.80049 10.075 3.45049 10.425C3.10049 10.7583 2.92549 11.175 2.92549 11.675V19.1H21.0755ZM11.5255 6.175H12.4755V9.75H11.5255V6.175ZM12.0255 5.05C11.7922 5.05 11.6005 4.975 11.4505 4.825C11.3005 4.675 11.2255 4.48333 11.2255 4.25C11.2255 4 11.2922 3.75833 11.4255 3.525C11.5588 3.29167 11.7588 3.03333 12.0255 2.75C12.2755 3.01667 12.4672 3.26667 12.6005 3.5C12.7505 3.73333 12.8255 3.98333 12.8255 4.25C12.8255 4.48333 12.7422 4.675 12.5755 4.825C12.4255 4.975 12.2422 5.05 12.0255 5.05ZM16.5505 6.175H17.4755V9.75H16.5505V6.175ZM17.0255 5.05C16.8088 5.05 16.6172 4.975 16.4505 4.825C16.3005 4.675 16.2255 4.48333 16.2255 4.25C16.2255 4 16.2922 3.75833 16.4255 3.525C16.5755 3.29167 16.7755 3.03333 17.0255 2.75C17.2922 3.01667 17.4922 3.26667 17.6255 3.5C17.7588 3.73333 17.8255 3.98333 17.8255 4.25C17.8255 4.48333 17.7505 4.675 17.6005 4.825C17.4505 4.975 17.2588 5.05 17.0255 5.05ZM6.50049 6.175H7.42549V9.75H6.50049V6.175ZM6.97549 5.05C6.75882 5.05 6.56716 4.975 6.40049 4.825C6.25049 4.675 6.17549 4.48333 6.17549 4.25C6.17549 4 6.24216 3.75833 6.37549 3.525C6.52549 3.29167 6.72549 3.03333 6.97549 2.75C7.24216 3.01667 7.44216 3.26667 7.57549 3.5C7.70882 3.73333 7.77549 3.98333 7.77549 4.25C7.77549 4.48333 7.70049 4.675 7.55049 4.825C7.40049 4.975 7.20882 5.05 6.97549 5.05ZM16.8255 14.125C17.2922 14.125 17.6838 14.0667 18.0005 13.95C18.3172 13.8333 18.6755 13.6583 19.0755 13.425C19.4755 13.175 19.8338 12.9917 20.1505 12.875C20.4838 12.7417 20.9088 12.675 21.4255 12.675V13.55C21.0255 13.55 20.6838 13.6083 20.4005 13.725C20.1338 13.825 19.8088 13.9917 19.4255 14.225C19.0255 14.4917 18.6338 14.6917 18.2505 14.825C17.8672 14.9583 17.3922 15.025 16.8255 15.025C16.2422 15.025 15.7672 14.9583 15.4005 14.825C15.0505 14.6917 14.6588 14.5 14.2255 14.25C13.8588 14.0167 13.5088 13.8417 13.1755 13.725C12.8588 13.6083 12.4672 13.55 12.0005 13.55C11.5338 13.55 11.1422 13.6083 10.8255 13.725C10.5088 13.8417 10.1505 14.0167 9.75049 14.25C9.31716 14.5167 8.91716 14.7167 8.55049 14.85C8.20049 14.9667 7.74216 15.025 7.17549 15.025C6.60882 15.025 6.13382 14.9583 5.75049 14.825C5.36716 14.6917 4.97549 14.4917 4.57549 14.225C4.19216 13.9917 3.86716 13.825 3.60049 13.725C3.33382 13.6083 2.99216 13.55 2.57549 13.55V12.675C3.09216 12.675 3.50882 12.7417 3.82549 12.875C4.15882 12.9917 4.52549 13.175 4.92549 13.425C5.32549 13.6583 5.68382 13.8333 6.00049 13.95C6.31716 14.0667 6.70882 14.125 7.17549 14.125C7.64216 14.125 8.03382 14.0667 8.35049 13.95C8.68382 13.8333 9.04216 13.6667 9.42549 13.45C9.85882 13.2 10.2588 13.0083 10.6255 12.875C10.9922 12.7417 11.4505 12.675 12.0005 12.675C12.5838 12.675 13.0505 12.7417 13.4005 12.875C13.7672 13.0083 14.1588 13.2 14.5755 13.45C14.9588 13.6667 15.3088 13.8333 15.6255 13.95C15.9422 14.0667 16.3422 14.125 16.8255 14.125Z" fill="black"/>
</g>
<defs>
<clipPath id="clip0_3186_32702">
<rect width="24" height="24" fill="white"/>
</clipPath>
</defs>
</svg>
