<svg width="24" height="24" viewBox="0 0 24 24" fill="none" xmlns="http://www.w3.org/2000/svg">
<g clip-path="url(#clip0_3186_32714)">
<rect width="24" height="24" fill="white"/>
<path d="M6.725 5.75H7.225V11.15H6.725V5.75ZM7 4.55C6.85 4.55 6.71667 4.5 6.6 4.4C6.5 4.3 6.45 4.16667 6.45 4C6.45 3.8 6.49167 3.60833 6.575 3.425C6.675 3.24167 6.81667 3.01667 7 2.75C7.18333 2.98333 7.31667 3.2 7.4 3.4C7.5 3.58333 7.55 3.78333 7.55 4C7.55 4.16667 7.49167 4.3 7.375 4.4C7.275 4.5 7.15 4.55 7 4.55ZM11.75 5.75H12.25V11.15H11.75V5.75ZM12.025 4.55C11.875 4.55 11.7417 4.5 11.625 4.4C11.525 4.3 11.475 4.16667 11.475 4C11.475 3.8 11.5167 3.60833 11.6 3.425C11.7 3.24167 11.8417 3.01667 12.025 2.75C12.2083 2.98333 12.3417 3.2 12.425 3.4C12.525 3.58333 12.575 3.78333 12.575 4C12.575 4.16667 12.5167 4.3 12.4 4.4C12.3 4.5 12.175 4.55 12.025 4.55ZM16.725 5.75H17.225V11.15H16.725V5.75ZM17 4.55C16.85 4.55 16.7167 4.5 16.6 4.4C16.5 4.3 16.45 4.16667 16.45 4C16.45 3.8 16.4917 3.60833 16.575 3.425C16.675 3.24167 16.8167 3.01667 17 2.75C17.1833 2.98333 17.3167 3.2 17.4 3.4C17.5 3.58333 17.55 3.78333 17.55 4C17.55 4.16667 17.4917 4.3 17.375 4.4C17.275 4.5 17.15 4.55 17 4.55ZM2 13.15C2.41667 13.15 2.775 13.2083 3.075 13.325C3.39167 13.425 3.75 13.5917 4.15 13.825C4.61667 14.075 5.04167 14.2667 5.425 14.4C5.80833 14.5333 6.275 14.6 6.825 14.6C7.375 14.6 7.84167 14.5417 8.225 14.425C8.60833 14.2917 9.04167 14.1 9.525 13.85C10.0083 13.6167 10.4167 13.4417 10.75 13.325C11.0833 13.2083 11.4917 13.15 11.975 13.15C12.4083 13.15 12.7917 13.2083 13.125 13.325C13.4583 13.425 13.85 13.5917 14.3 13.825C14.8333 14.075 15.3 14.2667 15.7 14.4C16.1167 14.5333 16.6 14.6 17.15 14.6C17.7 14.6 18.1667 14.5333 18.55 14.4C18.9333 14.2667 19.3583 14.075 19.825 13.825C20.2583 13.5917 20.625 13.425 20.925 13.325C21.225 13.2083 21.5833 13.15 22 13.15V20H2V13.15ZM6.825 14.125C6.34167 14.125 5.91667 14.0667 5.55 13.95C5.2 13.8167 4.8 13.625 4.35 13.375C3.88333 13.1417 3.48333 12.9667 3.15 12.85C2.83333 12.7333 2.45 12.675 2 12.675V11.5C2 10.8 2.24167 10.2083 2.725 9.725C3.225 9.24167 3.81667 9 4.5 9H19.5C20.2 9 20.7917 9.24167 21.275 9.725C21.7583 10.2083 22 10.8 22 11.5V12.675C21.5333 12.675 21.125 12.7333 20.775 12.85C20.4417 12.9667 20.0583 13.15 19.625 13.4C19.125 13.65 18.7083 13.8333 18.375 13.95C18.0417 14.0667 17.6333 14.125 17.15 14.125C16.65 14.125 16.2167 14.0667 15.85 13.95C15.5 13.8333 15.0583 13.65 14.525 13.4C14.0417 13.15 13.6167 12.9667 13.25 12.85C12.8833 12.7333 12.4583 12.675 11.975 12.675C11.4417 12.675 10.9833 12.7417 10.6 12.875C10.2333 12.9917 9.80833 13.175 9.325 13.425C8.85833 13.6583 8.44167 13.8333 8.075 13.95C7.725 14.0667 7.30833 14.125 6.825 14.125Z" fill="black"/>
</g>
<defs>
<clipPath id="clip0_3186_32714">
<rect width="24" height="24" fill="white"/>
</clipPath>
</defs>
</svg>
