<svg width="24" height="24" viewBox="0 0 24 24" fill="none" xmlns="http://www.w3.org/2000/svg">
<g clip-path="url(#clip0_3186_32366)">
<rect width="24" height="24" fill="white"/>
<path d="M2.00049 11.5C2.00049 11.0333 2.10882 10.6167 2.32549 10.25C2.55882 9.86667 2.86716 9.56667 3.25049 9.35C3.65049 9.11667 4.09216 9 4.57549 9H19.5005C20.2005 9 20.7922 9.24167 21.2755 9.725C21.7588 10.2083 22.0005 10.8 22.0005 11.5V20H2.00049V11.5ZM21.5005 19.525V11.5C21.5005 10.9333 21.3088 10.4583 20.9255 10.075C20.5422 9.675 20.0672 9.475 19.5005 9.475H4.57549C3.99216 9.475 3.50049 9.675 3.10049 10.075C2.70049 10.4583 2.50049 10.9333 2.50049 11.5V19.525H21.5005ZM11.7505 5.75H12.2505V9.4H11.7505V5.75ZM12.0255 4.55C11.8755 4.55 11.7422 4.5 11.6255 4.4C11.5255 4.3 11.4755 4.16667 11.4755 4C11.4755 3.8 11.5172 3.60833 11.6005 3.425C11.7005 3.24167 11.8422 3.01667 12.0255 2.75C12.2088 2.98333 12.3422 3.2 12.4255 3.4C12.5255 3.58333 12.5755 3.78333 12.5755 4C12.5755 4.16667 12.5172 4.3 12.4005 4.4C12.3005 4.5 12.1755 4.55 12.0255 4.55ZM16.7255 5.75H17.2255V9.4H16.7255V5.75ZM17.0005 4.55C16.8505 4.55 16.7172 4.5 16.6005 4.4C16.5005 4.3 16.4505 4.16667 16.4505 4C16.4505 3.8 16.4922 3.60833 16.5755 3.425C16.6755 3.24167 16.8172 3.01667 17.0005 2.75C17.1838 2.98333 17.3172 3.2 17.4005 3.4C17.5005 3.58333 17.5505 3.78333 17.5505 4C17.5505 4.16667 17.4922 4.3 17.3755 4.4C17.2755 4.5 17.1505 4.55 17.0005 4.55ZM6.72549 5.75H7.22549V9.4H6.72549V5.75ZM7.00049 4.55C6.85049 4.55 6.71716 4.5 6.60049 4.4C6.50049 4.3 6.45049 4.16667 6.45049 4C6.45049 3.8 6.49216 3.60833 6.57549 3.425C6.67549 3.24167 6.81716 3.01667 7.00049 2.75C7.18382 2.98333 7.31716 3.2 7.40049 3.4C7.50049 3.58333 7.55049 3.78333 7.55049 4C7.55049 4.16667 7.49216 4.3 7.37549 4.4C7.27549 4.5 7.15049 4.55 7.00049 4.55ZM16.9255 14.275C17.4422 14.275 17.8672 14.2167 18.2005 14.1C18.5338 13.9667 18.9005 13.775 19.3005 13.525C19.6838 13.275 20.0338 13.0917 20.3505 12.975C20.6838 12.8417 21.1088 12.775 21.6255 12.775V13.25C21.1922 13.25 20.8338 13.3083 20.5505 13.425C20.2672 13.525 19.9255 13.7 19.5255 13.95C19.1255 14.2167 18.7338 14.4167 18.3505 14.55C17.9838 14.6833 17.5088 14.75 16.9255 14.75C16.3422 14.75 15.8755 14.6833 15.5255 14.55C15.1755 14.4167 14.7838 14.225 14.3505 13.975C13.9672 13.7417 13.6088 13.5667 13.2755 13.45C12.9422 13.3167 12.5172 13.25 12.0005 13.25C11.5005 13.25 11.0838 13.3083 10.7505 13.425C10.4172 13.5417 10.0505 13.725 9.65049 13.975C9.20049 14.2417 8.80049 14.4417 8.45049 14.575C8.10049 14.6917 7.64216 14.75 7.07549 14.75C6.49216 14.75 6.00882 14.6833 5.62549 14.55C5.25882 14.4167 4.87549 14.2167 4.47549 13.95C4.07549 13.7 3.73382 13.525 3.45049 13.425C3.18382 13.3083 2.82549 13.25 2.37549 13.25V12.775C2.89216 12.775 3.30882 12.8417 3.62549 12.975C3.95882 13.0917 4.31716 13.275 4.70049 13.525C5.10049 13.775 5.46716 13.9667 5.80049 14.1C6.13382 14.2167 6.55882 14.275 7.07549 14.275C7.57549 14.275 7.99216 14.2167 8.32549 14.1C8.67549 13.9667 9.04216 13.7833 9.42549 13.55C9.87549 13.3 10.2755 13.1083 10.6255 12.975C10.9922 12.8417 11.4505 12.775 12.0005 12.775C12.5838 12.775 13.0505 12.8417 13.4005 12.975C13.7505 13.1083 14.1422 13.3 14.5755 13.55C14.9588 13.7833 15.3172 13.9667 15.6505 14.1C15.9838 14.2167 16.4088 14.275 16.9255 14.275Z" fill="black"/>
</g>
<defs>
<clipPath id="clip0_3186_32366">
<rect width="24" height="24" fill="white"/>
</clipPath>
</defs>
</svg>
