<svg width="24" height="24" viewBox="0 0 24 24" fill="none" xmlns="http://www.w3.org/2000/svg">
<g clip-path="url(#clip0_3186_32724)">
<rect width="24" height="24" fill="white"/>
<path d="M5.4 7.625H8.175V12.3H5.4V7.625ZM6.825 6.65C6.39167 6.65 6.025 6.50833 5.725 6.225C5.425 5.94167 5.275 5.575 5.275 5.125C5.275 4.725 5.40833 4.33333 5.675 3.95C5.95833 3.56667 6.34167 3.16667 6.825 2.75C7.29167 3.15 7.66667 3.54167 7.95 3.925C8.23333 4.30833 8.375 4.70833 8.375 5.125C8.375 5.55833 8.225 5.925 7.925 6.225C7.625 6.50833 7.25833 6.65 6.825 6.65ZM10.6 7.625H13.375V12.3H10.6V7.625ZM12 6.65C11.5667 6.65 11.2 6.50833 10.9 6.225C10.6 5.94167 10.45 5.575 10.45 5.125C10.45 4.725 10.5833 4.33333 10.85 3.95C11.1333 3.56667 11.5167 3.16667 12 2.75C12.4833 3.15 12.8583 3.54167 13.125 3.925C13.4083 4.30833 13.55 4.70833 13.55 5.125C13.55 5.55833 13.4 5.925 13.1 6.225C12.8 6.50833 12.4333 6.65 12 6.65ZM15.8 7.625H18.55V12.3H15.8V7.625ZM17.2 6.65C16.7667 6.65 16.4 6.50833 16.1 6.225C15.8 5.94167 15.65 5.575 15.65 5.125C15.65 4.725 15.7833 4.33333 16.05 3.95C16.3333 3.56667 16.7167 3.16667 17.2 2.75C17.6833 3.15 18.0583 3.54167 18.325 3.925C18.6083 4.30833 18.75 4.70833 18.75 5.125C18.75 5.55833 18.6 5.925 18.3 6.225C18 6.50833 17.6333 6.65 17.2 6.65ZM2 15.1C2.35 15.1 2.65833 15.15 2.925 15.25C3.19167 15.35 3.525 15.5083 3.925 15.725C4.39167 15.9917 4.83333 16.2 5.25 16.35C5.66667 16.4833 6.19167 16.55 6.825 16.55C7.44167 16.55 7.95833 16.4833 8.375 16.35C8.79167 16.2167 9.25 16.0167 9.75 15.75C10.2 15.5333 10.575 15.375 10.875 15.275C11.1917 15.1583 11.5583 15.1 11.975 15.1C12.425 15.1 12.8 15.15 13.1 15.25C13.4 15.35 13.775 15.5167 14.225 15.75C14.725 16.0167 15.1833 16.2167 15.6 16.35C16.0167 16.4833 16.5333 16.55 17.15 16.55C17.7833 16.55 18.3083 16.4833 18.725 16.35C19.1417 16.2 19.5917 15.9917 20.075 15.725C20.4417 15.5083 20.7667 15.35 21.05 15.25C21.3333 15.15 21.65 15.1 22 15.1V20H2V15.1ZM6.825 14.6C6.39167 14.6 6.025 14.55 5.725 14.45C5.425 14.3333 5.05 14.1583 4.6 13.925C4.11667 13.6583 3.69167 13.4667 3.325 13.35C2.975 13.2167 2.53333 13.15 2 13.15V12.175C2 11.475 2.24167 10.8833 2.725 10.4C3.20833 9.91667 3.8 9.675 4.5 9.675H19.5C20.2 9.675 20.7917 9.91667 21.275 10.4C21.7583 10.8833 22 11.475 22 12.175V13.15C21.4667 13.15 21.0167 13.2167 20.65 13.35C20.2833 13.4667 19.8583 13.6583 19.375 13.925C18.975 14.1417 18.6083 14.3083 18.275 14.425C17.9583 14.5417 17.5833 14.6 17.15 14.6C16.7167 14.6 16.3417 14.55 16.025 14.45C15.725 14.3333 15.35 14.1667 14.9 13.95C14.4333 13.7 13.9833 13.5083 13.55 13.375C13.1333 13.225 12.6083 13.15 11.975 13.15C11.3583 13.15 10.8417 13.2167 10.425 13.35C10.025 13.4833 9.58333 13.675 9.1 13.925C8.68333 14.1583 8.30833 14.3333 7.975 14.45C7.65833 14.55 7.275 14.6 6.825 14.6Z" fill="black"/>
</g>
<defs>
<clipPath id="clip0_3186_32724">
<rect width="24" height="24" fill="white"/>
</clipPath>
</defs>
</svg>
