<svg width="24" height="24" viewBox="0 0 24 24" fill="none" xmlns="http://www.w3.org/2000/svg">
<g clip-path="url(#clip0_3186_33297)">
<rect width="24" height="24" fill="white"/>
<path d="M10.3755 19.1C10.0755 19.1 9.81716 19 9.60049 18.8C9.40049 18.5833 9.30049 18.3167 9.30049 18C9.30049 17.7 9.40049 17.45 9.60049 17.25C9.81716 17.0333 10.0755 16.925 10.3755 16.925C10.6755 16.925 10.9338 17.0333 11.1505 17.25C11.3672 17.45 11.4755 17.7 11.4755 18C11.4755 18.3167 11.3672 18.5833 11.1505 18.8C10.9338 19 10.6755 19.1 10.3755 19.1ZM14.3255 16.65C14.0255 16.65 13.7672 16.55 13.5505 16.35C13.3505 16.1333 13.2505 15.875 13.2505 15.575C13.2505 15.275 13.3505 15.025 13.5505 14.825C13.7672 14.6083 14.0255 14.5 14.3255 14.5C14.6255 14.5 14.8838 14.6083 15.1005 14.825C15.3172 15.025 15.4255 15.275 15.4255 15.575C15.4255 15.875 15.3172 16.1333 15.1005 16.35C14.8838 16.55 14.6255 16.65 14.3255 16.65ZM10.3755 14.225C10.0755 14.225 9.81716 14.125 9.60049 13.925C9.40049 13.7083 9.30049 13.45 9.30049 13.15C9.30049 12.85 9.40049 12.5917 9.60049 12.375C9.81716 12.1583 10.0755 12.05 10.3755 12.05C10.6755 12.05 10.9338 12.1583 11.1505 12.375C11.3672 12.5917 11.4755 12.85 11.4755 13.15C11.4755 13.45 11.3672 13.7083 11.1505 13.925C10.9338 14.125 10.6755 14.225 10.3755 14.225ZM12.0005 10.05C11.5838 10.05 11.2172 10.0083 10.9005 9.925C10.6005 9.84167 10.2505 9.70833 9.85049 9.525C9.51716 9.39167 9.21716 9.28333 8.95049 9.2C8.68382 9.11667 8.39216 9.075 8.07549 9.075C7.79216 9.075 7.51716 9.11667 7.25049 9.2C7.00049 9.26667 6.74216 9.39167 6.47549 9.575L5.72549 8.475C6.09216 8.24167 6.46716 8.06667 6.85049 7.95C7.25049 7.81667 7.65882 7.75 8.07549 7.75C8.52549 7.75 8.90882 7.8 9.22549 7.9C9.54216 7.98333 9.90882 8.10833 10.3255 8.275C10.6255 8.425 10.9005 8.54167 11.1505 8.625C11.4172 8.69167 11.7005 8.725 12.0005 8.725C12.3172 8.725 12.5922 8.69167 12.8255 8.625C13.0588 8.54167 13.3505 8.425 13.7005 8.275C14.1005 8.10833 14.4588 7.98333 14.7755 7.9C15.0922 7.8 15.4755 7.75 15.9255 7.75C16.3422 7.75 16.7505 7.81667 17.1505 7.95C17.5505 8.06667 17.9255 8.24167 18.2755 8.475L17.5255 9.575C17.2588 9.39167 16.9922 9.26667 16.7255 9.2C16.4755 9.11667 16.2088 9.075 15.9255 9.075C15.5922 9.075 15.3005 9.11667 15.0505 9.2C14.8005 9.26667 14.5088 9.375 14.1755 9.525C13.7422 9.70833 13.3755 9.84167 13.0755 9.925C12.7922 10.0083 12.4338 10.05 12.0005 10.05ZM16.6005 5.25C17.3338 5.86667 17.8838 6.5 18.2505 7.15C18.6338 7.8 18.8255 8.50833 18.8255 9.275V20C18.8255 20.6333 18.6838 21.1917 18.4005 21.675C18.1172 22.175 17.7172 22.5583 17.2005 22.825C16.6838 23.1083 16.1005 23.25 15.4505 23.25C14.8838 23.25 14.2672 23.1417 13.6005 22.925C13.3505 22.8583 13.0838 22.7917 12.8005 22.725C12.5338 22.675 12.2672 22.65 12.0005 22.65C11.7505 22.65 11.4838 22.675 11.2005 22.725C10.9172 22.7917 10.6505 22.8583 10.4005 22.925C9.73382 23.1417 9.11716 23.25 8.55049 23.25C7.90049 23.25 7.31716 23.1083 6.80049 22.825C6.28382 22.5583 5.88382 22.175 5.60049 21.675C5.31716 21.1917 5.17549 20.6333 5.17549 20V9.275C5.17549 8.50833 5.35882 7.8 5.72549 7.15C6.10882 6.5 6.66716 5.86667 7.40049 5.25L9.20049 3.725H14.8005L16.6005 5.25ZM6.57549 20C6.57549 20.55 6.75882 21 7.12549 21.35C7.49216 21.7167 7.96716 21.9 8.55049 21.9C8.81716 21.9 9.08382 21.8667 9.35049 21.8C9.61716 21.75 9.88382 21.6917 10.1505 21.625C10.4672 21.525 10.7672 21.4417 11.0505 21.375C11.3338 21.325 11.6505 21.3 12.0005 21.3C12.3505 21.3 12.6672 21.325 12.9505 21.375C13.2338 21.4417 13.5338 21.525 13.8505 21.625C14.1172 21.6917 14.3838 21.75 14.6505 21.8C14.9338 21.8667 15.2005 21.9 15.4505 21.9C16.0338 21.9 16.5088 21.7167 16.8755 21.35C17.2422 21 17.4255 20.55 17.4255 20V9.275C17.4255 8.675 17.2838 8.15 17.0005 7.7C16.7172 7.25 16.2838 6.775 15.7005 6.275L14.2505 5.025H9.75049L8.27549 6.25C7.70882 6.73333 7.28382 7.20833 7.00049 7.675C6.71716 8.125 6.57549 8.65833 6.57549 9.275V20ZM13.5505 1.775H10.4505V4.325H9.15049V0.499999H14.8505V4.325H13.5505V1.775Z" fill="black"/>
</g>
<defs>
<clipPath id="clip0_3186_33297">
<rect width="24" height="24" fill="white"/>
</clipPath>
</defs>
</svg>
