<svg width="24" height="24" viewBox="0 0 24 24" fill="none" xmlns="http://www.w3.org/2000/svg">
<g clip-path="url(#clip0_3186_32840)">
<rect width="24" height="24" fill="white"/>
<path d="M12.0005 12.3C11.6672 12.3 11.3422 12.2583 11.0255 12.175C10.7088 12.0917 10.3338 11.975 9.90049 11.825C9.60049 11.7083 9.33382 11.625 9.10049 11.575C8.88382 11.5083 8.67549 11.475 8.47549 11.475C8.09216 11.475 7.66716 11.6083 7.20049 11.875L6.25049 9.225C6.95049 8.80833 7.69216 8.6 8.47549 8.6C8.90882 8.6 9.28382 8.64167 9.60049 8.725C9.91716 8.80833 10.2672 8.91667 10.6505 9.05C10.9338 9.16667 11.1755 9.25833 11.3755 9.325C11.5755 9.375 11.7838 9.4 12.0005 9.4C12.2672 9.4 12.4922 9.375 12.6755 9.325C12.8588 9.275 13.1005 9.18333 13.4005 9.05C13.7505 8.91667 14.0755 8.80833 14.3755 8.725C14.6755 8.64167 15.0588 8.6 15.5255 8.6C16.3422 8.6 17.0838 8.80833 17.7505 9.225L16.8255 11.875C16.3588 11.625 15.9172 11.5 15.5005 11.5C15.2672 11.5 15.0338 11.5417 14.8005 11.625C14.5672 11.6917 14.3338 11.7667 14.1005 11.85C13.7338 11.9833 13.3922 12.0917 13.0755 12.175C12.7755 12.2583 12.4172 12.3 12.0005 12.3ZM16.4755 4.425C17.3088 5.14167 17.9505 5.89167 18.4005 6.675C18.8505 7.45833 19.0755 8.25833 19.0755 9.075V19.525C19.0755 20.2083 18.9005 20.8333 18.5505 21.4C18.2172 21.9833 17.7588 22.4333 17.1755 22.75C16.5922 23.0833 15.9422 23.25 15.2255 23.25C14.5922 23.25 13.9255 23.1833 13.2255 23.05C13.0255 23.0167 12.8172 22.9833 12.6005 22.95C12.3838 22.9167 12.1838 22.9 12.0005 22.9C11.8172 22.9 11.6172 22.9167 11.4005 22.95C11.1838 22.9833 10.9755 23.0167 10.7755 23.05C10.0755 23.1833 9.40882 23.25 8.77549 23.25C8.07549 23.25 7.42549 23.0833 6.82549 22.75C6.24216 22.4333 5.77549 21.9833 5.42549 21.4C5.09216 20.8333 4.92549 20.2083 4.92549 19.525V9.075C4.92549 8.24167 5.13382 7.45 5.55049 6.7C5.96716 5.95 6.56716 5.24167 7.35049 4.575L9.60049 2.625H14.4005L16.4755 4.425ZM7.67549 19.525C7.67549 19.8083 7.78382 20.05 8.00049 20.25C8.21716 20.45 8.48382 20.55 8.80049 20.55C9.08382 20.55 9.35049 20.5333 9.60049 20.5C9.86716 20.4667 10.1172 20.425 10.3505 20.375C10.5838 20.3417 10.8422 20.3083 11.1255 20.275C11.4255 20.225 11.7172 20.2 12.0005 20.2C12.2838 20.2 12.5672 20.225 12.8505 20.275C13.1505 20.3083 13.4172 20.3417 13.6505 20.375C13.8838 20.425 14.1255 20.4667 14.3755 20.5C14.6422 20.5333 14.9172 20.55 15.2005 20.55C15.5172 20.55 15.7838 20.45 16.0005 20.25C16.2172 20.05 16.3255 19.8083 16.3255 19.525V9.075C16.3255 8.625 16.1922 8.2 15.9255 7.8C15.6588 7.38333 15.2505 6.925 14.7005 6.425L13.2005 5.15H10.8005L9.15049 6.575C8.66716 7.00833 8.30049 7.425 8.05049 7.825C7.80049 8.20833 7.67549 8.625 7.67549 9.075V19.525ZM11.8505 3.65H10.7005H11.0505H9.55049V0.499999H14.4505V3.65H12.7755H11.8505Z" fill="black"/>
</g>
<defs>
<clipPath id="clip0_3186_32840">
<rect width="24" height="24" fill="white"/>
</clipPath>
</defs>
</svg>
