<svg width="24" height="24" viewBox="0 0 24 24" fill="none" xmlns="http://www.w3.org/2000/svg">
<g clip-path="url(#clip0_3186_33295)">
<rect width="24" height="24" fill="white"/>
<path d="M10.2505 18.775C10.0338 18.775 9.85049 18.7 9.70049 18.55C9.55049 18.4 9.47549 18.2167 9.47549 18C9.47549 17.7833 9.55049 17.6 9.70049 17.45C9.85049 17.2833 10.0338 17.2 10.2505 17.2C10.4838 17.2 10.6755 17.2833 10.8255 17.45C10.9755 17.6 11.0505 17.7833 11.0505 18C11.0505 18.2167 10.9755 18.4 10.8255 18.55C10.6755 18.7 10.4838 18.775 10.2505 18.775ZM14.5005 16.125C14.2672 16.125 14.0755 16.05 13.9255 15.9C13.7755 15.7333 13.7005 15.5417 13.7005 15.325C13.7005 15.1083 13.7755 14.925 13.9255 14.775C14.0755 14.6083 14.2672 14.525 14.5005 14.525C14.7172 14.525 14.9005 14.6083 15.0505 14.775C15.2005 14.925 15.2755 15.1083 15.2755 15.325C15.2755 15.5417 15.2005 15.7333 15.0505 15.9C14.9005 16.05 14.7172 16.125 14.5005 16.125ZM10.2505 13.45C10.0338 13.45 9.85049 13.375 9.70049 13.225C9.55049 13.075 9.47549 12.8917 9.47549 12.675C9.47549 12.4417 9.55049 12.25 9.70049 12.1C9.85049 11.95 10.0338 11.875 10.2505 11.875C10.4838 11.875 10.6755 11.95 10.8255 12.1C10.9755 12.25 11.0505 12.4417 11.0505 12.675C11.0505 12.8917 10.9755 13.075 10.8255 13.225C10.6755 13.375 10.4838 13.45 10.2505 13.45ZM12.0005 9.325C11.5838 9.325 11.2172 9.28333 10.9005 9.2C10.6005 9.1 10.2505 8.96667 9.85049 8.8C9.48382 8.63333 9.15882 8.50833 8.87549 8.425C8.60882 8.34167 8.30049 8.3 7.95049 8.3C7.65049 8.3 7.35049 8.35 7.05049 8.45C6.76716 8.53333 6.48382 8.66667 6.20049 8.85L5.70049 8.125C6.03382 7.875 6.39216 7.69167 6.77549 7.575C7.17549 7.45833 7.56716 7.4 7.95049 7.4C8.40049 7.4 8.78382 7.45 9.10049 7.55C9.41716 7.63333 9.77549 7.76667 10.1755 7.95C10.4922 8.1 10.7838 8.21667 11.0505 8.3C11.3338 8.38333 11.6505 8.425 12.0005 8.425C12.3672 8.425 12.6672 8.39167 12.9005 8.325C13.1505 8.24167 13.4672 8.11667 13.8505 7.95C14.2672 7.76667 14.6255 7.63333 14.9255 7.55C15.2255 7.45 15.6005 7.4 16.0505 7.4C16.4505 7.4 16.8422 7.45833 17.2255 7.575C17.6255 7.69167 17.9922 7.875 18.3255 8.125L17.8005 8.85C17.5172 8.65 17.2338 8.50833 16.9505 8.425C16.6672 8.34167 16.3588 8.3 16.0255 8.3C15.6922 8.3 15.3838 8.34167 15.1005 8.425C14.8338 8.50833 14.5255 8.63333 14.1755 8.8C13.7422 8.98333 13.3755 9.11667 13.0755 9.2C12.7755 9.28333 12.4172 9.325 12.0005 9.325ZM16.4505 5.125C17.1672 5.725 17.7172 6.35 18.1005 7C18.4838 7.65 18.6755 8.33333 18.6755 9.05V20.075C18.6755 20.675 18.5338 21.2167 18.2505 21.7C17.9672 22.1833 17.5755 22.5583 17.0755 22.825C16.5922 23.1083 16.0422 23.25 15.4255 23.25C14.8588 23.25 14.2422 23.1417 13.5755 22.925C13.3255 22.8583 13.0672 22.7917 12.8005 22.725C12.5338 22.675 12.2672 22.65 12.0005 22.65C11.7338 22.65 11.4672 22.675 11.2005 22.725C10.9338 22.7917 10.6755 22.8583 10.4255 22.925C9.75882 23.1417 9.14216 23.25 8.57549 23.25C7.95882 23.25 7.40049 23.1083 6.90049 22.825C6.41716 22.5583 6.03382 22.1833 5.75049 21.7C5.46716 21.2167 5.32549 20.675 5.32549 20.075V9.05C5.32549 8.33333 5.51716 7.65 5.90049 7C6.28382 6.35 6.83382 5.725 7.55049 5.125L9.37549 3.575H14.6255L16.4505 5.125ZM6.27549 20.075C6.27549 20.725 6.49216 21.2583 6.92549 21.675C7.35882 22.1083 7.90882 22.325 8.57549 22.325C8.84216 22.325 9.10882 22.2917 9.37549 22.225C9.65882 22.175 9.91716 22.1167 10.1505 22.05C10.4838 21.95 10.7922 21.8667 11.0755 21.8C11.3588 21.75 11.6672 21.725 12.0005 21.725C12.3505 21.725 12.6588 21.75 12.9255 21.8C13.2088 21.8667 13.5172 21.95 13.8505 22.05C14.0838 22.1167 14.3338 22.175 14.6005 22.225C14.8838 22.2917 15.1588 22.325 15.4255 22.325C16.0922 22.325 16.6422 22.1083 17.0755 21.675C17.5088 21.2583 17.7255 20.725 17.7255 20.075V9.05C17.7255 8.45 17.5672 7.9 17.2505 7.4C16.9338 6.88333 16.4588 6.35833 15.8255 5.825L14.2255 4.45H9.77549L8.17549 5.8C7.54216 6.31667 7.06716 6.83333 6.75049 7.35C6.43382 7.86667 6.27549 8.43333 6.27549 9.05V20.075ZM13.8005 1.375H10.2005V3.975H9.30049V0.499999H14.7005V3.975H13.8005V1.375Z" fill="black"/>
</g>
<defs>
<clipPath id="clip0_3186_33295">
<rect width="24" height="24" fill="white"/>
</clipPath>
</defs>
</svg>
