<svg width="24" height="24" viewBox="0 0 24 24" fill="none" xmlns="http://www.w3.org/2000/svg">
<g clip-path="url(#clip0_3186_32842)">
<rect width="24" height="24" fill="white"/>
<path d="M12.0005 13.05C11.7005 13.05 11.3838 13.0083 11.0505 12.925C10.7172 12.8417 10.3255 12.725 9.87549 12.575C9.64216 12.5083 9.40882 12.4417 9.17549 12.375C8.95882 12.3083 8.78382 12.275 8.65049 12.275C8.30049 12.275 7.89216 12.4 7.42549 12.65L6.50049 9.4C7.18382 9.03333 7.90049 8.85 8.65049 8.85C9.05049 8.85 9.40049 8.89167 9.70049 8.975C10.0005 9.04167 10.3422 9.14167 10.7255 9.275C10.9422 9.35833 11.1588 9.43333 11.3755 9.5C11.5922 9.55 11.8005 9.575 12.0005 9.575C12.2505 9.575 12.4588 9.55 12.6255 9.5C12.8088 9.45 13.0422 9.375 13.3255 9.275C13.6422 9.14167 13.9422 9.04167 14.2255 8.975C14.5255 8.89167 14.9005 8.85 15.3505 8.85C16.1172 8.85 16.8338 9.03333 17.5005 9.4L16.6005 12.65C16.1338 12.4333 15.7088 12.325 15.3255 12.325C15.1255 12.325 14.9172 12.3583 14.7005 12.425C14.4838 12.475 14.2672 12.5417 14.0505 12.625C13.6672 12.7583 13.3255 12.8667 13.0255 12.95C12.7422 13.0167 12.4005 13.05 12.0005 13.05ZM17.0005 4.425C17.7172 5.00833 18.2672 5.66667 18.6505 6.4C19.0505 7.11667 19.2505 7.9 19.2505 8.75V19.1C19.2505 19.8667 19.0672 20.5667 18.7005 21.2C18.3505 21.8333 17.8672 22.3333 17.2505 22.7C16.6338 23.0667 15.9505 23.25 15.2005 23.25C14.5838 23.25 13.9255 23.1833 13.2255 23.05C13.0255 23.0167 12.8172 22.9833 12.6005 22.95C12.3838 22.9167 12.1838 22.9 12.0005 22.9C11.8172 22.9 11.6172 22.9167 11.4005 22.95C11.1838 22.9833 10.9755 23.0167 10.7755 23.05C10.0755 23.1833 9.42549 23.25 8.82549 23.25C8.07549 23.25 7.38382 23.0667 6.75049 22.7C6.13382 22.3333 5.64216 21.8333 5.27549 21.2C4.92549 20.5667 4.75049 19.8667 4.75049 19.1V8.75C4.75049 7.88333 4.94216 7.09167 5.32549 6.375C5.72549 5.64167 6.29216 4.98333 7.02549 4.4L9.27549 2.575H14.7255L17.0005 4.425ZM8.20049 19.1C8.20049 19.2833 8.27549 19.4583 8.42549 19.625C8.57549 19.775 8.74216 19.85 8.92549 19.85C9.20882 19.85 9.46716 19.8333 9.70049 19.8C9.95049 19.7667 10.1922 19.725 10.4255 19.675C10.6588 19.6417 10.9088 19.6083 11.1755 19.575C11.4422 19.525 11.7172 19.5 12.0005 19.5C12.2838 19.5 12.5588 19.525 12.8255 19.575C13.0922 19.6083 13.3422 19.6417 13.5755 19.675C13.8088 19.725 14.0505 19.7667 14.3005 19.8C14.5505 19.8333 14.8172 19.85 15.1005 19.85C15.2838 19.85 15.4422 19.775 15.5755 19.625C15.7255 19.4583 15.8005 19.2833 15.8005 19.1V8.7C15.8005 8.36667 15.7172 8.06667 15.5505 7.8C15.4005 7.53333 15.1588 7.26667 14.8255 7L13.1505 5.625H10.8505L9.22549 6.975C8.87549 7.25833 8.61716 7.53333 8.45049 7.8C8.28382 8.05 8.20049 8.35 8.20049 8.7V19.1ZM11.5255 3.65H10.3755H10.7255H9.22549V0.499999H14.7755V3.65H12.7755H11.5255Z" fill="black"/>
</g>
<defs>
<clipPath id="clip0_3186_32842">
<rect width="24" height="24" fill="white"/>
</clipPath>
</defs>
</svg>
