<svg width="24" height="24" viewBox="0 0 24 24" fill="none" xmlns="http://www.w3.org/2000/svg">
<g clip-path="url(#clip0_3186_32450)">
<rect width="24" height="24" fill="white"/>
<path d="M17.4005 14.375C17.7005 14.375 17.9505 14.275 18.1505 14.075C18.3505 13.875 18.4505 13.625 18.4505 13.325V11.4H16.4005V13.325C16.4005 13.6083 16.5005 13.8583 16.7005 14.075C16.9005 14.275 17.1338 14.375 17.4005 14.375ZM13.8755 9H21.0005V13.35C21.0005 14.0167 20.8422 14.625 20.5255 15.175C20.2088 15.7083 19.7755 16.1333 19.2255 16.45C18.6922 16.75 18.0922 16.9 17.4255 16.9C16.7588 16.9 16.1505 16.75 15.6005 16.45C15.0672 16.1333 14.6422 15.7083 14.3255 15.175C14.0255 14.625 13.8755 14.0167 13.8755 13.35V9ZM9.47549 10.05C9.47549 9.88333 9.43382 9.73333 9.35049 9.6C9.28382 9.46667 9.17549 9.33333 9.02549 9.2L7.75049 8.125H7.57549H7.45049H7.42549L6.15049 9.2C5.86716 9.43333 5.72549 9.71667 5.72549 10.05V18.325H9.47549V10.05ZM10.8255 7.4C11.2922 7.8 11.6338 8.2 11.8505 8.6C12.0672 8.98333 12.1755 9.46667 12.1755 10.05V21H3.00049V10.05C3.00049 9.46667 3.10882 8.98333 3.32549 8.6C3.54216 8.2 3.88382 7.8 4.35049 7.4L6.55049 5.4L6.20049 7.125V1H8.97549V7.125L8.62549 5.4L10.8255 7.4ZM18.7505 18.475H20.5005V21H14.3755V18.475H16.1005V16.275H18.7505V18.475Z" fill="black"/>
</g>
<defs>
<clipPath id="clip0_3186_32450">
<rect width="24" height="24" fill="white"/>
</clipPath>
</defs>
</svg>
