<svg width="24" height="24" viewBox="0 0 24 24" fill="none" xmlns="http://www.w3.org/2000/svg">
<g clip-path="url(#clip0_3186_32854)">
<rect width="24" height="24" fill="white"/>
<path d="M9.15 21.875C8.91667 21.9417 8.7 21.975 8.5 21.975C8.23333 21.975 7.93333 21.9417 7.6 21.875C7.28333 21.8083 6.98333 21.6583 6.7 21.425C6.41667 21.2083 6.275 20.875 6.275 20.425L6.7 9.875C7.06667 9.64167 7.4 9.48333 7.7 9.4C8.01667 9.3 8.36667 9.25 8.75 9.25C9.16667 9.25 9.51667 9.29167 9.8 9.375C10.1 9.45833 10.4167 9.56667 10.75 9.7C10.95 9.78333 11.15 9.86667 11.35 9.95C11.5667 10.0167 11.7833 10.05 12 10.05C12.2667 10.05 12.4833 10.025 12.65 9.975C12.8167 9.925 13.025 9.83333 13.275 9.7C13.575 9.56667 13.8583 9.45833 14.125 9.375C14.4083 9.29167 14.7833 9.25 15.25 9.25C15.6333 9.25 15.9833 9.3 16.3 9.4C16.6167 9.48333 16.95 9.64167 17.3 9.875L17.725 20.55C17.725 20.8167 17.575 21.0583 17.275 21.275C16.9917 21.4917 16.6667 21.6583 16.3 21.775C15.9333 21.9083 15.6583 21.975 15.475 21.975C15.2417 21.975 15.0167 21.95 14.8 21.9C14.6 21.85 14.3583 21.775 14.075 21.675C13.7083 21.525 13.375 21.4083 13.075 21.325C12.775 21.2583 12.4167 21.225 12 21.225C11.6667 21.225 11.3417 21.2583 11.025 21.325C10.725 21.4083 10.35 21.525 9.9 21.675C9.65 21.7583 9.4 21.825 9.15 21.875ZM9.6 2.625H14.4L16.475 4.425C17.3083 5.14167 17.95 5.89167 18.4 6.675C18.85 7.45833 19.075 8.25833 19.075 9.075V19.525C19.075 20.2083 18.9 20.8333 18.55 21.4C18.2167 21.9833 17.7583 22.4333 17.175 22.75C16.5917 23.0833 15.9417 23.25 15.225 23.25C14.5917 23.25 13.925 23.1833 13.225 23.05C13.025 23.0167 12.8167 22.9833 12.6 22.95C12.3833 22.9167 12.1833 22.9 12 22.9C11.8167 22.9 11.6167 22.9167 11.4 22.95C11.1833 22.9833 10.975 23.0167 10.775 23.05C10.075 23.1833 9.40833 23.25 8.775 23.25C8.075 23.25 7.425 23.0833 6.825 22.75C6.24167 22.4333 5.775 21.9833 5.425 21.4C5.09167 20.8333 4.925 20.2083 4.925 19.525V9.075C4.925 8.24167 5.13333 7.45 5.55 6.7C5.96667 5.95 6.56667 5.24167 7.35 4.575L9.6 2.625ZM8.05 7.825C7.8 8.20833 7.675 8.625 7.675 9.075V19.525C7.675 19.8083 7.78333 20.05 8 20.25C8.21667 20.45 8.48333 20.55 8.8 20.55C9.08333 20.55 9.35 20.5333 9.6 20.5C9.86667 20.4667 10.1167 20.425 10.35 20.375C10.5833 20.3417 10.8417 20.3083 11.125 20.275C11.425 20.225 11.7167 20.2 12 20.2C12.2833 20.2 12.5667 20.225 12.85 20.275C13.15 20.3083 13.4167 20.3417 13.65 20.375C13.8833 20.425 14.125 20.4667 14.375 20.5C14.6417 20.5333 14.9167 20.55 15.2 20.55C15.5167 20.55 15.7833 20.45 16 20.25C16.2167 20.05 16.325 19.8083 16.325 19.525V9.075C16.325 8.625 16.1917 8.2 15.925 7.8C15.6583 7.38333 15.25 6.93333 14.7 6.45L13.2 5.15H10.8L9.15 6.575C8.66667 7.025 8.3 7.44167 8.05 7.825ZM8.975 4.325V0.499999H15.025V4.325H12.325H10.7H8.975Z" fill="black"/>
</g>
<defs>
<clipPath id="clip0_3186_32854">
<rect width="24" height="24" fill="white"/>
</clipPath>
</defs>
</svg>
