<svg width="24" height="24" viewBox="0 0 24 24" fill="none" xmlns="http://www.w3.org/2000/svg">
<g clip-path="url(#clip0_3390_10095)">
<rect width="24" height="24" fill="white"/>
<path d="M17.2505 13.775C17.4338 13.775 17.5838 13.725 17.7005 13.625C17.8338 13.5083 17.9005 13.3667 17.9005 13.2V11.95H16.6505V13.2C16.6505 13.3667 16.7088 13.5083 16.8255 13.625C16.9422 13.725 17.0838 13.775 17.2505 13.775ZM13.5505 9H21.0005V13.325C21.0005 13.9917 20.8338 14.5917 20.5005 15.125C20.1838 15.6417 19.7338 16.05 19.1505 16.35C18.5838 16.6333 17.9505 16.775 17.2505 16.775C16.5505 16.775 15.9172 16.6333 15.3505 16.35C14.8005 16.05 14.3588 15.6417 14.0255 15.125C13.7088 14.5917 13.5505 13.9917 13.5505 13.325V9ZM9.07549 10.175C9.07549 10.0417 9.05882 9.925 9.02549 9.825C8.99216 9.725 8.94216 9.64167 8.87549 9.575L7.82549 8.525H7.77549H7.80049H7.75049L6.67549 9.575C6.54216 9.70833 6.47549 9.90833 6.47549 10.175V17.575H9.07549V10.175ZM11.3755 7.325C11.7588 7.70833 12.0505 8.13333 12.2505 8.6C12.4505 9.05 12.5505 9.575 12.5505 10.175V21H3.00049V10.175C3.00049 9.575 3.10049 9.05 3.30049 8.6C3.50049 8.13333 3.79216 7.70833 4.17549 7.325L6.55049 4.95L6.02549 6.125V1H9.52549V6.125L9.00049 4.95L11.3755 7.325ZM19.0255 17.8H20.5005V21H14.0505V17.8H15.5255V15.85H19.0255V17.8Z" fill="black"/>
</g>
<defs>
<clipPath id="clip0_3390_10095">
<rect width="24" height="24" fill="white"/>
</clipPath>
</defs>
</svg>
