<svg width="24" height="24" viewBox="0 0 24 24" fill="none" xmlns="http://www.w3.org/2000/svg">
<g clip-path="url(#clip0_3186_32482)">
<rect width="24" height="24" fill="white"/>
<path d="M9.75 9.675C9.91667 9.825 10.1 9.9 10.3 9.9C10.5333 9.9 10.725 9.825 10.875 9.675C11.025 9.50833 11.1 9.31667 11.1 9.1C11.1 8.88333 11.025 8.7 10.875 8.55C10.725 8.38333 10.5333 8.3 10.3 8.3C10.0833 8.3 9.9 8.38333 9.75 8.55C9.6 8.7 9.525 8.88333 9.525 9.1C9.525 9.31667 9.6 9.50833 9.75 9.675ZM8.525 15.65C8.69167 15.8 8.875 15.875 9.075 15.875C9.30833 15.875 9.5 15.8 9.65 15.65C9.8 15.4833 9.875 15.2917 9.875 15.075C9.875 14.8583 9.8 14.675 9.65 14.525C9.5 14.3583 9.30833 14.275 9.075 14.275C8.85833 14.275 8.675 14.3583 8.525 14.525C8.375 14.675 8.3 14.8583 8.3 15.075C8.3 15.2917 8.375 15.4833 8.525 15.65ZM14.675 14.15C14.8417 14.3 15.025 14.375 15.225 14.375C15.4583 14.375 15.65 14.3 15.8 14.15C15.95 13.9833 16.025 13.7917 16.025 13.575C16.025 13.3583 15.95 13.175 15.8 13.025C15.65 12.8583 15.4583 12.775 15.225 12.775C15.0083 12.775 14.825 12.8583 14.675 13.025C14.525 13.175 14.45 13.3583 14.45 13.575C14.45 13.7917 14.525 13.9833 14.675 14.15ZM12 2L13.25 2.05C13.45 3.48333 13.8833 4.525 14.55 5.175C15.3 5.90833 16.3583 6.30833 17.725 6.375C17.725 7.00833 17.825 7.61667 18.025 8.2C18.2417 8.78333 18.5167 9.25833 18.85 9.625C19.15 9.94167 19.575 10.225 20.125 10.475C20.6917 10.725 21.3083 10.9083 21.975 11.025L22 12C22 13.8333 21.5583 15.5167 20.675 17.05C19.7917 18.5833 18.5833 19.7917 17.05 20.675C15.5167 21.5583 13.8333 22 12 22C10.1667 22 8.48333 21.5583 6.95 20.675C5.41667 19.7917 4.20833 18.5833 3.325 17.05C2.44167 15.5167 2 13.8333 2 12C2 10.1667 2.44167 8.48333 3.325 6.95C4.20833 5.41667 5.41667 4.20833 6.95 3.325C8.48333 2.44167 10.1667 2 12 2Z" fill="black"/>
</g>
<defs>
<clipPath id="clip0_3186_32482">
<rect width="24" height="24" fill="white"/>
</clipPath>
</defs>
</svg>
