<svg width="24" height="24" viewBox="0 0 24 24" fill="none" xmlns="http://www.w3.org/2000/svg">
<g clip-path="url(#clip0_3186_32488)">
<rect width="24" height="24" fill="white"/>
<path d="M9.35 10.225C9.68333 10.5417 10.075 10.7 10.525 10.7C10.975 10.7 11.3583 10.5417 11.675 10.225C12.0083 9.89167 12.175 9.5 12.175 9.05C12.175 8.58333 12.0167 8.19167 11.7 7.875C11.3833 7.54167 10.9917 7.375 10.525 7.375C10.0583 7.375 9.65833 7.54167 9.325 7.875C9.00833 8.19167 8.85 8.58333 8.85 9.05C8.85 9.5 9.01667 9.89167 9.35 10.225ZM8.125 16.2C8.45833 16.5167 8.85 16.675 9.3 16.675C9.75 16.675 10.1333 16.5167 10.45 16.2C10.7833 15.8667 10.95 15.475 10.95 15.025C10.95 14.5583 10.7917 14.1667 10.475 13.85C10.1583 13.5167 9.76667 13.35 9.3 13.35C8.83333 13.35 8.43333 13.5167 8.1 13.85C7.78333 14.1667 7.625 14.5583 7.625 15.025C7.625 15.475 7.79167 15.8667 8.125 16.2ZM14.275 14.7C14.6083 15.0167 15 15.175 15.45 15.175C15.9 15.175 16.2833 15.0167 16.6 14.7C16.9333 14.3667 17.1 13.975 17.1 13.525C17.1 13.0583 16.9417 12.6667 16.625 12.35C16.3083 12.0167 15.9167 11.85 15.45 11.85C14.9833 11.85 14.5833 12.0167 14.25 12.35C13.9333 12.6667 13.775 13.0583 13.775 13.525C13.775 13.975 13.9417 14.3667 14.275 14.7ZM12 2L13.25 2.05C13.45 3.48333 13.8833 4.525 14.55 5.175C15.3 5.90833 16.3583 6.30833 17.725 6.375C17.725 7.00833 17.825 7.61667 18.025 8.2C18.2417 8.78333 18.5167 9.25833 18.85 9.625C19.15 9.94167 19.575 10.225 20.125 10.475C20.6917 10.725 21.3083 10.9083 21.975 11.025L22 12C22 13.8333 21.5583 15.5167 20.675 17.05C19.7917 18.5833 18.5833 19.7917 17.05 20.675C15.5167 21.5583 13.8333 22 12 22C10.1667 22 8.48333 21.5583 6.95 20.675C5.41667 19.7917 4.20833 18.5833 3.325 17.05C2.44167 15.5167 2 13.8333 2 12C2 10.1667 2.44167 8.48333 3.325 6.95C4.20833 5.41667 5.41667 4.20833 6.95 3.325C8.48333 2.44167 10.1667 2 12 2Z" fill="black"/>
</g>
<defs>
<clipPath id="clip0_3186_32488">
<rect width="24" height="24" fill="white"/>
</clipPath>
</defs>
</svg>
