<svg width="24" height="24" viewBox="0 0 24 24" fill="none" xmlns="http://www.w3.org/2000/svg">
<g clip-path="url(#clip0_3186_32468)">
<rect width="24" height="24" fill="white"/>
<path d="M12.0005 2L13.2505 2.05C13.4505 3.5 13.8838 4.54167 14.5505 5.175C15.3005 5.90833 16.3588 6.30833 17.7255 6.375C17.7255 7.04167 17.8255 7.65833 18.0255 8.225C18.2255 8.775 18.5005 9.24167 18.8505 9.625C19.1672 9.95833 19.5922 10.25 20.1255 10.5C20.6588 10.7333 21.2755 10.9083 21.9755 11.025L22.0005 12C22.0005 13.8333 21.5588 15.5167 20.6755 17.05C19.7922 18.5833 18.5838 19.7917 17.0505 20.675C15.5172 21.5583 13.8338 22 12.0005 22C10.1672 22 8.48382 21.5583 6.95049 20.675C5.41716 19.7917 4.20882 18.5833 3.32549 17.05C2.44216 15.5167 2.00049 13.8333 2.00049 12C2.00049 10.1667 2.44216 8.48333 3.32549 6.95C4.20882 5.41667 5.41716 4.20833 6.95049 3.325C8.48382 2.44167 10.1672 2 12.0005 2ZM7.42549 19.875C8.80882 20.675 10.3338 21.075 12.0005 21.075C13.6505 21.075 15.1672 20.675 16.5505 19.875C17.9338 19.075 19.0255 18 19.8255 16.65C20.6255 15.2833 21.0255 13.8167 21.0255 12.25C21.0255 12.0833 21.0255 11.925 21.0255 11.775C19.7922 11.475 18.8505 10.9667 18.2005 10.25C17.8172 9.83333 17.5172 9.375 17.3005 8.875C17.0838 8.375 16.9505 7.81667 16.9005 7.2C15.7338 7.05 14.7338 6.59167 13.9005 5.825C13.2172 5.19167 12.7422 4.225 12.4755 2.925H11.8505C10.2338 2.925 8.74216 3.33333 7.37549 4.15C6.02549 4.95 4.95049 6.05 4.15049 7.45C3.35049 8.83333 2.95049 10.35 2.95049 12C2.95049 13.6667 3.35049 15.2 4.15049 16.6C4.95049 17.9833 6.04216 19.075 7.42549 19.875ZM9.75049 9.75C9.91716 9.9 10.1005 9.975 10.3005 9.975C10.5338 9.975 10.7255 9.9 10.8755 9.75C11.0255 9.6 11.1005 9.40833 11.1005 9.175C11.1005 8.95833 11.0255 8.775 10.8755 8.625C10.7255 8.475 10.5338 8.4 10.3005 8.4C10.0838 8.4 9.90049 8.475 9.75049 8.625C9.60049 8.775 9.52549 8.96667 9.52549 9.2C9.52549 9.4 9.60049 9.58333 9.75049 9.75ZM8.55049 15.625C8.71716 15.775 8.90882 15.85 9.12549 15.85C9.34216 15.85 9.52549 15.775 9.67549 15.625C9.82549 15.4583 9.90049 15.2667 9.90049 15.05C9.90049 14.8333 9.82549 14.65 9.67549 14.5C9.52549 14.3333 9.34216 14.25 9.12549 14.25C8.89216 14.25 8.70049 14.3333 8.55049 14.5C8.40049 14.65 8.32549 14.8333 8.32549 15.05C8.32549 15.2667 8.40049 15.4583 8.55049 15.625ZM14.4505 14.075C14.6172 14.225 14.8088 14.3 15.0255 14.3C15.2422 14.3 15.4255 14.225 15.5755 14.075C15.7255 13.925 15.8005 13.7417 15.8005 13.525C15.8005 13.2917 15.7255 13.1 15.5755 12.95C15.4255 12.8 15.2422 12.725 15.0255 12.725C14.7922 12.725 14.6005 12.8083 14.4505 12.975C14.3005 13.125 14.2255 13.3083 14.2255 13.525C14.2255 13.725 14.3005 13.9083 14.4505 14.075Z" fill="black"/>
</g>
<defs>
<clipPath id="clip0_3186_32468">
<rect width="24" height="24" fill="white"/>
</clipPath>
</defs>
</svg>
