<svg width="24" height="24" viewBox="0 0 24 24" fill="none" xmlns="http://www.w3.org/2000/svg">
<g clip-path="url(#clip0_3186_32470)">
<rect width="24" height="24" fill="white"/>
<path d="M12.0005 2L13.2505 2.05C13.4505 3.48333 13.8838 4.525 14.5505 5.175C15.3005 5.90833 16.3588 6.30833 17.7255 6.375C17.7255 7.04167 17.8255 7.65833 18.0255 8.225C18.2255 8.775 18.5005 9.24167 18.8505 9.625C19.1505 9.95833 19.5755 10.25 20.1255 10.5C20.6755 10.7333 21.2922 10.9083 21.9755 11.025L22.0005 12C22.0005 13.8333 21.5588 15.5167 20.6755 17.05C19.7922 18.5833 18.5838 19.7917 17.0505 20.675C15.5172 21.5583 13.8338 22 12.0005 22C10.1672 22 8.48382 21.5583 6.95049 20.675C5.41716 19.7917 4.20882 18.5833 3.32549 17.05C2.44216 15.5167 2.00049 13.8333 2.00049 12C2.00049 10.1667 2.44216 8.48333 3.32549 6.95C4.20882 5.41667 5.41716 4.20833 6.95049 3.325C8.48382 2.44167 10.1672 2 12.0005 2ZM7.67549 19.5C8.99216 20.2667 10.4338 20.65 12.0005 20.65C13.5672 20.65 15.0005 20.2667 16.3005 19.5C17.6172 18.7333 18.6588 17.725 19.4255 16.475C20.1922 15.225 20.5755 13.8917 20.5755 12.475C20.5755 12.3583 20.5755 12.2417 20.5755 12.125C19.4755 11.8417 18.5672 11.3167 17.8505 10.55C17.4838 10.1333 17.1838 9.68333 16.9505 9.2C16.7338 8.7 16.5838 8.15 16.5005 7.55C15.3838 7.35 14.4255 6.875 13.6255 6.125C12.9088 5.45833 12.4088 4.53333 12.1255 3.35H11.6755C10.2088 3.38333 8.84216 3.78333 7.57549 4.55C6.30882 5.31667 5.29216 6.35833 4.52549 7.675C3.77549 8.99167 3.40049 10.4333 3.40049 12C3.40049 13.5833 3.78382 15.0333 4.55049 16.35C5.31716 17.6667 6.35882 18.7167 7.67549 19.5ZM9.62549 10.025C9.84216 10.2417 10.1005 10.35 10.4005 10.35C10.7005 10.35 10.9505 10.25 11.1505 10.05C11.3672 9.83333 11.4755 9.575 11.4755 9.275C11.4755 8.975 11.3672 8.71667 11.1505 8.5C10.9505 8.28333 10.7005 8.175 10.4005 8.175C10.1005 8.175 9.84216 8.28333 9.62549 8.5C9.40882 8.71667 9.30049 8.975 9.30049 9.275C9.30049 9.55833 9.40882 9.80833 9.62549 10.025ZM8.47549 15.775C8.69216 15.9917 8.94216 16.1 9.22549 16.1C9.52549 16.1 9.78382 16 10.0005 15.8C10.2172 15.5833 10.3255 15.325 10.3255 15.025C10.3255 14.725 10.2172 14.475 10.0005 14.275C9.78382 14.0583 9.52549 13.95 9.22549 13.95C8.92549 13.95 8.66716 14.0583 8.45049 14.275C8.25049 14.475 8.15049 14.725 8.15049 15.025C8.15049 15.3083 8.25882 15.5583 8.47549 15.775ZM14.1255 14.225C14.3422 14.4417 14.5922 14.55 14.8755 14.55C15.1755 14.55 15.4338 14.4417 15.6505 14.225C15.8672 14.0083 15.9755 13.75 15.9755 13.45C15.9755 13.15 15.8672 12.9 15.6505 12.7C15.4338 12.4833 15.1755 12.375 14.8755 12.375C14.5755 12.375 14.3172 12.4833 14.1005 12.7C13.9005 12.9 13.8005 13.15 13.8005 13.45C13.8005 13.75 13.9088 14.0083 14.1255 14.225Z" fill="black"/>
</g>
<defs>
<clipPath id="clip0_3186_32470">
<rect width="24" height="24" fill="white"/>
</clipPath>
</defs>
</svg>
