<svg width="24" height="24" viewBox="0 0 24 24" fill="none" xmlns="http://www.w3.org/2000/svg">
<g clip-path="url(#clip0_3186_32578)">
<rect width="24" height="24" fill="white"/>
<path d="M18.7255 16H16.8505C16.1672 16 15.5672 15.8417 15.0505 15.525C14.5505 15.1917 14.1838 14.75 13.9505 14.2C13.7338 13.6333 13.6922 13 13.8255 12.3L15.1255 5.175C15.2588 4.40833 15.5838 3.81667 16.1005 3.4C16.6338 2.96667 17.2922 2.75 18.0755 2.75C18.8922 2.75 19.5838 3.03333 20.1505 3.6C20.7172 4.16667 21.0005 4.85833 21.0005 5.675V21H18.7255V16ZM16.0255 12.775C15.9755 13.075 16.0255 13.3167 16.1755 13.5C16.3255 13.6833 16.5588 13.775 16.8755 13.775H18.7255V5.7C18.7255 5.5 18.6588 5.33333 18.5255 5.2C18.3922 5.05 18.2338 4.975 18.0505 4.975C17.8505 4.975 17.6838 5.03333 17.5505 5.15C17.4338 5.26667 17.3505 5.43333 17.3005 5.65L16.0255 12.775ZM5.85049 11.325H4.72549C3.95882 11.325 3.30882 11.0417 2.77549 10.475C2.25882 9.90833 2.00049 9.23333 2.00049 8.45V3H4.00049V8.425C4.00049 8.60833 4.06716 8.76667 4.20049 8.9C4.33382 9.03333 4.50049 9.1 4.70049 9.1H5.95049V3H8.05049V9.1H9.30049C9.50049 9.1 9.66716 9.03333 9.80049 8.9C9.93382 8.76667 10.0005 8.60833 10.0005 8.425V3H12.0005V8.45C12.0005 9.23333 11.7338 9.90833 11.2005 10.475C10.6838 11.0417 10.0422 11.325 9.27549 11.325H8.15049V21H5.85049V11.325Z" fill="black"/>
</g>
<defs>
<clipPath id="clip0_3186_32578">
<rect width="24" height="24" fill="white"/>
</clipPath>
</defs>
</svg>
