<svg width="24" height="24" viewBox="0 0 24 24" fill="none" xmlns="http://www.w3.org/2000/svg">
<g clip-path="url(#clip0_3186_32584)">
<rect width="24" height="24" fill="white"/>
<path d="M5.8 12.05H5.2C4.63333 12.05 4.1 11.9167 3.6 11.65C3.1 11.3667 2.7 10.9833 2.4 10.5C2.11667 10.0167 1.98333 9.49167 2 8.925L2.25 3H3.775V7.925C3.775 8.24167 3.875 8.50833 4.075 8.725C4.29167 8.925 4.55833 9.025 4.875 9.025C5.175 9.025 5.425 8.925 5.625 8.725C5.825 8.50833 5.925 8.24167 5.925 7.925V3H7.675V7.925C7.675 8.24167 7.775 8.50833 7.975 8.725C8.175 8.925 8.425 9.025 8.725 9.025C9.04167 9.025 9.3 8.925 9.5 8.725C9.71667 8.50833 9.825 8.24167 9.825 7.925V3H11.35L11.6 8.925C11.6167 9.49167 11.4833 10.0167 11.2 10.5C10.9333 10.9833 10.55 11.3667 10.05 11.65C9.55 11.9167 9 12.05 8.4 12.05H7.8V21H5.8V12.05ZM19 14.7H18.525C17.5917 14.7 16.8583 14.4167 16.325 13.85C15.8083 13.2833 15.6333 12.5583 15.8 11.675L17.075 4.35C17.1583 3.85 17.375 3.45833 17.725 3.175C18.075 2.89167 18.525 2.75 19.075 2.75C19.625 2.75 20.0833 2.94167 20.45 3.325C20.8167 3.70833 21 4.18333 21 4.75V21H19V14.7Z" fill="black"/>
</g>
<defs>
<clipPath id="clip0_3186_32584">
<rect width="24" height="24" fill="white"/>
</clipPath>
</defs>
</svg>
