<svg width="24" height="24" viewBox="0 0 24 24" fill="none" xmlns="http://www.w3.org/2000/svg">
<g clip-path="url(#clip0_3186_32588)">
<rect width="24" height="24" fill="white"/>
<path d="M6 12.05H5.275C4.675 12.05 4.11667 11.9167 3.6 11.65C3.1 11.3667 2.7 10.9833 2.4 10.5C2.11667 10.0167 1.98333 9.49167 2 8.925L2.25 3H3.775V7.85C3.775 8.18333 3.88333 8.46667 4.1 8.7C4.31667 8.91667 4.59167 9.025 4.925 9.025C5.24167 9.025 5.50833 8.91667 5.725 8.7C5.95833 8.46667 6.075 8.18333 6.075 7.85V3H7.825V7.85C7.825 8.18333 7.93333 8.46667 8.15 8.7C8.38333 8.91667 8.65833 9.025 8.975 9.025C9.30833 9.025 9.58333 8.91667 9.8 8.7C10.0167 8.46667 10.125 8.18333 10.125 7.85V3H11.65L11.9 8.925C11.9167 9.50833 11.7833 10.0417 11.5 10.525C11.2333 10.9917 10.8417 11.3667 10.325 11.65C9.825 11.9167 9.25833 12.05 8.625 12.05H7.9V21H6V12.05ZM19 14.7H18.525C17.5917 14.7 16.8583 14.4167 16.325 13.85C15.8083 13.2833 15.6333 12.5583 15.8 11.675L17.075 4.35C17.1583 3.85 17.375 3.45833 17.725 3.175C18.075 2.89167 18.525 2.75 19.075 2.75C19.625 2.75 20.0833 2.94167 20.45 3.325C20.8167 3.70833 21 4.18333 21 4.75V21H19V14.7Z" fill="black"/>
</g>
<defs>
<clipPath id="clip0_3186_32588">
<rect width="24" height="24" fill="white"/>
</clipPath>
</defs>
</svg>
