<svg width="24" height="24" viewBox="0 0 24 24" fill="none" xmlns="http://www.w3.org/2000/svg">
<g clip-path="url(#clip0_3186_32572)">
<rect width="24" height="24" fill="white"/>
<path d="M20.0505 15.125H18.0505C17.4005 15.125 16.8338 14.9917 16.3505 14.725C15.8838 14.4417 15.5505 14.0583 15.3505 13.575C15.1505 13.0917 15.1005 12.5417 15.2005 11.925L16.4755 4.6C16.5755 4.03333 16.8255 3.58333 17.2255 3.25C17.6422 2.91667 18.1588 2.75 18.7755 2.75C19.4088 2.75 19.9338 2.975 20.3505 3.425C20.7838 3.85833 21.0005 4.39167 21.0005 5.025V21H20.0505V15.125ZM16.1255 12.1C16.0088 12.7167 16.1255 13.225 16.4755 13.625C16.8422 14.025 17.3672 14.225 18.0505 14.225H20.0505V5.025C20.0505 4.64167 19.9255 4.31667 19.6755 4.05C19.4255 3.78333 19.1255 3.65 18.7755 3.65C18.3922 3.65 18.0838 3.75833 17.8505 3.975C17.6172 4.175 17.4672 4.45 17.4005 4.8L16.1255 12.1ZM6.07549 10.85H4.35049C3.70049 10.85 3.14216 10.625 2.67549 10.175C2.22549 9.70833 2.00049 9.15 2.00049 8.5V3H2.90049V8.475C2.90049 8.875 3.04216 9.225 3.32549 9.525C3.60882 9.80833 3.95049 9.95 4.35049 9.95H6.10049V3H7.00049V9.95H8.75049C9.15049 9.95 9.49216 9.80833 9.77549 9.525C10.0588 9.225 10.2005 8.875 10.2005 8.475V3H11.1005V8.5C11.1005 9.15 10.8672 9.70833 10.4005 10.175C9.95049 10.625 9.40049 10.85 8.75049 10.85H7.02549V21H6.07549V10.85Z" fill="black"/>
</g>
<defs>
<clipPath id="clip0_3186_32572">
<rect width="24" height="24" fill="white"/>
</clipPath>
</defs>
</svg>
