<svg width="24" height="24" viewBox="0 0 24 24" fill="none" xmlns="http://www.w3.org/2000/svg">
<g clip-path="url(#clip0_3186_32812)">
<rect width="24" height="24" fill="white"/>
<path d="M9.07549 21.5C7.74216 21.5 6.53382 20.9917 5.45049 19.975C4.36716 18.9583 3.51716 17.6833 2.90049 16.15C2.30049 14.6 2.00049 13.0833 2.00049 11.6C2.00049 10.2 2.26716 8.96667 2.80049 7.9C3.33382 6.81667 4.08382 5.98333 5.05049 5.4C6.01716 4.8 7.13382 4.5 8.40049 4.5C9.05049 4.5 9.67549 4.59167 10.2755 4.775C10.8922 4.95833 11.4505 5.23333 11.9505 5.6C12.4672 5.23333 13.0422 4.95833 13.6755 4.775C14.3088 4.59167 14.9588 4.5 15.6255 4.5C16.8755 4.5 17.9838 4.8 18.9505 5.4C19.9172 5.98333 20.6672 6.81667 21.2005 7.9C21.7338 8.96667 22.0005 10.2 22.0005 11.6C22.0005 13.0833 21.6922 14.6 21.0755 16.15C20.4755 17.6833 19.6338 18.9583 18.5505 19.975C17.4672 20.9917 16.2505 21.5 14.9005 21.5C14.6338 21.5 14.3588 21.4667 14.0755 21.4C13.7922 21.35 13.5255 21.2917 13.2755 21.225C13.0588 21.1583 12.8422 21.1 12.6255 21.05C12.4088 21.0167 12.2005 21 12.0005 21C11.6672 21 11.2338 21.075 10.7005 21.225C10.4505 21.2917 10.1838 21.35 9.90049 21.4C9.61716 21.4667 9.34216 21.5 9.07549 21.5ZM9.32549 19.05C9.52549 19.05 9.74216 19.025 9.97549 18.975C10.2088 18.925 10.4255 18.8667 10.6255 18.8C10.8255 18.7333 11.0422 18.675 11.2755 18.625C11.5255 18.575 11.7672 18.55 12.0005 18.55C12.2338 18.55 12.4672 18.575 12.7005 18.625C12.9338 18.675 13.1588 18.7333 13.3755 18.8C13.5755 18.8667 13.7922 18.925 14.0255 18.975C14.2588 19.025 14.4755 19.05 14.6755 19.05C15.5255 19.05 16.3255 18.675 17.0755 17.925C17.8255 17.175 18.4172 16.225 18.8505 15.075C19.2838 13.9083 19.5005 12.75 19.5005 11.6C19.5005 10.65 19.3338 9.83333 19.0005 9.15C18.6838 8.45 18.2172 7.90833 17.6005 7.525C16.9838 7.14167 16.2505 6.95 15.4005 6.95C14.8505 6.95 14.3172 7.01667 13.8005 7.15C13.2838 7.28333 12.6838 7.55 12.0005 7.95C11.3172 7.56667 10.7172 7.30833 10.2005 7.175C9.68382 7.025 9.15049 6.95 8.60049 6.95C7.75049 6.95 7.01716 7.14167 6.40049 7.525C5.80049 7.90833 5.33382 8.45 5.00049 9.15C4.66716 9.83333 4.50049 10.65 4.50049 11.6C4.50049 12.75 4.71716 13.9083 5.15049 15.075C5.58382 16.225 6.16716 17.175 6.90049 17.925C7.65049 18.675 8.45882 19.05 9.32549 19.05ZM10.7505 6.75C10.7005 5.68333 10.8255 4.625 11.1255 3.575C11.4255 2.50833 11.8922 1.48333 12.5255 0.499999L14.7255 1.825C14.1422 2.50833 13.7088 3.25 13.4255 4.05C13.1588 4.83333 12.9755 5.70833 12.8755 6.675L10.7505 6.75Z" fill="black"/>
</g>
<defs>
<clipPath id="clip0_3186_32812">
<rect width="24" height="24" fill="white"/>
</clipPath>
</defs>
</svg>
