<svg width="24" height="24" viewBox="0 0 24 24" fill="none" xmlns="http://www.w3.org/2000/svg">
<g clip-path="url(#clip0_3186_33206)">
<rect width="24" height="24" fill="white"/>
<path d="M9.32549 16.25C8.32549 16.25 7.45882 15.925 6.72549 15.275C5.99216 14.625 5.59216 13.8167 5.52549 12.85L4.75049 3H19.0005L18.2255 12.85C18.1422 13.8333 17.7755 14.65 17.1255 15.3C16.4755 15.9333 15.6588 16.25 14.6755 16.25H9.32549ZM2.00049 17.5H22.0005V21H2.00049V17.5ZM14.3755 12.75C14.4755 12.75 14.5588 12.7167 14.6255 12.65C14.6922 12.5833 14.7338 12.4917 14.7505 12.375L15.2005 6.5H8.60049L9.05049 12.375C9.06716 12.4917 9.10882 12.5833 9.17549 12.65C9.24216 12.7167 9.32549 12.75 9.42549 12.75H14.3755ZM17.8005 8.95H19.0755C19.3422 8.95 19.5505 8.9 19.7005 8.8C19.8505 8.68333 19.9505 8.525 20.0005 8.325C20.0672 8.10833 20.1005 7.84167 20.1005 7.525C20.1005 7.20833 20.0672 6.95 20.0005 6.75C19.9505 6.53333 19.8505 6.375 19.7005 6.275C19.5505 6.15833 19.3422 6.1 19.0755 6.1H17.6755L17.8755 3H19.0755C19.9255 3 20.6672 3.19167 21.3005 3.575C21.9338 3.95833 22.4172 4.49167 22.7505 5.175C23.0838 5.85833 23.2505 6.64167 23.2505 7.525C23.2505 8.40833 23.0838 9.19167 22.7505 9.875C22.4172 10.5583 21.9338 11.0917 21.3005 11.475C20.6672 11.8583 19.9255 12.05 19.0755 12.05H17.5255L17.8005 8.95Z" fill="black"/>
</g>
<defs>
<clipPath id="clip0_3186_33206">
<rect width="24" height="24" fill="white"/>
</clipPath>
</defs>
</svg>
