<svg width="24" height="24" viewBox="0 0 24 24" fill="none" xmlns="http://www.w3.org/2000/svg">
<g clip-path="url(#clip0_3373_4566)">
<rect width="24" height="24" fill="white"/>
<path d="M8.77549 17.5C7.95882 17.5 7.26716 17.2417 6.70049 16.725C6.13382 16.1917 5.80882 15.5167 5.72549 14.7L4.75049 3H19.0005L18.0255 14.7C17.9588 15.5167 17.6338 16.1917 17.0505 16.725C16.4838 17.2417 15.7922 17.5 14.9755 17.5H8.77549ZM2.00049 19.6H22.0005V21H2.00049V19.6ZM14.9755 16.1C15.3922 16.1 15.7588 15.9583 16.0755 15.675C16.3922 15.375 16.5672 15.0083 16.6005 14.575L17.4505 4.4H6.30049L7.15049 14.575C7.20049 15.0083 7.37549 15.375 7.67549 15.675C7.99216 15.9583 8.35882 16.1 8.77549 16.1H14.9755ZM17.9005 9.7H19.2505C19.7338 9.7 20.1755 9.58333 20.5755 9.35C20.9922 9.1 21.3172 8.775 21.5505 8.375C21.8005 7.95833 21.9255 7.5 21.9255 7C21.9255 6.51667 21.8088 6.075 21.5755 5.675C21.3422 5.25833 21.0255 4.925 20.6255 4.675C20.2422 4.425 19.8172 4.3 19.3505 4.3H18.1005L18.0255 3H19.3255C20.0422 3 20.7005 3.175 21.3005 3.525C21.9172 3.875 22.3922 4.35833 22.7255 4.975C23.0755 5.59167 23.2505 6.26667 23.2505 7C23.2505 7.73333 23.0755 8.40833 22.7255 9.025C22.3755 9.64167 21.8922 10.125 21.2755 10.475C20.6588 10.825 19.9838 11 19.2505 11H17.8755L17.9005 9.7Z" fill="black"/>
</g>
<defs>
<clipPath id="clip0_3373_4566">
<rect width="24" height="24" fill="white"/>
</clipPath>
</defs>
</svg>
