<svg width="24" height="24" viewBox="0 0 24 24" fill="none" xmlns="http://www.w3.org/2000/svg">
<g clip-path="url(#clip0_3373_4580)">
<rect width="24" height="24" fill="white"/>
<path d="M8.6 17.5C7.85 17.5 7.2 17.2583 6.65 16.775C6.11667 16.275 5.81667 15.6417 5.75 14.875L4.75 3H19L18.025 14.875C17.9583 15.6417 17.65 16.275 17.1 16.775C16.5667 17.2583 15.9167 17.5 15.15 17.5H8.6ZM2 19.55H22V21H2V19.55ZM17.975 9.7H19.25C19.7333 9.7 20.175 9.58333 20.575 9.35C20.9917 9.1 21.3167 8.775 21.55 8.375C21.8 7.95833 21.925 7.5 21.925 7C21.925 6.51667 21.8083 6.075 21.575 5.675C21.3417 5.25833 21.025 4.925 20.625 4.675C20.2417 4.425 19.8167 4.3 19.35 4.3H18.1V3H19.325C20.0417 3 20.7 3.175 21.3 3.525C21.9167 3.875 22.3917 4.35833 22.725 4.975C23.075 5.59167 23.25 6.26667 23.25 7C23.25 7.73333 23.075 8.40833 22.725 9.025C22.375 9.64167 21.8917 10.125 21.275 10.475C20.6583 10.825 19.9833 11 19.25 11H17.975V9.7Z" fill="black"/>
</g>
<defs>
<clipPath id="clip0_3373_4580">
<rect width="24" height="24" fill="white"/>
</clipPath>
</defs>
</svg>
