<svg width="24" height="24" viewBox="0 0 24 24" fill="none" xmlns="http://www.w3.org/2000/svg">
<g clip-path="url(#clip0_3373_4572)">
<rect width="24" height="24" fill="white"/>
<path d="M8.90049 16.325C7.96716 16.325 7.18382 16.0417 6.55049 15.475C5.91716 14.9083 5.55882 14.1667 5.47549 13.25L4.62549 3H18.9505L18.1005 13.25C18.0338 14.1667 17.6922 14.9083 17.0755 15.475C16.4755 16.0417 15.7338 16.325 14.8505 16.325H8.90049ZM2.00049 18.05H22.0005V21H2.00049V18.05ZM14.6755 13.375C14.8088 13.375 14.9172 13.3333 15.0005 13.25C15.0838 13.1667 15.1338 13.0583 15.1505 12.925L15.7505 5.95H7.87549L8.47549 12.925C8.47549 13.0583 8.51716 13.1667 8.60049 13.25C8.70049 13.3333 8.80882 13.375 8.92549 13.375H14.6755ZM17.8005 10.1H19.1755C19.4422 10.1 19.6755 10.0417 19.8755 9.925C20.0922 9.79167 20.2588 9.625 20.3755 9.425C20.5088 9.20833 20.5755 8.96667 20.5755 8.7C20.5755 8.45 20.5088 8.21667 20.3755 8C20.2588 7.78333 20.0922 7.61667 19.8755 7.5C19.6588 7.36667 19.4255 7.3 19.1755 7.3H17.7255L17.8505 4.675H19.1755C19.9255 4.675 20.6088 4.85833 21.2255 5.225C21.8588 5.575 22.3505 6.05833 22.7005 6.675C23.0672 7.29167 23.2505 7.96667 23.2505 8.7C23.2505 9.45 23.0672 10.1333 22.7005 10.75C22.3505 11.3667 21.8588 11.8583 21.2255 12.225C20.6088 12.575 19.9255 12.75 19.1755 12.75H17.6255L17.8005 10.1Z" fill="black"/>
</g>
<defs>
<clipPath id="clip0_3373_4572">
<rect width="24" height="24" fill="white"/>
</clipPath>
</defs>
</svg>
