<svg width="24" height="24" viewBox="0 0 24 24" fill="none" xmlns="http://www.w3.org/2000/svg">
<g clip-path="url(#clip0_3186_33235)">
<rect width="24" height="24" fill="white"/>
<path d="M7.12549 13.575C6.22549 13.575 5.40049 13.3583 4.65049 12.925C3.91716 12.475 3.33382 11.875 2.90049 11.125C2.46716 10.375 2.25049 9.55 2.25049 8.65C2.25049 7.75 2.46716 6.94167 2.90049 6.225C3.33382 5.49167 3.91716 4.91667 4.65049 4.5C5.40049 4.06667 6.22549 3.85 7.12549 3.85H8.85049L6.60049 6.05C6.60049 5.08333 6.84216 4.19167 7.32549 3.375C7.80882 2.55833 8.45882 1.91667 9.27549 1.45C10.1088 0.983332 11.0172 0.749998 12.0005 0.749998C12.9838 0.749998 13.8838 0.983332 14.7005 1.45C15.5338 1.91667 16.1922 2.55833 16.6755 3.375C17.1588 4.19167 17.4005 5.08333 17.4005 6.05L15.2755 3.85H16.8755C17.7755 3.85 18.5922 4.06667 19.3255 4.5C20.0755 4.91667 20.6672 5.49167 21.1005 6.225C21.5338 6.94167 21.7505 7.75 21.7505 8.65C21.7505 9.55 21.5338 10.375 21.1005 11.125C20.6672 11.875 20.0755 12.475 19.3255 12.925C18.5922 13.3583 17.7755 13.575 16.8755 13.575H7.12549ZM6.07549 12.35H8.65049L12.8255 21.5H11.2005L15.3755 12.35H17.9505L13.5255 22H10.4755L6.07549 12.35ZM16.8755 11.225C17.3422 11.225 17.7588 11.1083 18.1255 10.875C18.5088 10.6417 18.8005 10.3333 19.0005 9.95C19.2172 9.55 19.3255 9.10833 19.3255 8.625C19.3255 8.175 19.2172 7.76667 19.0005 7.4C18.8005 7.03333 18.5088 6.74167 18.1255 6.525C17.7588 6.30833 17.3422 6.2 16.8755 6.2H15.0255C15.0255 5.63333 14.8922 5.11667 14.6255 4.65C14.3588 4.16667 13.9922 3.79167 13.5255 3.525C13.0588 3.25833 12.5505 3.125 12.0005 3.125C11.4505 3.125 10.9422 3.25833 10.4755 3.525C10.0088 3.79167 9.64216 4.16667 9.37549 4.65C9.10882 5.11667 8.97549 5.63333 8.97549 6.2H7.12549C6.65882 6.2 6.23382 6.30833 5.85049 6.525C5.48382 6.74167 5.19216 7.03333 4.97549 7.4C4.77549 7.76667 4.67549 8.175 4.67549 8.625C4.67549 9.10833 4.77549 9.55 4.97549 9.95C5.19216 10.3333 5.48382 10.6417 5.85049 10.875C6.23382 11.1083 6.65882 11.225 7.12549 11.225H16.8755Z" fill="black"/>
</g>
<defs>
<clipPath id="clip0_3186_33235">
<rect width="24" height="24" fill="white"/>
</clipPath>
</defs>
</svg>
