<svg width="24" height="24" viewBox="0 0 24 24" fill="none" xmlns="http://www.w3.org/2000/svg">
<g clip-path="url(#clip0_3186_33237)">
<rect width="24" height="24" fill="white"/>
<path d="M7.60049 14.175C6.61716 14.175 5.71716 13.9417 4.90049 13.475C4.08382 12.9917 3.43382 12.35 2.95049 11.55C2.48382 10.7333 2.25049 9.84167 2.25049 8.875C2.25049 7.90833 2.48382 7.03333 2.95049 6.25C3.43382 5.45 4.08382 4.825 4.90049 4.375C5.71716 3.90833 6.61716 3.675 7.60049 3.675H8.85049L6.27549 6.375C6.27549 5.34167 6.52549 4.4 7.02549 3.55C7.54216 2.68333 8.23382 2 9.10049 1.5C9.98382 0.999999 10.9505 0.749998 12.0005 0.749998C13.0505 0.749998 14.0088 0.999999 14.8755 1.5C15.7588 2 16.4505 2.68333 16.9505 3.55C17.4672 4.4 17.7255 5.34167 17.7255 6.375L15.1005 3.675H16.4005C17.3838 3.675 18.2838 3.90833 19.1005 4.375C19.9172 4.825 20.5588 5.45 21.0255 6.25C21.5088 7.03333 21.7505 7.90833 21.7505 8.875C21.7505 9.84167 21.5088 10.7333 21.0255 11.55C20.5588 12.35 19.9172 12.9917 19.1005 13.475C18.2838 13.9417 17.3838 14.175 16.4005 14.175H7.60049ZM5.72549 12.25H8.92549L13.0505 21.5H11.0005L15.1255 12.25H18.3255L13.9505 22H10.1005L5.72549 12.25ZM16.4005 11.25C16.8338 11.25 17.2255 11.15 17.5755 10.95C17.9422 10.7333 18.2255 10.4417 18.4255 10.075C18.6255 9.70833 18.7255 9.3 18.7255 8.85C18.7255 8.43333 18.6255 8.05 18.4255 7.7C18.2255 7.35 17.9422 7.075 17.5755 6.875C17.2255 6.675 16.8338 6.575 16.4005 6.575H14.8005C14.8005 6.05833 14.6755 5.58333 14.4255 5.15C14.1922 4.7 13.8588 4.35 13.4255 4.1C12.9922 3.85 12.5172 3.725 12.0005 3.725C11.4838 3.725 11.0088 3.85 10.5755 4.1C10.1422 4.35 9.80049 4.7 9.55049 5.15C9.31716 5.58333 9.20049 6.05833 9.20049 6.575H7.60049C7.16716 6.575 6.76716 6.675 6.40049 6.875C6.05049 7.075 5.77549 7.35 5.57549 7.7C5.37549 8.05 5.27549 8.43333 5.27549 8.85C5.27549 9.3 5.37549 9.70833 5.57549 10.075C5.77549 10.4417 6.05049 10.7333 6.40049 10.95C6.76716 11.15 7.16716 11.25 7.60049 11.25H16.4005Z" fill="black"/>
</g>
<defs>
<clipPath id="clip0_3186_33237">
<rect width="24" height="24" fill="white"/>
</clipPath>
</defs>
</svg>
