<svg width="24" height="24" viewBox="0 0 24 24" fill="none" xmlns="http://www.w3.org/2000/svg">
<g clip-path="url(#clip0_3186_32534)">
<rect width="24" height="24" fill="white"/>
<path d="M6.5 22C5.8 22 5.20833 21.7583 4.725 21.275C4.24167 20.7917 4 20.2 4 19.5V4.5C4 3.8 4.24167 3.20833 4.725 2.725C5.20833 2.24167 5.8 2 6.5 2H20V22H6.5ZM13.75 16.7H15.65V7.2H14.975C14.575 7.2 14.2667 7.30833 14.05 7.525C13.85 7.74167 13.75 8.05 13.75 8.45V16.7ZM7.9 9.325C7.9 9.80833 7.98333 10.2167 8.15 10.55C8.33333 10.8833 8.575 11.1333 8.875 11.3V16.7H10.8V11.3C11.1 11.1333 11.3333 10.8833 11.5 10.55C11.6833 10.2167 11.775 9.81667 11.775 9.35C11.775 8.66667 11.6 8.13333 11.25 7.75C10.9167 7.35 10.4583 7.15 9.875 7.15C9.25833 7.15 8.775 7.35 8.425 7.75C8.075 8.13333 7.9 8.65833 7.9 9.325Z" fill="black"/>
</g>
<defs>
<clipPath id="clip0_3186_32534">
<rect width="24" height="24" fill="white"/>
</clipPath>
</defs>
</svg>
