<svg width="24" height="24" viewBox="0 0 24 24" fill="none" xmlns="http://www.w3.org/2000/svg">
<g clip-path="url(#clip0_3186_32498)">
<rect width="24" height="24" fill="white"/>
<path d="M1.67549 4.775C4.95882 2.925 8.40049 2 12.0005 2C15.6005 2 19.0422 2.925 22.3255 4.775L12.0005 22.6L1.67549 4.775ZM19.8255 5.475C18.5922 4.90833 17.3088 4.48333 15.9755 4.2C14.6422 3.9 13.3172 3.75 12.0005 3.75C10.6838 3.75 9.35882 3.9 8.02549 4.2C6.69216 4.48333 5.40882 4.90833 4.17549 5.475L12.0005 19.025L19.8255 5.475ZM4.20049 7.45C5.40049 6.8 6.65882 6.31667 7.97549 6C9.29216 5.66667 10.6338 5.5 12.0005 5.5C13.3838 5.5 14.7422 5.66667 16.0755 6C17.4255 6.31667 18.7005 6.8 19.9005 7.45L19.0505 8.975C17.9505 8.40833 16.8088 7.98333 15.6255 7.7C14.4422 7.4 13.2338 7.25 12.0005 7.25C10.7672 7.25 9.57549 7.39167 8.42549 7.675C7.27549 7.95833 6.15049 8.39167 5.05049 8.975L4.20049 7.45ZM11.8755 15.175C11.5255 15.175 11.2255 15.0583 10.9755 14.825C10.7422 14.575 10.6255 14.275 10.6255 13.925C10.6255 13.575 10.7422 13.2833 10.9755 13.05C11.2255 12.8 11.5255 12.675 11.8755 12.675C12.2255 12.675 12.5172 12.8 12.7505 13.05C13.0005 13.2833 13.1255 13.575 13.1255 13.925C13.1255 14.275 13.0005 14.575 12.7505 14.825C12.5172 15.0583 12.2255 15.175 11.8755 15.175ZM9.92549 11.125C9.57549 11.125 9.27549 11.0083 9.02549 10.775C8.79216 10.525 8.67549 10.225 8.67549 9.875C8.67549 9.525 8.79216 9.23333 9.02549 9C9.27549 8.75 9.57549 8.625 9.92549 8.625C10.2755 8.625 10.5672 8.75 10.8005 9C11.0505 9.23333 11.1755 9.525 11.1755 9.875C11.1755 10.225 11.0505 10.525 10.8005 10.775C10.5672 11.0083 10.2755 11.125 9.92549 11.125ZM14.1505 11.725C13.8005 11.725 13.5005 11.6083 13.2505 11.375C13.0172 11.125 12.9005 10.825 12.9005 10.475C12.9005 10.125 13.0172 9.83333 13.2505 9.6C13.5005 9.35 13.8005 9.225 14.1505 9.225C14.5005 9.225 14.7922 9.35 15.0255 9.6C15.2755 9.83333 15.4005 10.125 15.4005 10.475C15.4005 10.825 15.2755 11.125 15.0255 11.375C14.7922 11.6083 14.5005 11.725 14.1505 11.725ZM14.7005 10.475C14.7338 10.475 14.7505 10.475 14.7505 10.475C14.7672 10.475 14.7922 10.475 14.8255 10.475C14.7922 10.475 14.7672 10.475 14.7505 10.475C14.7505 10.475 14.7338 10.475 14.7005 10.475C14.6672 10.475 14.6422 10.475 14.6255 10.475C14.6255 10.475 14.6088 10.475 14.5755 10.475C14.6088 10.475 14.6255 10.475 14.6255 10.475C14.6422 10.475 14.6672 10.475 14.7005 10.475ZM10.4755 9.875C10.5088 9.875 10.5255 9.875 10.5255 9.875C10.5422 9.875 10.5672 9.875 10.6005 9.875C10.5672 9.875 10.5422 9.875 10.5255 9.875C10.5255 9.875 10.5088 9.875 10.4755 9.875C10.4422 9.875 10.4172 9.875 10.4005 9.875C10.4005 9.875 10.3838 9.875 10.3505 9.875C10.3838 9.875 10.4005 9.875 10.4005 9.875C10.4172 9.875 10.4422 9.875 10.4755 9.875ZM12.4255 13.925C12.4588 13.925 12.4755 13.925 12.4755 13.925C12.4922 13.925 12.5172 13.925 12.5505 13.925C12.5172 13.925 12.4922 13.925 12.4755 13.925C12.4755 13.925 12.4588 13.925 12.4255 13.925C12.3922 13.925 12.3672 13.925 12.3505 13.925C12.3505 13.925 12.3338 13.925 12.3005 13.925C12.3338 13.925 12.3505 13.925 12.3505 13.925C12.3672 13.925 12.3922 13.925 12.4255 13.925Z" fill="black"/>
</g>
<defs>
<clipPath id="clip0_3186_32498">
<rect width="24" height="24" fill="white"/>
</clipPath>
</defs>
</svg>
