<svg width="24" height="24" viewBox="0 0 24 24" fill="none" xmlns="http://www.w3.org/2000/svg">
<g clip-path="url(#clip0_3186_32730)">
<rect width="24" height="24" fill="white"/>
<path d="M17.6755 9V10.35H6.20049V9H17.6755ZM17.6755 16V17.35H6.20049V16H17.6755ZM16.6005 5.25C17.3338 5.86667 17.8838 6.5 18.2505 7.15C18.6338 7.8 18.8255 8.50833 18.8255 9.275V20C18.8255 20.6333 18.6838 21.1917 18.4005 21.675C18.1172 22.175 17.7172 22.5583 17.2005 22.825C16.6838 23.1083 16.1005 23.25 15.4505 23.25C14.8838 23.25 14.2672 23.1417 13.6005 22.925C13.3505 22.8583 13.0838 22.7917 12.8005 22.725C12.5338 22.675 12.2672 22.65 12.0005 22.65C11.7505 22.65 11.4838 22.675 11.2005 22.725C10.9172 22.7917 10.6505 22.8583 10.4005 22.925C9.73382 23.1417 9.11716 23.25 8.55049 23.25C7.90049 23.25 7.31716 23.1083 6.80049 22.825C6.28382 22.5583 5.88382 22.175 5.60049 21.675C5.31716 21.1917 5.17549 20.6333 5.17549 20V9.275C5.17549 8.50833 5.35882 7.8 5.72549 7.15C6.10882 6.5 6.66716 5.86667 7.40049 5.25L9.20049 3.725H14.8005L16.6005 5.25ZM6.57549 20C6.57549 20.55 6.75882 21 7.12549 21.35C7.49216 21.7167 7.96716 21.9 8.55049 21.9C8.81716 21.9 9.08382 21.8667 9.35049 21.8C9.61716 21.75 9.88382 21.6917 10.1505 21.625C10.4672 21.525 10.7672 21.4417 11.0505 21.375C11.3338 21.325 11.6505 21.3 12.0005 21.3C12.3505 21.3 12.6672 21.325 12.9505 21.375C13.2338 21.4417 13.5338 21.525 13.8505 21.625C14.1172 21.6917 14.3838 21.75 14.6505 21.8C14.9338 21.8667 15.2005 21.9 15.4505 21.9C16.0338 21.9 16.5088 21.7167 16.8755 21.35C17.2422 21 17.4255 20.55 17.4255 20V9.275C17.4255 8.675 17.2838 8.15 17.0005 7.7C16.7172 7.25 16.2838 6.775 15.7005 6.275L14.2505 5.025H9.75049L8.27549 6.25C7.70882 6.73333 7.28382 7.20833 7.00049 7.675C6.71716 8.125 6.57549 8.65833 6.57549 9.275V20ZM13.5505 1.775H10.4505V4.325H9.15049V0.499999H14.8505V4.325H13.5505V1.775Z" fill="black"/>
</g>
<defs>
<clipPath id="clip0_3186_32730">
<rect width="24" height="24" fill="white"/>
</clipPath>
</defs>
</svg>
