<svg width="24" height="24" viewBox="0 0 24 24" fill="none" xmlns="http://www.w3.org/2000/svg">
<g clip-path="url(#clip0_3390_9984)">
<rect width="24" height="24" fill="white"/>
<path d="M12.0005 9.825C11.1172 9.825 10.2338 9.54167 9.35049 8.975C8.68382 8.525 7.97549 8.3 7.22549 8.3C6.49216 8.3 5.78382 8.525 5.10049 8.975L4.52549 8.225C5.40882 7.64167 6.30882 7.35 7.22549 7.35C8.14216 7.35 9.03382 7.64167 9.90049 8.225C10.6172 8.65833 11.3172 8.875 12.0005 8.875C12.6672 8.875 13.3672 8.65833 14.1005 8.225C14.9838 7.64167 15.8755 7.35 16.7755 7.35C17.7088 7.35 18.6088 7.64167 19.4755 8.225L18.9005 8.975C18.2172 8.525 17.5088 8.3 16.7755 8.3C16.0422 8.3 15.3338 8.525 14.6505 8.975C13.7838 9.54167 12.9005 9.825 12.0005 9.825ZM7.45049 22C6.83382 22 6.30049 21.8 5.85049 21.4C5.41716 21.0167 5.17549 20.525 5.12549 19.925L3.52549 2H20.4755L18.8755 19.925C18.8255 20.525 18.5755 21.0167 18.1255 21.4C17.6922 21.8 17.1672 22 16.5505 22H7.45049ZM16.5505 21.075C16.9172 21.075 17.2255 20.9583 17.4755 20.725C17.7422 20.475 17.8922 20.175 17.9255 19.825L19.4255 2.925H4.57549L6.07549 19.825C6.10882 20.175 6.25049 20.475 6.50049 20.725C6.76716 20.9583 7.08382 21.075 7.45049 21.075H16.5505Z" fill="black"/>
</g>
<defs>
<clipPath id="clip0_3390_9984">
<rect width="24" height="24" fill="white"/>
</clipPath>
</defs>
</svg>
