<svg width="24" height="24" viewBox="0 0 24 24" fill="none" xmlns="http://www.w3.org/2000/svg">
<g clip-path="url(#clip0_3390_10008)">
<rect width="24" height="24" fill="white"/>
<path d="M7.55 22C6.9 22 6.34167 21.7917 5.875 21.375C5.40833 20.975 5.15 20.4667 5.1 19.85L3.5 2H20.5L18.9 19.85C18.85 20.4667 18.5917 20.975 18.125 21.375C17.6583 21.7917 17.1 22 16.45 22H7.55ZM15.45 18.55C15.4667 18.55 15.475 18.55 15.475 18.55C15.4917 18.5333 15.5 18.5167 15.5 18.5L16.675 5.45H7.325L8.5 18.5C8.5 18.5167 8.5 18.5333 8.5 18.55C8.51667 18.55 8.53333 18.55 8.55 18.55H15.45ZM7.2 13.05L6.225 10.575C6.925 10.1917 7.675 10 8.475 10C9.30833 10 10.05 10.1917 10.7 10.575C11.2 10.8083 11.6333 10.925 12 10.925C12.4 10.925 12.8333 10.8083 13.3 10.575C13.95 10.1917 14.6917 10 15.525 10C16.3583 10 17.1083 10.1917 17.775 10.575L16.825 13.05L15.475 20.2L8.45 20.15L7.2 13.05Z" fill="black"/>
</g>
<defs>
<clipPath id="clip0_3390_10008">
<rect width="24" height="24" fill="white"/>
</clipPath>
</defs>
</svg>
