<svg width="24" height="24" viewBox="0 0 24 24" fill="none" xmlns="http://www.w3.org/2000/svg">
<g clip-path="url(#clip0_3186_32758)">
<rect width="24" height="24" fill="white"/>
<path d="M8.32549 22C7.44216 22 6.69216 21.725 6.07549 21.175C5.47549 20.6417 5.13382 19.95 5.05049 19.1L3.57549 2H20.4255L18.9505 19.1C18.8672 19.95 18.5172 20.6417 17.9005 21.175C17.3005 21.725 16.5588 22 15.6755 22H8.32549ZM15.6755 20.2C16.0588 20.2 16.3838 20.075 16.6505 19.825C16.9338 19.575 17.0922 19.2583 17.1255 18.875L18.4005 3.8H5.60049L6.87549 18.875C6.90882 19.2583 7.05882 19.575 7.32549 19.825C7.60882 20.075 7.94216 20.2 8.32549 20.2H15.6755ZM12.0005 8.875C11.5005 8.875 11.0588 8.81667 10.6755 8.7C10.3088 8.56667 9.90882 8.375 9.47549 8.125C9.09216 7.90833 8.75049 7.75 8.45049 7.65C8.16716 7.55 7.85049 7.5 7.50049 7.5C7.21716 7.5 6.94216 7.54167 6.67549 7.625C6.40882 7.70833 6.14216 7.83333 5.87549 8L4.65049 6.6C5.10049 6.3 5.55882 6.08333 6.02549 5.95C6.50882 5.8 7.00049 5.725 7.50049 5.725C8.03382 5.725 8.50049 5.79167 8.90049 5.925C9.30049 6.05833 9.75049 6.25833 10.2505 6.525C10.6505 6.725 10.9672 6.875 11.2005 6.975C11.4505 7.05833 11.7172 7.1 12.0005 7.1C12.3338 7.1 12.6255 7.05 12.8755 6.95C13.1255 6.85 13.4338 6.7 13.8005 6.5C14.3005 6.23333 14.7338 6.04167 15.1005 5.925C15.4672 5.79167 15.9338 5.725 16.5005 5.725C17.0005 5.725 17.4922 5.8 17.9755 5.95C18.4755 6.08333 18.9422 6.3 19.3755 6.6L18.1255 8C17.8588 7.83333 17.5922 7.70833 17.3255 7.625C17.0588 7.54167 16.7755 7.5 16.4755 7.5C16.1255 7.5 15.8088 7.55 15.5255 7.65C15.2588 7.75 14.9422 7.90833 14.5755 8.125C14.0922 8.375 13.6672 8.56667 13.3005 8.7C12.9505 8.81667 12.5172 8.875 12.0005 8.875ZM10.4505 17.9C10.0672 17.9 9.74216 17.775 9.47549 17.525C9.22549 17.2583 9.10049 16.925 9.10049 16.525C9.10049 16.1417 9.22549 15.8167 9.47549 15.55C9.74216 15.2833 10.0672 15.15 10.4505 15.15C10.8505 15.15 11.1838 15.2833 11.4505 15.55C11.7172 15.8167 11.8505 16.1417 11.8505 16.525C11.8505 16.925 11.7172 17.2583 11.4505 17.525C11.1838 17.775 10.8505 17.9 10.4505 17.9ZM14.2005 15.675C13.8005 15.675 13.4672 15.5417 13.2005 15.275C12.9505 15.0083 12.8255 14.6833 12.8255 14.3C12.8255 13.9167 12.9505 13.5917 13.2005 13.325C13.4672 13.0583 13.8005 12.925 14.2005 12.925C14.5838 12.925 14.9088 13.0583 15.1755 13.325C15.4422 13.5917 15.5755 13.9167 15.5755 14.3C15.5755 14.6833 15.4422 15.0083 15.1755 15.275C14.9088 15.5417 14.5838 15.675 14.2005 15.675ZM10.4505 13.45C10.0672 13.45 9.74216 13.325 9.47549 13.075C9.22549 12.8083 9.10049 12.4833 9.10049 12.1C9.10049 11.7 9.22549 11.3667 9.47549 11.1C9.74216 10.8333 10.0672 10.7 10.4505 10.7C10.8505 10.7 11.1838 10.8333 11.4505 11.1C11.7172 11.3667 11.8505 11.7 11.8505 12.1C11.8505 12.4833 11.7172 12.8083 11.4505 13.075C11.1838 13.325 10.8505 13.45 10.4505 13.45Z" fill="black"/>
</g>
<defs>
<clipPath id="clip0_3186_32758">
<rect width="24" height="24" fill="white"/>
</clipPath>
</defs>
</svg>
