<svg width="24" height="24" viewBox="0 0 24 24" fill="none" xmlns="http://www.w3.org/2000/svg">
<g clip-path="url(#clip0_3186_32972)">
<rect width="24" height="24" fill="white"/>
<path d="M7.52549 21C6.54216 21 5.71716 20.6917 5.05049 20.075C4.38382 19.4583 4.00882 18.6583 3.92549 17.675L2.75049 3H18.6255L17.4505 17.675C17.3838 18.6417 17.0088 19.4417 16.3255 20.075C15.6422 20.6917 14.8088 21 13.8255 21H7.52549ZM13.5255 17.55C13.6422 17.55 13.7422 17.5083 13.8255 17.425C13.9088 17.325 13.9588 17.2083 13.9755 17.075L14.8505 6.45H6.52549L7.40049 17.075C7.41716 17.2083 7.46716 17.325 7.55049 17.425C7.63382 17.5083 7.73382 17.55 7.85049 17.55H13.5255ZM16.8005 11.5H18.7505C19.1005 11.5 19.4005 11.3417 19.6505 11.025C19.9172 10.6917 20.1172 10.2667 20.2505 9.75C20.4005 9.21667 20.4755 8.675 20.4755 8.125C20.4755 7.50833 20.3422 7.03333 20.0755 6.7C19.8088 6.36667 19.4255 6.2 18.9255 6.2H17.5505V3H18.8755C20.4255 3 21.6172 3.45 22.4505 4.35C23.2838 5.23333 23.7005 6.49167 23.7005 8.125C23.7005 9.325 23.4922 10.425 23.0755 11.425C22.6755 12.425 22.1005 13.225 21.3505 13.825C20.6005 14.4083 19.7338 14.7 18.7505 14.7H16.8005V11.5Z" fill="black"/>
</g>
<defs>
<clipPath id="clip0_3186_32972">
<rect width="24" height="24" fill="white"/>
</clipPath>
</defs>
</svg>
