<svg width="24" height="24" viewBox="0 0 24 24" fill="none" xmlns="http://www.w3.org/2000/svg">
<g clip-path="url(#clip0_3186_32984)">
<rect width="24" height="24" fill="white"/>
<path d="M7.525 21C6.50833 21 5.675 20.7 5.025 20.1C4.375 19.5 4.00833 18.6917 3.925 17.675L2.75 3H18.625L17.45 17.675C17.3667 18.6917 17 19.5 16.35 20.1C15.7 20.7 14.8583 21 13.825 21H7.525ZM16.825 11.925H18.8C19.2167 11.925 19.5917 11.7417 19.925 11.375C20.2583 11.0083 20.5167 10.5333 20.7 9.95C20.8833 9.35 20.975 8.74167 20.975 8.125C20.975 7.24167 20.8 6.63333 20.45 6.3C20.1167 5.95 19.6167 5.775 18.95 5.775H17.575V3H18.9C20.4 3 21.575 3.425 22.425 4.275C23.2917 5.125 23.725 6.40833 23.725 8.125C23.725 9.30833 23.5167 10.4 23.1 11.4C22.6833 12.4 22.1 13.2 21.35 13.8C20.6167 14.4 19.7667 14.7 18.8 14.7H16.825V11.925Z" fill="black"/>
</g>
<defs>
<clipPath id="clip0_3186_32984">
<rect width="24" height="24" fill="white"/>
</clipPath>
</defs>
</svg>
