<svg width="24" height="24" viewBox="0 0 24 24" fill="none" xmlns="http://www.w3.org/2000/svg">
<g clip-path="url(#clip0_3186_32972)">
<rect width="24" height="24" fill="white"/>
<path d="M7.35049 21C6.36716 21 5.54216 20.6917 4.87549 20.075C4.20882 19.4583 3.83382 18.6583 3.75049 17.675L2.50049 3H18.7255L17.4755 17.675C17.3922 18.6583 17.0088 19.4583 16.3255 20.075C15.6588 20.6917 14.8338 21 13.8505 21H7.35049ZM13.8005 17.4C13.8172 17.4 13.8255 17.4 13.8255 17.4C13.8422 17.3833 13.8505 17.3667 13.8505 17.35L14.7755 6.6H6.45049L7.37549 17.35C7.37549 17.3667 7.37549 17.3833 7.37549 17.4C7.39216 17.4 7.40882 17.4 7.42549 17.4H13.8005ZM16.8005 12.2H18.7255C19.0922 12.2 19.4172 12.1167 19.7005 11.95C20.0005 11.7833 20.2338 11.5583 20.4005 11.275C20.5838 10.9917 20.6755 10.6833 20.6755 10.35C20.6755 10.0167 20.5838 9.71667 20.4005 9.45C20.2338 9.16667 20.0005 8.95 19.7005 8.8C19.4172 8.63333 19.0922 8.55 18.7255 8.55H17.3005V5.25H18.7255C19.6922 5.25 20.5755 5.475 21.3755 5.925C22.1922 6.375 22.8338 6.99167 23.3005 7.775C23.7672 8.55833 24.0005 9.41667 24.0005 10.35C24.0005 11.3 23.7672 12.1667 23.3005 12.95C22.8338 13.7333 22.1922 14.3583 21.3755 14.825C20.5755 15.275 19.6922 15.5 18.7255 15.5H16.8005V12.2Z" fill="black"/>
</g>
<defs>
<clipPath id="clip0_3186_32972">
<rect width="24" height="24" fill="white"/>
</clipPath>
</defs>
</svg>
