<svg width="24" height="24" viewBox="0 0 24 24" fill="none" xmlns="http://www.w3.org/2000/svg">
<g clip-path="url(#clip0_3186_32962)">
<rect width="24" height="24" fill="white"/>
<path d="M7.22549 21C6.25882 21 5.45882 20.7083 4.82549 20.125C4.19215 19.5417 3.83382 18.7667 3.75049 17.8L2.50049 3H18.9755L17.7255 17.8C17.6422 18.7667 17.2838 19.5417 16.6505 20.125C16.0172 20.7083 15.2088 21 14.2255 21H7.22549ZM14.2255 20.05C14.9422 20.05 15.5172 19.8417 15.9505 19.425C16.4005 18.9917 16.6588 18.425 16.7255 17.725L17.9005 3.95H3.57549L4.75049 17.725C4.81716 18.425 5.06716 18.9917 5.50049 19.425C5.95049 19.8417 6.52549 20.05 7.22549 20.05H14.2255ZM17.2755 14.225H19.1755C19.8922 14.225 20.5422 14.0583 21.1255 13.725C21.7255 13.3917 22.1922 12.925 22.5255 12.325C22.8588 11.725 23.0255 11.0583 23.0255 10.325C23.0255 9.60833 22.8588 8.95 22.5255 8.35C22.1922 7.75 21.7255 7.28333 21.1255 6.95C20.5422 6.6 19.8922 6.425 19.1755 6.425H18.1005V5.5H19.1755C20.0755 5.5 20.8922 5.71667 21.6255 6.15C22.3588 6.56667 22.9338 7.14167 23.3505 7.875C23.7838 8.60833 24.0005 9.425 24.0005 10.325C24.0005 11.225 23.7838 12.05 23.3505 12.8C22.9338 13.5333 22.3588 14.1167 21.6255 14.55C20.8922 14.9667 20.0755 15.175 19.1755 15.175H17.2755V14.225Z" fill="black"/>
</g>
<defs>
<clipPath id="clip0_3186_32962">
<rect width="24" height="24" fill="white"/>
</clipPath>
</defs>
</svg>
