<svg width="24" height="24" viewBox="0 0 24 24" fill="none" xmlns="http://www.w3.org/2000/svg">
<g clip-path="url(#clip0_3186_32980)">
<rect width="24" height="24" fill="white"/>
<path d="M16.85 13.65H19C19.6 13.65 20.1333 13.5167 20.6 13.25C21.0667 12.9833 21.4333 12.6167 21.7 12.15C21.9667 11.6667 22.1 11.1167 22.1 10.5C22.1 9.88333 21.9667 9.34167 21.7 8.875C21.4333 8.39167 21.0667 8.01667 20.6 7.75C20.1333 7.48333 19.6 7.35 19 7.35H17.6V5.5H19C19.9667 5.5 20.825 5.71667 21.575 6.15C22.3417 6.56667 22.9333 7.15833 23.35 7.925C23.7833 8.675 24 9.53333 24 10.5C24 11.4667 23.7833 12.3333 23.35 13.1C22.9333 13.85 22.3417 14.4417 21.575 14.875C20.825 15.2917 19.9667 15.5 19 15.5H16.85V13.65ZM6.975 21C6.10833 21 5.375 20.725 4.775 20.175C4.19167 19.625 3.85833 18.9167 3.775 18.05L2.5 3H18.975L17.7 18.05C17.6167 18.9167 17.275 19.625 16.675 20.175C16.075 20.725 15.3417 21 14.475 21H6.975Z" fill="black"/>
</g>
<defs>
<clipPath id="clip0_3186_32980">
<rect width="24" height="24" fill="white"/>
</clipPath>
</defs>
</svg>
