<svg width="24" height="24" viewBox="0 0 24 24" fill="none" xmlns="http://www.w3.org/2000/svg">
<g clip-path="url(#clip0_3186_32968)">
<rect width="24" height="24" fill="white"/>
<path d="M7.10049 21C6.20049 21 5.44216 20.7167 4.82549 20.15C4.20882 19.5667 3.85882 18.825 3.77549 17.925L2.50049 3H18.9005L17.6255 17.925C17.5422 18.825 17.1838 19.5667 16.5505 20.15C15.9338 20.7167 15.1755 21 14.2755 21H7.10049ZM14.2505 18.525C14.4838 18.525 14.6755 18.45 14.8255 18.3C14.9922 18.1333 15.0922 17.925 15.1255 17.675L16.1505 5.475H5.22549L6.27549 17.675C6.29216 17.925 6.37549 18.1333 6.52549 18.3C6.69216 18.45 6.89216 18.525 7.12549 18.525H14.2505ZM16.8255 13.175H18.9005C19.4338 13.175 19.9005 13.0583 20.3005 12.825C20.7172 12.5917 21.0422 12.2667 21.2755 11.85C21.5088 11.4333 21.6255 10.9667 21.6255 10.45C21.6255 9.93333 21.5088 9.475 21.2755 9.075C21.0422 8.65833 20.7172 8.33333 20.3005 8.1C19.9005 7.86667 19.4338 7.75 18.9005 7.75H17.5005V5.425H18.9005C19.8672 5.425 20.7338 5.64167 21.5005 6.075C22.2838 6.50833 22.8922 7.10833 23.3255 7.875C23.7755 8.64167 24.0005 9.5 24.0005 10.45C24.0005 11.4167 23.7755 12.2833 23.3255 13.05C22.8922 13.8167 22.2838 14.4167 21.5005 14.85C20.7338 15.2833 19.8672 15.5 18.9005 15.5H16.8255V13.175Z" fill="black"/>
</g>
<defs>
<clipPath id="clip0_3186_32968">
<rect width="24" height="24" fill="white"/>
</clipPath>
</defs>
</svg>
