<svg width="24" height="24" viewBox="0 0 24 24" fill="none" xmlns="http://www.w3.org/2000/svg">
<g clip-path="url(#clip0_3186_32982)">
<rect width="24" height="24" fill="white"/>
<path d="M7.525 21C6.50833 21 5.675 20.7 5.025 20.1C4.375 19.5 4.00833 18.6917 3.925 17.675L2.75 3H18.625L17.45 17.675C17.3667 18.6917 17 19.5 16.35 20.1C15.7 20.7 14.8583 21 13.825 21H7.525ZM16.825 12.375H18.875C19.3583 12.375 19.7917 12.175 20.175 11.775C20.5583 11.3583 20.8583 10.825 21.075 10.175C21.2917 9.50833 21.4 8.825 21.4 8.125C21.4 7.125 21.1833 6.40833 20.75 5.975C20.3333 5.54167 19.7333 5.325 18.95 5.325H17.575V3H18.9C20.4 3 21.575 3.43333 22.425 4.3C23.2917 5.15 23.725 6.425 23.725 8.125C23.725 9.29167 23.5167 10.3833 23.1 11.4C22.7 12.4 22.125 13.2 21.375 13.8C20.6417 14.4 19.8083 14.7 18.875 14.7H16.825V12.375Z" fill="black"/>
</g>
<defs>
<clipPath id="clip0_3186_32982">
<rect width="24" height="24" fill="white"/>
</clipPath>
</defs>
</svg>
