<svg width="24" height="24" viewBox="0 0 24 24" fill="none" xmlns="http://www.w3.org/2000/svg">
<g clip-path="url(#clip0_3186_32966)">
<rect width="24" height="24" fill="white"/>
<path d="M6.97549 21C6.10882 21 5.37549 20.725 4.77549 20.175C4.19216 19.625 3.85882 18.9167 3.77549 18.05L2.50049 3H18.9755L17.7005 18.05C17.6172 18.9167 17.2755 19.625 16.6755 20.175C16.0755 20.725 15.3422 21 14.4755 21H6.97549ZM14.4755 19.1C14.8255 19.1 15.1172 18.9833 15.3505 18.75C15.5838 18.5167 15.7172 18.2167 15.7505 17.85L16.8505 4.9H4.62549L5.72549 17.85C5.75882 18.2167 5.89216 18.5167 6.12549 18.75C6.35882 18.9833 6.64216 19.1 6.97549 19.1H14.4755ZM16.8505 13.65H19.0005C19.6005 13.65 20.1338 13.5167 20.6005 13.25C21.0672 12.9833 21.4338 12.6167 21.7005 12.15C21.9672 11.6667 22.1005 11.1167 22.1005 10.5C22.1005 9.88333 21.9672 9.34167 21.7005 8.875C21.4338 8.39167 21.0672 8.01667 20.6005 7.75C20.1338 7.48333 19.6005 7.35 19.0005 7.35H17.6005V5.5H19.0005C19.9672 5.5 20.8255 5.71667 21.5755 6.15C22.3422 6.56667 22.9338 7.15833 23.3505 7.925C23.7838 8.675 24.0005 9.53333 24.0005 10.5C24.0005 11.4667 23.7838 12.3333 23.3505 13.1C22.9338 13.85 22.3422 14.4417 21.5755 14.875C20.8255 15.2917 19.9672 15.5 19.0005 15.5H16.8505V13.65Z" fill="black"/>
</g>
<defs>
<clipPath id="clip0_3186_32966">
<rect width="24" height="24" fill="white"/>
</clipPath>
</defs>
</svg>
