<svg width="24" height="24" viewBox="0 0 24 24" fill="none" xmlns="http://www.w3.org/2000/svg">
<g clip-path="url(#clip0_3186_32766)">
<rect width="24" height="24" fill="white"/>
<path d="M7.025 22C6.54167 22 6.11667 21.8417 5.75 21.525C5.4 21.225 5.2 20.8333 5.15 20.35L3.5 2H20.5L18.85 20.35C18.8 20.8333 18.5917 21.225 18.225 21.525C17.875 21.8417 17.4583 22 16.975 22H7.025ZM16.975 21.525C17.1417 21.525 17.2917 21.5 17.425 21.45C17.575 21.4 17.7083 21.3333 17.825 21.25C18.1417 21.0333 18.3167 20.725 18.35 20.325L19.95 2.475H4.05L5.65 20.325C5.68333 20.725 5.85833 21.0333 6.175 21.25C6.29167 21.3333 6.41667 21.4 6.55 21.45C6.7 21.5 6.85833 21.525 7.025 21.525H16.975ZM5.55 21.1L4.35 6.65C5.23333 6.08333 6.11667 5.8 7 5.8C7.88333 5.8 8.76667 6.08333 9.65 6.65C10.4333 7.15 11.2167 7.4 12 7.4C12.8167 7.4 13.6 7.15 14.35 6.65C15.25 6.08333 16.1417 5.8 17.025 5.8C17.8917 5.8 18.7667 6.08333 19.65 6.65L18.325 21.375L16.825 21.75H7L5.55 21.1ZM9.95 18.225C10.0833 18.225 10.2 18.175 10.3 18.075C10.4 17.975 10.45 17.8583 10.45 17.725C10.45 17.5917 10.4 17.475 10.3 17.375C10.2 17.275 10.0833 17.225 9.95 17.225C9.81667 17.225 9.7 17.275 9.6 17.375C9.5 17.475 9.45 17.5917 9.45 17.725C9.45 17.8583 9.5 17.975 9.6 18.075C9.7 18.175 9.81667 18.225 9.95 18.225ZM14.95 15.075C15.0833 15.075 15.2 15.025 15.3 14.925C15.4 14.825 15.45 14.7083 15.45 14.575C15.45 14.4417 15.4 14.325 15.3 14.225C15.2 14.125 15.0833 14.075 14.95 14.075C14.8167 14.075 14.7 14.125 14.6 14.225C14.5 14.325 14.45 14.4417 14.45 14.575C14.45 14.7083 14.5 14.825 14.6 14.925C14.7 15.025 14.8167 15.075 14.95 15.075ZM9.95 11.925C10.0833 11.925 10.2 11.875 10.3 11.775C10.4 11.675 10.45 11.5583 10.45 11.425C10.45 11.2917 10.4 11.175 10.3 11.075C10.2 10.975 10.0833 10.925 9.95 10.925C9.81667 10.925 9.7 10.975 9.6 11.075C9.5 11.175 9.45 11.2917 9.45 11.425C9.45 11.5583 9.5 11.675 9.6 11.775C9.7 11.875 9.81667 11.925 9.95 11.925Z" fill="black"/>
</g>
<defs>
<clipPath id="clip0_3186_32766">
<rect width="24" height="24" fill="white"/>
</clipPath>
</defs>
</svg>
