<svg width="24" height="24" viewBox="0 0 24 24" fill="none" xmlns="http://www.w3.org/2000/svg">
<g clip-path="url(#clip0_3186_32764)">
<rect width="24" height="24" fill="white"/>
<path d="M7.55049 22C6.90049 22 6.34216 21.7917 5.87549 21.375C5.40882 20.975 5.15049 20.4667 5.10049 19.85L3.50049 2H20.5005L18.9005 19.85C18.8505 20.4667 18.5922 20.975 18.1255 21.375C17.6588 21.7917 17.1005 22 16.4505 22H7.55049ZM15.4505 18.55C15.4672 18.55 15.4755 18.55 15.4755 18.55C15.4922 18.5333 15.5005 18.5167 15.5005 18.5L16.6755 5.45H7.32549L8.50049 18.5C8.50049 18.5167 8.50049 18.5333 8.50049 18.55C8.51716 18.55 8.53382 18.55 8.55049 18.55H15.4505ZM12.0005 3.5C11.9838 3.5 11.9755 3.5 11.9755 3.5C11.9755 3.5 11.9672 3.5 11.9505 3.5C11.9505 3.5 11.9422 3.5 11.9255 3.5C11.9255 3.5 11.9172 3.5 11.9005 3.5H11.8755C11.8922 3.5 11.9005 3.5 11.9005 3.5C11.9005 3.5 11.9088 3.5 11.9255 3.5C11.9422 3.5 11.9505 3.5 11.9505 3.5C11.9505 3.5 11.9588 3.5 11.9755 3.5C11.9922 3.5 12.0005 3.5 12.0005 3.5C12.0172 3.5 12.0255 3.5 12.0255 3.5C12.0422 3.5 12.0505 3.5 12.0505 3.5C12.0505 3.5 12.0588 3.5 12.0755 3.5C12.0922 3.5 12.1005 3.5 12.1005 3.5C12.1005 3.5 12.1088 3.5 12.1255 3.5H12.1005C12.1005 3.5 12.0922 3.5 12.0755 3.5C12.0755 3.5 12.0672 3.5 12.0505 3.5C12.0338 3.5 12.0255 3.5 12.0255 3.5C12.0255 3.5 12.0172 3.5 12.0005 3.5ZM11.3505 16.575C10.7838 16.575 10.3005 16.375 9.90049 15.975C9.50049 15.575 9.30049 15.0917 9.30049 14.525C9.30049 13.9583 9.50049 13.475 9.90049 13.075C10.3005 12.675 10.7838 12.475 11.3505 12.475C11.9172 12.475 12.4005 12.675 12.8005 13.075C13.2005 13.475 13.4005 13.9583 13.4005 14.525C13.4005 15.0917 13.2005 15.575 12.8005 15.975C12.4172 16.375 11.9338 16.575 11.3505 16.575ZM13.1255 11.5C12.5588 11.5 12.0755 11.3 11.6755 10.9C11.2755 10.5 11.0755 10.0083 11.0755 9.425C11.0755 8.85833 11.2755 8.38333 11.6755 8C12.0755 7.6 12.5588 7.4 13.1255 7.4C13.7088 7.4 14.1922 7.6 14.5755 8C14.9755 8.38333 15.1755 8.85833 15.1755 9.425C15.1755 10.0083 14.9755 10.5 14.5755 10.9C14.1755 11.3 13.6922 11.5 13.1255 11.5ZM13.2505 10.175C13.0338 10.175 12.8588 10.1083 12.7255 9.975C12.6088 9.84167 12.5505 9.675 12.5505 9.475C12.5505 9.25833 12.6088 9.09167 12.7255 8.975C12.8588 8.84167 13.0338 8.775 13.2505 8.775C13.4505 8.775 13.6172 8.84167 13.7505 8.975C13.8838 9.09167 13.9505 9.25833 13.9505 9.475C13.9505 9.675 13.8838 9.84167 13.7505 9.975C13.6172 10.1083 13.4505 10.175 13.2505 10.175Z" fill="black"/>
</g>
<defs>
<clipPath id="clip0_3186_32764">
<rect width="24" height="24" fill="white"/>
</clipPath>
</defs>
</svg>
