<svg width="24" height="24" viewBox="0 0 24 24" fill="none" xmlns="http://www.w3.org/2000/svg">
<g clip-path="url(#clip0_3186_32620)">
<rect width="24" height="24" fill="white"/>
<path d="M18.15 21.425C17.7333 21.8083 17.225 22 16.625 22H7.375C6.775 22 6.25833 21.8083 5.825 21.425C5.40833 21.0583 5.175 20.5917 5.125 20.025L3.5 2H20.5L18.875 20.025C18.825 20.5917 18.5833 21.0583 18.15 21.425ZM17.25 4.925H6.75L7 7.75C7.38333 7.63333 7.78333 7.575 8.2 7.575C9.05 7.575 9.85 7.8 10.6 8.25C11.0333 8.51667 11.5 8.65 12 8.65C12.5 8.65 12.9667 8.51667 13.4 8.25C14.1167 7.8 14.9167 7.575 15.8 7.575C16.2167 7.575 16.6167 7.63333 17 7.75L17.25 4.925ZM13.15 10.925H10.85L11.125 13.425L9.1 11.925L7.95 13.925L10.25 14.925L7.95 15.925L9.1 17.925L11.125 16.425L10.85 18.925H13.15L12.875 16.425L14.9 17.925L16.05 15.925L13.75 14.925L16.05 13.925L14.9 11.925L12.875 13.425L13.15 10.925Z" fill="black"/>
</g>
<defs>
<clipPath id="clip0_3186_32620">
<rect width="24" height="24" fill="white"/>
</clipPath>
</defs>
</svg>
