<svg width="24" height="24" viewBox="0 0 24 24" fill="none" xmlns="http://www.w3.org/2000/svg">
<g clip-path="url(#clip0_3186_32668)">
<rect width="24" height="24" fill="white"/>
<path d="M18.225 21.525C17.875 21.8417 17.4583 22 16.975 22H7.025C6.54167 22 6.11667 21.8417 5.75 21.525C5.4 21.225 5.2 20.8333 5.15 20.35L3.5 2H20.5L18.85 20.35C18.8 20.8333 18.5917 21.225 18.225 21.525ZM18.4 3.85H5.6L5.9 7.1C6.46667 6.86667 7.05 6.75 7.65 6.75C8.65 6.75 9.575 7.04167 10.425 7.625C10.8917 7.95833 11.4167 8.125 12 8.125C12.5667 8.125 13.0917 7.95833 13.575 7.625C14.425 7.04167 15.35 6.75 16.35 6.75C16.9667 6.75 17.55 6.85833 18.1 7.075L18.4 3.85ZM12.6 16.475C12.6167 17.2583 12.8583 17.9417 13.325 18.525H15.275C14.8417 17.975 14.5833 17.4 14.5 16.8C14.4333 16.1833 14.55 15.6333 14.85 15.15C15.2333 14.5333 15.4167 13.8417 15.4 13.075C15.3833 12.2917 15.1417 11.6083 14.675 11.025H12.7C13.1833 11.6083 13.45 12.2 13.5 12.8C13.5667 13.3833 13.45 13.9167 13.15 14.4C12.7667 15 12.5833 15.6917 12.6 16.475ZM8.3 16.475C8.31667 17.2583 8.55833 17.9417 9.025 18.525H10.975C10.5417 17.9917 10.2917 17.425 10.225 16.825C10.1583 16.225 10.2667 15.6667 10.55 15.15C10.9167 14.5167 11.0917 13.8167 11.075 13.05C11.075 12.2667 10.8417 11.5917 10.375 11.025H8.4C8.88333 11.6083 9.15 12.2 9.2 12.8C9.26667 13.3833 9.15 13.9167 8.85 14.4C8.46667 15 8.28333 15.6917 8.3 16.475Z" fill="black"/>
</g>
<defs>
<clipPath id="clip0_3186_32668">
<rect width="24" height="24" fill="white"/>
</clipPath>
</defs>
</svg>
