<svg width="24" height="24" viewBox="0 0 24 24" fill="none" xmlns="http://www.w3.org/2000/svg">
<g clip-path="url(#clip0_3186_32664)">
<rect width="24" height="24" fill="white"/>
<path d="M18.225 21.525C17.875 21.8417 17.4583 22 16.975 22H7.025C6.54167 22 6.11667 21.8417 5.75 21.525C5.4 21.225 5.2 20.8333 5.15 20.35L3.5 2H20.5L18.85 20.35C18.8 20.8333 18.5917 21.225 18.225 21.525ZM19.425 2.925H4.575L4.9 6.625C5.66667 6.175 6.44167 5.95 7.225 5.95C8.14167 5.95 9.03333 6.23333 9.9 6.8C10.5833 7.25 11.2833 7.475 12 7.475C12.6833 7.475 13.3833 7.25 14.1 6.8C14.9833 6.23333 15.875 5.95 16.775 5.95C17.5583 5.95 18.3333 6.16667 19.1 6.6L19.425 2.925ZM14.775 15.8C14.8917 16.15 14.95 16.6417 14.95 17.275V17.675H15.875V17.275C15.875 16.4917 15.8 15.875 15.65 15.425C15.5167 14.975 15.35 14.65 15.15 14.45C14.9667 14.25 14.7167 14.0583 14.4 13.875C14.1 13.6917 13.8667 13.5167 13.7 13.35C13.5333 13.1833 13.3917 12.9167 13.275 12.55C13.1583 12.1833 13.1 11.6833 13.1 11.05V10.675H12.175V11.05C12.175 11.8333 12.2417 12.45 12.375 12.9C12.5083 13.35 12.6667 13.6833 12.85 13.9C13.05 14.1 13.3167 14.2917 13.65 14.475C13.9333 14.6417 14.1583 14.8167 14.325 15C14.5083 15.1667 14.6583 15.4333 14.775 15.8ZM10.55 15.775C10.6667 16.1417 10.725 16.6417 10.725 17.275V17.675H11.675V17.275C11.675 16.4917 11.6083 15.875 11.475 15.425C11.3417 14.975 11.175 14.65 10.975 14.45C10.7917 14.25 10.5333 14.0583 10.2 13.875C9.91667 13.6917 9.68333 13.5167 9.5 13.35C9.33333 13.1833 9.19167 12.925 9.075 12.575C8.95833 12.2083 8.9 11.7 8.9 11.05V10.675H7.95V11.05C7.95 11.8333 8.01667 12.45 8.15 12.9C8.28333 13.35 8.44167 13.6833 8.625 13.9C8.825 14.1 9.09167 14.2917 9.425 14.475C9.70833 14.6417 9.93333 14.8083 10.1 14.975C10.2833 15.1417 10.4333 15.4083 10.55 15.775Z" fill="black"/>
</g>
<defs>
<clipPath id="clip0_3186_32664">
<rect width="24" height="24" fill="white"/>
</clipPath>
</defs>
</svg>
