<svg width="24" height="24" viewBox="0 0 24 24" fill="none" xmlns="http://www.w3.org/2000/svg">
<g clip-path="url(#clip0_3186_32756)">
<rect width="24" height="24" fill="white"/>
<path d="M7.90049 22C7.15049 22 6.50882 21.7667 5.97549 21.3C5.45882 20.8333 5.15882 20.2417 5.07549 19.525L3.55049 2H20.4505L18.9255 19.525C18.8422 20.2417 18.5338 20.8333 18.0005 21.3C17.4838 21.7667 16.8505 22 16.1005 22H7.90049ZM16.1005 20.65C16.4838 20.65 16.8088 20.525 17.0755 20.275C17.3422 20.025 17.4922 19.7167 17.5255 19.35L18.9255 3.35H5.07549L6.47549 19.35C6.50882 19.7167 6.65882 20.025 6.92549 20.275C7.19216 20.525 7.51716 20.65 7.90049 20.65H16.1005ZM12.0005 8.45C11.4838 8.45 11.0338 8.39167 10.6505 8.275C10.2838 8.14167 9.87549 7.94167 9.42549 7.675C9.00882 7.44167 8.64216 7.275 8.32549 7.175C8.00882 7.05833 7.65882 7 7.27549 7C6.95882 7 6.64216 7.05 6.32549 7.15C6.00882 7.25 5.69216 7.4 5.37549 7.6L4.47549 6.525C4.90882 6.24167 5.35882 6.03333 5.82549 5.9C6.30882 5.75 6.79216 5.675 7.27549 5.675C7.80882 5.675 8.26716 5.74167 8.65049 5.875C9.05049 6.00833 9.50049 6.20833 10.0005 6.475C10.4338 6.69167 10.7838 6.85833 11.0505 6.975C11.3338 7.075 11.6505 7.125 12.0005 7.125C12.3838 7.125 12.7172 7.06667 13.0005 6.95C13.2838 6.83333 13.6338 6.66667 14.0505 6.45C14.5505 6.18333 14.9838 5.99167 15.3505 5.875C15.7172 5.74167 16.1755 5.675 16.7255 5.675C17.2088 5.675 17.6922 5.75 18.1755 5.9C18.6588 6.03333 19.1172 6.24167 19.5505 6.525L18.6255 7.6C18.3088 7.4 17.9922 7.25 17.6755 7.15C17.3755 7.05 17.0505 7 16.7005 7C16.3172 7 15.9672 7.05833 15.6505 7.175C15.3505 7.29167 15.0088 7.45833 14.6255 7.675C14.1255 7.94167 13.6922 8.14167 13.3255 8.275C12.9588 8.39167 12.5172 8.45 12.0005 8.45ZM10.3255 18.1C10.0255 18.1 9.77549 18 9.57549 17.8C9.37549 17.5833 9.27549 17.3167 9.27549 17C9.27549 16.7 9.37549 16.45 9.57549 16.25C9.77549 16.0333 10.0255 15.925 10.3255 15.925C10.6422 15.925 10.9005 16.0333 11.1005 16.25C11.3172 16.45 11.4255 16.7 11.4255 17C11.4255 17.3167 11.3172 17.5833 11.1005 17.8C10.9005 18 10.6422 18.1 10.3255 18.1ZM14.3255 15.475C14.0255 15.475 13.7672 15.375 13.5505 15.175C13.3505 14.9583 13.2505 14.7 13.2505 14.4C13.2505 14.1 13.3505 13.8417 13.5505 13.625C13.7672 13.4083 14.0255 13.3 14.3255 13.3C14.6255 13.3 14.8838 13.4083 15.1005 13.625C15.3172 13.8417 15.4255 14.1 15.4255 14.4C15.4255 14.7 15.3172 14.9583 15.1005 15.175C14.8838 15.375 14.6255 15.475 14.3255 15.475ZM10.3255 12.85C10.0255 12.85 9.77549 12.75 9.57549 12.55C9.37549 12.35 9.27549 12.1 9.27549 11.8C9.27549 11.4833 9.37549 11.225 9.57549 11.025C9.77549 10.8083 10.0255 10.7 10.3255 10.7C10.6422 10.7 10.9005 10.8083 11.1005 11.025C11.3172 11.225 11.4255 11.4833 11.4255 11.8C11.4255 12.1 11.3172 12.35 11.1005 12.55C10.9005 12.75 10.6422 12.85 10.3255 12.85Z" fill="black"/>
</g>
<defs>
<clipPath id="clip0_3186_32756">
<rect width="24" height="24" fill="white"/>
</clipPath>
</defs>
</svg>
