<svg width="24" height="24" viewBox="0 0 24 24" fill="none" xmlns="http://www.w3.org/2000/svg">
<g clip-path="url(#clip0_3186_32608)">
<rect width="24" height="24" fill="white"/>
<path d="M13.0755 8.3L13.0005 9.875L14.2755 9.025L15.4005 10.9L14.0005 11.6L15.4005 12.325L14.2755 14.2L13.0005 13.35L13.0755 14.925H10.8755L10.9755 13.35L9.67549 14.2L8.55049 12.325L9.95049 11.6L8.55049 10.9L9.67549 9.025L10.9755 9.875L10.8755 8.3H13.0755ZM7.55049 22C6.90049 22 6.34216 21.7917 5.87549 21.375C5.40882 20.975 5.15049 20.4667 5.10049 19.85L3.50049 2H20.5005L18.9005 19.85C18.8505 20.4667 18.5922 20.975 18.1255 21.375C17.6588 21.7917 17.1005 22 16.4505 22H7.55049ZM15.4255 18.525C15.4422 18.525 15.4505 18.525 15.4505 18.525C15.4505 18.5083 15.4505 18.4917 15.4505 18.475L16.6255 5.475H7.37549L8.55049 18.475C8.55049 18.4917 8.55049 18.5083 8.55049 18.525C8.55049 18.525 8.55882 18.525 8.57549 18.525H15.4255ZM12.0005 3.5C11.9838 3.5 11.9755 3.5 11.9755 3.5C11.9755 3.5 11.9672 3.5 11.9505 3.5C11.9505 3.5 11.9422 3.5 11.9255 3.5C11.9255 3.5 11.9172 3.5 11.9005 3.5H11.8755C11.8922 3.5 11.9005 3.5 11.9005 3.5C11.9005 3.5 11.9088 3.5 11.9255 3.5C11.9422 3.5 11.9505 3.5 11.9505 3.5C11.9505 3.5 11.9588 3.5 11.9755 3.5C11.9922 3.5 12.0005 3.5 12.0005 3.5C12.0172 3.5 12.0255 3.5 12.0255 3.5C12.0422 3.5 12.0505 3.5 12.0505 3.5C12.0505 3.5 12.0588 3.5 12.0755 3.5C12.0922 3.5 12.1005 3.5 12.1005 3.5C12.1005 3.5 12.1088 3.5 12.1255 3.5H12.1005C12.1005 3.5 12.0922 3.5 12.0755 3.5C12.0755 3.5 12.0672 3.5 12.0505 3.5C12.0338 3.5 12.0255 3.5 12.0255 3.5C12.0255 3.5 12.0172 3.5 12.0005 3.5Z" fill="black"/>
</g>
<defs>
<clipPath id="clip0_3186_32608">
<rect width="24" height="24" fill="white"/>
</clipPath>
</defs>
</svg>
