<svg width="24" height="24" viewBox="0 0 24 24" fill="none" xmlns="http://www.w3.org/2000/svg">
<g clip-path="url(#clip0_3186_32660)">
<rect width="24" height="24" fill="white"/>
<path d="M11.0755 15.5C10.4755 14.8833 10.1172 14.2417 10.0005 13.575C9.90049 12.9083 10.0088 12.275 10.3255 11.675C10.4922 11.3417 10.5922 11.0583 10.6255 10.825C10.6755 10.5917 10.6505 10.3583 10.5505 10.125C10.4505 9.875 10.2588 9.59167 9.97549 9.275L12.6255 8.15C13.1755 8.71667 13.5088 9.35833 13.6255 10.075C13.7588 10.775 13.6755 11.425 13.3755 12.025C13.1922 12.375 13.0755 12.65 13.0255 12.85C12.9922 13.05 13.0172 13.2667 13.1005 13.5C13.2005 13.7333 13.4088 14.025 13.7255 14.375L11.0755 15.5ZM12.2255 14.325C12.2088 14.325 12.2005 14.325 12.2005 14.325C12.2005 14.325 12.1922 14.325 12.1755 14.325C12.1755 14.325 12.1672 14.325 12.1505 14.325H12.3005C12.3172 14.325 12.3255 14.325 12.3255 14.325C12.3255 14.325 12.3338 14.325 12.3505 14.325C12.3672 14.325 12.3755 14.325 12.3755 14.325H12.2255ZM7.55049 22C6.90049 22 6.34216 21.7917 5.87549 21.375C5.40882 20.975 5.15049 20.4667 5.10049 19.85L3.50049 2H20.5005L18.9005 19.85C18.8505 20.4667 18.5922 20.975 18.1255 21.375C17.6588 21.7917 17.1005 22 16.4505 22H7.55049ZM15.4505 18.55C15.4672 18.55 15.4755 18.55 15.4755 18.55C15.4922 18.5333 15.5005 18.5167 15.5005 18.5L16.6755 5.45H7.32549L8.50049 18.5C8.50049 18.5167 8.50049 18.5333 8.50049 18.55C8.51716 18.55 8.53382 18.55 8.55049 18.55H15.4505ZM12.0005 3.5C11.9838 3.5 11.9755 3.5 11.9755 3.5C11.9755 3.5 11.9672 3.5 11.9505 3.5C11.9505 3.5 11.9422 3.5 11.9255 3.5C11.9255 3.5 11.9172 3.5 11.9005 3.5H11.8755C11.8922 3.5 11.9005 3.5 11.9005 3.5C11.9005 3.5 11.9088 3.5 11.9255 3.5C11.9422 3.5 11.9505 3.5 11.9505 3.5C11.9505 3.5 11.9588 3.5 11.9755 3.5C11.9922 3.5 12.0005 3.5 12.0005 3.5C12.0172 3.5 12.0255 3.5 12.0255 3.5C12.0422 3.5 12.0505 3.5 12.0505 3.5C12.0505 3.5 12.0588 3.5 12.0755 3.5C12.0922 3.5 12.1005 3.5 12.1005 3.5C12.1005 3.5 12.1088 3.5 12.1255 3.5H12.1005C12.1005 3.5 12.0922 3.5 12.0755 3.5C12.0755 3.5 12.0672 3.5 12.0505 3.5C12.0338 3.5 12.0255 3.5 12.0255 3.5C12.0255 3.5 12.0172 3.5 12.0005 3.5Z" fill="black"/>
</g>
<defs>
<clipPath id="clip0_3186_32660">
<rect width="24" height="24" fill="white"/>
</clipPath>
</defs>
</svg>
