<svg width="24" height="24" viewBox="0 0 24 24" fill="none" xmlns="http://www.w3.org/2000/svg">
<g clip-path="url(#clip0_3186_32656)">
<rect width="24" height="24" fill="white"/>
<path d="M13.4255 17.175C12.8255 16.5583 12.4672 15.925 12.3505 15.275C12.2505 14.625 12.3588 14 12.6755 13.4C12.8422 13.0667 12.9422 12.7833 12.9755 12.55C13.0255 12.3 13.0005 12.05 12.9005 11.8C12.8005 11.55 12.6088 11.2667 12.3255 10.95L14.0505 9.875C14.6005 10.4417 14.9338 11.075 15.0505 11.775C15.1838 12.4583 15.1005 13.1 14.8005 13.7C14.6172 14.05 14.5005 14.3333 14.4505 14.55C14.4172 14.75 14.4422 14.975 14.5255 15.225C14.6255 15.4583 14.8338 15.75 15.1505 16.1L13.4255 17.175ZM9.60049 17.175C9.00049 16.5583 8.65049 15.925 8.55049 15.275C8.45049 14.625 8.55049 14 8.85049 13.4C9.01716 13.0667 9.11716 12.7833 9.15049 12.55C9.20049 12.3 9.17549 12.05 9.07549 11.8C8.97549 11.55 8.78382 11.2667 8.50049 10.95L10.2255 9.875C10.7755 10.4417 11.1088 11.075 11.2255 11.775C11.3588 12.4583 11.2755 13.1 10.9755 13.7C10.8088 14.05 10.7005 14.3333 10.6505 14.55C10.6005 14.75 10.6255 14.975 10.7255 15.225C10.8255 15.4583 11.0255 15.75 11.3255 16.1L9.60049 17.175ZM8.32549 22C7.44216 22 6.69216 21.725 6.07549 21.175C5.47549 20.6417 5.13382 19.95 5.05049 19.1L3.57549 2H20.4255L18.9505 19.1C18.8672 19.95 18.5172 20.6417 17.9005 21.175C17.3005 21.725 16.5588 22 15.6755 22H8.32549ZM15.6755 19.875C15.9588 19.875 16.2005 19.7833 16.4005 19.6C16.6172 19.4 16.7422 19.1583 16.7755 18.875L18.0505 4.125H5.95049L7.22549 18.875C7.25882 19.1583 7.37549 19.4 7.57549 19.6C7.79216 19.7833 8.04216 19.875 8.32549 19.875H15.6755ZM12.0005 9.05C11.5005 9.05 11.0755 9 10.7255 8.9C10.3755 8.78333 9.95882 8.61667 9.47549 8.4C9.09216 8.21667 8.75882 8.08333 8.47549 8C8.19216 7.9 7.86716 7.85 7.50049 7.85C7.20049 7.85 6.91716 7.88333 6.65049 7.95C6.38382 8.01667 6.12549 8.13333 5.87549 8.3L4.65049 6.55C5.08382 6.26667 5.53382 6.05833 6.00049 5.925C6.48382 5.79167 6.98382 5.725 7.50049 5.725C8.03382 5.725 8.49216 5.78333 8.87549 5.9C9.27549 6.01667 9.73382 6.19167 10.2505 6.425C10.6505 6.60833 10.9672 6.74167 11.2005 6.825C11.4505 6.89167 11.7172 6.925 12.0005 6.925C12.3172 6.925 12.6005 6.88333 12.8505 6.8C13.1005 6.71667 13.4172 6.59167 13.8005 6.425C14.2838 6.19167 14.7088 6.01667 15.0755 5.9C15.4588 5.78333 15.9338 5.725 16.5005 5.725C17.0172 5.725 17.5172 5.79167 18.0005 5.925C18.4838 6.05833 18.9422 6.26667 19.3755 6.55L18.1255 8.3C17.8755 8.15 17.6172 8.04167 17.3505 7.975C17.0838 7.89167 16.7922 7.85 16.4755 7.85C16.1255 7.85 15.8172 7.9 15.5505 8C15.2838 8.08333 14.9588 8.21667 14.5755 8.4C14.1088 8.61667 13.6922 8.78333 13.3255 8.9C12.9588 9 12.5172 9.05 12.0005 9.05Z" fill="black"/>
</g>
<defs>
<clipPath id="clip0_3186_32656">
<rect width="24" height="24" fill="white"/>
</clipPath>
</defs>
</svg>
