<svg width="24" height="24" viewBox="0 0 24 24" fill="none" xmlns="http://www.w3.org/2000/svg">
<g clip-path="url(#clip0_3186_32664)">
<rect width="24" height="24" fill="white"/>
<path d="M18.225 21.525C17.875 21.8417 17.4583 22 16.975 22H7.025C6.54167 22 6.11667 21.8417 5.75 21.525C5.4 21.225 5.2 20.8333 5.15 20.35L3.5 2H20.5L18.85 20.35C18.8 20.8333 18.5917 21.225 18.225 21.525ZM19.425 2.925H4.575L4.9 6.625C5.66667 6.175 6.44167 5.95 7.225 5.95C8.14167 5.95 9.03333 6.23333 9.9 6.8C10.5833 7.25 11.2833 7.475 12 7.475C12.6833 7.475 13.3833 7.25 14.1 6.8C14.9833 6.23333 15.875 5.95 16.775 5.95C17.5583 5.95 18.3333 6.16667 19.1 6.6L19.425 2.925ZM13.125 16.275C13.1417 16.9917 13.3833 17.6333 13.85 18.2H14.875C14.3917 17.65 14.125 17.0667 14.075 16.45C14.0417 15.8167 14.2083 15.2167 14.575 14.65C15.0083 14 15.2167 13.325 15.2 12.625C15.1833 11.925 14.9333 11.2833 14.45 10.7H13.425C13.925 11.2833 14.2 11.8833 14.25 12.5C14.3 13.1 14.125 13.6917 13.725 14.275C13.3083 14.875 13.1083 15.5417 13.125 16.275ZM8.525 16.275C8.54167 16.9917 8.78333 17.6333 9.25 18.2H10.3C9.8 17.6667 9.53333 17.0833 9.5 16.45C9.46667 15.8167 9.63333 15.2167 10 14.65C10.4167 14 10.6167 13.325 10.6 12.625C10.6 11.9083 10.3583 11.2667 9.875 10.7H8.825C9.34167 11.2833 9.61667 11.8833 9.65 12.5C9.7 13.1 9.525 13.6917 9.125 14.275C8.70833 14.875 8.50833 15.5417 8.525 16.275Z" fill="black"/>
</g>
<defs>
<clipPath id="clip0_3186_32664">
<rect width="24" height="24" fill="white"/>
</clipPath>
</defs>
</svg>
