<svg width="24" height="24" viewBox="0 0 24 24" fill="none" xmlns="http://www.w3.org/2000/svg">
<g clip-path="url(#clip0_3186_32658)">
<rect width="24" height="24" fill="white"/>
<path d="M10.9755 16.425C10.4255 15.8083 10.1338 15.1083 10.1005 14.325C10.0672 13.5417 10.2255 12.8667 10.5755 12.3C10.8755 11.8 10.9922 11.2667 10.9255 10.7C10.8755 10.1167 10.6088 9.525 10.1255 8.925H12.8255C13.3755 9.54167 13.6672 10.2417 13.7005 11.025C13.7338 11.8083 13.5755 12.4833 13.2255 13.05C12.9422 13.5333 12.8338 14.0833 12.9005 14.7C12.9838 15.3 13.2422 15.875 13.6755 16.425H10.9755ZM11.7505 13.4C11.6338 13.3 11.5672 13.175 11.5505 13.025C11.5505 12.8583 11.5838 12.7167 11.6505 12.6C11.7172 12.5 11.7422 12.4 11.7255 12.3C11.7088 12.1833 11.6505 12.0667 11.5505 11.95H12.0755C12.1755 12.05 12.2255 12.1833 12.2255 12.35C12.2422 12.5 12.2172 12.6333 12.1505 12.75C12.1005 12.85 12.0838 12.9583 12.1005 13.075C12.1172 13.1917 12.1672 13.3 12.2505 13.4H11.7505ZM8.07549 22C7.25882 22 6.56716 21.75 6.00049 21.25C5.45049 20.75 5.14216 20.1167 5.07549 19.35L3.55049 2H20.4505L18.9255 19.35C18.8588 20.1167 18.5422 20.75 17.9755 21.25C17.4255 21.75 16.7422 22 15.9255 22H8.07549ZM15.6005 19.25C15.7505 19.25 15.8755 19.2083 15.9755 19.125C16.0755 19.025 16.1338 18.9 16.1505 18.75L17.3755 4.75H6.62549L7.85049 18.75C7.86716 18.9 7.92549 19.025 8.02549 19.125C8.12549 19.2083 8.25049 19.25 8.40049 19.25H15.6005ZM12.0005 3.125C12.0005 3.125 11.9922 3.125 11.9755 3.125C11.9588 3.125 11.9505 3.125 11.9505 3.125C11.9505 3.125 11.9422 3.125 11.9255 3.125C11.9255 3.125 11.9172 3.125 11.9005 3.125C11.9005 3.125 11.9088 3.125 11.9255 3.125C11.9422 3.125 11.9505 3.125 11.9505 3.125C11.9505 3.125 11.9588 3.125 11.9755 3.125C11.9922 3.125 12.0005 3.125 12.0005 3.125C12.0172 3.125 12.0338 3.125 12.0505 3.125C12.0672 3.125 12.0838 3.125 12.1005 3.125C12.1172 3.125 12.1255 3.125 12.1255 3.125C12.1255 3.125 12.1338 3.125 12.1505 3.125H12.1255C12.1088 3.125 12.1005 3.125 12.1005 3.125C12.0838 3.125 12.0672 3.125 12.0505 3.125C12.0338 3.125 12.0255 3.125 12.0255 3.125C12.0255 3.125 12.0172 3.125 12.0005 3.125Z" fill="black"/>
</g>
<defs>
<clipPath id="clip0_3186_32658">
<rect width="24" height="24" fill="white"/>
</clipPath>
</defs>
</svg>
