<svg width="24" height="24" viewBox="0 0 24 24" fill="none" xmlns="http://www.w3.org/2000/svg">
<g clip-path="url(#clip0_3186_32774)">
<rect width="24" height="24" fill="white"/>
<path d="M7.025 22C6.54167 22 6.11667 21.8417 5.75 21.525C5.4 21.225 5.2 20.8333 5.15 20.35L3.5 2H20.5L18.85 20.35C18.8 20.8333 18.5917 21.225 18.225 21.525C17.875 21.8417 17.4583 22 16.975 22H7.025ZM16.675 19.725C16.6583 19.7083 16.65 19.6917 16.65 19.675L18.025 4.225H5.975L7.35 19.675C7.35 19.6917 7.34167 19.7083 7.325 19.725H16.675ZM5.95 20.225L4.9 7.6C5.78333 7.01667 6.7 6.725 7.65 6.725C8.65 6.725 9.575 7.01667 10.425 7.6C10.9917 7.93333 11.5167 8.1 12 8.1C12.5167 8.1 13.0417 7.93333 13.575 7.6C14.425 7.01667 15.35 6.725 16.35 6.725C17.35 6.725 18.275 7.01667 19.125 7.6L17.8 20.75L16.175 20.9H7.5L5.95 20.225ZM10.175 18.9C10.5917 18.9 10.9333 18.7583 11.2 18.475C11.4833 18.1917 11.625 17.85 11.625 17.45C11.625 17.0333 11.4833 16.6833 11.2 16.4C10.9333 16.1167 10.5917 15.975 10.175 15.975C9.775 15.975 9.43333 16.1167 9.15 16.4C8.86667 16.6833 8.725 17.025 8.725 17.425C8.725 17.8417 8.86667 18.1917 9.15 18.475C9.43333 18.7583 9.775 18.9 10.175 18.9ZM14.675 16C15.0917 16 15.4333 15.8583 15.7 15.575C15.9833 15.2917 16.125 14.95 16.125 14.55C16.125 14.1333 15.9833 13.7833 15.7 13.5C15.4333 13.2167 15.0917 13.075 14.675 13.075C14.275 13.075 13.9333 13.2167 13.65 13.5C13.3667 13.7833 13.225 14.125 13.225 14.525C13.225 14.9417 13.3667 15.2917 13.65 15.575C13.9333 15.8583 14.275 16 14.675 16ZM10.175 13.1C10.5917 13.1 10.9333 12.9583 11.2 12.675C11.4833 12.3917 11.625 12.05 11.625 11.65C11.625 11.2333 11.4833 10.8833 11.2 10.6C10.9333 10.3167 10.5917 10.175 10.175 10.175C9.775 10.175 9.43333 10.3167 9.15 10.6C8.86667 10.8833 8.725 11.225 8.725 11.625C8.725 12.0417 8.86667 12.3917 9.15 12.675C9.43333 12.9583 9.775 13.1 10.175 13.1Z" fill="black"/>
</g>
<defs>
<clipPath id="clip0_3186_32774">
<rect width="24" height="24" fill="white"/>
</clipPath>
</defs>
</svg>
