<svg width="24" height="24" viewBox="0 0 24 24" fill="none" xmlns="http://www.w3.org/2000/svg">
<g clip-path="url(#clip0_3186_32612)">
<rect width="24" height="24" fill="white"/>
<path d="M18.225 21.525C17.875 21.8417 17.4583 22 16.975 22H7.025C6.54167 22 6.11667 21.8417 5.75 21.525C5.4 21.225 5.2 20.8333 5.15 20.35L3.5 2H20.5L18.85 20.35C18.8 20.8333 18.5917 21.225 18.225 21.525ZM19.425 2.925H4.575L4.9 6.625C5.66667 6.175 6.44167 5.95 7.225 5.95C8.14167 5.95 9.03333 6.23333 9.9 6.8C10.5833 7.25 11.2833 7.475 12 7.475C12.6833 7.475 13.3833 7.25 14.1 6.8C14.9833 6.23333 15.875 5.95 16.775 5.95C17.5583 5.95 18.3333 6.16667 19.1 6.6L19.425 2.925ZM12.425 10.4H11.575L11.65 13.8L8.75 12.025L8.3 12.775L11.275 14.425L8.3 16.05L8.75 16.8L11.65 15.025L11.575 18.425H12.425L12.35 15.025L15.25 16.8L15.7 16.05L12.725 14.425L15.7 12.775L15.25 12.025L12.35 13.8L12.425 10.4Z" fill="black"/>
</g>
<defs>
<clipPath id="clip0_3186_32612">
<rect width="24" height="24" fill="white"/>
</clipPath>
</defs>
</svg>
