<svg width="24" height="24" viewBox="0 0 24 24" fill="none" xmlns="http://www.w3.org/2000/svg">
<g clip-path="url(#clip0_3186_32568)">
<rect width="24" height="24" fill="white"/>
<path d="M17.05 8.675V3.175L18.725 4.9H5.35L6.95 3.175V8.675H17.05ZM12 16.5C10.45 16.5 9.06667 16.175 7.85 15.525C6.63333 14.875 5.68333 13.9667 5 12.8C4.33333 11.6333 4 10.3083 4 8.825V2H20V8.825C20 10.3083 19.6583 11.6333 18.975 12.8C18.3083 13.9667 17.3667 14.875 16.15 15.525C14.9333 16.175 13.55 16.5 12 16.5ZM13.475 19.1L18 19.525V22H6V19.525L10.525 19.1V15.5H13.475V19.1Z" fill="black"/>
</g>
<defs>
<clipPath id="clip0_3186_32568">
<rect width="24" height="24" fill="white"/>
</clipPath>
</defs>
</svg>
