<svg width="24" height="24" viewBox="0 0 24 24" fill="none" xmlns="http://www.w3.org/2000/svg">
<g clip-path="url(#clip0_3186_32570)">
<rect width="24" height="24" fill="white"/>
<path d="M16.5 8.5V2.675L18.725 4.95H5.35L7.5 2.675V8.5H16.5ZM12 16.25C10.45 16.25 9.06667 15.9333 7.85 15.3C6.63333 14.6667 5.68333 13.7833 5 12.65C4.33333 11.5 4 10.2 4 8.75V1.5H20V8.75C20 10.2 19.6583 11.5 18.975 12.65C18.3083 13.7833 17.3667 14.6667 16.15 15.3C14.9333 15.9333 13.55 16.25 12 16.25ZM13.75 19.05L18 19.55V22.5H6V19.55L10.25 19.05V15.25H13.75V19.05Z" fill="black"/>
</g>
<defs>
<clipPath id="clip0_3186_32570">
<rect width="24" height="24" fill="white"/>
</clipPath>
</defs>
</svg>
