<svg width="24" height="24" viewBox="0 0 24 24" fill="none" xmlns="http://www.w3.org/2000/svg">
<g clip-path="url(#clip0_3186_32550)">
<rect width="24" height="24" fill="white"/>
<path d="M5.85049 8C5.85049 9.2 6.10882 10.275 6.62549 11.225C7.15882 12.1583 7.89216 12.8917 8.82549 13.425C9.75882 13.9417 10.8172 14.2 12.0005 14.2C13.1838 14.2 14.2422 13.9417 15.1755 13.425C16.1088 12.8917 16.8338 12.1583 17.3505 11.225C17.8838 10.275 18.1505 9.2 18.1505 8V3.175L18.7255 3.8H5.35049L5.85049 3.175V8ZM12.0005 16C10.4505 16 9.06716 15.6667 7.85049 15C6.63382 14.3167 5.68382 13.3667 5.00049 12.15C4.33382 10.9333 4.00049 9.55 4.00049 8V2H20.0005V8C20.0005 9.55 19.6588 10.9333 18.9755 12.15C18.3088 13.3667 17.3672 14.3167 16.1505 15C14.9338 15.6667 13.5505 16 12.0005 16ZM19.1005 8V9.8H5.10049V8H19.1005ZM12.9255 20.2L18.0005 20.45V22H6.00049V20.45L11.0755 20.2V15H12.9255V20.2Z" fill="black"/>
</g>
<defs>
<clipPath id="clip0_3186_32550">
<rect width="24" height="24" fill="white"/>
</clipPath>
</defs>
</svg>
