<svg width="24" height="24" viewBox="0 0 24 24" fill="none" xmlns="http://www.w3.org/2000/svg">
<g clip-path="url(#clip0_3186_32554)">
<rect width="24" height="24" fill="white"/>
<path d="M6.95049 8.825C6.95049 9.75833 7.16716 10.5917 7.60049 11.325C8.03382 12.0417 8.63382 12.6 9.40049 13C10.1672 13.4 11.0338 13.6 12.0005 13.6C12.9672 13.6 13.8338 13.4 14.6005 13C15.3672 12.6 15.9672 12.0417 16.4005 11.325C16.8338 10.5917 17.0505 9.75833 17.0505 8.825V3.175L18.7255 4.9H5.35049L6.95049 3.175V8.825ZM12.0005 16.5C10.4505 16.5 9.06716 16.175 7.85049 15.525C6.63382 14.875 5.68382 13.9667 5.00049 12.8C4.33382 11.6333 4.00049 10.3083 4.00049 8.825V2H20.0005V8.825C20.0005 10.3083 19.6588 11.6333 18.9755 12.8C18.3088 13.9667 17.3672 14.875 16.1505 15.525C14.9338 16.175 13.5505 16.5 12.0005 16.5ZM19.1005 7.625L19.4255 10.525H4.77549L5.10049 7.625H19.1005ZM13.4755 19.1L18.0005 19.525V22H6.00049V19.525L10.5255 19.1V15.5H13.4755V19.1Z" fill="black"/>
</g>
<defs>
<clipPath id="clip0_3186_32554">
<rect width="24" height="24" fill="white"/>
</clipPath>
</defs>
</svg>
