<svg width="24" height="24" viewBox="0 0 24 24" fill="none" xmlns="http://www.w3.org/2000/svg">
<g clip-path="url(#clip0_3186_32570)">
<rect width="24" height="24" fill="white"/>
<path d="M16.5 9V3.175L18.725 5.45H5.35L7.5 3.175V9H16.5ZM12 16.75C10.45 16.75 9.06667 16.4333 7.85 15.8C6.63333 15.1667 5.68333 14.2833 5 13.15C4.33333 12 4 10.7 4 9.25V2H20V9.25C20 10.7 19.6583 12 18.975 13.15C18.3083 14.2833 17.3667 15.1667 16.15 15.8C14.9333 16.4333 13.55 16.75 12 16.75ZM13.75 18.55L18 19.05V22H6V19.05L10.25 18.55V15.75H13.75V18.55Z" fill="black"/>
</g>
<defs>
<clipPath id="clip0_3186_32570">
<rect width="24" height="24" fill="white"/>
</clipPath>
</defs>
</svg>
