<svg width="24" height="24" viewBox="0 0 24 24" fill="none" xmlns="http://www.w3.org/2000/svg">
<g clip-path="url(#clip0_3207_15410)">
<rect width="24" height="24" fill="white"/>
<path d="M8.72549 22.75C8.34216 22.75 8.04216 22.6167 7.82549 22.35C7.60882 22.1 7.53382 21.7917 7.60049 21.425L9.35049 11.775V7.85L2.82549 7.425C2.52549 7.40833 2.27549 7.29167 2.07549 7.075C1.87549 6.85833 1.77549 6.60833 1.77549 6.325C1.77549 6.04167 1.88382 5.79167 2.10049 5.575C2.31716 5.35833 2.57549 5.25 2.87549 5.25H21.1505C21.4338 5.25 21.6838 5.35833 21.9005 5.575C22.1172 5.79167 22.2255 6.04167 22.2255 6.325C22.2255 6.60833 22.1255 6.85833 21.9255 7.075C21.7422 7.29167 21.5005 7.40833 21.2005 7.425L14.6505 7.85V11.775L16.4005 21.425C16.4672 21.7917 16.3922 22.1 16.1755 22.35C15.9588 22.6167 15.6588 22.75 15.2755 22.75C15.0255 22.75 14.7922 22.6667 14.5755 22.5C14.3588 22.35 14.2172 22.125 14.1505 21.825L12.2755 13.975H11.7255L9.85049 21.825C9.78382 22.125 9.64216 22.35 9.42549 22.5C9.20882 22.6667 8.97549 22.75 8.72549 22.75ZM12.0005 4.15C11.5505 4.15 11.1672 3.99167 10.8505 3.675C10.5338 3.35833 10.3755 2.975 10.3755 2.525C10.3755 2.075 10.5338 1.69167 10.8505 1.375C11.1672 1.05833 11.5505 0.899999 12.0005 0.899999C12.4505 0.899999 12.8338 1.05833 13.1505 1.375C13.4672 1.69167 13.6255 2.075 13.6255 2.525C13.6255 2.975 13.4672 3.35833 13.1505 3.675C12.8338 3.99167 12.4505 4.15 12.0005 4.15ZM12.0005 3.7C12.3505 3.7 12.6338 3.59167 12.8505 3.375C13.0672 3.14167 13.1755 2.85833 13.1755 2.525C13.1755 2.19167 13.0672 1.91667 12.8505 1.7C12.6338 1.46667 12.3505 1.35 12.0005 1.35C11.6505 1.35 11.3672 1.46667 11.1505 1.7C10.9338 1.91667 10.8255 2.19167 10.8255 2.525C10.8255 2.85833 10.9338 3.14167 11.1505 3.375C11.3672 3.59167 11.6505 3.7 12.0005 3.7ZM8.72549 22.275C8.89216 22.275 9.03382 22.2167 9.15049 22.1C9.28382 22 9.36716 21.8667 9.40049 21.7L11.3505 13.5H12.6505L14.6005 21.7C14.6338 21.8667 14.7088 22 14.8255 22.1C14.9588 22.2167 15.1088 22.275 15.2755 22.275C15.5088 22.275 15.6838 22.2 15.8005 22.05C15.9172 21.9 15.9588 21.7167 15.9255 21.5L14.1755 11.825V7.4L21.1755 6.95C21.3422 6.93333 21.4755 6.86667 21.5755 6.75C21.6922 6.63333 21.7505 6.49167 21.7505 6.325C21.7505 6.15833 21.6922 6.01667 21.5755 5.9C21.4588 5.78333 21.3172 5.725 21.1505 5.725H2.87549C2.70882 5.725 2.55882 5.78333 2.42549 5.9C2.30882 6.01667 2.25049 6.15833 2.25049 6.325C2.25049 6.49167 2.30882 6.63333 2.42549 6.75C2.54216 6.86667 2.68382 6.93333 2.85049 6.95L9.82549 7.4V11.825L8.07549 21.5C8.04216 21.7167 8.08382 21.9 8.20049 22.05C8.31716 22.2 8.49216 22.275 8.72549 22.275Z" fill="black"/>
</g>
<defs>
<clipPath id="clip0_3207_15410">
<rect width="24" height="24" fill="white"/>
</clipPath>
</defs>
</svg>
