<svg width="24" height="24" viewBox="0 0 24 24" fill="none" xmlns="http://www.w3.org/2000/svg">
<g clip-path="url(#clip0_3207_16523)">
<rect width="24" height="24" fill="white"/>
<path d="M8.45049 22.75C7.93382 22.75 7.53382 22.5917 7.25049 22.275C6.98382 21.975 6.89216 21.5667 6.97549 21.05L8.15049 13.725V8.775H3.20049C2.80049 8.775 2.45882 8.64167 2.17549 8.375C1.89215 8.09167 1.75049 7.74167 1.75049 7.325C1.75049 6.90833 1.89215 6.56667 2.17549 6.3C2.45882 6.01667 2.80882 5.875 3.22549 5.875H20.7755C21.1922 5.875 21.5422 6.01667 21.8255 6.3C22.1088 6.58333 22.2505 6.925 22.2505 7.325C22.2505 7.725 22.1088 8.06667 21.8255 8.35C21.5422 8.63333 21.2005 8.775 20.8005 8.775H15.8505V13.725L16.9005 21.05C16.9505 21.5667 16.8338 21.975 16.5505 22.275C16.2838 22.5917 15.8922 22.75 15.3755 22.75C15.0088 22.75 14.6922 22.625 14.4255 22.375C14.1755 22.125 14.0172 21.7833 13.9505 21.35L13.1255 15.675H10.8505L9.92549 21.35C9.85882 21.7833 9.69216 22.125 9.42549 22.375C9.17549 22.625 8.85049 22.75 8.45049 22.75ZM12.0005 4.775C11.4338 4.775 10.9505 4.58333 10.5505 4.2C10.1672 3.8 9.97549 3.31667 9.97549 2.75C9.97549 2.18333 10.1672 1.70833 10.5505 1.325C10.9505 0.924999 11.4338 0.724999 12.0005 0.724999C12.5672 0.724999 13.0422 0.924999 13.4255 1.325C13.8255 1.70833 14.0255 2.18333 14.0255 2.75C14.0255 3.31667 13.8255 3.8 13.4255 4.2C13.0422 4.58333 12.5672 4.775 12.0005 4.775ZM12.0005 1.775C12.0338 1.775 12.0505 1.775 12.0505 1.775C12.0672 1.775 12.1005 1.775 12.1505 1.775C12.1005 1.775 12.0672 1.775 12.0505 1.775C12.0505 1.775 12.0338 1.775 12.0005 1.775C11.9672 1.775 11.9422 1.775 11.9255 1.775C11.9255 1.775 11.9005 1.775 11.8505 1.775C11.9005 1.775 11.9255 1.775 11.9255 1.775C11.9422 1.775 11.9672 1.775 12.0005 1.775ZM11.7255 12.75C11.7422 12.75 11.7505 12.75 11.7505 12.75H12.2005H12.3005H12.4005C12.4172 12.75 12.4255 12.75 12.4255 12.75C12.4255 12.75 12.4338 12.75 12.4505 12.75C12.4672 12.75 12.4755 12.75 12.4755 12.75H12.9255V8.775H12.8505C12.8172 8.775 12.7922 8.775 12.7755 8.775C12.7588 8.775 12.7338 8.775 12.7005 8.775C12.6838 8.775 12.6755 8.775 12.6755 8.775C12.6755 8.775 12.6672 8.775 12.6505 8.775H11.3505C11.3338 8.775 11.3255 8.775 11.3255 8.775C11.3255 8.775 11.3172 8.775 11.3005 8.775C11.3005 8.775 11.2922 8.775 11.2755 8.775H11.0755V12.75H11.6755C11.6922 12.75 11.7005 12.75 11.7005 12.75C11.7005 12.75 11.7088 12.75 11.7255 12.75Z" fill="black"/>
</g>
<defs>
<clipPath id="clip0_3207_16523">
<rect width="24" height="24" fill="white"/>
</clipPath>
</defs>
</svg>
