<svg width="24" height="24" viewBox="0 0 24 24" fill="none" xmlns="http://www.w3.org/2000/svg">
<g clip-path="url(#clip0_3207_16515)">
<rect width="24" height="24" fill="white"/>
<path d="M8.75049 22.75C8.20049 22.75 7.78382 22.5833 7.50049 22.25C7.21716 21.9333 7.12549 21.525 7.22549 21.025L8.97549 11.65V8.425L2.82549 8.025C2.44216 8.00833 2.10882 7.85833 1.82549 7.575C1.55882 7.29167 1.42549 6.96667 1.42549 6.6C1.42549 6.21667 1.56716 5.88333 1.85049 5.6C2.15049 5.31667 2.50049 5.175 2.90049 5.175H21.1255C21.5088 5.175 21.8422 5.31667 22.1255 5.6C22.4255 5.88333 22.5755 6.21667 22.5755 6.6C22.5755 6.96667 22.4422 7.29167 22.1755 7.575C21.9088 7.85833 21.5838 8.00833 21.2005 8.025L15.0255 8.425V11.65L16.6255 21.05C16.7255 21.55 16.6255 21.9583 16.3255 22.275C16.0422 22.5917 15.6338 22.75 15.1005 22.75C14.7672 22.75 14.4588 22.6417 14.1755 22.425C13.8922 22.2083 13.7088 21.9167 13.6255 21.55L11.9755 14.15H12.0005L10.2005 21.55C10.1172 21.9167 9.93382 22.2083 9.65049 22.425C9.36716 22.6417 9.06716 22.75 8.75049 22.75ZM12.0005 4.45C11.4672 4.45 11.0172 4.26667 10.6505 3.9C10.2838 3.53333 10.1005 3.08333 10.1005 2.55C10.1005 2.01667 10.2838 1.56667 10.6505 1.2C11.0172 0.833333 11.4672 0.65 12.0005 0.65C12.5338 0.65 12.9838 0.833333 13.3505 1.2C13.7172 1.56667 13.9005 2.01667 13.9005 2.55C13.9005 3.08333 13.7172 3.53333 13.3505 3.9C12.9838 4.26667 12.5338 4.45 12.0005 4.45ZM12.0005 3.6C12.3005 3.6 12.5505 3.5 12.7505 3.3C12.9505 3.1 13.0505 2.85 13.0505 2.55C13.0505 2.25 12.9505 2 12.7505 1.8C12.5505 1.6 12.3005 1.5 12.0005 1.5C11.7005 1.5 11.4505 1.6 11.2505 1.8C11.0505 2 10.9505 2.25 10.9505 2.55C10.9505 2.85 11.0505 3.1 11.2505 3.3C11.4505 3.5 11.7005 3.6 12.0005 3.6ZM8.75049 21.9C8.88382 21.9 9.00049 21.85 9.10049 21.75C9.21716 21.65 9.29216 21.525 9.32549 21.375L11.3255 13.35H12.6755L14.5005 21.375C14.5338 21.525 14.6088 21.65 14.7255 21.75C14.8422 21.85 14.9672 21.9 15.1005 21.9C15.3338 21.9 15.5088 21.825 15.6255 21.675C15.7422 21.5417 15.7838 21.375 15.7505 21.175L14.1505 11.725V7.6L21.1505 7.175C21.3172 7.15833 21.4505 7.1 21.5505 7C21.6672 6.88333 21.7255 6.75 21.7255 6.6C21.7255 6.43333 21.6672 6.3 21.5505 6.2C21.4338 6.1 21.2922 6.05 21.1255 6.05H2.90049C2.73382 6.05 2.58382 6.1 2.45049 6.2C2.33382 6.3 2.27549 6.43333 2.27549 6.6C2.27549 6.75 2.33382 6.88333 2.45049 7C2.56716 7.1 2.70882 7.15833 2.87549 7.175L9.85049 7.6V11.725L8.10049 21.175C8.06716 21.375 8.10882 21.5417 8.22549 21.675C8.34216 21.825 8.51716 21.9 8.75049 21.9Z" fill="black"/>
</g>
<defs>
<clipPath id="clip0_3207_16515">
<rect width="24" height="24" fill="white"/>
</clipPath>
</defs>
</svg>
