<svg width="24" height="24" viewBox="0 0 24 24" fill="none" xmlns="http://www.w3.org/2000/svg">
<g clip-path="url(#clip0_3207_16401)">
<rect width="24" height="24" fill="white"/>
<path d="M10 22.5C8.85 22.5 7.8 22.2167 6.85 21.65C5.9 21.1 5.14167 20.35 4.575 19.4C4.025 18.45 3.75 17.4 3.75 16.25C3.75 15.1333 4.00833 14.1167 4.525 13.2C5.05833 12.2667 5.76667 11.525 6.65 10.975C7.55 10.4083 8.54167 10.1 9.625 10.05V11.525C8.825 11.575 8.09167 11.8167 7.425 12.25C6.775 12.6667 6.25 13.2333 5.85 13.95C5.46667 14.65 5.275 15.425 5.275 16.275C5.275 17.1417 5.48333 17.9417 5.9 18.675C6.31667 19.3917 6.88333 19.9583 7.6 20.375C8.33333 20.7917 9.13333 21 10 21C10.8667 21 11.6583 20.7917 12.375 20.375C13.0917 19.9417 13.6583 19.3583 14.075 18.625C14.4917 17.8917 14.7 17.075 14.7 16.175V15.5H16.225V16.15C16.225 17.3333 15.95 18.4083 15.4 19.375C14.85 20.3417 14.1 21.1 13.15 21.65C12.2 22.2167 11.15 22.5 10 22.5ZM10.75 5C10.1833 5 9.70833 4.80833 9.325 4.425C8.94167 4.04167 8.75 3.56667 8.75 3C8.75 2.43333 8.94167 1.95833 9.325 1.575C9.70833 1.19167 10.1833 1 10.75 1C11.3167 1 11.7917 1.19167 12.175 1.575C12.5583 1.95833 12.75 2.43333 12.75 3C12.75 3.56667 12.5583 4.04167 12.175 4.425C11.7917 4.80833 11.3167 5 10.75 5ZM16.05 15.825H11.225C10.6917 15.825 10.2333 15.6417 9.85 15.275C9.46667 14.8917 9.25833 14.4333 9.225 13.9L8.8 8.125C8.76667 7.64167 8.90833 7.25833 9.225 6.975C9.55833 6.69167 9.99167 6.55 10.525 6.55C11.0583 6.55 11.525 6.69167 11.925 6.975C12.3417 7.25833 12.5667 7.64167 12.6 8.125L12.975 12.725L16.675 13C17.225 13.0333 17.6833 13.2 18.05 13.5C18.4333 13.8 18.675 14.2333 18.775 14.8L19.875 21.2C19.9417 21.5833 19.85 21.9 19.6 22.15C19.3667 22.4 19.05 22.525 18.65 22.525C18.3333 22.525 18.0667 22.425 17.85 22.225C17.65 22.0417 17.5083 21.775 17.425 21.425L16.05 15.825Z" fill="black"/>
</g>
<defs>
<clipPath id="clip0_3207_16401">
<rect width="24" height="24" fill="white"/>
</clipPath>
</defs>
</svg>
