<svg width="24" height="24" viewBox="0 0 24 24" fill="none" xmlns="http://www.w3.org/2000/svg">
<g clip-path="url(#clip0_3207_16521)">
<rect width="24" height="24" fill="white"/>
<path d="M8.40049 22.75C7.98382 22.75 7.65882 22.6167 7.42549 22.35C7.20882 22.1 7.13382 21.7667 7.20049 21.35L8.57549 13.075V7.825H2.95049C2.60049 7.825 2.30882 7.70833 2.07549 7.475C1.85882 7.24167 1.75049 6.95833 1.75049 6.625C1.75049 6.29167 1.86716 6.00833 2.10049 5.775C2.33382 5.54167 2.61716 5.425 2.95049 5.425H21.0505C21.3838 5.425 21.6672 5.54167 21.9005 5.775C22.1338 6.00833 22.2505 6.28333 22.2505 6.6C22.2505 6.95 22.1338 7.24167 21.9005 7.475C21.6838 7.70833 21.4005 7.825 21.0505 7.825H15.4255V13.075L16.7005 21.375C16.7672 21.7917 16.6838 22.125 16.4505 22.375C16.2338 22.625 15.9172 22.75 15.5005 22.75C15.1838 22.75 14.9172 22.6417 14.7005 22.425C14.4838 22.225 14.3505 21.95 14.3005 21.6L13.2505 14.9H10.7255L9.65049 21.625C9.60049 21.975 9.45882 22.25 9.22549 22.45C9.00882 22.65 8.73382 22.75 8.40049 22.75ZM12.0005 4.2C11.5005 4.2 11.0755 4.03333 10.7255 3.7C10.3922 3.36667 10.2255 2.95 10.2255 2.45C10.2255 1.95 10.3922 1.53333 10.7255 1.2C11.0755 0.866666 11.5005 0.699999 12.0005 0.699999C12.5005 0.699999 12.9172 0.866666 13.2505 1.2C13.6005 1.53333 13.7755 1.95 13.7755 2.45C13.7755 2.95 13.6005 3.36667 13.2505 3.7C12.9172 4.03333 12.5005 4.2 12.0005 4.2ZM12.0005 1.6C12.0338 1.6 12.0505 1.6 12.0505 1.6C12.0672 1.6 12.0922 1.6 12.1255 1.6C12.0922 1.6 12.0672 1.6 12.0505 1.6C12.0505 1.6 12.0338 1.6 12.0005 1.6C11.9672 1.6 11.9422 1.6 11.9255 1.6C11.9255 1.6 11.9088 1.6 11.8755 1.6C11.9088 1.6 11.9255 1.6 11.9255 1.6C11.9422 1.6 11.9672 1.6 12.0005 1.6ZM11.6005 12.525C11.6172 12.525 11.6255 12.525 11.6255 12.525H12.3255H12.4255H12.5255C12.5422 12.525 12.5505 12.525 12.5505 12.525C12.5505 12.525 12.5588 12.525 12.5755 12.525C12.5922 12.525 12.6005 12.525 12.6005 12.525H13.0505V7.825H12.9755C12.9422 7.825 12.9172 7.825 12.9005 7.825C12.8838 7.825 12.8588 7.825 12.8255 7.825C12.8088 7.825 12.8005 7.825 12.8005 7.825C12.8005 7.825 12.7922 7.825 12.7755 7.825H11.2255C11.2088 7.825 11.2005 7.825 11.2005 7.825C11.2005 7.825 11.1922 7.825 11.1755 7.825C11.1755 7.825 11.1672 7.825 11.1505 7.825H10.9505V12.525H11.5505C11.5672 12.525 11.5755 12.525 11.5755 12.525C11.5755 12.525 11.5838 12.525 11.6005 12.525Z" fill="black"/>
</g>
<defs>
<clipPath id="clip0_3207_16521">
<rect width="24" height="24" fill="white"/>
</clipPath>
</defs>
</svg>
