<svg width="24" height="24" viewBox="0 0 24 24" fill="none" xmlns="http://www.w3.org/2000/svg">
<g clip-path="url(#clip0_3207_16517)">
<rect width="24" height="24" fill="white"/>
<path d="M8.47549 22.75C8.24216 22.75 8.05882 22.6667 7.92549 22.5C7.79216 22.35 7.74216 22.15 7.77549 21.9L9.37549 12.25V6H2.47549C2.27549 6 2.10049 5.93333 1.95049 5.8C1.81715 5.66667 1.75049 5.5 1.75049 5.3C1.75049 5.08333 1.81715 4.90833 1.95049 4.775C2.10049 4.64167 2.27549 4.575 2.47549 4.575H21.5255C21.7255 4.575 21.8922 4.64167 22.0255 4.775C22.1755 4.90833 22.2505 5.075 22.2505 5.275C22.2505 5.475 22.1755 5.65 22.0255 5.8C21.8922 5.93333 21.7255 6 21.5255 6H14.6255V12.25L16.2005 21.9C16.2338 22.15 16.1838 22.35 16.0505 22.5C15.9172 22.6667 15.7338 22.75 15.5005 22.75C15.3172 22.75 15.1588 22.6917 15.0255 22.575C14.8922 22.4583 14.8088 22.3 14.7755 22.1L13.3755 13.425H10.6255L9.20049 22.1C9.16716 22.3 9.08382 22.4583 8.95049 22.575C8.83382 22.6917 8.67549 22.75 8.47549 22.75ZM11.9755 3.225C11.6588 3.225 11.3838 3.11667 11.1505 2.9C10.9338 2.66667 10.8255 2.39167 10.8255 2.075C10.8255 1.74167 10.9338 1.46667 11.1505 1.25C11.3838 1.01667 11.6672 0.899999 12.0005 0.899999C12.3172 0.899999 12.5838 1.01667 12.8005 1.25C13.0338 1.46667 13.1505 1.74167 13.1505 2.075C13.1505 2.39167 13.0338 2.66667 12.8005 2.9C12.5672 3.11667 12.2922 3.225 11.9755 3.225ZM12.0005 1.675C12.0338 1.675 12.0505 1.675 12.0505 1.675C12.0672 1.675 12.0922 1.675 12.1255 1.675C12.0922 1.675 12.0672 1.675 12.0505 1.675C12.0505 1.675 12.0338 1.675 12.0005 1.675C11.9672 1.675 11.9422 1.675 11.9255 1.675C11.9255 1.675 11.9088 1.675 11.8755 1.675C11.9088 1.675 11.9255 1.675 11.9255 1.675C11.9422 1.675 11.9672 1.675 12.0005 1.675ZM11.4505 12C11.4672 12 11.4755 12 11.4755 12H12.4755H12.5755H12.6755C12.6922 12 12.7005 12 12.7005 12C12.7005 12 12.7088 12 12.7255 12C12.7422 12 12.7505 12 12.7505 12H13.1755V6H13.1255C13.0922 6 13.0672 6 13.0505 6C13.0338 6 13.0088 6 12.9755 6C12.9588 6 12.9505 6 12.9505 6C12.9505 6 12.9422 6 12.9255 6H11.0755C11.0588 6 11.0505 6 11.0505 6C11.0505 6 11.0422 6 11.0255 6C11.0255 6 11.0172 6 11.0005 6H10.8255V12H11.4005C11.4172 12 11.4255 12 11.4255 12C11.4255 12 11.4338 12 11.4505 12Z" fill="black"/>
</g>
<defs>
<clipPath id="clip0_3207_16517">
<rect width="24" height="24" fill="white"/>
</clipPath>
</defs>
</svg>
