<svg width="24" height="24" viewBox="0 0 24 24" fill="none" xmlns="http://www.w3.org/2000/svg">
<g clip-path="url(#clip0_3351_735)">
<rect width="24" height="24" fill="white"/>
<path d="M21.5005 21H7.00049V17.45C7.00049 16.2667 7.29216 15.25 7.87549 14.4C8.47549 13.5333 9.31716 12.8667 10.4005 12.4C11.4838 11.9333 12.7672 11.7 14.2505 11.7C15.7338 11.7 17.0172 11.9333 18.1005 12.4C19.1838 12.8667 20.0172 13.5333 20.6005 14.4C21.2005 15.25 21.5005 16.2667 21.5005 17.45V21ZM19.0755 17.45C19.0755 16.4 18.6672 15.5833 17.8505 15C17.0338 14.4 15.8338 14.1 14.2505 14.1C12.6672 14.1 11.4672 14.4 10.6505 15C9.83382 15.5833 9.42549 16.4 9.42549 17.45V18.625H19.0755V17.45ZM14.2505 10.375C13.4838 10.375 12.7838 10.2 12.1505 9.85C11.5172 9.48333 11.0172 8.98333 10.6505 8.35C10.3005 7.71667 10.1255 7.025 10.1255 6.275C10.1255 5.525 10.3005 4.83333 10.6505 4.2C11.0172 3.56667 11.5172 3.075 12.1505 2.725C12.7838 2.35833 13.4838 2.175 14.2505 2.175C15.0172 2.175 15.7172 2.35833 16.3505 2.725C16.9838 3.075 17.4755 3.56667 17.8255 4.2C18.1922 4.83333 18.3755 5.525 18.3755 6.275C18.3755 7.025 18.1922 7.71667 17.8255 8.35C17.4755 8.98333 16.9838 9.48333 16.3505 9.85C15.7172 10.2 15.0172 10.375 14.2505 10.375ZM14.2505 8.25C14.6005 8.25 14.9255 8.16667 15.2255 8C15.5422 7.81667 15.7838 7.575 15.9505 7.275C16.1338 6.95833 16.2255 6.625 16.2255 6.275C16.2255 5.925 16.1338 5.6 15.9505 5.3C15.7838 4.98333 15.5422 4.74167 15.2255 4.575C14.9255 4.39167 14.6005 4.3 14.2505 4.3C13.9005 4.3 13.5672 4.39167 13.2505 4.575C12.9505 4.74167 12.7088 4.98333 12.5255 5.3C12.3588 5.6 12.2755 5.925 12.2755 6.275C12.2755 6.625 12.3588 6.95833 12.5255 7.275C12.7088 7.575 12.9505 7.81667 13.2505 8C13.5672 8.16667 13.9005 8.25 14.2505 8.25ZM5.77549 11V13.425H3.42549V11H1.02549V8.75H3.42549V6.325H5.77549V8.75H8.17549V11H5.77549Z" fill="black"/>
</g>
<defs>
<clipPath id="clip0_3351_735">
<rect width="24" height="24" fill="white"/>
</clipPath>
</defs>
</svg>
