<svg width="24" height="24" viewBox="0 0 24 24" fill="none" xmlns="http://www.w3.org/2000/svg">
<g clip-path="url(#clip0_3379_7920)">
<rect width="24" height="24" fill="white"/>
<path d="M2.5 17.75C2.5 16.5833 2.79167 15.5667 3.375 14.7C3.95833 13.8333 4.79167 13.1667 5.875 12.7C6.975 12.2333 8.26667 12 9.75 12C11.2333 12 12.5167 12.2333 13.6 12.7C14.7 13.1667 15.5417 13.8333 16.125 14.7C16.7083 15.5667 17 16.5833 17 17.75V21H2.5V17.75ZM9.75 9.85C9.05 9.85 8.40833 9.68333 7.825 9.35C7.24167 9.01667 6.78333 8.55833 6.45 7.975C6.11667 7.39167 5.95 6.75 5.95 6.05C5.95 5.35 6.11667 4.70833 6.45 4.125C6.78333 3.54167 7.24167 3.08333 7.825 2.75C8.40833 2.41667 9.05 2.25 9.75 2.25C10.45 2.25 11.0917 2.41667 11.675 2.75C12.2583 3.08333 12.7167 3.54167 13.05 4.125C13.3833 4.70833 13.55 5.35 13.55 6.05C13.55 6.75 13.3833 7.39167 13.05 7.975C12.7167 8.55833 12.2583 9.01667 11.675 9.35C11.0917 9.68333 10.45 9.85 9.75 9.85ZM15.725 8.45H17.9V6.225H20.9V8.45H23.075V11.3H20.9V13.525H17.9V11.3H15.725V8.45Z" fill="black"/>
</g>
<defs>
<clipPath id="clip0_3379_7920">
<rect width="24" height="24" fill="white"/>
</clipPath>
</defs>
</svg>
