<svg width="24" height="24" viewBox="0 0 24 24" fill="none" xmlns="http://www.w3.org/2000/svg">
<g clip-path="url(#clip0_3379_7797)">
<rect width="24" height="24" fill="white"/>
<path d="M1.00049 15.125C1.00049 14.4083 1.18382 13.775 1.55049 13.225C1.91716 12.6583 2.42549 12.225 3.07549 11.925C3.74216 11.6083 4.50049 11.45 5.35049 11.45C6.16716 11.45 6.89216 11.6083 7.52549 11.925C8.17549 12.225 8.67549 12.6583 9.02549 13.225C9.39216 13.775 9.57549 14.4083 9.57549 15.125V19.5H1.00049V15.125ZM8.75049 18.6V15.125C8.75049 14.3083 8.42549 13.6417 7.77549 13.125C7.14216 12.6083 6.33382 12.35 5.35049 12.35C4.36716 12.35 3.55049 12.6083 2.90049 13.125C2.25049 13.6417 1.92549 14.3083 1.92549 15.125V18.6H8.75049ZM8.85049 15.125C8.85049 14.4083 9.02549 13.775 9.37549 13.225C9.74216 12.6583 10.2422 12.225 10.8755 11.925C11.5255 11.6083 12.2588 11.45 13.0755 11.45C13.9088 11.45 14.6505 11.6083 15.3005 11.925C15.9672 12.225 16.4838 12.6583 16.8505 13.225C17.2172 13.775 17.4005 14.4083 17.4005 15.125V19.5H8.85049V15.125ZM16.4755 18.6V15.125C16.4755 14.3083 16.1505 13.6417 15.5005 13.125C14.8672 12.6083 14.0588 12.35 13.0755 12.35C12.0922 12.35 11.2838 12.6083 10.6505 13.125C10.0172 13.6417 9.70049 14.3083 9.70049 15.125V18.6H16.4755ZM16.6255 9.575H19.6755V6.55H20.5755V9.575H23.6255V10.45H20.5755V13.5H19.6755V10.45H16.6255V9.575ZM5.32549 10.15C4.49216 10.15 3.78382 9.86667 3.20049 9.3C2.61716 8.71667 2.32549 8.00833 2.32549 7.175C2.32549 6.34167 2.61716 5.64167 3.20049 5.075C3.78382 4.49167 4.49216 4.2 5.32549 4.2C6.15882 4.2 6.86716 4.49167 7.45049 5.075C8.03382 5.64167 8.32549 6.34167 8.32549 7.175C8.32549 8.00833 8.03382 8.71667 7.45049 9.3C6.86716 9.86667 6.15882 10.15 5.32549 10.15ZM5.32549 9.3C5.92549 9.3 6.42549 9.1 6.82549 8.7C7.22549 8.28333 7.42549 7.775 7.42549 7.175C7.42549 6.575 7.22549 6.075 6.82549 5.675C6.42549 5.25833 5.92549 5.05 5.32549 5.05C4.72549 5.05 4.21716 5.25833 3.80049 5.675C3.40049 6.075 3.20049 6.575 3.20049 7.175C3.20049 7.775 3.40049 8.28333 3.80049 8.7C4.21716 9.1 4.72549 9.3 5.32549 9.3ZM13.0505 10.15C12.2172 10.15 11.5088 9.86667 10.9255 9.3C10.3422 8.71667 10.0505 8.00833 10.0505 7.175C10.0505 6.34167 10.3422 5.64167 10.9255 5.075C11.5088 4.49167 12.2172 4.2 13.0505 4.2C13.8838 4.2 14.5922 4.49167 15.1755 5.075C15.7588 5.64167 16.0505 6.34167 16.0505 7.175C16.0505 8.00833 15.7588 8.71667 15.1755 9.3C14.5922 9.86667 13.8838 10.15 13.0505 10.15ZM13.0505 9.3C13.6672 9.3 14.1755 9.1 14.5755 8.7C14.9755 8.28333 15.1755 7.775 15.1755 7.175C15.1755 6.575 14.9755 6.075 14.5755 5.675C14.1755 5.25833 13.6672 5.05 13.0505 5.05C12.4672 5.05 11.9672 5.25833 11.5505 5.675C11.1505 6.075 10.9505 6.575 10.9505 7.175C10.9505 7.775 11.1505 8.28333 11.5505 8.7C11.9672 9.1 12.4672 9.3 13.0505 9.3Z" fill="black"/>
</g>
<defs>
<clipPath id="clip0_3379_7797">
<rect width="24" height="24" fill="white"/>
</clipPath>
</defs>
</svg>
