<svg width="24" height="24" viewBox="0 0 24 24" fill="none" xmlns="http://www.w3.org/2000/svg">
<g clip-path="url(#clip0_3207_15264)">
<rect width="24" height="24" fill="white"/>
<path d="M21.5005 21H7.00049V17.625C7.00049 16.375 7.29216 15.3 7.87549 14.4C8.45882 13.5 9.29216 12.8167 10.3755 12.35C11.4588 11.8667 12.7505 11.625 14.2505 11.625C15.7505 11.625 17.0422 11.8667 18.1255 12.35C19.2088 12.8167 20.0422 13.5 20.6255 14.4C21.2088 15.3 21.5005 16.375 21.5005 17.625V21ZM21.0005 17.625C21.0005 15.875 20.4088 14.5167 19.2255 13.55C18.0588 12.5833 16.4005 12.1 14.2505 12.1C12.1005 12.1 10.4338 12.5833 9.25049 13.55C8.08382 14.5167 7.50049 15.875 7.50049 17.625V20.525H21.0005V17.625ZM14.2505 9.6C13.5505 9.6 12.9088 9.43333 12.3255 9.1C11.7422 8.76667 11.2755 8.30833 10.9255 7.725C10.5922 7.14167 10.4255 6.5 10.4255 5.8C10.4255 5.1 10.5922 4.45833 10.9255 3.875C11.2755 3.29167 11.7422 2.83333 12.3255 2.5C12.9088 2.16667 13.5505 2 14.2505 2C14.9505 2 15.5922 2.16667 16.1755 2.5C16.7588 2.83333 17.2172 3.29167 17.5505 3.875C17.9005 4.45833 18.0755 5.1 18.0755 5.8C18.0755 6.5 17.9005 7.14167 17.5505 7.725C17.2172 8.30833 16.7588 8.76667 16.1755 9.1C15.5922 9.43333 14.9505 9.6 14.2505 9.6ZM14.2505 9.125C14.8505 9.125 15.4005 8.975 15.9005 8.675C16.4172 8.375 16.8255 7.975 17.1255 7.475C17.4255 6.95833 17.5755 6.4 17.5755 5.8C17.5755 5.2 17.4255 4.65 17.1255 4.15C16.8255 3.63333 16.4172 3.225 15.9005 2.925C15.4005 2.625 14.8505 2.475 14.2505 2.475C13.6505 2.475 13.0922 2.625 12.5755 2.925C12.0755 3.225 11.6755 3.63333 11.3755 4.15C11.0755 4.65 10.9255 5.2 10.9255 5.8C10.9255 6.4 11.0755 6.95833 11.3755 7.475C11.6755 7.975 12.0755 8.375 12.5755 8.675C13.0922 8.975 13.6505 9.125 14.2505 9.125ZM4.85049 10.1V13.35H4.35049V10.1H1.10049V9.625H4.35049V6.4H4.85049V9.625H8.10049V10.1H4.85049Z" fill="black"/>
</g>
<defs>
<clipPath id="clip0_3207_15264">
<rect width="24" height="24" fill="white"/>
</clipPath>
</defs>
</svg>
