<svg width="24" height="24" viewBox="0 0 24 24" fill="none" xmlns="http://www.w3.org/2000/svg">
<g clip-path="url(#clip0_3207_17510)">
<rect width="24" height="24" fill="white"/>
<path d="M21.5005 21H7.00049V17.125C7.00049 16.075 7.30049 15.1583 7.90049 14.375C8.50049 13.575 9.34216 12.9583 10.4255 12.525C11.5255 12.0917 12.8005 11.875 14.2505 11.875C15.7005 11.875 16.9672 12.0917 18.0505 12.525C19.1505 12.9583 20.0005 13.575 20.6005 14.375C21.2005 15.1583 21.5005 16.075 21.5005 17.125V21ZM18.0005 17.125C18.0005 16.6083 17.7005 16.1833 17.1005 15.85C16.5005 15.5 15.5505 15.325 14.2505 15.325C12.9505 15.325 12.0005 15.5 11.4005 15.85C10.8005 16.1833 10.5005 16.6083 10.5005 17.125V17.55H18.0005V17.125ZM14.2505 10.75C13.4338 10.75 12.6922 10.5583 12.0255 10.175C11.3588 9.775 10.8255 9.24167 10.4255 8.575C10.0422 7.90833 9.85049 7.175 9.85049 6.375C9.85049 5.575 10.0422 4.84167 10.4255 4.175C10.8255 3.50833 11.3588 2.98333 12.0255 2.6C12.6922 2.2 13.4338 2 14.2505 2C15.0672 2 15.8088 2.2 16.4755 2.6C17.1422 2.98333 17.6672 3.50833 18.0505 4.175C18.4505 4.84167 18.6505 5.575 18.6505 6.375C18.6505 7.175 18.4505 7.90833 18.0505 8.575C17.6672 9.24167 17.1422 9.775 16.4755 10.175C15.8088 10.5583 15.0672 10.75 14.2505 10.75ZM14.2505 7.825C14.5172 7.825 14.7588 7.76667 14.9755 7.65C15.2088 7.51667 15.3838 7.34167 15.5005 7.125C15.6338 6.89167 15.7005 6.64167 15.7005 6.375C15.7005 6.10833 15.6338 5.86667 15.5005 5.65C15.3838 5.41667 15.2088 5.24167 14.9755 5.125C14.7588 4.99167 14.5172 4.925 14.2505 4.925C13.9838 4.925 13.7338 4.99167 13.5005 5.125C13.2838 5.24167 13.1088 5.41667 12.9755 5.65C12.8588 5.86667 12.8005 6.10833 12.8005 6.375C12.8005 6.64167 12.8588 6.89167 12.9755 7.125C13.1088 7.34167 13.2838 7.51667 13.5005 7.65C13.7338 7.76667 13.9838 7.825 14.2505 7.825ZM6.42549 11.6V13.6H2.77549V11.6H0.850488V8.15H2.77549V6.15H6.42549V8.15H8.35049V11.6H6.42549Z" fill="black"/>
</g>
<defs>
<clipPath id="clip0_3207_17510">
<rect width="24" height="24" fill="white"/>
</clipPath>
</defs>
</svg>
