<svg width="24" height="24" viewBox="0 0 24 24" fill="none" xmlns="http://www.w3.org/2000/svg">
<g clip-path="url(#clip0_3379_7821)">
<rect width="24" height="24" fill="white"/>
<path d="M1 13.325C1 12.4917 1.34167 11.8167 2.025 11.3C2.725 10.7667 3.60833 10.5 4.675 10.5C5.70833 10.5 6.55 10.7667 7.2 11.3C7.86667 11.8167 8.2 12.4917 8.2 13.325V19.5H1V13.325ZM9.225 13.325C9.225 12.4917 9.55 11.8167 10.2 11.3C10.8667 10.7667 11.7167 10.5 12.75 10.5C13.8167 10.5 14.6917 10.7667 15.375 11.3C16.0583 11.8167 16.4 12.4917 16.4 13.325V19.5H9.225V13.325ZM16.5 7.775H18.55V5.675H21.7V7.775H23.75V10.775H21.7V12.875H18.55V10.775H16.5V7.775ZM4.65 8.85C4.01667 8.85 3.46667 8.625 3 8.175C2.53333 7.70833 2.3 7.15833 2.3 6.525C2.3 5.875 2.525 5.325 2.975 4.875C3.44167 4.425 4 4.2 4.65 4.2C5.3 4.2 5.85 4.425 6.3 4.875C6.76667 5.325 7 5.875 7 6.525C7 7.15833 6.76667 7.70833 6.3 8.175C5.83333 8.625 5.28333 8.85 4.65 8.85ZM12.7 8.85C12.0667 8.85 11.5167 8.625 11.05 8.175C10.5833 7.70833 10.35 7.15833 10.35 6.525C10.35 5.875 10.575 5.325 11.025 4.875C11.4917 4.425 12.05 4.2 12.7 4.2C13.35 4.2 13.9 4.425 14.35 4.875C14.8167 5.325 15.05 5.875 15.05 6.525C15.05 7.15833 14.8167 7.70833 14.35 8.175C13.8833 8.625 13.3333 8.85 12.7 8.85Z" fill="black"/>
</g>
<defs>
<clipPath id="clip0_3379_7821">
<rect width="24" height="24" fill="white"/>
</clipPath>
</defs>
</svg>
