<svg width="24" height="24" viewBox="0 0 24 24" fill="none" xmlns="http://www.w3.org/2000/svg">
<g clip-path="url(#clip0_3207_15765)">
<rect width="24" height="24" fill="white"/>
<path d="M2.50049 17.625C2.50049 16.375 2.79216 15.3 3.37549 14.4C3.95882 13.5 4.79216 12.8167 5.87549 12.35C6.95882 11.8667 8.25049 11.625 9.75049 11.625C11.2505 11.625 12.5422 11.8667 13.6255 12.35C14.7088 12.8167 15.5422 13.5 16.1255 14.4C16.7088 15.3 17.0005 16.375 17.0005 17.625V21H2.50049V17.625ZM15.1005 19.15V17.625C15.1005 16.3083 14.6422 15.2917 13.7255 14.575C12.8088 13.8417 11.4838 13.475 9.75049 13.475C8.01716 13.475 6.69216 13.8417 5.77549 14.575C4.85882 15.2917 4.40049 16.3083 4.40049 17.625V19.15H15.1005ZM9.75049 10.2C9.01716 10.2 8.34216 10.025 7.72549 9.675C7.10882 9.325 6.62549 8.85 6.27549 8.25C5.92549 7.63333 5.75049 6.95833 5.75049 6.225C5.75049 5.49167 5.92549 4.825 6.27549 4.225C6.62549 3.60833 7.10882 3.125 7.72549 2.775C8.34216 2.425 9.01716 2.25 9.75049 2.25C10.4838 2.25 11.1588 2.425 11.7755 2.775C12.3922 3.125 12.8755 3.60833 13.2255 4.225C13.5755 4.825 13.7505 5.49167 13.7505 6.225C13.7505 6.95833 13.5755 7.63333 13.2255 8.25C12.8755 8.85 12.3922 9.325 11.7755 9.675C11.1588 10.025 10.4838 10.2 9.75049 10.2ZM9.75049 8.45C10.1505 8.45 10.5172 8.35 10.8505 8.15C11.2005 7.95 11.4755 7.68333 11.6755 7.35C11.8755 7 11.9755 6.625 11.9755 6.225C11.9755 5.825 11.8755 5.45833 11.6755 5.125C11.4755 4.775 11.2005 4.5 10.8505 4.3C10.5172 4.1 10.1505 4 9.75049 4C9.35049 4 8.97549 4.1 8.62549 4.3C8.29216 4.5 8.02549 4.775 7.82549 5.125C7.62549 5.45833 7.52549 5.825 7.52549 6.225C7.52549 6.625 7.62549 7 7.82549 7.35C8.02549 7.68333 8.29216 7.95 8.62549 8.15C8.97549 8.35 9.35049 8.45 9.75049 8.45ZM15.9005 9.05H18.5505V6.4H20.2505V9.05H22.9005V10.7H20.2505V13.35H18.5505V10.7H15.9005V9.05Z" fill="black"/>
</g>
<defs>
<clipPath id="clip0_3207_15765">
<rect width="24" height="24" fill="white"/>
</clipPath>
</defs>
</svg>
