<svg width="24" height="24" viewBox="0 0 24 24" fill="none" xmlns="http://www.w3.org/2000/svg">
<g clip-path="url(#clip0_3375_6629)">
<rect width="24" height="24" fill="white"/>
<path d="M23.0005 19.5H14.0255V14.65C14.0255 13.8167 14.2005 13.075 14.5505 12.425C14.9172 11.7583 15.4172 11.2417 16.0505 10.875C16.7005 10.5083 17.4338 10.325 18.2505 10.325C19.1838 10.325 20.0088 10.5 20.7255 10.85C21.4422 11.2 22.0005 11.6917 22.4005 12.325C22.8005 12.9417 23.0005 13.65 23.0005 14.45V19.5ZM19.6005 14.65C19.6005 14.3667 19.4672 14.1333 19.2005 13.95C18.9505 13.7667 18.6172 13.675 18.2005 13.675C17.8005 13.675 17.4672 13.7667 17.2005 13.95C16.9505 14.1333 16.8255 14.3667 16.8255 14.65V16.15H19.6005V14.65ZM16.5505 19.5H7.60049V14.45C7.60049 13.65 7.80049 12.9417 8.20049 12.325C8.60049 11.6917 9.15882 11.2 9.87549 10.85C10.5922 10.5 11.4088 10.325 12.3255 10.325C13.1422 10.325 13.8672 10.5083 14.5005 10.875C15.1505 11.2417 15.6505 11.7583 16.0005 12.425C16.3672 13.075 16.5505 13.8167 16.5505 14.65V19.5ZM13.7255 14.65C13.7255 14.3667 13.5922 14.1333 13.3255 13.95C13.0755 13.7667 12.7505 13.675 12.3505 13.675C11.9505 13.675 11.6255 13.7667 11.3755 13.95C11.1255 14.1333 11.0005 14.3667 11.0005 14.65V16.15H13.7255V14.65ZM5.45049 11.525V13.625H2.30049V11.525H0.250488V8.525H2.30049V6.425H5.45049V8.525H7.50049V11.525H5.45049ZM18.4005 8.95C17.7338 8.95 17.1672 8.725 16.7005 8.275C16.2505 7.80833 16.0255 7.24167 16.0255 6.575C16.0255 5.90833 16.2505 5.35 16.7005 4.9C17.1672 4.43333 17.7338 4.2 18.4005 4.2C19.0672 4.2 19.6255 4.43333 20.0755 4.9C20.5422 5.35 20.7755 5.90833 20.7755 6.575C20.7755 7.24167 20.5422 7.80833 20.0755 8.275C19.6255 8.725 19.0672 8.95 18.4005 8.95ZM18.4005 6.575C18.6505 6.575 18.8338 6.575 18.9505 6.575C19.0672 6.575 19.2505 6.575 19.5005 6.575C19.2505 6.575 19.0672 6.575 18.9505 6.575C18.8338 6.575 18.6505 6.575 18.4005 6.575C18.1505 6.575 17.9672 6.575 17.8505 6.575C17.7338 6.575 17.5505 6.575 17.3005 6.575C17.5505 6.575 17.7338 6.575 17.8505 6.575C17.9672 6.575 18.1505 6.575 18.4005 6.575ZM12.2005 8.95C11.5338 8.95 10.9672 8.725 10.5005 8.275C10.0505 7.80833 9.82549 7.24167 9.82549 6.575C9.82549 5.90833 10.0505 5.35 10.5005 4.9C10.9672 4.43333 11.5338 4.2 12.2005 4.2C12.8672 4.2 13.4255 4.43333 13.8755 4.9C14.3422 5.35 14.5755 5.90833 14.5755 6.575C14.5755 7.24167 14.3422 7.80833 13.8755 8.275C13.4255 8.725 12.8672 8.95 12.2005 8.95ZM12.2005 6.575C12.4505 6.575 12.6338 6.575 12.7505 6.575C12.8672 6.575 13.0505 6.575 13.3005 6.575C13.0505 6.575 12.8672 6.575 12.7505 6.575C12.6338 6.575 12.4505 6.575 12.2005 6.575C11.9505 6.575 11.7672 6.575 11.6505 6.575C11.5338 6.575 11.3505 6.575 11.1005 6.575C11.3505 6.575 11.5338 6.575 11.6505 6.575C11.7672 6.575 11.9505 6.575 12.2005 6.575Z" fill="black"/>
</g>
<defs>
<clipPath id="clip0_3375_6629">
<rect width="24" height="24" fill="white"/>
</clipPath>
</defs>
</svg>
