<svg width="24" height="24" viewBox="0 0 24 24" fill="none" xmlns="http://www.w3.org/2000/svg">
<g clip-path="url(#clip0_3207_17500)">
<rect width="24" height="24" fill="white"/>
<path d="M21.5005 21H7.00049V17.625C7.00049 16.375 7.29216 15.3 7.87549 14.4C8.45882 13.5 9.29216 12.8167 10.3755 12.35C11.4588 11.8667 12.7505 11.625 14.2505 11.625C15.7505 11.625 17.0422 11.8667 18.1255 12.35C19.2088 12.8167 20.0422 13.5 20.6255 14.4C21.2088 15.3 21.5005 16.375 21.5005 17.625V21ZM20.5255 17.625C20.5255 16.025 19.9838 14.7833 18.9005 13.9C17.8172 13 16.2672 12.55 14.2505 12.55C12.2338 12.55 10.6838 13 9.60049 13.9C8.51716 14.7833 7.97549 16.025 7.97549 17.625V20.075H20.5255V17.625ZM14.2505 9.8C13.5338 9.8 12.8755 9.63333 12.2755 9.3C11.6922 8.95 11.2255 8.48333 10.8755 7.9C10.5422 7.3 10.3755 6.65 10.3755 5.95C10.3755 5.23333 10.5422 4.58333 10.8755 4C11.2255 3.4 11.7005 2.93333 12.3005 2.6C12.9005 2.25 13.5505 2.075 14.2505 2.075C14.9672 2.075 15.6172 2.25 16.2005 2.6C16.8005 2.93333 17.2672 3.4 17.6005 4C17.9505 4.58333 18.1255 5.23333 18.1255 5.95C18.1255 6.65 17.9505 7.3 17.6005 7.9C17.2672 8.48333 16.8005 8.95 16.2005 9.3C15.6005 9.63333 14.9505 9.8 14.2505 9.8ZM14.2505 8.9C14.7838 8.9 15.2755 8.76667 15.7255 8.5C16.1755 8.23333 16.5338 7.875 16.8005 7.425C17.0672 6.975 17.2005 6.48333 17.2005 5.95C17.2005 5.41667 17.0672 4.925 16.8005 4.475C16.5338 4.00833 16.1755 3.64167 15.7255 3.375C15.2755 3.10833 14.7838 2.975 14.2505 2.975C13.7172 2.975 13.2255 3.10833 12.7755 3.375C12.3255 3.64167 11.9672 4.00833 11.7005 4.475C11.4338 4.925 11.3005 5.41667 11.3005 5.95C11.3005 6.48333 11.4338 6.975 11.7005 7.425C11.9672 7.875 12.3255 8.23333 12.7755 8.5C13.2255 8.76667 13.7172 8.9 14.2505 8.9ZM5.05049 10.3V13.35H4.15049V10.3H1.10049V9.425H4.15049V6.4H5.05049V9.425H8.10049V10.3H5.05049Z" fill="black"/>
</g>
<defs>
<clipPath id="clip0_3207_17500">
<rect width="24" height="24" fill="white"/>
</clipPath>
</defs>
</svg>
