<svg width="24" height="24" viewBox="0 0 24 24" fill="none" xmlns="http://www.w3.org/2000/svg">
<g clip-path="url(#clip0_3375_6629)">
<rect width="24" height="24" fill="white"/>
<path d="M23.0005 19.5H14.0005V14.65C14.0005 13.8167 14.1755 13.075 14.5255 12.425C14.8922 11.7583 15.3922 11.2417 16.0255 10.875C16.6588 10.5083 17.3838 10.325 18.2005 10.325C19.1338 10.325 19.9588 10.5 20.6755 10.85C21.4088 11.2 21.9755 11.6917 22.3755 12.325C22.7922 12.9417 23.0005 13.65 23.0005 14.45V19.5ZM19.5505 14.65C19.5505 14.3833 19.4255 14.1667 19.1755 14C18.9255 13.8167 18.6005 13.725 18.2005 13.725C17.8005 13.725 17.4755 13.8167 17.2255 14C16.9755 14.1667 16.8505 14.3833 16.8505 14.65V16.1H19.5505V14.65ZM16.5755 19.5H7.60049V14.45C7.60049 13.65 7.80049 12.9417 8.20049 12.325C8.61716 11.6917 9.18382 11.2 9.90049 10.85C10.6338 10.5 11.4588 10.325 12.3755 10.325C13.1922 10.325 13.9172 10.5083 14.5505 10.875C15.1838 11.2417 15.6755 11.7583 16.0255 12.425C16.3922 13.075 16.5755 13.8167 16.5755 14.65V19.5ZM13.7005 14.65C13.7005 14.3833 13.5755 14.1667 13.3255 14C13.0755 13.8167 12.7588 13.725 12.3755 13.725C11.9922 13.725 11.6755 13.8167 11.4255 14C11.1755 14.1667 11.0505 14.3833 11.0505 14.65V16.1H13.7005V14.65ZM5.70049 11.75V13.75H2.05049V11.75H0.125488V8.3H2.05049V6.3H5.70049V8.3H7.62549V11.75H5.70049ZM18.3505 8.95C17.6838 8.95 17.1172 8.725 16.6505 8.275C16.2005 7.80833 15.9755 7.24167 15.9755 6.575C15.9755 5.90833 16.2005 5.35 16.6505 4.9C17.1172 4.43333 17.6838 4.2 18.3505 4.2C19.0172 4.2 19.5755 4.43333 20.0255 4.9C20.4922 5.35 20.7255 5.90833 20.7255 6.575C20.7255 7.24167 20.4922 7.80833 20.0255 8.275C19.5755 8.725 19.0172 8.95 18.3505 8.95ZM18.3505 6.575C18.6005 6.575 18.7838 6.575 18.9005 6.575C19.0172 6.575 19.2005 6.575 19.4505 6.575C19.2005 6.575 19.0172 6.575 18.9005 6.575C18.7838 6.575 18.6005 6.575 18.3505 6.575C18.1005 6.575 17.9172 6.575 17.8005 6.575C17.6838 6.575 17.5005 6.575 17.2505 6.575C17.5005 6.575 17.6838 6.575 17.8005 6.575C17.9172 6.575 18.1005 6.575 18.3505 6.575ZM12.2505 8.95C11.5838 8.95 11.0172 8.725 10.5505 8.275C10.1005 7.80833 9.87549 7.24167 9.87549 6.575C9.87549 5.90833 10.1005 5.35 10.5505 4.9C11.0172 4.43333 11.5838 4.2 12.2505 4.2C12.9172 4.2 13.4755 4.43333 13.9255 4.9C14.3922 5.35 14.6255 5.90833 14.6255 6.575C14.6255 7.24167 14.3922 7.80833 13.9255 8.275C13.4755 8.725 12.9172 8.95 12.2505 8.95ZM12.2505 6.575C12.5005 6.575 12.6838 6.575 12.8005 6.575C12.9172 6.575 13.1005 6.575 13.3505 6.575C13.1005 6.575 12.9172 6.575 12.8005 6.575C12.6838 6.575 12.5005 6.575 12.2505 6.575C12.0005 6.575 11.8172 6.575 11.7005 6.575C11.5838 6.575 11.4005 6.575 11.1505 6.575C11.4005 6.575 11.5838 6.575 11.7005 6.575C11.8172 6.575 12.0005 6.575 12.2505 6.575Z" fill="black"/>
</g>
<defs>
<clipPath id="clip0_3375_6629">
<rect width="24" height="24" fill="white"/>
</clipPath>
</defs>
</svg>
