<svg width="24" height="24" viewBox="0 0 24 24" fill="none" xmlns="http://www.w3.org/2000/svg">
<g clip-path="url(#clip0_3351_737)">
<rect width="24" height="24" fill="white"/>
<path d="M21.5005 21H7.00049V17.15C7.00049 16.0333 7.29216 15.0667 7.87549 14.25C8.47549 13.4167 9.31716 12.775 10.4005 12.325C11.5005 11.875 12.7838 11.65 14.2505 11.65C15.7172 11.65 16.9922 11.875 18.0755 12.325C19.1755 12.775 20.0172 13.4167 20.6005 14.25C21.2005 15.0667 21.5005 16.0333 21.5005 17.15V21ZM18.4755 17.15C18.4755 16.4 18.1255 15.8 17.4255 15.35C16.7255 14.8833 15.6672 14.65 14.2505 14.65C12.8338 14.65 11.7755 14.8833 11.0755 15.35C10.3755 15.8 10.0255 16.4 10.0255 17.15V18.025H18.4755V17.15ZM14.2505 10.575C13.4672 10.575 12.7505 10.3833 12.1005 10C11.4505 9.61667 10.9338 9.10833 10.5505 8.475C10.1672 7.825 9.97549 7.10833 9.97549 6.325C9.97549 5.54167 10.1672 4.83333 10.5505 4.2C10.9338 3.55 11.4505 3.03333 12.1005 2.65C12.7505 2.26667 13.4672 2.075 14.2505 2.075C15.0338 2.075 15.7505 2.26667 16.4005 2.65C17.0505 3.03333 17.5672 3.55 17.9505 4.2C18.3338 4.83333 18.5255 5.54167 18.5255 6.325C18.5255 7.10833 18.3338 7.825 17.9505 8.475C17.5672 9.10833 17.0505 9.61667 16.4005 10C15.7505 10.3833 15.0338 10.575 14.2505 10.575ZM14.2505 7.925C14.5338 7.925 14.8005 7.85833 15.0505 7.725C15.3005 7.575 15.4922 7.375 15.6255 7.125C15.7755 6.875 15.8505 6.60833 15.8505 6.325C15.8505 6.04167 15.7755 5.775 15.6255 5.525C15.4922 5.275 15.3005 5.08333 15.0505 4.95C14.8005 4.8 14.5338 4.725 14.2505 4.725C13.9672 4.725 13.7005 4.8 13.4505 4.95C13.2005 5.08333 13.0005 5.275 12.8505 5.525C12.7172 5.775 12.6505 6.04167 12.6505 6.325C12.6505 6.60833 12.7172 6.875 12.8505 7.125C13.0005 7.375 13.2005 7.575 13.4505 7.725C13.7005 7.85833 13.9672 7.925 14.2505 7.925ZM5.95049 11.15V13.425H3.25049V11.15H1.02549V8.6H3.25049V6.325H5.95049V8.6H8.17549V11.15H5.95049Z" fill="black"/>
</g>
<defs>
<clipPath id="clip0_3351_737">
<rect width="24" height="24" fill="white"/>
</clipPath>
</defs>
</svg>
