<svg width="24" height="24" viewBox="0 0 24 24" fill="none" xmlns="http://www.w3.org/2000/svg">
<g clip-path="url(#clip0_3207_16833)">
<rect width="24" height="24" fill="white"/>
<path d="M13.0005 12.7C13.0005 11.75 13.3172 10.9917 13.9505 10.425C14.6005 9.84167 15.4505 9.55 16.5005 9.55C17.5505 9.55 18.3922 9.84167 19.0255 10.425C19.6755 10.9917 20.0005 11.75 20.0005 12.7V21H13.0005V12.7ZM4.00049 12.7C4.00049 11.75 4.31716 10.9917 4.95049 10.425C5.60049 9.84167 6.45049 9.55 7.50049 9.55C8.55049 9.55 9.39216 9.84167 10.0255 10.425C10.6755 10.9917 11.0005 11.75 11.0005 12.7V21H4.00049V12.7ZM8.87549 18.925V12.7C8.87549 12.3833 8.75049 12.1333 8.50049 11.95C8.25049 11.75 7.91716 11.65 7.50049 11.65C7.08382 11.65 6.75049 11.75 6.50049 11.95C6.25049 12.1333 6.12549 12.3833 6.12549 12.7V18.925H8.87549ZM17.8755 18.925V12.7C17.8755 12.3833 17.7505 12.1333 17.5005 11.95C17.2505 11.75 16.9172 11.65 16.5005 11.65C16.0838 11.65 15.7505 11.75 15.5005 11.95C15.2505 12.1333 15.1255 12.3833 15.1255 12.7V18.925H17.8755ZM7.50049 8.4C6.68382 8.4 5.99216 8.125 5.42549 7.575C4.85882 7.00833 4.57549 6.31667 4.57549 5.5C4.57549 4.7 4.85882 4.025 5.42549 3.475C5.99216 2.90833 6.68382 2.625 7.50049 2.625C8.30049 2.625 8.98382 2.90833 9.55049 3.475C10.1338 4.025 10.4255 4.7 10.4255 5.5C10.4255 6.31667 10.1422 7.00833 9.57549 7.575C9.00882 8.125 8.31716 8.4 7.50049 8.4ZM7.50049 6.6C7.81716 6.6 8.07549 6.5 8.27549 6.3C8.47549 6.08333 8.57549 5.81667 8.57549 5.5C8.57549 5.2 8.47549 4.95 8.27549 4.75C8.07549 4.55 7.81716 4.45 7.50049 4.45C7.20049 4.45 6.94216 4.55 6.72549 4.75C6.52549 4.95 6.42549 5.2 6.42549 5.5C6.42549 5.8 6.52549 6.05833 6.72549 6.275C6.94216 6.49167 7.20049 6.6 7.50049 6.6ZM16.5005 8.4C15.6838 8.4 14.9922 8.125 14.4255 7.575C13.8588 7.00833 13.5755 6.31667 13.5755 5.5C13.5755 4.7 13.8588 4.025 14.4255 3.475C14.9922 2.90833 15.6838 2.625 16.5005 2.625C17.3005 2.625 17.9838 2.90833 18.5505 3.475C19.1338 4.025 19.4255 4.7 19.4255 5.5C19.4255 6.31667 19.1422 7.00833 18.5755 7.575C18.0088 8.125 17.3172 8.4 16.5005 8.4ZM16.5005 6.6C16.8172 6.6 17.0755 6.5 17.2755 6.3C17.4755 6.08333 17.5755 5.81667 17.5755 5.5C17.5755 5.2 17.4755 4.95 17.2755 4.75C17.0755 4.55 16.8172 4.45 16.5005 4.45C16.2005 4.45 15.9422 4.55 15.7255 4.75C15.5255 4.95 15.4255 5.2 15.4255 5.5C15.4255 5.8 15.5255 6.05833 15.7255 6.275C15.9422 6.49167 16.2005 6.6 16.5005 6.6Z" fill="black"/>
</g>
<defs>
<clipPath id="clip0_3207_16833">
<rect width="24" height="24" fill="white"/>
</clipPath>
</defs>
</svg>
