<svg width="24" height="24" viewBox="0 0 24 24" fill="none" xmlns="http://www.w3.org/2000/svg">
<g clip-path="url(#clip0_3375_5419)">
<rect width="24" height="24" fill="white"/>
<path d="M3.22549 11.225C3.22549 10.2917 3.55049 9.53333 4.20049 8.95C4.86716 8.35 5.71716 8.05 6.75049 8.05C7.28382 8.05 7.75049 8.125 8.15049 8.275C8.55049 8.40833 8.90049 8.59167 9.20049 8.825C9.50049 9.05833 9.84216 9.375 10.2255 9.775C10.3088 9.85833 10.3672 9.925 10.4005 9.975C10.4505 10.0083 10.5172 10.0667 10.6005 10.15L12.2505 11.825H17.2505C18.3005 11.825 19.1505 12.1167 19.8005 12.7C20.4505 13.2667 20.7755 14.025 20.7755 14.975V21H13.7005V14.375H12.1505C11.9005 14.375 11.6672 14.3417 11.4505 14.275C11.2338 14.2083 11.0588 14.1083 10.9255 13.975L10.2755 13.3V21H3.22549V11.225ZM7.70049 11.225C7.70049 11.0417 7.60882 10.8917 7.42549 10.775C7.25882 10.6583 7.04216 10.6 6.77549 10.6C6.49216 10.6 6.25882 10.6583 6.07549 10.775C5.90882 10.8917 5.82549 11.0417 5.82549 11.225V18.45H7.70049V11.225ZM18.1755 18.45V14.975C18.1755 14.7917 18.0838 14.65 17.9005 14.55C17.7338 14.4333 17.5172 14.375 17.2505 14.375H16.3005V18.45H18.1755ZM8.82549 19.925H8.87549C8.89216 19.925 8.90049 19.925 8.90049 19.925H8.95049H9.00049C9.00049 19.925 8.99216 19.925 8.97549 19.925H8.90049H8.85049C8.83382 19.925 8.82549 19.925 8.82549 19.925C8.82549 19.925 8.81716 19.925 8.80049 19.925C8.80049 19.925 8.79216 19.925 8.77549 19.925H8.82549ZM8.77549 19.925C8.79216 19.925 8.80049 19.925 8.80049 19.925C8.81716 19.925 8.82549 19.925 8.82549 19.925C8.82549 19.925 8.83382 19.925 8.85049 19.925H8.90049H8.97549C8.99216 19.925 9.00049 19.925 9.00049 19.925H8.92549H8.90049C8.90049 19.925 8.89216 19.925 8.87549 19.925H8.85049H8.77549ZM6.75049 6.875C6.15049 6.875 5.64216 6.66667 5.22549 6.25C4.82549 5.83333 4.62549 5.325 4.62549 4.725C4.62549 4.14167 4.82549 3.65 5.22549 3.25C5.64216 2.83333 6.15049 2.625 6.75049 2.625C7.35049 2.625 7.85049 2.83333 8.25049 3.25C8.66716 3.65 8.87549 4.14167 8.87549 4.725C8.87549 5.325 8.66716 5.83333 8.25049 6.25C7.85049 6.66667 7.35049 6.875 6.75049 6.875ZM6.75049 4.425C6.93382 4.425 7.06716 4.425 7.15049 4.425C7.23382 4.425 7.36716 4.425 7.55049 4.425C7.35049 4.425 7.20882 4.425 7.12549 4.425C7.04216 4.425 6.91716 4.425 6.75049 4.425C6.55049 4.425 6.40882 4.425 6.32549 4.425C6.24216 4.425 6.11716 4.425 5.95049 4.425C6.13382 4.425 6.26716 4.425 6.35049 4.425C6.43382 4.425 6.56716 4.425 6.75049 4.425ZM17.2505 10.65C16.6338 10.65 16.1172 10.4417 15.7005 10.025C15.3005 9.60833 15.1005 9.1 15.1005 8.5C15.1005 7.91667 15.3005 7.425 15.7005 7.025C16.1172 6.60833 16.6255 6.4 17.2255 6.4C17.8255 6.4 18.3255 6.60833 18.7255 7.025C19.1422 7.425 19.3505 7.91667 19.3505 8.5C19.3505 9.1 19.1422 9.60833 18.7255 10.025C18.3255 10.4417 17.8338 10.65 17.2505 10.65ZM17.2505 8.2C17.4338 8.2 17.5672 8.2 17.6505 8.2C17.7338 8.2 17.8588 8.2 18.0255 8.2C17.8422 8.2 17.7088 8.2 17.6255 8.2C17.5422 8.2 17.4088 8.2 17.2255 8.2C17.0422 8.2 16.9088 8.2 16.8255 8.2C16.7422 8.2 16.6088 8.2 16.4255 8.2C16.6255 8.2 16.7672 8.2 16.8505 8.2C16.9338 8.2 17.0672 8.2 17.2505 8.2Z" fill="black"/>
</g>
<defs>
<clipPath id="clip0_3375_5419">
<rect width="24" height="24" fill="white"/>
</clipPath>
</defs>
</svg>
