<svg width="24" height="24" viewBox="0 0 24 24" fill="none" xmlns="http://www.w3.org/2000/svg">
<g clip-path="url(#clip0_3207_15294)">
<rect width="24" height="24" fill="white"/>
<path d="M2.00049 11.725C2.00049 11.025 2.25049 10.45 2.75049 10C3.25049 9.55 3.88382 9.325 4.65049 9.325C5.41716 9.325 6.05049 9.55 6.55049 10C7.05049 10.45 7.30049 11.025 7.30049 11.725V20H2.00049V11.725ZM6.82549 11.725C6.82549 11.1583 6.61716 10.6917 6.20049 10.325C5.80049 9.95833 5.28382 9.775 4.65049 9.775C4.01716 9.775 3.49216 9.95833 3.07549 10.325C2.67549 10.6917 2.47549 11.1583 2.47549 11.725V19.55H6.82549V11.725ZM16.7005 14.475C16.7005 13.775 16.9505 13.2 17.4505 12.75C17.9505 12.3 18.5838 12.075 19.3505 12.075C20.1172 12.075 20.7505 12.3 21.2505 12.75C21.7505 13.2 22.0005 13.775 22.0005 14.475V20H16.7005V14.475ZM21.5255 14.475C21.5255 13.9083 21.3172 13.4417 20.9005 13.075C20.5005 12.7083 19.9838 12.525 19.3505 12.525C18.7172 12.525 18.1922 12.7083 17.7755 13.075C17.3755 13.4417 17.1755 13.9083 17.1755 14.475V19.55H21.5255V14.475ZM9.35049 11.725C9.35049 11.025 9.60049 10.45 10.1005 10C10.6005 9.55 11.2338 9.325 12.0005 9.325C12.7672 9.325 13.4005 9.55 13.9005 10C14.4005 10.45 14.6505 11.025 14.6505 11.725V20H9.35049V11.725ZM14.1755 11.725C14.1755 11.1583 13.9672 10.6917 13.5505 10.325C13.1505 9.95833 12.6338 9.775 12.0005 9.775C11.3672 9.775 10.8422 9.95833 10.4255 10.325C10.0255 10.6917 9.82549 11.1583 9.82549 11.725V19.55H14.1755V11.725ZM4.65049 8.075C4.06716 8.075 3.56716 7.875 3.15049 7.475C2.73382 7.05833 2.52549 6.55833 2.52549 5.975C2.52549 5.39167 2.73382 4.9 3.15049 4.5C3.56716 4.08333 4.06716 3.875 4.65049 3.875C5.23382 3.875 5.73382 4.08333 6.15049 4.5C6.56716 4.9 6.77549 5.39167 6.77549 5.975C6.77549 6.55833 6.56716 7.05833 6.15049 7.475C5.73382 7.875 5.23382 8.075 4.65049 8.075ZM4.65049 7.625C5.11716 7.625 5.50882 7.46667 5.82549 7.15C6.14216 6.83333 6.30049 6.44167 6.30049 5.975C6.30049 5.525 6.14216 5.14167 5.82549 4.825C5.50882 4.49167 5.11716 4.325 4.65049 4.325C4.18382 4.325 3.79216 4.49167 3.47549 4.825C3.15882 5.14167 3.00049 5.525 3.00049 5.975C3.00049 6.44167 3.15882 6.83333 3.47549 7.15C3.79216 7.46667 4.18382 7.625 4.65049 7.625ZM19.3505 10.825C18.7672 10.825 18.2672 10.625 17.8505 10.225C17.4338 9.80833 17.2255 9.30833 17.2255 8.725C17.2255 8.14167 17.4338 7.65 17.8505 7.25C18.2672 6.83333 18.7672 6.625 19.3505 6.625C19.9338 6.625 20.4338 6.83333 20.8505 7.25C21.2672 7.65 21.4755 8.14167 21.4755 8.725C21.4755 9.30833 21.2672 9.80833 20.8505 10.225C20.4338 10.625 19.9338 10.825 19.3505 10.825ZM19.3505 10.375C19.8172 10.375 20.2088 10.2167 20.5255 9.9C20.8422 9.58333 21.0005 9.19167 21.0005 8.725C21.0005 8.275 20.8422 7.89167 20.5255 7.575C20.2088 7.24167 19.8172 7.075 19.3505 7.075C18.8838 7.075 18.4922 7.24167 18.1755 7.575C17.8588 7.89167 17.7005 8.275 17.7005 8.725C17.7005 9.19167 17.8588 9.58333 18.1755 9.9C18.4922 10.2167 18.8838 10.375 19.3505 10.375ZM12.0005 8.075C11.4172 8.075 10.9172 7.875 10.5005 7.475C10.0838 7.05833 9.87549 6.55833 9.87549 5.975C9.87549 5.39167 10.0838 4.9 10.5005 4.5C10.9172 4.08333 11.4172 3.875 12.0005 3.875C12.5838 3.875 13.0838 4.08333 13.5005 4.5C13.9172 4.9 14.1255 5.39167 14.1255 5.975C14.1255 6.55833 13.9172 7.05833 13.5005 7.475C13.0838 7.875 12.5838 8.075 12.0005 8.075ZM12.0005 7.625C12.4672 7.625 12.8588 7.46667 13.1755 7.15C13.4922 6.83333 13.6505 6.44167 13.6505 5.975C13.6505 5.525 13.4922 5.14167 13.1755 4.825C12.8588 4.49167 12.4672 4.325 12.0005 4.325C11.5338 4.325 11.1422 4.49167 10.8255 4.825C10.5088 5.14167 10.3505 5.525 10.3505 5.975C10.3505 6.44167 10.5088 6.83333 10.8255 7.15C11.1422 7.46667 11.5338 7.625 12.0005 7.625Z" fill="black"/>
</g>
<defs>
<clipPath id="clip0_3207_15294">
<rect width="24" height="24" fill="white"/>
</clipPath>
</defs>
</svg>
