<svg width="24" height="24" viewBox="0 0 24 24" fill="none" xmlns="http://www.w3.org/2000/svg">
<g clip-path="url(#clip0_3207_17680)">
<rect width="24" height="24" fill="white"/>
<path d="M6.1 7.325C5.45 7.325 4.89167 7.1 4.425 6.65C3.95833 6.18333 3.725 5.625 3.725 4.975C3.725 4.325 3.95833 3.775 4.425 3.325C4.89167 2.85833 5.45 2.625 6.1 2.625C6.75 2.625 7.30833 2.85833 7.775 3.325C8.24167 3.775 8.475 4.325 8.475 4.975C8.475 5.625 8.24167 6.18333 7.775 6.65C7.30833 7.1 6.75 7.325 6.1 7.325ZM17.9 7.325C17.25 7.325 16.6917 7.1 16.225 6.65C15.7583 6.18333 15.525 5.625 15.525 4.975C15.525 4.325 15.7583 3.775 16.225 3.325C16.6917 2.85833 17.25 2.625 17.9 2.625C18.55 2.625 19.1083 2.85833 19.575 3.325C20.0417 3.775 20.275 4.325 20.275 4.975C20.275 5.625 20.0417 6.18333 19.575 6.65C19.1083 7.1 18.55 7.325 17.9 7.325ZM3.225 10.975C3.225 10.2083 3.45 9.60833 3.9 9.175C4.35 8.725 5.03333 8.5 5.95 8.5C6.66667 8.5 7.24167 8.63333 7.675 8.9C8.125 9.16667 8.625 9.575 9.175 10.125L12 12.95L14.825 10.125C15.375 9.575 15.8667 9.16667 16.3 8.9C16.75 8.63333 17.3333 8.5 18.05 8.5C18.9667 8.5 19.65 8.725 20.1 9.175C20.55 9.60833 20.775 10.2083 20.775 10.975V21H15.525V14.625L14.05 15.85C13.3833 16.4167 12.7 16.7 12 16.7C11.3167 16.7 10.6333 16.4167 9.95 15.85L8.475 14.625V21H3.225V10.975Z" fill="black"/>
</g>
<defs>
<clipPath id="clip0_3207_17680">
<rect width="24" height="24" fill="white"/>
</clipPath>
</defs>
</svg>
