<svg width="24" height="24" viewBox="0 0 24 24" fill="none" xmlns="http://www.w3.org/2000/svg">
<g clip-path="url(#clip0_3207_15408)">
<rect width="24" height="24" fill="white"/>
<path d="M4.00049 11.225C4.00049 10.425 4.29216 9.775 4.87549 9.275C5.47549 8.75833 6.23382 8.5 7.15049 8.5C8.06716 8.5 8.81716 8.75833 9.40049 9.275C10.0005 9.775 10.3005 10.425 10.3005 11.225V21H4.00049V11.225ZM9.80049 20.525V11.225C9.80049 10.5583 9.55049 10.0167 9.05049 9.6C8.56716 9.18333 7.93382 8.975 7.15049 8.975C6.36716 8.975 5.72549 9.18333 5.22549 9.6C4.74216 10.0167 4.50049 10.5583 4.50049 11.225V20.525H9.80049ZM13.7005 14.225C13.7005 13.425 13.9922 12.775 14.5755 12.275C15.1755 11.7583 15.9338 11.5 16.8505 11.5C17.7672 11.5 18.5172 11.7583 19.1005 12.275C19.7005 12.775 20.0005 13.425 20.0005 14.225V21H13.7005V14.225ZM19.5005 20.525V14.225C19.5005 13.5583 19.2505 13.0167 18.7505 12.6C18.2672 12.1833 17.6338 11.975 16.8505 11.975C16.0672 11.975 15.4255 12.1833 14.9255 12.6C14.4422 13.0167 14.2005 13.5583 14.2005 14.225V20.525H19.5005ZM7.12549 7.075C6.49216 7.075 5.95882 6.85833 5.52549 6.425C5.09216 5.99167 4.87549 5.46667 4.87549 4.85C4.87549 4.23333 5.09216 3.70833 5.52549 3.275C5.95882 2.84167 6.49216 2.625 7.12549 2.625C7.75882 2.625 8.29216 2.84167 8.72549 3.275C9.15882 3.70833 9.37549 4.23333 9.37549 4.85C9.37549 5.46667 9.15882 5.99167 8.72549 6.425C8.29216 6.85833 7.75882 7.075 7.12549 7.075ZM7.12549 6.6C7.60882 6.6 8.01716 6.43333 8.35049 6.1C8.70049 5.76667 8.87549 5.35 8.87549 4.85C8.87549 4.35 8.70049 3.93333 8.35049 3.6C8.01716 3.25 7.60882 3.075 7.12549 3.075C6.64216 3.075 6.22549 3.25 5.87549 3.6C5.54216 3.93333 5.37549 4.35 5.37549 4.85C5.37549 5.35 5.54216 5.76667 5.87549 6.1C6.22549 6.43333 6.64216 6.6 7.12549 6.6ZM16.8255 10.075C16.1922 10.075 15.6588 9.85833 15.2255 9.425C14.7922 8.99167 14.5755 8.46667 14.5755 7.85C14.5755 7.23333 14.7922 6.70833 15.2255 6.275C15.6588 5.84167 16.1922 5.625 16.8255 5.625C17.4588 5.625 17.9922 5.84167 18.4255 6.275C18.8588 6.70833 19.0755 7.23333 19.0755 7.85C19.0755 8.46667 18.8588 8.99167 18.4255 9.425C17.9922 9.85833 17.4588 10.075 16.8255 10.075ZM16.8255 9.6C17.3088 9.6 17.7172 9.43333 18.0505 9.1C18.4005 8.76667 18.5755 8.35 18.5755 7.85C18.5755 7.35 18.4005 6.93333 18.0505 6.6C17.7172 6.25 17.3088 6.075 16.8255 6.075C16.3422 6.075 15.9255 6.25 15.5755 6.6C15.2422 6.93333 15.0755 7.35 15.0755 7.85C15.0755 8.35 15.2422 8.76667 15.5755 9.1C15.9255 9.43333 16.3422 9.6 16.8255 9.6Z" fill="black"/>
</g>
<defs>
<clipPath id="clip0_3207_15408">
<rect width="24" height="24" fill="white"/>
</clipPath>
</defs>
</svg>
