<svg width="24" height="24" viewBox="0 0 24 24" fill="none" xmlns="http://www.w3.org/2000/svg">
<g clip-path="url(#clip0_3373_4303)">
<rect width="24" height="24" fill="white"/>
<path d="M2.50049 11.8C2.50049 11.2833 2.67549 10.875 3.02549 10.575C3.37549 10.275 3.84216 10.125 4.42549 10.125C5.00882 10.125 5.47549 10.275 5.82549 10.575C6.17549 10.875 6.35049 11.2833 6.35049 11.8V20H2.50049V11.8ZM4.72549 17.55C4.69216 17.55 4.66716 17.55 4.65049 17.55C4.65049 17.55 4.63382 17.55 4.60049 17.55C4.56716 17.55 4.54216 17.55 4.52549 17.55C4.52549 17.55 4.50882 17.55 4.47549 17.55H4.72549ZM17.6505 14.525C17.6505 14.0083 17.8255 13.6 18.1755 13.3C18.5255 13 18.9922 12.85 19.5755 12.85C20.1588 12.85 20.6255 13 20.9755 13.3C21.3255 13.6 21.5005 14.0083 21.5005 14.525V20H17.6505V14.525ZM19.5755 17.55C19.5422 17.55 19.5172 17.55 19.5005 17.55C19.5005 17.55 19.4838 17.55 19.4505 17.55C19.4172 17.55 19.3922 17.55 19.3755 17.55C19.3755 17.55 19.3588 17.55 19.3255 17.55H19.5755ZM10.0755 11.8C10.0755 11.2833 10.2505 10.875 10.6005 10.575C10.9505 10.275 11.4172 10.125 12.0005 10.125C12.5838 10.125 13.0505 10.275 13.4005 10.575C13.7505 10.875 13.9255 11.2833 13.9255 11.8V20H10.0755V11.8ZM12.1255 17.55C12.0922 17.55 12.0672 17.55 12.0505 17.55C12.0505 17.55 12.0338 17.55 12.0005 17.55C11.9672 17.55 11.9422 17.55 11.9255 17.55C11.9255 17.55 11.9088 17.55 11.8755 17.55H12.1255ZM4.42549 8.625C3.75882 8.625 3.19216 8.4 2.72549 7.95C2.27549 7.48333 2.05049 6.91667 2.05049 6.25C2.05049 5.58333 2.27549 5.025 2.72549 4.575C3.19216 4.10833 3.75882 3.875 4.42549 3.875C5.09216 3.875 5.65049 4.10833 6.10049 4.575C6.56716 5.025 6.80049 5.58333 6.80049 6.25C6.80049 6.91667 6.56716 7.48333 6.10049 7.95C5.65049 8.4 5.09216 8.625 4.42549 8.625ZM4.42549 5.4C4.62549 5.4 4.76716 5.4 4.85049 5.4C4.95049 5.4 5.09216 5.4 5.27549 5.4C5.07549 5.4 4.92549 5.4 4.82549 5.4C4.74216 5.4 4.60882 5.4 4.42549 5.4C4.22549 5.4 4.07549 5.4 3.97549 5.4C3.89216 5.4 3.75882 5.4 3.57549 5.4C3.77549 5.4 3.91716 5.4 4.00049 5.4C4.10049 5.4 4.24216 5.4 4.42549 5.4ZM19.5755 11.35C18.9088 11.35 18.3422 11.125 17.8755 10.675C17.4255 10.2083 17.2005 9.64167 17.2005 8.975C17.2005 8.30833 17.4255 7.75 17.8755 7.3C18.3422 6.83333 18.9088 6.6 19.5755 6.6C20.2422 6.6 20.8005 6.83333 21.2505 7.3C21.7172 7.75 21.9505 8.30833 21.9505 8.975C21.9505 9.64167 21.7172 10.2083 21.2505 10.675C20.8005 11.125 20.2422 11.35 19.5755 11.35ZM19.5755 8.125C19.7755 8.125 19.9172 8.125 20.0005 8.125C20.1005 8.125 20.2422 8.125 20.4255 8.125C20.2255 8.125 20.0755 8.125 19.9755 8.125C19.8922 8.125 19.7588 8.125 19.5755 8.125C19.3755 8.125 19.2255 8.125 19.1255 8.125C19.0422 8.125 18.9088 8.125 18.7255 8.125C18.9255 8.125 19.0672 8.125 19.1505 8.125C19.2505 8.125 19.3922 8.125 19.5755 8.125ZM12.0005 8.625C11.3338 8.625 10.7672 8.4 10.3005 7.95C9.85049 7.48333 9.62549 6.91667 9.62549 6.25C9.62549 5.58333 9.85049 5.025 10.3005 4.575C10.7672 4.10833 11.3338 3.875 12.0005 3.875C12.6672 3.875 13.2255 4.10833 13.6755 4.575C14.1422 5.025 14.3755 5.58333 14.3755 6.25C14.3755 6.91667 14.1422 7.48333 13.6755 7.95C13.2255 8.4 12.6672 8.625 12.0005 8.625ZM12.0005 5.4C12.2005 5.4 12.3422 5.4 12.4255 5.4C12.5255 5.4 12.6672 5.4 12.8505 5.4C12.6505 5.4 12.5005 5.4 12.4005 5.4C12.3172 5.4 12.1838 5.4 12.0005 5.4C11.8005 5.4 11.6505 5.4 11.5505 5.4C11.4672 5.4 11.3338 5.4 11.1505 5.4C11.3505 5.4 11.4922 5.4 11.5755 5.4C11.6755 5.4 11.8172 5.4 12.0005 5.4Z" fill="black"/>
</g>
<defs>
<clipPath id="clip0_3373_4303">
<rect width="24" height="24" fill="white"/>
</clipPath>
</defs>
</svg>
