<svg width="24" height="24" viewBox="0 0 24 24" fill="none" xmlns="http://www.w3.org/2000/svg">
<g clip-path="url(#clip0_3207_17658)">
<rect width="24" height="24" fill="white"/>
<path d="M7.87549 20.175H7.90049C7.91716 20.175 7.92549 20.175 7.92549 20.175C7.92549 20.175 7.93382 20.175 7.95049 20.175H7.97549H8.05049C8.03382 20.175 8.02549 20.175 8.02549 20.175C8.02549 20.175 8.01716 20.175 8.00049 20.175C7.98382 20.175 7.97549 20.175 7.97549 20.175C7.97549 20.175 7.96716 20.175 7.95049 20.175H7.92549H7.90049C7.88382 20.175 7.87549 20.175 7.87549 20.175C7.87549 20.175 7.86716 20.175 7.85049 20.175C7.83382 20.175 7.82549 20.175 7.82549 20.175C7.82549 20.175 7.81716 20.175 7.80049 20.175H7.87549ZM7.80049 20.175C7.81716 20.175 7.82549 20.175 7.82549 20.175C7.82549 20.175 7.83382 20.175 7.85049 20.175C7.86716 20.175 7.87549 20.175 7.87549 20.175C7.87549 20.175 7.88382 20.175 7.90049 20.175H7.92549H7.95049C7.96716 20.175 7.97549 20.175 7.97549 20.175C7.97549 20.175 7.98382 20.175 8.00049 20.175C8.01716 20.175 8.02549 20.175 8.02549 20.175C8.02549 20.175 8.03382 20.175 8.05049 20.175H7.97549H7.95049C7.93382 20.175 7.92549 20.175 7.92549 20.175C7.92549 20.175 7.91716 20.175 7.90049 20.175H7.87549H7.80049ZM3.22549 11.625C3.22549 10.8417 3.48382 10.2083 4.00049 9.725C4.53382 9.24167 5.23382 9 6.10049 9C6.70049 9 7.22549 9.10833 7.67549 9.325C8.12549 9.525 8.57549 9.83333 9.02549 10.25L9.45049 10.675L12.1755 13.375L12.0005 14.65C11.8505 14.65 11.6922 14.625 11.5255 14.575C11.3755 14.5083 11.2422 14.4167 11.1255 14.3L8.97549 12.2V21H3.22549V11.625ZM7.55049 12.475V12.175V11.925V11.625C7.55049 11.2583 7.41716 10.9667 7.15049 10.75C6.90049 10.5167 6.55049 10.4 6.10049 10.4C5.68382 10.4 5.34216 10.5167 5.07549 10.75C4.80882 10.9833 4.67549 11.275 4.67549 11.625V19.6H7.55049V12.475ZM15.0255 21V12.2L12.8755 14.325C12.7588 14.425 12.6172 14.5083 12.4505 14.575C12.3005 14.625 12.1505 14.65 12.0005 14.65L11.8255 13.375L14.5505 10.675L14.9755 10.25C15.4255 9.83333 15.8755 9.525 16.3255 9.325C16.7755 9.10833 17.3005 9 17.9005 9C18.7672 9 19.4588 9.24167 19.9755 9.725C20.5088 10.2083 20.7755 10.8417 20.7755 11.625V21H15.0255ZM19.3255 19.6V11.625C19.3255 11.275 19.1922 10.9833 18.9255 10.75C18.6588 10.5167 18.3088 10.4 17.8755 10.4C17.4422 10.4 17.0922 10.5167 16.8255 10.75C16.5755 10.9833 16.4505 11.275 16.4505 11.625V11.975V12.3V12.625V19.6H19.3255ZM6.12549 7.75C5.40882 7.75 4.80049 7.5 4.30049 7C3.80049 6.5 3.55049 5.88333 3.55049 5.15C3.55049 4.45 3.79216 3.85833 4.27549 3.375C4.77549 2.875 5.39216 2.625 6.12549 2.625C6.84216 2.625 7.45049 2.875 7.95049 3.375C8.46716 3.85833 8.72549 4.45 8.72549 5.15C8.72549 5.88333 8.47549 6.5 7.97549 7C7.47549 7.5 6.85882 7.75 6.12549 7.75ZM6.12549 6.5C6.50882 6.5 6.82549 6.375 7.07549 6.125C7.34216 5.85833 7.47549 5.54167 7.47549 5.175C7.47549 4.79167 7.34216 4.475 7.07549 4.225C6.82549 3.975 6.50882 3.85 6.12549 3.85C5.75882 3.85 5.44216 3.975 5.17549 4.225C4.92549 4.475 4.80049 4.78333 4.80049 5.15C4.80049 5.55 4.92549 5.875 5.17549 6.125C5.44216 6.375 5.75882 6.5 6.12549 6.5ZM17.8255 7.75C17.0922 7.75 16.4755 7.5 15.9755 7C15.4755 6.5 15.2255 5.88333 15.2255 5.15C15.2255 4.45 15.4755 3.85833 15.9755 3.375C16.4922 2.875 17.1088 2.625 17.8255 2.625C18.5588 2.625 19.1672 2.875 19.6505 3.375C20.1505 3.85833 20.4005 4.45 20.4005 5.15C20.4005 5.88333 20.1505 6.5 19.6505 7C19.1505 7.5 18.5422 7.75 17.8255 7.75ZM17.8255 6.5C18.1922 6.5 18.5005 6.375 18.7505 6.125C19.0172 5.875 19.1505 5.55 19.1505 5.15C19.1505 4.78333 19.0172 4.475 18.7505 4.225C18.5005 3.975 18.1922 3.85 17.8255 3.85C17.4422 3.85 17.1172 3.975 16.8505 4.225C16.6005 4.475 16.4755 4.79167 16.4755 5.175C16.4755 5.54167 16.6088 5.85833 16.8755 6.125C17.1422 6.375 17.4588 6.5 17.8255 6.5Z" fill="black"/>
</g>
<defs>
<clipPath id="clip0_3207_17658">
<rect width="24" height="24" fill="white"/>
</clipPath>
</defs>
</svg>
