<svg width="24" height="24" viewBox="0 0 24 24" fill="none" xmlns="http://www.w3.org/2000/svg">
<g clip-path="url(#clip0_3373_4297)">
<rect width="24" height="24" fill="white"/>
<path d="M2.00049 12.45C2.00049 11.65 2.25882 11.0167 2.77549 10.55C3.30882 10.0667 4.01716 9.825 4.90049 9.825C5.78382 9.825 6.48382 10.0667 7.00049 10.55C7.53382 11.0167 7.80049 11.65 7.80049 12.45V20H2.00049V12.45ZM6.05049 12.45C6.05049 12.15 5.94216 11.925 5.72549 11.775C5.52549 11.6083 5.25049 11.525 4.90049 11.525C4.55049 11.525 4.26716 11.6083 4.05049 11.775C3.85049 11.925 3.75049 12.15 3.75049 12.45V18.3H6.05049V12.45ZM16.2005 15.175C16.2005 14.375 16.4588 13.7417 16.9755 13.275C17.5088 12.7917 18.2172 12.55 19.1005 12.55C19.9838 12.55 20.6838 12.7917 21.2005 13.275C21.7338 13.7417 22.0005 14.375 22.0005 15.175V20H16.2005V15.175ZM20.2505 15.175C20.2505 14.875 20.1505 14.65 19.9505 14.5C19.7505 14.3333 19.4672 14.25 19.1005 14.25C18.7338 14.25 18.4505 14.3333 18.2505 14.5C18.0505 14.65 17.9505 14.875 17.9505 15.175V18.3H20.2505V15.175ZM9.10049 12.45C9.10049 11.65 9.35882 11.0167 9.87549 10.55C10.4088 10.0667 11.1172 9.825 12.0005 9.825C12.8838 9.825 13.5838 10.0667 14.1005 10.55C14.6338 11.0167 14.9005 11.65 14.9005 12.45V20H9.10049V12.45ZM13.1505 12.45C13.1505 12.15 13.0422 11.925 12.8255 11.775C12.6255 11.6083 12.3505 11.525 12.0005 11.525C11.6505 11.525 11.3672 11.6083 11.1505 11.775C10.9505 11.925 10.8505 12.15 10.8505 12.45V18.3H13.1505V12.45ZM4.87549 8.825C4.19216 8.825 3.60882 8.58333 3.12549 8.1C2.64215 7.61667 2.40049 7.025 2.40049 6.325C2.40049 5.64167 2.64215 5.06667 3.12549 4.6C3.60882 4.11667 4.19216 3.875 4.87549 3.875C5.59216 3.875 6.19216 4.11667 6.67549 4.6C7.15882 5.06667 7.40049 5.64167 7.40049 6.325C7.40049 7.025 7.15882 7.61667 6.67549 8.1C6.19216 8.58333 5.59216 8.825 4.87549 8.825ZM4.87549 7.275C5.14216 7.275 5.36716 7.18333 5.55049 7C5.73382 6.81667 5.82549 6.59167 5.82549 6.325C5.82549 6.075 5.73382 5.86667 5.55049 5.7C5.36716 5.51667 5.14216 5.425 4.87549 5.425C4.62549 5.425 4.40882 5.51667 4.22549 5.7C4.05882 5.86667 3.97549 6.075 3.97549 6.325C3.97549 6.59167 4.05882 6.81667 4.22549 7C4.40882 7.18333 4.62549 7.275 4.87549 7.275ZM19.0755 11.55C18.3922 11.55 17.8088 11.3083 17.3255 10.825C16.8422 10.3417 16.6005 9.75 16.6005 9.05C16.6005 8.36667 16.8422 7.79167 17.3255 7.325C17.8088 6.84167 18.3922 6.6 19.0755 6.6C19.7922 6.6 20.3922 6.84167 20.8755 7.325C21.3588 7.79167 21.6005 8.36667 21.6005 9.05C21.6005 9.75 21.3588 10.3417 20.8755 10.825C20.3922 11.3083 19.7922 11.55 19.0755 11.55ZM19.0755 10C19.3422 10 19.5672 9.90833 19.7505 9.725C19.9338 9.54167 20.0255 9.31667 20.0255 9.05C20.0255 8.8 19.9338 8.59167 19.7505 8.425C19.5672 8.24167 19.3422 8.15 19.0755 8.15C18.8255 8.15 18.6088 8.24167 18.4255 8.425C18.2588 8.59167 18.1755 8.8 18.1755 9.05C18.1755 9.31667 18.2588 9.54167 18.4255 9.725C18.6088 9.90833 18.8255 10 19.0755 10ZM11.9755 8.825C11.2922 8.825 10.7088 8.58333 10.2255 8.1C9.74216 7.61667 9.50049 7.025 9.50049 6.325C9.50049 5.64167 9.74216 5.06667 10.2255 4.6C10.7088 4.11667 11.2922 3.875 11.9755 3.875C12.6922 3.875 13.2922 4.11667 13.7755 4.6C14.2588 5.06667 14.5005 5.64167 14.5005 6.325C14.5005 7.025 14.2588 7.61667 13.7755 8.1C13.2922 8.58333 12.6922 8.825 11.9755 8.825ZM11.9755 7.275C12.2422 7.275 12.4672 7.18333 12.6505 7C12.8338 6.81667 12.9255 6.59167 12.9255 6.325C12.9255 6.075 12.8338 5.86667 12.6505 5.7C12.4672 5.51667 12.2422 5.425 11.9755 5.425C11.7255 5.425 11.5088 5.51667 11.3255 5.7C11.1588 5.86667 11.0755 6.075 11.0755 6.325C11.0755 6.59167 11.1588 6.81667 11.3255 7C11.5088 7.18333 11.7255 7.275 11.9755 7.275Z" fill="black"/>
</g>
<defs>
<clipPath id="clip0_3373_4297">
<rect width="24" height="24" fill="white"/>
</clipPath>
</defs>
</svg>
