<svg width="24" height="24" viewBox="0 0 24 24" fill="none" xmlns="http://www.w3.org/2000/svg">
<g clip-path="url(#clip0_3207_17666)">
<rect width="24" height="24" fill="white"/>
<path d="M8.95049 20H8.97549C8.99216 20 9.00049 20 9.00049 20C9.00049 20 9.00882 20 9.02549 20H9.05049H9.12549C9.10882 20 9.10049 20 9.10049 20C9.10049 20 9.09216 20 9.07549 20C9.05882 20 9.05049 20 9.05049 20C9.05049 20 9.04216 20 9.02549 20H9.00049H8.97549C8.95882 20 8.95049 20 8.95049 20C8.95049 20 8.94216 20 8.92549 20C8.90882 20 8.90049 20 8.90049 20C8.90049 20 8.89216 20 8.87549 20H8.95049ZM8.87549 20C8.89216 20 8.90049 20 8.90049 20C8.90049 20 8.90882 20 8.92549 20C8.94216 20 8.95049 20 8.95049 20C8.95049 20 8.95882 20 8.97549 20H9.00049H9.02549C9.04216 20 9.05049 20 9.05049 20C9.05049 20 9.05882 20 9.07549 20C9.09216 20 9.10049 20 9.10049 20C9.10049 20 9.10882 20 9.12549 20H9.05049H9.02549C9.00882 20 9.00049 20 9.00049 20C9.00049 20 8.99216 20 8.97549 20H8.95049H8.87549ZM3.22549 12C3.22549 10.95 3.57549 10.0833 4.27549 9.4C4.99216 8.71667 5.90049 8.375 7.00049 8.375C7.56716 8.375 8.07549 8.46667 8.52549 8.65C8.97549 8.83333 9.45049 9.125 9.95049 9.525L10.4755 9.975L12.0005 11.3V15.575C11.7838 15.575 11.5755 15.5333 11.3755 15.45C11.1755 15.3667 10.9922 15.2417 10.8255 15.075L10.7755 15.025V21H3.22549V12ZM7.57549 12.825V12.55V12.35V11.975C7.57549 11.8417 7.52549 11.7333 7.42549 11.65C7.32549 11.5667 7.18382 11.525 7.00049 11.525C6.81716 11.525 6.67549 11.5667 6.57549 11.65C6.47549 11.7333 6.42549 11.8417 6.42549 11.975V17.85H7.57549V12.825ZM13.2255 21V15.025L13.1755 15.075C13.0088 15.2417 12.8255 15.3667 12.6255 15.45C12.4255 15.5333 12.2172 15.575 12.0005 15.575V11.3L13.5255 9.975L14.0505 9.525C14.5505 9.125 15.0255 8.83333 15.4755 8.65C15.9255 8.46667 16.4338 8.375 17.0005 8.375C18.1005 8.375 19.0005 8.71667 19.7005 9.4C20.4172 10.0833 20.7755 10.95 20.7755 12V21H13.2255ZM17.5755 17.85V11.975C17.5755 11.8417 17.5255 11.7333 17.4255 11.65C17.3255 11.5667 17.1838 11.525 17.0005 11.525C16.8172 11.525 16.6755 11.5667 16.5755 11.65C16.4755 11.7333 16.4255 11.8417 16.4255 11.975V12.075V12.35V12.625V17.85H17.5755ZM7.00049 7.375C6.33382 7.375 5.76716 7.15 5.30049 6.7C4.85049 6.23333 4.62549 5.66667 4.62549 5C4.62549 4.33333 4.85049 3.775 5.30049 3.325C5.76716 2.85833 6.33382 2.625 7.00049 2.625C7.66716 2.625 8.22549 2.85833 8.67549 3.325C9.14216 3.775 9.37549 4.33333 9.37549 5C9.37549 5.66667 9.14216 6.23333 8.67549 6.7C8.22549 7.15 7.66716 7.375 7.00049 7.375ZM7.00049 4.15C7.20049 4.15 7.34216 4.15 7.42549 4.15C7.52549 4.15 7.66716 4.15 7.85049 4.15C7.65049 4.15 7.50049 4.15 7.40049 4.15C7.31716 4.15 7.18382 4.15 7.00049 4.15C6.80049 4.15 6.65049 4.15 6.55049 4.15C6.46716 4.15 6.33382 4.15 6.15049 4.15C6.35049 4.15 6.49216 4.15 6.57549 4.15C6.67549 4.15 6.81716 4.15 7.00049 4.15ZM17.0005 7.375C16.3338 7.375 15.7672 7.15 15.3005 6.7C14.8505 6.23333 14.6255 5.66667 14.6255 5C14.6255 4.33333 14.8505 3.775 15.3005 3.325C15.7672 2.85833 16.3338 2.625 17.0005 2.625C17.6672 2.625 18.2255 2.85833 18.6755 3.325C19.1422 3.775 19.3755 4.33333 19.3755 5C19.3755 5.66667 19.1422 6.23333 18.6755 6.7C18.2255 7.15 17.6672 7.375 17.0005 7.375ZM17.0255 4.15C17.2088 4.15 17.3422 4.15 17.4255 4.15C17.5255 4.15 17.6672 4.15 17.8505 4.15C17.6505 4.15 17.5005 4.15 17.4005 4.15C17.3172 4.15 17.1838 4.15 17.0005 4.15C16.8005 4.15 16.6505 4.15 16.5505 4.15C16.4672 4.15 16.3338 4.15 16.1505 4.15C16.3505 4.15 16.4922 4.15 16.5755 4.15C16.6755 4.15 16.8255 4.15 17.0255 4.15Z" fill="black"/>
</g>
<defs>
<clipPath id="clip0_3207_17666">
<rect width="24" height="24" fill="white"/>
</clipPath>
</defs>
</svg>
