<svg width="24" height="24" viewBox="0 0 24 24" fill="none" xmlns="http://www.w3.org/2000/svg">
<g clip-path="url(#clip0_3207_15254)">
<rect width="24" height="24" fill="white"/>
<path d="M12.7755 7.575L16.6005 10.85C16.7172 10.95 16.8422 11.0083 16.9755 11.025C17.1255 11.0417 17.2505 11 17.3505 10.9C17.4505 10.8 17.5005 10.6833 17.5005 10.55C17.5172 10.4 17.4672 10.2667 17.3505 10.15L13.5755 6.375C13.2422 6.04167 12.8172 5.875 12.3005 5.875C11.8005 5.875 11.3838 6.04167 11.0505 6.375L8.40049 9.05C8.13382 9.31667 8.00049 9.63333 8.00049 10C8.00049 10.3667 8.13382 10.6833 8.40049 10.95L11.3505 13.9L11.5755 18.35C11.5922 18.4833 11.6422 18.6 11.7255 18.7C11.8255 18.7833 11.9422 18.825 12.0755 18.825C12.2088 18.825 12.3255 18.7833 12.4255 18.7C12.5422 18.6 12.6005 18.4833 12.6005 18.35V14.05C12.6005 13.8333 12.5672 13.6333 12.5005 13.45C12.4338 13.2667 12.3338 13.0833 12.2005 12.9L10.1005 10.275L12.7755 7.575ZM12.5755 12.6C12.7588 12.8333 12.8838 13.0583 12.9505 13.275C13.0338 13.4917 13.0755 13.7417 13.0755 14.025V18.35C13.0755 18.6167 12.9838 18.8417 12.8005 19.025C12.6172 19.2083 12.3838 19.3 12.1005 19.3C11.8338 19.3 11.6005 19.2167 11.4005 19.05C11.2172 18.8667 11.1172 18.6417 11.1005 18.375L10.8755 14.1L8.07549 11.3C7.70882 10.9333 7.52549 10.5 7.52549 10C7.52549 9.5 7.70882 9.06667 8.07549 8.7L10.7255 6.025C11.1588 5.59167 11.6922 5.375 12.3255 5.375C12.9588 5.375 13.4838 5.59167 13.9005 6.025L17.6755 9.8C17.8922 10.0167 18.0005 10.2583 18.0005 10.525C18.0005 10.7917 17.9005 11.025 17.7005 11.225C17.5172 11.4083 17.2922 11.5 17.0255 11.5C16.7588 11.5 16.5172 11.4083 16.3005 11.225L12.8005 8.225L10.7255 10.3L12.5755 12.6ZM5.62549 20.775C6.32549 20.775 6.96716 20.6 7.55049 20.25C8.15049 19.9 8.62549 19.425 8.97549 18.825C9.32549 18.225 9.50049 17.575 9.50049 16.875C9.50049 16.175 9.32549 15.525 8.97549 14.925C8.62549 14.325 8.15049 13.85 7.55049 13.5C6.96716 13.15 6.32549 12.975 5.62549 12.975C4.92549 12.975 4.27549 13.15 3.67549 13.5C3.09216 13.85 2.62549 14.325 2.27549 14.925C1.92549 15.525 1.75049 16.175 1.75049 16.875C1.75049 17.575 1.92549 18.225 2.27549 18.825C2.62549 19.425 3.09216 19.9 3.67549 20.25C4.27549 20.6 4.92549 20.775 5.62549 20.775ZM5.62549 12.5C6.40882 12.5 7.13382 12.7 7.80049 13.1C8.48382 13.4833 9.01716 14.0167 9.40049 14.7C9.80049 15.3667 10.0005 16.0917 10.0005 16.875C10.0005 17.6583 9.80049 18.3917 9.40049 19.075C9.01716 19.7417 8.48382 20.275 7.80049 20.675C7.13382 21.0583 6.40882 21.25 5.62549 21.25C4.84216 21.25 4.10882 21.0583 3.42549 20.675C2.75882 20.275 2.22549 19.7417 1.82549 19.075C1.44216 18.3917 1.25049 17.6583 1.25049 16.875C1.25049 16.0917 1.44216 15.3667 1.82549 14.7C2.22549 14.0167 2.75882 13.4833 3.42549 13.1C4.10882 12.7 4.84216 12.5 5.62549 12.5ZM18.3755 20.775C19.0755 20.775 19.7172 20.6 20.3005 20.25C20.9005 19.9 21.3755 19.425 21.7255 18.825C22.0755 18.225 22.2505 17.575 22.2505 16.875C22.2505 16.175 22.0755 15.525 21.7255 14.925C21.3755 14.325 20.9005 13.85 20.3005 13.5C19.7172 13.15 19.0755 12.975 18.3755 12.975C17.6755 12.975 17.0255 13.15 16.4255 13.5C15.8422 13.85 15.3755 14.325 15.0255 14.925C14.6755 15.525 14.5005 16.175 14.5005 16.875C14.5005 17.575 14.6755 18.225 15.0255 18.825C15.3755 19.425 15.8422 19.9 16.4255 20.25C17.0255 20.6 17.6755 20.775 18.3755 20.775ZM18.3755 12.5C19.1588 12.5 19.8838 12.7 20.5505 13.1C21.2338 13.4833 21.7672 14.0167 22.1505 14.7C22.5505 15.3667 22.7505 16.0917 22.7505 16.875C22.7505 17.6583 22.5505 18.3917 22.1505 19.075C21.7672 19.7417 21.2338 20.275 20.5505 20.675C19.8838 21.0583 19.1588 21.25 18.3755 21.25C17.5922 21.25 16.8588 21.0583 16.1755 20.675C15.5088 20.275 14.9755 19.7417 14.5755 19.075C14.1922 18.3917 14.0005 17.6583 14.0005 16.875C14.0005 16.0917 14.1922 15.3667 14.5755 14.7C14.9755 14.0167 15.5088 13.4833 16.1755 13.1C16.8588 12.7 17.5922 12.5 18.3755 12.5ZM15.1505 5.25C14.7005 5.25 14.3172 5.09167 14.0005 4.775C13.6838 4.45833 13.5255 4.075 13.5255 3.625C13.5255 3.175 13.6838 2.79167 14.0005 2.475C14.3172 2.15833 14.7005 2 15.1505 2C15.6005 2 15.9838 2.15833 16.3005 2.475C16.6172 2.79167 16.7755 3.175 16.7755 3.625C16.7755 4.075 16.6172 4.45833 16.3005 4.775C15.9838 5.09167 15.6005 5.25 15.1505 5.25ZM15.1505 4.8C15.4838 4.8 15.7588 4.68333 15.9755 4.45C16.2088 4.21667 16.3255 3.94167 16.3255 3.625C16.3255 3.29167 16.2088 3.01667 15.9755 2.8C15.7588 2.56667 15.4838 2.45 15.1505 2.45C14.8338 2.45 14.5588 2.56667 14.3255 2.8C14.0922 3.01667 13.9755 3.29167 13.9755 3.625C13.9755 3.94167 14.0922 4.21667 14.3255 4.45C14.5588 4.68333 14.8338 4.8 15.1505 4.8Z" fill="black"/>
</g>
<defs>
<clipPath id="clip0_3207_15254">
<rect width="24" height="24" fill="white"/>
</clipPath>
</defs>
</svg>
