<svg width="24" height="24" viewBox="0 0 24 24" fill="none" xmlns="http://www.w3.org/2000/svg">
<g clip-path="url(#clip0_3207_15789)">
<rect width="24" height="24" fill="white"/>
<path d="M9.95049 8.425H10.0255C10.0422 8.425 10.0505 8.425 10.0505 8.425H9.97549C9.95882 8.425 9.94216 8.425 9.92549 8.425C9.92549 8.425 9.91716 8.425 9.90049 8.425H9.82549C9.80882 8.425 9.80049 8.425 9.80049 8.425C9.80049 8.425 9.80882 8.425 9.82549 8.425H9.90049H9.92549C9.94216 8.425 9.95049 8.425 9.95049 8.425C9.95049 8.425 9.94216 8.425 9.92549 8.425H9.87549H9.95049ZM12.3755 12.6C12.4922 12.7333 12.5838 12.8667 12.6505 13C12.7172 13.1333 12.7505 13.2833 12.7505 13.45V18.55C12.7505 18.7667 12.6838 18.9417 12.5505 19.075C12.4172 19.2083 12.2422 19.275 12.0255 19.275C11.8255 19.275 11.6588 19.2083 11.5255 19.075C11.3922 18.9417 11.3255 18.7667 11.3255 18.55V13.55L8.35049 10.45C8.10049 10.1833 7.97549 9.875 7.97549 9.525C7.97549 9.175 8.10882 8.86667 8.37549 8.6L11.8255 5.15C12.1088 4.86667 12.4255 4.725 12.7755 4.725C13.1255 4.725 13.4422 4.86667 13.7255 5.15L18.5005 9.9C18.6505 10.0667 18.7338 10.25 18.7505 10.45C18.7672 10.6333 18.7005 10.8 18.5505 10.95C18.4005 11.1 18.2255 11.175 18.0255 11.175C17.8255 11.1583 17.6505 11.075 17.5005 10.925L12.7755 6.225L9.45049 9.525L12.3755 12.6ZM5.50049 12.775C6.26716 12.775 6.97549 12.9667 7.62549 13.35C8.27549 13.7167 8.79216 14.225 9.17549 14.875C9.55882 15.525 9.75049 16.2333 9.75049 17C9.75049 17.7833 9.55882 18.5 9.17549 19.15C8.79216 19.7833 8.27549 20.2917 7.62549 20.675C6.97549 21.0583 6.26716 21.25 5.50049 21.25C4.73382 21.25 4.02549 21.0583 3.37549 20.675C2.72549 20.2917 2.20882 19.7833 1.82549 19.15C1.44216 18.5 1.25049 17.7833 1.25049 17C1.25049 16.2333 1.44216 15.525 1.82549 14.875C2.20882 14.225 2.72549 13.7167 3.37549 13.35C4.02549 12.9667 4.73382 12.775 5.50049 12.775ZM5.50049 19.9C6.01716 19.9 6.49216 19.775 6.92549 19.525C7.37549 19.2583 7.73382 18.9083 8.00049 18.475C8.26716 18.025 8.40049 17.5333 8.40049 17C8.40049 16.4833 8.26716 16.0083 8.00049 15.575C7.73382 15.125 7.37549 14.7667 6.92549 14.5C6.49216 14.2333 6.01716 14.1 5.50049 14.1C4.98382 14.1 4.50049 14.2333 4.05049 14.5C3.61716 14.7667 3.26716 15.125 3.00049 15.575C2.73382 16.0083 2.60049 16.4833 2.60049 17C2.60049 17.5333 2.73382 18.025 3.00049 18.475C3.26716 18.9083 3.61716 19.2583 4.05049 19.525C4.50049 19.775 4.98382 19.9 5.50049 19.9ZM18.5005 12.775C19.2672 12.775 19.9755 12.9667 20.6255 13.35C21.2755 13.7167 21.7922 14.225 22.1755 14.875C22.5588 15.525 22.7505 16.2333 22.7505 17C22.7505 17.7833 22.5588 18.5 22.1755 19.15C21.7922 19.7833 21.2755 20.2917 20.6255 20.675C19.9755 21.0583 19.2672 21.25 18.5005 21.25C17.7338 21.25 17.0255 21.0583 16.3755 20.675C15.7255 20.2917 15.2088 19.7833 14.8255 19.15C14.4422 18.5 14.2505 17.7833 14.2505 17C14.2505 16.2333 14.4422 15.525 14.8255 14.875C15.2088 14.225 15.7255 13.7167 16.3755 13.35C17.0255 12.9667 17.7338 12.775 18.5005 12.775ZM18.5005 19.9C19.0172 19.9 19.4922 19.775 19.9255 19.525C20.3755 19.2583 20.7338 18.9083 21.0005 18.475C21.2672 18.025 21.4005 17.5333 21.4005 17C21.4005 16.4833 21.2672 16.0083 21.0005 15.575C20.7338 15.125 20.3755 14.7667 19.9255 14.5C19.4922 14.2333 19.0172 14.1 18.5005 14.1C17.9838 14.1 17.5005 14.2333 17.0505 14.5C16.6172 14.7667 16.2672 15.125 16.0005 15.575C15.7338 16.0083 15.6005 16.4833 15.6005 17C15.6005 17.5333 15.7338 18.025 16.0005 18.475C16.2672 18.9083 16.6172 19.2583 17.0505 19.525C17.5005 19.775 17.9838 19.9 18.5005 19.9ZM15.3255 4.125C14.9755 4.125 14.6755 4.00833 14.4255 3.775C14.1922 3.525 14.0755 3.225 14.0755 2.875C14.0755 2.525 14.1922 2.23333 14.4255 2C14.6755 1.75 14.9755 1.625 15.3255 1.625C15.6755 1.625 15.9672 1.75 16.2005 2C16.4505 2.23333 16.5755 2.525 16.5755 2.875C16.5755 3.225 16.4505 3.525 16.2005 3.775C15.9672 4.00833 15.6755 4.125 15.3255 4.125ZM15.3255 2.95C15.2755 2.95 15.2338 2.95 15.2005 2.95C15.1838 2.95 15.1505 2.95 15.1005 2.95C15.1505 2.95 15.1838 2.95 15.2005 2.95C15.2338 2.95 15.2755 2.95 15.3255 2.95C15.3755 2.95 15.4088 2.95 15.4255 2.95C15.4588 2.95 15.5005 2.95 15.5505 2.95C15.5005 2.95 15.4588 2.95 15.4255 2.95C15.4088 2.95 15.3755 2.95 15.3255 2.95Z" fill="black"/>
</g>
<defs>
<clipPath id="clip0_3207_15789">
<rect width="24" height="24" fill="white"/>
</clipPath>
</defs>
</svg>
