<svg width="24" height="24" viewBox="0 0 24 24" fill="none" xmlns="http://www.w3.org/2000/svg">
<g clip-path="url(#clip0_3207_15266)">
<rect width="24" height="24" fill="white"/>
<path d="M17.7505 5.8C17.7505 4.86667 17.4422 4.08333 16.8255 3.45C16.2255 2.8 15.4838 2.475 14.6005 2.475C14.0672 2.475 13.5672 2.60833 13.1005 2.875C12.6338 3.14167 12.2672 3.51667 12.0005 4C11.7338 3.51667 11.3672 3.14167 10.9005 2.875C10.4338 2.60833 9.94216 2.475 9.42549 2.475C8.54215 2.475 7.79215 2.8 7.17549 3.45C6.57549 4.08333 6.27549 4.86667 6.27549 5.8V6.25H5.80049C4.88382 6.25 4.10882 6.55 3.47549 7.15C2.84216 7.73333 2.52549 8.45833 2.52549 9.325C2.52549 9.875 2.65882 10.3917 2.92549 10.875C3.19216 11.3417 3.55882 11.7167 4.02549 12C3.55882 12.2667 3.19216 12.6417 2.92549 13.125C2.65882 13.6083 2.52549 14.125 2.52549 14.675C2.52549 15.5417 2.84216 16.275 3.47549 16.875C4.10882 17.4583 4.88382 17.75 5.80049 17.75H6.27549V18.2C6.27549 19.1333 6.57549 19.925 7.17549 20.575C7.79215 21.2083 8.53382 21.525 9.40049 21.525C9.93382 21.525 10.4338 21.3917 10.9005 21.125C11.3672 20.8583 11.7338 20.4833 12.0005 20C12.2672 20.4833 12.6422 20.8583 13.1255 21.125C13.6088 21.3917 14.1172 21.525 14.6505 21.525C15.2172 21.525 15.7338 21.375 16.2005 21.075C16.6838 20.775 17.0588 20.375 17.3255 19.875C17.6088 19.3583 17.7505 18.8 17.7505 18.2V17.75H18.2255C19.1422 17.75 19.9172 17.4583 20.5505 16.875C21.1838 16.275 21.5005 15.5417 21.5005 14.675C21.5005 14.125 21.3588 13.6083 21.0755 13.125C20.8088 12.6417 20.4422 12.2667 19.9755 12C20.4422 11.7167 20.8088 11.3333 21.0755 10.85C21.3588 10.3667 21.5005 9.85833 21.5005 9.325C21.5005 8.45833 21.1838 7.73333 20.5505 7.15C19.9172 6.55 19.1422 6.25 18.2255 6.25H17.7505V5.8ZM18.2255 5.775C18.9255 5.775 19.5588 5.93333 20.1255 6.25C20.7088 6.56667 21.1672 7 21.5005 7.55C21.8338 8.08333 22.0005 8.675 22.0005 9.325C22.0005 9.825 21.8922 10.3167 21.6755 10.8C21.4755 11.2667 21.1838 11.6667 20.8005 12C21.1838 12.3333 21.4755 12.7417 21.6755 13.225C21.8922 13.6917 22.0005 14.175 22.0005 14.675C22.0005 15.325 21.8338 15.925 21.5005 16.475C21.1672 17.0083 20.7088 17.4333 20.1255 17.75C19.5588 18.0667 18.9255 18.225 18.2255 18.225L18.2505 18.2C18.2505 18.9 18.0922 19.5417 17.7755 20.125C17.4588 20.7083 17.0255 21.1667 16.4755 21.5C15.9255 21.8333 15.3172 22 14.6505 22C14.1672 22 13.6838 21.9 13.2005 21.7C12.7338 21.5 12.3338 21.2167 12.0005 20.85C11.6838 21.2167 11.2922 21.5 10.8255 21.7C10.3588 21.9 9.88382 22 9.40049 22C8.73382 22 8.12549 21.8333 7.57549 21.5C7.02549 21.1667 6.58382 20.7083 6.25049 20.125C5.93382 19.5417 5.77549 18.9 5.77549 18.2L5.80049 18.225C5.10049 18.225 4.45882 18.0667 3.87549 17.75C3.30882 17.4333 2.85882 17.0083 2.52549 16.475C2.19215 15.925 2.02549 15.325 2.02549 14.675C2.02549 14.175 2.12549 13.6917 2.32549 13.225C2.54216 12.7417 2.84216 12.3333 3.22549 12C2.84216 11.65 2.54216 11.2417 2.32549 10.775C2.12549 10.3083 2.02549 9.825 2.02549 9.325C2.02549 8.675 2.19215 8.08333 2.52549 7.55C2.85882 7 3.30882 6.56667 3.87549 6.25C4.45882 5.93333 5.10049 5.775 5.80049 5.775L5.77549 5.8C5.77549 5.1 5.93382 4.45833 6.25049 3.875C6.58382 3.29167 7.02549 2.83333 7.57549 2.5C8.12549 2.16667 8.73382 2 9.40049 2C9.88382 2 10.3588 2.1 10.8255 2.3C11.2922 2.5 11.6838 2.78333 12.0005 3.15C12.3172 2.78333 12.7088 2.5 13.1755 2.3C13.6422 2.1 14.1172 2 14.6005 2C15.2672 2 15.8755 2.16667 16.4255 2.5C16.9922 2.83333 17.4338 3.29167 17.7505 3.875C18.0838 4.45833 18.2505 5.1 18.2505 5.8L18.2255 5.775ZM12.2505 3.375V20.45H11.7505V3.375H12.2505ZM16.9255 11.975C16.9255 11.9083 16.9422 11.8583 16.9755 11.825C17.0255 11.775 17.0838 11.75 17.1505 11.75H20.7005V12.225H17.1505C17.0838 12.225 17.0255 12.2 16.9755 12.15C16.9422 12.1 16.9255 12.0417 16.9255 11.975ZM6.65049 11.75C6.71716 11.75 6.76716 11.775 6.80049 11.825C6.85049 11.875 6.87549 11.9333 6.87549 12C6.87549 12.0667 6.85049 12.125 6.80049 12.175C6.76716 12.2083 6.71716 12.225 6.65049 12.225H3.35049V11.75H6.65049Z" fill="black"/>
</g>
<defs>
<clipPath id="clip0_3207_15266">
<rect width="24" height="24" fill="white"/>
</clipPath>
</defs>
</svg>
