<svg width="24" height="24" viewBox="0 0 24 24" fill="none" xmlns="http://www.w3.org/2000/svg">
<g clip-path="url(#clip0_3207_15945)">
<rect width="24" height="24" fill="white"/>
<path d="M17.2255 6.225C17.2255 5.425 16.9505 4.75 16.4005 4.2C15.8505 3.63333 15.1838 3.35 14.4005 3.35C13.9005 3.35 13.4338 3.475 13.0005 3.725C12.5838 3.975 12.2505 4.30833 12.0005 4.725C11.7505 4.29167 11.4088 3.95833 10.9755 3.725C10.5588 3.475 10.1172 3.35 9.65049 3.35C8.85049 3.35 8.17549 3.63333 7.62549 4.2C7.07549 4.75 6.80049 5.425 6.80049 6.225V6.775H6.22549C5.44216 6.775 4.77549 7.05 4.22549 7.6C3.67549 8.13333 3.40049 8.79167 3.40049 9.575C3.40049 10.075 3.51716 10.5417 3.75049 10.975C4.00049 11.3917 4.33382 11.7333 4.75049 12C4.33382 12.25 4.00049 12.6 3.75049 13.05C3.51716 13.4833 3.40049 13.9417 3.40049 14.425C3.40049 15.2083 3.67549 15.875 4.22549 16.425C4.77549 16.9583 5.44216 17.225 6.22549 17.225H6.80049V17.775C6.80049 18.575 7.07549 19.2583 7.62549 19.825C8.17549 20.375 8.84216 20.65 9.62549 20.65C10.1088 20.65 10.5588 20.5333 10.9755 20.3C11.4088 20.05 11.7505 19.7083 12.0005 19.275C12.2505 19.7083 12.5922 20.05 13.0255 20.3C13.4755 20.5333 13.9422 20.65 14.4255 20.65C14.9422 20.65 15.4088 20.525 15.8255 20.275C16.2588 20.0083 16.6005 19.6583 16.8505 19.225C17.1005 18.775 17.2255 18.2917 17.2255 17.775V17.225H17.7755C18.5755 17.225 19.2505 16.9583 19.8005 16.425C20.3505 15.875 20.6255 15.2083 20.6255 14.425C20.6255 13.925 20.5005 13.4583 20.2505 13.025C20.0172 12.575 19.6838 12.2333 19.2505 12C19.6838 11.7333 20.0172 11.3833 20.2505 10.95C20.5005 10.5167 20.6255 10.05 20.6255 9.55C20.6255 8.78333 20.3505 8.13333 19.8005 7.6C19.2505 7.05 18.5672 6.775 17.7505 6.775H17.2255V6.225ZM17.7505 5.4C18.5505 5.4 19.2755 5.58333 19.9255 5.95C20.5922 6.31667 21.1172 6.825 21.5005 7.475C21.8838 8.10833 22.0755 8.8 22.0755 9.55C22.0755 10 22.0005 10.4417 21.8505 10.875C21.7172 11.2917 21.5172 11.6667 21.2505 12C21.5172 12.3333 21.7172 12.7083 21.8505 13.125C22.0005 13.5417 22.0755 13.975 22.0755 14.425C22.0755 15.1917 21.8838 15.9 21.5005 16.55C21.1172 17.1833 20.5922 17.6833 19.9255 18.05C19.2755 18.4167 18.5588 18.6 17.7755 18.6L18.6505 17.775C18.6505 18.5583 18.4588 19.275 18.0755 19.925C17.7088 20.575 17.2005 21.0833 16.5505 21.45C15.9172 21.8333 15.2088 22.025 14.4255 22.025C14.0088 22.025 13.5838 21.9583 13.1505 21.825C12.7338 21.6917 12.3588 21.5 12.0255 21.25C11.6755 21.5 11.2922 21.6917 10.8755 21.825C10.4755 21.9583 10.0588 22.025 9.62549 22.025C8.84216 22.025 8.12549 21.8333 7.47549 21.45C6.82549 21.0833 6.30882 20.575 5.92549 19.925C5.54216 19.275 5.35049 18.5583 5.35049 17.775L6.22549 18.6C5.44216 18.6 4.72549 18.4167 4.07549 18.05C3.42549 17.6833 2.90882 17.1833 2.52549 16.55C2.14216 15.9 1.95049 15.1917 1.95049 14.425C1.95049 13.9917 2.01715 13.5667 2.15049 13.15C2.30049 12.7333 2.51716 12.35 2.80049 12C2.51716 11.65 2.30049 11.275 2.15049 10.875C2.01715 10.4583 1.95049 10.025 1.95049 9.575C1.95049 8.80833 2.14216 8.10833 2.52549 7.475C2.90882 6.825 3.42549 6.31667 4.07549 5.95C4.72549 5.58333 5.44216 5.4 6.22549 5.4L5.37549 6.225C5.37549 5.44167 5.56716 4.725 5.95049 4.075C6.33382 3.425 6.85049 2.91667 7.50049 2.55C8.15049 2.16667 8.85882 1.975 9.62549 1.975C10.0588 1.975 10.4755 2.04167 10.8755 2.175C11.2922 2.30833 11.6672 2.5 12.0005 2.75C12.3338 2.5 12.7088 2.30833 13.1255 2.175C13.5422 2.04167 13.9672 1.975 14.4005 1.975C15.1838 1.975 15.9005 2.16667 16.5505 2.55C17.2005 2.91667 17.7088 3.425 18.0755 4.075C18.4588 4.725 18.6505 5.44167 18.6505 6.225L17.7505 5.4ZM12.7005 3.375V20.45H11.3005V3.375H12.7005ZM16.8005 12C16.8005 11.8 16.8672 11.6417 17.0005 11.525C17.1338 11.3917 17.2922 11.325 17.4755 11.325H20.3755V12.675H17.4755C17.2922 12.675 17.1338 12.6083 17.0005 12.475C16.8672 12.3417 16.8005 12.1833 16.8005 12ZM6.32549 11.325C6.50882 11.325 6.66716 11.3917 6.80049 11.525C6.93382 11.6583 7.00049 11.8167 7.00049 12C7.00049 12.1833 6.93382 12.3417 6.80049 12.475C6.66716 12.6083 6.50882 12.675 6.32549 12.675H3.52549V11.325H6.32549Z" fill="black"/>
</g>
<defs>
<clipPath id="clip0_3207_15945">
<rect width="24" height="24" fill="white"/>
</clipPath>
</defs>
</svg>
