<svg width="24" height="24" viewBox="0 0 24 24" fill="none" xmlns="http://www.w3.org/2000/svg">
<g clip-path="url(#clip0_3207_15949)">
<rect width="24" height="24" fill="white"/>
<path d="M16.6255 6.825C16.6255 6.125 16.3838 5.54167 15.9005 5.075C15.4172 4.59167 14.8338 4.35 14.1505 4.35C13.7005 4.35 13.2838 4.45833 12.9005 4.675C12.5338 4.89167 12.2338 5.19167 12.0005 5.575C11.7672 5.175 11.4588 4.875 11.0755 4.675C10.7088 4.45833 10.3172 4.35 9.90049 4.35C9.20049 4.35 8.60882 4.59167 8.12549 5.075C7.64216 5.54167 7.40049 6.125 7.40049 6.825V7.375H6.82549C6.14216 7.375 5.55882 7.61667 5.07549 8.1C4.60882 8.58333 4.37549 9.16667 4.37549 9.85C4.37549 10.3 4.48382 10.7167 4.70049 11.1C4.91716 11.4667 5.20882 11.7667 5.57549 12C5.20882 12.2333 4.91716 12.5417 4.70049 12.925C4.48382 13.3083 4.37549 13.7167 4.37549 14.15C4.37549 14.8333 4.60882 15.4167 5.07549 15.9C5.55882 16.3833 6.14216 16.625 6.82549 16.625H7.37549V17.175C7.37549 17.8917 7.62549 18.4833 8.12549 18.95C8.62549 19.4167 9.21716 19.65 9.90049 19.65C10.3172 19.65 10.7088 19.55 11.0755 19.35C11.4588 19.1333 11.7672 18.825 12.0005 18.425C12.2338 18.825 12.5422 19.1333 12.9255 19.35C13.3255 19.55 13.7422 19.65 14.1755 19.65C14.6255 19.65 15.0338 19.5417 15.4005 19.325C15.7838 19.1083 16.0838 18.8083 16.3005 18.425C16.5172 18.0417 16.6255 17.625 16.6255 17.175V16.625H17.1755C17.8588 16.625 18.4422 16.3833 18.9255 15.9C19.4088 15.4167 19.6505 14.8333 19.6505 14.15C19.6505 13.7 19.5422 13.2833 19.3255 12.9C19.1088 12.5 18.8088 12.2 18.4255 12C18.8255 11.7667 19.1255 11.4583 19.3255 11.075C19.5422 10.6917 19.6505 10.275 19.6505 9.825C19.6505 9.14167 19.4088 8.56667 18.9255 8.1C18.4422 7.61667 17.8505 7.375 17.1505 7.375H16.6255V6.825ZM17.1505 5C18.0505 5 18.8755 5.21667 19.6255 5.65C20.3922 6.08333 20.9922 6.66667 21.4255 7.4C21.8755 8.13333 22.1005 8.94167 22.1005 9.825C22.1005 10.2083 22.0505 10.5917 21.9505 10.975C21.8672 11.3417 21.7422 11.6833 21.5755 12C21.7422 12.3167 21.8672 12.6583 21.9505 13.025C22.0505 13.3917 22.1005 13.7667 22.1005 14.15C22.1005 15.05 21.8838 15.8667 21.4505 16.6C21.0172 17.3333 20.4172 17.9167 19.6505 18.35C18.9005 18.7833 18.0755 19 17.1755 19L19.0505 17.175C19.0505 18.0917 18.8255 18.9167 18.3755 19.65C17.9422 20.3833 17.3505 20.9583 16.6005 21.375C15.8505 21.8083 15.0422 22.025 14.1755 22.025C13.7922 22.025 13.4172 21.9833 13.0505 21.9C12.6838 21.8167 12.3422 21.6917 12.0255 21.525C11.6922 21.6917 11.3422 21.8167 10.9755 21.9C10.6255 21.9833 10.2672 22.025 9.90049 22.025C8.98382 22.025 8.15049 21.8083 7.40049 21.375C6.65049 20.9583 6.05049 20.3833 5.60049 19.65C5.16716 18.9 4.95049 18.075 4.95049 17.175L6.82549 19C5.92549 19 5.10049 18.7833 4.35049 18.35C3.60049 17.9167 3.00882 17.3333 2.57549 16.6C2.14216 15.8667 1.92549 15.05 1.92549 14.15C1.92549 13.7833 1.96716 13.4167 2.05049 13.05C2.15049 12.6833 2.29216 12.3333 2.47549 12C2.29216 11.6667 2.15049 11.325 2.05049 10.975C1.96716 10.6083 1.92549 10.2333 1.92549 9.85C1.92549 8.96667 2.14216 8.15833 2.57549 7.425C3.00882 6.675 3.59216 6.08333 4.32549 5.65C5.07549 5.21667 5.90882 5 6.82549 5L4.97549 6.825C4.97549 5.90833 5.20049 5.08333 5.65049 4.35C6.10049 3.6 6.70049 3.01667 7.45049 2.6C8.20049 2.16667 9.01716 1.95 9.90049 1.95C10.2672 1.95 10.6255 2 10.9755 2.1C11.3422 2.18333 11.6838 2.3 12.0005 2.45C12.3338 2.3 12.6838 2.18333 13.0505 2.1C13.4172 2 13.7838 1.95 14.1505 1.95C15.0505 1.95 15.8755 2.16667 16.6255 2.6C17.3755 3.03333 17.9672 3.625 18.4005 4.375C18.8338 5.10833 19.0505 5.925 19.0505 6.825L17.1505 5ZM13.1755 3.375V20.45H10.8255V3.375H13.1755ZM16.4755 12C16.4755 11.6667 16.5838 11.3917 16.8005 11.175C17.0172 10.9417 17.2838 10.825 17.6005 10.825H20.2255V13.175H17.6005C17.2838 13.175 17.0172 13.0667 16.8005 12.85C16.5838 12.6167 16.4755 12.3333 16.4755 12ZM6.20049 10.825C6.51716 10.825 6.78382 10.9417 7.00049 11.175C7.21716 11.3917 7.32549 11.6667 7.32549 12C7.32549 12.3333 7.21716 12.6167 7.00049 12.85C6.78382 13.0667 6.51716 13.175 6.20049 13.175H3.60049V10.825H6.20049Z" fill="black"/>
</g>
<defs>
<clipPath id="clip0_3207_15949">
<rect width="24" height="24" fill="white"/>
</clipPath>
</defs>
</svg>
