<svg width="24" height="24" viewBox="0 0 24 24" fill="none" xmlns="http://www.w3.org/2000/svg">
<g clip-path="url(#clip0_3207_15723)">
<rect width="24" height="24" fill="white"/>
<path d="M19.975 8.325C20.575 8.325 21.1167 8.5 21.6 8.85C22.0833 9.2 22.4583 9.65833 22.725 10.225C23.0083 10.7917 23.15 11.3833 23.15 12C23.15 12.6 23.0083 13.1833 22.725 13.75C22.4417 14.3167 22.0583 14.775 21.575 15.125C21.0917 15.475 20.5667 15.65 20 15.65C19.3167 17.3667 18.2583 18.7333 16.825 19.75C15.3917 20.75 13.7833 21.25 12 21.25C10.2167 21.25 8.6 20.7417 7.15 19.725C5.71667 18.7083 4.66667 17.35 4 15.65C3.4 15.65 2.85833 15.475 2.375 15.125C1.90833 14.775 1.53333 14.325 1.25 13.775C0.983333 13.2083 0.85 12.6167 0.85 12C0.85 11.3833 0.983333 10.8 1.25 10.25C1.53333 9.68333 1.91667 9.225 2.4 8.875C2.88333 8.50833 3.425 8.325 4.025 8.325C4.49167 7.125 5.21667 6.04167 6.2 5.075C7.18333 4.10833 8.38333 3.45 9.8 3.1C9.58333 3.3 9.4 3.54167 9.25 3.825C9.11667 4.09167 9.05 4.4 9.05 4.75C9.05 5.3 9.18333 5.8 9.45 6.25C9.71667 6.68333 10.075 7.03333 10.525 7.3C10.975 7.56667 11.4667 7.7 12 7.7C12.3833 7.7 12.75 7.625 13.1 7.475C13.4667 7.325 13.8 7.1 14.1 6.8L13.425 6.15C13.0083 6.56667 12.5333 6.775 12 6.775C11.45 6.775 10.975 6.58333 10.575 6.2C10.1917 5.8 10 5.31667 10 4.75C10 4.16667 10.2083 3.69167 10.625 3.325C11.0583 2.94167 11.5167 2.75 12 2.75C13.7667 2.75 15.3667 3.25833 16.8 4.275C18.25 5.275 19.3083 6.625 19.975 8.325ZM8.575 12.25C8.80833 12.25 9.00833 12.1667 9.175 12C9.34167 11.8333 9.425 11.6333 9.425 11.4C9.425 11.1833 9.34167 10.9917 9.175 10.825C9.00833 10.6583 8.80833 10.575 8.575 10.575C8.35833 10.575 8.16667 10.6583 8 10.825C7.83333 10.975 7.75 11.1667 7.75 11.4C7.75 11.6333 7.825 11.8333 7.975 12C8.14167 12.1667 8.34167 12.25 8.575 12.25ZM15.425 12.25C15.6417 12.25 15.8333 12.1667 16 12C16.1667 11.8333 16.25 11.6333 16.25 11.4C16.25 11.1833 16.1667 10.9917 16 10.825C15.85 10.6583 15.6583 10.575 15.425 10.575C15.1917 10.575 14.9917 10.6583 14.825 10.825C14.6583 10.975 14.575 11.1667 14.575 11.4C14.575 11.6333 14.6583 11.8333 14.825 12C14.9917 12.1667 15.1917 12.25 15.425 12.25ZM11.925 17.75C12.5917 17.75 13.1917 17.625 13.725 17.375C14.275 17.1083 14.7083 16.7833 15.025 16.4C15.3417 16.0167 15.5 15.65 15.5 15.3H8.5C8.5 15.65 8.65 16.0167 8.95 16.4C9.25 16.7833 9.65833 17.1083 10.175 17.375C10.7083 17.625 11.2917 17.75 11.925 17.75Z" fill="black"/>
</g>
<defs>
<clipPath id="clip0_3207_15723">
<rect width="24" height="24" fill="white"/>
</clipPath>
</defs>
</svg>
