<svg width="24" height="24" viewBox="0 0 24 24" fill="none" xmlns="http://www.w3.org/2000/svg">
<g clip-path="url(#clip0_3207_15721)">
<rect width="24" height="24" fill="white"/>
<path d="M19.975 8.325C20.575 8.325 21.1167 8.5 21.6 8.85C22.0833 9.2 22.4583 9.65833 22.725 10.225C23.0083 10.7917 23.15 11.3833 23.15 12C23.15 12.6 23.0083 13.1833 22.725 13.75C22.4417 14.3167 22.0583 14.775 21.575 15.125C21.0917 15.475 20.5667 15.65 20 15.65C19.3167 17.3667 18.2583 18.7333 16.825 19.75C15.3917 20.75 13.7833 21.25 12 21.25C10.2167 21.25 8.6 20.7417 7.15 19.725C5.71667 18.7083 4.66667 17.35 4 15.65C3.4 15.65 2.85833 15.475 2.375 15.125C1.90833 14.775 1.53333 14.325 1.25 13.775C0.983333 13.2083 0.85 12.6167 0.85 12C0.85 11.3833 0.983333 10.8 1.25 10.25C1.53333 9.68333 1.91667 9.225 2.4 8.875C2.88333 8.50833 3.425 8.325 4.025 8.325C4.525 7.05833 5.325 5.90833 6.425 4.875C7.525 3.825 8.89167 3.15833 10.525 2.875C10.225 3.05833 9.975 3.30833 9.775 3.625C9.59167 3.94167 9.5 4.31667 9.5 4.75C9.5 5.21667 9.60833 5.64167 9.825 6.025C10.0583 6.39167 10.3583 6.69167 10.725 6.925C11.1083 7.14167 11.5333 7.25 12 7.25C12.3333 7.25 12.65 7.19167 12.95 7.075C13.25 6.94167 13.525 6.75 13.775 6.5L13.425 6.15C13.0083 6.56667 12.5333 6.775 12 6.775C11.4333 6.775 10.9583 6.58333 10.575 6.2C10.1917 5.8 10 5.31667 10 4.75C10 4.16667 10.2083 3.69167 10.625 3.325C11.0583 2.94167 11.5167 2.75 12 2.75C13.7667 2.75 15.3667 3.25833 16.8 4.275C18.25 5.275 19.3083 6.625 19.975 8.325ZM8.5 11.825C8.63333 11.825 8.75 11.775 8.85 11.675C8.95 11.575 9 11.4583 9 11.325C9 11.1917 8.95 11.075 8.85 10.975C8.75 10.875 8.63333 10.825 8.5 10.825C8.36667 10.825 8.25 10.875 8.15 10.975C8.05 11.075 8 11.1917 8 11.325C8 11.4583 8.05 11.575 8.15 11.675C8.25 11.775 8.36667 11.825 8.5 11.825ZM15.5 11.825C15.6333 11.825 15.75 11.775 15.85 11.675C15.95 11.575 16 11.4583 16 11.325C16 11.1917 15.95 11.075 15.85 10.975C15.75 10.875 15.6333 10.825 15.5 10.825C15.3667 10.825 15.25 10.875 15.15 10.975C15.05 11.075 15 11.1917 15 11.325C15 11.4583 15.05 11.575 15.15 11.675C15.25 11.775 15.3667 11.825 15.5 11.825ZM11.925 17.75C12.5917 17.75 13.1917 17.625 13.725 17.375C14.275 17.1083 14.7083 16.7833 15.025 16.4C15.3417 16.0167 15.5 15.65 15.5 15.3H8.5C8.5 15.65 8.65 16.0167 8.95 16.4C9.25 16.7833 9.65833 17.1083 10.175 17.375C10.7083 17.625 11.2917 17.75 11.925 17.75Z" fill="black"/>
</g>
<defs>
<clipPath id="clip0_3207_15721">
<rect width="24" height="24" fill="white"/>
</clipPath>
</defs>
</svg>
