<svg width="24" height="24" viewBox="0 0 24 24" fill="none" xmlns="http://www.w3.org/2000/svg">
<g clip-path="url(#clip0_3207_15715)">
<rect width="24" height="24" fill="white"/>
<path d="M12.0005 19.375C13.5005 19.375 14.8505 18.95 16.0505 18.1C17.2672 17.2333 18.1338 16.0833 18.6505 14.65C19.1005 14.7167 19.5255 14.6333 19.9255 14.4C20.3422 14.15 20.6672 13.8083 20.9005 13.375C21.1338 12.9417 21.2505 12.4833 21.2505 12C21.2505 11.5167 21.1338 11.0583 20.9005 10.625C20.6672 10.175 20.3422 9.83333 19.9255 9.6C19.5255 9.36667 19.0922 9.275 18.6255 9.325C18.1088 7.90833 17.2422 6.775 16.0255 5.925C14.8255 5.05833 13.4838 4.625 12.0005 4.625C10.5005 4.625 9.15049 5.05833 7.95049 5.925C6.75049 6.775 5.89216 7.90833 5.37549 9.325C4.90882 9.275 4.46716 9.375 4.05049 9.625C3.65049 9.85833 3.32549 10.1917 3.07549 10.625C2.84216 11.0583 2.72549 11.5167 2.72549 12C2.72549 12.4833 2.84216 12.9417 3.07549 13.375C3.32549 13.7917 3.65049 14.1167 4.05049 14.35C4.45049 14.5833 4.88382 14.675 5.35049 14.625C5.86716 16.075 6.72549 17.2333 7.92549 18.1C9.14216 18.95 10.5005 19.375 12.0005 19.375ZM12.0005 21.45C10.2672 21.45 8.67549 21.0167 7.22549 20.15C5.79216 19.2667 4.67549 18.075 3.87549 16.575C3.24216 16.375 2.67549 16.05 2.17549 15.6C1.67549 15.15 1.28382 14.6167 1.00049 14C0.733822 13.3667 0.600488 12.7 0.600488 12C0.600488 11.3167 0.742155 10.6583 1.02549 10.025C1.30882 9.39167 1.70049 8.85 2.20049 8.4C2.70049 7.93333 3.26716 7.6 3.90049 7.4C4.70049 5.9 5.81716 4.71667 7.25049 3.85C8.68382 2.98333 10.2672 2.55 12.0005 2.55C13.7172 2.55 15.2922 2.99167 16.7255 3.875C18.1755 4.74167 19.3005 5.91667 20.1005 7.4C20.7338 7.6 21.3005 7.93333 21.8005 8.4C22.3005 8.85 22.6922 9.39167 22.9755 10.025C23.2588 10.6583 23.4005 11.3167 23.4005 12C23.4005 12.7 23.2588 13.3667 22.9755 14C22.6922 14.6167 22.3005 15.15 21.8005 15.6C21.3005 16.05 20.7422 16.375 20.1255 16.575C19.3255 18.075 18.2005 19.2667 16.7505 20.15C15.3005 21.0167 13.7172 21.45 12.0005 21.45ZM9.00049 13.025C8.60049 13.025 8.25882 12.8833 7.97549 12.6C7.69216 12.3167 7.55049 11.975 7.55049 11.575C7.55049 11.175 7.69216 10.8333 7.97549 10.55C8.25882 10.25 8.60049 10.1 9.00049 10.1C9.40049 10.1 9.74216 10.25 10.0255 10.55C10.3088 10.8333 10.4505 11.175 10.4505 11.575C10.4505 11.975 10.3088 12.3167 10.0255 12.6C9.74216 12.8833 9.40049 13.025 9.00049 13.025ZM15.0005 13.025C14.6005 13.025 14.2588 12.8833 13.9755 12.6C13.6922 12.3167 13.5505 11.975 13.5505 11.575C13.5505 11.1583 13.6922 10.8083 13.9755 10.525C14.2588 10.2417 14.6005 10.1 15.0005 10.1C15.4005 10.1 15.7422 10.2417 16.0255 10.525C16.3088 10.8083 16.4505 11.1583 16.4505 11.575C16.4505 11.975 16.3088 12.3167 16.0255 12.6C15.7422 12.8833 15.4005 13.025 15.0005 13.025ZM11.9255 17.1C11.2922 17.1 10.7005 16.975 10.1505 16.725C9.61716 16.4583 9.19216 16.1333 8.87549 15.75C8.57549 15.35 8.42549 14.9667 8.42549 14.6H15.5755C15.5755 14.9667 15.4088 15.35 15.0755 15.75C14.7588 16.1333 14.3172 16.4583 13.7505 16.725C13.2005 16.975 12.5922 17.1 11.9255 17.1ZM11.9255 15.45C12.2088 15.45 12.4172 15.45 12.5505 15.45C12.7005 15.45 12.8505 15.45 13.0005 15.45C13.1505 15.45 13.3588 15.45 13.6255 15.45H13.7505H10.1005H10.3255C10.5922 15.45 10.7922 15.45 10.9255 15.45C11.0588 15.45 11.1922 15.45 11.3255 15.45C11.4588 15.45 11.6588 15.45 11.9255 15.45ZM14.3505 8.125C14.0338 8.44167 13.6672 8.68333 13.2505 8.85C12.8505 9 12.4338 9.075 12.0005 9.075C11.4172 9.075 10.8672 8.93333 10.3505 8.65C9.85049 8.36667 9.45049 7.98333 9.15049 7.5C8.85049 7 8.70049 6.45 8.70049 5.85C8.70049 5.28333 8.85049 4.775 9.15049 4.325C9.46716 3.85833 9.87549 3.49167 10.3755 3.225C10.8922 2.95833 11.4338 2.825 12.0005 2.825V4.625C11.7005 4.625 11.4172 4.74167 11.1505 4.975C10.9005 5.19167 10.7755 5.48333 10.7755 5.85C10.7755 6.16667 10.8922 6.44167 11.1255 6.675C11.3755 6.90833 11.6672 7.025 12.0005 7.025C12.3338 7.025 12.6172 6.90833 12.8505 6.675L14.3505 8.125Z" fill="black"/>
</g>
<defs>
<clipPath id="clip0_3207_15715">
<rect width="24" height="24" fill="white"/>
</clipPath>
</defs>
</svg>
