<svg width="24" height="24" viewBox="0 0 24 24" fill="none" xmlns="http://www.w3.org/2000/svg">
<g clip-path="url(#clip0_3207_15709)">
<rect width="24" height="24" fill="white"/>
<path d="M12.0005 20.35C13.6838 20.35 15.2005 19.8667 16.5505 18.9C17.9005 17.9333 18.8755 16.6333 19.4755 15C19.9922 15.0833 20.4755 14.9917 20.9255 14.725C21.3755 14.4417 21.7338 14.05 22.0005 13.55C22.2672 13.05 22.4005 12.5333 22.4005 12C22.4005 11.45 22.2672 10.9333 22.0005 10.45C21.7338 9.95 21.3755 9.56667 20.9255 9.3C20.4755 9.01667 19.9838 8.90833 19.4505 8.975C18.8505 7.34167 17.8755 6.05 16.5255 5.1C15.1922 4.13333 13.6838 3.65 12.0005 3.65C10.3172 3.65 8.80049 4.13333 7.45049 5.1C6.11716 6.05 5.15049 7.34167 4.55049 8.975C4.01716 8.90833 3.52549 9.01667 3.07549 9.3C2.62549 9.56667 2.26716 9.95 2.00049 10.45C1.73382 10.95 1.60049 11.4667 1.60049 12C1.60049 12.55 1.72549 13.075 1.97549 13.575C2.24216 14.0583 2.60049 14.4333 3.05049 14.7C3.50049 14.9667 3.99216 15.0667 4.52549 15C5.12549 16.6333 6.10049 17.9333 7.45049 18.9C8.80049 19.8667 10.3172 20.35 12.0005 20.35ZM12.0005 21.325C10.2172 21.325 8.59216 20.8417 7.12549 19.875C5.65882 18.8917 4.56716 17.5833 3.85049 15.95C3.23382 15.8833 2.67549 15.6667 2.17549 15.3C1.69216 14.9167 1.30882 14.4333 1.02549 13.85C0.742155 13.2667 0.600488 12.65 0.600488 12C0.600488 11.35 0.742155 10.7333 1.02549 10.15C1.30882 9.56667 1.70049 9.08333 2.20049 8.7C2.70049 8.31667 3.25882 8.09167 3.87549 8.025C4.59216 6.39167 5.67549 5.09167 7.12549 4.125C8.57549 3.15833 10.2005 2.675 12.0005 2.675C13.7838 2.675 15.4005 3.15833 16.8505 4.125C18.3172 5.09167 19.4088 6.39167 20.1255 8.025C20.7255 8.09167 21.2755 8.31667 21.7755 8.7C22.2755 9.06667 22.6672 9.55 22.9505 10.15C23.2505 10.7333 23.4005 11.35 23.4005 12C23.4005 12.6333 23.2588 13.25 22.9755 13.85C22.6922 14.4333 22.3005 14.9167 21.8005 15.3C21.3005 15.6667 20.7505 15.8833 20.1505 15.95C19.4338 17.6 18.3422 18.9083 16.8755 19.875C15.4088 20.8417 13.7838 21.325 12.0005 21.325ZM8.90049 12.15C8.65049 12.15 8.43382 12.0583 8.25049 11.875C8.06716 11.6917 7.97549 11.475 7.97549 11.225C7.97549 10.975 8.06716 10.7583 8.25049 10.575C8.43382 10.3917 8.65049 10.3 8.90049 10.3C9.15049 10.3 9.36716 10.3917 9.55049 10.575C9.73382 10.7583 9.82549 10.975 9.82549 11.225C9.82549 11.475 9.73382 11.6917 9.55049 11.875C9.36716 12.0583 9.15049 12.15 8.90049 12.15ZM15.0755 12.15C14.8255 12.15 14.6088 12.0583 14.4255 11.875C14.2588 11.6917 14.1755 11.475 14.1755 11.225C14.1755 10.975 14.2588 10.7583 14.4255 10.575C14.6088 10.3917 14.8255 10.3 15.0755 10.3C15.3422 10.3 15.5588 10.3917 15.7255 10.575C15.9088 10.7583 16.0005 10.975 16.0005 11.225C16.0005 11.475 15.9088 11.6917 15.7255 11.875C15.5588 12.0583 15.3422 12.15 15.0755 12.15ZM11.9255 17.9C11.1422 17.9 10.4255 17.725 9.77549 17.375C9.14216 17.025 8.64216 16.575 8.27549 16.025C7.92549 15.475 7.75049 14.9083 7.75049 14.325H16.2505C16.2505 14.9083 16.0588 15.475 15.6755 16.025C15.3088 16.575 14.7922 17.025 14.1255 17.375C13.4755 17.725 12.7422 17.9 11.9255 17.9ZM11.9255 17.025C12.5422 17.025 13.1172 16.9 13.6505 16.65C14.1838 16.3833 14.6005 16.0417 14.9005 15.625C15.2172 15.2083 15.3755 14.7917 15.3755 14.375L15.7005 15.2H8.17549L8.62549 14.375C8.62549 14.825 8.76716 15.25 9.05049 15.65C9.33382 16.05 9.72549 16.3833 10.2255 16.65C10.7422 16.9 11.3088 17.025 11.9255 17.025ZM13.7255 7.025C13.4922 7.24167 13.2255 7.41667 12.9255 7.55C12.6255 7.66667 12.3172 7.725 12.0005 7.725C11.5672 7.725 11.1588 7.61667 10.7755 7.4C10.4088 7.18333 10.1088 6.88333 9.87549 6.5C9.65882 6.11667 9.55049 5.70833 9.55049 5.275C9.55049 4.79167 9.66716 4.36667 9.90049 4C10.1505 3.63333 10.4588 3.35 10.8255 3.15C11.2088 2.93333 11.6005 2.825 12.0005 2.825V3.65C11.6005 3.65 11.2338 3.8 10.9005 4.1C10.5672 4.4 10.4005 4.79167 10.4005 5.275C10.4005 5.725 10.5588 6.10833 10.8755 6.425C11.1922 6.74167 11.5672 6.9 12.0005 6.9C12.4338 6.9 12.8088 6.75 13.1255 6.45L13.7255 7.025Z" fill="black"/>
</g>
<defs>
<clipPath id="clip0_3207_15709">
<rect width="24" height="24" fill="white"/>
</clipPath>
</defs>
</svg>
