<svg width="24" height="24" viewBox="0 0 24 24" fill="none" xmlns="http://www.w3.org/2000/svg">
<g clip-path="url(#clip0_3207_15729)">
<rect width="24" height="24" fill="white"/>
<path d="M19.975 8.325C20.575 8.325 21.1167 8.5 21.6 8.85C22.0833 9.2 22.4583 9.65833 22.725 10.225C23.0083 10.7917 23.15 11.3833 23.15 12C23.15 12.6 23.0083 13.1833 22.725 13.75C22.4417 14.3167 22.0583 14.775 21.575 15.125C21.0917 15.475 20.5667 15.65 20 15.65C19.3167 17.3667 18.2583 18.7333 16.825 19.75C15.3917 20.75 13.7833 21.25 12 21.25C10.2167 21.25 8.6 20.7417 7.15 19.725C5.71667 18.7083 4.66667 17.35 4 15.65C3.4 15.65 2.85833 15.475 2.375 15.125C1.90833 14.775 1.53333 14.325 1.25 13.775C0.983333 13.2083 0.85 12.6167 0.85 12C0.85 11.3833 0.983333 10.8 1.25 10.25C1.53333 9.68333 1.91667 9.225 2.4 8.875C2.88333 8.50833 3.425 8.325 4.025 8.325C4.44167 7.25833 5.01667 6.325 5.75 5.525C6.5 4.70833 7.36667 4.05833 8.35 3.575C8.28333 3.775 8.23333 3.975 8.2 4.175C8.16667 4.35833 8.15 4.55 8.15 4.75C8.15 5.45 8.325 6.09167 8.675 6.675C9.04167 7.25833 9.51667 7.725 10.1 8.075C10.6833 8.40833 11.3167 8.575 12 8.575C12.5 8.575 12.9833 8.475 13.45 8.275C13.9333 8.075 14.3583 7.79167 14.725 7.425L13.425 6.15C13.0083 6.56667 12.5333 6.775 12 6.775C11.4667 6.775 11 6.575 10.6 6.175C10.2 5.775 10 5.3 10 4.75C10 4.16667 10.2083 3.69167 10.625 3.325C11.0583 2.94167 11.5167 2.75 12 2.75C13.7667 2.75 15.3667 3.25833 16.8 4.275C18.25 5.275 19.3083 6.625 19.975 8.325ZM8.75 13.275C9.2 13.275 9.58333 13.1167 9.9 12.8C10.2167 12.4833 10.375 12.1 10.375 11.65C10.375 11.2 10.2167 10.8167 9.9 10.5C9.58333 10.1833 9.2 10.025 8.75 10.025C8.3 10.025 7.91667 10.1833 7.6 10.5C7.28333 10.8167 7.125 11.2 7.125 11.65C7.125 12.1 7.28333 12.4833 7.6 12.8C7.91667 13.1167 8.3 13.275 8.75 13.275ZM15.25 13.275C15.7 13.275 16.0833 13.1167 16.4 12.8C16.7167 12.4833 16.875 12.1 16.875 11.65C16.875 11.2 16.7167 10.8167 16.4 10.5C16.0833 10.1833 15.7 10.025 15.25 10.025C14.8 10.025 14.4167 10.1833 14.1 10.5C13.7833 10.8167 13.625 11.2 13.625 11.65C13.625 12.1 13.7833 12.4833 14.1 12.8C14.4167 13.1167 14.8 13.275 15.25 13.275ZM11.925 17.825C12.5917 17.825 13.1917 17.7 13.725 17.45C14.275 17.1833 14.7083 16.8583 15.025 16.475C15.3417 16.0917 15.5 15.725 15.5 15.375H8.5C8.5 15.725 8.65 16.0917 8.95 16.475C9.25 16.8583 9.65833 17.1833 10.175 17.45C10.7083 17.7 11.2917 17.825 11.925 17.825Z" fill="black"/>
</g>
<defs>
<clipPath id="clip0_3207_15729">
<rect width="24" height="24" fill="white"/>
</clipPath>
</defs>
</svg>
