<svg width="24" height="24" viewBox="0 0 24 24" fill="none" xmlns="http://www.w3.org/2000/svg">
<g clip-path="url(#clip0_3207_15725)">
<rect width="24" height="24" fill="white"/>
<path d="M19.975 8.325C20.575 8.325 21.1167 8.5 21.6 8.85C22.0833 9.2 22.4583 9.65833 22.725 10.225C23.0083 10.7917 23.15 11.3833 23.15 12C23.15 12.6 23.0083 13.1833 22.725 13.75C22.4417 14.3167 22.0583 14.775 21.575 15.125C21.0917 15.475 20.5667 15.65 20 15.65C19.3167 17.3667 18.2583 18.7333 16.825 19.75C15.3917 20.75 13.7833 21.25 12 21.25C10.2167 21.25 8.6 20.7417 7.15 19.725C5.71667 18.7083 4.66667 17.35 4 15.65C3.4 15.65 2.85833 15.475 2.375 15.125C1.90833 14.775 1.53333 14.325 1.25 13.775C0.983333 13.2083 0.85 12.6167 0.85 12C0.85 11.3833 0.983333 10.8 1.25 10.25C1.53333 9.68333 1.91667 9.225 2.4 8.875C2.88333 8.50833 3.425 8.325 4.025 8.325C4.475 7.19167 5.125 6.18333 5.975 5.3C6.84167 4.41667 7.875 3.76667 9.075 3.35C8.925 3.53333 8.80833 3.74167 8.725 3.975C8.64167 4.20833 8.6 4.46667 8.6 4.75C8.6 5.36667 8.75833 5.93333 9.075 6.45C9.39167 6.96667 9.8 7.375 10.3 7.675C10.8167 7.975 11.3833 8.125 12 8.125C12.45 8.125 12.8833 8.04167 13.3 7.875C13.7167 7.69167 14.0833 7.44167 14.4 7.125L13.425 6.15C13.0083 6.56667 12.5333 6.775 12 6.775C11.45 6.775 10.975 6.575 10.575 6.175C10.1917 5.775 10 5.3 10 4.75C10 4.16667 10.2083 3.69167 10.625 3.325C11.0583 2.94167 11.5167 2.75 12 2.75C13.7667 2.75 15.3667 3.25833 16.8 4.275C18.25 5.275 19.3083 6.625 19.975 8.325ZM8.675 12.65C8.99167 12.65 9.25833 12.5417 9.475 12.325C9.70833 12.0917 9.825 11.8167 9.825 11.5C9.825 11.1667 9.70833 10.8917 9.475 10.675C9.25833 10.4417 8.99167 10.325 8.675 10.325C8.34167 10.325 8.05833 10.4417 7.825 10.675C7.60833 10.8917 7.5 11.1667 7.5 11.5C7.5 11.8167 7.60833 12.0917 7.825 12.325C8.05833 12.5417 8.34167 12.65 8.675 12.65ZM15.325 12.65C15.6583 12.65 15.9333 12.5417 16.15 12.325C16.3833 12.0917 16.5 11.8167 16.5 11.5C16.5 11.1667 16.3833 10.8917 16.15 10.675C15.9333 10.4417 15.6583 10.325 15.325 10.325C15.0083 10.325 14.7333 10.4417 14.5 10.675C14.2833 10.8917 14.175 11.1667 14.175 11.5C14.175 11.8167 14.2833 12.0917 14.5 12.325C14.7333 12.5417 15.0083 12.65 15.325 12.65ZM11.925 17.75C12.5917 17.75 13.1917 17.625 13.725 17.375C14.275 17.1083 14.7083 16.7833 15.025 16.4C15.3417 16.0167 15.5 15.65 15.5 15.3H8.5C8.5 15.65 8.65 16.0167 8.95 16.4C9.25 16.7833 9.65833 17.1083 10.175 17.375C10.7083 17.625 11.2917 17.75 11.925 17.75Z" fill="black"/>
</g>
<defs>
<clipPath id="clip0_3207_15725">
<rect width="24" height="24" fill="white"/>
</clipPath>
</defs>
</svg>
