<svg width="24" height="24" viewBox="0 0 24 24" fill="none" xmlns="http://www.w3.org/2000/svg">
<g clip-path="url(#clip0_3351_917)">
<rect width="24" height="24" fill="white"/>
<path d="M12.025 19.3C11.7583 19.3 11.5417 19.2167 11.375 19.05C11.2083 18.8667 11.1167 18.6417 11.1 18.375L10.975 13.725L8.325 11.025C7.975 10.675 7.80833 10.2417 7.825 9.725C7.84167 9.19167 8.04167 8.73333 8.425 8.35L11.25 5.525C11.6167 5.15833 12.0417 4.98333 12.525 5C13.025 5 13.4583 5.18333 13.825 5.55L18.175 9.9C18.3583 10.0667 18.45 10.2667 18.45 10.5C18.45 10.7167 18.3583 10.9167 18.175 11.1C18.0083 11.2667 17.8167 11.3583 17.6 11.375C17.3833 11.375 17.1917 11.3 17.025 11.15L13.2 7.725L10.875 10.05L12.625 12.625C12.7417 12.7917 12.825 12.9417 12.875 13.075C12.925 13.2083 12.95 13.3583 12.95 13.525V18.35C12.95 18.6167 12.8583 18.8417 12.675 19.025C12.5083 19.2083 12.2917 19.3 12.025 19.3ZM5.5 21.25C4.71667 21.25 4 21.0667 3.35 20.7C2.7 20.3167 2.18333 19.8083 1.8 19.175C1.43333 18.525 1.25 17.8083 1.25 17.025C1.25 16.2417 1.43333 15.5333 1.8 14.9C2.18333 14.25 2.7 13.7417 3.35 13.375C4 12.9917 4.71667 12.8 5.5 12.8C6.28333 12.8 7 12.9917 7.65 13.375C8.3 13.7417 8.80833 14.25 9.175 14.9C9.55833 15.5333 9.75 16.2417 9.75 17.025C9.75 17.8083 9.55833 18.525 9.175 19.175C8.80833 19.8083 8.3 20.3167 7.65 20.7C7 21.0667 6.28333 21.25 5.5 21.25ZM5.5 19.525C5.96667 19.525 6.38333 19.4167 6.75 19.2C7.13333 18.9667 7.43333 18.6667 7.65 18.3C7.88333 17.9167 8 17.4917 8 17.025C8 16.5583 7.88333 16.1417 7.65 15.775C7.43333 15.3917 7.13333 15.0917 6.75 14.875C6.38333 14.6417 5.96667 14.525 5.5 14.525C5.03333 14.525 4.60833 14.6417 4.225 14.875C3.85833 15.0917 3.55833 15.3917 3.325 15.775C3.10833 16.1417 3 16.5583 3 17.025C3 17.4917 3.10833 17.9167 3.325 18.3C3.55833 18.6667 3.85833 18.9667 4.225 19.2C4.60833 19.4167 5.03333 19.525 5.5 19.525ZM18.5 21.25C17.7167 21.25 17 21.0667 16.35 20.7C15.7 20.3167 15.1833 19.8083 14.8 19.175C14.4333 18.525 14.25 17.8083 14.25 17.025C14.25 16.2417 14.4333 15.5333 14.8 14.9C15.1833 14.25 15.7 13.7417 16.35 13.375C17 12.9917 17.7167 12.8 18.5 12.8C19.2833 12.8 20 12.9917 20.65 13.375C21.3 13.7417 21.8083 14.25 22.175 14.9C22.5583 15.5333 22.75 16.2417 22.75 17.025C22.75 17.8083 22.5583 18.525 22.175 19.175C21.8083 19.8083 21.3 20.3167 20.65 20.7C20 21.0667 19.2833 21.25 18.5 21.25ZM18.5 19.525C18.9667 19.525 19.3833 19.4167 19.75 19.2C20.1333 18.9667 20.4333 18.6667 20.65 18.3C20.8833 17.9167 21 17.4917 21 17.025C21 16.5583 20.8833 16.1417 20.65 15.775C20.4333 15.3917 20.1333 15.0917 19.75 14.875C19.3833 14.6417 18.9667 14.525 18.5 14.525C18.0333 14.525 17.6083 14.6417 17.225 14.875C16.8583 15.0917 16.5583 15.3917 16.325 15.775C16.1083 16.1417 16 16.5583 16 17.025C16 17.4917 16.1083 17.9167 16.325 18.3C16.5583 18.6667 16.8583 18.9667 17.225 19.2C17.6083 19.4167 18.0333 19.525 18.5 19.525ZM15.275 4.625C14.8583 4.625 14.5 4.48333 14.2 4.2C13.9167 3.9 13.775 3.54167 13.775 3.125C13.775 2.70833 13.9167 2.35833 14.2 2.075C14.5 1.775 14.8583 1.625 15.275 1.625C15.6917 1.625 16.0417 1.775 16.325 2.075C16.625 2.35833 16.775 2.70833 16.775 3.125C16.775 3.54167 16.625 3.9 16.325 4.2C16.0417 4.48333 15.6917 4.625 15.275 4.625Z" fill="black"/>
</g>
<defs>
<clipPath id="clip0_3351_917">
<rect width="24" height="24" fill="white"/>
</clipPath>
</defs>
</svg>
