<svg width="24" height="24" viewBox="0 0 24 24" fill="none" xmlns="http://www.w3.org/2000/svg">
<g clip-path="url(#clip0_3207_15895)">
<rect width="24" height="24" fill="white"/>
<path d="M10.1255 6.875L12.2005 9L14.2505 6.875L15.4005 8.05L13.3005 10.1L15.4005 12.15L14.2505 13.325L12.2005 11.2L10.1255 13.325L8.97549 12.15L11.0755 10.1L8.97549 8.05L10.1255 6.875ZM12.2505 1.5C13.7672 1.5 15.1588 1.85833 16.4255 2.575C17.6922 3.29167 18.6838 4.28333 19.4005 5.55C20.1338 6.8 20.5005 8.2 20.5005 9.75C20.5005 11.2 20.1672 12.65 19.5005 14.1C18.8505 15.5333 17.8922 16.7833 16.6255 17.85L12.8755 21C12.1255 21.6333 11.4005 22.0833 10.7005 22.35C10.0005 22.6167 9.30882 22.75 8.62549 22.75C7.74216 22.75 6.94216 22.5417 6.22549 22.125C5.50882 21.725 4.94216 21.1833 4.52549 20.5C4.12549 19.8 3.92549 19.025 3.92549 18.175V17.5H5.77549V18.175C5.77549 18.6917 5.89216 19.1667 6.12549 19.6C6.37549 20.0167 6.71716 20.35 7.15049 20.6C7.58382 20.8333 8.07549 20.95 8.62549 20.95C9.07549 20.95 9.54216 20.8583 10.0255 20.675C10.5255 20.4917 11.0588 20.1583 11.6255 19.675L15.3755 16.525C16.4755 15.6083 17.2922 14.55 17.8255 13.35C18.3755 12.1333 18.6505 10.9333 18.6505 9.75C18.6505 8.53333 18.3672 7.43333 17.8005 6.45C17.2338 5.46667 16.4588 4.7 15.4755 4.15C14.5088 3.58333 13.4338 3.3 12.2505 3.3C11.0838 3.3 10.0005 3.59167 9.00049 4.175C8.01716 4.74167 7.23382 5.51667 6.65049 6.5C6.06716 7.48333 5.77549 8.56667 5.77549 9.75H3.92549C3.92549 8.23333 4.29216 6.85 5.02549 5.6C5.77549 4.33333 6.78382 3.33333 8.05049 2.6C9.33382 1.86667 10.7338 1.5 12.2505 1.5Z" fill="black"/>
</g>
<defs>
<clipPath id="clip0_3207_15895">
<rect width="24" height="24" fill="white"/>
</clipPath>
</defs>
</svg>
