<svg width="24" height="24" viewBox="0 0 24 24" fill="none" xmlns="http://www.w3.org/2000/svg">
<g clip-path="url(#clip0_3207_15899)">
<rect width="24" height="24" fill="white"/>
<path d="M10.4505 6.7L12.1005 8.475L13.7255 6.7L15.5755 8.575L13.8255 10.225L15.5755 11.875L13.7255 13.725L12.0755 11.975L10.4505 13.725L8.57549 11.85L10.3255 10.225L8.57549 8.575L10.4505 6.7ZM12.2755 1.5C13.7755 1.5 15.1505 1.85833 16.4005 2.575C17.6672 3.275 18.6672 4.25833 19.4005 5.525C20.1338 6.775 20.5005 8.19167 20.5005 9.775C20.5005 11.825 19.9588 13.8167 18.8755 15.75C17.7922 17.6833 16.3838 19.25 14.6505 20.45C12.9338 21.65 11.1672 22.25 9.35049 22.25C8.33382 22.25 7.41716 22.0167 6.60049 21.55C5.78382 21.0833 5.13382 20.4583 4.65049 19.675C4.16716 18.875 3.92549 17.9833 3.92549 17V16.325H7.00049V17C7.00049 17.4167 7.10049 17.8 7.30049 18.15C7.51716 18.4833 7.80049 18.75 8.15049 18.95C8.51716 19.1333 8.91716 19.225 9.35049 19.225C10.6005 19.225 11.8505 18.7583 13.1005 17.825C14.3672 16.8917 15.4005 15.6917 16.2005 14.225C17.0172 12.7417 17.4255 11.2583 17.4255 9.775C17.4255 8.725 17.2088 7.80833 16.7755 7.025C16.3422 6.225 15.7338 5.60833 14.9505 5.175C14.1672 4.74167 13.2672 4.525 12.2505 4.525C11.2338 4.525 10.3255 4.75 9.52549 5.2C8.74216 5.63333 8.12549 6.25 7.67549 7.05C7.22549 7.83333 7.00049 8.73333 7.00049 9.75H3.92549C3.92549 8.23333 4.29216 6.85 5.02549 5.6C5.75882 4.33333 6.75882 3.33333 8.02549 2.6C9.30882 1.86667 10.7255 1.5 12.2755 1.5Z" fill="black"/>
</g>
<defs>
<clipPath id="clip0_3207_15899">
<rect width="24" height="24" fill="white"/>
</clipPath>
</defs>
</svg>
