<svg width="24" height="24" viewBox="0 0 24 24" fill="none" xmlns="http://www.w3.org/2000/svg">
<g clip-path="url(#clip0_3207_16175)">
<rect width="24" height="24" fill="white"/>
<path d="M6.5 16H3V4H6.5V16ZM8.5 16V4H17.075C19.2083 4 20.4667 5.05833 20.85 7.175L21.925 13.175C22.0917 14.0417 21.9417 14.7333 21.475 15.25C21.0083 15.75 20.3333 16 19.45 16H15.55V20.65C15.55 21.1667 15.3667 21.6 15 21.95C14.65 22.3167 14.2167 22.5 13.7 22.5C13.1667 22.5 12.7333 22.4 12.4 22.2C12.0833 22 11.775 21.6333 11.475 21.1L8.5 16Z" fill="black"/>
</g>
<defs>
<clipPath id="clip0_3207_16175">
<rect width="24" height="24" fill="white"/>
</clipPath>
</defs>
</svg>
