<svg width="24" height="24" viewBox="0 0 24 24" fill="none" xmlns="http://www.w3.org/2000/svg">
<g clip-path="url(#clip0_3207_16155)">
<rect width="24" height="24" fill="white"/>
<path d="M17.0505 3C18.0172 3 18.8505 3.3 19.5505 3.9C20.2672 4.5 20.7172 5.275 20.9005 6.225L21.9255 11.6C22.0422 12.2167 21.9922 12.7917 21.7755 13.325C21.5588 13.8417 21.2005 14.25 20.7005 14.55C20.2172 14.85 19.6505 15 19.0005 15H16.0005V18.875C16.0005 19.4083 15.8755 19.9 15.6255 20.35C15.3922 20.7833 15.0588 21.125 14.6255 21.375C14.2088 21.625 13.7422 21.75 13.2255 21.75C12.5088 21.75 11.8838 21.5667 11.3505 21.2C10.8172 20.8333 10.4422 20.3333 10.2255 19.7L8.65049 15H3.00049V3H17.0505ZM4.85049 4.8V13.2H9.97549L11.9255 18.975C12.0255 19.275 12.1755 19.5167 12.3755 19.7C12.5922 19.8667 12.8422 19.95 13.1255 19.95C13.4088 19.95 13.6505 19.85 13.8505 19.65C14.0505 19.45 14.1505 19.1917 14.1505 18.875V13.2H19.0255C19.3922 13.2 19.6838 13.075 19.9005 12.825C20.1172 12.5583 20.1838 12.2333 20.1005 11.85L19.0755 6.55C18.9755 6.03333 18.7338 5.61667 18.3505 5.3C17.9838 4.96667 17.5505 4.8 17.0505 4.8H4.85049ZM10.0005 4.45V14.75L8.15049 13.475V4.45H10.0005Z" fill="black"/>
</g>
<defs>
<clipPath id="clip0_3207_16155">
<rect width="24" height="24" fill="white"/>
</clipPath>
</defs>
</svg>
