<svg width="24" height="24" viewBox="0 0 24 24" fill="none" xmlns="http://www.w3.org/2000/svg">
<g clip-path="url(#clip0_3207_16157)">
<rect width="24" height="24" fill="white"/>
<path d="M16.9505 3C17.9505 3 18.8172 3.30833 19.5505 3.925C20.2838 4.54167 20.7422 5.34167 20.9255 6.325L21.9005 11.475C22.0338 12.175 21.9838 12.8083 21.7505 13.375C21.5338 13.925 21.1588 14.3583 20.6255 14.675C20.1088 14.9917 19.4922 15.15 18.7755 15.15H16.5255V18.45C16.5255 19.05 16.3755 19.6083 16.0755 20.125C15.7922 20.625 15.4005 21.0167 14.9005 21.3C14.4005 21.6 13.8505 21.75 13.2505 21.75C12.4338 21.75 11.7172 21.5333 11.1005 21.1C10.5005 20.6667 10.0755 20.075 9.82549 19.325L8.42549 15.15H3.00049V3H16.9505ZM5.37549 5.325V12.85H10.1005L12.0755 18.575C12.1588 18.8417 12.3005 19.05 12.5005 19.2C12.7005 19.35 12.9255 19.425 13.1755 19.425C13.4422 19.425 13.6672 19.3333 13.8505 19.15C14.0505 18.9667 14.1505 18.725 14.1505 18.425V12.825H18.7005C19.0005 12.825 19.2338 12.725 19.4005 12.525C19.5672 12.325 19.6172 12.0667 19.5505 11.75L18.6005 6.8C18.5005 6.35 18.3005 5.99167 18.0005 5.725C17.7005 5.45833 17.3338 5.325 16.9005 5.325H5.37549ZM10.4505 4.5V14.9L8.10049 13.6V4.5H10.4505Z" fill="black"/>
</g>
<defs>
<clipPath id="clip0_3207_16157">
<rect width="24" height="24" fill="white"/>
</clipPath>
</defs>
</svg>
