<svg width="24" height="24" viewBox="0 0 24 24" fill="none" xmlns="http://www.w3.org/2000/svg">
<g clip-path="url(#clip0_3207_15282)">
<rect width="24" height="24" fill="white"/>
<path d="M16.9755 3C17.9422 3 18.7672 3.28333 19.4505 3.85C20.1338 4.41667 20.5672 5.19167 20.7505 6.175L21.9005 12.15C22.0005 12.6833 21.9588 13.1667 21.7755 13.6C21.6088 14.0333 21.3172 14.375 20.9005 14.625C20.5005 14.875 20.0172 15 19.4505 15H15.5005V19.75C15.5005 20.15 15.4255 20.5 15.2755 20.8C15.1255 21.1 14.9005 21.3333 14.6005 21.5C14.3005 21.6667 13.9505 21.75 13.5505 21.75C13.0005 21.75 12.5338 21.6 12.1505 21.3C11.7838 21.0167 11.5005 20.575 11.3005 19.975L9.65049 15H3.00049V3H16.9755ZM3.50049 3.475V14.525H9.97549L11.7005 19.7C11.8672 20.2333 12.1088 20.6333 12.4255 20.9C12.7422 21.15 13.1172 21.275 13.5505 21.275C14.0172 21.275 14.3755 21.1417 14.6255 20.875C14.8755 20.5917 15.0005 20.2167 15.0005 19.75V14.525H19.4755C20.1755 14.525 20.7005 14.3083 21.0505 13.875C21.4172 13.4417 21.5338 12.8917 21.4005 12.225L20.2505 6.2C20.0838 5.36667 19.7088 4.70833 19.1255 4.225C18.5588 3.725 17.8588 3.475 17.0255 3.475H3.50049ZM9.97549 3.2V14.75H9.47549V3.2H9.97549Z" fill="black"/>
</g>
<defs>
<clipPath id="clip0_3207_15282">
<rect width="24" height="24" fill="white"/>
</clipPath>
</defs>
</svg>
