<svg width="24" height="24" viewBox="0 0 24 24" fill="none" xmlns="http://www.w3.org/2000/svg">
<g clip-path="url(#clip0_3388_8662)">
<rect width="24" height="24" fill="white"/>
<path d="M3.00049 18.25C3.00049 17 3.38382 15.9083 4.15049 14.975C4.91716 14.0417 5.97549 13.325 7.32549 12.825C8.69216 12.325 10.2505 12.075 12.0005 12.075C13.7505 12.075 15.3005 12.3333 16.6505 12.85C18.0172 13.35 19.0838 14.0667 19.8505 15C20.6172 15.9333 21.0005 17.0167 21.0005 18.25V21H3.00049V18.25ZM20.0505 20.075V18.25C20.0505 17.2167 19.7088 16.3 19.0255 15.5C18.3588 14.7 17.4172 14.0833 16.2005 13.65C14.9838 13.2167 13.5838 13 12.0005 13C10.4172 13 9.01716 13.2167 7.80049 13.65C6.58382 14.0833 5.63382 14.7 4.95049 15.5C4.28382 16.3 3.95049 17.2167 3.95049 18.25V20.075H20.0505ZM16.1005 20.525C16.1005 19.775 15.9172 19.0917 15.5505 18.475C15.1838 17.8417 14.6838 17.3417 14.0505 16.975C13.4338 16.6083 12.7505 16.425 12.0005 16.425C11.2505 16.425 10.5588 16.6083 9.92549 16.975C9.30882 17.3417 8.81716 17.8417 8.45049 18.475C8.08382 19.0917 7.90049 19.775 7.90049 20.525H6.95049C6.95049 19.6083 7.17549 18.7667 7.62549 18C8.07549 17.2333 8.68382 16.6333 9.45049 16.2C10.2172 15.75 11.0672 15.525 12.0005 15.525C12.9338 15.525 13.7838 15.75 14.5505 16.2C15.3172 16.6333 15.9255 17.2333 16.3755 18C16.8255 18.7667 17.0505 19.6083 17.0505 20.525H16.1005ZM12.0005 10.225C11.2172 10.225 10.5005 10.0417 9.85049 9.675C9.20049 9.29167 8.68382 8.775 8.30049 8.125C7.93382 7.475 7.75049 6.775 7.75049 6.025C7.75049 5.24167 7.93382 4.525 8.30049 3.875C8.68382 3.225 9.20049 2.71667 9.85049 2.35C10.5005 1.96667 11.2172 1.775 12.0005 1.775C12.7838 1.775 13.5005 1.96667 14.1505 2.35C14.8005 2.71667 15.3088 3.225 15.6755 3.875C16.0588 4.525 16.2505 5.23333 16.2505 6C16.2505 6.78333 16.0588 7.5 15.6755 8.15C15.3088 8.78333 14.8005 9.29167 14.1505 9.675C13.5005 10.0417 12.7838 10.225 12.0005 10.225ZM12.0005 9.325C12.6005 9.325 13.1505 9.175 13.6505 8.875C14.1672 8.575 14.5672 8.175 14.8505 7.675C15.1505 7.175 15.3005 6.625 15.3005 6.025C15.3005 5.40833 15.1505 4.85 14.8505 4.35C14.5672 3.83333 14.1672 3.425 13.6505 3.125C13.1505 2.825 12.6005 2.675 12.0005 2.675C11.4005 2.675 10.8422 2.825 10.3255 3.125C9.82549 3.425 9.42549 3.83333 9.12549 4.35C8.84216 4.85 8.70049 5.4 8.70049 6C8.70049 6.61667 8.84216 7.175 9.12549 7.675C9.42549 8.175 9.82549 8.575 10.3255 8.875C10.8422 9.175 11.4005 9.325 12.0005 9.325Z" fill="black"/>
</g>
<defs>
<clipPath id="clip0_3388_8662">
<rect width="24" height="24" fill="white"/>
</clipPath>
</defs>
</svg>
