<svg width="24" height="24" viewBox="0 0 24 24" fill="none" xmlns="http://www.w3.org/2000/svg">
<g clip-path="url(#clip0_3207_16101)">
<rect width="24" height="24" fill="white"/>
<path d="M3.00049 17.975C3.00049 16.7417 3.37549 15.6667 4.12549 14.75C4.89216 13.8333 5.95049 13.1333 7.30049 12.65C8.66716 12.15 10.2338 11.9 12.0005 11.9C13.7505 11.9 15.3088 12.15 16.6755 12.65C18.0422 13.1333 19.1005 13.8417 19.8505 14.775C20.6172 15.6917 21.0005 16.7583 21.0005 17.975V21H3.00049V17.975ZM19.6005 19.65V17.975C19.6005 17.025 19.2838 16.2 18.6505 15.5C18.0172 14.7833 17.1255 14.2333 15.9755 13.85C14.8255 13.45 13.5005 13.25 12.0005 13.25C10.5005 13.25 9.17549 13.45 8.02549 13.85C6.87549 14.2333 5.98382 14.7833 5.35049 15.5C4.71716 16.2 4.40049 17.025 4.40049 17.975V19.65H19.6005ZM15.7005 20.525C15.7005 19.8417 15.5338 19.2167 15.2005 18.65C14.8672 18.0833 14.4172 17.6417 13.8505 17.325C13.3005 16.9917 12.6838 16.825 12.0005 16.825C11.3172 16.825 10.6922 16.9917 10.1255 17.325C9.57549 17.6417 9.13382 18.0833 8.80049 18.65C8.46716 19.2167 8.30049 19.8417 8.30049 20.525H6.95049C6.95049 19.5917 7.16716 18.7417 7.60049 17.975C8.05049 17.2083 8.65882 16.6 9.42549 16.15C10.2088 15.7 11.0672 15.475 12.0005 15.475C12.9338 15.475 13.7838 15.7 14.5505 16.15C15.3338 16.6 15.9422 17.2083 16.3755 17.975C16.8255 18.7417 17.0505 19.5917 17.0505 20.525H15.7005ZM12.0005 10.225C11.2172 10.225 10.5005 10.0417 9.85049 9.675C9.20049 9.29167 8.68382 8.775 8.30049 8.125C7.93382 7.475 7.75049 6.76667 7.75049 6C7.75049 5.23333 7.93382 4.525 8.30049 3.875C8.68382 3.225 9.20049 2.71667 9.85049 2.35C10.5005 1.96667 11.2172 1.775 12.0005 1.775C12.7838 1.775 13.5005 1.96667 14.1505 2.35C14.8005 2.71667 15.3088 3.225 15.6755 3.875C16.0588 4.525 16.2505 5.23333 16.2505 6C16.2505 6.76667 16.0588 7.475 15.6755 8.125C15.3088 8.775 14.8005 9.29167 14.1505 9.675C13.5005 10.0417 12.7838 10.225 12.0005 10.225ZM12.0005 8.875C12.5338 8.875 13.0172 8.75 13.4505 8.5C13.8838 8.25 14.2255 7.90833 14.4755 7.475C14.7422 7.025 14.8755 6.53333 14.8755 6C14.8755 5.46667 14.7422 4.98333 14.4755 4.55C14.2255 4.1 13.8838 3.75 13.4505 3.5C13.0172 3.25 12.5338 3.125 12.0005 3.125C11.4672 3.125 10.9838 3.25 10.5505 3.5C10.1172 3.75 9.76716 4.1 9.50049 4.55C9.25049 4.98333 9.12549 5.46667 9.12549 6C9.12549 6.53333 9.25049 7.025 9.50049 7.475C9.76716 7.90833 10.1172 8.25 10.5505 8.5C10.9838 8.75 11.4672 8.875 12.0005 8.875Z" fill="black"/>
</g>
<defs>
<clipPath id="clip0_3207_16101">
<rect width="24" height="24" fill="white"/>
</clipPath>
</defs>
</svg>
