<svg width="24" height="24" viewBox="0 0 24 24" fill="none" xmlns="http://www.w3.org/2000/svg">
<g clip-path="url(#clip0_3388_8672)">
<rect width="24" height="24" fill="white"/>
<path d="M3.00049 17.175C3.00049 15.9917 3.37549 14.975 4.12549 14.125C4.89216 13.275 5.95049 12.625 7.30049 12.175C8.66716 11.725 10.2338 11.5 12.0005 11.5C13.7672 11.5 15.3255 11.725 16.6755 12.175C18.0422 12.625 19.1005 13.275 19.8505 14.125C20.6172 14.975 21.0005 15.9917 21.0005 17.175V21H3.00049V17.175ZM17.5005 17.55V17.2C17.5005 16.8 17.2922 16.4333 16.8755 16.1C16.4755 15.75 15.8588 15.475 15.0255 15.275C14.2088 15.0583 13.2005 14.95 12.0005 14.95C10.8005 14.95 9.78382 15.0583 8.95049 15.275C8.13382 15.475 7.51716 15.7417 7.10049 16.075C6.70049 16.4083 6.50049 16.775 6.50049 17.175V17.55H17.5005ZM13.8505 18.95C13.5505 18.95 13.3172 18.95 13.1505 18.95C13.0005 18.95 12.8505 18.95 12.7005 18.95C12.5505 18.95 12.3172 18.95 12.0005 18.95C11.7005 18.95 11.4672 18.95 11.3005 18.95C11.1505 18.95 11.0005 18.95 10.8505 18.95C10.7005 18.95 10.4672 18.95 10.1505 18.95H8.72549C8.72549 18.35 8.86716 17.8 9.15049 17.3C9.45049 16.8 9.85049 16.4083 10.3505 16.125C10.8505 15.8417 11.4005 15.7 12.0005 15.7C12.6005 15.7 13.1505 15.8417 13.6505 16.125C14.1505 16.4083 14.5422 16.8 14.8255 17.3C15.1255 17.8 15.2755 18.35 15.2755 18.95H13.8505ZM12.0005 10.525C11.1838 10.525 10.4422 10.3333 9.77549 9.95C9.10882 9.56667 8.58382 9.04167 8.20049 8.375C7.81716 7.70833 7.62549 6.96667 7.62549 6.15C7.62549 5.33333 7.81716 4.59167 8.20049 3.925C8.58382 3.25833 9.10882 2.73333 9.77549 2.35C10.4422 1.96667 11.1838 1.775 12.0005 1.775C12.8172 1.775 13.5588 1.96667 14.2255 2.35C14.8922 2.73333 15.4172 3.25833 15.8005 3.925C16.1838 4.59167 16.3755 5.33333 16.3755 6.15C16.3755 6.96667 16.1838 7.70833 15.8005 8.375C15.4172 9.04167 14.8922 9.56667 14.2255 9.95C13.5588 10.3333 12.8172 10.525 12.0005 10.525ZM12.0005 7.625C12.2672 7.625 12.5088 7.55833 12.7255 7.425C12.9588 7.29167 13.1422 7.11667 13.2755 6.9C13.4088 6.66667 13.4755 6.41667 13.4755 6.15C13.4755 5.88333 13.4088 5.64167 13.2755 5.425C13.1422 5.19167 12.9588 5.00833 12.7255 4.875C12.5088 4.74167 12.2672 4.675 12.0005 4.675C11.7338 4.675 11.4838 4.74167 11.2505 4.875C11.0338 5.00833 10.8588 5.19167 10.7255 5.425C10.5922 5.64167 10.5255 5.88333 10.5255 6.15C10.5255 6.41667 10.5922 6.66667 10.7255 6.9C10.8588 7.11667 11.0338 7.29167 11.2505 7.425C11.4838 7.55833 11.7338 7.625 12.0005 7.625Z" fill="black"/>
</g>
<defs>
<clipPath id="clip0_3388_8672">
<rect width="24" height="24" fill="white"/>
</clipPath>
</defs>
</svg>
