<svg width="24" height="24" viewBox="0 0 24 24" fill="none" xmlns="http://www.w3.org/2000/svg">
<g clip-path="url(#clip0_3207_17728)">
<rect width="24" height="24" fill="white"/>
<path d="M7.1 15.625V17.9H8.25C8.93333 17.9 9.55 17.75 10.1 17.45C10.65 17.15 11.075 16.7333 11.375 16.2C11.6917 15.65 11.85 15.0417 11.85 14.375C11.85 13.5583 11.6083 12.8167 11.125 12.15C10.6583 11.4833 10.0833 10.9 9.4 10.4V9.775C9.4 9.225 9.525 8.725 9.775 8.275C10.025 7.80833 10.3667 7.45 10.8 7.2C11.25 6.93333 11.7333 6.8 12.25 6.8C12.7667 6.8 13.2417 6.925 13.675 7.175C14.125 7.425 14.475 7.775 14.725 8.225C14.975 8.65833 15.1 9.14167 15.1 9.675H17.45C17.45 8.725 17.2167 7.85833 16.75 7.075C16.3 6.275 15.675 5.65 14.875 5.2C14.075 4.73333 13.2 4.5 12.25 4.5C11.3 4.5 10.425 4.73333 9.625 5.2C8.825 5.66667 8.19167 6.30833 7.725 7.125C7.275 7.925 7.05 8.80833 7.05 9.775V11.475C7.2 11.5583 7.33333 11.6583 7.45 11.775C8.2 12.3417 8.73333 12.8167 9.05 13.2C9.36667 13.5667 9.525 13.9583 9.525 14.375C9.525 14.725 9.4 15.025 9.15 15.275C8.91667 15.5083 8.61667 15.625 8.25 15.625H7.1ZM12.25 1.5C13.7667 1.5 15.15 1.85833 16.4 2.575C17.6667 3.29167 18.6667 4.28333 19.4 5.55C20.1333 6.8 20.5 8.2 20.5 9.75C20.5 11.1333 20.1833 12.4333 19.55 13.65C18.9167 14.85 17.9417 16 16.625 17.1L12.875 20.25C12.0583 20.95 11.3083 21.4583 10.625 21.775C9.94167 22.0917 9.24167 22.25 8.525 22.25C7.70833 22.25 6.95 22.0417 6.25 21.625C5.56667 21.225 5.01667 20.675 4.6 19.975C4.2 19.275 4 18.5083 4 17.675V9.75C4 8.23333 4.35833 6.85 5.075 5.6C5.80833 4.33333 6.8 3.33333 8.05 2.6C9.31667 1.86667 10.7167 1.5 12.25 1.5Z" fill="black"/>
</g>
<defs>
<clipPath id="clip0_3207_17728">
<rect width="24" height="24" fill="white"/>
</clipPath>
</defs>
</svg>
