<svg width="24" height="24" viewBox="0 0 24 24" fill="none" xmlns="http://www.w3.org/2000/svg">
<g clip-path="url(#clip0_3207_17710)">
<rect width="24" height="24" fill="white"/>
<path d="M8.70049 15.175C9.06716 15.175 9.38382 15.0417 9.65049 14.775C9.91716 14.5083 10.0505 14.2 10.0505 13.85C10.0505 13.4 9.87549 12.9417 9.52549 12.475C9.19216 12.0083 8.72549 11.5333 8.12549 11.05C8.05882 11 8.00882 10.9583 7.97549 10.925C7.94216 10.8917 7.89216 10.85 7.82549 10.8V9.75C7.82549 8.91667 8.01716 8.16667 8.40049 7.5C8.80049 6.81667 9.33382 6.275 10.0005 5.875C10.6838 5.475 11.4338 5.275 12.2505 5.275C13.0672 5.275 13.8088 5.475 14.4755 5.875C15.1588 6.275 15.6922 6.81667 16.0755 7.5C16.4755 8.16667 16.6755 8.91667 16.6755 9.75H15.3255C15.3255 9.18333 15.1838 8.65833 14.9005 8.175C14.6338 7.69167 14.2672 7.30833 13.8005 7.025C13.3338 6.74167 12.8172 6.6 12.2505 6.6C11.6838 6.6 11.1672 6.74167 10.7005 7.025C10.2338 7.30833 9.85882 7.69167 9.57549 8.175C9.30882 8.65833 9.17549 9.18333 9.17549 9.75V10.175C9.77549 10.625 10.2922 11.1667 10.7255 11.8C11.1755 12.4167 11.4005 13.1 11.4005 13.85C11.4005 14.5833 11.1422 15.2083 10.6255 15.725C10.1088 16.2417 9.46716 16.5 8.70049 16.5H7.82549V15.175H8.70049ZM12.2505 1.5C13.7672 1.5 15.1588 1.85833 16.4255 2.575C17.6922 3.29167 18.6838 4.28333 19.4005 5.55C20.1338 6.8 20.5005 8.2 20.5005 9.75C20.5005 10.6833 20.3588 11.5833 20.0755 12.45C19.7922 13.3 19.3588 14.1333 18.7755 14.95C18.2088 15.7667 17.4922 16.5417 16.6255 17.275L12.8755 20.425C12.1088 21.075 11.3755 21.5417 10.6755 21.825C9.97549 22.1083 9.28382 22.25 8.60049 22.25C7.73382 22.25 6.94216 22.0417 6.22549 21.625C5.50882 21.225 4.94216 20.6833 4.52549 20C4.12549 19.3 3.92549 18.525 3.92549 17.675V17H5.32549V17.675C5.32549 18.275 5.46716 18.825 5.75049 19.325C6.03382 19.8083 6.42549 20.1917 6.92549 20.475C7.42549 20.7583 7.98382 20.9 8.60049 20.9C9.10049 20.9 9.61716 20.7917 10.1505 20.575C10.7005 20.3417 11.2922 19.9583 11.9255 19.425L15.6755 16.275C16.8588 15.275 17.7255 14.2333 18.2755 13.15C18.8255 12.0667 19.1005 10.9333 19.1005 9.75C19.1005 8.45 18.7922 7.275 18.1755 6.225C17.5755 5.175 16.7505 4.35 15.7005 3.75C14.6672 3.15 13.5172 2.85 12.2505 2.85C10.9838 2.85 9.81716 3.15833 8.75049 3.775C7.70049 4.39167 6.86715 5.225 6.25049 6.275C5.63382 7.325 5.32549 8.48333 5.32549 9.75H3.92549C3.92549 8.23333 4.29216 6.85 5.02549 5.6C5.77549 4.33333 6.78382 3.33333 8.05049 2.6C9.33382 1.86667 10.7338 1.5 12.2505 1.5Z" fill="black"/>
</g>
<defs>
<clipPath id="clip0_3207_17710">
<rect width="24" height="24" fill="white"/>
</clipPath>
</defs>
</svg>
