<svg width="24" height="24" viewBox="0 0 24 24" fill="none" xmlns="http://www.w3.org/2000/svg">
<g clip-path="url(#clip0_3207_17716)">
<rect width="24" height="24" fill="white"/>
<path d="M19.2505 10.6C19.2505 10.5333 19.2505 10.4917 19.2505 10.475C19.2505 10.4417 19.2505 10.3917 19.2505 10.325C19.2505 10.275 19.2505 10.2417 19.2505 10.225C19.2505 10.1917 19.2505 10.15 19.2505 10.1C19.2505 10.1 19.2505 10.1083 19.2505 10.125V9.75C19.2505 9.56667 19.2505 9.43333 19.2505 9.35C19.2505 9.26667 19.2505 9.18333 19.2505 9.1C19.2505 9.01667 19.2505 8.88333 19.2505 8.7C19.2505 8.88333 19.2505 9.01667 19.2505 9.1C19.2505 9.18333 19.2505 9.26667 19.2505 9.35C19.2505 9.43333 19.2505 9.56667 19.2505 9.75C19.2505 9.68333 19.2505 9.63333 19.2505 9.6C19.2505 9.56667 19.2505 9.53333 19.2505 9.5C19.2505 9.46667 19.2505 9.41667 19.2505 9.35C19.2505 9.41667 19.2505 9.46667 19.2505 9.5C19.2505 9.53333 19.2505 9.56667 19.2505 9.6C19.2505 9.63333 19.2505 9.68333 19.2505 9.75V11.2V10.6ZM12.2755 1.5C13.7922 1.5 15.1755 1.86667 16.4255 2.6C17.6755 3.31667 18.6672 4.30833 19.4005 5.575C20.1338 6.84167 20.5005 8.24167 20.5005 9.775C20.5005 11.8417 19.9588 13.8417 18.8755 15.775C17.8088 17.6917 16.4088 19.25 14.6755 20.45C12.9588 21.65 11.1922 22.25 9.37549 22.25C8.37549 22.25 7.45882 22.0167 6.62549 21.55C5.79216 21.0833 5.13382 20.45 4.65049 19.65C4.16716 18.85 3.92549 17.9667 3.92549 17V16.325H6.82549V17C6.82549 17.45 6.94215 17.8583 7.17549 18.225C7.40882 18.575 7.71716 18.8583 8.10049 19.075C8.48382 19.2917 8.91716 19.4 9.40049 19.4C10.6838 19.4 11.9588 18.925 13.2255 17.975C14.5088 17.025 15.5588 15.8083 16.3755 14.325C17.1922 12.825 17.6005 11.3083 17.6005 9.775C17.6005 8.74167 17.3672 7.81667 16.9005 7C16.4338 6.16667 15.7922 5.51667 14.9755 5.05C14.1755 4.58333 13.2672 4.35 12.2505 4.35C11.2338 4.35 10.3088 4.58333 9.47549 5.05C8.65882 5.51667 8.00882 6.16667 7.52549 7C7.05882 7.81667 6.82549 8.73333 6.82549 9.75H3.92549C3.92549 8.23333 4.29216 6.85 5.02549 5.6C5.77549 4.33333 6.78382 3.33333 8.05049 2.6C9.33382 1.86667 10.7422 1.5 12.2755 1.5Z" fill="black"/>
</g>
<defs>
<clipPath id="clip0_3207_17716">
<rect width="24" height="24" fill="white"/>
</clipPath>
</defs>
</svg>
