<svg width="24" height="24" viewBox="0 0 24 24" fill="none" xmlns="http://www.w3.org/2000/svg">
<g clip-path="url(#clip0_3207_17726)">
<rect width="24" height="24" fill="white"/>
<path d="M7.025 15.75V17.7H8.175C8.80833 17.7 9.39167 17.55 9.925 17.25C10.4583 16.95 10.875 16.5417 11.175 16.025C11.4917 15.4917 11.65 14.9167 11.65 14.3C11.65 13.4167 11.3917 12.6583 10.875 12.025C10.3583 11.3917 9.725 10.8083 8.975 10.275V9.85C8.975 9.21667 9.11667 8.63333 9.4 8.1C9.7 7.56667 10.1 7.15 10.6 6.85C11.1 6.53333 11.65 6.375 12.25 6.375C12.85 6.375 13.4 6.525 13.9 6.825C14.4 7.125 14.7917 7.53333 15.075 8.05C15.375 8.56667 15.525 9.13333 15.525 9.75H17.525C17.525 8.76667 17.2917 7.875 16.825 7.075C16.3583 6.25833 15.7167 5.61667 14.9 5.15C14.1 4.66667 13.2167 4.425 12.25 4.425C11.2833 4.425 10.3917 4.66667 9.575 5.15C8.775 5.63333 8.14167 6.29167 7.675 7.125C7.20833 7.94167 6.975 8.85 6.975 9.85V11.225C7.125 11.325 7.26667 11.4333 7.4 11.55C8.25 12.2 8.83333 12.7083 9.15 13.075C9.48333 13.425 9.65 13.8333 9.65 14.3C9.65 14.7 9.50833 15.0417 9.225 15.325C8.94167 15.6083 8.59167 15.75 8.175 15.75H7.025ZM12.25 1.5C13.7667 1.5 15.15 1.85833 16.4 2.575C17.6667 3.29167 18.6667 4.28333 19.4 5.55C20.1333 6.8 20.5 8.2 20.5 9.75C20.5 11.1333 20.1833 12.4333 19.55 13.65C18.9167 14.85 17.9417 16 16.625 17.1L12.875 20.25C12.0583 20.95 11.3083 21.4583 10.625 21.775C9.94167 22.0917 9.24167 22.25 8.525 22.25C7.70833 22.25 6.95 22.0417 6.25 21.625C5.56667 21.225 5.01667 20.675 4.6 19.975C4.2 19.275 4 18.5083 4 17.675V9.75C4 8.23333 4.35833 6.85 5.075 5.6C5.80833 4.33333 6.8 3.33333 8.05 2.6C9.31667 1.86667 10.7167 1.5 12.25 1.5Z" fill="black"/>
</g>
<defs>
<clipPath id="clip0_3207_17726">
<rect width="24" height="24" fill="white"/>
</clipPath>
</defs>
</svg>
