<svg width="24" height="24" viewBox="0 0 24 24" fill="none" xmlns="http://www.w3.org/2000/svg">
<g clip-path="url(#clip0_3388_8636)">
<rect width="24" height="24" fill="white"/>
<path d="M12.0005 14.175C11.6172 14.175 11.2588 14.075 10.9255 13.875C10.5922 13.675 10.3255 13.4083 10.1255 13.075C9.92549 12.7417 9.82549 12.3833 9.82549 12C9.82549 11.6 9.92549 11.2333 10.1255 10.9C10.3255 10.5667 10.5922 10.3083 10.9255 10.125C11.2588 9.94167 11.6172 9.85 12.0005 9.85C12.4005 9.85 12.7672 9.94167 13.1005 10.125C13.4338 10.3083 13.6922 10.5667 13.8755 10.9C14.0755 11.2333 14.1755 11.6 14.1755 12C14.1755 12.3833 14.0755 12.7417 13.8755 13.075C13.6922 13.4083 13.4338 13.675 13.1005 13.875C12.7672 14.075 12.4005 14.175 12.0005 14.175ZM12.0005 12C12.0172 12 12.0338 12 12.0505 12C12.0672 12 12.0755 12 12.0755 12C12.0922 12 12.1088 12 12.1255 12C12.1088 12 12.0922 12 12.0755 12C12.0755 12 12.0672 12 12.0505 12C12.0338 12 12.0172 12 12.0005 12C11.9838 12 11.9672 12 11.9505 12C11.9338 12 11.9172 12 11.9005 12C11.9005 12 11.8922 12 11.8755 12C11.8922 12 11.9005 12 11.9005 12C11.9172 12 11.9338 12 11.9505 12C11.9672 12 11.9838 12 12.0005 12ZM12.0005 18.125C13.1338 18.125 14.2422 17.8583 15.3255 17.325C16.4088 16.7917 17.4088 16.0667 18.3255 15.15C19.2422 14.2167 20.0588 13.1667 20.7755 12C20.0588 10.8333 19.2422 9.79167 18.3255 8.875C17.4088 7.94167 16.4088 7.20833 15.3255 6.675C14.2422 6.14167 13.1338 5.875 12.0005 5.875C10.8672 5.875 9.75882 6.14167 8.67549 6.675C7.59216 7.20833 6.59216 7.94167 5.67549 8.875C4.75882 9.79167 3.94216 10.8333 3.22549 12C3.94216 13.1667 4.75882 14.2167 5.67549 15.15C6.59216 16.0667 7.59216 16.7917 8.67549 17.325C9.75882 17.8583 10.8672 18.125 12.0005 18.125ZM12.0005 20.925C10.3005 20.925 8.67549 20.5083 7.12549 19.675C5.59216 18.8417 4.21716 17.7583 3.00049 16.425C1.80049 15.075 0.800488 13.6 0.000488281 12C0.800488 10.4 1.80049 8.93333 3.00049 7.6C4.21716 6.25 5.59216 5.15833 7.12549 4.325C8.67549 3.49167 10.3005 3.075 12.0005 3.075C13.7005 3.075 15.3172 3.49167 16.8505 4.325C18.4005 5.15833 19.7755 6.25 20.9755 7.6C22.1922 8.93333 23.2005 10.4 24.0005 12C23.2005 13.6 22.1922 15.075 20.9755 16.425C19.7755 17.7583 18.4005 18.8417 16.8505 19.675C15.3172 20.5083 13.7005 20.925 12.0005 20.925Z" fill="black"/>
</g>
<defs>
<clipPath id="clip0_3388_8636">
<rect width="24" height="24" fill="white"/>
</clipPath>
</defs>
</svg>
