<svg width="24" height="24" viewBox="0 0 24 24" fill="none" xmlns="http://www.w3.org/2000/svg">
<g clip-path="url(#clip0_3207_17762)">
<rect width="24" height="24" fill="white"/>
<path d="M12.0005 16.1C11.2505 16.1 10.5588 15.9167 9.92549 15.55C9.29216 15.1833 8.79216 14.6917 8.42549 14.075C8.05882 13.4417 7.87549 12.75 7.87549 12C7.87549 11.25 8.05882 10.5667 8.42549 9.95C8.79216 9.31667 9.29216 8.81667 9.92549 8.45C10.5588 8.08333 11.2505 7.9 12.0005 7.9C12.7505 7.9 13.4422 8.08333 14.0755 8.45C14.7088 8.81667 15.2088 9.31667 15.5755 9.95C15.9422 10.5667 16.1255 11.25 16.1255 12C16.1255 12.75 15.9422 13.4417 15.5755 14.075C15.2088 14.6917 14.7088 15.1833 14.0755 15.55C13.4422 15.9167 12.7505 16.1 12.0005 16.1ZM12.0005 14.775C12.5005 14.775 12.9588 14.65 13.3755 14.4C13.8088 14.15 14.1505 13.8167 14.4005 13.4C14.6505 12.9833 14.7755 12.5167 14.7755 12C14.7755 11.4833 14.6505 11.0167 14.4005 10.6C14.1505 10.1833 13.8088 9.85 13.3755 9.6C12.9588 9.35 12.5005 9.225 12.0005 9.225C11.5005 9.225 11.0338 9.35 10.6005 9.6C10.1838 9.85 9.85049 10.1833 9.60049 10.6C9.35049 11.0167 9.22549 11.4833 9.22549 12C9.22549 12.5167 9.35049 12.9833 9.60049 13.4C9.85049 13.8167 10.1838 14.15 10.6005 14.4C11.0338 14.65 11.5005 14.775 12.0005 14.775ZM12.0005 19.35C13.4172 19.35 14.7755 19.025 16.0755 18.375C17.3922 17.725 18.5838 16.8417 19.6505 15.725C20.7172 14.6083 21.6255 13.3667 22.3755 12C21.6255 10.6333 20.7172 9.39167 19.6505 8.275C18.5838 7.15833 17.3922 6.275 16.0755 5.625C14.7755 4.975 13.4172 4.65 12.0005 4.65C10.5838 4.65 9.21716 4.975 7.90049 5.625C6.60049 6.275 5.41716 7.15833 4.35049 8.275C3.28382 9.39167 2.37549 10.6333 1.62549 12C2.37549 13.3667 3.28382 14.6083 4.35049 15.725C5.41716 16.8417 6.60049 17.725 7.90049 18.375C9.21716 19.025 10.5838 19.35 12.0005 19.35ZM12.0005 20.75C10.2838 20.75 8.65049 20.35 7.10049 19.55C5.56716 18.7333 4.20049 17.6667 3.00049 16.35C1.80049 15.0333 0.800488 13.5833 0.000488281 12C0.800488 10.4167 1.80049 8.96667 3.00049 7.65C4.20049 6.33333 5.56716 5.275 7.10049 4.475C8.65049 3.65833 10.2838 3.25 12.0005 3.25C13.7172 3.25 15.3422 3.65833 16.8755 4.475C18.4255 5.275 19.8005 6.33333 21.0005 7.65C22.2005 8.96667 23.2005 10.4167 24.0005 12C23.2005 13.5833 22.2005 15.0333 21.0005 16.35C19.8005 17.6667 18.4255 18.7333 16.8755 19.55C15.3422 20.35 13.7172 20.75 12.0005 20.75Z" fill="black"/>
</g>
<defs>
<clipPath id="clip0_3207_17762">
<rect width="24" height="24" fill="white"/>
</clipPath>
</defs>
</svg>
