<svg width="24" height="24" viewBox="0 0 24 24" fill="none" xmlns="http://www.w3.org/2000/svg">
<g clip-path="url(#clip0_3373_4669)">
<rect width="24" height="24" fill="white"/>
<path d="M23.3505 8C22.7338 9.95 21.8588 11.5917 20.7255 12.925C19.5922 14.2583 18.2755 15.2583 16.7755 15.925C15.2922 16.5917 13.7005 16.925 12.0005 16.925C10.3005 16.925 8.70882 16.5917 7.22549 15.925C5.74216 15.2583 4.42549 14.2583 3.27549 12.925C2.14216 11.5917 1.26715 9.95 0.650488 8H2.77549C3.60882 10.3333 4.83382 12.0833 6.45049 13.25C8.06716 14.4 9.91716 14.975 12.0005 14.975C14.1005 14.975 15.9588 14.3917 17.5755 13.225C19.1922 12.0583 20.4088 10.3167 21.2255 8H23.3505Z" fill="black"/>
</g>
<defs>
<clipPath id="clip0_3373_4669">
<rect width="24" height="24" fill="white"/>
</clipPath>
</defs>
</svg>
