<svg width="24" height="24" viewBox="0 0 24 24" fill="none" xmlns="http://www.w3.org/2000/svg">
<g clip-path="url(#clip0_3207_16647)">
<rect width="24" height="24" fill="white"/>
<path d="M22.7505 12.95C22.7505 14.3333 22.4172 15.6083 21.7505 16.775C21.0838 17.925 20.1672 18.8333 19.0005 19.5C17.8505 20.1667 16.5838 20.5 15.2005 20.5H12.5505C11.5005 20.5 10.6505 20.2333 10.0005 19.7C9.35049 19.1667 8.93382 18.3833 8.75049 17.35L8.02549 13.35L8.95049 13.975H3.80049C3.03382 13.975 2.37549 13.7083 1.82549 13.175C1.29216 12.625 1.02549 11.9667 1.02549 11.2C1.02549 10.4333 1.29216 9.78333 1.82549 9.25C2.37549 8.7 3.03382 8.425 3.80049 8.425H13.3505L13.2505 8.975L10.3755 6.425C9.84216 5.975 9.52549 5.425 9.42549 4.775C9.34216 4.125 9.49216 3.51667 9.87549 2.95C10.2755 2.36667 10.7922 2.00833 11.4255 1.875C12.0588 1.74167 12.6922 1.85833 13.3255 2.225L17.8505 4.85C19.4672 5.78333 20.6838 6.94167 21.5005 8.325C22.3338 9.69167 22.7505 11.2333 22.7505 12.95ZM21.3255 12.95C21.3255 11.4833 20.9755 10.175 20.2755 9.025C19.5922 7.85833 18.5505 6.86667 17.1505 6.05L12.6505 3.425C12.3338 3.24167 12.0338 3.175 11.7505 3.225C11.4672 3.275 11.2255 3.43333 11.0255 3.7C10.8255 3.96667 10.7505 4.25833 10.8005 4.575C10.8672 4.875 11.0338 5.15 11.3005 5.4L13.4755 7.4C13.8255 7.7 14.0088 8.04167 14.0255 8.425C14.0588 8.80833 13.9422 9.13333 13.6755 9.4C13.4088 9.66667 13.0505 9.8 12.6005 9.8H3.72549C3.34216 9.8 3.02549 9.93333 2.77549 10.2C2.52549 10.4667 2.40049 10.8 2.40049 11.2C2.40049 11.6 2.52549 11.9333 2.77549 12.2C3.02549 12.4667 3.34216 12.6 3.72549 12.6H9.35049L10.1755 17.125C10.2755 17.775 10.5255 18.2667 10.9255 18.6C11.3255 18.9333 11.8588 19.1 12.5255 19.1H15.2005C16.3338 19.1 17.3672 18.8333 18.3005 18.3C19.2338 17.75 19.9672 17.0083 20.5005 16.075C21.0505 15.125 21.3255 14.0833 21.3255 12.95Z" fill="black"/>
</g>
<defs>
<clipPath id="clip0_3207_16647">
<rect width="24" height="24" fill="white"/>
</clipPath>
</defs>
</svg>
