<svg width="24" height="24" viewBox="0 0 24 24" fill="none" xmlns="http://www.w3.org/2000/svg">
<g clip-path="url(#clip0_3207_15404)">
<rect width="24" height="24" fill="white"/>
<path d="M12.9505 1.125C14.3338 1.125 15.6005 1.45833 16.7505 2.125C17.9172 2.79167 18.8338 3.70833 19.5005 4.875C20.1672 6.025 20.5005 7.29167 20.5005 8.675V10.575C20.5005 11.6417 20.2338 12.4917 19.7005 13.125C19.1672 13.7583 18.3755 14.1667 17.3255 14.35L12.6505 15.175L12.9255 14.8V20.525C12.9255 21.175 12.7005 21.725 12.2505 22.175C11.8005 22.625 11.2505 22.85 10.6005 22.85C9.95049 22.85 9.40049 22.625 8.95049 22.175C8.50049 21.725 8.27549 21.175 8.27549 20.525V9.75L8.50049 9.8L5.15049 13.2C4.75049 13.6 4.29216 13.8333 3.77549 13.9C3.25882 13.95 2.77549 13.825 2.32549 13.525C1.87549 13.225 1.60049 12.8417 1.50049 12.375C1.41716 11.8917 1.51716 11.4 1.80049 10.9L4.62549 6.05C5.59216 4.4 6.75882 3.16667 8.12549 2.35C9.50882 1.53333 11.1172 1.125 12.9505 1.125ZM12.9505 1.6C11.2172 1.6 9.69216 1.99167 8.37549 2.775C7.07549 3.54167 5.96715 4.71667 5.05049 6.3L2.22549 11.15C2.02549 11.5 1.95882 11.8583 2.02549 12.225C2.10882 12.5917 2.30049 12.9 2.60049 13.15C2.95049 13.3833 3.32549 13.475 3.72549 13.425C4.12549 13.375 4.48382 13.1917 4.80049 12.875L7.92549 9.7C8.04215 9.58333 8.16716 9.525 8.30049 9.525C8.43382 9.525 8.54216 9.575 8.62549 9.675C8.72549 9.775 8.77549 9.89167 8.77549 10.025V20.525C8.77549 21.0417 8.95049 21.475 9.30049 21.825C9.65049 22.1917 10.0838 22.375 10.6005 22.375C11.1172 22.375 11.5505 22.1917 11.9005 21.825C12.2505 21.475 12.4255 21.0417 12.4255 20.525V14.725L17.2755 13.875C18.1922 13.7083 18.8755 13.3583 19.3255 12.825C19.7755 12.2917 20.0005 11.5667 20.0005 10.65V8.675C20.0005 7.375 19.6838 6.18333 19.0505 5.1C18.4338 4.01667 17.5838 3.16667 16.5005 2.55C15.4338 1.91667 14.2505 1.6 12.9505 1.6Z" fill="black"/>
</g>
<defs>
<clipPath id="clip0_3207_15404">
<rect width="24" height="24" fill="white"/>
</clipPath>
</defs>
</svg>
