<svg width="24" height="24" viewBox="0 0 24 24" fill="none" xmlns="http://www.w3.org/2000/svg">
<g clip-path="url(#clip0_3207_16807)">
<rect width="24" height="24" fill="white"/>
<path d="M1.25049 12.875C1.25049 11.0917 1.65049 9.51667 2.45049 8.15C3.26715 6.78333 4.48382 5.63333 6.10049 4.7L10.1755 2.3C10.9422 1.85 11.7172 1.725 12.5005 1.925C13.3005 2.125 13.9422 2.58333 14.4255 3.3C14.8922 4 15.0755 4.74167 14.9755 5.525C14.8755 6.29167 14.5088 6.94167 13.8755 7.475L11.5755 9.425L11.4005 8.35H19.6255C20.5755 8.35 21.3672 8.675 22.0005 9.325C22.6505 9.95833 22.9755 10.7583 22.9755 11.725C22.9755 12.675 22.6505 13.475 22.0005 14.125C21.3672 14.775 20.5755 15.1 19.6255 15.1H15.2755L16.5005 13.7L15.8755 17.05C15.6755 18.1833 15.2255 19.0417 14.5255 19.625C13.8422 20.2083 12.9505 20.5 11.8505 20.5H8.80049C7.41716 20.5 6.14216 20.1667 4.97549 19.5C3.82549 18.8167 2.91716 17.8917 2.25049 16.725C1.58382 15.5583 1.25049 14.275 1.25049 12.875ZM3.67549 12.875C3.67549 13.8417 3.90049 14.725 4.35049 15.525C4.81716 16.325 5.43382 16.9583 6.20049 17.425C6.98382 17.8917 7.85049 18.125 8.80049 18.125H11.8505C12.3005 18.125 12.6672 18.0083 12.9505 17.775C13.2338 17.5417 13.4005 17.2083 13.4505 16.775L14.2255 12.775H19.7005C19.9838 12.775 20.2172 12.675 20.4005 12.475C20.5838 12.2583 20.6755 12.0083 20.6755 11.725C20.6755 11.425 20.5838 11.175 20.4005 10.975C20.2172 10.775 19.9838 10.675 19.7005 10.675H12.1755C11.4922 10.675 10.9505 10.4833 10.5505 10.1C10.1505 9.71667 9.95882 9.25 9.97549 8.7C10.0088 8.15 10.2755 7.65 10.7755 7.2L12.2755 5.85C12.4922 5.66667 12.6172 5.46667 12.6505 5.25C12.7005 5.01667 12.6588 4.79167 12.5255 4.575C12.3755 4.375 12.1838 4.25833 11.9505 4.225C11.7338 4.19167 11.5088 4.24167 11.2755 4.375L7.30049 6.7C6.05049 7.43333 5.13382 8.30833 4.55049 9.325C3.96716 10.325 3.67549 11.5083 3.67549 12.875Z" fill="black"/>
</g>
<defs>
<clipPath id="clip0_3207_16807">
<rect width="24" height="24" fill="white"/>
</clipPath>
</defs>
</svg>
