<svg width="24" height="24" viewBox="0 0 24 24" fill="none" xmlns="http://www.w3.org/2000/svg">
<g clip-path="url(#clip0_3207_15605)">
<rect width="24" height="24" fill="white"/>
<path d="M7.30049 11.25C7.30049 10.3833 7.50882 9.59167 7.92549 8.875C8.34216 8.15833 8.90882 7.59167 9.62549 7.175C10.3422 6.75833 11.1338 6.55 12.0005 6.55C12.8672 6.55 13.6588 6.75833 14.3755 7.175C15.0922 7.59167 15.6588 8.15833 16.0755 8.875C16.4922 9.59167 16.7005 10.3833 16.7005 11.25V14.35C16.7005 15.0833 16.4505 15.7 15.9505 16.2C15.4505 16.7 14.8422 16.95 14.1255 16.95C13.3922 16.95 12.7755 16.7 12.2755 16.2C11.7922 15.7 11.5505 15.0833 11.5505 14.35V11.225C11.5505 11.0917 11.5922 10.9833 11.6755 10.9C11.7588 10.8167 11.8672 10.775 12.0005 10.775C12.1338 10.775 12.2422 10.8167 12.3255 10.9C12.4088 10.9833 12.4505 11.0917 12.4505 11.225V14.35C12.4505 14.8167 12.6088 15.2167 12.9255 15.55C13.2588 15.8833 13.6588 16.05 14.1255 16.05C14.5922 16.05 14.9838 15.8917 15.3005 15.575C15.6172 15.2417 15.7755 14.8333 15.7755 14.35V11.25C15.7755 10.5667 15.6088 9.93333 15.2755 9.35C14.9422 8.76667 14.4838 8.30833 13.9005 7.975C13.3172 7.625 12.6838 7.45 12.0005 7.45C11.3172 7.45 10.6838 7.625 10.1005 7.975C9.51716 8.30833 9.05882 8.76667 8.72549 9.35C8.39216 9.93333 8.22549 10.5667 8.22549 11.25V11.275H7.30049V11.25ZM4.00049 14.35C4.00049 15.5333 4.20882 16.6417 4.62549 17.675C5.05882 18.6917 5.66716 19.6 6.45049 20.4L5.80049 21.025C4.95049 20.1583 4.28382 19.1583 3.80049 18.025C3.31716 16.8917 3.07549 15.6667 3.07549 14.35V11.25C3.07549 9.73333 3.42549 8.33333 4.12549 7.05C4.82549 5.75 5.77549 4.68333 6.97549 3.85C8.19216 3.01667 9.53382 2.525 11.0005 2.375V3.275C9.68382 3.44167 8.49216 3.9 7.42549 4.65C6.37549 5.4 5.54216 6.35833 4.92549 7.525C4.30882 8.675 4.00049 9.91667 4.00049 11.25V14.35ZM13.0005 2.375C14.4672 2.525 15.8005 3.01667 17.0005 3.85C18.2172 4.68333 19.1755 5.75 19.8755 7.05C20.5755 8.33333 20.9255 9.73333 20.9255 11.25V14.35C20.9255 15.0833 20.8088 15.8 20.5755 16.5C20.3588 17.2 20.0338 17.8417 19.6005 18.425L18.9505 17.775C19.2838 17.2917 19.5422 16.7583 19.7255 16.175C19.9088 15.575 20.0005 14.9667 20.0005 14.35V11.25C20.0005 9.91667 19.6922 8.675 19.0755 7.525C18.4588 6.35833 17.6172 5.4 16.5505 4.65C15.5005 3.9 14.3172 3.44167 13.0005 3.275V2.375ZM8.22549 14.35C8.22549 15.4333 8.48382 16.4333 9.00049 17.35C9.53382 18.25 10.2505 18.9667 11.1505 19.5C12.0505 20.0167 13.0422 20.275 14.1255 20.275C14.7755 20.275 15.3838 20.1833 15.9505 20C16.5172 19.8 17.0422 19.5333 17.5255 19.2L18.1755 19.85C17.6088 20.2667 16.9672 20.5917 16.2505 20.825C15.5505 21.0583 14.8422 21.175 14.1255 21.175C12.8755 21.175 11.7255 20.875 10.6755 20.275C9.64216 19.6583 8.81716 18.8333 8.20049 17.8C7.60049 16.75 7.30049 15.6 7.30049 14.35V13.25H8.22549V14.35Z" fill="black"/>
</g>
<defs>
<clipPath id="clip0_3207_15605">
<rect width="24" height="24" fill="white"/>
</clipPath>
</defs>
</svg>
