<svg width="24" height="24" viewBox="0 0 24 24" fill="none" xmlns="http://www.w3.org/2000/svg">
<g clip-path="url(#clip0_3207_16239)">
<rect width="24" height="24" fill="white"/>
<path d="M12.6755 22.75C10.6255 22.75 8.92549 22.3583 7.57549 21.575C6.22549 20.7917 5.05049 19.5667 4.05049 17.9L2.10049 14.625C1.56716 13.725 1.42549 12.7917 1.67549 11.825C1.94216 10.8417 2.51716 10.05 3.40049 9.45C4.20049 8.91667 5.06716 8.675 6.00049 8.725C6.95049 8.775 7.73382 9.14167 8.35049 9.825L9.90049 11.525L8.00049 11.775V5.15C8.00049 3.93333 8.39216 2.94167 9.17549 2.175C9.95882 1.40833 10.9755 1.025 12.2255 1.025C13.4755 1.025 14.4922 1.40833 15.2755 2.175C16.0755 2.94167 16.4755 3.93333 16.4755 5.15V8.35L13.7005 7.05L16.3505 7.55C17.7172 7.81667 18.7505 8.34167 19.4505 9.125C20.1505 9.89167 20.5005 10.875 20.5005 12.075V15.2C20.5005 16.5833 20.1505 17.8583 19.4505 19.025C18.7672 20.175 17.8255 21.0833 16.6255 21.75C15.4255 22.4167 14.1088 22.75 12.6755 22.75ZM12.6755 19.2C13.4422 19.2 14.1422 19.025 14.7755 18.675C15.4255 18.3083 15.9422 17.8167 16.3255 17.2C16.7088 16.5833 16.9005 15.9167 16.9005 15.2V12.025C16.9005 11.7917 16.8338 11.6 16.7005 11.45C16.5672 11.3 16.4005 11.2083 16.2005 11.175L13.0505 10.475V5.175C13.0505 4.95833 12.9672 4.775 12.8005 4.625C12.6338 4.475 12.4422 4.4 12.2255 4.4C12.0255 4.4 11.8422 4.475 11.6755 4.625C11.5088 4.775 11.4255 4.95833 11.4255 5.175V11.5C11.4255 12.35 11.2088 13.025 10.7755 13.525C10.3588 14.025 9.82549 14.275 9.17549 14.275C8.54216 14.2583 7.93382 13.9667 7.35049 13.4L6.22549 12.325C6.07549 12.1917 5.90882 12.1167 5.72549 12.1C5.55882 12.0667 5.40882 12.1083 5.27549 12.225C5.17549 12.325 5.10049 12.4583 5.05049 12.625C5.01716 12.775 5.03382 12.9083 5.10049 13.025L7.02549 16.225C7.69216 17.325 8.43382 18.1 9.25049 18.55C10.0838 18.9833 11.2255 19.2 12.6755 19.2Z" fill="black"/>
</g>
<defs>
<clipPath id="clip0_3207_16239">
<rect width="24" height="24" fill="white"/>
</clipPath>
</defs>
</svg>
