<svg width="24" height="24" viewBox="0 0 24 24" fill="none" xmlns="http://www.w3.org/2000/svg">
<g clip-path="url(#clip0_3207_16447)">
<rect width="24" height="24" fill="white"/>
<path d="M12.6755 1.125C14.1088 1.125 15.4255 1.45833 16.6255 2.125C17.8255 2.79167 18.7672 3.70833 19.4505 4.875C20.1505 6.025 20.5005 7.29167 20.5005 8.675V11.8C20.5005 13 20.1505 13.9917 19.4505 14.775C18.7505 15.5417 17.7172 16.0583 16.3505 16.325L13.7005 16.825L16.4755 15.525V18.725C16.4755 19.9417 16.0755 20.9333 15.2755 21.7C14.4922 22.4667 13.4755 22.85 12.2255 22.85C10.9755 22.85 9.95882 22.4667 9.17549 21.7C8.39216 20.9333 8.00049 19.9417 8.00049 18.725V12.1L9.90049 12.35L8.35049 14.05C7.73382 14.7333 6.95049 15.1 6.00049 15.15C5.06716 15.2 4.20049 14.9583 3.40049 14.425C2.51716 13.825 1.94216 13.0417 1.67549 12.075C1.42549 11.0917 1.56716 10.15 2.10049 9.25L4.05049 5.975C5.05049 4.30833 6.22549 3.08333 7.57549 2.3C8.92549 1.51667 10.6255 1.125 12.6755 1.125ZM12.6755 4.675C11.2255 4.675 10.0838 4.9 9.25049 5.35C8.43382 5.78333 7.69216 6.55 7.02549 7.65L5.10049 10.85C5.03382 10.9667 5.01716 11.1083 5.05049 11.275C5.10049 11.425 5.17549 11.55 5.27549 11.65C5.40882 11.7667 5.55882 11.8167 5.72549 11.8C5.90882 11.7667 6.07549 11.6833 6.22549 11.55L7.35049 10.475C7.93382 9.90833 8.54216 9.625 9.17549 9.625C9.82549 9.60833 10.3588 9.85 10.7755 10.35C11.2088 10.85 11.4255 11.525 11.4255 12.375V18.7C11.4255 18.9167 11.5088 19.1 11.6755 19.25C11.8422 19.4 12.0255 19.475 12.2255 19.475C12.4422 19.475 12.6338 19.4 12.8005 19.25C12.9672 19.1 13.0505 18.9167 13.0505 18.7V13.4L16.2005 12.7C16.4005 12.65 16.5672 12.5583 16.7005 12.425C16.8338 12.275 16.9005 12.0833 16.9005 11.85V8.675C16.9005 7.95833 16.7088 7.29167 16.3255 6.675C15.9422 6.05833 15.4255 5.575 14.7755 5.225C14.1422 4.85833 13.4422 4.675 12.6755 4.675Z" fill="black"/>
</g>
<defs>
<clipPath id="clip0_3207_16447">
<rect width="24" height="24" fill="white"/>
</clipPath>
</defs>
</svg>
