<svg width="24" height="24" viewBox="0 0 24 24" fill="none" xmlns="http://www.w3.org/2000/svg">
<g clip-path="url(#clip0_3207_16235)">
<rect width="24" height="24" fill="white"/>
<path d="M12.8755 22.75C11.0922 22.75 9.51716 22.3417 8.15049 21.525C6.78382 20.725 5.63382 19.5167 4.70049 17.9L2.30049 13.825C1.85049 13.0583 1.72549 12.2833 1.92549 11.5C2.12549 10.7 2.58382 10.0583 3.30049 9.575C4.00049 9.10833 4.73382 8.925 5.50049 9.025C6.28382 9.125 6.94216 9.49167 7.47549 10.125L9.42549 12.425L8.35049 12.6V4.375C8.35049 3.425 8.66716 2.63333 9.30049 2C9.95049 1.35 10.7588 1.025 11.7255 1.025C12.6755 1.025 13.4755 1.35 14.1255 2C14.7755 2.63333 15.1005 3.425 15.1005 4.375V8.725L13.7005 7.5L17.0505 8.125C18.2005 8.34167 19.0588 8.79167 19.6255 9.475C20.2088 10.1417 20.5005 11.0333 20.5005 12.15V15.2C20.5005 16.5833 20.1588 17.8583 19.4755 19.025C18.8088 20.175 17.8922 21.0833 16.7255 21.75C15.5588 22.4167 14.2755 22.75 12.8755 22.75ZM12.8755 20.375C13.8255 20.375 14.6922 20.15 15.4755 19.7C16.2755 19.2333 16.9088 18.6083 17.3755 17.825C17.8422 17.0417 18.0755 16.1667 18.0755 15.2V12.15C18.0755 11.6667 17.9755 11.2917 17.7755 11.025C17.5755 10.7583 17.2422 10.5833 16.7755 10.5L12.7505 9.75V4.3C12.7505 4.01667 12.6505 3.78333 12.4505 3.6C12.2505 3.41667 12.0088 3.325 11.7255 3.325C11.4255 3.325 11.1755 3.41667 10.9755 3.6C10.7755 3.78333 10.6755 4.01667 10.6755 4.3V11.875C10.6755 12.5417 10.4755 13.075 10.0755 13.475C9.69216 13.875 9.22549 14.0667 8.67549 14.05C8.14216 14.0333 7.65882 13.7833 7.22549 13.3L5.82549 11.7C5.64216 11.5 5.44216 11.3833 5.22549 11.35C5.00882 11.3 4.79216 11.3417 4.57549 11.475C4.37549 11.6083 4.25882 11.7917 4.22549 12.025C4.20882 12.2583 4.27549 12.4917 4.42549 12.725L6.75049 16.725C7.50049 17.9917 8.36716 18.9167 9.35049 19.5C10.3505 20.0833 11.5255 20.375 12.8755 20.375Z" fill="black"/>
</g>
<defs>
<clipPath id="clip0_3207_16235">
<rect width="24" height="24" fill="white"/>
</clipPath>
</defs>
</svg>
