<svg width="24" height="24" viewBox="0 0 24 24" fill="none" xmlns="http://www.w3.org/2000/svg">
<g clip-path="url(#clip0_3207_16651)">
<rect width="24" height="24" fill="white"/>
<path d="M22.7505 12.85C22.7505 14.25 22.4172 15.5417 21.7505 16.725C21.0838 17.8917 20.1672 18.8167 19.0005 19.5C17.8505 20.1667 16.5838 20.5 15.2005 20.5H12.1505C11.0505 20.5 10.1505 20.2083 9.45049 19.625C8.76716 19.0417 8.31716 18.175 8.10049 17.025L7.50049 13.7L8.72549 15.125H4.40049C3.43382 15.125 2.62549 14.8 1.97549 14.15C1.34215 13.5 1.02549 12.6917 1.02549 11.725C1.02549 10.7583 1.34215 9.95 1.97549 9.3C2.62549 8.65 3.43382 8.325 4.40049 8.325H12.5755L12.4005 9.45L10.1005 7.5C9.46716 6.96667 9.10049 6.30833 9.00049 5.525C8.91716 4.725 9.10882 3.98333 9.57549 3.3C10.0588 2.58333 10.6922 2.125 11.4755 1.925C12.2755 1.725 13.0672 1.85 13.8505 2.3L17.8755 4.675C19.5088 5.625 20.7255 6.78333 21.5255 8.15C22.3422 9.5 22.7505 11.0667 22.7505 12.85ZM20.2755 12.85C20.2755 11.4833 19.9838 10.3 19.4005 9.3C18.8338 8.3 17.9255 7.43333 16.6755 6.7L12.7255 4.4C12.4922 4.26667 12.2672 4.21667 12.0505 4.25C11.8338 4.28333 11.6505 4.4 11.5005 4.6C11.3672 4.8 11.3172 5.01667 11.3505 5.25C11.4005 5.48333 11.5255 5.69167 11.7255 5.875L13.2255 7.2C13.7255 7.65 13.9838 8.15833 14.0005 8.725C14.0338 9.275 13.8505 9.74167 13.4505 10.125C13.0505 10.5083 12.5088 10.7 11.8255 10.7H4.32549C4.04216 10.7 3.80882 10.8 3.62549 11C3.45882 11.2 3.37549 11.4417 3.37549 11.725C3.37549 12.025 3.45882 12.275 3.62549 12.475C3.80882 12.675 4.04216 12.775 4.32549 12.775H9.80049L10.5505 16.75C10.6172 17.1833 10.7922 17.5167 11.0755 17.75C11.3588 17.9667 11.7172 18.075 12.1505 18.075H15.2005C16.1505 18.075 17.0088 17.85 17.7755 17.4C18.5422 16.9333 19.1505 16.3 19.6005 15.5C20.0505 14.7 20.2755 13.8167 20.2755 12.85Z" fill="black"/>
</g>
<defs>
<clipPath id="clip0_3207_16651">
<rect width="24" height="24" fill="white"/>
</clipPath>
</defs>
</svg>
