<svg width="24" height="24" viewBox="0 0 24 24" fill="none" xmlns="http://www.w3.org/2000/svg">
<g clip-path="url(#clip0_3207_16437)">
<rect width="24" height="24" fill="white"/>
<path d="M12.9505 1.125C14.3338 1.125 15.6005 1.45833 16.7505 2.125C17.9172 2.79167 18.8338 3.70833 19.5005 4.875C20.1672 6.025 20.5005 7.29167 20.5005 8.675V10.95C20.5005 12.0167 20.2338 12.8667 19.7005 13.5C19.1672 14.1333 18.3755 14.5417 17.3255 14.725L13.0005 15.5L13.4505 14.85V20.3C13.4505 21.0167 13.2005 21.6167 12.7005 22.1C12.2172 22.6 11.6172 22.85 10.9005 22.85C10.1838 22.85 9.57549 22.6 9.07549 22.1C8.59216 21.6167 8.35049 21.0167 8.35049 20.3V10.15L8.75049 10.225L5.80049 13.35C5.36716 13.8167 4.85882 14.0917 4.27549 14.175C3.69216 14.2417 3.14216 14.1 2.62549 13.75C2.10882 13.4167 1.79215 12.975 1.67549 12.425C1.57549 11.8583 1.68382 11.2917 2.00049 10.725L4.72549 6.05C5.69216 4.4 6.85882 3.16667 8.22549 2.35C9.59216 1.53333 11.1672 1.125 12.9505 1.125ZM12.9505 2.05C11.3505 2.05 9.93382 2.41667 8.70049 3.15C7.48382 3.88333 6.44216 5 5.57549 6.5L2.85049 11.175C2.66716 11.5083 2.60049 11.8417 2.65049 12.175C2.70049 12.5083 2.86716 12.7833 3.15049 13C3.46716 13.2167 3.80049 13.3 4.15049 13.25C4.50049 13.2 4.80882 13.025 5.07549 12.725L7.67549 10C7.87549 9.78333 8.10049 9.675 8.35049 9.675C8.61716 9.65833 8.84216 9.74167 9.02549 9.925C9.20882 10.1083 9.30049 10.3417 9.30049 10.625V20.325C9.30049 20.775 9.45049 21.15 9.75049 21.45C10.0672 21.7667 10.4505 21.925 10.9005 21.925C11.3505 21.925 11.7255 21.7667 12.0255 21.45C12.3422 21.15 12.5005 20.775 12.5005 20.325V14.65L17.2005 13.8C18.0005 13.6667 18.5838 13.3667 18.9505 12.9C19.3338 12.4333 19.5255 11.8 19.5255 11V8.675C19.5255 7.45833 19.2338 6.34167 18.6505 5.325C18.0672 4.30833 17.2755 3.50833 16.2755 2.925C15.2755 2.34167 14.1672 2.05 12.9505 2.05Z" fill="black"/>
</g>
<defs>
<clipPath id="clip0_3207_16437">
<rect width="24" height="24" fill="white"/>
</clipPath>
</defs>
</svg>
