<svg width="24" height="24" viewBox="0 0 24 24" fill="none" xmlns="http://www.w3.org/2000/svg">
<g clip-path="url(#clip0_3207_15873)">
<rect width="24" height="24" fill="white"/>
<path d="M2.00049 11.675C2.00049 10.875 2.27549 10.225 2.82549 9.725C3.37549 9.20833 4.08382 8.95 4.95049 8.95C5.81716 8.95 6.52549 9.20833 7.07549 9.725C7.62549 10.225 7.90049 10.875 7.90049 11.675V20H2.00049V11.675ZM5.65049 11.675C5.65049 11.525 5.58382 11.4 5.45049 11.3C5.33382 11.2 5.16716 11.15 4.95049 11.15C4.73382 11.15 4.55882 11.2 4.42549 11.3C4.30882 11.4 4.25049 11.525 4.25049 11.675V17.8H5.65049V11.675ZM16.1005 11.675C16.1005 10.875 16.3755 10.225 16.9255 9.725C17.4755 9.20833 18.1838 8.95 19.0505 8.95C19.9172 8.95 20.6255 9.20833 21.1755 9.725C21.7255 10.225 22.0005 10.875 22.0005 11.675V20H16.1005V11.675ZM19.7505 11.675C19.7505 11.5083 19.6838 11.3833 19.5505 11.3C19.4338 11.2 19.2672 11.15 19.0505 11.15C18.8338 11.15 18.6588 11.2 18.5255 11.3C18.4088 11.3833 18.3505 11.5083 18.3505 11.675V17.8H19.7505V11.675ZM9.05049 11.675C9.05049 10.875 9.32549 10.225 9.87549 9.725C10.4255 9.20833 11.1338 8.95 12.0005 8.95C12.8672 8.95 13.5755 9.20833 14.1255 9.725C14.6755 10.225 14.9505 10.875 14.9505 11.675V20H9.05049V11.675ZM12.7005 11.675C12.7005 11.525 12.6338 11.4 12.5005 11.3C12.3838 11.2 12.2172 11.15 12.0005 11.15C11.7838 11.15 11.6088 11.2 11.4755 11.3C11.3588 11.4 11.3005 11.525 11.3005 11.675V17.8H12.7005V11.675ZM4.95049 8.125C4.35049 8.125 3.84216 7.91667 3.42549 7.5C3.02549 7.08333 2.82549 6.575 2.82549 5.975C2.82549 5.39167 3.02549 4.9 3.42549 4.5C3.84216 4.08333 4.35049 3.875 4.95049 3.875C5.55049 3.875 6.05049 4.08333 6.45049 4.5C6.86716 4.9 7.07549 5.39167 7.07549 5.975C7.07549 6.575 6.86716 7.08333 6.45049 7.5C6.05049 7.91667 5.55049 8.125 4.95049 8.125ZM4.95049 5.675C5.13382 5.675 5.26716 5.675 5.35049 5.675C5.45049 5.675 5.58382 5.675 5.75049 5.675C5.56716 5.675 5.42549 5.675 5.32549 5.675C5.24216 5.675 5.11716 5.675 4.95049 5.675C4.76716 5.675 4.62549 5.675 4.52549 5.675C4.44216 5.675 4.31716 5.675 4.15049 5.675C4.33382 5.675 4.46716 5.675 4.55049 5.675C4.65049 5.675 4.78382 5.675 4.95049 5.675ZM19.0505 8.125C18.4505 8.125 17.9422 7.91667 17.5255 7.5C17.1255 7.08333 16.9255 6.575 16.9255 5.975C16.9255 5.39167 17.1255 4.9 17.5255 4.5C17.9422 4.08333 18.4505 3.875 19.0505 3.875C19.6505 3.875 20.1505 4.08333 20.5505 4.5C20.9672 4.9 21.1755 5.39167 21.1755 5.975C21.1755 6.575 20.9672 7.08333 20.5505 7.5C20.1505 7.91667 19.6505 8.125 19.0505 8.125ZM19.0505 5.675C19.2338 5.675 19.3672 5.675 19.4505 5.675C19.5505 5.675 19.6838 5.675 19.8505 5.675C19.6672 5.675 19.5255 5.675 19.4255 5.675C19.3422 5.675 19.2172 5.675 19.0505 5.675C18.8672 5.675 18.7255 5.675 18.6255 5.675C18.5422 5.675 18.4172 5.675 18.2505 5.675C18.4338 5.675 18.5672 5.675 18.6505 5.675C18.7505 5.675 18.8838 5.675 19.0505 5.675ZM12.0005 8.125C11.4005 8.125 10.8922 7.91667 10.4755 7.5C10.0755 7.08333 9.87549 6.575 9.87549 5.975C9.87549 5.39167 10.0755 4.9 10.4755 4.5C10.8922 4.08333 11.4005 3.875 12.0005 3.875C12.6005 3.875 13.1005 4.08333 13.5005 4.5C13.9172 4.9 14.1255 5.39167 14.1255 5.975C14.1255 6.575 13.9172 7.08333 13.5005 7.5C13.1005 7.91667 12.6005 8.125 12.0005 8.125ZM12.0005 5.675C12.1838 5.675 12.3172 5.675 12.4005 5.675C12.5005 5.675 12.6338 5.675 12.8005 5.675C12.6172 5.675 12.4755 5.675 12.3755 5.675C12.2922 5.675 12.1672 5.675 12.0005 5.675C11.8172 5.675 11.6755 5.675 11.5755 5.675C11.4922 5.675 11.3672 5.675 11.2005 5.675C11.3838 5.675 11.5172 5.675 11.6005 5.675C11.7005 5.675 11.8338 5.675 12.0005 5.675Z" fill="black"/>
</g>
<defs>
<clipPath id="clip0_3207_15873">
<rect width="24" height="24" fill="white"/>
</clipPath>
</defs>
</svg>
