<svg width="24" height="24" viewBox="0 0 24 24" fill="none" xmlns="http://www.w3.org/2000/svg">
<g clip-path="url(#clip0_3321_9798)">
<rect width="24" height="24" fill="white"/>
<path d="M7.25049 10.725C6.56716 10.725 5.95049 10.575 5.40049 10.275C4.85049 9.95833 4.41716 9.53333 4.10049 9C3.78382 8.45 3.62549 7.83333 3.62549 7.15C3.62549 6.46667 3.78382 5.85833 4.10049 5.325C4.41716 4.775 4.85049 4.35 5.40049 4.05C5.95049 3.73333 6.56716 3.575 7.25049 3.575C7.93382 3.575 8.55049 3.73333 9.10049 4.05C9.66716 4.35 10.1005 4.775 10.4005 5.325C10.7172 5.85833 10.8755 6.46667 10.8755 7.15C10.8755 7.83333 10.7172 8.45 10.4005 9C10.1005 9.53333 9.66716 9.95833 9.10049 10.275C8.55049 10.575 7.93382 10.725 7.25049 10.725ZM7.27549 8.3C7.60882 8.3 7.88382 8.19167 8.10049 7.975C8.33382 7.74167 8.45049 7.46667 8.45049 7.15C8.45049 6.81667 8.33382 6.54167 8.10049 6.325C7.88382 6.10833 7.60882 6 7.27549 6C6.94216 6 6.65882 6.11667 6.42549 6.35C6.19216 6.56667 6.07549 6.83333 6.07549 7.15C6.07549 7.48333 6.19216 7.75833 6.42549 7.975C6.65882 8.19167 6.94216 8.3 7.27549 8.3ZM16.8005 10.725C16.1172 10.725 15.4922 10.575 14.9255 10.275C14.3755 9.95833 13.9422 9.53333 13.6255 9C13.3255 8.45 13.1755 7.83333 13.1755 7.15C13.1755 6.46667 13.3255 5.85833 13.6255 5.325C13.9422 4.775 14.3755 4.35 14.9255 4.05C15.4922 3.73333 16.1172 3.575 16.8005 3.575C17.4838 3.575 18.1005 3.73333 18.6505 4.05C19.2005 4.35 19.6338 4.775 19.9505 5.325C20.2672 5.85833 20.4255 6.46667 20.4255 7.15C20.4255 7.83333 20.2672 8.45 19.9505 9C19.6338 9.53333 19.2005 9.95833 18.6505 10.275C18.1005 10.575 17.4838 10.725 16.8005 10.725ZM16.8005 8.3C17.1338 8.3 17.4172 8.19167 17.6505 7.975C17.8838 7.74167 18.0005 7.46667 18.0005 7.15C18.0005 6.81667 17.8838 6.54167 17.6505 6.325C17.4172 6.10833 17.1338 6 16.8005 6C16.4672 6 16.1838 6.11667 15.9505 6.35C15.7172 6.56667 15.6005 6.83333 15.6005 7.15C15.6005 7.48333 15.7172 7.75833 15.9505 7.975C16.1838 8.19167 16.4672 8.3 16.8005 8.3ZM1.00049 16.7C1.00049 15.7167 1.25049 14.8583 1.75049 14.125C2.26716 13.3917 3.00049 12.825 3.95049 12.425C4.90049 12.025 6.00049 11.825 7.25049 11.825C8.65049 11.825 9.79216 12.05 10.6755 12.5C11.5755 12.9333 12.2255 13.5083 12.6255 14.225C13.0422 14.9417 13.2505 15.7083 13.2505 16.525L13.2005 20H1.00049V16.7ZM10.5505 17.125V16.55C10.5505 16.1667 10.4172 15.8417 10.1505 15.575C9.90049 15.2917 9.52549 15.0833 9.02549 14.95C8.52549 14.8 7.93382 14.725 7.25049 14.725C6.55049 14.725 5.95049 14.8 5.45049 14.95C4.96716 15.0833 4.60049 15.2917 4.35049 15.575C4.11716 15.8417 4.00049 16.1667 4.00049 16.55V17.125H10.5505ZM10.7505 16.525C10.7338 15.7083 10.9338 14.9417 11.3505 14.225C11.7672 13.5083 12.4255 12.9333 13.3255 12.5C14.2422 12.05 15.4088 11.825 16.8255 11.825C18.0588 11.825 19.1422 12.025 20.0755 12.425C21.0088 12.825 21.7255 13.3917 22.2255 14.125C22.7255 14.8583 22.9755 15.7167 22.9755 16.7V20H10.7755L10.7505 16.525ZM19.9755 17.125V16.55C19.9755 16.1667 19.8505 15.8417 19.6005 15.575C19.3672 15.2917 19.0088 15.0833 18.5255 14.95C18.0588 14.8 17.4922 14.725 16.8255 14.725C16.1255 14.725 15.5172 14.8 15.0005 14.95C14.5005 15.0833 14.1172 15.2917 13.8505 15.575C13.6005 15.8417 13.4755 16.1667 13.4755 16.55V17.125H19.9755Z" fill="black"/>
</g>
<defs>
<clipPath id="clip0_3321_9798">
<rect width="24" height="24" fill="white"/>
</clipPath>
</defs>
</svg>
