<svg width="24" height="24" viewBox="0 0 24 24" fill="none" xmlns="http://www.w3.org/2000/svg">
<g clip-path="url(#clip0_3207_15260)">
<rect width="24" height="24" fill="white"/>
<path d="M2.00049 11.725C2.00049 11.025 2.25049 10.45 2.75049 10C3.25049 9.55 3.88382 9.325 4.65049 9.325C5.41716 9.325 6.05049 9.55 6.55049 10C7.05049 10.45 7.30049 11.025 7.30049 11.725V20H2.00049V11.725ZM6.82549 11.725C6.82549 11.1583 6.61716 10.6917 6.20049 10.325C5.80049 9.95833 5.28382 9.775 4.65049 9.775C4.01716 9.775 3.49216 9.95833 3.07549 10.325C2.67549 10.6917 2.47549 11.1583 2.47549 11.725V19.55H6.82549V11.725ZM16.7005 11.75C16.7005 11.05 16.9505 10.475 17.4505 10.025C17.9505 9.575 18.5838 9.35 19.3505 9.35C20.1172 9.35 20.7505 9.575 21.2505 10.025C21.7505 10.475 22.0005 11.05 22.0005 11.75V20H16.7005V11.75ZM21.5255 11.75C21.5255 11.1833 21.3172 10.7167 20.9005 10.35C20.5005 9.98333 19.9838 9.8 19.3505 9.8C18.7172 9.8 18.1922 9.98333 17.7755 10.35C17.3755 10.7167 17.1755 11.1833 17.1755 11.75V19.55H21.5255V11.75ZM9.35049 11.725C9.35049 11.025 9.60049 10.45 10.1005 10C10.6005 9.55 11.2338 9.325 12.0005 9.325C12.7672 9.325 13.4005 9.55 13.9005 10C14.4005 10.45 14.6505 11.025 14.6505 11.725V20H9.35049V11.725ZM14.1755 11.725C14.1755 11.1583 13.9672 10.6917 13.5505 10.325C13.1505 9.95833 12.6338 9.775 12.0005 9.775C11.3672 9.775 10.8422 9.95833 10.4255 10.325C10.0255 10.6917 9.82549 11.1583 9.82549 11.725V19.55H14.1755V11.725ZM4.65049 8.075C4.06716 8.075 3.56716 7.875 3.15049 7.475C2.73382 7.05833 2.52549 6.55833 2.52549 5.975C2.52549 5.39167 2.73382 4.9 3.15049 4.5C3.56716 4.08333 4.06716 3.875 4.65049 3.875C5.23382 3.875 5.73382 4.08333 6.15049 4.5C6.56716 4.9 6.77549 5.39167 6.77549 5.975C6.77549 6.55833 6.56716 7.05833 6.15049 7.475C5.73382 7.875 5.23382 8.075 4.65049 8.075ZM4.65049 7.625C5.11716 7.625 5.50882 7.46667 5.82549 7.15C6.14216 6.83333 6.30049 6.44167 6.30049 5.975C6.30049 5.525 6.14216 5.14167 5.82549 4.825C5.50882 4.49167 5.11716 4.325 4.65049 4.325C4.18382 4.325 3.79216 4.49167 3.47549 4.825C3.15882 5.14167 3.00049 5.525 3.00049 5.975C3.00049 6.44167 3.15882 6.83333 3.47549 7.15C3.79216 7.46667 4.18382 7.625 4.65049 7.625ZM19.3505 8.1C18.7672 8.1 18.2672 7.9 17.8505 7.5C17.4338 7.08333 17.2255 6.58333 17.2255 6C17.2255 5.41667 17.4338 4.925 17.8505 4.525C18.2672 4.10833 18.7672 3.9 19.3505 3.9C19.9338 3.9 20.4338 4.10833 20.8505 4.525C21.2672 4.925 21.4755 5.41667 21.4755 6C21.4755 6.58333 21.2672 7.08333 20.8505 7.5C20.4338 7.9 19.9338 8.1 19.3505 8.1ZM19.3505 7.65C19.8172 7.65 20.2088 7.49167 20.5255 7.175C20.8422 6.85833 21.0005 6.46667 21.0005 6C21.0005 5.55 20.8422 5.16667 20.5255 4.85C20.2088 4.51667 19.8172 4.35 19.3505 4.35C18.8838 4.35 18.4922 4.51667 18.1755 4.85C17.8588 5.16667 17.7005 5.55 17.7005 6C17.7005 6.46667 17.8588 6.85833 18.1755 7.175C18.4922 7.49167 18.8838 7.65 19.3505 7.65ZM12.0005 8.075C11.4172 8.075 10.9172 7.875 10.5005 7.475C10.0838 7.05833 9.87549 6.55833 9.87549 5.975C9.87549 5.39167 10.0838 4.9 10.5005 4.5C10.9172 4.08333 11.4172 3.875 12.0005 3.875C12.5838 3.875 13.0838 4.08333 13.5005 4.5C13.9172 4.9 14.1255 5.39167 14.1255 5.975C14.1255 6.55833 13.9172 7.05833 13.5005 7.475C13.0838 7.875 12.5838 8.075 12.0005 8.075ZM12.0005 7.625C12.4672 7.625 12.8588 7.46667 13.1755 7.15C13.4922 6.83333 13.6505 6.44167 13.6505 5.975C13.6505 5.525 13.4922 5.14167 13.1755 4.825C12.8588 4.49167 12.4672 4.325 12.0005 4.325C11.5338 4.325 11.1422 4.49167 10.8255 4.825C10.5088 5.14167 10.3505 5.525 10.3505 5.975C10.3505 6.44167 10.5088 6.83333 10.8255 7.15C11.1422 7.46667 11.5338 7.625 12.0005 7.625Z" fill="black"/>
</g>
<defs>
<clipPath id="clip0_3207_15260">
<rect width="24" height="24" fill="white"/>
</clipPath>
</defs>
</svg>
