<svg width="24" height="24" viewBox="0 0 24 24" fill="none" xmlns="http://www.w3.org/2000/svg">
<g clip-path="url(#clip0_3207_15479)">
<rect width="24" height="24" fill="white"/>
<path d="M7.00049 10.525C6.36716 10.525 5.77549 10.375 5.22549 10.075C4.69216 9.75833 4.26716 9.33333 3.95049 8.8C3.65049 8.26667 3.50049 7.68333 3.50049 7.05C3.50049 6.41667 3.65049 5.83333 3.95049 5.3C4.26716 4.76667 4.69216 4.35 5.22549 4.05C5.77549 3.73333 6.36716 3.575 7.00049 3.575C7.63382 3.575 8.21716 3.73333 8.75049 4.05C9.30049 4.35 9.72549 4.76667 10.0255 5.3C10.3422 5.83333 10.5005 6.41667 10.5005 7.05C10.5005 7.68333 10.3422 8.26667 10.0255 8.8C9.72549 9.33333 9.30049 9.75833 8.75049 10.075C8.21716 10.375 7.63382 10.525 7.00049 10.525ZM7.00049 8.775C7.48382 8.775 7.89216 8.60833 8.22549 8.275C8.55882 7.94167 8.72549 7.53333 8.72549 7.05C8.72549 6.56667 8.55882 6.15833 8.22549 5.825C7.89216 5.49167 7.48382 5.325 7.00049 5.325C6.51716 5.325 6.10882 5.49167 5.77549 5.825C5.44216 6.15833 5.27549 6.56667 5.27549 7.05C5.27549 7.53333 5.44216 7.94167 5.77549 8.275C6.10882 8.60833 6.51716 8.775 7.00049 8.775ZM17.0005 10.525C16.3672 10.525 15.7755 10.375 15.2255 10.075C14.6922 9.75833 14.2672 9.33333 13.9505 8.8C13.6505 8.26667 13.5005 7.68333 13.5005 7.05C13.5005 6.41667 13.6505 5.83333 13.9505 5.3C14.2672 4.76667 14.6922 4.35 15.2255 4.05C15.7755 3.73333 16.3672 3.575 17.0005 3.575C17.6338 3.575 18.2172 3.73333 18.7505 4.05C19.3005 4.35 19.7255 4.76667 20.0255 5.3C20.3422 5.83333 20.5005 6.41667 20.5005 7.05C20.5005 7.68333 20.3422 8.26667 20.0255 8.8C19.7255 9.33333 19.3005 9.75833 18.7505 10.075C18.2172 10.375 17.6338 10.525 17.0005 10.525ZM17.0005 8.775C17.4838 8.775 17.8922 8.60833 18.2255 8.275C18.5588 7.94167 18.7255 7.53333 18.7255 7.05C18.7255 6.56667 18.5588 6.15833 18.2255 5.825C17.8922 5.49167 17.4838 5.325 17.0005 5.325C16.5172 5.325 16.1088 5.49167 15.7755 5.825C15.4422 6.15833 15.2755 6.56667 15.2755 7.05C15.2755 7.53333 15.4422 7.94167 15.7755 8.275C16.1088 8.60833 16.5172 8.775 17.0005 8.775ZM1.00049 17.075C1.00049 16.0417 1.24216 15.1417 1.72549 14.375C2.22549 13.6083 2.92549 13.025 3.82549 12.625C4.72549 12.2083 5.77549 12 6.97549 12C8.17549 12 9.20882 12.2083 10.0755 12.625C10.9588 13.025 11.6338 13.6083 12.1005 14.375C12.5838 15.1417 12.8255 16.0417 12.8255 17.075V20H1.00049V17.075ZM11.0755 18.15V17.075C11.0755 16.4083 10.9172 15.8333 10.6005 15.35C10.3005 14.8667 9.84216 14.5 9.22549 14.25C8.60882 13.9833 7.85882 13.85 6.97549 13.85C6.00882 13.85 5.22549 13.9833 4.62549 14.25C4.02549 14.5 3.58382 14.8667 3.30049 15.35C3.03382 15.8167 2.90049 16.3917 2.90049 17.075V18.15H11.0755ZM11.2005 17.075C11.2005 16.0417 11.4338 15.1417 11.9005 14.375C12.3672 13.6083 13.0338 13.025 13.9005 12.625C14.7838 12.2083 15.8255 12 17.0255 12C18.2255 12 19.2755 12.2083 20.1755 12.625C21.0755 13.025 21.7672 13.6083 22.2505 14.375C22.7505 15.1417 23.0005 16.0417 23.0005 17.075V20H11.2005V17.075ZM21.1005 18.15V17.075C21.1005 16.4083 20.9422 15.8333 20.6255 15.35C20.3255 14.8667 19.8672 14.5 19.2505 14.25C18.6505 13.9833 17.9088 13.85 17.0255 13.85C16.1422 13.85 15.3922 13.9833 14.7755 14.25C14.1755 14.5 13.7255 14.8667 13.4255 15.35C13.1255 15.8333 12.9755 16.4083 12.9755 17.075V18.15H21.1005Z" fill="black"/>
</g>
<defs>
<clipPath id="clip0_3207_15479">
<rect width="24" height="24" fill="white"/>
</clipPath>
</defs>
</svg>
