<svg width="24" height="24" viewBox="0 0 24 24" fill="none" xmlns="http://www.w3.org/2000/svg">
<g clip-path="url(#clip0_3321_9800)">
<rect width="24" height="24" fill="white"/>
<path d="M7.40049 10.825C6.68382 10.825 6.04216 10.675 5.47549 10.375C4.92549 10.0583 4.49216 9.625 4.17549 9.075C3.85882 8.525 3.70049 7.9 3.70049 7.2C3.70049 6.5 3.85882 5.875 4.17549 5.325C4.49216 4.775 4.92549 4.35 5.47549 4.05C6.04216 3.73333 6.68382 3.575 7.40049 3.575C8.10049 3.575 8.72549 3.73333 9.27549 4.05C9.84216 4.35 10.2838 4.775 10.6005 5.325C10.9172 5.875 11.0755 6.5 11.0755 7.2C11.0755 7.9 10.9172 8.525 10.6005 9.075C10.2838 9.625 9.84216 10.0583 9.27549 10.375C8.72549 10.675 8.10049 10.825 7.40049 10.825ZM7.40049 8.075C7.66716 8.075 7.88382 7.99167 8.05049 7.825C8.23382 7.65833 8.32549 7.45 8.32549 7.2C8.32549 6.95 8.23382 6.74167 8.05049 6.575C7.88382 6.40833 7.66716 6.325 7.40049 6.325C7.13382 6.325 6.90882 6.40833 6.72549 6.575C6.55882 6.74167 6.47549 6.95 6.47549 7.2C6.47549 7.45 6.55882 7.65833 6.72549 7.825C6.90882 7.99167 7.13382 8.075 7.40049 8.075ZM16.7005 10.825C15.9838 10.825 15.3422 10.675 14.7755 10.375C14.2255 10.0583 13.7922 9.625 13.4755 9.075C13.1588 8.525 13.0005 7.9 13.0005 7.2C13.0005 6.5 13.1588 5.875 13.4755 5.325C13.7922 4.775 14.2255 4.35 14.7755 4.05C15.3422 3.73333 15.9838 3.575 16.7005 3.575C17.4005 3.575 18.0255 3.73333 18.5755 4.05C19.1422 4.35 19.5838 4.775 19.9005 5.325C20.2172 5.875 20.3755 6.5 20.3755 7.2C20.3755 7.9 20.2172 8.525 19.9005 9.075C19.5838 9.625 19.1422 10.0583 18.5755 10.375C18.0255 10.675 17.4005 10.825 16.7005 10.825ZM16.7005 8.075C16.9672 8.075 17.1838 7.99167 17.3505 7.825C17.5338 7.65833 17.6255 7.45 17.6255 7.2C17.6255 6.95 17.5338 6.74167 17.3505 6.575C17.1838 6.40833 16.9672 6.325 16.7005 6.325C16.4338 6.325 16.2088 6.40833 16.0255 6.575C15.8588 6.74167 15.7755 6.95 15.7755 7.2C15.7755 7.45 15.8588 7.65833 16.0255 7.825C16.2088 7.99167 16.4338 8.075 16.7005 8.075ZM1.00049 16.4C1.00049 15.4333 1.25882 14.6 1.77549 13.9C2.29216 13.1833 3.03382 12.6333 4.00049 12.25C4.96716 11.85 6.10049 11.65 7.40049 11.65C8.88382 11.65 10.0755 11.8833 10.9755 12.35C11.8922 12.8 12.5338 13.3667 12.9005 14.05C13.2838 14.7333 13.4672 15.4333 13.4505 16.15L13.4005 20H1.00049V16.4ZM10.2755 16.6V16.2C10.2755 15.9667 10.1588 15.7667 9.92549 15.6C9.69216 15.4167 9.35882 15.2833 8.92549 15.2C8.49216 15.1 7.98382 15.05 7.40049 15.05C6.81716 15.05 6.30882 15.1 5.87549 15.2C5.44216 15.2833 5.10882 15.4167 4.87549 15.6C4.65882 15.7667 4.55049 15.9667 4.55049 16.2V16.6H10.2755ZM10.5255 16.15C10.5088 15.4333 10.6922 14.7333 11.0755 14.05C11.4588 13.3667 12.1088 12.8 13.0255 12.35C13.9588 11.8833 15.1922 11.65 16.7255 11.65C17.9922 11.65 19.0922 11.85 20.0255 12.25C20.9755 12.6333 21.7005 13.1833 22.2005 13.9C22.7172 14.6 22.9755 15.4333 22.9755 16.4V20H10.5755L10.5255 16.15ZM19.4255 16.6V16.2C19.4255 15.9667 19.3172 15.7667 19.1005 15.6C18.8838 15.4167 18.5672 15.2833 18.1505 15.2C17.7505 15.1 17.2755 15.05 16.7255 15.05C16.1088 15.05 15.5755 15.1 15.1255 15.2C14.6755 15.2833 14.3255 15.4167 14.0755 15.6C13.8422 15.7667 13.7255 15.9667 13.7255 16.2V16.6H19.4255Z" fill="black"/>
</g>
<defs>
<clipPath id="clip0_3321_9800">
<rect width="24" height="24" fill="white"/>
</clipPath>
</defs>
</svg>
