<svg width="24" height="24" viewBox="0 0 24 24" fill="none" xmlns="http://www.w3.org/2000/svg">
<g clip-path="url(#clip0_3207_16677)">
<rect width="24" height="24" fill="white"/>
<path d="M19.1505 13.05C20.0005 13.05 20.7338 13.325 21.3505 13.875C21.9672 14.4083 22.3422 15.1417 22.4755 16.075C22.5588 16.5417 22.4838 16.9833 22.2505 17.4C22.0338 17.8 21.7172 18.075 21.3005 18.225L13.5005 21H2.00049V14L8.35049 11.075H12.6755C13.2422 11.075 13.7588 11.2167 14.2255 11.5C14.6922 11.7667 15.0588 12.1333 15.3255 12.6C15.5922 13.0667 15.7255 13.575 15.7255 14.125C15.7255 14.6917 15.5922 15.2167 15.3255 15.7C15.0588 16.1667 14.6922 16.5417 14.2255 16.825C13.7588 17.0917 13.2422 17.225 12.6755 17.225H9.00049V15.075H12.6755C12.9422 15.075 13.1588 14.9917 13.3255 14.825C13.5088 14.6417 13.6005 14.4083 13.6005 14.125C13.6005 13.875 13.5088 13.6667 13.3255 13.5C13.1588 13.3167 12.9422 13.225 12.6755 13.225H8.77549L4.17549 15.35V18.875H13.1255L20.3505 16.325C20.2672 15.9583 20.1172 15.675 19.9005 15.475C19.7005 15.275 19.4505 15.175 19.1505 15.175H13.9005L14.0505 13.05H19.1505ZM12.0005 10.025C11.3838 10.025 10.8172 9.88333 10.3005 9.6C9.78382 9.3 9.37549 8.89167 9.07549 8.375C8.77549 7.85833 8.62549 7.29167 8.62549 6.675C8.62549 5.725 8.90882 4.75833 9.47549 3.775C10.0588 2.775 10.9005 1.81667 12.0005 0.899999C13.1005 1.81667 13.9338 2.775 14.5005 3.775C15.0838 4.75833 15.3755 5.725 15.3755 6.675C15.3755 7.29167 15.2255 7.85833 14.9255 8.375C14.6255 8.89167 14.2172 9.3 13.7005 9.6C13.1838 9.88333 12.6172 10.025 12.0005 10.025ZM12.0005 8.15C12.4172 8.15 12.7755 8.00833 13.0755 7.725C13.3755 7.44167 13.5255 7.1 13.5255 6.7C13.5255 6.13333 13.3672 5.54167 13.0505 4.925C12.7338 4.29167 12.2755 3.68333 11.6755 3.1H12.3255C11.7255 3.68333 11.2672 4.29167 10.9505 4.925C10.6338 5.54167 10.4755 6.13333 10.4755 6.7C10.4755 7.1 10.6255 7.44167 10.9255 7.725C11.2255 8.00833 11.5838 8.15 12.0005 8.15Z" fill="black"/>
</g>
<defs>
<clipPath id="clip0_3207_16677">
<rect width="24" height="24" fill="white"/>
</clipPath>
</defs>
</svg>
