<svg width="24" height="24" viewBox="0 0 24 24" fill="none" xmlns="http://www.w3.org/2000/svg">
<g clip-path="url(#clip0_3207_16685)">
<rect width="24" height="24" fill="white"/>
<path d="M12 9.4C11.1667 9.4 10.4583 9.11667 9.875 8.55C9.30833 7.96667 9.025 7.25833 9.025 6.425C9.025 5.625 9.28333 4.75 9.8 3.8C10.3167 2.85 11.05 1.88333 12 0.899999C12.95 1.9 13.6833 2.875 14.2 3.825C14.7167 4.775 14.975 5.64167 14.975 6.425C14.975 7.25833 14.6833 7.96667 14.1 8.55C13.5333 9.11667 12.8333 9.4 12 9.4ZM20.375 15.05C20.8583 14.9833 21.275 15.05 21.625 15.25C21.975 15.4333 22.1917 15.7167 22.275 16.1L22.675 17.775L13.05 21H2V14.275L8.35 12.025H14.075C14.5083 12.025 14.8667 12.1667 15.15 12.45C15.4333 12.7333 15.575 13.0917 15.575 13.525C15.575 13.925 15.425 14.2667 15.125 14.55C14.8417 14.8333 14.4917 14.975 14.075 14.975H9.825C9.69167 14.975 9.575 15.0167 9.475 15.1C9.39167 15.1833 9.35 15.3 9.35 15.45C9.35 15.5833 9.39167 15.7 9.475 15.8C9.575 15.9 9.69167 15.95 9.825 15.95H14.075L20.375 15.05Z" fill="black"/>
</g>
<defs>
<clipPath id="clip0_3207_16685">
<rect width="24" height="24" fill="white"/>
</clipPath>
</defs>
</svg>
