<svg width="24" height="24" viewBox="0 0 24 24" fill="none" xmlns="http://www.w3.org/2000/svg">
<g clip-path="url(#clip0_3207_16695)">
<rect width="24" height="24" fill="white"/>
<path d="M12 8.25C11.2833 8.25 10.675 8 10.175 7.5C9.675 7 9.425 6.39167 9.425 5.675C9.425 4.95833 9.65 4.16667 10.1 3.3C10.5667 2.43333 11.2 1.63333 12 0.899999C12.8 1.65 13.425 2.45833 13.875 3.325C14.3417 4.19167 14.575 4.975 14.575 5.675C14.575 6.39167 14.325 7 13.825 7.5C13.3417 8 12.7333 8.25 12 8.25ZM20.375 15.05C20.8583 14.9833 21.275 15.05 21.625 15.25C21.975 15.4333 22.1917 15.7167 22.275 16.1L22.675 17.775L13.05 21H2V12.75L8.35 10.5H13.825C14.3083 10.5 14.7167 10.675 15.05 11.025C15.4 11.3583 15.575 11.7667 15.575 12.25C15.575 12.7167 15.4 13.1167 15.05 13.45C14.7167 13.7833 14.3083 13.95 13.825 13.95H10.325C10.0583 13.95 9.825 14.0417 9.625 14.225C9.44167 14.4083 9.35 14.6417 9.35 14.925C9.35 15.2083 9.44167 15.45 9.625 15.65C9.825 15.85 10.0583 15.95 10.325 15.95H14.075L20.375 15.05Z" fill="black"/>
</g>
<defs>
<clipPath id="clip0_3207_16695">
<rect width="24" height="24" fill="white"/>
</clipPath>
</defs>
</svg>
