<svg width="24" height="24" viewBox="0 0 24 24" fill="none" xmlns="http://www.w3.org/2000/svg">
<g clip-path="url(#clip0_3351_875)">
<rect width="24" height="24" fill="white"/>
<path d="M13.0755 22.5C11.0755 22.5 9.33382 22.0833 7.85049 21.25C6.36716 20.4167 5.10049 19.1083 4.05049 17.325L1.77549 13.475C1.30882 12.7083 1.17549 11.8917 1.37549 11.025C1.59216 10.1583 2.07549 9.48333 2.82549 9C3.52549 8.55 4.29216 8.35833 5.12549 8.425C5.95882 8.475 6.60882 8.8 7.07549 9.4L9.15049 12.025L6.12549 10.05V5.675C6.12549 5.04167 6.28382 4.46667 6.60049 3.95C6.93382 3.41667 7.37549 3 7.92549 2.7C8.49216 2.38333 9.10882 2.225 9.77549 2.225C10.3255 2.225 10.8338 2.38333 11.3005 2.7C11.7672 3 12.1338 3.425 12.4005 3.975C12.6838 4.50833 12.8255 5.09167 12.8255 5.725L10.5255 4.5C10.5255 3.86667 10.6588 3.28333 10.9255 2.75C11.2088 2.21667 11.5838 1.8 12.0505 1.5C12.5172 1.18333 13.0338 1.025 13.6005 1.025C14.1672 1.025 14.6922 1.18333 15.1755 1.5C15.6588 1.8 16.0338 2.21667 16.3005 2.75C16.5838 3.28333 16.7255 3.86667 16.7255 4.5L14.3505 6.475C14.3505 5.54167 14.6422 4.75833 15.2255 4.125C15.8255 3.49167 16.5588 3.175 17.4255 3.175C18.0755 3.175 18.6755 3.33333 19.2255 3.65C19.7755 3.95 20.2088 4.375 20.5255 4.925C20.8422 5.45833 21.0005 6.04167 21.0005 6.675V7.925V9.025C21.0005 9.375 21.0005 9.63333 21.0005 9.8C21.0005 9.96667 21.0005 10.2167 21.0005 10.55C21.0005 11.0333 21.0005 11.3917 21.0005 11.625C21.0005 11.8417 21.0005 12.1833 21.0005 12.65V14.45C21.0005 16.0833 20.6755 17.5083 20.0255 18.725C19.3922 19.9417 18.4755 20.875 17.2755 21.525C16.0922 22.175 14.6922 22.5 13.0755 22.5ZM13.0755 19.15C14.0255 19.15 14.8505 18.9583 15.5505 18.575C16.2505 18.1917 16.7922 17.65 17.1755 16.95C17.5588 16.2333 17.7505 15.4 17.7505 14.45V13.175C17.7505 12.925 17.7505 12.7417 17.7505 12.625C17.7505 12.5083 17.7505 12.325 17.7505 12.075C17.7505 11.8083 17.7505 11.6167 17.7505 11.5C17.7505 11.3667 17.7505 11.1667 17.7505 10.9V9.8C17.7505 9.51667 17.7505 9.30833 17.7505 9.175C17.7505 9.025 17.7505 8.80833 17.7505 8.525C17.7505 8.30833 17.7505 8.15 17.7505 8.05C17.7505 7.93333 17.7505 7.76667 17.7505 7.55V6.725C17.7505 6.60833 17.7088 6.51667 17.6255 6.45C17.5588 6.36667 17.4588 6.325 17.3255 6.325C17.1922 6.325 17.0922 6.35833 17.0255 6.425C16.9588 6.49167 16.9255 6.59167 16.9255 6.725L16.9005 10.075C16.9005 10.475 16.7588 10.8167 16.4755 11.1C16.1922 11.3667 15.8588 11.5 15.4755 11.5C15.0755 11.5 14.7172 11.3667 14.4005 11.1C14.1005 10.8167 13.9505 10.475 13.9505 10.075L13.9755 4.6C13.9755 4.46667 13.9338 4.36667 13.8505 4.3C13.7838 4.21667 13.6838 4.175 13.5505 4.175C13.4172 4.175 13.3088 4.21667 13.2255 4.3C13.1588 4.36667 13.1255 4.46667 13.1255 4.6L13.1005 10.075C13.1005 10.475 12.9588 10.8167 12.6755 11.1C12.3922 11.3667 12.0505 11.5 11.6505 11.5C11.2505 11.5 10.9005 11.3667 10.6005 11.1C10.3005 10.8167 10.1505 10.475 10.1505 10.075L10.1755 5.8C10.1755 5.66667 10.1422 5.56667 10.0755 5.5C10.0088 5.41667 9.90882 5.375 9.77549 5.375C9.64216 5.375 9.54216 5.41667 9.47549 5.5C9.40882 5.56667 9.37549 5.66667 9.37549 5.8L9.40049 12.45C9.40049 12.8667 9.22549 13.2333 8.87549 13.55C8.54216 13.8667 8.14216 14.025 7.67549 14.025C7.22549 14.0083 6.83382 13.7917 6.50049 13.375L5.15049 11.65C5.08382 11.5667 5.00049 11.5167 4.90049 11.5C4.80049 11.4833 4.70882 11.5083 4.62549 11.575C4.54216 11.6417 4.49216 11.7167 4.47549 11.8C4.45882 11.8833 4.47549 11.9667 4.52549 12.05L6.82549 15.725C7.64216 17.025 8.50882 17.925 9.42549 18.425C10.3588 18.9083 11.5755 19.15 13.0755 19.15Z" fill="black"/>
</g>
<defs>
<clipPath id="clip0_3351_875">
<rect width="24" height="24" fill="white"/>
</clipPath>
</defs>
</svg>
