<svg width="24" height="24" viewBox="0 0 24 24" fill="none" xmlns="http://www.w3.org/2000/svg">
<g clip-path="url(#clip0_3351_879)">
<rect width="24" height="24" fill="white"/>
<path d="M12.975 22.5C10.975 22.5 9.26667 22.0833 7.85 21.25C6.43333 20.4167 5.20833 19.1083 4.175 17.325L1.725 13.075C1.525 12.7083 1.45 12.35 1.5 12C1.56667 11.65 1.75 11.375 2.05 11.175C2.35 10.975 2.675 10.9083 3.025 10.975C3.375 11.025 3.69167 11.2 3.975 11.5L6.05 13.675C6.18333 13.825 6.33333 13.9083 6.5 13.925C6.66667 13.925 6.80833 13.8667 6.925 13.75C7.04167 13.6333 7.1 13.4833 7.1 13.3V3.725C7.1 3.325 7.23333 2.98333 7.5 2.7C7.78333 2.41667 8.125 2.275 8.525 2.275C8.925 2.275 9.25833 2.41667 9.525 2.7C9.80833 2.98333 9.95 3.325 9.95 3.725V10.5C9.95 10.6167 9.99167 10.7167 10.075 10.8C10.1583 10.8667 10.2583 10.9 10.375 10.9C10.4917 10.9 10.5833 10.8667 10.65 10.8C10.7333 10.7167 10.775 10.6167 10.775 10.5V2.475C10.775 2.075 10.9167 1.73333 11.2 1.45C11.4833 1.16667 11.8167 1.025 12.2 1.025C12.6 1.025 12.9417 1.16667 13.225 1.45C13.5083 1.73333 13.65 2.075 13.65 2.475V10.5C13.65 10.6167 13.6833 10.7167 13.75 10.8C13.8333 10.8667 13.9333 10.9 14.05 10.9C14.1833 10.9 14.2833 10.8667 14.35 10.8C14.4333 10.7167 14.475 10.6167 14.475 10.5V3.475C14.475 3.075 14.6083 2.73333 14.875 2.45C15.1583 2.16667 15.5 2.025 15.9 2.025C16.3 2.025 16.6333 2.16667 16.9 2.45C17.1833 2.73333 17.325 3.075 17.325 3.475V11C17.325 11.1167 17.3667 11.2167 17.45 11.3C17.5333 11.3667 17.6333 11.4 17.75 11.4C17.8667 11.4 17.9583 11.3667 18.025 11.3C18.1083 11.2167 18.15 11.1167 18.15 11V6.2C18.15 5.8 18.2833 5.46667 18.55 5.2C18.8333 4.91667 19.175 4.775 19.575 4.775C19.975 4.775 20.3083 4.91667 20.575 5.2C20.8583 5.46667 21 5.8 21 6.2V14.45C21 15.95 20.675 17.3167 20.025 18.55C19.375 19.7667 18.4417 20.725 17.225 21.425C16.0083 22.1417 14.5917 22.5 12.975 22.5Z" fill="black"/>
</g>
<defs>
<clipPath id="clip0_3351_879">
<rect width="24" height="24" fill="white"/>
</clipPath>
</defs>
</svg>
