<svg width="24" height="24" viewBox="0 0 24 24" fill="none" xmlns="http://www.w3.org/2000/svg">
<g clip-path="url(#clip0_3351_881)">
<rect width="24" height="24" fill="white"/>
<path d="M12.975 22.5C10.975 22.5 9.26667 22.0833 7.85 21.25C6.43333 20.4333 5.20833 19.125 4.175 17.325L1.7 13.05C1.5 12.7 1.425 12.3583 1.475 12.025C1.54167 11.675 1.725 11.4 2.025 11.2C2.325 11.0167 2.63333 10.9583 2.95 11.025C3.28333 11.0917 3.59167 11.2667 3.875 11.55L5.925 13.75C6.09167 13.9 6.26667 13.975 6.45 13.975C6.63333 13.975 6.78333 13.9167 6.9 13.8C7.03333 13.6667 7.1 13.5 7.1 13.3V3.6C7.1 3.23333 7.225 2.925 7.475 2.675C7.74167 2.40833 8.05833 2.275 8.425 2.275C8.775 2.275 9.075 2.40833 9.325 2.675C9.59167 2.925 9.725 3.23333 9.725 3.6V10.4C9.725 10.5667 9.775 10.7083 9.875 10.825C9.99167 10.9417 10.1333 11 10.3 11C10.4667 11 10.6 10.9417 10.7 10.825C10.8167 10.7083 10.875 10.5667 10.875 10.4V2.35C10.875 1.98333 11 1.675 11.25 1.425C11.5 1.15833 11.8083 1.025 12.175 1.025C12.5417 1.025 12.85 1.15833 13.1 1.425C13.35 1.675 13.475 1.98333 13.475 2.35V10.4C13.475 10.5667 13.5333 10.7083 13.65 10.825C13.7667 10.9417 13.9083 11 14.075 11C14.225 11 14.35 10.9417 14.45 10.825C14.5667 10.7083 14.625 10.5667 14.625 10.4V3.35C14.625 2.98333 14.75 2.675 15 2.425C15.2667 2.15833 15.575 2.025 15.925 2.025C16.2917 2.025 16.6 2.15833 16.85 2.425C17.1167 2.675 17.25 2.98333 17.25 3.35V10.9C17.25 11.0667 17.3 11.2083 17.4 11.325C17.5167 11.4417 17.6583 11.5 17.825 11.5C17.9917 11.5 18.125 11.4417 18.225 11.325C18.325 11.2083 18.375 11.0667 18.375 10.9V6.1C18.375 5.73333 18.5 5.425 18.75 5.175C19.0167 4.90833 19.325 4.775 19.675 4.775C20.0417 4.775 20.35 4.90833 20.6 5.175C20.8667 5.425 21 5.73333 21 6.1V14.45C21 15.95 20.675 17.3167 20.025 18.55C19.375 19.7667 18.4417 20.725 17.225 21.425C16.0083 22.1417 14.5917 22.5 12.975 22.5Z" fill="black"/>
</g>
<defs>
<clipPath id="clip0_3351_881">
<rect width="24" height="24" fill="white"/>
</clipPath>
</defs>
</svg>
