<svg width="24" height="24" viewBox="0 0 24 24" fill="none" xmlns="http://www.w3.org/2000/svg">
<g clip-path="url(#clip0_3207_15455)">
<rect width="24" height="24" fill="white"/>
<path d="M11.9755 21.725C8.87549 20.1083 6.33382 18.2 4.35049 16C2.36716 13.8 1.37549 11.4667 1.37549 9C1.37549 7.86667 1.61716 6.84167 2.10049 5.925C2.60049 5.00833 3.28382 4.29167 4.15049 3.775C5.01716 3.25833 5.98382 3 7.05049 3C8.06716 3 9.03382 3.21667 9.95049 3.65C10.8672 4.08333 11.6088 4.70833 12.1755 5.525L12.7255 6.35H11.2505L11.8255 5.525C12.3755 4.725 13.1088 4.10833 14.0255 3.675C14.9422 3.225 15.8838 3 16.8505 3C17.9338 3 18.9088 3.25833 19.7755 3.775C20.6588 4.29167 21.3505 5.00833 21.8505 5.925C22.3672 6.84167 22.6255 7.86667 22.6255 9C22.6255 11.4667 21.6255 13.8 19.6255 16C17.6255 18.1833 15.0755 20.0917 11.9755 21.725ZM11.9755 19C14.6755 17.4333 16.7172 15.8167 18.1005 14.15C19.4838 12.4667 20.1755 10.7583 20.1755 9.025C20.1755 8.325 20.0255 7.7 19.7255 7.15C19.4422 6.6 19.0422 6.175 18.5255 5.875C18.0255 5.55833 17.4505 5.4 16.8005 5.4C16.1338 5.4 15.5088 5.55 14.9255 5.85C14.3588 6.13333 13.8755 6.54167 13.4755 7.075L13.1005 7.6H10.9005L10.5255 7.075C10.1088 6.525 9.60882 6.10833 9.02549 5.825C8.44216 5.54167 7.80049 5.4 7.10049 5.4C6.48382 5.4 5.91716 5.55833 5.40049 5.875C4.90049 6.175 4.50882 6.6 4.22549 7.15C3.95882 7.7 3.82549 8.325 3.82549 9.025C3.82549 10.7583 4.50882 12.4667 5.87549 14.15C7.24216 15.8333 9.27549 17.45 11.9755 19ZM20.3005 13.3H16.0005L13.0755 15.375L10.4005 12.025L8.65049 13.3H3.60049V11.075H7.90049L10.8005 8.975L13.4755 12.35L15.2505 11.075H20.3005V13.3Z" fill="black"/>
</g>
<defs>
<clipPath id="clip0_3207_15455">
<rect width="24" height="24" fill="white"/>
</clipPath>
</defs>
</svg>
