<svg width="24" height="24" viewBox="0 0 24 24" fill="none" xmlns="http://www.w3.org/2000/svg">
<g clip-path="url(#clip0_3207_15455)">
<rect width="24" height="24" fill="white"/>
<path d="M11.9755 21.725C8.87549 20.1083 6.33382 18.2 4.35049 16C2.36716 13.8 1.37549 11.4667 1.37549 9C1.37549 7.86667 1.61716 6.84167 2.10049 5.925C2.60049 5.00833 3.28382 4.29167 4.15049 3.775C5.01716 3.25833 5.98382 3 7.05049 3C8.06716 3 9.03382 3.21667 9.95049 3.65C10.8672 4.08333 11.6088 4.70833 12.1755 5.525L12.7255 6.35H11.2505L11.8255 5.525C12.3755 4.725 13.1088 4.10833 14.0255 3.675C14.9422 3.225 15.8838 3 16.8505 3C17.9338 3 18.9088 3.25833 19.7755 3.775C20.6588 4.29167 21.3505 5.00833 21.8505 5.925C22.3672 6.84167 22.6255 7.86667 22.6255 9C22.6255 11.4667 21.6255 13.8 19.6255 16C17.6255 18.1833 15.0755 20.0917 11.9755 21.725ZM11.9755 19.025C14.6755 17.4583 16.7172 15.8333 18.1005 14.15C19.4838 12.4667 20.1755 10.7583 20.1755 9.025C20.1755 8.325 20.0255 7.7 19.7255 7.15C19.4422 6.6 19.0422 6.16667 18.5255 5.85C18.0255 5.53333 17.4505 5.375 16.8005 5.375C16.1338 5.375 15.5088 5.525 14.9255 5.825C14.3588 6.10833 13.8755 6.525 13.4755 7.075L13.1005 7.575H10.9005L10.5255 7.075C10.1088 6.50833 9.60882 6.08333 9.02549 5.8C8.44216 5.51667 7.80049 5.375 7.10049 5.375C6.48382 5.375 5.91716 5.53333 5.40049 5.85C4.90049 6.16667 4.50882 6.6 4.22549 7.15C3.94216 7.7 3.80049 8.325 3.80049 9.025C3.80049 10.7583 4.48382 12.4667 5.85049 14.15C7.23382 15.8333 9.27549 17.4583 11.9755 19.025ZM20.3005 13.3H16.0505L13.1255 15.25L10.3755 12.025L8.55049 13.3H3.60049V11.075H7.85049L10.7755 9.1L13.5005 12.35L15.3505 11.075H20.3005V13.3Z" fill="black"/>
</g>
<defs>
<clipPath id="clip0_3207_15455">
<rect width="24" height="24" fill="white"/>
</clipPath>
</defs>
</svg>
