<svg width="24" height="24" viewBox="0 0 24 24" fill="none" xmlns="http://www.w3.org/2000/svg">
<g clip-path="url(#clip0_3207_15457)">
<rect width="24" height="24" fill="white"/>
<path d="M11.9755 21.725C8.64216 20.175 6.03382 18.3417 4.15049 16.225C2.28382 14.0917 1.35049 11.7333 1.35049 9.15C1.35049 8 1.60882 6.95833 2.12549 6.025C2.65882 5.075 3.37549 4.33333 4.27549 3.8C5.19216 3.26667 6.20049 3 7.30049 3C8.38382 3 9.36716 3.21667 10.2505 3.65C11.1338 4.08333 11.8172 4.65833 12.3005 5.375L12.8755 6.175H11.1005L11.6505 5.375C12.1505 4.65833 12.8338 4.08333 13.7005 3.65C14.5838 3.21667 15.5588 3 16.6255 3C17.7255 3 18.7338 3.26667 19.6505 3.8C20.5672 4.33333 21.2838 5.075 21.8005 6.025C22.3338 6.95833 22.6005 8 22.6005 9.15C22.6005 11.7167 21.6588 14.0667 19.7755 16.2C17.9088 18.3333 15.3088 20.175 11.9755 21.725ZM11.9755 18.45C14.5088 17.1833 16.4088 15.7833 17.6755 14.25C18.9588 12.7167 19.6005 11.0417 19.6005 9.225C19.6005 8.59167 19.4672 8.03333 19.2005 7.55C18.9338 7.05 18.5672 6.65833 18.1005 6.375C17.6338 6.09167 17.1088 5.95 16.5255 5.95C15.8588 5.95 15.2755 6.075 14.7755 6.325C14.2922 6.55833 13.8755 6.90833 13.5255 7.375L13.1755 7.825H10.7755L10.4255 7.375C10.0922 6.90833 9.66716 6.55833 9.15049 6.325C8.65049 6.075 8.05882 5.95 7.37549 5.95C6.80882 5.95 6.29216 6.09167 5.82549 6.375C5.37549 6.65833 5.01716 7.05 4.75049 7.55C4.48382 8.03333 4.35049 8.59167 4.35049 9.225C4.35049 11.0417 4.98382 12.7167 6.25049 14.25C7.53382 15.7833 9.44216 17.1833 11.9755 18.45ZM20.2255 13.575H15.7255L12.9755 15.625L10.4005 12.525L8.95049 13.575H3.52549V10.925H8.05049L10.8005 8.875L13.3755 12L14.8255 10.925H20.2255V13.575Z" fill="black"/>
</g>
<defs>
<clipPath id="clip0_3207_15457">
<rect width="24" height="24" fill="white"/>
</clipPath>
</defs>
</svg>
