<svg width="24" height="24" viewBox="0 0 24 24" fill="none" xmlns="http://www.w3.org/2000/svg">
<g clip-path="url(#clip0_3207_16211)">
<rect width="24" height="24" fill="white"/>
<path d="M10.0755 10.675C9.32549 10.675 8.63382 10.5 8.00049 10.15C7.36716 9.78333 6.86716 9.28333 6.50049 8.65C6.13382 8.01667 5.95049 7.325 5.95049 6.575C5.95049 5.825 6.13382 5.13333 6.50049 4.5C6.86716 3.86667 7.36716 3.375 8.00049 3.025C8.63382 2.65833 9.32549 2.475 10.0755 2.475C10.8422 2.475 11.5422 2.65833 12.1755 3.025C12.8088 3.375 13.3088 3.86667 13.6755 4.5C14.0422 5.13333 14.2255 5.825 14.2255 6.575C14.2255 7.325 14.0422 8.01667 13.6755 8.65C13.3088 9.28333 12.8088 9.78333 12.1755 10.15C11.5422 10.5 10.8422 10.675 10.0755 10.675ZM10.0755 8.275C10.3922 8.275 10.6755 8.2 10.9255 8.05C11.1922 7.9 11.4005 7.7 11.5505 7.45C11.7005 7.18333 11.7755 6.89167 11.7755 6.575C11.7755 6.25833 11.7005 5.975 11.5505 5.725C11.4005 5.45833 11.1922 5.25 10.9255 5.1C10.6755 4.95 10.3922 4.875 10.0755 4.875C9.77549 4.875 9.49216 4.95 9.22549 5.1C8.95882 5.25 8.75049 5.45833 8.60049 5.725C8.46716 5.975 8.40049 6.25833 8.40049 6.575C8.40049 6.89167 8.46716 7.18333 8.60049 7.45C8.75049 7.7 8.95049 7.9 9.20049 8.05C9.46716 8.2 9.75882 8.275 10.0755 8.275ZM18.9255 2.3C19.2588 2.98333 19.5005 3.68333 19.6505 4.4C19.8005 5.1 19.8755 5.825 19.8755 6.575C19.8755 8.075 19.5588 9.49167 18.9255 10.825L16.4505 9.65C16.9172 8.68333 17.1505 7.65833 17.1505 6.575C17.1505 5.475 16.9172 4.44167 16.4505 3.475L18.9255 2.3ZM3.00049 17.7C3.00049 16.6167 3.29216 15.6583 3.87549 14.825C4.47549 13.975 5.30882 13.3167 6.37549 12.85C7.45882 12.3667 8.69216 12.125 10.0755 12.125C11.4588 12.125 12.6838 12.3667 13.7505 12.85C14.8338 13.3167 15.6755 13.975 16.2755 14.825C16.8755 15.6583 17.1755 16.6167 17.1755 17.7V21H3.00049V17.7ZM14.4005 18.275V17.7C14.4005 17.15 14.2255 16.6667 13.8755 16.25C13.5422 15.8167 13.0422 15.475 12.3755 15.225C11.7255 14.975 10.9588 14.85 10.0755 14.85C9.19216 14.85 8.42549 14.975 7.77549 15.225C7.12549 15.475 6.62549 15.8167 6.27549 16.25C5.94216 16.6667 5.77549 17.15 5.77549 17.7V18.275H14.4005ZM12.9755 5.9C13.0255 6.01667 13.0672 6.14167 13.1005 6.275C13.1338 6.40833 13.1505 6.54167 13.1505 6.675C13.1505 6.825 13.1338 6.96667 13.1005 7.1C13.0672 7.23333 13.0172 7.35833 12.9505 7.475L12.5255 7.25C12.5755 7.16667 12.6088 7.075 12.6255 6.975C12.6588 6.875 12.6755 6.775 12.6755 6.675C12.6755 6.50833 12.6255 6.31667 12.5255 6.1L12.9755 5.9Z" fill="black"/>
</g>
<defs>
<clipPath id="clip0_3207_16211">
<rect width="24" height="24" fill="white"/>
</clipPath>
</defs>
</svg>
