<svg width="24" height="24" viewBox="0 0 24 24" fill="none" xmlns="http://www.w3.org/2000/svg">
<g clip-path="url(#clip0_3207_16215)">
<rect width="24" height="24" fill="white"/>
<path d="M20.55 1.5C20.9167 2.26667 21.1917 3.08333 21.375 3.95C21.575 4.81667 21.675 5.66667 21.675 6.5C21.675 7.3 21.575 8.14167 21.375 9.025C21.1917 9.89167 20.9167 10.7083 20.55 11.475L20.1 11.275C20.45 10.525 20.7167 9.74167 20.9 8.925C21.0833 8.09167 21.175 7.28333 21.175 6.5C21.175 4.83333 20.8167 3.23333 20.1 1.7L20.55 1.5ZM16.925 2.975C17.475 4.075 17.75 5.25 17.75 6.5C17.75 7.75 17.475 8.925 16.925 10.025L16.475 9.825C16.9917 8.79167 17.25 7.68333 17.25 6.5C17.25 5.31667 16.9917 4.20833 16.475 3.175L16.925 2.975ZM2.5 18C2.5 16.1167 3.14167 14.65 4.425 13.6C5.725 12.5333 7.5 12 9.75 12C12 12 13.7667 12.5333 15.05 13.6C16.35 14.65 17 16.1167 17 18V21H2.5V18ZM9.75 10.3C9.05 10.3 8.40833 10.1333 7.825 9.8C7.24167 9.46667 6.775 9.00833 6.425 8.425C6.09167 7.84167 5.925 7.2 5.925 6.5C5.925 5.8 6.09167 5.15833 6.425 4.575C6.775 3.99167 7.24167 3.53333 7.825 3.2C8.40833 2.86667 9.05 2.7 9.75 2.7C10.45 2.7 11.0917 2.86667 11.675 3.2C12.2583 3.53333 12.7167 3.99167 13.05 4.575C13.4 5.15833 13.575 5.8 13.575 6.5C13.575 7.2 13.4 7.84167 13.05 8.425C12.7167 9.00833 12.2583 9.46667 11.675 9.8C11.0917 10.1333 10.45 10.3 9.75 10.3Z" fill="black"/>
</g>
<defs>
<clipPath id="clip0_3207_16215">
<rect width="24" height="24" fill="white"/>
</clipPath>
</defs>
</svg>
