<svg width="24" height="24" viewBox="0 0 24 24" fill="none" xmlns="http://www.w3.org/2000/svg">
<g clip-path="url(#clip0_3207_16213)">
<rect width="24" height="24" fill="white"/>
<path d="M10.2505 10.75C9.43382 10.75 8.69216 10.5583 8.02549 10.175C7.35882 9.775 6.82549 9.24167 6.42549 8.575C6.04216 7.90833 5.85049 7.175 5.85049 6.375C5.85049 5.575 6.04216 4.84167 6.42549 4.175C6.82549 3.50833 7.35882 2.98333 8.02549 2.6C8.69216 2.2 9.43382 2 10.2505 2C11.0672 2 11.8088 2.2 12.4755 2.6C13.1422 2.98333 13.6672 3.50833 14.0505 4.175C14.4505 4.84167 14.6505 5.575 14.6505 6.375C14.6505 7.175 14.4505 7.90833 14.0505 8.575C13.6672 9.24167 13.1422 9.775 12.4755 10.175C11.8088 10.5583 11.0672 10.75 10.2505 10.75ZM10.2505 7.825C10.5172 7.825 10.7588 7.76667 10.9755 7.65C11.2088 7.51667 11.3838 7.34167 11.5005 7.125C11.6338 6.89167 11.7005 6.64167 11.7005 6.375C11.7005 6.10833 11.6338 5.86667 11.5005 5.65C11.3838 5.41667 11.2088 5.24167 10.9755 5.125C10.7588 4.99167 10.5172 4.925 10.2505 4.925C9.98382 4.925 9.73382 4.99167 9.50049 5.125C9.28382 5.24167 9.10882 5.41667 8.97549 5.65C8.85882 5.86667 8.80049 6.10833 8.80049 6.375C8.80049 6.64167 8.85882 6.89167 8.97549 7.125C9.10882 7.34167 9.28382 7.51667 9.50049 7.65C9.73382 7.76667 9.98382 7.825 10.2505 7.825ZM19.5005 1.875C19.8338 2.575 20.0755 3.3 20.2255 4.05C20.3922 4.8 20.4755 5.575 20.4755 6.375C20.4755 7.99167 20.1505 9.48333 19.5005 10.85L16.3255 9.35C16.7588 8.43333 16.9755 7.44167 16.9755 6.375C16.9755 5.29167 16.7588 4.29167 16.3255 3.375L19.5005 1.875ZM3.00049 17.125C3.00049 16.075 3.30049 15.1583 3.90049 14.375C4.50049 13.575 5.34215 12.9583 6.42549 12.525C7.52549 12.0917 8.80049 11.875 10.2505 11.875C11.7005 11.875 12.9672 12.0917 14.0505 12.525C15.1505 12.9583 16.0005 13.575 16.6005 14.375C17.2005 15.1583 17.5005 16.075 17.5005 17.125V21H3.00049V17.125ZM14.0005 17.55V17.125C14.0005 16.7917 13.8755 16.4917 13.6255 16.225C13.3755 15.9583 12.9672 15.7417 12.4005 15.575C11.8505 15.4083 11.1338 15.325 10.2505 15.325C9.36716 15.325 8.64216 15.4083 8.07549 15.575C7.52549 15.7417 7.12549 15.9583 6.87549 16.225C6.62549 16.4917 6.50049 16.7917 6.50049 17.125V17.55H14.0005ZM13.2255 5.725C13.2922 5.875 13.3422 6.03333 13.3755 6.2C13.4255 6.36667 13.4505 6.525 13.4505 6.675C13.4505 6.85833 13.4255 7.03333 13.3755 7.2C13.3422 7.35 13.2838 7.5 13.2005 7.65L12.7005 7.375C12.7505 7.275 12.7922 7.16667 12.8255 7.05C12.8588 6.91667 12.8755 6.79167 12.8755 6.675C12.8755 6.475 12.8172 6.24167 12.7005 5.975L13.2255 5.725Z" fill="black"/>
</g>
<defs>
<clipPath id="clip0_3207_16213">
<rect width="24" height="24" fill="white"/>
</clipPath>
</defs>
</svg>
