<svg width="24" height="24" viewBox="0 0 24 24" fill="none" xmlns="http://www.w3.org/2000/svg">
<g clip-path="url(#clip0_3207_16207)">
<rect width="24" height="24" fill="white"/>
<path d="M9.50049 10.65C8.76716 10.65 8.09216 10.475 7.47549 10.125C6.85882 9.775 6.37549 9.3 6.02549 8.7C5.67549 8.08333 5.50049 7.40833 5.50049 6.675C5.50049 5.94167 5.67549 5.275 6.02549 4.675C6.37549 4.05833 6.85882 3.575 7.47549 3.225C8.09216 2.875 8.76716 2.7 9.50049 2.7C10.2338 2.7 10.9088 2.875 11.5255 3.225C12.1422 3.575 12.6255 4.05833 12.9755 4.675C13.3255 5.275 13.5005 5.94167 13.5005 6.675C13.5005 7.40833 13.3255 8.08333 12.9755 8.7C12.6255 9.3 12.1422 9.775 11.5255 10.125C10.9088 10.475 10.2338 10.65 9.50049 10.65ZM9.50049 8.875C9.90049 8.875 10.2672 8.775 10.6005 8.575C10.9338 8.375 11.2005 8.10833 11.4005 7.775C11.6005 7.44167 11.7005 7.075 11.7005 6.675C11.7005 6.275 11.6005 5.90833 11.4005 5.575C11.2005 5.24167 10.9338 4.975 10.6005 4.775C10.2672 4.575 9.90049 4.475 9.50049 4.475C9.10049 4.475 8.73382 4.575 8.40049 4.775C8.06716 4.975 7.80049 5.24167 7.60049 5.575C7.40049 5.90833 7.30049 6.275 7.30049 6.675C7.30049 7.075 7.40049 7.44167 7.60049 7.775C7.80049 8.10833 8.06716 8.375 8.40049 8.575C8.73382 8.775 9.10049 8.875 9.50049 8.875ZM16.5255 3.075C16.8088 3.60833 17.0172 4.18333 17.1505 4.8C17.3005 5.41667 17.3755 6.04167 17.3755 6.675C17.3755 8.025 17.0838 9.23333 16.5005 10.3L14.9005 9.425C15.3338 8.625 15.5505 7.70833 15.5505 6.675C15.5505 5.65833 15.3338 4.73333 14.9005 3.9L16.5255 3.075ZM2.50049 18C2.50049 16.75 2.76715 15.7 3.30049 14.85C3.85049 13.9833 4.64216 13.3333 5.67549 12.9C6.72549 12.4667 8.00049 12.25 9.50049 12.25C11.0005 12.25 12.2672 12.4667 13.3005 12.9C14.3505 13.3333 15.1422 13.9833 15.6755 14.85C16.2255 15.7 16.5005 16.75 16.5005 18V21H2.50049V18ZM14.6005 19.15V18C14.6005 17.1167 14.4172 16.3917 14.0505 15.825C13.6838 15.2417 13.1172 14.8083 12.3505 14.525C11.6005 14.2417 10.6505 14.1 9.50049 14.1C8.35049 14.1 7.39216 14.2417 6.62549 14.525C5.87549 14.8083 5.31716 15.2417 4.95049 15.825C4.58382 16.3917 4.40049 17.1167 4.40049 18V19.15H14.6005ZM20.0755 1.65C20.4422 2.45 20.7172 3.26667 20.9005 4.1C21.0838 4.93333 21.1755 5.79167 21.1755 6.675C21.1755 7.55833 21.0838 8.41667 20.9005 9.25C20.7172 10.0667 20.4422 10.875 20.0755 11.675L18.4255 10.9C18.7422 10.2167 18.9755 9.53333 19.1255 8.85C19.2755 8.16667 19.3505 7.44167 19.3505 6.675C19.3505 5.175 19.0422 3.75833 18.4255 2.425L20.0755 1.65Z" fill="black"/>
</g>
<defs>
<clipPath id="clip0_3207_16207">
<rect width="24" height="24" fill="white"/>
</clipPath>
</defs>
</svg>
