<svg width="24" height="24" viewBox="0 0 24 24" fill="none" xmlns="http://www.w3.org/2000/svg">
<g clip-path="url(#clip0_3207_17818)">
<rect width="24" height="24" fill="white"/>
<path d="M2.00049 7H7.90049L5.20049 8.725L9.45049 4.275C9.83382 3.85833 10.2672 3.54167 10.7505 3.325C11.2338 3.10833 11.7588 3 12.3255 3C13.2755 3 14.0588 3.3 14.6755 3.9C15.2922 4.5 15.6005 5.25 15.6005 6.15V7H20.0005C20.6672 7 21.2672 7.15 21.8005 7.45C22.3338 7.75 22.7505 8.16667 23.0505 8.7C23.3505 9.21667 23.5005 9.79167 23.5005 10.425C23.5005 11.075 23.3505 11.6583 23.0505 12.175C22.7505 12.6917 22.3338 13.1 21.8005 13.4C21.2672 13.6833 20.6672 13.825 20.0005 13.825H15.9505L17.5255 11.65L16.6505 16.525C16.4672 17.575 15.9922 18.4167 15.2255 19.05C14.4755 19.6833 13.5505 20 12.4505 20H2.00049V7ZM12.6005 17.65C13.0338 17.65 13.4005 17.525 13.7005 17.275C14.0172 17.0083 14.2088 16.6583 14.2755 16.225L15.1505 11.5H20.0255C20.3422 11.5 20.6005 11.4 20.8005 11.2C21.0005 10.9833 21.1005 10.725 21.1005 10.425C21.1005 10.1083 21.0005 9.85 20.8005 9.65C20.6005 9.43333 20.3422 9.325 20.0255 9.325H13.2255V6.275C13.2255 6.00833 13.1338 5.79167 12.9505 5.625C12.7838 5.44167 12.5672 5.35 12.3005 5.35C12.0672 5.35 11.8588 5.4 11.6755 5.5C11.4922 5.6 11.2838 5.76667 11.0505 6L7.87549 9.35H4.40049V17.65H12.6005ZM6.35049 9.025L8.72549 7.275V18.1H6.35049V9.025Z" fill="black"/>
</g>
<defs>
<clipPath id="clip0_3207_17818">
<rect width="24" height="24" fill="white"/>
</clipPath>
</defs>
</svg>
