<svg width="24" height="24" viewBox="0 0 24 24" fill="none" xmlns="http://www.w3.org/2000/svg">
<g clip-path="url(#clip0_3207_17922)">
<rect width="24" height="24" fill="white"/>
<path d="M11.5505 20C10.4672 20 9.54216 19.6917 8.77549 19.075C8.02549 18.4417 7.55882 17.6 7.37549 16.55L6.47549 11.65L8.05049 13.8H4.00049C3.33382 13.8 2.73382 13.6583 2.20049 13.375C1.66716 13.075 1.25049 12.6667 0.950488 12.15C0.650488 11.6333 0.500488 11.05 0.500488 10.4C0.500488 9.76667 0.650488 9.19167 0.950488 8.675C1.25049 8.15833 1.66716 7.75 2.20049 7.45C2.73382 7.15 3.33382 7 4.00049 7H8.40049V6.15C8.40049 5.25 8.70882 4.5 9.32549 3.9C9.94216 3.3 10.7255 3 11.6755 3C12.2588 3 12.7838 3.10833 13.2505 3.325C13.7338 3.54167 14.1672 3.85 14.5505 4.25L18.8005 8.725L16.1005 7H22.0005V20H11.5505ZM19.6255 17.675V9.325H16.1255L12.9505 5.975C12.7172 5.74167 12.5088 5.575 12.3255 5.475C12.1422 5.375 11.9338 5.325 11.7005 5.325C11.4505 5.325 11.2338 5.41667 11.0505 5.6C10.8672 5.76667 10.7755 5.98333 10.7755 6.25V9.325H3.95049C3.63382 9.325 3.37549 9.425 3.17549 9.625C2.97549 9.825 2.87549 10.0833 2.87549 10.4C2.87549 10.7167 2.97549 10.9833 3.17549 11.2C3.37549 11.4 3.63382 11.5 3.95049 11.5H8.85049L9.72549 16.25C9.79216 16.6667 9.98382 17.0083 10.3005 17.275C10.6172 17.5417 10.9922 17.675 11.4255 17.675H19.6255ZM15.3005 18.125V7.275L17.6505 9V18.125H15.3005Z" fill="black"/>
</g>
<defs>
<clipPath id="clip0_3207_17922">
<rect width="24" height="24" fill="white"/>
</clipPath>
</defs>
</svg>
