<svg width="24" height="24" viewBox="0 0 24 24" fill="none" xmlns="http://www.w3.org/2000/svg">
<g clip-path="url(#clip0_3207_17842)">
<rect width="24" height="24" fill="white"/>
<path d="M7.02549 22V16.075L8.60049 18.2L4.40049 14.675C3.88382 14.2417 3.51716 13.8 3.30049 13.35C3.10049 12.9 3.00049 12.4 3.00049 11.85C3.00049 11.0667 3.26716 10.4 3.80049 9.85C4.35049 9.3 5.01716 9.025 5.80049 9.025H7.02549V3.575C7.02549 2.975 7.15049 2.44167 7.40049 1.975C7.66716 1.50833 8.02549 1.15 8.47549 0.899999C8.92549 0.633332 9.43382 0.499999 10.0005 0.499999C10.5838 0.499999 11.1005 0.633332 11.5505 0.899999C12.0005 1.15 12.3505 1.50833 12.6005 1.975C12.8672 2.44167 13.0005 2.975 13.0005 3.575V8.175L11.3255 6.8L16.8005 7.775C17.7172 7.94167 18.4755 8.39167 19.0755 9.125C19.6922 9.84167 20.0005 10.675 20.0005 11.625V22H7.02549ZM18.1505 11.625C18.1505 11.1083 17.9922 10.6583 17.6755 10.275C17.3755 9.875 16.9838 9.63333 16.5005 9.55L11.1755 8.6V3.525C11.1755 3.175 11.0672 2.89167 10.8505 2.675C10.6338 2.45833 10.3505 2.35 10.0005 2.35C9.66716 2.35 9.39216 2.45833 9.17549 2.675C8.95882 2.89167 8.85049 3.175 8.85049 3.525V10.825H5.80049C5.51716 10.825 5.27549 10.9333 5.07549 11.15C4.89216 11.35 4.80049 11.5917 4.80049 11.875C4.80049 12.1583 4.85882 12.4167 4.97549 12.65C5.09216 12.8667 5.27549 13.075 5.52549 13.275L8.90049 16.05V20.2H18.1505V11.625ZM8.60049 17.875L7.27549 16.075H18.5255V17.875H8.60049Z" fill="black"/>
</g>
<defs>
<clipPath id="clip0_3207_17842">
<rect width="24" height="24" fill="white"/>
</clipPath>
</defs>
</svg>
