<svg width="24" height="24" viewBox="0 0 24 24" fill="none" xmlns="http://www.w3.org/2000/svg">
<g clip-path="url(#clip0_3207_17848)">
<rect width="24" height="24" fill="white"/>
<path d="M7.00049 22V16.15L8.95049 18.575L4.67549 14.975C4.12549 14.5083 3.70882 13.975 3.42549 13.375C3.14216 12.775 3.00049 12.1083 3.00049 11.375C3.00049 10.125 3.35049 9.13333 4.05049 8.4C4.75049 7.65 5.64216 7.275 6.72549 7.275H7.00049V4.775C7.00049 3.975 7.18382 3.25 7.55049 2.6C7.93382 1.95 8.45049 1.44167 9.10049 1.075C9.75049 0.691665 10.4588 0.499999 11.2255 0.499999C11.9922 0.499999 12.6922 0.691665 13.3255 1.075C13.9755 1.44167 14.4838 1.95 14.8505 2.6C15.2338 3.25 15.4255 3.975 15.4255 4.775V7.825L12.2755 5.9L16.0505 6.65C17.3338 6.9 18.3088 7.425 18.9755 8.225C19.6588 9.025 20.0005 10.1083 20.0005 11.475V22H7.00049ZM16.5005 11.1C16.5005 10.7833 16.4338 10.5417 16.3005 10.375C16.1672 10.2083 15.9505 10.0917 15.6505 10.025L11.9755 9.275V4.775C11.9755 4.525 11.9005 4.31667 11.7505 4.15C11.6172 3.98333 11.4338 3.9 11.2005 3.9C10.9672 3.9 10.7838 3.98333 10.6505 4.15C10.5172 4.31667 10.4505 4.525 10.4505 4.775V10.725H7.05049C6.86716 10.725 6.70882 10.7917 6.57549 10.925C6.45882 11.0583 6.40049 11.2167 6.40049 11.4C6.40049 11.6167 6.45882 11.8083 6.57549 11.975C6.69216 12.1417 6.88382 12.3333 7.15049 12.55L10.4505 15.175V18.65H16.5005V11.1ZM9.80049 17.275L7.27549 13.975H17.3005V17.275H9.80049Z" fill="black"/>
</g>
<defs>
<clipPath id="clip0_3207_17848">
<rect width="24" height="24" fill="white"/>
</clipPath>
</defs>
</svg>
