<svg width="24" height="24" viewBox="0 0 24 24" fill="none" xmlns="http://www.w3.org/2000/svg">
<g clip-path="url(#clip0_3207_17862)">
<rect width="24" height="24" fill="white"/>
<path d="M8 22V18.475H20V22H8ZM4.2 13.275C3.78333 12.925 3.475 12.5833 3.275 12.25C3.09167 11.9 3 11.5167 3 11.1C3 10.5833 3.18333 10.15 3.55 9.8C3.91667 9.43333 4.35833 9.25 4.875 9.25H8V2.675C8 2.05833 8.19167 1.54167 8.575 1.125C8.95833 0.708332 9.43333 0.499999 10 0.499999C10.6 0.499999 11.0917 0.708332 11.475 1.125C11.8583 1.525 12.0833 2.04167 12.15 2.675L12.55 6.725L16.85 7.65C17.9 7.88333 18.6833 8.31667 19.2 8.95C19.7333 9.56667 20 10.4 20 11.45V16.475H8L4.2 13.275Z" fill="black"/>
</g>
<defs>
<clipPath id="clip0_3207_17862">
<rect width="24" height="24" fill="white"/>
</clipPath>
</defs>
</svg>
