<svg width="24" height="24" viewBox="0 0 24 24" fill="none" xmlns="http://www.w3.org/2000/svg">
<g clip-path="url(#clip0_3207_17986)">
<rect width="24" height="24" fill="white"/>
<path d="M20 4.775H8V2H20V4.775ZM8 6.775H20V11.8C20 12.8667 19.7333 13.7167 19.2 14.35C18.6833 14.9833 17.9 15.4 16.85 15.6L12.05 16.525L11.625 21.575C11.575 22.1417 11.375 22.6 11.025 22.95C10.675 23.3167 10.25 23.5 9.75 23.5C9.23333 23.5 8.80833 23.3167 8.475 22.95C8.15833 22.6 8 22.1417 8 21.575V14H4.875C4.35833 14 3.91667 13.825 3.55 13.475C3.18333 13.1083 3 12.6667 3 12.15C3 11.7167 3.09167 11.3333 3.275 11C3.475 10.6667 3.78333 10.325 4.2 9.975L8 6.775Z" fill="black"/>
</g>
<defs>
<clipPath id="clip0_3207_17986">
<rect width="24" height="24" fill="white"/>
</clipPath>
</defs>
</svg>
