<svg width="24" height="24" viewBox="0 0 24 24" fill="none" xmlns="http://www.w3.org/2000/svg">
<g clip-path="url(#clip0_3207_17916)">
<rect width="24" height="24" fill="white"/>
<path d="M11.6005 20C10.5838 20 9.74216 19.725 9.07549 19.175C8.40882 18.625 7.98382 17.8417 7.80049 16.825L6.80049 11.5L7.50049 12.325H2.85049C2.41716 12.325 2.01716 12.225 1.65049 12.025C1.28382 11.825 1.00049 11.55 0.800488 11.2C0.600488 10.8333 0.500488 10.4333 0.500488 10C0.500488 9.56667 0.600488 9.175 0.800488 8.825C1.00049 8.45833 1.28382 8.175 1.65049 7.975C2.01716 7.775 2.41716 7.675 2.85049 7.675H9.67549V5.2C9.67549 4.58333 9.88382 4.06667 10.3005 3.65C10.7172 3.21667 11.2338 3 11.8505 3C12.3005 3 12.7005 3.1 13.0505 3.3C13.4172 3.48333 13.7755 3.76667 14.1255 4.15L17.9255 8.375L16.7005 7.675H22.0005V20H11.6005ZM21.0505 19.075V8.575H16.8505L13.5255 4.85C13.2255 4.53333 12.9505 4.3 12.7005 4.15C12.4505 4 12.1672 3.925 11.8505 3.925C11.5172 3.925 11.2255 4.05 10.9755 4.3C10.7422 4.55 10.6255 4.85 10.6255 5.2V8.575H2.85049C2.45049 8.575 2.11716 8.71667 1.85049 9C1.58382 9.26667 1.45049 9.6 1.45049 10C1.45049 10.4 1.58382 10.7417 1.85049 11.025C2.11716 11.2917 2.45049 11.425 2.85049 11.425H7.75049L8.72549 16.725C8.87549 17.4917 9.19216 18.075 9.67549 18.475C10.1755 18.875 10.8172 19.075 11.6005 19.075H21.0505ZM16.6755 19.25V8L17.6255 8.425V19.25H16.6755Z" fill="black"/>
</g>
<defs>
<clipPath id="clip0_3207_17916">
<rect width="24" height="24" fill="white"/>
</clipPath>
</defs>
</svg>
