<svg width="24" height="24" viewBox="0 0 24 24" fill="none" xmlns="http://www.w3.org/2000/svg">
<g clip-path="url(#clip0_3207_17922)">
<rect width="24" height="24" fill="white"/>
<path d="M11.5505 20C10.4505 20 9.51716 19.6833 8.75049 19.05C8.00049 18.4167 7.53382 17.575 7.35049 16.525L6.47549 11.65L8.05049 13.825H4.00049C3.33382 13.825 2.73382 13.6833 2.20049 13.4C1.66716 13.1 1.25049 12.6917 0.950488 12.175C0.650488 11.6583 0.500488 11.075 0.500488 10.425C0.500488 9.79167 0.650488 9.21667 0.950488 8.7C1.25049 8.16667 1.66716 7.75 2.20049 7.45C2.73382 7.15 3.33382 7 4.00049 7H8.40049V6.15C8.40049 5.25 8.70882 4.5 9.32549 3.9C9.94216 3.3 10.7255 3 11.6755 3C12.2422 3 12.7672 3.10833 13.2505 3.325C13.7338 3.54167 14.1672 3.85833 14.5505 4.275L18.8005 8.725L16.1005 7H22.0005V20H11.5505ZM19.6005 17.65V9.35H16.1255L12.9505 6C12.7172 5.76667 12.5088 5.6 12.3255 5.5C12.1422 5.4 11.9338 5.35 11.7005 5.35C11.4338 5.35 11.2088 5.44167 11.0255 5.625C10.8588 5.79167 10.7755 6.00833 10.7755 6.275V9.325H3.97549C3.65882 9.325 3.40049 9.43333 3.20049 9.65C3.00049 9.85 2.90049 10.1083 2.90049 10.425C2.90049 10.725 3.00049 10.9833 3.20049 11.2C3.40049 11.4 3.65882 11.5 3.97549 11.5H8.85049L9.72549 16.225C9.79216 16.6583 9.97549 17.0083 10.2755 17.275C10.5922 17.525 10.9672 17.65 11.4005 17.65H19.6005ZM15.2755 18.1V7.275L17.6505 9.025V18.1H15.2755Z" fill="black"/>
</g>
<defs>
<clipPath id="clip0_3207_17922">
<rect width="24" height="24" fill="white"/>
</clipPath>
</defs>
</svg>
