<svg width="24" height="24" viewBox="0 0 24 24" fill="none" xmlns="http://www.w3.org/2000/svg">
<g clip-path="url(#clip0_3207_17920)">
<rect width="24" height="24" fill="white"/>
<path d="M11.6255 20C10.6755 20 9.83382 19.7 9.10049 19.1C8.38382 18.4833 7.94216 17.7167 7.77549 16.8L6.77549 11.325L8.17549 13H3.57549C2.97549 13 2.44216 12.875 1.97549 12.625C1.50882 12.3583 1.14215 12 0.875488 11.55C0.625488 11.1 0.500488 10.5833 0.500488 10C0.500488 9.43333 0.625488 8.925 0.875488 8.475C1.14215 8.00833 1.50882 7.65 1.97549 7.4C2.44216 7.13333 2.97549 7 3.57549 7H9.00049V5.85C9.00049 5.05 9.27549 4.375 9.82549 3.825C10.3755 3.275 11.0422 3 11.8255 3C12.3255 3 12.7838 3.09167 13.2005 3.275C13.6172 3.45833 13.9922 3.71667 14.3255 4.05L18.9005 8.6L16.0755 7H22.0005V20H11.6255ZM20.1505 18.2V8.8H16.5755L13.1505 5.425C12.9005 5.20833 12.6838 5.05 12.5005 4.95C12.3172 4.85 12.1005 4.8 11.8505 4.8C11.5672 4.8 11.3255 4.9 11.1255 5.1C10.9422 5.3 10.8505 5.55 10.8505 5.85V8.8H3.52549C3.17549 8.8 2.89216 8.91667 2.67549 9.15C2.45882 9.36667 2.35049 9.65 2.35049 10C2.35049 10.35 2.45882 10.6417 2.67549 10.875C2.89216 11.0917 3.17549 11.2 3.52549 11.2H8.62549L9.60049 16.5C9.68382 17 9.91716 17.4083 10.3005 17.725C10.6838 18.0417 11.1255 18.2 11.6255 18.2H20.1505ZM16.0005 18.525V7.275L17.8505 8.6V18.525H16.0005Z" fill="black"/>
</g>
<defs>
<clipPath id="clip0_3207_17920">
<rect width="24" height="24" fill="white"/>
</clipPath>
</defs>
</svg>
