<svg width="24" height="24" viewBox="0 0 24 24" fill="none" xmlns="http://www.w3.org/2000/svg">
<g clip-path="url(#clip0_3207_17936)">
<rect width="24" height="24" fill="white"/>
<path d="M18.975 20V8H22V20H18.975ZM16.975 8V20H11.95C10.8833 20 10.0333 19.7417 9.4 19.225C8.78333 18.6917 8.36667 17.9 8.15 16.85L7.225 12.225L2.5 11.8C1.91667 11.75 1.43333 11.5417 1.05 11.175C0.683333 10.8083 0.5 10.3583 0.5 9.825C0.5 9.29167 0.683333 8.85833 1.05 8.525C1.43333 8.175 1.91667 8 2.5 8H9.75V4.875C9.75 4.35833 9.925 3.91667 10.275 3.55C10.6417 3.18333 11.0833 3 11.6 3C12.0333 3 12.4167 3.1 12.75 3.3C13.0833 3.48333 13.425 3.78333 13.775 4.2L16.975 8Z" fill="black"/>
</g>
<defs>
<clipPath id="clip0_3207_17936">
<rect width="24" height="24" fill="white"/>
</clipPath>
</defs>
</svg>
