<svg width="24" height="24" viewBox="0 0 24 24" fill="none" xmlns="http://www.w3.org/2000/svg">
<g clip-path="url(#clip0_3207_17926)">
<rect width="24" height="24" fill="white"/>
<path d="M11.3755 20C10.0422 20 8.95882 19.6667 8.12549 19C7.29216 18.3333 6.76716 17.35 6.55049 16.05L5.90049 12.275L7.82549 15.425H4.82549C4.02549 15.425 3.29216 15.2417 2.62549 14.875C1.97549 14.4917 1.45882 13.9833 1.07549 13.35C0.692155 12.7 0.500488 11.9917 0.500488 11.225C0.500488 10.4583 0.692155 9.75 1.07549 9.1C1.45882 8.45 1.97549 7.94167 2.62549 7.575C3.29216 7.19167 4.02549 7 4.82549 7H7.22549V6.725C7.22549 5.64167 7.60049 4.75 8.35049 4.05C9.10049 3.35 10.1088 3 11.3755 3C12.1088 3 12.7755 3.14167 13.3755 3.425C13.9755 3.70833 14.5088 4.125 14.9755 4.675L18.5755 8.95L16.1505 7H22.0005V20H11.3755ZM18.5505 16.6V10.4H15.2505L12.5755 7.075C12.3755 6.825 12.1838 6.65 12.0005 6.55C11.8172 6.45 11.6172 6.4 11.4005 6.4C11.2005 6.4 11.0172 6.46667 10.8505 6.6C10.7005 6.71667 10.6255 6.86667 10.6255 7.05V10.35H4.82549C4.57549 10.35 4.36716 10.4333 4.20049 10.6C4.03382 10.7667 3.95049 10.9667 3.95049 11.2C3.95049 11.45 4.03382 11.6583 4.20049 11.825C4.36716 11.9917 4.57549 12.075 4.82549 12.075H9.27549L9.95049 15.75C10.0005 16.0167 10.1172 16.225 10.3005 16.375C10.4838 16.525 10.7172 16.6 11.0005 16.6H18.5505ZM13.8755 17.3V7.275L17.2755 9.8V17.3H13.8755Z" fill="black"/>
</g>
<defs>
<clipPath id="clip0_3207_17926">
<rect width="24" height="24" fill="white"/>
</clipPath>
</defs>
</svg>
