<svg width="24" height="24" viewBox="0 0 24 24" fill="none" xmlns="http://www.w3.org/2000/svg">
<g clip-path="url(#clip0_3207_17972)">
<rect width="24" height="24" fill="white"/>
<path d="M20.0005 12.375C20.0005 13.325 19.6922 14.1667 19.0755 14.9C18.4755 15.6167 17.7172 16.0583 16.8005 16.225L11.3255 17.2L13.0005 15.825V20.425C13.0005 21.025 12.8672 21.5583 12.6005 22.025C12.3505 22.4917 12.0005 22.85 11.5505 23.1C11.1005 23.3667 10.5838 23.5 10.0005 23.5C9.43382 23.5 8.92549 23.3667 8.47549 23.1C8.02549 22.85 7.66716 22.4917 7.40049 22.025C7.15049 21.5583 7.02549 21.025 7.02549 20.425V14.975H5.80049C5.01716 14.975 4.35049 14.7 3.80049 14.15C3.26716 13.6 3.00049 12.9333 3.00049 12.15C3.00049 11.6 3.10049 11.1 3.30049 10.65C3.51716 10.2 3.88382 9.75833 4.40049 9.325L8.60049 5.8L7.02549 7.925V2H20.0005V12.375ZM18.1505 3.8H8.90049V7.95L5.52549 10.725C5.27549 10.925 5.09216 11.1417 4.97549 11.375C4.85882 11.5917 4.80049 11.8417 4.80049 12.125C4.80049 12.4083 4.89216 12.6583 5.07549 12.875C5.27549 13.075 5.51716 13.175 5.80049 13.175H8.85049V20.475C8.85049 20.825 8.95882 21.1083 9.17549 21.325C9.39216 21.5417 9.66716 21.65 10.0005 21.65C10.3505 21.65 10.6338 21.5417 10.8505 21.325C11.0672 21.1083 11.1755 20.825 11.1755 20.475V15.4L16.5005 14.45C16.9838 14.3667 17.3755 14.1333 17.6755 13.75C17.9922 13.35 18.1505 12.8917 18.1505 12.375V3.8ZM18.5255 7.925H7.27549L8.60049 6.125H18.5255V7.925Z" fill="black"/>
</g>
<defs>
<clipPath id="clip0_3207_17972">
<rect width="24" height="24" fill="white"/>
</clipPath>
</defs>
</svg>
