<svg width="24" height="24" viewBox="0 0 24 24" fill="none" xmlns="http://www.w3.org/2000/svg">
<g clip-path="url(#clip0_3207_15428)">
<rect width="24" height="24" fill="white"/>
<path d="M2.00049 8H6.97549L6.55049 8.25L9.97549 4.2C10.3255 3.78333 10.6672 3.48333 11.0005 3.3C11.3505 3.1 11.7338 3 12.1505 3C12.6672 3 13.1005 3.18333 13.4505 3.55C13.8172 3.91667 14.0005 4.35833 14.0005 4.875V8H21.5005C21.8672 8 22.2005 8.09167 22.5005 8.275C22.8172 8.44167 23.0588 8.68333 23.2255 9C23.4088 9.3 23.5005 9.63333 23.5005 10C23.5005 10.3667 23.4088 10.7083 23.2255 11.025C23.0588 11.325 22.8172 11.5667 22.5005 11.75C22.2005 11.9167 21.8672 12 21.5005 12H16.8255L17.2005 11.575L16.2005 16.85C16.0005 17.9 15.5838 18.6917 14.9505 19.225C14.3172 19.7417 13.4672 20 12.4005 20H2.00049V8ZM12.4255 19.525C13.3422 19.525 14.0755 19.3 14.6255 18.85C15.1755 18.4 15.5338 17.725 15.7005 16.825L16.7005 11.525H21.5005C21.9172 11.525 22.2672 11.3833 22.5505 11.1C22.8505 10.8 23.0005 10.4333 23.0005 10C23.0005 9.56667 22.8505 9.20833 22.5505 8.925C22.2672 8.625 21.9172 8.475 21.5005 8.475H13.5005V4.875C13.5005 4.49167 13.3672 4.16667 13.1005 3.9C12.8338 3.61667 12.5172 3.475 12.1505 3.475C11.8005 3.475 11.4838 3.56667 11.2005 3.75C10.9172 3.91667 10.6088 4.19167 10.2755 4.575L7.00049 8.475H2.50049V19.525H12.4255ZM6.50049 8.35H7.00049V19.6H6.50049V8.35Z" fill="black"/>
</g>
<defs>
<clipPath id="clip0_3207_15428">
<rect width="24" height="24" fill="white"/>
</clipPath>
</defs>
</svg>
