<svg width="24" height="24" viewBox="0 0 24 24" fill="none" xmlns="http://www.w3.org/2000/svg">
<g clip-path="url(#clip0_3207_17930)">
<rect width="24" height="24" fill="white"/>
<path d="M18.225 20V8H22V20H18.225ZM17.225 8V20H12.2C11.1333 20 10.2833 19.7417 9.65 19.225C9.01667 18.6917 8.6 17.9 8.4 16.85L7.475 12.05L2.425 11.625C1.85833 11.575 1.39167 11.375 1.025 11.025C0.675 10.675 0.5 10.25 0.5 9.75C0.5 9.23333 0.675 8.81667 1.025 8.5C1.39167 8.16667 1.85833 8 2.425 8H10V4.875C10 4.35833 10.175 3.91667 10.525 3.55C10.8917 3.18333 11.3333 3 11.85 3C12.2833 3 12.6667 3.1 13 3.3C13.3333 3.48333 13.675 3.78333 14.025 4.2L17.225 8Z" fill="black"/>
</g>
<defs>
<clipPath id="clip0_3207_17930">
<rect width="24" height="24" fill="white"/>
</clipPath>
</defs>
</svg>
