<svg width="24" height="24" viewBox="0 0 24 24" fill="none" xmlns="http://www.w3.org/2000/svg">
<g clip-path="url(#clip0_3207_15971)">
<rect width="24" height="24" fill="white"/>
<path d="M3.00049 9H8.97549L10.5755 4.2C10.7922 3.58333 11.1422 3.10833 11.6255 2.775C12.1088 2.425 12.6755 2.25 13.3255 2.25C13.8088 2.25 14.2422 2.36667 14.6255 2.6C15.0088 2.81667 15.3005 3.125 15.5005 3.525C15.7172 3.90833 15.8255 4.34167 15.8255 4.825V9H19.1505C19.7672 9 20.3088 9.14167 20.7755 9.425C21.2422 9.70833 21.5755 10.1 21.7755 10.6C21.9755 11.0833 22.0255 11.625 21.9255 12.225L20.8505 17.8C20.6672 18.75 20.2255 19.525 19.5255 20.125C18.8255 20.7083 17.9922 21 17.0255 21H3.00049V9ZM17.0505 19.65C17.6505 19.65 18.1672 19.4583 18.6005 19.075C19.0505 18.6917 19.3422 18.1917 19.4755 17.575L20.5255 12.025C20.6255 11.5417 20.5422 11.1417 20.2755 10.825C20.0255 10.5083 19.6588 10.35 19.1755 10.35H14.4255V4.825C14.4255 4.45833 14.3172 4.16667 14.1005 3.95C13.8838 3.71667 13.6088 3.6 13.2755 3.6C12.9422 3.6 12.6505 3.70833 12.4005 3.925C12.1505 4.125 11.9672 4.40833 11.8505 4.775L9.97549 10.35H4.40049V19.65H17.0505ZM8.60049 10.1L10.0005 9.25V19.975H8.60049V10.1Z" fill="black"/>
</g>
<defs>
<clipPath id="clip0_3207_15971">
<rect width="24" height="24" fill="white"/>
</clipPath>
</defs>
</svg>
