<svg width="24" height="24" viewBox="0 0 24 24" fill="none" xmlns="http://www.w3.org/2000/svg">
<g clip-path="url(#clip0_3207_15268)">
<rect width="24" height="24" fill="white"/>
<path d="M3.00049 9H9.65049L11.3005 4.025C11.5005 3.425 11.7838 2.98333 12.1505 2.7C12.5338 2.4 13.0005 2.25 13.5505 2.25C13.9505 2.25 14.3005 2.33333 14.6005 2.5C14.9005 2.66667 15.1255 2.9 15.2755 3.2C15.4255 3.5 15.5005 3.85 15.5005 4.25V9H19.4505C20.0172 9 20.5005 9.125 20.9005 9.375C21.3172 9.625 21.6088 9.96667 21.7755 10.4C21.9588 10.8333 22.0005 11.3167 21.9005 11.85L20.7505 17.825C20.5672 18.8083 20.1338 19.5833 19.4505 20.15C18.7672 20.7167 17.9422 21 16.9755 21H3.00049V9ZM17.0255 20.525C17.8588 20.525 18.5588 20.2833 19.1255 19.8C19.7088 19.3 20.0838 18.6333 20.2505 17.8L21.4005 11.775C21.5338 11.1083 21.4172 10.5583 21.0505 10.125C20.7005 9.69167 20.1755 9.475 19.4755 9.475H15.0005V4.25C15.0005 3.78333 14.8755 3.41667 14.6255 3.15C14.3755 2.86667 14.0172 2.725 13.5505 2.725C13.1172 2.725 12.7422 2.85833 12.4255 3.125C12.1088 3.375 11.8672 3.76667 11.7005 4.3L9.97549 9.475H3.50049V20.525H17.0255ZM9.47549 9.25H9.97549V20.8H9.47549V9.25Z" fill="black"/>
</g>
<defs>
<clipPath id="clip0_3207_15268">
<rect width="24" height="24" fill="white"/>
</clipPath>
</defs>
</svg>
