<svg width="24" height="24" viewBox="0 0 24 24" fill="none" xmlns="http://www.w3.org/2000/svg">
<g clip-path="url(#clip0_3351_769)">
<rect width="24" height="24" fill="white"/>
<path d="M3.00049 8.85H8.42549L9.82549 4.675C10.0755 3.925 10.5005 3.33333 11.1005 2.9C11.7172 2.46667 12.4338 2.25 13.2505 2.25C13.8505 2.25 14.4005 2.4 14.9005 2.7C15.4005 2.98333 15.7922 3.38333 16.0755 3.9C16.3755 4.4 16.5255 4.95 16.5255 5.55V8.85H18.7755C19.4922 8.85 20.1088 9.00833 20.6255 9.325C21.1588 9.64167 21.5338 10.0833 21.7505 10.65C21.9838 11.2 22.0338 11.825 21.9005 12.525L20.9255 17.675C20.7422 18.6583 20.2838 19.4583 19.5505 20.075C18.8172 20.6917 17.9505 21 16.9505 21H3.00049V8.85ZM16.9005 18.675C17.3338 18.675 17.7005 18.5417 18.0005 18.275C18.3005 18.0083 18.5005 17.65 18.6005 17.2L19.5505 12.25C19.6172 11.9333 19.5672 11.675 19.4005 11.475C19.2338 11.275 19.0005 11.175 18.7005 11.175H14.1505V5.575C14.1505 5.275 14.0505 5.03333 13.8505 4.85C13.6672 4.66667 13.4422 4.575 13.1755 4.575C12.9255 4.575 12.7005 4.65 12.5005 4.8C12.3005 4.95 12.1588 5.15833 12.0755 5.425L10.1005 11.15H5.37549V18.675H16.9005ZM8.10049 10.4L10.4505 9.1V19.5H8.10049V10.4Z" fill="black"/>
</g>
<defs>
<clipPath id="clip0_3351_769">
<rect width="24" height="24" fill="white"/>
</clipPath>
</defs>
</svg>
