<svg width="24" height="24" viewBox="0 0 24 24" fill="none" xmlns="http://www.w3.org/2000/svg">
<g clip-path="url(#clip0_3351_807)">
<rect width="24" height="24" fill="white"/>
<path d="M7.85049 16.875L5.97549 16.375V11.175C5.97549 10.2917 6.23382 9.48333 6.75049 8.75C7.28382 8.01667 8.00882 7.44167 8.92549 7.025C9.84216 6.60833 10.8672 6.4 12.0005 6.4C13.1338 6.4 14.1588 6.60833 15.0755 7.025C15.9922 7.44167 16.7088 8.01667 17.2255 8.75C17.7588 9.48333 18.0255 10.2917 18.0255 11.175V16.375L16.1505 16.875L15.6755 23H8.32549L7.85049 16.875ZM12.4755 19.55L12.9255 14.175L14.5255 13.675V11.2C14.5255 10.8167 14.3088 10.5 13.8755 10.25C13.4588 9.98333 12.8338 9.85 12.0005 9.85C11.1672 9.85 10.5338 9.98333 10.1005 10.25C9.68382 10.5 9.47549 10.8167 9.47549 11.2V13.675L11.0755 14.175L11.5255 19.55H12.4755ZM12.0005 5.525C11.3338 5.525 10.7672 5.3 10.3005 4.85C9.85049 4.38333 9.62549 3.81667 9.62549 3.15C9.62549 2.48333 9.85049 1.925 10.3005 1.475C10.7672 1.00833 11.3338 0.775 12.0005 0.775C12.6672 0.775 13.2255 1.00833 13.6755 1.475C14.1422 1.925 14.3755 2.48333 14.3755 3.15C14.3755 3.81667 14.1422 4.38333 13.6755 4.85C13.2255 5.3 12.6672 5.525 12.0005 5.525ZM12.0005 2.3C12.2005 2.3 12.3422 2.3 12.4255 2.3C12.5255 2.3 12.6672 2.3 12.8505 2.3C12.6505 2.3 12.5005 2.3 12.4005 2.3C12.3172 2.3 12.1838 2.3 12.0005 2.3C11.8005 2.3 11.6505 2.3 11.5505 2.3C11.4672 2.3 11.3338 2.3 11.1505 2.3C11.3505 2.3 11.4922 2.3 11.5755 2.3C11.6755 2.3 11.8172 2.3 12.0005 2.3Z" fill="black"/>
</g>
<defs>
<clipPath id="clip0_3351_807">
<rect width="24" height="24" fill="white"/>
</clipPath>
</defs>
</svg>
