<svg width="24" height="24" viewBox="0 0 24 24" fill="none" xmlns="http://www.w3.org/2000/svg">
<g clip-path="url(#clip0_3351_805)">
<rect width="24" height="24" fill="white"/>
<path d="M8.32549 16.25L6.65049 15.75V10.4C6.65049 9.61667 6.87549 8.9 7.32549 8.25C7.79216 7.6 8.43382 7.09167 9.25049 6.725C10.0672 6.35833 10.9838 6.175 12.0005 6.175C13.0172 6.175 13.9338 6.35833 14.7505 6.725C15.5672 7.09167 16.2005 7.6 16.6505 8.25C17.1172 8.9 17.3505 9.61667 17.3505 10.4V15.75L15.6755 16.25L15.2005 23H8.80049L8.32549 16.25ZM12.6505 20.325L13.1255 14.2L14.6255 13.7V10.425C14.6255 9.99167 14.3922 9.625 13.9255 9.325C13.4588 9.00833 12.8172 8.85 12.0005 8.85C11.1838 8.85 10.5422 9.00833 10.0755 9.325C9.60882 9.625 9.37549 9.99167 9.37549 10.425V13.7L10.8755 14.2L11.3505 20.325H12.6505ZM12.0005 5.025C11.4005 5.025 10.8922 4.81667 10.4755 4.4C10.0755 3.98333 9.87549 3.475 9.87549 2.875C9.87549 2.29167 10.0755 1.8 10.4755 1.4C10.8922 0.983333 11.4005 0.775 12.0005 0.775C12.6005 0.775 13.1005 0.983333 13.5005 1.4C13.9172 1.8 14.1255 2.29167 14.1255 2.875C14.1255 3.475 13.9172 3.98333 13.5005 4.4C13.1005 4.81667 12.6005 5.025 12.0005 5.025ZM12.0005 2.575C12.1838 2.575 12.3172 2.575 12.4005 2.575C12.5005 2.575 12.6338 2.575 12.8005 2.575C12.6172 2.575 12.4755 2.575 12.3755 2.575C12.2922 2.575 12.1672 2.575 12.0005 2.575C11.8172 2.575 11.6755 2.575 11.5755 2.575C11.4922 2.575 11.3672 2.575 11.2005 2.575C11.3838 2.575 11.5172 2.575 11.6005 2.575C11.7005 2.575 11.8338 2.575 12.0005 2.575Z" fill="black"/>
</g>
<defs>
<clipPath id="clip0_3351_805">
<rect width="24" height="24" fill="white"/>
</clipPath>
</defs>
</svg>
