<svg width="24" height="24" viewBox="0 0 24 24" fill="none" xmlns="http://www.w3.org/2000/svg">
<g clip-path="url(#clip0_3351_799)">
<rect width="24" height="24" fill="white"/>
<path d="M9.00049 16.3L7.15049 15.8V10.6C7.15049 9.85 7.35882 9.20833 7.77549 8.675C8.19216 8.125 8.75882 7.70833 9.47549 7.425C10.2088 7.14167 11.0505 7 12.0005 7C12.9505 7 13.7838 7.14167 14.5005 7.425C15.2338 7.70833 15.8088 8.125 16.2255 8.675C16.6422 9.20833 16.8505 9.85 16.8505 10.6V15.8L15.0005 16.3L14.4755 23H9.52549L9.00049 16.3ZM13.1755 21.65L13.6755 15.25L15.4505 14.75V10.6C15.4505 9.91667 15.1505 9.375 14.5505 8.975C13.9672 8.55833 13.1172 8.35 12.0005 8.35C10.8838 8.35 10.0255 8.55833 9.42549 8.975C8.84216 9.375 8.55049 9.91667 8.55049 10.6V14.75L10.3255 15.25L10.8255 21.65H13.1755ZM11.9755 5.9C11.2588 5.9 10.6505 5.65 10.1505 5.15C9.66716 4.65 9.42549 4.04167 9.42549 3.325C9.42549 2.60833 9.66716 2.00833 10.1505 1.525C10.6505 1.025 11.2588 0.775 11.9755 0.775C12.7088 0.775 13.3255 1.025 13.8255 1.525C14.3255 2.00833 14.5755 2.60833 14.5755 3.325C14.5755 4.04167 14.3255 4.65 13.8255 5.15C13.3255 5.65 12.7088 5.9 11.9755 5.9ZM11.9755 4.675C12.3588 4.675 12.6755 4.54167 12.9255 4.275C13.1922 4.00833 13.3255 3.69167 13.3255 3.325C13.3255 2.94167 13.1922 2.625 12.9255 2.375C12.6755 2.125 12.3588 2 11.9755 2C11.6088 2 11.3005 2.125 11.0505 2.375C10.8005 2.625 10.6755 2.94167 10.6755 3.325C10.6755 3.70833 10.8005 4.03333 11.0505 4.3C11.3005 4.55 11.6088 4.675 11.9755 4.675Z" fill="black"/>
</g>
<defs>
<clipPath id="clip0_3351_799">
<rect width="24" height="24" fill="white"/>
</clipPath>
</defs>
</svg>
