<svg width="24" height="24" viewBox="0 0 24 24" fill="none" xmlns="http://www.w3.org/2000/svg">
<g clip-path="url(#clip0_3207_17538)">
<rect width="24" height="24" fill="white"/>
<path d="M9.375 15.5L7.475 14.975V10.025C7.475 8.90833 7.88333 8.06667 8.7 7.5C9.51667 6.93333 10.6167 6.65 12 6.65C13.3833 6.65 14.4833 6.93333 15.3 7.5C16.1167 8.06667 16.525 8.90833 16.525 10.025V14.975L14.625 15.5L14.025 23H9.975L9.375 15.5ZM12 5.275C11.3833 5.275 10.85 5.05833 10.4 4.625C9.96667 4.175 9.75 3.64167 9.75 3.025C9.75 2.39167 9.96667 1.85833 10.4 1.425C10.85 0.991666 11.3833 0.775 12 0.775C12.6333 0.775 13.1667 0.991666 13.6 1.425C14.0333 1.85833 14.25 2.39167 14.25 3.025C14.25 3.64167 14.0333 4.175 13.6 4.625C13.1667 5.05833 12.6333 5.275 12 5.275Z" fill="black"/>
</g>
<defs>
<clipPath id="clip0_3207_17538">
<rect width="24" height="24" fill="white"/>
</clipPath>
</defs>
</svg>
