<svg width="24" height="24" viewBox="0 0 24 24" fill="none" xmlns="http://www.w3.org/2000/svg">
<g clip-path="url(#clip0_3207_15581)">
<rect width="24" height="24" fill="white"/>
<path d="M12.9505 22.5C10.9505 22.5 9.25049 22.0917 7.85049 21.275C6.46716 20.475 5.24216 19.1583 4.17549 17.325L1.67549 13.025C1.34215 12.425 1.23382 11.825 1.35049 11.225C1.46716 10.625 1.77549 10.15 2.27549 9.8C2.82549 9.45 3.40049 9.325 4.00049 9.425C4.60049 9.525 5.10882 9.825 5.52549 10.325L7.65049 12.75L7.22549 12.925V4.55C7.22549 4.13333 7.32549 3.75833 7.52549 3.425C7.74216 3.075 8.01716 2.8 8.35049 2.6C8.70049 2.38333 9.08382 2.275 9.50049 2.275C9.86716 2.275 10.2088 2.375 10.5255 2.575C10.8588 2.775 11.1172 3.05 11.3005 3.4C11.5005 3.73333 11.6005 4.11667 11.6005 4.55L10.4255 3.325C10.4255 2.89167 10.5172 2.50833 10.7005 2.175C10.8838 1.825 11.1422 1.55 11.4755 1.35C11.8088 1.13333 12.1755 1.025 12.5755 1.025C12.9588 1.025 13.3088 1.13333 13.6255 1.35C13.9588 1.55 14.2255 1.825 14.4255 2.175C14.6255 2.50833 14.7255 2.88333 14.7255 3.3L13.5755 4.55C13.5755 3.9 13.7755 3.35833 14.1755 2.925C14.5922 2.49167 15.0922 2.275 15.6755 2.275C16.0922 2.275 16.4672 2.38333 16.8005 2.6C17.1338 2.8 17.3922 3.075 17.5755 3.425C17.7755 3.75833 17.8755 4.13333 17.8755 4.55V5.8L16.6755 6.8C16.6755 6.16667 16.8755 5.63333 17.2755 5.2C17.6755 4.75 18.1588 4.525 18.7255 4.525C19.3588 4.525 19.8922 4.75 20.3255 5.2C20.7755 5.63333 21.0005 6.16667 21.0005 6.8V14.45C21.0005 15.95 20.6755 17.3167 20.0255 18.55C19.3755 19.7667 18.4338 20.725 17.2005 21.425C15.9838 22.1417 14.5672 22.5 12.9505 22.5ZM12.9505 21.175C14.3172 21.175 15.5005 20.8833 16.5005 20.3C17.5172 19.7 18.2922 18.8917 18.8255 17.875C19.3588 16.8417 19.6255 15.7 19.6255 14.45V6.75C19.6255 6.5 19.5422 6.28333 19.3755 6.1C19.2088 5.91667 19.0005 5.825 18.7505 5.825C18.5005 5.825 18.2838 5.91667 18.1005 6.1C17.9172 6.28333 17.8255 6.5 17.8255 6.75V11.2C17.8255 11.4 17.7672 11.5583 17.6505 11.675C17.5505 11.775 17.4005 11.825 17.2005 11.825C17.0005 11.825 16.8422 11.775 16.7255 11.675C16.6255 11.5583 16.5755 11.4 16.5755 11.2V4.475C16.5755 4.225 16.4838 4.01667 16.3005 3.85C16.1172 3.66667 15.9088 3.575 15.6755 3.575C15.4088 3.575 15.1838 3.66667 15.0005 3.85C14.8172 4.01667 14.7255 4.225 14.7255 4.475V10.875C14.7255 11.075 14.6672 11.2333 14.5505 11.35C14.4505 11.45 14.3005 11.5 14.1005 11.5C13.9005 11.5 13.7422 11.45 13.6255 11.35C13.5255 11.2333 13.4755 11.075 13.4755 10.875V3.25C13.4755 3 13.3838 2.78333 13.2005 2.6C13.0172 2.41667 12.8088 2.325 12.5755 2.325C12.3088 2.325 12.0838 2.41667 11.9005 2.6C11.7338 2.78333 11.6505 3 11.6505 3.25V10.875C11.6505 11.075 11.5922 11.2333 11.4755 11.35C11.3755 11.45 11.2255 11.5 11.0255 11.5C10.8255 11.5 10.6672 11.45 10.5505 11.35C10.4338 11.2333 10.3755 11.075 10.3755 10.875V4.5C10.3755 4.25 10.2838 4.03333 10.1005 3.85C9.93382 3.66667 9.72549 3.575 9.47549 3.575C9.22549 3.575 9.00882 3.66667 8.82549 3.85C8.64216 4.03333 8.55049 4.25 8.55049 4.5V12.225C8.55049 12.6583 8.41716 13.0083 8.15049 13.275C7.88382 13.525 7.55882 13.6417 7.17549 13.625C6.80882 13.6083 6.50882 13.4583 6.27549 13.175L4.47549 11.15C4.27549 10.9333 4.04216 10.8 3.77549 10.75C3.50882 10.7 3.26716 10.75 3.05049 10.9C2.85049 11.0333 2.72549 11.2333 2.67549 11.5C2.64216 11.7667 2.69216 12.025 2.82549 12.275L5.35049 16.65C6.26716 18.2167 7.32549 19.3667 8.52549 20.1C9.74216 20.8167 11.2172 21.175 12.9505 21.175Z" fill="black"/>
</g>
<defs>
<clipPath id="clip0_3207_15581">
<rect width="24" height="24" fill="white"/>
</clipPath>
</defs>
</svg>
