<svg width="24" height="24" viewBox="0 0 24 24" fill="none" xmlns="http://www.w3.org/2000/svg">
<g clip-path="url(#clip0_3207_16397)">
<rect width="24" height="24" fill="white"/>
<path d="M9.8 22.5C8.68333 22.5 7.65833 22.2333 6.725 21.7C5.80833 21.1667 5.08333 20.4417 4.55 19.525C4.01667 18.5917 3.75 17.5667 3.75 16.45C3.75 15.4333 3.975 14.5 4.425 13.65C4.875 12.8 5.48333 12.1 6.25 11.55C7.03333 10.9833 7.9 10.625 8.85 10.475V10.95C8 11.0833 7.225 11.4083 6.525 11.925C5.825 12.4417 5.26667 13.0917 4.85 13.875C4.45 14.6583 4.25 15.5167 4.25 16.45C4.25 17.4833 4.49167 18.425 4.975 19.275C5.475 20.125 6.15 20.7917 7 21.275C7.85 21.775 8.78333 22.025 9.8 22.025C10.8167 22.025 11.7417 21.775 12.575 21.275C13.425 20.7917 14.0917 20.125 14.575 19.275C15.075 18.425 15.325 17.4833 15.325 16.45V15.625H15.8V16.45C15.8 17.5667 15.5333 18.5917 15 19.525C14.4667 20.4417 13.7417 21.1667 12.825 21.7C11.9083 22.2333 10.9 22.5 9.8 22.5ZM10.75 5C10.1833 5 9.70833 4.80833 9.325 4.425C8.94167 4.04167 8.75 3.56667 8.75 3C8.75 2.43333 8.94167 1.95833 9.325 1.575C9.70833 1.19167 10.1833 1 10.75 1C11.3167 1 11.7917 1.19167 12.175 1.575C12.5583 1.95833 12.75 2.43333 12.75 3C12.75 3.56667 12.5583 4.04167 12.175 4.425C11.7917 4.80833 11.3167 5 10.75 5ZM15.8 16H11.075C10.5083 16 10.0167 15.8 9.6 15.4C9.18333 14.9833 8.95833 14.4833 8.925 13.9L8.625 8.4C8.59167 7.91667 8.75 7.51667 9.1 7.2C9.46667 6.88333 9.94167 6.725 10.525 6.725C11.1083 6.725 11.5917 6.88333 11.975 7.2C12.375 7.51667 12.5917 7.91667 12.625 8.4L12.95 12.55L16.7 12.825C17.25 12.8583 17.7083 13.025 18.075 13.325C18.4583 13.625 18.7 14.0583 18.8 14.625L19.875 20.925C19.9417 21.3917 19.85 21.775 19.6 22.075C19.35 22.375 18.9833 22.525 18.5 22.525C18.15 22.525 17.85 22.4167 17.6 22.2C17.35 21.9833 17.1833 21.7 17.1 21.35L15.8 16Z" fill="black"/>
</g>
<defs>
<clipPath id="clip0_3207_16397">
<rect width="24" height="24" fill="white"/>
</clipPath>
</defs>
</svg>
