<svg width="24" height="24" viewBox="0 0 24 24" fill="none" xmlns="http://www.w3.org/2000/svg">
<g clip-path="url(#clip0_3373_4707)">
<rect width="24" height="24" fill="white"/>
<path d="M9.92549 22.5C8.79216 22.5 7.75049 22.225 6.80049 21.675C5.85049 21.1417 5.10049 20.4 4.55049 19.45C4.01716 18.5 3.75049 17.4583 3.75049 16.325C3.75049 15.2083 4.03382 14.1833 4.60049 13.25C5.16716 12.3 5.92549 11.5583 6.87549 11.025C7.82549 10.475 8.85882 10.2 9.97549 10.2L9.80049 12.8C9.18382 12.8 8.61716 12.9583 8.10049 13.275C7.58382 13.5917 7.17549 14.025 6.87549 14.575C6.57549 15.1083 6.42549 15.7 6.42549 16.35C6.42549 17 6.57549 17.6 6.87549 18.15C7.19215 18.6833 7.61715 19.1083 8.15049 19.425C8.68382 19.725 9.27549 19.875 9.92549 19.875C10.5588 19.875 11.1338 19.725 11.6505 19.425C12.1838 19.1083 12.6005 18.6833 12.9005 18.15C13.2172 17.6 13.3755 17 13.3755 16.35V14.65L16.0505 14.7V16.325C16.0505 17.4583 15.7755 18.5 15.2255 19.45C14.6922 20.4 13.9505 21.1417 13.0005 21.675C12.0672 22.225 11.0422 22.5 9.92549 22.5ZM16.1255 16H11.5005C10.9838 16 10.5505 15.825 10.2005 15.475C9.85049 15.125 9.65882 14.6833 9.62549 14.15L9.22549 8.125C9.20882 7.75833 9.32549 7.46667 9.57549 7.25C9.82549 7.01667 10.1588 6.9 10.5755 6.9C10.9755 6.9 11.3172 7.01667 11.6005 7.25C11.8838 7.46667 12.0338 7.75833 12.0505 8.125L12.4255 13.175H16.7255C17.2588 13.175 17.7172 13.3417 18.1005 13.675C18.4838 14.0083 18.7172 14.4333 18.8005 14.95L19.8755 20.9C19.9588 21.3667 19.8588 21.75 19.5755 22.05C19.3088 22.3667 18.9338 22.525 18.4505 22.525C18.1005 22.525 17.8005 22.4167 17.5505 22.2C17.3172 21.9833 17.1588 21.6917 17.0755 21.325L16.1255 16ZM11.2005 14.225C11.2172 14.225 11.2255 14.225 11.2255 14.225C11.2422 14.225 11.2505 14.225 11.2505 14.225H11.2005C11.2005 14.225 11.1922 14.225 11.1755 14.225C11.1755 14.225 11.1672 14.225 11.1505 14.225H11.0255C11.0255 14.225 11.0172 14.225 11.0005 14.225H11.1755H11.2005ZM10.9005 5.25C10.3005 5.25 9.79216 5.04167 9.37549 4.625C8.97549 4.20833 8.77549 3.7 8.77549 3.1C8.77549 2.51667 8.97549 2.025 9.37549 1.625C9.79216 1.20833 10.3005 1 10.9005 1C11.5005 1 12.0005 1.20833 12.4005 1.625C12.8172 2.025 13.0255 2.51667 13.0255 3.1C13.0255 3.7 12.8172 4.20833 12.4005 4.625C12.0005 5.04167 11.5005 5.25 10.9005 5.25ZM10.9005 2.8C11.0838 2.8 11.2172 2.8 11.3005 2.8C11.3838 2.8 11.5172 2.8 11.7005 2.8C11.5005 2.8 11.3588 2.8 11.2755 2.8C11.1922 2.8 11.0672 2.8 10.9005 2.8C10.7005 2.8 10.5588 2.8 10.4755 2.8C10.3922 2.8 10.2672 2.8 10.1005 2.8C10.2838 2.8 10.4172 2.8 10.5005 2.8C10.5838 2.8 10.7172 2.8 10.9005 2.8Z" fill="black"/>
</g>
<defs>
<clipPath id="clip0_3373_4707">
<rect width="24" height="24" fill="white"/>
</clipPath>
</defs>
</svg>
