<svg width="24" height="24" viewBox="0 0 24 24" fill="none" xmlns="http://www.w3.org/2000/svg">
<g clip-path="url(#clip0_3207_16407)">
<rect width="24" height="24" fill="white"/>
<path d="M9.85 22.5C8.73333 22.5 7.70833 22.225 6.775 21.675C5.84167 21.1417 5.1 20.4167 4.55 19.5C4.01667 18.5667 3.75 17.5333 3.75 16.4C3.75 15.2833 4.01667 14.2583 4.55 13.325C5.08333 12.3917 5.80833 11.6583 6.725 11.125C7.64167 10.5917 8.65 10.325 9.75 10.325V13.05C9.15 13.05 8.6 13.2 8.1 13.5C7.61667 13.7833 7.23333 14.1917 6.95 14.725C6.66667 15.2417 6.525 15.8083 6.525 16.425C6.525 17.0417 6.66667 17.6083 6.95 18.125C7.25 18.6417 7.65 19.05 8.15 19.35C8.66667 19.6333 9.23333 19.775 9.85 19.775C10.45 19.775 11 19.625 11.5 19.325C12.0167 19.025 12.4167 18.625 12.7 18.125C13 17.6083 13.15 17.025 13.15 16.375V15.1H15.925V16.35C15.925 17.4833 15.6583 18.525 15.125 19.475C14.5917 20.4083 13.8583 21.1417 12.925 21.675C11.9917 22.225 10.9667 22.5 9.85 22.5ZM10.825 5.5C10.1917 5.5 9.65833 5.28333 9.225 4.85C8.79167 4.41667 8.575 3.88333 8.575 3.25C8.575 2.61667 8.79167 2.08333 9.225 1.65C9.65833 1.21667 10.1917 1 10.825 1C11.475 1 12.0083 1.21667 12.425 1.65C12.8583 2.08333 13.075 2.61667 13.075 3.25C13.075 3.88333 12.8583 4.41667 12.425 4.85C12.0083 5.28333 11.475 5.5 10.825 5.5ZM15.675 15.75H11.025C10.5083 15.75 10.0667 15.575 9.7 15.225C9.33333 14.8583 9.13333 14.4167 9.1 13.9L8.7 8.4C8.66667 7.86667 8.84167 7.45833 9.225 7.175C9.625 6.875 10.1 6.725 10.65 6.725C11.2 6.725 11.7 6.875 12.15 7.175C12.6167 7.45833 12.875 7.86667 12.925 8.4L13.225 12.3L16.65 12.575C17.2 12.6083 17.6667 12.7833 18.05 13.1C18.4333 13.4 18.6667 13.825 18.75 14.375L19.825 21.075C19.8917 21.475 19.7833 21.8167 19.5 22.1C19.2167 22.3833 18.8667 22.525 18.45 22.525C18.05 22.525 17.7167 22.4 17.45 22.15C17.2 21.9167 17.0333 21.6 16.95 21.2L15.675 15.75Z" fill="black"/>
</g>
<defs>
<clipPath id="clip0_3207_16407">
<rect width="24" height="24" fill="white"/>
</clipPath>
</defs>
</svg>
