<svg width="24" height="24" viewBox="0 0 24 24" fill="none" xmlns="http://www.w3.org/2000/svg">
<g clip-path="url(#clip0_3207_15565)">
<rect width="24" height="24" fill="white"/>
<path d="M7.725 10.475C7.69167 9.525 7.99167 8.75 8.625 8.15C9.275 7.55 10.1083 7.25 11.125 7.25C12.1083 7.25 12.9167 7.55 13.55 8.15C14.1833 8.75 14.5 9.525 14.5 10.475V11.6L12.9 10.1L15.025 11.25C15.775 11.65 16.375 12.2167 16.825 12.95C17.275 13.6667 17.5 14.4 17.5 15.15C17.5 16.0167 17.275 16.8 16.825 17.5C16.3917 18.1833 15.8 18.725 15.05 19.125C14.3167 19.525 13.5167 19.725 12.65 19.725L14.325 18.875L14.075 23H8.225L7.725 10.475ZM11.05 5.725C10.35 5.725 9.75833 5.49167 9.275 5.025C8.80833 4.54167 8.575 3.94167 8.575 3.225C8.575 2.54167 8.80833 1.96667 9.275 1.5C9.75833 1.01667 10.35 0.775 11.05 0.775C11.7667 0.775 12.3667 1.01667 12.85 1.5C13.3333 1.96667 13.575 2.54167 13.575 3.225C13.575 3.94167 13.3333 4.54167 12.85 5.025C12.3667 5.49167 11.7667 5.725 11.05 5.725Z" fill="black"/>
</g>
<defs>
<clipPath id="clip0_3207_15565">
<rect width="24" height="24" fill="white"/>
</clipPath>
</defs>
</svg>
