<svg width="24" height="24" viewBox="0 0 24 24" fill="none" xmlns="http://www.w3.org/2000/svg">
<g clip-path="url(#clip0_3207_15561)">
<rect width="24" height="24" fill="white"/>
<path d="M7.15049 10C7.11716 9.3 7.26716 8.68333 7.60049 8.15C7.93382 7.6 8.41716 7.175 9.05049 6.875C9.68382 6.55833 10.4005 6.4 11.2005 6.4C12.0005 6.4 12.7005 6.55833 13.3005 6.875C13.9172 7.175 14.3922 7.6 14.7255 8.15C15.0755 8.68333 15.2505 9.3 15.2505 10V11.675L12.9005 9.6L14.7005 10.475C15.7838 10.9417 16.6172 11.5833 17.2005 12.4C17.7838 13.2167 18.0755 14.1417 18.0755 15.175C18.0755 16.1083 17.8338 16.9667 17.3505 17.75C16.8838 18.5167 16.2422 19.125 15.4255 19.575C14.6088 20.0083 13.7005 20.225 12.7005 20.225L15.0255 18.95L14.8255 23H7.65049L7.15049 10ZM12.4005 17.7C12.9338 17.7 13.4338 17.5917 13.9005 17.375C14.3672 17.1417 14.7255 16.8333 14.9755 16.45C15.2422 16.05 15.3755 15.6167 15.3755 15.15C15.3755 14.6667 15.2422 14.2333 14.9755 13.85C14.7255 13.45 14.3588 13.1417 13.8755 12.925L12.5505 12.275V10C12.5505 9.73333 12.4255 9.50833 12.1755 9.325C11.9255 9.14167 11.6005 9.05 11.2005 9.05C10.8005 9.05 10.4672 9.14167 10.2005 9.325C9.95049 9.50833 9.83382 9.73333 9.85049 10L10.2505 20.45H12.2005L12.4005 17.7ZM11.2005 5.025C10.6005 5.025 10.0922 4.81667 9.67549 4.4C9.27549 3.98333 9.07549 3.475 9.07549 2.875C9.07549 2.29167 9.27549 1.8 9.67549 1.4C10.0922 0.983333 10.6005 0.775 11.2005 0.775C11.8005 0.775 12.3005 0.983333 12.7005 1.4C13.1172 1.8 13.3255 2.29167 13.3255 2.875C13.3255 3.475 13.1172 3.98333 12.7005 4.4C12.3005 4.81667 11.8005 5.025 11.2005 5.025ZM11.2005 2.575C11.3838 2.575 11.5172 2.575 11.6005 2.575C11.7005 2.575 11.8338 2.575 12.0005 2.575C11.8172 2.575 11.6755 2.575 11.5755 2.575C11.4922 2.575 11.3672 2.575 11.2005 2.575C11.0172 2.575 10.8755 2.575 10.7755 2.575C10.6922 2.575 10.5672 2.575 10.4005 2.575C10.5838 2.575 10.7172 2.575 10.8005 2.575C10.9005 2.575 11.0338 2.575 11.2005 2.575Z" fill="black"/>
</g>
<defs>
<clipPath id="clip0_3207_15561">
<rect width="24" height="24" fill="white"/>
</clipPath>
</defs>
</svg>
