<svg width="24" height="24" viewBox="0 0 24 24" fill="none" xmlns="http://www.w3.org/2000/svg">
<g clip-path="url(#clip0_3351_977)">
<rect width="24" height="24" fill="white"/>
<path d="M3.00049 5.4L4.97549 3.15C5.29216 2.78333 5.65049 2.5 6.05049 2.3C6.45049 2.1 6.91716 2 7.45049 2C8.28382 2 8.95882 2.225 9.47549 2.675C10.0088 3.10833 10.2755 3.675 10.2755 4.375V5.1H10.9005C11.6172 5.1 12.1505 5.33333 12.5005 5.8C12.8672 6.25 12.9838 6.84167 12.8505 7.575L12.4005 10.075C12.2505 10.9083 11.9088 11.525 11.3755 11.925C10.8588 12.3083 10.2005 12.5 9.40049 12.5H3.00049V5.4ZM9.40049 9.8C9.46716 9.8 9.52549 9.78333 9.57549 9.75C9.64216 9.71667 9.68382 9.66667 9.70049 9.6L10.0255 7.725C10.0255 7.70833 10.0172 7.69167 10.0005 7.675C9.98382 7.65833 9.96716 7.65 9.95049 7.65H7.80049L7.72549 4.75C7.72549 4.68333 7.70049 4.63333 7.65049 4.6C7.60049 4.55 7.54216 4.525 7.47549 4.525C7.42549 4.525 7.37549 4.54167 7.32549 4.575C7.29216 4.60833 7.26716 4.63333 7.25049 4.65L5.75049 6.3V9.8H9.40049ZM21.0005 19.1L19.0255 21.35C18.7088 21.7167 18.3505 22 17.9505 22.2C17.5505 22.4 17.0838 22.5 16.5505 22.5C15.7172 22.5 15.0338 22.275 14.5005 21.825C13.9838 21.3917 13.7255 20.825 13.7255 20.125V19.4H13.1005C12.3838 19.4 11.8422 19.175 11.4755 18.725C11.1255 18.2583 11.0172 17.6583 11.1505 16.925L11.6005 14.425C11.7505 13.5917 12.0838 12.9833 12.6005 12.6C13.1338 12.2 13.8005 12 14.6005 12H21.0005V19.1ZM14.6005 14.7C14.5338 14.7 14.4672 14.7167 14.4005 14.75C14.3505 14.7833 14.3172 14.8333 14.3005 14.9L13.9755 16.775C13.9755 16.7917 13.9838 16.8083 14.0005 16.825C14.0172 16.8417 14.0338 16.85 14.0505 16.85H16.2005L16.2755 19.75C16.2755 19.8167 16.3005 19.875 16.3505 19.925C16.4005 19.9583 16.4588 19.975 16.5255 19.975C16.5755 19.975 16.6172 19.9583 16.6505 19.925C16.7005 19.8917 16.7338 19.8667 16.7505 19.85L18.2505 18.2V14.7H14.6005Z" fill="black"/>
</g>
<defs>
<clipPath id="clip0_3351_977">
<rect width="24" height="24" fill="white"/>
</clipPath>
</defs>
</svg>
