<svg width="24" height="24" viewBox="0 0 24 24" fill="none" xmlns="http://www.w3.org/2000/svg">
<g clip-path="url(#clip0_3388_8537)">
<rect width="24" height="24" fill="white"/>
<path d="M3.00049 12.775H13.5005L13.6005 15.9H6.17549V17.875H20.2755L21.0005 21H3.00049V12.775ZM3.00049 11.85C3.00049 10.7333 3.38382 9.825 4.15049 9.125C4.91716 8.40833 5.90049 8.05 7.10049 8.05C8.28382 8.05 9.25882 8.40833 10.0255 9.125C10.7922 9.825 11.1755 10.7333 11.1755 11.85V13H8.00049V11.85C8.00049 11.65 7.91716 11.4917 7.75049 11.375C7.58382 11.2417 7.36716 11.175 7.10049 11.175C6.83382 11.175 6.60882 11.2417 6.42549 11.375C6.25882 11.4917 6.17549 11.65 6.17549 11.85V13H3.00049V11.85ZM12.8755 11.85C12.8755 10.7333 13.2505 9.825 14.0005 9.125C14.7672 8.40833 15.7422 8.05 16.9255 8.05C18.1088 8.05 19.0838 8.40833 19.8505 9.125C20.6172 9.825 21.0005 10.7333 21.0005 11.85V21.025L17.8255 19.85V11.85C17.8255 11.65 17.7422 11.4917 17.5755 11.375C17.4088 11.2417 17.1922 11.175 16.9255 11.175C16.6755 11.175 16.4672 11.2417 16.3005 11.375C16.1338 11.5083 16.0505 11.6667 16.0505 11.85L15.9505 19.85H12.8755V11.85ZM7.00049 7.1C6.33382 7.1 5.76716 6.875 5.30049 6.425C4.85049 5.95833 4.62549 5.39167 4.62549 4.725C4.62549 4.05833 4.85049 3.5 5.30049 3.05C5.76716 2.58333 6.33382 2.35 7.00049 2.35C7.66716 2.35 8.22549 2.58333 8.67549 3.05C9.14216 3.5 9.37549 4.05833 9.37549 4.725C9.37549 5.39167 9.14216 5.95833 8.67549 6.425C8.22549 6.875 7.66716 7.1 7.00049 7.1ZM7.00049 3.875C7.20049 3.875 7.34216 3.875 7.42549 3.875C7.52549 3.875 7.66716 3.875 7.85049 3.875C7.65049 3.875 7.50049 3.875 7.40049 3.875C7.31716 3.875 7.18382 3.875 7.00049 3.875C6.80049 3.875 6.65049 3.875 6.55049 3.875C6.46716 3.875 6.33382 3.875 6.15049 3.875C6.35049 3.875 6.49216 3.875 6.57549 3.875C6.67549 3.875 6.81716 3.875 7.00049 3.875ZM17.0005 7.1C16.3338 7.1 15.7672 6.875 15.3005 6.425C14.8505 5.95833 14.6255 5.39167 14.6255 4.725C14.6255 4.05833 14.8505 3.5 15.3005 3.05C15.7672 2.58333 16.3338 2.35 17.0005 2.35C17.6672 2.35 18.2255 2.58333 18.6755 3.05C19.1422 3.5 19.3755 4.05833 19.3755 4.725C19.3755 5.39167 19.1422 5.95833 18.6755 6.425C18.2255 6.875 17.6672 7.1 17.0005 7.1ZM17.0005 3.875C17.2005 3.875 17.3422 3.875 17.4255 3.875C17.5255 3.875 17.6672 3.875 17.8505 3.875C17.6505 3.875 17.5005 3.875 17.4005 3.875C17.3172 3.875 17.1838 3.875 17.0005 3.875C16.8005 3.875 16.6505 3.875 16.5505 3.875C16.4672 3.875 16.3338 3.875 16.1505 3.875C16.3505 3.875 16.4922 3.875 16.5755 3.875C16.6755 3.875 16.8172 3.875 17.0005 3.875Z" fill="black"/>
</g>
<defs>
<clipPath id="clip0_3388_8537">
<rect width="24" height="24" fill="white"/>
</clipPath>
</defs>
</svg>
