<svg width="24" height="24" viewBox="0 0 24 24" fill="none" xmlns="http://www.w3.org/2000/svg">
<g clip-path="url(#clip0_3388_8527)">
<rect width="24" height="24" fill="white"/>
<path d="M3.00049 13H14.8755V13.9H3.92549V20.1H20.6755L21.0005 21H3.00049V13ZM5.65049 10.925C5.65049 10.0917 5.94216 9.4 6.52549 8.85C7.12549 8.28333 7.86716 8 8.75049 8C9.63382 8 10.3672 8.28333 10.9505 8.85C11.5505 9.4 11.8505 10.0917 11.8505 10.925V13.225H10.9255V10.925C10.9255 10.3583 10.7088 9.88333 10.2755 9.5C9.85882 9.1 9.35049 8.9 8.75049 8.9C8.15049 8.9 7.63382 9.1 7.20049 9.5C6.78382 9.88333 6.57549 10.3583 6.57549 10.925V13.225H5.65049V10.925ZM14.8005 10.925C14.8005 10.0917 15.0922 9.4 15.6755 8.85C16.2755 8.28333 17.0172 8 17.9005 8C18.7838 8 19.5172 8.28333 20.1005 8.85C20.7005 9.4 21.0005 10.0917 21.0005 10.925V21L20.0755 20.425V10.925C20.0755 10.3583 19.8588 9.88333 19.4255 9.5C19.0088 9.1 18.5005 8.9 17.9005 8.9C17.3005 8.9 16.7838 9.1 16.3505 9.5C15.9338 9.88333 15.7255 10.3583 15.7255 10.925V20.425H14.8005V10.925ZM8.75049 6.825C8.13382 6.825 7.60049 6.60833 7.15049 6.175C6.71716 5.74167 6.50049 5.20833 6.50049 4.575C6.50049 3.975 6.71716 3.45833 7.15049 3.025C7.60049 2.59167 8.13382 2.375 8.75049 2.375C9.36716 2.375 9.89216 2.59167 10.3255 3.025C10.7755 3.45833 11.0005 3.98333 11.0005 4.6C11.0005 5.21667 10.7755 5.74167 10.3255 6.175C9.89216 6.60833 9.36716 6.825 8.75049 6.825ZM8.75049 6C9.15049 6 9.48382 5.86667 9.75049 5.6C10.0172 5.33333 10.1505 5 10.1505 4.6C10.1505 4.2 10.0172 3.86667 9.75049 3.6C9.48382 3.33333 9.15049 3.2 8.75049 3.2C8.35049 3.2 8.01716 3.33333 7.75049 3.6C7.48382 3.86667 7.35049 4.2 7.35049 4.6C7.35049 5 7.48382 5.33333 7.75049 5.6C8.01716 5.86667 8.35049 6 8.75049 6ZM17.9005 6.825C17.2838 6.825 16.7505 6.60833 16.3005 6.175C15.8672 5.74167 15.6505 5.20833 15.6505 4.575C15.6505 3.975 15.8672 3.45833 16.3005 3.025C16.7505 2.59167 17.2838 2.375 17.9005 2.375C18.5172 2.375 19.0422 2.59167 19.4755 3.025C19.9255 3.45833 20.1505 3.98333 20.1505 4.6C20.1505 5.21667 19.9255 5.74167 19.4755 6.175C19.0422 6.60833 18.5172 6.825 17.9005 6.825ZM17.9005 6C18.3005 6 18.6338 5.86667 18.9005 5.6C19.1672 5.33333 19.3005 5 19.3005 4.6C19.3005 4.2 19.1672 3.86667 18.9005 3.6C18.6338 3.33333 18.3005 3.2 17.9005 3.2C17.5005 3.2 17.1672 3.33333 16.9005 3.6C16.6338 3.86667 16.5005 4.2 16.5005 4.6C16.5005 5 16.6338 5.33333 16.9005 5.6C17.1672 5.86667 17.5005 6 17.9005 6Z" fill="black"/>
</g>
<defs>
<clipPath id="clip0_3388_8527">
<rect width="24" height="24" fill="white"/>
</clipPath>
</defs>
</svg>
