<svg width="24" height="24" viewBox="0 0 24 24" fill="none" xmlns="http://www.w3.org/2000/svg">
<g clip-path="url(#clip0_3388_8535)">
<rect width="24" height="24" fill="white"/>
<path d="M9.32549 11.525C9.32549 11.325 9.25049 11.1667 9.10049 11.05C8.95049 10.9167 8.75049 10.85 8.50049 10.85C8.25049 10.85 8.05049 10.9167 7.90049 11.05C7.75049 11.1667 7.67549 11.325 7.67549 11.525V13.05H5.00049V11.525C5.00049 10.525 5.31716 9.725 5.95049 9.125C6.58382 8.525 7.43382 8.225 8.50049 8.225C9.56716 8.225 10.4172 8.525 11.0505 9.125C11.6838 9.725 12.0005 10.525 12.0005 11.525V13.05H9.32549V11.525ZM8.50049 6.9C7.90049 6.9 7.39216 6.69167 6.97549 6.275C6.57549 5.85833 6.37549 5.35 6.37549 4.75C6.37549 4.16667 6.57549 3.675 6.97549 3.275C7.39216 2.85833 7.90049 2.65 8.50049 2.65C9.10049 2.65 9.60049 2.85833 10.0005 3.275C10.4172 3.675 10.6255 4.16667 10.6255 4.75C10.6255 5.35 10.4172 5.85833 10.0005 6.275C9.60049 6.69167 9.10049 6.9 8.50049 6.9ZM8.50049 4.45C8.68382 4.45 8.81716 4.45 8.90049 4.45C9.00049 4.45 9.13382 4.45 9.30049 4.45C9.11716 4.45 8.97549 4.45 8.87549 4.45C8.79216 4.45 8.66716 4.45 8.50049 4.45C8.31716 4.45 8.17549 4.45 8.07549 4.45C7.99216 4.45 7.86716 4.45 7.70049 4.45C7.88382 4.45 8.01716 4.45 8.10049 4.45C8.20049 4.45 8.33382 4.45 8.50049 4.45ZM18.3005 11.525C18.3005 11.325 18.2255 11.1667 18.0755 11.05C17.9255 10.9167 17.7338 10.85 17.5005 10.85C17.2505 10.85 17.0505 10.9167 16.9005 11.05C16.7505 11.1667 16.6755 11.325 16.6755 11.525V19.875H13.9755V11.525C13.9755 10.525 14.2922 9.725 14.9255 9.125C15.5755 8.525 16.4338 8.225 17.5005 8.225C18.5672 8.225 19.4172 8.525 20.0505 9.125C20.6838 9.725 21.0005 10.525 21.0005 11.525V21L18.3005 19.875V11.525ZM17.5755 6.9C16.9755 6.9 16.4672 6.69167 16.0505 6.275C15.6505 5.85833 15.4505 5.35 15.4505 4.75C15.4505 4.16667 15.6505 3.675 16.0505 3.275C16.4672 2.85833 16.9755 2.65 17.5755 2.65C18.1755 2.65 18.6755 2.85833 19.0755 3.275C19.4922 3.675 19.7005 4.16667 19.7005 4.75C19.7005 5.35 19.4922 5.85833 19.0755 6.275C18.6755 6.69167 18.1755 6.9 17.5755 6.9ZM17.5755 4.45C17.7588 4.45 17.8922 4.45 17.9755 4.45C18.0588 4.45 18.1922 4.45 18.3755 4.45C18.1755 4.45 18.0338 4.45 17.9505 4.45C17.8672 4.45 17.7422 4.45 17.5755 4.45C17.3755 4.45 17.2338 4.45 17.1505 4.45C17.0672 4.45 16.9422 4.45 16.7755 4.45C16.9588 4.45 17.0922 4.45 17.1755 4.45C17.2588 4.45 17.3922 4.45 17.5755 4.45ZM3.00049 21V12.825H14.2255V15.55H5.77549V18.275H20.3255L21.0005 21H3.00049Z" fill="black"/>
</g>
<defs>
<clipPath id="clip0_3388_8535">
<rect width="24" height="24" fill="white"/>
</clipPath>
</defs>
</svg>
