<svg width="24" height="24" viewBox="0 0 24 24" fill="none" xmlns="http://www.w3.org/2000/svg">
<g clip-path="url(#clip0_3388_8529)">
<rect width="24" height="24" fill="white"/>
<path d="M10.5505 11.125C10.5505 10.675 10.3922 10.3083 10.0755 10.025C9.75882 9.725 9.35882 9.575 8.87549 9.575C8.39216 9.575 7.99216 9.725 7.67549 10.025C7.35882 10.3083 7.20049 10.675 7.20049 11.125V13.225H5.82549V11.125C5.82549 10.3083 6.10882 9.625 6.67549 9.075C7.25882 8.525 7.99216 8.25 8.87549 8.25C9.75882 8.25 10.4838 8.525 11.0505 9.075C11.6338 9.625 11.9255 10.3083 11.9255 11.125V13.225H10.5505V11.125ZM8.85049 7.075C8.20049 7.075 7.64216 6.85 7.17549 6.4C6.72549 5.93333 6.50049 5.36667 6.50049 4.7C6.50049 4.05 6.72549 3.5 7.17549 3.05C7.64216 2.6 8.20049 2.375 8.85049 2.375C9.53382 2.375 10.1005 2.6 10.5505 3.05C11.0172 3.5 11.2505 4.05 11.2505 4.7C11.2505 5.36667 11.0172 5.93333 10.5505 6.4C10.1005 6.85 9.53382 7.075 8.85049 7.075ZM8.85049 5.9C9.20049 5.9 9.48382 5.78333 9.70049 5.55C9.93382 5.31667 10.0505 5.03333 10.0505 4.7C10.0505 4.36667 9.93382 4.09167 9.70049 3.875C9.48382 3.65833 9.20049 3.55 8.85049 3.55C8.51716 3.55 8.24216 3.65833 8.02549 3.875C7.80882 4.09167 7.70049 4.36667 7.70049 4.7C7.70049 5.05 7.80882 5.34167 8.02549 5.575C8.24216 5.79167 8.51716 5.9 8.85049 5.9ZM19.6255 11.125C19.6255 10.675 19.4672 10.3083 19.1505 10.025C18.8338 9.74167 18.4338 9.6 17.9505 9.6C17.4672 9.6 17.0672 9.74167 16.7505 10.025C16.4338 10.3083 16.2755 10.675 16.2755 11.125V20.15H14.9005V11.125C14.9005 10.3083 15.1838 9.625 15.7505 9.075C16.3338 8.525 17.0672 8.25 17.9505 8.25C18.8338 8.25 19.5588 8.525 20.1255 9.075C20.7088 9.625 21.0005 10.3083 21.0005 11.125V21L19.6255 20.15V11.125ZM17.9255 7.075C17.2755 7.075 16.7172 6.85 16.2505 6.4C15.8005 5.93333 15.5755 5.36667 15.5755 4.7C15.5755 4.05 15.8005 3.5 16.2505 3.05C16.7172 2.6 17.2755 2.375 17.9255 2.375C18.6088 2.375 19.1755 2.6 19.6255 3.05C20.0922 3.5 20.3255 4.05 20.3255 4.7C20.3255 5.36667 20.0922 5.93333 19.6255 6.4C19.1755 6.85 18.6088 7.075 17.9255 7.075ZM17.9255 5.9C18.2755 5.9 18.5588 5.78333 18.7755 5.55C19.0088 5.31667 19.1255 5.03333 19.1255 4.7C19.1255 4.36667 19.0088 4.09167 18.7755 3.875C18.5588 3.65833 18.2755 3.55 17.9255 3.55C17.5922 3.55 17.3172 3.65833 17.1005 3.875C16.8838 4.09167 16.7755 4.36667 16.7755 4.7C16.7755 5.05 16.8838 5.34167 17.1005 5.575C17.3172 5.79167 17.5922 5.9 17.9255 5.9ZM3.00049 21V13H14.9755V14.325H4.37549V19.675H20.5755L21.0005 21H3.00049Z" fill="black"/>
</g>
<defs>
<clipPath id="clip0_3388_8529">
<rect width="24" height="24" fill="white"/>
</clipPath>
</defs>
</svg>
