<svg width="24" height="24" viewBox="0 0 24 24" fill="none" xmlns="http://www.w3.org/2000/svg">
<g clip-path="url(#clip0_3207_17395)">
<rect width="24" height="24" fill="white"/>
<path d="M9.77549 11.425C9.77549 11.175 9.67549 10.9667 9.47549 10.8C9.29216 10.6333 9.05049 10.55 8.75049 10.55C8.45049 10.55 8.20049 10.6333 8.00049 10.8C7.81716 10.9667 7.72549 11.175 7.72549 11.425V13.15H5.50049V11.425C5.50049 10.525 5.80049 9.79167 6.40049 9.225C7.00049 8.65833 7.78382 8.375 8.75049 8.375C9.71716 8.375 10.5005 8.65833 11.1005 9.225C11.7005 9.79167 12.0005 10.525 12.0005 11.425V13.15H9.77549V11.425ZM8.75049 7.45C8.01716 7.45 7.38382 7.19167 6.85049 6.675C6.33382 6.15833 6.07549 5.53333 6.07549 4.8C6.07549 4.06667 6.33382 3.45 6.85049 2.95C7.38382 2.43333 8.01716 2.175 8.75049 2.175C9.50049 2.175 10.1338 2.43333 10.6505 2.95C11.1672 3.45 11.4255 4.06667 11.4255 4.8C11.4255 5.53333 11.1672 6.15833 10.6505 6.675C10.1338 7.19167 9.50049 7.45 8.75049 7.45ZM8.72549 5.725C8.99216 5.725 9.21716 5.63333 9.40049 5.45C9.58382 5.26667 9.67549 5.05 9.67549 4.8C9.67549 4.55 9.58382 4.34167 9.40049 4.175C9.21716 3.99167 8.99216 3.9 8.72549 3.9C8.47549 3.9 8.25882 3.99167 8.07549 4.175C7.90882 4.34167 7.82549 4.55 7.82549 4.8C7.82549 5.06667 7.90882 5.29167 8.07549 5.475C8.25882 5.64167 8.47549 5.725 8.72549 5.725ZM18.7505 11.425C18.7505 11.1583 18.6505 10.95 18.4505 10.8C18.2672 10.6333 18.0338 10.55 17.7505 10.55C17.4505 10.55 17.2005 10.6333 17.0005 10.8C16.8172 10.95 16.7255 11.1583 16.7255 11.425V19.875H14.4755V11.425C14.4755 10.525 14.7755 9.79167 15.3755 9.225C15.9922 8.65833 16.7838 8.375 17.7505 8.375C18.7172 8.375 19.5005 8.65833 20.1005 9.225C20.7005 9.79167 21.0005 10.525 21.0005 11.425V21L18.7505 19.875V11.425ZM17.7755 7.45C17.0422 7.45 16.4172 7.19167 15.9005 6.675C15.3838 6.15833 15.1255 5.53333 15.1255 4.8C15.1255 4.06667 15.3838 3.45 15.9005 2.95C16.4172 2.43333 17.0422 2.175 17.7755 2.175C18.5255 2.175 19.1588 2.43333 19.6755 2.95C20.1922 3.45 20.4505 4.06667 20.4505 4.8C20.4505 5.53333 20.1922 6.15833 19.6755 6.675C19.1588 7.19167 18.5255 7.45 17.7755 7.45ZM17.7755 5.725C18.0422 5.725 18.2588 5.63333 18.4255 5.45C18.6088 5.26667 18.7005 5.05 18.7005 4.8C18.7005 4.55 18.6088 4.34167 18.4255 4.175C18.2588 3.99167 18.0422 3.9 17.7755 3.9C17.5255 3.9 17.3088 3.99167 17.1255 4.175C16.9588 4.34167 16.8755 4.55 16.8755 4.8C16.8755 5.06667 16.9588 5.29167 17.1255 5.475C17.3088 5.64167 17.5255 5.725 17.7755 5.725ZM3.00049 21V12.925H14.6255V15.15H5.27549V18.775H20.4255L21.0005 21H3.00049Z" fill="black"/>
</g>
<defs>
<clipPath id="clip0_3207_17395">
<rect width="24" height="24" fill="white"/>
</clipPath>
</defs>
</svg>
