<svg width="24" height="24" viewBox="0 0 24 24" fill="none" xmlns="http://www.w3.org/2000/svg">
<g clip-path="url(#clip0_3207_16419)">
<rect width="24" height="24" fill="white"/>
<path d="M15.8255 8.375H23.0005V11.375H15.8255V8.375ZM2.50049 17.3C2.50049 16.1833 2.79216 15.2083 3.37549 14.375C3.97549 13.5417 4.81716 12.9083 5.90049 12.475C7.00049 12.025 8.28382 11.8 9.75049 11.8C11.2172 11.8 12.4922 12.025 13.5755 12.475C14.6755 12.9083 15.5172 13.5417 16.1005 14.375C16.7005 15.2083 17.0005 16.1833 17.0005 17.3V21H2.50049V17.3ZM14.0255 18.075V17.3C14.0255 16.5167 13.6755 15.8917 12.9755 15.425C12.2755 14.9417 11.2005 14.7 9.75049 14.7C8.30049 14.7 7.22549 14.9417 6.52549 15.425C5.82549 15.8917 5.47549 16.5167 5.47549 17.3V18.075H14.0255ZM9.75049 10.475C8.96716 10.475 8.25049 10.2917 7.60049 9.925C6.95049 9.54167 6.43382 9.025 6.05049 8.375C5.66716 7.725 5.47549 7.01667 5.47549 6.25C5.47549 5.46667 5.66716 4.75 6.05049 4.1C6.43382 3.45 6.95049 2.94167 7.60049 2.575C8.25049 2.19167 8.96716 2 9.75049 2C10.5338 2 11.2505 2.19167 11.9005 2.575C12.5505 2.94167 13.0672 3.45 13.4505 4.1C13.8338 4.75 14.0255 5.46667 14.0255 6.25C14.0255 7.01667 13.8338 7.725 13.4505 8.375C13.0672 9.025 12.5505 9.54167 11.9005 9.925C11.2505 10.2917 10.5338 10.475 9.75049 10.475ZM9.75049 7.95C10.0672 7.95 10.3505 7.875 10.6005 7.725C10.8672 7.575 11.0755 7.36667 11.2255 7.1C11.3755 6.83333 11.4505 6.55 11.4505 6.25C11.4505 5.93333 11.3755 5.64167 11.2255 5.375C11.0755 5.10833 10.8672 4.9 10.6005 4.75C10.3505 4.6 10.0672 4.525 9.75049 4.525C9.43382 4.525 9.14216 4.6 8.87549 4.75C8.62549 4.9 8.42549 5.10833 8.27549 5.375C8.12549 5.64167 8.05049 5.93333 8.05049 6.25C8.05049 6.55 8.12549 6.83333 8.27549 7.1C8.42549 7.36667 8.62549 7.575 8.87549 7.725C9.14216 7.875 9.43382 7.95 9.75049 7.95Z" fill="black"/>
</g>
<defs>
<clipPath id="clip0_3207_16419">
<rect width="24" height="24" fill="white"/>
</clipPath>
</defs>
</svg>
