<svg width="24" height="24" viewBox="0 0 24 24" fill="none" xmlns="http://www.w3.org/2000/svg">
<g clip-path="url(#clip0_3207_16413)">
<rect width="24" height="24" fill="white"/>
<path d="M15.3255 9.225H23.0005V10.625H15.3255V9.225ZM2.50049 17.75C2.50049 16.5 2.79216 15.425 3.37549 14.525C3.95882 13.625 4.79216 12.9417 5.87549 12.475C6.95882 11.9917 8.25049 11.75 9.75049 11.75C11.2505 11.75 12.5422 11.9917 13.6255 12.475C14.7088 12.9417 15.5422 13.625 16.1255 14.525C16.7088 15.425 17.0005 16.5 17.0005 17.75V21H2.50049V17.75ZM15.5755 19.6V17.75C15.5755 16.2833 15.0672 15.15 14.0505 14.35C13.0505 13.55 11.6172 13.15 9.75049 13.15C7.88382 13.15 6.44216 13.55 5.42549 14.35C4.42549 15.15 3.92549 16.2833 3.92549 17.75V19.6H15.5755ZM9.75049 9.825C9.03382 9.825 8.36716 9.65833 7.75049 9.325C7.15049 8.975 6.67549 8.5 6.32549 7.9C5.97549 7.3 5.80049 6.64167 5.80049 5.925C5.80049 5.19167 5.97549 4.525 6.32549 3.925C6.67549 3.325 7.15049 2.85833 7.75049 2.525C8.36716 2.175 9.03382 2 9.75049 2C10.4672 2 11.1255 2.175 11.7255 2.525C12.3422 2.85833 12.8255 3.325 13.1755 3.925C13.5255 4.525 13.7005 5.19167 13.7005 5.925C13.7005 6.64167 13.5255 7.3 13.1755 7.9C12.8255 8.5 12.3422 8.975 11.7255 9.325C11.1255 9.65833 10.4672 9.825 9.75049 9.825ZM9.75049 8.5C10.2172 8.5 10.6505 8.38333 11.0505 8.15C11.4505 7.91667 11.7672 7.60833 12.0005 7.225C12.2338 6.825 12.3505 6.39167 12.3505 5.925C12.3505 5.45833 12.2338 5.025 12.0005 4.625C11.7672 4.225 11.4505 3.90833 11.0505 3.675C10.6505 3.44167 10.2172 3.325 9.75049 3.325C9.28382 3.325 8.85049 3.44167 8.45049 3.675C8.05049 3.90833 7.73382 4.225 7.50049 4.625C7.26716 5.025 7.15049 5.45833 7.15049 5.925C7.15049 6.39167 7.26716 6.825 7.50049 7.225C7.73382 7.60833 8.05049 7.91667 8.45049 8.15C8.85049 8.38333 9.28382 8.5 9.75049 8.5Z" fill="black"/>
</g>
<defs>
<clipPath id="clip0_3207_16413">
<rect width="24" height="24" fill="white"/>
</clipPath>
</defs>
</svg>
