<svg width="24" height="24" viewBox="0 0 24 24" fill="none" xmlns="http://www.w3.org/2000/svg">
<g clip-path="url(#clip0_3207_16179)">
<rect width="24" height="24" fill="white"/>
<path d="M14.8005 17H11.8005L14.1005 10.8C14.3672 10.0667 14.7588 9.53333 15.2755 9.2C15.8088 8.85 16.4672 8.675 17.2505 8.675C18.0338 8.675 18.6838 8.84167 19.2005 9.175C19.7172 9.50833 20.1088 10.0333 20.3755 10.75L22.7005 17H19.7005L19.3505 21H15.1505L14.8005 17ZM3.00049 11.925C3.00049 10.9083 3.30882 10.1167 3.92549 9.55C4.54216 8.96667 5.39216 8.675 6.47549 8.675C7.57549 8.675 8.42549 8.96667 9.02549 9.55C9.64216 10.1167 9.95049 10.9083 9.95049 11.925V21H3.00049V11.925ZM8.60049 19.675V11.925C8.60049 11.3083 8.41716 10.8333 8.05049 10.5C7.68382 10.1667 7.15882 10 6.47549 10C5.80882 10 5.29216 10.1667 4.92549 10.5C4.55882 10.8333 4.37549 11.3083 4.37549 11.925V19.675H8.60049ZM18.1005 19.7L18.4505 15.7H20.7505L19.0755 11.175C18.7922 10.3583 18.1838 9.95 17.2505 9.95C16.7838 9.95 16.4005 10.0583 16.1005 10.275C15.8005 10.475 15.5755 10.7833 15.4255 11.2L13.7505 15.7H16.0505L16.4005 19.7H18.1005ZM6.47549 7.5C5.74216 7.5 5.12549 7.25 4.62549 6.75C4.14216 6.25 3.90049 5.64167 3.90049 4.925C3.90049 4.20833 4.14216 3.60833 4.62549 3.125C5.12549 2.625 5.74216 2.375 6.47549 2.375C7.19216 2.375 7.80049 2.625 8.30049 3.125C8.81716 3.60833 9.07549 4.20833 9.07549 4.925C9.07549 5.64167 8.82549 6.25 8.32549 6.75C7.82549 7.25 7.20882 7.5 6.47549 7.5ZM6.47549 6.275C6.85882 6.275 7.17549 6.14167 7.42549 5.875C7.69216 5.60833 7.82549 5.29167 7.82549 4.925C7.82549 4.54167 7.69216 4.225 7.42549 3.975C7.17549 3.725 6.85882 3.6 6.47549 3.6C6.09216 3.6 5.77549 3.725 5.52549 3.975C5.27549 4.225 5.15049 4.54167 5.15049 4.925C5.15049 5.30833 5.27549 5.63333 5.52549 5.9C5.77549 6.15 6.09216 6.275 6.47549 6.275ZM17.2755 7.5C16.5422 7.5 15.9255 7.25 15.4255 6.75C14.9255 6.25 14.6755 5.64167 14.6755 4.925C14.6755 4.20833 14.9255 3.60833 15.4255 3.125C15.9255 2.625 16.5422 2.375 17.2755 2.375C17.9922 2.375 18.5922 2.625 19.0755 3.125C19.5755 3.60833 19.8255 4.20833 19.8255 4.925C19.8255 5.64167 19.5755 6.25 19.0755 6.75C18.5922 7.25 17.9922 7.5 17.2755 7.5ZM17.2755 6.275C17.6422 6.275 17.9505 6.15 18.2005 5.9C18.4505 5.63333 18.5755 5.30833 18.5755 4.925C18.5755 4.54167 18.4505 4.225 18.2005 3.975C17.9505 3.725 17.6422 3.6 17.2755 3.6C16.8922 3.6 16.5672 3.725 16.3005 3.975C16.0505 4.225 15.9255 4.54167 15.9255 4.925C15.9255 5.29167 16.0505 5.60833 16.3005 5.875C16.5672 6.14167 16.8922 6.275 17.2755 6.275Z" fill="black"/>
</g>
<defs>
<clipPath id="clip0_3207_16179">
<rect width="24" height="24" fill="white"/>
</clipPath>
</defs>
</svg>
