<svg width="24" height="24" viewBox="0 0 24 24" fill="none" xmlns="http://www.w3.org/2000/svg">
<g clip-path="url(#clip0_3207_17472)">
<rect width="24" height="24" fill="white"/>
<path d="M14.5 21.875C14.1167 21.875 13.7917 21.7417 13.525 21.475C13.2583 21.2083 13.1083 20.8833 13.075 20.5L12.875 16.65L10.425 14.225C10.0417 13.8417 9.80833 13.3667 9.725 12.8C9.64167 12.2333 9.74167 11.7 10.025 11.2L11.225 9.15H9.625L8.175 11.375C7.95833 11.7083 7.675 11.9333 7.325 12.05C6.975 12.15 6.63333 12.1167 6.3 11.95C5.98333 11.7833 5.76667 11.5167 5.65 11.15C5.53333 10.7833 5.56667 10.425 5.75 10.075L7.2 7.325C7.38333 6.95833 7.65833 6.66667 8.025 6.45C8.39167 6.23333 8.79167 6.125 9.225 6.125H12.275C12.8083 6.125 13.325 6.23333 13.825 6.45C14.325 6.65 14.7667 6.94167 15.15 7.325L17.4 9.55H20.125C20.5417 9.55 20.875 9.675 21.125 9.925C21.3917 10.175 21.525 10.4917 21.525 10.875C21.525 11.2583 21.4 11.5833 21.15 11.85C20.9167 12.1167 20.6083 12.2667 20.225 12.3L17.175 12.575C16.5417 12.6417 15.95 12.4 15.4 11.85L14.675 11.1L13.675 12.8L15.275 14.75C15.4583 14.9833 15.6083 15.275 15.725 15.625C15.8417 15.975 15.9 16.325 15.9 16.675V20.5C15.9 20.8667 15.7583 21.1833 15.475 21.45C15.2083 21.7333 14.8833 21.875 14.5 21.875ZM15.325 5.75C14.7417 5.75 14.2583 5.55833 13.875 5.175C13.4917 4.79167 13.3 4.3 13.3 3.7C13.3 3.11667 13.4917 2.63333 13.875 2.25C14.2583 1.86667 14.7417 1.675 15.325 1.675C15.925 1.675 16.4167 1.86667 16.8 2.25C17.1833 2.63333 17.375 3.11667 17.375 3.7C17.375 4.3 17.1833 4.79167 16.8 5.175C16.4167 5.55833 15.925 5.75 15.325 5.75ZM4.125 18C3.74167 17.9667 3.40833 17.8333 3.125 17.6C2.85833 17.35 2.725 17.0417 2.725 16.675C2.725 16.2917 2.85833 15.95 3.125 15.65C3.40833 15.35 3.74167 15.2 4.125 15.2H7.65L8.15 14.4C8.55 14.8 8.95 15.2083 9.35 15.625L10.325 16.6L10.075 17.05C9.85833 17.4333 9.54167 17.725 9.125 17.925C8.725 18.125 8.28333 18.2167 7.8 18.2L4.125 18Z" fill="black"/>
</g>
<defs>
<clipPath id="clip0_3207_17472">
<rect width="24" height="24" fill="white"/>
</clipPath>
</defs>
</svg>
