<svg width="24" height="24" viewBox="0 0 24 24" fill="none" xmlns="http://www.w3.org/2000/svg">
<g clip-path="url(#clip0_3207_17464)">
<rect width="24" height="24" fill="white"/>
<path d="M14.65 21.875C14.4333 21.875 14.2417 21.7917 14.075 21.625C13.9083 21.4583 13.8167 21.2583 13.8 21.025L13.6 16.275L10.1 12.75C9.78333 12.4333 9.6 12.0667 9.55 11.65C9.5 11.2333 9.575 10.8417 9.775 10.475L11.575 7.35H9.375L7.5 10.1C7.4 10.2833 7.24167 10.4167 7.025 10.5C6.80833 10.5667 6.58333 10.5417 6.35 10.425C6.15 10.3083 6.01667 10.1333 5.95 9.9C5.9 9.66667 5.93333 9.45 6.05 9.25L7.775 6.275C7.925 6.025 8.14167 5.825 8.425 5.675C8.70833 5.525 9.00833 5.45 9.325 5.45H12.65C13.0833 5.45 13.5167 5.54167 13.95 5.725C14.3833 5.89167 14.7583 6.15 15.075 6.5L17.25 8.825H20.725C20.9583 8.825 21.15 8.90833 21.3 9.075C21.4667 9.225 21.55 9.41667 21.55 9.65C21.55 9.86667 21.4667 10.0583 21.3 10.225C21.15 10.3917 20.9583 10.475 20.725 10.475L17.275 10.725C16.7417 10.725 16.275 10.525 15.875 10.125L14.425 8.625L12.65 11.7L15.125 15.1C15.2417 15.2667 15.3333 15.4417 15.4 15.625C15.4833 15.7917 15.525 15.9667 15.525 16.15V21.025C15.525 21.2583 15.4417 21.4583 15.275 21.625C15.1083 21.7917 14.9 21.875 14.65 21.875ZM15.15 4.675C14.75 4.675 14.4 4.53333 14.1 4.25C13.8 3.96667 13.65 3.61667 13.65 3.2C13.65 2.78333 13.7917 2.425 14.075 2.125C14.375 1.825 14.7333 1.675 15.15 1.675C15.5667 1.675 15.925 1.825 16.225 2.125C16.525 2.425 16.675 2.78333 16.675 3.2C16.675 3.61667 16.525 3.96667 16.225 4.25C15.9417 4.53333 15.5833 4.675 15.15 4.675ZM3.075 17.175C2.84167 17.1583 2.64167 17.075 2.475 16.925C2.30833 16.7583 2.225 16.5583 2.225 16.325C2.225 16.0917 2.30833 15.9 2.475 15.75C2.64167 15.5833 2.84167 15.5 3.075 15.5H6.875L8.55 12.65C8.73333 12.95 8.975 13.2583 9.275 13.575L10.1 14.425L8.45 16.75C8.3 16.95 8.125 17.1167 7.925 17.25C7.725 17.3667 7.50833 17.4167 7.275 17.4L3.075 17.175Z" fill="black"/>
</g>
<defs>
<clipPath id="clip0_3207_17464">
<rect width="24" height="24" fill="white"/>
</clipPath>
</defs>
</svg>
