<svg width="24" height="24" viewBox="0 0 24 24" fill="none" xmlns="http://www.w3.org/2000/svg">
<g clip-path="url(#clip0_3207_17458)">
<rect width="24" height="24" fill="white"/>
<path d="M14.3755 22.125C13.9422 22.125 13.5672 21.9667 13.2505 21.65C12.9338 21.35 12.7755 20.9833 12.7755 20.55V16.45L10.4255 14.125C10.0255 13.725 9.77549 13.2333 9.67549 12.65C9.59216 12.05 9.70049 11.5 10.0005 11L11.1005 9.15H9.10049L7.97549 11.325C7.77549 11.7083 7.46716 11.9667 7.05049 12.1C6.65049 12.2333 6.24216 12.1917 5.82549 11.975C5.44216 11.775 5.18382 11.4667 5.05049 11.05C4.93382 10.6333 4.97549 10.2333 5.17549 9.85L6.55049 7.225C6.75049 6.85833 7.03382 6.55833 7.40049 6.325C7.76716 6.09167 8.18382 5.975 8.65049 5.975H12.2255C12.7588 5.975 13.2755 6.08333 13.7755 6.3C14.2922 6.5 14.7505 6.79167 15.1505 7.175L17.4255 9.4H19.9005C20.3338 9.4 20.7088 9.55833 21.0255 9.875C21.3588 10.175 21.5255 10.55 21.5255 11C21.5255 11.4333 21.3588 11.8083 21.0255 12.125C20.7088 12.425 20.3338 12.575 19.9005 12.575H17.1755C16.8255 12.575 16.4922 12.5167 16.1755 12.4C15.8588 12.2667 15.5755 12.075 15.3255 11.825L14.0505 10.55L13.0505 12.2L15.4255 14.625C15.5922 14.7917 15.7172 14.9917 15.8005 15.225C15.9005 15.4583 15.9505 15.6917 15.9505 15.925V20.55C15.9505 20.9833 15.7922 21.35 15.4755 21.65C15.1755 21.9667 14.8088 22.125 14.3755 22.125ZM3.87549 18.4C3.44216 18.4 3.06716 18.25 2.75049 17.95C2.43382 17.6333 2.27549 17.2583 2.27549 16.825C2.27549 16.3917 2.42549 16.025 2.72549 15.725C3.04216 15.4083 3.42549 15.25 3.87549 15.25H7.55049L8.25049 14.025L10.6005 16.35L9.82549 17.65C9.67549 17.9 9.48382 18.0917 9.25049 18.225C9.01716 18.3417 8.76716 18.4 8.50049 18.4H3.87549ZM11.9505 7.45C11.9505 7.45 11.9422 7.45 11.9255 7.45H11.9005H11.8755C11.8755 7.45 11.8672 7.45 11.8505 7.45H11.8755H11.9255C11.9422 7.45 11.9505 7.45 11.9505 7.45C11.9505 7.45 11.9588 7.45 11.9755 7.45H12.0005H12.0255C12.0422 7.45 12.0505 7.45 12.0505 7.45C12.0505 7.45 12.0422 7.45 12.0255 7.45H12.0005C12.0005 7.45 11.9922 7.45 11.9755 7.45H11.9505H11.9755C11.9755 7.45 11.9672 7.45 11.9505 7.45ZM11.8005 7.45C11.8172 7.45 11.8255 7.45 11.8255 7.45H11.8505H11.9005H11.8755H11.8255H11.8755H11.9255H11.9005C11.9005 7.45 11.8922 7.45 11.8755 7.45H11.8255C11.8255 7.45 11.8172 7.45 11.8005 7.45ZM11.9505 7.45C11.9672 7.45 11.9755 7.45 11.9755 7.45C11.9755 7.45 11.9672 7.45 11.9505 7.45H11.9255H11.9505H11.9755C11.9922 7.45 12.0005 7.45 12.0005 7.45H12.0255C12.0422 7.45 12.0505 7.45 12.0505 7.45C12.0505 7.45 12.0422 7.45 12.0255 7.45H12.0005H11.9755C11.9588 7.45 11.9505 7.45 11.9505 7.45C11.9505 7.45 11.9422 7.45 11.9255 7.45H11.8755H11.8505C11.8672 7.45 11.8755 7.45 11.8755 7.45H11.9005H11.9255H11.9005H11.9505ZM15.3505 5.65C14.7338 5.65 14.2255 5.45 13.8255 5.05C13.4422 4.65 13.2505 4.14167 13.2505 3.525C13.2505 2.90833 13.4422 2.40833 13.8255 2.025C14.2255 1.625 14.7338 1.425 15.3505 1.425C15.9672 1.425 16.4755 1.625 16.8755 2.025C17.2755 2.40833 17.4755 2.90833 17.4755 3.525C17.4755 4.14167 17.2755 4.65 16.8755 5.05C16.4922 5.45 15.9838 5.65 15.3505 5.65ZM15.1005 3.5C15.1338 3.5 15.1588 3.5 15.1755 3.5C15.1922 3.5 15.2172 3.5 15.2505 3.5C15.2172 3.5 15.1922 3.5 15.1755 3.5C15.1588 3.5 15.1338 3.5 15.1005 3.5C15.0672 3.5 15.0422 3.5 15.0255 3.5C15.0255 3.5 15.0088 3.5 14.9755 3.5C15.0088 3.5 15.0255 3.5 15.0255 3.5C15.0422 3.5 15.0672 3.5 15.1005 3.5Z" fill="black"/>
</g>
<defs>
<clipPath id="clip0_3207_17458">
<rect width="24" height="24" fill="white"/>
</clipPath>
</defs>
</svg>
