<svg width="24" height="24" viewBox="0 0 24 24" fill="none" xmlns="http://www.w3.org/2000/svg">
<g clip-path="url(#clip0_3207_17452)">
<rect width="24" height="24" fill="white"/>
<path d="M14.3005 22.125C14.0505 22.125 13.8338 22.0333 13.6505 21.85C13.4838 21.6667 13.4005 21.45 13.4005 21.2V16L10.2255 12.85C9.90882 12.5333 9.72549 12.175 9.67549 11.775C9.64216 11.3583 9.73382 10.9667 9.95049 10.6L12.0255 6.975H9.02549L7.35049 9.875C7.23382 10.075 7.05882 10.225 6.82549 10.325C6.59216 10.4083 6.35049 10.375 6.10049 10.225C5.86716 10.0917 5.72549 9.9 5.67549 9.65C5.64216 9.4 5.68382 9.16667 5.80049 8.95L7.50049 5.975C7.65049 5.725 7.85882 5.525 8.12549 5.375C8.40882 5.225 8.70882 5.15 9.02549 5.15H12.4255C12.8255 5.15 13.2338 5.23333 13.6505 5.4C14.0838 5.56667 14.4672 5.83333 14.8005 6.2L17.0005 8.55H20.3755C20.6422 8.55 20.8588 8.64167 21.0255 8.825C21.2088 8.99167 21.3005 9.2 21.3005 9.45C21.3005 9.7 21.2088 9.91667 21.0255 10.1C20.8588 10.2667 20.6422 10.35 20.3755 10.35H17.0505C16.7838 10.35 16.5255 10.3083 16.2755 10.225C16.0422 10.125 15.8338 9.975 15.6505 9.775L13.7255 7.725L11.5005 11.55L14.8255 14.875C14.9588 15.0083 15.0588 15.1667 15.1255 15.35C15.1922 15.5167 15.2255 15.7 15.2255 15.9V21.2C15.2255 21.4667 15.1338 21.6833 14.9505 21.85C14.7838 22.0333 14.5672 22.125 14.3005 22.125ZM2.97549 17.675C2.72549 17.675 2.50882 17.5917 2.32549 17.425C2.14216 17.2417 2.05049 17.0167 2.05049 16.75C2.05049 16.5 2.13382 16.2917 2.30049 16.125C2.48382 15.9417 2.70882 15.85 2.97549 15.85H6.90049L8.47549 13.225L9.77549 14.6L8.30049 17C8.16716 17.2167 8.00049 17.3833 7.80049 17.5C7.60049 17.6167 7.39216 17.675 7.17549 17.675H2.97549ZM9.57549 5.9C9.57549 5.9 9.56716 5.9 9.55049 5.9H9.52549H9.50049C9.50049 5.9 9.49216 5.9 9.47549 5.9H9.50049H9.55049C9.56716 5.9 9.57549 5.9 9.57549 5.9C9.57549 5.9 9.58382 5.9 9.60049 5.9H9.62549H9.67549C9.69216 5.9 9.70049 5.9 9.70049 5.9C9.70049 5.9 9.69216 5.9 9.67549 5.9H9.62549C9.62549 5.9 9.61716 5.9 9.60049 5.9H9.57549H9.60049C9.60049 5.9 9.59216 5.9 9.57549 5.9ZM9.42549 5.9C9.44216 5.9 9.45049 5.9 9.45049 5.9H9.47549H9.52549H9.50049H9.45049H9.50049H9.55049H9.52549C9.52549 5.9 9.51716 5.9 9.50049 5.9H9.45049C9.45049 5.9 9.44216 5.9 9.42549 5.9ZM9.57549 5.9C9.59216 5.9 9.60049 5.9 9.60049 5.9C9.60049 5.9 9.59216 5.9 9.57549 5.9H9.55049H9.57549H9.60049C9.61716 5.9 9.62549 5.9 9.62549 5.9H9.67549C9.69216 5.9 9.70049 5.9 9.70049 5.9C9.70049 5.9 9.69216 5.9 9.67549 5.9H9.62549H9.60049C9.58382 5.9 9.57549 5.9 9.57549 5.9C9.57549 5.9 9.56716 5.9 9.55049 5.9H9.50049H9.47549C9.49216 5.9 9.50049 5.9 9.50049 5.9H9.52549H9.55049H9.52549H9.57549ZM14.8755 4.375C14.4755 4.375 14.1255 4.23333 13.8255 3.95C13.5422 3.66667 13.4005 3.325 13.4005 2.925C13.4005 2.50833 13.5422 2.15833 13.8255 1.875C14.1255 1.575 14.4755 1.425 14.8755 1.425C15.2922 1.425 15.6422 1.575 15.9255 1.875C16.2255 2.15833 16.3755 2.50833 16.3755 2.925C16.3755 3.34167 16.2255 3.69167 15.9255 3.975C15.6422 4.24167 15.2922 4.375 14.8755 4.375ZM14.6505 2.875C14.6838 2.875 14.7088 2.875 14.7255 2.875C14.7422 2.875 14.7672 2.875 14.8005 2.875C14.7672 2.875 14.7422 2.875 14.7255 2.875C14.7088 2.875 14.6838 2.875 14.6505 2.875C14.6172 2.875 14.5922 2.875 14.5755 2.875C14.5755 2.875 14.5588 2.875 14.5255 2.875C14.5588 2.875 14.5755 2.875 14.5755 2.875C14.5922 2.875 14.6172 2.875 14.6505 2.875Z" fill="black"/>
</g>
<defs>
<clipPath id="clip0_3207_17452">
<rect width="24" height="24" fill="white"/>
</clipPath>
</defs>
</svg>
