<svg width="24" height="24" viewBox="0 0 24 24" fill="none" xmlns="http://www.w3.org/2000/svg">
<g clip-path="url(#clip0_3207_15242)">
<rect width="24" height="24" fill="white"/>
<path d="M12.7755 5.275C12.7755 5.275 12.7672 5.275 12.7505 5.275H12.7005H12.7255H12.7005H12.6755C12.6755 5.275 12.6672 5.275 12.6505 5.275H12.6755C12.6922 5.275 12.7005 5.275 12.7005 5.275H12.7505C12.7672 5.275 12.7755 5.275 12.7755 5.275H12.8005H12.8505H12.8005C12.8005 5.275 12.7922 5.275 12.7755 5.275H12.7505H12.7255H12.7755ZM12.6255 5.275C12.6255 5.275 12.6172 5.275 12.6005 5.275C12.6172 5.275 12.6255 5.275 12.6255 5.275H12.6755H12.7005H12.6755H12.6255ZM14.7255 22.125C14.4255 22.125 14.1588 22.025 13.9255 21.825C13.7088 21.6417 13.5922 21.4 13.5755 21.1L13.1755 15.9L10.2755 13.025C9.92549 12.6917 9.71716 12.2833 9.65049 11.8C9.60049 11.3 9.70882 10.8333 9.97549 10.4L11.6255 7.625H9.67549L7.70049 10.525C7.50049 10.8083 7.22549 10.9667 6.87549 11C6.54216 11.0167 6.25882 10.9 6.02549 10.65C5.87549 10.4833 5.78382 10.2917 5.75049 10.075C5.73382 9.85833 5.78382 9.64167 5.90049 9.425L7.75049 6.025C7.90049 5.75833 8.11716 5.54167 8.40049 5.375C8.68382 5.19167 8.99216 5.1 9.32549 5.1H12.3255C12.8922 5.1 13.4338 5.20833 13.9505 5.425C14.4672 5.64167 14.9088 5.93333 15.2755 6.3L17.3505 8.4H20.4005C20.7005 8.4 20.9588 8.50833 21.1755 8.725C21.3922 8.94167 21.5005 9.2 21.5005 9.5C21.5005 9.81667 21.3922 10.075 21.1755 10.275C20.9588 10.4583 20.7338 10.5583 20.5005 10.575L17.1255 10.8C16.9255 10.8167 16.7255 10.7917 16.5255 10.725C16.3255 10.6583 16.1505 10.5583 16.0005 10.425L14.4255 9.125L13.0005 11.575L15.4005 14.6C15.5505 14.7833 15.6588 14.975 15.7255 15.175C15.7922 15.375 15.8255 15.575 15.8255 15.775V21C15.8255 21.3333 15.7172 21.6 15.5005 21.8C15.3005 22.0167 15.0422 22.125 14.7255 22.125ZM2.32549 16.125C2.32549 15.8417 2.41716 15.5833 2.60049 15.35C2.78382 15.1 3.07549 14.9667 3.47549 14.95L7.30049 14.875L10.1255 10.15L10.5255 10.4L7.57549 15.35L3.47549 15.425C3.24216 15.425 3.06716 15.5 2.95049 15.65C2.85049 15.8 2.80049 15.9583 2.80049 16.125C2.80049 16.3083 2.85882 16.4583 2.97549 16.575C3.09216 16.6917 3.24216 16.7583 3.42549 16.775L7.55049 17.05C7.75049 17.0667 7.95049 17.0333 8.15049 16.95C8.35049 16.85 8.52549 16.7 8.67549 16.5L11.0005 13.45L11.3755 13.75L9.02549 16.825C8.87549 17.025 8.66716 17.2 8.40049 17.35C8.15049 17.4833 7.85882 17.5417 7.52549 17.525L3.40049 17.25C3.10049 17.2333 2.84216 17.1333 2.62549 16.95C2.42549 16.75 2.32549 16.475 2.32549 16.125ZM14.7255 21.65C14.9088 21.65 15.0588 21.5833 15.1755 21.45C15.2922 21.3333 15.3505 21.1833 15.3505 21V15.775C15.3505 15.625 15.3255 15.475 15.2755 15.325C15.2255 15.175 15.1505 15.0417 15.0505 14.925L12.4255 11.6L14.3005 8.4L16.3005 10.05C16.4005 10.1333 16.5172 10.2083 16.6505 10.275C16.7838 10.325 16.9338 10.3417 17.1005 10.325L20.4505 10.1C20.6338 10.0833 20.7755 10.0167 20.8755 9.9C20.9755 9.76667 21.0255 9.63333 21.0255 9.5C21.0255 9.33333 20.9588 9.19167 20.8255 9.075C20.7088 8.94167 20.5672 8.875 20.4005 8.875H17.1505L14.9505 6.65C14.6005 6.3 14.2005 6.03333 13.7505 5.85C13.3005 5.66667 12.8255 5.575 12.3255 5.575H9.32549C9.09216 5.575 8.86716 5.64167 8.65049 5.775C8.45049 5.89167 8.28382 6.06667 8.15049 6.3L6.30049 9.675C6.23382 9.79167 6.20882 9.90833 6.22549 10.025C6.24216 10.1417 6.29216 10.2417 6.37549 10.325C6.49216 10.4583 6.64216 10.525 6.82549 10.525C7.02549 10.525 7.17549 10.45 7.27549 10.3L9.42549 7.15H12.4505L10.3755 10.65C10.1755 10.9667 10.0922 11.3167 10.1255 11.7C10.1588 12.0833 10.3172 12.4083 10.6005 12.675L13.6255 15.675L14.0505 20.975C14.0672 21.1583 14.1338 21.3167 14.2505 21.45C14.3672 21.5833 14.5255 21.65 14.7255 21.65ZM15.2755 4.8C14.8255 4.8 14.4338 4.63333 14.1005 4.3C13.7838 3.96667 13.6255 3.56667 13.6255 3.1C13.6255 2.63333 13.7838 2.24167 14.1005 1.925C14.4338 1.59167 14.8255 1.425 15.2755 1.425C15.7422 1.425 16.1422 1.59167 16.4755 1.925C16.8088 2.24167 16.9755 2.63333 16.9755 3.1C16.9755 3.56667 16.8088 3.96667 16.4755 4.3C16.1422 4.63333 15.7422 4.8 15.2755 4.8ZM15.3005 4.35C15.6505 4.35 15.9422 4.23333 16.1755 4C16.4088 3.76667 16.5255 3.46667 16.5255 3.1C16.5255 2.75 16.4088 2.45833 16.1755 2.225C15.9422 1.99167 15.6505 1.875 15.3005 1.875C14.9338 1.875 14.6338 1.99167 14.4005 2.225C14.1838 2.45833 14.0755 2.75 14.0755 3.1C14.0755 3.46667 14.1838 3.76667 14.4005 4C14.6338 4.23333 14.9338 4.35 15.3005 4.35Z" fill="black"/>
</g>
<defs>
<clipPath id="clip0_3207_15242">
<rect width="24" height="24" fill="white"/>
</clipPath>
</defs>
</svg>
