<svg width="24" height="24" viewBox="0 0 24 24" fill="none" xmlns="http://www.w3.org/2000/svg">
<g clip-path="url(#clip0_3207_17458)">
<rect width="24" height="24" fill="white"/>
<path d="M14.1255 22.125C13.6922 22.125 13.3172 21.9667 13.0005 21.65C12.6838 21.35 12.5255 20.9833 12.5255 20.55V16.45L10.1755 14.125C9.77549 13.725 9.52549 13.2333 9.42549 12.65C9.34216 12.05 9.45049 11.5 9.75049 11L10.8505 9.15H8.85049L7.72549 11.325C7.52549 11.7083 7.21716 11.9667 6.80049 12.1C6.40049 12.2333 5.99216 12.1917 5.57549 11.975C5.19216 11.775 4.93382 11.4667 4.80049 11.05C4.68382 10.6333 4.72549 10.2333 4.92549 9.85L6.30049 7.225C6.50049 6.85833 6.78382 6.55833 7.15049 6.325C7.51716 6.09167 7.93382 5.975 8.40049 5.975H11.9755C12.5088 5.975 13.0255 6.08333 13.5255 6.3C14.0422 6.5 14.5005 6.79167 14.9005 7.175L17.1755 9.4H19.6505C20.0838 9.4 20.4588 9.55833 20.7755 9.875C21.1088 10.175 21.2755 10.55 21.2755 11C21.2755 11.4333 21.1088 11.8083 20.7755 12.125C20.4588 12.425 20.0838 12.575 19.6505 12.575H16.9255C16.5755 12.575 16.2422 12.5167 15.9255 12.4C15.6088 12.2667 15.3255 12.075 15.0755 11.825L13.8005 10.55L12.8005 12.2L15.1755 14.625C15.3422 14.7917 15.4672 14.9917 15.5505 15.225C15.6505 15.4583 15.7005 15.6917 15.7005 15.925V20.55C15.7005 20.9833 15.5422 21.35 15.2255 21.65C14.9255 21.9667 14.5588 22.125 14.1255 22.125ZM3.62549 18.4C3.19216 18.4 2.81716 18.25 2.50049 17.95C2.18382 17.6333 2.02549 17.2583 2.02549 16.825C2.02549 16.3917 2.17549 16.025 2.47549 15.725C2.79216 15.4083 3.17549 15.25 3.62549 15.25H7.30049L8.00049 14.025L10.3505 16.35L9.57549 17.65C9.42549 17.9 9.23382 18.0917 9.00049 18.225C8.76716 18.3417 8.51716 18.4 8.25049 18.4H3.62549ZM11.7005 7.45C11.7005 7.45 11.6922 7.45 11.6755 7.45H11.6505H11.6255C11.6255 7.45 11.6172 7.45 11.6005 7.45H11.6255H11.6755C11.6922 7.45 11.7005 7.45 11.7005 7.45C11.7005 7.45 11.7088 7.45 11.7255 7.45H11.7505H11.7755C11.7922 7.45 11.8005 7.45 11.8005 7.45C11.8005 7.45 11.7922 7.45 11.7755 7.45H11.7505C11.7505 7.45 11.7422 7.45 11.7255 7.45H11.7005H11.7255C11.7255 7.45 11.7172 7.45 11.7005 7.45ZM11.5505 7.45C11.5672 7.45 11.5755 7.45 11.5755 7.45H11.6005H11.6505H11.6255H11.5755H11.6255H11.6755H11.6505C11.6505 7.45 11.6422 7.45 11.6255 7.45H11.5755C11.5755 7.45 11.5672 7.45 11.5505 7.45ZM11.7005 7.45C11.7172 7.45 11.7255 7.45 11.7255 7.45C11.7255 7.45 11.7172 7.45 11.7005 7.45H11.6755H11.7005H11.7255C11.7422 7.45 11.7505 7.45 11.7505 7.45H11.7755C11.7922 7.45 11.8005 7.45 11.8005 7.45C11.8005 7.45 11.7922 7.45 11.7755 7.45H11.7505H11.7255C11.7088 7.45 11.7005 7.45 11.7005 7.45C11.7005 7.45 11.6922 7.45 11.6755 7.45H11.6255H11.6005C11.6172 7.45 11.6255 7.45 11.6255 7.45H11.6505H11.6755H11.6505H11.7005ZM15.1005 5.65C14.4838 5.65 13.9755 5.45 13.5755 5.05C13.1922 4.65 13.0005 4.14167 13.0005 3.525C13.0005 2.90833 13.1922 2.40833 13.5755 2.025C13.9755 1.625 14.4838 1.425 15.1005 1.425C15.7172 1.425 16.2255 1.625 16.6255 2.025C17.0255 2.40833 17.2255 2.90833 17.2255 3.525C17.2255 4.14167 17.0255 4.65 16.6255 5.05C16.2422 5.45 15.7338 5.65 15.1005 5.65ZM14.8505 3.5C14.8838 3.5 14.9088 3.5 14.9255 3.5C14.9422 3.5 14.9672 3.5 15.0005 3.5C14.9672 3.5 14.9422 3.5 14.9255 3.5C14.9088 3.5 14.8838 3.5 14.8505 3.5C14.8172 3.5 14.7922 3.5 14.7755 3.5C14.7755 3.5 14.7588 3.5 14.7255 3.5C14.7588 3.5 14.7755 3.5 14.7755 3.5C14.7922 3.5 14.8172 3.5 14.8505 3.5Z" fill="black"/>
</g>
<defs>
<clipPath id="clip0_3207_17458">
<rect width="24" height="24" fill="white"/>
</clipPath>
</defs>
</svg>
