<svg width="24" height="24" viewBox="0 0 24 24" fill="none" xmlns="http://www.w3.org/2000/svg">
<g clip-path="url(#clip0_3207_17608)">
<rect width="24" height="24" fill="white"/>
<path d="M13.0505 7.8L12.8505 12.55H11.1505L10.9505 7.8H13.0505ZM12.0005 13.675C12.3672 13.675 12.6672 13.8 12.9005 14.05C13.1338 14.2833 13.2505 14.5833 13.2505 14.95C13.2505 15.3167 13.1338 15.6167 12.9005 15.85C12.6672 16.0667 12.3672 16.175 12.0005 16.175C11.6338 16.175 11.3338 16.0667 11.1005 15.85C10.8672 15.6167 10.7505 15.3167 10.7505 14.95C10.7505 14.5833 10.8672 14.2833 11.1005 14.05C11.3338 13.8 11.6338 13.675 12.0005 13.675ZM12.0005 18.9C13.3172 18.9 14.5922 18.6 15.8255 18C17.0588 17.3833 18.1838 16.5583 19.2005 15.525C20.2172 14.475 21.1005 13.3 21.8505 12C21.1005 10.7 20.2172 9.53333 19.2005 8.5C18.1838 7.45 17.0588 6.625 15.8255 6.025C14.5922 5.40833 13.3172 5.1 12.0005 5.1C10.6838 5.1 9.40882 5.40833 8.17549 6.025C6.94216 6.625 5.81716 7.45 4.80049 8.5C3.78382 9.53333 2.90049 10.7 2.15049 12C2.90049 13.3 3.78382 14.475 4.80049 15.525C5.81716 16.5583 6.94216 17.3833 8.17549 18C9.40882 18.6 10.6838 18.9 12.0005 18.9ZM12.0005 20.75C10.2838 20.75 8.65049 20.35 7.10049 19.55C5.56716 18.7333 4.20049 17.6667 3.00049 16.35C1.80049 15.0333 0.800488 13.5833 0.000488281 12C0.800488 10.4167 1.80049 8.96667 3.00049 7.65C4.20049 6.33333 5.56716 5.275 7.10049 4.475C8.65049 3.65833 10.2838 3.25 12.0005 3.25C13.7172 3.25 15.3422 3.65833 16.8755 4.475C18.4255 5.275 19.8005 6.33333 21.0005 7.65C22.2005 8.96667 23.2005 10.4167 24.0005 12C23.2005 13.5833 22.2005 15.0333 21.0005 16.35C19.8005 17.6667 18.4255 18.7333 16.8755 19.55C15.3422 20.35 13.7172 20.75 12.0005 20.75Z" fill="black"/>
</g>
<defs>
<clipPath id="clip0_3207_17608">
<rect width="24" height="24" fill="white"/>
</clipPath>
</defs>
</svg>
