<svg width="24" height="24" viewBox="0 0 24 24" fill="none" xmlns="http://www.w3.org/2000/svg">
<g clip-path="url(#clip0_3207_15276)">
<rect width="24" height="24" fill="white"/>
<path d="M12.3005 7.8L12.2255 13.5H11.7755L11.7005 7.8H12.3005ZM12.0005 15.175C12.1338 15.175 12.2505 15.225 12.3505 15.325C12.4505 15.425 12.5005 15.55 12.5005 15.7C12.5005 15.8333 12.4505 15.95 12.3505 16.05C12.2505 16.1333 12.1338 16.175 12.0005 16.175C11.8505 16.175 11.7255 16.1333 11.6255 16.05C11.5422 15.95 11.5005 15.8333 11.5005 15.7C11.5005 15.55 11.5422 15.425 11.6255 15.325C11.7255 15.225 11.8505 15.175 12.0005 15.175ZM12.0005 20.275C13.6172 20.275 15.1505 19.9 16.6005 19.15C18.0672 18.4 19.3755 17.4 20.5255 16.15C21.6922 14.9 22.6672 13.5167 23.4505 12C22.6672 10.4833 21.6922 9.1 20.5255 7.85C19.3755 6.6 18.0672 5.6 16.6005 4.85C15.1505 4.1 13.6172 3.725 12.0005 3.725C10.3838 3.725 8.84216 4.1 7.37549 4.85C5.92549 5.6 4.61716 6.6 3.45049 7.85C2.30049 9.1 1.33382 10.4833 0.550488 12C1.33382 13.5167 2.30049 14.9 3.45049 16.15C4.61716 17.4 5.92549 18.4 7.37549 19.15C8.84216 19.9 10.3838 20.275 12.0005 20.275ZM12.0005 20.75C10.2838 20.75 8.65049 20.35 7.10049 19.55C5.56716 18.7333 4.20049 17.6667 3.00049 16.35C1.80049 15.0333 0.800488 13.5833 0.000488281 12C0.800488 10.4167 1.80049 8.96667 3.00049 7.65C4.20049 6.33333 5.56716 5.275 7.10049 4.475C8.65049 3.65833 10.2838 3.25 12.0005 3.25C13.7172 3.25 15.3422 3.65833 16.8755 4.475C18.4255 5.275 19.8005 6.33333 21.0005 7.65C22.2005 8.96667 23.2005 10.4167 24.0005 12C23.2005 13.5833 22.2005 15.0333 21.0005 16.35C19.8005 17.6667 18.4255 18.7333 16.8755 19.55C15.3422 20.35 13.7172 20.75 12.0005 20.75Z" fill="black"/>
</g>
<defs>
<clipPath id="clip0_3207_15276">
<rect width="24" height="24" fill="white"/>
</clipPath>
</defs>
</svg>
