<svg width="24" height="24" viewBox="0 0 24 24" fill="none" xmlns="http://www.w3.org/2000/svg">
<g clip-path="url(#clip0_3207_17616)">
<rect width="24" height="24" fill="white"/>
<path d="M16.875 19.55C15.3417 20.35 13.7167 20.75 12 20.75C10.2833 20.75 8.65 20.35 7.1 19.55C5.56667 18.7333 4.2 17.6667 3 16.35C1.8 15.0333 0.8 13.5833 0 12C0.8 10.4167 1.8 8.96667 3 7.65C4.2 6.33333 5.56667 5.275 7.1 4.475C8.65 3.65833 10.2833 3.25 12 3.25C13.7167 3.25 15.3417 3.65833 16.875 4.475C18.425 5.275 19.8 6.33333 21 7.65C22.2 8.96667 23.2 10.4167 24 12C23.2 13.5833 22.2 15.0333 21 16.35C19.8 17.6667 18.425 18.7333 16.875 19.55ZM12.3 7.55H11.7L11.775 13.25H12.225L12.3 7.55ZM12.35 15.6C12.25 15.5 12.1333 15.45 12 15.45C11.85 15.45 11.725 15.5 11.625 15.6C11.5417 15.7 11.5 15.825 11.5 15.975C11.5 16.1083 11.5417 16.225 11.625 16.325C11.725 16.4083 11.85 16.45 12 16.45C12.1333 16.45 12.25 16.4083 12.35 16.325C12.45 16.225 12.5 16.1083 12.5 15.975C12.5 15.825 12.45 15.7 12.35 15.6Z" fill="black"/>
</g>
<defs>
<clipPath id="clip0_3207_17616">
<rect width="24" height="24" fill="white"/>
</clipPath>
</defs>
</svg>
