<svg width="24" height="24" viewBox="0 0 24 24" fill="none" xmlns="http://www.w3.org/2000/svg">
<g clip-path="url(#clip0_3207_17620)">
<rect width="24" height="24" fill="white"/>
<path d="M16.875 19.55C15.3417 20.35 13.7167 20.75 12 20.75C10.2833 20.75 8.65 20.35 7.1 19.55C5.56667 18.7333 4.2 17.6667 3 16.35C1.8 15.0333 0.8 13.5833 0 12C0.8 10.4167 1.8 8.96667 3 7.65C4.2 6.33333 5.56667 5.275 7.1 4.475C8.65 3.65833 10.2833 3.25 12 3.25C13.7167 3.25 15.3417 3.65833 16.875 4.475C18.425 5.275 19.8 6.33333 21 7.65C22.2 8.96667 23.2 10.4167 24 12C23.2 13.5833 22.2 15.0333 21 16.35C19.8 17.6667 18.425 18.7333 16.875 19.55ZM12.8 7.55H11.2L11.35 12.775H12.65L12.8 7.55ZM12.7 14.75C12.5167 14.55 12.2833 14.45 12 14.45C11.7 14.45 11.4583 14.55 11.275 14.75C11.0917 14.9333 11 15.175 11 15.475C11 15.7583 11.0917 15.9917 11.275 16.175C11.4583 16.3583 11.7 16.45 12 16.45C12.2833 16.45 12.5167 16.3583 12.7 16.175C12.9 15.9917 13 15.7583 13 15.475C13 15.175 12.9 14.9333 12.7 14.75Z" fill="black"/>
</g>
<defs>
<clipPath id="clip0_3207_17620">
<rect width="24" height="24" fill="white"/>
</clipPath>
</defs>
</svg>
