<svg width="24" height="24" viewBox="0 0 24 24" fill="none" xmlns="http://www.w3.org/2000/svg">
<g clip-path="url(#clip0_3139_1954)">
<rect width="24" height="24" fill="white"/>
<path d="M3.00049 18.075C3.00049 16.8417 3.37549 15.7667 4.12549 14.85C4.89216 13.9333 5.95049 13.2333 7.30049 12.75C8.66716 12.25 10.2338 12 12.0005 12C13.7505 12 15.3088 12.25 16.6755 12.75C18.0422 13.2333 19.1005 13.9417 19.8505 14.875C20.6172 15.7917 21.0005 16.8583 21.0005 18.075V21H3.00049V18.075ZM19.5755 19.6V18.075C19.5755 17.125 19.2588 16.3 18.6255 15.6C17.9922 14.8833 17.1005 14.3417 15.9505 13.975C14.8172 13.5917 13.5005 13.4 12.0005 13.4C10.5005 13.4 9.17549 13.5917 8.02549 13.975C6.89216 14.3417 6.00882 14.8833 5.37549 15.6C4.74215 16.3 4.42549 17.125 4.42549 18.075V19.6H19.5755ZM12.0005 10.325C11.2338 10.325 10.5255 10.1417 9.87549 9.775C9.24216 9.40833 8.74216 8.90833 8.37549 8.275C8.00882 7.64167 7.82549 6.94167 7.82549 6.175C7.82549 5.40833 8.00882 4.70833 8.37549 4.075C8.74216 3.425 9.24216 2.91667 9.87549 2.55C10.5255 2.18333 11.2338 2 12.0005 2C12.7672 2 13.4672 2.18333 14.1005 2.55C14.7505 2.91667 15.2588 3.425 15.6255 4.075C15.9922 4.70833 16.1755 5.40833 16.1755 6.175C16.1755 6.94167 15.9922 7.64167 15.6255 8.275C15.2588 8.90833 14.7505 9.40833 14.1005 9.775C13.4672 10.1417 12.7672 10.325 12.0005 10.325ZM12.0005 9.05C12.5338 9.05 13.0172 8.925 13.4505 8.675C13.9005 8.40833 14.2505 8.05833 14.5005 7.625C14.7505 7.19167 14.8755 6.70833 14.8755 6.175C14.8755 5.625 14.7505 5.13333 14.5005 4.7C14.2505 4.25 13.9005 3.9 13.4505 3.65C13.0172 3.4 12.5338 3.275 12.0005 3.275C11.4672 3.275 10.9755 3.4 10.5255 3.65C10.0922 3.9 9.75049 4.25 9.50049 4.7C9.25049 5.13333 9.12549 5.625 9.12549 6.175C9.12549 6.70833 9.25049 7.19167 9.50049 7.625C9.75049 8.05833 10.0922 8.40833 10.5255 8.675C10.9755 8.925 11.4672 9.05 12.0005 9.05Z" fill="black"/>
</g>
<defs>
<clipPath id="clip0_3139_1954">
<rect width="24" height="24" fill="white"/>
</clipPath>
</defs>
</svg>
