<svg width="24" height="24" viewBox="0 0 24 24" fill="none" xmlns="http://www.w3.org/2000/svg">
<g clip-path="url(#clip0_3443_31404)">
<rect width="24" height="24" fill="white"/>
<path d="M3.00049 18.325C3.00049 17.0917 3.38382 16.0083 4.15049 15.075C4.91716 14.1417 5.97549 13.425 7.32549 12.925C8.69216 12.425 10.2505 12.175 12.0005 12.175C13.7505 12.175 15.3005 12.4333 16.6505 12.95C18.0172 13.45 19.0838 14.1667 19.8505 15.1C20.6172 16.0333 21.0005 17.1083 21.0005 18.325V21H3.00049V18.325ZM20.0255 20.075V18.325C20.0255 17.2917 19.6922 16.3833 19.0255 15.6C18.3588 14.8 17.4172 14.1833 16.2005 13.75C14.9838 13.3167 13.5838 13.1 12.0005 13.1C10.4172 13.1 9.01716 13.3167 7.80049 13.75C6.58382 14.1833 5.64216 14.8 4.97549 15.6C4.30882 16.3833 3.97549 17.2917 3.97549 18.325V20.075H20.0255ZM15.2755 4.35L12.0255 2.45L8.77549 4.35V8.05L12.0255 9.925L15.2755 8.05V4.35ZM12.0255 11L7.82549 8.575V3.825L12.0255 1.375L16.2255 3.825V8.575L12.0255 11Z" fill="black"/>
</g>
<defs>
<clipPath id="clip0_3443_31404">
<rect width="24" height="24" fill="white"/>
</clipPath>
</defs>
</svg>
