<svg width="24" height="24" viewBox="0 0 24 24" fill="none" xmlns="http://www.w3.org/2000/svg">
<g clip-path="url(#clip0_3375_5387)">
<rect width="24" height="24" fill="white"/>
<path d="M12.0005 12.275C11.5672 12.275 11.1672 12.175 10.8005 11.975C10.4338 11.7583 10.1422 11.475 9.92549 11.125C9.72549 10.7583 9.62549 10.3583 9.62549 9.925C9.62549 9.49167 9.72549 9.1 9.92549 8.75C10.1422 8.38333 10.4338 8.1 10.8005 7.9C11.1672 7.68333 11.5672 7.575 12.0005 7.575C12.4338 7.575 12.8338 7.68333 13.2005 7.9C13.5672 8.1 13.8505 8.38333 14.0505 8.75C14.2672 9.1 14.3755 9.49167 14.3755 9.925C14.3755 10.3583 14.2672 10.7583 14.0505 11.125C13.8505 11.475 13.5672 11.7583 13.2005 11.975C12.8338 12.175 12.4338 12.275 12.0005 12.275ZM12.0005 9.925C12.1672 9.925 12.2922 9.925 12.3755 9.925C12.4588 9.925 12.5838 9.925 12.7505 9.925C12.5838 9.925 12.4588 9.925 12.3755 9.925C12.2922 9.925 12.1672 9.925 12.0005 9.925C11.8338 9.925 11.7088 9.925 11.6255 9.925C11.5422 9.925 11.4172 9.925 11.2505 9.925C11.4172 9.925 11.5422 9.925 11.6255 9.925C11.7088 9.925 11.8338 9.925 12.0005 9.925ZM13.5005 17.7C13.5005 17.2333 13.3755 16.8917 13.1255 16.675C12.8922 16.4417 12.5172 16.325 12.0005 16.325C11.4838 16.325 11.1005 16.4417 10.8505 16.675C10.6172 16.8917 10.5005 17.2333 10.5005 17.7H7.30049C7.30049 16.7833 7.50049 15.9833 7.90049 15.3C8.30049 14.6 8.85049 14.0667 9.55049 13.7C10.2672 13.3333 11.0838 13.15 12.0005 13.15C12.9172 13.15 13.7255 13.3333 14.4255 13.7C15.1422 14.0667 15.7005 14.6 16.1005 15.3C16.5005 15.9833 16.7005 16.7833 16.7005 17.7H13.5005ZM7.50049 21C6.66716 21 5.90882 20.8 5.22549 20.4C4.54216 20 4.00049 19.4583 3.60049 18.775C3.20049 18.0917 3.00049 17.3333 3.00049 16.5V7.5C3.00049 6.66667 3.20049 5.90833 3.60049 5.225C4.00049 4.54167 4.54216 4 5.22549 3.6C5.90882 3.2 6.66716 3 7.50049 3H16.2505C17.1172 3 17.9088 3.2 18.6255 3.6C19.3588 4 19.9338 4.54167 20.3505 5.225C20.7838 5.90833 21.0005 6.66667 21.0005 7.5V16.5C21.0005 17.3333 20.8005 18.0917 20.4005 18.775C20.0005 19.4583 19.4588 20 18.7755 20.4C18.0922 20.8 17.3338 21 16.5005 21H7.50049ZM16.5005 17.55C16.7838 17.55 17.0172 17.45 17.2005 17.25C17.4005 17.05 17.5005 16.8 17.5005 16.5V7.475C17.5005 7.19167 17.4005 6.95 17.2005 6.75C17.0172 6.55 16.7838 6.45 16.5005 6.45H7.50049C7.21716 6.45 6.97549 6.55 6.77549 6.75C6.59216 6.95 6.50049 7.2 6.50049 7.5V16.5C6.50049 16.8 6.59216 17.05 6.77549 17.25C6.97549 17.45 7.21716 17.55 7.50049 17.55H16.5005Z" fill="black"/>
</g>
<defs>
<clipPath id="clip0_3375_5387">
<rect width="24" height="24" fill="white"/>
</clipPath>
</defs>
</svg>
