<svg width="24" height="24" viewBox="0 0 24 24" fill="none" xmlns="http://www.w3.org/2000/svg">
<g clip-path="url(#clip0_3443_31432)">
<rect width="24" height="24" fill="white"/>
<path d="M3.00049 18.175C3.00049 16.925 3.37549 15.8417 4.12549 14.925C4.89216 14.0083 5.95049 13.3083 7.30049 12.825C8.66716 12.325 10.2338 12.075 12.0005 12.075C13.7505 12.075 15.3088 12.325 16.6755 12.825C18.0422 13.3083 19.1005 14.0167 19.8505 14.95C20.6172 15.8667 21.0005 16.9417 21.0005 18.175V21H3.00049V18.175ZM19.5755 19.6V18.175C19.5755 17.225 19.2588 16.4 18.6255 15.7C17.9922 14.9833 17.1005 14.4333 15.9505 14.05C14.8172 13.6667 13.5005 13.475 12.0005 13.475C10.5005 13.475 9.17549 13.6667 8.02549 14.05C6.89216 14.4333 6.00882 14.9833 5.37549 15.7C4.74215 16.4 4.42549 17.225 4.42549 18.175V19.6H19.5755ZM8.70049 6.1C8.56716 6.23333 8.50049 6.375 8.50049 6.525C8.50049 6.675 8.56716 6.81667 8.70049 6.95L11.6005 9.85C11.7505 9.98333 11.8838 10.05 12.0005 10.05C12.1338 10.05 12.2672 9.98333 12.4005 9.85L15.3005 6.95C15.4338 6.81667 15.5005 6.675 15.5005 6.525C15.5005 6.375 15.4338 6.23333 15.3005 6.1L12.4005 3.2C12.2672 3.05 12.1338 2.975 12.0005 2.975C11.8838 2.975 11.7505 3.05 11.6005 3.2L8.70049 6.1ZM10.6505 2.3C11.0672 1.88333 11.5172 1.675 12.0005 1.675C12.5005 1.675 12.9505 1.88333 13.3505 2.3L16.2255 5.175C16.6422 5.575 16.8505 6.025 16.8505 6.525C16.8505 7.00833 16.6422 7.45833 16.2255 7.875L13.3505 10.75C12.9505 11.15 12.5005 11.35 12.0005 11.35C11.5172 11.35 11.0672 11.15 10.6505 10.75L7.77549 7.875C7.37549 7.45833 7.17549 7.00833 7.17549 6.525C7.17549 6.025 7.37549 5.575 7.77549 5.175L10.6505 2.3Z" fill="black"/>
</g>
<defs>
<clipPath id="clip0_3443_31432">
<rect width="24" height="24" fill="white"/>
</clipPath>
</defs>
</svg>
