<svg width="24" height="24" viewBox="0 0 24 24" fill="none" xmlns="http://www.w3.org/2000/svg">
<g clip-path="url(#clip0_3443_31382)">
<rect width="24" height="24" fill="white"/>
<path d="M3.00049 18C3.00049 16.7667 3.37549 15.7 4.12549 14.8C4.89216 13.8833 5.95049 13.1917 7.30049 12.725C8.66716 12.2417 10.2338 12 12.0005 12C13.7672 12 15.3255 12.2417 16.6755 12.725C18.0422 13.1917 19.1005 13.8833 19.8505 14.8C20.6172 15.7 21.0005 16.7667 21.0005 18V21H3.00049V18ZM19.1005 19.15V18C19.1005 17.1333 18.8088 16.3917 18.2255 15.775C17.6422 15.1417 16.8088 14.6667 15.7255 14.35C14.6588 14.0167 13.4172 13.85 12.0005 13.85C10.5838 13.85 9.33382 14.0167 8.25049 14.35C7.18382 14.6667 6.35882 15.1417 5.77549 15.775C5.19216 16.3917 4.90049 17.1333 4.90049 18V19.15H19.1005ZM9.85049 8.2H14.1505V3.8H9.85049V8.2ZM16.0005 2V10H8.00049V2H16.0005Z" fill="black"/>
</g>
<defs>
<clipPath id="clip0_3443_31382">
<rect width="24" height="24" fill="white"/>
</clipPath>
</defs>
</svg>
