<svg width="24" height="24" viewBox="0 0 24 24" fill="none" xmlns="http://www.w3.org/2000/svg">
<g clip-path="url(#clip0_3375_5385)">
<rect width="24" height="24" fill="white"/>
<path d="M7.32549 21C6.54216 21 5.81716 20.8083 5.15049 20.425C4.48382 20.0417 3.95882 19.5167 3.57549 18.85C3.19216 18.1833 3.00049 17.4583 3.00049 16.675V7.325C3.00049 6.54167 3.19216 5.81667 3.57549 5.15C3.95882 4.48333 4.48382 3.95833 5.15049 3.575C5.81716 3.19167 6.54216 3 7.32549 3H16.5005C17.3172 3 18.0672 3.19167 18.7505 3.575C19.4505 3.95833 20.0005 4.48333 20.4005 5.15C20.8005 5.8 21.0005 6.525 21.0005 7.325V16.675C21.0005 17.4583 20.8088 18.1833 20.4255 18.85C20.0422 19.5167 19.5172 20.0417 18.8505 20.425C18.1838 20.8083 17.4588 21 16.6755 21H7.32549ZM16.6755 18.125C17.0588 18.125 17.3838 17.9833 17.6505 17.7C17.9338 17.4167 18.0755 17.075 18.0755 16.675V7.3C18.0755 6.9 17.9338 6.56667 17.6505 6.3C17.3838 6.01667 17.0588 5.875 16.6755 5.875H7.32549C6.94216 5.875 6.60882 6.01667 6.32549 6.3C6.05882 6.58333 5.92549 6.925 5.92549 7.325V16.675C5.92549 17.075 6.05882 17.4167 6.32549 17.7C6.60882 17.9833 6.94216 18.125 7.32549 18.125H16.6755ZM12.0005 12.225C11.6005 12.225 11.2338 12.1333 10.9005 11.95C10.5838 11.7667 10.3338 11.5167 10.1505 11.2C9.96716 10.8833 9.87549 10.525 9.87549 10.125C9.87549 9.74167 9.96716 9.39167 10.1505 9.075C10.3505 8.74167 10.6088 8.48333 10.9255 8.3C11.2588 8.11667 11.6172 8.025 12.0005 8.025C12.3838 8.025 12.7422 8.11667 13.0755 8.3C13.4088 8.48333 13.6672 8.74167 13.8505 9.075C14.0338 9.39167 14.1255 9.74167 14.1255 10.125C14.1255 10.525 14.0338 10.8833 13.8505 11.2C13.6672 11.5167 13.4088 11.7667 13.0755 11.95C12.7588 12.1333 12.4005 12.225 12.0005 12.225ZM12.0005 10.125C12.0672 10.125 12.1172 10.125 12.1505 10.125C12.1838 10.125 12.2338 10.125 12.3005 10.125C12.2338 10.125 12.1838 10.125 12.1505 10.125C12.1172 10.125 12.0672 10.125 12.0005 10.125C11.9338 10.125 11.8838 10.125 11.8505 10.125C11.8172 10.125 11.7672 10.125 11.7005 10.125C11.7672 10.125 11.8172 10.125 11.8505 10.125C11.8838 10.125 11.9338 10.125 12.0005 10.125ZM14.6005 18.45C14.6005 17.7333 14.3588 17.15 13.8755 16.7C13.3922 16.2333 12.7672 16 12.0005 16C11.2338 16 10.6088 16.2333 10.1255 16.7C9.64216 17.15 9.40049 17.7333 9.40049 18.45H6.70049C6.70049 17.4667 6.92549 16.5917 7.37549 15.825C7.82549 15.0583 8.45049 14.4667 9.25049 14.05C10.0672 13.6167 10.9838 13.4 12.0005 13.4C13.0172 13.4 13.9255 13.6167 14.7255 14.05C15.5422 14.4667 16.1755 15.0583 16.6255 15.825C17.0755 16.5917 17.3005 17.4667 17.3005 18.45H14.6005Z" fill="black"/>
</g>
<defs>
<clipPath id="clip0_3375_5385">
<rect width="24" height="24" fill="white"/>
</clipPath>
</defs>
</svg>
