<svg width="24" height="24" viewBox="0 0 24 24" fill="none" xmlns="http://www.w3.org/2000/svg">
<g clip-path="url(#clip0_3375_5381)">
<rect width="24" height="24" fill="white"/>
<path d="M12.0005 13.65C11.3672 13.65 10.7755 13.5 10.2255 13.2C9.69216 12.8833 9.26716 12.4583 8.95049 11.925C8.65049 11.3917 8.50049 10.8083 8.50049 10.175C8.50049 9.54167 8.65049 8.95833 8.95049 8.425C9.26716 7.89167 9.69216 7.475 10.2255 7.175C10.7755 6.85833 11.3672 6.7 12.0005 6.7C12.6338 6.7 13.2172 6.85833 13.7505 7.175C14.3005 7.475 14.7255 7.89167 15.0255 8.425C15.3422 8.95833 15.5005 9.54167 15.5005 10.175C15.5005 10.8083 15.3422 11.3917 15.0255 11.925C14.7255 12.4583 14.3005 12.8833 13.7505 13.2C13.2172 13.5 12.6338 13.65 12.0005 13.65ZM12.0005 11.9C12.4838 11.9 12.8922 11.7333 13.2255 11.4C13.5588 11.0667 13.7255 10.6583 13.7255 10.175C13.7255 9.69167 13.5588 9.28333 13.2255 8.95C12.8922 8.61667 12.4838 8.45 12.0005 8.45C11.5172 8.45 11.1088 8.61667 10.7755 8.95C10.4422 9.28333 10.2755 9.69167 10.2755 10.175C10.2755 10.6583 10.4422 11.0667 10.7755 11.4C11.1088 11.7333 11.5172 11.9 12.0005 11.9ZM16.1505 19.575C16.1505 18.7417 15.8255 18.075 15.1755 17.575C14.5255 17.0583 13.4672 16.8 12.0005 16.8C10.5338 16.8 9.47549 17.0583 8.82549 17.575C8.17549 18.075 7.85049 18.7417 7.85049 19.575H6.00049C6.00049 18.675 6.22549 17.8833 6.67549 17.2C7.12549 16.5167 7.80049 15.9833 8.70049 15.6C9.60049 15.2 10.7005 15 12.0005 15C13.3005 15 14.4005 15.2 15.3005 15.6C16.2005 15.9833 16.8755 16.5167 17.3255 17.2C17.7755 17.8833 18.0005 18.675 18.0005 19.575H16.1505ZM7.00049 21C6.26716 21 5.59216 20.825 4.97549 20.475C4.35882 20.125 3.87549 19.6417 3.52549 19.025C3.17549 18.4083 3.00049 17.7333 3.00049 17V7C3.00049 6.26667 3.17549 5.59167 3.52549 4.975C3.87549 4.35833 4.35882 3.875 4.97549 3.525C5.59216 3.175 6.26716 3 7.00049 3H17.0005C17.7338 3 18.4088 3.175 19.0255 3.525C19.6422 3.875 20.1255 4.35833 20.4755 4.975C20.8255 5.59167 21.0005 6.26667 21.0005 7V17C21.0005 17.7333 20.8255 18.4083 20.4755 19.025C20.1255 19.6417 19.6422 20.125 19.0255 20.475C18.4088 20.825 17.7338 21 17.0005 21H7.00049ZM17.0005 19.25C17.6172 19.25 18.1338 19.0333 18.5505 18.6C18.9838 18.1667 19.2005 17.6333 19.2005 17V7C19.2005 6.36667 18.9838 5.83333 18.5505 5.4C18.1338 4.96667 17.6172 4.75 17.0005 4.75H7.00049C6.38382 4.75 5.85882 4.96667 5.42549 5.4C5.00882 5.83333 4.80049 6.36667 4.80049 7V17C4.80049 17.6333 5.00882 18.1667 5.42549 18.6C5.85882 19.0333 6.38382 19.25 7.00049 19.25H17.0005Z" fill="black"/>
</g>
<defs>
<clipPath id="clip0_3375_5381">
<rect width="24" height="24" fill="white"/>
</clipPath>
</defs>
</svg>
