<svg width="24" height="24" viewBox="0 0 24 24" fill="none" xmlns="http://www.w3.org/2000/svg">
<g clip-path="url(#clip0_3438_187)">
<rect width="24" height="24" fill="white"/>
<path d="M3.00049 18.5C3.00049 17.25 3.38382 16.1583 4.15049 15.225C4.91716 14.275 5.97549 13.5417 7.32549 13.025C8.69216 12.5083 10.2505 12.25 12.0005 12.25C13.7338 12.25 15.2838 12.5167 16.6505 13.05C18.0172 13.5667 19.0838 14.3 19.8505 15.25C20.6172 16.2 21.0005 17.2833 21.0005 18.5V21H3.00049V18.5ZM20.5005 20.525V18.5C20.5005 17.3833 20.1422 16.3917 19.4255 15.525C18.7088 14.6417 17.7088 13.9583 16.4255 13.475C15.1422 12.975 13.6672 12.725 12.0005 12.725C10.3338 12.725 8.85882 12.975 7.57549 13.475C6.29216 13.9583 5.29216 14.6417 4.57549 15.525C3.85882 16.3917 3.50049 17.3833 3.50049 18.5V20.525H20.5005ZM8.50049 9.525H15.5005V2.475H8.50049V9.525ZM16.0005 2V10H8.00049V2H16.0005Z" fill="black"/>
</g>
<defs>
<clipPath id="clip0_3438_187">
<rect width="24" height="24" fill="white"/>
</clipPath>
</defs>
</svg>
