<svg width="24" height="24" viewBox="0 0 24 24" fill="none" xmlns="http://www.w3.org/2000/svg">
<g clip-path="url(#clip0_3207_17572)">
<rect width="24" height="24" fill="white"/>
<path d="M11.5 1.925C11.8333 1.60833 12.2333 1.45 12.7 1.45C13.1667 1.45 13.5583 1.61667 13.875 1.95C14.2083 2.26667 14.375 2.65833 14.375 3.125C14.375 3.575 14.2083 3.96667 13.875 4.3C13.5417 4.61667 13.1417 4.775 12.675 4.775C12.2083 4.775 11.8167 4.61667 11.5 4.3C11.1833 3.96667 11.025 3.56667 11.025 3.1C11.025 2.63333 11.1833 2.24167 11.5 1.925ZM15.275 11.6L15.475 9.225L18.3 10.675C18.5167 10.7917 18.675 10.9667 18.775 11.2C18.8917 11.4167 18.9167 11.6417 18.85 11.875C18.7667 12.2083 18.575 12.4417 18.275 12.575C17.9917 12.7083 17.6917 12.7083 17.375 12.575L15.275 11.6ZM9.95 6C10.35 5.78333 10.7833 5.675 11.25 5.675C11.75 5.675 12.2167 5.80833 12.65 6.075C13.0833 6.34167 13.4083 6.7 13.625 7.15C13.8583 7.58333 13.9583 8.05 13.925 8.55L13.625 12.225L15.975 15.4C16.175 15.6833 16.325 15.9917 16.425 16.325L17.85 20.825C17.9167 21.0583 17.9083 21.2833 17.825 21.5C17.7583 21.7333 17.625 21.9167 17.425 22.05C17.2417 22.2 17.025 22.275 16.775 22.275C16.5417 22.275 16.325 22.2083 16.125 22.075C15.9417 21.9417 15.8083 21.7667 15.725 21.55L14.2 17.075L11.05 13.775C10.8333 13.5417 10.6667 13.275 10.55 12.975C10.45 12.6583 10.4167 12.3417 10.45 12.025L10.725 8.5L7.375 13.375C7.225 13.5917 7.01667 13.7333 6.75 13.8C6.5 13.8667 6.25 13.8333 6 13.7C5.73333 13.5667 5.55833 13.35 5.475 13.05C5.40833 12.7333 5.45833 12.4417 5.625 12.175L9 6.9C9.25 6.51667 9.56667 6.21667 9.95 6ZM5.65 21.15C5.6 20.9 5.65 20.65 5.8 20.4L9.45 14.4C9.66667 14.6167 9.88333 14.8333 10.1 15.05L10.275 15.25L11.25 16.3L7.7 21.575C7.46667 21.9083 7.15833 22.075 6.775 22.075C6.50833 22.075 6.26667 21.9833 6.05 21.8C5.85 21.6333 5.71667 21.4167 5.65 21.15Z" fill="black"/>
</g>
<defs>
<clipPath id="clip0_3207_17572">
<rect width="24" height="24" fill="white"/>
</clipPath>
</defs>
</svg>
