<svg width="24" height="24" viewBox="0 0 24 24" fill="none" xmlns="http://www.w3.org/2000/svg">
<g clip-path="url(#clip0_3207_15290)">
<rect width="24" height="24" fill="white"/>
<path d="M11.8005 20V16.05C11.8005 15.2167 11.9172 14.4917 12.1505 13.875C12.3838 13.2583 12.7505 12.75 13.2505 12.35C13.7672 11.9333 14.4422 11.6333 15.2755 11.45L17.3255 13.8L19.4005 11.45C20.1838 11.6333 20.8422 11.9333 21.3755 12.35C21.9088 12.7667 22.3088 13.2917 22.5755 13.925C22.8588 14.5417 23.0005 15.25 23.0005 16.05V20H11.8005ZM22.5005 16.05C22.5005 14.9333 22.2255 14.0417 21.6755 13.375C21.1255 12.6917 20.4172 12.2333 19.5505 12L17.3255 14.525L15.1255 11.975C14.1922 12.1917 13.4755 12.6417 12.9755 13.325C12.4922 13.9917 12.2505 14.9 12.2505 16.05V19.525H22.5005V16.05ZM1.00049 16.05C1.00049 15.25 1.13382 14.5417 1.40049 13.925C1.68382 13.2917 2.09216 12.7667 2.62549 12.35C3.15882 11.9333 3.81716 11.6333 4.60049 11.45L6.67549 13.8L8.72549 11.45C9.55882 11.6333 10.2255 11.9333 10.7255 12.35C11.2422 12.75 11.6172 13.2583 11.8505 13.875C12.0838 14.4917 12.2005 15.2167 12.2005 16.05V20H1.00049V16.05ZM11.7505 19.525V16.05C11.7505 14.9 11.5005 13.9917 11.0005 13.325C10.5172 12.6583 9.80882 12.2167 8.87549 12L6.67549 14.525L4.45049 12C3.58382 12.2333 2.87549 12.6917 2.32549 13.375C1.77549 14.0417 1.50049 14.9333 1.50049 16.05V19.525H11.7505ZM17.3255 10.05C16.7255 10.05 16.1672 9.90833 15.6505 9.625C15.1505 9.325 14.7505 8.925 14.4505 8.425C14.1505 7.925 14.0005 7.375 14.0005 6.775C14.0005 6.175 14.1505 5.625 14.4505 5.125C14.7505 4.625 15.1505 4.225 15.6505 3.925C16.1672 3.625 16.7255 3.475 17.3255 3.475C17.9255 3.475 18.4755 3.625 18.9755 3.925C19.4922 4.20833 19.8922 4.60833 20.1755 5.125C20.4755 5.625 20.6255 6.175 20.6255 6.775C20.6255 7.375 20.4755 7.925 20.1755 8.425C19.8922 8.925 19.4922 9.325 18.9755 9.625C18.4755 9.90833 17.9255 10.05 17.3255 10.05ZM17.3255 9.575C18.1088 9.575 18.7672 9.3 19.3005 8.75C19.8505 8.2 20.1255 7.54167 20.1255 6.775C20.1255 5.99167 19.8505 5.325 19.3005 4.775C18.7505 4.225 18.0922 3.95 17.3255 3.95C16.5588 3.95 15.8922 4.225 15.3255 4.775C14.7755 5.325 14.5005 5.99167 14.5005 6.775C14.5005 7.54167 14.7755 8.2 15.3255 8.75C15.8755 9.3 16.5422 9.575 17.3255 9.575ZM6.67549 10.05C6.07549 10.05 5.51716 9.90833 5.00049 9.625C4.50049 9.325 4.10049 8.925 3.80049 8.425C3.51716 7.925 3.37549 7.375 3.37549 6.775C3.37549 6.175 3.51716 5.625 3.80049 5.125C4.10049 4.60833 4.50049 4.20833 5.00049 3.925C5.51716 3.625 6.07549 3.475 6.67549 3.475C7.27549 3.475 7.82549 3.625 8.32549 3.925C8.84216 4.225 9.25049 4.625 9.55049 5.125C9.85049 5.625 10.0005 6.175 10.0005 6.775C10.0005 7.375 9.85049 7.925 9.55049 8.425C9.25049 8.925 8.84216 9.325 8.32549 9.625C7.82549 9.90833 7.27549 10.05 6.67549 10.05ZM6.67549 9.575C7.45882 9.575 8.12549 9.3 8.67549 8.75C9.22549 8.2 9.50049 7.54167 9.50049 6.775C9.50049 5.99167 9.22549 5.325 8.67549 4.775C8.12549 4.225 7.45882 3.95 6.67549 3.95C5.90882 3.95 5.25049 4.225 4.70049 4.775C4.15049 5.325 3.87549 5.99167 3.87549 6.775C3.87549 7.54167 4.15049 8.2 4.70049 8.75C5.25049 9.3 5.90882 9.575 6.67549 9.575Z" fill="black"/>
</g>
<defs>
<clipPath id="clip0_3207_15290">
<rect width="24" height="24" fill="white"/>
</clipPath>
</defs>
</svg>
