<svg width="24" height="24" viewBox="0 0 24 24" fill="none" xmlns="http://www.w3.org/2000/svg">
<g clip-path="url(#clip0_3388_8436)">
<rect width="24" height="24" fill="white"/>
<path d="M11.4255 20V16.375C11.4255 15.525 11.5755 14.7667 11.8755 14.1C12.1755 13.4167 12.6338 12.8583 13.2505 12.425C13.8672 11.9917 14.6422 11.6917 15.5755 11.525L17.1505 13.45L18.7255 11.525C19.6588 11.6917 20.4422 12 21.0755 12.45C21.7255 12.8833 22.2088 13.4417 22.5255 14.125C22.8422 14.7917 23.0005 15.5417 23.0005 16.375V20H11.4255ZM21.6755 16.375C21.6755 15.4583 21.4422 14.7167 20.9755 14.15C20.5088 13.5667 19.9172 13.1833 19.2005 13L17.1505 15.4L15.1005 13C14.3838 13.1833 13.7922 13.5667 13.3255 14.15C12.8755 14.7167 12.6505 15.4583 12.6505 16.375V18.7H21.6755V16.375ZM1.00049 16.375C1.00049 15.5417 1.15882 14.7917 1.47549 14.125C1.79216 13.4417 2.26716 12.8833 2.90049 12.45C3.55049 12 4.34216 11.6917 5.27549 11.525L6.85049 13.45L8.42549 11.525C9.35882 11.6917 10.1338 11.9917 10.7505 12.425C11.3672 12.8583 11.8255 13.4167 12.1255 14.1C12.4255 14.7667 12.5755 15.525 12.5755 16.375V20H1.00049V16.375ZM11.3505 18.7V16.375C11.3505 15.4583 11.1172 14.7167 10.6505 14.15C10.2005 13.5667 9.61716 13.1833 8.90049 13L6.85049 15.4L4.80049 13C4.08382 13.1833 3.49216 13.5667 3.02549 14.15C2.55882 14.7167 2.32549 15.4583 2.32549 16.375V18.7H11.3505ZM6.87549 10.4C6.24216 10.4 5.65882 10.25 5.12549 9.95C4.59216 9.63333 4.16716 9.21667 3.85049 8.7C3.55049 8.16667 3.40049 7.58333 3.40049 6.95C3.40049 6.31667 3.55049 5.73333 3.85049 5.2C4.16716 4.66667 4.59216 4.25 5.12549 3.95C5.65882 3.63333 6.24216 3.475 6.87549 3.475C7.50882 3.475 8.09216 3.63333 8.62549 3.95C9.15882 4.25 9.58382 4.66667 9.90049 5.2C10.2172 5.73333 10.3755 6.31667 10.3755 6.95C10.3755 7.58333 10.2172 8.16667 9.90049 8.7C9.58382 9.21667 9.15882 9.63333 8.62549 9.95C8.09216 10.25 7.50882 10.4 6.87549 10.4ZM6.87549 9.1C7.47549 9.1 7.98382 8.89167 8.40049 8.475C8.81716 8.05833 9.02549 7.55 9.02549 6.95C9.02549 6.33333 8.81716 5.81667 8.40049 5.4C7.98382 4.98333 7.47549 4.775 6.87549 4.775C6.27549 4.775 5.76716 4.98333 5.35049 5.4C4.93382 5.81667 4.72549 6.33333 4.72549 6.95C4.72549 7.55 4.93382 8.05833 5.35049 8.475C5.76716 8.89167 6.27549 9.1 6.87549 9.1ZM17.1255 10.4C16.4922 10.4 15.9088 10.25 15.3755 9.95C14.8422 9.63333 14.4172 9.21667 14.1005 8.7C13.7838 8.16667 13.6255 7.58333 13.6255 6.95C13.6255 6.31667 13.7838 5.73333 14.1005 5.2C14.4172 4.66667 14.8422 4.25 15.3755 3.95C15.9088 3.63333 16.4922 3.475 17.1255 3.475C17.7588 3.475 18.3422 3.63333 18.8755 3.95C19.4088 4.25 19.8255 4.66667 20.1255 5.2C20.4422 5.73333 20.6005 6.31667 20.6005 6.95C20.6005 7.58333 20.4422 8.16667 20.1255 8.7C19.8255 9.21667 19.4088 9.63333 18.8755 9.95C18.3422 10.25 17.7588 10.4 17.1255 10.4ZM17.1255 9.1C17.7255 9.1 18.2338 8.89167 18.6505 8.475C19.0672 8.05833 19.2755 7.55 19.2755 6.95C19.2755 6.33333 19.0672 5.81667 18.6505 5.4C18.2338 4.98333 17.7255 4.775 17.1255 4.775C16.5422 4.775 16.0338 4.98333 15.6005 5.4C15.1838 5.81667 14.9755 6.33333 14.9755 6.95C14.9755 7.55 15.1838 8.05833 15.6005 8.475C16.0172 8.89167 16.5255 9.1 17.1255 9.1Z" fill="black"/>
</g>
<defs>
<clipPath id="clip0_3388_8436">
<rect width="24" height="24" fill="white"/>
</clipPath>
</defs>
</svg>
