<svg width="24" height="24" viewBox="0 0 24 24" fill="none" xmlns="http://www.w3.org/2000/svg">
<g clip-path="url(#clip0_3207_16261)">
<rect width="24" height="24" fill="white"/>
<path d="M11.0755 20V16.575C11.0755 15.7083 11.2505 14.925 11.6005 14.225C11.9505 13.525 12.4755 12.95 13.1755 12.5C13.8755 12.0333 14.7338 11.7333 15.7505 11.6L17.0505 13.35L18.3505 11.575C19.3672 11.725 20.2255 12.0333 20.9255 12.5C21.6255 12.95 22.1422 13.525 22.4755 14.225C22.8255 14.925 23.0005 15.7083 23.0005 16.575V20H11.0755ZM20.8755 16.575C20.8755 15.8917 20.7172 15.325 20.4005 14.875C20.1005 14.4083 19.7005 14.0917 19.2005 13.925L17.0505 16.425L14.9505 13.925C14.4172 14.1417 13.9672 14.475 13.6005 14.925C13.2338 15.375 13.0505 15.925 13.0505 16.575V17.875H20.8755V16.575ZM1.00049 16.575C1.00049 15.7083 1.16716 14.925 1.50049 14.225C1.85049 13.525 2.37549 12.95 3.07549 12.5C3.77549 12.0333 4.63382 11.725 5.65049 11.575L6.95049 13.35L8.25049 11.6C9.26716 11.7333 10.1255 12.0333 10.8255 12.5C11.5255 12.95 12.0505 13.525 12.4005 14.225C12.7505 14.925 12.9255 15.7083 12.9255 16.575V20H1.00049V16.575ZM10.9505 17.875V16.575C10.9505 15.925 10.7672 15.375 10.4005 14.925C10.0338 14.475 9.58382 14.1417 9.05049 13.925L6.95049 16.425L4.80049 13.925C4.30049 14.0917 3.89216 14.4083 3.57549 14.875C3.27549 15.325 3.12549 15.8917 3.12549 16.575V17.875H10.9505ZM17.0005 10.6C16.3505 10.6 15.7505 10.4417 15.2005 10.125C14.6505 9.80833 14.2172 9.38333 13.9005 8.85C13.5838 8.3 13.4255 7.7 13.4255 7.05C13.4255 6.4 13.5838 5.8 13.9005 5.25C14.2172 4.7 14.6505 4.26667 15.2005 3.95C15.7505 3.63333 16.3505 3.475 17.0005 3.475C17.6505 3.475 18.2505 3.63333 18.8005 3.95C19.3505 4.26667 19.7838 4.7 20.1005 5.25C20.4338 5.8 20.6005 6.4 20.6005 7.05C20.6005 7.7 20.4338 8.3 20.1005 8.85C19.7838 9.38333 19.3505 9.80833 18.8005 10.125C18.2505 10.4417 17.6505 10.6 17.0005 10.6ZM17.0005 8.55C17.4338 8.55 17.7922 8.40833 18.0755 8.125C18.3755 7.825 18.5255 7.46667 18.5255 7.05C18.5255 6.61667 18.3755 6.25833 18.0755 5.975C17.7922 5.675 17.4338 5.525 17.0005 5.525C16.6005 5.525 16.2505 5.675 15.9505 5.975C15.6505 6.25833 15.5005 6.61667 15.5005 7.05C15.5005 7.46667 15.6505 7.825 15.9505 8.125C16.2505 8.40833 16.6005 8.55 17.0005 8.55ZM7.00049 10.6C6.35049 10.6 5.75049 10.4417 5.20049 10.125C4.65049 9.80833 4.20882 9.38333 3.87549 8.85C3.55882 8.3 3.40049 7.7 3.40049 7.05C3.40049 6.4 3.55882 5.8 3.87549 5.25C4.20882 4.7 4.65049 4.26667 5.20049 3.95C5.75049 3.63333 6.35049 3.475 7.00049 3.475C7.65049 3.475 8.25049 3.63333 8.80049 3.95C9.35049 4.26667 9.78382 4.7 10.1005 5.25C10.4172 5.8 10.5755 6.4 10.5755 7.05C10.5755 7.7 10.4172 8.3 10.1005 8.85C9.78382 9.38333 9.35049 9.80833 8.80049 10.125C8.25049 10.4417 7.65049 10.6 7.00049 10.6ZM7.00049 8.55C7.41716 8.55 7.76716 8.40833 8.05049 8.125C8.35049 7.825 8.50049 7.46667 8.50049 7.05C8.50049 6.61667 8.35049 6.25833 8.05049 5.975C7.76716 5.675 7.41716 5.525 7.00049 5.525C6.58382 5.525 6.22549 5.675 5.92549 5.975C5.62549 6.25833 5.47549 6.61667 5.47549 7.05C5.47549 7.46667 5.62549 7.825 5.92549 8.125C6.22549 8.40833 6.58382 8.55 7.00049 8.55Z" fill="black"/>
</g>
<defs>
<clipPath id="clip0_3207_16261">
<rect width="24" height="24" fill="white"/>
</clipPath>
</defs>
</svg>
