<svg width="24" height="24" viewBox="0 0 24 24" fill="none" xmlns="http://www.w3.org/2000/svg">
<g clip-path="url(#clip0_3207_16255)">
<rect width="24" height="24" fill="white"/>
<path d="M11.6255 20V16.225C11.6255 15.375 11.7588 14.6333 12.0255 14C12.2922 13.35 12.7005 12.8167 13.2505 12.4C13.8172 11.9667 14.5422 11.6667 15.4255 11.5L17.2255 13.625L19.0755 11.5C19.9255 11.6667 20.6422 11.9667 21.2255 12.4C21.8088 12.8333 22.2505 13.375 22.5505 14.025C22.8505 14.675 23.0005 15.4083 23.0005 16.225V20H11.6255ZM22.0755 16.225C22.0755 15.1917 21.8172 14.3667 21.3005 13.75C20.8005 13.1333 20.1588 12.7167 19.3755 12.5L17.2255 14.975L15.1005 12.475C14.2838 12.675 13.6338 13.0917 13.1505 13.725C12.6838 14.3417 12.4505 15.175 12.4505 16.225V19.125H22.0755V16.225ZM1.00049 16.225C1.00049 15.4083 1.15049 14.675 1.45049 14.025C1.75049 13.375 2.19216 12.8333 2.77549 12.4C3.35882 11.9667 4.07549 11.6667 4.92549 11.5L6.77549 13.625L8.57549 11.5C9.45882 11.6667 10.1755 11.9667 10.7255 12.4C11.2922 12.8167 11.7088 13.35 11.9755 14C12.2422 14.6333 12.3755 15.375 12.3755 16.225V20H1.00049V16.225ZM11.5505 19.125V16.225C11.5505 15.175 11.3088 14.3417 10.8255 13.725C10.3588 13.1083 9.71716 12.7 8.90049 12.5L6.77549 14.975L4.62549 12.5C3.84216 12.7167 3.19216 13.1333 2.67549 13.75C2.17549 14.3667 1.92549 15.1917 1.92549 16.225V19.125H11.5505ZM17.2255 10.225C16.6088 10.225 16.0338 10.075 15.5005 9.775C14.9838 9.475 14.5755 9.06667 14.2755 8.55C13.9755 8.03333 13.8255 7.46667 13.8255 6.85C13.8255 6.23333 13.9755 5.675 14.2755 5.175C14.5755 4.65833 14.9838 4.25 15.5005 3.95C16.0338 3.63333 16.6088 3.475 17.2255 3.475C17.8422 3.475 18.4088 3.625 18.9255 3.925C19.4588 4.225 19.8755 4.63333 20.1755 5.15C20.4755 5.66667 20.6255 6.23333 20.6255 6.85C20.6255 7.46667 20.4755 8.03333 20.1755 8.55C19.8755 9.06667 19.4588 9.475 18.9255 9.775C18.4088 10.075 17.8422 10.225 17.2255 10.225ZM17.2255 9.325C17.9255 9.325 18.5088 9.08333 18.9755 8.6C19.4588 8.11667 19.7005 7.53333 19.7005 6.85C19.7005 6.16667 19.4588 5.58333 18.9755 5.1C18.4922 4.61667 17.9088 4.375 17.2255 4.375C16.5422 4.375 15.9505 4.61667 15.4505 5.1C14.9672 5.58333 14.7255 6.16667 14.7255 6.85C14.7255 7.53333 14.9672 8.11667 15.4505 8.6C15.9505 9.08333 16.5422 9.325 17.2255 9.325ZM6.77549 10.225C6.15882 10.225 5.58382 10.075 5.05049 9.775C4.53382 9.475 4.12549 9.06667 3.82549 8.55C3.52549 8.03333 3.37549 7.46667 3.37549 6.85C3.37549 6.23333 3.52549 5.66667 3.82549 5.15C4.12549 4.63333 4.53382 4.225 5.05049 3.925C5.58382 3.625 6.15882 3.475 6.77549 3.475C7.39216 3.475 7.95882 3.63333 8.47549 3.95C9.00882 4.25 9.42549 4.65833 9.72549 5.175C10.0255 5.675 10.1755 6.23333 10.1755 6.85C10.1755 7.46667 10.0255 8.03333 9.72549 8.55C9.42549 9.06667 9.00882 9.475 8.47549 9.775C7.95882 10.075 7.39216 10.225 6.77549 10.225ZM6.77549 9.325C7.45882 9.325 8.04216 9.08333 8.52549 8.6C9.02549 8.11667 9.27549 7.53333 9.27549 6.85C9.27549 6.16667 9.02549 5.58333 8.52549 5.1C8.04216 4.61667 7.45882 4.375 6.77549 4.375C6.09216 4.375 5.50882 4.61667 5.02549 5.1C4.54216 5.58333 4.30049 6.16667 4.30049 6.85C4.30049 7.53333 4.54216 8.11667 5.02549 8.6C5.50882 9.08333 6.09216 9.325 6.77549 9.325Z" fill="black"/>
</g>
<defs>
<clipPath id="clip0_3207_16255">
<rect width="24" height="24" fill="white"/>
</clipPath>
</defs>
</svg>
