<svg width="24" height="24" viewBox="0 0 24 24" fill="none" xmlns="http://www.w3.org/2000/svg">
<g clip-path="url(#clip0_3388_8452)">
<rect width="24" height="24" fill="white"/>
<path d="M1 16.075C1 14.8917 1.25 13.9167 1.75 13.15C2.25 12.3833 2.99167 11.8417 3.975 11.525L6.075 14.75L8.125 11.525C9.075 11.8417 9.79167 12.3833 10.275 13.15C10.7583 13.9167 11 14.8917 11 16.075V20H1V16.075ZM13 16.075C13 14.8917 13.25 13.9167 13.75 13.15C14.25 12.3833 14.9917 11.8417 15.975 11.525L18.075 14.75L20.125 11.525C21.075 11.8417 21.7917 12.3833 22.275 13.15C22.7583 13.9167 23 14.8917 23 16.075V20H13V16.075ZM6.075 10.025C5.475 10.025 4.91667 9.88333 4.4 9.6C3.9 9.3 3.5 8.9 3.2 8.4C2.91667 7.9 2.775 7.35 2.775 6.75C2.775 6.15 2.91667 5.6 3.2 5.1C3.5 4.58333 3.9 4.18333 4.4 3.9C4.91667 3.6 5.475 3.45 6.075 3.45C6.675 3.45 7.225 3.6 7.725 3.9C8.24167 4.2 8.65 4.6 8.95 5.1C9.25 5.6 9.4 6.15 9.4 6.75C9.4 7.35 9.25 7.9 8.95 8.4C8.65 8.9 8.24167 9.3 7.725 9.6C7.225 9.88333 6.675 10.025 6.075 10.025ZM18.025 10.05C17.425 10.05 16.8667 9.90833 16.35 9.625C15.85 9.325 15.45 8.925 15.15 8.425C14.8667 7.90833 14.725 7.35 14.725 6.75C14.725 6.15 14.8667 5.6 15.15 5.1C15.45 4.6 15.85 4.20833 16.35 3.925C16.8667 3.625 17.425 3.475 18.025 3.475C18.625 3.475 19.175 3.625 19.675 3.925C20.1917 4.20833 20.6 4.6 20.9 5.1C21.2 5.6 21.35 6.15 21.35 6.75C21.35 7.35 21.2 7.9 20.9 8.4C20.6 8.9 20.1917 9.3 19.675 9.6C19.175 9.9 18.625 10.05 18.025 10.05Z" fill="black"/>
</g>
<defs>
<clipPath id="clip0_3388_8452">
<rect width="24" height="24" fill="white"/>
</clipPath>
</defs>
</svg>
