<svg width="24" height="24" viewBox="0 0 24 24" fill="none" xmlns="http://www.w3.org/2000/svg">
<g clip-path="url(#clip0_3388_8446)">
<rect width="24" height="24" fill="white"/>
<path d="M1 16.075C1 14.8917 1.26667 13.9167 1.8 13.15C2.35 12.3833 3.15 11.8417 4.2 11.525L6.45 14.75L8.65 11.525C9.66667 11.8417 10.4333 12.3833 10.95 13.15C11.4833 13.9167 11.75 14.8917 11.75 16.075V20H1V16.075ZM12.25 16.075C12.25 14.8917 12.5167 13.9167 13.05 13.15C13.6 12.3833 14.4 11.8417 15.45 11.525L17.7 14.75L19.9 11.525C20.9167 11.8417 21.6833 12.3833 22.2 13.15C22.7333 13.9167 23 14.8917 23 16.075V20H12.25V16.075ZM6.45 10.025C5.85 10.025 5.29167 9.88333 4.775 9.6C4.275 9.3 3.875 8.9 3.575 8.4C3.29167 7.9 3.15 7.35 3.15 6.75C3.15 6.15 3.29167 5.6 3.575 5.1C3.875 4.58333 4.275 4.18333 4.775 3.9C5.29167 3.6 5.85 3.45 6.45 3.45C7.05 3.45 7.6 3.6 8.1 3.9C8.61667 4.2 9.025 4.6 9.325 5.1C9.625 5.6 9.775 6.15 9.775 6.75C9.775 7.35 9.625 7.9 9.325 8.4C9.025 8.9 8.61667 9.3 8.1 9.6C7.6 9.88333 7.05 10.025 6.45 10.025ZM17.7 10.05C17.1 10.05 16.5417 9.90833 16.025 9.625C15.525 9.325 15.125 8.925 14.825 8.425C14.5417 7.90833 14.4 7.35 14.4 6.75C14.4 6.15 14.5417 5.6 14.825 5.1C15.125 4.6 15.525 4.20833 16.025 3.925C16.5417 3.625 17.1 3.475 17.7 3.475C18.3 3.475 18.85 3.625 19.35 3.925C19.8667 4.20833 20.275 4.6 20.575 5.1C20.875 5.6 21.025 6.15 21.025 6.75C21.025 7.35 20.875 7.9 20.575 8.4C20.275 8.9 19.8667 9.3 19.35 9.6C18.85 9.9 18.3 10.05 17.7 10.05Z" fill="black"/>
</g>
<defs>
<clipPath id="clip0_3388_8446">
<rect width="24" height="24" fill="white"/>
</clipPath>
</defs>
</svg>
