<svg width="24" height="24" viewBox="0 0 24 24" fill="none" xmlns="http://www.w3.org/2000/svg">
<g clip-path="url(#clip0_3388_8442)">
<rect width="24" height="24" fill="white"/>
<path d="M10.9755 20V16.75C10.9755 15.7667 11.2005 14.9 11.6505 14.15C12.1172 13.3833 12.8005 12.7833 13.7005 12.35C14.6005 11.9167 15.6922 11.7 16.9755 11.7H17.0005H17.0255C18.2922 11.7 19.3755 11.9167 20.2755 12.35C21.1755 12.7833 21.8505 13.3833 22.3005 14.15C22.7672 14.9167 23.0005 15.7833 23.0005 16.75V20H10.9755ZM20.2755 16.625C20.2755 16.1083 20.1505 15.6583 19.9005 15.275C19.6672 14.8917 19.3005 14.6167 18.8005 14.45L17.0005 16.575L15.2755 14.45C14.7422 14.65 14.3088 14.9417 13.9755 15.325C13.6588 15.7083 13.5005 16.1417 13.5005 16.625V17.35H20.2755V16.625ZM1.00049 16.75C1.00049 15.7833 1.22549 14.9167 1.67549 14.15C2.14216 13.3833 2.82549 12.7833 3.72549 12.35C4.62549 11.9167 5.70882 11.7 6.97549 11.7H7.00049H7.02549C8.30882 11.7 9.40049 11.9167 10.3005 12.35C11.2005 12.7833 11.8755 13.3833 12.3255 14.15C12.7922 14.9 13.0255 15.7667 13.0255 16.75V20H1.00049V16.75ZM10.5005 17.35V16.625C10.5005 16.1417 10.3338 15.7083 10.0005 15.325C9.68382 14.9417 9.25882 14.65 8.72549 14.45L7.00049 16.575L5.20049 14.45C4.70049 14.6167 4.32549 14.8917 4.07549 15.275C3.84216 15.6583 3.72549 16.1083 3.72549 16.625V17.35H10.5005ZM7.05049 10.7C6.36716 10.7 5.75049 10.5417 5.20049 10.225C4.65049 9.90833 4.21716 9.475 3.90049 8.925C3.58382 8.375 3.42549 7.76667 3.42549 7.1C3.42549 6.43333 3.58382 5.825 3.90049 5.275C4.21716 4.725 4.65049 4.29167 5.20049 3.975C5.75049 3.65833 6.36716 3.5 7.05049 3.5C7.71716 3.5 8.32549 3.65833 8.87549 3.975C9.42549 4.29167 9.85882 4.725 10.1755 5.275C10.5088 5.825 10.6755 6.43333 10.6755 7.1C10.6755 7.76667 10.5088 8.375 10.1755 8.925C9.85882 9.475 9.42549 9.90833 8.87549 10.225C8.32549 10.5417 7.71716 10.7 7.05049 10.7ZM7.05049 8.325C7.40049 8.325 7.69216 8.20833 7.92549 7.975C8.15882 7.725 8.27549 7.43333 8.27549 7.1C8.27549 6.75 8.15882 6.45833 7.92549 6.225C7.69216 5.99167 7.40049 5.875 7.05049 5.875C6.70049 5.875 6.40049 5.99167 6.15049 6.225C5.91716 6.45833 5.80049 6.75 5.80049 7.1C5.80049 7.43333 5.91716 7.725 6.15049 7.975C6.40049 8.20833 6.70049 8.325 7.05049 8.325ZM16.9505 10.7C16.2838 10.7 15.6755 10.5417 15.1255 10.225C14.5755 9.90833 14.1338 9.475 13.8005 8.925C13.4838 8.375 13.3255 7.76667 13.3255 7.1C13.3255 6.43333 13.4838 5.825 13.8005 5.275C14.1338 4.725 14.5755 4.29167 15.1255 3.975C15.6755 3.65833 16.2838 3.5 16.9505 3.5C17.6338 3.5 18.2505 3.65833 18.8005 3.975C19.3505 4.29167 19.7838 4.725 20.1005 5.275C20.4172 5.825 20.5755 6.43333 20.5755 7.1C20.5755 7.76667 20.4172 8.375 20.1005 8.925C19.7838 9.475 19.3505 9.90833 18.8005 10.225C18.2505 10.5417 17.6338 10.7 16.9505 10.7ZM16.9505 8.325C17.3005 8.325 17.5922 8.20833 17.8255 7.975C18.0755 7.725 18.2005 7.43333 18.2005 7.1C18.2005 6.75 18.0755 6.45833 17.8255 6.225C17.5922 5.99167 17.3005 5.875 16.9505 5.875C16.6172 5.875 16.3255 5.99167 16.0755 6.225C15.8422 6.45833 15.7255 6.75 15.7255 7.1C15.7255 7.43333 15.8422 7.725 16.0755 7.975C16.3255 8.20833 16.6172 8.325 16.9505 8.325Z" fill="black"/>
</g>
<defs>
<clipPath id="clip0_3388_8442">
<rect width="24" height="24" fill="white"/>
</clipPath>
</defs>
</svg>
