<svg width="24" height="24" viewBox="0 0 24 24" fill="none" xmlns="http://www.w3.org/2000/svg">
<g clip-path="url(#clip0_3194_2104)">
<rect width="24" height="24" fill="white"/>
<path d="M12.1255 15.275C11.5588 15.275 11.1172 15.1167 10.8005 14.8C10.4838 14.4833 10.3255 14.05 10.3255 13.5V9.65H13.0255V12.65H15.6005V15.275H12.1255ZM12.0005 22.25C10.4005 22.25 8.94216 21.8667 7.62549 21.1C6.30882 20.3333 5.26716 19.2917 4.50049 17.975C3.73382 16.6583 3.35049 15.2 3.35049 13.6C3.35049 12.0167 3.73382 10.5667 4.50049 9.25C5.26716 7.93333 6.30882 6.89167 7.62549 6.125C8.94216 5.35833 10.4005 4.975 12.0005 4.975C13.5838 4.975 15.0422 5.35833 16.3755 6.125C17.7088 6.89167 18.7505 7.93333 19.5005 9.25C20.2672 10.5667 20.6505 12.0167 20.6505 13.6C20.6505 15.1833 20.2672 16.6417 19.5005 17.975C18.7338 19.2917 17.6922 20.3333 16.3755 21.1C15.0588 21.8667 13.6005 22.25 12.0005 22.25ZM12.0005 19.35C13.0505 19.35 14.0088 19.1 14.8755 18.6C15.7422 18.0833 16.4255 17.3917 16.9255 16.525C17.4422 15.6417 17.7005 14.6667 17.7005 13.6C17.7005 12.55 17.4422 11.5917 16.9255 10.725C16.4255 9.84167 15.7422 9.15 14.8755 8.65C14.0088 8.13333 13.0505 7.875 12.0005 7.875C10.9505 7.875 9.99216 8.13333 9.12549 8.65C8.25882 9.15 7.56716 9.84167 7.05049 10.725C6.55049 11.5917 6.30049 12.55 6.30049 13.6C6.30049 14.65 6.55049 15.6167 7.05049 16.5C7.56716 17.3833 8.25882 18.0833 9.12549 18.6C9.99216 19.1 10.9505 19.35 12.0005 19.35ZM5.62549 1.575L7.67549 3.625L2.37549 8.925L0.325488 6.875L5.62549 1.575ZM23.6755 6.875L21.6255 8.925L16.3255 3.625L18.3755 1.575L23.6755 6.875Z" fill="black"/>
</g>
<defs>
<clipPath id="clip0_3194_2104">
<rect width="24" height="24" fill="white"/>
</clipPath>
</defs>
</svg>
