<svg width="24" height="24" viewBox="0 0 24 24" fill="none" xmlns="http://www.w3.org/2000/svg">
<g clip-path="url(#clip0_3194_2102)">
<rect width="24" height="24" fill="white"/>
<path d="M11.9005 14.9C11.5005 14.9 11.1672 14.775 10.9005 14.525C10.6338 14.2583 10.5005 13.9167 10.5005 13.5V9.1H12.8505V12.625H15.6255V14.9H11.9005ZM12.0005 22.25C10.3838 22.25 8.90049 21.8583 7.55049 21.075C6.20049 20.2917 5.13382 19.225 4.35049 17.875C3.56716 16.525 3.17549 15.0417 3.17549 13.425C3.17549 11.8083 3.56716 10.325 4.35049 8.975C5.13382 7.625 6.20049 6.55833 7.55049 5.775C8.90049 4.99167 10.3838 4.6 12.0005 4.6C13.6172 4.6 15.1005 4.99167 16.4505 5.775C17.8005 6.55833 18.8672 7.625 19.6505 8.975C20.4338 10.325 20.8255 11.8083 20.8255 13.425C20.8255 15.0417 20.4338 16.525 19.6505 17.875C18.8672 19.225 17.8005 20.2917 16.4505 21.075C15.1005 21.8583 13.6172 22.25 12.0005 22.25ZM12.0005 19.925C13.1838 19.925 14.2672 19.6333 15.2505 19.05C16.2338 18.4667 17.0088 17.6833 17.5755 16.7C18.1588 15.7 18.4505 14.6083 18.4505 13.425C18.4505 12.2417 18.1588 11.1583 17.5755 10.175C17.0088 9.175 16.2338 8.39167 15.2505 7.825C14.2672 7.24167 13.1838 6.95 12.0005 6.95C10.8172 6.95 9.73382 7.24167 8.75049 7.825C7.76716 8.39167 6.98382 9.175 6.40049 10.175C5.83382 11.1583 5.55049 12.2417 5.55049 13.425C5.55049 14.6083 5.83382 15.7 6.40049 16.7C6.98382 17.6833 7.76716 18.4667 8.75049 19.05C9.73382 19.6333 10.8172 19.925 12.0005 19.925ZM5.62549 1.575L7.30049 3.25L2.00049 8.55L0.325488 6.875L5.62549 1.575ZM23.6755 6.875L22.0005 8.55L16.7005 3.25L18.3755 1.575L23.6755 6.875Z" fill="black"/>
</g>
<defs>
<clipPath id="clip0_3194_2102">
<rect width="24" height="24" fill="white"/>
</clipPath>
</defs>
</svg>
