<svg width="24" height="24" viewBox="0 0 24 24" fill="none" xmlns="http://www.w3.org/2000/svg">
<g clip-path="url(#clip0_3194_2222)">
<rect width="24" height="24" fill="white"/>
<path d="M22 20.5H2V4H22V20.5ZM8.95 5.575H6V2.95C6 2.55 6.14167 2.20833 6.425 1.925C6.70833 1.64167 7.05833 1.5 7.475 1.5C7.89167 1.5 8.24167 1.64167 8.525 1.925C8.80833 2.20833 8.95 2.55 8.95 2.95V5.575ZM18 5.475H15.05V2.95C15.05 2.55 15.1917 2.20833 15.475 1.925C15.7583 1.64167 16.1083 1.5 16.525 1.5C16.9417 1.5 17.2917 1.64167 17.575 1.925C17.8583 2.20833 18 2.55 18 2.95V5.475Z" fill="black"/>
</g>
<defs>
<clipPath id="clip0_3194_2222">
<rect width="24" height="24" fill="white"/>
</clipPath>
</defs>
</svg>
