<svg width="24" height="24" viewBox="0 0 24 24" fill="none" xmlns="http://www.w3.org/2000/svg">
<g clip-path="url(#clip0_3194_2354)">
<rect width="24" height="24" fill="white"/>
<path d="M11.5 8.075V11.325H17V8.075H11.5ZM7.425 10.95C7.775 11.2833 8.19167 11.45 8.675 11.45C9.15833 11.45 9.56667 11.2833 9.9 10.95C10.25 10.6 10.425 10.1833 10.425 9.7C10.425 9.21667 10.25 8.80833 9.9 8.475C9.56667 8.125 9.15833 7.95 8.675 7.95C8.19167 7.95 7.775 8.125 7.425 8.475C7.09167 8.80833 6.925 9.21667 6.925 9.7C6.925 10.1833 7.09167 10.6 7.425 10.95ZM11.5 13.1V16.35H17V13.1H11.5ZM7.425 15.975C7.775 16.3083 8.19167 16.475 8.675 16.475C9.15833 16.475 9.56667 16.3083 9.9 15.975C10.25 15.625 10.425 15.2083 10.425 14.725C10.425 14.2417 10.25 13.8333 9.9 13.5C9.56667 13.15 9.15833 12.975 8.675 12.975C8.19167 12.975 7.775 13.15 7.425 13.5C7.09167 13.8333 6.925 14.2417 6.925 14.725C6.925 15.2083 7.09167 15.625 7.425 15.975ZM22 20.5H2V4H22V20.5ZM9.5 5.85H6V3.225C6 2.74167 6.16667 2.33333 6.5 2C6.85 1.66667 7.26667 1.5 7.75 1.5C8.23333 1.5 8.64167 1.66667 8.975 2C9.325 2.33333 9.5 2.74167 9.5 3.225V5.85ZM18 5.725H14.5V3.225C14.5 2.74167 14.6667 2.33333 15 2C15.35 1.66667 15.7667 1.5 16.25 1.5C16.7333 1.5 17.1417 1.66667 17.475 2C17.825 2.33333 18 2.74167 18 3.225V5.725Z" fill="black"/>
</g>
<defs>
<clipPath id="clip0_3194_2354">
<rect width="24" height="24" fill="white"/>
</clipPath>
</defs>
</svg>
