<svg width="24" height="24" viewBox="0 0 24 24" fill="none" xmlns="http://www.w3.org/2000/svg">
<g clip-path="url(#clip0_3194_2332)">
<rect width="24" height="24" fill="white"/>
<path d="M2.00049 4H22.0005V20.5H2.00049V4ZM20.6005 19.15V5.35H3.40049V19.15H20.6005ZM6.00049 2.2C6.00049 2 6.06716 1.83333 6.20049 1.7C6.33382 1.56667 6.50049 1.5 6.70049 1.5C6.90049 1.5 7.06716 1.56667 7.20049 1.7C7.33382 1.83333 7.40049 2 7.40049 2.2V4.75H6.00049V2.2ZM16.6005 2.2C16.6005 2 16.6672 1.83333 16.8005 1.7C16.9338 1.56667 17.1005 1.5 17.3005 1.5C17.5005 1.5 17.6672 1.56667 17.8005 1.7C17.9338 1.83333 18.0005 2 18.0005 2.2V4.75H16.6005V2.2ZM10.7505 13.5H16.2505V14.9H10.7505V13.5ZM8.17549 11.1C7.90882 11.1 7.67549 11 7.47549 10.8C7.27549 10.6 7.17549 10.3667 7.17549 10.1C7.17549 9.81667 7.27549 9.58333 7.47549 9.4C7.67549 9.2 7.90882 9.1 8.17549 9.1C8.45882 9.1 8.69216 9.2 8.87549 9.4C9.07549 9.58333 9.17549 9.81667 9.17549 10.1C9.17549 10.3667 9.07549 10.6 8.87549 10.8C8.69216 11 8.45882 11.1 8.17549 11.1ZM8.17549 15.2C7.90882 15.2 7.67549 15.1083 7.47549 14.925C7.27549 14.725 7.17549 14.4833 7.17549 14.2C7.17549 13.9167 7.27549 13.6833 7.47549 13.5C7.67549 13.3 7.90882 13.2 8.17549 13.2C8.45882 13.2 8.69216 13.3 8.87549 13.5C9.07549 13.6833 9.17549 13.9167 9.17549 14.2C9.17549 14.4833 9.07549 14.725 8.87549 14.925C8.69216 15.1083 8.45882 15.2 8.17549 15.2ZM10.7505 9.4H16.2505V10.8H10.7505V9.4Z" fill="black"/>
</g>
<defs>
<clipPath id="clip0_3194_2332">
<rect width="24" height="24" fill="white"/>
</clipPath>
</defs>
</svg>
