<svg width="24" height="24" viewBox="0 0 24 24" fill="none" xmlns="http://www.w3.org/2000/svg">
<g clip-path="url(#clip0_3194_2220)">
<rect width="24" height="24" fill="white"/>
<path d="M22 20.5H2V4H22V20.5ZM8.4 5.275H6V2.7C6 2.35 6.11667 2.06667 6.35 1.85C6.58333 1.61667 6.86667 1.5 7.2 1.5C7.53333 1.5 7.81667 1.61667 8.05 1.85C8.28333 2.06667 8.4 2.35 8.4 2.7V5.275ZM18 5.25H15.6V2.7C15.6 2.35 15.7167 2.06667 15.95 1.85C16.1833 1.61667 16.4667 1.5 16.8 1.5C17.1333 1.5 17.4167 1.61667 17.65 1.85C17.8833 2.06667 18 2.35 18 2.7V5.25Z" fill="black"/>
</g>
<defs>
<clipPath id="clip0_3194_2220">
<rect width="24" height="24" fill="white"/>
</clipPath>
</defs>
</svg>
