<svg width="24" height="24" viewBox="0 0 24 24" fill="none" xmlns="http://www.w3.org/2000/svg">
<g clip-path="url(#clip0_3194_2340)">
<rect width="24" height="24" fill="white"/>
<path d="M2.00049 4H22.0005V20.5H2.00049V4ZM18.4005 16.95V7.55H5.60049V16.95H18.4005ZM6.00049 3.225C6.00049 2.74167 6.16716 2.33333 6.50049 2C6.85049 1.66667 7.26716 1.5 7.75049 1.5C8.23382 1.5 8.64216 1.66667 8.97549 2C9.32549 2.33333 9.50049 2.74167 9.50049 3.225V5.85H6.00049V3.225ZM14.5005 3.225C14.5005 2.74167 14.6672 2.33333 15.0005 2C15.3505 1.66667 15.7672 1.5 16.2505 1.5C16.7338 1.5 17.1422 1.66667 17.4755 2C17.8255 2.33333 18.0005 2.74167 18.0005 3.225V5.725H14.5005V3.225ZM11.2755 12.7H16.2505V15.775H11.2755V12.7ZM8.97549 11.95C8.49216 11.95 8.07549 11.7833 7.72549 11.45C7.39216 11.1 7.22549 10.6833 7.22549 10.2C7.22549 9.71667 7.39216 9.30833 7.72549 8.975C8.07549 8.625 8.49216 8.45 8.97549 8.45C9.45882 8.45 9.86716 8.625 10.2005 8.975C10.5505 9.30833 10.7255 9.71667 10.7255 10.2C10.7255 10.6833 10.5505 11.1 10.2005 11.45C9.86716 11.7833 9.45882 11.95 8.97549 11.95ZM8.97549 15.975C8.49216 15.975 8.07549 15.8083 7.72549 15.475C7.39216 15.125 7.22549 14.7083 7.22549 14.225C7.22549 13.7417 7.39216 13.3333 7.72549 13C8.07549 12.65 8.49216 12.475 8.97549 12.475C9.45882 12.475 9.86716 12.65 10.2005 13C10.5505 13.3333 10.7255 13.7417 10.7255 14.225C10.7255 14.7083 10.5505 15.125 10.2005 15.475C9.86716 15.8083 9.45882 15.975 8.97549 15.975ZM11.2755 8.65H16.2505V11.725H11.2755V8.65Z" fill="black"/>
</g>
<defs>
<clipPath id="clip0_3194_2340">
<rect width="24" height="24" fill="white"/>
</clipPath>
</defs>
</svg>
