<svg width="24" height="24" viewBox="0 0 24 24" fill="none" xmlns="http://www.w3.org/2000/svg">
<g clip-path="url(#clip0_3194_2334)">
<rect width="24" height="24" fill="white"/>
<path d="M2.00049 4H22.0005V20.5H2.00049V4ZM20.1505 18.7V5.8H3.85049V18.7H20.1505ZM6.00049 2.425C6.00049 2.15833 6.08382 1.94167 6.25049 1.775C6.43382 1.59167 6.65882 1.5 6.92549 1.5C7.19216 1.5 7.40882 1.59167 7.57549 1.775C7.75882 1.94167 7.85049 2.15833 7.85049 2.425V5H6.00049V2.425ZM16.1505 2.425C16.1505 2.15833 16.2338 1.94167 16.4005 1.775C16.5838 1.59167 16.8088 1.5 17.0755 1.5C17.3422 1.5 17.5588 1.59167 17.7255 1.775C17.9088 1.94167 18.0005 2.15833 18.0005 2.425V5H16.1505V2.425ZM10.5005 13.225H16.7505V15.075H10.5005V13.225ZM7.90049 11.4C7.55049 11.4 7.25049 11.2833 7.00049 11.05C6.76716 10.8 6.65049 10.5 6.65049 10.15C6.65049 9.8 6.76716 9.50833 7.00049 9.275C7.25049 9.025 7.55049 8.9 7.90049 8.9C8.25049 8.9 8.54216 9.025 8.77549 9.275C9.02549 9.50833 9.15049 9.8 9.15049 10.15C9.15049 10.5 9.02549 10.8 8.77549 11.05C8.54216 11.2833 8.25049 11.4 7.90049 11.4ZM7.90049 15.4C7.55049 15.4 7.25049 15.2833 7.00049 15.05C6.76716 14.8 6.65049 14.5 6.65049 14.15C6.65049 13.8 6.76716 13.5083 7.00049 13.275C7.25049 13.025 7.55049 12.9 7.90049 12.9C8.25049 12.9 8.54216 13.025 8.77549 13.275C9.02549 13.5083 9.15049 13.8 9.15049 14.15C9.15049 14.5 9.02549 14.8 8.77549 15.05C8.54216 15.2833 8.25049 15.4 7.90049 15.4ZM10.5005 9.225H16.7505V11.075H10.5005V9.225Z" fill="black"/>
</g>
<defs>
<clipPath id="clip0_3194_2334">
<rect width="24" height="24" fill="white"/>
</clipPath>
</defs>
</svg>
