<svg width="24" height="24" viewBox="0 0 24 24" fill="none" xmlns="http://www.w3.org/2000/svg">
<g clip-path="url(#clip0_3355_3246)">
<rect width="24" height="24" fill="white"/>
<path d="M2.00049 4H22.0005V20.5H2.00049V4ZM19.5255 18.075V6.425H4.47549V18.075H19.5255ZM6.00049 2.7C6.00049 2.36667 6.11716 2.08333 6.35049 1.85C6.58382 1.61667 6.87549 1.5 7.22549 1.5C7.55882 1.5 7.84216 1.61667 8.07549 1.85C8.30882 2.08333 8.42549 2.36667 8.42549 2.7V5.275H6.00049V2.7ZM15.5755 2.7C15.5755 2.36667 15.6922 2.08333 15.9255 1.85C16.1588 1.61667 16.4422 1.5 16.7755 1.5C17.1255 1.5 17.4172 1.61667 17.6505 1.85C17.8838 2.08333 18.0005 2.36667 18.0005 2.7V5.25H15.5755V2.7ZM15.5005 15.75C15.0172 15.75 14.6088 15.5917 14.2755 15.275C13.9588 14.9417 13.8005 14.5333 13.8005 14.05C13.8005 13.5667 13.9588 13.1667 14.2755 12.85C14.6088 12.5167 15.0172 12.35 15.5005 12.35C15.9838 12.35 16.3838 12.5167 16.7005 12.85C17.0338 13.1667 17.2005 13.5667 17.2005 14.05C17.2005 14.5333 17.0338 14.9417 16.7005 15.275C16.3838 15.5917 15.9838 15.75 15.5005 15.75ZM15.5005 14.05C15.3338 14.05 15.2088 14.05 15.1255 14.05C15.0422 14.05 14.9172 14.05 14.7505 14.05C14.9338 14.05 15.0588 14.05 15.1255 14.05C15.2088 14.05 15.3338 14.05 15.5005 14.05C15.6672 14.05 15.7922 14.05 15.8755 14.05C15.9588 14.05 16.0838 14.05 16.2505 14.05C16.0672 14.05 15.9338 14.05 15.8505 14.05C15.7838 14.05 15.6672 14.05 15.5005 14.05Z" fill="black"/>
</g>
<defs>
<clipPath id="clip0_3355_3246">
<rect width="24" height="24" fill="white"/>
</clipPath>
</defs>
</svg>
