<svg width="24" height="24" viewBox="0 0 24 24" fill="none" xmlns="http://www.w3.org/2000/svg">
<g clip-path="url(#clip0_3194_2212)">
<rect width="24" height="24" fill="white"/>
<path d="M22 20.5H2V4H22V20.5ZM6.5 4.25H6V1.75C6 1.68333 6.025 1.625 6.075 1.575C6.125 1.525 6.18333 1.5 6.25 1.5C6.33333 1.5 6.39167 1.525 6.425 1.575C6.475 1.60833 6.5 1.66667 6.5 1.75V4.25ZM18 4.25H17.5V1.75C17.5 1.68333 17.525 1.625 17.575 1.575C17.625 1.525 17.6833 1.5 17.75 1.5C17.8333 1.5 17.8917 1.525 17.925 1.575C17.975 1.60833 18 1.66667 18 1.75V4.25Z" fill="black"/>
</g>
<defs>
<clipPath id="clip0_3194_2212">
<rect width="24" height="24" fill="white"/>
</clipPath>
</defs>
</svg>
