<svg width="24" height="24" viewBox="0 0 24 24" fill="none" xmlns="http://www.w3.org/2000/svg">
<g clip-path="url(#clip0_3355_3264)">
<rect width="24" height="24" fill="white"/>
<path d="M22 20.5H2V4H22V20.5ZM9.5 5.85H6V3.225C6 2.74167 6.16667 2.33333 6.5 2C6.85 1.66667 7.26667 1.5 7.75 1.5C8.23333 1.5 8.64167 1.66667 8.975 2C9.325 2.33333 9.5 2.74167 9.5 3.225V5.85ZM18 5.725H14.5V3.225C14.5 2.74167 14.6667 2.33333 15 2C15.35 1.66667 15.7667 1.5 16.25 1.5C16.7333 1.5 17.1417 1.66667 17.475 2C17.825 2.33333 18 2.74167 18 3.225V5.725ZM14.925 16.825C15.3917 17.275 15.9583 17.5 16.625 17.5C17.2917 17.5 17.85 17.275 18.3 16.825C18.7667 16.3583 19 15.8 19 15.15C19 14.5 18.7667 13.95 18.3 13.5C17.85 13.0333 17.2917 12.8 16.625 12.8C15.9583 12.8 15.3917 13.0333 14.925 13.5C14.475 13.95 14.25 14.5 14.25 15.15C14.25 15.8 14.475 16.3583 14.925 16.825Z" fill="black"/>
</g>
<defs>
<clipPath id="clip0_3355_3264">
<rect width="24" height="24" fill="white"/>
</clipPath>
</defs>
</svg>
