<svg width="24" height="24" viewBox="0 0 24 24" fill="none" xmlns="http://www.w3.org/2000/svg">
<g clip-path="url(#clip0_3194_2032)">
<rect width="24" height="24" fill="white"/>
<path d="M2.00049 4H22.0005V20.5H2.00049V4ZM21.5005 20.025V4.475H2.50049V20.025H21.5005ZM6.00049 1.75C6.00049 1.68333 6.02549 1.625 6.07549 1.575C6.12549 1.525 6.18382 1.5 6.25049 1.5C6.33382 1.5 6.39216 1.525 6.42549 1.575C6.47549 1.60833 6.50049 1.66667 6.50049 1.75V4.25H6.00049V1.75ZM17.5005 1.75C17.5005 1.68333 17.5255 1.625 17.5755 1.575C17.6255 1.525 17.6838 1.5 17.7505 1.5C17.8338 1.5 17.8922 1.525 17.9255 1.575C17.9755 1.60833 18.0005 1.66667 18.0005 1.75V4.25H17.5005V1.75Z" fill="black"/>
</g>
<defs>
<clipPath id="clip0_3194_2032">
<rect width="24" height="24" fill="white"/>
</clipPath>
</defs>
</svg>
