<svg width="24" height="24" viewBox="0 0 24 24" fill="none" xmlns="http://www.w3.org/2000/svg">
<g clip-path="url(#clip0_3194_2440)">
<rect width="24" height="24" fill="white"/>
<path d="M12.0005 11.275C11.6005 11.275 11.2588 11.1333 10.9755 10.85C10.6922 10.5667 10.5505 10.225 10.5505 9.825C10.5505 9.40833 10.6922 9.06667 10.9755 8.8C11.2588 8.51667 11.6005 8.375 12.0005 8.375C12.4172 8.375 12.7588 8.51667 13.0255 8.8C13.3088 9.06667 13.4505 9.40833 13.4505 9.825C13.4505 10.225 13.3088 10.5667 13.0255 10.85C12.7588 11.1333 12.4172 11.275 12.0005 11.275ZM12.0005 16.1C11.6005 16.1 11.2588 15.9583 10.9755 15.675C10.6922 15.3917 10.5505 15.0417 10.5505 14.625C10.5505 14.2083 10.6922 13.8667 10.9755 13.6C11.2588 13.3167 11.6005 13.175 12.0005 13.175C12.4172 13.175 12.7588 13.3167 13.0255 13.6C13.3088 13.8667 13.4505 14.2083 13.4505 14.625C13.4505 15.0417 13.3088 15.3917 13.0255 15.675C12.7588 15.9583 12.4172 16.1 12.0005 16.1ZM16.4755 11.275C16.0755 11.275 15.7338 11.1333 15.4505 10.85C15.1672 10.5667 15.0255 10.225 15.0255 9.825C15.0255 9.40833 15.1672 9.06667 15.4505 8.8C15.7338 8.51667 16.0755 8.375 16.4755 8.375C16.8922 8.375 17.2338 8.51667 17.5005 8.8C17.7838 9.06667 17.9255 9.40833 17.9255 9.825C17.9255 10.225 17.7838 10.5667 17.5005 10.85C17.2338 11.1333 16.8922 11.275 16.4755 11.275ZM16.4755 16.1C16.0755 16.1 15.7338 15.9583 15.4505 15.675C15.1672 15.3917 15.0255 15.0417 15.0255 14.625C15.0255 14.2083 15.1672 13.8667 15.4505 13.6C15.7338 13.3167 16.0755 13.175 16.4755 13.175C16.8922 13.175 17.2338 13.3167 17.5005 13.6C17.7838 13.8667 17.9255 14.2083 17.9255 14.625C17.9255 15.0417 17.7838 15.3917 17.5005 15.675C17.2338 15.9583 16.8922 16.1 16.4755 16.1ZM7.52549 11.275C7.12549 11.275 6.78382 11.1333 6.50049 10.85C6.21716 10.5667 6.07549 10.225 6.07549 9.825C6.07549 9.40833 6.21716 9.06667 6.50049 8.8C6.78382 8.51667 7.12549 8.375 7.52549 8.375C7.94216 8.375 8.28382 8.51667 8.55049 8.8C8.83382 9.06667 8.97549 9.40833 8.97549 9.825C8.97549 10.225 8.83382 10.5667 8.55049 10.85C8.28382 11.1333 7.94216 11.275 7.52549 11.275ZM7.52549 16.1C7.12549 16.1 6.78382 15.9583 6.50049 15.675C6.21716 15.3917 6.07549 15.0417 6.07549 14.625C6.07549 14.2083 6.21716 13.8667 6.50049 13.6C6.78382 13.3167 7.12549 13.175 7.52549 13.175C7.94216 13.175 8.28382 13.3167 8.55049 13.6C8.83382 13.8667 8.97549 14.2083 8.97549 14.625C8.97549 15.0417 8.83382 15.3917 8.55049 15.675C8.28382 15.9583 7.94216 16.1 7.52549 16.1ZM7.52549 9.825C7.34216 9.825 7.20049 9.825 7.10049 9.825C7.01716 9.825 6.88382 9.825 6.70049 9.825C6.88382 9.825 7.01716 9.825 7.10049 9.825C7.20049 9.825 7.34216 9.825 7.52549 9.825C7.70882 9.825 7.84216 9.825 7.92549 9.825C8.02549 9.825 8.16716 9.825 8.35049 9.825C8.16716 9.825 8.02549 9.825 7.92549 9.825C7.84216 9.825 7.70882 9.825 7.52549 9.825ZM12.0005 9.825C11.8505 9.825 11.7422 9.825 11.6755 9.825C11.6088 9.825 11.5005 9.825 11.3505 9.825C11.5005 9.825 11.6088 9.825 11.6755 9.825C11.7422 9.825 11.8505 9.825 12.0005 9.825C12.1505 9.825 12.2588 9.825 12.3255 9.825C12.3922 9.825 12.5005 9.825 12.6505 9.825C12.5005 9.825 12.3922 9.825 12.3255 9.825C12.2588 9.825 12.1505 9.825 12.0005 9.825ZM16.4755 9.825C16.3255 9.825 16.2088 9.825 16.1255 9.825C16.0588 9.825 15.9505 9.825 15.8005 9.825C15.9505 9.825 16.0588 9.825 16.1255 9.825C16.2088 9.825 16.3255 9.825 16.4755 9.825C16.6255 9.825 16.7338 9.825 16.8005 9.825C16.8838 9.825 17.0005 9.825 17.1505 9.825C17.0005 9.825 16.8838 9.825 16.8005 9.825C16.7338 9.825 16.6255 9.825 16.4755 9.825ZM16.4755 14.625C16.3422 14.625 16.2422 14.625 16.1755 14.625C16.1088 14.625 16.0088 14.625 15.8755 14.625C16.0088 14.625 16.1088 14.625 16.1755 14.625C16.2422 14.625 16.3422 14.625 16.4755 14.625C16.6088 14.625 16.7088 14.625 16.7755 14.625C16.8422 14.625 16.9422 14.625 17.0755 14.625C16.9422 14.625 16.8422 14.625 16.7755 14.625C16.7088 14.625 16.6088 14.625 16.4755 14.625ZM12.0005 14.625C11.9005 14.625 11.8172 14.625 11.7505 14.625C11.7005 14.625 11.6255 14.625 11.5255 14.625C11.6255 14.625 11.7005 14.625 11.7505 14.625C11.8172 14.625 11.9005 14.625 12.0005 14.625C12.1005 14.625 12.1755 14.625 12.2255 14.625C12.2922 14.625 12.3755 14.625 12.4755 14.625C12.3755 14.625 12.2922 14.625 12.2255 14.625C12.1755 14.625 12.1005 14.625 12.0005 14.625ZM7.52549 14.625C7.40882 14.625 7.31716 14.625 7.25049 14.625C7.20049 14.625 7.11715 14.625 7.00049 14.625C7.11715 14.625 7.20049 14.625 7.25049 14.625C7.31716 14.625 7.40882 14.625 7.52549 14.625C7.64216 14.625 7.72549 14.625 7.77549 14.625C7.84216 14.625 7.93382 14.625 8.05049 14.625C7.93382 14.625 7.84216 14.625 7.77549 14.625C7.72549 14.625 7.64216 14.625 7.52549 14.625ZM2.00049 4H22.0005V20.5H2.00049V4ZM19.6005 18.15V6.35H4.40049V18.15H19.6005ZM6.00049 2.7C6.00049 2.35 6.11716 2.06667 6.35049 1.85C6.58382 1.61667 6.86716 1.5 7.20049 1.5C7.53382 1.5 7.81716 1.61667 8.05049 1.85C8.28382 2.08333 8.40049 2.36667 8.40049 2.7V5.275H6.00049V2.7ZM15.6005 2.7C15.6005 2.36667 15.7088 2.08333 15.9255 1.85C16.1588 1.61667 16.4505 1.5 16.8005 1.5C17.1505 1.5 17.4338 1.61667 17.6505 1.85C17.8838 2.06667 18.0005 2.35 18.0005 2.7V5.225H15.6005V2.7Z" fill="black"/>
</g>
<defs>
<clipPath id="clip0_3194_2440">
<rect width="24" height="24" fill="white"/>
</clipPath>
</defs>
</svg>
