<svg width="24" height="24" viewBox="0 0 24 24" fill="none" xmlns="http://www.w3.org/2000/svg">
<g clip-path="url(#clip0_3194_2444)">
<rect width="24" height="24" fill="white"/>
<path d="M12.0005 5.575C11.6005 5.575 11.3005 5.575 11.1005 5.575C10.9172 5.575 10.6338 5.575 10.2505 5.575C10.6505 5.575 10.9422 5.575 11.1255 5.575C11.3255 5.575 11.6255 5.575 12.0255 5.575C12.4088 5.575 12.6922 5.575 12.8755 5.575C13.0755 5.575 13.3672 5.575 13.7505 5.575C13.3505 5.575 13.0505 5.575 12.8505 5.575C12.6672 5.575 12.3838 5.575 12.0005 5.575ZM9.30049 14.225C8.71716 14.225 8.23382 14.0333 7.85049 13.65C7.46716 13.2667 7.27549 12.7833 7.27549 12.2C7.27549 11.6333 7.46716 11.1667 7.85049 10.8C8.23382 10.4167 8.71716 10.225 9.30049 10.225C9.86716 10.225 10.3338 10.4167 10.7005 10.8C11.0838 11.1667 11.2755 11.6333 11.2755 12.2C11.2755 12.7833 11.0838 13.2667 10.7005 13.65C10.3338 14.0333 9.86716 14.225 9.30049 14.225ZM16.1255 6.575C15.7255 6.575 15.4255 6.575 15.2255 6.575C15.0422 6.575 14.7588 6.575 14.3755 6.575C14.7755 6.575 15.0672 6.575 15.2505 6.575C15.4505 6.575 15.7505 6.575 16.1505 6.575C16.5338 6.575 16.8172 6.575 17.0005 6.575C17.2005 6.575 17.4922 6.575 17.8755 6.575C17.4755 6.575 17.1755 6.575 16.9755 6.575C16.7922 6.575 16.5088 6.575 16.1255 6.575ZM14.7505 14.225C14.1672 14.225 13.6838 14.0333 13.3005 13.65C12.9172 13.2667 12.7255 12.7833 12.7255 12.2C12.7255 11.6333 12.9172 11.1667 13.3005 10.8C13.6838 10.4167 14.1672 10.225 14.7505 10.225C15.3172 10.225 15.7838 10.4167 16.1505 10.8C16.5338 11.1667 16.7255 11.6333 16.7255 12.2C16.7255 12.7833 16.5338 13.2667 16.1505 13.65C15.7838 14.0333 15.3172 14.225 14.7505 14.225ZM7.87549 6.825C7.47549 6.825 7.17549 6.825 6.97549 6.825C6.79216 6.825 6.50882 6.825 6.12549 6.825C6.52549 6.825 6.81716 6.825 7.00049 6.825C7.20049 6.825 7.50049 6.825 7.90049 6.825C8.28382 6.825 8.56716 6.825 8.75049 6.825C8.95049 6.825 9.24216 6.825 9.62549 6.825C9.22549 6.825 8.92549 6.825 8.72549 6.825C8.54216 6.825 8.25882 6.825 7.87549 6.825ZM7.87549 18.375C7.47549 18.375 7.17549 18.375 6.97549 18.375C6.79216 18.375 6.50882 18.375 6.12549 18.375C6.52549 18.375 6.81716 18.375 7.00049 18.375C7.20049 18.375 7.50049 18.375 7.90049 18.375C8.28382 18.375 8.56716 18.375 8.75049 18.375C8.95049 18.375 9.24216 18.375 9.62549 18.375C9.22549 18.375 8.92549 18.375 8.72549 18.375C8.54216 18.375 8.25882 18.375 7.87549 18.375ZM7.87549 6.575C7.67549 6.575 7.52549 6.575 7.42549 6.575C7.34216 6.575 7.20049 6.575 7.00049 6.575C7.20049 6.575 7.34216 6.575 7.42549 6.575C7.52549 6.575 7.67549 6.575 7.87549 6.575C8.07549 6.575 8.21716 6.575 8.30049 6.575C8.40049 6.575 8.55049 6.575 8.75049 6.575C8.55049 6.575 8.40049 6.575 8.30049 6.575C8.21716 6.575 8.07549 6.575 7.87549 6.575ZM12.0005 4.825C11.7672 4.825 11.5922 4.825 11.4755 4.825C11.3755 4.825 11.2172 4.825 11.0005 4.825C11.2338 4.825 11.4005 4.825 11.5005 4.825C11.6172 4.825 11.7922 4.825 12.0255 4.825C12.2422 4.825 12.4005 4.825 12.5005 4.825C12.6172 4.825 12.7838 4.825 13.0005 4.825C12.7672 4.825 12.5922 4.825 12.4755 4.825C12.3755 4.825 12.2172 4.825 12.0005 4.825ZM16.1255 6.325C15.9422 6.325 15.8005 6.325 15.7005 6.325C15.6172 6.325 15.4838 6.325 15.3005 6.325C15.4838 6.325 15.6172 6.325 15.7005 6.325C15.8005 6.325 15.9422 6.325 16.1255 6.325C16.3088 6.325 16.4422 6.325 16.5255 6.325C16.6255 6.325 16.7672 6.325 16.9505 6.325C16.7672 6.325 16.6255 6.325 16.5255 6.325C16.4422 6.325 16.3088 6.325 16.1255 6.325ZM14.7255 13.1C14.4588 13.1 14.2422 13.025 14.0755 12.875C13.9255 12.7083 13.8505 12.4917 13.8505 12.225C13.8505 11.9583 13.9255 11.75 14.0755 11.6C14.2422 11.4333 14.4588 11.35 14.7255 11.35C14.9922 11.35 15.2005 11.4333 15.3505 11.6C15.5172 11.75 15.6005 11.9583 15.6005 12.225C15.6005 12.4917 15.5172 12.7083 15.3505 12.875C15.2005 13.025 14.9922 13.1 14.7255 13.1ZM9.30049 13.175C9.01716 13.175 8.78382 13.0833 8.60049 12.9C8.41716 12.7167 8.32549 12.4917 8.32549 12.225C8.32549 11.9417 8.41716 11.7167 8.60049 11.55C8.78382 11.3667 9.01716 11.275 9.30049 11.275C9.56716 11.275 9.78382 11.3667 9.95049 11.55C10.1338 11.7167 10.2255 11.9417 10.2255 12.225C10.2255 12.4917 10.1338 12.7167 9.95049 12.9C9.78382 13.0833 9.56716 13.175 9.30049 13.175ZM7.87549 19.125C7.70882 19.125 7.58382 19.125 7.50049 19.125C7.41716 19.125 7.29216 19.125 7.12549 19.125C7.29216 19.125 7.41716 19.125 7.50049 19.125C7.58382 19.125 7.70882 19.125 7.87549 19.125C8.04216 19.125 8.16716 19.125 8.25049 19.125C8.33382 19.125 8.45882 19.125 8.62549 19.125C8.45882 19.125 8.33382 19.125 8.25049 19.125C8.16716 19.125 8.04216 19.125 7.87549 19.125ZM2.00049 4H22.0005V20.5H2.00049V4ZM18.5005 17.05V7.45H5.50049V17.05H18.5005ZM6.00049 3.225C6.00049 2.74167 6.16716 2.33333 6.50049 2C6.85049 1.66667 7.26716 1.5 7.75049 1.5C8.23382 1.5 8.64216 1.66667 8.97549 2C9.32549 2.33333 9.50049 2.74167 9.50049 3.225V5.85H6.00049V3.225ZM14.5005 3.225C14.5005 2.74167 14.6672 2.33333 15.0005 2C15.3505 1.66667 15.7672 1.5 16.2505 1.5C16.7338 1.5 17.1422 1.66667 17.4755 2C17.8255 2.33333 18.0005 2.74167 18.0005 3.225V5.725H14.5005V3.225Z" fill="black"/>
</g>
<defs>
<clipPath id="clip0_3194_2444">
<rect width="24" height="24" fill="white"/>
</clipPath>
</defs>
</svg>
