<svg width="24" height="24" viewBox="0 0 24 24" fill="none" xmlns="http://www.w3.org/2000/svg">
<g clip-path="url(#clip0_3194_2164)">
<rect width="24" height="24" fill="white"/>
<path d="M22 20.5H2V4H22V20.5ZM7.4 4.75H6V2.2C6 2 6.06667 1.83333 6.2 1.7C6.33333 1.56667 6.5 1.5 6.7 1.5C6.9 1.5 7.06667 1.56667 7.2 1.7C7.33333 1.83333 7.4 2 7.4 2.2V4.75ZM18 4.75H16.6V2.2C16.6 2 16.6667 1.83333 16.8 1.7C16.9333 1.56667 17.1 1.5 17.3 1.5C17.5 1.5 17.6667 1.56667 17.8 1.7C17.9333 1.83333 18 2 18 2.2V4.75ZM9.05 8.325L8.075 9.3L11.025 12.25L8.075 15.2L9.05 16.175L12 13.225L14.95 16.175L15.925 15.2L12.975 12.25L15.925 9.3L14.95 8.325L12 11.275L9.05 8.325Z" fill="black"/>
</g>
<defs>
<clipPath id="clip0_3194_2164">
<rect width="24" height="24" fill="white"/>
</clipPath>
</defs>
</svg>
