<svg width="24" height="24" viewBox="0 0 24 24" fill="none" xmlns="http://www.w3.org/2000/svg">
<g clip-path="url(#clip0_3194_2038)">
<rect width="24" height="24" fill="white"/>
<path d="M2.00049 4H22.0005V20.5H2.00049V4ZM21.5005 20.025V4.475H2.50049V20.025H21.5005ZM6.00049 1.75C6.00049 1.68333 6.02549 1.625 6.07549 1.575C6.12549 1.525 6.18382 1.5 6.25049 1.5C6.33382 1.5 6.39216 1.525 6.42549 1.575C6.47549 1.60833 6.50049 1.66667 6.50049 1.75V4.25H6.00049V1.75ZM17.5005 1.75C17.5005 1.68333 17.5255 1.625 17.5755 1.575C17.6255 1.525 17.6838 1.5 17.7505 1.5C17.8338 1.5 17.8922 1.525 17.9255 1.575C17.9755 1.60833 18.0005 1.66667 18.0005 1.75V4.25H17.5005V1.75ZM7.92549 15.6C7.92549 14.9667 8.08382 14.425 8.40049 13.975C8.73382 13.5083 9.20049 13.15 9.80049 12.9C10.4172 12.65 11.1338 12.525 11.9505 12.525C12.7838 12.525 13.5088 12.65 14.1255 12.9C14.7588 13.15 15.2422 13.5083 15.5755 13.975C15.9088 14.425 16.0755 14.9667 16.0755 15.6V16.9H7.92549V15.6ZM15.5755 16.425V15.6C15.5755 15.0667 15.4255 14.6083 15.1255 14.225C14.8422 13.825 14.4255 13.525 13.8755 13.325C13.3255 13.1083 12.6838 13 11.9505 13C11.2338 13 10.6088 13.1083 10.0755 13.325C9.54216 13.525 9.13382 13.825 8.85049 14.225C8.56716 14.6083 8.42549 15.0667 8.42549 15.6V16.425H15.5755ZM11.9255 11.325C11.3588 11.325 10.8672 11.125 10.4505 10.725C10.0505 10.3083 9.85049 9.81667 9.85049 9.25C9.85049 8.66667 10.0505 8.175 10.4505 7.775C10.8672 7.375 11.3588 7.175 11.9255 7.175C12.5088 7.175 13.0005 7.375 13.4005 7.775C13.8005 8.175 14.0005 8.66667 14.0005 9.25C14.0005 9.81667 13.8005 10.3083 13.4005 10.725C13.0005 11.125 12.5088 11.325 11.9255 11.325ZM11.9255 10.85C12.3588 10.85 12.7255 10.7 13.0255 10.4C13.3422 10.0833 13.5005 9.7 13.5005 9.25C13.5005 8.8 13.3422 8.425 13.0255 8.125C12.7255 7.80833 12.3588 7.65 11.9255 7.65C11.4922 7.65 11.1172 7.80833 10.8005 8.125C10.5005 8.425 10.3505 8.8 10.3505 9.25C10.3505 9.7 10.5005 10.0833 10.8005 10.4C11.1172 10.7 11.4922 10.85 11.9255 10.85Z" fill="black"/>
</g>
<defs>
<clipPath id="clip0_3194_2038">
<rect width="24" height="24" fill="white"/>
</clipPath>
</defs>
</svg>
