<svg width="24" height="24" viewBox="0 0 24 24" fill="none" xmlns="http://www.w3.org/2000/svg">
<g clip-path="url(#clip0_3194_2330)">
<rect width="24" height="24" fill="white"/>
<path d="M2.00049 4H22.0005V20.5H2.00049V4ZM21.0505 19.575V4.925H2.95049V19.575H21.0505ZM6.00049 1.975C6.00049 1.84167 6.04216 1.73333 6.12549 1.65C6.22549 1.55 6.34216 1.5 6.47549 1.5C6.62549 1.5 6.74216 1.54167 6.82549 1.625C6.90882 1.70833 6.95049 1.825 6.95049 1.975V4.5H6.00049V1.975ZM17.0505 1.975C17.0505 1.84167 17.0922 1.73333 17.1755 1.65C17.2755 1.55 17.3922 1.5 17.5255 1.5C17.6755 1.5 17.7922 1.54167 17.8755 1.625C17.9588 1.70833 18.0005 1.825 18.0005 1.975V4.5H17.0505V1.975ZM10.0005 13.8H16.7505V14.725H10.0005V13.8ZM7.47549 10.775C7.25882 10.775 7.07549 10.7083 6.92549 10.575C6.79216 10.425 6.72549 10.2417 6.72549 10.025C6.72549 9.825 6.79216 9.65 6.92549 9.5C7.07549 9.35 7.25882 9.275 7.47549 9.275C7.67549 9.275 7.85049 9.35 8.00049 9.5C8.15049 9.65 8.22549 9.825 8.22549 10.025C8.22549 10.2417 8.15049 10.425 8.00049 10.575C7.85049 10.7083 7.67549 10.775 7.47549 10.775ZM7.47549 15C7.25882 15 7.07549 14.9333 6.92549 14.8C6.79216 14.65 6.72549 14.4667 6.72549 14.25C6.72549 14.0333 6.79216 13.8583 6.92549 13.725C7.07549 13.575 7.25882 13.5 7.47549 13.5C7.67549 13.5 7.85049 13.575 8.00049 13.725C8.15049 13.8583 8.22549 14.0333 8.22549 14.25C8.22549 14.4667 8.15049 14.65 8.00049 14.8C7.85049 14.9333 7.67549 15 7.47549 15ZM10.0005 9.575H16.7505V10.5H10.0005V9.575Z" fill="black"/>
</g>
<defs>
<clipPath id="clip0_3194_2330">
<rect width="24" height="24" fill="white"/>
</clipPath>
</defs>
</svg>
