<svg width="24" height="24" viewBox="0 0 24 24" fill="none" xmlns="http://www.w3.org/2000/svg">
<g clip-path="url(#clip0_3194_2334)">
<rect width="24" height="24" fill="white"/>
<path d="M2.00049 4H22.0005V20.5H2.00049V4ZM20.1505 18.7V5.8H3.85049V18.7H20.1505ZM6.00049 2.425C6.00049 2.15833 6.08382 1.94167 6.25049 1.775C6.43382 1.59167 6.65882 1.5 6.92549 1.5C7.19216 1.5 7.40882 1.59167 7.57549 1.775C7.75882 1.94167 7.85049 2.15833 7.85049 2.425V5H6.00049V2.425ZM16.1505 2.425C16.1505 2.15833 16.2338 1.94167 16.4005 1.775C16.5838 1.59167 16.8088 1.5 17.0755 1.5C17.3422 1.5 17.5588 1.59167 17.7255 1.775C17.9088 1.94167 18.0005 2.15833 18.0005 2.425V5H16.1505V2.425ZM11.0005 13.225H16.2505V15.075H11.0005V13.225ZM8.40049 11.4C8.05049 11.4 7.75049 11.2833 7.50049 11.05C7.26716 10.8 7.15049 10.5 7.15049 10.15C7.15049 9.8 7.26716 9.50833 7.50049 9.275C7.75049 9.025 8.05049 8.9 8.40049 8.9C8.75049 8.9 9.04216 9.025 9.27549 9.275C9.52549 9.50833 9.65049 9.8 9.65049 10.15C9.65049 10.5 9.52549 10.8 9.27549 11.05C9.04216 11.2833 8.75049 11.4 8.40049 11.4ZM8.40049 15.4C8.05049 15.4 7.75049 15.2833 7.50049 15.05C7.26716 14.8 7.15049 14.5 7.15049 14.15C7.15049 13.8 7.26716 13.5083 7.50049 13.275C7.75049 13.025 8.05049 12.9 8.40049 12.9C8.75049 12.9 9.04216 13.025 9.27549 13.275C9.52549 13.5083 9.65049 13.8 9.65049 14.15C9.65049 14.5 9.52549 14.8 9.27549 15.05C9.04216 15.2833 8.75049 15.4 8.40049 15.4ZM11.0005 9.225H16.2505V11.075H11.0005V9.225Z" fill="black"/>
</g>
<defs>
<clipPath id="clip0_3194_2334">
<rect width="24" height="24" fill="white"/>
</clipPath>
</defs>
</svg>
