<svg width="24" height="24" viewBox="0 0 24 24" fill="none" xmlns="http://www.w3.org/2000/svg">
<g clip-path="url(#clip0_3194_2232)">
<rect width="24" height="24" fill="white"/>
<path d="M2.00049 4H22.0005V20.5H2.00049V4ZM19.6005 18.15V6.35H4.40049V18.15H19.6005ZM6.00049 2.7C6.00049 2.35 6.11716 2.06667 6.35049 1.85C6.58382 1.61667 6.86716 1.5 7.20049 1.5C7.53382 1.5 7.81716 1.61667 8.05049 1.85C8.28382 2.06667 8.40049 2.35 8.40049 2.7V5.275H6.00049V2.7ZM15.6005 2.7C15.6005 2.35 15.7172 2.06667 15.9505 1.85C16.1838 1.61667 16.4672 1.5 16.8005 1.5C17.1338 1.5 17.4172 1.61667 17.6505 1.85C17.8838 2.06667 18.0005 2.35 18.0005 2.7V5.25H15.6005V2.7ZM8.07549 9H15.9255V11.25H8.07549V9ZM8.07549 13.1H13.9255V15.325H8.07549V13.1Z" fill="black"/>
</g>
<defs>
<clipPath id="clip0_3194_2232">
<rect width="24" height="24" fill="white"/>
</clipPath>
</defs>
</svg>
