<svg width="24" height="24" viewBox="0 0 24 24" fill="none" xmlns="http://www.w3.org/2000/svg">
<g clip-path="url(#clip0_3194_2210)">
<rect width="24" height="24" fill="white"/>
<path d="M2.00049 4H22.0005V20.5H2.00049V4ZM18.2505 16.8V7.7H5.75049V16.8H18.2505ZM6.00049 3.3C6.00049 2.76667 6.16716 2.33333 6.50049 2C6.85049 1.66667 7.29216 1.5 7.82549 1.5C8.35882 1.5 8.79216 1.66667 9.12549 2C9.47549 2.33333 9.65049 2.76667 9.65049 3.3V5.85H6.00049V3.3ZM14.3505 3.3C14.3505 2.76667 14.5172 2.33333 14.8505 2C15.2005 1.66667 15.6422 1.5 16.1755 1.5C16.7088 1.5 17.1422 1.66667 17.4755 2C17.8255 2.33333 18.0005 2.76667 18.0005 3.3V5.725H14.3505V3.3Z" fill="black"/>
</g>
<defs>
<clipPath id="clip0_3194_2210">
<rect width="24" height="24" fill="white"/>
</clipPath>
</defs>
</svg>
