<svg width="24" height="24" viewBox="0 0 24 24" fill="none" xmlns="http://www.w3.org/2000/svg">
<g clip-path="url(#clip0_3194_2344)">
<rect width="24" height="24" fill="white"/>
<path d="M9.925 9.4V10.375H17V9.4H9.925ZM7.125 10.375C7.25833 10.5083 7.425 10.575 7.625 10.575C7.80833 10.575 7.96667 10.5083 8.1 10.375C8.23333 10.2417 8.3 10.075 8.3 9.875C8.3 9.69167 8.23333 9.53333 8.1 9.4C7.96667 9.26667 7.80833 9.2 7.625 9.2C7.425 9.2 7.25833 9.26667 7.125 9.4C6.99167 9.53333 6.925 9.69167 6.925 9.875C6.925 10.075 6.99167 10.2417 7.125 10.375ZM9.925 13.7V14.675H17V13.7H9.925ZM7.125 14.675C7.25833 14.8083 7.425 14.875 7.625 14.875C7.80833 14.875 7.96667 14.8083 8.1 14.675C8.23333 14.5417 8.3 14.375 8.3 14.175C8.3 13.9917 8.23333 13.8333 8.1 13.7C7.96667 13.5667 7.80833 13.5 7.625 13.5C7.425 13.5 7.25833 13.5667 7.125 13.7C6.99167 13.8333 6.925 13.9917 6.925 14.175C6.925 14.375 6.99167 14.5417 7.125 14.675ZM22 20.5H2V4H22V20.5ZM6.95 4.5H6V1.975C6 1.84167 6.04167 1.73333 6.125 1.65C6.225 1.55 6.34167 1.5 6.475 1.5C6.625 1.5 6.74167 1.54167 6.825 1.625C6.90833 1.70833 6.95 1.825 6.95 1.975V4.5ZM18 4.5H17.05V1.975C17.05 1.84167 17.0917 1.73333 17.175 1.65C17.275 1.55 17.3917 1.5 17.525 1.5C17.675 1.5 17.7917 1.54167 17.875 1.625C17.9583 1.70833 18 1.825 18 1.975V4.5Z" fill="black"/>
</g>
<defs>
<clipPath id="clip0_3194_2344">
<rect width="24" height="24" fill="white"/>
</clipPath>
</defs>
</svg>
