<svg width="24" height="24" viewBox="0 0 24 24" fill="none" xmlns="http://www.w3.org/2000/svg">
<g clip-path="url(#clip0_3194_2042)">
<rect width="24" height="24" fill="white"/>
<path d="M2.00049 4H22.0005V20.5H2.00049V4ZM21.5005 20.025V4.475H2.50049V20.025H21.5005ZM6.00049 1.75C6.00049 1.68333 6.02549 1.625 6.07549 1.575C6.12549 1.525 6.18382 1.5 6.25049 1.5C6.33382 1.5 6.39216 1.525 6.42549 1.575C6.47549 1.60833 6.50049 1.66667 6.50049 1.75V4.25H6.00049V1.75ZM17.5005 1.75C17.5005 1.68333 17.5255 1.625 17.5755 1.575C17.6255 1.525 17.6838 1.5 17.7505 1.5C17.8338 1.5 17.8922 1.525 17.9255 1.575C17.9755 1.60833 18.0005 1.66667 18.0005 1.75V4.25H17.5005V1.75ZM10.2505 14.075H16.2505V14.55H10.2505V14.075ZM7.75049 10.475C7.61716 10.475 7.50049 10.425 7.40049 10.325C7.30049 10.225 7.25049 10.1083 7.25049 9.975C7.25049 9.84167 7.30049 9.725 7.40049 9.625C7.50049 9.525 7.61716 9.475 7.75049 9.475C7.88382 9.475 8.00049 9.525 8.10049 9.625C8.20049 9.725 8.25049 9.84167 8.25049 9.975C8.25049 10.1083 8.20049 10.225 8.10049 10.325C8.00049 10.425 7.88382 10.475 7.75049 10.475ZM7.75049 14.8C7.61716 14.8 7.50049 14.75 7.40049 14.65C7.30049 14.55 7.25049 14.4333 7.25049 14.3C7.25049 14.1667 7.30049 14.05 7.40049 13.95C7.50049 13.85 7.61716 13.8 7.75049 13.8C7.88382 13.8 8.00049 13.85 8.10049 13.95C8.20049 14.05 8.25049 14.1667 8.25049 14.3C8.25049 14.4333 8.20049 14.55 8.10049 14.65C8.00049 14.75 7.88382 14.8 7.75049 14.8ZM10.2505 9.75H16.2505V10.225H10.2505V9.75Z" fill="black"/>
</g>
<defs>
<clipPath id="clip0_3194_2042">
<rect width="24" height="24" fill="white"/>
</clipPath>
</defs>
</svg>
