<svg width="24" height="24" viewBox="0 0 24 24" fill="none" xmlns="http://www.w3.org/2000/svg">
<g clip-path="url(#clip0_3457_31551)">
<rect width="24" height="24" fill="white"/>
<path d="M10.1505 12.4C10.1505 12.8667 10.3088 13.2583 10.6255 13.575C10.9422 13.8917 11.3255 14.05 11.7755 14.05H16.6505V11.2H13.0505V7.35H10.1505V12.4ZM12.0005 2.5C13.7505 2.5 15.3505 2.925 16.8005 3.775C18.2505 4.60833 19.3922 5.75 20.2255 7.2C21.0755 8.65 21.5005 10.25 21.5005 12C21.5005 13.4 21.2422 14.6833 20.7255 15.85C20.2088 17 19.5088 18 18.6255 18.85L16.5255 16.8C17.1588 16.2 17.6505 15.4917 18.0005 14.675C18.3505 13.8417 18.5255 12.95 18.5255 12C18.5255 10.7833 18.2338 9.675 17.6505 8.675C17.0838 7.675 16.3005 6.88333 15.3005 6.3C14.3005 5.71667 13.2005 5.425 12.0005 5.425C10.8005 5.425 9.70049 5.71667 8.70049 6.3C7.70049 6.88333 6.90882 7.675 6.32549 8.675C5.75882 9.675 5.47549 10.7833 5.47549 12C5.47549 13.2167 5.75882 14.325 6.32549 15.325C6.90882 16.325 7.70049 17.1167 8.70049 17.7C9.70049 18.2833 10.8005 18.575 12.0005 18.575C12.5505 18.575 13.0422 18.5333 13.4755 18.45L14.2005 21.3C13.4505 21.4333 12.7172 21.5 12.0005 21.5C10.2505 21.5 8.65049 21.0833 7.20049 20.25C5.75049 19.4 4.60049 18.25 3.75049 16.8C2.91716 15.35 2.50049 13.75 2.50049 12C2.50049 10.25 2.91716 8.65 3.75049 7.2C4.60049 5.75 5.75049 4.60833 7.20049 3.775C8.65049 2.925 10.2505 2.5 12.0005 2.5ZM16.7255 20L12.6505 23.95V22.875V17.325V17.1V16.025L16.7255 20Z" fill="black"/>
</g>
<defs>
<clipPath id="clip0_3457_31551">
<rect width="24" height="24" fill="white"/>
</clipPath>
</defs>
</svg>
