<svg width="24" height="24" viewBox="0 0 24 24" fill="none" xmlns="http://www.w3.org/2000/svg">
<g clip-path="url(#clip0_3194_2306)">
<rect width="24" height="24" fill="white"/>
<path d="M18.0755 6.275C18.3755 5.925 18.5255 5.475 18.5255 4.925V3.425H5.47549V4.925C5.47549 5.475 5.62549 5.925 5.92549 6.275L10.9255 12L6.00049 17.625C5.65049 18.025 5.47549 18.5167 5.47549 19.1V20.575H18.5255V19.075C18.5255 18.5083 18.3505 18.025 18.0005 17.625L13.0755 12L18.0755 6.275ZM4.77549 7.15C4.50882 6.83333 4.30882 6.5 4.17549 6.15C4.05882 5.78333 4.00049 5.375 4.00049 4.925V2H20.0005V4.925C20.0005 5.375 19.9338 5.775 19.8005 6.125C19.6838 6.475 19.4922 6.81667 19.2255 7.15L14.9505 12L19.2255 16.85C19.4922 17.1667 19.6838 17.5083 19.8005 17.875C19.9338 18.225 20.0005 18.625 20.0005 19.075V22H4.00049V19.1C4.00049 18.6333 4.05882 18.225 4.17549 17.875C4.30882 17.5083 4.50882 17.1667 4.77549 16.85L9.05049 12L4.77549 7.15Z" fill="black"/>
</g>
<defs>
<clipPath id="clip0_3194_2306">
<rect width="24" height="24" fill="white"/>
</clipPath>
</defs>
</svg>
