<svg width="24" height="24" viewBox="0 0 24 24" fill="none" xmlns="http://www.w3.org/2000/svg">
<g clip-path="url(#clip0_3194_2466)">
<rect width="24" height="24" fill="white"/>
<path d="M17.2755 6.9C17.5088 6.63333 17.6255 6.25833 17.6255 5.775V4.3H6.37549V5.775C6.37549 6.25833 6.49216 6.63333 6.72549 6.9L11.1255 12L6.87549 16.95C6.57549 17.3167 6.42549 17.7417 6.42549 18.225V19.625H17.5755V18.225C17.5755 17.8083 17.3922 17.3833 17.0255 16.95L12.8755 12L17.2755 6.9ZM4.95049 8.475C4.61716 8.10833 4.37549 7.70833 4.22549 7.275C4.07549 6.825 4.00049 6.325 4.00049 5.775V2H20.0005V5.775C20.0005 6.325 19.9255 6.825 19.7755 7.275C19.6255 7.70833 19.3755 8.11667 19.0255 8.5L15.9755 12L19.0505 15.525C19.3838 15.8917 19.6255 16.3 19.7755 16.75C19.9255 17.1833 20.0005 17.675 20.0005 18.225V22H4.00049V18.225C4.00049 17.675 4.07549 17.1833 4.22549 16.75C4.37549 16.3 4.61716 15.8917 4.95049 15.525L8.02549 12L4.95049 8.475ZM6.02549 8.325V6.125H17.9755V8.325H6.02549ZM8.70049 13.125V10.925H15.3505V13.125H8.70049Z" fill="black"/>
</g>
<defs>
<clipPath id="clip0_3194_2466">
<rect width="24" height="24" fill="white"/>
</clipPath>
</defs>
</svg>
