<svg width="24" height="24" viewBox="0 0 24 24" fill="none" xmlns="http://www.w3.org/2000/svg">
<g clip-path="url(#clip0_3194_2312)">
<rect width="24" height="24" fill="white"/>
<path d="M16.6255 7.5C16.8422 7.26667 16.9505 6.94167 16.9505 6.525V5H7.05049V6.525C7.05049 6.94167 7.15882 7.26667 7.37549 7.5L11.3505 12L7.50049 16.35C7.20049 16.6833 7.05049 17.0583 7.05049 17.475V19H16.9505V17.475C16.9505 17.0583 16.8005 16.6833 16.5005 16.35L12.6505 12L16.6255 7.5ZM5.10049 9.575C4.68382 9.15833 4.39216 8.7 4.22549 8.2C4.07549 7.68333 4.00049 7.125 4.00049 6.525V2H20.0005V6.525C20.0005 7.125 19.9172 7.68333 19.7505 8.2C19.5838 8.71667 19.2922 9.18333 18.8755 9.6L16.6255 12L18.9005 14.425C19.3172 14.8417 19.6005 15.3083 19.7505 15.825C19.9172 16.325 20.0005 16.875 20.0005 17.475V22H4.00049V17.475C4.00049 16.875 4.07549 16.325 4.22549 15.825C4.39216 15.3083 4.68382 14.8417 5.10049 14.425L7.37549 12L5.10049 9.575Z" fill="black"/>
</g>
<defs>
<clipPath id="clip0_3194_2312">
<rect width="24" height="24" fill="white"/>
</clipPath>
</defs>
</svg>
