<svg width="24" height="24" viewBox="0 0 24 24" fill="none" xmlns="http://www.w3.org/2000/svg">
<g clip-path="url(#clip0_3194_2468)">
<rect width="24" height="24" fill="white"/>
<path d="M16.8005 7.45C17.0005 7.2 17.1005 6.85833 17.1005 6.425V4.825H6.90049V6.425C6.90049 6.85833 7.00049 7.2 7.20049 7.45L11.2755 12L7.45049 16.4C7.16716 16.7333 7.02549 17.125 7.02549 17.575V19.025H16.9755V17.575C16.9755 17.1583 16.8172 16.7667 16.5005 16.4L12.7255 12L16.8005 7.45ZM5.10049 9.45C4.68382 9.03333 4.39216 8.58333 4.22549 8.1C4.07549 7.6 4.00049 7.04167 4.00049 6.425V2H20.0005V6.425C20.0005 7.025 19.9172 7.58333 19.7505 8.1C19.5838 8.6 19.3005 9.05 18.9005 9.45L16.5505 12L18.9005 14.55C19.3005 14.9667 19.5838 15.425 19.7505 15.925C19.9172 16.425 20.0005 16.975 20.0005 17.575V22H4.00049V17.575C4.00049 16.9583 4.07549 16.4083 4.22549 15.925C4.39216 15.425 4.68382 14.9667 5.10049 14.55L7.45049 12L5.10049 9.45ZM6.37549 8.9V6.25H17.6255V8.9H6.37549ZM8.22549 13.45V10.8H15.8505V13.45H8.22549Z" fill="black"/>
</g>
<defs>
<clipPath id="clip0_3194_2468">
<rect width="24" height="24" fill="white"/>
</clipPath>
</defs>
</svg>
