<svg width="24" height="24" viewBox="0 0 24 24" fill="none" xmlns="http://www.w3.org/2000/svg">
<g clip-path="url(#clip0_3194_2470)">
<rect width="24" height="24" fill="white"/>
<path d="M16.3005 7.975C16.4838 7.75833 16.5755 7.46667 16.5755 7.1V5.325H7.42549V7.1C7.42549 7.46667 7.51716 7.75833 7.70049 7.975L11.4505 12L8.00049 15.875C7.73382 16.175 7.60049 16.5167 7.60049 16.9V18.45H16.4005V16.9C16.4005 16.5167 16.2672 16.175 16.0005 15.875L12.5505 12L16.3005 7.975ZM5.22549 10.4C4.75882 9.96667 4.43382 9.475 4.25049 8.925C4.08382 8.375 4.00049 7.76667 4.00049 7.1V2H20.0005V7.1C20.0005 7.75 19.9088 8.35833 19.7255 8.925C19.5422 9.49167 19.2172 9.99167 18.7505 10.425L17.1255 12L18.7755 13.6C19.2255 14.0333 19.5422 14.5333 19.7255 15.1C19.9088 15.65 20.0005 16.25 20.0005 16.9V22H4.00049V16.9C4.00049 16.2333 4.08382 15.625 4.25049 15.075C4.43382 14.525 4.75882 14.0333 5.22549 13.6L6.87549 12L5.22549 10.4ZM6.75049 9.475V6.375H17.2505V9.475H6.75049ZM7.75049 13.775V10.675H16.3755V13.775H7.75049Z" fill="black"/>
</g>
<defs>
<clipPath id="clip0_3194_2470">
<rect width="24" height="24" fill="white"/>
</clipPath>
</defs>
</svg>
