<svg width="24" height="24" viewBox="0 0 24 24" fill="none" xmlns="http://www.w3.org/2000/svg">
<g clip-path="url(#clip0_3194_2142)">
<rect width="24" height="24" fill="white"/>
<path d="M17.15 6.95C17.3833 6.66667 17.5 6.28333 17.5 5.8V4.45H6.5V5.8C6.5 6.28333 6.61667 6.66667 6.85 6.95L11.2 12L6.975 16.9C6.65833 17.2833 6.5 17.7167 6.5 18.2V19.55H17.5V18.2C17.5 17.7167 17.3417 17.2833 17.025 16.9L12.8 12L17.15 6.95ZM4.975 8.55C4.625 8.16667 4.375 7.75833 4.225 7.325C4.075 6.875 4 6.36667 4 5.8V2H20V5.8C20 6.35 19.925 6.85 19.775 7.3C19.625 7.75 19.375 8.16667 19.025 8.55L16.025 12L19.025 15.45C19.375 15.8333 19.625 16.25 19.775 16.7C19.925 17.15 20 17.65 20 18.2V22H4V18.2C4 17.6333 4.075 17.1333 4.225 16.7C4.375 16.25 4.625 15.8333 4.975 15.45L7.975 12L4.975 8.55ZM5.25 20.825V18.05L6.75 15.05H17.25L18.8 19V20.825H5.25Z" fill="black"/>
</g>
<defs>
<clipPath id="clip0_3194_2142">
<rect width="24" height="24" fill="white"/>
</clipPath>
</defs>
</svg>
