<svg width="24" height="24" viewBox="0 0 24 24" fill="none" xmlns="http://www.w3.org/2000/svg">
<g clip-path="url(#clip0_3194_2134)">
<rect width="24" height="24" fill="white"/>
<path d="M18.925 6.075C19.3083 5.64167 19.5 5.15 19.5 4.6V2.475H4.5V4.6C4.5 5.15 4.69167 5.64167 5.075 6.075L10.625 12L5.075 17.925C4.69167 18.3083 4.5 18.8333 4.5 19.5V21.525H19.5V19.4C19.5 18.8 19.3083 18.3083 18.925 17.925L13.375 12L18.925 6.075ZM4.7 6.375C4.46667 6.125 4.29167 5.85833 4.175 5.575C4.05833 5.275 4 4.95 4 4.6V2H20V4.6C20 4.93333 19.9417 5.25 19.825 5.55C19.7083 5.83333 19.5333 6.10833 19.3 6.375L14.025 12L19.3 17.625C19.5333 17.875 19.7083 18.15 19.825 18.45C19.9417 18.7333 20 19.05 20 19.4V22H4V19.5C4 19.1167 4.05833 18.775 4.175 18.475C4.29167 18.1583 4.46667 17.875 4.7 17.625L9.975 12L4.7 6.375ZM4.15 21.775L4.4 18.325L7.65 15.05H16.35L19.575 18.45L19.85 21.775H4.15Z" fill="black"/>
</g>
<defs>
<clipPath id="clip0_3194_2134">
<rect width="24" height="24" fill="white"/>
</clipPath>
</defs>
</svg>
