<svg width="24" height="24" viewBox="0 0 24 24" fill="none" xmlns="http://www.w3.org/2000/svg">
<g clip-path="url(#clip0_3194_2308)">
<rect width="24" height="24" fill="white"/>
<path d="M17.6505 6.375C17.9172 6.05833 18.0505 5.63333 18.0505 5.1V3.9H5.95049V5.1C5.95049 5.63333 6.08382 6.05833 6.35049 6.375L11.0755 12L6.47549 17.475C6.12549 17.8917 5.95049 18.3667 5.95049 18.9V20.1H18.0505V18.9C18.0505 18.3667 17.8755 17.8917 17.5255 17.475L12.9255 12L17.6505 6.375ZM4.82549 7.525C4.54216 7.175 4.33382 6.80833 4.20049 6.425C4.06716 6.04167 4.00049 5.6 4.00049 5.1V2H20.0005V5.1C20.0005 5.6 19.9338 6.04167 19.8005 6.425C19.6672 6.80833 19.4588 7.175 19.1755 7.525L15.4005 12L19.1755 16.475C19.4588 16.825 19.6672 17.1917 19.8005 17.575C19.9338 17.9583 20.0005 18.4 20.0005 18.9V22H4.00049V18.9C4.00049 18.4 4.06716 17.9583 4.20049 17.575C4.33382 17.1917 4.54216 16.825 4.82549 16.475L8.60049 12L4.82549 7.525Z" fill="black"/>
</g>
<defs>
<clipPath id="clip0_3194_2308">
<rect width="24" height="24" fill="white"/>
</clipPath>
</defs>
</svg>
