<svg width="24" height="24" viewBox="0 0 24 24" fill="none" xmlns="http://www.w3.org/2000/svg">
<g clip-path="url(#clip0_3457_31611)">
<rect width="24" height="24" fill="white"/>
<path d="M17.0505 20.675C15.5172 21.5583 13.8338 22 12.0005 22C10.1672 22 8.48382 21.5583 6.95049 20.675C5.41716 19.7917 4.20882 18.5833 3.32549 17.05C2.44216 15.5167 2.00049 13.8333 2.00049 12C2.00049 10.1667 2.44216 8.48333 3.32549 6.95C4.20882 5.41667 5.41716 4.20833 6.95049 3.325C8.48382 2.44167 10.1672 2 12.0005 2C13.8338 2 15.5172 2.44167 17.0505 3.325C18.5838 4.20833 19.7922 5.41667 20.6755 6.95C21.5588 8.48333 22.0005 10.1667 22.0005 12C22.0005 13.8333 21.5588 15.5167 20.6755 17.05C19.7922 18.5833 18.5838 19.7917 17.0505 20.675ZM9.30049 12.25H6.77549C6.77549 13.2 7.00882 14.075 7.47549 14.875C7.94216 15.675 8.56716 16.3083 9.35049 16.775C10.1505 17.225 11.0338 17.45 12.0005 17.45C12.9672 17.45 13.8422 17.225 14.6255 16.775C15.4255 16.3083 16.0588 15.675 16.5255 14.875C16.9922 14.075 17.2255 13.2 17.2255 12.25C17.2255 11.3 16.9922 10.425 16.5255 9.625C16.0588 8.825 15.4255 8.2 14.6255 7.75C13.8422 7.28333 12.9672 7.05 12.0005 7.05H11.9505V6.35V5.125L8.05049 8.375L11.9505 11.625V10.425V9.55H12.0005C12.5005 9.55 12.9588 9.66667 13.3755 9.9C13.7922 10.1333 14.1172 10.4583 14.3505 10.875C14.5838 11.2917 14.7005 11.75 14.7005 12.25C14.7005 12.75 14.5838 13.2083 14.3505 13.625C14.1172 14.0417 13.7922 14.3667 13.3755 14.6C12.9588 14.8333 12.5005 14.95 12.0005 14.95C11.5005 14.95 11.0422 14.8333 10.6255 14.6C10.2088 14.3667 9.88382 14.0417 9.65049 13.625C9.41716 13.2083 9.30049 12.75 9.30049 12.25Z" fill="black"/>
</g>
<defs>
<clipPath id="clip0_3457_31611">
<rect width="24" height="24" fill="white"/>
</clipPath>
</defs>
</svg>
