<svg width="24" height="24" viewBox="0 0 24 24" fill="none" xmlns="http://www.w3.org/2000/svg">
<g clip-path="url(#clip0_3457_31603)">
<rect width="24" height="24" fill="white"/>
<path d="M17.0505 20.675C15.5172 21.5583 13.8338 22 12.0005 22C10.1672 22 8.48382 21.5583 6.95049 20.675C5.41716 19.7917 4.20882 18.5833 3.32549 17.05C2.44216 15.5167 2.00049 13.8333 2.00049 12C2.00049 10.1667 2.44216 8.48333 3.32549 6.95C4.20882 5.41667 5.41716 4.20833 6.95049 3.325C8.48382 2.44167 10.1672 2 12.0005 2C13.8338 2 15.5172 2.44167 17.0505 3.325C18.5838 4.20833 19.7922 5.41667 20.6755 6.95C21.5588 8.48333 22.0005 10.1667 22.0005 12C22.0005 13.8333 21.5588 15.5167 20.6755 17.05C19.7922 18.5833 18.5838 19.7917 17.0505 20.675ZM7.82549 12.25H6.95049C6.95049 13.1833 7.17549 14.0333 7.62549 14.8C8.07549 15.5667 8.68382 16.175 9.45049 16.625C10.2172 17.0583 11.0672 17.275 12.0005 17.275C12.9338 17.275 13.7838 17.0583 14.5505 16.625C15.3172 16.175 15.9255 15.5667 16.3755 14.8C16.8255 14.0333 17.0505 13.1833 17.0505 12.25C17.0505 11.3167 16.8255 10.4667 16.3755 9.7C15.9255 8.93333 15.3088 8.33333 14.5255 7.9C13.7588 7.45 12.9005 7.225 11.9505 7.225H10.7755L12.6255 5.525L11.9505 4.85L9.15049 7.65L11.9505 10.45L12.6255 9.775L10.7505 8.075H11.9505C12.7505 8.075 13.4672 8.25833 14.1005 8.625C14.7505 8.99167 15.2588 9.5 15.6255 10.15C15.9922 10.7833 16.1755 11.4833 16.1755 12.25C16.1755 13.0167 15.9922 13.725 15.6255 14.375C15.2588 15.0083 14.7505 15.5083 14.1005 15.875C13.4672 16.2417 12.7672 16.425 12.0005 16.425C11.2338 16.425 10.5255 16.2417 9.87549 15.875C9.24216 15.5083 8.74216 15.0083 8.37549 14.375C8.00882 13.725 7.82549 13.0167 7.82549 12.25Z" fill="black"/>
</g>
<defs>
<clipPath id="clip0_3457_31603">
<rect width="24" height="24" fill="white"/>
</clipPath>
</defs>
</svg>
