<svg width="24" height="24" viewBox="0 0 24 24" fill="none" xmlns="http://www.w3.org/2000/svg">
<g clip-path="url(#clip0_3194_2404)">
<rect width="24" height="24" fill="white"/>
<path d="M12 22.175C10.1833 22.175 8.51667 21.7417 7 20.875C5.5 19.9917 4.30833 18.8 3.425 17.3C2.55833 15.7833 2.125 14.1167 2.125 12.3C2.125 10.4833 2.55833 8.825 3.425 7.325C4.30833 5.80833 5.5 4.61667 7 3.75C8.51667 2.86667 10.175 2.425 11.975 2.425C13.7917 2.425 15.4583 2.86667 16.975 3.75C18.4917 4.61667 19.6833 5.80833 20.55 7.325C21.4333 8.825 21.875 10.4833 21.875 12.3C21.875 14.1167 21.4333 15.7833 20.55 17.3C19.6833 18.8 18.4917 19.9917 16.975 20.875C15.475 21.7417 13.8167 22.175 12 22.175ZM17.35 5.325L19.45 3.225L21.425 5.2L19.325 7.3L17.35 5.325ZM2.625 5.175L4.575 3.225L6.7 5.325L4.75 7.3L2.625 5.175ZM10.625 0.374999H13.425V3.225H10.625V0.374999ZM11.7 1.725C11.5333 1.725 11.4 1.675 11.3 1.575C11.2 1.475 11.15 1.34167 11.15 1.175C11.15 0.991666 11.2 0.858333 11.3 0.775C11.4 0.674999 11.5333 0.624999 11.7 0.624999H12.35C12.5333 0.624999 12.6667 0.674999 12.75 0.775C12.85 0.858333 12.9 0.991666 12.9 1.175C12.9 1.34167 12.85 1.475 12.75 1.575C12.6667 1.675 12.5333 1.725 12.35 1.725H11.7ZM10.725 13.35C11.025 13.65 11.35 13.8083 11.7 13.825C12.0667 13.825 12.4167 13.6667 12.75 13.35C13.05 13.05 13.1917 12.7167 13.175 12.35C13.175 11.9833 13.025 11.65 12.725 11.35L8.6 7.225L6.6 9.225L10.725 13.35Z" fill="black"/>
</g>
<defs>
<clipPath id="clip0_3194_2404">
<rect width="24" height="24" fill="white"/>
</clipPath>
</defs>
</svg>
