<svg width="24" height="24" viewBox="0 0 24 24" fill="none" xmlns="http://www.w3.org/2000/svg">
<g clip-path="url(#clip0_3194_2388)">
<rect width="24" height="24" fill="white"/>
<path d="M12.0005 22.175C10.2838 22.175 8.70882 21.7583 7.27549 20.925C5.84216 20.0917 4.70882 18.9583 3.87549 17.525C3.04216 16.0917 2.62549 14.5167 2.62549 12.8C2.62549 11.0833 3.04216 9.50833 3.87549 8.075C4.70882 6.64167 5.84216 5.50833 7.27549 4.675C8.70882 3.84167 10.2922 3.425 12.0255 3.425C13.7422 3.425 15.3088 3.84167 16.7255 4.675C18.1588 5.50833 19.2922 6.64167 20.1255 8.075C20.9588 9.50833 21.3755 11.0833 21.3755 12.8C21.3755 14.5167 20.9588 16.0917 20.1255 17.525C19.2922 18.9583 18.1588 20.0917 16.7255 20.925C15.2922 21.7583 13.7172 22.175 12.0005 22.175ZM12.0005 19.9C13.3005 19.9 14.4922 19.5833 15.5755 18.95C16.6588 18.3167 17.5088 17.4583 18.1255 16.375C18.7588 15.2917 19.0755 14.1 19.0755 12.8C19.0755 11.4833 18.7588 10.2833 18.1255 9.2C17.4922 8.1 16.6338 7.24167 15.5505 6.625C14.4838 5.99167 13.3005 5.675 12.0005 5.675C10.7005 5.675 9.50882 5.99167 8.42549 6.625C7.35882 7.24167 6.50882 8.1 5.87549 9.2C5.24216 10.2833 4.92549 11.4833 4.92549 12.8C4.92549 14.1 5.23382 15.2917 5.85049 16.375C6.48382 17.4583 7.34216 18.3167 8.42549 18.95C9.50882 19.5833 10.7005 19.9 12.0005 19.9ZM17.4505 5.75L19.6505 3.575L21.2255 5.175L19.0505 7.375L17.4505 5.75ZM2.82549 5.175L4.40049 3.575L6.60049 5.75L5.00049 7.35L2.82549 5.175ZM10.9505 1.175H13.0755V4.275H10.9505V1.175ZM10.0505 2.475C9.73382 2.475 9.48382 2.38333 9.30049 2.2C9.11716 2.01667 9.02549 1.75833 9.02549 1.425C9.02549 1.09167 9.11716 0.833333 9.30049 0.65C9.48382 0.466666 9.73382 0.374999 10.0505 0.374999H13.9755C14.3088 0.374999 14.5672 0.466666 14.7505 0.65C14.9338 0.833333 15.0255 1.09167 15.0255 1.425C15.0255 1.75833 14.9338 2.01667 14.7505 2.2C14.5672 2.38333 14.3088 2.475 13.9755 2.475H10.0505ZM12.9755 13.45C12.7255 13.7 12.4505 13.825 12.1505 13.825C11.8505 13.825 11.5755 13.7 11.3255 13.45C11.0755 13.2 10.9505 12.925 10.9505 12.625C10.9672 12.325 11.1005 12.05 11.3505 11.8L14.5755 8.575L16.2255 10.2L12.9755 13.45Z" fill="black"/>
</g>
<defs>
<clipPath id="clip0_3194_2388">
<rect width="24" height="24" fill="white"/>
</clipPath>
</defs>
</svg>
