<svg width="24" height="24" viewBox="0 0 24 24" fill="none" xmlns="http://www.w3.org/2000/svg">
<g clip-path="url(#clip0_3194_2178)">
<rect width="24" height="24" fill="white"/>
<path d="M11.6755 13.025C11.4088 13.025 11.1838 12.9333 11.0005 12.75C10.8172 12.5667 10.7255 12.3417 10.7255 12.075V6.1H12.6255V11.175H16.6755V13.025H11.6755ZM12.0005 2C13.8338 2 15.5172 2.44167 17.0505 3.325C18.5838 4.20833 19.7922 5.41667 20.6755 6.95C21.5588 8.48333 22.0005 10.1667 22.0005 12C22.0005 13.8333 21.5588 15.5167 20.6755 17.05C19.7922 18.5833 18.5838 19.7917 17.0505 20.675C15.5172 21.5583 13.8338 22 12.0005 22C10.1672 22 8.48382 21.5583 6.95049 20.675C5.41716 19.7917 4.20882 18.5833 3.32549 17.05C2.44216 15.5167 2.00049 13.8333 2.00049 12C2.00049 10.1667 2.44216 8.48333 3.32549 6.95C4.20882 5.41667 5.41716 4.20833 6.95049 3.325C8.48382 2.44167 10.1672 2 12.0005 2ZM12.0005 3.85C10.5005 3.85 9.13382 4.20833 7.90049 4.925C6.66716 5.64167 5.69216 6.625 4.97549 7.875C4.25882 9.10833 3.90049 10.4833 3.90049 12C3.90049 13.5167 4.25882 14.9 4.97549 16.15C5.69216 17.3833 6.66716 18.3583 7.90049 19.075C9.13382 19.7917 10.5005 20.15 12.0005 20.15C13.5005 20.15 14.8672 19.7917 16.1005 19.075C17.3338 18.3583 18.3088 17.3833 19.0255 16.15C19.7422 14.9 20.1005 13.5167 20.1005 12C20.1005 10.4833 19.7422 9.10833 19.0255 7.875C18.3088 6.625 17.3338 5.64167 16.1005 4.925C14.8672 4.20833 13.5005 3.85 12.0005 3.85Z" fill="black"/>
</g>
<defs>
<clipPath id="clip0_3194_2178">
<rect width="24" height="24" fill="white"/>
</clipPath>
</defs>
</svg>
