<svg width="24" height="24" viewBox="0 0 24 24" fill="none" xmlns="http://www.w3.org/2000/svg">
<g clip-path="url(#clip0_3245_16627)">
<rect width="24" height="24" fill="white"/>
<path d="M12.0005 22C10.1672 22 8.48382 21.5583 6.95049 20.675C5.41716 19.7917 4.20882 18.5833 3.32549 17.05C2.44216 15.5167 2.00049 13.8333 2.00049 12C2.00049 10.6167 2.25049 9.31667 2.75049 8.1C3.26716 6.86667 3.99216 5.79167 4.92549 4.875L6.65049 6.625C5.96716 7.325 5.43382 8.14167 5.05049 9.075C4.66716 9.99167 4.47549 10.9667 4.47549 12C4.47549 13.3833 4.80882 14.6583 5.47549 15.825C6.14216 16.975 7.05049 17.8917 8.20049 18.575C9.35049 19.2417 10.6172 19.575 12.0005 19.575C13.3838 19.575 14.6505 19.2417 15.8005 18.575C16.9505 17.8917 17.8588 16.975 18.5255 15.825C19.1922 14.6583 19.5255 13.3833 19.5255 12C19.5255 10.6167 19.1922 9.35 18.5255 8.2C17.8588 7.03333 16.9505 6.11667 15.8005 5.45C14.6505 4.76667 13.3838 4.425 12.0005 4.425V2C13.8338 2 15.5172 2.44167 17.0505 3.325C18.5838 4.20833 19.7922 5.41667 20.6755 6.95C21.5588 8.48333 22.0005 10.1667 22.0005 12C22.0005 13.8333 21.5588 15.5167 20.6755 17.05C19.7922 18.5833 18.5838 19.7917 17.0505 20.675C15.5172 21.5583 13.8338 22 12.0005 22ZM7.40049 9.2L9.20049 7.4L12.9005 11.1C13.1505 11.35 13.2755 11.65 13.2755 12C13.2755 12.35 13.1505 12.65 12.9005 12.9C12.6505 13.15 12.3505 13.275 12.0005 13.275C11.6505 13.275 11.3505 13.15 11.1005 12.9L7.40049 9.2ZM12.0005 2L13.2255 3.35V6.425H10.7755V2H12.0005Z" fill="black"/>
</g>
<defs>
<clipPath id="clip0_3245_16627">
<rect width="24" height="24" fill="white"/>
</clipPath>
</defs>
</svg>
