<svg width="24" height="24" viewBox="0 0 24 24" fill="none" xmlns="http://www.w3.org/2000/svg">
<g clip-path="url(#clip0_3245_16623)">
<rect width="24" height="24" fill="white"/>
<path d="M12.0005 22C10.1672 22 8.48382 21.5583 6.95049 20.675C5.41716 19.7917 4.20882 18.5833 3.32549 17.05C2.44216 15.5167 2.00049 13.8333 2.00049 12C2.00049 10.6167 2.25049 9.31667 2.75049 8.1C3.26716 6.86667 3.99216 5.79167 4.92549 4.875L5.95049 5.9C5.16716 6.7 4.55882 7.625 4.12549 8.675C3.69216 9.725 3.47549 10.8333 3.47549 12C3.47549 13.5667 3.85049 15.0083 4.60049 16.325C5.36716 17.6417 6.40049 18.6833 7.70049 19.45C9.00049 20.2 10.4338 20.575 12.0005 20.575C13.5672 20.575 15.0005 20.2 16.3005 19.45C17.6005 18.6833 18.6255 17.6417 19.3755 16.325C20.1422 15.0083 20.5255 13.5667 20.5255 12C20.5255 10.4333 20.1422 8.99167 19.3755 7.675C18.6255 6.35833 17.6005 5.325 16.3005 4.575C15.0005 3.80833 13.5672 3.425 12.0005 3.425V2C13.8338 2 15.5172 2.44167 17.0505 3.325C18.5838 4.20833 19.7922 5.41667 20.6755 6.95C21.5588 8.48333 22.0005 10.1667 22.0005 12C22.0005 13.8333 21.5588 15.5167 20.6755 17.05C19.7922 18.5833 18.5838 19.7917 17.0505 20.675C15.5172 21.5583 13.8338 22 12.0005 22ZM7.15049 8.2L8.20049 7.15L12.5255 11.475C12.6588 11.625 12.7255 11.8 12.7255 12C12.7255 12.2 12.6588 12.375 12.5255 12.525C12.3755 12.6583 12.2005 12.725 12.0005 12.725C11.8005 12.725 11.6255 12.6583 11.4755 12.525L7.15049 8.2ZM12.0005 2L12.7255 3.025V6H11.2755V2H12.0005Z" fill="black"/>
</g>
<defs>
<clipPath id="clip0_3245_16623">
<rect width="24" height="24" fill="white"/>
</clipPath>
</defs>
</svg>
