<svg width="24" height="24" viewBox="0 0 24 24" fill="none" xmlns="http://www.w3.org/2000/svg">
<g clip-path="url(#clip0_3194_2648)">
<rect width="24" height="24" fill="white"/>
<path d="M12 19.925C10.5333 19.925 9.18333 19.575 7.95 18.875C6.73333 18.175 5.76667 17.2167 5.05 16C4.35 14.7833 4 13.4417 4 11.975C4 10.5083 4.35 9.16667 5.05 7.95C5.76667 6.73333 6.73333 5.775 7.95 5.075C9.18333 4.375 10.5333 4.025 12 4.025C13.4667 4.025 14.8083 4.375 16.025 5.075C17.2583 5.775 18.225 6.73333 18.925 7.95C19.6417 9.16667 20 10.5083 20 11.975C20 13.4417 19.6417 14.7833 18.925 16C18.225 17.2167 17.2583 18.175 16.025 18.875C14.8083 19.575 13.4667 19.925 12 19.925ZM6.5 16.525H9.475V18.3H14.525V16.525H17.5V24H6.5V16.525ZM12 16.725C12.8667 16.725 13.6583 16.5167 14.375 16.1C15.1083 15.6667 15.6833 15.0917 16.1 14.375C16.5333 13.6417 16.75 12.8417 16.75 11.975C16.75 11.1083 16.5333 10.3167 16.1 9.6C15.6833 8.86667 15.1083 8.29167 14.375 7.875C13.6583 7.44167 12.8667 7.225 12 7.225C11.1333 7.225 10.3333 7.44167 9.6 7.875C8.88333 8.29167 8.30833 8.86667 7.875 9.6C7.45833 10.3167 7.25 11.1083 7.25 11.975C7.25 12.8417 7.45833 13.6417 7.875 14.375C8.30833 15.0917 8.88333 15.6667 9.6 16.1C10.3333 16.5167 11.1333 16.725 12 16.725ZM6.5 -8.34465e-07H17.5V6.95H14.525V5.7H9.475V6.95H6.5V-8.34465e-07ZM10.4 12.4C10.4 12.7 10.5 12.95 10.7 13.15C10.9 13.35 11.15 13.45 11.45 13.45H14.925V10.525H13.375V8.725H10.4V12.4Z" fill="black"/>
</g>
<defs>
<clipPath id="clip0_3194_2648">
<rect width="24" height="24" fill="white"/>
</clipPath>
</defs>
</svg>
