<svg width="24" height="24" viewBox="0 0 24 24" fill="none" xmlns="http://www.w3.org/2000/svg">
<g clip-path="url(#clip0_3181_25908)">
<rect width="24" height="24" fill="white"/>
<path d="M12.0005 16.375C11.2005 16.375 10.4588 16.1833 9.77549 15.8C9.10882 15.4 8.58382 14.8667 8.20049 14.2C7.81716 13.5333 7.62549 12.8 7.62549 12C7.62549 11.2 7.81716 10.4667 8.20049 9.8C8.58382 9.13333 9.10882 8.60833 9.77549 8.225C10.4588 7.825 11.2005 7.625 12.0005 7.625C12.8005 7.625 13.5338 7.81667 14.2005 8.2C14.8672 8.58333 15.3922 9.11667 15.7755 9.8C16.1755 10.4667 16.3755 11.2 16.3755 12C16.3755 12.8 16.1755 13.5417 15.7755 14.225C15.3922 14.8917 14.8672 15.4167 14.2005 15.8C13.5338 16.1833 12.8005 16.375 12.0005 16.375ZM4.65049 17.25L6.70049 15.175L8.82549 17.3L6.75049 19.35L4.65049 17.25ZM3.10049 10.5H6.00049V13.5H3.10049V10.5ZM10.4755 18H13.5255V20.9H10.4755V18ZM12.0005 13.85C12.3338 13.85 12.6422 13.7667 12.9255 13.6C13.2088 13.4333 13.4255 13.2167 13.5755 12.95C13.7422 12.6667 13.8255 12.35 13.8255 12C13.8255 11.6667 13.7422 11.3583 13.5755 11.075C13.4255 10.7917 13.2088 10.5667 12.9255 10.4C12.6588 10.2333 12.3505 10.15 12.0005 10.15C11.6672 10.15 11.3588 10.2333 11.0755 10.4C10.7922 10.5667 10.5672 10.7917 10.4005 11.075C10.2505 11.3583 10.1755 11.6667 10.1755 12C10.1755 12.3333 10.2505 12.6417 10.4005 12.925C10.5672 13.2083 10.7838 13.4333 11.0505 13.6C11.3338 13.7667 11.6505 13.85 12.0005 13.85ZM15.1755 17.3L17.3005 15.175L19.3505 17.25L17.2505 19.35L15.1755 17.3ZM4.62549 6.775L6.72549 4.65L8.80049 6.7L6.70049 8.825L4.62549 6.775ZM10.4755 3.1H13.5255V6H10.4755V3.1ZM18.0005 10.5H20.9005V13.5H18.0005V10.5ZM15.1755 6.7L17.2505 4.65L19.3755 6.775L17.3005 8.825L15.1755 6.7Z" fill="black"/>
</g>
<defs>
<clipPath id="clip0_3181_25908">
<rect width="24" height="24" fill="white"/>
</clipPath>
</defs>
</svg>
