<svg width="24" height="24" viewBox="0 0 24 24" fill="none" xmlns="http://www.w3.org/2000/svg">
<g clip-path="url(#clip0_3181_25902)">
<rect width="24" height="24" fill="white"/>
<path d="M12.0005 15.975C11.2672 15.975 10.5922 15.8 9.97549 15.45C9.35882 15.1 8.87549 14.625 8.52549 14.025C8.17549 13.4083 8.00049 12.7333 8.00049 12C8.00049 11.2667 8.17549 10.6 8.52549 10C8.87549 9.38333 9.35882 8.9 9.97549 8.55C10.5922 8.2 11.2672 8.025 12.0005 8.025C12.7338 8.025 13.4005 8.2 14.0005 8.55C14.6172 8.9 15.1005 9.38333 15.4505 10C15.8172 10.6 16.0005 11.2667 16.0005 12C16.0005 12.7333 15.8172 13.4083 15.4505 14.025C15.1005 14.625 14.6172 15.1 14.0005 15.45C13.4005 15.8 12.7338 15.975 12.0005 15.975ZM5.92549 17.05L7.22549 15.725L8.27549 16.775L6.95049 18.075L5.92549 17.05ZM4.17549 11.275H6.00049V12.725H4.17549V11.275ZM11.2505 18H12.7505V19.825H11.2505V18ZM12.0005 14.65C12.4838 14.65 12.9255 14.5333 13.3255 14.3C13.7422 14.0667 14.0672 13.75 14.3005 13.35C14.5338 12.9333 14.6505 12.4833 14.6505 12C14.6505 11.5167 14.5338 11.075 14.3005 10.675C14.0672 10.2583 13.7505 9.93333 13.3505 9.7C12.9505 9.46667 12.5005 9.35 12.0005 9.35C11.5172 9.35 11.0672 9.46667 10.6505 9.7C10.2505 9.93333 9.93382 10.2583 9.70049 10.675C9.46716 11.075 9.35049 11.5167 9.35049 12C9.35049 12.4833 9.46716 12.9333 9.70049 13.35C9.93382 13.75 10.2505 14.0667 10.6505 14.3C11.0672 14.5333 11.5172 14.65 12.0005 14.65ZM15.7255 16.775L16.7755 15.725L18.0755 17.05L17.0505 18.075L15.7255 16.775ZM5.92549 6.95L6.95049 5.925L8.27549 7.225L7.22549 8.275L5.92549 6.95ZM11.2505 4.175H12.7505V6H11.2505V4.175ZM18.0005 11.275H19.8255V12.725H18.0005V11.275ZM15.7255 7.225L17.0505 5.925L18.0755 6.95L16.7755 8.275L15.7255 7.225Z" fill="black"/>
</g>
<defs>
<clipPath id="clip0_3181_25902">
<rect width="24" height="24" fill="white"/>
</clipPath>
</defs>
</svg>
