<svg width="24" height="24" viewBox="0 0 24 24" fill="none" xmlns="http://www.w3.org/2000/svg">
<g clip-path="url(#clip0_3180_17411)">
<rect width="24" height="24" fill="white"/>
<path d="M12 16C11.2667 16 10.5917 15.825 9.975 15.475C9.35833 15.125 8.875 14.6417 8.525 14.025C8.175 13.4083 8 12.7333 8 12C8 11.2667 8.175 10.6 8.525 10C8.875 9.38333 9.35833 8.9 9.975 8.55C10.5917 8.18333 11.2667 8 12 8C12.7333 8 13.4083 8.175 14.025 8.525C14.6417 8.875 15.125 9.35833 15.475 9.975C15.825 10.5917 16 11.2667 16 12C16 12.7333 15.825 13.4083 15.475 14.025C15.125 14.6417 14.6417 15.125 14.025 15.475C13.4083 15.825 12.7333 16 12 16ZM6.525 17.15L7.6 16.075L7.925 16.425L6.85 17.5L6.525 17.15ZM4.5 11.75H6V12.225H4.5V11.75ZM11.75 18H12.25V19.5H11.75V18ZM16.075 16.425L16.4 16.075L17.475 17.15L17.15 17.5L16.075 16.425ZM6.525 6.85L6.85 6.5L7.925 7.575L7.6 7.925L6.525 6.85ZM11.75 4.5H12.25V6H11.75V4.5ZM18 11.75H19.5V12.225H18V11.75ZM16.075 7.575L17.15 6.5L17.475 6.85L16.4 7.925L16.075 7.575Z" fill="black"/>
</g>
<defs>
<clipPath id="clip0_3180_17411">
<rect width="24" height="24" fill="white"/>
</clipPath>
</defs>
</svg>
