<svg width="24" height="24" viewBox="0 0 24 24" fill="none" xmlns="http://www.w3.org/2000/svg">
<g clip-path="url(#clip0_3180_17269)">
<rect width="24" height="24" fill="white"/>
<path d="M18.7755 19.05C19.4755 19.05 20.1255 18.8667 20.7255 18.5C21.3255 18.1333 21.7922 17.6417 22.1255 17.025C22.4755 16.3917 22.6505 15.7083 22.6505 14.975C22.6505 14.0583 22.3838 13.2417 21.8505 12.525C21.3172 11.7917 20.6422 11.3 19.8255 11.05C19.9755 10.5167 20.0505 9.95833 20.0505 9.375C20.0505 8.475 19.8422 7.65 19.4255 6.9C19.0088 6.13333 18.4338 5.53333 17.7005 5.1C16.9672 4.65 16.1755 4.425 15.3255 4.425C14.6922 4.425 14.0922 4.54167 13.5255 4.775C12.9755 5.00833 12.4755 5.33333 12.0255 5.75C11.5755 5.33333 11.0672 5.00833 10.5005 4.775C9.93382 4.54167 9.34216 4.425 8.72549 4.425C7.84216 4.425 7.03382 4.65 6.30049 5.1C5.58382 5.53333 5.00882 6.13333 4.57549 6.9C4.15882 7.65 3.95049 8.475 3.95049 9.375C3.95049 10.025 4.02549 10.5833 4.17549 11.05C3.35882 11.3 2.68382 11.7917 2.15049 12.525C1.61715 13.2417 1.35049 14.0583 1.35049 14.975C1.35049 15.7083 1.52549 16.3917 1.87549 17.025C2.22549 17.6417 2.69216 18.1333 3.27549 18.5C3.87549 18.8667 4.53382 19.05 5.25049 19.05H18.7755ZM5.25049 20C4.36716 20 3.55049 19.775 2.80049 19.325C2.06716 18.875 1.47549 18.2667 1.02549 17.5C0.592155 16.7333 0.375488 15.8917 0.375488 14.975C0.375488 14.0083 0.625488 13.125 1.12549 12.325C1.62549 11.525 2.27549 10.9333 3.07549 10.55C3.00882 10.1833 2.97549 9.79167 2.97549 9.375C2.97549 8.30833 3.23382 7.325 3.75049 6.425C4.26716 5.525 4.95882 4.80833 5.82549 4.275C6.70882 3.74167 7.67549 3.475 8.72549 3.475C9.87549 3.475 10.9755 3.84167 12.0255 4.575C13.0422 3.84167 14.1422 3.475 15.3255 3.475C16.3588 3.475 17.3088 3.74167 18.1755 4.275C19.0588 4.80833 19.7588 5.525 20.2755 6.425C20.7922 7.325 21.0505 8.30833 21.0505 9.375C21.0505 9.74167 21.0088 10.1333 20.9255 10.55C21.7255 10.9333 22.3755 11.525 22.8755 12.325C23.3755 13.125 23.6255 14.0083 23.6255 14.975C23.6255 15.8917 23.4005 16.7333 22.9505 17.5C22.5172 18.2667 21.9255 18.875 21.1755 19.325C20.4422 19.775 19.6422 20 18.7755 20H5.25049Z" fill="black"/>
</g>
<defs>
<clipPath id="clip0_3180_17269">
<rect width="24" height="24" fill="white"/>
</clipPath>
</defs>
</svg>
