<svg width="24" height="24" viewBox="0 0 24 24" fill="none" xmlns="http://www.w3.org/2000/svg">
<g clip-path="url(#clip0_3181_25828)">
<rect width="24" height="24" fill="white"/>
<path d="M13.0005 22C11.1672 22 9.48382 21.5583 7.95049 20.675C6.43382 19.775 5.22549 18.5667 4.32549 17.05C3.44216 15.5167 3.00049 13.8333 3.00049 12C3.00049 10.1667 3.44216 8.49167 4.32549 6.975C5.22549 5.44167 6.43382 4.23333 7.95049 3.35C9.48382 2.45 11.1672 2 13.0005 2C14.3672 2 15.6505 2.25833 16.8505 2.775C18.0672 3.275 19.1338 3.98333 20.0505 4.9C18.9505 5.1 17.9505 5.53333 17.0505 6.2C16.1505 6.86667 15.4338 7.70833 14.9005 8.725C14.3838 9.725 14.1255 10.8167 14.1255 12C14.1255 13.1833 14.3838 14.2833 14.9005 15.3C15.4338 16.3 16.1505 17.1333 17.0505 17.8C17.9505 18.4667 18.9505 18.9 20.0505 19.1C19.1338 20.0167 18.0672 20.725 16.8505 21.225C15.6505 21.7417 14.3672 22 13.0005 22ZM13.0005 19.55C13.5005 19.55 13.9755 19.5167 14.4255 19.45C14.8922 19.3667 15.3672 19.2333 15.8505 19.05L15.9005 19.575C15.0005 19.0083 14.2255 18.3333 13.5755 17.55C12.9422 16.7667 12.4588 15.9083 12.1255 14.975C11.7922 14.0417 11.6255 13.05 11.6255 12C11.6255 10.95 11.7922 9.95833 12.1255 9.025C12.4588 8.09167 12.9422 7.23333 13.5755 6.45C14.2255 5.66667 15.0005 4.99167 15.9005 4.425L15.8255 4.95C15.3422 4.76667 14.8755 4.64167 14.4255 4.575C13.9755 4.49167 13.5005 4.45 13.0005 4.45C11.6172 4.45 10.3505 4.79167 9.20049 5.475C8.06716 6.14167 7.16716 7.05 6.50049 8.2C5.83382 9.35 5.50049 10.6167 5.50049 12C5.50049 13.3833 5.83382 14.65 6.50049 15.8C7.16716 16.95 8.06716 17.8667 9.20049 18.55C10.3505 19.2167 11.6172 19.55 13.0005 19.55Z" fill="black"/>
</g>
<defs>
<clipPath id="clip0_3181_25828">
<rect width="24" height="24" fill="white"/>
</clipPath>
</defs>
</svg>
