<svg width="24" height="24" viewBox="0 0 24 24" fill="none" xmlns="http://www.w3.org/2000/svg">
<g clip-path="url(#clip0_3179_16310)">
<rect width="24" height="24" fill="white"/>
<path d="M12.0005 16.975C11.0838 16.975 10.2422 16.7583 9.47549 16.325C8.72549 15.875 8.12549 15.275 7.67549 14.525C7.24216 13.775 7.02549 12.9417 7.02549 12.025C7.02549 11.1083 7.24216 10.275 7.67549 9.525C8.12549 8.75833 8.72549 8.15833 9.47549 7.725C10.2422 7.275 11.0838 7.05 12.0005 7.05C12.9172 7.05 13.7505 7.275 14.5005 7.725C15.2505 8.15833 15.8422 8.75833 16.2755 9.525C16.7255 10.275 16.9505 11.1083 16.9505 12.025C16.9505 12.9417 16.7255 13.775 16.2755 14.525C15.8422 15.275 15.2505 15.875 14.5005 16.325C13.7505 16.7583 12.9172 16.975 12.0005 16.975ZM2.00049 11.8H5.52549V12.275H2.00049V11.8ZM2.00049 16.525H22.0005V17H2.00049V16.525ZM4.75049 5.125L5.07549 4.8L7.57549 7.3L7.25049 7.625L4.75049 5.125ZM12.0005 16.525C12.8172 16.525 13.5672 16.325 14.2505 15.925C14.9338 15.525 15.4672 14.9833 15.8505 14.3C16.2505 13.6167 16.4505 12.8583 16.4505 12.025C16.4505 11.1917 16.2505 10.4333 15.8505 9.75C15.4672 9.06667 14.9338 8.525 14.2505 8.125C13.5672 7.725 12.8172 7.525 12.0005 7.525C11.1838 7.525 10.4338 7.725 9.75049 8.125C9.06716 8.525 8.52549 9.06667 8.12549 9.75C7.72549 10.4333 7.52549 11.1917 7.52549 12.025C7.52549 12.8583 7.72549 13.6167 8.12549 14.3C8.52549 14.9833 9.06716 15.525 9.75049 15.925C10.4338 16.325 11.1838 16.525 12.0005 16.525ZM11.7505 2H12.2505V5.55H11.7505V2ZM18.4505 11.8H22.0005V12.275H18.4505V11.8ZM16.4255 7.3L18.9255 4.8L19.2505 5.125L16.7505 7.625L16.4255 7.3ZM8.80049 21.65L12.0755 18.375L15.3505 21.65L15.0005 22L12.0755 19.075L9.15049 22L8.80049 21.65Z" fill="black"/>
</g>
<defs>
<clipPath id="clip0_3179_16310">
<rect width="24" height="24" fill="white"/>
</clipPath>
</defs>
</svg>
