<svg width="24" height="24" viewBox="0 0 24 24" fill="none" xmlns="http://www.w3.org/2000/svg">
<g clip-path="url(#clip0_3181_26160)">
<rect width="24" height="24" fill="white"/>
<path d="M12.0005 16.6C11.1338 16.6 10.3422 16.4 9.62549 16C8.92549 15.5833 8.36716 15.025 7.95049 14.325C7.55049 13.625 7.35049 12.85 7.35049 12C7.35049 11.15 7.55049 10.375 7.95049 9.675C8.36716 8.95833 8.92549 8.4 9.62549 8C10.3422 7.58333 11.1338 7.375 12.0005 7.375C12.8672 7.375 13.6505 7.58333 14.3505 8C15.0505 8.4 15.6088 8.95833 16.0255 9.675C16.4422 10.375 16.6505 11.15 16.6505 12C16.6505 12.85 16.4422 13.625 16.0255 14.325C15.6088 15.025 15.0505 15.5833 14.3505 16C13.6505 16.4 12.8672 16.6 12.0005 16.6ZM2.00049 11.55H5.85049V12.475H2.00049V11.55ZM2.00049 16.1H22.0005V17H2.00049V16.1ZM4.62549 5.3L5.27549 4.625L8.00049 7.35L7.32549 8L4.62549 5.3ZM12.0005 15.725C12.6838 15.725 13.3088 15.5667 13.8755 15.25C14.4422 14.9167 14.8838 14.4667 15.2005 13.9C15.5338 13.3333 15.7005 12.7 15.7005 12C15.7005 11.3167 15.5338 10.6917 15.2005 10.125C14.8838 9.55833 14.4422 9.10833 13.8755 8.775C13.3088 8.44167 12.6838 8.275 12.0005 8.275C11.3172 8.275 10.6922 8.44167 10.1255 8.775C9.55882 9.10833 9.10882 9.55833 8.77549 10.125C8.44216 10.6917 8.27549 11.3167 8.27549 12C8.27549 12.7 8.44216 13.3333 8.77549 13.9C9.10882 14.4667 9.55882 14.9167 10.1255 15.25C10.6922 15.5667 11.3172 15.725 12.0005 15.725ZM11.5255 2H12.4755V5.85H11.5255V2ZM18.1505 11.55H22.0005V12.475H18.1505V11.55ZM16.0005 7.35L18.7255 4.625L19.3755 5.3L16.6755 8L16.0005 7.35ZM8.82549 21.625L12.0755 18.375L15.3255 21.625L14.6505 22.325L12.0755 19.65L9.50049 22.325L8.82549 21.625Z" fill="black"/>
</g>
<defs>
<clipPath id="clip0_3181_26160">
<rect width="24" height="24" fill="white"/>
</clipPath>
</defs>
</svg>
