<svg width="24" height="24" viewBox="0 0 24 24" fill="none" xmlns="http://www.w3.org/2000/svg">
<g clip-path="url(#clip0_3180_17665)">
<rect width="24" height="24" fill="white"/>
<path d="M12.0005 16.175C11.1838 16.175 10.4338 15.9833 9.75049 15.6C9.08382 15.2 8.55049 14.6667 8.15049 14C7.76716 13.3333 7.57549 12.6083 7.57549 11.825C7.57549 11.0417 7.76716 10.3167 8.15049 9.65C8.55049 8.96667 9.08382 8.43333 9.75049 8.05C10.4338 7.66667 11.1838 7.475 12.0005 7.475C12.8172 7.475 13.5588 7.66667 14.2255 8.05C14.9088 8.43333 15.4422 8.96667 15.8255 9.65C16.2255 10.3167 16.4255 11.0417 16.4255 11.825C16.4255 12.6083 16.2255 13.3333 15.8255 14C15.4422 14.6667 14.9088 15.2 14.2255 15.6C13.5588 15.9833 12.8172 16.175 12.0005 16.175ZM2.17549 10.675H6.05049V13H2.17549V10.675ZM2.00049 15.025H22.0005V17.275H2.00049V15.025ZM4.22549 5.7L5.87549 4.05L8.65049 6.825L7.00049 8.475L4.22549 5.7ZM12.0005 14.15C12.4338 14.15 12.8255 14.05 13.1755 13.85C13.5255 13.6333 13.8005 13.35 14.0005 13C14.2005 12.65 14.3005 12.2583 14.3005 11.825C14.3005 11.3917 14.2005 11 14.0005 10.65C13.8005 10.3 13.5255 10.025 13.1755 9.825C12.8255 9.625 12.4338 9.525 12.0005 9.525C11.5672 9.525 11.1755 9.625 10.8255 9.825C10.4755 10.025 10.2005 10.3 10.0005 10.65C9.80049 11 9.70049 11.3917 9.70049 11.825C9.70049 12.2583 9.80049 12.65 10.0005 13C10.2005 13.35 10.4755 13.6333 10.8255 13.85C11.1755 14.05 11.5672 14.15 12.0005 14.15ZM10.8005 2H13.2005V5.9H10.8005V2ZM17.9505 10.675H21.8255V13H17.9505V10.675ZM15.3505 6.825L18.1255 4.05L19.7755 5.7L17.0005 8.475L15.3505 6.825ZM12.0755 18.525L15.6505 21.825H14.3005H12.1005H9.95049H8.50049L12.0755 18.525Z" fill="black"/>
</g>
<defs>
<clipPath id="clip0_3180_17665">
<rect width="24" height="24" fill="white"/>
</clipPath>
</defs>
</svg>
