<svg width="24" height="24" viewBox="0 0 24 24" fill="none" xmlns="http://www.w3.org/2000/svg">
<g clip-path="url(#clip0_3180_17383)">
<rect width="24" height="24" fill="white"/>
<path d="M12.0005 22.325C10.3672 22.325 8.90049 21.9667 7.60049 21.25C6.31716 20.55 5.30882 19.575 4.57549 18.325C3.85882 17.0583 3.50049 15.6167 3.50049 14C3.50049 12.5 3.89216 10.9667 4.67549 9.4C5.45882 7.81667 6.49216 6.23333 7.77549 4.65L10.9255 8.325L9.90049 8.3L13.0005 0.799999C15.5005 2.85 17.3755 4.89167 18.6255 6.925C19.8755 8.95833 20.5005 11.1583 20.5005 13.525C20.5005 15.225 20.1338 16.7417 19.4005 18.075C18.6838 19.4083 17.6755 20.45 16.3755 21.2C15.0922 21.95 13.6338 22.325 12.0005 22.325ZM11.9755 18.875C12.9422 18.875 13.8088 18.65 14.5755 18.2C15.3422 17.75 15.9338 17.125 16.3505 16.325C16.7838 15.5083 17.0005 14.575 17.0005 13.525C17.0005 11.9417 16.6255 10.4833 15.8755 9.15C15.1422 7.81667 14.0755 6.45 12.6755 5.05L14.9755 4.45L11.2255 13.45L6.50049 7.95L9.72549 7.725C9.64216 7.85833 9.57549 7.95833 9.52549 8.025C9.49216 8.075 9.43382 8.16667 9.35049 8.3C8.76716 9.23333 8.32549 9.96667 8.02549 10.5C7.72549 11.0333 7.47549 11.5917 7.27549 12.175C7.09216 12.7583 7.00049 13.3667 7.00049 14C7.00049 14.9667 7.20882 15.8167 7.62549 16.55C8.05882 17.2833 8.65049 17.8583 9.40049 18.275C10.1505 18.675 11.0088 18.875 11.9755 18.875Z" fill="black"/>
</g>
<defs>
<clipPath id="clip0_3180_17383">
<rect width="24" height="24" fill="white"/>
</clipPath>
</defs>
</svg>
