<svg width="24" height="24" viewBox="0 0 24 24" fill="none" xmlns="http://www.w3.org/2000/svg">
<g clip-path="url(#clip0_3180_17375)">
<rect width="24" height="24" fill="white"/>
<path d="M12.0005 22.325C10.3838 22.325 8.92549 21.9667 7.62549 21.25C6.34216 20.55 5.33382 19.5667 4.60049 18.3C3.86716 17.0333 3.50049 15.5833 3.50049 13.95C3.50049 12.4 3.85882 10.8167 4.57549 9.2C5.30882 7.56667 6.26716 6.05 7.45049 4.65L11.1255 10.925L9.85049 10.825L13.1255 0.799999C15.5088 2.71667 17.3338 4.74167 18.6005 6.875C19.8672 8.99167 20.5005 11.1917 20.5005 13.475C20.5005 15.1917 20.1338 16.725 19.4005 18.075C18.6672 19.4083 17.6505 20.45 16.3505 21.2C15.0505 21.95 13.6005 22.325 12.0005 22.325ZM12.0005 20.925C13.3505 20.925 14.5588 20.6167 15.6255 20C16.7088 19.3667 17.5505 18.4833 18.1505 17.35C18.7672 16.2167 19.0755 14.925 19.0755 13.475C19.0755 11.525 18.5422 9.625 17.4755 7.775C16.4088 5.90833 14.9005 4.13333 12.9505 2.45L14.1505 2.05L10.6505 12.825L6.72549 6.075L8.05049 6.1C7.96716 6.21667 7.89216 6.325 7.82549 6.425C7.75882 6.50833 7.68382 6.60833 7.60049 6.725C7.05049 7.525 6.57549 8.325 6.17549 9.125C5.77549 9.925 5.46716 10.7333 5.25049 11.55C5.03382 12.3667 4.92549 13.1667 4.92549 13.95C4.92549 15.3167 5.22549 16.5333 5.82549 17.6C6.44216 18.65 7.28382 19.4667 8.35049 20.05C9.43382 20.6333 10.6505 20.925 12.0005 20.925Z" fill="black"/>
</g>
<defs>
<clipPath id="clip0_3180_17375">
<rect width="24" height="24" fill="white"/>
</clipPath>
</defs>
</svg>
