<svg width="24" height="24" viewBox="0 0 24 24" fill="none" xmlns="http://www.w3.org/2000/svg">
<g clip-path="url(#clip0_3181_25878)">
<rect width="24" height="24" fill="white"/>
<path d="M12.0005 22.325C10.4005 22.325 8.95049 21.9667 7.65049 21.25C6.36716 20.55 5.35049 19.5667 4.60049 18.3C3.86716 17.0167 3.50049 15.5583 3.50049 13.925C3.50049 12.4083 3.85882 10.8333 4.57549 9.2C5.30882 7.56667 6.26716 6.05 7.45049 4.65L11.4255 10.275L9.67549 10.175L13.1255 0.799999C15.4922 2.71667 17.3088 4.74167 18.5755 6.875C19.8588 9.00833 20.5005 11.2 20.5005 13.45C20.5005 15.1667 20.1255 16.7 19.3755 18.05C18.6422 19.4 17.6255 20.45 16.3255 21.2C15.0255 21.95 13.5838 22.325 12.0005 22.325ZM12.0005 20.475C13.2505 20.475 14.3755 20.1833 15.3755 19.6C16.3755 19 17.1588 18.1667 17.7255 17.1C18.3088 16.0333 18.6005 14.8167 18.6005 13.45C18.6005 11.65 18.0922 9.85833 17.0755 8.075C16.0755 6.275 14.6672 4.56667 12.8505 2.95L14.5005 2.4L10.7755 12.625L6.50049 6.5H8.32549C7.67549 7.4 7.13382 8.26667 6.70049 9.1C6.26716 9.93333 5.94216 10.75 5.72549 11.55C5.50882 12.35 5.40049 13.1417 5.40049 13.925C5.40049 15.2083 5.68382 16.35 6.25049 17.35C6.83382 18.3333 7.62549 19.1 8.62549 19.65C9.62549 20.2 10.7505 20.475 12.0005 20.475Z" fill="black"/>
</g>
<defs>
<clipPath id="clip0_3181_25878">
<rect width="24" height="24" fill="white"/>
</clipPath>
</defs>
</svg>
