<svg width="24" height="24" viewBox="0 0 24 24" fill="none" xmlns="http://www.w3.org/2000/svg">
<g clip-path="url(#clip0_3179_16322)">
<rect width="24" height="24" fill="white"/>
<path d="M13.4255 19.675L16.0005 17.1L18.5755 19.675L16.0005 22.25L13.4255 19.675ZM17.9255 19.675L16.0005 17.75L14.0755 19.675L16.0005 21.6L17.9255 19.675ZM5.42549 19.675L8.00049 17.1L10.5755 19.675L8.00049 22.25L5.42549 19.675ZM9.92549 19.675L8.00049 17.75L6.07549 19.675L8.00049 21.6L9.92549 19.675ZM5.77549 16C5.00882 16 4.30049 15.8167 3.65049 15.45C3.01716 15.0833 2.50882 14.5833 2.12549 13.95C1.75882 13.3 1.57549 12.5917 1.57549 11.825C1.57549 11.0583 1.75882 10.3583 2.12549 9.725C2.50882 9.075 3.01716 8.56667 3.65049 8.2C4.30049 7.81667 5.00882 7.625 5.77549 7.625H7.85049L7.40049 7.975C7.40049 7.15833 7.60049 6.40833 8.00049 5.725C8.41716 5.025 8.97549 4.475 9.67549 4.075C10.3755 3.675 11.1505 3.475 12.0005 3.475C12.8505 3.475 13.6255 3.675 14.3255 4.075C15.0255 4.475 15.5755 5.025 15.9755 5.725C16.3922 6.40833 16.6005 7.15833 16.6005 7.975L16.2005 7.625H18.2255C18.9922 7.625 19.6922 7.81667 20.3255 8.2C20.9755 8.56667 21.4838 9.075 21.8505 9.725C22.2338 10.3583 22.4255 11.0583 22.4255 11.825C22.4255 12.5917 22.2338 13.3 21.8505 13.95C21.4838 14.5833 20.9755 15.0833 20.3255 15.45C19.6922 15.8167 18.9922 16 18.2255 16H5.77549ZM18.2255 15.525C18.9088 15.525 19.5338 15.3667 20.1005 15.05C20.6672 14.7167 21.1088 14.2667 21.4255 13.7C21.7588 13.1333 21.9255 12.5083 21.9255 11.825C21.9255 11.1417 21.7588 10.5167 21.4255 9.95C21.1088 9.38333 20.6672 8.93333 20.1005 8.6C19.5338 8.26667 18.9088 8.1 18.2255 8.1H16.1255V8.05C16.1255 7.3 15.9422 6.61667 15.5755 6C15.2088 5.36667 14.7088 4.86667 14.0755 4.5C13.4422 4.13333 12.7505 3.95 12.0005 3.95C11.2505 3.95 10.5588 4.13333 9.92549 4.5C9.29216 4.86667 8.79216 5.36667 8.42549 6C8.05882 6.61667 7.87549 7.3 7.87549 8.05V8.1H5.77549C5.09216 8.1 4.46716 8.26667 3.90049 8.6C3.33382 8.93333 2.88382 9.38333 2.55049 9.95C2.23382 10.5167 2.07549 11.1417 2.07549 11.825C2.07549 12.5083 2.23382 13.1333 2.55049 13.7C2.88382 14.2667 3.33382 14.7167 3.90049 15.05C4.46716 15.3667 5.09216 15.525 5.77549 15.525H18.2255Z" fill="black"/>
</g>
<defs>
<clipPath id="clip0_3179_16322">
<rect width="24" height="24" fill="white"/>
</clipPath>
</defs>
</svg>
