<svg width="24" height="24" viewBox="0 0 24 24" fill="none" xmlns="http://www.w3.org/2000/svg">
<g clip-path="url(#clip0_3384_8005)">
<rect width="24" height="24" fill="white"/>
<path d="M9.90049 19.15L12.0005 17.05L14.1005 19.15L12.0005 21.25L9.90049 19.15ZM12.0755 19.125H12.0255L11.9255 19.175H11.9755L12.0755 19.125ZM16.2255 19.15L18.3255 17.05L20.4255 19.15L18.3255 21.25L16.2255 19.15ZM18.4005 19.125H18.3505L18.2505 19.175H18.3005L18.4005 19.125ZM3.57549 19.15L5.67549 17.05L7.77549 19.15L5.67549 21.25L3.57549 19.15ZM5.75049 19.125H5.70049L5.60049 19.175H5.65049L5.75049 19.125ZM6.40049 15C5.51716 15 4.70049 14.7917 3.95049 14.375C3.21716 13.9417 2.63382 13.3583 2.20049 12.625C1.78382 11.8917 1.57549 11.0833 1.57549 10.2C1.57549 9.31667 1.78382 8.50833 2.20049 7.775C2.63382 7.04167 3.21716 6.46667 3.95049 6.05C4.70049 5.61667 5.51716 5.4 6.40049 5.4H8.77549L6.87549 7.35C6.87549 6.48333 7.10049 5.675 7.55049 4.925C8.01716 4.175 8.64216 3.58333 9.42549 3.15C10.2088 2.7 11.0672 2.475 12.0005 2.475C12.9338 2.475 13.7922 2.7 14.5755 3.15C15.3588 3.58333 15.9755 4.175 16.4255 4.925C16.8922 5.675 17.1255 6.48333 17.1255 7.35L15.5505 5.4H17.5755C18.4755 5.4 19.2922 5.61667 20.0255 6.05C20.7755 6.46667 21.3588 7.04167 21.7755 7.775C22.2088 8.50833 22.4255 9.31667 22.4255 10.2C22.4255 11.0833 22.2088 11.8917 21.7755 12.625C21.3588 13.3583 20.7755 13.9417 20.0255 14.375C19.2922 14.7917 18.4755 15 17.5755 15H6.40049ZM17.5755 12.625C18.0255 12.625 18.4338 12.5167 18.8005 12.3C19.1672 12.0833 19.4588 11.7917 19.6755 11.425C19.8922 11.0417 20.0005 10.6333 20.0005 10.2C20.0005 9.76667 19.8922 9.36667 19.6755 9C19.4588 8.61667 19.1672 8.325 18.8005 8.125C18.4338 7.90833 18.0255 7.8 17.5755 7.8H14.7005V7.6C14.7005 7.1 14.5755 6.64167 14.3255 6.225C14.0922 5.79167 13.7672 5.45833 13.3505 5.225C12.9505 4.975 12.5005 4.85 12.0005 4.85C11.5005 4.85 11.0422 4.975 10.6255 5.225C10.2255 5.45833 9.90049 5.79167 9.65049 6.225C9.41716 6.64167 9.30049 7.1 9.30049 7.6V7.8H6.40049C5.96716 7.8 5.56716 7.90833 5.20049 8.125C4.83382 8.325 4.54216 8.61667 4.32549 9C4.10882 9.36667 4.00049 9.76667 4.00049 10.2C4.00049 10.65 4.10882 11.0583 4.32549 11.425C4.54216 11.7917 4.83382 12.0833 5.20049 12.3C5.56716 12.5167 5.96716 12.625 6.40049 12.625H17.5755Z" fill="black"/>
</g>
<defs>
<clipPath id="clip0_3384_8005">
<rect width="24" height="24" fill="white"/>
</clipPath>
</defs>
</svg>
