<svg width="24" height="24" viewBox="0 0 24 24" fill="none" xmlns="http://www.w3.org/2000/svg">
<g clip-path="url(#clip0_3180_17611)">
<rect width="24" height="24" fill="white"/>
<path d="M6.82549 21C6.04216 21 5.31716 20.8083 4.65049 20.425C3.98382 20.025 3.45882 19.4917 3.07549 18.825C2.69216 18.1583 2.50049 17.425 2.50049 16.625C2.50049 15.825 2.69216 15.1 3.07549 14.45C3.45882 13.7833 3.98382 13.2583 4.65049 12.875C5.31716 12.4917 6.04216 12.3 6.82549 12.3H11.2255L9.60049 13.675C9.76716 12.7417 10.1338 11.9 10.7005 11.15C11.2672 10.4 11.9755 9.81667 12.8255 9.4C13.6922 8.96667 14.6255 8.75 15.6255 8.75C16.7422 8.75 17.7672 9.025 18.7005 9.575C19.6505 10.1083 20.3922 10.85 20.9255 11.8C21.4755 12.7333 21.7505 13.7667 21.7505 14.9C21.7505 16.0167 21.4755 17.0417 20.9255 17.975C20.3922 18.9083 19.6505 19.65 18.7005 20.2C17.7672 20.7333 16.7422 21 15.6255 21H6.82549ZM15.6255 19.2C16.4088 19.2 17.1255 19.0083 17.7755 18.625C18.4422 18.2417 18.9588 17.725 19.3255 17.075C19.7088 16.4083 19.9005 15.6833 19.9005 14.9C19.9005 14.1 19.7088 13.3667 19.3255 12.7C18.9588 12.0333 18.4422 11.5083 17.7755 11.125C17.1255 10.7417 16.4088 10.55 15.6255 10.55C14.5922 10.55 13.6588 10.8917 12.8255 11.575C11.9922 12.2583 11.4838 13.1 11.3005 14.1H6.82549C6.37549 14.1 5.95882 14.2167 5.57549 14.45C5.19216 14.6667 4.89216 14.9667 4.67549 15.35C4.45882 15.7333 4.35049 16.1583 4.35049 16.625C4.35049 17.1083 4.45882 17.55 4.67549 17.95C4.89216 18.3333 5.19216 18.6417 5.57549 18.875C5.95882 19.0917 6.37549 19.2 6.82549 19.2H15.6255ZM11.5255 1.8V4.55H9.77549V1.8H11.5255ZM10.6505 14.025C9.91716 14.025 9.24216 13.85 8.62549 13.5C8.00882 13.1333 7.51716 12.6417 7.15049 12.025C6.80049 11.4083 6.62549 10.7333 6.62549 10C6.62549 9.28333 6.80049 8.625 7.15049 8.025C7.51716 7.40833 8.00882 6.925 8.62549 6.575C9.24216 6.225 9.91716 6.05 10.6505 6.05C11.3838 6.05 12.0588 6.225 12.6755 6.575C13.2922 6.925 13.7755 7.40833 14.1255 8.025C14.4922 8.625 14.6755 9.29167 14.6755 10.025H12.9005C12.9005 9.60833 12.8005 9.23333 12.6005 8.9C12.4005 8.55 12.1255 8.275 11.7755 8.075C11.4422 7.875 11.0672 7.775 10.6505 7.775C10.2338 7.775 9.85049 7.875 9.50049 8.075C9.16716 8.275 8.90049 8.55 8.70049 8.9C8.50049 9.23333 8.40049 9.60833 8.40049 10.025C8.40049 10.4417 8.50049 10.825 8.70049 11.175C8.90049 11.525 9.16716 11.8 9.50049 12C9.85049 12.2 10.2338 12.3 10.6505 12.3V14.025ZM5.47549 3.575L7.40049 5.5L6.15049 6.75L4.22549 4.825L5.47549 3.575ZM2.45049 9.125H5.20049V10.875H2.45049V9.125ZM13.9005 5.5L15.8255 3.575L17.0755 4.825L15.1505 6.75L13.9005 5.5Z" fill="black"/>
</g>
<defs>
<clipPath id="clip0_3180_17611">
<rect width="24" height="24" fill="white"/>
</clipPath>
</defs>
</svg>
