<svg width="24" height="24" viewBox="0 0 24 24" fill="none" xmlns="http://www.w3.org/2000/svg">
<g clip-path="url(#clip0_3179_16306)">
<rect width="24" height="24" fill="white"/>
<path d="M6.40049 21C5.68382 21 5.02549 20.825 4.42549 20.475C3.84216 20.125 3.37549 19.6583 3.02549 19.075C2.67549 18.475 2.50049 17.8167 2.50049 17.1C2.50049 16.45 2.67549 15.85 3.02549 15.3C3.37549 14.75 3.84216 14.3167 4.42549 14C5.02549 13.6833 5.68382 13.525 6.40049 13.525H10.5005L10.4505 13.675C10.6172 13.025 10.9422 12.3833 11.4255 11.75C11.9088 11.1 12.5422 10.5667 13.3255 10.15C14.1088 9.71667 15.0005 9.5 16.0005 9.5C17.0672 9.5 18.0338 9.75833 18.9005 10.275C19.7838 10.775 20.4755 11.4667 20.9755 12.35C21.4922 13.2167 21.7505 14.1833 21.7505 15.25C21.7505 16.3167 21.4922 17.2917 20.9755 18.175C20.4755 19.0417 19.7838 19.7333 18.9005 20.25C18.0338 20.75 17.0672 21 16.0005 21H6.40049ZM16.0005 20.525C16.9672 20.525 17.8505 20.2917 18.6505 19.825C19.4505 19.3583 20.0838 18.725 20.5505 17.925C21.0172 17.1083 21.2505 16.2167 21.2505 15.25C21.2505 14.2833 21.0172 13.4 20.5505 12.6C20.0838 11.7833 19.4505 11.1417 18.6505 10.675C17.8505 10.2083 16.9672 9.975 16.0005 9.975C14.7505 9.975 13.6505 10.3583 12.7005 11.125C11.7672 11.875 11.1672 12.8333 10.9005 14H6.40049C5.78382 14 5.20882 14.1417 4.67549 14.425C4.15882 14.6917 3.75049 15.0667 3.45049 15.55C3.15049 16.0167 3.00049 16.5333 3.00049 17.1C3.00049 17.7167 3.15049 18.2917 3.45049 18.825C3.75049 19.3417 4.15882 19.7583 4.67549 20.075C5.20882 20.375 5.78382 20.525 6.40049 20.525H16.0005ZM10.9005 1.8V4.55H10.4005V1.8H10.9005ZM10.6505 13.95C9.91716 13.95 9.24216 13.775 8.62549 13.425C8.00882 13.075 7.51716 12.6 7.15049 12C6.80049 11.3833 6.62549 10.7083 6.62549 9.975C6.62549 9.25833 6.80049 8.6 7.15049 8C7.51716 7.38333 8.00882 6.9 8.62549 6.55C9.24216 6.2 9.91716 6.025 10.6505 6.025C11.3838 6.025 12.0588 6.20833 12.6755 6.575C13.2922 6.925 13.7755 7.40833 14.1255 8.025C14.4922 8.64167 14.6755 9.325 14.6755 10.075H14.1755C14.1755 9.40833 14.0172 8.80833 13.7005 8.275C13.4005 7.725 12.9755 7.29167 12.4255 6.975C11.8922 6.65833 11.3005 6.5 10.6505 6.5C10.0005 6.5 9.40049 6.65833 8.85049 6.975C8.31716 7.275 7.89216 7.7 7.57549 8.25C7.27549 8.78333 7.12549 9.36667 7.12549 10C7.12549 10.65 7.27549 11.25 7.57549 11.8C7.89216 12.3333 8.31716 12.7583 8.85049 13.075C9.40049 13.375 10.0005 13.525 10.6505 13.525V13.95ZM5.02549 4L6.95049 5.925L6.60049 6.275L4.67549 4.35L5.02549 4ZM2.45049 9.725H5.20049V10.2H2.45049V9.725ZM14.3505 5.925L16.2755 4L16.6255 4.35L14.7005 6.275L14.3505 5.925Z" fill="black"/>
</g>
<defs>
<clipPath id="clip0_3179_16306">
<rect width="24" height="24" fill="white"/>
</clipPath>
</defs>
</svg>
