<svg width="24" height="24" viewBox="0 0 24 24" fill="none" xmlns="http://www.w3.org/2000/svg">
<g clip-path="url(#clip0_3181_26118)">
<rect width="24" height="24" fill="white"/>
<path d="M7.10049 21C6.25049 21 5.47549 20.8 4.77549 20.4C4.07549 19.9833 3.51716 19.425 3.10049 18.725C2.70049 18.025 2.50049 17.2583 2.50049 16.425C2.50049 15.5917 2.70049 14.825 3.10049 14.125C3.51716 13.425 4.07549 12.875 4.77549 12.475C5.47549 12.075 6.25049 11.875 7.10049 11.875H11.5005L9.50049 13.675C9.65049 12.8083 10.0172 12.0167 10.6005 11.3C11.2005 10.5833 11.9338 10.0167 12.8005 9.6C13.6838 9.18333 14.6172 8.975 15.6005 8.975C16.7338 8.975 17.7672 9.24167 18.7005 9.775C19.6505 10.3083 20.3922 11.0333 20.9255 11.95C21.4755 12.8667 21.7505 13.875 21.7505 14.975C21.7505 16.075 21.4755 17.0917 20.9255 18.025C20.3922 18.9417 19.6505 19.6667 18.7005 20.2C17.7672 20.7333 16.7338 21 15.6005 21H7.10049ZM15.6005 17.6C16.1005 17.6 16.5505 17.4833 16.9505 17.25C17.3672 17.0167 17.6922 16.7 17.9255 16.3C18.1755 15.9 18.3005 15.4583 18.3005 14.975C18.3005 14.4917 18.1755 14.0583 17.9255 13.675C17.6922 13.275 17.3672 12.9583 16.9505 12.725C16.5505 12.4917 16.1005 12.375 15.6005 12.375C14.8505 12.375 14.2005 12.6583 13.6505 13.225C13.1172 13.775 12.8338 14.45 12.8005 15.25H7.10049C6.88382 15.25 6.68382 15.3083 6.50049 15.425C6.33382 15.525 6.20049 15.6667 6.10049 15.85C6.00049 16.0167 5.95049 16.2083 5.95049 16.425C5.95049 16.6417 6.00049 16.8417 6.10049 17.025C6.20049 17.1917 6.33382 17.3333 6.50049 17.45C6.68382 17.55 6.88382 17.6 7.10049 17.6H15.6005ZM12.4255 1.8V4.775H8.87549V1.8H12.4255ZM10.6505 13.85C9.86716 13.85 9.15049 13.6833 8.50049 13.35C7.85049 13 7.33382 12.5333 6.95049 11.95C6.58382 11.35 6.40049 10.7 6.40049 10C6.40049 9.23333 6.58382 8.53333 6.95049 7.9C7.33382 7.25 7.85049 6.74167 8.50049 6.375C9.15049 5.99167 9.86716 5.8 10.6505 5.8C11.4338 5.8 12.1505 5.99167 12.8005 6.375C13.4505 6.74167 13.9588 7.25833 14.3255 7.925C14.7088 8.575 14.9005 9.3 14.9005 10.1H12.0005C12.0005 9.83333 11.9422 9.59167 11.8255 9.375C11.7088 9.14167 11.5422 8.96667 11.3255 8.85C11.1255 8.71667 10.9005 8.65 10.6505 8.65C10.4005 8.65 10.1672 8.71667 9.95049 8.85C9.75049 8.96667 9.59216 9.13333 9.47549 9.35C9.35882 9.55 9.30049 9.775 9.30049 10.025C9.30049 10.275 9.35882 10.5 9.47549 10.7C9.59216 10.9 9.75049 11.0583 9.95049 11.175C10.1672 11.2917 10.4005 11.35 10.6505 11.35V13.85ZM6.10049 2.95L8.20049 5.05L5.70049 7.55L3.60049 5.45L6.10049 2.95ZM2.45049 8.2H5.42549V11.7H2.45049V8.2ZM13.1005 5.05L15.2005 2.95L17.7005 5.45L15.6005 7.55L13.1005 5.05Z" fill="black"/>
</g>
<defs>
<clipPath id="clip0_3181_26118">
<rect width="24" height="24" fill="white"/>
</clipPath>
</defs>
</svg>
