<svg width="24" height="24" viewBox="0 0 24 24" fill="none" xmlns="http://www.w3.org/2000/svg">
<g clip-path="url(#clip0_3181_26116)">
<rect width="24" height="24" fill="white"/>
<path d="M7.00049 21C6.18382 21 5.42549 20.8 4.72549 20.4C4.04216 20 3.50049 19.4583 3.10049 18.775C2.70049 18.075 2.50049 17.3167 2.50049 16.5C2.50049 15.6667 2.70049 14.9083 3.10049 14.225C3.50049 13.5417 4.04216 13.0083 4.72549 12.625C5.42549 12.225 6.18382 12.025 7.00049 12.025H11.4005L9.52549 13.675C9.69216 12.7917 10.0672 11.9833 10.6505 11.25C11.2338 10.5167 11.9588 9.94167 12.8255 9.525C13.6922 9.10833 14.6172 8.9 15.6005 8.9C16.7338 8.9 17.7672 9.16667 18.7005 9.7C19.6505 10.2333 20.3922 10.9667 20.9255 11.9C21.4755 12.8167 21.7505 13.8333 21.7505 14.95C21.7505 16.05 21.4755 17.0667 20.9255 18C20.3922 18.9167 19.6505 19.65 18.7005 20.2C17.7672 20.7333 16.7338 21 15.6005 21H7.00049ZM15.6005 18.175C16.2172 18.175 16.7755 18.0333 17.2755 17.75C17.7755 17.45 18.1672 17.0583 18.4505 16.575C18.7338 16.0917 18.8755 15.55 18.8755 14.95C18.8755 14.3667 18.7255 13.825 18.4255 13.325C18.1422 12.825 17.7505 12.4333 17.2505 12.15C16.7505 11.8667 16.2005 11.725 15.6005 11.725C14.7505 11.725 14.0005 12.025 13.3505 12.625C12.7172 13.225 12.3588 13.9583 12.2755 14.825H7.00049C6.71716 14.825 6.45049 14.9 6.20049 15.05C5.95049 15.2 5.75049 15.4083 5.60049 15.675C5.45049 15.925 5.37549 16.2 5.37549 16.5C5.37549 16.8 5.44216 17.0833 5.57549 17.35C5.72549 17.6 5.92549 17.8 6.17549 17.95C6.44216 18.1 6.71716 18.175 7.00049 18.175H15.6005ZM12.1255 1.8V4.7H9.17549V1.8H12.1255ZM10.6505 13.9C9.88382 13.9 9.17549 13.7333 8.52549 13.4C7.89216 13.05 7.39216 12.575 7.02549 11.975C6.65882 11.375 6.47549 10.7167 6.47549 10C6.47549 9.25 6.65882 8.55833 7.02549 7.925C7.39216 7.29167 7.89216 6.79167 8.52549 6.425C9.17549 6.05833 9.88382 5.875 10.6505 5.875C11.4172 5.875 12.1172 6.06667 12.7505 6.45C13.4005 6.81667 13.9088 7.325 14.2755 7.975C14.6422 8.60833 14.8255 9.30833 14.8255 10.075H12.3005C12.3005 9.75833 12.2255 9.46667 12.0755 9.2C11.9422 8.93333 11.7422 8.725 11.4755 8.575C11.2255 8.425 10.9505 8.35 10.6505 8.35C10.3505 8.35 10.0755 8.425 9.82549 8.575C9.57549 8.725 9.37549 8.93333 9.22549 9.2C9.07549 9.45 9.00049 9.725 9.00049 10.025C9.00049 10.325 9.07549 10.6 9.22549 10.85C9.37549 11.1 9.57549 11.3 9.82549 11.45C10.0755 11.6 10.3505 11.675 10.6505 11.675V13.9ZM5.90049 3.15L7.92549 5.2L5.85049 7.275L3.80049 5.25L5.90049 3.15ZM2.45049 8.5H5.35049V11.425H2.45049V8.5ZM13.3755 5.2L15.4005 3.15L17.5005 5.25L15.4505 7.275L13.3755 5.2Z" fill="black"/>
</g>
<defs>
<clipPath id="clip0_3181_26116">
<rect width="24" height="24" fill="white"/>
</clipPath>
</defs>
</svg>
