<svg width="24" height="24" viewBox="0 0 24 24" fill="none" xmlns="http://www.w3.org/2000/svg">
<g clip-path="url(#clip0_3180_17631)">
<rect width="24" height="24" fill="white"/>
<path d="M12.2 1.8V4.55H9.1V1.8H12.2ZM5.95 3.1L7.875 5.025L5.7 7.2L3.775 5.275L5.95 3.1ZM2.45 8.45H5.2V11.55H2.45V8.45ZM13.425 5.025L15.35 3.1L17.525 5.275L15.6 7.2L13.425 5.025ZM6.3 21C5.6 21 4.95833 20.8333 4.375 20.5C3.79167 20.1667 3.33333 19.7167 3 19.15C2.66667 18.5667 2.5 17.9333 2.5 17.25C2.5 16.5667 2.66667 15.9417 3 15.375C3.33333 14.8083 3.79167 14.3583 4.375 14.025C4.95833 13.6917 5.6 13.525 6.3 13.525H11.7L11 15.625C11 14.6417 11.2333 13.7417 11.7 12.925C12.1833 12.0917 12.8333 11.4417 13.65 10.975C14.4833 10.4917 15.3917 10.25 16.375 10.25C17.3583 10.25 18.2583 10.4917 19.075 10.975C19.9083 11.4417 20.5583 12.0917 21.025 12.925C21.5083 13.7417 21.75 14.6417 21.75 15.625C21.75 16.6083 21.5083 17.5167 21.025 18.35C20.5583 19.1667 19.9083 19.8167 19.075 20.3C18.2583 20.7667 17.3583 21 16.375 21H6.3ZM10.15 11.525C10.6333 10.825 11.2083 10.2167 11.875 9.7C12.5583 9.16667 13.375 8.75833 14.325 8.475C14.125 7.99167 13.8417 7.56667 13.475 7.2C13.1083 6.81667 12.6833 6.525 12.2 6.325C11.7167 6.125 11.2 6.025 10.65 6.025C9.91667 6.025 9.24167 6.2 8.625 6.55C8.00833 6.9 7.51667 7.38333 7.15 8C6.8 8.6 6.625 9.26667 6.625 10C6.625 10.5333 6.725 11.0417 6.925 11.525H10.15Z" fill="black"/>
</g>
<defs>
<clipPath id="clip0_3180_17631">
<rect width="24" height="24" fill="white"/>
</clipPath>
</defs>
</svg>
