<svg width="24" height="24" viewBox="0 0 24 24" fill="none" xmlns="http://www.w3.org/2000/svg">
<g clip-path="url(#clip0_3179_16316)">
<rect width="24" height="24" fill="white"/>
<path d="M2.97549 22C2.97549 18.75 3.78382 15.75 5.40049 13C7.01716 10.2333 9.20049 8.04167 11.9505 6.425C14.7172 4.80833 17.7338 4 21.0005 4V4.475C17.8338 4.475 14.9088 5.26667 12.2255 6.85C9.54216 8.41667 7.40882 10.5417 5.82549 13.225C4.25882 15.9083 3.47549 18.8333 3.47549 22H2.97549ZM9.02549 22C9.02549 19.85 9.55882 17.8583 10.6255 16.025C11.7088 14.1917 13.1672 12.7417 15.0005 11.675C16.8338 10.5917 18.8338 10.05 21.0005 10.05V10.525C18.9338 10.525 17.0172 11.0417 15.2505 12.075C13.5005 13.1083 12.1088 14.5083 11.0755 16.275C10.0422 18.025 9.52549 19.9333 9.52549 22H9.02549ZM15.1005 22C15.1005 20.95 15.3672 19.975 15.9005 19.075C16.4338 18.175 17.1505 17.4583 18.0505 16.925C18.9505 16.3917 19.9338 16.125 21.0005 16.125V16.6C20.0172 16.6 19.1088 16.8417 18.2755 17.325C17.4588 17.8083 16.8088 18.4667 16.3255 19.3C15.8422 20.1167 15.6005 21.0167 15.6005 22H15.1005Z" fill="black"/>
</g>
<defs>
<clipPath id="clip0_3179_16316">
<rect width="24" height="24" fill="white"/>
</clipPath>
</defs>
</svg>
