<svg width="24" height="24" viewBox="0 0 24 24" fill="none" xmlns="http://www.w3.org/2000/svg">
<g clip-path="url(#clip0_3181_26244)">
<rect width="24" height="24" fill="white"/>
<path d="M2.95049 21C2.95049 17.75 3.75882 14.75 5.37549 12C6.99216 9.23333 9.17549 7.04167 11.9255 5.425C14.6922 3.80833 17.7172 3 21.0005 3V5.375C18.1672 5.375 15.5505 6.075 13.1505 7.475C10.7672 8.875 8.87549 10.775 7.47549 13.175C6.07549 15.5583 5.37549 18.1667 5.37549 21H2.95049ZM8.52549 21C8.52549 18.7667 9.08382 16.7 10.2005 14.8C11.3172 12.8833 12.8338 11.3667 14.7505 10.25C16.6672 9.13333 18.7505 8.575 21.0005 8.575V10.95C19.1838 10.95 17.5005 11.4 15.9505 12.3C14.4172 13.2 13.2005 14.425 12.3005 15.975C11.4005 17.5083 10.9505 19.1833 10.9505 21H8.52549ZM14.1005 21C14.1005 19.7667 14.4088 18.625 15.0255 17.575C15.6422 16.525 16.4755 15.6917 17.5255 15.075C18.5922 14.4583 19.7505 14.15 21.0005 14.15V16.525C20.2005 16.525 19.4588 16.7333 18.7755 17.15C18.0922 17.55 17.5422 18.0917 17.1255 18.775C16.7255 19.4583 16.5255 20.2 16.5255 21H14.1005Z" fill="black"/>
</g>
<defs>
<clipPath id="clip0_3181_26244">
<rect width="24" height="24" fill="white"/>
</clipPath>
</defs>
</svg>
