<svg width="24" height="24" viewBox="0 0 24 24" fill="none" xmlns="http://www.w3.org/2000/svg">
<g clip-path="url(#clip0_3180_17515)">
<rect width="24" height="24" fill="white"/>
<path d="M12.2505 17.025V21H11.7505V17.025H12.2505ZM18.1505 17.025V21H17.6505V17.025H18.1505ZM6.35049 17.025V21H5.85049V17.025H6.35049ZM5.77549 15.025C5.00882 15.025 4.30049 14.8417 3.65049 14.475C3.01716 14.0917 2.50882 13.5833 2.12549 12.95C1.75882 12.3 1.57549 11.5917 1.57549 10.825C1.57549 10.0583 1.75882 9.35833 2.12549 8.725C2.50882 8.075 3.01716 7.56667 3.65049 7.2C4.30049 6.81667 5.00882 6.625 5.77549 6.625H7.85049L7.40049 6.975C7.40049 6.15833 7.60049 5.40833 8.00049 4.725C8.41716 4.04167 8.97549 3.5 9.67549 3.1C10.3755 2.7 11.1505 2.5 12.0005 2.5C12.8505 2.5 13.6255 2.7 14.3255 3.1C15.0255 3.5 15.5755 4.04167 15.9755 4.725C16.3922 5.40833 16.6005 6.15833 16.6005 6.975L16.2005 6.625H18.2255C18.9922 6.625 19.6922 6.81667 20.3255 7.2C20.9755 7.56667 21.4838 8.075 21.8505 8.725C22.2338 9.35833 22.4255 10.0583 22.4255 10.825C22.4255 11.5917 22.2338 12.3 21.8505 12.95C21.4838 13.5833 20.9755 14.0917 20.3255 14.475C19.6922 14.8417 18.9922 15.025 18.2255 15.025H5.77549Z" fill="black"/>
</g>
<defs>
<clipPath id="clip0_3180_17515">
<rect width="24" height="24" fill="white"/>
</clipPath>
</defs>
</svg>
