<svg width="24" height="24" viewBox="0 0 24 24" fill="none" xmlns="http://www.w3.org/2000/svg">
<g clip-path="url(#clip0_3179_16316)">
<rect width="24" height="24" fill="white"/>
<path d="M2.97549 21C2.97549 17.75 3.78382 14.75 5.40049 12C7.01716 9.23333 9.20049 7.04167 11.9505 5.425C14.7172 3.80833 17.7338 3 21.0005 3V3.475C17.8338 3.475 14.9088 4.26667 12.2255 5.85C9.54216 7.41667 7.40882 9.54167 5.82549 12.225C4.25882 14.9083 3.47549 17.8333 3.47549 21H2.97549ZM9.02549 21C9.02549 18.85 9.55882 16.8583 10.6255 15.025C11.7088 13.1917 13.1672 11.7417 15.0005 10.675C16.8338 9.59167 18.8338 9.05 21.0005 9.05V9.525C18.9338 9.525 17.0172 10.0417 15.2505 11.075C13.5005 12.1083 12.1088 13.5083 11.0755 15.275C10.0422 17.025 9.52549 18.9333 9.52549 21H9.02549ZM15.1005 21C15.1005 19.95 15.3672 18.975 15.9005 18.075C16.4338 17.175 17.1505 16.4583 18.0505 15.925C18.9505 15.3917 19.9338 15.125 21.0005 15.125V15.6C20.0172 15.6 19.1088 15.8417 18.2755 16.325C17.4588 16.8083 16.8088 17.4667 16.3255 18.3C15.8422 19.1167 15.6005 20.0167 15.6005 21H15.1005Z" fill="black"/>
</g>
<defs>
<clipPath id="clip0_3179_16316">
<rect width="24" height="24" fill="white"/>
</clipPath>
</defs>
</svg>
