<svg width="24" height="24" viewBox="0 0 24 24" fill="none" xmlns="http://www.w3.org/2000/svg">
<g clip-path="url(#clip0_3179_16330)">
<rect width="24" height="24" fill="white"/>
<path d="M15.6505 17.025V21H15.1505V17.025H15.6505ZM8.85049 17.025V21H8.35049V17.025H8.85049ZM5.77549 15C5.00882 15 4.30049 14.8167 3.65049 14.45C3.01716 14.0833 2.50882 13.5833 2.12549 12.95C1.75882 12.3 1.57549 11.5917 1.57549 10.825C1.57549 10.0583 1.75882 9.35833 2.12549 8.725C2.50882 8.075 3.01716 7.56667 3.65049 7.2C4.30049 6.81667 5.00882 6.625 5.77549 6.625H7.85049L7.40049 6.975C7.40049 6.15833 7.60049 5.40833 8.00049 4.725C8.41716 4.025 8.97549 3.475 9.67549 3.075C10.3755 2.675 11.1505 2.475 12.0005 2.475C12.8505 2.475 13.6255 2.675 14.3255 3.075C15.0255 3.475 15.5755 4.025 15.9755 4.725C16.3922 5.40833 16.6005 6.15833 16.6005 6.975L16.2005 6.625H18.2255C18.9922 6.625 19.6922 6.81667 20.3255 7.2C20.9755 7.56667 21.4838 8.075 21.8505 8.725C22.2338 9.35833 22.4255 10.0583 22.4255 10.825C22.4255 11.5917 22.2338 12.3 21.8505 12.95C21.4838 13.5833 20.9755 14.0833 20.3255 14.45C19.6922 14.8167 18.9922 15 18.2255 15H5.77549ZM18.2255 14.525C18.9088 14.525 19.5338 14.3667 20.1005 14.05C20.6672 13.7167 21.1088 13.2667 21.4255 12.7C21.7588 12.1333 21.9255 11.5083 21.9255 10.825C21.9255 10.1417 21.7588 9.51667 21.4255 8.95C21.1088 8.38333 20.6672 7.93333 20.1005 7.6C19.5338 7.26667 18.9088 7.1 18.2255 7.1H16.1255V7.05C16.1255 6.3 15.9422 5.61667 15.5755 5C15.2088 4.36667 14.7088 3.86667 14.0755 3.5C13.4422 3.13333 12.7505 2.95 12.0005 2.95C11.2505 2.95 10.5588 3.13333 9.92549 3.5C9.29216 3.86667 8.79216 4.36667 8.42549 5C8.05882 5.61667 7.87549 6.3 7.87549 7.05V7.1H5.77549C5.09216 7.1 4.46716 7.26667 3.90049 7.6C3.33382 7.93333 2.88382 8.38333 2.55049 8.95C2.23382 9.51667 2.07549 10.1417 2.07549 10.825C2.07549 11.5083 2.23382 12.1333 2.55049 12.7C2.88382 13.2667 3.33382 13.7167 3.90049 14.05C4.46716 14.3667 5.09216 14.525 5.77549 14.525H18.2255Z" fill="black"/>
</g>
<defs>
<clipPath id="clip0_3179_16330">
<rect width="24" height="24" fill="white"/>
</clipPath>
</defs>
</svg>
