<svg width="24" height="24" viewBox="0 0 24 24" fill="none" xmlns="http://www.w3.org/2000/svg">
<g clip-path="url(#clip0_3181_26240)">
<rect width="24" height="24" fill="white"/>
<path d="M2.95049 21C2.95049 17.75 3.75882 14.75 5.37549 12C6.99216 9.23333 9.17549 7.04167 11.9255 5.425C14.6922 3.80833 17.7172 3 21.0005 3V4.4C17.9838 4.4 15.2005 5.15 12.6505 6.65C10.1172 8.13333 8.10882 10.1417 6.62549 12.675C5.14216 15.2083 4.40049 17.9833 4.40049 21H2.95049ZM8.70049 21C8.70049 18.8 9.25049 16.7583 10.3505 14.875C11.4672 12.9917 12.9672 11.5 14.8505 10.4C16.7338 9.28333 18.7838 8.725 21.0005 8.725V10.125C19.0338 10.125 17.2172 10.6167 15.5505 11.6C13.8838 12.5667 12.5588 13.8833 11.5755 15.55C10.6088 17.2167 10.1255 19.0333 10.1255 21H8.70049ZM14.4505 21C14.4505 19.8333 14.7422 18.75 15.3255 17.75C15.9255 16.75 16.7255 15.9583 17.7255 15.375C18.7255 14.7917 19.8172 14.5 21.0005 14.5V15.875C20.0672 15.875 19.2088 16.1083 18.4255 16.575C17.6588 17.0417 17.0422 17.6667 16.5755 18.45C16.1088 19.2167 15.8755 20.0667 15.8755 21H14.4505Z" fill="black"/>
</g>
<defs>
<clipPath id="clip0_3181_26240">
<rect width="24" height="24" fill="white"/>
</clipPath>
</defs>
</svg>
