<svg width="24" height="24" viewBox="0 0 24 24" fill="none" xmlns="http://www.w3.org/2000/svg">
<g clip-path="url(#clip0_3181_26248)">
<rect width="24" height="24" fill="white"/>
<path d="M2.95049 21C2.95049 17.75 3.75049 14.75 5.35049 12C6.96716 9.23333 9.15882 7.04167 11.9255 5.425C14.6922 3.80833 17.7172 3 21.0005 3V6.45C18.3505 6.45 15.9088 7.1 13.6755 8.4C11.4588 9.7 9.70049 11.4667 8.40049 13.7C7.10049 15.9333 6.45049 18.3667 6.45049 21H2.95049ZM8.50049 21C8.50049 18.75 9.05882 16.675 10.1755 14.775C11.2922 12.8583 12.8088 11.3417 14.7255 10.225C16.6422 9.10833 18.7338 8.55 21.0005 8.55V12C19.3672 12 17.8588 12.4083 16.4755 13.225C15.1088 14.025 14.0172 15.1167 13.2005 16.5C12.4005 17.8667 12.0005 19.3667 12.0005 21H8.50049ZM14.0505 21C14.0505 19.75 14.3588 18.6 14.9755 17.55C15.6088 16.4833 16.4588 15.6417 17.5255 15.025C18.5922 14.4083 19.7505 14.1 21.0005 14.1V17.55C20.3838 17.55 19.8088 17.7083 19.2755 18.025C18.7422 18.325 18.3172 18.7417 18.0005 19.275C17.7005 19.8083 17.5505 20.3833 17.5505 21H14.0505Z" fill="black"/>
</g>
<defs>
<clipPath id="clip0_3181_26248">
<rect width="24" height="24" fill="white"/>
</clipPath>
</defs>
</svg>
