<svg width="24" height="24" viewBox="0 0 24 24" fill="none" xmlns="http://www.w3.org/2000/svg">
<g clip-path="url(#clip0_3378_7092)">
<rect width="24" height="24" fill="white"/>
<path d="M16.0005 17V21H14.2005V17H16.0005ZM9.80049 17V21H8.00049V17H9.80049ZM6.27549 15C5.40882 15 4.61716 14.7917 3.90049 14.375C3.18382 13.9583 2.61716 13.3917 2.20049 12.675C1.78382 11.9583 1.57549 11.1667 1.57549 10.3C1.57549 9.43333 1.78382 8.64167 2.20049 7.925C2.61716 7.20833 3.18382 6.64167 3.90049 6.225C4.61716 5.80833 5.40882 5.6 6.27549 5.6H8.72549L7.02549 7.125C7.02549 6.275 7.24216 5.5 7.67549 4.8C8.12549 4.08333 8.72549 3.51667 9.47549 3.1C10.2422 2.68333 11.0838 2.475 12.0005 2.475C12.9172 2.475 13.7505 2.68333 14.5005 3.1C15.2672 3.51667 15.8672 4.08333 16.3005 4.8C16.7505 5.5 16.9755 6.275 16.9755 7.125L15.6005 5.6H17.7005C18.5672 5.6 19.3588 5.80833 20.0755 6.225C20.8088 6.64167 21.3838 7.20833 21.8005 7.925C22.2172 8.64167 22.4255 9.43333 22.4255 10.3C22.4255 11.1667 22.2172 11.9583 21.8005 12.675C21.3838 13.3917 20.8088 13.9583 20.0755 14.375C19.3588 14.7917 18.5672 15 17.7005 15H6.27549ZM17.7005 13.15C18.2172 13.15 18.6922 13.025 19.1255 12.775C19.5588 12.525 19.9005 12.1833 20.1505 11.75C20.4005 11.3 20.5255 10.8167 20.5255 10.3C20.5255 9.78333 20.4005 9.30833 20.1505 8.875C19.9005 8.44167 19.5588 8.1 19.1255 7.85C18.6922 7.6 18.2172 7.475 17.7005 7.475H15.0755V7.45C15.0755 6.88333 14.9338 6.35833 14.6505 5.875C14.3838 5.39167 14.0172 5.01667 13.5505 4.75C13.0838 4.46667 12.5672 4.325 12.0005 4.325C11.4338 4.325 10.9172 4.46667 10.4505 4.75C9.98382 5.01667 9.60882 5.39167 9.32549 5.875C9.05882 6.35833 8.92549 6.88333 8.92549 7.45V7.475H6.27549C5.75882 7.475 5.28382 7.6 4.85049 7.85C4.43382 8.1 4.10049 8.44167 3.85049 8.875C3.60049 9.30833 3.47549 9.78333 3.47549 10.3C3.47549 10.8333 3.60049 11.3167 3.85049 11.75C4.10049 12.1833 4.43382 12.525 4.85049 12.775C5.28382 13.025 5.75882 13.15 6.27549 13.15H17.7005Z" fill="black"/>
</g>
<defs>
<clipPath id="clip0_3378_7092">
<rect width="24" height="24" fill="white"/>
</clipPath>
</defs>
</svg>
