<svg width="24" height="24" viewBox="0 0 24 24" fill="none" xmlns="http://www.w3.org/2000/svg">
<g clip-path="url(#clip0_3181_26466)">
<rect width="24" height="24" fill="white"/>
<path d="M5.775 15.025C5.00833 15.025 4.3 14.8417 3.65 14.475C3.01667 14.0917 2.50833 13.5833 2.125 12.95C1.75833 12.3 1.575 11.5917 1.575 10.825C1.575 10.0583 1.75833 9.35833 2.125 8.725C2.50833 8.075 3.01667 7.56667 3.65 7.2C4.3 6.81667 5.00833 6.625 5.775 6.625H7.85L7.4 6.95C7.4 6.13333 7.6 5.38333 8 4.7C8.41667 4.01667 8.975 3.475 9.675 3.075C10.375 2.675 11.15 2.475 12 2.475C12.85 2.475 13.625 2.675 14.325 3.075C15.025 3.475 15.575 4.01667 15.975 4.7C16.3917 5.38333 16.6 6.13333 16.6 6.95L16.2 6.625H18.225C18.9917 6.625 19.6917 6.81667 20.325 7.2C20.975 7.56667 21.4833 8.075 21.85 8.725C22.2333 9.35833 22.425 10.0583 22.425 10.825C22.425 11.5917 22.2333 12.3 21.85 12.95C21.4833 13.5833 20.975 14.0917 20.325 14.475C19.6917 14.8417 18.9917 15.025 18.225 15.025H5.775ZM18.475 17.025V21H16.15V17.025H18.475ZM7.85 17.025V21H5.525V17.025H7.85ZM12 21.025C11.5 21.025 11.075 20.85 10.725 20.5C10.375 20.15 10.2 19.725 10.2 19.225C10.2 18.7417 10.375 18.325 10.725 17.975C11.075 17.625 11.5 17.45 12 17.45C12.5 17.45 12.925 17.625 13.275 17.975C13.625 18.325 13.8 18.7417 13.8 19.225C13.8 19.725 13.625 20.15 13.275 20.5C12.925 20.85 12.5 21.025 12 21.025Z" fill="black"/>
</g>
<defs>
<clipPath id="clip0_3181_26466">
<rect width="24" height="24" fill="white"/>
</clipPath>
</defs>
</svg>
