<svg width="24" height="24" viewBox="0 0 24 24" fill="none" xmlns="http://www.w3.org/2000/svg">
<g clip-path="url(#clip0_3181_26462)">
<rect width="24" height="24" fill="white"/>
<path d="M5.775 16.025C5.00833 16.025 4.3 15.8417 3.65 15.475C3.01667 15.0917 2.50833 14.5833 2.125 13.95C1.75833 13.3 1.575 12.5917 1.575 11.825C1.575 11.0583 1.75833 10.3583 2.125 9.725C2.50833 9.075 3.01667 8.56667 3.65 8.2C4.3 7.81667 5.00833 7.625 5.775 7.625H7.85L7.4 7.95C7.4 7.13333 7.6 6.38333 8 5.7C8.41667 5.01667 8.975 4.475 9.675 4.075C10.375 3.675 11.15 3.475 12 3.475C12.85 3.475 13.625 3.675 14.325 4.075C15.025 4.475 15.575 5.01667 15.975 5.7C16.3917 6.38333 16.6 7.13333 16.6 7.95L16.2 7.625H18.225C18.9917 7.625 19.6917 7.81667 20.325 8.2C20.975 8.56667 21.4833 9.075 21.85 9.725C22.2333 10.3583 22.425 11.0583 22.425 11.825C22.425 12.5917 22.2333 13.3 21.85 13.95C21.4833 14.5833 20.975 15.0917 20.325 15.475C19.6917 15.8417 18.9917 16.025 18.225 16.025H5.775ZM18.05 18.025V22H16.675V18.025H18.05ZM7.325 18.025V22H5.95V18.025H7.325ZM12 22.025C11.5833 22.025 11.225 21.8833 10.925 21.6C10.6417 21.3 10.5 20.9417 10.5 20.525C10.5 20.1083 10.6417 19.7583 10.925 19.475C11.225 19.175 11.5833 19.025 12 19.025C12.4167 19.025 12.7667 19.175 13.05 19.475C13.35 19.7583 13.5 20.1083 13.5 20.525C13.5 20.9417 13.35 21.3 13.05 21.6C12.7667 21.8833 12.4167 22.025 12 22.025Z" fill="black"/>
</g>
<defs>
<clipPath id="clip0_3181_26462">
<rect width="24" height="24" fill="white"/>
</clipPath>
</defs>
</svg>
