<svg width="24" height="24" viewBox="0 0 24 24" fill="none" xmlns="http://www.w3.org/2000/svg">
<g clip-path="url(#clip0_3180_17453)">
<rect width="24" height="24" fill="white"/>
<path d="M15.8255 5.175C15.5255 5.175 15.2672 5.06667 15.0505 4.85C14.8505 4.63333 14.7505 4.375 14.7505 4.075C14.7505 3.775 14.8505 3.525 15.0505 3.325C15.2672 3.10833 15.5255 3 15.8255 3C16.1255 3 16.3755 3.10833 16.5755 3.325C16.7922 3.525 16.9005 3.775 16.9005 4.075C16.9005 4.375 16.7922 4.63333 16.5755 4.85C16.3755 5.06667 16.1255 5.175 15.8255 5.175ZM8.17549 21C7.87549 21 7.61716 20.9 7.40049 20.7C7.20049 20.4833 7.10049 20.225 7.10049 19.925C7.10049 19.625 7.20049 19.3667 7.40049 19.15C7.61716 18.9333 7.87549 18.825 8.17549 18.825C8.47549 18.825 8.72549 18.9333 8.92549 19.15C9.14216 19.3667 9.25049 19.625 9.25049 19.925C9.25049 20.225 9.14216 20.4833 8.92549 20.7C8.72549 20.9 8.47549 21 8.17549 21ZM4.07549 15.725C3.77549 15.725 3.51716 15.625 3.30049 15.425C3.10049 15.2083 3.00049 14.95 3.00049 14.65C3.00049 14.35 3.10049 14.0917 3.30049 13.875C3.51716 13.6583 3.77549 13.55 4.07549 13.55C4.37549 13.55 4.63382 13.6583 4.85049 13.875C5.06716 14.0917 5.17549 14.35 5.17549 14.65C5.17549 14.95 5.06716 15.2083 4.85049 15.425C4.63382 15.625 4.37549 15.725 4.07549 15.725ZM14.0505 21C13.7505 21 13.4922 20.9 13.2755 20.7C13.0588 20.4833 12.9505 20.225 12.9505 19.925C12.9505 19.625 13.0588 19.3667 13.2755 19.15C13.4922 18.9333 13.7505 18.825 14.0505 18.825C14.3505 18.825 14.6005 18.9333 14.8005 19.15C15.0172 19.3667 15.1255 19.625 15.1255 19.925C15.1255 20.225 15.0172 20.4833 14.8005 20.7C14.6005 20.9 14.3505 21 14.0505 21ZM9.95049 15.725C9.65049 15.725 9.39216 15.625 9.17549 15.425C8.97549 15.2083 8.87549 14.95 8.87549 14.65C8.87549 14.35 8.97549 14.0917 9.17549 13.875C9.39216 13.6583 9.65049 13.55 9.95049 13.55C10.2505 13.55 10.5005 13.6583 10.7005 13.875C10.9172 14.0917 11.0255 14.35 11.0255 14.65C11.0255 14.95 10.9172 15.2083 10.7005 15.425C10.5005 15.625 10.2505 15.725 9.95049 15.725ZM8.17549 10.45C7.87549 10.45 7.61716 10.3417 7.40049 10.125C7.20049 9.90833 7.10049 9.65 7.10049 9.35C7.10049 9.05 7.20049 8.8 7.40049 8.6C7.61716 8.38333 7.87549 8.275 8.17549 8.275C8.47549 8.275 8.72549 8.38333 8.92549 8.6C9.14216 8.8 9.25049 9.05 9.25049 9.35C9.25049 9.65 9.14216 9.90833 8.92549 10.125C8.72549 10.3417 8.47549 10.45 8.17549 10.45ZM19.9255 21C19.6255 21 19.3672 20.9 19.1505 20.7C18.9338 20.4833 18.8255 20.225 18.8255 19.925C18.8255 19.625 18.9338 19.3667 19.1505 19.15C19.3672 18.9333 19.6255 18.825 19.9255 18.825C20.2255 18.825 20.4755 18.9333 20.6755 19.15C20.8922 19.3667 21.0005 19.625 21.0005 19.925C21.0005 20.225 20.8922 20.4833 20.6755 20.7C20.4755 20.9 20.2255 21 19.9255 21ZM4.07549 5.175C3.77549 5.175 3.51716 5.06667 3.30049 4.85C3.10049 4.63333 3.00049 4.375 3.00049 4.075C3.00049 3.775 3.10049 3.525 3.30049 3.325C3.51716 3.10833 3.77549 3 4.07549 3C4.37549 3 4.63382 3.10833 4.85049 3.325C5.06716 3.525 5.17549 3.775 5.17549 4.075C5.17549 4.375 5.06716 4.63333 4.85049 4.85C4.63382 5.06667 4.37549 5.175 4.07549 5.175ZM15.8255 15.725C15.5255 15.725 15.2672 15.625 15.0505 15.425C14.8505 15.2083 14.7505 14.95 14.7505 14.65C14.7505 14.35 14.8505 14.0917 15.0505 13.875C15.2672 13.6583 15.5255 13.55 15.8255 13.55C16.1255 13.55 16.3755 13.6583 16.5755 13.875C16.7922 14.0917 16.9005 14.35 16.9005 14.65C16.9005 14.95 16.7922 15.2083 16.5755 15.425C16.3755 15.625 16.1255 15.725 15.8255 15.725ZM14.0505 10.45C13.7505 10.45 13.4922 10.3417 13.2755 10.125C13.0588 9.90833 12.9505 9.65 12.9505 9.35C12.9505 9.05 13.0588 8.8 13.2755 8.6C13.4922 8.38333 13.7505 8.275 14.0505 8.275C14.3505 8.275 14.6005 8.38333 14.8005 8.6C15.0172 8.8 15.1255 9.05 15.1255 9.35C15.1255 9.65 15.0172 9.90833 14.8005 10.125C14.6005 10.3417 14.3505 10.45 14.0505 10.45ZM9.95049 5.175C9.65049 5.175 9.39216 5.06667 9.17549 4.85C8.97549 4.63333 8.87549 4.375 8.87549 4.075C8.87549 3.775 8.97549 3.525 9.17549 3.325C9.39216 3.10833 9.65049 3 9.95049 3C10.2505 3 10.5005 3.10833 10.7005 3.325C10.9172 3.525 11.0255 3.775 11.0255 4.075C11.0255 4.375 10.9172 4.63333 10.7005 4.85C10.5005 5.06667 10.2505 5.175 9.95049 5.175ZM19.9255 10.45C19.6255 10.45 19.3672 10.3417 19.1505 10.125C18.9338 9.90833 18.8255 9.65 18.8255 9.35C18.8255 9.05 18.9338 8.8 19.1505 8.6C19.3672 8.38333 19.6255 8.275 19.9255 8.275C20.2255 8.275 20.4755 8.38333 20.6755 8.6C20.8922 8.8 21.0005 9.05 21.0005 9.35C21.0005 9.65 20.8922 9.90833 20.6755 10.125C20.4755 10.3417 20.2255 10.45 19.9255 10.45Z" fill="black"/>
</g>
<defs>
<clipPath id="clip0_3180_17453">
<rect width="24" height="24" fill="white"/>
</clipPath>
</defs>
</svg>
