<svg width="24" height="24" viewBox="0 0 24 24" fill="none" xmlns="http://www.w3.org/2000/svg">
<g clip-path="url(#clip0_3181_26500)">
<rect width="24" height="24" fill="white"/>
<path d="M15.9255 22C15.6088 22 15.3338 21.8917 15.1005 21.675C14.8838 21.4417 14.7755 21.1667 14.7755 20.85C14.7755 20.5333 14.8838 20.2667 15.1005 20.05C15.3338 19.8167 15.6088 19.7 15.9255 19.7C16.2422 19.7 16.5088 19.8083 16.7255 20.025C16.9588 20.2417 17.0755 20.5167 17.0755 20.85C17.0755 21.1667 16.9672 21.4417 16.7505 21.675C16.5338 21.8917 16.2588 22 15.9255 22ZM15.9255 20.85C15.9588 20.85 15.9755 20.85 15.9755 20.85C15.9922 20.85 16.0172 20.85 16.0505 20.85C16.0172 20.85 15.9922 20.85 15.9755 20.85C15.9755 20.85 15.9588 20.85 15.9255 20.85C15.8922 20.85 15.8672 20.85 15.8505 20.85C15.8505 20.85 15.8338 20.85 15.8005 20.85C15.8338 20.85 15.8505 20.85 15.8505 20.85C15.8672 20.85 15.8922 20.85 15.9255 20.85ZM8.07549 22C7.75882 22 7.48382 21.8917 7.25049 21.675C7.03382 21.4417 6.92549 21.1667 6.92549 20.85C6.92549 20.5333 7.03382 20.2667 7.25049 20.05C7.48382 19.8167 7.75882 19.7 8.07549 19.7C8.39216 19.7 8.65882 19.8083 8.87549 20.025C9.10882 20.2417 9.22549 20.5167 9.22549 20.85C9.22549 21.1667 9.11716 21.4417 8.90049 21.675C8.68382 21.8917 8.40882 22 8.07549 22ZM8.07549 20.85C8.10882 20.85 8.12549 20.85 8.12549 20.85C8.14216 20.85 8.16716 20.85 8.20049 20.85C8.16716 20.85 8.14216 20.85 8.12549 20.85C8.12549 20.85 8.10882 20.85 8.07549 20.85C8.04216 20.85 8.01716 20.85 8.00049 20.85C8.00049 20.85 7.98382 20.85 7.95049 20.85C7.98382 20.85 8.00049 20.85 8.00049 20.85C8.01716 20.85 8.04216 20.85 8.07549 20.85ZM6.10049 16C5.26716 16 4.50049 15.8 3.80049 15.4C3.11716 15 2.57549 14.4583 2.17549 13.775C1.77549 13.075 1.57549 12.3083 1.57549 11.475C1.57549 10.6417 1.77549 9.88333 2.17549 9.2C2.57549 8.5 3.11716 7.95 3.80049 7.55C4.50049 7.15 5.26716 6.95 6.10049 6.95H8.42549L7.15049 8.075C7.15049 7.24167 7.36716 6.475 7.80049 5.775C8.23382 5.05833 8.81716 4.5 9.55049 4.1C10.2838 3.68333 11.1005 3.475 12.0005 3.475C12.9005 3.475 13.7172 3.68333 14.4505 4.1C15.1838 4.5 15.7672 5.05833 16.2005 5.775C16.6338 6.475 16.8505 7.24167 16.8505 8.075L15.8005 6.95H17.8755C18.7088 6.95 19.4755 7.15 20.1755 7.55C20.8755 7.95 21.4255 8.5 21.8255 9.2C22.2255 9.88333 22.4255 10.6417 22.4255 11.475C22.4255 12.3083 22.2255 13.075 21.8255 13.775C21.4255 14.4583 20.8755 15 20.1755 15.4C19.4755 15.8 18.7088 16 17.8755 16H6.10049ZM17.8755 14.6C18.4422 14.6 18.9672 14.4667 19.4505 14.2C19.9338 13.9167 20.3088 13.5333 20.5755 13.05C20.8588 12.5667 21.0005 12.0417 21.0005 11.475C21.0005 10.9083 20.8588 10.3833 20.5755 9.9C20.3088 9.41667 19.9338 9.04167 19.4505 8.775C18.9672 8.49167 18.4422 8.35 17.8755 8.35H15.4255V8.325C15.4255 7.69167 15.2672 7.10833 14.9505 6.575C14.6505 6.04167 14.2422 5.625 13.7255 5.325C13.2088 5.025 12.6338 4.875 12.0005 4.875C11.3672 4.875 10.7922 5.025 10.2755 5.325C9.75882 5.625 9.34216 6.04167 9.02549 6.575C8.72549 7.10833 8.57549 7.69167 8.57549 8.325V8.35H6.10049C5.53382 8.35 5.00882 8.49167 4.52549 8.775C4.05882 9.04167 3.68382 9.41667 3.40049 9.9C3.13382 10.3833 3.00049 10.9083 3.00049 11.475C3.00049 12.0583 3.13382 12.5917 3.40049 13.075C3.68382 13.5417 4.05882 13.9167 4.52549 14.2C5.00882 14.4667 5.53382 14.6 6.10049 14.6H17.8755Z" fill="black"/>
</g>
<defs>
<clipPath id="clip0_3181_26500">
<rect width="24" height="24" fill="white"/>
</clipPath>
</defs>
</svg>
