<svg width="24" height="24" viewBox="0 0 24 24" fill="none" xmlns="http://www.w3.org/2000/svg">
<g clip-path="url(#clip0_3181_26496)">
<rect width="24" height="24" fill="white"/>
<path d="M5.775 15.025C5.00833 15.025 4.3 14.8417 3.65 14.475C3.01667 14.0917 2.50833 13.5833 2.125 12.95C1.75833 12.3 1.575 11.5917 1.575 10.825C1.575 10.0583 1.75833 9.35833 2.125 8.725C2.50833 8.075 3.01667 7.56667 3.65 7.2C4.3 6.81667 5.00833 6.625 5.775 6.625H7.85L7.4 6.975C7.4 6.15833 7.6 5.40833 8 4.725C8.41667 4.04167 8.975 3.5 9.675 3.1C10.375 2.7 11.15 2.5 12 2.5C12.85 2.5 13.625 2.7 14.325 3.1C15.025 3.5 15.575 4.04167 15.975 4.725C16.3917 5.40833 16.6 6.15833 16.6 6.975L16.2 6.625H18.225C18.9917 6.625 19.6917 6.81667 20.325 7.2C20.975 7.56667 21.4833 8.075 21.85 8.725C22.2333 9.35833 22.425 10.0583 22.425 10.825C22.425 11.5917 22.2333 12.3 21.85 12.95C21.4833 13.5833 20.975 14.0917 20.325 14.475C19.6917 14.8417 18.9917 15.025 18.225 15.025H5.775ZM12 21C11.3333 21 10.7667 20.775 10.3 20.325C9.85 19.8583 9.625 19.3 9.625 18.65C9.625 18 9.85 17.45 10.3 17C10.7667 16.5333 11.3333 16.3 12 16.3C12.6667 16.3 13.225 16.5333 13.675 17C14.1417 17.45 14.375 18 14.375 18.65C14.375 19.3 14.1417 19.8583 13.675 20.325C13.225 20.775 12.6667 21 12 21Z" fill="black"/>
</g>
<defs>
<clipPath id="clip0_3181_26496">
<rect width="24" height="24" fill="white"/>
</clipPath>
</defs>
</svg>
