<svg width="24" height="24" viewBox="0 0 24 24" fill="none" xmlns="http://www.w3.org/2000/svg">
<g clip-path="url(#clip0_3378_7054)">
<rect width="24" height="24" fill="white"/>
<path d="M16.0005 21C15.3672 21 14.8338 20.7833 14.4005 20.35C13.9672 19.9 13.7505 19.3667 13.7505 18.75C13.7505 18.1167 13.9672 17.5833 14.4005 17.15C14.8338 16.7167 15.3672 16.5 16.0005 16.5C16.6338 16.5 17.1672 16.725 17.6005 17.175C18.0338 17.6083 18.2505 18.1333 18.2505 18.75C18.2505 19.3833 18.0338 19.9167 17.6005 20.35C17.1672 20.7833 16.6338 21 16.0005 21ZM16.0005 20.125C16.3838 20.125 16.7088 19.9917 16.9755 19.725C17.2422 19.4583 17.3755 19.1333 17.3755 18.75C17.3755 18.3667 17.2422 18.0417 16.9755 17.775C16.7088 17.5083 16.3838 17.375 16.0005 17.375C15.6172 17.375 15.2922 17.5083 15.0255 17.775C14.7588 18.0417 14.6255 18.3667 14.6255 18.75C14.6255 19.1333 14.7588 19.4583 15.0255 19.725C15.2922 19.9917 15.6172 20.125 16.0005 20.125ZM8.00049 21C7.36716 21 6.83382 20.7833 6.40049 20.35C5.96716 19.9 5.75049 19.3667 5.75049 18.75C5.75049 18.1167 5.96716 17.5833 6.40049 17.15C6.83382 16.7167 7.36716 16.5 8.00049 16.5C8.63382 16.5 9.16716 16.725 9.60049 17.175C10.0338 17.6083 10.2505 18.1333 10.2505 18.75C10.2505 19.3833 10.0338 19.9167 9.60049 20.35C9.16716 20.7833 8.63382 21 8.00049 21ZM8.00049 20.125C8.38382 20.125 8.70882 19.9917 8.97549 19.725C9.24216 19.4583 9.37549 19.1333 9.37549 18.75C9.37549 18.3667 9.24216 18.0417 8.97549 17.775C8.70882 17.5083 8.38382 17.375 8.00049 17.375C7.61716 17.375 7.29216 17.5083 7.02549 17.775C6.75882 18.0417 6.62549 18.3667 6.62549 18.75C6.62549 19.1333 6.75882 19.4583 7.02549 19.725C7.29216 19.9917 7.61716 20.125 8.00049 20.125ZM5.95049 15C5.13382 15 4.39216 14.8083 3.72549 14.425C3.05882 14.0417 2.53382 13.5167 2.15049 12.85C1.76715 12.1833 1.57549 11.45 1.57549 10.65C1.57549 9.85 1.76715 9.11667 2.15049 8.45C2.53382 7.78333 3.05882 7.25833 3.72549 6.875C4.39216 6.475 5.13382 6.275 5.95049 6.275H8.15049L7.27549 7.025C7.27549 6.19167 7.48382 5.43333 7.90049 4.75C8.31716 4.05 8.88382 3.5 9.60049 3.1C10.3338 2.68333 11.1338 2.475 12.0005 2.475C12.8672 2.475 13.6588 2.68333 14.3755 3.1C15.1088 3.5 15.6838 4.05 16.1005 4.75C16.5172 5.43333 16.7255 6.19167 16.7255 7.025L16.0005 6.275H18.0505C18.8505 6.275 19.5838 6.475 20.2505 6.875C20.9172 7.25833 21.4422 7.78333 21.8255 8.45C22.2255 9.11667 22.4255 9.85 22.4255 10.65C22.4255 11.45 22.2255 12.1833 21.8255 12.85C21.4422 13.5167 20.9172 14.0417 20.2505 14.425C19.5838 14.8083 18.8505 15 18.0505 15H5.95049ZM18.0505 14.075C18.6672 14.075 19.2338 13.925 19.7505 13.625C20.2838 13.325 20.7005 12.9167 21.0005 12.4C21.3005 11.8667 21.4505 11.2833 21.4505 10.65C21.4505 10.0167 21.3005 9.44167 21.0005 8.925C20.7005 8.39167 20.2922 7.975 19.7755 7.675C19.2588 7.375 18.6838 7.225 18.0505 7.225H15.7755V7.175C15.7755 6.49167 15.6088 5.86667 15.2755 5.3C14.9422 4.71667 14.4838 4.25833 13.9005 3.925C13.3172 3.575 12.6838 3.4 12.0005 3.4C11.3172 3.4 10.6838 3.575 10.1005 3.925C9.51716 4.25833 9.05882 4.71667 8.72549 5.3C8.39216 5.86667 8.22549 6.49167 8.22549 7.175V7.225H5.95049C5.31716 7.225 4.74216 7.38333 4.22549 7.7C3.70882 8 3.30049 8.41667 3.00049 8.95C2.70049 9.46667 2.55049 10.0333 2.55049 10.65C2.55049 11.2833 2.70049 11.8667 3.00049 12.4C3.30049 12.9167 3.70882 13.325 4.22549 13.625C4.74216 13.925 5.31716 14.075 5.95049 14.075H18.0505Z" fill="black"/>
</g>
<defs>
<clipPath id="clip0_3378_7054">
<rect width="24" height="24" fill="white"/>
</clipPath>
</defs>
</svg>
