<svg width="24" height="24" viewBox="0 0 24 24" fill="none" xmlns="http://www.w3.org/2000/svg">
<g clip-path="url(#clip0_3179_16300)">
<rect width="24" height="24" fill="white"/>
<path d="M12.0005 21C11.4338 21 10.9588 20.8083 10.5755 20.425C10.1922 20.0417 10.0005 19.575 10.0005 19.025C10.0005 18.475 10.1922 18.0083 10.5755 17.625C10.9588 17.2417 11.4338 17.05 12.0005 17.05C12.5672 17.05 13.0422 17.2417 13.4255 17.625C13.8088 18.0083 14.0005 18.475 14.0005 19.025C14.0005 19.575 13.8088 20.0417 13.4255 20.425C13.0422 20.8083 12.5672 21 12.0005 21ZM12.0005 20.55C12.4338 20.55 12.7922 20.4 13.0755 20.1C13.3755 19.8 13.5255 19.4417 13.5255 19.025C13.5255 18.5917 13.3755 18.2333 13.0755 17.95C12.7922 17.65 12.4338 17.5 12.0005 17.5C11.5838 17.5 11.2255 17.65 10.9255 17.95C10.6255 18.2333 10.4755 18.5917 10.4755 19.025C10.4755 19.4417 10.6255 19.8 10.9255 20.1C11.2255 20.4 11.5838 20.55 12.0005 20.55ZM18.5005 21C17.9338 21 17.4588 20.8083 17.0755 20.425C16.6922 20.0417 16.5005 19.575 16.5005 19.025C16.5005 18.475 16.6922 18.0083 17.0755 17.625C17.4588 17.2417 17.9338 17.05 18.5005 17.05C19.0672 17.05 19.5422 17.2417 19.9255 17.625C20.3088 18.0083 20.5005 18.475 20.5005 19.025C20.5005 19.575 20.3088 20.0417 19.9255 20.425C19.5422 20.8083 19.0672 21 18.5005 21ZM18.5005 20.55C18.9338 20.55 19.2922 20.4 19.5755 20.1C19.8755 19.8 20.0255 19.4417 20.0255 19.025C20.0255 18.5917 19.8755 18.2333 19.5755 17.95C19.2922 17.65 18.9338 17.5 18.5005 17.5C18.0838 17.5 17.7255 17.65 17.4255 17.95C17.1255 18.2333 16.9755 18.5917 16.9755 19.025C16.9755 19.4417 17.1255 19.8 17.4255 20.1C17.7255 20.4 18.0838 20.55 18.5005 20.55ZM5.50049 21C4.93382 21 4.45882 20.8083 4.07549 20.425C3.69215 20.0417 3.50049 19.575 3.50049 19.025C3.50049 18.475 3.69215 18.0083 4.07549 17.625C4.45882 17.2417 4.93382 17.05 5.50049 17.05C6.06716 17.05 6.54216 17.2417 6.92549 17.625C7.30882 18.0083 7.50049 18.475 7.50049 19.025C7.50049 19.575 7.30882 20.0417 6.92549 20.425C6.54216 20.8083 6.06716 21 5.50049 21ZM5.50049 20.55C5.93382 20.55 6.29216 20.4 6.57549 20.1C6.87549 19.8 7.02549 19.4417 7.02549 19.025C7.02549 18.5917 6.87549 18.2333 6.57549 17.95C6.29216 17.65 5.93382 17.5 5.50049 17.5C5.08382 17.5 4.72549 17.65 4.42549 17.95C4.12549 18.2333 3.97549 18.5917 3.97549 19.025C3.97549 19.4417 4.12549 19.8 4.42549 20.1C4.72549 20.4 5.08382 20.55 5.50049 20.55ZM5.77549 15C5.00882 15 4.30049 14.8167 3.65049 14.45C3.01716 14.0833 2.50882 13.5833 2.12549 12.95C1.75882 12.3 1.57549 11.5917 1.57549 10.825C1.57549 10.0583 1.75882 9.35833 2.12549 8.725C2.50882 8.075 3.01716 7.56667 3.65049 7.2C4.30049 6.81667 5.00882 6.625 5.77549 6.625H7.85049L7.40049 6.975C7.40049 6.15833 7.60049 5.40833 8.00049 4.725C8.41716 4.025 8.97549 3.475 9.67549 3.075C10.3755 2.675 11.1505 2.475 12.0005 2.475C12.8505 2.475 13.6255 2.675 14.3255 3.075C15.0255 3.475 15.5755 4.025 15.9755 4.725C16.3922 5.40833 16.6005 6.15833 16.6005 6.975L16.2005 6.625H18.2255C18.9922 6.625 19.6922 6.81667 20.3255 7.2C20.9755 7.56667 21.4838 8.075 21.8505 8.725C22.2338 9.35833 22.4255 10.0583 22.4255 10.825C22.4255 11.5917 22.2338 12.3 21.8505 12.95C21.4838 13.5833 20.9755 14.0833 20.3255 14.45C19.6922 14.8167 18.9922 15 18.2255 15H5.77549ZM18.2255 14.525C18.9088 14.525 19.5338 14.3667 20.1005 14.05C20.6672 13.7167 21.1088 13.2667 21.4255 12.7C21.7588 12.1333 21.9255 11.5083 21.9255 10.825C21.9255 10.1417 21.7588 9.51667 21.4255 8.95C21.1088 8.38333 20.6672 7.93333 20.1005 7.6C19.5338 7.26667 18.9088 7.1 18.2255 7.1H16.1255V7.05C16.1255 6.3 15.9422 5.61667 15.5755 5C15.2088 4.36667 14.7088 3.86667 14.0755 3.5C13.4422 3.13333 12.7505 2.95 12.0005 2.95C11.2505 2.95 10.5588 3.13333 9.92549 3.5C9.29216 3.86667 8.79216 4.36667 8.42549 5C8.05882 5.61667 7.87549 6.3 7.87549 7.05V7.1H5.77549C5.09216 7.1 4.46716 7.26667 3.90049 7.6C3.33382 7.93333 2.88382 8.38333 2.55049 8.95C2.23382 9.51667 2.07549 10.1417 2.07549 10.825C2.07549 11.5083 2.23382 12.1333 2.55049 12.7C2.88382 13.2667 3.33382 13.7167 3.90049 14.05C4.46716 14.3667 5.09216 14.525 5.77549 14.525H18.2255Z" fill="black"/>
</g>
<defs>
<clipPath id="clip0_3179_16300">
<rect width="24" height="24" fill="white"/>
</clipPath>
</defs>
</svg>
