<svg width="24" height="24" viewBox="0 0 24 24" fill="none" xmlns="http://www.w3.org/2000/svg">
<g clip-path="url(#clip0_3180_18337)">
<rect width="24" height="24" fill="white"/>
<path d="M5.775 16.025C5.00833 16.025 4.3 15.8417 3.65 15.475C3.01667 15.0917 2.50833 14.5833 2.125 13.95C1.75833 13.3 1.575 12.5917 1.575 11.825C1.575 11.0583 1.75833 10.3583 2.125 9.725C2.50833 9.075 3.01667 8.56667 3.65 8.2C4.3 7.81667 5.00833 7.625 5.775 7.625H7.85L7.4 7.975C7.4 7.15833 7.6 6.40833 8 5.725C8.41667 5.04167 8.975 4.5 9.675 4.1C10.375 3.7 11.15 3.5 12 3.5C12.85 3.5 13.625 3.7 14.325 4.1C15.025 4.5 15.575 5.04167 15.975 5.725C16.3917 6.40833 16.6 7.15833 16.6 7.975L16.2 7.625H18.225C18.9917 7.625 19.6917 7.81667 20.325 8.2C20.975 8.56667 21.4833 9.075 21.85 9.725C22.2333 10.3583 22.425 11.0583 22.425 11.825C22.425 12.5917 22.2333 13.3 21.85 13.95C21.4833 14.5833 20.975 15.0917 20.325 15.475C19.6917 15.8417 18.9917 16.025 18.225 16.025H5.775ZM8.575 22.025C8.15833 22.025 7.8 21.8833 7.5 21.6C7.21667 21.3 7.075 20.9417 7.075 20.525C7.075 20.1083 7.21667 19.7583 7.5 19.475C7.8 19.175 8.15833 19.025 8.575 19.025C8.99167 19.025 9.34167 19.175 9.625 19.475C9.925 19.7583 10.075 20.1083 10.075 20.525C10.075 20.9417 9.925 21.3 9.625 21.6C9.34167 21.8833 8.99167 22.025 8.575 22.025ZM15.45 22.025C15.0333 22.025 14.675 21.8833 14.375 21.6C14.0917 21.3 13.95 20.9417 13.95 20.525C13.95 20.1083 14.0917 19.7583 14.375 19.475C14.675 19.175 15.0333 19.025 15.45 19.025C15.8667 19.025 16.2167 19.175 16.5 19.475C16.8 19.7583 16.95 20.1083 16.95 20.525C16.95 20.9417 16.8 21.3 16.5 21.6C16.2167 21.8833 15.8667 22.025 15.45 22.025Z" fill="black"/>
</g>
<defs>
<clipPath id="clip0_3180_18337">
<rect width="24" height="24" fill="white"/>
</clipPath>
</defs>
</svg>
