<svg width="24" height="24" viewBox="0 0 24 24" fill="none" xmlns="http://www.w3.org/2000/svg">
<g clip-path="url(#clip0_3181_25796)">
<rect width="24" height="24" fill="white"/>
<path d="M11.5505 16.55L7.87549 20.375L7.25049 19.775L11.5505 15.475V12.425H8.52549L4.25049 16.75L3.62549 16.125L7.45049 12.425H2.00049V11.55H7.45049L3.62549 7.875L4.25049 7.25L8.52549 11.55H11.5505V8.525L7.25049 4.225L7.87549 3.625L11.5505 7.45V2H12.4505V7.45L16.1255 3.625L16.7505 4.225L12.4505 8.525V11.55H15.4755L19.7505 7.25L20.3755 7.875L16.5505 11.55H22.0005V12.425H16.5505L20.3755 16.125L19.7505 16.75L15.4755 12.425H12.4505V15.475L16.7505 19.775L16.1255 20.375L12.4505 16.55V22H11.5505V16.55Z" fill="black"/>
</g>
<defs>
<clipPath id="clip0_3181_25796">
<rect width="24" height="24" fill="white"/>
</clipPath>
</defs>
</svg>
