<svg width="24" height="24" viewBox="0 0 24 24" fill="none" xmlns="http://www.w3.org/2000/svg">
<g clip-path="url(#clip0_3378_7064)">
<rect width="24" height="24" fill="white"/>
<path d="M16.0005 21C15.3338 21 14.7672 20.775 14.3005 20.325C13.8505 19.8583 13.6255 19.2917 13.6255 18.625C13.6255 17.9583 13.8505 17.4 14.3005 16.95C14.7672 16.4833 15.3338 16.25 16.0005 16.25C16.6838 16.25 17.2505 16.4833 17.7005 16.95C18.1505 17.4 18.3755 17.9583 18.3755 18.625C18.3755 19.2917 18.1505 19.8583 17.7005 20.325C17.2505 20.775 16.6838 21 16.0005 21ZM16.0005 18.625C15.7838 18.625 15.6255 18.625 15.5255 18.625C15.4255 18.625 15.2755 18.625 15.0755 18.625C15.2922 18.625 15.4505 18.625 15.5505 18.625C15.6505 18.625 15.8005 18.625 16.0005 18.625C16.2172 18.625 16.3755 18.625 16.4755 18.625C16.5755 18.625 16.7255 18.625 16.9255 18.625C16.7088 18.625 16.5505 18.625 16.4505 18.625C16.3505 18.625 16.2005 18.625 16.0005 18.625ZM8.00049 21C7.33382 21 6.76716 20.775 6.30049 20.325C5.85049 19.8583 5.62549 19.2917 5.62549 18.625C5.62549 17.9583 5.85049 17.4 6.30049 16.95C6.76716 16.4833 7.33382 16.25 8.00049 16.25C8.68382 16.25 9.25049 16.4833 9.70049 16.95C10.1505 17.4 10.3755 17.9583 10.3755 18.625C10.3755 19.2917 10.1505 19.8583 9.70049 20.325C9.25049 20.775 8.68382 21 8.00049 21ZM8.00049 18.625C7.78382 18.625 7.62549 18.625 7.52549 18.625C7.42549 18.625 7.27549 18.625 7.07549 18.625C7.29216 18.625 7.45049 18.625 7.55049 18.625C7.65049 18.625 7.80049 18.625 8.00049 18.625C8.21716 18.625 8.37549 18.625 8.47549 18.625C8.57549 18.625 8.72549 18.625 8.92549 18.625C8.70882 18.625 8.55049 18.625 8.45049 18.625C8.35049 18.625 8.20049 18.625 8.00049 18.625ZM6.67549 15C5.74216 15 4.88382 14.7833 4.10049 14.35C3.31716 13.9 2.70049 13.3 2.25049 12.55C1.80049 11.7833 1.57549 10.9333 1.57549 10C1.57549 9.06667 1.80049 8.21667 2.25049 7.45C2.70049 6.68333 3.30882 6.075 4.07549 5.625C4.85882 5.175 5.72549 4.95 6.67549 4.95H8.87549L6.55049 7.85C6.55049 6.91667 6.80049 6.04167 7.30049 5.225C7.80049 4.39167 8.46716 3.725 9.30049 3.225C10.1338 2.725 11.0338 2.475 12.0005 2.475C12.9672 2.475 13.8672 2.725 14.7005 3.225C15.5338 3.725 16.2005 4.39167 16.7005 5.225C17.2005 6.04167 17.4505 6.91667 17.4505 7.85L15.4255 4.95H17.3505C18.2838 4.95 19.1338 5.175 19.9005 5.625C20.6838 6.075 21.3005 6.68333 21.7505 7.45C22.2005 8.21667 22.4255 9.06667 22.4255 10C22.4255 10.9333 22.2005 11.7833 21.7505 12.55C21.3005 13.3 20.6838 13.9 19.9005 14.35C19.1338 14.7833 18.2838 15 17.3505 15H6.67549ZM17.3505 11.5C17.6172 11.5 17.8672 11.4333 18.1005 11.3C18.3338 11.1667 18.5172 10.9833 18.6505 10.75C18.8005 10.5167 18.8755 10.2667 18.8755 10C18.8755 9.73333 18.8088 9.48333 18.6755 9.25C18.5422 9 18.3588 8.80833 18.1255 8.675C17.8922 8.525 17.6338 8.45 17.3505 8.45H13.9505V7.9C13.9505 7.55 13.8588 7.23333 13.6755 6.95C13.5088 6.65 13.2755 6.41667 12.9755 6.25C12.6755 6.06667 12.3505 5.975 12.0005 5.975C11.6505 5.975 11.3255 6.06667 11.0255 6.25C10.7255 6.41667 10.4838 6.65 10.3005 6.95C10.1338 7.23333 10.0505 7.55 10.0505 7.9V8.45H6.67549C6.39216 8.45 6.13382 8.525 5.90049 8.675C5.66716 8.80833 5.47549 8.99167 5.32549 9.225C5.19216 9.45833 5.12549 9.71667 5.12549 10C5.12549 10.2667 5.19216 10.5167 5.32549 10.75C5.47549 10.9833 5.66716 11.1667 5.90049 11.3C6.13382 11.4333 6.39216 11.5 6.67549 11.5H17.3505Z" fill="black"/>
</g>
<defs>
<clipPath id="clip0_3378_7064">
<rect width="24" height="24" fill="white"/>
</clipPath>
</defs>
</svg>
