<svg width="24" height="24" viewBox="0 0 24 24" fill="none" xmlns="http://www.w3.org/2000/svg">
<g clip-path="url(#clip0_3180_17303)">
<rect width="24" height="24" fill="white"/>
<path d="M6.92549 19.85L10.6255 16.325V14.625V14.025V13.375H9.62549H7.67549L4.15049 17.075L2.15049 15.075L5.30049 12L2.15049 8.925L4.15049 6.925L7.67549 10.625H9.82549H10.6255V9.975V9.525V7.675L6.92549 4.15L8.92549 2.15L12.0005 5.3L15.0755 2.15L17.0755 4.15L13.3755 7.675V9.625V10V10.625H14.0005H16.3255L19.8255 6.925L21.8255 8.925L18.6755 12L21.8255 15.075L19.8255 17.075L16.3255 13.375H13.8755H13.3755V14.075V14.625V16.325L17.0755 19.85L15.0755 21.85L12.0005 18.7L8.92549 21.85L6.92549 19.85Z" fill="black"/>
</g>
<defs>
<clipPath id="clip0_3180_17303">
<rect width="24" height="24" fill="white"/>
</clipPath>
</defs>
</svg>
