<svg width="24" height="24" viewBox="0 0 24 24" fill="none" xmlns="http://www.w3.org/2000/svg">
<g clip-path="url(#clip0_3378_7020)">
<rect width="24" height="24" fill="white"/>
<path d="M12.0005 15.975C11.2672 15.975 10.5922 15.8 9.97549 15.45C9.35882 15.1 8.87549 14.625 8.52549 14.025C8.17549 13.4083 8.00049 12.7333 8.00049 12C8.00049 11.2667 8.17549 10.6 8.52549 10C8.87549 9.38333 9.35882 8.9 9.97549 8.55C10.5922 8.2 11.2672 8.025 12.0005 8.025C12.7338 8.025 13.4088 8.2 14.0255 8.55C14.6422 8.9 15.1255 9.38333 15.4755 10C15.8255 10.6 16.0005 11.2667 16.0005 12C16.0005 12.7333 15.8255 13.4083 15.4755 14.025C15.1255 14.625 14.6422 15.1 14.0255 15.45C13.4088 15.8 12.7338 15.975 12.0005 15.975ZM4.60049 18.75L7.42549 15.925L8.07549 16.575L5.25049 19.4L4.60049 18.75ZM2.00049 11.525H6.00049V12.475H2.00049V11.525ZM11.5255 18H12.4755V22H11.5255V18ZM12.0005 15.05C12.5672 15.05 13.0838 14.9167 13.5505 14.65C14.0338 14.3833 14.4088 14.0167 14.6755 13.55C14.9422 13.0833 15.0755 12.5667 15.0755 12C15.0755 11.4333 14.9422 10.9167 14.6755 10.45C14.4088 9.96667 14.0338 9.59167 13.5505 9.325C13.0838 9.05833 12.5672 8.925 12.0005 8.925C11.4338 8.925 10.9172 9.06667 10.4505 9.35C9.98382 9.61667 9.60882 9.98333 9.32549 10.45C9.05882 10.9167 8.92549 11.4333 8.92549 12C8.92549 12.5667 9.05882 13.0833 9.32549 13.55C9.59216 14.0167 9.95882 14.3833 10.4255 14.65C10.9088 14.9167 11.4338 15.05 12.0005 15.05ZM15.9255 16.575L16.5755 15.925L19.4005 18.75L18.7505 19.4L15.9255 16.575ZM4.60049 5.25L5.25049 4.6L8.07549 7.425L7.42549 8.075L4.60049 5.25ZM11.5255 2H12.4755V6H11.5255V2ZM18.0005 11.525H22.0005V12.45H18.0005V11.525ZM15.9255 7.425L18.7505 4.6L19.4005 5.25L16.5755 8.075L15.9255 7.425Z" fill="black"/>
</g>
<defs>
<clipPath id="clip0_3378_7020">
<rect width="24" height="24" fill="white"/>
</clipPath>
</defs>
</svg>
