<svg width="24" height="24" viewBox="0 0 24 24" fill="none" xmlns="http://www.w3.org/2000/svg">
<g clip-path="url(#clip0_3181_25754)">
<rect width="24" height="24" fill="white"/>
<path d="M12.0005 16.575C11.1672 16.575 10.4005 16.375 9.70049 15.975C9.00049 15.5583 8.44216 15 8.02549 14.3C7.62549 13.6 7.42549 12.8333 7.42549 12C7.42549 11.1667 7.62549 10.4 8.02549 9.7C8.44216 9 9.00049 8.45 9.70049 8.05C10.4005 7.63333 11.1672 7.425 12.0005 7.425C12.8338 7.425 13.6005 7.63333 14.3005 8.05C15.0005 8.45 15.5505 9 15.9505 9.7C16.3672 10.4 16.5755 11.1667 16.5755 12C16.5755 12.8333 16.3672 13.6 15.9505 14.3C15.5505 15 15.0005 15.5583 14.3005 15.975C13.6005 16.375 12.8338 16.575 12.0005 16.575ZM3.60049 17.75L6.45049 14.925L9.07549 17.55L6.25049 20.4L3.60049 17.75ZM2.00049 10.125H6.00049V13.875H2.00049V10.125ZM10.1255 18H13.8755V22H10.1255V18ZM12.0005 13.625C12.2838 13.625 12.5505 13.5583 12.8005 13.425C13.0505 13.275 13.2422 13.075 13.3755 12.825C13.5255 12.575 13.6005 12.3 13.6005 12C13.6005 11.7 13.5255 11.425 13.3755 11.175C13.2422 10.925 13.0505 10.7333 12.8005 10.6C12.5505 10.45 12.2838 10.375 12.0005 10.375C11.7172 10.375 11.4505 10.45 11.2005 10.6C10.9505 10.7333 10.7505 10.925 10.6005 11.175C10.4672 11.425 10.4005 11.7 10.4005 12C10.4005 12.3 10.4672 12.575 10.6005 12.825C10.7505 13.075 10.9505 13.275 11.2005 13.425C11.4505 13.5583 11.7172 13.625 12.0005 13.625ZM14.9255 17.55L17.5505 14.925L20.4005 17.75L17.7505 20.4L14.9255 17.55ZM3.60049 6.25L6.25049 3.6L9.05049 6.45L6.45049 9.075L3.60049 6.25ZM10.1255 2H13.8755V6H10.1255V2ZM18.0005 10.125H22.0005V13.875H18.0005V10.125ZM14.9255 6.45L17.7505 3.6L20.4005 6.25L17.5505 9.075L14.9255 6.45Z" fill="black"/>
</g>
<defs>
<clipPath id="clip0_3181_25754">
<rect width="24" height="24" fill="white"/>
</clipPath>
</defs>
</svg>
