<svg width="24" height="24" viewBox="0 0 24 24" fill="none" xmlns="http://www.w3.org/2000/svg">
<g clip-path="url(#clip0_3180_17255)">
<rect width="24" height="24" fill="white"/>
<path d="M12 16C11.2667 16 10.5917 15.825 9.975 15.475C9.35833 15.125 8.875 14.6417 8.525 14.025C8.175 13.4083 8 12.7333 8 12C8 11.2667 8.175 10.5917 8.525 9.975C8.875 9.35833 9.35833 8.875 9.975 8.525C10.5917 8.175 11.2667 8 12 8C12.7333 8 13.4083 8.175 14.025 8.525C14.6417 8.875 15.125 9.35833 15.475 9.975C15.825 10.5917 16 11.2667 16 12C16 12.7333 15.825 13.4083 15.475 14.025C15.125 14.6417 14.6417 15.125 14.025 15.475C13.4083 15.825 12.7333 16 12 16ZM4.775 18.9L7.6 16.075L7.925 16.425L5.1 19.25L4.775 18.9ZM2 11.75H6V12.225H2V11.75ZM11.75 18H12.25V22H11.75V18ZM4.775 5.1L5.1 4.75L7.925 7.575L7.6 7.925L4.775 5.1ZM16.075 16.425L16.4 16.075L19.225 18.9L18.9 19.25L16.075 16.425ZM11.75 2H12.25V6H11.75V2ZM18 11.75H22V12.225H18V11.75ZM16.075 7.575L18.9 4.75L19.225 5.1L16.4 7.925L16.075 7.575Z" fill="black"/>
</g>
<defs>
<clipPath id="clip0_3180_17255">
<rect width="24" height="24" fill="white"/>
</clipPath>
</defs>
</svg>
