<svg width="24" height="24" viewBox="0 0 24 24" fill="none" xmlns="http://www.w3.org/2000/svg">
<g clip-path="url(#clip0_3180_17259)">
<rect width="24" height="24" fill="white"/>
<path d="M12 16C11.2667 16 10.5917 15.825 9.975 15.475C9.35833 15.125 8.875 14.6417 8.525 14.025C8.175 13.4083 8 12.7333 8 12C8 11.2667 8.175 10.5917 8.525 9.975C8.875 9.35833 9.35833 8.875 9.975 8.525C10.5917 8.175 11.2667 8 12 8C12.7333 8 13.4083 8.175 14.025 8.525C14.6417 8.875 15.125 9.35833 15.475 9.975C15.825 10.5917 16 11.2667 16 12C16 12.7333 15.825 13.4083 15.475 14.025C15.125 14.6417 14.6417 15.125 14.025 15.475C13.4083 15.825 12.7333 16 12 16ZM4.425 18.575L7.25 15.75L8.25 16.75L5.425 19.575L4.425 18.575ZM2 11.275H6V12.7H2V11.275ZM11.275 18H12.725V22H11.275V18ZM4.425 5.425L5.425 4.425L8.25 7.25L7.25 8.25L4.425 5.425ZM15.75 16.75L16.75 15.75L19.575 18.575L18.575 19.575L15.75 16.75ZM11.275 2H12.725V6H11.275V2ZM18 11.275H22V12.7H18V11.275ZM15.75 7.25L18.575 4.425L19.575 5.425L16.75 8.25L15.75 7.25Z" fill="black"/>
</g>
<defs>
<clipPath id="clip0_3180_17259">
<rect width="24" height="24" fill="white"/>
</clipPath>
</defs>
</svg>
