<svg width="24" height="24" viewBox="0 0 24 24" fill="none" xmlns="http://www.w3.org/2000/svg">
<g clip-path="url(#clip0_3180_17247)">
<rect width="24" height="24" fill="white"/>
<path d="M12.0005 15.975C11.2672 15.975 10.5922 15.8 9.97549 15.45C9.35882 15.1 8.87549 14.625 8.52549 14.025C8.17549 13.4083 8.00049 12.7333 8.00049 12C8.00049 11.2667 8.17549 10.6 8.52549 10C8.87549 9.38333 9.35882 8.9 9.97549 8.55C10.5922 8.2 11.2672 8.025 12.0005 8.025C12.7338 8.025 13.4088 8.2 14.0255 8.55C14.6422 8.9 15.1255 9.38333 15.4755 10C15.8255 10.6 16.0005 11.2667 16.0005 12C16.0005 12.7333 15.8255 13.4083 15.4755 14.025C15.1255 14.625 14.6422 15.1 14.0255 15.45C13.4088 15.8 12.7338 15.975 12.0005 15.975ZM4.27549 18.425L7.10049 15.6L8.40049 16.9L5.57549 19.725L4.27549 18.425ZM2.00049 11.075H6.00049V12.925H2.00049V11.075ZM11.0505 18H12.9505V22H11.0505V18ZM12.0005 14.225C12.4338 14.225 12.8172 14.1333 13.1505 13.95C13.4838 13.75 13.7422 13.4833 13.9255 13.15C14.1255 12.8167 14.2255 12.4333 14.2255 12C14.2255 11.5667 14.1255 11.1833 13.9255 10.85C13.7422 10.5167 13.4838 10.2583 13.1505 10.075C12.8172 9.875 12.4338 9.775 12.0005 9.775C11.5838 9.775 11.2088 9.875 10.8755 10.075C10.5422 10.275 10.2755 10.5417 10.0755 10.875C9.87549 11.2083 9.77549 11.5833 9.77549 12C9.77549 12.4333 9.86716 12.8167 10.0505 13.15C10.2505 13.4833 10.5172 13.75 10.8505 13.95C11.2005 14.1333 11.5838 14.225 12.0005 14.225ZM15.6005 16.9L16.9005 15.6L19.7255 18.425L18.4255 19.725L15.6005 16.9ZM4.27549 5.575L5.57549 4.275L8.40049 7.1L7.10049 8.4L4.27549 5.575ZM11.0505 2H12.9505V6H11.0505V2ZM18.0005 11.075H22.0005V12.925H18.0005V11.075ZM15.6005 7.1L18.4255 4.275L19.7255 5.575L16.9005 8.4L15.6005 7.1Z" fill="black"/>
</g>
<defs>
<clipPath id="clip0_3180_17247">
<rect width="24" height="24" fill="white"/>
</clipPath>
</defs>
</svg>
