<svg width="24" height="24" viewBox="0 0 24 24" fill="none" xmlns="http://www.w3.org/2000/svg">
<g clip-path="url(#clip0_3181_25752)">
<rect width="24" height="24" fill="white"/>
<path d="M12.0005 16.375C11.2005 16.375 10.4588 16.1833 9.77549 15.8C9.10882 15.4 8.58382 14.8667 8.20049 14.2C7.81716 13.5333 7.62549 12.8 7.62549 12C7.62549 11.2 7.81716 10.4667 8.20049 9.8C8.58382 9.13333 9.10882 8.60833 9.77549 8.225C10.4588 7.825 11.2005 7.625 12.0005 7.625C12.8005 7.625 13.5338 7.825 14.2005 8.225C14.8838 8.60833 15.4172 9.13333 15.8005 9.8C16.1838 10.4667 16.3755 11.2 16.3755 12C16.3755 12.8 16.1838 13.5333 15.8005 14.2C15.4172 14.8667 14.8838 15.4 14.2005 15.8C13.5338 16.1833 12.8005 16.375 12.0005 16.375ZM3.82549 17.975L6.67549 15.15L8.85049 17.325L6.02549 20.175L3.82549 17.975ZM2.00049 10.45H6.00049V13.55H2.00049V10.45ZM10.4255 18H13.5755V22H10.4255V18ZM12.0005 13.825C12.3338 13.825 12.6338 13.75 12.9005 13.6C13.1838 13.4333 13.4005 13.2167 13.5505 12.95C13.7172 12.6667 13.8005 12.35 13.8005 12C13.8005 11.65 13.7172 11.3417 13.5505 11.075C13.4005 10.7917 13.1838 10.575 12.9005 10.425C12.6338 10.2583 12.3338 10.175 12.0005 10.175C11.6672 10.175 11.3588 10.2583 11.0755 10.425C10.8088 10.575 10.5922 10.7917 10.4255 11.075C10.2755 11.3583 10.2005 11.6667 10.2005 12C10.2005 12.35 10.2755 12.6667 10.4255 12.95C10.5922 13.2167 10.8088 13.4333 11.0755 13.6C11.3588 13.75 11.6672 13.825 12.0005 13.825ZM15.1505 17.325L17.3255 15.15L20.1755 17.975L17.9755 20.175L15.1505 17.325ZM3.82549 6.025L6.02549 3.825L8.82549 6.675L6.67549 8.85L3.82549 6.025ZM10.4255 2H13.5755V6H10.4255V2ZM18.0005 10.45H22.0005V13.55H18.0005V10.45ZM15.1505 6.675L17.9755 3.825L20.1755 6.025L17.3255 8.85L15.1505 6.675Z" fill="black"/>
</g>
<defs>
<clipPath id="clip0_3181_25752">
<rect width="24" height="24" fill="white"/>
</clipPath>
</defs>
</svg>
