<svg width="24" height="24" viewBox="0 0 24 24" fill="none" xmlns="http://www.w3.org/2000/svg">
<g clip-path="url(#clip0_3182_27849)">
<rect width="24" height="24" fill="white"/>
<path d="M12 16.4C11.1667 16.4 10.4083 16.2083 9.725 15.825C9.04167 15.425 8.5 14.8917 8.1 14.225C7.7 13.5417 7.5 12.8 7.5 12C7.5 11.2 7.7 10.4583 8.1 9.775C8.5 9.09167 9.04167 8.55833 9.725 8.175C10.4083 7.775 11.1667 7.575 12 7.575C12.8333 7.575 13.5917 7.775 14.275 8.175C14.9583 8.55833 15.5 9.09167 15.9 9.775C16.3 10.4583 16.5 11.2 16.5 12C16.5 12.8 16.3 13.5417 15.9 14.225C15.5 14.8917 14.9583 15.425 14.275 15.825C13.5917 16.2083 12.8333 16.4 12 16.4ZM2 11.125H6V12.875H2V11.125ZM2 15.25H22V17H2V15.25ZM4.35 5.575L5.575 4.35L8.4 7.175L7.175 8.4L4.35 5.575ZM11.1 2H12.9V6H11.1V2ZM18 11.125H22V12.875H18V11.125ZM15.6 7.175L18.425 4.35L19.65 5.575L16.825 8.4L15.6 7.175ZM10.075 19H12.175H14.05H15.325L12.075 22.25L8.825 19H10.075Z" fill="black"/>
</g>
<defs>
<clipPath id="clip0_3182_27849">
<rect width="24" height="24" fill="white"/>
</clipPath>
</defs>
</svg>
