<svg width="24" height="24" viewBox="0 0 24 24" fill="none" xmlns="http://www.w3.org/2000/svg">
<g clip-path="url(#clip0_3181_26236)">
<rect width="24" height="24" fill="white"/>
<path d="M7.5 21.225C6.58333 21.225 5.74167 21.0083 4.975 20.575C4.20833 20.125 3.6 19.5167 3.15 18.75C2.71667 17.9833 2.5 17.1417 2.5 16.225C2.5 15.525 2.65833 14.8667 2.975 14.25C3.29167 13.6167 3.675 13.075 4.125 12.625C4.59167 12.1583 5.04167 11.8333 5.475 11.65L5.45 13.025V4.775C5.45 4.20833 5.65 3.73333 6.05 3.35C6.45 2.95 6.93333 2.75 7.5 2.75C8.06667 2.75 8.55 2.95 8.95 3.35C9.35 3.73333 9.55 4.20833 9.55 4.775V13.025L9.525 11.65C9.95833 11.8333 10.4 12.1583 10.85 12.625C11.3167 13.075 11.7083 13.6167 12.025 14.25C12.3417 14.8667 12.5 15.525 12.5 16.225C12.5 17.1417 12.275 17.9833 11.825 18.75C11.3917 19.5167 10.7917 20.125 10.025 20.575C9.25833 21.0083 8.41667 21.225 7.5 21.225ZM15.25 3H21V6.3H15.25V3ZM15.25 7.9H21V11.2H15.25V7.9ZM15.25 12.8H21V16.1H15.25V12.8ZM15.25 17.7H21V21H15.25V17.7Z" fill="black"/>
</g>
<defs>
<clipPath id="clip0_3181_26236">
<rect width="24" height="24" fill="white"/>
</clipPath>
</defs>
</svg>
