<svg width="24" height="24" viewBox="0 0 24 24" fill="none" xmlns="http://www.w3.org/2000/svg">
<g clip-path="url(#clip0_3181_26220)">
<rect width="24" height="24" fill="white"/>
<path d="M8.17549 21.25C7.14216 21.25 6.19216 21 5.32549 20.5C4.45882 19.9833 3.77549 19.3 3.27549 18.45C2.77549 17.5833 2.52549 16.625 2.52549 15.575C2.52549 14.725 2.67549 13.9583 2.97549 13.275C3.29216 12.5917 3.68382 12.025 4.15049 11.575C4.63382 11.125 5.12549 10.7833 5.62549 10.55L4.47549 12.275V6.425C4.47549 5.74167 4.63382 5.11667 4.95049 4.55C5.28382 3.98333 5.73382 3.54167 6.30049 3.225C6.86716 2.90833 7.49216 2.75 8.17549 2.75C8.87549 2.75 9.50882 2.90833 10.0755 3.225C10.6422 3.54167 11.0838 3.98333 11.4005 4.55C11.7338 5.11667 11.9005 5.74167 11.9005 6.425V12.275L10.7505 10.55C11.2505 10.7833 11.7338 11.125 12.2005 11.575C12.6838 12.025 13.0755 12.5917 13.3755 13.275C13.6922 13.9583 13.8505 14.725 13.8505 15.575C13.8505 16.625 13.5922 17.5833 13.0755 18.45C12.5755 19.3 11.8922 19.9833 11.0255 20.5C10.1755 21 9.22549 21.25 8.17549 21.25ZM8.17549 18.625C8.72549 18.625 9.22549 18.4917 9.67549 18.225C10.1422 17.9583 10.5088 17.5917 10.7755 17.125C11.0422 16.6417 11.1755 16.125 11.1755 15.575C11.1755 14.825 10.9755 14.2083 10.5755 13.725C10.1755 13.2417 9.72549 12.9 9.22549 12.7L9.17549 6.425C9.17549 6.125 9.08382 5.88333 8.90049 5.7C8.71716 5.51667 8.47549 5.425 8.17549 5.425C7.89216 5.425 7.65882 5.51667 7.47549 5.7C7.29216 5.88333 7.20049 6.125 7.20049 6.425L7.15049 12.7C6.63382 12.9 6.17549 13.2417 5.77549 13.725C5.39216 14.2083 5.20049 14.825 5.20049 15.575C5.20049 16.125 5.33382 16.6417 5.60049 17.125C5.86716 17.5917 6.22549 17.9583 6.67549 18.225C7.14216 18.4917 7.64216 18.625 8.17549 18.625ZM15.6755 3H21.0005V5.85H15.6755V3ZM15.6755 10.575H21.0005V13.425H15.6755V10.575ZM15.6755 18.175H21.0005V21.025H15.6755V18.175ZM11.5755 18.8H11.8255H11.5755Z" fill="black"/>
</g>
<defs>
<clipPath id="clip0_3181_26220">
<rect width="24" height="24" fill="white"/>
</clipPath>
</defs>
</svg>
