<svg width="24" height="24" viewBox="0 0 24 24" fill="none" xmlns="http://www.w3.org/2000/svg">
<g clip-path="url(#clip0_3181_26218)">
<rect width="24" height="24" fill="white"/>
<path d="M7.92549 21.25C6.92549 21.25 6.01715 21.0083 5.20049 20.525C4.38382 20.0417 3.73382 19.3917 3.25049 18.575C2.76716 17.7417 2.52549 16.825 2.52549 15.825C2.52549 15.0083 2.67549 14.275 2.97549 13.625C3.29216 12.9583 3.67549 12.4083 4.12549 11.975C4.57549 11.5417 5.01716 11.2333 5.45049 11.05L4.57549 12.375V6.075C4.57549 5.45833 4.72549 4.9 5.02549 4.4C5.32549 3.88333 5.73382 3.48333 6.25049 3.2C6.76716 2.9 7.33382 2.75 7.95049 2.75C8.55049 2.75 9.10882 2.9 9.62549 3.2C10.1422 3.48333 10.5505 3.88333 10.8505 4.4C11.1505 4.9 11.3005 5.45833 11.3005 6.075V12.375L10.4255 11.05C10.8588 11.2333 11.3005 11.5417 11.7505 11.975C12.2005 12.4083 12.5755 12.9583 12.8755 13.625C13.1922 14.275 13.3505 15.0083 13.3505 15.825C13.3505 16.825 13.1088 17.7417 12.6255 18.575C12.1422 19.3917 11.4838 20.0417 10.6505 20.525C9.83382 21.0083 8.92549 21.25 7.92549 21.25ZM7.92549 19.125C8.52549 19.125 9.07549 18.9833 9.57549 18.7C10.0755 18.4 10.4672 18 10.7505 17.5C11.0338 16.9833 11.1755 16.425 11.1755 15.825C11.1755 15.0417 10.9672 14.4 10.5505 13.9C10.1505 13.3833 9.68382 13.0083 9.15049 12.775L9.10049 6.075C9.10049 5.74167 8.98382 5.46667 8.75049 5.25C8.53382 5.01667 8.25882 4.9 7.92549 4.9C7.60882 4.9 7.33382 5.01667 7.10049 5.25C6.88382 5.46667 6.77549 5.74167 6.77549 6.075L6.72549 12.775C6.17549 13.0083 5.69216 13.3833 5.27549 13.9C4.87549 14.4 4.67549 15.0417 4.67549 15.825C4.67549 16.425 4.81716 16.9833 5.10049 17.5C5.38382 18 5.77549 18.4 6.27549 18.7C6.77549 18.9833 7.32549 19.125 7.92549 19.125ZM15.3255 3H21.0005V5.175H15.3255V3ZM15.3255 8.275H21.0005V10.45H15.3255V8.275ZM15.3255 13.55H21.0005V15.725H15.3255V13.55ZM15.3255 18.825H21.0005V21H15.3255V18.825Z" fill="black"/>
</g>
<defs>
<clipPath id="clip0_3181_26218">
<rect width="24" height="24" fill="white"/>
</clipPath>
</defs>
</svg>
