<svg width="24" height="24" viewBox="0 0 24 24" fill="none" xmlns="http://www.w3.org/2000/svg">
<g clip-path="url(#clip0_3181_26222)">
<rect width="24" height="24" fill="white"/>
<path d="M8.40049 21.25C7.31716 21.25 6.32549 20.9917 5.42549 20.475C4.52549 19.9417 3.80882 19.225 3.27549 18.325C2.75882 17.4083 2.50049 16.4083 2.50049 15.325C2.50049 14.475 2.65049 13.7167 2.95049 13.05C3.25049 12.3667 3.64216 11.7917 4.12549 11.325C4.62549 10.8417 5.18382 10.4333 5.80049 10.1L4.17549 12.075V6.95C4.17549 6.13333 4.35049 5.40833 4.70049 4.775C5.06716 4.14167 5.56716 3.65 6.20049 3.3C6.85049 2.93333 7.58382 2.75 8.40049 2.75C9.21716 2.75 9.94216 2.93333 10.5755 3.3C11.2255 3.65 11.7255 4.14167 12.0755 4.775C12.4422 5.40833 12.6255 6.13333 12.6255 6.95V12.075L11.0005 10.1C11.6172 10.4333 12.1672 10.8417 12.6505 11.325C13.1505 11.7917 13.5505 12.3667 13.8505 13.05C14.1505 13.7167 14.3005 14.475 14.3005 15.325C14.3005 16.4083 14.0338 17.4083 13.5005 18.325C12.9838 19.225 12.2755 19.9417 11.3755 20.475C10.4755 20.9917 9.48382 21.25 8.40049 21.25ZM8.40049 17.9C8.86716 17.9 9.28382 17.7917 9.65049 17.575C10.0338 17.3417 10.3338 17.0333 10.5505 16.65C10.7838 16.25 10.9005 15.8083 10.9005 15.325C10.9005 14.675 10.7255 14.15 10.3755 13.75C10.0255 13.3333 9.63382 13.0583 9.20049 12.925L9.22549 6.95C9.22549 6.7 9.14216 6.5 8.97549 6.35C8.82549 6.18333 8.63382 6.1 8.40049 6.1C8.16716 6.1 7.96716 6.18333 7.80049 6.35C7.65049 6.5 7.57549 6.7 7.57549 6.95L7.60049 12.925C7.16716 13.0583 6.77549 13.3333 6.42549 13.75C6.07549 14.15 5.90049 14.675 5.90049 15.325C5.90049 15.8083 6.00882 16.25 6.22549 16.65C6.45882 17.0333 6.75882 17.3417 7.12549 17.575C7.50882 17.7917 7.93382 17.9 8.40049 17.9ZM16.0005 3H21.0005V6.75H16.0005V3ZM16.0005 10.125H21.0005V13.875H16.0005V10.125ZM16.0005 17.25H21.0005V21H16.0005V17.25ZM11.0005 19.075H11.2505H11.0005Z" fill="black"/>
</g>
<defs>
<clipPath id="clip0_3181_26222">
<rect width="24" height="24" fill="white"/>
</clipPath>
</defs>
</svg>
