<svg width="24" height="24" viewBox="0 0 24 24" fill="none" xmlns="http://www.w3.org/2000/svg">
<g clip-path="url(#clip0_3179_16340)">
<rect width="24" height="24" fill="white"/>
<path d="M18.5005 22C17.9338 22 17.4588 21.8083 17.0755 21.425C16.6922 21.0417 16.5005 20.575 16.5005 20.025C16.5005 19.475 16.6922 19.0083 17.0755 18.625C17.4588 18.2417 17.9338 18.05 18.5005 18.05C19.0672 18.05 19.5422 18.2417 19.9255 18.625C20.3088 19.0083 20.5005 19.475 20.5005 20.025C20.5005 20.575 20.3088 21.0417 19.9255 21.425C19.5422 21.8083 19.0672 22 18.5005 22ZM18.5255 21.55C18.9422 21.55 19.2922 21.4 19.5755 21.1C19.8755 20.8 20.0255 20.4417 20.0255 20.025C20.0255 19.5917 19.8755 19.2333 19.5755 18.95C19.2922 18.65 18.9422 18.5 18.5255 18.5C18.0922 18.5 17.7255 18.65 17.4255 18.95C17.1255 19.2333 16.9755 19.5917 16.9755 20.025C16.9755 20.4417 17.1255 20.8 17.4255 21.1C17.7255 21.4 18.0922 21.55 18.5255 21.55ZM5.50049 22C4.93382 22 4.45882 21.8083 4.07549 21.425C3.69215 21.0417 3.50049 20.575 3.50049 20.025C3.50049 19.475 3.69215 19.0083 4.07549 18.625C4.45882 18.2417 4.93382 18.05 5.50049 18.05C6.06716 18.05 6.54216 18.2417 6.92549 18.625C7.30882 19.0083 7.50049 19.475 7.50049 20.025C7.50049 20.575 7.30882 21.0417 6.92549 21.425C6.54216 21.8083 6.06716 22 5.50049 22ZM5.52549 21.55C5.94216 21.55 6.29216 21.4 6.57549 21.1C6.87549 20.8 7.02549 20.4417 7.02549 20.025C7.02549 19.5917 6.87549 19.2333 6.57549 18.95C6.29216 18.65 5.94216 18.5 5.52549 18.5C5.09216 18.5 4.72549 18.65 4.42549 18.95C4.12549 19.2333 3.97549 19.5917 3.97549 20.025C3.97549 20.4417 4.12549 20.8 4.42549 21.1C4.72549 21.4 5.09216 21.55 5.52549 21.55ZM12.8505 18.5H10.0755L10.5755 15.75H11.1005L10.6755 18.025H13.4505L12.7005 22H12.2005L12.8505 18.5ZM5.77549 16C5.00882 16 4.30049 15.8167 3.65049 15.45C3.01716 15.0833 2.50882 14.5833 2.12549 13.95C1.75882 13.3 1.57549 12.5917 1.57549 11.825C1.57549 11.0583 1.75882 10.3583 2.12549 9.725C2.50882 9.075 3.01716 8.56667 3.65049 8.2C4.30049 7.81667 5.00882 7.625 5.77549 7.625H7.85049L7.40049 7.975C7.40049 7.15833 7.60049 6.40833 8.00049 5.725C8.41716 5.025 8.97549 4.475 9.67549 4.075C10.3755 3.675 11.1505 3.475 12.0005 3.475C12.8505 3.475 13.6255 3.675 14.3255 4.075C15.0255 4.475 15.5755 5.025 15.9755 5.725C16.3922 6.40833 16.6005 7.15833 16.6005 7.975L16.2005 7.625H18.2255C18.9922 7.625 19.6922 7.81667 20.3255 8.2C20.9755 8.56667 21.4838 9.075 21.8505 9.725C22.2338 10.3583 22.4255 11.0583 22.4255 11.825C22.4255 12.5917 22.2338 13.3 21.8505 13.95C21.4838 14.5833 20.9755 15.0833 20.3255 15.45C19.6922 15.8167 18.9922 16 18.2255 16H5.77549ZM18.2255 15.525C18.9088 15.525 19.5338 15.3667 20.1005 15.05C20.6672 14.7167 21.1088 14.2667 21.4255 13.7C21.7588 13.1333 21.9255 12.5083 21.9255 11.825C21.9255 11.1417 21.7588 10.5167 21.4255 9.95C21.1088 9.38333 20.6672 8.93333 20.1005 8.6C19.5338 8.26667 18.9088 8.1 18.2255 8.1H16.1255V8.05C16.1255 7.3 15.9422 6.61667 15.5755 6C15.2088 5.36667 14.7088 4.86667 14.0755 4.5C13.4422 4.13333 12.7505 3.95 12.0005 3.95C11.2505 3.95 10.5588 4.13333 9.92549 4.5C9.29216 4.86667 8.79216 5.36667 8.42549 6C8.05882 6.61667 7.87549 7.3 7.87549 8.05V8.1H5.77549C5.09216 8.1 4.46716 8.26667 3.90049 8.6C3.33382 8.93333 2.88382 9.38333 2.55049 9.95C2.23382 10.5167 2.07549 11.1417 2.07549 11.825C2.07549 12.5083 2.23382 13.1333 2.55049 13.7C2.88382 14.2667 3.33382 14.7167 3.90049 15.05C4.46716 15.3667 5.09216 15.525 5.77549 15.525H18.2255Z" fill="black"/>
</g>
<defs>
<clipPath id="clip0_3179_16340">
<rect width="24" height="24" fill="white"/>
</clipPath>
</defs>
</svg>
