<svg width="24" height="24" viewBox="0 0 24 24" fill="none" xmlns="http://www.w3.org/2000/svg">
<g clip-path="url(#clip0_3180_17967)">
<rect width="24" height="24" fill="white"/>
<path d="M5.775 16.025C5.00833 16.025 4.3 15.8417 3.65 15.475C3.01667 15.0917 2.50833 14.5833 2.125 13.95C1.75833 13.3 1.575 12.5917 1.575 11.825C1.575 11.0583 1.75833 10.3583 2.125 9.725C2.50833 9.075 3.01667 8.56667 3.65 8.2C4.3 7.81667 5.00833 7.625 5.775 7.625H7.85L7.4 7.975C7.4 7.15833 7.6 6.40833 8 5.725C8.41667 5.04167 8.975 4.5 9.675 4.1C10.375 3.7 11.15 3.5 12 3.5C12.85 3.5 13.625 3.7 14.325 4.1C15.025 4.5 15.575 5.04167 15.975 5.725C16.3917 6.40833 16.6 7.15833 16.6 7.975L16.2 7.625H18.225C18.9917 7.625 19.6917 7.81667 20.325 8.2C20.975 8.56667 21.4833 9.075 21.85 9.725C22.2333 10.3583 22.425 11.0583 22.425 11.825C22.425 12.5917 22.2333 13.3 21.85 13.95C21.4833 14.5833 20.975 15.0917 20.325 15.475C19.6917 15.8417 18.9917 16.025 18.225 16.025H5.775ZM18.375 22C17.7917 22 17.3 21.8 16.9 21.4C16.5 21 16.3 20.5167 16.3 19.95C16.3 19.3667 16.5 18.875 16.9 18.475C17.3 18.075 17.7917 17.875 18.375 17.875C18.9583 17.875 19.45 18.075 19.85 18.475C20.25 18.875 20.45 19.3667 20.45 19.95C20.45 20.5167 20.25 21 19.85 21.4C19.45 21.8 18.9583 22 18.375 22ZM5.625 22C5.04167 22 4.55 21.8 4.15 21.4C3.75 21 3.55 20.5167 3.55 19.95C3.55 19.3667 3.75 18.875 4.15 18.475C4.55 18.075 5.04167 17.875 5.625 17.875C6.20833 17.875 6.7 18.075 7.1 18.475C7.5 18.875 7.7 19.3667 7.7 19.95C7.7 20.5167 7.5 21 7.1 21.4C6.7 21.8 6.20833 22 5.625 22ZM11.65 19.975H9.175L10.325 13.825H12.875L12.175 17.775H14.8L13.675 22H11.325L11.65 19.975Z" fill="black"/>
</g>
<defs>
<clipPath id="clip0_3180_17967">
<rect width="24" height="24" fill="white"/>
</clipPath>
</defs>
</svg>
