<svg width="24" height="24" viewBox="0 0 24 24" fill="none" xmlns="http://www.w3.org/2000/svg">
<g clip-path="url(#clip0_3180_17951)">
<rect width="24" height="24" fill="white"/>
<path d="M18.3255 22C17.8588 22 17.4588 21.8333 17.1255 21.5C16.7922 21.1667 16.6255 20.7667 16.6255 20.3C16.6255 19.8167 16.7922 19.4083 17.1255 19.075C17.4588 18.7417 17.8588 18.575 18.3255 18.575C18.8088 18.575 19.2172 18.7417 19.5505 19.075C19.8838 19.4083 20.0505 19.8167 20.0505 20.3C20.0505 20.7667 19.8838 21.1667 19.5505 21.5C19.2172 21.8333 18.8088 22 18.3255 22ZM18.3255 20.3C18.1588 20.3 18.0338 20.3 17.9505 20.3C17.8838 20.3 17.7672 20.3 17.6005 20.3C17.7672 20.3 17.8838 20.3 17.9505 20.3C18.0338 20.3 18.1588 20.3 18.3255 20.3C18.5088 20.3 18.6338 20.3 18.7005 20.3C18.7838 20.3 18.9088 20.3 19.0755 20.3C18.9088 20.3 18.7838 20.3 18.7005 20.3C18.6172 20.3 18.4922 20.3 18.3255 20.3ZM5.67549 22C5.19216 22 4.78382 21.8333 4.45049 21.5C4.11716 21.1667 3.95049 20.7667 3.95049 20.3C3.95049 19.8167 4.11716 19.4083 4.45049 19.075C4.78382 18.7417 5.19216 18.575 5.67549 18.575C6.15882 18.575 6.55882 18.7417 6.87549 19.075C7.20882 19.4083 7.37549 19.8167 7.37549 20.3C7.37549 20.7667 7.20882 21.1667 6.87549 21.5C6.55882 21.8333 6.15882 22 5.67549 22ZM5.67549 20.3C5.49216 20.3 5.35882 20.3 5.27549 20.3C5.20882 20.3 5.09216 20.3 4.92549 20.3C5.09216 20.3 5.21716 20.3 5.30049 20.3C5.38382 20.3 5.50882 20.3 5.67549 20.3C5.84216 20.3 5.95882 20.3 6.02549 20.3C6.10882 20.3 6.23382 20.3 6.40049 20.3C6.23382 20.3 6.10882 20.3 6.02549 20.3C5.95882 20.3 5.84216 20.3 5.67549 20.3ZM11.8505 19.75H9.45049L10.4755 14.2H12.6255L11.9755 17.85H14.5755L13.3005 22H11.5255L11.8505 19.75ZM6.40049 16C5.51716 16 4.70049 15.7917 3.95049 15.375C3.21716 14.9417 2.63382 14.3583 2.20049 13.625C1.78382 12.8917 1.57549 12.0833 1.57549 11.2C1.57549 10.3167 1.78382 9.50833 2.20049 8.775C2.63382 8.04167 3.21716 7.46667 3.95049 7.05C4.70049 6.61667 5.51716 6.4 6.40049 6.4H8.77549L6.87549 8.35C6.87549 7.48333 7.10049 6.675 7.55049 5.925C8.01716 5.175 8.64216 4.58333 9.42549 4.15C10.2088 3.7 11.0672 3.475 12.0005 3.475C12.9338 3.475 13.7922 3.7 14.5755 4.15C15.3588 4.58333 15.9755 5.175 16.4255 5.925C16.8922 6.675 17.1255 7.48333 17.1255 8.35L15.5505 6.4H17.5755C18.4755 6.4 19.2922 6.61667 20.0255 7.05C20.7755 7.46667 21.3588 8.04167 21.7755 8.775C22.2088 9.50833 22.4255 10.3167 22.4255 11.2C22.4255 12.0833 22.2088 12.8917 21.7755 13.625C21.3588 14.3583 20.7755 14.9417 20.0255 15.375C19.2922 15.7917 18.4755 16 17.5755 16H6.40049ZM17.5755 13.625C18.0255 13.625 18.4338 13.5167 18.8005 13.3C19.1672 13.0833 19.4588 12.7917 19.6755 12.425C19.8922 12.0417 20.0005 11.6333 20.0005 11.2C20.0005 10.7667 19.8922 10.3667 19.6755 10C19.4588 9.61667 19.1672 9.325 18.8005 9.125C18.4338 8.90833 18.0255 8.8 17.5755 8.8H14.7005V8.6C14.7005 8.1 14.5755 7.64167 14.3255 7.225C14.0922 6.79167 13.7672 6.45833 13.3505 6.225C12.9505 5.975 12.5005 5.85 12.0005 5.85C11.5005 5.85 11.0422 5.975 10.6255 6.225C10.2255 6.45833 9.90049 6.79167 9.65049 7.225C9.41716 7.64167 9.30049 8.1 9.30049 8.6V8.8H6.40049C5.96716 8.8 5.56716 8.90833 5.20049 9.125C4.83382 9.325 4.54216 9.61667 4.32549 10C4.10882 10.3667 4.00049 10.7667 4.00049 11.2C4.00049 11.65 4.10882 12.0583 4.32549 12.425C4.54216 12.7917 4.83382 13.0833 5.20049 13.3C5.56716 13.5167 5.96716 13.625 6.40049 13.625H17.5755Z" fill="black"/>
</g>
<defs>
<clipPath id="clip0_3180_17951">
<rect width="24" height="24" fill="white"/>
</clipPath>
</defs>
</svg>
