<svg width="24" height="24" viewBox="0 0 24 24" fill="none" xmlns="http://www.w3.org/2000/svg">
<g clip-path="url(#clip0_3181_26560)">
<rect width="24" height="24" fill="white"/>
<path d="M18.5005 22C17.8338 22 17.2672 21.775 16.8005 21.325C16.3505 20.8583 16.1255 20.2917 16.1255 19.625C16.1255 18.9583 16.3505 18.4 16.8005 17.95C17.2672 17.4833 17.8338 17.25 18.5005 17.25C19.1838 17.25 19.7505 17.4833 20.2005 17.95C20.6505 18.4 20.8755 18.9583 20.8755 19.625C20.8755 20.2917 20.6505 20.8583 20.2005 21.325C19.7505 21.775 19.1838 22 18.5005 22ZM18.5005 19.625C18.2838 19.625 18.1255 19.625 18.0255 19.625C17.9255 19.625 17.7755 19.625 17.5755 19.625C17.7922 19.625 17.9505 19.625 18.0505 19.625C18.1505 19.625 18.3005 19.625 18.5005 19.625C18.7172 19.625 18.8755 19.625 18.9755 19.625C19.0755 19.625 19.2255 19.625 19.4255 19.625C19.2088 19.625 19.0505 19.625 18.9505 19.625C18.8505 19.625 18.7005 19.625 18.5005 19.625ZM5.50049 22C4.83382 22 4.26716 21.775 3.80049 21.325C3.35049 20.8583 3.12549 20.2917 3.12549 19.625C3.12549 18.9583 3.35049 18.4 3.80049 17.95C4.26716 17.4833 4.83382 17.25 5.50049 17.25C6.18382 17.25 6.75049 17.4833 7.20049 17.95C7.65049 18.4 7.87549 18.9583 7.87549 19.625C7.87549 20.2917 7.65049 20.8583 7.20049 21.325C6.75049 21.775 6.18382 22 5.50049 22ZM5.50049 19.625C5.28382 19.625 5.12549 19.625 5.02549 19.625C4.92549 19.625 4.77549 19.625 4.57549 19.625C4.79216 19.625 4.95049 19.625 5.05049 19.625C5.15049 19.625 5.30049 19.625 5.50049 19.625C5.71716 19.625 5.87549 19.625 5.97549 19.625C6.07549 19.625 6.22549 19.625 6.42549 19.625C6.20882 19.625 6.05049 19.625 5.95049 19.625C5.85049 19.625 5.70049 19.625 5.50049 19.625ZM11.3005 20.225H8.90049L10.2005 13.475H13.2505L12.5005 17.55H15.0005L14.0755 22H11.0005L11.3005 20.225ZM6.65049 16C5.71716 16 4.85882 15.7833 4.07549 15.35C3.30882 14.9 2.70049 14.3 2.25049 13.55C1.80049 12.7833 1.57549 11.9333 1.57549 11C1.57549 10.0667 1.80049 9.21667 2.25049 8.45C2.70049 7.68333 3.30882 7.08333 4.07549 6.65C4.85882 6.2 5.71716 5.975 6.65049 5.975H8.87549L6.57549 8.825C6.57549 7.89167 6.82549 7.01667 7.32549 6.2C7.82549 5.38333 8.49216 4.725 9.32549 4.225C10.1588 3.725 11.0505 3.475 12.0005 3.475C12.9505 3.475 13.8422 3.725 14.6755 4.225C15.5088 4.725 16.1755 5.38333 16.6755 6.2C17.1755 7.01667 17.4255 7.89167 17.4255 8.825L15.4255 5.975H17.3505C18.2838 5.975 19.1338 6.2 19.9005 6.65C20.6838 7.08333 21.3005 7.68333 21.7505 8.45C22.2005 9.21667 22.4255 10.0667 22.4255 11C22.4255 11.9333 22.2005 12.7833 21.7505 13.55C21.3005 14.3 20.6838 14.9 19.9005 15.35C19.1338 15.7833 18.2838 16 17.3505 16H6.65049ZM17.3505 12.55C17.6338 12.55 17.8922 12.4833 18.1255 12.35C18.3755 12.2 18.5672 12.0083 18.7005 11.775C18.8505 11.5417 18.9255 11.2833 18.9255 11C18.9255 10.7167 18.8505 10.4583 18.7005 10.225C18.5672 9.975 18.3755 9.78333 18.1255 9.65C17.8922 9.5 17.6338 9.425 17.3505 9.425H13.9755V8.875C13.9755 8.525 13.8838 8.2 13.7005 7.9C13.5338 7.6 13.2922 7.36667 12.9755 7.2C12.6755 7.01667 12.3505 6.925 12.0005 6.925C11.6505 6.925 11.3172 7.01667 11.0005 7.2C10.7005 7.36667 10.4588 7.6 10.2755 7.9C10.1088 8.2 10.0255 8.525 10.0255 8.875V9.425H6.65049C6.36716 9.425 6.10049 9.5 5.85049 9.65C5.61716 9.78333 5.42549 9.975 5.27549 10.225C5.14216 10.4583 5.07549 10.7167 5.07549 11C5.07549 11.2833 5.14216 11.5417 5.27549 11.775C5.42549 12.0083 5.61716 12.2 5.85049 12.35C6.10049 12.4833 6.36716 12.55 6.65049 12.55H17.3505Z" fill="black"/>
</g>
<defs>
<clipPath id="clip0_3181_26560">
<rect width="24" height="24" fill="white"/>
</clipPath>
</defs>
</svg>
