<svg width="24" height="24" viewBox="0 0 24 24" fill="none" xmlns="http://www.w3.org/2000/svg">
<g clip-path="url(#clip0_3180_17487)">
<rect width="24" height="24" fill="white"/>
<path d="M11.4005 19.225H8.90049L10.2005 12.475H13.1505L12.4005 16.65H15.0005L14.0755 21H11.1005L11.4005 19.225ZM19.9255 16.525V21H16.5755V16.525H19.9255ZM7.42549 16.525V21H4.07549V16.525H7.42549ZM6.65049 15C5.71716 15 4.85882 14.7833 4.07549 14.35C3.30882 13.9 2.70049 13.3 2.25049 12.55C1.80049 11.7833 1.57549 10.9333 1.57549 10C1.57549 9.06667 1.80049 8.21667 2.25049 7.45C2.70049 6.68333 3.30882 6.08333 4.07549 5.65C4.85882 5.2 5.71716 4.975 6.65049 4.975H8.87549L6.57549 7.825C6.57549 6.89167 6.82549 6.01667 7.32549 5.2C7.82549 4.38333 8.49216 3.725 9.32549 3.225C10.1588 2.725 11.0505 2.475 12.0005 2.475C12.9505 2.475 13.8422 2.725 14.6755 3.225C15.5088 3.725 16.1755 4.38333 16.6755 5.2C17.1755 6.01667 17.4255 6.89167 17.4255 7.825L15.4255 4.975H17.3505C18.2838 4.975 19.1338 5.2 19.9005 5.65C20.6838 6.08333 21.3005 6.68333 21.7505 7.45C22.2005 8.21667 22.4255 9.06667 22.4255 10C22.4255 10.9333 22.2005 11.7833 21.7505 12.55C21.3005 13.3 20.6838 13.9 19.9005 14.35C19.1338 14.7833 18.2838 15 17.3505 15H6.65049ZM17.3505 11.55C17.6338 11.55 17.8922 11.4833 18.1255 11.35C18.3755 11.2 18.5672 11.0083 18.7005 10.775C18.8505 10.5417 18.9255 10.2833 18.9255 10C18.9255 9.71667 18.8505 9.45833 18.7005 9.225C18.5672 8.975 18.3755 8.78333 18.1255 8.65C17.8922 8.5 17.6338 8.425 17.3505 8.425H13.9755V7.875C13.9755 7.525 13.8838 7.2 13.7005 6.9C13.5338 6.6 13.2922 6.36667 12.9755 6.2C12.6755 6.01667 12.3505 5.925 12.0005 5.925C11.6505 5.925 11.3172 6.01667 11.0005 6.2C10.7005 6.36667 10.4588 6.6 10.2755 6.9C10.1088 7.2 10.0255 7.525 10.0255 7.875V8.425H6.65049C6.36716 8.425 6.10049 8.5 5.85049 8.65C5.61716 8.78333 5.42549 8.975 5.27549 9.225C5.14216 9.45833 5.07549 9.71667 5.07549 10C5.07549 10.2833 5.14216 10.5417 5.27549 10.775C5.42549 11.0083 5.61716 11.2 5.85049 11.35C6.10049 11.4833 6.36716 11.55 6.65049 11.55H17.3505Z" fill="black"/>
</g>
<defs>
<clipPath id="clip0_3180_17487">
<rect width="24" height="24" fill="white"/>
</clipPath>
</defs>
</svg>
