<svg width="24" height="24" viewBox="0 0 24 24" fill="none" xmlns="http://www.w3.org/2000/svg">
<g clip-path="url(#clip0_3181_27556)">
<rect width="24" height="24" fill="white"/>
<path d="M16.6005 18.375C16.9838 18.375 17.3088 18.3167 17.5755 18.2C17.8588 18.0667 18.1755 17.875 18.5255 17.625C18.9588 17.325 19.3422 17.1 19.6755 16.95C20.0088 16.8 20.4505 16.725 21.0005 16.725V19.075C20.6838 19.075 20.4088 19.125 20.1755 19.225C19.9588 19.325 19.6672 19.5 19.3005 19.75C18.8838 20.0667 18.4838 20.3083 18.1005 20.475C17.7172 20.6417 17.2172 20.725 16.6005 20.725C16.0005 20.725 15.5088 20.65 15.1255 20.5C14.7422 20.3333 14.3422 20.1 13.9255 19.8C13.5255 19.5333 13.2005 19.35 12.9505 19.25C12.7005 19.1333 12.3838 19.075 12.0005 19.075C11.6172 19.075 11.2922 19.1333 11.0255 19.25C10.7588 19.3667 10.4422 19.55 10.0755 19.8C9.64216 20.1 9.23382 20.3333 8.85049 20.5C8.48382 20.65 8.00049 20.725 7.40049 20.725C6.78382 20.725 6.28382 20.6417 5.90049 20.475C5.51716 20.3083 5.11716 20.0667 4.70049 19.75C4.33382 19.5 4.03382 19.325 3.80049 19.225C3.58382 19.125 3.31716 19.075 3.00049 19.075V16.725C3.55049 16.725 3.99216 16.8 4.32549 16.95C4.65882 17.1 5.04216 17.325 5.47549 17.625C5.82549 17.875 6.13382 18.0667 6.40049 18.2C6.68382 18.3167 7.01716 18.375 7.40049 18.375C7.78382 18.375 8.10882 18.3167 8.37549 18.2C8.64216 18.0833 8.95882 17.9 9.32549 17.65C9.75882 17.35 10.1588 17.125 10.5255 16.975C10.9088 16.8083 11.4005 16.725 12.0005 16.725C12.6005 16.725 13.0922 16.8083 13.4755 16.975C13.8588 17.125 14.2588 17.35 14.6755 17.65C15.0755 17.9167 15.4005 18.1083 15.6505 18.225C15.9005 18.325 16.2172 18.375 16.6005 18.375ZM16.6005 4.925C16.9838 4.925 17.3088 4.86667 17.5755 4.75C17.8588 4.61667 18.1755 4.41667 18.5255 4.15C18.9588 3.85 19.3422 3.625 19.6755 3.475C20.0088 3.325 20.4505 3.25 21.0005 3.25V5.6C20.6838 5.6 20.4088 5.65833 20.1755 5.775C19.9588 5.875 19.6672 6.05 19.3005 6.3C18.8838 6.61667 18.4838 6.85833 18.1005 7.025C17.7172 7.19167 17.2172 7.275 16.6005 7.275C16.0005 7.275 15.5088 7.2 15.1255 7.05C14.7422 6.88333 14.3422 6.64167 13.9255 6.325C13.5255 6.075 13.2005 5.89167 12.9505 5.775C12.7005 5.65833 12.3838 5.6 12.0005 5.6C11.6172 5.6 11.2922 5.65833 11.0255 5.775C10.7588 5.89167 10.4422 6.075 10.0755 6.325C9.64216 6.64167 9.23382 6.88333 8.85049 7.05C8.48382 7.2 8.00049 7.275 7.40049 7.275C6.78382 7.275 6.28382 7.19167 5.90049 7.025C5.51716 6.85833 5.11716 6.61667 4.70049 6.3C4.33382 6.05 4.03382 5.875 3.80049 5.775C3.58382 5.65833 3.31716 5.6 3.00049 5.6V3.25C3.55049 3.25 3.99216 3.325 4.32549 3.475C4.65882 3.625 5.04216 3.85 5.47549 4.15C5.82549 4.41667 6.13382 4.61667 6.40049 4.75C6.68382 4.86667 7.01716 4.925 7.40049 4.925C7.78382 4.925 8.10882 4.86667 8.37549 4.75C8.64216 4.61667 8.95882 4.425 9.32549 4.175C9.75882 3.875 10.1588 3.65 10.5255 3.5C10.9088 3.33333 11.4005 3.25 12.0005 3.25C12.6005 3.25 13.0922 3.33333 13.4755 3.5C13.8588 3.65 14.2588 3.875 14.6755 4.175C15.0755 4.44167 15.4005 4.63333 15.6505 4.75C15.9005 4.86667 16.2172 4.925 16.6005 4.925ZM16.6005 11.65C16.9838 11.65 17.3088 11.5917 17.5755 11.475C17.8588 11.3417 18.1755 11.15 18.5255 10.9C18.9588 10.5833 19.3422 10.35 19.6755 10.2C20.0088 10.05 20.4505 9.975 21.0005 9.975V12.325C20.6838 12.325 20.4088 12.3833 20.1755 12.5C19.9588 12.6 19.6672 12.775 19.3005 13.025C18.8838 13.3417 18.4838 13.5833 18.1005 13.75C17.7172 13.9167 17.2172 14 16.6005 14C16.0005 14 15.5088 13.925 15.1255 13.775C14.7422 13.6083 14.3422 13.375 13.9255 13.075C13.5255 12.8083 13.2005 12.6167 12.9505 12.5C12.7005 12.3833 12.3838 12.325 12.0005 12.325C11.6172 12.325 11.2922 12.3917 11.0255 12.525C10.7588 12.6417 10.4422 12.825 10.0755 13.075C9.64216 13.375 9.23382 13.6083 8.85049 13.775C8.48382 13.925 8.00049 14 7.40049 14C6.78382 14 6.28382 13.9167 5.90049 13.75C5.51716 13.5833 5.11716 13.3417 4.70049 13.025C4.33382 12.775 4.03382 12.6 3.80049 12.5C3.58382 12.3833 3.31716 12.325 3.00049 12.325V9.975C3.55049 9.975 3.99216 10.05 4.32549 10.2C4.65882 10.35 5.04216 10.5833 5.47549 10.9C5.82549 11.15 6.13382 11.3417 6.40049 11.475C6.68382 11.5917 7.01716 11.65 7.40049 11.65C7.78382 11.65 8.10882 11.5917 8.37549 11.475C8.64216 11.3583 8.95882 11.175 9.32549 10.925C9.75882 10.6083 10.1588 10.375 10.5255 10.225C10.9088 10.0583 11.4005 9.975 12.0005 9.975C12.6005 9.975 13.0922 10.0583 13.4755 10.225C13.8588 10.375 14.2588 10.6083 14.6755 10.925C15.0755 11.175 15.4005 11.3583 15.6505 11.475C15.9005 11.5917 16.2172 11.65 16.6005 11.65Z" fill="black"/>
</g>
<defs>
<clipPath id="clip0_3181_27556">
<rect width="24" height="24" fill="white"/>
</clipPath>
</defs>
</svg>
