<svg width="24" height="24" viewBox="0 0 24 24" fill="none" xmlns="http://www.w3.org/2000/svg">
<g clip-path="url(#clip0_3180_17767)">
<rect width="24" height="24" fill="white"/>
<path d="M16.6005 19.95C16.9838 19.95 17.3088 19.875 17.5755 19.725C17.8422 19.575 18.1422 19.35 18.4755 19.05C18.8922 18.6833 19.2755 18.4083 19.6255 18.225C19.9755 18.0417 20.4338 17.95 21.0005 17.95V19.75C20.6838 19.75 20.4172 19.8167 20.2005 19.95C19.9838 20.0667 19.7005 20.275 19.3505 20.575C18.9338 20.9583 18.5338 21.25 18.1505 21.45C17.7672 21.65 17.2505 21.75 16.6005 21.75C15.9838 21.75 15.4838 21.6583 15.1005 21.475C14.7172 21.275 14.3088 20.9917 13.8755 20.625C13.4922 20.3083 13.1755 20.0833 12.9255 19.95C12.6922 19.8167 12.3838 19.75 12.0005 19.75C11.6172 19.75 11.2922 19.825 11.0255 19.975C10.7755 20.1083 10.4755 20.325 10.1255 20.625C9.69216 20.9917 9.28382 21.275 8.90049 21.475C8.51716 21.6583 8.01716 21.75 7.40049 21.75C6.75049 21.75 6.23382 21.65 5.85049 21.45C5.46716 21.25 5.06716 20.9583 4.65049 20.575C4.30049 20.275 4.01716 20.0667 3.80049 19.95C3.58382 19.8167 3.31716 19.75 3.00049 19.75V17.95C3.56716 17.95 4.02549 18.0417 4.37549 18.225C4.72549 18.4083 5.10882 18.6833 5.52549 19.05C5.85882 19.35 6.15882 19.575 6.42549 19.725C6.69215 19.875 7.01716 19.95 7.40049 19.95C7.78382 19.95 8.10049 19.8833 8.35049 19.75C8.61716 19.6 8.92549 19.375 9.27549 19.075C9.70882 18.7083 10.1172 18.4333 10.5005 18.25C10.8838 18.05 11.3838 17.95 12.0005 17.95C12.6172 17.95 13.1172 18.05 13.5005 18.25C13.8838 18.4333 14.2922 18.7083 14.7255 19.075C15.1088 19.3917 15.4172 19.6167 15.6505 19.75C15.9005 19.8833 16.2172 19.95 16.6005 19.95ZM16.6005 6.25C16.9838 6.25 17.3088 6.175 17.5755 6.025C17.8422 5.875 18.1422 5.65 18.4755 5.35C18.8922 4.98333 19.2755 4.70833 19.6255 4.525C19.9755 4.34167 20.4338 4.25 21.0005 4.25V6.05C20.6838 6.05 20.4172 6.11667 20.2005 6.25C19.9838 6.36667 19.7005 6.575 19.3505 6.875C18.9338 7.25833 18.5338 7.55 18.1505 7.75C17.7672 7.95 17.2505 8.05 16.6005 8.05C15.9838 8.05 15.4838 7.95833 15.1005 7.775C14.7172 7.575 14.3088 7.29167 13.8755 6.925C13.4922 6.60833 13.1755 6.38333 12.9255 6.25C12.6922 6.11667 12.3838 6.05 12.0005 6.05C11.6172 6.05 11.2922 6.125 11.0255 6.275C10.7755 6.40833 10.4755 6.625 10.1255 6.925C9.69216 7.29167 9.28382 7.575 8.90049 7.775C8.51716 7.95833 8.01716 8.05 7.40049 8.05C6.75049 8.05 6.23382 7.95 5.85049 7.75C5.46716 7.55 5.06716 7.25833 4.65049 6.875C4.30049 6.575 4.01716 6.36667 3.80049 6.25C3.58382 6.11667 3.31716 6.05 3.00049 6.05V4.25C3.56716 4.25 4.02549 4.34167 4.37549 4.525C4.72549 4.70833 5.10882 4.98333 5.52549 5.35C5.85882 5.65 6.15882 5.875 6.42549 6.025C6.69215 6.175 7.01716 6.25 7.40049 6.25C7.78382 6.25 8.10049 6.18333 8.35049 6.05C8.61716 5.9 8.92549 5.675 9.27549 5.375C9.70882 5.00833 10.1172 4.73333 10.5005 4.55C10.8838 4.35 11.3838 4.25 12.0005 4.25C12.6172 4.25 13.1172 4.35 13.5005 4.55C13.8838 4.73333 14.2922 5.00833 14.7255 5.375C15.1088 5.69167 15.4172 5.91667 15.6505 6.05C15.9005 6.18333 16.2172 6.25 16.6005 6.25ZM16.6005 13.1C16.9838 13.1 17.3088 13.025 17.5755 12.875C17.8422 12.725 18.1422 12.5 18.4755 12.2C18.8922 11.8333 19.2755 11.5583 19.6255 11.375C19.9755 11.1917 20.4338 11.1 21.0005 11.1V12.9C20.6838 12.9 20.4172 12.9667 20.2005 13.1C19.9838 13.2167 19.7005 13.425 19.3505 13.725C18.9338 14.1083 18.5338 14.4 18.1505 14.6C17.7672 14.8 17.2505 14.9 16.6005 14.9C15.9838 14.9 15.4838 14.8083 15.1005 14.625C14.7172 14.425 14.3088 14.1417 13.8755 13.775C13.4922 13.4583 13.1755 13.2333 12.9255 13.1C12.6922 12.9667 12.3838 12.9 12.0005 12.9C11.6172 12.9 11.2922 12.975 11.0255 13.125C10.7755 13.2583 10.4755 13.475 10.1255 13.775C9.69216 14.1417 9.28382 14.425 8.90049 14.625C8.51716 14.8083 8.01716 14.9 7.40049 14.9C6.75049 14.9 6.23382 14.8 5.85049 14.6C5.46716 14.4 5.06716 14.1083 4.65049 13.725C4.30049 13.425 4.01716 13.2167 3.80049 13.1C3.58382 12.9667 3.31716 12.9 3.00049 12.9V11.1C3.56716 11.1 4.02549 11.1917 4.37549 11.375C4.72549 11.5583 5.10882 11.8333 5.52549 12.2C5.85882 12.5 6.15882 12.725 6.42549 12.875C6.69215 13.025 7.01716 13.1 7.40049 13.1C7.78382 13.1 8.10049 13.0333 8.35049 12.9C8.61716 12.75 8.92549 12.525 9.27549 12.225C9.70882 11.8583 10.1172 11.5833 10.5005 11.4C10.8838 11.2 11.3838 11.1 12.0005 11.1C12.6172 11.1 13.1172 11.2 13.5005 11.4C13.8838 11.5833 14.2922 11.8583 14.7255 12.225C15.1088 12.5417 15.4172 12.7667 15.6505 12.9C15.9005 13.0333 16.2172 13.1 16.6005 13.1Z" fill="black"/>
</g>
<defs>
<clipPath id="clip0_3180_17767">
<rect width="24" height="24" fill="white"/>
</clipPath>
</defs>
</svg>
