<svg width="24" height="24" viewBox="0 0 24 24" fill="none" xmlns="http://www.w3.org/2000/svg">
<g clip-path="url(#clip0_3181_27550)">
<rect width="24" height="24" fill="white"/>
<path d="M16.6005 20.825C17.0338 20.825 17.3922 20.75 17.6755 20.6C17.9755 20.4333 18.3088 20.1917 18.6755 19.875C19.0755 19.525 19.4338 19.2667 19.7505 19.1C20.0672 18.9167 20.4838 18.825 21.0005 18.825V19.75C20.6338 19.75 20.3172 19.825 20.0505 19.975C19.8005 20.125 19.5088 20.35 19.1755 20.65C18.7588 21 18.3672 21.275 18.0005 21.475C17.6505 21.6583 17.1838 21.75 16.6005 21.75C16.0338 21.75 15.5755 21.6583 15.2255 21.475C14.8755 21.2917 14.4838 21.025 14.0505 20.675C13.6672 20.3583 13.3338 20.125 13.0505 19.975C12.7838 19.825 12.4338 19.75 12.0005 19.75C11.5672 19.75 11.2005 19.825 10.9005 19.975C10.6172 20.125 10.2922 20.3583 9.92549 20.675C9.50882 21.025 9.12549 21.2917 8.77549 21.475C8.42549 21.6583 7.96716 21.75 7.40049 21.75C6.81716 21.75 6.34216 21.6583 5.97549 21.475C5.62549 21.275 5.24216 21 4.82549 20.65C4.49216 20.35 4.19216 20.125 3.92549 19.975C3.67549 19.825 3.36716 19.75 3.00049 19.75V18.825C3.51716 18.825 3.93382 18.9167 4.25049 19.1C4.56716 19.2667 4.92549 19.525 5.32549 19.875C5.69216 20.1917 6.01716 20.4333 6.30049 20.6C6.60049 20.75 6.96716 20.825 7.40049 20.825C7.83382 20.825 8.19216 20.75 8.47549 20.6C8.77549 20.45 9.10882 20.2167 9.47549 19.9C9.89216 19.55 10.2755 19.2833 10.6255 19.1C10.9755 18.9167 11.4338 18.825 12.0005 18.825C12.5672 18.825 13.0255 18.9167 13.3755 19.1C13.7255 19.2833 14.1172 19.55 14.5505 19.9C14.9338 20.2167 15.2588 20.45 15.5255 20.6C15.8088 20.75 16.1672 20.825 16.6005 20.825ZM16.6005 6.25C17.0338 6.25 17.3922 6.175 17.6755 6.025C17.9755 5.85833 18.3088 5.60833 18.6755 5.275C19.0755 4.94167 19.4338 4.69167 19.7505 4.525C20.0672 4.34167 20.4838 4.25 21.0005 4.25V5.175C20.6338 5.175 20.3172 5.25 20.0505 5.4C19.8005 5.53333 19.5088 5.75 19.1755 6.05C18.7588 6.41667 18.3672 6.7 18.0005 6.9C17.6505 7.08333 17.1838 7.175 16.6005 7.175C16.0338 7.175 15.5755 7.08333 15.2255 6.9C14.8755 6.71667 14.4838 6.45 14.0505 6.1C13.6672 5.78333 13.3338 5.55 13.0505 5.4C12.7838 5.25 12.4338 5.175 12.0005 5.175C11.5672 5.175 11.2005 5.25 10.9005 5.4C10.6172 5.55 10.2922 5.78333 9.92549 6.1C9.50882 6.45 9.12549 6.71667 8.77549 6.9C8.42549 7.08333 7.96716 7.175 7.40049 7.175C6.81716 7.175 6.34216 7.08333 5.97549 6.9C5.62549 6.7 5.24216 6.41667 4.82549 6.05C4.49216 5.75 4.19216 5.53333 3.92549 5.4C3.67549 5.25 3.36716 5.175 3.00049 5.175V4.25C3.51716 4.25 3.93382 4.34167 4.25049 4.525C4.56716 4.69167 4.92549 4.94167 5.32549 5.275C5.69216 5.60833 6.01716 5.85833 6.30049 6.025C6.60049 6.175 6.96716 6.25 7.40049 6.25C7.83382 6.25 8.19216 6.175 8.47549 6.025C8.77549 5.875 9.10882 5.64167 9.47549 5.325C9.89216 4.975 10.2755 4.70833 10.6255 4.525C10.9755 4.34167 11.4338 4.25 12.0005 4.25C12.5672 4.25 13.0255 4.34167 13.3755 4.525C13.7255 4.70833 14.1172 4.975 14.5505 5.325C14.9338 5.64167 15.2588 5.875 15.5255 6.025C15.8088 6.175 16.1672 6.25 16.6005 6.25ZM16.6005 13.525C17.0338 13.525 17.3922 13.45 17.6755 13.3C17.9755 13.1333 18.3088 12.8917 18.6755 12.575C19.0755 12.225 19.4338 11.9667 19.7505 11.8C20.0672 11.6167 20.4838 11.525 21.0005 11.525V12.45C20.6338 12.45 20.3172 12.525 20.0505 12.675C19.8005 12.825 19.5088 13.05 19.1755 13.35C18.7588 13.7 18.3672 13.975 18.0005 14.175C17.6505 14.3583 17.1838 14.45 16.6005 14.45C16.0338 14.45 15.5755 14.3583 15.2255 14.175C14.8755 13.9917 14.4838 13.725 14.0505 13.375C13.6672 13.0583 13.3338 12.825 13.0505 12.675C12.7838 12.525 12.4338 12.45 12.0005 12.45C11.5672 12.45 11.2005 12.525 10.9005 12.675C10.6172 12.825 10.2922 13.0583 9.92549 13.375C9.50882 13.725 9.12549 13.9917 8.77549 14.175C8.42549 14.3583 7.96716 14.45 7.40049 14.45C6.81716 14.45 6.34216 14.3583 5.97549 14.175C5.62549 13.975 5.24216 13.7 4.82549 13.35C4.49216 13.05 4.19216 12.825 3.92549 12.675C3.67549 12.525 3.36716 12.45 3.00049 12.45V11.525C3.51716 11.525 3.93382 11.6167 4.25049 11.8C4.56716 11.9667 4.92549 12.225 5.32549 12.575C5.69216 12.8917 6.01716 13.1333 6.30049 13.3C6.60049 13.45 6.96716 13.525 7.40049 13.525C7.83382 13.525 8.19216 13.45 8.47549 13.3C8.77549 13.15 9.10882 12.9167 9.47549 12.6C9.89216 12.25 10.2755 11.9833 10.6255 11.8C10.9755 11.6167 11.4338 11.525 12.0005 11.525C12.5672 11.525 13.0255 11.6167 13.3755 11.8C13.7255 11.9833 14.1172 12.25 14.5505 12.6C14.9338 12.9167 15.2588 13.15 15.5255 13.3C15.8088 13.45 16.1672 13.525 16.6005 13.525Z" fill="black"/>
</g>
<defs>
<clipPath id="clip0_3181_27550">
<rect width="24" height="24" fill="white"/>
</clipPath>
</defs>
</svg>
