<svg width="24" height="24" viewBox="0 0 24 24" fill="none" xmlns="http://www.w3.org/2000/svg">
<g clip-path="url(#clip0_3181_26586)">
<rect width="24" height="24" fill="white"/>
<path d="M3.00049 11.275H15.6755C16.3255 11.275 16.8755 11.025 17.3255 10.525C17.7755 10.025 18.0005 9.41667 18.0005 8.7C18.0005 8.63333 18.0005 8.58333 18.0005 8.55C18.0005 8.5 18.0005 8.44167 18.0005 8.375C18.0005 7.84167 18.0005 7.44167 18.0005 7.175C18.0005 6.90833 18.0005 6.51667 18.0005 6H21.5005C21.5005 6.35 21.5005 6.61667 21.5005 6.8C21.5005 6.96667 21.5005 7.14167 21.5005 7.325C21.5005 7.50833 21.5005 7.775 21.5005 8.125C21.5005 8.225 21.5005 8.3 21.5005 8.35C21.5005 8.38333 21.5005 8.425 21.5005 8.475C21.5005 8.525 21.5005 8.6 21.5005 8.7C21.5005 9.8 21.2422 10.8167 20.7255 11.75C20.2088 12.6667 19.5005 13.3917 18.6005 13.925C17.7172 14.4583 16.7422 14.725 15.6755 14.725H3.00049V11.275Z" fill="black"/>
</g>
<defs>
<clipPath id="clip0_3181_26586">
<rect width="24" height="24" fill="white"/>
</clipPath>
</defs>
</svg>
