<svg width="24" height="24" viewBox="0 0 24 24" fill="none" xmlns="http://www.w3.org/2000/svg">
<g clip-path="url(#clip0_3374_5284)">
<rect width="24" height="24" fill="white"/>
<path d="M3.00049 11.625H15.1255C15.7922 11.625 16.3838 11.4667 16.9005 11.15C17.4338 10.8333 17.8422 10.3917 18.1255 9.825C18.4255 9.25833 18.5755 8.625 18.5755 7.925C18.5755 7.475 18.5755 7.14167 18.5755 6.925C18.5755 6.70833 18.5755 6.49167 18.5755 6.275C18.5755 6.05833 18.5755 5.73333 18.5755 5.3V5H21.5005V5.3C21.5005 5.73333 21.5005 6.05833 21.5005 6.275C21.5005 6.49167 21.5005 6.70833 21.5005 6.925C21.5005 7.14167 21.5005 7.475 21.5005 7.925C21.5005 9.125 21.2172 10.2333 20.6505 11.25C20.0838 12.25 19.3088 13.0417 18.3255 13.625C17.3588 14.2083 16.2922 14.5 15.1255 14.5H3.00049V11.625Z" fill="black"/>
</g>
<defs>
<clipPath id="clip0_3374_5284">
<rect width="24" height="24" fill="white"/>
</clipPath>
</defs>
</svg>
