<svg width="24" height="24" viewBox="0 0 24 24" fill="none" xmlns="http://www.w3.org/2000/svg">
<g clip-path="url(#clip0_3374_5306)">
<rect width="24" height="24" fill="white"/>
<path d="M3.00049 14.5H12.7255C13.3588 14.5 13.9338 14.65 14.4505 14.95C14.9838 15.25 15.4005 15.6583 15.7005 16.175C16.0172 16.6917 16.1755 17.2583 16.1755 17.875C16.1755 18.4917 16.0172 19.0583 15.7005 19.575C15.4005 20.0917 14.9838 20.5 14.4505 20.8C13.9338 21.1 13.3588 21.25 12.7255 21.25H11.5005V19.45H12.7255C13.1588 19.45 13.5338 19.3 13.8505 19C14.1672 18.6833 14.3255 18.3083 14.3255 17.875C14.3255 17.4583 14.1672 17.1 13.8505 16.8C13.5338 16.5 13.1588 16.35 12.7255 16.35H3.00049V14.5ZM3.00049 10.525H17.5505C18.1338 10.525 18.6255 10.325 19.0255 9.925C19.4422 9.50833 19.6505 9.00833 19.6505 8.425C19.6505 7.825 19.4422 7.325 19.0255 6.925C18.6255 6.50833 18.1338 6.3 17.5505 6.3C16.9505 6.3 16.4422 6.50833 16.0255 6.925C15.6255 7.325 15.4255 7.825 15.4255 8.425H13.5755C13.5755 7.70833 13.7505 7.05 14.1005 6.45C14.4505 5.85 14.9255 5.375 15.5255 5.025C16.1422 4.675 16.8172 4.5 17.5505 4.5C18.2672 4.5 18.9255 4.675 19.5255 5.025C20.1422 5.375 20.6255 5.85 20.9755 6.45C21.3255 7.05 21.5005 7.70833 21.5005 8.425C21.5005 9.14167 21.3255 9.80833 20.9755 10.425C20.6255 11.025 20.1422 11.5 19.5255 11.85C18.9255 12.2 18.2672 12.375 17.5505 12.375H3.00049V10.525Z" fill="black"/>
</g>
<defs>
<clipPath id="clip0_3374_5306">
<rect width="24" height="24" fill="white"/>
</clipPath>
</defs>
</svg>
