<svg width="24" height="24" viewBox="0 0 24 24" fill="none" xmlns="http://www.w3.org/2000/svg">
<g clip-path="url(#clip0_3374_5304)">
<rect width="24" height="24" fill="white"/>
<path d="M3.00049 13.5H12.6255C13.2755 13.5 13.8672 13.65 14.4005 13.95C14.9505 14.25 15.3838 14.6583 15.7005 15.175C16.0172 15.6917 16.1755 16.2583 16.1755 16.875C16.1755 17.4917 16.0172 18.0583 15.7005 18.575C15.3838 19.0917 14.9505 19.5 14.4005 19.8C13.8672 20.1 13.2755 20.25 12.6255 20.25H11.5005V18.9H12.6255C13.2255 18.9 13.7338 18.7083 14.1505 18.325C14.5672 17.925 14.7755 17.4417 14.7755 16.875C14.7755 16.325 14.5672 15.8583 14.1505 15.475C13.7338 15.0917 13.2255 14.9 12.6255 14.9H3.00049V13.5ZM3.00049 9.775H17.6755C18.3422 9.775 18.9088 9.54167 19.3755 9.075C19.8588 8.59167 20.1005 8.00833 20.1005 7.325C20.1005 6.625 19.8588 6.04167 19.3755 5.575C18.9088 5.09167 18.3422 4.85 17.6755 4.85C16.9755 4.85 16.3838 5.09167 15.9005 5.575C15.4338 6.04167 15.2005 6.625 15.2005 7.325H13.8005C13.8005 6.625 13.9672 5.98333 14.3005 5.4C14.6505 4.81667 15.1172 4.35833 15.7005 4.025C16.3005 3.675 16.9588 3.5 17.6755 3.5C18.3755 3.5 19.0172 3.675 19.6005 4.025C20.1838 4.35833 20.6422 4.81667 20.9755 5.4C21.3255 5.98333 21.5005 6.625 21.5005 7.325C21.5005 8.025 21.3255 8.675 20.9755 9.275C20.6422 9.85833 20.1838 10.3167 19.6005 10.65C19.0172 10.9833 18.3755 11.15 17.6755 11.15H3.00049V9.775Z" fill="black"/>
</g>
<defs>
<clipPath id="clip0_3374_5304">
<rect width="24" height="24" fill="white"/>
</clipPath>
</defs>
</svg>
