<svg width="24" height="24" viewBox="0 0 24 24" fill="none" xmlns="http://www.w3.org/2000/svg">
<g clip-path="url(#clip0_3374_5312)">
<rect width="24" height="24" fill="white"/>
<path d="M3.00049 13.175H11.4755C12.5755 13.175 13.5672 13.425 14.4505 13.925C15.3338 14.425 16.0255 15.1167 16.5255 16C17.0422 16.8833 17.3005 17.8667 17.3005 18.95C17.3005 19.0167 17.3005 19.0667 17.3005 19.1C17.3005 19.1333 17.3005 19.1667 17.3005 19.2C17.3005 19.2333 17.3005 19.2833 17.3005 19.35V20.25H13.8005V19.35C13.8005 19.2667 13.8005 19.2 13.8005 19.15C13.8005 19.1 13.8005 19.0333 13.8005 18.95C13.8005 18.3 13.5755 17.75 13.1255 17.3C12.6755 16.85 12.1255 16.625 11.4755 16.625H3.00049V13.175ZM3.00049 7.525H15.6755C16.3255 7.525 16.8755 7.3 17.3255 6.85C17.7755 6.4 18.0005 5.85 18.0005 5.2C18.0005 5.13333 18.0005 5.08333 18.0005 5.05C18.0005 5 18.0005 4.94167 18.0005 4.875C18.0005 4.55833 18.0005 4.325 18.0005 4.175C18.0005 4.025 18.0005 3.8 18.0005 3.5H21.5005C21.5005 3.68333 21.5005 3.825 21.5005 3.925C21.5005 4.00833 21.5005 4.1 21.5005 4.2C21.5005 4.3 21.5005 4.44167 21.5005 4.625C21.5005 4.725 21.5005 4.8 21.5005 4.85C21.5005 4.88333 21.5005 4.925 21.5005 4.975C21.5005 5.025 21.5005 5.1 21.5005 5.2C21.5005 6.3 21.2422 7.29167 20.7255 8.175C20.2255 9.04167 19.5338 9.725 18.6505 10.225C17.7672 10.725 16.7755 10.975 15.6755 10.975H3.00049V7.525Z" fill="black"/>
</g>
<defs>
<clipPath id="clip0_3374_5312">
<rect width="24" height="24" fill="white"/>
</clipPath>
</defs>
</svg>
