<svg width="24" height="24" viewBox="0 0 24 24" fill="none" xmlns="http://www.w3.org/2000/svg">
<g clip-path="url(#clip0_3374_5349)">
<rect width="24" height="24" fill="white"/>
<path d="M3.00049 6.925H14.9505C15.3505 6.925 15.6838 6.79167 15.9505 6.525C16.2172 6.24167 16.3505 5.9 16.3505 5.5C16.3505 5.1 16.2172 4.76667 15.9505 4.5C15.6838 4.23333 15.3505 4.1 14.9505 4.1H13.4755V2H14.9505C15.6005 2 16.1922 2.15833 16.7255 2.475C17.2755 2.775 17.7088 3.2 18.0255 3.75C18.3422 4.28333 18.5005 4.86667 18.5005 5.5C18.5005 6.15 18.3422 6.75 18.0255 7.3C17.7088 7.83333 17.2755 8.25833 16.7255 8.575C16.1922 8.875 15.6005 9.025 14.9505 9.025H3.00049V6.925ZM14.9255 14.975C15.5755 14.975 16.1755 15.1333 16.7255 15.45C17.2755 15.75 17.7088 16.175 18.0255 16.725C18.3422 17.2583 18.5005 17.85 18.5005 18.5C18.5005 19.1333 18.3422 19.725 18.0255 20.275C17.7088 20.8083 17.2755 21.225 16.7255 21.525C16.1755 21.8417 15.5755 22 14.9255 22H13.5005V19.9H14.9255C15.3255 19.9 15.6588 19.7667 15.9255 19.5C16.2088 19.2333 16.3505 18.9 16.3505 18.5C16.3505 18.1 16.2088 17.7667 15.9255 17.5C15.6588 17.2167 15.3255 17.075 14.9255 17.075H3.00049V14.975H14.9255ZM6.00049 10.95H21.0005V13.05H6.00049V10.95Z" fill="black"/>
</g>
<defs>
<clipPath id="clip0_3374_5349">
<rect width="24" height="24" fill="white"/>
</clipPath>
</defs>
</svg>
