<svg width="24" height="24" viewBox="0 0 24 24" fill="none" xmlns="http://www.w3.org/2000/svg">
<g clip-path="url(#clip0_3180_17973)">
<rect width="24" height="24" fill="white"/>
<path d="M3.00049 12.9H17.6505C18.3338 12.9 18.9088 12.6667 19.3755 12.2C19.8422 11.7333 20.0755 11.1667 20.0755 10.5C20.0755 9.81667 19.8422 9.24167 19.3755 8.775C18.9088 8.29167 18.3338 8.05 17.6505 8.05C16.9505 8.05 16.3672 8.29167 15.9005 8.775C15.4338 9.24167 15.2005 9.81667 15.2005 10.5H13.7755C13.7755 9.8 13.9422 9.15833 14.2755 8.575C14.6255 7.99167 15.0922 7.53333 15.6755 7.2C16.2755 6.85 16.9338 6.675 17.6505 6.675C18.3672 6.675 19.0172 6.85 19.6005 7.2C20.1838 7.53333 20.6422 7.99167 20.9755 8.575C21.3255 9.15833 21.5005 9.8 21.5005 10.5C21.5005 11.2 21.3255 11.8417 20.9755 12.425C20.6422 13.0083 20.1838 13.475 19.6005 13.825C19.0172 14.1583 18.3672 14.325 17.6505 14.325H3.00049V12.9Z" fill="black"/>
</g>
<defs>
<clipPath id="clip0_3180_17973">
<rect width="24" height="24" fill="white"/>
</clipPath>
</defs>
</svg>
