<svg width="24" height="24" viewBox="0 0 24 24" fill="none" xmlns="http://www.w3.org/2000/svg">
<g clip-path="url(#clip0_3179_16304)">
<rect width="24" height="24" fill="white"/>
<path d="M3.00049 8.55H14.9505C15.8005 8.55 16.5172 8.25833 17.1005 7.675C17.7005 7.075 18.0005 6.35 18.0005 5.5C18.0005 4.65 17.7005 3.93333 17.1005 3.35C16.5172 2.76667 15.8005 2.475 14.9505 2.475H13.4755V2H14.9505C15.6005 2 16.1922 2.15833 16.7255 2.475C17.2755 2.775 17.7088 3.2 18.0255 3.75C18.3422 4.28333 18.5005 4.86667 18.5005 5.5C18.5005 6.15 18.3422 6.75 18.0255 7.3C17.7088 7.83333 17.2755 8.25833 16.7255 8.575C16.1922 8.875 15.6005 9.025 14.9505 9.025H3.00049V8.55ZM14.9255 14.975C15.5755 14.975 16.1755 15.1333 16.7255 15.45C17.2755 15.75 17.7088 16.175 18.0255 16.725C18.3422 17.2583 18.5005 17.85 18.5005 18.5C18.5005 19.1333 18.3422 19.725 18.0255 20.275C17.7088 20.8083 17.2755 21.225 16.7255 21.525C16.1755 21.8417 15.5755 22 14.9255 22H13.5005V21.525H14.9255C15.7922 21.525 16.5172 21.2333 17.1005 20.65C17.7005 20.0667 18.0005 19.35 18.0005 18.5C18.0005 17.65 17.7005 16.9333 17.1005 16.35C16.5172 15.75 15.7922 15.45 14.9255 15.45H3.00049V14.975H14.9255ZM6.00049 11.75H21.0005V12.225H6.00049V11.75Z" fill="black"/>
</g>
<defs>
<clipPath id="clip0_3179_16304">
<rect width="24" height="24" fill="white"/>
</clipPath>
</defs>
</svg>
