<svg width="24" height="24" viewBox="0 0 24 24" fill="none" xmlns="http://www.w3.org/2000/svg">
<g clip-path="url(#clip0_3374_5278)">
<rect width="24" height="24" fill="white"/>
<path d="M3.00049 13.15H16.7505C17.3672 13.15 17.9255 13 18.4255 12.7C18.9422 12.4 19.3505 11.9917 19.6505 11.475C19.9505 10.9583 20.1005 10.3833 20.1005 9.75C20.1005 9.11667 19.9505 8.54167 19.6505 8.025C19.3505 7.50833 18.9422 7.1 18.4255 6.8C17.9255 6.5 17.3672 6.35 16.7505 6.35H15.0005V5H16.7505C17.6172 5 18.4088 5.21667 19.1255 5.65C19.8588 6.06667 20.4338 6.64167 20.8505 7.375C21.2838 8.09167 21.5005 8.88333 21.5005 9.75C21.5005 10.6167 21.2838 11.4167 20.8505 12.15C20.4338 12.8667 19.8588 13.4417 19.1255 13.875C18.4088 14.2917 17.6172 14.5 16.7505 14.5H3.00049V13.15Z" fill="black"/>
</g>
<defs>
<clipPath id="clip0_3374_5278">
<rect width="24" height="24" fill="white"/>
</clipPath>
</defs>
</svg>
