<svg width="24" height="24" viewBox="0 0 24 24" fill="none" xmlns="http://www.w3.org/2000/svg">
<g clip-path="url(#clip0_3179_16342)">
<rect width="24" height="24" fill="white"/>
<path d="M3.00049 14.025H16.7505C17.5338 14.025 18.2505 13.8417 18.9005 13.475C19.5505 13.0917 20.0588 12.575 20.4255 11.925C20.8088 11.2583 21.0005 10.5333 21.0005 9.75C21.0005 8.96667 20.8088 8.25 20.4255 7.6C20.0588 6.93333 19.5505 6.41667 18.9005 6.05C18.2505 5.66667 17.5338 5.475 16.7505 5.475H15.0005V5H16.7505C17.6172 5 18.4088 5.21667 19.1255 5.65C19.8588 6.06667 20.4338 6.64167 20.8505 7.375C21.2838 8.09167 21.5005 8.88333 21.5005 9.75C21.5005 10.6167 21.2838 11.4167 20.8505 12.15C20.4338 12.8667 19.8588 13.4417 19.1255 13.875C18.4088 14.2917 17.6172 14.5 16.7505 14.5H3.00049V14.025Z" fill="black"/>
</g>
<defs>
<clipPath id="clip0_3179_16342">
<rect width="24" height="24" fill="white"/>
</clipPath>
</defs>
</svg>
