<svg width="24" height="24" viewBox="0 0 24 24" fill="none" xmlns="http://www.w3.org/2000/svg">
<g clip-path="url(#clip0_3374_5310)">
<rect width="24" height="24" fill="white"/>
<path d="M3.00049 13.5H12.0005C13.0005 13.5 13.9005 13.7167 14.7005 14.15C15.5005 14.5833 16.1338 15.1833 16.6005 15.95C17.0672 16.7 17.3005 17.5333 17.3005 18.45C17.3005 18.5667 17.3005 18.6583 17.3005 18.725C17.3005 18.7917 17.3005 18.8583 17.3005 18.925C17.3005 18.975 17.3005 19.0583 17.3005 19.175V20.25H14.4755V19.175C14.4755 19.025 14.4755 18.9083 14.4755 18.825C14.4755 18.7417 14.4755 18.6167 14.4755 18.45C14.4755 17.85 14.2338 17.3417 13.7505 16.925C13.2838 16.5083 12.7005 16.3 12.0005 16.3H3.00049V13.5ZM3.00049 8.025H16.1755C16.8755 8.025 17.4588 7.78333 17.9255 7.3C18.4088 6.81667 18.6505 6.225 18.6505 5.525C18.6505 5.425 18.6505 5.35 18.6505 5.3C18.6505 5.25 18.6505 5.175 18.6505 5.075C18.6505 4.70833 18.6505 4.44167 18.6505 4.275C18.6505 4.10833 18.6505 3.85 18.6505 3.5H21.4755C21.4755 3.7 21.4755 3.85833 21.4755 3.975C21.4755 4.075 21.4755 4.18333 21.4755 4.3C21.4755 4.4 21.4755 4.55833 21.4755 4.775C21.4755 4.89167 21.4755 4.98333 21.4755 5.05C21.4755 5.11667 21.4755 5.18333 21.4755 5.25C21.4755 5.3 21.4755 5.39167 21.4755 5.525C21.4755 6.525 21.2422 7.425 20.7755 8.225C20.3255 9.025 19.6922 9.65833 18.8755 10.125C18.0755 10.575 17.1838 10.8 16.2005 10.8H3.00049V8.025Z" fill="black"/>
</g>
<defs>
<clipPath id="clip0_3374_5310">
<rect width="24" height="24" fill="white"/>
</clipPath>
</defs>
</svg>
