<svg width="24" height="24" viewBox="0 0 24 24" fill="none" xmlns="http://www.w3.org/2000/svg">
<g clip-path="url(#clip0_3197_7284)">
<rect width="24" height="24" fill="white"/>
<path d="M10.3 17.025C10.4333 17.1417 10.5917 17.2 10.775 17.2C10.975 17.2 11.1417 17.1417 11.275 17.025C11.4083 16.875 11.475 16.7083 11.475 16.525C11.475 16.3417 11.4083 16.1833 11.275 16.05L10.1 14.875L12 12.975L13.175 14.15C13.3083 14.2667 13.4667 14.325 13.65 14.325C13.85 14.325 14.0167 14.2667 14.15 14.15C14.2833 14 14.35 13.8333 14.35 13.65C14.35 13.4667 14.2833 13.3083 14.15 13.175L12.975 12L14.875 10.1L16.05 11.275C16.1833 11.3917 16.3417 11.45 16.525 11.45C16.725 11.45 16.8917 11.3917 17.025 11.275C17.1583 11.125 17.225 10.9583 17.225 10.775C17.225 10.5917 17.1583 10.4333 17.025 10.3L13.7 6.975C13.5667 6.84167 13.4083 6.775 13.225 6.775C13.0417 6.775 12.875 6.84167 12.725 6.975C12.6083 7.10833 12.55 7.275 12.55 7.475C12.55 7.65833 12.6083 7.81667 12.725 7.95L13.9 9.125L12 11.025L10.825 9.85C10.6917 9.71667 10.5333 9.65 10.35 9.65C10.1667 9.65 10 9.71667 9.85 9.85C9.73333 9.98333 9.675 10.15 9.675 10.35C9.675 10.5333 9.73333 10.6917 9.85 10.825L11.025 12L9.125 13.9L7.95 12.725C7.81667 12.5917 7.65833 12.525 7.475 12.525C7.29167 12.525 7.125 12.5917 6.975 12.725C6.85833 12.8583 6.8 13.025 6.8 13.225C6.8 13.4083 6.85833 13.5667 6.975 13.7L10.3 17.025ZM5.575 21.925C4.70833 21.7583 3.95 21.35 3.3 20.7C2.66667 20.05 2.25833 19.2917 2.075 18.425C1.65833 16.3083 1.80833 14.1333 2.525 11.9C3.25833 9.65 4.44167 7.70833 6.075 6.075C7.15833 4.99167 8.4 4.1 9.8 3.4C11.2 2.7 12.6417 2.23333 14.125 2C15.625 1.76667 17.0583 1.79167 18.425 2.075C19.2917 2.24167 20.05 2.65 20.7 3.3C21.35 3.95 21.7583 4.70833 21.925 5.575C22.3417 7.69167 22.1833 9.875 21.45 12.125C20.7333 14.3583 19.5583 16.2917 17.925 17.925C16.8417 19.0083 15.6 19.9 14.2 20.6C12.8 21.3 11.35 21.7667 9.85 22C8.36667 22.2333 6.94167 22.2083 5.575 21.925Z" fill="black"/>
</g>
<defs>
<clipPath id="clip0_3197_7284">
<rect width="24" height="24" fill="white"/>
</clipPath>
</defs>
</svg>
