<svg width="24" height="24" viewBox="0 0 24 24" fill="none" xmlns="http://www.w3.org/2000/svg">
<g clip-path="url(#clip0_3197_7274)">
<rect width="24" height="24" fill="white"/>
<path d="M5.57549 21.925C4.70882 21.7583 3.95049 21.35 3.30049 20.7C2.66716 20.05 2.25882 19.2917 2.07549 18.425C1.64216 16.275 1.76716 14.0833 2.45049 11.85C3.15049 9.6 4.33382 7.65 6.00049 6C7.10049 4.88333 8.35049 3.98333 9.75049 3.3C11.1672 2.61667 12.6172 2.175 14.1005 1.975C15.6005 1.75833 17.0422 1.79167 18.4255 2.075C19.2922 2.24167 20.0505 2.65 20.7005 3.3C21.3505 3.95 21.7588 4.70833 21.9255 5.575C22.3588 7.725 22.2255 9.925 21.5255 12.175C20.8422 14.4083 19.6672 16.35 18.0005 18C16.9005 19.1167 15.6422 20.0167 14.2255 20.7C12.8255 21.3833 11.3755 21.825 9.87549 22.025C8.39216 22.2417 6.95882 22.2083 5.57549 21.925ZM6.07549 19.65C7.80882 19.9833 9.60882 19.8667 11.4755 19.3C13.3422 18.7167 14.9672 17.7333 16.3505 16.35C17.7172 14.9833 18.6922 13.375 19.2755 11.525C19.8588 9.65833 19.9755 7.84167 19.6255 6.075C19.5422 5.65833 19.3422 5.29167 19.0255 4.975C18.7088 4.65833 18.3422 4.45 17.9255 4.35C16.1922 4.01667 14.3922 4.14167 12.5255 4.725C10.6588 5.29167 9.03382 6.26667 7.65049 7.65C6.28382 9.01667 5.30882 10.6333 4.72549 12.5C4.14216 14.35 4.02549 16.1583 4.37549 17.925C4.45882 18.3417 4.65882 18.7083 4.97549 19.025C5.29216 19.3417 5.65882 19.55 6.07549 19.65ZM6.92549 14.025C6.70882 13.8083 6.60882 13.5667 6.62549 13.3C6.64216 13.0167 6.75049 12.7667 6.95049 12.55C7.15049 12.35 7.39216 12.2417 7.67549 12.225C7.95882 12.2083 8.20882 12.3083 8.42549 12.525L9.25049 13.375L10.5505 12.05L9.72549 11.225C9.52549 11.0083 9.42549 10.7667 9.42549 10.5C9.42549 10.2167 9.53382 9.96667 9.75049 9.75C9.96716 9.53333 10.2088 9.425 10.4755 9.425C10.7588 9.425 11.0088 9.525 11.2255 9.725L12.0505 10.55L13.3755 9.25L12.5255 8.425C12.3255 8.20833 12.2255 7.96667 12.2255 7.7C12.2255 7.41667 12.3338 7.16667 12.5505 6.95C12.7672 6.73333 13.0088 6.625 13.2755 6.625C13.5588 6.60833 13.8088 6.70833 14.0255 6.925L17.0755 9.975C17.2922 10.1917 17.3922 10.4417 17.3755 10.725C17.3588 10.9917 17.2505 11.2333 17.0505 11.45C16.8505 11.65 16.6088 11.7583 16.3255 11.775C16.0422 11.7917 15.7922 11.6917 15.5755 11.475L14.7505 10.625L13.4505 11.95L14.2755 12.775C14.4755 12.9917 14.5755 13.2417 14.5755 13.525C14.5755 13.7917 14.4672 14.0333 14.2505 14.25C14.0338 14.4667 13.7838 14.575 13.5005 14.575C13.2338 14.575 12.9922 14.475 12.7755 14.275L11.9505 13.45L10.6255 14.75L11.4755 15.575C11.6755 15.7917 11.7755 16.0417 11.7755 16.325C11.7755 16.5917 11.6672 16.8333 11.4505 17.05C11.2338 17.25 10.9838 17.3583 10.7005 17.375C10.4338 17.375 10.1922 17.275 9.97549 17.075L6.92549 14.025Z" fill="black"/>
</g>
<defs>
<clipPath id="clip0_3197_7274">
<rect width="24" height="24" fill="white"/>
</clipPath>
</defs>
</svg>
