<svg width="24" height="24" viewBox="0 0 24 24" fill="none" xmlns="http://www.w3.org/2000/svg">
<g clip-path="url(#clip0_3388_8259)">
<rect width="24" height="24" fill="white"/>
<path d="M9.25 18.275C9.53333 18.5583 9.88333 18.7 10.3 18.7C10.7167 18.6833 11.0833 18.5167 11.4 18.2C11.7167 17.8833 11.875 17.525 11.875 17.125C11.875 16.7083 11.7333 16.35 11.45 16.05L10.8 15.35L11.95 14.175L12.625 14.85C12.925 15.15 13.275 15.2917 13.675 15.275C14.0917 15.2583 14.4583 15.0917 14.775 14.775C15.1083 14.4583 15.2833 14.1 15.3 13.7C15.3167 13.3 15.1667 12.9417 14.85 12.625L14.175 11.95L15.35 10.775L16.05 11.45C16.35 11.75 16.7 11.9 17.1 11.9C17.5167 11.8833 17.8833 11.7167 18.2 11.4C18.5167 11.0833 18.675 10.7167 18.675 10.3C18.6917 9.88333 18.5583 9.53333 18.275 9.25L14.75 5.725C14.4667 5.44167 14.1167 5.30833 13.7 5.325C13.2833 5.325 12.9167 5.48333 12.6 5.8C12.2833 6.11667 12.1167 6.48333 12.1 6.9C12.1 7.3 12.25 7.65 12.55 7.95L13.225 8.65L12.05 9.825L11.375 9.15C11.0583 8.83333 10.7 8.68333 10.3 8.7C9.9 8.71667 9.54167 8.89167 9.225 9.225C8.90833 9.54167 8.74167 9.90833 8.725 10.325C8.70833 10.725 8.85 11.075 9.15 11.375L9.825 12.05L8.65 13.2L7.95 12.55C7.65 12.2667 7.29167 12.125 6.875 12.125C6.475 12.125 6.11667 12.2833 5.8 12.6C5.48333 12.9167 5.31667 13.2833 5.3 13.7C5.3 14.1167 5.44167 14.4667 5.725 14.75L9.25 18.275ZM5.575 21.925C4.70833 21.7583 3.95 21.35 3.3 20.7C2.66667 20.05 2.25833 19.2917 2.075 18.425C1.625 16.2083 1.70833 13.9833 2.325 11.75C2.95833 9.5 4.125 7.525 5.825 5.825C6.975 4.675 8.25833 3.775 9.675 3.125C11.1083 2.45833 12.575 2.05 14.075 1.9C15.575 1.73333 17.025 1.79167 18.425 2.075C19.2917 2.24167 20.05 2.65 20.7 3.3C21.35 3.95 21.7583 4.70833 21.925 5.575C22.375 7.79167 22.2833 10.025 21.65 12.275C21.0333 14.5083 19.875 16.475 18.175 18.175C17.025 19.325 15.7333 20.2333 14.3 20.9C12.8833 21.55 11.425 21.95 9.925 22.1C8.425 22.2667 6.975 22.2083 5.575 21.925Z" fill="black"/>
</g>
<defs>
<clipPath id="clip0_3388_8259">
<rect width="24" height="24" fill="white"/>
</clipPath>
</defs>
</svg>
