<svg width="24" height="24" viewBox="0 0 24 24" fill="none" xmlns="http://www.w3.org/2000/svg">
<g clip-path="url(#clip0_3388_8241)">
<rect width="24" height="24" fill="white"/>
<path d="M5.57549 21.925C4.70882 21.7583 3.95049 21.35 3.30049 20.7C2.66716 20.05 2.25882 19.2917 2.07549 18.425C1.64216 16.2583 1.77549 14.0417 2.47549 11.775C3.17549 9.50833 4.37549 7.55 6.07549 5.9C7.17549 4.81667 8.41716 3.94167 9.80049 3.275C11.2005 2.60833 12.6422 2.175 14.1255 1.975C15.6088 1.75833 17.0422 1.79167 18.4255 2.075C19.2922 2.24167 20.0505 2.65 20.7005 3.3C21.3505 3.95 21.7588 4.70833 21.9255 5.575C22.3588 7.74167 22.2255 9.95833 21.5255 12.225C20.8255 14.4917 19.6255 16.45 17.9255 18.1C16.8255 19.1833 15.5755 20.0583 14.1755 20.725C12.7922 21.3917 11.3588 21.825 9.87549 22.025C8.39216 22.2417 6.95882 22.2083 5.57549 21.925ZM6.10049 19.575C7.81716 19.925 9.60882 19.8167 11.4755 19.25C13.3422 18.6667 14.9588 17.6917 16.3255 16.325C17.6922 14.9583 18.6588 13.35 19.2255 11.5C19.8088 9.65 19.9255 7.85 19.5755 6.1C19.4922 5.7 19.2922 5.34167 18.9755 5.025C18.6755 4.70833 18.3172 4.50833 17.9005 4.425C16.1838 4.075 14.3922 4.19167 12.5255 4.775C10.6588 5.34167 9.04216 6.30833 7.67549 7.675C6.30882 9.04167 5.33382 10.65 4.75049 12.5C4.18382 14.35 4.07549 16.15 4.42549 17.9C4.50882 18.3 4.70049 18.6583 5.00049 18.975C5.31716 19.2917 5.68382 19.4917 6.10049 19.575ZM6.97549 14.025C6.75882 13.8083 6.65049 13.5667 6.65049 13.3C6.66716 13.0167 6.77549 12.7667 6.97549 12.55C7.19216 12.35 7.44216 12.2417 7.72549 12.225C8.00882 12.2083 8.25882 12.3083 8.47549 12.525L9.25049 13.35L10.5505 12.05L9.75049 11.225C9.53382 11.025 9.42549 10.7833 9.42549 10.5C9.44216 10.2167 9.55882 9.975 9.77549 9.775C9.97549 9.55833 10.2172 9.45 10.5005 9.45C10.7838 9.43333 11.0255 9.53333 11.2255 9.75L12.0505 10.55L13.3505 9.25L12.5255 8.475C12.3255 8.25833 12.2255 8.00833 12.2255 7.725C12.2255 7.44167 12.3338 7.19167 12.5505 6.975C12.7672 6.75833 13.0088 6.65 13.2755 6.65C13.5588 6.65 13.8088 6.75833 14.0255 6.975L17.0255 9.975C17.2422 10.1917 17.3422 10.4417 17.3255 10.725C17.3255 10.9917 17.2255 11.2333 17.0255 11.45C16.8088 11.65 16.5588 11.7583 16.2755 11.775C15.9922 11.7917 15.7422 11.6917 15.5255 11.475L14.7505 10.65L13.4505 11.95L14.2505 12.775C14.4672 12.975 14.5672 13.2167 14.5505 13.5C14.5505 13.7833 14.4422 14.025 14.2255 14.225C14.0255 14.4417 13.7838 14.5583 13.5005 14.575C13.2172 14.575 12.9755 14.4667 12.7755 14.25L11.9505 13.45L10.6505 14.75L11.4755 15.525C11.6755 15.7417 11.7755 15.9917 11.7755 16.275C11.7755 16.5583 11.6672 16.8083 11.4505 17.025C11.2338 17.225 10.9838 17.3333 10.7005 17.35C10.4338 17.35 10.1922 17.2417 9.97549 17.025L6.97549 14.025Z" fill="black"/>
</g>
<defs>
<clipPath id="clip0_3388_8241">
<rect width="24" height="24" fill="white"/>
</clipPath>
</defs>
</svg>
