<svg width="24" height="24" viewBox="0 0 24 24" fill="none" xmlns="http://www.w3.org/2000/svg">
<g clip-path="url(#clip0_3388_8253)">
<rect width="24" height="24" fill="white"/>
<path d="M10.225 16.95C10.4083 17.1167 10.625 17.2 10.875 17.2C11.125 17.2 11.3333 17.1167 11.5 16.95C11.6833 16.7667 11.775 16.55 11.775 16.3C11.775 16.05 11.6833 15.8417 11.5 15.675L10.55 14.725L12 13.275L12.95 14.225C13.1333 14.3917 13.35 14.475 13.6 14.475C13.85 14.475 14.0583 14.3917 14.225 14.225C14.4083 14.0417 14.5 13.825 14.5 13.575C14.5 13.325 14.4083 13.1167 14.225 12.95L13.275 12L14.725 10.55L15.675 11.5C15.8583 11.6667 16.075 11.75 16.325 11.75C16.575 11.75 16.7833 11.6667 16.95 11.5C17.1333 11.3167 17.225 11.1 17.225 10.85C17.225 10.6 17.1333 10.3917 16.95 10.225L13.775 7.05C13.6083 6.86667 13.4 6.775 13.15 6.775C12.9 6.775 12.6833 6.86667 12.5 7.05C12.3333 7.21667 12.25 7.425 12.25 7.675C12.25 7.925 12.3333 8.14167 12.5 8.325L13.45 9.275L12 10.725L11.05 9.775C10.8833 9.59167 10.675 9.5 10.425 9.5C10.175 9.5 9.95833 9.59167 9.775 9.775C9.60833 9.94167 9.525 10.15 9.525 10.4C9.525 10.65 9.60833 10.8667 9.775 11.05L10.725 12L9.275 13.45L8.325 12.5C8.15833 12.3167 7.95 12.225 7.7 12.225C7.45 12.225 7.23333 12.3167 7.05 12.5C6.88333 12.6667 6.8 12.875 6.8 13.125C6.8 13.375 6.88333 13.5917 7.05 13.775L10.225 16.95ZM5.575 21.925C4.70833 21.7583 3.95 21.35 3.3 20.7C2.66667 20.05 2.25833 19.2917 2.075 18.425C1.65833 16.3083 1.80833 14.1333 2.525 11.9C3.25833 9.65 4.44167 7.70833 6.075 6.075C7.15833 4.99167 8.4 4.1 9.8 3.4C11.2 2.7 12.6417 2.23333 14.125 2C15.625 1.76667 17.0583 1.79167 18.425 2.075C19.2917 2.24167 20.05 2.65 20.7 3.3C21.35 3.95 21.7583 4.70833 21.925 5.575C22.3417 7.69167 22.1833 9.875 21.45 12.125C20.7333 14.3583 19.5583 16.2917 17.925 17.925C16.8417 19.0083 15.6 19.9 14.2 20.6C12.8 21.3 11.35 21.7667 9.85 22C8.36667 22.2333 6.94167 22.2083 5.575 21.925Z" fill="black"/>
</g>
<defs>
<clipPath id="clip0_3388_8253">
<rect width="24" height="24" fill="white"/>
</clipPath>
</defs>
</svg>
