<svg width="24" height="24" viewBox="0 0 24 24" fill="none" xmlns="http://www.w3.org/2000/svg">
<g clip-path="url(#clip0_3197_7314)">
<rect width="24" height="24" fill="white"/>
<path d="M6.95 3.325C8.48333 2.44167 10.1667 2 12 2C13.8333 2 15.5167 2.44167 17.05 3.325C18.5833 4.20833 19.7917 5.41667 20.675 6.95C21.5583 8.48333 22 10.1667 22 12C22 13.8333 21.5583 15.5167 20.675 17.05C19.7917 18.5833 18.5833 19.7917 17.05 20.675C15.5167 21.5583 13.8333 22 12 22C10.1667 22 8.48333 21.5583 6.95 20.675C5.41667 19.7917 4.20833 18.5833 3.325 17.05C2.44167 15.5167 2 13.8333 2 12C2 10.1667 2.44167 8.48333 3.325 6.95C4.20833 5.41667 5.41667 4.20833 6.95 3.325ZM17.975 5.625C17.625 5.54167 17.325 5.65 17.075 5.95C16.7417 6.35 16.3917 6.69167 16.025 6.975C15.6917 7.24167 15.5583 7.55 15.625 7.9C15.6917 8.25 15.8917 8.50833 16.225 8.675C16.5583 8.825 16.8833 8.78333 17.2 8.55C17.7 8.16667 18.1667 7.725 18.6 7.225C18.8667 6.89167 18.9167 6.56667 18.75 6.25C18.6 5.91667 18.3417 5.70833 17.975 5.625ZM9.825 9.525C9.94167 9.85833 10.2083 10.0583 10.625 10.125C10.8583 10.1583 11.3167 10.175 12 10.175C12.6833 10.175 13.1417 10.1583 13.375 10.125C13.7917 10.0583 14.05 9.85833 14.15 9.525C14.2667 9.175 14.2167 8.85833 14 8.575C13.8 8.275 13.5 8.15 13.1 8.2C12.9333 8.21667 12.5667 8.225 12 8.225C11.45 8.225 11.0833 8.21667 10.9 8.2C10.5 8.15 10.1917 8.275 9.975 8.575C9.775 8.85833 9.725 9.175 9.825 9.525ZM5.25 6.3C5.11667 6.65 5.16667 6.95833 5.4 7.225C5.81667 7.70833 6.28333 8.15 6.8 8.55C7.1 8.76667 7.41667 8.8 7.75 8.65C8.1 8.48333 8.31667 8.225 8.4 7.875C8.48333 7.525 8.35 7.225 8 6.975C7.58333 6.65833 7.225 6.31667 6.925 5.95C6.625 5.61667 6.3 5.50833 5.95 5.625C5.61667 5.725 5.38333 5.95 5.25 6.3ZM16.025 17.025C16.3917 17.3083 16.7417 17.65 17.075 18.05C17.325 18.35 17.625 18.4583 17.975 18.375C18.3417 18.2917 18.6 18.0917 18.75 17.775C18.9167 17.4417 18.8667 17.1083 18.6 16.775C18.1667 16.275 17.7 15.8333 17.2 15.45C16.8833 15.2167 16.5583 15.1833 16.225 15.35C15.8917 15.5 15.6917 15.75 15.625 16.1C15.5583 16.45 15.6917 16.7583 16.025 17.025ZM12 13.825C11.3167 13.825 10.8583 13.8417 10.625 13.875C10.2083 13.9417 9.94167 14.15 9.825 14.5C9.725 14.8333 9.775 15.15 9.975 15.45C10.1917 15.7333 10.5 15.85 10.9 15.8C11.0833 15.7667 11.45 15.75 12 15.75C12.5667 15.75 12.9333 15.7667 13.1 15.8C13.5 15.85 13.8 15.7333 14 15.45C14.2167 15.15 14.2667 14.8333 14.15 14.5C14.05 14.15 13.7917 13.9417 13.375 13.875C13.1417 13.8417 12.6833 13.825 12 13.825ZM6.8 15.45C6.28333 15.85 5.81667 16.2917 5.4 16.775C5.16667 17.0417 5.11667 17.35 5.25 17.7C5.38333 18.05 5.61667 18.2833 5.95 18.4C6.3 18.5 6.625 18.3833 6.925 18.05C7.225 17.6833 7.58333 17.3417 8 17.025C8.35 16.775 8.48333 16.475 8.4 16.125C8.31667 15.775 8.1 15.525 7.75 15.375C7.41667 15.2083 7.1 15.2333 6.8 15.45Z" fill="black"/>
</g>
<defs>
<clipPath id="clip0_3197_7314">
<rect width="24" height="24" fill="white"/>
</clipPath>
</defs>
</svg>
