<svg width="24" height="24" viewBox="0 0 24 24" fill="none" xmlns="http://www.w3.org/2000/svg">
<g clip-path="url(#clip0_3197_7302)">
<rect width="24" height="24" fill="white"/>
<path d="M16.6005 6.05C17.0505 5.61667 17.5172 5.49167 18.0005 5.675C18.5005 5.85833 18.8255 6.21667 18.9755 6.75C19.1255 7.26667 19.0088 7.71667 18.6255 8.1C18.2922 8.43333 17.9338 8.75833 17.5505 9.075C17.1005 9.425 16.6338 9.48333 16.1505 9.25C15.6838 9.01667 15.3922 8.64167 15.2755 8.125C15.1588 7.59167 15.3422 7.14167 15.8255 6.775C15.9255 6.675 16.0172 6.59167 16.1005 6.525C16.3005 6.375 16.4672 6.21667 16.6005 6.05ZM11.0005 10.65C10.4005 10.6167 10.0005 10.35 9.80049 9.85C9.60049 9.35 9.63382 8.86667 9.90049 8.4C10.1672 7.93333 10.6005 7.725 11.2005 7.775C11.4672 7.79167 11.7338 7.8 12.0005 7.8C12.2672 7.8 12.5255 7.79167 12.7755 7.775C13.3588 7.725 13.7838 7.93333 14.0505 8.4C14.3338 8.85 14.3755 9.325 14.1755 9.825C13.9922 10.325 13.6088 10.6 13.0255 10.65C12.7255 10.6833 12.3838 10.7 12.0005 10.7C11.6338 10.7 11.3005 10.6833 11.0005 10.65ZM5.37549 8.1C4.97549 7.7 4.85049 7.24167 5.00049 6.725C5.16716 6.20833 5.49216 5.85833 5.97549 5.675C6.47549 5.49167 6.95049 5.61667 7.40049 6.05C7.58382 6.25 7.75049 6.40833 7.90049 6.525C7.98382 6.59167 8.07549 6.675 8.17549 6.775C8.69216 7.19167 8.89216 7.65 8.77549 8.15C8.65882 8.65 8.34216 9.01667 7.82549 9.25C7.32549 9.46667 6.86716 9.40833 6.45049 9.075C6.03382 8.70833 5.67549 8.38333 5.37549 8.1ZM16.6005 17.95C16.4672 17.7833 16.3005 17.625 16.1005 17.475C16.0172 17.3917 15.9255 17.3083 15.8255 17.225C15.3422 16.8583 15.1588 16.4167 15.2755 15.9C15.3922 15.3667 15.6838 14.9833 16.1505 14.75C16.6338 14.5167 17.1005 14.575 17.5505 14.925C17.9338 15.2417 18.2922 15.5667 18.6255 15.9C19.0088 16.2833 19.1255 16.7417 18.9755 17.275C18.8255 17.7917 18.5005 18.1417 18.0005 18.325C17.5172 18.5083 17.0505 18.3833 16.6005 17.95ZM11.0005 13.35C11.3005 13.3167 11.6338 13.3 12.0005 13.3C12.3838 13.3 12.7255 13.3167 13.0255 13.35C13.6088 13.4 13.9922 13.675 14.1755 14.175C14.3755 14.675 14.3338 15.1583 14.0505 15.625C13.7838 16.075 13.3588 16.275 12.7755 16.225C12.5255 16.2083 12.2672 16.2 12.0005 16.2C11.7338 16.2 11.4672 16.2083 11.2005 16.225C10.6005 16.275 10.1672 16.0667 9.90049 15.6C9.63382 15.1333 9.60049 14.65 9.80049 14.15C10.0005 13.65 10.4005 13.3833 11.0005 13.35ZM5.37549 15.9C5.67549 15.6167 6.03382 15.2917 6.45049 14.925C6.86716 14.5917 7.32549 14.5417 7.82549 14.775C8.34216 14.9917 8.65882 15.35 8.77549 15.85C8.89216 16.35 8.69216 16.8083 8.17549 17.225C8.07549 17.3083 7.98382 17.3917 7.90049 17.475C7.75049 17.5917 7.58382 17.75 7.40049 17.95C6.95049 18.3833 6.47549 18.5083 5.97549 18.325C5.49216 18.1417 5.16716 17.7917 5.00049 17.275C4.85049 16.7583 4.97549 16.3 5.37549 15.9ZM12.0005 22C10.1672 22 8.48382 21.5583 6.95049 20.675C5.41716 19.7917 4.20882 18.5833 3.32549 17.05C2.44216 15.5167 2.00049 13.8333 2.00049 12C2.00049 10.1667 2.44216 8.48333 3.32549 6.95C4.20882 5.41667 5.41716 4.20833 6.95049 3.325C8.48382 2.44167 10.1672 2 12.0005 2C13.8338 2 15.5172 2.44167 17.0505 3.325C18.5838 4.20833 19.7922 5.41667 20.6755 6.95C21.5588 8.48333 22.0005 10.1667 22.0005 12C22.0005 13.8333 21.5588 15.5167 20.6755 17.05C19.7922 18.5833 18.5838 19.7917 17.0505 20.675C15.5172 21.5583 13.8338 22 12.0005 22ZM12.0005 19.275C13.3338 19.275 14.5505 18.9583 15.6505 18.325C16.7505 17.675 17.6172 16.7917 18.2505 15.675C18.9005 14.5583 19.2255 13.3333 19.2255 12C19.2255 10.6667 18.9005 9.44167 18.2505 8.325C17.6172 7.20833 16.7505 6.33333 15.6505 5.7C14.5505 5.05 13.3338 4.725 12.0005 4.725C10.6672 4.725 9.45049 5.05 8.35049 5.7C7.25049 6.33333 6.37549 7.20833 5.72549 8.325C5.09216 9.44167 4.77549 10.6667 4.77549 12C4.77549 13.3333 5.09216 14.5583 5.72549 15.675C6.37549 16.7917 7.25049 17.675 8.35049 18.325C9.45049 18.9583 10.6672 19.275 12.0005 19.275Z" fill="black"/>
</g>
<defs>
<clipPath id="clip0_3197_7302">
<rect width="24" height="24" fill="white"/>
</clipPath>
</defs>
</svg>
