<svg width="24" height="24" viewBox="0 0 24 24" fill="none" xmlns="http://www.w3.org/2000/svg">
<g clip-path="url(#clip0_3197_7308)">
<rect width="24" height="24" fill="white"/>
<path d="M6.95 3.325C8.48333 2.44167 10.1667 2 12 2C13.8333 2 15.5167 2.44167 17.05 3.325C18.5833 4.20833 19.7917 5.41667 20.675 6.95C21.5583 8.48333 22 10.1667 22 12C22 13.8333 21.5583 15.5167 20.675 17.05C19.7917 18.5833 18.5833 19.7917 17.05 20.675C15.5167 21.5583 13.8333 22 12 22C10.1667 22 8.48333 21.5583 6.95 20.675C5.41667 19.7917 4.20833 18.5833 3.325 17.05C2.44167 15.5167 2 13.8333 2 12C2 10.1667 2.44167 8.48333 3.325 6.95C4.20833 5.41667 5.41667 4.20833 6.95 3.325ZM18.175 5.75C18.0083 5.7 17.8583 5.75833 17.725 5.925C17.225 6.60833 16.6417 7.16667 15.975 7.6C15.8083 7.73333 15.7333 7.89167 15.75 8.075C15.7833 8.24167 15.8833 8.36667 16.05 8.45C16.2167 8.53333 16.375 8.51667 16.525 8.4C17.2917 7.9 17.95 7.28333 18.5 6.55C18.6167 6.4 18.6333 6.24167 18.55 6.075C18.4833 5.89167 18.3583 5.78333 18.175 5.75ZM9.85 9.25C9.9 9.41667 10.0333 9.51667 10.25 9.55C10.7667 9.65 11.35 9.7 12 9.7C12.65 9.7 13.2333 9.65 13.75 9.55C13.9667 9.51667 14.0917 9.41667 14.125 9.25C14.175 9.06667 14.1417 8.90833 14.025 8.775C13.925 8.625 13.7833 8.56667 13.6 8.6C13.1167 8.68333 12.5833 8.725 12 8.725C11.4333 8.725 10.9 8.68333 10.4 8.6C10.2167 8.56667 10.0667 8.625 9.95 8.775C9.85 8.90833 9.81667 9.06667 9.85 9.25ZM5.425 6.075C5.35833 6.25833 5.38333 6.41667 5.5 6.55C6.06667 7.28333 6.725 7.9 7.475 8.4C7.625 8.5 7.78333 8.51667 7.95 8.45C8.11667 8.36667 8.21667 8.23333 8.25 8.05C8.28333 7.86667 8.20833 7.71667 8.025 7.6C7.375 7.18333 6.79167 6.625 6.275 5.925C6.125 5.74167 5.96667 5.675 5.8 5.725C5.63333 5.775 5.50833 5.89167 5.425 6.075ZM15.975 16.4C16.6417 16.8333 17.225 17.3917 17.725 18.075C17.8583 18.2417 18.0083 18.3083 18.175 18.275C18.3583 18.225 18.4833 18.1167 18.55 17.95C18.6333 17.7667 18.6167 17.6 18.5 17.45C17.95 16.7167 17.2917 16.1 16.525 15.6C16.375 15.4833 16.2167 15.4667 16.05 15.55C15.8833 15.6333 15.7833 15.7667 15.75 15.95C15.7333 16.1167 15.8083 16.2667 15.975 16.4ZM12 14.3C11.35 14.3 10.7667 14.35 10.25 14.45C10.0333 14.4833 9.9 14.5917 9.85 14.775C9.81667 14.9417 9.85 15.1 9.95 15.25C10.0667 15.3833 10.2167 15.4333 10.4 15.4C10.9 15.3 11.4333 15.25 12 15.25C12.5833 15.25 13.1167 15.3 13.6 15.4C13.7833 15.4333 13.925 15.3833 14.025 15.25C14.1417 15.1 14.175 14.9417 14.125 14.775C14.0917 14.5917 13.9667 14.4833 13.75 14.45C13.2333 14.35 12.65 14.3 12 14.3ZM7.475 15.6C6.725 16.1 6.06667 16.7167 5.5 17.45C5.38333 17.5833 5.35833 17.7417 5.425 17.925C5.50833 18.1083 5.63333 18.225 5.8 18.275C5.96667 18.325 6.125 18.2583 6.275 18.075C6.79167 17.375 7.375 16.8167 8.025 16.4C8.20833 16.2833 8.28333 16.1333 8.25 15.95C8.21667 15.7667 8.11667 15.6417 7.95 15.575C7.78333 15.4917 7.625 15.5 7.475 15.6Z" fill="black"/>
</g>
<defs>
<clipPath id="clip0_3197_7308">
<rect width="24" height="24" fill="white"/>
</clipPath>
</defs>
</svg>
