<svg width="24" height="24" viewBox="0 0 24 24" fill="none" xmlns="http://www.w3.org/2000/svg">
<g clip-path="url(#clip0_3197_7298)">
<rect width="24" height="24" fill="white"/>
<path d="M17.3255 5.825C17.5755 5.525 17.8588 5.41667 18.1755 5.5C18.4922 5.58333 18.7088 5.78333 18.8255 6.1C18.9588 6.41667 18.9172 6.70833 18.7005 6.975C18.2672 7.50833 17.7505 8 17.1505 8.45C16.8838 8.65 16.5922 8.68333 16.2755 8.55C15.9755 8.4 15.7922 8.16667 15.7255 7.85C15.6588 7.53333 15.7838 7.25 16.1005 7C16.2838 6.86667 16.4422 6.73333 16.5755 6.6C16.8755 6.33333 17.1255 6.075 17.3255 5.825ZM10.5255 9.975C10.1588 9.90833 9.92549 9.71667 9.82549 9.4C9.74216 9.08333 9.79216 8.79167 9.97549 8.525C10.1755 8.25833 10.4505 8.15 10.8005 8.2C11.1838 8.26667 11.5838 8.3 12.0005 8.3C12.4172 8.3 12.8172 8.26667 13.2005 8.2C13.5505 8.15 13.8172 8.25833 14.0005 8.525C14.2005 8.79167 14.2505 9.08333 14.1505 9.4C14.0672 9.71667 13.8422 9.90833 13.4755 9.975C12.9422 10.0583 12.4505 10.1 12.0005 10.1C11.5505 10.1 11.0588 10.0583 10.5255 9.975ZM5.30049 6.975C5.06716 6.675 5.01716 6.375 5.15049 6.075C5.28382 5.75833 5.50882 5.56667 5.82549 5.5C6.14216 5.41667 6.42549 5.525 6.67549 5.825C7.00882 6.175 7.25882 6.43333 7.42549 6.6C7.57549 6.73333 7.73382 6.86667 7.90049 7C8.25049 7.28333 8.38382 7.58333 8.30049 7.9C8.21716 8.2 8.00882 8.41667 7.67549 8.55C7.35882 8.68333 7.08382 8.65 6.85049 8.45C6.13382 7.85 5.61716 7.35833 5.30049 6.975ZM17.3255 18.175C17.1255 17.925 16.8755 17.6667 16.5755 17.4C16.4422 17.25 16.2838 17.1167 16.1005 17C15.7838 16.75 15.6588 16.4667 15.7255 16.15C15.7922 15.8333 15.9755 15.6083 16.2755 15.475C16.5922 15.325 16.8838 15.35 17.1505 15.55C17.7505 16 18.2672 16.4917 18.7005 17.025C18.9172 17.2917 18.9588 17.5833 18.8255 17.9C18.7088 18.2167 18.4922 18.4167 18.1755 18.5C17.8588 18.5833 17.5755 18.475 17.3255 18.175ZM10.5255 14.025C11.0588 13.9417 11.5505 13.9 12.0005 13.9C12.4505 13.9 12.9422 13.9417 13.4755 14.025C13.8422 14.0917 14.0672 14.2833 14.1505 14.6C14.2505 14.9167 14.2005 15.2083 14.0005 15.475C13.8172 15.7417 13.5505 15.85 13.2005 15.8C12.8172 15.7333 12.4172 15.7 12.0005 15.7C11.5838 15.7 11.1838 15.7333 10.8005 15.8C10.4505 15.85 10.1755 15.7417 9.97549 15.475C9.79216 15.2083 9.74216 14.9167 9.82549 14.6C9.92549 14.2833 10.1588 14.0917 10.5255 14.025ZM5.30049 17.025C5.61716 16.6417 6.13382 16.15 6.85049 15.55C7.08382 15.35 7.35882 15.3167 7.67549 15.45C8.00882 15.5833 8.21716 15.8083 8.30049 16.125C8.38382 16.425 8.25049 16.7167 7.90049 17C7.73382 17.1167 7.57549 17.25 7.42549 17.4C7.25882 17.5667 7.00882 17.825 6.67549 18.175C6.42549 18.475 6.14216 18.5917 5.82549 18.525C5.50882 18.4417 5.28382 18.25 5.15049 17.95C5.01716 17.6333 5.06716 17.325 5.30049 17.025ZM12.0005 22C10.1672 22 8.48382 21.5583 6.95049 20.675C5.41716 19.7917 4.20882 18.5833 3.32549 17.05C2.44216 15.5167 2.00049 13.8333 2.00049 12C2.00049 10.1667 2.44216 8.48333 3.32549 6.95C4.20882 5.41667 5.41716 4.20833 6.95049 3.325C8.48382 2.44167 10.1672 2 12.0005 2C13.8338 2 15.5172 2.44167 17.0505 3.325C18.5838 4.20833 19.7922 5.41667 20.6755 6.95C21.5588 8.48333 22.0005 10.1667 22.0005 12C22.0005 13.8333 21.5588 15.5167 20.6755 17.05C19.7922 18.5833 18.5838 19.7917 17.0505 20.675C15.5172 21.5583 13.8338 22 12.0005 22ZM12.0005 20.2C13.5005 20.2 14.8672 19.8417 16.1005 19.125C17.3505 18.3917 18.3338 17.4 19.0505 16.15C19.7838 14.9 20.1505 13.5167 20.1505 12C20.1505 10.4833 19.7838 9.1 19.0505 7.85C18.3338 6.6 17.3505 5.61667 16.1005 4.9C14.8672 4.16667 13.5005 3.8 12.0005 3.8C10.5005 3.8 9.12549 4.16667 7.87549 4.9C6.64216 5.61667 5.65882 6.6 4.92549 7.85C4.20882 9.1 3.85049 10.4833 3.85049 12C3.85049 13.5167 4.20882 14.9 4.92549 16.15C5.65882 17.4 6.64216 18.3917 7.87549 19.125C9.12549 19.8417 10.5005 20.2 12.0005 20.2Z" fill="black"/>
</g>
<defs>
<clipPath id="clip0_3197_7298">
<rect width="24" height="24" fill="white"/>
</clipPath>
</defs>
</svg>
