<svg width="24" height="24" viewBox="0 0 24 24" fill="none" xmlns="http://www.w3.org/2000/svg">
<g clip-path="url(#clip0_3197_7304)">
<rect width="24" height="24" fill="white"/>
<path d="M16.2255 6.175C16.7755 5.65833 17.3422 5.525 17.9255 5.775C18.5088 6.00833 18.8838 6.44167 19.0505 7.075C19.2172 7.69167 19.0588 8.225 18.5755 8.675C18.3088 8.90833 18.0338 9.14167 17.7505 9.375C17.2005 9.80833 16.6422 9.89167 16.0755 9.625C15.5255 9.34167 15.1838 8.88333 15.0505 8.25C14.9172 7.61667 15.1255 7.08333 15.6755 6.65C15.7422 6.58333 15.8088 6.525 15.8755 6.475C16.0088 6.39167 16.1255 6.29167 16.2255 6.175ZM11.2255 10.975C10.5255 10.9583 10.0422 10.6583 9.77549 10.075C9.52549 9.475 9.55049 8.9 9.85049 8.35C10.1672 7.78333 10.6838 7.51667 11.4005 7.55C11.6005 7.55 11.8005 7.55 12.0005 7.55C12.2005 7.55 12.3922 7.55 12.5755 7.55C13.2755 7.51667 13.7838 7.775 14.1005 8.325C14.4172 8.875 14.4505 9.45 14.2005 10.05C13.9672 10.6333 13.5005 10.9417 12.8005 10.975C12.6172 10.9917 12.3505 11 12.0005 11C11.6672 11 11.4088 10.9917 11.2255 10.975ZM5.42549 8.675C4.94216 8.225 4.78382 7.69167 4.95049 7.075C5.11716 6.44167 5.49216 6.00833 6.07549 5.775C6.65882 5.525 7.22549 5.65833 7.77549 6.175C7.87549 6.29167 7.99216 6.39167 8.12549 6.475C8.19216 6.525 8.25882 6.58333 8.32549 6.65C8.92549 7.13333 9.15049 7.675 9.00049 8.275C8.86716 8.875 8.50049 9.30833 7.90049 9.575C7.30049 9.84167 6.75049 9.775 6.25049 9.375C5.98382 9.14167 5.70882 8.90833 5.42549 8.675ZM16.2255 17.825C16.1255 17.7083 16.0088 17.6083 15.8755 17.525C15.8088 17.4583 15.7422 17.4 15.6755 17.35C15.1255 16.9167 14.9172 16.3833 15.0505 15.75C15.1838 15.1167 15.5255 14.6667 16.0755 14.4C16.6422 14.1167 17.2005 14.1917 17.7505 14.625C18.0338 14.8583 18.3088 15.0917 18.5755 15.325C19.0588 15.775 19.2172 16.3167 19.0505 16.95C18.8838 17.5667 18.5088 18 17.9255 18.25C17.3422 18.4833 16.7755 18.3417 16.2255 17.825ZM11.2255 13.025C11.4088 13.0083 11.6672 13 12.0005 13C12.3505 13 12.6172 13.0083 12.8005 13.025C13.5005 13.0583 13.9672 13.375 14.2005 13.975C14.4505 14.5583 14.4172 15.125 14.1005 15.675C13.7838 16.225 13.2755 16.4833 12.5755 16.45C12.3922 16.45 12.2005 16.45 12.0005 16.45C11.8005 16.45 11.6005 16.45 11.4005 16.45C10.6838 16.4833 10.1672 16.225 9.85049 15.675C9.55049 15.1083 9.52549 14.5333 9.77549 13.95C10.0422 13.35 10.5255 13.0417 11.2255 13.025ZM5.42549 15.325C5.70882 15.0917 5.98382 14.8583 6.25049 14.625C6.75049 14.225 7.30049 14.1583 7.90049 14.425C8.50049 14.6917 8.86716 15.125 9.00049 15.725C9.15049 16.325 8.92549 16.8667 8.32549 17.35C8.25882 17.4 8.19216 17.4583 8.12549 17.525C7.99216 17.6083 7.87549 17.7083 7.77549 17.825C7.22549 18.3417 6.65882 18.4833 6.07549 18.25C5.49216 18 5.11716 17.5667 4.95049 16.95C4.78382 16.3167 4.94216 15.775 5.42549 15.325ZM12.0005 22C10.1672 22 8.48382 21.5583 6.95049 20.675C5.41716 19.7917 4.20882 18.5833 3.32549 17.05C2.44216 15.5167 2.00049 13.8333 2.00049 12C2.00049 10.1667 2.44216 8.48333 3.32549 6.95C4.20882 5.41667 5.41716 4.20833 6.95049 3.325C8.48382 2.44167 10.1672 2 12.0005 2C13.8338 2 15.5172 2.44167 17.0505 3.325C18.5838 4.20833 19.7922 5.41667 20.6755 6.95C21.5588 8.48333 22.0005 10.1667 22.0005 12C22.0005 13.8333 21.5588 15.5167 20.6755 17.05C19.7922 18.5833 18.5838 19.7917 17.0505 20.675C15.5172 21.5583 13.8338 22 12.0005 22ZM12.0005 18.8C13.2505 18.8 14.3922 18.5 15.4255 17.9C16.4588 17.3 17.2672 16.4833 17.8505 15.45C18.4505 14.4 18.7505 13.25 18.7505 12C18.7505 10.75 18.4505 9.60833 17.8505 8.575C17.2672 7.525 16.4588 6.7 15.4255 6.1C14.3922 5.5 13.2505 5.2 12.0005 5.2C10.7505 5.2 9.60882 5.5 8.57549 6.1C7.54216 6.7 6.72549 7.525 6.12549 8.575C5.54216 9.60833 5.25049 10.75 5.25049 12C5.25049 13.25 5.54216 14.4 6.12549 15.45C6.72549 16.4833 7.54216 17.3 8.57549 17.9C9.60882 18.5 10.7505 18.8 12.0005 18.8Z" fill="black"/>
</g>
<defs>
<clipPath id="clip0_3197_7304">
<rect width="24" height="24" fill="white"/>
</clipPath>
</defs>
</svg>
