<svg width="24" height="24" viewBox="0 0 24 24" fill="none" xmlns="http://www.w3.org/2000/svg">
<g clip-path="url(#clip0_3197_7306)">
<rect width="24" height="24" fill="white"/>
<path d="M6.95 3.325C8.48333 2.44167 10.1667 2 12 2C13.8333 2 15.5167 2.44167 17.05 3.325C18.5833 4.20833 19.7917 5.41667 20.675 6.95C21.5583 8.48333 22 10.1667 22 12C22 13.8333 21.5583 15.5167 20.675 17.05C19.7917 18.5833 18.5833 19.7917 17.05 20.675C15.5167 21.5583 13.8333 22 12 22C10.1667 22 8.48333 21.5583 6.95 20.675C5.41667 19.7917 4.20833 18.5833 3.325 17.05C2.44167 15.5167 2 13.8333 2 12C2 10.1667 2.44167 8.48333 3.325 6.95C4.20833 5.41667 5.41667 4.20833 6.95 3.325ZM18.3 5.8C18.2167 5.78333 18.1333 5.825 18.05 5.925C17.4667 6.74167 16.7667 7.40833 15.95 7.925C15.8667 7.975 15.825 8.05 15.825 8.15C15.8417 8.23333 15.8833 8.3 15.95 8.35C16.0333 8.38333 16.1167 8.375 16.2 8.325C17.1 7.75833 17.85 7.05 18.45 6.2C18.5 6.15 18.5083 6.075 18.475 5.975C18.4417 5.875 18.3833 5.81667 18.3 5.8ZM9.875 9.125C9.89167 9.20833 9.95 9.25833 10.05 9.275C10.7167 9.40833 11.3667 9.475 12 9.475C12.6333 9.475 13.2833 9.40833 13.95 9.275C14.05 9.25833 14.1083 9.20833 14.125 9.125C14.1417 9.025 14.1167 8.94167 14.05 8.875C14 8.80833 13.9333 8.78333 13.85 8.8C13.2 8.91667 12.5833 8.975 12 8.975C11.4167 8.975 10.8 8.91667 10.15 8.8C10.0667 8.78333 9.99167 8.80833 9.925 8.875C9.875 8.94167 9.85833 9.025 9.875 9.125ZM5.525 5.975C5.49167 6.075 5.5 6.15 5.55 6.2C6.18333 7.06667 6.93333 7.775 7.8 8.325C7.88333 8.375 7.95833 8.38333 8.025 8.35C8.10833 8.3 8.15 8.23333 8.15 8.15C8.16667 8.05 8.13333 7.975 8.05 7.925C7.26667 7.44167 6.56667 6.76667 5.95 5.9C5.88333 5.8 5.80833 5.76667 5.725 5.8C5.64167 5.81667 5.575 5.875 5.525 5.975ZM15.95 16.075C16.7667 16.5917 17.4667 17.2583 18.05 18.075C18.1333 18.175 18.2167 18.2167 18.3 18.2C18.3833 18.1833 18.4417 18.125 18.475 18.025C18.5083 17.925 18.5 17.85 18.45 17.8C17.85 16.95 17.1 16.2417 16.2 15.675C16.1167 15.625 16.0333 15.625 15.95 15.675C15.8833 15.7083 15.8417 15.775 15.825 15.875C15.825 15.9583 15.8667 16.025 15.95 16.075ZM12 14.525C11.3667 14.525 10.7167 14.5917 10.05 14.725C9.95 14.7417 9.89167 14.8 9.875 14.9C9.85833 14.9833 9.875 15.0583 9.925 15.125C9.99167 15.1917 10.0667 15.2167 10.15 15.2C10.8 15.0667 11.4167 15 12 15C12.5833 15 13.2 15.0667 13.85 15.2C13.9333 15.2167 14 15.1917 14.05 15.125C14.1167 15.0583 14.1417 14.9833 14.125 14.9C14.1083 14.8 14.05 14.7417 13.95 14.725C13.2833 14.5917 12.6333 14.525 12 14.525ZM7.8 15.675C6.93333 16.225 6.18333 16.9333 5.55 17.8C5.5 17.85 5.49167 17.925 5.525 18.025C5.575 18.125 5.64167 18.1917 5.725 18.225C5.80833 18.2417 5.88333 18.2 5.95 18.1C6.56667 17.2333 7.26667 16.5583 8.05 16.075C8.13333 16.025 8.16667 15.9583 8.15 15.875C8.15 15.775 8.10833 15.7083 8.025 15.675C7.95833 15.625 7.88333 15.625 7.8 15.675Z" fill="black"/>
</g>
<defs>
<clipPath id="clip0_3197_7306">
<rect width="24" height="24" fill="white"/>
</clipPath>
</defs>
</svg>
