<svg width="24" height="24" viewBox="0 0 24 24" fill="none" xmlns="http://www.w3.org/2000/svg">
<g clip-path="url(#clip0_3197_7266)">
<rect width="24" height="24" fill="white"/>
<path d="M11.175 10.875C10.4583 10.875 9.80833 10.6667 9.225 10.25C8.65833 9.83333 8.21667 9.25833 7.9 8.525C7.58333 7.775 7.425 6.93333 7.425 6C7.425 4.83333 7.775 3.875 8.475 3.125C9.175 2.375 10.075 2 11.175 2H16.25C17.35 2 18.25 2.375 18.95 3.125C19.65 3.875 20 4.83333 20 6C20 6.93333 19.8417 7.775 19.525 8.525C19.2083 9.25833 18.7583 9.83333 18.175 10.25C17.6083 10.6667 16.9667 10.875 16.25 10.875H11.175ZM6.1 15.35C5.48333 14.8333 4.98333 14.2917 4.6 13.725C4.21667 13.1583 3.93333 12.5833 3.75 12C3.58333 11.4 3.5 10.7917 3.5 10.175V8.6C3.5 6.86667 4.14167 6 5.425 6C5.425 7.25 5.65833 8.4 6.125 9.45C6.60833 10.5 7.275 11.3333 8.125 11.95C8.975 12.5667 9.93333 12.875 11 12.875H16.25C16.8167 12.875 17.3583 12.7833 17.875 12.6C18.4083 12.4 18.8583 12.1667 19.225 11.9C19.6083 11.6333 19.8667 11.3833 20 11.15V12.175C20 13.0417 19.8333 13.8167 19.5 14.5C19.1667 15.1667 18.6667 15.8333 18 16.5H7.5L6.1 15.35ZM18 22H7.5V18.5H18V22Z" fill="black"/>
</g>
<defs>
<clipPath id="clip0_3197_7266">
<rect width="24" height="24" fill="white"/>
</clipPath>
</defs>
</svg>
