<svg width="24" height="24" viewBox="0 0 24 24" fill="none" xmlns="http://www.w3.org/2000/svg">
<g clip-path="url(#clip0_3197_7258)">
<rect width="24" height="24" fill="white"/>
<path d="M10.675 10.875C9.95833 10.875 9.30833 10.6667 8.725 10.25C8.15833 9.83333 7.71667 9.25833 7.4 8.525C7.08333 7.775 6.925 6.93333 6.925 6C6.925 4.83333 7.275 3.875 7.975 3.125C8.675 2.375 9.575 2 10.675 2H16.25C17.35 2 18.25 2.375 18.95 3.125C19.65 3.875 20 4.83333 20 6C20 6.93333 19.8417 7.775 19.525 8.525C19.2083 9.25833 18.7583 9.83333 18.175 10.25C17.6083 10.6667 16.9667 10.875 16.25 10.875H10.675ZM6.1 16.1C5.53333 15.5333 5.05 14.9083 4.65 14.225C4.26667 13.5417 3.975 12.85 3.775 12.15C3.59167 11.45 3.5 10.7917 3.5 10.175V8.6C3.5 6.86667 4.14167 6 5.425 6C5.425 7.18333 5.64167 8.25833 6.075 9.225C6.50833 10.1917 7.11667 10.9583 7.9 11.525C8.68333 12.0917 9.56667 12.375 10.55 12.375H16.25C16.8667 12.375 17.4333 12.2583 17.95 12.025C18.4667 11.7917 18.9 11.525 19.25 11.225C19.6167 10.9083 19.8667 10.6 20 10.3V12.175C20 13.1083 19.8167 14.075 19.45 15.075C19.1 16.075 18.6167 16.8833 18 17.5H7.5L6.1 16.1ZM18 22H7.5V19H18V22Z" fill="black"/>
</g>
<defs>
<clipPath id="clip0_3197_7258">
<rect width="24" height="24" fill="white"/>
</clipPath>
</defs>
</svg>
