<svg width="24" height="24" viewBox="0 0 24 24" fill="none" xmlns="http://www.w3.org/2000/svg">
<g clip-path="url(#clip0_3197_7250)">
<rect width="24" height="24" fill="white"/>
<path d="M8.02549 17.625L8.17549 14.9H17.5005L17.6255 17.625H8.02549ZM9.87549 4.775C9.62549 4.775 9.40049 4.83333 9.20049 4.95C9.00049 5.06667 8.84216 5.23333 8.72549 5.45C8.60882 5.65 8.55049 5.875 8.55049 6.125C8.55049 6.575 8.66716 7 8.90049 7.4C9.15049 7.8 9.47549 8.10833 9.87549 8.325C10.2755 8.54167 10.7088 8.65 11.1755 8.65H14.5755C15.0422 8.65 15.4755 8.54167 15.8755 8.325C16.2755 8.10833 16.5922 7.8 16.8255 7.4C17.0588 7 17.1755 6.575 17.1755 6.125C17.1755 5.875 17.1172 5.65 17.0005 5.45C16.9005 5.23333 16.7422 5.06667 16.5255 4.95C16.3255 4.83333 16.1088 4.775 15.8755 4.775H9.87549ZM17.1755 9.35L19.8005 6.125C19.8005 7.075 19.5588 7.95833 19.0755 8.775C18.6088 9.59167 17.9755 10.2333 17.1755 10.7C16.3755 11.1667 15.5088 11.4 14.5755 11.4H11.0505C10.0672 11.4 9.16716 11.1667 8.35049 10.7C7.55049 10.2333 6.91716 9.6 6.45049 8.8C5.98382 7.98333 5.75049 7.09167 5.75049 6.125C5.75049 5.35833 5.92549 4.66667 6.27549 4.05C6.62549 3.41667 7.10882 2.91667 7.72549 2.55C8.34216 2.18333 9.01716 2 9.75049 2H16.0005C16.7338 2 17.4088 2.18333 18.0255 2.55C18.6422 2.91667 19.1255 3.41667 19.4755 4.05C19.8255 4.66667 20.0005 5.35833 20.0005 6.125V12.175C20.0005 13.0417 19.8422 13.9 19.5255 14.75C19.2088 15.5833 18.7838 16.3333 18.2505 17V22H7.50049V17L5.80049 15.3C5.06716 14.5833 4.50049 13.7917 4.10049 12.925C3.70049 12.0583 3.50049 11.225 3.50049 10.425V8.925C3.50049 8.29167 3.65882 7.7 3.97549 7.15C4.29216 6.6 4.72549 6.15833 5.27549 5.825C5.82549 5.475 6.43382 5.29167 7.10049 5.275L7.25049 8C7.00049 8 6.77549 8.09167 6.57549 8.275C6.39216 8.45833 6.30049 8.675 6.30049 8.925V10.425C6.30049 10.9583 6.44216 11.4833 6.72549 12C7.02549 12.5 7.45882 13.05 8.02549 13.65L10.2755 15.975V19.275H15.4755V16.225C16.0422 15.5417 16.4672 14.8667 16.7505 14.2C17.0338 13.5333 17.1755 12.8583 17.1755 12.175V9.35Z" fill="black"/>
</g>
<defs>
<clipPath id="clip0_3197_7250">
<rect width="24" height="24" fill="white"/>
</clipPath>
</defs>
</svg>
