<svg width="24" height="24" viewBox="0 0 24 24" fill="none" xmlns="http://www.w3.org/2000/svg">
<g clip-path="url(#clip0_3197_7050)">
<rect width="24" height="24" fill="white"/>
<path d="M7.55049 17.25V16.775H18.1255V17.25H7.55049ZM9.75049 2.475C9.11716 2.475 8.52549 2.63333 7.97549 2.95C7.44216 3.25 7.01716 3.675 6.70049 4.225C6.40049 4.75833 6.25049 5.35 6.25049 6C6.25049 6.83333 6.45049 7.6 6.85049 8.3C7.25049 8.98333 7.79216 9.525 8.47549 9.925C9.15882 10.325 9.91716 10.525 10.7505 10.525H15.0005C15.8338 10.525 16.5922 10.325 17.2755 9.925C17.9588 9.525 18.5005 8.98333 18.9005 8.3C19.3005 7.6 19.5005 6.83333 19.5005 6C19.5005 5.35 19.3422 4.75833 19.0255 4.225C18.7255 3.675 18.3005 3.25 17.7505 2.95C17.2172 2.63333 16.6338 2.475 16.0005 2.475H9.75049ZM19.5005 7.575L19.9505 6C19.9505 6.91667 19.7255 7.75833 19.2755 8.525C18.8422 9.29167 18.2505 9.9 17.5005 10.35C16.7505 10.7833 15.9172 11 15.0005 11H10.7505C9.83382 11 8.99216 10.7833 8.22549 10.35C7.45882 9.9 6.85049 9.29167 6.40049 8.525C5.96716 7.75833 5.75049 6.91667 5.75049 6C5.75049 5.26667 5.92549 4.59167 6.27549 3.975C6.62549 3.35833 7.10882 2.875 7.72549 2.525C8.34216 2.175 9.01716 2 9.75049 2H16.0005C16.7338 2 17.4088 2.175 18.0255 2.525C18.6422 2.875 19.1255 3.35833 19.4755 3.975C19.8255 4.59167 20.0005 5.26667 20.0005 6V12.175C20.0005 13.0417 19.8422 13.9 19.5255 14.75C19.2088 15.5833 18.7838 16.3333 18.2505 17V22H7.50049V17L5.85049 15.35C5.10049 14.6 4.51716 13.775 4.10049 12.875C3.70049 11.975 3.50049 11.075 3.50049 10.175V8.875C3.50049 8.375 3.61716 7.90833 3.85049 7.475C4.08382 7.04167 4.40049 6.69167 4.80049 6.425C5.21716 6.15833 5.67549 6.01667 6.17549 6V6.55C5.55882 6.55 5.04216 6.775 4.62549 7.225C4.20882 7.675 4.00049 8.225 4.00049 8.875V10.2C4.00049 11.0333 4.18382 11.8667 4.55049 12.7C4.93382 13.5333 5.47549 14.3 6.17549 15L8.00049 16.825V21.525H17.7505V16.825C18.2838 16.1583 18.7088 15.425 19.0255 14.625C19.3422 13.8083 19.5005 12.9917 19.5005 12.175V7.575Z" fill="black"/>
</g>
<defs>
<clipPath id="clip0_3197_7050">
<rect width="24" height="24" fill="white"/>
</clipPath>
</defs>
</svg>
