<svg width="24" height="24" viewBox="0 0 24 24" fill="none" xmlns="http://www.w3.org/2000/svg">
<g clip-path="url(#clip0_3197_7422)">
<rect width="24" height="24" fill="white"/>
<path d="M9.775 19.45L7.875 17.525L4.15 21.25L1.725 18.825L5.475 15.1L3.55 13.2L14.6 2.125C16.0167 2.625 17.2833 3.44167 18.4 4.575C19.5333 5.69167 20.35 6.95833 20.85 8.375L9.775 19.45ZM18.125 21.25C17.2417 21.25 16.5 20.95 15.9 20.35C15.3 19.75 15 19.0167 15 18.15C15 17.2833 15.3 16.55 15.9 15.95C16.5 15.35 17.2417 15.05 18.125 15.05C19.0083 15.05 19.75 15.35 20.35 15.95C20.95 16.55 21.25 17.2833 21.25 18.15C21.25 19.0167 20.95 19.75 20.35 20.35C19.75 20.95 19.0083 21.25 18.125 21.25Z" fill="black"/>
</g>
<defs>
<clipPath id="clip0_3197_7422">
<rect width="24" height="24" fill="white"/>
</clipPath>
</defs>
</svg>
