<svg width="24" height="24" viewBox="0 0 24 24" fill="none" xmlns="http://www.w3.org/2000/svg">
<g clip-path="url(#clip0_3197_7406)">
<rect width="24" height="24" fill="white"/>
<path d="M17.7005 7.125C17.5505 6.84167 17.2838 6.50833 16.9005 6.125C16.5172 5.74167 16.1755 5.46667 15.8755 5.3L7.70049 13.45L9.55049 15.275L17.7005 7.125ZM9.52549 19.15L7.67549 17.3L3.75049 21.225L1.75049 19.225L5.70049 15.3L3.85049 13.45L15.3755 1.9C16.6088 2.33333 17.7588 3.08333 18.8255 4.15C19.8922 5.21667 20.6422 6.36667 21.0755 7.6L9.52549 19.15ZM19.4505 19.475C19.4338 19.475 19.4172 19.475 19.4005 19.475C19.4005 19.475 19.3922 19.475 19.3755 19.475C19.3922 19.475 19.4005 19.475 19.4005 19.475C19.4172 19.475 19.4338 19.475 19.4505 19.475C19.4672 19.475 19.4755 19.475 19.4755 19.475C19.4922 19.475 19.5088 19.475 19.5255 19.475C19.5088 19.475 19.4922 19.475 19.4755 19.475C19.4755 19.475 19.4672 19.475 19.4505 19.475ZM19.3005 21.25C18.9338 21.25 18.6005 21.1667 18.3005 21C18.0172 20.8167 17.7838 20.575 17.6005 20.275C17.4172 19.975 17.3255 19.65 17.3255 19.3C17.3255 18.9333 17.4172 18.6 17.6005 18.3C17.7838 18 18.0255 17.7667 18.3255 17.6C18.6255 17.4333 18.9505 17.35 19.3005 17.35C19.6505 17.35 19.9755 17.4417 20.2755 17.625C20.5755 17.7917 20.8088 18.025 20.9755 18.325C21.1588 18.625 21.2505 18.95 21.2505 19.3C21.2505 19.65 21.1588 19.975 20.9755 20.275C20.8088 20.575 20.5755 20.8167 20.2755 21C19.9755 21.1667 19.6505 21.25 19.3005 21.25Z" fill="black"/>
</g>
<defs>
<clipPath id="clip0_3197_7406">
<rect width="24" height="24" fill="white"/>
</clipPath>
</defs>
</svg>
