<svg width="24" height="24" viewBox="0 0 24 24" fill="none" xmlns="http://www.w3.org/2000/svg">
<g clip-path="url(#clip0_3197_7408)">
<rect width="24" height="24" fill="white"/>
<path d="M16.5755 7.8C16.4588 7.58333 16.2588 7.33333 15.9755 7.05C15.6922 6.76667 15.4338 6.55 15.2005 6.4L8.52549 13.05L9.92549 14.45L16.5755 7.8ZM9.90049 19.475L7.97549 17.525L4.25049 21.25L1.72549 18.725L5.47549 15L3.52549 13.075L14.5755 2C15.9922 2.5 17.2838 3.34167 18.4505 4.525C19.6338 5.69167 20.4755 6.98333 20.9755 8.4L9.90049 19.475ZM19.3255 19.4C19.3088 19.4 19.2922 19.4 19.2755 19.4C19.2755 19.4 19.2672 19.4 19.2505 19.4C19.2672 19.4 19.2755 19.4 19.2755 19.4C19.2922 19.4 19.3088 19.4 19.3255 19.4C19.3422 19.4 19.3505 19.4 19.3505 19.4C19.3672 19.4 19.3838 19.4 19.4005 19.4C19.3838 19.4 19.3672 19.4 19.3505 19.4C19.3505 19.4 19.3422 19.4 19.3255 19.4ZM18.8755 21.25C18.4422 21.25 18.0422 21.1417 17.6755 20.925C17.3255 20.7083 17.0422 20.425 16.8255 20.075C16.6088 19.7083 16.5005 19.3083 16.5005 18.875C16.5005 18.425 16.6088 18.0167 16.8255 17.65C17.0422 17.2833 17.3338 17 17.7005 16.8C18.0672 16.6 18.4588 16.5 18.8755 16.5C19.3255 16.5 19.7338 16.6083 20.1005 16.825C20.4672 17.0417 20.7505 17.3333 20.9505 17.7C21.1505 18.0667 21.2505 18.4583 21.2505 18.875C21.2505 19.3083 21.1422 19.7083 20.9255 20.075C20.7255 20.4417 20.4422 20.7333 20.0755 20.95C19.7088 21.15 19.3088 21.25 18.8755 21.25Z" fill="black"/>
</g>
<defs>
<clipPath id="clip0_3197_7408">
<rect width="24" height="24" fill="white"/>
</clipPath>
</defs>
</svg>
