<svg width="24" height="24" viewBox="0 0 24 24" fill="none" xmlns="http://www.w3.org/2000/svg">
<g clip-path="url(#clip0_3197_7631)">
<rect width="24" height="24" fill="white"/>
<path d="M12 22C10.1833 22 8.50833 21.55 6.975 20.65C5.45833 19.75 4.25 18.5417 3.35 17.025C2.45 15.4917 2 13.8167 2 12C2 10.1833 2.45 8.51667 3.35 7C4.25 5.46667 5.45833 4.25 6.975 3.35C8.50833 2.45 10.1833 2 12 2C13.8167 2 15.4833 2.45 17 3.35C18.5333 4.25 19.75 5.46667 20.65 7C21.55 8.51667 22 10.1833 22 12C22 13.8167 21.55 15.4917 20.65 17.025C19.75 18.5417 18.5333 19.75 17 20.65C15.4833 21.55 13.8167 22 12 22ZM12 17.375L14.875 19.45C16.1917 18.95 17.3 18.1417 18.2 17.025L17.125 13.65L19.975 11.575C19.9083 10.1417 19.4833 8.83333 18.7 7.65H15.15L14.075 4.275C13.375 4.09167 12.6833 4 12 4C11.3167 4 10.625 4.09167 9.925 4.275L8.85 7.65H5.3C4.51667 8.83333 4.09167 10.1417 4.025 11.575L6.875 13.65L5.8 17.025C6.7 18.1417 7.80833 18.95 9.125 19.45L12 17.375ZM8.475 13.15L9.825 9H14.175L15.525 13.15L12 15.7L8.475 13.15Z" fill="black"/>
</g>
<defs>
<clipPath id="clip0_3197_7631">
<rect width="24" height="24" fill="white"/>
</clipPath>
</defs>
</svg>
