<svg width="24" height="24" viewBox="0 0 24 24" fill="none" xmlns="http://www.w3.org/2000/svg">
<g clip-path="url(#clip0_3197_7330)">
<rect width="24" height="24" fill="white"/>
<path d="M19.1505 9.375L4.02549 17L7.50049 12.7V22H4.00049V1.75L19.1505 9.375ZM7.50049 11.5L12.1255 9.375L7.50049 7.25V11.5ZM16.6755 22.25C15.8755 22.25 15.1422 22.0583 14.4755 21.675C13.8255 21.2917 13.3088 20.775 12.9255 20.125C12.5422 19.4583 12.3505 18.7333 12.3505 17.95C12.3505 17.1667 12.5422 16.45 12.9255 15.8C13.3088 15.1333 13.8255 14.6167 14.4755 14.25C15.1422 13.8667 15.8755 13.675 16.6755 13.675C17.4755 13.675 18.2005 13.8667 18.8505 14.25C19.5172 14.6167 20.0422 15.1333 20.4255 15.8C20.8088 16.45 21.0005 17.1667 21.0005 17.95C21.0005 18.7333 20.8088 19.4583 20.4255 20.125C20.0422 20.775 19.5172 21.2917 18.8505 21.675C18.2005 22.0583 17.4755 22.25 16.6755 22.25ZM16.6755 19.125C17.0088 19.125 17.2838 19.0167 17.5005 18.8C17.7338 18.5667 17.8505 18.2833 17.8505 17.95C17.8505 17.6167 17.7338 17.3417 17.5005 17.125C17.2838 16.8917 17.0088 16.775 16.6755 16.775C16.3422 16.775 16.0588 16.8917 15.8255 17.125C15.6088 17.3417 15.5005 17.6167 15.5005 17.95C15.5005 18.2833 15.6088 18.5667 15.8255 18.8C16.0588 19.0167 16.3422 19.125 16.6755 19.125Z" fill="black"/>
</g>
<defs>
<clipPath id="clip0_3197_7330">
<rect width="24" height="24" fill="white"/>
</clipPath>
</defs>
</svg>
