<svg width="24" height="24" viewBox="0 0 24 24" fill="none" xmlns="http://www.w3.org/2000/svg">
<g clip-path="url(#clip0_3197_7326)">
<rect width="24" height="24" fill="white"/>
<path d="M18.4755 8.7L4.02549 15.625L6.42549 12.975V22H4.00049V1.75L18.4755 8.7ZM6.40049 11.875L13.3005 8.7L6.40049 5.525V11.875ZM17.0505 22.25C16.3338 22.25 15.6755 22.075 15.0755 21.725C14.4755 21.375 14.0005 20.9 13.6505 20.3C13.3005 19.7 13.1255 19.0417 13.1255 18.325C13.1255 17.6083 13.3005 16.9583 13.6505 16.375C14.0005 15.775 14.4755 15.3 15.0755 14.95C15.6755 14.6 16.3338 14.425 17.0505 14.425C17.7838 14.425 18.4505 14.6 19.0505 14.95C19.6505 15.3 20.1255 15.775 20.4755 16.375C20.8255 16.9583 21.0005 17.6083 21.0005 18.325C21.0005 19.0417 20.8255 19.7 20.4755 20.3C20.1255 20.9 19.6505 21.375 19.0505 21.725C18.4505 22.075 17.7838 22.25 17.0505 22.25ZM17.0505 20.05C17.5338 20.05 17.9422 19.8833 18.2755 19.55C18.6088 19.2167 18.7755 18.8083 18.7755 18.325C18.7755 17.8583 18.6088 17.4583 18.2755 17.125C17.9422 16.7917 17.5338 16.625 17.0505 16.625C16.5838 16.625 16.1838 16.7917 15.8505 17.125C15.5172 17.4583 15.3505 17.8583 15.3505 18.325C15.3505 18.8083 15.5172 19.2167 15.8505 19.55C16.1838 19.8833 16.5838 20.05 17.0505 20.05Z" fill="black"/>
</g>
<defs>
<clipPath id="clip0_3197_7326">
<rect width="24" height="24" fill="white"/>
</clipPath>
</defs>
</svg>
