<svg width="24" height="24" viewBox="0 0 24 24" fill="none" xmlns="http://www.w3.org/2000/svg">
<g clip-path="url(#clip0_3197_7320)">
<rect width="24" height="24" fill="white"/>
<path d="M17.4755 7.625L4.00049 13.475L4.95049 11.475V22H3.97549V1.75L17.4755 7.625ZM4.92549 12.05L15.2255 7.625L4.92549 3.2V12.05ZM17.4255 22.25C16.7588 22.25 16.1505 22.0917 15.6005 21.775C15.0505 21.4583 14.6172 21.025 14.3005 20.475C13.9838 19.925 13.8255 19.325 13.8255 18.675C13.8255 18.025 13.9838 17.425 14.3005 16.875C14.6172 16.325 15.0505 15.8917 15.6005 15.575C16.1505 15.2583 16.7588 15.1 17.4255 15.1C18.0755 15.1 18.6755 15.2583 19.2255 15.575C19.7755 15.8917 20.2088 16.325 20.5255 16.875C20.8422 17.425 21.0005 18.025 21.0005 18.675C21.0005 19.325 20.8422 19.925 20.5255 20.475C20.2088 21.025 19.7755 21.4583 19.2255 21.775C18.6755 22.0917 18.0755 22.25 17.4255 22.25ZM17.4255 21.35C18.1588 21.35 18.7838 21.0917 19.3005 20.575C19.8338 20.0583 20.1005 19.425 20.1005 18.675C20.1005 17.925 19.8338 17.2917 19.3005 16.775C18.7838 16.2583 18.1588 16 17.4255 16C16.6755 16 16.0422 16.2583 15.5255 16.775C15.0088 17.2917 14.7505 17.925 14.7505 18.675C14.7505 19.425 15.0088 20.0583 15.5255 20.575C16.0422 21.0917 16.6755 21.35 17.4255 21.35Z" fill="black"/>
</g>
<defs>
<clipPath id="clip0_3197_7320">
<rect width="24" height="24" fill="white"/>
</clipPath>
</defs>
</svg>
