<svg width="24" height="24" viewBox="0 0 24 24" fill="none" xmlns="http://www.w3.org/2000/svg">
<g clip-path="url(#clip0_3197_7200)">
<rect width="24" height="24" fill="white"/>
<path d="M15.2255 15.025L12.6005 12.8L20.9255 3.525L23.2255 6.125L15.2255 15.025ZM19.6255 2L16.5005 5.45H7.50049L4.40049 2H19.6255ZM11.4005 12.8L8.77549 15.025L0.775488 6.125L3.07549 3.525L11.4005 12.8ZM11.9005 20.475H11.9755H11.9505H11.8755H11.9255H12.0755H12.1255H12.0505H12.0255H12.1005H12.0755H11.9255H11.9005ZM12.0005 22.575C11.0838 22.575 10.2422 22.35 9.47549 21.9C8.72549 21.45 8.12549 20.85 7.67549 20.1C7.22549 19.3333 7.00049 18.4917 7.00049 17.575C7.00049 16.6583 7.22549 15.825 7.67549 15.075C8.12549 14.3083 8.72549 13.7 9.47549 13.25C10.2422 12.8 11.0838 12.575 12.0005 12.575C12.9172 12.575 13.7505 12.8 14.5005 13.25C15.2672 13.7 15.8755 14.3083 16.3255 15.075C16.7755 15.825 17.0005 16.6583 17.0005 17.575C17.0005 18.4917 16.7755 19.3333 16.3255 20.1C15.8755 20.85 15.2672 21.45 14.5005 21.9C13.7505 22.35 12.9172 22.575 12.0005 22.575ZM12.0005 19.225C12.3005 19.225 12.5755 19.15 12.8255 19C13.0755 18.85 13.2755 18.65 13.4255 18.4C13.5755 18.15 13.6505 17.875 13.6505 17.575C13.6505 17.275 13.5755 17 13.4255 16.75C13.2755 16.5 13.0755 16.3 12.8255 16.15C12.5755 16 12.3005 15.925 12.0005 15.925C11.7005 15.925 11.4255 16 11.1755 16.15C10.9255 16.3 10.7255 16.5 10.5755 16.75C10.4255 17 10.3505 17.275 10.3505 17.575C10.3505 17.875 10.4255 18.15 10.5755 18.4C10.7255 18.65 10.9255 18.85 11.1755 19C11.4255 19.15 11.7005 19.225 12.0005 19.225Z" fill="black"/>
</g>
<defs>
<clipPath id="clip0_3197_7200">
<rect width="24" height="24" fill="white"/>
</clipPath>
</defs>
</svg>
