<svg width="24" height="24" viewBox="0 0 24 24" fill="none" xmlns="http://www.w3.org/2000/svg">
<g clip-path="url(#clip0_3197_7198)">
<rect width="24" height="24" fill="white"/>
<path d="M14.9005 14.75L12.6755 12.975L21.3505 3.55L23.2255 5.675L14.9005 14.75ZM20.1005 2L17.4255 4.825H6.72549L4.07549 2H20.1005ZM11.3255 12.975L9.10049 14.75L0.775488 5.675L2.65049 3.55L11.3255 12.975ZM11.9005 20.975H11.9755H11.9505H11.8755H11.9255H12.0755H12.1255H12.0505H12.0255H12.1005H12.0755H11.9255H11.9005ZM12.0005 22.575C11.0838 22.575 10.2422 22.35 9.47549 21.9C8.72549 21.45 8.12549 20.85 7.67549 20.1C7.22549 19.3333 7.00049 18.4917 7.00049 17.575C7.00049 16.6583 7.22549 15.825 7.67549 15.075C8.12549 14.3083 8.72549 13.7 9.47549 13.25C10.2422 12.8 11.0838 12.575 12.0005 12.575C12.9172 12.575 13.7505 12.8 14.5005 13.25C15.2672 13.7 15.8755 14.3083 16.3255 15.075C16.7755 15.825 17.0005 16.6583 17.0005 17.575C17.0005 18.4917 16.7755 19.3333 16.3255 20.1C15.8755 20.85 15.2672 21.45 14.5005 21.9C13.7505 22.35 12.9172 22.575 12.0005 22.575ZM12.0005 19.9C12.4172 19.9 12.8005 19.8 13.1505 19.6C13.5172 19.3833 13.8005 19.1 14.0005 18.75C14.2172 18.3833 14.3255 17.9917 14.3255 17.575C14.3255 17.1583 14.2172 16.775 14.0005 16.425C13.8005 16.0583 13.5172 15.775 13.1505 15.575C12.8005 15.3583 12.4172 15.25 12.0005 15.25C11.5838 15.25 11.1922 15.3583 10.8255 15.575C10.4755 15.775 10.1922 16.0583 9.97549 16.425C9.77549 16.775 9.67549 17.1583 9.67549 17.575C9.67549 17.9917 9.77549 18.3833 9.97549 18.75C10.1922 19.1 10.4755 19.3833 10.8255 19.6C11.1922 19.8 11.5838 19.9 12.0005 19.9Z" fill="black"/>
</g>
<defs>
<clipPath id="clip0_3197_7198">
<rect width="24" height="24" fill="white"/>
</clipPath>
</defs>
</svg>
