<svg width="24" height="24" viewBox="0 0 24 24" fill="none" xmlns="http://www.w3.org/2000/svg">
<g clip-path="url(#clip0_3197_7190)">
<rect width="24" height="24" fill="white"/>
<path d="M12.7255 13.05H11.6505L18.9755 2.625L19.8005 3L12.7255 13.05ZM16.1005 6.75L15.6505 7.65H8.30049L7.85049 6.75H16.1005ZM12.3255 13.05H11.2505L4.20049 3.025L5.02549 2.625L12.3255 13.05ZM1.87549 6.725L7.90049 15.425L7.42549 16.3L0.775488 6.675L4.40049 2H19.6005L23.2255 6.675L16.5755 16.3L16.1255 15.375L22.1255 6.725L19.1255 2.875H4.87549L1.87549 6.725ZM12.0005 22.575C11.0838 22.575 10.2422 22.35 9.47549 21.9C8.72549 21.45 8.12549 20.85 7.67549 20.1C7.22549 19.3333 7.00049 18.4917 7.00049 17.575C7.00049 16.6583 7.22549 15.825 7.67549 15.075C8.12549 14.3083 8.72549 13.7 9.47549 13.25C10.2422 12.8 11.0838 12.575 12.0005 12.575C12.9172 12.575 13.7505 12.8 14.5005 13.25C15.2672 13.7 15.8755 14.3083 16.3255 15.075C16.7755 15.825 17.0005 16.6583 17.0005 17.575C17.0005 18.4917 16.7755 19.3333 16.3255 20.1C15.8755 20.85 15.2672 21.45 14.5005 21.9C13.7505 22.35 12.9172 22.575 12.0005 22.575ZM12.0005 21.65C12.7338 21.65 13.4088 21.4667 14.0255 21.1C14.6588 20.7333 15.1588 20.2417 15.5255 19.625C15.8922 18.9917 16.0755 18.3083 16.0755 17.575C16.0755 16.8417 15.8922 16.1667 15.5255 15.55C15.1588 14.9167 14.6588 14.4167 14.0255 14.05C13.4088 13.6833 12.7338 13.5 12.0005 13.5C11.2672 13.5 10.5838 13.6833 9.95049 14.05C9.33382 14.4167 8.84216 14.9167 8.47549 15.55C8.10882 16.1667 7.92549 16.8417 7.92549 17.575C7.92549 18.3083 8.10882 18.9917 8.47549 19.625C8.84216 20.2417 9.33382 20.7333 9.95049 21.1C10.5838 21.4667 11.2672 21.65 12.0005 21.65Z" fill="black"/>
</g>
<defs>
<clipPath id="clip0_3197_7190">
<rect width="24" height="24" fill="white"/>
</clipPath>
</defs>
</svg>
