<svg width="24" height="24" viewBox="0 0 24 24" fill="none" xmlns="http://www.w3.org/2000/svg">
<g clip-path="url(#clip0_3197_7204)">
<rect width="24" height="24" fill="white"/>
<path d="M19.85 2L17.225 6H6.775L4.175 2H19.85ZM16.95 15.625C16.6 14.9917 16.175 14.4417 15.675 13.975C15.175 13.5083 14.6 13.1583 13.95 12.925L20.55 2.725L23.225 5.9L16.95 15.625ZM12 22.575C12.8333 22.575 13.5917 22.375 14.275 21.975C14.9583 21.575 15.5 21.0333 15.9 20.35C16.3 19.6667 16.5 18.9083 16.5 18.075C16.5 17.2417 16.3 16.4833 15.9 15.8C15.5 15.1167 14.9583 14.575 14.275 14.175C13.5917 13.775 12.8333 13.575 12 13.575C11.1667 13.575 10.4083 13.775 9.725 14.175C9.04167 14.575 8.5 15.1167 8.1 15.8C7.7 16.4833 7.5 17.2417 7.5 18.075C7.5 18.9083 7.7 19.6667 8.1 20.35C8.5 21.0333 9.04167 21.575 9.725 21.975C10.4083 22.375 11.1667 22.575 12 22.575ZM3.45 2.725L10.05 12.925C9.38333 13.1583 8.8 13.5083 8.3 13.975C7.8 14.4417 7.375 14.9917 7.025 15.625L0.775 5.9L3.45 2.725Z" fill="black"/>
</g>
<defs>
<clipPath id="clip0_3197_7204">
<rect width="24" height="24" fill="white"/>
</clipPath>
</defs>
</svg>
