<svg width="24" height="24" viewBox="0 0 24 24" fill="none" xmlns="http://www.w3.org/2000/svg">
<g clip-path="url(#clip0_3197_7194)">
<rect width="24" height="24" fill="white"/>
<path d="M13.6505 13.2H11.5755L18.4255 3.375L19.7005 4.525L13.6505 13.2ZM16.7005 6.075L15.3505 7.775H8.65049L7.30049 6.075H16.7005ZM12.4255 13.2H10.3505L4.32549 4.55L5.57549 3.375L12.4255 13.2ZM2.90049 6.8L8.57549 14.825L7.30049 15.975L0.775488 6.675L4.72549 2H19.2755L23.2255 6.675L16.7005 15.975L15.4505 14.8L21.1005 6.8L18.4005 3.7H5.60049L2.90049 6.8ZM12.0005 22.575C11.0838 22.575 10.2422 22.35 9.47549 21.9C8.72549 21.45 8.12549 20.85 7.67549 20.1C7.22549 19.3333 7.00049 18.4917 7.00049 17.575C7.00049 16.6583 7.22549 15.825 7.67549 15.075C8.12549 14.3083 8.72549 13.7 9.47549 13.25C10.2422 12.8 11.0838 12.575 12.0005 12.575C12.9172 12.575 13.7505 12.8 14.5005 13.25C15.2672 13.7 15.8755 14.3083 16.3255 15.075C16.7755 15.825 17.0005 16.6583 17.0005 17.575C17.0005 18.4917 16.7755 19.3333 16.3255 20.1C15.8755 20.85 15.2672 21.45 14.5005 21.9C13.7505 22.35 12.9172 22.575 12.0005 22.575ZM12.0005 20.775C12.5838 20.775 13.1172 20.6333 13.6005 20.35C14.1005 20.0667 14.4922 19.6833 14.7755 19.2C15.0588 18.7 15.2005 18.1583 15.2005 17.575C15.2005 16.9917 15.0588 16.4583 14.7755 15.975C14.4922 15.475 14.1005 15.0833 13.6005 14.8C13.1172 14.5167 12.5838 14.375 12.0005 14.375C11.4172 14.375 10.8755 14.5167 10.3755 14.8C9.89216 15.0833 9.50882 15.475 9.22549 15.975C8.94216 16.4583 8.80049 16.9917 8.80049 17.575C8.80049 18.1583 8.94216 18.7 9.22549 19.2C9.50882 19.6833 9.89216 20.0667 10.3755 20.35C10.8755 20.6333 11.4172 20.775 12.0005 20.775Z" fill="black"/>
</g>
<defs>
<clipPath id="clip0_3197_7194">
<rect width="24" height="24" fill="white"/>
</clipPath>
</defs>
</svg>
