<svg width="24" height="24" viewBox="0 0 24 24" fill="none" xmlns="http://www.w3.org/2000/svg">
<g clip-path="url(#clip0_3197_7152)">
<rect width="24" height="24" fill="white"/>
<path d="M3 21V20.075H21V21H3ZM18.475 18.1C17.7083 18.1 17.0583 17.8333 16.525 17.3C16.0083 16.7667 15.75 16.1167 15.75 15.35C15.75 14.6 16.0083 13.9667 16.525 13.45C17.0583 12.9167 17.7083 12.65 18.475 12.65C19.2417 12.65 19.8917 12.9167 20.425 13.45C20.975 13.9667 21.25 14.6 21.25 15.35C21.25 16.1167 20.9833 16.7667 20.45 17.3C19.9167 17.8333 19.2583 18.1 18.475 18.1ZM15.075 4C16.2917 5.21667 16.875 6.50833 16.825 7.875C16.775 9.24167 16.0917 10.5833 14.775 11.9C13.8583 12.8167 12.8833 13.4333 11.85 13.75C10.8167 14.05 9.78333 14.0583 8.75 13.775C8.21667 13.6417 7.70833 13.625 7.225 13.725C6.75833 13.8083 6.375 14 6.075 14.3L4.275 16.1L3 14.8L4.775 13.025C5.075 12.725 5.275 12.3333 5.375 11.85C5.475 11.3667 5.45 10.8583 5.3 10.325C5.01667 9.29167 5.025 8.26667 5.325 7.25C5.64167 6.21667 6.25833 5.24167 7.175 4.325C8.50833 3.00833 9.85 2.325 11.2 2.275C12.5667 2.20833 13.8583 2.78333 15.075 4Z" fill="black"/>
</g>
<defs>
<clipPath id="clip0_3197_7152">
<rect width="24" height="24" fill="white"/>
</clipPath>
</defs>
</svg>
