<svg width="24" height="24" viewBox="0 0 24 24" fill="none" xmlns="http://www.w3.org/2000/svg">
<g clip-path="url(#clip0_3197_7378)">
<rect width="24" height="24" fill="white"/>
<path d="M5.57549 21.925C4.70882 21.7583 3.95049 21.35 3.30049 20.7C2.66716 20.05 2.25882 19.2917 2.07549 18.425C1.64216 16.2583 1.77549 14.0417 2.47549 11.775C3.17549 9.50833 4.37549 7.55 6.07549 5.9C7.17549 4.81667 8.41716 3.94167 9.80049 3.275C11.2005 2.60833 12.6422 2.175 14.1255 1.975C15.6088 1.75833 17.0422 1.79167 18.4255 2.075C19.2922 2.24167 20.0505 2.65 20.7005 3.3C21.3505 3.95 21.7588 4.70833 21.9255 5.575C22.3588 7.74167 22.2255 9.95833 21.5255 12.225C20.8255 14.4917 19.6255 16.45 17.9255 18.1C16.8255 19.1833 15.5755 20.0667 14.1755 20.75C12.7755 21.4167 11.3338 21.8417 9.85049 22.025C8.36716 22.225 6.94216 22.1917 5.57549 21.925ZM6.12549 19.575C7.22549 19.8083 8.38382 19.8417 9.60049 19.675C10.8172 19.4917 12.0005 19.1083 13.1505 18.525C14.3172 17.9417 15.3588 17.1917 16.2755 16.275C17.6588 14.8917 18.6338 13.3 19.2005 11.5C19.7838 9.68333 19.9005 7.89167 19.5505 6.125C19.4838 5.70833 19.2922 5.34167 18.9755 5.025C18.6588 4.70833 18.2922 4.50833 17.8755 4.425C16.7755 4.19167 15.6172 4.16667 14.4005 4.35C13.1838 4.51667 11.9922 4.89167 10.8255 5.475C9.67549 6.05833 8.64216 6.80833 7.72549 7.725C6.34216 9.10833 5.35882 10.7083 4.77549 12.525C4.20882 14.325 4.10049 16.1083 4.45049 17.875C4.51716 18.2917 4.70882 18.6583 5.02549 18.975C5.34216 19.2917 5.70882 19.4917 6.12549 19.575ZM19.4005 2.9L21.1005 4.6L4.60049 21.1L2.90049 19.4L19.4005 2.9Z" fill="black"/>
</g>
<defs>
<clipPath id="clip0_3197_7378">
<rect width="24" height="24" fill="white"/>
</clipPath>
</defs>
</svg>
