<svg width="24" height="24" viewBox="0 0 24 24" fill="none" xmlns="http://www.w3.org/2000/svg">
<g clip-path="url(#clip0_3197_7396)">
<rect width="24" height="24" fill="white"/>
<path d="M5.575 21.925C5.00833 21.7917 4.51667 21.5917 4.1 21.325L21.325 4.1C21.5917 4.51667 21.7917 5.00833 21.925 5.575C22.3417 7.69167 22.1833 9.875 21.45 12.125C20.7333 14.3583 19.5583 16.2917 17.925 17.925C16.8417 19.0083 15.6 19.9 14.2 20.6C12.8 21.3 11.35 21.7583 9.85 21.975C8.36667 22.2083 6.94167 22.1917 5.575 21.925ZM2.675 19.9C2.40833 19.4833 2.20833 18.9917 2.075 18.425C1.65833 16.3083 1.80833 14.1333 2.525 11.9C3.25833 9.65 4.44167 7.70833 6.075 6.075C7.15833 4.99167 8.4 4.1 9.8 3.4C11.2 2.7 12.6417 2.23333 14.125 2C15.625 1.76667 17.0583 1.79167 18.425 2.075C18.9917 2.20833 19.4833 2.40833 19.9 2.675L2.675 19.9Z" fill="black"/>
</g>
<defs>
<clipPath id="clip0_3197_7396">
<rect width="24" height="24" fill="white"/>
</clipPath>
</defs>
</svg>
