<svg width="24" height="24" viewBox="0 0 24 24" fill="none" xmlns="http://www.w3.org/2000/svg">
<g clip-path="url(#clip0_3197_7372)">
<rect width="24" height="24" fill="white"/>
<path d="M5.57549 21.925C4.70882 21.7583 3.95049 21.35 3.30049 20.7C2.66716 20.05 2.25882 19.2917 2.07549 18.425C1.65882 16.3083 1.80882 14.1333 2.52549 11.9C3.25882 9.65 4.44216 7.70833 6.07549 6.075C7.15882 4.99167 8.40049 4.1 9.80049 3.4C11.2005 2.7 12.6422 2.23333 14.1255 2C15.6255 1.76667 17.0588 1.79167 18.4255 2.075C19.2922 2.24167 20.0505 2.65 20.7005 3.3C21.3505 3.95 21.7588 4.70833 21.9255 5.575C22.3422 7.69167 22.1838 9.875 21.4505 12.125C20.7172 14.3583 19.5338 16.3 17.9005 17.95C16.8172 19.0333 15.5755 19.925 14.1755 20.625C12.7922 21.325 11.3505 21.7833 9.85049 22C8.36716 22.2333 6.94216 22.2083 5.57549 21.925ZM5.77549 21C7.02549 21.2667 8.34216 21.2917 9.72549 21.075C11.1088 20.875 12.4505 20.4417 13.7505 19.775C15.0672 19.1083 16.2338 18.2667 17.2505 17.25C18.7838 15.7167 19.8838 13.9083 20.5505 11.825C21.2338 9.74167 21.3755 7.725 20.9755 5.775C20.8422 5.09167 20.5172 4.49167 20.0005 3.975C19.5005 3.45833 18.9088 3.13333 18.2255 3C16.9755 2.73333 15.6505 2.70833 14.2505 2.925C12.8672 3.125 11.5255 3.55833 10.2255 4.225C8.92549 4.89167 7.76716 5.73333 6.75049 6.75C5.21716 8.28333 4.10882 10.0917 3.42549 12.175C2.75882 14.2583 2.62549 16.275 3.02549 18.225C3.15882 18.9083 3.47549 19.5083 3.97549 20.025C4.49216 20.5417 5.09216 20.8667 5.77549 21ZM20.1755 3.15L20.8505 3.825L3.82549 20.85L3.15049 20.175L20.1755 3.15Z" fill="black"/>
</g>
<defs>
<clipPath id="clip0_3197_7372">
<rect width="24" height="24" fill="white"/>
</clipPath>
</defs>
</svg>
