<svg width="24" height="24" viewBox="0 0 24 24" fill="none" xmlns="http://www.w3.org/2000/svg">
<g clip-path="url(#clip0_3347_661)">
<rect width="24" height="24" fill="white"/>
<path d="M15.1755 3.5C16.3922 4.71667 16.9755 6.00833 16.9255 7.375C16.8755 8.74167 16.1922 10.0833 14.8755 11.4C13.9755 12.3167 13.0338 12.9667 12.0505 13.35C11.0672 13.7167 10.1172 13.8083 9.20049 13.625C9.10049 13.5917 9.00049 13.575 8.90049 13.575C8.51716 13.5417 8.14216 13.6 7.77549 13.75C7.40882 13.8833 7.07549 14.1 6.77549 14.4L4.97549 16.175L2.50049 13.725L4.30049 11.95C4.60049 11.6333 4.81716 11.3 4.95049 10.95C5.10049 10.5833 5.15882 10.2083 5.12549 9.825C5.12549 9.74167 5.10882 9.625 5.07549 9.475C4.87549 8.575 4.96716 7.63333 5.35049 6.65C5.73382 5.66667 6.37549 4.725 7.27549 3.825C8.60882 2.50833 9.95049 1.825 11.3005 1.775C12.6672 1.70833 13.9588 2.28333 15.1755 3.5ZM14.5505 4.125C13.5338 3.10833 12.4588 2.63333 11.3255 2.7C10.1922 2.75 9.05882 3.34167 7.92549 4.475C7.14216 5.25833 6.57549 6.06667 6.22549 6.9C5.89216 7.73333 5.80882 8.51667 5.97549 9.25C6.10882 9.88333 6.06716 10.5083 5.85049 11.125C5.66716 11.6083 5.35882 12.0833 4.92549 12.55L3.77549 13.725L4.97549 14.95L6.15049 13.775C6.45049 13.4583 6.78382 13.2083 7.15049 13.025C7.51716 12.825 7.88382 12.7083 8.25049 12.675C8.63382 12.625 9.01716 12.6417 9.40049 12.725C10.1338 12.875 10.9172 12.7833 11.7505 12.45C12.6005 12.1167 13.4255 11.5583 14.2255 10.775C15.3422 9.64167 15.9255 8.50833 15.9755 7.375C16.0422 6.225 15.5672 5.14167 14.5505 4.125ZM2.50049 21V20.025H21.5005V21H2.50049ZM5.40049 7.1L5.65049 6.85L6.05049 6.45L12.1005 12.5L11.8005 12.8L11.4505 13.15L5.40049 7.1ZM19.3255 17.65C18.6588 17.65 18.0922 17.4167 17.6255 16.95C17.1588 16.4833 16.9255 15.9167 16.9255 15.25C16.9255 14.6 17.1588 14.0417 17.6255 13.575C18.0922 13.1083 18.6588 12.875 19.3255 12.875C19.9922 12.875 20.5588 13.1083 21.0255 13.575C21.5088 14.0417 21.7505 14.6 21.7505 15.25C21.7505 15.9167 21.5088 16.4833 21.0255 16.95C20.5588 17.4167 19.9922 17.65 19.3255 17.65ZM19.3255 16.8C19.7588 16.8 20.1255 16.6583 20.4255 16.375C20.7255 16.075 20.8755 15.7 20.8755 15.25C20.8755 14.8167 20.7255 14.45 20.4255 14.15C20.1255 13.85 19.7588 13.7 19.3255 13.7C18.8922 13.7 18.5255 13.85 18.2255 14.15C17.9255 14.45 17.7755 14.8167 17.7755 15.25C17.7755 15.7 17.9255 16.075 18.2255 16.375C18.5255 16.6583 18.8922 16.8 19.3255 16.8Z" fill="black"/>
</g>
<defs>
<clipPath id="clip0_3347_661">
<rect width="24" height="24" fill="white"/>
</clipPath>
</defs>
</svg>
