<svg width="24" height="24" viewBox="0 0 24 24" fill="none" xmlns="http://www.w3.org/2000/svg">
<g clip-path="url(#clip0_3347_683)">
<rect width="24" height="24" fill="white"/>
<path d="M2.5 21V18.15H21.5V21H2.5ZM19.35 15.925C18.7 15.925 18.1417 15.7 17.675 15.25C17.225 14.7833 17 14.2167 17 13.55C17 12.8833 17.225 12.325 17.675 11.875C18.125 11.425 18.6917 11.2 19.375 11.2C20.025 11.2 20.5833 11.425 21.05 11.875C21.5167 12.325 21.75 12.8833 21.75 13.55C21.75 14.2167 21.5167 14.7833 21.05 15.25C20.6 15.7 20.0333 15.925 19.35 15.925ZM14.95 3.525C16.1667 4.74167 16.75 6.03333 16.7 7.4C16.65 8.76667 15.9667 10.1083 14.65 11.425C13.6833 12.375 12.725 13.0333 11.775 13.4C10.825 13.75 9.85 13.7917 8.85 13.525C8.33333 13.3917 7.85833 13.3917 7.425 13.525C6.99167 13.6417 6.61667 13.8583 6.3 14.175L4.5 15.975L2.5 13.975L4.3 12.2C4.61667 11.8667 4.83333 11.4833 4.95 11.05C5.08333 10.6 5.075 10.1167 4.925 9.6C4.65833 8.61667 4.70833 7.65 5.075 6.7C5.44167 5.75 6.1 4.8 7.05 3.85C8.38333 2.53333 9.725 1.85 11.075 1.8C12.4417 1.73333 13.7333 2.30833 14.95 3.525Z" fill="black"/>
</g>
<defs>
<clipPath id="clip0_3347_683">
<rect width="24" height="24" fill="white"/>
</clipPath>
</defs>
</svg>
