<svg width="24" height="24" viewBox="0 0 24 24" fill="none" xmlns="http://www.w3.org/2000/svg">
<g clip-path="url(#clip0_3347_665)">
<rect width="24" height="24" fill="white"/>
<path d="M14.5755 3.5C15.7922 4.71667 16.3755 6.00833 16.3255 7.375C16.2755 8.74167 15.5922 10.0833 14.2755 11.4C13.3588 12.3167 12.3838 12.9333 11.3505 13.25C10.3172 13.55 9.28382 13.5583 8.25049 13.275C8.13382 13.2417 8.01716 13.2167 7.90049 13.2C7.43382 13.1167 6.99216 13.1333 6.57549 13.25C6.17549 13.35 5.84216 13.5333 5.57549 13.8L3.77549 15.6L2.50049 14.3L4.27549 12.525C4.54216 12.2583 4.72549 11.925 4.82549 11.525C4.94216 11.125 4.96716 10.6917 4.90049 10.225C4.86716 10.0917 4.83382 9.95833 4.80049 9.825C4.51716 8.79167 4.52549 7.76667 4.82549 6.75C5.14216 5.71667 5.75882 4.74167 6.67549 3.825C8.00882 2.50833 9.35049 1.825 10.7005 1.775C12.0672 1.70833 13.3588 2.28333 14.5755 3.5ZM13.2755 4.8C12.4422 3.98333 11.5838 3.6 10.7005 3.65C9.83382 3.68333 8.92549 4.175 7.97549 5.125C7.29216 5.80833 6.83382 6.50833 6.60049 7.225C6.38382 7.925 6.37549 8.63333 6.57549 9.35C6.82549 10.2667 6.80049 11.1667 6.50049 12.05C6.28382 12.6667 5.93382 13.2167 5.45049 13.7L5.00049 14.125L3.95049 13.1L4.40049 12.65C4.73382 12.3167 5.10882 12.0417 5.52549 11.825C5.99216 11.575 6.49216 11.425 7.02549 11.375C7.57549 11.325 8.15049 11.375 8.75049 11.525C9.45049 11.725 10.1588 11.7083 10.8755 11.475C11.6088 11.2417 12.3088 10.7917 12.9755 10.125C13.9255 9.175 14.4172 8.26667 14.4505 7.4C14.5005 6.51667 14.1088 5.65 13.2755 4.8ZM2.50049 21V19.2H21.5005V21H2.50049ZM5.12549 10.175L5.50049 9.4L5.90049 8.525L9.77549 12.4L8.90049 12.75L8.05049 13.1L5.12549 10.175ZM18.9755 16.925C18.2088 16.925 17.5588 16.6583 17.0255 16.125C16.5088 15.5917 16.2505 14.9417 16.2505 14.175C16.2505 13.425 16.5088 12.7917 17.0255 12.275C17.5588 11.7417 18.2088 11.475 18.9755 11.475C19.7422 11.475 20.3922 11.7417 20.9255 12.275C21.4755 12.7917 21.7505 13.425 21.7505 14.175C21.7505 14.9417 21.4838 15.5917 20.9505 16.125C20.4172 16.6583 19.7588 16.925 18.9755 16.925ZM18.9755 15.325C19.3088 15.325 19.5838 15.2167 19.8005 15C20.0172 14.7667 20.1255 14.4917 20.1255 14.175C20.1255 13.8583 20.0172 13.6 19.8005 13.4C19.5838 13.1833 19.3088 13.075 18.9755 13.075C18.6588 13.075 18.3922 13.1833 18.1755 13.4C17.9755 13.6 17.8755 13.8583 17.8755 14.175C17.8755 14.5083 17.9755 14.7833 18.1755 15C18.3922 15.2167 18.6588 15.325 18.9755 15.325Z" fill="black"/>
</g>
<defs>
<clipPath id="clip0_3347_665">
<rect width="24" height="24" fill="white"/>
</clipPath>
</defs>
</svg>
