<svg width="24" height="24" viewBox="0 0 24 24" fill="none" xmlns="http://www.w3.org/2000/svg">
<g clip-path="url(#clip0_3347_677)">
<rect width="24" height="24" fill="white"/>
<path d="M2.5 21V19.6H21.5V21H2.5ZM19.35 16.75C18.6833 16.75 18.125 16.525 17.675 16.075C17.225 15.6083 17 15.0417 17 14.375C17 13.725 17.225 13.175 17.675 12.725C18.125 12.275 18.6833 12.05 19.35 12.05C20.0167 12.05 20.5833 12.275 21.05 12.725C21.5167 13.175 21.75 13.725 21.75 14.375C21.75 15.0417 21.5167 15.6083 21.05 16.075C20.6 16.525 20.0333 16.75 19.35 16.75ZM14.575 3.5C15.7917 4.71667 16.375 6.00833 16.325 7.375C16.275 8.74167 15.5917 10.0833 14.275 11.4C13.3583 12.3167 12.3833 12.9333 11.35 13.25C10.3167 13.55 9.28333 13.5583 8.25 13.275C7.71667 13.1417 7.20833 13.125 6.725 13.225C6.25833 13.3083 5.875 13.5 5.575 13.8L3.775 15.6L2.5 14.3L4.275 12.525C4.575 12.225 4.775 11.8333 4.875 11.35C4.975 10.8667 4.95 10.3583 4.8 9.825C4.51667 8.79167 4.525 7.76667 4.825 6.75C5.14167 5.71667 5.75833 4.74167 6.675 3.825C8.00833 2.50833 9.35 1.825 10.7 1.775C12.0667 1.70833 13.3583 2.28333 14.575 3.5Z" fill="black"/>
</g>
<defs>
<clipPath id="clip0_3347_677">
<rect width="24" height="24" fill="white"/>
</clipPath>
</defs>
</svg>
