<svg width="24" height="24" viewBox="0 0 24 24" fill="none" xmlns="http://www.w3.org/2000/svg">
<g clip-path="url(#clip0_3197_7222)">
<rect width="24" height="24" fill="white"/>
<path d="M4.90049 17.125C5.68382 16.0083 6.70049 15.125 7.95049 14.475C9.20049 13.825 10.5505 13.5 12.0005 13.5C13.5338 13.5 14.9338 13.85 16.2005 14.55C17.4838 15.25 18.5255 16.2 19.3255 17.4L17.3755 18.675C16.7922 17.7917 16.0338 17.1 15.1005 16.6C14.1672 16.0833 13.1338 15.825 12.0005 15.825C10.9338 15.825 9.94216 16.0583 9.02549 16.525C8.12549 16.9917 7.38382 17.6417 6.80049 18.475L4.90049 17.125ZM19.3255 6.6C18.5255 7.8 17.4838 8.75 16.2005 9.45C14.9338 10.15 13.5338 10.5 12.0005 10.5C10.5505 10.5 9.20049 10.175 7.95049 9.525C6.70049 8.875 5.68382 7.99167 4.90049 6.875L6.80049 5.525C7.38382 6.34167 8.12549 6.98333 9.02549 7.45C9.94216 7.91667 10.9338 8.15 12.0005 8.15C13.1338 8.15 14.1672 7.9 15.1005 7.4C16.0338 6.9 16.7922 6.20833 17.3755 5.325L19.3255 6.6ZM12.0005 22C10.1672 22 8.48382 21.5583 6.95049 20.675C5.41716 19.7917 4.20882 18.5833 3.32549 17.05C2.44216 15.5167 2.00049 13.8333 2.00049 12C2.00049 10.1667 2.44216 8.48333 3.32549 6.95C4.20882 5.41667 5.41716 4.20833 6.95049 3.325C8.48382 2.44167 10.1672 2 12.0005 2C13.8338 2 15.5172 2.44167 17.0505 3.325C18.5838 4.20833 19.7922 5.41667 20.6755 6.95C21.5588 8.48333 22.0005 10.1667 22.0005 12C22.0005 13.8333 21.5588 15.5167 20.6755 17.05C19.7922 18.5833 18.5838 19.7917 17.0505 20.675C15.5172 21.5583 13.8338 22 12.0005 22ZM12.0005 19.675C13.4005 19.675 14.6755 19.3333 15.8255 18.65C16.9922 17.9667 17.9172 17.0417 18.6005 15.875C19.2838 14.7083 19.6255 13.4167 19.6255 12C19.6255 10.5833 19.2838 9.29167 18.6005 8.125C17.9172 6.95833 16.9922 6.03333 15.8255 5.35C14.6755 4.66667 13.4005 4.325 12.0005 4.325C10.6005 4.325 9.31716 4.66667 8.15049 5.35C7.00049 6.03333 6.08382 6.95833 5.40049 8.125C4.71716 9.29167 4.37549 10.5833 4.37549 12C4.37549 13.4167 4.71716 14.7083 5.40049 15.875C6.08382 17.0417 7.00049 17.9667 8.15049 18.65C9.31716 19.3333 10.6005 19.675 12.0005 19.675Z" fill="black"/>
</g>
<defs>
<clipPath id="clip0_3197_7222">
<rect width="24" height="24" fill="white"/>
</clipPath>
</defs>
</svg>
