<svg width="24" height="24" viewBox="0 0 24 24" fill="none" xmlns="http://www.w3.org/2000/svg">
<g clip-path="url(#clip0_3197_7218)">
<rect width="24" height="24" fill="white"/>
<path d="M4.92549 17.825C5.70882 16.7083 6.71716 15.8333 7.95049 15.2C9.20049 14.55 10.5505 14.225 12.0005 14.225C13.5172 14.225 14.9088 14.575 16.1755 15.275C17.4588 15.9583 18.5005 16.9 19.3005 18.1L18.1505 18.85C17.5005 17.8333 16.6338 17.0333 15.5505 16.45C14.4838 15.8667 13.3005 15.575 12.0005 15.575C10.7672 15.575 9.62549 15.85 8.57549 16.4C7.54216 16.9333 6.69216 17.6667 6.02549 18.6L4.92549 17.825ZM19.3005 5.9C18.5005 7.1 17.4672 8.05 16.2005 8.75C14.9338 9.43333 13.5338 9.775 12.0005 9.775C10.5505 9.775 9.20049 9.45833 7.95049 8.825C6.71716 8.175 5.70882 7.29167 4.92549 6.175L6.02549 5.4C6.69216 6.33333 7.54216 7.075 8.57549 7.625C9.62549 8.15833 10.7672 8.425 12.0005 8.425C13.3005 8.425 14.4838 8.13333 15.5505 7.55C16.6338 6.96667 17.5005 6.16667 18.1505 5.15L19.3005 5.9ZM12.0005 22C10.1672 22 8.48382 21.5583 6.95049 20.675C5.41716 19.7917 4.20882 18.5833 3.32549 17.05C2.44216 15.5167 2.00049 13.8333 2.00049 12C2.00049 10.1667 2.44216 8.48333 3.32549 6.95C4.20882 5.41667 5.41716 4.20833 6.95049 3.325C8.48382 2.44167 10.1672 2 12.0005 2C13.8338 2 15.5172 2.44167 17.0505 3.325C18.5838 4.20833 19.7922 5.41667 20.6755 6.95C21.5588 8.48333 22.0005 10.1667 22.0005 12C22.0005 13.8333 21.5588 15.5167 20.6755 17.05C19.7922 18.5833 18.5838 19.7917 17.0505 20.675C15.5172 21.5583 13.8338 22 12.0005 22ZM12.0005 20.65C13.5838 20.65 15.0255 20.2667 16.3255 19.5C17.6422 18.7333 18.6838 17.6917 19.4505 16.375C20.2172 15.0583 20.6005 13.6 20.6005 12C20.6005 10.4 20.2172 8.94167 19.4505 7.625C18.6838 6.30833 17.6422 5.26667 16.3255 4.5C15.0255 3.73333 13.5838 3.35 12.0005 3.35C10.4172 3.35 8.96716 3.73333 7.65049 4.5C6.35049 5.26667 5.31716 6.30833 4.55049 7.625C3.78382 8.94167 3.40049 10.4 3.40049 12C3.40049 13.6 3.78382 15.0583 4.55049 16.375C5.31716 17.6917 6.35049 18.7333 7.65049 19.5C8.96716 20.2667 10.4172 20.65 12.0005 20.65Z" fill="black"/>
</g>
<defs>
<clipPath id="clip0_3197_7218">
<rect width="24" height="24" fill="white"/>
</clipPath>
</defs>
</svg>
