<svg width="24" height="24" viewBox="0 0 24 24" fill="none" xmlns="http://www.w3.org/2000/svg">
<g clip-path="url(#clip0_3197_7230)">
<rect width="24" height="24" fill="white"/>
<path d="M19.95 18.15C18.9667 17.0667 17.7833 16.2167 16.4 15.6C15.0333 14.9833 13.5583 14.675 11.975 14.675C10.4083 14.675 8.93333 14.9833 7.55 15.6C6.18333 16.2 5.00833 17.0417 4.025 18.125C3.375 17.275 2.875 16.3333 2.525 15.3C2.175 14.25 2 13.15 2 12C2 10.8333 2.175 9.73333 2.525 8.7C2.89167 7.65 3.40833 6.69167 4.075 5.825C5.04167 6.925 6.20833 7.78333 7.575 8.4C8.94167 9 10.4083 9.3 11.975 9.3C13.5583 9.3 15.0333 8.99167 16.4 8.375C17.7667 7.75833 18.9333 6.9 19.9 5.8C20.5667 6.66667 21.0833 7.625 21.45 8.675C21.8167 9.725 22 10.8333 22 12C22 13.15 21.8167 14.25 21.45 15.3C21.1 16.35 20.6 17.3 19.95 18.15ZM12 22C10.55 22 9.19167 21.725 7.925 21.175C6.675 20.625 5.59167 19.8583 4.675 18.875C5.575 17.8417 6.65 17.0417 7.9 16.475C9.15 15.9083 10.5083 15.625 11.975 15.625C13.4583 15.625 14.825 15.9083 16.075 16.475C17.3417 17.0417 18.425 17.8417 19.325 18.875C18.4083 19.8583 17.3167 20.625 16.05 21.175C14.7833 21.725 13.4333 22 12 22ZM11.975 8.35C10.5083 8.35 9.15 8.06667 7.9 7.5C6.65 6.91667 5.58333 6.11667 4.7 5.1C5.63333 4.11667 6.725 3.35833 7.975 2.825C9.225 2.275 10.5667 2 12 2C13.4333 2 14.775 2.275 16.025 2.825C17.275 3.35833 18.3667 4.10833 19.3 5.075C18.4 6.125 17.325 6.93333 16.075 7.5C14.825 8.06667 13.4583 8.35 11.975 8.35Z" fill="black"/>
</g>
<defs>
<clipPath id="clip0_3197_7230">
<rect width="24" height="24" fill="white"/>
</clipPath>
</defs>
</svg>
